
<svg xmlns="http://www.w3.org/2000/svg" version="1.1" xmlns:xlink="http://www.w3.org/1999/xlink" preserveAspectRatio="none" x="0px" y="0px" width="550px" height="400px" viewBox="0 0 550 400">
<defs>
<g id="Layer0_0_FILL">
<path fill="#C9D39A" stroke="none" d="
M 125.35 35.1
Q 125.35 31.35 122.15 25.35 118.4 18.45 112.4 12.85 96 -2.45 72.6 0.5 40.05 0.75 18.4 23.05 9.75 31.9 4.85 42.45 0.35 52.15 0.35 60 1 74.75 4.35 89.2 8.55 107.4 15.45 114.2
L 15.85 115.15 16.85 115.95
Q 17.3 116.45 19 116.8 21.6 118.2 24.6 118.2
L 26.6 117.85 26.9 117.65 30.1 117.75
Q 37.6 117.95 70.6 117.95
L 86.6 116.45
Q 100.5 116.35 104.75 114.2 106.35 113.4 106.35 111.7 106.35 111.25 105.4 110.85 117.65 104.7 122.6 74.5 125.75 55.4 125.35 35.1 Z"/>
</g>
</defs>

<g transform="matrix( 1, 0, 0, 1, 0,0) ">
<use xlink:href="#Layer0_0_FILL"/>
</g>
</svg>
