
<svg xmlns="http://www.w3.org/2000/svg" version="1.1" xmlns:xlink="http://www.w3.org/1999/xlink" preserveAspectRatio="none" x="0px" y="0px" width="550px" height="400px" viewBox="0 0 550 400">
<defs>
<g id="Layer0_0_FILL">
<path fill="#DCC592" stroke="none" d="
M 91.85 68.5
Q 91.85 58.8 87.85 50.5 79.95 34 59.6 34 39.25 34 34.4 48.5 32.8 53.2 32.9 59.35
L 33.35 66.1
Q 33.35 74 33.6 75.9 34.35 81.8 37.6 85.95 41.8 91.6 50.75 97.25 61.7 104.2 70.6 104.2 101.5 104.2 109.05 79 112.9 66.2 110.6 51.25 110.6 31 94.75 21.55 80.1 12.85 59.85 17.05 38.95 21.4 24.95 37.15 9.1 55.1 9.1 81.35
L 8.85 86.05
Q 8.7 91.6 9.15 96.15 10.55 110.7 17.6 110.7 19.1 110.7 19.85 110.2
L 20.6 109.7
Q 20.7 109.2 20.95 108.75
L 21.1 107.05
Q 21.1 106 19.5 103.05 17.85 100.05 17.85 98.45 17.05 93.05 16.95 86.05 16.65 72.3 19.9 61.05 30.1 25.25 71.6 25.25 94.05 25.25 100.65 43.8 104 53.2 102.85 64 103.3 72.55 99.65 80.5 92.35 96.2 71.6 96.2 53.6 96.2 46.15 83 41.85 75.4 41.85 66.1 40.9 60.3 42.65 54.5 46.2 43 59.95 43 74.4 43 80.15 54 83.35 60.1 83.35 68.25 83.35 69.65 82.6 71 81.25 73.5 77.95 73.5 74.55 73.5 70.6 70.5 66.85 67.6 66.85 65.6 67.8 62.8 67.85 60.15 68 55 63.6 55 59.3 55 58.4 60 57.95 62.5 58.35 65.25
L 58.35 68.35
Q 58.6 71.6 59.9 74.25 64.1 82.5 77.6 82.5 87.2 82.5 90.35 76.75 91.85 74 91.85 68.5 Z"/>
</g>
</defs>

<g transform="matrix( 1, 0, 0, 1, 0,0) ">
<use xlink:href="#Layer0_0_FILL"/>
</g>
</svg>
