
<svg xmlns="http://www.w3.org/2000/svg" version="1.1" xmlns:xlink="http://www.w3.org/1999/xlink" preserveAspectRatio="none" x="0px" y="0px" width="550px" height="400px" viewBox="0 0 550 400">
<defs>
<g id="Layer0_0_FILL">
<path fill="#000000" fill-opacity="0.25098039215686274" stroke="none" d="
M 42.75 55.15
Q 42.25 67.4 42.6 74.25 47.25 55 68.6 44.25 43.2 42.9 42.75 55.15
M 65.2 62.45
L 67.5 71.8 72.8 70.05 68.1 59 65.2 62.45
M 42.5 33.95
L 49.85 26
Q 23 35.4 17.6 75.25
L 25.25 56.75 42.5 33.95
M 117.85 54.45
Q 118.7 77.85 98.75 96.15 78.55 114.6 44.6 92.2
L 62.65 106.95 73.1 107.2 38.6 118.2
Q 83.9 119.1 114.6 113.2 121.2 88.75 125.35 50.9 127.8 20.3 106.6 8.25 121.7 32.3 117.85 54.45
M 98.7 72.4
L 98.5 71.6 92.6 40.25
Q 98.6 79.2 74.8 78.05 69.6 77.75 67.55 81.75
L 59.6 83.25 91.8 83.3 92.6 83.25 98.7 72.4 Z"/>

<path fill="#FFFFFF" fill-opacity="0.5019607843137255" stroke="none" d="
M 66.35 53.1
L 66.25 52.6
Q 54.6 50.55 51.1 62.35
L 51.6 73.25
Q 56.85 56.25 66.35 53.1
M 52.2 4.95
L 50.6 5.25 51.55 5.15
Q 25.95 12.8 12.45 32.1 0.25 49.6 0 70.55
L 3.35 71.5
Q 10.4 119.65 9.6 104.05 6.65 73.55 12.25 49.35 17.85 25.15 81.6 0.25
L 64.15 2.2
Q 57.85 3.25 52.2 4.95
M 60.8 32.95
L 42.5 33.95 25.25 56.75 27.9 58.3
Q 26.55 70.85 30.5 78.6 34.4 86.25 35.4 61.1 36.35 35.85 60.8 32.95
M 102.25 57
L 98.5 71.6 98.7 72.4 92.6 83.25 91.8 83.3
Q 82.35 91.85 69.9 94.65
L 66.8 95.15
Q 86.8 97.75 100.05 83 110.45 71.3 98.6 40.25
L 102.25 57
M 84.1 67
L 81.1 57 73.7 68.9 77 72.85 84.1 67 Z"/>
</g>
</defs>

<g transform="matrix( 1, 0, 0, 1, 0,0) ">
<use xlink:href="#Layer0_0_FILL"/>
</g>
</svg>
