
<svg xmlns="http://www.w3.org/2000/svg" version="1.1" xmlns:xlink="http://www.w3.org/1999/xlink" preserveAspectRatio="none" x="0px" y="0px" width="550px" height="400px" viewBox="0 0 550 400">
<defs>
<g id="Layer0_0_FILL">
<path fill="#CEFF85" stroke="none" d="
M -46.8 -72.35
L -47.45 -70.5
Q -47.45 -69.3 -46.5 -68.75 -45.4 -68.1 -42.6 -68.1
L -40.65 -68.3
Q -42.05 -70.55 -43.65 -73.85 -45.75 -74.15 -46.8 -72.35
M -37.25 -69.3
Q -36.4 -70.55 -37.4 -71.95 -38.5 -73.5 -41.1 -73.9
L -37.25 -69.3
M 30.55 -88.7
L 31.65 -89.3 22.75 -90.4
Q 23.6 -89.45 25.15 -88.75 26.65 -88.05 27.65 -88.05 28.6 -88.05 30.55 -88.7
M 32.45 -91.9
L 32.65 -92.1
Q 31.45 -94.05 28.05 -94.3 24.95 -94.55 23.7 -93.4
L 31.65 -91.85 32.45 -91.9 Z"/>

<path fill="#006600" stroke="none" d="
M -37.25 -63.1
Q -38.3 -65.6 -38.85 -65.8
L -39.8 -64.15 -40.15 -63.2
Q -40.15 -62.5 -39.35 -61.65 -38.4 -60.6 -36.9 -60.15
L -36.25 -60.3 -37.25 -63.1
M -28.6 -62.75
L -28.6 -66.55 -35.5 -66.55 -35.5 -62.75 -28.6 -62.75
M -29.2 -69.1
Q -28 -69.9 -28 -71.05 -28 -72.2 -29.2 -73 -30.4 -73.8 -32.1 -73.8 -33.8 -73.8 -35 -73 -36.2 -72.2 -36.2 -71.05 -36.2 -69.9 -35 -69.1 -33.8 -68.3 -32.1 -68.3 -30.4 -68.3 -29.2 -69.1
M 35.6 -82.3
L 39.45 -84.25
Q 42.85 -86.2 43.95 -88.05
L 36.9 -88.7 35.6 -82.3
M 33.5 -92.6
Q 33.85 -92.15 35.1 -92
L 35.35 -94.05 33.5 -92.6
M 34.4 -88.6
Q 33.75 -88.7 32.75 -87.95 31.55 -86.95 31.55 -85.3
L 31.7 -83.45 32.35 -83.05 33.1 -82.35
Q 34.4 -87.55 34.4 -88.6
M 39.55 -93.55
L 39.25 -94.8 38.55 -95.35
Q 38.15 -95.35 37.85 -94.8 37.55 -94.3 37.55 -93.55 37.55 -92.8 37.85 -92.25 38.15 -91.75 38.55 -91.75
L 39.25 -92.25 39.55 -93.55 Z"/>
</g>
</defs>

<g transform="matrix( 1, 0, 0, 1, 0,0) ">
<use xlink:href="#Layer0_0_FILL"/>
</g>
</svg>
