
<svg xmlns="http://www.w3.org/2000/svg" version="1.1" xmlns:xlink="http://www.w3.org/1999/xlink" preserveAspectRatio="none" x="0px" y="0px" width="550px" height="400px" viewBox="0 0 550 400">
<defs>
<g id="Layer0_0_FILL">
<path fill="#000000" fill-opacity="0.25098039215686274" stroke="none" d="
M -6.95 -53.5
Q -19.1 -53.5 -24.05 -51.85 -28.45 -50.35 -28.45 -47 -28.45 -44.45 -25.45 -43 -22.75 -41.7 -18.55 -41.7 -9.25 -41.7 -5.55 -47.6 -4.2 -49.85 -4.6 -51.65 -5 -53.5 -6.95 -53.5
M 68.75 -67.65
Q 66.5 -72.35 66.5 -72.75
L 67 -78
Q 63.5 -75.7 59.75 -66.65
L 55.05 -53.95 49.15 -48.35
Q 41.95 -41.9 37.2 -36.85 32.85 -32.25 29.2 -24.7 25.85 -17.9 22.95 -15.45 18.1 -11.35 7.3 -9.5 -5 -7.4 -29.05 -7.4 -32.6 -7.4 -36.55 -9.9 -40.25 -12.25 -40.25 -13.75 -40.25 -17.4 -38.35 -19.75
L -36.5 -21.9
Q -36.5 -23.5 -36.85 -24.05 -37.35 -24.8 -39.05 -25.15
L -55.75 -26.75 -53.35 -28.95
Q -52.5 -29.8 -52.5 -30.25
L -59.5 -38.7
Q -66.5 -47.8 -66.5 -51.25 -66.5 -53.75 -63.4 -60.2 -60.75 -65.55 -57.75 -70.25
L -57.45 -69.1
Q -56.3 -64.7 -55.6 -63.9 -54.05 -62.1 -49.15 -62.25 -49.55 -62.25 -49.8 -63
L -50 -64.5
Q -50 -67.3 -47 -70.45 -42.6 -75.1 -34.15 -75.1
L -29.95 -74.3
Q -29.75 -74.3 -26.65 -78.6 -23.45 -83.05 -23.45 -83.8
L -24 -86.15
Q -25.15 -88.5 -27.95 -88.5
L -49.15 -87.7 -50.05 -87.95 -51 -88.5
Q -52.2 -85.5 -55.5 -85.65
L -61.25 -85.7
Q -64.95 -84.5 -66.55 -82.9 -67.45 -82 -67.45 -81.25
L -66.9 -80.5 -65 -78.55
Q -65.8 -77.75 -66.65 -77.25
L -68.55 -76.25
Q -71.25 -67.85 -74.55 -61.05 -76.5 -57.1 -76.5 -54.1 -76.5 -52.6 -74.65 -47.3
L -69.05 -33.45
Q -67.9 -31.2 -66.75 -30.05 -63.95 -27.1 -60.4 -22.2
L -57.35 -17.65 -57.25 -15.75
Q -56.85 -14.5 -55 -14.5 -53.2 -14.5 -52.65 -16.5 -52.4 -17.55 -52.5 -18.65 -52.5 -19.8 -53.05 -20.8
L -43.5 -20 -45.8 -15.5
Q -46.5 -14.25 -46.5 -13.6 -46.5 -12.7 -44.55 -10.4 -42.2 -7.6 -38.45 -4.85 -41.25 -3.9 -42.6 -1.75 -43.5 -0.3 -43.5 1 -43.5 5.1 -38.85 8.15 -33.8 11.5 -26 11.5 -23.6 11.5 -5.25 5.75
L 45.2 -10.2
Q 57.05 -13.9 64.8 -27.1 72.5 -40.15 72.5 -56.3
L 71.45 -61.9 68.75 -67.65
M 20.95 -104.45
L 22.6 -100.6
Q 20.2 -99.35 18.2 -97.8
L 16.55 -96.35
Q 16.55 -95.75 16.9 -95.35
L 17.7 -94.4
Q 20.55 -91.5 20.55 -90.5
L 20.1 -89 19.55 -87.85
Q 19.7 -86.9 20.15 -86.3 19.15 -89.45 23.85 -92.75 28.6 -96.15 34.4 -96.15 40.5 -94.85 42.4 -93.75 51.55 -105 58.25 -112.45 60.55 -115 60.55 -116.05
L 60.5 -116.6 59 -116.9 58.8 -119.5
Q 58.8 -120 59.2 -120.5 59.55 -121.05 59.55 -121.55 59.55 -122.35 58.45 -123.4 56.6 -125.1 52.8 -125.1 49.15 -125.1 35.3 -116.65 20.95 -107.9 20.95 -104.45
M 15 -157.35
Q 5.85 -160.15 0.65 -160.15 -8.75 -160.15 -15.9 -154.15 -23.3 -148 -34.55 -130.4
L -45.15 -113.7
Q -49.5 -106.5 -49.5 -105.1 -49.5 -101.55 -44.05 -100.15
L -38.5 -99.5
Q -32.65 -99.5 -19.05 -121
L -9.6 -135.8
Q -4.95 -142.5 -3 -142.5 2.9 -142.5 11.8 -140.25
L 25.85 -136.35
Q 33.1 -134.55 36.35 -135.25 40.5 -136.15 40.5 -141.25 40.5 -141.8 38.45 -143.3 35.5 -145.4 33.85 -147.1 27.6 -153.5 15 -157.35 Z"/>
</g>
</defs>

<g transform="matrix( 1, 0, 0, 1, 0,0) ">
<use xlink:href="#Layer0_0_FILL"/>
</g>
</svg>
