
<svg xmlns="http://www.w3.org/2000/svg" version="1.1" xmlns:xlink="http://www.w3.org/1999/xlink" preserveAspectRatio="none" x="0px" y="0px" width="550px" height="400px" viewBox="0 0 550 400">
<defs>
<g id="Layer0_0_FILL">
<path fill="#FFFFFF" fill-opacity="0.25098039215686274" stroke="none" d="
M 51.8 -87.4
Q 50.6 -88.35 48.25 -88.35 45.3 -88.35 39.35 -84.9 33.35 -81.5 32.6 -81.5
L 24.55 -81.75
Q 24.65 -83.85 24.1 -84.7 23.55 -85.5 22.05 -85.5 20.45 -85.5 19.95 -84.85 19.5 -84.25 19.5 -82.45 19.5 -80.75 20.8 -78.9
L 22.55 -76.75
Q 4.65 -71.2 -4.3 -67.4 -8.55 -65.65 -17.25 -64.05 -16.45 -69.95 -16.45 -73.55 -16.45 -78.4 -18.3 -78.4 -20.55 -78.4 -22.5 -75.7 -23.5 -74.3 -25.75 -69.7 -30.05 -61 -34.6 -61 -40.7 -61 -41.4 -62.75
L -42 -63.95
Q -42.7 -64.5 -44.95 -64.5 -49.5 -64.5 -53.85 -61.25 -57.45 -58.6 -57.45 -57.5 -57.45 -55.55 -52.2 -54.55
L -36.6 -53.5 -30.45 -53.6
Q -30.6 -52.15 -29.85 -51.3 -29.2 -50.5 -27.95 -50.5 -6.15 -50.5 17.75 -60.7 29.75 -65.8 37.35 -71
L 37.1 -71.95
Q 45 -72.05 49.85 -76.4 53.55 -79.7 53.55 -82.65 53.55 -86.05 51.8 -87.4 Z"/>
</g>
</defs>

<g transform="matrix( 1, 0, 0, 1, 0,0) ">
<use xlink:href="#Layer0_0_FILL"/>
</g>
</svg>
