
<svg xmlns="http://www.w3.org/2000/svg" version="1.1" xmlns:xlink="http://www.w3.org/1999/xlink" preserveAspectRatio="none" x="0px" y="0px" width="550px" height="400px" viewBox="0 0 550 400">
<defs>
<g id="Layer0_0_FILL">
<path fill="#E7E3BC" stroke="none" d="
M -22.3 -61.05
Q -32.35 -59.7 -40.1 -57.2 -47 -54.95 -48.25 -53.15 -47.7 -52.4 -46.65 -51.8 -45.8 -51.3 -45.55 -51.3 -39.15 -51.3 -32.4 -54.45 -26.95 -57 -22.3 -61.05
M -17.2 -103.35
Q -20.1 -103.35 -22.15 -102.55 -24.2 -101.75 -24.2 -100.6 -24.2 -99.45 -22.15 -98.65 -20.1 -97.85 -17.2 -97.85 -14.3 -97.85 -12.25 -98.65 -10.2 -99.45 -10.2 -100.6 -10.2 -101.75 -12.25 -102.55 -14.3 -103.35 -17.2 -103.35
M -47.8 -99.4
Q -54.95 -99.9 -79.95 -99.8
L -82.05 -98.05 -83.8 -98 -83.8 -98.05 -85.2 -100.1
Q -85.85 -100.85 -86.05 -100.85
L -97.85 -99.9
Q -103.85 -98.8 -106.05 -97.25 -107.85 -96.05 -107.85 -93.9
L -107.65 -92.8 -107.5 -92.45 -104.7 -92.4 -101.2 -92.95
Q -98.3 -93.55 -97.1 -94.05 -95.9 -94.55 -94.85 -95.65 -95.6 -96.3 -96.45 -96.75
L -83.35 -96.85 -80.9 -96.5 -78.15 -95.45 -76.9 -95.5 -76.4 -95.6 -76.3 -97.7 -55.55 -96.5
Q -55.4 -94.95 -54.55 -93.8
L -49.4 -93.25 -46.75 -93.35
Q -46 -93.6 -45.75 -94.85
L -47.5 -96 -44.95 -96.45 -30.5 -93.85
Q -27.25 -93.85 -23.75 -95.35
L -23.7 -95.4
Q -24.45 -96.65 -35.1 -101.4
L -37.05 -100.15
Q -38.85 -98.9 -39.8 -98.9
L -47.8 -99.4
M 5.6 -55.05
L 20 -61 20.2 -61.4 20.05 -62.05 -0.1 -57.35 -2.7 -54.85 -2.5 -53.8 -2.3 -53.35 -1.15 -53.3
Q 1 -53.3 5.6 -55.05
M 42.2 -75.9
Q 49.15 -77.95 50.65 -79.05 45.85 -82.1 35.7 -81.2 24.8 -80.2 24.8 -74.65 24.8 -74.1 25.35 -73.65 25.8 -73.3 26.05 -73.3 33.25 -73.3 42.2 -75.9
M 38.9 -126.4
L 39.3 -125.9
Q 40.3 -126.6 41.55 -129.4
L 42.9 -132.6 43.45 -131.65 44.6 -128.4
Q 44.9 -127.9 46.1 -127.9
L 47.7 -128.15 47.8 -134.65 50.85 -134.45
Q 51.55 -134.65 52.3 -135.15
L 50.55 -136.9 55.05 -138.75
Q 60.25 -141 69.05 -145.6 69.55 -146.5 69.2 -147.5 68.75 -148.7 67.25 -148.7 63.35 -148.7 57.7 -145.4 53.85 -143.2 40.3 -133.7
L 37.45 -129.7 26.05 -122.1
Q 16.3 -115.55 16.3 -113.9 16.3 -113.25 16.45 -113.15
L 16.95 -112.95
Q 17.1 -112.4 13.6 -111.4
L 11.3 -112.85
Q 10.5 -112.85 8.95 -111.25 7.3 -109.6 7.3 -108.4
L 8.4 -106.9 15.7 -108.9
Q 19.8 -110.4 19.8 -112.55
L 19.75 -113.05 19.55 -112.95 18.35 -112.9 37.85 -126.9
Q 38.45 -126.9 38.9 -126.4 Z"/>

<path fill="#B0AA88" stroke="none" d="
M -68.25 -90.5
L -66.85 -90.65 -69.45 -91.25 -83.2 -90.5 -68.25 -90.5
M -54.55 -93.8
Q -55.4 -94.95 -55.55 -96.5
L -76.3 -97.7 -76.4 -95.6 -76.9 -95.5 -78.15 -95.45 -80.9 -96.5
Q -80.8 -95.4 -81.45 -94.1
L -72.45 -95.9
Q -69.5 -95.9 -67.7 -94.75 -65.6 -93.4 -65.8 -90.8
L -63.8 -91.1 -64.1 -92.4
Q -63.25 -93.75 -61.1 -93.75
L -54.55 -93.8
M -18.75 -88.6
L -10.1 -88.95
Q -7.45 -89.55 -7.45 -92.15 -7.45 -94.1 -10 -94.5
L -23.75 -95.35
Q -27.25 -93.85 -30.5 -93.85
L -44.95 -96.45 -47.5 -96 -45.75 -94.85
Q -46 -93.6 -46.75 -93.35
L -49.4 -93.25 -38.5 -92.45
Q -35.75 -92.2 -35.75 -91.15 -35.75 -90 -36.7 -89.35
L -18.75 -88.6
M -92.85 -90.5
L -91.3 -91.1 -102 -90.35
Q -104.15 -90.35 -104.65 -90.85
L -104.75 -91.6 -104.7 -92.4 -107.5 -92.45 -107.6 -91.05
Q -107.6 -90.15 -106.6 -89.9
L -101.25 -89.6 -92.85 -90.5
M -82.05 -98.05
L -83.8 -98.05 -83.8 -98 -82.05 -98.05
M -89.3 -94.75
Q -84.2 -96.15 -83.35 -96.85
L -96.45 -96.75
Q -95.6 -96.3 -94.85 -95.65 -95.9 -94.55 -97.1 -94.05 -98.3 -93.55 -101.2 -92.95 -95.8 -92.95 -89.3 -94.75
M 20.8 -58.65
Q 20.8 -59.6 20 -61
L 5.6 -55.05
Q 1 -53.3 -1.15 -53.3
L -2.3 -53.35 -2.5 -53.8 -2.7 -54.85 -0.1 -57.35
Q -1.95 -56.45 -8.2 -53.65 -9.45 -53.1 -9.45 -52.25 -9.45 -50.85 -8.5 -50.2 -7.45 -49.5 -4.95 -49.5 7.65 -49.5 15.2 -53.35 20.8 -56.2 20.8 -58.65
M 16.95 -112.95
L 13.6 -111.4
Q 17.1 -112.4 16.95 -112.95
M 37.45 -129.7
L 40.3 -133.7
Q 39.1 -133.7 38.3 -132.5 37.45 -131.35 37.45 -129.7
M 39.3 -125.9
L 38.9 -126.4
Q 38.45 -126.9 37.85 -126.9
L 18.35 -112.9 19.55 -112.95 19.75 -113.05 19.8 -112.55
Q 19.8 -110.4 15.7 -108.9
L 8.4 -106.9 6.55 -101.75
Q 6.55 -100.05 7.4 -99.2 8.05 -98.6 9.05 -98.6 10.65 -98.6 12.95 -100.3
L 17.35 -103.8
Q 17.35 -107.35 20.4 -109.85 23.4 -112.4 27.65 -112.4
L 32.6 -115.45
Q 32.6 -120.25 37.75 -123.6 42.9 -127 50.15 -127
L 50.9 -127.55 49.75 -127.95 48.3 -129.3
Q 49.3 -130.15 52.5 -134.55 56.1 -138.5 59.95 -138.5
L 62.2 -138.4 62.3 -136.3
Q 65.1 -136.3 67.1 -139 69.05 -141.75 69.05 -145.6 60.25 -141 55.05 -138.75
L 50.55 -136.9 52.3 -135.15
Q 51.55 -134.65 50.85 -134.45
L 47.8 -134.65 47.7 -128.15 46.1 -127.9
Q 44.9 -127.9 44.6 -128.4
L 43.45 -131.65 42.9 -132.6 41.55 -129.4
Q 40.3 -126.6 39.3 -125.9 Z"/>

<path fill="#5A5540" stroke="none" d="
M -83.35 -96.85
Q -84.2 -96.15 -89.3 -94.75 -95.8 -92.95 -101.2 -92.95
L -104.7 -92.4 -104.75 -91.6 -104.65 -90.85
Q -104.15 -90.35 -102 -90.35
L -91.3 -91.1 -92.85 -90.5 -93.8 -89.25
Q -93.7 -87.95 -91.9 -87.85
L -83.2 -90.5 -69.45 -91.25 -66.85 -90.65 -68.25 -90.5 -71.05 -89.7
Q -71.8 -89.5 -71.8 -88.9
L -70.55 -87.35 -55.95 -88.75
Q -54.1 -88.75 -52 -87.1 -49.85 -85.45 -48.85 -85.45 -46 -85.45 -42.2 -87.05
L -36.7 -89.35
Q -35.75 -90 -35.75 -91.15 -35.75 -92.2 -38.5 -92.45
L -49.4 -93.25 -54.55 -93.8 -61.1 -93.75
Q -63.25 -93.75 -64.1 -92.4
L -63.8 -91.1 -65.8 -90.8
Q -65.6 -93.4 -67.7 -94.75 -69.5 -95.9 -72.45 -95.9
L -81.45 -94.1
Q -80.8 -95.4 -80.9 -96.5
L -83.35 -96.85
M 62.3 -136.3
L 62.2 -138.4 59.95 -138.5
Q 56.1 -138.5 52.5 -134.55 49.3 -130.15 48.3 -129.3
L 49.75 -127.95 50.9 -127.55
Q 52.7 -127.65 57.35 -131.45 61.65 -135 62.3 -136.3
M 37.75 -123.6
Q 32.6 -120.25 32.6 -115.45 37.05 -112.55 44.1 -117.95 49.5 -122.05 52.3 -126.8
L 51.6 -127.15 50.15 -127
Q 42.9 -127 37.75 -123.6
M 17.55 -101.4
L 18.3 -101.35
Q 19.65 -101.35 20.5 -102.65 21.45 -104.15 22.1 -107.75
L 22.8 -106.15
Q 23 -105.85 23.6 -105.85 24.4 -105.85 26 -107.45 27.95 -109.35 27.8 -111.25
L 27.65 -112.4
Q 23.4 -112.4 20.4 -109.85 17.35 -107.35 17.35 -103.8
L 17.45 -101.9 17.55 -101.5 17.55 -101.4 Z"/>
</g>
</defs>

<g transform="matrix( 1, 0, 0, 1, 0,0) ">
<use xlink:href="#Layer0_0_FILL"/>
</g>
</svg>
