
<svg xmlns="http://www.w3.org/2000/svg" version="1.1" xmlns:xlink="http://www.w3.org/1999/xlink" preserveAspectRatio="none" x="0px" y="0px" width="550px" height="400px" viewBox="0 0 550 400">
<defs>
<g id="Layer0_0_FILL">
<path fill="#000000" stroke="none" d="
M -70 -101.35
L -76.7 -100.9
Q -84.1 -100.55 -91.15 -100.9 -105.5 -101.7 -110.35 -98.7 -113.55 -96.7 -113.55 -91.35 -113.55 -89.5 -112 -89.1
L -102.05 -87.6 -21.95 -87.6
Q -20.35 -87.7 -19.85 -88.2 -19.45 -88.6 -19.45 -89.8 -19.45 -96.7 -32.75 -99.25 -43.7 -101.35 -70 -101.35
M 44.7 -68.65
L 44.4 -68.95
Q 36.8 -69.95 14 -64.35 -11.35 -58.1 -34.45 -48.25
L -34.2 -46.55 -27.25 -47.3
Q -26.85 -47.3 -26.35 -46.4
L -25.9 -45.55 -20.8 -47.05
Q -15.05 -48.6 -11.65 -48.6 -6.45 -48.6 -3.7 -47.55
L -1.8 -46.5
Q 5.65 -46.5 12.3 -48.35 20.65 -50.7 25.55 -55.5 26.8 -56.7 36.25 -60.95 43.85 -64.4 44.7 -68.65
M 19.65 -120.65
Q 8.55 -109.75 8.55 -105.75 8.55 -105.2 11.15 -102.1 14.15 -98.6 16.05 -98.6
L 53.25 -124.65
Q 66.3 -133.1 73.65 -139.8 79.65 -145.25 79.65 -147.25 79.65 -156.85 68.55 -153.9 59.15 -151.4 44.1 -140.85 30.6 -131.4 19.65 -120.65 Z"/>
</g>
</defs>

<g transform="matrix( 1, 0, 0, 1, 0,0) ">
<use xlink:href="#Layer0_0_FILL"/>
</g>
</svg>
