
<svg xmlns="http://www.w3.org/2000/svg" version="1.1" xmlns:xlink="http://www.w3.org/1999/xlink" preserveAspectRatio="none" x="0px" y="0px" width="550px" height="400px" viewBox="0 0 550 400">
<defs>
<g id="Layer0_0_FILL">
<path fill="#E7E3BC" stroke="none" d="
M -10.55 -2.85
L -10.85 -2.7
Q -10.85 -2.5 -11.75 -2.3
L -13.45 -2.1 -18 -3.15
Q -18.6 -3.15 -22.4 1
L -27.95 7.2 -15.6 6.85 -4.35 3.65 -0.8 1
Q -9 0.65 -11.45 -0.35
L -10.55 -2.85
M 65.2 -36.75
L 66.55 -44.6 55.65 -48.95
Q 53.4 -48.95 52.75 -47.45
L 52.5 -45.85
Q 52.5 -42.8 55.35 -41 57.1 -39.9 65.2 -36.75
M 38 -13.55
Q 38.55 -12.7 39.6 -12.7
L 46.1 -13.95 56.5 -20.85 44.65 -18.3
Q 37.65 -16.7 37.65 -14.75 37.65 -14.15 38 -13.55
M 57.15 -56.95
Q 55.55 -56.05 54.5 -53.9 55.9 -52.6 60.05 -52.55
L 67 -52.95 68.45 -54.65
Q 69.5 -56.2 69.5 -58.55
L 69.35 -59.6 68.9 -60.95
Q 60.05 -58.65 57.15 -56.95
M 47.15 -37.5
L 46.15 -37.3 45.85 -37.15 45.6 -35.6
Q 46.05 -33.15 49.4 -31.05 52.85 -28.95 58 -28.05 56.75 -27.15 53.4 -26.2 50.9 -25.5 49.65 -23.6
L 49.8 -23.1 49.85 -23 60.9 -27.2 58.3 -30.2
Q 56.15 -32.8 52.35 -35.2 48.7 -37.5 47.15 -37.5
M 58.25 -88.1
L 59.55 -95.9 48.45 -96.95
Q 42.55 -96.95 39.45 -96.05
L 36.45 -95.15
Q 38.4 -94.65 39.95 -93.45 42.55 -91.45 42.55 -88.55 42.55 -86.6 41.35 -85
L 41.65 -85
Q 43 -85 44.6 -86.85
L 47.85 -91.45 51.55 -89.3 58.25 -88.1
M -35.9 -58.05
Q -37.9 -59 -39.5 -59 -44.05 -59 -50.1 -55.25 -56.25 -51.45 -56.25 -48.45
L -56.1 -47.1 -55.95 -46.55
Q -40.75 -55.5 -35.9 -58.05 Z"/>

<path fill="#5A5540" stroke="none" d="
M -46.25 -7.25
L -43.95 -4.1 -40.25 -7.8 -41 -7.95
Q -41.8 -8.2 -41.8 -8.85 -41.8 -12.15 -40.25 -14.35
L -47.7 -10.65 -46.25 -7.25
M -41.65 -40.1
Q -44.85 -39.2 -47.35 -34.6
L -50.1 -22.15
Q -51.1 -17.75 -51.95 -16.3
L -50.95 -15.2 -43.55 -22.7 -44.35 -24.2
Q -45.2 -25.85 -45.2 -26.55 -45.2 -33.1 -36.9 -37.65 -29.9 -41.45 -20.15 -42.5 -20.7 -42.95 -23 -43.7
L -25.55 -44.35
Q -28.2 -44.35 -29.85 -43.15
L -32.1 -41.4 -41.65 -40.1
M -58.9 -85.3
L -60.7 -82.1
Q -49.8 -77.65 -49.25 -77.65 -48.45 -77.65 -46.3 -81.5
L -41.25 -90.7 -43.95 -89.65
Q -46.8 -88.5 -58.6 -84.3
L -58.9 -85.3
M -4.4 -159.15
Q -9.1 -159.15 -12.4 -156.65 -15.75 -154.15 -15.75 -150.65 -11.05 -150.65 -7.7 -153.15 -4.4 -155.65 -4.4 -159.15
M 6.3 -12.65
Q 7.4 -14.25 9.1 -14.25
L 11.45 -13.9
Q -2.2 -19 -4.5 -16.75 -5.1 -16.2 -5.4 -14.15 -5.7 -12.25 -6.65 -11.6
L -10.9 -11.45
Q -14.85 -11.55 -18.65 -8.9
L -7.45 -5.05
Q -4.55 -3.95 -3.65 -3.95 1.95 -3.95 4.55 -9.1
L 6.3 -12.65
M 46.95 -81.85
Q 42.15 -81.85 40.65 -81.1 39.75 -80.65 39.75 -79.4 39.75 -77.9 41.45 -74.95 43.3 -71.75 45.3 -70.25 -6.45 -56.8 -11.25 -55.1
L -25.15 -54 -28.1 -52.45 -62.6 -40.7
Q -47 -44.7 -26.2 -49.25
L -6.1 -53.8
Q -3.05 -55.45 4.7 -57
L 13.05 -58.45
Q 18.45 -59.3 22.35 -62.65 25.75 -65.6 30.8 -65.6 32.95 -65.6 34.35 -64.35 35.8 -62.65 37 -61.85 37.7 -64.1 42.95 -66.55 47.65 -68.75 50.15 -68.85
L 45.6 -63.3
Q 44.35 -62.25 36.95 -58.5 38.1 -56.85 40.5 -55.8 42.2 -55.1 42.8 -55.1 46.85 -55.1 49.05 -57.1 53.85 -61.55 61.5 -65.7
L 55.45 -67.9 70.15 -63.95 70.8 -64.15 60.15 -81.1 46.95 -81.85
M 11.55 -135.2
L 13.4 -136 12.7 -136.15 3.7 -136.7 -1.35 -136
Q -4.65 -135.2 -5.25 -134.4
L -4.45 -133.85 1.55 -132.85 6.4 -133.1
Q 7.65 -133.45 11.55 -135.2
M 15.8 -99.9
Q 13.15 -99.9 12.7 -99.1 11.1 -96.35 6.55 -92.6
L 6.5 -87.8
Q 12.35 -91.75 18.45 -95.15 19.5 -95.75 19.6 -96.1
L 19.65 -97.45
Q 19.65 -98.35 18.85 -99 17.8 -99.9 15.8 -99.9
M 9.85 -111.2
Q 13.75 -111.5 34.1 -119.8
L -27.35 -107.35 -23.5 -106.25 -19.95 -105.9 -16.5 -106.25 9.85 -111.2 Z"/>

<path fill="#7F7A61" stroke="none" d="
M -57.7 -32.95
L -58.4 -35 -66.45 -34.95 -60.9 -25.45 -51.95 -16.3
Q -51.1 -17.75 -50.1 -22.15
L -47.35 -34.6
Q -50.15 -32.7 -53.3 -31.9
L -55.95 -31.45
Q -56.95 -31.45 -57.7 -32.95
M 27.2 -83.6
L 27 -83.75 26.3 -82.4
Q 27.55 -81.55 29.25 -80.85
L 31.4 -80.25
Q 32.4 -80.25 33.1 -81.45
L 33.2 -81.6
Q 29.65 -81.7 27.2 -83.6
M 26.5 -92.85
L 27.7 -93.8 25.3 -94.2 26.5 -92.85
M 29.9 -38.9
L 33.95 -37.7
Q 35.45 -39.9 36.75 -43.2 37.6 -45.4 40.75 -48.65 37.55 -48.65 34.8 -47.35 29.65 -44.95 29.9 -38.9
M 19.1 -91.15
Q 16.95 -89.25 12.5 -88.25
L 6.5 -87.8 6.55 -92.6 5.75 -92.4
Q 4.45 -97.75 3.5 -99.15 2.85 -100.1 -0.35 -102.3
L -0.2 -101.75 2.9 -93.4
Q 4.55 -89.05 4.55 -87.95 4.55 -86.25 4 -85.2
L 3.4 -84.4
Q 3.4 -83.65 4.75 -83.1 6.45 -82.35 7.05 -81.5
L 5.8 -78.1 9.95 -78.05 16.6 -78.7
Q 21.95 -79.9 24.2 -83
L 10.2 -83.4
Q 12.85 -84.25 15.85 -86.1 19.65 -88.45 19.65 -90.15 19.65 -91.15 19.1 -91.15 Z"/>

<path fill="#C1BC9A" stroke="none" d="
M -58.2 -37.2
Q -58.6 -37.2 -60.6 -38.25 -64.15 -39.75 -71.7 -41.7
L -66.45 -34.95 -58.4 -35 -57.7 -32.95
Q -56.95 -31.45 -55.95 -31.45
L -53.3 -31.9
Q -50.15 -32.7 -47.35 -34.6 -44.85 -39.2 -41.65 -40.1
L -32.1 -41.4 -32.3 -42 -38.6 -42.85
Q -39.25 -42.85 -46.1 -40 -52.95 -37.2 -58.2 -37.2 Z"/>

<path fill="#B6B18E" stroke="none" d="
M -26.6 -68.25
Q -26.85 -69.25 -27.6 -70.15 -28.35 -71.05 -29.5 -71.75 -32.6 -73.7 -36.95 -73.7 -41.3 -73.7 -44.35 -71.75 -47.45 -69.85 -47.45 -67.1 -47.45 -64.35 -44.35 -62.4 -41.3 -60.5 -36.95 -60.5
L -32.85 -61 -36.5 -54.05
Q -37.05 -53.1 -38 -52.85
L -41.75 -52.25
Q -41.9 -51.05 -41.15 -50.55 -40.4 -50.1 -38.55 -50.1 -34.8 -50.1 -32.55 -52.65 -29.65 -56 -28.25 -56.6 -28.05 -56.3 -27.85 -56.45
L -27.7 -56.6 -28.1 -52.45 -25.15 -54 -13.15 -62.2 -26.45 -66.8 -26.45 -67.1 -26.6 -68.25
M -27.2 -67.25
Q -27.2 -64.75 -30.15 -63.05 -33.05 -61.25 -37.2 -61.25 -41.35 -61.25 -44.25 -63.05 -47.2 -64.75 -47.2 -67.25 -47.2 -67.45 -47.15 -67.65 -47.1259765625 -67.6873046875 -47.1 -67.75
L -47.05 -68.2 -47.05 -68.25
Q -47.00078125 -68.4466796875 -46.95 -68.65
L -46.6 -69.4 -46.55 -69.45
Q -45.85 -70.6 -44.25 -71.55 -41.35 -73.25 -37.2 -73.25 -33.05 -73.25 -30.15 -71.55 -27.2 -69.75 -27.2 -67.25 Z"/>

<path fill="#BEB894" stroke="none" d="
M -27.6 -70.15
Q -26.85 -69.25 -26.6 -68.25 -22.35 -73.8 -21.75 -75 -21.05 -76.5 -19.65 -81.85 -22.65 -81.2 -24.3 -77.85
L -27.6 -70.15 Z"/>

<path fill="#B1AC89" stroke="none" d="
M 49.05 -57.1
Q 46.85 -55.1 42.8 -55.1 42.2 -55.1 40.5 -55.8 38.1 -56.85 36.95 -58.5 44.35 -62.25 45.6 -63.3
L 50.15 -68.85
Q 47.65 -68.75 42.95 -66.55 37.7 -64.1 37 -61.85 35.8 -62.65 34.35 -64.35 32.95 -65.6 30.8 -65.6 25.75 -65.6 22.35 -62.65 18.45 -59.3 13.05 -58.45
L 4.7 -57
Q -3.05 -55.45 -6.1 -53.8
L -5.8 -52.55
Q -11.95 -51.45 -17.7 -49.8 -28.9 -46.6 -32.3 -42
L -32.1 -41.4 -29.85 -43.15
Q -28.2 -44.35 -25.55 -44.35
L -23 -43.7
Q -20.7 -42.95 -20.15 -42.5 -29.9 -41.45 -36.9 -37.65 -45.2 -33.1 -45.2 -26.55 -45.2 -25.85 -44.35 -24.2
L -43.55 -22.7 -50.95 -15.2 -47.7 -10.65 -40.25 -14.35
Q -41.8 -12.15 -41.8 -8.85 -41.8 -8.2 -41 -7.95
L -40.25 -7.8 -43.95 -4.1
Q -43.95 0.6 -39.25 3.9 -34.6 7.2 -27.95 7.2
L -22.4 1
Q -18.6 -3.15 -18 -3.15
L -13.45 -2.1 -11.75 -2.3
Q -10.85 -2.5 -10.85 -2.7
L -10.55 -2.85 -11.45 -0.35
Q -9 0.65 -0.8 1
L -4.35 3.65
Q 12.75 -7.25 22.5 -8.65
L 31.95 -9.65
Q 38.6 -10.55 46.35 -12.95
L 46.1 -13.95 39.6 -12.7
Q 38.55 -12.7 38 -13.55 37.65 -14.15 37.65 -14.75 37.65 -16.7 44.65 -18.3
L 56.5 -20.85
Q 59.65 -25.3 61.1 -27
L 61.5 -27.45 61.9 -28.25 65.2 -36.75
Q 57.1 -39.9 55.35 -41 52.5 -42.8 52.5 -45.85
L 52.75 -47.45
Q 53.4 -48.95 55.65 -48.95
L 66.55 -44.6 67 -52.95 60.05 -52.55
Q 55.9 -52.6 54.5 -53.9 55.55 -56.05 57.15 -56.95 60.05 -58.65 68.9 -60.95
L 70.15 -63.95 55.45 -67.9 61.5 -65.7
Q 53.85 -61.55 49.05 -57.1
M 24.3 -32.35
L 22 -32.7 22.15 -32.15 20.05 -31.8 19.05 -31.6
Q 17.95 -31.6 17.2 -32.05 16.45 -32.55 16.45 -33.25 18.85 -35.9 21.4 -36.6
L 30.25 -37.65 29.9 -38.9
Q 29.65 -44.95 34.8 -47.35 37.55 -48.65 40.75 -48.65 37.6 -45.4 36.75 -43.2 35.45 -39.9 33.95 -37.7
L 16.45 -22.75 24.3 -32.35
M 9.1 -14.25
Q 7.4 -14.25 6.3 -12.65
L 4.55 -9.1
Q 1.95 -3.95 -3.65 -3.95 -4.55 -3.95 -7.45 -5.05
L -18.65 -8.9
Q -14.85 -11.55 -10.9 -11.45
L -6.65 -11.6
Q -5.7 -12.25 -5.4 -14.15 -5.1 -16.2 -4.5 -16.75 -2.2 -19 11.45 -13.9
L 9.1 -14.25
M 46.15 -37.3
L 47.15 -37.5
Q 48.7 -37.5 52.35 -35.2 56.15 -32.8 58.3 -30.2
L 60.9 -27.2 49.85 -23 49.8 -23.1 49.65 -23.6
Q 50.9 -25.5 53.4 -26.2 56.75 -27.15 58 -28.05 52.85 -28.95 49.4 -31.05 46.05 -33.15 45.6 -35.6
L 45.85 -37.15 46.15 -37.3 Z"/>

<path fill="#7B7659" stroke="none" d="
M 22.15 -32.15
L 22 -32.7 20.05 -31.8 22.15 -32.15 Z"/>

<path fill="#676149" stroke="none" d="
M 22 -32.7
L 24.3 -32.35 16.45 -22.75 33.95 -37.7 29.9 -38.9 30.25 -37.65 21.4 -36.6
Q 18.85 -35.9 16.45 -33.25 16.45 -32.55 17.2 -32.05 17.95 -31.6 19.05 -31.6
L 20.05 -31.8 22 -32.7 Z"/>

<path fill="#B0AA88" stroke="none" d="
M 36.85 -105.35
Q 37.55 -105.3 35.15 -106.5
L 45.6 -115.3 55.25 -107.05
Q 55.7 -111.65 57.35 -113.5 58.8 -115.2 58.8 -116.05 58.8 -116.95 56.55 -120.75
L 52.65 -126.75 49.15 -130.1
Q 45.4 -134.1 42.75 -138.4
L -3.8 -159.15 -4.4 -159.15
Q -4.4 -155.65 -7.7 -153.15 -11.05 -150.65 -15.75 -150.65 -50.1 -100.05 -55.3 -91.55 -54.7 -91.55 -58.9 -85.3
L -58.6 -84.3
Q -46.8 -88.5 -43.95 -89.65
L -41.25 -90.7 -46.3 -81.5
Q -48.45 -77.65 -49.25 -77.65 -49.8 -77.65 -60.7 -82.1 -68.35 -74.25 -72.15 -67.4 -75.5 -61.4 -75.5 -56.95 -75.5 -49.45 -74.25 -45.75 -73.5 -43.5 -71.7 -41.7 -64.15 -39.75 -60.6 -38.25 -58.6 -37.2 -58.2 -37.2 -52.95 -37.2 -46.1 -40 -39.25 -42.85 -38.6 -42.85
L -32.3 -42
Q -28.9 -46.6 -17.7 -49.8 -11.95 -51.45 -5.8 -52.55
L -6.1 -53.8 -26.2 -49.25
Q -47 -44.7 -62.6 -40.7
L -28.1 -52.45 -27.7 -56.6 -27.85 -56.45
Q -28.05 -56.3 -28.25 -56.6 -29.65 -56 -32.55 -52.65 -34.8 -50.1 -38.55 -50.1 -40.4 -50.1 -41.15 -50.55 -41.9 -51.05 -41.75 -52.25
L -38 -52.85
Q -37.05 -53.1 -36.5 -54.05
L -32.85 -61 -36.95 -60.5
Q -41.3 -60.5 -44.35 -62.4 -47.45 -64.35 -47.45 -67.1 -47.45 -69.85 -44.35 -71.75 -41.3 -73.7 -36.95 -73.7 -32.6 -73.7 -29.5 -71.75 -28.35 -71.05 -27.6 -70.15
L -24.3 -77.85
Q -22.65 -81.2 -19.65 -81.85 -21.05 -76.5 -21.75 -75 -22.35 -73.8 -26.6 -68.25
L -26.45 -67.1 -26.45 -66.8 -13.15 -62.2 -25.15 -54 -11.25 -55.1
Q -6.45 -56.8 45.3 -70.25 43.3 -71.75 41.45 -74.95 39.75 -77.9 39.75 -79.4 39.75 -80.65 40.65 -81.1 42.15 -81.85 46.95 -81.85
L 60.15 -81.1 58.25 -88.1 51.55 -89.3 47.85 -91.45 44.6 -86.85
Q 43 -85 41.65 -85
L 41.35 -85 39.95 -83.6
Q 37.3 -81.6 33.55 -81.6
L 33.2 -81.6 33.1 -81.45
Q 32.4 -80.25 31.4 -80.25
L 29.25 -80.85
Q 27.55 -81.55 26.3 -82.4
L 27 -83.75
Q 24.55 -85.75 24.55 -88.55 24.55 -91.05 26.5 -92.85
L 25.3 -94.2 27.7 -93.8
Q 30.15 -95.5 33.55 -95.5
L 36.45 -95.15 39.45 -96.05
Q 42.55 -96.95 48.45 -96.95
L 59.55 -95.9 60.95 -98.2
Q 60.95 -98.95 60.15 -99.85
L 56.9 -103.4 36.85 -105.35
M 34.1 -119.8
Q 13.75 -111.5 9.85 -111.2
L -16.5 -106.25 -19.95 -105.9 -23.5 -106.25 -27.35 -107.35 34.1 -119.8
M 12.7 -99.1
Q 13.15 -99.9 15.8 -99.9 17.8 -99.9 18.85 -99 19.65 -98.35 19.65 -97.45
L 19.6 -96.1
Q 19.5 -95.75 18.45 -95.15 12.35 -91.75 6.5 -87.8
L 12.5 -88.25
Q 16.95 -89.25 19.1 -91.15 19.65 -91.15 19.65 -90.15 19.65 -88.45 15.85 -86.1 12.85 -84.25 10.2 -83.4
L 24.2 -83
Q 21.95 -79.9 16.6 -78.7
L 9.95 -78.05 5.8 -78.1 7.05 -81.5
Q 6.45 -82.35 4.75 -83.1 3.4 -83.65 3.4 -84.4
L 4 -85.2
Q 4.55 -86.25 4.55 -87.95 4.55 -89.05 2.9 -93.4
L -0.2 -101.75 -0.35 -102.3
Q 2.85 -100.1 3.5 -99.15 4.45 -97.75 5.75 -92.4
L 6.55 -92.6
Q 11.1 -96.35 12.7 -99.1
M 13.4 -136
L 11.55 -135.2
Q 7.65 -133.45 6.4 -133.1
L 1.55 -132.85 -4.45 -133.85 -5.25 -134.4
Q -4.65 -135.2 -1.35 -136
L 3.7 -136.7 12.7 -136.15 13.4 -136
M -39.5 -59
Q -37.9 -59 -35.9 -58.05 -40.75 -55.5 -55.95 -46.55
L -56.1 -47.1 -56.25 -48.45
Q -56.25 -51.45 -50.1 -55.25 -44.05 -59 -39.5 -59 Z"/>

<path fill="#746E53" stroke="none" d="
M 35.15 -106.5
Q 37.55 -105.3 36.85 -105.35
L 56.9 -103.4 55.25 -107.05 45.6 -115.3 35.15 -106.5 Z"/>
</g>
</defs>

<g transform="matrix( 1, 0, 0, 1, 0,0) ">
<use xlink:href="#Layer0_0_FILL"/>
</g>
</svg>
