
<svg xmlns="http://www.w3.org/2000/svg" version="1.1" xmlns:xlink="http://www.w3.org/1999/xlink" preserveAspectRatio="none" x="0px" y="0px" width="550px" height="400px" viewBox="0 0 550 400">
<defs>
<g id="Graphics_Symbol_819_0_Layer2_0_FILL">
<path fill="#000000" stroke="none" d="
M 93 35.25
L 86.65 36.05 79.5 36.95
Q 36.25 49.75 20.7 63.2 14.05 68.95 11.45 75.6 9.4 80.85 9.4 88.15 9.4 99.15 14.7 106.95 20.2 115.1 32.8 121.95 34.25 122.7 47.8 127.55 60 131.9 62.4 133.95 63.25 134.65 69.25 142.75 75.4 150.45 78 150.45 84.7 150.45 86.8 146 87.5 144.6 87.6 142.9
L 87.6 141.35
Q 87.6 130.15 80.25 125.6 75.4 122.6 64.1 121.55 51.6 120.35 47.95 118.8 40.6 115.8 40.6 107.25 40.6 97.15 52.4 89.65 60.05 84.75 78.3 78.45 98.1 71.55 104.2 68.3 116 62 116 53.95 116 48.55 111.3 42.95 104.8 35.25 93 35.25
M 92.3 38.15
Q 102.55 38.15 108.45 44.4 113 49.25 113 54.45 113 60.9 101.25 66.75 96.55 69.1 75.35 76.95 57.55 83.5 49.45 88.95 37.7 96.85 37.7 106.75 37.7 111.85 41.3 116.85 46.3 123.75 55.7 123.75 72.05 123.75 79.05 128.35 85.3 132.45 85.3 141.15 85.3 144.9 83.45 146.7 81.55 148.45 77.6 148.45 75.3 148.45 74.4 146.95
L 75.15 146.15
Q 75.9 145.5 75.9 144.35 75.9 143.5 69.85 137.3
L 62.4 130.05
Q 59.65 127.7 48 123.9
L 33.9 119.05
Q 21.85 112.95 16.8 104.75 12.4 97.65 12.4 87.25 12.4 78.65 20.75 69.4 28.35 61.05 41.35 53.65 53.65 46.65 67.4 42.45 81.4 38.15 92.3 38.15 Z"/>
</g>

<g id="Graphics_Symbol_819_0_Layer1_0_FILL">
<path fill="#000000" fill-opacity="0.25098039215686274" stroke="none" d="
M 109.5 41.8
Q 105.8 35.75 95.95 35.65 86.05 35.55 79.65 37.9 71.05 41 66.85 41.7 64.25 42.1 50.85 48.75 43.8 52.25 33.95 57.3
L 32.7 57.95 39.45 53.2 39.05 52.95 38.15 52.9
Q 31.9 52.9 21 66.9 10.35 80.6 10.35 87.45 10.35 103.65 21.5 114.1 32.65 124.5 45.4 125.95 58.15 127.45 65.9 137.4 73.65 147.3 74.6 148.15 77.45 150.75 80.3 150.75 82.85 150.75 85.4 148.3 88.2 145.65 88.2 142.5 88.2 130.8 80.85 126 76.1 122.9 64.5 122 52.85 121.1 48 120.05 45.2 119.45 43 116.25
L 42.8 116.25 42.85 116.05
Q 41.15 113.65 39.8 109.8 36.45 100.55 48.35 91.25 60.25 81.95 86.45 75.5 108.2 66.9 109.7 64.1 111.2 61.25 113.55 58.8 115.9 56.3 114.55 52.05 113.2 47.8 109.5 41.8
M 92.5 42.25
Q 98.65 40.75 100.85 42.2 106.1 44.6 108.4 49.3 109.95 52.4 109.95 55.5 109.95 57.55 103.05 61.3 96 65.1 91.3 65.25
L 84.8 65.5 79.05 66.55
Q 58.8 70.45 46.4 80.95 34.5 90.95 34.5 102.75 34.5 109.7 40.65 116.65 48.1 125.15 59.75 125.7 82.5 126.7 82.5 138.55 82.5 141.3 80.15 142.75 78.45 143.8 76.45 143.8 73.8 143.8 69 137.65 63.7 130.85 62.2 130.15 60.15 129.2 51.6 126.15 44.15 123.45 42.3 122.25 31.4 115.2 26.9 100.5 24.3 91.95 24.3 83.1 24.3 77.4 26.85 74.55 29.75 71.25 42.75 62.85 51.3 57.3 58.05 54.3 64.5 51.4 79.6 46.3 89.4 43 92.5 42.25
M 78.4 38.9
Q 78.6 38.7 79.6 38.65
L 80.6 38.55
Q 78.55 39.2 78.4 38.9
M 50.4 121.75
Q 52.6 122.6 56.5 122.65 63.15 122.75 70.55 124
L 62.75 123.7
Q 54.6 123.25 51.7 122.3
L 50.4 121.75 Z"/>
</g>

<g id="Graphics_Symbol_819_0_Layer0_0_FILL">
<path fill="#FFFFFF" fill-opacity="0.25098039215686274" stroke="none" d="
M 87.35 60
L 93.1 62.45
Q 94.45 62.45 96.7 60.05 99 57.65 100.3 54.85 103.7 47.2 95.55 47.2 90.6 47.2 82.35 54.75 80.9 56.1 79.75 56.7
L 73.9 59.4
Q 68.5 61.75 55.4 66.8 45.45 70.65 41.05 73 28.45 79.55 28.45 90 28.45 91.65 31.55 100.1 34.55 108.4 37.2 114.1 38.7 117.35 40.75 118.95 43.3 120.9 50.75 124.1 52.45 124.8 56.1 126.6 59.55 128.25 63.2 129.75 68 131.75 70.3 135.65 72.05 138.7 74.95 138.7 75.8 138.7 76.45 137.45 77 136.35 77 135.2 64.85 124.6 46.2 120.4 41.7 119.4 38.1 113 36 109.15 32.75 99.95 30.85 94.65 30.85 89.65 30.85 79.5 53.5 69.25 62.55 65.15 72.2 62.55 81.65 60 87.35 60 Z"/>
</g>

<g id="Parts_Heads_headColorMC_8_Layer1_0_FILL">
<path fill="#C20000" stroke="none" d="
M 110.3 44
Q 104.25 37.7 93.75 37.7 82.55 37.7 68.2 42.05 54.1 46.3 41.5 53.4 28.2 60.9 20.4 69.35 11.85 78.75 11.85 87.45 11.85 98 16.35 105.2 21.55 113.5 33.9 119.7
L 48.35 124.6
Q 60.25 128.45 63.1 130.85 65.25 132.6 70.6 138.25 75.9 143.85 74.4 144 72.9 144.1 73.25 145.75 73.6 147.4 74.7 148.15 75.75 148.85 79.4 149.2 83.05 149.5 84.8 147.7 86.55 145.9 86.55 142.1 86.55 133.25 79.95 128.2 73.35 123.15 60.3 122.45 47.25 121.75 42.5 117.1 37.75 112.4 37.75 107.2 37.75 97.15 49.8 89.15 58.1 83.65 76.35 77 98.1 69.05 102.9 66.65 114.95 60.75 114.95 54.2 114.95 48.95 110.3 44 Z"/>
</g>

<g id="Parts_Heads_headColorMC2_8_Layer3_0_FILL">
<path fill="#CCBBD7" stroke="none" d="
M 89.95 46.5
Q 89.55 45.25 88 45.25
L 87.25 45.35 86.95 45.55
Q 86.8 45.8 86.8 49.15 86.35 50 85.5 50.35 83.85 47.75 82.75 47.75 80.85 47.75 80.6 51.75
L 77.65 47.15
Q 76.7 45.8 74.95 44.75 74.25 45.3 74.25 46.65 74.25 47.7 75.25 52.3 75.1 52.75 69.25 53.85
L 69.2 57.2 69 57.75
Q 67.9 57.5 67.8 56.8 67.85 55.65 67.55 54.6
L 67.3 54.45 66.5 54.25
Q 64.15 54.25 62.7 56.35 61.5 58.1 59.35 57.5 58.75 62.55 59.1 66.25
L 57.8 63.25
Q 56.4 60.15 55 58.25 53.85 58.55 51.25 61.5 49.3 63.75 46.75 62.6
L 46.75 64.85
Q 47.95 65.6 48.2 66.6
L 48.2 70.15 48.1 70.25 46.4 66.7
Q 45.1 64.1 44.25 63.75
L 43.2 64.75
Q 42.35 65.95 42.3 68.2 42.25 69.75 42 69.75 41.45 65.75 39.5 65.75
L 38.75 65.85 38.45 66.05 38.1 70.75 36.2 67.65
Q 34.3 64.75 33.5 64.75 32.6 64.75 32.4 65.1 32.25 65.4 32.25 66.95 32.25 68 33.1 71.75
L 31.95 71.7
Q 30.85 71.7 30.25 73.3 29.75 74.6 29.75 76.15 29.75 76.75 30 77
L 30.65 77.45 31.25 78 26 76.75 24.6 77 24.45 76.95
Q 24.25 77 24.25 77.6
L 26 79.85 25.75 81.1
Q 25.5 81.75 25.6 82 23.75 81.75 22.8 82.85 22.25 83.55 22.25 84.15 22.25 86.5 24.4 86.45
L 25.25 86.5
Q 24.15 86.55 23.5 87.05 22.8 87.55 22.25 88.75 23.2 89.35 24.5 89.85
L 22.85 91.6 22.25 92.5 23.15 96.55
Q 24.5 100.55 26.85 100.85
L 26.2 103.25
Q 25.75 105.05 27.5 107.15 29.2 109.25 40.3 117.65 51.4 126.05 59.35 127.8 67.3 129.55 71.25 132.75 76.8 137.2 77.65 140.3 78.15 142.15 77.6 145.25 77.6 145.65 78.2 146.55 79 147.75 80 147.75 81 147.75 81.7 146.35 82.25 145.3 82.25 144.55
L 80 140.15 80.85 139.25 79.5 137.25 80.6 136.7
Q 81 136.4 81.25 135.4 80.75 134.3 73.75 129.8 72.5 129 69 127.5 65.3 125.9 64.15 125.75
L 57.75 125.55
Q 51.2 124.55 45.25 119.85
L 37.1 112.85 33.5 109.1
Q 33.5 108.6 33.9 108.55 34.3 108.5 34.3 108 34.3 107.1 33.2 106.85
L 31.15 106.65 31.25 105.8 31 104.8 30.5 104.25 32.75 102.25
Q 30.4 102.15 30.4 101.5
L 30.85 100.4 29.1 95
Q 30.65 95.2 31.35 94.45 31.75 93.95 31.75 93.25 31.75 92.55 30.65 92.35
L 26.6 92
Q 31.4 91.2 33.15 90.3 34.25 89.75 34.25 88.85 34.25 87.45 32.1 86.6
L 32.1 84.5
Q 36.1 84.25 36.45 83.8 36.25 83.15 36.6 82.5
L 39.95 82.9
Q 42.35 82.9 43.35 82.3 44.25 81.75 44.25 80.55 43.05 78.4 41 74.05
L 40.75 73.1
Q 41.15 73.2 45.5 79.75 48.6 79 48.75 75.5
L 50.7 76.75 51.6 76.55 51.75 75.35
Q 51.75 74.35 50.85 71.35
L 50.75 71.1
Q 56.5 77.25 58.8 77.25 59.95 77.25 60.35 76.85 60.75 76.5 60.75 75.5 59.35 73.45 59 72.1
L 59.15 71.25 59.6 71.5 60.65 71.7
Q 62.1 71.7 63.3 70.5 64.25 69.55 66.1 70.05
L 66.25 67.1
Q 66.95 67.55 71.55 69.25 76 67.1 77.6 65
L 80 66.25
Q 80.45 66.25 80.75 65.7 81 65.1 81.8 65.1
L 82.85 65.7
Q 83.75 66.25 84.2 66.25
L 85.1 66.05 85.25 65.2
Q 85.25 64 84.1 62.85 85.95 61.25 89.9 61.05 92.45 60.95 93.1 57
L 95 58.95
Q 96.1 59.75 96.75 59.75 98.3 59.75 98.3 58
L 97.75 54.6 98.95 54.35 99.75 53.85 101.05 55.7
Q 101.6 56.25 102.5 56.25 104.25 56.25 104.25 53.2 104.25 52.3 103.8 51.75 102.45 50.15 101 47.75 100.35 48.1 99.1 49.8
L 99 49.85 97.7 47.65
Q 97.45 47.25 95.75 47.25 94.25 47.25 94.25 48.65
L 95.25 54.85 93.75 51.8
Q 92.6 49.2 91.5 48.25 90.35 48.45 90.3 48.6
L 89.75 50.75
Q 90.35 47.75 89.95 46.5 Z"/>
</g>
</defs>

<g transform="matrix( 1, 0, 0, 1, -62.75,-76.85) ">
<g transform="matrix( 1, 0, 0, 1, 0,0) ">
<g transform="matrix( 1, 0, 0, 1, 0,0) ">
<use xlink:href="#Graphics_Symbol_819_0_Layer2_0_FILL"/>
</g>

<g transform="matrix( 1, 0, 0, 1, 0,0) ">
<use xlink:href="#Graphics_Symbol_819_0_Layer1_0_FILL"/>
</g>

<g transform="matrix( 1, 0, 0, 1, 0,0) ">
<use xlink:href="#Graphics_Symbol_819_0_Layer0_0_FILL"/>
</g>
</g>

<g id="hat1" transform="matrix( 0.983917236328125, -0.17529296875, 0.17529296875, 0.983917236328125, 45.2,78.25) ">
<g id="colorMC" transform="matrix( 0.9999847412109375, 0, 0, 0.9999847412109375, 0,0) "/>

<g id="colorMC2" transform="matrix( 1, 0, 0, 1, 0,0) "/>
</g>

<g id="hat2" transform="matrix( 0.9733734130859375, -0.2247314453125, 0.2247314453125, 0.9733734130859375, 38,60.6) ">
<g id="colorMC_FL" transform="matrix( 0.9999847412109375, 0, 0, 0.9999847412109375, 0,0) "/>

<g id="colorMC2_FL" transform="matrix( 1, 0, 0, 1, 0,0) "/>
</g>

<g id="hat3" transform="matrix( 0.96026611328125, -0.2753753662109375, 0.2753753662109375, 0.96026611328125, 26,48.4) ">
<g id="colorMC_FL_FL" transform="matrix( 0.9999847412109375, 0, 0, 0.9999847412109375, 0,0) "/>

<g id="colorMC2_FL_FL" transform="matrix( 1, 0, 0, 1, 0,0) "/>
</g>

<g id="hat4" transform="matrix( 0.944580078125, -0.3252410888671875, 0.3252410888671875, 0.944580078125, 18.85,34.5) ">
<g id="colorMC_FL_FL_FL" transform="matrix( 0.9999847412109375, 0, 0, 0.9999847412109375, 0,0) "/>

<g id="colorMC2_FL_FL_FL" transform="matrix( 1, 0, 0, 1, 0,0) "/>
</g>
</g>

<g transform="matrix( 1, 0, 0, 1, -75.4,-101.9) ">
<g transform="matrix( 1, 0, 0, 1, 0,0) ">
<use xlink:href="#Parts_Heads_headColorMC_8_Layer1_0_FILL"/>
</g>
</g>

<g transform="matrix( 1, 0, 0, 1, -62.75,-76.85) ">
<g transform="matrix( 1, 0, 0, 1, 0,0) ">
<use xlink:href="#Parts_Heads_headColorMC2_8_Layer3_0_FILL"/>
</g>
</g>
</svg>
