
<svg xmlns="http://www.w3.org/2000/svg" version="1.1" xmlns:xlink="http://www.w3.org/1999/xlink" preserveAspectRatio="none" x="0px" y="0px" width="550px" height="400px" viewBox="0 0 550 400">
<defs>
<g id="Parts_Heads_headColorMC_8_Layer1_0_FILL">
<path fill="#C20000" stroke="none" d="
M 110.3 44
Q 104.25 37.7 93.75 37.7 82.55 37.7 68.2 42.05 54.1 46.3 41.5 53.4 28.2 60.9 20.4 69.35 11.85 78.75 11.85 87.45 11.85 98 16.35 105.2 21.55 113.5 33.9 119.7
L 48.35 124.6
Q 60.25 128.45 63.1 130.85 65.25 132.6 70.6 138.25 75.9 143.85 74.4 144 72.9 144.1 73.25 145.75 73.6 147.4 74.7 148.15 75.75 148.85 79.4 149.2 83.05 149.5 84.8 147.7 86.55 145.9 86.55 142.1 86.55 133.25 79.95 128.2 73.35 123.15 60.3 122.45 47.25 121.75 42.5 117.1 37.75 112.4 37.75 107.2 37.75 97.15 49.8 89.15 58.1 83.65 76.35 77 98.1 69.05 102.9 66.65 114.95 60.75 114.95 54.2 114.95 48.95 110.3 44 Z"/>
</g>
</defs>

<g transform="matrix( 1, 0, 0, 1, -75.4,-101.9) ">
<g transform="matrix( 1, 0, 0, 1, 0,0) ">
<use xlink:href="#Parts_Heads_headColorMC_8_Layer1_0_FILL"/>
</g>
</g>
</svg>
