
<svg xmlns="http://www.w3.org/2000/svg" version="1.1" xmlns:xlink="http://www.w3.org/1999/xlink" preserveAspectRatio="none" x="0px" y="0px" width="550px" height="400px" viewBox="0 0 550 400">
<defs>
<g id="Graphics_Symbol_819_0_Layer2_0_FILL">
<path fill="#000000" stroke="none" d="
M 93 35.25
L 86.65 36.05 79.5 36.95
Q 36.25 49.75 20.7 63.2 14.05 68.95 11.45 75.6 9.4 80.85 9.4 88.15 9.4 99.15 14.7 106.95 20.2 115.1 32.8 121.95 34.25 122.7 47.8 127.55 60 131.9 62.4 133.95 63.25 134.65 69.25 142.75 75.4 150.45 78 150.45 84.7 150.45 86.8 146 87.5 144.6 87.6 142.9
L 87.6 141.35
Q 87.6 130.15 80.25 125.6 75.4 122.6 64.1 121.55 51.6 120.35 47.95 118.8 40.6 115.8 40.6 107.25 40.6 97.15 52.4 89.65 60.05 84.75 78.3 78.45 98.1 71.55 104.2 68.3 116 62 116 53.95 116 48.55 111.3 42.95 104.8 35.25 93 35.25
M 92.3 38.15
Q 102.55 38.15 108.45 44.4 113 49.25 113 54.45 113 60.9 101.25 66.75 96.55 69.1 75.35 76.95 57.55 83.5 49.45 88.95 37.7 96.85 37.7 106.75 37.7 111.85 41.3 116.85 46.3 123.75 55.7 123.75 72.05 123.75 79.05 128.35 85.3 132.45 85.3 141.15 85.3 144.9 83.45 146.7 81.55 148.45 77.6 148.45 75.3 148.45 74.4 146.95
L 75.15 146.15
Q 75.9 145.5 75.9 144.35 75.9 143.5 69.85 137.3
L 62.4 130.05
Q 59.65 127.7 48 123.9
L 33.9 119.05
Q 21.85 112.95 16.8 104.75 12.4 97.65 12.4 87.25 12.4 78.65 20.75 69.4 28.35 61.05 41.35 53.65 53.65 46.65 67.4 42.45 81.4 38.15 92.3 38.15 Z"/>
</g>

<g id="Graphics_Symbol_819_0_Layer1_0_FILL">
<path fill="#000000" fill-opacity="0.25098039215686274" stroke="none" d="
M 109.5 41.8
Q 105.8 35.75 95.95 35.65 86.05 35.55 79.65 37.9 71.05 41 66.85 41.7 64.25 42.1 50.85 48.75 43.8 52.25 33.95 57.3
L 32.7 57.95 39.45 53.2 39.05 52.95 38.15 52.9
Q 31.9 52.9 21 66.9 10.35 80.6 10.35 87.45 10.35 103.65 21.5 114.1 32.65 124.5 45.4 125.95 58.15 127.45 65.9 137.4 73.65 147.3 74.6 148.15 77.45 150.75 80.3 150.75 82.85 150.75 85.4 148.3 88.2 145.65 88.2 142.5 88.2 130.8 80.85 126 76.1 122.9 64.5 122 52.85 121.1 48 120.05 45.2 119.45 43 116.25
L 42.8 116.25 42.85 116.05
Q 41.15 113.65 39.8 109.8 36.45 100.55 48.35 91.25 60.25 81.95 86.45 75.5 108.2 66.9 109.7 64.1 111.2 61.25 113.55 58.8 115.9 56.3 114.55 52.05 113.2 47.8 109.5 41.8
M 92.5 42.25
Q 98.65 40.75 100.85 42.2 106.1 44.6 108.4 49.3 109.95 52.4 109.95 55.5 109.95 57.55 103.05 61.3 96 65.1 91.3 65.25
L 84.8 65.5 79.05 66.55
Q 58.8 70.45 46.4 80.95 34.5 90.95 34.5 102.75 34.5 109.7 40.65 116.65 48.1 125.15 59.75 125.7 82.5 126.7 82.5 138.55 82.5 141.3 80.15 142.75 78.45 143.8 76.45 143.8 73.8 143.8 69 137.65 63.7 130.85 62.2 130.15 60.15 129.2 51.6 126.15 44.15 123.45 42.3 122.25 31.4 115.2 26.9 100.5 24.3 91.95 24.3 83.1 24.3 77.4 26.85 74.55 29.75 71.25 42.75 62.85 51.3 57.3 58.05 54.3 64.5 51.4 79.6 46.3 89.4 43 92.5 42.25
M 78.4 38.9
Q 78.6 38.7 79.6 38.65
L 80.6 38.55
Q 78.55 39.2 78.4 38.9
M 50.4 121.75
Q 52.6 122.6 56.5 122.65 63.15 122.75 70.55 124
L 62.75 123.7
Q 54.6 123.25 51.7 122.3
L 50.4 121.75 Z"/>
</g>

<g id="Graphics_Symbol_819_0_Layer0_0_FILL">
<path fill="#FFFFFF" fill-opacity="0.25098039215686274" stroke="none" d="
M 87.35 60
L 93.1 62.45
Q 94.45 62.45 96.7 60.05 99 57.65 100.3 54.85 103.7 47.2 95.55 47.2 90.6 47.2 82.35 54.75 80.9 56.1 79.75 56.7
L 73.9 59.4
Q 68.5 61.75 55.4 66.8 45.45 70.65 41.05 73 28.45 79.55 28.45 90 28.45 91.65 31.55 100.1 34.55 108.4 37.2 114.1 38.7 117.35 40.75 118.95 43.3 120.9 50.75 124.1 52.45 124.8 56.1 126.6 59.55 128.25 63.2 129.75 68 131.75 70.3 135.65 72.05 138.7 74.95 138.7 75.8 138.7 76.45 137.45 77 136.35 77 135.2 64.85 124.6 46.2 120.4 41.7 119.4 38.1 113 36 109.15 32.75 99.95 30.85 94.65 30.85 89.65 30.85 79.5 53.5 69.25 62.55 65.15 72.2 62.55 81.65 60 87.35 60 Z"/>
</g>
</defs>

<g transform="matrix( 1, 0, 0, 1, -62.75,-76.85) ">
<g transform="matrix( 1, 0, 0, 1, 0,0) ">
<g transform="matrix( 1, 0, 0, 1, 0,0) ">
<use xlink:href="#Graphics_Symbol_819_0_Layer2_0_FILL"/>
</g>

<g transform="matrix( 1, 0, 0, 1, 0,0) ">
<use xlink:href="#Graphics_Symbol_819_0_Layer1_0_FILL"/>
</g>

<g transform="matrix( 1, 0, 0, 1, 0,0) ">
<use xlink:href="#Graphics_Symbol_819_0_Layer0_0_FILL"/>
</g>
</g>

<g id="hat1" transform="matrix( 0.983917236328125, -0.17529296875, 0.17529296875, 0.983917236328125, 45.2,78.25) ">
<g id="colorMC" transform="matrix( 0.9999847412109375, 0, 0, 0.9999847412109375, 0,0) "/>

<g id="colorMC2" transform="matrix( 1, 0, 0, 1, 0,0) "/>
</g>

<g id="hat2" transform="matrix( 0.9733734130859375, -0.2247314453125, 0.2247314453125, 0.9733734130859375, 38,60.6) ">
<g id="colorMC_FL" transform="matrix( 0.9999847412109375, 0, 0, 0.9999847412109375, 0,0) "/>

<g id="colorMC2_FL" transform="matrix( 1, 0, 0, 1, 0,0) "/>
</g>

<g id="hat3" transform="matrix( 0.96026611328125, -0.2753753662109375, 0.2753753662109375, 0.96026611328125, 26,48.4) ">
<g id="colorMC_FL_FL" transform="matrix( 0.9999847412109375, 0, 0, 0.9999847412109375, 0,0) "/>

<g id="colorMC2_FL_FL" transform="matrix( 1, 0, 0, 1, 0,0) "/>
</g>

<g id="hat4" transform="matrix( 0.944580078125, -0.3252410888671875, 0.3252410888671875, 0.944580078125, 18.85,34.5) ">
<g id="colorMC_FL_FL_FL" transform="matrix( 0.9999847412109375, 0, 0, 0.9999847412109375, 0,0) "/>

<g id="colorMC2_FL_FL_FL" transform="matrix( 1, 0, 0, 1, 0,0) "/>
</g>
</g>
</svg>
