
<svg xmlns="http://www.w3.org/2000/svg" version="1.1" xmlns:xlink="http://www.w3.org/1999/xlink" preserveAspectRatio="none" x="0px" y="0px" width="550px" height="400px" viewBox="0 0 550 400">
<defs>
<g id="Layer0_0_FILL">
<path fill="#FFFFFF" stroke="none" d="
M 3.9 0.35
L 3.8 0.25
Q 3.2 -0.1 2.65 0.05 2.1 0.15 1.65 0.35
L 0.75 0.9 0.35 1.25 0.25 1.5 0.1 1.65
Q 0 1.75 0.05 1.9 0.05 2.1 0.2 2.05
L 0.4 2 0.7 2.1 1.2 2.05
Q 1.85 2.05 2.2 2.1
L 2.9 2.2
Q 3.05 2.2 3.3 2.25 3.55 2.25 3.7 2.15 4.1 1.8 4.2 1.3 4.25 0.75 3.9 0.35 Z"/>
</g>
</defs>

<g transform="matrix( 1, 0, 0, 1, 0,0) ">
<use xlink:href="#Layer0_0_FILL"/>
</g>
</svg>
