
<svg xmlns="http://www.w3.org/2000/svg" version="1.1" xmlns:xlink="http://www.w3.org/1999/xlink" preserveAspectRatio="none" x="0px" y="0px" width="550px" height="400px" viewBox="0 0 550 400">
<defs>
<g id="Layer0_0_FILL">
<path fill="#000000" fill-opacity="0.25098039215686274" stroke="none" d="
M 93.4 55.2
Q 87.15 52.75 82.8 51.6 77.5 50.15 73.65 50.15 71.2 50.15 60.9 52.6
L 50.15 55 50.1 54.55
Q 50.1 54.2 50.25 54.05
L 50 54.05
Q 48.15 54.05 38.45 62.95 28.75 71.85 27.9 74.25
L 23 86.05
Q 18.8 98.15 18.8 110.25 18.8 116 20.15 119.8 22.25 125.8 28.1 129.9 35 134.75 42.95 137.25 49.6 139.3 55.2 139.3
L 82.45 138.25
Q 97.3 136.05 107.45 127.85 114.25 122.3 116.75 118.65 118.8 115.65 119.55 110.95 122.05 95.25 122.05 91.35
L 121.05 79.5
Q 121.05 78.55 122.55 76.25 124.05 73.95 124.05 72.5 124.05 69.9 111.3 63.35 102 58.6 93.4 55.2
M 107.1 74.95
Q 113.5 82.45 113.5 92.85 113.5 96.7 109.2 107.05
L 104.65 117.35
Q 102.9 123.05 91.05 125.95 79.5 128.75 59.25 128.75 46.95 128.75 38.85 122.75 30.05 116.25 30.05 105 30.05 101.35 32.5 94.15 35.8 84.55 41 79.25
L 44 75.5
Q 46.45 72.65 49.75 70.7 59.75 64.8 80.75 64.8 98.5 64.8 107.1 74.95 Z"/>
</g>
</defs>

<g transform="matrix( 1, 0, 0, 1, 0,0) ">
<use xlink:href="#Layer0_0_FILL"/>
</g>
</svg>
