
<svg xmlns="http://www.w3.org/2000/svg" version="1.1" xmlns:xlink="http://www.w3.org/1999/xlink" preserveAspectRatio="none" x="0px" y="0px" width="550px" height="400px" viewBox="0 0 550 400">
<defs>
<g id="Layer0_0_FILL">
<path fill="#000000" stroke="none" d="
M 119.3 79.45
L 119.05 81.55
Q 119.5 80.35 120.35 79.25
L 124.85 72.05 143.95 72
Q 130.7 73.75 120.85 80.75
L 120.85 82.05 137.85 77.7 122.1 84.7 120.5 83.8 118.75 86.55 118.55 86.15
Q 118 92.65 118.3 99.4 118.8 110.2 112.95 119.45 107.1 128.7 96.6 132.9 86.4 137.05 75.6 137.95 65.9 138.6 56 137.75 45.1 136.5 35.05 132 25.1 127.45 21.9 117.05 20.35 112 20.65 106.75 21.3 96.5 24.25 86.65 26.9 77.65 33.05 70.3 39.8 62.35 49.35 58 59.1 53.5 69.85 53.05 79.25 52.8 88.3 55.05 98.1 57.45 106.25 63.45 115.55 70.35 123.45 71.2 118.5 62.8 108.65 58.45 99.25 54.25 89.65 51.25 79.1 47.9 68 48.75 57.75 49.25 48.55 53.55 39 58.05 31.9 65.8 25 73.4 20.85 82.75 16.25 92.95 17.65 104.1
L 18 107.4
Q 15.65 121.7 28.15 130.75 35.65 136.25 44.65 138.55 61.5 143.1 78.95 141.25 92.5 139.6 104.55 132.9 112.35 128.45 117.2 120.7 119.95 116.35 121.15 111.4 124.1 99.2 123 86.5
L 154 71.85
Q 142.95 67.75 129.55 70.1 126.6 70.55 124 71.55 120.05 74.6 119.3 79.45 Z"/>

<path fill="#FFFFFF" stroke="none" d="
M 95.1 79.4
Q 93.8 76.5 91.05 77.05 88.3 77.6 89.1 79.55
L 91 82.15 94.25 81.45
Q 95.05 81.15 95.15 80.3
L 95.1 79.4 Z"/>
</g>
</defs>

<g transform="matrix( 1, 0, 0, 1, 0,0) ">
<use xlink:href="#Layer0_0_FILL"/>
</g>
</svg>
