
<svg xmlns="http://www.w3.org/2000/svg" version="1.1" xmlns:xlink="http://www.w3.org/1999/xlink" preserveAspectRatio="none" x="0px" y="0px" width="550px" height="400px" viewBox="0 0 550 400">
<defs>
<g id="Graphics_Symbol_607_0_Layer0_0_FILL">
<path fill="#A49F67" stroke="none" d="
M 21.4 81.3
Q 16.9 85.55 14.4 86.65
L 15.6 89.25
Q 16.2 90.7 16.2 91.55
L 13.8 97.5 13.7 97.95 13.3 98.8
Q 9 111.85 0.95 118.85 -6.95 125.75 -17.4 125.75 -17.95 125.75 -18.25 125.25 -18.55 124.75 -18.75 124.75 -23.65 124.7 -25.8 124.9
L -27.6 125.05
Q -28.1 125.05 -29.8 123.8 -31.5 122.5 -32 122.5
L -57.25 136.3
Q -83 150.1 -86.1 150.1 -89.3 150.1 -96.3 152.4 -105.9 155.5 -112.9 156.95 -43.85 149.95 -18.1 145 9.1 139.8 25.4 130.15 39.95 121.45 51.75 100.3 62.9 80.3 62.9 66.05
L 62.65 61.45
Q 61.3 62.25 60.25 62.25 58.95 62.25 58.75 60.9 55.2 62.55 53.6 62.55 42.4 62.55 30.1 73.2
L 21.4 81.3
M 64.5 22.85
Q 63.8 19.75 62.1 15.95
L 62 15.95
Q 61.3 25.15 58.9 33.3 56.1 42.65 52.7 43.75 62.15 52.8 63.8 52.85 64.1 51.2 65.6 47.4 66.9 44.05 66.9 43.15
L 66.6 40.6 66.35 40.85 65.25 40.65
Q 66.4 30.95 64.5 22.85 Z"/>
</g>
</defs>

<g transform="matrix( 1, 0, 0, 1, -33.5,-72.6) ">
<g transform="matrix( 1, 0, 0, 1, 0,0) ">
<g transform="matrix( 1, 0, 0, 1, 0,0) ">
<use xlink:href="#Graphics_Symbol_607_0_Layer0_0_FILL"/>
</g>
</g>
</g>
</svg>
