
<svg xmlns="http://www.w3.org/2000/svg" version="1.1" xmlns:xlink="http://www.w3.org/1999/xlink" preserveAspectRatio="none" x="0px" y="0px" width="550px" height="400px" viewBox="0 0 550 400">
<defs>
<g id="Graphics_Symbol_607_0_Layer0_0_FILL">
<path fill="#A49F67" stroke="none" d="
M 21.4 81.3
Q 16.9 85.55 14.4 86.65
L 15.6 89.25
Q 16.2 90.7 16.2 91.55
L 13.8 97.5 13.7 97.95 13.3 98.8
Q 9 111.85 0.95 118.85 -6.95 125.75 -17.4 125.75 -17.95 125.75 -18.25 125.25 -18.55 124.75 -18.75 124.75 -23.65 124.7 -25.8 124.9
L -27.6 125.05
Q -28.1 125.05 -29.8 123.8 -31.5 122.5 -32 122.5
L -57.25 136.3
Q -83 150.1 -86.1 150.1 -89.3 150.1 -96.3 152.4 -105.9 155.5 -112.9 156.95 -43.85 149.95 -18.1 145 9.1 139.8 25.4 130.15 39.95 121.45 51.75 100.3 62.9 80.3 62.9 66.05
L 62.65 61.45
Q 61.3 62.25 60.25 62.25 58.95 62.25 58.75 60.9 55.2 62.55 53.6 62.55 42.4 62.55 30.1 73.2
L 21.4 81.3
M 64.5 22.85
Q 63.8 19.75 62.1 15.95
L 62 15.95
Q 61.3 25.15 58.9 33.3 56.1 42.65 52.7 43.75 62.15 52.8 63.8 52.85 64.1 51.2 65.6 47.4 66.9 44.05 66.9 43.15
L 66.6 40.6 66.35 40.85 65.25 40.65
Q 66.4 30.95 64.5 22.85 Z"/>
</g>

<g id="Graphics_Symbol_645_0_Layer3_0_FILL">
<path fill="#000000" stroke="none" d="
M 90.1 46.7
L 89.7 45.7 92.45 42.75
Q 94.6 40.2 94.6 38.9
L 94.4 37.8 93.85 36.9
Q 89.95 37.9 81.35 45.55 73.45 52.55 68.25 52.75 68.5 51.25 69.6 48.7
L 68.8 48.65 68.5 47.35 68.3 45.35
Q 68.3 43 69.05 41.15
L 69.75 39.75
Q 69.75 23.4 63.5 13.85 56.6 3.3 43.2 3.3 26.15 3.3 10.95 16.6 2.75 23.85 -7.2 36.5 -8.3 37.7 -13.4 44.6
L -18.75 51.55 -32.8 62.1
Q -39.15 66.8 -45.2 75.15 -51.3 83.5 -69.5 104.85 -87.75 126.15 -97.3 130.9 -103.4 133.95 -136.6 146.65 -168.75 159 -170.15 159.85 -168.6 160.7 -168.4 161.05
L -168.35 161.75 -149.95 161.1 -129.55 160 -127.1 160.4 -124.7 160.75 -96.05 157.1 -23.8 147.1
Q 6.95 142.75 20.65 136.75 36.65 129.75 48.2 113.45 55.2 103.55 60.5 88.1 64.4 74.75 64.55 74.75
L 69.15 75.7 74.05 76.65 84.7 74.65
Q 95.9 72.6 98.8 72.6 98.95 70.3 94.85 68.65 90.2 66.85 83.95 67.9
L 92.7 62.55
Q 91.75 61.65 91 61.1 89.6 60.05 87.6 60.05 83.1 60.05 74.6 63.35
L 66.3 66.75 67.25 60.9 74.75 61.8
Q 81.55 61.8 90.05 57.55 97.95 53.55 102.45 48.6 101.2 47.45 98.95 46.4 97.1 45.55 96.75 45.55
L 94.95 46.05 92.5 46.7 90.1 46.7
M 88.75 41
Q 88.75 42 86.2 46.45
L 83.15 51.25 82.8 51.4 88.55 49.75
Q 94.05 48.3 95.8 48.1
L 96.95 48.05 88.45 54.55
Q 81.25 58.95 73.4 58.95
L 66.3 58.45 63.45 57.9 60.4 58.7
Q 57.6 59.5 55.7 59.5 41 59.5 30.45 67.8 27.25 70.3 21.5 76.1 15.25 82.3 11.65 85.3 8.45 82.1 5.1 79.25
L 3.5 77.85 4.55 79.75 5.05 80.85
Q 5.05 81.3 4.65 81.45
L 3.35 82
Q 4 83.1 8.3 87.3
L 12.4 91.35
Q 12.4 90.6 12.7 91 12.85 91.3 12.4 91.35
L 12.2 91.35 10.3 96.3
Q 7.8 102.3 4.75 107.2 -5.15 123 -17.55 123 -25.6 123 -30.45 119.7
L -33.3 117.15 -34.8 115.4 -35.85 114.4
Q -34.5 115.85 -34.4 116.6 -34.2 117.55 -32.55 119.7
L -48.55 128.75
Q -58.55 134.55 -59.75 134.55 -61.65 134.55 -67.9 128.85
L -75.45 121.75 -63 109.35
Q -61.65 119.15 -57.3 122.35 -54.7 124.25 -48.7 124.25
L -47.55 124.2
Q -47.15 124 -47.15 123.35
L -56.8 101.5
Q -56.8 96.25 -54.95 95.3 -51.9 93.65 -49.75 88.25 -43.45 93.85 -30.45 108.45 -18.65 121.75 -17.75 122.25
L -17.25 122.1
Q -17.15 122.25 -17.15 121.25
L -21.15 109.35 -21.5 108.35
Q -18.6 111.75 -15.4 111.75
L -14.4 111.65
Q -14.15 111.45 -14.15 110.75 -14.15 108.15 -20.8 98.4 -32.7 80.85 -37.65 72.75
L -30.35 66.85
Q -13.55 85.8 -5.2 91.65 -0.05 95.25 5.3 95.25
L 6.45 95.05 6.65 94.5
Q 5.65 90.55 -5.35 77.25
L -17.8 62.8 -20.9 59.7 -16.1 56.15 -12.55 53.25
Q -12.3 58.1 -2.4 64.65 6.05 70.25 7.7 70.25
L 8.35 70.2 8.45 70.05 8.75 69.65 8.9 68.75
Q 8.9 65.5 5.5 59.35 1.05 51.3 -6.65 44.6
L -2.2 38.15
Q 3.15 43.4 9.65 55.55 12 60 13.65 61.75 15.9 64.15 18.8 64.25 20.35 63.2 20.35 59.75 20.35 58.55 19.6 56
L 21.15 57.1
Q 22.25 57.75 22.7 57.75
L 23.7 57.65 24.05 57.45 24.25 56.6
Q 19.65 51.7 15.1 45.65 5.9 33.6 5.9 27.7 5.9 27.05 8.8 24.2 11.75 21.3 11.6 21.75
L 26.2 33.2
Q 37.3 41.75 39.6 41.75
L 40.95 41.55 41.4 40.25
Q 39.6 39.35 37.3 35.7
L 32.8 28.1
Q 26.2 17.45 18.7 15.2
L 23.05 12.1 31.9 19.3
Q 38.1 23.75 41.8 23.75 43.3 23.75 43.3 22.55 43.3 21.45 39.85 15.8
L 36.4 10.25 35.15 9.15
Q 33.7 8.15 32.4 7.6
L 35.3 6.85 38.9 6.05 42.1 9.15 49.8 16.25
Q 49.95 16.15 50.45 15.8
L 50.9 15.05
Q 49.55 8.4 48.9 6.9
L 48.4 6.05
Q 50.45 6.05 54.15 7.95 58.35 10.1 60 12.7 56.15 18.2 56.15 19.3
L 56.55 21.5
Q 56.9 23.65 56.75 26.75 56.55 31 53.75 37.05 52.35 40.1 50.95 42.35 50.95 47.15 55.2 51.05 59.7 55.2 65.95 55.2 74 55.2 77.8 52.8 81.65 50.4 88.75 41
M 84.3 68.95
L 87.8 68.25
Q 89.95 68.25 92.05 69.45
L 94.95 71.15 71.95 74.3 68.45 73.75 64.95 73
Q 66.25 72 76.35 67.15 87.7 61.7 90.3 61.8 88.5 62.55 86.45 63.8 82.4 66.3 79.75 70.05
L 80.25 70 84.3 68.95
M 62.1 15.95
Q 63.8 19.75 64.5 22.85 66.4 30.95 65.25 40.65
L 66.35 40.85 66.6 40.6 66.9 43.15
Q 66.9 44.05 65.6 47.4 64.1 51.2 63.8 52.85 62.15 52.8 52.7 43.75 56.1 42.65 58.9 33.3 61.3 25.15 62 15.95
L 62.1 15.95
M 42.25 5.75
L 44.7 5.6
Q 45.95 5.6 45.95 6.25
L 46.65 8.3 47.4 10.8 42.25 5.75
M 26.25 11.25
L 25.05 10.9 30.45 8.3
Q 37.5 17.55 38.75 20.1
L 30.7 14.2
Q 26.85 11.3 26.25 11.25
M 12.8 20.3
L 17.35 16.25
Q 22.3 21 25.55 25.25
L 31.75 34.2 20.25 24.9
Q 14.45 20.25 12.8 20.3
M 3.95 30.2
Q 6 33.1 6.75 36.1
L 7.65 40.85
Q 8.9 46.1 17.05 51.5 15.75 52.25 15.7 55.4 15.7 58 16.25 59.35
L 8.35 47.75
Q 0.55 36.45 -0.35 35.7
L 3.95 30.2
M 6.05 66.35
L 6.05 66.45
Q -3.3 63.85 -11.4 51.95 -11.4 51.35 -9.65 48.85
L -7.9 46.45
Q -5.05 48.9 -0.15 55.6 5.15 62.95 6.05 66.35
M 1.75 91.35
L 2.25 91.85
Q -6.25 89.7 -17.4 78.35 -27.55 68.05 -27.55 64.7 -27.55 64.1 -25.4 62.75
L -23.3 61.5
Q -15.45 71.65 -6.5 82.1
L 1.75 91.35
M 16.2 91.55
Q 16.2 90.7 15.6 89.25
L 14.4 86.65
Q 16.9 85.55 21.4 81.3
L 30.1 73.2
Q 42.4 62.55 53.6 62.55 55.2 62.55 58.75 60.9 58.95 62.25 60.25 62.25 61.3 62.25 62.65 61.45
L 62.9 66.05
Q 62.9 80.3 51.75 100.3 39.95 121.45 25.4 130.15 9.1 139.8 -18.1 145 -43.85 149.95 -112.9 156.95 -105.9 155.5 -96.3 152.4 -89.3 150.1 -86.1 150.1 -83 150.1 -57.25 136.3
L -32 122.5
Q -31.5 122.5 -29.8 123.8 -28.1 125.05 -27.6 125.05
L -25.8 124.9
Q -23.65 124.7 -18.75 124.75 -18.55 124.75 -18.25 125.25 -17.95 125.75 -17.4 125.75 -6.95 125.75 0.95 118.85 9 111.85 13.3 98.8
L 13.8 97.5 16.2 91.55
M -49.05 86.75
Q -48.4 84.3 -45.45 80.25 -42.15 75.75 -39.05 73.9 -29.15 90.65 -20.1 104.55
L -19.35 105.75 -24.2 101.25
Q -28.2 97.25 -28.85 96.9
L -29.2 96.9 -29.45 97.65 -25.6 106.6
Q -21.9 114.7 -21.65 115.6
L -21.4 116.45
Q -23.45 112.5 -30.7 102.15 -33.45 98.2 -40.5 92.75 -45.35 89 -49.05 86.75
M -116.35 145.45
Q -115.75 145.45 -113.8 148.35
L -111.6 151.85 -110.55 153.15 -125.7 156.15 -127.65 149.5
Q -124.25 148.6 -123.25 146.65 -122.65 145.45 -116.35 145.45
M -112.75 146.3
L -114.15 144.6 -101.35 138.95
Q -98.85 138.95 -96.95 141.6 -93.5 146.4 -91.05 148.6
L -98.6 150.9
Q -104.85 152.65 -108.25 152.65 -108.8 152.65 -110.05 150.6
L -112.75 146.3
M -87.6 146.3
Q -91.9 145.55 -98.25 137.45
L -83.2 128.25 -79.4 135.6
Q -77.7 138.9 -77.7 139.5
L -77.3 141.1 -76.75 142.1
Q -83.75 146.95 -87.6 146.3
M -128.9 151.25
L -128.9 157.15 -138.3 157.15 -138.3 151.25 -128.9 151.25
M -154.6 158.05
L -141.9 154.1 -139.2 158.05 -154.6 158.05
M -52.1 119.65
L -51.25 121
Q -54.8 120.2 -57.2 114.6 -59.8 108.65 -61.65 107.8
L -58.15 103.4
Q -53.45 116.95 -52.1 119.65
M -63.9 136.35
L -68.6 138.5 -74.05 140.85
Q -74.55 135.75 -77.45 131.45 -78.25 130.2 -81.35 126.8
L -77.5 123.5
Q -73.5 129.1 -71.2 131.2
L -63.9 136.35 Z"/>

<path fill="#A45656" stroke="none" d="
M -68.6 138.5
L -63.9 136.35 -71.2 131.2
Q -73.5 129.1 -77.5 123.5
L -81.35 126.8
Q -78.25 130.2 -77.45 131.45 -74.55 135.75 -74.05 140.85
L -68.6 138.5
M -51.25 121
L -52.1 119.65
Q -53.45 116.95 -58.15 103.4
L -61.65 107.8
Q -59.8 108.65 -57.2 114.6 -54.8 120.2 -51.25 121
M -128.9 157.15
L -128.9 151.25 -138.3 151.25 -138.3 157.15 -128.9 157.15
M -114.15 144.6
L -112.75 146.3 -110.05 150.6
Q -108.8 152.65 -108.25 152.65 -104.85 152.65 -98.6 150.9
L -91.05 148.6
Q -93.5 146.4 -96.95 141.6 -98.85 138.95 -101.35 138.95
L -114.15 144.6
M -45.45 80.25
Q -48.4 84.3 -49.05 86.75 -45.35 89 -40.5 92.75 -33.45 98.2 -30.7 102.15 -23.45 112.5 -21.4 116.45
L -21.65 115.6
Q -21.9 114.7 -25.6 106.6
L -29.45 97.65 -29.2 96.9 -28.85 96.9
Q -28.2 97.25 -24.2 101.25
L -19.35 105.75 -20.1 104.55
Q -29.15 90.65 -39.05 73.9 -42.15 75.75 -45.45 80.25
M 2.25 91.85
L 1.75 91.35 -6.5 82.1
Q -15.45 71.65 -23.3 61.5
L -25.4 62.75
Q -27.55 64.1 -27.55 64.7 -27.55 68.05 -17.4 78.35 -6.25 89.7 2.25 91.85
M 6.05 66.45
L 6.05 66.35
Q 5.15 62.95 -0.15 55.6 -5.05 48.9 -7.9 46.45
L -9.65 48.85
Q -11.4 51.35 -11.4 51.95 -3.3 63.85 6.05 66.45
M 6.75 36.1
Q 6 33.1 3.95 30.2
L -0.35 35.7
Q 0.55 36.45 8.35 47.75
L 16.25 59.35
Q 15.7 58 15.7 55.4 15.75 52.25 17.05 51.5 8.9 46.1 7.65 40.85
L 6.75 36.1
M 17.35 16.25
L 12.8 20.3
Q 14.45 20.25 20.25 24.9
L 31.75 34.2 25.55 25.25
Q 22.3 21 17.35 16.25
M 25.05 10.9
L 26.25 11.25
Q 26.85 11.3 30.7 14.2
L 38.75 20.1
Q 37.5 17.55 30.45 8.3
L 25.05 10.9
M 44.7 5.6
L 42.25 5.75 47.4 10.8 46.65 8.3 45.95 6.25
Q 45.95 5.6 44.7 5.6 Z"/>

<path fill="#568128" stroke="none" d="
M 13.3 98.8
L 13.7 97.95 13.8 97.5 13.3 98.8
M 12.7 91
Q 12.4 90.6 12.4 91.35 12.85 91.3 12.7 91 Z"/>
</g>

<g id="Graphics_Symbol_645_0_Layer2_0_FILL">
<path fill="#000000" fill-opacity="0.4980392156862745" stroke="none" d="
M -12.8 72.8
L -20.4 73.1 -20.6 74.5
Q -20 75.75 -18.65 76.65
L -12.8 72.8
M -41.35 92.5
L -42.05 96.15 -42.6 100.8 -42.55 103.1
Q -40.6 99.95 -40 98.3 -38.9 95.4 -41.35 92.5
M 95.65 51.15
L 96.2 50.1
Q 90.2 54 86.05 55.8 81 58 76.75 58
L 59.3 56.75
Q 44.35 56.75 36.45 59.8 30.5 62.1 30.5 64.8
L 30.7 66.2 32.7 66.35 40.05 62.95
Q 49.2 59.5 58.55 59.5
L 76.1 60.75
Q 82.3 60.75 87.9 58 93.55 55.2 95.65 51.15
M 97.5 74.15
Q 95.3 72.3 92.35 71.45 89.15 70.55 84.05 70.55
L 74.1 71.3
Q 71.15 71.95 71.15 72.75
L 71.25 74.25 97.5 74.15
M 88.15 64.2
L 88.15 63.6
Q 81.65 65.1 79 66.15 76.85 66.95 65.35 72.3 66 69.15 66 67.1
L 65.75 63.95
Q 65.45 61.35 64.85 60.65 63 61.85 62 61.85 61.65 61.85 60.45 61.1
L 59.25 60.3
Q 57.5 60.3 57.65 61.7
L 58.25 66.6
Q 58.25 74.55 45.7 94 33.55 112.8 30.1 112.8 29.15 112.65 28.35 111.05
L 22.95 116.45
Q 18 121.8 18 124.4 18 127.2 10.3 129.05 -4.1 131.95 -17.5 135.1
L -13.7 136.05 -9.95 136.35
Q -58.2 145.55 -82.8 149.3
L -135 156.6
Q -122.55 154.3 -104.6 146.5 -82 136.6 -71.1 126.75
L -48.35 106.15
Q -43.75 101.85 -43.75 100.65
L -44.15 97.3 -44.55 93.9
Q -44.55 93.1 -39.55 87.25 -34.35 81.1 -27.65 74.15 -24.15 70.55 -15.8 68.3 -7.65 66.1 -6.75 65 -3.7 61.3 3 50.7 9.9 39.8 14.25 34.35 29.5 15.3 48.25 15.3 54.35 15.3 58 23.7 61.5 31.75 61.5 44.35
L 61.1 46.45 60.35 49.6 53.9 45.5
Q 52.55 44.6 50.15 43.9
L 49.6 44.25
Q 49 44.7 49 45.5 49 50.8 56.9 53.7 62.5 55.75 67.75 55.75
L 68.8 55.5 69.6 54.25 65.7 52.55
Q 67.7 51.2 68.65 45.9 69.55 40.75 68.95 30.5 68.35 20.25 61.9 12.1 55.45 3.95 44.25 3.55 33.05 3.15 19.65 12.85 6.25 22.5 -1.75 35.15 -9.75 47.75 -13.45 50.3 -17.15 52.85 -22.55 55.95 -28.45 59.65 -35.8 65.6 -39.6 68.65 -42.15 72.2 -43.5 74.1 -46.85 79.9 -54.8 93.7 -67.2 108.35 -70.6 112.35 -79.55 120.15 -90.85 129.95 -98.35 134 -108.2 139.3 -137.3 149.25 -165.1 158.75 -168 160.6
L -159.1 161.55
Q -156.4 159.8 -143.95 160.1 -131.55 160.4 -93.65 156.4
L -44.4 149.45 -31.6 147.8 -15.6 145.55 1.9 142.5
Q 12.85 139.7 18.2 137.25 24.05 134.65 31.85 128.9 41.65 121.7 52.95 100.5 64.2 79.3 65.3 72.65
L 66.45 73.8
Q 70.05 72.65 77.15 69.75 86.5 65.95 88.15 64.2
M 87.75 44.7
L 87.9 43.9 77.35 49.3 71.1 53.35
Q 73.5 55 74.35 55 77.55 55 82.1 51.3 86.35 47.85 87.75 44.7 Z"/>
</g>

<g id="Graphics_Symbol_645_0_Layer1_0_FILL">
<path fill="#E6E6E6" fill-opacity="0.32941176470588235" stroke="none" d="
M -32.95 133.5
Q -33.65 133.15 -34.65 133.15 -35.75 133.15 -43.35 136.1
L -56.75 141.3
Q -56.7 142.85 -54.4 142.85 -51.1 142.85 -42.15 139.5 -32.75 136 -32.75 134.05
L -32.85 133.4 -32.95 133.5
M 68.55 57.05
Q 69.35 57.05 70.6 55.75 65.3 54.7 57.95 52.1 51.55 49.85 50.85 49.85
L 49.35 50.1 48.55 50.35 48.95 50.75
Q 50.85 52.45 58.6 54.8 65.95 57.05 68.55 57.05
M 29.25 98
Q 32 98 40 88.8 47.75 79.95 47.75 78.05 47.75 76.55 46.95 75.9 46.2 75.3 44.45 75.3 40.15 75.3 35.7 78.85 31.8 81.95 29.05 86.65 26.45 91.15 26.35 94.45 26.2 98 29.25 98
M 46.05 21.55
L 50.1 19.8
Q 45.9 18.5 37.7 23.05 30.1 27.3 21 35.4 0.65 53.55 -6.95 70.4
L -6.85 71.05
Q -15.8 68.05 -30.15 81.65 -34.5 85.75 -41.65 93.65
L -51.5 104.25 -59.35 113.15
Q -66.65 120.9 -75.05 126.4 -91.7 137.35 -116.75 147.6
L -131.6 153.45
Q -137.35 155.7 -137.35 156.3
L -137.25 157.5 -136.3 157.6
Q -117.65 157.6 -75.45 127.8 -61.7 118.1 -47.95 106.95 -36.7 97.85 -36 96.75 -31.95 90.35 -25.75 83.05 -20.3 76.7 -18.8 75.9 -17 74.9 -9.95 73 -4.15 71.4 -2.05 69.15 -0.95 68 5.55 58.25 12.55 47.8 14.35 45.5
L 14.4 45.65
Q 14.15 47 15.05 47.9 15.85 48.75 17.1 48.75 28.4 48.75 38.85 37 44.1 31.15 47.05 25.15
L 46.7 23.3 46.05 21.55
M 84.65 71.7
L 89.3 72.4 93.7 72.2
Q 94.9 71.9 94.9 70.65
L 94.9 69.95 94.8 70.05 78.35 69.3 79.1 69.1
Q 83.65 66.5 84 66.05
L 84.05 64.4 82.9 64.25
Q 81.65 64.25 75.7 66.9 69.65 69.6 69.65 70.35
L 69.7 71.25 70.1 71.55 71.15 71.8 72.6 71.4
Q 73.5 70.95 74 70.95
L 84.65 71.7
M 84.25 56.2
L 85.25 56.25
Q 89.35 56.25 95.25 49.8 93.35 49.45 90.15 51.15 86.15 53.6 83.65 54.85
L 84.25 56.2
M 87 48.75
Q 89.95 46.5 89.55 43.1 85.8 42.3 83.6 44.95
L 82.1 47.8
Q 82.1 48.7 82.4 49.4 82.85 50.35 83.7 50.35 84.9 50.35 87 48.75 Z"/>

<path fill="#E6E6E6" fill-opacity="0.25098039215686274" stroke="none" d="
M 10.7 122
Q 11.55 119.3 10.25 112.65 8.15 102.1 -5.45 93.05 -10.9 89.45 -16.2 87.5 -21.4 85.65 -24.05 86.25
L -22.8 88.1
Q -27.1 88.55 -28.3 89.8 -29.1 90.6 -29.1 93.15 -29.1 95.3 -25.65 100.4 -22 105.65 -16.85 110.9 -3.4 124.55 6.8 124.55 9.9 124.55 10.7 122 Z"/>
</g>

<g id="Graphics_Symbol_645_0_Layer0_0_FILL">
<path fill="#000000" fill-opacity="0.15294117647058825" stroke="none" d="
M -1.2 131.5
L -0.2 130.5 1.1 130.25
Q -0.6 129.8 -2.7 128.75 -9.55 125.4 -22.75 115.4 -29.4 110.35 -32.25 105.45 -36.05 99.05 -39.8 94.35 -40.9 98.95 -42.55 103.1 -41.75 118.8 -29.7 128.55 -24.7 132.65 -18.75 134.7
L -17.5 135.1
Q -9.4 135.05 -1.2 131.5
M 7.6 99.8
Q 16.8 111.05 17.85 121.65 23.85 117.05 28.35 111.05
L 26.1 106.55
Q 22.1 97.3 19.4 92.8 7.55 73.2 -12.8 72.8
L -18.65 76.65
Q -1.35 88.8 7.6 99.8 Z"/>
</g>
</defs>

<g transform="matrix( 1, 0, 0, 1, -33.5,-72.6) ">
<g transform="matrix( 1, 0, 0, 1, 0,0) ">
<g transform="matrix( 1, 0, 0, 1, 0,0) ">
<use xlink:href="#Graphics_Symbol_607_0_Layer0_0_FILL"/>
</g>
</g>

<g transform="matrix( 1, 0, 0, 1, 0,0) ">
<g transform="matrix( 1, 0, 0, 1, 0,0) ">
<use xlink:href="#Graphics_Symbol_645_0_Layer3_0_FILL"/>
</g>

<g transform="matrix( 1, 0, 0, 1, 0,0) ">
<use xlink:href="#Graphics_Symbol_645_0_Layer2_0_FILL"/>
</g>

<g transform="matrix( 1, 0, 0, 1, 0,0) ">
<use xlink:href="#Graphics_Symbol_645_0_Layer1_0_FILL"/>
</g>

<g transform="matrix( 1, 0, 0, 1, 0,0) ">
<use xlink:href="#Graphics_Symbol_645_0_Layer0_0_FILL"/>
</g>
</g>
</g>
</svg>
