
<svg xmlns="http://www.w3.org/2000/svg" version="1.1" xmlns:xlink="http://www.w3.org/1999/xlink" preserveAspectRatio="none" x="0px" y="0px" width="550px" height="400px" viewBox="0 0 550 400">
<defs>
<g id="Layer0_0_FILL">
<path fill="#000000" stroke="none" d="
M -54.65 9.95
L -54.6 10
Q -53.95 11.7 -49.45 12.6 -45.15 13.4 -44.75 16.65 -44.55 18.45 -45.7 19.6
L -49.55 22.35
Q -48.15 24.25 -45.75 25.6 -44 26.5 -43.85 28.05
L -43.55 30.2
Q -43.7 32 -44.7 32
L -48.9 32.25
Q -50.25 32.5 -50.1 33.85 -49.95 34.8 -49.55 35.2
L -48.6 35.6 -42.9 35.7 -42.65 37.3
Q -42.45 39 -43.45 40.4 -44.65 42.2 -47.45 42.95
L -47.2 43.75
Q -45 45.85 -43.25 46.75 -42.35 47.15 -42.25 48.05
L -42.1 49.8
Q -42.3 51.5 -44.2 51.5
L -49.8 50.8 -49.75 51 -49.7 52.25
Q -49.45 54.7 -44.35 55.1
L -44.2 56.35
Q -44.95 57.25 -46.8 58.1
L -47.45 58.45 -48.95 58.7
Q -53.15 59.55 -56.35 62.25 -59.6 65 -59.3 67.5
L -58.4 68.75 -57.2 69.85 -52.55 69.95 -52.65 76.5
Q -52.45 77.7 -51.05 79.25 -49.15 76.95 -48.95 75.45 -48.85 74.8 -49.2 71.9
L -49.5 70.05 -44.9 70.15 -44.55 73.45 -43.8 76.3 -42.6 78.75 -41.85 75.45
Q -41.2 72.2 -41.3 71.15
L -41.65 70.45 -37.2 70.45 -36.3 69.7
Q -36.05 69.45 -36.15 68.5
L -36.3 67.5
Q -36.35 66.85 -36.55 66.3 -37.75 61.75 -40.9 59.8 -42.05 59 -43.5 58.7
L -41.8 55.5
Q -39.5 50.3 -39.8 47.95 -39.85 47.3 -40.6 45.7
L -41.35 43.4 -40.7 41.05
Q -39.95 38.95 -40.1 37.4 -40.2 36.7 -40.85 35.45
L -41.6 33.5 -41.5 30.75
Q -41.25 28.8 -41.35 28.05 -41.4 27.55 -42.6 24.95
L -43.8 22.45
Q -43.9 21.95 -43 19.85 -42.15 17.75 -42.3 16.45 -43 11.05 -48.6 10 -51.1 9.55 -54.65 9.95
M -23.1 -2.85
L -22.9 -1.95
Q -17.9 1.1 -4.85 4.15
L -3.25 3.85 -2.7 2.45
Q -6.7 0.65 -12.95 -1.4 -21.8 -4.25 -23.1 -2.85
M -18.3 -32.3
L -19.2 -32.85
Q -20.75 -31.95 -21.2 -29.8 -21.45 -27.2 -21.9 -26 -22.15 -25.3 -24.55 -22.35 -26.9 -19.6 -26.85 -19.1 -26.85 -18.6 -25.5 -17.4 -23.1 -17.7 -20.3 -23.3 -17.6 -28.5 -17.8 -30.95 -17.85 -31.85 -18.3 -32.3
M -46.3 -45.15
Q -46.75 -42.25 -47.15 -40.95 -52.7 -43.05 -52.55 -40.85 -52.5 -40.5 -48.45 -38.4
L -49.8 -36.25
Q -51.5 -33.75 -51.45 -33.25
L -51.3 -32.25 -50.85 -32.05
Q -51.1 -31.75 -49.85 -31.75 -48.6 -31.75 -45.85 -37.15 -42.6 -35.65 -41.4 -35.65 -40.65 -35.65 -40.4 -35.9
L -40.3 -36.15 -40.3 -37.4
Q -40.35 -38.3 -44.5 -39.95 -42.35 -44.6 -42.4 -45.65 -42.45 -46.5 -42.6 -46.65
L -42.75 -46.95
Q -45.45 -47.55 -46.3 -45.15
M 0.5 -39.55
Q -0.1 -38.75 0.3 -36.75
L -1.75 -36.45 -7.3 -37.8
Q -8.8 -37.8 -8.7 -36.2 -8.9 -35.55 -8.05 -34.8 -6.45 -33.4 -1.45 -33.4 1.5 -33.4 2.95 -34.9
L 5.15 -38.4
Q 1.5 -40.9 0.5 -39.55
M 34.65 -25.45
L 34.5 -26.35 34.3 -26.5
Q 29.7 -25.5 23.2 -16.55 19.9 -12 17.55 -7.5 17.6 -6.55 17.95 -6.25
L 18.9 -5.75 28.3 -17.25
Q 34.7 -25.05 34.65 -25.45
M 21.65 -38.1
Q 29 -33.4 33.05 -33.4
L 35.65 -33.45 35.9 -34.85 35.45 -35.55 34.55 -36.15
Q 31.85 -36.7 22.1 -41.55 15.15 -45.1 15.35 -42.3
L 21.65 -38.1
M 31.15 -63.15
L 31.25 -63.35
Q 32.95 -66.7 32.85 -68.3
L 32.65 -69.3 32.5 -69.6
Q 29.9 -70.05 28.65 -67.1
L 27.85 -64.6
Q 23.4 -66.45 22.6 -66.25
L 22.6 -65
Q 22.65 -64.6 26.9 -62.3
L 26.4 -61.4 26.55 -60.6 27.1 -60.1 28.25 -59.9
Q 28.9 -59.9 29.65 -60.85 35.85 -57.7 37.4 -57.7 38.25 -57.7 38.65 -58.1
L 39.05 -59.05
Q 35.95 -60.9 31.15 -63.15 Z"/>
</g>
</defs>

<g transform="matrix( 1, 0, 0, 1, 0,0) ">
<use xlink:href="#Layer0_0_FILL"/>
</g>
</svg>
