
<svg xmlns="http://www.w3.org/2000/svg" version="1.1" xmlns:xlink="http://www.w3.org/1999/xlink" preserveAspectRatio="none" x="0px" y="0px" width="550px" height="400px" viewBox="0 0 550 400">
<defs>
<g id="Layer0_0_FILL">
<path fill="#000000" stroke="none" d="
M -67.65 -59.7
L -67.65 -60.35 -53.1 -51.6
Q -52.55 -52.8 -52.45 -54.25
L -52.5 -55.55
Q -57.1 -69.85 -78.85 -76.05 -79.5 -75.85 -79 -68.75 -78.45 -60.5 -76.35 -53.95 -74.9 -49.5 -70.55 -43.9 -66.2 -38.2 -64.45 -38.75 -63.8 -38.95 -63.7 -39.05
L -63.75 -39.15
Q -63.85 -40.7 -65.45 -49.25 -66.9 -56.75 -67.65 -59.7
M -70.15 -62.8
L -70.8 -62.45 -70.6 -60.65
Q -68.7 -50.45 -67.7 -44 -69.35 -43.85 -71.85 -49.25
L -73.95 -54.75
Q -75.05 -58.05 -74.75 -62.45 -74.45 -67 -74.85 -68.35 -75.2 -69.45 -74.3 -70.3
L -76.9 -70.2 -77.8 -73.05
Q -76.25 -73.75 -74.35 -71.95 -71.85 -69.75 -71 -69.6 -65 -68.2 -62.4 -65.55 -59.5 -61.4 -56.4 -58.05 -61.1 -61.55 -64.1 -62.55
L -70.15 -62.8
M 34.65 -103.45
Q 33.85 -101.3 31.35 -100.5 25.25 -98.7 23.6 -93.2 22.1 -88.6 23.9 -82.9 25.05 -79.35 27.7 -80.2 29.15 -80.65 32 -84.9
L 35.75 -90.6
Q 36.45 -86.55 36.9 -80.65
L 37.25 -75.6 37.9 -73.75 39.25 -73.85
Q 43.35 -75.05 45.15 -77.7 47.7 -81.65 46.35 -89.5 45.8 -93 44.7 -96.45 44 -98.95 44 -99.65 44.2 -101.45 44.95 -103 45.6 -104.35 45.5 -104.8 45.3 -105.3 43.15 -106.1 40.2 -107.2 36.95 -106.15 35.3 -105.75 34.65 -103.45
M 38.35 -104
L 39.95 -104.05
Q 41.75 -103.95 42.55 -103.45
L 40.85 -101.05
Q 40 -99.4 40.25 -98.7 40.7 -97.25 40.9 -97.15 41.15 -97 42.35 -97.55 42 -95.35 42.75 -92.25
L 44.05 -87.25
Q 45.05 -81.55 39.75 -77.55 38.4 -93.05 38.05 -93.95 37.75 -95.05 37.85 -94.5 37.3 -94.75 36.4 -94.5 35.05 -94.1 31.6 -89.9 27.5 -85.1 26.45 -84.25
L 26.4 -84.1
Q 26.3 -84 26.1 -84.65 24.3 -90.3 28.95 -95.05 32.45 -98.5 35.25 -99 37.4 -99.45 37.5 -101.5 37.5 -103.75 38.35 -104 Z"/>

<path fill="#999999" stroke="none" d="
M -70.8 -62.45
L -70.15 -62.8 -64.1 -62.55
Q -61.1 -61.55 -56.4 -58.05 -59.5 -61.4 -62.4 -65.55 -65 -68.2 -71 -69.6 -71.85 -69.75 -74.35 -71.95 -76.25 -73.75 -77.8 -73.05
L -76.9 -70.2 -74.3 -70.3
Q -75.2 -69.45 -74.85 -68.35 -74.45 -67 -74.75 -62.45 -75.05 -58.05 -73.95 -54.75
L -71.85 -49.25
Q -69.35 -43.85 -67.7 -44 -68.7 -50.45 -70.6 -60.65
L -70.8 -62.45
M 39.95 -104.05
L 38.35 -104
Q 37.5 -103.75 37.5 -101.5 37.4 -99.45 35.25 -99 32.45 -98.5 28.95 -95.05 24.3 -90.3 26.1 -84.65 26.3 -84 26.4 -84.1
L 26.45 -84.25
Q 27.5 -85.1 31.6 -89.9 35.05 -94.1 36.4 -94.5 37.3 -94.75 37.85 -94.5 37.75 -95.05 38.05 -93.95 38.4 -93.05 39.75 -77.55 45.05 -81.55 44.05 -87.25
L 42.75 -92.25
Q 42 -95.35 42.35 -97.55 41.15 -97 40.9 -97.15 40.7 -97.25 40.25 -98.7 40 -99.4 40.85 -101.05
L 42.55 -103.45
Q 41.75 -103.95 39.95 -104.05 Z"/>
</g>
</defs>

<g transform="matrix( 1, 0, 0, 1, 0,0) ">
<use xlink:href="#Layer0_0_FILL"/>
</g>
</svg>
