
<svg xmlns="http://www.w3.org/2000/svg" version="1.1" xmlns:xlink="http://www.w3.org/1999/xlink" preserveAspectRatio="none" x="0px" y="0px" width="550px" height="400px" viewBox="0 0 550 400">
<defs>
<g id="Layer0_0_FILL">
<path fill="#000000" stroke="none" d="
M 18.7 -100.5
L 18.05 -101 19.6 -101.55 20.15 -98.8
Q 20.55 -97.15 21.9 -96.65
L 24.35 -96.7
Q 26.4 -97.35 26.6 -98.4 26.7 -98.8 26.2 -100.4
L 25.15 -102.35 23.6 -104.5
Q 24.05 -105 23.65 -105.35 24.25 -105.9 30.35 -107.7
L 32.1 -105.15
Q 33.9 -102.55 36.75 -103.45 39 -104.05 38.3 -106.2 36.25 -112.65 26.85 -109.8 25.9 -109.45 17.05 -103.7 7.85 -97.75 7.25 -97.45 6.1 -96.75 2.35 -95.1 -2.25 -93 -4.2 -92.4
L -6.15 -92.9 -10.2 -92.75
Q -12.05 -92.1 -16.8 -89.1
L -20.25 -89.15
Q -23.9 -88.1 -25.4 -86.75 -26.95 -85.2 -28.05 -84.95
L -32.4 -84.75 -37.2 -81.8
Q -37.8 -81.65 -39.45 -82.55 -42.3 -83.35 -48.15 -82.4
L -70.6 -83.2
Q -74.6 -82 -77.1 -79.3 -79.5 -76.7 -78.9 -74.8
L -78.35 -73.5 -78 -73.5 -77.15 -73.6
Q -76.6 -73.75 -75.3 -76.2 -73.95 -78.9 -71 -79.8
L -65.8 -80.8 -72 -74.55
Q -73.6 -72.85 -73.5 -72.6 -72.8 -70.45 -70.15 -70 -67.6 -69.4 -64.2 -70.4 -59.45 -71.9 -58 -74.8 -57.6 -75.65 -57 -80
L -54.45 -79.25 -57.7 -75.05
Q -59.1 -72.7 -58.5 -70.75 -57.15 -66.8 -53.2 -68 -44.9 -70.45 -49.8 -78.15
L -47.05 -79.5 -39.45 -79.85 -40.95 -75.95
Q -42.2 -72.4 -42.1 -71.6
L -40.95 -70.2 -40.25 -70.15
Q -37.55 -70.95 -35.8 -76
L -33.9 -81.15
Q -30.8 -82.1 -29.4 -82.1
L -29.35 -82.05
Q -30.1 -81.4 -30.15 -80.2
L -29.7 -77.95
Q -28.8 -75.25 -27.15 -74.45
L -24.4 -74.25
Q -21.6 -75.15 -22.7 -78.7 -23.1 -79.9 -25.25 -83.25 -22.95 -84.75 -19.15 -86.15
L -21.1 -82.45
Q -21.8 -80.9 -20.9 -77.9 -20.45 -76.5 -19.45 -76
L -17.2 -75.9
Q -10.85 -77.85 -15.05 -86.85
L -9.25 -89.8 -6.65 -89.95 -9 -87.05
Q -9.6 -86.25 -8.8 -83.95 -7.95 -81.15 -4.15 -82.2 0.3 -83.55 0 -86.6 -0.15 -87.9 -1.8 -90.25 0.1 -91.5 2.45 -92.55
L 4.2 -93.2
Q 4.15 -92.5 2.65 -89.65 1.25 -87.3 1.85 -86.1 2.4 -85.8 3.1 -85.4 4.4 -84.85 5 -85 6.8 -85.55 8.3 -87.25 9.7 -88.95 11.55 -92.3 12.25 -90.7 14.25 -89.8 16.1 -89.05 17.55 -89.4 20.05 -90.2 20.7 -92.25 21.4 -94.45 20.4 -97.5 19.8 -99.2 18.7 -100.5
M 23 -99.35
L 22 -102.2 22.85 -101.65
Q 23.45 -101 23.85 -99.75
L 23.8 -99.6 23 -99.35
M 34.35 -107.15
Q 34.9 -107.2 35.25 -105.8
L 35.3 -105.6 34.6 -106.3
Q 34.05 -107.05 34.35 -107.15
M 18.25 -95.9
Q 18.65 -94.85 18.2 -93.8 17.6 -92.75 16.6 -92.3 15.55 -92.05 14.55 -92.75 13.55 -93.25 13.15 -94.45 12.8 -95.6 13.25 -96.7 13.75 -97.8 14.8 -98.15 15.8 -98.5 16.9 -97.75 17.9 -97.15 18.25 -95.9
M 4.3 -88.1
L 6.05 -90.45
Q 7.75 -92.8 9.1 -93.4 8.7 -92.25 7.35 -90.4 5.55 -88.05 4.3 -88.1
M -16.65 -84.1
Q -16.1 -82.35 -16.15 -81.6 -16.15 -80.2 -17.35 -79.35
L -18.45 -78.65
Q -18.05 -82.35 -16.65 -84.1
M -2.85 -85.9
L -6.2 -84.75 -6.5 -84.75 -3.6 -88.5 -2.85 -85.9
M -26.65 -77.35
L -27.35 -78.55 -27.45 -79.95 -27 -80.65
Q -26.6 -80.8 -26.1 -80.35
L -25.45 -79.1
Q -25.2 -78.35 -25.3 -77.75 -25.45 -77.1 -25.75 -76.95 -26.15 -76.8 -26.65 -77.35
M -60.5 -78.9
L -60.1 -76.9
Q -59.95 -76.15 -60.45 -75.85 -60.75 -75.5 -68.6 -72.15
L -70.75 -73.25 -67.5 -75.9
Q -63.65 -78.45 -60.5 -78.9
M -52.2 -77.15
Q -51.3 -76 -50.95 -75 -49.7 -70.8 -55.85 -70.45 -55.85 -71.7 -54.8 -73.55
L -52.2 -77.15 Z"/>
</g>
</defs>

<g transform="matrix( 1, 0, 0, 1, 0,0) ">
<use xlink:href="#Layer0_0_FILL"/>
</g>
</svg>
