
<svg xmlns="http://www.w3.org/2000/svg" version="1.1" xmlns:xlink="http://www.w3.org/1999/xlink" preserveAspectRatio="none" x="0px" y="0px" width="550px" height="400px" viewBox="0 0 550 400">
<defs>
<g id="Parts_Heads_headColorMC_37_Layer1_0_FILL">
<path fill="#FF0000" stroke="none" d="
M 99.45 35.8
Q 94.85 36.45 81.35 43.25 79.1 44.35 74.9 48.2 71.25 51.5 68.6 54.5 75.15 55.25 82.85 61.15 90.2 66.75 88.65 68.6 81.3 63 75.8 60.4 66.55 55.95 56.7 55.95 36.45 55.95 22.2 69 9.15 80.95 9.15 95 9.15 112.45 21 122.8 30.05 130.65 47.7 135.5 57.6 138.2 75.9 141.9 89.8 145.4 92.3 150.8 100.35 136.8 110.95 121.35
L 126.3 99.2
Q 133.55 88.35 136.65 80.7 140.5 71.4 140.5 62.15 140.5 48.5 131.05 41.1 123.3 35.05 112.65 35.05
L 103.85 35.75 101.85 35.85 99.45 35.8 Z"/>
</g>

<g id="Graphics_Symbol_803_0_Layer0_0_FILL">
<path fill="#000000" stroke="none" d="
M 112.9 32.5
Q 106.55 32.5 102.3 33.7
L 80.9 40.4
Q 73 45.9 69.4 49.65 66.7 52.35 66.7 53.65
L 66.75 54.15
Q 61.2 52.35 51.5 54.05 41.15 55.9 31.55 60.95 20.6 66.7 14.25 74.95 6.85 84.55 6.85 96.15 6.85 111.35 14.3 120.6 20.45 128.25 33.3 133.25 39 135.5 58.7 140.9 75.85 145.6 85.55 150.3 92.35 153.35 93 154.8
L 93.1 155.65
Q 93.2 156.05 94.25 156.5 98.95 144.65 109.25 128.25 117.55 115.05 122.75 108.8 130.7 99.35 136.6 87.55 143.4 73.95 143.4 64.65 143.4 47.5 132.85 39.05 124.7 32.5 112.9 32.5
M 81.35 43.25
Q 94.85 36.45 99.45 35.8
L 101.85 35.85 103.85 35.75 112.65 35.05
Q 123.3 35.05 131.05 41.1 140.5 48.5 140.5 62.15 140.5 71.4 136.65 80.7 133.55 88.35 126.3 99.2
L 110.95 121.35
Q 100.35 136.8 92.3 150.8 89.8 145.4 75.9 141.9 57.6 138.2 47.7 135.5 30.05 130.65 21 122.8 9.15 112.45 9.15 95 9.15 80.95 22.2 69 36.45 55.95 56.7 55.95 66.55 55.95 75.8 60.4 81.3 63 88.65 68.6 90.2 66.75 82.85 61.15 75.15 55.25 68.6 54.5 71.25 51.5 74.9 48.2 79.1 44.35 81.35 43.25
M 91.6 95.9
L 99.05 90.9
Q 107 85.9 109.95 85.9 111.5 85.9 115.05 87.15
L 118.4 88.35 119.25 88.1 119.55 87.65
Q 118.75 85.4 116.5 84.15 114.45 83 111.8 83 104.3 83 96.8 88.15 90.45 92.55 90.45 94.65 90.45 95.9 91.6 95.9 Z"/>
</g>

<g id="Graphics_Symbol_853_0_Layer1_0_FILL">
<path fill="#424242" fill-opacity="0.25098039215686274" stroke="none" d="
M 99.45 35.8
Q 94.85 36.45 81.35 43.25 79.1 44.35 74.9 48.2 71.25 51.5 68.6 54.5 75.15 55.25 82.85 61.15 90.2 66.75 88.65 68.6 81.3 63 75.8 60.4 66.55 55.95 56.7 55.95 36.45 55.95 22.2 69 9.15 80.95 9.15 95 9.15 112.45 21 122.8 30.05 130.65 47.7 135.5 57.6 138.2 75.9 141.9 89.8 145.4 92.3 150.8 100.35 136.8 110.95 121.35
L 126.3 99.2
Q 133.55 88.35 136.65 80.7 140.5 71.4 140.5 62.15 140.5 48.5 131.05 41.1 123.3 35.05 112.65 35.05
L 103.85 35.75 101.85 35.85 99.45 35.8
M 87.2 48.4
Q 90.35 48.4 100 44.45 109.65 40.5 112.1 40.5 114.3 40.5 118.45 42.1 123.2 43.9 127.4 46.75 138.85 54.5 138.85 64.45 138.85 69.3 136.2 74.3
L 130.85 82.95 115.25 108.95
Q 104.75 124.8 96.35 134.1 90.65 140.3 89.7 140.3 83.9 140.3 73.55 137.7 61.1 134.5 50.45 129.25 20.75 114.6 20.75 91.75 20.75 84.45 23.95 79.25 27.1 74.15 32.75 72.05
L 54.4 64.15
Q 58.65 62.85 64.3 62.85 69.25 62.85 77.95 65.5 89.35 69 91.55 74.05
L 92.35 69.1 87.05 63.25
Q 82.8 57.85 82.8 54.6 83.1 53 83.75 51.45 85.15 48.4 87.2 48.4 Z"/>
</g>

<g id="Graphics_Symbol_853_0_Layer0_0_FILL">
<path fill="#FFFFFF" fill-opacity="0.45098039215686275" stroke="none" d="
M 77.85 102.1
Q 73.2 102.1 69.95 104.05 66.65 106 66.65 108.75 66.65 111.5 69.95 113.45 73.2 115.4 77.85 115.4 82.5 115.4 85.8 113.45 89.05 111.5 89.05 108.75 89.05 106 85.8 104.05 82.5 102.1 77.85 102.1 Z"/>
</g>
</defs>

<g transform="matrix( 1, 0, 0, 1, -62.75,-76.85) ">
<g transform="matrix( 1, 0, 0, 1, 0,0) ">
<use xlink:href="#Parts_Heads_headColorMC_37_Layer1_0_FILL"/>
</g>
</g>

<g transform="matrix( 1, 0, 0, 1, -62.75,-76.85) ">
<g transform="matrix( 1, 0, 0, 1, 0,0) ">
<g transform="matrix( 1, 0, 0, 1, 0,0) ">
<use xlink:href="#Graphics_Symbol_803_0_Layer0_0_FILL"/>
</g>
</g>
</g>

<g transform="matrix( 1, 0, 0, 1, -62.75,-76.85) ">
<g transform="matrix( 1, 0, 0, 1, 0,0) ">
<g transform="matrix( 1, 0, 0, 1, 0,0) ">
<use xlink:href="#Graphics_Symbol_803_0_Layer0_0_FILL"/>
</g>
</g>

<g transform="matrix( 1, 0, 0, 1, 0,0) ">
<g transform="matrix( 1, 0, 0, 1, 0,0) ">
<use xlink:href="#Graphics_Symbol_853_0_Layer1_0_FILL"/>
</g>

<g transform="matrix( 1, 0, 0, 1, 0,0) ">
<use xlink:href="#Graphics_Symbol_853_0_Layer0_0_FILL"/>
</g>
</g>

<g id="hat1" transform="matrix( 0.983917236328125, -0.17529296875, 0.17529296875, 0.983917236328125, 45.2,78.25) ">
<g id="colorMC" transform="matrix( 0.9999847412109375, 0, 0, 0.9999847412109375, 0,0) "/>

<g id="colorMC2" transform="matrix( 1, 0, 0, 1, 0,0) "/>
</g>

<g id="hat2" transform="matrix( 0.9733734130859375, -0.2247314453125, 0.2247314453125, 0.9733734130859375, 38,60.6) ">
<g id="colorMC_FL" transform="matrix( 0.9999847412109375, 0, 0, 0.9999847412109375, 0,0) "/>

<g id="colorMC2_FL" transform="matrix( 1, 0, 0, 1, 0,0) "/>
</g>

<g id="hat3" transform="matrix( 0.96026611328125, -0.2753753662109375, 0.2753753662109375, 0.96026611328125, 26,48.4) ">
<g id="colorMC_FL_FL" transform="matrix( 0.9999847412109375, 0, 0, 0.9999847412109375, 0,0) "/>

<g id="colorMC2_FL_FL" transform="matrix( 1, 0, 0, 1, 0,0) "/>
</g>

<g id="hat4" transform="matrix( 0.944580078125, -0.3252410888671875, 0.3252410888671875, 0.944580078125, 18.85,34.5) ">
<g id="colorMC_FL_FL_FL" transform="matrix( 0.9999847412109375, 0, 0, 0.9999847412109375, 0,0) "/>

<g id="colorMC2_FL_FL_FL" transform="matrix( 1, 0, 0, 1, 0,0) "/>
</g>
</g>
</svg>
