
<svg xmlns="http://www.w3.org/2000/svg" version="1.1" xmlns:xlink="http://www.w3.org/1999/xlink" preserveAspectRatio="none" x="0px" y="0px" width="550px" height="400px" viewBox="0 0 550 400">
<defs>
<g id="Graphics_Symbol_232_0_Layer0_0_FILL">
<path fill="#1F2436" stroke="none" d="
M 16.25 29.1
L 15.35 29.35 0.5 30.35
Q -16.2 30.35 -22.65 27.75 -25.35 26.65 -26.45 25.15
L -26.55 25.55
Q -26.95 28.35 -25.65 30.4 -24.35 32.5 -21.3 33.95
L -20.85 33.5 -20.25 33.55
Q -19.6 33.65 -19.35 33.85
L -19.8 34.55
Q -15.75 36 -9.35 36.5
L -9.2 36.5 -2.35 36.75 -0.5 36.7
Q -0.3 36.3 0.05 36.25
L 0.55 36.45 0.65 36.55
Q 4.9 35.9 9.05 33.5 12.35 31.55 14.2 30.8
L 14 30.5
Q 15.2 29.9 16.25 29.1
M 56.65 14
L 54.95 13.4 56.35 14.95
Q 59.3 15.8 60.85 19.05 62.3 22.05 62.3 26 62.3 31.25 59.5 31.25 48.95 31.25 39.95 29.35 34.95 28.3 32.1 27.1 35.4 31.65 39.6 34.25
L 39.75 34.6 39.75 34.8
Q 41.8 35.65 43.6 36.7
L 47.5 36.7
Q 48.2 35.7 48.75 35.5
L 48.7 36.7
Q 61.7 36.6 67.35 35.1
L 67.4 33.85 68.3 33.85 68.65 34.7
Q 71.9 33.4 71.9 31 71.9 27.4 67.9 22.25 63.2 16.3 56.65 14 Z"/>
</g>
</defs>

<g transform="matrix( 1, 0, 0, 1, -28.4,-10.7) ">
<g transform="matrix( 1, 0, 0, 1, 0,0) ">
<g transform="matrix( 1, 0, 0, 1, 0,0) ">
<use xlink:href="#Graphics_Symbol_232_0_Layer0_0_FILL"/>
</g>
</g>
</g>
</svg>
