
<svg xmlns="http://www.w3.org/2000/svg" version="1.1" xmlns:xlink="http://www.w3.org/1999/xlink" preserveAspectRatio="none" x="0px" y="0px" width="550px" height="400px" viewBox="0 0 550 400">
<defs>
<g id="MovieClips_Symbol_228_16_Layer1_0_FILL">
<path fill="#FFFFFF" stroke="none" d="
M 24.2 -37.15
L 24.3 -38.05 8.45 -38.75
Q -9.1 -38.75 -15.05 -26.2 -18.4 -19.15 -18.4 -4.15
L -17.6 -1 -18.6 22.05 -17.6 30.1
Q -17.6 34.15 -16.05 35.2 -14.4 36.35 -8.1 36.35
L 16.95 34
Q 52.75 35.15 63.45 35.15 71.65 35.15 75.8 33.05 79.35 31.3 79.35 28.35
L 79.25 27.6 79.15 27.55 78.85 27.7 78.4 28.1 77.95 18.4 78.7 14.75
Q 78.7 14.2 76.2 12.05 73.2 9.45 70.5 9.45
L 68.7 8.9 64 6.3
Q 62.4 5.45 61.8 5.45
L 49.5 6.6
Q 42.85 6.5 41.55 3.7
L 40.05 4.1 41 -2
Q 40 -3.9 38.95 -6.15 36.9 -10.7 36.85 -12.9 36.8 -14.5 35.75 -17.35
L 34.7 -20.05
Q 34.7 -20.45 37.1 -22.85 39.5 -25.2 39.5 -27.45
L 39.4 -28.35 39.1 -28.85
Q 32.55 -28.95 28.5 -31.05 24.2 -33.25 24.2 -37.15 Z"/>
</g>
</defs>

<g transform="matrix( 1, 0, 0, 1, -28.15,-10.5) ">
<g transform="matrix( 1, 0, 0, 1, 0,0) ">
<use xlink:href="#MovieClips_Symbol_228_16_Layer1_0_FILL"/>
</g>
</g>
</svg>
