
<svg xmlns="http://www.w3.org/2000/svg" version="1.1" xmlns:xlink="http://www.w3.org/1999/xlink" preserveAspectRatio="none" x="0px" y="0px" width="550px" height="400px" viewBox="0 0 550 400">
<defs>
<g id="Graphics_Symbol_597_0_Layer0_0_FILL">
<path fill="#000000" stroke="none" d="
M 19.4 123.15
Q 27.4 119.65 32.25 112.5 15.5 105.95 0.45 97.55 -12.95 90.1 -21.15 77.3 -28.8 89.05 -27.05 107.15
L -20.45 114.5
Q -11.85 123.05 -0.55 127
L 0.5 127 6 126
Q 11.4 126.65 19.4 123.15
M 47.5 97
L 47.75 96.3 46.2 97.9 47.5 97
M 0.3 52.6
L 0.45 52.3 -3 54
Q -3.85 56.45 -6 57.5 -12.95 62.15 -15.45 69.55 -8.6 74.35 -1.6 78.7 16.7 89.95 37.85 94.7
L 47.85 96
Q 57.55 84 56.35 72.95 27.05 66.2 0.3 52.6
M 62 46
Q 67.2 34.95 62.45 27 33 25.7 4.6 17.45 0.85 25.15 -0.15 35.1
L 62 46 Z"/>
</g>

<g id="Graphics_Symbol_634_0_Layer2_0_FILL">
<path fill="#000000" stroke="none" d="
M 68.05 32.9
Q 68.05 16.25 56.45 4.3 45.6 -6.85 32.55 -6.85 14.5 -6.85 5.05 4.9 -3 14.85 -3 30.4 -3 35.25 -2.1 37.8 -1.25 40.4 -1.25 41.45 -1.25 43.45 -5.95 49.15
L -16.25 62
Q -31.3 82.25 -31.3 101.15 -31.3 102.75 -28.05 115.4 -24.85 128 -24.85 129.8 -24.85 131.2 -28.55 139.3 -32.65 148.35 -33.75 153.1 -31.55 152.85 -20.65 147.25 -8.8 141.15 -5.6 137.75 -2.1 134.05 10.65 129.75 25 124.9 27.45 123.35 34.25 119 41.3 111.85 50.25 102.8 53.45 94.7 55.6 90.45 56.8 86.65 58.75 80.25 61.85 61.95 63.85 50 66.35 41.3 68.05 35.25 68.05 32.9
M 63.15 33.65
Q 63.15 37.95 62 46
L 58.15 73.35 56.35 72.95 47.85 96 47.75 96.3 45.15 99.2 32.25 112.5
Q 23.95 118.7 13.7 122.9 5 126.5 -0.55 127
L 0.5 127.35
Q -5.7 127.2 -11.15 129.05 -14.55 130.25 -16.3 131.55 -20.55 126.75 -24.1 118.15 -27.15 110.65 -27.4 106.8 -27.25 106.95 -27.2 102.3
L -26.95 94.55
Q -26.45 90.2 -23.75 83.45
L -21.15 77.3
Q -21.15 76.3 -16.6 68.75
L -15.45 69.55
Q -9.65 61.25 -1.05 53.05 1.1 51 1.75 49.25 2.55 47.2 2.55 42.8
L 2.2 38.8
Q 1.75 34.95 1.15 34.95 1.45 34.95 2.7 27.25 4.05 18.85 4.6 17.45
L 1.8 16.6
Q 5.1 7.5 13.65 2.4 21.25 -2.15 30.1 -2.15 47.55 -2.15 56.3 10.3 63.15 20 63.15 33.65 Z"/>
</g>

<g id="Graphics_Symbol_634_0_Layer1_0_FILL">
<path fill="#000000" fill-opacity="0.25098039215686274" stroke="none" d="
M 63.85 31.6
Q 63.85 17.35 56 7.05 46.95 -4.85 31.25 -4.85 19.7 -4.85 9.9 2.55 -0.3 10.25 -0.3 20.1 -0.3 22.6 1 28.45 2.3 34.3 2.3 35.35 2.3 43 -2.7 49.1 -5.65 52.75 -13.65 60.15 -20.95 67.75 -24.6 76.8 -29.6 89.2 -27.9 106.5 -26.2 123.8 -22.95 128.7 -19.75 133.55 -8.3 133.55 3.1 133.55 12.2 129.25 24.95 123.2 39.55 108.5 54.1 93.75 55.05 89.85 56 85.9 57.35 82.6 58.65 79.3 59.6 72.25 60.55 65.15 62.2 55.15 63.85 45.15 63.85 31.6
M 46.75 22.35
Q 51.75 28.75 52 38.1
L 51.7 38.1 48.7 57.55
Q 47.65 63.9 46.15 67.15 44.75 70.1 39.95 76.55
L 26.2 95.4
Q 17.7 107.5 7.95 114.2 0.05 119.6 -5.2 119.6 -9.65 119.6 -13.15 115.6 -17.15 111.05 -17.15 103.75 -17.15 93.15 -11.55 86.75 -8.15 82.9 0.85 78 9.85 73.05 13.2 69.25 18.8 62.95 18.8 52.5 18.8 50.65 18.3 48.1 17.75 45.6 17.75 38.55 17.75 24.8 22.45 19.3 25.85 15.35 32.4 15.35 41.3 15.35 46.75 22.35 Z"/>
</g>

<g id="Graphics_Symbol_634_0_Layer0_0_FILL">
<path fill="#FFFFFF" stroke="none" d="
M -14.1 132.75
L -30.35 146.2 -32.3 151.65 -21.65 143.7
Q -15.45 138.6 -14.1 132.75 Z"/>

<path fill="#FFFFFF" fill-opacity="0.25098039215686274" stroke="none" d="
M -19.5 121.8
L -15.35 121 -17.9 126.05 -8.5 121
Q -8.45 120.5 -8.55 119.95 -8.7 118.9 -9.35 118.9
L -11.7 118.6 -14.05 118.25
Q -14.65 118.25 -17.15 120.05 -18.4 120.9 -19.5 121.8
M 3.65 106.1
Q 3.55 105.4 0.95 106.7
L -1.6 108.15
Q 0 106.05 0 105.05 0 104.55 -0.55 104.3 -1.15 104.05 -1.15 103.55 -1.15 102.95 -0.55 101.75
L 0 100.65 -6.4 104.45 -12.35 108.3 -5.55 98.9
Q -7 98.8 -6.95 97.3
L -6.6 95.85
Q -10.25 97.15 -14.35 101.35 -17.95 105 -18.9 107.4 -16.9 107.8 -14.05 106.15 -11.7 104.75 -10.8 103.4
L -15.45 111.05 -12.5 111.05 -14 113.3
Q -11.3 113.25 -7.7 110.65 -5 108.75 -3.5 106.9
L -9.4 114.55 -5.45 113.75
Q -4.8 113.75 -2.9 114.8
L -1.1 115.8 -2.6 113.5
Q 1.45 110.95 2.55 109.3
L 3.65 106.1
M 5.5 88.5
L 3.25 87.6 1.85 87.15
Q 0.6 87.15 -2.35 89.65
L 2.6 89.3 -2.5 94.4
Q -0.55 95.1 0.85 95.1 2 95.1 4.6 94.1
L 7.55 92.9 4.8 99.1 16.5 94.75 13.6 100.55
Q 15.2 100.5 17.75 98.85 20 97.35 20.45 96.45
L 16.75 97.75 19.45 92 7.8 96.25 10.95 90.95 1 93 5.5 88.5
M 29.5 71.05
Q 28.7 70.7 25.8 72.95
L 23 75.25 23.95 71.5 24.2 69.65 15.75 76.05 20.45 68.4
Q 17.6 68.5 14.5 70.3 11.6 72 10 74.3
L 10.55 74.55 11.3 74.65
Q 13.35 74.65 15.25 72.5
L 13.1 78.75 16.45 78.1 20.5 77.45
Q 21 77.45 21.6 77.95 22.2 78.4 22.7 78.4 23.7 78.4 26.8 74.05
L 25.55 79.55 26.15 79.75 27.5 79.95
Q 28.5 79.95 30.3 77
L 29.05 80.3 30.25 80.1
Q 31.55 79.05 32.3 77.55
L 32.85 75.9 32.5 72.95 28 76.55 29.5 71.05
M 25.2 48
L 25.05 46.4
Q 23.3 48.2 21.55 52.45
L 22.3 55.25
Q 23.2 58.2 24 59.5
L 26.9 55.75 28.25 60 33.3 52.8 34.05 59.9 41.25 53.3 42.5 60.5 43.9 51.4
Q 43.9 50.8 43.1 50.6
L 42.25 50.5 35.5 56.8 35.05 49.2
Q 33.2 49.1 31.4 51.7 29.9 53.85 29.6 55.8
L 29.45 46.45 25 54.3
Q 25.3 50.35 25.2 48
M 41.6 34.95
Q 43.7 33.15 43.75 31.55
L 44.2 39.85 49 37 48.5 36.55 47.5 36.3
Q 46.9 36.3 46.35 36.65
L 45.5 37.3
Q 46.45 34.85 46.45 33.6 46.45 31.35 44.25 29
L 39.5 34.15 38 28.55 32 35.8 33.9 26.3 32.4 26.25 25.5 36.7 28.35 24.85
Q 26.6 26.3 24.45 30.35 21.95 34.85 22.6 36.85
L 22.6 39.25 25 39.4
Q 26 39.4 29.35 36 29.8 37.5 30.75 38
L 32.4 38.3
Q 33.4 38.3 37.5 31.4 37.25 35.2 37.4 35.9 37.55 36.65 38.75 36.7 39.8 36.5 41.6 34.95 Z"/>
</g>

<g id="MovieClips_Symbol_585_11_Layer0_0_FILL">
<path fill="#FFFF00" stroke="none" d="
M -16.3 131.55
Q -11.2 128.15 -4.9 127.75
L 0.5 127.35
Q -11.45 123.45 -20.45 114.5
L -27.4 106.8
Q -25 120.55 -16.3 131.55
M 48 96
L 37.85 94.7
Q 16.7 89.95 -1.6 78.7 -9.2 74 -16.6 68.75
L -21.3 77.1
Q -13.05 90.05 0.45 97.55 15.85 106.15 32.25 112.5
L 48 96
M 1.1 50.6
L 0.3 52.6
Q 27.9 66.6 58.15 73.35
L 62 46 1.15 34.95
Q 3.95 42.8 1.1 50.6
M 8.8 6.1
Q 3.95 10.3 1.8 16.6 31.9 25.75 63.1 27 58.9 3.9 38 -1.2 21.65 -5.15 8.8 6.1 Z"/>
</g>
</defs>

<g transform="matrix( 1, 0, 0, 1, -33.5,-72.6) ">
<g transform="matrix( 1, 0, 0, 1, 0,0) ">
<g transform="matrix( 1, 0, 0, 1, 0,0) ">
<use xlink:href="#Graphics_Symbol_597_0_Layer0_0_FILL"/>
</g>
</g>

<g transform="matrix( 1, 0, 0, 1, 0,0) ">
<g transform="matrix( 1, 0, 0, 1, 0,0) ">
<use xlink:href="#Graphics_Symbol_634_0_Layer2_0_FILL"/>
</g>

<g transform="matrix( 1, 0, 0, 1, 0,0) ">
<use xlink:href="#Graphics_Symbol_634_0_Layer1_0_FILL"/>
</g>

<g transform="matrix( 1, 0, 0, 1, 0,0) ">
<use xlink:href="#Graphics_Symbol_634_0_Layer0_0_FILL"/>
</g>
</g>
</g>

<g transform="matrix( 1, 0, 0, 1, -32.9,-71.25) ">
<g transform="matrix( 1, 0, 0, 1, 0,0) ">
<use xlink:href="#MovieClips_Symbol_585_11_Layer0_0_FILL"/>
</g>
</g>

<g transform="matrix( 1, 0, 0, 1, -33.5,-72.6) ">
<g transform="matrix( 1, 0, 0, 1, 0,0) ">
<g transform="matrix( 1, 0, 0, 1, 0,0) ">
<use xlink:href="#Graphics_Symbol_597_0_Layer0_0_FILL"/>
</g>
</g>
</g>
</svg>
