
<svg xmlns="http://www.w3.org/2000/svg" version="1.1" xmlns:xlink="http://www.w3.org/1999/xlink" preserveAspectRatio="none" x="0px" y="0px" width="550px" height="400px" viewBox="0 0 550 400">
<defs>
<filter id="Filter_1" x="-20%" y="-20%" width="140%" height="140%" color-interpolation-filters="sRGB">
<feColorMatrix in="SourceGraphic" type="matrix" values="1 0 0 0 0 0 1 0 0 0 0 0 1 0 0 0 0 0 0.19 0" result="result1"/>
</filter>

<g id="Parts_Feet_footMC_48_Layer7_0_FILL">
<path fill="#FFFFFF" stroke="none" d="
M 59.7 18.75
Q 59.25 16.55 58.2 14.5 58.6 12.9 57.8 11.4 57.05 9.95 55.5 9.25
L 55.05 8.5
Q 54.7 7.85 54.05 8.2
L 53.85 8.4 53.7 8.65
Q 50.65 5.9 47 4.55 43.1 3.15 39.4 3.6 35.85 4.05 32.9 5.85 29.75 7.8 28.2 10.8
L 26.85 10.5
Q 22.6 9.5 18.45 11.15 14.2 12.95 12.55 17.25 11.05 21.1 12 27.4 12.8 33.2 15.55 35.5 17.15 36.8 19.6 37.2 21.1 37.4 24.05 37.35 25.7 37.35 29 37.35 32 37.35 33.95 37.15 39 36.55 40.55 32.8 40.7 32.65 40.75 32.45 44.95 33.4 47.85 33.35 51.75 33.25 54.7 31.5 57.85 29.65 59.2 25.95 60.4 22.6 59.7 18.75 Z"/>
</g>

<g id="Parts_Sets_Dog_dogFeet_0_Layer0_0_MEMBER_0_FILL">
<path fill="#000000" stroke="none" d="
M 68.15 13.75
L 67.8 14.2
Q 63.3 9.6 57.15 7.75 51 5.9 44.7 7.2 43.2 7.5 41.1 8.3 37.9 9.55 37.55 9.65 33.7 11.1 30.1 8.85 28.7 8.1 26.6 6.55 23.95 4.55 23.2 4.05 19.9 1.85 16.15 0.7 12.35 -0.45 8.8 0.3 4.8 1.05 2.45 3.9 0.15 6.7 0 10.9 -0.1 14.85 1.6 18.2 2.15 19.3 3.7 21.6 5.15 23.75 5.75 25 6.6 26.8 6.9 29.4 7.1 30.95 7.3 33.95 7.6 38.15 9.55 41.65 10.35 43.2 11.8 44.25
L 11.9 44.3 11.95 44.45
Q 12.8 45.1 14.3 45.55 15.15 45.8 16.8 46.15 19.15 46.75 22.05 47.25 26.85 48.1 32.15 48.5 38.3 48.85 42.75 48.85 48.1 48.95 52.45 48.6 54 48.5 55.35 47.65 56.65 46.85 57.45 45.45 58.65 45.6 59.85 45.6 61.15 45.7 63.75 45.7 67.4 45.7 70.85 44.65 72.3 44.3 73.35 43.2 74.4 42.1 74.75 40.65 74.95 39.65 74.95 38.45 75.4 38.55 76.05 37 76.55 36.05 76.7 34.75 77.15 31.9 76.75 28.85 76.3 25.5 75.75 23.15 75.45 21.7 75 20.25 74.7 19.05 74.35 18.3 74.15 17.25 73.5 16.2 72.6 14.65 70.75 13.9 70.05 13.55 69.05 13.55 68.5 13.55 68.15 13.75
M 73.95 21.75
L 74 21.75
Q 74.4 23.15 75.25 25.9 75.95 28.75 76.15 30.8 76.4 33.3 75.35 35.5
L 74.95 36.25
Q 75.2 32.65 74.65 29.05 74.35 27.15 74.1 26.3
L 74.15 26.3
Q 73.85 25.6 73.7 24.75 72.6 21.1 70.75 18.05 72.1 18.55 72.85 19.45 73.6 20.3 73.9 21.3
L 73.95 21.5 73.95 21.75
M 40.65 13.05
Q 46.6 10.6 53 11.35 59.35 12.05 64.6 15.75 70.35 19.9 72.9 26.65 74.15 30 74.15 33.35
L 74.1 35.1 73.8 35.05
Q 73.5 35.15 73.55 36.05 73.6 36.75 73.75 37.15
L 73.75 37.2 73.5 38.45 72.8 39.15
Q 70.7 40.6 68 40.85
L 62.1 41.5
Q 59.1 41.65 59.05 41.65
L 58.45 41.65
Q 58.7 38.4 58.15 35.25 57.45 29.95 56.45 27.15 54.85 22.7 51.65 20.6 47.7 18.2 43.15 18.35 36.85 18.5 31.7 21.65 31.35 21.85 31.35 23.2 31.4 24.6 31.75 24.6 33.4 24.55 36.15 23.95 39.3 23.3 40.55 23.15 44.35 22.65 48.4 23.75 55.3 26 56.85 34.8 57.4 37.65 57.4 37.8 57.65 39.6 57.2 40.75 56.85 41.45 56.5 41.85
L 56.1 42.1 55.9 42.45
Q 53.6 44.1 50.75 44 41.6 44.45 32.5 43.7
L 14.4 42.1 13.6 41.4 12.45 40.75
Q 11.1 39.65 10.35 38.5 8.55 35.95 8.25 32.7 7.5 25.95 7.45 25.65 6.75 21.8 5.1 19 3.2 16.25 1.7 13.35 1.4 12.4 1.2 12
L 1.1 11.9 1.15 11.8
Q 1.55 10.15 2.6 8.75 4.65 6.05 8.15 5.05 11.3 4.15 14.85 4.85 18.15 5.55 21.8 7.7 23.45 8.7 27.95 12 30.55 14.05 33.8 14.75 35.4 14.95 37.3 14.35 37.95 14.15 40.65 13.05 Z"/>
</g>

<g id="Parts_Sets_Dog_dogFeet_Assets_Layer_1__Compound_Path__0_Layer0_0_FILL">
<path fill="#000000" stroke="none" d="
M 69.3 13.95
Q 68.95 14.2 68.8 15.8 65.85 9.25 59.4 6.2 55.15 4.25 48.9 5 41.75 6.4 38.3 6.95 32.7 8.05 27.3 6.35 25.2 5.65 21.95 4 18.05 2 16.7 1.45 13.5 0.15 10.7 0 7.35 -0.15 4.85 1.5 2.95 2.75 1.8 4.75 0.7 6.75 0.7 9.05
L 0.4 9
Q 0 8.9 0 10.9 -0.05 12.9 0.4 13.2
L 1.6 14.15
Q 1.75 16.25 2.4 18.1 2.85 19.75 4 21.2 4.2 21.4 5.05 22.35 5.85 23.15 6.15 23.05 6.3 23.05 6.35 22.9
L 7.4 26.4 7.85 29.3 7.75 29.5
Q 7.2 31.85 7.65 34.05 7.8 35.45 8.45 36.5
L 8.95 37.05
Q 9.15 37.3 9.6 37.5 9.85 37.55 10.25 37.45
L 10.8 37.5
Q 13.25 41.15 17.55 43.45 21.45 45.55 26.25 46.2 33.2 46.8 40.1 46.2 44.2 45.95 46.3 45.55 49.75 44.85 52.1 43.3 54.3 41.85 55.55 39.45 58.3 40.35 60.7 40.75 62.8 41 64.85 40.6 64.95 41 65.2 41.35 66.1 42.25 67.35 42 68.55 41.7 69.45 40.85 71.15 39.4 71.7 37.2 71.95 36.95 73.2 36.1 74.2 35.35 74.5 34.85 76 32.15 75.9 28.2 75.8 25.5 74.9 21.3 74.3 18.7 72.85 16.4 72.1 15.25 71.35 14.55 70.1 13.45 69.3 13.95
M 61.6 13.6
Q 65.6 16.1 67.8 20.25 70.4 24.95 70.95 30.45
L 71 30.7
Q 68 33.55 64.05 34.3 63.55 34.45 59.9 34.95
L 59.4 35
Q 59.4 34.9 59.25 32.35 58.95 28.95 57.95 26.05 56 20.65 51.6 17.25 46.75 13.7 40.7 13.55 35.65 13.35 29.7 17.1 28.2 17.5 27.1 18.65 26.7 19.1 26.75 20.7 26.8 22.3 27.3 22.6 28.75 23.5 30.35 23.2 31.5 23.05 33.6 22.95 36.45 22.8 39.7 23.05 45.25 23.35 50.15 26 52.3 27.25 53.95 29.4 54.7 30.4 55.1 31.35 55.3 31.8 55.6 32.85
L 55.55 33.05
Q 55.55 33.15 55.25 34
L 54.9 34.7 54.65 34.6
Q 53.35 35.2 52.05 36.15 50.35 37.05 48.65 37.4 44.9 38.25 40.95 37.85 33.6 37.65 25.6 36.05 18.7 34.6 13.45 30.15 9.3 26.2 7.8 20.95 7.45 18.7 6.75 16.4 6.15 14.6 5.15 12.9
L 4.2 11.05 4.3 10.75
Q 4.5 10.3 4.9 9.8
L 6.35 9.1
Q 8.7 8 11.35 7.55 13.8 7.2 16.35 7.8 18.75 8.4 20.7 10.05 20.95 10.2 21.15 9.5 23.55 10.8 24.8 11.35 29.15 13.45 34.15 13.45 37.15 13.4 43.5 12.1 49.55 10.9 52.85 10.95 57.55 11.1 61.6 13.6
M 72.05 23.3
Q 71.75 22.7 71.3 22.25
L 71.05 21.95 70.85 21.25
Q 72.8 23.2 73.75 25.85
L 73.3 27.2 73.05 26
Q 72.65 24.4 72.05 23.3
M 57.65 33.2
Q 57.85 34 57.85 34.35
L 57.85 35.2 56.8 35.3 56.9 33.6
Q 56.9 31.95 56.7 30.55 57.4 32 57.65 33.2 Z"/>
</g>

<g id="MovieClips_Symbol_228_48_Layer1_0_FILL">
<path fill="#7C7C7C" stroke="none" d="
M 51.05 8.35
L 50.9 8.65 50.8 8.65
Q 48.05 4.1 43.4 1.5 38.85 -1.1 33.7 -1.1 29.65 -1.15 23.85 0.6 18.25 2.3 12.4 0.3 9.85 -0.6 1.1 -5.3 -3.1 -7.55 -7.05 -6.6 -11 -5.6 -13.45 -1.75
L -14.15 -1.7
Q -16.15 -1.55 -16.1 2.15 -16.05 5.55 -14.95 6.95 -11.2 11.65 -10.75 12.3 -10.35 15.15 -9.8 17.45 -9.95 18.75 -9.2 20.1 -9.5 23 -8.45 25.55 -7.45 28.15 -5.85 30.15
L -4.15 33.05
Q -2.85 35.4 -1.85 33.8 4.35 37.8 15.85 37.45 17.95 37.4 34.25 35.55 40.2 34.8 47.6 33.65 51.5 33.05 52.8 32.6 55.6 31.65 57.05 29.55
L 57.55 28.7 57.75 28.8 57.9 28.8 58.2 28.65
Q 58.5 28.45 58.6 28.3
L 58.8 27.95
Q 59 27.65 59.2 26.95 59.55 25.85 59.7 25.25 60 24.2 59.9 23.5 59.95 23 59.7 22.15 59.4 21.2 59.4 20.8
L 59.2 19.2
Q 59.15 18.95 59.3 18.55 59.45 18.2 59.3 17.95
L 59 17.05
Q 58.85 16.2 58.4 15.15 57.85 13.95 57.6 13.3
L 57.35 12.6 57.35 12.4
Q 57.45 11.25 57.25 10.45 57.1 9.95 56.75 9.6 56.6 9.35 56.45 10.4
L 56.4 10.4 56 9.95 55.85 9.65
Q 55.2 8.4 54.35 8.25 53.6 8.1 52.85 9
L 52.75 8.85 52.55 8.7 52.4 8.65 52 8.4 51.4 8.2
Q 51.2 8.2 51.1 8.3
L 51.05 8.35 Z"/>
</g>

<g id="MovieClips_Symbol_264_48_Layer1_0_FILL">
<path fill="#FFFFFF" stroke="none" d="
M 59.65 18.65
Q 59.2 16.45 58.15 14.4 58.55 12.8 57.75 11.3 57 9.85 55.45 9.15
L 55 8.4
Q 54.65 7.75 54 8.1
L 53.8 8.3 53.65 8.55
Q 50.6 5.8 46.95 4.45 43.05 3.05 39.35 3.5 35.8 3.95 32.85 5.75 29.7 7.7 28.15 10.7
L 26.8 10.4
Q 22.55 9.4 18.4 11.05 14.15 12.85 12.5 17.15 11 21 11.95 27.3 12.75 33.1 15.5 35.4 17.1 36.7 19.55 37.1 21.05 37.3 24 37.25 25.65 37.25 28.95 37.25 31.95 37.25 33.9 37.05 38.95 36.45 40.5 32.7 40.65 32.6 40.7 32.4 44.85 33.35 47.8 33.25 51.7 33.2 54.65 31.4 57.8 29.55 59.15 25.85 60.35 22.5 59.65 18.65 Z"/>
</g>
</defs>

<g transform="matrix( 1, 0, 0, 1, -28.4,-10.7) ">
<g transform="matrix( 1, 0, 0, 1, 0,0) ">
<use xlink:href="#Parts_Feet_footMC_48_Layer7_0_FILL"/>
</g>

<g transform="matrix( 1, 0, 0, 1, -16.65,-9.05) ">
<g transform="matrix( 1, 0, 0, 1, 0,0) ">
<use xlink:href="#Parts_Sets_Dog_dogFeet_0_Layer0_0_MEMBER_0_FILL"/>
</g>

<g transform="matrix( 1, 0, 0, 1, 0.65,2.25) ">
<g transform="matrix( 1, 0, 0, 1, 0,0) ">
<use filter="url(#Filter_1)" xlink:href="#Parts_Sets_Dog_dogFeet_Assets_Layer_1__Compound_Path__0_Layer0_0_FILL"/>
</g>
</g>
</g>
</g>

<g transform="matrix( 1, 0, 0, 1, -28.15,-10.5) ">
<g transform="matrix( 1, 0, 0, 1, 0,0) ">
<use xlink:href="#MovieClips_Symbol_228_48_Layer1_0_FILL"/>
</g>
</g>

<g transform="matrix( 1, 0, 0, 1, -28.4,-10.7) ">
<g transform="matrix( 1, 0, 0, 1, 0,0) ">
<use xlink:href="#MovieClips_Symbol_264_48_Layer1_0_FILL"/>
</g>
</g>
</svg>
