
<svg xmlns="http://www.w3.org/2000/svg" version="1.1" xmlns:xlink="http://www.w3.org/1999/xlink" preserveAspectRatio="none" x="0px" y="0px" width="550px" height="400px" viewBox="0 0 550 400">
<defs>
<g id="MovieClips_Symbol_228_48_Layer1_0_FILL">
<path fill="#7C7C7C" stroke="none" d="
M 51.05 8.35
L 50.9 8.65 50.8 8.65
Q 48.05 4.1 43.4 1.5 38.85 -1.1 33.7 -1.1 29.65 -1.15 23.85 0.6 18.25 2.3 12.4 0.3 9.85 -0.6 1.1 -5.3 -3.1 -7.55 -7.05 -6.6 -11 -5.6 -13.45 -1.75
L -14.15 -1.7
Q -16.15 -1.55 -16.1 2.15 -16.05 5.55 -14.95 6.95 -11.2 11.65 -10.75 12.3 -10.35 15.15 -9.8 17.45 -9.95 18.75 -9.2 20.1 -9.5 23 -8.45 25.55 -7.45 28.15 -5.85 30.15
L -4.15 33.05
Q -2.85 35.4 -1.85 33.8 4.35 37.8 15.85 37.45 17.95 37.4 34.25 35.55 40.2 34.8 47.6 33.65 51.5 33.05 52.8 32.6 55.6 31.65 57.05 29.55
L 57.55 28.7 57.75 28.8 57.9 28.8 58.2 28.65
Q 58.5 28.45 58.6 28.3
L 58.8 27.95
Q 59 27.65 59.2 26.95 59.55 25.85 59.7 25.25 60 24.2 59.9 23.5 59.95 23 59.7 22.15 59.4 21.2 59.4 20.8
L 59.2 19.2
Q 59.15 18.95 59.3 18.55 59.45 18.2 59.3 17.95
L 59 17.05
Q 58.85 16.2 58.4 15.15 57.85 13.95 57.6 13.3
L 57.35 12.6 57.35 12.4
Q 57.45 11.25 57.25 10.45 57.1 9.95 56.75 9.6 56.6 9.35 56.45 10.4
L 56.4 10.4 56 9.95 55.85 9.65
Q 55.2 8.4 54.35 8.25 53.6 8.1 52.85 9
L 52.75 8.85 52.55 8.7 52.4 8.65 52 8.4 51.4 8.2
Q 51.2 8.2 51.1 8.3
L 51.05 8.35 Z"/>
</g>
</defs>

<g transform="matrix( 1, 0, 0, 1, -28.15,-10.5) ">
<g transform="matrix( 1, 0, 0, 1, 0,0) ">
<use xlink:href="#MovieClips_Symbol_228_48_Layer1_0_FILL"/>
</g>
</g>
</svg>
