
<svg xmlns="http://www.w3.org/2000/svg" version="1.1" xmlns:xlink="http://www.w3.org/1999/xlink" preserveAspectRatio="none" x="0px" y="0px" width="550px" height="400px" viewBox="0 0 550 400">
<defs>
<g id="MovieClips_Symbol_264_48_Layer1_0_FILL">
<path fill="#FFFFFF" stroke="none" d="
M 59.65 18.65
Q 59.2 16.45 58.15 14.4 58.55 12.8 57.75 11.3 57 9.85 55.45 9.15
L 55 8.4
Q 54.65 7.75 54 8.1
L 53.8 8.3 53.65 8.55
Q 50.6 5.8 46.95 4.45 43.05 3.05 39.35 3.5 35.8 3.95 32.85 5.75 29.7 7.7 28.15 10.7
L 26.8 10.4
Q 22.55 9.4 18.4 11.05 14.15 12.85 12.5 17.15 11 21 11.95 27.3 12.75 33.1 15.5 35.4 17.1 36.7 19.55 37.1 21.05 37.3 24 37.25 25.65 37.25 28.95 37.25 31.95 37.25 33.9 37.05 38.95 36.45 40.5 32.7 40.65 32.6 40.7 32.4 44.85 33.35 47.8 33.25 51.7 33.2 54.65 31.4 57.8 29.55 59.15 25.85 60.35 22.5 59.65 18.65 Z"/>
</g>
</defs>

<g transform="matrix( 1, 0, 0, 1, -28.4,-10.7) ">
<g transform="matrix( 1, 0, 0, 1, 0,0) ">
<use xlink:href="#MovieClips_Symbol_264_48_Layer1_0_FILL"/>
</g>
</g>
</svg>
