
<svg xmlns="http://www.w3.org/2000/svg" version="1.1" xmlns:xlink="http://www.w3.org/1999/xlink" preserveAspectRatio="none" x="0px" y="0px" width="550px" height="400px" viewBox="0 0 550 400">
<defs>
<g id="Parts_Heads_headColorMC2_4_Layer3_0_FILL">
<path fill="#B10101" stroke="none" d="
M 119.15 111.35
L 118.75 111.25 116.8 111.6 104.9 114.7 103.75 115.5 108.2 116.8 111.8 116.7
Q 116.3 116.45 118.15 114.65 119.25 113.55 119.25 112.05
L 119.15 111.35
M 123.35 105.2
Q 122.7 104.55 121.8 104.55
L 120.7 104.5 120.35 104.2
Q 116.1 104.2 113.1 106.4 110.1 108.55 110.1 111.65 110.5 111.85 112.5 111
L 114.25 110.2
Q 115.85 109.45 116.5 109.25
L 122.75 108.2
Q 123.95 107.55 123.95 106.65 123.95 105.8 123.35 105.2 Z"/>

<path fill="#000000" stroke="none" d="
M 72.75 68.55
L 73.75 74
Q 73.75 74.9 72.5 77.2
L 72.2 77.8 69.75 77 69.75 75.85
Q 69.75 74 68.65 72.25 67.25 70.2 65.25 70.55 64.85 72.4 65.95 73.45 67.25 74.65 67.25 75.6
L 67.15 76.75 67 76.75
Q 65.55 76.75 64.25 78.8 64.05 77.25 61.85 76.25 59.35 75.05 58.25 77.25
L 60.4 79.15
Q 62.45 80.75 63 80.75
L 63.2 80.75
Q 62.25 82.95 61.65 86.2 60.6 84.6 58.75 84.25 56.25 83.8 56.25 85.35
L 56.3 86.05
Q 58.6 88.35 59.15 88.5
L 61 88.25 61.3 88.25 61 90.25 62 90.75
Q 63.5 85.8 64.5 83.5 66.25 79.5 70.25 79.5
L 71.35 80.7 71.35 80.75 76.5 85.8 77.5 86.5 77.2 84.3 76.55 84.4
Q 75.6 84.15 74.65 81.15
L 74.5 80.6
Q 75.3 79.8 75.75 78.25 76.25 76.5 76.25 74.25
L 76 70.45
Q 75.35 68 72.75 68.55 Z"/>
</g>
</defs>

<g transform="matrix( 1, 0, 0, 1, -62.75,-76.85) ">
<g transform="matrix( 1, 0, 0, 1, 0,0) ">
<use xlink:href="#Parts_Heads_headColorMC2_4_Layer3_0_FILL"/>
</g>
</g>
</svg>
