
<svg xmlns="http://www.w3.org/2000/svg" version="1.1" xmlns:xlink="http://www.w3.org/1999/xlink" preserveAspectRatio="none" x="0px" y="0px" width="550px" height="400px" viewBox="0 0 550 400">
<defs>
<g id="Parts_Bodies_bodyMC_23_Layer14_0_FILL">
<path fill="#000000" stroke="none" d="
M 17.4 36.25
L 17.2 36.25 17.2 36.55 17.4 36.55 17.4 36.25 Z"/>

<path fill="#FFFFFF" fill-opacity="0.25098039215686274" stroke="none" d="
M 2.15 11.75
L 13.9 20.05 14.75 20.2 12.75 18.35
Q 12.35 18 11.75 18
L 2.15 11.75
M -5.45 46.8
L -5.1 46.3 -7.7 48.4 -7.65 48.8 -2.9 46.75
Q 1.1 44.85 2.45 43.9
L 1.35 44.3
Q 3.1 43.05 4.1 43.05
L 7.35 40.85
Q 2.6 43.3 -4.45 46.35
L -5.45 46.8
M -3 -5.75
L -4.85 -7 -1.05 -3.2 -3 -5.75 Z"/>
</g>

<g id="Graphics_Symbol_648_0_Layer6_0_FILL">
<path fill="#000000" stroke="none" d="
M 19.45 71.2
L 18.6 71.35
Q 16.45 75.6 16 77 12.1 88.1 12.1 118.65 12.1 120.8 10.65 126 12.65 119.75 12.6 118.55 13.75 119.3 16.75 120.7 19.1 121.75 19.1 122.1
L 16.9 136.4
Q 14.35 151.45 12.85 156.2 13.8 149.85 12 147.1 10.1 144.15 4.2 143.75 4.7 143.05 6.65 137.6 4.5 142.8 2.85 143.55
L 3.05 144.35 3.3 144.95 9.55 145.2 10.75 152.45 11.95 158.95
Q 12.45 158.65 12.75 157.6
L 13.05 158.15
Q 13.3 158.5 13.9 158.5 15.4 158.5 18 155.35 20.65 152.15 23.6 152.15 27.55 152.15 29.3 156.3
L 30.6 159
Q 31.4 160.2 32.75 160 33.1 160.45 33.1 159.45 33.1 158.95 32.55 158.5 32 158.05 32 157.55 32 154.2 38.5 149.9 44.05 146.25 45.35 146.25 45.85 146.25 46.55 146.9
L 50.6 149.85
Q 49.85 145.5 58.25 143.45 62.55 142.4 67.75 141.7
L 67.9 141.4
Q 62.15 138.25 58 127.25
L 55.4 119.9
Q 54.15 116.6 53.2 116.25
L 54.6 114.85 53 115.6 48 96.35 44.15 81.9
Q 44.05 79.15 44.55 75.95 45.5 69.55 48.5 66.85
L 45.55 67.05 45.8 65.6
Q 44.85 67.75 44.25 71 43.9 72.65 42.8 72.65
L 33.85 71.95
Q 40.4 73.7 44.1 74
L 44.15 74.1 44.4 74.3
Q 44.05 75 43.9 78.1 38.65 78.65 31.55 77.1 22.9 75.15 19.45 71.2
M 18.4 72.3
L 18.7 71.75 21.65 73.8
Q 24.95 75.85 27.95 76.9
L 34.7 78.05 43.65 79.75 43.55 81.9 46.15 93.95
Q 49.35 107.45 52.5 115.55
L 51.75 115.4 52.35 115.95
Q 49.2 118.85 41.1 121.85 33.55 126.75 33.05 126.75 12.75 119.55 12.75 117.7 12.75 112.95 14.8 98.45
L 18.4 72.3
M 44.2 72.6
L 44.25 72.7 44.15 72.6 44.2 72.6
M 43.7 78.7
L 43.65 79.15 42.9 78.75 43.7 78.7
M 42.35 121.95
L 48.6 118.95 52.9 116.55 52.95 116.6
Q 55.1 127.75 57.6 132.85 59.9 137.55 64.8 141.2 62.6 141.2 58.9 142.3 53.1 143.95 50.9 147.25 47.2 141.25 44.85 132.3 43.05 123.75 42.35 121.95
M 48.1 145.95
Q 48.1 145.5 46.2 145.5 43.25 145.5 38.6 149.2 35.95 151.3 30.9 155.95
L 31.95 143.7 32.5 135.15
Q 32.5 131.9 31.85 130.5 30.6 127.85 30.25 126.6
L 34.25 127.9 34.3 127.5 34.25 126.85 34.05 126.75
Q 37.55 124.9 37.85 124.4 38.1 123.95 41.85 122.15
L 45.15 134
Q 48.2 144.95 48.9 146.45
L 48.1 145.95
M 20.15 129.15
Q 19.65 128.3 19.65 124.05
L 19.85 122.45 24.8 124.65 27.25 125.2
Q 29.65 125.85 29.65 126.45 29.65 127.55 30.45 130.3 31.2 133 31.2 134.2
L 30.8 142.15 29.85 154.55
Q 29.45 153.25 27.3 152.15 25.05 151 22.35 151
L 16 153 15.6 153.15
Q 19.95 131.35 20.15 129.15
M 34.8 9.15
Q 31.7 7.4 30.9 7.4 25.2 7.4 21.8 11.4 20.1 13.45 19.55 15.55 19.55 16.05 20.05 15.95 20.5 15.85 20.5 16.35 20.5 17.05 18.95 20.25 17.35 23.5 17.35 25.35
L 18.35 35.5 19.3 44.9
Q 19.3 48.25 20 54.35
L 20.7 60.65
Q 20.7 63.85 20.3 64.65
L 19.3 65.2 19.25 65.55
Q 19.15 65.85 19.75 65.85
L 19.85 65.85 19.85 65.9 19.65 68.2 20.05 67.15
Q 20.85 67.8 23.25 68.7 22.05 67.75 22.05 66.6
L 22.55 63 23.05 59.4
Q 23.05 53.35 21 43.25 18.95 33.15 18.95 31.65 18.95 29.65 20.8 23.6 22.6 17.55 22.6 14.85
L 22.55 14.2 22.3 14.1 20.55 16.25 20.95 14.65
Q 22.3 11.9 25.6 10.25 28.5 8.85 31.45 8.85
L 34.8 9.15
M 41.25 18.5
L 41.35 17.2 41.45 16.95
Q 42.35 18.95 46.1 24.1 50.35 29.85 52.3 31
L 47.95 37.2
Q 45.4 40.45 45.4 40.65 45.4 41.15 45.9 42.05
L 46.4 43.45 46.6 46.1 46.75 50.2 46.4 60.85 47.45 48.6 47.85 43.95
Q 47.85 43.25 47.1 43.4 46.65 43.45 47.5 40.6
L 46.3 40.25 50 35.6
Q 53.15 31.4 53.8 30.9 50.35 26.05 45.35 21.6 42.7 19.25 42.7 16.25 42.7 14.4 39.15 11.85
L 39.45 12.55 40.05 15.75
Q 40.35 17.6 41.25 18.5 Z"/>

<path fill="#8CCB2C" stroke="none" d="
M 43.65 79.15
L 43.7 78.7 42.9 78.75 43.65 79.15
M 44.25 72.7
L 44.2 72.6 44.15 72.6 44.25 72.7 Z"/>

<path fill="#FFFFFF" stroke="none" d="
M 33.85 71.95
L 30.45 71.35
Q 25.2 70.25 23.25 68.7 20.85 67.8 20.05 67.15
L 19.65 68.2 18.85 70
Q 18.45 71.05 18.6 71.35
L 19.45 71.2
Q 22.9 75.15 31.55 77.1 38.65 78.65 43.9 78.1 44.05 75 44.4 74.3
L 44.15 74.1 44.1 74
Q 40.4 73.7 33.85 71.95 Z"/>
</g>

<g id="Graphics_Symbol_648_0_Layer5_0_FILL">
<path fill="#FFFFFF" fill-opacity="0.25098039215686274" stroke="none" d="
M 8.75 36.45
L 8.9 36.4 6 47.15
Q 4.5 51.55 1.95 55.5 -1.95 61.45 -23.15 85.1
L -24.1 85.55 -16.2 75.45
Q -7.25 63.6 -0.25 52.6 2.45 48.4 3.75 41.7 4 40.3 4.8 39.25
L -4 45.45 4.1 40
Q 3.35 43.7 2.6 45.85
L 2 47.45
Q 2 48.25 -10.8 66 -23.7 83.95 -26.85 87.4 -27.6 84.7 -28.9 83.75 -30.3 82.8 -33.85 82.8 -36.75 82.8 -39.1 83.6 -43.35 85.05 -47.15 85.9
L -30.35 73.45 -36.35 77.65 -55.2 90.75
Q -53.8 89.25 -53.1 87.1
L -52.7 85.2
Q -52.7 82.45 -55.3 82.05 -56.2 81.9 -67.05 82.05 -56.7 77.75 -47.7 72.95 -40.15 68.9 -30.2 62.7 -34.55 65.2 -45.1 70.5 -58.95 77.5 -64.65 80.05 -70.75 82.65 -70.1 81.65
L -69.1 79.7
Q -68.4 77.6 -70.75 82.65
L -72.8 83.8
Q -59.25 83.55 -57.8 83.65 -54.25 83.85 -54.25 85.75 -54.25 86.6 -54.95 87.9
L -57.25 91.65 -58.05 92.7
Q -52.5 89.7 -45.75 87.3 -38.35 84.7 -34.6 84.7 -32.85 84.7 -31.95 85.95 -30.95 87.4 -30.9 90.85 -26.05 91.45 -18.9 85.65 -12.35 80.35 -5.6 71.3 0.95 62.5 5.3 53.5 9.85 44 10.15 37.9
L 11.5 42.95
Q 13.35 42 14.45 39.6
L 15.15 37.4
Q 15.15 34 9.55 32.2 3.95 30.4 -6.75 30.4 -26.1 30.4 -41.35 34.35 -50.45 36.7 -59.9 41.2 -75.15 48.5 -86.5 54.85 -102 63.55 -103.45 66.95
L -103.35 67.25
Q -101.05 66.8 -94 64.4 -88.45 62.5 -84.45 62.5 -80.25 62.5 -78.65 63.25 -78.1 63.5 -76.5 65.1 -76.75 67.9 -80.2 71
L -84.8 74.5
Q -78.15 75.9 -76.5 76.6 -71.9 78.55 -70.75 82.65 -68.45 75.75 -68.85 74.6 -69.75 72.1 -71.7 71.25 -68.4 70.2 -36.65 56.75 -3.8 42.8 5.9 38 6.6 37.4 7.55 36.95
L 3.1 38.35 4.2 37.25 4.5 36.5 1.95 38.1 -4.25 39.05 -1.5 39 -0.65 39.15
Q -30.3 53.95 -32.75 54.95 -48.6 60.65 -80.15 72.35
L -76.45 69.65
Q -74.75 68 -74.75 64.65 -74.75 62.75 -77.5 62.5 -80 62.3 -94 62.15 -78.15 56.1 -53.65 49.25 -28 42.1 -11.8 39.45 -23.95 38.9 -57.25 49 -77.45 55.15 -95.95 62
L -97.2 62.35
Q -72.7 47.35 -60.3 41.75 -39.75 32.55 -14.15 32.55 -6.7 32.55 -0.75 33.7 2.7 34.4 8.9 36.35
L 8.75 36.45 Z"/>
</g>

<g id="Graphics_Symbol_648_0_Layer4_0_FILL">
<path fill="#FFFFFF" fill-opacity="0.25098039215686274" stroke="none" d="
M 9 23.75
Q -45.75 40.65 -58.5 44.2 -41.65 45.4 9 23.75
M -70.15 -8.35
L -61.25 -5.7 -38 2.65
Q -55.55 -4.85 -58 -5.65
L -70.15 -8.35
M -72.95 -60.65
L -77.2 -60.2
Q -76.3 -59.2 -74.85 -56.1
L -73.6 -53.05
Q -73.6 -51.95 -74.45 -51.3 -72.35 -52.1 -72.35 -53.25 -72.35 -54.75 -73.4 -56.35 -74.45 -57.85 -74.4 -59
L -59.8 -45.75
Q -50.65 -37.7 -43.55 -33.6 -32.3 -27.15 -21.2 -17.05 -39.2 -34.3 -57.45 -48.9 -67 -56.55 -72.95 -60.65
M -83.1 -48.8
L -82.6 -48.5 -81.65 -48.35
Q -81 -48.35 -81.1 -47.3
L -81.1 -47.1 -80.4 -47.35
Q -78.65 -46.45 -77.45 -45 -75.45 -42.55 -70.9 -34.7
L -70.6 -35.15 -70.3 -36.1 -70.15 -35.8 -70.1 -35.35
Q -70.1 -34.1 -72.8 -32.85 -75.8 -31.45 -79.6 -31.4 -75.45 -29.2 -74.15 -28.15 -72.15 -26.5 -72.15 -22.4 -72.15 -18.35 -75.2 -16.2
L -85.4 -10.95
Q -77.1 -8.05 -75.3 -6.75 -73 -5.1 -73 1.45 -73 2 -73.8 4.35 -74.65 6.7 -74.65 8.6
L -74.35 11.55 -72.2 11.4 -70.35 11.8
Q -71.45 10.9 -73.9 9.5 -72.45 7.05 -72.05 5.85 -71.75 4.8 -71.75 2.6 -71.75 -3.1 -72.85 -5.3 -74.6 -8.8 -80.6 -10.55 -76.9 -11.5 -73.8 -15.4 -70.9 -19 -70.9 -21.8 -70.9 -24.65 -71.5 -26.6 -72.05 -28.2 -72.9 -28.9 -64.35 -24.6 -36 -7.1 -3 13.3 7.9 22
L -17.95 11.3 2 20.05 -44.95 11.95
Q -66.7 8.45 -71.35 8.85 -58.65 10.05 -32 14.55 -3.75 19.25 7.65 22.35 -12.75 21.15 -42.15 25.05 -63.5 27.85 -68.75 29.5
L -68.7 29.75 -68 29.8
Q -53.9 28.7 -31.8 25.55
L -12 22.65 9.3 22.9
Q 9.2 24.9 10.2 28.95 11.25 33.25 11.25 37.65 11.25 47.1 5.25 50.95 -3 56.25 -26.55 56.25
L -50.3 55.7
Q -40.5 53.55 -23.15 46.9 -0.3 38.1 9.75 30 5.1 31.6 -2.05 35.45
L -15.35 42.75
Q -33.7 52.3 -52.1 55
L -51.65 54.3 -51.35 53.6
Q -51.2 53.25 -51.2 52.6 -51.2 48.8 -53.7 47.5 -55.3 46.7 -60.05 45.25
L -59.45 42.8 -59.15 40.3
Q -59.15 35.05 -61.6 33.1 -63.75 31.35 -70.7 30.35 -68.2 27.3 -67.6 26.2 -66.2 23.55 -66.2 19.7 -66.2 15.6 -68.6 13.5 -67.4 15.75 -67.4 17.3 -67.4 19.35 -69.75 24.3 -72.05 29.15 -73.65 30.85
L -73.45 31.8 -72.75 31.2 -71.85 31.05
Q -66.8 31.05 -63.65 33.45 -60.4 35.9 -60.4 39.95 -60.4 41.9 -61 43.4 -61.65 45.1 -61.75 46.65
L -61.5 46.7 -61.45 46.55 -61.4 46.1 -60.6 45.95
Q -56.8 45.95 -54.6 47.65 -52.45 49.3 -52.45 52 -52.45 54.75 -55.6 56.65
L -56.8 56.85 -60.3 59.15 -59.5 59.55 -58.55 59.65 -56.3 58.05
Q -54 56.45 -53 56.45
L -35.95 57.25
Q -5.25 57.25 3.15 53.9 8.35 51.85 10.5 47.65 12.5 43.8 12.5 36.55 12.5 31.25 12.2 29.8
L 11.2 26.65 11.5 26.3 11.7 26.2 13 26.4
Q 13.3 22.55 5.65 12.65 -1.05 3.95 -14.95 -10.7 -6.75 0.7 -2.4 7.65
L 0.4 12.45 -19.5 -3.15 3.45 16.55
Q -44.9 -17.25 -74.9 -30.55 -72.8 -29.95 -70.7 -31.95 -68.75 -33.7 -68.75 -35.2 -68.75 -37.4 -71.2 -40.2
L -75.4 -44.75
Q -64.675 -37.6625 -50.9 -27.6
L -78.3 -48.75 -75.2 -50.85 -79.75 -49.4 -80.3 -49.7
Q -81.15 -49.85 -83.1 -48.8 Z"/>
</g>

<g id="Graphics_Symbol_648_0_Layer3_0_FILL">
<path fill="#FFFFFF" fill-opacity="0.25098039215686274" stroke="none" d="
M -18 71.6
L -18.45 71.4 -18.5 71.5 -18 71.6
M 7.15 21.25
Q 7.15 19.95 0.6 19.55 -5.4 19.2 -23.9 19.2 -30.55 19.2 -39.55 20.65 -47.4 21.95 -50.4 23.1
L -50.15 23.85 -49.9 23.95
Q -47.9 23.75 -44.9 24.8 -41.65 25.95 -40.75 27.5
L -45.95 27.65 -45.5 28.1
Q -41.9 30.1 -37.7 31.1 -35.65 31.6 -35.65 33.15 -35.65 35.2 -39.1 36.15
L -43.65 37.35 -33.8 39.65
Q -27.6 41.05 -27.15 41.65 -30.9 48.25 -37.35 50.75
L -25.2 52.65
Q -22.95 53.05 -22.95 55.3
L -23.05 56 -23.15 56.05
Q -23.5 56.85 -24.3 57.45 -25.05 57.95 -25.55 57.95
L -25.9 57.25
Q -26.35 56.9 -27.65 58.8
L -27.2 59.25 -27.1 59.5 -25.35 59.95 -24.1 59.8 -25.85 59.2
Q -20.15 60.05 -9.7 51.7 -2.95 46.35 1.15 41.6
L 13.2 28.05
Q 8 45.1 0.05 55.65 -5.1 62.4 -13.4 68.5 -13.1 64.55 -13.9 62.95 -14.85 60.9 -18.05 60.7 -15.4 62 -14.3 64.2 -13.7 65.3 -13.7 66.25 -13.7 67.85 -15.15 69.45 -16.5 70.9 -17.8 71.3
L -17.7 71.55
Q -12 70.3 -9.75 72.7 -8.15 74.45 -8.15 78.8 -8.15 79.8 -8.85 80.2 -7.6 80.7 -7.8 82.45
L 3.45 75.8 -7.15 80.15
Q -6.6 76.45 -8 73.7 -9.55 70.75 -12.65 70.75
L -15.15 70.9
Q -6.55 66.4 2.95 52.4 12.5 38.35 14.65 26.95 16.05 29.2 17.3 33.95 18.45 38.15 18.45 39.75 18.45 47.3 12.8 58.4
L 8.9 65.65
Q 7.15 68.9 7.15 69.8
L 7.3 71 7.4 71.75
Q 7.95 70.15 10.1 66.6
L 14.2 59.7
Q 19.55 49.8 19.55 41.05 19.55 30.7 15.05 26.7
L 16.15 26.55
Q 16.35 26.5 16.35 25.9
L 16.2 25.3 16.15 25.3 13.45 25.15 9.5 23.2
Q -9.45 23.7 -25.95 25.85
L -40.5 27.95
Q -39.3 26.05 -40.4 24.8 -41.4 23.7 -43.55 23.7
L -48.55 23.8
Q -45.7 22.55 -41.5 21.45 -33.3 19.25 -22.35 19.25 -11.8 19.25 -2.2 20.7 4.45 21.7 9.4 23.15
L 6.4 21.4
Q 6.4 20.9 6.8 21.35 7.15 21.75 7.15 21.25
M 12.95 27.2
L 12.5 28.1
Q 6.55 36.5 -5.15 46.85 -18.15 58.3 -22.7 57.3 -21.3 53.3 -24.95 51.85 -27.7 50.75 -35 50.8 -33.3 49.55 -32.3 49.55 -30.7 49.55 -28.25 46.2 -26.1 43.3 -26.1 42.7 -26.1 39.85 -33 38.45
L -39.25 37.6
Q -29.85 37 -17.1 34.2
L 12.95 27.2
M 2.8 24.05
Q 8.4 24.05 13.8 25.85
L -3.65 30.7
Q -23.1 35.6 -37.85 36.9 -36.6 36.55 -35.85 35.3 -35.05 34.05 -35.05 32.7 -35.05 31 -36.95 30.45
L -43.5 28.55 -9.95 24.75 2.8 24.05 Z"/>
</g>

<g id="Graphics_Symbol_648_0_Layer2_0_FILL">
<path fill="#000000" stroke="none" d="
M 17.2 36.25
L 17.2 36.55 17.4 36.55 17.4 36.25 17.2 36.25 Z"/>

<path fill="#FFFFFF" fill-opacity="0.25098039215686274" stroke="none" d="
M -5.1 46.3
L -7.7 48.4 -7.65 48.8 -2.9 46.75
Q 1.1 44.85 2.45 43.9
L 1.35 44.3
Q 3.1 43.05 4.1 43.05
L 7.35 40.85
Q 2.6 43.3 -4.45 46.35
L -5.45 46.8 -5.1 46.3
M -32.95 -59
Q -29.9 -54.05 -29.9 -50.5 -29.9 -49.85 -32.05 -47.3
L -34.35 -44.9 -35.95 -45.15
Q -36.75 -45.2 -36.8 -44.5 -34.55 -43.85 -28.9 -39.1 -22.55 -33.8 -22.55 -31.05 -22.55 -29.85 -26.1 -27.75 -29.7 -25.65 -29.7 -24.75 -27.25 -23.5 -24.85 -21.2 -20 -16.6 -20 -10.8 -20 -9.2 -20.75 -8.3 -21.25 -7.7 -23.55 -6
L -24.55 -5.25
Q -23.2 -4.85 -18.6 -1.55 -14 1.75 -13.6 2.7
L -13.45 3.05 -18.9 3.15
Q -24.15 3.45 -25.65 4.9
L -25.6 5.8 -24.15 5.55
Q -22.85 5.65 -20.05 7.4
L -21.05 7.05
Q -15.55 9.25 -12.45 13.8 -10.05 17.35 -10.05 19.75 -10.05 21.55 -11.4 21.8
L -17.6 21.4
Q -17.8 22.25 -18.1 22.6
L -18 22.9 -17.5 23.05 -13.05 23.45 -12.7 23.35 -11.8 23.65 -12.05 23.65
Q -6.9 24.95 -4.95 29.1 -3.6 32 -3.6 40.2
L -3.65 43.6
Q -2.55 40.75 -2.95 38.5
L -2.2 39.6 -2.15 38.95 -2 37.7
Q -2 33.85 -2.7 30.35 -3.3 27.25 -4.05 26.1
L -4.3 25.8 4.95 27.9 13.45 29.1 14.95 29.15
Q 13.8 28.45 2.35 26.1
L -10.8 23.65 -11.75 23.3 -9.45 22.95
Q -8.65 22.55 -8.65 21.2 -8.65 18.55 -10.1 15.3 -11.35 12.55 -12.8 11.05 2.25 17.75 10.85 22.85 16 25.95 17.15 27.3
L 15.25 29.15 16.85 30.6
Q 17.3 31.1 17.3 31.55 17.3 33 16.05 34.6
L 16.35 34.35
Q 18.25 34.35 18.75 33.3
L 19 30.85
Q 19 27.1 16.35 19.4 13.9 12.35 11.4 7.85
L 0.4 -12.05 -7.55 -26.65
Q -9.65 -34 -12.9 -40.35 -15.4 -45.35 -19.9 -52.15 -22.9 -56.7 -32.75 -64 -41.8 -70.75 -41.9 -71.2
L -42.85 -71.25
Q -42.85 -70.9 -43.2 -70.8
L -43.6 -70.35
Q -36.7 -65.05 -32.95 -59
M -28.4 -51.7
Q -29.2 -57.55 -39.3 -67.55 -29.3 -62.85 -19.3 -46.95 -12.15 -35.55 -10.1 -28.75 -9 -25.15 2.65 -4.05
L 14.45 16.9
Q -2.7 -8.75 -9.25 -17.8 -23.95 -38.05 -31.95 -43.85 -27.9 -47.95 -28.4 -51.7
M -27.8 -25.65
L -23.5 -26.95
Q -22.7 -27.2 -20.9 -29.95 -17.3 -25.05 -5.8 -11.5 -0.15 -4.85 7 6.45 9.5 9.85 11.3 13 13.9 17.6 13.4 18.9
L 14.25 19.55 14.5 19.1 14.35 18.3 15.2 19.4 15 20.45 15 20.6 15.05 22.05 13.25 23.35
Q 12.3 21.45 -0.75 15.45
L -22 5.7 -14.15 4.9
Q -10.7 4.2 -12.05 1.75
L -22.25 -6
Q -19.35 -6.25 -19.1 -6.55 -18.5 -7.2 -18.5 -11.4 -18.5 -13.4 -19.55 -17.5
L -16.5 -15.9 -27.2 -24.4 -25.7 -25.55 -27.8 -25.65
M 12.75 18.35
Q 12.35 18 11.75 18
L 2.15 11.75 7.85 15.85 13.9 20.05 14.75 20.2 12.75 18.35
M -3 -5.75
L -4.85 -7 -1.05 -3.2 -3 -5.75 Z"/>
</g>

<g id="Graphics_Symbol_648_0_Layer1_0_FILL">
<path fill="#000000" fill-opacity="0.3333333333333333" stroke="none" d="
M 32.45 125.2
L 31.55 124.7 31.4 125.3 31.25 126.65 31.75 129.7 32.25 132.7
Q 30.75 152.1 30.75 153.55
L 32 154.6
Q 34.85 138.55 34.85 132.55 34.85 131.6 34.25 129.2 33.45 126.2 32.45 125.2
M 25.2 120.05
L 25.2 120.2
Q 27.75 120.55 25.2 120.05
M 52.35 147
L 52.9 146.7
Q 53.25 146.3 53.25 145.65 46.7 123.4 43.75 119.15 46.05 130.65 48.6 138.6 50.95 146.05 52.35 147
M 36.3 79.75
L 35.45 78.55
Q 34.65 77.9 33.05 77.35
L 36.3 79.75
M 41.15 14.25
L 41.1 14.25 37.75 10.7 31.75 7.75
Q 27.45 7.4 23.7 10 20 12.6 20 14.8 20 15.3 20.5 15.9 21 16.45 21 16.95 21 17.6 19.2 20.35 17.35 23.1 17.35 29.05 17.35 30.3 19.95 40.1 22.5 49.95 22.5 56.8 22.5 63.3 19.65 70.3 18.2 73.8 16.75 76.05 16.75 77.7 17.95 76.2
L 14.05 92.65
Q 10.6 110 12.3 118.55 12.45 119.5 8.8 129.8 5.05 140.4 5.05 142.45 5.05 145.1 7.3 145.1 8.65 145.1 10.15 142.85 12.85 138.85 16.85 127.7
L 14.75 134.3
Q 14.75 134.9 16.4 135.65 16.4 139.75 14.25 147.9
L 14.3 148.85 14.3 148.9 15.85 148.9 15.55 150.2 15.25 152.2
Q 15.25 152.9 15.9 154.85 19.45 143.05 21.55 133.3 23.05 126.25 23.05 124.75
L 24.3 124.95 25.4 125.15 25.4 125.35
Q 25.45 124.8 25.8 124.75
L 26 124.55
Q 23 124.75 20.45 123.3 18.15 122 18.15 120.8 18.15 114.5 19.3 109.4
L 20.4 103.5
Q 20.4 96.5 19.4 92.65
L 18.35 88.75
Q 18.35 80.4 24.5 72.1 27.6 67.85 28.7 65.65 30.6 61.65 30.6 56.9 30.6 50.05 28.2 40.55 25.75 31.05 25.75 28.5 25.75 24.45 29.1 20.25
L 34.45 13.3
Q 37.15 15.8 42 23.15 47 30.75 47 32.7
L 44.6 41.45
Q 42.25 49.45 42.45 58.7
L 42.8 65.55
Q 42.95 68.05 42.65 68.9 42.35 69.9 40.9 70.55
L 36.35 72.25 35.3 72.95 41.55 73.95 41.7 74.25 41.8 75.15 41.35 76.6 40.5 78.8 37.1 77.9
Q 38.3 80.4 43.1 95.25 48.2 110.9 50.55 116.4
L 48.65 117.3
Q 46.9 118.4 46.5 120
L 46.15 121.25 47.9 119.3
Q 48.3 126.55 52.35 133.85 56.95 142 62.45 142
L 63.75 141.85 51.9 110.85
Q 44.1 90.7 44.1 84.65 44.1 80.2 45.15 74.35
L 45.65 71.65
Q 45.2 71.45 45.05 70.95
L 45 70.1
Q 45 67.65 46 64.8
L 46 62.8
Q 46 59.3 47.25 57.3
L 47.05 53.55
Q 47.45 48.8 47.95 45.2 47 41.65 47 40.75 47 38.85 50.45 35.6 51.3 33.45 52.15 32.55
L 53.25 31.45
Q 53.25 30.15 48.4 24.35
L 42.75 17.7
Q 42.2 15.95 41.15 14.25
M 23.4 29.75
L 25.7 41.85 24.25 35.15
Q 23.5 31.6 23.4 29.75
M 19.1 133.9
L 19.2 135.85
Q 19.2 137.65 18.15 141.2 17.15 144.55 16.5 145.55
L 19.1 133.9 Z"/>
</g>

<g id="Graphics_Symbol_648_0_Layer0_0_FILL">
<path fill="#FFFFFF" fill-opacity="0.25098039215686274" stroke="none" d="
M 26.05 141.25
Q 27.3 141.25 26.55 141.55
L 26.65 142.85
Q 26.65 144.5 25.25 144.9
L 22.15 145
Q 17.65 144.75 17.65 147.9
L 17.7 148.7 17.9 148.85 19.25 147.1
Q 20.05 146.1 22.65 146.1 26.75 146.1 27.55 145.5 27.9 145.2 27.9 143.15 27.9 140.4 26.65 139.9 25.05 139.25 21.15 142
L 21.5 142.15 22.75 142.3 24.4 141.8
Q 25.45 141.25 26.05 141.25
M 22.55 133.5
L 23.75 133.4
Q 25.05 131.9 27.45 132.9 29.75 133.9 29.75 135.05 29.75 135.85 29.4 136.1
L 28.55 136.4
Q 23.65 135.6 22.2 136.35 21.65 136.65 21.65 137.55 21.65 138.8 22.3 138.15 25.45 136.85 29.05 136.8 31.05 136.75 31.05 135.5 31.05 134.2 29.7 132.85 27.95 131.05 24.85 131
L 26 130.75
Q 27.2 130.2 27.35 129.65 25.65 128.5 23.85 130.1 22.25 131.45 22.25 132.75 22.25 133.5 22.55 133.5
M 33.9 130.4
L 33.75 130.9 33.75 147.1 34.2 147.3 35.55 147.5
Q 38.25 147.5 38.9 145.25
L 39 142.5 38.9 140.3
Q 38.65 139.15 37.35 137.65
L 36.75 138.05
Q 36.75 138.85 37.25 140.6
L 37.75 143 37.6 144.65
Q 37.2 145.75 35.5 146.1
L 35.05 145.95 35 145.05 35.8 137.75
Q 36.25 133.3 34.65 130.4
L 33.9 130.4
M 12.25 134.5
L 13.65 134.65 15.25 134.5 15.25 134.6
Q 15.25 136.65 14.2 141.05 13.1 145.45 13.1 147.4
L 13.2 148.85 13.85 149.9
Q 14.75 149.75 14.85 149.4
L 16.3 141.15
Q 16.5 140.05 16.5 135.3 16.5 133.45 16.05 133.05 15.15 132.35 12.25 134.5
M 14 123.8
L 13.05 123.8
Q 13.05 125.6 10.6 131.3 8.1 136.95 8.1 137.25
L 8.35 138.6
Q 9 139.85 10.9 139.85 13.5 139.85 13.7 138.6
L 13.35 136.85 12.25 136.75 10.95 137.7 10.25 138.5 9.75 138.15
Q 9.5 137.95 9.5 137.15
L 11.9 132.05
Q 14.3 126.75 14.3 125.3
L 14.25 124.2 14 123.8
M 21.3 108.55
Q 20.75 108.85 20.75 110.85 20.75 111.75 21.8 112.75
L 22.5 112
Q 22 111.25 22 110.05
L 24.25 110.05
Q 24.3 110.75 25.05 111.8 25.75 112.8 25.75 113.6 25.75 115.35 23.05 115.35 21.95 115.35 20.55 114.25 19.65 114.35 19.65 115.5 22.1 116.85 23.8 116.85 25.4 116.85 26.3 115.5 27 114.45 27 113.4 25.35 109.25 24.55 108.75
L 21.3 108.55
M 20.4 107.4
L 20.25 106.55 20.05 106.65
Q 18.55 107.15 17.3 109.6 16.15 111.8 16.15 113.4
L 16.1 114.55
Q 16.25 115.9 17.15 117 20.05 120.5 29.6 120.5 34 120.5 34 119.1 34 118.3 33.8 118.25
L 33.6 118.35
Q 24.3 119.75 20.15 117.5 17.4 116 17.4 113.5 17.4 112.2 18.9 110.25 20.4 108.3 20.4 107.4
M 42.85 139.9
Q 44.1 137.9 44.1 136.25 44.1 134.05 42.35 130.75 40.25 126.7 37.65 127.4 38 128.25 41.3 131
L 38.5 131.85
Q 37.15 132.3 37.15 133.35 37.15 134.6 37.4 133.9 38.45 133.9 38.95 133.45
L 40.15 132.6
Q 40.45 133.15 40.1 136.55 39.9 138.95 42.85 139.9
M 41.4 132.35
Q 42.85 135.45 42.85 136.1
L 42.55 137.4 42.25 138.35 41.85 138.35 41.4 132.35
M 43.25 103.5
Q 43.25 105.3 40.5 107.8 37.75 110.3 37.75 111.1
L 37.8 112.2 38 112.65 38.6 112.65 43.3 108.65
Q 44.5 107.55 44.5 103.3
L 44.35 100.2
Q 43.85 98.45 41.75 99 43.25 101.5 43.25 103.5
M 50.05 123.3
L 49.75 123.25
Q 46.9 122.7 46.1 124.2 45.8 124.7 45.8 126.25
L 45.9 127.7
Q 46.05 128.25 46.55 128.75
L 50.25 129 50.5 129.45 51.35 129.85 52 129.25 51.1 127.75 48 127.4 48.05 127.25 52.75 127.5 53.15 128 53.25 129.15
Q 53.25 130.1 52 132.35 50.75 134.6 50.75 135.55
L 50.75 138
Q 51.5 140.4 55.4 140.4 56.15 140.4 56.15 140.15
L 56.05 139.65
Q 55.9 139.45 53.85 138.35 52 137.4 52 136.9 52 134.55 53.25 132.8 54.5 131 54.5 129.05 54.5 127.15 53.6 126.25
L 48.65 126.1
Q 50.1 124.8 50.1 124.1
L 50.05 123.3
M 47.85 127.4
L 47.5 127.35 47.5 127 47.8 126.8 47.85 127.4
M 35.55 95.15
L 35.5 94.65
Q 33.4 93.65 31.5 93.15
L 32.15 94.2
Q 32.65 95.4 34.8 95.4
L 35.55 95.15
M 28.45 97.9
L 26.5 94.25
Q 28.8 93.1 30.85 93
L 28.45 92.7
Q 25.15 92.6 25.15 94.65 25.15 97.1 27.2 98.75 29.3 100.45 29.25 104.05 24.15 104.1 22.1 103.25
L 20.4 102.05 20.9 101.6 22.3 100.95 23 102.4 24.3 103.65 24.8 103.4 25 103.1 25 102.1 25 101.6
Q 25.35 101.45 25 101.05
L 24.9 100.65 23.9 99.75 20.75 99.4
Q 20.15 99.4 19.6 100.5 19.15 101.45 19.15 102.25 19.15 103.25 20.2 103.95 22.4 105.4 28.6 105.4
L 30.5 105.15 30.5 101.4 28.45 97.9
M 22.55 89.5
Q 23.25 87.25 27.3 87.25 35.35 87.25 37.8 91 38.75 92.45 38.75 95.3 38.75 96.7 36.5 97.4 34.25 98.05 34.25 99.15
L 35.25 101.75
Q 36.25 104.1 36.25 104.8
L 33.75 107.55
Q 31.25 110.3 31.25 111.75 31.25 113.5 32.5 115.35 33.35 115.25 33.5 114.85
L 32.8 113.4
Q 32.5 112.6 32.5 111.8 32.5 109.15 35 108.25 37.5 107.35 37.5 104.8
L 37.4 102.2
Q 37.15 100.65 36.05 99.4 40 97.85 40 95.25 40 91.05 37.05 88.4 34.45 86 30.6 85.6 26.8 85.2 24.1 86.9 21.15 88.75 21.15 92.35 21.15 93.6 21.4 93.1
L 22.25 93
Q 22.15 90.75 22.55 89.5
M 38.15 77.8
L 39.5 79.45
Q 40.85 81.05 40.85 81.4
L 40.6 85.15 38 85.3
Q 36.1 85.3 34.1 82.7 32.1 79.7 31.1 78.75
L 27.85 78.55
Q 25.35 78.55 23.4 79.75 21.65 80.85 21.65 82 21.65 83.25 22.25 82.6
L 24.3 80.95
Q 25.95 80.05 29.35 80.05 30.8 80.05 32 81.45
L 33.9 84.35
Q 36.5 88.2 40.85 86.65
L 41.65 84.25 42.1 81.4
Q 42.1 81 40.75 79.45 39.4 77.95 39.4 77.65 39.4 76.9 39.65 76.75
L 39.9 76.5 38.75 76.4 38.25 76.5 38.15 77.8
M 34.1 61.05
Q 34.1 62.3 34.35 61.65
L 35.5 61.65
Q 35.9 60.9 36.6 60.3 38 59.15 40.25 59.3
L 40.65 60.05
Q 38.95 63.05 37.1 63.75
L 35.65 63.85
Q 35.65 65.1 35.9 64.65 38.6 64.4 40.4 62.7 41.9 61.3 41.9 60 41.9 57.35 38 58.05 34.1 58.7 34.1 61.05
M 31.8 57.6
L 31.5 57.5
Q 28.55 58.4 27.85 59.6 27.6 60.1 27.6 62.05 27.6 63.4 27.85 64.15
L 30.75 64.25 32.25 63.8 32.85 63 31.25 62.75 28.85 62.75 28.85 61.25 31.2 59.4
Q 31.85 58.85 31.85 58.4
L 31.8 57.6
M 40.15 50
L 40.2 50.8 40.4 50.9 41.25 50.8 41.95 49.75 43.05 48.55 43.15 49.65
Q 43.15 50.7 42.45 51.9 41.5 53.55 40 53.55 37.9 53.55 37.6 53.15 37.45 52.5 36.75 52 36.15 52.35 36.15 52.75 36.15 53.5 36.5 54.6
L 40.25 55.05
Q 42.5 55.05 43.7 52.55 44.4 51 44.4 49.75 44.4 46.25 42.3 46.9 40.15 47.55 40.15 50
M 37.1 38.8
Q 38.35 38.8 37.6 39.05
L 37.6 41.3 36.95 41.85
Q 36.6 42.25 36.6 43 36.6 44.25 36.85 43.55
L 38 43.55 38.7 42.05 38.85 40.5
Q 38.85 39.35 38 37.55
L 33.15 37.9
Q 31.55 38.6 31.55 39.4 31.55 40.65 32.25 40.05 35.15 38.8 37.1 38.8
M 23.5 28.6
Q 23.65 27.8 23.4 27.35 21.85 28.15 22.05 30.25 22.05 31.95 22.3 32.35 22.9 33.15 26.05 34.55
L 25.1 38.5
Q 24.55 40.35 24.55 41.65 24.55 44.75 24.8 45.8
L 25.4 45.8 26.9 39.4
Q 27.3 37.15 27.3 34.35 27.3 33.75 25.3 32.25 23.3 30.7 23.3 30.15
L 23.5 28.6
M 33.8 35.4
L 31.9 35 30.25 34.9
Q 28.2 36.7 27.75 38.55 27.55 39.3 27.55 41.9 27.55 44.35 28.75 46 30.3 48.15 31.1 51.75
L 27.85 51.6 27.85 51.25 27.7 50.4 27.5 50.5
Q 25.75 50.5 25.25 52.25 25.1 52.9 25.1 54.9 25.1 56.15 25.85 60.35
L 26.75 60.25
Q 27.2 55.95 27.6 54.35
L 27.8 53.15 31.25 53.25 32.1 52.4 32.35 51.1 30.6 47.9
Q 28.8 44.9 28.8 42.05 28.8 39.3 29.1 38.6 30.05 36.6 33.75 36.05
L 33.8 35.4
M 40.45 20.6
L 39.4 19.3 38.65 19.3 38.55 20.4
Q 38.55 21.15 38.9 21.65
L 39.65 22.5 38.15 23.7
Q 37.55 24.3 37.55 24.75 37.55 26 37.8 25.5 41.3 23.9 41.3 22.35 41.3 21.8 40.45 20.6
M 30.6 19.4
L 31.75 19.5 32.95 19.3 34.15 20.5 33.85 21.05 33.65 21.6
Q 28.35 21.7 26.2 23.3 25 24.2 25 25.25 25 25.95 25.55 27.45 26.1 29.05 26.65 29.5 29.1 29.1 31.35 30 32.5 30.45 33.25 31 34 31 34 30.8
L 33.8 30.25 32 28.5
Q 30.45 27.5 28.1 27.5
L 26.75 27.6 26.3 27.5 26.25 25.25
Q 26.25 24.6 27.55 24.05 29.55 23.2 33.75 23.1 35 22.9 35.35 21.8
L 35.4 20.5
Q 35.4 18.7 33.95 18.1 32.35 17.4 30.15 19
L 30.6 19.4
M 25.5 18.75
Q 25.5 17.6 26.25 17.2 27.25 16.7 31.15 16.25
L 33.45 16.45 35.55 16.5 36.25 15.7 36.4 14.55 36.35 13.65 36.05 13.5
Q 35.75 13.75 35.5 14.85 35.45 15.25 32.4 15.25
L 27.6 14.85
Q 26.25 15.25 25.05 16.6 24 17.8 24 18.65
L 24.45 19.95
Q 25.1 21.25 26.1 22
L 26.75 21.35 25.9 20.25
Q 25.5 19.6 25.5 18.75
M 43.2 38.75
L 43 38.85 39.35 43.35 35.9 47.85 33.8 46.2 33.3 45.6
Q 33.3 45 33.8 44.2
L 34.3 42.75 34.25 41.6 34 41.05 33.25 41.25 32.6 43.4
Q 32.05 44.7 32.05 45.35
L 32.5 47.25
Q 33.55 49.1 36.4 49.1 39.85 49.1 39.9 47.4 39.35 45.3 39.85 44.5 43.35 40.15 43.35 39.6
L 43.2 38.75
M 43.6 36
L 43.85 35.25 41.7 34.8 39.85 34.6
Q 39.3 34.5 37.6 32.3 35.85 30.1 35.85 29.4 35.85 28.8 36.35 28.6 36.85 28.4 36.85 27.75
L 36.7 26.9 36.5 27
Q 34.55 27.5 34.55 29.4 34.55 31.25 36.5 33.7 39.25 37.15 43.6 36
M 44.05 27.7
Q 42.55 26.25 41.1 27
L 41.1 28
Q 42.15 29.55 42.9 29.65
L 44 30 40.15 30.75
Q 39.75 30.9 39.1 31.5 39.45 32 41.25 32
L 45.25 31.35 45.35 30
Q 45.35 28.9 44.05 27.7 Z"/>
</g>

<g id="MovieClips_Symbol_585_23_Layer0_0_FILL">
<path fill="#8CCB2C" stroke="none" d="
M 46.65 24
L 41.45 16.95 41.35 16.95 41.25 18.5
Q 39.35 14.25 38.1 12.3 35.9 8.85 31.45 8.85 28.1 8.85 24.85 10.7 20.95 12.85 20.55 16.25
L 22.3 14.1 22.6 14.4
Q 22.25 19.55 20.55 25.1 18.95 30.3 18.95 31.65 18.95 33.8 21 43.2 23.05 52.6 22.35 57.35 21.6 62.05 18 76.15 14.35 90.2 13.65 101.95 12.95 113.7 9.65 127.45 6.3 141.3 4.2 143.75 8.65 144.35 10.6 145.75 13.2 147.55 13.2 151.45 13.2 153.9 12.7 154.85
L 12.15 155.45
Q 12.15 156.15 12.3 156.25
L 13.05 156.3 16.15 153.45
Q 19.1 151 22.35 151 26.3 151 28.75 153.55
L 31.55 156.1 37.3 150.8
Q 43.55 145.5 46.2 145.5 46.65 145.5 51.35 147.75
L 51.75 147.7 51.85 147.1
Q 52.4 145.6 55.05 144 58.85 141.6 64.8 141.2 61.8 138.6 56.8 126.75 52.4 115.45 52.2 115.45 51.85 115.45 47.75 100.4 43.55 84.9 43.55 81.9 43.55 73.4 45.15 67.9 46.75 62.45 46.75 49.85 46.75 47.7 46.1 44.4
L 45.4 40.65
Q 45.4 40.5 46.95 38.8 49.3 36.2 52.3 31 51.55 30.45 46.65 24 Z"/>
</g>

<g id="Graphics_Symbol_609_0_Layer3_0_FILL">
<path fill="#BEFCCA" fill-opacity="0.25098039215686274" stroke="none" d="
M 8.9 36.4
L 8.75 36.45 8.9 36.35
Q 2.7 34.4 -0.75 33.7 -6.7 32.55 -14.15 32.55 -39.75 32.55 -60.3 41.75 -72.7 47.35 -97.2 62.35
L -95.95 62
Q -77.45 55.15 -57.25 49 -23.95 38.9 -11.8 39.45 -28 42.1 -53.65 49.25 -78.15 56.1 -94 62.15 -80 62.3 -77.5 62.5 -74.75 62.75 -74.75 64.65 -74.75 68 -76.45 69.65
L -80.15 72.35
Q -48.6 60.65 -32.75 54.95 -30.3 53.95 -0.65 39.15
L -1.5 39 -4.25 39.05 1.95 38.1 4.5 36.5 4.2 37.25 3.1 38.35 7.55 36.95
Q 6.6 37.4 5.9 38 -3.8 42.8 -36.65 56.75 -68.4 70.2 -71.7 71.25 -69.75 72.1 -68.85 74.6 -68.45 75.75 -70.75 82.65 -68.4 77.6 -69.1 79.7
L -70.1 81.65
Q -70.75 82.65 -64.65 80.05 -58.95 77.5 -45.1 70.5 -34.55 65.2 -30.2 62.7 -40.15 68.9 -47.7 72.95 -56.7 77.75 -67.05 82.05 -56.2 81.9 -55.3 82.05 -52.7 82.45 -52.7 85.2
L -53.1 87.1
Q -53.8 89.25 -55.2 90.75
L -36.35 77.65 -30.35 73.45 -47.15 85.9
Q -43.35 85.05 -39.1 83.6 -36.75 82.8 -33.85 82.8 -30.3 82.8 -28.9 83.75 -27.6 84.7 -26.85 87.4 -23.7 83.95 -10.8 66 2 48.25 2 47.45
L 2.6 45.85
Q 3.35 43.7 4.1 40
L -4 45.45 4.8 39.25
Q 4 40.3 3.75 41.7 2.45 48.4 -0.25 52.6 -7.25 63.6 -16.2 75.45
L -24.1 85.55 -23.15 85.1
Q -1.95 61.45 1.95 55.5 4.5 51.55 6 47.15
L 8.9 36.4 Z"/>
</g>

<g id="Graphics_Symbol_609_0_Layer2_0_FILL">
<path fill="#BEFCCA" fill-opacity="0.25098039215686274" stroke="none" d="
M -72.9 -28.9
Q -72.05 -28.2 -71.5 -26.6 -70.9 -24.65 -70.9 -21.8 -70.9 -19 -73.8 -15.4 -76.9 -11.5 -80.6 -10.55 -74.6 -8.8 -72.85 -5.3 -71.75 -3.1 -71.75 2.6 -71.75 4.8 -72.05 5.85 -72.45 7.05 -73.9 9.5 -71.45 10.9 -70.35 11.8
L -68.6 13.5
Q -66.2 15.6 -66.2 19.7 -66.2 23.55 -67.6 26.2 -68.2 27.3 -70.7 30.35 -63.75 31.35 -61.6 33.1 -59.15 35.05 -59.15 40.3
L -59.45 42.8 -60.05 45.25
Q -55.3 46.7 -53.7 47.5 -51.2 48.8 -51.2 52.6 -51.2 53.25 -51.35 53.6
L -51.65 54.3 -52.1 55
Q -33.7 52.3 -15.35 42.75
L -2.05 35.45
Q 5.1 31.6 9.75 30 -0.3 38.1 -23.15 46.9 -40.5 53.55 -50.3 55.7
L -26.55 56.25
Q -3 56.25 5.25 50.95 11.25 47.1 11.25 37.65 11.25 33.25 10.2 28.95 9.2 24.9 9.3 22.9
L -12 22.65 -31.8 25.55
Q -53.9 28.7 -68 29.8
L -68.7 29.75 -68.75 29.5
Q -63.5 27.85 -42.15 25.05 -12.75 21.15 7.65 22.35 -3.75 19.25 -32 14.55 -58.65 10.05 -71.35 8.85 -66.7 8.45 -44.95 11.95
L 2 20.05 -17.95 11.3 7.9 22
Q -3 13.3 -36 -7.1 -64.35 -24.6 -72.9 -28.9
M -61.25 -5.7
L -70.15 -8.35 -58 -5.65
Q -55.55 -4.85 -38 2.65
L -61.25 -5.7
M -58.5 44.2
Q -45.75 40.65 9 23.75 -41.65 45.4 -58.5 44.2
M -72.35 -53.25
Q -72.35 -52.1 -74.45 -51.3
L -78.3 -48.75 -50.9 -27.6
Q -64.675 -37.6625 -75.4 -44.75
L -71.2 -40.2
Q -68.75 -37.4 -68.75 -35.2 -68.75 -33.7 -70.7 -31.95 -72.8 -29.95 -74.9 -30.55 -44.9 -17.25 3.45 16.55
L -19.5 -3.15 0.4 12.45 -2.4 7.65
Q -6.75 0.7 -14.95 -10.7 -16.95 -13.05 -19.7 -15.7
L -21.2 -17.05
Q -32.3 -27.15 -43.55 -33.6 -50.65 -37.7 -59.8 -45.75
L -74.4 -59
Q -74.45 -57.85 -73.4 -56.35 -72.35 -54.75 -72.35 -53.25 Z"/>

<path fill="#FFFFFF" fill-opacity="0.25098039215686274" stroke="none" d="
M -70.15 -8.35
L -61.25 -5.7 -38 2.65
Q -55.55 -4.85 -58 -5.65
L -70.15 -8.35 Z"/>
</g>

<g id="Graphics_Symbol_609_0_Layer1_0_FILL">
<path fill="#FFFFFF" fill-opacity="0.25098039215686274" stroke="none" d="
M -18.45 71.4
L -18.5 71.5 -18 71.6 -18.45 71.4 Z"/>

<path fill="#BEFCCA" fill-opacity="0.25098039215686274" stroke="none" d="
M 13.8 25.85
Q 8.4 24.05 2.8 24.05
L -9.95 24.75 -43.5 28.55 -36.95 30.45
Q -35.05 31 -35.05 32.7 -35.05 34.05 -35.85 35.3 -36.6 36.55 -37.85 36.9 -23.1 35.6 -3.65 30.7
L 13.8 25.85
M 13.2 28.05
L 1.15 41.6
Q -2.95 46.35 -9.7 51.7 -20.15 60.05 -25.85 59.2
L -24.1 59.8 -21 60.05 -18.05 60.7
Q -14.85 60.9 -13.9 62.95 -13.1 64.55 -13.4 68.5 -5.1 62.4 0.05 55.65 8 45.1 13.2 28.05
M 17.3 33.95
Q 16.05 29.2 14.65 26.95 12.5 38.35 2.95 52.4 -6.55 66.4 -15.15 70.9
L -12.65 70.75
Q -9.55 70.75 -8 73.7 -6.6 76.45 -7.15 80.15
L 3.45 75.8 5.85 74.2
Q 7.05 73.15 7.4 71.75
L 7.3 71 7.15 69.8
Q 7.15 68.9 8.9 65.65
L 12.8 58.4
Q 18.45 47.3 18.45 39.75 18.45 38.15 17.3 33.95
M 12.5 28.1
L 12.95 27.2 -17.1 34.2
Q -29.85 37 -39.25 37.6
L -33 38.45
Q -26.1 39.85 -26.1 42.7 -26.1 43.3 -28.25 46.2 -30.7 49.55 -32.3 49.55 -33.3 49.55 -35 50.8 -27.7 50.75 -24.95 51.85 -21.3 53.3 -22.7 57.3 -18.15 58.3 -5.15 46.85 6.55 36.5 12.5 28.1
M 9.55 23.2
L 9.4 23.15
Q 4.45 21.7 -2.2 20.7 -11.8 19.25 -22.35 19.25 -33.3 19.25 -41.5 21.45 -45.7 22.55 -48.55 23.8
L -43.55 23.7
Q -41.4 23.7 -40.4 24.8 -39.3 26.05 -40.5 27.95
L -25.95 25.85
Q -9.45 23.7 9.5 23.2
L 9.55 23.2 Z"/>
</g>

<g id="Graphics_Symbol_609_0_Layer0_0_FILL">
<path fill="#000000" stroke="none" d="
M 17.2 36.25
L 17.2 36.55 17.4 36.55 17.4 36.25 17.2 36.25 Z"/>

<path fill="#FFFFFF" fill-opacity="0.25098039215686274" stroke="none" d="
M -5.45 46.8
L -5.1 46.3 -7.7 48.4 -7.65 48.8 -2.9 46.75
Q 1.1 44.85 2.45 43.9
L 1.35 44.3
Q 3.1 43.05 4.1 43.05
L 7.35 40.85
Q 2.6 43.3 -4.45 46.35
L -5.45 46.8
M 12.75 18.35
Q 12.35 18 11.75 18
L 2.15 11.75 7.85 15.85 13.9 20.05 14.75 20.2 12.75 18.35
M -3 -5.75
L -4.85 -7 -1.05 -3.2 -3 -5.75 Z"/>

<path fill="#BEFCCA" fill-opacity="0.25098039215686274" stroke="none" d="
M -12.8 11.05
Q -11.35 12.55 -10.1 15.3 -8.65 18.55 -8.65 21.2 -8.65 22.55 -9.45 22.95
L -11.75 23.3 -10.8 23.65 2.35 26.1
Q 13.8 28.45 14.95 29.15
L 13.45 29.1 4.95 27.9 -4.3 25.8 -4.05 26.1
Q -3.3 27.25 -2.7 30.35 -2 33.85 -2 37.7
L -2.15 38.95 -2.2 39.6 -2.95 38.5
Q -2.55 40.75 -3.65 43.6
L -3.8 45 -5.1 46.3 -5.45 46.8 -4.45 46.35
Q 2.6 43.3 7.35 40.85
L 8 40.45
Q 13.85 37.3 16.05 34.6 17.3 33 17.3 31.55 17.3 31.1 16.85 30.6
L 15.25 29.15 17.15 27.3
Q 16 25.95 10.85 22.85 2.25 17.75 -12.8 11.05
M -20.9 -29.95
Q -22.7 -27.2 -23.5 -26.95
L -27.8 -25.65 -25.7 -25.55 -27.2 -24.4 -16.5 -15.9 -19.55 -17.5
Q -18.5 -13.4 -18.5 -11.4 -18.5 -7.2 -19.1 -6.55 -19.35 -6.25 -22.25 -6
L -12.05 1.75
Q -10.7 4.2 -14.15 4.9
L -22 5.7 -0.75 15.45
Q 12.3 21.45 13.25 23.35
L 15.05 22.05 15 20.6 15 20.45 15.2 19.4 14.35 18.3 14.5 19.1 14.25 19.55 13.4 18.9
Q 13.9 17.6 11.3 13 9.5 9.85 7 6.45 -0.15 -4.85 -5.8 -11.5 -17.3 -25.05 -20.9 -29.95
M -4.85 -7
L -3 -5.75 -1.05 -3.2 -4.85 -7
M 11.75 18
Q 12.35 18 12.75 18.35
L 14.75 20.2 13.9 20.05 7.85 15.85 2.15 11.75 11.75 18
M -39.3 -67.55
Q -29.2 -57.55 -28.4 -51.7 -27.9 -47.95 -31.95 -43.85 -23.95 -38.05 -9.25 -17.8 -2.7 -8.75 14.45 16.9
L 2.65 -4.05
Q -9 -25.15 -10.1 -28.75 -12.15 -35.55 -19.3 -46.95 -29.3 -62.85 -39.3 -67.55 Z"/>
</g>
</defs>

<g transform="matrix( 1, 0, 0, 1, -33.5,-72.6) ">
<g transform="matrix( 1, 0, 0, 1, 0,0) ">
<use xlink:href="#Parts_Bodies_bodyMC_23_Layer14_0_FILL"/>
</g>

<g transform="matrix( 1, 0, 0, 1, 0,0) ">
<g transform="matrix( 1, 0, 0, 1, 0,0) ">
<use xlink:href="#Graphics_Symbol_648_0_Layer6_0_FILL"/>
</g>

<g transform="matrix( 1, 0, 0, 1, 0,0) ">
<use xlink:href="#Graphics_Symbol_648_0_Layer5_0_FILL"/>
</g>

<g transform="matrix( 1, 0, 0, 1, 0,0) ">
<use xlink:href="#Graphics_Symbol_648_0_Layer4_0_FILL"/>
</g>

<g transform="matrix( 1, 0, 0, 1, 0,0) ">
<use xlink:href="#Graphics_Symbol_648_0_Layer3_0_FILL"/>
</g>

<g transform="matrix( 1, 0, 0, 1, 0,0) ">
<use xlink:href="#Graphics_Symbol_648_0_Layer2_0_FILL"/>
</g>

<g transform="matrix( 1, 0, 0, 1, 0,0) ">
<use xlink:href="#Graphics_Symbol_648_0_Layer1_0_FILL"/>
</g>

<g transform="matrix( 1, 0, 0, 1, 0,0) ">
<use xlink:href="#Graphics_Symbol_648_0_Layer0_0_FILL"/>
</g>
</g>
</g>

<g transform="matrix( 1, 0, 0, 1, -32.9,-71.25) ">
<g transform="matrix( 1, 0, 0, 1, 0,0) ">
<use xlink:href="#MovieClips_Symbol_585_23_Layer0_0_FILL"/>
</g>
</g>

<g transform="matrix( 1, 0, 0, 1, -33.5,-72.6) ">
<g transform="matrix( 1, 0, 0, 1, 0,0) ">
<g transform="matrix( 1, 0, 0, 1, 0,0) ">
<use xlink:href="#Graphics_Symbol_609_0_Layer3_0_FILL"/>
</g>

<g transform="matrix( 1, 0, 0, 1, 0,0) ">
<use xlink:href="#Graphics_Symbol_609_0_Layer2_0_FILL"/>
</g>

<g transform="matrix( 1, 0, 0, 1, 0,0) ">
<use xlink:href="#Graphics_Symbol_609_0_Layer1_0_FILL"/>
</g>

<g transform="matrix( 1, 0, 0, 1, 0,0) ">
<use xlink:href="#Graphics_Symbol_609_0_Layer0_0_FILL"/>
</g>
</g>
</g>
</svg>
