
<svg xmlns="http://www.w3.org/2000/svg" version="1.1" xmlns:xlink="http://www.w3.org/1999/xlink" preserveAspectRatio="none" x="0px" y="0px" width="550px" height="400px" viewBox="0 0 550 400">
<defs>
<g id="MovieClips_Symbol_585_23_Layer0_0_FILL">
<path fill="#8CCB2C" stroke="none" d="
M 46.65 24
L 41.45 16.95 41.35 16.95 41.25 18.5
Q 39.35 14.25 38.1 12.3 35.9 8.85 31.45 8.85 28.1 8.85 24.85 10.7 20.95 12.85 20.55 16.25
L 22.3 14.1 22.6 14.4
Q 22.25 19.55 20.55 25.1 18.95 30.3 18.95 31.65 18.95 33.8 21 43.2 23.05 52.6 22.35 57.35 21.6 62.05 18 76.15 14.35 90.2 13.65 101.95 12.95 113.7 9.65 127.45 6.3 141.3 4.2 143.75 8.65 144.35 10.6 145.75 13.2 147.55 13.2 151.45 13.2 153.9 12.7 154.85
L 12.15 155.45
Q 12.15 156.15 12.3 156.25
L 13.05 156.3 16.15 153.45
Q 19.1 151 22.35 151 26.3 151 28.75 153.55
L 31.55 156.1 37.3 150.8
Q 43.55 145.5 46.2 145.5 46.65 145.5 51.35 147.75
L 51.75 147.7 51.85 147.1
Q 52.4 145.6 55.05 144 58.85 141.6 64.8 141.2 61.8 138.6 56.8 126.75 52.4 115.45 52.2 115.45 51.85 115.45 47.75 100.4 43.55 84.9 43.55 81.9 43.55 73.4 45.15 67.9 46.75 62.45 46.75 49.85 46.75 47.7 46.1 44.4
L 45.4 40.65
Q 45.4 40.5 46.95 38.8 49.3 36.2 52.3 31 51.55 30.45 46.65 24 Z"/>
</g>
</defs>

<g transform="matrix( 1, 0, 0, 1, -32.9,-71.25) ">
<g transform="matrix( 1, 0, 0, 1, 0,0) ">
<use xlink:href="#MovieClips_Symbol_585_23_Layer0_0_FILL"/>
</g>
</g>
</svg>
