
<svg xmlns="http://www.w3.org/2000/svg" version="1.1" xmlns:xlink="http://www.w3.org/1999/xlink" preserveAspectRatio="none" x="0px" y="0px" width="550px" height="400px" viewBox="0 0 550 400">
<defs>
<g id="Layer0_0_FILL">
<path fill="#FFFFFF" fill-opacity="0.25098039215686274" stroke="none" d="
M 83.95 128.85
L 83 129.15 88.75 128.05 99.4 124.5
Q 98.3 124.5 83.95 128.85
M 82.65 122.65
L 89.5 123.4 96.65 122.85
Q 98.05 122.5 99.2 121.35
L 99.35 120.95 97.3 120.65 92.2 121.75 87.95 120.95 82.65 122.65
M 65 97.8
Q 62.05 97.9 60.15 98.65 58 99.5 58 101 58 102.2 60.1 102.4 63.05 102.75 65.35 105.65 66.4 107 69.8 113.45 71.75 117.25 74.2 117.25
L 77.35 117.2 77.5 113.55
Q 77.5 109.3 71.05 105.05
L 66.6 102.05
Q 64.6 100.4 64.6 99 64.6 97.8 65 97.8
M 56.15 77
L 55.4 76.95
Q 52.7 76.95 47.75 82 43.4 86.45 40.15 91.65 43.75 94.4 49.8 87.6 55.2 81.6 56.15 77.1
L 56.15 77
M 91.25 77.75
L 103.65 93
Q 104.6 94.05 108.25 96.55
L 108.6 96.4
Q 108.25 94.9 103.75 89 98.55 82.15 92.85 76.4
L 91.25 77.75 Z"/>
</g>
</defs>

<g transform="matrix( 1, 0, 0, 1, 0,0) ">
<use xlink:href="#Layer0_0_FILL"/>
</g>
</svg>
