
<svg xmlns="http://www.w3.org/2000/svg" version="1.1" xmlns:xlink="http://www.w3.org/1999/xlink" preserveAspectRatio="none" x="0px" y="0px" width="550px" height="400px" viewBox="0 0 550 400">
<defs>
<g id="Layer0_0_FILL">
<path fill="#000000" fill-opacity="0.25098039215686274" stroke="none" d="
M 89.4 73.75
Q 87.7 68.3 82.6 59.5 77.45 50.65 66.85 51.3 56.2 51.95 52.35 55.15
L 45.5 60.7
Q 43 62.55 40.6 63
L 40.75 62.45
Q 29.9 68.1 23.85 77 18.65 84.6 18.65 91.65 18.65 95.7 20.6 100.1 22.1 103.5 23.45 104.85
L 25.7 107.9
Q 27.3 110.1 34.15 116.15
L 46.55 125.05
Q 57.95 133.1 60.5 137.05 63 140.95 63.35 145.15 63.7 149.3 64.3 149.85 65.1 150.5 67 150.5 70.3 150.5 76.85 148.65 83.85 146.75 90.4 143.8 107.5 136.15 107.5 128.6 107.5 125.15 103.55 119 97.85 110.05 96.75 107.7
L 103.95 102.45
Q 108.45 98.95 108.45 96.65 108.45 91.05 104.65 87.15 98.3 81.6 93.15 75.95
L 92.5 77.15
Q 92.05 77.75 91.15 77.75 90.65 77.75 89.4 73.75
M 85.1 92.35
Q 88.9 89.55 89.55 88.55 93.1 94.7 93.1 95.1 93.1 97.45 89.7 100.4 86.25 103.35 86.25 105.7 86.25 109.05 90.75 111.65 95.25 114.3 95.25 116.95
L 91.85 120.6
Q 88.4 124.7 88.4 128.2 88.4 131.95 92.45 131.95
L 99.85 130.1
Q 97.7 133.3 92.9 135.45 86.25 138.35 76.15 138.35 72.75 138.35 71.4 136.9 70.5 135.95 69.5 132.6 66.55 123.15 59.1 115.6 55.15 111.6 49.3 109.05
L 39.75 105.5
Q 34.7 103.6 32.55 101.1 29.7 97.85 29.7 91.9 29.7 84.45 46.85 71.65 63.85 59 73.35 59 79.9 59 84.25 67.6 88.2 75.45 88.2 85.55 88.2 86.55 83.5 89.2 78.75 91.9 78.75 93.75 78.75 94.4 79 94.75
L 79.8 95.65
Q 81.2 95.2 85.1 92.35
M 64.3 94.4
Q 66.05 95.15 68.55 95.15 71.05 95.15 72.85 94.4 74.6 93.65 74.6 92.55 74.6 91.45 72.85 90.7 71.05 89.95 68.55 89.95 66.05 89.95 64.3 90.7 62.5 91.45 62.5 92.55 62.5 93.65 64.3 94.4 Z"/>
</g>
</defs>

<g transform="matrix( 1, 0, 0, 1, 0,0) ">
<use xlink:href="#Layer0_0_FILL"/>
</g>
</svg>
