
<svg xmlns="http://www.w3.org/2000/svg" version="1.1" xmlns:xlink="http://www.w3.org/1999/xlink" preserveAspectRatio="none" x="0px" y="0px" width="550px" height="400px" viewBox="0 0 550 400">
<defs>
<g id="Layer0_0_FILL">
<path fill="#000000" stroke="none" d="
M 86.85 63.8
L 86.9 63.5 85.15 61
Q 81.05 55.3 78.3 52.9 74.95 50 71.6 50 56.6 50 43.25 60.1
L 34.25 67.05
Q 29.6 70.2 25.8 70.2 21.65 70.2 16.4 64.5 11.6 59.3 11.6 56.7 11.6 52.95 13 50.95 14.4 49.65 14.4 49.25 14.4 44.65 10.45 39.8 6.75 35.25 3.85 35.25 2.55 35.25 1.85 36.7 1.3 37.9 1.3 39.9 1.3 41.75 3.2 46.7 5.5 52.85 8.4 55.9
L 7.1 56.55 5.45 56.85
Q 1.55 56.85 -3.35 50.55 -7.85 44.85 -8.4 40.95
L -8.5 40.8 -9.8 43.8
Q -9.8 45.95 -5.8 50.2 -0.6 55.65 7.8 59.55 8.75 60 17.25 66.6 24.5 72.25 27.15 72.1 25.95 74.6 21.5 80 17.7 85.3 17.7 90.1 17.7 104.15 33.15 116.95 38.15 121.15 45.05 125.3
L 53.25 130.1
Q 60.8 134.85 62.95 143.9
L 64.25 149.15
Q 65.1 151.25 67.1 151.25 80.55 151.25 93.85 144.35 108 137.05 108 128.25 108 124.25 104.7 118.1 101.6 112.3 96.9 107 104.7 107.3 107.65 100.95 110.6 94.65 105.6 88.95 100.4 82.65 94.95 75.1
L 92.85 75.35 91.85 75.25 91.75 76.4 92 76.7 91.55 76.55 91 76.6 90.15 76.5 90 75.45 89.2 73.55 89.7 74.1 89.5 73.65
Q 89.2 73.05 89.15 72.2
L 86.85 63.8
M 91.6 84
Q 91.95 83.45 92.5 80.75
L 93.05 77.75 106.7 91.7
Q 107.9 92.9 107.9 94.1 107.9 99.35 103.7 101.05
L 99.05 102.9
Q 95.9 104.4 93.2 106.8
L 94.85 108.35 105.05 123.55 105.05 123.1 105.4 123.95 105.45 124.45
Q 105.9 125.9 105.9 127.8 105.9 133.6 94 140.6 81.05 148.25 67.05 148.25 65.75 148.25 65.05 146.45
L 63.35 141.45
Q 59.65 132.2 48.5 123.6 32.95 113.15 27.75 108.55 19.5 101.15 19.5 90.2 19.5 79.1 36.95 67.3
L 40 65.35
Q 53.9 56.1 53.3 55.7 54.4 54.4 59.3 53.25 64.5 52 69.7 52 75.25 52 79.65 57.35 85.75 64.8 91.6 84
M 3.55 38.2
L 5.8 38.05
Q 12.2 38.05 12.2 48.8 12.2 50.3 11.8 51.1
L 9.9 54.4 6.25 48.1
Q 4.3 44.55 3.55 38.2
M 99.95 120.9
Q 95.85 120.9 92.7 122.3 88.8 124.05 87.15 124.3 84.65 124.1 83.2 124.35 80.55 124.75 79.9 127.9
L 91.55 126.5
Q 95.1 125.75 101.5 123.1
L 100.45 121.35 99.95 120.9
M 83.9 76.05
Q 83.9 71.65 82.45 69.1 80.6 65.95 76.75 65.95 68.8 65.95 64.15 71.5 60.8 75.45 60.8 78.5 60.8 82.6 64.6 84.8 68.2 86.9 74.4 86.9 77.9 86.9 80.4 84.85 83.9 82 83.9 76.05
M 75.8 68.2
Q 77.4 68.2 79 69.2 81.2 70.55 81.05 73
L 80.95 73.95
Q 80.9716796875 73.4931640625 80.95 73.05 80.15 72.25 79.15 72.25 77.7 72.5 76.3 73.15 73.6 74.45 73.6 76.7 73.6 78.1 75.4 79.55 76.95 80.8 77.7 80.8
L 78.55 80.75 78.6 80.55 79.4 79.65 77.4 83.05
Q 76.5 84 74.3 84 68.7 84 65.95 82.1 63.8 80.65 63.8 78.5 63.8 73 68.85 70.15 72.35 68.2 75.8 68.2
M 80 78.45
L 80.35 77.5
Q 80.6439453125 76.4919921875 80.8 75.55
L 80.6 77.55 80 78.45
M 81.3 93.1
Q 84.7 89.9 89.65 81.1 83.05 82.7 76.15 88.15 70.25 92.75 70.25 94.05 70.25 95.3 70.45 95.65 71 96.5 73.1 96.5 77.7 96.5 81.3 93.1 Z"/>
</g>
</defs>

<g transform="matrix( 1, 0, 0, 1, 0,0) ">
<use xlink:href="#Layer0_0_FILL"/>
</g>
</svg>
