
<svg xmlns="http://www.w3.org/2000/svg" version="1.1" xmlns:xlink="http://www.w3.org/1999/xlink" preserveAspectRatio="none" x="0px" y="0px" width="550px" height="400px" viewBox="0 0 550 400">
<defs>
<g id="Graphics_Symbol_246_0_Layer0_0_FILL">
<path fill="#11D524" stroke="none" d="
M -14.85 34.7
Q -13.3 35.05 -8.25 31.35 -8.65 26.35 -12.4 23.65
L -21 28.4 -21.05 28.5 -21.15 29.35
Q -17.35 34.1 -14.85 34.7
M 72.05 23.2
Q 71.8 22.3 64 22
L 57.55 21.6
Q 55.05 27 56.95 32.3
L 60.35 31.1
Q 70.35 27.3 72.45 25.5
L 72.05 23.2 Z"/>
</g>
</defs>

<g transform="matrix( 1, 0, 0, 1, -28.4,-10.7) ">
<g transform="matrix( 1, 0, 0, 1, 0,0) ">
<g transform="matrix( 1, 0, 0, 1, 0,0) ">
<use xlink:href="#Graphics_Symbol_246_0_Layer0_0_FILL"/>
</g>
</g>
</g>
</svg>
