
<svg xmlns="http://www.w3.org/2000/svg" version="1.1" xmlns:xlink="http://www.w3.org/1999/xlink" preserveAspectRatio="none" x="0px" y="0px" width="550px" height="400px" viewBox="0 0 550 400">
<defs>
<g id="Parts_Heads_headColorMC2_42_Layer3_0_FILL">
<path fill="#575757" stroke="none" d="
M 1.6 91.45
L 1.6 91.35
Q 1.55 91.4 1.5 91.5 1.5484375 91.4515625 1.6 91.45
M 1.3 91.7
L 1.35 91.7 1.35 91.65
Q 1.3234375 91.671875 1.3 91.7
M 20 85.25
Q 20.05 85.35 19.8 85.25 18.55 84.7 16.75 85.4 16.65 85.45 16.6 85.5 16.45 85.15 16.25 84.9 15.95 84.55 15.1 84.9 14.05 85.25 13.8 85.25 13.75 85.25 12.1 84.9 11.35 84.65 10.65 85 10.5 84.85 8.3 86.2 6 87.65 5.75 87.6
L 1.6 91.45
Q 1.5484375 91.453125 1.5 91.55
L 0.05 93.45 1.3 91.7
Q 0.4515625 92.4328125 -1.05 95 -1.1 95.15 -1.15 95.2 -2.45 97.5 -3 98.85 -3.05 98.9 -3.05 98.95 -3 99.05 -3.05 99.2 -3.15 99.4 -3.15 99.55 -3.25 99.9 -3.4 100.6 -3.8 100.7 -4.45 103.75 -5.05 106.75 -5.05 107.3 -4.9 109.4 -3 113.1 -1.6 115.65 -0.9 116.7 0.25 118.25 2.4 120.3 2.95 120.8 3.4 121.25 3.8 122.6 5.15 123.8 6.35 124.9 9.15 126.1 11.7 127.2 13.4 127.6 15.7 128.25 17.1 127.65 17.6 127.55 18.4 127.15
L 18.45 127.15
Q 18.65 127.1 18.55 127.25
L 18.65 127.3 18.95 127.35 19.65 127.1
Q 20 127.55 20.5 128.1 20.6 128.1 20.6 128.15
L 20.55 128.2 20.55 128.45 20.3 128.85 20.25 129 20.25 129.25
Q 20.15 129.5 20.25 129.8
L 20.35 129.8
Q 20.55 130.05 20.65 129.75
L 20.75 129.25
Q 20.75 129.5 20.8 129.7 20.55 129.85 20.55 130.1 20.45 130.4 20.5 131.1 21.15 135.8 22.2 137.75 22.65 138.6 23.2 138.95 23.6 139.15 24 139.1 24.4 139.05 24.65 138.7 24.7 138.7 24.75 138.65 24.9 138.9 25.15 139.05 25.75 139.5 26.45 139.55 27.4 139.55 27.65 138.85 27.75 138.75 27.8 138.6 27.85 138.6 27.9 138.6 28.35 138.5 28.7 138.1 28.95 137.7 28.9 137.2 28.85 136.5 28.15 135.4 26.5 133.15 25.45 132.35 25.6 132 25.7 131.7 26.2 129.5 23.8 127.35 23.6 127.15 23.25 126.9 23.6 126.45 23.5 125.6 23.4 124.4 23.2 123.4 23.25 123.3 23.25 123.2 23.55 122.8 23.15 122.3 23.05 122.15 22.75 121.85 22.55 121.4 22.3 121.15
L 22.3 121.1
Q 22.1 121.2 22 121.35 21.5 122.1 20.55 122.2 19.95 122.3 19.35 121.95 17.3 121.25 17.2 121.1 17 121.1 16.85 120.85
L 16.25 120.6
Q 15.75 120.4 13.95 119.2 12.05 117.8 11.85 117.45
L 11.15 116.85
Q 11 116.65 7.95 113
L 6.45 109.55 6.15 109.05
Q 5.4 107.85 5.5 106.95 5.2 106.5 5.15 106.2 4.75 105.15 5.2 104.35 5.35 103.05 5.4 101.9 5.6 99.75 5.85 100.2 5.85 99.9 5.85 99.8 6.05 98.1 7.5 95.9 8.65 94 9.85 93.45
L 11.1 92.95
Q 12.15 92.65 12.7 92.6 13 92.6 13.65 92.25 14.3 91.9 14.65 92 15.1 92.05 16.15 91.95 16.2 91.8 17.45 92 18.55 92.2 18.55 92.15 19.75 92.9 20.7 93.05 21.35 93.1 22.95 92.95 23.2 93.25 23.5 93.4 23.55 93.45 23.65 93.4 23.7 93.7 23.75 93.85 23.75 93.95 23.85 94 23.8 94.1 23.85 94.2 23.85 94.75 24.15 95.1 24.35 95.35 24.6 95.3 24.9 95.4 25.05 95.25 25.3 95.05 25.35 94.5 25.65 93.35 26.25 91.85 27.1 90.05 27.6 88.65 27.65 88.35 27.05 87.75 26.2 87.05 26.1 86.9
L 26.05 86.9
Q 25.9 86.75 25.65 86.65 25.45 86.6 25 86.55 24.8 86.05 24.35 85.9 23.95 85.8 23.2 86
L 22.7 85.9
Q 21.6 85.2 21.45 85.15 21.45 85.05 20 85.25
M 92.4 59.9
Q 92.95 59.25 93.1 59.1 93.9 58.5 93.95 58.3 94.05 57.95 93.85 57.65 93.7 57.3 93.35 57.2 92.9 57.05 92.5 57.25 92.2 56.9 91.7 56.85
L 91.25 57.05
Q 91.15 56.95 91 57 90.85 56.9 90.7 56.75 90.15 56.4 89.15 56.85 88.95 56.5 88.8 56.2 88.1 55.45 86.8 55.15 85.3 54.8 82.65 55 76.15 55.35 70.45 56.5 68.5 56.9 67.3 57.45 66.5 57.95 66.45 58.05 66 58.5 66.15 59.05 66.2 59.25 66.3 59.4 65.85 59.5 65.45 59.65 65.35 59.7 65.25 59.8 65.25 59.65 65.3 59.6 66.2 58.1 66.15 56.8 66.2 55.85 65.8 54.9 65.55 53.85 65.15 53.15 64.75 52.7 64.3 52.45 64.2 52.25 64.15 52.1 63.95 51.7 63.75 51.5 63.55 51.3 63.3 51.2 63.1 51 62.75 50.8 62 50.45 61.45 50.4 61.1 50.4 60.8 50.4 60.45 50.4 60.1 50.4 59.25 50.25 58.3 50.3 56.9 50.35 55.25 50.9 53.9 51.35 53.3 51.75 52.9 52.1 52.55 52.65 52.35 52.95 51.8 53.45 51.2 54.15 51.1 54.25 50.75 56.2 50.6 56.5
L 50.5 57.55
Q 50.5 57.6 50.55 57.7 50.15 58.35 50.05 58.8 49.6 60.4 50.25 61.45 50.55 61.9 50.9 62.25 42.8 66.65 37.35 73.1 36.65 73.85 34.2 77.15 33.6 77.9 33.55 78.55 33.6 78.65 33.4 78.95 33.25 79.25 33.35 79.3
L 33.55 79.2
Q 33.2 79.5 33.1 79.85 32.95 79.9 32.85 79.95 32.45 80.05 32.1 80.3 31.65 80.6 31.85 81.05 32.05 81.45 32.9 81.35 33.3 81.3 33.95 81.2 34.2 81.3 34.5 81.3 34.7 81.3 36.3 81.7 37.55 82 38.5 81.9 39.65 82.15 41.6 81.85 42.75 81.7 45.35 81.15 48.95 80.55 53.1 79.2 57.45 78.7 62.35 76.95 67.1 75.3 74.1 71.8 81.65 68.1 85.35 65.3 87.15 64 88.45 62.65 89 62.35 89.5 62.05 91.5 60.95 92.4 59.9
M 109.6 103.7
L 108.8 104.05
Q 108.95 104 109.1 104 109.8 103.95 109.6 103.7
M 141.3 35.95
Q 141.15 35.95 140.5 35.6 140 35.4 139.6 35.55 138.7 35.3 137.45 35.55 136.5 35.75 135.6 36.2 135.05 36.45 134.5 36.9 133.9 36.65 133.25 36.75 132.15 36.85 130.6 38.2 126.15 42.2 123.05 47.4 122.75 47.95 122.45 48.6 122.3 48.7 122.15 48.9
L 118.9 53.95
Q 117.75 56 117.6 56.4
L 117.15 57.4
Q 116.7 58.25 116.55 58.65
L 111.35 64.15
Q 108.35 67.35 106 70.1
L 105.95 70.05
Q 105.65 69.8 105.05 70.15 99.5 73.9 96.7 81.45 95.85 83.8 95.5 85.9 94.45 92.35 97.15 97.6 98.55 100.3 100.85 102.25 101.8 103.15 102.85 103.7 102.85 103.6 102.95 103.7
L 108.55 104.05 109.6 103.7
Q 110.7 103.8 111.6 103.1 112.1 102.65 113.3 101.6 113.6 101.45 113.9 101.25 115.05 101.35 116.3 100.65 117.3 100.1 118.95 98.35 121.85 95.15 123.35 92.4 124.3 91.25 125.05 90.4 127.65 87.1 128.85 83.95 129.45 82.2 129.3 81.1 129.15 80.15 128.7 79.6 129.05 79.05 129.2 78.7 129.75 77.55 130.05 75.85 130.15 75.35 130.25 74.15 130.25 74 130.25 73.85 130.5 74 130.75 74.1 131.3 74.3 131.6 74 132 73.6 132 72.8
L 132.15 70.85
Q 132.4 67.35 133.65 58.25 134.4 53.2 134.65 49.45
L 135.65 48.1
Q 137.55 45.7 138 45.15 139.1 44.1 141.35 42.1 142.75 40.85 142.6 39.5 142.6 38.85 141.95 38.3 142.2 38.1 142.35 38.05 142.3 38 142.3 37.95 142.1 36.75 142.05 36.65 141.8 35.95 141.3 35.95 Z"/>
</g>
</defs>

<g transform="matrix( 1, 0, 0, 1, -62.75,-76.85) ">
<g transform="matrix( 1, 0, 0, 1, 0,0) ">
<use xlink:href="#Parts_Heads_headColorMC2_42_Layer3_0_FILL"/>
</g>
</g>
</svg>
