
<svg xmlns="http://www.w3.org/2000/svg" version="1.1" xmlns:xlink="http://www.w3.org/1999/xlink" preserveAspectRatio="none" x="0px" y="0px" width="550px" height="400px" viewBox="0 0 550 400">
<defs>
<g id="Parts_Sets_Brew_brewHead_0_Layer0_0_FILL">
<path fill="#000000" stroke="none" d="
M 162.4 14.3
L 162.9 12.8
Q 163.05 11.75 163 11.45 162.8 9.85 162.6 9.45 162.15 8.6 161.15 7.55 160.65 7.05 160.3 6.95 160.15 6.9 159.65 6.7 159 6.5 158.85 6.55 158.7 6.45 158.3 6.4 157.8 6.4 157.65 6.35 155.95 5.95 154.45 6.25 153.35 6.4 151.35 7.2 148.45 8.2 144.85 10.75 141.45 13.25 134.15 19.6
L 131.65 21.8 131.55 21.85 131.55 21.9 131.45 21.95 130.65 22.6
Q 130.6 22.6 130.6 22.65
L 130.55 22.65
Q 130.4 22.8 129.75 23.4 129.726953125 23.4267578125 129.7 23.45 129.75 23.45 123.05 29.05 122 29.75 121 30.45
L 116.55 22.75 112.85 18.25 112.8 18.2
Q 111.3 16.8 111.2 16.7 110.85 16.35 110.5 16.2 110.1 15.85 109.45 15.5 97.15 9.45 85.5 9.3 85.6 8.4 85.55 7.5 85.3 5.05 83.65 3.25 82.9 2.5 81.55 1.75 78 -0.3 74.35 0.05 71.2 0.3 69.05 2.05 67.3 3.5 66.45 5.65 65.7 7.45 65.85 9.2 65.9 9.55 65.95 9.95 65.3 9.85 64.35 10.1 59.5 11.15 53.95 14.6 47.3 18.55 43.7 23.05
L 39.05 27.45 38.4 28.4
Q 38.3 28.4 38.25 28.3 35.5 25.9 30.9 24.2 23.5 21.55 17.6 22.8 13.35 23.7 9.3 26.8 5.65 29.5 3.4 32.9 0.6 37.25 0.1 42.65 -0.35 48.05 1.55 53 3.5 57.8 7.4 61.6 11.2 65.3 16.15 67.2 17.5 67.7 18.4 67.75 18.4 68.3 18.45 70.2 18.45 70.7 18.45 71.1
L 17.8 74.8
Q 17.65 75.45 17.65 76 17.65 76.45 17.85 76.7 17.95 77 19.65 78.15 20.9 78.95 21.4 79.25 21.55 79.3 21.65 79.35 26.05 80.95 27.4 81 27.45 81.1 27.55 81.25 27.5 81.35 28.6 82.75 29.65 84.2 29.65 84.25
L 32.95 87.5
Q 36.6 89.9 39.2 91.25 42.55 92.95 46.1 94 50.85 95.4 56.6 96 61.25 96.55 67.3 96.6 84.45 96.9 97.9 93.75 105.3 92.05 109.15 90.75 115.1 88.75 118.4 86.1
L 120.2 83.7 121.45 81.4 121.45 81.3 121.55 81.25
Q 121.55 81.15 121.6 81.1 122.05 80.25 122.25 79.65 122.5 79 122.75 77.7 123.1 76.5 123.2 75.25 123.25 74.3 123.2 73.45
L 123.1 67.55
Q 123 66.7 122.9 66.5 122.85 66.4 122.85 66.35 122.9 66.3 123 66.25 124.3 65.7 124.6 65.6 125.15 65.3 126.15 64.6
L 128.15 63.4 129.75 62.1 133.15 58.7
Q 133.3 58.5 133.5 58.3 136.7 54.7 139.6 50.1
L 141.9 46.15
Q 143.65 42.8 143.7 42.75 145.7 38.7 148.3 32.5 149.95 28.65 150.25 27.9 151.45 25.35 152.5 23.5 155.55 18.55 159.45 16.4 159.7 16.3 159.55 16.3
L 160.65 15.65
Q 160.8 15.6 160.9 15.5 161.05 15.5 161.15 15.4 161.3 15.35 161.4 15.25
L 161.7 15.15 162.4 14.3
M 159.8 8.65
Q 159.95 8.65 160.1 8.7 160.5 8.75 161.05 8.85 160.5 8.75 160.1 8.7 160.35 8.8 160.65 8.95 160.75 9 160.9 9.1 161.2 9.9 161.35 10.45 161.35 10.491015625 161.35 10.5 161.36015625 10.691015625 161.4 10.85 161.41015625 10.9205078125 161.4 11 161.46015625 11.30078125 161.5 11.7 161.5 11.8 161.55 11.95 161.55 12.35 161.55 12.85
L 161.55 13.35 161.05 14.35 161.55 13.35 161.55 12.85
Q 161.55 12.35 161.55 11.95 161.45 12.35 161.15 12.85 160.6 14 159.65 14.6 160.6 14 161.15 12.85 161.45 12.35 161.55 11.95 161.5 11.8 161.5 11.7 161.46015625 11.30078125 161.4 11 161.41015625 10.9205078125 161.4 10.85 161.36015625 10.691015625 161.35 10.5 161.35 10.491015625 161.35 10.45 161.2 9.9 160.9 9.1 160.75 9 160.65 8.95 160.35 8.8 160.1 8.7 159.95 8.65 159.8 8.65 159.65 8.6 159.5 8.6 159.4396484375 8.587890625 159.35 8.55 158.9578125 8.4939453125 158.65 8.45 158.9578125 8.4939453125 159.35 8.55 159.4396484375 8.587890625 159.5 8.6 159.65 8.6 159.8 8.65
M 161.45 11.6
L 161.35 11.75 160.35 13.7
Q 159.65 13.85 158.75 14.15 156.75 15 155.1 16.55 151.95 19.4 149.3 24.15 147.9 26.7 145.2 32.95
L 141.1 41.5 139.3 45.25
Q 139.35 45.35 138.65 46.6 136.95 49.9 135.55 51.85 134.5 53.35 131.8 56.5
L 127.7 60.65
Q 125.5 62.4 123.75 63.3 119.9 65.4 115.2 65.85 111.85 66.15 106.9 65.05
L 108.45 66.4 108.6 66.5 108.95 66.85
Q 109.1 66.95 111.65 67.75
L 113.2 68
Q 115 68.15 116.55 68 118.5 67.8 121 67.05
L 120.85 74.25
Q 120.85 75.4 120.75 76
L 120.3 77.4
Q 119.25 79.95 118.65 80.6
L 117.6 81.9
Q 115.5 84.65 114.65 85.25 114.0044921875 85.70390625 113.25 86.1 110.994140625 87.473828125 107.9 88.5 107.1673828125 88.8015625 106.35 89.05 104.05 89.75 96.8 91.35 84.1 94.25 67.1 94.15 54.55 93.95 46.6 91.75 43.3 90.85 40.85 89.75 38.9421875 88.8658203125 36.05 87.2 35.8220703125 87.0783203125 35.6 86.95 35.5419921875 86.911328125 35.35 86.7 35.0248046875 86.444140625 34.35 85.8
L 32.4 83.8 31.1 81.95 29.3 78.55 28.55 76.25
Q 28.1826171875 75.2751953125 27.9 74.35 27.151171875 71.9806640625 26.9 69.9 26.814453125 69.21640625 26.75 68.2 26.65 66.2419921875 26.65 63.05 26.75 52.3 31.4 43.15 31.95 42.1 32.55 40.8 33.1 39.75 34.2 38.2
L 37.4 33.7 43.15 26.4 43.3 26.25 43.35 26.25
Q 47.1 28.35 50.15 29.3 55 30.9 62.6 31.15 71.7 31.55 80.2 30.4
L 86 29.45
Q 95.25 27.6 103.25 24.25 108.1 22.2 111.5 19.95
L 111.7 20.05 111.85 20.15 111.95 20.25
Q 115.9 24.9 118.1 30.55
L 118.65 31.65
Q 118.45 31.75 118.2 31.95 118.1 32 116.95 33
L 115.7 33.8
Q 114.4 34.5 114.8 35.3 115.2 36 116.55 35.35 118.85 34.15 123.85 30.8 126.85 28.9 126.9 28.95 129.75 26.95 129.75 27
L 130.75 26.35 130.8 26.35 132.65 24.8 132.85 24.7 132.95 24.55 133.1 24.45 133.4 24.15 133.6 24.05 133.7 23.9 144.75 14.3
Q 149.75 10.2 153.85 9 155.65 8.55 159.85 9.05
L 161 10.5 161.4 11.45 161.45 11.6
M 131.15 22.3
Q 131.1 22.35 131.05 22.35
L 130.8 22.55
Q 130.6947265625 22.6291015625 130.55 22.7
L 131.2 22.2 131.45 22 131.45 22.1 131.35 22.1
Q 131.3 22.1 131.3 22.15 131.25 22.2 131.2 22.2 131.2 22.25 131.15 22.3
M 109.45 18
Q 109.35 18.15 109.3 18.3 106.8 19.7 103.85 21 96.55 24.2 88.15 26 87.3 26.15 86.4 26.35 85.45 26.55 84.55 26.7
L 84.5 26.7
Q 82.8 26.95 81.2 27.25 80.35 27.35 79.55 27.45 72.95 28.25 65.7 28.3 59.35 28.35 54.9 27.65 49.35 26.8 45.15 24.7 46.05 23.75 47.5 22.5 55.8 15.6 65.8 12 65.95 12 66.2 12.05 66.45 12.05 66.6 12.1
L 66.6 12.05
Q 66.6 11.95 66.6 11.9 66.734375 12.1685546875 66.95 12.45 66.973828125 12.51328125 67 12.55 67.8 13.6 69.25 14.4 72.15 16 76.25 16.1 78.8 16.15 80.5 15.5 82.1412109375 14.8970703125 83.3 13.7 83.9212890625 13.0927734375 84.4 12.35 84.75 11.8 85 11.15 85.95 11.3 87.8 11.5 89.85 11.7 91 11.9 95.35 12.55 100.4 14.3 104.15 15.65 109.45 18
M 82.8 5.35
Q 83.55 6.55 83.2 8.25 82.95 9.75 82.05 11 81 12.25 79.65 12.75 78.5 13.15 76.15 13.15 75.05 13.15 74.5 13.1 72.25 12.85 70.3 11.7 69.3 11 69 10.5 68.6 9.85 68.55 8.3 68.55 7 68.6 6.6 69 4.85 71.3 3.25 72.15 2.65 72.7 2.6 72.9 2.6 73.3 2.55 73.65 2.5 73.85 2.45
L 74.45 2.15
Q 74.75 2.05 75.15 2.1 77.85 2.5 80.05 3.35 82.05 4.15 82.8 5.35
M 17.8 25.15
Q 17.901953125 25.1259765625 18 25.1 21.7326171875 24.1791015625 26.6 25.25 32.1 26.45 36.85 29.8 36.9 29.85 37 29.9 36.95 29.95 36.95 30
L 37 30
Q 37.05 30.05 37.1 30.1
L 36.35 31 35.3 32.4 33.65 34.5 33.65 34.55
Q 33.62890625 34.581640625 33.6 34.6 33.52890625 34.731640625 33.45 34.85 33.4 34.8 33.4 34.75 33.35 34.75 33.3 34.75 33.25 34.7 33.25 34.65 33.25 34.6 33.2 34.6 33.15 34.55 33.15 34.5
L 33.05 34.4
Q 33.05 34.35 33 34.35 33 34.3 33 34.25 29.6 30.9 24.8 29.75 21.75 29 19.25 29.55 16.25 30.25 13.95 32.9 12.05 35.15 10.95 38.45 9.9 41.85 10.05 45.45 10.2 49.05 11.55 52.35 12.9 55.65 15.35 58.3 17.75 61 20.9 62.65 22.45 63.55 23.8 63.7 23.8 66.85 24.3 70.05 24.85 73.85 26.05 77.45 23.65 77.25 21.55 76.1 21 75.75 20.35 75.3 20.75 73.35 21 70.95 21.1 69.9 21 68.55 21 68.15 20.9 67.9 20.95 67.85 21 67.85
L 21.05 67.85
Q 21.1 67.8 21.15 67.8 21.3 67.8 21.4 67.8 21.5 67.8 21.6 67.8 21.65 67.8 21.65 67.85
L 21.7 67.85
Q 22 67.8 22.15 67.65 22.4 67.4 22.45 67 22.45 66.65 22.25 66.4 21.95 66.1 21 66 20.25 65.95 19.7 65.85 19.35 65.7 18.85 65.55 18.25 65.45 17.7 65.25
L 17.45 65.2
Q 17.4 65.2 17.35 65.2 14.85 64.35 12.5 62.65 9.75 60.65 7.55 57.65 3.85 52.7 3.05 47.1 2.15 40.95 4.85 35.85 6.2109375 33.2083984375 8.7 30.8 9.31171875 30.1884765625 10 29.6 13.85 26.15 17.8 25.15
M 14.05 36.95
Q 15.1 34.75 16.75 33.25 18.65 31.6 20.8 31.3 22.25 31.05 24.15 31.65
L 25.2 32 25.25 32 25.3 32.05 27.7 33.2
Q 30.65 34.9 31.85 36.45
L 31.95 36.6
Q 30.2 39.3 28.6 42.45 25.4 49.15 24.3 56
L 23.9 58.85 23.75 61.5
Q 23.6359375 61.466015625 23.5 61.4 23.4140625 61.3888671875 23.3 61.35 22.294140625 60.9931640625 21.25 60.35 20.4642578125 59.81875 19.65 59.2 19.323828125 58.9400390625 19 58.65 14.3 54.35 12.95 48.6 11.35 42.4 14.05 36.95
M 73.5 16.05
Q 73.5 16.15078125 73.5 16.2 73.5 16.25 73.5 16.3
L 73.5 16.35
Q 73.55 16.3 73.6 16.3 73.6 16.2 73.55 16.15 73.5015625 16.1015625 73.5 16.05
M 154.4 10.8
Q 154.05 10.95 154 11.35 153.9 11.7 154.1 12.05 154.25 12.55 155.05 13.05 155.25 13.25 155.8 13.55 156.35 13.8 156.4 13.75 156.45 13.7 156.9 13.65 157.4 13.55 157.45 13.6 157.65 13.65 158.45 13.3 159.2 12.95 159.35 12.8
L 160.1 12.25 160.2 11.45 160.05 10.55
Q 159.4 9.85 158.95 9.55 158.7 9.35 158 9.25 157.05 9.25 156.3 9.5
L 155.95 9.6
Q 155.6 9.7 155.45 9.9
L 155.3 10.05
Q 154.7 10.2 154.5 10.65
L 154.5 10.75 154.4 10.8
M 156.95 11.55
L 157 11.55 157 11.6 156.95 11.55 Z"/>

<path fill="#000000" fill-opacity="0.24705882352941178" stroke="none" d="
M 23.5 61.4
L 23.6 61.35
Q 23.452734375 61.361328125 23.3 61.35 23.4140625 61.3888671875 23.5 61.4
M 19.15 26.95
Q 19.3 26.9 19.45 26.9 21.1 26.5 22.75 26.5 25.55 26.45 28.2 27.15 30.1 27.6 31.85 28.15 34.365625 29.1650390625 36.35 31
L 37.1 30.1
Q 37.05 30.05 37 30
L 36.95 30
Q 36.95 29.95 37 29.9 36.9 29.85 36.85 29.8 32.1 26.45 26.6 25.25 21.7326171875 24.1791015625 18 25.1 17.901953125 25.1259765625 17.8 25.15 13.85 26.15 10 29.6 9.31171875 30.1884765625 8.7 30.8 6.2109375 33.2083984375 4.85 35.85 2.15 40.95 3.05 47.1 3.85 52.7 7.55 57.65 9.75 60.65 12.5 62.65 14.85 64.35 17.35 65.2 17.4 65.2 17.45 65.2
L 17.7 65.25
Q 18.25 65.45 18.85 65.55 19.35 65.7 19.7 65.85 20.25 65.95 21 66 21.95 66.1 22.25 66.4 22.45 66.65 22.45 67 22.4 67.4 22.15 67.65 22 67.8 21.7 67.85
L 21.65 67.85
Q 21.65 67.8 21.6 67.8 21.5 67.8 21.4 67.8 21.3 67.8 21.15 67.8 21.1 67.8 21.05 67.85
L 21 67.85
Q 20.95 67.85 20.9 67.9 21 68.15 21 68.55 21.1 69.9 21 70.95 20.75 73.35 20.35 75.3 21 75.75 21.55 76.1 23.65 77.25 26.05 77.45 24.85 73.85 24.3 70.05 23.8 66.85 23.8 63.7 22.45 63.55 20.9 62.65 17.75 61 15.35 58.3 12.9 55.65 11.55 52.35 10.2 49.05 10.05 45.45 9.9 41.85 10.95 38.45 12.05 35.15 13.95 32.9 16.25 30.25 19.25 29.55 21.75 29 24.8 29.75 29.6 30.9 33 34.25 33 34.3 33 34.35 33.05 34.35 33.05 34.4
L 33.15 34.5
Q 33.15 34.55 33.2 34.6 33.25 34.6 33.25 34.65 33.25 34.7 33.3 34.75 33.35 34.75 33.4 34.75 33.4 34.8 33.45 34.85 33.52890625 34.731640625 33.6 34.6 33.5734375 34.531640625 33.55 34.45
L 33.65 34.5 35.3 32.4
Q 35.09375 32.3361328125 34.9 32.25 33.25 31.7 31.6 31.2 29.55 30.4 27.4 29.6 24.9 28.65 22.25 28.4 21.25 28.5 20.3 28.8 19.95 28.9 19.55 28.95 18.3 29.55 17 30.15 14.9 31.35 13.35 33 12.6 33.7 12 34.5 11.4 35.35 10.9 36.25 10.65 36.8 10.45 37.4 9.85 39.25 9.35 41.2 9.1 42.1 9.2 43.05 9.35 44.1 9.2 45.1 8.95 46.7 9.45 48.35 9.85 49.6 10.05 51.05
L 10.55 53.85
Q 10.65 54.9 9.8 54.9 8.95 54.95 8.55 54 8.3 53.4 7.6 50.85 6.85 48.25 6.6 47.65 6.35 47.1 6.15 46.5 5.45 44.6 5.1 42.6 4.85 41.3 5.15 39.95 5.5 38.1 6.6 36.6 6.8 36.35 7 36.1 7.2 35.85 7.45 35.65 8.55 34.1 9.9 32.7 10.6 31.9 11.3 31.15 14.55 27.55 19.15 26.95
M 22.25 73.95
Q 22.85 72.1 23.2 70.3 23.4 69.25 24 70
L 24.6 75.1 23.95 74.85 22.25 73.95
M 83.2 8.25
Q 83.55 6.55 82.8 5.35 82.05 4.15 80.05 3.35 77.85 2.5 75.15 2.1 74.75 2.05 74.45 2.15
L 73.85 2.45
Q 73.65 2.5 73.3 2.55 72.9 2.6 72.7 2.6 72.15 2.65 71.3 3.25 69 4.85 68.6 6.6 68.55 7 68.55 8.3 68.6 9.85 69 10.5 69.3 11 70.3 11.7 72.25 12.85 74.5 13.1 75.05 13.15 76.15 13.15 78.5 13.15 79.65 12.75 81 12.25 82.05 11 82.95 9.75 83.2 8.25
M 73.75 11.9
Q 72.15 10.8 71.05 9.25 70.2 7.95 70.8 6.65 71.65 4.7 73.55 3.75 76.2 3.7 78.35 5.35 78.55 5.8 78.75 6.25 79.2 7.35 79.7 8.5 80.2 9.6 79.7 10.65 78.95 11 78.2 11.25 77.15 11.7 76.05 12 74.9 11.75 73.75 11.9
M 109.3 18.3
Q 109.35 18.15 109.45 18 104.15 15.65 100.4 14.3 95.35 12.55 91 11.9 89.85 11.7 87.8 11.5 85.95 11.3 85 11.15 84.75 11.8 84.4 12.35 83.9212890625 13.0927734375 83.3 13.7 83.68046875 13.7328125 84.05 13.8 85.2 14 86.4 14.2 91.75 15.6 97.15 17.8 95.25 18.7 93.35 19.55 91.1 20.55 88.8 21.45 84.6 22.95 80.4 24.05 75.9 25.2 71.2 25.65 66.45 26.05 61.75 25.5 59.45 25.1 57.15 24.7 53.35 23.8 50.05 21.95 53.85 19.65 57.8 17.3 59.5 16.3 61.35 15.3 62.4 14.65 63.5 14.1 65.2703125 13.3345703125 66.95 12.45 66.734375 12.1685546875 66.6 11.9 66.6 11.95 66.6 12.05
L 66.6 12.1
Q 66.45 12.05 66.2 12.05 65.95 12 65.8 12 55.8 15.6 47.5 22.5 46.05 23.75 45.15 24.7 49.35 26.8 54.9 27.65 59.35 28.35 65.7 28.3 72.95 28.25 79.55 27.45 80.35 27.35 81.2 27.25 82.8 26.95 84.5 26.7
L 84.55 26.7
Q 85.45 26.55 86.4 26.35 87.3 26.15 88.15 26 96.55 24.2 103.85 21 106.8 19.7 109.3 18.3
M 161.35 11.75
Q 161.38359375 11.6396484375 161.4 11.5
L 161.4 11.45 161 10.5 159.85 9.05
Q 155.65 8.55 153.85 9 149.75 10.2 144.75 14.3
L 133.7 23.9 133.6 24.05 133.4 24.15 133.1 24.45 132.95 24.55 132.85 24.7 132.65 24.8 130.8 26.35 130.75 26.35 129.75 27
Q 129.75 26.95 126.9 28.95 126.85 28.9 123.85 30.8 118.85 34.15 116.55 35.35 115.2 36 114.8 35.3 114.4 34.5 115.7 33.8
L 116.95 33
Q 118.1 32 118.2 31.95 118.45 31.75 118.65 31.65
L 118.1 30.55
Q 115.9 24.9 111.95 20.25
L 111.85 20.15 111.7 20.05 111.5 19.95
Q 108.1 22.2 103.25 24.25 95.25 27.6 86 29.45
L 80.2 30.4
Q 71.7 31.55 62.6 31.15 55 30.9 50.15 29.3 47.1 28.35 43.35 26.25
L 43.3 26.25 43.15 26.4 37.4 33.7 34.2 38.2
Q 33.1 39.75 32.55 40.8 31.95 42.1 31.4 43.15 26.75 52.3 26.65 63.05 26.65 66.2419921875 26.75 68.2
L 26.8 68.2
Q 26.8 69.45 27.25 70.6 27.15 71 27.25 71.4 27.55234375 72.8814453125 27.9 74.35 28.1826171875 75.2751953125 28.55 76.25
L 29.3 78.55 31.1 81.95 32.4 83.8 34.35 85.8
Q 35.0248046875 86.444140625 35.35 86.7 35.690625 86.9697265625 36.05 87.2 38.9421875 88.8658203125 40.85 89.75 43.3 90.85 46.6 91.75 54.55 93.95 67.1 94.15 84.1 94.25 96.8 91.35 104.05 89.75 106.35 89.05 107.1673828125 88.8015625 107.9 88.5 108.1412109375 88.416015625 108.35 88.3 110.2 87.4 112.1 86.55 112.6736328125 86.3109375 113.25 86.1 114.0044921875 85.70390625 114.65 85.25 115.5 84.65 117.6 81.9
L 118.65 80.6
Q 119.25 79.95 120.3 77.4
L 120.75 76
Q 120.85 75.4 120.85 74.25
L 121 67.05
Q 118.5 67.8 116.55 68 115 68.15 113.2 68
L 111.65 67.75
Q 109.1 66.95 108.95 66.85
L 108.6 66.5 108.45 66.4 106.9 65.05
Q 111.85 66.15 115.2 65.85 119.9 65.4 123.75 63.3 125.5 62.4 127.7 60.65
L 131.8 56.5
Q 134.5 53.35 135.55 51.85 136.95 49.9 138.65 46.6 139.35 45.35 139.3 45.25
L 141.1 41.5 145.2 32.95
Q 147.9 26.7 149.3 24.15 151.95 19.4 155.1 16.55 156.75 15 158.75 14.15 159.65 13.85 160.35 13.7
L 161.35 11.75
M 154 11.35
Q 154.05 10.95 154.4 10.8
L 154.5 10.75 154.5 10.65
Q 154.7 10.2 155.3 10.05
L 155.45 9.9
Q 155.6 9.7 155.95 9.6
L 156.3 9.5
Q 157.05 9.25 158 9.25 158.7 9.35 158.95 9.55 159.4 9.85 160.05 10.55
L 160.2 11.45 160.1 12.25 159.35 12.8
Q 159.2 12.95 158.45 13.3 157.65 13.65 157.45 13.6 157.4 13.55 156.9 13.65 156.45 13.7 156.4 13.75 156.35 13.8 155.8 13.55 155.25 13.25 155.05 13.05 154.25 12.55 154.1 12.05 153.9 11.7 154 11.35
M 147.85 20
Q 147.85 20.05 147.85 20.1 146.9 21.6 146 23.15 144.9 25.1 143.85 27.05 142.95 28.8 142.1 30.7 142 30.6 141.9 30.55
L 141.85 30.6
Q 141.85 30.65 141.85 30.7 141.85 30.75 141.85 30.85 140.9 33.2 139.85 35.5 139.65 35.95 139.35 36.4 139.2 36.7 138.95 37 138.65 37.35 138.4 37.8 138.35 37.9 138.25 38 138.1 38.2 138 38.45
L 138.55 38.55 137.65 40.5
Q 137 41 136.45 41.55 135.5 42.4 134.6 43.3 133.85 44.1 133 44.75 131.55 45.85 130 46.8 127.15 48.4 124.45 50 123 50.9 121.55 51.55 119.4 52.5 117.15 53.25 111.55 54.95 106.1 55.75
L 106.75 51.85
Q 107.35 50.1 107.95 48.35 109.85 43.1 113.05 38.4 115.15 38.6 117.45 38.1 119.15 38.1 120.65 37.45 120.8 37.3 121 37.25 121.65 36.95 122.35 36.6 124.55 35.55 126.55 34.4 127.1 34.05 127.6 33.8 130.05 32.55 132 30.75 132.75 30.1 133.6 29.35 134.45 28.5 135.4 27.7 135.95 27.25 136.4 26.8 136.85 26.35 137.15 26 137.65 25.5 138.25 25.2 138.3 25.15 138.35 25.1 143.1 22.55 147.85 20
M 148.45 18.7
L 148.4 18.6
Q 148.45 18.6 148.5 18.65
L 148.45 18.7
M 91.7 32.9
Q 95.25 31.75 98.8 30.45 100.6 29.9 102.35 29.2 102.85 29.35 103.4 29.5 104.2 29.8 105.05 30.1 105.95 30.5 106.75 31.15 107.7 31.8 108.65 32.5 108.8 32.65 108.95 32.8 109.05 32.9 109.2 33.05 109.3 33.15 109.45 33.3 109.2 34.25 108.95 35.2 108.9 35.35 108.85 35.5 108.7 35.7 108.5 35.95 108.4 36.1 108.3 36.35 108.25 36.4 108.15 36.5
L 108.05 36.4
Q 108 36.4 108 36.45 104.9 40.85 103.15 46.3 102.35 48.85 101.5 51.6 100.75 54.1 100.35 56.6 99.7 60.8 99.95 64.95 100 65.4 100.1 65.95 100.4 68.15 101.2 70.35 101.6 71.5 102.3 72.55 102.6 73.1 102.75 73.45 103.1 74.25 103.5 75.05 104.2 76.4 104.85 77.75
L 104.8 77.85 103.7 78.15
Q 102.2 79.7 100.3 80.45 99.95 80.65 99.6 80.8 98.25 81.5 96.8 82.05 94.7 82.8 92.65 83.6 90.25 84.6 87.55 85.2 85.75 85.55 83.8 85.95 83.4 85.95 83.05 86.1 80.95 86.95 78.6 87.45 71.95 88.5 65.3 87.6 63.65 87.6 62.1 87.35 60.6 87 59.15 86.8 54.95 85.95 50.7 84.6 50.15 84.35 49.65 84.15 45.65 83.1 42.15 81.05 41.55 80.65 41 80.25 40.3 79.6 39.5 79.1 38.65 78.5 38.1 77.8 37.25 76.7 36.7 75.5 35.65 72.95 34.3 70.55 32.85 68.05 32.45 65.2 32.35 64.6 32.3 64 32.2 61.3 32.15 58.65 32 53.85 33.2 49.05 33.55 47.8 34.05 46.55 34.55 45.2 35.05 43.95 36.6 39.9 39.4 36.45 40.5 35.05 41.8 34.1 42.55 33.55 43.3 33.25 43.45 33.2 43.6 33.05 43.8 33 44 32.9 44.05 32.85 44.15 32.8
L 45.95 33.2 46.5 32.8 47.8 32.85 48.15 32.45
Q 49.95 33.15 51.8 33.75 53.7 34.4 55.7 34.95 60.15 35.95 64.75 36 69.1 36.05 73.45 36.05 77.8 35.5 82.15 34.7 85.1 34.4 88.05 33.8 89.85 33.35 91.7 32.9
M 107.45 66.1
Q 107.15 66.2 106.9 66.3 106.85 66.15 106.85 66 107.35 66.05 107.65 66.1
L 107.45 66.1
M 157 11.55
L 156.95 11.55 157 11.6 157 11.55 Z"/>

<path fill="#FFFFFF" fill-opacity="0.2" stroke="none" d="
M 17.4 28.2
Q 16.1 28.7 15.95 28.75 15.6 29 13.55 30.05 13.15 30.25 11.6 31.75 10.15 33.15 9.75 33.65
L 8.55 35.25
Q 7.6 36.45 7.25 37 7.05 37.25 6.9 37.95 5.85 42.5 7.3 47.15 7.55 47.95 8.15 49.95 8.35 50.55 8.55 51.05
L 8.95 51.8 9.05 51.8 9.15 51.9
Q 9.25 51.8 9.35 51.75 9.3 51.65 9.35 51.65 9.25 50.35 9.15 49.45 9.1 48.9 8.8 47.85 8.5 46.75 8.35 45.65 8.35 44.2 8.25 43.5 8.2 43.05 8.4 41.3 8.55 39.55 8.65 39.1
L 8.65 39.15
Q 8.8 38.65 9.35 37.6 9.9 36.6 9.95 36.4 10.05 35.95 11.15 34.6 11.7 33.9 12.5 32.9 13.3 31.95 14.9 31 15.8 30.45 17.6 29.35 17.9 29.15 18.25 28.95 18.35 28.95 18.45 28.95
L 18.45 28.9 18.65 28.85 18.8 28.85
Q 18.9 28.8 18.85 28.75
L 19.1 28.7 19.2 28.7 19.95 28.5 20.05 28.45 20.3 28.45 20.45 28.4 20.55 28.4 20.75 28.35 20.85 28.35 21.05 28.3 21.15 28.25 21.35 28.25 21.4 28.2 21.45 28.2 21.45 28.15
Q 21.5 28.2 21.55 28.2
L 21.6 28.2 21.75 28.05 21.7 27.8 21.75 27.75 21.7 27.7 21.7 27.65
Q 21.6 27.55 21.45 27.5
L 21.4 27.5
Q 21.35 27.45 21.3 27.45
L 20.9 27.35 20.85 27.35
Q 20.4 27.4 19.35 27.6 18.7 27.8 18.4 27.9
L 18.35 27.95 17.65 28.15
Q 17.5 28.2 17.4 28.2
M 73 5.1
Q 72.7 5.55 72.5 6.1 72.25 6.8 72.15 7.55 71.95 8.8 73.1 9.5 74 10.1 75.2 10.1 75.65 9.85 76 9.5 76.35 9.1 76.55 8.6 77.05 7.3 76.25 6.15 75.1 4.35 73 5.1
M 84.65 20.05
Q 88.2 18.55 88.25 18.2
L 84.5 17.45 79.95 17
Q 79.6 17.1 78.05 17.1 76.5 17.1 76.15 17
L 71.65 16.95
Q 70.15 16.95 68.2 17.05 64.2 17.25 62.15 17.95 59.8 18.75 57.1 20.05
L 54.5 21.7
Q 54.85 21.75 58.95 23.4 60.1 23.65 60.6 23.8 60.65 23.8 61.75 23.9 68.35 24.9 75.05 23.75 76.75 23.5 80 22.2 83.1 21 84.65 20.05
M 136.35 30.55
L 135.55 29.95
Q 134.95 29.9 134.55 30.4 132.4 32.75 129.75 34.7 124.7 38.25 119 40.1 117.65 40.55 116 40.55
L 115.35 40.4
Q 114.3 41.75 113.65 43.4 113.3 44.35 113.5 45.35 113.75 46.8 114.85 46.05 114.85 46 114.9 46 116.7 46.5 118.35 45.9 123.45 44 128.25 41.55 130.85 40.15 132.9 37.9 133.55 37.15 134.05 36.3 135.1 34.7 136.05 33.05 136.75 31.8 136.35 30.55 Z"/>

<path fill="#FFFFFF" fill-opacity="0.34901960784313724" stroke="none" d="
M 84.05 39.1
Q 83.1 39.15 82.1 39.35 70.85 40.95 59.5 40.35 52.95 40.1 46.35 38.95 45.6 38.75 45.1 38.25 44.9 38.2 44.75 38.2 44.7 38.2 44.65 38.3 44.6 38.35 44.6 38.45 44.65 38.6 44.75 38.8
L 44.2 37.95
Q 43.45 38.85 42.7 39.75 40.05 43.1 39.15 47.2 38.65 49.45 38.25 51.6 37.4 56.5 37.75 61.5 38.1 66.15 40.3 70.3 42.7 74.75 47.05 76.95
L 47.95 77.25 48.55 77.1
Q 51.65 78.7 55.1 79 61.2 79.9 67.3 79.7 73.15 79.4 78.65 77.95 83.15 76.7 87.1 74.3 87.15 74.4 87.3 74.35 87.35 74.45 87.5 74.4
L 89.15 72.9
Q 88.95 72.2 88.75 71.55 88.6 70.9 88.55 70.25 88.05 66.35 88.25 62.25 88.35 60 88.45 57.75 88.55 56.15 88.7 54.6 88.85 53.15 89.05 51.75 89.2 50.5 89.4 49.25 90.1 45.55 92 42.1 92.05 41.95 92.1 41.8 92.4 40.75 92.8 39.9 92.95 39.5 93.1 39.15 93.25 38.8 93.35 38.55 93.5 38.1 93.65 37.9 93.85 37.65 94.05 37.25 89.15 38.25 84.05 39.1
M 86.2 72.15
Q 86.25 72.25 86.25 72.4 86.2 73.05 86.2 72.15 Z"/>
</g>

<path id="Parts_Sets_Brew_brewHead_0_Layer0_0_1_STROKES" stroke="#000000" stroke-width="1" stroke-linejoin="round" stroke-linecap="round" fill="none" d="
M 158.65 8.45
Q 158.9578125 8.4939453125 159.375 8.575 159.4396484375 8.587890625 159.5 8.6 159.65 8.6 159.8 8.65 159.95 8.65 160.1 8.7 160.5 8.75 161.05 8.85
M 160.1 8.7
Q 160.35 8.8 160.65 8.95 160.75 9 160.9 9.1 161.2 9.9 161.35 10.45 161.35 10.491015625 161.35 10.525 161.36015625 10.691015625 161.4 10.85 161.41015625 10.9205078125 161.425 11 161.46015625 11.30078125 161.5 11.7 161.5 11.8 161.55 11.95 161.55 12.35 161.55 12.85
L 161.55 13.35 161.05 14.35
M 161.55 11.95
Q 161.45 12.35 161.15 12.85 160.6 14 159.65 14.6"/>
</defs>

<g transform="matrix( 1, 0, 0, 1, -62.75,-76.85) ">
<g transform="matrix( 0.9659271240234375, -0.2587890625, 0.2587890625, 0.9659271240234375, -17.25,68.5) ">
<g transform="matrix( 1, 0, 0, 1, 0,0) ">
<use xlink:href="#Parts_Sets_Brew_brewHead_0_Layer0_0_FILL"/>

<use xlink:href="#Parts_Sets_Brew_brewHead_0_Layer0_0_1_STROKES"/>
</g>
</g>

<g id="hat1" transform="matrix( 0.983917236328125, -0.17529296875, 0.17529296875, 0.983917236328125, 45.2,78.25) ">
<g id="colorMC" transform="matrix( 0.9999847412109375, 0, 0, 0.9999847412109375, 0,0) "/>

<g id="colorMC2" transform="matrix( 1, 0, 0, 1, 0,0) "/>
</g>

<g id="hat2" transform="matrix( 0.9733734130859375, -0.2247314453125, 0.2247314453125, 0.9733734130859375, 38,60.6) ">
<g id="colorMC_FL" transform="matrix( 0.9999847412109375, 0, 0, 0.9999847412109375, 0,0) "/>

<g id="colorMC2_FL" transform="matrix( 1, 0, 0, 1, 0,0) "/>
</g>

<g id="hat3" transform="matrix( 0.96026611328125, -0.2753753662109375, 0.2753753662109375, 0.96026611328125, 26,48.4) ">
<g id="colorMC_FL_FL" transform="matrix( 0.9999847412109375, 0, 0, 0.9999847412109375, 0,0) "/>

<g id="colorMC2_FL_FL" transform="matrix( 1, 0, 0, 1, 0,0) "/>
</g>

<g id="hat4" transform="matrix( 0.944580078125, -0.3252410888671875, 0.3252410888671875, 0.944580078125, 18.85,34.5) ">
<g id="colorMC_FL_FL_FL" transform="matrix( 0.9999847412109375, 0, 0, 0.9999847412109375, 0,0) "/>

<g id="colorMC2_FL_FL_FL" transform="matrix( 1, 0, 0, 1, 0,0) "/>
</g>
</g>
</svg>
