
<svg xmlns="http://www.w3.org/2000/svg" version="1.1" xmlns:xlink="http://www.w3.org/1999/xlink" preserveAspectRatio="none" x="0px" y="0px" width="550px" height="400px" viewBox="0 0 550 400">
<defs>
<g id="Graphics_Symbol_594_0_Layer0_0_FILL">
<path fill="#DEDEDE" stroke="none" d="
M 62.85 95.55
L 59.2 95.55
Q 57.85 97.35 56.8 99.2 54.75 102.55 54.75 104.1
L 55.35 109.2 55.8 109.55 57.95 109.85
Q 62.25 109.85 63.8 107.8 62.85 106.85 64 106.7
L 62.85 95.55
M 66.25 95.4
L 66.6 98.75 66.6 107.7 68.25 108.25 73.05 108
Q 73.9 104.25 73.9 100.25 73.9 95.75 72.1 92.7 69.9 92.65 68.4 94
L 66.25 95.4
M 51.35 95.95
Q 50.6 86.35 46.4 95.95
L 45.7 97.3
Q 43.3 102 43.3 104.1 43.3 106.4 43.8 107.5 44.95 110.2 48.75 110.2
L 51.55 109.5
Q 51.85 107.45 51.85 102.35 51.85 100.35 51.45 97.25
L 51.35 95.95
M 34.2 93.95
L 32.25 93.8 29.95 98.1
Q 27.6 102.8 27.6 103.55 27.6 104.95 28.1 106.2 29.05 108.45 31.4 108.6 35 106.1 34.95 100.05
L 34.2 93.95
M 19.9 94.45
L 17.8 95.4
Q 14.9 100.6 17.45 104.3
L 19.15 104.3
Q 21.9 105.35 21.85 102.2 21.7 98.95 19.9 94.45 Z"/>
</g>

<g id="MovieClips_Symbol_587_0_Layer0_0_FILL">
<path fill="#000000" stroke="none" d="
M 59.95 37.15
Q 54.45 0 46 0 24.95 0 14.5 25.5 10.95 34.15 9.1 44.8 7.75 52.45 7.75 57.35 7.75 60.15 8.5 62
L 9 60.8
Q 8.9 73.15 6.05 98.2
L 3.1 124.4
Q 0 130 0 130.85 0 132.35 0.4 132.45
L 0.75 132.5 2.2 132.55 3.85 132.55
Q 44 133.4 52.4 136.65 54.8 137.55 58 140.4 61.3 143.25 66.25 145.25
L 67 144 67 99
Q 63 57.75 59.95 37.15
M 19.25 84.75
Q 16.9 86.9 15.5 94.75 13.8 104.15 12.75 106.5
L 8.55 114.65 9.75 107.9
Q 11.5 96.2 11.5 80.85 11.5 64.8 9.75 54.3 11.7 40.15 15.6 28.85 24.95 2 45 2 53 2 59.3 59.8 62.45 88.75 64 118.25
L 63.75 140.5
Q 57.85 137.05 56.15 136.2 53.95 135.15 50.3 134.7 34.05 133.3 5.1 129.1
L 4.95 129.05 5.2 128.1
Q 12.15 119.1 15.2 106.45 17.7 91.55 19.25 84.75 Z"/>
</g>

<g id="Parts_Bodies_bodyMC_7_Layer9_0_FILL">
<path fill="#000000" stroke="none" d="
M 7.3 86.75
Q 6.7 86.75 6.7 92.4 6.65 94.75 5 107.3 5 107.95 6.95 108.4
L 9.65 108.75
Q 10.35 108.75 10.8 109.3 11.2 109.75 11.05 110.05 13.75 111.6 13.95 111.05 22.85 113.9 32.15 115.05
L 54.45 116.1 63.85 115.2
Q 64.35 115.2 63.9 115.6 63.4 115.95 63.9 115.95
L 67 115.85 67 109.75 71.15 110.35 74.8 110.05 75.65 101.05
Q 75.65 96.6 73.65 94.05 71.65 91.5 68.15 91.5
L 66.25 91.65 60.95 91.75
Q 60.35 91.75 60.15 92
L 59.8 92.5 54.05 92.6
Q 52.2 92.6 51.15 91.5 50.05 90.4 49.6 90.4
L 45.75 92.6 37.6 91.95
Q 33.2 91.25 31.3 90.2
L 29.85 92
Q 20.75 91.5 18.7 90.15 18.05 89.75 17.95 89.1
L 17.6 88.15
Q 17.2 88.35 16.6 89.95
L 13.15 88.15
Q 10.4 86.85 7.3 86.75
M 17.55 92.75
Q 16.7 92.85 18.7 92.7 20.4 92.6 20.45 93.15
L 20.6 93.2
Q 26.8 95.75 26 97.3 24.85 99.55 24.85 101.15 24.85 109.15 28.9 109.7
L 30.35 110.3 18 108.25
Q 12.85 107.4 12.85 106.4 12.85 105.8 11.95 105.85
L 10.05 105.85 11.35 89.8 16.45 92 18.45 92.7 17.55 92.75
M 31.5 95.05
L 32.95 95.2
Q 33.55 99.8 33.55 101.85 33.55 103.85 32.55 105.95 31.6 107.95 30.9 107.95 29.7 107.95 28.9 106.75 28.05 105.5 28.05 103.55 28.05 103.2 31.5 95.05
M 46.5 96.85
L 49.65 92.35 49.95 92.8
Q 50.05 93.1 50.65 93.1 51.15 93.1 51.5 96.8
L 51.85 102.65 51.6 108.8 48.25 108.8
Q 45.85 108.15 45.1 107.25 44.05 106.1 44.05 103.15 44.05 100.65 46.5 96.85
M 58.15 97.65
Q 59.05 95.55 60.3 95.55 61.55 95.55 62.45 97.65 63.35 99.75 63.35 102.7 63.35 105.65 62.45 107.75 61.55 109.85 60.3 109.85 59.05 109.85 58.15 107.75 57.25 105.65 57.25 102.7 57.25 99.75 58.15 97.65
M 67.7 95.4
Q 68.7 93.25 70.1 93.25 71.5 93.25 72.5 95.4 73.5 97.55 73.5 100.6 73.5 103.65 72.5 105.8 71.5 107.95 70.1 107.95 68.7 107.95 67.7 105.8 66.7 103.65 66.7 100.6 66.7 97.55 67.7 95.4
M 21.05 94.25
L 20.45 93.45
Q 14.25 101.8 15.7 103.55 17.5 105.7 19.4 105.7 21.55 105.7 22.15 102.9
L 22.3 100.45
Q 22.3 96.35 21.05 94.25
M 18.45 98.05
L 19.55 96 19.75 99.75 19.75 101.85 19.65 102 19.2 102.85
Q 18.85 103.75 18.3 102.2 17.8 100.7 17.8 99.55
L 18.45 98.05 Z"/>

<path fill="#502F27" stroke="none" d="
M 18.7 92.7
Q 16.7 92.85 17.55 92.75
L 18.45 92.7 16.45 92 11.35 89.8 10.05 105.85 11.95 105.85
Q 12.85 105.8 12.85 106.4 12.85 107.4 18 108.25
L 30.35 110.3 28.9 109.7
Q 24.85 109.15 24.85 101.15 24.85 99.55 26 97.3 26.8 95.75 20.6 93.2
L 20.45 93.15
Q 20.4 92.6 18.7 92.7
M 20.45 93.45
L 21.05 94.25
Q 22.3 96.35 22.3 100.45
L 22.15 102.9
Q 21.55 105.7 19.4 105.7 17.5 105.7 15.7 103.55 14.25 101.8 20.45 93.45 Z"/>
</g>

<g id="MovieClips_Symbol_623_0_Layer0_0_FILL">
<path fill="#000000" fill-opacity="0.25098039215686274" stroke="none" d="
M 61.7 48.9
Q 55.2 0 46 0 31.5 0 20.35 14.9 7.75 31.75 7.75 58.7 7.75 60.55 8.3 61.6
L 8.8 62.5 8.45 69.7 5.85 99.8
Q 5 110.65 3.15 123.3 2.25 127.85 1 129.15 0 130.15 0 130.85 0 132.1 0.15 132.2
L 2.8 132.45 29.2 133.45
Q 42.05 134.35 49.3 136.4 58.6 139.05 66.25 145.25
L 67 119.95
Q 67 88.5 61.7 48.9
M 30.5 27.25
Q 33.8 27.45 39.4 35.5 44.1 42.3 46.25 47.8 49.25 55.55 49.85 62.85 50.15 66.65 49.95 70 50.85 81.5 52.8 99.4 54.25 112.55 54.25 116.45 54.25 119.95 49.75 121.5 44.6 123.25 31.55 123.25
L 24.75 122.65 15.7 121.7
Q 20.25 118.4 22.25 116.05 24.95 112.95 25.85 109.1
L 29.55 92.7
Q 31 86 31 84.1 31 79.35 29 74 26.6 67.65 23.25 67.65 20.4 67.65 17.55 71.35
L 13.35 77.45
Q 19.9 53.05 24.15 41.65 25.25 38.6 30.5 27.25
M 14.65 78.15
L 12.4 81.2 16.2 75.7 16.1 76 14.65 78.15 Z"/>
</g>

<g id="MovieClips_Symbol_625_0_Layer0_0_FILL">
<path fill="#FFFFFF" fill-opacity="0.25098039215686274" stroke="none" d="
M 11 9.65
Q 11 8.1 12.2 5.5
L 13.35 2.7
Q 13.35 1.35 12.4 0 8.65 0.5 4.15 7.8 0 14.5 0 18
L 0.3 20.2
Q 0.2 20.3 0.05 20.35
L 0.55 20.45
Q 4.3 20.45 5.05 19.55 5.45 18.25 6.1 17.55 10.85 23.2 12.05 25.3 13.6 27.95 13.6 31
L 11.15 50.35
Q 8.65 69.15 8.65 74.1 8.65 75.95 10.4 77.15 12.6 78.65 16.8 78.65 20.9 78.65 20.9 75.35
L 17.75 70.1 19.75 51.75
Q 21.75 33.35 21.75 30.35 21.75 24.95 16.4 18.8
L 12.7 14.4
Q 11 11.9 11 9.65 Z"/>
</g>

<g id="Graphics_Symbol_553_0_Layer0_0_FILL">
<path fill="#6479CE" stroke="none" d="
M 55.1 18.15
Q 54.25 14 51.35 7.8 48.3 1.25 46 1.25 35.6 1.25 26.2 8.95 9.65 22.5 9.65 54.3
L 10.55 64.45
Q 11.4 74.25 11.4 80.8 11.4 94.95 8.45 103.85 5.5 112.7 6.75 115.35
L 8.15 118.75 8.2 119.9 7.85 121.15 7.45 123.15 5 129.1
Q 27.6 132.75 48.95 134.75 54.9 136.5 57.95 138.75 60.95 141 65.65 142.5 66.75 125.1 61.35 73.7 55.95 22.25 55.1 18.15 Z"/>
</g>
</defs>

<g transform="matrix( 1, 0, 0, 1, -33.5,-72.6) ">
<g transform="matrix( 1, 0, 0, 1, 0,0) ">
<g transform="matrix( 1, 0, 0, 1, 0,0) ">
<use xlink:href="#Graphics_Symbol_594_0_Layer0_0_FILL"/>
</g>
</g>

<g transform="matrix( 1, 0, 0, 1, 0,0) ">
<g transform="matrix( 1, 0, 0, 1, 0,0) ">
<use xlink:href="#MovieClips_Symbol_587_0_Layer0_0_FILL"/>
</g>
</g>

<g transform="matrix( 1, 0, 0, 1, 0,0) ">
<use xlink:href="#Parts_Bodies_bodyMC_7_Layer9_0_FILL"/>
</g>

<g transform="matrix( 1, 0, 0, 1, 0,0) ">
<g transform="matrix( 1, 0, 0, 1, 0,0) ">
<use xlink:href="#MovieClips_Symbol_623_0_Layer0_0_FILL"/>
</g>
</g>

<g transform="matrix( 1, 0, 0, 1, 25,39.6) ">
<g transform="matrix( 1, 0, 0, 1, 0,0) ">
<use xlink:href="#MovieClips_Symbol_625_0_Layer0_0_FILL"/>
</g>
</g>
</g>

<g transform="matrix( 1, 0, 0, 1, -32.9,-71.25) ">
<g transform="matrix( 1, 0, 0, 1, 0,0) ">
<g transform="matrix( 1, 0, 0, 1, 0,0) ">
<use xlink:href="#Graphics_Symbol_553_0_Layer0_0_FILL"/>
</g>
</g>
</g>

<g transform="matrix( 1, 0, 0, 1, -33.5,-72.6) ">
<g transform="matrix( 1, 0, 0, 1, 0,0) ">
<g transform="matrix( 1, 0, 0, 1, 0,0) ">
<use xlink:href="#Graphics_Symbol_594_0_Layer0_0_FILL"/>
</g>
</g>
</g>
</svg>
