
<svg xmlns="http://www.w3.org/2000/svg" version="1.1" xmlns:xlink="http://www.w3.org/1999/xlink" preserveAspectRatio="none" x="0px" y="0px" width="550px" height="400px" viewBox="0 0 550 400">
<defs>
<g id="Layer0_0_FILL">
<path fill="#CCCCCC" stroke="none" d="
M -11.75 25.85
L -11.65 23.7 -14.55 23.75
Q -14.35 26.35 -14.5 27.15
L -11.35 27.3 -11.75 25.85
M -6.75 -18.15
L -3.1 -18.55 -16.3 -20.15 -16.5 -8.3
Q -16.5 -7.8 -15.7 -7.6
L -14.05 -7.1 -14.05 -7.25
Q -14.8 -8.4 -15.15 -9.45 -15.9 -11.8 -15.9 -15.3 -15.9 -16.8 -15.3 -17.9 -14.5 -19.5 -12.85 -19.35 -12.75 -19 -12.8 -18.15
L -12.05 -19.1
Q -10.7 -18.65 -10.7 -16.15
L -12 -8.6 -11.75 -7.35 -11.35 -6.35 -0.25 -4.2 -0.6 -5.3 -0.7 -6.45 -5.2 -6.9 -5.45 -6.95 -5.9 -6.95 -6.55 -7.05 -6.85 -7.35 -6.85 -7.4
Q -7.85 -7.75 -8.35 -8.05
L -8 -8.1 -3.65 -9.55 -0.7 -9.05 -0.25 -9.05 0.1 -13.5 -1.65 -13.75
Q -1.85 -12.15 -3.3 -10.95 -4.8 -9.7 -6.15 -10.05 -7 -9.85 -7.1 -10.95
L -7 -12.45
Q -7 -13.35 -6.45 -14 -5.90859375 -14.63984375 -5.25 -14.65 -6.008203125 -14.658203125 -6.6 -15.25 -7.25 -15.9 -7.25 -16.75
L -7.5 -16.75 -7.6 -17.5
Q -8.2 -18.05 -6.75 -18.15
M 7.8 23
L 5.2 23.1
Q 5.75 24.75 5.8 26.9
L 7.75 26.65 7.8 23
M 2.25 24.25
L 2.3 23.2 -4.1 23.4 -3.7 27.6 1.8 27.5 1.45 26.6 1.4 25.7
Q 1.4 25.1 1.85 24.6
L 2.25 24.25
M 19.9 22.35
L 11.7 22.9 11.8 26.1 18.85 25.45
Q 18.55 24.85 18.45 22.9
L 19.4 22.9 19.9 22.35
M 35.35 22.2
L 36.55 20.3 30.45 21 30.2 25.1 34.65 25
Q 34.95 23.3 35.35 22.2
M 26.9 21.4
L 23.05 21.9 22.9 23.8 22.45 25.35 27.1 25.25 26.9 21.4
M 43.5 19.75
L 44.25 21.5
Q 44.55 22.75 44.35 24.75
L 51.2 24.55 51.2 24.4 50.85 24.45
Q 50.85 22.5 51.15 22.1
L 52.55 19.95
Q 47.55 19.65 43.5 19.75
M 67.15 24.2
Q 66.75 22.65 66.65 21.2
L 60.3 20.65
Q 60.5 23 60.25 24.4
L 67.15 24.2
M 18.1 -16.4
L 18.8 -17.95
Q 19.65 -16.7 20.4 -12.8 21.25 -8.1 20.6 -4.55
L 34.4 -6.35
Q 35.8 -6.75 36.15 -7.8 36.45 -8.6 36.45 -11.3 36.45 -15.3 36.05 -17.4
L 35.35 -20.95 32 -20.15 32 -20 32.05 -19.7
Q 32.15 -19.5 32.35 -19.95
L 32.4 -19.8 31.95 -19.25 31.55 -10.5 31.45 -9.85 35.45 -10
Q 34.65 -9.45 30.9 -8.35 26.8 -7.1 24.2 -6.8
L 23.45 -6.9 23.35 -7.7 23.4 -8.5
Q 22.95 -8.55 22.8 -8.75
L 22.65 -9.4
Q 23.05 -10.2 24.45 -10.55
L 26 -10.8
Q 24.55 -10.8 23.55 -11.45 22.5 -12.15 22.5 -13.1 21.25 -13.5 20.75 -14
L 21.3 -14.75 23.9 -14.95 25.45 -14.85 25.3 -14.95
Q 27.4 -15.25 28.4 -14.25 29.05 -13.6 29.05 -12.85 29.05 -11.85 28.05 -11.3
L 27 -10.9 30.1 -11.25
Q 29.6 -12.1 28.85 -16.55 24.85 -15.55 22.45 -15.55 21.8 -15.55 21.6 -15.85
L 21.35 -16.55 21 -17.15 26.65 -18.95 31.35 -19.95 17.45 -18.65 0.65 -18.4 3.15 -17
Q 3 -16.5 2.5 -16.3
L 3.55 -13.5 3.8 -12.5 2.95 -3.95 18.55 -4.4 18.55 -8.5
Q 18.3 -6.6 16.8 -5.9 16.35 -5.95 16.15 -6.35
L 16.05 -6.8 8.75 -6.05 6.95 -6.3
Q 7.1 -6.7 6.7 -7.05
L 7.55 -7.55
Q 11.9 -7.55 15 -10.15 18.1 -12.75 18.1 -16.4
M 14.3 -13.7
L 12.75 -13.7 13.35 -13.2 13.6 -12.25
Q 13.6 -11.6 12.6 -10.8 11.5 -9.9 10.15 -9.9
L 7.9 -10 7.95 -11.9 7.6 -12.35 8.25 -14.05 5.75 -14.15
Q 5.65 -15.1 5.9 -16.05
L 4.85 -16.15 4.75 -16.85 5 -17.7 11.8 -17.8
Q 12.45 -17.8 12.95 -17.4
L 13.35 -16.9 13.1 -16.8
Q 14.4 -15.3 14.4 -14.25
L 14.35 -13.6 14.3 -13.7 Z"/>

<path fill="#FFFFFF" stroke="none" d="
M -15.3 -17.9
Q -15.9 -16.8 -15.9 -15.3 -15.9 -11.8 -15.15 -9.45 -14.8 -8.4 -14.05 -7.25 -12.8 -9.75 -12.8 -18.15 -12.75 -19 -12.85 -19.35 -14.5 -19.5 -15.3 -17.9 Z"/>
</g>
</defs>

<g transform="matrix( 1, 0, 0, 1, 0,0) ">
<use xlink:href="#Layer0_0_FILL"/>
</g>
</svg>
