
<svg xmlns="http://www.w3.org/2000/svg" version="1.1" xmlns:xlink="http://www.w3.org/1999/xlink" preserveAspectRatio="none" x="0px" y="0px" width="550px" height="400px" viewBox="0 0 550 400">
<defs>
<g id="Layer0_0_FILL">
<path fill="#FFFFFF" stroke="none" d="
M 39.45 -27.1
L 38.75 -27.1 38.55 -27.3
Q 38.8 -33.15 27.85 -32.4 22.3 -32 15.55 -30.2
L 18 -27.3 17.75 -26.55 17.45 -26.2 16.65 -26.15
Q 16.3 -26.15 14.1 -27.65 11.65 -29.3 11.65 -30.3
L 11.5 -31.25
Q 11.3 -31.6 10.7 -31.6
L 4.35 -31.15
Q 4.95 -29.5 4.5 -28.65
L 3.5 -28.5
Q 2.45 -28.6 1.15 -30.5 -0.05 -32.3 -1.45 -32.3
L -9.85 -31.55
Q -14 -30.35 -14 -27.05 -14 -23.8 -10.65 -21.2 -7.35 -18.65 -3.25 -18.65
L 2.2 -18.8
Q 5.6 -19.2 7.5 -20.4
L 6.85 -20.7
Q 4.75 -21.8 4.75 -21.95
L 4.8 -23.1
Q 6.2 -22.9 7.2 -22.2 8.3 -21.35 8.95 -20.95 11.55 -19.3 18.5 -19.3 19 -19.3 20.7 -19.85 22.65 -20.5 23.2 -21.15
L 22.65 -21.85 22.45 -22.65
Q 22.45 -23.2 22.75 -23.15
L 23.75 -22.95 32.15 -18.9 39.4 -19.45 39.85 -20.3
Q 40.15 -21 40.95 -21.6
L 40.35 -22.05 39.85 -22.95 48 -24.55
Q 49.75 -24.95 49.75 -26.25 49.75 -28.2 47.45 -29.05
L 43.3 -29.7 41.1 -29.65 41.05 -27.9
Q 40.8 -27.1 39.45 -27.1 Z"/>
</g>
</defs>

<g transform="matrix( 1, 0, 0, 1, 0,0) ">
<use xlink:href="#Layer0_0_FILL"/>
</g>
</svg>
