
<svg xmlns="http://www.w3.org/2000/svg" version="1.1" xmlns:xlink="http://www.w3.org/1999/xlink" preserveAspectRatio="none" x="0px" y="0px" width="550px" height="400px" viewBox="0 0 550 400">
<defs>
<g id="Layer0_0_FILL">
<path fill="#000000" fill-opacity="0.25098039215686274" stroke="none" d="
M 92.9 49.3
Q 91.2 45.9 89.15 45.9 83.5 45.9 79.1 48.85
L 68.15 56.1
Q 67.75 54.2 65 52.2 62.35 50.2 60.45 50.2 49.25 50.2 43.1 54.25 38.7 57.15 38.7 60 38.7 61 40.1 63.35
L 35.35 64 31.1 63.35
Q 28.05 62.65 24.7 63.2 21.35 63.75 16.3 67.55 11.25 71.35 11.1 75.9 10.95 80.4 16.45 86.5 17.8 88 18.25 92.6 21.9 92.75 21.9 94.4 21.9 96.7 21.05 97.45
L 19.15 98.6
Q 16.35 100.95 16.35 113.9 16.35 124.05 24.5 132.5 31.6 139.85 37.1 139.85
L 39.15 139.6 40.6 137.95
Q 44.05 146.85 52 152.45 58.35 156.9 62.85 156.9 69.05 156.9 72.45 149.75
L 74.6 144.8
Q 75.75 142.55 77 142.55 77.55 142.55 77.95 143.25 79.1 143.95 83.55 143.95 96.65 143.95 103.1 134.45 107.75 127.65 107.75 119.25 107.75 117.15 106.4 112.5 105.05 107.85 103.8 104.95 102.55 102.05 106.15 101.4 109.75 100.75 114.4 98.95 123.75 94.35 123.75 77.9 123.75 66.25 114.3 66 110.7 65.9 104.7 67.4
L 93.8 70.5
Q 92.2 70.15 93.35 67.25 94.45 64.35 94.85 59.15 95.2 53.9 92.9 49.3
M 85.65 55.2
Q 87.5 58.3 87.9 68.7 88.25 77.35 90.35 77.35 92.15 77.35 96.25 76.2 100.35 75 103.9 75 114 75 114 82.25 114 87.15 109.9 91.55 105.7 96.1 93.85 103.85 97.3 111.2 97.3 112.2 97.3 124.4 92.5 129.95 88.65 134.35 82.05 134.35 80.75 134.35 77.25 131.3 73.75 128.25 72.35 128.25 70.85 128.25 70.2 129.95
L 69 133.75
Q 66.85 139.2 58.5 139.2 54.15 139.2 50.7 132.1 48 126.5 48 123.6
L 49.55 119.4
Q 49.45 119 48.2 119 47 119 45.95 120.4
L 44.05 123.5
Q 41.25 127.95 36.75 127.95 34.3 127.95 31.95 119.85 30 113.15 28.45 109.9 26.85 106.6 27.75 103.65 28.65 100.7 43.3 93.85 35.85 97.1 27 89.35 24.1 86.75 21.65 84
L 19.75 81.6
Q 19.75 77.2 22.9 74.7 26.1 72.15 32 72.15
L 44.35 74.25
Q 46.1 74.25 46.6 71.8
L 47.4 66.4
Q 49.1 58.55 59.2 58.55
L 62.7 62.45
Q 66.75 68.65 67.75 68.65 70.8 68.65 78.3 61.4 85.25 54.7 85.65 55.2 Z"/>
</g>
</defs>

<g transform="matrix( 1, 0, 0, 1, 0,0) ">
<use xlink:href="#Layer0_0_FILL"/>
</g>
</svg>
