
<svg xmlns="http://www.w3.org/2000/svg" version="1.1" xmlns:xlink="http://www.w3.org/1999/xlink" preserveAspectRatio="none" x="0px" y="0px" width="550px" height="400px" viewBox="0 0 550 400">
<defs>
<g id="Layer0_0_FILL">
<path fill="#FFFFFF" fill-opacity="0.25098039215686274" stroke="none" d="
M 52.65 101.7
Q 49.85 102.45 43.15 107.45 36.2 112.7 34.75 115.55
L 35.05 116.95 35.3 117.05 35.85 117.85
Q 44.05 113.15 48.65 108.3 52.4 104.35 52.65 101.7
M 79.9 107.8
Q 77.45 106.1 76.25 104.7
L 76.2 105.4
Q 76.2 112.6 80.85 118.15 84.55 122.6 86.7 122.6 87.6 122.6 88.2 121.2 88.7 120.05 88.7 118.7 88.7 114.35 84 110.7
L 79.9 107.8
M 64.4 108.95
Q 63.7 107.5 62.75 107.5 59.2 107.5 57.05 113.6 55.45 118.15 55.45 121.8 55.45 124.7 56.05 126.3 56.5 127.55 58 129.65 64.9 120.3 65.15 113.2 65.25 110.6 64.4 108.95
M 58.45 124.6
Q 58.9 125.05 58.45 125.95
L 58.45 124.6
M 59.35 72.75
Q 59.35 68.4 58.3 65.3 57.25 62.2 55.8 62.2 54.35 62.2 53.3 65.3 52.25 68.4 52.25 72.75 52.25 77.1 53.3 80.2 54.35 83.3 55.8 83.3 57.25 83.3 58.3 80.2 59.35 77.1 59.35 72.75
M 28.85 80.95
Q 28.7 83.05 30.75 85.75 36.05 92.7 45.25 92.7 46.9 92.7 48.2 91.15 49.3 89.9 49.3 89.15 49.3 86.2 43.65 82.6 37.65 78.8 31.5 78.8 28.95 78.8 28.85 80.95
M 32.9 84.65
L 36.5 87.1 37.9 88.3 33.15 84.9 32.9 84.65
M 81.1 77.9
Q 84.3 72.5 85.7 63.9 81.95 64.3 77.45 70.5 72.75 77.05 73.8 81.9
L 75.05 82.95
Q 78.1 82.95 81.1 77.9
M 84.75 95.6
Q 93.3 96.05 100.65 93.2 107.65 90.5 107.65 87.45 107.65 85.85 106.3 84.95 105.15 84.2 103.5 84.2 101.55 84.2 91.55 88.75 81.8 93.15 80.6 94.25
L 82.2 94 85.85 92.8 85 93.5
Q 84.65 93.75 84.65 94.6
L 84.75 95.6
M 103.7 85.85
L 106 87 105.9 87.15 104.7 87.1 101.7 85.85
Q 103.05 85.6 103.7 85.85 Z"/>
</g>
</defs>

<g transform="matrix( 1, 0, 0, 1, 0,0) ">
<use xlink:href="#Layer0_0_FILL"/>
</g>
</svg>
