
<svg xmlns="http://www.w3.org/2000/svg" version="1.1" xmlns:xlink="http://www.w3.org/1999/xlink" preserveAspectRatio="none" x="0px" y="0px" width="550px" height="400px" viewBox="0 0 550 400">
<defs>
<g id="Layer0_0_FILL">
<path fill="#666666" stroke="none" d="
M 18.35 17.3
L 11.25 24.45 18.8 24.75 18.35 17.3
M -7.3 25.35
L -3.75 25.35 -3.65 22.9 -7.3 25.35
M -13.95 19.35
L -17.8 19.85 -16.2 25.35 -10.2 25.35 -12.45 23.9 -13.5 25 -15.9 24.9 -13.95 19.35
M -13.85 -14.85
L -11.7 -12.05 -17.8 17.35 -16.3 15.7
Q -11.9 10.5 -10.5 14.25
L -6.15 10.45 -3 15 -11.85 23.2 -0.3 13.75 -1.4 17.55 -1.25 19.2
Q 2.4 13.95 5.25 12.5
L 5.25 14.25 7 13
Q 8.25 13.25 9.75 14.75 3.95 20.85 -1.15 25.3
L 3.15 25.3
Q 6.6 15.65 15.65 12.45
L 15.75 15.05
Q 16.9 13.65 17.7 13.2 16.55 5.2 14.65 -2.65 5.95 -38.35 -13.85 -14.85
M 5.25 25.25
L 6.75 24.75 6.35 24.55 5.25 25.25 Z"/>

<path fill="#FFFF00" stroke="none" d="
M 19.95 14.65
L 19.7 12.95 17.7 13.2
Q 16.9 13.65 15.75 15.05 14.6 17.55 9.3 24.4
L 10.8 24.9 11.25 24.45 18.35 17.3 19.95 14.65
M -1.25 19.2
Q -1.35 21.45 -3.55 22.85
L -3.65 22.9 -3.75 25.35 -1.15 25.3
Q 3.95 20.85 9.75 14.75 8.25 13.25 7 13
L 5.25 14.25 5.25 12.5
Q 2.4 13.95 -1.25 19.2
M -10.5 14.25
Q -10.5 18.1 -13.95 19.35
L -15.9 24.9 -13.5 25 -12.45 23.9 -11.85 23.2 -3 15 -6.15 10.45 -10.5 14.25 Z"/>

<path fill="#000000" stroke="none" d="
M -11.7 -12.05
L -13.85 -14.85
Q 5.95 -38.35 14.65 -2.65 16.55 5.2 17.7 13.2
L 19.7 12.95
Q 18.85 -10.75 2.4 -25.25 -2.15 -29.25 -6.85 -24.35 -22.1 -8.4 -20.75 14.75
L -20.6 20.2 -22.75 22.5 -21 21.2 -21.45 26.8 21.3 26.9 19.95 14.65 18.35 17.3 18.8 24.75 11.25 24.45 10.8 24.9 9.3 24.4
Q 14.6 17.55 15.75 15.05
L 15.65 12.45
Q 6.6 15.65 3.15 25.3
L -1.15 25.3 -3.75 25.35 -7.3 25.35 -3.65 22.9 -3.55 22.85
Q -1.35 21.45 -1.25 19.2
L -1.4 17.55 -0.3 13.75 -11.85 23.2 -12.45 23.9 -10.2 25.35 -16.2 25.35 -17.8 19.85 -13.95 19.35
Q -10.5 18.1 -10.5 14.25 -11.9 10.5 -16.3 15.7
L -17.8 17.35 -11.7 -12.05
M 6.75 24.75
L 5.25 25.25 6.35 24.55 6.75 24.75 Z"/>
</g>
</defs>

<g transform="matrix( 1, 0, 0, 1, 0,0) ">
<use xlink:href="#Layer0_0_FILL"/>
</g>
</svg>
