
<svg xmlns="http://www.w3.org/2000/svg" version="1.1" xmlns:xlink="http://www.w3.org/1999/xlink" preserveAspectRatio="none" x="0px" y="0px" width="550px" height="400px" viewBox="0 0 550 400">
<defs>
<g id="Layer0_0_FILL">
<path fill="#F5E767" stroke="none" d="
M 373.15 445.1
L 370.3 443
Q 367.25 448.4 373.1 449.8
L 373.15 445.1
M 274.25 453.5
L 276.65 452.75
Q 297.6 416.5 340.1 409.25 409.6 397.4 479 409.1 499.75 412.5 518.85 421.55 537.5 430.45 552.55 444.55
L 555.85 447.85 557.6 446.5
Q 531.55 414 487.9 405.1 426.05 392.65 363.35 402.75
L 343.55 405.5
Q 339.15 405.85 334.85 406.95 321.15 410.55 307.85 415.85 288.25 425.25 275.2 442.8 271.1 448.3 274.25 453.5
M 190.65 310.6
Q 192.35 323 203.25 332.1
L 190.65 310.6
M 171.25 315.15
L 173.4 316.25 173.5 307.25 171.5 308.2 171.25 315.15
M 134.15 319.7
L 135.5 320.1 142.25 301.1
Q 162 307.95 182.45 303.6 188.5 302.25 194.2 299.95 194.8 303.1 196.15 305.85 197.95 309.45 201 312.05 202.15 313.1 203.25 313.3 203.5 306.5 197.8 300.5 194.95 297.5 191.85 295.2 169.1 306.35 145.25 298.75 146.45 297.95 147.75 297.45 149.6 296.75 148.55 298.3 168.2 291.8 189.8 293.8 175.15 284.25 155.6 290.1 134.05 296.5 134.15 319.7
M 154 314.85
L 156.25 311.85
Q 157.95 309.2 156.9 306.6
L 152.75 314.35 154 314.85
M 46.35 365.95
Q 23.75 369.4 14.1 389.8 9.5 399.45 1.65 407.15 -6.1 414.8 -14.9 421.2 6.8 413.45 16.35 392.45 30.35 409.6 52.2 413.2 69.45 416.3 86.7 413.7 108.1 410.4 126.15 398.55 127.9 410.8 138.15 417.15 142.3 419.75 146.95 420.55 134 408.75 128.65 391.9
L 131.15 393.2
Q 114.05 370.55 83 366.05 64.7 363.45 46.35 365.95
M 20 389.5
Q 28 369.5 53.15 368.8 69.1 368.35 85.3 369.45 107.7 371.6 120.95 388.7 127.4 397.1 117.8 400.9 98.25 408.65 76.85 408.85 55.6 409.05 35.15 404.3 22.35 401.35 20 389.5
M 420.15 326.75
Q 409.7 337.6 405.7 351.8
L 422.3 331.05
Q 438.3 345.3 459.9 344.4 474.85 343.9 486.85 335
L 506.85 379.1 488.4 332.8
Q 480.35 312.35 457.35 311.1 430.3 309.85 420.15 326.75
M 484.85 330
Q 468.2 342.2 446.2 339.75 432.3 338.35 424.7 327.4
L 426.1 322.6 424.2 323.35
Q 435.5 318.15 448.05 317 469.75 315.2 484.85 330
M 431.1 344.35
Q 424.75 350.1 426.6 354.1
L 431.1 344.35
M 477 359.8
L 478.35 360.1 478.1 347.35
Q 475.2 352.2 476.75 359.3
L 477 359.8
M 454.1 349.1
L 456.35 362.6 455.35 349.1 454.1 349.1 Z"/>
</g>
</defs>

<g transform="matrix( 1, 0, 0, 1, 0,0) ">
<use xlink:href="#Layer0_0_FILL"/>
</g>
</svg>
