
<svg xmlns="http://www.w3.org/2000/svg" version="1.1" xmlns:xlink="http://www.w3.org/1999/xlink" preserveAspectRatio="none" x="0px" y="0px" width="550px" height="400px" viewBox="0 0 550 400">
<defs>
<g id="Layer0_0_FILL">
<path fill="#FFFFFF" stroke="none" d="
M 227.1 232.5
Q 224 231.45 222.65 232.9 221.85 233.75 221.85 235.25
L 222.4 235.95 224.85 238 227.35 237 227.85 235.1
Q 227.85 233.65 227.5 233.15
L 227.1 232.5
M 32 256.8
L 32.5 259.5
Q 33.9 263 38 263 40.5 263 42.25 261.25 44 259.55 44 257.1 44 254.65 42.15 253.1 40.45 251.7 38 251.55 35.55 251.45 33.9 252.7 32 254.15 32 256.8
M 50.5 208.75
L 51.25 206.75
Q 50.25 205.25 49 204.75
L 47.5 204.95
Q 46.75 205.25 46.75 206.85 46.75 208.45 47.3 208.8
L 49 209.25 50.5 208.75
M 143 220
Q 144.55 219.4 145 218
L 144.25 216.5 142.75 216.95
Q 141.9 217.45 141 218.75 141.75 219.5 143 220
M 103.9 182.25
Q 105.15 185.45 108.9 185.45 111.15 185.45 112.75 183.85 114.35 182.25 114.35 180.1 114.35 177.8 112.65 176.4 111.15 175.15 108.9 175.05 106.65 174.95 105.15 176.15 103.45 177.45 103.45 179.8
L 103.9 182.25
M 72.5 79.9
L 75 82 77.5 81 78 79.1
Q 78 77.65 77.65 77.15
L 77.25 76.5
Q 74.05 75.45 72.75 76.9 72 77.7 72 79.25
L 72.5 79.9
M 48.75 53.95
Q 47.9 54.45 47 55.75 47.75 56.5 49 57 50.55 56.4 51 55
L 50.25 53.5 48.75 53.95
M 156 29.1
Q 156 27.65 155.65 27.15
L 155.25 26.5
Q 152.05 25.45 150.75 26.9 150 27.7 150 29.25
L 150.5 29.9 153 32 155.5 31 156 29.1
M 289.85 155
Q 291.4 154.4 291.85 153
L 291.1 151.5 289.65 151.95
Q 288.75 152.45 287.85 153.75 288.6 154.5 289.85 155
M 226.85 148.1
Q 226.85 146.65 226.5 146.15
L 226.1 145.5
Q 223 144.45 221.65 145.9 220.85 146.75 220.85 148.25
L 221.4 148.95 223.85 151 226.35 150 226.85 148.1
M 501.65 230.9
Q 500.85 231.75 500.85 233.25
L 501.4 233.95 503.85 236 506.35 235 506.85 233.1
Q 506.85 231.65 506.5 231.15
L 506.1 230.5
Q 503 229.45 501.65 230.9
M 392.85 251
Q 394.4 250.4 394.85 249
L 394.1 247.5 392.65 247.95
Q 391.75 248.45 390.85 249.75 391.6 250.5 392.85 251
M 462.85 278
Q 464.4 277.4 464.85 276
L 464.1 274.5 462.65 274.95
Q 461.75 275.45 460.85 276.75 461.6 277.5 462.85 278
M 415.75 167
Q 416.35 166.2 416.35 165.5 415.45 164.15 413.85 163.5
L 412.25 163.8
Q 411.35 164.15 411.35 165.75 411.35 168.25 411.6 167.25 412.35 168 413.85 168.5 415.05 168 415.75 167
M 330.85 62.1
Q 330.85 60.65 330.5 60.15
L 330.1 59.5
Q 327 58.45 325.65 59.9 324.85 60.75 324.85 62.25
L 325.4 62.95 327.85 65 330.35 64 330.85 62.1
M 432.25 79.4
Q 433.7 77.95 433.7 75.95 433.7 73.9 432.15 72.6 430.75 71.45 428.7 71.3 426.65 71.2 425.25 72.25 423.7 73.45 423.7 75.7
L 424.15 77.95
Q 425.3 80.85 428.7 80.85 430.8 80.85 432.25 79.4
M 523.85 158
Q 525.4 157.4 525.85 156
L 525.1 154.5 523.65 154.95
Q 522.75 155.45 521.85 156.75 522.6 157.5 523.85 158
M 497.85 35.1
Q 497.85 33.65 497.5 33.15
L 497.1 32.5
Q 494 31.45 492.65 32.9 491.85 33.75 491.85 35.25
L 492.4 35.95 494.85 38 497.35 37 497.85 35.1 Z"/>
</g>
</defs>

<g transform="matrix( 1, 0, 0, 1, 0,0) ">
<use xlink:href="#Layer0_0_FILL"/>
</g>
</svg>
