
<svg xmlns="http://www.w3.org/2000/svg" version="1.1" xmlns:xlink="http://www.w3.org/1999/xlink" preserveAspectRatio="none" x="0px" y="0px" width="550px" height="400px" viewBox="0 0 550 400">
<defs>
<g id="Layer0_0_FILL">
<path fill="#000000" fill-opacity="0.10196078431372549" stroke="none" d="
M 198.3 430.35
Q 196.25 421.8 188.2 416.5 166.65 402.35 141 396.9
L 127.95 394.2
Q 131.75 398.25 126 399 98.9 412.4 75.75 411.35 66.9 410.55 61.3 416 82.05 447.6 120.55 450.05 158.4 453.1 193.2 438.25 199.55 435.55 198.3 430.35
M 273.05 453.25
L 271.85 454.4
Q 288.7 463.3 311.7 463 329.65 461.75 346.2 455.4 352.05 453.1 353.5 447.1 380.1 433.85 410.65 432 455.7 430.7 500.3 435.6 530.3 439.1 557 449.3 556.45 447.25 557.65 446.7 548.05 428.95 526.7 418.7 491.85 401.95 452.65 400.7 388.05 397.45 325.2 411 306.65 414.9 290.75 425.35 282.8 430.55 277.6 438.3 273.2 445 273.05 453.1
L 273.05 453.25
M 194.9 298.9
L 191.5 298.9 190.8 300.95 173.5 302
Q 172.75 306.45 173.35 310.85 176.6 333.7 202.15 340.15 226.05 346.3 241.65 330.15 233.1 305.3 195.25 302.5
L 194.9 298.9
M 145.45 297.55
L 145.6 298.1
Q 147.6 301.55 151.85 302.4
L 165.55 302.55 162.75 297.2 190.75 294 190.75 292.5
Q 166.45 286.35 145.45 297.55
M 62.1 367.55
L 62 368
Q 32.35 364.2 19.5 384.65 22.15 407.8 46.6 409.55
L 59.6 409.05
Q 48.7 403.65 57 390 57.6 378.45 89.8 384 122 389.5 124.05 390.95 116.1 375.05 97.8 369.55 77.95 363.6 62.1 367.55
M 485.1 332.25
L 484.3 331.2
Q 482.65 333.95 482.2 334.1
L 484.25 331.1 483.9 330.65
Q 440.3 350.65 446.7 354.15 453.15 357.65 461.65 366.85 470.1 376 491.85 382.75 511.2 388.65 530.7 383.5 541.6 380.65 537.35 370.8 534.35 363.8 527.1 359.3 506.1 346.35 485 330
L 485.1 332.25
M 450.1 339.1
L 449.25 338.45 450 339 450 328
Q 459.2 320.35 468.6 326.95 474.35 331 483.55 330.15 470 313.3 446.85 315.8 434.4 317 423.5 322.85
L 423.8 325.5 421.85 326.85
Q 431.05 343.15 450.1 339.1 Z"/>
</g>
</defs>

<g transform="matrix( 1, 0, 0, 1, 0,0) ">
<use xlink:href="#Layer0_0_FILL"/>
</g>
</svg>
