
<svg xmlns="http://www.w3.org/2000/svg" version="1.1" xmlns:xlink="http://www.w3.org/1999/xlink" preserveAspectRatio="none" x="0px" y="0px" width="550px" height="400px" viewBox="0 0 550 400">
<defs>
<g id="Parts_Bodies_bodyMC_27_Layer16_0_FILL">
<path fill="#000000" stroke="none" d="
M 56.75 17.75
L 55.35 18.1 55 18.75
Q 54.7 19.25 54.7 19.85 54.7 21.6 56.75 25.2
L 61.35 33.65
Q 67.95 48.15 67.95 70.2
L 66.75 76.5 66.5 75.8 60.8 62.9 57.8 56.15
Q 56.5 53.05 44.55 33
L 32.6 13.05
Q 31.75 13.05 31.15 12.45 30.55 11.85 30.55 11
L 24.15 2.15 24.6 0.45 23.9 -0.1
Q 22.3 -0.1 19.2 3.2 15.25 7.3 12.35 8.9 3.45 13.8 0.85 16.95 -2 20.4 -2 26.95 -2 30.5 -0.45 35.7
L 3 46.75
Q 7.95 64.3 7.95 87.6 7.95 100.75 6.85 110.45
L 5.75 118.8 6.6 124.4 4.45 141.25
Q 2.3 157.75 2.3 164.85 2.3 167.15 5.7 169
L 11.6 171.45 15.85 165.2
Q 17.6 166.6 19.25 166.8
L 23.95 166.85 24.3 166.75 26.4 166.6
Q 29.05 166.25 29.9 164.65
L 30.2 163.05
Q 30.2 162.5 31.95 157.2 34.1 150.7 36.45 145.1 43.8 127.8 49.4 127.8 51.65 127.8 53.55 130.45
L 56.6 135.4
Q 63.9 122.4 64.3 120.7 68.7 129.15 70.85 131.3 77.85 128.15 80.9 99 82.4 84.4 82.5 70.3 82.5 56.05 78.95 43.05 75.65 31.05 71.7 27.8 59.3 17.6 57.3 16.9 57.3 17.4 56.75 17.75
M 57.5 21.85
Q 58 21.55 58.1 20.65 66.5 25.95 71.05 31.95 74.4 36.3 74.4 38.6
L 70.7 63.45
Q 70.95 56.8 67.2 42.65 62.3 23.95 57.5 21.85
M 75.25 42.65
L 78.15 42.65 78.15 58.1 75.25 58.1 75.25 42.65
M 76.55 40.85
L 76.45 40.85 76.25 39.7 76.55 40.85
M 21.3 20.35
Q 23.55 20.55 25.65 21.6
L 24.3 27.5
Q 33.1 40.3 53.45 67.45 69.35 89.45 69.35 94.9 69.35 98.9 67.45 104.3 64.95 111.5 56.7 129.45
L 51.9 126.35
Q 51.05 124.7 45.7 122.8 40.65 121.05 38.05 121.05 31.35 121.05 25.7 137.1 24.25 141.1 22.1 148.1 20.45 153.1 19.45 153.1 19.25 153.1 15.05 160.6 10.65 168.05 9.3 168.05 8.9 168.05 7.25 166.85 5.15 165.3 3.55 163.25
L 9.1 114.15
Q 10.25 102.05 10.25 86.4 10.25 61.9 5.3 45.8
L 1.9 35.7
Q 0.35 30.8 0.35 26.8 0.35 21.75 5.15 17.3 8.6 14.1 17.7 8.8 17.6 19.25 18.85 20.05
L 21.3 20.35
M 38.6 44.1
Q 26.45 28.2 26.45 27.8
L 32.05 15.8
Q 45.5 37.9 51.65 50.55 55.7 58.75 65.4 80 54.9 65.55 38.6 44.1
M 76.75 61
Q 78.6 61.15 79.3 60 80.15 66.65 80.15 69.7 80.15 77.8 77.4 96.6 74.3 117.75 70.85 127.85
L 70.85 127.4
Q 69.9 123.5 67.5 121.8 65.7 120.5 65.7 116.25 65.7 115.55 68.7 108.45 71.65 101.35 71.65 96.1
L 70.1 91.5
Q 68.55 86.5 68.55 83.5
L 70.55 78.55
Q 72.85 72 74.45 59.45 74.9 60.85 76.75 61
M 41.45 125.2
Q 44.8 125.55 44.8 125.8 36.1 136.2 31.15 152.35
L 28.2 161
Q 26.6 164.25 24.1 164.25 23.6 164.25 24.1 163.9 24.6 163.5 24.1 163.5
L 22.35 163.55
Q 21.35 163.65 21.35 164.3
L 19.9 164 17.3 162.95
Q 20 159.2 28.25 140.6 35.2 124.9 37.35 124.9
L 41.45 125.2
M 30.25 13.45
L 26.5 18.95 19.95 18.05 20.15 6.4
Q 20.85 6.4 22.45 3.1
L 30.25 13.45 Z"/>

<path fill="#666666" stroke="none" d="
M 26.5 18.95
L 30.25 13.45 22.45 3.1
Q 20.85 6.4 20.15 6.4
L 19.95 18.05 26.5 18.95
M 26.45 27.8
Q 26.45 28.2 38.6 44.1 54.9 65.55 65.4 80 55.7 58.75 51.65 50.55 45.5 37.9 32.05 15.8
L 26.45 27.8
M 58.1 20.65
Q 58 21.55 57.5 21.85 62.3 23.95 67.2 42.65 70.95 56.8 70.7 63.45
L 74.4 38.6
Q 74.4 36.3 71.05 31.95 66.5 25.95 58.1 20.65 Z"/>

<path fill="#333333" stroke="none" d="
M 44.8 125.8
Q 44.8 125.55 41.45 125.2
L 37.35 124.9
Q 35.2 124.9 28.25 140.6 20 159.2 17.3 162.95
L 19.9 164 21.35 164.3
Q 21.35 163.65 22.35 163.55
L 24.1 163.5
Q 24.6 163.5 24.1 163.9 23.6 164.25 24.1 164.25 26.6 164.25 28.2 161
L 31.15 152.35
Q 36.1 136.2 44.8 125.8
M 79.3 60
Q 78.6 61.15 76.75 61 74.9 60.85 74.45 59.45 72.85 72 70.55 78.55
L 68.55 83.5
Q 68.55 86.5 70.1 91.5
L 71.65 96.1
Q 71.65 101.35 68.7 108.45 65.7 115.55 65.7 116.25 65.7 120.5 67.5 121.8 69.9 123.5 70.85 127.4
L 70.85 127.85
Q 74.3 117.75 77.4 96.6 80.15 77.8 80.15 69.7 80.15 66.65 79.3 60
M 25.65 21.6
Q 23.55 20.55 21.3 20.35
L 18.85 20.05
Q 17.6 19.25 17.7 8.8 8.6 14.1 5.15 17.3 0.35 21.75 0.35 26.8 0.35 30.8 1.9 35.7
L 5.3 45.8
Q 10.25 61.9 10.25 86.4 10.25 102.05 9.1 114.15
L 3.55 163.25
Q 5.15 165.3 7.25 166.85 8.9 168.05 9.3 168.05 10.65 168.05 15.05 160.6 19.25 153.1 19.45 153.1 20.45 153.1 22.1 148.1 24.25 141.1 25.7 137.1 31.35 121.05 38.05 121.05 40.65 121.05 45.7 122.8 51.05 124.7 51.9 126.35
L 56.7 129.45
Q 64.95 111.5 67.45 104.3 69.35 98.9 69.35 94.9 69.35 89.45 53.45 67.45 33.1 40.3 24.3 27.5
L 25.65 21.6
M 76.45 40.85
L 76.55 40.85 76.25 39.7 76.45 40.85
M 78.15 42.65
L 75.25 42.65 75.25 58.1 78.15 58.1 78.15 42.65 Z"/>

<path fill="#A6A6A6" stroke="none" d="
M 24.3 -1
L 23.9 -0.1 24.6 0.45 28.7 1.9
Q 32.9 3.3 46.45 10.1 47.95 9.8 49.2 8.75
L 50.55 7.3
Q 50.65 9.85 51.5 14.45
L 43.75 12.6
Q 36 10.8 32.25 10.8
L 30.55 11
Q 30.55 11.85 31.15 12.45 31.75 13.05 32.6 13.05 34 13.7 40.6 14.55 46.75 16.1 47.9 20.4 55.25 48.05 57.8 56.15
L 60.8 62.9
Q 62.5 59.2 55.95 38.65 51.15 23.65 48.1 16.5
L 52.2 16.05
Q 52.65 16.05 55.35 18.1
L 56.75 17.75
Q 57.3 17.4 57.3 16.9 54.55 15.9 53.2 13.25 52.3 11.45 52.3 9.75 52.3 9.25 52.8 7.85
L 53.3 5.9 52.85 3.9 53.15 3.8 52.6 3.75
Q 47.25 6.9 46.55 6.9 44.75 6.9 37.65 2.75 30.55 -1.4 25.7 -1.4 24.5 -1.4 24.3 -1 Z"/>
</g>

<g id="Graphics_Symbol_613_0_Layer0_0_FILL">
<path fill="#FFFFFF" stroke="none" d="
M 78.8 54.35
Q 75.5 55.35 75 58.35
L 76.8 58.15 78.55 56.35 78.55 58 79.55 57.95 79.3 56.3 78.8 54.35
M 29.1 8.95
L 29.3 7.55 29.75 2.8 30.95 2.75 28.7 1.9 24.6 0.45 24.15 2.15 29.1 8.95
M 58.1 27.5
Q 56 26.8 52.8 25.1
L 51.05 24.1 55.95 38.65
Q 62.5 59.2 60.8 62.9
L 66.5 75.8 66.75 76.5 67.95 70.2
Q 67.95 48.15 61.35 33.65
L 58.1 27.5
M 48.5 22.6
L 47.55 22.1 41.15 25.4 40.3 25.85 44.55 33
Q 56.5 53.05 57.8 56.15 55.35 48.4 48.5 22.6 Z"/>
</g>

<g id="Graphics_Symbol_654_0_Layer4_0_FILL">
<path fill="#4D4D4D" stroke="none" d="
M 48.4 90.2
Q 48.4 89.05 47.6 88.25 46.8 87.45 45.7 87.45 44.6 87.45 43.8 88.25 43 89.05 43 90.2 43 91.35 43.8 92.15 44.6 92.95 45.7 92.95 46.8 92.95 47.6 92.15 48.4 91.35 48.4 90.2
M 78.7 67.05
Q 78.7 66.15 78.05 65.5 77.4 64.85 76.5 64.85 75.6 64.85 74.95 65.5 74.3 66.15 74.3 67.05 74.3 67.95 74.95 68.6 75.6 69.25 76.5 69.25 77.4 69.25 78.05 68.6 78.7 67.95 78.7 67.05
M 37.75 67.45
Q 37.75 66.1 36.8 65.15 35.8 64.2 34.45 64.2 33.1 64.2 32.15 65.15 31.15 66.1 31.15 67.45 31.15 68.8 32.15 69.75 33.1 70.7 34.45 70.7 35.8 70.7 36.8 69.75 37.75 68.8 37.75 67.45
M 54.9 45.1
L 54.9 48.3 58.15 48.3 58.15 45.1 54.9 45.1
M 54.3 28.65
Q 54.3 27.85 53.6 27.3 52.9 26.75 51.95 26.75 51 26.75 50.3 27.3 49.6 27.85 49.6 28.65 49.6 29.45 50.3 30 51 30.55 51.95 30.55 52.9 30.55 53.6 30 54.3 29.45 54.3 28.65 Z"/>

<path fill="#A6A6A6" stroke="none" d="
M 78.55 58
L 78.55 56.35 76.8 58.15 78.55 58 Z"/>
</g>

<g id="Graphics_Symbol_654_0_Layer3_0_FILL">
<path fill="#FFFFFF" fill-opacity="0.32941176470588235" stroke="none" d="
M 42.8 90.5
L 42.85 91.2 42.8 91.2 43.45 91.25 44.95 90.45
Q 46.65 89.4 47.5 87.85
L 44.35 87.75
Q 42.8 88.05 42.8 90.5
M 77.5 64.85
L 77.05 64.65 76.6 64.85 76.4 65.3 76.6 65.75 77.05 65.95 77.5 65.75 77.7 65.3 77.5 64.85
M 37.35 65.45
L 37.5 64.8 34.65 64.2
Q 32.9 64.2 31.95 64.9 31.15 65.5 31.15 66.4
L 31.2 66.85 31.35 67.05 32.1 67.1 33.4 66.5
Q 35.05 65.85 37.35 65.45 Z"/>
</g>

<g id="Graphics_Symbol_654_0_Layer2_0_FILL">
<path fill="#000000" fill-opacity="0.5019607843137255" stroke="none" d="
M 31.65 129.15
L 32.2 130.15 32.75 131.2
Q 32.75 134.55 24.2 147.45 15.65 160.35 15.65 162.1 15.65 163.65 16.7 164.2 18 164.85 21.95 164.85 29.8 164.85 32.95 156.3 33.8 153.9 34.65 149.6 35.4 145.75 35.8 144.9 44.25 127.35 44.25 126 44.25 122.5 37.95 124.15 31.65 125.8 31.65 129.15
M 48.6 92
Q 48.6 91.1 47.95 90.5 47.3 89.85 46.4 89.85 45.5 89.85 44.85 90.5 44.2 91.1 44.2 92 44.2 92.9 44.85 93.55 45.5 94.15 46.4 94.15 47.3 94.15 47.95 93.55 48.6 92.9 48.6 92
M 32.5 68.65
L 32.1 69.8
Q 32.2 70.5 33.75 70.5 36.75 70.5 37.7 69.35
L 38.2 67.85
Q 35.8 68.65 32.5 68.65
M 36.45 8.35
Q 36.4 8.05 35.4 8.05 34.8 8.05 34.2 8.6 33.2 9.5 33.6 11.25
L 31.4 8.1
Q 29.2 5.2 27.1 3
L 26.3 4.1 25.1 1.95 24.05 0.4 21.85 0.4
Q 21.7 0.4 21.45 1.1 20.35 3.85 13.25 9.25 7.6 13.55 3.65 17.15 -1.65 22 -1.65 23.55 -1.65 26.55 -0.15 31.55
L 3.2 42.3
Q 8.05 59.5 8.05 81.15
L 7.55 84.8
Q 7 89.6 7 97.05
L 8 106.7
Q 8 115.6 5.3 132.1 2.55 148.6 2.55 160.75 2.55 164.6 3.55 165.9 4.45 167.05 6.85 167.05 8.15 167.05 8.35 166.4
L 9.25 158.2
Q 9.4 156.3 12.55 145.35
L 16.25 131.55
Q 16.75 128.75 17.85 112.1 19.1 93.35 19.1 84.1 19.1 80.8 12.95 56.85 6.8 32.9 6.8 30.3 6.8 20.5 13.2 16.05
L 19.4 12.25
Q 23.45 9.75 26.15 6.75 29.15 12.95 31.5 15.6
L 35.55 19.75
Q 36.45 19.7 37.1 19.1
L 35.95 17.2 35.35 16.3
Q 36.6 11.7 36.45 8.35
M 78.15 40.1
Q 75.65 41.65 75.15 45.7
L 75 55.05
Q 74.9 70.75 67.3 83.1 57.45 72.85 52.5 65.85 49.6 61.8 46.45 55.55 43.45 49.55 40.25 45.2 35.1 38.1 24.85 27.65 28.55 22.5 28.55 20.8 28.55 20.3 27.7 19.8 26.35 19.05 23.65 19.05 23.4 19.05 19.35 22.25 20.9 23.8 23.45 25.3 24.6357421875 25.9916015625 24.65 27.5 24.628125 26.9546875 23.95 27.1
L 22.4 27.4
Q 46.25 62.4 51.65 69.45 60 80.4 67.3 84.85 67 87.05 69.05 90.45 71.15 93.95 71.15 94.55 71.15 97.35 68.6 105.05 65.6 114.15 65.3 115.65 65.8 116.8 66.2 117.25
L 66.75 117.65
Q 74.85 101.35 74.85 97.85 74.85 96.4 72.65 91.85 70.45 87.25 70.45 84.85 70.45 82.55 72.35 79.45 74.7 75.6 75.85 69.35
L 76.25 69.75 78.55 69.75 78.85 69.3 78.8 68.4 77.3 68.35 76 68.4
Q 77.75 59.75 78.4 51.85 79.05 43.65 78.15 40.1
M 53.7 22
L 47.6 19.4
Q 46.2 19.4 42.6 21.6 39.15 23.75 39.15 24.35
L 52.5 47.5
Q 53.85 49.85 58.15 60.85 62.85 72.85 65.1 77.4 66.6 76.5 67.85 73.4 69.25 69.95 69.25 66 69.25 53.15 65.8 39.65 65.25 37.45 62.15 31.1 59.25 25.1 59.25 24.75 59.25 24.6 53.7 22
M 43.75 24.35
L 46.75 22.05
Q 56.85 24.55 61.95 37.3 66.65 48.9 66.65 67.45
L 66.5 70.25 66.35 70.45
Q 66.1 70.85 65.9 71.8 65.25 69.4 59.85 57.7 54.05 45.2 50.3 38.6 47.35 33.4 46.35 28.5 45.8 25.5 43.75 24.35 Z"/>
</g>

<g id="Graphics_Symbol_654_0_Layer1_0_FILL">
<path fill="#000000" fill-opacity="0.5019607843137255" stroke="none" d="
M 65.7 24.05
Q 67.25 20.65 67.5 15.4 67.7 10.5 66.7 6.75 65.6 2.8 63.85 2.8 64.9 2.85 45.3 8.05
L 42.7 4.6
Q 40.65 2.35 35.9 2.35
L 33.75 1.85
Q 31.4 1.7 29.8 3.55
L 29.2 8.4 28.7 11.75
Q 28.7 14.7 30.15 20.9 31.65 27.35 32.8 28.3 37.5 28.05 39.15 27 40.15 26.35 40.4 24.9 40.65 23.45 41.55 22.95 43.05 22.1 47.55 22.1 48.05 22.1 52.85 25.05 57.65 28 60.65 28 63.85 28 65.7 24.05
M 65 12.1
Q 65.15 14.3 64.1 18.95 63 23.95 61.65 25.6 56.9 23.65 51.9 22.2 50.35 21.75 49 20.1
L 48.45 19.45 51.85 19.2 55.05 19.65 58.25 20.05 59.5 19.95
Q 59.9 19.8 60.05 18.7
L 57.6 17.5 54.6 15.85 53.55 15.05 57.9 14.25
Q 60.15 13.8 60.15 12.5
L 60.05 10.45 54.2 11.35
Q 55.9 8.15 58.4 6.9
L 65 4.7 65 12.1
M 45.25 19.45
L 46.1 19.7
Q 43 22.05 39.35 23.9 35.2 26 33.9 25.55
L 31.2 15.5
Q 32.45 10.55 33.15 4.9 35.3 6.05 40.15 6.55 44.2 7.55 45.45 11.8
L 45.15 12.8
Q 44.5 12.35 42.3 11.25 40.05 10.1 39.6 9.95
L 38.25 10.4 38.1 11.45
Q 38.8 12.5 40.35 13.55 42.5 15 44.55 15.05 40.4 15.3 38.3 18.55
L 45.25 19.45
M 46.05 10
L 52.1 10 52.1 16.1 46.05 16.1 46.05 10 Z"/>
</g>

<g id="Graphics_Symbol_654_0_Layer0_0_FILL">
<path fill="#FFFFFF" fill-opacity="0.32941176470588235" stroke="none" d="
M 37.3 10.75
Q 38.9 10.75 40.05 10.15 41.15 9.5 41.15 8.65 41.15 7.8 40.05 7.2 38.9 6.55 37.3 6.55 35.7 6.55 34.6 7.2 33.45 7.8 33.45 8.65 33.45 9.5 34.6 10.15 35.7 10.75 37.3 10.75
M 47.05 15.6
L 48.9 16
Q 50 16 50.8 15.6 51.55 15.15 51.55 14.55 51.55 13.95 50.8 13.55
L 48.9 13.1
Q 47.8 13.1 47.05 13.55 46.25 13.95 46.25 14.55 46.25 15.15 47.05 15.6
M 63.35 9.7
Q 64.35 9.15 64.35 8.35 64.35 7.55 63.35 7 62.35 6.45 60.9 6.45 59.45 6.45 58.45 7 57.45 7.55 57.45 8.35 57.45 9.15 58.45 9.7
L 60.9 10.25
Q 62.35 10.25 63.35 9.7 Z"/>
</g>
</defs>

<g transform="matrix( 1, 0, 0, 1, -33.5,-72.6) ">
<g transform="matrix( 1, 0, 0, 1, 0,0) ">
<use xlink:href="#Parts_Bodies_bodyMC_27_Layer16_0_FILL"/>
</g>

<g transform="matrix( 1, 0, 0, 1, 0,0) ">
<g transform="matrix( 1, 0, 0, 1, 0,0) ">
<use xlink:href="#Graphics_Symbol_613_0_Layer0_0_FILL"/>
</g>
</g>

<g transform="matrix( 1, 0, 0, 1, 0,0) ">
<g transform="matrix( 1, 0, 0, 1, 0,0) ">
<use xlink:href="#Graphics_Symbol_654_0_Layer4_0_FILL"/>
</g>

<g transform="matrix( 1, 0, 0, 1, 0,0) ">
<use xlink:href="#Graphics_Symbol_654_0_Layer3_0_FILL"/>
</g>

<g transform="matrix( 1, 0, 0, 1, 0,0) ">
<use xlink:href="#Graphics_Symbol_654_0_Layer2_0_FILL"/>
</g>

<g transform="matrix( 1, 0, 0, 1, 0,0) ">
<use xlink:href="#Graphics_Symbol_654_0_Layer1_0_FILL"/>
</g>

<g transform="matrix( 1, 0, 0, 1, 0,0) ">
<use xlink:href="#Graphics_Symbol_654_0_Layer0_0_FILL"/>
</g>
</g>
</g>
</svg>
