
<svg xmlns="http://www.w3.org/2000/svg" version="1.1" xmlns:xlink="http://www.w3.org/1999/xlink" preserveAspectRatio="none" x="0px" y="0px" width="550px" height="400px" viewBox="0 0 550 400">
<defs>
<g id="Layer0_0_FILL">
<path fill="#000000" fill-opacity="0.25098039215686274" stroke="none" d="
M 85.25 85.9
L 84.5 84.2
Q 83.8 82.3 83.8 80.3
L 84.8 79.5
Q 85.5 78.45 84.1 76.65
L 84.8 72.85
Q 84.8 68 80.1 64.75 74.4 61.65 72.35 59.85 71.65 59.2 68.95 51.6 66.5 44.7 64.7 44.7 63.9 44.7 63.45 45.4
L 62.2 47.35
Q 59.35 51.05 50.45 54.9
L 37.45 60.05
Q 26.8 64.3 9.15 72.35 35.3 98.5 39.55 106
L 42.3 112.8
Q 44 117.65 47.5 123.55 54.4 135.25 62.2 140.7 68.45 145.05 74.75 145.05 85.25 145.05 91.45 139.15 96.9 133.95 96.9 126.9 96.9 119.8 93.7 113.15 90.5 106.5 90.5 104.45 94.25 102.4 98 100 105.45 95.15 105.45 93.2 105.45 89.8 102.25 87.05 99.05 84.35 94.95 84.35 91.2 84.35 88 85.1
L 85.25 85.9
M 89.9 93.95
L 92.4 94.5 86.75 99.65
Q 84.5 101.85 84.5 103 84.5 107.5 85.5 110.3 85.95 111.7 86.45 112.25
L 85.4 114.65
Q 84.3 116.55 84.3 117.6 84.3 120.7 89 123.35 93.7 125.95 93.7 127.85 93.7 130.4 92.5 131.45 91.4 132.45 88.75 132.45
L 83.7 130.95
Q 84.45 132.75 83.7 133.85 82.85 135.1 80.2 135.1 73.6 135.1 67.15 128.3 62.9 123.8 52.95 109.05 51.85 102.1 48.8 95.1 42.75 81.25 29.8 76.3 46.85 70.9 53.1 66.85
L 57.9 63.2
Q 61 60.6 63.8 58.8
L 64.75 62.8
Q 65.3 65.1 65.75 66.15
L 71.5 65.05
Q 73.6 65.05 75.55 68.05 78.1 72 78.1 79
L 77.5 79.95
Q 76.9 80.8 76.9 82.9 76.9 85.9 79.45 89.35 82.75 93.85 87.9 93.85
L 89.9 93.95 Z"/>
</g>
</defs>

<g transform="matrix( 1, 0, 0, 1, 0,0) ">
<use xlink:href="#Layer0_0_FILL"/>
</g>
</svg>
