
<svg xmlns="http://www.w3.org/2000/svg" version="1.1" xmlns:xlink="http://www.w3.org/1999/xlink" preserveAspectRatio="none" x="0px" y="0px" width="550px" height="400px" viewBox="0 0 550 400">
<defs>
<g id="Layer0_0_FILL">
<path fill="#FFFFFF" fill-opacity="0.25098039215686274" stroke="none" d="
M 65.7 94.35
Q 60 87.45 51.85 79.65
L 51.45 83.3 50.9 83.3
Q 50.6 93.75 52.95 98.95 53.8 100.75 55.25 102.65
L 57.75 105.8
Q 61.15 110.65 68.05 116.1 75.05 121.6 77.85 121.6
L 79.6 120.75
Q 81.45 119.9 82.25 119.9
L 86.4 119.65 85.9 117.8 84.25 117.55 77.65 118.3 72.3 117.85
Q 72.5 116.75 72.3 115.4
L 72.1 113.6
Q 72.1 108.95 76.4 104.45
L 79.3 101.65
Q 80.65 100.4 80.65 99.95 80.65 98.85 80.1 98.05 79.4 97 78.1 97
L 69.75 99.35 65.7 94.35 Z"/>
</g>
</defs>

<g transform="matrix( 1, 0, 0, 1, 0,0) ">
<use xlink:href="#Layer0_0_FILL"/>
</g>
</svg>
