
<svg xmlns="http://www.w3.org/2000/svg" version="1.1" xmlns:xlink="http://www.w3.org/1999/xlink" preserveAspectRatio="none" x="0px" y="0px" width="550px" height="400px" viewBox="0 0 550 400">
<defs>
<g id="Layer0_0_FILL">
<path fill="#000000" stroke="none" d="
M 73.1 71.15
Q 72.1 72.15 72.1 73.6 72.1 75.05 73.1 76.05 74.1 77.05 75.55 77.05 77 77.05 78 76.05 79 75.05 79 73.6 79 72.15 78 71.15 77 70.15 75.55 70.15 74.1 70.15 73.1 71.15
M 90.3 83.85
L 86.9 85.1
Q 86.35 85.1 85 84.2 83.25 83.05 83.25 81.45
L 83.85 79.4
Q 83.25 81.25 81.7 82.4 79.95 83.7 78 83.7
L 76.15 84.7
Q 73.8 85.7 71.2 85.7 67.5 85.7 64.7 82.4 62.1 79.3 62.1 75.6 62.1 71.1 65.9 67.1 69.05 63.8 70.8 63.8 71.8 63.8 71.9 64.2
L 73.35 64.25
Q 74.15 64.3 74.15 63.7 74.15 63.05 74.6 62.95
L 75.8 62.9
Q 76.05 62.9 77.2 63.6 78.75 64.6 80.05 65.95 84.2 70.3 84.2 76.8
L 83.95 79.15 85.2 74.6
Q 85.2 70.35 83.9 67.6 82.55 64.6 79.3 62.5 76.8 61.05 73.05 61.25
L 66.1 43 55.05 49.7
Q 46.3 54.8 41.4 56.95 36.35 47.1 28.8 39.1 18.9 28.6 10.45 28.6
L 9.05 28.8 8.4 29
Q 17.3 32.1 26.85 42.45
L 39.3 58 21.15 64.45
Q 8.4 68.8 8.4 71 8.4 72.9 15.35 79.8
L 23.45 87.35
Q 27.5 90.9 33 97.25 40.5 105.85 42.1 110.8
L 39.4 110.4
Q 56.65 146 72.5 146 82.7 146 90.75 141.05 98.05 136.6 98.05 132.15 98.05 131.65 98.55 129.85
L 99 127.5
Q 99 124.5 98.05 122.35 97.1 120.2 97.1 117.8
L 94.95 113.65
Q 92.5 108.75 91.1 105 94.8 102.45 102.6 98.95 106.3 97.25 106.3 94.25 106.3 90.55 102.85 86.75 99.05 82.6 94.5 82.6 93.75 82.6 90.3 83.85
M 87.1 88.7
Q 88.15 89 90.65 87.2 93.3 85.3 94.1 85.3 97.25 85.3 100.35 87.9 103.6 90.65 103.6 93.7 103.6 97.7 95.75 99.8
L 90.35 101.25
Q 87.9 102.15 87.9 103.5 87.9 104.85 89.3 107.5
L 94.1 116.7 84.05 118.5 73.4 116.1
Q 72.3 116.1 71.65 116.95 71 117.8 71 119.2 71 120.65 72.55 123.3 74.3 126.35 77 128.85 84.5 135.65 94.1 134.1 91.05 138.3 86.9 140.35 81.85 142.8 74.15 142.8 65.75 142.8 59.5 135.55 55.6 131.1 48.5 117.6 40.55 102.5 34.75 94.5 24.85 80.9 11.7 71.8
L 43.85 59.75
Q 55.85 54.5 65.3 46.5
L 69.9 61.75
Q 63.6 64.7 60.9 68.25 58.4 71.5 58.4 76.1 58.4 82.55 64.35 86.3 68.6 89 71.9 89 79.4 89 81.55 84.3 82.3 85.55 84.2 87.05 86.1 88.55 87.1 88.7
M 92.5 121.5
Q 94.85 120.95 95.65 120.4 96.3 122.35 96.3 124.45
L 95.6 130.4
Q 89.15 130.05 84.3 129 75 126.95 74.1 119.8 82.9 122.1 87.75 122.1
L 92.5 121.5 Z"/>

<path fill="#5C0101" stroke="none" d="
M 95.65 120.4
Q 94.85 120.95 92.5 121.5
L 87.75 122.1
Q 82.9 122.1 74.1 119.8 75 126.95 84.3 129 89.15 130.05 95.6 130.4
L 96.3 124.45
Q 96.3 122.35 95.65 120.4 Z"/>
</g>
</defs>

<g transform="matrix( 1, 0, 0, 1, 0,0) ">
<use xlink:href="#Layer0_0_FILL"/>
</g>
</svg>
