
<svg xmlns="http://www.w3.org/2000/svg" version="1.1" xmlns:xlink="http://www.w3.org/1999/xlink" preserveAspectRatio="none" x="0px" y="0px" width="550px" height="400px" viewBox="0 0 550 400">
<defs>
<g id="Graphics_Symbol_782_0_Layer0_0_FILL">
<path fill="#FFFFFF" stroke="none" d="
M 145.05 123.9
Q 141.55 115 134 110.05
L 97.8 121 99.15 135.2 102.05 134.65 101.3 133.5
Q 98.7 129.25 99.75 124.15
L 100.1 122.7 134.45 112.25 141.7 122.3 103.75 134.3 145.05 123.9 Z"/>
</g>

<g id="Graphics_Symbol_829_0_Layer2_0_FILL">
<path fill="#000000" stroke="none" d="
M 98.9 58.65
Q 91.9 54.15 84.2 51.45 75.95 48.55 67.25 48 59.25 47.45 51.7 50.45 42.7 53.95 35.1 59.65 30 63 26.75 67.9 15.55 84.6 15.15 104.6 14.85 120 22.5 133.3 25.15 137.9 29.7 140.1 32.05 141.25 34.65 141.6 46.8 143.3 58.7 146.55 63 147.75 66.55 150 71.25 152.85 76.65 152.95 81.85 153.1 86.6 150.45 93.35 145.75 97.8 138.55
L 147.05 125.05 146.25 122.65
Q 143.15 114.15 137.05 107.75 129.65 107.15 122.9 109.4 116.45 111.4 110.35 114.7 103.2 117.9 95.75 120.2 94.25 118.55 93.6 116.6 92.6 113.7 92.65 110.65 92.7 106.45 94.55 102.6 97.15 97.35 102.25 94.5 111.45 89.4 122.1 87.75
L 120.5 83.95
Q 117.05 76.4 111.65 69.95 106.1 63.35 98.9 58.65
M 118.2 85.8
L 104.15 89.7
Q 100.4 90.8 97.5 93.2 91.25 98.65 90.1 106.85 89 114.75 92.8 121
L 95.2 121.2
Q 94.15 123.7 95 129.05 95.5 132.55 96.55 135.85
L 95.85 135.95 95.05 136.9
Q 90.55 143.1 85.15 148.5 82.3 151.4 78.35 150.8 70.15 149.65 63 145.7
L 52.65 140.2 40.9 141.8
Q 32.05 142.6 27.25 134.95 22.65 127.5 20.5 119.05 18.5 111.05 18.2 103 17.8 95.05 20.4 87.35
L 25.35 72
Q 33.7 60.8 46.55 54.3 62.85 46.75 80.2 52.4 94.25 56.85 104.1 67.4 106.7 70.1 109 72.95
L 114.6 79.7
Q 117 82.45 118.2 85.8
M 134 110.05
Q 141.55 115 145.05 123.9
L 103.75 134.3 141.7 122.3 134.45 112.25 100.1 122.7 99.75 124.15
Q 98.7 129.25 101.3 133.5
L 102.05 134.65 99.15 135.2 97.8 121 134 110.05
M 133.8 114.85
L 137.85 121.1 116.05 128.9 102.85 131.7 102.25 124.45 133.8 114.85
M 70.35 127.95
Q 68.4 129.1 68.9 132.7 69.25 135.3 70 136.6
L 72.6 138.95
Q 76 140.75 80.65 138.05 83.7 136.3 83.8 133.6 83.9 131.95 82.9 130.15 81.95 128.3 79.9 127.05 75.9 124.75 70.35 127.95
M 79.5 130.55
Q 80.25 130.8 80.5 131.25 81.25 132.5 81.15 133.35 81.05 134.6 79.55 135.45 75.85 137.6 72.25 135.35 71.75 134.55 72.6 132.75 73.75 130.05 77.85 129.05
L 78.5 129.85 79.5 130.55 Z"/>

<path fill="#A6A6A6" stroke="none" d="
M 80.5 131.25
Q 80.25 130.8 79.5 130.55
L 78.5 129.85 77.85 129.05
Q 73.75 130.05 72.6 132.75 71.75 134.55 72.25 135.35 75.85 137.6 79.55 135.45 81.05 134.6 81.15 133.35 81.25 132.5 80.5 131.25 Z"/>
</g>

<g id="Graphics_Symbol_829_0_Layer1_0_FILL">
<path fill="#000000" fill-opacity="0.25098039215686274" stroke="none" d="
M 89.2 74.6
Q 98.35 79.05 98.7 83.95 99 87.85 94.4 93.65 89.7 99.55 89.7 101.5
L 89.9 103.45
Q 90.2 104.5 91.1 105.15 91.7 97.75 104.45 91.85 117.2 85.9 118.6 87.3 120 88.7 120 86.3 120 81.55 111.8 72.1 104.2 63.25 98.8 60.4 85.65 53.45 78.4 51 71.4 48.55 58.6 48.7
L 54.6 50.25
Q 45.75 53.55 44.8 54 43.05 54.8 37.2 58.25
L 33.85 60.25 33.4 60.7
Q 22.7 72.4 18.85 85.75 15 99.1 15 108.45 15 114.8 17.85 123.15 20.45 130.85 22.2 133 23.95 135.1 29.05 138.6 34.1 142.05 40.6 143
L 49.15 144.35 59.85 147.1 67.75 149.1
Q 68.75 149.1 68.9 147.85
L 55.75 135.2 56.3 133
Q 43.65 137.05 36.65 124.25 31.7 115.25 31.7 106.05 31.7 93.5 41.15 83 52.65 70.3 71.9 70.3 80.35 70.3 89.2 74.6 Z"/>
</g>

<g id="Graphics_Symbol_829_0_Layer0_0_FILL">
<path fill="#FFFFFF" fill-opacity="0.25098039215686274" stroke="none" d="
M 66.85 87.4
Q 60.2 87.4 55.45 92.9 50.95 98.15 50.95 104.8 50.95 109.4 53.35 111.85 55.65 114.2 59.8 114.2 66.25 114.2 72.05 110.35 78.7 106 78.7 99.55 78.7 96.05 75.95 92.25 72.45 87.4 66.85 87.4 Z"/>
</g>

<g id="Parts_Heads_headColorMC_14_Layer1_0_FILL">
<path fill="#663399" stroke="none" d="
M 105.7 66.7
Q 95.6 56 81.2 51.5 63.4 45.75 46.7 53.4 33.55 60 24.95 71.4
L 19.9 86.95
Q 17.25 94.75 17.65 102.85 17.95 111 20 119.15 22.2 127.7 26.9 135.25 31.85 143.05 40.9 142.2
L 52.95 140.6
Q 58.3 143.2 63.55 146.15 70.9 150.2 79.3 151.35 83.35 151.95 86.25 149 91.8 143.55 96.4 137.25
L 97.25 136.3 97.95 136.2
Q 96.85 132.85 96.35 129.3 95.5 123.85 96.55 121.3
L 94.1 121.1
Q 90.2 114.75 91.35 106.75 92.5 98.4 98.9 92.9 101.9 90.45 105.75 89.35 113.15 87.2 120.15 85.4 118.9 82 116.45 79.2
L 105.7 66.7 Z"/>
</g>
</defs>

<g transform="matrix( 1, 0, 0, 1, -62.75,-76.85) ">
<g transform="matrix( 1, 0, 0, 1, 0,0) ">
<g transform="matrix( 1, 0, 0, 1, 0,0) ">
<use xlink:href="#Graphics_Symbol_782_0_Layer0_0_FILL"/>
</g>
</g>

<g transform="matrix( 1, 0, 0, 1, 0,0) ">
<g transform="matrix( 1, 0, 0, 1, 0,0) ">
<use xlink:href="#Graphics_Symbol_829_0_Layer2_0_FILL"/>
</g>

<g transform="matrix( 1, 0, 0, 1, 0,0) ">
<use xlink:href="#Graphics_Symbol_829_0_Layer1_0_FILL"/>
</g>

<g transform="matrix( 1, 0, 0, 1, 0,0) ">
<use xlink:href="#Graphics_Symbol_829_0_Layer0_0_FILL"/>
</g>
</g>

<g id="hat1" transform="matrix( 0.983917236328125, -0.17529296875, 0.17529296875, 0.983917236328125, 45.2,78.25) ">
<g id="colorMC" transform="matrix( 0.9999847412109375, 0, 0, 0.9999847412109375, 0,0) "/>

<g id="colorMC2" transform="matrix( 1, 0, 0, 1, 0,0) "/>
</g>

<g id="hat2" transform="matrix( 0.9733734130859375, -0.2247314453125, 0.2247314453125, 0.9733734130859375, 38,60.6) ">
<g id="colorMC_FL" transform="matrix( 0.9999847412109375, 0, 0, 0.9999847412109375, 0,0) "/>

<g id="colorMC2_FL" transform="matrix( 1, 0, 0, 1, 0,0) "/>
</g>

<g id="hat3" transform="matrix( 0.96026611328125, -0.2753753662109375, 0.2753753662109375, 0.96026611328125, 26,48.4) ">
<g id="colorMC_FL_FL" transform="matrix( 0.9999847412109375, 0, 0, 0.9999847412109375, 0,0) "/>

<g id="colorMC2_FL_FL" transform="matrix( 1, 0, 0, 1, 0,0) "/>
</g>

<g id="hat4" transform="matrix( 0.944580078125, -0.3252410888671875, 0.3252410888671875, 0.944580078125, 18.85,34.5) ">
<g id="colorMC_FL_FL_FL" transform="matrix( 0.9999847412109375, 0, 0, 0.9999847412109375, 0,0) "/>

<g id="colorMC2_FL_FL_FL" transform="matrix( 1, 0, 0, 1, 0,0) "/>
</g>
</g>

<g transform="matrix( 1, 0, 0, 1, -75.4,-101.9) ">
<g transform="matrix( 1, 0, 0, 1, 0,0) ">
<use xlink:href="#Parts_Heads_headColorMC_14_Layer1_0_FILL"/>
</g>
</g>

<g transform="matrix( 1, 0, 0, 1, -62.75,-76.85) ">
<g transform="matrix( 1, 0, 0, 1, 0,0) ">
<g transform="matrix( 1, 0, 0, 1, 0,0) ">
<use xlink:href="#Graphics_Symbol_782_0_Layer0_0_FILL"/>
</g>
</g>
</g>
</svg>
