
<svg xmlns="http://www.w3.org/2000/svg" version="1.1" xmlns:xlink="http://www.w3.org/1999/xlink" preserveAspectRatio="none" x="0px" y="0px" width="550px" height="400px" viewBox="0 0 550 400">
<defs>
<g id="Parts_Heads_headColorMC_14_Layer1_0_FILL">
<path fill="#663399" stroke="none" d="
M 105.7 66.7
Q 95.6 56 81.2 51.5 63.4 45.75 46.7 53.4 33.55 60 24.95 71.4
L 19.9 86.95
Q 17.25 94.75 17.65 102.85 17.95 111 20 119.15 22.2 127.7 26.9 135.25 31.85 143.05 40.9 142.2
L 52.95 140.6
Q 58.3 143.2 63.55 146.15 70.9 150.2 79.3 151.35 83.35 151.95 86.25 149 91.8 143.55 96.4 137.25
L 97.25 136.3 97.95 136.2
Q 96.85 132.85 96.35 129.3 95.5 123.85 96.55 121.3
L 94.1 121.1
Q 90.2 114.75 91.35 106.75 92.5 98.4 98.9 92.9 101.9 90.45 105.75 89.35 113.15 87.2 120.15 85.4 118.9 82 116.45 79.2
L 105.7 66.7 Z"/>
</g>
</defs>

<g transform="matrix( 1, 0, 0, 1, -75.4,-101.9) ">
<g transform="matrix( 1, 0, 0, 1, 0,0) ">
<use xlink:href="#Parts_Heads_headColorMC_14_Layer1_0_FILL"/>
</g>
</g>
</svg>
