
<svg xmlns="http://www.w3.org/2000/svg" version="1.1" xmlns:xlink="http://www.w3.org/1999/xlink" preserveAspectRatio="none" x="0px" y="0px" width="550px" height="400px" viewBox="0 0 550 400">
<defs>
<g id="Layer0_0_FILL">
<path fill="#EEEEEE" stroke="none" d="
M 108 -32
Q 88 -32 88 -12
L 88 246
Q 88 266 108 266
L 348 266
Q 368 266 368 246
L 368 -12
Q 368 -32 348 -32
L 108 -32 Z"/>
</g>

<path id="Layer0_0_1_STROKES" stroke="#CCCCCC" stroke-width="1" stroke-linejoin="round" stroke-linecap="round" fill="none" d="
M 108 -32
L 348 -32
Q 368 -32 368 -12
L 368 246
Q 368 266 348 266
L 108 266
Q 88 266 88 246
L 88 -12
Q 88 -32 108 -32 Z"/>
</defs>

<g transform="matrix( 1, 0, 0, 1, -88,32) ">
<use xlink:href="#Layer0_0_FILL"/>

<use xlink:href="#Layer0_0_1_STROKES"/>
</g>
</svg>
