
<svg xmlns="http://www.w3.org/2000/svg" version="1.1" xmlns:xlink="http://www.w3.org/1999/xlink" preserveAspectRatio="none" x="0px" y="0px" width="550px" height="400px" viewBox="0 0 550 400">
<defs>
<g id="Layer0_0_FILL">
<path fill="#FFFFFF" fill-opacity="0.32941176470588235" stroke="none" d="
M 85.3 107.6
L 86.1 108.6
Q 86.3 109 86.95 109 92.15 109 96.7 105 100.85 101.35 100.45 98.8 99.95 98.9 93.15 103.15 86.35 107.4 85.3 107.6
M 57.15 98.1
Q 58.5 95.6 58.35 94.05 55.95 93.9 54.4 96.45 53.05 98.65 53.05 101.4 53.05 104.15 54.9 105.8 56.65 107.3 58.5 106.9
L 58.75 106.5 56.5 103.25
Q 55.7 102.05 55.7 101.55 55.7 100.7 57.15 98.1
M 50.4 66.6
Q 50 66.95 50 67.45 50 67.95 50.4 68.3 50.75 68.65 51.25 68.65
L 52.15 68.3 52.5 67.45
Q 52.5 66.95 52.15 66.6 51.75 66.25 51.25 66.25 50.75 66.25 50.4 66.6
M 78.6 67.5
L 75.75 71.05
Q 75.9 71.5 76.2 71.75 79.55 68.65 80.85 66.25
L 81.65 63.85
Q 81.15 64.15 78.6 67.5
M 70.15 71.45
L 69.55 72.75
Q 69.55 74.35 70.1 74.5
L 71.05 74.75 71.65 69.7 71.4 69.4
Q 70.8 70.2 70.15 71.45
M 35.1 65
L 36.3 67.25
Q 35.1 68.6 35.05 70.6 35.05 72.6 36.45 72.6 37.8 72.6 38.95 71.7 40.1 70.75 41.5 68.5
L 40.9 72.45 41.5 72.75 42.25 72.8
Q 43.1 72.8 44.25 72.25 45.6 71.6 46.4 70.55
L 46.45 69.9
Q 45.35 69.75 43.8 69.9 46.5 67.15 47.85 64.2 48.95 61.8 48.75 60.35
L 48.6 60.25 46.25 61.4 43.45 63.3 49.75 55.55 49.7 54.95 49.4 54.9
Q 47.4 55.35 42.25 58.8 36.55 62.55 35.1 65
M 110.65 93.85
Q 110.65 94.8 111.35 95.5 112.05 96.15 113 96.15 113.95 96.15 114.65 95.5 115.35 94.8 115.35 93.85 115.35 92.9 114.65 92.25 113.95 91.55 113 91.55 112.05 91.55 111.35 92.25 110.65 92.9 110.65 93.85
M 107.35 77.2
Q 106.5 76.35 105.3 76.35 104.1 76.35 103.25 77.2 102.4 78.05 102.4 79.25 102.4 80.45 103.25 81.3 104.1 82.15 105.3 82.15 106.5 82.15 107.35 81.3 108.2 80.45 108.2 79.25 108.2 78.05 107.35 77.2
M 89.1 79.55
Q 86 79.55 81.75 84.5 79.6 87 78.1 89.6 78.1 92.5 79.35 93.85 80.7 95.3 83.7 95.3 88.35 95.3 90.85 92.8 92.9 90.7 92.9 87.7 92.9 83.25 91.9 81.3 91 79.55 89.1 79.55
M 95.1 56.65
Q 93.65 56.65 90.55 58.2
L 87.3 59.95 87.45 60.5
Q 88.95 61.05 92.15 59.7 95.3 58.35 96.15 56.85
L 96.1 56.8 95.1 56.65 Z"/>
</g>
</defs>

<g transform="matrix( 1, 0, 0, 1, 0,0) ">
<use xlink:href="#Layer0_0_FILL"/>
</g>
</svg>
