
<svg xmlns="http://www.w3.org/2000/svg" version="1.1" xmlns:xlink="http://www.w3.org/1999/xlink" preserveAspectRatio="none" x="0px" y="0px" width="550px" height="400px" viewBox="0 0 550 400">
<defs>
<g id="Layer0_0_FILL">
<path fill="#000000" fill-opacity="0.25098039215686274" stroke="none" d="
M 64.55 98.65
Q 62.95 95.35 59.7 95.35 58.15 95.35 58.15 99.25 58.15 101.6 59.75 102.65 61.35 103.8 65.8 104.35 65.8 101.1 64.55 98.65
M 99.55 76.9
Q 98.2 76.9 97.3 78.75 96.5 80.3 96.5 81.75 96.5 83.15 97.25 84.45 98.3 86.25 100.25 86.1
L 100.3 85.8 99.15 82.05
Q 99.15 81.55 99.9 79.35
L 100.5 77 99.55 76.9
M 111 70.55
L 110.95 69.6
Q 106.1 71.5 99.5 67.15 94.7 64 89.3 57.8 86.6 54.7 80.75 52.1 75.9 49.95 75.2 47.7 75.3 47.1 75.4 47.35
L 76.25 47.3
Q 76.75 47.1 76.75 46.15 76.75 43.2 73.3 41.5 69.9 39.85 64 39.85 43.15 39.85 32.65 53.6 22.15 67.4 22 82.55 21.8 97.7 25.95 107.6
L 27.3 110.5
Q 30 112.3 35.05 117.65 43.3 126.4 45.25 130.05
L 54.15 137.15
Q 61.6 141.3 69.25 143.35 79.45 142.75 89.5 138.4 101.15 133.35 102.55 131.05 103.95 128.75 104.15 127.8
L 104.3 126.3 108.6 117.1
Q 112.9 107.55 112.9 103.7 112.9 92.5 107.05 87.5 104.9 88.7 102.45 91.55 100.5 93.85 99.5 93.85 98.5 93.85 96.15 95.5 93.7 97.25 92.8 98.7
L 92.8 99.55
Q 92.85 100 93.5 100
L 95.15 99.75 101.3 96.05 102.55 100.6 102.2 101.6 100.15 104.5 101 104.05 101.65 103.6 97.4 107.8
Q 93.8 111.1 93.4 111.25
L 95.3 113.3
Q 96.35 113.3 103.2 109.3 104.3 109.3 105.1 109.95 105.85 110.6 105.85 111.4 105.85 118.35 95.25 127.6 84.1 137.35 73.85 137.35 61.8 137.35 55.1 129.85 49.25 123.3 44.75 107.35
L 43.05 112.9
Q 42.8 113.15 42.35 112.65
L 45.45 92.85
Q 45.45 92.35 44.95 92.25 44.4 92.1 44.4 91.6 44.4 88.2 45.85 83.5
L 47.3 78.6 47.3 77.95 47.25 78.05
Q 46.85 77.55 45.8 77.55 43.75 77.55 41.6 86.8 39.85 94.35 39.85 96.45
L 40.5 98.85
Q 41.15 101.3 41.15 103.1
L 40.95 106.75 40.2 107.1
Q 40 107 40.25 106.3
L 39.95 106.1
Q 39.9 106.6 38.4 108.1 36.9 109.6 36.35 109.7 30.9 100.45 29.5 97.65 27.4 93.65 27.4 89.45 27.4 66.05 39.7 54.85 49.8 45.65 66.6 45.65 69 45.65 70.05 46.7
L 72.25 49.15
Q 71.15 50.2 70.6 51
L 70.05 51.75
Q 71.85 52.8 72.65 52.85 74.7 54.1 85.55 63.5 78.65 66.4 75.9 70 74.1 72.25 73.9 75.25
L 74.2 76.6 75 76.65
Q 80.35 76.65 82.95 75.25 85.85 73.7 88.75 68.85
L 114.95 79.9
Q 117.6 81 119 81 121.15 81 121.15 78.3 121.15 74.75 116.1 72.95
L 112.6 71.8
Q 111 71.2 111 70.55 Z"/>
</g>
</defs>

<g transform="matrix( 1, 0, 0, 1, 0,0) ">
<use xlink:href="#Layer0_0_FILL"/>
</g>
</svg>
