
<svg xmlns="http://www.w3.org/2000/svg" version="1.1" xmlns:xlink="http://www.w3.org/1999/xlink" preserveAspectRatio="none" x="0px" y="0px" width="550px" height="400px" viewBox="0 0 550 400">
<defs>
<g id="Layer0_0_FILL">
<path fill="#000000" stroke="none" d="
M 94.3 65.75
L 92.05 66 91.9 66.7
Q 92.5 67.7 96.85 68.8
L 105.85 70.95
Q 118.35 74.1 118.35 78.25 118.35 81.2 109.6 82.55 100.85 83.9 100.85 86.75 100.85 87.75 101.25 88.4
L 102 88.45 107.4 88.05
Q 109.95 97.65 109.95 103.4 109.95 118.95 100.7 129.3 90.45 140.8 72.4 140.8 54.3 140.8 42.6 123.2
L 40.35 119.5
Q 38.15 119.45 36.4 117.85 39.7 124.85 44.75 130.4 56.95 143.85 72.8 143.85 93.25 143.85 103.65 130.85 112.25 120.15 112.25 103.85 112.25 99.4 111.5 93.7 110.8 88.8 110.3 87.4 117.35 84.6 119.4 83.1 121.6 81.45 121.6 78.9 121.6 73.95 110 69.65
L 97.45 65.85
Q 87.35 55.75 80.8 51.85 77.75 50.05 74.45 48.9
L 74.5 49.75 74.05 51.75
Q 80.15 53.6 85.4 57.35 90.65 61.15 94.3 65.75 Z"/>
</g>
</defs>

<g transform="matrix( 1, 0, 0, 1, 0,0) ">
<use xlink:href="#Layer0_0_FILL"/>
</g>
</svg>
