
<svg xmlns="http://www.w3.org/2000/svg" version="1.1" xmlns:xlink="http://www.w3.org/1999/xlink" preserveAspectRatio="none" x="0px" y="0px" width="550px" height="400px" viewBox="0 0 550 400">
<defs>
<g id="Layer0_0_FILL">
<path fill="#412E11" stroke="none" d="
M 96.05 92.15
Q 93.8 93.6 92.55 96.75 91.05 100.55 90.4 101.3 88.65 103.35 84.5 103.35
L 82.35 102.9
Q 80.95 101.8 80.1 97.65 77.9 98.3 76.8 99.75 76.1 100.65 76.1 101.2 76.1 107.45 81.3 110.8 83.95 112.5 86.65 112.9 92.5 112.9 100.15 108.35 108.9 103.15 109.85 96.7
L 113.7 98 115.85 97.3
Q 117.85 95.85 117.85 92 117.85 87.4 108.95 87.4
L 107.8 88.55
Q 108 89.6 108.75 90.15 108.6 91.65 108.4 91.45
L 106 90.1
Q 99.3 90.1 96.05 92.15
M 105.05 94.05
Q 106.6 94.75 106.6 95.7 106.6 98.15 100.6 103.45 93.6 109.65 86.8 109.65 83.35 109.65 80.15 105.05
L 80.9 105.45 81.8 105.75 84.95 106.4
Q 89.5 106.4 91.9 104.5 94.35 102.55 94.95 98.35 96.2 93.55 101.45 93.4 103.45 93.35 105.05 94.05
M 111.9 91.55
Q 112.4 91 113.1 91 113.8 91 114.3 91.55 114.8 92.05 114.8 92.75 114.8 93.45 114.3 94 113.8 94.5 113.1 94.5 112.4 94.5 111.9 94 111.4 93.45 111.4 92.75 111.4 92.05 111.9 91.55 Z"/>
</g>
</defs>

<g transform="matrix( 1, 0, 0, 1, 0,0) ">
<use xlink:href="#Layer0_0_FILL"/>
</g>
</svg>
