
<svg xmlns="http://www.w3.org/2000/svg" version="1.1" xmlns:xlink="http://www.w3.org/1999/xlink" preserveAspectRatio="none" x="0px" y="0px" width="550px" height="400px" viewBox="0 0 550 400">
<defs>
<g id="Layer0_0_FILL">
<path fill="#000000" stroke="none" d="
M 58.35 98.35
Q 59.65 98.7 60.4 97.75 61 96.95 61 95.85
L 58.7 95.45
Q 57.3 95.45 56.4 96.1 55.6 96.7 55.6 97.55 55.6 100.4 58.6 102.9 61.35 105.2 63.7 105.2 64.75 105.2 65.1 104.7
L 65.6 103.65
Q 59.55 100.7 58.35 98.35
M 56.75 91.1
Q 52.95 91.1 50.8 93.1 48.8 95 48.8 98.1 48.8 104.25 53.95 107.5 59.1 110.75 68.7 110.75
L 72.4 110.2
Q 73.45 109.75 74.15 108.6 62.25 108.5 57 106.1 51.35 103.45 51.35 97.15 51.35 92.95 56 94
L 60.05 95.25
Q 62.5 96.05 63.65 96.05
L 64.45 95.9 64.6 95.5 64.7 94.9
Q 64.7 93.55 63.35 92.55 61.35 91.1 56.75 91.1
M 87.65 71.25
Q 86.25 70.9 85.55 71.55
L 82.6 74.55
Q 80.55 76.35 77.35 79.7 74.4 82.75 74.4 82.9 74.4 83.4 74.9 83.7 75.5 84.05 75.65 84.3 78.15 84.15 82.75 78.85 87 73.9 87.85 71.25
L 87.65 71.25 Z"/>

<path fill="#412E11" stroke="none" d="
M 74.05 41.05
Q 71.45 38.75 69.3 38.75 41.1 38.75 30.3 55.5 22.35 67.85 22.35 93.75 22.35 104.5 30.6 114.15 34.75 119 38.95 121.65 41.85 121.65 43.75 118.55 46.1 114.7 46.1 106.85 46.05 100.8 46.55 94.45 47.6 81.85 50.6 77.45
L 59.05 86.05
Q 62.6 89.7 65.65 89.7 68.9 89.7 68.9 87.5 68.9 83.75 66.95 80.75
L 62.65 75.65
Q 56.35 68.65 56.35 58.65 56.35 57.6 59.25 54.8
L 62.25 52.2 66.6 53.05
Q 69.7 53.05 73.1 51.65 77.2 50 77.2 47.65 77.2 43.8 74.05 41.05
M 65.8 42.6
Q 66.3 43.1 66.95 43.1
L 67.9 42.55
Q 69.05 41.95 70.45 41.95 74.4 41.95 74.4 46.5 74.4 47.15 73.05 48.55 71.2 50.5 68.45 50.5 65.1 50.5 61.3 48.35 60.15 47.75 59.6 47.95 58.9 48.2 58.15 49.95
L 59.45 51.45
Q 56.45 52.25 54.75 55.25 53.9 56.75 53.6 58.2 53.6 62 56 66.8
L 66 86.75
Q 57.9 83.85 54.8 78.75
L 53.15 75.7
Q 52.35 74.5 51.05 74.5 47 74.5 45.15 81.4 43.9 86.1 43.3 96.6
L 42.15 111.8
Q 41.1 118.7 38.4 118.7 36.8 118.7 31.3 110.2 25.2 100.75 25.2 94.75 25.2 67.9 33 55.9 42.05 42.05 64.55 42.05 65.3 42.05 65.8 42.6
M 85.7 62.7
L 85.6 62.65 85.5 62.45
Q 81.4 62.4 78.25 67.25 74.75 72.45 72.3 73.05
L 71.95 72.2
Q 72.2 72 73.15 71.65 74.05 71.15 74.05 70.1 74.05 69.45 73.65 69.3
L 72.5 69.2
Q 69.2 69.8 69.2 71.5 69.2 73.3 69.75 74.5 70.45 75.95 71.85 75.95 74.25 75.95 78.7 72.2 83.75 67.85 85.7 62.7
M 97 58.25
L 95.9 57.05
Q 88.8 59.15 87.1 61.3 86.75 61.9 87.45 62.25
L 88.35 62.45 92.1 61.65
Q 95.95 60.45 97 58.25 Z"/>
</g>
</defs>

<g transform="matrix( 1, 0, 0, 1, 0,0) ">
<use xlink:href="#Layer0_0_FILL"/>
</g>
</svg>
