
<svg xmlns="http://www.w3.org/2000/svg" version="1.1" xmlns:xlink="http://www.w3.org/1999/xlink" preserveAspectRatio="none" x="0px" y="0px" width="550px" height="400px" viewBox="0 0 550 400">
<defs>
<g id="MovieClips_Symbol_228_19_Layer1_0_FILL">
<path fill="#568128" stroke="none" d="
M -26.7 -5.2
Q -29.95 -4.95 -33.5 -2.85 -38.65 1.55 -39.85 5.8 -41.05 10 -40.95 13.35 -40.85 16.65 -32.1 25.2 -23.35 33.75 -13.35 32.5
L 33.75 33.1
Q 37.8 33.1 43.95 26.6 50.55 19.6 51 13.95 51.45 8.25 46.75 8.35
L 30.95 8.8 6.9 7.55
Q 1.8 7.35 1.35 7.65 0.85 7.95 -7.25 0.95 -15.4 -6.1 -19.4 -5.8
L -26.7 -5.2 Z"/>
</g>
</defs>

<g transform="matrix( 1, 0, 0, 1, -28.15,-10.5) ">
<g transform="matrix( 1, 0, 0, 1, 0,0) ">
<use xlink:href="#MovieClips_Symbol_228_19_Layer1_0_FILL"/>
</g>
</g>
</svg>
