
<svg xmlns="http://www.w3.org/2000/svg" version="1.1" xmlns:xlink="http://www.w3.org/1999/xlink" preserveAspectRatio="none" x="0px" y="0px" width="550px" height="400px" viewBox="0 0 550 400">
<defs>
<g id="Graphics_Symbol_248_0_Layer0_0_FILL">
<path fill="#F5F578" stroke="none" d="
M 55 31.3
Q 52.7 26.9 46.9 25.2
L 39.2 24 37.95 30.9
Q 41.7 30.55 55 31.3
M 60.2 14.8
L 56.5 12.45
Q 53.1 10.15 52.25 10.2 52.5 11.55 52.25 13.8
L 59.85 14.8 60.2 14.8
M 61.65 24.2
L 61.8 23.35
Q 61.8 21.55 56.1 20
L 50.35 18.25
Q 50.35 17.7 50.05 17.8
L 48.95 18.1
Q 47.35 18.1 45.6 19.3
L 50.25 22.8
Q 52.9 24.55 53.7 24.45
L 61.5 24.45 61.65 24.2 Z"/>
</g>

<g id="Graphics_Symbol_288_0_Layer2_0_FILL">
<path fill="#000000" stroke="none" d="
M -22.45 -7.6
Q -32.25 -7.6 -38.65 -0.65 -43.65 4.8 -43.65 9.4 -43.65 12.7 -34.85 22.65 -26 32.65 -22.75 33
L -5.2 35.1 9.6 35.65 30.45 34.75
Q 35.85 33.8 38.2 33.8 46 33.8 52.3 35.8 58.85 37.9 61.15 37.95
L 61.3 38.05 61.35 37.45
Q 61.35 35.4 59.25 32
L 55.2 26.5 60.35 27.65 64.95 28.25
Q 66.5 28.25 65.65 24.9 64.7 21.4 61.9 18.85
L 64.35 19.6 66.15 19.9 67.05 19.8
Q 67.3 19.9 67.3 18.9 67.3 18.5 62.65 14.1
L 57.95 9.7
Q 57.95 7.85 46.85 6.4 33.9 4.75 18.15 6.25 0.3 7.95 -7.85 0.45 -11.5 -3.5 -13.6 -5 -17.2 -7.6 -22.45 -7.6
M -32.25 -2.15
L -34.45 -1.35
Q -26.7 -4.7 -21.55 -4.7 -15.55 -4.7 -9.6 0.15 -6.4 2.7 -2.8 6.75
L -3.35 7.8
Q -14.75 0.9 -17.05 1.2
L -10.65 6.35
Q -5.5 10.45 -2.15 12.05
L -6 12.3 -9.15 11.85 -12.35 11.4
Q -13 11.4 -13.05 11.65
L -13 12.35
Q -13.55 9.55 -15.05 8.8
L -18.55 6.85 -18.25 8.35
Q -17.35 13.75 -14.45 17.3 -12.95 19.05 -11.55 19.75
L -4.1 19.25 4.25 18.7
Q 4.8 18.7 6.5 19.95
L 8.55 21.2
Q 15.85 18.65 16.25 18.65
L 22.8 21.15 26.8 20.15 32.15 19.1 33.2 20.65
Q 34.55 22.1 36.3 21.75
L 36.25 22
Q 34.45 26.25 34.45 28.75
L 34.65 32.3 6.85 32.7
Q 4.1 32.7 -1.15 31.4 -6.35 30.05 -8.4 30.05 -12.8 31.25 -14.25 31.25 -21.45 31.25 -27.3 27.6 -32.55 24.3 -35.45 18.9 -36.4 17.15 -38.9 14.2 -40.85 11.9 -40.85 11 -40.85 10.4 -38.45 6.15 -35.45 0.85 -32.25 -2.15
M -1.3 9.3
L -0.4 9.25 5.2 8.45 12.3 7.75 19.95 8.75 26.85 9.7 30.95 9.2 35.05 8.7 39.9 9
Q 45.45 9.55 49.7 10.8 48.95 14.05 45.75 13.75 45 13.7 41.2 12.35
L 34.2 11.45 24.55 10.8
Q 19.05 10.8 16.1 12.1 14.2 13.35 13.65 13.35
L 10.75 11.85
Q 7.7 10.35 6.55 10.35
L 3.3 11 0.75 11.65 1.1 10.9 -1.3 9.3
M -11 16.95
Q -12 16.95 -11.95 14.75
L -11.5 14.85 -4.05 14.5
Q 1.3 13.2 8.6 13.2
L 12.85 16.2
Q 9.85 19.25 7.7 17.9
L 5.7 16.45
Q 4.4 15.65 3 15.65
L -11 16.95
M 61.8 23.35
L 61.65 24.2 61.5 24.45 53.7 24.45
Q 52.9 24.55 50.25 22.8
L 45.6 19.3
Q 47.35 18.1 48.95 18.1
L 50.05 17.8
Q 50.35 17.7 50.35 18.25
L 56.1 20
Q 61.8 21.55 61.8 23.35
M 45.2 16.35
L 43.5 16.9 43.75 16.8
Q 44.3 16.15 45.2 16.35
M 41.95 17.5
Q 42.95 17.5 43.2 17.15 42.25 19.45 41.15 20.05
L 39.35 20.3
Q 38.25 20.3 37.85 19.65
L 37.25 18.3
Q 36 16.25 29.8 16.25 28.1 16.25 25.5 17.2 22.95 18.15 22.4 18.15 18.1 16.4 16.2 15.85 18.55 14.45 24.5 13.8 29.7 13.8 34.9 15.3
L 36.8 14.8
Q 38.15 14.3 38.65 14.3
L 40.1 15.9
Q 41.5 17.5 41.95 17.5
M 59.85 14.8
L 52.25 13.8
Q 52.5 11.55 52.25 10.2 53.1 10.15 56.5 12.45
L 60.2 14.8 59.85 14.8
M 46.9 25.2
Q 52.7 26.9 55 31.3 41.7 30.55 37.95 30.9
L 39.2 24 46.9 25.2 Z"/>
</g>

<g id="Graphics_Symbol_288_0_Layer1_0_FILL">
<path fill="#000000" fill-opacity="0.5019607843137255" stroke="none" d="
M 44 23.35
L 43.55 23.15 42.6 22.9
Q 40.75 22.9 39.05 24.7 37.2 26.65 37.2 29.3 37.2 31.5 40.35 31.8
L 53.5 33.25 54.75 31.9
Q 53.9 30.55 51.1 29.95
L 43.55 28.7
Q 44.45 26.45 44 23.35
M 49.5 17
Q 47.85 17.05 46.7 18.35 45.8 19.4 45.8 20.15 45.8 23.05 51.85 24.65 56 25.75 59.55 25.75
L 61.3 25.6
Q 61.9 25.3 62.25 24.35 55.4 22.35 52.3 20.25 50.2 18.85 49.5 17
M 50.05 9.55
Q 44.45 8.75 43.15 8.15 41.8 7.55 36.1 7.35 30.4 7.1 24 7.25
L 1 7.25 0.4 7.65
Q -0.25 8.15 -0.25 8.75 -0.25 10.05 0.85 10.45
L 4.75 10.75 13.05 10 19 10.9 27.25 11.75 32.7 11.15 39.9 10.5
Q 44.5 10.5 46.9 11.25
L 50 12.2 50.25 11.15 50.05 9.55
M 61.85 17.6
L 62.25 16.5
Q 60.25 15.15 55.25 12.5
L 56.2 10.4 55 9.3
Q 54.2 8.8 52.8 8.45
L 51.5 9.25 51.25 9.6
Q 51.25 13.6 54.35 16.1 57.6 18.7 61.85 17.6
M -22.3 -6
Q -28.3 -6.35 -32.05 -3.45 -35.65 -0.75 -40 7.5
L -40.65 7 -41.9 6.65 -42.4 6.75 -42.05 6.9
Q -43.9 13 -36.35 21.55 -28.6 30.4 -18.75 32.25
L 2.45 33.9 17 34.9 20.05 35.25
Q 27.55 35.25 31.9 34.05 35.75 32.95 35.75 31.35
L 35.7 30.65 35.55 30.4 28.8 29.75
Q 25.6 29.2 25.45 27.45
L 23.5 27.25
Q 18.3 27.25 13.55 29.15 11.15 30.1 9.75 31.05 9.6 31.05 4 27.25
L -1.4 28.4 -7.55 29.5 -21.9 27.1
Q -21.25 25.75 -21.25 24.75 -21.25 22.05 -25.1 19.95 -31.5 16.35 -33.9 14.2
L -31.45 14.15 -31.1 13.75
Q -30.75 13.35 -30.75 12.75
L -32.25 11.35
Q -32.25 8.8 -27.8 3.15 -23.75 -2 -23.3 -2 -21.55 -2 -17.7 -0.5 -11.5 1.85 -5.8 6.8 -7.8 5.2 -9.3 4.3 -12.05 2.65 -14.9 2.65
L -17.25 3
Q -16.35 4.1 -11.45 8.2
L -5.1 13.15 -9.65 13.65 -11.55 13.85
Q -12.7 13.85 -18 1.5 -19.95 1.55 -21.15 3.6 -22.45 5.85 -22.45 9.95
L -22.2 12.65 -21.3 14.6 -21 14.75 -20.1 13.6 -19.55 12.4
Q -18.15 17.3 -14.5 21.75 -14.35 21.15 -13.8 20.65 -13.4 20.3 -13.2 20.3 -6.5 22.75 -4.05 22.75 -1.75 21 -1.25 21 2.35 21 7.25 22.4
L 11.45 23.75 25.4 22.75 30.6 22.15 33 21.8 33.45 22.1 35.95 24.75 36.75 24.5
Q 37.25 24.2 37.25 23.15 37.25 21.15 33.4 20.2
L 21.25 18.2
Q 21.2 15.75 24.2 15.65
L 28.85 15.5 33.9 16.05
Q 38.05 16.55 39.15 17.75 40.25 18.95 41.3 18.75
L 43.2 18.6
Q 43.75 18.9 43.75 17.9 43.75 15.6 39.75 14.2 35.6 12.75 28.5 12.75
L 18.05 13.35
Q 17.95 15.3 18.1 15.3
L 18.25 15.5 6.8 13.85 -3.2 13.1
Q -2.25 12.7 -2.25 11.75 -2.25 11.2 -4.35 10.15
L -4.5 10.05 -3.35 9.95 -1.35 9.9
Q -0.75 10.05 -1.25 8 -1.8 5.9 -9.05 0.15 -16.3 -5.65 -22.3 -6
M -11.9 18.35
Q -11.9 17.45 -12.5 16.25 -10.9 15.45 -9.05 15.45
L 2.15 15.95 14.3 18 13.6 19.35 10.15 19.5 -11.9 18.35 Z"/>
</g>

<g id="Graphics_Symbol_288_0_Layer0_0_FILL">
<path fill="#FFFFFF" fill-opacity="0.3333333333333333" stroke="none" d="
M -30.75 8.75
L -31.75 8.7
Q -31.75 11.8 -31.45 13.15
L -30.75 14.6 -29.85 13.75
Q -29.2 13.2 -28.95 12.4
L -30.7 11.35 -31.25 10.75 -31.05 9.75 -30.75 8.75
M -21.8 6.35
L -22.6 6.75 -22.25 7.1 -21.75 7.85 -21.8 6.35
M -7 24.45
L -6.55 23.75
Q -9.3 23.75 -13.25 25.05
L -17.4 26.3
Q -16.3 28.75 -12.8 28.75
L -5.45 27.75 -6.75 26.5
Q -7.2 26 -7.2 25.35
L -7 24.45
M -20 17.35
L -19.9 17.3
Q -21.3 15.9 -23 15.05 -22.35 14.65 -22 13.9 -21.65 13.2 -21.65 12.55
L -21.65 9.35 -21.75 8.25
Q -22.65 9.35 -24 10.25
L -23.6 10.85
Q -23.2 11.55 -23.2 12.15 -23.2 13.6 -24.15 14.7 -25.2 15.9 -26.5 15.7
L -27.1 15.65 -23.85 17.65 -23.3 17.95 -20 17.35
M -16.45 20.85
L -19.9 23
Q -20.4 23.25 -19.4 23.25
L -17.75 22.9 -15.05 22.25 -16.45 20.85
M -15.25 7.9
Q -15.25 10.55 -14.25 11.85 -12.9 13.65 -9.1 14.25
L -8.45 14.15 -8.25 12.85
Q -8.25 12.15 -9.65 10.4 -11.45 8.15 -14.45 5.9 -15.25 6.85 -15.25 7.9
M 28.15 25.15
L 26.25 25.2
Q 26.3 27 25.8 27.95 25.25 29.05 23.7 29.8
L 27.65 29.8
Q 31.75 30.05 34.75 26.75
L 28.15 25.15
M 18.85 24.4
L 5.15 24.4 5.15 28.25 18.85 28.25 18.85 24.4
M 6.15 17.7
Q 7 18.25 8.25 18.25 9.5 18.25 10.4 17.7 11.25 17.1 11.25 16.25 11.25 15.4 10.4 14.85 9.5 14.25 8.25 14.25 7 14.25 6.15 14.85 5.25 15.4 5.25 16.25 5.25 17.1 6.15 17.7
M 19.1 10.35
L 14.35 10.35 14.35 13.2 19.1 13.2 19.1 10.35
M 51.1 18.1
L 51 18.25 50.9 18.5
Q 50.75 18.8 50.75 19.4 50.75 20 53.5 21.75 56.6 23.75 59 23.75 59.5 23.75 60.75 22.35 58.55 19.95 55.05 18.75
L 51.9 18.05 51.1 18.1
M 46.15 24.4
L 45.45 24.7 45.3 24.9 45.25 25.6
Q 45.25 26.4 48.2 28.35 51.1 30.25 52.1 30.25
L 53 30 53.75 28.75
Q 52.95 27.85 50.05 26.25 47.35 24.75 46.15 24.4
M 46.3 10.8
Q 44.8 10.25 42.75 10.25 40.7 10.25 39.25 10.8 37.75 11.3 37.75 12 37.75 12.7 39.25 13.25
L 42.75 13.75 46.3 13.25
Q 47.75 12.7 47.75 12 47.75 11.3 46.3 10.8
M 57 9.8
Q 55.7 9.8 54.8 10.7 53.9 11.6 53.9 12.85 53.9 14.1 54.8 15 55.7 15.9 57 15.9 58.3 15.9 59.2 15 60.1 14.1 60.1 12.85 60.1 11.6 59.2 10.7 58.3 9.8 57 9.8 Z"/>
</g>
</defs>

<g transform="matrix( 1, 0, 0, 1, -28.4,-10.7) ">
<g transform="matrix( 1, 0, 0, 1, 0,0) ">
<g transform="matrix( 1, 0, 0, 1, 0,0) ">
<use xlink:href="#Graphics_Symbol_248_0_Layer0_0_FILL"/>
</g>
</g>

<g transform="matrix( 1, 0, 0, 1, 0,0) ">
<g transform="matrix( 1, 0, 0, 1, 0,0) ">
<use xlink:href="#Graphics_Symbol_288_0_Layer2_0_FILL"/>
</g>

<g transform="matrix( 1, 0, 0, 1, 0,0) ">
<use xlink:href="#Graphics_Symbol_288_0_Layer1_0_FILL"/>
</g>

<g transform="matrix( 1, 0, 0, 1, 0,0) ">
<use xlink:href="#Graphics_Symbol_288_0_Layer0_0_FILL"/>
</g>
</g>
</g>
</svg>
