
<svg xmlns="http://www.w3.org/2000/svg" version="1.1" xmlns:xlink="http://www.w3.org/1999/xlink" preserveAspectRatio="none" x="0px" y="0px" width="550px" height="400px" viewBox="0 0 550 400">
<defs>
<g id="Layer0_0_FILL">
<path fill="#FFFFFF" stroke="none" d="
M 21 15
Q 23 17.7 23 19.5 23 20.4 22.2 23.7 21.6 26.45 22 27.75
L 24 27.75 25.05 23.9
Q 25.75 21.35 25.75 19.85 25.75 12.8 21.75 10.6 18.3 8.7 12.9 10.55 7.95 12.25 4 15.9 0 19.65 0 22.75 0 24.3 2.85 27.7 5.85 31.3 10.25 34.75 21.85 43.75 32.35 43.75 33.9 43.75 34 43.4
L 33.75 43 33.5 42.25
Q 29.3 39.7 22.85 36.8
L 13 32.35
Q 3 27.55 3 22.6 3 20.85 7 17 11.95 12.25 17.6 12.25 19 12.25 21 15
M 47.75 35.5
Q 48.1 36.5 53.5 36.5 56.6 36.5 66.85 33.6 76.3 30.9 78.5 29.75
L 78 29 66.35 32.25
Q 54.1 35.5 47.75 35.5
M 41.75 6.35
Q 41.75 4.8 41.15 3.1
L 40 0 38.75 0 38.5 1.1
Q 38.5 10.55 37.85 15.85
L 35.25 35.25 36.5 35.75
Q 38.35 32.8 40.1 22.55 41.75 12.85 41.75 6.35
M 62.5 5.85
Q 62.5 4.4 62.15 3.9
L 61.75 3.25
Q 57.6 7.1 51.2 18.9
L 41 37.5
Q 51.5 26 62.5 5.85 Z"/>
</g>
</defs>

<g transform="matrix( 1, 0, 0, 1, 0,0) ">
<use xlink:href="#Layer0_0_FILL"/>
</g>
</svg>
