
<svg xmlns="http://www.w3.org/2000/svg" version="1.1" xmlns:xlink="http://www.w3.org/1999/xlink" preserveAspectRatio="none" x="0px" y="0px" width="550px" height="400px" viewBox="0 0 550 400">
<defs>
<g id="Graphics_Symbol_704_0_Layer1_0_FILL">
<path fill="#000000" stroke="none" d="
M 50.5 -50.7
Q 50.6 -52 51.65 -53 51.8 -54.2 47.95 -57 25.95 -73.5 -0.2 -71.1 -33 -68.3 -58.45 -34.2 -73.1 -14.6 -66.6 17.15 -63.85 30.75 -57.45 42.4 -51.05 54.15 -42.8 60.2 -25.3 73.3 -14.55 75.2 -7.5 76.4 -4.7 72.6 -4.3 72 -6.3 66.15
L -11.15 52.4
Q -18.45 30.2 -17.6 17
L -17.25 13.2
Q -13.7 15.4 -10.1 16.9 -1.9 20.45 4.3 19.25 4.4 17.65 1.4 14
L -4.85 6.65
Q -10.65 -0.85 -11.2 -6.45 -7.7 -13.95 -2.25 -21.25 7.45 -34.25 24.75 -42.2 35.1 -47 50.5 -50.7
M 44.4 -53.2
L 44.5 -53.05
Q 30.6 -55 16.15 -44.95 5.05 -37.25 -5.15 -23.5 -11.75 -14.7 -15.9 -6.25 -14.6 -5.05 -13.3 -1.8
L -13.15 -2.15 -12.55 -0.85
Q -9.35 6.2 -2.1 14.25
L -2.9 14.05 -12.1 10.25 -14.9 9.85 -16.55 9.15 -19.95 7.2 -20.9 6.55 -21 7.6 -21.3 7.75 -22.05 9 -22.2 9.25 -21.7 10 -22.05 12
Q -26.8 37.4 -11.65 69.7
L -10.55 71.6
Q -15.4 70.3 -20.4 68.3 -30.3 64.5 -37.6 59.05 -63.7 39.6 -63.6 4.25 -63.45 -7.75 -60.35 -19.55 -57.85 -28.85 -55.7 -31.75 -39.2 -53.95 -17.3 -62.45 11.35 -73.8 39.15 -55.7
L 44.4 -53.2 Z"/>
</g>

<g id="Graphics_Symbol_704_0_Layer0_0_FILL">
<path fill="#000000" stroke="none" d="
M -17.5 -30.5
L -17.3 -43
Q -28.4 -39.45 -38.95 -33.1
L -39.6 -32 -39.45 -31.35
Q -39.9 -31.25 -38.6 -30.3 -36.95 -29.05 -30.55 -31.65 -24.95 -33.85 -21.55 -36.35 -21.7 -31.15 -21.35 -26.7 -20.95 -17.95 -18.8 -16.4 -18.25 -16 -17.65 -16.15
L -16.05 -16.75
Q -17.4 -21.65 -17.5 -30.5 Z"/>
</g>

<g id="Parts_Hats_hatsMC_10_Layer5_0_FILL">
<path fill="#000000" fill-opacity="0.25098039215686274" stroke="none" d="
M 1.05 17.65
L 2.1 16.75 0.4 15.1 0.85 15.35 1.9 15.65 -14.5 2.6
Q -20.95 -2.5 -23.65 -2.5 -30.3 -2.5 -30.3 14.25 -30.3 44.05 -26.5 53.9 -24.9 58.05 -21.7 61.6
L -14.85 68.55 -25.25 64.45 -25.2 64.55
Q -20.55 68.85 -15.65 71.2 -12.25 72.8 -10.75 72.8
L -9.55 72.5
Q -9 72.15 -9 71.05
L -14.7 47.1
Q -20.4 23.2 -20.4 15.1
L -19.35 10.1
Q -13 10.9 -8.7 14.65 -6.6 16.45 -5.5 17 -3.5 18 -0.6 18
L 1.05 17.65
M 40.7 -51.7
L 46.5 -54.7 45.6 -56.35 44.4 -57 34.05 -55.6 32.75 -55.35
Q 2.05 -48.25 -12 -30.35 -16.5 -24.6 -18.75 -18.4 -20.2 -14.5 -20.2 -12.7 -20.2 -9.1 -18.05 -6.6 -16.2 -4.5 -14.45 -4.5 -13.55 -4.5 -12.45 -5.5 -10.95 -6.75 -10.2 -9.25 -9.3 -12.1 -4.3 -19.7 1.85 -29.05 6.45 -31.75
L 40.7 -51.7 Z"/>

<path fill="#FFFFFF" fill-opacity="0.3333333333333333" stroke="none" d="
M 32.75 -55.35
L 34.05 -55.6 34.95 -56.2
Q 35.65 -56.8 35.65 -57.55 34.75 -60 31.25 -62.4 24.45 -67.15 11.9 -67.15 -4.75 -67.15 -23.55 -59.4 -42.2 -51.75 -47.7 -43 -50.5 -40.75 -52.95 -38.05 -57.7 -32.85 -59.55 -24.55 -64.35 -1.75 -64.35 0.45 -64.35 5.3 -62.3 18.3 -60.45 30.35 -59.95 31.3 -50.9 48.85 -39.9 59.2 -31.4 67.2 -26.95 67.2 -25.8 67.2 -25.45 66.6 -25.25 66.2 -25.2 64.55
L -25.25 64.45 -14.85 68.55
Q -24.25 63.45 -32.85 54.05 -41.4 44.75 -43.15 37.8 -45.95 26.8 -49.25 15.15 -51.15 7.95 -51.15 3 -51.15 -7.7 -49.2 -14.7 -47 -22.8 -41.45 -29.6
L -33.75 -40.75 -23.8 -45.4
Q -19 -47.6 -14.35 -49.3
L 5.05 -56.45
Q 10.45 -58.25 13 -58.25
L 21.3 -57.3 32.75 -55.35 Z"/>
</g>

<g id="MovieClips_PR2_Graphics_1_Apr_2014_fla_Symbol_667_10_Layer0_0_FILL">
<path fill="#FFFF00" stroke="none" d="
M 44.5 -53.05
L 44.4 -53.2 39.15 -55.7
Q 11.35 -73.8 -17.3 -62.45 -39.2 -53.95 -55.7 -31.75 -57.85 -28.85 -60.35 -19.55 -63.45 -7.75 -63.6 4.25 -63.7 39.6 -37.6 59.05 -30.3 64.5 -20.4 68.3 -15.4 70.3 -10.55 71.6
L -11.65 69.7
Q -26.8 37.4 -22.05 12
L -21.7 10 -22.2 9.25 -21.3 7.75 -21 7.6 -20.9 6.55 -16.55 9.15 -14.9 9.85 -12.1 10.25 -2.9 14.05 -2.1 14.25
Q -9.35 6.2 -12.55 -0.85
L -13.15 -2.15 -13.3 -1.8
Q -14.6 -5.05 -15.9 -6.25 -11.75 -14.7 -5.15 -23.5 5.05 -37.25 16.15 -44.95 30.6 -55 44.5 -53.05 Z"/>
</g>

<g id="MovieClips_PR2_Graphics_1_Apr_2014_fla_Symbol_684_10_Layer1_0_FILL">
<path fill="#000000" stroke="none" d="
M -17.5 -30.5
L -17.3 -43
Q -28.4 -39.45 -38.95 -33.1
L -39.6 -32 -39.45 -31.35
Q -39.9 -31.25 -38.6 -30.3 -36.95 -29.05 -30.55 -31.65 -24.95 -33.85 -21.55 -36.35 -21.7 -31.15 -21.35 -26.7 -20.95 -17.95 -18.8 -16.4 -18.25 -16 -17.65 -16.15
L -16.05 -16.75
Q -17.4 -21.65 -17.5 -30.5 Z"/>
</g>
</defs>

<g transform="matrix( 1, 0, 0, 1, 0,0) ">
<g transform="matrix( 1, 0, 0, 1, 0,0) ">
<g transform="matrix( 1, 0, 0, 1, 0,0) ">
<use xlink:href="#Graphics_Symbol_704_0_Layer1_0_FILL"/>
</g>

<g transform="matrix( 1, 0, 0, 1, 0,0) ">
<use xlink:href="#Graphics_Symbol_704_0_Layer0_0_FILL"/>
</g>
</g>

<g transform="matrix( 1, 0, 0, 1, 0,0) ">
<use xlink:href="#Parts_Hats_hatsMC_10_Layer5_0_FILL"/>
</g>
</g>

<g transform="matrix( 1, 0, 0, 1, 0,0) ">
<g transform="matrix( 1, 0, 0, 1, 0,0) ">
<use xlink:href="#MovieClips_PR2_Graphics_1_Apr_2014_fla_Symbol_667_10_Layer0_0_FILL"/>
</g>
</g>

<g transform="matrix( 1, 0, 0, 1, 0,0) ">
<g transform="matrix( 1, 0, 0, 1, 0,0) ">
<use xlink:href="#MovieClips_PR2_Graphics_1_Apr_2014_fla_Symbol_684_10_Layer1_0_FILL"/>
</g>
</g>
</svg>
