
<svg xmlns="http://www.w3.org/2000/svg" version="1.1" xmlns:xlink="http://www.w3.org/1999/xlink" preserveAspectRatio="none" x="0px" y="0px" width="550px" height="400px" viewBox="0 0 550 400">
<defs>
<g id="Layer0_0_FILL">
<path fill="#010101" stroke="none" d="
M 4.05 1.55
L 3 1.55 1.85 1.15 1.8 1.1 1.7 1.05 1.1 0.55 1.1 0.5 1 0.4 0.85 0.2
Q 0.5 -0.25 0.2 0.15 -0.1 0.65 0.1 1.15 0.45 1.9 0.95 2.35 1.35 2.75 2.05 3.1 3.3 3.7 4.6 3.4 4.8 3.35 5 2.95 5.15 2.6 5.05 2.15 4.95 1.8 4.75 1.6 4.5 1.4 4.25 1.5
L 4.2 1.5 4.05 1.55 Z"/>
</g>
</defs>

<g transform="matrix( 1, 0, 0, 1, 0,0) ">
<use xlink:href="#Layer0_0_FILL"/>
</g>
</svg>
