
<svg xmlns="http://www.w3.org/2000/svg" version="1.1" xmlns:xlink="http://www.w3.org/1999/xlink" preserveAspectRatio="none" x="0px" y="0px" width="550px" height="400px" viewBox="0 0 550 400">
<defs>
<g id="Parts_Heads_headColorMC_19_Layer1_0_FILL">
<path fill="#990000" stroke="none" d="
M 118.75 87.25
Q 109.45 76.5 96.6 66.8 55.25 45.5 30.9 72.25 8.6 96.7 30.85 128.1
L 34.75 133.35 35.85 134.05
Q 46.65 140.8 87.4 133.95
L 101.7 127.75
Q 109.15 136.35 124.55 140.1 112.55 132 117.65 120.75
L 135.5 112.85
Q 133.2 107.9 130.4 103.15 137.35 85.95 167.55 81.6 133.15 74.7 118.75 87.25 Z"/>
</g>

<g id="Graphics_Symbol_787_0_Layer0_0_FILL">
<path fill="#FFFFFF" stroke="none" d="
M 83.15 97.85
Q 83.85 91.55 82 86.45 78.85 77.7 69.05 76.65 64.45 76.15 61 78.8 57.35 81.6 56.8 86.8 55.95 94.8 61.7 99.95 66.4 104.2 72.8 104.9 82.3 105.95 83.15 97.85 Z"/>
</g>

<g id="Graphics_Symbol_833_0_Layer2_0_FILL">
<path fill="#000000" stroke="none" d="
M 163.45 84.75
Q 169 83.05 169.2 81.3
L 169.3 79.65
Q 169.15 79.4 167.95 79.3
L 145.05 78.05
Q 122.7 77.95 118.45 83.05 117.25 82.5 114.05 78.45 110.3 73.55 106.6 70.4 93.15 59.05 67.7 56.25 51.85 54.55 38.6 62.1 20.9 72.2 18.35 95.6 16.4 113.5 24.25 126.3 27.15 131.1 30.95 134.15 34.25 136.8 36.6 137.05 68.25 140.5 86.4 135.7 90.95 134.5 96.25 132.05 100.05 130.35 101.35 130.5
L 106.05 134.35
Q 111.05 138.55 113.85 140 116.7 141.6 123.45 142.35 125.65 142.6 125.8 140.95 123.65 138.75 121.5 135.4 117.3 128.65 117.95 122.45 122.8 121.1 127.65 119.35 137.4 115.7 137.7 112.85
L 137.7 112.2 137.2 112.35
Q 135.95 112.25 133.8 106.95
L 132.75 104.35
Q 132.4 103.05 132.55 101.5 133.45 93.35 151.25 88.2
L 163.45 84.75
M 130.95 82.3
Q 136.9 82 161.35 81.9
L 162.45 81.9
Q 152.6 83 141.85 89.25 133.05 94.35 130.7 97.9
L 126.25 92.1 121.45 86.1
Q 122.8 82.8 130.95 82.3
M 21.2 96.2
Q 21.75 91.15 25.8 84.35 29.9 77.3 36 71.2 51 56.3 65.3 57.85 91.1 60.7 113 83.35 126.45 97.3 133.5 112 125.7 113.75 122.1 116.1
L 120.45 117.05 123.6 112.45 124.45 110.95
Q 124.55 109.7 123.1 109.55 116.55 108.85 105.25 109.9
L 94.65 110.95
Q 94 110.9 93.7 110.45
L 92.95 109.55
Q 92.65 113.65 95.1 119.85 97.25 125.05 99.6 128.15 94.05 128.95 87.8 130.85
L 77.9 133.85
Q 66.2 137 51.5 135.1 36.65 133.1 34.25 130.75 31.85 128.25 29.95 125.2 28.05 122.1 27.45 120.3 23.45 108.85 22.4 105 20.85 99.45 21.2 96.2
M 116.5 117.05
Q 115.35 119.1 115.2 120.35 114.8 124.05 114.85 127.85 114.9 133.3 116 135.35 113 132.85 108.85 130.2 104.15 127.3 103 126.45 97.5 122.2 96 113.65
L 104 112.15
Q 112.5 110.95 119.55 112.1
L 116.5 117.05
M 86.05 97.85
Q 87.3 86.35 81.75 79.7 77.15 74.2 69.6 73.35 62.25 72.55 57.65 77.45 53.45 81.9 53.45 88.8 53.4 95.9 58.05 101.15 63.3 107.15 72.65 108.15 81.4 109.1 84.5 103.9 85.55 102.2 86.05 97.85
M 82 86.45
Q 83.85 91.55 83.15 97.85 82.3 105.95 72.8 104.9 66.4 104.2 61.7 99.95 55.95 94.8 56.8 86.8 57.35 81.6 61 78.8 64.45 76.15 69.05 76.65 78.85 77.7 82 86.45 Z"/>
</g>

<g id="Graphics_Symbol_833_0_Layer1_0_FILL">
<path fill="#010265" fill-opacity="0.25098039215686274" stroke="none" d="
M 120.55 89.15
Q 116.15 84.7 107.85 77.2 99.5 69.7 90.85 63.35 82.15 56.95 60.1 56.95 42.55 56.95 29.95 69.55 18.45 81.1 18.45 94.45 18.45 105 24.3 118.05 29.15 129 34.45 134.7 50.5 138.3 63.1 138 80.95 137.6 91.5 133.15 102.05 128.6 100.9 125.95 99.75 123.3 95.9 121.45 92.05 119.6 89.9 119.6 84.5 119.6 77.1 122.7 69.65 125.8 64.4 125.8 54.85 125.8 46.25 120.2 36.1 113.6 36.1 103.4 36.1 87.2 49.2 76.95 60 68.5 71.55 68.5 80.75 68.5 96.3 82.65
L 109.8 95.55
Q 118.3 103.75 123.75 108.15
L 120.25 110.05
Q 119.2 108.5 112.7 106.35 105.7 104.05 105.8 104.5 105.9 104.9 100.75 105.5 95.6 106.05 94.6 107.2 93.6 108.3 95.5 109.2
L 97.8 110 99.75 110.5
Q 98.8 111.7 95.8 111.15
L 94 110.8 93 111.45
Q 92.9 111.9 93.3 114.05 93.7 116.15 94.8 116.25
L 101.35 116.3
Q 106.85 116.3 111.85 115.05 116.65 113.85 117.7 112.35
L 114.35 119.2 115.95 120.45
Q 131.6 113.35 133.3 113.85 134.95 114.35 134.6 111.75 134.2 109.1 132.8 107.35 131.2 105.3 130.4 101.1 130.25 100.2 128.55 98
L 126.4 95.35
Q 126.65 95.45 127.15 95.85
L 128 96.1
Q 129.25 96.1 129.8 95.4 130.2 94.9 130.2 94.35 130.2 92.75 127.2 89.85
L 124.2 87.25
Q 121.9 87.9 120.55 89.15 Z"/>
</g>

<g id="Graphics_Symbol_833_0_Layer0_0_FILL">
<path fill="#FFFFFF" fill-opacity="0.25098039215686274" stroke="none" d="
M 113.1 124.25
Q 113.1 122.3 111.75 120.95 110.35 119.55 108.4 119.55 106.45 119.55 105.1 120.95 103.7 122.3 103.7 124.25 103.7 126.2 105.1 127.6 106.45 128.95 108.4 128.95 110.35 128.95 111.75 127.6 113.1 126.2 113.1 124.25
M 53.15 77.75
Q 49.7 77.75 46.5 84.1 42.8 91.5 42.8 102.35 42.8 110 50.95 115.85 59.05 121.7 69.3 121.7 70.2 121.7 70.6 121.15 71.6 119.75 71.6 115
L 71 107.55
Q 59.4 106.15 55.65 99.55 51.55 92.35 56.5 78.6 54.3 77.75 53.15 77.75
M 133.25 89.3
Q 137.2 89.3 140.5 88 143.55 86.85 145.3 84.9
L 144.45 83.8 141 83.7 133.15 84.15
Q 129.5 84.7 129.5 85.7 129.5 87.45 130.65 88.4 131.7 89.3 133.25 89.3 Z"/>
</g>
</defs>

<g transform="matrix( 1, 0, 0, 1, -62.75,-76.85) ">
<g transform="matrix( 1, 0, 0, 1, 0,0) ">
<use xlink:href="#Parts_Heads_headColorMC_19_Layer1_0_FILL"/>
</g>
</g>

<g transform="matrix( 1, 0, 0, 1, -62.75,-76.85) ">
<g transform="matrix( 1, 0, 0, 1, 0,0) ">
<g transform="matrix( 1, 0, 0, 1, 0,0) ">
<use xlink:href="#Graphics_Symbol_787_0_Layer0_0_FILL"/>
</g>
</g>
</g>

<g transform="matrix( 1, 0, 0, 1, -62.75,-76.85) ">
<g transform="matrix( 1, 0, 0, 1, 0,0) ">
<g transform="matrix( 1, 0, 0, 1, 0,0) ">
<use xlink:href="#Graphics_Symbol_787_0_Layer0_0_FILL"/>
</g>
</g>

<g transform="matrix( 1, 0, 0, 1, 0,0) ">
<g transform="matrix( 1, 0, 0, 1, 0,0) ">
<use xlink:href="#Graphics_Symbol_833_0_Layer2_0_FILL"/>
</g>

<g transform="matrix( 1, 0, 0, 1, 0,0) ">
<use xlink:href="#Graphics_Symbol_833_0_Layer1_0_FILL"/>
</g>

<g transform="matrix( 1, 0, 0, 1, 0,0) ">
<use xlink:href="#Graphics_Symbol_833_0_Layer0_0_FILL"/>
</g>
</g>

<g id="hat1" transform="matrix( 0.983917236328125, -0.17529296875, 0.17529296875, 0.983917236328125, 45.2,78.25) ">
<g id="colorMC" transform="matrix( 0.9999847412109375, 0, 0, 0.9999847412109375, 0,0) "/>

<g id="colorMC2" transform="matrix( 1, 0, 0, 1, 0,0) "/>
</g>

<g id="hat2" transform="matrix( 0.9733734130859375, -0.2247314453125, 0.2247314453125, 0.9733734130859375, 38,60.6) ">
<g id="colorMC_FL" transform="matrix( 0.9999847412109375, 0, 0, 0.9999847412109375, 0,0) "/>

<g id="colorMC2_FL" transform="matrix( 1, 0, 0, 1, 0,0) "/>
</g>

<g id="hat3" transform="matrix( 0.96026611328125, -0.2753753662109375, 0.2753753662109375, 0.96026611328125, 26,48.4) ">
<g id="colorMC_FL_FL" transform="matrix( 0.9999847412109375, 0, 0, 0.9999847412109375, 0,0) "/>

<g id="colorMC2_FL_FL" transform="matrix( 1, 0, 0, 1, 0,0) "/>
</g>

<g id="hat4" transform="matrix( 0.944580078125, -0.3252410888671875, 0.3252410888671875, 0.944580078125, 18.85,34.5) ">
<g id="colorMC_FL_FL_FL" transform="matrix( 0.9999847412109375, 0, 0, 0.9999847412109375, 0,0) "/>

<g id="colorMC2_FL_FL_FL" transform="matrix( 1, 0, 0, 1, 0,0) "/>
</g>
</g>
</svg>
