
<svg xmlns="http://www.w3.org/2000/svg" version="1.1" xmlns:xlink="http://www.w3.org/1999/xlink" preserveAspectRatio="none" x="0px" y="0px" width="550px" height="400px" viewBox="0 0 550 400">
<defs>
<g id="Layer0_0_FILL">
<path fill="#FFFF00" stroke="none" d="
M 26.5 0
L 23.5 0 23.5 24.75
Q 23.4 29.35 20.3 32.5 17.25 35.5 12.95 35.65
L 12.7 35.7 12.5 35.7
Q 7.95 35.7 4.75 32.5 1.65 29.35 1.5 24.95
L -1.5 25.05
Q -1.35 30.65 2.65 34.6 6.75 38.7 12.5 38.7
L 13.2 38.65
Q 18.6 38.45 22.4 34.6 26.35 30.65 26.5 24.8
L 26.5 0
M 76.5 37.5
L 73.5 37.5 73.5 50
Q 73.4 54.35 70.3 57.5 67.1 60.7 62.5 60.7
L 62.5 63.7
Q 68.3 63.7 72.4 59.6 76.4 55.65 76.5 50.05
L 76.5 37.5
M 76.5 31.25
Q 76.5 28.05 74.25 25.8
L 74.2 25.8
Q 71.95 23.5 68.75 23.5 65.55 23.5 63.25 25.8 61 28.05 61 31.25 61 34.45 63.25 36.75
L 63.25 36.8
Q 65.55 39 68.75 39 71.95 39 74.2 36.75 76.5 34.45 76.5 31.25
M 72.1 27.9
L 72.1 27.95
Q 73.5 29.3 73.5 31.25 73.5 33.25 72.1 34.65 70.75 36 68.75 36 66.8 36 65.4 34.65
L 65.35 34.65
Q 64 33.2 64 31.25 64 29.25 65.35 27.9 66.75 26.5 68.75 26.5 70.7 26.5 72.1 27.9
M 42.25 25
L 42.25 38.5 45.25 38.5 45.25 25 42.25 25
M 47.2 15.7
L 47.15 15.65
Q 45.8150390625 14.25 43.9 14.25 42 14.25 40.6 15.65 39.25 17 39.25 18.9 39.25 20.8 40.6 22.15
L 40.65 22.2
Q 42 23.5 43.9 23.5 45.8 23.5 47.15 22.15 48.5 20.8 48.5 18.9 48.5 17.04375 47.2 15.7
M 43.9 17.25
Q 44.55 17.25 45 17.75
L 45.05 17.75
Q 45.5 18.2 45.5 18.9
L 45.05 20.05
Q 44.6 20.5 43.9 20.5 43.2 20.5 42.7 20
L 42.7 20.05
Q 42.25 19.6 42.25 18.9 42.25 18.2 42.7 17.75 43.2 17.25 43.9 17.25
M 101.5 37.5
L 98.5 37.5 98.5 50
Q 98.4 54.35 95.3 57.5 92.1 60.7 87.5 60.7
L 87.5 63.7
Q 93.3 63.7 97.4 59.6 101.4 55.65 101.5 50.05
L 101.5 37.5
M 99.25 25.8
L 99.2 25.8
Q 96.95 23.5 93.75 23.5 90.55 23.5 88.25 25.8 86 28.05 86 31.25 86 34.45 88.25 36.75
L 88.25 36.8
Q 90.55 39 93.75 39 96.95 39 99.2 36.75 101.5 34.45 101.5 31.25 101.5 28.05 99.25 25.8
M 97.1 34.65
Q 95.75 36 93.75 36 91.8 36 90.4 34.65
L 90.35 34.65
Q 89 33.2 89 31.25 89 29.25 90.35 27.9 91.75 26.5 93.75 26.5 95.7 26.5 97.1 27.9
L 97.1 27.95
Q 98.5 29.3 98.5 31.25 98.5 33.25 97.1 34.65
M 142.25 25
L 142.25 38.5 145.25 38.5 145.25 25 142.25 25
M 126.5 31.1
Q 126.45 27.95 124.25 25.8 122.1 23.6 119.15 23.5
L 118.45 23.5
Q 115.4 23.6 113.3 25.8 111.05 28 111 31.1
L 111 38.5 114 38.5 114 31.15
Q 114.05 29.25 115.4 27.95
L 115.45 27.9
Q 116.25 27.05 117.25 26.75
L 117.25 38.5 120.25 38.5 120.25 26.75
Q 121.3 27.05 122.15 27.9 123.45 29.2 123.5 31.1
L 123.5 38.5 126.5 38.5 126.5 31.1
M 147.2 15.7
L 147.15 15.65
Q 145.8150390625 14.25 143.9 14.25 142 14.25 140.6 15.65 139.25 17 139.25 18.9 139.25 20.8 140.6 22.15
L 140.65 22.2
Q 142 23.5 143.9 23.5 145.8 23.5 147.15 22.15 148.5 20.8 148.5 18.9 148.5 17.04375 147.2 15.7
M 143.9 17.25
Q 144.55 17.25 145 17.75
L 145.05 17.75
Q 145.5 18.2 145.5 18.9
L 145.05 20.05 143.9 20.5
Q 143.2 20.5 142.7 20
L 142.7 20.05
Q 142.25 19.6 142.25 18.9 142.25 18.2 142.7 17.75 143.2 17.25 143.9 17.25
M 197.15 34.15
Q 195.815234375 32.75 193.9 32.75 192 32.75 190.6 34.15 189.25 35.5 189.25 37.4 189.25 39.3 190.6 40.65
L 190.65 40.7
Q 192 42 193.9 42 195.8 42 197.15 40.65 198.5 39.3 198.5 37.4 198.5 35.54375 197.2 34.2
L 197.15 34.15
M 192.7 36.25
Q 193.2 35.75 193.9 35.75 194.55 35.75 195 36.25
L 195.05 36.25
Q 195.5 36.7 195.5 37.4
L 195.05 38.55 193.9 39
Q 193.2 39 192.7 38.5
L 192.7 38.55
Q 192.25 38.1 192.25 37.4 192.25 36.7 192.7 36.25
M 169.15 23.5
L 168.45 23.5
Q 165.4 23.6 163.3 25.8 161.05 28 161 31.1
L 161 38.5 164 38.5 164 31.15
Q 164.05 29.25 165.4 27.95
L 165.45 27.9
Q 166.7 26.6 168.5 26.5
L 169 26.5
Q 170.8 26.6 172.15 27.9 173.45 29.2 173.5 31.1
L 173.5 38.5 176.5 38.5 176.5 31.1
Q 176.45 27.95 174.25 25.8 172.1 23.6 169.15 23.5
M 214 31.05
Q 214.1 29.2 215.4 27.95
L 215.45 27.9
Q 216.75 26.55 218.6 26.5
L 224.85 26.5 224.85 23.5 218.6 23.5
Q 215.5 23.55 213.3 25.8 211.1 27.9 211 30.9
L 211 31.65
Q 211.1 34.6 213.3 36.75 215.45 38.95 218.6 39
L 225 39 225 36 218.65 36
Q 216.7 35.95 215.4 34.65 214.1 33.35 214 31.55
L 214 31.05
M 251.5 31.25
Q 251.5 28.05 249.25 25.8
L 249.2 25.8
Q 246.95 23.5 243.75 23.5 240.55 23.5 238.25 25.8 236 28.05 236 31.25 236 34.45 238.25 36.75
L 238.25 36.8
Q 240.55 39 243.75 39 246.95 39 249.2 36.75 251.5 34.45 251.5 31.25
M 247.1 34.65
Q 245.75 36 243.75 36 241.8 36 240.4 34.65
L 240.35 34.65
Q 239 33.2 239 31.25 239 29.25 240.35 27.9 241.75 26.5 243.75 26.5 245.7 26.5 247.1 27.9
L 247.1 27.95
Q 248.5 29.3 248.5 31.25 248.5 33.25 247.1 34.65
M 269.15 23.5
L 268.45 23.5
Q 265.4 23.6 263.3 25.8 261.05 28 261 31.1
L 261 38.5 264 38.5 264 31.15
Q 264.05 29.25 265.4 27.95
L 265.45 27.9
Q 266.25 27.05 267.25 26.75
L 267.25 38.5 270.25 38.5 270.25 26.75
Q 271.3 27.05 272.15 27.9 273.45 29.2 273.5 31.1
L 273.5 38.5 276.5 38.5 276.5 31.1
Q 276.45 27.95 274.25 25.8 272.1 23.6 269.15 23.5 Z"/>
</g>
</defs>

<g transform="matrix( 1, 0, 0, 1, 0,0) ">
<use xlink:href="#Layer0_0_FILL"/>
</g>
</svg>
