
<svg xmlns="http://www.w3.org/2000/svg" version="1.1" xmlns:xlink="http://www.w3.org/1999/xlink" preserveAspectRatio="none" x="0px" y="0px" width="550px" height="400px" viewBox="0 0 550 400">
<defs>
<linearGradient id="Gradient_1" gradientUnits="userSpaceOnUse" x1="275.05" y1="-2.4499999999999886" x2="275.05" y2="402.55" spreadMethod="pad">
<stop  offset="0%" stop-color="#083E94"/>

<stop  offset="100%" stop-color="#5D92B4"/>
</linearGradient>

<linearGradient id="Gradient_2" gradientUnits="userSpaceOnUse" x1="175" y1="6.450000000000003" x2="175" y2="203.95" spreadMethod="pad">
<stop  offset="0%" stop-color="#FFFFFF" stop-opacity="0.7529411764705882"/>

<stop  offset="100%" stop-color="#999999" stop-opacity="0.5019607843137255"/>
</linearGradient>

<linearGradient id="Gradient_3" gradientUnits="userSpaceOnUse" x1="193.75" y1="-1.6500000000000057" x2="193.75" y2="187.05" spreadMethod="pad">
<stop  offset="0%" stop-color="#FFFFFF" stop-opacity="0.7529411764705882"/>

<stop  offset="100%" stop-color="#B7B7B7" stop-opacity="0.5019607843137255"/>
</linearGradient>

<linearGradient id="Gradient_4" gradientUnits="userSpaceOnUse" x1="-161.4" y1="5.799999999999997" x2="-161.4" y2="235.7" spreadMethod="pad">
<stop  offset="0%" stop-color="#FFFFFF" stop-opacity="0.7529411764705882"/>

<stop  offset="100%" stop-color="#999999" stop-opacity="0.5019607843137255"/>
</linearGradient>

<filter id="Filter_1" x="-20%" y="-20%" width="140%" height="140%" color-interpolation-filters="sRGB">
<feGaussianBlur in="SourceGraphic" stdDeviation="1,1" result="result1"/>
</filter>

<g id="Graphics_Symbol_356_0_Layer0_0_FILL">
<path fill="url(#Gradient_1)" stroke="none" d="
M 0 400
L 550 400 550 0 0 0 0 400 Z"/>
</g>

<g id="MovieClips_Symbol_358_0_Layer0_0_FILL">
<path fill="url(#Gradient_2)" stroke="none" d="
M 271.75 79.95
Q 271.75 74.05 267.55 66.5 262.75 57.85 254.3 50.75 232.35 32.2 197.25 32.2
L 191.8 32.45 188.25 32.7
Q 188.55 19.3 177.05 10.4 160.1 -2.75 122 0.7 103.4 1.15 81.7 7 63.25 12.7 60.5 12.7
L 54.55 11.85 52 11.7
Q 50.85 19.35 44.25 21.65 41.05 22.55 39.9 23.1 38 24 38 25.95 38 32.9 33.95 36.45 31.35 38.7 25 40.6 18.3 42.65 16.05 44.25 12 47.25 12 53.2 12 59.15 15 74.4 18 89.65 18 92.95 18 96.45 15.2 100.5
L 9 107.9
Q 0 118.25 0 127.7 0 139 8.2 149.75 18.4 163.05 36.5 166.95 38.65 169.55 37.6 177.95 36.4 187.85 37.75 192.45 43 210.45 90 210.45 96.6 210.45 106.65 202.95
L 113.85 197.8
Q 117.7 195.45 120.5 195.45 123.15 195.45 125.85 196.55
L 131.45 198.95
Q 140.55 202.45 157 202.45 164.9 202.45 190.9 196.05 219.55 188.95 246.9 179.5 280 168.05 299.3 156.9 322.5 143.5 322.5 132.2 322.5 126.9 319.8 120.8 316.65 113.65 310.55 107.8 294.75 92.6 265.25 91.45 265.45 90.55 268.7 85.9 271.75 81.5 271.75 79.95 Z"/>
</g>

<g id="MovieClips_Symbol_360_0_Layer0_0_FILL">
<path fill="url(#Gradient_3)" stroke="none" d="
M 387.5 96.4
Q 387.5 94.25 377.8 80.8 365.9 64.35 351.5 49.95 307.7 6.15 266 6.15 264.35 6.15 251 11.15 236.65 16.55 229.25 17.65 230.3 -0.15 199.7 0 174.35 0.15 131.75 12.3 95.65 22.55 63.25 36.35 32 49.65 32 54.15 32 57.4 35.5 61.1 38.65 64.35 48 71.4 24.65 81.75 11.55 96.9 0 110.2 0 122.4 0 129.5 2.05 134.45 6.6 145.4 19.5 145.4 28.55 145.4 37.05 151.65 41.6 155 51.55 165.4 60.85 175.1 67.1 179.15 76.8 185.4 87.75 185.4 94.55 185.4 100.7 181.8 104.8 179.45 110.7 173.9 117.25 167.8 119.9 166 125.2 162.4 130.5 162.4 136.05 162.4 142.05 165.7
L 154.9 172.9
Q 176.6 183.4 217.75 183.4 255.25 183.4 294.8 178.3 283.35 182.05 283 182.4 288.5 183.4 290 183.9 297.55 181.45 324.4 175.75 346.1 171.15 361 164.4 359.95 163.7 358.75 163.3 359.5 162.45 359.5 161.65
L 357.7 147.3
Q 356.35 135.35 358.5 129.4
L 358.55 129.3
Q 359.8 126 362.6 122.65
L 363.1 122.9 359.35 129.65
Q 359.6 130.4 361.1 130.9
L 375.95 113.7 383.45 104.35 383.7 104.1
Q 387.5 100 387.5 96.4
M 375.85 109.15
L 375.85 108.9
Q 378.35 106.4 379.1 106.4
L 377.55 107.8 375.85 109.15
M 282.15 178.7
L 282.05 178.7 280.7 178.75 284.75 178.2
Q 298.95 176.2 302.4 174.7
L 307.5 174.05 307.55 174.05 309 173.9 307.5 174.4
Q 306.25 174.6 296.05 177.9
L 294.9 178 282.15 178.7
M 263.75 179.25
L 263.85 179.35 263.75 179.35 263.75 179.25 Z"/>
</g>

<g id="MovieClips_Symbol_362_0_Layer0_0_FILL">
<path fill="url(#Gradient_4)" stroke="none" d="
M 325.9 147
Q 330 136.5 325.2 126.8 320.25 116.85 311.3 110.3 302.45 103.85 296.3 95.25 294.6 92.85 295.65 89.65 298.85 80.2 302.8 71.2 307.15 61.25 304.45 50.8 301.75 40.4 294.3 32.35 287.3 24.9 279.25 18.65
L 276.5 16.45
Q 270.6 3.05 256.1 1.05 244.2 -0.45 233.45 4.9 212 15.75 194.2 31.9 188 37.55 180.4 40.25
L 175.9 40.1 159.9 34.45
Q 144.15 29.15 128.4 34.65 113.45 39.85 104.05 52.35 97.4 61.15 92.5 71 90.65 74.75 87.6 77.65 83.95 81.1 82.15 86
L 80.3 89.95 79.7 91.15
Q 47.1 91.75 20.6 109.5 6.3 119.15 2.1 136 -4.4 161.85 12.1 182.85 21.3 194.5 33.5 203 25.25 206.4 19.7 212.85
L 19.55 213.2
Q 21.65 224.2 32.6 228.95 52.5 237.7 74.2 239.55 96.6 241.55 116.5 230.9 123.2 227.35 129.8 230.45 137.15 233.8 144.75 236.6 163.5 243.45 183.5 241.9 208.25 240.1 232.3 234.75 247.2 231.45 261.6 225.85 272 221.75 279.8 214.25 284.4 209.85 283.85 203.5 283.2 195.7 280.5 188.5 296.6 193.4 308.3 181.25 318.85 170.3 323.5 155.4
L 325.9 147
M 24.25 210.75
Q 24.3 212.15 24.2 210.95
L 24.25 210.75 Z"/>
</g>
</defs>

<g transform="matrix( 1, 0, 0, 1, 0,0) ">
<g transform="matrix( 1, 0, 0, 1, 0,0) ">
<g transform="matrix( 1, 0, 0, 1, 0,0) ">
<use xlink:href="#Graphics_Symbol_356_0_Layer0_0_FILL"/>
</g>
</g>

<g filter="url(#Filter_1)" transform="matrix( 1, 0, 0, 1, 0,0) ">
<g transform="matrix( 1, 0, 0, 1, 16.45,-7.3) ">
<g transform="matrix( 1, 0, 0, 1, -75.15,-19.35) ">
<g transform="matrix( 1, 0, 0, 1, 0,0) ">
<use xlink:href="#MovieClips_Symbol_358_0_Layer0_0_FILL"/>
</g>
</g>

<g transform="matrix( 0.581268310546875, 0, 0, 0.581268310546875, 328.45,78.3) ">
<g transform="matrix( 1, 0, 0, 1, 0,0) ">
<use xlink:href="#MovieClips_Symbol_358_0_Layer0_0_FILL"/>
</g>
</g>

<g transform="matrix( -0.820831298828125, 0.087188720703125, 0.1055908203125, 0.9940643310546875, 306.25,119.4) ">
<g transform="matrix( 1, 0, 0, 1, 0,0) ">
<use xlink:href="#MovieClips_Symbol_358_0_Layer0_0_FILL"/>
</g>
</g>

<g transform="matrix( 1, 0, 0, 1, 88.5,108.75) ">
<g transform="matrix( 1, 0, 0, 1, 0,0) ">
<use xlink:href="#MovieClips_Symbol_358_0_Layer0_0_FILL"/>
</g>
</g>

<g transform="matrix( 1.29754638671875, 0, 0, 1.88616943359375, 161.65,33) ">
<g transform="matrix( 1, 0, 0, 1, 0,0) ">
<use xlink:href="#MovieClips_Symbol_360_0_Layer0_0_FILL"/>
</g>
</g>

<g transform="matrix( 1, 0, 0, 1, 378.95,-31.35) ">
<g transform="matrix( 1, 0, 0, 1, 0,0) ">
<use xlink:href="#MovieClips_Symbol_362_0_Layer0_0_FILL"/>
</g>
</g>

<g transform="matrix( 0.87774658203125, 0, 0, 1, -21.55,49.55) ">
<g transform="matrix( 1, 0, 0, 1, 0,0) ">
<use xlink:href="#MovieClips_Symbol_362_0_Layer0_0_FILL"/>
</g>
</g>

<g transform="matrix( 1, 0, 0, 1, 72.45,78.3) ">
<g transform="matrix( 1, 0, 0, 1, 0,0) ">
<use xlink:href="#MovieClips_Symbol_360_0_Layer0_0_FILL"/>
</g>
</g>
</g>
</g>
</g>
</svg>
