
<svg xmlns="http://www.w3.org/2000/svg" version="1.1" xmlns:xlink="http://www.w3.org/1999/xlink" preserveAspectRatio="none" x="0px" y="0px" width="550px" height="400px" viewBox="0 0 550 400">
<defs>
<g id="Layer0_0_FILL">
<path fill="#010101" stroke="none" d="
M 0.2 2
L 0.2 2.4
Q 0.05 3 0.2 3.6 0.2 3.9 0.3 4.1 0.3 4.2 0.4 4.2 0.5 4.2 0.5 4.3 0.5 4.4 0.6 4.4
L 0.65 4.3
Q 0.75 4.2 0.75 3.8 0.75 2.1 0.6 1.3
L 0.4 0.5 0.2 0.1 0.1 0
Q 0 0 0 0.3
L 0 1
Q 0 1.4 0.2 2 Z"/>
</g>
</defs>

<g transform="matrix( 1, 0, 0, 1, 0,0) ">
<use xlink:href="#Layer0_0_FILL"/>
</g>
</svg>
