
<svg xmlns="http://www.w3.org/2000/svg" version="1.1" xmlns:xlink="http://www.w3.org/1999/xlink" preserveAspectRatio="none" x="0px" y="0px" width="550px" height="400px" viewBox="0 0 550 400">
<defs>
<g id="Layer0_0_FILL">
<path fill="#00C100" stroke="none" d="
M 34.5 145.7
Q 39.4 143 39.75 138.7
L 39.35 137
Q 29.15 140.05 26.5 141.15
L 14.1 147.1 21.45 148.5
Q 29.4 148.5 34.5 145.7
M 68.9 120.15
L 74.3 129.35
Q 78.15 135 82.2 135
L 84.65 134.75 84.75 133.7
Q 84.75 128.85 81.25 122.6 77.4 115.7 73.25 115.7
L 68.9 120.15
M 33.25 7.1
Q 34.65 7.1 35.65 6.15 36.6 5.15 36.6 3.75 36.6 2.35 35.65 1.4 34.65 0.4 33.25 0.4 31.85 0.4 30.9 1.4 29.9 2.35 29.9 3.75 29.9 5.15 30.9 6.15 31.85 7.1 33.25 7.1
M 54.85 13.85
Q 55.2 15.8 53.3 17.45 51.35 19.05 52.85 20.55 54.35 22.05 56.45 22.05 58.55 22.05 60.05 20.55 61.55 19.05 61.55 16.95 61.55 14.85 60.05 13.35 58.55 11.85 56.55 11.9 54.5 11.9 54.85 13.85
M 87.4 43.95
L 84.25 44 82.55 48.85
Q 81 52.65 81 53.25
L 86.95 69.9
Q 92.75 87.95 91.85 95.3
L 102.15 96.15 102.2 94.15 100.75 87.5
Q 100.75 83.8 104.1 83.1 99.1 73.05 97 66.15 94.9 59.35 93.3 48.3
L 88.9 49.75
Q 86.25 49.75 86.25 47.8
L 87.4 43.95
M 23.2 -11.5
Q 19.8 -11.4 17.35 -9.25 14.7 -6.95 14.7 -3.35 14.7 -1.8 20.2 1.3 22.95 2.85 25.75 4.1 27.3 4.1 28.35 1.85
L 29.1 -0.5
Q 29.1 -2.9 27.75 -4.65 24.95 -8.2 23.2 -11.5 Z"/>
</g>
</defs>

<g transform="matrix( 1, 0, 0, 1, 0,0) ">
<use xlink:href="#Layer0_0_FILL"/>
</g>
</svg>
