
<svg xmlns="http://www.w3.org/2000/svg" version="1.1" xmlns:xlink="http://www.w3.org/1999/xlink" preserveAspectRatio="none" x="0px" y="0px" width="550px" height="400px" viewBox="0 0 550 400">
<defs>
<g id="Layer0_0_FILL">
<path fill="#FFFFFF" fill-opacity="0.25098039215686274" stroke="none" d="
M 33.05 32.9
Q 25.45 33.3 20.5 40.1 14.8 47.95 14.8 61.75 14.8 65.2 16.25 66.55 17.1 67.35 19.45 68.3 24.05 70.85 24.05 83.4 24.05 87.25 23.45 94.75 22.7 104.45 22.5 108.65
L 17.1 109.45
Q 15.85 110.2 15.85 114.3 15.85 122.2 19.35 126.3 22.35 129.8 27.05 129.8 34.45 129.8 44.3 121.45 53.3 113.8 54.7 108.55
L 54.05 107.9
Q 52.8 107.3 50 107.25 49.1 90.4 48.5 86.25
L 48.1 83.2 48.85 75.8 48 65.65
Q 48 64.95 49.65 61.7 51.25 58.45 51.25 52.8 51.25 43.55 45.55 37.85 40.25 32.45 33.05 32.9
M -17.15 -11.6
Q -17.75 -9.2 -18.3 -1.25 -19.5 14.6 -19.5 42.65
L -18.75 63.9 -19.75 85.6
Q -19.75 92.3 -18.2 94.45 -17.45 95.5 -15.8 95.5 -10.4 95.5 -7.7 82.75 -5.1 70.45 -5.1 46.85 -5.1 39.6 -6.35 32.8 -7.65 26 -7.65 23.55 -7.65 6.4 -5.95 -2
L -4.8 -6.8
Q -4.25 -8.9 -4.25 -10.75 -4.25 -17.2 -6.1 -18.7 -8.45 -20.55 -17.5 -19.85 -17.15 -14.85 -17.15 -11.6 Z"/>
</g>
</defs>

<g transform="matrix( 1, 0, 0, 1, 0,0) ">
<use xlink:href="#Layer0_0_FILL"/>
</g>
</svg>
