
<svg xmlns="http://www.w3.org/2000/svg" version="1.1" xmlns:xlink="http://www.w3.org/1999/xlink" preserveAspectRatio="none" x="0px" y="0px" width="550px" height="400px" viewBox="0 0 550 400">
<defs>
<g id="Layer0_0_FILL">
<path fill="#000000" fill-opacity="0.25098039215686274" stroke="none" d="
M 13.05 -4.95
Q 5.7 -17.05 0.15 -20.45 -5.4 -23.85 -8.2 -24.05 -11 -24.25 -20.4 -24.25 -24.85 -24.25 -28.55 -19.15 -31.55 -15.05 -31.55 -13 -31.55 -9.45 -29.85 -2.1 -28.15 5.25 -28.15 11.45
L -31.1 38.8
Q -34.1 68.55 -34.1 83.85 -34.1 91.65 -30.4 95.85 -26.7 100.1 -19.9 100.1 -12.4 100.1 -8.6 96.6 -4.8 93.05 -1.05 82.65
L 0.05 93.6 -1.15 107.05
Q -2.35 121 -2.35 128.5 -2.35 134.8 -0.05 138 2.3 141.2 7.8 142.5 12.65 143.65 22.55 143.9
L 45.55 143.95
Q 50.2 143.95 53.15 141.65
L 70.4 125.35
Q 73.5 121.3 73.5 112.9 73.5 105.95 71.55 98.85 67.95 85.5 66.15 76.5 68.7 76.35 70.8 72.95 73.05 69.2 73.05 63.95 73.05 59.05 70.2 51.3 67.35 43.5 66.65 18.4
L 61.65 21.65
Q 60.25 22.5 57.85 22.5 54.8 22.5 53.05 19.5
L 50.05 9.15
Q 48.4 2.95 37.05 3.2 25.65 3.4 16.7 11.65 5.3 22.15 0.3 42 1.6 25.3 8.45 10.05
L 12.4 1.2
Q 13.8 -2.65 13.05 -4.95
M 58 30.45
L 57.2 45.5
Q 57.2 46.05 59.1 50.75 61 56.95 61 64.8 61 74.3 56.85 77.4 53.8 79.7 45.45 79.7
L 23.25 78.6 6.4 76.1 5.9 58.3
Q 5.9 46.75 8.75 40.65 11 35.9 17.45 30.5 20.05 26.35 22.95 23.1 28.65 16.7 35.5 16.7 37 16.7 42.8 23.8 49.85 30.5 57.95 28.75
L 58 30.45
M 0.35 46.3
L 0.6 48.05 0.35 50.25 0.35 46.3
M 11.4 95.85
Q 9.1 90.8 9.1 87.7 9.1 86.85 9.65 86.35 10.15 85.9 10.85 85.9
L 43.85 86.85
Q 55.05 86.85 57.3 84.25 58.25 88.5 57.9 97 58.25 102.7 63.1 100 63.2 101.05 65.2 104.2 67.1 107.3 67.1 108.55 67.1 113.05 60.9 119.4 57.3 123.15 50.25 128.5 46.95 131 39.5 132.95 33.3 134.55 30.2 134.55
L 18.6 134.05
Q 14.85 133.4 12.9 130.95 11.5 129.2 9.35 119.3 7.3 109.8 7.3 106.35
L 7.7 103.85 13.7 103.5
Q 13.7 100.9 11.4 95.85
M 11.7 83.6
L 20.15 83.85 12.7 83.8 11.7 83.6
M 11.6 81.35
L 13.9 80.8
Q 16.9 80.4 21.4 80.8
L 23.15 80.85 11.6 81.35
M -24.3 -12.05
Q -21.25 -17.35 -10.4 -17.35 6.35 -12.4 6.35 -8.6 6.35 -3.3 -1.1 10.3
L -8.55 24.05
Q -8.55 28.55 -6.4 40.4 -4.25 52.3 -4.25 56.45 -4.25 71 -8.8 83.1 -12.9 94 -16.5 94 -19.4 94 -23.65 90.35 -28.95 85.8 -28.95 79.7 -28.95 72.2 -27.3 53.2 -25.7 34.2 -25.7 -2.4 -25.7 -9.65 -24.3 -12.05 Z"/>
</g>
</defs>

<g transform="matrix( 1, 0, 0, 1, 0,0) ">
<use xlink:href="#Layer0_0_FILL"/>
</g>
</svg>
