
<svg xmlns="http://www.w3.org/2000/svg" version="1.1" xmlns:xlink="http://www.w3.org/1999/xlink" preserveAspectRatio="none" x="0px" y="0px" width="550px" height="400px" viewBox="0 0 550 400">
<defs>
<g id="Layer0_0_FILL">
<path fill="#000000" stroke="none" d="
M 11.05 -11.05
Q 3.4 -18.85 1.05 -21.75 -1.65 -25.05 -9.8 -25.2
L -23.1 -24.75
Q -25.25 -24.75 -28.9 -20.3 -32.35 -16.05 -32.35 -14.1 -32.35 -10.05 -31.3 -4.55 -30.3 1 -30.3 2.9 -30.3 22.85 -30.8 36.9
L -30.65 35.4
Q -27.8 9.05 -27.8 5.4
L -29.5 -10.45
Q -29.5 -13.65 -28.25 -16.9 -27.05 -19.95 -25.45 -21.4 -23.75 -22.9 -22.65 -21.55 -21.4 -20.05 -21.4 -15.1
L -22.25 0.6
Q -21.1 14.5 -21.1 21 -21.1 22.1 -21.85 25.4 -22.65 31.65 -22.65 47.6
L -22.1 52.7
Q -21.6 57.5 -21.6 60.6 -21.6 61.9 -22.55 70 -23.55 80.2 -23.55 92.05 -23.55 93.5 -22.8 94.2 -22 94.95 -21.8 96.2
L -27.3 96.5
Q -29.85 96.5 -31.9 90.6 -33.5 86 -33.5 83.6 -33.5 73.7 -32.9 62.85
L -32.95 63.05
Q -33.6 66.65 -34.75 71.15 -35.6 75.5 -35.6 83.25 -35.6 92.55 -31.15 96.15 -26.75 99.7 -15.4 99.7 -9.4 99.7 -6.95 97.65 -5.6 96.55 -1.65 90
L -1.8 121.1
Q -1.8 133.05 -0.75 137.5 0.45 142.5 4.1 143.9 6.9 145 15.2 145
L 42.15 144.15
Q 56.25 143.05 57.65 140.65 59.4 137.7 62.85 134.45
L 68.65 129.05
Q 75.25 122.15 75.25 111.4 75.25 103.95 74.1 100.9 73.55 99.5 71.55 97.55 67.8 93.9 67.8 77.5 67.8 76.85 67.95 76.65 68 76.55 68.3 76.45
L 69.05 76.85 70.25 77.2
Q 73.15 77.2 73.15 62.8
L 70.3 46.9
Q 67.4 30.7 67.4 28.8
L 68.45 16.35 65.65 16.35 65.35 18.9
Q 64.45 20.9 61 20.9 56.4 20.9 53.6 16.7
L 47.85 5.65
Q 49.6494140625 4.67734375 49.75 5.55
L 49.55 2.95
Q 38 3.15 35.55 2.8
L 29 2.4
Q 24.1 2.4 12.25 17.65 6.35 25.25 1.3 32.85
L 0.8 32.7 1 32.1
Q 1.65 22.5 9.35 10.45
L 14.5 2.4
Q 16.8 -1.65 16.8 -4.15 16.8 -5.15 11.05 -11.05
M 0.2 -17.35
Q 5.7 -13.2 12.85 -3.8 7.05 0.45 2.3 13.25 -1.75 24.15 -1.75 30.1
L -1.55 33.9 -1.05 33.6
Q -0.75 36.3 -0.55 52.9 -0.55 96.5 -12.5 96.5
L -15 96 -11.7 66.9
Q -11.1 61.35 -11.1 51.6
L -12.75 19.9 -11.8 -20.3
Q -11.8 -21.85 -12.05 -22.1 -5.8 -21.95 0.2 -17.35
M 62.05 23.3
Q 63.5 22.65 65 22.2 65.45 48.6 68.15 51.45 69.65 53 69.95 54 70.7 56.9 70.7 66.5 70.7 73.2 63 76.05 53.8 79.5 29.65 79.5
L 18.2 78.95 1.65 77.1
Q 0 67 0.9 55.15 1.95 42 5.85 31.25 15.75 4.25 38.8 4.25
L 46.45 5.75
Q 45.25 12.05 49.35 17.7 53.7 23.65 60.6 23.65
L 62.05 23.3
M 12.6 81.15
L 37.65 82.05
Q 47.4 82.05 50.4 81.75 56.55 81.15 65.35 78.45
L 66.25 87.85
Q 66.85 93.8 66.85 96.15 66.85 98.65 60.8 99.95 51.8 101.9 28.3 101.9 18.45 101.9 9.3 99.15 2.6 97.1 1.4 95.9 1.55 85 2.05 81.75 2.35 79.8 3.2 79.95
L 12.6 81.15
M 71.95 102.7
Q 72.5 105.2 72.5 108.2 72.5 118.65 66.6 125.1
L 60.85 130.85
Q 57.15 134.7 54.65 138.95
L 30.9 141.6 17.85 142.05 4.25 141.2
Q -0.05 139.6 -0.05 132.25 -0.05 128.05 0.4 118.35
L 1.25 99.95
Q 3.4 102.6 14 103.75
L 30.45 104.55
Q 37.4 104.55 53.05 101.9
L 69.75 99.25
Q 71.2 99.25 71.95 102.7
M -17.8 -22.15
L -13.3 -22.1 -14.2 -19 -15.25 -19
Q -14.65 27.6 -14.05 39.55 -13.6 48.35 -13.6 51.95 -13.6 58.7 -15.2 69.45 -17.4 84.55 -18.45 96.1
L -19.5 96.15
Q -19.1 94.6 -19.9 93.55 -20.85 92.25 -20.85 90.65 -20.85 52 -19.7 36.45 -18.6 27.4 -18.6 21.45 -18.6 13.6 -19.75 0.05
L -17.8 -22.15 Z"/>
</g>
</defs>

<g transform="matrix( 1, 0, 0, 1, 0,0) ">
<use xlink:href="#Layer0_0_FILL"/>
</g>
</svg>
