
<svg xmlns="http://www.w3.org/2000/svg" version="1.1" xmlns:xlink="http://www.w3.org/1999/xlink" preserveAspectRatio="none" x="0px" y="0px" width="550px" height="400px" viewBox="0 0 550 400">
<defs>
<g id="Layer0_0_FILL">
<path fill="#666666" stroke="none" d="
M 61.2 79.75
L 61.2 79.6 60.45 79.8 61.2 79.75
M 51.05 97.8
L 52.1 98
Q 54.65 98 59.75 96.3
L 65.1 94.15 65.65 93.55 60.7 93.75 60.75 92.85 59.35 93.1 59.55 93.9 57.85 93.8 52 95.55 50.75 95.65 50.7 96.75
Q 50.7 97.55 51.05 97.8
M 57.35 84.55
L 58.35 82.75
Q 59.05 83.6 59.75 86.7
L 60.8 91.6 61.15 80.8
Q 57.9 83.15 53.1 84.1
L 48.15 84.55 49.45 85.9
Q 55.25 85.95 57.35 84.55
M 44.95 82.6
Q 44.55 83 44.1 84.7 45.1 86.5 44.25 88.6 44.8 92.45 44.8 101.3
L 46.3 101.3 47.35 101.05
Q 48.15 96 47 89.6 46.05 84.45 44.95 82.6
M 31.15 96.95
L 30.1 97.6
Q 30.5 97.95 30.5 98.75
L 32.65 99 41.7 98 41.75 96.2
Q 32.75 97.75 31.15 96.95
M 37.9 84.2
L 35.9 84.75 29.05 85.25 28.9 86.05 28.8 87.8 32 87.95 37.55 88.45 39.4 88.4
Q 39.65 88.7 39.65 87.7 39.65 86.35 37.9 84.2
M 8.5 84.8
L 8.3 83
Q 7.95 81.75 6.75 81
L 5.9 82.25
Q 5.9 83.25 5.15 85.25 4.4 87.2 4.4 90
L 5.3 96.35 5 97.25 4.5 97.3 4.5 97.55
Q 4.35 98.3 4.7 99.25 5 100.15 5.65 100.45 6.3 100.75 6.95 100.25 7.55 99.75 7.8 98.55 7 96.5 7 95.55 7 93.9 7.75 89.25
L 8.5 84.8
M 13.7 97.75
L 13.2 96.5 15.1 95.65 20.95 94.9 17.35 94.15 11.5 96.3
Q 13.35 97.75 14.05 97.95
L 20.95 98.45 21 96.85 13.7 97.75
M 12.7 84.3
Q 12.7 85.5 13.5 86.35 14.2892578125 87.1392578125 15.35 87.15
L 15.4 87.15
Q 18.05 87.15 18.05 86.7
L 18.1 87.1 17.95 87.9 19.75 88.4 21.9 88.7 22.6 87.25 23.4 88.95
Q 23.95 89 23.85 91.2
L 23.45 96.15 23.1 99.45 23.75 101.8 25.55 101.9
Q 26.5 92.4 26.5 90.05
L 26.25 88.7 24.8 84.9 12.7 84.3
M -20.95 86
L -22 86.3
Q -22.4 86.6 -22.3 86.95
L -21.75 87.55 -20.75 87.75 -21.8 88
Q -22.35 88.15 -22.55 88.5 -22.75 88.8 -22.55 89.1
L -21.9 89.6 -20.8 89.8 -12.75 89.95 -12.7 89.5
Q -12.45 89.05 -11.3 88.55
L -11.95 88.1
Q -13.6 87.45 -15.05 87.45
L -16.8 87.55
Q -16.6 86.95 -16.75 86.65
L -17.3 85.8 -20.95 86
M -17.95 69.85
Q -18.7 69.85 -20.15 70.4
L -21.75 71.8 -20.25 73.4 -15.85 73.65 -14 73.35
Q -13.1 73 -12.9 72.45 -12.75 71.85 -13.4 71.4 -14.05 70.9 -15.4 70.8 -17.15 69.85 -17.95 69.85
M -13.6 51.55
L -19.45 51.15 -21.6 51.5
Q -22.55 51.85 -22.6 52.4 -22.65 52.95 -21.75 53.35 -20.9 53.75 -19.55 53.75
L -15.3 54 -13.6 53 -12.95 52.15 -13.6 51.55
M -15 11.15
L -15 10.8 -19 10.8 -21.05 11.15
Q -21.95 11.4 -22.2 11.85 -22.5 12.25 -22.1 12.65 -21.7 13.05 -20.75 13.3
L -15.05 13.6 -13.65 13.25
Q -13.05 12.9 -13.05 12.4 -13.05 11.85 -13.6 11.5 -14.15 11.1 -15 11.15
M -14.7 -22.8
L -14.8 -21.45 -16.05 -21.55 -18.15 -21.95 -19.6 -20.1 -18.15 -19.05 -14.2 -18.9
Q -12.1 -19 -11 -19.65 -9.9 -20.3 -10.1 -21.1 -10.35 -21.9 -11.8 -22.4
L -14.7 -22.8
M -21.2 -6.05
L -21 -5.8 -11.25 -6.3
Q -11.2 -6.2 -11.15 -6.25
L -11.1 -7
Q -11.1 -7.65 -11.35 -7.9
L -11.9 -8.15 -20.1 -7.9 -21.55 -6.9 -21.2 -6.05 Z"/>

<path fill="#CCCCCC" stroke="none" d="
M 59.55 93.9
L 59.35 93.1 57.85 93.8 59.55 93.9
M 22.5 101.65
L 23.75 101.8 23.1 99.45 22.6 101.55 22.5 101.65
M 23.85 91.2
Q 23.95 89 23.4 88.95 23.75 91.4 23.45 96.15
L 23.85 91.2
M -15.25 69.8
L -20.1 69.25 -20.15 70.4
Q -18.7 69.85 -17.95 69.85 -17.15 69.85 -15.4 70.8
L -15.25 69.8
M -20 66.15
L -20.05 67.4 -18.25 67.45 -20 66.15
M -13.6 51.55
L -13.6 50.45 -19.45 50.45 -19.45 51.15 -13.6 51.55
M -13.65 48.4
L -13.65 47.55
Q -14.3 48.3 -15.65 48.4
L -13.65 48.4
M -16.2 48.4
L -19.35 47.15 -19.4 48.4 -16.2 48.4
M -14.25 34.9
L -14.3 34.35 -16.65 34.35 -14.25 34.9
M -14.4 -9.75
L -14.4 -11.05
Q -16 -10.2 -16.95 -10.2
L -18.9 -11.75 -19.1 -9.8 -14.4 -9.75 Z"/>

<path fill="#8CC157" stroke="none" d="
M 57.7 89.85
Q 57.7 88.25 56.25 87.3 54.8 86.35 53.2 86.85 54.6 87.45 55.05 87.8
L 55.15 88.05
Q 53.85 89.35 52.7 89.45
L 49.55 89.3
Q 49.55 90.65 50.85 91.6 52.15 92.5 53.95 92.5
L 55.15 92.3
Q 57.7 91.25 57.7 89.85
M -15.9 42.8
L -15.45 43.3
Q -17.2 44.4 -17.6 44.4 -18.25 44.4 -18.65 44
L -19.45 42.8 -20.05 43.9 -20.25 44.95
Q -20.25 45.95 -19.35 47.15
L -16.2 48.4 -15.65 48.4
Q -14.3 48.3 -13.65 47.55
L -13.55 46.1 -13.75 44.4 -15.9 42.8
M -18.55 24.05
L -18.65 22.5 -19.9 24.9 -18.7 26.65 -16.85 27.3 -14.7 27.6
Q -13.85 27.55 -13.75 27.25 -13.55 26.75 -15 23.7
L -15.6 23.1
Q -15.8 23.35 -16.85 23.7
L -18.55 24.05 Z"/>

<path fill="#FFFFFF" stroke="none" d="
M 47.6 88.3
Q 48.25 88.8 49.55 89.3
L 52.7 89.45
Q 53.85 89.35 55.15 88.05
L 55.05 87.8
Q 54.6 87.45 53.2 86.85
L 50.7 87.05
Q 48.4 87.4 47.4 88.05
L 47.6 88.3
M 47.7 83.7
L 48.15 84.55 53.1 84.1
Q 57.9 83.15 61.15 80.8
L 61.65 79.85 61.3 80.35 61.2 79.75 60.45 79.8 47.7 83.7
M 58.35 82.75
L 57.35 84.55 59 91.85 55.15 92.3 53.95 92.5 50.7 93.5
Q 49.85 93.9 49.85 94.4
L 49.95 95.55 50.75 95.65 52 95.55 57.85 93.8 59.35 93.1 60.75 92.85
Q 61.1 92.5 60.8 91.6
L 59.75 86.7
Q 59.05 83.6 58.35 82.75
M 40.3 93.35
Q 36.5 96.95 31.15 96.95 32.75 97.75 41.75 96.2
L 41.7 98
Q 41.8 99.15 42.65 99.25
L 44.1 98.85 44.25 88.6
Q 45.1 86.5 44.1 84.7 44.1 89.75 40.3 93.35
M 35.9 84.75
L 37.9 84.2 38.25 83.85
Q 36.75 82.8 36.25 82.8
L 32.15 82.05 30.9 82.05
Q 28.25 82.2 27.6 84.15
L 27.9 85.25 29.05 85.25 35.9 84.75
M 5.15 85.25
Q 5.9 83.25 5.9 82.25
L 5.85 81.05 5.75 80.7
Q 3.8 80.45 2.8 82.6 2.05 84.25 2.05 86.3 2.05 91.2 3.05 94.5 3.75 96.7 4.5 97.3
L 5 97.25 5.3 96.35 4.4 90
Q 4.4 87.2 5.15 85.25
M 13.2 96.5
L 13.7 97.75 21 96.85 20.95 98.45 21 99.5 21.3 101.1 21.5 101.5 21.95 101.9 22.5 101.65 22.6 101.55 23.1 99.45 23.45 96.15
Q 23.75 91.4 23.4 88.95
L 22.6 87.25 21.9 88.7 21.2 94.9 20.95 94.9 15.1 95.65 13.2 96.5
M 17.95 87.9
L 18.1 87.1 18.05 86.7
Q 18.05 87.15 15.4 87.15
L 15.35 87.15
Q 14.43984375 87.1640625 13.8 88.05 13.1 88.95 13.1 90.2
L 15.6 89.25
Q 17.6 88.35 17.95 87.9
M 12.45 84.3
L 12.7 84.3 24.8 84.9
Q 25.3 84.8 25.6 83.9
L 22.5 82 17.9 81.8 12.45 82.5 12.35 83.25 12.45 84.3
M -21.25 82.4
L -21.25 83.85 -20.95 84.4
Q -20.05 84.05 -19.25 83.15
L -18.55 82.15 -19.1 82.15 -20.7 82 -21.25 82.4
M -17.3 63.85
Q -16.9 63.15 -16.9 62.2
L -19.6 61.8 -19.6 62.2
Q -19.6 63.15 -19.2 63.85
L -18.25 64.5
Q -17.7 64.5 -17.3 63.85
M -11.8 68.05
L -14.95 67.65 -15.25 67.65 -18.25 67.45 -20.05 67.4 -20.6 67.55 -21 68 -21 68.55 -20.65 69.05 -20.1 69.25 -15.25 69.8 -11.75 69.6 -11.8 68.05
M -15.9 42.8
Q -17.15 42.2 -19.15 41.8
L -19.45 42.8 -18.65 44
Q -18.25 44.4 -17.6 44.4 -17.2 44.4 -15.45 43.3
L -15.9 42.8
M -20.55 32.55
Q -21.4 32.7 -21.7 33 -22.05 33.3 -21.75 33.65
L -20.7 34.15 -18.9 34.35 -16.65 34.35 -14.3 34.35 -13.25 34.05
Q -12.85 33.7 -12.9 33.3 -12.95 32.9 -13.4 32.65
L -14.4 32.35 -20.55 32.55
M -15.6 23.1
L -15.5 21.9 -18.6 22.25 -18.65 22.5 -18.55 24.05 -16.85 23.7
Q -15.8 23.35 -15.6 23.1
M -19.95 10.65
L -19 10.8 -15 10.8 -13.8 10.55
Q -13.3 10.25 -13.25 9.8 -13.2 9.35 -13.65 9.05 -14.15 8.7 -14.9 8.75
L -19.15 8.45 -20.15 8.65 -20.75 9.3
Q -20.9 9.7 -20.65 10.05
L -19.95 10.65
M -18.1 2.95
Q -16.9 2.75 -15.95 1.85 -17.65 0.65 -18 0.65
L -19.7 1.05 -20.1 1.2 -20.35 1.95 -20.25 2.7 -19.95 2.85 -18.1 2.95
M -14.8 -21.45
L -14.7 -22.8
Q -16.15 -24.25 -16.9 -24.25
L -18.3 -23.85 -19.1 -23.25 -18.5 -22.35 -18.15 -21.95 -16.05 -21.55 -14.8 -21.45
M -18.65 -15
Q -18.5 -13.2 -18.2 -12.7 -17.95 -12.3 -17.15 -12.2
L -16.1 -13.1 -15.15 -14.2 -16.8 -15.55 -18.55 -15.2 -18.65 -15
M -20.45 -9.5
Q -21.1 -9.2 -21.2 -8.9 -21.1 -8.35 -20.1 -7.9
L -11.9 -8.15
Q -11.9 -8.8 -12.6 -9.25 -13.35 -9.75 -14.4 -9.75
L -19.1 -9.8 -20.45 -9.5 Z"/>

<path fill="#6A6BB7" stroke="none" d="
M 38.2 89.25
L 37.55 88.45 32 87.95 30.6 89.45 31 90.35 31.6 90.9 31.6 93.6 34.4 93.7
Q 36.05 93.7 37.35 92.5 38.55 91.4 38.55 90.4 38.55 89.75 38.2 89.25
M -14.2 64.85
L -14.5 64.1 -16.9 62.2
Q -16.9 63.15 -17.3 63.85 -17.7 64.5 -18.25 64.5
L -19.2 63.85
Q -19.6 63.15 -19.6 62.2
L -19.85 62.25 -20.9 64.1
Q -20.9 65.1 -20 66.15
L -18.25 67.45 -15.25 67.65 -14.95 67.65
Q -14.1 66.75 -14.1 65.8
L -14.2 64.85
M -14.85 5.55
Q -13.5 3.55 -13.5 3.25
L -14.75 2 -15.95 1.85
Q -16.9 2.75 -18.1 2.95
L -19.95 2.85 -20.25 3.45 -20.35 4.3
Q -20.35 5.4 -19.35 6
L -16.6 5.95 -14.85 5.55 Z"/>

<path fill="#993300" stroke="none" d="
M 19.75 88.4
L 17.95 87.9
Q 17.6 88.35 15.6 89.25
L 13.1 90.2 13.25 93.3 14.65 93.5
Q 16.25 93.5 17.75 92.4 19.65 90.95 19.75 88.4
M -21.25 83.85
L -21.25 82.4 -21.55 83.2 -21.25 83.85
M -20.95 84.4
L -20.95 86 -17.3 85.8 -16.25 84.3 -15.75 83.3 -16.95 81.5 -20.55 81.95 -20.7 82 -19.1 82.15 -18.55 82.15 -19.25 83.15
Q -20.05 84.05 -20.95 84.4
M -18.2 -12.7
Q -18.5 -13.2 -18.65 -15
L -19.6 -13.85
Q -19.95 -13.4 -18.9 -11.75
L -16.95 -10.2
Q -16 -10.2 -14.4 -11.05
L -13.45 -11.75
Q -13.1 -12 -13.1 -12.6
L -14.3 -15.3 -16.8 -15.55 -15.15 -14.2 -16.1 -13.1 -17.15 -12.2
Q -17.95 -12.3 -18.2 -12.7 Z"/>

<path fill="#999999" stroke="none" d="
M -19.45 35.25
Q -19.4 36.05 -18.95 36.25
L -14.15 36.8 -12.6 36.5
Q -12.05 36.2 -12.1 35.8 -12.15 35.4 -12.8 35.15
L -14.25 34.9 -16.65 34.35 -18.9 34.35
Q -19.35 34.5 -19.45 35.25 Z"/>
</g>
</defs>

<g transform="matrix( 1, 0, 0, 1, 0,0) ">
<use xlink:href="#Layer0_0_FILL"/>
</g>
</svg>
