
<svg xmlns="http://www.w3.org/2000/svg" version="1.1" xmlns:xlink="http://www.w3.org/1999/xlink" preserveAspectRatio="none" x="0px" y="0px" width="550px" height="400px" viewBox="0 0 550 400">
<defs>
<g id="Layer0_0_FILL">
<path fill="#000000" fill-opacity="0.14901960784313725" stroke="none" d="
M 87.35 46
Q 88.75 45.3 96.25 42.35
L 96.9 42.4
Q 94.9 46.55 93.25 51.6 91.95 55.75 92.1 56.1 96.55 65.2 105.5 71.15 114.45 77.05 115.9 80.2 124.1 96.75 118.55 111.9 112.95 127.25 95.65 135.75 83.9 141.55 60.3 141.05 36.25 140.65 32.95 133.9 32.55 133.1 32.75 132.3
L 33 131.5
Q 30.5 130.7 30.3 130.8 28.45 131.75 28.75 133.7
L 29.4 135.4
Q 29.75 136.2 40 141.25 46.45 144.4 49.7 146.8 51.85 147.35 54.7 148.4
L 72.1 150.9 77.4 150.55
Q 87.75 149.75 95.15 148.1
L 102.35 143.7
Q 104.4 142.5 110.05 138.4
L 115.7 134.75
Q 120.2 127.6 124.35 115.7 131.85 94.15 123.95 78.25 122.8 75.8 113.4 66.3 102.1 54.85 97.2 54.9
L 99.8 47.05
Q 101.55 41.4 100.85 40.1 99.5 37.3 96.2 37.95 93.7 38.5 86.6 42 81.2 44.6 79.8 58.45 78.8 68.15 79.65 74.85 77.7 72.8 73.45 71.4 67 69.4 61.7 72.95
L 61.2 73.1 63.1 70.9
Q 64.7 68.35 65.95 65.2
L 65 64.25 64.75 64.1
Q 64.65 62.9 64.05 62 60.35 57 41.85 66.15 23.3 75.4 18.05 86.1 12.65 96.8 15.2 107.4 17.85 118.05 19.55 119.15
L 21.3 120.35
Q 22.3 122.4 20.95 123.1 17.85 124.15 14.7 125.7 11.3 127.35 9.8 130.1 8.4 132.8 9.75 135.4 11.55 139 14.4 140.15 17.5 141.3 21.15 139.5 24.2 138 25.95 136.05 27.85 134 27.2 132.65
L 26.7 131.8 26.05 131.25
Q 25.75 131 24.35 131.65 21.35 135.05 19.85 135.8 17.95 136.75 15.55 135.4 13.95 134.35 13.6 133.6 12.85 131.95 14.95 130.45
L 20 127.55
Q 27.4 123.55 24.7 118.15
L 23.15 116.5
Q 21.9 115.65 21.65 115 20.25 112.25 21 104.35 21.95 94.05 21.85 92.2 21.7 90.25 25.45 87.15 28.4 84.5 26.35 81.65 27.05 79.4 33.35 75.35 38 72.35 43.6 69.55 49.4 66.7 52.5 66.3 54.6 66.05 60.8 66.1
L 59.2 68.85 58.15 72.15 58.2 72.3
Q 55.45 76.15 51.6 78.3 47.55 80.15 45.2 81.3 42.25 82.8 39.7 84.5 47.95 84.95 88.2 91.5 90.8 90.15 87.55 68.85 84.2 47.55 87.35 46
M 59 73.9
L 59.4 73.45 59.8 73.6 59 73.9 Z"/>
</g>
</defs>

<g transform="matrix( 1, 0, 0, 1, 0,0) ">
<use xlink:href="#Layer0_0_FILL"/>
</g>
</svg>
