
<svg xmlns="http://www.w3.org/2000/svg" version="1.1" xmlns:xlink="http://www.w3.org/1999/xlink" preserveAspectRatio="none" x="0px" y="0px" width="550px" height="400px" viewBox="0 0 550 400">
<defs>
<g id="Layer0_0_FILL">
<path fill="#FFB435" stroke="none" d="
M 87.85 44.8
Q 85.35 42.7 83.75 42.85 81.95 43 80.25 45.9 78.4 49.2 77.55 52.9 77.15 54.85 76.9 57.25 76.9 57.55 76.7 59.05 76.55 60.25 76.85 59.8 76.4 60.55 76.3 62.7 76.2 64.8 76.55 66.55 76.25 68.65 76.5 70.15 76.9 72.2 78.25 72.25 80.8 72.4 85.95 71.85 91.05 71.3 93.65 71.4 101.65 71.9 109.2 74.8 111.05 75.5 111.3 72.2 111.5 69.3 110.8 67.9 108.2 62.8 106.5 59.95 103.9 55.75 101.1 52.7 99.35 50.8 98.2 49.8 96.45 48.35 94.7 47.65 92.25 46.85 91.1 46.5 89.15 45.85 87.85 44.8 Z"/>
</g>
</defs>

<g transform="matrix( 1, 0, 0, 1, 0,0) ">
<use xlink:href="#Layer0_0_FILL"/>
</g>
</svg>
