
<svg xmlns="http://www.w3.org/2000/svg" version="1.1" xmlns:xlink="http://www.w3.org/1999/xlink" preserveAspectRatio="none" x="0px" y="0px" width="550px" height="400px" viewBox="0 0 550 400">
<defs>
<filter id="Filter_1" x="-20%" y="-20%" width="140%" height="140%" color-interpolation-filters="sRGB">
<feColorMatrix in="SourceGraphic" type="matrix" values="1 0 0 0 0 0 1 0 0 0 0 0 1 0 0 0 0 0 0.46 0" result="result1"/>
</filter>

<g id="Parts_Bodies_bodyMC_47_Layer14_0_FILL">
<path fill="#F9E2AC" stroke="none" d="
M 2.85 40.25
Q 2.85 39.4 2.65 38.7 2.3 36.75 -0.55 35 -2.5 33.7 -5 33.25 -7.25 32.7 -9.5 33.15 -10.45 33.45 -12.4 33.75
L -13.1 33.85
Q -13.2 33.1 -13.85 32.65 -14.55 32.05 -14.9 31.9 -15.8 31.35 -17.55 30.85 -20.55 30 -23.2 30.4 -26.15 30.9 -28.9 32.3 -30.9 33.35 -31.45 33.65 -32.85 33.25 -33.75 33.4 -35.65 33.5 -36.9 33.8 -40.6 34.7 -42.95 36.5 -45.5 38.4 -47.2 41.85 -47.85 43.65 -48.55 44.45
L -48.65 44.45
Q -52.55 44.6 -55.9 46.4 -59.35 48.35 -61.25 51.65 -63.05 55.2 -63.35 58.75 -63.75 59.95 -63.75 60.55 -63.85 61.2 -63 62.85
L -63 63.8
Q -69.15 67.7 -72.6 72.4 -74.95 75.7 -76.05 78.05 -76.1 78.2 -76.85 79.7 -77.25 80.75 -77.45 81.4 -78.4 83.55 -78.15 85.25 -78.15 85.45 -77.95 85.8 -77.7 86.25 -77.45 86.25
L -76.7 87.15
Q -75.7 88.45 -74.85 89 -73.85 89.55 -72.4 89.65 -72.15 89.65 -71.6 89.05 -71 88.5 -70.95 88.3 -70.7 87.65 -70.7 87.1 -70.7 86.4 -70.8 86.15
L -70.55 85.95
Q -70.3 85.65 -70.2 85.05 -69.8 84.45 -69.95 83.8 -69.95 83.25 -70.3 82.75
L -70.05 82.3
Q -69.65 82.3 -69.55 82
L -66.75 78.15
Q -66.2 77.15 -66.45 76 -64.1 72.8 -61.05 70.6 -60.35 70.15 -60.5 68.35 -60.55 67.45 -61.05 66.75
L -60.7 64.6 -60.7 64.5
Q -60.1 63.35 -60 61.95 -59.75 60.7 -59.2 59.6 -58.05 57.1 -56.25 55.3 -54.55 53.35 -51.9 51.45 -50.8 50.65 -47.1 48.2 -46.5 47.75 -46.5 46.9
L -45.85 45.7
Q -44.45 43.1 -42 41.15 -39.55 39.35 -36.7 38.6 -34.95 38.2 -33.75 38.15 -33.3 38.15 -32.15 38.25 -31.2 38.25 -30.7 37.85 -30.45 37.6 -30.3 37.2
L -28.8 36.7 -28.6 37.1 -28.2 37.5
Q -27.65 37.85 -27.4 37.95
L -26.4 38.15 -26 38.15
Q -25.55 38.05 -25.4 37.95 -25.15 37.65 -25.05 37.3 -24.85 36.75 -24.85 36.2
L -24.95 35.45
Q -23.7 35.15 -22.6 35 -18.85 34.45 -15.45 36.15 -15.4 36.5 -15.1 36.95 -14.35 38 -13.05 38.1 -12.1 38.25 -10.55 37.9 -8.45 37.4 -5.95 37.55 -1.5 38.05 1.4 41.4 1.65 41.8 2.15 41.6
L 2.3 41.6
Q 2.75 41.35 2.85 40.25 Z"/>
</g>

<g id="Parts_Sets_Turkey_turkeyBody_Assets_Layer_1__Compound_Path__0_Layer0_0_FILL">
<path fill="#000000" fill-opacity="0.24705882352941178" stroke="none" d="
M 101.4 29.75
Q 91.5 47.4 91 65.3 86.25 71.3 80.3 75.5 73.8 79.5 70.95 81.35 66 84.6 63.2 88.6 59.55 93.85 57.4 102.9 56.75 106.5 56.55 109.65 55.55 107.75 53.65 105.4 51.45 102.75 50.4 101.45 52.65 102.9 54.9 103.6 57.25 104.3 57.55 101.35 57.85 98.6 56.5 97.25 54.6 95.35 51 92.85 46.25 89.55 45.25 88.8 39.35 84.05 34.25 78.95 30.65 75.4 25.05 68.45 18.8 60.65 16.05 57.7 14.85 56.45 14.1 58.4 13.35 60.25 13.85 61.3 14.75 63.4 15.65 65.15 9.85 65.75 5.4 69.6 4.4 70.65 3.75 71.6
L 3.55 71.75
Q 0.6 74.15 0.1 79.5 -0.4 84.5 1.4 88.25 0.1 89.45 0.1 91.1 0.15 93.45 1.25 95.45 2.35 97.5 4.3 98.75 5.8 99.95 7.75 100.25 8.75 100.4 9.75 100.25 10.05 100.15 10.7 99.85 11.3 99.55 11.65 99.45 11.9 99.35 12.05 99.15 12.05 99.9 12.25 100.35 13.05 102.15 14 103.6 13.25 105.55 14.45 107.15 19.7 112.05 25.8 115.45 32.6 120.9 39.7 125.25 48.05 130.3 56.2 133.65 57.7 134.3 60.95 135.7 63.85 136.9 65.95 137.6 77 148.3 95.9 147.5 115.05 146.7 132.5 134.35 151.8 120.6 161.4 97.35 172.5 70.55 168.4 35.8 162.85 10.05 149.8 2.65 138.4 -3.8 124.25 4.8 111 12.8 101.4 29.75
M 142 21.3
Q 149.85 22.6 154.2 30.55 158.25 38 158.6 49.85 158.9 61.45 155.55 74.55 148.05 104.05 128.85 121.25 106.3 141.45 77.1 133.25 67.35 130.5 64.05 120.4 61 110.9 65.2 100.95 66.6 96.75 71.5 93.85 72.1 93.5 81.65 89.05 88.4 85.95 92.15 82.3 97.45 77.2 99.55 69.2 102.9 64.75 105.45 58.25 106 56.85 109.35 46.75 114.1 32.5 121.65 26.75 133.4 19.85 142 21.3
M 12.8 72.35
Q 13.9 72.15 16.2 71.8 19.45 76.7 26.35 83.6 35.35 92.6 37.25 94.8 42.8 101.3 46.85 106.45 48.05 107.95 50.9 112.45 53.7 116.3 56.1 116.8 56.35 116.9 56.6 116.8 57.05 122.3 59.1 127.45
L 56.15 126.2
Q 53 123.85 47.45 120.8 39.4 116.35 38.65 115.9 37.5 115.2 30.85 110.9
L 26.3 107.2
Q 22.45 103.5 20.4 101.6 16.75 98.3 13.8 97.05 12.95 96.7 12.5 97.5 12.3 96.15 11.55 95.95 10.2 95.4 8.9 94.4
L 6.45 92.7
Q 5.65 92.05 4.65 90.75 3.35 89.15 2.95 88.7 3.3 87.2 4.1 81.45
L 4.7 78
Q 6.5 75 9.5 73.4 10.8 72.7 12.8 72.35 Z"/>
</g>

<g id="Parts_Sets_Turkey_turkeyBody_Assets_Layer_1__Path__2_0_Layer0_0_FILL">
<path fill="#000000" fill-opacity="0.24705882352941178" stroke="none" d="
M 14.95 20.2
Q 11 14.3 8.5 10.05 6.75 6.5 5.75 4.7 3.9 1.45 1.95 0.2 1.15 -0.35 0.5 0.4 -0.05 1.05 0 1.95 0.2 7.1 4 14.15 5.1 16.25 10.85 25.25 14.7 31.15 19 36.55 20.35 38.25 23.25 41.9 25.9 45.05 28.2 46.6 30.5 48.1 31.3 45.25 32.05 42.55 30.95 40.8 29.55 38.55 26.7 35.3 22.95 31.05 22.1 30 18.6 25.55 14.95 20.2 Z"/>
</g>

<g id="Parts_Sets_Turkey_turkeyBody_Assets_Layer_1__Path__1_0_Layer0_0_FILL">
<path fill="#000000" fill-opacity="0.24705882352941178" stroke="none" d="
M 10.55 22.3
Q 10.05 21.05 7.1 11.15 4.95 4.2 2.55 0.55 1.9 -0.35 1.05 0.15 0.3 0.6 0.15 1.55 -0.45 6.85 1.45 14 2.35 17.4 5.4 25.95 7.85 32.7 10.7 38.45 11.55 40.25 13.35 44.05 15.05 47.25 17 48.9 18.7 50.35 19.8 48.25 20.8 46.4 20.4 44.7 19.8 42.35 18.25 39.2 16.4 35.7 15.55 33.9 12.95 28.4 10.55 22.3 Z"/>
</g>

<g id="Parts_Sets_Turkey_turkeyBody_Assets_Layer_1__Path__0_Layer0_0_FILL">
<path fill="#000000" fill-opacity="0.24705882352941178" stroke="none" d="
M 5.65 19.6
Q 5.5 13.4 5.25 10.2 4.85 4.6 3.5 1 3.4 0.5 2.95 0.2 2.5 -0.1 1.95 0 1.15 0.15 0.95 1.05 -0.05 4.85 0.05 10.35 0.05 13.5 0.45 19.7 0.6 23.05 0.6 30 0.75 36.15 1.75 40.1 2.3 42.45 4.1 42.45 5.85 42.45 6.2 39.95 6.8 35.95 6.4 29.8 5.8 22.9 5.65 19.6 Z"/>
</g>

<g id="Parts_Sets_Turkey_turkeyBody_0_Layer0_0_MEMBER_0_FILL">
<path fill="#000000" stroke="none" d="
M 172.25 62.3
Q 173.4 36.45 167.3 15.8 160.7 3.8 149.75 0.85 140 -1.8 128.8 3.15 118.3 7.75 110.05 17.35 101.7 27.15 99.15 38.25 99.7 33.65 92.8 30.8 85.9 27.9 81.55 30.95 81.05 28.15 77.8 26.2 74.8 24.35 70.8 23.9 66.65 23.5 63.5 24.85 60 26.4 59 29.75 54.85 25.25 46.25 29.55 37.8 33.7 36.15 40.4 31.9 39.1 27.3 40.9 23 42.55 19.7 46.45 16.35 50.35 15.25 55.1 14 60.2 15.8 64.8 -8.8 79.55 4.85 98.5 13.1 109.95 36.9 123.7 39.65 124.75 47.3 130.35 51.7 133.55 61.25 140.6 62.4 140.95 63.6 141.6
L 67.65 143.7
Q 72.15 145.7 76.8 146.45
L 76.75 146.05
Q 108.3 156.55 130.85 145.55 150.4 136.05 161.4 111.6 170.95 90.25 172.25 62.3
M 165.4 47.55
Q 163.5 47.4 162.2 46 161.4 45.3 161 44.15 162.1 41.55 161.85 38.75 161.85 38.25 161.7 38.3 161.55 38.3 161.5 38.75 161.4 40.6 160.65 42
L 160.5 42.25
Q 158.75 45.8 155 47 151.2 48.25 147.65 46.45 144.95 45.05 143.5 42.4 143.6 42.05 143.65 41.3 143.65 40.4 143.35 40.4
L 143.1 40.4
Q 143.2 39.95 143.1 39.35 143.05 38.75 142.9 38.75
L 142.35 38.75
Q 142.2 38.75 142.15 39.25 142.15 39.5 142.15 39.8
L 142.3 41.15 141.3 42.1
Q 140.05 43.25 139 44.05 136.45 45.9 133.4 46.05 130.5 46.15 128.6 44.15 127.85 43.3 127.6 42.25 127.7 41.15 128.4 40.25 128.55 39.65 128.5 39.25 128.5 38.4 128.25 38.65 126.4 40.5 127.3 44.5 127.65 46 128.65 47.2 129.7 48.35 131.2 48.85 134.8 49.85 138 47.9 139.85 46.85 141 45.75 142.15 44.6 143 43.55 143.65 45.6 145.3 47.35 148.2 50.6 152.75 50.5 155.3 50.3 157.4 48.85 159.55 47.45 160.65 45.1 160.8 46.9 161.9 48.35 162.95 49.75 164.65 50.4 166.9 51.05 168.85 49.85 169.6 49.4 170.15 48.7 170.1 62 167.4 80.45 166 90.25 163.7 103.65
L 163.65 103.65
Q 153.4 123.8 135.1 135.45 118.55 146.05 100.3 146.85 82.5 147.65 70.95 138.9 58.6 129.5 58.65 112.65 61.75 96.85 70.35 87.6 78.95 78.25 94.4 74.05 94.75 77 96.2 75.35 97.7 73.7 97.1 69.7 97.6 47.7 106.85 30.55 118.15 9.5 138.5 6.65 169 2.85 170.05 45.85 169.7 46.15 168.9 46.65 167.4 47.7 165.4 47.55
M 81.35 34.35
Q 82.7 34.65 85.45 34.35 88.2 34.05 89.55 34.3 90.75 35.25 95.5 36.45 99.25 38.45 97.4 44.3 96.35 41.25 91.05 40 85.7 38.75 82 40.9
L 81.35 34.35
M 82.3 44.5
Q 82.75 44.75 87.1 45 91.7 45.25 96.7 47.2 95.5 50.45 95.3 55.55 94.95 62.45 94.85 63.25 93.65 71.2 83.75 71.75 84.15 67.75 83.65 61.65 83 54.8 82.75 51.5
L 82.3 44.5
M 46 35.7
Q 47.75 34.85 51.5 34.3 55.45 33.7 57 33.05 57.65 35.8 59.1 39.9 53.9 40.15 49.5 42.9 45.1 45.65 42.65 50.25 39.1 47.15 39.25 43.4 39.4 38.7 46 35.7
M 62.7 30.15
L 62.7 30.1
Q 67.9 27.55 73.85 29.25 81.1 31.35 79.3 39.75 76.85 37.45 72.05 37.45 66.95 37.45 63.6 40.3 61.9 35.85 59.85 32 60.5 31.85 61.3 31.2 62.4 30.3 62.7 30.15
M 71.95 43.05
Q 75 42.7 76.6 43.25 80.78828125 44.546484375 80.2 53.5 79.65 55.75 80.3 59.55 80.7 61.7 81.5 66.05 82.55 73.65 76.6 75.8 76.55 71.1 71.1 59.9 65.85 49.15 66.3 43.85 68.3 43.65 71.95 43.05
M 40.05 52.7
Q 34 55.35 30 60.65 26 65.95 25.05 72.5 24.55 71.2 22.9 69.4 20.85 67.3 19.95 66.2 16.45 61.95 18.15 57.45 19.25 55 21.85 52.4 24.7 49.55 27.85 48.15 36.05 44.5 40.05 52.7
M 3.85 89.35
Q 3.65 83.1 7.05 77.35 10.6 71.5 15.3 70.85 20.7 70.15 25.2 77.35 16.15 84.6 11.5 100.8 9.85 99.85 9 99.35 4.1 96.3 3.85 89.35
M 17.55 97.5
Q 19.4 93.85 28.25 80.6 50.05 99.9 57.4 118.85 59.2 123.5 61.5 130.75 63.65 136.2 67.3 139
L 40.3 121.25 40.25 121.25
Q 33.55 116.05 24.45 110.85 17.75 107 16.6 105.25 14.9 102.7 17.55 97.5
M 31 79.3
Q 27.75 75 30.05 70.45 32.45 65.65 42.65 57.05 45.3 61.75 51.6 73.25 57.85 83.2 64.9 87.55 59.15 95.95 57.8 106 51.1 97.65 41.6 89.25 32.5 81.25 31 79.3
M 63.65 51.3
Q 65.65 54.55 68.75 63.3 72.25 73.3 74.3 77.5 69.65 81.25 66 86.05 65.8 83.25 62.8 79.65 58.75 75.4 56.7 73 49.95 64.4 45.05 54.5 51.95 47.05 56.6 46.7 60.6 46.35 63.65 51.3 Z"/>
</g>

<g id="Parts_Sets_Turkey_turkeyBody_0_Layer0_0_MEMBER_1_FILL">
<path fill="#000000" stroke="none" d="
M 149.3 51.7
Q 149.2 51.45 149.1 51.55 148.8 51.85 148.4 52.45 147.95 53.3 147.8 53.45 146.95 54.5 145.85 55.2 143.55 56.7 140.85 56.55 138.25 56.4 136.25 54.75 134.1 53.05 133.7 50.55 133.7 50.05 133.4 50.25 133.3 50.4 133.35 50.85 133.35 51.25 133.4 51.4 133.85 54.2 135.8 56.45 137.85 58.8 140.55 59.25 143.45 59.7 146.1 58.05 148.85 56.35 149.4 53.55 149.55 52.85 149.4 52.1 149.35 51.85 149.3 51.7 Z"/>
</g>

<g id="Parts_Sets_Turkey_turkeyBody_0_Layer0_0_MEMBER_2_FILL">
<path fill="#000000" stroke="none" d="
M 168.2 51.05
Q 168.05 50.65 168 51.05 167.55 53.05 166.05 54.4 164.45 56.15 162.05 56.4 159.75 56.7 157.85 55.35 156.95 54.75 156.35 54
L 155.8 53.2 155.55 52.75 155.3 52.5
Q 155.2 52.9 155.2 52.95 155.5 55.9 157.65 57.8 159.7 59.55 162.35 59.4 165.05 59.15 166.65 57.1 168.55 54.65 168.3 51.6 168.3 51.4 168.2 51.05 Z"/>
</g>

<g id="MovieClips_Symbol_585_47_Layer0_0_FILL">
<path fill="#895127" stroke="none" d="
M 63 23.55
Q 61.75 19.05 60.2 16.05 58.2 12.15 55.2 9.85 52.3 7.55 47.85 6.55 44.2 5.75 39.9 5.8 26.85 6.1 17.05 15.2 9.15 22.5 2.9 36.1 2.7 36.55 2.7 35.75 2.7 34.7 2.65 34.35 1.65 30.85 -3.65 29.95 -7.4 29.1 -11.2 29.95
L -13.75 29.15
Q -14.15 27.1 -15.05 26.6 -18.85 24.7 -23.8 24.9 -29.35 25.15 -32.2 28.2 -32.75 27.1 -33.45 27.25 -36.55 27.8 -39.45 29.15
L -48 31.75
Q -48.95 32 -49.35 33.45 -49.7 34.8 -49.55 36.45
L -50.45 37.5
Q -51.2 38.9 -51 40.5 -52.75 39.5 -55.65 40.2 -57.95 40.75 -60.05 42.15 -60.85 42.7 -61.35 43.25 -62.9 42.35 -65 44.6 -66.5 46.15 -68.15 49
L -68.3 49
Q -69.1 49 -69 50.75
L -69.15 51.05
Q -69.4 51.6 -69.15 52.95 -68.95 54.45 -68.35 54 -68.35 54.85 -68.1 55.5 -68.4 58.55 -66.85 59.9
L -66 60.7 -66.95 60.5
Q -76.65 59.05 -81.15 75.55 -81.4 77.35 -80.8 79.15 -80.95 79.6 -80.95 79.9
L -80.95 80.2
Q -80.95 82.05 -79.95 83.65
L -80.15 83.75
Q -78.85 85.1 -76 88.4 -73.35 90.95 -71.2 90.4 -70.95 92.3 -70.25 93.75 -69.45 95.3 -68.3 95.85 -67.3 98.65 -63.2 98.95 -62.35 99 -61.35 99.6 -60.25 100.2 -59.55 100.3
L -59.25 100.65
Q -50.75 107.8 -40.45 112.45
L -28.35 120.95
Q -25.15 122.95 -23.9 122.35 -23.55 122.55 -22.85 122.25 -22.15 121.9 -21.75 122.05 -20.85 124.45 -19 125.9 -16.7 127.75 -12.05 128.6 -9.45 129 -4.4 129.35 6.1 130.05 10.9 129.75 19.3 129.2 25.3 125.9 30.55 124.6 35.9 120.8 40.8 117.4 44.85 112.7 45.9 111.4 48.6 109.2 50.7 107.5 51.85 105.45 52.6 104.9 53.9 102.95 55.05 101.25 55.5 100.1
L 60.05 90.15
Q 60.1 90.05 60.6 87.15 61.05 84.45 61.65 83.25
L 62.3 82.1
Q 61.4158203125 83.561328125 62.05 80 63.05 74.4 63 72.85 64.3 72 64.75 68.3 65.05 64.35 65.15 63.25 68.2 42.35 63 23.55 Z"/>
</g>

<g id="MovieClips_Symbol_621_47_Layer14_0_FILL">
<path fill="#F9E2AC" stroke="none" d="
M 3.15 38.9
Q 2.95 37.85 2.25 37.15 1.9 36.75 0.55 35.8 -2.1 33.9 -4.15 33.5 -7.35 32.75 -8.7 33 -9.7 33.25 -11.65 33.4
L -12.35 33.5
Q -12.4 33.2 -12.6 33.2 -13 33.15 -13.15 33.05 -14 32.35 -14.2 32.25 -15.65 31.45 -16.9 31.05 -20.3 30.05 -22.65 30.25 -25.2 30.45 -28.45 32.1 -29.9 32.8 -31.05 33.5 -32.2 33.15 -33.4 33.3 -35.6 33.4 -36.65 33.65 -40.5 34.65 -42.8 36.4 -45.45 38.4 -47.1 41.7 -47.85 43.6 -48.45 44.3
L -48.55 44.25
Q -52.55 44.35 -55.95 46.25 -59.45 48.2 -61.4 51.55 -63.35 55.25 -63.55 58.85 -63.95 59.8 -63.95 60.65 -64.05 61.3 -63.2 63
L -63.2 64
Q -69.45 67.95 -72.95 72.7 -75.35 76.1 -76.45 78.5 -76.5 78.65 -77.25 80.15 -77.7 81.2 -77.9 81.85 -78.85 84.1 -78.6 85.8 -78.6 86 -78.4 86.4 -78.1 86.8 -77.9 86.8
L -77.15 87.75
Q -76.1 89.05 -75.25 89.6 -74.2 90.2 -72.75 90.25 -72.5 90.25 -71.9 89.65 -71.3 89.1 -71.25 88.9 -71.05 88.25 -71.05 87.7 -71.05 87 -71.1 86.7
L -70.85 86.5
Q -70.6 86.2 -70.5 85.6 -70.1 84.95 -70.25 84.3 -70.25 83.75 -70.6 83.3
L -70.35 82.8
Q -69.95 82.8 -69.85 82.5
L -67 78.6
Q -66.45 77.55 -66.65 76.4 -64.25 73.15 -61.15 70.9 -60.45 70.4 -60.6 68.6 -60.7 67.7 -61.15 67
L -60.85 64.8 -60.85 64.7
Q -60.25 63.5 -60.15 62.05 -59.85 60.8 -59.3 59.7 -58.1 57.15 -56.3 55.3 -54.55 53.35 -51.9 51.4 -50.75 50.55 -47 48.1 -46.4 47.65 -46.4 46.75
L -45.75 45.55
Q -44.3 42.9 -41.8 40.9 -39.3 39.05 -36.4 38.3 -34.6 37.95 -33.4 37.85 -32.9 37.85 -31.8 38 -30.8 38 -30.3 37.55 -30.05 37.35 -29.85 36.9
L -28.35 36.4 -28.2 36.8 -27.75 37.2
Q -27.2 37.55 -26.9 37.65
L -25.95 37.85 -25.5 37.85
Q -25.05 37.75 -24.9 37.65 -24.65 37.4 -24.5 37 -24.35 36.45 -24.35 35.9
L -24.45 35.15
Q -23.15 34.8 -22.05 34.65 -18.25 34.1 -14.75 35.85 -14.7 36.2 -14.45 36.65 -13.65 37.7 -12.3 37.8 -11.4 38 -9.8 37.6 -7.7 37.1 -5.1 37.25 -0.6 37.75 2.35 41.2 2.65 41.6 3.1 41.35
L 3.3 41.35
Q 3.8 41.15 3.6 40.2 3.25 39.2 3.15 38.9 Z"/>
</g>
</defs>

<g transform="matrix( 1, 0, 0, 1, -33.5,-72.6) ">
<g transform="matrix( 1, 0, 0, 1, 0,0) ">
<use xlink:href="#Parts_Bodies_bodyMC_47_Layer14_0_FILL"/>
</g>

<g transform="matrix( 0.8695526123046875, 0, 0, 0.8690643310546875, -83,1.3) ">
<g transform="matrix( 1, 0, 0, 1, 3,1.6) ">
<g transform="matrix( 1, 0, 0, 1, 0,0) ">
<use filter="url(#Filter_1)" xlink:href="#Parts_Sets_Turkey_turkeyBody_Assets_Layer_1__Compound_Path__0_Layer0_0_FILL"/>
</g>
</g>

<g transform="matrix( 1, 0, 0, 1, 37.85,40.45) ">
<g transform="matrix( 1, 0, 0, 1, 0,0) ">
<use filter="url(#Filter_1)" xlink:href="#Parts_Sets_Turkey_turkeyBody_Assets_Layer_1__Path__2_0_Layer0_0_FILL"/>
</g>
</g>

<g transform="matrix( 1, 0, 0, 1, 60.5,29.55) ">
<g transform="matrix( 1, 0, 0, 1, 0,0) ">
<use filter="url(#Filter_1)" xlink:href="#Parts_Sets_Turkey_turkeyBody_Assets_Layer_1__Path__1_0_Layer0_0_FILL"/>
</g>
</g>

<g transform="matrix( 1, 0, 0, 1, 81.25,32) ">
<g transform="matrix( 1, 0, 0, 1, 0,0) ">
<use filter="url(#Filter_1)" xlink:href="#Parts_Sets_Turkey_turkeyBody_Assets_Layer_1__Path__0_Layer0_0_FILL"/>
</g>
</g>

<g transform="matrix( 1, 0, 0, 1, 0,0) ">
<use xlink:href="#Parts_Sets_Turkey_turkeyBody_0_Layer0_0_MEMBER_0_FILL"/>
</g>

<g transform="matrix( 1, 0, 0, 1, 0,0) ">
<use xlink:href="#Parts_Sets_Turkey_turkeyBody_0_Layer0_0_MEMBER_1_FILL"/>
</g>

<g transform="matrix( 1, 0, 0, 1, 0,0) ">
<use xlink:href="#Parts_Sets_Turkey_turkeyBody_0_Layer0_0_MEMBER_2_FILL"/>
</g>
</g>
</g>

<g transform="matrix( 1, 0, 0, 1, -32.9,-71.25) ">
<g transform="matrix( 1, 0, 0, 1, 0,0) ">
<use xlink:href="#MovieClips_Symbol_585_47_Layer0_0_FILL"/>
</g>
</g>

<g transform="matrix( 1, 0, 0, 1, -33.5,-72.6) ">
<g transform="matrix( 1, 0, 0, 1, 0,0) ">
<use xlink:href="#MovieClips_Symbol_621_47_Layer14_0_FILL"/>
</g>
</g>
</svg>
