
<svg xmlns="http://www.w3.org/2000/svg" version="1.1" xmlns:xlink="http://www.w3.org/1999/xlink" preserveAspectRatio="none" x="0px" y="0px" width="550px" height="400px" viewBox="0 0 550 400">
<defs>
<g id="MovieClips_Symbol_621_47_Layer14_0_FILL">
<path fill="#F9E2AC" stroke="none" d="
M 3.15 38.9
Q 2.95 37.85 2.25 37.15 1.9 36.75 0.55 35.8 -2.1 33.9 -4.15 33.5 -7.35 32.75 -8.7 33 -9.7 33.25 -11.65 33.4
L -12.35 33.5
Q -12.4 33.2 -12.6 33.2 -13 33.15 -13.15 33.05 -14 32.35 -14.2 32.25 -15.65 31.45 -16.9 31.05 -20.3 30.05 -22.65 30.25 -25.2 30.45 -28.45 32.1 -29.9 32.8 -31.05 33.5 -32.2 33.15 -33.4 33.3 -35.6 33.4 -36.65 33.65 -40.5 34.65 -42.8 36.4 -45.45 38.4 -47.1 41.7 -47.85 43.6 -48.45 44.3
L -48.55 44.25
Q -52.55 44.35 -55.95 46.25 -59.45 48.2 -61.4 51.55 -63.35 55.25 -63.55 58.85 -63.95 59.8 -63.95 60.65 -64.05 61.3 -63.2 63
L -63.2 64
Q -69.45 67.95 -72.95 72.7 -75.35 76.1 -76.45 78.5 -76.5 78.65 -77.25 80.15 -77.7 81.2 -77.9 81.85 -78.85 84.1 -78.6 85.8 -78.6 86 -78.4 86.4 -78.1 86.8 -77.9 86.8
L -77.15 87.75
Q -76.1 89.05 -75.25 89.6 -74.2 90.2 -72.75 90.25 -72.5 90.25 -71.9 89.65 -71.3 89.1 -71.25 88.9 -71.05 88.25 -71.05 87.7 -71.05 87 -71.1 86.7
L -70.85 86.5
Q -70.6 86.2 -70.5 85.6 -70.1 84.95 -70.25 84.3 -70.25 83.75 -70.6 83.3
L -70.35 82.8
Q -69.95 82.8 -69.85 82.5
L -67 78.6
Q -66.45 77.55 -66.65 76.4 -64.25 73.15 -61.15 70.9 -60.45 70.4 -60.6 68.6 -60.7 67.7 -61.15 67
L -60.85 64.8 -60.85 64.7
Q -60.25 63.5 -60.15 62.05 -59.85 60.8 -59.3 59.7 -58.1 57.15 -56.3 55.3 -54.55 53.35 -51.9 51.4 -50.75 50.55 -47 48.1 -46.4 47.65 -46.4 46.75
L -45.75 45.55
Q -44.3 42.9 -41.8 40.9 -39.3 39.05 -36.4 38.3 -34.6 37.95 -33.4 37.85 -32.9 37.85 -31.8 38 -30.8 38 -30.3 37.55 -30.05 37.35 -29.85 36.9
L -28.35 36.4 -28.2 36.8 -27.75 37.2
Q -27.2 37.55 -26.9 37.65
L -25.95 37.85 -25.5 37.85
Q -25.05 37.75 -24.9 37.65 -24.65 37.4 -24.5 37 -24.35 36.45 -24.35 35.9
L -24.45 35.15
Q -23.15 34.8 -22.05 34.65 -18.25 34.1 -14.75 35.85 -14.7 36.2 -14.45 36.65 -13.65 37.7 -12.3 37.8 -11.4 38 -9.8 37.6 -7.7 37.1 -5.1 37.25 -0.6 37.75 2.35 41.2 2.65 41.6 3.1 41.35
L 3.3 41.35
Q 3.8 41.15 3.6 40.2 3.25 39.2 3.15 38.9 Z"/>
</g>
</defs>

<g transform="matrix( 1, 0, 0, 1, -33.5,-72.6) ">
<g transform="matrix( 1, 0, 0, 1, 0,0) ">
<use xlink:href="#MovieClips_Symbol_621_47_Layer14_0_FILL"/>
</g>
</g>
</svg>
