
<svg xmlns="http://www.w3.org/2000/svg" version="1.1" xmlns:xlink="http://www.w3.org/1999/xlink" preserveAspectRatio="none" x="0px" y="0px" width="550px" height="400px" viewBox="0 0 550 400">
<defs>
<g id="Layer0_0_FILL">
<path fill="#000000" stroke="none" d="
M 58.4 47.85
Q 54.65 43.8 49.75 42.15
L 49.3 33.9
Q 47.3 12.35 39.6 1.8 32.4 -1.95 26.75 16.35 24.85 22.55 23.5 30.05 22.4 36.15 22.4 38.15 22.4 39.4 23.4 40.2 24.4 40.95 24.4 41.65 24.4 48.75 20.15 66.95 15.85 85.15 15.85 92.35 15.85 96.1 16.7 103.25 17.55 110.25 17.5 114.4 17.4 118.9 23.25 126.4 30.15 135.3 38.15 135.3 46.9 135.3 51 129.6 53.75 125.8 53.75 121.1
L 54.65 107.55
Q 54.65 104.05 53.75 98.1
L 52.1 88.25 52.05 87.6
Q 57.85 85.4 61.35 77.9 64.6 71 64.6 65.05 64.6 54.55 58.4 47.85
M 47.05 44.25
L 47.75 44.4 49.85 45.1 49.85 45
Q 55.6 47.25 58.8 52.8 59.9 54.65 60.6 56.6 58.75 54.65 56.05 54.35 53.2 54 51.2 55.65 49 57.45 49 60.8
L 50.45 64.6
Q 52.45 68.35 55.3 68.35 57.45 68.35 60.35 66.3
L 62.1 64.9 62.1 65.1
Q 62.1 70.5 59.5 75.9 57.2 80.8 53.35 83.25 51.75 84.5 49.4 85
L 49.4 85.05
Q 46.85 85.8 43.8 85.8 42.4 85.8 40.55 84.25 38.5 83.45 36.75 82.1
L 35.4 81.65 36.3 82.6 34.75 81.4
Q 32.3 80.2 30.65 77.5
L 30 76.85 30 76.3
Q 29.2 74.6 28.65 72.45 27.85 69.35 27.7 65.6
L 27.75 62.4
Q 27.75 61.4 28 60.55
L 28 59.4 27.55 58.9
Q 27.8 54.5 29.2 52.05 31.75 47.6 39.75 43.5
L 47.05 44.15 47.05 44.25
M 45.8 28.35
L 46.85 41.4 44.8 41.1
Q 36.75 40.35 31.2 45.25 25 50.7 25 60.85
L 25.05 64.15
Q 24.5 64.8 24.5 65.55
L 25.5 72.15
Q 25.95 74.4 26.5 75.85
L 26.5 75.9
Q 26.5 78.4 32.7 83.1 39.85 88.5 46.8 88.5
L 49.65 88.25
Q 50.3 95.65 52.15 107.75 52.15 116.9 50.4 123 46.8 135.55 36.9 132.65 31.55 129.25 27.65 125.85 20.15 119.3 20 113.75 19.9 108.85 19.1 102.7 18.35 97.1 18.35 92.8 18.35 86.15 22.65 68 26.9 49.9 26.9 39
L 25.75 32.25
Q 25.75 30.1 29.5 19.2 33.25 8.4 34.75 6.05 40.5 2.65 43.2 12.2 43.65 13.65 45.8 28.35 Z"/>
</g>
</defs>

<g transform="matrix( 1, 0, 0, 1, 0,0) ">
<use xlink:href="#Layer0_0_FILL"/>
</g>
</svg>
