
<svg xmlns="http://www.w3.org/2000/svg" version="1.1" xmlns:xlink="http://www.w3.org/1999/xlink" preserveAspectRatio="none" x="0px" y="0px" width="550px" height="400px" viewBox="0 0 550 400">
<defs>
<g id="Layer0_0_FILL">
<path fill="#000000" fill-opacity="0.25098039215686274" stroke="none" d="
M 50.75 45
Q 52.55 43.7 49.9 43
L 43 42.4
Q 38 42.4 33.05 46.15 29.4 48.95 27.85 51.7
L 28.35 50.45 31.75 32.65
Q 32.5 27.55 34.85 22.5 36 20 36.1 18.05
L 36 17.75
Q 36 16.15 37.8 15.9 40.75 15.8 41.7 19.85 42.35 22.55 42.25 28.8 42.1 35.85 42.35 37.8 42.85 41.9 45 41.9 46.4 41.9 47.35 40.35 48.4 38.65 48.4 35.65 48.4 27.9 44.2 15.3 40.35 3.8 37.9 3.3 35.45 2.8 31.25 11.6 28.15 17.95 27.6 20.2
L 27.3 20.05 26.3 23.2
Q 25.4 26.5 25.4 29.1 25.4 34.95 24.7 42.7 24 50.4 24 52.65
L 24.4 54.4
Q 24.75 55.65 24.35 57.15
L 19.85 75.4
Q 15.75 92.2 16.85 104.5 17.9 116.75 23.35 125.5 28.5 133.75 40.25 133.75 47.85 133.75 51.4 125.7 54.55 118.5 54.55 104.7 54.55 97.6 52.35 92.2 50.65 88 48.9 87
L 49.9 86.95
Q 56.8 82.5 59.05 79.85 64 74.15 64 65.25 64 60.8 62.9 58.15 62.05 56.2 58.05 50.25
L 58.3 50.3 59.85 50.8
Q 59.45 49.5 57.45 48.3 56.3 47.6 50.75 45
M 26.05 57.85
L 24.95 56.35 25.25 56.55 25.95 56.85 26.05 57.85
M 25.35 60.05
L 26.25 60.1 27.35 69.8
Q 26.85 67 24.25 66.45
L 25.35 60.05
M 30.35 64.85
Q 30.35 57.65 34.65 52.55 38.9 47.45 44.95 47.45 51 47.45 55.3 52.55 59.55 57.65 59.55 64.85 59.55 72.05 55.3 77.15 51 82.25 44.95 82.25 38.9 82.25 34.65 77.15 30.35 72.05 30.35 64.85
M 26.1 87.25
Q 28.35 85.55 35.15 91.25 38.75 94.25 44.3 93.8 48.05 94.85 48.05 106.75 48.05 117.55 46.05 122.3 44.05 127.15 39.35 127.15 35.2 127.15 30.8 122.65 23.75 115.4 23.75 100 23.75 88.95 26.1 87.25 Z"/>
</g>
</defs>

<g transform="matrix( 1, 0, 0, 1, 0,0) ">
<use xlink:href="#Layer0_0_FILL"/>
</g>
</svg>
