
<svg xmlns="http://www.w3.org/2000/svg" version="1.1" xmlns:xlink="http://www.w3.org/1999/xlink" preserveAspectRatio="none" x="0px" y="0px" width="550px" height="400px" viewBox="0 0 550 400">
<defs>
<g id="Layer0_0_FILL">
<path fill="#FFFFFF" fill-opacity="0.25098039215686274" stroke="none" d="
M 42.9 111.45
Q 44.1 109.35 42.9 106.35 41.75 103.3 38.95 101.2 35.85 98.9 32.1 98.9 31 98.9 30.7 99.8 30.4 100.6 30.4 103.05 30.4 105 31.9 108.55 34.1 113.75 37.75 113.75 41.55 113.75 42.9 111.45
M 39.75 25.75
L 39.15 25
Q 38.15 25.7 36.45 29.7 34.9 33.2 34.8 34.15
L 35.05 35.05 35 35.25 35.65 35.4 36.5 35.15
Q 37.5 34.95 38.55 35.15 39.6 34 39.75 30.6
L 39.75 25.75 Z"/>

<path fill="#FFFFFF" fill-opacity="0.5019607843137255" stroke="none" d="
M 54.95 56.15
Q 54 55.2 52.65 55.2 51.3 55.2 50.35 56.15 49.4 57.1 49.4 58.45 49.4 59.8 50.35 60.75 51.3 61.7 52.65 61.7 54 61.7 54.95 60.75 55.9 59.8 55.9 58.45 55.9 57.1 54.95 56.15 Z"/>
</g>
</defs>

<g transform="matrix( 1, 0, 0, 1, 0,0) ">
<use xlink:href="#Layer0_0_FILL"/>
</g>
</svg>
