
<svg xmlns="http://www.w3.org/2000/svg" version="1.1" xmlns:xlink="http://www.w3.org/1999/xlink" preserveAspectRatio="none" x="0px" y="0px" width="550px" height="400px" viewBox="0 0 550 400">
<defs>
<g id="Layer0_0_FILL">
<path fill="#010101" stroke="none" d="
M 4.25 0.35
Q 4.05 -0.1 3.65 0.05
L 3.35 0.3 3.35 0.35 3.25 0.4 3.05 0.6 2.35 0.85 1.75 0.9 1.35 0.85 1.2 0.85 1.1 0.8 0.95 0.75 0.9 0.75 0.6 0.45
Q 0.5 0.25 0.25 0.35
L 0.15 0.45
Q -0.1 0.8 0.05 1.15 0.4 1.9 0.85 2.3 1.05 2.6 1.4 2.75
L 2.15 2.9 2.75 2.85
Q 3.1 2.8 3.4 2.55 4.15 2.1 4.4 1.15 4.45 0.75 4.25 0.35 Z"/>
</g>
</defs>

<g transform="matrix( 1, 0, 0, 1, 0,0) ">
<use xlink:href="#Layer0_0_FILL"/>
</g>
</svg>
