
<svg xmlns="http://www.w3.org/2000/svg" version="1.1" xmlns:xlink="http://www.w3.org/1999/xlink" preserveAspectRatio="none" x="0px" y="0px" width="550px" height="400px" viewBox="0 0 550 400">
<defs>
<g id="Layer0_0_FILL">
<path fill="#FFFFFF" fill-opacity="0.25098039215686274" stroke="none" d="
M 42.9 25.3
Q 59.1 23.75 77.3 20.05 79.7 14.75 70.85 13.45 66.45 12.8 46.8 12.8 30.5 12.8 25.75 14.5 23.9 15.35 22.85 15.65
L 17.5 16.2 10.1 15.85 11.65 14.95 0.05 12.5
Q -8.95 10.9 -8.95 13.7 -8.95 14.3 -8.6 14.55
L -8 14.9 -13.7 15.9
Q -15.8 16.6 -16.15 19.25 -9.55 22.45 -5.4 23.95 1.95 26.7 10.15 26.7
L 42.9 25.3
M 29.2 -0.1
L 18.3 -0.9
Q 13.5 -0.9 10.1 0.2 7.3 1.15 7.3 1.95 7.3 5.55 20.05 5.35
L 28.75 4.4
Q 32.75 3.45 32.75 2 32.75 0.7 29.2 -0.1
M 8.8 -18.1
L 8.8 -4.3 22.5 -4.3 22.5 -18.1 8.8 -18.1
M 18.3 -32
Q 13.9 -33.5 7.75 -33.5 1.6 -33.5 -2.75 -32 -7.15 -30.5 -7.15 -28.4 -7.15 -26.3 -2.75 -24.8 1.6 -23.3 7.75 -23.3 13.9 -23.3 18.3 -24.8 22.65 -26.3 22.65 -28.4 22.65 -30.5 18.3 -32 Z"/>
</g>
</defs>

<g transform="matrix( 1, 0, 0, 1, 0,0) ">
<use xlink:href="#Layer0_0_FILL"/>
</g>
</svg>
