
<svg xmlns="http://www.w3.org/2000/svg" version="1.1" xmlns:xlink="http://www.w3.org/1999/xlink" preserveAspectRatio="none" x="0px" y="0px" width="550px" height="400px" viewBox="0 0 550 400">
<defs>
<g id="Layer0_0_FILL">
<path fill="#000000" fill-opacity="0.25098039215686274" stroke="none" d="
M 25 -36.65
Q 24.45 -37.8 21.65 -37.85
L 11.7 -38.15
Q 4.5 -38.4 0.5 -38 -3.55 -37.6 -8.2 -34.2
L -13.25 -30.5
Q -13.65 -30.2 -13.15 -30.65 -12.65 -31.15 -13.15 -31.15 -14.15 -31.15 -16.45 -23.3 -18.75 -15.55 -18.75 -12.35 -18.75 -8 -19.2 1.45 -19.8 12.8 -20.4 16.9 -20.4 38.3 -10.1 38.3 -7.6 38.3 -0.3 36.25 7 34.15 11.35 34.15
L 56.65 35.8 73.6 34.75
Q 81.2 32.55 81.2 24.2 81.2 18.65 76.75 13.65 73.25 8.9 66.3 7.65
L 67.1 7.7 67.2 7.65
Q 66.55 6.85 64.65 5.95 62.85 5.1 62.05 5.1 59.9 5.1 57.6 6.45 55.35 7.75 48.5 7.75
L 46.9 7.65 52.5 6.45 50 6.25 53.4 6.05
Q 47.75 6.15 44.6 5.85 41.4 5.55 41.15 4
L 35.35 -22.35
Q 36.65 -22.85 38.7 -25.4 41.1 -28.35 40.95 -30.4
L 31.25 -31.3
Q 29.95 -23.1 27.15 -21.45 24.95 -20.15 14.3 -20.15
L 0.6 -21.15 -7.85 -22.35 -8.2 -22.45
Q -6.15 -27.95 -4.85 -29.8 -3.25 -32.05 -0.4 -32.65
L 8.15 -33 23.8 -32.7 25.25 -32.9 25.35 -34.3
Q 25.35 -35.95 25 -36.65
M 29.7 -5.4
L 32.65 -5.35
Q 33.35 -5.35 35.85 0.65 32.65 8.6 29.9 8.6 17.3 8.6 7.15 4.45
L 1 1.55
Q -1.75 0.25 -2.9 0.25 -5.6 0.25 -7.45 1.05 -9.15 1.8 -11.25 3.75
L -12.35 1.35
Q -13.15 -0.55 -13.15 -1.1 -13.15 -2.2 -12.1 -2.4
L -7.35 -2.8
Q -7.35 -3 -7.25 -2.8
L -8.95 -8.3
Q -10.65 -13.6 -10.65 -14.6
L -10.4 -15.45 -9.45 -15.55 12.85 -14.25
Q 23.45 -14.25 28.1 -16.8 28.7 -10.55 28.7 -6.4 28.9 -5.55 29.7 -5.4
M 69.2 15.1
Q 76.15 18 76.15 20.3 76.15 26.35 70.05 28.9 61.95 32.35 40.2 32.05 15.3 31.75 4.5 32.55
L -6.9 33.45
Q -8.35 33.45 -8.8 32.85
L -11.35 29
Q 17.25 29.15 21.25 28.1 23 27.65 24.3 26.15 26.15 24 28.25 22.65
L 4.75 22.95
Q -4.2 22.95 -7.55 19.5 -10.35 16.6 -10.35 9.5 -10.35 8.9 -9 7.35
L -7.7 5.9 2.5 10.9
Q 7.35 13.3 10.7 13.3
L 48.55 11.55
Q 60.65 11.55 69.2 15.1
M 41.15 6.75
L 40.95 7.15 41 6.75 41.15 6.75
M -8.85 -19.1
L -9 -19.4 -6.7 -19.6 0.55 -19.2
Q -6.8 -18.7 -8.85 -19.1
M -8.75 -17.25
Q 2.15 -16.85 9.9 -16.85 -1.15 -16.6 -8.75 -17.25 Z"/>
</g>
</defs>

<g transform="matrix( 1, 0, 0, 1, 0,0) ">
<use xlink:href="#Layer0_0_FILL"/>
</g>
</svg>
