
<svg xmlns="http://www.w3.org/2000/svg" version="1.1" xmlns:xlink="http://www.w3.org/1999/xlink" preserveAspectRatio="none" x="0px" y="0px" width="550px" height="400px" viewBox="0 0 550 400">
<defs>
<g id="Layer0_0_FILL">
<path fill="#000000" stroke="none" d="
M 26.75 -33.95
Q 25.3 -34.85 24.8 -36.75 24.4 -38.1 21.7 -38.6
L 6.25 -39.25
Q -4.3 -39.25 -10.75 -33.8 -16.8 -28.7 -16.8 -21.05 -16.8 -18.75 -17.3 -18
L -18.45 -16.05
Q -20.15 -11.05 -20.15 12.9 -20.15 28.5 -19.55 31.35 -18 39 -10.85 39 -7.95 39 -2.5 37.7
L 3.25 36.35
Q 46.4 36.4 68.15 37 75.4 37 78.4 32.55 80.8 29 80.8 21.95 80.65 17.3 78.25 13.2 73.5 5.1 62.05 5.1
L 55.95 6.2 48.4 5.9
Q 41.55 5.35 41.55 4.05
L 42.4 0.4
Q 42.4 -2.5 39.3 -8.05 36.2 -13.6 36.2 -18.85 36.2 -21.45 36.75 -22.05
L 37.6 -22.2
Q 39.35 -22.2 40.75 -25.65
L 41.75 -29.25 41.4 -29.95 40.7 -30.85 40.7 -30.35 38.85 -30.35
Q 29.75 -32.05 26.75 -33.95
M 29.5 -30.05
Q 34.6 -28.45 39.1 -28.55 39.3 -24.6 33.2 -22.65 25.4 -20.2 5.85 -20.2
L -13.6 -21.6
Q -13 -29.45 -9.5 -32.85 -4.55 -37.65 8.35 -37.65
L 23.9 -36.55
Q 22.25 -32.3 29.5 -30.05
M 22.6 -18.6
Q 27.3 -19.05 34.7 -20.95 35.8 -10.75 35.8 -8.45 35.8 -6.35 30.9 -5.35 23.8 -3.95 4.5 -3.95 -11.8 -3.95 -15.8 -9.1 -18.15 -12.15 -16.45 -20
L -5.85 -18.8
Q 1.85 -18.35 12.25 -18.35 19.8 -18.35 22.6 -18.6
M 38.05 -5.9
Q 39.3 -5.9 39.9 -2.15
L 40.9 8.5 53.25 8.2
Q 67.5 8.2 73.65 11.25 77.95 13.4 77.95 16.75
L 77.85 18.8 53.2 17.4
Q 44.8 17.4 41.8 17.7
L 36.3 18.65
Q 25.05 20.45 -17.7 22.1
L -17.85 22.2
Q -17.5 19.15 -17.5 18.15
L -17.55 14.35
Q -17.7 11.25 -18.35 11.25 -17.75 11.25 -17.55 4
L -17.35 -5.4
Q -15.6 -3.45 -7 -2.6
L 6.3 -2.05
Q 11.95 -2.05 24.6 -3.95
L 38.05 -5.9
M 77.85 21.75
L 77.95 22.65 77.6 22.6 -2.15 27.65
Q -6.7 27.4 -9.3 27.5 -16.45 27.8 -17.45 26.2 -17.75 25.75 -17.65 24.7 -17.6 23.65 -17.85 23.2
L 27.4 21.65 34.45 20.35 45.45 19.75 77.85 21.75
M 49.85 26.1
L 57.45 26.45 76.75 26.15 76.55 25.6
Q 76.3 25.1 78.05 24.55
L 78.55 29.55
Q 77.5 30.95 75.7 32.35 72.1 35.15 68.4 35.15 56.25 35.15 38.85 34.6 21.5 34.05 16.95 34.05
L -8.35 36.35
Q -12.7 36.35 -15.6 34.55 -17.7 33.3 -17.7 32.65 -16.8 30.2 -14.85 30.2
L 7.7 29.15 49.85 26.1 Z"/>
</g>
</defs>

<g transform="matrix( 1, 0, 0, 1, 0,0) ">
<use xlink:href="#Layer0_0_FILL"/>
</g>
</svg>
