
<svg xmlns="http://www.w3.org/2000/svg" version="1.1" xmlns:xlink="http://www.w3.org/1999/xlink" preserveAspectRatio="none" x="0px" y="0px" width="550px" height="400px" viewBox="0 0 550 400">
<defs>
<g id="Layer0_0_FILL">
<path fill="#9D9D9D" stroke="none" d="
M -2.75 3.1
L -3.05 3.1
Q -6.4 3.15 -2.85 3.55
L 0.15 3.45
Q -0.4634765625 2.8720703125 -0.2 1.15
L -3.05 -0.15
Q -5.95 -2.4 -3.3 2.05
L -3.05 2.65 -2.75 3.1
M -1.95 2.4
L -2.3 1.9
Q -0.7 3.85 -1.95 2.4
M 0.15 0.55
L 3.15 1.3
Q -0.9 -2.55 0.15 0.55
M 5.1 -2.7
L 4.75 -0.9 4.05 2.8
Q 3.353515625 3.16953125 2.75 3.4
L 6.55 3.3 5.1 -2.7 Z"/>

<path fill="#C8C8C8" stroke="none" d="
M -2.3 1.9
L -1.95 2.4
Q -0.7 3.85 -2.3 1.9
M -3.05 3.1
L -2.75 3.1 -3.05 2.65 -3.05 3.1
M 2.75 3.4
Q 3.353515625 3.16953125 4.05 2.8
L 3.45 -0.3 -0.35 -3.45 -3.05 -0.15 -0.2 1.15
Q -0.4634765625 2.8720703125 0.15 3.45
L 2.75 3.4
M 3.15 1.3
L 0.15 0.55
Q -0.9 -2.55 3.15 1.3
M 2.2 -4.05
L 2.8 -2.35 4.75 -0.9 2.2 -4.05 Z"/>

<path fill="#FFFFFF" stroke="none" d="
M 2.8 -2.35
L 2.2 -4.05 -0.35 -3.45 3.45 -0.3 4.05 2.8 4.75 -0.9 2.8 -2.35 Z"/>
</g>
</defs>

<g transform="matrix( 1, 0, 0, 1, 0,0) ">
<use xlink:href="#Layer0_0_FILL"/>
</g>
</svg>
