
<svg xmlns="http://www.w3.org/2000/svg" version="1.1" xmlns:xlink="http://www.w3.org/1999/xlink" preserveAspectRatio="none" x="0px" y="0px" width="550px" height="400px" viewBox="0 0 550 400">
<defs>
<g id="Layer0_0_FILL">
<path fill="#C8C8C8" stroke="none" d="
M 3.15 4.2
L 4.05 3.75 3.1 3.85 1.65 3.55 2.1 1.25 -1.05 2.4 -0.7 1.9
Q -0.15 1.1 -2.4 2.2
L 1.5 4.05 3.15 4.2
M 3.1 3.15
L 4.95 3.3 5.5 3.1 5.5 -0.7 3.1 3.15
M 0.15 6
L 1.35 5.35
Q -3.05 5.1 -3.8 2.8 -3.8 4.15 -2.65 5.1 -1.5 6 0.15 6
M 5.5 -3.1
L 5.5 -4.05 4.45 -4.05
Q 4.95 -3.6 5.5 -3.1
M 0.25 -2.95
L 1.3 -4.2 -0.15 -4.2 0.25 -2.95 Z"/>

<path fill="#FFFFFF" stroke="none" d="
M 4.95 3.3
L 3.1 3.15 1.65 3.55 3.1 3.85 4.05 3.75 3.15 4.2 1.5 4.05 -2.4 2.2 -3.8 2.8
Q -3.05 5.1 1.35 5.35 2.85 5.35 3.9 4.75 4.95 4.15 4.95 3.3 Z"/>

<path fill="#9D9D9D" stroke="none" d="
M 5.5 5.1
L 5.5 3.1 4.95 3.3
Q 4.95 4.15 3.9 4.75 2.85 5.35 1.35 5.35
L 0.15 6 5.5 5.1
M 1.3 -4.2
L 0.25 -2.95 -3.8 2.8 -2.4 2.2
Q -0.15 1.1 -0.7 1.9
L -1.05 2.4 2.1 1.25 1.65 3.55 3.1 3.15 5.5 -0.7 6.45 -1.95 5.5 -3.1
Q 4.95 -3.6 4.45 -4.05
L 5.5 -4.05 1.3 -4.2 Z"/>
</g>
</defs>

<g transform="matrix( 1, 0, 0, 1, 0,0) ">
<use xlink:href="#Layer0_0_FILL"/>
</g>
</svg>
