
<svg xmlns="http://www.w3.org/2000/svg" version="1.1" xmlns:xlink="http://www.w3.org/1999/xlink" preserveAspectRatio="none" x="0px" y="0px" width="550px" height="400px" viewBox="0 0 550 400">
<defs>
<g id="Layer0_0_FILL">
<path fill="#C8C8C8" stroke="none" d="
M -1.8 -2.7
L 4.3 -3.45
Q 2.05 -6.4 -1.8 -2.7
M -6.35 2.4
L -4.95 0.9 -6.35 0.9 -6.35 2.4
M -6.35 -0.3
L -4.4 -1.65 -6.35 -1.65 -6.35 -0.3
M 5.1 -0.15
L 5.35 -1.65 4.8 -2.8 -1.3 1.15 1.15 3.85 5.1 -0.15 Z"/>

<path fill="#FFFFFF" stroke="none" d="
M 1.15 3.85
L 4.75 5.65
Q 9.1 1.85 5.1 -0.15
L 1.15 3.85 Z"/>

<path fill="#9D9D9D" stroke="none" d="
M 5.35 -1.65
L 5.1 -0.15
Q 9.1 1.85 4.75 5.65
L 1.15 3.85 -1.3 1.15 4.8 -2.8
Q 6.1 -3.15 5 -3.45
L 4.3 -3.45 -1.8 -2.7 -4.4 -1.65 -6.35 -0.3 -6.35 0.9 -4.95 0.9 -6.35 2.4 -1.8 6.25 6.9 6.4 7.75 -1.65 5.35 -1.65 Z"/>
</g>
</defs>

<g transform="matrix( 1, 0, 0, 1, 0,0) ">
<use xlink:href="#Layer0_0_FILL"/>
</g>
</svg>
