
<svg xmlns="http://www.w3.org/2000/svg" version="1.1" xmlns:xlink="http://www.w3.org/1999/xlink" preserveAspectRatio="none" x="0px" y="0px" width="550px" height="400px" viewBox="0 0 550 400">
<defs>
<g id="Layer0_0_FILL">
<path fill="#9D9D9D" stroke="none" d="
M -4.35 3.55
L -2.75 7.15 -3.6 4.2 -4.35 3.55
M 4.2 -0.3
L 6.45 -5.25 3.7 -5.25 3.45 -4
Q 2.65 -4.9 1.8 -5.25
L -2.75 -5.25 -3.05 -5.1 -3.05 -5.25 -4.35 -5.25 -4.35 -4.35 -4.2 -4.35
Q -4.2 -4.2 -4.35 -4.2
L -4.35 2.55 -3.6 1.65
Q -2.95 0.45 -1.95 0 -1.8 -0.1 -1.25 0.55
L 1 -2.55 -2.15 -1.75 2.75 -3.2 2.05 2.95 -1.1 4.05
Q -2.7 7.3 0.95 5.65
L 1.15 5.85 4.95 3.45 4.2 -0.3 Z"/>

<path fill="#C8C8C8" stroke="none" d="
M -4.35 2.55
L -4.35 3.55 -3.6 4.2 -3.6 1.65 -4.35 2.55
M -4.35 -4.35
L -4.35 -4.2
Q -4.2 -4.2 -4.2 -4.35
L -4.35 -4.35
M -2.75 -5.25
L -3.05 -5.25 -3.05 -5.1 -2.75 -5.25
M 2.05 2.95
L 2.75 -3.2 -2.15 -1.75 1 -2.55 -1.25 0.55 -1.1 4.05 2.05 2.95
M 3.7 -5.25
L 1.8 -5.25
Q 2.65 -4.9 3.45 -4
L 3.7 -5.25 Z"/>

<path fill="#FFFFFF" stroke="none" d="
M 1.15 5.85
L 0.95 5.65
Q -2.7 7.3 -1.1 4.05
L -1.25 0.55
Q -1.8 -0.1 -1.95 0 -2.95 0.45 -3.6 1.65
L -3.6 4.2 -2.75 7.15 1.15 5.85 Z"/>
</g>
</defs>

<g transform="matrix( 1, 0, 0, 1, 0,0) ">
<use xlink:href="#Layer0_0_FILL"/>
</g>
</svg>
