
<svg xmlns="http://www.w3.org/2000/svg" version="1.1" xmlns:xlink="http://www.w3.org/1999/xlink" preserveAspectRatio="none" x="0px" y="0px" width="550px" height="400px" viewBox="0 0 550 400">
<defs>
<g id="Layer0_0_FILL">
<path fill="#4E8300" stroke="none" d="
M -29.5 -62.4
Q -26.45 -64.35 -26.45 -67.1 -26.45 -69.85 -29.5 -71.75 -32.6 -73.7 -36.95 -73.7 -41.3 -73.7 -44.35 -71.75 -47.45 -69.85 -47.45 -67.1 -47.45 -64.35 -44.35 -62.4 -41.3 -60.5 -36.95 -60.5 -32.6 -60.5 -29.5 -62.4
M 27.2 -83.6
Q 29.8 -81.6 33.55 -81.6 37.3 -81.6 39.95 -83.6 42.55 -85.65 42.55 -88.55 42.55 -91.45 39.95 -93.45 37.3 -95.5 33.55 -95.5 29.8 -95.5 27.2 -93.45 24.55 -91.45 24.55 -88.55 24.55 -85.65 27.2 -83.6 Z"/>
</g>
</defs>

<g transform="matrix( 1, 0, 0, 1, 0,0) ">
<use xlink:href="#Layer0_0_FILL"/>
</g>
</svg>
