
<svg xmlns="http://www.w3.org/2000/svg" version="1.1" xmlns:xlink="http://www.w3.org/1999/xlink" preserveAspectRatio="none" x="0px" y="0px" width="550px" height="400px" viewBox="0 0 550 400">
<defs>
<g id="Layer0_0_FILL">
<path fill="#FF0000" stroke="none" d="
M -53.9 -66.25
Q -54.95 -75.6 -61.9 -76.95
L -62.9 -76.4
Q -69.65 -70.4 -63.05 -62.6
L -53.9 -66.25
M -25.25 -69.95
Q -27.55 -89.85 -36.8 -80.1
L -37.85 -76
Q -33.5 -65.1 -25.2 -69.4
L -25.25 -69.95
M 2.7 -87.3
Q 0.6 -79.85 3.8 -72.1
L 6.4 -75.1 9.55 -73.8 10.2 -75.25
Q 14.15 -85.25 5.3 -89.35
L 2.7 -87.3
M 34.55 -96.5
L 33.05 -94.2
Q 34.15 -85.95 39.7 -80.6
L 47.55 -83.35
Q 43.7 -94.9 34.55 -96.5 Z"/>
</g>
</defs>

<g transform="matrix( 1, 0, 0, 1, 0,0) ">
<use xlink:href="#Layer0_0_FILL"/>
</g>
</svg>
