
<svg xmlns="http://www.w3.org/2000/svg" version="1.1" xmlns:xlink="http://www.w3.org/1999/xlink" preserveAspectRatio="none" x="0px" y="0px" width="550px" height="400px" viewBox="0 0 550 400">
<defs>
<g id="Layer0_0_FILL">
<path fill="#FFFFFF" stroke="none" d="
M -35.7 -2.75
Q -39.65 -5.4 -42 -3.95 -44.4 -2.55 -43.9 2.15 -43.35 6.9 -40.2 12.15 -37.3 17 -33.65 19.65 -33.45 19.85 -33.15 20 -33.05 20.1 -32.9 20.25 -32.05 20.1 -31.25 19.9 -29.15 18.2 -27.55 16.6 -26.85 15.65 -26.15 14.4 -25.7 13.6 -25.35 12.9 -26.25 9.25 -28.65 5.2 -31.8 0 -35.7 -2.75
M -25.35 -19.6
Q -25.35 -12.7 -21.7 -4.75 -19.05 0.95 -15.55 4.85 -11.1 4.45 -6.05 1.85 -3.2 0.45 -1.35 -0.95 -1.1 -1.7 -0.9 -3.25 -0.9 -3.35 -0.85 -3.5 -1.7 -8.05 -4.05 -13 -7.7 -20.95 -12.95 -25.4 -18.2 -29.75 -21.85 -28.1 -25.45 -26.4 -25.35 -19.6
M 5.9 -42.7
Q 2.3 -41.65 1.35 -35.15 0.3 -28.7 2.6 -20.75 4.4 -14.65 7.25 -10.35 7.85 -10.25 9.65 -9.35 11.75 -8.45 13.85 -8.45 16.05 -8.45 18.8 -9.8 19.1 -10 19.4 -10.25 20.2 -10.9 21.8 -14 21.9 -14.15 22 -14.25 22.05 -15.15 22.05 -16 21.85 -20.65 20.4 -25.85 18.05 -33.85 13.9 -38.75 9.55 -43.75 5.9 -42.7
M 39.3 -40.9
Q 36.15 -40.9 33.9 -35.95 31.6 -31 31.6 -24.1 31.6 -20.4 32.25 -17.25
L 37.25 -16
Q 40.3 -16 45.4 -17 45.85 -17.4 46.5 -17.95 47 -20.8 47 -24.1 47 -31 44.75 -35.95 42.45 -40.9 39.3 -40.9 Z"/>
</g>
</defs>

<g transform="matrix( 1, 0, 0, 1, 0,0) ">
<use xlink:href="#Layer0_0_FILL"/>
</g>
</svg>
