
<svg xmlns="http://www.w3.org/2000/svg" version="1.1" xmlns:xlink="http://www.w3.org/1999/xlink" preserveAspectRatio="none" x="0px" y="0px" width="550px" height="400px" viewBox="0 0 550 400">
<defs>
<g id="Layer0_0_FILL">
<path fill="#010101" fill-opacity="0.5294117647058824" stroke="none" d="
M -16.8 -13.7
L -17.85 -13.2
Q -19.15 -12.35 -19.9 -11.2 -21 -9.65 -20.95 -7.7 -20.95 -6.05 -19.75 -5.15 -19.1 -4.7 -18.05 -4.55 -16.8 -4.45 -15.7 -5 -14.15 -5.75 -13.3 -7.25 -12.4 -8.65 -12.5 -10.4 -12.5 -11.9 -13.55 -13 -14.05 -13.45 -14.75 -13.55
L -15.15 -13.85
Q -16.1 -14.1 -16.8 -13.7
M -0.25 -44.2
Q -0.6 -44.7 -1.65 -45.25 -6.15 -49 -7.7 -47.3 -9.05 -45.95 -7.75 -42.5 -6.45 -38.9 -4.35 -38.55 -1.75 -38.15 0.05 -43.7 -0.05 -44 -0.25 -44.2
M -42.6 -25.2
Q -45.8 -22.6 -46.05 -19.05 -46.3 -15 -42.3 -11.25 -36.25 -8.15 -30.55 -13 -24.6 -18.1 -29 -24.7 -31.55 -27.8 -35.75 -27.75 -39.55 -27.7 -42.6 -25.2
M -36.55 -59.45
Q -37.45 -64.1 -40.1 -63.8 -42.3 -63.5 -44.25 -60.4 -46.1 -57.3 -45 -55.5 -43.7 -53.35 -38.5 -55.2 -37.35 -55.8 -36.8 -57 -36.25 -58.2 -36.55 -59.45
M -20.9 -66.95
Q -21.3 -66.8 -21.5 -65.75 -21.65 -62.6 -17.9 -61.7 -15.3 -61.1 -11.85 -61.7 -8.65 -62.2 -5.4 -63.85 -0.4 -66.4 -0.2 -68.85 0 -70.2 -0.95 -70.85
L -1.2 -70.9
Q -1.75 -71.15 -2.15 -70.7 -5.9 -68.05 -6.5 -67.75 -9 -66.35 -11.65 -65.65 -14.05 -65 -16.85 -65 -19.45 -65 -19.95 -66.5 -20.2 -67.15 -20.9 -66.95
M 61.8 -26.45
Q 63.1 -27.3 62.75 -28.75 62.55 -30.15 60.95 -31.3 59.65 -32.25 58 -32.65 55.3 -33.4 52.85 -32.2
L 52.5 -31.95 52.2 -31.85
Q 51.5 -31.6 50.65 -31 49.4 -29.85 48.6 -28.2 47.7 -26.45 47.9 -24.45 47.9 -24.25 47.7 -23.95 47.35 -23.05 47.25 -21.7
L 47.25 -21.35
Q 47.25 -20.7 47.5 -20.25 47.65 -19.8 48.1 -19.35 48.45 -19.05 49.15 -19.3 49.5 -19.35 49.7 -19.8 50 -20.25 49.8 -20.75
L 50 -20.6 50 -20.5
Q 50.4 -19.75 51.25 -20.15
L 51.3 -20.15
Q 52.05 -20.8 51.95 -21.8
L 51.95 -22.25 52.05 -22.35 52.8 -22.9
Q 53.8 -23.6 55 -24.1
L 55.25 -24.15 56.3 -24
Q 57 -23.8 57.5 -24.75
L 57.6 -24.75
Q 58.05 -24.25 58.7 -24.45 59.45 -24.75 60.05 -24.8 61.15 -24.8 61.25 -26.3 61.55 -26.3 61.8 -26.45
M 38.25 -37.4
Q 36.6 -39.15 34.15 -38.5 32 -37.9 30.7 -36.05 29.3 -34.25 30.25 -33.25 31.45 -32.05 35.45 -32.95 35.55 -33.25 37.65 -34.8 39.25 -36 38.25 -37.4
M 67.45 -68.15
Q 66.75 -68.7 64.1 -69 61.35 -69.25 59.15 -68.85 53.1 -67.75 59.15 -63.1 61.9 -60.55 66.1 -62.05 70.45 -63.55 67.45 -68.15 Z"/>
</g>
</defs>

<g transform="matrix( 1, 0, 0, 1, 0,0) ">
<use xlink:href="#Layer0_0_FILL"/>
</g>
</svg>
