
<svg xmlns="http://www.w3.org/2000/svg" version="1.1" xmlns:xlink="http://www.w3.org/1999/xlink" preserveAspectRatio="none" x="0px" y="0px" width="550px" height="400px" viewBox="0 0 550 400">
<defs>
<g id="MovieClips_Symbol_228_1_Layer1_0_FILL">
<path fill="#6479CE" stroke="none" d="
M 4.15 -14.1
Q 3.6 -14.1 1.7 -13.15
L -2.45 -12.95 -4.65 -13.5 -8.3 -13.95 -9.55 -13.95 -13.1 -15.75 -13.25 -15.55
Q -14.75 -13.35 -15.6 -9.25
L -16 -7.15
Q -16.65 -3.2 -16.65 0.65 -16.65 4.7 -14.45 7.3 -12.25 9.95 -12.25 12.3
L -13 32.3
Q -13 36.75 -12.7 37.15
L -9.45 37.6 -9.8 16.75 -9.15 17.1
Q -8.55 17.45 -8.5 18.1
L -7.25 18 -6 18.4
Q -5.35 18.6 -3.6 19.95 2 23.5 3.3 25.85
L 2.9 27.2
Q 2.1 30.05 3.55 33.55 4.95 37.05 9.95 38.3
L 27.5 39.45 37.35 39.45
Q 40 39.2 41.65 37.75
L 42 37.4
Q 43.6 35.75 47.65 29.9
L 47.1 30.1 42.2 30.6
Q 38.2 30.5 34.4 29.45
L 31.15 28.35
Q 25.5 26.05 23 21.7 22.05 20.05 21.55 18.15 19.5 10.6 17.55 4.95
L 15.95 0.65
Q 9.95 -14.1 4.15 -14.1 Z"/>
</g>
</defs>

<g transform="matrix( 1, 0, 0, 1, -28.15,-10.5) ">
<g transform="matrix( 1, 0, 0, 1, 0,0) ">
<use xlink:href="#MovieClips_Symbol_228_1_Layer1_0_FILL"/>
</g>
</g>
</svg>
