
<svg xmlns="http://www.w3.org/2000/svg" version="1.1" xmlns:xlink="http://www.w3.org/1999/xlink" preserveAspectRatio="none" x="0px" y="0px" width="550px" height="400px" viewBox="0 0 550 400">
<defs>
<g id="Layer0_0_FILL">
<path fill="#FFFFFF" stroke="none" d="
M 43.6 8.8
Q 43.5 8.4 43.05 8.4
L 41.15 10.15 41.15 10.1 41.85 8.6
Q 41.85 8.2 41.35 8.2
L 39.9 9.45 40.4 8.4
Q 40.3 8 39.9 8 39.6 8 38.85 9
L 37.95 10.2 38.9 7.7
Q 38.9 7.3 38.35 7.3
L 36.1 10.3 36.1 10.25 36.85 7.95
Q 36.75 7.35 36.35 7.35
L 33.85 10.15 33.85 10.05 34.45 7.95
Q 34.45 7.4 33.95 7.4 33.55 7.4 32.85 8.65
L 32 10.2 32 10.15 32.55 7.65
Q 32.55 7.2 32 7.2 31.65 7.2 30.6 8.95
L 29.25 11.15
Q 30.2 8.4 30.2 7.55 30.2 7.1 29.8 7.1
L 28.75 8.2
Q 27.95 9.2 27.7 9.75
L 27.7 9.7 28.25 7.6 28.2 7.15 27.85 7.05
Q 27.45 7.05 26.35 8.6
L 24.7 10.85 24.7 10.8 26 6.6
Q 26 5 23.35 9.55
L 23.8 7.5
Q 23.75 7.1 23.1 7.1 22.6 7.1 21.9 8.3
L 20.9 10.25 20.9 10.2 21.1 8.35
Q 21 7.7 20.45 7.7
L 17.75 11.2 17.75 10.25 18.2 8.1
Q 18.1 7.5 17.6 7.5 17.15 7.5 16.6 8.6
L 15.95 10.25 15.95 10.2 16.4 8.25
Q 16.4 7.7 15.55 7.7 15.1 7.7 14.1 9.2
L 12.95 11.25 12.95 11.15 13.3 8.8
Q 13.3 8.25 12.85 8.25 12 8.25 11.75 9.4
L 11.75 9.35 11.95 8.3 11.35 7.6
Q 10.6 7.6 9.9 10.25
L 9.9 10.2 10.25 8.15
Q 10.25 7.7 9.7 7.7 9.45 7.7 9.2 7.95
L 9 8.35 9 7.85 8.35 7.65
Q 7.95 7.65 7.55 8.55
L 6.8 9.8 6.9 8.1 6.75 7.35
Q 6.6 7.1 6.25 7.1 5.9 7.1 5.6 7.55
L 5.3 8.15 5.3 7.7
Q 5.25 7.35 4.7 7.35 4.15 7.35 3.9 8.9 3.7 8.6 3.45 8.6 3.1 8.6 2.6 9.7
L 2.1 10.85 2.15 11.2 2.8 11.2 2.75 11.9
Q 2.8 12.4 3.35 12.4 4 12.4 4.4 11.1
L 4.85 11.3
Q 5.3 11.3 5.55 10.6
L 5.85 9.75 5.85 10.7
Q 6 11.3 6.6 11.3
L 7.25 10.85 7.75 10.2 7.75 10.35 7.6 11.3
Q 7.55 11.9 8.15 11.9 8.55 11.9 8.65 11.65
L 8.8 11.25 8.8 11.35 8.65 12
Q 8.65 12.45 9.3 12.45 9.9 12.45 10.7 10.5
L 10.6 11.75
Q 10.6 12.5 11.15 12.5 11.75 12.5 11.85 12
L 12.05 11.05
Q 12.05 12.35 12.8 12.35 13.5 12.35 14.3 10.9
L 15.3 9.1 15.3 9.15 14.85 11.7 14.85 12.15
Q 14.95 12.55 15.35 12.55 15.8 12.55 16.25 11.65
L 16.85 10.35 16.85 11.4
Q 16.9 12.25 17.55 12.25 18.35 12.25 19.25 11
L 20.15 9.55 19.95 11.35
Q 19.95 12.6 20.55 12.6 21 12.6 21.6 11.2
L 22.6 9 22.6 9.05 22.25 10.35
Q 21.95 11.2 21.95 11.6
L 22.05 11.9 22.5 12.2 23.3 11.5 23.8 10.65 23.8 10.7
Q 23.05 12.2 24.4 12.2 25.05 12.2 25.9 10.9
L 27.05 8.95 27.05 9.05 26.6 11.05 26.6 11.35 27 11.65
Q 27.55 11.65 28.05 10.8
L 28.75 9.7 28.45 10.75 28.4 12.35
Q 28.5 12.9 28.85 12.9 29.4 12.9 30.15 11.7
L 31.2 9.9 31 11.1 31.1 11.55
Q 31.25 11.95 31.55 11.95
L 32.3 11.5 32.75 10.85
Q 32.25 12.2 33.05 12.2 33.6 12.2 34.4 11.1
L 35.3 9.85 35.3 9.9 34.75 12 34.85 12.3 35.3 12.55 36.3 11.7 36.9 10.6 36.9 10.65 36.65 11.75
Q 36.65 12.35 37.15 12.35
L 38.1 11.45
Q 38.3 11.85 38.65 11.85
L 40.1 10.5 40.1 10.65
Q 40.1 11.65 40.6 11.65 41.05 11.65 41.85 10.7
L 41.9 11.1
Q 41.95 11.35 42.3 11.35
L 42.95 11.1 43.3 10.7 43.35 10.85 43.35 11.15 43.75 11.45 44.4 11.05 44.8 11.25 45.8 10.55
Q 47.75 10.55 47.75 9.1 47.75 8.65 47.3 8.65
L 45.55 9.55 44.9 9.45 44.9 9.1
Q 44.75 8.9 44.4 8.9
L 43.05 9.8 43.6 8.8 Z"/>
</g>
</defs>

<g transform="matrix( 1, 0, 0, 1, 0,0) ">
<use xlink:href="#Layer0_0_FILL"/>
</g>
</svg>
