
<svg xmlns="http://www.w3.org/2000/svg" version="1.1" xmlns:xlink="http://www.w3.org/1999/xlink" preserveAspectRatio="none" x="0px" y="0px" width="550px" height="400px" viewBox="0 0 550 400">
<defs>
<g id="Layer0_0_FILL">
<path fill="#010101" stroke="none" d="
M 0.8 1.35
Q 0.8 0.85 0.6 0.25
L 0.5 0.1 0.3 0
Q 0.2 0 0.2 0.4 0.2 0.8 0.3 1
L 0.4 1.4 0.3 1.6
Q 0.3 1.7 0.2 1.7
L 0.1 1.85 0.1 1.95
Q 0 2.15 0 2.75 0 3.25 0.1 3.6 0.1 3.75 0.2 3.75
L 0.3 3.85
Q 0.3 3.95 0.4 3.85
L 0.5 3.85
Q 0.6 3.85 0.6 3.75 0.65 3.75 0.8 3.35 0.95 2.45 0.8 1.35 Z"/>
</g>
</defs>

<g transform="matrix( 1, 0, 0, 1, 0,0) ">
<use xlink:href="#Layer0_0_FILL"/>
</g>
</svg>
