
<svg xmlns="http://www.w3.org/2000/svg" version="1.1" xmlns:xlink="http://www.w3.org/1999/xlink" preserveAspectRatio="none" x="0px" y="0px" width="550px" height="400px" viewBox="0 0 550 400">
<defs>
<g id="Layer0_0_FILL">
<path fill="#FFFFFF" stroke="none" d="
M 7 -3.1
Q 7 -7 3.1 -7
L -3.1 -7
Q -7 -7 -7 -3.1
L -7 3.1
Q -7 7 -3.1 7
L 3.1 7
Q 7 7 7 3.1
L 7 -3.1
M 2.55 -4.15
L 2.55 -4.1 2.6 -4.1
Q 2.6 -4.05 2.65 -4.05 2.65 -4 2.7 -4
L 2.7 -3.95 2.75 -3.95 2.75 -3.9
Q 2.8 -3.9 2.8 -3.85
L 2.9 -3.75 2.9 -3.7 2.95 -3.7 2.95 -3.6 3 -3.6 3 -3.55 3.05 -3.5 3.05 -3.45
Q 3.1 -3.45 3.1 -3.4 3.1 -3.35 3.15 -3.35
L 3.15 -3.25
Q 3.25 -3.1 3.3 -2.95 3.4 -2.75 3.4 -2.55 3.4 -2.35 3.4 -2.15 3.4 -2 3.4 -1.8 3.35 -1.7 3.35 -1.6 3.3 -1.55 3.3 -1.45 3.25 -1.4 3.25 -1.35 3.2 -1.25 3.15 -1.15 3.1 -1.1 3.05 -1.05 3 -0.95 2.95 -0.9
L 2.9 -0.85
Q 2.85 -0.75 2.8 -0.7 2.7 -0.55 2.6 -0.4 2.55 -0.35 2.45 -0.25 2.35 -0.15 2.25 -0.1 2.15 0 2 0.05
L 1.95 0.1
Q 1.9 0.1 1.9 0.15 1.85 0.15 1.85 0.2
L 1.8 0.2 1.75 0.25 1.7 0.25 1.65 0.3 1.6 0.3 1.55 0.35 1.5 0.35 1.5 0.4 1.45 0.4 1.45 0.45 1.4 0.45 1.3 0.55 1.25 0.55 1.25 0.6
Q 1.2 0.6 1.2 0.65 1.15 0.65 1.15 0.7 1.1 0.7 1.1 0.75 1.25 1.05 1.3 1.35 1.35 1.65 1.2 1.95 1.05 2.15 0.8 2.3 0.6 2.45 0.3 2.45 0.0537109375 2.45 -0.15 2.35 -0.3037109375 2.45 -0.55 2.45 -0.85 2.45 -1.05 2.3 -1.15 2.25 -1.25 2.15
L -1.3 2.1
Q -1.3 2.05 -1.35 2.05 -1.35 2 -1.4 2
L -1.4 1.95
Q -1.45 1.9 -1.45 1.85
L -1.45 1.8
Q -1.65 1.65 -1.7 1.45 -1.8 1.25 -1.8 1.05 -1.8 0.8 -1.8 0.55 -1.8 0.35 -1.7 0.15 -1.65 0 -1.55 -0.2 -1.5 -0.2 -1.5 -0.25 -1.4 -0.4 -1.25 -0.6 -1.15 -0.75 -0.95 -0.9 -0.8 -1 -0.7 -1.1 -0.55 -1.25 -0.4 -1.35 -0.3 -1.4 -0.15 -1.5
L -0.1 -1.5
Q -0.1 -1.55 -0.05 -1.55 0 -1.6 0.05 -1.6 0.05 -1.65 0.1 -1.65 0.15 -1.65 0.15 -1.7
L 0.2 -1.7 0.25 -1.75
Q 0.3 -1.8 0.3 -1.85
L 0.4 -1.95 0.4 -2
Q 0.45 -2.05 0.5 -2.1 0.5 -2.15 0.55 -2.15
L 0.55 -2.35 0.5 -2.35 0.5 -2.45 0.45 -2.45 0.45 -2.55
Q 0.4 -2.55 0.4 -2.6
L 0.3 -2.7 0.25 -2.7 0.25 -2.75 0.2 -2.75 0.2 -2.8 0.15 -2.85
Q 0.15 -2.9 0.1 -2.9
L 0.1 -2.95 0.05 -2.95 0.05 -3 0 -3 -0.05 -3.05 -0.1 -3.05
Q -0.1 -3.1 -0.15 -3.1
L -0.25 -3.1
Q -0.3 -3.1 -0.3 -3.15
L -0.45 -3.15 -0.5 -3.2 -0.65 -3.2 -0.65 -3.25 -1.25 -3.25 -1.25 -3.2 -1.45 -3.2 -1.45 -3.15 -1.55 -3.15 -1.55 -3.1 -1.6 -3.1 -1.6 -3.05
Q -1.75 -2.7 -2.05 -2.55 -2.35 -2.35 -2.65 -2.4 -2.8353515625 -2.430859375 -3 -2.5 -3.2412109375 -2.3568359375 -3.5 -2.4 -3.8 -2.45 -4 -2.6 -4.25 -2.8 -4.35 -3.1 -4.45 -3.45 -4.35 -3.75 -4.25 -4.1 -4 -4.35
L -4 -4.4
Q -3.95 -4.4 -3.95 -4.45 -3.9 -4.45 -3.9 -4.5 -3.8 -4.6 -3.75 -4.65 -3.65 -4.75 -3.55 -4.85 -3.45 -4.9 -3.3 -4.95 -3.2 -5 -3.1 -5.05 -2.95 -5.1 -2.85 -5.1 -2.8 -5.1 -2.75 -5.15
L -2.7 -5.15
Q -2.45 -5.25 -2.15 -5.25 -1.9 -5.25 -1.6 -5.25 -1.476953125 -5.25 -1.35 -5.25
L -1.3 -5.25
Q -1.18125 -5.25 -1.05 -5.25
L -0.75 -5.25
Q -0.6771484375 -5.25 -0.6 -5.25
L -0.6 -5.25
Q -0.4021484375 -5.25 -0.2 -5.25 0.05 -5.25 0.25 -5.25 0.4 -5.25 0.55 -5.2
L 0.65 -5.2
Q 0.7 -5.2 0.7 -5.15
L 0.9 -5.15 0.9 -5.1 1.05 -5.1 1.05 -5.05 1.2 -5.05 1.25 -5
Q 1.3 -5 1.35 -5 1.4 -4.95 1.45 -4.95
L 1.5 -4.9 1.6 -4.9 1.6 -4.85 1.7 -4.85
Q 1.7 -4.8 1.75 -4.8 1.8 -4.8 1.8 -4.75 1.85 -4.75 1.9 -4.75 1.9 -4.7 1.95 -4.7 2 -4.65 2.05 -4.65 2.05 -4.6 2.1 -4.6 2.1 -4.55 2.15 -4.55
L 2.25 -4.45 2.3 -4.45 2.3 -4.4
Q 2.35 -4.4 2.35 -4.35
L 2.45 -4.25
Q 2.45 -4.2 2.5 -4.2
L 2.55 -4.15
M 0.05 3.35
Q 0.7 3.35 1 3.9 1.25 4.3 1.05 4.75 0.85 5.25 0.3 5.35 0.2 5.35 0.1 5.35 -0.10546875 5.3341796875 -0.3 5.25 -0.396875 5.322265625 -0.55 5.35 -0.65 5.35 -0.75 5.35 -1.4 5.3 -1.65 4.7 -1.85 4.3 -1.6 3.85 -1.35 3.4 -0.8 3.35 -0.5306640625 3.35 -0.35 3.45 -0.15703125 3.36875 0.05 3.35 Z"/>

<path fill="#000000" stroke="none" d="
M 1 3.9
Q 0.7 3.35 0.05 3.35 -0.15703125 3.36875 -0.35 3.45 -0.594140625 3.56953125 -0.75 3.85 -1 4.3 -0.8 4.7 -0.6291015625 5.1103515625 -0.3 5.25 -0.10546875 5.3341796875 0.1 5.35 0.2 5.35 0.3 5.35 0.85 5.25 1.05 4.75 1.25 4.3 1 3.9
M 2.55 -4.1
L 2.55 -4.15 2.5 -4.2
Q 2.45 -4.2 2.45 -4.25
L 2.35 -4.35
Q 2.35 -4.4 2.3 -4.4
L 2.3 -4.45 2.25 -4.45 2.15 -4.55
Q 2.1 -4.55 2.1 -4.6 2.05 -4.6 2.05 -4.65 2 -4.65 1.95 -4.7 1.9 -4.7 1.9 -4.75 1.85 -4.75 1.8 -4.75 1.8 -4.8 1.75 -4.8 1.7 -4.8 1.7 -4.85
L 1.6 -4.85 1.6 -4.9 1.5 -4.9 1.45 -4.95
Q 1.4 -4.95 1.35 -5 1.3 -5 1.25 -5
L 1.2 -5.05 1.05 -5.05 1.05 -5.1 0.9 -5.1 0.9 -5.15 0.7 -5.15
Q 0.7 -5.2 0.65 -5.2
L 0.55 -5.2
Q 0.4 -5.25 0.25 -5.25 0.05 -5.25 -0.2 -5.25 -0.4021484375 -5.25 -0.6 -5.25
L -0.6 -5.25
Q -0.6771484375 -5.25 -0.75 -5.25
L -1.05 -5.25
Q -1.18125 -5.25 -1.3 -5.25
L -1.35 -5.25
Q -1.6166015625 -5.243359375 -1.85 -5.15
L -1.9 -5.15
Q -1.95 -5.1 -2 -5.1 -2.1 -5.1 -2.25 -5.05 -2.35 -5 -2.45 -4.95 -2.6 -4.9 -2.7 -4.85 -2.8 -4.75 -2.9 -4.65 -2.95 -4.6 -3.05 -4.5 -3.05 -4.45 -3.1 -4.45 -3.1 -4.4 -3.15 -4.4
L -3.15 -4.35
Q -3.4 -4.1 -3.5 -3.75 -3.6 -3.45 -3.5 -3.1 -3.4 -2.8 -3.15 -2.6 -3.0734375 -2.542578125 -3 -2.5 -2.8353515625 -2.430859375 -2.65 -2.4 -2.35 -2.35 -2.05 -2.55 -1.75 -2.7 -1.6 -3.05
L -1.6 -3.1 -1.55 -3.1 -1.55 -3.15 -1.45 -3.15 -1.45 -3.2 -1.25 -3.2 -1.25 -3.25 -0.65 -3.25
Q -0.6 -3.25 -0.55 -3.25 -0.4 -3.25 -0.25 -3.25 -0.05 -3.25 0.05 -3.25
L 0.2 -3.25 0.2 -3.2 0.35 -3.2 0.4 -3.15 0.55 -3.15
Q 0.55 -3.1 0.6 -3.1
L 0.7 -3.1
Q 0.75 -3.1 0.75 -3.05
L 0.8 -3.05 0.85 -3 0.9 -3 0.9 -2.95 0.95 -2.95 0.95 -2.9
Q 1 -2.9 1 -2.85
L 1.05 -2.8 1.05 -2.75 1.1 -2.75 1.1 -2.7 1.15 -2.7 1.25 -2.6
Q 1.25 -2.55 1.3 -2.55
L 1.3 -2.45 1.35 -2.45 1.35 -2.35 1.4 -2.35 1.4 -2.15
Q 1.35 -2.15 1.35 -2.1 1.3 -2.05 1.25 -2
L 1.25 -1.95 1.15 -1.85
Q 1.15 -1.8 1.1 -1.75
L 1.05 -1.7 1 -1.7
Q 1 -1.65 0.95 -1.65 0.9 -1.65 0.9 -1.6 0.85 -1.6 0.8 -1.55 0.75 -1.55 0.75 -1.5
L 0.7 -1.5
Q 0.55 -1.4 0.45 -1.35 0.3 -1.25 0.15 -1.1 0.05 -1 -0.1 -0.9 -0.3 -0.75 -0.4 -0.6 -0.55 -0.4 -0.65 -0.25 -0.65 -0.2 -0.7 -0.2 -0.8 0 -0.85 0.15 -0.95 0.35 -0.95 0.55 -0.95 0.8 -0.95 1.05 -0.95 1.25 -0.85 1.45 -0.8 1.65 -0.6 1.8
L -0.6 1.85
Q -0.6 1.9 -0.55 1.95
L -0.55 2
Q -0.5 2 -0.5 2.05 -0.45 2.05 -0.45 2.1
L -0.4 2.15
Q -0.3 2.25 -0.2 2.3 -0.1640625 2.326953125 -0.15 2.35 0.0537109375 2.45 0.3 2.45 0.6 2.45 0.8 2.3 1.05 2.15 1.2 1.95 1.35 1.65 1.3 1.35 1.25 1.05 1.1 0.75 1.1 0.7 1.15 0.7 1.15 0.65 1.2 0.65 1.2 0.6 1.25 0.6
L 1.25 0.55 1.3 0.55 1.4 0.45 1.45 0.45 1.45 0.4 1.5 0.4 1.5 0.35 1.55 0.35 1.6 0.3 1.65 0.3 1.7 0.25 1.75 0.25 1.8 0.2 1.85 0.2
Q 1.85 0.15 1.9 0.15 1.9 0.1 1.95 0.1
L 2 0.05
Q 2.15 0 2.25 -0.1 2.35 -0.15 2.45 -0.25 2.55 -0.35 2.6 -0.4 2.7 -0.55 2.8 -0.7 2.85 -0.75 2.9 -0.85
L 2.95 -0.9
Q 3 -0.95 3.05 -1.05 3.1 -1.1 3.15 -1.15 3.2 -1.25 3.25 -1.35 3.25 -1.4 3.3 -1.45 3.3 -1.55 3.35 -1.6 3.35 -1.7 3.4 -1.8 3.4 -2 3.4 -2.15 3.4 -2.35 3.4 -2.55 3.4 -2.75 3.3 -2.95 3.25 -3.1 3.15 -3.25
L 3.15 -3.35
Q 3.1 -3.35 3.1 -3.4 3.1 -3.45 3.05 -3.45
L 3.05 -3.5 3 -3.55 3 -3.6 2.95 -3.6 2.95 -3.7 2.9 -3.7 2.9 -3.75 2.8 -3.85
Q 2.8 -3.9 2.75 -3.9
L 2.75 -3.95 2.7 -3.95 2.7 -4
Q 2.65 -4 2.65 -4.05 2.6 -4.05 2.6 -4.1
L 2.55 -4.1 Z"/>
</g>

<path id="Layer0_0_1_STROKES" stroke="#FF9900" stroke-width="2" stroke-linejoin="round" stroke-linecap="round" fill="none" d="
M 3.1 -7
L -3.1 -7
Q -7 -7 -7 -3.1
L -7 3.1
Q -7 7 -3.1 7
L 3.1 7
Q 7 7 7 3.1
L 7 -3.1
Q 7 -7 3.1 -7 Z"/>
</defs>

<g transform="matrix( 1, 0, 0, 1, 0,0) ">
<use xlink:href="#Layer0_0_FILL"/>

<use xlink:href="#Layer0_0_1_STROKES"/>
</g>
</svg>
