
<svg xmlns="http://www.w3.org/2000/svg" version="1.1" xmlns:xlink="http://www.w3.org/1999/xlink" preserveAspectRatio="none" x="0px" y="0px" width="550px" height="400px" viewBox="0 0 550 400">
<defs>
<g id="Graphics_Symbol_706_0_Layer4_0_FILL">
<path fill="#000000" stroke="none" d="
M 69 -35.15
L 63.6 -38.45
Q 57.4 -42.4 50.3 -44.95 33.45 -51.2 2.1 -53.5 -26.15 -55.6 -35.65 -53.3 -39.1 -50.1 -40.35 -40.5 -41 -30.45 -41.5 -28.25 -42.5 -23.3 -45.1 -21.95
L -47.65 -20.95 -50.8 -19.4
Q -55.55 -16.15 -57.3 -15.25 -58.4 -14.75 -60.75 -14.2
L -62.9 -12.35
Q -62.5 -12.05 -61.65 -11.9 -61.15 -11.75 -61 -11.2 -60.2 -7.85 -53.95 5.1
L -51.8 9.5
Q -47.75 17.75 -47.4 17.65
L -46.9 17.25
Q -46.9 16.75 -44.6 15.85 -38.9 13.45 -31.05 11.65
L -21.5 9.5 -16.75 8.3 -3.85 4.85 10.1 1.45 71.1 -14.15 71 -13.6 72.25 -12.6
Q 73.4 -14.8 74.8 -15.8 75.55 -16.3 75.3 -17.3 75.2 -17.8 74.95 -17.8
L 74.55 -17.7
Q 78.65 -26.35 80.2 -31.8 80.05 -32.5 78.6 -33.25 75.85 -34.7 69 -35.15
M 69.9 -32.65
L 74.1 -31.75 70.3 -31.15 69.9 -32.65
M 74.55 -23.4
L 73.2 -18.8
Q 72.5 -16.8 70.85 -15.85 68.85 -14.7 64.15 -14
L -4.15 2.5
Q -15.25 5.7 -20.6 6.9
L -29.1 9.5 -47.35 15.4 -49.95 9.5 -50.7 7.85 -58.6 -9.75 -59.6 -11.85
Q -36.3 -17.5 -6.65 -21.2
L 13.05 -23.4 46.05 -26.45
Q 64.8 -28.25 77.9 -30.3 75.7 -26.95 74.55 -23.4
M 43.25 -44.2
Q 53.1 -39.95 68.9 -31
L 47.25 -28.85 27.8 -27.6
Q 2.35 -25.8 -31.75 -19.55
L -41.9 -17.25 -41.8 -17.65
Q -37.2 -33.55 -35.7 -43.05 -35.4 -45.3 -35 -52.2
L -1.15 -52.4
Q 13.1 -52.25 22.45 -50.55 32.6 -48.7 43.25 -44.2
M -43.6 -16.9
L -48.4 -16.25 -50.15 -16.1 -52.8 -15.8 -43.5 -21.25 -42.95 -21.55 -43.55 -17.35 -43.6 -16.9 Z"/>

<path fill="#584D1F" stroke="none" d="
M -48.4 -16.25
L -43.6 -16.9 -43.55 -17.35 -42.95 -21.55 -43.5 -21.25 -52.8 -15.8 -50.15 -16.1 -48.4 -16.25 Z"/>
</g>

<g id="Graphics_Symbol_706_0_Layer3_0_FILL">
<path fill="#E30202" fill-opacity="0.7529411764705882" stroke="none" d="
M -110.35 -32.85
L -104.3 -32.6
Q -93.1 -32.35 -70 -28.85 -45 -25.1 -26.35 -21.05
L -23.3 -20.3 -19.5 -20.9
Q -39.45 -25.45 -69.7 -30.1 -106.55 -35.75 -116.1 -34.9
L -118.65 -34.45
Q -113.35 -33.2 -110.35 -32.85 Z"/>
</g>

<g id="Graphics_Symbol_706_0_Layer2_0_FILL">
<path fill="#E30202" fill-opacity="0.7529411764705882" stroke="none" d="
M -121.7 -39.05
Q -125.15 -37.25 -124.4 -33.8 -123.5 -29.85 -111.4 -25.45 -100.85 -21.55 -83.85 -18.1 -71.35 -15.55 -59.25 -13.95 -47.8 -16.85 -36.7 -18.45
L -12.45 -21.95
Q -13.85 -26.2 -23.3 -30.6 -34.7 -36.15 -49.7 -36.85
L -83.65 -39.65 -114.85 -40.7
Q -119.3 -40.35 -121.7 -39.05 Z"/>
</g>

<g id="Graphics_Symbol_706_0_Layer1_0_FILL">
<path fill="#FD1313" fill-opacity="0.7529411764705882" stroke="none" d="
M -16.3 -21.35
L -16.5 -22.35
Q -16.7 -23.45 -17.25 -24.2 -17.8 -24.95 -18.25 -24.9 -18.7 -24.9 -18.85 -24.05
L -18.8 -22.1 -18.45 -21.05 -16.3 -21.35
M -35.15 -18.65
L -31.95 -19.15
Q -30.3 -20.75 -30.3 -21.85
L -34.95 -18.85 -35.15 -18.65
M -23.9 -20.25
L -22.15 -20.5 -22.15 -21 -22.4 -20.9 -23.9 -20.25
M -23.2 -26.15
Q -23.7 -26.95 -24.2 -26.9 -24.65 -26.9 -24.8 -26 -24.95 -25.25 -24.7 -24.1 -24.45 -22.95 -23.95 -22.15 -23.4 -21.4 -22.9 -21.4 -22.5 -21.5 -22.35 -22.3 -22.15 -23.15 -22.45 -24.25 -22.65 -25.4 -23.2 -26.15
M -30.65 -34.1
Q -31.1 -32.75 -30.65 -31.05 -30.2 -28.95 -29.15 -26.45 -27.95 -23.7 -27.05 -23.1
L -26.9 -24.75
Q -27.15 -27.85 -28.75 -35.05
L -28.95 -35.35 -29.55 -35.45
Q -30.35 -35.35 -30.65 -34.1
M -38.85 -29.6
Q -37.4 -25.7 -36.3 -24.95
L -35.05 -25.25 -34.45 -25.4
Q -34.6 -26.3 -36.55 -30.6
L -38.8 -36.05 -40.65 -35.85 -40.35 -34.35 -38.85 -29.6
M -45.9 -16.9
L -40.7 -17.8
Q -38.05 -20.45 -36.85 -23.2
L -42.35 -20.45 -45.9 -16.9
M -53.2 -15.4
Q -48.05 -18.25 -45.55 -20.85 -43.05 -23.4 -43.6 -25 -47.3 -22.15 -50.8 -18.65
L -54.3 -15.15 -53.2 -15.4
M -73.5 -21.35
L -77 -17.05 -74.8 -16.7
Q -74.35 -16.75 -70.1 -21.35 -65.7 -26.25 -65.85 -27.7 -72.2 -23 -73.5 -21.35
M -67 -29.95
Q -66.65 -30.45 -66.75 -30.9 -68.05 -36.75 -69.6 -38.7 -70.15 -39.45 -71.45 -39.75
L -70.35 -34.85
Q -70.05 -33.3 -67.4 -29.5
L -67 -29.95
M -74.5 -38.3
Q -75.55 -39.85 -76.8 -40.35
L -76.05 -35.75
Q -75 -30.95 -73.8 -30.1 -72.35 -31.3 -73.4 -36 -73.6 -37 -74.5 -38.3
M -63 -39
L -65.25 -38.8 -63.05 -28.85 -60.75 -29.1 -63 -39
M -47.5 -26.55
L -47.1 -27.05
Q -46.8 -27.9 -47.1 -29.2
L -48.1 -33.1
Q -49.45 -36.8 -51.45 -37.05
L -52.15 -37.3
Q -51.15 -34.4 -47.5 -26.55
M -50.25 -25.85
L -50.4 -26.35
Q -50.5 -26.35 -50.6 -26.5 -54.45 -24.15 -57.8 -20.3
L -62.3 -15
Q -59.85 -14.75 -56.75 -17.9
L -52.05 -23.4 -50.75 -24.75
Q -50.15 -25.4 -50.25 -25.85
M -45.65 -36.45
L -45.8 -34.1
Q -45.75 -31.85 -45.1 -28.7 -44.6 -26.5 -43.8 -25.9 -43.3 -25.45 -42.25 -25.6 -42.1 -26 -42.55 -28.45
L -44 -36.2 -45.65 -36.45
M -59.4 -26.3
Q -59.45 -26.7 -59.8 -26.9
L -60.55 -27.15 -71.1 -16.2 -70.4 -15.95 -70.25 -15.8 -68.7 -15.85
Q -68 -15.9 -63.65 -20 -58.95 -24.4 -59.4 -26.3
M -56 -37.8
L -58.1 -38.05 -56.15 -31.6
Q -55.95 -30.7 -56.2 -29.85
L -56.3 -28.05
Q -55.25 -27.35 -54.95 -27.4 -53.8 -27.5 -53.8 -28.65 -53.8 -30.6 -56 -37.8
M -81.1 -25
Q -85.2 -21.25 -86.7 -19.35 -80.75 -20.05 -76.95 -24.25 -74 -27.55 -74 -29.9 -76.1 -29.4 -81.1 -25
M -107.7 -29.75
Q -111.6 -27.05 -112.6 -25 -112.4 -24.45 -111.85 -24.3 -110.2 -24.5 -105.8 -27.95 -101.5 -31.45 -100.95 -32.8 -103.6 -32.55 -107.7 -29.75
M -118 -26.85
L -117.9 -26.8
Q -115.65 -26.9 -111.65 -29.65 -107.6 -32.35 -107.85 -33.7 -108 -34.35 -108.65 -33.95 -110.65 -34.05 -114.25 -31.5 -118 -28.9 -118 -26.85
M -118.5 -32.85
Q -120.15 -31.8 -120.3 -31.25
L -119.9 -30.75
Q -119.75 -30.6 -119.1 -30.4 -117.6 -31.45 -116.45 -32.5
L -115.35 -33.85
Q -116.65 -34 -118.5 -32.85
M -118.3 -42.9
L -119.15 -42.25
Q -119.2 -41.4 -117.7 -38.5 -116.25 -35.75 -115.35 -34.95
L -114.55 -35.25 -114.8 -36.55
Q -115 -37.65 -116.35 -40 -117.65 -42.35 -118.3 -42.9
M -108.6 -39.15
Q -109.65 -41.05 -111.05 -42.05 -112.15 -40.15 -111.75 -38.25 -111.3 -36.15 -108.7 -34.9 -107.4 -35.7 -107.75 -37.1 -107.9 -37.95 -108.6 -39.15
M -89.2 -34.45
Q -87.6 -31.85 -86.35 -31.95 -85.9 -32 -85.55 -32.2
L -85.25 -32.4 -85.35 -33.45
Q -85.65 -34.75 -87.35 -37.5 -89.5 -40.85 -91.65 -42.45
L -90.95 -38.6
Q -90.55 -36.6 -89.2 -34.45
M -90.25 -25.4
Q -86.4 -29.55 -86.65 -31.15 -88.05 -30.85 -91.95 -27.6
L -98.15 -21.75 -96.6 -21.45 -95.6 -21.25
Q -94.05 -21.45 -90.25 -25.4
M -81.35 -29.35
Q -86.15 -27.35 -87.3 -25.3
L -88.25 -23.2
Q -88.95 -21.7 -90.2 -20.05
L -89.75 -19.85 -89.6 -19.75
Q -87.35 -19.8 -84.1 -23.25 -80.75 -26.9 -81.35 -29.35
M -100.9 -34.85
Q -100.75 -35.3 -100.9 -36.2 -101.1 -37.05 -102.25 -39.3 -103.35 -41.6 -103.9 -42.1
L -103.95 -42.1 -103.5 -35.65 -103.1 -35.2 -101.8 -33.8
Q -101 -34.3 -100.9 -34.85
M -99.4 -27.4
Q -96.3 -30.55 -95.9 -32.1
L -108.75 -23.8 -105.9 -23.3
Q -103.15 -23.55 -99.4 -27.4
M -96.6 -41.9
Q -98.1 -44.3 -99.2 -44.25 -100.3 -44.25 -99.75 -41.8 -99.1 -38.75 -96.4 -34
L -95.35 -34.05 -94.5 -34.15
Q -93.85 -34.4 -93.95 -35 -94.85 -39.2 -96.6 -41.9
M -81.05 -41.4
L -83.3 -41.2 -81.35 -32.55 -79.15 -32.75 -81.05 -41.4 Z"/>
</g>

<g id="Graphics_Symbol_706_0_Layer0_0_FILL">
<path fill="#B10101" fill-opacity="0.7529411764705882" stroke="none" d="
M -14.35 -21.65
L -14.5 -22.15 -14.85 -23.6
Q -15.4 -25 -16.2 -25.3
L -16.65 -21.45 -16.6 -21.3 -14.35 -21.65
M -33.6 -22.4
L -38.8 -18.55 -39.4 -18.1 -36.7 -18.45 -35.5 -18.65
Q -33.4 -20.85 -33.6 -22.4
M -28.2 -19.6
Q -27.6 -20.65 -27.65 -21.25
L -27.9 -21.4 -31.15 -19.25 -28.2 -19.6
M -20.4 -29.25
L -20.55 -29.55 -21.45 -29.85 -22.35 -26.6 -22.4 -27.3
Q -22.55 -28.1 -23.65 -30.45
L -24.95 -32.9
Q -26.4 -32.3 -27.05 -31.05 -27.5 -29.95 -27.3 -28.85
L -26.05 -23.85
Q -25.65 -22.95 -24.6 -22.45
L -23.45 -24 -22.45 -25.7 -22.45 -24.75
Q -22.35 -23.25 -21.7 -22.05 -20.95 -20.8 -19.85 -20.8
L -19.45 -20.9 -19.4 -21 -19.35 -21.2 -19.3 -21.1 -19.4 -21.5 -19.95 -21.85
Q -20.55 -22.35 -20.85 -23.6
L -20.4 -25.65
Q -20.05 -27.85 -20.4 -29.25
M -35.55 -34.55
L -35.65 -34.4
Q -36 -33.6 -34.25 -29.6 -32.65 -25.8 -31.75 -24.8 -31.3 -24.85 -31.05 -25.05
L -30.75 -25.25 -31.2 -27.75
Q -31.75 -30.1 -32.55 -31.5 -33.55 -33.3 -35.55 -34.55
M -54.65 -21.2
Q -57.6 -17.75 -57.1 -15.4
L -56.8 -14.55 -54.65 -15.05 -52.1 -18.8
Q -48.65 -24 -48.55 -25.1 -51.65 -24.65 -54.65 -21.2
M -48.6 -16.35
L -45.2 -20.15
Q -42.25 -23.5 -42.3 -23.8 -42.4 -24.25 -43.5 -24.55
L -48.95 -18.85 -51.85 -15.75 -48.6 -16.35
M -80.2 -16.9
L -79.45 -16.65
Q -74.5 -22.65 -73.5 -24.2 -72.2 -25.95 -71.95 -27.35 -73.9 -27.2 -77.45 -22.8 -80.85 -18.55 -80.7 -17.55 -80.6 -17.15 -80.2 -16.9
M -66.65 -14.6
L -66.3 -14.05 -65.5 -13.75
Q -59.75 -18.95 -57.9 -21.35 -55.65 -24.25 -56.15 -26.55 -57.8 -25.8 -62.3 -20.55 -66.85 -15.35 -66.65 -14.6
M -64.5 -26.1
Q -64.8 -27.45 -65.8 -27.6
L -69.85 -22.85 -73.7 -17.9 -72.5 -17.25
Q -69.15 -18.1 -66.55 -21.15 -64.05 -24.1 -64.5 -26.1
M -72.15 -42
L -72.15 -39.4 -71.8 -35.95
Q -71.25 -33.5 -70.4 -31.55
L -69.45 -29.9 -69.15 -30.15
Q -68.7 -30.8 -69.5 -34.6
L -70.3 -37.8
Q -71.15 -40.6 -72.15 -42
M -77.35 -38.85
Q -78.45 -40.65 -79.55 -41.35
L -79.7 -40.65 -79.7 -39.7
Q -79.2 -37.35 -77.95 -35.05 -76.7 -32.8 -75.45 -32
L -75.15 -32.3 -74.95 -32.5
Q -75.6 -36.2 -77.35 -38.85
M -67.3 -39.85
Q -67.95 -39.25 -68.1 -38.1
L -68.05 -36.7
Q -67.3 -33.4 -66.35 -31.85 -65.35 -30.2 -63.2 -28.95
L -62.9 -29.55
Q -63.15 -30.75 -64.6 -34.15 -66.1 -37.8 -67.3 -39.85
M -43.3 -30.65
Q -42.85 -28.5 -42 -27.25 -41.25 -26 -40.5 -26
L -39.9 -26.15 -39.95 -26.2 -39.9 -26.35 -40.95 -31.5 -41.1 -34.15
Q -41.65 -36.75 -43.5 -37.8
L -43.7 -35.25
Q -43.85 -33 -43.3 -30.65
M -57.15 -27.8
L -56.4 -28 -56.45 -29 -58.05 -33.5
Q -59.95 -37.8 -61.4 -38.45
L -61.5 -38.4 -61.5 -37.25
Q -61.15 -35.15 -57.15 -27.8
M -50.8 -36.05
L -50.75 -35
Q -50.55 -34.15 -48.35 -30.1
L -45.65 -25.6 -44.9 -26.25 -45.1 -27.35 -47.15 -31.9
Q -49.4 -36.55 -50.35 -37.3
L -50.55 -36.8 -50.8 -36.05
M -51.05 -31.9
Q -51.35 -33.1 -52.3 -35.15 -53.5 -37.75 -54.4 -38.35 -54.65 -37.35 -54.5 -32.45
L -53.5 -29.45
Q -52.9 -27.9 -52.45 -27.65 -52.15 -27.8 -51.9 -28 -50.55 -29.4 -51.05 -31.9
M -85.7 -20.7
L -85.35 -20.1
Q -83.9 -20.4 -81 -23.75 -78.05 -27.05 -78.25 -27.85
L -78.55 -28.2 -79.3 -28.15
Q -81.5 -28.3 -83.65 -25.3 -85.55 -22.65 -85.7 -20.7
M -109.15 -25.45
L -108.85 -24.85 -108.65 -24.65 -107.75 -24.65
Q -105.75 -25.35 -103.9 -26.45 -100.3 -28.8 -100.9 -31.25 -101 -31.85 -101.75 -32 -103.65 -30.2 -107.15 -27.65 -109.3 -26.05 -109.15 -25.45
M -117.35 -28.15
Q -114.55 -30.3 -114.3 -32.45 -123.1 -28.8 -122.4 -25.85 -120.1 -26.05 -117.35 -28.15
M -116.05 -26
Q -114.75 -26.15 -111.45 -28.3 -107.85 -30.7 -107.55 -32.2
L -108 -32.1
Q -109.1 -32 -112.9 -29.55 -116.65 -27.1 -116.55 -26.75
L -116.25 -26.15 -116.05 -26
M -112.25 -40.7
L -111.85 -42.7
Q -113.7 -42.35 -114.3 -40.65
L -114.5 -38.95
Q -113.9 -36.2 -112.4 -35.85
L -110.8 -35.95 -110.8 -36.55 -111.7 -37.7
Q -112.5 -38.7 -112.6 -39.25
L -112.25 -40.7
M -107.1 -40.8
Q -107.3 -39.65 -106.95 -38.15 -106.65 -36.7 -105.95 -35.7 -105.35 -34.65 -104.7 -34.65 -104.2 -34.75 -104.05 -35.85 -103.85 -36.95 -104.2 -38.45 -104.55 -39.95 -105.1 -40.95 -105.85 -41.95 -106.35 -41.95 -106.95 -41.85 -107.1 -40.8
M -84.35 -28.95
L -84.7 -29.6
Q -92.6 -23.9 -94.5 -21.35 -96 -19.45 -94.35 -18.2
L -88.5 -23.75
Q -84.2 -28.1 -84.35 -28.95
M -95.65 -30.35
L -97.9 -29 -103.05 -24.7
Q -102.85 -23.95 -102.15 -23.95 -101.25 -24.1 -99.35 -25.95
L -95.25 -30 -95.65 -30.35
M -96 -44.75
L -96.25 -43.65
Q -95.7 -40.85 -93.85 -37.15
L -91.9 -33.5 -91.65 -33.7 -91.35 -34.25
Q -91.15 -34.8 -91.25 -35.15
L -93.2 -40
Q -95.15 -44.35 -95.8 -44.95
L -96 -44.75
M -98.85 -41.85
L -100.7 -41.7 -99 -34.25 -97.15 -34.45 -98.85 -41.85
M -87.05 -43
L -87.1 -42.95 -86.7 -39.35
Q -86.2 -37.1 -85.1 -35 -83.8 -32.2 -82.25 -31.5
L -81.95 -31.65
Q -81.6 -32.3 -81.85 -33.25 -82.25 -35.05 -83.25 -36.8
L -87.05 -43
M -126.4 -29.75
L -126.25 -29.5 -125.15 -29.6
Q -123.6 -29.7 -121.25 -31.15 -118.9 -32.5 -118.05 -33.7
L -118.2 -33.95 -124.25 -31.75
Q -126.9 -30.8 -126.75 -30.25
L -126.4 -29.75
M -122.4 -37.35
Q -125.15 -38.9 -127.8 -38.65
L -125.15 -36.55 -128.45 -36.55 -128.45 -35.9 -126.15 -35.2 -123.4 -34.55
Q -128.15 -32.6 -128.8 -32.45
L -126.95 -31.75
Q -123.95 -32.05 -121 -33.75
L -118.55 -35.4 -118.05 -35.2 -117.6 -34.95
Q -117.1 -35.05 -116.95 -35.2
L -116.85 -35.3 -117 -36.05
Q -118 -40.5 -120.85 -41.4
L -120.95 -41.1
Q -121.05 -39.6 -120.15 -37.9
L -118.65 -35.5 -119.65 -35.75
Q -120 -35.75 -122.4 -37.35 Z"/>
</g>

<g id="Graphics_Symbol_707_0_Layer2_0_FILL">
<path fill="#000000" fill-opacity="0.25098039215686274" stroke="none" d="
M 19.45 -51.05
L 19.6 -50.75 -9.8 -53
Q -34.4 -54.15 -34.75 -53.5 -35.1 -52.8 -38.7 -37.3 -42.3 -21.75 -44.5 -21.25 -47.8 -20.45 -50.35 -18.55 -52.5 -17 -52.35 -16.45
L -51.95 -15.7
Q -51.8 -15.5 -51.5 -15.55
L -53.6 -15.15
Q -57.8 -14.15 -59.55 -12.95 -60.15 -12.45 -60.15 -11.4 -60.1 -9.75 -58.4 -6.5
L -53.55 3.3
Q -52 6.45 -51.15 9.5
L -50.55 12.05
Q -49.75 16.35 -48.9 16.6
L -45.25 16.35
Q -43.4 15.95 -42.55 15.45
L -39.3 14 -31.2 11.9 -21.35 9.5 4.6 3.25 31 -3.75 39.75 -5.15
Q 69.85 -12.45 70.6 -12.95
L 72.05 -14.5 75.05 -19.6
Q 79.15 -27.6 78.45 -30.65 78.25 -31.4 76.75 -31.9 75.25 -32.4 75.15 -32.65 74.95 -33.6 73.55 -33.7
L 71.8 -33.55
Q 69.95 -33.1 70.25 -31.8 70.35 -31.35 70.7 -31.25
L 71.3 -31.1
Q 69.2 -29.75 68.95 -27.25 68.7 -23.85 67.95 -22.6 64.2 -16.25 38.45 -10.1
L 8.8 -3.7 -9.6 1.3 -31.65 7.2
Q -38.85 8.9 -44.25 2.6 -47.25 -1 -48.7 -5.25
L -49.4 -7.55 -50.3 -14.8 -47.4 -14.2 -44.75 -14.35
Q -43.7 -14.85 -42.6 -17.4
L -31.35 -19.15 -20.8 -20.75 -14.9 -21.7 12.05 -25.55 40.15 -26.75
Q 59.8 -27.5 65.75 -28.95 67.75 -29.4 68.15 -30.45 68.4 -31 68.15 -32.05 66.8 -37.85 49.75 -43.6 36.75 -47.95 19.45 -51.05
M 28.65 -29.05
L 4.25 -27.2
Q -7.85 -25.95 -22.35 -23.2
L -29.25 -23.5
Q -31.65 -24.4 -32.4 -27.45 -31.85 -31.85 -31.15 -33.75
L -27.85 -42.35
Q -26.7 -44.4 -23.6 -45.15 -12.2 -47.85 -0.65 -47.65 11.95 -47.45 33.25 -43.8 42.05 -42.35 46.75 -39.9 50 -38.25 50.35 -36.8 50.75 -34.95 49.45 -33.65 47.95 -32.25 44.2 -31.35 37.1 -29.65 28.65 -29.05 Z"/>
</g>

<g id="Graphics_Symbol_707_0_Layer1_0_FILL">
<path fill="#FFFFFF" fill-opacity="0.10196078431372549" stroke="none" d="
M 53.85 -26.75
L 52.9 -26.65 51.6 -26.25 41 -25.6 28.85 -25 -5.3 -21.3 -6.6 -21.15
Q -13.25 -20.3 -23.55 -17.8 -30.65 -16.1 -32.8 -17.3
L -33.15 -15.8 -33.25 -14.8
Q -32.15 -10.3 -29.7 -7.5 -27.95 -5.5 -25.5 -4.35 -20.6 -1.95 -14.35 -3.45 -12.45 -3.9 -10.3 -4.75
L 34.5 -15.5
Q 44.05 -17.7 49.55 -21.35 53.95 -24.35 53.85 -26.75
M 0.05 -30.55
Q 15.65 -31.7 22.2 -33.25 24.75 -33.9 25.45 -34.85 25.95 -35.5 25.7 -36.5 25.45 -37.5 21.65 -38.85 17.75 -40.25 12.05 -41.1 -2.65 -43.45 -15.05 -40.45 -17.4 -39.9 -18.75 -36.85 -19.95 -34.15 -19.5 -32.2 -18.75 -29.15 0.05 -30.55 Z"/>
</g>

<g id="Graphics_Symbol_707_0_Layer0_0_FILL">
<path fill="#251E0E" fill-opacity="0.25098039215686274" stroke="none" d="
M 68.9 -31
Q 53.1 -39.95 43.25 -44.2 32.6 -48.7 22.45 -50.55 13.1 -52.25 -1.15 -52.4
L -35 -52.2
Q -35.4 -45.3 -35.7 -43.05 -37.2 -33.55 -41.8 -17.65
L -41.9 -17.25 -31.75 -19.55
Q 2.35 -25.8 27.8 -27.6
L 47.25 -28.85 68.9 -31 Z"/>
</g>

<g id="MovieClips_PR2_Graphics_1_Apr_2014_fla_Symbol_667_11_Layer0_0_FILL">
<path fill="#584D1F" stroke="none" d="
M 74.55 -23.4
Q 75.7 -26.95 77.9 -30.3
L 74.9 -30.55 74.1 -31.75 69.9 -32.65 43.25 -44.2
Q 32.6 -48.7 22.45 -50.55 13.1 -52.25 -1.15 -52.4
L -35 -52.2
Q -35.4 -45.3 -35.7 -43.05 -37.2 -33.55 -41.8 -17.65
L -41.9 -17.25 -41.9 -16.75
Q -51.95 -13.7 -59.6 -11.85
L -47.35 15.4 -20.6 6.9
Q -15.25 5.7 -4.15 2.5
L 64.15 -14
Q 68.85 -14.7 70.85 -15.85 72.5 -16.8 73.2 -18.8
L 74.55 -23.4 Z"/>
</g>

<g id="Graphics_Symbol_680_0_Layer1_0_FILL">
<path fill="#E30202" fill-opacity="0.7529411764705882" stroke="none" d="
M -121.7 -39.05
Q -125.15 -37.25 -124.4 -33.8 -123.5 -29.85 -111.4 -25.45 -100.85 -21.55 -83.85 -18.1 -71.35 -15.55 -59.25 -13.95 -47.8 -16.85 -36.7 -18.45
L -12.45 -21.95
Q -13.85 -26.2 -23.3 -30.6 -34.7 -36.15 -49.7 -36.85
L -83.65 -39.65 -114.85 -40.7
Q -119.3 -40.35 -121.7 -39.05 Z"/>
</g>

<g id="Graphics_Symbol_680_0_Layer0_0_FILL">
<path fill="#B10101" fill-opacity="0.7529411764705882" stroke="none" d="
M -14.35 -21.65
L -14.5 -22.15 -14.85 -23.6
Q -15.4 -25 -16.2 -25.3
L -16.65 -21.45 -16.6 -21.3 -14.35 -21.65
M -38.8 -18.55
L -39.4 -18.1 -36.7 -18.45 -35.5 -18.65
Q -33.4 -20.85 -33.6 -22.4
L -38.8 -18.55
M -35.55 -34.55
L -35.65 -34.4
Q -36 -33.6 -34.25 -29.6 -32.65 -25.8 -31.75 -24.8 -31.3 -24.85 -31.05 -25.05
L -30.75 -25.25 -31.2 -27.75
Q -31.75 -30.1 -32.55 -31.5 -33.55 -33.3 -35.55 -34.55
M -57.1 -15.4
L -56.8 -14.55 -54.65 -15.05 -52.1 -18.8
Q -48.65 -24 -48.55 -25.1 -51.65 -24.65 -54.65 -21.2 -57.6 -17.75 -57.1 -15.4
M -80.2 -16.9
L -79.45 -16.65
Q -74.5 -22.65 -73.5 -24.2 -72.2 -25.95 -71.95 -27.35 -73.9 -27.2 -77.45 -22.8 -80.85 -18.55 -80.7 -17.55 -80.6 -17.15 -80.2 -16.9
M -62.3 -20.55
Q -66.85 -15.35 -66.65 -14.6
L -66.3 -14.05 -65.5 -13.75
Q -59.75 -18.95 -57.9 -21.35 -55.65 -24.25 -56.15 -26.55 -57.8 -25.8 -62.3 -20.55
M -64.5 -26.1
Q -64.8 -27.45 -65.8 -27.6
L -69.85 -22.85 -73.7 -17.9 -72.5 -17.25
Q -69.15 -18.1 -66.55 -21.15 -64.05 -24.1 -64.5 -26.1
M -77.35 -38.85
Q -78.45 -40.65 -79.55 -41.35
L -79.7 -40.65 -79.7 -39.7
Q -79.2 -37.35 -77.95 -35.05 -76.7 -32.8 -75.45 -32
L -75.15 -32.3 -74.95 -32.5
Q -75.6 -36.2 -77.35 -38.85
M -40.95 -31.5
L -41.1 -34.15
Q -41.65 -36.75 -43.5 -37.8
L -43.7 -35.25
Q -43.85 -33 -43.3 -30.65 -42.85 -28.5 -42 -27.25 -41.25 -26 -40.5 -26
L -39.9 -26.15 -39.95 -26.2 -39.9 -26.35 -40.95 -31.5
M -51.05 -31.9
Q -51.35 -33.1 -52.3 -35.15 -53.5 -37.75 -54.4 -38.35 -54.65 -37.35 -54.5 -32.45
L -53.5 -29.45
Q -52.9 -27.9 -52.45 -27.65 -52.15 -27.8 -51.9 -28 -50.55 -29.4 -51.05 -31.9
M -85.7 -20.7
L -85.35 -20.1
Q -83.9 -20.4 -81 -23.75 -78.05 -27.05 -78.25 -27.85
L -78.55 -28.2 -79.3 -28.15
Q -81.5 -28.3 -83.65 -25.3 -85.55 -22.65 -85.7 -20.7
M -101.75 -32
Q -103.65 -30.2 -107.15 -27.65 -109.3 -26.05 -109.15 -25.45
L -108.85 -24.85 -108.65 -24.65 -107.75 -24.65
Q -105.75 -25.35 -103.9 -26.45 -100.3 -28.8 -100.9 -31.25 -101 -31.85 -101.75 -32
M -117.35 -28.15
Q -114.55 -30.3 -114.3 -32.45 -123.1 -28.8 -122.4 -25.85 -120.1 -26.05 -117.35 -28.15
M -116.05 -26
Q -114.75 -26.15 -111.45 -28.3 -107.85 -30.7 -107.55 -32.2
L -108 -32.1
Q -109.1 -32 -112.9 -29.55 -116.65 -27.1 -116.55 -26.75
L -116.25 -26.15 -116.05 -26
M -112.6 -39.25
L -112.25 -40.7 -111.85 -42.7
Q -113.7 -42.35 -114.3 -40.65
L -114.5 -38.95
Q -113.9 -36.2 -112.4 -35.85
L -110.8 -35.95 -110.8 -36.55 -111.7 -37.7
Q -112.5 -38.7 -112.6 -39.25
M -107.1 -40.8
Q -107.3 -39.65 -106.95 -38.15 -106.65 -36.7 -105.95 -35.7 -105.35 -34.65 -104.7 -34.65 -104.2 -34.75 -104.05 -35.85 -103.85 -36.95 -104.2 -38.45 -104.55 -39.95 -105.1 -40.95 -105.85 -41.95 -106.35 -41.95 -106.95 -41.85 -107.1 -40.8
M -84.35 -28.95
L -84.7 -29.6
Q -92.6 -23.9 -94.5 -21.35 -96 -19.45 -94.35 -18.2
L -88.5 -23.75
Q -84.2 -28.1 -84.35 -28.95
M -99.35 -25.95
L -95.25 -30 -95.65 -30.35 -97.9 -29 -103.05 -24.7
Q -102.85 -23.95 -102.15 -23.95 -101.25 -24.1 -99.35 -25.95
M -93.2 -40
Q -95.15 -44.35 -95.8 -44.95
L -96 -44.75 -96.25 -43.65
Q -95.7 -40.85 -93.85 -37.15
L -91.9 -33.5 -91.65 -33.7 -91.35 -34.25
Q -91.15 -34.8 -91.25 -35.15
L -93.2 -40
M -98.85 -41.85
L -100.7 -41.7 -99 -34.25 -97.15 -34.45 -98.85 -41.85
M -28.2 -19.6
Q -27.6 -20.65 -27.65 -21.25
L -27.85 -21.35 -27.9 -21.4 -31.15 -19.25 -28.2 -19.6
M -20.4 -29.25
L -20.55 -29.55 -21.45 -29.85 -22.35 -26.6 -22.4 -27.3
Q -22.55 -28.1 -23.65 -30.45
L -24.95 -32.9
Q -26.4 -32.3 -27.05 -31.05 -27.5 -29.95 -27.3 -28.85
L -26.05 -23.85
Q -25.65 -22.95 -24.6 -22.45
L -23.45 -24 -22.45 -25.7 -22.45 -24.75
Q -22.35 -23.25 -21.7 -22.05
L -21.05 -21.25
Q -20.6 -20.85 -20.05 -20.8
L -19.85 -20.8 -19.45 -20.9 -19.4 -21 -19.35 -21.2 -19.3 -21.1 -19.4 -21.5 -19.95 -21.85
Q -20.55 -22.35 -20.85 -23.6
L -20.4 -25.65
Q -20.05 -27.85 -20.4 -29.25
M -42.3 -23.8
Q -42.35 -24.1 -42.95 -24.35
L -43.5 -24.55 -43.55 -24.45 -48.95 -18.85 -51.85 -15.75 -48.6 -16.35 -45.2 -20.15
Q -42.25 -23.5 -42.3 -23.8
M -72.15 -42
L -72.15 -39.4 -71.8 -35.95
Q -71.25 -33.5 -70.4 -31.55
L -69.55 -30.05 -69.45 -29.9 -69.3 -30 -69.15 -30.15
Q -68.7 -30.8 -69.5 -34.6
L -70.3 -37.8
Q -71.15 -40.6 -72.15 -42
M -67.3 -39.85
Q -67.95 -39.25 -68.1 -38.1
L -68.05 -36.7
Q -67.3 -33.4 -66.35 -31.85 -65.4 -30.3 -63.45 -29.1
L -63.2 -28.95 -63.1 -29.05 -62.9 -29.55
Q -63.15 -30.75 -64.6 -34.15 -66.1 -37.8 -67.3 -39.85
M -57.3 -28.1
L -57.15 -27.8 -56.45 -27.95 -56.4 -28 -56.45 -29 -58.05 -33.5
Q -59.95 -37.8 -61.4 -38.45
L -61.5 -38.4 -61.5 -37.25
Q -61.15 -35.2 -57.3 -28.1
M -50.8 -36.05
L -50.75 -35
Q -50.55 -34.15 -48.35 -30.1
L -46.1 -26.2 -45.65 -25.6 -45.2 -26.05 -44.9 -26.25 -45.1 -27.35 -47.15 -31.9
Q -49.4 -36.55 -50.35 -37.3
L -50.55 -36.8 -50.8 -36.05
M -87.1 -42.95
L -86.7 -39.35
Q -86.2 -37.1 -85.1 -35 -84.15 -33 -83.1 -32.05 -82.7 -31.7 -82.25 -31.5
L -81.95 -31.65 -81.85 -31.9
Q -81.65 -32.45 -81.85 -33.25 -82.25 -35.05 -83.25 -36.8
L -87.05 -43 -87.1 -42.95
M -126.4 -29.75
L -126.25 -29.5 -125.15 -29.6
Q -123.6 -29.7 -121.25 -31.15 -118.9 -32.5 -118.05 -33.7
L -118.2 -33.95 -124.25 -31.75
Q -126.9 -30.8 -126.75 -30.25
L -126.4 -29.75
M -122.4 -37.35
Q -125.15 -38.9 -127.8 -38.65
L -125.15 -36.55 -128.45 -36.55 -128.45 -35.9 -126.15 -35.2 -123.4 -34.55
Q -128.15 -32.6 -128.8 -32.45
L -126.95 -31.75
Q -123.95 -32.05 -121 -33.75
L -118.55 -35.4 -118.05 -35.2 -117.6 -34.95
Q -117.1 -35.05 -116.95 -35.2
L -116.85 -35.3 -117 -36.05
Q -118 -40.5 -120.85 -41.4
L -120.95 -41.1
Q -121.05 -39.6 -120.15 -37.9
L -118.65 -35.5 -119.65 -35.75
Q -120 -35.75 -122.4 -37.35 Z"/>

<path fill="#E30202" fill-opacity="0.7529411764705882" stroke="none" d="
M -81.85 -31.9
L -81.95 -31.65 -82.25 -31.5
Q -82.7 -31.7 -83.1 -32.05 -108.4 -35.6 -116.1 -34.9
L -118.65 -34.45
Q -113.35 -33.2 -110.35 -32.85
L -104.3 -32.6
Q -93.1 -32.35 -70 -28.85
L -43.55 -24.45 -43.5 -24.55 -42.95 -24.35 -27.9 -21.4 -27.85 -21.35 -26.35 -21.05 -23.3 -20.3 -20.05 -20.8
Q -20.6 -20.85 -21.05 -21.25 -31.7 -23.65 -45.2 -26.05
L -45.65 -25.6 -46.1 -26.2 -56.45 -27.95 -57.15 -27.8 -57.3 -28.1 -63.1 -29.05 -63.2 -28.95 -63.45 -29.1 -69.3 -30 -69.45 -29.9 -69.55 -30.05 -69.7 -30.1 -81.85 -31.9 Z"/>
</g>
</defs>

<g transform="matrix( 1, 0, 0, 1, 0,0) ">
<g transform="matrix( 1, 0, 0, 1, 0,0) ">
<g transform="matrix( 1, 0, 0, 1, 0,0) ">
<use xlink:href="#Graphics_Symbol_706_0_Layer4_0_FILL"/>
</g>

<g transform="matrix( 1, 0, 0, 1, 0,0) ">
<use xlink:href="#Graphics_Symbol_706_0_Layer3_0_FILL"/>
</g>

<g transform="matrix( 1, 0, 0, 1, 0,0) ">
<use xlink:href="#Graphics_Symbol_706_0_Layer2_0_FILL"/>
</g>

<g transform="matrix( 1, 0, 0, 1, 0,0) ">
<use xlink:href="#Graphics_Symbol_706_0_Layer1_0_FILL"/>
</g>

<g transform="matrix( 1, 0, 0, 1, 0,0) ">
<use xlink:href="#Graphics_Symbol_706_0_Layer0_0_FILL"/>
</g>
</g>

<g transform="matrix( 1, 0, 0, 1, 0,0) ">
<g transform="matrix( 1, 0, 0, 1, 0,0) ">
<use xlink:href="#Graphics_Symbol_707_0_Layer2_0_FILL"/>
</g>

<g transform="matrix( 1, 0, 0, 1, 0,0) ">
<use xlink:href="#Graphics_Symbol_707_0_Layer1_0_FILL"/>
</g>

<g transform="matrix( 1, 0, 0, 1, 0,0) ">
<use xlink:href="#Graphics_Symbol_707_0_Layer0_0_FILL"/>
</g>
</g>
</g>

<g transform="matrix( 1, 0, 0, 1, 0,0) ">
<g transform="matrix( 1, 0, 0, 1, 0,0) ">
<use xlink:href="#MovieClips_PR2_Graphics_1_Apr_2014_fla_Symbol_667_11_Layer0_0_FILL"/>
</g>
</g>

<g transform="matrix( 1, 0, 0, 1, 0,0) ">
<g transform="matrix( 1, 0, 0, 1, 0,0) ">
<g transform="matrix( 1, 0, 0, 1, 0,0) ">
<use xlink:href="#Graphics_Symbol_680_0_Layer1_0_FILL"/>
</g>

<g transform="matrix( 1, 0, 0, 1, 0,0) ">
<use xlink:href="#Graphics_Symbol_680_0_Layer0_0_FILL"/>
</g>
</g>
</g>
</svg>
