
<svg xmlns="http://www.w3.org/2000/svg" version="1.1" xmlns:xlink="http://www.w3.org/1999/xlink" preserveAspectRatio="none" x="0px" y="0px" width="550px" height="400px" viewBox="0 0 550 400">
<defs>
<g id="Layer0_0_FILL">
<path fill="#FFFFFF" fill-opacity="0.10196078431372549" stroke="none" d="
M 69.05 87.05
Q 66.35 87.05 62.05 91.65 56.1 98.05 56.1 108.05 56.1 116.1 56.6 118.45 58.2 125.95 64.35 125.95 65.75 125.95 69.3 120.7 72 116.7 73.2 114.2 73.7 113.15 74.2 109.4 74.8 105 74.8 100.65 74.8 93.65 73.2 90.2 71.75 87.05 69.05 87.05
M 113.35 92.35
Q 111.45 90.3 106.95 88.25 105.45 90.25 104.65 91.6 103.1 94.15 103.1 97.6 103.1 100.75 103.3 101.5 103.6 102.55 104.75 102.55 114.4 102.55 114.4 94.05 114.35 93.4 113.35 92.35 Z"/>
</g>
</defs>

<g transform="matrix( 1, 0, 0, 1, 0,0) ">
<use xlink:href="#Layer0_0_FILL"/>
</g>
</svg>
