
<svg xmlns="http://www.w3.org/2000/svg" version="1.1" xmlns:xlink="http://www.w3.org/1999/xlink" preserveAspectRatio="none" x="0px" y="0px" width="550px" height="400px" viewBox="0 0 550 400">
<defs>
<g id="Layer0_0_FILL">
<path fill="#000000" fill-opacity="0.10196078431372549" stroke="none" d="
M 110.85 70.25
Q 103.5 70.25 98.15 75.35 95.85 77.55 91.6 84 90.15 81.6 87.9 75.35 85.05 67.45 83.8 64.75 78.1 52 69.7 52 59.95 52 52.2 54.85 46 57.1 45.8 58.65
L 54.35 55.5
Q 38.35 65.9 31.25 76.3 26.4 83.5 27.1 87.35
L 27.75 86.4 29.85 84 29.65 85.45
Q 28.8 91.2 26.1 119.25 26.1 133.45 35.75 143.45 39.4 147.2 43.65 149.5 47.35 151.5 49.75 151.5 58.7 151.5 68.3 148.4 76.2 145.85 76.2 145.2 76.2 144.25 87.6 135.05
L 113.65 114.4
Q 115.75 111.9 118.75 109.1 121 106.95 121.65 105.8 123.35 102.95 123.35 90.7 123.35 86.2 120.9 79.75 117.3 70.25 110.85 70.25
M 99.6 92.9
Q 104.1 85 111.5 85 114.7 85 115.45 91.75
L 115.6 100.6
Q 115.6 110 108.5 110
L 104.65 107.5
Q 100.6 105 99 105 94.3 105 89.9 110.85 87.85 113.55 82.3 123.75 77.45 132.7 73.7 136.65 68.15 142.5 61.5 142.5 52.25 142.5 47.45 132.4 42.75 122.5 42.75 103.85 42.75 92.15 48.85 81.55 55.05 70.75 62.25 70.75 71 70.75 75.3 75.45 78.15 78.6 79.95 85.75 81.95 93.9 83.25 96.05 86.05 100.75 92.35 100.75 94.6 100.75 96.4 98.3
L 99.6 92.9 Z"/>
</g>
</defs>

<g transform="matrix( 1, 0, 0, 1, 0,0) ">
<use xlink:href="#Layer0_0_FILL"/>
</g>
</svg>
