
<svg xmlns="http://www.w3.org/2000/svg" version="1.1" xmlns:xlink="http://www.w3.org/1999/xlink" preserveAspectRatio="none" x="0px" y="0px" width="550px" height="400px" viewBox="0 0 550 400">
<defs>
<g id="Graphics_Symbol_287_0_Layer1_0_FILL">
<path fill="#000000" stroke="none" d="
M 11.3 8.25
L 11.5 5.7
Q 9.45 6.85 4.9 9.65
L 1.4 11.7
Q 0 11.15 -2.65 8.65 -5.5 6.05 -6.7 5.45
L -6.15 12.75 -5.8 16 -14.85 22.45 -15 22.9 -14.4 23.2 -11.65 23.45 -7.5 23.3
Q -4.8 23.2 -2.6 24.1
L -2.35 24.35 -2.4 24.5
Q -2.1 24.65 -1.95 24.95 -1.8 25.3 -1.95 25.6
L 0 31.1
Q 1.65 35.4 2.15 36.05
L 2.3 35.85 2.75 34.4 3.15 33.05 4.25 30.3
Q 5.25 28.3 6.55 27 10.3 23.45 17.05 24.45 17 23.5 13.45 20.5 10.2 17.8 9.35 17.4
L 11.3 8.25
M 10.2 7.4
L 10.25 7.3 9.55 11.85 8.7 17
Q 8.55 18.05 11.05 20.6
L 14.3 23.5 14.5 23.65 8.9 24.25
Q 7.25 24.3 6.75 24.75 6.2 25.15 5.25 27.4
L 1.75 34
Q 1.65 32.65 0.3 28.5 -1.2 23.95 -2 23.65
L -6 23.05 -13 22.5
Q -10.6 20.8 -6.9 18.6 -5.1 17.5 -4.9 17
L -5.15 14.4 -5.85 6.9 -1.7 10.4 1.05 12.65
Q 1.5 12.8 4.2 11.1
L 10.2 7.4
M 40.35 -13.75
Q 39.35 -11.8 37.95 -5.35 36.6 0.8 35.25 3
L 27.9 3.7 14.05 5
Q 15.55 6.8 17.15 8.25 20.9 11.75 29.7 18.85 28.8 20.2 26.95 27.2 24.95 34.95 25.85 36.4 34.7 28 44.05 29.25 47.25 29.75 50.75 31.45
L 55.45 34.15 57.4 35.5 59.6 37.1 59.95 37.25
Q 60.15 35.85 57.9 28.3 55.95 21.15 54.85 18.7 54.4 18.45 54.25 17.8 54.15 17.25 54.45 16.85
L 54.2 16.55
Q 54.1 16.4 54.3 16.1 56.55 12.55 60.55 10
L 66.9 5.95 70.6 2.85 71.15 1.9 70.45 1.45 50.4 1.6 47.45 -3.2
Q 43.9 -8.95 40.35 -13.75
M 38.3 -1.95
Q 39.85 -8.15 40.75 -10.9
L 47.65 0.15
Q 49.7 3.75 50.05 3.9
L 54.75 4.15 67.85 3.35 58.15 11.15
Q 54 14.5 52.95 16 52.1 17.25 54.75 25 57.05 32.1 58.4 34.05 52.5 31.6 46.25 28.45 42.6 26.4 41.4 26.35 40.1 26.2 37.65 27.85 32.6 30.85 28.85 32.65
L 28.95 32.2 30.55 24.95
Q 31.55 18.95 30.15 17.6
L 23.45 11.4 17.8 6 30.45 4.95
Q 36.3 4.65 36.8 3.95 37.15 3.3 38.3 -1.95 Z"/>
</g>

<g id="Graphics_Symbol_287_0_Layer0_0_FILL">
<path fill="#FFFFFF" fill-opacity="0.5019607843137255" stroke="none" d="
M 2.4 17
Q 4.15 15.75 4.15 14.75 4.15 14.35 3.3 13.55 0.2 13.75 -1.65 14.35 -3.5 14.95 -3.5 15.85
L -0.7 18.25
Q 0.65 18.25 2.4 17
M 43.4 9.85
Q 44.75 8.95 44.75 7.65 44.75 4.5 39.45 5.1 34.15 5.75 34.15 7.8
L 35 9.4
Q 36.25 11 38.3 11 41.7 11 43.4 9.85 Z"/>
</g>
</defs>

<g transform="matrix( 1, 0, 0, 1, -28.4,-10.7) ">
<g transform="matrix( 1, 0, 0, 1, 0,0) ">
<g transform="matrix( 1, 0, 0, 1, 0,0) ">
<use xlink:href="#Graphics_Symbol_287_0_Layer1_0_FILL"/>
</g>

<g transform="matrix( 1, 0, 0, 1, 0,0) ">
<use xlink:href="#Graphics_Symbol_287_0_Layer0_0_FILL"/>
</g>
</g>
</g>
</svg>
