
<svg xmlns="http://www.w3.org/2000/svg" version="1.1" xmlns:xlink="http://www.w3.org/1999/xlink" preserveAspectRatio="none" x="0px" y="0px" width="550px" height="400px" viewBox="0 0 550 400">
<defs>
<g id="Parts_Feet_footMC_26_Layer10_0_FILL">
<path fill="#FFFFFF" fill-opacity="0.14901960784313725" stroke="none" d="
M 1.6 35.85
L 4.35 35.6
Q 4.6 35.55 4.65 35 5.65 28.65 4.15 27.55
L -6.25 26.8
Q -8.25 26.8 -8.5 27.95
L -7.95 35.6 1.6 35.85
M 52.2 32.2
L 42.3 33.05
Q 39.7 33.75 39.7 34.5 39.7 34.9 40.25 35.15
L 43.4 35.45 55.9 34.25
Q 59.25 33.5 59.25 32.7 59.25 31.85 56.2 31.65
L 55.6 31.55 52.2 32.2 Z"/>

<path fill="#FFFFFF" fill-opacity="0.25098039215686274" stroke="none" d="
M 68.25 23.7
Q 55.55 26.15 51.6 26.15
L 37.5 24.9
Q 36 24.05 34.6 22.75 31.8 20.1 32.5 17.35 30.6 16.55 29.4 16.55 27.85 16.55 26.65 15.25 25.7 14.25 25.5 13.3
L 24.95 13.6 24.05 13.7
Q 23.4 13.7 23.4 13.4
L 23.7 12.6 17.7 13.55 17.8 13.05 17.95 12.85 17.4 12.8
Q 16 12.8 12.15 13.7
L 8.55 14.6
Q 7.4 14.6 6.65 13.75 5.85 12.9 6.4 12.55
L 7 12.05
Q 5.45 11 3.75 10.4 -0.3 9 -6.25 8.95
L -6.9 9.45 -7.15 9.8 -5.55 9.75
Q -6.75 10.2 -9.95 12
L -10.05 12.35
Q -6.45 15.1 -6 20.15 -5.8 21.95 -5.15 22.6 -4.15 23.55 -1.25 23.55
L 11.65 21.75
Q 18.05 21.75 21.05 23.05 22.75 23.75 24.55 25.9 26.25 27.9 28.45 28.7 31.95 30 39.15 30 42.45 30 54.5 27.55 67.2 25 68.25 23.7 Z"/>
</g>
</defs>

<g transform="matrix( 1, 0, 0, 1, -28.4,-10.7) ">
<g transform="matrix( 1, 0, 0, 1, 0,0) ">
<use xlink:href="#Parts_Feet_footMC_26_Layer10_0_FILL"/>
</g>
</g>
</svg>
