
<svg xmlns="http://www.w3.org/2000/svg" version="1.1" xmlns:xlink="http://www.w3.org/1999/xlink" preserveAspectRatio="none" x="0px" y="0px" width="550px" height="400px" viewBox="0 0 550 400">
<defs>
<g id="MovieClips_Symbol_228_22_Layer1_0_FILL">
<path fill="#FF0000" stroke="none" d="
M 10.5 -9.5
Q 12.75 -9.7 14.15 -11.35 15.9 -13.4 17 -17.9 20.9 -16.35 22.7 -14.55
L 24.6 -12.05
Q 26.05 -10.15 34.75 -10.95 37.95 -11.25 39.9 -13.45 42.1 -15.8 41.75 -19.6
L 41.5 -20.35 40.65 -20.45
Q 38.15 -20.25 34.25 -17.9
L 30.75 -15.7
Q 29.2 -15.55 28.5 -16.75 28.05 -17.55 27.3 -19.7 25.35 -23.9 18.15 -23.2 14.9 -22.9 12.55 -19.2 10.05 -15.55 9.55 -15.5
L 3.75 -18.35
Q -2.4 -21.2 -4.35 -21 -6.75 -20.8 -9.5 -18.45 -12.55 -15.95 -12.3 -13.6
L -10.25 -10.35
Q -8.6 -11.95 -5.75 -13.75 -3.1 -15.55 -2.45 -15.6 -0.35 -15.8 3.95 -12.55 8.3 -9.25 10.5 -9.5 Z"/>
</g>
</defs>

<g transform="matrix( 1, 0, 0, 1, -28.15,-10.5) ">
<g transform="matrix( 1, 0, 0, 1, 0,0) ">
<use xlink:href="#MovieClips_Symbol_228_22_Layer1_0_FILL"/>
</g>
</g>
</svg>
