
<svg xmlns="http://www.w3.org/2000/svg" version="1.1" xmlns:xlink="http://www.w3.org/1999/xlink" preserveAspectRatio="none" x="0px" y="0px" width="550px" height="400px" viewBox="0 0 550 400">
<defs>
<g id="Layer0_0_FILL">
<path fill="#ADADAD" stroke="none" d="
M 214.65 32.3
Q 210.55 32.3 203.5 36.85 195.75 41.85 195.75 46.25 195.75 51.2 199.5 61.05
L 203.25 70.55
Q 203.25 79.55 190.95 89 178.85 98.35 167.9 98.35 158.5 98.35 146.85 90.75
L 139.2 85.5
Q 135.6 83.1 133.95 83.1 133.45 83.1 132.7 83.6
L 131.4 84.1
Q 125.35 84.1 121.6 82.45 117.9 80.85 114.7 76.9 112.2 73.8 108.05 66.55
L 98.85 50.4
Q 93.95 42.15 76.3 36 70.9 34.1 57.2 30.85
L 58.75 30.85 58.75 29.8 39.8 28.8
Q 28.05 28.8 21.4 31.25 12.05 34.7 9.85 43.45 7.5 52.85 5.05 56.25 1.55 61.25 -6.95 63.75
L -20.6 67.25
Q -28.7 69.4 -33.45 72.25 -46.7 80.2 -46.7 101.2 -46.7 121.85 -39.3 140.25 -31.85 158.8 -17.85 172.75 12.8 203.25 63.2 203.25 66.85 203.25 68.35 201.8 69.25 200.95 70.35 195.55 71.45 190.15 65.05 174.25 58.6 158.35 51.45 149.55
L 55.15 149.75 68.3 149.35
Q 78.95 148.1 84.85 145.15 90.75 142.15 97.3 137.1 103.85 132.05 108.1 131.4
L 114.25 130.4
Q 123.35 128.85 123.35 126.7 123.35 126.2 122.75 126.7 122.15 127.2 122.15 126.7 122.15 125.75 131.5 122.9 140.6 120.15 142.8 120.15
L 147.8 121.7
Q 154.5 123.25 164.35 123.25
L 170.8 121.65
Q 178.45 119.2 185.3 114.85 207.15 100.95 213.05 73.55
L 215.15 63.3
Q 214.7 62.8 214.5 61.85
L 214.3 59.55
Q 214.3 58.6 214.7 57.6
L 214.55 56.85
Q 214.55 55.15 217 53.25
L 217.8 47.55
Q 219.5 32.3 214.65 32.3 Z"/>
</g>
</defs>

<g transform="matrix( 1, 0, 0, 1, 0,0) ">
<use xlink:href="#Layer0_0_FILL"/>
</g>
</svg>
