
<svg xmlns="http://www.w3.org/2000/svg" version="1.1" xmlns:xlink="http://www.w3.org/1999/xlink" preserveAspectRatio="none" x="0px" y="0px" width="550px" height="400px" viewBox="0 0 550 400">
<defs>
<g id="Layer0_0_FILL">
<path fill="#83D00D" stroke="none" d="
M 100.55 76.85
Q 93.9 69.5 92.05 66.95 88.4 59.5 85.65 56.35 82.55 52.75 78.2 53.1
L 78.25 53.05 69.6 52.3
Q 67.5 52.3 62.6 53.5
L 57.1 55.1 58.35 60.65 58.3 61.05
Q 56.35 59.7 55.15 56.05 51.1 58.4 45.7 62.8 40.3 67.1 40.55 67.6 40.75 68 34.6 70.35 28.45 72.6 24.15 77.2 19.8 81.75 19 85.45 18.35 88.35 16.75 89.45 12.3 92.35 10.95 93.6 9 95.35 9 97.2 9 97.8 9.65 99.2
L 10.2 101.1
Q 10.2 102.1 8.9 102.65
L 6.2 103.9
Q 2.95 107 2.55 111.8 2.15 116.55 9.35 119.35 15.7 121.8 20.75 121.8 27.85 121.8 30.75 118.5 32.55 116.3 32.8 112.3 37.35 113.5 38.6 113.5 41.55 113.5 42.8 111.25 44.2 108.15 46.7 104.1 49.2 100 58.2 100.3 67.25 100.65 73.4 110.45 79.5 120.2 83.4 127.45 87.3 134.75 93.3 134.7 99.25 134.6 110.3 129.9 121.85 125.1 121.85 120.05 121.85 114.8 118.3 109.5 114.65 104.25 114.65 102.6 114.65 100.6 118.9 98.25
L 131.65 91.3
Q 111.05 85.95 105.5 83.6 104.1 80.7 100.55 76.85 Z"/>
</g>
</defs>

<g transform="matrix( 1, 0, 0, 1, 0,0) ">
<use xlink:href="#Layer0_0_FILL"/>
</g>
</svg>
