
<svg xmlns="http://www.w3.org/2000/svg" version="1.1" xmlns:xlink="http://www.w3.org/1999/xlink" preserveAspectRatio="none" x="0px" y="0px" width="550px" height="400px" viewBox="0 0 550 400">
<defs>
<g id="Layer0_0_FILL">
<path fill="#FFFFFF" stroke="none" d="
M 113.3 70.05
Q 113.1 69.6 112.85 69.15 107.55 59.65 99.05 53.1 90.85 46.75 80.85 43.95 77.95 43.1 75 42.6 70.75 41.9 66.45 41.95 63.5 41.95 60.55 42.25 49.9 43.4 40.45 48.7 39.85 49 39.3 49.35 35.55 51.6 32.25 54.35 27.95 57.95 24.45 62.45 18.1 70.6 15.25 80.65 12.45 90.65 13.55 100.95 14.75 111.6 20 121.05 25.3 130.5 33.8 137.1 41.95 143.45 52 146.25 56.4 147.5 60.8 148 66.5 148.6 72.25 147.95 82.9 146.75 92.35 141.45 95.4 139.8 98.1 137.75 103.9 133.5 108.35 127.75 114.75 119.55 117.5 109.55 120.35 99.5 119.25 89.25 118.7 84.6 117.45 80.2 113.75 83.85 111.55 86.4
L 111.1 85.95
Q 109.9 84.5 109.2 83.65 107.95 82.1 107.25 80.8
L 107.15 80.5
Q 105.9 78.4 104.95 74.75 108.3 72.8 110.1 71.7 110.5 71.5 110.85 71.25 111.9 70.65 113.1 70.15 113.2 70.05 113.3 70.05
M 99.85 85.65
Q 98.95 86.4 98.75 86.05 98.75 85.55 98.7 85.55 97.85 84.15 97.3 81.95 96.7 79.4 96.4 78.8
L 96.4 78.7
Q 98.35 78.2 101.7 76.5 101.8 79.7 103.35 82.6
L 103.55 83
Q 105.75 86.65 109.3 88.3
L 109.7 88.5
Q 106.5 92.4 107.05 93 107.2 93.1 107.85 92.65
L 106.95 93.55 106.85 93.5 106.85 93.45
Q 106.5 92.9 104.75 91.25 104.55 91.1 102.55 87.25 101.2 84.55 99.85 85.65 Z"/>
</g>
</defs>

<g transform="matrix( 1, 0, 0, 1, 0,0) ">
<use xlink:href="#Layer0_0_FILL"/>
</g>
</svg>
