
<svg xmlns="http://www.w3.org/2000/svg" version="1.1" xmlns:xlink="http://www.w3.org/1999/xlink" preserveAspectRatio="none" x="0px" y="0px" width="550px" height="400px" viewBox="0 0 550 400">
<defs>
<g id="Layer0_0_FILL">
<path fill="#FF0000" stroke="none" d="
M 34.65 79.95
Q 31.85 82.7 31.85 86.65 31.85 90.55 34.65 93.3 37.4 96.05 41.35 96.05 45.25 96.05 48.05 93.3 50.8 90.55 50.8 86.65 50.8 82.7 48.05 79.95 45.25 77.2 41.35 77.2 37.4 77.2 34.65 79.95
M 101.8 95.15
Q 101.8 93.95 101 92.95 99.6 91.2 96.25 91.2 95.25 99.5 90.6 107.85 81.4 124.45 62.95 124.45 53.4 124.45 48.35 119.5
L 45.35 116
Q 44 114.45 42.8 114.45
L 41.1 114.85
Q 40 115.4 40 116.55 40 119.45 46.25 124.05 53.95 129.7 63.55 129.7 79.05 129.7 90.2 120.1 101.8 110.1 101.8 95.15
M 87 77.35
Q 90 74.3 90 70.05 90 65.8 87 62.85 84 59.8 79.75 59.8 75.5 59.8 72.5 62.85 69.5 65.8 69.5 70.05 69.5 74.3 72.5 77.35 75.5 80.35 79.75 80.35 84 80.35 87 77.35 Z"/>
</g>
</defs>

<g transform="matrix( 1, 0, 0, 1, 0,0) ">
<use xlink:href="#Layer0_0_FILL"/>
</g>
</svg>
