
<svg xmlns="http://www.w3.org/2000/svg" version="1.1" xmlns:xlink="http://www.w3.org/1999/xlink" preserveAspectRatio="none" x="0px" y="0px" width="550px" height="400px" viewBox="0 0 550 400">
<defs>
<g id="Layer0_0_FILL">
<path fill="#EEF3FA" stroke="none" d="
M 78.7 51.95
Q 58.6 51.95 42.85 63.9 25.3 77.15 25.3 97.65 25.3 102.7 27.05 109.85 29.55 120.2 34.6 127.7 40.25 136.1 46.95 139.5 52.6 142.35 60.65 142.35 66.3 142.35 85.05 139.25 103.45 136.15 107.25 133.05 109.5 131.85 112.1 128.8 115.9 124.4 115.9 123
L 115.25 122.1 114.75 122.8
Q 116.15 119.75 117.45 115 119.65 107 119.65 100.05 119.65 81.45 108.95 67.4 97.15 51.95 78.7 51.95 Z"/>
</g>
</defs>

<g transform="matrix( 1, 0, 0, 1, 0,0) ">
<use xlink:href="#Layer0_0_FILL"/>
</g>
</svg>
