
<svg xmlns="http://www.w3.org/2000/svg" version="1.1" xmlns:xlink="http://www.w3.org/1999/xlink" preserveAspectRatio="none" x="0px" y="0px" width="550px" height="400px" viewBox="0 0 550 400">
<defs>
<g id="Layer0_0_FILL">
<path fill="#EF95EF" stroke="none" d="
M 86.55 89.95
L 87 86.75
Q 87.65 85.9 88 85.05 89 82.6 89.15 82.25
L 89.6 80.65
Q 91.5 80.7 92.65 79.2 93.95 77.55 93.5 75 92.65 69.6 90.25 65.05 87.65 60.1 83.65 57.05 77.85 53 70.8 51.6 67.95 49.75 64.7 49.6 62.7 49.6 60.65 50.1
L 60.45 49.95
Q 56.95 47.85 51.8 49.5 48.05 50.65 43.85 53.55 39.75 56.4 36.15 60.6 34.65 60.25 33.4 61 31 62.35 28.8 65.35 27.85 66.75 25.45 70.85 22 76.5 19.95 82.9 18.45 87.95 18.3 94.1 18.15 100.25 19.45 102.65 20.5 104.7 20.75 107.6 21 110.8 21.35 111.75 23.75 118.6 24.4 120.2 26.35 125 28.5 128.15
L 29.85 129.8
Q 30.9 131.55 32.55 133.75 35.5 137.7 39.7 140.3
L 40.1 140.95
Q 44.6 148.1 54.5 149.2 62.3 150.05 71.6 147.2 82.05 144.05 87.55 137.3 91.85 133.6 92.55 128.05
L 92.65 127.9
Q 94.05 124.8 93.7 120.65 93.55 117.1 92.2 113.4 90.95 109.7 89.95 107.65 88.4 104.3 86.5 102.35 86.7 101.25 86.65 99.7 86.15 94.65 86.55 89.95 Z"/>
</g>
</defs>

<g transform="matrix( 1, 0, 0, 1, 0,0) ">
<use xlink:href="#Layer0_0_FILL"/>
</g>
</svg>
