
<svg xmlns="http://www.w3.org/2000/svg" version="1.1" xmlns:xlink="http://www.w3.org/1999/xlink" preserveAspectRatio="none" x="0px" y="0px" width="550px" height="400px" viewBox="0 0 550 400">
<defs>
<g id="Layer0_0_FILL">
<path fill="#FF0000" stroke="none" d="
M 112.65 35.05
L 101.85 35.85 99.45 35.8
Q 94.85 36.45 81.35 43.25 79.1 44.35 74.9 48.2 71.25 51.5 68.6 54.5 75.15 55.25 82.85 61.15 90.2 66.75 88.65 68.6 81.3 63 75.8 60.4 66.55 55.95 56.7 55.95 36.45 55.95 22.2 69 9.15 80.95 9.15 95 9.15 112.45 21 122.8 30.05 130.65 47.7 135.5 57.6 138.2 75.9 141.9 89.8 145.4 92.3 150.8 100.35 136.8 110.95 121.35
L 126.3 99.2
Q 133.55 88.35 136.65 80.7 140.5 71.4 140.5 62.15 140.5 48.5 131.05 41.1 123.3 35.05 112.65 35.05 Z"/>
</g>
</defs>

<g transform="matrix( 1, 0, 0, 1, 0,0) ">
<use xlink:href="#Layer0_0_FILL"/>
</g>
</svg>
