
<svg xmlns="http://www.w3.org/2000/svg" version="1.1" xmlns:xlink="http://www.w3.org/1999/xlink" preserveAspectRatio="none" x="0px" y="0px" width="550px" height="400px" viewBox="0 0 550 400">
<defs>
<g id="Layer0_0_FILL">
<path fill="#FF9933" stroke="none" d="
M 111 43
Q 110.15 32.65 110.3 29.8 107 31.5 96.15 46.65 85.65 61.3 82.95 62
L 74.6 63.45
Q 68.55 64.2 59.3 66.65 53.2 68.3 47 68
L 5.7 65.8
Q 10.2 74.25 14.85 81.15 22.25 92 25.55 91.9
L 25.6 91.75 25.8 92.35 25.2 96
Q 24.7 99.8 25.3 101.85
L 29.95 120.7
Q 33.65 134.6 41.65 141.35 53.25 151 73.4 145.65 87.35 141.9 97 137.2 106.55 132.55 107.6 128.7
L 109.05 127.4
Q 110.3 126 110.9 124.05 114.2 121.9 117 119.3 123.6 113.25 122.25 108.4
L 118.8 104.7
Q 115.3 101.1 114.15 97 113.75 95.55 114.45 92.15 115.15 88.65 114.6 86.7
L 113.35 82.55
Q 112.55 79.65 112.15 74.85 114.2 74.25 113.05 73.8 112.15 66.9 113.2 66.05 114.25 65.25 113.8 62.7
L 113.15 59.7
Q 111.95 55.1 111 43 Z"/>
</g>
</defs>

<g transform="matrix( 1, 0, 0, 1, 0,0) ">
<use xlink:href="#Layer0_0_FILL"/>
</g>
</svg>
