
<svg xmlns="http://www.w3.org/2000/svg" version="1.1" xmlns:xlink="http://www.w3.org/1999/xlink" preserveAspectRatio="none" x="0px" y="0px" width="550px" height="400px" viewBox="0 0 550 400">
<defs>
<g id="Layer0_0_FILL">
<path fill="#FFFFFF" stroke="none" d="
M 3.65 1.45
Q 3.65 0.9 3.55 0.65
L 3.4 0.45
Q 3.25 0.2 3.05 0.15
L 2.85 0.05 2.5 0
Q 2.15 0 1.95 0.1
L 1.65 0.2 1.2 0.5 0.65 1.05 0.1 1.75
Q -0.05 2 0.05 2.35 0.25 2.7 0.45 2.55
L 1 2.3 1.5 2.3 1.8 2.4 2.55 2.5 2.7 2.55 2.9 2.5
Q 3.55 2.45 3.65 1.45 Z"/>
</g>
</defs>

<g transform="matrix( 1, 0, 0, 1, 0,0) ">
<use xlink:href="#Layer0_0_FILL"/>
</g>
</svg>
