
<svg xmlns="http://www.w3.org/2000/svg" version="1.1" xmlns:xlink="http://www.w3.org/1999/xlink" preserveAspectRatio="none" x="0px" y="0px" width="550px" height="400px" viewBox="0 0 550 400">
<defs>
<g id="Layer0_0_FILL">
<path fill="#FF0000" stroke="none" d="
M -27.35 70.1
Q -30.2 72.75 -30.2 73.6
L -29.95 74.7 -28.8 75 -28.05 74.9 -24.15 71.1
Q -22.5 69.2 -22.2 68.35
L -22.3 67.95
Q -24.2 67.2 -27.35 70.1
M -28.2 59.85
L -27.1 60.75
Q -23.25 64.85 -21.85 65.75
L -20.75 66.35
Q -19.25 66.65 -18.7 65.8 -18.9 65.2 -20.55 63.45
L -23.15 60.9 -25.6 59.2
Q -26.85 58.55 -27.05 58.55 -28.05 58.55 -28.1 58.8
L -28.2 59.85
M -3.95 68.75
Q -5.55 69.25 -6.75 70.1 -8.95 72.3 -9.6 76.2
L -9.55 77.7
Q -9.3 78.25 -8.45 78.5
L -7.95 78
Q -6.75 76.65 -5.55 74.7 -3.7 71.7 -3.7 69.95
L -3.8 69.05 -3.95 68.75
M -16.6 69.05
Q -17.7 70.35 -18.1 71.35
L -19.4 73.45 -19.7 74.35 -19.35 75.15 -18.45 76 -17.7 75.3 -13.8 69 -13.75 68.95
Q -14.1 68.15 -14.55 67.8
L -14.95 67.5 -16.6 69.05
M -13.95 56.9
L -11.85 61.5
Q -11.85 62.7 -10.95 63.55 -10.1 64.4 -8.9 64.4 -8.5 61.9 -10.1 58.5
L -12.45 53.85 -13.45 52.5 -14.7 54.6 -13.95 56.9
M 112.95 47.85
Q 107.75 45.9 107.25 45.9 104.9 45.9 102.9 46.7 100.9 47.5 100.6 48.7 99.8 51.75 110.55 54 110.3 55.3 107.5 58.25
L 104.75 61.15
Q 104.75 64.25 108.8 64.25 112.95 64.25 116.05 59.5 120.6 52.4 121.8 51.4 118.05 49.8 112.95 47.85 Z"/>
</g>
</defs>

<g transform="matrix( 1, 0, 0, 1, 0,0) ">
<use xlink:href="#Layer0_0_FILL"/>
</g>
</svg>
