
<svg xmlns="http://www.w3.org/2000/svg" version="1.1" xmlns:xlink="http://www.w3.org/1999/xlink" preserveAspectRatio="none" x="0px" y="0px" width="550px" height="400px" viewBox="0 0 550 400">
<defs>
<g id="Layer0_0_FILL">
<path fill="#000000" fill-opacity="0.14901960784313725" stroke="none" d="
M 86.7 81.1
Q 89.7 85.1 95 96.65 102.35 112.65 103.45 114.75
L 87.55 116.65 77 119.65 103.5 126.2 108.1 124.4
Q 106.65 122.9 106.8 121.85
L 107.35 116.35 107.05 115.3
Q 106.75 114.75 106.75 114.25
L 105.9 110.15 110.7 49.75
Q 99.65 54.4 87.5 57.8
L 76.65 60.7 75.35 62 75.65 63.55 79.45 70
Q 83.8 77.25 86.7 81.1
M 89.8 93.2
L 88.05 91.9 66.6 96.45 66.95 96.9 67.2 97.45 84.55 109.45 87.25 101.65
Q 89.95 93.75 89.8 93.2 Z"/>
</g>
</defs>

<g transform="matrix( 1, 0, 0, 1, 0,0) ">
<use xlink:href="#Layer0_0_FILL"/>
</g>
</svg>
