
<svg xmlns="http://www.w3.org/2000/svg" version="1.1" xmlns:xlink="http://www.w3.org/1999/xlink" preserveAspectRatio="none" x="0px" y="0px" width="550px" height="400px" viewBox="0 0 550 400">
<defs>
<g id="Layer0_0_FILL">
<path fill="#FFFFFF" stroke="none" d="
M 81.1 120.7
L 81.45 121 82.5 121.25 94.15 110.7
Q 97.8 107.8 97.35 106.35 95.1 106.35 88.05 112.3 81.4 117.85 80.6 119.55
L 81.1 120.7
M 68.55 123.25
Q 63.25 124.65 55.15 128.25 47 131.8 39.05 137.8
L 71.15 123.25
Q 73.8 121.85 68.55 123.25
M 64.95 99.3
Q 62.55 101.65 58.4 114.05 58.4 114.55 58.9 115.1
L 60.4 116.6 61.95 113.65
Q 63.4 109.6 65.25 99.55
L 64.95 99.3
M 57.85 74.75
L 56.35 74.15 39.95 94.9
Q 25.4 113.3 22.25 118.35
L 22.4 119.1
Q 22.85 119.75 23.95 119.75 25.55 119.75 41.35 99.6 57.5 79 57.85 74.75 Z"/>
</g>
</defs>

<g transform="matrix( 1, 0, 0, 1, 0,0) ">
<use xlink:href="#Layer0_0_FILL"/>
</g>
</svg>
