
<svg xmlns="http://www.w3.org/2000/svg" version="1.1" xmlns:xlink="http://www.w3.org/1999/xlink" preserveAspectRatio="none" x="0px" y="0px" width="550px" height="400px" viewBox="0 0 550 400">
<defs>
<g id="Layer0_0_FILL">
<path fill="#FFFFFF" fill-opacity="0.25098039215686274" stroke="none" d="
M 85.8 114.85
L 82.25 118.05
Q 80.25 120.15 80.2 120.65
L 104.05 113.75 99 105.6
Q 90.5 111.05 85.8 114.85
M 44.7 141.45
Q 47.85 141.85 53.35 140.1
L 65.15 135.85
Q 73.6 132.85 80.6 131.2
L 81.5 130.1 72.6 121.05
Q 66.5 123.7 59.15 127.1 44.5 133.85 38.5 137.55 40.9 141 44.7 141.45
M 65.35 96.65
L 64.4 97.55 63.95 97.85
Q 62.65 98.75 60.7 99.65
L 61.15 100.3
Q 61.9 100.9 63.25 100.85
L 60.85 107
Q 58.4 113.25 58.4 113.85 58.4 114.6 58.9 115.1 59.4 115.6 60.15 115.6
L 83.15 111.4 65.35 96.65
M 60.8 93.15
L 58.05 74.9
Q 58.75 74.9 58.95 72.95 59.15 70.85 57.85 69.5
L 54.95 74.75 22.8 116.8 21.6 118.7
Q 20.4 120.7 20.4 121.3 20.4 122.3 22.05 122.9
L 22.45 122.45
Q 22.95 121.95 23.4 122
L 60.8 93.15 Z"/>
</g>
</defs>

<g transform="matrix( 1, 0, 0, 1, 0,0) ">
<use xlink:href="#Layer0_0_FILL"/>
</g>
</svg>
