
<svg xmlns="http://www.w3.org/2000/svg" version="1.1" xmlns:xlink="http://www.w3.org/1999/xlink" preserveAspectRatio="none" x="0px" y="0px" width="550px" height="400px" viewBox="0 0 550 400">
<defs>
<g id="Layer0_0_FILL">
<path fill="#010101" stroke="none" d="
M 13.1 1.1
Q 13.25 0.7 13.1 0.25 13.1 0.15 13.05 0.05 12.95 -0.1 12.9 0.05 11.7 3.25 7.6 6.9 5.2 8.9 4 9.8 3.35 10.3 1.9 11.25 0.65 12.15 0.1 12.95 0 13.1 0.05 13.7 0.05 14.3 0.2 14.3 0.85 14.3 2.1 13.3
L 4.1 11.7
Q 6.05 10.05 7.9 8.2 9.9 6.2 10.9 4.9 12.45 3 13.1 1.1 Z"/>
</g>
</defs>

<g transform="matrix( 1, 0, 0, 1, 0,0) ">
<use xlink:href="#Layer0_0_FILL"/>
</g>
</svg>
