<?xml version='1.0' encoding='utf-8'?>
<svg xmlns="http://www.w3.org/2000/svg" xmlns:xlink="http://www.w3.org/1999/xlink" version="1.1" width="550px" height="400px" viewBox="0 0 550 400" preserveAspectRatio="none" data-xfl-root="MovieClips/Symbol 466">
  <g data-xfl-symbol="MovieClips/Symbol 466">
    <g data-svg-leaf="movieclips_symbol_466_f7c8128c42/t00_l000_f0000_r00.svg">
      <defs>
        <g id="xfl1_Layer0_0_FILL">
          <path fill="#CA9B88" stroke="none" d=" M -3.75 6 L -2.25 6 -2.25 0 -3.75 0 -3.75 6 M 3.75 -4.5 L 3.75 -6 -3.75 -6 -3.75 0 -2.25 0 -2.25 -4.5 3.75 -4.5 Z" />
          <path fill="#B87A61" stroke="none" d=" M 0 6 L 0 0 -2.25 0 -2.25 6 0 6 M 0 0 L 3.75 0 3.75 -4.5 -2.25 -4.5 -2.25 0 0 0 Z" />
        </g>
        <path id="xfl1_Layer0_0_1_STROKES" stroke="#000000" stroke-width="1" stroke-linejoin="round" stroke-linecap="butt" fill="none" d=" M 3.75 -4.5 L 3.75 -6 M -3.75 0 L -2.25 0 M 3.75 -4.5 L 3.75 0 0 0 0 6 -2.25 6 -3.75 6 M -2.25 0 L 0 0" />
      </defs>
      <g transform="matrix( 1, 0, 0, 1, 0,0) ">
        <use xlink:href="#xfl1_Layer0_0_FILL" />
        <use xlink:href="#xfl1_Layer0_0_1_STROKES" />
      </g>
    </g>
  </g>
</svg>