<?xml version='1.0' encoding='utf-8'?>
<svg xmlns="http://www.w3.org/2000/svg" xmlns:xlink="http://www.w3.org/1999/xlink" version="1.1" width="550px" height="400px" viewBox="0 0 550 400" preserveAspectRatio="none" data-xfl-root="MovieClips/Symbol 466">
  <g data-xfl-symbol="MovieClips/Symbol 466">
    <g data-svg-leaf="movieclips_symbol_466_f7c8128c42/t00_l000_f0002_r00.svg">
      <defs>
        <g id="xfl3_Layer0_0_FILL">
          <path fill="#8A5B48" stroke="none" d=" M -5.1 7.25 L -1.9 7.25 -1.9 5.75 -5.1 5.75 -5.1 7.25 M 11.9 7.25 L 11.9 1.25 10.4 1.25 10.4 5.75 -1.9 5.75 -1.9 7.25 11.9 7.25 M 11.9 -2 L 10.4 -2 10.4 1.25 11.9 1.25 11.9 -2 Z" />
          <path fill="#B87A61" stroke="none" d=" M -5.1 3 L -5.1 5.75 -1.9 5.75 -1.9 1.25 -9.4 1.25 -11.85 1.25 -11.85 3 -5.1 3 M -9.4 -4.75 L -11.85 -4.75 -11.85 1.25 -9.4 1.25 -9.4 -4.75 M -0.7 -7.25 L -11.85 -7.25 -11.85 -4.75 -9.4 -4.75 -0.7 -4.75 -0.7 -7.25 M 5.6 1.25 L 5.6 -4.75 -0.7 -4.75 -9.4 -4.75 -9.4 1.25 -1.9 1.25 5.6 1.25 M 10.4 5.75 L 10.4 1.25 5.6 1.25 -1.9 1.25 -1.9 5.75 10.4 5.75 M 7.9 -4.75 L 7.9 -7.25 -0.7 -7.25 -0.7 -4.75 5.6 -4.75 7.9 -4.75 M 10.4 -2 L 7.9 -2 7.9 -4.75 5.6 -4.75 5.6 1.25 10.4 1.25 10.4 -2 Z" />
        </g>
        <path id="xfl3_Layer0_0_1_STROKES" stroke="#000000" stroke-width="1" stroke-linejoin="round" stroke-linecap="butt" fill="none" d=" M 7.9 -4.75 L 5.6 -4.75 5.6 1.25 10.4 1.25 M -1.9 5.75 L -1.9 7.25 M 10.4 1.25 L 11.9 1.25 M -11.85 -4.75 L -9.4 -4.75 -0.7 -4.75 -0.7 -7.25 M 5.6 1.25 L -1.9 1.25 -1.9 5.75 M -9.4 -4.75 L -9.4 1.25 -1.9 1.25 M -11.85 1.25 L -9.4 1.25 M -0.7 -4.75 L 5.6 -4.75" />
      </defs>
      <g transform="matrix( 1, 0, 0, 1, 0,0) ">
        <use xlink:href="#xfl3_Layer0_0_FILL" />
        <use xlink:href="#xfl3_Layer0_0_1_STROKES" />
      </g>
    </g>
  </g>
</svg>