<?xml version='1.0' encoding='utf-8'?>
<svg xmlns="http://www.w3.org/2000/svg" xmlns:xlink="http://www.w3.org/1999/xlink" version="1.1" width="550px" height="400px" viewBox="0 0 550 400" preserveAspectRatio="none" data-xfl-root="MovieClips/Symbol 466">
  <g data-xfl-symbol="MovieClips/Symbol 466">
    <g data-svg-leaf="movieclips_symbol_466_f7c8128c42/t00_l000_f0004_r00.svg">
      <defs>
        <g id="xfl5_Layer0_0_FILL">
          <path fill="#B87A61" stroke="none" d=" M 4.8 0 L 4.8 -6 -1.2 -6 -1.2 0 4.8 0 M 4.8 6 L 4.8 0 -1.2 0 -6.3 0 -6.3 6 4.8 6 Z" />
          <path fill="#8A5B48" stroke="none" d=" M 6.3 6 L 6.3 0 4.8 0 4.8 6 6.3 6 M 6.3 -6 L 4.8 -6 4.8 0 6.3 0 6.3 -6 Z" />
        </g>
        <path id="xfl5_Layer0_0_1_STROKES" stroke="#000000" stroke-width="1" stroke-linejoin="round" stroke-linecap="butt" fill="none" d=" M 6.3 -6 L 4.8 -6 M 4.8 0 L 6.3 0 M 6.3 6 L 4.8 6 -6.3 6 -6.3 0 -1.2 0 -1.2 -6 4.8 -6 M -1.2 0 L 4.8 0" />
      </defs>
      <g transform="matrix( 1, 0, 0, 1, 0,0) ">
        <use xlink:href="#xfl5_Layer0_0_FILL" />
        <use xlink:href="#xfl5_Layer0_0_1_STROKES" />
      </g>
    </g>
  </g>
</svg>