<?xml version='1.0' encoding='utf-8'?>
<svg xmlns="http://www.w3.org/2000/svg" xmlns:xlink="http://www.w3.org/1999/xlink" version="1.1" width="550px" height="400px" viewBox="0 0 550 400" preserveAspectRatio="none" data-xfl-root="MovieClips/Symbol 437">
  <g data-xfl-symbol="MovieClips/Symbol 437">
    <g transform="matrix(0.9936981201 -0.0836639404 0.0836639404 0.9936981201 -147.8 6.35)">
      <g data-xfl-symbol="MovieClips/Symbol 434">
        <g transform="matrix(2.0131530762 0 0 2.0131530762 0 7.15)">
          <g data-xfl-symbol="MovieClips/Symbol 349">
            <g transform="matrix(1 0 0 1 2.25 12.1)">
              <g data-xfl-symbol="MovieClips/Symbol 344">
                <g data-svg-leaf="movieclips_symbol_344_06f11bbab8/t00_l000_f0000_r00.svg">
                  <defs>
                    <g id="xfl463_Layer0_0_FILL">
                      <path fill="#5AB035" stroke="none" d=" M 91.75 109.4 Q 89.55 110.7 86.7 115.65 83.35 121.5 83.35 126.6 83.35 133.5 85.55 135.9 87.65 138.2 93.4 138.2 97.75 138.2 98.8 136.65 99.95 135.05 99.95 128.55 99.95 123.05 97.95 118.45 96 114 91.75 109.4 M 6.7 98.25 Q 2.75 95.9 1.25 96.2 -0.95 96.65 -0.95 102.1 -0.95 110.6 1.9 114.4 3.85 117 6.6 117 L 9.9 116.8 Q 10.25 116.7 10.25 116.25 L 9.05 111.7 Q 7.8 106.3 7.35 99.15 7.35 98.65 6.7 98.25 M 111.3 42.5 Q 111.3 37.05 110.25 31.2 109.25 25.5 108.35 25.5 105.65 30.05 100.5 36.45 90.05 49.3 75.2 58.3 80.25 47.85 83.1 41.05 88.25 28.5 88.25 19.15 88.25 13.5 85.05 6.2 81.95 -0.95 79.75 -0.95 73.25 -0.95 62.8 10.55 51.8 22.6 48.05 35.5 38.95 39.35 34.6 19.75 L 32 5.75 Q 30.75 -0.85 29.5 -0.85 25.05 -0.85 21.15 7.5 17.85 14.7 17.85 19.55 17.85 25.1 19.15 30.6 L 20.4 36.85 Q 20.4 40.2 27.55 47.15 35.2 54.55 40.05 53.7 L 32.7 89.65 Q 29.3 109.05 29.3 128 29.3 131.2 38.5 134.25 46.1 136.8 49.2 136.8 54.75 136.8 61.75 133.2 68.55 129.75 68.55 127.3 68.55 123.65 67.3 115.8 66.05 107.95 66.05 106.6 66.05 101.85 67.1 93.6 68 86.45 68.75 83.05 L 70.95 83.15 Q 87.35 83.15 99.4 70.8 111.3 58.65 111.3 42.5 Z" />
                    </g>
                  </defs>
                  <g transform="matrix( 1, 0, 0, 1, 0,0) ">
                    <use xlink:href="#xfl463_Layer0_0_FILL" />
                  </g>
                </g>
              </g>
            </g>
            <g data-xfl-symbol="MovieClips/Symbol 346">
              <g data-svg-leaf="movieclips_symbol_346_60f5612ec8/t00_l000_f0000_r00.svg">
                <defs>
                  <g id="xfl464_Layer0_0_FILL">
                    <path fill="#A2BF26" stroke="none" d=" M 92.7 123.2 Q 89.5 133.75 90.45 144.5 L 92.45 144.5 93.85 140.75 95.45 128.1 95.25 122.25 92.7 123.2 M 3.25 106.5 L 8.5 121.25 8.75 119 6.9 112.35 3.25 106.5 M 53.6 121.3 L 53.55 122.25 Q 57.8 101 67.25 80 56.75 99.45 53.6 121.3 M 50.05 141.4 Q 50.05 142.75 51 143.75 L 53.3 109.7 Q 50.35 125.35 50.05 141.4 M 55.25 63 Q 46.85 74.7 45.75 89.85 L 36.65 138.6 55.25 63 M 70.25 98.95 Q 71.2 93.4 70.25 88 66.1 108.35 63.75 130.7 63.3 135.1 64 139.5 66.85 119.3 70.25 98.95 M 74.65 51.7 L 69.65 64.6 Q 80.55 41.1 91.2 16 78.75 31.65 74.65 51.7 M 63.7 61.25 Q 64.1 60.85 64.75 60.75 74.15 28.6 90.2 0 70.6 26.95 63 59.9 62.95 61.8 63.7 61.25 M 28.7 32.05 L 27.35 19.75 27.6 17.95 Q 21.3 39.05 38.5 58.35 L 40.5 60.25 39.7 58.65 Q 46.6 62.2 54.5 60.5 28.45 56.9 30.25 28 L 28.7 32.05 M 40.45 41.85 L 38.85 39.8 Q 44.15 51 51.85 51 54.35 51 55 50.25 44.85 46.6 40.45 41.85 M 35.75 19.9 Q 35.85 14.4 33.5 9.5 L 32 9.95 36.65 34.45 Q 35.65 27.2 35.75 19.9 M 77.25 7.75 Q 65.45 15.9 60.3 29.35 L 57.25 38 Q 64 25.6 74.35 11.3 L 77.25 7.75 M 109.2 47 Q 103.6 68.25 87.95 81.3 82 86.3 73.7 85.2 72.25 84.95 71.1 85.75 L 71.4 90 Q 73 90.95 72.3 88.8 L 72.3 88.4 74 86 Q 100.35 92.1 106.9 58.65 L 109.2 47 M 111.2 37.75 L 104.1 47.1 Q 97.55 70.6 74.95 75.4 69.15 76.65 63.15 76.9 L 64.25 75 62.75 76.9 Q 62 76.95 61.45 77.35 L 61.5 77.75 58.4 86.8 62.55 77.9 Q 101.45 77.1 111.2 37.75 Z" />
                  </g>
                </defs>
                <g transform="matrix( 1, 0, 0, 1, 0,0) ">
                  <use xlink:href="#xfl464_Layer0_0_FILL" />
                </g>
              </g>
            </g>
            <g transform="matrix(1 0 0 1 0 3.55)">
              <g data-xfl-symbol="MovieClips/Symbol 348">
                <g data-xfl-symbol="Graphics/Symbol 347">
                  <g data-svg-leaf="graphics_symbol_347_1a3f96100f/t00_l005_f0000_r00.svg">
                    <defs>
                      <g id="xfl465_Layer0_0_FILL">
                        <path fill="#5AB035" stroke="none" d=" M 95.45 128.1 L 93.85 140.75 97.2 140.75 95.45 128.1 Z" />
                        <path fill="#519C30" stroke="none" d=" M 10 109.5 Q 7.7 103.45 1.2 102.75 -1.7 113.2 2.5 126.2 L 2.4 126.45 14.5 127.75 Q 13.45 118.7 10 109.5 M 6.9 112.35 L 8.75 119 11.5 124.75 6.25 124.75 Q 3.5 120.6 2.65 116 1.65 110.75 3.25 106 L 8.6 107.95 6.9 112.35 Z" />
                      </g>
                    </defs>
                    <g transform="matrix( 1, 0, 0, 1, 0,0) ">
                      <use xlink:href="#xfl465_Layer0_0_FILL" />
                    </g>
                  </g>
                  <g data-svg-leaf="graphics_symbol_347_1a3f96100f/t00_l004_f0000_r00.svg">
                    <defs>
                      <g id="xfl466_Layer0_0_FILL">
                        <path fill="#000000" fill-opacity="0.25098039215686274" stroke="none" d=" M 95 124 L 94.55 128.25 Q 93.05 137.95 96.15 146.95 L 96.45 148.5 101.95 146.55 100.55 143.65 103.45 144.75 109.55 146.1 105.95 144 110.2 142 100.1 141.05 102.45 137 99.25 126.25 98.4 129.05 96.8 124.55 95 124 M 6.7 105.85 Q 6.5 105.55 6 105.5 3.15 129.45 19.7 126.4 L 20.1 126.3 Q 13.45 115.65 6.7 105.85 Z" />
                        <path fill="#FFFFFF" fill-opacity="0.5019607843137255" stroke="none" d=" M 90.1 131.2 L 94.55 128.25 95 124 92.7 120.4 87.25 130.85 90.1 131.2 M 5 112.25 L 5 107 Q 1.85 103.1 0.7 104.3 0 105.05 0 108.25 L 0 110.9 Q 0.5 113.25 3 113.25 4.5 113.25 4.75 112.75 L 5 112.25 Z" />
                      </g>
                    </defs>
                    <g transform="matrix( 1, 0, 0, 1, 0,0) ">
                      <use xlink:href="#xfl466_Layer0_0_FILL" />
                    </g>
                  </g>
                  <g data-svg-leaf="graphics_symbol_347_1a3f96100f/t00_l003_f0000_r00.svg">
                    <defs>
                      <g id="xfl467_Layer0_0_FILL">
                        <path fill="#519C30" stroke="none" d=" M 110.55 33.3 Q 102.9 33.25 100 41.4 95.85 53.1 85.5 58.15 91.5 42.75 89.3 25.25 90.3 35.7 84 48.7 81.25 54.3 78.7 60.25 49.15 65.75 61.15 88 63.8 92.85 69.65 94.05 64.5 116.25 69.8 136.05 53.15 152.1 33.9 137.65 L 32.55 136.75 Q 32.65 101.75 42.1 67.4 48.7 69.45 52.95 64.65 64.05 61.3 63.55 49.25 63.35 44.85 61 41.25 L 59.25 40.4 56.1 41.75 52.25 41.25 Q 60 17 81.75 8.75 87.1224609375 14.6408203125 88.7 21.8 L 87.5 15.65 Q 83 -2.4 68.35 12 56.15 24 49.05 39.9 L 38.95 32.6 Q 41.05 19.3 36.3 6.25 31 -0.5 26.65 4.15 L 26 4.15 Q 21.6 8.35 19.9 14.35 19.6 15.45 19.9 16.45 L 20.75 17.2 Q 17.25 27.55 19.5 38.2 19.95 40.35 19.3 42.65 L 18.5 43.75 Q 21.95 61.3 39.05 66.8 29.45 101.75 29.5 138 L 30.65 140.1 Q 58.55 159.15 75.65 133 L 73.15 132.95 73.15 94.75 Q 117.15 96.35 120.25 48.35 121.15 34.3 110.55 33.3 M 81.3 67.35 Q 99.6 55.7 110.45 35.25 119.85 74.05 84.45 89.1 79.2 91.35 73.5 90.95 L 73.8 88.85 70.7 87.2 70.15 90.55 Q 47.1 74.75 75.2 68.8 L 75.5 68.75 75.25 69.55 80.2 70.25 81.3 67.35 M 57.35 45.15 L 54.55 48.15 Q 48.4 73.1 26.85 51.35 23.15 47.7 24.5 42.5 L 24.5 41.6 23.9 41.05 23 40.8 23.65 36.7 21.7 36.1 Q 18.65 19.85 29.65 9.75 30.9 8.6 32.55 8.95 L 34 18.85 35.7 36.45 37.7 36.75 Q 41.85 45.4 51.55 45.25 54.65 45 57.35 45.15 Z" />
                      </g>
                    </defs>
                    <g transform="matrix( 1, 0, 0, 1, 0,0) ">
                      <use xlink:href="#xfl467_Layer0_0_FILL" />
                    </g>
                  </g>
                  <g data-svg-leaf="graphics_symbol_347_1a3f96100f/t00_l002_f0000_r00.svg">
                    <defs>
                      <g id="xfl468_Layer0_0_FILL">
                        <path fill="#FFFFFF" fill-opacity="0.25098039215686274" stroke="none" d=" M 41.75 87.45 L 44.8 66.5 Q 36.3 85.05 32.9 107.8 30.1 126.25 34 135.95 L 34.5 139.5 36.25 133.5 36.9 140.95 Q 40.7 124.3 42.55 104.45 44.4 84.7 48.25 65 L 41.75 87.45 M 27.8 17.65 Q 25.6 19.05 22.5 19.05 20.8 35.4 22.85 51.4 L 23.1 52.25 24.75 52.75 29.9 15.2 Q 29.45 16.6 27.8 17.65 M 82 8.75 L 81 9.8 Q 81 12.45 79.35 14.3 77.65 16.15 75.25 16.15 72.25 19.7 69.5 23.65 L 73.85 16.75 68.15 18.45 Q 66.55 20.35 65.2 22.4 L 67 17.95 66.5 15.75 Q 56.85 26.85 55.15 40.8 L 55.25 41.35 60 42.95 Q 75.1 26 84.65 6.75 L 79.2 6.4 80.9 9 82 8.75 M 58.3 39.25 L 58.1 40.25 57.9 40.15 58.3 39.25 M 109.35 35.45 L 109.05 35.2 108.15 34.8 Q 107.15 34.65 106.55 35.05 105.8 35.55 105.45 36.6 L 108.7 35.75 Q 111.3 45.15 102.45 48.5 L 100 48 Q 87.95 66.55 64.9 70.4 60.25 71.1 57 74.25 L 59.25 76.15 59.1 80.75 Q 85.8 80.95 102.65 59.15 111.05 48.35 109.35 35.45 Z" />
                        <path fill="#FFFFFF" fill-opacity="0.5019607843137255" stroke="none" d=" M 22.5 19.05 Q 25.6 19.05 27.8 17.65 29.45 16.6 29.9 15.2 L 30 14.25 29.75 5.05 Q 24.1 7 21 13.5 L 21 18.75 22.5 19.05 M 80.9 9 L 79.2 6.4 Q 73.95 6.4 70.25 9.15 66.5 11.9 66.5 15.75 L 67 17.95 68.15 18.45 73.85 16.75 75.25 16.15 Q 77.65 16.15 79.35 14.3 81 12.45 81 9.8 L 80.9 9 M 105.45 36.6 Q 103.2 36.6 101.6 39.95 100 43.3 100 48 L 102.45 48.5 Q 111.3 45.15 108.7 35.75 L 105.45 36.6 Z" />
                      </g>
                    </defs>
                    <g transform="matrix( 1, 0, 0, 1, 0,0) ">
                      <use xlink:href="#xfl468_Layer0_0_FILL" />
                    </g>
                  </g>
                  <g data-svg-leaf="graphics_symbol_347_1a3f96100f/t00_l001_f0000_r00.svg">
                    <defs>
                      <g id="xfl469_Layer0_0_FILL">
                        <path fill="#000000" fill-opacity="0.25098039215686274" stroke="none" d=" M 32 11.25 L 32.75 36.75 41.75 47.2 33.5 11.25 32 11.25 M 57.15 45.05 Q 57 44.35 56.4 43.95 L 49.15 58 33 50 28.5 49.25 31 52.25 Q 28.15 50.8 25.15 52.45 L 23.25 53.75 39.5 68 37.5 70.25 40.8 72.5 41 78.05 50.25 70.7 Q 54.75 70 57.2 66.65 L 57.5 65.6 56.8 65.3 52.2 63.9 Q 54 62.95 54.55 61.05 55.05 59.4 54.35 57.95 58.65 52.15 57.15 45.05 M 112.2 35.75 Q 108.6 56.8 98.15 75.05 91.9 86.05 78.65 85.75 69.7 85.55 61.6 81.2 L 58.25 83.75 Q 55.3 90.2 56.95 97.2 58 101.8 62.25 103.2 70.8 125.95 56.2 135.6 50.6 139.4 43.8 138.85 39.7 138.4 36.7 140.25 L 36.85 142.3 Q 48.45 149.45 62.45 145.9 L 62.7 143.7 71.25 139.75 70.75 137.2 72.75 134.85 70.75 133.45 72.9 122.05 71 121.25 Q 69.7 112.05 71.9 102.1 73.25 96 69.25 90.8 L 73.6 89.75 Q 84.25 100.6 98.8 85.2 118.05 64.85 112.2 35.75 M 87 15 Q 85.5 4.4 81 12 80.15 39.45 65 63.25 L 66.65 65.15 66.75 68.9 70.85 65.05 76.3 63.1 76.9 67.7 Q 90.8 49.6 91 31 L 87 15 Z" />
                      </g>
                    </defs>
                    <g transform="matrix( 1, 0, 0, 1, 0,0) ">
                      <use xlink:href="#xfl469_Layer0_0_FILL" />
                    </g>
                  </g>
                  <g data-svg-leaf="graphics_symbol_347_1a3f96100f/t00_l000_f0000_r00.svg">
                    <defs>
                      <g id="xfl470_Layer0_0_FILL">
                        <path fill="#3C7524" stroke="none" d=" M 95.75 125.15 Q 96.95 124.9 99.1 122.4 98.35 122.4 95.75 125.15 M 89.3 121.55 Q 91.75 122.3 88.45 119.35 L 87.75 118.9 89.3 121.55 M 27.95 115.45 L 32.6 113.4 21.25 117.15 27.95 115.45 M 76.7 122.35 L 71.75 123.65 81.6 121.75 76.7 122.35 M 77 110.1 L 72.25 111.15 82.75 109.65 77 110.1 M 34.15 87.9 L 35.6 88.6 Q 26.8 83.3 16.25 84.75 25.4 84.55 34.15 87.9 M 23.35 55.75 Q 20.8 57.6 19.75 58.1 21.9 57.4 23.6 56.1 L 26.05 53.85 23.35 55.75 M 16.1 42.4 L 12 43.55 21.4 41.6 16.1 42.4 M 11.5 25.25 L 11.4 25.35 11.25 25.6 22.25 26.6 Q 22.15 26.45 21.7 26.25 L 21.25 26 11.5 25.25 M 15.75 2.85 L 15.25 3 23.75 8.5 Q 22.25 6.15 15.75 2.85 M 9.25 15.6 L 18.5 16.75 20.75 16.6 9.5 15.25 9.4 15.35 9.25 15.6 M 58.3 16.6 L 53.25 9.35 61.95 24.3 58.3 16.6 M 79.8 4.75 L 79.65 0.6 79.25 8.6 79.8 4.75 M 65 14.5 L 66 15.25 Q 61.87421875 12.047265625 60.5 6.55 L 60.1 4.85 Q 59.9 10.45 65 14.5 M 123.05 74.5 L 123.05 74.45 111.1 70.35 Q 115 75.15 123.05 74.5 M 124.85 61.7 L 126.75 61.6 118.1 58.35 Q 119.15 61.95 124.85 61.7 M 108.6 85.85 L 108.1 82.85 107.95 85.9 112.5 89.1 108.6 85.85 M 108.4 26.55 Q 107.35 26.5 108.6 32.45 L 109.25 34.1 108.4 26.55 M 117.25 30.55 L 118.85 26.1 114.6 35.6 117.25 30.55 M 122.2 35.3 L 125.6 32.85 118.25 37.35 122.2 35.3 M 26.55 -3.55 L 26.25 -3.55 26.35 0.65 Q 26.6 3.35 27.75 3.85 L 26.55 -3.55 Z" />
                      </g>
                    </defs>
                    <g transform="matrix( 1, 0, 0, 1, 0,0) ">
                      <use xlink:href="#xfl470_Layer0_0_FILL" />
                    </g>
                  </g>
                </g>
              </g>
            </g>
          </g>
        </g>
        <g data-xfl-symbol="Graphics/Symbol 433">
          <g data-svg-leaf="graphics_symbol_433_0b8905e294/t00_l002_f0000_r00.svg">
            <defs>
              <g id="xfl471_Layer0_0_FILL">
                <path fill="#000000" stroke="none" d=" M 113.8 -24.4 Q 111.95 -28.6 107.65 -29.55 103.35 -27.65 102.3 -22.6 99.3 -8.2 102.15 6.6 105.2 22.1 118.95 30.45 128.85 36.45 139.15 41.85 150.6 48.05 161.6 55.4 182.5 69.6 207.6 69.25 225.5 69.05 237.15 57.9 L 236.4 46.9 Q 235.85 38.4 223.9 43.1 212 47.8 207.6 44.6 203.2 41.35 207.75 22.95 212.35 4.55 220 -9.15 220.65 -14.15 218.85 -19.45 215.25 -30.05 205.9 -33.95 202.65 -35.05 199.6 -36.3 L 185 -41.75 Q 177.15 -44.45 171.3 -40.35 170.85 -36.7 166.2 -33.35 157.45 -27.2 150.55 -19 143.85 -11 135.25 -4.9 132.4 -2.85 129.25 -3.35 117.9 -4.65 116.3 -17.35 115.25 -21 113.8 -24.4 M 106.45 -14 Q 103.4 -22.05 109.25 -26.15 L 109.6 -26.05 Q 113.3 -21.1 113.45 -14.55 114.4 -7.8 119 -2.5 124.5 3.9 132.05 1 141.95 -2.7 148.9 -10.5 162 -25 175.75 -38.8 181.35 -39.3 177.9 -34.75 174.5 -30.3 170.2 -17.1 165.95 -3.9 182.4 -20.5 198.95 -37.1 209.1 -27.45 218.5 -17.1 213.55 -4.75 209.75 4.75 206.1 14.4 201.95 25.35 202.5 39.55 203.05 53.75 218.8 48 234.55 42.2 233.1 56.65 227.9 61.15 221.3 63.45 206.3 68.6 190.65 64.45 173.65 60 159.9 49.45 148.2 40.45 134.5 35.05 125.3 31.65 118.35 24.75 102.4 8.7 106.45 -14 Z" />
                <path fill="#6C3224" stroke="none" d=" M 109.25 -26.15 Q 103.4 -22.05 106.45 -14 102.4 8.7 118.35 24.75 125.3 31.65 134.5 35.05 148.2 40.45 159.9 49.45 173.65 60 190.65 64.45 206.3 68.6 221.3 63.45 227.9 61.15 233.1 56.65 234.55 42.2 218.8 48 203.05 53.75 202.5 39.55 201.95 25.35 206.1 14.4 209.75 4.75 213.55 -4.75 218.5 -17.1 209.1 -27.45 198.95 -37.1 182.4 -20.5 165.95 -3.9 170.2 -17.1 174.5 -30.3 177.9 -34.75 181.35 -39.3 175.75 -38.8 162 -25 148.9 -10.5 141.95 -2.7 132.05 1 124.5 3.9 119 -2.5 114.4 -7.8 113.45 -14.55 113.3 -21.1 109.6 -26.05 L 109.25 -26.15 Z" />
              </g>
            </defs>
            <g transform="matrix( 1, 0, 0, 1, 0,0) ">
              <use xlink:href="#xfl471_Layer0_0_FILL" />
            </g>
          </g>
          <g data-svg-leaf="graphics_symbol_433_0b8905e294/t00_l001_f0000_r00.svg">
            <defs>
              <g id="xfl472_Layer0_0_FILL">
                <path fill="#000000" fill-opacity="0.25098039215686274" stroke="none" d=" M 108.8 -27.05 L 105.5 -26.9 Q 102.4 -19.5 101.9 -11.2 100.3 13.6 114.25 24.05 128.3 34.45 148.35 46.4 168.45 58.35 200.25 69.9 221.05 68.3 229.15 61.15 237.25 54.05 233.05 48.25 229.3 43 223.2 45.1 218 46.9 212.6 46.2 208.2 46 207 42.3 205.75 38.15 206 33.75 206.6 22.65 211.2 12.3 L 217.4 -1.85 Q 221.5 -11.3 217.55 -20.85 212.35 -33.2 198.25 -34.2 191.15 -34.6 184.65 -31.45 184.3 -35.2 183.1 -39 182.65 -40.4 181.45 -40.55 171.65 -41.05 164.9 -32 158.8 -23.7 150.85 -17.1 L 135.8 -5 Q 125.65 2.75 120.2 -8.8 115.5 -18.65 108.8 -27.05 M 191.8 -16.95 Q 196.25 -24.45 200.85 -17.9 207.25 -8.65 201.75 1 L 202.65 2.95 Q 199.35 9.15 195.35 15.05 188.65 24.9 189.8 36.8 191.3 52.15 204.65 59.4 200.9 58.9 197.45 57.6 168.5 55.15 150.25 43.05 132.05 31 121.8 21.45 111.5 11.8 117.35 5.35 121.3 6.65 125.15 8.25 134.65 12.35 141.7 5.2 151.5 -4.6 159.85 -15.25 L 162.5 -13.15 Q 162.55 -11.7 161.85 -10.4 154.75 1.95 153.1 14.85 161.25 15.3 168.85 9.35 182.8 -1.6 191.8 -16.95 M 175.25 -20.5 Q 176.25 -26.6 182.1 -28.85 L 175.25 -20.5 Z" />
              </g>
            </defs>
            <g transform="matrix( 1, 0, 0, 1, 0,0) ">
              <use xlink:href="#xfl472_Layer0_0_FILL" />
            </g>
          </g>
          <g data-svg-leaf="graphics_symbol_433_0b8905e294/t00_l000_f0000_r00.svg">
            <defs>
              <g id="xfl473_Layer0_0_FILL">
                <path fill="#FFFFFF" fill-opacity="0.25098039215686274" stroke="none" d=" M 179.55 41.3 Q 178.45 25.1 185.85 10.55 189.3 3.75 191.55 -3.6 L 164.7 32.5 Q 150.6 26.8 146.8 13.45 L 139.1 17.5 131.15 13.95 Q 130.65 15.35 131.5 16.6 134 20.05 138.35 21.15 156.55 36.2 179.55 41.3 M 139.3 17.6 Q 145.65 19.45 141.85 18.4 L 139.3 17.6 Z" />
              </g>
            </defs>
            <g transform="matrix( 1, 0, 0, 1, 0,0) ">
              <use xlink:href="#xfl473_Layer0_0_FILL" />
            </g>
          </g>
        </g>
      </g>
    </g>
    <g transform="matrix(1 0 0 1 -270 -120)">
      <g data-xfl-symbol="MovieClips/Symbol 436">
        <g transform="matrix(1 0 0 1 2 2)">
          <text x="0" y="21.771" fill="#000000" font-family="Gwibble" font-size="21.771" letter-spacing="-0.05">Super Flying Cowboy Mode: Activate!!!!!</text>
        </g>
      </g>
    </g>
    <g transform="matrix(1 0 0 1 -271 -121)" data-xfl-instance="text">
      <g data-xfl-symbol="MovieClips/Symbol 436">
        <g transform="matrix(1 0 0 1 2 2)">
          <text x="0" y="21.771" fill="#FFFFFF" font-family="Gwibble" font-size="21.771" letter-spacing="-0.05">Super Flying Cowboy Mode: Activate!!!!!</text>
        </g>
      </g>
    </g>
  </g>
</svg>