<?xml version='1.0' encoding='utf-8'?>
<svg xmlns="http://www.w3.org/2000/svg" xmlns:xlink="http://www.w3.org/1999/xlink" version="1.1" width="550px" height="400px" viewBox="0 0 550 400" preserveAspectRatio="none" data-xfl-root="MovieClips/Symbol 479">
  <g data-xfl-symbol="MovieClips/Symbol 479">
    <g data-svg-leaf="movieclips_symbol_479_b6e029f803/t00_l000_f0000_r00.svg">
      <defs>
        <g id="xfl1_Layer0_0_FILL">
          <path fill="#C8C8C8" stroke="none" d=" M -2.7 1 L -2.55 0.6 Q -2.8 0.3 -2.75 0.55 L -2.7 1 M -4.2 -2.35 L -5.25 -1.65 -4.95 -0.75 -4.2 -2.35 M -1.25 -4.6 L -2.7 -3.6 0.7 -3.45 -1.25 -4.6 M 0.9 0.6 L 0.4 0.75 -2.7 1.8 -2.15 5.7 4.3 1.65 -1.55 4.5 0.9 0.6 M 0.35 -0.6 L 1.35 -0.9 3.9 -1.45 1.65 -0.9 1.65 -0.75 1.8 -0.75 Q 3.5 -0.8 2.65 -0.15 L 5.1 -0.9 0.8 -3.4 -2.8 0 0.4 -0.55 0.35 -0.6 Z" />
          <path fill="#9D9D9D" stroke="none" d=" M -2.55 0.6 L -2.7 1 -2.7 1.8 0.4 0.75 -2.55 0.6 M 5.1 -0.9 L 2.65 -0.15 0.9 0.6 -1.55 4.5 4.3 1.65 5.1 -0.9 Z" />
          <path fill="#FFFFFF" stroke="none" d=" M 1.35 -0.9 L 1.65 -0.9 3.9 -1.45 1.35 -0.9 M 0.8 -3.4 L 0.9 -3.45 0.7 -3.45 -2.7 -3.6 -4.2 -2.35 -4.95 -0.75 -2.15 5.7 -2.7 1.8 -2.7 1 -2.75 0.55 Q -2.8 0.3 -2.55 0.6 L 0.4 0.75 0.9 0.6 2.65 -0.15 Q 3.5 -0.8 1.8 -0.75 L 1.65 -0.75 0.4 -0.55 -2.8 0 0.8 -3.4 Z" />
          <path fill="#666666" stroke="none" d=" M 1.35 -0.9 L 0.35 -0.6 0.4 -0.55 1.65 -0.75 1.65 -0.9 1.35 -0.9 Z" />
        </g>
      </defs>
      <g transform="matrix( 1, 0, 0, 1, 0,0) ">
        <use xlink:href="#xfl1_Layer0_0_FILL" />
      </g>
    </g>
  </g>
</svg>