<?xml version='1.0' encoding='utf-8'?>
<svg xmlns="http://www.w3.org/2000/svg" xmlns:xlink="http://www.w3.org/1999/xlink" version="1.1" width="550px" height="400px" viewBox="0 0 550 400" preserveAspectRatio="none" data-xfl-root="MovieClips/Symbol 901">
  <g data-xfl-symbol="MovieClips/Symbol 901">
    <g transform="matrix(1 0 0 1 14.6 -37.7)" data-xfl-instance="var_152">
      <g data-xfl-symbol="Parts/Feet/footMC">
        <g data-xfl-instance="colorMC">
          <g data-xfl-symbol="MovieClips/Symbol 228">
            <g data-svg-leaf="movieclips_symbol_228_50229f3c90/t00_l001_f0005_r00.svg">
              <defs>
                <g id="xfl494_Layer0_0_FILL">
                  <path fill="#006699" stroke="none" d=" M 5.6 13.65 Q 3.2 18.75 2 18.75 -2.6 18.75 -5.5 17 L -7.45 15.35 -6.85 34.75 -3.25 28.5 Q -0.9 24.2 1 21.75 2.15 24 3.8 28.9 5.55 33.2 8 35.35 L 8.05 34 Q 8.05 31.5 6.8 24 5.8 17.85 5.6 13.65 M 1.05 17.1 Q 2.55 16.35 4 13.75 L 5.6 11.25 6 3.8 -6.75 6.05 -6.25 9.85 Q -6.25 10.5 -6.85 11.25 L -7.25 11.85 -6.7 13.05 -6.25 14.75 Q -5.2 16.45 -2.75 16.35 0 16.2 1.05 17.1 Z" />
                </g>
              </defs>
              <g transform="matrix( 1, 0, 0, 1, 0,0) ">
                <use xlink:href="#xfl494_Layer0_0_FILL" />
              </g>
            </g>
          </g>
        </g>
        <g data-svg-leaf="parts_feet_footmc_43077e0472/t00_l007_f0005_r00.svg">
          <defs>
            <g id="xfl495_Layer0_0_FILL">
              <path fill="#000000" stroke="none" d=" M -0.95 3.45 L -4.15 4.15 -4.95 4 -8.35 3.8 -8.55 12.4 -9.1 13.65 Q -9.6 15.15 -9.6 16.9 -9.6 18.15 -9.35 17.5 L -8.6 17.4 -8.6 17.5 -7.6 27.5 -7.85 37.6 Q -5.5 35.05 -3 31.05 L 0.75 24.75 Q 2.65 31.05 8.5 38.85 9.55 38.1 9.8 36.75 L 9.85 34.65 Q 9.85 31.35 8.6 23.45 7.3 15.6 7.3 11.75 L 8.3 3.1 8.05 1.55 0 3.25 0.05 3.05 -0.65 3.3 -0.95 3.45 M -6.7 6.45 L -6.75 6.05 6 3.8 5.6 11.25 5.05 12.05 Q 5.4 12.4 5.4 13.3 L 5.4 14.15 5.6 13.65 Q 5.8 17.85 6.8 24 8.05 31.5 8.05 34 L 8 35.35 Q 5.55 33.2 3.8 28.9 2.15 24 1 21.75 -0.9 24.2 -3.25 28.5 L -6.85 34.75 -7.45 15.35 -7.3 15.6 -7.3 9.45 -7.45 7.65 Q -7.4 6.75 -6.7 6.45 M -1.25 -16.5 L -2.15 -16.5 Q -2.6 -16.35 -2.6 -15.55 -2.6 -12.65 -1 2.9 L 0.05 2.75 -0.15 -7.3 Q -0.4 -12.7 -1.25 -16.5 Z" />
            </g>
          </defs>
          <g transform="matrix( 1, 0, 0, 1, 0,0) ">
            <use xlink:href="#xfl495_Layer0_0_FILL" />
          </g>
        </g>
        <g data-xfl-instance="colorMC2">
          <g data-xfl-symbol="MovieClips/Symbol 264">
            <g data-svg-leaf="movieclips_symbol_264_01ff1f643c/t00_l001_f0005_r00.svg">
              <defs>
                <g id="xfl496_Layer0_0_FILL">
                  <path fill="#000000" stroke="none" d=" M -0.95 3.45 L -4.15 4.15 -4.95 4 -8.35 3.8 -8.55 12.4 -9.1 13.65 Q -9.6 15.15 -9.6 16.9 -9.6 18.15 -9.35 17.5 L -8.6 17.4 -8.6 17.5 -7.6 27.5 -7.85 37.6 Q -5.5 35.05 -3 31.05 L 0.75 24.75 Q 2.65 31.05 8.5 38.85 9.55 38.1 9.8 36.75 L 9.85 34.65 Q 9.85 31.35 8.6 23.45 7.3 15.6 7.3 11.75 L 8.3 3.1 8.05 1.55 0 3.25 0.05 3.05 -0.65 3.3 -0.95 3.45 M -6.7 6.45 L -6.75 6.05 6 3.8 5.6 11.25 5.05 12.05 Q 5.4 12.4 5.4 13.3 L 5.4 14.15 5.6 13.65 Q 5.8 17.85 6.8 24 8.05 31.5 8.05 34 L 8 35.35 Q 5.55 33.2 3.8 28.9 2.15 24 1 21.75 -0.9 24.2 -3.25 28.5 L -6.85 34.75 -7.45 15.35 -7.3 15.6 -7.3 9.45 -7.45 7.65 Q -7.4 6.75 -6.7 6.45 M -1.25 -16.5 L -2.15 -16.5 Q -2.6 -16.35 -2.6 -15.55 -2.6 -12.65 -1 2.9 L 0.05 2.75 -0.15 -7.3 Q -0.4 -12.7 -1.25 -16.5 Z" />
                </g>
              </defs>
              <g transform="matrix( 1, 0, 0, 1, 0,0) ">
                <use xlink:href="#xfl496_Layer0_0_FILL" />
              </g>
            </g>
          </g>
        </g>
        <g data-xfl-symbol="Graphics/Symbol 271">
          <g data-svg-leaf="graphics_symbol_271_aae5ab2bb7/t00_l002_f0000_r00.svg">
            <defs>
              <g id="xfl497_Layer0_0_FILL">
                <path fill="#000000" fill-opacity="0.25098039215686274" stroke="none" d=" M -7.75 8.55 Q -9.4 12.9 -9.4 18.1 -9.4 21.65 -6.8 33.2 L -6.5 33.9 Q -2.6 14.9 -3.05 4.85 -5.8 3.55 -7.75 8.55 M 3.85 3.25 Q 3.05 4.25 1.9 6.15 0.8 7.9 3.25 12 5.65 16.1 6.2 25.6 6.7 35.1 8.25 34.9 L 9.25 34.55 Q 7.05 19 7.2 9.55 7.35 0.1 3.85 3.25 Z" />
              </g>
            </defs>
            <g transform="matrix( 1, 0, 0, 1, 0,0) ">
              <use xlink:href="#xfl497_Layer0_0_FILL" />
            </g>
          </g>
          <g data-svg-leaf="graphics_symbol_271_aae5ab2bb7/t00_l001_f0000_r00.svg">
            <defs>
              <g id="xfl498_Layer0_0_FILL">
                <path fill="#FFFFFF" fill-opacity="0.25098039215686274" stroke="none" d=" M 0.65 9 L 0.6 5.3 -0.25 4.3 Q -1.9 8.5 -4.45 16.9 -7 25.35 -7 26.6 -7 27.25 -6.6 27.45 -6.25 27.65 -6.25 28.4 L -6.15 29.05 -5.75 29.15 Q -1.7 22.3 -3 19.75 L -2.2 18.25 Q -1.15 20.4 0.8 25.5 2.8 29.55 5.6 29.55 L 6.85 29.25 7.5 29 7.6 29.05 7.65 28.45 Q 7.65 27.6 5.55 24.35 L 1.15 18.3 Q -0.15 16.65 0.1 12.9 L 0.65 9 M 5.95 27.35 L 6.3 28.35 Q 5.75 27.85 4.55 25.85 3.3 23.8 3.3 23.3 4.7 25 5.95 27.35 Z" />
              </g>
            </defs>
            <g transform="matrix( 1, 0, 0, 1, 0,0) ">
              <use xlink:href="#xfl498_Layer0_0_FILL" />
            </g>
          </g>
          <g data-svg-leaf="graphics_symbol_271_aae5ab2bb7/t00_l000_f0000_r00.svg">
            <defs>
              <g id="xfl499_Layer0_0_FILL">
                <path fill="#FFFFFF" stroke="none" d=" M 1.25 5.05 L 0.75 7.7 Q 0.75 8.2 1.95 10.7 3.25 13.5 4.25 14.75 L 4.8 14.5 4.8 14.05 4.9 14.4 4.75 15.9 4.8 16.15 5.25 16.25 Q 5.85 16.25 5.55 16.1 L 6.05 14.75 Q 6.05 12.35 4.75 9 3.2 5 1.25 5.05 Z" />
              </g>
            </defs>
            <g transform="matrix( 1, 0, 0, 1, 0,0) ">
              <use xlink:href="#xfl499_Layer0_0_FILL" />
            </g>
          </g>
        </g>
      </g>
    </g>
    <g transform="matrix(1 0 0 1 33 -150.2)" data-xfl-instance="egg">
      <g data-xfl-symbol="MovieClips/Symbol 316">
        <g data-svg-leaf="movieclips_symbol_316_a9705345d0/t00_l003_f0000_r00.svg">
          <defs>
            <g id="xfl500_Layer0_0_FILL">
              <path fill="#000000" stroke="none" d=" M -50.05 -39.1 Q -57.55 -35.25 -67.35 -25.85 L -75.35 -13.55 Q -80.35 -5.25 -83.7 3.4 -92.85 27.25 -92.85 63.1 -92.85 98.05 -81.9 115.15 -69.6 134.45 -41.65 134.45 -8.2 134.45 10.5 116.35 28.9 98.5 28.9 67.2 28.9 47.6 21.65 24.45 17.9 12.45 12.95 0.1 7.55 -19.15 -1.25 -29.5 -13 -43.3 -31.9 -43.3 -41.85 -43.3 -50.05 -39.1 M -27.85 -38.1 Q -22.3 -38.1 -14.3 -31.6 -5.4 -24.35 2.2 -12.1 22 19.95 22 66.4 22 91.1 8.55 107.8 -7.6 127.85 -38.25 127.85 -70.5 127.85 -81.15 105.95 -85.45 97.1 -86.95 83.5 -87.95 74.35 -87.95 57.65 -87.95 43.55 -84.45 27.8 -80.65 10.5 -73.65 -3.45 -56.35 -38.1 -27.85 -38.1 Z" />
            </g>
          </defs>
          <g transform="matrix( 1, 0, 0, 1, 0,0) ">
            <use xlink:href="#xfl500_Layer0_0_FILL" />
          </g>
        </g>
        <g transform="matrix(1 0 0 1 -87.95 -38.1)" data-xfl-instance="base">
          <g data-xfl-symbol="MovieClips/Symbol 312">
            <g data-svg-leaf="movieclips_symbol_312_e95fa2f412/t00_l000_f0000_r00.svg">
              <defs>
                <g id="xfl501_Layer0_0_FILL">
                  <path fill="#BF1A1A" stroke="none" d=" M 73.65 6.5 Q 65.65 0 60.1 0 31.6 0 14.3 34.65 7.3 48.6 3.5 65.9 0 81.65 0 95.75 0 112.45 1 121.6 2.5 135.2 6.8 144.05 17.45 165.95 49.7 165.95 80.35 165.95 96.5 145.9 109.95 129.2 109.95 104.5 109.95 58.05 90.15 26 82.55 13.75 73.65 6.5 Z" />
                </g>
              </defs>
              <g transform="matrix( 1, 0, 0, 1, 0,0) ">
                <use xlink:href="#xfl501_Layer0_0_FILL" />
              </g>
            </g>
          </g>
        </g>
        <g transform="matrix(1 0 0 1 -74 -18.75)" data-xfl-instance="dots">
          <g data-xfl-symbol="MovieClips/Symbol 314">
            <g data-svg-leaf="movieclips_symbol_314_63d9f8bb58/t00_l000_f0000_r00.svg">
              <defs>
                <g id="xfl502_Layer0_0_FILL">
                  <path fill="#00FF99" stroke="none" d=" M 47.65 117.3 Q 47.65 109.8 42.35 104.55 37.05 99.25 29.55 99.25 22.05 99.25 16.75 104.55 11.45 109.8 11.45 117.3 11.45 124.8 16.75 130.1 22.05 135.35 29.55 135.35 37.05 135.35 42.35 130.1 47.65 124.8 47.65 117.3 M 75.05 76.05 Q 79 71.35 79 64.7 79 58.05 75.05 53.4 71.1 48.7 65.5 48.7 59.9 48.7 55.95 53.4 52 58.05 52 64.7 52 71.35 55.95 76.05 59.9 80.7 65.5 80.7 71.1 80.7 75.05 76.05 M 19.75 35 Q 16.35 30.75 11.55 30.75 6.75 30.75 3.4 35 0 39.25 0 45.25 0 51.25 3.4 55.5 6.75 59.75 11.55 59.75 16.35 59.75 19.75 55.5 23.1 51.25 23.1 45.25 23.1 39.25 19.75 35 M 63.35 2.45 Q 61.35 0 58.55 0 55.75 0 53.8 2.45 51.8 4.85 51.8 8.3 51.8 11.75 53.8 14.2 55.75 16.6 58.55 16.6 61.35 16.6 63.35 14.2 65.3 11.75 65.3 8.3 65.3 4.85 63.35 2.45 M 114.55 -77.9 Q 116.8 -79.65 116.8 -82 116.8 -84.4 114.55 -86.05 112.25 -87.75 109 -87.75 105.75 -87.75 103.55 -86.05 101.25 -84.4 101.25 -82 101.25 -79.65 103.55 -77.9 105.75 -76.25 109 -76.25 112.25 -76.25 114.55 -77.9 M 160.75 -52.05 Q 160.75 -54.7 158.75 -56.5 156.75 -58.35 153.9 -58.35 151.05 -58.35 149 -56.5 147 -54.7 147 -52.05 147 -49.45 149 -47.6 151.05 -45.8 153.9 -45.8 156.75 -45.8 158.75 -47.6 160.75 -49.45 160.75 -52.05 Z" />
                </g>
              </defs>
              <g transform="matrix( 1, 0, 0, 1, 0,0) ">
                <use xlink:href="#xfl502_Layer0_0_FILL" />
              </g>
            </g>
          </g>
        </g>
        <g data-xfl-symbol="Graphics/Symbol 315">
          <g data-svg-leaf="graphics_symbol_315_522ba07b24/t00_l001_f0000_r00.svg">
            <defs>
              <g id="xfl503_Layer0_0_FILL">
                <path fill="#000000" stroke="none" d=" M 72.05 -64.85 Q 73.65 -64.3 74.9 -62.05 75.8 -60.5 80.75 -60.5 88.05 -60.5 90 -64.3 91 -66.2 90.55 -68.3 90.55 -74.6 88 -77.85 85.75 -80.7 82 -80.7 78.25 -80.7 75.1 -79.2 69.95 -76.7 69.2 -70.95 L 59.45 -71.5 Q 30.1 -71.5 11.3 -51.55 4.85 -44.65 0.75 -36.55 -2.5 -30.05 -2.5 -27 -2.5 -23.8 -0.15 -23.5 L 3.1 -29.95 Q 6.05 -36.25 8.8 -40.45 18.15 -55 32.15 -58.3 35.45 -59.05 50.25 -63.7 64.85 -67.45 72.05 -64.85 M 79.85 -66 Q 77.35 -66 75.55 -67.35 73.8 -68.7 73.8 -70.65 73.8 -72.6 75.55 -73.95 77.35 -75.3 79.85 -75.3 82.35 -75.3 84.1 -73.95 85.9 -72.6 85.9 -70.65 85.9 -68.7 84.1 -67.35 82.35 -66 79.85 -66 Z" />
              </g>
            </defs>
            <g transform="matrix( 1, 0, 0, 1, 0,0) ">
              <use xlink:href="#xfl503_Layer0_0_FILL" />
            </g>
          </g>
          <g data-svg-leaf="graphics_symbol_315_522ba07b24/t00_l000_f0000_r00.svg">
            <defs>
              <g id="xfl504_Layer0_0_FILL">
                <path fill="#000000" stroke="none" d=" M 27.9 -107.9 Q 27 -106.95 24.95 -102.45 20.65 -92.75 6.95 -87.45 -15.55 -72.4 -27.5 -51.05 -37.95 -32.5 -35.45 -20.1 -33.8 -17.2 -32 -15.5 -30.3 -16.45 -27.35 -27.8 -25.85 -33.55 -24.6 -39.75 -23.55 -44.9 -17.95 -53.55 -12.25 -62.4 -7.05 -66.65 L 27.15 -93.15 34.7 -91.5 Q 43.9 -91.5 45.65 -95.35 46.2 -96.55 45.5 -99.95 44.5 -105 41.35 -107.65 38.55 -110.05 34.7 -110.05 29.95 -110.05 27.9 -107.9 M 30.65 -103.55 Q 31.95 -104.75 34.2 -104.75 36.45 -104.75 38.3 -103.55 40.05 -102.4 40.4 -100.75 40.75 -99.1 39.4 -97.9 38.05 -96.75 35.8 -96.75 33.55 -96.75 31.75 -97.9 29.95 -99.1 29.6 -100.75 29.25 -102.4 30.65 -103.55 Z" />
              </g>
            </defs>
            <g transform="matrix( 1, 0, 0, 1, 0,0) ">
              <use xlink:href="#xfl504_Layer0_0_FILL" />
            </g>
          </g>
        </g>
      </g>
    </g>
    <g transform="matrix(1 0 0 1 -59.35 -35.7)" data-xfl-instance="var_165">
      <g data-xfl-symbol="Parts/Feet/footMC">
        <g data-xfl-instance="colorMC">
          <g data-xfl-symbol="MovieClips/Symbol 228">
            <g data-svg-leaf="movieclips_symbol_228_50229f3c90/t00_l001_f0005_r00.svg">
              <defs>
                <g id="xfl505_Layer0_0_FILL">
                  <path fill="#006699" stroke="none" d=" M 5.6 13.65 Q 3.2 18.75 2 18.75 -2.6 18.75 -5.5 17 L -7.45 15.35 -6.85 34.75 -3.25 28.5 Q -0.9 24.2 1 21.75 2.15 24 3.8 28.9 5.55 33.2 8 35.35 L 8.05 34 Q 8.05 31.5 6.8 24 5.8 17.85 5.6 13.65 M 1.05 17.1 Q 2.55 16.35 4 13.75 L 5.6 11.25 6 3.8 -6.75 6.05 -6.25 9.85 Q -6.25 10.5 -6.85 11.25 L -7.25 11.85 -6.7 13.05 -6.25 14.75 Q -5.2 16.45 -2.75 16.35 0 16.2 1.05 17.1 Z" />
                </g>
              </defs>
              <g transform="matrix( 1, 0, 0, 1, 0,0) ">
                <use xlink:href="#xfl505_Layer0_0_FILL" />
              </g>
            </g>
          </g>
        </g>
        <g data-svg-leaf="parts_feet_footmc_43077e0472/t00_l007_f0005_r00.svg">
          <defs>
            <g id="xfl506_Layer0_0_FILL">
              <path fill="#000000" stroke="none" d=" M -0.95 3.45 L -4.15 4.15 -4.95 4 -8.35 3.8 -8.55 12.4 -9.1 13.65 Q -9.6 15.15 -9.6 16.9 -9.6 18.15 -9.35 17.5 L -8.6 17.4 -8.6 17.5 -7.6 27.5 -7.85 37.6 Q -5.5 35.05 -3 31.05 L 0.75 24.75 Q 2.65 31.05 8.5 38.85 9.55 38.1 9.8 36.75 L 9.85 34.65 Q 9.85 31.35 8.6 23.45 7.3 15.6 7.3 11.75 L 8.3 3.1 8.05 1.55 0 3.25 0.05 3.05 -0.65 3.3 -0.95 3.45 M -6.7 6.45 L -6.75 6.05 6 3.8 5.6 11.25 5.05 12.05 Q 5.4 12.4 5.4 13.3 L 5.4 14.15 5.6 13.65 Q 5.8 17.85 6.8 24 8.05 31.5 8.05 34 L 8 35.35 Q 5.55 33.2 3.8 28.9 2.15 24 1 21.75 -0.9 24.2 -3.25 28.5 L -6.85 34.75 -7.45 15.35 -7.3 15.6 -7.3 9.45 -7.45 7.65 Q -7.4 6.75 -6.7 6.45 M -1.25 -16.5 L -2.15 -16.5 Q -2.6 -16.35 -2.6 -15.55 -2.6 -12.65 -1 2.9 L 0.05 2.75 -0.15 -7.3 Q -0.4 -12.7 -1.25 -16.5 Z" />
            </g>
          </defs>
          <g transform="matrix( 1, 0, 0, 1, 0,0) ">
            <use xlink:href="#xfl506_Layer0_0_FILL" />
          </g>
        </g>
        <g data-xfl-instance="colorMC2">
          <g data-xfl-symbol="MovieClips/Symbol 264">
            <g data-svg-leaf="movieclips_symbol_264_01ff1f643c/t00_l001_f0005_r00.svg">
              <defs>
                <g id="xfl507_Layer0_0_FILL">
                  <path fill="#000000" stroke="none" d=" M -0.95 3.45 L -4.15 4.15 -4.95 4 -8.35 3.8 -8.55 12.4 -9.1 13.65 Q -9.6 15.15 -9.6 16.9 -9.6 18.15 -9.35 17.5 L -8.6 17.4 -8.6 17.5 -7.6 27.5 -7.85 37.6 Q -5.5 35.05 -3 31.05 L 0.75 24.75 Q 2.65 31.05 8.5 38.85 9.55 38.1 9.8 36.75 L 9.85 34.65 Q 9.85 31.35 8.6 23.45 7.3 15.6 7.3 11.75 L 8.3 3.1 8.05 1.55 0 3.25 0.05 3.05 -0.65 3.3 -0.95 3.45 M -6.7 6.45 L -6.75 6.05 6 3.8 5.6 11.25 5.05 12.05 Q 5.4 12.4 5.4 13.3 L 5.4 14.15 5.6 13.65 Q 5.8 17.85 6.8 24 8.05 31.5 8.05 34 L 8 35.35 Q 5.55 33.2 3.8 28.9 2.15 24 1 21.75 -0.9 24.2 -3.25 28.5 L -6.85 34.75 -7.45 15.35 -7.3 15.6 -7.3 9.45 -7.45 7.65 Q -7.4 6.75 -6.7 6.45 M -1.25 -16.5 L -2.15 -16.5 Q -2.6 -16.35 -2.6 -15.55 -2.6 -12.65 -1 2.9 L 0.05 2.75 -0.15 -7.3 Q -0.4 -12.7 -1.25 -16.5 Z" />
                </g>
              </defs>
              <g transform="matrix( 1, 0, 0, 1, 0,0) ">
                <use xlink:href="#xfl507_Layer0_0_FILL" />
              </g>
            </g>
          </g>
        </g>
        <g data-xfl-symbol="Graphics/Symbol 271">
          <g data-svg-leaf="graphics_symbol_271_aae5ab2bb7/t00_l002_f0000_r00.svg">
            <defs>
              <g id="xfl508_Layer0_0_FILL">
                <path fill="#000000" fill-opacity="0.25098039215686274" stroke="none" d=" M -7.75 8.55 Q -9.4 12.9 -9.4 18.1 -9.4 21.65 -6.8 33.2 L -6.5 33.9 Q -2.6 14.9 -3.05 4.85 -5.8 3.55 -7.75 8.55 M 3.85 3.25 Q 3.05 4.25 1.9 6.15 0.8 7.9 3.25 12 5.65 16.1 6.2 25.6 6.7 35.1 8.25 34.9 L 9.25 34.55 Q 7.05 19 7.2 9.55 7.35 0.1 3.85 3.25 Z" />
              </g>
            </defs>
            <g transform="matrix( 1, 0, 0, 1, 0,0) ">
              <use xlink:href="#xfl508_Layer0_0_FILL" />
            </g>
          </g>
          <g data-svg-leaf="graphics_symbol_271_aae5ab2bb7/t00_l001_f0000_r00.svg">
            <defs>
              <g id="xfl509_Layer0_0_FILL">
                <path fill="#FFFFFF" fill-opacity="0.25098039215686274" stroke="none" d=" M 0.65 9 L 0.6 5.3 -0.25 4.3 Q -1.9 8.5 -4.45 16.9 -7 25.35 -7 26.6 -7 27.25 -6.6 27.45 -6.25 27.65 -6.25 28.4 L -6.15 29.05 -5.75 29.15 Q -1.7 22.3 -3 19.75 L -2.2 18.25 Q -1.15 20.4 0.8 25.5 2.8 29.55 5.6 29.55 L 6.85 29.25 7.5 29 7.6 29.05 7.65 28.45 Q 7.65 27.6 5.55 24.35 L 1.15 18.3 Q -0.15 16.65 0.1 12.9 L 0.65 9 M 5.95 27.35 L 6.3 28.35 Q 5.75 27.85 4.55 25.85 3.3 23.8 3.3 23.3 4.7 25 5.95 27.35 Z" />
              </g>
            </defs>
            <g transform="matrix( 1, 0, 0, 1, 0,0) ">
              <use xlink:href="#xfl509_Layer0_0_FILL" />
            </g>
          </g>
          <g data-svg-leaf="graphics_symbol_271_aae5ab2bb7/t00_l000_f0000_r00.svg">
            <defs>
              <g id="xfl510_Layer0_0_FILL">
                <path fill="#FFFFFF" stroke="none" d=" M 1.25 5.05 L 0.75 7.7 Q 0.75 8.2 1.95 10.7 3.25 13.5 4.25 14.75 L 4.8 14.5 4.8 14.05 4.9 14.4 4.75 15.9 4.8 16.15 5.25 16.25 Q 5.85 16.25 5.55 16.1 L 6.05 14.75 Q 6.05 12.35 4.75 9 3.2 5 1.25 5.05 Z" />
              </g>
            </defs>
            <g transform="matrix( 1, 0, 0, 1, 0,0) ">
              <use xlink:href="#xfl510_Layer0_0_FILL" />
            </g>
          </g>
        </g>
      </g>
    </g>
    <g transform="matrix(1.6465454102 0 0 0.4378356934 0.3 -17.8)">
      <g opacity="0.5">
        <g data-xfl-symbol="MovieClips/Symbol 900">
          <g data-svg-leaf="movieclips_symbol_900_fba49e7f97/t00_l000_f0000_r00.svg">
            <defs>
              <g id="xfl511_Layer0_0_FILL">
                <path fill="#ABABAB" stroke="none" d=" M 33.15 -25.5 Q 33.15 -40.25 12.4 -40.25 L 6.15 -39.25 Q 5.65 -41.4 3.05 -43.4 -0.7 -46.25 -6.6 -46.25 -13.45 -46.25 -24.85 -35 -29.15 -30.8 -32.3 -26.65 -35.35 -22.65 -35.35 -21.5 -35.35 -18.5 -34.1 -14.75 -39.75 -13.5 -43.45 -5.7 -46.35 0.4 -46.35 5.25 -46.35 9.1 -42.95 13.7 -38.8 19.35 -32.85 19.5 -35.35 22.7 -35.35 26.6 -35.35 30.9 -31.85 34.55 -25.4 41.25 -9.6 41.25 -1.25 41.25 8.1 43.75 17.45 46.25 22.9 46.25 45.4 46.25 45.4 27.6 45.4 24.4 38.4 13.75 46.4 12.75 46.4 5.6 46.4 2.55 40.35 -7.25 34 -17.65 29.65 -20.25 29.9 -21.25 33.15 -25.5 M -23.5 -33.6 L -23.85 -33.5 -23.6 -34 -23.5 -33.6 Z" />
              </g>
            </defs>
            <g transform="matrix( 1, 0, 0, 1, 0,0) ">
              <use xlink:href="#xfl511_Layer0_0_FILL" />
            </g>
          </g>
        </g>
      </g>
    </g>
  </g>
</svg>