<?xml version='1.0' encoding='utf-8'?>
<svg xmlns="http://www.w3.org/2000/svg" xmlns:xlink="http://www.w3.org/1999/xlink" version="1.1" width="550px" height="400px" viewBox="0 0 550 400" preserveAspectRatio="none" data-xfl-root="MovieClips/Symbol 901">
  <g data-xfl-symbol="MovieClips/Symbol 901">
    <g transform="matrix(1 0 0 1 14.6 -37.7)" data-xfl-instance="var_152">
      <g data-xfl-symbol="Parts/Feet/footMC">
        <g data-xfl-instance="colorMC">
          <g data-xfl-symbol="MovieClips/Symbol 228">
            <g data-svg-leaf="movieclips_symbol_228_50229f3c90/t00_l001_f0004_r00.svg">
              <defs>
                <g id="xfl57_Layer0_0_FILL">
                  <path fill="#009966" stroke="none" d=" M 15.5 35.75 L 19.25 36.1 Q 21.3 36.15 21.75 34.35 22.2 32.7 22.5 29.65 L 22.75 25.9 Q 22.75 24.3 22.1 23.1 L -17.5 27 -17.75 31.5 -17.35 36.75 -17.25 37.1 15.5 35.75 M 55.05 37.6 Q 68.25 37.6 74.05 29.5 77 25.4 77.3 20.85 80.35 11.1 70.55 1.35 60.7 -8.5 38.75 2.05 39.75 2.05 40 2.5 L 38.9 3.85 38.95 3.9 Q 36.35 7.4 35.65 9.05 34.4 11.85 34.4 15.6 34.4 16.75 35.3 19.75 36.5 23.8 38.5 27.25 44.5 37.6 55.05 37.6 M 20.1 -3.6 L 6.65 -3.95 -3.75 -3.15 -4.15 -3.15 -4.25 -3.45 -21.35 -1 Q -20 1.7 -19.2 6.25 L -17.85 13.55 -11.85 13.75 Q -4.65 12.2 4.95 12.1 L 21.6 12.05 21.75 10.15 Q 21.75 8.05 21.05 3.45 L 21.05 3.4 19.05 3.25 19.05 2.7 20.95 2.75 20.1 -3.6 Z" />
                </g>
              </defs>
              <g transform="matrix( 1, 0, 0, 1, 0,0) ">
                <use xlink:href="#xfl57_Layer0_0_FILL" />
              </g>
            </g>
          </g>
        </g>
        <g data-xfl-symbol="Graphics/Symbol 269" />
      </g>
    </g>
    <g transform="matrix(1 0 0 1 33 -150.2)" data-xfl-instance="egg">
      <g data-xfl-symbol="MovieClips/Symbol 316">
        <g data-xfl-symbol="Graphics/Symbol 315" />
      </g>
    </g>
    <g transform="matrix(1 0 0 1 -59.35 -35.7)" data-xfl-instance="var_165">
      <g data-xfl-symbol="Parts/Feet/footMC">
        <g data-xfl-instance="colorMC">
          <g data-xfl-symbol="MovieClips/Symbol 228">
            <g data-svg-leaf="movieclips_symbol_228_50229f3c90/t00_l001_f0004_r00.svg">
              <defs>
                <g id="xfl58_Layer0_0_FILL">
                  <path fill="#009966" stroke="none" d=" M 15.5 35.75 L 19.25 36.1 Q 21.3 36.15 21.75 34.35 22.2 32.7 22.5 29.65 L 22.75 25.9 Q 22.75 24.3 22.1 23.1 L -17.5 27 -17.75 31.5 -17.35 36.75 -17.25 37.1 15.5 35.75 M 55.05 37.6 Q 68.25 37.6 74.05 29.5 77 25.4 77.3 20.85 80.35 11.1 70.55 1.35 60.7 -8.5 38.75 2.05 39.75 2.05 40 2.5 L 38.9 3.85 38.95 3.9 Q 36.35 7.4 35.65 9.05 34.4 11.85 34.4 15.6 34.4 16.75 35.3 19.75 36.5 23.8 38.5 27.25 44.5 37.6 55.05 37.6 M 20.1 -3.6 L 6.65 -3.95 -3.75 -3.15 -4.15 -3.15 -4.25 -3.45 -21.35 -1 Q -20 1.7 -19.2 6.25 L -17.85 13.55 -11.85 13.75 Q -4.65 12.2 4.95 12.1 L 21.6 12.05 21.75 10.15 Q 21.75 8.05 21.05 3.45 L 21.05 3.4 19.05 3.25 19.05 2.7 20.95 2.75 20.1 -3.6 Z" />
                </g>
              </defs>
              <g transform="matrix( 1, 0, 0, 1, 0,0) ">
                <use xlink:href="#xfl58_Layer0_0_FILL" />
              </g>
            </g>
          </g>
        </g>
        <g data-xfl-symbol="Graphics/Symbol 269" />
      </g>
    </g>
  </g>
</svg>