<?xml version='1.0' encoding='utf-8'?>
<svg xmlns="http://www.w3.org/2000/svg" xmlns:xlink="http://www.w3.org/1999/xlink" version="1.1" width="550px" height="400px" viewBox="0 0 550 400" preserveAspectRatio="none" data-xfl-root="MovieClips/Symbol 901">
  <g data-xfl-symbol="MovieClips/Symbol 901">
    <g transform="matrix(1 0 0 1 14.6 -37.7)" data-xfl-instance="var_152">
      <g data-xfl-symbol="Parts/Feet/footMC">
        <g data-xfl-instance="colorMC">
          <g data-xfl-symbol="MovieClips/Symbol 228">
            <g data-svg-leaf="movieclips_symbol_228_50229f3c90/t00_l001_f0002_r00.svg">
              <defs>
                <g id="xfl443_Layer0_0_FILL">
                  <path fill="#00CC99" stroke="none" d=" M 59.25 30.25 Q 54.9 27.15 45.95 22.9 L 35.6 17.9 35.15 17.85 Q 32.95 17.85 30.8 20.75 28.7 23.6 28.4 23.6 26.15 23.6 24.05 21.4 L 22.95 20.1 22.5 20.5 21.85 20.25 22.55 19.5 21.5 18 21.75 17.6 23 18.7 24.35 15.85 Q 25.35 14.6 26.85 14.25 L 20.1 11.05 19.05 11.75 Q 16.75 13.2 16.6 14.25 L 15.85 16.65 14.5 19.25 Q 12.6 18.45 11.25 16.35 10.3 14.9 9.85 13.3 L 9.45 13.2 Q 8.35 14.7 7.1 15 6.85 15.6 6.85 14.35 6.85 13.35 10.2 10.2 12.4 8.1 14.15 7.5 L 11.35 5.05 11.55 4.65 Q 6.95 2.1 2.95 1.5 -0.25 1 -16.25 1.05 -18.8 3.25 -19.25 8.55 L -20.15 16.25 Q -20.75 21.05 -20.75 23.4 L -20.2 28.7 Q -15.65 28.3 12.05 28.9 37.35 29.45 59.25 30.25 Z" />
                </g>
              </defs>
              <g transform="matrix( 1, 0, 0, 1, 0,0) ">
                <use xlink:href="#xfl443_Layer0_0_FILL" />
              </g>
            </g>
          </g>
        </g>
        <g data-xfl-symbol="Graphics/Symbol 231">
          <g data-svg-leaf="graphics_symbol_231_546e793815/t00_l000_f0000_r00.svg">
            <defs>
              <g id="xfl444_Layer0_0_FILL">
                <path fill="#776955" stroke="none" d=" M 15.85 11.95 Q 16.65 10.55 17.8 9.8 L 16.1 8.8 Q 15.2 9.5 13.45 9.75 11 10.15 10.35 11.5 L 9.45 13.2 9.85 13.3 10.1 13 Q 10.65 13.4 11.85 15.35 12.85 17 13.85 17.25 14.75 13.9 15.85 11.95 M 31.75 17.4 L 32.65 16.6 30.65 15.85 28.35 16 Q 25.65 15.85 24.85 17.25 L 23.6 19.25 24.3 19.9 Q 26.6 21.85 28 21.85 28.65 21.85 31.75 17.4 M 63.4 35.05 Q 63.4 33.25 59.7 30.55 58.45 32.25 54.85 32.2 L 44 31.75 Q 32.65 31.75 11.8 31.05 L -20.05 29.55 -19.75 31.5 Q -18.5 39 -17 39 L 25.75 37.75 49.65 38.9 61.15 40 Q 61.55 40 63.4 35.05 Z" />
              </g>
            </defs>
            <g transform="matrix( 1, 0, 0, 1, 0,0) ">
              <use xlink:href="#xfl444_Layer0_0_FILL" />
            </g>
          </g>
        </g>
        <g data-xfl-instance="colorMC2">
          <g data-xfl-symbol="MovieClips/Symbol 264">
            <g data-xfl-symbol="Graphics/Symbol 231">
              <g data-svg-leaf="graphics_symbol_231_546e793815/t00_l000_f0000_r00.svg">
                <defs>
                  <g id="xfl445_Layer0_0_FILL">
                    <path fill="#776955" stroke="none" d=" M 15.85 11.95 Q 16.65 10.55 17.8 9.8 L 16.1 8.8 Q 15.2 9.5 13.45 9.75 11 10.15 10.35 11.5 L 9.45 13.2 9.85 13.3 10.1 13 Q 10.65 13.4 11.85 15.35 12.85 17 13.85 17.25 14.75 13.9 15.85 11.95 M 31.75 17.4 L 32.65 16.6 30.65 15.85 28.35 16 Q 25.65 15.85 24.85 17.25 L 23.6 19.25 24.3 19.9 Q 26.6 21.85 28 21.85 28.65 21.85 31.75 17.4 M 63.4 35.05 Q 63.4 33.25 59.7 30.55 58.45 32.25 54.85 32.2 L 44 31.75 Q 32.65 31.75 11.8 31.05 L -20.05 29.55 -19.75 31.5 Q -18.5 39 -17 39 L 25.75 37.75 49.65 38.9 61.15 40 Q 61.55 40 63.4 35.05 Z" />
                  </g>
                </defs>
                <g transform="matrix( 1, 0, 0, 1, 0,0) ">
                  <use xlink:href="#xfl445_Layer0_0_FILL" />
                </g>
              </g>
            </g>
          </g>
        </g>
        <g data-xfl-symbol="Graphics/Symbol 267">
          <g data-svg-leaf="graphics_symbol_267_abef5b3e6d/t00_l002_f0000_r00.svg">
            <defs>
              <g id="xfl446_Layer0_0_FILL">
                <path fill="#000000" stroke="none" d=" M -15.4 -0.4 Q -15.5 -0.85 -15.75 -1.1 -19.15 -1.6 -21 9.05 -22.25 16.45 -22.25 23.55 L -21.25 32.25 Q -19.55 40.75 -16 40.75 L -1.45 40.05 Q 10.1 39.35 44 39.35 L 61.5 41.6 62.8 40.5 Q 63.8 39.35 63.8 39 63.8 38.4 64.25 37.05 L 64.65 35.05 Q 64.65 31.25 53.75 25.4 46.6 21.5 37.25 17.95 L 37.25 17.85 Q 36.15 15.85 34.8 15.75 31.65 14 23.65 10.2 L 22 9.45 22.25 9.05 20.95 8.95 16.35 6.8 Q 10.3 2.2 1.9 0.9 L -15.5 0 -15.4 -0.4 M -19.25 8.55 Q -18.8 3.25 -16.25 1.05 -0.25 1 2.95 1.5 6.95 2.1 11.55 4.65 L 11.35 5.05 14.15 7.5 Q 12.4 8.1 10.2 10.2 6.85 13.35 6.85 14.35 6.85 15.6 7.1 15 8.35 14.7 9.45 13.2 L 10.35 11.5 Q 11 10.15 13.45 9.75 15.2 9.5 16.1 8.8 L 17.8 9.8 Q 16.65 10.55 15.85 11.95 14.75 13.9 13.85 17.25 12.85 17 11.85 15.35 10.65 13.4 10.1 13 L 9.85 13.3 Q 10.3 14.9 11.25 16.35 12.6 18.45 14.5 19.25 L 15.85 16.65 16.6 14.25 Q 16.75 13.2 19.05 11.75 L 20.1 11.05 26.85 14.25 Q 25.35 14.6 24.35 15.85 L 23 18.7 21.75 17.6 21.5 18 22.55 19.5 21.85 20.25 22.5 20.5 22.95 20.1 24.05 21.4 Q 26.15 23.6 28.4 23.6 28.7 23.6 30.8 20.75 32.95 17.85 35.15 17.85 L 35.6 17.9 45.95 22.9 Q 54.9 27.15 59.25 30.25 37.35 29.45 12.05 28.9 -15.65 28.3 -20.2 28.7 L -20.75 23.4 Q -20.75 21.05 -20.15 16.25 L -19.25 8.55 M -19.75 31.5 L -20.05 29.55 11.8 31.05 Q 32.65 31.75 44 31.75 L 54.85 32.2 Q 58.45 32.25 59.7 30.55 63.4 33.25 63.4 35.05 61.55 40 61.15 40 L 49.65 38.9 25.75 37.75 -17 39 Q -18.5 39 -19.75 31.5 M 24.3 19.9 L 23.6 19.25 24.85 17.25 Q 25.65 15.85 28.35 16 L 30.65 15.85 32.65 16.6 31.75 17.4 Q 28.65 21.85 28 21.85 26.6 21.85 24.3 19.9 Z" />
              </g>
            </defs>
            <g transform="matrix( 1, 0, 0, 1, 0,0) ">
              <use xlink:href="#xfl446_Layer0_0_FILL" />
            </g>
          </g>
          <g data-svg-leaf="graphics_symbol_267_abef5b3e6d/t00_l001_f0000_r00.svg">
            <defs>
              <g id="xfl447_Layer0_0_FILL">
                <path fill="#000000" fill-opacity="0.25098039215686274" stroke="none" d=" M 63.2 34 Q 61.5 30.05 58.9 28.15 58.35 27.75 50.5 23.6 41.95 19.1 38.05 17.25 L 20.5 8.65 Q 12.8 4.8 9.15 3.35 0.6 0 -13.25 0 -18.4 0 -20.45 7.4 -21.7 11.9 -21.7 18.75 L -21.65 22.95 Q -21.45 25.65 -20.6 27 L -21.7 28.35 -20.2 27.1 -20.35 32.4 Q -19.65 39.75 -13.25 39.75 -9.1 39.25 -3 39.6 L 10.9 39 Q 18.7 38.1 39.6 39.35 60.5 40.6 58.35 41.05 62.25 40.85 63.85 39 64.85 37.8 63.2 34 M 45.2 25.55 Q 49.4 27.9 51.3 29.75 50.5 30.35 49.45 30.65 L 43.4 31.15 -6.45 28.6 Q -7.65 28.6 -9.8 20.95 L -11.75 13.2 Q -11.75 5.95 -4.55 5.95 3.4 5.95 13.35 11.4 14.9 12.25 20.05 15.35 23.35 17.35 24.55 17.65 36.9 20.9 45.2 25.55 M -20.55 19.55 L -20.5 19.2 -20.5 19.6 -20.55 19.55 M -20.55 15.25 L -20.65 15.5 -20.75 15.25 -20.55 15.25 Z" />
              </g>
            </defs>
            <g transform="matrix( 1, 0, 0, 1, 0,0) ">
              <use xlink:href="#xfl447_Layer0_0_FILL" />
            </g>
          </g>
          <g data-svg-leaf="graphics_symbol_267_abef5b3e6d/t00_l000_f0000_r00.svg">
            <defs>
              <g id="xfl448_Layer0_0_FILL">
                <path fill="#FFFFFF" fill-opacity="0.25098039215686274" stroke="none" d=" M 2.55 17.55 Q 1.6 19.65 1.6 21.8 1.6 24.3 16.45 26.85 29.4 29.1 36.35 29.1 L 39.7 28.7 Q 40.5 28.4 40.5 27.7 40.5 21.35 2.9 14.5 3.3 15.9 2.55 17.55 Z" />
              </g>
            </defs>
            <g transform="matrix( 1, 0, 0, 1, 0,0) ">
              <use xlink:href="#xfl448_Layer0_0_FILL" />
            </g>
          </g>
        </g>
      </g>
    </g>
    <g transform="matrix(1 0 0 1 33 -150.2)" data-xfl-instance="egg">
      <g data-xfl-symbol="MovieClips/Symbol 316">
        <g data-svg-leaf="movieclips_symbol_316_a9705345d0/t00_l003_f0000_r00.svg">
          <defs>
            <g id="xfl449_Layer0_0_FILL">
              <path fill="#000000" stroke="none" d=" M -50.05 -39.1 Q -57.55 -35.25 -67.35 -25.85 L -75.35 -13.55 Q -80.35 -5.25 -83.7 3.4 -92.85 27.25 -92.85 63.1 -92.85 98.05 -81.9 115.15 -69.6 134.45 -41.65 134.45 -8.2 134.45 10.5 116.35 28.9 98.5 28.9 67.2 28.9 47.6 21.65 24.45 17.9 12.45 12.95 0.1 7.55 -19.15 -1.25 -29.5 -13 -43.3 -31.9 -43.3 -41.85 -43.3 -50.05 -39.1 M -27.85 -38.1 Q -22.3 -38.1 -14.3 -31.6 -5.4 -24.35 2.2 -12.1 22 19.95 22 66.4 22 91.1 8.55 107.8 -7.6 127.85 -38.25 127.85 -70.5 127.85 -81.15 105.95 -85.45 97.1 -86.95 83.5 -87.95 74.35 -87.95 57.65 -87.95 43.55 -84.45 27.8 -80.65 10.5 -73.65 -3.45 -56.35 -38.1 -27.85 -38.1 Z" />
            </g>
          </defs>
          <g transform="matrix( 1, 0, 0, 1, 0,0) ">
            <use xlink:href="#xfl449_Layer0_0_FILL" />
          </g>
        </g>
        <g transform="matrix(1 0 0 1 -87.95 -38.1)" data-xfl-instance="base">
          <g data-xfl-symbol="MovieClips/Symbol 312">
            <g data-svg-leaf="movieclips_symbol_312_e95fa2f412/t00_l000_f0000_r00.svg">
              <defs>
                <g id="xfl450_Layer0_0_FILL">
                  <path fill="#BF1A1A" stroke="none" d=" M 73.65 6.5 Q 65.65 0 60.1 0 31.6 0 14.3 34.65 7.3 48.6 3.5 65.9 0 81.65 0 95.75 0 112.45 1 121.6 2.5 135.2 6.8 144.05 17.45 165.95 49.7 165.95 80.35 165.95 96.5 145.9 109.95 129.2 109.95 104.5 109.95 58.05 90.15 26 82.55 13.75 73.65 6.5 Z" />
                </g>
              </defs>
              <g transform="matrix( 1, 0, 0, 1, 0,0) ">
                <use xlink:href="#xfl450_Layer0_0_FILL" />
              </g>
            </g>
          </g>
        </g>
        <g transform="matrix(1 0 0 1 -74 -18.75)" data-xfl-instance="dots">
          <g data-xfl-symbol="MovieClips/Symbol 314">
            <g data-svg-leaf="movieclips_symbol_314_63d9f8bb58/t00_l000_f0000_r00.svg">
              <defs>
                <g id="xfl451_Layer0_0_FILL">
                  <path fill="#00FF99" stroke="none" d=" M 47.65 117.3 Q 47.65 109.8 42.35 104.55 37.05 99.25 29.55 99.25 22.05 99.25 16.75 104.55 11.45 109.8 11.45 117.3 11.45 124.8 16.75 130.1 22.05 135.35 29.55 135.35 37.05 135.35 42.35 130.1 47.65 124.8 47.65 117.3 M 75.05 76.05 Q 79 71.35 79 64.7 79 58.05 75.05 53.4 71.1 48.7 65.5 48.7 59.9 48.7 55.95 53.4 52 58.05 52 64.7 52 71.35 55.95 76.05 59.9 80.7 65.5 80.7 71.1 80.7 75.05 76.05 M 19.75 35 Q 16.35 30.75 11.55 30.75 6.75 30.75 3.4 35 0 39.25 0 45.25 0 51.25 3.4 55.5 6.75 59.75 11.55 59.75 16.35 59.75 19.75 55.5 23.1 51.25 23.1 45.25 23.1 39.25 19.75 35 M 63.35 2.45 Q 61.35 0 58.55 0 55.75 0 53.8 2.45 51.8 4.85 51.8 8.3 51.8 11.75 53.8 14.2 55.75 16.6 58.55 16.6 61.35 16.6 63.35 14.2 65.3 11.75 65.3 8.3 65.3 4.85 63.35 2.45 M 114.55 -77.9 Q 116.8 -79.65 116.8 -82 116.8 -84.4 114.55 -86.05 112.25 -87.75 109 -87.75 105.75 -87.75 103.55 -86.05 101.25 -84.4 101.25 -82 101.25 -79.65 103.55 -77.9 105.75 -76.25 109 -76.25 112.25 -76.25 114.55 -77.9 M 160.75 -52.05 Q 160.75 -54.7 158.75 -56.5 156.75 -58.35 153.9 -58.35 151.05 -58.35 149 -56.5 147 -54.7 147 -52.05 147 -49.45 149 -47.6 151.05 -45.8 153.9 -45.8 156.75 -45.8 158.75 -47.6 160.75 -49.45 160.75 -52.05 Z" />
                </g>
              </defs>
              <g transform="matrix( 1, 0, 0, 1, 0,0) ">
                <use xlink:href="#xfl451_Layer0_0_FILL" />
              </g>
            </g>
          </g>
        </g>
        <g data-xfl-symbol="Graphics/Symbol 315">
          <g data-svg-leaf="graphics_symbol_315_522ba07b24/t00_l001_f0000_r00.svg">
            <defs>
              <g id="xfl452_Layer0_0_FILL">
                <path fill="#000000" stroke="none" d=" M 72.05 -64.85 Q 73.65 -64.3 74.9 -62.05 75.8 -60.5 80.75 -60.5 88.05 -60.5 90 -64.3 91 -66.2 90.55 -68.3 90.55 -74.6 88 -77.85 85.75 -80.7 82 -80.7 78.25 -80.7 75.1 -79.2 69.95 -76.7 69.2 -70.95 L 59.45 -71.5 Q 30.1 -71.5 11.3 -51.55 4.85 -44.65 0.75 -36.55 -2.5 -30.05 -2.5 -27 -2.5 -23.8 -0.15 -23.5 L 3.1 -29.95 Q 6.05 -36.25 8.8 -40.45 18.15 -55 32.15 -58.3 35.45 -59.05 50.25 -63.7 64.85 -67.45 72.05 -64.85 M 79.85 -66 Q 77.35 -66 75.55 -67.35 73.8 -68.7 73.8 -70.65 73.8 -72.6 75.55 -73.95 77.35 -75.3 79.85 -75.3 82.35 -75.3 84.1 -73.95 85.9 -72.6 85.9 -70.65 85.9 -68.7 84.1 -67.35 82.35 -66 79.85 -66 Z" />
              </g>
            </defs>
            <g transform="matrix( 1, 0, 0, 1, 0,0) ">
              <use xlink:href="#xfl452_Layer0_0_FILL" />
            </g>
          </g>
          <g data-svg-leaf="graphics_symbol_315_522ba07b24/t00_l000_f0000_r00.svg">
            <defs>
              <g id="xfl453_Layer0_0_FILL">
                <path fill="#000000" stroke="none" d=" M 27.9 -107.9 Q 27 -106.95 24.95 -102.45 20.65 -92.75 6.95 -87.45 -15.55 -72.4 -27.5 -51.05 -37.95 -32.5 -35.45 -20.1 -33.8 -17.2 -32 -15.5 -30.3 -16.45 -27.35 -27.8 -25.85 -33.55 -24.6 -39.75 -23.55 -44.9 -17.95 -53.55 -12.25 -62.4 -7.05 -66.65 L 27.15 -93.15 34.7 -91.5 Q 43.9 -91.5 45.65 -95.35 46.2 -96.55 45.5 -99.95 44.5 -105 41.35 -107.65 38.55 -110.05 34.7 -110.05 29.95 -110.05 27.9 -107.9 M 30.65 -103.55 Q 31.95 -104.75 34.2 -104.75 36.45 -104.75 38.3 -103.55 40.05 -102.4 40.4 -100.75 40.75 -99.1 39.4 -97.9 38.05 -96.75 35.8 -96.75 33.55 -96.75 31.75 -97.9 29.95 -99.1 29.6 -100.75 29.25 -102.4 30.65 -103.55 Z" />
              </g>
            </defs>
            <g transform="matrix( 1, 0, 0, 1, 0,0) ">
              <use xlink:href="#xfl453_Layer0_0_FILL" />
            </g>
          </g>
        </g>
      </g>
    </g>
    <g transform="matrix(1 0 0 1 -59.35 -35.7)" data-xfl-instance="var_165">
      <g data-xfl-symbol="Parts/Feet/footMC">
        <g data-xfl-instance="colorMC">
          <g data-xfl-symbol="MovieClips/Symbol 228">
            <g data-svg-leaf="movieclips_symbol_228_50229f3c90/t00_l001_f0002_r00.svg">
              <defs>
                <g id="xfl454_Layer0_0_FILL">
                  <path fill="#00CC99" stroke="none" d=" M 59.25 30.25 Q 54.9 27.15 45.95 22.9 L 35.6 17.9 35.15 17.85 Q 32.95 17.85 30.8 20.75 28.7 23.6 28.4 23.6 26.15 23.6 24.05 21.4 L 22.95 20.1 22.5 20.5 21.85 20.25 22.55 19.5 21.5 18 21.75 17.6 23 18.7 24.35 15.85 Q 25.35 14.6 26.85 14.25 L 20.1 11.05 19.05 11.75 Q 16.75 13.2 16.6 14.25 L 15.85 16.65 14.5 19.25 Q 12.6 18.45 11.25 16.35 10.3 14.9 9.85 13.3 L 9.45 13.2 Q 8.35 14.7 7.1 15 6.85 15.6 6.85 14.35 6.85 13.35 10.2 10.2 12.4 8.1 14.15 7.5 L 11.35 5.05 11.55 4.65 Q 6.95 2.1 2.95 1.5 -0.25 1 -16.25 1.05 -18.8 3.25 -19.25 8.55 L -20.15 16.25 Q -20.75 21.05 -20.75 23.4 L -20.2 28.7 Q -15.65 28.3 12.05 28.9 37.35 29.45 59.25 30.25 Z" />
                </g>
              </defs>
              <g transform="matrix( 1, 0, 0, 1, 0,0) ">
                <use xlink:href="#xfl454_Layer0_0_FILL" />
              </g>
            </g>
          </g>
        </g>
        <g data-xfl-symbol="Graphics/Symbol 231">
          <g data-svg-leaf="graphics_symbol_231_546e793815/t00_l000_f0000_r00.svg">
            <defs>
              <g id="xfl455_Layer0_0_FILL">
                <path fill="#776955" stroke="none" d=" M 15.85 11.95 Q 16.65 10.55 17.8 9.8 L 16.1 8.8 Q 15.2 9.5 13.45 9.75 11 10.15 10.35 11.5 L 9.45 13.2 9.85 13.3 10.1 13 Q 10.65 13.4 11.85 15.35 12.85 17 13.85 17.25 14.75 13.9 15.85 11.95 M 31.75 17.4 L 32.65 16.6 30.65 15.85 28.35 16 Q 25.65 15.85 24.85 17.25 L 23.6 19.25 24.3 19.9 Q 26.6 21.85 28 21.85 28.65 21.85 31.75 17.4 M 63.4 35.05 Q 63.4 33.25 59.7 30.55 58.45 32.25 54.85 32.2 L 44 31.75 Q 32.65 31.75 11.8 31.05 L -20.05 29.55 -19.75 31.5 Q -18.5 39 -17 39 L 25.75 37.75 49.65 38.9 61.15 40 Q 61.55 40 63.4 35.05 Z" />
              </g>
            </defs>
            <g transform="matrix( 1, 0, 0, 1, 0,0) ">
              <use xlink:href="#xfl455_Layer0_0_FILL" />
            </g>
          </g>
        </g>
        <g data-xfl-instance="colorMC2">
          <g data-xfl-symbol="MovieClips/Symbol 264">
            <g data-xfl-symbol="Graphics/Symbol 231">
              <g data-svg-leaf="graphics_symbol_231_546e793815/t00_l000_f0000_r00.svg">
                <defs>
                  <g id="xfl456_Layer0_0_FILL">
                    <path fill="#776955" stroke="none" d=" M 15.85 11.95 Q 16.65 10.55 17.8 9.8 L 16.1 8.8 Q 15.2 9.5 13.45 9.75 11 10.15 10.35 11.5 L 9.45 13.2 9.85 13.3 10.1 13 Q 10.65 13.4 11.85 15.35 12.85 17 13.85 17.25 14.75 13.9 15.85 11.95 M 31.75 17.4 L 32.65 16.6 30.65 15.85 28.35 16 Q 25.65 15.85 24.85 17.25 L 23.6 19.25 24.3 19.9 Q 26.6 21.85 28 21.85 28.65 21.85 31.75 17.4 M 63.4 35.05 Q 63.4 33.25 59.7 30.55 58.45 32.25 54.85 32.2 L 44 31.75 Q 32.65 31.75 11.8 31.05 L -20.05 29.55 -19.75 31.5 Q -18.5 39 -17 39 L 25.75 37.75 49.65 38.9 61.15 40 Q 61.55 40 63.4 35.05 Z" />
                  </g>
                </defs>
                <g transform="matrix( 1, 0, 0, 1, 0,0) ">
                  <use xlink:href="#xfl456_Layer0_0_FILL" />
                </g>
              </g>
            </g>
          </g>
        </g>
        <g data-xfl-symbol="Graphics/Symbol 267">
          <g data-svg-leaf="graphics_symbol_267_abef5b3e6d/t00_l002_f0000_r00.svg">
            <defs>
              <g id="xfl457_Layer0_0_FILL">
                <path fill="#000000" stroke="none" d=" M -15.4 -0.4 Q -15.5 -0.85 -15.75 -1.1 -19.15 -1.6 -21 9.05 -22.25 16.45 -22.25 23.55 L -21.25 32.25 Q -19.55 40.75 -16 40.75 L -1.45 40.05 Q 10.1 39.35 44 39.35 L 61.5 41.6 62.8 40.5 Q 63.8 39.35 63.8 39 63.8 38.4 64.25 37.05 L 64.65 35.05 Q 64.65 31.25 53.75 25.4 46.6 21.5 37.25 17.95 L 37.25 17.85 Q 36.15 15.85 34.8 15.75 31.65 14 23.65 10.2 L 22 9.45 22.25 9.05 20.95 8.95 16.35 6.8 Q 10.3 2.2 1.9 0.9 L -15.5 0 -15.4 -0.4 M -19.25 8.55 Q -18.8 3.25 -16.25 1.05 -0.25 1 2.95 1.5 6.95 2.1 11.55 4.65 L 11.35 5.05 14.15 7.5 Q 12.4 8.1 10.2 10.2 6.85 13.35 6.85 14.35 6.85 15.6 7.1 15 8.35 14.7 9.45 13.2 L 10.35 11.5 Q 11 10.15 13.45 9.75 15.2 9.5 16.1 8.8 L 17.8 9.8 Q 16.65 10.55 15.85 11.95 14.75 13.9 13.85 17.25 12.85 17 11.85 15.35 10.65 13.4 10.1 13 L 9.85 13.3 Q 10.3 14.9 11.25 16.35 12.6 18.45 14.5 19.25 L 15.85 16.65 16.6 14.25 Q 16.75 13.2 19.05 11.75 L 20.1 11.05 26.85 14.25 Q 25.35 14.6 24.35 15.85 L 23 18.7 21.75 17.6 21.5 18 22.55 19.5 21.85 20.25 22.5 20.5 22.95 20.1 24.05 21.4 Q 26.15 23.6 28.4 23.6 28.7 23.6 30.8 20.75 32.95 17.85 35.15 17.85 L 35.6 17.9 45.95 22.9 Q 54.9 27.15 59.25 30.25 37.35 29.45 12.05 28.9 -15.65 28.3 -20.2 28.7 L -20.75 23.4 Q -20.75 21.05 -20.15 16.25 L -19.25 8.55 M -19.75 31.5 L -20.05 29.55 11.8 31.05 Q 32.65 31.75 44 31.75 L 54.85 32.2 Q 58.45 32.25 59.7 30.55 63.4 33.25 63.4 35.05 61.55 40 61.15 40 L 49.65 38.9 25.75 37.75 -17 39 Q -18.5 39 -19.75 31.5 M 24.3 19.9 L 23.6 19.25 24.85 17.25 Q 25.65 15.85 28.35 16 L 30.65 15.85 32.65 16.6 31.75 17.4 Q 28.65 21.85 28 21.85 26.6 21.85 24.3 19.9 Z" />
              </g>
            </defs>
            <g transform="matrix( 1, 0, 0, 1, 0,0) ">
              <use xlink:href="#xfl457_Layer0_0_FILL" />
            </g>
          </g>
          <g data-svg-leaf="graphics_symbol_267_abef5b3e6d/t00_l001_f0000_r00.svg">
            <defs>
              <g id="xfl458_Layer0_0_FILL">
                <path fill="#000000" fill-opacity="0.25098039215686274" stroke="none" d=" M 63.2 34 Q 61.5 30.05 58.9 28.15 58.35 27.75 50.5 23.6 41.95 19.1 38.05 17.25 L 20.5 8.65 Q 12.8 4.8 9.15 3.35 0.6 0 -13.25 0 -18.4 0 -20.45 7.4 -21.7 11.9 -21.7 18.75 L -21.65 22.95 Q -21.45 25.65 -20.6 27 L -21.7 28.35 -20.2 27.1 -20.35 32.4 Q -19.65 39.75 -13.25 39.75 -9.1 39.25 -3 39.6 L 10.9 39 Q 18.7 38.1 39.6 39.35 60.5 40.6 58.35 41.05 62.25 40.85 63.85 39 64.85 37.8 63.2 34 M 45.2 25.55 Q 49.4 27.9 51.3 29.75 50.5 30.35 49.45 30.65 L 43.4 31.15 -6.45 28.6 Q -7.65 28.6 -9.8 20.95 L -11.75 13.2 Q -11.75 5.95 -4.55 5.95 3.4 5.95 13.35 11.4 14.9 12.25 20.05 15.35 23.35 17.35 24.55 17.65 36.9 20.9 45.2 25.55 M -20.55 19.55 L -20.5 19.2 -20.5 19.6 -20.55 19.55 M -20.55 15.25 L -20.65 15.5 -20.75 15.25 -20.55 15.25 Z" />
              </g>
            </defs>
            <g transform="matrix( 1, 0, 0, 1, 0,0) ">
              <use xlink:href="#xfl458_Layer0_0_FILL" />
            </g>
          </g>
          <g data-svg-leaf="graphics_symbol_267_abef5b3e6d/t00_l000_f0000_r00.svg">
            <defs>
              <g id="xfl459_Layer0_0_FILL">
                <path fill="#FFFFFF" fill-opacity="0.25098039215686274" stroke="none" d=" M 2.55 17.55 Q 1.6 19.65 1.6 21.8 1.6 24.3 16.45 26.85 29.4 29.1 36.35 29.1 L 39.7 28.7 Q 40.5 28.4 40.5 27.7 40.5 21.35 2.9 14.5 3.3 15.9 2.55 17.55 Z" />
              </g>
            </defs>
            <g transform="matrix( 1, 0, 0, 1, 0,0) ">
              <use xlink:href="#xfl459_Layer0_0_FILL" />
            </g>
          </g>
        </g>
      </g>
    </g>
  </g>
</svg>