<?xml version='1.0' encoding='utf-8'?>
<svg xmlns="http://www.w3.org/2000/svg" xmlns:xlink="http://www.w3.org/1999/xlink" version="1.1" width="550px" height="400px" viewBox="0 0 550 400" preserveAspectRatio="none" data-xfl-root="MovieClips/Symbol 901">
  <g data-xfl-symbol="MovieClips/Symbol 901">
    <g transform="matrix(1 0 0 1 7.7 -37.7)" data-xfl-instance="var_152">
      <g data-xfl-symbol="Parts/Feet/footMC">
        <g data-xfl-instance="colorMC">
          <g data-xfl-symbol="MovieClips/Symbol 228">
            <g data-svg-leaf="movieclips_symbol_228_50229f3c90/t00_l001_f0000_r00.svg">
              <defs>
                <g id="xfl18_Layer0_0_FILL">
                  <path fill="#6479CE" stroke="none" d=" M 12.35 -1.75 L 3.3 -6.7 Q -1.8 -9.15 -6.1 -9.15 -10 -9.15 -12.65 -6.65 -15.65 -3.9 -15.65 0.8 -15.65 3.1 -13.5 4.1 L -8.7 5.25 Q -5.3 5.75 -3.9 6.6 -1.75 7.9 -1.75 10.7 -1.75 11.9 -3.5 14.25 L -5.3 16.7 -6.25 17 -13.75 17.5 Q -14.55 17.5 -15.2 19.7 -15.9 21.9 -14.05 26.9 L -13.3 28.75 -13.5 29.05 -12.6 29.6 Q -4.5 34.55 7.4 36.2 L 35.45 37.5 Q 50.95 37.1 60.6 32.4 71.95 26.9 71.95 13.8 71.95 3.15 65.85 -6.5 59.6 -16.45 52.15 -16.45 47.15 -16.45 43.25 -11.4 41.6 -9.3 37.1 -1 32.6 7.25 26.45 9.85 20.3 12.45 17 14.15 13.7 15.85 13.05 15.55 10.5 14.25 10.5 9.15 10.5 6.6 11.3 2.95 L 12.35 -1.75 Z" />
                </g>
              </defs>
              <g transform="matrix( 1, 0, 0, 1, 0,0) ">
                <use xlink:href="#xfl18_Layer0_0_FILL" />
              </g>
            </g>
          </g>
        </g>
        <g data-xfl-symbol="Graphics/Symbol 229">
          <g data-svg-leaf="graphics_symbol_229_1ff44aa31f/t00_l000_f0000_r00.svg">
            <defs>
              <g id="xfl19_Layer0_0_FILL">
                <path fill="#000000" stroke="none" d=" M 13.55 -2.1 L 8.5 -5.75 Q 4.25 -8.7 -0.6 -9.7 -5.15 -11.1 -8.25 -10.25 L -10.5 -9.4 Q -14.1 -7.7 -15.65 -3.9 -17.2 -0.2 -16.35 3 -15.7 5.4 -13.75 5.8 L -11.85 5.8 -9.75 6.65 Q -3.75 8.7 -3.75 11.6 -3.75 13.2 -4.3 14.2 L -5.7 15.55 -5.7 15.6 Q -7 16.2 -10 16.3 L -14.05 16.7 -14.55 17 Q -16.25 17.85 -16.25 20.25 L -16.25 22.45 Q -16.55 24.15 -16.35 24.85 L -16.35 25.25 Q -16.1 26.65 -15.45 27.95 L -15.8 27.75 -15.2 29.95 -12.85 31.05 -12 31.75 Q -0.85 39.8 38.25 39.8 61.65 39.8 69.55 28.75 73.5 23.3 73.5 13 L 73.25 11.35 Q 73 8.4 72.15 5.2 70.75 -0.6 68.1 -5.5 62.5 -18.35 55.25 -18.35 50.5 -18.35 47.2 -17.25 L 46.7 -17.1 Q 45.9 -16.9 45.15 -16.35 42.6 -15.05 41.3 -12.8 L 39.05 -7.85 Q 37.65 -4.85 35.5 -3.25 33.35 -1.6 31.5 1.2 L 28.4 5.85 Q 24.65 10.4 15.9 12.4 L 15.55 12.45 15 13 12.95 13.1 13.05 12.95 12.3 13.05 11.55 10.75 11.55 10.7 10.75 8.1 Q 10.75 7.65 12.25 4.6 13.75 1.6 13.75 -0.1 L 13.75 -0.35 13.55 -2.1 M 5 -4.25 Q 11.25 -1.25 11.25 -0.3 11.25 0.95 9.75 3.6 8.5 5.8 8.3 7.75 L 8.25 8.5 8.8 12.05 8.8 12.2 9.3 13.2 Q 10.75 15.75 14 15.75 L 19.05 15.4 Q 21.95 14.6 24.5 13.3 27.4 11.9 30.3 9.8 37.75 4.35 37.75 0.35 37.75 -1.55 40.95 -6.6 L 45.5 -13.25 Q 46.05 -14.05 48.1 -14.55 L 52.95 -14.75 Q 59.95 -13.95 63.3 -7.75 68.85 2.6 69.85 6.8 70.55 9.65 70.55 19.35 70.55 20.9 69.1 23.4 67.25 26.6 64 29.25 57.55 34.5 47.6 36.1 L 38.15 36.8 15.65 36 14.6 35.85 Q 3.35 34.5 -4.85 32.1 L -7.85 30.75 Q -11.95 28.55 -13.15 25.4 -13.75 23.9 -13.75 20.5 L -13.6 19 -9.9 19.15 -8.1 18.85 Q -5.25 18.15 -3.25 15.9 L -1.8 14.05 Q -0.75 12.25 -0.75 10.65 -0.75 5.6 -7 4.35 L -11.3 3.55 Q -13.25 3 -13.25 1.75 -12.85 -0.55 -11.75 -2.85 -10.15 -6.15 -7.95 -7.1 L -6.05 -7.5 Q -1.85 -7.5 5 -4.25 M -14.85 -2.85 Q -14.25 -4.7 -13.2 -6 L -13.75 -5.1 -15.1 -1.95 -14.85 -2.85 Z" />
              </g>
            </defs>
            <g transform="matrix( 1, 0, 0, 1, 0,0) ">
              <use xlink:href="#xfl19_Layer0_0_FILL" />
            </g>
          </g>
        </g>
        <g data-xfl-instance="colorMC2">
          <g data-xfl-symbol="MovieClips/Symbol 264">
            <g data-xfl-symbol="Graphics/Symbol 229">
              <g data-svg-leaf="graphics_symbol_229_1ff44aa31f/t00_l000_f0000_r00.svg">
                <defs>
                  <g id="xfl20_Layer0_0_FILL">
                    <path fill="#000000" stroke="none" d=" M 13.55 -2.1 L 8.5 -5.75 Q 4.25 -8.7 -0.6 -9.7 -5.15 -11.1 -8.25 -10.25 L -10.5 -9.4 Q -14.1 -7.7 -15.65 -3.9 -17.2 -0.2 -16.35 3 -15.7 5.4 -13.75 5.8 L -11.85 5.8 -9.75 6.65 Q -3.75 8.7 -3.75 11.6 -3.75 13.2 -4.3 14.2 L -5.7 15.55 -5.7 15.6 Q -7 16.2 -10 16.3 L -14.05 16.7 -14.55 17 Q -16.25 17.85 -16.25 20.25 L -16.25 22.45 Q -16.55 24.15 -16.35 24.85 L -16.35 25.25 Q -16.1 26.65 -15.45 27.95 L -15.8 27.75 -15.2 29.95 -12.85 31.05 -12 31.75 Q -0.85 39.8 38.25 39.8 61.65 39.8 69.55 28.75 73.5 23.3 73.5 13 L 73.25 11.35 Q 73 8.4 72.15 5.2 70.75 -0.6 68.1 -5.5 62.5 -18.35 55.25 -18.35 50.5 -18.35 47.2 -17.25 L 46.7 -17.1 Q 45.9 -16.9 45.15 -16.35 42.6 -15.05 41.3 -12.8 L 39.05 -7.85 Q 37.65 -4.85 35.5 -3.25 33.35 -1.6 31.5 1.2 L 28.4 5.85 Q 24.65 10.4 15.9 12.4 L 15.55 12.45 15 13 12.95 13.1 13.05 12.95 12.3 13.05 11.55 10.75 11.55 10.7 10.75 8.1 Q 10.75 7.65 12.25 4.6 13.75 1.6 13.75 -0.1 L 13.75 -0.35 13.55 -2.1 M 5 -4.25 Q 11.25 -1.25 11.25 -0.3 11.25 0.95 9.75 3.6 8.5 5.8 8.3 7.75 L 8.25 8.5 8.8 12.05 8.8 12.2 9.3 13.2 Q 10.75 15.75 14 15.75 L 19.05 15.4 Q 21.95 14.6 24.5 13.3 27.4 11.9 30.3 9.8 37.75 4.35 37.75 0.35 37.75 -1.55 40.95 -6.6 L 45.5 -13.25 Q 46.05 -14.05 48.1 -14.55 L 52.95 -14.75 Q 59.95 -13.95 63.3 -7.75 68.85 2.6 69.85 6.8 70.55 9.65 70.55 19.35 70.55 20.9 69.1 23.4 67.25 26.6 64 29.25 57.55 34.5 47.6 36.1 L 38.15 36.8 15.65 36 14.6 35.85 Q 3.35 34.5 -4.85 32.1 L -7.85 30.75 Q -11.95 28.55 -13.15 25.4 -13.75 23.9 -13.75 20.5 L -13.6 19 -9.9 19.15 -8.1 18.85 Q -5.25 18.15 -3.25 15.9 L -1.8 14.05 Q -0.75 12.25 -0.75 10.65 -0.75 5.6 -7 4.35 L -11.3 3.55 Q -13.25 3 -13.25 1.75 -12.85 -0.55 -11.75 -2.85 -10.15 -6.15 -7.95 -7.1 L -6.05 -7.5 Q -1.85 -7.5 5 -4.25 M -14.85 -2.85 Q -14.25 -4.7 -13.2 -6 L -13.75 -5.1 -15.1 -1.95 -14.85 -2.85 Z" />
                  </g>
                </defs>
                <g transform="matrix( 1, 0, 0, 1, 0,0) ">
                  <use xlink:href="#xfl20_Layer0_0_FILL" />
                </g>
              </g>
            </g>
          </g>
        </g>
        <g data-xfl-symbol="Graphics/Symbol 265">
          <g data-svg-leaf="graphics_symbol_265_5ee2f4f7f3/t00_l002_f0000_r00.svg">
            <defs>
              <g id="xfl21_Layer0_0_FILL">
                <path fill="#000000" fill-opacity="0.25098039215686274" stroke="none" d=" M 13.55 -2.1 Q 12.65 -3.9 6.85 -6.95 0.05 -10.5 -5.45 -10.5 -10.55 -10.5 -13.65 -7.05 -16.6 -3.75 -16.6 1.4 -16.6 5.6 -13.1 5.9 L -7.45 5.4 Q -5.45 5.4 -4.05 7.05 -2.75 8.6 -2.75 10.65 -2.75 12.05 -4.8 14.8 -7.1 17.85 -9.2 17.85 L -13.15 16.65 Q -15.15 16.65 -15.95 20.15 -16.4 21.9 -16.4 23.75 -16.4 24.55 -15.65 25.2 -14.95 25.9 -14.95 26.35 L -15.7 28.05 Q -14.75 30.85 -2.95 34.05 11.75 38.05 31 38.05 52.85 38.05 62.75 32.9 73.45 27.35 73.45 14.4 73.45 -0.1 65.45 -9.75 58.85 -17.75 52.45 -17.75 46.95 -17.75 42.75 -12.7 40.65 -10.15 36 -1.55 31.85 6.25 28.4 9.6 23.15 14.65 15.95 14.65 L 14.3 13.4 Q 13.25 12.6 14.1 14.6 9.7 13.3 9.7 9.55 9.7 8.6 12.65 4.5 15.15 1.05 13.55 -2.1 M 3.55 -3.55 Q 6.45 -2.2 6.45 -1.1 L 5 1.15 Q 3.55 3.95 3.55 7.25 3.55 13.15 7.95 16.6 11.8 19.6 17.05 19.6 28.1 19.6 33.4 15.35 36.9 12.45 39.05 5.95 41.4 -1.5 43 -3.5 46.45 -7.75 54.4 -7.75 62.7 -7.75 66.65 1.65 69.1 7.45 69.1 12.65 69.1 18.7 66.15 23.1 62.55 28.45 55.9 28.45 54.35 28.45 47.1 25.35 39.8 22.2 33.25 22.2 26.05 22.2 17.65 27 9.3 31.75 6.05 31.75 4.45 31.75 -0.6 29.4 -5.45 27.1 -5.45 26.7 -5.45 25.5 -0.5 22.1 4.4 18.75 4.4 15.85 4.4 14.65 3.25 11.15 1.85 6.95 0.05 3.95 -0.95 2.35 -4 0.45 -7.95 -2 -10.75 -0.8 L -11.3 -1.15 Q -11.3 -2.7 -10.5 -3.55 -9.05 -5.05 -3.4 -5.05 0.3 -5.05 3.55 -3.55 M -13.3 27.55 Q -12.9 27.9 -13.1 28 L -13.8 27.2 -13.3 27.55 Z" />
              </g>
            </defs>
            <g transform="matrix( 1, 0, 0, 1, 0,0) ">
              <use xlink:href="#xfl21_Layer0_0_FILL" />
            </g>
          </g>
          <g data-svg-leaf="graphics_symbol_265_5ee2f4f7f3/t00_l001_f0000_r00.svg">
            <defs>
              <g id="xfl22_Layer0_0_FILL">
                <path fill="#FFFFFF" fill-opacity="0.25098039215686274" stroke="none" d=" M 9.45 24.75 Q 7.9 24.05 5.7 24.05 3.5 24.05 1.95 24.75 0.4 25.45 0.4 26.45 0.4 27.45 1.95 28.15 3.5 28.85 5.7 28.85 7.9 28.85 9.45 28.15 11 27.45 11 26.45 11 25.45 9.45 24.75 M 62.65 7.9 Q 59.45 3.55 53.6 3.55 52.95 3.55 50.3 5.6 47.55 7.8 47.55 8.8 47.55 14 52.1 17.25 54.4 18.9 56.75 19.5 59.05 19.5 61.85 17.9 65 16.15 65 14.15 65 11.05 62.65 7.9 M 3.7 -0.1 Q 3.7 -0.85 2.5 -1.4 1.3 -1.95 -0.4 -1.95 L -3.3 -1.4 Q -4.5 -0.85 -4.5 -0.1 -4.5 0.65 -3.3 1.2 L -0.4 1.75 Q 1.3 1.75 2.5 1.2 3.7 0.65 3.7 -0.1 Z" />
              </g>
            </defs>
            <g transform="matrix( 1, 0, 0, 1, 0,0) ">
              <use xlink:href="#xfl22_Layer0_0_FILL" />
            </g>
          </g>
          <g data-svg-leaf="graphics_symbol_265_5ee2f4f7f3/t00_l000_f0000_r00.svg">
            <defs>
              <g id="xfl23_Layer0_0_FILL">
                <path fill="#FFFFFF" stroke="none" d=" M 59.9 -0.15 Q 56.35 -4.9 50.75 -3.4 46.3 -1.05 45 0.85 50.45 5.2 63.95 11.05 65.15 10.7 64.5 10.25 L 63.55 6.6 Q 61.8 2.3 59.9 -0.15 Z" />
              </g>
            </defs>
            <g transform="matrix( 1, 0, 0, 1, 0,0) ">
              <use xlink:href="#xfl23_Layer0_0_FILL" />
            </g>
          </g>
        </g>
      </g>
    </g>
    <g transform="matrix(0.9999237061 -0.0090026855 0.0090026855 0.9999237061 31.75 -152.5)" data-xfl-instance="egg">
      <g data-xfl-symbol="MovieClips/Symbol 316">
        <g data-svg-leaf="movieclips_symbol_316_a9705345d0/t00_l003_f0000_r00.svg">
          <defs>
            <g id="xfl24_Layer0_0_FILL">
              <path fill="#000000" stroke="none" d=" M -50.05 -39.1 Q -57.55 -35.25 -67.35 -25.85 L -75.35 -13.55 Q -80.35 -5.25 -83.7 3.4 -92.85 27.25 -92.85 63.1 -92.85 98.05 -81.9 115.15 -69.6 134.45 -41.65 134.45 -8.2 134.45 10.5 116.35 28.9 98.5 28.9 67.2 28.9 47.6 21.65 24.45 17.9 12.45 12.95 0.1 7.55 -19.15 -1.25 -29.5 -13 -43.3 -31.9 -43.3 -41.85 -43.3 -50.05 -39.1 M -27.85 -38.1 Q -22.3 -38.1 -14.3 -31.6 -5.4 -24.35 2.2 -12.1 22 19.95 22 66.4 22 91.1 8.55 107.8 -7.6 127.85 -38.25 127.85 -70.5 127.85 -81.15 105.95 -85.45 97.1 -86.95 83.5 -87.95 74.35 -87.95 57.65 -87.95 43.55 -84.45 27.8 -80.65 10.5 -73.65 -3.45 -56.35 -38.1 -27.85 -38.1 Z" />
            </g>
          </defs>
          <g transform="matrix( 1, 0, 0, 1, 0,0) ">
            <use xlink:href="#xfl24_Layer0_0_FILL" />
          </g>
        </g>
        <g transform="matrix(1 0 0 1 -87.95 -38.1)" data-xfl-instance="base">
          <g data-xfl-symbol="MovieClips/Symbol 312">
            <g data-svg-leaf="movieclips_symbol_312_e95fa2f412/t00_l000_f0000_r00.svg">
              <defs>
                <g id="xfl25_Layer0_0_FILL">
                  <path fill="#BF1A1A" stroke="none" d=" M 73.65 6.5 Q 65.65 0 60.1 0 31.6 0 14.3 34.65 7.3 48.6 3.5 65.9 0 81.65 0 95.75 0 112.45 1 121.6 2.5 135.2 6.8 144.05 17.45 165.95 49.7 165.95 80.35 165.95 96.5 145.9 109.95 129.2 109.95 104.5 109.95 58.05 90.15 26 82.55 13.75 73.65 6.5 Z" />
                </g>
              </defs>
              <g transform="matrix( 1, 0, 0, 1, 0,0) ">
                <use xlink:href="#xfl25_Layer0_0_FILL" />
              </g>
            </g>
          </g>
        </g>
        <g transform="matrix(1 0 0 1 -74 -18.75)" data-xfl-instance="dots">
          <g data-xfl-symbol="MovieClips/Symbol 314">
            <g data-svg-leaf="movieclips_symbol_314_63d9f8bb58/t00_l000_f0000_r00.svg">
              <defs>
                <g id="xfl26_Layer0_0_FILL">
                  <path fill="#00FF99" stroke="none" d=" M 47.65 117.3 Q 47.65 109.8 42.35 104.55 37.05 99.25 29.55 99.25 22.05 99.25 16.75 104.55 11.45 109.8 11.45 117.3 11.45 124.8 16.75 130.1 22.05 135.35 29.55 135.35 37.05 135.35 42.35 130.1 47.65 124.8 47.65 117.3 M 75.05 76.05 Q 79 71.35 79 64.7 79 58.05 75.05 53.4 71.1 48.7 65.5 48.7 59.9 48.7 55.95 53.4 52 58.05 52 64.7 52 71.35 55.95 76.05 59.9 80.7 65.5 80.7 71.1 80.7 75.05 76.05 M 19.75 35 Q 16.35 30.75 11.55 30.75 6.75 30.75 3.4 35 0 39.25 0 45.25 0 51.25 3.4 55.5 6.75 59.75 11.55 59.75 16.35 59.75 19.75 55.5 23.1 51.25 23.1 45.25 23.1 39.25 19.75 35 M 63.35 2.45 Q 61.35 0 58.55 0 55.75 0 53.8 2.45 51.8 4.85 51.8 8.3 51.8 11.75 53.8 14.2 55.75 16.6 58.55 16.6 61.35 16.6 63.35 14.2 65.3 11.75 65.3 8.3 65.3 4.85 63.35 2.45 M 114.55 -77.9 Q 116.8 -79.65 116.8 -82 116.8 -84.4 114.55 -86.05 112.25 -87.75 109 -87.75 105.75 -87.75 103.55 -86.05 101.25 -84.4 101.25 -82 101.25 -79.65 103.55 -77.9 105.75 -76.25 109 -76.25 112.25 -76.25 114.55 -77.9 M 160.75 -52.05 Q 160.75 -54.7 158.75 -56.5 156.75 -58.35 153.9 -58.35 151.05 -58.35 149 -56.5 147 -54.7 147 -52.05 147 -49.45 149 -47.6 151.05 -45.8 153.9 -45.8 156.75 -45.8 158.75 -47.6 160.75 -49.45 160.75 -52.05 Z" />
                </g>
              </defs>
              <g transform="matrix( 1, 0, 0, 1, 0,0) ">
                <use xlink:href="#xfl26_Layer0_0_FILL" />
              </g>
            </g>
          </g>
        </g>
        <g data-xfl-symbol="Graphics/Symbol 315">
          <g data-svg-leaf="graphics_symbol_315_522ba07b24/t00_l001_f0000_r00.svg">
            <defs>
              <g id="xfl27_Layer0_0_FILL">
                <path fill="#000000" stroke="none" d=" M 72.05 -64.85 Q 73.65 -64.3 74.9 -62.05 75.8 -60.5 80.75 -60.5 88.05 -60.5 90 -64.3 91 -66.2 90.55 -68.3 90.55 -74.6 88 -77.85 85.75 -80.7 82 -80.7 78.25 -80.7 75.1 -79.2 69.95 -76.7 69.2 -70.95 L 59.45 -71.5 Q 30.1 -71.5 11.3 -51.55 4.85 -44.65 0.75 -36.55 -2.5 -30.05 -2.5 -27 -2.5 -23.8 -0.15 -23.5 L 3.1 -29.95 Q 6.05 -36.25 8.8 -40.45 18.15 -55 32.15 -58.3 35.45 -59.05 50.25 -63.7 64.85 -67.45 72.05 -64.85 M 79.85 -66 Q 77.35 -66 75.55 -67.35 73.8 -68.7 73.8 -70.65 73.8 -72.6 75.55 -73.95 77.35 -75.3 79.85 -75.3 82.35 -75.3 84.1 -73.95 85.9 -72.6 85.9 -70.65 85.9 -68.7 84.1 -67.35 82.35 -66 79.85 -66 Z" />
              </g>
            </defs>
            <g transform="matrix( 1, 0, 0, 1, 0,0) ">
              <use xlink:href="#xfl27_Layer0_0_FILL" />
            </g>
          </g>
          <g data-svg-leaf="graphics_symbol_315_522ba07b24/t00_l000_f0000_r00.svg">
            <defs>
              <g id="xfl28_Layer0_0_FILL">
                <path fill="#000000" stroke="none" d=" M 27.9 -107.9 Q 27 -106.95 24.95 -102.45 20.65 -92.75 6.95 -87.45 -15.55 -72.4 -27.5 -51.05 -37.95 -32.5 -35.45 -20.1 -33.8 -17.2 -32 -15.5 -30.3 -16.45 -27.35 -27.8 -25.85 -33.55 -24.6 -39.75 -23.55 -44.9 -17.95 -53.55 -12.25 -62.4 -7.05 -66.65 L 27.15 -93.15 34.7 -91.5 Q 43.9 -91.5 45.65 -95.35 46.2 -96.55 45.5 -99.95 44.5 -105 41.35 -107.65 38.55 -110.05 34.7 -110.05 29.95 -110.05 27.9 -107.9 M 30.65 -103.55 Q 31.95 -104.75 34.2 -104.75 36.45 -104.75 38.3 -103.55 40.05 -102.4 40.4 -100.75 40.75 -99.1 39.4 -97.9 38.05 -96.75 35.8 -96.75 33.55 -96.75 31.75 -97.9 29.95 -99.1 29.6 -100.75 29.25 -102.4 30.65 -103.55 Z" />
              </g>
            </defs>
            <g transform="matrix( 1, 0, 0, 1, 0,0) ">
              <use xlink:href="#xfl28_Layer0_0_FILL" />
            </g>
          </g>
        </g>
      </g>
    </g>
    <g transform="matrix(0.9998474121 0.013961792 -0.013961792 0.9998474121 -57.9 -36.85)" data-xfl-instance="var_165">
      <g data-xfl-symbol="Parts/Feet/footMC">
        <g data-xfl-instance="colorMC">
          <g data-xfl-symbol="MovieClips/Symbol 228">
            <g data-svg-leaf="movieclips_symbol_228_50229f3c90/t00_l001_f0000_r00.svg">
              <defs>
                <g id="xfl29_Layer0_0_FILL">
                  <path fill="#6479CE" stroke="none" d=" M 12.35 -1.75 L 3.3 -6.7 Q -1.8 -9.15 -6.1 -9.15 -10 -9.15 -12.65 -6.65 -15.65 -3.9 -15.65 0.8 -15.65 3.1 -13.5 4.1 L -8.7 5.25 Q -5.3 5.75 -3.9 6.6 -1.75 7.9 -1.75 10.7 -1.75 11.9 -3.5 14.25 L -5.3 16.7 -6.25 17 -13.75 17.5 Q -14.55 17.5 -15.2 19.7 -15.9 21.9 -14.05 26.9 L -13.3 28.75 -13.5 29.05 -12.6 29.6 Q -4.5 34.55 7.4 36.2 L 35.45 37.5 Q 50.95 37.1 60.6 32.4 71.95 26.9 71.95 13.8 71.95 3.15 65.85 -6.5 59.6 -16.45 52.15 -16.45 47.15 -16.45 43.25 -11.4 41.6 -9.3 37.1 -1 32.6 7.25 26.45 9.85 20.3 12.45 17 14.15 13.7 15.85 13.05 15.55 10.5 14.25 10.5 9.15 10.5 6.6 11.3 2.95 L 12.35 -1.75 Z" />
                </g>
              </defs>
              <g transform="matrix( 1, 0, 0, 1, 0,0) ">
                <use xlink:href="#xfl29_Layer0_0_FILL" />
              </g>
            </g>
          </g>
        </g>
        <g data-xfl-symbol="Graphics/Symbol 229">
          <g data-svg-leaf="graphics_symbol_229_1ff44aa31f/t00_l000_f0000_r00.svg">
            <defs>
              <g id="xfl30_Layer0_0_FILL">
                <path fill="#000000" stroke="none" d=" M 13.55 -2.1 L 8.5 -5.75 Q 4.25 -8.7 -0.6 -9.7 -5.15 -11.1 -8.25 -10.25 L -10.5 -9.4 Q -14.1 -7.7 -15.65 -3.9 -17.2 -0.2 -16.35 3 -15.7 5.4 -13.75 5.8 L -11.85 5.8 -9.75 6.65 Q -3.75 8.7 -3.75 11.6 -3.75 13.2 -4.3 14.2 L -5.7 15.55 -5.7 15.6 Q -7 16.2 -10 16.3 L -14.05 16.7 -14.55 17 Q -16.25 17.85 -16.25 20.25 L -16.25 22.45 Q -16.55 24.15 -16.35 24.85 L -16.35 25.25 Q -16.1 26.65 -15.45 27.95 L -15.8 27.75 -15.2 29.95 -12.85 31.05 -12 31.75 Q -0.85 39.8 38.25 39.8 61.65 39.8 69.55 28.75 73.5 23.3 73.5 13 L 73.25 11.35 Q 73 8.4 72.15 5.2 70.75 -0.6 68.1 -5.5 62.5 -18.35 55.25 -18.35 50.5 -18.35 47.2 -17.25 L 46.7 -17.1 Q 45.9 -16.9 45.15 -16.35 42.6 -15.05 41.3 -12.8 L 39.05 -7.85 Q 37.65 -4.85 35.5 -3.25 33.35 -1.6 31.5 1.2 L 28.4 5.85 Q 24.65 10.4 15.9 12.4 L 15.55 12.45 15 13 12.95 13.1 13.05 12.95 12.3 13.05 11.55 10.75 11.55 10.7 10.75 8.1 Q 10.75 7.65 12.25 4.6 13.75 1.6 13.75 -0.1 L 13.75 -0.35 13.55 -2.1 M 5 -4.25 Q 11.25 -1.25 11.25 -0.3 11.25 0.95 9.75 3.6 8.5 5.8 8.3 7.75 L 8.25 8.5 8.8 12.05 8.8 12.2 9.3 13.2 Q 10.75 15.75 14 15.75 L 19.05 15.4 Q 21.95 14.6 24.5 13.3 27.4 11.9 30.3 9.8 37.75 4.35 37.75 0.35 37.75 -1.55 40.95 -6.6 L 45.5 -13.25 Q 46.05 -14.05 48.1 -14.55 L 52.95 -14.75 Q 59.95 -13.95 63.3 -7.75 68.85 2.6 69.85 6.8 70.55 9.65 70.55 19.35 70.55 20.9 69.1 23.4 67.25 26.6 64 29.25 57.55 34.5 47.6 36.1 L 38.15 36.8 15.65 36 14.6 35.85 Q 3.35 34.5 -4.85 32.1 L -7.85 30.75 Q -11.95 28.55 -13.15 25.4 -13.75 23.9 -13.75 20.5 L -13.6 19 -9.9 19.15 -8.1 18.85 Q -5.25 18.15 -3.25 15.9 L -1.8 14.05 Q -0.75 12.25 -0.75 10.65 -0.75 5.6 -7 4.35 L -11.3 3.55 Q -13.25 3 -13.25 1.75 -12.85 -0.55 -11.75 -2.85 -10.15 -6.15 -7.95 -7.1 L -6.05 -7.5 Q -1.85 -7.5 5 -4.25 M -14.85 -2.85 Q -14.25 -4.7 -13.2 -6 L -13.75 -5.1 -15.1 -1.95 -14.85 -2.85 Z" />
              </g>
            </defs>
            <g transform="matrix( 1, 0, 0, 1, 0,0) ">
              <use xlink:href="#xfl30_Layer0_0_FILL" />
            </g>
          </g>
        </g>
        <g data-xfl-instance="colorMC2">
          <g data-xfl-symbol="MovieClips/Symbol 264">
            <g data-xfl-symbol="Graphics/Symbol 229">
              <g data-svg-leaf="graphics_symbol_229_1ff44aa31f/t00_l000_f0000_r00.svg">
                <defs>
                  <g id="xfl31_Layer0_0_FILL">
                    <path fill="#000000" stroke="none" d=" M 13.55 -2.1 L 8.5 -5.75 Q 4.25 -8.7 -0.6 -9.7 -5.15 -11.1 -8.25 -10.25 L -10.5 -9.4 Q -14.1 -7.7 -15.65 -3.9 -17.2 -0.2 -16.35 3 -15.7 5.4 -13.75 5.8 L -11.85 5.8 -9.75 6.65 Q -3.75 8.7 -3.75 11.6 -3.75 13.2 -4.3 14.2 L -5.7 15.55 -5.7 15.6 Q -7 16.2 -10 16.3 L -14.05 16.7 -14.55 17 Q -16.25 17.85 -16.25 20.25 L -16.25 22.45 Q -16.55 24.15 -16.35 24.85 L -16.35 25.25 Q -16.1 26.65 -15.45 27.95 L -15.8 27.75 -15.2 29.95 -12.85 31.05 -12 31.75 Q -0.85 39.8 38.25 39.8 61.65 39.8 69.55 28.75 73.5 23.3 73.5 13 L 73.25 11.35 Q 73 8.4 72.15 5.2 70.75 -0.6 68.1 -5.5 62.5 -18.35 55.25 -18.35 50.5 -18.35 47.2 -17.25 L 46.7 -17.1 Q 45.9 -16.9 45.15 -16.35 42.6 -15.05 41.3 -12.8 L 39.05 -7.85 Q 37.65 -4.85 35.5 -3.25 33.35 -1.6 31.5 1.2 L 28.4 5.85 Q 24.65 10.4 15.9 12.4 L 15.55 12.45 15 13 12.95 13.1 13.05 12.95 12.3 13.05 11.55 10.75 11.55 10.7 10.75 8.1 Q 10.75 7.65 12.25 4.6 13.75 1.6 13.75 -0.1 L 13.75 -0.35 13.55 -2.1 M 5 -4.25 Q 11.25 -1.25 11.25 -0.3 11.25 0.95 9.75 3.6 8.5 5.8 8.3 7.75 L 8.25 8.5 8.8 12.05 8.8 12.2 9.3 13.2 Q 10.75 15.75 14 15.75 L 19.05 15.4 Q 21.95 14.6 24.5 13.3 27.4 11.9 30.3 9.8 37.75 4.35 37.75 0.35 37.75 -1.55 40.95 -6.6 L 45.5 -13.25 Q 46.05 -14.05 48.1 -14.55 L 52.95 -14.75 Q 59.95 -13.95 63.3 -7.75 68.85 2.6 69.85 6.8 70.55 9.65 70.55 19.35 70.55 20.9 69.1 23.4 67.25 26.6 64 29.25 57.55 34.5 47.6 36.1 L 38.15 36.8 15.65 36 14.6 35.85 Q 3.35 34.5 -4.85 32.1 L -7.85 30.75 Q -11.95 28.55 -13.15 25.4 -13.75 23.9 -13.75 20.5 L -13.6 19 -9.9 19.15 -8.1 18.85 Q -5.25 18.15 -3.25 15.9 L -1.8 14.05 Q -0.75 12.25 -0.75 10.65 -0.75 5.6 -7 4.35 L -11.3 3.55 Q -13.25 3 -13.25 1.75 -12.85 -0.55 -11.75 -2.85 -10.15 -6.15 -7.95 -7.1 L -6.05 -7.5 Q -1.85 -7.5 5 -4.25 M -14.85 -2.85 Q -14.25 -4.7 -13.2 -6 L -13.75 -5.1 -15.1 -1.95 -14.85 -2.85 Z" />
                  </g>
                </defs>
                <g transform="matrix( 1, 0, 0, 1, 0,0) ">
                  <use xlink:href="#xfl31_Layer0_0_FILL" />
                </g>
              </g>
            </g>
          </g>
        </g>
        <g data-xfl-symbol="Graphics/Symbol 265">
          <g data-svg-leaf="graphics_symbol_265_5ee2f4f7f3/t00_l002_f0000_r00.svg">
            <defs>
              <g id="xfl32_Layer0_0_FILL">
                <path fill="#000000" fill-opacity="0.25098039215686274" stroke="none" d=" M 13.55 -2.1 Q 12.65 -3.9 6.85 -6.95 0.05 -10.5 -5.45 -10.5 -10.55 -10.5 -13.65 -7.05 -16.6 -3.75 -16.6 1.4 -16.6 5.6 -13.1 5.9 L -7.45 5.4 Q -5.45 5.4 -4.05 7.05 -2.75 8.6 -2.75 10.65 -2.75 12.05 -4.8 14.8 -7.1 17.85 -9.2 17.85 L -13.15 16.65 Q -15.15 16.65 -15.95 20.15 -16.4 21.9 -16.4 23.75 -16.4 24.55 -15.65 25.2 -14.95 25.9 -14.95 26.35 L -15.7 28.05 Q -14.75 30.85 -2.95 34.05 11.75 38.05 31 38.05 52.85 38.05 62.75 32.9 73.45 27.35 73.45 14.4 73.45 -0.1 65.45 -9.75 58.85 -17.75 52.45 -17.75 46.95 -17.75 42.75 -12.7 40.65 -10.15 36 -1.55 31.85 6.25 28.4 9.6 23.15 14.65 15.95 14.65 L 14.3 13.4 Q 13.25 12.6 14.1 14.6 9.7 13.3 9.7 9.55 9.7 8.6 12.65 4.5 15.15 1.05 13.55 -2.1 M 3.55 -3.55 Q 6.45 -2.2 6.45 -1.1 L 5 1.15 Q 3.55 3.95 3.55 7.25 3.55 13.15 7.95 16.6 11.8 19.6 17.05 19.6 28.1 19.6 33.4 15.35 36.9 12.45 39.05 5.95 41.4 -1.5 43 -3.5 46.45 -7.75 54.4 -7.75 62.7 -7.75 66.65 1.65 69.1 7.45 69.1 12.65 69.1 18.7 66.15 23.1 62.55 28.45 55.9 28.45 54.35 28.45 47.1 25.35 39.8 22.2 33.25 22.2 26.05 22.2 17.65 27 9.3 31.75 6.05 31.75 4.45 31.75 -0.6 29.4 -5.45 27.1 -5.45 26.7 -5.45 25.5 -0.5 22.1 4.4 18.75 4.4 15.85 4.4 14.65 3.25 11.15 1.85 6.95 0.05 3.95 -0.95 2.35 -4 0.45 -7.95 -2 -10.75 -0.8 L -11.3 -1.15 Q -11.3 -2.7 -10.5 -3.55 -9.05 -5.05 -3.4 -5.05 0.3 -5.05 3.55 -3.55 M -13.3 27.55 Q -12.9 27.9 -13.1 28 L -13.8 27.2 -13.3 27.55 Z" />
              </g>
            </defs>
            <g transform="matrix( 1, 0, 0, 1, 0,0) ">
              <use xlink:href="#xfl32_Layer0_0_FILL" />
            </g>
          </g>
          <g data-svg-leaf="graphics_symbol_265_5ee2f4f7f3/t00_l001_f0000_r00.svg">
            <defs>
              <g id="xfl33_Layer0_0_FILL">
                <path fill="#FFFFFF" fill-opacity="0.25098039215686274" stroke="none" d=" M 9.45 24.75 Q 7.9 24.05 5.7 24.05 3.5 24.05 1.95 24.75 0.4 25.45 0.4 26.45 0.4 27.45 1.95 28.15 3.5 28.85 5.7 28.85 7.9 28.85 9.45 28.15 11 27.45 11 26.45 11 25.45 9.45 24.75 M 62.65 7.9 Q 59.45 3.55 53.6 3.55 52.95 3.55 50.3 5.6 47.55 7.8 47.55 8.8 47.55 14 52.1 17.25 54.4 18.9 56.75 19.5 59.05 19.5 61.85 17.9 65 16.15 65 14.15 65 11.05 62.65 7.9 M 3.7 -0.1 Q 3.7 -0.85 2.5 -1.4 1.3 -1.95 -0.4 -1.95 L -3.3 -1.4 Q -4.5 -0.85 -4.5 -0.1 -4.5 0.65 -3.3 1.2 L -0.4 1.75 Q 1.3 1.75 2.5 1.2 3.7 0.65 3.7 -0.1 Z" />
              </g>
            </defs>
            <g transform="matrix( 1, 0, 0, 1, 0,0) ">
              <use xlink:href="#xfl33_Layer0_0_FILL" />
            </g>
          </g>
          <g data-svg-leaf="graphics_symbol_265_5ee2f4f7f3/t00_l000_f0000_r00.svg">
            <defs>
              <g id="xfl34_Layer0_0_FILL">
                <path fill="#FFFFFF" stroke="none" d=" M 59.9 -0.15 Q 56.35 -4.9 50.75 -3.4 46.3 -1.05 45 0.85 50.45 5.2 63.95 11.05 65.15 10.7 64.5 10.25 L 63.55 6.6 Q 61.8 2.3 59.9 -0.15 Z" />
              </g>
            </defs>
            <g transform="matrix( 1, 0, 0, 1, 0,0) ">
              <use xlink:href="#xfl34_Layer0_0_FILL" />
            </g>
          </g>
        </g>
      </g>
    </g>
  </g>
</svg>