<?xml version='1.0' encoding='utf-8'?>
<svg xmlns="http://www.w3.org/2000/svg" xmlns:xlink="http://www.w3.org/1999/xlink" version="1.1" width="550px" height="400px" viewBox="0 0 550 400" preserveAspectRatio="none" data-xfl-root="MovieClips/Symbol 901">
  <g data-xfl-symbol="MovieClips/Symbol 901">
    <g transform="matrix(1 0 0 1 -47.65 -37.7)" data-xfl-instance="var_152">
      <g data-xfl-symbol="Parts/Feet/footMC">
        <g data-xfl-symbol="Graphics/Symbol 229" />
        <g data-xfl-symbol="Graphics/Symbol 265" />
      </g>
    </g>
    <g transform="matrix(0.9988861084 -0.0442199707 0.0442199707 0.9988861084 26.9 -161)" data-xfl-instance="egg">
      <g data-xfl-symbol="MovieClips/Symbol 316">
        <g transform="matrix(1 0 0 1 -87.95 -38.1)" data-xfl-instance="base">
          <g data-xfl-symbol="MovieClips/Symbol 312">
            <g data-svg-leaf="movieclips_symbol_312_e95fa2f412/t00_l000_f0000_r00.svg">
              <defs>
                <g id="xfl10_Layer0_0_FILL">
                  <path fill="#BF1A1A" stroke="none" d=" M 73.65 6.5 Q 65.65 0 60.1 0 31.6 0 14.3 34.65 7.3 48.6 3.5 65.9 0 81.65 0 95.75 0 112.45 1 121.6 2.5 135.2 6.8 144.05 17.45 165.95 49.7 165.95 80.35 165.95 96.5 145.9 109.95 129.2 109.95 104.5 109.95 58.05 90.15 26 82.55 13.75 73.65 6.5 Z" />
                </g>
              </defs>
              <g transform="matrix( 1, 0, 0, 1, 0,0) ">
                <use xlink:href="#xfl10_Layer0_0_FILL" />
              </g>
            </g>
          </g>
        </g>
        <g data-xfl-symbol="Graphics/Symbol 315" />
      </g>
    </g>
    <g transform="matrix(0.9590606689 -0.2798156738 0.2798156738 0.9590606689 17.8 -32.75)" data-xfl-instance="var_165">
      <g data-xfl-symbol="Parts/Feet/footMC">
        <g data-xfl-symbol="Graphics/Symbol 229" />
        <g data-xfl-symbol="Graphics/Symbol 265" />
      </g>
    </g>
  </g>
</svg>