<?xml version='1.0' encoding='utf-8'?>
<svg xmlns="http://www.w3.org/2000/svg" xmlns:xlink="http://www.w3.org/1999/xlink" version="1.1" width="550px" height="400px" viewBox="0 0 550 400" preserveAspectRatio="none" data-xfl-root="MovieClips/Symbol 901">
  <g data-xfl-symbol="MovieClips/Symbol 901">
    <g transform="matrix(1 0 0 1 14.6 -37.7)" data-xfl-instance="var_152">
      <g data-xfl-symbol="Parts/Feet/footMC">
        <g data-xfl-instance="colorMC">
          <g data-xfl-symbol="MovieClips/Symbol 228">
            <g data-svg-leaf="movieclips_symbol_228_50229f3c90/t00_l001_f0005_r00.svg">
              <defs>
                <g id="xfl59_Layer0_0_FILL">
                  <path fill="#006699" stroke="none" d=" M 5.6 13.65 Q 3.2 18.75 2 18.75 -2.6 18.75 -5.5 17 L -7.45 15.35 -6.85 34.75 -3.25 28.5 Q -0.9 24.2 1 21.75 2.15 24 3.8 28.9 5.55 33.2 8 35.35 L 8.05 34 Q 8.05 31.5 6.8 24 5.8 17.85 5.6 13.65 M 1.05 17.1 Q 2.55 16.35 4 13.75 L 5.6 11.25 6 3.8 -6.75 6.05 -6.25 9.85 Q -6.25 10.5 -6.85 11.25 L -7.25 11.85 -6.7 13.05 -6.25 14.75 Q -5.2 16.45 -2.75 16.35 0 16.2 1.05 17.1 Z" />
                </g>
              </defs>
              <g transform="matrix( 1, 0, 0, 1, 0,0) ">
                <use xlink:href="#xfl59_Layer0_0_FILL" />
              </g>
            </g>
          </g>
        </g>
        <g data-xfl-symbol="Graphics/Symbol 271" />
      </g>
    </g>
    <g transform="matrix(1 0 0 1 33 -150.2)" data-xfl-instance="egg">
      <g data-xfl-symbol="MovieClips/Symbol 316">
        <g data-xfl-symbol="Graphics/Symbol 315" />
      </g>
    </g>
    <g transform="matrix(1 0 0 1 -59.35 -35.7)" data-xfl-instance="var_165">
      <g data-xfl-symbol="Parts/Feet/footMC">
        <g data-xfl-instance="colorMC">
          <g data-xfl-symbol="MovieClips/Symbol 228">
            <g data-svg-leaf="movieclips_symbol_228_50229f3c90/t00_l001_f0005_r00.svg">
              <defs>
                <g id="xfl60_Layer0_0_FILL">
                  <path fill="#006699" stroke="none" d=" M 5.6 13.65 Q 3.2 18.75 2 18.75 -2.6 18.75 -5.5 17 L -7.45 15.35 -6.85 34.75 -3.25 28.5 Q -0.9 24.2 1 21.75 2.15 24 3.8 28.9 5.55 33.2 8 35.35 L 8.05 34 Q 8.05 31.5 6.8 24 5.8 17.85 5.6 13.65 M 1.05 17.1 Q 2.55 16.35 4 13.75 L 5.6 11.25 6 3.8 -6.75 6.05 -6.25 9.85 Q -6.25 10.5 -6.85 11.25 L -7.25 11.85 -6.7 13.05 -6.25 14.75 Q -5.2 16.45 -2.75 16.35 0 16.2 1.05 17.1 Z" />
                </g>
              </defs>
              <g transform="matrix( 1, 0, 0, 1, 0,0) ">
                <use xlink:href="#xfl60_Layer0_0_FILL" />
              </g>
            </g>
          </g>
        </g>
        <g data-xfl-symbol="Graphics/Symbol 271" />
      </g>
    </g>
    <g transform="matrix(1.6465454102 0 0 0.4378356934 0.3 -17.8)">
      <g opacity="0.5">
        <g data-xfl-symbol="MovieClips/Symbol 900" />
      </g>
    </g>
  </g>
</svg>