<?xml version='1.0' encoding='utf-8'?>
<svg xmlns="http://www.w3.org/2000/svg" xmlns:xlink="http://www.w3.org/1999/xlink" version="1.1" width="550px" height="400px" viewBox="0 0 550 400" preserveAspectRatio="none" data-xfl-root="MovieClips/Symbol 901">
  <g data-xfl-symbol="MovieClips/Symbol 901">
    <g transform="matrix(1 0 0 1 14.6 -37.7)" data-xfl-instance="var_152">
      <g data-xfl-symbol="Parts/Feet/footMC">
        <g data-xfl-symbol="Graphics/Symbol 232">
          <g data-svg-leaf="graphics_symbol_232_71ce4a259c/t00_l000_f0000_r00.svg">
            <defs>
              <g id="xfl298_Layer0_0_FILL">
                <path fill="#1F2436" stroke="none" d=" M 16.25 29.1 L 15.35 29.35 0.5 30.35 Q -16.2 30.35 -22.65 27.75 -25.35 26.65 -26.45 25.15 L -26.55 25.55 Q -26.95 28.35 -25.65 30.4 -24.35 32.5 -21.3 33.95 L -20.85 33.5 -20.25 33.55 Q -19.6 33.65 -19.35 33.85 L -19.8 34.55 Q -15.75 36 -9.35 36.5 L -0.5 36.7 Q -0.3 36.3 0.05 36.25 L 0.55 36.45 0.65 36.55 Q 4.9 35.9 9.05 33.5 12.35 31.55 14.2 30.8 L 14 30.5 Q 15.2 29.9 16.25 29.1 M 56.65 14 L 54.95 13.4 56.35 14.95 Q 59.3 15.8 60.85 19.05 62.3 22.05 62.3 26 62.3 31.25 59.5 31.25 48.95 31.25 39.95 29.35 34.95 28.3 32.1 27.1 35.4 31.65 39.6 34.25 L 39.75 34.6 39.75 34.8 Q 41.8 35.65 43.6 36.7 L 47.5 36.7 Q 48.2 35.7 48.75 35.5 L 48.7 36.7 Q 61.7 36.6 67.35 35.1 L 67.4 33.85 68.3 33.85 68.65 34.7 Q 71.9 33.4 71.9 31 71.9 27.4 67.9 22.25 63.2 16.3 56.65 14 Z" />
              </g>
            </defs>
            <g transform="matrix( 1, 0, 0, 1, 0,0) ">
              <use xlink:href="#xfl298_Layer0_0_FILL" />
            </g>
          </g>
        </g>
        <g data-xfl-symbol="Graphics/Symbol 268">
          <g data-svg-leaf="graphics_symbol_268_103dc67bcf/t00_l002_f0000_r00.svg">
            <defs>
              <g id="xfl299_Layer0_0_FILL">
                <path fill="#000000" stroke="none" d=" M 2 -7 Q 4.55 -10.65 8 -11.7 11.1 -12.65 13.25 -11 8.9 -16.2 4.2 -12.3 1.5 -10.1 -0.45 -5.55 -2.25 -1.35 -2.25 1.6 -2.3 2.85 -2 4.1 L -6.5 4.3 Q -9.35 4.3 -11.4 1.05 L -12.9 -1.7 -12.35 -2 -12.6 -2.55 -13.3 -2.6 -13.5 -3 -14 -2.7 -14 -2.6 -15.15 -2.45 -14.85 -2.7 -16.35 -2.05 -16.45 -1.95 Q -21.9 0.9 -24.7 9.15 -27.25 16.65 -27.25 27.15 L -27.5 30.1 Q -27.45 31.45 -26.75 32.55 L -28 35.2 Q -29.15 38.3 -29.15 40.05 L -29.1 40.85 -28.9 41 Q -25.9 39.5 -23.05 37.4 L -21.3 36.05 -14.55 37.45 -14.6 37.6 Q -13.55 38.65 -12.55 40.35 L -11.35 42.5 -10.15 42.3 -9.75 42.1 -8.25 37.95 -4.55 38.1 -4.6 38.5 Q -2.3 44.15 -0.25 45.6 L 0.75 38 Q 5.05 37.45 9.1 35 14.15 31.85 21.35 31.85 25.75 31.85 34.8 34.7 L 40.7 36.65 39.75 36.6 40.6 37.25 41.1 37.25 41.5 39.9 Q 41.95 41.5 43.9 41.5 46.6 41.5 47.9 39.1 L 48.55 37.35 53.95 37.4 53.9 37.55 Q 58.4 45.6 58.9 45.6 L 59.75 45.45 59.65 41.8 Q 59.6 39.75 60.75 39.1 60.5 38.25 59 38.25 L 58.15 38.4 58.25 38.5 58.25 42.6 58 42.6 Q 57.8 41.05 56.55 39.15 L 55 37.45 63.15 37.65 65.1 40.7 Q 66.95 43.25 67.55 43.25 L 68.35 43.05 68.3 42.85 68.8 37.05 Q 70.5 36.3 71.65 34.75 73.15 32.75 73.15 31 73.15 25.05 68.45 20.2 L 65.5 17.55 Q 63 15.65 59.75 13.95 56.85 12.4 52.1 10.55 49.95 8.7 48.25 9 L 48.3 9.05 Q 37.9 5.1 20.85 -0.2 25.25 -2.85 30.15 -8.25 33.3 -11.7 36 -15.6 L 38.25 -19.3 Q 38.25 -21.3 33.95 -23 29 -24.95 24.5 -21.6 22.45 -20.1 21.25 -17.7 L 16.75 -5.25 15.9 -6.95 16.45 -4.55 15.8 -3.1 14.15 -2.25 13.6 -2.45 13.5 -2 13.6 -1.95 10 0.45 8.45 -0.1 Q 7.7 -0.55 7.25 -1.85 6.8 -1.8 6.55 -1.55 L 6.3 -1.35 6.25 -0.4 Q 6.25 0.35 8.15 1.25 L 8.3 1.35 Q 4.4 3.2 -0.4 3.9 L -0.75 1.5 Q -0.75 -3.1 2 -7 M 15.15 -1.95 L 14.75 -2.1 15.6 -2.7 15.15 -1.95 M 14.15 -1.7 L 14.8 -1.4 Q 13.4 0.55 12 0.55 L 10.65 0.5 14.15 -1.7 M 16.75 -1.55 L 16.75 -1.5 16.7 -1.5 16.75 -1.55 M 18.25 -2 L 18.1 -2.1 17.5 -3.65 21.25 -13.75 22.85 -17.15 Q 23.85 -19.1 24.85 -20.1 27.35 -22.7 32.1 -21.8 36.6 -21 36.6 -19.05 36.6 -15.25 29.65 -9.65 26.7 -7.25 21.05 -3.6 L 21.55 -4.75 Q 22.6 -7.15 22.6 -7.85 22.6 -8.65 22.3 -8.7 L 22 -8.6 Q 20.65 -7.4 19.95 -5.2 19.25 -2.95 18.25 -2 M 54.95 13.4 L 56.65 14 Q 63.2 16.3 67.9 22.25 71.9 27.4 71.9 31 71.9 33.4 68.65 34.7 L 68.3 33.85 67.4 33.85 67.35 35.1 Q 61.7 36.6 48.7 36.7 L 48.75 35.5 Q 48.2 35.7 47.5 36.7 L 43.6 36.7 Q 41.8 35.65 39.75 34.8 L 39.75 34.6 39.6 34.25 Q 35.4 31.65 32.1 27.1 34.95 28.3 39.95 29.35 48.95 31.25 59.5 31.25 62.3 31.25 62.3 26 62.3 22.05 60.85 19.05 59.3 15.8 56.35 14.95 L 54.95 13.4 M 57.5 17.5 Q 58.6 18.6 59.35 20.1 60.75 22.8 60.75 25.9 61.7 26.95 60.75 27.85 58.9 29.6 49.4 29.6 47.95 29.6 40.7 27.55 33.55 25.55 31 25.5 L 28.85 21.75 Q 26.65 17.45 25.5 15.85 L 24.75 14.9 24.75 14.55 24.45 13.25 23.75 12.3 23 12.3 22.8 12.45 22.75 12.95 Q 21.6 11.95 20.25 11.25 L 20.1 12 Q 20.1 13.25 20.35 12.55 21.5 13.35 22.7 15 22.3 22.7 18.4 27.15 L 18.35 27.2 18.35 27.1 Q 18.35 26.3 18.15 26.25 L 17.5 26.1 Q 16.25 26.25 16.3 26.65 16.4 27.25 16.15 27.4 L 0.5 28.35 Q -16.45 28.35 -22.35 25.8 -23.75 25.2 -25.1 24.1 -25.6 23.7 -26.05 23.5 L -25.9 22.3 Q -25.9 16.75 -23.15 9.3 -20.55 2.3 -16.95 -1.05 L -16.65 -0.9 -13.95 -1.3 Q -13.8 0.3 -12.9 1.65 -10.35 5.5 -2.25 5.5 L -1.6 5.5 Q -0.2 9.1 3.8 9.1 9.45 9.1 14 5.55 19.05 8.75 27 11.7 38.65 16.05 46.5 16.05 L 52 15.5 53.3 15.1 Q 55.9 17.5 57.4 17.5 L 57.5 17.5 M 50 11.6 L 52.15 14 47.15 14.75 Q 37.7 14.75 25.8 9.8 24.35 9.2 15.1 4.6 L 18.2 1.15 19.6 0.5 50 11.6 M 47.1 37.3 L 46.85 37.65 Q 45.75 39.55 43.6 40.25 L 41.85 37.25 42.45 37.25 43.1 37.5 44.15 37.3 47.1 37.3 M 67.15 37.55 L 66.8 40.1 64.05 37.7 65.05 37.75 67.15 37.55 M 21.65 22.4 L 24.15 17.15 28.35 25.45 Q 30.7 30.1 33.2 32.5 25.15 30.25 16 30.25 L 15.15 30.45 17.5 28.55 18.25 27.7 Q 19.95 25.65 21.65 22.4 M 13 2.25 L 15.45 2 13.75 3.75 11 2.1 13 2.25 M 8.8 1.55 L 9.9 2.4 9.85 2.5 12.65 4.7 Q 8.9 7.6 3.8 7.6 1.3 7.6 0.1 5.25 3.6 4.45 8.8 1.55 M 15.35 29.35 L 16.25 29.1 Q 15.2 29.9 14 30.5 L 14.2 30.8 Q 12.35 31.55 9.05 33.5 4.9 35.9 0.65 36.55 L 0.55 36.45 0.05 36.25 Q -0.3 36.3 -0.5 36.7 L -9.35 36.5 Q -15.75 36 -19.8 34.55 L -19.35 33.85 Q -19.6 33.65 -20.25 33.55 L -20.85 33.5 -21.3 33.95 Q -24.35 32.5 -25.65 30.4 -26.95 28.35 -26.55 25.55 L -26.45 25.15 Q -25.35 26.65 -22.65 27.75 -16.2 30.35 0.5 30.35 L 15.35 29.35 M -25.9 33.6 L -25.75 33.75 Q -24.7 34.7 -22.95 35.45 -25.45 37.65 -27.4 38.75 L -25.9 33.6 M -10.6 40 L -12.9 37.6 -9.8 37.85 -10.6 40 M -3.45 38.1 L -1.05 38.1 -1.1 38.4 Q -1.35 40 -1.25 41.85 L -1.5 41.85 -3.45 38.1 Z" />
                <path fill="#993300" stroke="none" d=" M 24.15 17.15 L 21.65 22.4 Q 19.95 25.65 18.25 27.7 L 17.5 28.55 15.15 30.45 16 30.25 Q 25.15 30.25 33.2 32.5 30.7 30.1 28.35 25.45 L 24.15 17.15 Z" />
                <path fill="#495583" stroke="none" d=" M 52.15 14 L 50 11.6 19.6 0.5 18.2 1.15 15.1 4.6 Q 24.35 9.2 25.8 9.8 37.7 14.75 47.15 14.75 L 52.15 14 Z" />
              </g>
            </defs>
            <g transform="matrix( 1, 0, 0, 1, 0,0) ">
              <use xlink:href="#xfl299_Layer0_0_FILL" />
            </g>
          </g>
          <g data-svg-leaf="graphics_symbol_268_103dc67bcf/t00_l001_f0000_r00.svg">
            <defs>
              <g id="xfl300_Layer0_0_FILL">
                <path fill="#000000" fill-opacity="0.25098039215686274" stroke="none" d=" M -16.95 -1.05 L -18.15 -0.5 -20.15 1.35 Q -21.4 2.6 -21.5 3.6 L -21.5 3.7 -22.35 6.3 Q -23.05 7.95 -24.6 8.75 L -23.65 10.7 Q -26.25 13.95 -26.65 25.05 -27.75 31.15 -22.5 34.5 -17.6 37.65 -8.95 37.7 -0.35 37.7 6.15 35.05 12.65 32.35 18.4 31.8 24.2 31.2 37.25 34.65 50.3 38.1 57.55 36.85 L 57.7 36.85 58.2 37 61.9 37.35 Q 68.6 37.35 71 35.05 72.45 33.6 72.45 30.5 L 72.35 29.4 72.3 29.8 72.2 29.75 72.4 28.3 Q 72.3 25.25 67.6 20.2 62.9 15.15 57.25 12.55 51.55 9.9 35.45 4.9 25.8 1.9 21.5 1.25 L 21.5 1.2 Q 20.9 0.5 19.55 0.6 18.3 0.7 18.2 1.3 L 18.15 1.35 Q 16.95 2.75 10.75 6.5 6.65 9 2.25 8.85 2.05 8.45 1.1 8.3 L 0.9 8.3 0 6.8 Q -0.85 5.3 -2.25 4.55 L -9.1 4.4 Q -10.7 3 -11.65 1.3 -14.15 -3.2 -15.5 -2.6 -16.85 -2.05 -16.95 -1.05 M -19.25 5.75 L -16.25 6.75 Q -9.25 8.8 -0.65 9.55 8 10.25 12.6 11.4 17.15 12.5 19.75 10.25 21.75 8.6 22.75 8.6 26.25 8.6 35.55 12.55 44.8 16.5 48.8 16.5 L 55.25 14.05 Q 58.7 14.05 60.75 16.6 62.85 19.2 62.85 23.6 L 62.7 30.6 Q 62.55 35 52.85 34.25 43.1 33.5 36.1 27.9 29.1 22.25 23.15 12.1 21.45 15.85 18.95 23.2 17.45 27.55 15.85 28.9 13.9 30.55 8.6 30.95 4.95 31.25 -8.25 31.25 -16.35 31.25 -18 28.15 -19.35 25.65 -19.35 13.05 L -19.25 5.75 M 61.85 35.95 L 61.95 36.6 59.55 36.5 61.85 35.95 Z" />
              </g>
            </defs>
            <g transform="matrix( 1, 0, 0, 1, 0,0) ">
              <use xlink:href="#xfl300_Layer0_0_FILL" />
            </g>
          </g>
          <g data-svg-leaf="graphics_symbol_268_103dc67bcf/t00_l000_f0000_r00.svg">
            <defs>
              <g id="xfl301_Layer0_0_FILL">
                <path fill="#FFFFFF" fill-opacity="0.25098039215686274" stroke="none" d=" M 52.6 26.25 L 53.3 21.3 Q 53.3 18.55 49.35 18.5 L 42.3 19 Q 38.25 19 31.4 15.15 24.6 11.25 21.4 11.25 20.3 11.25 18.75 13.8 17.05 16.55 12.95 17.05 9.4 17.5 9.9 19.6 10.4 21.65 6.85 22.9 3.3 24.15 -3.6 24.15 -10.55 24.1 -11.8 20.15 -12.7 14.05 -14.35 9.65 L -15 8.8 -15.75 12.45 Q -16.4 16.7 -16.4 22.05 -16.4 26.25 -12.5 28.4 -9.95 29.85 -7.75 29.85 -0.7 29.85 5.6 27.75 12.1 25.6 15.55 21.9 L 22.75 12.65 51.85 26.35 52.6 26.25 Z" />
              </g>
            </defs>
            <g transform="matrix( 1, 0, 0, 1, 0,0) ">
              <use xlink:href="#xfl301_Layer0_0_FILL" />
            </g>
          </g>
        </g>
      </g>
    </g>
    <g transform="matrix(1 0 0 1 33 -150.2)" data-xfl-instance="egg">
      <g data-xfl-symbol="MovieClips/Symbol 316">
        <g data-svg-leaf="movieclips_symbol_316_a9705345d0/t00_l003_f0000_r00.svg">
          <defs>
            <g id="xfl302_Layer0_0_FILL">
              <path fill="#000000" stroke="none" d=" M -50.05 -39.1 Q -57.55 -35.25 -67.35 -25.85 L -75.35 -13.55 Q -80.35 -5.25 -83.7 3.4 -92.85 27.25 -92.85 63.1 -92.85 98.05 -81.9 115.15 -69.6 134.45 -41.65 134.45 -8.2 134.45 10.5 116.35 28.9 98.5 28.9 67.2 28.9 47.6 21.65 24.45 17.9 12.45 12.95 0.1 7.55 -19.15 -1.25 -29.5 -13 -43.3 -31.9 -43.3 -41.85 -43.3 -50.05 -39.1 M -27.85 -38.1 Q -22.3 -38.1 -14.3 -31.6 -5.4 -24.35 2.2 -12.1 22 19.95 22 66.4 22 91.1 8.55 107.8 -7.6 127.85 -38.25 127.85 -70.5 127.85 -81.15 105.95 -85.45 97.1 -86.95 83.5 -87.95 74.35 -87.95 57.65 -87.95 43.55 -84.45 27.8 -80.65 10.5 -73.65 -3.45 -56.35 -38.1 -27.85 -38.1 Z" />
            </g>
          </defs>
          <g transform="matrix( 1, 0, 0, 1, 0,0) ">
            <use xlink:href="#xfl302_Layer0_0_FILL" />
          </g>
        </g>
        <g data-xfl-symbol="Graphics/Symbol 315">
          <g data-svg-leaf="graphics_symbol_315_522ba07b24/t00_l001_f0000_r00.svg">
            <defs>
              <g id="xfl303_Layer0_0_FILL">
                <path fill="#000000" stroke="none" d=" M 72.05 -64.85 Q 73.65 -64.3 74.9 -62.05 75.8 -60.5 80.75 -60.5 88.05 -60.5 90 -64.3 91 -66.2 90.55 -68.3 90.55 -74.6 88 -77.85 85.75 -80.7 82 -80.7 78.25 -80.7 75.1 -79.2 69.95 -76.7 69.2 -70.95 L 59.45 -71.5 Q 30.1 -71.5 11.3 -51.55 4.85 -44.65 0.75 -36.55 -2.5 -30.05 -2.5 -27 -2.5 -23.8 -0.15 -23.5 L 3.1 -29.95 Q 6.05 -36.25 8.8 -40.45 18.15 -55 32.15 -58.3 35.45 -59.05 50.25 -63.7 64.85 -67.45 72.05 -64.85 M 79.85 -66 Q 77.35 -66 75.55 -67.35 73.8 -68.7 73.8 -70.65 73.8 -72.6 75.55 -73.95 77.35 -75.3 79.85 -75.3 82.35 -75.3 84.1 -73.95 85.9 -72.6 85.9 -70.65 85.9 -68.7 84.1 -67.35 82.35 -66 79.85 -66 Z" />
              </g>
            </defs>
            <g transform="matrix( 1, 0, 0, 1, 0,0) ">
              <use xlink:href="#xfl303_Layer0_0_FILL" />
            </g>
          </g>
          <g data-svg-leaf="graphics_symbol_315_522ba07b24/t00_l000_f0000_r00.svg">
            <defs>
              <g id="xfl304_Layer0_0_FILL">
                <path fill="#000000" stroke="none" d=" M 27.9 -107.9 Q 27 -106.95 24.95 -102.45 20.65 -92.75 6.95 -87.45 -15.55 -72.4 -27.5 -51.05 -37.95 -32.5 -35.45 -20.1 -33.8 -17.2 -32 -15.5 -30.3 -16.45 -27.35 -27.8 -25.85 -33.55 -24.6 -39.75 -23.55 -44.9 -17.95 -53.55 -12.25 -62.4 -7.05 -66.65 L 27.15 -93.15 34.7 -91.5 Q 43.9 -91.5 45.65 -95.35 46.2 -96.55 45.5 -99.95 44.5 -105 41.35 -107.65 38.55 -110.05 34.7 -110.05 29.95 -110.05 27.9 -107.9 M 30.65 -103.55 Q 31.95 -104.75 34.2 -104.75 36.45 -104.75 38.3 -103.55 40.05 -102.4 40.4 -100.75 40.75 -99.1 39.4 -97.9 38.05 -96.75 35.8 -96.75 33.55 -96.75 31.75 -97.9 29.95 -99.1 29.6 -100.75 29.25 -102.4 30.65 -103.55 Z" />
              </g>
            </defs>
            <g transform="matrix( 1, 0, 0, 1, 0,0) ">
              <use xlink:href="#xfl304_Layer0_0_FILL" />
            </g>
          </g>
        </g>
      </g>
    </g>
    <g transform="matrix(1 0 0 1 -59.35 -35.7)" data-xfl-instance="var_165">
      <g data-xfl-symbol="Parts/Feet/footMC">
        <g data-xfl-symbol="Graphics/Symbol 232">
          <g data-svg-leaf="graphics_symbol_232_71ce4a259c/t00_l000_f0000_r00.svg">
            <defs>
              <g id="xfl305_Layer0_0_FILL">
                <path fill="#1F2436" stroke="none" d=" M 16.25 29.1 L 15.35 29.35 0.5 30.35 Q -16.2 30.35 -22.65 27.75 -25.35 26.65 -26.45 25.15 L -26.55 25.55 Q -26.95 28.35 -25.65 30.4 -24.35 32.5 -21.3 33.95 L -20.85 33.5 -20.25 33.55 Q -19.6 33.65 -19.35 33.85 L -19.8 34.55 Q -15.75 36 -9.35 36.5 L -0.5 36.7 Q -0.3 36.3 0.05 36.25 L 0.55 36.45 0.65 36.55 Q 4.9 35.9 9.05 33.5 12.35 31.55 14.2 30.8 L 14 30.5 Q 15.2 29.9 16.25 29.1 M 56.65 14 L 54.95 13.4 56.35 14.95 Q 59.3 15.8 60.85 19.05 62.3 22.05 62.3 26 62.3 31.25 59.5 31.25 48.95 31.25 39.95 29.35 34.95 28.3 32.1 27.1 35.4 31.65 39.6 34.25 L 39.75 34.6 39.75 34.8 Q 41.8 35.65 43.6 36.7 L 47.5 36.7 Q 48.2 35.7 48.75 35.5 L 48.7 36.7 Q 61.7 36.6 67.35 35.1 L 67.4 33.85 68.3 33.85 68.65 34.7 Q 71.9 33.4 71.9 31 71.9 27.4 67.9 22.25 63.2 16.3 56.65 14 Z" />
              </g>
            </defs>
            <g transform="matrix( 1, 0, 0, 1, 0,0) ">
              <use xlink:href="#xfl305_Layer0_0_FILL" />
            </g>
          </g>
        </g>
        <g data-xfl-symbol="Graphics/Symbol 268">
          <g data-svg-leaf="graphics_symbol_268_103dc67bcf/t00_l002_f0000_r00.svg">
            <defs>
              <g id="xfl306_Layer0_0_FILL">
                <path fill="#000000" stroke="none" d=" M 2 -7 Q 4.55 -10.65 8 -11.7 11.1 -12.65 13.25 -11 8.9 -16.2 4.2 -12.3 1.5 -10.1 -0.45 -5.55 -2.25 -1.35 -2.25 1.6 -2.3 2.85 -2 4.1 L -6.5 4.3 Q -9.35 4.3 -11.4 1.05 L -12.9 -1.7 -12.35 -2 -12.6 -2.55 -13.3 -2.6 -13.5 -3 -14 -2.7 -14 -2.6 -15.15 -2.45 -14.85 -2.7 -16.35 -2.05 -16.45 -1.95 Q -21.9 0.9 -24.7 9.15 -27.25 16.65 -27.25 27.15 L -27.5 30.1 Q -27.45 31.45 -26.75 32.55 L -28 35.2 Q -29.15 38.3 -29.15 40.05 L -29.1 40.85 -28.9 41 Q -25.9 39.5 -23.05 37.4 L -21.3 36.05 -14.55 37.45 -14.6 37.6 Q -13.55 38.65 -12.55 40.35 L -11.35 42.5 -10.15 42.3 -9.75 42.1 -8.25 37.95 -4.55 38.1 -4.6 38.5 Q -2.3 44.15 -0.25 45.6 L 0.75 38 Q 5.05 37.45 9.1 35 14.15 31.85 21.35 31.85 25.75 31.85 34.8 34.7 L 40.7 36.65 39.75 36.6 40.6 37.25 41.1 37.25 41.5 39.9 Q 41.95 41.5 43.9 41.5 46.6 41.5 47.9 39.1 L 48.55 37.35 53.95 37.4 53.9 37.55 Q 58.4 45.6 58.9 45.6 L 59.75 45.45 59.65 41.8 Q 59.6 39.75 60.75 39.1 60.5 38.25 59 38.25 L 58.15 38.4 58.25 38.5 58.25 42.6 58 42.6 Q 57.8 41.05 56.55 39.15 L 55 37.45 63.15 37.65 65.1 40.7 Q 66.95 43.25 67.55 43.25 L 68.35 43.05 68.3 42.85 68.8 37.05 Q 70.5 36.3 71.65 34.75 73.15 32.75 73.15 31 73.15 25.05 68.45 20.2 L 65.5 17.55 Q 63 15.65 59.75 13.95 56.85 12.4 52.1 10.55 49.95 8.7 48.25 9 L 48.3 9.05 Q 37.9 5.1 20.85 -0.2 25.25 -2.85 30.15 -8.25 33.3 -11.7 36 -15.6 L 38.25 -19.3 Q 38.25 -21.3 33.95 -23 29 -24.95 24.5 -21.6 22.45 -20.1 21.25 -17.7 L 16.75 -5.25 15.9 -6.95 16.45 -4.55 15.8 -3.1 14.15 -2.25 13.6 -2.45 13.5 -2 13.6 -1.95 10 0.45 8.45 -0.1 Q 7.7 -0.55 7.25 -1.85 6.8 -1.8 6.55 -1.55 L 6.3 -1.35 6.25 -0.4 Q 6.25 0.35 8.15 1.25 L 8.3 1.35 Q 4.4 3.2 -0.4 3.9 L -0.75 1.5 Q -0.75 -3.1 2 -7 M 15.15 -1.95 L 14.75 -2.1 15.6 -2.7 15.15 -1.95 M 14.15 -1.7 L 14.8 -1.4 Q 13.4 0.55 12 0.55 L 10.65 0.5 14.15 -1.7 M 16.75 -1.55 L 16.75 -1.5 16.7 -1.5 16.75 -1.55 M 18.25 -2 L 18.1 -2.1 17.5 -3.65 21.25 -13.75 22.85 -17.15 Q 23.85 -19.1 24.85 -20.1 27.35 -22.7 32.1 -21.8 36.6 -21 36.6 -19.05 36.6 -15.25 29.65 -9.65 26.7 -7.25 21.05 -3.6 L 21.55 -4.75 Q 22.6 -7.15 22.6 -7.85 22.6 -8.65 22.3 -8.7 L 22 -8.6 Q 20.65 -7.4 19.95 -5.2 19.25 -2.95 18.25 -2 M 54.95 13.4 L 56.65 14 Q 63.2 16.3 67.9 22.25 71.9 27.4 71.9 31 71.9 33.4 68.65 34.7 L 68.3 33.85 67.4 33.85 67.35 35.1 Q 61.7 36.6 48.7 36.7 L 48.75 35.5 Q 48.2 35.7 47.5 36.7 L 43.6 36.7 Q 41.8 35.65 39.75 34.8 L 39.75 34.6 39.6 34.25 Q 35.4 31.65 32.1 27.1 34.95 28.3 39.95 29.35 48.95 31.25 59.5 31.25 62.3 31.25 62.3 26 62.3 22.05 60.85 19.05 59.3 15.8 56.35 14.95 L 54.95 13.4 M 57.5 17.5 Q 58.6 18.6 59.35 20.1 60.75 22.8 60.75 25.9 61.7 26.95 60.75 27.85 58.9 29.6 49.4 29.6 47.95 29.6 40.7 27.55 33.55 25.55 31 25.5 L 28.85 21.75 Q 26.65 17.45 25.5 15.85 L 24.75 14.9 24.75 14.55 24.45 13.25 23.75 12.3 23 12.3 22.8 12.45 22.75 12.95 Q 21.6 11.95 20.25 11.25 L 20.1 12 Q 20.1 13.25 20.35 12.55 21.5 13.35 22.7 15 22.3 22.7 18.4 27.15 L 18.35 27.2 18.35 27.1 Q 18.35 26.3 18.15 26.25 L 17.5 26.1 Q 16.25 26.25 16.3 26.65 16.4 27.25 16.15 27.4 L 0.5 28.35 Q -16.45 28.35 -22.35 25.8 -23.75 25.2 -25.1 24.1 -25.6 23.7 -26.05 23.5 L -25.9 22.3 Q -25.9 16.75 -23.15 9.3 -20.55 2.3 -16.95 -1.05 L -16.65 -0.9 -13.95 -1.3 Q -13.8 0.3 -12.9 1.65 -10.35 5.5 -2.25 5.5 L -1.6 5.5 Q -0.2 9.1 3.8 9.1 9.45 9.1 14 5.55 19.05 8.75 27 11.7 38.65 16.05 46.5 16.05 L 52 15.5 53.3 15.1 Q 55.9 17.5 57.4 17.5 L 57.5 17.5 M 50 11.6 L 52.15 14 47.15 14.75 Q 37.7 14.75 25.8 9.8 24.35 9.2 15.1 4.6 L 18.2 1.15 19.6 0.5 50 11.6 M 47.1 37.3 L 46.85 37.65 Q 45.75 39.55 43.6 40.25 L 41.85 37.25 42.45 37.25 43.1 37.5 44.15 37.3 47.1 37.3 M 67.15 37.55 L 66.8 40.1 64.05 37.7 65.05 37.75 67.15 37.55 M 21.65 22.4 L 24.15 17.15 28.35 25.45 Q 30.7 30.1 33.2 32.5 25.15 30.25 16 30.25 L 15.15 30.45 17.5 28.55 18.25 27.7 Q 19.95 25.65 21.65 22.4 M 13 2.25 L 15.45 2 13.75 3.75 11 2.1 13 2.25 M 8.8 1.55 L 9.9 2.4 9.85 2.5 12.65 4.7 Q 8.9 7.6 3.8 7.6 1.3 7.6 0.1 5.25 3.6 4.45 8.8 1.55 M 15.35 29.35 L 16.25 29.1 Q 15.2 29.9 14 30.5 L 14.2 30.8 Q 12.35 31.55 9.05 33.5 4.9 35.9 0.65 36.55 L 0.55 36.45 0.05 36.25 Q -0.3 36.3 -0.5 36.7 L -9.35 36.5 Q -15.75 36 -19.8 34.55 L -19.35 33.85 Q -19.6 33.65 -20.25 33.55 L -20.85 33.5 -21.3 33.95 Q -24.35 32.5 -25.65 30.4 -26.95 28.35 -26.55 25.55 L -26.45 25.15 Q -25.35 26.65 -22.65 27.75 -16.2 30.35 0.5 30.35 L 15.35 29.35 M -25.9 33.6 L -25.75 33.75 Q -24.7 34.7 -22.95 35.45 -25.45 37.65 -27.4 38.75 L -25.9 33.6 M -10.6 40 L -12.9 37.6 -9.8 37.85 -10.6 40 M -3.45 38.1 L -1.05 38.1 -1.1 38.4 Q -1.35 40 -1.25 41.85 L -1.5 41.85 -3.45 38.1 Z" />
                <path fill="#993300" stroke="none" d=" M 24.15 17.15 L 21.65 22.4 Q 19.95 25.65 18.25 27.7 L 17.5 28.55 15.15 30.45 16 30.25 Q 25.15 30.25 33.2 32.5 30.7 30.1 28.35 25.45 L 24.15 17.15 Z" />
                <path fill="#495583" stroke="none" d=" M 52.15 14 L 50 11.6 19.6 0.5 18.2 1.15 15.1 4.6 Q 24.35 9.2 25.8 9.8 37.7 14.75 47.15 14.75 L 52.15 14 Z" />
              </g>
            </defs>
            <g transform="matrix( 1, 0, 0, 1, 0,0) ">
              <use xlink:href="#xfl306_Layer0_0_FILL" />
            </g>
          </g>
          <g data-svg-leaf="graphics_symbol_268_103dc67bcf/t00_l001_f0000_r00.svg">
            <defs>
              <g id="xfl307_Layer0_0_FILL">
                <path fill="#000000" fill-opacity="0.25098039215686274" stroke="none" d=" M -16.95 -1.05 L -18.15 -0.5 -20.15 1.35 Q -21.4 2.6 -21.5 3.6 L -21.5 3.7 -22.35 6.3 Q -23.05 7.95 -24.6 8.75 L -23.65 10.7 Q -26.25 13.95 -26.65 25.05 -27.75 31.15 -22.5 34.5 -17.6 37.65 -8.95 37.7 -0.35 37.7 6.15 35.05 12.65 32.35 18.4 31.8 24.2 31.2 37.25 34.65 50.3 38.1 57.55 36.85 L 57.7 36.85 58.2 37 61.9 37.35 Q 68.6 37.35 71 35.05 72.45 33.6 72.45 30.5 L 72.35 29.4 72.3 29.8 72.2 29.75 72.4 28.3 Q 72.3 25.25 67.6 20.2 62.9 15.15 57.25 12.55 51.55 9.9 35.45 4.9 25.8 1.9 21.5 1.25 L 21.5 1.2 Q 20.9 0.5 19.55 0.6 18.3 0.7 18.2 1.3 L 18.15 1.35 Q 16.95 2.75 10.75 6.5 6.65 9 2.25 8.85 2.05 8.45 1.1 8.3 L 0.9 8.3 0 6.8 Q -0.85 5.3 -2.25 4.55 L -9.1 4.4 Q -10.7 3 -11.65 1.3 -14.15 -3.2 -15.5 -2.6 -16.85 -2.05 -16.95 -1.05 M -19.25 5.75 L -16.25 6.75 Q -9.25 8.8 -0.65 9.55 8 10.25 12.6 11.4 17.15 12.5 19.75 10.25 21.75 8.6 22.75 8.6 26.25 8.6 35.55 12.55 44.8 16.5 48.8 16.5 L 55.25 14.05 Q 58.7 14.05 60.75 16.6 62.85 19.2 62.85 23.6 L 62.7 30.6 Q 62.55 35 52.85 34.25 43.1 33.5 36.1 27.9 29.1 22.25 23.15 12.1 21.45 15.85 18.95 23.2 17.45 27.55 15.85 28.9 13.9 30.55 8.6 30.95 4.95 31.25 -8.25 31.25 -16.35 31.25 -18 28.15 -19.35 25.65 -19.35 13.05 L -19.25 5.75 M 61.85 35.95 L 61.95 36.6 59.55 36.5 61.85 35.95 Z" />
              </g>
            </defs>
            <g transform="matrix( 1, 0, 0, 1, 0,0) ">
              <use xlink:href="#xfl307_Layer0_0_FILL" />
            </g>
          </g>
          <g data-svg-leaf="graphics_symbol_268_103dc67bcf/t00_l000_f0000_r00.svg">
            <defs>
              <g id="xfl308_Layer0_0_FILL">
                <path fill="#FFFFFF" fill-opacity="0.25098039215686274" stroke="none" d=" M 52.6 26.25 L 53.3 21.3 Q 53.3 18.55 49.35 18.5 L 42.3 19 Q 38.25 19 31.4 15.15 24.6 11.25 21.4 11.25 20.3 11.25 18.75 13.8 17.05 16.55 12.95 17.05 9.4 17.5 9.9 19.6 10.4 21.65 6.85 22.9 3.3 24.15 -3.6 24.15 -10.55 24.1 -11.8 20.15 -12.7 14.05 -14.35 9.65 L -15 8.8 -15.75 12.45 Q -16.4 16.7 -16.4 22.05 -16.4 26.25 -12.5 28.4 -9.95 29.85 -7.75 29.85 -0.7 29.85 5.6 27.75 12.1 25.6 15.55 21.9 L 22.75 12.65 51.85 26.35 52.6 26.25 Z" />
              </g>
            </defs>
            <g transform="matrix( 1, 0, 0, 1, 0,0) ">
              <use xlink:href="#xfl308_Layer0_0_FILL" />
            </g>
          </g>
        </g>
      </g>
    </g>
  </g>
</svg>