<?xml version='1.0' encoding='utf-8'?>
<svg xmlns="http://www.w3.org/2000/svg" xmlns:xlink="http://www.w3.org/1999/xlink" version="1.1" width="550px" height="400px" viewBox="0 0 550 400" preserveAspectRatio="none" data-xfl-root="MovieClips/Symbol 901">
  <g data-xfl-symbol="MovieClips/Symbol 901">
    <g transform="matrix(1 0 0 1 14.6 -37.7)" data-xfl-instance="var_152">
      <g data-xfl-symbol="Parts/Feet/footMC">
        <g data-xfl-symbol="Graphics/Symbol 269">
          <g data-svg-leaf="graphics_symbol_269_47dd5a5b45/t00_l003_f0000_r00.svg">
            <defs>
              <g id="xfl309_Layer0_0_FILL">
                <path fill="#000000" stroke="none" d=" M 0.2 20.9 Q 0.15 23.2 1.3 24.55 L -19.25 25.85 -19.25 37.1 Q -18.75 37.75 -18.6 38.4 -18.4 38.75 -17 38.75 -0.4 37 17.3 37 22.2 37 23.65 33 24.25 31.25 24.25 26.05 24.25 22.2 23.65 21.7 L 19 21.85 1.85 24.5 2.25 23.85 Q 1.95 22.25 1.8 19.95 L 1.55 16.3 0.5 16.25 0.2 16.4 -0.25 17 Q 0.25 18 0.2 20.9 M 19.25 36.1 L 15.5 35.75 -17.25 37.1 -17.35 36.75 -17.75 31.5 -17.5 27 22.1 23.1 Q 22.75 24.3 22.75 25.9 L 22.5 29.65 Q 22.2 32.7 21.75 34.35 21.3 36.15 19.25 36.1 M 7.15 -5.65 L 3.25 -5.8 -13.25 -4.25 -22.85 -2.85 -23 -2.9 -23 -2.25 -21.2 4.5 Q -19.25 11.65 -18.85 15 L -12.5 15.05 Q 14.9 15.05 21.45 13.3 23.7 12.7 23.7 11.85 L 23.25 10.6 Q 23.25 8.45 22.65 6.45 L 22 3.45 33 4.75 Q 34.25 4.75 33.8 4.1 L 35.8 4.6 Q 32.6 9.2 32.6 15.4 32.6 16.6 33.55 19.85 34.8 24.25 36.9 28 43.3 39.35 54.3 39.35 68.25 39.35 74.8 30.85 78.8 25.65 78.8 20.75 78.8 8.65 71.6 1.75 65.2 -4.35 55.7 -4.65 46.45 -4.9 39.8 0.35 37.95 1.8 36.6 3.5 L 36.25 3.5 36.3 3.55 36.35 3.55 36.5 3.65 36.45 3.7 31.75 2.8 Q 30.2 2.2 28.05 2.3 L 25.85 2.65 23.75 2.6 22.3 2.8 21.9 2.8 21.75 1.55 Q 21.65 0.65 21.7 -0.65 21.75 -2.8 21.2 -4.85 20.6 -6.9 18.25 -6.85 L 12.3 -6.75 Q 8.7 -6.7 7.15 -5.65 M 6.65 -3.95 L 20.1 -3.6 20.95 2.75 19.05 2.7 19.05 3.25 21.05 3.4 21.05 3.45 Q 21.75 8.05 21.75 10.15 L 21.6 12.05 4.95 12.1 Q -4.65 12.2 -11.85 13.75 L -17.85 13.55 -19.2 6.25 Q -20 1.7 -21.35 -1 L -4.25 -3.45 -4.15 -3.15 -3.75 -3.15 6.65 -3.95 M 63.65 16.85 Q 63.65 15.55 61.8 14.4 60 13.25 57.75 12.95 L 57.15 12.9 50.1 8.9 Q 42.7 4.9 38.9 3.85 L 40 2.5 Q 39.75 2.05 38.75 2.05 63 -7.8 72.4 4.1 77.3 10.35 77.3 20.85 77 25.4 74.05 29.5 68.25 37.6 55.05 37.6 44.5 37.6 38.5 27.25 36.5 23.8 35.3 19.75 34.4 16.75 34.4 15.6 34.4 11.85 35.65 9.05 36.45 7.1 38.35 4.6 L 53.85 13.25 Q 51.8 14.2 51.8 17.15 51.8 17.95 52.95 18.75 54.8 20.1 58.75 20.1 61 20.1 62.4 19 63.65 18.05 63.65 16.85 M 61.9 17.85 L 61.85 17.9 61.8 17.85 61.9 17.85 Z" />
              </g>
            </defs>
            <g transform="matrix( 1, 0, 0, 1, 0,0) ">
              <use xlink:href="#xfl309_Layer0_0_FILL" />
            </g>
          </g>
          <g data-svg-leaf="graphics_symbol_269_47dd5a5b45/t00_l002_f0000_r00.svg">
            <defs>
              <g id="xfl310_Layer0_0_FILL">
                <path fill="#000000" fill-opacity="0.25098039215686274" stroke="none" d=" M -6.4 37.4 L -6.4 25.85 -17.9 25.85 -17.9 37.4 -6.4 37.4 M -14.2 -3.5 Q -19.4 -3.6 -21.55 -1.7 -23.7 0.2 -18.9 7.7 L -18.25 13.95 Q -18.15 14.6 -11.3 13.9 L -9.05 13.9 -9.2 5.2 Q -9.6 1.45 -10.9 -2.5 L -8.8 -3 -14.2 -3.5 M 8.9 36.3 Q 13.75 36.45 19.25 36.1 23.45 36.2 22.35 28.05 L 22.35 21.85 Q 21.35 21.75 15.45 23.1 L 7.1 25.05 8.9 25.25 Q 9.2 32.65 8.9 36.3 M 77.95 20.1 Q 78.75 13.4 73.75 5.1 68.75 -3.25 56.3 -3.75 43.85 -4.25 38.7 1.7 33.5 7.6 33.35 16.3 33.15 24.95 40.35 32 47.35 38.8 57.7 38.5 68.05 38.15 72.55 32.5 77.05 26.8 77.95 20.1 M 69.6 4.8 Q 75 9.95 75 17.25 75 24.55 69.6 29.7 64.2 34.85 56.55 34.85 48.9 34.85 43.5 29.7 38.1 24.55 38.1 17.25 38.1 9.95 43.5 4.8 48.9 -0.35 56.55 -0.35 64.2 -0.35 69.6 4.8 M 68.3 17.2 Q 68.3 13.65 65.2 11.15 62.05 8.65 57.6 8.65 53.15 8.65 50.05 11.15 46.9 13.65 46.9 17.2 46.9 20.75 50.05 23.25 53.15 25.75 57.6 25.75 62.05 25.75 65.2 23.25 68.3 20.75 68.3 17.2 M 11.75 -5.25 L 7.8 -4.65 5.65 -4.1 Q 6.35 -1.35 7.1 6.8 7.6 12.55 8.65 12.55 15.75 12.8 18.15 12.55 L 22.8 12.05 23 11.9 Q 22.75 11 21.85 5.25 20.8 -1.45 20.55 -4.85 L 11.75 -5.25 Z" />
              </g>
            </defs>
            <g transform="matrix( 1, 0, 0, 1, 0,0) ">
              <use xlink:href="#xfl310_Layer0_0_FILL" />
            </g>
          </g>
          <g data-svg-leaf="graphics_symbol_269_47dd5a5b45/t00_l001_f0000_r00.svg">
            <defs>
              <g id="xfl311_Layer0_0_FILL">
                <path fill="#FFFFFF" fill-opacity="0.25098039215686274" stroke="none" d=" M 71.75 14.7 Q 71.75 10.65 68.25 7.4 63.65 3.1 54.65 3.1 46.45 3.1 43.5 6.7 41.5 9.15 41.5 14.65 41.5 23.2 46.05 27.3 49.2 30.15 52.95 30.15 62.35 30.15 66.5 27.35 71.75 23.85 71.75 14.7 M 69.45 16.5 Q 69.45 21.1 65.8 24.4 62.1 27.65 56.9 27.65 51.7 27.65 48.05 24.4 44.35 21.1 44.35 16.5 44.35 11.9 48.05 8.65 51.7 5.35 56.9 5.35 62.1 5.35 65.8 8.65 69.45 11.9 69.45 16.5 M -1.9 24.6 L -1.9 36 5.35 36 5.35 24.6 -1.9 24.6 M -5.75 -2.9 L -6.95 -2.05 Q -6.45 7.05 -5 11.2 -4.05 14 -2.9 14 L 4 12.45 4 8.15 0.35 -3.5 Q -0.6 -3.85 -1.05 -4.2 L -1.95 -4.95 -2.35 -4.85 -2.5 -4.1 -2.45 -3.4 Q -4.25 -3.7 -5.75 -2.9 M -5.05 -3.1 L -4.9 -3 -5.15 -2.85 -5.05 -3.1 Z" />
              </g>
            </defs>
            <g transform="matrix( 1, 0, 0, 1, 0,0) ">
              <use xlink:href="#xfl311_Layer0_0_FILL" />
            </g>
          </g>
          <g data-svg-leaf="graphics_symbol_269_47dd5a5b45/t00_l000_f0000_r00.svg">
            <defs>
              <g id="xfl312_Layer0_0_FILL">
                <path fill="#FFFFFF" stroke="none" d=" M 16.7 23.5 L 11.4 23.9 11.4 24.3 Q 15.4 25.55 19.75 25.55 21 25.55 21.1 25.15 L 21 25 21.25 24.75 21.2 27.95 Q 21.15 30 22 31.25 L 22.55 30.9 22.8 27.05 Q 22.8 24.35 22.25 22.9 18.3 23.9 16.7 23.5 M 59.05 -1.85 L 59.05 -1.3 59.8 -0.9 61 -0.55 Q 60.3 0.05 61.1 0.75 L 62.25 2 Q 60.95 1.5 60.3 1.5 L 59.85 1.6 59.8 1.8 59.85 2.25 63.2 4.6 Q 65.9 6.5 66.95 6.5 67.55 6.5 67.5 6.25 L 67.45 5.55 Q 67.4 5.2 67.5 5.1 L 70.8 8.05 71.25 8 71.6 7.4 71.8 6.6 Q 71.8 6.15 70.35 4.25 68.75 2.15 67.5 1.5 L 64.25 -1.1 Q 61.95 -2.65 61.1 -2.5 L 61.05 -2.25 62 -1.1 59.55 -2 59.1 -1.9 59.05 -1.85 M 7.75 -3.85 Q 7.75 -3.5 7.9 -3.35 L 8 -3.15 17.25 -2.65 17.6 1.85 Q 17.95 4.5 19 4.5 19.65 4.5 19.55 4.25 L 19.55 -1.9 19.75 -1.6 19.85 -0.25 19.75 3.3 Q 19.85 5.5 20.75 6.75 L 21.25 6.5 21.3 4.7 Q 21.55 2.3 21.25 -0.05 20.65 -4.8 17.75 -4.8 17.2 -4.8 17.1 -4.4 17 -4 15.95 -4 15 -4 11.65 -4.9 L 8.15 -5.55 Q 8.55 -5.2 9.25 -4.9 L 10.65 -4.4 Q 7.75 -4.4 7.75 -3.85 Z" />
              </g>
            </defs>
            <g transform="matrix( 1, 0, 0, 1, 0,0) ">
              <use xlink:href="#xfl312_Layer0_0_FILL" />
            </g>
          </g>
        </g>
      </g>
    </g>
    <g transform="matrix(1 0 0 1 33 -150.2)" data-xfl-instance="egg">
      <g data-xfl-symbol="MovieClips/Symbol 316">
        <g data-svg-leaf="movieclips_symbol_316_a9705345d0/t00_l003_f0000_r00.svg">
          <defs>
            <g id="xfl313_Layer0_0_FILL">
              <path fill="#000000" stroke="none" d=" M -50.05 -39.1 Q -57.55 -35.25 -67.35 -25.85 L -75.35 -13.55 Q -80.35 -5.25 -83.7 3.4 -92.85 27.25 -92.85 63.1 -92.85 98.05 -81.9 115.15 -69.6 134.45 -41.65 134.45 -8.2 134.45 10.5 116.35 28.9 98.5 28.9 67.2 28.9 47.6 21.65 24.45 17.9 12.45 12.95 0.1 7.55 -19.15 -1.25 -29.5 -13 -43.3 -31.9 -43.3 -41.85 -43.3 -50.05 -39.1 M -27.85 -38.1 Q -22.3 -38.1 -14.3 -31.6 -5.4 -24.35 2.2 -12.1 22 19.95 22 66.4 22 91.1 8.55 107.8 -7.6 127.85 -38.25 127.85 -70.5 127.85 -81.15 105.95 -85.45 97.1 -86.95 83.5 -87.95 74.35 -87.95 57.65 -87.95 43.55 -84.45 27.8 -80.65 10.5 -73.65 -3.45 -56.35 -38.1 -27.85 -38.1 Z" />
            </g>
          </defs>
          <g transform="matrix( 1, 0, 0, 1, 0,0) ">
            <use xlink:href="#xfl313_Layer0_0_FILL" />
          </g>
        </g>
        <g data-xfl-symbol="Graphics/Symbol 315">
          <g data-svg-leaf="graphics_symbol_315_522ba07b24/t00_l001_f0000_r00.svg">
            <defs>
              <g id="xfl314_Layer0_0_FILL">
                <path fill="#000000" stroke="none" d=" M 72.05 -64.85 Q 73.65 -64.3 74.9 -62.05 75.8 -60.5 80.75 -60.5 88.05 -60.5 90 -64.3 91 -66.2 90.55 -68.3 90.55 -74.6 88 -77.85 85.75 -80.7 82 -80.7 78.25 -80.7 75.1 -79.2 69.95 -76.7 69.2 -70.95 L 59.45 -71.5 Q 30.1 -71.5 11.3 -51.55 4.85 -44.65 0.75 -36.55 -2.5 -30.05 -2.5 -27 -2.5 -23.8 -0.15 -23.5 L 3.1 -29.95 Q 6.05 -36.25 8.8 -40.45 18.15 -55 32.15 -58.3 35.45 -59.05 50.25 -63.7 64.85 -67.45 72.05 -64.85 M 79.85 -66 Q 77.35 -66 75.55 -67.35 73.8 -68.7 73.8 -70.65 73.8 -72.6 75.55 -73.95 77.35 -75.3 79.85 -75.3 82.35 -75.3 84.1 -73.95 85.9 -72.6 85.9 -70.65 85.9 -68.7 84.1 -67.35 82.35 -66 79.85 -66 Z" />
              </g>
            </defs>
            <g transform="matrix( 1, 0, 0, 1, 0,0) ">
              <use xlink:href="#xfl314_Layer0_0_FILL" />
            </g>
          </g>
          <g data-svg-leaf="graphics_symbol_315_522ba07b24/t00_l000_f0000_r00.svg">
            <defs>
              <g id="xfl315_Layer0_0_FILL">
                <path fill="#000000" stroke="none" d=" M 27.9 -107.9 Q 27 -106.95 24.95 -102.45 20.65 -92.75 6.95 -87.45 -15.55 -72.4 -27.5 -51.05 -37.95 -32.5 -35.45 -20.1 -33.8 -17.2 -32 -15.5 -30.3 -16.45 -27.35 -27.8 -25.85 -33.55 -24.6 -39.75 -23.55 -44.9 -17.95 -53.55 -12.25 -62.4 -7.05 -66.65 L 27.15 -93.15 34.7 -91.5 Q 43.9 -91.5 45.65 -95.35 46.2 -96.55 45.5 -99.95 44.5 -105 41.35 -107.65 38.55 -110.05 34.7 -110.05 29.95 -110.05 27.9 -107.9 M 30.65 -103.55 Q 31.95 -104.75 34.2 -104.75 36.45 -104.75 38.3 -103.55 40.05 -102.4 40.4 -100.75 40.75 -99.1 39.4 -97.9 38.05 -96.75 35.8 -96.75 33.55 -96.75 31.75 -97.9 29.95 -99.1 29.6 -100.75 29.25 -102.4 30.65 -103.55 Z" />
              </g>
            </defs>
            <g transform="matrix( 1, 0, 0, 1, 0,0) ">
              <use xlink:href="#xfl315_Layer0_0_FILL" />
            </g>
          </g>
        </g>
      </g>
    </g>
    <g transform="matrix(1 0 0 1 -59.35 -35.7)" data-xfl-instance="var_165">
      <g data-xfl-symbol="Parts/Feet/footMC">
        <g data-xfl-symbol="Graphics/Symbol 269">
          <g data-svg-leaf="graphics_symbol_269_47dd5a5b45/t00_l003_f0000_r00.svg">
            <defs>
              <g id="xfl316_Layer0_0_FILL">
                <path fill="#000000" stroke="none" d=" M 0.2 20.9 Q 0.15 23.2 1.3 24.55 L -19.25 25.85 -19.25 37.1 Q -18.75 37.75 -18.6 38.4 -18.4 38.75 -17 38.75 -0.4 37 17.3 37 22.2 37 23.65 33 24.25 31.25 24.25 26.05 24.25 22.2 23.65 21.7 L 19 21.85 1.85 24.5 2.25 23.85 Q 1.95 22.25 1.8 19.95 L 1.55 16.3 0.5 16.25 0.2 16.4 -0.25 17 Q 0.25 18 0.2 20.9 M 19.25 36.1 L 15.5 35.75 -17.25 37.1 -17.35 36.75 -17.75 31.5 -17.5 27 22.1 23.1 Q 22.75 24.3 22.75 25.9 L 22.5 29.65 Q 22.2 32.7 21.75 34.35 21.3 36.15 19.25 36.1 M 7.15 -5.65 L 3.25 -5.8 -13.25 -4.25 -22.85 -2.85 -23 -2.9 -23 -2.25 -21.2 4.5 Q -19.25 11.65 -18.85 15 L -12.5 15.05 Q 14.9 15.05 21.45 13.3 23.7 12.7 23.7 11.85 L 23.25 10.6 Q 23.25 8.45 22.65 6.45 L 22 3.45 33 4.75 Q 34.25 4.75 33.8 4.1 L 35.8 4.6 Q 32.6 9.2 32.6 15.4 32.6 16.6 33.55 19.85 34.8 24.25 36.9 28 43.3 39.35 54.3 39.35 68.25 39.35 74.8 30.85 78.8 25.65 78.8 20.75 78.8 8.65 71.6 1.75 65.2 -4.35 55.7 -4.65 46.45 -4.9 39.8 0.35 37.95 1.8 36.6 3.5 L 36.25 3.5 36.3 3.55 36.35 3.55 36.5 3.65 36.45 3.7 31.75 2.8 Q 30.2 2.2 28.05 2.3 L 25.85 2.65 23.75 2.6 22.3 2.8 21.9 2.8 21.75 1.55 Q 21.65 0.65 21.7 -0.65 21.75 -2.8 21.2 -4.85 20.6 -6.9 18.25 -6.85 L 12.3 -6.75 Q 8.7 -6.7 7.15 -5.65 M 6.65 -3.95 L 20.1 -3.6 20.95 2.75 19.05 2.7 19.05 3.25 21.05 3.4 21.05 3.45 Q 21.75 8.05 21.75 10.15 L 21.6 12.05 4.95 12.1 Q -4.65 12.2 -11.85 13.75 L -17.85 13.55 -19.2 6.25 Q -20 1.7 -21.35 -1 L -4.25 -3.45 -4.15 -3.15 -3.75 -3.15 6.65 -3.95 M 63.65 16.85 Q 63.65 15.55 61.8 14.4 60 13.25 57.75 12.95 L 57.15 12.9 50.1 8.9 Q 42.7 4.9 38.9 3.85 L 40 2.5 Q 39.75 2.05 38.75 2.05 63 -7.8 72.4 4.1 77.3 10.35 77.3 20.85 77 25.4 74.05 29.5 68.25 37.6 55.05 37.6 44.5 37.6 38.5 27.25 36.5 23.8 35.3 19.75 34.4 16.75 34.4 15.6 34.4 11.85 35.65 9.05 36.45 7.1 38.35 4.6 L 53.85 13.25 Q 51.8 14.2 51.8 17.15 51.8 17.95 52.95 18.75 54.8 20.1 58.75 20.1 61 20.1 62.4 19 63.65 18.05 63.65 16.85 M 61.9 17.85 L 61.85 17.9 61.8 17.85 61.9 17.85 Z" />
              </g>
            </defs>
            <g transform="matrix( 1, 0, 0, 1, 0,0) ">
              <use xlink:href="#xfl316_Layer0_0_FILL" />
            </g>
          </g>
          <g data-svg-leaf="graphics_symbol_269_47dd5a5b45/t00_l002_f0000_r00.svg">
            <defs>
              <g id="xfl317_Layer0_0_FILL">
                <path fill="#000000" fill-opacity="0.25098039215686274" stroke="none" d=" M -6.4 37.4 L -6.4 25.85 -17.9 25.85 -17.9 37.4 -6.4 37.4 M -14.2 -3.5 Q -19.4 -3.6 -21.55 -1.7 -23.7 0.2 -18.9 7.7 L -18.25 13.95 Q -18.15 14.6 -11.3 13.9 L -9.05 13.9 -9.2 5.2 Q -9.6 1.45 -10.9 -2.5 L -8.8 -3 -14.2 -3.5 M 8.9 36.3 Q 13.75 36.45 19.25 36.1 23.45 36.2 22.35 28.05 L 22.35 21.85 Q 21.35 21.75 15.45 23.1 L 7.1 25.05 8.9 25.25 Q 9.2 32.65 8.9 36.3 M 77.95 20.1 Q 78.75 13.4 73.75 5.1 68.75 -3.25 56.3 -3.75 43.85 -4.25 38.7 1.7 33.5 7.6 33.35 16.3 33.15 24.95 40.35 32 47.35 38.8 57.7 38.5 68.05 38.15 72.55 32.5 77.05 26.8 77.95 20.1 M 69.6 4.8 Q 75 9.95 75 17.25 75 24.55 69.6 29.7 64.2 34.85 56.55 34.85 48.9 34.85 43.5 29.7 38.1 24.55 38.1 17.25 38.1 9.95 43.5 4.8 48.9 -0.35 56.55 -0.35 64.2 -0.35 69.6 4.8 M 68.3 17.2 Q 68.3 13.65 65.2 11.15 62.05 8.65 57.6 8.65 53.15 8.65 50.05 11.15 46.9 13.65 46.9 17.2 46.9 20.75 50.05 23.25 53.15 25.75 57.6 25.75 62.05 25.75 65.2 23.25 68.3 20.75 68.3 17.2 M 11.75 -5.25 L 7.8 -4.65 5.65 -4.1 Q 6.35 -1.35 7.1 6.8 7.6 12.55 8.65 12.55 15.75 12.8 18.15 12.55 L 22.8 12.05 23 11.9 Q 22.75 11 21.85 5.25 20.8 -1.45 20.55 -4.85 L 11.75 -5.25 Z" />
              </g>
            </defs>
            <g transform="matrix( 1, 0, 0, 1, 0,0) ">
              <use xlink:href="#xfl317_Layer0_0_FILL" />
            </g>
          </g>
          <g data-svg-leaf="graphics_symbol_269_47dd5a5b45/t00_l001_f0000_r00.svg">
            <defs>
              <g id="xfl318_Layer0_0_FILL">
                <path fill="#FFFFFF" fill-opacity="0.25098039215686274" stroke="none" d=" M 71.75 14.7 Q 71.75 10.65 68.25 7.4 63.65 3.1 54.65 3.1 46.45 3.1 43.5 6.7 41.5 9.15 41.5 14.65 41.5 23.2 46.05 27.3 49.2 30.15 52.95 30.15 62.35 30.15 66.5 27.35 71.75 23.85 71.75 14.7 M 69.45 16.5 Q 69.45 21.1 65.8 24.4 62.1 27.65 56.9 27.65 51.7 27.65 48.05 24.4 44.35 21.1 44.35 16.5 44.35 11.9 48.05 8.65 51.7 5.35 56.9 5.35 62.1 5.35 65.8 8.65 69.45 11.9 69.45 16.5 M -1.9 24.6 L -1.9 36 5.35 36 5.35 24.6 -1.9 24.6 M -5.75 -2.9 L -6.95 -2.05 Q -6.45 7.05 -5 11.2 -4.05 14 -2.9 14 L 4 12.45 4 8.15 0.35 -3.5 Q -0.6 -3.85 -1.05 -4.2 L -1.95 -4.95 -2.35 -4.85 -2.5 -4.1 -2.45 -3.4 Q -4.25 -3.7 -5.75 -2.9 M -5.05 -3.1 L -4.9 -3 -5.15 -2.85 -5.05 -3.1 Z" />
              </g>
            </defs>
            <g transform="matrix( 1, 0, 0, 1, 0,0) ">
              <use xlink:href="#xfl318_Layer0_0_FILL" />
            </g>
          </g>
          <g data-svg-leaf="graphics_symbol_269_47dd5a5b45/t00_l000_f0000_r00.svg">
            <defs>
              <g id="xfl319_Layer0_0_FILL">
                <path fill="#FFFFFF" stroke="none" d=" M 16.7 23.5 L 11.4 23.9 11.4 24.3 Q 15.4 25.55 19.75 25.55 21 25.55 21.1 25.15 L 21 25 21.25 24.75 21.2 27.95 Q 21.15 30 22 31.25 L 22.55 30.9 22.8 27.05 Q 22.8 24.35 22.25 22.9 18.3 23.9 16.7 23.5 M 59.05 -1.85 L 59.05 -1.3 59.8 -0.9 61 -0.55 Q 60.3 0.05 61.1 0.75 L 62.25 2 Q 60.95 1.5 60.3 1.5 L 59.85 1.6 59.8 1.8 59.85 2.25 63.2 4.6 Q 65.9 6.5 66.95 6.5 67.55 6.5 67.5 6.25 L 67.45 5.55 Q 67.4 5.2 67.5 5.1 L 70.8 8.05 71.25 8 71.6 7.4 71.8 6.6 Q 71.8 6.15 70.35 4.25 68.75 2.15 67.5 1.5 L 64.25 -1.1 Q 61.95 -2.65 61.1 -2.5 L 61.05 -2.25 62 -1.1 59.55 -2 59.1 -1.9 59.05 -1.85 M 7.75 -3.85 Q 7.75 -3.5 7.9 -3.35 L 8 -3.15 17.25 -2.65 17.6 1.85 Q 17.95 4.5 19 4.5 19.65 4.5 19.55 4.25 L 19.55 -1.9 19.75 -1.6 19.85 -0.25 19.75 3.3 Q 19.85 5.5 20.75 6.75 L 21.25 6.5 21.3 4.7 Q 21.55 2.3 21.25 -0.05 20.65 -4.8 17.75 -4.8 17.2 -4.8 17.1 -4.4 17 -4 15.95 -4 15 -4 11.65 -4.9 L 8.15 -5.55 Q 8.55 -5.2 9.25 -4.9 L 10.65 -4.4 Q 7.75 -4.4 7.75 -3.85 Z" />
              </g>
            </defs>
            <g transform="matrix( 1, 0, 0, 1, 0,0) ">
              <use xlink:href="#xfl319_Layer0_0_FILL" />
            </g>
          </g>
        </g>
      </g>
    </g>
  </g>
</svg>