<?xml version='1.0' encoding='utf-8'?>
<svg xmlns="http://www.w3.org/2000/svg" xmlns:xlink="http://www.w3.org/1999/xlink" version="1.1" width="550px" height="400px" viewBox="0 0 550 400" preserveAspectRatio="none" data-xfl-root="MovieClips/Symbol 901">
  <g data-xfl-symbol="MovieClips/Symbol 901">
    <g transform="matrix(1 0 0 1 14.6 -37.7)" data-xfl-instance="var_152">
      <g data-xfl-symbol="Parts/Feet/footMC">
        <g data-xfl-symbol="Graphics/Symbol 266">
          <g data-svg-leaf="graphics_symbol_266_860f63d939/t00_l003_f0000_r00.svg">
            <defs>
              <g id="xfl276_Layer0_0_FILL">
                <path fill="#000000" stroke="none" d=" M 15.75 -3.35 Q 15.3 -3.35 13.75 -6.6 11.9 -10.5 10.05 -12.4 9.45 -13.05 8.1 -13.3 7.1 -13.8 7.3 -16.15 L 6.8 -16.3 0.4 -15.05 -7.35 -14.5 Q -8.9 -14.5 -10.5 -16 -12.05 -17.5 -13.1 -17.5 -15.9 -17.5 -17.2 -9.2 -18 -4.15 -18 0.55 -18 5.25 -16.3 7.55 -14.25 10.35 -13.95 11.95 -13.25 15.9 -13.8 24.1 L -14.5 32.15 -14.3 35.6 Q -14 35.45 -13.5 35.6 L -13.7 35.65 -14.3 35.6 Q -14.55 37.95 -12.7 38.8 L -9.5 39.4 -7.8 39.3 -7.55 39.05 -7.45 38.2 Q -7.45 37 -8.3 37.1 L -8 18.55 Q -6.2 19.15 -2.9 21.9 L 0.1 24.5 Q 2.7 24.5 2.4 27.1 1.8 31.6 2.15 32.8 4.45 41.1 32.8 41.1 39.3 41.1 44.8 36.2 49.5 32.05 49.5 29.15 L 49.1 28.4 Q 48.65 27.85 48.25 27.8 47.15 28.85 42.5 28.85 34.45 28.85 30.3 27.05 26.2 25.25 24.35 21.05 23.3 18.65 19.5 6.85 16.2 -3.35 15.75 -3.35 M 4.15 -13.55 Q 8.25 -13.55 13.3 -1.95 15.85 3.8 17.65 9.6 18.7 9.6 19.5 16.3 21.95 24.3 30.75 29.45 33.05 30.8 39.9 31 L 46.75 30.65 Q 42.9 36.05 41.45 37.3 39.5 39 36.3 39 L 10.65 37.7 7.35 36.25 Q 4 34.55 4 30.55 4 30.05 4.45 30.1 4.85 30.15 4.85 29.65 4.85 26.55 -0.45 21.85 -5.75 17.2 -10.2 16.3 L -9.95 37.05 Q -10.8 36.45 -11.55 36.4 L -12.25 36.45 Q -12.5 36.35 -12.5 32.1 L -11.75 12.35 Q -11.75 10.5 -13.95 6.4 -16.15 2.25 -16.15 0.65 -16.15 -2.8 -15.55 -6.75 -14.65 -12.45 -12.85 -15.1 -11.7 -13.95 -8.2 -12.85 -4.6 -11.7 -2 -11.7 2.7 -13.55 4.15 -13.55 M -8.3 37.2 Q -8.3 37.7 -8.8 37.2 L -8.3 37.2 Z" />
              </g>
            </defs>
            <g transform="matrix( 1, 0, 0, 1, 0,0) ">
              <use xlink:href="#xfl276_Layer0_0_FILL" />
            </g>
          </g>
          <g data-svg-leaf="graphics_symbol_266_860f63d939/t00_l002_f0000_r00.svg">
            <defs>
              <g id="xfl277_Layer0_0_FILL">
                <path fill="#000000" fill-opacity="0.25098039215686274" stroke="none" d=" M 11.25 -9.7 Q 8.6 -12.45 6.9 -13.25 -1.4 -14.6 -4.4 -14.2 -7.4 -13.85 -8.9 -15.15 -10.3 -16.4 -11.85 -16.4 -13.9 -16.4 -15.55 -9.8 -16.9 -4.3 -16.9 -0.45 -16.9 4.4 -14.75 10.55 -12.6 16.65 -12.6 22.5 L -13.85 29.55 Q -13.85 34.65 -13.05 36.4 -12.25 38.15 -10.45 38.2 -8.7 38.2 -8.75 35 L -8.2 18.45 -5.75 19.05 Q -3.25 19.8 -1.5 21.4 -0.6 22.2 0.4 24.25 2.3 24.8 2.3 26.5 L 2.2 28.8 2.25 28.95 Q 4.2 34.9 8.55 37.95 12.85 41 23.65 41 32.55 41 39.15 38.45 46.3 35.75 46.3 31.55 L 46.2 30.9 46 30.75 43.05 30.1 Q 36.05 30.1 30.75 27.55 27.45 25.95 25.5 23.8 20.75 18.5 19.25 12.75 17.9 4.8 16 -1.9 14.9 -5.9 11.25 -9.7 M 32.75 34.45 Q 31.55 35.65 25.8 35.65 17.15 35.65 12.7 29.65 8.1 21.15 3.9 16.1 -0.8 13.15 -4.75 9.9 -12.5 3.5 -12.5 -2.55 -12.5 -4.95 -11.75 -5.95 -11.05 -6.95 -9.25 -6.95 L -5 -6.1 -6 -6 Q -4 -4.95 -2.15 -5 L 0.45 -5.15 Q 3.05 -4.8 7.5 3.35 18.2 28.9 32.75 34.45 Z" />
              </g>
            </defs>
            <g transform="matrix( 1, 0, 0, 1, 0,0) ">
              <use xlink:href="#xfl277_Layer0_0_FILL" />
            </g>
          </g>
          <g data-svg-leaf="graphics_symbol_266_860f63d939/t00_l001_f0000_r00.svg">
            <defs>
              <g id="xfl278_Layer0_0_FILL">
                <path fill="#FFFFFF" fill-opacity="0.25098039215686274" stroke="none" d=" M 4.4 5.2 L 1.85 0.25 Q 2 -1.3 1.45 -2.75 0.4 -5.65 -3 -5.65 -3.5 -5.65 -5.35 -4.15 -7.55 -2.4 -8.4 -0.75 L -4.85 1.15 Q -2.95 2.15 -1.7 3.1 -0.85 5.25 1.2 8 L 9.25 18.5 Q 14.6 25.7 21.1 31.5 27.5 37.15 30 37.15 33.1 37.15 34.35 35.65 35 34.9 35 34.05 35 31.5 31.7 30.85 L 23.45 30.5 26 31.8 Q 22.15 31.25 16.95 26.55 10.8 20.9 8.2 13.45 7.2 10.5 4.4 5.2 Z" />
              </g>
            </defs>
            <g transform="matrix( 1, 0, 0, 1, 0,0) ">
              <use xlink:href="#xfl278_Layer0_0_FILL" />
            </g>
          </g>
          <g data-svg-leaf="graphics_symbol_266_860f63d939/t00_l000_f0000_r00.svg">
            <defs>
              <g id="xfl279_Layer0_0_FILL">
                <path fill="#FFFFFF" stroke="none" d=" M 11.45 -2.8 Q 8.15 -9.9 5.15 -8.1 L 5.05 -7.55 Q 5.05 -7.2 9.1 0.1 13.2 7.4 13.55 7.4 14.2 7.4 14.15 7.15 L 14.25 6.55 Q 14.25 3.35 11.45 -2.8 Z" />
              </g>
            </defs>
            <g transform="matrix( 1, 0, 0, 1, 0,0) ">
              <use xlink:href="#xfl279_Layer0_0_FILL" />
            </g>
          </g>
        </g>
      </g>
    </g>
    <g transform="matrix(1 0 0 1 33 -150.2)" data-xfl-instance="egg">
      <g data-xfl-symbol="MovieClips/Symbol 316">
        <g data-svg-leaf="movieclips_symbol_316_a9705345d0/t00_l003_f0000_r00.svg">
          <defs>
            <g id="xfl280_Layer0_0_FILL">
              <path fill="#000000" stroke="none" d=" M -50.05 -39.1 Q -57.55 -35.25 -67.35 -25.85 L -75.35 -13.55 Q -80.35 -5.25 -83.7 3.4 -92.85 27.25 -92.85 63.1 -92.85 98.05 -81.9 115.15 -69.6 134.45 -41.65 134.45 -8.2 134.45 10.5 116.35 28.9 98.5 28.9 67.2 28.9 47.6 21.65 24.45 17.9 12.45 12.95 0.1 7.55 -19.15 -1.25 -29.5 -13 -43.3 -31.9 -43.3 -41.85 -43.3 -50.05 -39.1 M -27.85 -38.1 Q -22.3 -38.1 -14.3 -31.6 -5.4 -24.35 2.2 -12.1 22 19.95 22 66.4 22 91.1 8.55 107.8 -7.6 127.85 -38.25 127.85 -70.5 127.85 -81.15 105.95 -85.45 97.1 -86.95 83.5 -87.95 74.35 -87.95 57.65 -87.95 43.55 -84.45 27.8 -80.65 10.5 -73.65 -3.45 -56.35 -38.1 -27.85 -38.1 Z" />
            </g>
          </defs>
          <g transform="matrix( 1, 0, 0, 1, 0,0) ">
            <use xlink:href="#xfl280_Layer0_0_FILL" />
          </g>
        </g>
        <g data-xfl-symbol="Graphics/Symbol 315">
          <g data-svg-leaf="graphics_symbol_315_522ba07b24/t00_l001_f0000_r00.svg">
            <defs>
              <g id="xfl281_Layer0_0_FILL">
                <path fill="#000000" stroke="none" d=" M 72.05 -64.85 Q 73.65 -64.3 74.9 -62.05 75.8 -60.5 80.75 -60.5 88.05 -60.5 90 -64.3 91 -66.2 90.55 -68.3 90.55 -74.6 88 -77.85 85.75 -80.7 82 -80.7 78.25 -80.7 75.1 -79.2 69.95 -76.7 69.2 -70.95 L 59.45 -71.5 Q 30.1 -71.5 11.3 -51.55 4.85 -44.65 0.75 -36.55 -2.5 -30.05 -2.5 -27 -2.5 -23.8 -0.15 -23.5 L 3.1 -29.95 Q 6.05 -36.25 8.8 -40.45 18.15 -55 32.15 -58.3 35.45 -59.05 50.25 -63.7 64.85 -67.45 72.05 -64.85 M 79.85 -66 Q 77.35 -66 75.55 -67.35 73.8 -68.7 73.8 -70.65 73.8 -72.6 75.55 -73.95 77.35 -75.3 79.85 -75.3 82.35 -75.3 84.1 -73.95 85.9 -72.6 85.9 -70.65 85.9 -68.7 84.1 -67.35 82.35 -66 79.85 -66 Z" />
              </g>
            </defs>
            <g transform="matrix( 1, 0, 0, 1, 0,0) ">
              <use xlink:href="#xfl281_Layer0_0_FILL" />
            </g>
          </g>
          <g data-svg-leaf="graphics_symbol_315_522ba07b24/t00_l000_f0000_r00.svg">
            <defs>
              <g id="xfl282_Layer0_0_FILL">
                <path fill="#000000" stroke="none" d=" M 27.9 -107.9 Q 27 -106.95 24.95 -102.45 20.65 -92.75 6.95 -87.45 -15.55 -72.4 -27.5 -51.05 -37.95 -32.5 -35.45 -20.1 -33.8 -17.2 -32 -15.5 -30.3 -16.45 -27.35 -27.8 -25.85 -33.55 -24.6 -39.75 -23.55 -44.9 -17.95 -53.55 -12.25 -62.4 -7.05 -66.65 L 27.15 -93.15 34.7 -91.5 Q 43.9 -91.5 45.65 -95.35 46.2 -96.55 45.5 -99.95 44.5 -105 41.35 -107.65 38.55 -110.05 34.7 -110.05 29.95 -110.05 27.9 -107.9 M 30.65 -103.55 Q 31.95 -104.75 34.2 -104.75 36.45 -104.75 38.3 -103.55 40.05 -102.4 40.4 -100.75 40.75 -99.1 39.4 -97.9 38.05 -96.75 35.8 -96.75 33.55 -96.75 31.75 -97.9 29.95 -99.1 29.6 -100.75 29.25 -102.4 30.65 -103.55 Z" />
              </g>
            </defs>
            <g transform="matrix( 1, 0, 0, 1, 0,0) ">
              <use xlink:href="#xfl282_Layer0_0_FILL" />
            </g>
          </g>
        </g>
      </g>
    </g>
    <g transform="matrix(1 0 0 1 -59.35 -35.7)" data-xfl-instance="var_165">
      <g data-xfl-symbol="Parts/Feet/footMC">
        <g data-xfl-symbol="Graphics/Symbol 266">
          <g data-svg-leaf="graphics_symbol_266_860f63d939/t00_l003_f0000_r00.svg">
            <defs>
              <g id="xfl283_Layer0_0_FILL">
                <path fill="#000000" stroke="none" d=" M 15.75 -3.35 Q 15.3 -3.35 13.75 -6.6 11.9 -10.5 10.05 -12.4 9.45 -13.05 8.1 -13.3 7.1 -13.8 7.3 -16.15 L 6.8 -16.3 0.4 -15.05 -7.35 -14.5 Q -8.9 -14.5 -10.5 -16 -12.05 -17.5 -13.1 -17.5 -15.9 -17.5 -17.2 -9.2 -18 -4.15 -18 0.55 -18 5.25 -16.3 7.55 -14.25 10.35 -13.95 11.95 -13.25 15.9 -13.8 24.1 L -14.5 32.15 -14.3 35.6 Q -14 35.45 -13.5 35.6 L -13.7 35.65 -14.3 35.6 Q -14.55 37.95 -12.7 38.8 L -9.5 39.4 -7.8 39.3 -7.55 39.05 -7.45 38.2 Q -7.45 37 -8.3 37.1 L -8 18.55 Q -6.2 19.15 -2.9 21.9 L 0.1 24.5 Q 2.7 24.5 2.4 27.1 1.8 31.6 2.15 32.8 4.45 41.1 32.8 41.1 39.3 41.1 44.8 36.2 49.5 32.05 49.5 29.15 L 49.1 28.4 Q 48.65 27.85 48.25 27.8 47.15 28.85 42.5 28.85 34.45 28.85 30.3 27.05 26.2 25.25 24.35 21.05 23.3 18.65 19.5 6.85 16.2 -3.35 15.75 -3.35 M 4.15 -13.55 Q 8.25 -13.55 13.3 -1.95 15.85 3.8 17.65 9.6 18.7 9.6 19.5 16.3 21.95 24.3 30.75 29.45 33.05 30.8 39.9 31 L 46.75 30.65 Q 42.9 36.05 41.45 37.3 39.5 39 36.3 39 L 10.65 37.7 7.35 36.25 Q 4 34.55 4 30.55 4 30.05 4.45 30.1 4.85 30.15 4.85 29.65 4.85 26.55 -0.45 21.85 -5.75 17.2 -10.2 16.3 L -9.95 37.05 Q -10.8 36.45 -11.55 36.4 L -12.25 36.45 Q -12.5 36.35 -12.5 32.1 L -11.75 12.35 Q -11.75 10.5 -13.95 6.4 -16.15 2.25 -16.15 0.65 -16.15 -2.8 -15.55 -6.75 -14.65 -12.45 -12.85 -15.1 -11.7 -13.95 -8.2 -12.85 -4.6 -11.7 -2 -11.7 2.7 -13.55 4.15 -13.55 M -8.3 37.2 Q -8.3 37.7 -8.8 37.2 L -8.3 37.2 Z" />
              </g>
            </defs>
            <g transform="matrix( 1, 0, 0, 1, 0,0) ">
              <use xlink:href="#xfl283_Layer0_0_FILL" />
            </g>
          </g>
          <g data-svg-leaf="graphics_symbol_266_860f63d939/t00_l002_f0000_r00.svg">
            <defs>
              <g id="xfl284_Layer0_0_FILL">
                <path fill="#000000" fill-opacity="0.25098039215686274" stroke="none" d=" M 11.25 -9.7 Q 8.6 -12.45 6.9 -13.25 -1.4 -14.6 -4.4 -14.2 -7.4 -13.85 -8.9 -15.15 -10.3 -16.4 -11.85 -16.4 -13.9 -16.4 -15.55 -9.8 -16.9 -4.3 -16.9 -0.45 -16.9 4.4 -14.75 10.55 -12.6 16.65 -12.6 22.5 L -13.85 29.55 Q -13.85 34.65 -13.05 36.4 -12.25 38.15 -10.45 38.2 -8.7 38.2 -8.75 35 L -8.2 18.45 -5.75 19.05 Q -3.25 19.8 -1.5 21.4 -0.6 22.2 0.4 24.25 2.3 24.8 2.3 26.5 L 2.2 28.8 2.25 28.95 Q 4.2 34.9 8.55 37.95 12.85 41 23.65 41 32.55 41 39.15 38.45 46.3 35.75 46.3 31.55 L 46.2 30.9 46 30.75 43.05 30.1 Q 36.05 30.1 30.75 27.55 27.45 25.95 25.5 23.8 20.75 18.5 19.25 12.75 17.9 4.8 16 -1.9 14.9 -5.9 11.25 -9.7 M 32.75 34.45 Q 31.55 35.65 25.8 35.65 17.15 35.65 12.7 29.65 8.1 21.15 3.9 16.1 -0.8 13.15 -4.75 9.9 -12.5 3.5 -12.5 -2.55 -12.5 -4.95 -11.75 -5.95 -11.05 -6.95 -9.25 -6.95 L -5 -6.1 -6 -6 Q -4 -4.95 -2.15 -5 L 0.45 -5.15 Q 3.05 -4.8 7.5 3.35 18.2 28.9 32.75 34.45 Z" />
              </g>
            </defs>
            <g transform="matrix( 1, 0, 0, 1, 0,0) ">
              <use xlink:href="#xfl284_Layer0_0_FILL" />
            </g>
          </g>
          <g data-svg-leaf="graphics_symbol_266_860f63d939/t00_l001_f0000_r00.svg">
            <defs>
              <g id="xfl285_Layer0_0_FILL">
                <path fill="#FFFFFF" fill-opacity="0.25098039215686274" stroke="none" d=" M 4.4 5.2 L 1.85 0.25 Q 2 -1.3 1.45 -2.75 0.4 -5.65 -3 -5.65 -3.5 -5.65 -5.35 -4.15 -7.55 -2.4 -8.4 -0.75 L -4.85 1.15 Q -2.95 2.15 -1.7 3.1 -0.85 5.25 1.2 8 L 9.25 18.5 Q 14.6 25.7 21.1 31.5 27.5 37.15 30 37.15 33.1 37.15 34.35 35.65 35 34.9 35 34.05 35 31.5 31.7 30.85 L 23.45 30.5 26 31.8 Q 22.15 31.25 16.95 26.55 10.8 20.9 8.2 13.45 7.2 10.5 4.4 5.2 Z" />
              </g>
            </defs>
            <g transform="matrix( 1, 0, 0, 1, 0,0) ">
              <use xlink:href="#xfl285_Layer0_0_FILL" />
            </g>
          </g>
          <g data-svg-leaf="graphics_symbol_266_860f63d939/t00_l000_f0000_r00.svg">
            <defs>
              <g id="xfl286_Layer0_0_FILL">
                <path fill="#FFFFFF" stroke="none" d=" M 11.45 -2.8 Q 8.15 -9.9 5.15 -8.1 L 5.05 -7.55 Q 5.05 -7.2 9.1 0.1 13.2 7.4 13.55 7.4 14.2 7.4 14.15 7.15 L 14.25 6.55 Q 14.25 3.35 11.45 -2.8 Z" />
              </g>
            </defs>
            <g transform="matrix( 1, 0, 0, 1, 0,0) ">
              <use xlink:href="#xfl286_Layer0_0_FILL" />
            </g>
          </g>
        </g>
      </g>
    </g>
  </g>
</svg>