<?xml version='1.0' encoding='utf-8'?>
<svg xmlns="http://www.w3.org/2000/svg" xmlns:xlink="http://www.w3.org/1999/xlink" version="1.1" width="550px" height="400px" viewBox="0 0 550 400" preserveAspectRatio="none" data-xfl-root="MovieClips/Symbol 901">
  <g data-xfl-symbol="MovieClips/Symbol 901">
    <g transform="matrix(1 0 0 1 14.6 -37.7)" data-xfl-instance="var_152">
      <g data-xfl-symbol="Parts/Feet/footMC">
        <g data-xfl-instance="colorMC">
          <g data-xfl-symbol="MovieClips/Symbol 228">
            <g data-svg-leaf="movieclips_symbol_228_50229f3c90/t00_l001_f0003_r00.svg">
              <defs>
                <g id="xfl55_Layer0_0_FILL">
                  <path fill="#993300" stroke="none" d=" M -13.95 -1.3 L -16.65 -0.9 -16.95 -1.05 Q -20.55 2.3 -23.15 9.3 -25.9 16.75 -25.9 22.3 L -26.05 23.5 Q -25.6 23.7 -25.1 24.1 -23.75 25.2 -22.35 25.8 -16.45 28.35 0.5 28.35 L 16.15 27.4 Q 16.4 27.25 16.3 26.65 16.25 26.25 17.5 26.1 L 18.15 26.25 Q 18.35 26.3 18.35 27.1 L 18.4 27.15 Q 22.3 22.7 22.7 15 21.5 13.35 20.35 12.55 20.1 13.25 20.1 12 L 20.25 11.25 Q 21.6 11.95 22.75 12.95 L 22.8 12.45 23 12.3 23.75 12.3 24.45 13.25 24.75 14.55 24.75 14.9 25.5 15.85 Q 26.65 17.45 28.85 21.75 L 31 25.5 Q 33.55 25.55 40.7 27.55 47.95 29.6 49.4 29.6 58.9 29.6 60.75 27.85 61.7 26.95 60.75 25.9 60.75 22.8 59.35 20.1 58.6 18.6 57.5 17.5 L 57.4 17.5 Q 55.9 17.5 53.3 15.1 L 52 15.5 46.5 16.05 Q 38.65 16.05 27 11.7 19.05 8.75 14 5.55 9.45 9.1 3.8 9.1 -0.2 9.1 -1.6 5.5 L -2.25 5.5 Q -10.35 5.5 -12.9 1.65 -13.8 0.3 -13.95 -1.3 Z" />
                </g>
              </defs>
              <g transform="matrix( 1, 0, 0, 1, 0,0) ">
                <use xlink:href="#xfl55_Layer0_0_FILL" />
              </g>
            </g>
          </g>
        </g>
        <g data-xfl-symbol="Graphics/Symbol 232" />
        <g data-xfl-symbol="Graphics/Symbol 268" />
      </g>
    </g>
    <g transform="matrix(1 0 0 1 33 -150.2)" data-xfl-instance="egg">
      <g data-xfl-symbol="MovieClips/Symbol 316">
        <g data-xfl-symbol="Graphics/Symbol 315" />
      </g>
    </g>
    <g transform="matrix(1 0 0 1 -59.35 -35.7)" data-xfl-instance="var_165">
      <g data-xfl-symbol="Parts/Feet/footMC">
        <g data-xfl-instance="colorMC">
          <g data-xfl-symbol="MovieClips/Symbol 228">
            <g data-svg-leaf="movieclips_symbol_228_50229f3c90/t00_l001_f0003_r00.svg">
              <defs>
                <g id="xfl56_Layer0_0_FILL">
                  <path fill="#993300" stroke="none" d=" M -13.95 -1.3 L -16.65 -0.9 -16.95 -1.05 Q -20.55 2.3 -23.15 9.3 -25.9 16.75 -25.9 22.3 L -26.05 23.5 Q -25.6 23.7 -25.1 24.1 -23.75 25.2 -22.35 25.8 -16.45 28.35 0.5 28.35 L 16.15 27.4 Q 16.4 27.25 16.3 26.65 16.25 26.25 17.5 26.1 L 18.15 26.25 Q 18.35 26.3 18.35 27.1 L 18.4 27.15 Q 22.3 22.7 22.7 15 21.5 13.35 20.35 12.55 20.1 13.25 20.1 12 L 20.25 11.25 Q 21.6 11.95 22.75 12.95 L 22.8 12.45 23 12.3 23.75 12.3 24.45 13.25 24.75 14.55 24.75 14.9 25.5 15.85 Q 26.65 17.45 28.85 21.75 L 31 25.5 Q 33.55 25.55 40.7 27.55 47.95 29.6 49.4 29.6 58.9 29.6 60.75 27.85 61.7 26.95 60.75 25.9 60.75 22.8 59.35 20.1 58.6 18.6 57.5 17.5 L 57.4 17.5 Q 55.9 17.5 53.3 15.1 L 52 15.5 46.5 16.05 Q 38.65 16.05 27 11.7 19.05 8.75 14 5.55 9.45 9.1 3.8 9.1 -0.2 9.1 -1.6 5.5 L -2.25 5.5 Q -10.35 5.5 -12.9 1.65 -13.8 0.3 -13.95 -1.3 Z" />
                </g>
              </defs>
              <g transform="matrix( 1, 0, 0, 1, 0,0) ">
                <use xlink:href="#xfl56_Layer0_0_FILL" />
              </g>
            </g>
          </g>
        </g>
        <g data-xfl-symbol="Graphics/Symbol 232" />
        <g data-xfl-symbol="Graphics/Symbol 268" />
      </g>
    </g>
  </g>
</svg>