<?xml version='1.0' encoding='utf-8'?>
<svg xmlns="http://www.w3.org/2000/svg" xmlns:xlink="http://www.w3.org/1999/xlink" version="1.1" width="550px" height="400px" viewBox="0 0 550 400" preserveAspectRatio="none" data-xfl-root="MovieClips/Symbol 901">
  <g data-xfl-symbol="MovieClips/Symbol 901">
    <g transform="matrix(1 0 0 1 -54.55 -37.7)" data-xfl-instance="var_152">
      <g data-xfl-symbol="Parts/Feet/footMC">
        <g data-xfl-instance="colorMC">
          <g data-xfl-symbol="MovieClips/Symbol 228">
            <g data-svg-leaf="movieclips_symbol_228_50229f3c90/t00_l001_f0000_r00.svg">
              <defs>
                <g id="xfl21_Layer0_0_FILL">
                  <path fill="#6479CE" stroke="none" d=" M 12.35 -1.75 L 3.3 -6.7 Q -1.8 -9.15 -6.1 -9.15 -10 -9.15 -12.65 -6.65 -15.65 -3.9 -15.65 0.8 -15.65 3.1 -13.5 4.1 L -8.7 5.25 Q -5.3 5.75 -3.9 6.6 -1.75 7.9 -1.75 10.7 -1.75 11.9 -3.5 14.25 L -5.3 16.7 -6.25 17 -13.75 17.5 Q -14.55 17.5 -15.2 19.7 -15.9 21.9 -14.05 26.9 L -13.3 28.75 -13.5 29.05 -12.6 29.6 Q -4.5 34.55 7.4 36.2 L 35.45 37.5 Q 50.95 37.1 60.6 32.4 71.95 26.9 71.95 13.8 71.95 3.15 65.85 -6.5 59.6 -16.45 52.15 -16.45 47.15 -16.45 43.25 -11.4 41.6 -9.3 37.1 -1 32.6 7.25 26.45 9.85 20.3 12.45 17 14.15 13.7 15.85 13.05 15.55 10.5 14.25 10.5 9.15 10.5 6.6 11.3 2.95 L 12.35 -1.75 Z" />
                </g>
              </defs>
              <g transform="matrix( 1, 0, 0, 1, 0,0) ">
                <use xlink:href="#xfl21_Layer0_0_FILL" />
              </g>
            </g>
          </g>
        </g>
        <g data-xfl-symbol="Graphics/Symbol 229" />
        <g data-xfl-symbol="Graphics/Symbol 265" />
      </g>
    </g>
    <g transform="matrix(0.9993896484 -0.0315246582 0.0315246582 0.9993896484 28.55 -158.2)" data-xfl-instance="egg">
      <g data-xfl-symbol="MovieClips/Symbol 316">
        <g data-xfl-symbol="Graphics/Symbol 315" />
      </g>
    </g>
    <g transform="matrix(0.9514465332 -0.3076019287 0.3076019287 0.9514465332 19.65 -31.35)" data-xfl-instance="var_165">
      <g data-xfl-symbol="Parts/Feet/footMC">
        <g data-xfl-instance="colorMC">
          <g data-xfl-symbol="MovieClips/Symbol 228">
            <g data-svg-leaf="movieclips_symbol_228_50229f3c90/t00_l001_f0000_r00.svg">
              <defs>
                <g id="xfl22_Layer0_0_FILL">
                  <path fill="#6479CE" stroke="none" d=" M 12.35 -1.75 L 3.3 -6.7 Q -1.8 -9.15 -6.1 -9.15 -10 -9.15 -12.65 -6.65 -15.65 -3.9 -15.65 0.8 -15.65 3.1 -13.5 4.1 L -8.7 5.25 Q -5.3 5.75 -3.9 6.6 -1.75 7.9 -1.75 10.7 -1.75 11.9 -3.5 14.25 L -5.3 16.7 -6.25 17 -13.75 17.5 Q -14.55 17.5 -15.2 19.7 -15.9 21.9 -14.05 26.9 L -13.3 28.75 -13.5 29.05 -12.6 29.6 Q -4.5 34.55 7.4 36.2 L 35.45 37.5 Q 50.95 37.1 60.6 32.4 71.95 26.9 71.95 13.8 71.95 3.15 65.85 -6.5 59.6 -16.45 52.15 -16.45 47.15 -16.45 43.25 -11.4 41.6 -9.3 37.1 -1 32.6 7.25 26.45 9.85 20.3 12.45 17 14.15 13.7 15.85 13.05 15.55 10.5 14.25 10.5 9.15 10.5 6.6 11.3 2.95 L 12.35 -1.75 Z" />
                </g>
              </defs>
              <g transform="matrix( 1, 0, 0, 1, 0,0) ">
                <use xlink:href="#xfl22_Layer0_0_FILL" />
              </g>
            </g>
          </g>
        </g>
        <g data-xfl-symbol="Graphics/Symbol 229" />
        <g data-xfl-symbol="Graphics/Symbol 265" />
      </g>
    </g>
  </g>
</svg>