
<svg xmlns="http://www.w3.org/2000/svg" version="1.1" xmlns:xlink="http://www.w3.org/1999/xlink" preserveAspectRatio="none" x="0px" y="0px" width="550px" height="400px" viewBox="0 0 550 400">
<defs>
<g id="MovieClips_Symbol_228_0_Layer1_0_FILL">
<path fill="#6479CE" stroke="none" d="
M 12.35 -1.75
L 3.3 -6.7
Q -1.8 -9.15 -6.1 -9.15 -10 -9.15 -12.65 -6.65 -15.65 -3.9 -15.65 0.8 -15.65 3.1 -13.5 4.1
L -8.7 5.25
Q -5.3 5.75 -3.9 6.6 -1.75 7.9 -1.75 10.7 -1.75 11.9 -3.5 14.25
L -5.3 16.7 -6.25 17 -13.75 17.5
Q -14.55 17.5 -15.2 19.7 -15.9 21.9 -14.05 26.9
L -13.3 28.75 -13.5 29.05 -12.6 29.6
Q -4.5 34.55 7.4 36.2
L 35.45 37.5
Q 50.95 37.1 60.6 32.4 71.95 26.9 71.95 13.8 71.95 3.15 65.85 -6.5 59.6 -16.45 52.15 -16.45 47.15 -16.45 43.25 -11.4 41.6 -9.3 37.1 -1 32.6 7.25 26.45 9.85 20.3 12.45 17 14.15 13.7 15.85 13.05 15.55 10.5 14.25 10.5 9.15 10.5 6.6 11.3 2.95
L 12.35 -1.75 Z"/>
</g>

<g id="Graphics_Symbol_229_0_Layer0_0_FILL">
<path fill="#000000" stroke="none" d="
M 39.05 -7.85
Q 37.65 -4.85 35.5 -3.25 33.35 -1.6 31.5 1.2
L 28.4 5.85
Q 24.65 10.4 15.9 12.4
L 15.55 12.45 15 13 12.95 13.1 13.05 12.95 12.3 13.05 11.7 11.15 11.55 10.75 11.55 10.7 10.75 8.1
Q 10.75 7.65 12.25 4.6 13.75 1.6 13.75 -0.1
L 13.75 -0.35 13.55 -2.1 11.2 -3.8 10.6 -4.2 8.5 -5.75
Q 4.25 -8.7 -0.6 -9.7 -5.15 -11.1 -8.25 -10.25
L -10.5 -9.4
Q -14.1 -7.7 -15.65 -3.9 -17.2 -0.2 -16.35 3 -15.7 5.4 -13.75 5.8
L -11.85 5.8 -9.75 6.65
Q -3.75 8.7 -3.75 11.6 -3.75 13.2 -4.3 14.2
L -4.35 14.25 -5.15 15.05 -5.7 15.55 -5.7 15.6
Q -7 16.2 -10 16.3
L -13.4 16.6 -14.05 16.7 -14.55 17
Q -16.25 17.85 -16.25 20.25
L -16.25 22.45
Q -16.55 24.15 -16.35 24.85
L -16.35 24.9 -16.35 25.25
Q -16.1 26.65 -15.45 27.95
L -15.8 27.75 -15.45 29.05 -15.2 29.95 -12.85 31.05 -12 31.75
Q -0.85 39.8 38.25 39.8 61.65 39.8 69.55 28.75 73.5 23.3 73.5 13
L 73.25 11.35
Q 73 8.4 72.15 5.2 70.75 -0.6 68.1 -5.5 62.5 -18.35 55.25 -18.35 50.5 -18.35 47.2 -17.25
L 46.7 -17.1
Q 45.9 -16.9 45.15 -16.35 42.6 -15.05 41.3 -12.8
L 39.05 -7.85
M 5 -4.25
Q 11.25 -1.25 11.25 -0.3 11.25 0.95 9.75 3.6 8.5 5.8 8.3 7.75
L 8.25 8.5 8.8 12.05 8.8 12.2 9.3 13.2
Q 10.75 15.75 14 15.75
L 15.7 15.7 19.05 15.4
Q 21.95 14.6 24.5 13.3 27.4 11.9 30.3 9.8 37.75 4.35 37.75 0.35 37.75 -1.55 40.95 -6.6
L 45.5 -13.25
Q 46.05 -14.05 48.1 -14.55
L 52.95 -14.75
Q 59.95 -13.95 63.3 -7.75 68.85 2.6 69.85 6.8 70.55 9.65 70.55 19.35 70.55 20.9 69.1 23.4 67.25 26.6 64 29.25 57.55 34.5 47.6 36.1
L 40.6 36.75 38.15 36.8 15.65 36 14.6 35.85
Q 3.35 34.5 -4.85 32.1
L -7.85 30.75
Q -11.95 28.55 -13.15 25.4 -13.75 23.9 -13.75 20.5
L -13.65 19.4 -13.6 19 -9.9 19.15 -8.1 18.85
Q -5.25 18.15 -3.25 15.9
L -2.15 14.5 -1.8 14.05
Q -0.75 12.25 -0.75 10.65 -0.75 5.6 -7 4.35
L -11.3 3.55
Q -13.25 3 -13.25 1.75 -12.85 -0.55 -11.75 -2.85 -10.15 -6.15 -7.95 -7.1
L -6.05 -7.5
Q -1.85 -7.5 5 -4.25
M -13.2 -6
L -13.75 -5.1 -15.1 -1.95 -14.85 -2.85
Q -14.25 -4.7 -13.2 -6 Z"/>
</g>

<g id="Graphics_Symbol_265_0_Layer2_0_FILL">
<path fill="#000000" fill-opacity="0.25098039215686274" stroke="none" d="
M 13.55 -2.1
Q 12.65 -3.9 6.85 -6.95 0.05 -10.5 -5.45 -10.5 -10.55 -10.5 -13.65 -7.05 -16.6 -3.75 -16.6 1.4 -16.6 5.6 -13.1 5.9
L -7.45 5.4
Q -5.45 5.4 -4.05 7.05 -2.75 8.6 -2.75 10.65 -2.75 12.05 -4.8 14.8 -7.1 17.85 -9.2 17.85
L -11.4 17.25 -13.15 16.65
Q -15.15 16.65 -15.95 20.15 -16.4 21.9 -16.4 23.75 -16.4 24.55 -15.65 25.2 -14.95 25.9 -14.95 26.35
L -15.7 28.05
Q -14.75 30.85 -2.95 34.05 11.75 38.05 31 38.05 52.85 38.05 62.75 32.9 73.45 27.35 73.45 14.4 73.45 -0.1 65.45 -9.75 58.85 -17.75 52.45 -17.75 46.95 -17.75 42.75 -12.7 40.65 -10.15 36 -1.55 31.85 6.25 28.4 9.6 23.15 14.65 15.95 14.65
L 14.3 13.4
Q 13.25 12.6 14.1 14.6 9.7 13.3 9.7 9.55 9.7 8.6 12.65 4.5 15.15 1.05 13.55 -2.1
M 3.55 -3.55
Q 6.45 -2.2 6.45 -1.1
L 5 1.15
Q 3.55 3.95 3.55 7.25 3.55 13.15 7.95 16.6 11.8 19.6 17.05 19.6 28.1 19.6 33.4 15.35 36.9 12.45 39.05 5.95 41.4 -1.5 43 -3.5 46.45 -7.75 54.4 -7.75 62.7 -7.75 66.65 1.65 69.1 7.45 69.1 12.65 69.1 18.7 66.15 23.1 62.55 28.45 55.9 28.45 54.35 28.45 47.1 25.35 39.8 22.2 33.25 22.2 26.05 22.2 17.65 27 9.3 31.75 6.05 31.75 4.45 31.75 -0.6 29.4 -5.45 27.1 -5.45 26.7 -5.45 25.5 -0.5 22.1 4.4 18.75 4.4 15.85 4.4 14.65 3.25 11.15 1.85 6.95 0.05 3.95 -0.95 2.35 -4 0.45 -7.95 -2 -10.75 -0.8
L -11.3 -1.15
Q -11.3 -2.7 -10.5 -3.55 -9.05 -5.05 -3.4 -5.05 0.3 -5.05 3.55 -3.55
M -13.8 27.2
L -13.3 27.55
Q -12.9 27.9 -13.1 28
L -13.8 27.2 Z"/>
</g>

<g id="Graphics_Symbol_265_0_Layer1_0_FILL">
<path fill="#FFFFFF" fill-opacity="0.25098039215686274" stroke="none" d="
M 11 26.45
Q 11 25.45 9.45 24.75 7.9 24.05 5.7 24.05 3.5 24.05 1.95 24.75 0.4 25.45 0.4 26.45 0.4 27.45 1.95 28.15 3.5 28.85 5.7 28.85 7.9 28.85 9.45 28.15 11 27.45 11 26.45
M 65 14.15
Q 65 11.05 62.65 7.9 59.45 3.55 53.6 3.55 52.95 3.55 50.3 5.6 47.55 7.8 47.55 8.8 47.55 14 52.1 17.25 54.4 18.9 56.75 19.5 59.05 19.5 61.85 17.9 65 16.15 65 14.15
M 3.7 -0.1
Q 3.7 -0.85 2.5 -1.4 1.3 -1.95 -0.4 -1.95
L -3.3 -1.4
Q -4.5 -0.85 -4.5 -0.1 -4.5 0.65 -3.3 1.2
L -0.4 1.75
Q 1.3 1.75 2.5 1.2 3.7 0.65 3.7 -0.1 Z"/>
</g>

<g id="Graphics_Symbol_265_0_Layer0_0_FILL">
<path fill="#FFFFFF" stroke="none" d="
M 59.9 -0.15
Q 56.35 -4.9 50.75 -3.4 46.3 -1.05 45 0.85 50.45 5.2 63.95 11.05 65.15 10.7 64.5 10.25
L 63.55 6.6
Q 61.8 2.3 59.9 -0.15 Z"/>
</g>

<g id="Graphics_Symbol_553_0_Layer0_0_FILL">
<path fill="#6479CE" stroke="none" d="
M 55.1 18.15
Q 54.25 14 51.35 7.8 48.3 1.25 46 1.25 35.6 1.25 26.2 8.95 9.65 22.5 9.65 54.3
L 10.55 64.45
Q 11.4 74.25 11.4 80.8 11.4 94.95 8.45 103.85 5.5 112.7 6.75 115.35
L 8.15 118.75 8.2 119.9 7.85 121.15 7.45 123.15 5 129.1
Q 27.6 132.75 48.95 134.75 54.9 136.5 57.95 138.75 60.95 141 65.65 142.5 66.75 125.1 61.35 73.7 55.95 22.25 55.1 18.15 Z"/>
</g>

<g id="MovieClips_Symbol_587_0_Layer0_0_FILL">
<path fill="#000000" stroke="none" d="
M 59.95 37.15
Q 54.45 0 46 0 24.95 0 14.5 25.5 10.95 34.15 9.1 44.8 7.75 52.45 7.75 57.35 7.75 60.15 8.5 62
L 9 60.8
Q 8.9 73.15 6.05 98.2
L 3.1 124.4
Q 0 130 0 130.85 0 132.35 0.4 132.45
L 0.75 132.5 2.2 132.55 3.85 132.55
Q 44 133.4 52.4 136.65 54.8 137.55 58 140.4 61.3 143.25 66.25 145.25
L 67 144 67 99
Q 63 57.75 59.95 37.15
M 19.25 84.75
Q 16.9 86.9 15.5 94.75 13.8 104.15 12.75 106.5
L 8.55 114.65 9.75 107.9
Q 11.5 96.2 11.5 80.85 11.5 64.8 9.75 54.3 11.7 40.15 15.6 28.85 24.95 2 45 2 53 2 59.3 59.8 62.45 88.75 64 118.25
L 63.75 140.5
Q 57.85 137.05 56.15 136.2 53.95 135.15 50.3 134.7 34.05 133.3 5.1 129.1
L 4.95 129.05 5.2 128.1
Q 12.15 119.1 15.2 106.45 17.7 91.55 19.25 84.75 Z"/>
</g>

<g id="MovieClips_Symbol_623_0_Layer0_0_FILL">
<path fill="#000000" fill-opacity="0.25098039215686274" stroke="none" d="
M 61.7 48.9
Q 55.2 0 46 0 31.5 0 20.35 14.9 7.75 31.75 7.75 58.7 7.75 60.55 8.3 61.6
L 8.8 62.5 8.45 69.7 5.85 99.8
Q 5 110.65 3.15 123.3 2.25 127.85 1 129.15 0 130.15 0 130.85 0 132.1 0.15 132.2
L 2.8 132.45 29.2 133.45
Q 42.05 134.35 49.3 136.4 58.6 139.05 66.25 145.25
L 67 119.95
Q 67 88.5 61.7 48.9
M 30.5 27.25
Q 33.8 27.45 39.4 35.5 44.1 42.3 46.25 47.8 49.25 55.55 49.85 62.85 50.15 66.65 49.95 70 50.85 81.5 52.8 99.4 54.25 112.55 54.25 116.45 54.25 119.95 49.75 121.5 44.6 123.25 31.55 123.25
L 24.75 122.65 15.7 121.7
Q 20.25 118.4 22.25 116.05 24.95 112.95 25.85 109.1
L 29.55 92.7
Q 31 86 31 84.1 31 79.35 29 74 26.6 67.65 23.25 67.65 20.4 67.65 17.55 71.35
L 13.35 77.45
Q 19.9 53.05 24.15 41.65 25.25 38.6 30.5 27.25
M 14.65 78.15
L 12.4 81.2 16.2 75.7 16.1 76 14.65 78.15 Z"/>
</g>

<g id="MovieClips_Symbol_625_0_Layer0_0_FILL">
<path fill="#FFFFFF" fill-opacity="0.25098039215686274" stroke="none" d="
M 11 9.65
Q 11 8.1 12.2 5.5
L 13.35 2.7
Q 13.35 1.35 12.4 0 8.65 0.5 4.15 7.8 0 14.5 0 18
L 0.3 20.2
Q 0.2 20.3 0.05 20.35
L 0.55 20.45
Q 4.3 20.45 5.05 19.55 5.45 18.25 6.1 17.55 10.85 23.2 12.05 25.3 13.6 27.95 13.6 31
L 11.15 50.35
Q 8.65 69.15 8.65 74.1 8.65 75.95 10.4 77.15 12.6 78.65 16.8 78.65 20.9 78.65 20.9 75.35
L 17.75 70.1 19.75 51.75
Q 21.75 33.35 21.75 30.35 21.75 24.95 16.4 18.8
L 12.7 14.4
Q 11 11.9 11 9.65 Z"/>
</g>

<g id="MovieClips_Symbol_727_0_Layer0_0_FILL">
<path fill="#6479CE" stroke="none" d="
M 97.35 25.25
Q 94.15 16.3 85.3 16.5 76.45 16.7 72.85 20.65
L 67.05 27.1
Q 64.85 29.6 62.75 22.55 60.65 15.5 56.55 6.8 52.4 -1.9 43.15 -1.25 33.9 -0.6 26.95 2.25 19.95 5.1 19.7 6.65
L 22.45 5.7
Q 26.25 4.2 19.5 8.3 8.95 14.75 4.65 23.15 0.3 31.5 0.5 36.85
L 1.65 34.4
Q 2.65 35.35 3.2 35.15
L 1.05 46.45
Q 2.7 39.2 0 67.25 0 68.75 0.8 74.4 1.6 80.05 7.05 89.9 12.45 99.75 20.8 99.65 29.15 99.5 39.4 97.1 49.8 94.7 49.8 93.3 49.8 93 59.2 85.3
L 75.65 71.7
Q 81.05 67.05 87.25 62.4
L 96.45 55.3
Q 99.5 52.85 99.3 50.35 99.05 47.8 99.8 41 100.5 34.15 97.35 25.25 Z"/>
</g>

<g id="Graphics_Symbol_766_0_Layer0_0_FILL">
<path fill="#000000" stroke="none" d="
M 76.5 85.8
L 77.5 86.5 77.2 84.3 76.55 84.4
Q 75.6 84.15 74.65 81.15
L 74.1 79
Q 71.4 76.75 67 76.75 65.4 76.75 64 79.15 61.9 82.6 61 90.25
L 62 90.75
Q 63.5 85.8 64.5 83.5 66.25 79.5 70.25 79.5
L 71.45 80.85 76.5 85.8
M 24.3 13.65
Q 12.95 0.65 0.95 0.65
L -0.65 0.7 -0.45 0.8
Q 20.55 11.1 30.8 28.3 34.1 33.9 38.15 43.6
L 43.85 56.8 44.65 56.25
Q 37.35 28.55 24.3 13.65 Z"/>
</g>

<g id="MovieClips_Symbol_768_0_Layer0_0_FILL">
<path fill="#000000" stroke="none" d="
M 103.15 42.05
Q 103.15 28.45 97.65 21.95 93.7 17.25 88.4 17.25 81.2 17.25 76.1 20.85
L 71.85 24.2
Q 69.2 26.25 66.65 27.5 61.95 12.45 58.05 6.45 53.8 0 47.9 0 40.35 0 32.55 2.35 24.75 4.7 22.15 7.75
L 22.1 7.6 21.7 8.1 21.9 8.5 22.1 8.65
Q 18.9 9.9 12.75 15.95 5.6 23 1.55 30.35 2.3 30.35 7.15 25.3 3.45 33.25 2.5 36.35 0 44.65 0 56.4 0 72.7 6 86.5 13.2 103.1 25.05 103.1 32.2 103.1 40.15 101.35 52.65 98.6 60.3 92.35 59.8 92.15 57.05 93.05
L 53.05 94.6 53.05 94.5 84.35 69.9 79.65 74.75
Q 82.25 74.35 87.8 68.65 95.4 60.95 98.65 58.5
L 95.9 60.25 98.75 56.85 98.65 58.25 101.15 58.5
Q 101.95 58.5 102.6 51.8 103.15 46.15 103.15 42.05
M 97.2 29.75
Q 99.65 36.15 99.65 40.7 99.65 51.6 99.35 53.55 98.9 56.95 96.3 59.15
L 86.95 65.85
Q 78.1 72.35 68 81.8 59.35 89.9 54.5 92.9
L 51.9 94.55 51.8 94.55 52.6 94
Q 24.3 100.85 20.6 98.85 16.35 96.55 12.7 92.8 3.05 82.8 3.05 68.6 5.75 40.55 6.6 34.8
L 6.8 33.35 4.7 35.75 4.05 36.7
Q 3.35 32.85 8.2 25.65 15.3 15.25 31.3 4.85 27.05 6.3 22.9 8.25
L 22.15 8.65
Q 24.05 5.8 31.45 3.85 38.45 2 46 2 54.4 2 60.1 14.7
L 64.2 25.3
Q 66.45 31.6 67.9 34 72.05 27.55 74.45 25.35 79.8 20.25 87.15 20.25 93.6 20.25 97.2 29.75 Z"/>
</g>

<g id="Graphics_Symbol_806_0_Layer1_0_FILL">
<path fill="#000000" fill-opacity="0.25098039215686274" stroke="none" d="
M 91.6 84
Q 88.25 73.1 84.95 65.85 78.6 52 69.7 52 59.75 52 52.65 54.5 47.25 56.45 45.8 58.65 46.95 58.85 49.65 57.65
L 54.35 55.5
Q 40.5 64.1 32.6 74.5 26.4 82.7 27.05 86.4
L 27.7 86.45 29.85 84 27.7 97.25
Q 26.1 108.45 26.1 119.25 26.1 133.45 35.75 143.45 39.4 147.2 43.65 149.5 47.35 151.5 49.75 151.5 59.35 151.5 69.65 146.85 79.25 142.5 87.6 135.05 96.5 127.15 106.1 119.7 115.7 112.25 118.85 110.25 122 108.2 122.7 103.75 123.35 99.25 123.35 91.6 123.35 86.3 120.9 79.75 117.35 70.25 110.85 70.25 99.5 70.25 91.6 84
M 96.35 98.3
L 99.4 92.9
Q 103.9 85 111.5 85 114.45 85 115.3 90.25 115.6 92.2 115.6 97.75 115.6 104.6 114.3 107.1 112.8 110 108.5 110
L 104.85 107.5
Q 100.9 105 99 105 93.95 105 89.55 110.85 87.5 113.55 82.1 123.75 77.35 132.7 73.6 136.65 68 142.5 60.95 142.5 52.85 142.5 48.1 133.65 42.75 123.65 42.75 103.85 42.75 92.15 48.85 81.55 55.05 70.75 62.25 70.75 71 70.75 75.25 75.45 78.05 78.55 79.85 85.75 81.85 93.8 83.25 96.05 86.15 100.75 92.65 100.75 94.7 100.75 96.35 98.3 Z"/>
</g>

<g id="Graphics_Symbol_806_0_Layer0_0_FILL">
<path fill="#FFFFFF" fill-opacity="0.25098039215686274" stroke="none" d="
M 73.2 90.2
Q 71.75 87.05 69.05 87.05 66.35 87.05 62.05 91.65 56.1 98.05 56.1 108.05 56.1 116.1 56.6 118.45 58.2 125.95 64.35 125.95 65.75 125.95 69.3 120.7 72 116.7 73.2 114.2 73.7 113.15 74.2 109.4 74.8 105 74.8 100.65 74.8 93.65 73.2 90.2
M 114.4 94.05
Q 114.35 93.4 113.35 92.35 111.45 90.3 106.95 88.25 105.45 90.25 104.65 91.6 103.1 94.15 103.1 97.6 103.1 100.75 103.3 101.5 103.6 102.55 104.75 102.55 114.4 102.55 114.4 94.05 Z"/>
</g>

<g id="MovieClips_Symbol_895_0_Layer0_0_FILL">
<path fill="#FFFFFF" stroke="none" d="
M 109.9 45.45
L 106.4 48.05
Q 96.15 28.65 92.5 20.7 90.1 15.5 85.75 4.9
L 102.5 63.5 119.15 51.5
Q 115.3 51.5 112.6 49.75 109.9 47.95 109.9 45.45
M 117.75 40.55
L 121 40.35 117.45 40.2 116.25 40.7 117.75 40.55
M -27.2 183.5
L -27.5 185.25 70.3 186.5 154.4 185.15 135.5 16.25 127.1 38.5 127.8 49.5 146.8 174.5 69.8 175.5 -27.2 183.5
M 50.45 -160.9
Q 46.95 -167 41.4 -172.4 35.65 -178 30.3 -180.3 26.8 -181.75 14.1 -184.8 1.25 -187.85 -1.6 -187.85 -2.1 -187.85 -5.05 -182.15 -8.05 -176.5 -8.55 -176.5 -10.55 -176.5 -19.45 -180.2
L -28.1 -183.95
Q -33.7 -183.95 -46.55 -155.7 -56.4 -134 -59.45 -123.85
L -72.2 -137.5 -149.15 175.5 -154.15 176.6 -154.4 183.65 -35.25 185.15 -43.6 182.1 -104.2 175.5 -138.7 175.5 -29.25 -171.35 2.05 -171.95 19.8 -168.95 36.8 -166 64.05 -70.85
Q 61.05 -90.25 56.55 -131.9 54.05 -154.55 50.45 -160.9 Z"/>

<path fill="#FFFFFF" fill-opacity="0.5019607843137255" stroke="none" d="
M 121 40.35
L 117.75 40.55 116.25 40.7
Q 111.5 41.7 109.9 45.45 109.9 47.95 112.6 49.75 115.3 51.5 119.15 51.5
L 127.8 49.5 127.1 38.5 121 40.35
M -27.2 183.5
L -34.95 173.15 -4.05 11.1 -43.6 182.1 -35.25 185.15 -27.95 187.85 -27.5 185.25 -27.2 183.5
M 117.05 96.8
Q 109 81.5 101.3 74.5
L 114.8 128.5 108.45 160.55 123.85 131.6
Q 126.65 126.35 126.65 125.15
L 126.35 122.7
Q 125.15 112.35 117.05 96.8
M 89.4 84.6
L 92.4 80.35 67.8 23.5
Q 65.1 26.9 77 56.1 82.95 70.7 89.4 84.6
M -100.65 120.15
Q -98.7 112.4 -94.55 104.75 -92.45 100.95 -90.75 98.65
L -110.45 117.55 -100.65 120.15
M -30.7 -69
L -21.05 -67.9 -31.35 -97.8 -79.2 87.5 -87.15 95.2 -63.7 124 -52.7 -2 -34.9 19.25 -30.7 -69
M 6.5 -22.15
Q 4.85 -15.45 4.85 -14.45 4.85 -3.6 17.75 41.65 24.2 64.3 30.65 84.85 30.65 91.65 27.15 96.45 25 99.5 19.55 103.6 13.85 107.85 11.9 110.35 8.4 114.8 8.4 120.95 8.4 126.45 14.8 137.65 24.05 153.85 41.8 169.5
L 16.8 123
Q 22.1 114.95 27.55 111.55 30.55 109.7 34.85 108.25 37.85 106.75 38.95 102.3 40.25 96.95 40.25 82.85 40.25 61.6 29.65 34.9
L 18.8 9.25
Q 11.45 -8.15 6.5 -22.15
M 3.3 -147.5
L 14.05 -128.85 6.9 -67.05 46.75 -32.75 17.8 -66.5 14.45 -142.15 17.8 -161.5 -9.65 -155.15 -10 -150.4 3.3 -147.5 Z"/>

<path fill="#FFFFFF" fill-opacity="0.25098039215686274" stroke="none" d="
M 36.8 -166
L 19.8 -168.95 2.05 -171.95 -29.25 -171.35 -138.7 175.5 -104.2 175.5 -43.6 182.1 -4.05 11.1 -34.95 173.15 -27.2 183.5 69.8 175.5 146.8 174.5 127.8 49.5 119.15 51.5 102.5 63.5 85.75 4.9 64.05 -70.85 36.8 -166
M 14.05 -128.85
L 3.3 -147.5 -10 -150.4 -9.65 -155.15 17.8 -161.5 14.45 -142.15 17.8 -66.5 46.75 -32.75 6.9 -67.05 14.05 -128.85
M 4.85 -14.45
Q 4.85 -15.45 6.5 -22.15 11.45 -8.15 18.8 9.25
L 29.65 34.9
Q 40.25 61.6 40.25 82.85 40.25 96.95 38.95 102.3 37.85 106.75 34.85 108.25 30.55 109.7 27.55 111.55 22.1 114.95 16.8 123
L 41.8 169.5
Q 24.05 153.85 14.8 137.65 8.4 126.45 8.4 120.95 8.4 114.8 11.9 110.35 13.85 107.85 19.55 103.6 25 99.5 27.15 96.45 30.65 91.65 30.65 84.85 24.2 64.3 17.75 41.65 4.85 -3.6 4.85 -14.45
M -21.05 -67.9
L -30.7 -69 -34.9 19.25 -52.7 -2 -63.7 124 -87.15 95.2 -79.2 87.5 -31.35 -97.8 -21.05 -67.9
M -94.55 104.75
Q -98.7 112.4 -100.65 120.15
L -110.45 117.55 -90.75 98.65
Q -92.45 100.95 -94.55 104.75
M 92.4 80.35
L 89.4 84.6
Q 82.95 70.7 77 56.1 65.1 26.9 67.8 23.5
L 92.4 80.35
M 101.3 74.5
Q 109 81.5 117.05 96.8 125.15 112.35 126.35 122.7
L 126.65 125.15
Q 126.65 126.35 123.85 131.6
L 108.45 160.55 114.8 128.5 101.3 74.5 Z"/>
</g>
</defs>

<g transform="matrix( 1, 0, 0, 1, 0,0) ">
<g id="foot2" transform="matrix( 0.9968719482421875, -0.0035858154296875, 0.0035858154296875, 0.9968719482421875, -14.1,-33.95) ">
<g id="colorMC" transform="matrix( 1, 0, 0, 1, 0,0) ">
<g transform="matrix( 1, 0, 0, 1, 0,0) ">
<use xlink:href="#MovieClips_Symbol_228_0_Layer1_0_FILL"/>
</g>
</g>

<g transform="matrix( 1, 0, 0, 1, 0,0) ">
<g transform="matrix( 1, 0, 0, 1, 0,0) ">
<use xlink:href="#Graphics_Symbol_229_0_Layer0_0_FILL"/>
</g>
</g>

<g id="colorMC2" transform="matrix( 1, 0, 0, 1, 0,0) ">
<g transform="matrix( 1, 0, 0, 1, 0,0) ">
<g transform="matrix( 1, 0, 0, 1, 0,0) ">
<use xlink:href="#Graphics_Symbol_229_0_Layer0_0_FILL"/>
</g>
</g>
</g>

<g transform="matrix( 1, 0, 0, 1, 0,0) ">
<g transform="matrix( 1, 0, 0, 1, 0,0) ">
<use xlink:href="#Graphics_Symbol_265_0_Layer2_0_FILL"/>
</g>

<g transform="matrix( 1, 0, 0, 1, 0,0) ">
<use xlink:href="#Graphics_Symbol_265_0_Layer1_0_FILL"/>
</g>

<g transform="matrix( 1, 0, 0, 1, 0,0) ">
<use xlink:href="#Graphics_Symbol_265_0_Layer0_0_FILL"/>
</g>
</g>
</g>

<g id="body" transform="matrix( 0.9964599609375, 0.0022735595703125, -0.0022735595703125, 0.9964599609375, -47.95,-217.2) ">
<g id="colorMC_FL" transform="matrix( 1, 0, 0, 1, 0,0) ">
<g transform="matrix( 1, 0, 0, 1, 0,0) ">
<g transform="matrix( 1, 0, 0, 1, 0,0) ">
<use xlink:href="#Graphics_Symbol_553_0_Layer0_0_FILL"/>
</g>
</g>
</g>

<g transform="matrix( 1, 0, 0, 1, 0,0) ">
<g transform="matrix( 1, 0, 0, 1, 0,0) ">
<use xlink:href="#MovieClips_Symbol_587_0_Layer0_0_FILL"/>
</g>
</g>

<g id="colorMC2_FL" transform="matrix( 1, 0, 0, 1, 0,0) ">
<g transform="matrix( 1, 0, 0, 1, 0,0) ">
<g transform="matrix( 1, 0, 0, 1, 0,0) ">
<use xlink:href="#MovieClips_Symbol_587_0_Layer0_0_FILL"/>
</g>
</g>
</g>

<g transform="matrix( 1, 0, 0, 1, 0,0) ">
<g transform="matrix( 1, 0, 0, 1, 0,0) ">
<use xlink:href="#MovieClips_Symbol_623_0_Layer0_0_FILL"/>
</g>
</g>

<g transform="matrix( 1, 0, 0, 1, 25,39.6) ">
<g transform="matrix( 1, 0, 0, 1, 0,0) ">
<use xlink:href="#MovieClips_Symbol_625_0_Layer0_0_FILL"/>
</g>
</g>
</g>

<g id="foot1" transform="matrix( 0.9967041015625, 0.0046234130859375, -0.0046234130859375, 0.9967041015625, -36.65,-33.75) ">
<g id="colorMC_FL_FL" transform="matrix( 1, 0, 0, 1, 0,0) ">
<g transform="matrix( 1, 0, 0, 1, 0,0) ">
<use xlink:href="#MovieClips_Symbol_228_0_Layer1_0_FILL"/>
</g>
</g>

<g transform="matrix( 1, 0, 0, 1, 0,0) ">
<g transform="matrix( 1, 0, 0, 1, 0,0) ">
<use xlink:href="#Graphics_Symbol_229_0_Layer0_0_FILL"/>
</g>
</g>

<g id="colorMC2_FL_FL" transform="matrix( 1, 0, 0, 1, 0,0) ">
<g transform="matrix( 1, 0, 0, 1, 0,0) ">
<g transform="matrix( 1, 0, 0, 1, 0,0) ">
<use xlink:href="#Graphics_Symbol_229_0_Layer0_0_FILL"/>
</g>
</g>
</g>

<g transform="matrix( 1, 0, 0, 1, 0,0) ">
<g transform="matrix( 1, 0, 0, 1, 0,0) ">
<use xlink:href="#Graphics_Symbol_265_0_Layer2_0_FILL"/>
</g>

<g transform="matrix( 1, 0, 0, 1, 0,0) ">
<use xlink:href="#Graphics_Symbol_265_0_Layer1_0_FILL"/>
</g>

<g transform="matrix( 1, 0, 0, 1, 0,0) ">
<use xlink:href="#Graphics_Symbol_265_0_Layer0_0_FILL"/>
</g>
</g>
</g>

<g id="head" transform="matrix( 0.9633636474609375, 0.26373291015625, -0.26373291015625, 0.9633636474609375, -55.2,-394.9) ">
<g id="colorMC_FL_FL_FL" transform="matrix( 0.99969482421875, -0.0000152587890625, 0, 0.9999847412109375, 0,0) ">
<g transform="matrix( 1, 0, 0, 1, 25.45,52.75) ">
<g transform="matrix( 1, 0, 0, 1, 0,0) ">
<use xlink:href="#MovieClips_Symbol_727_0_Layer0_0_FILL"/>
</g>
</g>
</g>

<g transform="matrix( 1, 0, 0, 1, 0,0) ">
<g transform="matrix( 1, 0, 0, 1, 0,0) ">
<use xlink:href="#Graphics_Symbol_766_0_Layer0_0_FILL"/>
</g>
</g>

<g transform="matrix( 1, 0, 0, 1, 23.05,50.65) ">
<g transform="matrix( 1, 0, 0, 1, 0,0) ">
<use xlink:href="#MovieClips_Symbol_768_0_Layer0_0_FILL"/>
</g>
</g>

<g id="colorMC2_FL_FL_FL" transform="matrix( 1, 0, 0, 1, 0,0) ">
<g transform="matrix( 1, 0, 0, 1, 0,0) ">
<g transform="matrix( 1, 0, 0, 1, 0,0) ">
<use xlink:href="#Graphics_Symbol_766_0_Layer0_0_FILL"/>
</g>
</g>

<g transform="matrix( 1, 0, 0, 1, 23.05,50.65) ">
<g transform="matrix( 1, 0, 0, 1, 0,0) ">
<use xlink:href="#MovieClips_Symbol_768_0_Layer0_0_FILL"/>
</g>
</g>
</g>

<g transform="matrix( 1, 0, 0, 1, 0,0) ">
<g transform="matrix( 1, 0, 0, 1, 0,0) ">
<use xlink:href="#Graphics_Symbol_806_0_Layer1_0_FILL"/>
</g>

<g transform="matrix( 1, 0, 0, 1, 0,0) ">
<use xlink:href="#Graphics_Symbol_806_0_Layer0_0_FILL"/>
</g>
</g>

<g id="hat1" transform="matrix( 0.983917236328125, -0.17529296875, 0.17529296875, 0.983917236328125, 45.2,78.25) ">
<g id="colorMC_FL_FL_FL_FL" transform="matrix( 0.9999847412109375, 0, 0, 0.9999847412109375, 0,0) "/>

<g id="colorMC2_FL_FL_FL_FL" transform="matrix( 1, 0, 0, 1, 0,0) "/>
</g>

<g id="hat2" transform="matrix( 0.9733734130859375, -0.2247314453125, 0.2247314453125, 0.9733734130859375, 38,60.6) ">
<g id="colorMC_FL_FL_FL_FL_FL" transform="matrix( 0.9999847412109375, 0, 0, 0.9999847412109375, 0,0) "/>

<g id="colorMC2_FL_FL_FL_FL_FL" transform="matrix( 1, 0, 0, 1, 0,0) "/>
</g>

<g id="hat3" transform="matrix( 0.96026611328125, -0.2753753662109375, 0.2753753662109375, 0.96026611328125, 26,48.4) ">
<g id="colorMC_FL_FL_FL_FL_FL_FL" transform="matrix( 0.9999847412109375, 0, 0, 0.9999847412109375, 0,0) "/>

<g id="colorMC2_FL_FL_FL_FL_FL_FL" transform="matrix( 1, 0, 0, 1, 0,0) "/>
</g>

<g id="hat4" transform="matrix( 0.944580078125, -0.3252410888671875, 0.3252410888671875, 0.944580078125, 18.85,34.5) ">
<g id="colorMC_FL_FL_FL_FL_FL_FL_FL" transform="matrix( 0.9999847412109375, 0, 0, 0.9999847412109375, 0,0) "/>

<g id="colorMC2_FL_FL_FL_FL_FL_FL_FL" transform="matrix( 1, 0, 0, 1, 0,0) "/>
</g>
</g>

<g id="weapon" transform="matrix( 0.9983978271484375, 0.0478057861328125, -0.0478057861328125, 0.9983978271484375, 54.05,-159.65) "/>

<g transform="matrix( 1, 0, 0, 1, -1.8,-182.5) ">
<g transform="matrix( 1, 0, 0, 1, 0,0) ">
<use xlink:href="#MovieClips_Symbol_895_0_Layer0_0_FILL"/>
</g>
</g>
</g>
</svg>
