
<svg xmlns="http://www.w3.org/2000/svg" version="1.1" xmlns:xlink="http://www.w3.org/1999/xlink" preserveAspectRatio="none" x="0px" y="0px" width="550px" height="400px" viewBox="0 0 550 400">
<defs>
<radialGradient id="Gradient_1" gradientUnits="userSpaceOnUse" cx="0" cy="0" r="53.25" fx="0" fy="0" gradientTransform="matrix( 1, 0, 0, 1, 50,38) " spreadMethod="pad">
<stop  offset="0%" stop-color="#F4DFDF" stop-opacity="0.9803921568627451"/>

<stop  offset="100%" stop-color="#782121" stop-opacity="0.3333333333333333"/>
</radialGradient>

<linearGradient id="Gradient_2" gradientUnits="userSpaceOnUse" x1="50" y1="-1.3500000000000014" x2="50" y2="77.35" spreadMethod="pad">
<stop  offset="0%" stop-color="#FFFFFF" stop-opacity="0.5019607843137255"/>

<stop  offset="99.2156862745098%" stop-color="#000000"/>
</linearGradient>

<g id="Graphics_Symbol_917_0_Layer2_0_FILL">
<path fill="url(#Gradient_1)" stroke="none" d="
M 100 26.05
L 100 25
Q 100 14.65 92.7 7.3 85.35 0 75 0 64.65 0 57.35 7.3 50.1 14.55 50 24.7
L 50 25.35 50 24.7
Q 49.9 14.55 42.7 7.3 35.35 0 25 0 14.65 0 7.35 7.3 0 14.65 0 25
L 0.05 26.05
Q 19.8 55.15 50 76 79.15 58.2 100 26.05 Z"/>
</g>

<g id="Graphics_Symbol_917_0_Layer1_0_FILL">
<path fill="#FFFFFF" fill-opacity="0.3333333333333333" stroke="none" d="
M 19.05 20.45
L 20.55 15.5
Q 20.55 12.4 17.75 12.4 15.45 12.4 14.2 15.95 13.4 18.4 13.4 20.8 13.4 25.15 16.2 31.8 19.35 39.25 23.4 42.1 24.9 43.15 34.2 53.15
L 43.3 62.85
Q 44.65 62.85 45.7 61.95 46.5 61.35 46.5 60.8 46.5 55.45 42.2 50.4 39.9 47.65 32.8 41.75 26.1 36.25 23.35 32.55 19.05 26.85 19.05 20.45 Z"/>
</g>

<g id="Graphics_Symbol_917_0_Layer0_0_FILL">
<path fill="#000000" fill-opacity="0.10196078431372549" stroke="none" d="
M 87.9 16.05
Q 85.35 14.05 81.55 13.6 77.85 13.15 75.2 14.4 72.35 15.7 72.35 18.4 72.35 20.6 72.55 20.35
L 75.7 21.45 78.75 20.7 84 19.95 84 23.65
Q 81.3 30.65 67.65 43.6 61.15 49.8 59 52.25 55.25 56.6 55.25 59.2
L 55.25 61.5
Q 55.8 63.6 58.65 63.6 59.65 63.6 64.8 58.5 70.05 53.25 75.7 46.5 90.75 28.55 90.75 21.8 90.75 18.35 87.9 16.05 Z"/>
</g>

<path id="Graphics_Symbol_917_0_Layer2_0_1_STROKES" stroke="url(#Gradient_2)" stroke-width="1" stroke-linejoin="round" stroke-linecap="round" fill="none" d="
M 50 24.7
Q 50.1 14.55 57.35 7.3 64.65 0 75 0 85.35 0 92.7 7.3 100 14.65 100 25
L 100 26.05
Q 79.15 58.2 50 76 19.8 55.15 0.05 26.05
L 0 25
Q 0 14.65 7.35 7.3 14.65 0 25 0 35.35 0 42.7 7.3 49.9 14.55 50 24.7
L 50 25.35"/>
</defs>

<g transform="matrix( 1, 0, 0, 1, 0,0) ">
<g transform="matrix( 1, 0, 0, 1, 0,0) ">
<g transform="matrix( 1, 0, 0, 1, 0,0) ">
<use xlink:href="#Graphics_Symbol_917_0_Layer2_0_FILL"/>

<use xlink:href="#Graphics_Symbol_917_0_Layer2_0_1_STROKES"/>
</g>

<g transform="matrix( 1, 0, 0, 1, 0,0) ">
<use xlink:href="#Graphics_Symbol_917_0_Layer1_0_FILL"/>
</g>

<g transform="matrix( 1, 0, 0, 1, 0,0) ">
<use xlink:href="#Graphics_Symbol_917_0_Layer0_0_FILL"/>
</g>
</g>
</g>
</svg>
