<?xml version='1.0' encoding='utf-8'?>
<svg xmlns="http://www.w3.org/2000/svg" xmlns:xlink="http://www.w3.org/1999/xlink" version="1.1" width="550px" height="400px" viewBox="0 0 550 400" preserveAspectRatio="none" data-xfl-root="MovieClips/Symbol 1023">
  <g data-xfl-symbol="MovieClips/Symbol 1023">
    <g data-xfl-symbol="Graphics/Symbol 1022">
      <g data-svg-leaf="graphics_symbol_1022_20f42b2f33/t00_l002_f0000_r00.svg">
        <defs>
          <g id="xfl1_Layer0_0_FILL">
            <path fill="#C6DEF3" stroke="none" d=" M 8.6 -8.55 Q 5.05 -12.1 0 -12.1 -5.05 -12.1 -8.6 -8.55 -12.15 -5 -12.15 0 -12.15 5.05 -8.6 8.6 -5.05 12.15 0 12.15 5.05 12.15 8.6 8.6 12.15 5.05 12.15 0 12.15 -5 8.6 -8.55 Z" />
          </g>
        </defs>
        <g transform="matrix( 1, 0, 0, 1, 0,0) ">
          <use xlink:href="#xfl1_Layer0_0_FILL" />
        </g>
      </g>
      <g data-svg-leaf="graphics_symbol_1022_20f42b2f33/t00_l001_f0000_r00.svg">
        <defs>
          <g id="xfl2_Layer0_0_FILL">
            <path fill="#C6DEF3" fill-opacity="0.6588235294117647" stroke="none" d=" M -19.85 -6 Q -22.3 -8.5 -25.85 -8.5 -29.35 -8.5 -31.85 -6 -34.35 -3.5 -34.35 0 -34.35 3.5 -31.85 6 -29.35 8.5 -25.85 8.5 -22.3 8.5 -19.85 6 -17.35 3.5 -17.35 0 -17.35 -3.5 -19.85 -6 Z" />
            <path fill="#DCEDFC" fill-opacity="0.32941176470588235" stroke="none" d=" M -40.65 -4.3 Q -42.4 -6.05 -44.95 -6.05 -47.45 -6.05 -49.2 -4.3 -51 -2.5 -51 0.05 -51 2.5 -49.2 4.3 -47.45 6.05 -44.95 6.05 -42.4 6.05 -40.65 4.3 -38.9 2.5 -38.9 0.05 -38.9 -2.5 -40.65 -4.3 Z" />
          </g>
        </defs>
        <g transform="matrix( 1, 0, 0, 1, 0,0) ">
          <use xlink:href="#xfl2_Layer0_0_FILL" />
        </g>
      </g>
      <g data-svg-leaf="graphics_symbol_1022_20f42b2f33/t00_l000_f0000_r00.svg">
        <defs>
          <g id="xfl3_Layer0_0_FILL">
            <path fill="#DCEAF3" stroke="none" d=" M 16.5 25.3 Q 28 14.85 28 0 28 -14.85 16.5 -25.35 4.95 -35.8 -11.5 -35.8 L -18.95 -35.2 Q -7.3 -33.35 1.55 -25.35 13.1 -14.85 13.1 0 13.1 14.85 1.55 25.3 -7.3 33.35 -18.95 35.3 L -11.5 35.8 Q 4.95 35.8 16.5 25.3 Z" />
          </g>
        </defs>
        <g transform="matrix( 1, 0, 0, 1, 0,0) ">
          <use xlink:href="#xfl3_Layer0_0_FILL" />
        </g>
      </g>
    </g>
  </g>
</svg>