
<svg xmlns="http://www.w3.org/2000/svg" version="1.1" xmlns:xlink="http://www.w3.org/1999/xlink" preserveAspectRatio="none" x="0px" y="0px" width="550px" height="400px" viewBox="0 0 550 400">
<defs>
<g id="Graphics_Symbol_1022_0_Layer2_0_FILL">
<path fill="#C6DEF3" stroke="none" d="
M 8.6 -8.55
Q 5.05 -12.1 0 -12.1 -5.05 -12.1 -8.6 -8.55 -12.15 -5 -12.15 0 -12.15 5.05 -8.6 8.6 -5.05 12.15 0 12.15 5.05 12.15 8.6 8.6 12.15 5.05 12.15 0 12.15 -5 8.6 -8.55 Z"/>
</g>

<g id="Graphics_Symbol_1022_0_Layer1_0_FILL">
<path fill="#C6DEF3" fill-opacity="0.6588235294117647" stroke="none" d="
M -25.85 -8.5
Q -29.35 -8.5 -31.85 -6 -34.35 -3.5 -34.35 0 -34.35 3.5 -31.85 6 -29.35 8.5 -25.85 8.5 -22.3 8.5 -19.85 6 -17.35 3.5 -17.35 0 -17.35 -3.5 -19.85 -6 -22.3 -8.5 -25.85 -8.5 Z"/>

<path fill="#DCEDFC" fill-opacity="0.32941176470588235" stroke="none" d="
M -44.95 -6.05
Q -47.45 -6.05 -49.2 -4.3 -51 -2.5 -51 0.05 -51 2.5 -49.2 4.3 -47.45 6.05 -44.95 6.05 -42.4 6.05 -40.65 4.3 -38.9 2.5 -38.9 0.05 -38.9 -2.5 -40.65 -4.3 -42.4 -6.05 -44.95 -6.05 Z"/>
</g>

<g id="Graphics_Symbol_1022_0_Layer0_0_FILL">
<path fill="#DCEAF3" stroke="none" d="
M 13.1 0
Q 13.1 14.85 1.55 25.3 -7.3 33.35 -18.95 35.3
L -11.5 35.8
Q 4.95 35.8 16.5 25.3 28 14.85 28 0 28 -14.85 16.5 -25.35 4.95 -35.8 -11.5 -35.8
L -18.95 -35.2
Q -7.3 -33.35 1.55 -25.35 13.1 -14.85 13.1 0 Z"/>
</g>
</defs>

<g transform="matrix( 1, 0, 0, 1, 0,0) ">
<g transform="matrix( 1, 0, 0, 1, 0,0) ">
<g transform="matrix( 1, 0, 0, 1, 0,0) ">
<use xlink:href="#Graphics_Symbol_1022_0_Layer2_0_FILL"/>
</g>

<g transform="matrix( 1, 0, 0, 1, 0,0) ">
<use xlink:href="#Graphics_Symbol_1022_0_Layer1_0_FILL"/>
</g>

<g transform="matrix( 1, 0, 0, 1, 0,0) ">
<use xlink:href="#Graphics_Symbol_1022_0_Layer0_0_FILL"/>
</g>
</g>
</g>
</svg>
