<?xml version='1.0' encoding='utf-8'?>
<svg xmlns="http://www.w3.org/2000/svg" xmlns:xlink="http://www.w3.org/1999/xlink" version="1.1" width="550px" height="400px" viewBox="0 0 550 400" preserveAspectRatio="none" data-xfl-root="UI/Pages/Levels/In-Game/ItemDisplay">
  <g data-xfl-symbol="UI/Pages/Levels/In-Game/ItemDisplay">
    <g transform="matrix(0.7498474121 0 0 0.4998626709 0 0)">
      <g data-xfl-symbol="UI/Popups (outside levels)/BG">
        <g data-svg-leaf="ui_popups_outside_levels_bg_d14a954e12/t00_l000_f0000_r00.svg">
          <defs>
            <linearGradient id="xfl22_Gradient_1" gradientUnits="userSpaceOnUse" x1="-0.4750000000000014" y1="50.15" x2="100.775" y2="50.15" spreadMethod="pad">
              <stop offset="0%" stop-color="#9D9D9D" stop-opacity="0.4" />
              <stop offset="100%" stop-color="#FFFFFF" stop-opacity="0.6470588235294118" />
            </linearGradient>
            <linearGradient id="xfl22_Gradient_2" gradientUnits="userSpaceOnUse" x1="-0.4750000000000014" y1="50.15" x2="100.775" y2="50.15" spreadMethod="pad">
              <stop offset="0%" stop-color="#333333" />
              <stop offset="100%" stop-color="#999999" />
            </linearGradient>
            <g id="xfl22_Layer0_0_FILL">
              <path fill="url(#xfl22_Gradient_1)" stroke="none" d=" M 95.8 -0.45 L 4.55 -0.45 Q -0.45 -0.45 -0.45 4.55 L -0.45 95.8 Q -0.45 100.8 4.55 100.8 L 95.8 100.8 Q 100.8 100.8 100.8 95.8 L 100.8 4.55 Q 100.8 -0.45 95.8 -0.45 Z" />
            </g>
            <path id="xfl22_Layer0_0_1_STROKES" stroke="url(#xfl22_Gradient_2)" stroke-width="0" stroke-linejoin="round" stroke-linecap="round" fill="none" d=" M 0.005554962158203114 95.05616683959961 L 0.005554962158203114 4.93258972167969 Q 0.005554962158203114 -0.005688476562497158 4.9438331604003904 -0.005688476562497158 L 95.06741027832031 -0.005688476562497158 Q 100.0056884765625 -0.005688476562497158 100.0056884765625 4.93258972167969 L 100.0056884765625 95.05616683959961 Q 100.0056884765625 99.9944450378418 95.06741027832031 99.9944450378418 L 4.9438331604003904 99.9944450378418 Q 0.005554962158203114 99.9944450378418 0.005554962158203114 95.05616683959961 Z" />
          </defs>
          <g transform="matrix( 0, -0.9876556396484375, 0.9876556396484375, 0, 0.45,99.55) ">
            <use xlink:href="#xfl22_Layer0_0_FILL" />
            <use xlink:href="#xfl22_Layer0_0_1_STROKES" transform="matrix( 0, 1.0124969482421875, -1.0124969482421875, 0, 100.75,-0.45) " />
          </g>
        </g>
      </g>
    </g>
    <g transform="matrix(0.7250518799 0 0 0.724609375 25.6 25.1)">
      <g data-xfl-symbol="MovieClips/Symbol 867">
        <g data-xfl-symbol="Graphics/Symbol 866">
          <g data-svg-leaf="graphics_symbol_866_72607f57d2/t00_l002_f0000_r00.svg">
            <defs>
              <g id="xfl23_Layer0_0_FILL">
                <path fill="#666666" stroke="none" d=" M 18.35 17.3 L 11.25 24.45 18.8 24.75 18.35 17.3 M -7.3 25.35 L -3.75 25.35 -3.65 22.9 -7.3 25.35 M -13.95 19.35 L -17.8 19.85 -16.2 25.35 -10.2 25.35 -12.45 23.9 -13.5 25 -15.9 24.9 -13.95 19.35 M -13.85 -14.85 L -11.7 -12.05 -17.8 17.35 -16.3 15.7 Q -11.9 10.5 -10.5 14.25 L -6.15 10.45 -3 15 -11.85 23.2 -0.3 13.75 -1.4 17.55 -1.25 19.2 Q 2.4 13.95 5.25 12.5 L 5.25 14.25 7 13 Q 8.25 13.25 9.75 14.75 3.95 20.85 -1.15 25.3 L 3.15 25.3 Q 6.6 15.65 15.65 12.45 L 15.75 15.05 Q 16.9 13.65 17.7 13.2 16.55 5.2 14.65 -2.65 5.95 -38.35 -13.85 -14.85 M 5.25 25.25 L 6.75 24.75 6.35 24.55 5.25 25.25 Z" />
                <path fill="#FFFF00" stroke="none" d=" M 19.95 14.65 L 19.7 12.95 17.7 13.2 Q 16.9 13.65 15.75 15.05 14.6 17.55 9.3 24.4 L 10.8 24.9 11.25 24.45 18.35 17.3 19.95 14.65 M -1.25 19.2 Q -1.35 21.45 -3.55 22.85 L -3.65 22.9 -3.75 25.35 -1.15 25.3 Q 3.95 20.85 9.75 14.75 8.25 13.25 7 13 L 5.25 14.25 5.25 12.5 Q 2.4 13.95 -1.25 19.2 M -10.5 14.25 Q -10.5 18.1 -13.95 19.35 L -15.9 24.9 -13.5 25 -12.45 23.9 -11.85 23.2 -3 15 -6.15 10.45 -10.5 14.25 Z" />
                <path fill="#000000" stroke="none" d=" M -11.7 -12.05 L -13.85 -14.85 Q 5.95 -38.35 14.65 -2.65 16.55 5.2 17.7 13.2 L 19.7 12.95 Q 18.85 -10.75 2.4 -25.25 -2.15 -29.25 -6.85 -24.35 -22.1 -8.4 -20.75 14.75 L -20.6 20.2 -22.75 22.5 -21 21.2 -21.45 26.8 21.3 26.9 19.95 14.65 18.35 17.3 18.8 24.75 11.25 24.45 10.8 24.9 9.3 24.4 Q 14.6 17.55 15.75 15.05 L 15.65 12.45 Q 6.6 15.65 3.15 25.3 L -1.15 25.3 -3.75 25.35 -7.3 25.35 -3.65 22.9 -3.55 22.85 Q -1.35 21.45 -1.25 19.2 L -1.4 17.55 -0.3 13.75 -11.85 23.2 -12.45 23.9 -10.2 25.35 -16.2 25.35 -17.8 19.85 -13.95 19.35 Q -10.5 18.1 -10.5 14.25 -11.9 10.5 -16.3 15.7 L -17.8 17.35 -11.7 -12.05 M 6.75 24.75 L 5.25 25.25 6.35 24.55 6.75 24.75 Z" />
              </g>
            </defs>
            <g transform="matrix( 1, 0, 0, 1, 0,0) ">
              <use xlink:href="#xfl23_Layer0_0_FILL" />
            </g>
          </g>
          <g data-svg-leaf="graphics_symbol_866_72607f57d2/t00_l001_f0000_r00.svg">
            <defs>
              <g id="xfl24_Layer0_0_FILL">
                <path fill="#000000" fill-opacity="0.25098039215686274" stroke="none" d=" M 7.05 -16.65 Q -6.15 -36.9 -14.3 -14.65 -22.95 8.95 -11.05 25.4 -10.15 26.65 -8.35 26.55 L 0.15 26.9 -2.2 26.5 14.25 25 11.05 26.4 20.5 25.75 21.4 23.55 Q 18.95 1.6 7.05 -16.65 M -10.65 -1.7 Q -7.6 -14.7 1.75 -20.5 10.5 -6.8 11.4 10.75 11.55 13.65 12 16.5 5.6 18.55 -1.3 17.5 L -6.9 16.65 Q -8.45 16.1 -9.5 14.7 -12.55 6.4 -10.65 -1.7 Z" />
              </g>
            </defs>
            <g transform="matrix( 1, 0, 0, 1, 0,0) ">
              <use xlink:href="#xfl24_Layer0_0_FILL" />
            </g>
          </g>
          <g data-svg-leaf="graphics_symbol_866_72607f57d2/t00_l000_f0000_r00.svg">
            <defs>
              <g id="xfl25_Layer0_0_FILL">
                <path fill="#FFFFFF" fill-opacity="0.25098039215686274" stroke="none" d=" M 2.5 -22.25 L 0.5 -22 Q 1.1 -20.2 -0.1 -19.6 -1.5 -18.9 -1.5 -17.35 -1.5 -15.25 3.9 -4.9 9.2 5.15 10.75 6.5 L 11.5 5.25 Q 10.5 2.8 6.95 -11.4 4.25 -22.25 2.5 -22.25 Z" />
              </g>
            </defs>
            <g transform="matrix( 1, 0, 0, 1, 0,0) ">
              <use xlink:href="#xfl25_Layer0_0_FILL" />
            </g>
          </g>
        </g>
      </g>
    </g>
  </g>
</svg>