<?xml version='1.0' encoding='utf-8'?>
<svg xmlns="http://www.w3.org/2000/svg" xmlns:xlink="http://www.w3.org/1999/xlink" version="1.1" width="550px" height="400px" viewBox="0 0 550 400" preserveAspectRatio="none" data-xfl-root="UI/Pages/Levels/In-Game/ItemDisplay">
  <g data-xfl-symbol="UI/Pages/Levels/In-Game/ItemDisplay">
    <g transform="matrix(0.7498474121 0 0 0.4998626709 0 0)">
      <g data-xfl-symbol="UI/Popups (outside levels)/BG">
        <g data-svg-leaf="ui_popups_outside_levels_bg_d14a954e12/t00_l000_f0000_r00.svg">
          <defs>
            <linearGradient id="xfl78_Gradient_1" gradientUnits="userSpaceOnUse" x1="-0.4750000000000014" y1="50.15" x2="100.775" y2="50.15" spreadMethod="pad">
              <stop offset="0%" stop-color="#9D9D9D" stop-opacity="0.4" />
              <stop offset="100%" stop-color="#FFFFFF" stop-opacity="0.6470588235294118" />
            </linearGradient>
            <linearGradient id="xfl78_Gradient_2" gradientUnits="userSpaceOnUse" x1="-0.4750000000000014" y1="50.15" x2="100.775" y2="50.15" spreadMethod="pad">
              <stop offset="0%" stop-color="#333333" />
              <stop offset="100%" stop-color="#999999" />
            </linearGradient>
            <g id="xfl78_Layer0_0_FILL">
              <path fill="url(#xfl78_Gradient_1)" stroke="none" d=" M 95.8 -0.45 L 4.55 -0.45 Q -0.45 -0.45 -0.45 4.55 L -0.45 95.8 Q -0.45 100.8 4.55 100.8 L 95.8 100.8 Q 100.8 100.8 100.8 95.8 L 100.8 4.55 Q 100.8 -0.45 95.8 -0.45 Z" />
            </g>
            <path id="xfl78_Layer0_0_1_STROKES" stroke="url(#xfl78_Gradient_2)" stroke-width="0" stroke-linejoin="round" stroke-linecap="round" fill="none" d=" M 0.005554962158203114 95.05616683959961 L 0.005554962158203114 4.93258972167969 Q 0.005554962158203114 -0.005688476562497158 4.9438331604003904 -0.005688476562497158 L 95.06741027832031 -0.005688476562497158 Q 100.0056884765625 -0.005688476562497158 100.0056884765625 4.93258972167969 L 100.0056884765625 95.05616683959961 Q 100.0056884765625 99.9944450378418 95.06741027832031 99.9944450378418 L 4.9438331604003904 99.9944450378418 Q 0.005554962158203114 99.9944450378418 0.005554962158203114 95.05616683959961 Z" />
          </defs>
          <g transform="matrix( 0, -0.9876556396484375, 0.9876556396484375, 0, 0.45,99.55) ">
            <use xlink:href="#xfl78_Layer0_0_FILL" />
            <use xlink:href="#xfl78_Layer0_0_1_STROKES" transform="matrix( 0, 1.0124969482421875, -1.0124969482421875, 0, 100.75,-0.45) " />
          </g>
        </g>
      </g>
    </g>
    <g transform="matrix(0.388885498 0 0 0.388885498 25 25)">
      <g data-xfl-symbol="MovieClips/Symbol 863">
        <g data-xfl-symbol="Graphics/Symbol 862">
          <g data-svg-leaf="graphics_symbol_862_de6fe72ad6/t00_l001_f0000_r00.svg">
            <defs>
              <radialGradient id="xfl79_Gradient_1" gradientUnits="userSpaceOnUse" cx="0" cy="0" r="46.150000000000006" fx="0" fy="0" gradientTransform="matrix( 1, 0, 0, 1, 0,0) " spreadMethod="pad">
                <stop offset="0%" stop-color="#FFFF00" />
                <stop offset="100%" stop-color="#FF0000" stop-opacity="0" />
              </radialGradient>
              <g id="xfl79_Layer0_0_FILL">
                <path fill="url(#xfl79_Gradient_1)" stroke="none" d=" M 31.8 -31.85 Q 18.65 -45 0 -45 -18.65 -45 -31.85 -31.85 -45 -18.65 -45 0 -45 18.65 -31.85 31.8 -18.65 45 0 45 18.65 45 31.8 31.8 45 18.65 45 0 45 -18.65 31.8 -31.85 Z" />
              </g>
              <path id="xfl79_Layer0_0_1_STROKES" stroke="#FFFFFF" stroke-width="3" stroke-linejoin="round" stroke-linecap="round" fill="none" d=" M 31.8 -31.85 Q 45 -18.65 45 0 45 18.65 31.8 31.8 18.65 45 0 45 -18.65 45 -31.85 31.8 -45 18.65 -45 0 -45 -18.65 -31.85 -31.85 -18.65 -45 0 -45 18.65 -45 31.8 -31.85 Z" />
            </defs>
            <g transform="matrix( 1, 0, 0, 1, 0,0) ">
              <use xlink:href="#xfl79_Layer0_0_FILL" />
              <use xlink:href="#xfl79_Layer0_0_1_STROKES" />
            </g>
          </g>
          <g data-svg-leaf="graphics_symbol_862_de6fe72ad6/t00_l000_f0000_r00.svg">
            <defs>
              <g id="xfl80_Layer0_0_FILL">
                <path fill="#FFFFFF" stroke="none" d=" M -34.25 -10.5 Q -38.55 -6.2 -38.55 -0.1 -38.55 6 -34.25 10.3 -29.95 14.55 -23.85 14.55 -17.75 14.55 -13.45 10.3 -9.2 6 -9.15 -0.1 -9.2 -6.2 -13.45 -10.5 -17.75 -14.8 -23.85 -14.8 -29.95 -14.8 -34.25 -10.5 Z" />
              </g>
              <path id="xfl80_Layer0_0_1_STROKES" stroke="#000000" stroke-width="3" stroke-linejoin="round" stroke-linecap="round" fill="none" d=" M 38.6 -0.1 Q 38.55 6 34.3 10.3 30 14.55 23.9 14.55 17.8 14.55 13.5 10.3 9.2 6 9.2 -0.1 9.2 -6.2 13.5 -10.5 17.8 -14.8 23.9 -14.8 30 -14.8 34.3 -10.5 38.55 -6.2 38.6 -0.1 Z M -9.15 -0.1 Q -9.2 6 -13.45 10.3 -17.75 14.55 -23.85 14.55 -29.95 14.55 -34.25 10.3 -38.55 6 -38.55 -0.1 -38.55 -6.2 -34.25 -10.5 -29.95 -14.8 -23.85 -14.8 -17.75 -14.8 -13.45 -10.5 -9.2 -6.2 -9.15 -0.1 Z M -2.5 -5.75 L 3.25 0 -3.25 6.5" />
            </defs>
            <g transform="matrix( 1, 0, 0, 1, 0,0) ">
              <use xlink:href="#xfl80_Layer0_0_FILL" />
              <use xlink:href="#xfl80_Layer0_0_1_STROKES" />
            </g>
          </g>
        </g>
      </g>
    </g>
  </g>
</svg>