<?xml version='1.0' encoding='utf-8'?>
<svg xmlns="http://www.w3.org/2000/svg" xmlns:xlink="http://www.w3.org/1999/xlink" version="1.1" width="550px" height="400px" viewBox="0 0 550 400" preserveAspectRatio="none" data-xfl-root="UI/Pages/Levels/In-Game/ItemDisplay">
  <g data-xfl-symbol="UI/Pages/Levels/In-Game/ItemDisplay">
    <g transform="matrix(0.7498474121 0 0 0.4998626709 0 0)">
      <g data-xfl-symbol="UI/Popups (outside levels)/BG">
        <g data-svg-leaf="ui_popups_outside_levels_bg_d14a954e12/t00_l000_f0000_r00.svg">
          <defs>
            <linearGradient id="xfl147_Gradient_1" gradientUnits="userSpaceOnUse" x1="-0.4750000000000014" y1="50.15" x2="100.775" y2="50.15" spreadMethod="pad">
              <stop offset="0%" stop-color="#9D9D9D" stop-opacity="0.4" />
              <stop offset="100%" stop-color="#FFFFFF" stop-opacity="0.6470588235294118" />
            </linearGradient>
            <linearGradient id="xfl147_Gradient_2" gradientUnits="userSpaceOnUse" x1="-0.4750000000000014" y1="50.15" x2="100.775" y2="50.15" spreadMethod="pad">
              <stop offset="0%" stop-color="#333333" />
              <stop offset="100%" stop-color="#999999" />
            </linearGradient>
            <g id="xfl147_Layer0_0_FILL">
              <path fill="url(#xfl147_Gradient_1)" stroke="none" d=" M 95.8 -0.45 L 4.55 -0.45 Q -0.45 -0.45 -0.45 4.55 L -0.45 95.8 Q -0.45 100.8 4.55 100.8 L 95.8 100.8 Q 100.8 100.8 100.8 95.8 L 100.8 4.55 Q 100.8 -0.45 95.8 -0.45 Z" />
            </g>
            <path id="xfl147_Layer0_0_1_STROKES" stroke="url(#xfl147_Gradient_2)" stroke-width="0" stroke-linejoin="round" stroke-linecap="round" fill="none" d=" M 0.005554962158203114 95.05616683959961 L 0.005554962158203114 4.93258972167969 Q 0.005554962158203114 -0.005688476562497158 4.9438331604003904 -0.005688476562497158 L 95.06741027832031 -0.005688476562497158 Q 100.0056884765625 -0.005688476562497158 100.0056884765625 4.93258972167969 L 100.0056884765625 95.05616683959961 Q 100.0056884765625 99.9944450378418 95.06741027832031 99.9944450378418 L 4.9438331604003904 99.9944450378418 Q 0.005554962158203114 99.9944450378418 0.005554962158203114 95.05616683959961 Z" />
          </defs>
          <g transform="matrix( 0, -0.9876556396484375, 0.9876556396484375, 0, 0.45,99.55) ">
            <use xlink:href="#xfl147_Layer0_0_FILL" />
            <use xlink:href="#xfl147_Layer0_0_1_STROKES" transform="matrix( 0, 1.0124969482421875, -1.0124969482421875, 0, 100.75,-0.45) " />
          </g>
        </g>
      </g>
    </g>
    <g transform="matrix(0.2928161621 -0.0794219971 0.0794219971 0.2928161621 29.4 24.7)">
      <g data-xfl-symbol="MovieClips/Symbol 880">
        <g data-xfl-symbol="Graphics/Symbol 879">
          <g data-svg-leaf="graphics_symbol_879_4477cbc7ff/t00_l006_f0000_r00.svg">
            <defs>
              <g id="xfl148_Layer0_0_FILL">
                <path fill="#85858E" stroke="none" d=" M -19.7 3.4 L -21.05 2.1 -23.35 1.9 Q -25.65 2.2 -48.6 7.9 -62.6 11.4 -67.35 13.05 -73.6 15.2 -75.3 17.6 -76.95 19.8 -76.05 24.35 L -73 35.95 Q -69.65 49.5 -66.85 54.9 -64.5 59.5 -62.1 58.9 -60.15 58.4 -59.8 57.6 L -59 55.15 Q -56.6 50.15 -43.05 41.55 -35.05 36.45 -29 35.1 -24.4 34.6 -23.5 33.9 -22.55 33.05 -22.05 26.95 L -19.7 3.4 M -27.75 8.85 L -29.7 29.45 -62.6 46.65 -69.55 19.55 -27.75 8.85 M 4.6 73.15 L 19.15 69.5 10.3 34 -4.25 37.65 4.6 73.15 M 6.7 67.75 Q 4.95 59.05 5.1 50.4 5.2 41.7 6.9 41.1 18.65 61.55 6.7 67.75 Z" />
                <path fill="#B8B8B8" stroke="none" d=" M -29.7 29.45 L -27.75 8.85 -69.55 19.55 -62.6 46.65 -29.7 29.45 M 5.1 50.4 Q 4.95 59.05 6.7 67.75 18.65 61.55 6.9 41.1 5.2 41.7 5.1 50.4 Z" />
              </g>
            </defs>
            <g transform="matrix( 1, 0, 0, 1, 0,0) ">
              <use xlink:href="#xfl148_Layer0_0_FILL" />
            </g>
          </g>
          <g data-svg-leaf="graphics_symbol_879_4477cbc7ff/t00_l005_f0000_r00.svg">
            <defs>
              <linearGradient id="xfl149_Gradient_1" gradientUnits="userSpaceOnUse" x1="22.450000000000003" y1="54.175000000000004" x2="-0.7500000000000018" y2="-38.775" spreadMethod="pad">
                <stop offset="0%" stop-color="#9DCCD7" />
                <stop offset="100%" stop-color="#E1EAF7" />
              </linearGradient>
              <g id="xfl149_Layer0_0_FILL">
                <path fill="#FFFFFF" stroke="none" d=" M 27.95 -64.5 Q 17.35 -72.5 0.55 -68.35 -0.45 -68.1 -3.7 -65.7 -9.25 -61.75 -24.85 -49.7 L -31.9 -54.3 Q -39.7 -35.5 -41.25 -23.6 -42.5 -13.65 -39.75 -2.6 -39.2 -0.3 -34.55 6.9 L -30.1 13.6 -29.45 25.45 -28.65 29.5 Q -25.2 43.3 -16.55 48.65 -10.25 52.6 -4.2 51.1 -0.75 50.25 0.1 46 0.85 42.2 -0.7 39.7 L 20.25 59.15 18.7 59.6 19.25 61.75 Q 25.4 64.3 26.4 64.05 31.45 62.8 35.75 55.45 39.45 49.2 40.7 42.55 41.6 37.3 44.75 5.2 48 -29 47.3 -31.95 L 46.4 -33.7 40.35 -40.15 Q 39.5 -40.95 39.4 -41.5 L 38.6 -47.9 Q 35.95 -58.55 27.95 -64.5 M 14.75 -40.95 L 17.35 -40.95 Q 21.65 -41.9 30.4 -46.45 L 34.3 -42 Q 38.35 -37.45 39.1 -36.85 40.1 -35.95 41.55 -33.15 42.55 -29.15 41.6 -14.05 40.6 0.3 37.25 33.9 36.2 44.6 33.3 51.05 30.25 57.65 25.65 58.8 24.65 59.05 21.25 54.55 L 13.8 44.7 Q 2.35 30.5 -5.45 32.4 L -7.55 33 -4.7 44.3 -14.55 46.2 -26.4 19.35 Q -25.6 16.45 -25.5 15.4 -25.35 13.8 -27.15 6.55 -28.35 1.65 -31.75 -3.7 -35.2 -9.05 -35.95 -12 -37.25 -17.1 -36.3 -20.15 -34.3 -25 -32.8 -30.9 L 14.75 -40.95 M -13.45 -15 L -15.6 -12.55 -0.7 23.4 -13.45 -15 M 21.3 -25.4 Q 18.6 -21.1 19.55 -15.45 L 31.85 35.95 33.65 34.15 26.5 -23.25 Q 24.15 -29.85 21.3 -25.4 Z" />
                <path fill="url(#xfl149_Gradient_1)" stroke="none" d=" M 17.35 -40.95 L 14.75 -40.95 -32.8 -30.9 Q -34.3 -25 -36.3 -20.15 -37.25 -17.1 -35.95 -12 -35.2 -9.05 -31.75 -3.7 -28.35 1.65 -27.15 6.55 -25.35 13.8 -25.5 15.4 -25.6 16.45 -26.4 19.35 L -14.55 46.2 -4.7 44.3 -7.55 33 -5.45 32.4 Q 2.35 30.5 13.8 44.7 L 21.25 54.55 Q 24.65 59.05 25.65 58.8 30.25 57.65 33.3 51.05 36.2 44.6 37.25 33.9 40.6 0.3 41.6 -14.05 42.55 -29.15 41.55 -33.15 40.1 -35.95 39.1 -36.85 38.35 -37.45 34.3 -42 L 30.4 -46.45 Q 21.65 -41.9 17.35 -40.95 M 19.55 -15.45 Q 18.6 -21.1 21.3 -25.4 24.15 -29.85 26.5 -23.25 L 33.65 34.15 31.85 35.95 19.55 -15.45 M -15.6 -12.55 L -13.45 -15 -0.7 23.4 -15.6 -12.55 Z" />
              </g>
            </defs>
            <g transform="matrix( 1, 0, 0, 1, 0,0) ">
              <use xlink:href="#xfl149_Layer0_0_FILL" />
            </g>
          </g>
          <g data-svg-leaf="graphics_symbol_879_4477cbc7ff/t00_l004_f0000_r00.svg">
            <defs>
              <g id="xfl150_Layer0_0_FILL">
                <path fill="#FFFFFF" stroke="none" d=" M -43.25 27.8 L -47.95 26.4 -35.85 62.85 -43.25 27.8 M -61.7 20.95 L -62.55 24.3 -67.2 23.1 Q -66.5 27.1 -54.1 65.9 L -60.65 21.4 -61.7 20.95 M -13.8 36.35 L -13.55 41.5 -17.25 31.3 -18.4 31.5 -5 59.4 -5.6 52.3 -2.45 51.8 -13.8 36.35 M 19.25 55.2 L 29.95 79.6 30.1 63.75 Q 27.9 62.05 26.9 62.25 25.95 62.5 25.45 63.7 L 19.25 55.2 Z" />
                <path fill="#85858E" stroke="none" d=" M 33.05 44.5 L 31.8 44.45 Q 28.95 45.15 27.2 47.55 25.65 49.75 26.1 51.55 27.15 55.85 31.65 54.7 40.1 61.25 41.2 60.3 41.95 61.8 43.1 62.5 L 45.9 62.65 Q 47.3 62.3 49.4 60.35 52.15 57.8 51.55 55.3 L 50.85 53.5 Q 45.5 55.7 42.25 56.1 42.4 55.3 40.55 52.6 36.75 47.25 35.4 46 34.1 44.7 33.05 44.5 M 65.1 -2.6 L 63.3 -9.95 Q 48.9 -3.15 31.15 -1.9 L 32.95 5.45 Q 45.95 -3.35 65.1 -2.6 M 29.4 -56.35 L 30.45 -56.9 30.25 -58.3 Q 28.75 -62.15 26.85 -63.2 23.05 -65.4 20.7 -52.5 L 22.35 -52.4 Q 19.9 -43.75 16.65 -37.4 L 14.2 -32.65 Q 15.15 -28.75 22.15 -30.5 24.5 -31.05 26.15 -32.55 28.1 -34.35 27.6 -36.25 27.45 -36.95 26.5 -37.9 25.5 -38.95 24.35 -39.3 27 -53.8 29.4 -56.35 Z" />
              </g>
            </defs>
            <g transform="matrix( 1, 0, 0, 1, 0,0) ">
              <use xlink:href="#xfl150_Layer0_0_FILL" />
            </g>
          </g>
          <g data-svg-leaf="graphics_symbol_879_4477cbc7ff/t00_l003_f0000_r00.svg">
            <defs>
              <g id="xfl151_Layer0_0_FILL">
                <path fill="#FFFFFF" stroke="none" d=" M 45.9 56.7 Q 44.95 56.95 44.45 57.75 44 58.55 44.25 59.45 44.45 60.4 45.25 60.85 L 47 61.1 Q 47.9 60.85 48.4 60.05 48.8 59.3 48.6 58.35 48.35 57.45 47.6 56.95 46.8 56.45 45.9 56.7 M 59.85 -3.1 Q 60.65 -3.3 61.1 -4 61.5 -4.7 61.3 -5.55 61.1 -6.35 60.4 -6.75 L 58.85 -7 Q 58 -6.8 57.65 -6.1 57.2 -5.4 57.4 -4.6 57.6 -3.75 58.35 -3.35 59 -2.9 59.85 -3.1 M 25.65 -56.4 L 27.45 -57.4 Q 28.05 -58.15 27.9 -58.8 27.75 -59.5 26.85 -59.8 25.95 -60.1 24.85 -59.8 23.75 -59.55 23.05 -58.85 22.45 -58.15 22.6 -57.45 22.75 -56.8 23.65 -56.45 L 25.65 -56.4 Z" />
              </g>
            </defs>
            <g transform="matrix( 1, 0, 0, 1, 0,0) ">
              <use xlink:href="#xfl151_Layer0_0_FILL" />
            </g>
          </g>
          <g data-svg-leaf="graphics_symbol_879_4477cbc7ff/t00_l002_f0000_r00.svg">
            <defs>
              <g id="xfl152_Layer0_0_FILL">
                <path fill="#FFFFFF" fill-opacity="0.32941176470588235" stroke="none" d=" M -39.3 19.65 Q -36.9 18.95 -34.95 6.2 -46.65 7 -55.3 10.65 L -76.15 19.2 Q -66.8 39.95 -65.7 49.7 -65.15 54.7 -64.8 54.6 -61.8 50.45 -62.2 44.85 L -63.75 35.75 Q -64.65 30.75 -62.6 27.95 -59.95 24.25 -51.55 22.15 L -39.3 19.65 Z" />
              </g>
            </defs>
            <g transform="matrix( 1, 0, 0, 1, 0,0) ">
              <use xlink:href="#xfl152_Layer0_0_FILL" />
            </g>
          </g>
          <g data-svg-leaf="graphics_symbol_879_4477cbc7ff/t00_l001_f0000_r00.svg">
            <defs>
              <g id="xfl153_Layer0_0_FILL">
                <path fill="#000000" fill-opacity="0.32941176470588235" stroke="none" d=" M -29.55 31.6 L -32.9 23.8 Q -56.45 32.95 -61.2 36.55 -64.35 38.95 -65 41.8 -65.55 44.2 -64.45 48.55 -63.9 50.85 -62.7 52.6 -61.9 53.75 -61.1 54.3 L -29.55 31.6 M 34.6 53.25 L 34.5 53.2 Q 27.1 49.25 25.45 53.35 L 28.2 54.75 Q 28.05 55.5 28.35 56.6 L 28.75 58.25 Q 29.25 59.1 30.3 59.3 L 30.1 59.65 Q 30.35 60.5 30.75 60.8 L 31.15 60.95 31.75 61.05 32.85 60.05 32.5 59.35 33.1 59.2 34.75 58.55 35.2 58.05 36.6 58.75 Q 44.65 62.5 45.25 62.35 L 45.85 61.65 46.35 60.55 Q 38.65 55.4 34.6 53.25 M 13.3 45.45 Q 10.15 39.2 8.45 42.5 7.75 43.8 7.25 46.55 6.95 48.65 7.35 52.3 L 8.3 60 Q 8.55 63.35 6.9 67.35 L 5.5 71.25 Q 5.7 71.15 5.8 71.45 6.3 72.3 7.25 72.3 L 10.65 71.5 Q 18.1 70.35 17.85 67.65 L 17.2 61.55 Q 16.8 58.1 17.45 56.3 15.85 50.55 13.3 45.45 M 29.5 -54.6 L 29.2 -55.4 Q 29 -55.4 29 -55.5 27.4 -54.85 24.15 -48.3 20.85 -41.8 21.25 -40.2 21.4 -39.45 22.85 -37.75 24.7 -35.6 26.35 -36 L 27.3 -36.4 27.5 -36.8 27.55 -37.6 25.3 -39.35 Q 24.45 -39.75 24.35 -40.25 24.1 -41.15 26.9 -47.55 29.65 -53.95 29.5 -54.6 Z" />
                <path fill="#000000" fill-opacity="0.10196078431372549" stroke="none" d=" M 40.55 5 L 40.75 2.6 37.45 4.25 37.6 4.45 38.7 4.2 Q 39.3 4.05 40.55 5 M 16.05 -56.1 Q 10.2 -52.35 6.35 -51.4 L 12.35 -36.5 Q 12.4 -36.1 10 -32.35 7.35 -28.25 7.2 -24.05 7.15 -22.6 7.7 -19.5 L 8.4 -15.7 Q 8.6 -15.05 11.45 -9.35 L 14.25 -3.7 Q 14.55 -2.6 14.3 -0.85 L 5.25 -0.9 22.7 23.45 Q 21.9 22.95 18.65 22.8 L 10.45 22 14.4 28.25 Q 14.65 29.35 13.65 29.75 L -13.35 10.4 -15.55 19.25 -17.85 15.9 Q -20.3 12.65 -20.9 12.8 -24.15 13.6 -25.7 15.8 -27.8 18.85 -26.45 24.2 -25.25 29 -16.8 35.85 -12.55 39.4 -7.3 43.05 L -4.7 38.75 Q -2 34.5 -1.4 34.35 1.5 33.6 5.2 38.1 L 8.45 42.5 Q 10.15 39.2 13.3 45.45 15.85 50.55 17.45 56.3 L 19.15 58.35 Q 23.1 62.75 26.35 61.95 L 31.15 60.95 30.75 60.8 Q 30.35 60.5 30.1 59.65 L 30.3 59.3 Q 29.25 59.1 28.75 58.25 L 28.35 56.6 Q 28.05 55.5 28.2 54.75 L 25.45 53.35 Q 27.1 49.25 34.5 53.2 L 36.05 47.2 Q 38.05 38.7 40.2 10 39 10.1 36.65 8.35 L 35.05 7 Q 33.7 6.85 33.2 5.75 32.6 3.6 32 3 L 30.8 -1.8 Q 33.1 -2.5 33.95 -0.15 34.9 2.3 35.65 2.1 L 40.95 -1.05 41.85 -16.15 Q 41.2 -15.45 40.1 -15.2 39.85 -15.15 37.35 -16.75 34.9 -18.3 34.9 -18.45 L 34.95 -19.4 Q 33 -19.65 33.25 -20.8 L 34 -23.35 33.95 -23.5 33.65 -23.4 Q 32.25 -23.05 27.3 -26 L 26.75 -26.35 24.6 -26.45 Q 19.4 -26.8 17.4 -28.6 L 18.1 -29.25 Q 15.75 -29.6 14.6 -31.6 L 14.85 -32.3 15.85 -32.9 Q 16.65 -33.1 17.75 -32.4 L 20.25 -32.2 Q 22.85 -32.85 25.6 -34.9 28.1 -36.8 29 -36.9 29.3 -36.7 29.6 -35.5 L 29.8 -35.6 30 -35.35 30.35 -34.55 Q 30.5 -33.9 30.15 -32.95 29.75 -31.9 29.9 -31.35 L 36.05 -26.75 Q 40.75 -23.15 42.15 -21.25 L 42.65 -30.75 28.3 -57.1 Q 29.2 -57.6 29.5 -58.55 29.8 -59.4 29.55 -60.1 27.25 -56.7 14.45 -62.5 L 16.05 -56.1 M 29.2 -55.4 L 29.5 -54.6 Q 29.65 -53.95 26.9 -47.55 24.1 -41.15 24.35 -40.25 24.45 -39.75 25.3 -39.35 L 27.55 -37.6 27.5 -36.8 27.3 -36.4 26.35 -36 Q 24.7 -35.6 22.85 -37.75 21.4 -39.45 21.25 -40.2 20.85 -41.8 24.15 -48.3 27.4 -54.85 29 -55.5 29 -55.4 29.2 -55.4 Z" />
                <path fill="#000000" fill-opacity="0.2" stroke="none" d=" M 33.95 -0.15 Q 33.1 -2.5 30.8 -1.8 L 32 3 Q 32.6 3.6 33.2 5.75 33.7 6.85 35.05 7 L 36.65 8.35 Q 39 10.1 40.2 10 L 40.4 9.95 Q 41.85 9.6 42.5 8.7 43 7.9 42.75 7.05 L 40.55 5 Q 39.3 4.05 38.7 4.2 L 37.6 4.45 37.45 4.25 40.75 2.6 42.95 1.25 Q 47.45 -0.95 56.7 -2.35 L 57.35 -2.85 Q 57.75 -3.25 57.55 -4 57.35 -4.75 56.9 -4.8 L 56.05 -4.8 46 -2.75 Q 43.2 -2.05 40.95 -1.05 L 35.65 2.1 Q 34.9 2.3 33.95 -0.15 M 29.9 -31.35 Q 29.75 -31.9 30.15 -32.95 30.5 -33.9 30.35 -34.55 L 30 -35.35 29.8 -35.6 29.6 -35.5 Q 29.3 -36.7 29 -36.9 28.1 -36.8 25.6 -34.9 22.85 -32.85 20.25 -32.2 L 17.75 -32.4 Q 16.65 -33.1 15.85 -32.9 L 14.85 -32.3 14.6 -31.6 Q 15.75 -29.6 18.1 -29.25 L 17.4 -28.6 Q 19.4 -26.8 24.6 -26.45 L 26.75 -26.35 27.3 -26 Q 32.25 -23.05 33.65 -23.4 L 33.95 -23.5 34 -23.35 33.25 -20.8 Q 33 -19.65 34.95 -19.4 L 34.9 -18.45 Q 34.9 -18.3 37.35 -16.75 39.85 -15.15 40.1 -15.2 41.2 -15.45 41.85 -16.15 L 42.6 -17.45 Q 43 -18.85 42.65 -20.25 L 42.15 -21.25 Q 40.75 -23.15 36.05 -26.75 L 29.9 -31.35 Z" />
              </g>
            </defs>
            <g transform="matrix( 1, 0, 0, 1, 0,0) ">
              <use xlink:href="#xfl153_Layer0_0_FILL" />
            </g>
          </g>
          <g data-svg-leaf="graphics_symbol_879_4477cbc7ff/t00_l000_f0000_r00.svg">
            <defs>
              <g id="xfl154_Layer0_0_FILL">
                <path fill="#FFFFFF" stroke="none" d=" M -16.9 -17.35 Q -12.95 -22.2 -13.05 -22.65 -13.65 -24.95 -16.15 -26.3 -18.85 -27.85 -22.35 -27 -37.05 -23.3 -27.1 -8.7 L -19.35 1.05 Q -15.75 5.4 -17.15 5.8 -16.4 5.6 -15.85 4.75 -15.2 3.6 -15.6 1.85 L -20.75 -12.05 Q -20.85 -12.55 -16.9 -17.35 Z" />
              </g>
            </defs>
            <g transform="matrix( 1, 0, 0, 1, 0,0) ">
              <use xlink:href="#xfl154_Layer0_0_FILL" />
            </g>
          </g>
        </g>
      </g>
    </g>
  </g>
</svg>