<?xml version='1.0' encoding='utf-8'?>
<svg xmlns="http://www.w3.org/2000/svg" xmlns:xlink="http://www.w3.org/1999/xlink" version="1.1" width="550px" height="400px" viewBox="0 0 550 400" preserveAspectRatio="none" data-xfl-root="UI/Pages/Levels/In-Game/ItemDisplay">
  <g data-xfl-symbol="UI/Pages/Levels/In-Game/ItemDisplay">
    <g transform="matrix(0.7498474121 0 0 0.4998626709 0 0)">
      <g data-xfl-symbol="UI/Popups (outside levels)/BG">
        <g data-svg-leaf="ui_popups_outside_levels_bg_d14a954e12/t00_l000_f0000_r00.svg">
          <defs>
            <linearGradient id="xfl112_Gradient_1" gradientUnits="userSpaceOnUse" x1="-0.4750000000000014" y1="50.15" x2="100.775" y2="50.15" spreadMethod="pad">
              <stop offset="0%" stop-color="#9D9D9D" stop-opacity="0.4" />
              <stop offset="100%" stop-color="#FFFFFF" stop-opacity="0.6470588235294118" />
            </linearGradient>
            <linearGradient id="xfl112_Gradient_2" gradientUnits="userSpaceOnUse" x1="-0.4750000000000014" y1="50.15" x2="100.775" y2="50.15" spreadMethod="pad">
              <stop offset="0%" stop-color="#333333" />
              <stop offset="100%" stop-color="#999999" />
            </linearGradient>
            <g id="xfl112_Layer0_0_FILL">
              <path fill="url(#xfl112_Gradient_1)" stroke="none" d=" M 95.8 -0.45 L 4.55 -0.45 Q -0.45 -0.45 -0.45 4.55 L -0.45 95.8 Q -0.45 100.8 4.55 100.8 L 95.8 100.8 Q 100.8 100.8 100.8 95.8 L 100.8 4.55 Q 100.8 -0.45 95.8 -0.45 Z" />
            </g>
            <path id="xfl112_Layer0_0_1_STROKES" stroke="url(#xfl112_Gradient_2)" stroke-width="0" stroke-linejoin="round" stroke-linecap="round" fill="none" d=" M 0.005554962158203114 95.05616683959961 L 0.005554962158203114 4.93258972167969 Q 0.005554962158203114 -0.005688476562497158 4.9438331604003904 -0.005688476562497158 L 95.06741027832031 -0.005688476562497158 Q 100.0056884765625 -0.005688476562497158 100.0056884765625 4.93258972167969 L 100.0056884765625 95.05616683959961 Q 100.0056884765625 99.9944450378418 95.06741027832031 99.9944450378418 L 4.9438331604003904 99.9944450378418 Q 0.005554962158203114 99.9944450378418 0.005554962158203114 95.05616683959961 Z" />
          </defs>
          <g transform="matrix( 0, -0.9876556396484375, 0.9876556396484375, 0, 0.45,99.55) ">
            <use xlink:href="#xfl112_Layer0_0_FILL" />
            <use xlink:href="#xfl112_Layer0_0_1_STROKES" transform="matrix( 0, 1.0124969482421875, -1.0124969482421875, 0, 100.75,-0.45) " />
          </g>
        </g>
      </g>
    </g>
    <g transform="matrix(0.3606109619 -0.0966186523 0.0966186523 0.3606109619 25.95 25.1)">
      <g data-xfl-symbol="MovieClips/Symbol 857">
        <g data-xfl-symbol="Graphics/Symbol 856">
          <g data-svg-leaf="graphics_symbol_856_73b652b6e2/t00_l002_f0000_r00.svg">
            <defs>
              <g id="xfl113_Layer0_0_FILL">
                <path fill="#000000" stroke="none" d=" M 61.5 -5.15 L 58.45 -17.35 58.95 -20.95 0.2 -19.1 Q 5.05 -43 -20.95 -37.5 -27.95 -36 -34.6 -39 L -37.4 -39.15 -45.2 -28.3 Q -53.25 -2.75 -60.3 24.6 -61.8 30.45 -60.8 36.65 L -60.55 37 -59.4 37.05 -61.05 38.85 Q -45.85 37.7 -32.5 24.95 L -30.4 24.75 -30.1 22.75 -28.65 20.35 -25.45 2.25 -15.7 3.6 -15.5 1.8 61.5 -5.15 M 54.6 -17.4 L 56.15 -9.25 -24.2 -1.9 -28.1 1.1 Q -32.45 8.3 -33.1 16.95 L -33.25 19.8 -58.55 36.3 -53.35 13.05 -53.3 13 Q -51.8 8.75 -49.9 4.5 L -51.55 3.3 Q -51.1 2.35 -47.95 0.25 -40.6 -10.9 -39.55 -23.85 L -39.5 -24.65 Q -33.3 -41.7 -11.6 -34.4 -7.65 -33.15 -3.35 -33.25 L -2.15 -20.05 -3.3 -19 -3.2 -18.9 Q -2.65 -18.8 -2.4 -18.45 -2 -17.95 -1.9 -17.2 -1.5 -15.2 -0.05 -18.55 L 54.6 -17.4 Z" />
                <path fill="#2F3025" stroke="none" d=" M -29.05 -2.65 L -28.15 -1.5 -26.85 -1.9 -29.05 -2.65 Z" />
                <path fill="#83836B" stroke="none" d=" M -45.7 -1.65 L -46.15 -1.6 -47.95 0.25 Q -51.1 2.35 -51.55 3.3 L -49.9 4.5 Q -51.8 8.75 -53.3 13 L -53.35 13.05 -58.55 36.3 -33.25 19.8 -33.1 16.95 Q -32.45 8.3 -28.1 1.1 L -28.15 -1.5 -29.05 -2.65 Q -37.35 -4.45 -45.7 -1.65 Z" />
                <path fill="#D2D8C9" stroke="none" d=" M 56.15 -9.25 L 54.6 -17.4 -0.05 -18.55 Q -1.5 -15.2 -1.9 -17.2 -2 -17.95 -2.4 -18.45 -2.65 -18.8 -3.2 -18.9 L -3.3 -19 -2.15 -20.05 -3.35 -33.25 Q -7.65 -33.15 -11.6 -34.4 -33.3 -41.7 -39.5 -24.65 L -39.55 -23.85 Q -40.6 -10.9 -47.95 0.25 L -46.15 -1.6 -45.7 -1.65 Q -37.35 -4.45 -29.05 -2.65 L -26.85 -1.9 -28.15 -1.5 -28.1 1.1 -24.2 -1.9 56.15 -9.25 M -16.5 -31.1 L -14 -31.1 -12.45 -29.75 Q -11.55 -28.7 -11.55 -26.15 -11.55 -23.75 -12.4 -21.1 L -13.6 -17.3 -15.65 -16.9 -16.5 -18.15 -16.5 -31.1 Z" />
                <path fill="#EE0000" stroke="none" d=" M -14 -31.1 L -16.5 -31.1 -16.5 -18.15 -15.65 -16.9 -13.6 -17.3 -12.4 -21.1 Q -11.55 -23.75 -11.55 -26.15 -11.55 -28.7 -12.45 -29.75 L -14 -31.1 Z" />
              </g>
            </defs>
            <g transform="matrix( 1, 0, 0, 1, 0,0) ">
              <use xlink:href="#xfl113_Layer0_0_FILL" />
            </g>
          </g>
          <g data-svg-leaf="graphics_symbol_856_73b652b6e2/t00_l001_f0000_r00.svg">
            <defs>
              <g id="xfl114_Layer0_0_FILL">
                <path fill="#000000" fill-opacity="0.25098039215686274" stroke="none" d=" M 5.95 -5.95 L 1.35 -5.95 Q 1.6 -10.3 0.05 -14.1 -0.45 -15.3 -1.5 -15.55 L -14.1 -5.6 -13.05 -4.35 -10.8 -3.9 Q -31.35 -6 -34.8 10.5 -38.1 26.25 -55.65 30.3 -50.3 6.1 -37.2 -14.45 -33.25 -20.7 -30.1 -27.5 -21.6 -33.75 -11.05 -33.2 -9.85 -27.15 -12.75 -22.75 -16.05 -17.7 -19.55 -18.05 -22.65 -20.85 -22.35 -25.35 -22.2 -27.3 -22.55 -29.3 L -22.95 -31 Q -28.4 -25.5 -26.95 -16.8 -26.55 -14.35 -24.95 -12.7 -45.6 0.35 -8.05 -15 L -9.55 -33.25 -5.65 -33.45 -14.6 -35.3 Q -14.05 -38.65 -27.1 -33.75 L -26.8 -36.45 -28.4 -37.3 -30.25 -36.05 -32.2 -36.45 Q -38.25 -28.05 -43.45 -17.7 -48.35 -7.9 -49.95 2.4 L -47.45 0.4 Q -54.4 12.9 -60.3 31.05 -60.8 32.55 -60.6 34.15 L -52.35 35.25 -37.15 19.9 -35.7 29.2 -34 29.45 Q -34.7 14.25 -25.15 5.2 -19.4 -0.35 1.8 -1.7 L 42.25 -4.2 Q 61.5 -5.3 59.15 -11.65 56.75 -18 56.9 -19.8 L 6.35 -18.2 Q -2.9 -17.85 -2.65 -22.55 -2.4 -27.25 0.2 -32.3 L -3.65 -33.05 -2.4 -16.35 6.2 -15.85 6 -15.85 14.45 -15.4 11.7 -15.8 52.8 -15.65 50.7 -11.95 5.95 -5.95 Z" />
              </g>
            </defs>
            <g transform="matrix( 1, 0, 0, 1, 0,0) ">
              <use xlink:href="#xfl114_Layer0_0_FILL" />
            </g>
          </g>
          <g data-svg-leaf="graphics_symbol_856_73b652b6e2/t00_l000_f0000_r00.svg">
            <defs>
              <g id="xfl115_Layer0_0_FILL">
                <path fill="#FFFFFF" stroke="none" d=" M -37.2 18.9 Q -33 11.8 -33.15 1.95 -33.2 -0.6 -35.65 -0.85 L -37.2 18.9 M -9.2 -36.9 L -10.4 -36 -20.85 -35.85 Q -11.35 -34.45 -6.4 -24.15 -5.4 -22.05 -3.4 -22.4 -2.2 -31.3 -9.2 -36.9 M -12.4 -27.1 Q -13 -29.4 -14.1 -26.4 L -14.3 -25.45 -13 -23.85 -12.4 -27.1 M 21.75 -12.4 L 36.95 -13.1 Q 43.95 -13.15 50.5 -15.3 L 34.15 -15.2 40.5 -17.2 -5.25 -14.6 Q 7.55 -10.4 21.75 -12.4 Z" />
              </g>
            </defs>
            <g transform="matrix( 1, 0, 0, 1, 0,0) ">
              <use xlink:href="#xfl115_Layer0_0_FILL" />
            </g>
          </g>
        </g>
      </g>
    </g>
  </g>
</svg>