<?xml version='1.0' encoding='utf-8'?>
<svg xmlns="http://www.w3.org/2000/svg" xmlns:xlink="http://www.w3.org/1999/xlink" version="1.1" width="550px" height="400px" viewBox="0 0 550 400" preserveAspectRatio="none" data-xfl-root="UI/Pages/Levels/In-Game/Effects/LaserShot">
  <g data-xfl-symbol="UI/Pages/Levels/In-Game/Effects/LaserShot">
    <g transform="matrix(0.182510376 0 0 0.2941741943 -43.25 0)">
      <g data-xfl-symbol="MovieClips/Symbol 869">
        <g data-svg-leaf="movieclips_symbol_869_0f7d628e98/t00_l000_f0000_r00.svg">
          <defs>
            <radialGradient id="xfl1_Gradient_1" gradientUnits="userSpaceOnUse" cx="0" cy="0" r="107.80000000000001" fx="0" fy="0" gradientTransform="matrix( 0.9999999999999999, 0, 0, 0.9999999999999999, 0,0) " spreadMethod="pad">
              <stop offset="0%" stop-color="#FFFFFF" />
              <stop offset="100%" stop-color="#FFFFFF" stop-opacity="0" />
            </radialGradient>
            <linearGradient id="xfl1_Gradient_2" gradientUnits="userSpaceOnUse" x1="-108" y1="0" x2="108" y2="0" spreadMethod="pad">
              <stop offset="0%" stop-color="#FFFFFF" stop-opacity="0" />
              <stop offset="100%" stop-color="#FFFFFF" />
            </linearGradient>
            <g id="xfl1_Layer0_0_FILL">
              <path fill="url(#xfl1_Gradient_1)" stroke="none" d=" M 75.65 -75.65 Q 44.3 -107 0 -107 -44.3 -107 -75.65 -75.65 -107 -44.3 -107 0 -107 44.3 -75.65 75.65 -44.3 107 0 107 44.3 107 75.65 75.65 107 44.3 107 0 107 -44.3 75.65 -75.65 Z" />
            </g>
            <path id="xfl1_Layer0_0_1_STROKES" stroke="url(#xfl1_Gradient_2)" stroke-width="2" stroke-linejoin="round" stroke-linecap="round" fill="none" d=" M 75.65 -75.65 Q 107 -44.3 107 0 107 44.3 75.65 75.65 44.3 107 0 107 -44.3 107 -75.65 75.65 -107 44.3 -107 0 -107 -44.3 -75.65 -75.65 -44.3 -107 0 -107 44.3 -107 75.65 -75.65 Z" />
          </defs>
          <g transform="matrix( 1, 0, 0, 1, 0,0) ">
            <use xlink:href="#xfl1_Layer0_0_FILL" />
            <use xlink:href="#xfl1_Layer0_0_1_STROKES" />
          </g>
        </g>
      </g>
    </g>
  </g>
</svg>