<?xml version='1.0' encoding='utf-8'?>
<svg xmlns="http://www.w3.org/2000/svg" xmlns:xlink="http://www.w3.org/1999/xlink" version="1.1" width="550px" height="400px" viewBox="0 0 550 400" preserveAspectRatio="none" data-xfl-root="UI/Pages/Levels/In-Game/Effects/LaserShot">
  <g data-xfl-symbol="UI/Pages/Levels/In-Game/Effects/LaserShot">
    <g transform="matrix(1 0 0 1 -21.6 0)">
      <g data-xfl-symbol="MovieClips/Symbol 1005">
        <g data-svg-leaf="movieclips_symbol_1005_29f39da321/t00_l000_f0000_r00.svg">
          <defs>
            <radialGradient id="xfl5_Gradient_1" gradientUnits="userSpaceOnUse" cx="0" cy="0" r="36.6" fx="0" fy="0" gradientTransform="matrix( 1, 0, 0, 0.2957650273224044, 21.6,0) " spreadMethod="pad">
              <stop offset="0%" stop-color="#FFFFFF" />
              <stop offset="100%" stop-color="#FFFFFF" stop-opacity="0" />
            </radialGradient>
            <g id="xfl5_Layer0_0_FILL">
              <path fill="url(#xfl5_Gradient_1)" stroke="none" d=" M 11.2 7.45 Q 21.6 4.35 21.6 0 21.6 -4.35 11.2 -7.4 0.8 -10.5 -13.9 -10.5 L -21.65 -10.25 -21.65 10.3 -13.9 10.5 Q 0.8 10.5 11.2 7.45 Z" />
            </g>
          </defs>
          <g transform="matrix( 1, 0, 0, 1, 0,0) ">
            <use xlink:href="#xfl5_Layer0_0_FILL" />
          </g>
        </g>
      </g>
    </g>
    <g transform="matrix(1 0 0 1 -20 0)">
      <g data-xfl-symbol="MovieClips/Symbol 1008">
        <g data-svg-leaf="movieclips_symbol_1008_9c4b2d15f4/t00_l000_f0000_r00.svg">
          <defs>
            <path id="xfl6_Layer0_0_1_STROKES" stroke="#FDFD02" stroke-width="3" stroke-linejoin="round" stroke-linecap="round" fill="none" d=" M -20 0 L 20 0" />
          </defs>
          <g transform="matrix( 1, 0, 0, 1, 0,0) ">
            <use xlink:href="#xfl6_Layer0_0_1_STROKES" />
          </g>
        </g>
      </g>
    </g>
    <g transform="matrix(0.5599060059 0 0 1 -0.35 0.25)">
      <g data-xfl-symbol="MovieClips/Symbol 1010">
        <g data-svg-leaf="movieclips_symbol_1010_339d366e31/t00_l000_f0000_r00.svg">
          <defs>
            <linearGradient id="xfl7_Gradient_1" gradientUnits="userSpaceOnUse" x1="0.7250000000000014" y1="-0.25" x2="-70.82499999999999" y2="-0.25" spreadMethod="pad">
              <stop offset="0%" stop-color="#FFFFFF" stop-opacity="0" />
              <stop offset="100%" stop-color="#FFFF00" />
            </linearGradient>
            <g id="xfl7_Layer0_0_FILL">
              <path fill="url(#xfl7_Gradient_1)" stroke="none" d=" M -70 -1.1 Q -71.25 -1.1 -70.6 -1 L -70.35 0.25 -42.35 1.25 -7.45 1.25 -26.9 6.4 Q -39.5 9.6 -46.35 11.8 L -46.25 12.25 Q -32.6 8.85 -26.75 7.8 -2.35 3.4 -0.4 0.3 L 0.65 0.1 0.75 -0.75 -0.25 -1 -0.3 -1 -42 -11.85 Q -43.25 -11.85 -47 -12.75 -48.25 -12.75 -47.25 -12.6 L -47.25 -12.5 Q -42.15 -10.45 -25.45 -5.45 -11.75 -1.35 -5.65 -0.15 L -70 -1.1 Z" />
            </g>
          </defs>
          <g transform="matrix( 1, 0, 0, 1, 0,0) ">
            <use xlink:href="#xfl7_Layer0_0_FILL" />
          </g>
        </g>
      </g>
    </g>
    <g transform="matrix(7.285949707 0 0 7.285949707 0 0)">
      <g data-xfl-symbol="MovieClips/Symbol 1012">
        <g data-svg-leaf="movieclips_symbol_1012_57c2280b16/t00_l000_f0000_r00.svg">
          <defs>
            <radialGradient id="xfl8_Gradient_1" gradientUnits="userSpaceOnUse" cx="0" cy="0" r="6.050000000000001" fx="0" fy="0" gradientTransform="matrix( 1, 0, 0, 1, 0,0) " spreadMethod="pad">
              <stop offset="0%" stop-color="#FFFF00" />
              <stop offset="100%" stop-color="#FFFFFF" stop-opacity="0" />
            </radialGradient>
            <g id="xfl8_Layer0_0_FILL">
              <path fill="url(#xfl8_Gradient_1)" stroke="none" d=" M 3.9 -3.9 Q 2.3 -5.5 0 -5.5 -2.3 -5.5 -3.9 -3.9 -5.5 -2.3 -5.5 0 -5.5 2.3 -3.9 3.9 -2.3 5.5 0 5.5 2.3 5.5 3.9 3.9 5.5 2.3 5.5 0 5.5 -2.3 3.9 -3.9 Z" />
            </g>
          </defs>
          <g transform="matrix( 1, 0, 0, 1, 0,0) ">
            <use xlink:href="#xfl8_Layer0_0_FILL" />
          </g>
        </g>
      </g>
    </g>
  </g>
</svg>