
<svg xmlns="http://www.w3.org/2000/svg" version="1.1" xmlns:xlink="http://www.w3.org/1999/xlink" preserveAspectRatio="none" x="0px" y="0px" width="550px" height="400px" viewBox="0 0 550 400">
<defs>
<radialGradient id="Gradient_1" gradientUnits="userSpaceOnUse" cx="0" cy="0" r="252.02499999999998" fx="0" fy="0" gradientTransform="matrix( 1.0000000000000002, 0, 0, 1.0000000000000002, 250,250) " spreadMethod="pad">
<stop  offset="0%" stop-color="#FFFFFF" stop-opacity="0"/>

<stop  offset="91.76470588235294%" stop-color="#FFFF15"/>

<stop  offset="100%" stop-color="#FFFF00" stop-opacity="0.7529411764705882"/>
</radialGradient>

<g id="MovieClips_Symbol_973_0_Layer0_0_FILL">
<path fill="url(#Gradient_1)" stroke="none" d="
M 500 250
Q 500 146.45 426.7 73.15 353.55 0 250 0 146.4 0 73.15 73.15 0 146.45 0 250 0 353.55 73.15 426.7 146.4 500 250 500 353.55 500 426.7 426.7 500 353.55 500 250 Z"/>
</g>

<g id="MovieClips_Symbol_975_0_Layer0_0_FILL">
<path fill="#FFFFFF" stroke="none" d="
M 500 250
Q 400 244.45 327.8 172.2 255.55 100 250 0 244.45 100 172.2 172.2 100 244.45 0 250 100 255.55 172.2 327.8 244.45 400 250 500 255.55 400 327.8 327.8 400 255.55 500 250 Z"/>
</g>
</defs>

<g transform="matrix( 1, 0, 0, 1, 0,0) ">
<g transform="matrix( 0.10821533203125, 0, 0, 0.10821533203125, -27.2,-27.05) ">
<g transform="matrix( 1, 0, 0, 1, 0,0) ">
<use xlink:href="#MovieClips_Symbol_973_0_Layer0_0_FILL"/>
</g>
</g>

<g transform="matrix( 0.081787109375, 0, 0, 0.20928955078125, -20.6,-52.3) ">
<g transform="matrix( 1, 0, 0, 1, 0,0) ">
<use xlink:href="#MovieClips_Symbol_975_0_Layer0_0_FILL"/>
</g>
</g>
</g>
</svg>
