<?xml version='1.0' encoding='utf-8'?>
<svg xmlns="http://www.w3.org/2000/svg" xmlns:xlink="http://www.w3.org/1999/xlink" version="1.1" width="550px" height="400px" viewBox="0 0 550 400" preserveAspectRatio="none" data-xfl-root="UI/Pages/Levels/In-Game/Effects/Mine/Symbol 472">
  <g data-xfl-symbol="UI/Pages/Levels/In-Game/Effects/Mine/Symbol 472">
    <g data-xfl-symbol="Graphics/Symbol 469">
      <g data-svg-leaf="graphics_symbol_469_82d3467630/t00_l001_f0000_r00.svg">
        <defs>
          <radialGradient id="xfl6_Gradient_1" gradientUnits="userSpaceOnUse" cx="0" cy="0" r="15.937500000000002" fx="0" fy="0" gradientTransform="matrix( 1, 0, 0, 1, 0.85,12.6) " spreadMethod="pad">
            <stop offset="0%" stop-color="#83836B" />
            <stop offset="100%" stop-color="#3D3C32" />
          </radialGradient>
          <g id="xfl6_Layer0_0_FILL">
            <path fill="url(#xfl6_Gradient_1)" stroke="none" d=" M -2.4 0.85 Q -4.5 1.4 -6.25 2.75 L 6.35 1.75 Q 5.3 1.15 4.15 0.85 L 4.15 -2.95 -2.4 -2.95 -2.4 0.85 Z" />
          </g>
        </defs>
        <g transform="matrix( 1, 0, 0, 1, 0,0) ">
          <use xlink:href="#xfl6_Layer0_0_FILL" />
        </g>
      </g>
      <g data-svg-leaf="graphics_symbol_469_82d3467630/t00_l000_f0000_r00.svg">
        <defs>
          <g id="xfl7_Layer0_0_FILL">
            <path fill="#4A483E" stroke="none" d=" M 6.05 1.45 L 1.85 0 1.5 -2.35 1.1 0.6 -0.55 -2.7 Q -1.1 -2 -1.8 -1.6 -2.15 -1.55 -2.5 -1.8 L -2 0.65 -5.9 2.55 -2.45 2.55 -4.1 2.2 6.05 1.45 M 0.25 0.4 Q 0.25 0.95 0.15 0.4 L 0.25 0.4 Z" />
          </g>
        </defs>
        <g transform="matrix( 1, 0, 0, 1, 0,0) ">
          <use xlink:href="#xfl7_Layer0_0_FILL" />
        </g>
      </g>
    </g>
  </g>
</svg>