<?xml version='1.0' encoding='utf-8'?>
<svg xmlns="http://www.w3.org/2000/svg" xmlns:xlink="http://www.w3.org/1999/xlink" version="1.1" width="550px" height="400px" viewBox="0 0 550 400" preserveAspectRatio="none" data-xfl-root="UI/Pages/Levels/In-Game/Effects/Slash">
  <g data-xfl-symbol="UI/Pages/Levels/In-Game/Effects/Slash">
    <g transform="matrix(0.2798156738 -0.0749664307 0.0809631348 0.3022155762 33.25 -38.5)">
      <g opacity="0">
        <g data-xfl-symbol="MovieClips/Symbol 1000">
          <g data-svg-leaf="movieclips_symbol_1000_c1f376a760/t00_l000_f0000_r00.svg">
            <defs>
              <linearGradient id="xfl6_Gradient_1" gradientUnits="userSpaceOnUse" x1="0" y1="160.85" x2="266.3" y2="160.85" spreadMethod="pad">
                <stop offset="0%" stop-color="#00CCFF" stop-opacity="0.25098039215686274" />
                <stop offset="100%" stop-color="#FFFFFF" />
              </linearGradient>
              <linearGradient id="xfl6_Gradient_2" gradientUnits="userSpaceOnUse" x1="-0.5250000000000057" y1="161" x2="270.32500000000005" y2="161" spreadMethod="pad">
                <stop offset="0%" stop-color="#AFCC3C" stop-opacity="0.25098039215686274" />
                <stop offset="100%" stop-color="#0099FF" />
              </linearGradient>
              <g id="xfl6_Layer0_0_FILL">
                <path fill="url(#xfl6_Gradient_1)" stroke="none" d=" M 216.6 17.8 Q 219.55 12.8 219.55 11.9 219.55 11.65 216.3 18 209.05 5.7 179.3 0 164.1 4.65 148.5 27 132.3 50.1 137.85 114.6 L 137.55 114.25 137.3 115 137.35 115.05 136.3 116 137.5 115.35 146.7 130.6 Q 147.35 132.15 147.4 134.35 L 147.3 141.25 Q 147.3 156.55 137.55 169.7 118.7 195.25 70.9 195.25 60.2 195.25 30.75 184.75 L 8.4 176.55 7.7 173.5 6.7 173.5 6.7 175.9 Q 2.1 174.25 1.45 174.25 -0.1 174.25 0 174.65 L 0.45 175 6.7 177.75 6.7 178 Q 8.75 186.1 12.65 206.75 17.45 232.5 17.45 241 17.45 255.8 19 263.45 20.15 269.05 23.45 275.6 28.25 285.15 30.4 290.7 34.85 302.2 38.95 319.5 L 38.8 319.5 39.05 319.75 39.55 322 41.8 322 42.55 321.25 42.4 320.55 42.6 320.55 48.3 321 Q 69.2 321 114.35 310.2 152.15 301.15 161.05 297.25 186.45 285.95 204.5 269.05 214.75 259.45 229.8 241.75 241.65 234.95 257.05 193 272.4 151 269.35 130.35 266.3 109.7 240.45 59.15 229.9 38.65 219.25 21.9 L 216.6 17.8 Z" />
              </g>
              <path id="xfl6_Layer0_0_1_STROKES" stroke="url(#xfl6_Gradient_2)" stroke-width="1" stroke-linejoin="round" stroke-linecap="round" fill="none" d=" M 219.55 11.9 Q 219.55 12.8 216.6 17.8 L 219.25 21.9 Q 229.9 38.65 240.45 59.15 266.3 109.7 269.35 130.35 272.4 151 257.05 193 241.65 234.95 229.8 241.75 214.75 259.45 204.5 269.05 186.45 285.95 161.05 297.25 152.15 301.15 114.35 310.2 69.2 321 48.3 321 L 42.6 320.55 42.4 320.55 42.55 321.25 41.8 322 39.55 322 39.05 319.75 38.8 319.5 38.95 319.5 Q 34.85 302.2 30.4 290.7 28.25 285.15 23.45 275.6 20.15 269.05 19 263.45 17.45 255.8 17.45 241 17.45 232.5 12.65 206.75 8.75 186.1 6.7 178 L 6.7 177.75 0.45 175 0 174.65 Q -0.1 174.25 1.45 174.25 2.1 174.25 6.7 175.9 L 6.7 173.5 7.7 173.5 8.4 176.55 30.75 184.75 Q 60.2 195.25 70.9 195.25 118.7 195.25 137.55 169.7 147.3 156.55 147.3 141.25 L 147.4 134.35 Q 147.35 132.15 146.7 130.6 L 137.5 115.35 136.3 116 137.35 115.05 137.3 115 137.55 114.25 137.85 114.6 Q 132.3 50.1 148.5 27 164.1 4.65 179.3 0 209.05 5.7 216.3 18 219.55 11.65 219.55 11.9 Z" />
            </defs>
            <g transform="matrix( 1, 0, 0, 1, 0,0) ">
              <use xlink:href="#xfl6_Layer0_0_FILL" />
              <use xlink:href="#xfl6_Layer0_0_1_STROKES" />
            </g>
          </g>
        </g>
      </g>
    </g>
  </g>
</svg>