<?xml version='1.0' encoding='utf-8'?>
<svg xmlns="http://www.w3.org/2000/svg" xmlns:xlink="http://www.w3.org/1999/xlink" version="1.1" width="550px" height="400px" viewBox="0 0 550 400" preserveAspectRatio="none" data-xfl-root="UI/Pages/Levels/In-Game/Effects/Teleport">
  <g data-xfl-symbol="UI/Pages/Levels/In-Game/Effects/Teleport">
    <g transform="matrix(1.0859680176 0 0 1.0941162109 -0.7 -1.1)">
      <g opacity="0.0390625">
        <g data-xfl-symbol="MovieClips/Symbol 1108">
          <g data-svg-leaf="movieclips_symbol_1108_5469d140fe/t00_l000_f0000_r00.svg">
            <defs>
              <radialGradient id="xfl34_Gradient_1" gradientUnits="userSpaceOnUse" cx="0" cy="0" r="47.800000000000004" fx="0" fy="0" gradientTransform="matrix( 0.9999999999999999, 0, 0, 0.9999999999999999, 0,0) " spreadMethod="pad">
                <stop offset="0%" stop-color="#FFFFFF" stop-opacity="0" />
                <stop offset="100%" stop-color="#FFFFFF" />
              </radialGradient>
              <g id="xfl34_Layer0_0_FILL">
                <path fill="url(#xfl34_Gradient_1)" stroke="none" d=" M 33.6 -33.6 Q 19.7 -47.5 0 -47.5 -19.7 -47.5 -33.6 -33.6 -47.5 -19.7 -47.5 0 -47.5 19.7 -33.6 33.6 -19.7 47.5 0 47.5 19.7 47.5 33.6 33.6 47.5 19.7 47.5 0 47.5 -19.7 33.6 -33.6 Z" />
              </g>
            </defs>
            <g transform="matrix( 1, 0, 0, 1, 0,0) ">
              <use xlink:href="#xfl34_Layer0_0_FILL" />
            </g>
          </g>
        </g>
      </g>
    </g>
    <g transform="matrix(0.4873199463 0 0 0.6831054688 -0.7 -1.1)">
      <g opacity="0.0390625">
        <g data-xfl-symbol="MovieClips/Symbol 1108">
          <g data-svg-leaf="movieclips_symbol_1108_5469d140fe/t00_l000_f0000_r00.svg">
            <defs>
              <radialGradient id="xfl35_Gradient_1" gradientUnits="userSpaceOnUse" cx="0" cy="0" r="47.800000000000004" fx="0" fy="0" gradientTransform="matrix( 0.9999999999999999, 0, 0, 0.9999999999999999, 0,0) " spreadMethod="pad">
                <stop offset="0%" stop-color="#FFFFFF" stop-opacity="0" />
                <stop offset="100%" stop-color="#FFFFFF" />
              </radialGradient>
              <g id="xfl35_Layer0_0_FILL">
                <path fill="url(#xfl35_Gradient_1)" stroke="none" d=" M 33.6 -33.6 Q 19.7 -47.5 0 -47.5 -19.7 -47.5 -33.6 -33.6 -47.5 -19.7 -47.5 0 -47.5 19.7 -33.6 33.6 -19.7 47.5 0 47.5 19.7 47.5 33.6 33.6 47.5 19.7 47.5 0 47.5 -19.7 33.6 -33.6 Z" />
              </g>
            </defs>
            <g transform="matrix( 1, 0, 0, 1, 0,0) ">
              <use xlink:href="#xfl35_Layer0_0_FILL" />
            </g>
          </g>
        </g>
      </g>
    </g>
  </g>
</svg>