<?xml version='1.0' encoding='utf-8'?>
<svg xmlns="http://www.w3.org/2000/svg" xmlns:xlink="http://www.w3.org/1999/xlink" version="1.1" width="550px" height="400px" viewBox="0 0 550 400" preserveAspectRatio="none" data-xfl-root="UI/Pages/Levels/In-Game/Effects/Teleport">
  <g data-xfl-symbol="UI/Pages/Levels/In-Game/Effects/Teleport">
    <g transform="matrix(0.3242492676 -0.8426818848 0.8426818848 0.3242492676 0.95 0.95)">
      <g opacity="0.140625">
        <g data-xfl-symbol="MovieClips/Symbol 900">
          <g data-svg-leaf="movieclips_symbol_900_fba49e7f97/t00_l000_f0000_r00.svg">
            <defs>
              <g id="xfl16_Layer0_0_FILL">
                <path fill="#FFFFFF" stroke="none" d=" M 33.15 -25.5 Q 33.15 -40.25 12.4 -40.25 L 6.15 -39.25 Q 5.65 -41.4 3.05 -43.4 -0.7 -46.25 -6.6 -46.25 -13.45 -46.25 -24.85 -35 -29.15 -30.8 -32.3 -26.65 -35.35 -22.65 -35.35 -21.5 -35.35 -18.5 -34.1 -14.75 -39.75 -13.5 -43.45 -5.7 -46.35 0.4 -46.35 5.25 -46.35 9.1 -42.95 13.7 -38.8 19.35 -32.85 19.5 -35.35 22.7 -35.35 26.6 -35.35 30.9 -31.85 34.55 -25.4 41.25 -9.6 41.25 -1.25 41.25 8.1 43.75 17.45 46.25 22.9 46.25 45.4 46.25 45.4 27.6 45.4 24.4 38.4 13.75 46.4 12.75 46.4 5.6 46.4 2.55 40.35 -7.25 34 -17.65 29.65 -20.25 29.9 -21.25 33.15 -25.5 M -23.5 -33.6 L -23.85 -33.5 -23.6 -34 -23.5 -33.6 Z" />
              </g>
            </defs>
            <g transform="matrix( 1, 0, 0, 1, 0,0) ">
              <use xlink:href="#xfl16_Layer0_0_FILL" />
            </g>
          </g>
        </g>
      </g>
    </g>
    <g transform="matrix(0.8227844238 0 0 0.9134368896 -0.7 -1.1)">
      <g opacity="0.44921875">
        <g data-xfl-symbol="MovieClips/Symbol 1108">
          <g data-svg-leaf="movieclips_symbol_1108_5469d140fe/t00_l000_f0000_r00.svg">
            <defs>
              <radialGradient id="xfl17_Gradient_1" gradientUnits="userSpaceOnUse" cx="0" cy="0" r="47.800000000000004" fx="0" fy="0" gradientTransform="matrix( 0.9999999999999999, 0, 0, 0.9999999999999999, 0,0) " spreadMethod="pad">
                <stop offset="0%" stop-color="#FFFFFF" stop-opacity="0" />
                <stop offset="100%" stop-color="#FFFFFF" />
              </radialGradient>
              <g id="xfl17_Layer0_0_FILL">
                <path fill="url(#xfl17_Gradient_1)" stroke="none" d=" M 33.6 -33.6 Q 19.7 -47.5 0 -47.5 -19.7 -47.5 -33.6 -33.6 -47.5 -19.7 -47.5 0 -47.5 19.7 -33.6 33.6 -19.7 47.5 0 47.5 19.7 47.5 33.6 33.6 47.5 19.7 47.5 0 47.5 -19.7 33.6 -33.6 Z" />
              </g>
            </defs>
            <g transform="matrix( 1, 0, 0, 1, 0,0) ">
              <use xlink:href="#xfl17_Layer0_0_FILL" />
            </g>
          </g>
        </g>
      </g>
    </g>
    <g transform="matrix(0.75050354 0 0 0.8638000488 -0.65 -1.1)">
      <g opacity="0.44921875">
        <g data-xfl-symbol="MovieClips/Symbol 1108">
          <g data-svg-leaf="movieclips_symbol_1108_5469d140fe/t00_l000_f0000_r00.svg">
            <defs>
              <radialGradient id="xfl18_Gradient_1" gradientUnits="userSpaceOnUse" cx="0" cy="0" r="47.800000000000004" fx="0" fy="0" gradientTransform="matrix( 0.9999999999999999, 0, 0, 0.9999999999999999, 0,0) " spreadMethod="pad">
                <stop offset="0%" stop-color="#FFFFFF" stop-opacity="0" />
                <stop offset="100%" stop-color="#FFFFFF" />
              </radialGradient>
              <g id="xfl18_Layer0_0_FILL">
                <path fill="url(#xfl18_Gradient_1)" stroke="none" d=" M 33.6 -33.6 Q 19.7 -47.5 0 -47.5 -19.7 -47.5 -33.6 -33.6 -47.5 -19.7 -47.5 0 -47.5 19.7 -33.6 33.6 -19.7 47.5 0 47.5 19.7 47.5 33.6 33.6 47.5 19.7 47.5 0 47.5 -19.7 33.6 -33.6 Z" />
              </g>
            </defs>
            <g transform="matrix( 1, 0, 0, 1, 0,0) ">
              <use xlink:href="#xfl18_Layer0_0_FILL" />
            </g>
          </g>
        </g>
      </g>
    </g>
  </g>
</svg>