
<svg xmlns="http://www.w3.org/2000/svg" version="1.1" xmlns:xlink="http://www.w3.org/1999/xlink" preserveAspectRatio="none" x="0px" y="0px" width="550px" height="400px" viewBox="0 0 550 400">
<defs>
<g id="Layer0_0_FILL">
<path fill="#FFFFFF" stroke="none" d="
M 3.25 0.55
Q 3.05 0.1 2.7 0.25
L 2.45 0.35
Q 2.15 -0.15 1.75 0.05 1.2 0.35 0.85 1
L 0.35 2.2
Q -0.1 3.35 0 4.8 0 5.3 0.2 5.55 0.25 5.7 0.5 5.95 0.6 7.65 1.45 8.95 1.7 9.5 2.2 9.2
L 2.35 9.1
Q 2.85 8.5 2.6 7.9
L 2.15 5.85 2.15 4.95 2.35 3.8 2.4 3.65 2.4 3.55 2.55 3.1 2.9 2.35 3.25 1.3
Q 3.4 1 3.25 0.55 Z"/>
</g>
</defs>

<g transform="matrix( 1, 0, 0, 1, 0,0) ">
<use xlink:href="#Layer0_0_FILL"/>
</g>
</svg>
