
<svg xmlns="http://www.w3.org/2000/svg" version="1.1" xmlns:xlink="http://www.w3.org/1999/xlink" preserveAspectRatio="none" x="0px" y="0px" width="550px" height="400px" viewBox="0 0 550 400">
<defs>
<g id="Layer0_0_FILL">
<path fill="#000000" fill-opacity="0.15294117647058825" stroke="none" d="
M -17.5 135.1
Q -9.4 135.05 -1.2 131.5
L -0.2 130.5 1.1 130.25
Q -0.6 129.8 -2.7 128.75 -9.55 125.4 -22.75 115.4 -29.4 110.35 -32.25 105.45 -36.05 99.05 -39.8 94.35 -40.9 98.95 -42.55 103.1 -41.75 118.8 -29.7 128.55 -24.7 132.65 -18.75 134.7
L -17.5 135.1
M 28.35 111.05
L 26.1 106.55
Q 22.1 97.3 19.4 92.8 7.55 73.2 -12.8 72.8
L -18.65 76.65
Q -1.35 88.8 7.6 99.8 16.8 111.05 17.85 121.65 23.85 117.05 28.35 111.05 Z"/>
</g>
</defs>

<g transform="matrix( 1, 0, 0, 1, 0,0) ">
<use xlink:href="#Layer0_0_FILL"/>
</g>
</svg>
