
<svg xmlns="http://www.w3.org/2000/svg" version="1.1" xmlns:xlink="http://www.w3.org/1999/xlink" preserveAspectRatio="none" x="0px" y="0px" width="550px" height="400px" viewBox="0 0 550 400">
<defs>
<g id="Layer0_0_FILL">
<path fill="#E6E6E6" fill-opacity="0.32941176470588235" stroke="none" d="
M -32.85 133.4
L -32.95 133.5
Q -33.65 133.15 -34.65 133.15 -35.75 133.15 -43.35 136.1
L -56.75 141.3
Q -56.7 142.85 -54.4 142.85 -51.1 142.85 -42.15 139.5 -32.75 136 -32.75 134.05
L -32.85 133.4
M 68.55 57.05
Q 69.35 57.05 70.6 55.75 65.3 54.7 57.95 52.1 51.55 49.85 50.85 49.85
L 49.35 50.1 48.55 50.35 48.95 50.75
Q 50.85 52.45 58.6 54.8 65.95 57.05 68.55 57.05
M 26.35 94.45
Q 26.2 98 29.25 98 32 98 40 88.8 47.75 79.95 47.75 78.05 47.75 76.55 46.95 75.9 46.2 75.3 44.45 75.3 40.15 75.3 35.7 78.85 31.8 81.95 29.05 86.65 26.45 91.15 26.35 94.45
M 46.7 23.3
L 46.05 21.55 50.1 19.8
Q 45.9 18.5 37.7 23.05 30.1 27.3 21 35.4 0.65 53.55 -6.95 70.4
L -6.85 71.05
Q -15.8 68.05 -30.15 81.65 -34.5 85.75 -41.65 93.65
L -59.35 113.15
Q -66.65 120.9 -75.05 126.4 -91.7 137.35 -116.75 147.6
L -131.6 153.45
Q -137.35 155.7 -137.35 156.3
L -137.25 157.5 -136.3 157.6
Q -117.65 157.6 -75.45 127.8 -61.7 118.1 -47.95 106.95 -36.7 97.85 -36 96.75 -31.95 90.35 -25.75 83.05 -20.3 76.7 -18.8 75.9 -17 74.9 -9.95 73 -4.15 71.4 -2.05 69.15 -0.95 68 5.55 58.25 12.55 47.8 14.35 45.5
L 14.4 45.65
Q 14.15 47 15.05 47.9 15.85 48.75 17.1 48.75 28.4 48.75 38.85 37 44.1 31.15 47.05 25.15
L 46.7 23.3
M 84.05 64.4
L 82.9 64.25
Q 81.65 64.25 75.7 66.9 69.65 69.6 69.65 70.35
L 69.7 71.25 70.1 71.55 71.15 71.8 72.6 71.4
Q 73.5 70.95 74 70.95
L 84.65 71.7 89.3 72.4 93.7 72.2
Q 94.9 71.9 94.9 70.65
L 94.9 69.95 94.8 70.05 78.35 69.3 79.1 69.1
Q 83.65 66.5 84 66.05
L 84.05 64.4
M 83.65 54.85
L 84.25 56.2 85.25 56.25
Q 89.35 56.25 95.25 49.8 93.35 49.45 90.15 51.15 86.15 53.6 83.65 54.85
M 82.1 47.8
Q 82.1 48.7 82.4 49.4 82.85 50.35 83.7 50.35 84.9 50.35 87 48.75 89.95 46.5 89.55 43.1 85.8 42.3 83.6 44.95
L 82.1 47.8 Z"/>

<path fill="#E6E6E6" fill-opacity="0.25098039215686274" stroke="none" d="
M 6.8 124.55
Q 9.9 124.55 10.7 122 11.55 119.3 10.25 112.65 8.15 102.1 -5.45 93.05 -10.9 89.45 -16.2 87.5 -21.4 85.65 -24.05 86.25
L -22.8 88.1
Q -27.1 88.55 -28.3 89.8 -29.1 90.6 -29.1 93.15 -29.1 95.3 -25.65 100.4 -22 105.65 -16.85 110.9 -3.4 124.55 6.8 124.55 Z"/>
</g>
</defs>

<g transform="matrix( 1, 0, 0, 1, 0,0) ">
<use xlink:href="#Layer0_0_FILL"/>
</g>
</svg>
