
<svg xmlns="http://www.w3.org/2000/svg" version="1.1" xmlns:xlink="http://www.w3.org/1999/xlink" preserveAspectRatio="none" x="0px" y="0px" width="550px" height="400px" viewBox="0 0 550 400">
<defs>
<g id="Layer0_0_FILL">
<path fill="#000000" fill-opacity="0.24705882352941178" stroke="none" d="
M 5.65 19.6
Q 5.5 13.4 5.25 10.2 4.85 4.6 3.5 1 3.4 0.5 2.95 0.2 2.5 -0.1 1.95 0 1.15 0.15 0.95 1.05 -0.05 4.85 0.05 10.35 0.05 13.5 0.45 19.7 0.6 23.05 0.6 30 0.75 36.15 1.75 40.1 2.3 42.45 4.1 42.45 5.85 42.45 6.2 39.95 6.8 35.95 6.4 29.8 5.8 22.9 5.65 19.6 Z"/>
</g>
</defs>

<g transform="matrix( 1, 0, 0, 1, 0,0) ">
<use xlink:href="#Layer0_0_FILL"/>
</g>
</svg>
