
<svg xmlns="http://www.w3.org/2000/svg" version="1.1" xmlns:xlink="http://www.w3.org/1999/xlink" preserveAspectRatio="none" x="0px" y="0px" width="550px" height="400px" viewBox="0 0 550 400">
<defs>
<g id="Layer0_0_FILL">
<path fill="#FFFFFF" stroke="none" d="
M 1.85 0.25
L 1.55 0.05 1.2 0
Q 0.6 -0.1 0.1 0.4 -0.1 0.6 0 0.85 0.15 1.1 0.3 0.95
L 0.35 0.95 0.4 0.9 0.5 0.85 0.65 0.85 0.7 0.8 1.1 0.8 1.15 0.85 1.4 0.9 1.5 0.95 1.65 1 1.75 1.05 1.8 1.05
Q 1.848828125 1.098828125 1.85 1.05
L 1.85 1.1 1.9 1.15 2 1.2
Q 2.1 1.4 2.2 1.15
L 2.25 0.85
Q 2.2 0.7 1.85 0.25 Z"/>
</g>
</defs>

<g transform="matrix( 1, 0, 0, 1, 0,0) ">
<use xlink:href="#Layer0_0_FILL"/>
</g>
</svg>
