
<svg xmlns="http://www.w3.org/2000/svg" version="1.1" xmlns:xlink="http://www.w3.org/1999/xlink" preserveAspectRatio="none" x="0px" y="0px" width="550px" height="400px" viewBox="0 0 550 400">
<defs>
<g id="Layer0_0_FILL">
<path fill="#FFFFFF" fill-opacity="0.25098039215686274" stroke="none" d="
M 93.1 62.45
Q 94.45 62.45 96.7 60.05 99 57.65 100.3 54.85 103.7 47.2 95.55 47.2 90.6 47.2 82.35 54.75 80.9 56.1 79.75 56.7
L 73.9 59.4
Q 68.5 61.75 55.4 66.8 45.45 70.65 41.05 73 28.45 79.55 28.45 90 28.45 91.65 31.55 100.1 34.55 108.4 37.2 114.1 38.7 117.35 40.75 118.95 43.3 120.9 50.75 124.1 52.45 124.8 56.1 126.6 59.55 128.25 63.2 129.75 68 131.75 70.3 135.65 72.05 138.7 74.95 138.7 75.8 138.7 76.45 137.45 77 136.35 77 135.2 64.85 124.6 46.2 120.4 41.7 119.4 38.1 113 36 109.15 32.75 99.95 30.85 94.65 30.85 89.65 30.85 79.5 53.5 69.25 62.55 65.15 72.2 62.55 81.65 60 87.35 60
L 93.1 62.45 Z"/>
</g>
</defs>

<g transform="matrix( 1, 0, 0, 1, 0,0) ">
<use xlink:href="#Layer0_0_FILL"/>
</g>
</svg>
