
<svg xmlns="http://www.w3.org/2000/svg" version="1.1" xmlns:xlink="http://www.w3.org/1999/xlink" preserveAspectRatio="none" x="0px" y="0px" width="550px" height="400px" viewBox="0 0 550 400">
<defs>
<g id="Layer0_0_FILL">
<path fill="#000000" fill-opacity="0.25098039215686274" stroke="none" d="
M 109.5 41.8
Q 105.8 35.75 95.95 35.65 86.05 35.55 79.65 37.9 71.05 41 66.85 41.7 64.25 42.1 50.85 48.75 43.8 52.25 33.95 57.3
L 32.7 57.95 39.45 53.2 39.05 52.95 38.15 52.9
Q 31.9 52.9 21 66.9 10.35 80.6 10.35 87.45 10.35 103.65 21.5 114.1 32.65 124.5 45.4 125.95 58.15 127.45 65.9 137.4 73.65 147.3 74.6 148.15 77.45 150.75 80.3 150.75 82.85 150.75 85.4 148.3 88.2 145.65 88.2 142.5 88.2 130.8 80.85 126 76.1 122.9 64.5 122 52.85 121.1 48 120.05 45.2 119.45 43 116.25
L 42.8 116.25 42.85 116.05
Q 41.15 113.65 39.8 109.8 36.45 100.55 48.35 91.25 60.25 81.95 86.45 75.5 108.2 66.9 109.7 64.1 111.2 61.25 113.55 58.8 115.9 56.3 114.55 52.05 113.2 47.8 109.5 41.8
M 100.85 42.2
Q 106.1 44.6 108.4 49.3 109.95 52.4 109.95 55.5 109.95 57.55 103.05 61.3 96 65.1 91.3 65.25
L 84.8 65.5 79.05 66.55
Q 58.8 70.45 46.4 80.95 34.5 90.95 34.5 102.75 34.5 109.7 40.65 116.65 48.1 125.15 59.75 125.7 82.5 126.7 82.5 138.55 82.5 141.3 80.15 142.75 78.45 143.8 76.45 143.8 73.8 143.8 69 137.65 63.7 130.85 62.2 130.15 60.15 129.2 51.6 126.15 44.15 123.45 42.3 122.25 31.4 115.2 26.9 100.5 24.3 91.95 24.3 83.1 24.3 77.4 26.85 74.55 29.75 71.25 42.75 62.85 51.3 57.3 58.05 54.3 64.5 51.4 79.6 46.3 89.4 43 92.5 42.25 98.65 40.75 100.85 42.2
M 79.6 38.65
L 80.6 38.55
Q 78.55 39.2 78.4 38.9 78.6 38.7 79.6 38.65
M 50.4 121.75
Q 52.6 122.6 56.5 122.65 63.15 122.75 70.55 124
L 62.75 123.7
Q 54.6 123.25 51.7 122.3
L 50.4 121.75 Z"/>
</g>
</defs>

<g transform="matrix( 1, 0, 0, 1, 0,0) ">
<use xlink:href="#Layer0_0_FILL"/>
</g>
</svg>
