
<svg xmlns="http://www.w3.org/2000/svg" version="1.1" xmlns:xlink="http://www.w3.org/1999/xlink" preserveAspectRatio="none" x="0px" y="0px" width="550px" height="400px" viewBox="0 0 550 400">
<defs>
<g id="Layer0_0_FILL">
<path fill="#000000" stroke="none" d="
M 111.3 42.95
Q 104.8 35.25 93 35.25
L 79.5 36.95
Q 36.25 49.75 20.7 63.2 14.05 68.95 11.45 75.6 9.4 80.85 9.4 88.15 9.4 99.15 14.7 106.95 20.2 115.1 32.8 121.95 34.25 122.7 47.8 127.55 60 131.9 62.4 133.95 63.25 134.65 69.25 142.75 75.4 150.45 78 150.45 84.7 150.45 86.8 146 87.5 144.6 87.6 142.9
L 87.6 141.35
Q 87.6 130.15 80.25 125.6 75.4 122.6 64.1 121.55 51.6 120.35 47.95 118.8 40.6 115.8 40.6 107.25 40.6 97.15 52.4 89.65 60.05 84.75 78.3 78.45 98.1 71.55 104.2 68.3 116 62 116 53.95 116 48.55 111.3 42.95
M 92.3 38.15
Q 102.55 38.15 108.45 44.4 113 49.25 113 54.45 113 60.9 101.25 66.75 96.55 69.1 75.35 76.95 57.55 83.5 49.45 88.95 37.7 96.85 37.7 106.75 37.7 111.85 41.3 116.85 46.3 123.75 55.7 123.75 72.05 123.75 79.05 128.35 85.3 132.45 85.3 141.15 85.3 144.9 83.45 146.7 81.55 148.45 77.6 148.45 75.3 148.45 74.4 146.95
L 75.15 146.15
Q 75.9 145.5 75.9 144.35 75.9 143.5 69.85 137.3
L 62.4 130.05
Q 59.65 127.7 48 123.9
L 33.9 119.05
Q 21.85 112.95 16.8 104.75 12.4 97.65 12.4 87.25 12.4 78.65 20.75 69.4 28.35 61.05 41.35 53.65 53.65 46.65 67.4 42.45 81.4 38.15 92.3 38.15 Z"/>
</g>
</defs>

<g transform="matrix( 1, 0, 0, 1, 0,0) ">
<use xlink:href="#Layer0_0_FILL"/>
</g>
</svg>
