
<svg xmlns="http://www.w3.org/2000/svg" version="1.1" xmlns:xlink="http://www.w3.org/1999/xlink" preserveAspectRatio="none" x="0px" y="0px" width="550px" height="400px" viewBox="0 0 550 400">
<defs>
<g id="Layer0_0_FILL">
<path fill="#FFFF00" stroke="none" d="
M 44.5 -53.05
L 44.4 -53.2 39.15 -55.7
Q 11.35 -73.8 -17.3 -62.45 -39.2 -53.95 -55.7 -31.75 -57.85 -28.85 -60.35 -19.55 -63.45 -7.75 -63.6 4.25 -63.7 39.6 -37.6 59.05 -30.3 64.5 -20.4 68.3 -15.4 70.3 -10.55 71.6
L -11.65 69.7
Q -26.8 37.4 -22.05 12
L -21.7 10 -22.2 9.25 -21.3 7.75 -21 7.6 -20.9 6.55 -16.55 9.15 -14.9 9.85 -12.1 10.25 -2.9 14.05 -2.1 14.25
Q -9.35 6.2 -12.55 -0.85
L -13.15 -2.15 -13.3 -1.8
Q -14.6 -5.05 -15.9 -6.25 -11.75 -14.7 -5.15 -23.5 5.05 -37.25 16.15 -44.95 30.6 -55 44.5 -53.05 Z"/>
</g>
</defs>

<g transform="matrix( 1, 0, 0, 1, 0,0) ">
<use xlink:href="#Layer0_0_FILL"/>
</g>
</svg>
