
<svg xmlns="http://www.w3.org/2000/svg" version="1.1" xmlns:xlink="http://www.w3.org/1999/xlink" preserveAspectRatio="none" x="0px" y="0px" width="550px" height="400px" viewBox="0 0 550 400">
<defs>
<g id="Layer0_0_FILL">
<path fill="#AF831D" stroke="none" d="
M 39.95 -55
L 26.1 -65.7
Q 19.15 -71.5 9.45 -76.65 -0.25 -81.8 -10.35 -85.55 -20.5 -89.35 -25.6 -86.35
L -38.55 -78.05
Q -45.5 -73.35 -48.7 -65.35 -47.55 -65.25 -49.95 -62.6 -52.35 -59.95 -52.55 -53.5 -52.75 -47.05 -52.4 -40.5 -51.55 -26.1 -52.05 -11.8 -52.3 -5.25 -54.85 0.75
L -89 19.8 -89 23.45 -87.8 24.45
Q -87.75 26.35 -87 28 -85.45 31.6 -81.7 32.2 -73.65 33.75 -66 30.45 -41.35 19.95 -18.35 6.2 -12.7 2.85 -6.2 0.8 27.45 -9.5 57.9 -26.05 56.2 -32.7 54.45 -36.6 49.65 -47.55 39.95 -55 Z"/>
</g>
</defs>

<g transform="matrix( 1, 0, 0, 1, 0,0) ">
<use xlink:href="#Layer0_0_FILL"/>
</g>
</svg>
