
<svg xmlns="http://www.w3.org/2000/svg" version="1.1" xmlns:xlink="http://www.w3.org/1999/xlink" preserveAspectRatio="none" x="0px" y="0px" width="550px" height="400px" viewBox="0 0 550 400">
<defs>
<g id="Parts_Heads_headColorMC_22_Layer1_0_FILL">
<path fill="#568128" stroke="none" d="
M 113.4 54.7
L 88.1 60 86.9 59.45
Q 84.25 58.35 82 59.05 77.1 62.65 77.85 64.4 78.6 66.1 74.85 67.4 73 68.1 69.3 68.1
L 64.8 68.3
Q 62.1 69.4 60.7 73.55 59.45 77.65 59 77.9 58.25 78.25 55.65 77.85 56 76.6 55.15 78.05
L 51.35 83.6
Q 49.45 85.55 46.55 87.8
L 44.8 89.2 43.6 96.1
Q 42.35 103.95 42.35 107 42.35 114.7 47.25 123.55 50.25 122.8 50.25 124.75 50.7 126.35 53.5 126.35 55.85 126.35 64.25 124.75
L 64.2 124.2 64.45 124.05 64.6 123.8
Q 64.65 123.1 65 122.05
L 65.25 120.5
Q 65.25 119.9 64.65 119.65 64 119.4 64 118.75 64 117.7 65.9 110.35
L 67.4 104.5 67.65 104.4 94.4 97.75
Q 119.95 91.5 130.4 87.65
L 137.75 84.85
Q 142.2 83.2 144.85 81.4 151.8 77 147.55 68.65 143.25 60.3 132.25 56.05 121.2 51.75 113.4 54.7 Z"/>
</g>
</defs>

<g transform="matrix( 1, 0, 0, 1, -62.75,-76.85) ">
<g transform="matrix( 1, 0, 0, 1, 0,0) ">
<use xlink:href="#Parts_Heads_headColorMC_22_Layer1_0_FILL"/>
</g>
</g>
</svg>
