
<svg xmlns="http://www.w3.org/2000/svg" version="1.1" xmlns:xlink="http://www.w3.org/1999/xlink" preserveAspectRatio="none" x="0px" y="0px" width="550px" height="400px" viewBox="0 0 550 400">
<defs>
<g id="Layer0_0_FILL">
<path fill="#FF050C" stroke="none" d="
M 94.05 85.9
L 94.2 85.55
Q 94.3 84.3 93.6 83.25 93.1 82.6 92.7 82.75 92.35 82.55 92.1 82.75 90.3 84.95 89.45 87.4 87.75 89.85 87.35 92.95 86.6 97.8 88.55 102.25 88.75 104 89.2 106.1
L 89.6 107.6
Q 90.1 110.15 92 112.1 92.85 114.55 93.8 116.1 94.35 117.1 94.95 117.8 95.4 118.5 96 118.85
L 97.5 121.9
Q 98.85 124.5 100.65 127.15
L 102.7 130.65
Q 103.1 131.15 103.3 131.75
L 103.4 132.5 103.35 133.15 103.45 133.7
Q 103.6 134.95 104 136.5 104.65 139.5 106.3 142.1
L 106.75 142.7
Q 106.8 143.4 107.05 143.95 107.75 145.3 109.1 145.95 109.6 146.6 110.5 147.15
L 110.75 147.4
Q 111.3 148.8 112.1 148.65 113.95 148.25 114.9 146.8 115.35 145.75 114.95 144.65
L 114.9 144.4 114.9 144.3
Q 115.4 142.25 114.15 140.65 114.9 140.15 114.4 138.3 113.85 136.5 113.05 136.45 113.35 135.8 113.3 134.85 113.15 133.25 111.95 132
L 111.85 132
Q 112.1 130.25 111.05 128.9 111.05 127.75 110.5 126.85 109.95 125.9 109.3 126
L 108.35 126.15 108.25 125.75
Q 108 124.9 107.3 124
L 107.1 123.65
Q 106.7 122.8 105.75 122.6
L 105.65 122.3
Q 105.2 119.85 104 119.8 103.9 119.35 103.65 119
L 103.25 118
Q 102.3 116.15 101.6 117
L 101.55 117.05
Q 100.85 115.25 100.1 114.1 99.35 112.9 98.25 110.65 97.35 108.7 96.65 106.8 96.2 105.15 95.15 103.1
L 94.85 102.8
Q 94.85 102.7 94 99.05
L 93.8 98.25
Q 93.3 94.6 93.3 93.6 93.3 93.4 93.25 93.35
L 93.6 91.85
Q 93.9 90.25 93.1 88.9
L 92.85 88.5 93.05 88.3
Q 93.3 87.9 93.25 87.4 93.9 86.65 94.05 85.9 Z"/>
</g>
</defs>

<g transform="matrix( 1, 0, 0, 1, 0,0) ">
<use xlink:href="#Layer0_0_FILL"/>
</g>
</svg>
