
<svg xmlns="http://www.w3.org/2000/svg" version="1.1" xmlns:xlink="http://www.w3.org/1999/xlink" preserveAspectRatio="none" x="0px" y="0px" width="550px" height="400px" viewBox="0 0 550 400">
<defs>
<g id="Layer0_0_FILL">
<path fill="#FFDD55" stroke="none" d="
M 56.6 94.55
Q 56.8 95.45 57.05 95.8 57.75 97.5 59.55 99 61.35 100.45 63.1 100.85 63.85 100.95 64.35 100.95 64.9 101 65.95 100.9
L 66.9 100.75
Q 67.35 100.7 67.75 100.55 68 100.45 68 100 68.1 99.85 67.95 99.65 67.8 99.3 67.45 99.05 66.45 98.4 65.9 97.85 65.3 97.25 64.95 96.55 64.8 96.2 64.6 95.55 64.4 94.85 64.35 94.5 64.35 92.7 64.9 91.35 65.25 90.55 65.5 90.3 65.6 90.15 66.75 89.25 67.8 88.55 68.65 88.2 69.15 88 69.6 87.9 69.85 87.85 70.5 87.8 72 87.6 73.45 88.85 74.7 90 75.35 91.65 75.7 92.5 75.55 93.5 75.5 93.85 74.9 96.2 74.8 96.65 74.8 97.15 74.85 97.5 74.9 97.55 75.05 97.65 75.3 97.55 75.7 97.5 76.15 97.1 76.55 96.8 77.4 96.05 77.7 95.9 78.2 95.65 78.55 95.45 78.65 95.3 78.85 95.2 79 94.7 79.25 94.1 79.55 93.8 80.5 92.9 80.8 90.65 81.05 88.65 80.6 87.35 79.4 83.95 77.85 82.65 76.65 81.6 75.35 81.05 74.15 80.6 72.45 80.3 70.25 80.05 69.7 80 68.55 79.9 67.5 80.15 66.95 80.25 64.5 81.25 62.7 81.95 61.95 82.55 61.8 82.7 60.7 83.85 60.05 84.55 58.65 86.45 57.35 88.15 56.9 88.95 56.15 90.3 56.4 93.1 56.45 93.8 56.6 94.55
M 121.05 80.35
Q 121.05 80.25 120.7 80.45 120.45 80.6 120.25 80.95 119.95 81.5 119.35 84.3 118.95 86.65 118.85 86.75 118.85 86.8 118.1 86.7 117.2 86.6 116.95 86.55 115.95 86.6 115.75 86.8 115.5 87.1 115 88.85 114.85 89.5 114.2 91.2 113.55 93 113.3 93.7 112.8 95.35 112.7 95.65 112.55 96.05 112.35 96.1 112.3 96.1 112.25 96.05 112.15 96.05 111.85 95.85 111.05 95 111 95 110.85 95.05 110.15 96.7 109.45 98.35 109.05 99.6 108.45 101.4 107.45 104.1 106.3 107.15 106.05 107.55 105.85 107.9 105.75 108 105.6 108.1 105.15 108.05 104.7 107.95 103.05 107.3 101.5 106.7 100.1 106.1 98.35 105.3 98.15 105.3 97.85 105.3 97.1 106.4 96.75 106.95 94.55 110.65 93.75 111.95 93.15 112.95 92.55 113.8 92.5 113.8 92.25 113.85 90.6 113 89 112.25 87.85 111.55 85.85 110.4 85.25 110.5 85 110.5 84.4 111.1 84.25 111.25 82.7 112.85 81.85 113.75 80.25 115 78.8 116.05 78.55 116.15 78.35 116.2 78 115.8 77.15 114.8 76.2 113.8 74.6 112.2 73.15 111 71.8 109.95 71.55 110.05 71.5 110.05 69.9 111.75 69.5 112.15 69.05 112.8 68.5 113.5 68.4 113.65
L 67.35 114.5
Q 67.25 114.5 67 114.4
L 66.75 114.25
Q 65.5 113.8 61.95 111.35 58.35 108.9 57 107.6 56.5 107.2 56.35 107.05 56.2 106.85 55.85 106.65 55.55 106.4 55.45 106.35 55.4 106.35 55.45 107.35 55.6 108.3 55.65 108.45 56.25 110.7 58.95 116.15 61.5 121.25 63.2 123.95 63.95 125.1 64.6 124.95 65.15 124.8 66.9 123.35 68.25 122.1 69.95 120.85 71.5 119.7 72.1 119.4 72.4 119.2 72.75 119.4 73.2 119.7 76.1 122.1 77.1 122.85 78.05 123.5 79 124.15 79.15 124.15 79.25 124.2 79.75 123.7 80.45 123 80.85 122.6 83.3 120.2 84.1 119.55
L 85.7 118.2 86.85 118.35
Q 87.35 118.5 88.5 119.05 90.3 119.8 91.9 120.45 92.6 120.7 93.6 120.9 94.6 121.05 94.95 121 95.65 120.5 95.85 120.25 96.45 119.4 98.25 116.5
L 100.05 113.5 101.05 113.75
Q 101.7 113.95 104.95 115.3 106.35 115.8 107.3 115.7 107.9 115.6 108.35 115.4 108.95 115.2 111.1 110.15 111.65 108.85 112.95 105.5 113.85 103.25 113.95 103.1 114.25 102.75 114.7 102.85 114.85 102.85 115.65 103.3 116 103.4 116.05 103 116.5 101.95 117.7 97.3 118.25 95.3 118.7 93.85 119.1 92.45 119.2 92.45 119.25 92.4 120.25 92.55 120.75 92.65 121.4 92.65 122.1 92.6 122.25 92.5 122.45 92.35 122.4 91.2 122.4 90.35 121.95 86.1 121.5 81 121.05 80.35
M 90.85 90.5
Q 90.75 90.55 90.55 90.7 90.35 90.85 90.2 90.95 89.55 91.4 89.5 91.55 89.5 91.6 89.65 93.45 89.65 93.7 89.75 95.6 89.85 97.4 90.05 99.2 90.3 101.1 90.45 101.2 90.45 101.25 90.5 101.7
L 90.6 102.1 91.65 101.9
Q 91.8 101.9 92.65 101.4 93.15 101.2 94.95 100.5 99.1 98.75 99.1 98.35 99.15 97.9 97.45 96.05 95.45 93.85 94.8 93.2 94 92.35 92.95 91.5 92 90.7 91.65 90.55 91.3 90.35 90.85 90.5
M 114.55 73.7
Q 114.45 73.1 114 71.9 113.75 71.4 113.5 71.05 113.3 70.8 112.85 70.35 112.25 69.65 111.25 69.05 110.25 68.4 109.15 68.05 107.7 67.6 105.95 67.95 104 68.3 102.65 68.9 101.1 69.55 99.4 70.75 98.35 71.45 97.8 71.95 97.3 72.45 96.55 73.65 95.9 74.5 95 76.55 94.75 77.2 94.65 78.05 94.45 79.05 94.5 79.75 94.5 81.15 95.05 82.85 95.6 84.55 96.25 85.4 96.7 86.1 97.3 86.7 98.05 87.45 98.55 87.5 98.7 87.6 99.2 87.75 99.7 87.85 100.2 87.8 100.5 87.8 101.5 87.75 102.45 87.65 102.9 87.45 103.5 87.2 104.75 86.75 105.5 86.45 105.7 86.3
L 106.1 85.5
Q 106.6 85.2 106.55 85.1 106.5 85 105.55 84.8 104.35 84.2 103.8 83.7 103.25 83.2 102.8 82.4 102.15 81.3 102.1 79.9 102 78.55 102.45 77.45 102.7 77 103.55 76.05 103.95 75.65 104.25 75.55 104.45 75.5 105.05 75.25 105.75 75 106.4 75.25 106.55 75.3 107.5 75.9 108 76.2 108.3 76.6 108.95 77.35 109.1 79.35 109.1 80.55 109 81.3 108.95 81.55 109.3 81.95 109.6 82.45 109.65 82.45 109.65 82.55 109.95 82.5 110.35 82.5 110.6 82.35 110.9 82.25 111.2 82.1 111.3 81.95 111.65 81.6 112 81.3 112.45 80.95 112.95 80.6 113.6 79.35 114.1 78.55 114.5 76.75 114.65 75.85 114.7 75.2 114.65 74.65 114.55 73.7 Z"/>
</g>
</defs>

<g transform="matrix( 1, 0, 0, 1, 0,0) ">
<use xlink:href="#Layer0_0_FILL"/>
</g>
</svg>
