
<svg xmlns="http://www.w3.org/2000/svg" version="1.1" xmlns:xlink="http://www.w3.org/1999/xlink" preserveAspectRatio="none" x="0px" y="0px" width="550px" height="400px" viewBox="0 0 550 400">
<defs>
<g id="Layer0_0_FILL">
<path fill="#000000" stroke="none" d="
M 32 105.55
L 32.25 105.9 32.15 105.4 32 105.55
M 36.5 93.1
L 36.7 85.4
Q 36.95 81.9 40.95 80.6 46.05 78.85 60.25 78.85 71.15 78.85 81.55 90.65 90.95 101.25 90.95 109
L 90.8 111.3
Q 90.45 113.7 89.25 115.6 85.55 121.7 75.1 121.7 68.3 121.7 61.05 117.15 53.05 112.2 53.05 106.3 53.05 103.45 54.1 102.2 57.05 98.6 67.15 98.6 70.15 98.6 70.85 100.45
L 71.65 103.15 68.05 105.35
Q 65.95 106.55 65.95 107.9 65.95 110.7 66.35 110.95
L 66.7 110.6
Q 67.6 111.1 67.7 111.55
L 71.15 111.75
Q 74 111.75 77.55 108.8 81.05 105.95 81.05 103.8 80.3 100.2 78.15 96.8 73.95 90 66.95 90 50.65 90 45.95 97.55 43.6 101.35 44.45 105.6 44.45 114.8 53.65 122 63.25 129.45 76.6 129.45 91.55 129.45 96.95 119.7 98.6 116.55 99.15 112.7
L 99.4 109
Q 99.4 92.2 87.55 82.85 77.3 74.7 61.65 74.4 46.7 74.15 35.75 80.9 33.8 82.1 32.2 83.4 30.45 90.6 31 99.55
L 31.95 101.05 33.3 99.55 33.35 99.45
Q 35.85 96.35 36.5 93.1 Z"/>
</g>
</defs>

<g transform="matrix( 1, 0, 0, 1, 0,0) ">
<use xlink:href="#Layer0_0_FILL"/>
</g>
</svg>
