
<svg xmlns="http://www.w3.org/2000/svg" version="1.1" xmlns:xlink="http://www.w3.org/1999/xlink" preserveAspectRatio="none" x="0px" y="0px" width="550px" height="400px" viewBox="0 0 550 400">
<defs>
<g id="Layer0_0_FILL">
<path fill="#000000" stroke="none" d="
M 151.1 47.4
Q 137.85 47.7 131.95 47.3 123.35 46.75 105.5 46.45 104.3 45.65 98.5 35.55 91.8 23.75 90.25 21.6 76.7 2.25 73.5 2.1 73.6 1 73 0.75
L 72.75 0.85
Q 71 1.3 64.65 15.7 58.45 29.65 50.9 50.15
L 50.45 51.3
Q 29.15 56.95 14.85 61.8 0.15 66.75 0.55 68.25 0.85 68.8 2.1 68.8
L 2 68.9
Q 1.15 70.2 7.45 75.7 13.8 81.3 23.45 87.75 30.95 92.7 37.45 96.2 43.7 99.55 46.8 100.35 44.9 106.45 42.75 127.55 41.6 139.9 41.6 148.7 41.6 157.55 42.75 157.65 42.85 157.65 43.1 157.95 43.25 158.15 43.35 157.95
L 44.2 157.65
Q 44.25 157.65 88.05 133.75
L 138.05 144.65
Q 138.8 145.75 139.4 145.55 140.65 145.2 139.2 136.8 137.65 128.25 134.3 116.85 131.65 107.65 128.9 100.45 126.2 93.4 124.45 90.95 126.2 89.95 131.2 84.5 136.2 79.05 142.35 71.45 148.7 63.7 153.2 57.4 157.5 51.35 157.85 49.75 160.05 49 160.05 48.25 160.05 47.15 151.1 47.4
M 85.3 26.7
Q 89.9 33.5 95.85 42.25 99.95 47.85 103.4 49.9 106.95 52.05 113.4 52.55 116.8 52.8 131.2 52.85 138 52.8 145.2 52 151.6 51.3 155.95 50.3 153.5 52.25 149.1 56.95 144.15 62.2 138.95 68.6 133.15 75.7 128.7 82 124.55 87.85 123.7 90.05 123.45 89.75 122.95 90 121.7 90.3 123.15 98.75 124.6 107.3 127.95 118.7 132.1 132.65 136.15 141.3 136.15 141.25 86.7 124.05 45.65 150.35 45.65 150.4 47.4 142.15 48.7 128.2 49.6 118.95 49.75 111.15 49.95 103.7 49.45 100.3 49.7 99.85 49.2 99 48.85 98 48.6 98 46.45 95.25 41 90.75 35.1 85.9 27.9 81.15 20.3 76.05 13.5 72.55 7.15 69.25 4.15 68.7 9.8 68.15 23.4 64.9 37.1 61.55 54.85 56.4 54.85 56.35 55.45 55 62.45 37.45 67.15 23.95 71.95 10.25 73.05 4.55 73.95 7.7 77.1 13.5 80.6 19.95 85.3 26.7 Z"/>
</g>
</defs>

<g transform="matrix( 0.750946044921875, -0.2012939453125, 0.201202392578125, 0.7513275146484375, -8.75,54) ">
<use xlink:href="#Layer0_0_FILL"/>
</g>
</svg>
