
<svg xmlns="http://www.w3.org/2000/svg" version="1.1" xmlns:xlink="http://www.w3.org/1999/xlink" preserveAspectRatio="none" x="0px" y="0px" width="550px" height="400px" viewBox="0 0 550 400">
<defs>
<g id="Layer0_0_FILL">
<path fill="#CCBBD7" stroke="none" d="
M 88 45.25
L 87.25 45.35 86.95 45.55
Q 86.8 45.8 86.8 49.15 86.35 50 85.5 50.35 83.85 47.75 82.75 47.75 80.85 47.75 80.6 51.75
L 77.65 47.15
Q 76.7 45.8 74.95 44.75 74.25 45.3 74.25 46.65 74.25 47.7 75.25 52.3 75.1 52.75 69.25 53.85
L 69.2 57.2 69 57.75
Q 67.9 57.5 67.8 56.8 67.85 55.65 67.55 54.6
L 67.3 54.45 66.5 54.25
Q 64.15 54.25 62.7 56.35 61.5 58.1 59.35 57.5 58.75 62.55 59.1 66.25
L 57.8 63.25
Q 56.4 60.15 55 58.25 53.85 58.55 51.25 61.5 49.3 63.75 46.75 62.6
L 46.75 64.85
Q 47.95 65.6 48.2 66.6
L 48.2 70.15 48.1 70.25 46.4 66.7
Q 45.1 64.1 44.25 63.75
L 43.2 64.75
Q 42.35 65.95 42.3 68.2 42.25 69.75 42 69.75 41.45 65.75 39.5 65.75
L 38.75 65.85 38.45 66.05 38.1 70.75 36.2 67.65
Q 34.3 64.75 33.5 64.75 32.6 64.75 32.4 65.1 32.25 65.4 32.25 66.95 32.25 68 33.1 71.75
L 31.95 71.7
Q 30.85 71.7 30.25 73.3 29.75 74.6 29.75 76.15 29.75 76.75 30 77
L 30.65 77.45 31.25 78 26 76.75 24.6 77 24.45 76.95
Q 24.25 77 24.25 77.6
L 26 79.85 25.75 81.1
Q 25.5 81.75 25.6 82 23.75 81.75 22.8 82.85 22.25 83.55 22.25 84.15 22.25 86.5 24.4 86.45
L 25.25 86.5
Q 24.15 86.55 23.5 87.05 22.8 87.55 22.25 88.75 23.2 89.35 24.5 89.85
L 22.85 91.6 22.25 92.5 23.15 96.55
Q 24.5 100.55 26.85 100.85
L 26.2 103.25
Q 25.75 105.05 27.5 107.15 29.2 109.25 40.3 117.65 51.4 126.05 59.35 127.8 67.3 129.55 71.25 132.75 76.8 137.2 77.65 140.3 78.15 142.15 77.6 145.25 77.6 145.65 78.2 146.55 79 147.75 80 147.75 81 147.75 81.7 146.35 82.25 145.3 82.25 144.55
L 80 140.15 80.85 139.25 79.5 137.25 80.6 136.7
Q 81 136.4 81.25 135.4 80.75 134.3 73.75 129.8 72.5 129 69 127.5 65.3 125.9 64.15 125.75
L 57.75 125.55
Q 51.2 124.55 45.25 119.85
L 37.1 112.85 33.5 109.1
Q 33.5 108.6 33.9 108.55 34.3 108.5 34.3 108 34.3 107.1 33.2 106.85
L 31.15 106.65 31.25 105.8 31 104.8 30.5 104.25 32.75 102.25
Q 30.4 102.15 30.4 101.5
L 30.85 100.4 29.1 95
Q 30.65 95.2 31.35 94.45 31.75 93.95 31.75 93.25 31.75 92.55 30.65 92.35
L 26.6 92
Q 31.4 91.2 33.15 90.3 34.25 89.75 34.25 88.85 34.25 87.45 32.1 86.6
L 32.1 84.5
Q 36.1 84.25 36.45 83.8 36.25 83.15 36.6 82.5
L 39.95 82.9
Q 42.35 82.9 43.35 82.3 44.25 81.75 44.25 80.55 43.05 78.4 41 74.05
L 40.75 73.1
Q 41.15 73.2 45.5 79.75 48.6 79 48.75 75.5
L 50.7 76.75 51.6 76.55 51.75 75.35
Q 51.75 74.35 50.85 71.35
L 50.75 71.1
Q 56.5 77.25 58.8 77.25 59.95 77.25 60.35 76.85 60.75 76.5 60.75 75.5 59.35 73.45 59 72.1
L 59.15 71.25 59.6 71.5 60.65 71.7
Q 62.1 71.7 63.3 70.5 64.25 69.55 66.1 70.05
L 66.25 67.1
Q 66.95 67.55 71.55 69.25 76 67.1 77.6 65
L 80 66.25
Q 80.45 66.25 80.75 65.7 81 65.1 81.8 65.1
L 82.85 65.7
Q 83.75 66.25 84.2 66.25
L 85.1 66.05 85.25 65.2
Q 85.25 64 84.1 62.85 85.95 61.25 89.9 61.05 92.45 60.95 93.1 57
L 95 58.95
Q 96.1 59.75 96.75 59.75 98.3 59.75 98.3 58
L 97.75 54.6 98.95 54.35 99.75 53.85 101.05 55.7
Q 101.6 56.25 102.5 56.25 104.25 56.25 104.25 53.2 104.25 52.3 103.8 51.75 102.45 50.15 101 47.75 100.35 48.1 99.1 49.8
L 99 49.85 97.7 47.65
Q 97.45 47.25 95.75 47.25 94.25 47.25 94.25 48.65
L 95.25 54.85 93.75 51.8
Q 92.6 49.2 91.5 48.25 90.35 48.45 90.3 48.6
L 89.75 50.75
Q 90.35 47.75 89.95 46.5 89.55 45.25 88 45.25 Z"/>
</g>
</defs>

<g transform="matrix( 1, 0, 0, 1, 0,0) ">
<use xlink:href="#Layer0_0_FILL"/>
</g>
</svg>
