
<svg xmlns="http://www.w3.org/2000/svg" version="1.1" xmlns:xlink="http://www.w3.org/1999/xlink" preserveAspectRatio="none" x="0px" y="0px" width="550px" height="400px" viewBox="0 0 550 400">
<defs>
<g id="Layer0_0_FILL">
<path fill="#FFFFFF" stroke="none" d="
M 20.55 33.25
L 23.85 28.55 17.2 28.55 20.55 33.25
M 29.65 33.65
L 29.65 31 25.15 31 25.15 33.65 29.65 33.65
M 31.4 29.05
L 33.85 33.2 36.35 29.05 31.4 29.05
M 2.8 32.4
L 2.7 32.45
Q 2.45 32.65 2.45 33.1 2.45 33.5 2.7 33.7
L 2.8 33.75 3.3 33.95 3.85 33.75 3.85 33.7 4.1 33.1 3.85 32.45
Q 3.65 32.15 3.3 32.15 2.95 32.15 2.8 32.4
M 3.25 26.65
L 3.2 26.75
Q 2.95 26.9 2.95 27.25
L 3.2 27.8 3.25 27.85 3.3 27.95 3.6 27.8 3.75 27.25 3.6 26.7 3.3 26.5 3.25 26.65
M 14.15 23.8
Q 13.95 23.8 13.8 23.95
L 13.75 24 13.55 24.4 13.75 24.85 14.15 25 14.6 24.9 14.65 24.85 14.7 24.4 14.6 23.95 14.15 23.8
M 9.35 16.3
Q 6.75 15.4 2 16.65
L 2 16.95 10.2 16.6 9.35 16.3
M 4.5 19.8
L 1.8 19.8 3.1 22.65 4.5 19.8
M 45.8 33.15
L 49.2 31.9 48.1 28.95 45.7 33.15 45.8 33.15
M 42.8 32.65
L 42.85 32.65
Q 42 32.3 40.8 32.3
L 38.85 32.65
Q 38.2 33.05 38.15 33.35 38.2 33.7 38.85 34.05
L 38.85 34.1 40.8 34.45 42.8 34.1 43.5 33.35 42.8 32.65
M 44.3 28.2
L 45.4 26 43.2 26 44.3 28.2
M 42.9 30.2
L 41.15 27.75 40.95 27.65 39 30.3 42.9 30.2
M 48.85 26.85
L 50.25 26.65 50.65 26.3
Q 50.6 26.2 50.25 26.05 49.65 25.75 48.85 25.75
L 47.4 26.05 47.35 26.05 47 26.3 47.4 26.65 48.85 26.85
M 51.25 29.35
L 52 28.1
Q 51 28.2 50.25 28.65
L 50.2 28.65 50.1 28.7 51.25 29.35
M 54.15 25.1
Q 53.85 24.75 53.5 24.75
L 52.95 25.05 52.9 25.15
Q 52.55 25.3 52.55 25.75 52.55 26.15 52.9 26.45
L 52.95 26.5 53.5 26.75 54.1 26.5 54.15 26.5 54.45 25.75 54.15 25.1
M -1.1 8.95
L -1.1 9.9 0.7 13.35
Q 1.85 12.45 3.75 11.75 4.9 11.25 6.2 9.45
L -1.1 8.95
M -3.2 4.75
L -2.85 6.05 0.8 4.1 -3.2 4.75
M -2.45 -1.15
L -6.9 -1.15 -4.7 0.9 -2.45 -1.15 Z"/>
</g>
</defs>

<g transform="matrix( 1, 0, 0, 1, 0,0) ">
<use xlink:href="#Layer0_0_FILL"/>
</g>
</svg>
