
<svg xmlns="http://www.w3.org/2000/svg" version="1.1" xmlns:xlink="http://www.w3.org/1999/xlink" preserveAspectRatio="none" x="0px" y="0px" width="550px" height="400px" viewBox="0 0 550 400">
<defs>
<g id="Layer0_0_FILL">
<path fill="#FFFFFF" stroke="none" d="
M 52.4 27.15
Q 64.75 25.55 66.55 23.75
L 38.7 27.35 38.75 27
Q 39 25.95 38.85 25.5
L 38.15 24.6 35.4 25.8 35.45 25.65 35.35 24.6 33.65 24.35
Q 32.9 24.2 32.9 24.8
L 30.15 21.8
Q 26.7 18.15 23.75 19.2
L 24.05 17.15
Q 24.05 16.2 23.85 15.95 23.15 16.1 22.5 16.75
L 21.85 17.4
Q 21.15 17.4 20.65 16.75 20.15 16.15 18.6 16.25
L 18.95 14.85
Q 18.6 15.05 18.4 14.85 17.3 15.7 15.85 15.7 15.35 15.7 15.6 15.3 15.85 14.9 15.35 14.9 14.85 14.9 14.8 14.7
L 14.2 14.5 10.25 16.2
Q 9.75 16.2 9.75 15.75 9.75 15.3 9.25 15.3 8.75 15.3 7.35 15.8
L 5.4 16.3 2 15.25
Q 2 14.65 1.35 14.5
L 0.65 14.5
Q 1.05 12.65 0.8 11.9 0.45 10.9 -1.05 10.9 -1.7 10.9 -2.4 11.25 -2.95 11.55 -3.1 11.75
L -1.6 12.8
Q -2.85 13.45 -3.3 13.9 -4.4 15.05 -4.4 16.85 -4.4 17.85 -3.8 17.5
L -1.55 17.6 -2 19.05 -1.3 19.25
Q 0.1 20.45 1.05 20.1 6.1 20.65 8.05 20.2
L 10.65 19.85 14.55 19.95
Q 15.5 19.95 16.05 19.35
L 16.45 18.75 36.45 27.85 38.95 28.45 52.4 27.15 Z"/>
</g>
</defs>

<g transform="matrix( 1, 0, 0, 1, 0,0) ">
<use xlink:href="#Layer0_0_FILL"/>
</g>
</svg>
