
<svg xmlns="http://www.w3.org/2000/svg" version="1.1" xmlns:xlink="http://www.w3.org/1999/xlink" preserveAspectRatio="none" x="0px" y="0px" width="550px" height="400px" viewBox="0 0 550 400">
<defs>
<g id="Layer0_0_MEMBER_0_FILL">
<path fill="#000000" stroke="none" d="
M 55.35 3.95
Q 52.9 2.5 47.75 1.45 39.8 -0.65 32.55 0.3 24.9 1.3 20.2 5.4 17.25 7.2 13.9 10 9.75 13.65 7.8 16.7 7.3 17.5 6.2 19.05 5.25 20.4 4.85 21.5 4.2 23.1 3.05 26.45 1.75 29.45 1.25 33.2 -0.8 42.85 0.45 49.85 1.9 58.2 7.95 60.65 8.8 61.85 12.65 66.05 17.15 70.8 20.95 72.15 23.2 72.9 27.6 74.6 31.5 76.05 34.35 76.4 50.5 77.9 60.85 73.15 71.8 68.1 71.9 57.85 75.75 50.8 76.85 44.3 77.25 30.55 74.35 21.15 71.35 11.45 66.5 12.05 64.2 9.7 62.9 8.7 60.85 7.15 55.35 3.95
M 72.6 26.95
Q 74.6 36.85 70.65 48.8 70.05 51.35 68.5 54.1 67.4 56 65.3 58.9 66.3 66.15 56.55 69.6 47.9 72.65 35.7 71.5 34.35 71.35 27.7 70.85 24.9 70.6 23.65 70.05 22.35 69.45 14.85 61.1 8.95 58.2 6.55 49.1 4.3 40.6 6.35 33 7.1 29.95 7.5 28.45 8.2 25.8 9.15 24.05 12.35 18.25 14.6 16.1
L 16.6 14.3
Q 21.45 5.25 31.3 4.05 39.75 3.05 51.4 7.75 54.7 8.75 59.4 12.3 70.2 15 72.6 26.95 Z"/>
</g>
</defs>

<g transform="matrix( 0.6500244140625, 0, 0, 0.6509246826171875, -6.8,-10.4) ">
<use xlink:href="#Layer0_0_MEMBER_0_FILL"/>
</g>
</svg>
