
<svg xmlns="http://www.w3.org/2000/svg" version="1.1" xmlns:xlink="http://www.w3.org/1999/xlink" preserveAspectRatio="none" x="0px" y="0px" width="550px" height="400px" viewBox="0 0 550 400">
<defs>
<g id="Layer0_0_FILL">
<path fill="#534424" stroke="none" d="
M 19.4 -41.65
L 1.15 -40.9
Q -6 -40 -9.6 -37.25 -13.25 -34.45 -14.7 -28.45 -16 -23.05 -16 -12.35 -16 6.6 -6.65 22.1 2.9 38 15.25 38 28.85 38 36.2 28.7 45.3 17.25 45.3 -8.45
L 45.3 -24.6
Q 45 -31.5 43.1 -34.8 40.95 -38.55 35.55 -40.1 30.2 -41.65 19.4 -41.65
M 36.85 -19.3
Q 39.8 -5.55 39.8 -0.45 39.8 13.9 31.95 23.55 24.65 32.55 15.15 32.55 5.6 32.55 -2.5 18.75 -9.7 6.4 -9.7 -4.05 -9.7 -8.1 -8.95 -8.95 -8.25 -9.8 -8.25 -10.3
L -9.6 -17.15
Q -9.6 -24.35 -9.25 -26.35 -8.6 -29.95 -6 -31.6 -1.65 -34.45 21.85 -35.5 36.9 -34.6 37.6 -30.1
L 37.45 -25.5
Q 37.45 -22.4 39.45 -20.1
L 36.85 -19.3 Z"/>
</g>
</defs>

<g transform="matrix( 1, 0, 0, 1, 0,0) ">
<use xlink:href="#Layer0_0_FILL"/>
</g>
</svg>
