
<svg xmlns="http://www.w3.org/2000/svg" version="1.1" xmlns:xlink="http://www.w3.org/1999/xlink" preserveAspectRatio="none" x="0px" y="0px" width="550px" height="400px" viewBox="0 0 550 400">
<defs>
<g id="Layer0_0_FILL">
<path fill="#67481F" stroke="none" d="
M 21.35 18.35
Q 19.35 19.5 10.15 17.65 -0.25 15.6 -3.7 11.3 -4.25 14.65 -4.25 16.1 -4.25 16.85 -4.15 17.4 8.65 22.5 11.05 23.05 19.75 24.9 21.35 18.35
M 5.6 34.8
Q 8.25 34.05 11.35 33.95 2.95 30.45 -3.7 24.2 -4.75 28.45 -0.7 31.3 1.55 32.9 5.6 34.8
M 9.55 30.9
Q 10.35 31.2 11.75 31.95 12.5 32.3 12.85 32.2 14.05 31.15 17.85 27.15 19.95 24.9 20.3 25.55
L 20.4 24.2
Q 16.6 24.1 14.05 27.15 11.2 30.55 9.55 30.9
M 14.25 11.3
Q 16.9 9.7 19.05 7.3 18.4 7.2 7.85 6.6 1.05 6.15 -2.5 4.5 -3.15 5.35 -3.3 6.5
L -3.3 6.65
Q -3.15 6.95 -2.95 7.3 -0.1 9.1 6.2 9.6 12.4 10.05 14.25 11.3
M 20.1 7.4
Q 19.05 10.45 15.3 12.6 13.85 13.4 9.1 15.2 12 16.1 15.05 16.55 15.9 15.4 18.85 12.35 21.1 9.95 21.75 8.55 20.8 8.2 20.1 7.4
M 26.4 18.2
Q 28.15 7.95 23.6 8.6 21.5 17.4 20.95 24.6 20 36.1 24.3 34.95 23.9 32.3 24.75 27.1 25.9 21 26.4 18.2
M 59.55 28.1
Q 56.55 32.95 56.45 33.05 56.85 34.45 57.9 34.7 58.5 34.85 59.55 35.05 59.65 34.65 60.05 33.95 62.6 30.2 63.9 25.85 61.75 24.5 59.55 28.1
M 47.05 22.3
Q 46.3 21.15 45.6 21.1 45.05 21.25 44.9 21.15 43.8 25.05 46.95 29.35 51.2 35 51.55 36.15 53.55 36.25 55.5 36.15 49.95 30.15 47.05 22.3
M 42.85 22.5
Q 43.85 19 41.55 19.95 39.35 20.9 36.4 25.05 33.05 29.8 31.3 35.55 32.65 35.55 34.45 35.8 35.75 35.85 36.35 34.9 41.75 26.6 42.85 22.5 Z"/>

<path fill="#837A72" stroke="none" d="
M 20.85 -4.7
Q 20.6 -3.95 20.95 -3.2 21.3 -2.5 22.05 -2.2
L 22.15 -6.4
Q 21.15 -5.8 20.85 -4.7
M 19.2 -4.3
Q 19.2 -6.15 20.05 -7.4 20.95 -8.75 22.25 -8.5 22.55 -12.7 22.55 -12.8 17.2 -12.6 15.9 -12.2 14.1 -11.6 14.35 -7.55 15.55 -2.6 17.45 1 19.9 5.6 22.55 5.95
L 22.3 5.95
Q 22.95 6.1 23.05 6.15 22.85 3.75 23 2.45 23.2 0.7 23.2 0.65 19.1 0.5 19.2 -4.3 Z"/>
</g>
</defs>

<g transform="matrix( 1, 0, 0, 1, 0,0) ">
<use xlink:href="#Layer0_0_FILL"/>
</g>
</svg>
