
<svg xmlns="http://www.w3.org/2000/svg" version="1.1" xmlns:xlink="http://www.w3.org/1999/xlink" preserveAspectRatio="none" x="0px" y="0px" width="550px" height="400px" viewBox="0 0 550 400">
<defs>
<g id="Layer0_0_MEMBER_0_FILL">
<path fill="#000000" fill-opacity="0.3176470588235294" stroke="none" d="
M 25.75 45.8
Q 24.4 43.45 23.7 41.85
L 23.05 40.5
Q 23 40.35 22.4 39.25 22.2 39.05 21.7 39.2 21.15 39.35 20.8 40.15 20.35 41.05 20.2 42.3 19.95 44.9 20.95 47.85 21.9 51.1 23.85 53.7 25 55.35 26.4 56.5 27.45 57.4 28.85 58.15 29.6 58.5 32.1 60.1
L 36 62.6
Q 38.3 64 39.6 64.45 40.25 64.7 40.95 64.8
L 41.45 64.75 41.65 64.65 41.75 64.4 41.85 64.05 41.8 63.65
Q 41.7 63.1 41.35 62.45 40.55 60.95 39 59.15 37.4 57.2 35.55 55.55 33.5 53.7 31.75 52.75 30.95 52.3 30.45 51.8 29.85 51.25 28.65 49.95 27.2 48.25 25.75 45.8
M 48.75 16.65
Q 46.2 15.85 42.55 15.9 38.95 16 36.45 17 33.9 18 33.95 19.25 34 20.55 36.55 21.35 39.15 22.2 42.75 22.1 46.35 22.05 48.85 21.05 51.4 20.1 51.35 18.8 51.3 17.5 48.75 16.65
M 49 41.95
Q 48.85 44.4 49.85 47.5 50.85 50.6 52.4 52.5 53.95 54.4 55.2 54 56.45 53.65 56.6 51.15 56.75 48.7 55.75 45.6 54.75 42.5 53.15 40.6 51.6 38.7 50.35 39.05 49.15 39.45 49 41.95 Z"/>
</g>

<g id="Layer0_0_MEMBER_1_FILL">
<path fill="#000000" fill-opacity="0.3176470588235294" stroke="none" d="
M 75.8 38.55
Q 75.8 23.75 64.85 12.7 53.85 1.65 39.05 1.65 26.3 1.65 16.25 10.5 6.5 19.1 4.05 31.7 4.024609375 31.824609375 4 31.95 3.4 35.0421875 3.4 38.55 3.4 53.35 13.85 63.8 13.9001953125 63.8501953125 13.95 63.9 24.3708984375 74.25 39.05 74.25 52.15 74.25 52.25 74.25 58.8 73.5 63.3 69.05
L 65.55 66.2
Q 67.9 63.85 69.8 59.05 71.7 53.55 72.55 51.2 74.5 45.7 74.7 45.1 75.8 41.4 75.8 38.55
M 57.3 43.5
Q 54 46.6 52.45 48.2 49.65 51 48.5 53.2 44.2 61.3 39.85 58.6 38.7 57.9 36.9 55.85 35.35 54.1 34.8 54.05 23.45 53.2 20.8 50.6 18.4 48.3 19.85 40.75 20.75 36.2 22.95 32.05 22.976953125 31.9998046875 23 31.95 25.48671875 27.366015625 28.85 24.25 32.65 20.8 36.85 20 38.45 19.65 40.5 19.65 47.35 19.7 53.65 23.5 59.5349609375 27.03984375 61.35 31.95 61.62734375 32.5884765625 61.8 33.25 62.95 37.75 57.3 43.5 Z"/>
</g>

<g id="Layer0_0_MEMBER_2_FILL">
<path fill="#FFFFFF" fill-opacity="0.43137254901960786" stroke="none" d="
M 48.55 33.1
Q 45.5 31 41.1 30.9 36.7 30.8 33.55 32.75 30.4 34.65 30.3 37.55 30.25 40.4 33.3 42.5 36.4 44.65 40.75 44.75 45.15 44.85 48.3 42.9 51.5 40.95 51.55 38.05 51.65 35.2 48.55 33.1 Z"/>
</g>
</defs>

<g transform="matrix( 0.6500244140625, 0, 0, 0.6509246826171875, -6.8,-10.4) ">
<use xlink:href="#Layer0_0_MEMBER_0_FILL"/>
</g>

<g transform="matrix( 0.6500244140625, 0, 0, 0.6509246826171875, -6.8,-10.4) ">
<use xlink:href="#Layer0_0_MEMBER_1_FILL"/>
</g>

<g transform="matrix( 0.6500244140625, 0, 0, 0.6509246826171875, -6.8,-10.4) ">
<use xlink:href="#Layer0_0_MEMBER_2_FILL"/>
</g>
</svg>
