
<svg xmlns="http://www.w3.org/2000/svg" version="1.1" xmlns:xlink="http://www.w3.org/1999/xlink" preserveAspectRatio="none" x="0px" y="0px" width="550px" height="400px" viewBox="0 0 550 400">
<defs>
<g id="Layer0_0_FILL">
<path fill="#FFFFFF" stroke="none" d="
M 59.7 18.75
Q 59.25 16.55 58.2 14.5 58.6 12.9 57.8 11.4 57.05 9.95 55.5 9.25
L 55.05 8.5
Q 54.7 7.85 54.05 8.2
L 53.85 8.4 53.7 8.65
Q 50.65 5.9 47 4.55 43.1 3.15 39.4 3.6 35.85 4.05 32.9 5.85 29.75 7.8 28.2 10.8
L 26.85 10.5
Q 22.6 9.5 18.45 11.15 14.2 12.95 12.55 17.25 11.05 21.1 12 27.4 12.8 33.2 15.55 35.5 17.15 36.8 19.6 37.2 21.1 37.4 24.05 37.35 25.7 37.35 29 37.35 32 37.35 33.95 37.15 39 36.55 40.55 32.8 40.7 32.65 40.75 32.45 44.95 33.4 47.85 33.35 51.75 33.25 54.7 31.5 57.85 29.65 59.2 25.95 60.4 22.6 59.7 18.75 Z"/>
</g>
</defs>

<g transform="matrix( 1, 0, 0, 1, 0,0) ">
<use xlink:href="#Layer0_0_FILL"/>
</g>
</svg>
