
<svg xmlns="http://www.w3.org/2000/svg" version="1.1" xmlns:xlink="http://www.w3.org/1999/xlink" preserveAspectRatio="none" x="0px" y="0px" width="550px" height="400px" viewBox="0 0 550 400">
<defs>
<g id="Layer0_0_FILL">
<path fill="#FFFF00" stroke="none" d="
M 16.95 38.45
L 16.25 38.35 16.25 38.45 16.95 38.45
M 6.7 13.2
Q 12.45 8.85 16.35 6.4
L 4.15 6.15
Q 1.6 8 -3.25 10.3 -6.3 11.7 -8.15 12.35
L -7.8 12.25
Q -5.1 11.9 -3.15 11.8 -1.25 11.65 -1.2 11.95 -1.2 12.05 -1.35 12.25
L -1.05 12.25 -1.15 12.3
Q -0.75 12.9 -0.95 14.5 -1.05 16.05 -1.65 18.15 -2.2 19.95 -3 21.4 0.2 18.2 6.7 13.2
M 15.55 23.35
Q 10.3 23.85 5.85 24 -3.35 24.45 -7.5 23.75 -7.05 26.2 -6.85 28.15
L -6.6 30.1
Q -2.55 29.75 7.05 29.8
L 15.7 29.9
Q 15.4 28.7 15.3 26.65 15.3 24.55 15.55 23.35
M 37.25 19.45
L 37.35 19.75 37.35 19.45 37.25 19.45
M 25.15 23.1
Q 25 20.05 25.35 19
L 25.35 18.75
Q 21.7 18.75 16.25 18.6
L 16.25 18.95
Q 16.8 19.85 16.55 23.25
L 16.35 23.25
Q 16.7 24.45 16.7 26.65 16.8 29.5 16.35 30.45
L 16.6 30.6 16.6 30.65
Q 16.45 30.85 16.3 31.15 16.4 33.9 16.25 35.5 21.4 35.3 24.8 35.15 24.65 33.25 24.9 29.85 24.55 28.75 24.6 26.65 24.65 24.15 25.15 23.1
M 27.8 15.75
Q 27.6 16.1 27.45 16.15
L 27.8 16.15 27.8 15.75
M 26.35 11.2
Q 26.35 8.55 26.75 7.15
L 25.35 6.55 18.6 6.45
Q 17.2 7.9 14.4 10.3 14.9 11.3 14.9 13.15 14.9 14.4 14.7 15.35 14.4 16.3 14.1 16.5 19.65 16.25 27.35 16.15 26.9 16 26.6 14.6 26.35 13.2 26.35 11.2
M 23.35 2.6
Q 22.6 2.1 21.45 1.75
L 21.25 1.75
Q 20.35 1.5 19.2 1.35
L 19.15 1.4 19.25 1.75
Q 19.5 2.5 19.2 2.6 19 2.6 18.85 2.55 18.6 2.75 17.75 2.1 17.2 2.4 17.15 2.35
L 17.45 2.1 17.15 2
Q 16.3 1.75 14.95 2.1
L 14.65 2.1
Q 13.65 2.35 12.85 2.85 12.35 3.2 11.85 3.8
L 12.55 3.75 12.45 3.8 25.2 4
Q 25 3.9 24.65 3.6 23.85 2.85 23.35 2.6
M 50.7 23.1
Q 49.7 23.55 45.55 23.85 41.4 24 35.7 23.85 29.85 23.85 26 23.55 26.35 24.8 26.3 26.65 26.25 28.4 25.95 29.5 33.2 29.5 34.4 29.5 42.95 29.5 47.7 29.95
L 50.45 29.95 50.45 28.75
Q 50.5 25.55 50.7 23.1
M 40.55 12.25
Q 40.65 11.85 41.85 11.95 43.05 12.1 44.7 12.6 46.3 13 47.35 13.65 46.75 12.9 46.2 11.75 45.05 9.35 44.35 8.1
L 44.3 8.1
Q 43.7 7.05 43.1 6.5 36.35 6.6 29.35 6.55
L 31.1 7.15
Q 33.25 7.9 34.6 9.25 35.85 10.7 36.4 13 37.2 15.7 37.45 17.95 37.7 16.8 38.2 15.6 38.85 14.1 39.5 13.05 40.2 12.1 40.55 12.25
M 39.85 -3.1
Q 40.25 -2.4 39.75 -1.05 39.3 0.15 38.35 1.35
L 38 1.75
Q 37.15 2.5 36.7 2.85
L 35.9 4.25 39.4 4.35
Q 41 3.95 42.5 4.4
L 42.85 4.25
Q 42.9 3.75 43.75 2.45 45.7 -0.5 46.35 -1.8
L 46.45 -2
Q 47.25 -3.55 47.6 -5.25
L 47.15 -5.25
Q 46.2 -5.35 44.85 -5 43.2 -4.65 40.35 -3.35
L 39.85 -3.1
M 36 -8.55
Q 34.5 -7.85 32.75 -6.9 29.7 -5 26.95 -3.35
L 21.45 0.05 21.7 0.05 21.95 0.15
Q 23.3 0.55 24.25 1.35 25.2 2.15 25.4 3.1 25.65 3.85 25.35 4
L 25.9 4
Q 26.4 3.45 28.1 2.1 31.6 -0.75 35.65 -2.95 37.55 -3.95 39.65 -4.85 42.5 -6.05 44.7 -6.15 46.65 -6.4 47.7 -5.7
L 48 -7.65
Q 47.7 -8.85 47.1 -9.6
L 46.2 -10.25
Q 44.9 -10.85 43.4 -10.8 41.85 -10.8 39.95 -10.2 38.1 -9.55 36 -8.55
M 2.1 -3.35
L 2.3 -3.2
Q 4.85 -1.7 7 0.3 9.75 2.75 10.15 3.8
L 10.5 3.8
Q 10.35 2.6 11.5 1.35 12.6 0.25 14.1 -0.15
L 14.35 -0.15 12.35 -1.65
Q 7.75 -4.95 4.8 -6.55
L 4.35 -6.9
Q 2.1 -8.15 0.3 -8.75 -1.85 -9.55 -3.45 -9.8
L -4.4 -9.9
Q -5.75 -9.9 -6.85 -9.5 -7.8 -9.15 -8.8 -8.45 -9.6 -7.45 -9.55 -6 -9.35 -5.35 -9.1 -4.75
L -8.7 -4.05
Q -8.55 -4.55 -7.25 -5 -5.5 -5.7 -3.3 -5.4 -0.65 -4.95 2.1 -3.35
M 0.9 -0.7
Q 0.2 -1.55 0.2 -2 -2.05 -3.15 -3.65 -3.5 -5.15 -3.9 -6.9 -3.9 -8.55 -3.9 -8.6 -3.9 -7.85 -2.75 -7.2 -1.75
L -6.9 -1.35
Q -5.75 0.25 -3.7 2.8
L -2.95 3.95
Q 1.15 3.8 6.1 3.8 4.75 3.1 3.1 1.55
L 2.65 1.15
Q 1.6 0.2 0.9 -0.7 Z"/>
</g>

<g id="Layer0_1_FILL">
<path fill="#000000" stroke="none" d="
M 104.4 8.35
Q 104.2 6 103.4 5.2 102.65 2.95 100.35 1.45 98.2 0.15 95.4 0 92.65 -0.05 89.5 0.85 86.45 1.7 82.85 3.4 80.45 4.55 77.6 6.15 73.4 8.5 68.35 11.9 61.7 16.3 58.85 18.4 56.7 18.25 55.15 18.8
L 54.75 18.95 54.7 18.9
Q 53.6 18.3 52.05 18.15 48.95 15.4 47.45 14.2 41.25 9.05 35.4 5.7
L 34.7 5.3
Q 31.25 3.35 27.8 2.15 24.05 0.85 21.05 0.8 17.55 0.65 14.9 1.95 12.45 3.15 11.25 4.95 10.65 5.85 10.55 6.5 10.6 6.55 11.9 5.5 13.6 4.2 15.55 3.55 17.9 2.75 20.9 3.05 23.45 3.3 26.9 4.6 29.8 5.65 33.35 7.7
L 34.05 8.1
Q 38.95 10.9 46.1 16
L 49.25 18.3 48.85 18.4
Q 46.45 18.95 44.7 20.7 42.9 22.7 43.1 24.65
L 42.55 24.65
Q 41.9 22.95 37.6 19.05 34.1 15.8 30.05 13.45
L 29.8 13.25
Q 25.45 10.75 21.2 10.05 17.65 9.55 14.9 10.55 12.85 11.35 12.6 12.15
L 12 11
Q 11.35 9.7 10.8 7.8 10.4 6.55 10.2 6.5 9.75 6.45 9.5 7.9 9.2 9.6 9.9 11.8 10.7 14.45 12.7 17.35
L 13.25 18.1
Q 16.25 22.15 19.7 24.8 7.1 25.05 2.55 25.55 2.25 25.15 2 25.15 1.7 25.15 1.4 25.7 0.1 25.85 0.1 26.1 0.1 26.3 1.1 26.45 0 29.75 0 36.7 0 41.5 0.6 44.9 1.2 48.3 2 48.3 2.4 48.3 2.7 47.6 4.95 48.7 10.4 48.8 9.55 53.1 10.85 63.15
L 11.45 67.1
Q 10.15 71.85 9.8 75.15 9.45 78.5 10.25 78.7 10.28359375 78.73359375 10.35 78.7 9.25 79.007421875 9.25 79.2 9.3 79.9 20.35 79.8 31.35 79.65 47.15 78.8 50 79.5 58.45 80.15 67.2 80.8 78 81.15 99.75 81.8 108 80.8 108.4 81.6 108.75 81.6 109.15 81.6 109.6 80.5 110.15 80.35 110.2 80.15 110.2 80.05 109.8 79.85 111.2 75.25 111.35 64.25 111.45 57.85 110.95 53.1 110.5 48.3 109.65 47.15 115.15 46.75 116.85 46.35
L 116.95 46.35 117.25 46.25
Q 117.9 46 117.9 45.9 117.9 45.8 117.7 45.7 119.1 43.1 119.25 36.05 119.35 31.7 118.8 28.7 118.25 25.65 117.4 25.6 116.8 25.6 116.25 27.35 114.1 26.45 94.85 25.7 95.65 25.45 97.5 23.7 100.65 20.65 102.6 16.95
L 102.8 16.6
Q 104.85 12.35 104.4 8.35
M 102.5 8.3
L 102.25 9.55
Q 100.7 8.45 97.5 8.7 94 9 89.45 10.85 86 12.3 83.1 13.9 76.95 17.2 71.05 21.85 68.35 24.05 67.55 24.9
L 66.75 24.85
Q 67.137109375 24.6486328125 66.85 23.5 66.45 22.05 64.95 20.75 63.4 19.4 61.25 18.8
L 60.9 18.7 60.55 18.65 69.25 13.3
Q 75.55 9.4 78.5 7.7 81.25 6.15 83.65 5 86.95 3.35 89.95 2.4 92.95 1.4 95.4 1.4 97.85 1.35 99.8 2.35 101.8 3.4 103.05 5.15 102.85 5.25 102.75 6.15 102.7 6.7 102.5 8.3
M 101.35 10.25
L 102.1 10.25
Q 101.5 12.9 100.25 15.35
L 100.1 15.7
Q 99.05 17.75 95.95 22.45 94.15 25.35 94.5 25.7
L 94 25.65
Q 91.6 24.8 89 25.45
L 81.9 25.25
Q 84.4 23.85 86.8 21.25
L 87.3 20.65
Q 88.9 18.8 89.55 16.9 90.4 14.85 89.75 13.6
L 90.5 13.25
Q 95.05 11.15 97.75 10.55 99.8 10.15 101.35 10.25
M 84.4 16.35
Q 85.6 15.7 89.05 13.95 88.55 15.25 88 16.15 87.15 17.4 85.65 19.25
L 85.15 19.8
Q 80.85 24.15 80.1 25.2
L 69.6 24.95 72.15 23.5
Q 75 21.85 84.4 16.35
M 98.85 30.2
Q 98.75 30 97.95 28.8 113.9 28.5 116.15 27.75 115.25 30.85 115.1 35.95 115 42.6 116.05 45.3 110 44.35 89.8 44.2 91.3 40.35 91.15 38.6 92.5 39.95 96.7 41.15 99.2 41.9 101.1 42.1 103 42.3 103.35 41.85 103.85 42.2 104 42 104.15 41.85 103.45 40.35 102.25 37.8 101.65 36.35 99.85 31.85 98.95 30.3
L 98.85 30.2
M 94.9 28.85
Q 95.85 29.8 96.8 31.45
L 96.85 31.5
Q 98 33.45 99.8 37.25 100.75 39.05 101.7 40.2 100 39.3 97.5 38.55 94.85 37.8 92.95 37.6 91 37.45 90.85 38 90.3 37.8 89.2 39.35 88.15 40.9 87.15 43.35 86.35 45.4 85.95 47.15 85.55 43.55 84.25 39.15 83.35 35.55 81.4 33.3 79.35 31.15 75.85 29.9
L 73 28.95
Q 84.2 29 94.9 28.85
M 81.5 40.05
L 83.05 44.15 70.05 44.25
Q 70.75 44.05 71.2 41.8 71.65 39.55 71.65 36.4 71.65 33.4 71.15 31
L 74.7 32.6
Q 78.05 34.25 79.05 35.4 80.15 36.6 81.5 40.05
M 87.85 48.1
Q 100.45 47.8 108.7 47.25 107.8 48.6 107.15 54.45 105.75 53.7 99.3 53.45 92.95 53.2 84.4 53.55 79.2 53.7 67.95 54.4 68.35 49.7 67.55 48.35
L 75.05 48.3
Q 80.05 48.3 84.7 48.15 85.4 49.6 85.8 49.55
L 86.05 49.8
Q 86.65 50.05 87.85 48.1
M 106.6 64.2
L 106.6 66.9
Q 104.4 66.2 97.35 65.8 90.5 65.4 81.1 65.4 79.2 65.4 67.65 65.55 68.15 63.8 68.2 61 68.25 58 67.75 56 73.95 56.4 83.15 56.55 92.2 56.75 98.8 56.4 105.5 56.05 107.05 55.3 106.7 59.2 106.6 64.2
M 82.35 68.25
Q 91.15 68.7 97.7 68.65 104.45 68.6 106.6 68 106.75 75.7 107.6 79.35 99.15 77.9 78.15 77.25
L 71.2 77.1
Q 87.1 75.7 87 74.85 86.95 73.85 67.45 74.45 67.8 71.6 67.7 67.3 74.2 67.85 82.35 68.25
M 63.55 22.7
Q 64.35 23.15 65.6 24.25 66.23125 24.7759765625 66.55 24.85
L 45.25 24.65
Q 46.05 23.65 46.85 23.1 48.1 22.3 49.7 21.9
L 50.2 21.8
Q 52.3 21.4 53.7 21.7
L 54.2 21.8 53.75 22.25
Q 53.85 22.35 54.65 22 56.1 22.9 56.3 22.6 56.6 22.75 56.85 22.7 57.4 22.5 57.05 21.35
L 56.85 20.85 56.95 20.8
Q 58.75 21 60.2 21.4
L 60.5 21.45
Q 62.35 22 63.55 22.7
M 49.3 34.95
Q 53.8 31.15 56 28.8
L 66.7 28.95 68.95 30
Q 68.25 32.25 68.25 36.4 68.25 39.55 68.7 41.8 69.2 44.05 69.85 44.25 57.65 44.4 48.75 44.85 49.35 44.45 49.75 43 50.15 41.45 50.1 39.5 50.1 36.55 49.3 34.95
M 47.1 43.05
Q 47.5 44.55 48.15 44.85 39.7 45.25 35.75 45.75
L 39.6 42.8
Q 43.3 39.95 46.85 37.05 46.65 38.55 46.7 39.55 46.7 41.55 47.1 43.05
M 26.75 15.45
Q 26.8 16.15 27.85 17.5 28.9 18.85 30.6 20.4
L 31.3 21.05
Q 34 23.45 36.1 24.65 28.25 24.65 21.7 24.8
L 20.5 23
Q 17.35 19 15.45 16.45
L 14.95 15.75
Q 13.9 14.3 12.7 12.35 12.8 12.4 15.4 12.35 18.2 12.3 20.6 12.95 23.2 13.6 26.75 15.45
M 37.55 24.65
Q 37.3 23.2 33.4 19.6
L 35.8 21.25
Q 39.75 24 41 24.65
L 37.55 24.65
M 4.05 36.7
Q 4.05 30.15 3.05 26.75 8.9 27.45 25.75 28.1 22.2 29.5 19.35 30.85 13.2 33.75 9.1 36.4 5.05 39.05 5.4 39.9
L 5.5 40
Q 4.2 40.4 3.95 40.65
L 4.05 36.7
M 3.25 45.85
Q 3.75 43.65 3.9 41 5.15 41.75 14.35 40.35 20.1 39.45 23.25 38.35 21.35 40.15 19.7 45.5 16.8 44.7 11.8 44.7 6.05 44.8 3.25 45.85
M 12.45 48.8
Q 16.4 48.7 18.95 48.1 18.2 51.1 18.2 53.2 15.55 53.45 13.95 53.8 13.15 50.4 12.45 48.8
M 14 38.15
L 13.4 38.25
Q 16.35 37.2 21.25 34.95 28.9 31.3 33.05 28.35
L 52.3 28.75
Q 46.1 32.65 37.1 39.55 26.8 47.5 21.65 52.6 22.9 50.3 23.75 47.35 24.85 43.7 25 40.95 25.15 38.2 24.25 37.95 24.55 37.75 24.55 37.6 24.5 37.15 21.4 37.3 18.3 37.5 14 38.15
M 34.05 52.8
Q 29.6 52.75 25.75 52.8 28.55 51 33.85 47.15 40.8 48.25 66.85 48.35 66.2 49.6 66.4 55.35 65.6 56.9 65.5 60.95 65.4 64.3 66 66.1 65.65 71.4 65.8 74.55 60.4 74.7 52.25 75.1 52.5 72.45 52.3 68.1
L 52.85 67.3 52.85 67.25 52.8 67.25 52.75 67.2 52.6 67.1 52.35 67
Q 53.1 65.45 53 60.95 52.95 57.45 52.35 55.55
L 52.7 55.55
Q 52.95 52.1 52.65 50.15 52.4 48.3 51.75 48.3 51.15 48.3 50.85 49.85 50.55 51.45 50.8 53.6 42.65 53 34.05 52.8
M 15.55 63.35
Q 15.2 60.25 14.45 56.3 21.05 57.45 35.7 56.75 42.8 56.45 51.15 55.7 50.75 57.55 50.75 61 50.85 64.15 51.35 66.15
L 37.65 65.9
Q 22.4 65.8 15.9 66.4
L 15.55 63.35
M 10.45 78.7
Q 11.3056640625 78.4884765625 12.75 75.55 14.2 72.6 15.8 67.9 24.05 68.85 37.65 68.9
L 41.25 68.95
Q 48.6 68.85 50.75 68.7
L 51.15 68.7
Q 51.1 73.1 51.3 75.15
L 48.05 75.3
Q 34.55 76.1 24 77.05 13.6607421875 77.9990234375 10.45 78.7 Z"/>
</g>
</defs>

<g transform="matrix( 1, 0, 0, 1, 0,0) ">
<use xlink:href="#Layer0_0_FILL"/>
</g>

<g transform="matrix( 0.6290283203125, 0, 0, 0.62908935546875, -16.45,-11.55) ">
<use xlink:href="#Layer0_1_FILL"/>
</g>
</svg>
