
<svg xmlns="http://www.w3.org/2000/svg" version="1.1" xmlns:xlink="http://www.w3.org/1999/xlink" preserveAspectRatio="none" x="0px" y="0px" width="550px" height="400px" viewBox="0 0 550 400">
<defs>
<g id="Layer0_0_MEMBER_0_FILL">
<path fill="#000000" fill-opacity="0.3607843137254902" stroke="none" d="
M 58.65 34.1
L 58.35 34.05 58.45 34.25 58.65 34.1
M 11.45 12.85
L 12.1 12.65 11.6 12.5 11.45 12.85
M 14.05 11.8
L 13.7 12.15 12.1 12.65
Q 12.7 12.95 13.1 14.25 13.35 15.3 14.05 15.2 19.6 14.45 21.25 18.5 22.15 20.75 22 26.6
L 25.9 26.6 37.5 25.3 28.8 14.9 16.15 11.15 14.05 11.8
M 24.25 4.5
L 21.75 1.05
Q 16.85 3.6 14.45 6.8 12.95 8.75 11.6 12.5
L 14.05 11.8 16.35 9.25 20.25 9.1 19.65 5.65 22.85 7 22.6 4.95 24.25 4.5
M 100.35 31.6
L 101 32.9
Q 102.1 32.9 103.05 33.8
L 103.15 33.8
Q 103.05 33.3 105 34.4 105.9 35.65 105.5 36.5 105.1 37.3 105 37.35 104.45 37.95 104.05 38.15
L 102.95 38.95
Q 102.25 39.9 101.35 40.45 100.4 41.15 99.2 41.65 98.9 41.8 97.9 41.95 97.2 41.95 96.55 40.4 95.7 40.2 94.85 39.85
L 94.3 39.05 94.15 39.05 93.75 39.3 93.25 39.3 92.6 39.65 92.3 39.85
Q 91.95 39.8 91.8 39.2 90.6 39.2 89.2 39
L 89.05 39
Q 88.05 40.05 87.15 40.55 86.1 41.2 84.8 41.65 84.55 41.9 82.8 41.75 81.65 42.05 80.75 42.1 79.3 42.25 78.05 41.15
L 76.55 41.9
Q 76.4 42.05 75.5 42.2 75.25 42.8 72.4 41.15
L 71.95 40.55 70.7 41.25
Q 70.95 41.85 69.8 41.7 68.55 41.55 66.05 40.55
L 65.4 38.5 61.75 41 60.95 41.4
Q 61.8 42.5 56.85 40.55
L 55.95 38.75 50 43.15 49.15 43.4
Q 49.4 43.25 48.2 42.2 46.85 42.2 44.8 41.75 42.3 38.5 43.2 38.65
L 42.55 38.45 42.5 37.95
Q 39.45 39.2 38.6 39.6
L 36.95 40.3 36.65 40.5
Q 36.7 40.6 35.4 41 34.7 44.35 33.05 46.2 31.3 48.3 28.15 48.85
L 28.15 49.5 27.35 49.5 20.15 55.35 22.05 46.05 23.6 44.85 24.95 37.55 23.15 38
Q 21.7 38.55 20.55 38.55 20.05 38.65 19.2 38.1 18.65 37.65 18.5 37.05 16.85 37.85 15.45 37.9 14.355859375 37.9498046875 14.35 37.65 14.35 37.55 15.7 36.85 17.5 35.9 19.05 34.45
L 21.6 32.2 22.7 32.95 22.9 33.2 23.4 34.1 23.15 34.45
Q 24.45 33.95 26.75 33.3
L 29.75 32.25 30.05 32.05 30.75 31.7 30.9 31.85 31.7 32.95 31.8 33.05 31.85 33.15 31.95 33.45 31.95 33.5 32.1 33.7 32.2 33.8 32.3 34.15 36.85 31.45
Q 38.05 30.75 38.55 30.5 39.2 31.1 41.3 31.9
L 41.55 31.8
Q 45 30.25 46.8 29.6 47.5 29.2 48.8 29 49 28.95 49.8 29 50.1 28.7 51.05 29.5 51.7 29.25 52.85 29.25 54.1 29.25 55.6 30.45
L 55.75 30.7
Q 56.45 30.35 57.45 30.1 57.35 29.7 59.5 30 59.5 29.6 62.25 29.3 63.3 29.85 64.05 30.35 64.8 29.25 65.75 28.15 66.2 27.6 67.5 26.95 68.015625 26.621875 68.8 26.6
L 25.9 26.6 21.95 27.05 22 26.6 2.7 26.6 2.7 46.05 10.6 46.05 12.75 67.25 10.6 78.95 108.85 78.95 108.85 46.05 117.4 46.05 117.4 26.6 69 26.6
Q 70.30625 26.6375 72.05 27.8
L 72.85 29.45
Q 74.15 30.05 74.8 31.25
L 74.95 31.15
Q 77.15 30.35 78.35 30
L 79.7 29.6
Q 80.75 30.4 82.5 31.25
L 82.75 33.1
Q 84.55 32.1 86.3 32 87.45 31.9 89.25 31.85
L 90 31.8 94.75 29
Q 95.55 28.6 95.7 28.55
L 96.65 28.25
Q 97.5 26.8 100.3 31.4
L 100.25 31.55 100.35 31.6
M 102.35 61.3
L 102.35 61.4
Q 102.55 64.75 100.7 68 99.9 68.95 99.1 69.65 98.8 69.95 98.2 70.25 97.7 69.9 95.5 69.5
L 95.45 69.55 95.25 69.65 94.9 69.9
Q 93.55 71.25 92.9 71.75 93 72.05 90.6 72.8 89.25 73.25 86.95 71.75 86.35 70.9 86.25 70.6
L 83.35 72.15 83.25 72.05 82.9 72.25 82.25 71.25
Q 81.15 70.6 80 70.1
L 79.7 69.55 76.65 70.75 73.6 70.5 71.3 71.75 70.7 70.3
Q 69.7 70.6 68.4 70.75 69 71.75 65.55 69.5
L 65.45 69.35 64 70
Q 62.35 71.05 59.7 72.1 57.2 73.1 56.55 73.55
L 54.9 74.6 54.7 74.55
Q 54 74.75 53.55 74.25
L 51.35 73.8 51.2 73.75
Q 51.2 71.9 51.05 71.3
L 49.4 70.35 49.1 69.75 47 70.35
Q 40 72.35 37.3 72.75
L 35.1 73.05
Q 34.65 73.15 33.65 73.1 33.8 75 31.4 71.2
L 22.95 73.85
Q 22.65 72.95 22.5 72.05
L 20.95 71.15 20.9 71 20.9 70.45 20.65 68.8
Q 20.1 68.65 19.1 67.75 18.7 66.1 19.1 66.1 19.6 65.3 19.85 65.15
L 23.35 62.45
Q 21.9 62.65 20.8 62.3 19.55 62.15 19.1 60.65 19.1 59.15 20.1 58.35 20.85 57.65 21.9 57.95
L 22.15 58.1
Q 23.35 57.3 26.1 55.75 26.5 55.55 27.2 55.05 28.1 54.35 28.5 54.1 29.25 53.6 29.9 53.45 30.35 53.35 30.95 53.7 31.5 54.25 31.4 54.6 31.25 55.3 30.95 55.5
L 30.2 56.1
Q 29.15 56.8 28.25 57.25
L 24.9 58.85 24.9 58.95
Q 24.8 59.25 24.6 59.5 29.2 57.8 32.3 55.95
L 35.85 53.45
Q 36.7 53.95 37.4 54.1
L 37.55 54.85
Q 37.75 55.6 38.2 55.65
L 38 55.85 39.3 55.15
Q 41.8 53.55 44.5 52.55
L 45.55 51.75 45.6 51.75 45.85 51.95
Q 46.75 51.35 48.6 51.3
L 48.9 51.25
Q 49.9 51.25 51 52.75 51.35 54.2 51.05 54.5 50.65 55.35 50.3 55.75
L 53.8 54.1 54.45 54.55 54.55 54.6 54.6 54.7 54.35 55 54.4 55.15
Q 56.3 54.8 57.4 54.5 58.35 54.15 58.8 54
L 59.4 53.55
Q 59.4 53.95 61.15 54.35
L 63.75 54.8 64.6 56.85
Q 66.15 55.8 67.6 55
L 68.9 54.4 69.55 54.25
Q 69.7 53.8 71.35 54.95
L 71.5 55.5 77.8 54.2
Q 79.75 53.7 83 53.2
L 85.3 52.7
Q 85.75 52.5 85.85 52.5 85.95 52.5 85.55 52.7
L 87.85 54.25 88.05 54.45 89.65 54.4
Q 90.35 54.35 92.75 54.05
L 92.8 54.05
Q 92.85 53.95 94.25 53.7
L 94.7 53.7
Q 94.25 54.1 95.6 55.55
L 96.05 55.45
Q 96.65 55.2 98.2 55.65 98.95 55.65 99.7 57.25
L 100.9 57.65
Q 102.4 60.15 101.65 59.5
L 101.4 60.75 102.35 61.3
M 100.55 5.7
Q 98.7 3.55 94.25 0.75
L 92 1.45 88 5.1 95.2 3.95 91.75 6.75 96.6 6.35 96.3 8.4 103 9.1
Q 101.65 6.95 100.55 5.7
M 103.2 10.8
L 102.05 9.95 98.45 9.6 92.65 10.3 87.7 13.9 87.7 19 81.35 25.5 94.85 26.35 97.75 20.95
Q 93.15 19.75 95.45 16.85 97 14.8 103.2 10.8 Z"/>
</g>

<g id="Layer0_0_MEMBER_1_FILL">
<path fill="#FFFFFF" fill-opacity="0.24705882352941178" stroke="none" d="
M 64.15 63.15
L 63.45 62.25
Q 63.25 61.2 62.45 59.35 60.2 57.9 59.4 58
L 59.25 57.9
Q 58.3 57.35 57.55 57.45 56.85 57.35 55.9 58 54.65 58.85 54.45 60.6 54.7 61.75 55.05 62.5 54.75 63.15 54.55 64 54.15 65.3 56.15 67.45
L 56.4 67.6
Q 56.4 68.6 56.65 69.3 57.6 70.45 58.5 70.3 59.05 70.2 59.4 69.65 60.5 69.75 59.8 69.5
L 59.85 69.45 59.5 69.5
Q 59.65 69.15 59.65 68.45
L 59.65 68.3 60.25 68.2
Q 60.65 69.15 60.4 69.45 60.4 69.7 60.95 69.5
L 61.65 69.05 61.8 69 61.35 68.5 61.85 68.15 61.95 68.75
Q 62.2 68.45 62.4 67.7
L 62.8 67.4
Q 63.05 67.3 63.85 66.1 64.4 66.45 64.15 63.15
M 59.75 60.65
L 60.05 60.15 60.2 60.6 59.75 60.65
M 59.25 61.5
L 59.6 61 60 61.15
Q 59.8 61.6 59.4 61.85 59 61.9 59.25 61.5
M 57.65 62.35
L 57.15 63.1
Q 57.15 62.5 57.4 62.65
L 57.65 62.35
M 57.75 65.1
L 57.7 65.2 57.4 65.65 57.25 65.5
Q 57.5 65.05 57.6 65.15
L 57.75 65.1
M 32.05 58
Q 31.55 57.5 31 57.35
L 29.8 57.2 29.55 57.25
Q 28.3 57.5 27.25 58.1 25.7 59 24.95 59.95 24.25 60.8 24.5 61.35 24.7 62 26.25 62.15 26.25 62.75 26.35 63.15 27.2 65.05 28.45 65.35 30.4 65.75 31.15 65.55
L 31.75 65.55
Q 32.25 65.55 32.6 65.5 32.45 65.7 32.75 65.6
L 33.5 66.95 34.25 66.55 36.5 65.8 36.9 65.05 37.05 65.5 37.75 65.55
Q 38.3 65.55 39.3 65.65
L 39.7 65.4 39.8 65.3
Q 40 65.7 40 65.15
L 40.25 65.05 40.8 64.75 40.75 64.55 41.75 63.7
Q 41.75 63.55 42.5 63.15
L 45.35 61.55
Q 45.5 60.75 46.1 59.65
L 45.2 58.35
Q 44.65 57.5 44.8 57.3
L 44.25 57.35
Q 44 57.35 43.4 57.55
L 40.65 57.85
Q 39.9 57.95 38.6 58.5
L 37.65 59
Q 36.6 57.6 34.55 57.2 32.7 57.4 32.25 57.85
L 32.05 58
M 27.6 59.3
Q 27.6 59.15 27.65 59.2
L 27.7 59.25 27.6 59.3
M 29.15 62.3
L 28.9 62.2
Q 29.55 62.2 29.75 62.35 29.85 62.45 29.15 62.3
M 44.75 60.4
L 44.85 60.4
Q 45 60.4 45 60.75 44.55 61.4 44.25 61.45
L 44.2 61
Q 44.2 60.75 44.4 60.75
L 44.75 60.4
M 39.2 29.95
Q 38.8 29.05 37.2 29.05 34.9 29.05 32.9 31.5 31.2 33.6 31.4 35.85 31.6 37.8 32.9 37.95 33.85 38.1 35.05 37.05 36 36.3 37.2 34.95 38.25 33.7 38.95 32.35 39.65 30.8 39.2 29.95
M 33.1 9.45
Q 31.7 9.45 31 10.3 30.25 11.2 30.85 12.6 31.4 14 33 14.95 34.4 15.75 35.8 15.7 37.2 15.6 37.85 14.75 38.55 13.75 37.95 12.45 37.35 11.1 35.8 10.2 34.5 9.35 33.1 9.45
M 82.7 58.15
L 82.6 58.1
Q 81 57.85 79.8 57.85 78.2 57.85 77.05 58.1 74.8 58.3 73.4 59.9 72.35 61.1 73 62.05 73.3 62.5 74.6 63.2 76.2 64.15 76.85 64.3 79.4 65.25 81.4 65.5
L 81.45 65.55
Q 84.55 66.05 87.05 65.55 89.45 65.2 90.8 63.55 91.8 62.25 91.1 61.35 90.75 60.85 89.45 60.25 88 59.45 87.1 59.25 84.65 58.45 82.7 58.15
M 88.65 29.15
L 88.15 28.75
Q 86.65 27.8 85.2 27.8 84.2 27.85 83.5 28.4 82.85 28.95 82.75 29.6 82.6 30.6 83.4 31.75 84.1 32.65 85.05 33.3
L 85.35 33.45
Q 85.65 33.85 85.9 33.3 86.25 32.65 86.75 33.25 87 33.6 87.5 34.35 88.1 34.95 88.95 34.7 90.25 34.25 90.3 32.2 90.05 30.05 88.65 29.15
M 82.15 6.85
L 81.05 6.9
Q 79.6 7.15 78 8.05
L 77.95 8.1
Q 76.4 9.05 75.55 10.25 73.9 12.5 75.05 13.55 75.5 13.95 76.4 14.1 77.25 14.2 78.15 13.95 79.4 13.65 80.85 12.8
L 80.85 12.75
Q 82.2 11.95 83.15 10.85 84.6 9.25 84.1 7.9 83.75 6.95 82.15 6.85 Z"/>
</g>
</defs>

<g transform="matrix( 0.6290283203125, 0, 0, 0.629058837890625, -16.45,-11.55) ">
<use xlink:href="#Layer0_0_MEMBER_0_FILL"/>
</g>

<g transform="matrix( 0.6290283203125, 0, 0, 0.629058837890625, -16.45,-11.55) ">
<use xlink:href="#Layer0_0_MEMBER_1_FILL"/>
</g>
</svg>
