
<svg xmlns="http://www.w3.org/2000/svg" version="1.1" xmlns:xlink="http://www.w3.org/1999/xlink" preserveAspectRatio="none" x="0px" y="0px" width="550px" height="400px" viewBox="0 0 550 400">
<defs>
<g id="Layer0_0_FILL">
<path fill="#000000" stroke="none" d="
M 63.35 21.1
L 62.35 21.25 59.65 20.5 52.95 20.45
Q 47.65 19.85 43.4 17.5 40.65 15.9 38.75 15.9
L 38.9 14.65
Q 38.9 13.05 35.6 10.4
L 30.1 6.45 27.05 3.65
Q 25 2.25 22.4 3.3 21.75 3.5 19.45 5.1
L 14.95 7.95
Q 12 9.35 10.35 9.35 5.2 9.35 1.45 8 -1.5 6.65 -1.85 6.6 -4.9 4.65 -7.4 4.8 -9.65 4.95 -9.65 6.6
L -9.65 6.7
Q -13.9 11.25 -13.9 21.45
L -13.85 23 -13.9 23 -13.9 23.25 -13.8 23.45 -13.8 23.65 -13.75 23.65 -13.85 24.2 -13.15 26.85
Q -12.55 28.9 -12.55 30.55 -13.75 33.8 -10.65 35.05 -8.1 36.1 -1.35 36.1
L 8.3 35.8 9.25 35.3 9.9 34.7 10.1 34.3 10.05 34.05 9.9 34 9.8 31.05 9.6 29.85
Q 16.8 30.2 18.95 31.35
L 20.45 32.4
Q 21.4 32.95 22.75 33.3
L 28.75 35.2
Q 33.3 36.6 34.55 36.6
L 39.85 36.85 52.45 36 66.4 33.3
Q 73.85 31.95 73.85 28.35
L 73.3 27 72.5 25.75 71.8 25.75 71.8 25.5
Q 71.8 24.6 70.35 23.4 69.45 22.7 69.15 22.9
L 67.05 22.15 64.05 21.55 64 21.35
Q 63.8 21.1 63.35 21.1
M 63.45 22.25
Q 63.95 22.5 65.05 23.1 67.35 24.1 69.3 24.1
L 69.85 24.55
Q 70.85 25.25 70.85 25.5 70.85 27.55 65.3 28.8
L 54.3 30.9 53.7 30.85 43.5 32.1
Q 31.4 32.1 24.75 29.4 23 28.7 20.9 27.45
L 19.5 26.7 19.55 26.5 18.3 26.25 -4.85 24.5 -12.55 23.2 -12.9 21.3
Q -12.9 16.05 -10.4 10.85
L -8.1 6.15 -7.8 5.85 -6.6 5.85 -1.2 8.35
Q 4.15 10.45 10.4 10.45 13.4 10.45 15.95 9.15
L 19.95 6
Q 22.4 3.95 24.1 3.95 26.05 3.95 32 8.55 37.95 13.2 37.95 14.75 37.95 15.6 35.65 22.75
L 35.65 23.15 35.85 23.2 35.85 23.3 36.25 23.35
Q 37.25 23.35 37.95 20.4
L 38 20.55
Q 39.95 21.05 42.7 22.65 44.4 23.6 49.55 23.85
L 55.95 23.85
Q 61.4 23.75 62.7 22.9
L 63.45 22.25
M 43.5 19.2
Q 47.2 21.15 48.35 21.15
L 59.35 21.55 60.6 21.85 55.6 22.8 49.5 22.85
Q 47.2 22.55 41.8 20.7 38.45 19.55 38.05 20.05
L 38.7 16.45 43.5 19.2
M 41.1 33.2
L 46.1 33.2 52.6 32.2 53.4 32.2 67.9 29.3
Q 70.5 28.5 71.4 27.1
L 72 27.6 72.75 28.45
Q 72.75 31.15 57.35 33.75 44.6 35.85 39.2 35.85
L 34.4 35.55 34.3 35.5 22.4 32
Q 20.1 30.55 18.4 29.95 15.6 28.95 9.35 29.1
L 9.3 29.05 9.25 29.1 8.4 29.1 8.85 29.75 8.8 30.2 8.95 32.6
Q 8.9 34.15 7.75 34.75
L -1.75 35.05
Q -7.95 35.05 -10.05 33.9 -12.45 32.65 -11.5 29.15 -11.6 25.95 -12.65 24.1 -9.6 25.15 1 26.05
L 18.45 27.1
Q 19.65 28.35 26.6 30.55 35.5 33.25 41.1 33.2 Z"/>

<path fill="#414141" stroke="none" d="
M 48.35 21.15
Q 47.2 21.15 43.5 19.2
L 38.7 16.45 38.05 20.05
Q 38.45 19.55 41.8 20.7 47.2 22.55 49.5 22.85
L 55.6 22.8 60.6 21.85 59.35 21.55 48.35 21.15 Z"/>

<path fill="#353535" stroke="none" d="
M 65.05 23.1
Q 63.95 22.5 63.45 22.25
L 62.7 22.9
Q 61.4 23.75 55.95 23.85
L 49.55 23.85
Q 44.4 23.6 42.7 22.65 39.95 21.05 38 20.55
L 37.95 20.4
Q 37.25 23.35 36.25 23.35
L 35.85 23.3 35.85 23.2 35.65 23.15 35.65 22.75
Q 37.95 15.6 37.95 14.75 37.95 13.2 32 8.55 26.05 3.95 24.1 3.95 22.4 3.95 19.95 6
L 15.95 9.15
Q 13.4 10.45 10.4 10.45 4.15 10.45 -1.2 8.35
L -6.6 5.85 -7.8 5.85 -8.1 6.15 -10.4 10.85
Q -12.9 16.05 -12.9 21.3
L -12.55 23.2 -4.85 24.5 18.3 26.25 19.55 26.5 19.5 26.7 20.9 27.45
Q 23 28.7 24.75 29.4 31.4 32.1 43.5 32.1
L 53.7 30.85 54.3 30.9 65.3 28.8
Q 70.85 27.55 70.85 25.5 70.85 25.25 69.85 24.55
L 69.3 24.1
Q 67.35 24.1 65.05 23.1 Z"/>
</g>
</defs>

<g transform="matrix( 1, 0, 0, 1, 0,0) ">
<use xlink:href="#Layer0_0_FILL"/>
</g>
</svg>
