
<svg xmlns="http://www.w3.org/2000/svg" version="1.1" xmlns:xlink="http://www.w3.org/1999/xlink" preserveAspectRatio="none" x="0px" y="0px" width="550px" height="400px" viewBox="0 0 550 400">
<defs>
<g id="Layer0_0_FILL">
<path fill="#010101" fill-opacity="0.5294117647058824" stroke="none" d="
M 27.3 48.8
Q 26.85 48.45 26.3 48.35
L 25.95 48.1
Q 25.15 47.9 24.55 48.25
L 23.7 48.65
Q 22.6 49.35 21.95 50.35 21.05 51.65 21.1 53.25 21.1 54.65 22.1 55.4 22.65 55.8 23.5 55.9 24.55 56 25.5 55.55 26.8 54.9 27.5 53.65 28.25 52.45 28.15 51 28.15 49.75 27.3 48.8
M 14.3 39
Q 12.15 36.4 8.65 36.45 5.45 36.5 2.9 38.6 0.2 40.75 0 43.75 -0.2 47.15 3.15 50.3 8.2 52.9 13 48.8 18 44.55 14.3 39
M 7.85 9.65
Q 7.1 5.75 4.85 6 3 6.25 1.4 8.85 -0.15 11.45 0.75 12.95 1.85 14.75 6.2 13.2 7.15 12.7 7.65 11.7 8.1 10.7 7.85 9.65
M 38.7 23
Q 38.6 22.75 38.45 22.55 38.15 22.15 37.25 21.7 33.5 18.55 32.2 19.95 31.05 21.1 32.15 24 33.25 27 35 27.3 37.2 27.65 38.7 23
M 37.75 0.1
L 37.55 0.05
Q 37.1 -0.15 36.75 0.2 33.6 2.45 33.1 2.7 31 3.85 28.8 4.45 26.8 5 24.45 5 22.25 5 21.85 3.75 21.65 3.2 21.05 3.35 20.7 3.5 20.55 4.35 20.4 7 23.55 7.75 25.75 8.25 28.65 7.75 31.3 7.35 34.05 5.95 38.25 3.8 38.4 1.75 38.55 0.65 37.75 0.1
M 70.85 28.25
Q 69.45 26.8 67.4 27.35 65.6 27.85 64.5 29.4 63.35 30.9 64.15 31.75 65.15 32.75 68.5 32 68.6 31.75 70.35 30.45 71.7 29.45 70.85 28.25
M 82.95 32.8
L 82.7 32.9
Q 82.1 33.1 81.4 33.6 80.35 34.55 79.7 35.95 78.95 37.4 79.1 39.1 79.1 39.25 78.95 39.5 78.65 40.25 78.55 41.4
L 78.55 41.7
Q 78.55 42.25 78.75 42.6 78.9 43 79.25 43.35 79.55 43.6 80.15 43.4 80.45 43.35 80.6 43 80.85 42.6 80.7 42.2
L 80.85 42.3 80.85 42.4
Q 81.2 43.05 81.9 42.7
L 81.95 42.7
Q 82.6 42.15 82.5 41.3
L 82.5 40.95 82.6 40.85 83.2 40.4
Q 84.05 39.8 85.05 39.4
L 85.25 39.35 86.15 39.45
Q 86.75 39.65 87.15 38.85
L 87.25 38.85
Q 87.6 39.25 88.15 39.1 88.8 38.85 89.3 38.8 90.2 38.8 90.3 37.55 90.55 37.55 90.75 37.4 91.85 36.7 91.55 35.5 91.4 34.3 90.05 33.35 88.95 32.55 87.55 32.2 85.3 31.6 83.25 32.6
L 82.95 32.8
M 95.4 2.2
Q 94.85 1.7 92.6 1.5 90.3 1.25 88.45 1.6 83.4 2.5 88.45 6.4 90.75 8.55 94.25 7.3 97.9 6.05 95.4 2.2 Z"/>
</g>
</defs>

<g transform="matrix( 1, 0, 0, 1, 0,0) ">
<use xlink:href="#Layer0_0_FILL"/>
</g>
</svg>
