
<svg xmlns="http://www.w3.org/2000/svg" version="1.1" xmlns:xlink="http://www.w3.org/1999/xlink" preserveAspectRatio="none" x="0px" y="0px" width="550px" height="400px" viewBox="0 0 550 400">
<defs>
<g id="Layer0_0_FILL">
<path fill="#000000" fill-opacity="0.25098039215686274" stroke="none" d="
M 57.7 34.55
Q 60.3 34.55 61.6 31.8 62.75 29.35 62.75 25.7 62.75 13.7 55.1 7.6 49.5 3.05 42.45 3.05 38.55 3.05 30.35 5.35 19.55 8.35 16.8 12.4 12.75 18.25 2.1 18
L -9.75 16.95
Q -12.9 20.5 -12.9 22.85 -12.9 27.9 -6.9 31.55 0.8 36.35 15.35 36.35
L 57.7 34.55
M 56.4 19.55
Q 56.4 26.1 50.65 28.3 45.05 30.4 28.8 30.4 7.55 30.4 1.3 28.3 -8.85 26.45 -7.05 22.15
L -7.4 21.65
Q 12.25 27.5 19.25 19.95 26.2 12.4 29.7 9.65 33.2 6.8 37.75 4.85 42.3 2.9 49.35 8.75 56.4 14.6 56.4 19.55 Z"/>
</g>
</defs>

<g transform="matrix( 1, 0, 0, 1, 0,0) ">
<use xlink:href="#Layer0_0_FILL"/>
</g>
</svg>
