
<svg xmlns="http://www.w3.org/2000/svg" version="1.1" xmlns:xlink="http://www.w3.org/1999/xlink" preserveAspectRatio="none" x="0px" y="0px" width="550px" height="400px" viewBox="0 0 550 400">
<defs>
<g id="Layer0_0_FILL">
<path fill="#000000" stroke="none" d="
M 59.25 11.65
Q 54.3 5.5 46.6 3.15 31.25 -1.55 17.3 11.65
L 17.05 11.65 16.15 12.8 10.8 18.65 2.6 18.65
Q -6.25 17.25 -9.25 16.05
L -10.05 16.05 -10.05 15.8 -14.2 15.8 -14.2 16.7 -14.35 17.25
Q -14.35 18.15 -13.95 18.4
L -13.8 18.55 -14.2 23.2
Q -14.05 27 -11.35 29.6 -3.15 37.55 29.3 37.55 46.1 37.55 54.85 35.85
L 56.5 35.6 56.65 35.6 57.7 35.85
Q 60.95 35.85 62.75 30.65 64.05 27 64.05 24.15 64.05 17.5 59.25 11.65
M 43.25 4.7
Q 51.95 4.7 57.45 12.95 61.45 18.9 61.45 23.85 61.45 27.4 57.8 32.35
L 45.2 33.1
Q 43 34.55 29.3 34.55 6.9 34.55 -3.25 31.05 -10.15 28.55 -10.55 24.9 -10.8 23.35 -10.55 19.05
L -4.95 19.95
Q 1.8 21.15 2.45 21.5
L 11.6 21.5
Q 13 20.35 17.2 13.85
L 18.25 12.15
Q 26.05 4.7 43.25 4.7 Z"/>
</g>
</defs>

<g transform="matrix( 1, 0, 0, 1, 0,0) ">
<use xlink:href="#Layer0_0_FILL"/>
</g>
</svg>
