
<svg xmlns="http://www.w3.org/2000/svg" version="1.1" xmlns:xlink="http://www.w3.org/1999/xlink" preserveAspectRatio="none" x="0px" y="0px" width="550px" height="400px" viewBox="0 0 550 400">
<defs>
<g id="Layer0_0_FILL">
<path fill="#000000" stroke="none" d="
M 117.9 43.85
Q 118.95 38.6 116.05 34.25 113.8 24.05 105.7 15 97.75 6.15 87.8 2.25 77.2 -1.9 68.6 1.5 58.85 5.35 54.1 18.3 53.05 15.6 51.05 20.8 49.25 25.4 48.65 30.05 48.6 29.7 48.35 29.6 48.05 29.45 47.8 30.15
L 47.35 31 47.05 32.05
Q 47.05 32.4 46.7 32.4
L 46.35 33.1
Q 46 35.55 45.35 38.55 45.85 38.65 45.75 39.05
L 45.75 39.45 45.7 39.7
Q 45.55 41 45.05 42.55
L 44.9 43.8 44.4 46.05
Q 43.85 48.3 43.6 50.95 43.45 52.3 43.35 55.05
L 43.4 55.25
Q 43.35 57.3 42.95 59.3 42.9 59.9 42.95 60.6 42.95 61 42.65 61.05 42.6 63.3 42.5 67.85 42.4 69.75 42.15 71.3
L 42.1 71.6
Q 42.3 71.8 42.3 71.95
L 42.3 72.95
Q 42.45 73.05 42.45 73.15
L 42.5 73.35 42.45 73.45 42.4 76.15
Q 42.4 76.4 42.2 76.55
L 42.15 77.2
Q 42 77.75 41.9 78.85 42.1 83.4 42.65 94.15 43.15 103.75 43.3 108.85 42.75 108.85 42.5 108.8 42.95 110.1 42.65 111.45 42.55 112 42.05 111.8 41.6 111.7 41.7 111.2
L 41.75 111 41.75 110.95 41.8 110.9 41.8 110.55
Q 38.85 110.1 36.3 108.6 32.8 107.15 31.1 106.25 28.6 104.95 25.95 103.2 23.45 101.7 21.45 100 21.15 99.7 19.7 98.1 18.65 96.9 17.8 96.3 17.5 96.1 17.6 95.8
L 15.6 93.55
Q 14.95 92.7 14.25 92.1 12.85 90.85 11.95 89.3 11.7 88.95 12.05 88.7 6.85 81.9 3.3 74.15 2.5 73.85 1.7 74.15
L 1.6 74.45
Q 1.7 74.65 1.6 74.8
L 1.15 75.85
Q 1.1 77.45 0.55 79.05
L 0.45 80.85
Q 0.45 81.05 0.25 81.2 0.2 82.1 0.25 82.95 0.4 84.5 0.3 86.45 0 88.1 0 89.75
L 0.15 90.55
Q 0.55 91.95 0.7 93.8 1.15 95.65 1.15 95.8 1.8 97.6 1.8 99.75 2.1 101.45 2.7 103 2.8 103.2 2.7 103.4 2.65 103.65 2.4 103.7
L 2.3 103.75
Q 3.2 106.85 5 111.45 5.3 111.55 5.35 111.75 5.75 112.9 6.6 114.25 6.75 114.15 7 114.25 7.6 114.7 7.9 115.4 8.1 115.9 8.5 116.55 8.7 116.75 8.5 117 10 119.25 11.95 121.05
L 12.55 121.5 12.75 121.6 14.45 122.8
Q 15 123.1 16.6 123.8 16.6 123.55 16.85 123.3 17.3 123.1 17.55 123.5 18.1 124.3 18.45 125.05 19.45 126.6 19.9 127.6 20.15 127.9 19.85 128.2 19.85 128.45 19.75 128.55
L 19.7 128.8 20.05 129
Q 20.45 129.2 20.25 129.55
L 20.2 129.65
Q 23.9 130.8 27.45 129.4 27.6 129.35 28.5 129.75 29.05 129.05 29.75 128.75 30.55 128.45 31.65 128.6 33.55 129.05 35.05 130.25
L 35.15 130.35 35.35 130.4
Q 36.8 131 37.95 131.95
L 40.4 132.75
Q 41.25 133.15 42.1 133.2 42.55 133.1 42.8 132.95 43.05 132.8 43.35 133
L 43.5 132.9
Q 43.75 132.75 44 132.9 43.95 132.8 44 132.65 44.15 132.05 44.6 131.7 44.55 131.5 44.7 131.25 45.25 130.7 45.95 130.5 46.35 130.3 47.2 130.2 47.2751953125 128.355859375 46.85 126.65 52.3955078125 145.177734375 65.8 151.2 78.05 156.7 90.45 149.95 101.9 143.6 105.85 130.25 110.4 114.7 102.85 94.15 101.15 88.05 102.9 78.35 104.35 70.25 107.8 61.55 108.55 59.75 112.4 51.75 114.3 47.75 113.35 47.2 116.8 49.05 117.9 43.85
M 98.7 38
Q 96.45 37.15 94.15 44.05 91.75 45.9 88.2 43.05 85.1 40.6 84.15 37.75 83.1 41.05 84.35 44.7 85.6 48.15 88.15 50.2 90.85 52.35 93.5 51.7 96.55 50.95 98.45 46.65 98.55 48.3 99.75 50.05 100.45 51 101.85 52.9 104.05 56.5 100.25 61.85 95.15 69.15 95.75 83.65 96.05 92 98.35 109.35 99.7 124.1 96.45 131 92.05 140.2 78.3 140.7 59.5 132.8 52.1 101.5 45.45 73 51.5 44.5 54.4 30.85 59.8 22 65.65 12.55 73.4 10.3 91.55 5.1 114.7 39.55
L 114.45 39.55
Q 112.95 38.8 111.8 38.45 109.6 37.8 110.05 42.05 108.05 49.05 106 48.35 104.75 47.9 102.4 43.2 100.05 38.5 98.7 38
M 42.6 118.1
Q 46.9 120.1 44.7 124.75 25.65 125.2 13.1 113.7 -1.45 100.35 3.2 77.75 9.35 105.9 30.55 114.05 35.5 115.95 42.6 118.1 Z"/>
</g>
</defs>

<g transform="matrix( 1, 0, 0, 1, 0,0) ">
<use xlink:href="#Layer0_0_FILL"/>
</g>
</svg>
