
<svg xmlns="http://www.w3.org/2000/svg" version="1.1" xmlns:xlink="http://www.w3.org/1999/xlink" preserveAspectRatio="none" x="0px" y="0px" width="550px" height="400px" viewBox="0 0 550 400">
<defs>
<g id="Graphics_Symbol_289_0_Layer1_0_FILL">
<path fill="#000033" stroke="none" d="
M 42.65 39.3
Q 41.95 39.3 42.3 39.7 42.65 40.05 42.65 39.3
M 66.1 22.35
Q 68.45 14.9 68.45 12.95
L 68.25 12.5
Q 65.75 13.45 63.8 15.35
L 60.6 18.6
Q 56.45 22.4 47.45 22.4 44.55 20.65 38.85 18.85 27.45 15.3 8.5 15.3 1.2 15.3 -1.8 18.05 -4.6 20.65 -4.6 26.85 -4.6 35.4 -0.85 37.75 1.5 39.2 9.5 39.2
L 14.4 37.9
Q 19.8 36.6 24.2 36.6 32.1 36.6 37.05 37.95
L 42.65 39.3 46.55 39.4 54.5 38.55
Q 65.55 36.85 60.45 34.75 63.25 31.25 66.1 22.35
M 52.2 24.15
Q 56.05 24.15 60.4 21.9 65.2 19.35 66.05 16 64.85 28.35 57.6 33.5 52.4 37.15 43.65 37.15
L 36.45 35.8
Q 28.65 34.45 21.5 34.45 17.35 34.45 11.25 35.6
L 4.1 36.7
Q 0.95 36.7 -1.95 35.25 -1.25 34.4 -1.25 33.4 -1.25 21.8 2.05 19 4.65 16.8 15.45 16.8 35.55 16.8 39.5 20.5
L 42.6 23
Q 45.25 24.15 52.2 24.15 Z"/>
</g>

<g id="Graphics_Symbol_289_0_Layer0_0_FILL">
<path fill="#000000" fill-opacity="0.25098039215686274" stroke="none" d="
M 65.85 20.8
Q 65.55 20.35 65.55 19.55 65.45 18 66.75 15.55
L 65.55 16.2
Q 63.9 18.85 62.15 20.25 58.9 22.85 51.6 22.85 46.3 22.85 42.85 21.75 40.2 20.05 35.75 18.4 31.25 16.7 16.15 16.25 1 15.75 -1.45 22 -3 26 -3 34.15 -3 36.4 -0.05 37.3
L 6.4 38 13.9 37 26.45 36 37.05 37.15 53.1 38.2
Q 59.15 38.05 60.45 34.85
L 63.8 26.9
Q 65.85 22.1 65.85 20.8
M 47.8 27.5
L 57.15 26.6
Q 60.95 25.75 62.25 24.35 61.85 24.95 61.35 26.3 60.55 28.35 59.7 29.45 56.65 33.4 48 33.4
L 34.35 32.85 34.3 31.9
Q 35.05 31.8 34.05 31.8
L 33.35 31.9 33.35 31.95 6.55 32.9
Q 3.75 32.9 2.3 31.75 0.9 30.65 0.9 28.55 0.9 25 1.9 23.3 2.7 22 3.95 22 15.25 22 28.05 24.75 40.85 27.5 47.8 27.5 Z"/>
</g>

<g id="MovieClips_Symbol_228_20_Layer1_0_FILL">
<path fill="#EEF3FA" stroke="none" d="
M 43.65 37.15
Q 52.4 37.15 57.6 33.5 64.85 28.35 66.05 16 65.2 19.35 60.4 21.9 56.05 24.15 52.2 24.15 45.25 24.15 42.6 23
L 39.5 20.5
Q 35.55 16.8 15.45 16.8 4.65 16.8 2.05 19 -1.25 21.8 -1.25 33.4 -1.25 34.4 -1.95 35.25 0.95 36.7 4.1 36.7
L 11.25 35.6
Q 17.35 34.45 21.5 34.45 28.65 34.45 36.45 35.8
L 43.65 37.15 Z"/>
</g>

<g id="MovieClips_Symbol_264_20_Layer1_0_FILL">
<path fill="#FFFFFF" stroke="none" d="
M 62.15 31.45
L 62.15 26.55 27.15 26.55 27.15 17.3 17.8 17.3 17.8 26.55 -2.35 26.55 -2.35 31.45 17.8 31.45 17.8 34.95 27.15 34.95 27.15 31.45 62.15 31.45 Z"/>
</g>
</defs>

<g transform="matrix( 1, 0, 0, 1, -28.4,-10.7) ">
<g transform="matrix( 1, 0, 0, 1, 0,0) ">
<g transform="matrix( 1, 0, 0, 1, 0,0) ">
<use xlink:href="#Graphics_Symbol_289_0_Layer1_0_FILL"/>
</g>

<g transform="matrix( 1, 0, 0, 1, 0,0) ">
<use xlink:href="#Graphics_Symbol_289_0_Layer0_0_FILL"/>
</g>
</g>
</g>

<g transform="matrix( 1, 0, 0, 1, -28.15,-10.5) ">
<g transform="matrix( 1, 0, 0, 1, 0,0) ">
<use xlink:href="#MovieClips_Symbol_228_20_Layer1_0_FILL"/>
</g>
</g>

<g transform="matrix( 1, 0, 0, 1, -28.4,-10.7) ">
<g transform="matrix( 1, 0, 0, 1, 0,0) ">
<use xlink:href="#MovieClips_Symbol_264_20_Layer1_0_FILL"/>
</g>
</g>
</svg>
