
<svg xmlns="http://www.w3.org/2000/svg" version="1.1" xmlns:xlink="http://www.w3.org/1999/xlink" preserveAspectRatio="none" x="0px" y="0px" width="550px" height="400px" viewBox="0 0 550 400">
<defs>
<g id="Layer0_0_FILL">
<path fill="#FFFFFF" fill-opacity="0.5019607843137255" stroke="none" d="
M 33.35 -16.4
Q 37.05 -17.65 37.05 -18.15 37.05 -20.6 34.15 -20.6 28.45 -17.85 26.65 -16.35
L 27 -15.8 27.2 -15.35 28 -15.15
Q 29.65 -15.15 33.35 -16.4
M 12.85 -20.9
Q 8.2 -17.3 7.85 -14.8 10.35 -14.4 11.7 -15.25 12.5 -15.75 13.75 -17.6 16.6 -21.65 22.05 -22.3
L 21.65 -24.4 20.9 -24.6
Q 17.6 -24.55 12.85 -20.9
M 3.3 -18.75
Q 3.7 -20.85 1.55 -21.7 0.25 -22.25 -1.6 -22.25 -5.7 -22.25 -12.85 -17.6
L -10.8 -15.15
Q -8.95 -17 -2.95 -19.3
L 3.3 -18.75 Z"/>
</g>
</defs>

<g transform="matrix( 1, 0, 0, 1, 0,0) ">
<use xlink:href="#Layer0_0_FILL"/>
</g>
</svg>
