
<svg xmlns="http://www.w3.org/2000/svg" version="1.1" xmlns:xlink="http://www.w3.org/1999/xlink" preserveAspectRatio="none" x="0px" y="0px" width="550px" height="400px" viewBox="0 0 550 400">
<defs>
<g id="Graphics_Symbol_241_0_Layer0_0_FILL">
<path fill="#FFFFFF" stroke="none" d="
M 45.4 34.1
Q 47.3 33.4 47.3 32.45 47.3 25.5 44.7 22.2 41.5 19.55 40.3 17.65 47.45 16 49.35 30.3 49.3 31.15 49.75 31.1
L 50.25 30.85
Q 51.55 29.55 52.55 27.05 53.45 24.75 53.45 23.3 53.45 18.35 50.6 16.1 48.5 14.35 40.1 11.3 32.1 11.3 26.45 18.15 20.8 25 20.8 34.65 23.05 35.8 30.25 35.8
L 36.55 35.6 34.3 29.85
Q 32.2 24.65 31.9 23.05 31.95 22.3 32.6 22
L 34 21.85
Q 34.95 21.85 36.8 25.9 38.95 30.55 38.95 35 38.95 36 39.65 35.5 43.75 34.7 45.4 34.1 Z"/>
</g>

<g id="Graphics_Symbol_279_0_Layer2_0_FILL">
<path fill="#000000" stroke="none" d="
M 56.4 24.35
L 56.25 19.6
Q 56.25 14.85 47.85 10.6 38.7 6 26.15 6
L 22.2 6.45 18.8 7.05
Q 7.6 -5.5 0.45 -2.95 -1.1 -2.4 -4.7 0.25 -7.6 2.4 -9.6 2.4 -16.8 2.4 -16.8 12.45 -16.8 21.05 -14.6 25.85 -12.3 31 -6.7 33.7 2.85 38.3 34.65 38.3 50.7 38.3 54.9 30.55 56.3 27.95 56.4 24.35
M 50.6 16.1
Q 53.45 18.35 53.45 23.3 53.45 24.75 52.55 27.05 51.55 29.55 50.25 30.85
L 49.75 31.1
Q 49.3 31.15 49.35 30.3 47.45 16 40.3 17.65 41.5 19.55 44.7 22.2 47.3 25.5 47.3 32.45 47.3 33.4 45.4 34.1 43.75 34.7 39.65 35.5 38.95 36 38.95 35 38.95 30.55 36.8 25.9 34.95 21.85 34 21.85
L 32.6 22
Q 31.95 22.3 31.9 23.05 32.2 24.65 34.3 29.85
L 36.55 35.6 30.25 35.8
Q 23.05 35.8 20.8 34.65 4.3 35.65 -4.05 31.65 -14.15 26.85 -14.15 14.2 -14.15 11.25 -8.95 5.8 -2.65 -0.75 4.5 -0.75 7.55 -0.75 9.65 1 11.25 2.25 14.35 6.45
L 14.85 7.05 11.75 5.7 10.9 5.35
Q 10 5.35 8.65 7.1 7.45 8.65 7.45 9 7.45 11.1 9.8 13.3 11.9 15.25 13.1 15.25 16.65 15.25 19.3 12.15 22 9.05 24.3 9.05 30.95 9.05 36.05 10.1
L 38.3 10.55 40.1 11.3
Q 48.5 14.35 50.6 16.1
M 2.5 17.9
Q 3.65 16.75 3.65 15.15 3.65 13.55 2.5 12.4 1.35 11.25 -0.3 11.25 -1.95 11.25 -3.1 12.4 -4.25 13.55 -4.25 15.15 -4.25 16.75 -3.1 17.9 -1.95 19.05 -0.3 19.05 1.35 19.05 2.5 17.9 Z"/>
</g>

<g id="Graphics_Symbol_279_0_Layer1_0_FILL">
<path fill="#000000" fill-opacity="0.25098039215686274" stroke="none" d="
M 7.85 -0.2
Q 4.4 -2.6 0.3 -1.4 -3.85 -0.25 -9.35 5.65 -14.9 11.5 -15.1 16.95 -15.3 22.35 -13.6 25.7 -11.6 29.7 -6.25 31.9 4.15 36.15 39.4 36.15 45.2 36.15 49.4 33.1 54.85 29.2 54.85 21.55 54.85 14.55 49.35 11.25 43.5 7.75 30.6 7.75
L 19.85 8.05
Q 17.85 7.9 13.9 4.45
L 7.85 -0.2
M 45.75 18.8
Q 47.95 21.1 48.85 23.45 48.85 26.05 45.05 27.75 40.05 30 29.55 30
L 16.45 28.9 6.3 28.1
Q -2.25 28.6 -6 25.6 -9.3 22.95 -9.3 16.85 -9.3 13.25 -6.1 10.25 -1.85 6.3 6.2 6.3 9.6 6.3 11.45 7.7 12.55 8.55 13.8 10.85 15.1 13.1 16.25 13.95 18.1 15.35 21.55 15.35
L 34.9 14.25
Q 41.4 14.25 45.75 18.8 Z"/>
</g>

<g id="Graphics_Symbol_279_0_Layer0_0_FILL">
<path fill="#FFFFFF" fill-opacity="0.25098039215686274" stroke="none" d="
M 8.05 24.25
L 8.35 24.3
Q 8.9 26 11.05 26.4
L 17.75 26.8 27.2 27.5 29.9 27.85 30.85 27.8
Q 31.3 27.55 31.35 26.5 14.15 24.15 8.5 24.15
L 8.05 24.25
M 31.7 22.05
L 31.8 20.75 8.5 20.25 8.35 20.95 8.4 21.7 12 22.15 15.45 22.45 31.7 22.05
M 27.7 17.75
L 31.85 16.65
Q 15.3 16.25 10.35 17.65
L 10.55 18 16.6 18.35 27.7 17.75 Z"/>
</g>
</defs>

<g transform="matrix( 1, 0, 0, 1, -28.4,-10.7) ">
<g transform="matrix( 1, 0, 0, 1, 0,0) ">
<g transform="matrix( 1, 0, 0, 1, 0,0) ">
<use xlink:href="#Graphics_Symbol_241_0_Layer0_0_FILL"/>
</g>
</g>

<g transform="matrix( 1, 0, 0, 1, 0,0) ">
<g transform="matrix( 1, 0, 0, 1, 0,0) ">
<use xlink:href="#Graphics_Symbol_279_0_Layer2_0_FILL"/>
</g>

<g transform="matrix( 1, 0, 0, 1, 0,0) ">
<use xlink:href="#Graphics_Symbol_279_0_Layer1_0_FILL"/>
</g>

<g transform="matrix( 1, 0, 0, 1, 0,0) ">
<use xlink:href="#Graphics_Symbol_279_0_Layer0_0_FILL"/>
</g>
</g>
</g>
</svg>
