
<svg xmlns="http://www.w3.org/2000/svg" version="1.1" xmlns:xlink="http://www.w3.org/1999/xlink" preserveAspectRatio="none" x="0px" y="0px" width="550px" height="400px" viewBox="0 0 550 400">
<defs>
<g id="Graphics_Symbol_280_0_Layer2_0_FILL">
<path fill="#000000" stroke="none" d="
M 51.25 48.95
Q 56.15 44.25 59.2 38.95 62 34 62 30.7 62 21.2 56.6 14.6 49.95 6.45 34.3 1.2 20.4 -3.55 9 10.85 5.1 15.85 2.3 22.05 0 27.25 0 29.3 0 30.2 1.35 34.65 3.1 40.55 5.5 45.5 12.95 60.95 23.25 60.95 38.7 60.95 51.25 48.95
M 59.5 30.85
Q 59.5 33.5 56.8 37.95 53.85 42.7 49.25 47 37.25 58.2 23.1 58.2 14.2 58.2 8.25 44.5 6.3 40.05 5 34.75 4 30.7 4 29.55 4 15.7 12.65 8.95 17.05 5.5 22.75 4.45
L 23.35 4.35
Q 27.25 3.7 31.75 4.2 42.85 5.4 50.85 12.45 59.5 20.15 59.5 30.85
M 42 40.7
Q 48.5 35.55 48.5 31.2 48.5 21.1 42.8 15.95 37.75 11.4 30.25 11.95 22.95 12.55 17.7 17.45 12 22.8 12 30.6
L 12.5 33.35
Q 13.2 36.4 14.25 38.95 17.55 46.95 23 46.95 34.1 46.95 42 40.7
M 41.15 18.4
Q 46 22.9 46 31.2 46 33.85 39.75 38.5 32.1 44.2 22.85 44.2 20.35 44.2 17.5 39 15 34.5 15 32.6 15 24.75 19.85 19.75 24.25 15.25 30.5 14.8 36.8 14.35 41.15 18.4 Z"/>

<path fill="#CCCCCC" stroke="none" d="
M 46 31.2
Q 46 22.9 41.15 18.4 36.8 14.35 30.5 14.8 24.25 15.25 19.85 19.75 15 24.75 15 32.6 15 34.5 17.5 39 20.35 44.2 22.85 44.2 32.1 44.2 39.75 38.5 46 33.85 46 31.2 Z"/>
</g>

<g id="Graphics_Symbol_280_0_Layer1_0_FILL">
<path fill="#333333" stroke="none" d="
M 24.4 36.1
L 24.3 36.3 24.2 37.85
Q 24.2 38.6 24.6 39.35 25.2 40.6 26.6 40.6 28.45 40.6 29.15 39.3
L 29.65 37.7 29.4 36.1 25.8 35.95 24.4 36.1
M 32.4 34.55
L 32.35 35.6
Q 32.35 36.1 33.05 37.15 33.95 38.55 35.15 38.55 36.2 38.55 36.7 38.15
L 37.15 37.7
Q 37.15 35.05 36.8 34.1
L 33.85 33.95 32.6 34.1 32.4 34.55
M 20.15 29.2
Q 19.45 29.35 18.7 30 18.7 31.3 19.45 32.6
L 19.75 33.05
Q 20.8 34.45 22.45 34.45 26.25 34 26.25 31.85 26.25 30.85 25.9 30.35 25.15 29.3 23.1 29.1
L 22.1 29.05 20.15 29.2
M 28.8 22.95
L 30 23.5 34.8 23.5 36.1 22.6
Q 36.45 22.25 36.45 21.05 36.45 18.5 32.4 18.3 28.35 18.1 28.35 21.35 28.35 22.5 28.8 22.95
M 26.25 23.1
L 26.1 22 25.9 21.75 22.95 21.85
Q 22.1 22.15 22.1 23.45 22.1 23.85 23.85 25.55 24.35 25.55 25.2 24.85 26.25 24 26.25 23.1
M 42.55 27.15
L 42.35 26.6 38.7 26.75
Q 37.15 27.5 37.15 28.85 37.15 30.6 37.35 30.7
L 37.95 30.9 39.9 31.05
Q 41.75 31.05 42.35 30.2 42.7 29.7 42.7 28.6
L 42.55 27.15 Z"/>

<path fill="#CCCCCC" stroke="none" d="
M 18.7 30
Q 19.45 29.35 20.15 29.2
L 22.1 29.05 23.1 29.1 22.3 28.7
Q 20.1 27.85 16.85 28.7
L 16.8 29 16.7 30.6
Q 16.7 32.35 16.85 32.7
L 17.95 32.9 19.75 33.05 19.45 32.6
Q 18.7 31.3 18.7 30 Z"/>
</g>

<g id="Graphics_Symbol_280_0_Layer0_0_FILL">
<path fill="#FFFFFF" stroke="none" d="
M 25.05 34.05
Q 24.2 34.35 24.2 35.7
L 24.3 37.5 26.25 37.85 28 37.5 28.2 36.9 28.35 35.6 28.2 34.4 28 34.1 25.05 34.05
M 38.2 28.95
Q 38.7 28.95 39.55 28.2 40.6 27.35 40.6 26.5
L 40.45 25.4 40.25 25.2
Q 38.15 24.85 37.3 25.2 36.45 25.55 36.45 26.85 36.45 27.4 38.2 28.95
M 19.85 26.95
Q 18 28.1 18 29.55 18 31.3 18.2 31.3
L 18.5 31.5 20.1 31.65 22.15 30.5
Q 24.2 29.15 24.2 28.05
L 24.05 26.85 23.85 26.6
Q 21.85 25.75 19.85 26.95
M 24.8 24.2
L 24.85 22.9 24.7 21.25 24.55 20.45
Q 21.8 20.1 20.45 20.45
L 20.2 20.8 20.15 20.8 20.1 21.45 20.1 21.6 20.1 21.75
Q 20.1 22.55 20.8 24.1 21.8 26.25 23.15 26.25 24.25 26.25 24.5 25.9
L 24.65 25.55 24.8 24.2
M 29.1 17.85
Q 29.65 18.35 29.95 18.45
L 31.65 18.7 33.45 18.55
Q 34.4 18.2 34.45 16.95
L 34.45 16.85 34.3 15.8 34.1 15.7 34.1 15.65 29.85 15.5 29.55 15.85 28.95 16.8 29.1 17.85
M 44.55 31.5
L 44.35 31.3
Q 41.75 30 39.55 32.8
L 38.5 34.1 38.55 33.75
Q 36.8 31.7 35.25 31.85 33.95 32 32.35 33.85
L 32.55 35
Q 33.5 35.75 35.4 35.75
L 37.2 35.65 35.7 37
Q 31.5 38.8 24.65 40.25 20.8 41.05 20.8 42.75 20.8 44.5 21 44.25 23.55 44.85 24.1 45.6
L 26.95 46
Q 33.05 46 39.05 41.1 44.7 36.5 44.7 32.6
L 44.55 31.5 Z"/>

<path fill="#FFFFFF" fill-opacity="0.25098039215686274" stroke="none" d="
M 24.85 22.9
L 24.8 24.2
Q 25.8 24.1 26.95 23.2 28.35 22.1 28.35 21
L 28.2 20 28 20.3
Q 24.2 18.7 22.1 19.15 20.55 19.45 20.2 20.8
L 20.45 20.45
Q 21.8 20.1 24.55 20.45
L 24.7 21.25 24.85 22.9
M 29.55 15.85
Q 27.65 16.3 27.65 17.65 27.65 18.35 28 18.95 28.7 20.1 30.35 20.1 32.35 20.1 33.45 19.25 34.45 18.45 34.45 17.15
L 34.45 16.95
Q 34.4 18.2 33.45 18.55
L 31.65 18.7 29.95 18.45
Q 29.65 18.35 29.1 17.85
L 28.95 16.8 29.55 15.85
M 23.3 8.95
Q 24.85 8.5 24.85 7.4 24.85 4.95 18.5 7.3 12.05 9.65 9.4 13.45 9 14 7.45 17.7 5.8 21.5 5.8 22.05 5.8 23.45 7.35 23.45 8.35 23.45 9.6 20.3
L 11.15 15.95
Q 11.55 15.05 12.85 13.65 14.2 12.1 15.1 11.75 18.5 10.35 23.3 8.95 Z"/>
</g>

<g id="MovieClips_Symbol_228_13_Layer1_0_FILL">
<path fill="#333333" stroke="none" d="
M 37.65 -22.7
Q 27.8 -31.4 14.15 -32.85 0 -34.4 -9.4 -27.05 -20.05 -18.7 -20.05 -1.65 -20.05 -0.25 -18.85 4.75 -17.2 11.3 -14.8 16.8 -7.5 33.65 3.45 33.65 20.9 33.65 35.65 19.85 41.3 14.55 45 8.7 48.3 3.25 48.3 -0.05 48.3 -13.25 37.65 -22.7 Z"/>
</g>

<g id="MovieClips_Symbol_264_13_Layer1_0_FILL">
<path fill="#FFFFFF" stroke="none" d="
M -8.7 14.05
Q -9.3 12.35 -10.25 11.35 -10.8 11.65 -10.8 12.25 -9 17.6 -8.35 17.6
L -7.7 17.35
Q -7.35 17.1 -7.55 16.9
L -8.7 14.05
M -13.8 -6.3
L -14.05 -7.9
Q -13.25 -8 -12.55 -8.9
L -12.05 -9.75
Q -12.05 -11.5 -14.15 -10.8 -16.3 -10.1 -16.3 -8.8 -16.3 -8.35 -15.5 -6.75
L -14.75 -5.4 -14.75 -5.35 -14.6 -5.15 -14.5 -5.05 -14.1 -5.05 -13.55 -5.15 -13.4 -5.25 -13.3 -5.75 -13.4 -6.15 -13.5 -6.25 -13.8 -6.3
M -12.3 -11.55
Q -12.25 -11.35 -11.65 -11.05
L -11 -10.8
Q -10.6 -10.8 -10.5 -11
L -10.3 -11.3
Q -10.55 -12.3 -11.2 -12.45 -11.9 -12.65 -12.3 -11.55
M -10.3 -15.25
Q -10.3 -16.1 -11.3 -16.1 -12.3 -16.1 -12.3 -15.35
L -11.85 -14.15 -11.25 -13.3 -10.65 -13.5 -10.3 -15.25
M -0.8 -19.1
L -1.1 -20.25
Q -1.35 -21 -2.3 -20.9
L -2.3 -19 -1.5 -18.3 -0.9 -18.5 -0.8 -19.1
M -2.95 -19.6
Q -3.65 -20.3 -4.5 -20.3 -5.45 -20.3 -5.7 -19.8 -6.15 -18.8 -6.5 -18.5
L -7.6 -20.7
Q -8.35 -21.95 -9.75 -21.75
L -9.8 -21.05 -8.05 -16.5 -9.2 -15.75 -9.8 -14.9 -9.75 -14.25 -8.5 -14.05
Q -7.65 -14.05 -6.75 -14.55 -5.8 -15.1 -5.8 -15.7 -5.8 -16.1 -6.15 -16.45
L -6.65 -17
Q -5.6 -17 -5.05 -17.95 -4.5 -18.95 -4.05 -19 -3.35 -18.05 -3 -18.05 -2.6 -18.05 -2.5 -18.25
L -2.3 -18.55 -2.95 -19.6
M -1.4 -24.4
L -1.5 -24.5 -3.3 -24.4 -3.25 -23.65
Q -2.8 -23.3 -2.35 -23.3
L -1.4 -23.5 -1.3 -24 -1.4 -24.4
M 13.9 26.4
L 14.1 25.85
Q 13.2 24.45 12.35 23.9 11.15 23.1 10.85 24.75 8.7 25.65 8.35 26.05 8.1 26.35 8.1 27.75 8.1 29.05 8.75 29.35
L 10.75 27.5 12 25.75 12.2 26.35 13.1 26.6 13.9 26.4
M 15.35 23.35
L 15.35 23.7
Q 15.35 24.1 15.7 25 16 25.85 16.25 26.1
L 16.75 25.85 16.85 24.75 16.8 23.55
Q 16.5 22.85 15.5 23.25
L 15.35 23.35
M 15.1 21
L 15.15 21.75
Q 15.45 22.1 16.1 22.1
L 17 21.9 17.1 21.4 17 21
Q 15.7 20.85 15.1 21
M 21.35 21.4
L 21.25 21
Q 19.8 21.1 19.5 21.7 19.35 21.95 19.35 23.15
L 19.4 24
Q 19.6 24.75 20.25 24.85
L 22 24.85
Q 22.7 24.7 23.2 24.2
L 23.6 23.4
Q 23.6 23.05 23.4 22.95
L 23 22.85
Q 22.9 22.85 22.5 23.2
L 20.6 23.5 20.6 22.5 21.1 21.85 21.35 21.4
M 27.9 18
L 27.85 18.55 28.25 19.1 27.6 18.8 26.85 18.6
Q 26.5 18.6 26 19.2 25.5 19.75 24.9 19.75
L 23.6 16.6
Q 22.35 14.05 22.35 16.8
L 22.6 19.75
Q 23.1 22.85 24.25 22.85
L 24.75 22.7 24.85 22.25 24.35 21.1 27.65 21
Q 28.85 20.85 28.85 19.65
L 28.8 19.55 29.1 19.6 29.7 19.35
Q 30.05 19.1 29.85 18.9
L 29.05 18.3 27.9 18
M 28.5 16.85
L 28.9 16.65 29.1 16.1
Q 29 15.9 28.5 15.6
L 28.1 15.65
Q 27.85 15.75 27.85 16.15
L 27.9 16.5 28.5 16.85
M 34.35 11.35
L 34.85 11.3 34.9 11.3 34.85 12.1 34.95 13.25
Q 35.1 13.95 35.75 14.1
L 36.25 13.9 36.7 11.05
Q 36.9 9.35 37.5 8.5
L 37.75 10.85
Q 38.05 12.6 39.1 12.6
L 39.7 12.4 39.85 12
Q 39.45 5.55 37.15 7.25 35.45 8.45 35.05 10.55 34.75 9.95 34.1 9.9 33.35 9.8 33.35 10.45
L 33.5 10.85
Q 33.75 11.35 34.35 11.35
M 31.75 12.35
L 31.85 11.7
Q 31.85 10.6 30.5 10.55 29.15 10.5 29.1 11.1
L 28.85 11.35
Q 29.5 11.9 31 14.95 32.35 17.6 33.1 17.6 34.1 17.6 34.1 16.3
L 34.1 16.1 34.25 16.1 34.7 16 34.85 15.4
Q 34.95 13.45 33.35 13.5
L 33.35 15.1 31.8 12.4 31.75 12.35
M 36.5 -14.3
Q 37.1 -14.3 37.1 -14.65
L 35.3 -16.75
Q 33.95 -17.85 32.85 -17.25 33.15 -16.3 34.8 -15.2 36.2 -14.3 36.5 -14.3
M 6.25 -25.1
L 5.1 -25.15 4.85 -23.4
Q 4.85 -22.95 5.05 -22.8
L 5.5 -22.55
Q 6.15 -22.8 6.3 -23.2
L 6.35 -24.05 6.25 -25.1
M 7.65 -26
L 7.6 -24.8 7.7 -23.8
Q 7.85 -23.4 8.75 -22.8
L 9.15 -23 10 -25 12 -25 12.25 -24.65
Q 12.5 -24.3 12.75 -24.3 13.35 -24.3 13.35 -24.65 13.3 -27.1 11.05 -26.7
L 8.75 -25.8 8.05 -25.9 7.65 -26
M 0.1 -28.55
L 1 -25.15
Q 1.95 -21.8 2.25 -21.8 2.65 -21.8 2.7 -21.95
L 2.75 -22.25 2.8 -22.15 2.85 -22.5
Q 2.85 -24.35 1.5 -27.45 0.1 -30.6 0.1 -28.55
M 4.35 -27.8
L 4.85 -27.35
Q 5.3 -27.05 5.6 -27.05 6.25 -27.05 6.25 -27.3
L 6.35 -27.75
Q 5.8 -28.4 5.3 -28.45 4.7 -28.5 4.35 -27.8 Z"/>
</g>
</defs>

<g transform="matrix( 1, 0, 0, 1, -28.4,-10.7) ">
<g transform="matrix( 1.1900634765625, 0, 0, 1.1900634765625, -24.15,-36.55) ">
<g transform="matrix( 1, 0, 0, 1, 0,0) ">
<g transform="matrix( 1, 0, 0, 1, 0,0) ">
<use xlink:href="#Graphics_Symbol_280_0_Layer2_0_FILL"/>
</g>

<g transform="matrix( 1, 0, 0, 1, 0,0) ">
<use xlink:href="#Graphics_Symbol_280_0_Layer1_0_FILL"/>
</g>

<g transform="matrix( 1, 0, 0, 1, 0,0) ">
<use xlink:href="#Graphics_Symbol_280_0_Layer0_0_FILL"/>
</g>
</g>
</g>
</g>

<g transform="matrix( 1, 0, 0, 1, -28.15,-10.5) ">
<g transform="matrix( 1, 0, 0, 1, 0,0) ">
<use xlink:href="#MovieClips_Symbol_228_13_Layer1_0_FILL"/>
</g>
</g>

<g transform="matrix( 1, 0, 0, 1, -28.4,-10.7) ">
<g transform="matrix( 1, 0, 0, 1, 0,0) ">
<use xlink:href="#MovieClips_Symbol_264_13_Layer1_0_FILL"/>
</g>
</g>
</svg>
