
<svg xmlns="http://www.w3.org/2000/svg" version="1.1" xmlns:xlink="http://www.w3.org/1999/xlink" preserveAspectRatio="none" x="0px" y="0px" width="550px" height="400px" viewBox="0 0 550 400">
<defs>
<g id="Parts_Sets_Brew_brewFoot_0_Layer0_0_FILL">
<path fill="#000000" fill-opacity="0.2" stroke="none" d="
M 31.65 33.75
Q 31.4076171875 33.823046875 31.15 33.9
L 31.15 34.05 31.3 33.95 31.35 33.95 31.45 33.85 31.55 33.85 31.65 33.75
M 31.8 33.7
Q 31.7251953125 33.7234375 31.65 33.75
L 31.75 33.75 31.8 33.7
M 7.15 17.4
Q 7.15 16.85 7.3 15.95 7.4 15.15 7.7 14.5 6.35 16.3 6.35 18.3 6.35 19.35 6.6 20 7 20.95 8.05 21.6 8.35 21.85 9.15 22.15 9 22 8.85 21.85 8.2 21.35 8.2 21.2 7 19.75 7.15 17.4
M 10.2 10.05
Q 10.3 8.85 10.25 8.85 8.3 9.5 6.75 10.4 3.2 13.3 2.15 16.3 1.75 17.65 1.75 19.25 1.75 20.05 2.25 21.75 2.5 22.5 2.8 22.8 3.45 23.6 4.25 24.25 4.4 24.35 4.65 24.5 7.15 26.5 10.45 27 10.15 24.5 10.2 24.3 10.2 24.15 10.2 24.1
L 10.2 24 10.15 24
Q 9.6 24 8.75 23.7 6.35 22.8 5.45 21.05 4.4 19.25 5.15 16.45 5.7 14.7 7.15 12.8 8.65 10.95 10.2 10.05
M 5.2 12.2
L 6.5 11.05 7.3 10.5 8.35 10 8.3 10 8.35 9.9 8.4 9.9 8.35 9.95 8.4 9.95 9.7 9.5 9.85 9.65 9.75 9.8 9.8 9.85 8.25 11.15 6 13.7 5.65 14.2
Q 5.3 14.65 5.05 15.25 4.7 16.05 4.65 16.1
L 4.6 16.25 4.45 18.25
Q 4.5 19.55 4.65 20.25 5.15 21.8 7.9 23.8
L 9.1 24.6
Q 10.05 25.25 9.8 25.7
L 9.65 25.8 8.4 25.35 7.2 25 6.4 24.75 5.5 24.3 4.15 23
Q 3.4 22.4 2.9 21
L 2.55 18.75
Q 2.5 17.95 2.65 17.05
L 2.9 16.1
Q 3.55 14.4 4 13.75
L 5.2 12.2
M 28.8 4.45
Q 25.4 3.65 21.65 3.9 19.9 4 17.85 4.4
L 13.75 5.5
Q 15.85 6.05 18.1 6.3 20.6 6.55 24.15 6.55 29.2 6.4 32.25 5.5
L 28.8 4.45
M 11.5 6.4
Q 11.5 6.7 11.5 7.1 11.5 10.25 11.35 16.45 11.35 20.3 11.65 23.6 11.65 23.7 11.65 23.85
L 11.9 26.6
Q 12.15 29.45 12.45 30.2 12.85 31.1 14.2 31.9
L 15.05 32.3 14.8 21.65 14.6 7.2
Q 13.2294921875 6.872265625 12.15 6.4 11.75 6.15 11.5 6.05 11.5 6.15 11.5 6.4
M 35 6.3
Q 34.85 6.4 34.75 6.4 33.50625 7.043359375 31.95 7.45
L 32.5 31.75
Q 33.706640625 31.334765625 34.85 30.85 34.95 28.75 34.9 26.25 34.8 23.8 34.8 22.9 34.75 19.55 34.75 17.85 34.7 14.8 34.85 12.65 34.85 8.95 35 6.3
M 15.1 2.3
L 15.1 2.25
Q 14.443359375 2.4203125 13.75 2.6 12.95 2.85 12.05 3.4 11.5 3.65 11.35 4.05 11.25 4.6 12.3 4.95 12.35 5 13.8 4.35 14.439453125 4.04921875 15 3.85
L 15.05 3.3 15.05 3.05 15.1 2.3
M 31.95 2.6
L 31.85 4.4
Q 33.4404296875 4.95 33.55 4.95 34.85 4.45 35.15 3.8 34.0154296875 2.7716796875 31.95 2.25
L 31.95 2.6
M 49.55 18.75
Q 49.45 18.65 49.45 18.75
L 49.4 18.8 49.35 18.95 49.35 19.05 49.55 19.25
Q 49.65 19.35 49.65 19.25
L 49.8 19.15 49.75 18.95 49.55 18.75 Z"/>

<path fill="#000000" stroke="none" d="
M 36.3 11.7
Q 36.3 11.55 36.3 11.45
L 36.35 2.6
Q 34.25 0.9 29.7 0.35
L 26.55 0.1
Q 24.45 -0.05 22.45 0.1 16.4 0.35 12.05 2.35 10.45 3 10.3 3.9 10.2 4.45 10.45 4.95 10.3 5.25 10.3 5.65
L 10.25 7.95 9.55 8.15 8.15 8.6 5.9 9.8 3.85 11.45
Q 2.6 12.5 1.95 13.55 1.4 14.3 0.55 15.9 0.25 16.45 0 17.9
L 0.15 20.95
Q 0.85 23.45 2.4 24.75
L 3.65 25.9 4.95 26.75 6.1 27.25 7.2 27.6 8.95 28.1 10.6 28.45
Q 10.6 29 10.85 29.5 11.4 31.15 11.75 31.75 11.8 31.85 12.05 32.25 12.3 32.7 12.6 32.9 13.2 33.35 14.3 33.75
L 14.35 33.75
Q 14.9 33.95 15.65 34.2
L 18.4 34.75 23.35 35.05
Q 28.208203125 34.690234375 31.15 33.9 31.4076171875 33.823046875 31.65 33.75 31.7251953125 33.7234375 31.8 33.7 32.547265625 33.466796875 33.15 33.2
L 34.15 32.8 34.25 32.75 36.25 31.55 36.2 31.55
Q 36.1 31.6 36.2 31.5
L 36.3 31.5 36.3 26.1
Q 36.3 25.95 36.3 25.85
L 36.3 16.2
Q 36.3 16.05 36.3 15.95
L 36.3 11.7
M 31.85 4.4
Q 31.28046875 4.219140625 30.5 3.95
L 27.75 3.2
Q 27.4470703125 3.11640625 27.15 3.05 24.6150390625 2.4208984375 22.6 2.6
L 18.65 3.15 16.85 3.4
Q 16.0078125 3.4935546875 15 3.85 14.439453125 4.04921875 13.8 4.35 12.35 5 12.3 4.95 11.25 4.6 11.35 4.05 11.5 3.65 12.05 3.4 12.95 2.85 13.75 2.6 14.443359375 2.4203125 15.1 2.25 16.9734375 1.827734375 18.55 1.6 19.6462890625 1.451171875 20.6 1.4
L 25.75 1.4 27.15 1.55 28.05 1.65
Q 28.95 1.8 30.1 1.95 31.1033203125 2.06640625 31.95 2.25 34.0154296875 2.7716796875 35.15 3.8 34.85 4.45 33.55 4.95 33.4404296875 4.95 31.85 4.4
M 34.75 6.4
Q 34.85 6.4 35 6.3 34.85 8.95 34.85 12.65 34.7 14.8 34.75 17.85 34.75 19.55 34.8 22.9 34.8 23.8 34.9 26.25 34.95 28.75 34.85 30.85 33.706640625 31.334765625 32.5 31.75 30.1912109375 32.5154296875 27.6 33 26.0826171875 33.3029296875 24.45 33.5 21.6794921875 33.7041015625 19.35 33.45 17.716796875 33.266796875 16.3 32.85
L 15.05 32.3 14.2 31.9
Q 12.85 31.1 12.45 30.2 12.15 29.45 11.9 26.6
L 11.65 23.85
Q 11.65 23.7 11.65 23.6 11.35 20.3 11.35 16.45 11.5 10.25 11.5 7.1 11.5 6.7 11.5 6.4 11.5 6.15 11.5 6.05 11.75 6.15 12.15 6.4 13.2294921875 6.872265625 14.6 7.2 15.26796875 7.369921875 16 7.5 17.5052734375 7.7796875 19 7.95 22.7841796875 8.39921875 26.55 8.2 26.9638671875 8.1771484375 27.35 8.15 29.9201171875 8.0072265625 31.95 7.45 33.50625 7.043359375 34.75 6.4
M 21.65 3.9
Q 25.4 3.65 28.8 4.45
L 32.25 5.5
Q 29.2 6.4 24.15 6.55 20.6 6.55 18.1 6.3 15.85 6.05 13.75 5.5
L 17.85 4.4
Q 19.9 4 21.65 3.9
M 10.25 8.85
Q 10.3 8.85 10.2 10.05 8.65 10.95 7.15 12.8 5.7 14.7 5.15 16.45 4.4 19.25 5.45 21.05 6.35 22.8 8.75 23.7 9.6 24 10.15 24
L 10.2 24 10.2 24.1
Q 10.2 24.15 10.2 24.3 10.15 24.5 10.45 27 7.15 26.5 4.65 24.5 4.4 24.35 4.25 24.25 3.45 23.6 2.8 22.8 2.5 22.5 2.25 21.75 1.75 20.05 1.75 19.25 1.75 17.65 2.15 16.3 3.2 13.3 6.75 10.4 8.3 9.5 10.25 8.85
M 8.85 14.7
Q 9.25 13.4 9.6 12.7 9.9 12.2 9.9 12.15 9.65 17.05 10.05 21.75 8.85 20.7 8.35 19.25 8.2 18.55 8.2 18.3 8.2 17.9 8.2 17.4 8.35 16.4 8.85 14.7
M 7.3 15.95
Q 7.15 16.85 7.15 17.4 7 19.75 8.2 21.2 8.2 21.35 8.85 21.85 9 22 9.15 22.15 8.35 21.85 8.05 21.6 7 20.95 6.6 20 6.35 19.35 6.35 18.3 6.35 16.3 7.7 14.5 7.4 15.15 7.3 15.95 Z"/>

<path fill="#FFFFFF" fill-opacity="0.2980392156862745" stroke="none" d="
M 6.55 12.05
Q 6.5 11.85 6.1 11.9
L 5.1 12.95 4.05 14.45
Q 3.8 14.85 3.8 15.15
L 3.75 15.15 3.45 16.3 3.25 17.85
Q 3.2 18.85 3.35 19.85
L 3.5 20.65
Q 3.65 21.3 4.15 21.85 4.4 22.15 4.65 22.15 4.75 22.25 4.85 22
L 4.15 20.3
Q 3.95 19.7 3.95 18.3 3.95 16.5 4.25 15.6 4.4 15.45 4.6 14.95 4.85 14.65 5.3 13.85 5.35 13.7 5.85 13.2
L 6.5 12.6
Q 6.75 12.25 6.55 12.05
M 27.05 18.2
L 26.8 16.1 26.55 8.2
Q 22.7841796875 8.39921875 19 7.95 19.3771484375 29.658984375 19.35 33.45 21.6794921875 33.7041015625 24.45 33.5 26.0826171875 33.3029296875 27.6 33
L 27.05 18.2
M 27.15 1.55
L 25.75 1.4 20.6 1.4
Q 19.6462890625 1.451171875 18.55 1.6
L 18.65 2.7
Q 18.6638671875 2.9505859375 18.65 3.15
L 22.6 2.6
Q 24.6150390625 2.4208984375 27.15 3.05
L 27.15 1.55 Z"/>
</g>

<g id="MovieClips_Symbol_228_42_Layer1_0_FILL">
<path fill="#00FFFF" stroke="none" d="
M 2.7 -12.2
L 2.7 -4.85
Q 2.35 -4.95 0.05 -4.1 -2.9 -3.15 -5.75 -1.65 -5.75 -1.5 -9.05 1.65 -9.65 2.45 -10.3 3.6 -11.55 5.9 -12.2 8.15 -12.45 9.15 -12.95 10.55 -13 10.7 -13.1 11.95 -13.1 13.25 -13.25 13.35
L -13.2 17.05
Q -9.25 21.7 -8.9 21.95
L -5.55 24.2
Q -4.05 25.1 -3.65 25.35 -3.45 25.35 -3.2 25.5 -2.5 25.65 -0.45 26.35 2.05 27.05 2.7 27.05 3.1 27.25 3.35 27.3 3.45 27.3 3.75 27.25
L 4.25 31.75
Q 4.65 32.25 6.65 34.65
L 9.75 36.1
Q 17 38.35 25.65 37.5 32.25 36.8 42.9 32.25
L 42.6 31.1
Q 42.35 31 42.75 29.05 43.15 26.75 43.15 26.4 42.85 24.1 42.85 21 43 17.45 43 15.55 42.85 6.65 43.35 0.35
L 43.5 -3.15
Q 43.5 -7.65 43.75 -9.9 43.6 -9.7 43.5 -11.95 43.35 -14.15 43.15 -14.25 40.1 -15.4 38.95 -15.9 37 -16.65 34.3 -17.1 23.9 -19 12 -16.45 11.1 -16.3 4.35 -14.3 4.1 -14.25 3.45 -13.1 2.85 -12.1 2.7 -12.2
M 2.3 -1.65
L 2.35 -0.15
Q 2.7 3.05 2.55 8.25 2.45 11.35 2.85 14.9 3.05 16.95 3.5 20.75
L 2.55 20.65 -0.25 16.15
Q -0.25 15.95 -1.1 14.8 -2 13.55 -2.15 13.25 -2.4 9.7 -2.5 9.45
L -2.05 6.4
Q -1.9 5.75 -1.85 5.35 -1.6 4.5 -1.35 4.3
L 0.05 0.1
Q 0.3 -0.1 2.3 -1.65 Z"/>
</g>

<g id="MovieClips_Symbol_264_42_Layer1_0_FILL">
<path fill="#0F00D7" stroke="none" d="
M 0.2 -4.95
L 0.2 -4.75
Q -0.1 -5 -1.35 -4.25
L -3.45 -3.15
Q -3.7 -3.15 -4.1 -2.45 -4.55 -2.45 -4.8 -2.45 -5.25 -2.25 -5.65 -2 -5.9 -2 -6.15 -1.75
L -7.9 0.3 -9.25 1.35 -10.65 2.9
Q -10.7 3.15 -11.6 4.1 -12.35 4.85 -12.25 5.3 -13.55 7.3 -13.55 9.95 -13.65 11.5 -13.4 14.75 -13.65 16.55 -12.7 17.5
L -12.5 17.5
Q -11.85 20.7 -9.5 22.75 -9.1 23.65 -8.15 24.15 -7.3 24.6 -6.6 24.3 -5.65 25 -5.05 25.45 -4.45 25.7 -3.25 26.4 -2.25 27 -1.35 26.8 -1.2 26.8 2.05 27.6 2.75 27.85 3.35 27.65 3.7 27.5 3.6 26.65 3.45 25.6 3.5 25.45 3.85 24.65 3.35 24.05 3.25 23.95 3.2 22.95 3.2 22 2.75 21.75 2.65 22.1 2.65 21.8 2.65 21.4 2.65 20.95 2.25 20 1.1 18.65
L -1.2 16.55
Q -1.8 15.95 -2.05 14.75 -2.65 12.6 -2.3 8.4 -2.3 6.6 -2.5 5.9 -2.3 6.1 -2.15 6.25 -2.4 5.15 -2.5 5.3 -2.3 5.05 -2.05 2.55 -1.2 1.85 -0.95 1.15 -0.5 0.75 -0.5 0.05
L -0.25 0.05 -0.25 -0.2
Q 0.2 0.05 0.6 -0.2
L 1.1 -0.65
Q 1.4 -0.8 2.05 -1.3 2.65 -1.85 2.65 -2.25 2.65 -2.7 2.4 -2.95 2.5 -3.05 2.5 -3.4 2.65 -3.65 2.6 -3.9 2.5 -4.4 2.5 -4.5 2.25 -5.2 1.8 -5.45 1.3 -5.6 1.1 -5.45 0.6 -5.45 0.2 -4.95 Z"/>
</g>
</defs>

<g transform="matrix( 1, 0, 0, 1, -28.4,-10.7) ">
<g transform="matrix( 1.6666717529296875, 0, 0, 1.663330078125, -15.65,-19.3) ">
<g transform="matrix( 1, 0, 0, 1, 0,0) ">
<use xlink:href="#Parts_Sets_Brew_brewFoot_0_Layer0_0_FILL"/>
</g>
</g>
</g>

<g transform="matrix( 1, 0, 0, 1, -28.15,-10.5) ">
<g transform="matrix( 1, 0, 0, 1, 0,0) ">
<use xlink:href="#MovieClips_Symbol_228_42_Layer1_0_FILL"/>
</g>
</g>

<g transform="matrix( 1, 0, 0, 1, -28.4,-10.7) ">
<g transform="matrix( 1, 0, 0, 1, 0,0) ">
<use xlink:href="#MovieClips_Symbol_264_42_Layer1_0_FILL"/>
</g>
</g>
</svg>
