
<svg xmlns="http://www.w3.org/2000/svg" version="1.1" xmlns:xlink="http://www.w3.org/1999/xlink" preserveAspectRatio="none" x="0px" y="0px" width="550px" height="400px" viewBox="0 0 550 400">
<defs>
<g id="MovieClips_Symbol_228_42_Layer1_0_FILL">
<path fill="#00FFFF" stroke="none" d="
M 2.7 -12.2
L 2.7 -4.85
Q 2.35 -4.95 0.05 -4.1 -2.9 -3.15 -5.75 -1.65 -5.75 -1.5 -9.05 1.65 -9.65 2.45 -10.3 3.6 -11.55 5.9 -12.2 8.15 -12.45 9.15 -12.95 10.55 -13 10.7 -13.1 11.95 -13.1 13.25 -13.25 13.35
L -13.2 17.05
Q -9.25 21.7 -8.9 21.95
L -5.55 24.2
Q -4.05 25.1 -3.65 25.35 -3.45 25.35 -3.2 25.5 -2.5 25.65 -0.45 26.35 2.05 27.05 2.7 27.05 3.1 27.25 3.35 27.3 3.45 27.3 3.75 27.25
L 4.25 31.75
Q 4.65 32.25 6.65 34.65
L 9.75 36.1
Q 17 38.35 25.65 37.5 32.25 36.8 42.9 32.25
L 42.6 31.1
Q 42.35 31 42.75 29.05 43.15 26.75 43.15 26.4 42.85 24.1 42.85 21 43 17.45 43 15.55 42.85 6.65 43.35 0.35
L 43.5 -3.15
Q 43.5 -7.65 43.75 -9.9 43.6 -9.7 43.5 -11.95 43.35 -14.15 43.15 -14.25 40.1 -15.4 38.95 -15.9 37 -16.65 34.3 -17.1 23.9 -19 12 -16.45 11.1 -16.3 4.35 -14.3 4.1 -14.25 3.45 -13.1 2.85 -12.1 2.7 -12.2
M 2.3 -1.65
L 2.35 -0.15
Q 2.7 3.05 2.55 8.25 2.45 11.35 2.85 14.9 3.05 16.95 3.5 20.75
L 2.55 20.65 -0.25 16.15
Q -0.25 15.95 -1.1 14.8 -2 13.55 -2.15 13.25 -2.4 9.7 -2.5 9.45
L -2.05 6.4
Q -1.9 5.75 -1.85 5.35 -1.6 4.5 -1.35 4.3
L 0.05 0.1
Q 0.3 -0.1 2.3 -1.65 Z"/>
</g>
</defs>

<g transform="matrix( 1, 0, 0, 1, -28.15,-10.5) ">
<g transform="matrix( 1, 0, 0, 1, 0,0) ">
<use xlink:href="#MovieClips_Symbol_228_42_Layer1_0_FILL"/>
</g>
</g>
</svg>
