
<svg xmlns="http://www.w3.org/2000/svg" version="1.1" xmlns:xlink="http://www.w3.org/1999/xlink" preserveAspectRatio="none" x="0px" y="0px" width="550px" height="400px" viewBox="0 0 550 400">
<defs>
<g id="MovieClips_Symbol_264_42_Layer1_0_FILL">
<path fill="#0F00D7" stroke="none" d="
M 0.2 -4.95
L 0.2 -4.75
Q -0.1 -5 -1.35 -4.25
L -3.45 -3.15
Q -3.7 -3.15 -4.1 -2.45 -4.55 -2.45 -4.8 -2.45 -5.25 -2.25 -5.65 -2 -5.9 -2 -6.15 -1.75
L -7.9 0.3 -9.25 1.35 -10.65 2.9
Q -10.7 3.15 -11.6 4.1 -12.35 4.85 -12.25 5.3 -13.55 7.3 -13.55 9.95 -13.65 11.5 -13.4 14.75 -13.65 16.55 -12.7 17.5
L -12.5 17.5
Q -11.85 20.7 -9.5 22.75 -9.1 23.65 -8.15 24.15 -7.3 24.6 -6.6 24.3 -5.65 25 -5.05 25.45 -4.45 25.7 -3.25 26.4 -2.25 27 -1.35 26.8 -1.2 26.8 2.05 27.6 2.75 27.85 3.35 27.65 3.7 27.5 3.6 26.65 3.45 25.6 3.5 25.45 3.85 24.65 3.35 24.05 3.25 23.95 3.2 22.95 3.2 22 2.75 21.75 2.65 22.1 2.65 21.8 2.65 21.4 2.65 20.95 2.25 20 1.1 18.65
L -1.2 16.55
Q -1.8 15.95 -2.05 14.75 -2.65 12.6 -2.3 8.4 -2.3 6.6 -2.5 5.9 -2.3 6.1 -2.15 6.25 -2.4 5.15 -2.5 5.3 -2.3 5.05 -2.05 2.55 -1.2 1.85 -0.95 1.15 -0.5 0.75 -0.5 0.05
L -0.25 0.05 -0.25 -0.2
Q 0.2 0.05 0.6 -0.2
L 1.1 -0.65
Q 1.4 -0.8 2.05 -1.3 2.65 -1.85 2.65 -2.25 2.65 -2.7 2.4 -2.95 2.5 -3.05 2.5 -3.4 2.65 -3.65 2.6 -3.9 2.5 -4.4 2.5 -4.5 2.25 -5.2 1.8 -5.45 1.3 -5.6 1.1 -5.45 0.6 -5.45 0.2 -4.95 Z"/>
</g>
</defs>

<g transform="matrix( 1, 0, 0, 1, -28.4,-10.7) ">
<g transform="matrix( 1, 0, 0, 1, 0,0) ">
<use xlink:href="#MovieClips_Symbol_264_42_Layer1_0_FILL"/>
</g>
</g>
</svg>
