
<svg xmlns="http://www.w3.org/2000/svg" version="1.1" xmlns:xlink="http://www.w3.org/1999/xlink" preserveAspectRatio="none" x="0px" y="0px" width="550px" height="400px" viewBox="0 0 550 400">
<defs>
<g id="Layer0_0_FILL">
<path fill="#010101" stroke="none" d="
M 0.3 1.5
L 0.3 0.6
Q 0.3 0.3 0.2 0.2 0.2 0 0.1 0 0 0 0 0.5 0 1 0.2 2.4 0.2 2.6 0.4 3.2 0.4 3.3 0.5 3.6
L 0.6 3.9
Q 0.7 4 0.7 3.8
L 0.7 3.3 0.6 3.05
Q 0.6 2.85 0.5 2.85
L 0.5 2.5
Q 0.4 2.3 0.4 1.8 0.4 1.6 0.3 1.5 Z"/>
</g>
</defs>

<g transform="matrix( 1, 0, 0, 1, 0,0) ">
<use xlink:href="#Layer0_0_FILL"/>
</g>
</svg>
