
<svg xmlns="http://www.w3.org/2000/svg" version="1.1" xmlns:xlink="http://www.w3.org/1999/xlink" preserveAspectRatio="none" x="0px" y="0px" width="550px" height="400px" viewBox="0 0 550 400">
<defs>
<g id="Parts_Heads_headColorMC_17_Layer1_0_FILL">
<path fill="#FF9933" stroke="none" d="
M 110.3 29.8
Q 107 31.5 96.15 46.65 85.65 61.3 82.95 62
L 74.6 63.45
Q 68.55 64.2 59.3 66.65 53.2 68.3 47 68
L 5.7 65.8
Q 10.2 74.25 14.85 81.15 22.25 92 25.55 91.9
L 25.6 91.75 25.8 92.35 25.2 96
Q 24.7 99.8 25.3 101.85
L 29.95 120.7
Q 33.65 134.6 41.65 141.35 53.25 151 73.4 145.65 87.35 141.9 97 137.2 106.55 132.55 107.6 128.7
L 109.05 127.4
Q 110.3 126 110.9 124.05 114.2 121.9 117 119.3 123.6 113.25 122.25 108.4
L 118.8 104.7
Q 115.3 101.1 114.15 97 113.75 95.55 114.45 92.15 115.15 88.65 114.6 86.7
L 113.35 82.55
Q 112.55 79.65 112.15 74.85 114.2 74.25 113.05 73.8 112.15 66.9 113.2 66.05 114.25 65.25 113.8 62.7
L 113.15 59.7
Q 111.95 55.1 111 43 110.15 32.65 110.3 29.8 Z"/>
</g>

<g id="Graphics_Symbol_785_0_Layer0_0_FILL">
<path fill="#000000" stroke="none" d="
M 140.95 125.35
Q 140.25 122.75 124.85 118.75
L 109.5 115.25
Q 108.1 115.65 107.95 116.6
L 108 116.95
Q 110.7 115.7 126.8 121.6 141.4 126.95 140.95 125.35
M 26.1 175.5
Q 40.3 161.9 54.1 150.35
L 87.2 123
Q 75.15 127.25 52.3 147.45 30.35 166.75 26.1 175.5
M 4.35 134.35
Q 24 128.95 65.5 120.55
L 86 116.3 86.65 114.5
Q 76.5 114.6 55.8 119 45.4 121.2 36.35 123.5
L -0.65 133.45 -1.5 133.75 -1.65 133.95 -1.65 134.95 -1.35 135.85 4.35 134.35
M 11.45 156.8
Q 29.6 145.6 35.1 142.8
L 82.4 121.55 88.25 118.75
Q 87.5 118.1 87.7 116.65
L 86.45 116.8
Q 73.75 120.2 33.3 139.75 -10.35 160.9 -9 165.9 -8.6 167.35 -7.3 167 -3.35 165.95 11.45 156.8
M 76.45 94.4
Q 75.8 92 73.05 90.95
L 67.05 90.7
Q 63.85 91.55 62 93.9 60.15 96.2 60.8 98.6 61.45 101 64.2 102.05
L 70.15 102.25
Q 73.4 101.35 75.25 99.1 77.1 96.8 76.45 94.4
M 155.65 92.25
Q 154.7 92.35 148.5 94 130.25 98.9 122.65 102.4 118.05 104.5 116.9 106.5
L 117.7 107.4
Q 118.1 107.7 118.65 107.6 122.25 106.6 126.9 104.2 131.75 101.65 134.75 100.8
L 155 95
Q 156.8 94.4 157 94
L 156.85 93
Q 156.6 92.1 155.65 92.25
M 101.7 90.9
Q 103.65 90.35 104.8 89.05 105.9 87.6 105.5 86.2 105.15 84.75 103.5 84.2
L 99.9 84.05
Q 98 84.55 96.9 85.95 95.75 87.3 96.1 88.75 96.5 90.15 98.2 90.8
L 101.7 90.9
M 165.35 109.5
Q 171.65 108.85 171 105.3 150.2 105.5 130.1 108.25
L 113.6 111.1
Q 111.1 111.8 109.7 112.5
L 109.7 112.85 109.95 113.6 147 110.7 165.35 109.5 Z"/>
</g>

<g id="Graphics_Symbol_831_0_Layer2_0_FILL">
<path fill="#000000" stroke="none" d="
M 114.35 29.2
Q 114.4 28.15 113.85 26.75
L 113.8 26.6 113.15 26.75
Q 106.55 28.5 96.5 43.4 91.25 51.15 89 53.85 84.85 58.75 81.3 59.7
L 78 59.45
Q 73.85 59.45 68.3 60.95 62 62.6 58.7 64.4
L 56.4 65.95 28.75 63.75 0.1 61.9 -0.5 62.1 -0.5 62.25
Q 14.6 84.35 18.25 88.85 20.65 91.75 23.45 93.9 22.6 95.1 21 99.4
L 23.2 106.45 27.5 121.05
Q 30.55 132.5 35.8 140 44.45 152.4 56.6 149.2
L 55.6 149
Q 55.1 148.6 54.65 148.7 59.75 147.3 66.85 147.45
L 76.15 146.9
Q 88.5 143.55 98.85 137.2 104.7 133.6 114.65 126.4
L 113.7 124.55
Q 117.2 123.4 120.75 119.4 125.6 113.95 123.95 107.95 123.8 107.3 120.1 102.7 116.35 98.05 115.9 96.4 116.55 86.45 116.3 85.4 116.15 84.9 115.75 85.1 115.3 85.2 115.15 84.65 114.35 81.6 115.7 74.15 117.15 66.65 116.5 64.3 114.2 55.7 112.95 44.35 111.45 30.25 114.35 29.2
M 109.5 30.75
Q 109.35 33.55 110.15 43.8 111.1 55.7 112.3 60.25
L 112.95 63.25
Q 113.4 65.75 112.35 66.55 111.3 67.35 112.2 74.2 113.35 74.65 111.3 75.2 111.7 79.95 112.5 82.8
L 113.75 86.9
Q 114.25 88.85 113.6 92.3 112.9 95.65 113.3 97.1 114.4 101.15 117.85 104.7
L 121.3 108.35
Q 122.6 113.15 116.1 119.1 112.8 122.15 108.7 124.65 108.05 123.8 106.55 120.95
L 105 117.9
Q 104.9 117.45 109.8 111.45 114.7 105.45 114.3 104.05 113.85 102.4 109.45 102.9 105.65 103.3 97.8 105.4 96.25 105.8 94.55 106.65 92.8 107.4 92.4 108
L 92.4 108.6 98.15 113.7
Q 99.15 114.45 99.75 116.75 100.1 117.95 101.05 118.15 102.05 118.25 102.55 120.1 103.35 123.25 99.7 126.05 96.2 128.75 89.55 130.55 78 133.6 71.05 131.15 65.75 128 63.85 127.95
L 62.6 128.5 62.1 128.7
Q 67.4 133.65 73.95 134.6 80.4 135.55 90.2 132.95 95.4 131.55 99.85 128.75 103.45 126.35 104.75 124.45
L 105.85 125.45
Q 106.65 126.05 106.8 126.65 108 131.1 96.35 136.8 86.85 141.4 73.05 145.1 53.15 150.4 41.7 140.85 33.8 134.2 30.15 120.5
L 25.55 101.9
Q 25 99.85 25.5 96.1
L 26.05 92.5 25.85 91.9 25.8 92.05
Q 22.55 92.15 15.25 81.45 10.65 74.65 6.25 66.3
L 47 68.45
Q 53.1 68.75 59.15 67.15 68.25 64.7 74.25 63.95
L 82.5 62.55
Q 85.15 61.85 95.5 47.4 106.2 32.4 109.5 30.75
M 110.2 105.45
L 107.25 108.7
Q 104.55 111.45 101.6 113.25
L 97.25 108.1 110.2 105.45 Z"/>

<path fill="#FFDDDD" stroke="none" d="
M 107.25 108.7
L 110.2 105.45 97.25 108.1 101.6 113.25
Q 104.55 111.45 107.25 108.7
M 10.65 69.45
L 10.55 70.1
Q 11.05 71.95 21 81.7 30.8 91.4 33.1 92.55 35.65 90.3 40.4 84.55 46.95 76.6 46.25 74.05 45.9 72.8 32 70.3 17.3 67.6 11.75 69.05
L 10.65 69.45
M 106.95 39.2
L 106.4 39.1
Q 105.2 39.4 98.9 47.2 93.4 53.95 88.45 60.8
L 101.3 70.5
Q 106.45 74.45 107.35 74.3 109.85 69.05 106.75 39.5
L 106.95 39.2 Z"/>
</g>

<g id="Graphics_Symbol_831_0_Layer1_0_FILL">
<path fill="#000000" fill-opacity="0.25098039215686274" stroke="none" d="
M 106.9 34.35
Q 105.9 37.15 105.9 41.45 105.9 44.3 106.4 50.85 106.3 57.55 103.15 65.35 97.7 62.4 92.5 60.85 88.3 59.65 85.4 59.65 80.2 59.65 72.75 61.15 62.75 63.15 56.7 65.5
L 52.6 67.4 39.75 66.55 5.85 64.65 6.05 65.55
Q 8.7 68.65 21.95 72.6 36.3 76.85 49.5 77.55 39.25 86.2 29.05 91.2
L 24.15 93.65
Q 22.55 94.7 22.55 96 22.55 96.5 23.7 97.7 24.95 99 25.25 103.35
L 26 114.35
Q 26.55 119.25 28.65 124.15 34.9 138.65 43.6 143.95 50.3 148.05 61.95 148.05 68.6 148.05 82.65 143.65 97.75 138.95 101.7 134.75
L 116.6 119.45
Q 123.25 112.25 123.25 108.45 123.25 104.55 121.95 102.6 119.6 106.3 116.7 101.35 113.8 96.4 113.05 62.8
L 112.3 38.5
Q 111.9 30.95 109.45 29.65 107.5 32.7 106.9 34.35
M 100.95 88.1
L 103.55 95.5
Q 108.55 102.95 113.25 105.8
L 115.4 107.3
Q 116.05 108.05 116.05 109.95 116.05 110.9 111.4 115.15 106.1 120 99.6 124.55 81 137.55 68.1 137.55 53.4 137.55 44.1 129.3 35.25 121.45 35.25 110.1 35.25 91.3 53.25 79.25 59.45 75.15 66.7 72.55 72.4 70.5 74.95 70.5 80.15 70.5 87.3 74.3 92.5 77 95.35 79.55 98.65 81.85 100.95 88.1 Z"/>
</g>

<g id="Graphics_Symbol_831_0_Layer0_0_FILL">
<path fill="#FFFFFF" stroke="none" d="
M 102.3 110.2
Q 103.45 109.25 103.45 107.9 103.45 106.55 102.3 105.65 101.1 104.7 99.45 104.7 97.8 104.7 96.65 105.65 95.45 106.55 95.45 107.9 95.45 109.25 96.65 110.2 97.8 111.1 99.45 111.1 101.1 111.1 102.3 110.2
M 68.35 97.05
Q 69.85 95.95 69.85 94.45 69.85 92.95 68.35 91.9 66.85 90.8 64.75 90.8 62.65 90.8 61.15 91.9 59.65 92.95 59.65 94.45 59.65 95.95 61.15 97.05 62.65 98.1 64.75 98.1 66.85 98.1 68.35 97.05
M 95.1 84.45
Q 94.1 85.15 94.1 86.15 94.1 87.15 95.1 87.9 96.1 88.6 97.55 88.6 99 88.6 100 87.9 101 87.15 101 86.15 101 85.15 100 84.45 99 83.7 97.55 83.7 96.1 83.7 95.1 84.45 Z"/>

<path fill="#FFFFFF" fill-opacity="0.25098039215686274" stroke="none" d="
M 117.25 109.65
L 116.65 108.4
Q 113.9 108.1 112.2 109.5 111 110.5 111 111.4 111 112.05 111.15 112.3
L 111.6 112.75
Q 110.2 113.2 109.05 114.35 107.95 115.4 107.95 116.15 107.95 118.2 109.5 118.2 111.35 118.2 112.7 117.45 114.25 116.6 114.25 115.25
L 114 114.2 113.5 113.3
Q 115.75 113.45 116.8 112.3 117.45 111.6 117.45 110.8
L 117.25 109.65
M 116.4 103.25
Q 115.5 103.25 114.85 103.9 114.2 104.55 114.2 105.5 114.2 106.45 114.85 107.1 115.5 107.75 116.4 107.75 117.3 107.75 117.95 107.1 118.6 106.45 118.6 105.5 118.6 104.55 117.95 103.9 117.3 103.25 116.4 103.25
M 77.4 108
Q 61.9 108 56.2 111.3 51.5 114.1 54.05 118.65 56.2 122.5 62.3 125.95 68.15 129.25 72.35 129.25 82.5 129.25 88.3 125.9 93.2 123.1 93.2 119.35 93.2 114.2 89.7 111.3 85.7 108 77.4 108
M 51.15 51.95
Q 50.15 52.85 50.15 54.4 50.15 55.15 52.8 56.25 57.05 58 58.65 58.9 67.1 63.75 67.1 73.45 67.1 74.35 65.9 79.15 65.9 82.45 66.75 83.7 67.2 84.35 67.7 84.35 69.2 84.35 70.25 83.2 71.4 82 71.4 80.15 71.4 73.8 66.1 63.2 60.05 51.1 53.9 51.1 52.15 51.1 51.15 51.95
M 82.55 76.8
Q 83.35 74.7 83.35 73.75 83.35 68.4 78.15 61.05 72.2 52.65 65.45 52.65
L 64.75 52.85 64.8 53.05
Q 64.95 54.5 64.75 54.85 69 53.25 74.6 59.85 80.1 66.3 80.1 72.3 80.1 73.5 78.05 82.3 78.05 82.9 78.25 83.1
L 78.4 83.3 79.7 83.4 82.55 76.8
M 93.9 73.45
Q 93.9 62.45 88.9 55.4 84.55 49.15 77.3 47.2
L 77.05 48.75 81.9 52.75
Q 87.05 56.8 88 58.55 90.7 62.1 89.85 68.75
L 88.4 76.65
Q 88.4 82.25 90.15 82.25 91.65 82.25 92.65 80.5 93.9 78.2 93.9 73.45 Z"/>
</g>
</defs>

<g transform="matrix( 1, 0, 0, 1, -62.75,-76.85) ">
<g transform="matrix( 1, 0, 0, 1, 0,0) ">
<use xlink:href="#Parts_Heads_headColorMC_17_Layer1_0_FILL"/>
</g>
</g>

<g transform="matrix( 1, 0, 0, 1, -62.75,-76.85) ">
<g transform="matrix( 1, 0, 0, 1, 0,0) ">
<g transform="matrix( 1, 0, 0, 1, 0,0) ">
<use xlink:href="#Graphics_Symbol_785_0_Layer0_0_FILL"/>
</g>
</g>
</g>

<g transform="matrix( 1, 0, 0, 1, -62.75,-76.85) ">
<g transform="matrix( 1, 0, 0, 1, 0,0) ">
<g transform="matrix( 1, 0, 0, 1, 0,0) ">
<use xlink:href="#Graphics_Symbol_785_0_Layer0_0_FILL"/>
</g>
</g>

<g transform="matrix( 1, 0, 0, 1, 0,0) ">
<g transform="matrix( 1, 0, 0, 1, 0,0) ">
<use xlink:href="#Graphics_Symbol_831_0_Layer2_0_FILL"/>
</g>

<g transform="matrix( 1, 0, 0, 1, 0,0) ">
<use xlink:href="#Graphics_Symbol_831_0_Layer1_0_FILL"/>
</g>

<g transform="matrix( 1, 0, 0, 1, 0,0) ">
<use xlink:href="#Graphics_Symbol_831_0_Layer0_0_FILL"/>
</g>
</g>

<g id="hat1" transform="matrix( 0.983917236328125, -0.17529296875, 0.17529296875, 0.983917236328125, 45.2,78.25) ">
<g id="colorMC" transform="matrix( 0.9999847412109375, 0, 0, 0.9999847412109375, 0,0) "/>

<g id="colorMC2" transform="matrix( 1, 0, 0, 1, 0,0) "/>
</g>

<g id="hat2" transform="matrix( 0.9733734130859375, -0.2247314453125, 0.2247314453125, 0.9733734130859375, 38,60.6) ">
<g id="colorMC_FL" transform="matrix( 0.9999847412109375, 0, 0, 0.9999847412109375, 0,0) "/>

<g id="colorMC2_FL" transform="matrix( 1, 0, 0, 1, 0,0) "/>
</g>

<g id="hat3" transform="matrix( 0.96026611328125, -0.2753753662109375, 0.2753753662109375, 0.96026611328125, 26,48.4) ">
<g id="colorMC_FL_FL" transform="matrix( 0.9999847412109375, 0, 0, 0.9999847412109375, 0,0) "/>

<g id="colorMC2_FL_FL" transform="matrix( 1, 0, 0, 1, 0,0) "/>
</g>

<g id="hat4" transform="matrix( 0.944580078125, -0.3252410888671875, 0.3252410888671875, 0.944580078125, 18.85,34.5) ">
<g id="colorMC_FL_FL_FL" transform="matrix( 0.9999847412109375, 0, 0, 0.9999847412109375, 0,0) "/>

<g id="colorMC2_FL_FL_FL" transform="matrix( 1, 0, 0, 1, 0,0) "/>
</g>
</g>
</svg>
