
<svg xmlns="http://www.w3.org/2000/svg" version="1.1" xmlns:xlink="http://www.w3.org/1999/xlink" preserveAspectRatio="none" x="0px" y="0px" width="550px" height="400px" viewBox="0 0 550 400">
<defs>
<g id="Layer0_0_FILL">
<path fill="#000000" fill-opacity="0.24705882352941178" stroke="none" d="
M 85.15 41.75
Q 82.9 40.7 81.1 40.2 78 39.35 76.85 39.75 76.65 39.8 76.55 40.05 74.5 38.9 72.05 38.05 65.7 36.05 59.8 35.35 57.3 35.05 53.45 35.05 47.8 35.05 47.05 35 45.25 34.85 43.55 35
L 40.35 35.45
Q 38.65 35.75 37.25 35.7
L 37 35.4
Q 35.4 33.7 34.35 31.15 33.6 29.3 32.85 26.3 31.5 20.7 29.4 15.4
L 28.6 13.5
Q 28.55 13.45 28 11.3 27.7 10.2 27.5 9.6 27.15 8.6 26.65 8.1 26.2 7.65 25.85 8 24.65 5.85 24.05 4.9 19.7 -2 15.9 0.75 13.7 2.3 13.5 5.9 13.4 7.9 14.1 11.8 15.05 17.75 17.15 23.95 17.75 25.6 19 29.1 19.95 32.25 19.55 34.5 19.05 37.25 16.95 38.8 15.25 40 12.1 40.75 6.3 41.9 2.3 46.2 -0.1 48.7 0 50.75 0.1 51.55 0.55 52.2 0.55 52.9 0.75 53.45 1 53.95 1.35 53.9 4.2 53.55 8.65 52.65 14.55 51.45 15.95 51.2 23.1 49.9 30.65 49.8 37 49.8 45.85 50.7 50.95 51.25 61 52.4
L 73.8 53.7
Q 75.85 54.05 78.2 54.05 78.85 54.05 79.05 52.65 79.5 52.55 79.75 52.1 81.15 52.75 82.7 52.6 84.45 52.6 85.85 52.4 87.2 52.2 88.85 51.7
L 90.4 51.1
Q 91.3 50.85 91.7 50 91.95 49.3 91.7 48.65
L 92.1 48.65
Q 92.4 48.65 92.4 48.1 92.4 47.7 92.3 47.4 91.1 45.35 89.1 44.2 87.25 42.8 85.15 41.75
M 81.85 43.8
Q 81.35 45.2 81 45.8
L 79.8 48.1 79.7 47.8
Q 78.9 46.45 77.8 45.5
L 78.15 45.2 78.8 44.4 79.55 43 81.85 43.8
M 83 46.1
Q 83.3 45.25 83.45 44.25 84.55 44.65 85.1 44.95
L 86.2 45.45 85.9 45.85
Q 85.3 46.85 84.9 47.3
L 84 48.35 83.8 48.5 83 49.3
Q 82.85 49.45 82.75 49.85
L 82.5 49.85
Q 81.4 49.8 80.3 49.85
L 80.3 49.75 80.45 49.75 81.05 49.3
Q 81.65 48.7 82.15 47.8
L 83 46.1
M 90 48.45
L 90.05 48.45 86.8 49.4
Q 87.8 48.1 87.95 46.45
L 90.4 47.9 90.75 48.15 90 48.45
M 47.9 42.1
Q 47.9 40.45 47.5 38.7 50.15 38.3 52.55 38.3 52.35 40.55 52 42.1 51.8 43.15 51.4 44.2
L 51 45.3
Q 50.7 46.2 50.75 47
L 47.8 46.65 47.2 46.65
Q 47.9 44.4 47.9 42.1
M 46.6 40.45
Q 46.75 41.15 46.65 42.05 46.6 43 46.35 43.9 46.2 44.6 45.7 45.9 45.7 46 45.55 46.45
L 41.75 46.05
Q 42 44.65 42 43.45 42.1 41.45 41.9 40.05
L 41.85 39.65 42.75 39.5
Q 44.3 39.45 45.8 39.05
L 46.3 38.95 46.6 40.45
M 60 42.35
L 60 43.15 59.8 44.05 59.55 44.2 59.55 44.4
Q 59.25 45.25 58.8 46.1
L 57.8 47.75 52.3 47.15 52.65 46
Q 53.05 44.75 53.25 43.45 53.75 41.1 53.65 38.25 55.35 38.25 58.85 38.65 65.45 39.2 71.6 40.65 73.3 41.1 76.8 41.75
L 76.95 41.95
Q 77.65 42.35 78.05 42.45 77.95 42.9 77.6 43.45
L 77.5 43.7 77.4 43.85 77.15 44.45 77.05 44.9
Q 74.8 43.3 72.2 42.25 67.8 40.3 63.25 39.95 60.85 39.8 58.5 39.95 55.25 40.2 54.25 41.25 54.1 41.45 54.1 41.85 54.15 42.3 54.35 42.4 55 42.75 55.95 42.65 56.5 42.65 57.55 42.45
L 60 42.35
M 59.7 47.9
Q 60.25 47.25 60.6 46.4 61.1 45.25 61.3 44.2 61.45 43.4 61.45 42.5
L 61.45 42.45
Q 64.65 42.7 67.55 43.55
L 67.45 43.8
Q 67.45 44.25 67.35 44.45
L 67.15 45.35 67.15 45.4 67.05 45.75 66.7 46.5
Q 66.15 47.55 65.1 48.5
L 59.7 47.9
M 68.6 44.1
L 68.55 43.85
Q 70.75 44.55 73.2 45.85
L 73.1 45.95 73.15 45.95 72.85 47.05 71.9 49.2 67.3 48.75
Q 67.75 48.05 67.95 47.5 68.55 46.15 68.6 44.95 68.65 44.55 68.6 44.1
M 74.45 46.65
L 74.7 46.75
Q 75.9 47.55 77.6 48.85 77.8 49.05 78.45 49.55 79 50.05 79 50.45 79 50.68046875 78.85 50.8 78.6310546875 50.197265625 78.3 50.15 75.9 49.55 73.45 49.4
L 74.05 48.15 74.45 46.65
M 20.65 6
Q 22.15 7.35 23.3 9.4
L 22.65 9.85
Q 21.5 10.55 20.65 10.8 19.4 11.15 18.5 11.2 17.35 11.45 16.3 11.2
L 16.05 9.8
Q 15.7 8 15.7 7.7 15.6 6.45 16.3 5.8 17.15 4.95 18.5 5.1 19.65 5.2 20.65 6
M 26.05 14.25
Q 24.3 15.65 22 16.25 20.8 16.5 19.3 16.6 18.6634765625 16.6 17.5 16.7
L 16.6 12.85
Q 17.45 13.2 18.5 13.45 19.7 13.6 20.85 13.3 23.15 12.9 24.4 11.25
L 26.05 14.25
M 27.05 17.35
L 29 23.9
Q 28.25 24.5 27.6 24.75
L 24.85 25.5
Q 24.15 25.6 22.75 25.6
L 22.5 25.6 20.1 25.05 18.3 19.65 18.35 19.7
Q 20.3 20.15 22.15 19.8 23.75 19.5 25 18.85 26.05 18.35 27.05 17.35
M 7.15 46.25
L 6.75 45.9 7.5 45.5
Q 9.85 44.45 12.5 44
L 13.2 45
Q 13.75 45.9 14.05 46.65
L 14.05 46.8 14.15 47.15
Q 11.85 47.55 8.3 48.45
L 8.25 48.45 8 47.7
Q 7.5 46.7 7.15 46.25
M 6.85 48.65
L 6.9 48.8
Q 4.3 49.45 1.45 50.45
L 1.9 49.85
Q 2.55 49.05 3.6 48.05 4.65 47.15 5.5 46.65
L 5.65 46.95 6.6 48.2 6.75 48.45 6.85 48.55 6.85 48.65
M 16.55 42.65
Q 18.5 41.6 19.75 39.75 21.05 37.85 21.3 35.65 21.65 36 22.05 36.2 24.6 37.6 27.45 37.35 29.4 37.1 30.9 36.35 31.75 36 32.4 35.3 33.55 38.25 34.9 38.15 36.55 39.95 39.05 39.8
L 40.3 39.8 40.35 40.25 40.4 42.65 40.3 43.75 40.3 44.15 39.95 45.9
Q 35.05 45.5 32.55 45.45 24.85 45.3 17.55 46.55
L 15.7 46.85
Q 15.45 45.65 15.05 44.7
L 14.4 43.55
Q 15.45 43.2 16.55 42.65
M 31.55 32.7
L 31.15 33 29.85 33.65
Q 28.35 34.35 26.75 34.4 25.15 34.55 23.6 34.25
L 21.45 33.65
Q 21.55 30.65 20.85 27.8
L 21.3 27.85
Q 22.3 28.3 23.5 28.35 24.7 28.45 25.7 28.15
L 27.15 27.9
Q 28.65 27.5 29.7 26.45
L 31.55 32.7 Z"/>
</g>
</defs>

<g transform="matrix( 1, 0, 0, 1, 0,0) ">
<use xlink:href="#Layer0_0_FILL"/>
</g>
</svg>
