
<svg xmlns="http://www.w3.org/2000/svg" version="1.1" xmlns:xlink="http://www.w3.org/1999/xlink" preserveAspectRatio="none" x="0px" y="0px" width="550px" height="400px" viewBox="0 0 550 400">
<defs>
<linearGradient id="Gradient_1" gradientUnits="userSpaceOnUse" x1="649.95" y1="28.6" x2="649.95" y2="5.5" spreadMethod="pad">
<stop  offset="0%" stop-color="#5C8E1F"/>

<stop  offset="100%" stop-color="#82A97C"/>
</linearGradient>

<g id="Layer0_0_FILL">
<path fill="#789E3F" stroke="none" d="
M 138.1 1.95
Q 112.25 -0.6 86.2 0.2
L 65.4 1.35
Q 105.05 5.85 145.3 6.6
L 219.85 7.85 138.1 1.95
M 408.25 5.75
Q 425.35 4.75 442.6 4.8 411.55 -0.05 379.95 1.15
L 370.95 1.55 373 0.15
Q 345.65 5.4 317.55 7.8
L 317.55 8.1
Q 362.95 7.3 408.25 5.75
M 602.25 7.65
L 602.25 6.9 516.4 8.5 516.4 8.9
Q 542.5 10.2 568.7 9.3
L 602.25 7.65
M 705.25 4.1
L 695.7 2.95
Q 735.55 5.25 775.35 0.1 734.95 -0.05 695.65 2.45
L 624.55 6.3 624.55 6.8
Q 652.5 5.9 680.4 5.65
L 705.25 4.1
M 1084.05 11.5
L 1084.05 10.95 965.15 4.25
Q 944.9 3.25 924.65 3.15 886.3 3 848.1 2.15 811.6 1.35 775.35 0.1 818.5 6.4 862.1 6.05 897.4 5.75 932.8 6.4
L 1084.05 11.5
M 1177.8 6.2
Q 1213.2 1.3 1248.45 2.5 1188.4 -2.2 1128.65 8.05 1112.05 10.8 1095.25 11.05
L 1095.25 11.65
Q 1136.65 12 1177.8 6.2 Z"/>

<path fill="#4B8525" stroke="none" d="
M 317.55 7.8
L 307.05 8.55 317.55 8.1 317.55 7.8
M 516.4 8.5
L 511.1 8.6 516.35 8.9 516.4 8.9 516.4 8.5
M 624.55 6.8
L 624.55 6.3 602.25 6.9 602.25 7.65 624.55 6.8
M 1095.25 11.65
L 1095.25 11.05 1084.05 10.95 1084.05 11.5 1095.25 11.65
M 1190.4 61.4
L 1188.15 61.45 1189.95 61.45 1190.4 61.4 Z"/>

<path fill="url(#Gradient_1)" stroke="none" d="
M 1246.55 61.45
Q 1259.65 59.05 1271.3 53.35
L 1271.3 4.95 1248.45 2.5
Q 1213.2 1.3 1177.8 6.2 1136.65 12 1095.25 11.65
L 1084.05 11.5 932.8 6.4
Q 897.4 5.75 862.1 6.05 818.5 6.4 775.35 0.1 735.55 5.25 695.7 2.95
L 705.25 4.1 680.4 5.65
Q 652.5 5.9 624.55 6.8
L 602.25 7.65 568.7 9.3
Q 542.5 10.2 516.4 8.9
L 516.35 8.9 511.1 8.6 442.6 4.8
Q 425.35 4.75 408.25 5.75 362.95 7.3 317.55 8.1
L 307.05 8.55
Q 276.8 10.55 245.6 9.25
L 219.85 7.85 145.3 6.6
Q 105.05 5.85 65.4 1.35
L 63.05 1.05
Q 46.8 -0.95 35.75 1.5 32.5 2.2 29.75 3.3
L 29.75 61.45 1188.15 61.45 1190.4 61.4 1246.55 61.45 Z"/>
</g>
</defs>

<g transform="matrix( 1, 0, 0, 1, 0,0) ">
<use xlink:href="#Layer0_0_FILL"/>
</g>
</svg>
