
<svg xmlns="http://www.w3.org/2000/svg" version="1.1" xmlns:xlink="http://www.w3.org/1999/xlink" preserveAspectRatio="none" x="0px" y="0px" width="550px" height="400px" viewBox="0 0 550 400">
<defs>
<g id="Layer0_0_FILL">
<path fill="#F9E2AC" stroke="none" d="
M 1.4 41.4
Q 1.65 41.8 2.15 41.6
L 2.3 41.6
Q 2.75 41.35 2.85 40.25 2.85 39.4 2.65 38.7 2.3 36.75 -0.55 35 -2.5 33.7 -5 33.25 -7.25 32.7 -9.5 33.15 -10.45 33.45 -12.4 33.75
L -13.1 33.85
Q -13.2 33.1 -13.85 32.65 -14.55 32.05 -14.9 31.9 -15.8 31.35 -17.55 30.85 -20.55 30 -23.2 30.4 -26.15 30.9 -28.9 32.3 -30.9 33.35 -31.45 33.65 -32.85 33.25 -33.75 33.4 -35.65 33.5 -36.9 33.8 -40.6 34.7 -42.95 36.5 -45.5 38.4 -47.2 41.85 -47.85 43.65 -48.55 44.45
L -48.65 44.45
Q -52.55 44.6 -55.9 46.4 -59.35 48.35 -61.25 51.65 -63.05 55.2 -63.35 58.75 -63.75 59.95 -63.75 60.55 -63.85 61.2 -63 62.85
L -63 63.8
Q -69.15 67.7 -72.6 72.4 -74.95 75.7 -76.05 78.05 -76.1 78.2 -76.85 79.7 -77.25 80.75 -77.45 81.4 -78.4 83.55 -78.15 85.25 -78.15 85.45 -77.95 85.8 -77.7 86.25 -77.45 86.25
L -76.7 87.15
Q -75.7 88.45 -74.85 89 -73.85 89.55 -72.4 89.65 -72.15 89.65 -71.6 89.05 -71 88.5 -70.95 88.3 -70.7 87.65 -70.7 87.1 -70.7 86.4 -70.8 86.15
L -70.55 85.95
Q -70.3 85.65 -70.2 85.05 -69.8 84.45 -69.95 83.8 -69.95 83.25 -70.3 82.75
L -70.05 82.3
Q -69.65 82.3 -69.55 82
L -66.75 78.15
Q -66.2 77.15 -66.45 76 -64.1 72.8 -61.05 70.6 -60.35 70.15 -60.5 68.35 -60.55 67.45 -61.05 66.75
L -60.7 64.6 -60.7 64.5
Q -60.1 63.35 -60 61.95 -59.75 60.7 -59.2 59.6 -58.05 57.1 -56.25 55.3 -54.55 53.35 -51.9 51.45 -50.8 50.65 -47.1 48.2 -46.5 47.75 -46.5 46.9
L -45.85 45.7
Q -44.45 43.1 -42 41.15 -39.55 39.35 -36.7 38.6 -34.95 38.2 -33.75 38.15 -33.3 38.15 -32.15 38.25 -31.2 38.25 -30.7 37.85 -30.45 37.6 -30.3 37.2
L -28.8 36.7 -28.6 37.1 -28.2 37.5
Q -27.65 37.85 -27.4 37.95
L -26.4 38.15 -26 38.15
Q -25.55 38.05 -25.4 37.95 -25.15 37.65 -25.05 37.3 -24.85 36.75 -24.85 36.2
L -24.95 35.45
Q -23.7 35.15 -22.6 35 -18.85 34.45 -15.45 36.15 -15.4 36.5 -15.1 36.95 -14.35 38 -13.05 38.1 -12.1 38.25 -10.55 37.9 -8.45 37.4 -5.95 37.55 -1.5 38.05 1.4 41.4 Z"/>
</g>
</defs>

<g transform="matrix( 1, 0, 0, 1, 0,0) ">
<use xlink:href="#Layer0_0_FILL"/>
</g>
</svg>
