
<svg xmlns="http://www.w3.org/2000/svg" version="1.1" xmlns:xlink="http://www.w3.org/1999/xlink" preserveAspectRatio="none" x="0px" y="0px" width="550px" height="400px" viewBox="0 0 550 400">
<defs>
<g id="Layer0_0_FILL">
<path fill="#534424" stroke="none" d="
M 66.45 12.45
L 66.05 11.3 65.1 9.35 65.3 10.8
Q 64.5 10.15 63.5 10.15 60.4 10.7 59.1 11.2 58.2 11.9 57.45 12.85
L 56.85 13.8 56.95 14.85 57.25 15.05 58.1 15.2 59.9 14
Q 61.75 19 65.7 39 70.05 61.2 70.05 69.95
L 69.25 94.6 70.45 99.45
Q 71.6 104 71.6 106 71.6 120.7 64.35 125.8 58.2 130.15 41.9 130.15 19.05 130.15 11.65 124.05 8.65 121.65 7.3 117.6 6.65 115.7 5.7 109.75 5.05 105.45 4.3 93.55 3.45 79.2 3.45 66.6 3.45 64.7 3.95 60.25
L 5.3 47.05 6.45 29.75
Q 6.8 25.25 9.55 22.9 12.2 20.6 12.2 19.3
L 11.85 18.3 10.85 16.7
Q 9.5 17.05 7.5 19.5 4.6 22.9 2.8 28.25 -0.8 38.75 -1.5 50.3
L -1.55 66.35
Q -1.55 78.55 -0.55 93.05
L 0.45 107.6 -0.5 118.3
Q -0.5 124 8 128.75 18.95 134.9 38.75 134.9 63.6 134.9 72.25 125.1 77.85 118.8 77.85 104.4 77.85 92.9 77.2 89.25 76 82.2 74.45 50.45 74.3 47.25 70.35 30.8 66.45 14.7 66.45 12.45 Z"/>
</g>
</defs>

<g transform="matrix( 1, 0, 0, 1, 0,0) ">
<use xlink:href="#Layer0_0_FILL"/>
</g>
</svg>
