
<svg xmlns="http://www.w3.org/2000/svg" version="1.1" xmlns:xlink="http://www.w3.org/1999/xlink" preserveAspectRatio="none" x="0px" y="0px" width="550px" height="400px" viewBox="0 0 550 400">
<defs>
<g id="Layer0_0_FILL">
<path fill="#000000" stroke="none" d="
M 29.8 -7.95
Q 27 -7.95 16 -10.75 7.15 -13.05 -14.45 -19.1 -10.95 -14 -5.2 -6.65 -0.55 -0.7 1.4 2.6 7 12.2 10.8 35.35
L 12.75 33.7
Q 13.75 32.55 13.75 31.85
L 13.35 28.4 12.55 30.85
Q 12.4 21.5 5.2 5.05 -2.1 -11.75 -8.1 -15.55 25.3 -5.5 36.9 -5.55 48.5 -5.65 56 -8.45
L 71.05 -14.2 71 -13.15
Q 70.35 -5.1 62.5 56.55
L 62.2 52.75 60.75 63.85
Q 60.75 70.2 62.25 72.5
L 64.4 73.95 64.35 73.1
Q 64.9 61.25 69.4 30.45 73.5 2.25 73.5 -10.25 73.5 -12.45 72.35 -13.7 71.3 -14.9 71.35 -15.2 64.8 -14.75 50.1 -11.2 36.6 -7.95 29.8 -7.95 Z"/>
</g>
</defs>

<g transform="matrix( 1, 0, 0, 1, 0,0) ">
<use xlink:href="#Layer0_0_FILL"/>
</g>
</svg>
