
<svg xmlns="http://www.w3.org/2000/svg" version="1.1" xmlns:xlink="http://www.w3.org/1999/xlink" preserveAspectRatio="none" x="0px" y="0px" width="550px" height="400px" viewBox="0 0 550 400">
<defs>
<g id="Layer0_0_FILL">
<path fill="#FF0000" stroke="none" d="
M 14.7 -0.4
Q 10.9 -0.4 7.6 -0.05 4.35 0.25 1.75 0.9 -0.75 1.5 -2.6 2.45 -4.55 3.5 -5.55 4.7 -6.65 6 -7 7.8 -7.45 9.65 -7.1 12.4 -6.85 14.3 -6.15 16.85 -5.2 15.05 -4.4 13.9 -3.5 12.5 -3.05 12.55 -2.45 12.65 -2.55 14.4 -2.6 16.1 -3.45 18.8 -4.85 23.2 -5.05 24.1
L -5.1 24.2
Q -5.3 25.5 -5.25 26 -5.15 26.75 -4.85 27.25 -4.55 27.75 -3.6 28.35 -2.75 24.4 -2.1 24.45 -1.3 24.45 -0.9 29.75 0.15 30.25 0.15 30.65 0.05 31 -0.85 31.3 -0.5 39.35 -1.15 50.2 -1.6 57.95 -2.35 64.3 -3.1 70.55 -3.95 73.5 2.5 73.05 14.1 73.15
L 22.85 73.35 18 72.45 17.9 72.45
Q 11.2 71.25 6.9 70.95 4.35 70.85 3.55 70.85 2.25 70.75 2.2 70.6 2.2 70.3 3.45 70 4.85 69.6 6.9 69.45 11.5 69.05 18.3 70.3
L 18.4 70.3
Q 23.45 71.25 29.5 72.9 32.35 73.6 33.55 74.1
L 34.35 74.2
Q 34.65 73.9 34.8 73.85 33.65 68.7 32.85 64.65 31.3 56.95 31.35 50.75 31.45 43.2 33.2 35.4 33.85 32.6 35.5 27.1
L 34.5 26.65
Q 32.55 25.9 30.7 25.3 25.65 23.7 21.05 23.25 19.15 23.15 18.25 23.1 13.9 23.05 10.4 24 6.55 25 2.9 27.45 1.35 28.5 0.85 28.85 0.15 29.35 0 29.25 -0.15 29.1 0.3 28.3 0.85 27.35 1.95 26.25 5 23.15 9.65 21.55 13.7 20.25 18.3 20.35 19.35 20.35 21.35 20.5 26.6 21.1 31.45 23.3 33.6 24.25 35.2 25.35 35.6 25.65 36.3 26.2 40.25 24.95 45.7 25.9 48.75 26.45 53.3 28.3 58.5 30.5 60.65 31.1 65.25 32.45 70.9 32.7 73.55 32.75 74.85 32.7 76.2 32.65 77.9 32.45 80.7 31.9 82.15 31.1 83.6 30.2 84.4 28.95 85.2 27.8 85.75 25.65 86.2 23.75 86.55 20.4 86.95 16.75 87.1 15.4 87.8 10.1 89.15 6 90.2 2.65 90.9 2.15
L 91 1.75
Q 89.45 2.3 85.9 2.75 81.7 3.2 76.4 3.25 69.4 3.3 58.55 2.55 53.7 2.2 39.95 1
L 33.4 0.5
Q 26.55 0 22.4 -0.2 17.9 -0.4 14.7 -0.4 Z"/>
</g>

<g id="Layer0_1_MEMBER_0_FILL">
<path fill="#000000" stroke="none" d="
M 202.15 9.8
Q 202.1 9.3 195.75 8.9 182.3 8.05 178.55 7.75 169.2 7 151.1 5 128.2 2.55 122.2 1.95
L 111.9 1.05
Q 101.95 0.3 94.45 0.1
L 88.15 0
Q 78.45 0 70.35 1.05 64.85 1.85 60.45 3.15 55.7 4.55 52.4 6.65 48.8 8.8 46.55 12 44.3 15.2 43.9 19.25 43.45 23.35 44.85 27.9 46.35 32.6 48.6 35.7 39.25 43.2 31.35 51.95 12.1 72.95 4.9 96.45 -2 118.9 0.8 148.35 2.45 165.8 13.2 186.35 24.3 207.55 38.65 219.15 49.6 228 65.45 234.2 74.9 237.95 96 244.6 102.65 246.85 113.5 246.25 119.7 245.9 131.4 244.5 138.85 243.9 146.2 241.95 152.8 240.25 160.35 237.15 162.3 236.35 169.85 234.75 175.75 233.5 178.7 231.25 186.8 225.1 190.7 222.3 192.2 221.2 194.35 219.4 196.3 217.75 199.3 214.85 202.95 211.3 204.1 210.25 210.8 205.15 216.15 197.3 221.35 189.55 223.75 181.3 227.05 174.85 228.5 169.7 228.85 168.3 229.8 166.15 230.9 163.45 231.2 162.65 235.95 156 235 140.6 234.35 131.2 229.6 103.45 228.95 100.65 228.8 100.2 228.8 100.05 227.7 97.05 224.95 89.1 223 85.25 222.1 83.5 220.6 79.5 219.25 75.9 218.05 73.8 216.85 71.75 214.25 68.25 210.9 63.7 210.3 62.85 209.95 62.35 206.8 57.25 204.65 53.75 203.05 51.85 201.75 50.3 200.45 48.1 199 45.6 198.25 44.35 198.55 41.55 198.75 37.75 198.9 33.75 198.95 32.2 199.35 25.15 200.55 16.85 201.4 11.15 201.1 11.05 200.3 10.75 198.4 16.3 196.15 22.95 195 31.8 194.75 33.9 194.15 39.55 193.6 44.8 192.85 47.7 192.05 51.05 190.8 52.85 189.55 54.85 187.25 56.2 185.05 57.5 180.65 58.3 178.05 58.65 175.9 58.7 173.85 58.8 169.75 58.7 160.95 58.3 153.8 56.2 150.45 55.25 142.35 51.85 135.25 48.95 130.5 48.15 122 46.65 115.9 48.6 114.8 47.7 114.15 47.3 111.65 45.55 108.35 44.1 100.75 40.65 92.55 39.75 89.45 39.45 87.8 39.45 80.7 39.3 74.4 41.35 67.15 43.8 62.35 48.7 60.7 50.4 59.8 51.85 59.1 53.1 59.35 53.3 59.55 53.5 60.7 52.7 61.45 52.2 63.85 50.55 69.55 46.75 75.5 45.15 80.95 43.7 87.75 43.75 89.2 43.8 92.1 44 99.25 44.7 107.15 47.15 110.05 48.1 113.05 49.3
L 114.65 50
Q 111.75 59.5 110.85 63.3 107.9 75.9 107.8 87.55 107.7 97.15 110.3 108.85 111.65 114.95 113.55 122.8 113.3 122.9 112.8 123.3
L 111.55 123.15
Q 109.75 122.4 105.3 121.3 95.85 118.75 88 117.3
L 87.85 117.3
Q 77.25 115.35 70.05 115.95 66.9 116.2 64.7 116.8 62.75 117.3 62.8 117.7 62.85 118 64.85 118.1 66.1 118.15 70.05 118.3 76.8 118.75 87.25 120.65
L 87.4 120.65 94.95 122.05 81.3 121.7
Q 63.2 121.55 53.2 122.25 54.5 117.65 55.65 107.9 56.85 98.05 57.55 85.95 58.55 69.05 58.05 56.55 59.45 56.1 59.55 55.55 59.6 54.9 57.9 54.1 57.35 45.9 56.1 45.85 55.05 45.8 53.75 51.95 52.25 51 51.75 50.2 51.3 49.45 51.15 48.3 51.05 47.5 51.4 45.45
L 51.45 45.3
Q 51.75 43.9 53.95 37.1 55.25 32.85 55.4 30.25 55.5 27.5 54.55 27.35 53.85 27.25 52.5 29.4 51.25 31.2 49.75 34 48.7 30.05 48.3 27.1 47.7 22.85 48.4 19.95 49 17.1 50.7 15.1 52.25 13.25 55.25 11.6 58.15 10.1 62.1 9.15 66.1 8.15 71.15 7.7 80.35 6.9 94.2 7.45 100.55 7.75 111.35 8.55
L 121.55 9.35
Q 143 11.25 150.5 11.75 167.4 12.9 178.35 12.85 188.65 12.75 195.9 11.65 202.25 10.7 202.15 9.8
M 196.9 51.4
Q 198.7 53.15 199.9 54.5 204.7 59.95 206.35 62.65 208.7 66.7 210.85 69.55 212.45 71.65 213.6 73.85 215.1 76.9 218.05 83.1 218.8 84.55 220.3 87.35 221.55 89.75 222.1 91.75 222.55 93.2 223.95 98.7 225.05 102.95 225.95 105.55 226.45 107.05 226.8 109.15 227 110.35 227.4 112.75 230.7 131.85 225.2 155.2 225 155.95 224.75 158.05 224.6 159.75 224.1 160.75 223.2 162.5 222.5 165.75 222.2 167.1 221.05 169.45 219.75 172 219.4 173.15 219.1 174.05 218.15 175.8 217.2 177.55 216.9 178.5 216 190.55 207.7 200.55 200 209.75 190.5 212.5 185 217.85 180.45 220.8 173.45 225.35 172.1 226.2 167.25 229.1 163.3 230.8 148.7 237.05 132.6 239.7 128.2 240.45 123.6 240.6 115.2 241.45 110.95 241.6 103.6 241.85 99.05 239.5 91.8 235.7 81.05 232.4 68.9 228.95 63 227.1 53.25 224.15 44.75 217.05 36.4 210.05 31.4 200.9 8.15 158.05 4.3 140.65 2.35 131.6 3.4 123.1 4.2 116.9 7.7 105.4 12.5 89.7 22.9 74.8 31.45 62.55 45.35 48.9
L 45.4 49.15
Q 45.85 51.85 47.65 53.7 49.7 55.85 52.45 56.4
L 52.95 56.5
Q 51.1 68.05 50.05 85.5 49.35 97.8 49.4 108 49.5 117.9 50.25 122.5 46.5 122.9 46.5 123.4 46.5 123.8 48.9 124.2 46.9 126.8 46.45 131.6 46.15 134.75 47.35 137.5 48 139 49.35 140.95 50.15 142.35 50.65 141.4 51.75 139.3 53.55 128.5 54 125.9 53.7 124.75
L 60.15 125.2
Q 58.95 126.05 58.3 128.55 57.65 131.05 57.85 134.25 58.1 138.05 59.35 140.65 60.65 143.25 62.2 143.15 63.6 143.05 63.9 140.2 64.1 138.2 63.8 133.6 63.65 127 63.4 125.4 71.05 125.7 72.45 125.7 71.4 128.45 71.3 132.05 71.25 135.85 72.35 138.5 73.4 141.2 74.95 141.2 76.3 141.25 76.5 138.4 76.55 134.3 76.55 131.75 76.65 126.3 76.65 125.8
L 85.8 125.95
Q 85.65 126.85 86.05 129.2 86.65 133.05 86.75 133.85 86.8 134.4 86.3 137.5 85.95 140.75 86.7 142.55 87.4 144.2 89.75 140.5 92.15 136.7 91.7 133.25 91.05 128.3 89.05 125.95 94.3 125.95 98.8 125.8 97.35 128.65 97.6 133.2 97.8 136.9 99.05 139.5 100.25 142.1 101.8 142 103.35 141.95 104.35 139.25 105.3 136.55 105.1 132.8 104.9 128.4 103.2 125.7 108.95 125.45 111.55 125.2 110.05 128.35 109.75 133.1 109.45 137.55 110.35 140.75 111.25 143.95 112.8 144.05 114.35 144.15 115.65 141.1 116.95 138.05 117.25 133.6 117.65 127.45 116 124.35
L 116.05 124.2
Q 116.05 124.1 115.8 124
L 115.45 123.45
Q 115.95 120.7 115 109.95 113.9 96.6 113.95 88.35 114 86.1 115.65 81.55 117.35 77.05 117.3 75.15
L 117.6 77.85 117.1 65.25
Q 117.85 50.9 126.75 50.8
L 127.8 51.05 134.9 53.3 140.55 55.85
Q 147.75 59.4 152.35 60.95 155.8 62.05 159.2 62.7
L 158.4 64 153 69.2 156.8 84.45 164.8 87.75 178.85 80.6 181 65.9 179 63.8
Q 179.8 63.75 181.5 63.5 186.3 62.75 189.85 60.7 193.2 58.75 195.1 55.5 196.15 53.7 196.9 51.4
M 192.6 170.35
L 186.05 163.45 176.8 165.5 173.1 163.55 170 168.45 164.6 173.6 168.45 188.9 176.4 192.2 190.45 185.05 192.6 170.35
M 195.25 113.25
L 188.7 106.35 179.45 108.4 175.75 106.45 172.65 111.4 167.25 116.55 171.1 131.8 179.05 135.1 193.1 127.95 195.25 113.25 Z"/>
</g>
</defs>

<g transform="matrix( 1, 0, 0, 1, 0,0) ">
<use xlink:href="#Layer0_0_FILL"/>
</g>

<g transform="matrix( 0.64208984375, 0, 0, 0.6421356201171875, -38.1,-5) ">
<use xlink:href="#Layer0_1_MEMBER_0_FILL"/>
</g>
</svg>
