
<svg xmlns="http://www.w3.org/2000/svg" version="1.1" xmlns:xlink="http://www.w3.org/1999/xlink" preserveAspectRatio="none" x="0px" y="0px" width="550px" height="400px" viewBox="0 0 550 400">
<defs>
<g id="Layer0_0_FILL">
<path fill="#FFFF66" stroke="none" d="
M 83.25 59.5
Q 82.3 55.05 81.2 50.7 80.9 49.75 80.55 48.65 79.45 45.5 79.4 42.1 77.55 38.45 75.25 35 74.7 34.2 74.5 33.4 73.85 30.85 71.75 29.1 67 25.2 60.35 27.15 54.7 28.2 50.75 32.45 45.2 38.4 40.3 45.1 36.1 50.8 33.75 57.2 34 64.15 32.8 70.9 32.2 74.15 32.2 77.6 32.3 86.45 32.65 95.3 32.75 99.7 34.3 103.7 35 105.5 35.45 107.35 37.35 115.8 41.75 123.25 42.2 124 42.4 124.75 42.4 124.95 42.45 125.15 44.3 127.2 46.45 129.05 54.85 136.3 61.45 128.65 69.95 126.7 74.15 118.85 84.55 99 86.15 76.8 86.2 76.1 86.2 75.55 85.4 70 84.3 64.5 83.8 62.05 83.25 59.5
M -18.4 73.2
Q -18.5 73.3 -18.55 73.35
L -18.65 73.4
Q -18.8 73.5 -18.95 73.6 -19 73.6 -19.05 73.7 -18.95 73.7 -18.9 73.7 -18.6 73.55 -18.35 73.35 -18.25 73.3 -18.25 73.2
L -18.4 73.2
M -16.6 30.35
Q -27.5 27.8 -36.15 21.7 -38.3 20.2 -40.9 19 -46.25 16.7 -50.7 13.1 -52.55 11.6 -53.8 9.7 -56.7 7.95 -59.6 6.05 -60.4 5.45 -60.8 4.8 -60.95 4.85 -61.1 4.85 -61.6 5.8 -62.2 6.65 -65.25 10.65 -66.9 15.25 -68.25 19.1 -69.25 22.8 -69.25 22.85 -69.25 22.9 -69.65 24 -69.95 25.05 -70.2 26 -70.5 26.85 -70.75 27.5 -70.8 28.15
L -70.8 28.25
Q -71.3 28.3 -71.75 28.3 -72 29.5 -71.95 30.75 -71.95 31.55 -72.05 32.4
L -72.05 32.45
Q -72.45 32.45 -72.8 32.45 -73.5 38.8 -74.4 44.95 -74.9 47.85 -75.25 50.75 -76.6 62.4 -76.15 74.3 -76.05 77.7 -75.6 81 -75.5 81.2 -75.4 81.4 -75.45 81.6 -75.5 81.7 -75.4 82.4 -75.3 83.1 -75.15 83.9 -74.5 84.4 -74.5 84.5 -74.5 84.55 -74.45 85.2 -74.15 85.75 -73.85 86.3 -73.4 86.8 -73.35 86.9 -73.25 86.9 -73.35 87.15 -73.4 87.5
L -73.55 87.9 -73.7 88.8
Q -73.9 89.9 -73.75 90.4 -73.6 91.05 -73.05 91.5 -72.55 91.9 -71.9 91.95 -71.25 91.95 -70.7 91.55 -70.1 91.15 -69.9 90.55
L -69.75 89.7
Q -68.9 89.45 -68.25 88.65 -66.85 86.95 -65.25 85.5 -65.25 85.2 -65.25 84.9 -65.25 84.55 -65.25 84.25 -63.5 82.75 -62 81.1 -60.8 79.7 -59.15 79.2 -57.05 78.55 -54.95 78.05
L -54.95 78
Q -54.8 77.6 -53.95 77.4 -50.4 76.7 -46.8 76.25 -46.75 76.25 -46.7 76.25 -46.6 76.25 -46.5 76.25 -43.75 75.9 -40.95 75.75 -35.8 74.9 -31.65 77.15 -30.8 77.6 -29.9 78.1 -29.85 78.1 -29.8 78.15 -29.4 78.5 -28.9 78.6 -28.7 78.7 -28.5 78.8 -28.35 79 -27.95 79.4 -27.35 79.95 -26.1 81
L -25.4 81.7
Q -24.6 82.35 -23.55 82.1 -23.1 82.05 -22.8 81.8 -22.7 81.85 -22.6 81.9 -22.4 81.8 -22.2 81.7 -22.2 81.65 -22.2 81.6 -22.2 81.3 -22.15 81.05 -22.15 81 -22.15 80.95 -21.9 80.3 -22.05 79.7 -22 79.15 -21.85 78.6 -21.6 77.3 -21.2 76 -21 74.95 -20.95 73.8 -20.9 72.45 -20.25 71.5 -20.15 71.4 -20.15 71.15 -20.05 71.1 -20.05 71.05 -20 71.05 -19.9 70.95
L -19.8 70.85 -19.8 70.8
Q -19.8 70.65 -19.8 70.55
L -18.9 69.7
Q -18.2 69.2 -18 68.85 -17.95 68.8 -17.9 68.75 -17.8 68.6 -17.75 68.55 -14 67.1 -10.65 64.75 -9.35 63.8 -7.7 63.3 -5.4 62.4 -3.15 61.35 -2.45 61 -1.6 60.75 6.05 58.65 13.75 56.55 15.5 56.6 17.3 56.65
L 17.3 56.7
Q 17.3 56.8 17.3 56.85 17.3 57 17.3 57.25 20.5 54.05 21.15 48.55 21.55 44.85 22.8 41.45 23.3 40.1 23.4 38.95 23.55 38.8 23.75 38.65
L 24.15 37.9
Q 24.5 37.55 24.6 37.35
L 24.75 37 24.9 36.5 24.95 36.4
Q 25 36.2 24.95 36
L 25 35.9
Q 25 35.3 24.75 34.9 24.15 33.8 23 33.8 22.1 33.8 21.6 34.4 21.5 34.4 21.45 34.45 21.15 34.3 20.9 34.05 18.55 34.5 16 34.65 2.55 35.45 -10.1 32 -13.4 31.15 -16.6 30.35
M -41.15 -4.15
Q -41.25 -2.95 -41.35 -1.7 -41.85 2.1 -43.05 5.55 -43.65 7.3 -44.2 9.15 -43.05 9.5 -41.95 10.1 -37.2 12.55 -32.1 15.2 -30.6 15.95 -29.05 16.55 -25.9 17.7 -23.45 19.85 -23.45 19.9 -23.45 19.95 -23.45 20.15 -23.45 20.4 -23.45 20.5 -23.45 20.55 -17 22.3 -11 24.95 1.05 30.1 14.3 30.45 16.3 30.5 18.2 30.9 18.55 30.8 18.95 30.7 22.9 29.75 26.9 29.8 26.9 29.85 26.9 29.9 26.9 30.15 26.9 30.45 28.1 29.05 28.25 26.4 28.25 26.3 28.25 26.2 28.55 26.2 28.8 26.15 29.35 25.95 29.6 25.45 30.2 24.1 28.75 23.8 28.6 23.8 28.4 23.85 27.8 23.9 27.35 24.25 24.55 22.05 21.15 20.65 19.7 20.55 18.35 20.15 16.5 19.55 14.6 18.95 14 18.75 13.3 18.75 13.25 18.7 13.15 18.6 13.1 18.55 13.05 18.45 -7.5 13.7 -25.8 3.05 -32.65 -0.95 -39.4 -4.6 -40.4 -4.45 -41.15 -4.15 Z"/>
</g>
</defs>

<g transform="matrix( 1, 0, 0, 1, 0,0) ">
<use xlink:href="#Layer0_0_FILL"/>
</g>
</svg>
