
<svg xmlns="http://www.w3.org/2000/svg" version="1.1" xmlns:xlink="http://www.w3.org/1999/xlink" preserveAspectRatio="none" x="0px" y="0px" width="550px" height="400px" viewBox="0 0 550 400">
<defs>
<g id="Layer0_0_FILL">
<path fill="#000000" stroke="none" d="
M 57.05 5.75
Q 56.15 5.75 52.85 2.9 49.55 0.05 47.3 0.05 30.3 0.05 22.9 6.55
L 17.95 10.95 13.85 16.95
Q 10.65 21.9 10.05 23.85 9.5 25.85 10.65 23.2
L 6.35 35.05
Q 0.85 49.85 -0.35 69.9 -1.5 89.95 0.65 137.2
L 1.1 138.1 1.95 138.35
Q 3.95 138.35 9.65 140.3
L 17.7 142.9 50.9 143.05
Q 57.35 140.7 60.45 139.15 63.9 137.3 65.1 135.5
L 66.3 135.1
Q 65.85 123.4 66.05 113
L 66.4 73.45
Q 66.6 44.3 63.5 31.55
L 57.05 5.75
M 41.45 17.85
L 40.85 18.1 40.4 18 40.4 18.15 39.75 20.45
Q 39.2 22.7 39.2 24.25 39.2 24.65 39.55 25.15
L 40 27.35 34.25 23.45
Q 30.95 20.75 30.7 20.75 29.4 20.75 27.1 16.45
L 23.55 10.2 26.85 7.3
Q 27.35 6.8 28.65 6.8
L 41.45 17.85
M 49.35 18.55
L 49.1 18.1 57.55 9
Q 59.2 19.8 58.75 20.35
L 51.8 26.05
Q 51.95 25.15 51.1 22.4
L 49.35 18.55
M 58.55 23.2
Q 59.4 22.8 59.5 24.35
L 56.4 30.9
Q 55.45 32.75 51.8 41.8
L 51.35 42.85 48.35 34.15 50.6 30.1
Q 51.1 28.8 51.7 28.65
L 57.7 24 58.55 23.2
M 59.7 26.85
Q 59.3 29.2 59.4 29.3
L 60.8 27.75 62.3 39.85
Q 62.85 42.7 63.8 53.8 64.35 59.5 64.15 82.95 64 105.2 64.25 107.8
L 64.25 135.1 64 135.25
Q 63.5 135.35 62.85 136
L 60.4 137.3
Q 56.5 139.55 53.25 140.45
L 52.85 139.65
Q 52.4 139 52.4 127.3 52.3 115.6 51.55 97.9
L 50.8 78.5
Q 50.8 50.25 54.1 38.8 58.25 30.5 59.7 26.85
M 42.15 31.8
L 42.2 32.05 43.85 34.65
Q 44.15 36.45 43.7 39.35
L 42.2 47.75 42 48.45
Q 38.7 38.15 33.6 26.6
L 31.9 22.8 42.15 31.8
M 22.55 10.7
L 23.2 10.45 36.95 41.4
Q 43.25 55.85 47.05 86.05 50.8 116.25 50.9 127.95 50.9 139.65 51.7 140.85
L 50.4 141.1 18.25 141.2
Q 13.5 140.45 7.85 138.25 4.8 137.05 3 136.65
L 1.6 107.15
Q 0.75 93.85 1.2 80.6 1.6 67.2 2.5 61.45 3.35 55.75 5.05 49.2
L 8.95 35.45
Q 10.95 28.15 14.6 21.75 18.15 15.25 19.7 13.55
L 19.55 13.55 19.85 13.45 21.85 11.6 22.55 10.7 Z"/>

<path fill="#FFFFFF" stroke="none" d="
M 42.2 32.05
L 42.15 31.8 31.9 22.8 33.6 26.6
Q 38.7 38.15 42 48.45
L 42.2 47.75 43.7 39.35
Q 44.15 36.45 43.85 34.65
L 42.2 32.05
M 59.5 24.35
Q 59.4 22.8 58.55 23.2
L 57.7 24 51.7 28.65
Q 51.1 28.8 50.6 30.1
L 48.35 34.15 51.35 42.85 51.8 41.8
Q 55.45 32.75 56.4 30.9
L 59.5 24.35
M 49.1 18.1
L 49.35 18.55 51.1 22.4
Q 51.95 25.15 51.8 26.05
L 58.75 20.35
Q 59.2 19.8 57.55 9
L 49.1 18.1
M 40.85 18.1
L 41.45 17.85 28.65 6.8
Q 27.35 6.8 26.85 7.3
L 23.55 10.2 27.1 16.45
Q 29.4 20.75 30.7 20.75 30.95 20.75 34.25 23.45
L 40 27.35 39.55 25.15
Q 39.2 24.65 39.2 24.25 39.2 22.7 39.75 20.45
L 40.4 18.15 40.4 18 40.85 18.1 Z"/>
</g>
</defs>

<g transform="matrix( 1, 0, 0, 1, 0,0) ">
<use xlink:href="#Layer0_0_FILL"/>
</g>
</svg>
