
<svg xmlns="http://www.w3.org/2000/svg" version="1.1" xmlns:xlink="http://www.w3.org/1999/xlink" preserveAspectRatio="none" x="0px" y="0px" width="550px" height="400px" viewBox="0 0 550 400">
<defs>
<g id="Layer0_0_FILL">
<path fill="#FFFFFF" stroke="none" d="
M 5.1 120.3
Q 4.6 121.8 2.8 122 1.25 122.15 -0.15 121.4 -1.1 120.9 -3.25 119.15 -5.15 117.55 -6.5 117.1 -7.95 116.6 -10.35 116.75 -13.7 116.95 -14.25 116.9 -16.15 116.8 -17.7 115.85
L -18.1 115.45
Q -17.95 114.2 -18.1 112.9 -18.55 110.65 -18.9 111.05 -20.5 113.05 -23.2 112.4 -25.55 111.8 -27.25 109.8 -29.85 106.6 -31.65 102.85 -33.4 99.1 -33.8 98.05 -35.45 93.8 -36.5 89.35 -36.8 88.2 -37.2 85.8
L -37.65 81.85 -37.55 79.5
Q -37.55 77.75 -37.4 75.85 -37.3 74.3 -36.9 71.95 -36.35 68.55 -36.3 68.05
L -36.3 67.9
Q -36.95 69.3 -37.75 72 -37.85 74 -38.25 75.15
L -38.45 77.35
Q -38.4 83.3 -38.3 84.75 -38.1 88.95 -37.4 92.1 -36.1 98 -34.75 101.35
L -33.7 103.65 -33.65 103.7
Q -31.55 109 -27.15 114.65 -25.7 116.35 -23.75 117.2 -21.55 118.15 -19.8 117.3 -19.8 117.4 -19.9 119.25 -20 120.55 -19.6 121.1 -17.5 124.05 -9.95 123.8 -8.1 123.45 -7.2 123.3 -5.6 123.05 -4.65 123.65 -4.05 124.05 -2.7 125.2 -1.5 126.25 -0.7 126.7 1.2 127.9 3.1 127.6 5.2 127.25 5.85 125.15 6.35 123.35 5.95 121.3 5.85 120.7 5.65 120.25 5.35 119.6 5.1 120.3
M 78.7 34.6
Q 76.35 23.1 69.6 18.25 63.55 13.9 55.6 15.9 47.9 17.8 41.6 24.75 35 32.15 32.65 42.3 29.4 51.45 30.2 70.4 31.05 88.9 35.25 106.8 39.8 126.15 46.3 135.45 53.8 146.05 62 140.2 61.85 136.45 63.2 133.15 65.1 129.45 66.05 127.1 69.75 117.8 67.1 99.25 63.55 84.85 65.6 71.25 68 55.55 77.65 43.65 77.25 43.4 77.6 42.95 77.8 42.65 78.5 41.6 79.9 39 78.7 34.6 Z"/>
</g>
</defs>

<g transform="matrix( 1, 0, 0, 1, 0,0) ">
<use xlink:href="#Layer0_0_FILL"/>
</g>
</svg>
