
<svg xmlns="http://www.w3.org/2000/svg" version="1.1" xmlns:xlink="http://www.w3.org/1999/xlink" preserveAspectRatio="none" x="0px" y="0px" width="550px" height="400px" viewBox="0 0 550 400">
<defs>
<g id="Layer0_0_FILL">
<path fill="#FFFFFF" stroke="none" d="
M 93.4 31.6
Q 92.45 31.05 92.1 30.8 90.9 29.95 89.35 29.65 87.45 29.25 86.4 30 85.35 30.55 84.75 30.9 83.75 31.5 83.1 32.4
L 82.4 33.5
Q 81.8 33.95 81.5 34.3 81.25 34.65 80.6 35.7 79.9 37.1 79.7 37.4 78.4 39.7 78.1 41.8 77.8 44.25 79.35 48.65 80.2 50.85 81.8 52.65 83.55 54.6 85.5 55.15 86.55 55.45 87.3 55.5 88.2 55.6 89.8 55.85 92.75 55.75 95.5 54.55 98.45 53.25 99.4 51.4 99.85 50.55 101.45 48.15 102.85 45.9 102.9 44.7 101.9 45.5 100.35 45.85 99 46.1 97.75 45.95 94.4 45.5 94 44.2 94.25 42.85 94.25 42.65 94.55 40.2 95.25 39.45 96.05 38.55 98.35 38.5 99 38.5 99.95 38.85 100.5 39.1 101.55 39.5
L 102.85 39.75
Q 103.3 37.8 103.25 37.7 102.15 34.2 100.4 33.95 99.8 33.9 99.05 34.05 98.3 34.2 97.75 34.1 96.7 33.95 96.55 33.9 96 33.7 95.15 33 94.4 32.25 93.4 31.6
M 95.6 2.85
Q 94.2 2.15 92.1 1.9 89.9 1.6 88.25 1.95 86.15 2.3 85.4 2.7 82.6 3.75 82 4.3 78.7 6.8 77.85 13.55 77.7 14.85 77.9 17.05 78 17.2 78.05 17.1 78.1 17.05 78.2 17.15 78.4 18.2 80.05 21.5 80.95 23.1 82.9 24.5 86.6 26.55 89.4 26.9 93.85 27.45 97.8 23.25 100.95 19.9 102.05 16.05 101.5 16.6 100.1 16.45 98.5 16.15 97.7 16.05 95 15.7 94.35 14.8 94.3 13.95 94.3 13.9 94.35 12.8 94.4 12.35 94.5 11.65 95.05 10.95 97 8.75 101.3 10.3 100.5 8.35 99 6.15 97.1 3.55 95.6 2.85 Z"/>
</g>
</defs>

<g transform="matrix( 1, 0, 0, 1, 0,0) ">
<use xlink:href="#Layer0_0_FILL"/>
</g>
</svg>
