
<svg xmlns="http://www.w3.org/2000/svg" version="1.1" xmlns:xlink="http://www.w3.org/1999/xlink" preserveAspectRatio="none" x="0px" y="0px" width="550px" height="400px" viewBox="0 0 550 400">
<defs>
<g id="Layer0_0_MEMBER_0_FILL">
<path fill="#FF0000" stroke="none" d="
M -8.65 138.5
L -9.05 138.5
Q -12.4 138.55 -14.9 141.35 -17.45 144 -16.7 146.85 -16.7 147.6 -16.55 148.65 -16.55 148.7 -15.85 150.25 -15.15 151.5 -15.5 151.25 -15.3 151.7 -14.7 152.4
L -13.8 153.2
Q -13.2 153.15 -12.55 153.6 -11.9 154 -12.1 154.3 -10.4 155.1 -8.65 155.1 -4.15 155.1 -2.2 152.45 -1.5 151.4 -0.95 149.75 -0.6 148.3 -0.6 146.85 -0.2 143.3 -2.3 141.05 -4.4 138.65 -8.65 138.5
M 107.2 115
Q 105.05 114.95 102.3 114.65 101.35 114.9 99.65 116
L 98.15 117.1 96.3 119.9 96.15 121
Q 96 122.15 96.15 122.7 96.15 125.9 98.2 128.25 99.4 129.5 100.95 130.2 102.45 130.95 104.2 130.95
L 105.1 130.95 109.5 129.4 109.95 129.05
Q 110.4 128.55 110.6 128.25 111.35 127.3 111.85 125.7 112.3 124.2 112.3 122.7 112.55 120 111.3 118 110.05 115.9 107.35 115 107.25 115 107.2 115
M 79.2 162.3
Q 76.7 162.35 73.8 166 72.35 167.85 71.4 169.7
L 71.8 172.75 72.35 174.15
Q 72.75 175.1 73.15 175.75 73.4 176.05 73.65 176.35 74.75 177.6 76.25 178.35 77.85 179.1 79.6 179.1 84.05 179.1 86.1 176.35 86.2 176.05 86.4 175.75 86.6 175.45 86.75 175.05
L 87.15 174.15 87.65 171.3 87.65 170.65
Q 88.05 167.15 86 164.85 83.8 162.45 79.6 162.3
L 79.2 162.3
M 1.7 102.3
Q 1.8 101.15 1.3 99.25
L 0.85 97.55 -0.3 96.1 -4.5 94 -9.4 94.25 -14.3 98.85 -14.5 103.5 -13.9 105.3
Q -13.2 107.25 -12.5 108.05 -11.85 108.8 -11.2 109.3
L -8.8 109.4 -7.25 111.05 -4 109.95 -2.6 110.15
Q -1.65 109.8 -0.05 108.15
L 0.45 107 0.65 106.9
Q 1.7 103.75 1.7 102.3
M 43.35 106.45
L 42.9 106.45
Q 39.6 106.5 37.1 109.2 34.5 111.95 35.3 114.75 35.3 118 37.4 120.35 38.45 121.7 40 122.35 41.6 123.05 43.35 123.05 47.8 123.05 49.8 120.35 50.5 119.35 50.95 117.7 51.35 116.25 51.35 114.75 51.75 111.3 49.75 109.05 47.6 106.6 43.35 106.45
M 38.6 55.2
Q 35.65 53.85 33.95 53.75 29.7 53.65 27.75 59.55 27.4 60.6 27.05 61.8 27.05 65.05 29.15 67.4 30.25 68.65 31.8 69.35 33.35 70.1 35.15 70.1 39.6 70.1 41.6 67.4 43.3 65 43.25 62.2 43.2 60.95 42.8 59.55 42.25 57.75 41.2 55.7 40.95 56.25 38.6 55.2
M 1.85 41.1
L 1.4 41.1
Q -2 41.2 -4.7 44.15 -7.3 47.1 -6.55 50.2 -6.55 53.65 -4.35 56.25 -3.05 57.7 0.75 59.1
L 6.35 58.15 9.65 53.85 10.1 47.45
Q 9.3 45.85 7.85 44.35 4.9 41.25 1.85 41.1
M 72 39.9
L 71.6 39.9
Q 70.6 39.9 68.65 40.75
L 67 41.55 65.15 43.35 64.4 45.15
Q 63.7 47.15 63.95 48.1 63.95 51.25 66.05 53.6 68.45 56.35 72 56.35 72.85 56.35 74.55 56.1
L 77.75 54.5 78.45 53.65
Q 79.2 52.65 79.65 51.05 80.05 49.6 80.05 48.1 80.4 44.65 78.45 42.45 76.25 40.05 72 39.9 Z"/>
</g>
</defs>

<g transform="matrix( 1, 0, 0, 1, 0,-18) ">
<use xlink:href="#Layer0_0_MEMBER_0_FILL"/>
</g>
</svg>
