
<svg xmlns="http://www.w3.org/2000/svg" version="1.1" xmlns:xlink="http://www.w3.org/1999/xlink" preserveAspectRatio="none" x="0px" y="0px" width="550px" height="400px" viewBox="0 0 550 400">
<defs>
<g id="Layer0_0_FILL">
<path fill="#000000" fill-opacity="0.25098039215686274" stroke="none" d="
M 60.05 8.6
L 59.95 8.35 59.7 8.75 59.95 8.6 60.05 8.6
M 55.75 9.8
Q 54.45 10.6 54.25 11.5
L 54.25 13.85
Q 54.25 15 54.9 18.5 55.65 22.95 56.6 22.95 59.95 22.95 59.95 20.85 59.95 19.15 59.2 16.15
L 58.3 11.75 58.25 9.55
Q 57.8 8.35 55.75 9.8
M 63.15 24
L 63.05 24 60.7 25.8 60.8 29.85 59.95 43.75
Q 59.1 57.3 58.3 63.8 57.55 70.15 57.7 78.35
L 57.7 87.75
Q 57.7 94.5 55.3 121.55
L 53.7 125.2
Q 51.7 99.3 51.7 95.4 51.7 78.1 54 50.65
L 56.6 43.25
Q 59.95 33.2 60.05 29.95 60.15 28.25 59.85 26.3
L 58.55 26.95 56.4 33.85
Q 51.1 44.9 50.35 51.9
L 50.25 54.95
Q 50.7 62.35 50.4 75.75
L 46.2 65.3
Q 42 54.75 39.3 47.25 32.1 27.35 32.1 19.15 32.1 9 29 6 26.4 3.55 22.25 6.8 18.4 9.8 15.45 15.9 12.35 22.3 10.95 25.55 9.45 28.65 3.65 50.5 -2.25 72.4 -0.65 87.6 0.85 102.7 -1.05 134.85 -1.05 139.55 21.6 142.25 36.95 144.2 46.45 144.2 52.55 144.2 59.5 138.9 66.75 133.3 66.75 128.35
L 66.5 71.35
Q 65.75 41.95 63.15 24
M 20.2 20.05
Q 25.55 20.05 32.65 41.4 34.05 45.45 40.4 68.6 41.45 72.65 44.7 80.85
L 45.55 99.3
Q 46 109.6 46.7 117.55 46.7 120.15 45.35 130.3
L 38.8 130.15
Q 30.3 130.15 22.45 131.75
L 13.75 133.8 6.8 133.8
Q 5.25 127.8 5.25 125.2 5.25 20.05 20.2 20.05
M 53.15 52.35
L 53.25 52.2 53.25 52.35 53.15 52.5 53.15 52.35 Z"/>
</g>
</defs>

<g transform="matrix( 1, 0, 0, 1, 0,0) ">
<use xlink:href="#Layer0_0_FILL"/>
</g>
</svg>
