
<svg xmlns="http://www.w3.org/2000/svg" version="1.1" xmlns:xlink="http://www.w3.org/1999/xlink" preserveAspectRatio="none" x="0px" y="0px" width="550px" height="400px" viewBox="0 0 550 400">
<defs>
<g id="Layer0_0_FILL">
<path fill="#000000" stroke="none" d="
M 46.35 1.95
Q 45.3 2.4 45.3 2.95 45.3 16.55 41.15 28.4 33.55 50.15 11.5 76.8 7.5 80.15 5.5 98.55 4.45 107.9 3.95 118.2
L 6.4 118.45 7 118.75 9.15 117.15
Q 11.05 115.55 12.35 115.65 14.65 113.95 14.75 112.7
L 14.95 111.05
Q 17.35 108.45 23.5 103.3
L 31.25 96.8
Q 43 86.35 51.1 71.15 57.8 58.7 58.35 51.35
L 58.75 54.6 61.1 50.15 61.6 48.4
Q 61.6 34.7 58 21.1 54.2 6.8 48.4 0.85
L 46.35 1.95
M 48.05 6.6
L 48.9 6.25
Q 51.5 13.5 54.25 24.85 57.9 40.15 57.9 48.85
L 56.5 54.4
Q 56.5 55.8 55.45 56.85 53.55 58.8 50.95 65.3 50 67.7 46 73.6 41.85 79.75 36.9 85.85 31.2 92.9 15.35 107.5 14.3 108.55 12.9 108.6
L 10.9 108.8 10.3 111.15
Q 9.6 113.05 8.85 112 9.55 107.75 9.95 101.55
L 10.65 92
Q 11.7 81.75 16.65 76.65 30 62.95 30.5 56 39.1 40 44.15 25.7 49.2 11.45 48.05 6.6
M 21.25 81.05
L 20.3 81.2 19.75 81.6 21.3 86.55
Q 22.85 91.2 23.55 92.1 25.5 90 25.5 84.75 25.4 83.85 25.95 85.4
L 27.05 87.95
Q 29 87.95 29 86.25
L 28.35 83.75 26.6 78.95 26.45 77.85
Q 27.45 78.3 29.7 81.95 31.3 84.5 34.05 83.3 32.15 81.5 30.1 76.95 28.45 73.25 27.4 73.25
L 21.25 81.05
M 40.15 52.9
Q 39.5 53.75 39.5 55.35 39.5 56.05 38.2 57.75 42.5 59.65 45.65 59.7
L 45.9 59.6
Q 44.85 60.6 44.45 61.5 44.2 62.2 44.2 63.4 44.2 64 44.55 64.25
L 46.1 65.65 48.75 58.65 48.6 57.55 41.5 57.55
Q 41.5 56.25 42.05 53.1
L 40.15 52.9
M 35.55 64.25
L 34.9 64.45
Q 34.25 64.75 34.1 65.3
L 39.4 72.75 40.45 71.8 35.55 64.25
M 49.75 43.9
Q 49.5 43.4 50.1 40.5
L 50.75 37.35 50.65 36.4 50.5 36
Q 49.5 36.2 47.3 40.1 45.3 43.6 45.3 44 45.3 45.45 47.35 47.3 48.45 48.35 50.4 49.75 49.75 50.15 49.75 51.35
L 49.8 53.5 50.05 53.7 50.9 53.75
Q 52.85 53.75 55.75 48.35 55.75 46.95 53.05 45.8 50.05 44.45 49.75 43.9
M 51.45 48.65
Q 51.8 48.2 52 48.3
L 51.15 49.1 51.45 48.65 Z"/>
</g>
</defs>

<g transform="matrix( 1, 0, 0, 1, 0,0) ">
<use xlink:href="#Layer0_0_FILL"/>
</g>
</svg>
