
<svg xmlns="http://www.w3.org/2000/svg" version="1.1" xmlns:xlink="http://www.w3.org/1999/xlink" preserveAspectRatio="none" x="0px" y="0px" width="550px" height="400px" viewBox="0 0 550 400">
<defs>
<g id="Layer0_0_FILL">
<path fill="#000000" stroke="none" d="
M 7.3 86.75
Q 6.7 86.75 6.7 92.4 6.65 94.75 5 107.3 5 107.95 6.95 108.4
L 9.65 108.75
Q 10.35 108.75 10.8 109.3 11.2 109.75 11.05 110.05 13.75 111.6 13.95 111.05 22.85 113.9 32.15 115.05
L 54.45 116.1 63.85 115.2
Q 64.35 115.2 63.9 115.6 63.4 115.95 63.9 115.95
L 67 115.85 67 109.75 71.15 110.35 74.8 110.05 75.65 101.05
Q 75.65 96.6 73.65 94.05 71.65 91.5 68.15 91.5
L 60.95 91.75
Q 60.35 91.75 60.15 92
L 59.8 92.5 54.05 92.6
Q 52.2 92.6 51.15 91.5 50.05 90.4 49.6 90.4
L 45.75 92.6 37.6 91.95
Q 33.2 91.25 31.3 90.2
L 29.85 92
Q 20.75 91.5 18.7 90.15 18.05 89.75 17.95 89.1
L 17.6 88.15
Q 17.2 88.35 16.6 89.95
L 13.15 88.15
Q 10.4 86.85 7.3 86.75
M 11.35 89.8
L 18.45 92.7 17.55 92.75
Q 16.7 92.85 18.7 92.7 20.4 92.6 20.45 93.15
L 20.6 93.2
Q 26.8 95.75 26 97.3 24.85 99.55 24.85 101.15 24.85 109.15 28.9 109.7
L 30.35 110.3 18 108.25
Q 12.85 107.4 12.85 106.4 12.85 105.8 11.95 105.85
L 10.05 105.85 11.35 89.8
M 31.5 95.05
L 32.95 95.2
Q 33.55 99.8 33.55 101.85 33.55 103.85 32.55 105.95 31.6 107.95 30.9 107.95 29.7 107.95 28.9 106.75 28.05 105.5 28.05 103.55 28.05 103.2 31.5 95.05
M 49.65 92.35
L 49.95 92.8
Q 50.05 93.1 50.65 93.1 51.15 93.1 51.5 96.8
L 51.85 102.65 51.6 108.8 48.25 108.8
Q 45.85 108.15 45.1 107.25 44.05 106.1 44.05 103.15 44.05 100.65 46.5 96.85
L 49.65 92.35
M 58.15 97.65
Q 59.05 95.55 60.3 95.55 61.55 95.55 62.45 97.65 63.35 99.75 63.35 102.7 63.35 105.65 62.45 107.75 61.55 109.85 60.3 109.85 59.05 109.85 58.15 107.75 57.25 105.65 57.25 102.7 57.25 99.75 58.15 97.65
M 70.1 93.25
Q 71.5 93.25 72.5 95.4 73.5 97.55 73.5 100.6 73.5 103.65 72.5 105.8 71.5 107.95 70.1 107.95 68.7 107.95 67.7 105.8 66.7 103.65 66.7 100.6 66.7 97.55 67.7 95.4 68.7 93.25 70.1 93.25
M 21.05 94.25
L 20.45 93.45
Q 14.25 101.8 15.7 103.55 17.5 105.7 19.4 105.7 21.55 105.7 22.15 102.9
L 22.3 100.45
Q 22.3 96.35 21.05 94.25
M 18.3 102.2
Q 17.8 100.7 17.8 99.55
L 19.55 96 19.75 101.85 19.65 102 19.2 102.85
Q 18.85 103.75 18.3 102.2 Z"/>

<path fill="#502F27" stroke="none" d="
M 18.45 92.7
L 11.35 89.8 10.05 105.85 11.95 105.85
Q 12.85 105.8 12.85 106.4 12.85 107.4 18 108.25
L 30.35 110.3 28.9 109.7
Q 24.85 109.15 24.85 101.15 24.85 99.55 26 97.3 26.8 95.75 20.6 93.2
L 20.45 93.15
Q 20.4 92.6 18.7 92.7 16.7 92.85 17.55 92.75
L 18.45 92.7
M 20.45 93.45
L 21.05 94.25
Q 22.3 96.35 22.3 100.45
L 22.15 102.9
Q 21.55 105.7 19.4 105.7 17.5 105.7 15.7 103.55 14.25 101.8 20.45 93.45 Z"/>
</g>
</defs>

<g transform="matrix( 1, 0, 0, 1, 0,0) ">
<use xlink:href="#Layer0_0_FILL"/>
</g>
</svg>
