
<svg xmlns="http://www.w3.org/2000/svg" version="1.1" xmlns:xlink="http://www.w3.org/1999/xlink" preserveAspectRatio="none" x="0px" y="0px" width="550px" height="400px" viewBox="0 0 550 400">
<defs>
<g id="Layer0_0_MEMBER_0_FILL">
<path fill="#050000" fill-opacity="0.2627450980392157" stroke="none" d="
M 161.65 210.5
Q 157.2 206.05 150.9 206.05 144.6 206.05 140.15 210.5 135.7 214.95 135.7 221.25 135.7 227.55 140.15 232 144.6 236.45 150.9 236.45 157.2 236.45 161.65 232 166.1 227.55 166.1 221.25 166.1 214.95 161.65 210.5
M 143.6 216.75
Q 145.6 214.8 146.5 213.8 147.5 212.6 148.05 212.05 149 211.1 149.9 210.9 151.05 210.65 152.6 211.2 152.7 211.25 155.25 212.35 157.55 213.45 158.15 214.3 158.85 215.35 159.2 217.1 159.35 218.1 159.6 220.15 159.75 220.8 160.05 222.1 160.3 223.2 160.1 224 159.55 226.3 157.2 228.4 153.9 231.15 150.85 231.3 148.75 231.4 146.9 230.85 144.8 230.25 143.55 228.9 142.1 227.25 141.6 224.75 141.1 222.4 141.6 220.15 142 218.5 143.6 216.75 Z"/>
</g>

<g id="Layer0_0_MEMBER_1_FILL">
<path fill="#050000" fill-opacity="0.2627450980392157" stroke="none" d="
M 272.7 235.05
Q 272.7 228.75 268.25 224.3 263.8 219.85 257.5 219.85 251.2 219.85 246.75 224.3 242.3 228.75 242.3 235.05 242.3 241.35 246.75 245.8 251.2 250.25 257.5 250.25 263.8 250.25 268.25 245.8 272.7 241.35 272.7 235.05
M 257.15 244.85
Q 252.3 245.05 249.85 242.4 248.4 240.8 247.9 238.3 247.45 235.95 247.95 233.65 248.3 232 249.9 230.25 250.8 229.2 252.8 227.3 257.85 221.75 262.9 226.65 264.95 228.65 265.95 231.65 267 234.8 266.4 237.55 265.85 239.9 263.5 241.9 260.3 244.65 257.15 244.85 Z"/>
</g>

<g id="Layer0_0_MEMBER_2_FILL">
<path fill="#050000" fill-opacity="0.2627450980392157" stroke="none" d="
M 198.25 90.65
Q 192.05 91.7 188.35 96.8 184.7 101.95 185.75 108.15 186.8 114.35 191.9 118.05 197.05 121.7 203.25 120.65 209.5 119.6 213.15 114.45 216.8 109.35 215.75 103.15 214.7 96.9 209.55 93.25 204.45 89.6 198.25 90.65
M 199.05 94.75
Q 200.4 94.75 202.15 95.6 203.15 96.1 205.15 97.15 205.8 97.45 207.15 98 208.3 98.5 208.9 99.2 210.6 101.1 210.95 104.55 211.3 109.2 209.55 112 208.3 113.95 206.65 115.25 204.7 116.75 202.75 116.95 200.4 117.2 197.85 116.1 195.45 115.05 193.75 113.15 192.5 111.8 191.95 109.25 191.5 106.25 191.2 104.8 190.8 103.15 190.65 102.35 190.4 100.9 190.8 99.95 191.3 98.75 192.75 97.75 192.8 97.7 195.45 96.1 197.95 94.75 199.05 94.75 Z"/>
</g>

<g id="Layer0_0_MEMBER_3_FILL">
<path fill="#050000" fill-opacity="0.2627450980392157" stroke="none" d="
M 134.6 115.05
Q 128.35 116.05 124.7 121.2 121.05 126.35 122.1 132.55 123.15 138.8 128.3 142.45 133.4 146.1 139.6 145.05 145.85 144 149.5 138.85 153.15 133.7 152.1 127.5 151.05 121.35 145.95 117.65 140.8 114 134.6 115.05
M 143 122.15
Q 144.65 122.9 145.25 123.6 147.05 125.6 147.3 128.95 147.75 133.45 145.9 136.4 144.4 138.75 139.1 141.35 137.4 141 135.45 140.35 131.5 139.05 130.1 137.55 128.85 136.2 128.35 133.65 127.9 130.65 127.6 129.2 127.15 127.55 127 126.75 126.75 125.3 127.15 124.35 127.6 123.2 129.75 121.75 130.85 121 131.8 120.5
L 135.4 119.15 143 122.15 Z"/>
</g>

<g id="Layer0_0_MEMBER_4_FILL">
<path fill="#050000" fill-opacity="0.2627450980392157" stroke="none" d="
M 65.85 99.45
Q 62.2 104.6 63.25 110.8 64.25 117.05 69.4 120.7 74.55 124.35 80.75 123.3 87 122.25 90.65 117.1 94.3 112 93.25 105.8 92.2 99.55 87.05 95.9 81.9 92.25 75.7 93.3 69.55 94.35 65.85 99.45
M 72.95 98.75
L 76.55 97.4 84.15 100.4
Q 85.8 101.15 86.4 101.85 88.1 103.75 88.45 107.2 88.8 111.85 87.05 114.65 85.55 117 80.25 119.6 78.55 119.25 76.6 118.6 72.65 117.3 71.25 115.8 70 114.45 69.45 111.9 69 108.9 68.7 107.45 68.3 105.8 68.15 105 67.9 103.55 68.25 102.6 68.75 101.45 70.9 100
L 72.95 98.75 Z"/>
</g>

<g id="Layer0_0_MEMBER_5_FILL">
<path fill="#050000" fill-opacity="0.2627450980392157" stroke="none" d="
M 62.45 184.5
Q 56.25 185.55 52.6 190.7 48.95 195.85 49.95 202.05 51 208.25 56.15 211.9 61.3 215.55 67.5 214.5 73.7 213.5 77.35 208.35 81 203.2 80 197 78.95 190.8 73.8 187.1 68.65 183.45 62.45 184.5
M 65.75 192.05
Q 67.35 192.95 68.4 193.8 70.1 195.2 73.05 198.45
L 71.55 200.95
Q 69.9 203.7 68.85 204.95 68.15 205.75 66.75 207.6 65.4 209.05 64.05 209.2 62.5 209.4 60.65 208.3 59.45 207.55 57.7 205.9 56.1 204.4 55.95 202.3 56.05 199.9 55.9 198.7
L 55.55 194.45
Q 57.6 192.05 58.9 191.15 60.65 189.95 61.45 189.95 62.45 189.95 63.7 190.7 64.4 191.15 65.75 192.05 Z"/>
</g>

<g id="Layer0_0_MEMBER_6_FILL">
<path fill="#050000" fill-opacity="0.2627450980392157" stroke="none" d="
M 57.15 261.4
Q 50.95 262.45 47.3 267.6 43.75 272.55 45.4 279.7 46.95 286.5 51.65 289.85 56.2 293.05 62.3 291.7 68.45 290.35 72.05 285.25 75.7 280.1 74.7 273.9 73.65 267.7 68.5 264 63.35 260.35 57.15 261.4
M 62.2 269.2
Q 63.05 269.65 64.8 270.55 65.4 270.8 66.55 271.25 67.55 271.7 68.1 272.3 69.65 274.05 69.9 277 70.2 281.15 68.65 283.55 67.6 285.2 66.1 286.35 64.45 287.65 62.7 287.85 60.65 288.1 58.45 287.1 56.35 286.15 54.85 284.5 53.8 283.35 53.3 281.1 52.85 278.5 52.6 277.25 52.25 275.8 52.15 275.1 51.9 273.8 52.25 273 52.65 271.95 53.95 271.05 54.4 270.7 56.35 269.65 58.25 268.45 59.45 268.45 60.65 268.45 62.2 269.2 Z"/>
</g>

<g id="Layer0_0_MEMBER_7_FILL">
<path fill="#050000" fill-opacity="0.2627450980392157" stroke="none" d="
M 229 316.85
Q 227.95 310.65 222.85 307 217.7 303.35 211.5 304.35 205.3 305.4 201.6 310.55 197.95 315.7 199 321.9 200.05 328.1 205.2 331.75 210.3 335.4 216.5 334.4 222.75 333.35 226.4 328.2 230.05 323.05 229 316.85
M 204.45 318.55
L 204.05 313.65 208.7 309.85 212.3 308.5 218.4 310.9
Q 222.65 314.3 223.55 318.25 224.45 321.85 222.35 324.65 220.3 327.45 216.3 328.2 212 328.95 207 326.85
L 204.45 318.55 Z"/>
</g>

<g id="Layer0_0_MEMBER_8_FILL">
<path fill="#FCFCFC" fill-opacity="0.3568627450980392" stroke="none" d="
M -8.3 123.95
Q -9.1 123.55 -10.15 124.2 -11.2 124.95 -11.9 126.3 -12.6 127.7 -12.5 128.95 -12.45 130.2 -11.65 130.6 -10.85 131 -9.8 130.3 -8.7 129.65 -8.05 128.25 -7.35 126.85 -7.45 125.6 -7.5 124.35 -8.3 123.95
M -8 79.55
Q -8.85 79.3 -9.7 80 -10.55 80.75 -10.95 82 -11.35 83.25 -11 84.3 -10.65 85.4 -9.8 85.65 -8.95 85.9 -8.1 85.2 -7.2 84.5 -6.85 83.25 -6.45 81.95 -6.8 80.9 -7.15 79.8 -8 79.55
M -0.7 26.4
Q -1.55 26.1 -2.5 26.85 -3.5 27.55 -4.05 28.95 -4.6 30.3 -4.45 31.55 -4.25 32.75 -3.4 33.1 -2.6 33.4 -1.6 32.7 -0.6 31.95 -0.05 30.55 0.5 29.2 0.3 28 0.15 26.75 -0.7 26.4
M 104.45 101.15
Q 103.7 100.65 102.75 100.95 101.8 101.25 101.2 102.15 100.6 103.1 100.75 104.1 100.8 105.05 101.55 105.55 102.3 106.05 103.3 105.75 104.2 105.45 104.8 104.5 105.4 103.6 105.3 102.6 105.2 101.6 104.45 101.15
M 76.7 148.8
Q 75.6 149.75 74.85 151.45 74.1 153.15 74.1 154.6 74.15 156.05 74.95 156.45 75.75 156.8 76.9 155.85 78 154.9 78.8 153.2 79.5 151.5 79.5 150.05 79.45 148.6 78.65 148.2 77.85 147.9 76.7 148.8
M 40.35 91.75
Q 39.4 92.7 38.9 94.25 38.4 95.85 38.65 97.15 38.9 98.45 39.75 98.75 40.55 99 41.55 98.05 42.5 97.15 43 95.55 43.5 94 43.25 92.7 43 91.4 42.15 91.1 41.3 90.85 40.35 91.75
M 33.95 38.25
Q 33.1 38.05 32.15 39.3 31.25 40.55 30.8 42.5 30.35 44.45 30.65 45.95 30.95 47.5 31.8 47.7 32.7 47.9 33.6 46.65 34.55 45.4 34.95 43.45 35.45 41.5 35.1 40 34.85 38.45 33.95 38.25
M 70.4 26.4
Q 69.6 26.1 68.55 27 67.5 27.95 66.9 29.6 66.25 31.2 66.4 32.6 66.55 34 67.4 34.3 68.2 34.6 69.25 33.7 70.25 32.75 70.9 31.15 71.55 29.5 71.4 28.1 71.25 26.7 70.4 26.4 Z"/>
</g>

<g id="Layer0_0_MEMBER_9_FILL">
<path fill="#000000" fill-opacity="0.1843137254901961" stroke="none" d="
M 82.25 195.9
L 78.75 193.35 78.75 203.6 75.7 209.95 80.85 218.15 85.4 220.25 94.45 218.15 93.25 222.4 93.25 229.35 97.2 233.55 106.25 233.25 106.6 240.25 110.8 245.35 116.25 245.35 123.2 242.65 122.3 249.3 127.45 255.95 133.8 255.95 138.95 252.35 138.35 259 142.6 263.85 146.2 265.35 151.35 263.85 155.6 261.7 155.9 271.7 162.85 273.5 170.1 272.3 173.75 277.45 181 280.45 190.4 275.35 193.1 281.7 198.55 285.3 206.75 283.2 208.55 280.45 210.95 288.65 217.95 291.35 227.6 286.2 231.25 291.65 238.5 292.25 245.75 286.55 253.05 289.85 257.55 291.05 264.85 284.1 262.4 273.5 249.1 272.9 244.25 278.65 236.4 272.6 227.3 278.35 223.7 273.5 215.2 272 209.75 277.15 206.45 269.3 199.75 267.75 193.1 269.3 191 273.5 188.25 265.65 183.75 262.9 178 262.6 173.75 266.25 172.45 258.55 164.15 255.7 156.3 258.8 155.75 253.5 153.25 248.15 148.5 247.9 144.3 248.15 141.2 249.85 140.35 243.15 136.45 239.8 133.95 238.65 128.9 238.95 125.55 239.8 123.6 237.85 123.3 231.1 117.15 228.6 110.45 228.9 110.2 221.6 105.7 216.05 96.2 216.6 96.2 207.9 92.3 202.6 82.8 203.75 82.25 195.9
M 127 247.1
Q 127 245.1 128.6 243.65 130.2 242.25 132.45 242.25 134.7 242.25 136.3 243.65 137.85 245.1 137.85 247.1 137.85 249.1 136.3 250.5 134.7 251.9 132.45 251.9 130.2 251.9 128.6 250.5 127 249.1 127 247.1
M 84.35 208.35
Q 85.7 206.85 87.65 206.85 89.65 206.85 91 208.35 92.4 209.85 92.4 212 92.4 214.15 91 215.65 89.65 217.15 87.65 217.15 85.7 217.15 84.35 215.65 82.95 214.15 82.95 212 82.95 209.85 84.35 208.35
M 97.35 227
Q 97.35 224.9 98.75 223.4 100.15 221.9 102.1 221.9 104.05 221.9 105.45 223.4 106.85 224.9 106.85 227 106.85 229.15 105.45 230.65 104.05 232.15 102.1 232.15 100.15 232.15 98.75 230.65 97.35 229.15 97.35 227
M 112.9 233.8
Q 114.15 232.15 115.95 232.15 117.75 232.15 119.05 233.8 120.3 235.4 120.3 237.7 120.3 240 119.05 241.6 117.75 243.25 115.95 243.2 114.15 243.2 112.9 241.6 111.6 240 111.6 237.7 111.6 235.4 112.9 233.8
M 143.7 252.05
Q 145.2 250.55 147.35 250.55 149.5 250.55 151 252.05 152.5 253.5 152.5 255.6 152.5 257.65 151 259.15 149.5 260.6 147.35 260.6 145.2 260.6 143.7 259.15 142.2 257.65 142.2 255.6 142.2 253.5 143.7 252.05
M 158.8 264.25
Q 158.8 262.2 160.4 260.7 162 259.25 164.25 259.25 166.5 259.25 168.1 260.7 169.7 262.2 169.7 264.25 169.7 266.35 168.1 267.85 166.5 269.3 164.25 269.3 162 269.3 160.4 267.85 158.8 266.35 158.8 264.25
M 258.35 279.9
Q 259.6 281.15 259.6 282.95 259.6 284.75 258.35 286.05 257.1 287.3 255.35 287.3 253.6 287.3 252.35 286.05 251.1 284.75 251.1 282.95 251.1 281.15 252.35 279.9 253.6 278.6 255.35 278.6 257.1 278.6 258.35 279.9
M 195.85 271.75
Q 197.3 270.1 199.35 270.1 201.4 270.1 202.85 271.75 204.3 273.35 204.3 275.65 204.3 277.95 202.85 279.55 201.4 281.15 199.35 281.15 197.3 281.15 195.85 279.55 194.4 277.95 194.4 275.65 194.4 273.35 195.85 271.75
M 183.7 266.7
Q 185.1 268.2 185.1 270.4 185.1 272.6 183.7 274.1 182.25 275.65 180.25 275.65 178.25 275.65 176.85 274.1 175.4 272.55 175.4 270.4 175.4 268.25 176.85 266.7 178.25 265.15 180.25 265.15 182.25 265.15 183.7 266.7
M 216.5 278.3
Q 217.9 276.8 219.8 276.8 221.7 276.8 223.1 278.3 224.45 279.8 224.45 281.85 224.45 283.95 223.1 285.45 221.7 286.9 219.8 286.9 217.9 286.9 216.5 285.45 215.15 283.95 215.15 281.85 215.15 279.8 216.5 278.3
M 235.6 279.2
Q 237.45 279.2 238.75 280.4 240.05 281.65 240.05 283.35 240.05 285.05 238.75 286.3 237.45 287.5 235.6 287.5 233.75 287.5 232.45 286.3 231.15 285.05 231.15 283.35 231.15 281.65 232.45 280.4 233.75 279.2 235.6 279.2
M 169.2 127.95
L 162.85 127.65 162.25 119.2 159.25 115.85 155.6 113.75 149.85 114.35 149.55 106.8 146.2 102.55 142.9 101.05 137.15 101.65 135 100.15 137.75 97.1 136.85 90.45 133.5 85.3 125.05 85.6 124.45 78.05 120.2 72.6 112.65 73.5 112.65 66.85 109.9 61.4 105.35 58.35 97.2 60.2 95.1 70.5 98.1 75.6 107.2 75.9 108.1 85.3 113.55 90.45 117.75 90.45 119.9 98 125.35 103.75 132.6 102.25 131.1 112.25 136.85 114.35 147.45 116.75 151.35 123.75 152.55 131.9 156.8 131.9 157.4 136.75 159.25 141.9 165 144.9 171.05 143.7 172.55 151.25 177.4 155.2 186.45 155.5 187.05 161.85 189.5 165.2 193.1 167.3 201.3 167.9 201.9 167.9 203.1 172.15 207.05 177 217.3 176.7 216.7 184.25 220.05 189.4 225.8 191.8 234.85 187.6 233.95 177.9 225.5 171.25 220.95 174.55 218.55 164.3 211.55 159.75 204.3 163.05 203.7 154.3 198.85 150.65 193.4 150.35 190.4 151.55 189.8 141.6 182.5 138.25 176.45 140.4 174.05 129.8 169.2 127.95
M 164.6 133.1
Q 166.05 131.55 168.1 131.55 170.15 131.55 171.6 133.1 173.05 134.6 173.05 136.8 173.05 139 171.6 140.5 170.15 142.05 168.1 142.05 166.05 142.05 164.6 140.5 163.15 138.95 163.15 136.8 163.15 134.65 164.6 133.1
M 177.5 143.5
Q 178.8 142.05 180.65 142.05 182.5 142.05 183.8 143.5 185.1 145 185.1 147.05 185.1 149.15 183.8 150.65 182.5 152.1 180.65 152.1 178.8 152.1 177.5 150.65 176.2 149.15 176.2 147.05 176.2 145 177.5 143.5
M 193.2 156.2
Q 194.55 154.7 196.45 154.7 198.4 154.7 199.75 156.2 201.1 157.7 201.1 159.8 201.1 161.95 199.75 163.45 198.4 164.95 196.45 164.95 194.55 164.95 193.2 163.45 191.85 161.95 191.85 159.8 191.85 157.7 193.2 156.2
M 207.8 172.15
Q 206.65 170.65 206.65 168.5 206.65 166.4 207.8 164.9 208.95 163.35 210.6 163.35 212.25 163.35 213.4 164.85 214.55 166.35 214.55 168.5 214.55 170.65 213.4 172.15 212.25 173.65 210.6 173.65 208.95 173.65 207.8 172.15
M 220.3 182.75
Q 220.3 180.75 221.7 179.4 223.15 178 225.15 178 227.15 178 228.55 179.4 229.95 180.75 230 182.75 229.95 184.7 228.55 186.1 227.15 187.5 225.15 187.5 223.15 187.5 221.7 186.1 220.3 184.7 220.3 182.75
M 103.1 63.75
L 105.25 63.15 107.25 66.75
Q 110.7 68.85 107.35 70.65
L 103.3 72.05
Q 100.7 70.15 99.4 68.15 96.8 64.15 103.1 63.75
M 112.3 78.15
Q 113.65 76.65 115.7 76.65 116.3 76.65 116.9 76.8 120.55 80 120.85 81.15 121.55 83.8 116.35 87.7
L 116.55 86.3
Q 111 86.25 111.1 81.45 111.1 79.5 112.3 78.15
M 126 91.8
Q 127.35 90.25 129.25 90.25 131.2 90.25 132.55 91.8 133.9 93.3 133.9 95.5 133.9 97.7 132.55 99.2 131.2 100.7 129.25 100.7 127.35 100.7 126 99.2 124.65 97.65 124.65 95.5 124.65 93.3 126 91.8
M 144.6 106.15
Q 146.15 107.4 146.15 109.2 146.15 111 144.6 112.3 143.05 113.55 140.85 113.55 138.65 113.55 137.05 112.3 135.5 111 135.5 109.2 135.5 107.4 137.05 106.15 138.65 104.85 140.85 104.85 143.05 104.85 144.6 106.15
M 149.45 119.05
Q 148.75 117.7 151.5 117.15 154.25 116.55 156.7 117.55 159.6 118.7 159.35 121.45 159.1 124.85 153.8 129.95 157.45 125.4 154.5 123 150.3 120.8 149.45 119.05 Z"/>
</g>
</defs>

<g transform="matrix( 0.5730438232421875, 0, 0, 0.5728759765625, -43.05,-30) ">
<use xlink:href="#Layer0_0_MEMBER_0_FILL"/>
</g>

<g transform="matrix( 0.5730438232421875, 0, 0, 0.5728759765625, -43.05,-30) ">
<use xlink:href="#Layer0_0_MEMBER_1_FILL"/>
</g>

<g transform="matrix( 0.5730438232421875, 0, 0, 0.5728759765625, -43.05,-30) ">
<use xlink:href="#Layer0_0_MEMBER_2_FILL"/>
</g>

<g transform="matrix( 0.5730438232421875, 0, 0, 0.5728759765625, -43.05,-30) ">
<use xlink:href="#Layer0_0_MEMBER_3_FILL"/>
</g>

<g transform="matrix( 0.5730438232421875, 0, 0, 0.5728759765625, -43.05,-30) ">
<use xlink:href="#Layer0_0_MEMBER_4_FILL"/>
</g>

<g transform="matrix( 0.5730438232421875, 0, 0, 0.5728759765625, -43.05,-30) ">
<use xlink:href="#Layer0_0_MEMBER_5_FILL"/>
</g>

<g transform="matrix( 0.5730438232421875, 0, 0, 0.5728759765625, -43.05,-30) ">
<use xlink:href="#Layer0_0_MEMBER_6_FILL"/>
</g>

<g transform="matrix( 0.5730438232421875, 0, 0, 0.5728759765625, -43.05,-30) ">
<use xlink:href="#Layer0_0_MEMBER_7_FILL"/>
</g>

<g transform="matrix( 1, 0, 0, 1, 0,0) ">
<use xlink:href="#Layer0_0_MEMBER_8_FILL"/>
</g>

<g transform="matrix( 0.5730438232421875, 0, 0, 0.5728759765625, -43.05,-30) ">
<use xlink:href="#Layer0_0_MEMBER_9_FILL"/>
</g>
</svg>
