
<svg xmlns="http://www.w3.org/2000/svg" version="1.1" xmlns:xlink="http://www.w3.org/1999/xlink" preserveAspectRatio="none" x="0px" y="0px" width="550px" height="400px" viewBox="0 0 550 400">
<defs>
<g id="Layer0_0_FILL">
<path fill="#000000" stroke="none" d="
M 8.35 62.25
L 4.5 70.05
Q -1.2 81.5 -11.7 81.5 -12.65 81.5 -14.3 79.95 -16 78.25 -16 76.8 -13.75 72.5 -13.75 72 -13.75 71.6 -42.75 58.2 -48.55 58.2 -48.55 64.7 -48.55 84.9 -40.1 92.3 -35 96.7 -26.1 96.7 -24.1 96.7 -21.8 98.55
L -23.95 104.9
Q -24.8 107.4 -24.8 108.7 -24.8 111.3 -24.6 111.7
L -23.95 112.1 -22.05 112.45
Q -18.9 112.45 -17.65 109.6 -16.45 107 -16.45 101 -16.45 93.2 -18.6 91.8
L -24.2 91.5
Q -34.15 91.8 -40.7 69.15
L -41.15 67.2
Q -21.6 79.65 -14.8 86.7 -11.6 90.1 -10.3 90.1 6.2 90.1 12.8 74.35 15.15 68.75 15.15 63.55 15.15 58.6 13.25 58.6 10.5 58.6 8.35 62.25
M 19.85 28.8
L 17.2 30.9
Q 15.15 30.9 13.75 32.05 12.35 33.2 12.35 34.8 6 31.65 -4.2 15.5 -13.1 1.6 -20.05 1.6 -29.55 1.6 -34.15 7.7 -38.9 14.1 -37 28
L -33.95 47.9
Q -32.95 53.9 -25.15 53.8 -17.4 53.4 -12.05 46.9 -6.8 40.25 -6.8 30.5 -6.8 28.15 -7.65 23.35
L -8.35 20.2
Q -4.5 25.15 1.3 35.45 6.55 43.1 12.8 43.1 15.8 43.1 20.3 40.1 25.8 36.45 25.8 31.8 25.8 29.7 24.95 28.8 24 27.75 21.6 27.75 21.25 27.75 19.85 28.8
M -15.8 12
L -13 13.55
Q -23.1 12.55 -24.8 27.5 -24.7 32.55 -21.5 32.55 -19.45 32.55 -18.05 28.55
L -16.75 23.7 -15.4 22.4
Q -17.55 41.3 -15.65 37.65 -13.85 34 -14.4 39.6 -16.85 46.6 -24.8 46.6 -26.65 46.6 -29.65 37.75 -32.35 29.85 -32.35 27.6 -32.35 9.65 -23.1 9.65 -20.65 9.65 -15.8 12
M 82.6 73.05
Q 82.4 64.05 83.6 59.9 84.65 55.6 84 53.4 81.75 56.75 74.4 62.65 67.15 68.5 64.45 67.85
L 64.6 69 64.75 75.9 66.5 76.15 78.1 69.5
Q 78.1 72.65 77.45 77.7 76.7 82.65 76.7 83.6 76.7 86.7 78.3 88.5 79.7 90.1 81.65 90.1
L 84.9 89.8
Q 85.6 88.15 85.6 85.55 85.6 84.1 84.2 83.05 82.75 81.9 82.6 73.05
M 84.1 38.3
Q 88.85 30.75 89.45 23.6 90.05 16.3 80.85 16.3 68.3 16.3 60.9 24.5
L 61.15 27.25
Q 61 28.8 61.15 31.15
L 61.35 34.65 64.25 34.4
Q 67.15 34 68.45 27.35 69.75 20.75 74.15 22.05 78.55 23.2 83.15 26.95 80.75 32.45 79.5 34 77.85 36.1 75.1 36.45
L 75 33.1 73.9 32.55
Q 73.05 31.9 71.75 31.9 68.45 31.9 68.45 37.9
L 68.65 41.8
Q 69.75 45.3 74.55 45.6 79.3 45.85 84.1 38.3 Z"/>
</g>
</defs>

<g transform="matrix( 1, 0, 0, 1, 0,0) ">
<use xlink:href="#Layer0_0_FILL"/>
</g>
</svg>
