
<svg xmlns="http://www.w3.org/2000/svg" version="1.1" xmlns:xlink="http://www.w3.org/1999/xlink" preserveAspectRatio="none" x="0px" y="0px" width="550px" height="400px" viewBox="0 0 550 400">
<defs>
<g id="Layer0_0_FILL">
<path fill="#000000" fill-opacity="0.30196078431372547" stroke="none" d="
M 107.6 139.6
Q 107.2 139.95 107.2 140.5 107.2 141.05 107.6 141.45 107.95 141.8 108.5 141.8 109.05 141.8 109.45 141.45
L 109.8 140.5
Q 109.8 139.95 109.45 139.6
L 108.5 139.2
Q 107.95 139.2 107.6 139.6
M 90.3 134.7
Q 89.6 134.7 89.15 135.2 88.65 135.65 88.65 136.3 88.65 136.95 89.15 137.45 89.6 137.9 90.3 137.9 91 137.9 91.5 137.45 91.95 136.95 91.95 136.3 91.95 135.65 91.5 135.2 91 134.7 90.3 134.7
M 38.9 129.3
Q 39.7 129.3 40.3 128.75 40.85 128.15 40.85 127.35 40.85 126.55 40.3 126 39.7 125.4 38.9 125.4 38.1 125.4 37.55 126 36.95 126.55 36.95 127.35 36.95 128.15 37.55 128.75 38.1 129.3 38.9 129.3
M 80.95 139.15
Q 78.95 139.15 77.55 139.95 76.15 140.7 76.15 141.8 76.15 142.9 77.55 143.7 78.95 144.45 80.95 144.45 82.95 144.45 84.35 143.7
L 85.4 142.8
Q 86.7 145.35 89.7 145.35
L 90.9 145.05 93.05 144.1
Q 92.8 147.2 96.55 148.15
L 104.25 148.9 103.85 147.1
Q 104.9 148.75 105.9 149.65
L 106.8 150.2
Q 109.9 150.2 111.8 148.1 113.35 146.35 113.3 144.4
L 112.55 144.2 107.25 145.55
Q 105.3 145.55 103.95 143.7
L 102.35 141.65
Q 102.65 144.4 103.6 146.65
L 103.25 146.15
Q 98.4 141.8 94.15 142.6
L 94.65 140.8 94.75 139.75
Q 93.05 140.7 91.4 140.7 90.05 140.7 87.95 139.45 85.5 138 84.2 136
L 84.6 140.05 84.35 139.95
Q 82.95 139.15 80.95 139.15
M 67.85 132.6
L 67.9 134
Q 68.6 139.15 70.35 140.7
L 71.9 141.85 71.4 142.3
Q 71.25 142.65 72.8 142.65 74 142.65 76.05 140.6 78.15 138.55 78.15 137.3
L 78 136.5 77.4 136.35 76.25 136.85 74.8 137.15
Q 72.75 137.15 70.85 135.85 69 134.65 67.85 132.6
M 75.6 132.65
Q 75.6 131.85 75.05 131.3 74.5 130.75 73.7 130.75 72.9 130.75 72.35 131.3 71.8 131.85 71.8 132.65 71.8 133.45 72.35 134 72.9 134.55 73.7 134.55 74.5 134.55 75.05 134 75.6 133.45 75.6 132.65
M 40.8 135.1
Q 41.75 134.15 41.85 132.8 34.85 132.25 34.85 125.8
L 35.2 123.25 35 123.1
Q 34.05 124 33.15 125.6 32.1 127.45 32.1 128.8 32.1 136.15 38 136.15 39.7 136.15 40.8 135.1
M 50.15 135.65
Q 47.8 133.1 42.65 131.75
L 42.45 131.85 42.4 132.5 41.95 133.6
Q 41.5 134.2 41.5 134.7 41.5 135.15 45.1 137.15 48.95 139.3 50.85 139.3
L 51.55 139.15
Q 51.5 138.95 51.6 138.8 51.65 137.3 50.15 135.65
M 51.15 130
Q 50.7 131.95 50.7 133.5 50.7 136.3 52.75 138.65 54.45 140.6 55.5 140.6 57.75 140.05 59.65 138.15
L 59.15 138.95 58.9 139.5 58.9 140 58.6 140.6 58.8 141.15 67.75 142.35 69.3 142.05 70.45 141.45
Q 69.2 138.55 66.05 137.1 62.9 135.6 60.55 136.85 61.35 134.85 60.4 134.85
L 54.85 135.15 51.15 130
M 54.95 130.1
Q 54.55 130.5 54.55 131.05 54.55 131.6 54.95 132 55.35 132.4 55.9 132.4 56.45 132.4 56.85 132 57.25 131.6 57.25 131.05 57.25 130.5 56.85 130.1 56.45 129.7 55.9 129.7 55.35 129.7 54.95 130.1
M 28.35 91.3
L 27.55 91.05
Q 23.05 95.75 19.9 100.4 16.75 105.05 16.75 106.95 16.75 107.5 18.9 109.1 21.6 111.15 24.55 111.15
L 29.3 110.35
Q 32.1 109.6 34.15 108.65 33.1 109.2 33.1 110.05 33.1 112 36.65 114.3 41 117.1 47.35 116.85 47.35 118.25 48.65 120.85 50.15 123.8 51.45 123.8
L 62.1 125.95
Q 69.65 125.95 86.35 130.3 103.05 134.6 108.4 134.6 115.95 134.6 120.2 133.15 124.3 131.75 124.3 129.45 124.3 124.75 122.95 122.6 121.6 120.5 118.75 120.5
L 117.35 120.75 116.4 121.85 117.35 123.45
Q 118.2 124.9 118.2 125.8 118.2 127.1 112.45 127.1 100.55 127.1 91.15 124.8 78.45 121.65 67.75 118.35 67.15 118.2 60.35 118.2
L 52.15 118.75 53.25 114.3 53 113.7 52.7 113.85
Q 49.5 114.4 46.25 113.9 41.45 113.05 41.45 109.85 41.45 108.65 43.7 106.85 45.9 105 45.9 103.8
L 45.8 102.9 45.45 102.25 45.15 103.35
Q 44.55 104.55 40.85 105.9
L 36.15 107.5 43.65 101.55 39.15 101.15 32.55 102.05
Q 30.5 102.05 29 100.3 27.45 98.45 27.45 95.7
L 28.8 91.65 28.35 91.3
M 1.35 75.75
Q 1.85 75.15 1.85 74.55 1.85 71.85 -0.7 63.95 -2.85 57.35 -4.2 54.35 -5.9 50.55 -8 49.65
L -15.6 47.8
Q -14.2 45.85 -12.9 45.5 -12.35 45.4 -12.35 43.45 -12.35 42.85 -14.75 38.6 -17.2 34.4 -17.2 31.8 -17.2 28.6 -16.05 27.1 -17.3 26.4 -18.45 26.4 -20.2 26.4 -21.1 28.8 -21.8 30.7 -21.8 33.5 -21.8 34.75 -20.55 38.2
L -19.55 40.45
Q -19.25 41.05 -19.25 41.6 -19.25 42.3 -19.5 42.85
L -22.55 48.6
Q -22.95 49.25 -22.95 49.8 -22.95 50.95 -20.1 52.6 -17.05 54.35 -14.15 54.35
L -10.8 54
Q -8.1 62.15 -5.85 65.9 -4.9 67.5 -4.9 70.6 -4.9 72.95 -7.65 75.45 -10.45 77.95 -10.45 79 -10.45 81.05 -9.2 83.55 -7.2 87.55 -3.15 87.55 -0.85 87.55 1.25 86.35 3.3 85.1 4.45 85.1 5.1 85.1 6.7 86.7
L 10.15 90.25
Q 15.55 95.4 20.75 95.4 22.35 95.4 22.35 93.5 20.65 89.55 17.25 87.55 14.8 86.1 12.55 84
L 9.35 81.2
Q 5.85 78.8 -2.45 79.5
L 1.35 75.75
M 12.85 78.85
Q 12.85 80.85 13.85 81.9 14.5 82.6 14.95 82.6
L 15.8 82.75 15.85 82.1 19.4 79.05
Q 22.95 76 22.95 75.5 22.95 74.85 22.6 74.3
L 21.8 73.25
Q 18.55 75.4 14.7 76.5 12.85 77.05 12.85 78.85
M 5.7 42.9
L 4.05 42.75
Q 3 42.75 -1.2 45.4 -5.5 48.1 -5.5 49
L -5.4 49.8 -4.65 51.15
Q -4.25 51.7 -3.65 51.7 0.15 51.7 3.15 49.35 6.1 47.05 6.1 44.15
L 5.9 43.25 5.7 42.9
M 148.2 91.8
L 147.15 89
Q 145.4 94.2 144.75 94.45
L 137.65 94.95 139.15 97.9
Q 138.85 97.6 138.3 97.6 137.5 97.6 137.45 100.05
L 137.15 105.4
Q 135.85 113.2 126.6 113.2 121.15 113.2 117.4 111.25
L 113.45 109.25
Q 112.35 109.25 110.35 109.95
L 111.05 110.2
Q 111.65 110.35 111.65 110.95 111.65 114 116.4 117.6 121.35 121.35 126 121.35 129.85 121.35 135.65 118.2 143.85 113.8 143.85 106.55
L 146.25 102
Q 148.65 97.25 148.65 94.1
L 148.2 91.8
M 89.55 45.6
Q 90.6 44.5 90.6 42.95 90.6 41.4 89.55 40.35 88.45 39.25 86.95 39.25 85.45 39.25 84.4 40.35 83.3 41.4 83.3 42.95 83.3 44.5 84.4 45.6 85.45 46.65 86.95 46.65 88.45 46.65 89.55 45.6
M 101.1 8.95
Q 99.45 8.05 97.15 8.05 94.85 8.05 93.25 8.95 91.6 9.8 91.6 11.05 91.6 12.3 93.25 13.2 94.85 14.05 97.15 14.05 99.45 14.05 101.1 13.2 102.7 12.3 102.7 11.05 102.7 9.8 101.1 8.95
M 94.5 -17.6
Q 92.3 -18.95 89.6 -18.95 83.75 -18.95 82.8 -12.1 82.65 -3.6 81.25 -0.4
L 76.8 4.35
Q 75.5 5.55 75.5 7.25 75.5 10.6 78.65 11.65 81.75 12.7 81.75 16.9 81.75 26.15 78.35 29.9 74.95 32 74.95 32.95
L 72.3 34.05
Q 69.65 35.25 69.65 36.15 69.65 41.55 73.5 44.25
L 76.15 46.3
Q 77.3 47.55 77.25 49.6 77.1 54.95 77.6 56.3 77.85 57 79.5 58.1 82.1 56.35 82.1 48.4 82.1 42.35 80.45 40.85
L 74.55 38
Q 75.35 37.4 75.35 36.9 80.5 36.55 81.05 36.05 82.1 35.15 84.45 25.9 86.6 17.5 87.6 15.6 87.9 15.05 87.9 13.5 87.9 8.9 82.55 6.7 84.1 3.8 86.5 2.8 87.65 2.35 88.4 -4.45 89.4 -13.65 91.55 -15.85 92.7 -17.1 94.6 -17.4
L 94.5 -17.6 Z"/>
</g>
</defs>

<g transform="matrix( 1, 0, 0, 1, 0,0) ">
<use xlink:href="#Layer0_0_FILL"/>
</g>
</svg>
