
<svg xmlns="http://www.w3.org/2000/svg" version="1.1" xmlns:xlink="http://www.w3.org/1999/xlink" preserveAspectRatio="none" x="0px" y="0px" width="550px" height="400px" viewBox="0 0 550 400">
<defs>
<g id="Layer0_0_FILL">
<path fill="#000000" stroke="none" d="
M 88.3 -20.7
Q 86.65 -20.7 83.55 -16.7 79.95 -12.05 79.95 -7.2 79.95 -1.05 77 0.4 75.35 1.15 74.95 1.7 74 2.85 74 5.55 74 8.6 74.95 10.4 76.35 13.25 80.35 14.7 78.45 20.85 77.1 26.95 76.1 30.15 72.6 31.2 69.9 32.05 68.45 34.4 67.35 36.15 67.35 37.75 67.35 41.95 70.2 44.65 72.45 46.8 75.05 47.1
L 74.5 53.85 65.25 50.9
Q 64.15 50.9 53.8 55.25 43.4 59.6 42.5 60.45 41.5 61.5 35.6 73 29.4 84.05 26 84.05 21 82.45 20.2 81.6 21.85 81.65 23.35 77.35
L 24.55 72.95
Q 24.55 69.65 21.7 69.25
L 15.5 69.1
Q 6.4 68.15 6.4 51.3 6.4 50.8 6.9 49.9
L 7.35 48.5
Q 7.35 42.15 5.6 39.15 3.7 35.9 -0.6 35.9 -3.3 35.9 -8.85 38
L -8.9 37.6
Q -9.65 32.1 -12.1 28.15 -14.4 24.55 -17.2 23.5 -20 22.4 -21.9 24.5 -23.95 26.75 -23.95 32.05 -23.95 34.25 -22.25 38.55
L -20.6 42.55
Q -20.6 43.2 -23 45.5
L -25.45 48.1
Q -25.45 49.85 -23.7 52.15 -21.1 55.55 -16.3 55.55 -11.8 55.55 -9.4 59.7 -7.2 63.5 -5.7 72.95 -10.6 73.6 -12.3 75.8 -13.2 76.9 -13.2 78.65 -13.2 83.1 -10.7 85.85 -8.2 88.7 -4 88.7 -1.65 88.7 4.65 86.3 8.15 88.55 11.7 93.25 14.25 96.55 16.85 96.55
L 18.05 96.3
Q 15.65 100 13.75 106.15 13.75 107.9 16.4 109.55 20.3 112 28.2 112 28.8 112 33.45 115.25 38.8 118.45 43.05 118.45
L 45.5 118.2 46.25 122.65 40 120.95
Q 37.85 120.25 36.55 120.25 35.15 120.25 33.15 122.75 31.05 125.45 31.05 127.95 31.05 132.15 33.15 134.75 35.15 137.25 38.1 137.25 40.25 137.25 48.55 140.4 59.3 143.5 73.75 143.5
L 93 147.55
Q 94.95 147.95 99.25 150.05 103 151.9 104.7 151.9 108.65 151.9 110.1 151.2 114.7 148.95 114.7 140.85 114.7 139.4 114.05 137.95 121.65 136.65 124.5 134.65 127.25 132.75 127.25 128.9 127.25 127.6 126.3 124.85 132.7 124.3 137.25 119.9 140.3 117 143.3 111.2 144.1 109.65 148.1 106 151.7 101.8 151.7 96.4 150 87.9 147.7 84.3 145.65 81.1 139.45 77.2 133.75 73.95 133.75 73.7
L 133.7 73.1
Q 133.35 72.6 131.85 72.6
L 123.85 72.05
Q 122.45 72.05 111.9 74.7
L 101.5 77.35
Q 94.6 77.35 91.45 70.45 97.75 69 101.05 62.4 103.2 58.15 103.2 55.05 103.2 51.2 97.4 51.2 94.5 51.2 92.8 51.95 90.5 53.05 86.7 53.6
L 86.45 52
Q 86.6 51.4 91.15 45.3 95.3 39.65 95.3 36.9
L 93.15 33.15 95.15 15.85
Q 98.65 18.6 102.2 14.3 105.6 10.05 105.6 3.85 105.6 0.1 102.5 -1 98.45 -1.9 96.45 -3.2 97.6 -5.3 98.2 -8.25
L 98.55 -11.55
Q 98.55 -16.05 95.4 -18.5 92.6 -20.7 88.3 -20.7
M 82.95 -1.85
L 83.15 -8.4
Q 83.65 -17 89.85 -17 92.15 -17 93.3 -16.3 95.15 -15.2 95.15 -12.15
L 94.35 1.45 101.3 1.95
Q 102.35 2.75 102.35 7.3 102.35 9.95 101.35 11.05 100.35 12.2 97.85 12.2 95.35 12.2 91.9 10.75
L 91.45 12.2
Q 91.3 12.7 91.3 13.35 91.3 13.85 91.75 13.8 92.2 13.75 92.2 14.25
L 89.3 32 85.95 31.7 85.65 32.6
Q 86 33.35 88.75 34.7 91 35.8 91 38.3 91 40.85 86.85 43.1 82.7 45.4 82.7 48.65
L 82.75 53.45
Q 82.5 56.25 80.7 57.8
L 78 55.8
Q 79.25 53.1 80.35 47.2 80.35 44.7 78.8 43.7 77.95 43.15 75.45 42.7 73 42.25 72.05 41.45 70.5 40.25 70.5 37.4 70.5 34.1 74.9 33.8 80.25 33.5 81.1 32.5
L 79.9 31 79 30.2
Q 81.05 26.95 83.1 21.85 85.45 16.05 85.45 13.25 85.45 12.5 83.4 11.55
L 79.6 9.75
Q 75.25 7 81.35 2.5 82.7 1.5 82.95 -1.85
M 99.6 55.15
Q 100.15 56 100.15 57
L 100 57.75 99.45 58.25 90.15 68.5 83.75 60.5 99.6 55.15
M 101.9 80.05
Q 105.25 80.05 114.45 77.85 124.15 75.55 126.35 75.4 117.75 87.15 117.5 90.95 117.25 95.25 126.6 95.25
L 133.5 94
Q 136.9 94 139.4 100.2 140.65 103.35 141.25 106.55 141.25 111.95 136.55 116.4 132.35 120.4 128.65 120.4 126.45 120.4 124.45 118.95 120.85 116.35 112.15 113.3 113 112.25 113.6 110.25
L 114.1 107.3
Q 114.1 106.65 113.65 106.5
L 112.45 106.45 111.6 106.55 111.5 106.6
Q 105.65 112.4 100.6 118.05
L 102.15 118.25 105.8 117.5
Q 108.55 116.75 109.55 116.1 110.1 116.95 113.75 119.85
L 118 123
Q 120.5 124.45 121.3 124.35
L 123.2 131 110.7 134.3
Q 102.15 134.3 97.65 132.45 92.45 130.3 88.35 129.95 81.4 129.35 77.4 127.8 73.9 126.45 72.15 126.45 63.4 126.45 57.2 124.95 48.3 122.8 47 117.85 48.7 117.3 50 116.5 51.3 115.75 53 114.25
L 52.8 114.05
Q 47.7 115.55 41.6 114.1 36.4 112.85 34.65 110.95 37.85 110.4 42.1 106.95 45.45 104.2 47.05 101.85
L 44.1 100.4
Q 42.35 100.4 40 101.6
L 35.3 104.2
Q 28.15 107.95 20 107.95
L 18.7 107.65
Q 18.1 107.3 18.1 106.7 18.1 105.15 22.3 99.7 26.95 93.8 32.65 88.6
L 32.45 88.35 31.85 87.75 30.8 87.45
Q 29.85 87.45 28.6 87.95
L 28.35 86.95 29.3 86.75
Q 33.3 86.45 36.9 79.9 40.55 71.95 42.6 68.95 47.75 61.5 55.5 57.4 61.5 54.2 65.7 54.2 71.55 54.2 76.2 58.25 78.9 60.6 83.5 67.15 88 73.55 90.95 76 95.75 80.05 101.9 80.05
M 136.75 92.1
Q 138.55 91 140.25 87.65 141.65 84.9 142 82.95 144.5 86.75 146.6 93.95
L 145.6 97.05
Q 144.6 99.7 144.6 101.45
L 144.55 102.8 143.8 104.3 143.6 102.75
Q 143.85 100.95 140.55 96.6 138 93.15 136.75 92.1
M 3.75 44.85
Q 3.5 47.15 1.5 48.55 -0.75 50.25 -4.6 50.05
L -3.95 50.85
Q -2.95 52.65 0.7 52.75
L 3.2 52.5
Q 3.8 59.25 5.55 64.7 6.8 68.7 7.9 70.25 6 70.45 5.05 71.45 4.4 72.1 4.4 72.75 4.4 73.1 5.9 74.25
L 10.4 72.9
Q 14.7 71.65 16.1 71.65 17.65 71.65 19.2 72.5 21.25 73.65 21.25 75.6 21.25 76.8 17.55 78.1 13.85 79.45 13.85 80.9 13.85 81.95 15.4 82.9
L 24.75 88.95
Q 24.4 89.8 22.5 91.45 20.45 93.2 19.9 94.15
L 15.8 91.35 12.1 88.15 6.55 81.9
Q 5.25 81.9 0.3 83.9
L -4.8 85.85
Q -6.7 85.85 -7.85 84.65 -9.25 83.2 -9.25 80.15 -9.25 78 -6.4 77 -2 75.5 -0.15 74 -1.65 73.15 -2.95 72.95 -1.5 67.8 -4.7 60.95 -7.5 55.15 -10.7 52.95 -10.4 52.85 -9.5 50.55 -12.05 52.05 -16.75 52 -21.75 52 -21.75 49.15 -21.75 47.15 -18.7 46.15
L -15.05 45.35
Q -15.05 44.25 -18.05 40.7 -21.1 37.1 -21.1 34.25 -19.85 28.4 -19.25 26.85 -14.15 30.35 -12.3 34.35 -11 37.15 -11 41.35 -11 42.35 -11.15 43 -9.3 41.95 -5.45 40.55 -2 39.25 -1.55 39.25 1.05 39.25 2.6 41 4 42.65 3.75 44.85
M 55.9 125.55
Q 58 125.55 59.5 127.7 60.95 129.8 60.95 132.8 60.95 135.8 59.5 137.95 58 140.05 55.9 140.05 53.8 140.05 52.35 137.95 50.85 135.8 50.85 132.8 50.85 129.8 52.35 127.7 53.8 125.55 55.9 125.55
M 42.85 128.65
Q 42.85 131.65 41.4 133.75 39.9 135.85 37.85 135.85 35.8 135.85 34.35 133.75 32.85 131.65 32.85 128.65 32.85 125.65 34.35 123.55 35.8 121.45 37.85 121.45 39.9 121.45 41.4 123.55 42.85 125.65 42.85 128.65
M 50.6 127.9
Q 49.1 129.95 49.1 131.8 49.1 135.5 51 138.55
L 41.8 135.25
Q 42.55 134.3 43.6 130.9 44.6 127.8 44.6 126.95
L 44.15 124.15 52.5 125.8
Q 51.5 126.6 50.6 127.9
M 80.2 132.95
Q 80.2 131.85 79.1 129.3
L 86.65 130.95
Q 84.75 131.5 83.75 134.15 83 136.2 83 138.85 83 139.5 83.7 141.55 84.4 143.5 84.6 143.6
L 76.55 142.4 77.15 141.8
Q 78.3 140.25 79.35 136.5
L 80.2 132.95
M 76.95 129.75
Q 78.4 131.85 78.4 134.85 78.4 137.85 76.95 140 75.45 142.1 73.4 142.1 71.35 142.1 69.9 140 68.4 137.85 68.4 134.85 68.4 131.85 69.9 129.75 71.35 127.6 73.4 127.6 75.45 127.6 76.95 129.75
M 62.65 130.95
L 62.2 128.75 61.15 126.6 70.25 127.6
Q 67.8 128.8 67 131.35 66.6 132.55 66.6 134.6 66.6 137.1 68 139.55 69.05 141.3 70.1 142.05
L 69.25 142 58.85 140.45
Q 59.85 139.65 61.1 137.15 62.65 133.95 62.65 130.95
M 86.3 133.1
Q 87.75 131 89.8 131 91.85 131 93.35 133.1 94.8 135.2 94.8 138.2 94.8 141.2 93.35 143.3 91.85 145.4 89.8 145.4 87.75 145.4 86.3 143.3 84.8 141.2 84.8 138.2 84.8 135.2 86.3 133.1
M 93.2 145.55
Q 95.45 142.15 96.15 139.45 97.1 135.95 95.8 132.95
L 105.8 135.05
Q 103.15 136.6 102.05 138.65 101.15 140.3 101.15 142.55
L 101.7 145.05
Q 102.4 147.65 102.95 148.6 98.3 146.65 93.2 145.55
M 111.55 137.8
Q 113 139.9 113 142.9 113 145.9 111.55 148.05 110.05 150.15 107.95 150.15 105.85 150.15 104.4 148.05 102.9 145.9 102.9 142.9 102.9 139.9 104.4 137.8 105.85 135.65 107.95 135.65 110.05 135.65 111.55 137.8
M 74.95 80.35
Q 74.95 78.8 73.9 77.75 72.8 76.65 71.3 76.65 69.8 76.65 68.75 77.75 67.65 78.8 67.65 80.35 67.65 81.9 68.75 83 69.8 84.05 71.3 84.05 72.8 84.05 73.9 83 74.95 81.9 74.95 80.35
M 81.6 79
Q 82.75 77.8 82.75 76.1 82.75 74.4 81.6 73.25 80.4 72.05 78.75 72.05 77.1 72.05 75.95 73.25 74.75 74.4 74.75 76.1 74.75 77.8 75.95 79 77.1 80.15 78.75 80.15 80.4 80.15 81.6 79 Z"/>

<path fill="#FFCC33" stroke="none" d="
M 113 142.9
Q 113 139.9 111.55 137.8 110.05 135.65 107.95 135.65 105.85 135.65 104.4 137.8 102.9 139.9 102.9 142.9 102.9 145.9 104.4 148.05 105.85 150.15 107.95 150.15 110.05 150.15 111.55 148.05 113 145.9 113 142.9
M 89.8 131
Q 87.75 131 86.3 133.1 84.8 135.2 84.8 138.2 84.8 141.2 86.3 143.3 87.75 145.4 89.8 145.4 91.85 145.4 93.35 143.3 94.8 141.2 94.8 138.2 94.8 135.2 93.35 133.1 91.85 131 89.8 131
M 78.4 134.85
Q 78.4 131.85 76.95 129.75 75.45 127.6 73.4 127.6 71.35 127.6 69.9 129.75 68.4 131.85 68.4 134.85 68.4 137.85 69.9 140 71.35 142.1 73.4 142.1 75.45 142.1 76.95 140 78.4 137.85 78.4 134.85
M 41.4 133.75
Q 42.85 131.65 42.85 128.65 42.85 125.65 41.4 123.55 39.9 121.45 37.85 121.45 35.8 121.45 34.35 123.55 32.85 125.65 32.85 128.65 32.85 131.65 34.35 133.75 35.8 135.85 37.85 135.85 39.9 135.85 41.4 133.75
M 59.5 127.7
Q 58 125.55 55.9 125.55 53.8 125.55 52.35 127.7 50.85 129.8 50.85 132.8 50.85 135.8 52.35 137.95 53.8 140.05 55.9 140.05 58 140.05 59.5 137.95 60.95 135.8 60.95 132.8 60.95 129.8 59.5 127.7 Z"/>
</g>
</defs>

<g transform="matrix( 1, 0, 0, 1, 0,0) ">
<use xlink:href="#Layer0_0_FILL"/>
</g>
</svg>
