
<svg xmlns="http://www.w3.org/2000/svg" version="1.1" xmlns:xlink="http://www.w3.org/1999/xlink" preserveAspectRatio="none" x="0px" y="0px" width="550px" height="400px" viewBox="0 0 550 400">
<defs>
<g id="MovieClips_Symbol_228_12_Layer1_0_FILL">
<path fill="#FF9933" stroke="none" d="
M 40.1 11.3
L 38.3 10.55 36.05 10.1
Q 31.15 9.1 24.85 9.05
L 24 8.75
Q 16.1 8.05 14.1 5.65
L 13.25 4.4
Q 13.05 4.25 12.7 4.25
L 9.65 1
Q 7.55 -0.75 4.5 -0.75 -2.65 -0.75 -8.95 5.8 -14.15 11.25 -14.15 14.2 -14.15 26.85 -4.05 31.65 4.3 35.65 20.8 34.65
L 29.95 20.15
Q 34.5 12.65 40.1 11.3 Z"/>
</g>
</defs>

<g transform="matrix( 1, 0, 0, 1, -28.15,-10.5) ">
<g transform="matrix( 1, 0, 0, 1, 0,0) ">
<use xlink:href="#MovieClips_Symbol_228_12_Layer1_0_FILL"/>
</g>
</g>
</svg>
