
<svg xmlns="http://www.w3.org/2000/svg" version="1.1" xmlns:xlink="http://www.w3.org/1999/xlink" preserveAspectRatio="none" x="0px" y="0px" width="550px" height="400px" viewBox="0 0 550 400">
<defs>
<g id="Graphics_Symbol_241_0_Layer0_0_FILL">
<path fill="#FFFFFF" stroke="none" d="
M 45.4 34.1
Q 47.3 33.4 47.3 32.45 47.3 25.5 44.7 22.2 41.5 19.55 40.3 17.65 47.45 16 49.35 30.3 49.3 31.15 49.75 31.1
L 50.25 30.85
Q 51.55 29.55 52.55 27.05 53.45 24.75 53.45 23.3 53.45 18.35 50.6 16.1 48.5 14.35 40.1 11.3 32.1 11.3 26.45 18.15 20.8 25 20.8 34.65 23.05 35.8 30.25 35.8
L 36.55 35.6 34.3 29.85
Q 32.2 24.65 31.9 23.05 31.95 22.3 32.6 22
L 34 21.85
Q 34.95 21.85 36.8 25.9 38.95 30.55 38.95 35 38.95 36 39.65 35.5 43.75 34.7 45.4 34.1 Z"/>
</g>
</defs>

<g transform="matrix( 1, 0, 0, 1, -28.4,-10.7) ">
<g transform="matrix( 1, 0, 0, 1, 0,0) ">
<g transform="matrix( 1, 0, 0, 1, 0,0) ">
<use xlink:href="#Graphics_Symbol_241_0_Layer0_0_FILL"/>
</g>
</g>
</g>
</svg>
