
<svg xmlns="http://www.w3.org/2000/svg" version="1.1" xmlns:xlink="http://www.w3.org/1999/xlink" preserveAspectRatio="none" x="0px" y="0px" width="550px" height="400px" viewBox="0 0 550 400">
<defs>
<g id="Layer0_0_FILL">
<path fill="#FFFFFF" stroke="none" d="
M 69.6 3.85
Q 69.55 1.3 68.3 0.85 65.95 0.05 62.35 -0.05 58.2 0.05 56.2 0.05 47.55 0.05 43.3 0.75 34.25 2.4 24.15 9.95 15.3 16.65 9.4 23.9 2.2 32.7 0.05 41.55 0.35 44.85 1.05 44.05 3 41.85 6.05 37.3 9.25 32.5 10.95 30.45 17.1 23.15 25.45 16.85 30.45 13.05 34.9 10.95 40.1 8.45 45.45 7.75 49.7 7.25 55.85 7.25 57.85 7.25 62.2 7.45 66 7.45 68.35 6.65 69.6 6.35 69.6 3.85 Z"/>
</g>
</defs>

<g transform="matrix( 1, 0, 0, 1, 0,0) ">
<use xlink:href="#Layer0_0_FILL"/>
</g>
</svg>
