
<svg xmlns="http://www.w3.org/2000/svg" version="1.1" xmlns:xlink="http://www.w3.org/1999/xlink" preserveAspectRatio="none" x="0px" y="0px" width="550px" height="400px" viewBox="0 0 550 400">
<defs>
<g id="Layer0_0_FILL">
<path fill="#000000" stroke="none" d="
M 55.75 25.3
L 54.15 25.85 52.6 27.65 52.6 27.7
Q 52.2 28.15 51.6 28.2 51 28.25 50.55 27.9
L 50.45 27.85
Q 50 27.45 49.95 26.85
L 49.5 23.15
Q 37.25 28.3 32.25 42
L 32.2 42 31.75 42.6 31.1 42.95 31.05 42.95 29.8 43.15 29.05 43.05 29 43.05 28.4 42.6 -4.6 2.55 23.05 41.8 23.25 42.7 22.9 43.55 22.85 43.55 22.1 44.05 2.35 48.4
Q 4.65 52.6 9.25 55.1
L 9.3 55.1 9.35 55.15 10.85 55.7 10.9 55.75 11.55 56.3 11.6 56.3 11.8 57.15 11.8 57.2 11.5 58.05 4.75 66.45 5 67.95
Q 11.9 69.4 20.55 67.75
L 20.75 67.7 20.65 67.7
Q 23.65 67.2 26.3 66.3 26.8 66.1 27.3 66.3
L 27.25 66.3
Q 27.75 66.45 28.05 66.85
L 28.05 66.9
Q 28.35 67.3 28.3 67.8
L 28.3 67.85 27.95 68.7
Q 18.55 79.25 21.1 92.5
L 21.1 92.55
Q 22.25 98.7 23.85 104.85
L 23.85 104.8
Q 26.1 113.1 29.7 120.95 34.1 130.55 41.55 138.15 48.7 145.6 59.25 147.55 85.5 152.6 105.85 136.95 126.8 120.85 114.6 100.5 108.15 90 101.25 79.95 92.6 67.15 79.25 58.5 71.5 53.55 62.45 52.45 62 52.4 61.7 52.15
L 61.2 51.5 61.15 50.65
Q 62.8 42.35 66.65 33.4 67.15 32.25 67.3 30.8 67.4 29.65 66.85 28.65 65.8 26.9 63.75 26.2
L 63.65 26.15
Q 59.75 25.05 55.75 25.3
M 59.5 30.45
Q 59.8732421875 30.4966796875 60.25 30.8
L 60.75 31.55 60.75 32.4
Q 56.9 44.4 55.2 47.75 55.1 48.85 56 50.15
L 56.05 50.2 56.25 51.2 55.85 52.05 55.8 52.1
Q 55.45 52.45 54.95 52.5
L 54.9 52.5
Q 48 53.25 41.45 57
L 41.5 57 40.45 57.2 40.4 57.2 39.5 56.6 35.55 51.45 35.5 51.4 35.3 50.95 35.2 50.35 35.2 50.3
Q 37.1 37.8 39.75 33.7
L 39.75 33.75
Q 42.3 28.95 59.45 30.45
L 59.5 30.45
M 27.9 48.7
L 27.9 48.65 34.05 55 34 55 34.45 55.8 34.45 55.85 34.3 56.75 33.65 57.4
Q 25.1208984375 62.1384765625 14.95 63.05
L 10.5 63.75
Q 9.9 63.8 9.45 63.5
L 9.4 63.5
Q 8.95 63.2 8.85 62.7
L 8.8 62.6
Q 8.65 62.05 8.9 61.6
L 8.95 61.6
Q 9.2 61.05 9.7 60.85
L 9.75 60.85 23.45 55.8 23.35 53.8 12.5 52.7
Q 11.9 52.65 11.55 52.2 11.15 51.8 11.15 51.2 11.15 50.65 11.55 50.25
L 11.55 50.2
Q 11.95 49.8 12.5 49.7
L 26.65 48.2 27.3 48.3 27.35 48.3 27.9 48.7
M 32.25 76.85
L 32.3 76.7
Q 39.7 58.05 63.5 58.05 77.3 57.85 96.6 81.1 104 90.05 109.1 99 114.3 108.2 114.2 112.4 114.3 125.15 101.25 134.35 88 143.7 68.2 143.7 49.65 143.75 38.25 124.35 32.9 115.25 30.85 106.55
L 30.75 106.4
Q 30.45 105.95 30.5 105.5
L 30.55 105.2 29.95 101.7 30.05 101.05 30.05 100.95 30.1 100.9 29.75 100.35 29.7 100.35 29.5 99.65
Q 29 91.35 30.45 84.6
L 30.35 84.45 30.35 84.4 30.2 83.55 30.25 83.5
Q 30.9 80.15 32.25 76.85
M -21.15 -17.2
L -21.2 -17.1
Q -20.6 -17.25 -21.15 -17.2 Z"/>
</g>
</defs>

<g transform="matrix( 1, 0, 0, 1, 0,0) ">
<use xlink:href="#Layer0_0_FILL"/>
</g>
</svg>
