
<svg xmlns="http://www.w3.org/2000/svg" version="1.1" xmlns:xlink="http://www.w3.org/1999/xlink" preserveAspectRatio="none" x="0px" y="0px" width="550px" height="400px" viewBox="0 0 550 400">
<defs>
<g id="Layer0_0_FILL">
<path fill="#FFFFFF" fill-opacity="0.25098039215686274" stroke="none" d="
M 31.4 79.75
L 34.1 82.9
Q 44.75 78.55 53.2 74.5 57.55 72.65 63.5 72.65 78.5 72.65 89.4 84.5 99.5 95.5 99.5 108.3 99.5 118.8 93.45 126.05 86.55 134.35 74.25 134.35 62.65 134.35 52.65 125.85 42.35 117.1 42.35 106.25 42.35 99 48.05 93.55 53.8 88.1 61.65 88.1 69.05 88.1 74.45 93.1 80.25 98.5 80.25 106.9 80.25 109.3 78.4 110.25 76.7 111.15 72.75 111.15
L 69.9 110.5
Q 67.75 109.8 66.2 108.95
L 69.2 103
Q 65.55 103.2 62.25 105.45 59.5 107.4 59.5 108.45 59.5 111.8 63.65 114.5 67.7 117.15 72.25 117.15 79.3 117.15 83.15 113.3 86.4 110.1 86.4 105.75 86.4 99 80.55 92.25 73 83.5 60.25 83.5 51.3 83.5 44.6 88.6 36.55 94.75 36.55 105.8 36.55 118.4 48.35 128.85 60.75 139.85 77.25 139.85 89.5 139.85 97.9 131.7 106.55 123.35 106.55 110.45 106.55 91.35 92.05 78.5 86.05 73.2 78.65 70.2 71.65 67.35 65.35 67.35 58.25 67.35 48.45 71.2 40.15 74.4 31.4 79.75 Z"/>

<path fill="#000000" stroke="none" d="
M 53.3 28.35
Q 49.25 31.25 46.85 36.15 44.5 40.85 44.5 45.55 44.5 51.1 47.85 54.3 51.7 39.05 53.3 28.35 Z"/>
</g>
</defs>

<g transform="matrix( 1, 0, 0, 1, 0,0) ">
<use xlink:href="#Layer0_0_FILL"/>
</g>
</svg>
