
<svg xmlns="http://www.w3.org/2000/svg" version="1.1" xmlns:xlink="http://www.w3.org/1999/xlink" preserveAspectRatio="none" x="0px" y="0px" width="550px" height="400px" viewBox="0 0 550 400">
<defs>
<g id="Layer0_0_FILL">
<path fill="#FFFFFF" stroke="none" d="
M 3.45 2.3
Q 4.15 1.5 3.55 0.65 3.15 0.25 2.9 0.2 2.35 -0.05 1.95 0
L 1 0.25 0.7 0.4 0.35 0.95 0.05 1.25
Q 0 1.45 0.05 1.4
L 0.45 1.4 0.7 1.55 0.75 1.55 0.85 1.65
Q 1.1 1.7 1 1.65
L 1.65 1.85 1.95 2 2.3 2.1 2.9 2.4
Q 3.2 2.55 3.45 2.3 Z"/>
</g>
</defs>

<g transform="matrix( 1, 0, 0, 1, 0,0) ">
<use xlink:href="#Layer0_0_FILL"/>
</g>
</svg>
