
<svg xmlns="http://www.w3.org/2000/svg" version="1.1" xmlns:xlink="http://www.w3.org/1999/xlink" preserveAspectRatio="none" x="0px" y="0px" width="550px" height="400px" viewBox="0 0 550 400">
<defs>
<g id="Graphics_Symbol_245_0_Layer0_0_FILL">
<path fill="#CCCCCC" stroke="none" d="
M -11.65 23.7
L -14.55 23.75
Q -14.35 26.35 -14.5 27.15
L -11.35 27.3 -11.75 25.85 -11.65 23.7
M -7 -12.45
Q -7 -13.35 -6.45 -14 -5.90859375 -14.63984375 -5.25 -14.65 -6.008203125 -14.658203125 -6.6 -15.25 -7.25 -15.9 -7.25 -16.75
L -7.5 -16.75 -7.6 -17.5
Q -8.2 -18.05 -6.75 -18.15
L -3.1 -18.55 -16.3 -20.15 -16.5 -8.3
Q -16.5 -7.8 -15.7 -7.6
L -14.05 -7.1 -14.05 -7.25
Q -14.8 -8.4 -15.15 -9.45 -15.9 -11.8 -15.9 -15.3 -15.9 -16.8 -15.3 -17.9 -14.5 -19.5 -12.85 -19.35 -12.75 -19 -12.8 -18.15
L -12.05 -19.1
Q -10.7 -18.65 -10.7 -16.15
L -12 -8.6 -11.75 -7.35 -11.35 -6.35 -2.75 -4.6 -0.25 -4.2 -0.6 -5.3 -0.7 -6.45 -5.2 -6.9 -5.45 -6.95 -5.9 -6.95 -6.55 -7.05 -6.85 -7.35 -6.85 -7.4
Q -7.85 -7.75 -8.35 -8.05
L -8 -8.1 -3.65 -9.55 -0.7 -9.05 -0.25 -9.05 0.1 -13.5 -1.65 -13.75
Q -1.85 -12.15 -3.3 -10.95 -4.8 -9.7 -6.15 -10.05 -7 -9.85 -7.1 -10.95
L -7 -12.45
M 2.25 24.25
L 2.3 23.2 -4.1 23.4 -3.7 27.6 1.8 27.5 1.45 26.6 1.4 25.7
Q 1.4 25.1 1.85 24.6
L 2.25 24.25
M 7.8 23
L 5.2 23.1
Q 5.75 24.75 5.8 26.9
L 7.75 26.65 7.8 23
M 18.45 22.9
L 19.4 22.9 19.9 22.35 11.7 22.9 11.8 26.1 18.85 25.45
Q 18.55 24.85 18.45 22.9
M 23.05 21.9
L 22.9 23.8 22.45 25.35 27.1 25.25 26.9 21.4 23.05 21.9
M 36.55 20.3
L 30.45 21 30.2 25.1 34.65 25
Q 34.95 23.3 35.35 22.2
L 36.55 20.3
M 43.5 19.75
L 44.25 21.5
Q 44.55 22.75 44.35 24.75
L 51.2 24.55 51.2 24.4 50.85 24.45
Q 50.85 22.5 51.15 22.1
L 52.55 19.95
Q 47.55 19.65 43.5 19.75
M 67.15 24.2
Q 66.75 22.65 66.65 21.2
L 60.3 20.65
Q 60.5 23 60.25 24.4
L 67.15 24.2
M 18.1 -16.4
L 18.8 -17.95
Q 19.65 -16.7 20.4 -12.8 21.25 -8.1 20.6 -4.55
L 34.4 -6.35
Q 35.8 -6.75 36.15 -7.8 36.45 -8.6 36.45 -11.3 36.45 -15.3 36.05 -17.4
L 35.35 -20.95 32 -20.15 32 -20 32.05 -19.7
Q 32.15 -19.5 32.35 -19.95
L 32.4 -19.8 31.95 -19.25 31.55 -10.5 31.45 -9.85 35.45 -10
Q 34.65 -9.45 30.9 -8.35 26.8 -7.1 24.2 -6.8
L 23.45 -6.9 23.35 -7.7 23.4 -8.5
Q 22.95 -8.55 22.8 -8.75
L 22.65 -9.4
Q 23.05 -10.2 24.45 -10.55
L 26 -10.8
Q 24.55 -10.8 23.55 -11.45 22.5 -12.15 22.5 -13.1 21.25 -13.5 20.75 -14
L 21.3 -14.75 22.25 -14.85 23.9 -14.95 25.45 -14.85 25.3 -14.95
Q 27.4 -15.25 28.4 -14.25 29.05 -13.6 29.05 -12.85 29.05 -11.85 28.05 -11.3
L 27 -10.9 30.1 -11.25
Q 29.6 -12.1 28.85 -16.55 24.85 -15.55 22.45 -15.55 21.8 -15.55 21.6 -15.85
L 21.35 -16.55 21 -17.15 26.65 -18.95 31.35 -19.95 17.45 -18.65 8.05 -18.35 0.65 -18.4 3.15 -17
Q 3 -16.5 2.5 -16.3
L 3.55 -13.5 3.8 -12.5 2.95 -3.95 18.55 -4.4 18.55 -8.5
Q 18.3 -6.6 16.8 -5.9 16.35 -5.95 16.15 -6.35
L 16.05 -6.8 12.25 -6.3 8.75 -6.05 6.95 -6.3
Q 7.1 -6.7 6.7 -7.05
L 7.55 -7.55
Q 11.9 -7.55 15 -10.15 18.1 -12.75 18.1 -16.4
M 14.3 -13.7
L 12.75 -13.7 13.35 -13.2 13.6 -12.25
Q 13.6 -11.6 12.6 -10.8 11.5 -9.9 10.15 -9.9
L 7.9 -10 7.95 -11.9 7.6 -12.35 8.25 -14.05 5.75 -14.15
Q 5.65 -15.1 5.9 -16.05
L 4.85 -16.15 4.75 -16.85 5 -17.7 11.8 -17.8
Q 12.45 -17.8 12.95 -17.4
L 13.35 -16.9 13.1 -16.8
Q 14.4 -15.3 14.4 -14.25
L 14.35 -13.6 14.3 -13.7 Z"/>

<path fill="#FFFFFF" stroke="none" d="
M -12.8 -18.15
Q -12.75 -19 -12.85 -19.35 -14.5 -19.5 -15.3 -17.9 -15.9 -16.8 -15.9 -15.3 -15.9 -11.8 -15.15 -9.45 -14.8 -8.4 -14.05 -7.25 -12.8 -9.75 -12.8 -18.15 Z"/>
</g>

<g id="Graphics_Symbol_285_0_Layer3_0_FILL">
<path fill="#FFFFFF" stroke="none" d="
M -9.2 26.7
Q -9.05 27.15 -9.05 26.15 -9.05 25.9 -10.75 24.35 -11.15 24.65 -11.75 25.85
L -11.35 27.3 -11.2 27.35
Q -9.65 27.15 -9.2 26.7
M -6.8 21.95
Q -7.2 22.6 -7.2 23.5
L -7 27.5 -6.7 28.65 -6.25 29.3 -5.95 29.2 -5.6 28.6 -5.45 28.25
Q -5.65 22.55 -5.95 21.3 -6.45 21.3 -6.8 21.95
M -16.55 24.45
L -17.7 24.4
Q -18 24.75 -18.45 24.75 -18.75 24.9 -18.75 26.3 -18.75 26.95 -18.35 27.6
L -17.9 28.15 -17.1 27.6 -16.8 27.25 -16.55 26.25 -16.55 24.45
M 9.45 23
L 9.25 22.05
Q 9 21.65 8.65 21.65 8.3 21.65 8.05 22.05 7.8 22.45 7.8 23
L 7.75 26.65
Q 7.8 27.35 8.15 27.75 8.45 28.1 8.85 28.05
L 9.45 27.45 9.65 26.4 9.45 23
M 2.25 24.25
L 1.85 24.6
Q 1.4 25.1 1.4 25.7
L 1.45 26.6 1.8 27.5 2.5 27.9 3.2 27.65
Q 3.65 27.15 3.65 26.15 3.65 25.65 2.25 24.25
M 36.55 22.9
L 35.75 21.75 35.35 22.2
Q 34.95 23.3 34.65 25
L 35.45 25.25 36.2 24.9
Q 36.75 24.6 36.75 23.9
L 36.55 22.9
M 28.35 20.55
L 27.9 20.15 27.4 20.2 27 20.7 26.9 21.4 27.1 25.25
Q 27.1 26.45 27.35 27.2 27.6 27.9 27.95 27.85 28.3 27.75 28.5 26.95
L 28.65 25.15 28.6 24.8 28.55 23.2 28.5 21.25 28.35 20.55
M 19.4 22.9
L 18.45 22.9
Q 18.55 24.85 18.85 25.45
L 19.05 25.5 20.2 25.5
Q 20.3 26.2 20.3 25.2 20.3 23.95 19.4 22.9
M 51.2 24.4
L 52.5 24.05 53 23.25
Q 53 22.75 52.45 22.45 51.9 22.1 51.15 22.1 50.85 22.5 50.85 24.45
L 51.2 24.4
M 56.65 17.55
Q 56.35 17.15 56.05 17.4 55.75 17.6 55.55 18.35
L 55.35 20.15 55.4 20.4 55.3 23 55.35 24.5 55.6 25.1
Q 55.8 25.3 56.1 25.3
L 56.65 25.1 56.85 24.5
Q 57.2 23.05 57.1 20.3
L 57.05 18.75 56.65 17.55
M 70.2 21.3
L 70.45 24.4
Q 70.55 25.05 70.8 25.35 71 25.65 71.3 25.55
L 71.75 24.95 71.85 24.1 71.8 22.2 71.55 20.75 70.9 20.75 70.2 21.3
M 67.2 22.5
L 67.2 24.35 67.55 24.8 68.75 24.7 69.15 24.5
Q 68.25 22.7 67.2 22.5
M 29.65 -17.85
L 28.85 -16.55
Q 29.6 -12.1 30.1 -11.25
L 27 -10.9 26 -10.8 24.45 -10.55
Q 23.05 -10.2 22.65 -9.4
L 22.8 -8.75
Q 22.95 -8.55 23.4 -8.5
L 24.4 -8.55 29.15 -9.85
Q 29.85 -10.05 30.35 -10.35
L 31.55 -10.5 31.6 -11.4 30.8 -14.6
Q 30.1 -17.35 29.65 -17.85
M 20.75 -14
Q 21.25 -13.5 22.5 -13.1 24.95 -12.75 27 -14.05
L 26.95 -14.15 25.45 -14.85 23.9 -14.95 21.3 -14.75 20.75 -14
M 31.95 -19.25
L 32.4 -19.8 32.35 -19.95
Q 32.15 -19.5 32.05 -19.7
L 32 -20 31.35 -19.95 26.65 -18.95 21 -17.15 21.35 -16.55 25.45 -16.95
Q 29.3 -17.65 31.95 -19.25
M -5.25 -14.65
Q -5.90859375 -14.63984375 -6.45 -14 -7 -13.35 -7 -12.45 -5.9 -12.7 -3.1 -14.1
L -2.95 -14.95
Q -2.95 -14.75 -4.05 -14.7
L -5.25 -14.65
M 2.5 -16.3
Q 3 -16.5 3.15 -17
L 0.65 -18.4 -3.1 -18.55 -6.75 -18.15
Q -8.2 -18.05 -7.6 -17.5
L -7.5 -16.75 -7.25 -16.75 2.5 -16.3
M 1.35 -13.35
L 0.65 -14.55 0.1 -13.5 -0.25 -9.05 -0.7 -9.05 -5.45 -8.45 -7 -7.85 -6.85 -7.4 -6.85 -7.35 -6.55 -7.05 -5.9 -6.95 -5.45 -6.95 -0.65 -7.6 -0.7 -6.45 -0.6 -5.3 -0.25 -4.2 -0.2 -4.15 0.45 -4.1 0.95 -5.7 1.45 -9.3
Q 1.59375 -11.725 1.35 -13.35
M 18.25 -13
L 18.15 -13.6
Q 18.85 -14.85 18.1 -16.4 18.1 -12.75 15 -10.15 11.9 -7.55 7.55 -7.55 8.25 -7.35 11.15 -7.55
L 16.1 -8.1 16.05 -6.8 16.15 -6.35
Q 16.35 -5.95 16.8 -5.9 18.3 -6.6 18.55 -8.5
L 18.55 -9.65 18.25 -13
M 13.1 -16.8
L 13.35 -16.9 12.95 -17.4
Q 12.45 -17.8 11.8 -17.8
L 5 -17.7 4.75 -16.85 4.85 -16.15 5.9 -16.05 13.1 -16.8 Z"/>

<path fill="#666666" stroke="none" d="
M -4.55 20.65
L -5.3 20.6 -5.9 20.7 -5.95 21.3
Q -5.65 22.55 -5.45 28.25 -5.2 28.9 -4.55 29.45
L -3.75 29 -3.7 27.6 -4.55 20.65
M -14.55 23.75
Q -14.65 22.1 -15 21.25 -15.4 20.4 -15.9 20.3 -16.45 20.15 -16.9 20.8 -17.35 21.4 -17.55 22.55
L -17.7 24.4 -16.55 24.45 -16.55 26.25 -16.8 27.25 -15.3 28.45 -14.5 27.15
Q -14.35 26.35 -14.55 23.75
M -10.7 -16.15
Q -10.7 -18.65 -12.05 -19.1
L -12.8 -18.15
Q -12.8 -9.75 -14.05 -7.25
L -14.05 -7.1
Q -14.15 -6.5 -13.85 -5.85 -13.6 -5.2 -13.05 -5
L -12.05 -5.15
Q -11.55 -5.55 -11.35 -6.35
L -11.75 -7.35 -12 -8.6 -10.7 -16.15
M 10.05 21.85
Q 9.75 22.35 9.75 23
L 9.45 23 9.65 26.4
Q 9.85 27.85 10.2 28.65 10.5 29.4 10.95 29.25 11.35 29.1 11.65 28.15
L 11.8 26.1 11.7 22.9
Q 11.75 22.15 11.45 21.7 11.1 21.2 10.7 21.25 10.3 21.3 10.05 21.85
M 59.65 18.4
L 58.9 18.25
Q 58.5 18.4 58.25 19
L 57.95 20.4 57.5 21.35
Q 57.25 22 57.25 22.6 57.25 23.25 57.4 23.55
L 57.8 24.5
Q 59 25.75 59.5 25.6
L 60.25 24.4
Q 60.5 23 60.3 20.65
L 60.2 19.4 59.65 18.4
M 43.5 19.75
L 42.35 19.8
Q 42.15 21.05 42.2 24.8 42.2 25.95 42.55 26.7 42.9 27.4 43.35 27.4
L 44.1 26.6 44.35 24.75
Q 44.55 22.75 44.25 21.5
L 43.5 19.75
M 72.15 16.05
L 71.65 17.5 71.4 19.25
Q 71.4 20.25 71.55 20.75
L 71.8 22.2 71.85 24.1
Q 71.9 24.85 72.15 25.3
L 72.75 25.7 73.3 25.15 73.5 24 73.45 21.6 73.35 17.25
Q 72.95 17.5 72.15 16.05
M 23.4 -8.5
L 23.35 -7.7 23.45 -6.9 24.2 -6.8
Q 26.8 -7.1 30.9 -8.35 34.65 -9.45 35.45 -10
L 31.45 -9.85 31.55 -10.5 30.35 -10.35 30.5 -9.75 29.15 -9.85 24.4 -8.55 23.4 -8.5
M 21.6 -15.85
Q 21.8 -15.55 22.45 -15.55 24.85 -15.55 28.85 -16.55
L 29.65 -17.85
Q 30.1 -17.35 30.8 -14.6
L 31.6 -11.4 31.95 -19.25
Q 29.3 -17.65 25.45 -16.95
L 21.35 -16.55 21.6 -15.85
M 31.35 -19.95
L 32 -20 32 -20.15 31.65 -20 31.35 -19.95
M -0.7 -6.45
L -0.65 -7.6 -5.45 -6.95 -5.2 -6.9 -0.7 -6.45
M -0.7 -9.05
L -3.65 -9.55 -8 -8.1 -8.35 -8.05
Q -7.85 -7.75 -6.85 -7.4
L -7 -7.85 -5.45 -8.45 -0.7 -9.05
M 0.65 -14.55
L 1.35 -13.35 1.8 -13.3 1.45 -9.3 0.95 -5.7 1.5 -4.05 2.9 -3.8 2.95 -3.95 3.8 -12.5 3.55 -13.5 2.5 -16.3 -7.25 -16.75
Q -7.25 -15.9 -6.6 -15.25 -6.008203125 -14.658203125 -5.25 -14.65
L -4.05 -14.7
Q -2.95 -14.75 -2.95 -14.95
L -3.1 -14.1 -1.65 -13.75 0.1 -13.5 0.65 -14.55
M 7.55 -7.55
L 6.7 -7.05
Q 7.1 -6.7 6.95 -6.3
L 8.75 -6.05 16.05 -6.8 16.1 -8.1 11.15 -7.55
Q 8.25 -7.35 7.55 -7.55
M 18.8 -17.95
L 18.1 -16.4
Q 18.85 -14.85 18.15 -13.6
L 18.25 -13 18.55 -9.65 18.55 -8.5 18.55 -4.4 20.6 -4.55
Q 21.25 -8.1 20.4 -12.8 19.65 -16.7 18.8 -17.95 Z"/>

<path fill="#993300" stroke="none" d="
M -7.65 24.5
L -8.2 23.55 -9.5 22.55 -11.65 23.7 -11.75 25.85
Q -11.15 24.65 -10.75 24.35 -9.05 25.9 -9.05 26.15 -9.05 27.15 -9.2 26.7 -9.65 27.15 -11.2 27.35
L -10.55 27.7 -8.6 27.45 -7.4 25.7
Q -7.4 25.05 -7.65 24.5
M 67.55 24.8
L 68.2 24.95 68.75 24.7 67.55 24.8
M 68.05 20.05
L 66.65 21.2
Q 66.75 22.65 67.15 24.2
L 67.2 24.35 67.2 22.5
Q 68.25 22.7 69.15 24.5
L 70.45 24.4 70.2 21.3
Q 68.4 20.05 68.05 20.05
M -1.65 -13.75
L -3.1 -14.1
Q -5.9 -12.7 -7 -12.45
L -7.1 -10.95
Q -7 -9.85 -6.15 -10.05 -4.8 -9.7 -3.3 -10.95 -1.85 -12.15 -1.65 -13.75 Z"/>

<path fill="#CCCCCC" stroke="none" d="
M -8.2 23.55
L -7.65 24.5
Q -7.4 25.05 -7.4 25.7
L -8.6 27.45 -7 27.5 -7.2 23.5 -8.2 23.55
M 39 24.95
L 39.95 24.9 39.9 22.2 39 24.95
M 39.8 19.95
L 39.1 20
Q 39.8 20.7 39.9 21.7
L 39.8 19.95
M 28.9 21.2
L 28.5 21.25 28.55 23.2 28.9 21.2
M 57.5 21.35
L 57.95 20.4 57.1 20.3
Q 57.2 23.05 56.85 24.5
L 57.8 24.5 57.4 23.55
Q 57.25 23.25 57.25 22.6 57.25 22 57.5 21.35
M 55.3 23
L 54.4 24.55 55.35 24.5 55.3 23
M 42.35 19.8
L 41.45 19.85 41.65 24.85 42.2 24.8
Q 42.15 21.05 42.35 19.8
M 73.45 21.6
L 73.5 24 78.05 22.6 78.55 22.6 78.5 21.75 73.45 21.6
M 30.35 -10.35
Q 29.85 -10.05 29.15 -9.85
L 30.5 -9.75 30.35 -10.35
M 0.45 -4.1
L 1.5 -4.05 0.95 -5.7 0.45 -4.1
M 1.8 -13.3
L 1.35 -13.35
Q 1.59375 -11.725 1.45 -9.3
L 1.8 -13.3 Z"/>

<path fill="#6A6BB7" stroke="none" d="
M 3.35 22.1
L 2.3 23.2 2.25 24.25
Q 3.65 25.65 3.65 26.15 3.65 27.15 3.2 27.65 4.1 27.9 4.7 27.65
L 5.8 26.9
Q 5.75 24.75 5.2 23.1 4.25 22.25 3.35 22.1
M 55.4 20.4
L 55.35 20.15 52.55 19.95 51.15 22.1
Q 51.9 22.1 52.45 22.45 53 22.75 53 23.25
L 52.5 24.05 51.2 24.4 51.2 24.55 51.7 25.05
Q 52.15 25.4 52.75 25.4 53.75 25.4 54.4 24.55
L 55.3 23 55.4 20.4
M 14.4 -14.25
Q 14.4 -15.3 13.1 -16.8
L 5.9 -16.05
Q 5.65 -15.1 5.75 -14.15
L 8.25 -14.05 7.6 -12.35 7.95 -11.9 7.9 -10 10.15 -9.9
Q 11.5 -9.9 12.6 -10.8 13.6 -11.6 13.6 -12.25
L 13.35 -13.2 12.75 -13.7 14.3 -13.7 14.35 -13.6 14.4 -14.25 Z"/>

<path fill="#8CC157" stroke="none" d="
M 39.9 22.2
L 39.9 21.7
Q 39.8 20.7 39.1 20
L 36.55 20.3 35.35 22.2 35.75 21.75 36.55 22.9 36.75 23.9
Q 36.75 24.6 36.2 24.9
L 35.45 25.25 39 24.95 39.9 22.2
M 22.9 23.8
L 23.05 21.9
Q 23.1 21.65 22.75 21.4 21.9 20.8 19.9 22.35
L 19.4 22.9
Q 20.3 23.95 20.3 25.2 20.3 26.2 20.2 25.5
L 19.05 25.5 19.9 26.1
Q 20.4 26.45 21 26.45 21.3 26.45 21.65 26.1
L 22.45 25.35 22.9 23.8
M 26.95 -14.15
L 27 -14.05
Q 24.95 -12.75 22.5 -13.1 22.5 -12.15 23.55 -11.45 24.55 -10.8 26 -10.8
L 27 -10.9 28.05 -11.3
Q 29.05 -11.85 29.05 -12.85 29.05 -13.6 28.4 -14.25 27.4 -15.25 25.3 -14.95
L 25.45 -14.85 26.95 -14.15 Z"/>

<path fill="#999999" stroke="none" d="
M 29.05 20
L 28.9 21.2 28.55 23.2 28.6 24.8 28.65 25.15 28.8 25.35 29.65 25.4
Q 30.1 25.3 30.2 25.1
L 30.45 21 30.2 19.7
Q 29.95 19.2 29.6 19.3 29.25 19.4 29.05 20 Z"/>
</g>

<g id="Graphics_Symbol_285_0_Layer2_0_FILL">
<path fill="#000000" stroke="none" d="
M 24.8 -36.75
Q 24.4 -38.1 21.7 -38.6
L 6.25 -39.25
Q -4.3 -39.25 -10.75 -33.8 -16.8 -28.7 -16.8 -21.05 -16.8 -18.75 -17.3 -18
L -18.45 -16.05
Q -20.15 -11.05 -20.15 12.9 -20.15 28.5 -19.55 31.35 -18 39 -10.85 39 -7.95 39 -2.5 37.7
L 3.25 36.35
Q 46.4 36.4 68.15 37 75.4 37 78.4 32.55 80.8 29 80.8 21.95 80.65 17.3 78.25 13.2 73.5 5.1 62.05 5.1
L 55.95 6.2 48.4 5.9
Q 41.55 5.35 41.55 4.05
L 42 2.25 42.4 0.4
Q 42.4 -2.5 39.3 -8.05 36.2 -13.6 36.2 -18.85 36.2 -21.45 36.75 -22.05
L 37.6 -22.2
Q 39.35 -22.2 40.75 -25.65
L 41.75 -29.25 41.4 -29.95 40.7 -30.85 40.7 -30.35 38.85 -30.35
Q 29.75 -32.05 26.75 -33.95 25.3 -34.85 24.8 -36.75
M 23.9 -36.55
Q 22.25 -32.3 29.5 -30.05 34.6 -28.45 39.1 -28.55 39.3 -24.6 33.2 -22.65 25.4 -20.2 5.85 -20.2
L -13.6 -21.6
Q -13 -29.45 -9.5 -32.85 -4.55 -37.65 8.35 -37.65
L 16.7 -37.1 23.9 -36.55
M 38.05 -5.9
Q 39.3 -5.9 39.9 -2.15
L 40.9 8.5 53.25 8.2
Q 67.5 8.2 73.65 11.25 77.95 13.4 77.95 16.75
L 77.85 18.8 63.65 18.1 53.2 17.4
Q 44.8 17.4 41.8 17.7
L 36.3 18.65
Q 25.05 20.45 -17.7 22.1
L -17.85 22.2
Q -17.5 19.15 -17.5 18.15
L -17.55 14.35
Q -17.7 11.25 -18.35 11.25 -17.75 11.25 -17.55 4
L -17.35 -5.4
Q -15.6 -3.45 -7 -2.6
L 6.3 -2.05
Q 11.95 -2.05 24.6 -3.95
L 38.05 -5.9
M 35.8 -8.45
Q 35.8 -6.35 30.9 -5.35 23.8 -3.95 4.5 -3.95 -11.8 -3.95 -15.8 -9.1 -18.15 -12.15 -16.45 -20
L -5.85 -18.8
Q 1.85 -18.35 12.25 -18.35 19.8 -18.35 22.6 -18.6 27.3 -19.05 34.7 -20.95 35.8 -10.75 35.8 -8.45
M 63.15 20.75
L 77.85 21.75 77.95 22.65 77.6 22.6 -2.15 27.65
Q -6.7 27.4 -9.3 27.5 -16.45 27.8 -17.45 26.2 -17.75 25.75 -17.65 24.7 -17.6 23.65 -17.85 23.2
L 27.4 21.65 34.45 20.35 45.45 19.75 63.15 20.75
M 49.85 26.1
L 57.45 26.45 76.75 26.15 76.55 25.6
Q 76.3 25.1 78.05 24.55
L 78.55 29.55
Q 77.5 30.95 75.7 32.35 72.1 35.15 68.4 35.15 56.25 35.15 38.85 34.6 21.5 34.05 16.95 34.05
L 2.7 35.2 -8.35 36.35
Q -12.7 36.35 -15.6 34.55 -17.7 33.3 -17.7 32.65 -16.8 30.2 -14.85 30.2
L 7.7 29.15 22.4 28 49.85 26.1 Z"/>
</g>

<g id="Graphics_Symbol_285_0_Layer1_0_FILL">
<path fill="#000000" fill-opacity="0.25098039215686274" stroke="none" d="
M 25 -36.65
Q 24.45 -37.8 21.65 -37.85
L 11.7 -38.15
Q 4.5 -38.4 0.5 -38 -3.55 -37.6 -8.2 -34.2
L -13.25 -30.5
Q -13.65 -30.2 -13.15 -30.65 -12.65 -31.15 -13.15 -31.15 -14.15 -31.15 -16.45 -23.3 -18.75 -15.55 -18.75 -12.35 -18.75 -8 -19.2 1.45 -19.8 12.8 -20.4 16.9 -20.4 38.3 -10.1 38.3 -7.6 38.3 -0.3 36.25 7 34.15 11.35 34.15
L 31.8 35 56.65 35.8 73.6 34.75
Q 81.2 32.55 81.2 24.2 81.2 18.65 76.75 13.65 73.25 8.9 66.3 7.65
L 67.1 7.7 67.2 7.65
Q 66.55 6.85 64.65 5.95 62.85 5.1 62.05 5.1 59.9 5.1 57.6 6.45 55.35 7.75 48.5 7.75
L 46.9 7.65 52.5 6.45 50 6.25 53.4 6.05
Q 47.75 6.15 44.6 5.85 41.4 5.55 41.15 4
L 39.65 -2.9 35.35 -22.35
Q 36.65 -22.85 38.7 -25.4 41.1 -28.35 40.95 -30.4
L 31.25 -31.3
Q 29.95 -23.1 27.15 -21.45 24.95 -20.15 14.3 -20.15
L 0.6 -21.15 -7.85 -22.35 -8.2 -22.45
Q -6.15 -27.95 -4.85 -29.8 -3.25 -32.05 -0.4 -32.65
L 8.15 -33 23.8 -32.7 25.25 -32.9 25.35 -34.3
Q 25.35 -35.95 25 -36.65
M 29.7 -5.4
L 32.65 -5.35
Q 33.35 -5.35 35.85 0.65 32.65 8.6 29.9 8.6 17.3 8.6 7.15 4.45
L 1 1.55
Q -1.75 0.25 -2.9 0.25 -5.6 0.25 -7.45 1.05 -9.15 1.8 -11.25 3.75
L -12.35 1.35
Q -13.15 -0.55 -13.15 -1.1 -13.15 -2.2 -12.1 -2.4
L -7.35 -2.8
Q -7.35 -3 -7.25 -2.8
L -8.95 -8.3
Q -10.65 -13.6 -10.65 -14.6
L -10.4 -15.45 -9.45 -15.55 12.85 -14.25
Q 23.45 -14.25 28.1 -16.8 28.7 -10.55 28.7 -6.4 28.9 -5.55 29.7 -5.4
M 69.2 15.1
Q 76.15 18 76.15 20.3 76.15 26.35 70.05 28.9 61.95 32.35 40.2 32.05 15.3 31.75 4.5 32.55
L -6.9 33.45
Q -8.35 33.45 -8.8 32.85
L -11.35 29
Q 17.25 29.15 21.25 28.1 23 27.65 24.3 26.15 26.15 24 28.25 22.65
L 4.75 22.95
Q -4.2 22.95 -7.55 19.5 -10.35 16.6 -10.35 9.5 -10.35 8.9 -9 7.35
L -7.7 5.9 2.5 10.9
Q 7.35 13.3 10.7 13.3
L 32.8 12.45 48.55 11.55
Q 60.65 11.55 69.2 15.1
M 41.15 6.75
L 40.95 7.15 41 6.75 41.15 6.75
M -9 -19.4
L -6.7 -19.6 -1.7 -19.3 0.55 -19.2
Q -6.8 -18.7 -8.85 -19.1
L -9 -19.4
M 9.9 -16.85
Q -1.15 -16.6 -8.75 -17.25 2.15 -16.85 9.9 -16.85 Z"/>
</g>

<g id="Graphics_Symbol_285_0_Layer0_0_FILL">
<path fill="#FFFFFF" fill-opacity="0.25098039215686274" stroke="none" d="
M 70.85 13.45
Q 66.45 12.8 46.8 12.8 30.5 12.8 25.75 14.5 23.9 15.35 22.85 15.65
L 17.5 16.2 10.1 15.85 11.65 14.95 0.05 12.5
Q -8.95 10.9 -8.95 13.7 -8.95 14.3 -8.6 14.55
L -8 14.9 -13.7 15.9
Q -15.8 16.6 -16.15 19.25 -9.55 22.45 -5.4 23.95 1.95 26.7 10.15 26.7
L 42.9 25.3
Q 59.1 23.75 77.3 20.05 79.7 14.75 70.85 13.45
M 29.2 -0.1
L 18.3 -0.9
Q 13.5 -0.9 10.1 0.2 7.3 1.15 7.3 1.95 7.3 5.55 20.05 5.35
L 28.75 4.4
Q 32.75 3.45 32.75 2 32.75 0.7 29.2 -0.1
M 8.8 -18.1
L 8.8 -4.3 22.5 -4.3 22.5 -18.1 8.8 -18.1
M 18.3 -32
Q 13.9 -33.5 7.75 -33.5 1.6 -33.5 -2.75 -32 -7.15 -30.5 -7.15 -28.4 -7.15 -26.3 -2.75 -24.8 1.6 -23.3 7.75 -23.3 13.9 -23.3 18.3 -24.8 22.65 -26.3 22.65 -28.4 22.65 -30.5 18.3 -32 Z"/>
</g>

<g id="MovieClips_Symbol_228_16_Layer1_0_FILL">
<path fill="#FFFFFF" stroke="none" d="
M 24.2 -37.15
L 24.3 -38.05 8.45 -38.75
Q -9.1 -38.75 -15.05 -26.2 -18.4 -19.15 -18.4 -4.15
L -17.6 -1 -18.6 22.05 -17.6 30.1
Q -17.6 34.15 -16.05 35.2 -14.4 36.35 -8.1 36.35
L 16.95 34
Q 52.75 35.15 63.45 35.15 71.65 35.15 75.8 33.05 79.35 31.3 79.35 28.35
L 79.25 27.6 79.15 27.55 78.85 27.7 78.4 28.1 77.95 18.4 78.7 14.75
Q 78.7 14.2 76.2 12.05 73.2 9.45 70.5 9.45
L 68.7 8.9 64 6.3
Q 62.4 5.45 61.8 5.45
L 49.5 6.6
Q 42.85 6.5 41.55 3.7
L 40.05 4.1 41 -2
Q 40 -3.9 38.95 -6.15 36.9 -10.7 36.85 -12.9 36.8 -14.5 35.75 -17.35
L 34.7 -20.05
Q 34.7 -20.45 37.1 -22.85 39.5 -25.2 39.5 -27.45
L 39.4 -28.35 39.1 -28.85
Q 32.55 -28.95 28.5 -31.05 24.2 -33.25 24.2 -37.15 Z"/>
</g>
</defs>

<g transform="matrix( 1, 0, 0, 1, -28.4,-10.7) ">
<g transform="matrix( 1, 0, 0, 1, 0,0) ">
<g transform="matrix( 1, 0, 0, 1, 0,0) ">
<use xlink:href="#Graphics_Symbol_245_0_Layer0_0_FILL"/>
</g>
</g>

<g transform="matrix( 1, 0, 0, 1, 0,0) ">
<g transform="matrix( 1, 0, 0, 1, 0,0) ">
<use xlink:href="#Graphics_Symbol_285_0_Layer3_0_FILL"/>
</g>

<g transform="matrix( 1, 0, 0, 1, 0,0) ">
<use xlink:href="#Graphics_Symbol_285_0_Layer2_0_FILL"/>
</g>

<g transform="matrix( 1, 0, 0, 1, 0,0) ">
<use xlink:href="#Graphics_Symbol_285_0_Layer1_0_FILL"/>
</g>

<g transform="matrix( 1, 0, 0, 1, 0,0) ">
<use xlink:href="#Graphics_Symbol_285_0_Layer0_0_FILL"/>
</g>
</g>
</g>

<g transform="matrix( 1, 0, 0, 1, -28.15,-10.5) ">
<g transform="matrix( 1, 0, 0, 1, 0,0) ">
<use xlink:href="#MovieClips_Symbol_228_16_Layer1_0_FILL"/>
</g>
</g>

<g transform="matrix( 1, 0, 0, 1, -28.4,-10.7) ">
<g transform="matrix( 1, 0, 0, 1, 0,0) ">
<g transform="matrix( 1, 0, 0, 1, 0,0) ">
<use xlink:href="#Graphics_Symbol_245_0_Layer0_0_FILL"/>
</g>
</g>
</g>
</svg>
