
<svg xmlns="http://www.w3.org/2000/svg" version="1.1" xmlns:xlink="http://www.w3.org/1999/xlink" preserveAspectRatio="none" x="0px" y="0px" width="550px" height="400px" viewBox="0 0 550 400">
<defs>
<g id="Parts_Heads_headsMC_9_Layer12_0_FILL">
<path fill="#FFFF00" stroke="none" d="
M 74.7 -11
L 72.65 -1.15 72.95 -1.1 72.55 -1.05 71 26.4 67.5 43.25 66.2 47.5 66.25 47.65 64.9 50.65
Q 74.15 56.1 78.2 54.3 82.2 52.5 82.6 52.85
L 81 36.4 80.5 8.35 81.3 -39.85 77.95 -22.25 74.7 -11 Z"/>
</g>

<g id="Graphics_Symbol_821_0_Layer3_0_FILL">
<path fill="#FFFFFF" stroke="none" d="
M 154.5 102.75
L 154.9 99.05 145.3 97.35 154.5 102.75
M 161.9 100.55
L 156.55 99.45 155.95 102.25
Q 159.2 105.75 165.45 102.9
L 161.9 100.55
M 155.05 97.65
L 156 93.85 145.05 95.8 155.05 97.65
M 114.8 66.8
L 114.45 64.5 114.7 64.3 111.65 54 104.55 57.35 98.5 71 99.55 71.7
Q 110.75 77.1 114.8 66.8
M 109.5 67.65
Q 107.45 65.6 108.75 62.45 110.05 59.35 112.25 61.55 113.05 62.4 113.55 63.65 114.4 65.85 112.9 67.3 111.6 68.6 110.5 68.25
L 109.5 67.65
M 162.1 99.4
L 163.25 96.35 157.15 94.2 156.8 98.05 162.1 99.4 Z"/>

<path fill="#000000" stroke="none" d="
M 139.65 112.55
Q 136.1 108.25 130.95 107.05 120.5 104.95 111.05 110.2 90.8 121.3 69.3 109.85 84.55 120.7 103.1 117.15
L 103.45 125.7
Q 106.5 122.05 105.55 117.25
L 105.25 115.85
Q 123.25 102.3 139.65 112.55
M 65.35 150.3
Q 58.9 152.2 52.45 150.5 69.2 155.25 84.7 145.1 90.25 141.45 94.9 136.55 81.15 145.7 65.35 150.3
M 68.85 65.15
Q 70.65 63.8 71.65 61.15
L 58.6 55.05 47.9 53.5
Q 51.85 65.45 60.75 66.55
L 58.35 65.1
Q 53.3 61.65 50.75 55.9
L 55.55 57.2 53.95 55.8 70.05 61.5
Q 69.6 63.7 68.85 65.15
M 157.15 73.9
Q 155.45 72.55 153.6 72.3
L 150.5 74.6 149.65 80.95
Q 158.15 87.05 159.2 78.4 159.5 75.7 157.15 73.9
M 159 79.4
L 156.75 82.25 151.15 79.95 152.75 75.6 150.8 76.05 152.25 73.7
Q 157.8 73.95 159 79.4
M 108.75 62.45
Q 107.45 65.6 109.5 67.65
L 110.5 68.25
Q 111.6 68.6 112.9 67.3 114.4 65.85 113.55 63.65 113.05 62.4 112.25 61.55 110.05 59.35 108.75 62.45
M 110.4 52.4
L 111.35 53.2 111 53.15
Q 101.95 55.5 99.35 64.4 98.4 67.7 98.5 71
L 104.55 57.35 111.65 54 114.7 64.3
Q 115.65 65.35 114.75 64.65
L 114.45 64.5 114.8 66.8
Q 110.75 77.1 99.55 71.7
L 98.5 71 98.65 72.85
Q 105.15 77.75 112 73.55 115.4 71.5 116.4 67.8 140.35 67.45 162.45 73.6 149.9 64.1 132.75 66.25 124.45 67.1 116.4 64.8 116.2 56.2 110.4 52.4
M 81.3 -33.25
L 81.05 -23.65 78.05 -22.6 81.9 -43.8
Q 72.75 -19.65 70.85 5.8 69.7 21.2 67.05 36.5
L 64.85 48.6 62.95 50.2
Q 56 44.65 47.5 46.3 43.75 47.05 40.5 48.75
L 46.95 63.2
Q 33.3 75.8 33.2 95.05 33.15 107.6 34.75 119.8 36.55 134 45.15 144.8 36.8 129.75 35.5 111.9 33.65 85.9 47.8 64.45 51.45 70.75 58.45 72.35 63.8 73.65 68.75 71.35 64 72.2 59.65 70.6 45.35 65.45 41.95 49.7 49.7 45.5 57.1 49.65 66.9 55.05 77 59.15
L 64.9 50.65 65.75 49.4 66.25 47.65 66.1 47.8 67.5 43.25 81.1 37.95 82.75 51.5 82.6 52.85 84.8 55.6 84.7 52.75 94.8 46.95 93.85 54.15 96.3 55
Q 99.7 50.4 103.45 49.9 98.85 49.45 95.2 52.9
L 95.3 45.2 84.4 51.05
Q 79.9 12.9 83.4 -24.75
L 81.3 -33.25
M 80.05 -13.65
L 80.45 -12.4
Q 82.2 -3.55 72.95 -1.1
L 75.5 0.5 80.65 -3 80.5 8.35 72.5 12.25 80.35 9.55 80.45 9.35
Q 80.4080078125 9.466015625 80.45 9.55
L 80.55 22.55 71.1 25.3 72.55 -1.05 72.65 -1.15 74.7 -11 80.05 -13.65
M 80.95 -22.2
L 80.85 -15.7 74.65 -11.35 77.95 -22.25 80.95 -22.2
M 68.1 41.1
L 71 26.4 80.6 24.25 81 36.4 68.1 41.1
M 68.45 -51.85
Q 68.75 -53.8 68.35 -52.9
L 68.45 -51.85 Z"/>

<path fill="#952F2F" stroke="none" d="
M 66 66.3
Q 67.6 66 68.85 65.15 69.6 63.7 70.05 61.5
L 53.95 55.8 55.55 57.2 50.75 55.9
Q 53.3 61.65 58.35 65.1
L 60.75 66.55 66 66.3
M 156.75 82.25
L 159 79.4
Q 157.8 73.95 152.25 73.7
L 150.8 76.05 152.75 75.6 151.15 79.95 156.75 82.25 Z"/>
</g>

<g id="Graphics_Symbol_821_0_Layer2_0_FILL">
<path fill="#333333" fill-opacity="0.25098039215686274" stroke="none" d="
M 146.65 73.55
L 150 72.1 132.85 68.1 115.7 68.8 129.1 74.95
Q 132.3 76.25 135.85 76.25
L 140.3 75.85
Q 139.1 81.4 144.7 84.7 148.75 87.1 152.2 87.1
L 155.95 86.4 158.65 85.2
Q 152.85 86.25 148.1 83.3 143.3 80.35 143.3 75.7 143.3 75.1 146.65 73.55
M 93.15 68.25
L 97 67.65 109.65 51.75 93.15 68.25
M 163.15 114.25
Q 167.45 112 170 107 165.9 108.1 160.95 108.55
L 155.65 108.95
Q 148.65 108.95 136.5 106.15 124.35 103.35 121.75 103.35 119.9 103.35 113.6 104.85 107.7 106.25 105.8 107
L 103.85 102.65
Q 94.85 110.8 82.6 110.8
L 67.55 109.35 67.2 112.05
Q 67.2 115.25 80.4 121.95 93.85 128.75 98.35 126.95 96 128.8 94.3 131.65
L 92.15 134.95
Q 87.05 138.5 84.5 139.45
L 78.65 141.1 71.95 142.15
Q 61.8 142.15 55.1 135 46.5 125.8 46.5 106.7
L 47.5 96.6
Q 47.8 95.1 52.1 83.95 56.1 73.55 56.1 71.45 56.1 69.9 53.75 67.65 51.4 65.4 47.8 64.35 44.2 63.3 38.9 80 33.55 96.65 33.55 108.95 33.55 122.1 40.4 136.9 47.2 151.65 56.75 151.8 66.25 151.95 73.2 149.25 80.1 146.5 87.8 141.75 95.45 136.95 100.35 130.85 105.25 124.75 105.35 122 105.45 119.2 106.1 117.75
L 104.8 116.85
Q 108.15 113.25 114.1 110.65 120.55 107.9 126.85 107.9 129.65 107.9 132.25 109.25 133.1 109.7 136.7 112.25 142.9 116.55 150.5 116.55 158.65 116.55 163.15 114.25
M 102.75 83.05
L 106.45 82.8
Q 110.45 82.3 112.5 81.2
L 96.55 76.75
Q 87 73.8 82.8 69.35 82.85 76.8 90.95 80.5 96.5 83.05 102.75 83.05
M 93.85 54.15
Q 95.55 51.9 95.55 50.9 95.55 49.75 94.8 46.95 87.1 51.35 83.7 53.75
L 83.7 54.2 83.1 54.2
Q 82.85 54.3 82.7 54.45
L 76.8 59.55 77 59.15 70.45 54.35
Q 70.45 54.55 70.2 54.5 69.35 54.35 68.75 53.2
L 67.7 52.55 67.25 52.35
Q 65.75 52.55 65.25 51.4
L 53.75 46.05
Q 46.05 46.35 41.3 49.6 45.4 53.35 57.35 59.1 70.85 65.6 75.45 64.35 75.75 68.2 77.25 70 78.2 71.15 79.3 71.15
L 80.75 70.8
Q 82 70.3 82.8 69.35
L 81.45 66.95 84.8 55.6
Q 87.15 57.25 88.3 57.25 91.55 57.25 93.85 54.15 Z"/>

<path fill="#000000" fill-opacity="0.25098039215686274" stroke="none" d="
M 76.05 -14.7
L 77.4 -20.95 76.45 -18.65
Q 75.65 -16.45 76.35 -17.05 73.5 -8 72.25 0.25 70.9 9.15 71.15 18.65 69.8 33.5 66.5 43.25 64.4 49.35 65.25 51.4 65.75 52.55 67.25 52.35
L 67.7 52.55 68.75 53.2
Q 69.35 54.35 70.2 54.5 70.45 54.55 70.45 54.35 70.45 53.8 68.85 51.55 71.65 43.8 72.05 36.9 72.95 21.8 76.05 -14.7
M 74.6 -0.4
L 74.85 -1.15 74.75 -0.65 74.6 -0.4
M 79.65 -24.45
Q 79.65 -23.65 80 -23.6
L 81.05 -23.85
Q 80.8 -21.6 79.5 1.85
L 78.25 25 78.95 39.95
Q 79.95 53.45 83.1 54.2
L 83.7 54.2 83.7 53.75 81.5 -35.35
Q 79.65 -25.9 79.65 -24.45 Z"/>
</g>

<g id="Graphics_Symbol_821_0_Layer1_0_FILL">
<path fill="#FFFFFF" fill-opacity="0.25098039215686274" stroke="none" d="
M 64.5 132.45
Q 68.05 137.1 75.1 137.1 80.65 137.1 83.45 135.1 84.35 134.45 86.2 131.8
L 59.1 118.05
Q 61.55 128.6 64.5 132.45
M 73.15 46.6
L 75.65 43.5 75.8 52.85 77.4 49.6 78.1 47.1
Q 78.1 44.6 77 42.7 75.8 40.65 74 40.6 73.75 40.7 73.45 43.65
L 73.15 46.6
M 137.2 98.15
Q 137.7 97.35 137.7 96.25 137.7 95.15 137.2 94.4 136.65 93.6 135.95 93.6 135.25 93.6 134.75 94.4 134.2 95.15 134.2 96.25 134.2 97.35 134.75 98.15 135.25 98.9 135.95 98.9 136.65 98.9 137.2 98.15
M 116.65 87.55
Q 107.9 92.2 98.5 92.2
L 85.9 90.1 81.65 90
Q 78.85 90.75 76.9 93.4 79.6 96.4 85.05 98.65 90.7 100.95 95.85 100.95 106.2 100.95 116.65 98.2 134.3 93.55 134.3 83.25 134.3 81.55 133.5 80 132.1 77.2 128.65 77.2 127.35 77.2 124.55 80.75 121 85.2 116.65 87.55
M 83.35 90.6
L 83.25 90.9 83.15 90.6 83.35 90.6
M 164.3 84.7
Q 164.3 82.55 162.55 79.2
L 160.3 75.6 163.1 90.65 163.95 90.65 164.3 84.7 Z"/>

<path fill="#FFFFFF" stroke="none" d="
M 75.65 43.5
L 73.15 46.6
Q 72.8 48.7 72.8 49.45 72.8 51.4 73.6 53.05 74.3 54.35 75 54.8
L 75.8 52.85 75.65 43.5
M 76.1 37.1
L 76.1 27.4 73.3 27.4 73.3 37.1 76.1 37.1
M 74.45 15.25
Q 74.1 16.65 74.1 17.35 74.1 18.7 75.95 22.1
L 75.1 13.1 74.45 15.25
M 78.3 7.65
Q 78.7 6.6 78.7 5.15 78.7 3.7 78.3 2.7 77.85 1.65 77.25 1.65 76.65 1.65 76.25 2.7 75.8 3.7 75.8 5.15 75.8 6.6 76.25 7.65 76.65 8.65 77.25 8.65 77.85 8.65 78.3 7.65
M 78.45 -4.9
L 78.75 -7.05 78.45 -9.2
Q 78.1 -10.1 77.65 -10.1 77.2 -10.1 76.9 -9.2 76.55 -8.3 76.55 -7.05 76.55 -5.8 76.9 -4.9 77.2 -4 77.65 -4 78.1 -4 78.45 -4.9
M 77.45 -13.65
L 79.5 -20.15
Q 77.05 -18.35 77.05 -16.15 77.05 -14.4 77.45 -13.65
M 80.7 -30.5
L 79.35 -28.6 78.55 -27.05
Q 78.55 -26.2 79.85 -24.1
L 80.7 -30.5 Z"/>
</g>

<g id="Graphics_Symbol_821_0_Layer0_0_FILL">
<path fill="#010101" stroke="none" d="
M 172.85 89.55
L 165.85 78.55
Q 166.45 80.85 166.45 83.4
L 171 88.05
Q 170.35 90.75 168.45 92.85 166.55 94.95 163.85 95.8 153.05 89.55 142.85 96.15 146.75 100.2 150.45 103.25 158.5 110.15 165.35 103.25 159.05 105.85 155.9 102.25
L 156.6 99.45 161.9 100.7 169.65 105.85 169.8 107.45 167.35 110.75 145.7 116.05
Q 153.65 119.45 162.7 115.3 168.8 112.75 171.85 106.75
L 163.9 99.75 172.85 89.55
M 162.1 99.6
L 162.1 99.65 156.9 98.1 157.4 94.25 163.4 96.6 162.1 99.6
M 155.2 97.6
L 145.3 95.4 156.2 93.9 155.2 97.6
M 155 99
L 154.4 102.7 145.45 96.95 155 99 Z"/>
</g>

<g id="Parts_Heads_headColorMC_9_Layer1_0_FILL">
<path fill="#999999" stroke="none" d="
M 165.05 79.8
L 163.7 75.95
Q 162.35 72.75 160.65 72.2 157.4 71.2 146 69.3 133.8 67.3 129.35 67.3
L 117.65 68.1
Q 116.5 62.25 113.4 56.35 110.3 50.45 105.3 49.7 100.25 48.95 96.8 54
L 94.65 53.95 94.65 46.1 84.6 51.35 81.7 52.4 80.15 52.5
Q 78.9 52.55 78.9 53.2 78.9 53.85 77.25 54.2
L 74.85 54.4
Q 73.05 54.4 69.95 53 66.8 51.55 65.2 49.95 64.85 50.5 63.6 50.8
L 62.3 51 49.15 47.6
Q 46.3 47.6 45.05 48.3 43.45 49.4 41.4 50.25 42.1 54.3 44.5 58.85 46.6 62.8 48.05 63.95
L 47.2 64.65
Q 46.35 65.45 45.1 67.35 43.8 69.2 41.4 73.7 38.95 78.2 38.3 81.85 37.65 85.45 34.75 106.25 34.75 120.55 39.4 133.75 45.75 151.85 57.6 151.85 66.75 151.85 82 144.3 99.15 135.75 102.9 126.25
L 104.05 113.75
Q 108.45 110.7 114.1 108.9 119.85 107.05 125.3 107.05 129.6 107.05 132 107.85
L 134.1 108.95
Q 139.55 112.1 139.5 115.45 139.45 116.4 140.45 116.65
L 146.65 116.95
Q 153.2 116.95 161.85 113.45 170.5 109.9 170.45 107.4 170.4 104.9 167.2 103.35 163.95 101.8 162.9 100.2 165.95 97.3 168.15 93.15 170.05 89.65 170.05 88.1 170.05 87.1 166.25 81.35
L 165.05 79.8 Z"/>
</g>

<g id="Parts_Heads_headColorMC2_9_Layer3_0_FILL">
<path fill="#FFFF00" stroke="none" d="
M 74.7 -11
L 72.65 -1.15 72.95 -1.1 72.55 -1.05 71 26.4 67.5 43.25 66.2 47.5 66.25 47.65 64.9 50.65
Q 74.15 56.1 78.2 54.3 82.2 52.5 82.6 52.85
L 81 36.4 80.5 8.35 81.3 -39.85 77.95 -22.25 74.7 -11 Z"/>
</g>
</defs>

<g transform="matrix( 1, 0, 0, 1, -62.75,-76.85) ">
<g transform="matrix( 1, 0, 0, 1, 0,0) ">
<use xlink:href="#Parts_Heads_headsMC_9_Layer12_0_FILL"/>
</g>

<g transform="matrix( 1, 0, 0, 1, 0,0) ">
<g transform="matrix( 1, 0, 0, 1, 0,0) ">
<use xlink:href="#Graphics_Symbol_821_0_Layer3_0_FILL"/>
</g>

<g transform="matrix( 1, 0, 0, 1, 0,0) ">
<use xlink:href="#Graphics_Symbol_821_0_Layer2_0_FILL"/>
</g>

<g transform="matrix( 1, 0, 0, 1, 0,0) ">
<use xlink:href="#Graphics_Symbol_821_0_Layer1_0_FILL"/>
</g>

<g transform="matrix( 1, 0, 0, 1, 0,0) ">
<use xlink:href="#Graphics_Symbol_821_0_Layer0_0_FILL"/>
</g>
</g>

<g id="hat1" transform="matrix( 0.983917236328125, -0.17529296875, 0.17529296875, 0.983917236328125, 45.2,78.25) ">
<g id="colorMC" transform="matrix( 0.9999847412109375, 0, 0, 0.9999847412109375, 0,0) "/>

<g id="colorMC2" transform="matrix( 1, 0, 0, 1, 0,0) "/>
</g>

<g id="hat2" transform="matrix( 0.9733734130859375, -0.2247314453125, 0.2247314453125, 0.9733734130859375, 38,60.6) ">
<g id="colorMC_FL" transform="matrix( 0.9999847412109375, 0, 0, 0.9999847412109375, 0,0) "/>

<g id="colorMC2_FL" transform="matrix( 1, 0, 0, 1, 0,0) "/>
</g>

<g id="hat3" transform="matrix( 0.96026611328125, -0.2753753662109375, 0.2753753662109375, 0.96026611328125, 26,48.4) ">
<g id="colorMC_FL_FL" transform="matrix( 0.9999847412109375, 0, 0, 0.9999847412109375, 0,0) "/>

<g id="colorMC2_FL_FL" transform="matrix( 1, 0, 0, 1, 0,0) "/>
</g>

<g id="hat4" transform="matrix( 0.944580078125, -0.3252410888671875, 0.3252410888671875, 0.944580078125, 18.85,34.5) ">
<g id="colorMC_FL_FL_FL" transform="matrix( 0.9999847412109375, 0, 0, 0.9999847412109375, 0,0) "/>

<g id="colorMC2_FL_FL_FL" transform="matrix( 1, 0, 0, 1, 0,0) "/>
</g>
</g>

<g transform="matrix( 1, 0, 0, 1, -75.4,-101.9) ">
<g transform="matrix( 1, 0, 0, 1, 0,0) ">
<use xlink:href="#Parts_Heads_headColorMC_9_Layer1_0_FILL"/>
</g>
</g>

<g transform="matrix( 1, 0, 0, 1, -62.75,-76.85) ">
<g transform="matrix( 1, 0, 0, 1, 0,0) ">
<use xlink:href="#Parts_Heads_headColorMC2_9_Layer3_0_FILL"/>
</g>
</g>
</svg>
