
<svg xmlns="http://www.w3.org/2000/svg" version="1.1" xmlns:xlink="http://www.w3.org/1999/xlink" preserveAspectRatio="none" x="0px" y="0px" width="550px" height="400px" viewBox="0 0 550 400">
<defs>
<g id="Parts_Heads_headColorMC_9_Layer1_0_FILL">
<path fill="#999999" stroke="none" d="
M 165.05 79.8
L 163.7 75.95
Q 162.35 72.75 160.65 72.2 157.4 71.2 146 69.3 133.8 67.3 129.35 67.3
L 117.65 68.1
Q 116.5 62.25 113.4 56.35 110.3 50.45 105.3 49.7 100.25 48.95 96.8 54
L 94.65 53.95 94.65 46.1 84.6 51.35 81.7 52.4 80.15 52.5
Q 78.9 52.55 78.9 53.2 78.9 53.85 77.25 54.2
L 74.85 54.4
Q 73.05 54.4 69.95 53 66.8 51.55 65.2 49.95 64.85 50.5 63.6 50.8
L 62.3 51 49.15 47.6
Q 46.3 47.6 45.05 48.3 43.45 49.4 41.4 50.25 42.1 54.3 44.5 58.85 46.6 62.8 48.05 63.95
L 47.2 64.65
Q 46.35 65.45 45.1 67.35 43.8 69.2 41.4 73.7 38.95 78.2 38.3 81.85 37.65 85.45 34.75 106.25 34.75 120.55 39.4 133.75 45.75 151.85 57.6 151.85 66.75 151.85 82 144.3 99.15 135.75 102.9 126.25
L 104.05 113.75
Q 108.45 110.7 114.1 108.9 119.85 107.05 125.3 107.05 129.6 107.05 132 107.85
L 134.1 108.95
Q 139.55 112.1 139.5 115.45 139.45 116.4 140.45 116.65
L 146.65 116.95
Q 153.2 116.95 161.85 113.45 170.5 109.9 170.45 107.4 170.4 104.9 167.2 103.35 163.95 101.8 162.9 100.2 165.95 97.3 168.15 93.15 170.05 89.65 170.05 88.1 170.05 87.1 166.25 81.35
L 165.05 79.8 Z"/>
</g>
</defs>

<g transform="matrix( 1, 0, 0, 1, -75.4,-101.9) ">
<g transform="matrix( 1, 0, 0, 1, 0,0) ">
<use xlink:href="#Parts_Heads_headColorMC_9_Layer1_0_FILL"/>
</g>
</g>
</svg>
