
<svg xmlns="http://www.w3.org/2000/svg" version="1.1" xmlns:xlink="http://www.w3.org/1999/xlink" preserveAspectRatio="none" x="0px" y="0px" width="550px" height="400px" viewBox="0 0 550 400">
<defs>
<g id="Layer0_0_FILL">
<path fill="#000000" fill-opacity="0.25098039215686274" stroke="none" d="
M 84.75 113.6
L 84.85 115.4 85.2 115.6 86 115.75
Q 86.9 115.75 91.1 108.75 95.25 101.75 95.15 100.6 93 100 88.7 106.2 84.75 111.95 84.75 113.6
M 40.7 139.6
L 40.7 138.75
Q 41.45 138.5 40.45 138.5 37.6 138.5 33.7 141.8 29.3 145.45 28.15 145.75 18.45 148.3 14.05 147.7
L 12.4 147.25
Q 12.2 147.2 12.2 147.65 12.2 148.1 12.8 148.7 13.35 149.25 13.55 149.25 18.95 149.25 25.65 147.8 37.2 145.25 40.7 139.6
M 48.7 138.85
L 49.2 139.85
Q 49.45 140.25 49.95 140.25 56.25 140.25 62.1 134.75 67.15 129.95 67.7 126
L 67.1 124.9 66.45 124.25
Q 65.55 124.25 64.2 127.65 62.6 131.65 59.6 133.3 50.7 136.85 48.7 138.85
M 79 115
Q 75.35 116.15 72.1 117.7 68.2 119.5 68.2 120.5 68.2 123.5 75.05 129.4
L 82 134.75 82.85 134.7 83.6 134.4 83.75 131.85
Q 83.75 126.2 81.9 122.3 80.35 118.95 78.2 118.25
L 76.7 119.65 79 122.7
Q 81.25 126.25 81.25 130.3
L 81.1 130.4 77.35 127.6
Q 73.8 124.7 71.2 120.75 73.1 120.4 75.7 118.8 78.7 117 79.25 115.35
L 79 115
M 67.05 19.85
L 66.7 22.15 79.2 46.75
Q 79.9 46.75 80.1 46.25
L 80.25 45.15
Q 74.45 19.9 67.05 19.85
M 62.95 20.6
L 63.2 19.2
Q 63.2 15.4 60.4 13.05 57.9 10.95 54.75 10.95 53.6 10.95 53.2 11.85 51.6 8.45 46.1 6 41.9 4.15 40.05 4.15 38.8 4.15 38.2 5.1 37.7 5.9 37.7 7.15
L 37.8 8.35 38.1 8.55 39 8.75 40.7 7.5
Q 51.3 13.75 52.2 13.75 52.9 13.75 53.3 13.05 53.6 12.4 53.3 11.95
L 54.65 13.05 61.7 20.75 62.95 20.6
M 85.35 43.35
Q 83.85 45.05 83.9 46.2 83.95 47.15 85.2 48.7 89.75 54.3 91.6 59
L 95.65 74.65
Q 98.75 87.55 98.75 91.75 98.75 93.55 97.5 93.7
L 90.7 93.8 90.5 93.95
Q 90.25 94.25 90.25 94.85 90.25 95.9 90.9 96.05
L 101.4 96
Q 101.9 95.75 101.75 94.4
L 101.5 94.1
Q 101.15 94 101.15 93.45
L 101.35 86.35 102.2 86.55 104.1 86.75 104.2 86.65 104.25 85.9
Q 104.25 82.6 101.05 76.7 97.65 70.5 97.15 62.1 96.95 58 93.15 51.35 89 44.1 85.35 43.35
M 22.15 -12.75
Q 20.8 -12.75 18.2 -10.5 14.7 -7.5 14.7 -3.3 14.7 -2.25 15.15 -0.75 15.85 1.85 17.4 2.85
L 13.4 2.5
Q 11.45 2.5 6.35 17.55 1.2 32.6 3.4 39.7 5.55 46.8 4.7 61.75 3.85 76.7 3.85 84.15 3.9 91.6 4.45 100.7 1.45 106.4 3.25 126.95 5.05 147.55 11.55 143.15 18.05 138.75 42.35 129.1
L 67 119.25
Q 77.95 115.3 85 103.7 91.6 92.85 91.6 81.25 91.6 77.95 87.05 68.8 81.85 58.45 74.1 47.7 52.7 18.2 27.05 6.25
L 30.65 6 30.7 4.9
Q 30.7 -0.55 27.4 -6.85 24.3 -12.75 22.15 -12.75
M 24.85 -6.05
Q 27.75 -2 27.7 -0.9
L 27.7 1.5 24.6 1.5 18.7 -0.5 21.35 -10.3
Q 22.15 -9.75 24.85 -6.05
M 21.45 14.25
Q 25.55 15 36.55 24.25 47.55 33.5 55.55 42.55 63.75 51.8 68.95 61.7 74.6 72.45 75.3 81.3 75.85 97.75 61.15 106.05 46.4 114.35 38.75 119.2
L 24.15 128.45
Q 17.2 132.9 18.05 127.15
L 20.35 106
Q 21.05 99.35 21.6 98 22.1 96.65 20.85 87.1 19.6 77.6 19.6 73.4
L 19.3 48.3
Q 18.95 39.05 19.6 37.1
L 20.7 33.2
Q 21.1 31.3 21.1 27.65 21.1 26 19.2 19.75 17.3 13.5 21.45 14.25 Z"/>
</g>
</defs>

<g transform="matrix( 1, 0, 0, 1, 0,0) ">
<use xlink:href="#Layer0_0_FILL"/>
</g>
</svg>
