
<svg xmlns="http://www.w3.org/2000/svg" version="1.1" xmlns:xlink="http://www.w3.org/1999/xlink" preserveAspectRatio="none" x="0px" y="0px" width="550px" height="400px" viewBox="0 0 550 400">
<defs>
<g id="Layer0_0_FILL">
<path fill="#5F2407" fill-opacity="0.5019607843137255" stroke="none" d="
M 88.75 84.85
L 88.7 83.05
Q 87.95 75.1 81.25 61.05
L 80.05 58.6
Q 74.65 47.75 70.05 42.9
L 70.75 41.75
Q 59.15 28.3 46.5 19 31.95 8.35 17.2 4.25
L 17.2 3.6
Q 17.2 2.3 13.45 1.9
L 12 1.8 11.95 1.75 11.85 1.8
Q 9.7 1.85 9.7 2.85 9.7 4.1 9.85 3.6
L 10.05 3.7
Q 9.2 4.95 8.25 7 6.2 11.35 6.2 13.4 6.2 14.05 6.7 14.55 7.2 15.05 7.2 15.65
L 6.2 21.2
Q 5.2 26.1 5.2 29
L 6.2 39.3 5.45 46.7
Q 4.7 54.1 4.7 55.6
L 5.7 78.3 5.2 83 5.2 83.05 4.4 89.9
Q 4.1 92.75 4.7 106.2 5.3 119.65 5.6 121.35
L 5.8 124.8
Q 5.7 126.6 7 134.05 8.25 141.5 9.3 140.75 10.3 140 10.4 140.3
L 10.95 141.75 12.1 141.25 12.2 140.4
Q 22.6 135.4 43.25 126.5 60.4 119.1 67.65 115.05 78.35 109.05 83.25 102.5 88.75 95.1 88.75 84.85
M 84.35 82.1
Q 84.6 82.5 85.5 82.6
L 86.05 82.05 86.25 84.8
Q 86.25 88.45 84.75 93 83.15 97.75 80.6 101.5
L 80.2 102.05 80 101.5
Q 76.8 100.5 75.75 103.35
L 76.35 104.15 77.5 104.7 75.25 106.35 75.25 106.1 75.15 105.2 75 105 73 104.75
Q 71.2 104.75 69.75 106
L 69.85 107.2
Q 70.25 107.75 72.5 107.75
L 73 107.75 71.7 108.5
Q 67.8 110.7 65.25 112.2
L 64.35 112.1 64.4 112.7
Q 61.35 114.45 60.6 115 54.9 119.05 31 128.8 16.6 134.65 12.2 137.45 12.05 131.45 10.7 128.4
L 10.65 128.25 11.2 128.25
Q 14.2 128.25 14.2 126.1
L 14.1 125.25 13.95 125
Q 11.45 124.5 10.4 125.25 10 125.55 9.85 125.95 9.2 123.55 9.2 121
L 9.85 115.25 10.45 115.25 11.95 115 12.15 114.6 12.2 113.85
Q 12.2 112.8 11.55 112.2 11.05 111.7 10.2 111.65
L 8.35 96.9
Q 8.6 97.5 9.45 97.75 11 97.4 11.45 96.75
L 11.7 95.6
Q 11.7 94.7 9.95 94 8.2 93.3 8.2 95.6
L 8.2 95.7 7.2 87.8 8.1 79.7
Q 8.8 80.2 10.7 80.75
L 11.7 80.5
Q 12.7 80 12.7 78.9 12.7 77.55 10.2 77.3 8.8 77.15 8.2 77.8
L 7.2 55.15
Q 7.2 49.8 7.95 45.4
L 8.7 40.1
Q 9.3 40.75 10.2 40.75 12.7 40.75 12.7 38.6 12.7 37.3 10.2 36.9
L 8.5 36.95 7.7 28.9
Q 7.7 27.4 7.85 25.85 8.25 26.25 8.95 26.25 9.6 26.25 10.45 25.1 11.2 24.1 11.2 23.6
L 11.1 22.7 10.95 22.5 8.25 22.6
Q 9 18.4 10.7 14.1
L 13.7 6.4
Q 13.7 5.8 13.1 5.85 12.45 5.9 12.45 5.25
L 13.1 4.65 22 7.6
Q 34.4 12.7 44.6 21.9 42.75 21.75 42.75 23.15
L 42.85 24.5 44.25 24.75 45.5 24.5 45.75 23.1 45.75 22.9 53.1 29.45
Q 50.75 29.4 50.75 31.1 50.75 31.6 51.25 32.25 52.05 33.25 53.5 33.25 55.05 33.25 55.5 32.6
L 55.75 31.75 64.05 39.05 63.85 39 63.8 39.8 62.5 39.4
Q 60.25 39 60.25 40.65 60.25 41.6 60.65 41.95 61.25 42.45 63.25 42.75
L 64.5 42.5 64.75 41.55 68.65 46.5
Q 74.3 53.9 78.7 61.05
L 79.35 62.1
Q 81.1 64.9 83.5 72.05 85.45 77.85 86 81.8
L 84.35 81.5 84.35 82.1
M 30.35 125.65
Q 30.6 126 31.5 126.15
L 32.1 125.4 31.75 125 30.35 125 30.35 125.65
M 17.1 129.4
L 15.85 129.15
Q 15.85 129.75 16.45 130
L 17.1 129.4
M 14.45 121
L 15.1 120.35 13.85 120.1
Q 13.85 120.75 14.45 121
M 17.1 112.35
L 15.85 112.1
Q 15.85 112.75 16.45 113
L 17.1 112.35
M 13.1 105.35
L 11.85 105.1
Q 11.85 105.75 12.45 106
L 13.1 105.35
M 16.45 100
L 17.1 99.35 15.85 99.1
Q 15.85 99.75 16.45 100
M 61.1 109.6
L 60.75 108.85 59.35 108.6
Q 59.35 109.6 59.6 110
L 60.75 110 61.1 109.6
M 73.5 101.5
Q 74 101.25 74.1 100.85
L 72.85 100.6
Q 72.85 101.25 73.5 101.5
M 78.5 89.5
L 79.1 88.85 77.85 88.6
Q 77.85 89.25 78.5 89.5
M 75.6 66.35
L 74.35 66.1
Q 74.35 66.75 75 67
L 75.6 66.35
M 67.6 51.5
L 68.25 51.5
Q 68.6 51.1 68.6 50.35
L 67.35 50.1
Q 67.35 51.1 67.6 51.5
M 72.35 56.1
Q 72.35 56.75 73 57
L 73.6 56.35 72.35 56.1
M 72.85 61.05
L 72.75 61.5 73 62.45
Q 73.5 63.25 74.75 63.25 76.2 63.25 77 62.65 77.75 62.05 77.75 61.1
L 77.75 61.05 77.65 60.2 77.5 60 73.95 60.1
Q 73.05 60.45 72.85 61.05
M 12.1 90.85
Q 11.7 90.5 10.95 90.5
L 10.9 90.4 10.85 91.25
Q 10.85 92.5 11.1 92
L 11.7 92
Q 12.1 91.6 12.1 90.85
M 14.45 85.1
Q 14.85 85 15.1 84.35
L 14.7 84
Q 13.8 83.8 13.35 84.25 13.35 84.95 14.45 85.1
M 12.95 75.6
L 13.6 74.85 13.2 74.5
Q 12.3 74.3 11.85 74.75 11.85 75.45 12.95 75.6
M 11.1 68.5
L 11.7 68.5
Q 12.1 68.1 12.1 67.35 11.7 67 10.95 67
L 10.9 66.9 10.85 67.75
Q 10.85 69 11.1 68.5
M 14.95 57.1
Q 15.35 57 15.6 56.35
L 15.2 56
Q 14.3 55.8 13.85 56.25 13.85 56.95 14.95 57.1
M 10.7 59.75
Q 11.55 59.75 12.15 58.85 12.7 57.95 12.7 56.6
L 12.6 55.7 12.45 55.5
Q 10.85 54.75 9.7 55.85 8.7 56.75 8.7 57.8 8.7 59.75 10.7 59.75
M 13.1 46.35
Q 12.7 46 11.95 46
L 11.9 45.9 11.85 46.75
Q 11.85 48 12.1 47.5
L 13.2 47.5 13.6 47.1 13.1 46.35
M 14.85 35.05
Q 14.85 35.9 15.1 36
L 15.95 36.1 16.6 35.5 15.7 34 14.95 34.1 14.85 35.05
M 13.6 28
L 14.2 28
Q 14.6 27.6 14.6 26.85 14.2 26.5 13.45 26.5
L 13.4 26.4 13.35 27.25
Q 13.35 28.5 13.6 28
M 12.2 18
L 11.45 18.1 11.35 19.05 11.4 19.85 11.6 20 12.45 19.85 12.6 19.7 12.55 18.1
Q 12.4 18.2 12.2 18
M 13.85 11.25
Q 13.85 12.5 14.1 12
L 14.7 12
Q 15.1 11.6 15.1 10.85 14.7 10.5 13.95 10.5
L 13.9 10.4 13.85 11.25
M 34.85 15.1
Q 34.85 15.75 35.5 16
L 36.1 15.35 34.85 15.1
M 31.85 14.1
Q 31.85 14.75 32.5 15 33 14.75 33.1 14.35
L 31.85 14.1
M 62.55 47.85
L 62.75 48 63.75 48
Q 64.1 47.6 64.1 46.85
L 63.75 46.5 62.5 46.6 62.45 46.35
Q 62.35 46.25 62.35 47.05 62.35 47.8 62.55 47.85
M 59.1 37.85
L 56.35 37.6
Q 56.35 38.6 56.6 39 58.95 38.5 59.1 37.85
M 46.75 28
Q 47.1 27.6 47.1 26.85
L 45.85 26.6
Q 45.85 27.6 46.1 28
L 46.75 28
M 54 35.5
L 54.6 34.85 53.35 34.6
Q 53.35 35.25 54 35.5
M 40.5 21.1
L 41.1 20.35
Q 40.35 20 39.35 20
L 39.35 20.6
Q 39.6 21 40.5 21.1
M 82.6 96.35
L 81.4 96 80.85 96 80.85 96.6
Q 81.1 97 82 97.1
L 82.6 96.35
M 84.65 87.4
L 84.5 87
Q 83.1 86.4 81.85 87.2 80.75 87.95 80.75 88.85 80.75 90.1 80.85 90
L 81.35 90.15 82.75 90.25
Q 84.1 90.25 84.5 89.6
L 84.75 88.5 84.65 87.4
M 81.75 78.25
Q 84.25 78.25 84.25 75.4
L 84.15 74.6 84 74.5
Q 81.15 74.05 80.25 74.85 79.75 75.3 79.75 76.5
L 79.85 78 80.35 78.15 81.75 78.25
M 81 70.1
L 81.6 69.35
Q 81.4 69.15 80.65 68.95
L 80 68.85 79.7 68.7
Q 79.35 68.65 79.35 69.4 79.35 70.15 79.65 70.2
L 81 70.1 Z"/>
</g>
</defs>

<g transform="matrix( 1, 0, 0, 1, 0,0) ">
<use xlink:href="#Layer0_0_FILL"/>
</g>
</svg>
