
<svg xmlns="http://www.w3.org/2000/svg" version="1.1" xmlns:xlink="http://www.w3.org/1999/xlink" preserveAspectRatio="none" x="0px" y="0px" width="550px" height="400px" viewBox="0 0 550 400">
<defs>
<g id="Layer0_0_FILL">
<path fill="#000000" stroke="none" d="
M 20.1 -0.25
Q 14.8 -0.25 11.55 -1.75 9.15 -2.7 8.15 -4.4 6.5 -6.9 7.4 -12 7.7 -14.45 8.8 -17.7 12.05 -23.5 11.2 -37.1 8.05 -57.45 2.05 -73.75 -0.05 -53.65 -10.1 -26.15 -12.95 -18.6 -15 -12
L -17.4 -1.75
Q -19.7 10.6 -20.65 20.5 -21.55 30.1 -19.95 34.6 -18.45 39.1 -14.4 39.1
L 5.15 40.2
Q 33.75 40.2 43.35 32.45 47 29.55 48.45 25.05 49.15 22.7 49.65 17.2 50.5 8.5 48.4 1.25 45.55 -8.65 38.15 -8.65 36.45 -8.65 29.65 -4.45 22.9 -0.25 20.1 -0.25
M 2 -52.05
L 2.4 -65.2
Q 6.2 -57.3 8.6 -32.35
L 4 -11.15
Q 3.35 -5.15 4.9 -1.75
L 4.95 -1.75 6.05 0.3
Q 8.45 3.7 13.5 3.7
L 19.1 2.55
Q 21.5 2.55 26.15 -1.35 30.85 -5.35 36.35 -5.35 44.05 -5.35 46.45 5.3 47.85 11.55 47.2 18.3 46.8 22.95 45.05 26.6 43.6 29.7 42.6 29.7 40.55 29.7 37.95 30.8 33.95 32.6 31.25 33.35 18.35 36.95 -11.8 36.95 -15.5 36.95 -17.1 33 -18.85 29.05 -18.15 21.5 -17.25 12.3 -13.9 -1.7
L -13.8 -1.7 -13.75 -1.75
Q -13.45 -2.55 -13.3 -3.65
L -10.65 -12
Q 1.6 -36.85 2 -52.05
M 1.5 -20.5
Q 1.3 -21.75 0.3 -22.15 -1.75 -19.1 -4.95 -12 -6.75 -7.4 -8.15 -1.75
L -9.25 3.4
Q -10.1 12.5 -9.8 15.45 -9.35 20.45 -6.1 22.9 0.25 27.75 30.25 27.75 37.55 27.75 42 21.3 45.2 16.65 45.7 11.65 46.05 7.95 43.55 5.35 40.25 1.9 32.4 1.9
L 22.95 4.05 13.25 8.05
Q 11.45 8.75 10.45 8.75 5.35 8.75 1.6 5.15 -1.15 2.5 -2.25 -1.7
L -2.3 -1.7 -2.3 -1.75
Q -3.5 -6 -1.9 -12
L -1.7 -12.9 1.35 -18.9 1.5 -20.5
M 20.3 8.7
Q 31.2 5.25 33.6 5.25 37.6 5.25 40.1 7.35 42.75 9.5 42.4 12.9 42.1 16.55 38.95 20.2 35.3 24.45 30.75 24.45 14.9 24.45 8.9 24 0.8 23.4 -2.6 21.45 -5.9 19.45 -6.6 15 -7.1 11.55 -6.3 2.8
L -3.95 -8.75 -3.9 -3.35 -3.75 -1.75
Q -3.3 1.35 -2.5 3.6 0.3 12.05 8.25 12.05 9.5 12.05 20.3 8.7 Z"/>
</g>
</defs>

<g transform="matrix( 1, 0, 0, 1, 0,0) ">
<use xlink:href="#Layer0_0_FILL"/>
</g>
</svg>
