
<svg xmlns="http://www.w3.org/2000/svg" version="1.1" xmlns:xlink="http://www.w3.org/1999/xlink" preserveAspectRatio="none" x="0px" y="0px" width="550px" height="400px" viewBox="0 0 550 400">
<defs>
<g id="Layer0_0_FILL">
<path fill="#000000" fill-opacity="0.25098039215686274" stroke="none" d="
M 1.8 -63.7
Q 2.4 -58.6 1.7 -54.45 0.95 -50.35 -1.1 -46.6 -1.3 -37.9 -7.1 -22.8 -11.65 -11.65 -14.55 -0.5
L -19.4 22.4
Q -19.55 23.9 -18.75 26.5 -18 29.15 -18.1 30.2
L -18.15 33.75
Q -17.65 35.45 -15.5 36.5 -10.3 39.05 9.05 39.05 10.1 39.05 11.6 38.05
L 13.45 36.8
Q 13.25 37.15 13.2 38 13.25 39.05 13.9 39.05 14.4 39.05 20.15 37.05 25.9 35.1 26.4 35.1 26.9 35.1 27.45 35.9 28 36.65 28.5 36.65 30.55 36.65 37.45 34.2 45.25 31.45 45.45 29.4 45.5 28.65 47.85 24.7
L 50.25 20.8
Q 50.05 19.65 49.5 19.3
L 48.4 19.4 50 11.15
Q 50.15 9.35 48 5.05 45.8 0.85 46 -1.2 46.1 -2.4 47 -3.35
L 36.45 -7.15
Q 36 -7.15 27.8 -2.25 19.55 2.6 15.55 2.6 8.95 2.6 5.7 -0.45
L 5.65 -0.5
Q 3.3 -2.45 3.9 -4.95
L 5.9 -11.75
Q 7.5 -16.15 8.65 -21.3 10.25 -30.6 10.05 -33.65 10 -34.25 10.75 -34.8 11.4 -35.35 11.15 -38.45 10.9 -41.55 7.6 -55.95
L 6.85 -59.1
Q 5.85 -58.55 6.35 -59.4 6.8 -60.3 6.2 -61.25
L 4.15 -64.75
Q 2.75 -67.3 2.45 -65.25 2.15 -63.25 1.8 -63.7
M 3.6 -11.75
Q 2.8 -6.65 3.4 -3.7 3.6 -1.9 4.35 -0.5
L 4.45 -0.5
Q 7.35 5.95 13.95 5.95 14.2 5.95 22.3 2.35 30.9 -1.25 33.5 -1.25 37.35 -1.25 42.1 1.4 48.15 4.75 47.7 9.6
L 46.9 16.1
Q 45.9 20.75 42.85 24.15 34.2 33.9 8.7 33.9 -9.15 33.9 -12.6 31.5 -14.45 30.25 -14.65 27.65
L -14.3 21.15
Q -13.85 16.35 -13.05 12.4
L -10.15 -0.5 -10.1 -0.5
Q -8.95 -5.3 -6.2 -11.85 -5.05 -14.25 -3.85 -17 4 -29.8 4.3 -46.65 8 -22.35 3.6 -11.75
M -2.55 -9.8
Q -3.95 -8.35 -5.55 -3.7
L -6.45 -0.5 -6.5 -0.5 -7.2 3.95
Q -7.65 7.15 -6.5 10.3 -4.1 16.4 4.15 16.4 13.4 16.4 21.65 12.6 29.85 8.75 34.7 8.75 38.6 8.75 40 11.7 41.4 14.55 42.25 14.55
L 43.1 14.3 43.4 13.7
Q 42.5 5.35 35.15 5.35
L 31.05 5.8
Q 31.9 4.45 31 4.45
L 24.95 6.3
Q 17.7 8.15 10.05 8.15 1.25 8.15 -0.85 0.65
L -1.25 1.1 -1.6 -0.5 -1.55 -0.5
Q -2.45 -5.05 -2.55 -9.8 Z"/>
</g>
</defs>

<g transform="matrix( 1, 0, 0, 1, 0,0) ">
<use xlink:href="#Layer0_0_FILL"/>
</g>
</svg>
