
<svg xmlns="http://www.w3.org/2000/svg" version="1.1" xmlns:xlink="http://www.w3.org/1999/xlink" preserveAspectRatio="none" x="0px" y="0px" width="550px" height="400px" viewBox="0 0 550 400">
<defs>
<g id="Graphics_Symbol_611_0_Layer0_0_FILL">
<path fill="#333333" stroke="none" d="
M 12.7 131.6
Q 12.7 135.3 9.45 135.25 7.45 135.1 6.6 133.7
L 6.7 147.6 69.95 150.2 69.3 114.3 6.4 112.7 6.6 126.65
Q 7.35 125.05 9.3 125.1 12.65 125.15 12.7 131.6
M 63.7 126.9
Q 67.75 125.7 67.85 131.05 67.9 133.75 67.35 135.1 66.25 137.6 63.15 137.5 61.1 137.4 60.15 135.05
L 59.7 132.7
Q 59.6 127.85 63.7 126.9
M 31.95 130.85
Q 31.85 126.65 35.85 127.1 39.9 127.6 39.95 132.65 40.05 137 36.4 136.85 32.05 136.65 31.95 130.85
M 76.5 18.45
Q 73.65 14.45 65.8 13.7 57.3 12.8 52.15 18.1 31.8 41.4 26.95 47.45 16.2 60.95 16.2 65.1 16.35 81.55 19 91.35 21.95 102.15 22.4 110.3
L 29.65 111.1 32 106.2
Q 34.45 100.95 35.35 99.75 42.05 90.7 48.5 79.35 54.3 68.95 56.5 62.9 64.75 40.5 76.5 18.45 Z"/>
</g>

<g id="Graphics_Symbol_651_0_Layer3_0_FILL">
<path fill="#FFFFFF" stroke="none" d="
M 86.85 41.55
L 86.9 39.25 86.6 37.05 86.85 41.55
M 1.25 22.65
L 1.2 23.7 0.55 39.6
Q 0.4 47 1.25 60 2 60.95 2.7 62.85 3.65 65.65 3.7 68.25
L 3.25 70.55 2.55 73.4
Q 3.05 73.6 2.15 73.6
L 3.1 88.05 2.9 92.4 2.25 92.7
Q 4 97.75 4 99.05
L 3.85 101.9 4 102.5 4.1 102.85
Q 5.7 106.25 7.7 108.15 12.15 112.6 19.75 109.9 18.8 104.7 17.35 94.35
L 16.05 84.65
Q 16 83.2 14.55 78.3 13.3 74.3 13.7 74.25
L 13.95 74.35
Q 10.6 56.4 10.05 54.75
L 5.25 41.15
Q 3.85 37.55 3.85 36.9
L 3.95 35.8 4.3 35.35 5.85 36.75 1.25 22.65
M 2.85 45.35
L 3.25 45.1 3.45 44.8
Q 5.35 46.05 6.7 49.75 7.65 52.45 7.65 53.65
L 7.35 55.45
Q 6.75 56.8 5.85 56.9 4.95 56.85 3.8 52 2.85 47.9 2.8 46.75
L 2.85 45.35
M 11.9 80.1
L 12.75 85.95 12.6 89.55 12.55 89.65
Q 12.35 89.95 12.25 90.6
L 11.15 91.1
Q 10.05 88.1 9.75 86.15 9.3 83.9 9.3 79.45 9.25 78.45 9.6 77 9.9 75.5 10.3 74.55
L 11 73.7
Q 11 74.85 11.9 80.1
M 3.7 88.15
Q 5.7 88.6 6.85 92.25 7.7 95.3 7.8 99.6
L 7.7 102.2
Q 7.6 102.55 6.6 102.5 3.4 97.9 3.7 88.15
M 81.15 22.35
L 81.25 22.2 80 19.65 78.9 19.55
Q 77.1 19.55 73.45 28.2 69.9 36.8 66.05 50.15 56.6 83.2 55.05 111.35
L 61.3 110.9
Q 67.85 110.6 69.1 110.85 73.9 88.2 78.9 69.65
L 78.85 68.85 80.5 63.8 82.05 58.25
Q 83.1 53.7 83.15 49.8 83.15 49.15 83.7 46.15
L 84.25 42.4 84.25 42.25 83.4 45.35 80.75 45.55 80.55 41.55 81.3 36.45
Q 82.1 33.95 83.55 33.05
L 83 28.05 82.6 26.2 82.1 26.4
Q 81.55 26.35 81.2 25.7 80.8 25 80.75 23.95 80.65 22.95 81.15 22.35
M 75.8 39.4
Q 75.9 42.45 75.35 44.7 74.4 48 71.9 50.3 70.3 47.95 70.35 47.45 70.3 45.75 71.5 43.85 72.4 42.25 75.55 38.35 75.65 38.5 75.75 38.45
L 75.8 39.4
M 73 60.9
Q 74.15 56.9 76.45 57.2 76.7 58.25 75.5 63.8 74.3 69.35 73.55 70.7
L 72.9 70.2
Q 72.25 69.8 72.25 67.45 72.15 63.85 73 60.9
M 66.1 74.95
L 66.35 77.45 65.65 88.75 62.6 89
Q 62.2 87.45 62.2 86.1
L 63.2 80.85
Q 64.35 75.55 65 74 65.35 74.65 66.1 74.95
M 64.2 108.55
Q 65.9 102.35 66.4 99.5 66.9 100.65 67.2 103.45 67.6 106.75 67.4 110.05
L 65.2 110.45 64.55 110.35 64.4 110
Q 64.2 109.95 64.2 108.55 Z"/>

<path fill="#000000" stroke="none" d="
M 84.3 23.7
L 84.3 23.55 83.65 21.6
Q 81.1 16.1 80.25 13.6 76.3 10.65 71.6 9.2 64.2 6.9 49.1 6.35
L 42.9 6.95 18.3 8.75 17.9 8.85
Q 17.3 8.9 11.5 11
L 7.4 12.6
Q 6.1 13.1 0.95 17.95
L 0.9 18.1 0.3 21 -0.55 25.85
Q -0.6 27.65 -0.05 29.15
L -0.5 49.85 -0.55 55.2
Q -0.55 68.35 0.3 78.6 1.2 90.35 1 99.9
L 0.95 102.3
Q 1.6 104.7 2.2 106.25 3.65 120 3.85 136.25
L 3.1 142.05 2.4 147.75
Q 2.4 150.15 11 152
L 18.5 153.2 19.4 153.2 19.05 153.05 19.65 153
Q 45.15 154.15 57.85 153.3 73.35 152.3 73.3 148.25
L 72.3 134.2 71.2 122.4
Q 71.15 115.15 72.55 106.55 73.8 99.15 78.2 80.05 79 76.45 80.8 70.3 83.35 69.25 85.6 54.3
L 86.55 51.2
Q 86.2 49.95 86.15 48.3
L 86.85 41.55 86.6 37.05 85.45 31.5
Q 84.25 26.1 84.3 23.7
M 82.6 26.2
L 83 28.05 83.55 33.05 83.75 34.6 84.25 42.25 84.25 42.4 83.7 46.15
Q 83.15 49.15 83.15 49.8 83.1 53.7 82.05 58.25
L 80.5 63.8 78.85 68.85 78.9 69.65
Q 73.9 88.2 69.1 110.85 67.85 110.6 61.3 110.9
L 55.05 111.35
Q 56.6 83.2 66.05 50.15 69.9 36.8 73.45 28.2 77.1 19.55 78.9 19.55
L 80 19.65 81.25 22.2 82.6 26.2
M 65.8 13.7
Q 73.65 14.45 76.5 18.45 64.75 40.5 56.5 62.9 54.3 68.95 48.5 79.35 42.05 90.7 35.35 99.75 34.45 100.95 32 106.2
L 29.65 111.1 22.4 110.3
Q 21.95 102.15 19 91.35 16.35 81.55 16.2 65.1 16.2 60.95 26.95 47.45 31.8 41.4 52.15 18.1 57.3 12.8 65.8 13.7
M 46.55 12.45
L 47.55 12.5
Q 47.85 12.7 47.8 13.7 47.8 14.45 33.6 32.2 19.25 49.95 17.7 49.95 15.9 49.95 10 35.9 4.2 22.05 4.15 17.95 4.15 16.45 13.2 14.9 25 12.9 46.55 12.45
M 1.2 23.7
L 1.25 22.65 5.85 36.75 4.3 35.35 3.95 35.8 3.85 36.9
Q 3.85 37.55 5.25 41.15
L 10.05 54.75
Q 10.6 56.4 13.95 74.35
L 13.7 74.25
Q 13.3 74.3 14.55 78.3 16 83.2 16.05 84.65
L 17.35 94.35
Q 18.8 104.7 19.75 109.9 12.15 112.6 7.7 108.15 5.7 106.25 4.1 102.85
L 4 102.5 3.85 101.9 4 99.05
Q 4 97.75 2.25 92.7
L 2.9 92.4 3.1 88.05 2.15 73.6 1.75 68.2 1.25 60
Q 0.4 47 0.55 39.6
L 1.2 23.7
M 14 74.75
L 14.2 75.55
Q 13.7 75.5 13.95 74.95
L 14 74.75
M 40.9 98.6
L 43.9 94.5
Q 48.15 89 51.15 87.9 51.6 89.1 51.75 92.4 51.85 95.65 51.6 96.9 51.3 98.1 51.25 102.45
L 51.25 107.35 51.2 108.4 39.9 108.65
Q 38.35 109.75 36.75 109.75
L 35.9 109.5 35.55 109.25 35.45 107.65 40.05 100.05 40.9 98.6
M 5.95 130.2
Q 5.9 128 6.6 126.65
L 6.4 112.7 69.3 114.3 69.95 150.2 6.7 147.6 6.6 133.7 6.2 132.75 5.95 130.2
M 41.15 103.25
Q 38.9 106.05 49.1 105.15 47.35 101.2 48.9 95.55 43.3 100.5 41.15 103.25
M 7.8 19.25
Q 9.4 28.15 17.55 44.15 24.1 38 32.05 28.75
L 41.75 16.75 7.8 19.25 Z"/>

<path fill="#00CC66" stroke="none" d="
M 14.2 75.55
L 14 74.75 13.95 74.95
Q 13.7 75.5 14.2 75.55 Z"/>
</g>

<g id="Graphics_Symbol_651_0_Layer2_0_FILL">
<path fill="#F7CE0D" stroke="none" d="
M 69.7 113.95
L 68.15 113.65
Q 62.95 113.55 58.2 119.65 52.85 127.85 49.9 131.85 49.05 127 47.5 122.85 44.45 114.7 37.95 114.5 33.8 114.3 28.5 117.8 22.65 121.55 22.35 125.9 16.5 117.8 14.7 116.55 12.9 115.05 6 113.45 6.15 115.1 13.35 121.3 20.5 127.35 20.5 129.5 20.5 133.1 12.4 139.25 5.95 144.1 2.85 145.15 3.2 145.95 4.65 146.8 6.05 147.55 6.9 147.6 10.55 147.7 14.1 143.55
L 21.9 132.2
Q 23.15 138.25 25.75 142.65 29.55 149.1 35.15 149.35 40.7 149.55 45.4 144.5 47.25 142.5 49.75 138.15 53.95 148.9 61.6 149.25 72.35 149.7 74.15 149.2 74.85 148.95 74.75 148.5
L 74.35 147.8 62.65 144.05
Q 51.05 140.15 51 136.05 50.95 134.6 59.25 125.5 67.55 116.45 70.05 115.15
L 69.7 113.95
M 48.2 134.3
Q 48.25 139.55 41.65 143.25
L 34.9 145.8
Q 32.9 145.65 31.15 142.55 27.95 135.9 24.15 129.15 26.5 122.2 30.7 119.95 34.35 117.95 38.6 119.85 42.45 121.5 45.3 125.7 48.15 129.9 48.2 134.3 Z"/>

<path fill="#DE0000" stroke="none" d="
M 27.1 69.15
L 23.65 74.05
Q 21.6 76.75 21.05 78
L 22.4 82.45
Q 24.05 86.55 26.1 86.6 26.65 86.6 30.5 80.15 30.5 77.5 29.75 74.6 28.75 70.65 27.1 69.15
M 34.3 58.85
Q 34.25 62.15 35.6 64.5 36.85 66.7 38.6 66.8 40.35 66.75 41.6 64.45 42.8 62.15 42.85 58.9 42.75 55.7 41.5 53.45 40.15 51.05 38.4 51.1 36.65 51.05 35.45 53.45 34.2 55.7 34.3 58.85
M 53.3 36.6
L 50.95 36.2
Q 49.55 36.15 48.6 37.55 48.4 37.7 47.1 40.2 47.9 42.55 48.7 42.6
L 49.5 42.05
Q 49.85 42.05 51.7 45.55 53.6 48.95 54.35 48.95 56.7 48.95 57.5 46.45 57.85 44.95 57.85 41.9
L 57.7 40.1 57.35 38.95 56.9 39.5 56.45 39.95
Q 55.6 37.4 53.3 36.6
M 67.3 24.55
Q 64.05 20.5 62.9 20.5 60.35 20.5 60.45 26.95 60.45 28.4 61.8 31.15 63.55 34.75 65.85 34.75 66.4 34.75 68.35 32.3 70.35 29.9 70.35 29 70.3 28.35 67.3 24.55 Z"/>
</g>

<g id="Graphics_Symbol_651_0_Layer1_0_FILL">
<path fill="#000000" fill-opacity="0.32941176470588235" stroke="none" d="
M 87.25 43.55
Q 87.25 40.35 86.65 36.3 83.85 17.3 76.35 11.95 72.7 9.35 66.6 8.45
L 52.7 7.8
Q 24.5 7.8 13.25 11 -0.5 14.95 -0.5 25.8
L -0.35 28.6 0.35 38.05 0.8 46.15 0 68.05
Q 0 83.85 2.3 100.4 4.55 117 4.55 125.1 4.55 128.45 3.8 135 3 141.6 3 144.15 3 150.5 21 152.9 39 155.3 50.85 153.25 62.65 151.2 67.6 151.2 72.5 151.15 72.5 144.85
L 71.5 129.5
Q 71.5 113.5 79.4 77.3 83.3 59.15 87.25 43.55
M 73.8 19.55
Q 77.4 21.9 77.4 26.6 77.4 32.4 68.5 74.5 59.6 116.65 59.6 117.15 59.6 118.7 60.7 124.45 61.8 130.25 61.8 133.55 61.8 142.65 59.7 146.55 57.6 150.5 52.75 150.5
L 41.05 150.65
Q 33.4 150.6 28.4 149.45 14.2 146.2 14.2 132.75 14.2 125.2 14.8 121.15
L 15.35 116.55
Q 15.35 115.95 12.75 108.85
L 9.9 100.95
Q 8.65 95.4 7.05 82.2 5.05 65.6 5.05 54.75 5.05 34.9 12.5 31.35
L 17.6 30.05
Q 19.9 29.55 19.9 27.4 19.9 25.7 16.35 22.8 12.8 19.85 12.8 18.3 12.8 17.65 13.75 17.2 15.05 16.55 17.85 16.55
L 44.3 16.3
Q 56.95 16.2 62.85 16.7 70.45 17.4 73.8 19.55 Z"/>
</g>

<g id="Graphics_Symbol_651_0_Layer0_0_FILL">
<path fill="#FFFFFF" fill-opacity="0.5019607843137255" stroke="none" d="
M 39 130.55
Q 39.95 129.9 39.95 129 39.95 128.1 39 127.5 38.05 126.85 36.7 126.85 35.35 126.85 34.4 127.5 33.45 128.1 33.45 129 33.45 129.9 34.4 130.55 35.35 131.15 36.7 131.15 38.05 131.15 39 130.55
M 19.8 134
L 18.6 132.35 7.75 141
Q 3.15 144.5 3.15 145.75 3.15 146.75 3.45 147.6
L 4.5 147.7
Q 5.2 147.7 12.2 142.25 19.8 136.35 19.8 134
M 12.15 130.5
Q 12.9 129.75 12.9 128.65 12.9 127.55 12.15 126.8 11.4 126.05 10.3 126.05 9.2 126.05 8.45 126.8 7.7 127.55 7.7 128.65 7.7 129.75 8.45 130.5 9.2 131.25 10.3 131.25 11.4 131.25 12.15 130.5
M 20.8 122.6
Q 28.25 127.4 39.65 112 28.4 115.8 23.6 119.3 20.8 121.35 20.8 122.6
M 66.3 128.15
L 61.85 128.15 61.85 132.6 66.3 132.6 66.3 128.15
M 43.65 146.7
Q 47.7 145.2 47.7 140.6 47.7 133.75 39.95 138.9 36.1 141.45 32.2 145.5 32.2 146.5 32.5 147.15
L 37.25 147.45
Q 41.65 147.45 43.65 146.7
M 47.7 100.2
L 44.5 100.2 44.5 103.35 47.7 103.35 47.7 100.2
M 67.45 113.4
Q 65.55 111.3 62.7 113.9 61.2 115.25 59.35 117.65
L 53.5 122.35
Q 49.7 125.75 49.7 128.1 49.7 129.1 50.85 129.8 55.2 127.65 59.1 123.05 66.3 114.55 67.45 113.4
M 28 81.55
Q 28.8 80.1 28.8 78.05 28.8 76 28 74.6 27.15 73.15 25.95 73.15 24.75 73.15 23.95 74.6 23.1 76 23.1 78.05 23.1 80.1 23.95 81.55 24.75 82.95 25.95 82.95 27.15 82.95 28 81.55
M 35.1 59.1
Q 35.1 60.25 35.9 61.05 36.7 61.85 37.8 61.85 38.9 61.85 39.7 61.05 40.5 60.25 40.5 59.1 40.5 57.95 39.7 57.15 38.9 56.35 37.8 56.35 36.7 56.35 35.9 57.15 35.1 57.95 35.1 59.1
M 26.25 28.8
Q 27.85 27.85 27.85 26.55 27.85 25.25 26.25 24.35 24.65 23.4 22.35 23.4 20.05 23.4 18.45 24.35 16.85 25.25 16.85 26.55 16.85 27.85 18.45 28.8 20.05 29.7 22.35 29.7 24.65 29.7 26.25 28.8
M 43.45 34
Q 51.6 23.95 51.95 21.05
L 32.2 41.15
Q 16.25 57.45 16.25 61.3 16.25 62.05 17.5 63.15 18.7 61.25 21.25 58.1 26.25 51.9 33.85 44.95 36.6 42.4 43.45 34
M 67.35 32.2
L 66.9 32.05
Q 59.7 46 38.3 85.2 27.65 104.65 27.65 108.5 27.65 109.8 27.8 109.95
L 28.85 110.6
Q 49.4 77.4 58.8 58.6 67.8 40.55 67.8 33.1 67.8 32.5 67.35 32.2
M 56 43.85
Q 57.1 42.7 57.1 41.15 57.1 39.6 56 38.5 54.85 37.35 53.3 37.35 51.75 37.35 50.65 38.5 49.5 39.6 49.5 41.15 49.5 42.7 50.65 43.85 51.75 44.95 53.3 44.95 54.85 44.95 56 43.85
M 59.45 27.35
Q 59.45 28.35 60.55 29.05 61.6 29.75 63.1 29.75 64.6 29.75 65.7 29.05 66.75 28.35 66.75 27.35 66.75 26.35 65.7 25.65 64.6 24.95 63.1 24.95 61.6 24.95 60.55 25.65 59.45 26.35 59.45 27.35 Z"/>
</g>

<g id="MovieClips_Symbol_585_25_Layer0_0_FILL">
<path fill="#0017FF" stroke="none" d="
M 86.15 48.3
Q 87 41.15 86.9 39.25 86.75 37.35 85.45 31.5 84.25 26.1 84.3 23.7
L 84.3 23.55 83.65 21.6 82.2 18.4
Q 77.85 15.1 70.25 11.05 64.45 7.95 47.6 7.95
L 14.9 9.8 7.4 12.6
Q 6.1 13.1 0.95 17.95
L 0.9 18.1 -0.55 25.85
Q -0.6 27.65 -0.05 29.15
L -0.55 55.2
Q -0.55 68.35 0.3 78.6
L 0.95 90.25
Q 5.95 111.3 6.5 121.65 7 132.65 5.45 141.45 3.75 150.15 7.6 149.85 11.5 149.4 20.75 151.45 30 153.2 44.95 152.6 60 151.85 65.05 152.05 70.05 152.2 70.4 150.7 70.7 149.15 70.4 141.65 70.15 134.05 71.2 118.6 72.4 102.2 72.7 99.95 73.6 93.75 82.15 64.2
L 86.25 49.45 86.15 48.3 Z"/>
</g>
</defs>

<g transform="matrix( 1, 0, 0, 1, -33.5,-72.6) ">
<g transform="matrix( 1, 0, 0, 1, 0,0) ">
<g transform="matrix( 1, 0, 0, 1, 0,0) ">
<use xlink:href="#Graphics_Symbol_611_0_Layer0_0_FILL"/>
</g>
</g>

<g transform="matrix( 1, 0, 0, 1, 0,0) ">
<g transform="matrix( 1, 0, 0, 1, 0,0) ">
<use xlink:href="#Graphics_Symbol_651_0_Layer3_0_FILL"/>
</g>

<g transform="matrix( 1, 0, 0, 1, 0,0) ">
<use xlink:href="#Graphics_Symbol_651_0_Layer2_0_FILL"/>
</g>

<g transform="matrix( 1, 0, 0, 1, 0,0) ">
<use xlink:href="#Graphics_Symbol_651_0_Layer1_0_FILL"/>
</g>

<g transform="matrix( 1, 0, 0, 1, 0,0) ">
<use xlink:href="#Graphics_Symbol_651_0_Layer0_0_FILL"/>
</g>
</g>
</g>

<g transform="matrix( 1, 0, 0, 1, -32.9,-71.25) ">
<g transform="matrix( 1, 0, 0, 1, 0,0) ">
<use xlink:href="#MovieClips_Symbol_585_25_Layer0_0_FILL"/>
</g>
</g>

<g transform="matrix( 1, 0, 0, 1, -33.5,-72.6) ">
<g transform="matrix( 1, 0, 0, 1, 0,0) ">
<g transform="matrix( 1, 0, 0, 1, 0,0) ">
<use xlink:href="#Graphics_Symbol_611_0_Layer0_0_FILL"/>
</g>
</g>
</g>
</svg>
