
<svg xmlns="http://www.w3.org/2000/svg" version="1.1" xmlns:xlink="http://www.w3.org/1999/xlink" preserveAspectRatio="none" x="0px" y="0px" width="550px" height="400px" viewBox="0 0 550 400">
<defs>
<linearGradient id="Gradient_1" gradientUnits="userSpaceOnUse" x1="275" y1="194.71249999999998" x2="275" y2="404.0875" spreadMethod="pad">
<stop  offset="0%" stop-color="#7DB583"/>

<stop  offset="100%" stop-color="#63A552"/>
</linearGradient>

<linearGradient id="Gradient_2" gradientUnits="userSpaceOnUse" x1="275" y1="-83.45000000000002" x2="275" y2="290.95000000000005" spreadMethod="pad">
<stop  offset="0%" stop-color="#6DA5F8"/>

<stop  offset="100%" stop-color="#FFFFFF"/>
</linearGradient>

<g id="Graphics_Symbol_327_0_Layer1_0_FILL">
<path fill="url(#Gradient_1)" stroke="none" d="
M 550 207.5
Q 271.15 190.1 0 207.5
L 0 400 550 400 550 207.5 Z"/>

<path fill="url(#Gradient_2)" stroke="none" d="
M 550 207.5
L 550 0 0 0 0 207.5
Q 271.15 190.1 550 207.5 Z"/>
</g>

<g id="Graphics_Symbol_327_0_Layer0_0_FILL">
<path fill="#FFFFFF" fill-opacity="0.5019607843137255" stroke="none" d="
M 431.85 48
Q 430.4 48 429.75 48.65
L 428.6 49.5
Q 420.5 45.55 415.9 48.9 411.8 53.7 409.1 54.75 410.2 54.65 411.9 53.8 411.15 54.55 411.1 56.3 409.3 57.15 407.25 57.5 405.1 57.85 405.1 58.35 405.1 60.85 405.35 59.5 407.5 60.55 408.1 61.85
L 408.45 63.85
Q 408.75 65.75 414.85 65.75 415.9 65.75 416.4 66.2
L 417.1 67.15
Q 418.45 68.5 423.85 68.5 425.1 68.5 426.85 67.4
L 426.95 67.35 427.85 67.75 432.85 67.75 436.15 66.25 453.9 65
Q 456.45 64.3 457.25 62.7 457.85 61.5 457.85 58.6 457.85 58.1 456.5 56.65 454.75 54.7 452.15 53 444.1 48 431.85 48
M 437.55 65.6
L 438.05 65.35 439.05 64.9 439 65.15 437.55 65.6
M 416.7 50.9
L 417.1 51.5 414.2 52.55 416.7 50.9
M 453.4 62.55
L 453.3 61.85 453.6 62.5 453.4 62.55 Z"/>
</g>
</defs>

<g transform="matrix( 1, 0, 0, 1, 0,0) ">
<g transform="matrix( 1, 0, 0, 1, 0,0) ">
<g transform="matrix( 1, 0, 0, 1, 0,0) ">
<use xlink:href="#Graphics_Symbol_327_0_Layer1_0_FILL"/>
</g>

<g transform="matrix( 1, 0, 0, 1, 0,0) ">
<use xlink:href="#Graphics_Symbol_327_0_Layer0_0_FILL"/>
</g>
</g>
</g>
</svg>
