
<svg xmlns="http://www.w3.org/2000/svg" version="1.1" xmlns:xlink="http://www.w3.org/1999/xlink" preserveAspectRatio="none" x="0px" y="0px" width="550px" height="400px" viewBox="0 0 550 400">
<defs>
<g id="Layer0_0_FILL">
<path fill="#DEDEDE" stroke="none" d="
M 62.85 95.55
L 59.2 95.55
Q 57.85 97.35 56.8 99.2 54.75 102.55 54.75 104.1
L 55.35 109.2 55.8 109.55 57.95 109.85
Q 62.25 109.85 63.8 107.8 62.85 106.85 64 106.7
L 62.85 95.55
M 72.1 92.7
Q 69.9 92.65 68.4 94
L 66.25 95.4 66.6 98.75 66.6 107.7 68.25 108.25 73.05 108
Q 73.9 104.25 73.9 100.25 73.9 95.75 72.1 92.7
M 46.4 95.95
L 45.7 97.3
Q 43.3 102 43.3 104.1 43.3 106.4 43.8 107.5 44.95 110.2 48.75 110.2
L 51.55 109.5
Q 51.85 107.45 51.85 102.35 51.85 100.35 51.45 97.25
L 51.35 95.95
Q 50.6 86.35 46.4 95.95
M 32.25 93.8
L 29.95 98.1
Q 27.6 102.8 27.6 103.55 27.6 104.95 28.1 106.2 29.05 108.45 31.4 108.6 35 106.1 34.95 100.05
L 34.2 93.95 32.25 93.8
M 19.9 94.45
L 17.8 95.4
Q 14.9 100.6 17.45 104.3
L 19.15 104.3
Q 21.9 105.35 21.85 102.2 21.7 98.95 19.9 94.45 Z"/>
</g>
</defs>

<g transform="matrix( 1, 0, 0, 1, 0,0) ">
<use xlink:href="#Layer0_0_FILL"/>
</g>
</svg>
