<?xml version='1.0' encoding='utf-8'?>
<svg xmlns="http://www.w3.org/2000/svg" xmlns:xlink="http://www.w3.org/1999/xlink" version="1.1" width="550px" height="400px" viewBox="0 0 550 400" preserveAspectRatio="none" data-xfl-root="MovieClips/Symbol 585 frame 21 / MovieClips/PR2_Graphics_1_Apr_2014_fla/Symbol 570 frame 17 / primary">
  <g transform="translate(-32.9 -71.25)">
    <g transform="matrix(0.833450317382812 -0.09869384765625 0.09869384765625 0.833450317382812 39.25 75.45)">
      <g data-xfl-symbol="MovieClips/PR2_Graphics_1_Apr_2014_fla/Symbol 570">
        <g transform="matrix(0.6719970703 0 0 0.6719970703 53.75 5.45)" data-xfl-instance="bubble2">
          <g data-xfl-symbol="MovieClips/Symbol 220">
            <g transform="matrix(1 0 0 1 -50 -50)">
              <g data-xfl-symbol="MovieClips/Symbol 218">
                <g data-svg-leaf="movieclips_symbol_218_690e007d60/t00_l000_f0000_r00.svg">
                  <defs>
                    <radialGradient id="xfl145_Gradient_1" gradientUnits="userSpaceOnUse" cx="0" cy="0" r="51.275000000000006" fx="0" fy="0" gradientTransform="matrix( 1, 0, 0, 1, 50,50) " spreadMethod="pad">
                      <stop offset="44.705882352941174%" stop-color="#FFFFFF" stop-opacity="0.050980392156862744" />
                      <stop offset="65.09803921568627%" stop-color="#FFFFFF" stop-opacity="0.0784313725490196" />
                      <stop offset="91.37254901960785%" stop-color="#FFFFFF" stop-opacity="0.3333333333333333" />
                      <stop offset="100%" stop-color="#FFFFFF" />
                    </radialGradient>
                    <g id="xfl145_Layer0_0_FILL">
                      <path fill="url(#xfl145_Gradient_1)" stroke="none" d=" M 85.35 85.35 Q 100 70.7 100 50 100 29.3 85.35 14.6 70.7 0 50 0 29.3 0 14.6 14.6 0 29.3 0 50 0 70.7 14.6 85.35 29.3 100 50 100 70.7 100 85.35 85.35 Z" />
                    </g>
                  </defs>
                  <g transform="matrix( 1, 0, 0, 1, 0,0) ">
                    <use xlink:href="#xfl145_Layer0_0_FILL" />
                  </g>
                </g>
              </g>
            </g>
            <g data-xfl-symbol="Graphics/Symbol 219">
              <g data-svg-leaf="graphics_symbol_219_f3b045b74a/t00_l001_f0000_r00.svg">
                <defs>
                  <radialGradient id="xfl146_Gradient_1" gradientUnits="userSpaceOnUse" cx="0" cy="0" r="58.150000000000006" fx="0" fy="0" gradientTransform="matrix( 0.9999999999999999, 0, 0, 1.20743766122098, 0.45,21.75) " spreadMethod="pad">
                    <stop offset="67.84313725490196%" stop-color="#FFFFFF" stop-opacity="0" />
                    <stop offset="91.37254901960785%" stop-color="#FFFFFF" stop-opacity="0.25098039215686274" />
                    <stop offset="100%" stop-color="#FFFFFF" />
                  </radialGradient>
                  <g id="xfl146_Layer0_0_FILL">
                    <path fill="url(#xfl146_Gradient_1)" stroke="none" d=" M 29.75 -38.4 Q 17.6 -47.7 0.35 -47.7 -16.85 -47.7 -29 -38.4 -41.15 -29.05 -41.15 -15.9 -41.15 -2.65 -29 6.65 -16.85 15.95 0.35 15.95 17.6 15.95 29.75 6.65 41.9 -2.65 41.9 -15.9 41.9 -29.05 29.75 -38.4 Z" />
                  </g>
                </defs>
                <g transform="matrix( 1, 0, 0, 1, 0,0) ">
                  <use xlink:href="#xfl146_Layer0_0_FILL" />
                </g>
              </g>
              <g data-svg-leaf="graphics_symbol_219_f3b045b74a/t00_l000_f0000_r00.svg">
                <defs>
                  <g id="xfl147_Layer0_0_FILL">
                    <path fill="#FFFFFF" stroke="none" d=" M -21.45 -28.45 Q -20.45 -31.1 -21.65 -32.3 -22.85 -33.45 -25.45 -32.5 -28.05 -31.6 -30.55 -29.1 -33.05 -26.55 -34.05 -23.9 -34.95 -21.35 -33.75 -20.15 -32.6 -18.95 -30 -19.9 -27.35 -20.85 -24.85 -23.35 -22.35 -25.85 -21.45 -28.45 Z" />
                  </g>
                </defs>
                <g transform="matrix( 1, 0, 0, 1, 0,0) ">
                  <use xlink:href="#xfl147_Layer0_0_FILL" />
                </g>
              </g>
            </g>
          </g>
        </g>
        <g transform="matrix(0.6719970703 0 0 0.6719970703 -32.2 44.05)" data-xfl-instance="bubble3">
          <g data-xfl-symbol="MovieClips/Symbol 220">
            <g transform="matrix(1 0 0 1 -50 -50)">
              <g data-xfl-symbol="MovieClips/Symbol 218">
                <g data-svg-leaf="movieclips_symbol_218_690e007d60/t00_l000_f0000_r00.svg">
                  <defs>
                    <radialGradient id="xfl148_Gradient_1" gradientUnits="userSpaceOnUse" cx="0" cy="0" r="51.275000000000006" fx="0" fy="0" gradientTransform="matrix( 1, 0, 0, 1, 50,50) " spreadMethod="pad">
                      <stop offset="44.705882352941174%" stop-color="#FFFFFF" stop-opacity="0.050980392156862744" />
                      <stop offset="65.09803921568627%" stop-color="#FFFFFF" stop-opacity="0.0784313725490196" />
                      <stop offset="91.37254901960785%" stop-color="#FFFFFF" stop-opacity="0.3333333333333333" />
                      <stop offset="100%" stop-color="#FFFFFF" />
                    </radialGradient>
                    <g id="xfl148_Layer0_0_FILL">
                      <path fill="url(#xfl148_Gradient_1)" stroke="none" d=" M 85.35 85.35 Q 100 70.7 100 50 100 29.3 85.35 14.6 70.7 0 50 0 29.3 0 14.6 14.6 0 29.3 0 50 0 70.7 14.6 85.35 29.3 100 50 100 70.7 100 85.35 85.35 Z" />
                    </g>
                  </defs>
                  <g transform="matrix( 1, 0, 0, 1, 0,0) ">
                    <use xlink:href="#xfl148_Layer0_0_FILL" />
                  </g>
                </g>
              </g>
            </g>
            <g data-xfl-symbol="Graphics/Symbol 219">
              <g data-svg-leaf="graphics_symbol_219_f3b045b74a/t00_l001_f0000_r00.svg">
                <defs>
                  <radialGradient id="xfl149_Gradient_1" gradientUnits="userSpaceOnUse" cx="0" cy="0" r="58.150000000000006" fx="0" fy="0" gradientTransform="matrix( 0.9999999999999999, 0, 0, 1.20743766122098, 0.45,21.75) " spreadMethod="pad">
                    <stop offset="67.84313725490196%" stop-color="#FFFFFF" stop-opacity="0" />
                    <stop offset="91.37254901960785%" stop-color="#FFFFFF" stop-opacity="0.25098039215686274" />
                    <stop offset="100%" stop-color="#FFFFFF" />
                  </radialGradient>
                  <g id="xfl149_Layer0_0_FILL">
                    <path fill="url(#xfl149_Gradient_1)" stroke="none" d=" M 29.75 -38.4 Q 17.6 -47.7 0.35 -47.7 -16.85 -47.7 -29 -38.4 -41.15 -29.05 -41.15 -15.9 -41.15 -2.65 -29 6.65 -16.85 15.95 0.35 15.95 17.6 15.95 29.75 6.65 41.9 -2.65 41.9 -15.9 41.9 -29.05 29.75 -38.4 Z" />
                  </g>
                </defs>
                <g transform="matrix( 1, 0, 0, 1, 0,0) ">
                  <use xlink:href="#xfl149_Layer0_0_FILL" />
                </g>
              </g>
              <g data-svg-leaf="graphics_symbol_219_f3b045b74a/t00_l000_f0000_r00.svg">
                <defs>
                  <g id="xfl150_Layer0_0_FILL">
                    <path fill="#FFFFFF" stroke="none" d=" M -21.45 -28.45 Q -20.45 -31.1 -21.65 -32.3 -22.85 -33.45 -25.45 -32.5 -28.05 -31.6 -30.55 -29.1 -33.05 -26.55 -34.05 -23.9 -34.95 -21.35 -33.75 -20.15 -32.6 -18.95 -30 -19.9 -27.35 -20.85 -24.85 -23.35 -22.35 -25.85 -21.45 -28.45 Z" />
                  </g>
                </defs>
                <g transform="matrix( 1, 0, 0, 1, 0,0) ">
                  <use xlink:href="#xfl150_Layer0_0_FILL" />
                </g>
              </g>
            </g>
          </g>
        </g>
        <g transform="matrix(0.6719970703 0 0 0.6719970703 -21.95 -49.65)" data-xfl-instance="bubble1">
          <g data-xfl-symbol="MovieClips/Symbol 220">
            <g transform="matrix(1 0 0 1 -50 -50)">
              <g data-xfl-symbol="MovieClips/Symbol 218">
                <g data-svg-leaf="movieclips_symbol_218_690e007d60/t00_l000_f0000_r00.svg">
                  <defs>
                    <radialGradient id="xfl151_Gradient_1" gradientUnits="userSpaceOnUse" cx="0" cy="0" r="51.275000000000006" fx="0" fy="0" gradientTransform="matrix( 1, 0, 0, 1, 50,50) " spreadMethod="pad">
                      <stop offset="44.705882352941174%" stop-color="#FFFFFF" stop-opacity="0.050980392156862744" />
                      <stop offset="65.09803921568627%" stop-color="#FFFFFF" stop-opacity="0.0784313725490196" />
                      <stop offset="91.37254901960785%" stop-color="#FFFFFF" stop-opacity="0.3333333333333333" />
                      <stop offset="100%" stop-color="#FFFFFF" />
                    </radialGradient>
                    <g id="xfl151_Layer0_0_FILL">
                      <path fill="url(#xfl151_Gradient_1)" stroke="none" d=" M 85.35 85.35 Q 100 70.7 100 50 100 29.3 85.35 14.6 70.7 0 50 0 29.3 0 14.6 14.6 0 29.3 0 50 0 70.7 14.6 85.35 29.3 100 50 100 70.7 100 85.35 85.35 Z" />
                    </g>
                  </defs>
                  <g transform="matrix( 1, 0, 0, 1, 0,0) ">
                    <use xlink:href="#xfl151_Layer0_0_FILL" />
                  </g>
                </g>
              </g>
            </g>
            <g data-xfl-symbol="Graphics/Symbol 219">
              <g data-svg-leaf="graphics_symbol_219_f3b045b74a/t00_l001_f0000_r00.svg">
                <defs>
                  <radialGradient id="xfl152_Gradient_1" gradientUnits="userSpaceOnUse" cx="0" cy="0" r="58.150000000000006" fx="0" fy="0" gradientTransform="matrix( 0.9999999999999999, 0, 0, 1.20743766122098, 0.45,21.75) " spreadMethod="pad">
                    <stop offset="67.84313725490196%" stop-color="#FFFFFF" stop-opacity="0" />
                    <stop offset="91.37254901960785%" stop-color="#FFFFFF" stop-opacity="0.25098039215686274" />
                    <stop offset="100%" stop-color="#FFFFFF" />
                  </radialGradient>
                  <g id="xfl152_Layer0_0_FILL">
                    <path fill="url(#xfl152_Gradient_1)" stroke="none" d=" M 29.75 -38.4 Q 17.6 -47.7 0.35 -47.7 -16.85 -47.7 -29 -38.4 -41.15 -29.05 -41.15 -15.9 -41.15 -2.65 -29 6.65 -16.85 15.95 0.35 15.95 17.6 15.95 29.75 6.65 41.9 -2.65 41.9 -15.9 41.9 -29.05 29.75 -38.4 Z" />
                  </g>
                </defs>
                <g transform="matrix( 1, 0, 0, 1, 0,0) ">
                  <use xlink:href="#xfl152_Layer0_0_FILL" />
                </g>
              </g>
              <g data-svg-leaf="graphics_symbol_219_f3b045b74a/t00_l000_f0000_r00.svg">
                <defs>
                  <g id="xfl153_Layer0_0_FILL">
                    <path fill="#FFFFFF" stroke="none" d=" M -21.45 -28.45 Q -20.45 -31.1 -21.65 -32.3 -22.85 -33.45 -25.45 -32.5 -28.05 -31.6 -30.55 -29.1 -33.05 -26.55 -34.05 -23.9 -34.95 -21.35 -33.75 -20.15 -32.6 -18.95 -30 -19.9 -27.35 -20.85 -24.85 -23.35 -22.35 -25.85 -21.45 -28.45 Z" />
                  </g>
                </defs>
                <g transform="matrix( 1, 0, 0, 1, 0,0) ">
                  <use xlink:href="#xfl153_Layer0_0_FILL" />
                </g>
              </g>
            </g>
          </g>
        </g>
      </g>
    </g>
  </g>
</svg>