
<svg xmlns="http://www.w3.org/2000/svg" version="1.1" xmlns:xlink="http://www.w3.org/1999/xlink" preserveAspectRatio="none" x="0px" y="0px" width="550px" height="400px" viewBox="0 0 550 400">
<defs>
<g id="Layer0_0_FILL">
<path fill="#FFFFFF" fill-opacity="0.25098039215686274" stroke="none" d="
M 25 120.05
Q 25 121 27.35 121.7
L 32.95 122.35 38.6 121.7
Q 40.9 121 40.9 120.05 40.9 119.1 38.6 118.45 36.25 117.75 32.95 117.75 29.65 117.75 27.35 118.45 25 119.1 25 120.05
M 41.4 111.5
Q 43.95 110.45 43.95 109 43.95 107.55 41.4 106.5 38.85 105.45 35.25 105.45 31.65 105.45 29.1 106.5 26.55 107.55 26.55 109 26.55 110.45 29.1 111.5 31.65 112.55 35.25 112.55 38.85 112.55 41.4 111.5
M 34.3 92.1
Q 30.85 92.1 28.45 93.25 26 94.4 26 96 26 97.6 28.45 98.75 30.85 99.9 34.3 99.9 37.75 99.9 40.2 98.75 42.6 97.6 42.6 96 42.6 94.4 40.2 93.25 37.75 92.1 34.3 92.1
M 50 40.65
Q 50.8 37.4 49.95 34.9 49 32.3 46.8 32.3 43.85 32.3 39.7 35.6 34.8 39.5 34.8 44.1 34.8 46.45 36.25 47.8 37.5 48.95 39.25 48.95 47.8 48.95 50 40.65
M 60.7 37.9
Q 59.75 38.85 59.75 40.2 59.75 41.55 60.7 42.55 61.65 43.5 63 43.5 64.35 43.5 65.3 42.55 66.25 41.55 66.25 40.2 66.25 38.85 65.3 37.9 64.35 36.9 63 36.9 61.65 36.9 60.7 37.9 Z"/>
</g>
</defs>

<g transform="matrix( 1, 0, 0, 1, 0,0) ">
<use xlink:href="#Layer0_0_FILL"/>
</g>
</svg>
