
<svg xmlns="http://www.w3.org/2000/svg" version="1.1" xmlns:xlink="http://www.w3.org/1999/xlink" preserveAspectRatio="none" x="0px" y="0px" width="550px" height="400px" viewBox="0 0 550 400">
<defs>
<g id="Layer0_0_FILL">
<path fill="#000000" fill-opacity="0.25098039215686274" stroke="none" d="
M 70.85 36.3
Q 70.85 19.5 62.8 8.95 55 -1.3 45.1 0.95 35.15 3.2 31.35 5.65
L 26.8 8.25
Q 26 8.4 20.25 17.2 14.5 25.95 13 31.55 11.5 37.1 10.8 41.1 10.1 45.05 9.75 53.95 9.25 66.3 9.45 76.85 9.65 87.35 8.3 90 6.95 92.65 7.5 108.65 7.5 111.8 5.85 120.5
L 4.2 129.8
Q 4.2 131.8 10.75 132.5
L 27.65 134
Q 38 134.8 42.5 127.65 46.95 120.5 50.75 103.1 46.95 80.25 63.8 53.3 67.55 48.8 68.8 46.65 70.85 43.15 70.85 36.3
M 61.45 24.65
Q 66.3 31.15 66.3 36.3 66.3 45.5 61.6 50.9 58.45 54.55 51.25 57.95 43.15 61.8 40.9 63.7 36.2 67.7 36.2 74.45
L 37.25 88.85 24.95 87.65
Q 24.65 88.2 24.65 89.35 24.65 92.9 34.35 94.1
L 41 94.95
Q 44.05 95.55 44.05 96.65 44.05 98.55 42.6 98.8
L 37.95 98.9 38 99.65 37.95 103.8 35.05 103.85 24.3 102.8
Q 24.1 102.8 23.65 103.45 23.15 104.25 23.15 105.05 23.15 106.4 26.45 107.6
L 29.9 108.55 40.65 107.5
Q 41.9 107.5 42.6 108 43.2 108.45 43.2 109 43.2 111.65 36.8 111.6
L 21.2 111.05 20.9 111.1
Q 22.4 114.05 26.1 115.35
L 32.05 115.65 37.65 116.45
Q 39.95 116.75 39.95 118.45 39.95 120.3 37.6 120.7
L 31 120.9 27.4 120.45 26.75 119.95
Q 23.05 121.25 20.8 121.25
L 16.65 120.7
Q 21.45 102.75 21.45 99.65 21.45 89.7 19.35 80.4 17.2 71.1 17.2 63.95 17.2 47.75 26.55 32.1 36 16.3 45.95 16.3 55.25 16.3 61.45 24.65 Z"/>
</g>
</defs>

<g transform="matrix( 1, 0, 0, 1, 0,0) ">
<use xlink:href="#Layer0_0_FILL"/>
</g>
</svg>
