
<svg xmlns="http://www.w3.org/2000/svg" version="1.1" xmlns:xlink="http://www.w3.org/1999/xlink" preserveAspectRatio="none" x="0px" y="0px" width="550px" height="400px" viewBox="0 0 550 400">
<defs>
<g id="Layer0_0_FILL">
<path fill="#000000" stroke="none" d="
M 71.05 40.65
Q 71.05 17.45 61.15 6.85 52.3 -2.65 39.4 1.25 26.55 5.1 17.65 19.8 7.75 36.15 7.75 58.7 7.75 60.6 8.25 61.45
L 8.7 62
Q 8.7 91.55 4.35 114.15 2.2 125.4 0 130.85 0 131.85 0.6 132.5 1.35 133.35 2.8 133.35 3.3 133.35 3.35 132.95 3.35 132.55 3.85 132.55
L 32.05 133.7 25.8 137.2 26.85 137.2
Q 28.35 136.5 34 134.65 39.3 132.65 40.9 130.6 45.45 124.55 47.85 118.65 50.8 111.4 50.8 103.65 50.8 79.2 60.95 61.15
L 67.9 49.85
Q 71.05 44.45 71.05 40.65
M 51.2 3.75
L 50.65 3.15
Q 56.6 4.75 61.8 11.85 69.6 22.6 69.6 40.75 69.6 43.3 66.35 48.85
L 59.2 60.15
Q 48.75 76.65 48.75 85.65 48.75 86.15 49.15 86.5 49.5 86.85 49.5 87.35 49.5 100.85 46.05 114.35 41.3 132.95 32.7 132.95
L 17.25 131.55
Q 7.9 130.2 4.95 129.05 10.65 117.3 15.3 100.75
L 19.25 84.75
Q 19.05 85.1 14.6 98.95 10.25 112.25 8.55 114.65 9.7 108.1 10.75 91.6
L 11.6 76.3
Q 9.75 57.15 9.75 54.3 9.75 29.7 22.6 14.3 27.6 8.3 33.7 4.9 39.15 1.9 43.55 1.9 46.8 1.9 48.85 5.75 52.95 13.25 56.1 17.05 54.85 12.4 53.15 7.85
L 51.2 3.75 Z"/>
</g>
</defs>

<g transform="matrix( 1, 0, 0, 1, 0,0) ">
<use xlink:href="#Layer0_0_FILL"/>
</g>
</svg>
