
<svg xmlns="http://www.w3.org/2000/svg" version="1.1" xmlns:xlink="http://www.w3.org/1999/xlink" preserveAspectRatio="none" x="0px" y="0px" width="550px" height="400px" viewBox="0 0 550 400">
<defs>
<g id="Layer0_0_FILL">
<path fill="#000000" stroke="none" d="
M 95.65 71.75
L 97.4 70.15
Q 93.5 65.7 84.45 62.8 75.4 59.85 65.45 59.85
L 63.55 60.5
Q 55.15 63.1 45.95 67.2 39.7 69.95 37.5 71.45 31.05 73.9 28.45 80.2 25 88.3 25 109.2 25 126.55 46.15 137.8 56.65 143.5 67.15 145.7
L 67.15 146.2 69 146.15 72.2 146.5 77.2 145.7
Q 85 142.4 88 140.9 89.3 140.25 99.6 133.45
L 104.3 130.5 104.6 129.8 104.6 129.7 109.25 126.35
Q 109.75 124.4 110.6 121.95
L 111.35 119.8 111.1 119.65
Q 110.4 119.45 110.4 117.75
L 111.05 106.75
Q 111.05 102.35 110.1 98.1 107.6 94.7 104.4 88.7 100.7 81.9 98.95 78.15 96.1 75.4 92.65 73.25
L 95 71.85 95.65 71.75
M 83.25 65.35
Q 93.6 68.75 93.6 69.25
L 93.4 70.1 93.25 70.25
Q 89.9 70.6 84.05 72.15 75.45 74.45 71.75 77
L 72.25 77.55 79.9 81.95
Q 78.9 83.2 76.75 84 74.5 84.8 71.8 84.8
L 62.45 84.15
Q 58.45 84 58.45 86.05 58.45 87.05 64.75 112.35
L 63.6 111.65
Q 60.8 107.15 57.35 103.7 52.6 98.9 49.4 99.6
L 49.05 99.7 49 99.7 48.95 101.05 48.85 101.15 48.25 101.15
Q 46.4 101.15 40.9 98.15 35.4 95.25 32.2 95.25 31.25 95.25 30.65 95.85
L 29.45 96.5
Q 28.85 96.5 28.8 96.25
L 28.8 95.35
Q 27.6 83.2 31.65 78.65 32.9 77.25 34.95 76.35
L 37.35 75.1 39.6 73.25 65.5 62.35 66.1 62 66.35 61.65
Q 73.15 62.05 83.25 65.35
M 90.15 85.4
Q 88.3 84.7 84.35 82.05 79.5 78.8 78.9 76.95 79.9 76.3 83.15 75.25 87.45 73.9 90.4 73.9 91.15 73.9 95.6 79.8 101.4 87.35 106.8 97.55 107.4 98.6 108.45 108.9 109.45 118.65 109.45 120.9 109.45 124.5 102.35 130.05
L 91.65 136.45
Q 79.8 143.3 72.05 144.3 70.2 143.75 68.75 142 66.85 139.7 66.55 136.3
L 66.75 141.55 66.6 141.6
Q 64.15 141.85 59.45 140.75 52.75 139.15 43.5 135.2 35.3 131.6 30.55 120.7 29 117.25 28.05 113.55
L 27.4 110.35
Q 27.4 103.15 27.85 100.5 28.25 98.25 29.5 97.25 31.1 98.25 33.9 101.45 33.3 101.3 32.65 101.45 34.35 106.6 41.4 114.25 49 122.65 53.5 122.65
L 54.4 122.45 54.55 122.3
Q 57.95 124.25 60.85 124.25 62.6 124.25 64.25 123.4
L 66.1 133 65.6 124.05 67.15 123.95 68.55 122.95 61.75 121.15
Q 62.8 117.1 59.35 117.1
L 58.95 117.45 58.35 118.25
Q 58.35 118.95 58.85 119.65
L 59.6 120.75
Q 55.05 120.5 49.45 117.15
L 43.4 112.6 43.15 112.35 41.3 110.65 39.3 107.7 35.45 102.15
Q 35.05 100.7 35.2 99.2
L 35.5 98.85
Q 41.6 98.55 51.3 106.1 58.15 111.4 63.4 117.65
L 64.3 116.9
Q 65.65 116.4 67 116.25 67.6 116.15 67.6 115.05 67.6 113.4 63.4 99.3
L 59.2 85.5
Q 59.2 84.75 59.35 84.65
L 73.7 85.45 80.35 86.3 75.8 93.3
Q 73.45 96.25 71.25 96.25 69.55 96.25 69.75 95.85 69.95 95 68.5 94.25 68.9 92.9 70.15 91.5 71.5 90.1 73.05 89.65 72.55 91.45 71.35 92.05
L 70.3 92.85 70.35 93.35 70.5 93.55 70.3 93.6 70.75 93.6
Q 74.25 92.75 74.25 89.9 74.25 89.1 72.95 88.05 70.5 88.6 69 90.55 67.5 92.4 67.5 94.7
L 67.4 95.95
Q 67.4 96.35 67.95 96.35
L 70.5 97.9
Q 73.8 99.6 77.55 100.5 79.7 100.9 81.75 103.45 83.6 105.7 84.85 105.7 87.85 105.7 92.2 102.15 96 99.05 98.55 95.4 98.55 94.45 97.5 94.8
L 96.1 95.55 93.2 92.8 93.5 95.3
Q 93.5 97.45 91.85 99.5 89.75 102.1 85.95 102.1 81.75 102.1 79.7 98.9 78.4 96.9 78.4 94.85 78.4 91.15 81.85 89.1 84 87.8 85.65 87.8
L 87.2 87.9
Q 89 88.05 90.15 88.85
L 90.1 88.8 90.55 89.15 92 90.6 92.6 91.25 93.15 90.55 91 87.55
Q 91.75 86.15 91.15 85.95
L 89.75 85.65 90.15 85.4
M 63.25 115.25
L 61.8 113.95 63.95 115.5 63.25 115.25
M 107.9 115
L 106.8 116.3
Q 99.75 123.75 96.2 126.1 99.8 126.2 103.85 121.55 107.3 117.7 107.9 115 Z"/>

<path fill="#FFFFFF" stroke="none" d="
M 61.8 113.95
L 63.25 115.25 63.95 115.5 61.8 113.95
M 41.3 110.65
L 43.15 112.35 39.3 107.7 41.3 110.65
M 85.65 87.8
Q 84 87.8 81.85 89.1 78.4 91.15 78.4 94.85 78.4 96.9 79.7 98.9 81.75 102.1 85.95 102.1 89.75 102.1 91.85 99.5 93.5 97.45 93.5 95.3
L 93.2 92.8 92 90.6 90.55 89.15 90.15 88.85
Q 89 88.05 87.2 87.9
L 85.65 87.8 Z"/>

<path fill="#DAECBD" stroke="none" d="
M 90.55 89.15
L 90.1 88.8 90.15 88.85 90.55 89.15 Z"/>
</g>
</defs>

<g transform="matrix( 1, 0, 0, 1, 0,0) ">
<use xlink:href="#Layer0_0_FILL"/>
</g>
</svg>
