
<svg xmlns="http://www.w3.org/2000/svg" version="1.1" xmlns:xlink="http://www.w3.org/1999/xlink" preserveAspectRatio="none" x="0px" y="0px" width="550px" height="400px" viewBox="0 0 550 400">
<defs>
<g id="Layer0_0_FILL">
<path fill="#000000" fill-opacity="0.25098039215686274" stroke="none" d="
M 48.7 105.15
Q 48.7 103.25 47.55 101.95 46.1 100.3 43.3 100.3 41.25 100.3 39.8 101.5 38.55 102.55 38.55 103.75 38.55 108.35 44.45 112.25 49.95 115.9 55.35 115.9 56.15 115.9 56.35 115.4 56.6 114.65 57.15 114.3 56 113.15 53.1 112.2
L 47.7 110.6
Q 40.95 108.4 40.95 103.85
L 41.55 103.25
Q 42.3 102.75 43 102.75
L 46.2 105 44.35 106
Q 43.85 106.35 43.85 106.95 43.85 108.25 44.65 108.35 46.85 108.85 47.95 107.35 48.7 106.35 48.7 105.15
M 81.35 88.25
L 81.35 85.1 74 85.1 74 88.25 81.35 88.25
M 90.1 72
L 88.55 71.9 93.25 70.95
Q 95.8 70.45 96.35 68.85
L 81.95 63.9
Q 72.5 60.65 70.2 60.65
L 65.6 61.55 60.45 61.65
Q 52.45 65.85 51 66.25 41.15 69.15 34.2 75.05 26.4 81.75 26.4 89.25
L 27 91.55
Q 26.7 92.85 26.55 97.25 26.15 106.45 26.3 112.05 26.4 117.6 34.3 127.85 38.25 133 42.35 135.65 43.2 136.55 43.5 136.05
L 43.8 135.25
Q 46.75 137.25 50.45 139.35
L 53.8 141.2
Q 54.3 141.2 54.75 140.8 55.15 140.4 55.65 140.4
L 64.6 143.75
Q 65.35 143.75 66.15 143.05
L 67.2 141.95
Q 67.65 144.05 69.8 145.3 71.65 146.35 73.8 146.35 78.3 146.35 89.4 139.75 95.45 136.15 104.6 129.8 105.45 129.55 104.75 129.2
L 103.55 128.85 102.95 128.9
Q 94.85 132.5 87.75 134.8 72.1 139.9 68.25 139.9 66.6 139.9 66.4 138.6
L 66.25 135.05 65.7 134.85 64.95 134.8
Q 59.45 136.8 57.7 136.8 49 136.8 40.2 128.25 31 119.3 31 109.35 31 108.35 32 107.75 32.95 107.15 32.95 105.75 38.85 116 46.3 121.45 53.9 126.95 62.35 126.95 63.8 126.95 63.8 125.3
L 64.25 123.2
Q 56.55 125.6 46.15 116.7 35.7 107.8 30.6 94.4 30.95 94.2 31.95 93.95
L 33.45 93.35 32.25 87.25
Q 32.25 77.05 47.65 71.6 60.25 67.15 78 67.15
L 80.45 67.4 80.4 67.5 78.8 68.2
Q 77.5 68.7 77.25 68.95
L 84.65 70.3
Q 80.95 71.6 75.25 72.75 70.1 73.8 68.8 74.4 72.7 76.25 75.6 80.8 77.65 84 83.05 84
L 83.75 83.9 83.9 82.95
Q 83.9 81.75 82.6 80.55
L 80.05 78.6 83.7 77.3
Q 87.35 76.05 88.8 76.25 97.5 84.65 103 97.4 109 111.2 109 125.3
L 108.9 126.3 108.6 127 109 126.65 109.9 124.15
Q 110.5 121.85 110.5 119.2 110.5 115.7 109.9 107.6 109.25 99.45 105.7 93.35
L 100.75 86.35
Q 93.15 75.85 91.7 74.45
L 92.45 74 92.75 73.15
Q 92.75 72.45 92.3 72.15 91.75 71.95 91.45 71.75
L 90.1 72
M 83.1 73.9
L 87.95 72.1 87.6 72.95
Q 86.8 73.7 83.7 74.65 80.75 75.55 79.45 75.55 80.9 74.7 83.1 73.9
M 75.7 76.3
L 77.95 76.65 78.25 77.45 75.7 76.3 Z"/>
</g>
</defs>

<g transform="matrix( 1, 0, 0, 1, 0,0) ">
<use xlink:href="#Layer0_0_FILL"/>
</g>
</svg>
