
<svg xmlns="http://www.w3.org/2000/svg" version="1.1" xmlns:xlink="http://www.w3.org/1999/xlink" preserveAspectRatio="none" x="0px" y="0px" width="550px" height="400px" viewBox="0 0 550 400">
<defs>
<g id="Layer0_0_FILL">
<path fill="#000000" stroke="none" d="
M 45.6 9.9
Q 45.8 8.5 45.5 7
L 45.2 6.55 45.1 6.7
Q 45 7 45 6.55 45.1 6.2 44.9 6.4 44.8 6.4 44.4 7.2 44.05 8.1 43.95 8.2 43.35 9.2 42.5 9.95 38.8 13.55 32.95 13.35 28.1 13.2 22.9 10.55 20.7 9.45 17.3 7.25 13.15 4.6 11.8 3.8 9.05 2.15 6.2 1.1 4.1 0.3 3.2 0.15 1.35 -0.2 0.2 0.5 0 0.6 0 1.25 0 1.9 0.2 2.05 1.05 2.75 2.55 3.25 3.4 3.55 5.1 4.1 7.95 5.25 10.45 6.8 12.25 7.9 15.25 10.05 18.6 12.4 20.05 13.35 32.25 21.3 40.3 16.75 45.05 14 45.6 9.9 Z"/>
</g>
</defs>

<g transform="matrix( 1, 0, 0, 1, 0,0) ">
<use xlink:href="#Layer0_0_FILL"/>
</g>
</svg>
