
<svg xmlns="http://www.w3.org/2000/svg" version="1.1" xmlns:xlink="http://www.w3.org/1999/xlink" preserveAspectRatio="none" x="0px" y="0px" width="550px" height="400px" viewBox="0 0 550 400">
<defs>
<g id="Layer0_0_FILL">
<path fill="#E2B8E8" stroke="none" d="
M 16.5 86.1
Q 16.65 86.65 17.1 87.15 19.25 89.45 22.4 90.05 25.4 90.55 27.75 88.65 28.9 87.65 29.3 86.3 29.6 85.35 29.5 84.4
L 29.55 84.4 29.75 84.3
Q 29.85 84.25 30 84.05
L 30.05 82.8 29.9 82.3
Q 29.8 81.8 29.5 81.4
L 29.25 81.1
Q 29.1 80.8 28.85 80.75
L 28.75 80.7
Q 28.6 80.65 28.4 80.7
L 28.25 80.75 28.05 80.9 27.9 81.15
Q 26.75 80.3 25.4 80.1 23.95 79.85 22.2 79.85 17.15 80 14.6 79.95 13.65 79.95 13.8 81.45 13.95 82.7 14.45 83.45 15.15 84.55 16.3 85.9
L 16.3 85.85 16.5 86.1
M 74.3 48.1
Q 74.25 48.1 74.25 48.15 74.35 48.25 74.25 48.35 74.35 48.45 74.25 48.6
L 74.2 48.85 74.1 48.95 74.15 49 73.85 49.45 73.9 49.5
Q 73.8 49.55 73.8 49.8 73.75 50.05 73.65 50.1
L 73.7 50.15 73.55 50.35 73.6 50.4 72.95 51
Q 72.85 51.4 72.9 51.75 73.05 53.4 75.45 53 76.2 52.9 78.55 52.75 80.35 52.25 78.95 50.05 78.95 49.8 79.35 48.05 79.65 46.65 79.05 45.35 78.7 44 77.15 45.1 75.65 46.05 74.3 48.1 Z"/>

<path fill="#FFFFFF" stroke="none" d="
M 138.05 98.1
Q 137.95 97.8 137.75 97.35 137.45 96.85 137.2 96.95 136.75 97.05 137.1 98.35 137.5 101.3 136.9 104.15 136.6 103.35 136.4 103.4 135.45 103.85 133.55 104.55 132.85 103.05 131.35 102.25 129.8 101.45 128.2 101.75 126.65 102 124.7 102.65 119.35 102.2 106.3 101.85 99 101.6 97.5 101.65 92.5 101.8 88.9 102.8 81.55 104.95 76.3 110.5 70.05 117.25 70.15 123.15 70.2 125.45 71.05 127.75 71.95 130.4 73.5 131.85 74.35 133.45 75.25 134.55
L 76.35 135.7
Q 76.5 135.85 76.8 136.2 77.15 136.55 77.45 136.5 77.85 136.4 77.55 135.35
L 77.55 135.3
Q 78.05 135.3 78.7 134.75 79.15 134.45 79.8 133.8 80.4 133.3 81.55 132.9
L 83.5 132.25
Q 83.7 132.2 83.65 131.6
L 85.45 131.15
Q 90.05 130.2 94.15 129.7 103.1 128.8 111.65 129.25 117.1 129.45 120.2 129.15 124.95 128.85 128.55 127.4 132.4 125.8 135.3 122.9 138.15 119.95 139.6 116.05 141.15 111.95 140.55 106.95 140.1 102.4 138.05 98.1 Z"/>
</g>
</defs>

<g transform="matrix( 1, 0, 0, 1, 0,0) ">
<use xlink:href="#Layer0_0_FILL"/>
</g>
</svg>
