
<svg xmlns="http://www.w3.org/2000/svg" version="1.1" xmlns:xlink="http://www.w3.org/1999/xlink" preserveAspectRatio="none" x="0px" y="0px" width="550px" height="400px" viewBox="0 0 550 400">
<defs>
<g id="Layer0_0_FILL">
<path fill="#FFFFFF" stroke="none" d="
M 80.6 77.55
L 80.8 75.55
Q 80.6439453125 76.4919921875 80.35 77.5
L 80 78.45 80.6 77.55
M 79 69.2
Q 77.4 68.2 75.8 68.2 72.35 68.2 68.85 70.15 63.8 73 63.8 78.5 63.8 80.65 65.95 82.1 68.7 84 74.3 84 76.5 84 77.4 83.05
L 79.4 79.65 78.6 80.55 78.55 80.75 77.7 80.8
Q 76.95 80.8 75.4 79.55 73.6 78.1 73.6 76.7 73.6 74.45 76.3 73.15 77.7 72.5 79.15 72.25 80.15 72.25 80.95 73.05 80.9716796875 73.4931640625 80.95 73.95
L 81.05 73
Q 81.2 70.55 79 69.2 Z"/>
</g>
</defs>

<g transform="matrix( 1, 0, 0, 1, 0,0) ">
<use xlink:href="#Layer0_0_FILL"/>
</g>
</svg>
