
<svg xmlns="http://www.w3.org/2000/svg" version="1.1" xmlns:xlink="http://www.w3.org/1999/xlink" preserveAspectRatio="none" x="0px" y="0px" width="550px" height="400px" viewBox="0 0 550 400">
<defs>
<g id="Layer0_0_FILL">
<path fill="#FF050C" stroke="none" d="
M 94.15 86.05
L 94.3 85.7
Q 94.4 84.45 93.7 83.4 93.2 82.75 92.8 82.9 92.45 82.7 92.2 82.9 90.4 85.1 89.55 87.55 87.85 90 87.45 93.1 86.7 97.95 88.65 102.4 88.85 104.15 89.3 106.25
L 89.7 107.75
Q 90.2 110.3 92.1 112.25 92.95 114.7 93.9 116.25 94.45 117.25 95.05 117.95 95.5 118.65 96.1 119
L 97.6 122.05
Q 98.95 124.65 100.75 127.3
L 102.8 130.8
Q 103.2 131.3 103.4 131.9
L 103.5 132.65 103.45 133.3 103.55 133.85
Q 103.7 135.1 104.1 136.65 104.75 139.65 106.4 142.25
L 106.85 142.85
Q 106.9 143.55 107.15 144.1 107.85 145.45 109.2 146.1 109.7 146.75 110.6 147.3
L 110.85 147.55
Q 111.4 148.95 112.2 148.8 114.05 148.4 115 146.95 115.45 145.9 115.05 144.8
L 115 144.55 115 144.45
Q 115.5 142.4 114.25 140.8 115 140.3 114.5 138.45 113.95 136.65 113.15 136.6 113.45 135.95 113.4 135 113.25 133.4 112.05 132.15
L 111.95 132.15
Q 112.2 130.4 111.15 129.05 111.15 127.9 110.6 127 110.05 126.05 109.4 126.15
L 108.45 126.3 108.35 125.9
Q 108.1 125.05 107.4 124.15
L 107.2 123.8
Q 106.8 122.95 105.85 122.75
L 105.75 122.45
Q 105.3 120 104.1 119.95 104 119.5 103.75 119.15
L 103.35 118.15
Q 102.4 116.3 101.7 117.15
L 101.65 117.2
Q 100.95 115.4 100.2 114.25 99.45 113.05 98.35 110.8 97.45 108.85 96.75 106.95 96.3 105.3 95.25 103.25
L 94.95 102.95
Q 94.95 102.85 94.1 99.2
L 93.9 98.4
Q 93.4 94.75 93.4 93.75 93.4 93.55 93.35 93.5
L 93.7 92
Q 94 90.4 93.2 89.05
L 92.95 88.65 93.15 88.45
Q 93.4 88.05 93.35 87.55 94 86.8 94.15 86.05 Z"/>
</g>
</defs>

<g transform="matrix( 1, 0, 0, 1, 0,0) ">
<use xlink:href="#Layer0_0_FILL"/>
</g>
</svg>
