
<svg xmlns="http://www.w3.org/2000/svg" version="1.1" xmlns:xlink="http://www.w3.org/1999/xlink" preserveAspectRatio="none" x="0px" y="0px" width="550px" height="400px" viewBox="0 0 550 400">
<defs>
<g id="Layer0_0_FILL">
<path fill="#534424" stroke="none" d="
M 124.15 93
Q 124.15 69.5 108.95 53.1 94 37 73.05 37 62.75 37 51.1 41.9 40.25 46.5 30.55 54.25 21.1 61.85 15.45 70.3 9.5 79.15 9.5 86.5 9.5 117.85 24.5 135.1 38.15 150.9 60.25 150.9 87.55 150.9 106.4 132.6 114.85 124.4 119.5 114 124.15 103.65 124.15 93
M 118.3 93.3
L 118.15 93.3
Q 115.8 117.4 100.75 130.95 85.25 144.9 59.15 144.9 33.4 144.9 22.85 121.25 16.75 107.5 16.75 89 16.75 86.95 17.5 79.95
L 15.9 82.7 15.55 82.75
Q 15.7 79.1 17.9 73.8 21 66.4 26.5 60.45 42.55 43.05 73.45 43.05 90.55 43.05 101.9 53.8 115.5 66.7 118.3 93.3 Z"/>
</g>
</defs>

<g transform="matrix( 1, 0, 0, 1, 0,0) ">
<use xlink:href="#Layer0_0_FILL"/>
</g>
</svg>
