
<svg xmlns="http://www.w3.org/2000/svg" version="1.1" xmlns:xlink="http://www.w3.org/1999/xlink" preserveAspectRatio="none" x="0px" y="0px" width="550px" height="400px" viewBox="0 0 550 400">
<defs>
<g id="Layer0_0_FILL">
<path fill="#FFDD55" stroke="none" d="
M 57.15 95.75
Q 57.85 97.5 59.65 98.95 61.4 100.4 63.15 100.8 63.9 100.9 64.5 100.95 65.05 100.95 66.05 100.85
L 66.95 100.7
Q 67.45 100.7 67.8 100.5 68.05 100.4 68.1 99.95 68.15 99.85 68.05 99.6 67.85 99.3 67.55 99.05 66.55 98.4 65.95 97.85 65.4 97.25 65.05 96.55 64.9 96.15 64.65 95.5 64.5 94.85 64.5 94.45 64.45 92.7 65 91.35 65.35 90.6 65.6 90.3 65.7 90.15 66.85 89.25 67.9 88.55 68.8 88.2 69.3 88 69.7 87.85 69.95 87.85 70.65 87.8 72.1 87.6 73.55 88.9 74.8 90 75.45 91.65 75.85 92.5 75.7 93.5 75.55 93.85 74.95 96.15 74.85 96.65 74.9 97.15 74.95 97.5 75 97.55 75.1 97.6 75.4 97.55 75.85 97.5 76.25 97.1 76.65 96.8 77.55 96.05 77.8 95.85 78.3 95.6 78.65 95.4 78.8 95.3 78.95 95.15 79.15 94.65 79.35 94.1 79.65 93.8 80.6 92.9 80.9 90.75 81.15 88.7 80.65 87.35 79.5 84 77.95 82.7 76.75 81.65 75.45 81.15 74.25 80.65 72.55 80.4 70.35 80.15 69.8 80.1 68.65 80 67.6 80.25 67.1 80.35 64.6 81.35 62.85 82.05 62.1 82.6 61.9 82.75 60.8 83.9 60.1 84.65 58.75 86.45 57.45 88.2 57.05 89 56.3 90.35 56.5 93.1 56.55 93.75 56.7 94.5 56.9 95.45 57.15 95.75
M 121.2 80.45
Q 121.1 80.35 120.85 80.55 120.55 80.7 120.35 81 119.95 81.6 119.4 84.3 119 86.7 118.95 86.75 118.9 86.8 118.2 86.75 117.3 86.6 117 86.55 116.05 86.6 115.9 86.8 115.55 87.1 115.05 88.9 114.9 89.5 114.3 91.2 113.65 92.95 113.45 93.65 112.85 95.35 112.75 95.65 112.6 96 112.45 96.05 112.35 96.05 112.3 96.05 112.2 96 111.95 95.8
L 111.1 95
Q 110.95 95.05 110.3 96.7 109.55 98.35 109.15 99.55 108.5 101.35 107.5 104.05 106.4 107.05 106.2 107.5 105.95 107.9 105.8 107.9 105.7 108 105.25 107.95 104.75 107.85 103.1 107.25 101.55 106.7 100.15 106 98.4 105.25 98.25 105.25 97.9 105.25 97.15 106.35 96.8 106.85 94.65 110.55 93.85 111.85 93.2 112.85 92.65 113.7 92.6 113.75 92.4 113.8 90.6 112.95 89.05 112.15 87.85 111.5 85.95 110.3 85.3 110.35 85.1 110.35 84.5 110.95 84.35 111.1 82.75 112.8 81.9 113.65 80.3 114.9 78.9 115.95 78.65 116.05 78.45 116.1 78.1 115.7 77.25 114.7 76.3 113.75 74.7 112.1 73.2 110.9 71.9 109.85 71.65 109.9 71.6 109.9 69.95 111.65 69.6 112.05 69.1 112.7 68.65 113.45 68.5 113.6
L 67.4 114.4
Q 67.3 114.45 67.05 114.3
L 66.85 114.2
Q 65.6 113.7 62.05 111.25 58.45 108.8 57.1 107.55 56.6 107.15 56.4 107 56.3 106.8 55.95 106.55 55.65 106.35 55.6 106.3 55.45 106.3 55.6 107.3 55.65 108.25 55.7 108.4 56.3 110.6 59.05 116.05 61.6 121.15 63.35 123.8 64.05 124.95 64.7 124.75 65.3 124.65 66.95 123.2 68.4 121.95 70.05 120.65 71.6 119.5 72.15 119.2 72.5 119.05 72.8 119.3 73.25 119.55 76.25 121.95 77.15 122.75 78.1 123.4 79.05 124.05 79.25 124 79.3 124.05 79.85 123.55 80.5 122.85 80.95 122.5 83.4 120.05 84.15 119.4
L 85.75 118.05 86.95 118.2
Q 87.4 118.35 88.55 118.85 90.35 119.65 91.95 120.25 92.7 120.5 93.7 120.7 94.65 120.95 95 120.9 95.7 120.35 95.9 120.1 96.55 119.25 98.3 116.35
L 100.1 113.4 101.2 113.65
Q 101.8 113.85 104.95 115.2 106.45 115.7 107.45 115.55 107.95 115.55 108.4 115.3 109 115.15 111.15 110 111.75 108.75 113.05 105.45 114 103.15 114.05 103.05 114.4 102.7 114.8 102.75 114.95 102.8 115.75 103.2 116.05 103.35 116.1 103 116.6 101.9 117.75 97.3 118.3 95.25 118.8 93.8 119.15 92.45 119.25 92.45 119.3 92.45 120.35 92.6 120.85 92.65 121.5 92.65 122.15 92.6 122.35 92.5 122.55 92.4 122.5 91.2 122.45 90.35 122.1 86.15 121.65 81.05 121.2 80.45
M 90.95 90.55
Q 90.8 90.6 90.7 90.7 90.4 90.9 90.25 91 89.65 91.35 89.6 91.55 89.6 91.6 89.7 93.45 89.75 93.7 89.8 95.6 89.9 97.4 90.1 99.2 90.35 101.1 90.5 101.2
L 90.55 101.6
Q 90.7 102 90.7 102.05
L 91.75 101.85
Q 91.9 101.8 92.8 101.35 93.25 101.15 95.05 100.45 99.2 98.75 99.2 98.35 99.25 97.9 97.5 96 95.55 93.85 94.9 93.2 94.05 92.35 93.1 91.5 92.15 90.75 91.8 90.6 91.4 90.4 90.95 90.55
M 114.7 73.8
Q 114.6 73.25 114.1 72.05 113.85 71.5 113.6 71.15 113.45 70.85 113 70.45 112.35 69.75 111.35 69.15 110.35 68.55 109.3 68.2 107.8 67.7 106.1 68.05 104.1 68.45 102.75 69 101.2 69.6 99.55 70.8 98.45 71.55 97.9 72.15 97.4 72.6 96.65 73.75 95.95 74.65 95.1 76.7 94.9 77.3 94.75 78.15 94.55 79.1 94.6 79.85 94.6 81.25 95.15 82.95 95.7 84.6 96.35 85.45 96.8 86.15 97.4 86.75 98.1 87.4 98.65 87.55 98.8 87.6 99.3 87.75 99.8 87.85 100.3 87.8 100.55 87.75 101.6 87.7 102.55 87.7 103 87.45 103.6 87.25 104.8 86.8 105.6 86.5 105.8 86.35
L 106.2 85.5
Q 106.7 85.25 106.65 85.15 106.6 85.05 105.6 84.8 104.45 84.2 103.85 83.75 103.35 83.25 102.85 82.5 102.25 81.4 102.2 80 102.05 78.65 102.55 77.55 102.75 77.05 103.7 76.15 104 75.75 104.35 75.65 104.55 75.6 105.15 75.35 105.85 75.1 106.5 75.35 106.65 75.4 107.6 76 108.1 76.3 108.45 76.65 109.05 77.4 109.2 79.4 109.2 80.65 109.1 81.4 109.05 81.6 109.35 82.05
L 109.7 82.5
Q 109.75 82.6 110.05 82.55 110.4 82.55 110.7 82.45 111 82.35 111.25 82.15 111.4 82.05 111.75 81.7 112.05 81.35 112.5 81 113 80.65 113.75 79.35 114.2 78.6 114.6 76.85 114.75 75.9 114.8 75.25 114.8 74.8 114.7 73.8 Z"/>
</g>
</defs>

<g transform="matrix( 1, 0, 0, 1, 0,0) ">
<use xlink:href="#Layer0_0_FILL"/>
</g>
</svg>
