
<svg xmlns="http://www.w3.org/2000/svg" version="1.1" xmlns:xlink="http://www.w3.org/1999/xlink" preserveAspectRatio="none" x="0px" y="0px" width="550px" height="400px" viewBox="0 0 550 400">
<defs>
<g id="Layer0_0_FILL">
<path fill="#000000" stroke="none" d="
M 151.05 47.6
Q 138.25 48.15 131.95 47.7 119.35 46.9 105.3 46.65 104.05 45.85 98.2 35.75 91.35 23.8 89.95 21.8 83.2 12.2 79.5 7.7 75 2.15 73.4 2.1
L 73.3 2.15
Q 73.4 1 73 0.85 72.9 0.8 72.75 0.85 71 1.3 64.65 15.7 58.45 29.65 50.9 50.15
L 50.45 51.3
Q 29.15 56.95 14.85 61.8 0.15 66.75 0.55 68.25 0.7 68.7 2.2 68.7
L 2.1 68.8
Q 1.25 70.05 7.55 75.55 13.85 81.05 23.65 87.55 31.15 92.55 37.65 96.05 43.95 99.45 47.1 100.25 46 103.6 44.85 110.95 43.65 118.35 42.75 127.55 41.6 139.9 41.6 148.7 41.6 157.55 42.75 157.65 43.05 157.65 43.35 157.15
L 43.3 157.65 88.05 133.05 138.05 144.55
Q 138.8 145.7 139.3 145.55 140.55 145.2 139.05 136.8 137.5 128.3 134.1 116.85 131.4 107.65 128.65 100.45 125.95 93.4 124.25 90.95 126 89.9 131 84.5 136.15 78.95 142.25 71.45 148.65 63.7 153.15 57.35 157.5 51.2 157.85 49.65 159.95 48.9 159.95 48.25 159.9 47.2 151.05 47.6
M 85.6 26.4
Q 90.2 33.2 96.1 41.95 100.2 47.6 103.55 49.65 107.05 51.8 113.4 52.25 116.8 52.55 131.2 52.55 138.2 52.5 145.3 51.8 152.05 51.1 156.15 50.1 151 54.4 139.15 68.9 133.15 76.3 128.8 82.3 124.55 88.2 123.7 90.25 123.25 89.8 122.95 89.9 121.7 90.25 123.25 98.65 124.75 107.05 128.15 118.6 132.55 133.45 136.25 141.3
L 86.7 124.55 45.25 150.7
Q 47.1 142 48.4 128.1 49.3 118.75 49.5 111.1 49.75 103.55 49.25 100.2 49.5 99.8 49 98.9 48.7 98.05 48.4 98 46.35 95.4 40.8 90.95 35.05 86.35 27.7 81.45 19.9 76.25 13.2 72.65 6.65 69.15 3.75 68.6 9.35 68.1 23.2 64.7 36.85 61.35 54.85 56.1
L 55.35 54.9
Q 62.3 37.45 67.05 23.8 71.85 10.1 72.95 4.35 73.8 7.35 77.2 13.3 80.7 19.45 85.6 26.4 Z"/>
</g>
</defs>

<g transform="matrix( 0.7507781982421875, -0.20123291015625, 0.2010498046875, 0.751434326171875, -8.7,54) ">
<use xlink:href="#Layer0_0_FILL"/>
</g>
</svg>
