
<svg xmlns="http://www.w3.org/2000/svg" version="1.1" xmlns:xlink="http://www.w3.org/1999/xlink" preserveAspectRatio="none" x="0px" y="0px" width="550px" height="400px" viewBox="0 0 550 400">
<defs>
<g id="Layer0_0_FILL">
<path fill="#000000" fill-opacity="0.25098039215686274" stroke="none" d="
M 39.4 53.55
Q 37.05 54.55 29.5 62.2 21.95 69.85 21.95 90.4 21.95 98.7 25.25 109.5 28.65 120.6 34.4 130.25 40.75 140.9 48.4 146.95 57 153.8 66.05 153.8 71.2 153.8 73.1 152.95 74.8 152.25 74.8 150.5 74.8 150.05 70.65 146.5
L 64.05 140.5
Q 57.95 134.05 54.7 129.35 49.5 121.85 48 119.15
L 43.95 111.4
Q 41.05 106.1 39.45 100.05 37.7 93.4 37.7 86.7 37.7 75.95 40.6 65.55 42.05 60.4 43.45 56.2 43.5 55.2 42.65 53.95 41.75 52.6 39.4 53.55 Z"/>
</g>
</defs>

<g transform="matrix( 1, 0, 0, 1, 0,0) ">
<use xlink:href="#Layer0_0_FILL"/>
</g>
</svg>
