
<svg xmlns="http://www.w3.org/2000/svg" version="1.1" xmlns:xlink="http://www.w3.org/1999/xlink" preserveAspectRatio="none" x="0px" y="0px" width="550px" height="400px" viewBox="0 0 550 400">
<defs>
<g id="Layer0_0_FILL">
<path fill="#9F4264" stroke="none" d="
M 141.35 98.1
Q 140.85 97.85 140.65 97.2
L 140.05 97.15 137.9 96.6
Q 136.95 96.45 135.5 96.5 133.25 96.8 133.1 96.75 133 96.65 132.3 96.05
L 132.1 96.05 131.75 96.25
Q 131.25 96.6 131.8 98.2 131.05 99.1 130.75 99.6 130.15 100.4 130.1 101.1 130.15 102.95 131.6 105.2
L 131.65 105.35 129.1 107.95
Q 129 108 129 108.4 124.7 111.8 122.45 113.3 121.5 113.9 119.7 114.8 117.8 115.8 117 116.25 116.3 115 116.1 115.25
L 113.75 116.45
Q 113.4 115.85 113.1 115.85
L 112.85 115.8 112.6 115.6
Q 111.8 115.25 111.25 115.45 111 115.55 111.2 116.35 109.85 114.25 109.45 114.2 108.95 113.25 108.7 113.1 106.3 111.35 102.9 115.8 102.5 115.75 102.2 115.9 102 116 101.5 116.45
L 100.2 118
Q 99.45 118.95 99 119.4 98.4 120.45 98.4 121.05 97.55 122.3 97.35 123.4 97.25 123.5 97.45 123.95
L 95.65 126.4
Q 94.3 128.55 93.6 133 92.3 136 92.1 136.85 91.95 137.2 92.25 138.05 92.1 138.4 92.1 138.55 91.4 137.8 91.45 138.6 91.5 138.8 91.5 138.9 91.8 141.9 93.4 143.6 94.9 145.2 96.7 144.15 97.5 143.7 99.6 141.35 100.75 140 102.5 137.4 103.95 135 105.9 131.55 109.5 125.1 112.75 122.15
L 113 121.7
Q 113.1 121.7 113.1 121.6 113.75 121.1 115.2 120.4 115.3 120.35 115.3 119.9 115.35 120 115.45 119.95 116.65 119.2 119.6 118.1 122.25 117.1 123.6 116.05 126.8 113.65 130.2 110.05 133.45 108.5 136.1 108.25 137.05 108.1 138.8 108.45 139.05 108.4 139.35 108.5 141.55 108.85 142.7 108.85 149.6 108.7 148.6 104.55 147.95 102.4 147.2 101.2 146.55 101 145.55 100.3 144.25 99.4 143.6 98.95 142.1 98.4 141.35 98.1 Z"/>
</g>
</defs>

<g transform="matrix( 1, 0, 0, 1, 0,0) ">
<use xlink:href="#Layer0_0_FILL"/>
</g>
</svg>
