
<svg xmlns="http://www.w3.org/2000/svg" version="1.1" xmlns:xlink="http://www.w3.org/1999/xlink" preserveAspectRatio="none" x="0px" y="0px" width="550px" height="400px" viewBox="0 0 550 400">
<defs>
<g id="Layer0_0_FILL">
<path fill="#FFFFFF" fill-opacity="0.9176470588235294" stroke="none" d="
M 100.25 73.95
Q 96.35 69.95 91.45 69.95 88.2 69.95 78.7 78.95 77.5 80 76.45 81 76.95 82.05 76.95 83.15 76.95 85.25 75.75 86.6 74.3 88.25 71.6 88.25 70.05 88.25 68.95 87.35 68.2 87.85 67.95 87.85 67.3 87.85 64.15 87.2 61 86.55 60.35 86.55 49.7 86.55 43.5 96.15 40.4 100.95 39.4 106.05 39.4 110.15 42.7 116.3 47.15 124.35 53.5 124.35 58.3 124.35 62 123.15 72.9 115.9 72.9 110.6 72.9 108.85 73.65 107.5 74.15 106.45 75.1 105.95 75.25 105.25 75.45 104.6 72.9 100.25 72.9 99.1 72.9 97.2 74 95.75 75.5 93.85 78.4 93.85 79.5 93.85 80.9 95.2 81.6 94.95 82.4 94.95 91.25 94.95 97.95 88.25 103.4 82.85 103.4 79.1 103.4 77.2 100.25 73.95 Z"/>
</g>
</defs>

<g transform="matrix( 1, 0, 0, 1, 0,0) ">
<use xlink:href="#Layer0_0_FILL"/>
</g>
</svg>
