
<svg xmlns="http://www.w3.org/2000/svg" version="1.1" xmlns:xlink="http://www.w3.org/1999/xlink" preserveAspectRatio="none" x="0px" y="0px" width="550px" height="400px" viewBox="0 0 550 400">
<defs>
<g id="Layer0_0_MEMBER_0_FILL">
<path fill="#502D16" stroke="none" d="
M 178.4 89.6
Q 179.85 89.75 181.5 92.25 183.15 94.75 184.2 98.45 185.35 102.55 185.15 105.75 184.9 108.95 183.4 109.35 181.45 109.9 179.15 105.8 176.85 107.35 171.15 107.75 168.45 107.95 166.1 107.65 163.9 107.35 162.8 106.75 159.05 107.4 157.05 110.05 155.35 112.25 154.65 116.25
L 156.35 119.45 156.95 119.35
Q 156.1 119.1 156.1 118.7 156 117.55 162.7 116.1 169.4 114.65 179.05 113.75 185.8 113.1 193.5 113.75 199.45 114.2 202.8 115.05
L 203.55 105.7
Q 203.45 104.35 202.45 102 201.55 99.75 201.5 98.5 201.35 95.3 201.9 93 202.4 90.85 203.15 90.7
L 203.35 90.7
Q 203.85 90.8 204.15 92.85
L 204.75 95.8 205.8 90.75
Q 204.8 87.45 201.65 85.75 198.85 84.3 194.8 84.25 189.95 84.2 184.9 85.9 180.1 87.55 178.4 89.6
M 190.6 93.5
Q 187.3 93.2 183.2 91.85 180.3 90.8 180.45 90.35 180.5 89.85 183.55 90.1
L 186.85 90.55
Q 189.1 90.85 190.75 90.9
L 191.95 90.95
Q 195.8 90.95 199.65 89.8 201.1 89.4 202.65 88.9 202.95 88.9 203 89 203.2 89.2 202.5 89.95 201.75 90.75 200.4 91.5 196.65 93.55 191.95 93.55
L 190.6 93.5 Z"/>
</g>

<g id="Layer0_0_MEMBER_1_FILL">
<path fill="#000000" stroke="none" d="
M 129.35 132.65
L 131.9 126.95 127.3 118.3 117.05 117 112.85 120.8 113.85 131.1 118.35 133.1 121.35 135.5 123.2 133.45 129.35 132.65
M 100.6 98.45
L 90.65 97.2 86.55 100.9 87.55 110.9 91.9 112.8 94.8 115.1 96.6 113.15 102.6 112.4 105.05 106.85 100.6 98.45
M 123.6 48.6
L 126.7 41.55 121.05 30.95 108.45 29.35 103.25 34.05 104.5 46.7 110.05 49.15 113.7 52.05 116 49.55 123.6 48.6
M 191.95 93.55
Q 196.65 93.55 200.4 91.5 201.75 90.75 202.5 89.95 203.2 89.2 203 89 202.95 88.9 202.65 88.9 201.1 89.4 199.65 89.8 195.8 90.95 191.95 90.95
L 190.75 90.9
Q 189.1 90.85 186.85 90.55
L 183.55 90.1
Q 180.5 89.85 180.45 90.35 180.3 90.8 183.2 91.85 187.3 93.2 190.6 93.5
L 191.95 93.55
M 162.75 46.1
L 164.3 42.5 158.7 31.95 152.6 31.05 151.95 31
Q 148.65 27.15 145.85 24.25 139.4 17.5 129.55 12.05 124.25 9.1 110.85 3.25 104.45 0.45 97.35 0.3
L 96.05 0.3
Q 92.65 0.35 86.5 1.15 80.1 2 77.1 2.1 68.65 2.45 61.7 4.3 52.35 8.15 45.2 12.2 37.25 16.75 30.2 22.65 20.1 31.05 14.55 38.35 6.4 49.15 5.15 60.45 4.7 64.55 3.15 67 1.2 70.2 0.35 73.4 -0.35 75.9 0.6 82.6 1.65 90 1.05 94.25 0.6 97.55 3.5 105.8 5.35 111.1 8.05 117 13.6 120.9 15.7 127.25 18.5 135.7 20.2 138.05 25 144.35 31.4 148.4 39.55 153.55 40.2 154.15 49.9 163.1 64.15 166.55 76.45 169.55 89.9 168.05 102.5 166.65 113.65 163.5 127.05 159.7 135.65 154.05 156 140.9 166.2 120.1 173 120 179.55 119.35 190.9 118.3 197.85 116.55 199.25 117.55 201.85 116.75 203.7 116.05 204.9 114.3 205.95 112.65 206.25 110.65 206.55 109.1 206.45 106.55
L 206.35 105.3
Q 206.2 103.2 205.25 98.1
L 204.15 92.85
Q 203.85 90.8 203.35 90.7
L 203.15 90.7
Q 202.4 90.85 201.9 93 201.35 95.3 201.5 98.5 201.55 99.5 202.1 105.65
L 202.15 106.8
Q 202.3 108.9 202.2 110.15 202.1 111.75 201.75 112.55 201.55 113.05 201.1 113.6 198.6 113 192.65 113 186.55 113.05 179.05 113.75 169.4 114.65 162.7 116.1 156 117.55 156.1 118.7 156.2 119.55 159.7 119.85
L 158.15 122.85 154.3 115.55 145.55 114.45 142 117.65 142.85 126.4 146.65 128.1 149.2 130.15 150.8 128.4 154.9 127.85
Q 149.8 134.75 140.9 141.9 136.35 145.6 126.55 152.35 113.65 161.25 100.95 163.45 89.95 165.35 75.9 162.65 68.55 161.2 64.2 160 57.85 158.3 52.95 156 43.15 151.2 34.2 142.95 25.85 135.2 20.15 126.15 16.85 120.8 14.3 114.7 11.9 109.15 9.9 101.75 7.6 91.15 7.65 83.7 7.6 77.9 8.65 71.1 10.3 62.2 13.3 55.3 16.1 48.25 20.95 40.75 26.65 31.95 33.85 25.3 41.1 18.45 49.05 14 56.05 10.15 64.4 8.1 75.5 5.45 90.9 6.25 109.8 7.2 118 9.75 132.1 14.1 140.85 26.6 142.95 29.5 144.6 31.65
L 140.9 35 142.15 47.65 147.65 50.1 151.35 53 153.65 50.5 157.95 49.95
Q 161.05 55.6 162.7 61.9 152.1 62 144.9 62.8 137.85 63.6 137.25 64.65 136.4 65.8 135.85 66.6
L 135.7 66.55
Q 135 66.5 134.3 67.9 133.5 69.3 133 71.8 131.7 78.55 133.7 85.45
L 133.75 85.55
Q 134.25 92.35 137.85 97.5 141.45 102.6 143.45 99.75 145.3 101.15 146.35 100.45 146.95 100.1 147.5 99 147.9 98.45 147.25 97.1 146.9 96.4 145.3 93.8 145.15 93.5 143.7 86.95 142.7 82.4 140.3 83.55 138.6 84.25 138.45 83.65 138.65 82.9 138.6 82.85 137.85 80.5 137.95 76.95 138.05 72.95 137.85 71.9
L 137.85 71.8
Q 141 71.8 146.7 70.6 145.55 75.4 146.7 80.35
L 146.85 81
Q 148.7 87.4 153.35 91.25 153.5 91.45 153.85 91.7 147.5 96.25 148.1 97.35 148.3 97.75 150.75 96.65 152.45 95.8 156.95 93.4 157.85 93.6 158.2 93.25 158.35 93.1 158.45 92.6
L 165.95 88.6
Q 166.45 96.9 165.25 103.6 161.9 104.6 161.95 105.8 162.05 106.85 164.7 107.4 167.4 108 171.15 107.75 176.85 107.35 179.15 105.8 181.45 109.9 183.4 109.35 184.9 108.95 185.15 105.75 185.35 102.55 184.2 98.45 183.1 94.65 181.4 92.1 179.65 89.55 178.2 89.55
L 177.8 89.6
Q 176.3 90 176.05 93.2 175.85 96.4 177 100.5 177.4 101.95 177.9 103.2 175.5 102.5 171.55 102.65 171.75 99.25 171.35 94.5 170.8 89 170.55 86.25 182.35 80.4 189.9 78.25 202.15 74.8 205.6 70.65 207.7 68.2 206.4 65.85 206.2 65.5 205.15 65.6 203.4 64.3 193.9 63.25 184.25 62.2 171.45 61.95
L 169.25 61.9
Q 167.4 54.2 162.75 46.1
M 192.5 65.4
Q 196.45 65.75 202.05 66.35 193.2 69.15 176.3 78.2
L 175.75 77.05
Q 175.25 75.9 174.95 74.05
L 174.9 73.5
Q 174.7 72.3 174.6 70.25 174.5 67.85 174.45 67.2 174.4 65.85 173.95 64.8 175.8 64.7 179.45 64.7 185.25 64.75 192.5 65.4
M 170.55 65.1
L 170.05 65.85 169.9 65.15 170.55 65.1
M 170.3 79.45
L 171.55 80.8 170.3 81.55 170.3 79.45
M 164.95 75.95
L 165.65 84.2
Q 160.75 87.1 157.4 89.3
L 156.95 88.4
Q 155.7 85.8 155.05 84.25 153.8 81.5 153.25 79.25
L 153.15 78.75
Q 152.2 75.15 152.2 69.3 158.05 67.7 161.15 66.8
L 163.7 66.15
Q 164.6 71 164.95 75.95 Z"/>
</g>

<g id="Layer0_0_MEMBER_2_FILL">
<path fill="#000000" fill-opacity="0.3176470588235294" stroke="none" d="
M 117.45 151.7
Q 113.25 152.95 110.2 153.45 107.75 153.85 105.15 153.95 101.15 154.05 98.75 152.9 96.85 152.1 95.1 150.35 93.75 149 93.3 149.2 92.75 149.45 93.25 151.45 93.9 154.05 96.7 156.2 100.2 158.75 105.15 158.9 107.9 158.95 111.05 158.5 118.35 157.25 125.05 153.15 127.4 151.75 128.7 150.5 129.95 149.35 129.7 148.9 129.55 148.55 128.55 148.65 127.25 148.7 123.55 149.8 119.8 151 117.45 151.7
M 30.75 119.85
Q 31.05 116.55 30.4 116.4 29.8 116.25 28.5 119.35 27 123.1 26.45 127.85 26.1 131.2 26.75 134.1 27 135.4 27.4 136.3 28.9 139.75 32.2 142.15 35.2 144.25 38.15 145.15 40.5 145.85 40.75 145.45 41 144.95 39.05 143.45 35.6 140.75 34.3 139.55 31.75 137.1 30.95 134.85
L 30.45 133.25
Q 30 131.2 30.1 128.1 30.15 126.3 30.75 119.85
M 74.9 65.95
Q 74.8 65.85 74.4 65.75 72.85 65.7 69.9 67.55 66.3 69.75 62.95 73.65 59.05 78.15 57.65 83.75
L 57.6 84.1
Q 56.45 89.25 57.6 95.25 58.65 101 60.75 105.1 62.55 108.6 63.6 108.35 64.7 108.1 64.65 104.2 64.35 98.4 64.2 94.5 64 88.95 64.75 85.7
L 64.8 85.45
Q 65.65 81.8 68.25 77.55 68.4 77.3 73.45 69.9 75.6 66.75 74.9 65.95
M 34.6 60.4
Q 38.65 55.85 40 54.25 42.2 51.7 41.65 51 41.6 50.9 41.25 50.8 40 50.7 37.3 52.2 34 53.95 30.9 57 28.5 59.2 27.05 62.15
L 26.15 64.4
Q 25.1 68.35 26.35 72.35 27.5 76 29.35 78.4 30.95 80.4 31.6 80.1 32.3 79.8 31.85 77.35 30.9 71.8 30.85 71.35 30.55 67.85 31.25 65.95
L 31.8 64.5
Q 32.6 63 34.6 60.4
M 116.35 55.6
Q 118.5 54.8 120.65 54.55 123.4 54.2 128.35 54.65 131.9 55 133.55 54.9 135.55 54.8 135.6 54.15 135.65 53.8 133.9 53 131.9 52.1 129.05 51.25 125.25 50.1 121.55 50.05
L 120.25 50.1
Q 117.3 50.35 114.8 51.25 112.05 52.2 109.8 53.85 104.9 57.25 101.95 62.15 100.9 63.85 100.45 65.1 100.1 66.25 100.4 66.5 100.9 66.9 104.1 63.95 106.85 61.5 107.6 60.85 110.05 58.85 112.2 57.55 114.35 56.3 116.35 55.6
M 94.25 11.6
Q 92.6 11.25 90.35 11.25 87.05 11.25 83.15 12.15 78.25 13.35 74.65 16.25
L 74.5 16.35
Q 71.05 19.35 68.8 24.05 66.7 28.45 65.95 32.35 65.3 35.6 65.9 35.8 66.5 36.05 68.15 33.2 69.15 31.4 72.25 25.95 74.95 21.65 77.3 19.7
L 77.45 19.6
Q 79.85 17.55 84.25 16 86.85 15.1 92.4 13.6 95.7 12.7 95.65 12.2 95.65 11.9 94.25 11.6 Z"/>
</g>
</defs>

<g transform="matrix( 0.625244140625, -0.1675872802734375, 0.1675262451171875, 0.62548828125, -1.85,56.9) ">
<use xlink:href="#Layer0_0_MEMBER_0_FILL"/>
</g>

<g transform="matrix( 0.625244140625, -0.1675872802734375, 0.1675262451171875, 0.62548828125, -1.85,56.9) ">
<use xlink:href="#Layer0_0_MEMBER_1_FILL"/>
</g>

<g transform="matrix( 0.625244140625, -0.1675872802734375, 0.1675262451171875, 0.62548828125, -1.85,56.9) ">
<use xlink:href="#Layer0_0_MEMBER_2_FILL"/>
</g>
</svg>
