
<svg xmlns="http://www.w3.org/2000/svg" version="1.1" xmlns:xlink="http://www.w3.org/1999/xlink" preserveAspectRatio="none" x="0px" y="0px" width="550px" height="400px" viewBox="0 0 550 400">
<defs>
<g id="Layer0_0_FILL">
<path fill="#FFFF66" stroke="none" d="
M 114.15 110.05
Q 113.85 110.55 113.75 111.2
L 113.7 111.4 113.8 111.85
Q 113.75 112.05 114 112.3
L 114.15 112.45 114.4 112.8 114.5 112.85 114.5 112.9 115 113.15 115 113.1 115.1 113.2
Q 115.15 113.3 115.4 113.25
L 115.75 113.3 116.85 113 117.3 113
Q 117.35 113 117.45 113 118 113.1 118.55 113.25 118.95 113.3 119.3 113.3 121.1 112.9 120.6 111.2 120.25 109.95 120.25 108.6 120.2 107.4 120.05 106.15 119.8 104.65 118.3 104.85 117.45 105.15 117.35 106.1 117.25 106.6 117.15 107.1 117.05 107.7 116.9 108.15 116.8 108.3 116.7 108.55 116.4 108.75 116.2 109.05 116.1 109 116.05 109.05
L 115.1 109.25 114.15 110.05
M 75.5 128.55
Q 73.4 127.95 71.25 127.6 70.75 127.45 70.25 127.2 68.9 126.5 67.65 126.75 67.55 126.45 67.45 126.15 67.2 125.8 66.75 125.6 66.3 125.4 65.9 125.45 64.6 126 65 127.35 65.6 129.2 66.7 130.85 68.55 133.8 70.2 136.85 70.65 137.75 71.65 137.75 72.6 137.65 73.4 137.05 73.85 136.6 74.45 136.15 75.55 135.5 75.75 134.35 75.95 133.6 76.55 132.8 76.6 132.65 76.65 132.65 78.25 132.05 78.4 130.5 78.5 129.6 77.5 129.25 76.5 128.95 75.5 128.55
M 30 70
L 28.8 67.9 28.1 67.45
Q 28 67.15 27.75 66.45 27.1 65.1 26.55 64.5 25.55 63.55 25.05 63 24.7 62.65 23.1 60.35 21.95 58.6 19.65 56.45
L 17.95 54.65
Q 17.55 54 17.25 53.7 16.55 52.9 15.45 53 14.4 53.2 13.95 54.2 13.9 54.4 13.85 54.65 13.7 54.8 13.6 55.05 13 56.4 13.5 57.8 13.55 58 13.55 58.2 13.15 59.5 12.7 60.85 12.5 61.4 12.45 61.9 11.7 65.15 11.9 68.6 11.9 69.4 12 70.25 12.25 71.7 12.35 73 12.7 76.15 13.85 79.1 14.3 80.15 14.9 81.05 14.9 81.2 14.9 81.3 15.15 82.1 15.45 82.9
L 15.45 82.95
Q 15.35 83.7 15.8 84.55 16.1 85.25 16.9 86.55 17.25 87.3 17.9 89
L 19.1 91.45
Q 19.3 91.9 19.65 92.25
L 20.4 93.4
Q 20.95 94.25 21.3 94.4 21.5 94.55 21.75 94.65 22.45 95.75 23.4 96.85 24.55 98.3 26 99.65 26.55 100.45 27.25 101.25 28 102.1 28.8 102.8 28.9 102.9 29.05 103.05
L 30.9 104.75
Q 32.8 106.4 34.75 107.6 35.75 108.25 36.4 108.3 37.8 108.4 38.35 107.25 38.85 106.1 38.15 105.1 38.2 104.45 38.2 103.7 38.25 100.95 38.55 98.2 38.7 97.8 38.75 97.25 38.7 97.2 38.75 97.1 38.8 97.1 38.85 97.05 39.05 96.8 39.15 96.8
L 39.1 96.75
Q 39.2 96.7 39.35 96.55
L 39.8 95.8
Q 39.9 95.65 39.85 95.55
L 39.9 94.6
Q 39.95 94.45 39.85 94.4
L 39.8 94.2 39.1 93.3
Q 39.05 93.35 39 93.25
L 38.45 93 38.1 93
Q 38.05 92.95 38 92.9 37.65 92.8 36.65 92.8 36.6 92.75 36.55 92.75 36.3 92.8 36.1 92.8
L 33.05 92.85
Q 32.95 92.85 32.3 92.65
L 31.1 92.05
Q 29.9 91.6 29.45 91.15 28.85 90.7 28.35 89.8 27.9 89.05 27.75 88.45
L 27.65 87.2
Q 27.6 86.85 27.3 85.85 27 85 27 84.45 27.15 83.8 27.2 83.4
L 27.25 82.2
Q 27.4 82.05 27.4 81.9 27.95 80.85 28.3 79.6 28.65 78.55 29.25 77.65 29.5 77.25 29.9 77.1 30.7 76.8 31.2 76.25 31.45 76.15 31.65 76.05 32.4 75.65 32.7 74.8
L 32.7 74.65
Q 32.8 74.15 32.65 73.8
L 31.55 71.8
Q 31.4 71.4 31.05 71.1
L 30.5 70.65
Q 30.2 70.4 30 70
M 101.1 94.1
Q 100 94.9 98.8 95.6 96.4 97.3 96.9 100.05 97 100.55 96.8 101.2 96.8 101.3 96.75 101.5 95.9 100.7 94.85 100.25 92.15 99.05 89.4 100.1 87 100.9 86.4 103.2 86.25 103.65 86.1 104.1 85.6 105.8 86.15 107.45 86.5 108.6 86.95 109.7 87.75 111.7 89.75 112.65
L 89.75 112.7
Q 90 113.25 90.5 113.5 94.4 115.2 98.65 114.7 99.45 114.6 100.25 114.6 101.05 114.6 101.7 114.15 101.85 114.05 102 114.05 102.6 113.95 103.15 113.15 103.45 112.65 103.7 112.05 104.3 110.95 105.05 109.8 106.4 107.85 107.1 105.4 107.25 104.75 107.35 104.15 108 101.35 107.6 98.6 107.55 98.2 107.45 98 107.45 97.8 107.45 97.65
L 107.45 97.45 107.4 97.05 107.3 96.85 107.3 96.8 106.25 95.15 106.1 95.1 106.15 95 106.05 94.95 105.85 94.75 105.75 94.75 105.65 94.65 105.1 94.25
Q 105.1 94.3 104.9 94.2 104.7 93.95 104.75 94.15 104.65 94.05 104.5 94.1 102.95 93.35 101.1 94.1
M 103.4 98.2
Q 103.45 98.2 103.5 98.25
L 104 99.05 104.15 99.05 104.15 99.15 104.5 99.4 104.55 99.4
Q 104.65 99.5 104.85 99.55
L 105 99.55
Q 104.95 99.95 104.95 100.3 105 101.7 104.85 103.1 104.45 105.5 103.2 107.75
L 103.05 107.65
Q 102.85 107.55 102.85 107.6
L 102.7 107.55 102.05 107.5 101.35 107.7
Q 101.25 107.6 101.15 107.5 101 107.25 100.85 106.95 100.65 106.45 100.4 105.9 100.3 105.7 100.25 105.6 100.15 105.35 100.1 105.2 99.85 104.45 99.6 103.75 98.95 101.95 100.1 100.45 101.35 98.7 103.4 98.2
M 92.3 103.7
Q 93.9 104.4 95.45 104.8 96.3 105.75 97.35 106.55 97.65 106.75 97.8 107.05 98.3 107.75 98.45 108.6 98.45 108.75 98.45 108.95 98.5 109.4 98.35 109.75 98.1 110.25 97.55 110.5 96.9 110.8 96.25 111.15 96.05 111.25 96 111.35 95.05 111.25 94.15 111 93.15 110.8 92.25 110.6 92.05 110.45 91.85 110.4 91.5 110.2 91.15 109.95 89.2 108.7 88.75 106.5 88.75 106.2 88.8 105.85 89.05 105.1 89.6 104.35 90.65 103 92.3 103.7
M 87.75 47.75
Q 86.45 46.95 85.3 45.95 81.4 42.65 76.65 41.55 76.5 41.3 76.2 41.2 73.45 39.95 70.35 39.7 69.5 39.6 68.65 39.35 65.6 38.35 62.55 38.65 62.05 38.8 61.65 39.25 59.85 41.45 62.35 43.2 64.15 44.35 65.2 46.1 67.5 49.85 69.25 53.9 69.8 55.25 70.3 56.7 70.45 57.45 70.75 58.15
L 70.55 58.65 70.55 58.8
Q 70.5 58.8 70.45 58.95 70.45 59.5 70.75 60
L 70.8 60.15 71.05 60.5 71.15 60.55
Q 71.15 60.6 71.25 60.7
L 72.15 61.15 72.6 61.15
Q 73.5 61.15 74 60.4
L 74.25 60.15 74.3 60.05
Q 76.65 59.55 79.1 59.25 81.1 58.95 83.05 58.85 83.8 59.45 84.5 60.1 87 62.4 88.45 65.55 88.25 66.1 88.35 66.75 87.1 67.2 86.8 68.5 86.6 69.3 87.1 69.9 88.5 71.65 91 72.05 91.1 72.05 91.2 72.1 91.3 73.7 92.85 74.85 94.4 75.95 96.15 76.9
L 96.5 77.5 96.7 77.6
Q 96.65 77.7 96.8 78
L 97.15 78.55 97.2 78.6 97.4 78.85 97.5 78.9 97.45 79 97.65 79.1
Q 97.8 79.15 97.8 79.1
L 97.85 79.25 98.05 79.3 98.35 79.45
Q 98.45 79.4 98.55 79.45 98.75 79.4 98.8 79.55
L 98.9 79.45
Q 99.55 79.45 100 79.1
L 100.25 78.95 100.25 78.85
Q 100.45 78.85 100.5 78.65
L 100.8 78.05 100.8 78 100.85 77.8 100.9 77.3
Q 101 77.1 101 76.85 101.45 76.35 101.6 75.55 101.8 74.1 101.25 72.65 102.05 71.45 101.55 70.05 100.25 66.7 99.15 63.15 97.35 57.25 93.3 52.55 90.8 49.7 87.75 47.75 Z"/>
</g>
</defs>

<g transform="matrix( 1, 0, 0, 1, 0,0) ">
<use xlink:href="#Layer0_0_FILL"/>
</g>
</svg>
