
<svg xmlns="http://www.w3.org/2000/svg" version="1.1" xmlns:xlink="http://www.w3.org/1999/xlink" preserveAspectRatio="none" x="0px" y="0px" width="550px" height="400px" viewBox="0 0 550 400">
<defs>
<g id="Layer0_0_MEMBER_0_FILL">
<path fill="#FFFFFF" stroke="none" d="
M 146.25 82.6
Q 146.7 79.2 160.15 74.8 167.7 72.35 183.6 67.45
L 145.75 71.3
Q 142.3 73.05 142 75 141.5 77.85 146.25 82.6 Z"/>
</g>

<g id="Layer0_0_MEMBER_1_FILL">
<path fill="#FFFFFF" fill-opacity="0.4627450980392157" stroke="none" d="
M 109.6 46
L 114.45 42.45 113.25 38.3 118.6 34 114.25 29.3 106.95 34.65 104.2 40.25 109.6 46 Z"/>
</g>

<g id="Layer0_0_MEMBER_2_FILL">
<path fill="#FFFFFF" fill-opacity="0.4627450980392157" stroke="none" d="
M 90.85 112.7
L 92.8 105.35 97.7 104.4 97.7 99 91.8 99 85.45 104.9 90.85 112.7 Z"/>
</g>

<g id="Layer0_0_MEMBER_3_FILL">
<path fill="#FFFFFF" fill-opacity="0.4627450980392157" stroke="none" d="
M 124.6 123
L 126.05 121.05 122.15 117.6 120.2 120.55 118.25 118.1 114.3 123.95 117.25 130.35 120.2 133.25 122.65 130.35 120.2 123.95 124.6 123 Z"/>
</g>

<g id="Layer0_0_MEMBER_4_FILL">
<path fill="#FFFFFF" fill-opacity="0.4627450980392157" stroke="none" d="
M 146.6 126.4
L 150.05 123.95 147.6 121.05 150.55 121.5 152 116.65 148.6 114.65 145.15 117.6 142.2 122.5 146.6 126.4 Z"/>
</g>

<g id="Layer0_0_MEMBER_5_FILL">
<path fill="#000000" fill-opacity="0.2549019607843137" stroke="none" d="
M 177.65 81.7
Q 184.05 77.75 201 67.25 191.35 71.45 178.3 76.5 151.8 86.75 144.35 85.75
L 144.35 90.35 138.15 90.35
Q 140.1 94.1 140.85 96.95 142.45 102.8 139.8 106.75 138.05 109.35 137.75 110 136.8 112.1 136.95 114.85 137.15 118.15 134.8 123.95 132.35 130.05 128.7 135.05 119.05 148.05 110.85 141.35 108.65 139.55 103.05 142.15
L 97.9 145.1
Q 94.7 145.55 85.85 147.85 79.05 149.6 75 149.45 63 149 50.3 131.85 40.9 119.15 38.85 116.2 34.7 110.1 33.15 105.85 31.55 101.5 31.3 95.4 31.1 91.65 31.4 79.4 31.85 61 40.05 44.65 43.15 38.45 45.75 36.1 48.4 33.75 48.6 37.05 48.95 42.55 65.15 33.05 74.55 27.55 96.65 13.5 110.05 5.8 120 18.85 123.65 23.65 126 30.3 128.05 36.05 128.2 40.05 128.3 43.1 126.05 45.1 125.5 45.65 121.55 48.05 118.8 49.75 118.05 51.65 117.1 54.3 119.05 58.7 121.05 63.2 124.95 69.45
L 132.05 80.25 136.3 80.25
Q 134.75 76.65 136.35 71.85 138.05 66.75 137.95 66.45 137.6 65.15 152.05 64.15 166.5 63.2 166.05 61.55 158.1 33.1 134.85 17.35 113.45 2.85 85.8 3.05 76 3.15 66.3 5.65 50.05 9.75 36.95 19.25 24.15 28.5 16 41.65 7.8 54.85 5.4 70.2 2.9 86.05 7 102.25 11.1 118.45 21.15 131.9 30.85 144.95 44.7 153.5 58.55 162.1 74.35 164.75 90.8 167.55 106.95 163.45 130.5 157.5 148.3 137.8 168.2 115.85 169.8 87.35 169.8587890625 86.38984375 169.6 85.7 171.9388671875 85.19609375 177.65 81.7 Z"/>
</g>

<g id="Layer0_0_MEMBER_6_FILL">
<path fill="#000000" fill-opacity="0.16862745098039217" stroke="none" d="
M 194.4 114.45
L 188.95 115.15
Q 192.7845703125 115.59765625 194.4 114.45
M 182.75 86.75
Q 177 89.25 177.9 91.45
L 183.2 104.85 163.4 106.65
Q 158.55 107.25 156.35 111.1 154.8 113.9 154.2 119.7
L 188.95 115.15
Q 188.3697265625 115.108203125 187.7 115
L 183.15 113.9 171.6 112.7 184.85 111.25
Q 188.2 107.2 188.5 104.75 188.55 104.1 187.6 102.45 186.8 101.05 187.3 100.4 188.75 98.3 192.3 98.2 195.6 98.05 197.9 99.65 200.1 101.15 201.15 104.2 202.25 107.35 200.8 109.3 200.3 110 198.4 109.4 196.4 108.8 195.75 109.3 195.05 109.85 195.15 111.85 195.2 113.9 194.5 114.4 194.452734375 114.4357421875 194.4 114.45
L 201.1 113.6 205.8 90.75
Q 204.8 87.45 201.65 85.75 198.85 84.3 194.8 84.25 188.6 84.2 182.75 86.75 Z"/>
</g>

<g id="Layer0_0_MEMBER_7_FILL">
<path fill="#FFFFFF" fill-opacity="0.4627450980392157" stroke="none" d="
M 148.8 49
L 151.7 40.7 157.1 36.95 153.8 31.55 144.25 38.2 148.8 49 Z"/>
</g>

<g id="Layer0_0_MEMBER_8_FILL">
<path fill="#FFFFFF" fill-opacity="0.23921568627450981" stroke="none" d="
M 193.15 95.75
Q 193.65 94.2 190.8 95.8 187.9 97.35 187.3 98.95 186.4 101.4 187.6 104.5 188.75 107.55 191.05 108.85 192.25 109.5 194.25 109.3 196.35 109.05 195.95 107.95 192.35 98.05 193.15 95.75 Z"/>
</g>

<g id="Layer0_0_MEMBER_9_FILL">
<path fill="#FFFFFF" fill-opacity="0.43137254901960786" stroke="none" d="
M 84.85 64.15
Q 84.15 61.1 82.25 54.75 80.45 48.75 80.2 47.6 79.7 45 78.55 42.5 77.05 39.35 75.55 39.1
L 75.05 39.05
Q 71.75 39 68.2 44.95 67.75 45.7 62.65 56.1 58.05 65.6 56.2 77.6 54.65 87.5 55.7 97.3 57 109.3 60.6 116.55 65.55 126.5 69.65 126.35 72 126.3 74.15 123.95 76.55 121.4 76.85 117.85 77.05 115.8 75.1 113.15 72.95 110.25 72.75 108.45 72.2 103.95 72.95 98.85 73.65 94 75.3 90.15 76.15 88.15 78.5 86.5 81.2 84.6 82 83.4 84.35 80 84.9 79 86.4 76.3 86.65 73.55 86.85 71.55 86.15 68.8 85.25 65.7 84.85 64.15 Z"/>
</g>
</defs>

<g transform="matrix( 0.625244140625, -0.1675872802734375, 0.1675262451171875, 0.62548828125, -1.85,56.45) ">
<use xlink:href="#Layer0_0_MEMBER_0_FILL"/>
</g>

<g transform="matrix( 0.625244140625, -0.1675872802734375, 0.1675262451171875, 0.62548828125, -1.85,56.45) ">
<use xlink:href="#Layer0_0_MEMBER_1_FILL"/>
</g>

<g transform="matrix( 0.625244140625, -0.1675872802734375, 0.1675262451171875, 0.62548828125, -1.85,56.45) ">
<use xlink:href="#Layer0_0_MEMBER_2_FILL"/>
</g>

<g transform="matrix( 0.625244140625, -0.1675872802734375, 0.1675262451171875, 0.62548828125, -1.85,56.45) ">
<use xlink:href="#Layer0_0_MEMBER_3_FILL"/>
</g>

<g transform="matrix( 0.625244140625, -0.1675872802734375, 0.1675262451171875, 0.62548828125, -1.85,56.45) ">
<use xlink:href="#Layer0_0_MEMBER_4_FILL"/>
</g>

<g transform="matrix( 0.625244140625, -0.1675872802734375, 0.1675262451171875, 0.62548828125, -1.85,56.45) ">
<use xlink:href="#Layer0_0_MEMBER_5_FILL"/>
</g>

<g transform="matrix( 0.625244140625, -0.1675872802734375, 0.1675262451171875, 0.62548828125, -1.85,56.45) ">
<use xlink:href="#Layer0_0_MEMBER_6_FILL"/>
</g>

<g transform="matrix( 0.625244140625, -0.1675872802734375, 0.1675262451171875, 0.62548828125, -1.85,56.45) ">
<use xlink:href="#Layer0_0_MEMBER_7_FILL"/>
</g>

<g transform="matrix( 0.625244140625, -0.1675872802734375, 0.1675262451171875, 0.62548828125, -1.85,56.45) ">
<use xlink:href="#Layer0_0_MEMBER_8_FILL"/>
</g>

<g transform="matrix( 0.625244140625, -0.1675872802734375, 0.1675262451171875, 0.62548828125, -1.85,56.45) ">
<use xlink:href="#Layer0_0_MEMBER_9_FILL"/>
</g>
</svg>
