
<svg xmlns="http://www.w3.org/2000/svg" version="1.1" xmlns:xlink="http://www.w3.org/1999/xlink" preserveAspectRatio="none" x="0px" y="0px" width="550px" height="400px" viewBox="0 0 550 400">
<defs>
<g id="Layer0_0_FILL">
<path fill="#000000" stroke="none" d="
M 123 42.95
Q 123 40.8 122.25 39 121.05 36.05 118 33.85 114.2 31.15 109.25 30.75 113.3 29 115.15 23.2 116.45 19.05 116.3 14.5 116.3 6.65 111.8 2.8 107.75 -0.65 101.85 0.15 96.05 0.9 91.9 5.25 87.6 9.75 87.4 16.2 84.9 13.95 82.05 11.9 76.5 7.9 69.85 7.4 69.85 7.35 69.85 7.3 69.7 7.35 69.55 7.35 68.2 7.25 66.75 7.3 67.25 7.5 67.8 7.7 32.3 14.5 13.95 45.55 6.75 57.8 3.05 72.45 0 84.55 0 95.3 0 151.5 46.95 151.5 75.55 151.5 96.5 120.85 103.5 110.75 108.4 98.9 112.25 89.6 112.25 86.95 112.25 86.7 112.25 86.5
L 112.9 86.55
Q 113 86.05 113.05 85.55 113.95 79.45 113.95 79.25 113.95 78.85 113.95 78.45
L 109.35 73.2 110.4 73.15 107.4 68.7
Q 107.55 65.35 107.5 62.05 115.6 62 120.05 53.05 120.1 52.9 120.15 52.8 121.55 49.8 122.4 46.25 123 43.8 123 42.95
M 101.85 4.7
Q 106.15 4.45 109.2 7 112.55 9.8 112.55 14.6 112.9 17.75 111.85 21 109.7 27.55 102.85 27.55 99.3 27.55 96.85 26.55
L 96.8 26.5
Q 95.15 25.65 93.75 23.7 92.45 21.85 92.05 20.7 91.75 20.4 91.5 20.1 91.15 18.6 91.15 16.85 91.15 11.25 94.5 7.9 97.45 4.9 101.85 4.7
M 96.15 34.6
Q 91.15 39 91.15 46.85 91.15 51.2 93.35 55 96.45 60.4 103 61.65 102.85 65.1 102.25 68.55 74.95 61.5 66 35.1 61.95 23.15 65.1 11.2 70.3 9.55 70.3 9.05 70.3 8.85 70.3 8.7 80.55 13.1 87.7 20.5 88.15 23.1 89.3 24.95 91.15 27.9 94.65 29.5 95.9 31.6 97.05 33.9 96.55 34.25 96.15 34.6
M 98.75 38.05
Q 98.8 38 98.85 37.95 100.1 35.5 101.5 34.3 103.7 32.25 106.05 33.45 107.1 34 109.3 35.65 111.35 37.05 112.95 37.05 113.6 37.05 113.8 36.55 114.05 36.05 114.65 36.05 116.7 36.05 118.05 39 118.15 39.15 118.2 39.3 119.2 41.6 119.2 42.95 118.9 46.85 116.95 50.65 116.3 51.95 115.5 53.05 112.45 57.2 107.4 58 106.2 58.2 104.9 58.2 103.95 58.2 103.05 58.05 98.75 57.35 96.55 53.1 94.9 50 94.9 46.85 94.9 45.1 96 42.4 97.2 39.35 98.75 38.05
M 108 82.9
Q 106.65 85.05 105.1 87.45 98.85 97.15 92.8 101.45 84.75 107.2 72.55 112.05 59 117.5 50.3 117.5 36.85 117.5 32.7 107 31.35 103.65 31.15 99.55 31.15 96 31.15 95.75 31.15 86.1 35.35 78 43.25 62.75 63.15 62.75 67.7 62.75 69.8 67.95 71.05 71 71.05 73.55 71.05 82.55 57.75 91.4 51.1 95.8 44.45 98.55 44.45 98.95 44.8 99.25 45.1 99.5 46.35 100.3
L 49.85 100.45
Q 60.15 100.45 68.3 88.5 71.2 84.3 73.15 79.55 74.8 75.5 74.8 73.8 74.8 68.25 72.65 65.25 68.35 59.1 55.8 59.05 39.1 62.15 32.05 75.3 27.4 83.95 27.4 95.8 27.4 108.5 32.25 114.35 38.15 121.45 52.9 121.45 72.25 121.45 93.1 105.9 98.95 101.5 103.3 96.95 102.35 98.85 101.3 101 94.85 114.1 89.8 121.5 72.85 146.65 48.2 146.65 18.05 146.65 8.5 121.9 5.35 113.7 4.6 103.1 4.45 101 4.45 90.9 4.45 84.8 9.6 68.6 14.8 52.35 17.9 48.7 19.05 47.35 24.8 38.4 28.8 32.15 34.3 27.9 34.95 27.4 40.25 22.65 44 19.25 47.4 17.35 50.8 15.4 61.25 12.3 62.65 11.9 63.85 11.55 52.3 32.25 70.85 49.3 89.25 66.25 108 82.9 Z"/>
</g>
</defs>

<g transform="matrix( 1, 0, 0, 1, 0,0) ">
<use xlink:href="#Layer0_0_FILL"/>
</g>
</svg>
