
<svg xmlns="http://www.w3.org/2000/svg" version="1.1" xmlns:xlink="http://www.w3.org/1999/xlink" preserveAspectRatio="none" x="0px" y="0px" width="550px" height="400px" viewBox="0 0 550 400">
<defs>
<g id="Layer0_0_FILL">
<path fill="#FFFFFF" fill-opacity="0.2980392156862745" stroke="none" d="
M 50.4 120.3
Q 48.44921875 120.1390625 46.7 119.7 46.55625 119.595703125 46.4 119.5 43.65 116.85 41.85 115.45 38.38046875 112.87265625 38.35 115.65 37.5068359375 116.0158203125 36.4 116.5 35.75 116.85 35.15 117.15 35.2 117.25 35.25 117.3 38.73515625 121.494140625 45.3 123.2 46.2205078125 123.558203125 47.3 123.9 49.6787109375 124.6744140625 51.6 125.1 56.916796875 127.25 61.8 127.25 69.6001953125 127.25 77.6 124.25
L 78.05 124.1
Q 78.4142578125 123.9873046875 78.75 123.85 78.8537109375 123.8072265625 78.95 123.75 79.1498046875 123.689453125 79.35 123.6 86.9927734375 120.4677734375 88.25 117.15 91.6310546875 113.859765625 93 111.05 94.5576171875 110.0001953125 96.1 108.85 100.8 105.3 104.55 101.7 104.3 98.95 104.25 95.9 100 101.45 95.8 104.4 87.75 110.15 75.55 115 62.71171875 120.163671875 54.2 120.4 53.86796875 120.1953125 53.65 120.05 52.95 119.6 51.55 119.6 50.95 119.6 50.6 120.05 50.4923828125 120.1755859375 50.4 120.3
M 56 83.85
Q 56 82.05 53.1 81.25 49.95 80.35 48 82.85 45.8 85.7 45.7 85.85 44.3 87.9 44.3 89.05 44.3 89.1 44.35 90.25 44.9 91.4 47.55 91.4 52.55 91.4 56 83.85
M 83.25 86.1
Q 83.25 82.9 82.65 80.4 81.9 77.45 80.15 74.5 76.95 68.7 75.55 66.5 73.3478515625 63.039453125 73.1 65.6 71.475390625 64.3615234375 69.25 63.55 69.15 63.6 69 63.7 68.95 64 68.9 64.35 68.7 65.3 68.5 66.1 71.3 67.15 72.8 70.9 74.05 73.95 74.05 76.5 74.05 85.5 60.75 94.35 55.7125 97.6830078125 50.65 100.05 50.00390625 99.7708984375 49.35 99.4 46.65 97.5 46 97.5 45.4 97.5 45.05 97.95 44.75 98.3 44.75 98.75 44.75 99.83046875 47.45 101.45
L 47.45 101.5
Q 47.45 101.9 47.8 102.2 48.1 102.45 49.35 103.25
L 52.05 103.35
Q 54.0701171875 103.85 56.3 103.85 69.85 103.85 77.5 96.75 83.25 91.45 83.25 86.1 Z"/>
</g>
</defs>

<g transform="matrix( 1, 0, 0, 1, 0,0) ">
<use xlink:href="#Layer0_0_FILL"/>
</g>
</svg>
