
<svg xmlns="http://www.w3.org/2000/svg" version="1.1" xmlns:xlink="http://www.w3.org/1999/xlink" preserveAspectRatio="none" x="0px" y="0px" width="550px" height="400px" viewBox="0 0 550 400">
<defs>
<g id="Layer0_0_FILL">
<path fill="#000000" stroke="none" d="
M 108.8 45.15
Q 108.8 46.85 109.25 47.75 110.35 50 113.85 50 116.45 50 118.5 47.4 119.8181640625 45.7224609375 120.05 44.4 120.65 43.630859375 120.65 43 120.65 41.8158203125 120.25 41.05 120.0857421875 40.6228515625 119.75 40.3 119.0033203125 39.599609375 117.55 39.6 117.438671875 39.58125 117.3 39.55 115.65 39.15 113.85 39.4 108.8 40.25 108.8 45.15
M 113.1 10.55
Q 113.1 9.7 112.15 9.6 107.75 8.2 105.75 11.5 104.55 13.45 104.55 15.55 104.55 15.6 104.95 17.55 105.95 19.5 108.8 19.5 112.05 19.5 113.25 16.85 113.85 15.5 113.85 13.65 113.85 12.6 112.6 11.35 113.1 11.1 113.1 10.55 Z"/>

<path fill="#000000" fill-opacity="0.8" stroke="none" d="
M 89.6 20.8
Q 87.933203125 19.7580078125 85.4 18.45 77.45 14.3 74 15.4 70.55 14.7 65.35 17.5 60.5 20.1 60.5 21.65 60.5 22.05 60.6 22.3 60.8466796875 22.75234375 61.5 22.8 61.5 23.3775390625 61.5 24.05 61.5 26.45 63.05 29.2 64.75 32.25 65.05 35.05 65.35 37.65 67.25 41 68.1 42.6 70.6 46.15 76.2 54.35 80.55 58.85 89.0203125 67.66484375 96 67.8 94.65 69.90234375 94.65 70 94.65 70.4 94.8 70.65 95.2 71.25 96.25 71.25 98.3 71.25 99.9 66.5 101.15 62.85 101.15 61.35 101.15 60.25 100.4 59.15 100.2060546875 58.8806640625 100 58.75 100.15 58.3326171875 100.15 57.7 100.15 57.6337890625 100.15 57.55 99.4439453125 57.3947265625 99 56.85 95.94296875 56.5134765625 94.9 52.75 94.722265625 50.8611328125 94.6 49.75 94.207421875 49.2873046875 94.05 48.5 94 46.45 94 46.3 94 40.1970703125 97.6 36.35 96.0123046875 30.849609375 92.85 26.25 90.78125 25.40859375 89.85 22.4 89.7259765625 21.53125 89.6 20.8 Z"/>
</g>
</defs>

<g transform="matrix( 1, 0, 0, 1, 0,0) ">
<use xlink:href="#Layer0_0_FILL"/>
</g>
</svg>
