
<svg xmlns="http://www.w3.org/2000/svg" version="1.1" xmlns:xlink="http://www.w3.org/1999/xlink" preserveAspectRatio="none" x="0px" y="0px" width="550px" height="400px" viewBox="0 0 550 400">
<defs>
<g id="Layer0_0_FILL">
<path fill="#000000" fill-opacity="0.14901960784313725" stroke="none" d="
M 79 40.55
L 79.55 41.3 80.3 41.3 79 40.55
M 110.95 82.75
L 99.4 69
Q 87.95 67.95 80.8 59.1 80.4 59.1 80 59.15 79.05 58.95 78.75 57.95
L 80.5 58.8
Q 71.35 49.1 65.85 37
L 65 37.25
Q 61.45 24.75 63.25 12.1
L 61.25 11.85 63.8 8.25 54.55 12.05 52.1 15.25
Q 48.5 15.9 45.4 17.9 37.7 22.9 31.05 29.2 19.95 39.8 13.25 53.45 3.15 74.2 1.6 96.4 0.05 118.5 13.7 135.55 19.3 142.55 27.65 144.8 60.7 153.7 85.05 130.7 102.65 122.5 100 103.05 100.2 102.9 100.45 102.75 102.5 101.4 102.5 99
L 102.45 98.2
Q 109.05 91.75 110.95 82.75
M 88.75 84.9
Q 92.25 93.65 85.15 98.95 64.75 114.1 41.65 104.6 34.5 80.1 58.1 74.75 60.65 79.75 58.6 84.85 55 93.85 45.25 97.65
L 45.5 99.05
Q 49.85 101.1 54.3 99.35 60.8 96.7 63 90.1 71.1 86.1 71.85 75.65 73.05 58.7 58.7 61.3 54.05 62.3 49.85 63.7 45.05 65.3 41.3 68.55 20.45 86.8 34.25 110.5 36.95 115.1 42.15 115.9 72.65 121.15 94.55 101.15 95.3 108.5 92.2 115.2 87.15 126 74.65 129.9 59.65 134.5 43.95 130.25 18.6 123.5 19.15 95.85 19.25 88.15 21.7 80.95 32.2 50.2 61.4 56.1 68.95 57.7 74.45 63.25 83.7 72.4 88.75 84.9 Z"/>
</g>
</defs>

<g transform="matrix( 1, 0, 0, 1, 0,0) ">
<use xlink:href="#Layer0_0_FILL"/>
</g>
</svg>
