
<svg xmlns="http://www.w3.org/2000/svg" version="1.1" xmlns:xlink="http://www.w3.org/1999/xlink" preserveAspectRatio="none" x="0px" y="0px" width="550px" height="400px" viewBox="0 0 550 400">
<defs>
<g id="Layer0_0_FILL">
<path fill="#7D5924" stroke="none" d="
M 17 -17.9
Q 15.9 -13.4 14.15 -11.35 12.75 -9.7 10.5 -9.5 8.3 -9.25 3.95 -12.55 -0.35 -15.8 -2.45 -15.6 -3.1 -15.55 -5.75 -13.75
L -8.5 -11.85 -8.25 -10.3
Q -8.25 -9.8 -8.95 -8.95 -9.7 -8.1 -9.7 -4.05 -9.7 6.4 -2.5 18.75 5.6 32.55 15.15 32.55 24.65 32.55 31.95 23.55 39.8 13.9 39.8 -0.45 39.8 -4.1 38.3 -12.1 36.8 -11.15 34.75 -10.95 26.05 -10.15 24.6 -12.05
L 22.7 -14.55
Q 20.9 -16.35 17 -17.9
M 37.45 -25.5
L 37.6 -30.1
Q 36.9 -34.6 21.85 -35.5 -1.65 -34.45 -6 -31.6 -8.6 -29.95 -9.25 -26.35
L -9.6 -18.35 -9.5 -18.45
Q -6.75 -20.8 -4.35 -21 -2.4 -21.2 3.75 -18.35
L 9.55 -15.5
Q 10.05 -15.55 12.55 -19.2 14.9 -22.9 18.15 -23.2 25.35 -23.9 27.3 -19.7 28.05 -17.55 28.5 -16.75 29.2 -15.55 30.75 -15.7
L 36.85 -19.3 39.35 -20.2
Q 37.45 -22.5 37.45 -25.5 Z"/>
</g>
</defs>

<g transform="matrix( 1, 0, 0, 1, 0,0) ">
<use xlink:href="#Layer0_0_FILL"/>
</g>
</svg>
