
<svg xmlns="http://www.w3.org/2000/svg" version="1.1" xmlns:xlink="http://www.w3.org/1999/xlink" preserveAspectRatio="none" x="0px" y="0px" width="550px" height="400px" viewBox="0 0 550 400">
<defs>
<filter id="Filter_1" x="-20%" y="-20%" width="140%" height="140%" color-interpolation-filters="sRGB">
<feColorMatrix in="SourceGraphic" type="matrix" values="1 0 0 0 0 0 1 0 0 0 0 0 1 0 0 0 0 0 0.31 0" result="result1"/>
</filter>

<g id="Parts_Heads_headColorMC_46_Layer1_0_FILL">
<path fill="#D6A08F" stroke="none" d="
M 137.8 109.9
L 137.9 109.05 137.5 108.8
Q 137.15 108.6 136.5 108.7 132.45 109 130.2 110.15 128.45 112.05 123.6 115.7 122.25 116.7 119.55 117.75 116.6 118.85 115.45 119.6 115.35 119.65 115.3 119.55 115.3 120 115.2 120.05 115.05 120 114.4 120.5 114.4 120.6 113.05 121.8 113 121.95 112.3 122.75 109.4 125.35 106.85 129.6 106.4875 130.2 106 130.95 104.648828125 133.3119140625 102.5 137.05
L 103.7 137
Q 104.3 135.95 105.55 135.55 106.85 135.15 107.75 135.9 108.2 136.3 111.5 134.25 113.15 133.15 115.35 131.65 120.35 128.75 121.75 127.85 125.35 125.65 128 123.6 132.6 120.15 134.25 118.5 137.55 115.15 138.1 111.7 138.35 110.35 137.8 109.9
M 96.15 45.25
Q 89.35 42.9 86.1 42.25 81.95 41.3 79.55 41.1 78.85 41.15 77.3 41.05 77.05 41.05 76.2 40.95 75.55 40.85 75.4 41 74.55 41.5 74.2 41.25 73.2 40.55 72.55 40.35 71.55 40 69.75 40.3 67.7 40.75 66.8 40.9 60.2 42.3 55 44.25 49.55 46.25 44.5 49.35 33.8 55.95 28.1 61.05 20.8 67.6 15.55 76.6 13.95 79.6 14 79.7 12.05 84.6 10.95 87.75 11.15 87.95 11.05 88.15 10.75 88.65 10.7 88.85 10.3 90.6 9.85 93.25
L 9.15 97.7
Q 8.95 99 8.15 101.7 7.6 104.1 7.8 105.7 7.8 106.6 7.25 107.4 7.7 110.7 7.5 113.05 7.2 115.3 7 120.45 6.75 125.35 6.4 127.9 7.95 139.05 9.15 143.65 9.7 145.85 10.05 148.6 10.15 150.25 10.45 153.55 11.05 154.05 10.95 154.6 10.9 156.1 10.9 156.9 11.25 157.3 11.15 157.7 11.05 158.65 10.85 159 10.75 159.35 10.35 159.95
L 10.25 160.3
Q 10.1 161.3 8.7 162.05 8 163.95 6.15 167.1 4.1 170.6 3.45 172.05 4.2 172.65 3.9 173.75 2.8 177.5 8.95 179.65 14.7 181.55 18 180.35 20.1 179.7 21.8 178.15 23.6 176.55 24.35 174.55 25.25 172.1 24.4 168.9 24.2 168.05 22.4 163.5 21.45 161.75 21.05 160.85 20.3 159.3 20 158.1 18.9 153.2 19.45 148.5 20.5 140.6 28.25 139.65 31.55 139.25 36.8 140.15 37.6 140.25 45.25 141.8
L 45.35 141.8
Q 46.35 141.6 47.2 142.1 48.2 142.55 48.2 143.5 48.2 143.9 48.15 144
L 48.2 144.3
Q 48.55 145.15 48.1 146.1 47.9 147.15 47.55 149.3 48.5 150.9 49.75 151.6 50.3 151.85 50.5 152.4 60.15 152.15 68.2 146.15 71.5 143.3 73.2 142.25 76.2 140.4 78.9 141.55 79.45 141.75 80.35 141.65 81.15 141.5 81.75 141.2 82.5 141.15 83.6 141.25 84.6 141.35 85.45 141.2 86.5 141.25 88.45 140.4 90.9 139.35 91.45 139.2 91.45 139.1 91.4 138.9
L 91.3 138.1
Q 91.3 137.95 91.75 138.2 92.2 138.4 92.2 138.35 91.9 137.5 92.05 137.15 92.25 136.3 93.55 133.3 94.25 128.85 95.6 126.7
L 97.4 124.25
Q 97.2 123.8 97.3 123.7 97.5 122.6 98.35 121.35 98.35 120.75 98.95 119.7 99.4 119.25 100.15 118.3
L 101.45 116.75
Q 101.95 116.3 102.15 116.2 102.45 116.05 102.85 116.1 106.25 111.65 108.65 113.4 108.9 113.55 109.4 114.5 110.2 114.5 111.15 115.9
L 111.1 115.75
Q 111.1279296875 115.7740234375 111.2 115.75 111.75 115.55 112.55 115.9
L 112.8 116.1 113.05 116.15
Q 113.35 116.15 113.7 116.75
L 116.05 115.55
Q 116.25 115.3 116.95 116.55 117.75 116.1 119.65 115.1 121.45 114.2 122.4 113.6 124.65 112.1 128.95 108.7 128.95 108.3 129.05 108.25
L 131.6 105.65 131.55 105.5
Q 130.1 103.25 130.05 101.4 130.1 100.7 130.7 99.9 131 99.4 131.75 98.5 131.2 96.9 131.7 96.55
L 132.05 96.35 132.25 96.35
Q 132.95 96.95 133.05 97.05 133.2 97.1 135.45 96.8 136.9 96.75 137.85 96.9
L 140 97.45
Q 140 97.05 140.05 96.65 140 95.8 140.3 94.15 140.15 93.35 140 91.6 139.85 89.9 139.7 88.95 138.9 85.45 135.4 82.25 133.15 80.4 132.1 79.3 130.3 77.55 129.85 75.7 129.4 74.95 128.6 72.85 127.9 70.95 127.3 70.1 126.45 68.75 124.65 66.9 121.85 63.95 121.7 63.8 118.5 60.45 116.9 58.75 113.95 55.7 112.65 53.35 111.8 52.85 110 51.55 108.45 50.4 107.25 49.8 103.05 47.75 96.15 45.25 Z"/>
</g>

<g id="Parts_Heads_headColorMC2_46_Layer3_0_FILL">
<path fill="#9F4264" stroke="none" d="
M 131.8 96.3
Q 131.3 96.65 131.85 98.25 130.65 99.8 130.65 101.65 130.65 103.8 131.65 105.25
L 131.7 105.4 129.15 108
Q 129.05 108.05 129.05 108.45 124.75 111.85 122.5 113.35 121.55 113.95 119.75 114.85 117.85 115.85 117.05 116.3 116.35 115.05 116.15 115.3
L 113.8 116.5
Q 113.45 115.9 113.15 115.9
L 112.9 115.85 112.65 115.65
Q 111.85 115.3 111.3 115.5 111.05 115.6 111.25 116.4 109.9 114.3 109.5 114.25 109 113.3 108.75 113.15 106.35 111.4 102.95 115.85 102.55 115.8 102.25 115.95 102.05 116.05 101.55 116.5
L 100.25 118.05
Q 99.5 119 99.05 119.45 98.45 120.5 98.45 121.1 97.6 122.35 97.4 123.45 97.3 123.55 97.5 124
L 95.7 126.45
Q 94.35 128.6 93.65 133.05 92.35 136.05 92.15 136.9 92 137.25 92.3 138.1 92.15 138.45 92.15 138.6 91.45 137.85 91.5 138.65 91.55 138.85 91.55 138.95 91.85 141.95 93.45 143.65 94.95 145.25 96.75 144.2 97.55 143.75 99.65 141.4 100.8 140.05 102.55 137.45 104 135.05 105.95 131.6 109.55 125.15 112.8 122.2
L 113.05 121.75
Q 113.15 121.75 113.15 121.65 113.8 121.15 115.25 120.45 115.35 120.4 115.35 119.95 115.4 120.05 115.5 120 116.55 119.35 119.6 117.85 122.25 116.6 123.65 115.55 124.8 114.7 127.05 113 128.95 111.5 130.25 110.1 133.5 108.55 136.15 108.3 137.1 108.15 138.85 108.5 139.1 108.45 139.4 108.55 141.6 108.9 142.75 108.9 149.65 108.75 148.65 104.6 148.35 103.65 147 101.5 146.8 101.45 146.4 101.05 145.85 100.5 145.6 100.35 144.3 99.45 143.65 99 142.15 98.45 141.4 98.15 140.6 97.85 140.5 97.5
L 137.95 96.65
Q 135.3 96.05 133.85 96.1 133.75 95.95 133.15 96.1 132.5 96.2 132.35 96.1
L 132.15 96.1 131.8 96.3 Z"/>
</g>

<g id="Parts_Heads_headsMC_46_Layer12_0_FILL">
<path fill="#9F4264" stroke="none" d="
M 132.1 96.05
L 131.75 96.25
Q 131.25 96.6 131.8 98.2 131.05 99.1 130.75 99.6 130.15 100.4 130.1 101.1 130.15 102.95 131.6 105.2
L 131.65 105.35 129.1 107.95
Q 129 108 129 108.4 124.7 111.8 122.45 113.3 121.5 113.9 119.7 114.8 117.8 115.8 117 116.25 116.3 115 116.1 115.25
L 113.75 116.45
Q 113.4 115.85 113.1 115.85
L 112.85 115.8 112.6 115.6
Q 111.8 115.25 111.25 115.45 111 115.55 111.2 116.35 109.85 114.25 109.45 114.2 108.95 113.25 108.7 113.1 106.3 111.35 102.9 115.8 102.5 115.75 102.2 115.9 102 116 101.5 116.45
L 100.2 118
Q 99.45 118.95 99 119.4 98.4 120.45 98.4 121.05 97.55 122.3 97.35 123.4 97.25 123.5 97.45 123.95
L 95.65 126.4
Q 94.3 128.55 93.6 133 92.3 136 92.1 136.85 91.95 137.2 92.25 138.05 92.1 138.4 92.1 138.55 91.4 137.8 91.45 138.6 91.5 138.8 91.5 138.9 91.8 141.9 93.4 143.6 94.9 145.2 96.7 144.15 97.5 143.7 99.6 141.35 100.75 140 102.5 137.4 103.95 135 105.9 131.55 109.5 125.1 112.75 122.15
L 113 121.7
Q 113.1 121.7 113.1 121.6 113.75 121.1 115.2 120.4 115.3 120.35 115.3 119.9 115.35 120 115.45 119.95 116.65 119.2 119.6 118.1 122.25 117.1 123.6 116.05 126.8 113.65 130.2 110.05 133.45 108.5 136.1 108.25 137.05 108.1 138.8 108.45 139.05 108.4 139.35 108.5 141.55 108.85 142.7 108.85 149.6 108.7 148.6 104.55 147.95 102.4 147.2 101.2 146.55 101 145.55 100.3 144.25 99.4 143.6 98.95 142.1 98.4 141.35 98.1 140.85 97.85 140.65 97.2
L 140.05 97.15 137.9 96.6
Q 136.95 96.45 135.5 96.5 133.25 96.8 133.1 96.75 133 96.65 132.3 96.05
L 132.1 96.05 Z"/>
</g>

<g id="Parts_Heads_Blobfish_Vector_Assets__Path__1_0_Layer0_0_FILL">
<path fill="#010101" stroke="none" d="
M 0.95 0.9
Q 0.45 0.95 0.45 0.65
L 0.45 0.05 0.35 0 0.35 0.55 0.2 0.95 0.2 1.05 0.1 1.35
Q 0 1.55 0 1.85
L 0 2.65
Q 0 2.85 0.1 3
L 0.2 3.05 0.35 3.05 0.45 3.15 0.55 3.05
Q 0.65 3 0.65 2.9
L 0.95 1.8 0.95 0.9 Z"/>
</g>

<g id="Parts_Heads_Blobfish_Vector_Assets__Path__6_0_Layer0_0_FILL">
<path fill="#010101" stroke="none" d="
M 0.7 0.15
L 0.6 0
Q 0.5 0 0.5 0.15
L 0.5 1.15 0.4 1.35 0.4 1.55 0.3 1.75
Q 0.2 1.85 0.2 2.15
L 0.1 2.35 0 2.85 0 3.15 0.1 3.35 0.1 3.45 0.3 3.55 0.4 3.55 0.6 3.35
Q 0.7 3.25 0.7 3.05
L 0.9 2.35
Q 1 0.95 0.7 0.15 Z"/>
</g>

<g id="Parts_Heads_Blobfish_Vector_Assets__Path__5_0_Layer0_0_FILL">
<path fill="#010101" stroke="none" d="
M 1.25 0.6
Q 1 0.7 1 0.3
L 0.85 0 0.75 0 0.65 0.1 0.45 0.4 0.35 0.5 0.15 0.9
Q 0.05 1 0.05 1.2
L 0.05 1.5
Q -0.1 1.95 0.05 2.4 0.05 2.6 0.15 2.7
L 0.25 2.9
Q 0.45 3 0.55 2.9
L 0.65 2.8 0.75 2.6
Q 0.95 2.3 0.95 2.05
L 1.15 1.45
Q 1.25 1.25 1.25 0.6 Z"/>
</g>

<g id="Parts_Heads_Blobfish_Vector_Assets__Path__4_0_Layer0_0_FILL">
<path fill="#010101" stroke="none" d="
M 1.25 0.45
Q 1.2 0.35 1.1 0.2 1.1 -0.1 1 0.05
L 0.8 0.1
Q 0.7 0.1 0.7 0.3
L 0.6 0.4
Q 0.4 0.6 0.4 0.7
L 0.3 0.8 0.1 1.2 0 1.5 0 2.1
Q 0 2.3 0.1 2.3 0.1 2.4 0.2 2.4
L 0.3 2.4
Q 0.4 2.4 0.4 2.3
L 0.6 2.2 0.9 1.6
Q 1.1 1.2 1.1 1.1 1.2 0.9 1.2 0.4
L 1.25 0.45 Z"/>
</g>

<g id="Parts_Heads_Blobfish_Vector_Assets__Path__3_0_Layer0_0_FILL">
<path fill="#010101" stroke="none" d="
M 1.15 0.6
Q 1.15 0.3 1.05 0.2
L 0.9 0 0.8 0 0.6 0.3 0.5 0.65
Q 0.4 0.7 0.3 1.05
L 0.1 1.35
Q 0 1.55 0 1.95
L 0 2.85
Q 0 3.15 0.1 3.25
L 0.2 3.45
Q 0.35 3.45 0.4 3.55
L 0.55 3.45 1.05 2.35
Q 1.25 1.7 1.15 0.6 Z"/>
</g>

<g id="Parts_Heads_Blobfish_Vector_Assets__Path__0_Layer0_0_FILL">
<path fill="#010101" stroke="none" d="
M 0.6 1.3
Q 0.4 0.5 0.2 0.1 0.2 0 0.1 0 0 0.1 0 0.35 0 0.95 0.1 1.25
L 0.1 1.35
Q 0.1 1.5 0.2 1.65
L 0.2 2.35
Q 0.2 2.85 0.3 3 0.3 3.35 0.4 3.45
L 0.45 3.6
Q 0.65 3.8 0.65 3.3
L 0.7 2.3 0.6 1.3 Z"/>
</g>

<g id="Parts_Heads_Blobfish_Vector_Assets__Path__2_0_Layer0_0_FILL">
<path fill="#010101" stroke="none" d="
M 0 1.75
Q 0 2.15 0.2 2.75
L 0.3 3.15 0.5 3.55
Q 0.6 3.65 0.65 3.15 0.6 2.05 0.5 1.8
L 0.3 1.1 0.3 0.95
Q 0.3 0.75 0.2 0.75
L 0.2 0.05
Q 0.2 -0.05 0.1 0.05 0 0.25 0 0.65
L 0 1.75 Z"/>
</g>

<g id="Parts_Heads_Blobfish_Vector_Assets__Path__1_0_0_Layer0_0_FILL">
<path fill="#010101" stroke="none" d="
M 0.4 1.45
L 0.4 1.25
Q 0.55 0.8 0.4 0.35 0.4 0.25 0.35 0.1 0.25 -0.05 0.2 0.15 -0.1 0.9 0.1 2.35
L 0.4 3.55 0.9 4.25
Q 1.1 4.4 1.1 3.55 1.25 2.95 0.9 2.3 0.8 2.25 0.8 2.15
L 0.6 1.95
Q 0.5 1.85 0.5 1.65
L 0.4 1.45 Z"/>
</g>

<g id="Parts_Heads_Blobfish_Vector_Assets__Path__2_0_0_Layer0_0_FILL">
<path fill="#010101" stroke="none" d="
M 0.8 1.35
Q 0.8 0.75 0.7 0.55 0.7 0.35 0.6 0.1 0.45 -0.15 0.3 0.1 -0.1 1.3 0.1 2.95 0.3 3.95 0.5 4.35
L 0.7 4.75
Q 0.7 4.85 0.8 4.9 0.95 4.9 1 4.85 1.1 4.75 1.1 4.35 1.05 3.7 1.05 3.5
L 0.9 3 0.7 2.6 0.7 2.5 0.6 2.3 0.6 2.2
Q 0.6 2.1 0.7 2.05 0.8 1.85 0.8 1.35 Z"/>
</g>

<g id="Parts_Heads_Blobfish_Vector_Assets__Path__0_0_Layer0_0_FILL">
<path fill="#010101" stroke="none" d="
M 0.4 1.2
L 0.4 0.2
Q 0.4 0 0.3 0
L 0.2 0.1 0.2 0.3
Q 0.2 0.5 0.1 0.7
L 0 1.5 0 2.6
Q 0 3.15 0.3 3.3
L 0.3 2.9
Q 0.3 2.5 0.2 2.4
L 0.1 2.3
Q 0.3 2.1 0.3 2
L 0.4 1.2 Z"/>
</g>

<g id="Parts_Heads_Blobfish_Vector_Assets__Path__1_1_0_Layer0_0_FILL">
<path fill="#010101" stroke="none" d="
M 0.2 0
Q 0 0.05 0 0.25
L 0.05 1.85
Q 0.3 2.65 0.4 2.75
L 0.55 3.15
Q 0.6 3.2 0.65 3.35 0.7 3.4 0.75 3.35 0.85 3.35 0.85 2.95 0.75 2.45 0.65 2.35 0.65 2.25 0.5 1.95 0.4 1.85 0.4 1.65 0.4 1.55 0.3 1.55
L 0.3 0.7 0.4 0.5
Q 0.4 0.4 0.5 0.4
L 0.5 0.3
Q 0.5 0.2 0.4 0.2
L 0.3 0 0.2 0 Z"/>
</g>

<g id="Parts_Heads_Blobfish_Vector_Assets__Path__7_0_Layer0_0_FILL">
<path fill="#010101" stroke="none" d="
M 0.3 1.45
L 0.3 1.35 0.4 0.95 0.4 0.25
Q 0.3 -0.15 0.2 0.1 -0.15 1.55 0.2 2.5 0.4 3.05 0.8 3.2
L 1.1 3.25 1.4 3.25
Q 1.5 3.25 1.5 3.1
L 1.4 2.65 1.2 2.35 0.9 2.05 0.6 1.85
Q 0.4 1.85 0.4 1.65
L 0.3 1.45 Z"/>
</g>

<g id="Parts_Heads_Blobfish_Vector_Assets__Path__8_0_Layer0_0_FILL">
<path fill="#010101" stroke="none" d="
M 0.3 1.35
L 0.3 0.8
Q 0.3 0.4 0.2 0.2
L 0.1 0
Q 0 0 0 0.3
L 0 0.9
Q 0 1.8 0.3 2.7
L 0.6 3.4 0.8 3.7 1 3.9
Q 1.1 3.9 1.1 3.4 0.8 2.55 0.7 2.35
L 0.6 2.15
Q 0.5 2.1 0.5 1.85
L 0.3 1.35 Z"/>
</g>

<g id="Parts_Heads_Blobfish_Vector_Assets__Path__1_2_0_Layer0_0_FILL">
<path fill="#010101" stroke="none" d="
M 0.3 1.5
L 0.3 0.6
Q 0.3 0.3 0.2 0.2 0.2 0 0.1 0 0 0 0 0.5 0 1 0.2 2.4 0.2 2.6 0.4 3.2 0.4 3.3 0.5 3.6
L 0.6 3.9
Q 0.7 4 0.7 3.8
L 0.7 3.3 0.6 3.05
Q 0.6 2.85 0.5 2.85
L 0.5 2.5
Q 0.4 2.3 0.4 1.8 0.4 1.6 0.3 1.5 Z"/>
</g>

<g id="Parts_Heads_Blobfish_Vector_Assets__Path__17_0_Layer0_0_FILL">
<path fill="#010101" stroke="none" d="
M 128.3 40.6
Q 131.3 46.6 132.3 48 129.75 32.4 118.35 18.5 105.9 3.3 92.6 4 80.3 -0.6 66.35 0.05 52.5 0.75 40.1 6.4 27.15 12.3 18.35 22.45 8.9 33.4 5.7 47.7 5.7 47.6 5.65 47.55 5.55 47.45 5.5 47.6 3 48.7 0.35 56.15 -0.5 58.65 0.35 57.85 1.4 56.9 4.6 51.2 4.7 54.8 5.1 53.9 8.3 39.35 22.15 24.6 37.55 8.1 55.5 4.6 65.4 2.8 80.95 6.35 89.5 8.3 104.1 12.3 113.65 14.85 122.4 29.55 124.75 33.5 128.3 40.6 Z"/>
</g>

<g id="Parts_Heads_Blobfish_Vector_Assets__Path__11_0_Layer0_0_FILL">
<path fill="#010101" stroke="none" d="
M 34.85 0
Q 34.65 0.2 34.65 0.45
L 34.55 0.75 34.55 0.8
Q 33.35 4.4 33.65 10.2 33.65 10.6 33.85 11.6
L 33.85 12.1
Q 33.95 13.8 34.55 16.2 34.65 16.5 34.75 17
L 33.45 17.85
Q 31.2 17.8 28.05 20 27 20.7 23.35 23.75 20.5 26.15 19.05 27.4 16.45 29.65 14.85 31.45 12.15 32.1 10.85 32.25
L 7.85 32.25
Q 9.1 30.85 9.75 28.75
L 10.15 27.55
Q 10.25 27.45 10.25 27.05
L 11.35 23.05
Q 11.75 22.25 11.85 21.75
L 11.95 21.25 12.25 20.55
Q 12.35 20.4 12.25 19.85 12.15 19.3 12.05 19.45 11.15 20.35 10.75 21.45
L 9.65 23.45 7.25 26.95
Q 6.6 27.95 6.35 28.75
L 3.95 32.05
Q 3.2 33.15 2.85 33.55 2.1 34.3 1.25 34.65
L 1.05 35.05
Q 0.5 35.05 0.15 35.25 -0.05 35.4 0 36.15 0.05 36.9 0.25 37.05 0.65 37.4 2.25 37.85 3.95 38.3 4.55 38.35 7.5 38.95 8.9 39.05 11.75 39.25 13.3 39.15 14.6 38.95 15 38.55 15.5 38.2 15.5 37.05 15.65 36.95 16.5 36.25
L 16.65 35.95
Q 17.85 35.15 18.35 34.55 18.45 34.45 18.65 33.85 21.55 30.95 22.65 30.05 23.55 29.35 24.05 28.95
L 24.05 29.25
Q 24.35 30.5 24.4 30.55
L 24.55 31.15
Q 24.55 31.35 24.75 31.35
L 24.85 31.35
Q 24.95 31.35 24.95 31.05
L 24.95 30.25 24.75 29.55 24.65 29.35 24.65 29.25 24.55 29.05 24.55 28.75
Q 25.05 28.35 26.05 27.75 26.05 28.45 26.15 28.85 26.15 29.25 26.35 29.65
L 26.45 29.95
Q 26.45 30.15 26.65 30.15
L 26.75 30.05 26.75 29.75
Q 26.75 29.25 26.65 28.95
L 26.25 28.15 26.25 27.55 28.25 26.25 28.55 27.55 28.85 28.05
Q 28.95 28.05 28.95 27.65 28.95 27.25 28.85 27.05 28.85 26.85 28.75 26.85
L 28.55 26.25 28.45 26.05 30.15 24.95
Q 30.15 25.25 30.35 25.85
L 30.45 26.35 30.65 26.75
Q 30.75 26.85 30.75 26.75 30.85 26.75 30.85 26.45
L 30.85 25.85
Q 30.85 25.55 30.65 25.15
L 30.55 24.95 30.55 24.85 32.25 23.65
Q 32.25 23.95 32.35 24.05 32.6 24.85 32.75 25.05
L 33.05 25.65
Q 33.05 25.85 33.25 25.85
L 33.35 25.95
Q 33.45 26.05 33.45 25.65
L 33.45 25.05 33.35 24.85 33.25 24.55 32.85 23.75
Q 34.15 22.75 34.35 22.45
L 34.45 22.25
Q 34.55 22.25 34.55 22.15 35 21.85 35.95 21.3 36.8 20.8 37.15 20.25 36.9 17.5 36.55 17.3 36.55 16.3 36.25 16.3
L 35.95 16.3
Q 34.9 13.75 34.75 13.1 34.4 12 34.25 10.95
L 34.35 7.7
Q 34.35 6.7 34.15 5.1 34.5 3.2 34.55 2.1
L 34.65 2 34.85 1.5
Q 34.95 1.25 34.95 0.75
L 34.95 0.25 34.85 0 Z"/>
</g>

<g id="Parts_Heads_Blobfish_Vector_Assets__Path__16_0_Layer0_0_FILL">
<path fill="#010101" stroke="none" d="
M 18.25 3.95
Q 18.4 3.5 18.4 1.7 18.4 1.4 18.25 0.75 18.1 -0.05 17.9 0 17.35 0.2 16.8 0.9 16.25 1.7 16 2 14.8 3.6 14.05 4.3 12.05 6.45 8.9 6.9 5.55 7.5 3.55 6.8 2.55 6.4 1.65 5.4 1.5 5.25 0.15 3.5 0.1 3.4 0.05 3.65 0 3.75 0 3.9
L 0.05 4.8
Q 1.1 8.7 3.05 9.9 4.1 10.55 5.75 10.75 6.8 10.9 8.65 10.85 11.95 10.7 14.05 8.85 14.6 8.45 16.05 6.75 17.75 4.95 18.25 3.95 Z"/>
</g>

<g id="Parts_Heads_Blobfish_Vector_Assets__Path__15_0_Layer0_0_FILL">
<path fill="#010101" stroke="none" d="
M 40.6 1.05
Q 40.6 0.55 40.5 0.25 40.4 -0.15 40.3 0.05
L 40.2 0.25 39.7 1.75 39.6 2.35 39.6 2.65
Q 39.2 2.85 38.5 3.55 37.8 4.15 36.2 5.15 33.4 6.75 32 7.35 28.05 9.15 22.2 10.55
L 3.7 14.25 3.7 13.95
Q 3.85 13.2 3.7 12.45 3.7 11.75 3.4 11.15 3.4 11.05 3.2 10.85
L 3 10.75 3 11.25 3.2 12.05 3.2 12.25 3.1 12.55
Q 3 12.75 3 13.15
L 3 14.25
Q 1.8 14.65 1.3 14.95
L 1.3 14.15
Q 1.3 13.3 1 12.55 0.9 12.2 0.4 12.05
L 0.3 12.55
Q 0.3 13.05 0.4 13.15
L 0.7 13.75
Q 0.7 13.85 0.6 13.85 0.5 14.05 0.1 14.55 0.1 14.85 0 14.95
L 0 15.65
Q 0 15.95 0.1 16.15
L 0.2 16.55 0.3 16.55 0.5 16.35
Q 0.5 18.05 1 18.55
L 1.3 18.85
Q 1.45 19 1.5 18.85 1.55 18.6 1.6 18.45 1.85 18.4 6 17.55
L 11.6 16.65
Q 20 15.25 22.4 14.65 28.75 13.1 32.2 11.55 34.8 10.35 36.4 9.35 38.1 8.3 38.55 8 39.8 7.1 40.3 6.25 40.75 6 40.8 4.35 40.9 2.65 40.4 2.35 40.6 1.8 40.6 1.05 Z"/>
</g>

<g id="Parts_Heads_Blobfish_Vector_Assets__Path__12_0_Layer0_0_FILL">
<path fill="#010101" stroke="none" d="
M 0.8 1.35
Q 0.8 0.85 0.6 0.25
L 0.5 0.1 0.3 0
Q 0.2 0 0.2 0.4 0.2 0.8 0.3 1
L 0.4 1.4 0.3 1.6
Q 0.3 1.7 0.2 1.7
L 0.1 1.85 0.1 1.95
Q 0 2.15 0 2.75 0 3.25 0.1 3.6 0.1 3.75 0.2 3.75
L 0.3 3.85
Q 0.3 3.95 0.4 3.85
L 0.5 3.85
Q 0.6 3.85 0.6 3.75 0.65 3.75 0.8 3.35 0.95 2.45 0.8 1.35 Z"/>
</g>

<g id="Parts_Heads_Blobfish_Vector_Assets__Path__14_0_Layer0_0_FILL">
<path fill="#010101" stroke="none" d="
M 1.15 2.2
Q 0.8 0.55 0.2 0 0 -0.2 0 0.7 0 1.2 0.1 1.4
L 0.25 1.8 0.45 2.1 0.35 2.2 0.2 2.7
Q 0.1 2.9 0.1 3.2
L 0.1 3.9
Q 0.1 4.2 0.2 4.4 0.25 4.7 0.35 4.7
L 0.55 4.7 0.75 4.5
Q 0.95 4.1 0.95 4 1.15 3.4 1.15 2.2 Z"/>
</g>

<g id="Parts_Heads_Blobfish_Vector_Assets__Path__13_0_Layer0_0_FILL">
<path fill="#010101" stroke="none" d="
M 0.2 2
L 0.2 2.4
Q 0.05 3 0.2 3.6 0.2 3.9 0.3 4.1 0.3 4.2 0.4 4.2 0.5 4.2 0.5 4.3 0.5 4.4 0.6 4.4
L 0.65 4.3
Q 0.75 4.2 0.75 3.8 0.75 2.1 0.6 1.3
L 0.4 0.5 0.2 0.1 0.1 0
Q 0 0 0 0.3
L 0 1
Q 0 1.4 0.2 2 Z"/>
</g>

<g id="Parts_Heads_Blobfish_Vector_Assets__Path__12_0_0_Layer0_0_FILL">
<path fill="#010101" stroke="none" d="
M 0.55 2.55
Q 0.8 2.1 0.7 1.3 0.55 0.45 0.2 0 0.1 -0.1 0.1 0.1 0.1 0.4 0 0.5
L 0 1.1 0.1 1.6 0.2 1.8 0.25 3.5
Q 0.25 3.8 0.45 3.8
L 0.55 3.65 0.55 2.55 Z"/>
</g>

<g id="Parts_Heads_Blobfish_Vector_Assets__Path__11_0_0_Layer0_0_FILL">
<path fill="#010101" stroke="none" d="
M 0.35 0.1
Q 0.35 0 0.25 0
L 0.2 0
Q 0.1 0 0.1 0.3
L 0 0.75 0 1.3 0.1 1.5 0.1 3
Q 0.1 3.2 0.25 3.8 0.25 3.9 0.35 3.9 0.45 3.9 0.45 3.7 0.8 3.35 0.85 2.75 0.85 2.45 0.75 1.6 0.65 0.75 0.35 0.1 Z"/>
</g>

<g id="Parts_Heads_Blobfish_Vector_Assets__Path__10_0_0_Layer0_0_FILL">
<path fill="#010101" stroke="none" d="
M 0.6 2.2
Q 0.7 1.4 0.5 0.6 0.5 0.4 0.3 0.2
L 0.1 0
Q 0 -0.1 0 0.4 0 1 0.1 1.25
L 0.1 2.3
Q 0.1 2.6 0.3 3 0.3 3.1 0.4 3.1 0.5 3.1 0.5 3 0.6 2.8 0.6 2.2 Z"/>
</g>

<g id="Parts_Heads_Blobfish_Vector_Assets__Path__9_0_0_Layer0_0_FILL">
<path fill="#010101" stroke="none" d="
M 0 0.05
L 0 0.45
Q 0 1.3 0.3 2.05 0.5 2.75 0.9 3.05
L 1 3.05
Q 1.2 3.05 1.3 2.95
L 1.1 2.5
Q 1.1 2.2 1 2.1 0.8 1.9 0.8 1.8
L 0.7 1.6 0.4 1.3 0.3 1.25 0.2 1.05 0.2 0.55
Q 0.2 0.35 0.1 0.25 0 -0.05 0 0.05 Z"/>
</g>

<g id="Parts_Heads_Blobfish_Vector_Assets__Path__8_0_0_Layer0_0_FILL">
<path fill="#010101" stroke="none" d="
M 0.35 0.6
L 0.25 0.3 0.1 0 0 0.1 0 1
Q 0 1.3 0.1 1.5
L 0.15 1.9 0.35 2.8 0.55 3.2
Q 0.55 3.3 0.65 3.3 0.85 3.5 0.85 2.9 0.95 2.3 0.75 1.9 0.5 0.8 0.35 0.6 Z"/>
</g>

<g id="Parts_Heads_Blobfish_Vector_Assets__Path__7_0_0_Layer0_0_FILL">
<path fill="#010101" stroke="none" d="
M 1.6 1.05
L 1.6 0.25
Q 1.6 0.15 1.55 0.05 1.45 -0.1 1.4 0.05 1.25 0.6 1.1 0.75
L 0.8 1.45
Q 0.65 1.65 0.4 2.15 0.2 2.45 0 3.05
L 0 3.55
Q 0 3.85 0.1 3.85 0.25 3.9 0.4 3.75 0.55 3.5 0.6 3.45
L 1 2.75
Q 1.1 2.65 1.6 1.05 Z"/>
</g>

<g id="Parts_Heads_Blobfish_Vector_Assets__Path__6_0_0_Layer0_0_FILL">
<path fill="#010101" stroke="none" d="
M 1.4 0.6
Q 1.35 0.7 1.35 0.3
L 1.2 0 1.1 0.1 1 0.3 0.2 1.5 0.1 1.6
Q 0 1.7 0 1.9
L 0 2.4
Q 0 2.7 0.1 2.7
L 0.2 2.7
Q 0.5 2.5 0.9 1.9
L 1.2 1.4
Q 1.3 1.3 1.3 1
L 1.4 0.6 Z"/>
</g>

<g id="Parts_Heads_Blobfish_Vector_Assets__Path__5_0_0_Layer0_0_FILL">
<path fill="#010101" stroke="none" d="
M 10.75 10.35
L 10.4 9.75 8.4 4.65
Q 8.75 4.55 8.9 4.15 9.05 3.95 9.05 3.1 9.05 2.4 8.75 2.3 8.2 2.15 7.9 2.3 7.5 2.15 7.1 2.3 6.75 2.4 5.9 2.4
L 3.4 2.4
Q 3 2.4 2.4 2.15 1.65 1.75 1.3 1.25
L 0.7 0.35
Q 0.5 -0.1 0.3 0.25
L 0.2 0.05
Q 0.1 -0.25 0 0.55 0.15 1.85 1 2.85 1.65 3.7 2.6 4.15 3.3 4.6 3.4 4.65 4.8 5.3 6.1 5.15 6.75 5.15 7 5.05 7.25 6.35 7.3 6.45 8.6 9.9 11.3 16.5
L 11.5 16.9
Q 11.5 17.1 11.6 17.2
L 11.6 17.6
Q 11.6 18.75 10.9 19.8
L 10.05 20.9
Q 9.8 21.15 9.4 21.3
L 8.9 21.8
Q 8.3 21.5 6.8 21.5
L 5.1 21.5
Q 4.25 21.35 3.9 21.65
L 3.9 22.5
Q 4.25 23.25 5 23.6 5.4 23.8 6.55 24
L 8.05 24.15
Q 8.05 24.5 8.25 25 8.25 25.1 8.35 25.15 8.7658203125 25.90625 8.95 26.15 8.9 26.1 8.85 26.15 8.75 26.25 8.65 26.6 8.55 26.65 8.45 27 8.25 27.3 8.05 27.9
L 7.95 28.2
Q 7.8 28.7 7.95 29.2 7.95 29.6 8.05 29.8
L 8.15 29.9 8.25 29.9
Q 8.25 30 8.35 29.9
L 8.45 29.8 8.85 28.9
Q 9.05 28.5 9.05 28.4
L 9.15 28.1 9.25 27.9 9.25 27
Q 9.5 27.4 9.55 27.4 10.55 26.85 11.3 25.65 11.75 24.95 12.35 23.4 13.65 20.05 12.85 16.25 12.65 15.05 11.85 13.1
L 11.25 10.45
Q 11.1 9.75 10.9 9.75 10.75 9.75 10.75 10.35 Z"/>
</g>

<g id="Parts_Heads_Blobfish_Vector_Assets__Path__4_0_0_Layer0_0_FILL">
<path fill="#010101" stroke="none" d="
M 1.65 0.65
L 1.65 0.3
Q 1.65 0 1.55 0
L 1.35 0.1 1.15 0.3
Q 0.85 0.6 0.8 0.8 0.65 1 0.4 1.3
L 0.2 1.6 0 2 0 2.3
Q 0 2.65 0.1 2.65
L 0.3 2.55 0.5 2.35
Q 0.8 2.05 0.9 1.85 1.2 1.55 1.3 1.35
L 1.45 1.05
Q 1.55 0.95 1.65 0.65 Z"/>
</g>

<g id="Parts_Heads_Blobfish_Vector_Assets__Path__3_0_0_Layer0_0_FILL">
<path fill="#010101" stroke="none" d="
M 0.8 0
L 0.7 0.1 0.6 0.15 0.5 0.15
Q 0.5 0.25 0.4 0.25
L 0.1 0.85 0 1.15 0 1.65
Q 0 2 0.1 2.1
L 0.1 2.15 0.2 2.15 0.3 2.1 0.4 2 0.5 1.8 0.6 1.7
Q 0.75 1.6 0.75 1.5
L 0.85 1.3 0.95 1.2 1.05 0.9 1.05 0.1
Q 1.05 0 0.9 0
L 0.8 0 Z"/>
</g>

<g id="Parts_Heads_Blobfish_Vector_Assets__Path__2_1_0_Layer0_0_FILL">
<path fill="#010101" stroke="none" d="
M 1 0.5
Q 1.05 0.4 0.95 0.3 0.95 0 0.8 0
L 0.5 0.2
Q 0.4 0.2 0.4 0.4
L 0.3 0.6 0 1.6 0 2
Q 0.1 2.2 0.1 2.1
L 0.4 1.4
Q 0.6 1.2 0.6 1.1
L 0.9 0.6
Q 1 0.6 1 0.5 Z"/>
</g>

<g id="Parts_Heads_Blobfish_Vector_Assets__Path__1_3_0_Layer0_0_FILL">
<path fill="#010101" stroke="none" d="
M 0.4 1.2
L 0.4 1
Q 0.4 0.7 0.3 0.5
L 0.2 0.1 0.1 0
Q 0 0 0 0.35
L 0 2
Q 0 2.4 0.1 2.6
L 0.2 3.1
Q 0.2 3.2 0.3 3.2
L 0.4 3.2
Q 0.55 3.1 0.55 2.9
L 0.55 2.1
Q 0.4 1.7 0.4 1.2 Z"/>
</g>

<g id="Parts_Heads_Blobfish_Vector_Assets__Path__18_0_Layer0_0_FILL">
<path fill="#010101" stroke="none" d="
M 13.1 1.1
Q 13.25 0.7 13.1 0.25 13.1 0.15 13.05 0.05 12.95 -0.1 12.9 0.05 11.7 3.25 7.6 6.9 5.2 8.9 4 9.8 3.35 10.3 1.9 11.25 0.65 12.15 0.1 12.95 0 13.1 0.05 13.7 0.05 14.3 0.2 14.3 0.85 14.3 2.1 13.3
L 4.1 11.7
Q 6.05 10.05 7.9 8.2 9.9 6.2 10.9 4.9 12.45 3 13.1 1.1 Z"/>
</g>

<g id="Parts_Heads_Blobfish_Vector_Assets__Path__5_1_0_Layer0_0_FILL">
<path fill="#010101" stroke="none" d="
M 10.2 1.25
Q 10.45 0.8 10.2 0.15 10 -0.25 10 0.15 9.3 3.55 6.7 7.05 5 9.05 4.1 9.95 3.5 10.65 2 12.05
L 1.9 11.95
Q 1.65 12.45 1.5 12.55
L 1.1 13.15 1.1 13.25 0.4 14.4
Q 0 15 0 15.4
L 0 15.95
Q 0 16.4 0.1 16.4 0.15 16.4 0.4 16.05
L 1.1 14.55 1.2 14.55
Q 1.4 14.55 1.6 14.4 1.8 14.2 1.85 14.15
L 2.7 13.55 4.2 12.05
Q 6.3 9.75 7 8.65 9.65 5 10.2 1.25 Z"/>
</g>

<g id="Parts_Heads_Blobfish_Vector_Assets__Path__4_1_0_Layer0_0_FILL">
<path fill="#010101" stroke="none" d="
M 18.05 2.4
Q 18.05 1.8 17.95 1.5
L 17.95 1.3
Q 17.95 1 17.85 0.9 17.85 0.8 17.75 0.8
L 17.75 0.7
Q 17.6 0.3 17.5 0.1 17.3 -0.25 17.15 0.2 16.15 3.7 15.55 11.1 14.95 18.7 14.75 22.5 14.6 25.95 13.55 28.1 12.45 30.6 10.85 32.5 10.2 33.4 9.05 34.4 8.65 34.7 6.55 36.1 5.5 36.75 4.35 37.9
L 4.25 38
Q 3.3 38.7 2.55 39.8 2.35 39.8 2.15 40
L 1.75 40.3
Q 1.45 40.6 0.95 41.4 0.2 42.6 0.05 44.2 -0.3 46.55 0.45 48.55 0.85 49.35 1.15 49.7 1.25 49.85 2.05 50.4 2.35 50.6 2.35 49.5 2.35 48.5 2.05 48 1.65 47.2 1.35 46.9 1.15 46.7 0.95 46.1
L 1.05 45.9
Q 1.4 44.9 1.95 44.2
L 2.55 43.2
Q 3 42.3 3.05 42.05 3.4 41.7 3.55 41.35
L 5.25 40.65
Q 6.75 39.65 7.55 39.25 9.85 37.8 11.35 35.85 15.2 30.9 15.55 26.85 15.8 24.6 16 21 16.25 16.45 16.35 15.15 16.65 11.35 17.85 3.75 17.95 3.95 18.05 3.45 18.2 2.9 18.05 2.4 Z"/>
</g>

<g id="Parts_Heads_Blobfish_Vector_Assets__Path__19_0_Layer0_0_FILL">
<path fill="#010101" stroke="none" d="
M 52.25 22.55
Q 55.05 22.15 54.7 18.1 48.15 15.4 44.7 13.7 38.65 10.65 35.75 6.4 35.35 4.6 35.05 3.4 34.45 1.15 33.25 0 32.8 1.1 32.95 2.5 33.05 3.45 33.55 6.35 32.6 9.45 29.8 5.85 28.6 4.35 28.35 4.3 27.9 4.3 28.35 7 28.05 7.95 26.65 6.9 25.05 5.5 24.45 5.1 24 5.15 24.4 6.8 24.9 8.85 23.65 10.1 19.05 13.1 17.6 19.55 16.8 23.3 16.9 31.4 16.95 38.65 16.05 41 14.6 44.8 9.7 43.9 10.3 41.95 10.65 39.1 11.05 35.6 10.5 34.35 10.35 35.8 10.05 39.1 9.6 42.1 8.3 44.4 3.55 44.1 2.4 43.6 1.4 43.1 2.35 41.85 3.95 40 4.95 38.55 6.5001953125 36.20234375 7 33.65 6.324609375 34.9892578125 3 38.85 -1.25 43.75 0.8 43.6 1.05 45.25 2.65 46.2 4.3 47.1 6.6 46.8 6.15 47.9 6.7 48.3 7.3 48.8 8.4 46.5 16.95 52 18.4 41.5 18.75 38.6 18.8 31.9 18.8 25.55 19.2 23.4 19.55 21.2 22.75 17.55 25.65 14.2 25.55 10.9
L 27.2 12.45
Q 29.05 13.65 28.9 11.3 29.05 11.3 29.6 11.5 30.1 11.6 30.4 11.1 30.75 11.2 32.3 12.85 33.8 14.1 34.4 12.5 34.85 13.75 35.1 13.2 35.55 11.85 35.9 11.6 36 13.15 39.05 16 42.15 18.8 45.75 20.75 49.85 22.9 52.25 22.55 Z"/>
</g>

<g id="Parts_Heads_Blobfish_Vector_Assets__Path__3_1_0_Layer0_0_FILL">
<path fill="#FFFFFF" stroke="none" d="
M 69.6 3.85
Q 69.55 1.3 68.3 0.85 65.95 0.05 62.35 -0.05 58.2 0.05 56.2 0.05 47.55 0.05 43.3 0.75 34.25 2.4 24.15 9.95 15.3 16.65 9.4 23.9 2.2 32.7 0.05 41.55 0.35 44.85 1.05 44.05 3 41.85 6.05 37.3 9.25 32.5 10.95 30.45 17.1 23.15 25.45 16.85 30.45 13.05 34.9 10.95 40.1 8.45 45.45 7.75 49.7 7.25 55.85 7.25 57.85 7.25 62.2 7.45 66 7.45 68.35 6.65 69.6 6.35 69.6 3.85 Z"/>
</g>

<g id="Parts_Heads_Blobfish_Vector_Assets__Path__2_3_0_Layer0_0_FILL">
<path fill="#FFFFFF" stroke="none" d="
M 6.1 4.2
Q 6.1 2.15 5.15 0.7 4.6 -0.1 4.25 0 4.05 0 3.9 0.1
L 3.85 0.1
Q 3.4 -0.1 2.75 0.2 1.65 0.85 0.9 2 0 3.55 0 5.4 -0.05 7.55 1.25 8.6 2.15 9.35 3.3 9 4.3 8.7 5.05 7.7 6.1 6.3 6.1 4.2 Z"/>
</g>

<g id="Parts_Heads_Blobfish_Vector_Assets__Path__1_4_0_Layer0_0_FILL">
<path fill="#FFFFFF" stroke="none" d="
M 1.75 0.9
Q 1.65 0.7 1.65 0.5 1.5 0.25 1.25 0.1
L 1.05 0
Q 0.95 0 0.75 0.2
L 0.75 0.3 0.65 0.3
Q 0.4 0.3 0.15 0.8 -0.05 1.45 0.05 1.9 0.05 2.4 0.35 3 0.6 3.5 0.95 3.5
L 1.05 3.5 1.15 3.7
Q 1.55 3.9 1.75 3.5 1.95 3.3 1.95 3
L 2 2.4
Q 1.9 1.25 1.75 0.9 Z"/>
</g>

<g id="Parts_Heads_Blobfish_Vector_Assets__Path__20_0_Layer0_0_FILL">
<path fill="#FFFFFF" stroke="none" d="
M 31.6 16.05
Q 31.7 11.8 29.95 5.7 29.3 3.2 28.5 1.2 27.65 -0.9 27.85 0.5 29.3 12.1 28.35 18.15 26.65 28.75 18.25 30.3 14.95 31 11.7 29.95 8.6 28.9 6.15 26.4 2.75 23 1.95 18.6 1.2 14.8 2.35 9.7 2.45 9.5 2.25 8.55 2 7.55 1.75 7.9 -0.1 10 0 15.75 0.05 20.65 1.15 23.8 3.05 29.2 6.3 32.55 10.1 36.4 15.15 36.8 20.4 37.25 24.4 34.35 28.35 31.5 29.65 26.4 31.45 19.7 31.6 16.05 Z"/>
</g>

<g id="Parts_Heads_Blobfish_Vector_Assets__Path__2_4_0_Layer0_0_FILL">
<path fill="#FFFFFF" stroke="none" d="
M 1.1 0.55
Q 0.75 0 0.5 0 0.05 0 0 0.85 -0.05 1.45 0.1 2 0.1 2.7 0.4 2.9
L 0.55 2.9
Q 0.65 2.9 0.65 2.8 0.8 2.8 1.35 3.9
L 2.35 5.6
Q 3.25 7 4.85 8.6 5.75 9.5 5.95 10
L 6.45 11.4
Q 6.6 11.9 6.85 13.05 7.15 14 7.65 14.5 7.95 14.8 7.95 13.6 7.7 12 7.6 11.7 7.5 11.3 7.4 11.3
L 7.25 10.7 7.1 10.3 6.6 8.3
Q 6.15 6.8 5.8 6.3 5.3 5.5 4.3 4.7 2.95 3.45 1.5 1.3 1.25 0.85 1.1 0.55 Z"/>
</g>

<g id="Parts_Heads_Blobfish_Vector_Assets__Path__1_5_0_Layer0_0_FILL">
<path fill="#FFFFFF" stroke="none" d="
M 23.5 3
Q 23.55 2.85 23.55 1.6 23.55 0.7 23.2 0.4 22.8 0 22.3 0 21.65 0 21.3 0.1
L 19.4 0.4
Q 18.6 0.6 18.2 0.85 17.2 0.7 15.8 1.35
L 13.3 2.5
Q 10.6 3.9 8.3 5.4 5.65 7.2 4 8.75 2.25 10.2 1.7 10.75 0.4 12.1 0 13.35 -0.1 13.85 0.1 13.9 0.45 14.2 1.1 13.8 1.75 13.25 2 13.1
L 4.2 11.6
Q 6.3 10.05 8.9 8.6 12.1 6.8 13.8 6
L 16.3 4.85
Q 17.2 4.5 17.9 4
L 21.6 3.5
Q 22.3 3.5 22.6 3.4 23.15 3.4 23.5 3 Z"/>
</g>

<g id="Parts_Heads_Blobfish_Vector_Assets__Path__21_0_Layer0_0_FILL">
<path fill="#FFFFFF" stroke="none" d="
M 9.3 4.2
Q 9.8 3.55 9.55 2.4 9.35 1.3 8.55 0.9 7.4 0.35 5.9 0 4.45 -0.15 3.05 0.3 2.2 0.7 1.7 0.8
L 0.9 1.05
Q 0.4 1.2 0.2 1.4 0 1.55 0.05 2.25 0.05 2.95 0.3 3.1 0.75 3.45 1.4 3.45 1.6 3.45 2.6 3.3 3.4 3.2 4.8 3 5.6 3 7 3.4 7.35 3.55 8.1 3.95 8.75 4.25 9.2 4.3 9.3 4.3 9.3 4.2 Z"/>
</g>

<g id="Parts_Heads_Blobfish_blobbyTop_0_Layer0_1_FILL">
<path fill="#010101" stroke="none" d="
M 109.45 62.3
Q 111.9 60 112.8 57.1 110.65 57.9 108.15 59.7 105.2 61.9 104.5 62.25 100.65 64.25 95.3 59.2 97.2 66.9 104.15 65.2 107 64.5 109.45 62.3
M 105.4 47.15
Q 103.85 46.15 101.9 47.05 99.85 48 98.85 50.3 97.7 52.95 98.55 56.3 100.7 59.6 104.2 57.8 107.8 55.95 107.15 51.1 107.1 48.25 105.4 47.15
M 148.65 45.9
Q 148.2 43 146.8 42.75 145.55 42.5 144.5 44.05 143.45 45.65 143.85 47.25 144.3 49.15 146.8 49.7 147.2 49.35 148.25 48.45 149.05 47.45 148.65 45.9
M 151.45 45.95
Q 150.15 41.6 146.6 34.3 146.75 37.8 151.3 48.8 152.4 52.65 151.1 53.45 149.55 54.5 144.1 51.4 144.5 54.05 146.85 55.9 149.55 58 152.1 55.7 153.9 62.2 156.45 66.8 157.45 70.05 154.5 79 152.65 77.1 151.8 76.4 150.45 75.3 148.1 74.8 149.15 69.1 148.25 63.7 147.1 57.1 143.2 53.2 149.05 67 145.55 77 142.5 85.65 134.6 87.55 126.8 89.45 121.35 83.15 115.1 76 116.55 62 115.35 65 115.7 71 116 77.1 117.65 81 108.15 85.85 102.7 91.1 100.75 93 96.95 98.05 95 100.7 92.55 100.85 89.65 101 81.5 98.4 84.6 96.95 89.15 90.05 93.8 83.1 93.05 80.65 86.4 92.5 74.9 97.9 62 103.9 51 97 51.4 96.4 59.9 87.65 65.9 81.45 66.4 76.5 57.7 88.3 52.45 88.4 47.1 88.45 38.3 76.7
L 38.3 76.4
Q 38.1 73.6 37.75 75.9 37.5 77.65 38.5 80.3
L 38.35 80.25
Q 37.9 79.3 35.7 79.05 33.4 78.85 32.8 76 32.35 75.8 33.1 78.7 31.8 78.85 31.05 78.75 29.7 78.5 28.8 76.5
L 28.7 76.2
Q 28.4 76.2 28.55 77.1 28.65 77.95 29.1 79 24.95 80.6 22.6 87.55 20.3 94.2 21.3 100.3 21.5 99.3 21.5 98.7 22.45 113.95 15.8 113.4 12.25 112.55 10.85 112.25 8.4 111.7 8.1 113.7 1.9 109.7 1.35 107.1 0.65 103.55 8.1 99.3
L 8.1 99.4
Q 15 95.25 16.5 82.3 17.1 75.1 17.45 71.55 18.05 65.25 19.3 61.7 19.3 63.35 19.6 62.6 19.6 62.55 20.55 59.5 22.6 52.85 24.9 50.9 25.1 51.2 25.15 51.3 25.2 50.8 25.7 49.9 25.3 52.25 25.65 54.9 25.95 57.35 26.1 51.4 31.1 31 47.65 18.1 62.9 6.3 83.25 4 103.35 1.75 120.4 9.65 138.6 18.15 146.65 35.6 142.6 19.95 129.65 10.7 118.1 2.45 101.55 0.55 86.1 -1.25 70.9 2.9 55.7 7 46.5 15.5 31.5 27.9 23.05 49.3 16.35 66.3 13.55 89.9 12.8 93 8.25 96.05 2.55 99.85 1.35 101.4 -0.85 105.3 0.5 109 1.65 112.25 5.25 114.55 8.6 116.75 12.5 117.25 16.55 117.7 19.2 116 22.4 113.35 22.1 103.6 21.75 92.65 23.7 89.1 27.75 79.1 36.8 82.4 39.9 83.55 44.65 86.7 47.3 88.45 52.2 91.7 48.7 97.35 51.2 100.45 53.35 103.05 59.35 103.5 64.65 103.85 70.9 102.5 76.95 101.2 80 99.2 82.15 101.7 85.55 102.6 87.55 103.15 93.8 103.7 93.3 110.4 98.65 110 103.65 109.6 107.4 104.6 110.5 106 117.9 105.3 125.05 104.65 132.55 102.4 140.5 100 145 96.95 150.1 93.45 149.1 90 152.85 93 156.05 93.1 158.95 93.2 160.25 91.1 161.5 89 160.4 86 159.15 82.65 155.3 79.7 158.45 74.3 157.6 68.55 156.9 63.9 153.1 57.2 153.15 51.5 151.45 45.95
M 112.3 85.4
Q 119 81.35 120.35 85.9 119.5 84.65 109 92.65 98.65 100.5 101.75 101.6 102.95 100.65 107.25 96.45 111 92.9 113.4 91.25 121 86 127 91.2 115.3 94.6 106.15 103.7 95.9 109.3 95.25 105.9 94.7 103.05 100.65 95.95 106.5 88.9 112.3 85.4
M 146.05 81.1
Q 147.2 78.5 147.75 76.1 152.1 78.45 155.3 81.15 160.85 85.8 160.45 89.7 158.3 93 152.55 90.5 145.2 87.25 141.8 88.1 145.45 80.25 151.4 85 152.75 86.1 154.6 87.9 155.6 88.7 155.15 86.3 152.35 81.6 146.05 81.1
M 148.75 90
Q 148.5 90.3 147.5 91.7 135 102.15 109.15 103.1 116.7 96.75 130.15 92.45 143.25 88.3 148.75 90 Z"/>
</g>
</defs>

<g transform="matrix( 1, 0, 0, 1, -62.75,-76.85) ">
<g transform="matrix( 1, 0, 0, 1, 0,0) ">
<use xlink:href="#Parts_Heads_headColorMC_46_Layer1_0_FILL"/>
</g>
</g>

<g transform="matrix( 1, 0, 0, 1, -62.75,-76.85) ">
<g transform="matrix( 1, 0, 0, 1, 0,0) ">
<use xlink:href="#Parts_Heads_headColorMC2_46_Layer3_0_FILL"/>
</g>
</g>

<g transform="matrix( 1, 0, 0, 1, -62.75,-76.85) ">
<g transform="matrix( 1, 0, 0, 1, 0,0) ">
<use xlink:href="#Parts_Heads_headsMC_46_Layer12_0_FILL"/>
</g>

<g transform="matrix( 0.940032958984375, -0.341064453125, 0.341064453125, 0.940032958984375, -32.75,75.3) ">
<g transform="matrix( 1, 0, 0, 1, 143.15,85.75) ">
<g transform="matrix( 1, 0, 0, 1, 0,0) ">
<use filter="url(#Filter_1)" xlink:href="#Parts_Heads_Blobfish_Vector_Assets__Path__1_0_Layer0_0_FILL"/>
</g>
</g>

<g transform="matrix( 1, 0, 0, 1, 145.65,85.25) ">
<g transform="matrix( 1, 0, 0, 1, 0,0) ">
<use filter="url(#Filter_1)" xlink:href="#Parts_Heads_Blobfish_Vector_Assets__Path__6_0_Layer0_0_FILL"/>
</g>
</g>

<g transform="matrix( 1, 0, 0, 1, 150,87.7) ">
<g transform="matrix( 1, 0, 0, 1, 0,0) ">
<use filter="url(#Filter_1)" xlink:href="#Parts_Heads_Blobfish_Vector_Assets__Path__5_0_Layer0_0_FILL"/>
</g>
</g>

<g transform="matrix( 1, 0, 0, 1, 152.55,88.7) ">
<g transform="matrix( 1, 0, 0, 1, 0,0) ">
<use filter="url(#Filter_1)" xlink:href="#Parts_Heads_Blobfish_Vector_Assets__Path__4_0_Layer0_0_FILL"/>
</g>
</g>

<g transform="matrix( 1, 0, 0, 1, 154.95,89.1) ">
<g transform="matrix( 1, 0, 0, 1, 0,0) ">
<use filter="url(#Filter_1)" xlink:href="#Parts_Heads_Blobfish_Vector_Assets__Path__3_0_Layer0_0_FILL"/>
</g>
</g>

<g transform="matrix( 1, 0, 0, 1, 105.6,100.3) ">
<g transform="matrix( 1, 0, 0, 1, 0,0) ">
<use filter="url(#Filter_1)" xlink:href="#Parts_Heads_Blobfish_Vector_Assets__Path__0_Layer0_0_FILL"/>
</g>
</g>

<g transform="matrix( 1, 0, 0, 1, 103.4,103.2) ">
<g transform="matrix( 1, 0, 0, 1, 0,0) ">
<use filter="url(#Filter_1)" xlink:href="#Parts_Heads_Blobfish_Vector_Assets__Path__2_0_Layer0_0_FILL"/>
</g>
</g>

<g transform="matrix( 1, 0, 0, 1, 101.1,103) ">
<g transform="matrix( 1, 0, 0, 1, 0,0) ">
<use filter="url(#Filter_1)" xlink:href="#Parts_Heads_Blobfish_Vector_Assets__Path__1_0_0_Layer0_0_FILL"/>
</g>
</g>

<g transform="matrix( 1, 0, 0, 1, 99,103.7) ">
<g transform="matrix( 1, 0, 0, 1, 0,0) ">
<use filter="url(#Filter_1)" xlink:href="#Parts_Heads_Blobfish_Vector_Assets__Path__2_0_0_Layer0_0_FILL"/>
</g>
</g>

<g transform="matrix( 1, 0, 0, 1, 97,104.6) ">
<g transform="matrix( 1, 0, 0, 1, 0,0) ">
<use filter="url(#Filter_1)" xlink:href="#Parts_Heads_Blobfish_Vector_Assets__Path__0_0_Layer0_0_FILL"/>
</g>
</g>

<g transform="matrix( 1, 0, 0, 1, 99,97.45) ">
<g transform="matrix( 1, 0, 0, 1, 0,0) ">
<use filter="url(#Filter_1)" xlink:href="#Parts_Heads_Blobfish_Vector_Assets__Path__1_1_0_Layer0_0_FILL"/>
</g>
</g>

<g transform="matrix( 1, 0, 0, 1, 100.4,95.05) ">
<g transform="matrix( 1, 0, 0, 1, 0,0) ">
<use filter="url(#Filter_1)" xlink:href="#Parts_Heads_Blobfish_Vector_Assets__Path__7_0_Layer0_0_FILL"/>
</g>
</g>

<g transform="matrix( 1, 0, 0, 1, 102.1,93.65) ">
<g transform="matrix( 1, 0, 0, 1, 0,0) ">
<use filter="url(#Filter_1)" xlink:href="#Parts_Heads_Blobfish_Vector_Assets__Path__8_0_Layer0_0_FILL"/>
</g>
</g>

<g transform="matrix( 1, 0, 0, 1, 103.7,91.95) ">
<g transform="matrix( 1, 0, 0, 1, 0,0) ">
<use filter="url(#Filter_1)" xlink:href="#Parts_Heads_Blobfish_Vector_Assets__Path__1_2_0_Layer0_0_FILL"/>
</g>
</g>

<g transform="matrix( 1, 0, 0, 1, 20.05,2.4) ">
<g transform="matrix( 1, 0, 0, 1, 0,0) ">
<use filter="url(#Filter_1)" xlink:href="#Parts_Heads_Blobfish_Vector_Assets__Path__17_0_Layer0_0_FILL"/>
</g>
</g>

<g transform="matrix( 1, 0, 0, 1, 107.5,89.7) "/>

<g transform="matrix( 1, 0, 0, 1, 110.2,88.75) "/>

<g transform="matrix( 1, 0, 0, 1, 81.5,62.3) ">
<g transform="matrix( 1, 0, 0, 1, 0,0) ">
<use filter="url(#Filter_1)" xlink:href="#Parts_Heads_Blobfish_Vector_Assets__Path__11_0_Layer0_0_FILL"/>
</g>
</g>

<g transform="matrix( 1, 0, 0, 1, 95.5,56.9) ">
<g transform="matrix( 1, 0, 0, 1, 0,0) ">
<use filter="url(#Filter_1)" xlink:href="#Parts_Heads_Blobfish_Vector_Assets__Path__16_0_Layer0_0_FILL"/>
</g>
</g>

<g transform="matrix( 1, 0, 0, 1, 107.75,86.05) ">
<g transform="matrix( 1, 0, 0, 1, 0,0) ">
<use filter="url(#Filter_1)" xlink:href="#Parts_Heads_Blobfish_Vector_Assets__Path__15_0_Layer0_0_FILL"/>
</g>
</g>

<g transform="matrix( 1, 0, 0, 1, 112.5,95.55) ">
<g transform="matrix( 1, 0, 0, 1, 0,0) ">
<use filter="url(#Filter_1)" xlink:href="#Parts_Heads_Blobfish_Vector_Assets__Path__12_0_Layer0_0_FILL"/>
</g>
</g>

<g transform="matrix( 1, 0, 0, 1, 114.8,93.6) ">
<g transform="matrix( 1, 0, 0, 1, 0,0) ">
<use filter="url(#Filter_1)" xlink:href="#Parts_Heads_Blobfish_Vector_Assets__Path__14_0_Layer0_0_FILL"/>
</g>
</g>

<g transform="matrix( 1, 0, 0, 1, 117.4,92.5) ">
<g transform="matrix( 1, 0, 0, 1, 0,0) ">
<use filter="url(#Filter_1)" xlink:href="#Parts_Heads_Blobfish_Vector_Assets__Path__13_0_Layer0_0_FILL"/>
</g>
</g>

<g transform="matrix( 1, 0, 0, 1, 119.8,91.1) ">
<g transform="matrix( 1, 0, 0, 1, 0,0) ">
<use filter="url(#Filter_1)" xlink:href="#Parts_Heads_Blobfish_Vector_Assets__Path__12_0_0_Layer0_0_FILL"/>
</g>
</g>

<g transform="matrix( 1, 0, 0, 1, 122.3,90) ">
<g transform="matrix( 1, 0, 0, 1, 0,0) ">
<use filter="url(#Filter_1)" xlink:href="#Parts_Heads_Blobfish_Vector_Assets__Path__11_0_0_Layer0_0_FILL"/>
</g>
</g>

<g transform="matrix( 1, 0, 0, 1, 124.9,89.9) ">
<g transform="matrix( 1, 0, 0, 1, 0,0) ">
<use filter="url(#Filter_1)" xlink:href="#Parts_Heads_Blobfish_Vector_Assets__Path__10_0_0_Layer0_0_FILL"/>
</g>
</g>

<g transform="matrix( 1, 0, 0, 1, 116.3,83.5) ">
<g transform="matrix( 1, 0, 0, 1, 0,0) ">
<use filter="url(#Filter_1)" xlink:href="#Parts_Heads_Blobfish_Vector_Assets__Path__9_0_0_Layer0_0_FILL"/>
</g>
</g>

<g transform="matrix( 1, 0, 0, 1, 118.4,82.8) ">
<g transform="matrix( 1, 0, 0, 1, 0,0) ">
<use filter="url(#Filter_1)" xlink:href="#Parts_Heads_Blobfish_Vector_Assets__Path__8_0_0_Layer0_0_FILL"/>
</g>
</g>

<g transform="matrix( 1, 0, 0, 1, 148,76.85) ">
<g transform="matrix( 1, 0, 0, 1, 0,0) ">
<use filter="url(#Filter_1)" xlink:href="#Parts_Heads_Blobfish_Vector_Assets__Path__7_0_0_Layer0_0_FILL"/>
</g>
</g>

<g transform="matrix( 1, 0, 0, 1, 150.15,78.3) ">
<g transform="matrix( 1, 0, 0, 1, 0,0) ">
<use filter="url(#Filter_1)" xlink:href="#Parts_Heads_Blobfish_Vector_Assets__Path__6_0_0_Layer0_0_FILL"/>
</g>
</g>

<g transform="matrix( 1, 0, 0, 1, 144.25,52.65) ">
<g transform="matrix( 1, 0, 0, 1, 0,0) ">
<use filter="url(#Filter_1)" xlink:href="#Parts_Heads_Blobfish_Vector_Assets__Path__5_0_0_Layer0_0_FILL"/>
</g>
</g>

<g transform="matrix( 1, 0, 0, 1, 154.7,80.5) ">
<g transform="matrix( 1, 0, 0, 1, 0,0) ">
<use filter="url(#Filter_1)" xlink:href="#Parts_Heads_Blobfish_Vector_Assets__Path__4_0_0_Layer0_0_FILL"/>
</g>
</g>

<g transform="matrix( 1, 0, 0, 1, 156.75,82.65) ">
<g transform="matrix( 1, 0, 0, 1, 0,0) ">
<use filter="url(#Filter_1)" xlink:href="#Parts_Heads_Blobfish_Vector_Assets__Path__3_0_0_Layer0_0_FILL"/>
</g>
</g>

<g transform="matrix( 1, 0, 0, 1, 158.05,84.1) ">
<g transform="matrix( 1, 0, 0, 1, 0,0) ">
<use filter="url(#Filter_1)" xlink:href="#Parts_Heads_Blobfish_Vector_Assets__Path__2_1_0_Layer0_0_FILL"/>
</g>
</g>

<g transform="matrix( 1, 0, 0, 1, 158.95,88.9) ">
<g transform="matrix( 1, 0, 0, 1, 0,0) ">
<use filter="url(#Filter_1)" xlink:href="#Parts_Heads_Blobfish_Vector_Assets__Path__1_3_0_Layer0_0_FILL"/>
</g>
</g>

<g transform="matrix( 1, 0, 0, 1, 53.7,86.85) ">
<g transform="matrix( 1, 0, 0, 1, 0,0) ">
<use filter="url(#Filter_1)" xlink:href="#Parts_Heads_Blobfish_Vector_Assets__Path__18_0_Layer0_0_FILL"/>
</g>
</g>

<g transform="matrix( 1, 0, 0, 1, 63.2,86.35) ">
<g transform="matrix( 1, 0, 0, 1, 0,0) ">
<use filter="url(#Filter_1)" xlink:href="#Parts_Heads_Blobfish_Vector_Assets__Path__5_1_0_Layer0_0_FILL"/>
</g>
</g>

<g transform="matrix( 1, 0, 0, 1, 0.7,60.7) ">
<g transform="matrix( 1, 0, 0, 1, 0,0) ">
<use filter="url(#Filter_1)" xlink:href="#Parts_Heads_Blobfish_Vector_Assets__Path__4_1_0_Layer0_0_FILL"/>
</g>
</g>

<g transform="matrix( 1, 0, 0, 1, 31.35,73.85) "/>

<g transform="matrix( 1, 0, 0, 1, 3.3,67.9) ">
<g transform="matrix( 1, 0, 0, 1, 0,0) ">
<use filter="url(#Filter_1)" xlink:href="#Parts_Heads_Blobfish_Vector_Assets__Path__19_0_Layer0_0_FILL"/>
</g>
</g>

<g transform="matrix( 1, 0, 0, 1, 32.85,9.95) ">
<g transform="matrix( 1, 0, 0, 1, 0,0) ">
<use filter="url(#Filter_1)" xlink:href="#Parts_Heads_Blobfish_Vector_Assets__Path__3_1_0_Layer0_0_FILL"/>
</g>
</g>

<g transform="matrix( 1, 0, 0, 1, 103.65,15.5) ">
<g transform="matrix( 1, 0, 0, 1, 0,0) ">
<use filter="url(#Filter_1)" xlink:href="#Parts_Heads_Blobfish_Vector_Assets__Path__2_3_0_Layer0_0_FILL"/>
</g>
</g>

<g transform="matrix( 1, 0, 0, 1, 114.05,21.5) ">
<g transform="matrix( 1, 0, 0, 1, 0,0) ">
<use filter="url(#Filter_1)" xlink:href="#Parts_Heads_Blobfish_Vector_Assets__Path__1_4_0_Layer0_0_FILL"/>
</g>
</g>

<g transform="matrix( 1, 0, 0, 1, 115.7,53.5) ">
<g transform="matrix( 1, 0, 0, 1, 0,0) ">
<use filter="url(#Filter_1)" xlink:href="#Parts_Heads_Blobfish_Vector_Assets__Path__20_0_Layer0_0_FILL"/>
</g>
</g>

<g transform="matrix( 1, 0, 0, 1, 138.25,26.6) ">
<g transform="matrix( 1, 0, 0, 1, 0,0) ">
<use filter="url(#Filter_1)" xlink:href="#Parts_Heads_Blobfish_Vector_Assets__Path__2_4_0_Layer0_0_FILL"/>
</g>
</g>

<g transform="matrix( 1, 0, 0, 1, 101.85,87.9) ">
<g transform="matrix( 1, 0, 0, 1, 0,0) ">
<use filter="url(#Filter_1)" xlink:href="#Parts_Heads_Blobfish_Vector_Assets__Path__1_5_0_Layer0_0_FILL"/>
</g>
</g>

<g transform="matrix( 1, 0, 0, 1, 144.1,83.3) ">
<g transform="matrix( 1, 0, 0, 1, 0,0) ">
<use filter="url(#Filter_1)" xlink:href="#Parts_Heads_Blobfish_Vector_Assets__Path__21_0_Layer0_0_FILL"/>
</g>
</g>

<g transform="matrix( 1, 0, 0, 1, 0,0) ">
<use xlink:href="#Parts_Heads_Blobfish_blobbyTop_0_Layer0_1_FILL"/>
</g>
</g>

<g id="hat1" transform="matrix( 0.983917236328125, -0.17529296875, 0.17529296875, 0.983917236328125, 45.2,78.25) ">
<g id="colorMC" transform="matrix( 0.9999847412109375, 0, 0, 0.9999847412109375, 0,0) "/>

<g id="colorMC2" transform="matrix( 1, 0, 0, 1, 0,0) "/>
</g>

<g id="hat2" transform="matrix( 0.9733734130859375, -0.2247314453125, 0.2247314453125, 0.9733734130859375, 38,60.6) ">
<g id="colorMC_FL" transform="matrix( 0.9999847412109375, 0, 0, 0.9999847412109375, 0,0) "/>

<g id="colorMC2_FL" transform="matrix( 1, 0, 0, 1, 0,0) "/>
</g>

<g id="hat3" transform="matrix( 0.96026611328125, -0.2753753662109375, 0.2753753662109375, 0.96026611328125, 26,48.4) ">
<g id="colorMC_FL_FL" transform="matrix( 0.9999847412109375, 0, 0, 0.9999847412109375, 0,0) "/>

<g id="colorMC2_FL_FL" transform="matrix( 1, 0, 0, 1, 0,0) "/>
</g>

<g id="hat4" transform="matrix( 0.944580078125, -0.3252410888671875, 0.3252410888671875, 0.944580078125, 18.85,34.5) ">
<g id="colorMC_FL_FL_FL" transform="matrix( 0.9999847412109375, 0, 0, 0.9999847412109375, 0,0) "/>

<g id="colorMC2_FL_FL_FL" transform="matrix( 1, 0, 0, 1, 0,0) "/>
</g>
</g>
</svg>
