
<svg xmlns="http://www.w3.org/2000/svg" version="1.1" xmlns:xlink="http://www.w3.org/1999/xlink" preserveAspectRatio="none" x="0px" y="0px" width="550px" height="400px" viewBox="0 0 550 400">
<defs>
<g id="Parts_Heads_headColorMC_46_Layer1_0_FILL">
<path fill="#D6A08F" stroke="none" d="
M 137.5 108.8
Q 137.15 108.6 136.5 108.7 132.45 109 130.2 110.15 128.45 112.05 123.6 115.7 122.25 116.7 119.55 117.75 116.6 118.85 115.45 119.6 115.35 119.65 115.3 119.55 115.3 120 115.2 120.05 115.05 120 114.4 120.5 114.4 120.6 113.05 121.8 113 121.95 112.3 122.75 109.4 125.35 106.85 129.6 106.4875 130.2 106 130.95 104.648828125 133.3119140625 102.5 137.05
L 103.7 137
Q 104.3 135.95 105.55 135.55 106.85 135.15 107.75 135.9 108.2 136.3 111.5 134.25 113.15 133.15 115.35 131.65 120.35 128.75 121.75 127.85 125.35 125.65 128 123.6 132.6 120.15 134.25 118.5 137.55 115.15 138.1 111.7 138.35 110.35 137.8 109.9
L 137.9 109.05 137.5 108.8
M 96.15 45.25
Q 89.35 42.9 86.1 42.25 81.95 41.3 79.55 41.1 78.85 41.15 77.3 41.05 77.05 41.05 76.2 40.95 75.55 40.85 75.4 41 74.55 41.5 74.2 41.25 73.2 40.55 72.55 40.35 71.55 40 69.75 40.3 67.7 40.75 66.8 40.9 60.2 42.3 55 44.25 49.55 46.25 44.5 49.35 33.8 55.95 28.1 61.05 20.8 67.6 15.55 76.6 13.95 79.6 14 79.7 12.05 84.6 10.95 87.75 11.15 87.95 11.05 88.15 10.75 88.65 10.7 88.85 10.3 90.6 9.85 93.25
L 9.15 97.7
Q 8.95 99 8.15 101.7 7.6 104.1 7.8 105.7 7.8 106.6 7.25 107.4 7.7 110.7 7.5 113.05 7.2 115.3 7 120.45 6.75 125.35 6.4 127.9 7.95 139.05 9.15 143.65 9.7 145.85 10.05 148.6 10.15 150.25 10.45 153.55 11.05 154.05 10.95 154.6 10.9 156.1 10.9 156.9 11.25 157.3 11.15 157.7 11.05 158.65 10.85 159 10.75 159.35 10.35 159.95
L 10.25 160.3
Q 10.1 161.3 8.7 162.05 8 163.95 6.15 167.1 4.1 170.6 3.45 172.05 4.2 172.65 3.9 173.75 2.8 177.5 8.95 179.65 14.7 181.55 18 180.35 20.1 179.7 21.8 178.15 23.6 176.55 24.35 174.55 25.25 172.1 24.4 168.9 24.2 168.05 22.4 163.5 21.45 161.75 21.05 160.85 20.3 159.3 20 158.1 18.9 153.2 19.45 148.5 20.5 140.6 28.25 139.65 31.55 139.25 36.8 140.15 37.6 140.25 45.25 141.8
L 45.35 141.8
Q 46.35 141.6 47.2 142.1 48.2 142.55 48.2 143.5 48.2 143.9 48.15 144
L 48.2 144.3
Q 48.55 145.15 48.1 146.1 47.9 147.15 47.55 149.3 48.5 150.9 49.75 151.6 50.3 151.85 50.5 152.4 60.15 152.15 68.2 146.15 71.5 143.3 73.2 142.25 76.2 140.4 78.9 141.55 79.45 141.75 80.35 141.65 81.15 141.5 81.75 141.2 82.5 141.15 83.6 141.25 84.6 141.35 85.45 141.2 86.5 141.25 88.45 140.4 90.9 139.35 91.45 139.2 91.45 139.1 91.4 138.9
L 91.3 138.1
Q 91.3 137.95 91.75 138.2 92.2 138.4 92.2 138.35 91.9 137.5 92.05 137.15 92.25 136.3 93.55 133.3 94.25 128.85 95.6 126.7
L 97.4 124.25
Q 97.2 123.8 97.3 123.7 97.5 122.6 98.35 121.35 98.35 120.75 98.95 119.7 99.4 119.25 100.15 118.3
L 101.45 116.75
Q 101.95 116.3 102.15 116.2 102.45 116.05 102.85 116.1 106.25 111.65 108.65 113.4 108.9 113.55 109.4 114.5 110.2 114.5 111.15 115.9
L 111.1 115.75
Q 111.1279296875 115.7740234375 111.2 115.75 111.75 115.55 112.55 115.9
L 112.8 116.1 113.05 116.15
Q 113.35 116.15 113.7 116.75
L 116.05 115.55
Q 116.25 115.3 116.95 116.55 117.75 116.1 119.65 115.1 121.45 114.2 122.4 113.6 124.65 112.1 128.95 108.7 128.95 108.3 129.05 108.25
L 131.6 105.65 131.55 105.5
Q 130.1 103.25 130.05 101.4 130.1 100.7 130.7 99.9 131 99.4 131.75 98.5 131.2 96.9 131.7 96.55
L 132.05 96.35 132.25 96.35
Q 132.95 96.95 133.05 97.05 133.2 97.1 135.45 96.8 136.9 96.75 137.85 96.9
L 140 97.45
Q 140 97.05 140.05 96.65 140 95.8 140.3 94.15 140.15 93.35 140 91.6 139.85 89.9 139.7 88.95 138.9 85.45 135.4 82.25 133.15 80.4 132.1 79.3 130.3 77.55 129.85 75.7 129.4 74.95 128.6 72.85 127.9 70.95 127.3 70.1 126.45 68.75 124.65 66.9 121.85 63.95 121.7 63.8 118.5 60.45 116.9 58.75 113.95 55.7 112.65 53.35 111.8 52.85 110 51.55 108.45 50.4 107.25 49.8 103.05 47.75 96.15 45.25 Z"/>
</g>
</defs>

<g transform="matrix( 1, 0, 0, 1, -75.4,-101.9) ">
<g transform="matrix( 1, 0, 0, 1, 0,0) ">
<use xlink:href="#Parts_Heads_headColorMC_46_Layer1_0_FILL"/>
</g>
</g>
</svg>
