
<svg xmlns="http://www.w3.org/2000/svg" version="1.1" xmlns:xlink="http://www.w3.org/1999/xlink" preserveAspectRatio="none" x="0px" y="0px" width="550px" height="400px" viewBox="0 0 550 400">
<defs>
<g id="Parts_Heads_headColorMC2_46_Layer3_0_FILL">
<path fill="#9F4264" stroke="none" d="
M 141.4 98.15
Q 140.6 97.85 140.5 97.5
L 137.95 96.65
Q 135.3 96.05 133.85 96.1 133.75 95.95 133.15 96.1 132.5 96.2 132.35 96.1
L 132.15 96.1 131.8 96.3
Q 131.3 96.65 131.85 98.25 130.65 99.8 130.65 101.65 130.65 103.8 131.65 105.25
L 131.7 105.4 129.15 108
Q 129.05 108.05 129.05 108.45 124.75 111.85 122.5 113.35 121.55 113.95 119.75 114.85 117.85 115.85 117.05 116.3 116.35 115.05 116.15 115.3
L 113.8 116.5
Q 113.45 115.9 113.15 115.9
L 112.9 115.85 112.65 115.65
Q 111.85 115.3 111.3 115.5 111.05 115.6 111.25 116.4 109.9 114.3 109.5 114.25 109 113.3 108.75 113.15 106.35 111.4 102.95 115.85 102.55 115.8 102.25 115.95 102.05 116.05 101.55 116.5
L 100.25 118.05
Q 99.5 119 99.05 119.45 98.45 120.5 98.45 121.1 97.6 122.35 97.4 123.45 97.3 123.55 97.5 124
L 95.7 126.45
Q 94.35 128.6 93.65 133.05 92.35 136.05 92.15 136.9 92 137.25 92.3 138.1 92.15 138.45 92.15 138.6 91.45 137.85 91.5 138.65 91.55 138.85 91.55 138.95 91.85 141.95 93.45 143.65 94.95 145.25 96.75 144.2 97.55 143.75 99.65 141.4 100.8 140.05 102.55 137.45 104 135.05 105.95 131.6 109.55 125.15 112.8 122.2
L 113.05 121.75
Q 113.15 121.75 113.15 121.65 113.8 121.15 115.25 120.45 115.35 120.4 115.35 119.95 115.4 120.05 115.5 120 116.55 119.35 119.6 117.85 122.25 116.6 123.65 115.55 124.8 114.7 127.05 113 128.95 111.5 130.25 110.1 133.5 108.55 136.15 108.3 137.1 108.15 138.85 108.5 139.1 108.45 139.4 108.55 141.6 108.9 142.75 108.9 149.65 108.75 148.65 104.6 148.35 103.65 147 101.5 146.8 101.45 146.4 101.05 145.85 100.5 145.6 100.35 144.3 99.45 143.65 99 142.15 98.45 141.4 98.15 Z"/>
</g>
</defs>

<g transform="matrix( 1, 0, 0, 1, -62.75,-76.85) ">
<g transform="matrix( 1, 0, 0, 1, 0,0) ">
<use xlink:href="#Parts_Heads_headColorMC2_46_Layer3_0_FILL"/>
</g>
</g>
</svg>
