
<svg xmlns="http://www.w3.org/2000/svg" version="1.1" xmlns:xlink="http://www.w3.org/1999/xlink" preserveAspectRatio="none" x="0px" y="0px" width="550px" height="400px" viewBox="0 0 550 400">
<defs>
<g id="Layer0_0_FILL">
<path fill="#000000" stroke="none" d="
M 119.75 81
L 104.4 61.95
Q 93.2 41.75 67.1 41.75 65.15 41.75 60.4 42.9
L 53.9 44.55
Q 57.3 37.75 57.3 28.15 57.3 26.75 55.4 17.6 51.45 20.85 48.1 29.1 46.1 34 43.7 36.45 42.35 34 29.55 22.15
L 28.85 21.5 25.75 17.7 28 20.7
Q 13.4 7.1 10.85 3.75 3.15 -6.3 2.5 -12.75 1.9 -21.85 -1 -26.3 -2.1 -28.05 -2.95 -27.8 -3.8 -27.5 -3.8 -25.1 -3.8 -23.55 -0.8 -9.3 0.3 -3.55 8.5 6.75 15.65 15.7 35.2 33.1 36.6 36.7 36.6 39.5 36.6 41.05 15.95 46.45 15.8 46.45 14.2 45.65 12.35 44.7 11.3 44.35
L 10.75 45
Q 20.05 53.45 24.25 55.85 27.4 57.65 31.35 57.65
L 34.95 57.05 38.2 56 39.1 55.6 31 71.3
Q 23.95 86 23.95 92.2
L 30.05 103.8
Q 36.65 117.35 39.25 127.5 42.05 138.45 49.4 142.45 56.5 146.3 73 146.3 91 146.3 100.1 139.85 108.7 133.75 112.7 119.25 116.3 106.2 121.1 97.1 125 90.75 125 89.95 125 87.9 119.75 81
M 117.55 84.9
Q 121.35 89.75 121.35 90.25 121.35 91.1 120.2 93.15 117.4 98.1 114.9 103.1
L 114.95 101.55
Q 111.9 104.45 109.7 112.3 106.75 123 105.3 126.05 97.45 142.95 70.75 142.95 54.4 142.95 48.45 136.05 46.05 133.3 43.2 127.3
L 37.2 114.9
Q 34.8 110.3 32.15 101.7 29.35 92.65 29.35 88.65
L 31.75 79.35 30.9 79.55
Q 35.45 62.5 47.45 53.7 58.35 45.65 73.7 45.65 86.25 45.65 94.9 54.15 100.6 59.8 102.2 65.3
L 117.55 84.9
M 53.95 28.1
Q 53.95 40.6 48.95 47.5 43.85 54.55 34.25 54.55 32.8 54.55 30.05 53.45 27.35 52.35 21.35 49.35
L 32.15 46.75
Q 37.1 45.4 40.1 43.3 46.85 38.65 52.4 22.65 53.45 23.5 53.8 25.3
L 53.95 28.1
M 103.8 122.35
L 102.05 122.5
Q 97.85 122.5 90.1 121.05
L 82.05 119.4 81.45 119.6
Q 85.45 123.2 91.7 124.65
L 98.3 125.4
Q 100.1 125.4 101.65 124.5 103.1 123.65 103.8 122.35
M 86.9 90.3
Q 89.25 89.75 97.9 86.4 102 84.9 111.8 84.3
L 109 78.8
Q 105.2 74.7 100.1 71.8 90.45 66 77.45 67.5 72.55 68.15 68.3 75.05 62.7 84.4 64.5 99.4
L 65.15 101
Q 65.85 102.3 66.45 102.25 68.85 101.9 75.15 96.9 81.85 91.65 86.9 90.3
M 96.8 74.7
Q 100.55 76.9 100.7 78.4 100.95 80.65 94.95 83.65 88.7 86.9 81.55 87.75 81 87.8 79.65 85.45 78.45 83.1 78.25 81.35 77.85 78.05 80.65 75.2 83.1 72.85 85.45 72.6 91.8 71.8 96.8 74.7
M 101.9 82.05
Q 101.7 81.65 103 80.3
L 106.45 82.5
Q 102.4 82.85 101.9 82.05
M 77.35 76.8
Q 75.3 81.7 75.45 83.3
L 76.35 85.75
Q 77.4 88.4 78.65 89.4
L 73.05 93.6
Q 71.4 94.75 69.8 94.95
L 68.55 94.85
Q 69.55 81.7 72.35 76.15 75 71 79.55 72
L 77.35 76.8
M 95.6 78.2
Q 95.35 76.45 93.6 75.3 91.95 74.2 89.65 74.5 87.35 74.7 85.95 76.25 84.45 77.7 84.65 79.45 84.85 81.3 86.6 82.4 88.4 83.45 90.7 83.2 93 82.95 94.35 81.45 95.85 80 95.6 78.2 Z"/>

<path fill="#FFFFFF" stroke="none" d="
M 75.45 83.3
Q 75.3 81.7 77.35 76.8
L 79.55 72
Q 75 71 72.35 76.15 69.55 81.7 68.55 94.85
L 69.8 94.95
Q 71.4 94.75 73.05 93.6
L 78.65 89.4
Q 77.4 88.4 76.35 85.75
L 75.45 83.3
M 103 80.3
Q 101.7 81.65 101.9 82.05 102.4 82.85 106.45 82.5
L 103 80.3 Z"/>
</g>
</defs>

<g transform="matrix( 1, 0, 0, 1, 0,0) ">
<use xlink:href="#Layer0_0_FILL"/>
</g>
</svg>
