
<svg xmlns="http://www.w3.org/2000/svg" version="1.1" xmlns:xlink="http://www.w3.org/1999/xlink" preserveAspectRatio="none" x="0px" y="0px" width="550px" height="400px" viewBox="0 0 550 400">
<defs>
<g id="Layer0_0_FILL">
<path fill="#000000" fill-opacity="0.25098039215686274" stroke="none" d="
M 117.05 80.45
Q 111.8 74.45 101.2 59.9 90.6 45.3 75.5 42.55 61.05 45.3 54.95 45.3
L 54.95 46.75 54.75 44.25 56 31.95 54.35 18.1
Q 46.2 35.55 43.75 38.25 42.05 40.15 38.85 41.8
L 30.4 45.9 29.75 44.95 28.95 44.75
Q 27.75 44.75 24.8 45.95 21.55 47.25 20.5 48.4
L 22.45 51.4 21.95 51.55
Q 21.7 51.7 21.6 52.2
L 21.65 53 27.55 54.65 38.75 54.65
Q 33.25 71 29.1 78.35 24.95 85.65 25.5 90.2 26.05 94.75 31.6 105.5 37.2 116.2 42.15 128.6 47.1 141 52.6 143.35 58.1 145.65 71.05 146 84 146.3 91.5 143.85 98.95 141.4 109.85 119.1 120.7 96.8 121.45 91.6 122.2 86.4 117.05 80.45
M 94.55 61.55
L 97.8 64.45
Q 100.95 66.8 103.45 69.7 107.15 74.1 108.65 78.8 109.6 80.55 110.15 82.35
L 111.55 86.55 110.05 90.55 108.75 91.05
Q 107.3 96.7 103.1 102.75
L 96.6 112.7
Q 92.45 119.05 89 122.9 79.05 134.05 66.95 134.05 56.7 134.05 46.6 123.9 35.1 112.35 35.1 96.5 35.1 87.4 41.9 75.2 48 64.25 52.1 62.45 54.2 61.5 62.3 59.75 72.55 57.45 79.05 57.45 84.45 57.45 90.95 60.5
L 94.55 61.55
M 53.9 30.75
Q 50.2 44.05 44.4 48.7 39.75 52.4 30.65 52.4
L 28.75 52.15 28.55 50.8
Q 28.35 49.2 30.55 47.65 31.5 46.95 36.4 44.3 47.25 38.4 53.9 30.75 Z"/>
</g>
</defs>

<g transform="matrix( 1, 0, 0, 1, 0,0) ">
<use xlink:href="#Layer0_0_FILL"/>
</g>
</svg>
