
<svg xmlns="http://www.w3.org/2000/svg" version="1.1" xmlns:xlink="http://www.w3.org/1999/xlink" preserveAspectRatio="none" x="0px" y="0px" width="550px" height="400px" viewBox="0 0 550 400">
<defs>
<g id="Layer0_0_FILL">
<path fill="#404040" stroke="none" d="
M 35.3 -33.75
L 35.35 -35.1 30.75 -35
Q 21.9 -35 14.95 -37.25 8.05 -39.45 0.55 -43.7
L -0.05 -44.05
Q -0.35 -43.85 -0.7 -43.7 -8.2 -39.45 -15.05 -37.25 -21.95 -35 -30.75 -35
L -35.3 -35.1 -35.25 -33.75
Q -34.7 -5.4 -27 11.95 -19.25 29.25 -0.85 43.4
L -0.05 44.05 0.7 43.4
Q 19.15 29.3 26.9 11.95 34.7 -5.4 35.3 -33.75
M 14.4 -36.05
Q 21.5 -33.75 30.75 -33.7
L 34.05 -33.8
Q 33.35 -5.15 25.6 11.8 17.8 28.8 -0.05 42.45 -17.9 28.8 -25.65 11.85 -33.4 -5.15 -34 -33.8
L -30.75 -33.7
Q -21.55 -33.75 -14.5 -36.05 -7.45 -38.4 -0.05 -42.6 7.3 -38.4 14.4 -36.05 Z"/>
</g>
</defs>

<g transform="matrix( 1, 0, 0, 1, 0,0) ">
<use xlink:href="#Layer0_0_FILL"/>
</g>
</svg>
