
<svg xmlns="http://www.w3.org/2000/svg" version="1.1" xmlns:xlink="http://www.w3.org/1999/xlink" preserveAspectRatio="none" x="0px" y="0px" width="550px" height="400px" viewBox="0 0 550 400">
<defs>
<radialGradient id="Gradient_1" gradientUnits="userSpaceOnUse" cx="0" cy="0" r="38.45" fx="0" fy="0" gradientTransform="matrix( 1, 0, 0, 1, 0.05,0) " spreadMethod="pad">
<stop  offset="0%" stop-color="#C4C4C4"/>

<stop  offset="100%" stop-color="#FFFFFF"/>
</radialGradient>

<g id="Layer0_0_FILL">
<path fill="url(#Gradient_1)" stroke="none" d="
M 26.2 -27.15
L 22.65 -27.05
Q 15.9 -27.05 11.4 -28.65 6.75 -30.3 1.25 -33.5
L 1.3 -33.45 0.8 -33.75 0.05 -34 -0.7 -33.8 -1.25 -33.5 -1.3 -33.5
Q -6.8 -30.3 -11.4 -28.65 -15.95 -27.05 -22.6 -27.05
L -26.1 -27.15 -26.9 -26.95 -27.5 -26.35 -27.7 -25.55 -27.65 -24.4
Q -27.3 -2.8 -21.65 9.7
L -21.65 9.75
Q -16 22.3 -1.6 33.25
L -1.55 33.3 -0.85 33.8 0.05 34.05 0.95 33.75 1.6 33.25 1.55 33.25
Q 16 22.3 21.7 9.75 27.35 -2.75 27.7 -24.4
L 27.75 -25.55 27.55 -26.35 27 -26.95 26.2 -27.15 Z"/>
</g>
</defs>

<g transform="matrix( 1, 0, 0, 1, 0,0) ">
<use xlink:href="#Layer0_0_FILL"/>
</g>
</svg>
