
<svg xmlns="http://www.w3.org/2000/svg" version="1.1" xmlns:xlink="http://www.w3.org/1999/xlink" preserveAspectRatio="none" x="0px" y="0px" width="550px" height="400px" viewBox="0 0 550 400">
<defs>
<linearGradient id="Gradient_1" gradientUnits="userSpaceOnUse" x1="-22.55" y1="25.225" x2="6.050000000000001" y2="-31.425000000000004" spreadMethod="pad">
<stop  offset="0%" stop-color="#949494"/>

<stop  offset="52.15686274509804%" stop-color="#BDBDBD"/>

<stop  offset="100%" stop-color="#525252"/>
</linearGradient>

<g id="Layer0_0_FILL">
<path fill="url(#Gradient_1)" stroke="none" d="
M 30.75 -34.3
Q 21.8 -34.3 14.8 -36.55 7.8 -38.8 0.25 -43.1
L -0.05 -43.25 -0.4 -43.1
Q -7.95 -38.8 -14.9 -36.55 -21.85 -34.3 -30.75 -34.3
L -34.65 -34.4 -34.65 -33.7
Q -34.1 -5.5 -26.4 11.7 -18.75 28.95 -0.45 43
L -0.05 43.3 0.3 43
Q 18.65 28.95 26.35 11.75 34.05 -5.5 34.65 -33.7
L 34.7 -34.4 30.75 -34.3 Z"/>
</g>
</defs>

<g transform="matrix( 1, 0, 0, 1, 0,0) ">
<use xlink:href="#Layer0_0_FILL"/>
</g>
</svg>
