
<svg xmlns="http://www.w3.org/2000/svg" version="1.1" xmlns:xlink="http://www.w3.org/1999/xlink" preserveAspectRatio="none" x="0px" y="0px" width="550px" height="400px" viewBox="0 0 550 400">
<defs>
<g id="Graphics_Symbol_866_0_Layer2_0_FILL">
<path fill="#666666" stroke="none" d="
M -7.3 25.35
L -3.75 25.35 -3.65 22.9 -7.3 25.35
M -13.95 19.35
L -17.8 19.85 -16.2 25.35 -10.2 25.35 -12.45 23.9 -13.5 25 -15.9 24.9 -13.95 19.35
M 18.35 17.3
L 11.25 24.45 18.8 24.75 18.35 17.3
M -13.85 -14.85
L -11.7 -12.05 -17.8 17.35 -16.3 15.7
Q -11.9 10.5 -10.5 14.25
L -6.15 10.45 -3 15 -11.85 23.2 -0.3 13.75 -1.4 17.55 -1.25 19.2
Q 2.4 13.95 5.25 12.5
L 5.25 14.25 7 13
Q 8.25 13.25 9.75 14.75 3.95 20.85 -1.15 25.3
L 3.15 25.3
Q 6.6 15.65 15.65 12.45
L 15.75 15.05
Q 16.9 13.65 17.7 13.2 16.55 5.2 14.65 -2.65 5.95 -38.35 -13.85 -14.85
M 5.25 25.25
L 6.75 24.75 6.35 24.55 5.25 25.25 Z"/>

<path fill="#FFFF00" stroke="none" d="
M -10.5 14.25
Q -10.5 18.1 -13.95 19.35
L -15.9 24.9 -13.5 25 -12.45 23.9 -11.85 23.2 -3 15 -6.15 10.45 -10.5 14.25
M 17.7 13.2
Q 16.9 13.65 15.75 15.05 14.6 17.55 9.3 24.4
L 10.8 24.9 11.25 24.45 18.35 17.3 19.95 14.65 19.7 12.95 17.7 13.2
M 5.25 14.25
L 5.25 12.5
Q 2.4 13.95 -1.25 19.2 -1.35 21.45 -3.55 22.85
L -3.65 22.9 -3.75 25.35 -1.15 25.3
Q 3.95 20.85 9.75 14.75 8.25 13.25 7 13
L 5.25 14.25 Z"/>

<path fill="#000000" stroke="none" d="
M -11.7 -12.05
L -13.85 -14.85
Q 5.95 -38.35 14.65 -2.65 16.55 5.2 17.7 13.2
L 19.7 12.95
Q 18.85 -10.75 2.4 -25.25 -2.15 -29.25 -6.85 -24.35 -22.1 -8.4 -20.75 14.75
L -20.6 20.2 -22.75 22.5 -21 21.2 -21.45 26.8 21.3 26.9 19.95 14.65 18.35 17.3 18.8 24.75 11.25 24.45 10.8 24.9 9.3 24.4
Q 14.6 17.55 15.75 15.05
L 15.65 12.45
Q 6.6 15.65 3.15 25.3
L -1.15 25.3 -3.75 25.35 -7.3 25.35 -3.65 22.9 -3.55 22.85
Q -1.35 21.45 -1.25 19.2
L -1.4 17.55 -0.3 13.75 -11.85 23.2 -12.45 23.9 -10.2 25.35 -16.2 25.35 -17.8 19.85 -13.95 19.35
Q -10.5 18.1 -10.5 14.25 -11.9 10.5 -16.3 15.7
L -17.8 17.35 -11.7 -12.05
M 6.75 24.75
L 5.25 25.25 6.35 24.55 6.75 24.75 Z"/>
</g>

<g id="Graphics_Symbol_866_0_Layer1_0_FILL">
<path fill="#000000" fill-opacity="0.25098039215686274" stroke="none" d="
M 20.5 25.75
L 21.4 23.55
Q 18.95 1.6 7.05 -16.65 -6.15 -36.9 -14.3 -14.65 -22.95 8.95 -11.05 25.4 -10.15 26.65 -8.35 26.55
L 0.15 26.9 -2.2 26.5 14.25 25 11.05 26.4 20.5 25.75
M 11.4 10.75
Q 11.55 13.65 12 16.5 5.6 18.55 -1.3 17.5
L -6.9 16.65
Q -8.45 16.1 -9.5 14.7 -12.55 6.4 -10.65 -1.7 -7.6 -14.7 1.75 -20.5 10.5 -6.8 11.4 10.75 Z"/>
</g>

<g id="Graphics_Symbol_866_0_Layer0_0_FILL">
<path fill="#FFFFFF" fill-opacity="0.25098039215686274" stroke="none" d="
M 6.95 -11.4
Q 4.25 -22.25 2.5 -22.25
L 0.5 -22
Q 1.1 -20.2 -0.1 -19.6 -1.5 -18.9 -1.5 -17.35 -1.5 -15.25 3.9 -4.9 9.2 5.15 10.75 6.5
L 11.5 5.25
Q 10.5 2.8 6.95 -11.4 Z"/>
</g>
</defs>

<g transform="matrix( 1, 0, 0, 1, 0,0) ">
<g id="anim" transform="matrix( 1.9241943359375, 0, 0, 1.9241943359375, 1.3,0.15) ">
<g transform="matrix( 1, 0, 0, 1, 0,0) ">
<g transform="matrix( 1, 0, 0, 1, 0,0) ">
<use xlink:href="#Graphics_Symbol_866_0_Layer2_0_FILL"/>
</g>

<g transform="matrix( 1, 0, 0, 1, 0,0) ">
<use xlink:href="#Graphics_Symbol_866_0_Layer1_0_FILL"/>
</g>

<g transform="matrix( 1, 0, 0, 1, 0,0) ">
<use xlink:href="#Graphics_Symbol_866_0_Layer0_0_FILL"/>
</g>
</g>
</g>
</g>
</svg>
