
<svg xmlns="http://www.w3.org/2000/svg" version="1.1" xmlns:xlink="http://www.w3.org/1999/xlink" preserveAspectRatio="none" x="0px" y="0px" width="550px" height="400px" viewBox="0 0 550 400">
<defs>
<filter id="Filter_1" x="-20%" y="-20%" width="140%" height="140%" color-interpolation-filters="sRGB">
<feColorMatrix in="SourceGraphic" type="matrix" values="0 0 0 0 0 0 0 0 0 1 0 0 0 0 0 0 0 0 1 0" result="result1"/>
</filter>

<g id="UI_Pages_Levels_In_Game_Effects_SpeedBurst_SpeedBurstStar_0_Layer0_0_FILL">
<path fill="#999999" stroke="none" d="
M 2.95 -2.9
Q 0.25 -5.55 0 -9.2
L -0.05 -9.2
Q -0.3 -5.55 -2.9 -2.9 -5.6 -0.25 -9.25 0
L -9.25 0.05
Q -5.6 0.3 -2.9 2.95 -0.3 5.6 -0.05 9.25
L 0 9.25
Q 0.25 5.6 2.95 2.95 5.55 0.3 9.25 0.05
L 9.25 0
Q 5.55 -0.25 2.95 -2.9 Z"/>
</g>
</defs>

<g transform="matrix( 1, 0, 0, 1, 0,0) ">
<g id="var_685" transform="matrix( 1.0810699462890625, 0, 0, 1.0785980224609375, 0,-0.05) ">
<g transform="matrix( 1, 0, 0, 1, 0,0) ">
<use filter="url(#Filter_1)" xlink:href="#UI_Pages_Levels_In_Game_Effects_SpeedBurst_SpeedBurstStar_0_Layer0_0_FILL"/>
</g>
</g>
</g>
</svg>
