
<svg xmlns="http://www.w3.org/2000/svg" version="1.1" xmlns:xlink="http://www.w3.org/1999/xlink" preserveAspectRatio="none" x="0px" y="0px" width="550px" height="400px" viewBox="0 0 550 400">
<defs>
<g id="Layer0_0_FILL">
<path fill="#000000" fill-opacity="0.24705882352941178" stroke="none" d="
M 26.35 23.2
Q 26.05 23.1 25.65 23.2 21.95 20.85 17.75 19.15 13.65 17.5 9.3 17.1 7.1 16.9 4.85 17.1 2.55 17.2 0.55 18.4 -0.05 18.9 0 20.3 0.05 21.75 0.85 21.9 1.55 22.05 2.95 21.85 5.05 21.5 5.2 21.5 7.3 21.3 9.4 21.5 13.95 21.9 17.95 23.5
L 18.2 23.65
Q 15.55 23.75 13 24.1 10.15 24.55 6.45 24.65 4.9 24.65 4.1 24.5 2.8 24.3 2.05 23.55 1.9 23.3 1.6 23.3
L 1.5 23.3
Q 0.9 23.5 0.8 24.55 0.55 28.2 4.1 29.3 6.5 30.05 10.5 29.55 11 29.5 14 29.1 16.1 28.8 17.5 28.75 19.25 28.6 20.95 28.75 21.75 28.85 23.3 29.1
L 24.2 29.6
Q 25.55 30.25 26.95 30.45 30.55 31.15 32.2 31.4
L 32.5 31.25 32.6 31.25 32.9 31.15 33.05 31.25
Q 33.5 31.5 33.75 31.05 34.1 31.4 34.5 30.95 35.3 29.6 34.75 28.15 32.65 21.35 30.85 17.4 28.15 11.6 24.5 7.95 20.85 4.35 16.1 2.15 13.75 1.15 11.5 0.55 7.8 -0.45 6.5 0.55 5.8 1.5 6.45 2.4 7.15 3.1 8.55 3.55 9.35 3.8 10.9 4.15 13.5 4.95 15.4 5.85 19.95 8.05 23.5 11.6 26.1 14.25 28.2 18.05 29.75 20.9 31.5 25.3
L 28.95 24
Q 27.8 23.5 26.35 23.2 Z"/>
</g>
</defs>

<g transform="matrix( 1, 0, 0, 1, 0,0) ">
<use xlink:href="#Layer0_0_FILL"/>
</g>
</svg>
