
<svg xmlns="http://www.w3.org/2000/svg" version="1.1" xmlns:xlink="http://www.w3.org/1999/xlink" preserveAspectRatio="none" x="0px" y="0px" width="550px" height="400px" viewBox="0 0 550 400">
<defs>
<g id="Layer0_0_FILL">
<path fill="#FFFFFF" stroke="none" d="
M 31.6 16.05
Q 31.7 11.8 29.95 5.7 29.3 3.2 28.5 1.2 27.65 -0.9 27.85 0.5 29.3 12.1 28.35 18.15 26.65 28.75 18.25 30.3 14.95 31 11.7 29.95 8.6 28.9 6.15 26.4 2.75 23 1.95 18.6 1.2 14.8 2.35 9.7 2.45 9.5 2.25 8.55 2 7.55 1.75 7.9 -0.1 10 0 15.75 0.05 20.65 1.15 23.8 3.05 29.2 6.3 32.55 10.1 36.4 15.15 36.8 20.4 37.25 24.4 34.35 28.35 31.5 29.65 26.4 31.45 19.7 31.6 16.05 Z"/>
</g>
</defs>

<g transform="matrix( 1, 0, 0, 1, 0,0) ">
<use xlink:href="#Layer0_0_FILL"/>
</g>
</svg>
