
<svg xmlns="http://www.w3.org/2000/svg" version="1.1" xmlns:xlink="http://www.w3.org/1999/xlink" preserveAspectRatio="none" x="0px" y="0px" width="550px" height="400px" viewBox="0 0 550 400">
<defs>
<g id="Layer0_0_FILL">
<path fill="#000000" stroke="none" d="
M 74.9 21.3
Q 74.3 18.7 72.85 16.4 72.1 15.25 71.35 14.55 70.1 13.45 69.3 13.95 68.95 14.2 68.8 15.8 65.85 9.25 59.4 6.2 55.15 4.25 48.9 5 41.75 6.4 38.3 6.95 32.7 8.05 27.3 6.35 25.2 5.65 21.95 4 18.05 2 16.7 1.45 13.5 0.15 10.7 0 7.35 -0.15 4.85 1.5 2.95 2.75 1.8 4.75 0.7 6.75 0.7 9.05
L 0.4 9
Q 0 8.9 0 10.9 -0.05 12.9 0.4 13.2
L 1.6 14.15
Q 1.75 16.25 2.4 18.1 2.85 19.75 4 21.2 4.2 21.4 5.05 22.35 5.85 23.15 6.15 23.05 6.3 23.05 6.35 22.9
L 7.4 26.4 7.85 29.3 7.75 29.5
Q 7.2 31.85 7.65 34.05 7.8 35.45 8.45 36.5
L 8.95 37.05
Q 9.15 37.3 9.6 37.5 9.85 37.55 10.25 37.45
L 10.8 37.5
Q 13.25 41.15 17.55 43.45 21.45 45.55 26.25 46.2 33.2 46.8 40.1 46.2 44.2 45.95 46.3 45.55 49.75 44.85 52.1 43.3 54.3 41.85 55.55 39.45 58.3 40.35 60.7 40.75 62.8 41 64.85 40.6 64.95 41 65.2 41.35 66.1 42.25 67.35 42 68.55 41.7 69.45 40.85 71.15 39.4 71.7 37.2 71.95 36.95 73.2 36.1 74.2 35.35 74.5 34.85 76 32.15 75.9 28.2 75.8 25.5 74.9 21.3
M 71.05 21.95
L 70.85 21.25
Q 72.8 23.2 73.75 25.85
L 73.3 27.2 73.05 26
Q 72.65 24.4 72.05 23.3 71.75 22.7 71.3 22.25
L 71.05 21.95
M 61.6 13.6
Q 65.6 16.1 67.8 20.25 70.4 24.95 70.95 30.45
L 71 30.7
Q 68 33.55 64.05 34.3 63.55 34.45 59.9 34.95
L 59.4 35
Q 59.4 34.9 59.25 32.35 58.95 28.95 57.95 26.05 56 20.65 51.6 17.25 46.75 13.7 40.7 13.55 35.65 13.35 29.7 17.1 28.2 17.5 27.1 18.65 26.7 19.1 26.75 20.7 26.8 22.3 27.3 22.6 28.75 23.5 30.35 23.2 31.5 23.05 33.6 22.95 36.45 22.8 39.7 23.05 45.25 23.35 50.15 26 52.3 27.25 53.95 29.4 54.7 30.4 55.1 31.35 55.3 31.8 55.6 32.85
L 55.55 33.05
Q 55.55 33.15 55.25 34
L 54.9 34.7 54.65 34.6
Q 53.35 35.2 52.05 36.15 50.35 37.05 48.65 37.4 44.9 38.25 40.95 37.85 33.6 37.65 25.6 36.05 18.7 34.6 13.45 30.15 9.3 26.2 7.8 20.95 7.45 18.7 6.75 16.4 6.15 14.6 5.15 12.9
L 4.2 11.05 4.3 10.75
Q 4.5 10.3 4.9 9.8
L 6.35 9.1
Q 8.7 8 11.35 7.55 13.8 7.2 16.35 7.8 18.75 8.4 20.7 10.05 20.95 10.2 21.15 9.5 23.55 10.8 24.8 11.35 29.15 13.45 34.15 13.45 37.15 13.4 43.5 12.1 49.55 10.9 52.85 10.95 57.55 11.1 61.6 13.6
M 57.65 33.2
Q 57.85 34 57.85 34.35
L 57.85 35.2 56.8 35.3 56.9 33.6
Q 56.9 31.95 56.7 30.55 57.4 32 57.65 33.2 Z"/>
</g>
</defs>

<g transform="matrix( 1, 0, 0, 1, 0,0) ">
<use xlink:href="#Layer0_0_FILL"/>
</g>
</svg>
