
<svg xmlns="http://www.w3.org/2000/svg" version="1.1" xmlns:xlink="http://www.w3.org/1999/xlink" preserveAspectRatio="none" x="0px" y="0px" width="550px" height="400px" viewBox="0 0 550 400">
<defs>
<g id="MovieClips_Symbol_228_14_Layer1_0_FILL">
<path fill="#CCCCCC" stroke="none" d="
M 31.15 -28
Q 23.5 -32.55 10.05 -32.55 -2.4 -32.55 -10.7 -15.7 -19.65 2.5 -19.65 32.9 -19.65 33.8 -18.15 34.5 -16 35.6 -11.35 35.6
L -5.45 35.45
Q -6.45 30.4 -2.65 26.2 1.05 22.05 6.2 22.05 8.9 22.05 11.9 23 14.4 23.8 15.8 24.75 16.05 23 18.05 20.85 20.4 18.4 22.95 18.4 28.5 18.4 30.15 24 34.5 13.9 41.4 13.9
L 43.9 14.7
Q 46.55 15.65 48 16.9
L 47.7 15.8
Q 46.35 11.2 44.5 -0.85 42.95 -11.3 40.8 -16.45 37.65 -24.2 31.15 -28 Z"/>
</g>
</defs>

<g transform="matrix( 1, 0, 0, 1, -28.15,-10.5) ">
<g transform="matrix( 1, 0, 0, 1, 0,0) ">
<use xlink:href="#MovieClips_Symbol_228_14_Layer1_0_FILL"/>
</g>
</g>
</svg>
