
<svg xmlns="http://www.w3.org/2000/svg" version="1.1" xmlns:xlink="http://www.w3.org/1999/xlink" preserveAspectRatio="none" x="0px" y="0px" width="550px" height="400px" viewBox="0 0 550 400">
<defs>
<g id="Layer0_0_FILL">
<path fill="#010101" stroke="none" d="
M 0.2 0
Q 0 0.05 0 0.25
L 0.05 1.85
Q 0.3 2.65 0.4 2.75
L 0.55 3.15
Q 0.6 3.2 0.65 3.35 0.7 3.4 0.75 3.35 0.85 3.35 0.85 2.95 0.75 2.45 0.65 2.35 0.65 2.25 0.5 1.95 0.4 1.85 0.4 1.65 0.4 1.55 0.3 1.55
L 0.3 0.7 0.4 0.5
Q 0.4 0.4 0.5 0.4
L 0.5 0.3
Q 0.5 0.2 0.4 0.2
L 0.3 0 0.2 0 Z"/>
</g>
</defs>

<g transform="matrix( 1, 0, 0, 1, 0,0) ">
<use xlink:href="#Layer0_0_FILL"/>
</g>
</svg>
