
<svg xmlns="http://www.w3.org/2000/svg" version="1.1" xmlns:xlink="http://www.w3.org/1999/xlink" preserveAspectRatio="none" x="0px" y="0px" width="550px" height="400px" viewBox="0 0 550 400">
<defs>
<g id="Graphics_Symbol_786_0_Layer0_0_FILL">
<path fill="#FFFFFF" stroke="none" d="
M 88.75 69.3
Q 88.45 67.3 87.35 66.6 84.85 63.85 81.7 64.55
L 76.25 66.4
Q 75.55 66.55 74.55 67.5
L 73.05 68.85
Q 72.8 68.4 72.2 68.4 71.4 68.4 71 71.5
L 70.75 74.8 72.1 79.45
Q 73.95 84.1 76.3 84.1 84.2 84.1 87.25 78.95 88.85 76.15 88.85 72.25
L 88.75 69.3 Z"/>
</g>

<g id="Graphics_Symbol_832_0_Layer2_0_FILL">
<path fill="#999999" stroke="none" d="
M 106.65 61.85
L 105.3 60 106.75 64 106.65 61.85 Z"/>

<path fill="#000000" stroke="none" d="
M 220 46.25
L 220.2 42.9
Q 220.2 30.85 211.7 30.85 204.5 30.85 198.25 37.7 192.9 43.6 192.9 47.65 192.9 53.05 196.5 61.15 200.05 69.2 200.05 73.85 200.05 81.15 190.35 87.8 180.15 94.85 167.6 94.85 156.75 94.85 151.3 91.3 145.8 86.4 140.55 83.75 138.15 82.5 132.95 81.7 126.75 80.75 124.1 79.85 113 76.25 106.65 61.85
L 106.75 64 105.3 60 98.05 46.45
Q 95.7 42.4 91.2 40.2 72.7 31.1 63.15 28.25 53.5 25.3 41.8 25.3 23.05 25.3 13.1 33.35 4.45 40.35 4.45 51.45 4.45 53.8 5.05 55.85 5.2 56.9 3.25 57.45 -8.4 59.7 -29.35 66.25 -39.2 69.35 -44.35 79.45 -48.75 88 -48.75 98.9 -48.75 123.35 -42.65 141.7 -34.5 166.1 -15.4 181
L -18.75 177.1
Q -9.1 186.9 26.5 197.55 44.3 202.9 60.25 206.3 67.25 206.3 71.35 202.15 75 198.5 75 193.3 75 191.65 74.5 190.3 73.95 188.85 73.2 188.85 72.4 188.85 72.2 189.1 71.9 189.45 71.1 191.35 71.55 184.1 66.3 171.35 61.9 160.7 56.25 152.1 65.3 154.35 83.75 146.55 101.3 139.2 104.3 133.6
L 104.8 134.35
Q 105.45 135.05 106.05 135.05 112.55 135.05 119.7 132.45 126.9 129.85 126.9 127.4 126.9 126.5 126.3 125.8 125.3 124.7 122.5 123.5
L 133 125.25 147.35 126.35
Q 148.45 126.35 150.5 125.2 152.5 124.05 153.2 124.05
L 162.9 125.65
Q 184.45 125.65 201.85 103.85 208.9 95.05 213.1 84.95 217.15 75.25 217.15 68.05 214.6 59 214.6 57
L 219.3 50.8 220 46.25
M 206.4 35.85
Q 210.05 33.7 211.25 33.7 213.9 33.7 214.8 35.95 216 38.9 216 48.2 216 50.4 215.3 52.55
L 211.5 51.25
Q 211.9 56.3 212.2 57.35
L 210.6 57.45 203.8 56.9
Q 200.9 56.85 200.5 59.35 198.85 54.85 198.35 52.85 197.65 50.2 197.65 47.65
L 198.5 42.7 202 46.35
Q 203.15 47.2 204.7 47.2 206.6 47.05 207.05 46.1 207.9 44.25 199.85 40.4 202.95 37.95 206.4 35.85
M 199.35 90.15
Q 197.9 88 196.15 88.2 199.15 86.2 201.5 81.5 203.2 78.1 203.4 76.55 204.45 77.05 206.45 77.75
L 208.4 78.35
Q 210.6 78.35 210.6 76.35 210.6 74.75 207.65 74.35 204.2 73.9 203.65 73.2 203.5 71.4 200.7 59.9 201.6 60.4 203.85 61.1
L 206.95 61.8
Q 208.65 61.8 212.35 60.05
L 212.5 63.75
Q 212.5 86.5 195.45 104.75 187.85 112.9 178.75 117.5 169.45 122.25 160.7 122.25
L 151.75 121.2
Q 143.9 119.9 133.35 119.3 123.25 118.7 109.8 113.85 98.25 109.15 97.4 109.15
L 96.1 109.4 94.7 109.75 95.15 109.9 95.9 110.4 95.1 110.6
Q 94.8 110.6 94.8 111.2 94.8 114.55 103.1 120 112.4 126.1 122.3 127.15
L 118.4 128.2 111.45 128.9 105.7 128.65 100.15 128.3 100.85 129.55 101.05 130.6
Q 101.05 133.65 93.85 138.4
L 84.25 143.85
Q 81.7 145.15 73.85 146.95 65.65 148.85 61.9 148.85 55.45 148.85 52.15 145 48.85 141.15 48.85 133.65 48.85 131.45 49.85 127.75 50.85 124.05 50.85 122.85
L 49.6 120.9
Q 48.3 118.8 48.3 117.15
L 48.85 114.3
Q 49.15 112.4 47.9 111.25 46.2 111.75 44.65 113.95 43.1 116.2 43.6 117.6
L 39.5 116.9
Q 40.75 119.8 42.9 122.7 44.45 125.45 44.7 130.65 44.95 136.35 47.15 140.05 49.25 143.6 49.25 145.85
L 49.05 149.35 49.4 149.55
Q 51.65 150.15 57.95 161.65 63.15 171.2 65.9 183.15 67.7 191 67.7 194.85 67.7 197.15 67.3 198.1 66.85 199.1 65.8 199.4
L 69.3 199.05 65.5 201.25 62.35 202.3 59.1 201.95 63.25 200
Q 60.65 200.9 59 200.9 39.15 200.9 20.8 194.8 1.6 188.4 -12.95 176.35 -46.15 148.8 -46.15 101.8 -46.15 83.9 -36.85 76.05 -33.45 73.2 -28.05 71.05
L -19 67.85
Q -10.4 64.65 7.55 60.4 23.2 56.75 24.2 55.95 23.4 60.25 21.6 66.8 20.25 71.7 20.25 73.75 20.25 74.2 20.8 74.9 21.4 75.75 22.35 76.45
L 22.9 75.9
Q 22.7 69 26.6 59.45
L 30.5 51.2 30.35 50.4 30.05 50.3 29.2 50.9
Q 33.25 44.75 44.1 40.1 54.3 35.75 62.55 35.75 69.15 35.75 74.95 37.4
L 84.35 40.25
Q 82.95 41.75 82.95 42.2 82.95 43.2 83.25 43.65 88.75 42.5 93.25 45.6 97.8 48.75 100.25 55.5 102.9 62.9 106.4 69.1 112.4 79.65 118.65 82.2
L 134.7 86.65
Q 135.7 86.65 136.3 86
L 136.35 86.15 132.85 96.65 129.45 107
Q 129.45 108 130.4 108.45 133.55 107.9 135.05 103.95 136.7 99.75 137.95 88.2
L 139.2 88.45
Q 139.75 88.35 140.45 87.75
L 150.55 94
Q 148.85 97.65 148.8 102.8 148.8 105.5 149.1 108.4
L 150.5 108.7
Q 152.65 108.3 153.45 105.3 154.05 102.9 154.35 95.9 157.05 97 158.6 98.3 160.55 99.1 169.4 99.1
L 172.6 98.75
Q 172.8 104.6 173.4 106.5 173.8 107.8 174.8 107.8 177.4 107.8 177.4 104.4 177.4 102.4 177.05 100.65 176.7 98.6 176.1 98.05 181.4 96.35 186.85 93.2 191.1 90.7 192.6 90.7
L 195.4 92.25
Q 197.9 93.75 199.5 93.75
L 200.35 93.55 200.55 93.2
Q 200.55 91.9 199.35 90.15
M 16.7 35.65
Q 23.15 31.25 31.65 31.25
L 61.3 31.7
Q 47 33.95 39.3 38.25 34.2 41.1 30.4 46.25 26.35 51.7 24.05 53.15 19.4 56.2 9.7 56.55
L 8.9 50.7
Q 8.9 41 16.7 35.65
M 86.3 83.1
Q 89.9 79.65 91.15 75 92.45 70.05 90.15 66.85 87.5 63.15 80.7 63.15 76.95 63.15 73.15 65.6 69.35 68 68.15 73.8 66.95 79.55 71.7 83.2 76.45 86.8 78.1 86.8 82.4 86.8 86.3 83.1
M 82 66.65
Q 84.6 66.65 86.8 68.8 88.85 70.85 88.1 72.25 85 70.95 81.35 72.1 77 73.5 77 77.8
L 78.6 79.2 81.5 81.35
Q 79.35 82.85 77.5 83 75.65 83.15 73.35 79.35 71.05 75.5 72.1 73.05 73.1 70.6 74.75 68.4 76.35 66.15 75.8 68.65
L 79.1 67.5 82 66.65
M 211.15 42.7
Q 211.8 41.6 211.8 40.1 211.8 38.6 211.15 37.55 210.5 36.45 209.55 36.45 208.6 36.45 207.95 37.55 207.3 38.6 207.3 40.1 207.3 41.6 207.95 42.7 208.6 43.75 209.55 43.75 210.5 43.75 211.15 42.7 Z"/>
</g>

<g id="Graphics_Symbol_832_0_Layer1_0_FILL">
<path fill="#000000" fill-opacity="0.25098039215686274" stroke="none" d="
M 52.55 111.05
Q 49.95 107.4 46.25 106.85 42.5 106.25 39.95 109.3 37.1 112.7 37.1 119.4 37.1 127.1 42.8 137.75 45.15 142.2 58.65 163.65
L 59.2 163.15 60.05 162.3
Q 59.8 159.25 57.4 156.4 54.55 152.9 53.55 149.9 55.9 152.3 63.15 152.3 73.35 152.3 88.55 143.5
L 98.7 137.15
Q 103.6 133.95 104.8 133.55 112.45 130.9 120.85 128.9 124.75 127.95 124.75 126.85 124.75 125.9 121.15 124.85
L 107.2 120.8
Q 104.55 120 100.55 117.1
L 95.95 113.5 95.35 114.05
Q 99 119.25 105.6 122.8
L 111.3 125.75
Q 111.3 126.75 111.1 126.2
L 110.65 126.5 109.8 126.6 107.45 125.35
Q 104.75 124.05 102.35 124.05 100.7 124.05 97.9 126.85
L 91.65 132.95
Q 81.5 141.85 67.6 141.85 61.65 141.85 58.15 139.55 54.05 136.85 54.05 131.2
L 54.75 128.8
Q 55.4 125.55 55.4 120.85 55.4 115 52.55 111.05
M 217.25 53.4
L 217.4 53.35 217.35 52.7
Q 217.5 51.75 217.15 50.9 216.5 49.25 214.2 49.25 211.8 49.25 209.9 51.1 207.8 53.2 207.8 56.6 207.8 58.25 209.35 66.25
L 210.85 75.1
Q 210.85 79.6 207.1 86.3 202.25 94.95 193.3 102.15 183.3 110.2 173.55 112.9 167.05 114.65 156.2 114.65 142 114.65 121.85 108.85
L 104.4 103.05
Q 101.8 103.05 100.05 104.2 98.35 105.3 98.35 106.85 98.35 112.8 106 116 110.7 118 122.6 120.05
L 134.6 122.7 147.1 124.7
Q 148.95 123.65 153.75 124.15
L 158.45 125.05
Q 168.25 124.35 177.7 120.05 189 114.9 203.8 96.45 214.05 83.55 216.6 67.35 216.35 66.9 216.25 66.2
L 216.05 63.4 215.2 61.05
Q 214.6 59.5 214.6 58.55 214.6 57.6 214.95 56.85 215.3 54.2 217.25 53.4
M 212.4 76.05
L 212.4 76.3
Q 212.15 78.05 211.7 79.2
L 212.4 76.05
M 216.35 33
Q 215.05 31.25 212 31.25 206.8 31.25 200.6 35.85 193.1 41.5 193.1 49.45 193.1 54.1 197.45 62.35 201.75 70.55 201.65 76.05 201.5 81.5 187.8 89.8 174.05 98.1 170.25 97 166.45 95.9 161.9 96.2 157.3 96.45 150.75 92.4 144.2 88.35 135.05 85.75 125.85 83.1 117.95 78.85 110.05 74.55 103.35 59.85 96.6 45.1 94.15 42.6 91.65 40.05 87.7 40.05
L 86.5 40.45 84.95 41.1 84.55 40.45
Q 85.1 39.6 84.65 38.5 84.25 37.55 83.8 37.55
L 79.9 36.25
Q 76.1 34.9 73.3 34.9
L 69.75 35.15 65 35.7 66.2 34.35 66.5 33.25
Q 66.3 32.35 64.95 31.45 62.3 29.6 56.6 29.6 48.35 29.6 46.3 27.7 44.2 25.8 39.15 25.8 24.85 25.8 14.6 33.45 5.2 40.5 5.2 48.7 5.2 53.75 8.95 58.65
L -10.15 62
Q -21.5 64.1 -28.1 67 -46.6 75.1 -46.6 97.6
L -46.2 107.15
Q -45.85 117.45 -46.2 124.75 -46.65 134.35 -40.45 145.25 -37.35 150.7 -34 154.65 -31.3 161.25 -18.75 173.75 -6.15 186.3 -1.95 186.3
L -0.5 185.95 -0.5 187
Q 23.25 195.55 27.7 197.35 44.05 203.85 55.95 203.85 61.1 203.85 65.45 201.95 69.15 200.35 69.15 199.2 69.15 197.85 67.55 197.65
L 61.7 197.6
Q 48.85 197.25 31.55 191.2 0.4 180.3 -10.7 173.85 -18.1 169.5 -22.7 162.45 -28 154.2 -33.75 136.85 -40.5 116.6 -40.5 103.15 -40.5 90.45 -28.05 82.15 -16.6 74.55 7.55 69.35 10 78.25 13.5 84.3 17.25 90.65 20.35 90.65 21.6 90.65 22.5 90.1 23.4 89.5 23.4 88.75 23.4 88.1 22.95 87.85 22.3 87.6 21.95 87.35 20.45 86.2 20.45 81.45 20.45 78.8 23.4 73 26.85 66.3 32.05 60.35 46.5 43.85 64.55 43.85 79.4 43.85 84.45 49 85.85 50.45 88.55 54.8 91.35 59.25 93.95 62.1 100.7 69.4 102.05 71.3 103.2 72.95 105.4 78.5 107.1 82.8 116 88.75 126.05 95.4 136.4 97.3 139.6 97.9 152.75 101.4 161.2 103.65 168.6 103.65 184.4 103.65 196.55 91.3 201.5 86.25 204.45 80.4 207.25 74.75 207.25 70.3 207.25 64.7 204.9 57.35 202.55 50 202.55 47 202.55 39.85 209.85 38.6
L 214.85 37.85
Q 217.15 37.3 217.15 35.6 217.15 34.1 216.35 33
M 20.5 38.2
Q 27.15 32.3 38.5 32.5 35.75 35.6 23.75 45.9 16.8 51.85 16.8 56.55
L 17 58.2
Q 16.5 57.2 15.6 53.65
L 14.8 50.15
Q 14.8 43.3 20.5 38.2 Z"/>
</g>

<g id="Graphics_Symbol_832_0_Layer0_0_FILL">
<path fill="#FFFFFF" fill-opacity="0.25098039215686274" stroke="none" d="
M -14.95 83.6
Q -22.35 87.95 -27.2 93 -32.75 98.8 -32.75 103.4
L -31.85 123.5 -30.9 123.9 -30.05 123.95
Q -28.45 123.95 -20.65 99.75 -20.65 97.55 -8.9 89.6 2.8 81.65 2.8 80 2.8 77 -2.75 78.25 -7.95 79.45 -14.95 83.6
M 73.85 56.1
Q 77.15 54.15 79.15 53.25 79.15 52 76.15 52 71 52 66.65 54.15 58.4 58.25 54.55 68.9
L 54.45 68.95 55.1 69
Q 56.6 69 58 68.25
L 60.9 66
Q 67.2 60.1 73.85 56.1
M 18.6 48.05
Q 19.6 48.05 22.2 45.75
L 30.65 37.55
Q 24.65 37.55 20.85 39.95 17.2 42.25 17.2 45.65 17.2 46.7 17.7 47.4 18.1 48.05 18.6 48.05
M 66.15 48.4
L 65.6 47.5
Q 65.3 47.15 64.8 47.15 63.35 46.95 60.15 48 53.8 50 44.65 56.15 38.45 60.05 35.4 63.6 33.7 65.55 33.35 66.85 34.65 67.9 35.75 71.3 36.65 74.1 37.8 74.1 38.65 74.1 40.4 71.95 42.9 68.65 44.95 66.25 53.4 56.3 66.15 48.4
M 211.1 39.75
Q 208.85 39.75 206 41.2 201.85 43.3 201.85 47.15
L 203.55 53.3
Q 205.25 59.65 205.25 61.35 205.25 77.15 197.6 88.2 187.85 102.35 168.45 102.35 155.8 102.35 138.35 97.4 120.85 92.45 117.1 92.45 114.2 92.45 111.9 93.7 120.2 99.55 139.9 102.65 155.4 105.15 170.75 105.15 184.5 105.15 195.15 97.5 209.3 87.35 209.3 67.4 209.3 65.25 208.35 56.05
L 207.35 47.05
Q 207.35 44.35 210.55 43.65 213.75 42.95 213.75 41.5 213.75 40.6 213.2 40.2 212.6 39.75 211.1 39.75 Z"/>
</g>

<g id="Parts_Heads_headColorMC_18_Layer1_0_FILL">
<path fill="#ADADAD" stroke="none" d="
M 217.8 47.55
Q 219.5 32.3 214.65 32.3 210.55 32.3 203.5 36.85 195.75 41.85 195.75 46.25 195.75 51.2 199.5 61.05
L 203.25 70.55
Q 203.25 79.55 190.95 89 178.85 98.35 167.9 98.35 158.5 98.35 146.85 90.75
L 139.2 85.5
Q 135.6 83.1 133.95 83.1 133.45 83.1 132.7 83.6
L 131.4 84.1
Q 125.35 84.1 121.6 82.45 117.9 80.85 114.7 76.9 112.2 73.8 108.05 66.55
L 98.85 50.4
Q 93.95 42.15 76.3 36 70.9 34.1 57.2 30.85
L 58.75 30.85 58.75 29.8 39.8 28.8
Q 28.05 28.8 21.4 31.25 12.05 34.7 9.85 43.45 7.5 52.85 5.05 56.25 1.55 61.25 -6.95 63.75
L -20.6 67.25
Q -28.7 69.4 -33.45 72.25 -46.7 80.2 -46.7 101.2 -46.7 121.85 -39.3 140.25 -31.85 158.8 -17.85 172.75 12.8 203.25 63.2 203.25 66.85 203.25 68.35 201.8 69.25 200.95 70.35 195.55 71.45 190.15 65.05 174.25 58.6 158.35 51.45 149.55
L 55.15 149.75 68.3 149.35
Q 78.95 148.1 84.85 145.15 90.75 142.15 97.3 137.1 103.85 132.05 108.1 131.4
L 114.25 130.4
Q 123.35 128.85 123.35 126.7 123.35 126.2 122.75 126.7 122.15 127.2 122.15 126.7 122.15 125.75 131.5 122.9 140.6 120.15 142.8 120.15
L 147.8 121.7
Q 154.5 123.25 164.35 123.25
L 170.8 121.65
Q 178.45 119.2 185.3 114.85 207.15 100.95 213.05 73.55
L 215.15 63.3
Q 214.7 62.8 214.5 61.85
L 214.3 59.55
Q 214.3 58.6 214.7 57.6
L 214.55 56.85
Q 214.55 55.15 217 53.25
L 217.8 47.55 Z"/>
</g>
</defs>

<g transform="matrix( 1, 0, 0, 1, -62.75,-76.85) ">
<g transform="matrix( 1, 0, 0, 1, 0,0) ">
<g transform="matrix( 1, 0, 0, 1, 0,0) ">
<use xlink:href="#Graphics_Symbol_786_0_Layer0_0_FILL"/>
</g>
</g>

<g transform="matrix( 1, 0, 0, 1, 0,0) ">
<g transform="matrix( 1, 0, 0, 1, 0,0) ">
<use xlink:href="#Graphics_Symbol_832_0_Layer2_0_FILL"/>
</g>

<g transform="matrix( 1, 0, 0, 1, 0,0) ">
<use xlink:href="#Graphics_Symbol_832_0_Layer1_0_FILL"/>
</g>

<g transform="matrix( 1, 0, 0, 1, 0,0) ">
<use xlink:href="#Graphics_Symbol_832_0_Layer0_0_FILL"/>
</g>
</g>

<g id="hat1" transform="matrix( 0.983917236328125, -0.17529296875, 0.17529296875, 0.983917236328125, 45.2,78.25) ">
<g id="colorMC" transform="matrix( 0.9999847412109375, 0, 0, 0.9999847412109375, 0,0) "/>

<g id="colorMC2" transform="matrix( 1, 0, 0, 1, 0,0) "/>
</g>

<g id="hat2" transform="matrix( 0.9733734130859375, -0.2247314453125, 0.2247314453125, 0.9733734130859375, 38,60.6) ">
<g id="colorMC_FL" transform="matrix( 0.9999847412109375, 0, 0, 0.9999847412109375, 0,0) "/>

<g id="colorMC2_FL" transform="matrix( 1, 0, 0, 1, 0,0) "/>
</g>

<g id="hat3" transform="matrix( 0.96026611328125, -0.2753753662109375, 0.2753753662109375, 0.96026611328125, 26,48.4) ">
<g id="colorMC_FL_FL" transform="matrix( 0.9999847412109375, 0, 0, 0.9999847412109375, 0,0) "/>

<g id="colorMC2_FL_FL" transform="matrix( 1, 0, 0, 1, 0,0) "/>
</g>

<g id="hat4" transform="matrix( 0.944580078125, -0.3252410888671875, 0.3252410888671875, 0.944580078125, 18.85,34.5) ">
<g id="colorMC_FL_FL_FL" transform="matrix( 0.9999847412109375, 0, 0, 0.9999847412109375, 0,0) "/>

<g id="colorMC2_FL_FL_FL" transform="matrix( 1, 0, 0, 1, 0,0) "/>
</g>
</g>

<g transform="matrix( 1, 0, 0, 1, -75.4,-101.9) ">
<g transform="matrix( 1, 0, 0, 1, 0,0) ">
<use xlink:href="#Parts_Heads_headColorMC_18_Layer1_0_FILL"/>
</g>
</g>

<g transform="matrix( 1, 0, 0, 1, -62.75,-76.85) ">
<g transform="matrix( 1, 0, 0, 1, 0,0) ">
<g transform="matrix( 1, 0, 0, 1, 0,0) ">
<use xlink:href="#Graphics_Symbol_786_0_Layer0_0_FILL"/>
</g>
</g>
</g>
</svg>
