
<svg xmlns="http://www.w3.org/2000/svg" version="1.1" xmlns:xlink="http://www.w3.org/1999/xlink" preserveAspectRatio="none" x="0px" y="0px" width="550px" height="400px" viewBox="0 0 550 400">
<defs>
<g id="Graphics_Symbol_786_0_Layer0_0_FILL">
<path fill="#FFFFFF" stroke="none" d="
M 88.75 69.3
Q 88.45 67.3 87.35 66.6 84.85 63.85 81.7 64.55
L 76.25 66.4
Q 75.55 66.55 74.55 67.5
L 73.05 68.85
Q 72.8 68.4 72.2 68.4 71.4 68.4 71 71.5
L 70.75 74.8 72.1 79.45
Q 73.95 84.1 76.3 84.1 84.2 84.1 87.25 78.95 88.85 76.15 88.85 72.25
L 88.75 69.3 Z"/>
</g>
</defs>

<g transform="matrix( 1, 0, 0, 1, -62.75,-76.85) ">
<g transform="matrix( 1, 0, 0, 1, 0,0) ">
<g transform="matrix( 1, 0, 0, 1, 0,0) ">
<use xlink:href="#Graphics_Symbol_786_0_Layer0_0_FILL"/>
</g>
</g>
</g>
</svg>
