
<svg xmlns="http://www.w3.org/2000/svg" version="1.1" xmlns:xlink="http://www.w3.org/1999/xlink" preserveAspectRatio="none" x="0px" y="0px" width="550px" height="400px" viewBox="0 0 550 400">
<defs>
<g id="Layer0_0_FILL">
<path fill="#FFFFFF" stroke="none" d="
M 1.85 0.3
Q 1.8 0.2 1.55 0.1
L 1.25 0.05
Q 0.6 -0.05 0.1 0.45 -0.05 0.6 0.05 0.9 0.15 1.15 0.35 1
L 0.4 1 0.4 0.95 0.55 0.9 0.65 0.85 1.2 0.85 1.45 0.95 1.5 1 1.7 1 1.75 1.05 1.85 1.1 1.9 1.1 1.95 1.15 2 1.25
Q 2.15 1.3 2.25 1.2 2.35 1.05 2.25 0.85 2.05 0.45 1.85 0.3 Z"/>
</g>
</defs>

<g transform="matrix( 1, 0, 0, 1, 0,0) ">
<use xlink:href="#Layer0_0_FILL"/>
</g>
</svg>
