
<svg xmlns="http://www.w3.org/2000/svg" version="1.1" xmlns:xlink="http://www.w3.org/1999/xlink" preserveAspectRatio="none" x="0px" y="0px" width="550px" height="400px" viewBox="0 0 550 400">
<defs>
<g id="MovieClips_Symbol_228_47_Layer1_0_FILL">
<path fill="#FFB435" stroke="none" d="
M 3.3 -12.85
Q 2.25 -14.5 1.45 -15.25 0.15 -16.45 -1.3 -16.3 -3 -16.1 -4.05 -14.35 -4.85 -13 -5.15 -11.05 -5.6 -7.5 -4.45 -2.9 -3.95 -0.85 -2 4.95 -0.05 10.65 0.35 12.8 1.15 17.5 -0.7 20.6 -1.55 21.7 -1.5 23.05 -3.65 23.5 -5.55 24.5
L -14.25 28.1
Q -15.95 28.7 -17.1 29.5 -17.95 30.25 -17.85 31.35 -18.15 31 -18.45 31.3
L -18.45 31.35 -18.95 31.75
Q -19.9 32.8 -19.6 34.25 -19.4 36.25 -18.6 36.25 -12.7 35.45 -7.7 34.05 -7.35 35.35 -6.7 35.2 -1.25 33.85 5.35 32.6 5.6 32.9 6 32.9 15.1 32.1 21.8 32.05 22 34.3 23.1 34.3
L 50.85 34.75
Q 52.8 35.5 54.5 35.75 56.6 36.15 58.25 36.1
L 58.65 36.9 58.9 37.15
Q 59.2 37.4 59.5 37.15
L 60.3 36.85 60.65 36.35
Q 60.8 36.15 60.9 35.65
L 61 34.95
Q 63.1 35 66.15 34.85 69.55 34.65 71.25 34.65 72.45 34.6 73.15 32.55 73.8 30.5 72.95 30
L 68.55 27.55
Q 68.15 26.45 67.2 25.8 66.25 25.25 64.9 24.6 62.25 23.35 59.65 22.7 59.35 22.65 59 23.25 52.6 20.9 46 19.7 31.25 17 16.55 19.7 16.65 18.75 16.45 18 16.15 17.15 15.6 17.1
L 14.6 17.1 14.1 16.3 14.05 15.55
Q 11.65 0.25 3.3 -12.85 Z"/>
</g>
</defs>

<g transform="matrix( 1, 0, 0, 1, -28.15,-10.5) ">
<g transform="matrix( 1, 0, 0, 1, 0,0) ">
<use xlink:href="#MovieClips_Symbol_228_47_Layer1_0_FILL"/>
</g>
</g>
</svg>
