
<svg xmlns="http://www.w3.org/2000/svg" version="1.1" xmlns:xlink="http://www.w3.org/1999/xlink" preserveAspectRatio="none" x="0px" y="0px" width="550px" height="400px" viewBox="0 0 550 400">
<defs>
<g id="Graphics_Symbol_804_0_Layer0_0_FILL">
<path fill="#EEF3FA" stroke="none" d="
M 28.55 129.2
Q 28.55 123.15 19.7 125.15 16.4 125.85 13.55 127.35 10.8 128.85 10.8 129.8
L 12.9 134.7
Q 15.5 139.5 17.95 139.5 19.15 139.5 23.55 135.95 28.55 131.9 28.55 129.2 Z"/>
</g>

<g id="Graphics_Symbol_854_0_Layer1_0_FILL">
<path fill="#000000" stroke="none" d="
M 99.75 35.5
Q 92.25 35.5 85.9 40.25 79.75 44.85 79.75 49.7 79.75 52.15 80.55 59.5 80.8 66.8 78.45 72.55 77.35 72 73.35 70.8 68.9 69.5 67.3 69.45 68.05 68.6 68.05 67.65 68.05 64.8 65.9 62.1 62.9 58.4 57.3 58.4 40.9 58.4 26.3 73.35 19.9 79.95 16.15 87.55 12.3 95.35 12.3 102.15 12.3 105.65 15.05 113 17.65 120 20 123.4 13.5 123.45 10.15 125.95 7.5 127.95 7.5 130.7 7.5 134.6 10.45 138.4 13.6 142.5 17.45 142.5 20.5 142.5 22.9 140.4
L 28.4 134.7
Q 33.55 141.3 46.2 146.35 60.2 152 75.15 152 100.45 152 115.2 136.7 130.25 121.15 130.25 93.65 130.25 77.85 117.9 67.55 115.15 65.25 107.5 60.15 101.25 56 98.75 53.2
L 103.2 43.45
Q 104.45 40.5 104.45 39.05 104.45 37.85 103.25 36.75 101.9 35.5 99.75 35.5
M 85.4 47.6
Q 85.4 45.3 88.4 44.45 94.8 42.65 99.2 40.35 97.15 49.25 95.15 50.65
L 94.05 51.05
Q 93.7 51.2 93.7 52.1 93.7 52.7 98.65 56.6 105.4 61.95 109.5 65.9 125.3 81.2 125.3 96.25 125.3 116.15 115.05 128.9 109.9 135.3 104.75 137.75 104.75 138.7 105.6 139.8 101.05 143.75 92.4 146 85.4 147.85 79.55 147.85 57.65 147.85 41.15 138.5 36.05 135.6 32.05 132.05
L 29 129.15
Q 27.8 129.15 24.3 133.7 20.75 138.2 17.95 138.2 15.35 138.2 13.25 135.35 11.55 133 11.55 131.3 11.55 127.1 18.5 127.1
L 23.25 126.8
Q 25.4 126.25 25.4 124.25 25.4 122 24.05 119.9
L 21.1 115.85
Q 16.75 109.7 16.75 99.9 16.75 87.8 25.9 79.9 27.55 78.5 33.65 74.15 38.2 70.85 40.15 68.45 41.95 66.15 49.95 64.85
L 57.7 63.95 60.8 64.2
Q 63.75 64.85 63.75 66.9 63.75 69.15 57.9 72.3 52.05 75.5 52.05 76.35 52.05 76.95 52.25 77.05
L 52.4 77.1 54.4 77.25
Q 59.15 77.25 64.95 75.85 70.7 74.4 72.25 74.4 76 74.4 78.75 77.45 81.5 80.5 83.05 80.5
L 84.7 80.15
Q 85.6 79.7 85.6 78.9
L 84.05 77.35
Q 82.45 75.75 82.45 75.2 86.9 60.35 86.9 57.45
L 85.4 47.6
M 56.6 71.25
L 60.7 66.5 59.8 65.9 59 66.05
Q 57.5 66.85 56.2 68.15
L 53.9 70.45
Q 53.75 70.6 54.15 71.45 54.8 72.8 56.6 71.25
M 98.4 42.5
Q 98.3 41.4 96.75 42.1 93.7 47.4 93.55 48.25 94.95 49.6 96.55 46.8 97.6 45.05 98.4 42.5 Z"/>
</g>

<g id="Graphics_Symbol_854_0_Layer0_0_FILL">
<path fill="#000000" fill-opacity="0.14901960784313725" stroke="none" d="
M 96.2 37.95
Q 93.7 38.5 86.6 42 81.2 44.6 79.8 58.45 78.8 68.15 79.65 74.85 77.7 72.8 73.45 71.4 67 69.4 61.7 72.95
L 61.2 73.1 63.1 70.9
Q 64.7 68.35 65.95 65.2
L 65 64.25 64.75 64.1
Q 64.65 62.9 64.05 62 60.35 57 41.85 66.15 23.3 75.4 18.05 86.1 12.65 96.8 15.2 107.4 17.85 118.05 19.55 119.15
L 21.3 120.35
Q 22.3 122.4 20.95 123.1 17.85 124.15 14.7 125.7 11.3 127.35 9.8 130.1 8.4 132.8 9.75 135.4 11.55 139 14.4 140.15 17.5 141.3 21.15 139.5 24.2 138 25.95 136.05 27.85 134 27.2 132.65
L 26.7 131.8 26.05 131.25
Q 25.75 131 24.35 131.65 21.35 135.05 19.85 135.8 17.95 136.75 15.55 135.4 13.95 134.35 13.6 133.6 12.85 131.95 14.95 130.45
L 20 127.55
Q 27.4 123.55 24.7 118.15
L 23.15 116.5
Q 21.9 115.65 21.65 115 20.25 112.25 21 104.35 21.95 94.05 21.85 92.2 21.7 90.25 25.45 87.15 28.4 84.5 26.35 81.65 27.05 79.4 33.35 75.35 38 72.35 43.6 69.55 49.4 66.7 52.5 66.3 54.6 66.05 60.8 66.1
L 59.2 68.85 58.15 72.15 58.2 72.3
Q 55.45 76.15 51.6 78.3 47.55 80.15 45.2 81.3 42.25 82.8 39.7 84.5 47.95 84.95 88.2 91.5 90.8 90.15 87.55 68.85 84.2 47.55 87.35 46 88.75 45.3 96.25 42.35
L 96.9 42.4
Q 94.9 46.55 93.25 51.6 91.95 55.75 92.1 56.1 96.55 65.2 105.5 71.15 114.45 77.05 115.9 80.2 124.1 96.75 118.55 111.9 112.95 127.25 95.65 135.75 83.9 141.55 60.3 141.05 36.25 140.65 32.95 133.9 32.55 133.1 32.75 132.3
L 33 131.5
Q 30.5 130.7 30.3 130.8 28.45 131.75 28.75 133.7
L 29.4 135.4
Q 29.75 136.2 40 141.25 46.45 144.4 49.7 146.8 51.85 147.35 54.7 148.4
L 72.1 150.9 77.4 150.55
Q 87.75 149.75 95.15 148.1
L 102.35 143.7
Q 104.4 142.5 110.05 138.4
L 115.7 134.75
Q 120.2 127.6 124.35 115.7 131.85 94.15 123.95 78.25 122.8 75.8 113.4 66.3 102.1 54.85 97.2 54.9
L 99.8 47.05
Q 101.55 41.4 100.85 40.1 99.5 37.3 96.2 37.95
M 59.8 73.6
L 59 73.9 59.4 73.45 59.8 73.6 Z"/>
</g>

<g id="Parts_Heads_headColorMC_38_Layer1_0_FILL">
<path fill="#D0FFFF" stroke="none" d="
M 99.2 40.35
Q 94.8 42.65 88.4 44.45 85.4 45.3 85.4 47.6
L 86.9 57.45
Q 86.9 60.35 82.45 75.2 82.45 75.75 84.05 77.35
L 85.6 78.9
Q 85.6 79.7 84.7 80.15
L 83.05 80.5
Q 81.5 80.5 78.75 77.45 76 74.4 72.25 74.4 70.7 74.4 64.95 75.85 59.15 77.25 54.4 77.25
L 52.4 77.1 52.25 77.05
Q 52.05 76.95 52.05 76.35 52.05 75.5 57.9 72.3 63.75 69.15 63.75 66.9 63.75 64.85 60.8 64.2
L 57.7 63.95 49.95 64.85
Q 41.95 66.15 40.15 68.45 38.2 70.85 33.65 74.15 27.55 78.5 25.9 79.9 16.75 87.8 16.75 99.9 16.75 109.7 21.1 115.85
L 24.05 119.9
Q 25.4 122 25.4 124.25 25.4 126.25 23.25 126.8
L 18.5 127.1
Q 11.55 127.1 11.55 131.3 11.55 133 13.25 135.35 15.35 138.2 17.95 138.2 20.75 138.2 24.3 133.7 27.8 129.15 29 129.15
L 32.05 132.05
Q 36.05 135.6 41.15 138.5 57.65 147.85 79.55 147.85 85.4 147.85 92.4 146 101.05 143.75 105.6 139.8 104.75 138.7 104.75 137.75 109.9 135.3 115.05 128.9 125.3 116.15 125.3 96.25 125.3 81.2 109.5 65.9 105.4 61.95 98.65 56.6 93.7 52.7 93.7 52.1 93.7 51.2 94.05 51.05
L 95.15 50.65
Q 97.15 49.25 99.2 40.35
M 96.75 42.1
Q 98.3 41.4 98.4 42.5 97.6 45.05 96.55 46.8 94.95 49.6 93.55 48.25 93.7 47.4 96.75 42.1
M 60.7 66.5
L 56.6 71.25
Q 54.8 72.8 54.15 71.45 53.75 70.6 53.9 70.45
L 56.2 68.15
Q 57.5 66.85 59 66.05
L 59.8 65.9 60.7 66.5 Z"/>
</g>
</defs>

<g transform="matrix( 1, 0, 0, 1, -62.75,-76.85) ">
<g transform="matrix( 1, 0, 0, 1, 0,0) ">
<g transform="matrix( 1, 0, 0, 1, 0,0) ">
<use xlink:href="#Graphics_Symbol_804_0_Layer0_0_FILL"/>
</g>
</g>

<g transform="matrix( 1, 0, 0, 1, 0,0) ">
<g transform="matrix( 1, 0, 0, 1, 0,0) ">
<use xlink:href="#Graphics_Symbol_854_0_Layer1_0_FILL"/>
</g>

<g transform="matrix( 1, 0, 0, 1, 0,0) ">
<use xlink:href="#Graphics_Symbol_854_0_Layer0_0_FILL"/>
</g>
</g>

<g id="hat1" transform="matrix( 0.983917236328125, -0.17529296875, 0.17529296875, 0.983917236328125, 45.2,78.25) ">
<g id="colorMC" transform="matrix( 0.9999847412109375, 0, 0, 0.9999847412109375, 0,0) "/>

<g id="colorMC2" transform="matrix( 1, 0, 0, 1, 0,0) "/>
</g>

<g id="hat2" transform="matrix( 0.9733734130859375, -0.2247314453125, 0.2247314453125, 0.9733734130859375, 38,60.6) ">
<g id="colorMC_FL" transform="matrix( 0.9999847412109375, 0, 0, 0.9999847412109375, 0,0) "/>

<g id="colorMC2_FL" transform="matrix( 1, 0, 0, 1, 0,0) "/>
</g>

<g id="hat3" transform="matrix( 0.96026611328125, -0.2753753662109375, 0.2753753662109375, 0.96026611328125, 26,48.4) ">
<g id="colorMC_FL_FL" transform="matrix( 0.9999847412109375, 0, 0, 0.9999847412109375, 0,0) "/>

<g id="colorMC2_FL_FL" transform="matrix( 1, 0, 0, 1, 0,0) "/>
</g>

<g id="hat4" transform="matrix( 0.944580078125, -0.3252410888671875, 0.3252410888671875, 0.944580078125, 18.85,34.5) ">
<g id="colorMC_FL_FL_FL" transform="matrix( 0.9999847412109375, 0, 0, 0.9999847412109375, 0,0) "/>

<g id="colorMC2_FL_FL_FL" transform="matrix( 1, 0, 0, 1, 0,0) "/>
</g>
</g>

<g transform="matrix( 1, 0, 0, 1, -75.4,-101.9) ">
<g transform="matrix( 1, 0, 0, 1, 0,0) ">
<use xlink:href="#Parts_Heads_headColorMC_38_Layer1_0_FILL"/>
</g>
</g>

<g transform="matrix( 1, 0, 0, 1, -62.75,-76.85) ">
<g transform="matrix( 1, 0, 0, 1, 0,0) ">
<g transform="matrix( 1, 0, 0, 1, 0,0) ">
<use xlink:href="#Graphics_Symbol_804_0_Layer0_0_FILL"/>
</g>
</g>
</g>
</svg>
