
<svg xmlns="http://www.w3.org/2000/svg" version="1.1" xmlns:xlink="http://www.w3.org/1999/xlink" preserveAspectRatio="none" x="0px" y="0px" width="550px" height="400px" viewBox="0 0 550 400">
<defs>
<g id="Parts_Heads_headColorMC_38_Layer1_0_FILL">
<path fill="#D0FFFF" stroke="none" d="
M 88.4 44.45
Q 85.4 45.3 85.4 47.6
L 86.9 57.45
Q 86.9 60.35 82.45 75.2 82.45 75.75 84.05 77.35
L 85.6 78.9
Q 85.6 79.7 84.7 80.15
L 83.05 80.5
Q 81.5 80.5 78.75 77.45 76 74.4 72.25 74.4 70.7 74.4 64.95 75.85 59.15 77.25 54.4 77.25
L 52.4 77.1 52.25 77.05
Q 52.05 76.95 52.05 76.35 52.05 75.5 57.9 72.3 63.75 69.15 63.75 66.9 63.75 64.85 60.8 64.2
L 57.7 63.95 49.95 64.85
Q 41.95 66.15 40.15 68.45 38.2 70.85 33.65 74.15 27.55 78.5 25.9 79.9 16.75 87.8 16.75 99.9 16.75 109.7 21.1 115.85
L 24.05 119.9
Q 25.4 122 25.4 124.25 25.4 126.25 23.25 126.8
L 18.5 127.1
Q 11.55 127.1 11.55 131.3 11.55 133 13.25 135.35 15.35 138.2 17.95 138.2 20.75 138.2 24.3 133.7 27.8 129.15 29 129.15
L 32.05 132.05
Q 36.05 135.6 41.15 138.5 57.65 147.85 79.55 147.85 85.4 147.85 92.4 146 101.05 143.75 105.6 139.8 104.75 138.7 104.75 137.75 109.9 135.3 115.05 128.9 125.3 116.15 125.3 96.25 125.3 81.2 109.5 65.9 105.4 61.95 98.65 56.6 93.7 52.7 93.7 52.1 93.7 51.2 94.05 51.05
L 95.15 50.65
Q 97.15 49.25 99.2 40.35 94.8 42.65 88.4 44.45
M 98.4 42.5
Q 97.6 45.05 96.55 46.8 94.95 49.6 93.55 48.25 93.7 47.4 96.75 42.1 98.3 41.4 98.4 42.5
M 60.7 66.5
L 56.6 71.25
Q 54.8 72.8 54.15 71.45 53.75 70.6 53.9 70.45
L 56.2 68.15
Q 57.5 66.85 59 66.05
L 59.8 65.9 60.7 66.5 Z"/>
</g>
</defs>

<g transform="matrix( 1, 0, 0, 1, -62.75,-76.85) ">
<g transform="matrix( 1, 0, 0, 1, 0,0) ">
<use xlink:href="#Parts_Heads_headColorMC_38_Layer1_0_FILL"/>
</g>
</g>
</svg>
