
<svg xmlns="http://www.w3.org/2000/svg" version="1.1" xmlns:xlink="http://www.w3.org/1999/xlink" preserveAspectRatio="none" x="0px" y="0px" width="550px" height="400px" viewBox="0 0 550 400">
<defs>
<g id="Parts_Hats_hatsMC_13_Layer9_0_FILL">
<path fill="#04FF00" stroke="none" d="
M -22 -54.2
L -22 -79.4 -54 -79.4 -54 -54.2 -22 -54.2
M 46.5 -100.45
L 18.6 -100.45 18.6 -77 46.5 -77 46.5 -100.45 Z"/>
</g>

<g id="Graphics_Symbol_713_0_Layer6_0_FILL">
<path fill="#000000" stroke="none" d="
M 57.2 -128.75
L 46.9 -140.15
Q 45.45 -141.65 21.55 -152.6
L -2 -163.3 -6.5 -163.65
Q -17.3 -163.65 -55.1 -102.05
L -71.2 -77.4
Q -80.4 -63.2 -80.4 -60.1 -80.4 -40.75 -67.7 -25.3 -63.85 -20.65 -58.55 -16.1
L -53.65 -11.8 -47.75 -2.35
Q -44.5 2.75 -41.8 5.6 -34.6 13.05 -22.7 13.05 -15.4 13.05 -12.1 11.55 -8.35 9.05 -5.2 7.1 8.65 -1.5 49.6 -9.8 58.85 -11.7 67.55 -33.3 70.9 -41.75 73.1 -50.65 75.15 -59.1 75.15 -63.9 75.15 -69.5 69.05 -77.15 62.9 -84.8 62.9 -90.55 62.9 -92.65 64.3 -94.95 65.65 -97.25 65.65 -97.9 65.65 -99.05 62.9 -103.2 60.1 -107.3 60.1 -108.35 60.1 -110.1 61.75 -112.95 63.35 -115.8 63.35 -116.55 63.35 -118.8 61.85 -121.9 60.2 -125.35 57.2 -128.75
M 46.5 -98.6
L 46.5 -77 16.05 -77 16.05 -98.6 46.5 -98.6
M -22 -79.4
L -22 -54.2 -54 -54.2 -54 -79.4 -22 -79.4 Z"/>
</g>

<g id="Graphics_Symbol_713_0_Layer5_0_FILL">
<path fill="#E7E3BC" stroke="none" d="
M -11.45 -0.35
L -10.55 -2.85 -10.85 -2.7
Q -10.85 -2.5 -11.75 -2.3
L -13.45 -2.1 -18 -3.15
Q -18.6 -3.15 -22.4 1
L -27.95 7.2 -15.6 6.85 -4.35 3.65 -0.8 1
Q -9 0.65 -11.45 -0.35
M 65.2 -36.75
L 66.55 -44.6 55.65 -48.95
Q 53.4 -48.95 52.75 -47.45
L 52.5 -45.85
Q 52.5 -42.8 55.35 -41 57.1 -39.9 65.2 -36.75
M 37.65 -14.75
Q 37.65 -14.15 38 -13.55 38.55 -12.7 39.6 -12.7
L 46.1 -13.95 56.5 -20.85 44.65 -18.3
Q 37.65 -16.7 37.65 -14.75
M 46.15 -37.3
L 45.85 -37.15 45.6 -35.6
Q 46.05 -33.15 49.4 -31.05 52.85 -28.95 58 -28.05 56.75 -27.15 53.4 -26.2 50.9 -25.5 49.65 -23.6
L 49.8 -23.1 49.85 -23 60.9 -27.2 58.3 -30.2
Q 56.15 -32.8 52.35 -35.2 48.7 -37.5 47.15 -37.5
L 46.15 -37.3
M 54.5 -53.9
Q 55.9 -52.6 60.05 -52.55
L 67 -52.95 68.45 -54.65
Q 69.5 -56.2 69.5 -58.55
L 69.35 -59.6 68.9 -60.95
Q 60.05 -58.65 57.15 -56.95 55.55 -56.05 54.5 -53.9
M 51.55 -89.3
L 58.25 -88.1 59.55 -95.9 48.45 -96.95
Q 42.55 -96.95 39.45 -96.05
L 36.45 -95.15
Q 38.4 -94.65 39.95 -93.45 42.55 -91.45 42.55 -88.55 42.55 -86.6 41.35 -85
L 41.65 -85
Q 43 -85 44.6 -86.85
L 47.85 -91.45 51.55 -89.3
M -35.9 -58.05
Q -37.9 -59 -39.5 -59 -44.05 -59 -50.1 -55.25 -56.25 -51.45 -56.25 -48.45
L -56.1 -47.1 -55.95 -46.55
Q -40.75 -55.5 -35.9 -58.05 Z"/>

<path fill="#5A5540" stroke="none" d="
M -41 -7.95
Q -41.8 -8.2 -41.8 -8.85 -41.8 -12.15 -40.25 -14.35
L -47.7 -10.65 -46.25 -7.25 -43.95 -4.1 -40.25 -7.8 -41 -7.95
M -41.65 -40.1
Q -44.85 -39.2 -47.35 -34.6
L -50.1 -22.15
Q -51.1 -17.75 -51.95 -16.3
L -50.95 -15.2 -43.55 -22.7 -44.35 -24.2
Q -45.2 -25.85 -45.2 -26.55 -45.2 -33.1 -36.9 -37.65 -29.9 -41.45 -20.15 -42.5 -20.7 -42.95 -23 -43.7
L -25.55 -44.35
Q -28.2 -44.35 -29.85 -43.15
L -32.1 -41.4 -41.65 -40.1
M -60.7 -82.1
Q -49.8 -77.65 -49.25 -77.65 -48.45 -77.65 -46.3 -81.5
L -41.25 -90.7 -43.95 -89.65
Q -46.8 -88.5 -58.6 -84.3
L -58.9 -85.3 -60.7 -82.1
M -15.75 -150.65
Q -11.05 -150.65 -7.7 -153.15 -4.4 -155.65 -4.4 -159.15 -9.1 -159.15 -12.4 -156.65 -15.75 -154.15 -15.75 -150.65
M 9.1 -14.25
L 11.45 -13.9
Q -2.2 -19 -4.5 -16.75 -5.1 -16.2 -5.4 -14.15 -5.7 -12.25 -6.65 -11.6
L -10.9 -11.45
Q -14.85 -11.55 -18.65 -8.9
L -7.45 -5.05
Q -4.55 -3.95 -3.65 -3.95 1.95 -3.95 4.55 -9.1
L 6.3 -12.65
Q 7.4 -14.25 9.1 -14.25
M 46.95 -81.85
Q 42.15 -81.85 40.65 -81.1 39.75 -80.65 39.75 -79.4 39.75 -77.9 41.45 -74.95 43.3 -71.75 45.3 -70.25 -6.45 -56.8 -11.25 -55.1
L -25.15 -54 -28.1 -52.45 -62.6 -40.7
Q -47 -44.7 -26.2 -49.25
L -6.1 -53.8
Q -3.05 -55.45 4.7 -57
L 13.05 -58.45
Q 18.45 -59.3 22.35 -62.65 25.75 -65.6 30.8 -65.6 32.95 -65.6 34.35 -64.35 35.8 -62.65 37 -61.85 37.7 -64.1 42.95 -66.55 47.65 -68.75 50.15 -68.85
L 45.6 -63.3
Q 44.35 -62.25 36.95 -58.5 38.1 -56.85 40.5 -55.8 42.2 -55.1 42.8 -55.1 46.85 -55.1 49.05 -57.1 53.85 -61.55 61.5 -65.7
L 55.45 -67.9 70.15 -63.95 70.8 -64.15 60.15 -81.1 46.95 -81.85
M 9.85 -111.2
Q 13.75 -111.5 34.1 -119.8
L -27.35 -107.35 -23.5 -106.25 -19.95 -105.9 -16.5 -106.25 9.85 -111.2
M 15.8 -99.9
Q 13.15 -99.9 12.7 -99.1 11.1 -96.35 6.55 -92.6
L 6.5 -87.8
Q 12.35 -91.75 18.45 -95.15 19.5 -95.75 19.6 -96.1
L 19.65 -97.45
Q 19.65 -98.35 18.85 -99 17.8 -99.9 15.8 -99.9
M 13.4 -136
L 12.7 -136.15 3.7 -136.7 -1.35 -136
Q -4.65 -135.2 -5.25 -134.4
L -4.45 -133.85 1.55 -132.85 6.4 -133.1
Q 7.65 -133.45 11.55 -135.2
L 13.4 -136 Z"/>

<path fill="#7F7A61" stroke="none" d="
M -55.95 -31.45
Q -56.95 -31.45 -57.7 -32.95
L -58.4 -35 -66.45 -34.95 -60.9 -25.45 -51.95 -16.3
Q -51.1 -17.75 -50.1 -22.15
L -47.35 -34.6
Q -50.15 -32.7 -53.3 -31.9
L -55.95 -31.45
M 27 -83.75
L 26.3 -82.4
Q 27.55 -81.55 29.25 -80.85
L 31.4 -80.25
Q 32.4 -80.25 33.1 -81.45
L 33.2 -81.6
Q 29.65 -81.7 27.2 -83.6
L 27 -83.75
M 26.5 -92.85
L 27.7 -93.8 25.3 -94.2 26.5 -92.85
M 34.8 -47.35
Q 29.65 -44.95 29.9 -38.9
L 33.95 -37.7
Q 35.45 -39.9 36.75 -43.2 37.6 -45.4 40.75 -48.65 37.55 -48.65 34.8 -47.35
M 19.1 -91.15
Q 16.95 -89.25 12.5 -88.25
L 6.5 -87.8 6.55 -92.6 5.75 -92.4
Q 4.45 -97.75 3.5 -99.15 2.85 -100.1 -0.35 -102.3
L -0.2 -101.75 2.9 -93.4
Q 4.55 -89.05 4.55 -87.95 4.55 -86.25 4 -85.2
L 3.4 -84.4
Q 3.4 -83.65 4.75 -83.1 6.45 -82.35 7.05 -81.5
L 5.8 -78.1 9.95 -78.05 16.6 -78.7
Q 21.95 -79.9 24.2 -83
L 10.2 -83.4
Q 12.85 -84.25 15.85 -86.1 19.65 -88.45 19.65 -90.15 19.65 -91.15 19.1 -91.15 Z"/>

<path fill="#C1BC9A" stroke="none" d="
M -58.2 -37.2
Q -58.6 -37.2 -60.6 -38.25 -64.15 -39.75 -71.7 -41.7
L -66.45 -34.95 -58.4 -35 -57.7 -32.95
Q -56.95 -31.45 -55.95 -31.45
L -53.3 -31.9
Q -50.15 -32.7 -47.35 -34.6 -44.85 -39.2 -41.65 -40.1
L -32.1 -41.4 -32.3 -42 -38.6 -42.85
Q -39.25 -42.85 -46.1 -40 -52.95 -37.2 -58.2 -37.2 Z"/>

<path fill="#BEB894" stroke="none" d="
M -27.6 -70.15
Q -26.85 -69.25 -26.6 -68.25 -22.35 -73.8 -21.75 -75 -21.05 -76.5 -19.65 -81.85 -22.65 -81.2 -24.3 -77.85
L -27.6 -70.15 Z"/>

<path fill="#B6B18E" stroke="none" d="
M -27.6 -70.15
Q -28.35 -71.05 -29.5 -71.75 -32.6 -73.7 -36.95 -73.7 -41.3 -73.7 -44.35 -71.75 -47.45 -69.85 -47.45 -67.1 -47.45 -64.35 -44.35 -62.4 -41.3 -60.5 -36.95 -60.5
L -32.85 -61 -36.5 -54.05
Q -37.05 -53.1 -38 -52.85
L -41.75 -52.25
Q -41.9 -51.05 -41.15 -50.55 -40.4 -50.1 -38.55 -50.1 -34.8 -50.1 -32.55 -52.65 -29.65 -56 -28.25 -56.6 -28.05 -56.3 -27.85 -56.45
L -27.7 -56.6 -28.1 -52.45 -25.15 -54 -13.15 -62.2 -26.45 -66.8 -26.45 -67.1 -26.6 -68.25
Q -26.85 -69.25 -27.6 -70.15
M -27.2 -67.25
Q -27.2 -64.75 -30.15 -63.05 -33.05 -61.25 -37.2 -61.25 -41.35 -61.25 -44.25 -63.05 -47.2 -64.75 -47.2 -67.25 -47.2 -67.45 -47.15 -67.65 -47.1259765625 -67.6873046875 -47.1 -67.75
L -47.05 -68.2 -47.05 -68.25
Q -47.00078125 -68.4466796875 -46.95 -68.65
L -46.6 -69.4 -46.55 -69.45
Q -45.85 -70.6 -44.25 -71.55 -41.35 -73.25 -37.2 -73.25 -33.05 -73.25 -30.15 -71.55 -27.2 -69.75 -27.2 -67.25 Z"/>

<path fill="#B1AC89" stroke="none" d="
M 60.05 -52.55
Q 55.9 -52.6 54.5 -53.9 55.55 -56.05 57.15 -56.95 60.05 -58.65 68.9 -60.95
L 70.15 -63.95 55.45 -67.9 61.5 -65.7
Q 53.85 -61.55 49.05 -57.1 46.85 -55.1 42.8 -55.1 42.2 -55.1 40.5 -55.8 38.1 -56.85 36.95 -58.5 44.35 -62.25 45.6 -63.3
L 50.15 -68.85
Q 47.65 -68.75 42.95 -66.55 37.7 -64.1 37 -61.85 35.8 -62.65 34.35 -64.35 32.95 -65.6 30.8 -65.6 25.75 -65.6 22.35 -62.65 18.45 -59.3 13.05 -58.45
L 4.7 -57
Q -3.05 -55.45 -6.1 -53.8
L -5.8 -52.55
Q -11.95 -51.45 -17.7 -49.8 -28.9 -46.6 -32.3 -42
L -32.1 -41.4 -29.85 -43.15
Q -28.2 -44.35 -25.55 -44.35
L -23 -43.7
Q -20.7 -42.95 -20.15 -42.5 -29.9 -41.45 -36.9 -37.65 -45.2 -33.1 -45.2 -26.55 -45.2 -25.85 -44.35 -24.2
L -43.55 -22.7 -50.95 -15.2 -47.7 -10.65 -40.25 -14.35
Q -41.8 -12.15 -41.8 -8.85 -41.8 -8.2 -41 -7.95
L -40.25 -7.8 -43.95 -4.1
Q -43.95 0.6 -39.25 3.9 -34.6 7.2 -27.95 7.2
L -22.4 1
Q -18.6 -3.15 -18 -3.15
L -13.45 -2.1 -11.75 -2.3
Q -10.85 -2.5 -10.85 -2.7
L -10.55 -2.85 -11.45 -0.35
Q -9 0.65 -0.8 1
L -4.35 3.65
Q 12.75 -7.25 22.5 -8.65
L 31.95 -9.65
Q 38.6 -10.55 46.35 -12.95
L 46.1 -13.95 39.6 -12.7
Q 38.55 -12.7 38 -13.55 37.65 -14.15 37.65 -14.75 37.65 -16.7 44.65 -18.3
L 56.5 -20.85
Q 59.65 -25.3 61.1 -27
L 61.5 -27.45 61.9 -28.25 65.2 -36.75
Q 57.1 -39.9 55.35 -41 52.5 -42.8 52.5 -45.85
L 52.75 -47.45
Q 53.4 -48.95 55.65 -48.95
L 66.55 -44.6 67 -52.95 60.05 -52.55
M 29.9 -38.9
Q 29.65 -44.95 34.8 -47.35 37.55 -48.65 40.75 -48.65 37.6 -45.4 36.75 -43.2 35.45 -39.9 33.95 -37.7
L 16.45 -22.75 24.3 -32.35 22 -32.7 22.15 -32.15 20.05 -31.8 19.05 -31.6
Q 17.95 -31.6 17.2 -32.05 16.45 -32.55 16.45 -33.25 18.85 -35.9 21.4 -36.6
L 30.25 -37.65 29.9 -38.9
M 11.45 -13.9
L 9.1 -14.25
Q 7.4 -14.25 6.3 -12.65
L 4.55 -9.1
Q 1.95 -3.95 -3.65 -3.95 -4.55 -3.95 -7.45 -5.05
L -18.65 -8.9
Q -14.85 -11.55 -10.9 -11.45
L -6.65 -11.6
Q -5.7 -12.25 -5.4 -14.15 -5.1 -16.2 -4.5 -16.75 -2.2 -19 11.45 -13.9
M 45.85 -37.15
L 46.15 -37.3 47.15 -37.5
Q 48.7 -37.5 52.35 -35.2 56.15 -32.8 58.3 -30.2
L 60.9 -27.2 49.85 -23 49.8 -23.1 49.65 -23.6
Q 50.9 -25.5 53.4 -26.2 56.75 -27.15 58 -28.05 52.85 -28.95 49.4 -31.05 46.05 -33.15 45.6 -35.6
L 45.85 -37.15 Z"/>

<path fill="#676149" stroke="none" d="
M 29.9 -38.9
L 30.25 -37.65 21.4 -36.6
Q 18.85 -35.9 16.45 -33.25 16.45 -32.55 17.2 -32.05 17.95 -31.6 19.05 -31.6
L 20.05 -31.8 22 -32.7 24.3 -32.35 16.45 -22.75 33.95 -37.7 29.9 -38.9 Z"/>

<path fill="#7B7659" stroke="none" d="
M 22.15 -32.15
L 22 -32.7 20.05 -31.8 22.15 -32.15 Z"/>

<path fill="#B0AA88" stroke="none" d="
M 36.85 -105.35
Q 37.55 -105.3 35.15 -106.5
L 45.6 -115.3 55.25 -107.05
Q 55.7 -111.65 57.35 -113.5 58.8 -115.2 58.8 -116.05 58.8 -116.95 56.55 -120.75
L 52.65 -126.75 49.15 -130.1
Q 45.4 -134.1 42.75 -138.4
L -3.8 -159.15 -4.4 -159.15
Q -4.4 -155.65 -7.7 -153.15 -11.05 -150.65 -15.75 -150.65 -50.1 -100.05 -55.3 -91.55 -54.7 -91.55 -58.9 -85.3
L -58.6 -84.3
Q -46.8 -88.5 -43.95 -89.65
L -41.25 -90.7 -46.3 -81.5
Q -48.45 -77.65 -49.25 -77.65 -49.8 -77.65 -60.7 -82.1 -68.35 -74.25 -72.15 -67.4 -75.5 -61.4 -75.5 -56.95 -75.5 -49.45 -74.25 -45.75 -73.5 -43.5 -71.7 -41.7 -64.15 -39.75 -60.6 -38.25 -58.6 -37.2 -58.2 -37.2 -52.95 -37.2 -46.1 -40 -39.25 -42.85 -38.6 -42.85
L -32.3 -42
Q -28.9 -46.6 -17.7 -49.8 -11.95 -51.45 -5.8 -52.55
L -6.1 -53.8 -26.2 -49.25
Q -47 -44.7 -62.6 -40.7
L -28.1 -52.45 -27.7 -56.6 -27.85 -56.45
Q -28.05 -56.3 -28.25 -56.6 -29.65 -56 -32.55 -52.65 -34.8 -50.1 -38.55 -50.1 -40.4 -50.1 -41.15 -50.55 -41.9 -51.05 -41.75 -52.25
L -38 -52.85
Q -37.05 -53.1 -36.5 -54.05
L -32.85 -61 -36.95 -60.5
Q -41.3 -60.5 -44.35 -62.4 -47.45 -64.35 -47.45 -67.1 -47.45 -69.85 -44.35 -71.75 -41.3 -73.7 -36.95 -73.7 -32.6 -73.7 -29.5 -71.75 -28.35 -71.05 -27.6 -70.15
L -24.3 -77.85
Q -22.65 -81.2 -19.65 -81.85 -21.05 -76.5 -21.75 -75 -22.35 -73.8 -26.6 -68.25
L -26.45 -67.1 -26.45 -66.8 -13.15 -62.2 -25.15 -54 -11.25 -55.1
Q -6.45 -56.8 45.3 -70.25 43.3 -71.75 41.45 -74.95 39.75 -77.9 39.75 -79.4 39.75 -80.65 40.65 -81.1 42.15 -81.85 46.95 -81.85
L 60.15 -81.1 58.25 -88.1 51.55 -89.3 47.85 -91.45 44.6 -86.85
Q 43 -85 41.65 -85
L 41.35 -85 39.95 -83.6
Q 37.3 -81.6 33.55 -81.6
L 33.2 -81.6 33.1 -81.45
Q 32.4 -80.25 31.4 -80.25
L 29.25 -80.85
Q 27.55 -81.55 26.3 -82.4
L 27 -83.75
Q 24.55 -85.75 24.55 -88.55 24.55 -91.05 26.5 -92.85
L 25.3 -94.2 27.7 -93.8
Q 30.15 -95.5 33.55 -95.5
L 36.45 -95.15 39.45 -96.05
Q 42.55 -96.95 48.45 -96.95
L 59.55 -95.9 60.95 -98.2
Q 60.95 -98.95 60.15 -99.85
L 56.9 -103.4 36.85 -105.35
M 12.7 -136.15
L 13.4 -136 11.55 -135.2
Q 7.65 -133.45 6.4 -133.1
L 1.55 -132.85 -4.45 -133.85 -5.25 -134.4
Q -4.65 -135.2 -1.35 -136
L 3.7 -136.7 12.7 -136.15
M 12.7 -99.1
Q 13.15 -99.9 15.8 -99.9 17.8 -99.9 18.85 -99 19.65 -98.35 19.65 -97.45
L 19.6 -96.1
Q 19.5 -95.75 18.45 -95.15 12.35 -91.75 6.5 -87.8
L 12.5 -88.25
Q 16.95 -89.25 19.1 -91.15 19.65 -91.15 19.65 -90.15 19.65 -88.45 15.85 -86.1 12.85 -84.25 10.2 -83.4
L 24.2 -83
Q 21.95 -79.9 16.6 -78.7
L 9.95 -78.05 5.8 -78.1 7.05 -81.5
Q 6.45 -82.35 4.75 -83.1 3.4 -83.65 3.4 -84.4
L 4 -85.2
Q 4.55 -86.25 4.55 -87.95 4.55 -89.05 2.9 -93.4
L -0.2 -101.75 -0.35 -102.3
Q 2.85 -100.1 3.5 -99.15 4.45 -97.75 5.75 -92.4
L 6.55 -92.6
Q 11.1 -96.35 12.7 -99.1
M 34.1 -119.8
Q 13.75 -111.5 9.85 -111.2
L -16.5 -106.25 -19.95 -105.9 -23.5 -106.25 -27.35 -107.35 34.1 -119.8
M -39.5 -59
Q -37.9 -59 -35.9 -58.05 -40.75 -55.5 -55.95 -46.55
L -56.1 -47.1 -56.25 -48.45
Q -56.25 -51.45 -50.1 -55.25 -44.05 -59 -39.5 -59 Z"/>

<path fill="#746E53" stroke="none" d="
M 35.15 -106.5
Q 37.55 -105.3 36.85 -105.35
L 56.9 -103.4 55.25 -107.05 45.6 -115.3 35.15 -106.5 Z"/>
</g>

<g id="Graphics_Symbol_713_0_Layer4_0_FILL">
<path fill="#000000" stroke="none" d="
M -70 -101.35
L -76.7 -100.9
Q -84.1 -100.55 -91.15 -100.9 -105.5 -101.7 -110.35 -98.7 -113.55 -96.7 -113.55 -91.35 -113.55 -89.5 -112 -89.1
L -102.05 -87.6 -21.95 -87.6
Q -20.35 -87.7 -19.85 -88.2 -19.45 -88.6 -19.45 -89.8 -19.45 -96.7 -32.75 -99.25 -43.7 -101.35 -70 -101.35
M 44.7 -68.65
L 44.4 -68.95
Q 36.8 -69.95 14 -64.35 -11.35 -58.1 -34.45 -48.25
L -34.2 -46.55 -27.25 -47.3
Q -26.85 -47.3 -26.35 -46.4
L -25.9 -45.55 -20.8 -47.05
Q -15.05 -48.6 -11.65 -48.6 -6.45 -48.6 -3.7 -47.55
L -1.8 -46.5
Q 5.65 -46.5 12.3 -48.35 20.65 -50.7 25.55 -55.5 26.8 -56.7 36.25 -60.95 43.85 -64.4 44.7 -68.65
M 8.55 -105.75
Q 8.55 -105.2 11.15 -102.1 14.15 -98.6 16.05 -98.6
L 53.25 -124.65
Q 66.3 -133.1 73.65 -139.8 79.65 -145.25 79.65 -147.25 79.65 -156.85 68.55 -153.9 59.15 -151.4 44.1 -140.85 30.6 -131.4 19.65 -120.65 8.55 -109.75 8.55 -105.75 Z"/>
</g>

<g id="Graphics_Symbol_713_0_Layer3_0_FILL">
<path fill="#CEFF85" stroke="none" d="
M -43.65 -73.85
Q -45.75 -74.15 -46.8 -72.35
L -47.45 -70.5
Q -47.45 -69.3 -46.5 -68.75 -45.4 -68.1 -42.6 -68.1
L -40.65 -68.3
Q -42.05 -70.55 -43.65 -73.85
M -37.25 -69.3
Q -36.4 -70.55 -37.4 -71.95 -38.5 -73.5 -41.1 -73.9
L -37.25 -69.3
M 32.45 -91.9
L 32.65 -92.1
Q 31.45 -94.05 28.05 -94.3 24.95 -94.55 23.7 -93.4
L 31.65 -91.85 32.45 -91.9
M 30.55 -88.7
L 31.65 -89.3 22.75 -90.4
Q 23.6 -89.45 25.15 -88.75 26.65 -88.05 27.65 -88.05 28.6 -88.05 30.55 -88.7 Z"/>

<path fill="#006600" stroke="none" d="
M -37.25 -63.1
Q -38.3 -65.6 -38.85 -65.8
L -39.8 -64.15 -40.15 -63.2
Q -40.15 -62.5 -39.35 -61.65 -38.4 -60.6 -36.9 -60.15
L -36.25 -60.3 -37.25 -63.1
M -28 -71.05
Q -28 -72.2 -29.2 -73 -30.4 -73.8 -32.1 -73.8 -33.8 -73.8 -35 -73 -36.2 -72.2 -36.2 -71.05 -36.2 -69.9 -35 -69.1 -33.8 -68.3 -32.1 -68.3 -30.4 -68.3 -29.2 -69.1 -28 -69.9 -28 -71.05
M -28.6 -62.75
L -28.6 -66.55 -35.5 -66.55 -35.5 -62.75 -28.6 -62.75
M 35.6 -82.3
L 39.45 -84.25
Q 42.85 -86.2 43.95 -88.05
L 36.9 -88.7 35.6 -82.3
M 34.4 -88.6
Q 33.75 -88.7 32.75 -87.95 31.55 -86.95 31.55 -85.3
L 31.7 -83.45 32.35 -83.05 33.1 -82.35
Q 34.4 -87.55 34.4 -88.6
M 33.5 -92.6
Q 33.85 -92.15 35.1 -92
L 35.35 -94.05 33.5 -92.6
M 39.55 -93.55
L 39.25 -94.8 38.55 -95.35
Q 38.15 -95.35 37.85 -94.8 37.55 -94.3 37.55 -93.55 37.55 -92.8 37.85 -92.25 38.15 -91.75 38.55 -91.75
L 39.25 -92.25 39.55 -93.55 Z"/>
</g>

<g id="Graphics_Symbol_713_0_Layer2_0_FILL">
<path fill="#000000" fill-opacity="0.25098039215686274" stroke="none" d="
M -4.6 -51.65
Q -5 -53.5 -6.95 -53.5 -19.1 -53.5 -24.05 -51.85 -28.45 -50.35 -28.45 -47 -28.45 -44.45 -25.45 -43 -22.75 -41.7 -18.55 -41.7 -9.25 -41.7 -5.55 -47.6 -4.2 -49.85 -4.6 -51.65
M 66.5 -72.75
L 67 -78
Q 63.5 -75.7 59.75 -66.65
L 55.05 -53.95 49.15 -48.35
Q 41.95 -41.9 37.2 -36.85 32.85 -32.25 29.2 -24.7 25.85 -17.9 22.95 -15.45 18.1 -11.35 7.3 -9.5 -5 -7.4 -29.05 -7.4 -32.6 -7.4 -36.55 -9.9 -40.25 -12.25 -40.25 -13.75 -40.25 -17.4 -38.35 -19.75
L -36.5 -21.9
Q -36.5 -23.5 -36.85 -24.05 -37.35 -24.8 -39.05 -25.15
L -55.75 -26.75 -53.35 -28.95
Q -52.5 -29.8 -52.5 -30.25
L -59.5 -38.7
Q -66.5 -47.8 -66.5 -51.25 -66.5 -53.75 -63.4 -60.2 -60.75 -65.55 -57.75 -70.25
L -57.45 -69.1
Q -56.3 -64.7 -55.6 -63.9 -54.05 -62.1 -49.15 -62.25 -49.55 -62.25 -49.8 -63
L -50 -64.5
Q -50 -67.3 -47 -70.45 -42.6 -75.1 -34.15 -75.1
L -29.95 -74.3
Q -29.75 -74.3 -26.65 -78.6 -23.45 -83.05 -23.45 -83.8
L -24 -86.15
Q -25.15 -88.5 -27.95 -88.5
L -49.15 -87.7 -50.05 -87.95 -51 -88.5
Q -52.2 -85.5 -55.5 -85.65
L -61.25 -85.7
Q -64.95 -84.5 -66.55 -82.9 -67.45 -82 -67.45 -81.25
L -66.9 -80.5 -65 -78.55
Q -65.8 -77.75 -66.65 -77.25
L -68.55 -76.25
Q -71.25 -67.85 -74.55 -61.05 -76.5 -57.1 -76.5 -54.1 -76.5 -52.6 -74.65 -47.3
L -69.05 -33.45
Q -67.9 -31.2 -66.75 -30.05 -63.95 -27.1 -60.4 -22.2
L -57.35 -17.65 -57.25 -15.75
Q -56.85 -14.5 -55 -14.5 -53.2 -14.5 -52.65 -16.5 -52.4 -17.55 -52.5 -18.65 -52.5 -19.8 -53.05 -20.8
L -43.5 -20 -45.8 -15.5
Q -46.5 -14.25 -46.5 -13.6 -46.5 -12.7 -44.55 -10.4 -42.2 -7.6 -38.45 -4.85 -41.25 -3.9 -42.6 -1.75 -43.5 -0.3 -43.5 1 -43.5 5.1 -38.85 8.15 -33.8 11.5 -26 11.5 -23.6 11.5 -5.25 5.75
L 45.2 -10.2
Q 57.05 -13.9 64.8 -27.1 72.5 -40.15 72.5 -56.3
L 71.45 -61.9 68.75 -67.65
Q 66.5 -72.35 66.5 -72.75
M 35.3 -116.65
Q 20.95 -107.9 20.95 -104.45
L 22.6 -100.6
Q 20.2 -99.35 18.2 -97.8
L 16.55 -96.35
Q 16.55 -95.75 16.9 -95.35
L 17.7 -94.4
Q 20.55 -91.5 20.55 -90.5
L 20.1 -89 19.55 -87.85
Q 19.7 -86.9 20.15 -86.3 19.15 -89.45 23.85 -92.75 28.6 -96.15 34.4 -96.15 40.5 -94.85 42.4 -93.75 51.55 -105 58.25 -112.45 60.55 -115 60.55 -116.05
L 60.5 -116.6 59 -116.9 58.8 -119.5
Q 58.8 -120 59.2 -120.5 59.55 -121.05 59.55 -121.55 59.55 -122.35 58.45 -123.4 56.6 -125.1 52.8 -125.1 49.15 -125.1 35.3 -116.65
M 15 -157.35
Q 5.85 -160.15 0.65 -160.15 -8.75 -160.15 -15.9 -154.15 -23.3 -148 -34.55 -130.4
L -45.15 -113.7
Q -49.5 -106.5 -49.5 -105.1 -49.5 -101.55 -44.05 -100.15
L -38.5 -99.5
Q -32.65 -99.5 -19.05 -121
L -9.6 -135.8
Q -4.95 -142.5 -3 -142.5 2.9 -142.5 11.8 -140.25
L 25.85 -136.35
Q 33.1 -134.55 36.35 -135.25 40.5 -136.15 40.5 -141.25 40.5 -141.8 38.45 -143.3 35.5 -145.4 33.85 -147.1 27.6 -153.5 15 -157.35 Z"/>
</g>

<g id="Graphics_Symbol_713_0_Layer1_0_FILL">
<path fill="#FFFFFF" fill-opacity="0.25098039215686274" stroke="none" d="
M 49.85 -76.4
Q 53.55 -79.7 53.55 -82.65 53.55 -86.05 51.8 -87.4 50.6 -88.35 48.25 -88.35 45.3 -88.35 39.35 -84.9 33.35 -81.5 32.6 -81.5
L 24.55 -81.75
Q 24.65 -83.85 24.1 -84.7 23.55 -85.5 22.05 -85.5 20.45 -85.5 19.95 -84.85 19.5 -84.25 19.5 -82.45 19.5 -80.75 20.8 -78.9
L 22.55 -76.75
Q 4.65 -71.2 -4.3 -67.4 -8.55 -65.65 -17.25 -64.05 -16.45 -69.95 -16.45 -73.55 -16.45 -78.4 -18.3 -78.4 -20.55 -78.4 -22.5 -75.7 -23.5 -74.3 -25.75 -69.7 -30.05 -61 -34.6 -61 -40.7 -61 -41.4 -62.75
L -42 -63.95
Q -42.7 -64.5 -44.95 -64.5 -49.5 -64.5 -53.85 -61.25 -57.45 -58.6 -57.45 -57.5 -57.45 -55.55 -52.2 -54.55
L -36.6 -53.5 -30.45 -53.6
Q -30.6 -52.15 -29.85 -51.3 -29.2 -50.5 -27.95 -50.5 -6.15 -50.5 17.75 -60.7 29.75 -65.8 37.35 -71
L 37.1 -71.95
Q 45 -72.05 49.85 -76.4 Z"/>
</g>

<g id="Graphics_Symbol_713_0_Layer0_0_FILL">
<path fill="#E7E3BC" stroke="none" d="
M -32.4 -54.45
Q -26.95 -57 -22.3 -61.05 -32.35 -59.7 -40.1 -57.2 -47 -54.95 -48.25 -53.15 -47.7 -52.4 -46.65 -51.8 -45.8 -51.3 -45.55 -51.3 -39.15 -51.3 -32.4 -54.45
M -22.15 -102.55
Q -24.2 -101.75 -24.2 -100.6 -24.2 -99.45 -22.15 -98.65 -20.1 -97.85 -17.2 -97.85 -14.3 -97.85 -12.25 -98.65 -10.2 -99.45 -10.2 -100.6 -10.2 -101.75 -12.25 -102.55 -14.3 -103.35 -17.2 -103.35 -20.1 -103.35 -22.15 -102.55
M -47.8 -99.4
Q -54.95 -99.9 -79.95 -99.8
L -82.05 -98.05 -83.8 -98 -83.8 -98.05 -85.2 -100.1
Q -85.85 -100.85 -86.05 -100.85
L -97.85 -99.9
Q -103.85 -98.8 -106.05 -97.25 -107.85 -96.05 -107.85 -93.9
L -107.65 -92.8 -107.5 -92.45 -104.7 -92.4 -101.2 -92.95
Q -98.3 -93.55 -97.1 -94.05 -95.9 -94.55 -94.85 -95.65 -95.6 -96.3 -96.45 -96.75
L -83.35 -96.85 -80.9 -96.5 -78.15 -95.45 -76.9 -95.5 -76.4 -95.6 -76.3 -97.7 -55.55 -96.5
Q -55.4 -94.95 -54.55 -93.8
L -49.4 -93.25 -46.75 -93.35
Q -46 -93.6 -45.75 -94.85
L -47.5 -96 -44.95 -96.45 -30.5 -93.85
Q -27.25 -93.85 -23.75 -95.35
L -23.7 -95.4
Q -24.45 -96.65 -35.1 -101.4
L -37.05 -100.15
Q -38.85 -98.9 -39.8 -98.9
L -47.8 -99.4
M 20 -61
L 20.2 -61.4 20.05 -62.05 -0.1 -57.35 -2.7 -54.85 -2.5 -53.8 -2.3 -53.35 -1.15 -53.3
Q 1 -53.3 5.6 -55.05
L 20 -61
M 42.2 -75.9
Q 49.15 -77.95 50.65 -79.05 45.85 -82.1 35.7 -81.2 24.8 -80.2 24.8 -74.65 24.8 -74.1 25.35 -73.65 25.8 -73.3 26.05 -73.3 33.25 -73.3 42.2 -75.9
M 40.3 -133.7
L 37.45 -129.7 26.05 -122.1
Q 16.3 -115.55 16.3 -113.9 16.3 -113.25 16.45 -113.15
L 16.95 -112.95
Q 17.1 -112.4 13.6 -111.4
L 11.3 -112.85
Q 10.5 -112.85 8.95 -111.25 7.3 -109.6 7.3 -108.4
L 8.4 -106.9 15.7 -108.9
Q 19.8 -110.4 19.8 -112.55
L 19.75 -113.05 19.55 -112.95 18.35 -112.9 37.85 -126.9
Q 38.45 -126.9 38.9 -126.4
L 39.3 -125.9
Q 40.3 -126.6 41.55 -129.4
L 42.9 -132.6 43.45 -131.65 44.6 -128.4
Q 44.9 -127.9 46.1 -127.9
L 47.7 -128.15 47.8 -134.65 50.85 -134.45
Q 51.55 -134.65 52.3 -135.15
L 50.55 -136.9 55.05 -138.75
Q 60.25 -141 69.05 -145.6 69.55 -146.5 69.2 -147.5 68.75 -148.7 67.25 -148.7 63.35 -148.7 57.7 -145.4 53.85 -143.2 40.3 -133.7 Z"/>

<path fill="#B0AA88" stroke="none" d="
M -66.85 -90.65
L -69.45 -91.25 -83.2 -90.5 -68.25 -90.5 -66.85 -90.65
M -54.55 -93.8
Q -55.4 -94.95 -55.55 -96.5
L -76.3 -97.7 -76.4 -95.6 -76.9 -95.5 -78.15 -95.45 -80.9 -96.5
Q -80.8 -95.4 -81.45 -94.1
L -72.45 -95.9
Q -69.5 -95.9 -67.7 -94.75 -65.6 -93.4 -65.8 -90.8
L -63.8 -91.1 -64.1 -92.4
Q -63.25 -93.75 -61.1 -93.75
L -54.55 -93.8
M -18.75 -88.6
L -10.1 -88.95
Q -7.45 -89.55 -7.45 -92.15 -7.45 -94.1 -10 -94.5
L -23.75 -95.35
Q -27.25 -93.85 -30.5 -93.85
L -44.95 -96.45 -47.5 -96 -45.75 -94.85
Q -46 -93.6 -46.75 -93.35
L -49.4 -93.25 -38.5 -92.45
Q -35.75 -92.2 -35.75 -91.15 -35.75 -90 -36.7 -89.35
L -18.75 -88.6
M -101.25 -89.6
L -92.85 -90.5 -91.3 -91.1 -102 -90.35
Q -104.15 -90.35 -104.65 -90.85
L -104.75 -91.6 -104.7 -92.4 -107.5 -92.45 -107.6 -91.05
Q -107.6 -90.15 -106.6 -89.9
L -101.25 -89.6
M -89.3 -94.75
Q -84.2 -96.15 -83.35 -96.85
L -96.45 -96.75
Q -95.6 -96.3 -94.85 -95.65 -95.9 -94.55 -97.1 -94.05 -98.3 -93.55 -101.2 -92.95 -95.8 -92.95 -89.3 -94.75
M -83.8 -98.05
L -83.8 -98 -82.05 -98.05 -83.8 -98.05
M 20 -61
L 5.6 -55.05
Q 1 -53.3 -1.15 -53.3
L -2.3 -53.35 -2.5 -53.8 -2.7 -54.85 -0.1 -57.35
Q -1.95 -56.45 -8.2 -53.65 -9.45 -53.1 -9.45 -52.25 -9.45 -50.85 -8.5 -50.2 -7.45 -49.5 -4.95 -49.5 7.65 -49.5 15.2 -53.35 20.8 -56.2 20.8 -58.65 20.8 -59.6 20 -61
M 13.6 -111.4
Q 17.1 -112.4 16.95 -112.95
L 13.6 -111.4
M 38.9 -126.4
Q 38.45 -126.9 37.85 -126.9
L 18.35 -112.9 19.55 -112.95 19.75 -113.05 19.8 -112.55
Q 19.8 -110.4 15.7 -108.9
L 8.4 -106.9 6.55 -101.75
Q 6.55 -100.05 7.4 -99.2 8.05 -98.6 9.05 -98.6 10.65 -98.6 12.95 -100.3
L 17.35 -103.8
Q 17.35 -107.35 20.4 -109.85 23.4 -112.4 27.65 -112.4
L 32.6 -115.45
Q 32.6 -120.25 37.75 -123.6 42.9 -127 50.15 -127
L 50.9 -127.55 49.75 -127.95 48.3 -129.3
Q 49.3 -130.15 52.5 -134.55 56.1 -138.5 59.95 -138.5
L 62.2 -138.4 62.3 -136.3
Q 65.1 -136.3 67.1 -139 69.05 -141.75 69.05 -145.6 60.25 -141 55.05 -138.75
L 50.55 -136.9 52.3 -135.15
Q 51.55 -134.65 50.85 -134.45
L 47.8 -134.65 47.7 -128.15 46.1 -127.9
Q 44.9 -127.9 44.6 -128.4
L 43.45 -131.65 42.9 -132.6 41.55 -129.4
Q 40.3 -126.6 39.3 -125.9
L 38.9 -126.4
M 37.45 -129.7
L 40.3 -133.7
Q 39.1 -133.7 38.3 -132.5 37.45 -131.35 37.45 -129.7 Z"/>

<path fill="#5A5540" stroke="none" d="
M -83.35 -96.85
Q -84.2 -96.15 -89.3 -94.75 -95.8 -92.95 -101.2 -92.95
L -104.7 -92.4 -104.75 -91.6 -104.65 -90.85
Q -104.15 -90.35 -102 -90.35
L -91.3 -91.1 -92.85 -90.5 -93.8 -89.25
Q -93.7 -87.95 -91.9 -87.85
L -83.2 -90.5 -69.45 -91.25 -66.85 -90.65 -68.25 -90.5 -71.05 -89.7
Q -71.8 -89.5 -71.8 -88.9
L -70.55 -87.35 -55.95 -88.75
Q -54.1 -88.75 -52 -87.1 -49.85 -85.45 -48.85 -85.45 -46 -85.45 -42.2 -87.05
L -36.7 -89.35
Q -35.75 -90 -35.75 -91.15 -35.75 -92.2 -38.5 -92.45
L -49.4 -93.25 -54.55 -93.8 -61.1 -93.75
Q -63.25 -93.75 -64.1 -92.4
L -63.8 -91.1 -65.8 -90.8
Q -65.6 -93.4 -67.7 -94.75 -69.5 -95.9 -72.45 -95.9
L -81.45 -94.1
Q -80.8 -95.4 -80.9 -96.5
L -83.35 -96.85
M 62.3 -136.3
L 62.2 -138.4 59.95 -138.5
Q 56.1 -138.5 52.5 -134.55 49.3 -130.15 48.3 -129.3
L 49.75 -127.95 50.9 -127.55
Q 52.7 -127.65 57.35 -131.45 61.65 -135 62.3 -136.3
M 37.75 -123.6
Q 32.6 -120.25 32.6 -115.45 37.05 -112.55 44.1 -117.95 49.5 -122.05 52.3 -126.8
L 51.6 -127.15 50.15 -127
Q 42.9 -127 37.75 -123.6
M 17.35 -103.8
L 17.45 -101.9 17.55 -101.5 17.55 -101.4 18.3 -101.35
Q 19.65 -101.35 20.5 -102.65 21.45 -104.15 22.1 -107.75
L 22.8 -106.15
Q 23 -105.85 23.6 -105.85 24.4 -105.85 26 -107.45 27.95 -109.35 27.8 -111.25
L 27.65 -112.4
Q 23.4 -112.4 20.4 -109.85 17.35 -107.35 17.35 -103.8 Z"/>
</g>
</defs>

<g transform="matrix( 1, 0, 0, 1, 0,0) ">
<g transform="matrix( 1, 0, 0, 1, 0,0) ">
<use xlink:href="#Parts_Hats_hatsMC_13_Layer9_0_FILL"/>
</g>

<g transform="matrix( 1, 0, 0, 1, 0,0) ">
<g transform="matrix( 1, 0, 0, 1, 0,0) ">
<use xlink:href="#Graphics_Symbol_713_0_Layer6_0_FILL"/>
</g>

<g transform="matrix( 1, 0, 0, 1, 0,0) ">
<use xlink:href="#Graphics_Symbol_713_0_Layer5_0_FILL"/>
</g>

<g transform="matrix( 1, 0, 0, 1, 0,0) ">
<use xlink:href="#Graphics_Symbol_713_0_Layer4_0_FILL"/>
</g>

<g transform="matrix( 1, 0, 0, 1, 0,0) ">
<use xlink:href="#Graphics_Symbol_713_0_Layer3_0_FILL"/>
</g>

<g transform="matrix( 1, 0, 0, 1, 0,0) ">
<use xlink:href="#Graphics_Symbol_713_0_Layer2_0_FILL"/>
</g>

<g transform="matrix( 1, 0, 0, 1, 0,0) ">
<use xlink:href="#Graphics_Symbol_713_0_Layer1_0_FILL"/>
</g>

<g transform="matrix( 1, 0, 0, 1, 0,0) ">
<use xlink:href="#Graphics_Symbol_713_0_Layer0_0_FILL"/>
</g>
</g>
</g>
</svg>
