
<svg xmlns="http://www.w3.org/2000/svg" version="1.1" xmlns:xlink="http://www.w3.org/1999/xlink" preserveAspectRatio="none" x="0px" y="0px" width="550px" height="400px" viewBox="0 0 550 400">
<defs>
<g id="Layer0_0_FILL">
<path fill="#FFFFFF" stroke="none" d="
M 35.85 11.3
L 34.6 9.45
Q 33.35 5.15 28.4 2.45 24.05 0.05 19.2 0 13.8 0 8.45 2.85 3 5.7 0.1 10.15 -0.1 10.45 0.1 11.05 0.25 11.7 0.65 11.45 1.25 11.05 4.5 8.7 6.85 7 8.5 6.1 13.2 3.65 18.4 3.55 23.35 3.3 27.6 5.95 29.15 6.95 30.75 8.85 31.65 9.95 33.45 12.2
L 33.65 12.4 34.6 14.6 34.8 15.25 34.95 15.55 34.95 15.65
Q 35.1 16.15 35.35 17.25 35.55 18.25 36 18.7 36.45 19.4 37.15 18.95 37.45 18.8 37.55 18.35 38 16.3 37.15 14.35 36.55 12.6 35.85 11.3 Z"/>
</g>
</defs>

<g transform="matrix( 1, 0, 0, 1, 0,0) ">
<use xlink:href="#Layer0_0_FILL"/>
</g>
</svg>
