
<svg xmlns="http://www.w3.org/2000/svg" version="1.1" xmlns:xlink="http://www.w3.org/1999/xlink" preserveAspectRatio="none" x="0px" y="0px" width="550px" height="400px" viewBox="0 0 550 400">
<defs>
<g id="Layer0_0_FILL">
<path fill="#6F1A11" stroke="none" d="
M 47.35 35.65
L 45.45 30.05 53.35 23.75 66.15 18.45 55.25 22.2 66.25 14
Q 53.1 17.7 44.7 28.4
L 38.25 10 43.75 29.4 38.4 34.25 38.2 30.85 36.4 33.25 37.25 27 35.55 29.55 38.25 21
Q 32.1 35.8 34.75 51.55
L 35.45 36.95 45.15 91.35 39.4 53.05 44.2 78.35
Q 41.85 59.55 41.9 35.95 41.9 34.45 42.25 33
L 38.75 41.85 38.4 34.5 44.45 30.8 47.6 36.7 48 37.5 47.35 35.65
M 54.8 87.9
L 56.7 91.7 48 89.75 58.25 94.5 54.8 87.9
M 20.8 66.55
L 21.3 73.15 24.25 46 12.6 78.4 20.4 45.75 2.5 89.5 10.5 81.55 8.05 85.55 10.9 83.5 11.4 85.75 20.9 78.45 16.35 77.8 20.8 66.55
M 30.1 73.7
L 28.9 68.8 29.4 75.2 26.5 77.35 29.45 76.9 29.5 81.85 23.15 83.35 24.35 63.1 21.8 83.7 14.2 88.15 21.65 84.95 21.7 89.15 23 84.5 29.4 83.55 29.4 89.6 17.5 94.5 23 94.75 29.5 90.5 30.35 88 32.55 90.4 33.3 94.1 33.9 91.65 40.25 96.05 34.25 90.4 39.15 71.95 36.4 65.7 35.95 70.05 31.45 73.45 29.9 47.45 30.1 73.7
M 30.75 81.9
L 34.55 80.35 32.75 89.05 31.1 87.35 32 84.2 30.8 86.95 30.75 81.9
M 35.95 78.25
L 35.5 76.15 34.65 79.55 30.8 81.45 31.2 76.55 37.15 73.75 35.95 78.25
M 26.5 13.55
L 26.25 6
Q 22.35 32.35 26.95 57.6
L 28.95 20.4 30 10.3 29.15 17.05 27.45 11.6 26.5 13.55
M 36.25 9
L 33.4 17.75 33.5 9 29.95 39.55 31.5 28.75 31.5 31.5 36.25 9 Z"/>

<path fill="#824217" stroke="none" d="
M 77.15 7.9
L 74.95 6.75 44.95 23.35 39 0 35.2 4.75 32.45 3.1 29.6 6.95 29 4.25 26 4.5 24.3 3.35 22.35 3.65
Q 20.75 47.45 0 86
L 0.45 88.75
Q 22.3 104.15 47.9 99
L 50.9 98.25 51.25 94.5 62.2 97.25 62.95 96.05 47.6 36.7 44.45 30.8 38.4 34.5 38.75 41.85 42.25 33
Q 41.9 34.45 41.9 35.95 41.85 59.55 44.2 78.35
L 39.4 53.05 45.15 91.35 35.45 36.95 34.75 51.55
Q 32.1 35.8 38.25 21
L 35.55 29.55 37.25 27 36.4 33.25 38.2 30.85 38.4 34.25 43.75 29.4 38.25 10 44.7 28.4
Q 53.1 17.7 66.25 14
L 55.25 22.2 66.15 18.45 53.35 23.75 45.45 30.05 47.35 35.65
Q 66.5 26.3 77.15 7.9
M 33.4 17.75
L 36.25 9 31.5 31.5 31.5 28.75 29.95 39.55 33.5 9 33.4 17.75
M 26.25 6
L 26.5 13.55 27.45 11.6 29.15 17.05 30 10.3 28.95 20.4 26.95 57.6
Q 22.35 32.35 26.25 6
M 28.9 68.8
L 30.1 73.7 29.9 47.45 31.45 73.45 35.95 70.05 36.4 65.7 39.15 71.95 34.25 90.4 40.25 96.05 33.9 91.65 33.3 94.1 32.55 90.4 30.35 88 29.5 90.5 23 94.75 17.5 94.5 29.4 89.6 29.4 83.55 23 84.5 21.7 89.15 21.65 84.95 14.2 88.15 21.8 83.7 24.35 63.1 23.15 83.35 29.5 81.85 29.45 76.9 26.5 77.35 29.4 75.2 28.9 68.8
M 21.3 73.15
L 20.8 66.55 16.35 77.8 20.9 78.45 11.4 85.75 10.9 83.5 8.05 85.55 10.5 81.55 2.5 89.5 20.4 45.75 12.6 78.4 24.25 46 21.3 73.15
M 56.7 91.7
L 54.8 87.9 58.25 94.5 48 89.75 56.7 91.7
M 35.5 76.15
L 35.95 78.25 37.15 73.75 31.2 76.55 30.8 81.45 34.65 79.55 35.5 76.15
M 34.55 80.35
L 30.75 81.9 30.8 86.95 32 84.2 31.1 87.35 32.75 89.05 34.55 80.35 Z"/>
</g>
</defs>

<g transform="matrix( 1, 0, 0, 1, 0,0) ">
<use xlink:href="#Layer0_0_FILL"/>
</g>
</svg>
