
<svg xmlns="http://www.w3.org/2000/svg" version="1.1" xmlns:xlink="http://www.w3.org/1999/xlink" preserveAspectRatio="none" x="0px" y="0px" width="550px" height="400px" viewBox="0 0 550 400">
<defs>
<g id="Layer0_0_FILL">
<path fill="#000000" fill-opacity="0.25098039215686274" stroke="none" d="
M 28.55 13.8
L 25.75 18.15 24.5 28.3
Q 26.1 29 24.75 30.15
L 24.1 30.85
Q 17.25 46.85 18.5 64.6
L 18.5 65.1
Q 18.4 68.4 16.85 72.8
L 12.6 84.5 17.6 79.3
Q 20.25 74.5 30 47
L 28.55 13.8
M 37.65 2.7
Q 36.95 2.95 36.2 3.35
L 31.5 6.85 33.05 11.15 25.4 3.6 20.9 6.1 23.5 7.95 24.55 8.4 33.1 12.3 34.75 20 37 20.25 37.45 17.4 37.5 38.5 41.65 2.3 37.65 2.7
M 73.2 16.05
L 72.05 14.1 44.05 31.8 43 29.25 40.25 40.2 35.75 40.5 33.55 26.65
Q 28.15 39.75 36.2 51.55
L 34.2 67.6 31.4 63.85 26.5 71.55 25.9 66.45 27.55 58.7 27 58 16.9 88.95 19.15 89.95 27.3 82.65 29.85 71 33.9 70.35 33.7 71.75 34.1 70.3 36 70 34.7 68.25 37.25 58.8 39.5 83.5 41 81.75 42.95 89.1 43.6 89.05 45.35 82.7 48 87.25 45.1 89 47.2 90.9 24.05 96.4 23.75 98.65
Q 38.3 105.9 51.25 95.95
L 52.95 94.6 59.65 96 45.35 35.4 73.2 16.05 Z"/>

<path fill="#FFFFFF" fill-opacity="0.25098039215686274" stroke="none" d="
M 23.9 16.5
Q 22.6 17.65 20.75 17.65
L 0.9 87.55 4.85 88.65 3 90 10.85 95.2 11 95 23.75 98.65 24.05 96.4 47.2 90.9 45.1 89 43.6 89.05 42.95 89.1 26.65 91.3 27.2 86.3 23.25 92.2 19.15 89.95 16.9 88.95 27 58 27.55 58.7 30 47
Q 20.25 74.5 17.6 79.3
L 12.6 84.5 16.85 72.8 18.5 65.1 18.5 64.6
Q 17.25 46.85 24.1 30.85
L 24.5 28.3 25.75 18.15 25.2 13.7
Q 25.2 15.35 23.9 16.5
M 24.55 8.4
L 23.5 7.95 23.3 8.7 24.6 8.8 24.55 8.4
M 36.2 3.35
Q 36.95 2.95 37.65 2.7
L 35.95 2.45 36.2 3.35
M 64.2 16.25
Q 64.2 13.8 65.8 12.05
L 46.1 24.8 64.2 16.25
M 58.35 17.15
L 59 17
Q 56.95 17.9 58.35 17.15
M 69.2 10.1
L 70.3 10 74.05 7.3 69.2 10.1
M 70.75 10.6
L 70.75 10.85
Q 70.75 11.65 69.4 13.05
L 75.05 8.75 70.75 10.6 Z"/>

<path fill="#FFFFFF" fill-opacity="0.5019607843137255" stroke="none" d="
M 24.6 8.8
L 23.3 8.7 20.75 17.65
Q 22.6 17.65 23.9 16.5 25.2 15.35 25.2 13.7
L 24.6 8.8
M 70.75 10.6
Q 70.85 10.2 70.5 10.05
L 70.3 10 69.2 10.1 65.8 12.05
Q 64.2 13.8 64.2 16.25
L 69.4 13.05
Q 70.75 11.65 70.75 10.85
L 70.75 10.6 Z"/>
</g>
</defs>

<g transform="matrix( 1, 0, 0, 1, 0,0) ">
<use xlink:href="#Layer0_0_FILL"/>
</g>
</svg>
