
<svg xmlns="http://www.w3.org/2000/svg" version="1.1" xmlns:xlink="http://www.w3.org/1999/xlink" preserveAspectRatio="none" x="0px" y="0px" width="550px" height="400px" viewBox="0 0 550 400">
<defs>
<g id="Graphics_Symbol_850_0_Layer2_0_FILL">
<path fill="#000000" fill-opacity="0.14901960784313725" stroke="none" d="
M 110.7 49.75
Q 99.65 54.4 87.5 57.8
L 76.65 60.7 75.35 62 75.65 63.55 79.45 70
Q 83.8 77.25 86.7 81.1 89.7 85.1 95 96.65 102.35 112.65 103.45 114.75
L 99.25 115.15 87.55 116.65 77 119.65 103.5 126.2 108.1 124.4
Q 106.65 122.9 106.8 121.85
L 107.35 116.35 107.05 115.3
Q 106.75 114.75 106.75 114.25
L 106.35 112.2 105.9 110.15 110.7 49.75
M 89.8 93.2
L 88.05 91.9 66.6 96.45 66.95 96.9 67.2 97.45 84.55 109.45 87.25 101.65
Q 89.95 93.75 89.8 93.2 Z"/>
</g>

<g id="Graphics_Symbol_850_0_Layer1_0_FILL">
<path fill="#FFFFFF" fill-opacity="0.25098039215686274" stroke="none" d="
M 85.8 114.85
L 85.75 114.9 82.25 118.05
Q 80.25 120.15 80.2 120.65
L 86.75 118.95 104.05 113.75 99 105.6
Q 90.5 111.05 85.8 114.85
M 44.7 141.45
Q 47.85 141.85 53.35 140.1
L 65.15 135.85
Q 73.6 132.85 80.6 131.2
L 81.5 130.1 72.6 121.05
Q 66.5 123.7 59.15 127.1 44.5 133.85 38.5 137.55 40.9 141 44.7 141.45
M 64.4 97.55
L 63.95 97.85
Q 62.65 98.75 60.7 99.65
L 61.15 100.3
Q 61.9 100.9 63.25 100.85
L 60.85 107
Q 58.4 113.25 58.4 113.85 58.4 114.6 58.9 115.1 59.4 115.6 60.15 115.6
L 67.75 114.4 71.25 113.8 83.15 111.4 65.35 96.65 64.4 97.55
M 57.85 69.5
L 54.95 74.75 22.8 116.8 21.6 118.7
Q 20.4 120.7 20.4 121.3 20.4 122.3 22.05 122.9
L 22.45 122.45
Q 22.95 121.95 23.4 122
L 60.8 93.15 58.05 74.9
Q 58.75 74.9 58.95 72.95 59.15 70.85 57.85 69.5 Z"/>
</g>

<g id="Graphics_Symbol_850_0_Layer0_0_FILL">
<path fill="#FFFFFF" stroke="none" d="
M 97.35 106.35
Q 95.1 106.35 88.05 112.3 81.4 117.85 80.6 119.55
L 81.1 120.7 81.45 121 82.5 121.25 87.3 116.85 94.15 110.7
Q 97.8 107.8 97.35 106.35
M 61.95 113.65
Q 63.4 109.6 65.25 99.55
L 64.95 99.3
Q 62.55 101.65 58.4 114.05 58.4 114.55 58.9 115.1
L 60.4 116.6 61.95 113.65
M 71.15 123.25
Q 73.8 121.85 68.55 123.25 63.25 124.65 55.15 128.25 47 131.8 39.05 137.8
L 57.7 129.55 71.15 123.25
M 57.85 74.75
L 57.2 74.5 56.35 74.15 39.95 94.9
Q 25.4 113.3 22.25 118.35
L 22.4 119.1
Q 22.85 119.75 23.95 119.75 25.55 119.75 41.35 99.6 57.5 79 57.85 74.75 Z"/>
</g>
</defs>

<g transform="matrix( 1, 0, 0, 1, -62.75,-76.85) ">
<g transform="matrix( 1, 0, 0, 1, 0,0) ">
<g transform="matrix( 1, 0, 0, 1, 0,0) ">
<use xlink:href="#Graphics_Symbol_850_0_Layer2_0_FILL"/>
</g>

<g transform="matrix( 1, 0, 0, 1, 0,0) ">
<use xlink:href="#Graphics_Symbol_850_0_Layer1_0_FILL"/>
</g>

<g transform="matrix( 1, 0, 0, 1, 0,0) ">
<use xlink:href="#Graphics_Symbol_850_0_Layer0_0_FILL"/>
</g>
</g>

<g id="hat1" transform="matrix( 0.983917236328125, -0.17529296875, 0.17529296875, 0.983917236328125, 45.2,78.25) ">
<g id="colorMC" transform="matrix( 0.9999847412109375, 0, 0, 0.9999847412109375, 0,0) "/>

<g id="colorMC2" transform="matrix( 1, 0, 0, 1, 0,0) "/>
</g>

<g id="hat2" transform="matrix( 0.9733734130859375, -0.2247314453125, 0.2247314453125, 0.9733734130859375, 38,60.6) ">
<g id="colorMC_FL" transform="matrix( 0.9999847412109375, 0, 0, 0.9999847412109375, 0,0) "/>

<g id="colorMC2_FL" transform="matrix( 1, 0, 0, 1, 0,0) "/>
</g>

<g id="hat3" transform="matrix( 0.96026611328125, -0.2753753662109375, 0.2753753662109375, 0.96026611328125, 26,48.4) ">
<g id="colorMC_FL_FL" transform="matrix( 0.9999847412109375, 0, 0, 0.9999847412109375, 0,0) "/>

<g id="colorMC2_FL_FL" transform="matrix( 1, 0, 0, 1, 0,0) "/>
</g>

<g id="hat4" transform="matrix( 0.944580078125, -0.3252410888671875, 0.3252410888671875, 0.944580078125, 18.85,34.5) ">
<g id="colorMC_FL_FL_FL" transform="matrix( 0.9999847412109375, 0, 0, 0.9999847412109375, 0,0) "/>

<g id="colorMC2_FL_FL_FL" transform="matrix( 1, 0, 0, 1, 0,0) "/>
</g>
</g>
</svg>
