
<svg xmlns="http://www.w3.org/2000/svg" version="1.1" xmlns:xlink="http://www.w3.org/1999/xlink" preserveAspectRatio="none" x="0px" y="0px" width="550px" height="400px" viewBox="0 0 550 400">
<defs>
<g id="Layer0_0_FILL">
<path fill="#000000" stroke="none" d="
M 193.85 -3.6
Q 184.15 -15.75 181.2 -18.2 172.45 -25.45 149.9 -18.9 126.05 -12.1 104.2 6.15 94.4 14.5 85.25 17.9 78.4 20.75 72 21.2 65.5 21.85 51.3 18 31.4 12.6 21.55 17.45 15.7 20.3 5.55 30
L -20.25 49.8
Q -41.7 66.25 -41.95 66.65
L -46.35 77.15
Q -50.75 89 -50.65 96
L -49.75 110.65
Q -49.15 119.25 -50.25 120.85
L -66.2 132.5
Q -82.05 144.1 -86.65 150.6 -88.5 153.15 -82.7 160.3 -74.9 169.9 -74.25 171.3
L -74.3 171.8
Q -81.75 176.5 -82.15 177.1 -82.75 177.95 -81.55 179.35
L -65.6 193.35
Q -63.1 195.5 -61.25 198
L -59 200.8
Q -54.05 204.65 -35.7 192 -20.35 181.3 -21.1 179.4 -18.85 177.4 -23.7 172.45 -28.55 167.6 -32.6 159.05 -36.6 150.4 -31 142.5 -25.4 134.4 -13.15 133.35 0.05 132.15 9.75 139.65
L 14.75 144.25
Q 17.85 147.5 18.45 149.3 21.75 148.75 40.55 135.2
L 68.35 115.2
Q 79 109.55 89.7 102.75 110.75 89.5 118.2 78.75 118.9 77.7 116.4 74 112.4 68.2 111.45 66.05 107.25 57.5 109.85 48.85 110.85 44.65 113.35 40.6 118.55 32.55 130.3 32.55 147.05 32.45 167 54.05
L 167.95 54.4
Q 168.4 54.45 169.2 53.5 169.55 52.75 168.95 51.7 168.35 50.45 168.95 49.65 172.25 44.45 175.45 41.4
L 205.4 14.1
Q 205.35 10.45 193.85 -3.6
M 141.75 -9.55
L 143.65 -5.3
Q 145.3 -1.3 148.45 1.25 151.4 3.65 166.85 -2.45 169.3 1.55 171.55 3.5 172.45 4.2 177.65 2.3 183.95 0.05 190.45 -4.1
L 202.6 11.25
Q 173.65 36.9 165.7 47.2 146.95 33.05 133.5 30 117.55 26.6 110 38.45 107.85 41.75 106.75 44.9 104 51.55 105.4 57.5 106.25 61.55 114.55 76.55 95.6 92.35 75.65 105.2 48.55 122.7 19.3 144.6 3.3 131.15 -12.05 129.85 -26.15 128.75 -32.7 138.1 -39.95 148.45 -36.6 159.9 -33.5 170.8 -25.45 178.55
L -23.1 176.7
Q -42.55 193.25 -50.8 197.05 -55.25 199.1 -57.55 197.25
L -58.35 196.7 -57.95 196.2
Q -57.3 195.1 -63.1 190.55
L -77.6 179.2
Q -77.3 178.85 -73.5 176.6
L -69.4 174.1
Q -67.75 171.55 -76 163.15 -84.5 154.5 -83.2 152.6 -82.15 151 -67.05 138.55 -51.6 125.5 -49.55 125.5
L -48.55 126.35
Q -48.15 126.8 -47.85 126.7 -47.5 127.1 -46.8 126.05 -46.4 113.85 -45.1 100.8 -42.8 74.75 -38.8 68.9 -24.9 57.6 -9.05 45.7 21.2 23.2 32.55 19.2
L 32.4 19.2 32.3 19.1 32.75 19.1 32.9 19 33.5 18.75 33.6 18.2 36.35 18.35 34.6 18.75 36.45 18.75 36.2 19.4 41.9 19.7 42.1 19.2
Q 44 16.55 55.75 20 60.75 21.4 64.45 22.7
L 65.75 21.9 67.7 22.15 69.9 23.85 81.75 24.5 103.15 11.15
Q 125.85 -3.5 141.75 -9.55
M 147 -6.3
Q 144.45 -9.8 143.7 -10.25 158.7 -15.4 159.25 -15.4 160.65 -15.5 163.85 -11
L 163.85 -10.1
Q 163.9 -9 164.5 -7.2 159.9 -7.45 154.85 -4.9
L 149.75 -2.2
Q 149.45 -3.05 147 -6.3
M 173.2 -0.2
L 172.5 -0.7
Q 171.5 -1.85 168.15 -9 165 -16.05 163.85 -17 172.05 -19.35 177 -17.1 181.35 -15.35 187.1 -8.1 184.85 -7.95 179.4 -4.35 176.55 -2.3 173.2 -0.2 Z"/>

<path fill="#FFFFDD" stroke="none" d="
M 172.5 -0.7
L 173.2 -0.2
Q 176.55 -2.3 179.4 -4.35 184.85 -7.95 187.1 -8.1 181.35 -15.35 177 -17.1 172.05 -19.35 163.85 -17 165 -16.05 168.15 -9 171.5 -1.85 172.5 -0.7 Z"/>

<path fill="#FFCC55" stroke="none" d="
M 143.7 -10.25
Q 144.45 -9.8 147 -6.3 149.45 -3.05 149.75 -2.2
L 154.85 -4.9
Q 159.9 -7.45 164.5 -7.2 163.9 -9 163.85 -10.1
L 163.85 -11
Q 160.65 -15.5 159.25 -15.4 158.7 -15.4 143.7 -10.25 Z"/>

<path fill="#000000" fill-opacity="0.5019607843137255" stroke="none" d="
M 33.5 18.75
L 33.45 19 34.6 18.75 36.35 18.35 33.6 18.2 33.5 18.75
M 33.5 19.25
L 33.45 19 32.75 19.1 32.3 19.1 32.4 19.2 32.55 19.2 33.5 19.25
M 65.75 21.9
L 64.45 22.7 75.75 25.6 74.9 30.25
Q 74.4 34.35 74.7 35.95 40.5 25.8 38.45 24.65 38.9 22.85 40.1 21.3
L 41.9 19.7 36.2 19.4
Q 34.7 23.1 34.8 24.4 34.95 26.2 37.5 28.25 41.35 31.3 59.85 35.65 77.85 39.75 78.45 38.8 82.35 33.4 81.9 29.5 81.75 28.45 80.05 25.35 80.45 25.4 81.75 24.5
L 69.9 23.85 67.7 22.15 65.75 21.9
M 90.15 87.2
L 97.7 86.2
Q 102.2 79.85 91.15 67.7 84.05 59.8 59.45 42.85 34.8 25.9 24.15 32.3 13.55 38.65 7.8 43.15 2.15 47.55 0.65 49.8 0.55 49.95 0.8 50.65
L -6.4 55.95 -6.65 55.75
Q -8 54.75 -17.55 61.1 -27.25 67.6 -30.65 72.35 -36.2 80.5 -35.05 95.35 -34 108.4 -30.85 110.9 -29.45 112.05 -26.35 116.4
L -23 120.75
Q -20.8 122.5 -17.6 123.3 -14 124.3 -7.5 124.55 -3.85 124.85 4.1 128.3 13.5 132.3 18.95 137.3 26.2 133.7 34.5 127.8 42.65 122.15 44.55 119.7
L 44.2 120.25
Q 49.3 117.6 78.85 94.75
L 79.35 94.85 90.15 87.2
M 91.3 84.75
L 90.4 85.85
Q 87.85 87.1 83.65 90.15 78.6 93.8 78.6 94.15
L 78.6 94.25 68.7 100.55
Q 45.7 114.8 47.35 116.9 30.6 98.4 19.9 76 22.2 73.3 40.6 61.4 60.75 48.35 60.95 46.35 79.75 60.35 87.6 69.05 95.55 77.75 93.4 80.1
L 90.9 82.85
Q 90.55 83.2 91.3 84.75
M 0.5 92.2
Q 10.3 86.9 11.2 85.65 12.35 84.05 4.45 71.05 -1.8 60.9 -5.1 57.2
L 1.55 52.15 14.8 73.45
Q 27.65 94 44.1 118.45 41.75 120.9 37.35 123.15 33 125.35 26 129.75 18.85 133.9 11.7 130.1 4.95 124.25 2.3 123.25 -0.85 122.15 -10.65 120.1 -20.05 118.25 -20.3 118 -21.85 116.75 -23.9 113.45
L -26.85 109.1
Q -13.45 99.95 0.5 92.2
M 40.45 58.75
Q 30.05 67.05 18.1 72.5 5.75 53.45 4.45 50.9 20.75 33.05 32.5 35.05 44.15 37.1 57.4 45.5 50.85 50.4 40.45 58.75
M -7.65 58.65
Q -5.35 64.75 -4.05 67.15 -0.8 73 6.8 81.15 0.45 84.55 -10.7 92.05 -23.5 100.6 -29.3 105.65 -32.3 100.1 -31.15 88.6 -30.05 78.35 -27.5 74.85
L -19.65 68.55
Q -11.05 62.2 -7.65 58.65 Z"/>
</g>
</defs>

<g transform="matrix( 1, 0, 0, 1, 0,0) ">
<use xlink:href="#Layer0_0_FILL"/>
</g>
</svg>
