
<svg xmlns="http://www.w3.org/2000/svg" version="1.1" xmlns:xlink="http://www.w3.org/1999/xlink" preserveAspectRatio="none" x="0px" y="0px" width="550px" height="400px" viewBox="0 0 550 400">
<defs>
<g id="Layer0_0_FILL">
<path fill="#FFFFFF" fill-opacity="0.5019607843137255" stroke="none" d="
M -63.8 180.55
Q -63.8 182.1 -62.1 183.2 -60.45 184.25 -58.1 184.25 -55.75 184.25 -54.05 183.2 -52.4 182.1 -52.4 180.55 -52.4 179 -54.05 177.95 -55.75 176.85 -58.1 176.85 -60.45 176.85 -62.1 177.95 -63.8 179 -63.8 180.55
M -34.5 127.9
Q -29.65 124.6 -32.8 122.1
L -45.05 127.95
Q -50.5 130.45 -50.5 132.3 -50.5 132.8 -50 133.1 -49.5 133.35 -49.5 133.85 -49.5 134.5 -50.2 135.1
L -52.85 137.35
Q -58.8 142.65 -68.05 155.1
L -66.75 156.7
Q -66.05 157.7 -65.45 157.7
L -61.45 156.15
Q -57.75 154.6 -57.3 154.6 -54.75 154.6 -51.8 151.25 -47.5 146.4 -43 135 -41.75 132.8 -34.5 127.9
M -4.8 76.7
Q -4.1 76.7 -3.35 76.25 -2.4 75.7 -2.4 74.75 -2.4 72.55 -5.1 69.75 -8.1 66.65 -11.4 66.65 -13.8 66.65 -13.8 68.8 -13.8 70.75 -11.05 73.6 -7.95 76.7 -4.8 76.7
M 22.9 93.15
Q 19.95 88.7 17.55 88.7 11.4 88.7 -0.7 98.4 -11.95 107.45 -11.95 109.8 -11.95 110.55 -10.75 111.2 -9.75 111.75 -9.15 111.75 -5.7 111.75 1.5 107.45 13.15 100.5 18.75 97.85 19.95 99.55 24.9 103 29.75 106.4 35.1 113.95
L 22.9 93.15
M 27.75 38.65
Q 23.6 38.65 22.4 39.7 21.3 40.65 23 42.05 27.15 45.4 36.65 45.4 38.5 45.4 39.35 44.85
L 40.3 43.8
Q 36.35 38.65 27.75 38.65
M 44.3 16.9
Q 43.2 16.9 41.65 19.1 43.6 22.1 54.35 25.4 64.9 28.7 72 28.7 75.15 28.7 75.8 27.1
L 76.35 27.35 76.3 27.25
Q 74.45 25.55 61.25 21.25 47.9 16.9 44.3 16.9
M 87.9 71.85
L 87.85 71.7 69.4 59.05
Q 63.05 54.8 60.8 54.8 59.5 54.8 50.1 61.65
L 39.45 69.4
Q 30.9 74.5 27.9 77 26.2 78.4 26.2 79.25 26.2 79.95 26.35 80.25 26.75 81.15 28.25 81.15 32.95 81.15 47.65 72.45
L 62.2 63.75 87.9 71.85
M 181.85 3.7
Q 181.2 1.8 179.9 0.55 176.1 -3.3 165.4 -3.3 141.7 -3.3 113.1 18.5
L 94.8 33.45
Q 86.6 40.25 84.1 40.25
L 77.5 40.65
Q 71.75 41.8 71.75 45.75
L 72 48.25 74.5 48.4
Q 81.9 48.4 89.75 44.7 100.75 39.55 118.45 25.2 144.4 4.15 154.95 4.15 156.35 4.15 164.85 6.95 173.4 9.75 174.75 9.75 177.3 9.75 179.3 8.7
L 182.7 6.2 181.85 3.7
M 168.35 -22.35
L 163.95 -15.5 176.25 -5.35 180.65 -12.2 168.35 -22.35
M 156.1 -18.25
L 154.2 -17.85 153.9 -15.95
Q 157.55 -8.8 161.15 -8.3 162.5 -8.15 163.4 -8.95 164.25 -9.7 164.25 -10.75 164.25 -12.7 161.85 -15.3 159.15 -18.25 156.1 -18.25 Z"/>
</g>
</defs>

<g transform="matrix( 1, 0, 0, 1, 0,0) ">
<use xlink:href="#Layer0_0_FILL"/>
</g>
</svg>
