
<svg xmlns="http://www.w3.org/2000/svg" version="1.1" xmlns:xlink="http://www.w3.org/1999/xlink" preserveAspectRatio="none" x="0px" y="0px" width="550px" height="400px" viewBox="0 0 550 400">
<defs>
<g id="Layer0_0_FILL">
<path fill="#000000" fill-opacity="0.25098039215686274" stroke="none" d="
M 156.1 -16.25
Q 143.35 -11.85 128.65 -5.05 91.9 12 76.9 27.45 77.5 28.25 79.35 29.25
L 80.35 27.75
Q 80.65 27.3 80.25 28.75
L 79.15 33.1
Q 78.2 36.4 78.2 37.6 78.2 38.35 78.95 38.95 79.65 39.55 80.4 39.55 83.9 39.55 95.3 30.95
L 118.7 12.7
Q 124.25 8.45 129.8 5.1
L 142.3 -1.4
Q 149.45 -4.45 157.1 -7.4 173.35 -12.95 174.1 -12.95 178.5 -12.95 184.45 -2.55 190.3 7.7 190.3 14.8 190.3 16.95 187.95 20.8 185.5 24.9 181.75 28.65 172.05 38.45 162.35 38.45 160.85 38.45 156.95 36.3 151.85 33.25 148.8 31.55 136.55 24.6 128.5 24.6 120.25 24.6 111.8 30.1 100.15 37.7 100.15 51.4 100.15 58.25 102.4 64.6 104.55 70.8 108.7 76.05
L 19.8 139.65
Q 17.1 139.65 8 134.35 -4.15 127.3 -5.3 126.75 -10 124.55 -15.7 123.55
L -21.75 122.9
Q -27.65 122.9 -34 131.25 -40.65 140.05 -40.65 149.55 -40.65 150.7 -37.9 163.75 -35.2 176.8 -35.2 177.85 -35.2 182.2 -42.85 185.75 -46.7 187.55 -50.8 188.5 -54 188.5 -57.4 187.4 -62.65 185.75 -66.8 181.85
L -61.7 177.6
Q -59 175.15 -59 172.1 -59 168.6 -62.75 164.65
L -72.65 154.15
Q -70.65 153.4 -59.05 143.6 -48.1 134.35 -44.3 130.5 -41.4 127.6 -39.3 120.55 -38.15 116.7 -32.05 91.5 -28.45 73.1 -27.55 70.9 -27 69.6 -25.25 68.45 -20.75 65.7 -19.15 64.55 -2.45 54.1 11.15 45 37.85 27.15 37.85 22.85 37.85 19.95 35.35 17.95 32.8 15.95 29.05 15.95 23.45 15.95 15.55 21.75
L -19.1 49.25
Q -34.9 61.8 -40.35 68.05 -47.8 76.5 -47.8 84.6 -47.8 87.45 -46.75 94.5 -45.7 101.55 -45.7 107.35 -45.7 123.55 -64.65 136.5
L -77.7 144.85
Q -83.65 149 -83.65 152.1
L -81.7 157.4
Q -78.35 164.2 -71.25 172.7 -72.5 174.15 -76.05 176 -78.7 177.4 -78.7 179 -78.7 181.7 -67.9 190.9 -57.05 200.1 -53.85 200.1 -24.9 187.7 -24.9 178.95
L -29.3 170.35
Q -33.75 161 -33.75 151.6 -33.75 142.05 -27 136.6 -21.8 132.4 -16.05 132.4 -5.5 132.4 5.3 138.8
L 12.85 143.15
Q 16.9 145.15 20.35 145.15 23.5 145.15 70.3 113.15 117.5 80.95 117.5 77.8 117.5 75.7 116.15 73.35
L 113.25 68.9
Q 109 62.25 109 53.4 109 46.25 113.5 40.3 119.4 32.5 130.3 32.5 135.7 32.5 151.05 38.8 157.8 41.55 161.8 45.3 164.9 48.2 165.9 48.2 167.1 48.2 178.65 37.25 190.2 26.3 191.2 26.3 191.7 26.3 192.35 26.75 192.95 27.15 193.45 27.15
L 198.45 21.9
Q 203.45 16.3 203.45 14.55 203.45 12.95 200.2 7.35 196.75 1.45 192.2 -4.55 180.1 -20.6 173.45 -20.6 168.65 -20.6 156.1 -16.25 Z"/>
</g>
</defs>

<g transform="matrix( 1, 0, 0, 1, 0,0) ">
<use xlink:href="#Layer0_0_FILL"/>
</g>
</svg>
