
<svg xmlns="http://www.w3.org/2000/svg" version="1.1" xmlns:xlink="http://www.w3.org/1999/xlink" preserveAspectRatio="none" x="0px" y="0px" width="550px" height="400px" viewBox="0 0 550 400">
<defs>
<g id="Layer0_0_FILL">
<path fill="#333333" stroke="none" d="
M 24.4 36.1
L 24.3 36.3 24.2 37.85
Q 24.2 38.6 24.6 39.35 25.2 40.6 26.6 40.6 28.45 40.6 29.15 39.3
L 29.65 37.7 29.4 36.1 25.8 35.95 24.4 36.1
M 32.4 34.55
L 32.35 35.6
Q 32.35 36.1 33.05 37.15 33.95 38.55 35.15 38.55 36.2 38.55 36.7 38.15
L 37.15 37.7
Q 37.15 35.05 36.8 34.1
L 33.85 33.95 32.6 34.1 32.4 34.55
M 19.45 32.6
L 19.75 33.05
Q 20.8 34.45 22.45 34.45 26.25 34 26.25 31.85 26.25 30.85 25.9 30.35 25.15 29.3 23.1 29.1
L 22.1 29.05 20.15 29.2
Q 19.45 29.35 18.7 30 18.7 31.3 19.45 32.6
M 28.8 22.95
L 30 23.5 34.8 23.5 36.1 22.6
Q 36.45 22.25 36.45 21.05 36.45 18.5 32.4 18.3 28.35 18.1 28.35 21.35 28.35 22.5 28.8 22.95
M 26.25 23.1
L 26.1 22 25.9 21.75 22.95 21.85
Q 22.1 22.15 22.1 23.45 22.1 23.85 23.85 25.55 24.35 25.55 25.2 24.85 26.25 24 26.25 23.1
M 42.7 28.6
L 42.55 27.15 42.35 26.6 38.7 26.75
Q 37.15 27.5 37.15 28.85 37.15 30.6 37.35 30.7
L 37.95 30.9 39.9 31.05
Q 41.75 31.05 42.35 30.2 42.7 29.7 42.7 28.6 Z"/>

<path fill="#CCCCCC" stroke="none" d="
M 19.75 33.05
L 19.45 32.6
Q 18.7 31.3 18.7 30 19.45 29.35 20.15 29.2
L 22.1 29.05 23.1 29.1 22.3 28.7
Q 20.1 27.85 16.85 28.7
L 16.8 29 16.7 30.6
Q 16.7 32.35 16.85 32.7
L 19.75 33.05 Z"/>
</g>
</defs>

<g transform="matrix( 1, 0, 0, 1, 0,0) ">
<use xlink:href="#Layer0_0_FILL"/>
</g>
</svg>
