
<svg xmlns="http://www.w3.org/2000/svg" version="1.1" xmlns:xlink="http://www.w3.org/1999/xlink" preserveAspectRatio="none" x="0px" y="0px" width="550px" height="400px" viewBox="0 0 550 400">
<defs>
<g id="Layer0_0_FILL">
<path fill="#000000" stroke="none" d="
M 51.25 48.95
Q 56.15 44.25 59.2 38.95 62 34 62 30.7 62 21.2 56.6 14.6 49.95 6.45 34.3 1.2 20.4 -3.55 9 10.85 5.1 15.85 2.3 22.05 0 27.25 0 29.3 0 30.2 1.35 34.65 3.1 40.55 5.5 45.5 12.95 60.95 23.25 60.95 38.7 60.95 51.25 48.95
M 59.5 30.85
Q 59.5 33.5 56.8 37.95 53.85 42.7 49.25 47 37.25 58.2 23.1 58.2 14.2 58.2 8.25 44.5 6.3 40.05 5 34.75 4 30.7 4 29.55 4 15.7 12.65 8.95 17.05 5.5 22.75 4.45
L 23.35 4.35
Q 27.25 3.7 31.75 4.2 42.85 5.4 50.85 12.45 59.5 20.15 59.5 30.85
M 42 40.7
Q 48.5 35.55 48.5 31.2 48.5 21.1 42.8 15.95 37.75 11.4 30.25 11.95 22.95 12.55 17.7 17.45 12 22.8 12 30.6
L 12.5 33.35
Q 13.2 36.4 14.25 38.95 17.55 46.95 23 46.95 34.1 46.95 42 40.7
M 41.15 18.4
Q 46 22.9 46 31.2 46 33.85 39.75 38.5 32.1 44.2 22.85 44.2 20.35 44.2 17.5 39 15 34.5 15 32.6 15 24.75 19.85 19.75 24.25 15.25 30.5 14.8 36.8 14.35 41.15 18.4 Z"/>

<path fill="#CCCCCC" stroke="none" d="
M 46 31.2
Q 46 22.9 41.15 18.4 36.8 14.35 30.5 14.8 24.25 15.25 19.85 19.75 15 24.75 15 32.6 15 34.5 17.5 39 20.35 44.2 22.85 44.2 32.1 44.2 39.75 38.5 46 33.85 46 31.2 Z"/>
</g>
</defs>

<g transform="matrix( 1, 0, 0, 1, 0,0) ">
<use xlink:href="#Layer0_0_FILL"/>
</g>
</svg>
