
<svg xmlns="http://www.w3.org/2000/svg" version="1.1" xmlns:xlink="http://www.w3.org/1999/xlink" preserveAspectRatio="none" x="0px" y="0px" width="550px" height="400px" viewBox="0 0 550 400">
<defs>
<g id="Layer0_0_FILL">
<path fill="#FFFFFF" stroke="none" d="
M 25.05 34.05
Q 24.2 34.35 24.2 35.7
L 24.3 37.5 26.25 37.85 28 37.5 28.2 36.9 28.35 35.6 28.2 34.4 28 34.1 25.05 34.05
M 36.45 26.85
Q 36.45 27.4 38.2 28.95 38.7 28.95 39.55 28.2 40.6 27.35 40.6 26.5
L 40.45 25.4 40.25 25.2
Q 38.15 24.85 37.3 25.2 36.45 25.55 36.45 26.85
M 18.5 31.5
L 20.1 31.65 22.15 30.5
Q 24.2 29.15 24.2 28.05
L 24.05 26.85 23.85 26.6
Q 21.85 25.75 19.85 26.95 18 28.1 18 29.55 18 31.3 18.2 31.3
L 18.5 31.5
M 24.8 24.2
L 24.85 22.9 24.7 21.25 24.55 20.45
Q 21.8 20.1 20.45 20.45
L 20.2 20.8 20.15 20.8 20.1 21.75
Q 20.1 22.55 20.8 24.1 21.8 26.25 23.15 26.25 24.25 26.25 24.5 25.9
L 24.65 25.55 24.8 24.2
M 29.1 17.85
Q 29.65 18.35 29.95 18.45
L 31.65 18.7 33.45 18.55
Q 34.4 18.2 34.45 16.95
L 34.45 16.85 34.3 15.8 34.1 15.7 34.1 15.65 29.85 15.5 29.55 15.85 28.95 16.8 29.1 17.85
M 44.7 32.6
L 44.55 31.5 44.35 31.3
Q 41.75 30 39.55 32.8
L 38.5 34.1 38.55 33.75
Q 36.8 31.7 35.25 31.85 33.95 32 32.35 33.85
L 32.55 35
Q 33.5 35.75 35.4 35.75
L 37.2 35.65 35.7 37
Q 31.5 38.8 24.65 40.25 20.8 41.05 20.8 42.75 20.8 44.5 21 44.25 23.55 44.85 24.1 45.6
L 26.95 46
Q 33.05 46 39.05 41.1 44.7 36.5 44.7 32.6 Z"/>

<path fill="#FFFFFF" fill-opacity="0.25098039215686274" stroke="none" d="
M 24.85 22.9
L 24.8 24.2
Q 25.8 24.1 26.95 23.2 28.35 22.1 28.35 21
L 28.2 20 28 20.3
Q 24.2 18.7 22.1 19.15 20.55 19.45 20.2 20.8
L 20.45 20.45
Q 21.8 20.1 24.55 20.45
L 24.7 21.25 24.85 22.9
M 29.55 15.85
Q 27.65 16.3 27.65 17.65 27.65 18.35 28 18.95 28.7 20.1 30.35 20.1 32.35 20.1 33.45 19.25 34.45 18.45 34.45 17.15
L 34.45 16.95
Q 34.4 18.2 33.45 18.55
L 31.65 18.7 29.95 18.45
Q 29.65 18.35 29.1 17.85
L 28.95 16.8 29.55 15.85
M 23.3 8.95
Q 24.85 8.5 24.85 7.4 24.85 4.95 18.5 7.3 12.05 9.65 9.4 13.45 9 14 7.45 17.7 5.8 21.5 5.8 22.05 5.8 23.45 7.35 23.45 8.35 23.45 9.6 20.3
L 11.15 15.95
Q 11.55 15.05 12.85 13.65 14.2 12.1 15.1 11.75 18.5 10.35 23.3 8.95 Z"/>
</g>
</defs>

<g transform="matrix( 1, 0, 0, 1, 0,0) ">
<use xlink:href="#Layer0_0_FILL"/>
</g>
</svg>
