
<svg xmlns="http://www.w3.org/2000/svg" version="1.1" xmlns:xlink="http://www.w3.org/1999/xlink" preserveAspectRatio="none" x="0px" y="0px" width="550px" height="400px" viewBox="0 0 550 400">
<defs>
<g id="Layer0_0_FILL">
<path fill="#000000" stroke="none" d="
M -61.1 -53.35
L -64.7 -49.95
Q -68.2 -46.4 -67.85 -45.2
L -66.1 -43.2
Q -64.2 -41.2 -63.05 -41.15
L -66.45 -34.8 -67.95 -31.05
Q -66.6 -26.75 -63.8 -24.45 -61.6 -22.7 -55.95 -20.3 -37.7 -12.4 -24.15 -3.3 -24.15 -2.9 -24.45 -2.4
L -24.35 -1.15
Q -23.95 -0.05 -23.4 -0.05
L -22.6 0 -8.3 -27.4
Q -3.75 -36.85 -4.25 -38.55 -4.6 -38.15 -5.3 -37.9 -4.9 -38 -5.1 -37.6 -5.25 -37.15 -5.5 -37.9
L -5.55 -37.95 -50.3 -59.8 -53.85 -54.9 -57.2 -55
Q -59 -55.7 -59.5 -55.55 -60.55 -55.2 -61 -54.3
L -61.1 -53.35
M -52.9 -51.05
L -51.8 -51.25 -51.8 -51.7
Q -51.95 -53.6 -49.1 -58.05 -24.95 -43.7 -16.85 -39.6 -12.35 -37.2 -7.5 -35.85 -12.5 -27.2 -15.55 -20.85 -19.6 -12.45 -23.05 -6 -33.3 -10.6 -43.15 -15.85
L -44.15 -16.35
Q -46.7 -17.05 -48.95 -18.95 -63.1 -26.8 -65.7 -31
L -60.75 -41.05
Q -55.6 -50.6 -52.9 -51.05
M -59 -52.05
Q -58.25 -52.25 -57.4 -52.05 -56.5 -51.85 -56.35 -51.35
L -61.4 -43.9 -64.1 -45.95
Q -63.55 -46.5 -61.5 -49.4 -59.85 -51.85 -59 -52.05
M 46.7 -66.7
Q 46.85 -68.45 46.05 -70.75 44.7 -73.65 40.75 -76.3 41.25 -76.95 41.15 -81.1 40.7 -82.5 31.3 -85.25 28.7 -81.35 28.05 -81.15
L 25.1 -81.2 22.8 -82.15
Q 20.05 -83.15 16.95 -79.25 -0.6 -43.5 0.95 -38.6 1.7 -37.35 5.9 -34.75 13.9 -29.9 30.8 -23.95
L 29.45 -19.2 30.2 -18.35
Q 30.6 -17.95 31.05 -18.1 32.6 -18.55 38.5 -35.9 43.85 -51.85 45.25 -58.45 46.6 -64.4 46.7 -66.7
M 38.45 -77.55
L 30.85 -80.45
Q 32.7 -82.25 35.45 -81.1
L 39.1 -79.2 38.45 -77.55
M 19.45 -80.35
Q 21.15 -80.85 32.8 -75.7 38.7 -73.2 44.25 -70.5 43.85 -67.9 31.85 -27.1 22.45 -32.1 18.25 -32.2 15.25 -32.25 4.45 -39.4
L 10.9 -59.7
Q 17.65 -79.85 19.45 -80.35 Z"/>

<path fill="#999999" stroke="none" d="
M -57.4 -52.05
Q -58.25 -52.25 -59 -52.05 -59.85 -51.85 -61.5 -49.4 -63.55 -46.5 -64.1 -45.95
L -61.4 -43.9 -56.35 -51.35
Q -56.5 -51.85 -57.4 -52.05
M 30.85 -80.45
L 38.45 -77.55 39.1 -79.2 35.45 -81.1
Q 32.7 -82.25 30.85 -80.45 Z"/>

<path fill="#870101" stroke="none" d="
M -51.8 -51.25
L -52.9 -51.05
Q -55.6 -50.6 -60.75 -41.05
L -65.7 -31
Q -63.1 -26.8 -48.95 -18.95 -46.7 -17.05 -44.15 -16.35
L -43.15 -15.85
Q -33.3 -10.6 -23.05 -6 -19.6 -12.45 -15.55 -20.85 -12.5 -27.2 -7.5 -35.85 -12.35 -37.2 -16.85 -39.6 -24.95 -43.7 -49.1 -58.05 -51.95 -53.6 -51.8 -51.7
L -51.8 -51.25 Z"/>

<path fill="#2F2F2F" stroke="none" d="
M 32.8 -75.7
Q 21.15 -80.85 19.45 -80.35 17.65 -79.85 10.9 -59.7
L 4.45 -39.4
Q 15.25 -32.25 18.25 -32.2 22.45 -32.1 31.85 -27.1 43.85 -67.9 44.25 -70.5 38.7 -73.2 32.8 -75.7 Z"/>
</g>
</defs>

<g transform="matrix( 1, 0, 0, 1, 0,0) ">
<use xlink:href="#Layer0_0_FILL"/>
</g>
</svg>
