
<svg xmlns="http://www.w3.org/2000/svg" version="1.1" xmlns:xlink="http://www.w3.org/1999/xlink" preserveAspectRatio="none" x="0px" y="0px" width="550px" height="400px" viewBox="0 0 550 400">
<defs>
<g id="Layer0_0_FILL">
<path fill="#000000" stroke="none" d="
M -13.55 -10.2
Q -14.4 -9.05 -14.05 -7.9 -13.65 -6.8 -12.3 -6.4
L -9.2 -6.5
Q -7.5 -7.05 -6.55 -8.1 -5.7 -9.3 -6.1 -10.35 -6.45 -11.5 -7.8 -12
L -10.9 -11.9
Q -12.55 -11.4 -13.55 -10.2
M -11.4 -11.35
L -11.3 -11.5 -11.05 -10.65 -11.4 -11.35
M -35.15 -1.1
L -37.5 -8.45 -46.7 -5.65 -44.3 1.7 -35.15 -1.1
M -43.9 -2.5
L -43.9 -3.2 -43.55 -3.6 -43.05 -3.45 -42.7 -2.8 -42.6 -2 -42.95 -1.65
Q -43.2 -1.6 -43.45 -1.85
L -43.9 -2.5
M -38.25 -4.35
Q -38.2 -3.7 -38.6 -3.2
L -40.7 -1.85 -39.7 -3.25 -38.5 -4.35 -38.25 -4.35
M -16.8 -53.85
Q -18.4 -53.35 -19.15 -51.6 -19.85 -49.95 -19.25 -48.2 -18.65 -46.35 -17.15 -45.35 -15.6 -44.45 -14 -45 -12.4 -45.4 -11.55 -47.05 -10.9 -48.8 -11.5 -50.6 -12.05 -52.35 -13.6 -53.3 -15.15 -54.25 -16.8 -53.85
M -15.2 -48.85
L -13.15 -48.85 -13.75 -48.65 -14.7 -48.55 -15.2 -48.85
M 43.35 -32.45
L 45.1 -26.95 53.9 -29.65 52.2 -35.15 43.35 -32.45
M 6.85 -23.15
L 4.9 -29.15 -3.1 -26.75 -1.2 -20.7 6.85 -23.15
M 9.4 -9.6
L 3.6 -8.55
Q -1.35 -7.1 -3.95 -4.65 -6.55 -2.35 -6.05 0.6 -10.15 1.8 -53.4 7.2 -52 -5.45 -47.7 -16.6 -48.75 -16.9 -49.55 -17.35 -52.25 -11.15 -54.05 -5.55 -57.3 4.55 -56.25 7.95 -56 8.55 -56.35 8.75 -56.7 8.95 -56.55 9.5
L -56.4 10 -55.8 11.05 -49.55 10 -28.75 7.85
Q -9 5.3 22.35 -4.2 32.85 -7.4 49.7 -18.9 65.55 -29.6 66.45 -32.8
L 66.1 -33.4 64.55 -33.75
Q 62.75 -36.45 56.45 -41.45 49 -47.45 40.25 -52.3 15.75 -66.2 -4.1 -63.55 -3.35 -65 -3.75 -66.05 -4.85 -69.4 -8.95 -71
L -18.5 -71.25
Q -24.5 -69.4 -25.85 -65.45 -26.65 -63.3 -25.85 -60.85 -24.95 -57.65 -21.8 -56.55 -26.7 -55.2 -32.55 -47.7 -30.65 -47 -29.05 -45.8 -20.1 -55.05 -10.5 -57.95 9.85 -64.2 35.4 -50.2 43.2 -45.95 52.65 -39.15 61.95 -32.3 62.85 -31.8 54.25 -25.8 42.35 -18.6 26 -8.75 19.1 -6.65 18.75 -6.6 17.25 -7.7 15.6 -9.1 12.95 -9.6 11.9 -9.85 9.4 -9.6
M 11.75 -6.8
Q 14.6 -6.8 15.6 -5.5 3.95 -2 -2.55 -0.4 0.8 -4.45 4.3 -5.5 8.75 -6.9 11.75 -6.8
M -24.1 -63.1
Q -24.6 -64.6 -22.5 -66.5 -20.4 -68.35 -16.9 -69.4 -13.3 -70.45 -10.45 -70.15 -7.65 -69.75 -7.15 -68.2 -6.6 -66.6 -8.8 -64.7 -10.85 -62.85 -14.4 -61.75 -17.85 -60.7 -20.8 -61.1 -23.6 -61.45 -24.1 -63.1
M 19.5 -18.6
Q 20.35 -19.9 19.9 -21.45 19.45 -22.8 17.95 -23.55
L 14.85 -23.7
Q 13.1 -23.2 12.3 -21.8 11.5 -20.45 11.95 -19 12.4 -17.5 13.85 -16.85 15.35 -16.2 17.05 -16.8 18.75 -17.25 19.5 -18.6
M 17.1 -20.85
Q 16.7 -19.9 15.9 -19.55
L 14.3 -20.6 17.1 -20.85
M 2.4 -40
L 6.2 -40.35
Q 7.15 -40.55 8.05 -41.2
L 7.95 -41.75 8.35 -43.2 7.25 -43.35 -2.85 -40.3 -8.2 -38.15
Q -8.6 -38.05 -8.3 -36.95 -7.95 -35.95 -7.4 -35.9 -6.85 -35.85 -3.85 -36.75 0.55 -38.05 1.35 -38.95
L 2.4 -40
M 9.25 -56.25
Q 8.8 -57.7 6.85 -58.3
L 2.5 -58.1
Q 0.2 -57.4 -1.15 -55.8 -2.45 -54.2 -2 -52.8 -1.6 -51.4 0.45 -50.8
L 4.8 -51.05
Q 7.1 -51.75 8.45 -53.3 9.75 -54.85 9.25 -56.25
M 1.85 -54.6
L 4.65 -54.9 6.65 -54.85
Q 2.9 -53.55 2.1 -54.2
L 1.85 -54.6 Z"/>

<path fill="#870101" stroke="none" d="
M 15.6 -5.5
Q 14.6 -6.8 11.75 -6.8 8.75 -6.9 4.3 -5.5 0.8 -4.45 -2.55 -0.4 3.95 -2 15.6 -5.5 Z"/>
</g>
</defs>

<g transform="matrix( 1, 0, 0, 1, 0,0) ">
<use xlink:href="#Layer0_0_FILL"/>
</g>
</svg>
