
<svg xmlns="http://www.w3.org/2000/svg" version="1.1" xmlns:xlink="http://www.w3.org/1999/xlink" preserveAspectRatio="none" x="0px" y="0px" width="550px" height="400px" viewBox="0 0 550 400">
<defs>
<g id="MovieClips_Symbol_228_35_Layer1_0_FILL">
<path fill="#663300" stroke="none" d="
M 6.15 -40.3
L 0 -34.95 -12.4 -25.2 -18.55 -19.7
Q -13.3 -14.05 1 18.4 2.5 22.6 5.65 26.75 6.7 26.75 8.7 24.7
L 10.55 22.65
Q 12.1 22.65 12.65 23.65
L 13.45 26.05
Q 15.5 26.2 15.75 25.55
L 15.6 24.25
Q 15.6 23.65 16.25 23.75
L 17.4 24.05
Q 12.9 17.85 3.75 -0.05 -5.85 -18.9 -5.85 -22.75 -5.85 -24.7 -4.85 -25.55 -4.35 -25.95 -1.05 -27.6 8.05 -32.1 19.4 -42.5
L 14.2 -42.1 9.15 -42.6
Q 8.8 -42.65 6.15 -40.3
M -10.1 -24.6
L -11.65 -21.6 -7.45 -20.3
Q -9.25 -19.4 -10.2 -19.4 -11.3 -19.4 -12 -20.3 -12.65 -21.2 -12.65 -22.45
L -12.45 -24.4 -12.1 -24.5
Q -11.7 -24.65 -11.25 -25.05 -10.5 -25 -10.1 -24.6 Z"/>
</g>
</defs>

<g transform="matrix( 1, 0, 0, 1, -28.15,-10.5) ">
<g transform="matrix( 1, 0, 0, 1, 0,0) ">
<use xlink:href="#MovieClips_Symbol_228_35_Layer1_0_FILL"/>
</g>
</g>
</svg>
