
<svg xmlns="http://www.w3.org/2000/svg" version="1.1" xmlns:xlink="http://www.w3.org/1999/xlink" preserveAspectRatio="none" x="0px" y="0px" width="550px" height="400px" viewBox="0 0 550 400">
<defs>
<g id="Layer0_0_FILL">
<path fill="#000000" stroke="none" d="
M 60.1 -3.5
Q 59.25 -3.5 57.7 -1.35 56 0.95 55.95 2.7
L 56.65 6.65
Q 56.6 10.85 53.55 13.2 50.85 15.3 46.9 15.25 33.95 15 28.45 9.4 25.35 6.25 24.15 5.55 21.2 3.8 15.95 3.7 7.65 3.55 4 1.25
L 1.7 -0.35
Q 0.3 -1.05 -1.7 -1.1 -6.75 -1.15 -10.15 13.85 -12.5 24.25 -12.6 29.8 -12.65 33.45 -11.95 34.6 -11.4 35.5 -9.65 35.55 0.55 35.7 3.8 34.3 6.6 33.1 8.05 30.65 11.95 34.9 14.6 35.05
L 41.5 35.6
Q 51.6 35.5 56.95 33.95 63.35 32.05 66.3 27.25 69.5 22.15 69.65 12.55 69.75 5.55 67.35 1.2 64.8 -3.45 60.1 -3.5
M 62.5 0.35
Q 65 0.35 65.95 7.05 66.45 10.6 66.35 14.35 66.15 27.9 54.95 30.95 50.45 32.2 42.65 32.25
L 27.45 32
Q 18.75 31.85 10.85 27.4
L 7.3 26.8 2.35 31.25 -9.2 32.05
Q -8.95 20.45 -5.85 12.8 -2.15 5.8 -0.8 2.4
L -0.75 2.35 8.05 5.75
Q 12.05 6.75 21.25 6.9 22 6.9 29.3 12.7 38.3 18.45 47.7 18.6 54.45 18.7 57.65 13.8
L 57.95 13.25
Q 59.6 10.5 59.9 7.3
L 59.9 6.3 59.2 2.7
Q 59.2 2.35 60.45 1.35 61.75 0.3 62.5 0.35 Z"/>
</g>
</defs>

<g transform="matrix( 1, 0, 0, 1, 0,0) ">
<use xlink:href="#Layer0_0_FILL"/>
</g>
</svg>
