
<svg xmlns="http://www.w3.org/2000/svg" version="1.1" xmlns:xlink="http://www.w3.org/1999/xlink" preserveAspectRatio="none" x="0px" y="0px" width="550px" height="400px" viewBox="0 0 550 400">
<defs>
<g id="Layer0_0_FILL">
<path fill="#FFFFFF" fill-opacity="0.5019607843137255" stroke="none" d="
M 20.05 13.95
Q 19.25 13.35 18.1 13.35 16.95 13.35 16.15 13.95 15.35 14.5 15.35 15.3 15.35 16.1 16.15 16.7 16.95 17.25 18.1 17.25 19.25 17.25 20.05 16.7 20.85 16.1 20.85 15.3 20.85 14.5 20.05 13.95
M 2.75 11.8
Q 1.95 11 0.8 11 -0.35 11 -1.15 11.8 -1.95 12.6 -1.95 13.75 -1.95 14.9 -1.15 15.7 -0.35 16.5 0.8 16.5 1.95 16.5 2.75 15.7 3.55 14.9 3.55 13.75 3.55 12.6 2.75 11.8
M 33.15 22.5
L 35.1 22.05
Q 35.9 21.55 35.9 20.85 35.9 20.15 35.1 19.7 34.3 19.2 33.15 19.2 32 19.2 31.2 19.7 30.4 20.15 30.4 20.85 30.4 21.55 31.2 22.05 32 22.5 33.15 22.5
M 47 21.4
Q 47 22.1 47.8 22.6 48.6 23.1 49.75 23.1 50.9 23.1 51.7 22.6 52.5 22.1 52.5 21.4 52.5 20.7 51.7 20.2 50.9 19.7 49.75 19.7 48.6 19.7 47.8 20.2 47 20.7 47 21.4
M 62 9.9
Q 62 9.05 61.2 8.5 60.4 7.9 59.25 7.9 58.1 7.9 57.3 8.5 56.5 9.05 56.5 9.9 56.5 10.75 57.3 11.35 58.1 11.9 59.25 11.9 60.4 11.9 61.2 11.35 62 10.75 62 9.9 Z"/>
</g>
</defs>

<g transform="matrix( 1, 0, 0, 1, 0,0) ">
<use xlink:href="#Layer0_0_FILL"/>
</g>
</svg>
