
<svg xmlns="http://www.w3.org/2000/svg" version="1.1" xmlns:xlink="http://www.w3.org/1999/xlink" preserveAspectRatio="none" x="0px" y="0px" width="550px" height="400px" viewBox="0 0 550 400">
<defs>
<g id="Layer0_0_FILL">
<path fill="#FFFFFF" fill-opacity="0.5019607843137255" stroke="none" d="
M 14.8 10.6
Q 14.8 7.2 12.05 5.55 9.6 4.05 6 4.35 2.45 4.6 -0.1 6.35 -2.85 8.25 -2.85 10.9
L -2.75 12.85
Q -2.45 14.25 -1.25 14.75
L 0.55 14.75
Q 2.95 14.3 4.25 13.3 5.25 12.5 5.25 11.75 5.15 10.75 4.3 10.75
L 2.75 11.75
Q 1.15 12.75 -0.6 12.75 -1 12.75 -1.05 12.1
L -1 10.95
Q -1 9.4 0.05 8.3 1.95 6.35 6.75 6.35 12.9 6.35 12.9 10.65 12.9 14.65 9.85 16.45 8.25 17.4 3.15 18.55 -1.6 19.6 -3.55 21.1 -6.6 23.4 -6.6 28.3 -6.9 29.75 -5.6 29.75 -5.2 29.75 -4.35 27.6
L -3.3 25 -1.45 22.35
Q 0.55 20.75 5.35 20.35 10.1 19.95 12.8 16.2 14.8 13.4 14.8 10.6
M 28.35 12.25
Q 26.7 10 24.2 9.75 21.8 9.5 20.05 11.05 18.15 12.75 18.15 15.5
L 18.55 17.95
Q 19.45 20.35 21.65 20.35 23.35 20.35 23.35 19.3 23.35 18.75 21.7 18.05 20.05 17.4 20.05 15.4 20 14.5 20.35 13.6 20.95 11.9 22.7 11.9 27.3 11.9 28.25 15.35 28.75 17.15 28.3 19.3 28.3 22.9 25.8 24 24.2 24.75 19.85 24.75 18.85 24.75 15.9 23.35 12.95 21.9 11.7 21.9 7.15 21.9 3.4 23.35 -0.25 24.75 -0.25 26.3
L -0.25 27.15 0.6 27.5
Q 2.85 25.95 3.6 25.55 7 23.9 11.3 23.9 11.95 23.9 15.4 25.35 18.9 26.75 20.1 26.75 26.95 26.75 29.25 23.35 30.25 21.85 30.25 19.25 30.25 14.8 28.35 12.25
M 40.9 19.35
Q 45.5 19.35 45.5 23.2 45.55 24.35 44.8 25.4 43.35 27.55 39.3 27.55 24.3 27.55 22.35 27.7 21.2 27.8 21.2 28.1
L 21.4 28.75 21.7 29.2 22.4 29.6 41.7 29.1
Q 45.85 28.45 46.25 27.3
L 47.15 25.15 47.4 23.25
Q 47.4 18.1 41.85 17.4 39.6 17.1 38 18.05 36.25 19.1 36.25 21.1
L 36.4 22.35
Q 37.15 23.5 40.15 23.5
L 41.85 23.35
Q 42.35 23.15 42.35 22.55 42.35 21.95 41.4 21.55
L 38.2 21.25 38.1 21 38.3 19.9
Q 38.75 19.35 40.9 19.35
M 62.8 17.35
Q 63.4 18.35 63.4 19.15 63.4 23.7 54.15 27.45 44.85 30.35 44.85 30.65
L 44.9 31.25
Q 45.1 31.75 45.8 31.75 55 31.75 60.85 26.35 65.25 22.3 65.25 19.25 65.25 16.2 63.45 14.8 61.9 13.6 59.55 14.05 57.25 14.45 55.6 16.15 53.8 17.95 53.8 20.3 53.8 20.9 53.95 21.1 54.25 21.5 55.25 21.85
L 58.5 21.85
Q 59.75 21.35 59.75 20.7 59.75 19.75 58.65 19.75
L 55.8 19.9 55.75 19.65
Q 55.75 19.05 56.85 17.7 58.35 15.9 60.5 15.9 61.95 15.9 62.8 17.35
M 62.15 6.3
Q 62.15 5.8 62.5 5 63.2 4.95 63.8 5.5
L 64.3 6.35 64.1 12.55 64.45 12.75 65 12.8
Q 65.95 12.8 66.15 10.5
L 66.15 8
Q 66.15 3.35 63.2 2.8 60.25 2.3 60.25 7.05
L 60.45 7.9
Q 61 8.85 62.75 8.85 63.9 8.85 63.9 7.95
L 63.05 7.2
Q 62.15 6.55 62.15 6.3 Z"/>
</g>
</defs>

<g transform="matrix( 1, 0, 0, 1, 0,0) ">
<use xlink:href="#Layer0_0_FILL"/>
</g>
</svg>
