
<svg xmlns="http://www.w3.org/2000/svg" version="1.1" xmlns:xlink="http://www.w3.org/1999/xlink" preserveAspectRatio="none" x="0px" y="0px" width="550px" height="400px" viewBox="0 0 550 400">
<defs>
<g id="Layer0_0_FILL">
<path fill="#000000" fill-opacity="0.32941176470588235" stroke="none" d="
M 15.95 20.1
L 16.2 20.4 18.05 20.45
Q 20.75 20.45 22.45 17.8
L 19.2 18.45
Q 16.25 19.05 15.5 19.7
L 15.95 20.1
M 4.45 18.1
L 6.1 17.05 5.5 16.55 2.7 17
Q 0.4 17.1 -0.55 17.7
L 0.15 18.5 2.35 18.5
Q 3.25 18.6 4.45 18.1
M 38.3 23.8
L 38 23.8 30.5 24.9 30.65 25.45 33.4 25.65 36.9 25.2
Q 37.9 24.8 38.3 23.8
M 54.15 33.85
Q 56.5 33.05 57.85 32.1 59.4 31.1 60.5 29.45
L 51.9 29.7 44.8 30.5
Q 28.75 30.5 17 26.4 11.1 24.35 8.35 22.3 6.15 22.3 4.85 24.1
L 3.05 27.95
Q 0.75 33.25 -5.05 32.5
L -5.25 29.4 -3.25 21.75 2 10.35
Q 4.6 5.2 4.6 4.65 4.6 3.6 2.9 2.9 1.05 2.15 -2.25 2.15 -3.9 2.15 -7.45 13.75 -10.85 24.9 -10.85 28.55 -10.85 31.7 -10.1 32.65 -9.05 34.1 -5.2 34.1 -2.3 34.1 2.55 31.6 7.45 29.05 8.6 29.05 9.55 29.05 14 32.25 19.45 35.4 25.2 35.4
L 49.2 34.75 54.15 33.85
M 51.85 24.45
Q 53.95 23.2 54.5 22.35 48.05 23.9 48.05 25.05 48.05 26.05 48.9 25.75 49.8 25.7 51.85 24.45
M 63.85 10.05
Q 62.85 10.9 61.95 12.25 61.1 13.5 60.85 14.35
L 61.1 14.4
Q 62.25 14.15 63.35 12.1 64.25 10.4 64.35 9.3
L 63.85 10.05
M 64.55 -0.8
Q 63.25 -1.75 61.9 -1.75 58.85 -1.75 58.15 0.2 57.45 2.15 57.45 6.65 57.45 11.15 54.15 13.45 50.85 15.75 46.3 15.75 33.6 15.75 28.8 10.4
L 25.2 6.7
Q 22.75 5 18.25 5
L 13.2 5.9 7.45 5.6 13.3 6.65 14.55 7.4 13.65 9.45 12.55 11.15 13.05 11.5 20.25 10.4
Q 24.15 10.4 32.3 14.85 40.45 19.3 47.6 19.3 56.65 19.3 59.55 10.6
L 61.05 4.6
Q 61.7 1.9 62.75 1.9 63.25 1.9 67.15 3.7 66.45 0.6 64.55 -0.8 Z"/>
</g>
</defs>

<g transform="matrix( 1, 0, 0, 1, 0,0) ">
<use xlink:href="#Layer0_0_FILL"/>
</g>
</svg>
