
<svg xmlns="http://www.w3.org/2000/svg" version="1.1" xmlns:xlink="http://www.w3.org/1999/xlink" preserveAspectRatio="none" x="0px" y="0px" width="550px" height="400px" viewBox="0 0 550 400">
<defs>
<g id="Layer0_0_FILL">
<path fill="#000000" stroke="none" d="
M 89.5 55
Q 94.85 54.35 94.5 50 92.85 41.55 74.3 37.6 63.9 35.4 50.9 35 48.5 34.95 44.7 35.55 38.25 36.55 37.9 36.6 35.8 34.15 34.4 27.7 32.7 19.65 31.7 17.35 29.6 9.8 25.75 4.55 20.75 -2.3 16.15 1.05 13.6 5.25 14.1 10.5 14.45 14 16.7 20.2 19.3 27.25 19.85 30.05 21.05 35.6 19.5 40.05 19.15 41.5 16 41.35 12.2 41.1 10.95 42 5.55 43.4 1.85 48.05 -2.4 53.35 2.7 56.55 7.35 56.05 16.3 54.9 24.35 53.9 30.5 53.8 41.6 52.4 64.9 54.95 74.2 55.95 77.35 55.95 82.2 55.9 82.05 53.95 85.1 55.5 89.5 55
M 92.9 50.85
L 92.85 50.85
Q 90.85 51.9 88.05 52.4 85.95 52.7 82.25 52.85 82.65 48.55 78.6 45.25 75.05 42.35 69.15 40.9 63.55 39.55 58.6 40.05 53.45 40.6 51.85 42.95 54.2 42.25 59.6 42.3 65.55 42.4 70.65 43.5 84.65 46.45 80.85 54.2 63.1 50.3 43.5 50.15 24.35 50.05 5.9 53.6 1.1 53.75 1.5 52.05 1.85 50.6 5.65 48.15 9 46 13.1 44.2 17.2 42.45 18.6 42.55 22.9 38.65 20.95 28.85 17.65 17.55 16.55 13.15 14.15 3.95 18.7 3.85 23.15 3.8 26.75 10.75 29.45 14.9 32.1 25.4 34.6 35.25 37.05 38.2 55.1 37.1 70.1 39.5 89.4 42.65 93.65 50.7 93.2 50.7 92.9 50.85 Z"/>
</g>
</defs>

<g transform="matrix( 1, 0, 0, 1, 0,0) ">
<use xlink:href="#Layer0_0_FILL"/>
</g>
</svg>
