
<svg xmlns="http://www.w3.org/2000/svg" version="1.1" xmlns:xlink="http://www.w3.org/1999/xlink" preserveAspectRatio="none" x="0px" y="0px" width="550px" height="400px" viewBox="0 0 550 400">
<defs>
<linearGradient id="Gradient_1" gradientUnits="userSpaceOnUse" x1="-32.6375" y1="-3.85" x2="32.7375" y2="-3.85" spreadMethod="pad">
<stop  offset="0%" stop-color="#ACACAC"/>

<stop  offset="100%" stop-color="#5F5F5F"/>
</linearGradient>

<g id="Layer0_0_FILL">
<path fill="#535353" stroke="none" d="
M 26.25 -1.4
L 26 -1.6 7.3 0.85 -7.3 0.85 -26 -1.6 -26.25 -1.4 -26.25 -1.25
Q -27.3 -0.2 -28.9 -0.2 -30.4 -0.2 -31.65 -1.25 -32.55 -2.35 -32.7 -3.75
L -32.7 -0.9
Q -32.7 0.75 -31.65 1.95 -30.4 3 -28.9 3 -27.3 3 -26.25 1.95
L -26.25 1.8 -26 1.55 -7.3 4.05 7.3 4.05 26 1.55 26.25 1.8 26.25 1.95
Q 27.4 3 28.9 3 30.4 3 31.55 1.95 32.7 0.75 32.7 -0.9
L 32.7 -3.75
Q 32.55 -2.35 31.55 -1.25 30.4 -0.2 28.9 -0.2 27.4 -0.2 26.25 -1.25
L 26.25 -1.4 Z"/>

<path fill="url(#Gradient_1)" stroke="none" d="
M 28.9 -8.1
Q 27.4 -8 26.25 -6.8
L 26 -6.45 8.45 -8.6 -8.45 -8.6 -26 -6.45 -26.25 -6.8
Q -27.3 -8 -28.9 -8.1 -30.4 -8 -31.65 -6.8 -32.7 -5.65 -32.7 -4.1
L -32.7 -3.75
Q -32.55 -2.35 -31.65 -1.25 -30.4 -0.2 -28.9 -0.2 -27.3 -0.2 -26.25 -1.25
L -26.25 -1.4 -26 -1.6 -7.3 0.85 7.3 0.85 26 -1.6 26.25 -1.4 26.25 -1.25
Q 27.4 -0.2 28.9 -0.2 30.4 -0.2 31.55 -1.25 32.55 -2.35 32.7 -3.75
L 32.7 -4.1
Q 32.7 -5.65 31.55 -6.8 30.4 -8 28.9 -8.1 Z"/>
</g>
</defs>

<g transform="matrix( 1, 0, 0, 1, 0,0) ">
<use xlink:href="#Layer0_0_FILL"/>
</g>
</svg>
