
<svg xmlns="http://www.w3.org/2000/svg" version="1.1" xmlns:xlink="http://www.w3.org/1999/xlink" preserveAspectRatio="none" x="0px" y="0px" width="550px" height="400px" viewBox="0 0 550 400">
<defs>
<g id="MovieClips_Symbol_585_3_Layer0_0_FILL">
<path fill="#930000" stroke="none" d="
M 66.35 48.85
Q 69.6 43.3 69.6 40.75 69.6 22.6 61.8 11.85 56.6 4.75 50.65 3.15
L 51.2 3.75
Q 49.25 3 44.8 2.05
L 43.55 1.9
Q 39.15 1.9 33.7 4.9 27.6 8.3 22.6 14.3 9.75 29.7 9.75 54.3 9.75 57.15 11.6 76.3
L 10.75 91.6
Q 9.7 108.1 4.95 129.05 7.9 130.2 17.25 131.55
L 32.7 132.95
Q 41.3 132.95 46.05 114.35 49.5 100.85 49.5 87.35 49.5 86.85 49.15 86.5 48.75 86.15 48.75 85.65 48.75 76.65 59.2 60.15
L 66.35 48.85 Z"/>
</g>
</defs>

<g transform="matrix( 1, 0, 0, 1, -32.9,-71.25) ">
<g transform="matrix( 1, 0, 0, 1, 0,0) ">
<use xlink:href="#MovieClips_Symbol_585_3_Layer0_0_FILL"/>
</g>
</g>
</svg>
