
<svg xmlns="http://www.w3.org/2000/svg" version="1.1" xmlns:xlink="http://www.w3.org/1999/xlink" preserveAspectRatio="none" x="0px" y="0px" width="550px" height="400px" viewBox="0 0 550 400">
<defs>
<g id="MovieClips_PR2_Graphics_1_Apr_2014_fla_Symbol_667_12_Layer0_0_FILL">
<path fill="#FFFFFF" stroke="none" d="
M 21.75 -3.95
L 33.75 -9.6
Q 38.2 -11.6 41.75 -13.45
L 45.75 -15.35
Q 46.4 -15.7 46.9 -16.4
L 47.15 -16.8 48.15 -19.2
Q 50.05 -20.35 51.75 -21.8
L 53.35 -23.35
Q 70.95 -41.45 54.2 -62.9 37.45 -84.4 14.75 -89 -7.95 -93.65 -22.75 -86.5 -27.95 -83.95 -32.75 -80.65 -39.6 -76 -44.95 -69.75 -50.4 -63.2 -53.95 -55.7 -61.05 -40.65 -63.2 -24.3 -64.3 -16 -62.6 -7.8
L -61.85 -6.65
Q -57.75 0.45 -56.75 1.55 -53.3 4.15 -47.25 6.9 -38.7 10.75 -32.5 10.75
L -31.7 10.75 -29.5 11
Q -24.6 11 -14.8 7.8
L -12.5 7.05
Q -6.65 6.75 -4.3 5.75 -1.45 4.55 3.5 3.15
L 10.35 1.05
Q 14.3 -0.45 21.75 -3.95 Z"/>
</g>
</defs>

<g transform="matrix( 1, 0, 0, 1, 0,0) ">
<g transform="matrix( 1, 0, 0, 1, 0,0) ">
<use xlink:href="#MovieClips_PR2_Graphics_1_Apr_2014_fla_Symbol_667_12_Layer0_0_FILL"/>
</g>
</g>
</svg>
