
<svg xmlns="http://www.w3.org/2000/svg" version="1.1" xmlns:xlink="http://www.w3.org/1999/xlink" preserveAspectRatio="none" x="0px" y="0px" width="550px" height="400px" viewBox="0 0 550 400">
<defs>
<g id="Parts_Hats_Jigg_jiggEpic_0_Layer0_0_FILL">
<path fill="#000000" stroke="none" d="
M 134.9 49.25
Q 134.9 45.9 131.15 38.55 126.55 29.65 119.4 21.95 99.05 0 69.55 0
L 64.7 0.35 59.25 0.8 61.35 1
Q 52.3 0.6 42.15 5.5 31.1 10.8 21.65 21 11.8 31.6 6.15 44.8 0.05 59.1 0.05 73.95 0.05 93.9 10.35 99.3
L 19.25 104.7
Q 25.6 107.75 35.45 107.75 43.65 107.75 61.75 102.9 85.45 96.55 105.25 86.05 123.45 76.4 129.5 68.45 134.9 61.4 134.9 49.25
M 88.05 6.85
Q 99.15 10.6 108.6 17.15 118.45 24 124.05 32.25 130.15 41.2 130.15 50.3 130.15 53.65 129.05 57.55 128 61.2 126.5 63.55 123.65 68.05 119.25 72.15 115.35 75.85 114.85 76.95
L 117.3 75.55
Q 111.65 80.55 83.55 92 52.1 104.75 38.2 104.75 22.35 104.75 12.9 96.65 4.1 89.15 4.1 77.75 4.1 45.6 22.75 24 31.4 14 42.65 8.55 54.1 3 66.6 3 76.75 3 88.05 6.85 Z"/>
</g>
</defs>

<g transform="matrix( 1, 0, 0, 1, 0,0) ">
<g transform="matrix( 1, 0, 0, 1, -67.7,-93.75) ">
<g transform="matrix( 1, 0, 0, 1, 0,0) ">
<use xlink:href="#Parts_Hats_Jigg_jiggEpic_0_Layer0_0_FILL"/>
</g>
</g>
</g>
</svg>
