
<svg xmlns="http://www.w3.org/2000/svg" version="1.1" xmlns:xlink="http://www.w3.org/1999/xlink" preserveAspectRatio="none" x="0px" y="0px" width="550px" height="400px" viewBox="0 0 550 400">
<defs>
<linearGradient id="Gradient_1" gradientUnits="userSpaceOnUse" x1="146" y1="-132.3125" x2="169.10000000000002" y2="-68.7875" spreadMethod="pad">
<stop  offset="0%" stop-color="#B0D077"/>

<stop  offset="100%" stop-color="#429D04"/>
</linearGradient>

<linearGradient id="Gradient_2" gradientUnits="userSpaceOnUse" x1="144.6" y1="-136.16250000000002" x2="167.70000000000002" y2="-72.6375" spreadMethod="pad">
<stop  offset="0%" stop-color="#B0D077"/>

<stop  offset="100%" stop-color="#429D04"/>
</linearGradient>

<linearGradient id="Gradient_3" gradientUnits="userSpaceOnUse" x1="172.4875" y1="-59.8375" x2="181.6125" y2="-34.762499999999996" spreadMethod="pad">
<stop  offset="0%" stop-color="#B0D077"/>

<stop  offset="100%" stop-color="#429D04"/>
</linearGradient>

<g id="Parts_Hats_Jigg_jiggEpic_0_Layer0_0_FILL">
<path fill="#000000" stroke="none" d="
M 134.9 49.25
Q 134.9 45.9 131.15 38.55 126.55 29.65 119.4 21.95 99.05 0 69.55 0
L 64.7 0.35 59.25 0.8 61.35 1
Q 52.3 0.6 42.15 5.5 31.1 10.8 21.65 21 11.8 31.6 6.15 44.8 0.05 59.1 0.05 73.95 0.05 93.9 10.35 99.3
L 19.25 104.7
Q 25.6 107.75 35.45 107.75 43.65 107.75 61.75 102.9 85.45 96.55 105.25 86.05 123.45 76.4 129.5 68.45 134.9 61.4 134.9 49.25
M 88.05 6.85
Q 99.15 10.6 108.6 17.15 118.45 24 124.05 32.25 130.15 41.2 130.15 50.3 130.15 53.65 129.05 57.55 128 61.2 126.5 63.55 123.65 68.05 119.25 72.15 115.35 75.85 114.85 76.95
L 117.3 75.55
Q 111.65 80.55 83.55 92 52.1 104.75 38.2 104.75 22.35 104.75 12.9 96.65 4.1 89.15 4.1 77.75 4.1 45.6 22.75 24 31.4 14 42.65 8.55 54.1 3 66.6 3 76.75 3 88.05 6.85 Z"/>
</g>

<g id="Graphics_Symbol_708_0_Layer1_0_FILL">
<path fill="#000000" fill-opacity="0.25098039215686274" stroke="none" d="
M 58.1 -59.6
Q 51.75 -68.4 43.6 -75.8 21.55 -94 -7.3 -90.95 -20.05 -89.9 -31.1 -83.7 -37.2 -80.2 -42 -75 -67.2 -47.6 -63.4 -10.5 -62.7 -3.45 -58.45 2 -53.1 8.85 -39.05 11.4 -26.8 13.65 -15.65 8.65
L -10.6 7.55 -1.35 6.6 -1.1 5.35 -1.65 5.15
Q 7.4 3.75 20.5 -1.15 32.3 -5.65 42.05 -13.6
L 48 -15.3 48.5 -16.55
Q 51.95 -18.1 54.15 -21.25 59.9 -29.4 62.25 -39.55 64.75 -50.35 58.1 -59.6
M 12.1 -72.7
Q 21.15 -67.05 29 -59.65 42.05 -47.4 44.2 -30 41.85 -18.35 36.9 -13.25
L 28.85 -8.55
Q 20.1 -4.15 -2.75 2.1 -25.65 8.3 -40.85 -3.45 -50.2 -9.5 -50.7 -19.95 -51 -25.45 -50.3 -30.9 -49.3 -39.05 -45.95 -46.5 -39.5 -60.8 -25.6 -68 -11.55 -75.2 4.05 -75.05 8.45 -75 12.1 -72.7 Z"/>
</g>

<g id="Graphics_Symbol_708_0_Layer0_0_FILL">
<path fill="#FFFFFF" fill-opacity="0.5019607843137255" stroke="none" d="
M -44.95 -20.5
L -45.1 -20.4
Q -46.5 -19.45 -45.9 -17.75
L -45.55 -17.15 -45.75 -17.6
Q -46.1 -18.4 -45.7 -19.25
L -45.75 -19.35
Q -45.5 -20.15 -44.6 -20.55
L -44.5 -20.55 -44.2 -20.75 -44.75 -20.55 -44.95 -20.5
M -41.05 -21.9
L -41 -21.9 -39 -22.65
Q -38.15 -23 -37.2 -22.65
L -37.7 -22.85 -38.5 -22.85 -41.05 -21.9 Z"/>

<path fill="#61AB25" stroke="none" d="
M -43.55 -21
L -44 -20.85 -44.2 -20.75 -44.5 -20.55 -45.35 -19.7
Q -45.85 -18.75 -45.55 -17.9
L -44.5 -15.1
Q -44.2 -14.25 -43.2 -13.85 -42.35 -13.5 -41.45 -13.85
L -36.45 -15.65 -36.35 -15.7
Q -35.5 -16.05 -35 -16.8 -34.55 -17.75 -34.85 -18.6
L -35.9 -21.4
Q -36.2 -22.25 -37.15 -22.65
L -37.2 -22.65
Q -38.15 -23 -39 -22.65
L -41 -21.9 -43.55 -21 Z"/>

<path fill="url(#Gradient_1)" stroke="none" d="
M -41.05 -21.9
L -41.8 -21.75 -43.55 -21 -41 -21.9 -41.05 -21.9
M 0.75 -14.2
Q 5 -23.1 1 -34.75
L -0.35 -38.4 -0.7 -38.85 -1.3 -38.85 -6.5 -36.95 -6.8 -36.6 -6.95 -36.05 -6.95 -36 -6.05 -32.3 -6.05 -32.25
Q -3.2 -23.75 -5.95 -17.35 -8.5 -11.95 -13.75 -9.4
L -15.45 -8.6 -15.8 -8.45
Q -22.6 -6 -29 -8.95 -33.35 -11.15 -36.35 -15.7
L -36.45 -15.65 -41.45 -13.85
Q -42.35 -13.5 -43.2 -13.85 -44.2 -14.25 -44.5 -15.1
L -45.55 -17.9
Q -45.85 -18.75 -45.35 -19.7
L -44.5 -20.55 -44.6 -20.55
Q -45.5 -20.15 -45.75 -19.35
L -45.7 -19.25
Q -46.1 -18.4 -45.75 -17.6
L -45.55 -17.15
Q -40.95 -6.05 -32.15 -2.25 -22.8 2.1 -13.2 -1.4
L -12.75 -1.55 -12.4 -1.7 -12.2 -1.75 -12.15 -1.8 -11.9 -1.85 -11.85 -1.9 -11.7 -1.95 -10.55 -2.6
Q -3 -6.3 0.75 -14.2 Z"/>

<path fill="url(#Gradient_2)" stroke="none" d="
M -14.25 -76.6
Q -14.55 -77.8 -16.15 -77.5
L -27.05 -73.55
Q -32.8 -71.4 -32.25 -69.1 -32.1 -66.95 -26 -65.05 -14.15 -60.15 -8.6 -40.9
L -6.95 -36.05 -6.8 -36.6 -6.5 -36.95 -1.3 -38.85 -0.7 -38.85 -0.35 -38.4 -14.25 -76.6 Z"/>
</g>

<g id="MovieClips_Symbol_710_0_Layer0_0_FILL">
<path fill="url(#Gradient_3)" stroke="none" d="
M 21.2 3.7
L 20.9 3.5
Q 17.3 0 12.4 0 7.25 0 3.6 3.7 2 5.25 1.1 7.25 0 9.6 0 12.4 0 15.15 1.1 17.55 1.9 19.35 3.4 20.9
L 3.6 21.25
Q 7.25 24.75 12.4 24.75 16.3 24.75 19.35 22.7 24.05 18.9 24.5 13.1 24.85 7.25 21.2 3.7
M 12.4 5.45
Q 15.1 5.45 17.05 7.3
L 17.3 7.6 17.3 7.65
Q 19.35 9.6 19.35 12.4
L 19.35 12.65
Q 19.2 15.4 17.3 17.35 15.3 19.25 12.4 19.25 9.55 19.25 7.55 17.35
L 7.35 17.2
Q 5.5 15.15 5.5 12.4 5.5 9.5 7.45 7.6
L 7.55 7.55
Q 9.55 5.45 12.4 5.45 Z"/>
</g>
</defs>

<g transform="matrix( 1, 0, 0, 1, 0,0) ">
<g transform="matrix( 1, 0, 0, 1, -67.7,-93.75) ">
<g transform="matrix( 1, 0, 0, 1, 0,0) ">
<use xlink:href="#Parts_Hats_Jigg_jiggEpic_0_Layer0_0_FILL"/>
</g>
</g>

<g transform="matrix( 1, 0, 0, 1, 0,0) ">
<g transform="matrix( 1, 0, 0, 1, 0,0) ">
<use xlink:href="#Graphics_Symbol_708_0_Layer1_0_FILL"/>
</g>

<g transform="matrix( 1, 0, 0, 1, 0,0) ">
<use xlink:href="#Graphics_Symbol_708_0_Layer0_0_FILL"/>
</g>
</g>

<g transform="matrix( 1, 0, 0, 1, 14.1,-42.75) ">
<g transform="matrix( 1, 0, 0, 1, -3,0.5) ">
<g transform="matrix( 1, 0, 0, 1, 0,0) ">
<use xlink:href="#MovieClips_Symbol_710_0_Layer0_0_FILL"/>
</g>
</g>

<g transform="matrix( 1, 0, 0, 1, -16.05,-36.6) ">
<g transform="matrix( 1, 0, 0, 1, 0,0) ">
<use xlink:href="#MovieClips_Symbol_710_0_Layer0_0_FILL"/>
</g>
</g>

<g transform="matrix( 1, 0, 0, 1, 13.95,-26.1) ">
<g transform="matrix( 1, 0, 0, 1, 0,0) ">
<use xlink:href="#MovieClips_Symbol_710_0_Layer0_0_FILL"/>
</g>
</g>
</g>
</g>
</svg>
