
<svg xmlns="http://www.w3.org/2000/svg" version="1.1" xmlns:xlink="http://www.w3.org/1999/xlink" preserveAspectRatio="none" x="0px" y="0px" width="550px" height="400px" viewBox="0 0 550 400">
<defs>
<g id="Graphics_Symbol_592_0_Layer0_0_FILL">
<path fill="#000000" stroke="none" d="
M 37.7 -7.45
Q 31.45 -6.05 15.15 -9.95
L -8.1 -15.55
Q -1.55 -10.6 5.25 5.2 11.8 20.35 12.55 30.85 19.05 16.55 26.75 8.3 34.45 0 42.25 0.5 50 0.95 52.95 17.5 55.85 34.05 63.5 65.55 62.7 53.3 66.7 23.2 70.65 -6.6 71.05 -14.2 64.75 -12.15 54.35 -10.5
L 37.7 -7.45 Z"/>
</g>

<g id="MovieClips_Symbol_587_0_Layer0_0_FILL">
<path fill="#000000" stroke="none" d="
M 59.95 37.15
Q 54.45 0 46 0 24.95 0 14.5 25.5 10.95 34.15 9.1 44.8 7.75 52.45 7.75 57.35 7.75 60.15 8.5 62
L 9 60.8
Q 8.9 73.15 6.05 98.2
L 3.1 124.4
Q 0 130 0 130.85 0 132.35 0.4 132.45
L 0.75 132.5 2.2 132.55 3.85 132.55
Q 44 133.4 52.4 136.65 54.8 137.55 58 140.4 61.3 143.25 66.25 145.25
L 67 144 67 99
Q 63 57.75 59.95 37.15
M 19.25 84.75
Q 16.9 86.9 15.5 94.75 13.8 104.15 12.75 106.5
L 8.55 114.65 9.75 107.9
Q 11.5 96.2 11.5 80.85 11.5 64.8 9.75 54.3 11.7 40.15 15.6 28.85 24.95 2 45 2 53 2 59.3 59.8 62.45 88.75 64 118.25
L 63.75 140.5
Q 57.85 137.05 56.15 136.2 53.95 135.15 50.3 134.7 34.05 133.3 5.1 129.1
L 4.95 129.05 5.2 128.1
Q 12.15 119.1 15.2 106.45 17.7 91.55 19.25 84.75 Z"/>
</g>

<g id="Parts_Bodies_bodyMC_5_Layer9_0_FILL">
<path fill="#000000" stroke="none" d="
M 29.8 -7.95
Q 27 -7.95 16 -10.75 7.15 -13.05 -14.45 -19.1 -10.95 -14 -5.2 -6.65 -0.55 -0.7 1.4 2.6 7 12.2 10.8 35.35
L 12.75 33.7
Q 13.75 32.55 13.75 31.85
L 13.35 28.4 12.55 30.85
Q 12.4 21.5 5.2 5.05 -2.1 -11.75 -8.1 -15.55 25.3 -5.5 36.9 -5.55 48.5 -5.65 56 -8.45
L 71.05 -14.2 71 -13.15
Q 70.35 -5.1 62.5 56.55
L 62.2 52.75 60.75 63.85
Q 60.75 70.2 62.25 72.5
L 64.4 73.95 64.35 73.1
Q 64.9 61.25 69.4 30.45 73.5 2.25 73.5 -10.25 73.5 -12.45 72.35 -13.7 71.3 -14.9 71.35 -15.2 64.8 -14.75 50.1 -11.2 36.6 -7.95 29.8 -7.95 Z"/>
</g>

<g id="MovieClips_Symbol_623_0_Layer0_0_FILL">
<path fill="#000000" fill-opacity="0.25098039215686274" stroke="none" d="
M 61.7 48.9
Q 55.2 0 46 0 31.5 0 20.35 14.9 7.75 31.75 7.75 58.7 7.75 60.55 8.3 61.6
L 8.8 62.5 8.45 69.7 5.85 99.8
Q 5 110.65 3.15 123.3 2.25 127.85 1 129.15 0 130.15 0 130.85 0 132.1 0.15 132.2
L 2.8 132.45 29.2 133.45
Q 42.05 134.35 49.3 136.4 58.6 139.05 66.25 145.25
L 67 119.95
Q 67 88.5 61.7 48.9
M 30.5 27.25
Q 33.8 27.45 39.4 35.5 44.1 42.3 46.25 47.8 49.25 55.55 49.85 62.85 50.15 66.65 49.95 70 50.85 81.5 52.8 99.4 54.25 112.55 54.25 116.45 54.25 119.95 49.75 121.5 44.6 123.25 31.55 123.25
L 24.75 122.65 15.7 121.7
Q 20.25 118.4 22.25 116.05 24.95 112.95 25.85 109.1
L 29.55 92.7
Q 31 86 31 84.1 31 79.35 29 74 26.6 67.65 23.25 67.65 20.4 67.65 17.55 71.35
L 13.35 77.45
Q 19.9 53.05 24.15 41.65 25.25 38.6 30.5 27.25
M 14.65 78.15
L 12.4 81.2 16.2 75.7 16.1 76 14.65 78.15 Z"/>
</g>

<g id="MovieClips_Symbol_625_0_Layer0_0_FILL">
<path fill="#FFFFFF" fill-opacity="0.25098039215686274" stroke="none" d="
M 11 9.65
Q 11 8.1 12.2 5.5
L 13.35 2.7
Q 13.35 1.35 12.4 0 8.65 0.5 4.15 7.8 0 14.5 0 18
L 0.3 20.2
Q 0.2 20.3 0.05 20.35
L 0.55 20.45
Q 4.3 20.45 5.05 19.55 5.45 18.25 6.1 17.55 10.85 23.2 12.05 25.3 13.6 27.95 13.6 31
L 11.15 50.35
Q 8.65 69.15 8.65 74.1 8.65 75.95 10.4 77.15 12.6 78.65 16.8 78.65 20.9 78.65 20.9 75.35
L 17.75 70.1 19.75 51.75
Q 21.75 33.35 21.75 30.35 21.75 24.95 16.4 18.8
L 12.7 14.4
Q 11 11.9 11 9.65 Z"/>
</g>

<g id="MovieClips_Symbol_585_5_Layer0_0_FILL">
<path fill="#6479CE" stroke="none" d="
M 30.5 -5.95
Q 27.45 -5.95 19.3 -7.95 10.55 -10.1 -8.1 -15.55 -4.8 -13.2 -0.3 -5.7 3.3 0.35 5.15 5.05 6.65 8.7 9.7 20.25
L 12.55 30.85 12.7 30.85
Q 12.6 34.65 11.2 43.35 9.65 52.5 9.65 54.3
L 10.55 62.75
Q 11.4 72.4 11.4 80.8 11.4 94.95 8.95 102.65
L 7.2 107.65
Q 6.45 110.4 6.45 113.7 6.45 116 7.35 117.35 8.25 118.65 8.25 119.45 8.25 121.35 6.95 124.65
L 5 129.1 50.05 135
Q 53.65 135.55 54.2 136.65 56.2 137.3 59.7 139.65 62.95 141.8 65.65 142.5
L 65.9 135
Q 65.9 129.85 63.75 105.25 61.55 80.7 61.55 75.65 61.55 74.6 65.65 44.7 69.8 14.3 69.95 11 70.8 -4.15 72.1 -9.5 72.75 -12.15 73.25 -12.75 73.25 -13.25 72.85 -13.7 72.1 -14.55 70.1 -14.55 67.2 -14.55 54.45 -10.25 41.7 -5.95 30.5 -5.95
M 12.75 30.85
Q 13.55 30.85 13 31.05
L 12.75 30.85 Z"/>
</g>
</defs>

<g transform="matrix( 1, 0, 0, 1, -33.5,-72.6) ">
<g transform="matrix( 1, 0, 0, 1, 0,0) ">
<g transform="matrix( 1, 0, 0, 1, 0,0) ">
<use xlink:href="#Graphics_Symbol_592_0_Layer0_0_FILL"/>
</g>
</g>

<g transform="matrix( 1, 0, 0, 1, 0,0) ">
<g transform="matrix( 1, 0, 0, 1, 0,0) ">
<use xlink:href="#MovieClips_Symbol_587_0_Layer0_0_FILL"/>
</g>
</g>

<g transform="matrix( 1, 0, 0, 1, 0,0) ">
<use xlink:href="#Parts_Bodies_bodyMC_5_Layer9_0_FILL"/>
</g>

<g transform="matrix( 1, 0, 0, 1, 0,0) ">
<g transform="matrix( 1, 0, 0, 1, 0,0) ">
<use xlink:href="#MovieClips_Symbol_623_0_Layer0_0_FILL"/>
</g>
</g>

<g transform="matrix( 1, 0, 0, 1, 25,39.6) ">
<g transform="matrix( 1, 0, 0, 1, 0,0) ">
<use xlink:href="#MovieClips_Symbol_625_0_Layer0_0_FILL"/>
</g>
</g>
</g>

<g transform="matrix( 1, 0, 0, 1, -32.9,-71.25) ">
<g transform="matrix( 1, 0, 0, 1, 0,0) ">
<use xlink:href="#MovieClips_Symbol_585_5_Layer0_0_FILL"/>
</g>
</g>

<g transform="matrix( 1, 0, 0, 1, -33.5,-72.6) ">
<g transform="matrix( 1, 0, 0, 1, 0,0) ">
<g transform="matrix( 1, 0, 0, 1, 0,0) ">
<use xlink:href="#Graphics_Symbol_592_0_Layer0_0_FILL"/>
</g>
</g>
</g>
</svg>
