
<svg xmlns="http://www.w3.org/2000/svg" version="1.1" xmlns:xlink="http://www.w3.org/1999/xlink" preserveAspectRatio="none" x="0px" y="0px" width="550px" height="400px" viewBox="0 0 550 400">
<defs>
<g id="Layer0_0_FILL">
<path fill="#FFFFFF" stroke="none" d="
M 45.9 56.7
Q 44.95 56.95 44.45 57.75 44 58.55 44.25 59.45 44.45 60.4 45.25 60.85
L 47 61.1
Q 47.9 60.85 48.4 60.05 48.8 59.3 48.6 58.35 48.35 57.45 47.6 56.95 46.8 56.45 45.9 56.7
M 59.85 -3.1
Q 60.65 -3.3 61.1 -4 61.5 -4.7 61.3 -5.55 61.1 -6.35 60.4 -6.75
L 58.85 -7
Q 58 -6.8 57.65 -6.1 57.2 -5.4 57.4 -4.6 57.6 -3.75 58.35 -3.35 59 -2.9 59.85 -3.1
M 25.65 -56.4
L 27.45 -57.4
Q 28.05 -58.15 27.9 -58.8 27.75 -59.5 26.85 -59.8 25.95 -60.1 24.85 -59.8 23.75 -59.55 23.05 -58.85 22.45 -58.15 22.6 -57.45 22.75 -56.8 23.65 -56.45
L 25.65 -56.4 Z"/>
</g>
</defs>

<g transform="matrix( 1, 0, 0, 1, 0,0) ">
<use xlink:href="#Layer0_0_FILL"/>
</g>
</svg>
