
<svg xmlns="http://www.w3.org/2000/svg" version="1.1" xmlns:xlink="http://www.w3.org/1999/xlink" preserveAspectRatio="none" x="0px" y="0px" width="550px" height="400px" viewBox="0 0 550 400">
<defs>
<linearGradient id="Gradient_1" gradientUnits="userSpaceOnUse" x1="22.450000000000003" y1="54.175000000000004" x2="-0.7500000000000018" y2="-38.775" spreadMethod="pad">
<stop  offset="0%" stop-color="#9DCCD7"/>

<stop  offset="100%" stop-color="#E1EAF7"/>
</linearGradient>

<g id="Layer0_0_FILL">
<path fill="#FFFFFF" stroke="none" d="
M 27.95 -64.5
Q 17.35 -72.5 0.55 -68.35 -0.45 -68.1 -3.7 -65.7 -9.25 -61.75 -24.85 -49.7
L -31.9 -54.3
Q -39.7 -35.5 -41.25 -23.6 -42.5 -13.65 -39.75 -2.6 -39.2 -0.3 -34.55 6.9
L -30.1 13.6 -29.45 25.45 -28.65 29.5
Q -25.2 43.3 -16.55 48.65 -10.25 52.6 -4.2 51.1 -0.75 50.25 0.1 46 0.85 42.2 -0.7 39.7
L 20.25 59.15 18.7 59.6 19.25 61.75
Q 25.4 64.3 26.4 64.05 31.45 62.8 35.75 55.45 39.45 49.2 40.7 42.55 41.6 37.3 44.75 5.2 48 -29 47.3 -31.95
L 46.4 -33.7 40.35 -40.15
Q 39.5 -40.95 39.4 -41.5
L 38.6 -47.9
Q 35.95 -58.55 27.95 -64.5
M 14.75 -40.95
L 17.35 -40.95
Q 21.65 -41.9 30.4 -46.45
L 34.3 -42
Q 38.35 -37.45 39.1 -36.85 40.1 -35.95 41.55 -33.15 42.55 -29.15 41.6 -14.05 40.6 0.3 37.25 33.9 36.2 44.6 33.3 51.05 30.25 57.65 25.65 58.8 24.65 59.05 21.25 54.55
L 13.8 44.7
Q 2.35 30.5 -5.45 32.4
L -7.55 33 -4.7 44.3 -14.55 46.2 -26.4 19.35
Q -25.6 16.45 -25.5 15.4 -25.35 13.8 -27.15 6.55 -28.35 1.65 -31.75 -3.7 -35.2 -9.05 -35.95 -12 -37.25 -17.1 -36.3 -20.15 -34.3 -25 -32.8 -30.9
L 14.75 -40.95
M -13.45 -15
L -15.6 -12.55 -0.7 23.4 -13.45 -15
M 21.3 -25.4
Q 18.6 -21.1 19.55 -15.45
L 31.85 35.95 33.65 34.15 26.5 -23.25
Q 24.15 -29.85 21.3 -25.4 Z"/>

<path fill="url(#Gradient_1)" stroke="none" d="
M 17.35 -40.95
L 14.75 -40.95 -32.8 -30.9
Q -34.3 -25 -36.3 -20.15 -37.25 -17.1 -35.95 -12 -35.2 -9.05 -31.75 -3.7 -28.35 1.65 -27.15 6.55 -25.35 13.8 -25.5 15.4 -25.6 16.45 -26.4 19.35
L -14.55 46.2 -4.7 44.3 -7.55 33 -5.45 32.4
Q 2.35 30.5 13.8 44.7
L 21.25 54.55
Q 24.65 59.05 25.65 58.8 30.25 57.65 33.3 51.05 36.2 44.6 37.25 33.9 40.6 0.3 41.6 -14.05 42.55 -29.15 41.55 -33.15 40.1 -35.95 39.1 -36.85 38.35 -37.45 34.3 -42
L 30.4 -46.45
Q 21.65 -41.9 17.35 -40.95
M 19.55 -15.45
Q 18.6 -21.1 21.3 -25.4 24.15 -29.85 26.5 -23.25
L 33.65 34.15 31.85 35.95 19.55 -15.45
M -15.6 -12.55
L -13.45 -15 -0.7 23.4 -15.6 -12.55 Z"/>
</g>
</defs>

<g transform="matrix( 1, 0, 0, 1, 0,0) ">
<use xlink:href="#Layer0_0_FILL"/>
</g>
</svg>
