
<svg xmlns="http://www.w3.org/2000/svg" version="1.1" xmlns:xlink="http://www.w3.org/1999/xlink" preserveAspectRatio="none" x="0px" y="0px" width="550px" height="400px" viewBox="0 0 550 400">
<defs>
<linearGradient id="Gradient_1" gradientUnits="userSpaceOnUse" x1="281.575" y1="121.5375" x2="277.325" y2="237.9625" spreadMethod="pad">
<stop  offset="0%" stop-color="#5DA921"/>

<stop  offset="100%" stop-color="#96C461"/>
</linearGradient>

<linearGradient id="Gradient_2" gradientUnits="userSpaceOnUse" x1="345.2" y1="182.325" x2="345.09999999999997" y2="131.875" spreadMethod="pad">
<stop  offset="0%" stop-color="#96C461"/>

<stop  offset="100%" stop-color="#5DA921"/>
</linearGradient>

<linearGradient id="Gradient_3" gradientUnits="userSpaceOnUse" x1="459.2" y1="251.67499999999998" x2="459.09999999999997" y2="201.225" spreadMethod="pad">
<stop  offset="0%" stop-color="#96C461"/>

<stop  offset="100%" stop-color="#5DA921"/>
</linearGradient>

<linearGradient id="Gradient_4" gradientUnits="userSpaceOnUse" x1="363.85" y1="345.02500000000003" x2="363.75" y2="294.575" spreadMethod="pad">
<stop  offset="0%" stop-color="#96C461"/>

<stop  offset="100%" stop-color="#5DA921"/>
</linearGradient>

<g id="Layer0_0_MEMBER_0_MEMBER_0_MEMBER_0_FILL">
<path fill="#5DA921" stroke="none" d="
M 464.8 76.65
Q 434.15 47.25 396.05 28.45 357.1 9.25 313.85 2.85 249.05 -6.7 185.85 14.95 122.65 36.6 77.15 83.95 38.3 124.35 18.4 176 -0.85 225.9 0.1 279.5 1.05 333.05 22 382.2 43.7 433.05 83.9 472 117.3 504.3 158.7 523.65 200.1 542.95 246.95 548.1 257.7 549.3 280.9 548.7 304.1 548.1 315.35 546.35 372.1 537.55 420.2 507.35 466.65 478.25 498.45 433.5 530.3 388.7 542.45 335.45 555.05 280.25 544.5 224 536.5 181.25 515.75 143.25 495.5 106.05 464.8 76.65
M 382.85 44.05
Q 416.6 60.15 444.5 85.1 472.4 110.1 491.9 141.7 511.8 174 521.15 210.4 525.85 228.7 527.55 242.25 529.25 255.75 529.3 275.2 529.35 293.35 528.15 304.55 527 315.65 523.4 331.95 514.9 370.2 495.25 404.1 476.05 437.3 447.75 463.5 419.5 489.7 384.8 506.5 349.3 523.65 310.15 529.55 301.05 530.9 283.05 531.7 265 532.45 256.55 531.85 230.4 530 203.2 522.2 176 514.45 153.55 502.5 108.35 478.4 76.05 439.4 44.75 401.65 29.5 354.95 14.3 308.25 17.35 259.55 20.55 209.2 42.95 163.55 47.35 154.55 52.1 146.55 71.75 113.05 100.25 86.85 128.2 61.15 162.4 44.6 196.65 28.05 234.05 22.2 272.35 16.25 310.8 22 348.4 27.65 382.85 44.05
M 69.15 315.4
Q 52.7 316.75 49.5 319.75 47.5 321.6 47.35 325.2 47.2 328.2 48.35 334.7 53.35 363.25 63.9 381.4 74.4 399.5 94.55 414.3 97.8 416.7 102 419.35 106.25 422.05 108.95 423.4 113.6 425.75 123.8 429.15 133.95 432.5 138.95 433.35 142.05 433.9 156.5 434 194.4 434.45 223.55 412.35 252.7 390.2 261.75 354.05 265.2 340.35 265.65 327.3 266.1 314.15 263.85 291.4 260.9 260.7 259.6 249.55 258.35 238.5 258 240.7 257.75 242.35 252.5 242.3 243.1 241.95 234.65 242.05 233.6 242.05 233.7 243.05 233.8 243.9 234.85 248.5 237.6 262.55 237.75 287.75 237.9 316.35 236.9 327.05 236.4 332.6 233.85 342.4 228.35 363.85 214.85 378.65 201.3 393.5 181.55 399.7 172.9 402.4 157.3 402.55 141.65 402.7 134.15 400.1 116.65 394.1 105.35 383.85 94 373.55 85.85 356.4 83.05 350.45 82.4 348.1 81.75 345.75 82.6 344.7 83.2 344 84 343.5 84.8 343 85.3 343 87.95 343 89.45 340.15 90.9 337.25 90.8 332.3 90.55 319.6 87.05 316.9 83.6 314.2 69.15 315.4
M 352.8 378.25
Q 347.4 376.3 341.95 372.15 338.4 369.45 334.65 362.1 330.95 354.8 330.95 350.5 330.95 347.85 330.45 347.35 329.9 346.8 327.65 347.15
L 318.65 348.4
Q 314.4 348.95 313.65 349.85 312.95 350.8 312.95 355.65 312.95 369.2 322.55 381.45 332.1 393.75 346.85 399.1 355.15 402.15 366.6 401.75 377.95 401.35 385.25 397.8 399.4 390.85 407.75 377.6 416.15 364.3 416.15 348.8 416.15 342.75 415.05 341.75 413.95 340.75 407.3 340.95 400.65 341.15 399.5 342.15 398.3 343.15 397.85 349 397.35 356.2 394.8 361.35 392.3 366.55 386.9 371.5 381.55 376.45 376.75 378.3 371.95 380.2 364.7 380.15 358.25 380.15 352.8 378.25
M 406.55 258.9
Q 406.55 263.65 408.6 270.9 410.65 278.2 413.4 283.25 418.15 292 428.25 298.95 438.3 305.9 449.3 308 455.4 309.15 458.85 309.2 462.3 309.2 468.35 308.1 482.85 305.4 493.95 294.45 505 283.5 509.05 267.8 510.55 262 510.85 256.15 511.15 250.3 510 248.8 509.65 248.3 507.05 248.05 504.45 247.8 501.05 248 495 248.3 493.95 248.9 492.95 249.5 492.95 252.85 492.95 267.45 481.3 278.3 469.6 289.15 455.95 287.25 450 286.45 442.5 282.6 435.05 278.8 432.25 275.2 429.6 271.65 427.05 265.45 424.55 259.2 424.55 256.15 424.55 254.1 423.7 253.85 422.85 253.65 418.3 254.45 411.95 255.55 409.3 255.05 407.45 254.7 407 255.3 406.55 255.95 406.55 258.9
M 396.95 185.35
Q 396.95 179.4 396.6 178.35 396.2 177.35 394.25 177.85 391.65 178.55 386.05 178.55 381.95 178.6 381.1 179.7 380.25 180.85 379.1 187.55 376 206.05 361.25 213.95 346.55 221.85 330.05 213.85 317.2 207.6 312.7 192.35 310.85 186.05 309.5 185.15 308.15 184.25 301.85 185.1 295.55 185.95 294.6 187.1 293.6 188.25 294.05 194.15 294.5 200.65 297.7 208.65 300.9 216.6 304.95 221.4 310.1 227.45 319.3 232.3 328.5 237.15 337.55 238.55
L 344.75 239.65
Q 347.65 240 355.5 238.1 363.4 236.2 367.3 234.2 380.8 227.4 388.85 214.1 396.9 200.8 396.95 185.35 Z"/>
</g>

<g id="Layer0_0_MEMBER_0_MEMBER_0_MEMBER_1_FILL">
<path fill="url(#Gradient_1)" stroke="none" d="
M 109.3 421.35
Q 100.83515625 414.4287109375 95.9 410.8 88.74296875 405.5466796875 83 399.9 86.674609375 404.305859375 90.65 408.05 99.1892578125 416.084375 109.3 421.35
M 137.85 430.6
Q 138.0103515625 430.54765625 138.15 430.5 138.0099609375 430.4736328125 137.85 430.45 122.2833984375 428.15 109.3 421.35 109.6123046875 421.6140625 109.9 421.85 117.8 427.75 125.6 430.1 132.75 432.25 137.85 430.6
M 249.95 378.25
Q 247.1630859375 381.8380859375 243.8 385.1 235.9 392.85 213.7 407.2 207.35 411.3 200.75 413.05 191.75 415 184.4 416.85 181.85 417.5 169.65 423.45 159.7 428.35 152.9 428.25 145.511328125 428.1521484375 138.15 430.5 150.5765625 432.266796875 168.05 429.7 185.7 427.1 198.1 421.6 223.75 410.2 239.5 392.45 245.3927734375 385.829296875 249.95 378.25
M 263.7 291.7
Q 263.026953125 284.70625 262.25 278.7 263.669140625 297.0109375 264.15 305.8 265.05 322.55 264.55 331.55 264.2 338.65 262.5 346.35 258.5798828125 363.9908203125 249.95 378.25 258.237890625 367.686328125 261.6 354.35 265.05 340.7 265.5 327.6 265.9 314.55 263.7 291.7
M 116.6 394.7
Q 114.518359375 394.0060546875 112.6 393.3 127.391796875 403.0943359375 141.8 406.6 147.95 408.1 166.9 405.6 183.15 403.5 192.15 401.1 211.6 395.85 221.95 380.5 229.65 368.95 236.05 344.05 237.549609375 338.2111328125 238.1 329.1 236.4154296875 335.5236328125 233.7 342.7 228.2 364.15 214.65 378.95 201.15 393.75 181.35 400 172.7 402.7 157.1 402.85 141.45 403 133.95 400.4 122.3 396.6 116.6 394.7
M 82.2 337.55
Q 83.680078125 336.566796875 82.65 334.85 82.6876953125 336.4513671875 82.2 337.55
M 72.65 345.05
Q 72.65859375 340.759765625 73.4 339.85 71.227734375 340.9603515625 72.65 345.05
M 72.75 345.35
Q 72.6947265625 345.1998046875 72.65 345.05 72.6369140625 347.130859375 72.8 350 73.35 359.7 75.85 365.05 82.9 379.9 100.25 388.3 105.2451171875 390.7181640625 112.6 393.3 108.191015625 390.415625 103.75 386.95 83.3 371 76.4 353.75 73.65 347.9 72.75 345.35
M 74.95 338.45
Q 74.9447265625 339.034765625 73.4 339.85
L 79.4 339.85
Q 81.4876953125 339.3826171875 82.2 337.55 81.787109375 337.8630859375 81.1 338.1 79.0119140625 338.8138671875 74.95 338.45
M 73.4 339.5
Q 72.9 339.85 73.4 339.85 73.95 339.15 73.4 339.5
M 67.5 328.2
Q 64.292578125 328.4423828125 62.65 328.3 60.613671875 331.0626953125 59.45 335.4 69.189453125 338.0015625 74.95 338.45 74.942578125 338.38515625 74.9 338.3 74.75 338.05 72.8 336.85 68 333.8 67.5 328.2
M 63.25 326.35
Q 62.4 326.25 61.5 326.95 59.8697265625 328.14140625 62.65 328.3 62.86640625 328.03046875 63.1 327.75 64.15 326.45 63.25 326.35
M 76 325.35
Q 77.3 323.45 74.7 321.8 72.1 320.15 69.8 321.4 67 322.95 67.5 328.2 74.45 327.7 76 325.35
M 59.45 335.4
Q 56.8087890625 334.7140625 53.85 333.85 59.1 363.55 67.3 379.2 73.0369140625 390.1349609375 83 399.9 70.7458984375 385.262890625 61.75 363.35 57.05 351.8 58.5 340.55 58.8578125 337.75234375 59.45 335.4
M 240.05 104.6
Q 232.55 104.7 208.5 106.9 182.25 109.3 174.3 112.1 166.35 114.95 166.35 121.85 166.35 127.8 186.35 143.65 199.95 154.4 209.35 169 218.75 183.55 224.55 202.9 231.85 227.25 236.2 275.3 239.2982421875 309.6533203125 238.1 329.1 238.596484375 327.243359375 239 325.45 242.25 310.95 242.1 284.3 241.95 256.05 243.8 252 244.45 250.55 245.75 251.35 247.7 252.5 248.1 252.5 255.19453125 252.395703125 256.65 251.65 256.9107421875 252.3154296875 257.15 253.05 260.0943359375 261.993359375 262.25 278.7 259.4 241.8384765625 252.75 166.35 251.8 155.65 251.85 139.35 251.85 122.9 251.7 120.9 251.25 115.7 250.5 111.25 249.75 106.95 249.15 106.2 247.65 104.45 240.05 104.6
M 253.25 247.4
Q 253.45 246.1 254.5 247.3 255.3390625 248.2734375 256.25 250.5 253.0677734375 248.6751953125 253.25 247.4
M 364.3 294.7
Q 354.05 294.7 351 295.3 348 295.9 340.9 299.4 318.75 310.3 311.75 332.05 304.7 353.8 316.05 376.2 320.65 385.35 330.5 392.7 340.3 400 351.6 402.75 366 406.25 379.1 402.2 392.25 398.15 402.7 386.95 415.05 373.8 418.2 356.65 421.4 339.55 414.15 325.3 410.4 317.85 402.75 310.4 395.1 303 387.3 299.15 380.6 295.9 377.55 295.3 374.45 294.7 364.3 294.7
M 364.5 316.9
Q 373.35 316.85 380.35 321.3 387.35 325.7 391.5 333.95 397.35 345.45 394.15 356.7 390.9 367.95 379.8 374.8 372.8 379.15 363.1 378.75 353.45 378.3 346.55 373.4 337.75 367.15 334.8 357.25 332.1 348.1 335.1 338.65 338.1 329.2 345.6 323.3 353.7 316.9 364.5 316.9
M 327.45 347.45
Q 329.75 347.1 330.25 347.65 330.75 348.15 330.75 350.8 330.75 355.1 334.5 362.4 338.25 369.75 341.8 372.45 347.2 376.6 352.65 378.5 358.05 380.4 364.5 380.45 371.8 380.5 376.6 378.6 381.4 376.75 386.75 371.8 392.15 366.8 394.65 361.65 397.2 356.45 397.7 349.3 398.1 343.45 399.3 342.45 400.45 341.45 407.1 341.25 413.75 341.05 414.85 342.05 415.95 343.05 415.95 349.1 415.95 364.6 407.6 377.85 399.2 391.15 385.1 398.05 377.8 401.6 366.4 402.05 355 402.45 346.7 399.4 331.95 394.05 322.35 381.75 312.75 369.5 312.75 355.95 312.75 351.05 313.45 350.15 314.2 349.25 318.45 348.7
L 327.45 347.45
M 440.75 203.8
Q 428.8 208.05 419.45 217.5 406.75 230.4 404.1 247.25 401.45 264.05 409.5 280.6 414.65 291.15 423.65 298.5 432.65 305.85 444.4 309.1 451.15 310.95 459.9 310.75 468.65 310.55 475 308.4 487 304.35 496.2 294.95 504.95 286.05 509.45 274.15 514 262.2 513.15 250.15 512.35 237.5 505.7 227.4 498.2 216 487.2 209.15 476.6 202.55 464.45 201.15 452.3 199.75 440.75 203.8
M 458.45 223.35
Q 477.15 223.5 485.45 240.25 492.05 253.45 487.25 266.3 482.4 279.2 469.05 283.95 461.95 286.5 452.2 284.4 442.45 282.35 436.65 277.05 428.8 269.8 428.15 256.8 427.5 243.8 434.6 234.55 437.85 230.3 445.3 226.8 452.75 223.3 458.45 223.35
M 423.5 254.15
Q 424.35 254.4 424.35 256.45 424.35 259.55 426.9 265.75 429.4 272 432.1 275.5 434.85 279.1 442.3 282.9 449.8 286.75 455.75 287.55 461.35 288.3 468.25 286.3 478.35 283.4 485.55 273.65 492.75 263.9 492.75 253.15 492.75 249.8 493.75 249.2 494.8 248.6 500.85 248.25 504.25 248.1 506.85 248.35 509.5 248.55 509.85 249.05 510.95 250.6 510.65 256.45 510.35 262.3 508.85 268.1 504.85 283.8 493.8 294.75 482.7 305.7 468.2 308.35 459.6 309.95 452.2 308.9 444.8 307.85 435.7 303.75 422.9 297.95 414.65 285.4 406.35 272.8 406.35 259.2 406.35 256.25 406.8 255.6 407.25 255 409.15 255.35 411.75 255.85 418.15 254.75 422.7 253.95 423.5 254.15
M 399.5 177.9
Q 396.6 156.3 377.05 141.5 364.95 132.35 349.85 131.25 335.65 130.15 322.3 136.35 308.95 142.5 300.45 154.05 291.4 166.3 290.35 181.5 288.9 202.5 300.75 218.85 312.6 235.25 332.7 239.95 347.8 243.5 363.2 237.9 378.55 232.3 387.55 219.9 402.4 199.55 399.5 177.9
M 324.85 162
Q 331.85 155.7 340.75 154.15 350.3 152.5 359.1 157.05 369.55 162.4 374 174.3 378.45 186.2 373.95 196.65 371.5 202.3 365.85 207.7 360.15 213.1 355.05 214.65 343.1 218.2 331.85 212.75 320.6 207.25 316.25 195.75 312.75 186.45 315.4 177.05 317.9 168.3 324.85 162
M 378.95 187.85
Q 380.1 181.15 380.95 180 381.8 178.9 385.9 178.85 391.35 178.85 394.05 178.1 396.05 177.6 396.4 178.65 396.75 179.65 396.75 185.65 396.7 205.35 384.3 220.6 371.9 235.8 353.4 238.8 345.75 240.05 344.55 239.9 331.5 238.4 321.25 233.7 311 228.95 304.8 221.65 300.75 216.9 297.55 208.9 294.35 200.95 293.85 194.4 293.45 188.5 294.4 187.4 295.4 186.25 301.65 185.4 307.95 184.55 309.3 185.45 310.7 186.35 312.55 192.65 317.05 207.95 329.9 214.15 346.4 222.1 361.1 214.2 375.85 206.35 378.95 187.85 Z"/>
</g>

<g id="Layer0_0_MEMBER_0_MEMBER_0_MEMBER_2_FILL">
<path fill="#5DA921" stroke="none" d="
M 465.35 76.9
Q 432 44.6 390.55 25.25 349.15 5.95 302.3 0.75 291.5 -0.4 268.35 0.2 245.1 0.8 233.9 2.55 177.15 11.35 129.05 41.55 82.65 70.65 50.85 115.4 19 160.2 6.85 213.45 -5.75 268.65 4.75 324.85 12.75 367.6 33.5 405.65 53.75 442.85 84.45 472.25 115.1 501.65 153.2 520.45 192.15 539.65 235.4 546.05 300.2 555.6 363.4 533.95 426.55 512.3 472.1 464.95 510.95 424.55 530.9 372.9 550.15 323 549.2 269.45 548.3 215.85 527.3 166.7 505.6 115.85 465.35 76.9
M 346.05 26.7
Q 373.25 34.45 395.7 46.4 440.9 70.5 473.25 109.5 504.55 147.25 519.75 193.95 535 240.6 531.9 289.35 528.7 339.7 506.3 385.35 501.9 394.35 497.15 402.35 477.5 435.85 449 462.05 421 487.75 386.85 504.25 352.6 520.8 315.2 526.65 276.9 532.65 238.45 526.85 200.85 521.2 166.4 504.8 132.6 488.75 104.75 463.8 76.85 438.8 57.35 407.2 37.45 374.9 28.1 338.5 23.4 320.2 21.7 306.65 20 293.15 19.95 273.7 19.9 255.55 21.1 244.35 22.25 233.25 25.85 216.95 34.35 178.65 54 144.75 73.2 111.6 101.5 85.4 129.75 59.2 164.45 42.4 199.95 25.25 239.1 19.35 248.2 18 266.2 17.25 284.25 16.45 292.7 17.05 318.85 18.95 346.05 26.7 Z"/>
</g>

<g id="Layer0_0_MEMBER_0_MEMBER_1_MEMBER_0_FILL">
<path fill="#5DA921" stroke="none" d="
M 398.15 184.95
Q 398.95 178.85 398.9 177.85 398.9 176.8 394.9 177.45 393.75 177.75 389.6 178.25 385.3 178.7 383.15 178.7 379.45 178.7 379.1 179.65 378.7 180.65 378.05 187.3 374.95 205.8 361.2 213.35 347.45 220.9 331 212.95 324.55 209.85 320.55 204.75 316.6 199.8 314.3 191.95 313.75 188.2 313.5 187.05 313.15 185.25 312.3 184.75 311.05 183.95 301.7 185 293.95 186.5 292.95 187.4 291.75 188.5 292.15 194.25 292.6 200.55 296.35 209 299.95 217.05 304.15 222.05 315.65 235.7 332.7 239.95
L 340.2 240.15
Q 342.2 240.45 343.4 240.25 344 240.15 344.6 240.05 347.6 240.4 356 238.55 364.55 236.65 368.4 234.75 381.8 227.9 390 214.15 398.1 200.45 398.15 184.95 Z"/>
</g>

<g id="Layer0_0_MEMBER_0_MEMBER_1_MEMBER_1_FILL">
<path fill="url(#Gradient_2)" stroke="none" d="
M 399.5 177.9
Q 396.6 156.3 377.05 141.5 364.95 132.35 349.85 131.25 335.65 130.15 322.3 136.35 308.95 142.5 300.45 154.05 291.4 166.3 290.35 181.5 288.9 202.5 300.75 218.85 312.6 235.25 332.7 239.95 347.8 243.5 363.2 237.9 378.55 232.3 387.55 219.9 402.4 199.55 399.5 177.9
M 324.85 162
Q 331.85 155.7 340.75 154.15 350.3 152.5 359.1 157.05 369.55 162.4 374 174.3 378.45 186.2 373.95 196.65 371.5 202.3 365.85 207.7 360.15 213.1 355.05 214.65 343.1 218.2 331.85 212.75 320.6 207.25 316.25 195.75 312.75 186.45 315.4 177.05 317.9 168.3 324.85 162
M 378.95 187.85
Q 380.1 181.15 380.95 180 381.8 178.9 385.9 178.85 391.35 178.85 394.05 178.1 396.05 177.6 396.4 178.65 396.75 179.65 396.75 185.65 396.7 205.35 384.3 220.6 371.9 235.8 353.4 238.8 345.75 240.05 344.55 239.9 331.5 238.4 321.25 233.7 311 228.95 304.8 221.65 300.75 216.9 297.55 208.9 294.35 200.95 293.85 194.4 293.45 188.5 294.4 187.4 295.4 186.25 301.65 185.4 307.95 184.55 309.3 185.45 310.7 186.35 312.55 192.65 317.05 207.95 329.9 214.15 346.4 222.1 361.1 214.2 375.85 206.35 378.95 187.85 Z"/>
</g>

<g id="Layer0_0_MEMBER_0_MEMBER_2_MEMBER_0_FILL">
<path fill="#5DA921" stroke="none" d="
M 427.55 256.4
Q 427.15 254.6 426.3 254.05 425.05 253.25 415.75 254.3 407.95 255.8 406.95 256.7 405.75 257.8 406.2 263.6 406.65 269.9 410.4 278.35 413.95 286.4 418.2 291.35 429.7 305 446.75 309.25
L 454.25 309.45
Q 456.25 309.8 457.45 309.55 458.05 309.45 458.65 309.35 461.6 309.7 470 307.85 478.6 306 482.4 304.05 495.85 297.25 504 283.5 512.1 269.8 512.15 254.25 512.95 248.15 512.95 247.15 512.95 246.15 508.95 246.75 507.75 247.05 503.6 247.55 499.3 248 497.15 248 493.5 248.05 493.1 248.95 492.7 250 492.05 256.6 488.95 275.15 475.25 282.65 461.5 290.2 445.05 282.25 438.6 279.15 434.6 274.05 430.65 269.1 428.35 261.3 427.8 257.55 427.55 256.4 Z"/>
</g>

<g id="Layer0_0_MEMBER_0_MEMBER_2_MEMBER_1_FILL">
<path fill="url(#Gradient_3)" stroke="none" d="
M 436.35 205.65
Q 422.95 211.85 414.5 223.35 405.45 235.6 404.4 250.85 402.95 271.8 414.8 288.15 426.65 304.55 446.75 309.25 461.85 312.8 477.25 307.2 492.6 301.6 501.6 289.25 516.4 268.9 513.5 247.25 510.6 225.6 491.05 210.8 478.95 201.65 463.85 200.55 449.7 199.5 436.35 205.65
M 454.75 223.5
Q 464.35 221.85 473.15 226.4 483.55 231.75 488 243.65 492.45 255.55 487.95 265.95 485.55 271.6 479.85 277 474.2 282.4 469.05 283.95 457.15 287.55 445.85 282.05 434.6 276.55 430.25 265.05 426.75 255.7 429.4 246.35 431.9 237.6 438.9 231.3 445.9 225 454.75 223.5
M 418.8 291
Q 414.75 286.2 411.55 278.25 408.35 270.25 407.9 263.75 407.45 257.85 408.45 256.75 409.4 255.6 415.7 254.7 422 253.85 423.35 254.75 424.7 255.65 426.55 261.95 431.05 277.3 443.9 283.45 460.4 291.45 475.1 283.55 489.85 275.65 492.95 257.15 494.1 250.45 494.95 249.3 495.8 248.2 499.9 248.2 505.65 248.1 508.1 247.45 510.05 246.95 510.45 247.95 510.8 249 510.8 254.95 510.75 274.7 498.35 289.9 485.9 305.15 467.4 308.15 459.8 309.35 458.6 309.25 445.55 307.7 435.25 303 425 298.3 418.8 291 Z"/>
</g>

<g id="Layer0_0_MEMBER_0_MEMBER_3_MEMBER_0_FILL">
<path fill="#5DA921" stroke="none" d="
M 401.8 341.4
Q 398.15 341.4 397.8 342.35 397.4 343.35 396.7 350 393.6 368.5 379.9 376 366.15 383.55 349.7 375.6 343.2 372.45 339.25 367.45 335.3 362.45 333 354.65 332.45 350.9 332.2 349.75 331.85 347.95 331 347.4 329.75 346.65 320.4 347.65 312.6 349.2 311.6 350.1 310.4 351.2 310.85 356.95 311.3 363.25 315.05 371.7 318.65 379.75 322.85 384.75 334.35 398.4 351.4 402.65
L 358.9 402.85
Q 360.9 403.15 362.1 402.95 362.7 402.85 363.3 402.7 366.25 403.05 374.65 401.2 383.25 399.35 387.05 397.4 400.5 390.6 408.7 376.85 416.8 363.15 416.8 347.65 417.6 341.55 417.6 340.5 417.6 339.5 413.6 340.1 412.4 340.45 408.25 340.9 403.9 341.4 401.8 341.4 Z"/>
</g>

<g id="Layer0_0_MEMBER_0_MEMBER_3_MEMBER_1_FILL">
<path fill="url(#Gradient_4)" stroke="none" d="
M 406.25 382.6
Q 421.05 362.25 418.15 340.6 415.25 318.95 395.7 304.2 383.6 295.05 368.55 293.95 354.35 292.85 341 299.05 327.65 305.2 319.15 316.75 310.1 329 309.05 344.2 307.6 365.2 319.45 381.55 331.3 397.95 351.4 402.65 366.55 406.2 381.9 400.6 397.25 394.95 406.25 382.6
M 377.8 319.75
Q 388.25 325.1 392.7 337 397.15 348.9 392.65 359.35 390.2 365 384.55 370.4 378.85 375.8 373.75 377.35 361.8 380.9 350.55 375.4 339.25 369.9 334.95 358.4 331.45 349.1 334.1 339.7 336.6 331 343.55 324.7 350.55 318.4 359.45 316.85 369 315.2 377.8 319.75
M 399.65 342.7
Q 400.5 341.55 404.6 341.55 409.95 341.55 412.75 340.8 414.7 340.3 415.1 341.3 415.45 342.35 415.45 348.35 415.4 368.05 403 383.3 390.6 398.5 372.1 401.5 364.4 402.8 363.25 402.6 350.2 401.05 339.95 396.35 329.7 391.65 323.5 384.35 319.4 379.55 316.25 371.6 313.05 363.65 312.55 357.1 312.1 351.2 313.1 350.1 314.05 348.95 320.35 348.1 326.65 347.25 328 348.15 329.35 349.05 331.2 355.35 335.7 370.6 348.6 376.85 365.1 384.8 379.8 376.9 394.55 369 397.6 350.55 398.75 343.8 399.65 342.7 Z"/>
</g>
</defs>

<g transform="matrix( 0.0218505859375, 0, 0, 0.0218505859375, 0,0) ">
<use xlink:href="#Layer0_0_MEMBER_0_MEMBER_0_MEMBER_0_FILL"/>
</g>

<g transform="matrix( 0.0218505859375, 0, 0, 0.0218505859375, 0,0) ">
<use xlink:href="#Layer0_0_MEMBER_0_MEMBER_0_MEMBER_1_FILL"/>
</g>

<g transform="matrix( 0.0218505859375, 0, 0, 0.0218505859375, 0,0) ">
<use xlink:href="#Layer0_0_MEMBER_0_MEMBER_0_MEMBER_2_FILL"/>
</g>

<g transform="matrix( 0.0218505859375, 0, 0, 0.0218505859375, 0,0) ">
<use xlink:href="#Layer0_0_MEMBER_0_MEMBER_1_MEMBER_0_FILL"/>
</g>

<g transform="matrix( 0.0218505859375, 0, 0, 0.0218505859375, 0,0) ">
<use xlink:href="#Layer0_0_MEMBER_0_MEMBER_1_MEMBER_1_FILL"/>
</g>

<g transform="matrix( 0.0218505859375, 0, 0, 0.0218505859375, 0,0) ">
<use xlink:href="#Layer0_0_MEMBER_0_MEMBER_2_MEMBER_0_FILL"/>
</g>

<g transform="matrix( 0.0218505859375, 0, 0, 0.0218505859375, 0,0) ">
<use xlink:href="#Layer0_0_MEMBER_0_MEMBER_2_MEMBER_1_FILL"/>
</g>

<g transform="matrix( 0.0218505859375, 0, 0, 0.0218505859375, 0,0) ">
<use xlink:href="#Layer0_0_MEMBER_0_MEMBER_3_MEMBER_0_FILL"/>
</g>

<g transform="matrix( 0.0218505859375, 0, 0, 0.0218505859375, 0,0) ">
<use xlink:href="#Layer0_0_MEMBER_0_MEMBER_3_MEMBER_1_FILL"/>
</g>
</svg>
