
<svg xmlns="http://www.w3.org/2000/svg" version="1.1" xmlns:xlink="http://www.w3.org/1999/xlink" preserveAspectRatio="none" x="0px" y="0px" width="550px" height="400px" viewBox="0 0 550 400">
<defs>
<g id="Layer0_0_FILL">
<path fill="#000000" stroke="none" d="
M 37.7 -23.45
Q 27.25 -35.35 9.7 -35.35 -7.6 -35.35 -16.3 -6.55 -22.25 13.15 -22.25 34.1 -22.25 37.8 -13.75 38
L -5.6 37.5 -5.6 37.4 -4 37.15 14.1 36 51.2 36.7
Q 56.45 36.7 58.2 35.1 59.2 34.2 59.2 32.45
L 55.6 26.35
Q 51.9 19.55 51.2 15.95
L 49 7.8
Q 46.75 -0.5 46.7 -2.6 46 -14 37.7 -23.45
M 10.05 -32.55
Q 23.5 -32.55 31.15 -28 37.65 -24.2 40.8 -16.45 42.95 -11.3 44.5 -0.85 46.35 11.2 47.7 15.8
L 48 16.9
Q 46.55 15.65 43.9 14.7
L 41.4 13.9
Q 34.5 13.9 30.15 24 28.5 18.4 22.95 18.4 20.4 18.4 18.05 20.85 16.05 23 15.8 24.75 14.4 23.8 11.9 23 8.9 22.05 6.2 22.05 1.05 22.05 -2.65 26.2 -6.45 30.4 -5.45 35.45
L -11.35 35.6
Q -16 35.6 -18.15 34.5 -19.65 33.8 -19.65 32.9 -19.65 2.5 -10.7 -15.7 -2.4 -32.55 10.05 -32.55
M 47.6 18.2
Q 48.9 19.6 50.75 24.05
L 57.05 32.65 52.75 34.15 38.4 33.95 43.2 34.3 36.45 34.2 36.35 34.3 36.4 34.2 30.6 34.15
Q 30.5 25.65 33.4 21 36.35 16.2 42.05 16.2 45.65 16.2 47.6 18.2
M 23.35 20.65
Q 25.7 20.55 27.25 22.05 29.1 23.75 29.1 26.7
L 28.75 34 16.35 33.8 17.8 29.4
Q 17.6 29.6 17.6 27.05 17.6 24.15 19.4 22.3 20.95 20.75 23.35 20.65
M 14.45 33.7
L 8.15 33.65 4.2 34.75 -3.2 35.35
Q -2.8 29.9 0 26.9 2.75 23.95 6.9 23.95 10 23.95 12.65 25.65 14.9 27.1 14.9 28.05
L 14.45 33.7 Z"/>
</g>
</defs>

<g transform="matrix( 1, 0, 0, 1, 0,0) ">
<use xlink:href="#Layer0_0_FILL"/>
</g>
</svg>
