
<svg xmlns="http://www.w3.org/2000/svg" version="1.1" xmlns:xlink="http://www.w3.org/1999/xlink" preserveAspectRatio="none" x="0px" y="0px" width="550px" height="400px" viewBox="0 0 550 400">
<defs>
<g id="Layer0_0_FILL">
<path fill="#000000" fill-opacity="0.25098039215686274" stroke="none" d="
M 40.25 -20.15
Q 35.55 -25.35 30.15 -29.35 24.7 -33.4 18.95 -34.3 -4.3 -38.6 -12.8 -14.05 -21.35 10.45 -22.25 31.15 -22.25 37.55 -16.25 37.55
L -12.1 36.3 -10.1 36.55 9.3 35.9
Q 26.95 35 42.65 35.25 58.35 35.5 58.35 32.8 58.35 30.4 56.85 29 55.35 27.55 52.65 21.35 49.9 15.1 47.45 0.1 44.95 -14.95 40.25 -20.15
M 14.2 -20.2
Q 19.8 -20.2 23.6 -16.5 26.45 -13.7 31.55 -5 34.6 0.75 36.9 13.3 38.75 23.65 38.9 30.25
L 21.7 31.3 -7.6 31.25
Q -5.55 2.2 0.4 -10 5.35 -20.2 14.2 -20.2 Z"/>
</g>
</defs>

<g transform="matrix( 1, 0, 0, 1, 0,0) ">
<use xlink:href="#Layer0_0_FILL"/>
</g>
</svg>
