
<svg xmlns="http://www.w3.org/2000/svg" version="1.1" xmlns:xlink="http://www.w3.org/1999/xlink" preserveAspectRatio="none" x="0px" y="0px" width="550px" height="400px" viewBox="0 0 550 400">
<defs>
<g id="Layer0_0_FILL">
<path fill="#000000" stroke="none" d="
M 181 154.95
L 181 -235 -221.95 -235 -221.95 154.95 181 154.95
M 14.7 -211.45
Q 16.55 -214.65 19.65 -216.3 22.8 -217.9 26.45 -217.9 31.6 -217.9 34.5 -215.3
L 34.5 -217.5 38.85 -217.5 38.85 -207.95 34.5 -207.95
Q 33.8 -210.35 31.8 -211.75 29.75 -213.15 27.4 -213.15 24.35 -213.15 22.2 -210.85 20.05 -208.6 20.05 -204.55 20.05 -199.95 22.25 -197.55 24.45 -195.15 27.6 -195.15 29.9 -195.15 31.45 -196.35 33 -197.5 33.6 -199.65
L 29.05 -199.65 29.05 -204.15 41.1 -204.15
Q 41.1 -199.3 39.4 -196.4 37.7 -193.55 34.5 -191.9 31.25 -190.25 27.25 -190.25 20.3 -190.25 16.55 -194.2 12.85 -198.1 12.85 -204.1 12.85 -208.25 14.7 -211.45
M 9.55 -208.95
L 4.65 -208.95 4.65 -212.95 -3.3 -212.95 -3.3 -206.75 3.1 -206.75 3.1 -202.2 -3.3 -202.2 -3.3 -195.15 4.65 -195.15 4.65 -199.15 9.55 -199.15 9.55 -190.6 -13.1 -190.6 -13.1 -195.15 -10 -195.15 -10 -212.95 -13.1 -212.95 -13.1 -217.5 9.55 -217.5 9.55 -208.95
M 58.75 -199.75
L 52.05 -199.75 50.7 -195.15 54.15 -195.15 54.15 -190.6 42.75 -190.6 42.75 -195.15 45.95 -195.15 50.95 -212.95 47.55 -212.95 47.55 -217.5 64.3 -217.5 64.3 -212.95 60.85 -212.95 66.25 -195.15 69.3 -195.15 69.3 -190.6 56.65 -190.6 56.65 -195.15 59.95 -195.15 58.75 -199.75
M 73.7 -212.95
L 73.7 -206.7 69.25 -206.7 69.25 -217.5 92.55 -217.5 92.55 -206.7 88.2 -206.7 88.2 -212.95 84.25 -212.95 84.25 -195.15 88.1 -195.15 88.1 -190.6 73.7 -190.6 73.7 -195.15 77.55 -195.15 77.55 -212.95 73.7 -212.95
M 95 -212.95
L 95 -217.5 117.65 -217.5 117.65 -208.95 112.75 -208.95 112.75 -212.95 104.8 -212.95 104.8 -206.75 111.2 -206.75 111.2 -202.2 104.8 -202.2 104.8 -195.15 112.75 -195.15 112.75 -199.15 117.65 -199.15 117.65 -190.6 95 -190.6 95 -195.15 98.1 -195.15 98.1 -212.95 95 -212.95
M 119.5 73.55
L 119.5 91.15 -164.65 91.15 -164.65 73.55 -164.65 -187.5 119.5 -187.5 119.5 73.55
M -150.45 -212.95
L -153.7 -212.95 -153.7 -195.15 -150.7 -195.15 -150.7 -190.6 -163.85 -190.6 -163.85 -195.15 -160.4 -195.15 -160.4 -212.95 -163.85 -212.95 -163.85 -217.5 -150.45 -217.5 -150.45 -212.95
M -153.5 -204.7
L -145.1 -212.95 -148.15 -212.95 -148.15 -217.5 -135.6 -217.5 -135.6 -212.95 -138.75 -212.95 -146 -205.55 -137.6 -195.15 -134.9 -195.15 -134.9 -190.6 -148.7 -190.6 -148.7 -195.15 -145.7 -195.15 -153.5 -204.7
M -134.35 -204.1
Q -134.35 -209.85 -130.55 -213.85 -126.75 -217.9 -120.05 -217.9 -113.4 -217.9 -109.55 -213.9 -105.75 -209.85 -105.75 -204.1 -105.75 -198.3 -109.6 -194.25 -113.4 -190.25 -120.05 -190.25 -126.95 -190.25 -130.65 -194.4 -134.35 -198.5 -134.35 -204.1
M -102.85 -212.95
L -102.85 -217.5 -92.05 -217.5 -82.6 -200.75 -82.6 -212.95 -85.9 -212.95 -85.9 -217.5 -74.4 -217.5 -74.4 -212.95 -78 -212.95 -78 -190.4 -83.7 -190.4 -94.8 -210.35 -94.8 -195.15 -91.6 -195.15 -91.6 -190.6 -102.85 -190.6 -102.85 -195.15 -99.4 -195.15 -99.4 -212.95 -102.85 -212.95
M -70.05 -211.45
Q -68.2 -214.65 -65.1 -216.3 -61.95 -217.9 -58.3 -217.9 -53.15 -217.9 -50.25 -215.3
L -50.25 -217.5 -45.9 -217.5 -45.9 -207.95 -50.25 -207.95
Q -50.95 -210.35 -52.95 -211.75 -55 -213.15 -57.35 -213.15 -60.4 -213.15 -62.55 -210.85 -64.7 -208.6 -64.7 -204.55 -64.7 -199.95 -62.5 -197.55 -60.3 -195.15 -57.15 -195.15 -54.85 -195.15 -53.3 -196.35 -51.75 -197.5 -51.15 -199.65
L -55.7 -199.65 -55.7 -204.15 -43.65 -204.15
Q -43.65 -199.3 -45.35 -196.4 -47.05 -193.55 -50.25 -191.9 -53.5 -190.25 -57.5 -190.25 -64.45 -190.25 -68.2 -194.2 -71.9 -198.1 -71.9 -204.1 -71.9 -208.25 -70.05 -211.45
M -41.1 -212.95
L -41.1 -217.5 -25.6 -217.5
Q -21.2 -217.5 -19.25 -215.15 -17.35 -212.85 -17.35 -209.95 -17.35 -205.35 -21.8 -203.25
L -17.6 -195.15 -14.3 -195.15 -14.3 -190.6 -22.1 -190.6 -27.9 -202.35 -30.85 -202.35 -30.85 -195.15 -27.65 -195.15 -27.65 -190.6 -41.1 -190.6 -41.1 -195.15 -37.55 -195.15 -37.55 -212.95 -41.1 -212.95
M -25.3 -212.15
Q -26.25 -212.95 -27.95 -212.95
L -30.85 -212.95 -30.85 -206.65 -28.55 -206.65
Q -24.3 -206.65 -24.3 -209.85 -24.3 -211.4 -25.3 -212.15
M -125.05 -210.7
Q -127.15 -208.35 -127.15 -203.9 -127.15 -199.9 -125.1 -197.55 -123.05 -195.15 -120.05 -195.15 -117.1 -195.15 -115 -197.5 -112.95 -199.8 -112.95 -204.2 -112.95 -208.15 -114.95 -210.55 -116.9 -213 -120.05 -213 -123 -213 -125.05 -210.7
M 57.7 -203.7
L 55.55 -211.8 53.25 -203.7 57.7 -203.7 Z"/>

<path fill="#FFFFFF" stroke="none" d="
M -41.1 -217.5
L -41.1 -212.95 -37.55 -212.95 -37.55 -195.15 -41.1 -195.15 -41.1 -190.6 -27.65 -190.6 -27.65 -195.15 -30.85 -195.15 -30.85 -202.35 -27.9 -202.35 -22.1 -190.6 -14.3 -190.6 -14.3 -195.15 -17.6 -195.15 -21.8 -203.25
Q -17.35 -205.35 -17.35 -209.95 -17.35 -212.85 -19.25 -215.15 -21.2 -217.5 -25.6 -217.5
L -41.1 -217.5
M -27.95 -212.95
Q -26.25 -212.95 -25.3 -212.15 -24.3 -211.4 -24.3 -209.85 -24.3 -206.65 -28.55 -206.65
L -30.85 -206.65 -30.85 -212.95 -27.95 -212.95
M -65.1 -216.3
Q -68.2 -214.65 -70.05 -211.45 -71.9 -208.25 -71.9 -204.1 -71.9 -198.1 -68.2 -194.2 -64.45 -190.25 -57.5 -190.25 -53.5 -190.25 -50.25 -191.9 -47.05 -193.55 -45.35 -196.4 -43.65 -199.3 -43.65 -204.15
L -55.7 -204.15 -55.7 -199.65 -51.15 -199.65
Q -51.75 -197.5 -53.3 -196.35 -54.85 -195.15 -57.15 -195.15 -60.3 -195.15 -62.5 -197.55 -64.7 -199.95 -64.7 -204.55 -64.7 -208.6 -62.55 -210.85 -60.4 -213.15 -57.35 -213.15 -55 -213.15 -52.95 -211.75 -50.95 -210.35 -50.25 -207.95
L -45.9 -207.95 -45.9 -217.5 -50.25 -217.5 -50.25 -215.3
Q -53.15 -217.9 -58.3 -217.9 -61.95 -217.9 -65.1 -216.3
M -102.85 -217.5
L -102.85 -212.95 -99.4 -212.95 -99.4 -195.15 -102.85 -195.15 -102.85 -190.6 -91.6 -190.6 -91.6 -195.15 -94.8 -195.15 -94.8 -210.35 -83.7 -190.4 -78 -190.4 -78 -212.95 -74.4 -212.95 -74.4 -217.5 -85.9 -217.5 -85.9 -212.95 -82.6 -212.95 -82.6 -200.75 -92.05 -217.5 -102.85 -217.5
M -130.55 -213.85
Q -134.35 -209.85 -134.35 -204.1 -134.35 -198.5 -130.65 -194.4 -126.95 -190.25 -120.05 -190.25 -113.4 -190.25 -109.6 -194.25 -105.75 -198.3 -105.75 -204.1 -105.75 -209.85 -109.55 -213.9 -113.4 -217.9 -120.05 -217.9 -126.75 -217.9 -130.55 -213.85
M -127.15 -203.9
Q -127.15 -208.35 -125.05 -210.7 -123 -213 -120.05 -213 -116.9 -213 -114.95 -210.55 -112.95 -208.15 -112.95 -204.2 -112.95 -199.8 -115 -197.5 -117.1 -195.15 -120.05 -195.15 -123.05 -195.15 -125.1 -197.55 -127.15 -199.9 -127.15 -203.9
M -145.1 -212.95
L -153.5 -204.7 -145.7 -195.15 -148.7 -195.15 -148.7 -190.6 -134.9 -190.6 -134.9 -195.15 -137.6 -195.15 -146 -205.55 -138.75 -212.95 -135.6 -212.95 -135.6 -217.5 -148.15 -217.5 -148.15 -212.95 -145.1 -212.95
M -153.7 -212.95
L -150.45 -212.95 -150.45 -217.5 -163.85 -217.5 -163.85 -212.95 -160.4 -212.95 -160.4 -195.15 -163.85 -195.15 -163.85 -190.6 -150.7 -190.6 -150.7 -195.15 -153.7 -195.15 -153.7 -212.95
M 95 -217.5
L 95 -212.95 98.1 -212.95 98.1 -195.15 95 -195.15 95 -190.6 117.65 -190.6 117.65 -199.15 112.75 -199.15 112.75 -195.15 104.8 -195.15 104.8 -202.2 111.2 -202.2 111.2 -206.75 104.8 -206.75 104.8 -212.95 112.75 -212.95 112.75 -208.95 117.65 -208.95 117.65 -217.5 95 -217.5
M 73.7 -206.7
L 73.7 -212.95 77.55 -212.95 77.55 -195.15 73.7 -195.15 73.7 -190.6 88.1 -190.6 88.1 -195.15 84.25 -195.15 84.25 -212.95 88.2 -212.95 88.2 -206.7 92.55 -206.7 92.55 -217.5 69.25 -217.5 69.25 -206.7 73.7 -206.7
M 52.05 -199.75
L 58.75 -199.75 59.95 -195.15 56.65 -195.15 56.65 -190.6 69.3 -190.6 69.3 -195.15 66.25 -195.15 60.85 -212.95 64.3 -212.95 64.3 -217.5 47.55 -217.5 47.55 -212.95 50.95 -212.95 45.95 -195.15 42.75 -195.15 42.75 -190.6 54.15 -190.6 54.15 -195.15 50.7 -195.15 52.05 -199.75
M 55.55 -211.8
L 57.7 -203.7 53.25 -203.7 55.55 -211.8
M 4.65 -208.95
L 9.55 -208.95 9.55 -217.5 -13.1 -217.5 -13.1 -212.95 -10 -212.95 -10 -195.15 -13.1 -195.15 -13.1 -190.6 9.55 -190.6 9.55 -199.15 4.65 -199.15 4.65 -195.15 -3.3 -195.15 -3.3 -202.2 3.1 -202.2 3.1 -206.75 -3.3 -206.75 -3.3 -212.95 4.65 -212.95 4.65 -208.95
M 19.65 -216.3
Q 16.55 -214.65 14.7 -211.45 12.85 -208.25 12.85 -204.1 12.85 -198.1 16.55 -194.2 20.3 -190.25 27.25 -190.25 31.25 -190.25 34.5 -191.9 37.7 -193.55 39.4 -196.4 41.1 -199.3 41.1 -204.15
L 29.05 -204.15 29.05 -199.65 33.6 -199.65
Q 33 -197.5 31.45 -196.35 29.9 -195.15 27.6 -195.15 24.45 -195.15 22.25 -197.55 20.05 -199.95 20.05 -204.55 20.05 -208.6 22.2 -210.85 24.35 -213.15 27.4 -213.15 29.75 -213.15 31.8 -211.75 33.8 -210.35 34.5 -207.95
L 38.85 -207.95 38.85 -217.5 34.5 -217.5 34.5 -215.3
Q 31.6 -217.9 26.45 -217.9 22.8 -217.9 19.65 -216.3 Z"/>

<path fill="#CC0000" stroke="none" d="
M 119.5 73.55
L 119.5 -187.5 -164.65 -187.5 -164.65 73.55 119.5 73.55 Z"/>
</g>

<path id="Layer0_0_1_STROKES" stroke="#000000" stroke-width="1" stroke-linejoin="round" stroke-linecap="round" fill="none" d="
M 119.5 73.55
L 119.5 91.15 -164.65 91.15 -164.65 73.55 -164.65 -187.5 119.5 -187.5 119.5 73.55 Z"/>
</defs>

<g transform="matrix( 1, 0, 0, 1, 0,0) ">
<use xlink:href="#Layer0_0_FILL"/>

<use xlink:href="#Layer0_0_1_STROKES"/>
</g>
</svg>
