
<svg xmlns="http://www.w3.org/2000/svg" version="1.1" xmlns:xlink="http://www.w3.org/1999/xlink" preserveAspectRatio="none" x="0px" y="0px" width="550px" height="400px" viewBox="0 0 550 400">
<defs>
<g id="Layer0_0_FILL">
<path fill="#010101" stroke="none" d="
M 0.8 0
L 0.7 0.1 0.6 0.15 0.5 0.15
Q 0.5 0.25 0.4 0.25
L 0.1 0.85 0 1.15 0 1.65
Q 0 2 0.1 2.1
L 0.1 2.15 0.2 2.15 0.3 2.1 0.4 2 0.5 1.8 0.6 1.7
Q 0.75 1.6 0.75 1.5
L 0.85 1.3 0.95 1.2 1.05 0.9 1.05 0.1
Q 1.05 0 0.9 0
L 0.8 0 Z"/>
</g>
</defs>

<g transform="matrix( 1, 0, 0, 1, 0,0) ">
<use xlink:href="#Layer0_0_FILL"/>
</g>
</svg>
