
<svg xmlns="http://www.w3.org/2000/svg" version="1.1" xmlns:xlink="http://www.w3.org/1999/xlink" preserveAspectRatio="none" x="0px" y="0px" width="550px" height="400px" viewBox="0 0 550 400">
<defs>
<g id="Layer0_0_FILL">
<path fill="#849970" stroke="none" d="
M 1303.2 39.65
L 1303.2 27.55 1295.6 26 1288.95 25.25 1242.45 23.85 1203.95 24.55 1195.75 25.15 1145.75 24.35 1092.1 21.3 1074.05 21 1051.95 21.6 1027.2 23.1 959.2 25.15 909.85 24.8 907.35 24.65 906.05 24.15 904.3 24.05 896.7 23.7 780.65 23.05 772.15 22.65 716.1 23.1 673.75 24.2 648.35 24.05 646.8 24 645.8 23.95
Q 645.4 24.4 645.3 24.8
L 645.3 24.85 644.8 24.9 640.6 24.45 563.15 25.65 435.95 20.6 349.6 21.6 319.75 23.15 277.6 23.8 230.65 23.95 196.15 25.15 158.8 24.1 133.4 22.9 19.95 25.2 21.5 24.55 22.55 23.9 22.3 23.5 18.6 23.35 11.65 23.9 11.65 25.75 12.35 25.65 11.65 26.2 11.65 39.65 1303.2 39.65
M 15 25.75
L 15.1 25.4 15.15 25.4 15 25.75
M 15.4 31.65
L 14.95 31.5 15.55 31.6 15.4 31.65 Z"/>

<path fill="#7A9452" stroke="none" d="
M 15.1 25.4
L 15 25.75 15.15 25.4 15.1 25.4
M 1303.2 27.25
L 1303.2 25.15 1268.95 23.15
Q 1251.8 22.75 1209.2 22.75
L 1204.95 23.5 1145.1 23.95 1094.3 20.9
Q 1076.8 20.15 1058.95 20.05
L 1029 22.2
Q 997.2 24.1 959.2 24.1 921.1 24.1 910.85 23.45
L 903.7 22.75 749.4 21.35
Q 727.05 21.35 687.5 21.65 644.65 22.05 632.35 22.55
L 630.35 22.65 632.4 22.75 634.7 23.3 634.85 23.35 637.15 23.55 610.25 23.25 600.75 23.95 558.4 24.55 430.25 20.3
Q 407.35 19.6 393.9 19.65
L 312.6 22.05
Q 233.9 24.1 184.65 24.1
L 125.5 21.8
Q 59.35 21.8 38.3 23.6
L 28.8 24.5 21.5 24.55 19.95 25.2 133.4 22.9 158.8 24.1 196.15 25.15 230.65 23.95 277.6 23.8 319.75 23.15 349.6 21.6 435.95 20.6 563.15 25.65 640.6 24.45 645.3 24.85 645.3 24.8
Q 645.4 24.4 645.8 23.95
L 646.8 24 646.8 23.95 648.35 24.05 673.75 24.2 716.1 23.1 772.15 22.65 780.65 23.05 896.7 23.7 904.3 24.05 907.05 24.15
Q 907.8 24.3 908.35 24.65
L 909.85 24.8 959.2 25.15 1027.2 23.1 1051.95 21.6 1074.05 21 1092.1 21.3 1145.75 24.35 1195.75 25.15 1203.95 24.55 1242.45 23.85 1288.95 25.25 1295.6 26 1303.2 27.25 Z"/>
</g>
</defs>

<g transform="matrix( 1, 0, 0, 1, 0,0) ">
<use xlink:href="#Layer0_0_FILL"/>
</g>
</svg>
