
<svg xmlns="http://www.w3.org/2000/svg" version="1.1" xmlns:xlink="http://www.w3.org/1999/xlink" preserveAspectRatio="none" x="0px" y="0px" width="550px" height="400px" viewBox="0 0 550 400">
<defs>
<g id="Layer0_0_FILL">
<path fill="#1D5D45" stroke="none" d="
M 33.1 18.75
L 28.85 21.95 27.75 26.7 30.3 26.2 30.65 25.25
Q 31.95 21.8 35.1 21.5 35.15 20.95 34.85 20.85
L 33.45 20.65 34.65 18.9 33.1 18.75
M 56.6 10
L 56.35 10.4 46.05 21.8
Q 49.2 21.6 52.2 19.7 57.3 16.5 57.4 10.65 57.7 9.45 56.6 10
M 77.3 11.2
L 72.75 11.35
Q 71.8 11.8 70.95 12.35 66 15.4 65.5 21.55
L 68.7 19.95 70.75 21.65 71.1 20.25
Q 72.65 14.7 77.3 11.2
M 95.85 10.55
L 93.3 10.65
Q 84.55 12.6 81.95 20.25
L 81.85 20.5 84.4 23.2 93.7 13.05 92.05 12.45 95.85 10.55
M 125.7 10.4
L 123.55 10.25
Q 114.05 11.55 110.6 20.45
L 112.2 21.1 126.75 11.9 124.15 11.45 125.7 10.4
M 148.25 12.5
Q 149.25 12.3 149.85 11.55
L 138.7 10.55 138.15 11.95 133.75 22.45
Q 138.45 14.55 148.25 12.5
M 166.3 21.5
L 167.65 22.65 176.45 17.1 172.95 16.45 178.75 15.45
Q 176.8 15.95 179.35 15.8
L 180.2 15.65 179.95 13.15 178.05 13.05
Q 170.95 14.25 166.05 20.2
L 168.55 19.65 166.3 21.5
M 226.85 12.55
L 222.55 13.75
Q 221.8 12.2 220 15.4
L 215.2 23.6 215.65 27.55
Q 221.3 29.3 226.7 26.2
L 228.4 14.1 226.85 12.55
M 292.9 10.85
L 286.35 13.95
Q 280.75 16.45 279.45 26.2
L 280.65 26.15
Q 286.75 16.25 296.1 10.5
L 292.9 10.85
M 327.15 15.25
L 326.35 15.7 321.95 20.2 328.15 16.05
Q 328.3 14.65 327.15 15.25
M 366.3 8.4
L 367.8 6.65 351 13.85 346.45 15.15 349.3 14.85 339.7 19.65 347.6 17 339.3 21.2 343.4 20.7
Q 354.3 17.25 366.3 8.4
M 387.8 6.8
L 388 6.45 387 6.8 380.4 9.05 381.55 7.65 379.8 8.15 373.5 14.15 374.2 18.75 377.65 16.4 378.9 18.15 378.8 16 384.1 10.45 384.35 10.2 387.8 6.8
M 418.4 13.9
L 418.25 13.9 415.35 16.55 416.25 18.95 420 15.55 418.4 13.9
M 432.45 15.7
L 428.45 19.45 436.3 14.25 442.2 14.4 439.95 16.5 445.65 13.85 438.6 13.05 434 13.45 428.75 15.65 429.05 15.65 428.85 16.1 432.45 15.7
M 487.85 7.4
L 486.9 7.5
Q 476.4 10.7 470.55 20.1
L 474.5 18.85 474.75 20.15 477.25 18.2 481.15 22 481.5 19.95 483.9 20.85 481.9 15.15 484.15 10.1 487.85 7.4
M 480.65 18.4
Q 478.75 16.85 480.55 18.2
L 480.65 18.4
M 533.15 19
L 538.05 11.95 539.65 9.65 529.05 11.6 522.25 17.7 524.65 17.2 522.35 21.05 522.5 20.95
Q 527 16.65 530 27
L 532.85 27 535.25 24.15 533.15 19
M 568.75 26.9
Q 571.65 17.35 578.55 9.3 571.05 11.35 566.3 17.4 566.2 17.55 566.25 17.85
L 568.3 16.9 565.65 21.15 566.6 22.9 566.5 25.25
Q 567 26.15 567.95 24.9
L 568.05 27.7
Q 570.05 28.5 569.2 27.4
L 568.75 26.9
M 648.45 11.25
L 649.8 10.65 647.35 11.15 641.45 12.35 631.85 26.65 633.5 26.55 646.8 13.7 644.05 13.2 648.45 11.25
M 690.05 21.8
Q 694.9 20.9 697.95 16.65 702.45 10.4 708.4 4.7
L 708.35 4.65
Q 699.7 7.65 695.3 15
L 695.5 15
Q 696.85 17.45 691.85 18.95 688.5 20 686.9 18.9 678.9 19.65 675.55 27.4 675.45 27.7 675.5 28.15 679.15 25.2 683.5 22.65 688 20 690.05 21.8
M 741.95 11
L 743.4 9.7
Q 742.3 9.9 739.1 11.1
L 731.05 13.7 731.65 17.15 735.85 15.3 736.95 13.45 741.95 11
M 764.9 10.55
L 766.45 9.7 764.25 9.6 767.2 7.4 753.15 10.4
Q 743.65 12.45 742 21.75 751 13 762.2 12.4
L 764.9 10.55
M 761.95 9.4
L 761.15 9.65 754.3 12.15 760.5 9.5 761.95 9.4
M 853.1 9.55
Q 855.15 8.45 853.35 7.7
L 851.65 8 839.6 16.7 842.1 16.4 842 22.7 845.25 19.15 849.2 20.7 846 18.4 856.9 10.4 851.45 10.45 853.1 9.55
M 851.45 9.2
L 851.05 9.35
Q 849.6 9.35 851.45 9.2
M 900.2 10.4
L 893 9.2 886.3 10.55
Q 878.75 13.8 875.85 20.45
L 875.9 20.65
Q 885.6 11.55 898.6 12.9
L 900.2 10.4
M 895.2 10.95
L 897.7 10.95
Q 892.85 12.1 895.2 10.95
M 948.45 10.35
L 934.85 12.95 930.6 14.85 932.95 14.3 930.95 15.8 933.7 15.55 929.7 19.7 931.6 19.7 930.6 23.35 935.7 22.8 934.3 26.8 939.25 26.2 935.45 25.45 939.55 18.55 933.1 21.25 948.45 10.35
M 985.65 5.1
L 986.9 3.4 971.1 10.9 970.7 11.05 972.8 12.45 971.25 15.3 977.05 13.15 965.75 23.85 976.8 19.7 968.95 25.1 975.55 22.4 973.3 25.8 976.6 25.45 976.35 25.7 976.2 26.2 976.25 26.8 976.3 27 983.35 24.4 979.3 27.2
Q 979.9 28.55 982.5 27 985.25 25.35 985.9 22.85
L 975.3 24.25 981.4 16.7 972.95 19.65 984.7 11.15 983.7 9.45 988.1 5.65 988.35 5.4 987.75 5.55 982.1 6.9 985.65 5.1
M 1057.4 2.4
L 1060.15 0
Q 1057.45 1 1054.85 2.25 1045.2 6.85 1036.25 14.95
L 1044.55 11.55 1037.35 17.7 1047.45 13.15 1040.35 19.8 1050.55 15.7 1046.25 20.15 1054.7 17.3 1052.35 20.2 1061.2 16.3 1058.9 19.75 1064.2 19.05 1061.8 17.75 1063 15.15 1050.7 17.2 1053.05 14.55 1047.55 15.2 1050 11 1046.45 11.9 1057.4 2.4
M 1094.65 20.95
L 1110.15 11.75 1112.2 10.15 1106.85 11.6
Q 1097.35 12.9 1094.65 20.8
L 1094.65 20.95
M 1164.9 13.8
L 1159.8 13 1156.35 14.95 1151.6 22.95 1158.95 16.65 1157.85 21 1164.9 13.8
M 1241.1 21.1
L 1252.75 14.15 1254.85 12.85 1250.6 14.05 1239.2 20.25 1241.1 21.1
M 1263.95 14.4
L 1265.25 13.7 1263.25 13.2 1260.55 14.35 1260.25 14.45 1260.5 14.35 1264.6 12.15
Q 1259.9 12 1256.45 14.25 1252.95 16.5 1250.7 21.25
L 1263.95 14.4
M 1284.5 14
L 1283.2 15.75
Q 1272.5 16.15 1263.75 22.25 1262.95 22.75 1262.85 23.45 1262.95 24.75 1264.8 24.5 1266.95 24 1268.6 22.65
L 1271.75 20.25 1268.25 23.25 1273.1 22.75 1273.85 25.25 1282.75 20.85 1282.95 23.1 1284 23.25 1291.6 12.95 1291.55 12.7
Q 1288 9.5 1284.5 14
M 106.15 13.15
L 103.05 14.5 98.75 15.75 99.5 17.35 97.65 21.15
Q 102.8 18.95 106.15 13.15
M 182.85 28.15
L 183.05 28.15 196.75 20.55
Q 187.3 20.35 182.85 28.15
M 267.45 18.3
Q 260.15 18.85 259.6 25.95
L 259.8 26.3 261.45 25.6 261.8 23.45 267.75 21 267.45 18.3
M 305.8 25.15
L 305.85 25.4
Q 309.7 20.8 316.75 20.15 308.2 14.85 305.8 25.15
M 308.15 16.4
Q 306.8 14.45 304.45 15.5 301.25 16.9 299.25 19.9
L 308.15 16.4
M 407.15 16.65
L 408.4 14.2
Q 404.85 13.25 402.45 17.75
L 402.45 18.05 407.15 16.65
M 469.15 11.45
L 471.5 11.7
Q 462.4 7.5 458.75 18.6
L 469.15 11.45
M 591.7 27.3
L 596.25 21.3 605.15 15.1 602.65 14.55 609 11.8
Q 595.4 13 591.7 27.3
M 620.25 17.3
Q 611.2 18.25 607.85 26.45
L 620.25 17.3
M 651.55 19.8
Q 651.1 20.3 650.8 20.95
L 662.55 12.8
Q 655.85 14.4 651.55 19.8
M 725.95 12.7
L 717 16.75 720.9 13.7
Q 720.05 13.5 719.3 13.7 712.05 14.8 711 22.55
L 725.95 12.7
M 715.75 17.65
Q 715.55 16.95 715.95 17.5
L 715.75 17.65
M 775.65 17.45
L 771.65 22.65 788.7 19 787.05 22.2 788.75 23.95 795.85 15.85
Q 792.5 17.25 789.05 18.05
L 776.4 20.15 775.65 17.45
M 815.9 17.15
L 813.15 21.4 813.8 23.3 823.35 14.5
Q 817.5 13.9 813.15 18.2
L 815.9 17.15
M 1125.7 22.4
Q 1124.85 23.65 1125.15 25.1
L 1136.2 15.65
Q 1129.7 16.8 1125.7 22.4
M 1175.55 21.9
Q 1179.85 20.35 1184.25 14.45
L 1173.1 21.25 1175.55 21.9
M 1202.5 10.7
L 1199.7 11.1
Q 1193.05 11.45 1189.75 22.4
L 1202.5 10.7
M 1231.7 17.15
L 1234.7 14.7
Q 1227.85 16.55 1224.4 23.05 1224.15 23.55 1224.45 23.95 1228.9 22.75 1233.7 17.2
L 1231.7 17.15 Z"/>

<path fill="#26531A" stroke="none" d="
M 381.55 7.65
L 380.4 9.05 387 6.8 381.55 7.65
M 480.55 18.2
Q 478.75 16.85 480.65 18.4
L 480.55 18.2
M 761.15 9.65
L 760.5 9.5 754.3 12.15 761.15 9.65
M 851.05 9.35
L 851.45 9.2
Q 849.6 9.35 851.05 9.35
M 897.7 10.95
L 895.2 10.95
Q 892.85 12.1 897.7 10.95
M 987.75 5.55
L 985.65 5.1 982.1 6.9 987.75 5.55
M 1260.55 14.35
L 1260.5 14.35 1260.25 14.45 1260.55 14.35
M 1299.2 38.85
L 1303.2 38.95 1303.2 19.25
Q 1301.6 17.4 1299.2 16 1296.05 14.1 1291.6 12.95
L 1284 23.25 1282.95 23.1 1282.75 20.85 1273.85 25.25 1273.1 22.75 1268.25 23.25 1271.75 20.25 1268.6 22.65
Q 1266.95 24 1264.8 24.5 1262.95 24.75 1262.85 23.45 1262.95 22.75 1263.75 22.25 1272.5 16.15 1283.2 15.75
L 1284.5 14
Q 1274.2 14.45 1263.95 14.4
L 1250.7 21.25
Q 1252.95 16.5 1256.45 14.25
L 1252.75 14.15 1241.1 21.1 1239.2 20.25 1250.6 14.05 1244.2 13.25
Q 1204.2 4.85 1164.9 13.8
L 1157.85 21 1158.95 16.65 1151.6 22.95 1156.35 14.95 1113.7 11.9 1114.2 10.9 1110.15 11.75 1094.65 20.95 1094.65 20.8
Q 1097.35 12.9 1106.85 11.6
L 1096.1 10.7 1099.1 12.7 1083.05 9.6 1088 9.6 1057.4 2.4 1046.45 11.9 1050 11 1047.55 15.2 1053.05 14.55 1050.7 17.2 1063 15.15 1061.8 17.75 1064.2 19.05 1058.9 19.75 1061.2 16.3 1052.35 20.2 1054.7 17.3 1046.25 20.15 1050.55 15.7 1040.35 19.8 1047.45 13.15 1037.35 17.7 1044.55 11.55 1036.25 14.95
Q 1045.2 6.85 1054.85 2.25 1052.9 2.25 1051.15 2.8 1019.7 12.6 988.1 5.65
L 983.7 9.45 984.7 11.15 972.95 19.65 981.4 16.7 975.3 24.25 985.9 22.85
Q 985.25 25.35 982.5 27 979.9 28.55 979.3 27.2
L 983.35 24.4 976.3 27 976.25 26.8 976.2 26.2 976.35 25.7 976.6 25.45 973.3 25.8 975.55 22.4 968.95 25.1 976.8 19.7 965.75 23.85 977.05 13.15 971.25 15.3 972.8 12.45 970.7 11.05 971.1 10.9
Q 960.55 13.85 949.5 10.55
L 948.45 10.35 933.1 21.25 939.55 18.55 935.45 25.45 939.25 26.2 934.3 26.8 935.7 22.8 930.6 23.35 931.6 19.7 929.7 19.7 933.7 15.55 930.95 15.8 932.95 14.3 930.6 14.85 934.85 12.95 900.2 10.4 898.6 12.9
Q 885.6 11.55 875.9 20.65
L 875.85 20.45
Q 878.75 13.8 886.3 10.55 870.8 11.2 855.05 7.75
L 853.35 7.7
Q 855.15 8.45 853.1 9.55
L 851.45 10.45 856.9 10.4 846 18.4 849.2 20.7 845.25 19.15 842 22.7 842.1 16.4 839.6 16.7 851.65 8 778.1 15.9 776.15 14.55
Q 771.2 10.8 764.9 10.55
L 762.2 12.4
Q 751 13 742 21.75 743.65 12.45 753.15 10.4
L 741.95 11 736.95 13.45 735.85 15.3 731.65 17.15 731.05 13.7 739.1 11.1
Q 723.45 11.1 709.1 4.95
L 708.4 4.7
Q 702.45 10.4 697.95 16.65 694.9 20.9 690.05 21.8 688 20 683.5 22.65 679.15 25.2 675.5 28.15 675.45 27.7 675.55 27.4 678.9 19.65 686.9 18.9 688.5 20 691.85 18.95 696.85 17.45 695.5 15
L 695.3 15
Q 699.7 7.65 708.35 4.65 678.9 13.65 648.45 11.25
L 644.05 13.2 646.8 13.7 633.5 26.55 631.85 26.65 641.45 12.35 647.35 11.15 578.55 9.3
Q 571.65 17.35 568.75 26.9
L 569.2 27.4
Q 570.05 28.5 568.05 27.7
L 567.95 24.9
Q 567 26.15 566.5 25.25
L 566.6 22.9 565.65 21.15 568.3 16.9 566.25 17.85
Q 566.2 17.55 566.3 17.4 571.05 11.35 578.55 9.3 558.35 12.35 538.05 11.95
L 533.15 19 535.25 24.15 532.85 27 530 27
Q 527 16.65 522.5 20.95
L 522.35 21.05 524.65 17.2 522.25 17.7 529.05 11.6 499 8.15 496.25 6.4 487.85 7.4 484.15 10.1 481.9 15.15 483.9 20.85 481.5 19.95 481.15 22 477.25 18.2 474.75 20.15 474.5 18.85 470.55 20.1
Q 476.4 10.7 486.9 7.5
L 438.6 13.05 445.65 13.85 439.95 16.5 442.2 14.4 436.3 14.25 428.45 19.45 432.45 15.7 428.85 16.1 429.05 15.65 428.75 15.65 434 13.45 418.4 13.9 420 15.55 416.25 18.95 415.35 16.55 418.25 13.9 387.8 6.8 384.35 10.2 389.55 10.5 384.1 10.45 378.8 16 378.9 18.15 377.65 16.4 374.2 18.75 373.5 14.15 379.8 8.15 373.75 9.85 366.3 8.4
Q 354.3 17.25 343.4 20.7
L 339.3 21.2 347.6 17 339.7 19.65 349.3 14.85 346.45 15.15 351 13.85 341.4 14.65 342.75 15.3 328.15 16.05 321.95 20.2 326.35 15.7
Q 312.25 10.05 297 10.45
L 296.1 10.5
Q 286.75 16.25 280.65 26.15
L 279.45 26.2
Q 280.75 16.45 286.35 13.95
L 292.9 10.85
Q 285.95 11.15 279.2 12.5 252 18.15 226.85 12.55
L 228.4 14.1 226.7 26.2
Q 221.3 29.3 215.65 27.55
L 215.2 23.6 220 15.4 179.95 13.15 180.2 15.65 179.35 15.8
Q 176.8 15.95 178.75 15.45
L 172.95 16.45 176.45 17.1 167.65 22.65 166.3 21.5 168.55 19.65 166.05 20.2
Q 170.95 14.25 178.05 13.05
L 149.85 11.55
Q 149.25 12.3 148.25 12.5 138.45 14.55 133.75 22.45
L 138.15 11.95 134.8 13.1
Q 130.4 10.95 125.7 10.4
L 124.15 11.45 126.75 11.9 112.2 21.1 110.6 20.45
Q 114.05 11.55 123.55 10.25 117.9 9.95 111.85 11.85
L 111.15 11.8
Q 104.3 9.05 95.85 10.55
L 92.05 12.45 93.7 13.05 84.4 23.2 81.85 20.5 81.95 20.25
Q 84.55 12.6 93.3 10.65
L 77.3 11.2
Q 72.65 14.7 71.1 20.25
L 70.75 21.65 68.7 19.95 65.5 21.55
Q 66 15.4 70.95 12.35 64.45 15.35 58.55 11.6
L 57.4 10.65
Q 57.3 16.5 52.2 19.7 49.2 21.6 46.05 21.8
L 56.35 10.4
Q 47.3 19.65 35.1 21.5 31.95 21.8 30.65 25.25
L 30.3 26.2 27.75 26.7 28.85 21.95 23.05 22.1
Q 21.6 23.4 20.3 24.85 15.95 29.8 13.7 36.3
L 64.05 39.65 675.95 39.65
Q 789 36.3 902.2 36.3
L 881.1 37.25 944.5 36.05
Q 982.55 35.5 1020.5 35.25 1159.85 34.25 1299.2 38.85
M 1234.7 14.7
L 1231.7 17.15 1233.7 17.2
Q 1228.9 22.75 1224.45 23.95 1224.15 23.55 1224.4 23.05 1227.85 16.55 1234.7 14.7
M 1199.7 11.1
L 1202.5 10.7 1189.75 22.4
Q 1193.05 11.45 1199.7 11.1
M 1184.25 14.45
Q 1179.85 20.35 1175.55 21.9
L 1173.1 21.25 1184.25 14.45
M 1125.15 25.1
Q 1124.85 23.65 1125.7 22.4 1129.7 16.8 1136.2 15.65
L 1125.15 25.1
M 813.15 21.4
L 815.9 17.15 813.15 18.2
Q 817.5 13.9 823.35 14.5
L 813.8 23.3 813.15 21.4
M 771.65 22.65
L 775.65 17.45 776.4 20.15 789.05 18.05
Q 792.5 17.25 795.85 15.85
L 788.75 23.95 787.05 22.2 788.7 19 771.65 22.65
M 717 16.75
L 725.95 12.7 711 22.55
Q 712.05 14.8 719.3 13.7 720.05 13.5 720.9 13.7
L 717 16.75
M 650.8 20.95
Q 651.1 20.3 651.55 19.8 655.85 14.4 662.55 12.8
L 650.8 20.95
M 607.85 26.45
Q 611.2 18.25 620.25 17.3
L 607.85 26.45
M 596.25 21.3
L 591.7 27.3
Q 595.4 13 609 11.8
L 602.65 14.55 605.15 15.1 596.25 21.3
M 471.5 11.7
L 469.15 11.45 458.75 18.6
Q 462.4 7.5 471.5 11.7
M 408.4 14.2
L 407.15 16.65 402.45 18.05 402.45 17.75
Q 404.85 13.25 408.4 14.2
M 304.45 15.5
Q 306.8 14.45 308.15 16.4
L 299.25 19.9
Q 301.25 16.9 304.45 15.5
M 305.85 25.4
L 305.8 25.15
Q 308.2 14.85 316.75 20.15 309.7 20.8 305.85 25.4
M 259.6 25.95
Q 260.15 18.85 267.45 18.3
L 267.75 21 261.8 23.45 261.45 25.6 259.8 26.3 259.6 25.95
M 183.05 28.15
L 182.85 28.15
Q 187.3 20.35 196.75 20.55
L 183.05 28.15
M 103.05 14.5
L 106.15 13.15
Q 102.8 18.95 97.65 21.15
L 99.5 17.35 98.75 15.75 103.05 14.5
M 715.95 17.5
Q 715.55 16.95 715.75 17.65
L 715.95 17.5 Z"/>
</g>
</defs>

<g transform="matrix( 1, 0, 0, 1, 0,0) ">
<use xlink:href="#Layer0_0_FILL"/>
</g>
</svg>
