
<svg xmlns="http://www.w3.org/2000/svg" version="1.1" xmlns:xlink="http://www.w3.org/1999/xlink" preserveAspectRatio="none" x="0px" y="0px" width="550px" height="400px" viewBox="0 0 550 400">
<defs>
<g id="Layer0_0_FILL">
<path fill="#010101" stroke="none" d="
M 4.05 2.1
Q 4.25 1.5 3.85 1 3.7 0.85 3.6 0.85 3.35 0.75 3.15 0.9
L 2.75 1 2.35 1.2 2.05 1.3
Q 1.7 1.35 1.35 1.3
L 1.15 1.25 1 1.1 0.95 1.1 0.95 1.05 0.85 0.95 0.85 0.9 0.9 0.85 0.95 0.7
Q 1.1 0.4 0.85 0.05 0.7 -0.1 0.5 0.05
L 0.45 0.1
Q 0.2 0.45 0.1 0.85
L 0.1 0.9 0.05 1.2
Q 0 1.5 0.05 1.85 0.3 2.75 1.05 3.3 1.2 3.45 1.65 3.55
L 2 3.55
Q 2.3 3.55 2.9 3.35 3.35 3.15 3.65 2.75
L 3.8 2.65
Q 3.95 2.5 4.05 2.1 Z"/>
</g>
</defs>

<g transform="matrix( 1, 0, 0, 1, 0,0) ">
<use xlink:href="#Layer0_0_FILL"/>
</g>
</svg>
