
<svg xmlns="http://www.w3.org/2000/svg" version="1.1" xmlns:xlink="http://www.w3.org/1999/xlink" preserveAspectRatio="none" x="0px" y="0px" width="550px" height="400px" viewBox="0 0 550 400">
<defs>
<g id="Parts_Bodies_bodyMC_40_Layer14_0_FILL">
<path fill="#FFFF66" stroke="none" d="
M 86.15 76.8
Q 86.2 76.1 86.2 75.55 85.4 70 84.3 64.5 83.8 62.05 83.25 59.5 82.3 55.05 81.2 50.7 80.9 49.75 80.55 48.65 79.45 45.5 79.4 42.1 77.55 38.45 75.25 35 74.7 34.2 74.5 33.4 73.85 30.85 71.75 29.1 67 25.2 60.35 27.15 54.7 28.2 50.75 32.45 45.2 38.4 40.3 45.1 36.1 50.8 33.75 57.2 34 64.15 32.8 70.9 32.2 74.15 32.2 77.6 32.3 86.45 32.65 95.3 32.75 99.7 34.3 103.7 35 105.5 35.45 107.35 37.35 115.8 41.75 123.25 42.2 124 42.4 124.75 42.4 124.95 42.45 125.15 44.3 127.2 46.45 129.05 54.85 136.3 61.45 128.65 69.95 126.7 74.15 118.85 84.55 99 86.15 76.8
M -18.25 73.2
L -18.4 73.2
Q -18.5 73.3 -18.55 73.35
L -18.65 73.4
Q -18.8 73.5 -18.95 73.6 -19 73.6 -19.05 73.7 -18.95 73.7 -18.9 73.7 -18.6 73.55 -18.35 73.35 -18.25 73.3 -18.25 73.2
M -10.1 32
Q -13.4 31.15 -16.6 30.35 -27.5 27.8 -36.15 21.7 -38.3 20.2 -40.9 19 -46.25 16.7 -50.7 13.1 -52.55 11.6 -53.8 9.7 -56.7 7.95 -59.6 6.05 -60.4 5.45 -60.8 4.8 -60.95 4.85 -61.1 4.85 -61.6 5.8 -62.2 6.65 -65.25 10.65 -66.9 15.25 -68.25 19.1 -69.25 22.8 -69.25 22.85 -69.25 22.9 -69.65 24 -69.95 25.05 -70.2 26 -70.5 26.85 -70.75 27.5 -70.8 28.15
L -70.8 28.25
Q -71.3 28.3 -71.75 28.3 -72 29.5 -71.95 30.75 -71.95 31.55 -72.05 32.4
L -72.05 32.45
Q -72.45 32.45 -72.8 32.45 -73.5 38.8 -74.4 44.95 -74.9 47.85 -75.25 50.75 -76.6 62.4 -76.15 74.3 -76.05 77.7 -75.6 81 -75.5 81.2 -75.4 81.4 -75.45 81.6 -75.5 81.7 -75.4 82.4 -75.3 83.1 -75.15 83.9 -74.5 84.4 -74.5 84.5 -74.5 84.55 -74.45 85.2 -74.15 85.75 -73.85 86.3 -73.4 86.8 -73.35 86.9 -73.25 86.9 -73.35 87.15 -73.4 87.5
L -73.55 87.9 -73.7 88.8
Q -73.9 89.9 -73.75 90.4 -73.6 91.05 -73.05 91.5 -72.55 91.9 -71.9 91.95 -71.25 91.95 -70.7 91.55 -70.1 91.15 -69.9 90.55
L -69.75 89.7
Q -68.9 89.45 -68.25 88.65 -66.85 86.95 -65.25 85.5 -65.25 85.2 -65.25 84.9 -65.25 84.55 -65.25 84.25 -63.5 82.75 -62 81.1 -60.8 79.7 -59.15 79.2 -57.05 78.55 -54.95 78.05
L -54.95 78
Q -54.8 77.6 -53.95 77.4 -50.4 76.7 -46.8 76.25 -46.75 76.25 -46.7 76.25 -46.6 76.25 -46.5 76.25 -43.75 75.9 -40.95 75.75 -35.8 74.9 -31.65 77.15 -30.8 77.6 -29.9 78.1 -29.85 78.1 -29.8 78.15 -29.4 78.5 -28.9 78.6 -28.7 78.7 -28.5 78.8 -28.35 79 -27.95 79.4 -27.35 79.95 -26.1 81
L -25.4 81.7
Q -24.6 82.35 -23.55 82.1 -23.1 82.05 -22.8 81.8 -22.7 81.85 -22.6 81.9 -22.4 81.8 -22.2 81.7 -22.2 81.65 -22.2 81.6 -22.2 81.3 -22.15 81.05 -22.15 81 -22.15 80.95 -21.9 80.3 -22.05 79.7 -22 79.15 -21.85 78.6 -21.6 77.3 -21.2 76 -21 74.95 -20.95 73.8 -20.9 72.45 -20.25 71.5 -20.15 71.4 -20.15 71.15 -20.05 71.1 -20.05 71.05 -20 71.05 -19.9 70.95
L -19.8 70.85 -19.8 70.8
Q -19.8 70.65 -19.8 70.55
L -18.9 69.7
Q -18.2 69.2 -18 68.85 -17.95 68.8 -17.9 68.75 -17.8 68.6 -17.75 68.55 -14 67.1 -10.65 64.75 -9.35 63.8 -7.7 63.3 -5.4 62.4 -3.15 61.35 -2.45 61 -1.6 60.75 6.05 58.65 13.75 56.55 15.5 56.6 17.3 56.65
L 17.3 56.7
Q 17.3 56.8 17.3 56.85 17.3 57 17.3 57.25 20.5 54.05 21.15 48.55 21.55 44.85 22.8 41.45 23.3 40.1 23.4 38.95 23.55 38.8 23.75 38.65
L 24.15 37.9
Q 24.5 37.55 24.6 37.35
L 24.75 37 24.9 36.5 24.95 36.4
Q 25 36.2 24.95 36
L 25 35.9
Q 25 35.3 24.75 34.9 24.15 33.8 23 33.8 22.1 33.8 21.6 34.4 21.5 34.4 21.45 34.45 21.15 34.3 20.9 34.05 18.55 34.5 16 34.65 2.55 35.45 -10.1 32
M -41.15 -4.15
Q -41.25 -2.95 -41.35 -1.7 -41.85 2.1 -43.05 5.55 -43.65 7.3 -44.2 9.15 -43.05 9.5 -41.95 10.1 -37.2 12.55 -32.1 15.2 -30.6 15.95 -29.05 16.55 -25.9 17.7 -23.45 19.85 -23.45 19.9 -23.45 19.95 -23.45 20.15 -23.45 20.4 -23.45 20.5 -23.45 20.55 -17 22.3 -11 24.95 1.05 30.1 14.3 30.45 16.3 30.5 18.2 30.9 18.55 30.8 18.95 30.7 22.9 29.75 26.9 29.8 26.9 29.85 26.9 29.9 26.9 30.15 26.9 30.45 28.1 29.05 28.25 26.4 28.25 26.3 28.25 26.2 28.55 26.2 28.8 26.15 29.35 25.95 29.6 25.45 30.2 24.1 28.75 23.8 28.6 23.8 28.4 23.85 27.8 23.9 27.35 24.25 24.55 22.05 21.15 20.65 19.7 20.55 18.35 20.15 16.5 19.55 14.6 18.95 14 18.75 13.3 18.75 13.25 18.7 13.15 18.6 13.1 18.55 13.05 18.45 -7.5 13.7 -25.8 3.05 -32.65 -0.95 -39.4 -4.6 -40.4 -4.45 -41.15 -4.15 Z"/>
</g>

<g id="Parts_Sets_Bat_batBody_0_Layer0_0_FILL">
<path fill="#000000" stroke="none" d="
M 196.7 43.15
Q 196.8453125 43.15 196.95 43.2 196.8484375 43.1484375 196.8 43.1 196.75 43.1 196.7 43.15
M 203.5 48.3
Q 203.35 48.2 203.25 48.15 199.5 46.1 195.6 44.6 194.2 44.05 192.8 43.6
L 192.8 43.5
Q 192.4 43.4 192.05 43.25 190.25 42.65 188.35 42.35 186.5 42.1 184.6 42.2 183.1 42.4 181.65 43.1 177 45.35 173.05 48.35 171.1 49.8 169.35 51.45 168.15 51.4 166.9 51.15 166.2 51 165.55 50.85 164.6 50.65 163.75 50.5 147.55 46.95 131.95 41.45 113.3 34.9 95.4 26.4 88.65 23.2 82.15 19.4 66.95 10.55 52.85 0 52.25 1.2 51.65 2.4 47.9 15.95 45.65 29.8 42.45 25.9 39.8 21.55 38.05 18.7 36.25 16.3 35.25 15.2 34.4 13.95 34.3 13.8 34.2 13.65 31.35 15.85 28.95 18.9 28.6 19.35 28.25 19.8 26.6 22 25.05 24.25 19.05 32.95 14.5 42.55 5.95 60.6 2.8 80.15 -0.3 99.6 0.05 119.6 0.4 139.55 8.45 157.85 10.6 162.85 13.35 167.55 14.1 168.85 15 169.6 15.05 169.75 15.15 169.85 16.3 171.6 17.15 171.35 17.3 170.2 17.7 169.05 18.8 165.75 20.4 162.65 20.55 162.35 20.7 162.05 20.85 161.7 21.05 161.35
L 21.1 161.35
Q 21.2 161.15 21.3 160.95 21.6 160.25 21.95 159.65
L 21.9 159.6
Q 22.35 158.75 22.85 157.9 29 147.4 41.3 141.35 60.55 131.75 79.45 141.95 82.8 143.75 85 146.75 85.7 147.7 86.5 148.15 87.45 147.95 88.4 147.75 88.5 147.75 88.65 147.7 88.9 147.35 89.15 146.95 89.55 145.4 89.65 143.7 90.3 130.55 102.4 123.6 120.6 113.05 140.85 109.35 141.8 109.55 142.75 109.75 141.9 113.4 141.15 117.1 138.6 130.15 137.9 143.6 137.35 154.1 138.7 164.2 135.45 164.95 132.4 166.75 129.9 168.25 127.55 169.75 113.15 178.65 114.45 194.4 114.9 199.7 120.15 200.8 124.85 201.8 129.15 200 130.6 214.7 142.1 226.1 146.1 230.05 147.9 225.25 151.1 216.75 156.15 209.25 156.55 208.65 156.85 208.1 159.15 210.2 161.8 211.95 181.75 225 202.95 213.7 229.65 199.5 237.6 170.1 244.8 143.45 238.35 116.6 235.2 103.3 232.05 89.95 227.35 69.85 214.4 54.95 213.95 54.65 213.55 54.35 209.8 51.85 205.9 49.65 204.7 48.95 203.5 48.3
M 184 47.2
Q 185.45 47.05 186.85 47.2 190.75 47.05 194.4 48.3 195 48.5 195.6 48.75 195.65 48.8 195.7 48.8 196.7 49.2 197.65 49.65 201.4 51.35 205 53.55 205.85 54.05 206.55 54.7 207.6 55.45 208.5 56.4 213.05 60.75 216.2 66.3 211.8 64.7 205.95 65.35 202.85 65.75 199.85 66.95 179.5 74.8 170.85 94.85 162.65 113.9 161.9 134.45 161.3 153.1 164.65 171.25 166.7 182.35 171.05 192.85 176.15 205.05 186.2 213.7 186.25 213.75 186.35 213.8 186.25 213.8 186.2 213.8 178.7 214.15 170.55 211.7 166.45 210.45 163.55 207.45 160.7 204.5 158.25 201.4 158 201.5 157.75 201.65 155.9 202.7 154.1 203.9 153.6 204.25 153.05 204.5 147.15 211.9 144.75 221.85 142.55 219.4 140.55 216.6 137.1 211.65 135.5 205.85 134.3 201.55 132.2 198.45 132.1984375 198.3984375 132.15 198.35 132.1984375 198.35 132.2 198.3 134.45 196.5 135.35 193.85 135.85 192.25 134.4 192.4 129.3 193 124.15 195.55 122.6 196.3 121.35 195.5 117.95 193.4 119.55 189.05 124.45 175.65 138.45 169.4 139 169.2 139.45 169 139.6 169.7 139.75 170.45 140.35 172.4 141.35 174.3 141.5 174.6 141.65 174.9 143.35 177.9 145.95 180.15 146.4 180.55 146.9 180.9 146.25 179.05 145.7 177.15 143.25 168.55 142.9 159.05 141.95 134.95 147.35 111.95 147.35 111.45 147.45 110.95 147.75 109.35 148.25 107.75 148.45 107.15 148.7 106.55 148.8 106.05 148.95 105.5 152.65 92.1 157.5 79.1 164.95 59.15 182.15 48.35 183.05 47.75 184 47.2
M 217.9 71.6
Q 218.7 72.15 219.4 72.85 219.6 73.25 219.75 73.65 228.25 92.55 233.15 112.8 239.7 139.55 233.2 166.3 228.1 187.2 212.55 201.9 202.4 211.5 190.4 213.4 185 208.1 180.9 201.75 179.8 199.95 178.75 198.2 178.15 197.15 177.6 196.05 175.25 191.4 173.35 186.65 173.05 185.85 172.75 185.1 169.15 175.55 167.45 165.45 167.25 164.2 167.05 162.95 166.75 160.7 166.5 158.4 164.55 138.65 167.8 119.15 171.1 99.3 183.2 83.25 193.9 69.1 211.45 69.6 215.15 69.7 217.9 71.6
M 86.8 42.05
Q 84.15 39.25 81.5 36.55 81.6 36.6 81.7 36.65 99.1 46.4 117.85 53.25 136.4 60.05 155.55 64.85 157 65.25 158.45 65.35 158.7 65.35 159 65.35 158.95 65.4 158.9 65.5 158.85 65.6 158.8 65.7 157.9 67.45 157.1 69.25 155.5 69.85 153.85 70.35 144.8 73 134.7 71.65 131.7 71.25 128.75 70.75 124.15 69.9 119.6 68.75 114.45 64.25 108.25 60.1 96.5 52.3 86.8 42.05
M 112.85 66.9
Q 108.8 65.6 104.8 64.1 99.7 62.15 94.7 60.1 90.65 58.4 86.7 56.65
L 86.65 56.65
Q 84.2 55.55 81.7 54.4 80.3 52 78.8 49.5 74.65 42.45 71.95 34.8 70.65 31.15 69.1 27.75 69 27.55 68.95 27.4 69.05 27.5 69.2 27.65 69.45 27.95 69.8 28.3 78.4 36.8 87 45.4 98.7 57.1 112.3 66.5 112.55 66.7 112.85 66.9
M 81.9 57.95
Q 100.1 66.15 119.15 71.9 134.85 76.65 150.3 73.65 152.95 73.15 155.6 72.4 155.3 72.95 155.05 73.55 154.85 74 154.65 74.45 153.7 74.65 152.7 75.2 148.2 77.65 143.05 78.2 142.5 78.25 142 78.3 122.9 79.65 104.55 74.55 85.3 69.25 68.1 58.95 51.85 49.3 37.15 37.6 36.8 36.7 35.15 36.2 31.75 39.4 29.4 44.05 20.35 61.75 16.55 81.25 12.8 100.5 11.95 120.25 11.1 140.35 18.15 159.05 18.2 159.2 18.3 159.35 17.5 160.85 16.8 162.45 16.15 163.9 15.6 165.4 8.05 153.9 5.5 139.75 2 120.3 3.3 100.3 4.6 80.55 10.65 61.7 16.75 42.75 27.55 26.1 30.55 21.45 34.7 17.95 34.75 17.9 34.85 17.85 39.7 30.95 51.35 39.8 65.55 50.55 81.9 57.95
M 155.65 61
Q 155.2 60.9 154.75 60.8 154.6529296875 60.7515625 154.6 60.75 140.45 57.6 126.65 53.1
L 126.6 53.1 126.5 53.05
Q 126.275 52.99375 126.1 52.95 121.75 51.5 117.5 49.95 98.85 43.15 81.55 33.5 79.25 32.2 77.3 30.55 76.5 30 75.7 29.5 73.35 28.05 71.15 26.4 70.85 26.15 70.55 25.95 69.6 25.2 68.7 24.5 68.45 24.35 68.25 24.15 67.3 23.35 66.3 22.6 66.15 22.5 66 22.4 64.95 21.6 63.9 20.85 63.65 20.7 63.4 20.5 62.6 22.7 61.95 24.95 61.1 27.8 60.45 30.65
L 60.45 30.7
Q 60.4 30.7 60.3 30.7 59.15 35 58.1 39.3 57.8 40.45 57.9 41.5 52.6 37.55 48.2 32.7 49.55 27.45 50.45 21.85 51.55 14.9 53.7 8.15 54.4 5.95 54.2 4.2 57.55 7.05 61.2 9.8 65.9 13.35 70.95 16.4 87.9 26.6 106.05 34.85 124.15 43.05 143.15 48.8 154.95 52.4 167.1 53.7 163.35 57.7 160.45 62.65 158.3 61.55 155.65 61
M 147.45 80.4
Q 147.7 80.35 147.95 80.35 148.1 80.3 148.35 80.3 150.65 79.9 152.7 79 147.25 92.05 143.75 105.75
L 143.7 105.75
Q 142.4 105.85 141.05 106.15 140.85 106.2 140.7 106.25 130 104.3 119.5 100.5 100.7 93.65 84.4 82.1 68.1 70.55 52.5 58.2 45.3 52.45 40.8 44.6 55 56 71.25 64.55 88.8 73.75 108.1 78.3 127.6 82.85 147.45 80.4
M 65.7 25.1
Q 68.55 30.7 70.8 36.75 73.75 44.65 77.65 52.25 77.75 52.4 77.85 52.6 77.65 52.5 77.5 52.45 73.25 50.4 69.05 48.35 68.85 48.2 68.6 48.1 66.65 47.1 64.85 46.05 62.45 44.65 60.2 43.1 61.85 38.8 62.85 33.85 63.55 30.15 65.1 26.7 65.45 25.9 65.7 25.1
M 32.7 44.9
Q 33.45 43.5 34.4 42.25 40.75 56.65 46.55 71.7 53.65 90.15 64.05 107.05 74.5 123.95 85.1 140.8 85.65 141.7 86.35 142.45 86.25 143.3 86.25 144.15 74.95 132.7 57.6 133.95 48.3 134.3 39.95 138.55 27.3 144.95 20.35 155.85 13.9 139.35 14.75 120.95 15.7 101.2 19.45 81.95 23.25 62.4 32.7 44.9
M 42.4 52.3
Q 50.35 61.35 60.35 68.55 76.45 80.1 93.2 90.65 110.05 101.35 129.4 106.6 131.3 107.1 133.2 107.65 133.55 107.7 133.9 107.8 133.35 107.95 132.85 108.1 115.75 112.55 100.4 121.55 90.25 127.45 87.35 137.2 86.6 135.6 85.5 134.1 74.05 117.9 64 100.8 53.95 83.75 46.85 65.25 44.35 58.85 42.4 52.3 Z"/>

<path fill="#000000" fill-opacity="0.28627450980392155" stroke="none" d="
M 28.25 19.8
Q 28.6 19.35 28.95 18.9 27.35 20.2 26.25 22.15 25.65 23.2 25.05 24.25 26.6 22 28.25 19.8
M 164.25 50.4
Q 164 50.4 163.75 50.5 164.6 50.65 165.55 50.85 164.95 50.6 164.25 50.4
M 60.35 68.55
Q 50.35 61.35 42.4 52.3 44.35 58.85 46.85 65.25 53.95 83.75 64 100.8 74.05 117.9 85.5 134.1 86.6 135.6 87.35 137.2 90.25 127.45 100.4 121.55 115.75 112.55 132.85 108.1 133 107.9 133.1 107.75 133.15 107.7 133.2 107.65 131.3 107.1 129.4 106.6 110.05 101.35 93.2 90.65 76.45 80.1 60.35 68.55
M 60.85 75.75
Q 66.3 78.6 70.9 82.75 80.2 91.1 89.65 99.3 94.25 103.3 98.95 107 92.5 108.75 87.2 113.2 85.8 114.4 84.8 115.75 82.4 111.25 79.35 106.95 73.8 99 68.85 90.75 64.5 83.4 60.85 75.75
M 34.4 42.25
Q 33.45 43.5 32.7 44.9 23.25 62.4 19.45 81.95 15.7 101.2 14.75 120.95 13.9 139.35 20.35 155.85 27.3 144.95 39.95 138.55 48.3 134.3 57.6 133.95 74.95 132.7 86.25 144.15 86.25 143.3 86.35 142.45 85.65 141.7 85.1 140.8 74.5 123.95 64.05 107.05 53.65 90.15 46.55 71.7 40.75 56.65 34.4 42.25
M 27.1 87.95
Q 27.35 76.2 32.85 66.5 35.35 70.55 37.2 74.95 42.1 86.4 46.85 98 51.55 109.55 54.5 121.7 54.6 122.2 54.8 122.65 50.3 122.05 45.5 122.5 36 122 27.85 126.65 27.2 127.05 26.6 127.45 27.25 119.45 27.05 111.15 26.8 99.5 27.1 87.95
M 70.8 36.75
Q 68.55 30.7 65.7 25.1 65.45 25.9 65.1 26.7 63.55 30.15 62.85 33.85 61.85 38.8 60.2 43.1 62.45 44.65 64.85 46.05 64.95 45.6 65.2 45.1 65.7 43.9 66.15 42.65 66.6 41.5 67.35 40.5 68.05 42.1 68.4 43.75 68.85 45.8 69 47.85 69 48.1 69.05 48.35 73.25 50.4 77.5 52.45 77.6 52.35 77.65 52.25 73.75 44.65 70.8 36.75
M 147.95 80.35
Q 147.7 80.35 147.45 80.4 127.6 82.85 108.1 78.3 88.8 73.75 71.25 64.55 55 56 40.8 44.6 45.3 52.45 52.5 58.2 68.1 70.55 84.4 82.1 100.7 93.65 119.5 100.5 130 104.3 140.7 106.25 140.85 106.2 141.05 106.15 142.4 105.85 143.7 105.75
L 143.75 105.75
Q 147.25 92.05 152.7 79 150.65 79.9 148.35 80.3 148.25 80.4 148.2 80.55 148.1 80.45 147.95 80.35
M 120.6 94.55
Q 120.05 93.9 119.25 93.35 110.3 87.3 100.2 83 102.15 83.55 104.75 84.15 115.85 86.55 127.15 86.95 123.3 90.1 120.6 94.55
M 154.6 60.75
Q 154.653125 60.75 154.75 60.75
L 154.75 60.8
Q 155.2 60.9 155.65 61 158.3 61.55 160.45 62.65 163.35 57.7 167.1 53.7 154.95 52.4 143.15 48.8 124.15 43.05 106.05 34.85 87.9 26.6 70.95 16.4 65.9 13.35 61.2 9.8 57.55 7.05 54.2 4.2 54.4 5.95 53.7 8.15 51.55 14.9 50.45 21.85 49.55 27.45 48.2 32.7 52.6 37.55 57.9 41.5 57.8 40.45 58.1 39.3 59.15 35 60.3 30.7 60.4 30.7 60.45 30.7
L 60.45 30.65
Q 61.1 27.8 61.95 24.95 62.6 22.7 63.4 20.5 63.65 20.7 63.9 20.85 63.95 20.8 63.95 20.75 65 21.55 66 22.4 66.15 22.5 66.3 22.6 67.3 23.35 68.25 24.15 68.45 24.35 68.7 24.5 69.6 25.2 70.55 25.95 70.85 26.15 71.15 26.4 73.35 28.05 75.7 29.5 76.5 30 77.3 30.55 79.25 32.2 81.55 33.5 98.85 43.15 117.5 49.95 121.75 51.5 126.1 52.95
L 126.1 52.9
Q 126.275 52.9875 126.5 53.05
L 126.6 53.1 126.65 53.1
Q 140.45 57.6 154.6 60.75
M 119.15 71.9
Q 100.1 66.15 81.9 57.95 65.55 50.55 51.35 39.8 39.7 30.95 34.85 17.85 34.75 17.9 34.7 17.95 30.55 21.45 27.55 26.1 16.75 42.75 10.65 61.7 4.6 80.55 3.3 100.3 2 120.3 5.5 139.75 8.05 153.9 15.6 165.4 16.15 163.9 16.8 162.45 11.3 147.9 8 132.75 6.45 125.85 6.55 118.5 6.75 98.5 10.15 79.15 11.9 69.45 14.95 60.1 21.05 41.45 30.95 24.55 31.65 23.3 32.9 22.7 35.65 30.1 42.15 35.5 46.75 39.3 51.55 42.8 57.25 46.95 63.05 50.95 69.95 55.7 77.5 59.45 95.05 68.15 113.9 73.55 128.2 77.6 143.05 78.2 148.2 77.65 152.7 75.2 153.7 74.65 154.65 74.45 154.85 74 155.05 73.55 152.65 73.65 150.3 73.65 134.85 76.65 119.15 71.9
M 104.8 64.1
Q 108.8 65.6 112.85 66.9 112.55 66.7 112.3 66.5 98.7 57.1 87 45.4 78.4 36.8 69.8 28.3 69.45 27.95 69.2 27.65 69.15 27.7 69.1 27.75 70.65 31.15 71.95 34.8 74.65 42.45 78.8 49.5 80.3 52 81.7 54.4 84.2 55.55 86.65 56.65
L 86.65 56.6
Q 85.85 55 85.25 53.3 84.7 51.75 84.15 50.25 83.65 48.9 83.2 47.55 85.7 49.85 87.9 52.4 90.7 55.6 93.65 58.7 94.25 59.35 94.7 60.1 99.7 62.15 104.8 64.1
M 81.5 36.55
Q 84.15 39.25 86.8 42.05 96.5 52.3 108.25 60.1 114.45 64.25 119.6 68.75 124.15 69.9 128.75 70.75 126.6 69 124.5 67.15 122.75 65.5 121.1 63.75 119.65 62.2 118.45 60.45 117.1 58.5 115.7 56.6 121.75 59.5 128 62.25 135.95 65.75 144.25 68.25 149.05 69.65 153.85 70.35 155.5 69.85 157.1 69.25 157.9 67.45 158.8 65.7 158.85 65.6 158.9 65.5 158.65 65.4 158.45 65.35 157 65.25 155.55 64.85 136.4 60.05 117.85 53.25 99.1 46.4 81.7 36.65 81.6 36.6 81.5 36.55
M 219.75 73.65
Q 218.85 72.6 217.85 71.6
L 217.9 71.6
Q 215.15 69.7 211.45 69.6 193.9 69.1 183.2 83.25 171.1 99.3 167.8 119.15 164.55 138.65 166.5 158.4 166.75 160.7 167.05 162.95 167.3 164.1 167.55 165.3 167.5 165.4 167.45 165.45 169.15 175.55 172.75 185.1 173.2 185.85 173.65 186.55 173.55 186.55 173.4 186.6 173.35 186.6 173.35 186.65 175.25 191.4 177.6 196.05 178.15 197.15 178.75 198.2 179.8 199.95 180.9 201.75 185 208.1 190.4 213.4 202.4 211.5 212.55 201.9 228.1 187.2 233.2 166.3 239.7 139.55 233.15 112.8 228.25 92.55 219.75 73.65
M 205 82.25
Q 205.1 82.25 205.2 82.2 206.8 81.8 208.35 81.25 208.9 81.45 209.55 81.6 229.75 103.6 232.1 133.3 234.7 166.1 215.9 192.2 213.55 195.45 209.9 196.75 195.1 202 188.6 186.95 177.95 162.35 180.7 135 183.85 104 205 82.25
M 232.3 123.25
Q 232.3 123.425 232.35 123.65 232.29375 123.425 232.25 123.25
L 232.3 123.25
M 186.85 47.2
Q 185.45 47.05 184 47.2 183.05 47.75 182.15 48.35 164.95 59.15 157.5 79.1 152.65 92.1 148.95 105.5 148.8 106.05 148.7 106.55 148.45 107.15 148.25 107.75 147.75 109.35 147.45 110.95 147.35 111.45 147.35 111.95 141.95 134.95 142.9 159.05 143.25 168.55 145.7 177.15 146.65 177 147.85 176.45 148.65 176.05 148.6 175.25 147.75 165.2 147.95 154.8 148.25 139.1 151.15 123.9 154.05 108.65 157.9 93.7 158.4 91.75 159.05 89.95 159.5 88.7 159.65 87.65 160.2 86.5 160.45 85.25 161.45 80.6 163.55 76.35 166.3 70.8 169.7 65.55 170.4 64.5 171.15 63.55 172.75 60.85 175 58.9 177.6 56.1 180.9 54 181.75 53.45 182.65 53.2 185.55 52.35 188.6 53.2 188.7 53.25 188.85 53.3 189.95 53.1 191.05 53.05 195.3 53 196.25 55.6 198.35 56.3 200.45 57.1 202.5 57.85 204.15 59.35 202.3 59.45 200.4 59.8 197.1 60.95 194 62.4 187.9 69.2 179.4 72.4 176.8 74.85 174.45 77.65 167 86.55 162.85 97.45 158.65 108.55 157.65 120.4 156.35 135.7 156.4 151.1 156.45 170.25 163.55 187.65 167.3 196.9 172.5 205.3 168.75 203 165.25 200.45 160.4 197 154.75 196.4 153.15 197.4 151.3 198 149.2 199.5 147.95 202.2 146.5 205.25 145.2 208.35 144.5 210 143.75 211.6 139.35 205.4 139.45 197.85 139.5 196.65 139.75 195.45 139.85 194.95 139.9 194.55 139.2 192.15 140.25 189.8 140.45 189.3 140.75 188.85 139.75 186.35 136.8 187.2 130.6 188.95 124.55 190 124.95 189 125.6 188.15 128 184.95 130.9 182.1 135.65 177.55 141.35 174.3 140.35 172.4 139.75 170.45 139.6 169.7 139.45 169 139 169.2 138.45 169.4 124.45 175.65 119.55 189.05 117.95 193.4 121.35 195.5 122.6 196.3 124.15 195.55 129.3 193 134.4 192.4 135.85 192.25 135.35 193.85 134.45 196.5 132.2 198.3 132.2 198.3521484375 132.2 198.45 134.3 201.55 135.5 205.85 137.1 211.65 140.55 216.6 142.55 219.4 144.75 221.85 147.15 211.9 153.05 204.5 153.6 204.25 154.1 203.9 155.9 202.7 157.75 201.65 158 201.5 158.25 201.4 160.7 204.5 163.55 207.45 166.45 210.45 170.55 211.7 178.7 214.15 186.2 213.8 186.2 213.75 186.2 213.7 176.15 205.05 171.05 192.85 166.7 182.35 164.65 171.25 161.3 153.1 161.9 134.45 162.65 113.9 170.85 94.85 179.5 74.8 199.85 66.95 202.85 65.75 205.95 65.35 211.8 64.7 216.2 66.3 213.05 60.75 208.5 56.4 207.6 55.45 206.55 54.7 205.85 54.05 205 53.55 201.4 51.35 197.65 49.65 196.7 49.2 195.7 48.8 195.65 48.8 195.6 48.75 195 48.5 194.4 48.3 190.75 47.05 186.85 47.2 Z"/>

<path fill="#FFFFFF" fill-opacity="0.47843137254901963" stroke="none" d="
M 76.25 90.6
Q 76.25 90.65 76.2 90.65 76 90.7 75.75 90.75 75.65 90.75 75.55 90.8 75.45 90.9 75.3 91 75.15 91.15 75 91.3 74.15 93.65 75.8 95.65 78.65 99 80.95 102.6 83.35 106.4 87.1 107.4 88.65 105.3 86.8 102.75 84.4 99.45 82.1 96.05 79.7 92.55 76.25 90.6
M 39.35 97.05
Q 38.45 90.35 34.2 86.45
L 34.2 86.5
Q 34 86.55 33.75 86.6 33.65 86.6 33.55 86.65 33.4 86.75 33.3 86.85 33.15 87 33 87.15 32.7 90.3 32.55 93.6 32.25 99.7 32.8 105.85 33.4 113.25 39.05 115.75 40.45 112.85 40.35 109.3 40.15 103.1 39.35 97.05
M 115.9 86.45
Q 115.9 86.5 115.85 86.5 115.55 86.6 115.25 86.7 115.1 86.75 114.95 86.85 114.8 87 114.65 87.15 114.55 87.25 114.45 87.4 114.45 87.55 114.45 87.7 114.4 87.85 114.4 88 114.4 88.4 114.5 88.8 114.5 88.95 114.6 89.1 114.7 89.25 114.85 89.4 116.65 90.45 118.8 90.7 120.35 90.85 120.9 89.45 121.15 88.75 120.8 88.05 120.4 87.4 119.55 87.4 118.55 87.45 117.75 87 116.9 86.55 115.9 86.45
M 130.5 65.8
Q 129.05 65.3 127.6 65.3 127.6 65.35 127.55 65.35 127.35 65.4 127.1 65.45 126.9 65.5 126.75 65.65 126.6 65.75 126.45 65.9 126.35 66.05 126.3 66.2 126.2 66.3 126.15 66.45 126.1 68.55 128.3 69.05 130.25 69.5 131.95 70.5 133.2 71.3 134.55 70.8 134.75 70.65 134.9 70.45 135.3 70 135.35 69.35 135.4 69.1 135.4 68.8 135.35 68.65 135.3 68.55 135.3 68.4 135.2 68.25 135.1 67.95 134.95 67.7 133.95 67.1 132.85 66.65 131.7 66.2 130.5 65.8
M 204.9 102.9
Q 204.4 102.95 204.1 103.4 188.25 126.8 194.5 155.45 197.2 167.95 208.8 171.65 211.1 172.4 212.1 170.4 222.3 150.1 219.7 126.9 219.3 123.3 218.85 119.7 217.1 106.2 204.9 102.9 Z"/>

<path fill="#FFFFFF" fill-opacity="0.09803921568627451" stroke="none" d="
M 140.75 188.85
Q 140.45 189.3 140.25 189.8 139.2 192.15 139.9 194.55 139.95 194.75 140.05 195 142 200.35 146.4 198.7 147.85 198.65 149.25 198.45 150.3 198.3 151.3 198 153.15 197.4 154.75 196.4 157 194.95 158.75 192.5 160.5 190 161.2 187.15 161.8 184.75 161.4 183.15 161.3 182.85 161.25 182.6 160 179.4 154.15 179.8 152.95 180.05 151.65 180.4 150.4 180.7 149.2 181.15 143.55 183.45 140.75 188.85
M 195.55 60.55
Q 196.25 59.7 196.4 58.65 196.7 56.8 196.25 55.6 195.3 53 191.05 53.05 189.95 53.1 188.85 53.3 187 53.5 185.25 54.05 184.6 54.25 184.05 54.4 178.7 55.6 175 58.9 172.75 60.85 171.15 63.55 170.25 64.95 169.55 66.6 167.55 71.35 172 73.35 173.75 74.15 175.55 73.65 177.55 73.1 179.4 72.4 187.9 69.2 194 62.4 194.8 61.5 195.55 60.55 Z"/>
</g>

<g id="MovieClips_Symbol_585_40_Layer0_0_FILL">
<path fill="#354466" stroke="none" d="
M -67 -3.75
Q -69.3 -1.2 -70.1 -0.1 -70.75 0.8 -71.95 2.8
L -75.35 8.5
Q -75.85 9.4 -76 9.9
L -76.25 10.95
Q -76.3 11.4 -76.6 12.1 -76.85 12.7 -77.35 13.85 -77.55 14.1 -77.7 14.4 -78.1 15.3 -78.2 15.8 -78.35 16.2 -78.5 17.05
L -82.45 30.55
Q -82.55 30.9 -82.6 31.2 -82.7 31.35 -82.75 31.6
L -84.4 41.95 -85 50.9
Q -85 52.6 -85.2 54 -85.55 56.25 -85.45 56.9 -85.45 56.95 -85.4 57 -85.4 57.15 -85.4 57.3 -85.35 57.7 -85.2 58.5 -85.05 59.4 -85.1 60.95 -85.2 62.8 -85.15 63.45
L -84.85 71.15
Q -84.85 72.65 -84.6 73.4 -84.5 73.85 -84.1 74.8
L -83.4 77.5
Q -83.35 77.75 -83.25 78 -83.3 78.4 -83.25 78.95 -83.05 81.1 -81.65 85 -81.3 86.2 -80.9 86.8 -80.8 87 -80.35 87.7 -80 88.35 -79.6 89.7 -79.3 90.55 -78.5 92.15 -77.95 93.25 -77.3 95.3 -77 96.2 -76.6 96.65 -75.75 97.65 -74.5 97.3 -74.4 97.25 -74.25 97.25 -74 96.55 -73.5 95.8 -72.35 93.85 -72.3 93.75
L -72 93.15 -71.2 92.1
Q -71.25 92.05 -71.3 92
L -72 91.1
Q -72.55 90.6 -72.6 90.25 -72.7 90.15 -72.65 90.1
L -72.8 89.95 -73.1 89.5 -73.7 88.3 -74.5 85.75 -74.55 85 -74.5 83.35
Q -74.7 83.2 -74.7 82.9
L -75.4 79.35 -75.4 78.75 -75.6 77.95 -75.65 77.1 -75.75 76.8 -75.8 76.2 -75.75 74 -77 68.4
Q -77.1 67.45 -77 65.55
L -76.8 61.25 -76.85 59.9
Q -77.1 58.55 -77.1 58.2 -77.1 58.1 -76.85 56.95
L -76.05 54.05
Q -76.15 53.95 -76.05 53.85
L -75.95 52.8 -75.95 52.6 -75.8 51.05 -75.75 50.8 -75.35 46.9
Q -75.35 46.85 -75.3 46.85 -75.2 45.05 -74.85 41.65 -74.75 40.65 -74.6 40.05
L -73.25 34.6 -73.2 33.6
Q -73.15 33.2 -72.85 32.35 -72.6 31.5 -72.55 31.05
L -72.5 31.05
Q -72.55 31 -72.55 30.9
L -72.5 30.75 -70.35 25.45
Q -70.25 25.2 -70.2 25.2 -70.1 25.05 -70.05 24.95 -69.8 24.65 -69.5 23.95
L -69.55 23.95
Q -68.35 20.9 -68 19.3
L -67.75 18.5 -67 17.2
Q -66.65 16.7 -66.6 16.25
L -66.5 15.8
Q -66.5 15.6 -66.3 15.3
L -65.4 13.45 -65.45 13.4 -65.4 13.2
Q -64.8 11.8 -64.3 10.95
L -64.35 10.85 -63.5 8.8 -63.3 8.45 -62.8 6.95
Q -62.65 7 -62.55 6.8 -62.25 6.45 -61.75 6.35 -61.4 6.35 -61.3 6.45 -61.25 6.45 -61.15 6.5 -60.85 6.55 -60.05 7
L -58.1 8.2
Q -55.65 9.85 -54.95 10.15
L -53.9 10.65
Q -53.45 10.9 -52.65 11.5 -52.3 11.75 -50.65 13.3
L -48.4 15.45
Q -48.25 15.6 -48.15 15.7 -32.1 25.55 -14.4 31.8 -11.25 32.9 -8.05 33.8
L -8.05 33.75
Q -5.15 34.55 0 34.95
L 5.65 35.45
Q 7.55 35.6 7.95 35.55 8.95 35.55 11 35.4 11.7 35.4 13.25 35.5 14.65 35.6 15.45 35.55 16.15 35.55 17.45 35.35
L 21.05 34.8 21.8 34.75 24.3 34.2
Q 24.85 34.15 25.3 34.2
L 25.25 34.55 25.2 34.6 25.2 34.8 25.15 34.95 25.15 35.15 25.05 35.2 25.05 35.4 25 35.55 25 35.6 24.95 35.7 24.85 35.85 24.8 36 24.7 36.15 24.65 36.3 24.65 36.35
Q 24.7 36.3 24.8 36.3 23 40.95 22.05 45.95 17.9 67.7 15.6 89.95 15.35 92.45 15.35 94.95 15.25 94.95 15.2 95
L 15.2 95.05
Q 15.2 95.8 15.1 96.05
L 15.1 96.1
Q 15.1 96.35 15.1 96.55 14.9 96.55 14.65 96.6 14.6 96.65 14.5 96.7
L 12.5 98.1
Q 11.75 98.5 11.2 98.7
L 11.15 98.7
Q 10.85 98.85 10.55 98.95 10.1 99.35 9.6 99.7 8.45 100.55 7.25 101.1 7.2 101.15 7.15 101.15
L 7.15 101.2 7.1 101.2 7.1 101.3
Q 7.05 101.3 6.95 101.35 6.2 102.1 5.2 101.8
L 5.2 101.75
Q 5.2 101.6 5.2 101.45
L 5.2 101.4
Q 1.55 104.65 -0.85 108.75
L -0.85 108.8 -0.9 108.85
Q -1 109 -1.05 109.05 -1.6 110.6 -1.8 112.2 -2.15 114.45 -1.65 116.6 -1.45 117.5 -1.3 118.4 -1.1 119.2 -1.15 120.05 -1.25 120.1 -1.35 120.15 1.05 122 4 122.4 4 122.25 4 122.05 4 122 4 121.95 5.35 121.9 6.65 121.5 6.9 121.4 7.1 121.4 7.45 121.35 7.75 121.2 8.25 121.25 8.75 121.25
L 8.75 121.3
Q 8.75 121.45 8.75 121.6 8.75 121.75 8.75 121.9 8.75 122 8.75 122.15 8.6 122.25 8.5 122.35 9.2 124.2 10.1 125.95 11.65 128.95 12.1 132.15 12.15 132.4 12.15 132.65 12.25 132.65 12.3 132.65 12.6 133.4 13.05 134.05 13.75 135 14.4 136 15 136.9 15.95 137.45 16.2 137.9 16.6 138.3 17.2 138.9 17.7 139.65 17.95 140.05 18 140.55 18.2 140.65 18.45 140.8 18.6 140.55 18.7 140.25 19.65 138.35 21.45 135.65
L 21.95 134.95
Q 22.2 134.7 22.25 134.55
L 22.4 133.7
Q 22.5 133.3 22.7 133.1 23.35 132.45 23.65 132.1
L 24.15 131.3
Q 24.55 130.6 25.2 130 25.25 129.35 25.5 128.8 25.8 128.15 26.2 127.7 26.25 127.65 26.3 127.6 26.45 127.6 26.6 127.6 26.7 127.45 26.8 127.25 26.9 127.15 27.1 127.15 27.15 127.1 27.2 127.1 27.85 127.1 28.45 127.15 28.6 127.2 28.75 127.25
L 28.75 127.3
Q 28.75 127.4 28.75 127.45 28.75 127.55 28.75 127.65 29.2 127.7 29.55 127.7 29.65 127.7 29.65 127.75 30.05 128.25 30.5 128.75 31.75 129.25 32.95 129.75 37.15 132.7 42.15 134.6 42.25 134.65 42.4 134.75 45.2 135.15 48.2 134.85 50 134.65 51.8 134.5 51.9 134.5 52 134.5 52.05 134.45 52.05 134.4 49.75 132.65 48.7 131.15
L 47.9 129.95 47.85 129.9
Q 47.4 129.6 47 129.3
L 46.7 128.95 46.6 128.45
Q 46.55 128.1 46.15 127.75 45.65 127.35 45.4 127.15 44.75 126.7 44.15 125.75 42.5 123.7 42 122.5 41.8 122.05 41.3 120.25 40.9 119 40.5 118.25
L 40.45 118.25
Q 40.25 118.2 40.1 117.95 38.25 115.55 36.6 110.3
L 35.45 106.55
Q 34.05 101.45 32.95 90.75 32.6 87.25 32.7 85 33 82.25 33 80.9 32.85 78.3 32.8 77.05 32.8 74.95 33.55 73.7 33.95 66.55 35.55 59.35 36.15 56.8 37 54.5 38.9 49.35 41 44.2 45 34.4 53.8 29.5 54.5 29.1 55.15 29.15 56.4 28.15 58.15 27.15
L 58.75 26.85
Q 58.95 26.8 59.85 26.8 60.85 26.75 62.75 26.15 63.55 26.05 64.3 26.15 66.4 26.25 67.85 26.55 70.2 26.95 72.2 27.8 72.3 27.85 72.4 27.9 73.05 27.25 73.55 26.7 73.1 25.8 72.5 24.95 69.55 20.6 65.65 16.95 59.6 11.25 51.55 10.2 47.05 10.7 42.65 12.05 39.1 13.2 36.85 15.85 35.6 15.7 34.25 15.7 31.6 15.75 29.2 14.95 23.8 13.2 18.5 11.2 16.5 11.5 14.5 10.9 14.5 10.85 14.5 10.8 14.45 10.75 14.4 10.7 14.35 10.65 14.25 10.55 7.55 7.85 1.2 5.4 -4.5 3.3 -9.75 0.45 -13.85 -1.25 -15.45 -2.15 -15.55 -2.2 -15.6 -2.2 -15.85 -2.1 -16.35 -2.45 -16.65 -2.65 -18.1 -3.25 -22.1 -4.9 -24.8 -6.7 -25.5 -7.2 -25.8 -7.3
L -26.7 -7.6
Q -27.15 -7.8 -27.95 -8.4 -28.4 -8.7 -30.2 -9.7 -31.6 -10.45 -32.3 -11.15 -32.5 -11.2 -32.45 -11.35 -34.65 -12.65 -36.85 -13.95 -40.6 -16.15 -44.45 -18.5
L -44.45 -18.6
Q -44.45 -18.65 -44.45 -18.75 -44.55 -18.75 -44.6 -18.75
L -44.75 -19
Q -45.15 -19.7 -45.85 -19.95 -46.55 -20.25 -47.3 -19.9
L -47.6 -19.75 -47.8 -19.6
Q -48.2 -19.25 -48.35 -18.85
L -48.4 -18.75 -48.45 -18.3
Q -48.6 -17.9 -48.65 -17.5
L -48.9 -16.4
Q -49.35 -14.65 -49.95 -10.95 -50.55 -7.35 -51.05 -5.5 -51.4 -3.85 -51.45 -3.55
L -51.55 -1.9
Q -51.6 -1.7 -52.4 0.6 -53.05 0.55 -53.75 0.2 -54.75 -0.65 -55.25 -1.9 -55.4 -2.3 -55.55 -2.75
L -57.1 -4.45 -58.05 -5.8
Q -59.35 -7.5 -59.8 -8.5
L -60.2 -9
Q -60.65 -9.5 -60.85 -9.95 -61.15 -10 -61.45 -9.95 -62.2 -9.8 -62.95 -9
L -64 -7.5
Q -64.95 -6.05 -67 -3.75
M -41.3 -1.95
Q -41.05 -2.55 -40.95 -2.65 -40.85 -2.75 -40.25 -3.25 -39.9 -3.5 -39.65 -4.05
L -39.5 -4.35 -39.15 -4.6 -39 -4.65
Q -39 -4.7 -39 -4.75 -38.95 -4.75 -38.9 -4.7
L -38.85 -4.75 -38.8 -4.65 -38.8 -4.6
Q -33.7 -1.55 -28.5 1.3 -28.05 2.55 -26.7 3.2 -23.65 4.75 -20.75 6.55 -20 6.65 -18.8 7.1 -13.75 9.3 -7.95 11.45 -5 12.6 -4.2 12.95
L -3.7 13.25
Q -3.65 13.3 -3.5 13.5 2.1 15.95 7.65 18.45 7.7 18.45 7.75 18.45
L 8.5 18.5
Q 8.95 18.55 9.85 18.4 10.75 18.25 11.25 18.3
L 14.45 19.25
Q 15.95 19.75 16.75 19.85
L 17.5 19.95 20.9 21.05
Q 22.25 21.55 23.1 21.7
L 24.4 22 31.35 24.2 31.4 24.15
Q 31.5 24.05 31.5 24.2
L 31.4 24.55 31.2 25 31.1 25.1
Q 31.15 25.15 31.1 25.2 31.1 25.25 31.05 25.25 31.05 25.45 30.85 25.55
L 30.6 25.8 30.45 25.9 30.4 25.95
Q 30.25 26.15 29.9 26.5
L 29.35 27.15 28.6 27.6 28.35 27.8 28.35 27.85 27.85 28.35 27.75 28.4 27.6 28.45 27.35 28.7 26.1 29.3
Q 25.7 29.45 25 29.95
L 24.6 30.2
Q 24.2 30.2 23.7 30.2 22.85 30.25 22.45 30.35 21.45 30.7 20.95 30.75 20.75 30.8 19.1 30.8 19 30.8 18.9 30.8 17.2 30.75 15.65 30.65
L 4.4 29.55
Q 3.45 29.4 2.65 29.1 0.85 28.1 -0.2 27.9
L -2.2 27.65
Q -4.45 27.4 -6.3 27 -8.25 26.55 -8.8 26.6 -8.9 26.6 -8.95 26.55
L -9.55 26.45 -10.8 26.05
Q -11.7 25.75 -13.1 25 -14.75 24.1 -15.35 23.85
L -16.6 23.3
Q -16.9 23.2 -17.8 22.6
L -19.4 21.7
Q -21.25 20.7 -22.55 20.15
L -23.9 19.7
Q -26.4 18.8 -27.25 18.35 -27.8 18 -28.9 17.2 -29.55 16.75 -30.1 16.5
L -30.15 16.5
Q -30.4 16.4 -30.6 16.35
L -30.55 16.35
Q -32.4 15.65 -34.4 14.75
L -37.15 13.45 -38.15 12.85
Q -38.65 12.6 -39.8 12.25 -40.55 11.95 -41.75 11 -43 9.95 -43.65 9.65 -43.9 9.55 -43.75 9.4
L -43.75 9.3
Q -43.5 9.3 -43.65 9.15
L -43.6 9.15 -43.6 8.95 -43.5 8.95
Q -43.65 8.8 -43.4 8.8
L -43.4 8.7 -43.3 8.6 -43.3 8.45
Q -43.3 8.4 -43.25 8.4
L -43.2 8.2
Q -43.2 8.25 -43.15 8.2
L -43.15 8.1 -43.1 7.75 -43.05 7.75 -42.95 6.1 -42.9 5.9 -42.8 5.75
Q -42.85 5.45 -42.85 5.05 -43 3.5 -42.95 3.35
L -43.1 3.3
Q -43.15 2.8 -43.1 2.35
L -43.15 2.3 -43.15 2.15 -41.3 -1.95
M -4.45 15.6
Q -4.237109375 15.69375 -4.05 15.8
L -4.05 15.75 -4.45 15.6 Z"/>
</g>

<g id="MovieClips_Symbol_621_40_Layer14_0_FILL">
<path fill="#FFFF66" stroke="none" d="
M 83.55 59.65
Q 82.6 55.2 81.5 50.85 81.2 49.9 80.85 48.8 79.75 45.65 79.7 42.25 77.85 38.6 75.55 35.15 75 34.35 74.8 33.55 74.15 31 72.05 29.25 67.3 25.35 60.65 27.3 55 28.35 51.05 32.6 45.5 38.55 40.6 45.25 36.4 50.95 34.05 57.35 34.3 64.3 33.1 71.05 32.5 74.3 32.5 77.75 32.6 86.6 32.95 95.45 33.05 99.85 34.6 103.85 35.3 105.65 35.75 107.5 37.65 115.95 42.05 123.4 42.5 124.15 42.7 124.9 42.7 125.1 42.75 125.3 44.6 127.35 46.75 129.2 55.15 136.45 61.75 128.8 70.25 126.85 74.45 119 84.85 99.15 86.45 76.95 86.5 76.25 86.5 75.7 85.7 70.15 84.6 64.65 84.1 62.2 83.55 59.65
M -18.05 73.5
Q -17.95 73.45 -17.95 73.35
L -18.1 73.35
Q -18.2 73.45 -18.25 73.5
L -18.35 73.55
Q -18.5 73.65 -18.65 73.75 -18.7 73.75 -18.75 73.85 -18.65 73.85 -18.6 73.85 -18.3 73.7 -18.05 73.5
M -16.3 30.5
Q -27.2 27.95 -35.85 21.85 -38 20.35 -40.6 19.15 -45.95 16.85 -50.4 13.25 -52.25 11.75 -53.5 9.85 -56.4 8.1 -59.3 6.2 -60.1 5.6 -60.5 4.95 -60.65 5 -60.8 5 -61.3 5.95 -61.9 6.8 -64.95 10.8 -66.6 15.4 -67.95 19.25 -68.95 22.95 -68.95 23 -68.95 23.05 -69.35 24.15 -69.65 25.2 -69.9 26.15 -70.2 27 -70.45 27.65 -70.5 28.3
L -70.5 28.4
Q -71 28.45 -71.45 28.45 -71.7 29.65 -71.65 30.9 -71.65 31.7 -71.75 32.55
L -71.75 32.6
Q -72.15 32.6 -72.5 32.6 -73.2 38.95 -74.1 45.1 -74.6 48 -74.95 50.9 -76.3 62.55 -75.85 74.45 -75.75 77.85 -75.3 81.15 -75.2 81.35 -75.1 81.55 -75.15 81.75 -75.2 81.85 -75.1 82.55 -75 83.25 -74.85 84.05 -74.2 84.55 -74.2 84.65 -74.2 84.7 -74.15 85.35 -73.85 85.9 -73.55 86.45 -73.1 86.95 -73.05 87.05 -72.95 87.05 -73.05 87.3 -73.1 87.65
L -73.25 88.05 -73.4 88.95
Q -73.6 90.05 -73.45 90.55 -73.3 91.2 -72.75 91.65 -72.25 92.05 -71.6 92.1 -70.95 92.1 -70.4 91.7 -69.8 91.3 -69.6 90.7
L -69.45 89.85
Q -68.6 89.6 -67.95 88.8 -66.55 87.1 -64.95 85.65 -64.95 85.35 -64.95 85.05 -64.95 84.7 -64.95 84.4 -63.2 82.9 -61.7 81.25 -60.5 79.85 -58.85 79.35 -56.75 78.7 -54.65 78.2
L -54.65 78.15
Q -54.5 77.75 -53.65 77.55 -50.1 76.85 -46.5 76.4 -46.45 76.4 -46.4 76.4 -46.3 76.4 -46.2 76.4 -43.45 76.05 -40.65 75.9 -35.5 75.05 -31.35 77.3 -30.5 77.75 -29.6 78.25 -29.55 78.25 -29.5 78.3 -29.1 78.65 -28.6 78.75 -28.4 78.85 -28.2 78.95 -28.05 79.15 -27.65 79.55 -27.05 80.1 -25.8 81.15
L -25.1 81.85
Q -24.3 82.5 -23.25 82.25 -22.8 82.2 -22.5 81.95 -22.4 82 -22.3 82.05 -22.1 81.95 -21.9 81.85 -21.9 81.8 -21.9 81.75 -21.9 81.45 -21.85 81.2 -21.85 81.15 -21.85 81.1 -21.6 80.45 -21.75 79.85 -21.7 79.3 -21.55 78.75 -21.3 77.45 -20.9 76.15 -20.7 75.1 -20.65 73.95 -20.6 72.6 -19.95 71.65 -19.85 71.55 -19.85 71.3 -19.75 71.25 -19.75 71.2 -19.7 71.2 -19.6 71.1
L -19.5 71 -19.5 70.95
Q -19.5 70.8 -19.5 70.7
L -18.6 69.85
Q -17.9 69.35 -17.7 69 -17.65 68.95 -17.6 68.9 -17.5 68.75 -17.45 68.7 -13.7 67.25 -10.35 64.9 -9.05 63.95 -7.4 63.45 -5.1 62.55 -2.85 61.5 -2.15 61.15 -1.3 60.9 6.35 58.8 14.05 56.7 15.8 56.75 17.6 56.8
L 17.6 56.85
Q 17.6 56.95 17.6 57 17.6 57.15 17.6 57.4 20.8 54.2 21.45 48.7 21.85 45 23.1 41.6 23.6 40.25 23.7 39.1 23.85 38.95 24.05 38.8
L 24.45 38.05
Q 24.8 37.7 24.9 37.5
L 25.05 37.15 25.2 36.65 25.25 36.55
Q 25.3 36.35 25.25 36.15
L 25.3 36.05
Q 25.3 35.45 25.05 35.05 24.45 33.95 23.3 33.95 22.4 33.95 21.9 34.55 21.8 34.55 21.75 34.6 21.45 34.45 21.2 34.2 18.85 34.65 16.3 34.8 2.85 35.6 -9.8 32.15 -13.1 31.3 -16.3 30.5
M -40.85 -4
Q -40.95 -2.8 -41.05 -1.55 -41.55 2.25 -42.75 5.7 -43.35 7.45 -43.9 9.3 -42.75 9.65 -41.65 10.25 -36.9 12.7 -31.8 15.35 -30.3 16.1 -28.75 16.7 -25.6 17.85 -23.15 20 -23.15 20.05 -23.15 20.1 -23.15 20.3 -23.15 20.55 -23.15 20.65 -23.15 20.7 -16.7 22.45 -10.7 25.1 1.35 30.25 14.6 30.6 16.6 30.65 18.5 31.05 18.85 30.95 19.25 30.85 23.2 29.9 27.2 29.95 27.2 30 27.2 30.05 27.2 30.3 27.2 30.6 28.4 29.2 28.55 26.55 28.55 26.45 28.55 26.35 28.85 26.35 29.1 26.3 29.65 26.1 29.9 25.6 30.5 24.25 29.05 23.95 28.9 23.95 28.7 24 28.1 24.05 27.65 24.4 24.85 22.2 21.45 20.8 20 20.7 18.65 20.3 16.8 19.7 14.9 19.1 14.3 18.9 13.6 18.9 13.55 18.85 13.45 18.75 13.4 18.7 13.35 18.6 -7.2 13.85 -25.5 3.2 -32.35 -0.8 -39.1 -4.45 -40.1 -4.3 -40.85 -4 Z"/>
</g>
</defs>

<g transform="matrix( 1, 0, 0, 1, -33.5,-72.6) ">
<g transform="matrix( 1, 0, 0, 1, 0,0) ">
<use xlink:href="#Parts_Bodies_bodyMC_40_Layer14_0_FILL"/>
</g>

<g transform="matrix( 0.72491455078125, 0, 0, 0.724853515625, -86.4,-22.45) ">
<g transform="matrix( 1, 0, 0, 1, 0,0) ">
<use xlink:href="#Parts_Sets_Bat_batBody_0_Layer0_0_FILL"/>
</g>
</g>
</g>

<g transform="matrix( 1, 0, 0, 1, -32.9,-71.25) ">
<g transform="matrix( 1, 0, 0, 1, 0,0) ">
<use xlink:href="#MovieClips_Symbol_585_40_Layer0_0_FILL"/>
</g>
</g>

<g transform="matrix( 1, 0, 0, 1, -33.5,-72.6) ">
<g transform="matrix( 1, 0, 0, 1, 0,0) ">
<use xlink:href="#MovieClips_Symbol_621_40_Layer14_0_FILL"/>
</g>
</g>
</svg>
