
<svg xmlns="http://www.w3.org/2000/svg" version="1.1" xmlns:xlink="http://www.w3.org/1999/xlink" preserveAspectRatio="none" x="0px" y="0px" width="550px" height="400px" viewBox="0 0 550 400">
<defs>
<g id="Layer0_0_FILL">
<path fill="#010101" stroke="none" d="
M 4.7 1.05
Q 4.8 0.25 4.3 0.05 3.8 -0.15 3.65 0.65
L 3.6 0.8 3.6 0.9 3.55 1 3.3 1.4 3.2 1.45 2.85 1.8 2.4 1.95 1.9 2.05 1.35 1.95
Q 0.8 1.85 0.4 1.6 0.2 1.45 0.05 1.7 -0.05 2 0.1 2.2 0.45 2.95 1.2 3.35 1.95 3.65 2.75 3.4 3.55 3.2 4.1 2.55 4.65 1.85 4.7 1.05 Z"/>
</g>
</defs>

<g transform="matrix( 1, 0, 0, 1, 0,0) ">
<use xlink:href="#Layer0_0_FILL"/>
</g>
</svg>
