
<svg xmlns="http://www.w3.org/2000/svg" version="1.1" xmlns:xlink="http://www.w3.org/1999/xlink" preserveAspectRatio="none" x="0px" y="0px" width="550px" height="400px" viewBox="0 0 550 400">
<defs>
<g id="Layer0_0_FILL">
<path fill="#010101" stroke="none" d="
M 0.8 1.35
Q 0.8 0.75 0.7 0.55 0.7 0.35 0.6 0.1 0.45 -0.15 0.3 0.1 -0.1 1.3 0.1 2.95 0.3 3.95 0.5 4.35
L 0.7 4.75
Q 0.7 4.85 0.8 4.9 0.95 4.9 1 4.85 1.1 4.75 1.1 4.35 1.05 3.7 1.05 3.5
L 0.9 3 0.7 2.6 0.7 2.5 0.6 2.3 0.6 2.2
Q 0.6 2.1 0.7 2.05 0.8 1.85 0.8 1.35 Z"/>
</g>
</defs>

<g transform="matrix( 1, 0, 0, 1, 0,0) ">
<use xlink:href="#Layer0_0_FILL"/>
</g>
</svg>
