
<svg xmlns="http://www.w3.org/2000/svg" version="1.1" xmlns:xlink="http://www.w3.org/1999/xlink" preserveAspectRatio="none" x="0px" y="0px" width="550px" height="400px" viewBox="0 0 550 400">
<defs>
<g id="Parts_Feet_footMC_8_Layer7_0_FILL">
<path fill="#000000" stroke="none" d="
M 39.25 -2.9
Q 37.65 -3.65 35.25 -2.05 32.9 -0.55 31.2 2.1 30.3 3.45 29.85 4.75 28.9 2.35 26.75 1.3 24.1 0.35 21.75 2.9
L 21.6 3.1
Q 20.95 6.2 19.85 8.75
L 20.25 9.6
Q 21.95 12.55 27.75 12.6 27.35 13.35 27.35 14.1
L 27.35 15.15
Q 27.55 16.1 28.5 16.1
L 28.9 16.05 29 15.85 29.1 15.5
Q 28.6 14.8 28.6 14.15 28.6 13.3 29.3 12.6
L 32.35 12.1 32.5 11.75 33.5 11.2 33.55 11.2 33.6 11.15 34.35 10.7 34.45 10.55 34.6 10.55 36 9.75 36.3 9.3 36.45 9.25 36.4 9.25
Q 37.95 7.8 39.6 4.9 42.35 3.65 45.95 3.65
L 49.6 3.75 49.6 3.4
Q 45.55 1.45 40.3 3.55
L 41.1 1.85
Q 41.1 -2 39.25 -2.9
M 36.5 -2.1
Q 38.25 -2.1 39.1 -0.6 39.75 0.45 39.75 1.75 39.75 2.7 38.85 4.2
L 38.1 4.55
Q 33.4 7 32.4 9.1
L 31.75 8.6 31.35 7.85 31.4 7.7 30.85 7.5 30.65 7
Q 31.75 5.5 33.05 2.25 34.75 -2.1 36.5 -2.1
M 34.8 8.7
L 34.8 8.65 34.1 9.3
Q 34.75 8.3 36.25 7
L 37.55 6 37.05 6.6 34.8 8.7
M 32.15 10.65
L 32.15 10.8 31.8 10.85 32.15 10.65
M 30.75 9.6
L 30.9 9.45 31.25 9.55 31 9.65 30.75 9.6 30.35 9.5 30.35 10 29.85 10.35 29.05 11.05 25.25 11.1
Q 23.6 11.1 22.4 9.65 21.6 8.65 21.4 7.65
L 21.9 7.45 21.85 6.65 22.35 5.65 21.6 6.05 22.25 4.9
Q 23.6 2.8 26.25 2.8 27.55 2.8 28.9 5.85
L 29.4 6.85 29.35 7.05 29.3 7
Q 29.6 7.45 29.6 8.55
L 29.55 9 30.6 9.35 30.75 9.6 Z"/>
</g>

<g id="Graphics_Symbol_276_0_Layer3_0_FILL">
<path fill="#000000" stroke="none" d="
M 40.7 11.55
L 43.95 11.85
Q 40.45 9.55 38.5 9.5
L 35.85 9.85
Q 33.65 8.8 30.7 7.9 24.75 6.2 20.45 7.3
L 21.6 3.1
Q 19.55 7.55 12.3 10.15 6.55 12.25 1.3 12.25 -3.8 12.25 -7.7 8.85 -11.75 5.35 -13.25 -0.6
L -13.95 0.05 -14.25 1.15 -13.65 32.6 -13 35.45
Q -12.4 38.3 -12.6 38.95
L -10.15 39.15 -8.2 39.35
Q -5.45 39.35 -4.1 38.1
L -5.25 31.35 -4.25 25 9.35 24.85
Q 14.35 24.85 18.3 26.95 20.65 28.2 25.2 31.55 35.3 38.25 53.5 38.25 63.1 38.25 65.8 33.9 66.8 32.3 66.8 27.95 66.8 25.3 64.55 23.55 62.9 22.3 58.6 20.65 46.3 15.9 40.7 11.55
M 60.1 35.5
Q 56.05 36.6 48.4 36.6 40.25 36.6 35 34.5 33.05 33.75 26.9 29.95 21.75 26.8 16.15 25.35 8 23.25 -5 23.25 -6.4 23.25 -6.4 37.35
L -9.75 37.5
Q -10.55 37.5 -11.5 32.25 -12.85 24.55 -12.85 10.05
L -12.55 5.5 -12.35 4.3
Q -10 9.25 -8.4 10.6 -4.7 13.75 3.75 13.75 6.3 12.5 9.5 11.25 15.95 8.75 19.85 8.75
L 22.05 8.3 25.7 7.8
Q 30.35 7.8 32.9 9.1 34.6 9.95 34.6 10.55 34.6 11.7 39.45 13.75
L 50.1 17.95
Q 65.55 24.4 65.55 30.45 65.55 34 60.1 35.5
M 40.1 12.35
L 38.2 11.25 40.1 11.4 40.1 12.35 Z"/>
</g>

<g id="Graphics_Symbol_276_0_Layer2_0_FILL">
<path fill="#000000" fill-opacity="0.25098039215686274" stroke="none" d="
M 59.35 21.05
Q 49.15 17.7 45.05 14.95 41.8 13.65 39.05 12
L 35.15 9.55
Q 31.15 7.25 25.8 7.35 20.45 7.45 12.1 10.2 3.7 12.9 0.4 12.9 -2.95 12.9 -8.1 9 -13.3 5.05 -12.75 2.9
L -13.35 3.85
Q -13.85 5.55 -13.85 11.8
L -13.2 22.35 -12.3 30.05 -11.95 31.7 -11.85 32.85
Q -11.9 34.05 -11.5 34.9 -11.15 37.15 -10.25 38.2 -9.2 39.4 -6.7 39.4 -4.2 39.4 -5.1 33.55 -6 27.7 -5.4 26.1 -4.85 24.45 -3.05 24.1
L 5.8 23.85
Q 12.8 24.05 16.45 25.75 20.1 27.45 29.4 32.65 38.7 37.85 54.8 37.85 58.65 37.85 62.1 35.6 66.25 32.9 66.25 28.5 66.25 24.25 59.35 21.05
M 59.1 34.6
Q 57.05 35.6 53.8 35.6 49.8 35.6 46 33.1
L 38.85 27.65
Q 27.95 19.65 10.3 19.65
L -3.3 20.6 -8.1 20.4 -8.35 20.15 -8.6 19.3
Q -8.6 16.95 -0.9 16.75
L 13.6 16.45 17.45 15.4
Q 21.35 14.5 28.05 14.5
L 34.65 14.95
Q 36 15.25 37.2 16.5 41.25 20.6 50.65 24.35 54.3 25.8 58.85 26.3 61.65 27.05 61.65 30.9 61.65 33.4 59.1 34.6
M -10.1 36.55
L -10 36.6 -10.1 36.6 -10.1 36.55 Z"/>
</g>

<g id="Graphics_Symbol_276_0_Layer1_0_FILL">
<path fill="#FFFFFF" fill-opacity="0.25098039215686274" stroke="none" d="
M 42.2 25.6
L 43.7 26.05 40.2 26.55
Q 38.6 27 38.6 27.6 38.6 29.8 42.1 31.45 46.15 33.35 52.75 33.35 59.15 33.35 56.75 30.45 54.45 27.65 45.65 24.1 22.7 14.85 -4.4 14.85 -6.45 14.85 -7.85 14.1
L -9.15 13.35 -9.45 14.1
Q -9.9 14.75 -11 14.65 -10.05 15.7 -8.9 15.5
L -9.35 21.4
Q -9.35 25.25 -7.7 25.25 -6.5 25.25 -5.5 24.1
L -3.55 21.55
Q -0.15 17.8 7.75 17.8 21.05 17.8 29.7 20.4 31.4 20.9 42.2 25.6 Z"/>
</g>

<g id="Graphics_Symbol_276_0_Layer0_0_FILL">
<path fill="#FFFFFF" stroke="none" d="
M 57.55 22.75
Q 53.9 20.65 52.65 22.1
L 52.8 22.2 53.25 22.1 53.25 22.8
Q 54.05 22.85 56.45 24.25
L 59.1 25.65 59.25 25.55 59.3 25.35 59.25 25.2 60.15 25.8 61.05 26 61.35 25.8
Q 60.8 24.65 57.55 22.75 Z"/>
</g>

<g id="MovieClips_Symbol_228_8_Layer1_0_FILL">
<path fill="#006699" stroke="none" d="
M 55.15 19.65
L 45.4 15.6
Q 40.7 13.75 40.7 11.4
L 36.85 11.05 35.75 10.15
Q 34.75 9.4 30 8
L 22.55 7.8
Q 19.9 9 19.75 8.35 16.95 8.6 11.1 10.55 5.2 12.4 0.05 12.7 -5.1 13 -7.45 10.4 -9.9 7.8 -12.25 4.3
L -12.35 4.3
Q -12.85 6.45 -13.25 11.9 -13.7 17.35 -12.7 27.45 -11.75 37.55 -9.75 37.5
L -6.5 37.35 -6.05 34.2
Q -5.75 32.15 -5.4 27.9 -5.05 23.65 1.8 23.7 8.65 23.75 15.55 25.55 22.45 27.3 27.7 30.55 32.95 33.75 34.7 34.5 39.65 36.6 51.35 36.95 63 37.3 64.45 34.6 65.85 31.85 65.65 30.55
L 65.35 28.6 63.25 25.65
Q 60.2 21.9 55.15 19.65 Z"/>
</g>

<g id="MovieClips_Symbol_264_8_Layer1_0_FILL">
<path fill="#000000" stroke="none" d="
M 39.25 -2.9
Q 37.65 -3.65 35.25 -2.05 32.9 -0.55 31.2 2.1 30.3 3.45 29.85 4.75 28.9 2.35 26.75 1.3 24.1 0.35 21.75 2.9
L 21.6 3.1
Q 20.95 6.2 19.85 8.75
L 20.25 9.6
Q 21.95 12.55 27.75 12.6 27.35 13.35 27.35 14.1
L 27.35 15.15
Q 27.55 16.1 28.5 16.1
L 28.9 16.05 29 15.85 29.1 15.5
Q 28.6 14.8 28.6 14.15 28.6 13.3 29.3 12.6
L 32.35 12.1 32.5 11.75 33.5 11.2 33.55 11.2 33.6 11.15 34.35 10.7 34.45 10.55 34.6 10.55 36 9.75 36.3 9.3 36.45 9.25 36.4 9.25
Q 37.95 7.8 39.6 4.9 42.35 3.65 45.95 3.65
L 49.6 3.75 49.6 3.4
Q 45.55 1.45 40.3 3.55
L 41.1 1.85
Q 41.1 -2 39.25 -2.9
M 36.5 -2.1
Q 38.25 -2.1 39.1 -0.6 39.75 0.45 39.75 1.75 39.75 2.7 38.85 4.2
L 38.1 4.55
Q 33.4 7 32.4 9.1
L 31.75 8.6 31.35 7.85 31.4 7.7 30.85 7.5 30.65 7
Q 31.75 5.5 33.05 2.25 34.75 -2.1 36.5 -2.1
M 34.8 8.7
L 34.8 8.65 34.1 9.3
Q 34.75 8.3 36.25 7
L 37.55 6 37.05 6.6 34.8 8.7
M 32.15 10.65
L 32.15 10.8 31.8 10.85 32.15 10.65
M 31 9.65
L 30.75 9.6 30.35 9.5 30.35 10 29.85 10.35 29.05 11.05 25.25 11.1
Q 23.6 11.1 22.4 9.65 21.6 8.65 21.4 7.65
L 21.9 7.45 21.85 6.65 22.35 5.65 21.6 6.05 22.25 4.9
Q 23.6 2.8 26.25 2.8 27.55 2.8 28.9 5.85
L 29.4 6.85 29.35 7.05 29.3 7
Q 29.6 7.45 29.6 8.55
L 29.55 9 30.6 9.35 30.75 9.6 30.9 9.45 31.25 9.55 31 9.65 Z"/>
</g>
</defs>

<g transform="matrix( 1, 0, 0, 1, -28.4,-10.7) ">
<g transform="matrix( 1, 0, 0, 1, 0,0) ">
<use xlink:href="#Parts_Feet_footMC_8_Layer7_0_FILL"/>
</g>

<g transform="matrix( 1, 0, 0, 1, 0,0) ">
<g transform="matrix( 1, 0, 0, 1, 0,0) ">
<use xlink:href="#Graphics_Symbol_276_0_Layer3_0_FILL"/>
</g>

<g transform="matrix( 1, 0, 0, 1, 0,0) ">
<use xlink:href="#Graphics_Symbol_276_0_Layer2_0_FILL"/>
</g>

<g transform="matrix( 1, 0, 0, 1, 0,0) ">
<use xlink:href="#Graphics_Symbol_276_0_Layer1_0_FILL"/>
</g>

<g transform="matrix( 1, 0, 0, 1, 0,0) ">
<use xlink:href="#Graphics_Symbol_276_0_Layer0_0_FILL"/>
</g>
</g>
</g>

<g transform="matrix( 1, 0, 0, 1, -28.15,-10.5) ">
<g transform="matrix( 1, 0, 0, 1, 0,0) ">
<use xlink:href="#MovieClips_Symbol_228_8_Layer1_0_FILL"/>
</g>
</g>

<g transform="matrix( 1, 0, 0, 1, -28.4,-10.7) ">
<g transform="matrix( 1, 0, 0, 1, 0,0) ">
<use xlink:href="#MovieClips_Symbol_264_8_Layer1_0_FILL"/>
</g>
</g>
</svg>
