
<svg xmlns="http://www.w3.org/2000/svg" version="1.1" xmlns:xlink="http://www.w3.org/1999/xlink" preserveAspectRatio="none" x="0px" y="0px" width="550px" height="400px" viewBox="0 0 550 400">
<defs>
<g id="Graphics_Symbol_785_0_Layer0_0_FILL">
<path fill="#000000" stroke="none" d="
M 140.95 125.35
Q 140.25 122.75 124.85 118.75
L 109.5 115.25
Q 108.1 115.65 107.95 116.6
L 108 116.95
Q 110.7 115.7 126.8 121.6 141.4 126.95 140.95 125.35
M 26.1 175.5
Q 40.3 161.9 54.1 150.35
L 87.2 123
Q 75.15 127.25 52.3 147.45 30.35 166.75 26.1 175.5
M 4.35 134.35
Q 24 128.95 65.5 120.55
L 86 116.3 86.65 114.5
Q 76.5 114.6 55.8 119 45.4 121.2 36.35 123.5
L -0.65 133.45 -1.5 133.75 -1.65 133.95 -1.65 134.95 -1.35 135.85 4.35 134.35
M 11.45 156.8
Q 29.6 145.6 35.1 142.8
L 82.4 121.55 88.25 118.75
Q 87.5 118.1 87.7 116.65
L 86.45 116.8
Q 73.75 120.2 33.3 139.75 -10.35 160.9 -9 165.9 -8.6 167.35 -7.3 167 -3.35 165.95 11.45 156.8
M 76.45 94.4
Q 75.8 92 73.05 90.95
L 67.05 90.7
Q 63.85 91.55 62 93.9 60.15 96.2 60.8 98.6 61.45 101 64.2 102.05
L 70.15 102.25
Q 73.4 101.35 75.25 99.1 77.1 96.8 76.45 94.4
M 155.65 92.25
Q 154.7 92.35 148.5 94 130.25 98.9 122.65 102.4 118.05 104.5 116.9 106.5
L 117.7 107.4
Q 118.1 107.7 118.65 107.6 122.25 106.6 126.9 104.2 131.75 101.65 134.75 100.8
L 155 95
Q 156.8 94.4 157 94
L 156.85 93
Q 156.6 92.1 155.65 92.25
M 101.7 90.9
Q 103.65 90.35 104.8 89.05 105.9 87.6 105.5 86.2 105.15 84.75 103.5 84.2
L 99.9 84.05
Q 98 84.55 96.9 85.95 95.75 87.3 96.1 88.75 96.5 90.15 98.2 90.8
L 101.7 90.9
M 165.35 109.5
Q 171.65 108.85 171 105.3 150.2 105.5 130.1 108.25
L 113.6 111.1
Q 111.1 111.8 109.7 112.5
L 109.7 112.85 109.95 113.6 147 110.7 165.35 109.5 Z"/>
</g>
</defs>

<g transform="matrix( 1, 0, 0, 1, -62.75,-76.85) ">
<g transform="matrix( 1, 0, 0, 1, 0,0) ">
<g transform="matrix( 1, 0, 0, 1, 0,0) ">
<use xlink:href="#Graphics_Symbol_785_0_Layer0_0_FILL"/>
</g>
</g>
</g>
</svg>
