
<svg xmlns="http://www.w3.org/2000/svg" version="1.1" xmlns:xlink="http://www.w3.org/1999/xlink" preserveAspectRatio="none" x="0px" y="0px" width="550px" height="400px" viewBox="0 0 550 400">
<defs>
<g id="Layer0_0_FILL">
<path fill="#000033" stroke="none" d="
M 42.65 39.3
Q 41.95 39.3 42.3 39.7 42.65 40.05 42.65 39.3
M 66.1 22.35
Q 68.45 14.9 68.45 12.95
L 68.25 12.5
Q 65.75 13.45 63.8 15.35
L 60.6 18.6
Q 56.45 22.4 47.45 22.4 44.55 20.65 38.85 18.85 27.45 15.3 8.5 15.3 1.2 15.3 -1.8 18.05 -4.6 20.65 -4.6 26.85 -4.6 35.4 -0.85 37.75 1.5 39.2 9.5 39.2
L 14.4 37.9
Q 19.8 36.6 24.2 36.6 32.1 36.6 37.05 37.95
L 42.65 39.3 46.55 39.4 54.5 38.55
Q 65.55 36.85 60.45 34.75 63.25 31.25 66.1 22.35
M 52.2 24.15
Q 56.05 24.15 60.4 21.9 65.2 19.35 66.05 16 64.85 28.35 57.6 33.5 52.4 37.15 43.65 37.15
L 36.45 35.8
Q 28.65 34.45 21.5 34.45 17.35 34.45 11.25 35.6
L 4.1 36.7
Q 0.95 36.7 -1.95 35.25 -1.25 34.4 -1.25 33.4 -1.25 21.8 2.05 19 4.65 16.8 15.45 16.8 35.55 16.8 39.5 20.5
L 42.6 23
Q 45.25 24.15 52.2 24.15 Z"/>
</g>
</defs>

<g transform="matrix( 1, 0, 0, 1, 0,0) ">
<use xlink:href="#Layer0_0_FILL"/>
</g>
</svg>
