
<svg xmlns="http://www.w3.org/2000/svg" version="1.1" xmlns:xlink="http://www.w3.org/1999/xlink" preserveAspectRatio="none" x="0px" y="0px" width="550px" height="400px" viewBox="0 0 550 400">
<defs>
<g id="Layer0_0_FILL">
<path fill="#000000" fill-opacity="0.25098039215686274" stroke="none" d="
M 65.85 20.8
Q 65.55 20.35 65.55 19.55 65.45 18 66.75 15.55
L 65.55 16.2
Q 63.9 18.85 62.15 20.25 58.9 22.85 51.6 22.85 46.3 22.85 42.85 21.75 40.2 20.05 35.75 18.4 31.25 16.7 16.15 16.25 1 15.75 -1.45 22 -3 26 -3 34.15 -3 36.4 -0.05 37.3
L 6.4 38 26.45 36 37.05 37.15 53.1 38.2
Q 59.15 38.05 60.45 34.85
L 63.8 26.9
Q 65.85 22.1 65.85 20.8
M 47.8 27.5
L 57.15 26.6
Q 60.95 25.75 62.25 24.35 61.85 24.95 61.35 26.3 60.55 28.35 59.7 29.45 56.65 33.4 48 33.4
L 34.35 32.85 34.3 31.9
Q 35.05 31.8 34.05 31.8
L 33.35 31.9 33.35 31.95 6.55 32.9
Q 3.75 32.9 2.3 31.75 0.9 30.65 0.9 28.55 0.9 25 1.9 23.3 2.7 22 3.95 22 15.25 22 28.05 24.75 40.85 27.5 47.8 27.5 Z"/>
</g>
</defs>

<g transform="matrix( 1, 0, 0, 1, 0,0) ">
<use xlink:href="#Layer0_0_FILL"/>
</g>
</svg>
