
<svg xmlns="http://www.w3.org/2000/svg" version="1.1" xmlns:xlink="http://www.w3.org/1999/xlink" preserveAspectRatio="none" x="0px" y="0px" width="550px" height="400px" viewBox="0 0 550 400">
<defs>
<g id="Layer0_0_FILL">
<path fill="#010101" stroke="none" d="
M 4.9 0.65
Q 5 0.3 4.65 0.05
L 4.4 0 4.3 0
Q 3.85 -0.05 3.55 0.15
L 2.45 0.55 1.4 0.7 0.85 0.85
Q 0.55 0.85 0.3 0.7 0.05 0.6 0 0.95 -0.05 1.3 0.1 1.4
L 1.2 2.15
Q 1.6 2.35 1.95 2.35
L 2.6 2.45
Q 3.15 2.45 3.95 2.1 4.5 1.8 4.65 1.4
L 4.8 1.05 4.9 0.65 Z"/>
</g>
</defs>

<g transform="matrix( 1, 0, 0, 1, 0,0) ">
<use xlink:href="#Layer0_0_FILL"/>
</g>
</svg>
