
<svg xmlns="http://www.w3.org/2000/svg" version="1.1" xmlns:xlink="http://www.w3.org/1999/xlink" preserveAspectRatio="none" x="0px" y="0px" width="550px" height="400px" viewBox="0 0 550 400">
<defs>
<g id="Layer0_0_FILL">
<path fill="#000000" stroke="none" d="
M 13.8 10.15
Q 14.5 9.7 14.45 9.45 14.45 8.05 14 7.8 13.5 7.55 13 7.55 12.7 7.6 12.05 7.6 11.1 7.65 9.95 7.5 7.8 7.1 6.05 6.1 4.4 5.1 3.3 3.95 2.2 2.65 1.35 1 1 0.35 0.85 1.5
L 0.8 2.1 0.65 0.8
Q 0.45 -0.2 0.25 0.05 0.1 0.3 0.1 0.5 0 0.85 0 1.6
L 0.15 3.2
Q 0.15 3.55 0.35 4.25 0.35 4.55 0.5 4.75 0.5 5 0.65 4.85 0.8 4.65 0.8 4.35
L 0.8 3.35 0.95 3.95
Q 2.2 8.15 5.9 10.55 7.85 11.7 9.85 12.05 10.2 12.1 10.65 11.7 11.1 11.3 11.45 11.3
L 12.2 11.25
Q 12.3 11.2 12.8 10.8 12.9 10.7 13.8 10.15 Z"/>
</g>
</defs>

<g transform="matrix( 1, 0, 0, 1, 0,0) ">
<use xlink:href="#Layer0_0_FILL"/>
</g>
</svg>
