
<svg xmlns="http://www.w3.org/2000/svg" version="1.1" xmlns:xlink="http://www.w3.org/1999/xlink" preserveAspectRatio="none" x="0px" y="0px" width="550px" height="400px" viewBox="0 0 550 400">
<defs>
<g id="Layer0_0_FILL">
<path fill="#000000" fill-opacity="0.14901960784313725" stroke="none" d="
M 96.05 106.65
Q 94.6 109.6 94.65 109.9
L 97.5 103.8 96.05 106.65
M 106.45 107.75
L 104.05 107.9 102.4 121.8 96.35 125.5
Q 98.2 125.5 99.55 129.5 97.4 133.65 91.35 136.85 92.55 142.1 101.6 146.1 110.6 150.05 125.25 147.15 111.35 147.9 99.15 140.5
L 106.45 107.75
M 94.85 140.55
L 95.2 140.55 95 140.8 94.85 140.55
M 77.1 124.15
Q 80.15 128.4 80.15 130
L 78.85 134
Q 77.05 137.8 74.25 137.35
L 74.15 137.65
Q 75.55 138.45 77.9 138.85 81.3 138.85 81.75 133.2 82.2 127.35 78.35 123.7
L 77.1 124.15
M 68.05 69.5
Q 57 73.15 52 77.7 43 85.95 43 101.65 43 111.7 48.05 120.7 51.55 127 59.85 136.1 50.4 123.75 48.5 115.3 46.6 106.8 46.65 99.65 46.65 92.5 49.9 87.3 55.4 78.6 71.75 68.4 68.3 69.95 68.05 69.5
M 102.55 106.5
L 102.5 108.45 103 108.75 102.55 106.5
M 90.45 70.1
Q 91.25 72.05 91.1 72.55
L 88.55 78.75
Q 86.05 84.45 88.1 90 90.15 95.5 95.45 96.75 100.7 98 102.55 106.5 105.9 105.25 98.7 86.8
L 95.7 89.6
Q 94.75 90.3 93.55 90.3 91.75 90.3 90.55 89.25 89.45 88.35 89.45 87.4 89.45 86.8 91 85.5 93.6 83.3 99.3 81.15
L 99.3 81.1
Q 98.45 80.2 97.5 77.7
L 95.85 72.5
Q 95.4 71.15 93 67.35
L 90.75 63.55
Q 90.75 63 91.75 62.4 87.3 56.15 82.1 51.8 75.95 46.65 69.75 45.1
L 63.8 43.85
Q 46.75 43.85 29.95 58.6 13.1 73.3 16.9 100.6 20.7 127.9 32.05 143.9 43.35 159.85 54.45 164.75 65.55 169.6 75.65 169.6 85 169.6 90.7 166.65 94.35 164.75 95.4 162.6
L 95.6 161.8 95 161.1
Q 93.55 162.25 90.2 165.05 86.45 167.3 80.1 167.3
L 71.45 166.6
Q 63.95 165.45 58.6 162.6 55.5 160.95 50.8 157.6
L 45.2 153.35
Q 44.3 152.5 45.75 154.8 47.15 157.1 45.7 156.55 44.25 156 39.85 149.6 35.45 143.25 32.1 137.55 28.7 131.9 24.45 118.7 20.15 105.5 20.4 90.45 20.65 75.35 34.7 61.25 48.7 47.1 68.35 48 78.3 54.4 83.9 62.95 85 63.55 83.3 64.05 79.95 65.1 76.65 65.25
L 86.7 66.35
Q 87.5 66.5 88.65 67.3 89.6 68.05 90.45 70.1 Z"/>
</g>
</defs>

<g transform="matrix( 1, 0, 0, 1, 0,0) ">
<use xlink:href="#Layer0_0_FILL"/>
</g>
</svg>
