
<svg xmlns="http://www.w3.org/2000/svg" version="1.1" xmlns:xlink="http://www.w3.org/1999/xlink" preserveAspectRatio="none" x="0px" y="0px" width="550px" height="400px" viewBox="0 0 550 400">
<defs>
<g id="Layer0_0_FILL">
<path fill="#000000" stroke="none" d="
M 86.85 109.1
L 85.3 110.55 86.05 111.35 87.1 111.7
Q 87.5 111.85 87.5 111.25 87.5 110.65 87.9 110.25
L 88.7 109.35 86.85 109.1
M 95 100.6
L 94.1 100.7 93 101.3 95.05 102.85
Q 96.35 104.05 96.35 105.4 96.35 107.15 95.6 108.3 94.25 110.3 90.85 109.65
L 91.8 110.1 93.3 110.4
Q 95.3 110.4 96.65 108.2 97.65 106.65 97.65 105.9 97.65 103.3 96.5 101.7 95.65 100.6 95 100.6
M 70.3 92.05
L 69.55 91.45
Q 72 92.05 76.6 94.5 77.15 94.35 77.45 94 76.7 91.5 73.9 90.9 71.35 90.4 71.35 90.1
L 71.2 89.45 70.3 89.55
Q 64.35 89.45 60.25 93.1 54.25 98.45 51.7 99.55
L 51.25 99.8 51.75 100.45
Q 56.65 98.65 60.05 98.9
L 66.2 99.7
Q 72.5 99.05 73.6 97.75 72.85 97.1 72.1 97.15
L 71.8 94.9
Q 71.35 92.9 70.3 92.05
M 59.9 97.6
L 60.15 96.85
Q 60.35 96.65 60.55 97.15
L 61 97.7 59.9 97.6
M 66.95 91.45
Q 68.4 91.6 69.45 92.45 70.75 93.45 70.75 94.9 70.75 96.35 69.45 97.35 68.15 98.3 66.3 98.3 64.45 98.25 63.15 97.25 61.85 96.25 61.85 94.8 61.85 94.2 62.1 93.7
L 63.35 92.75
Q 64.15 92.3 66.95 91.45
M 64.3 94.45
L 64.3 94.65
Q 64.35 95.2 64.75 95.65 65.2 96.1 65.85 96.1
L 66.95 95.65 67.3 95.1 67.4 94.5
Q 67.4 93.85 66.95 93.4 66.5 92.9 65.85 92.9 65.2 92.9 64.75 93.4 64.3 93.8 64.3 94.45
M 49.9 89.4
L 49.95 89.95 50.05 89.85
Q 50.8 89.8 53.25 88.2 57.1 86.25 64.35 84.95
L 74.35 84.35 74.65 84.15 73.7 82.95 71.7 82.55
Q 63.95 82.45 56.75 84.9 49.9 87.2 49.9 89.4
M 89.8 77.5
Q 86.3 80.7 86.3 83.2 86.3 87.35 87.95 91.4 89.55 95.4 91.05 95.4
L 91.65 95.35 91.75 95.25
Q 89.3 92.15 88.4 89.1 87.7 86.75 87.7 83.45 87.7 81.9 89.5 79.65 91.85 76.65 95.85 74.8 93.35 74.25 89.8 77.5
M 89.5 62.05
L 89.35 64.7 93.25 70.3 93.3 70.3
Q 94.65 72.65 95.6 73.35 96.6 74.05 98.25 81.8 92.9 82.15 91.15 83.6
L 90.7 84.1 90.35 84.4
Q 88.3 86.3 88.3 88
L 89.1 88.85 89.65 87.9 89.65 88.05
Q 89.65 88.55 90.4 89.6 91.45 91 92.9 91.05
L 95.35 90.4
Q 97.35 89.5 98.1 87.55
L 98.65 86.95 99.75 91
Q 99.75 92.85 101.1 97.4 102.45 101.85 102.45 103.7 102.45 110.15 100.85 112.85 99.25 115.55 97.55 115 95.8 114.4 89.9 116.95 84 119.4 82.05 120.85
L 82.15 121.5
Q 82.25 121.8 82.85 121.8
L 91.9 121.05
Q 97.35 119.65 100.55 115.1
L 100.6 114.9 100.65 114.85
Q 99.9 117.15 99.75 121.95 99.55 127.35 99.15 129.3 97.5 137.35 87.3 137.2
L 83.05 136.95 76.85 138.75 76.75 139.15 87.9 139.65
Q 94.15 139.75 97.75 136.6 102.35 132.55 102.35 123.35 102.35 118.3 103.9 111.4
L 105.45 105.15
Q 105.45 102.3 103.15 95.55 100.8 88.8 100.8 84.5 100.8 83.9 101.45 83.45
L 102.25 82.75 102.15 82.25 100.2 82.4
Q 98 78.4 94.6 70.05
L 94.65 70 94.55 69.85 94.5 69.8 94.4 69.5 94.3 69.5 89.5 62.05
M 96.15 84.25
Q 97.05 85.2 97.05 86.45 97.05 87.7 96.15 88.55 95.25 89.45 94 89.45 92.75 89.4 91.85 88.5 90.95 87.6 90.95 86.35
L 91 85.8
Q 92.65 83.6 94.85 83.65
L 95.45 83.75 96.15 84.25
M 95 84.95
Q 94.5 84.45 93.8 84.45 93.1 84.45 92.65 84.9 92.15 85.35 92.15 86 92.15 86.65 92.65 87.15 93.1 87.65 93.8 87.65 94.5 87.65 95 87.2
L 95.45 86.05
Q 95.45 85.4 95 84.95 Z"/>
</g>
</defs>

<g transform="matrix( 1, 0, 0, 1, 0,0) ">
<use xlink:href="#Layer0_0_FILL"/>
</g>
</svg>
