
<svg xmlns="http://www.w3.org/2000/svg" version="1.1" xmlns:xlink="http://www.w3.org/1999/xlink" preserveAspectRatio="none" x="0px" y="0px" width="550px" height="400px" viewBox="0 0 550 400">
<defs>
<g id="Layer0_0_FILL">
<path fill="#B18239" stroke="none" d="
M 100.95 133.75
L 100.3 134.7 103 136.25
Q 104.25 137.05 108.1 137.1 111.05 137.15 113.1 134.85 115.25 132.35 115.25 128.55 115.25 127.05 114.75 125.8 114 124.1 112.4 124.05 109.95 124.05 107.8 126.3 106.2 128.1 106.2 128.75 106.2 129.9 107.1 130.5 107.85 131.05 109 131.05
L 110.3 130.7 112.45 129.55 111.45 128.15
Q 109.9 129.9 108.9 129.85 107.85 129.85 107.45 129
L 109.8 126.95
Q 111.5 125.3 112.3 125.3 113.25 125.35 113.75 126.4 114.25 127.4 114.25 128.95 114.25 130.9 113.15 132.75 111.35 135.85 107.15 135.8
L 103.55 135.2
Q 101.8 134.65 100.95 133.75
M 112.8 109.5
Q 112.6 109.5 112.2 109.85
L 111.9 110.2 112.15 110.65 112.4 111.3 111.7 112.35 109.8 112.8
Q 107.2 112.75 107.2 110.15 107.3 108.95 107.55 107.8 108.1 105.55 109.05 105.6 112.35 105.6 114.9 108.05 117.15 110.3 117.15 112.45 117.15 114.95 113.9 116.75 110.45 118.7 105.4 118.65
L 104.15 118.2 103.3 117.75 102.75 117.95 102.5 118.1 102.55 118.7
Q 103.4 119.85 106.7 119.9 112.6 119.95 115.9 117.25 118.45 115.15 118.45 112.55 118.45 110.05 116.45 107.6 113.8 104.35 109.15 104.3 107.15 104.25 106.35 106.9 105.9 108.3 105.9 109.95 105.9 111.85 106.25 112.6 107.05 114.15 109.7 114.2 112.5 114.2 113.4 113 113.75 112.45 113.75 111.4 113.75 109.55 112.8 109.5
M 125.65 128.05
Q 129.15 128.05 131.45 131.1 133.65 134.15 133.1 137.8 132.45 141.85 128.45 144.4 123.7 147.35 115.25 147.25 112.4 147.2 101.95 143.25
L 92.05 139.2 91.4 139.25
Q 94.9 144.45 103.65 146.85 109.25 148.4 115.3 148.45 123 148.55 128.05 145.95 134 142.9 134 136.85 134 133.3 132.45 130.55 130.3 126.9 125.9 126.85 121.95 126.8 119.6 128.75 117.35 130.7 117.35 133.95 117.35 136.25 118.75 137.75 120.45 139.65 124 139.7
L 128.2 139.2
Q 130.6 138.5 130.6 137.05 130.6 136 129.7 134.35 128.5 132.2 126.95 132.2 125.5 132.2 124.35 133.15 124.4 133.7 124.55 133.7 126.1 133.65 127.45 134.35 129.2 135.25 129.45 136.9 126.5 138.75 125.25 138.75 121.8 138.7 120.3 137.65 118.6 136.45 118.6 133.35 118.6 130.55 120.05 129.3 121.7 128 125.65 128.05
M 44.5 157.85
Q 44.15 157.25 44.6 156.85
L 42.1 155.05 40.75 154.3 44.5 157.85
M 69.45 92.45
Q 68.4 91.6 66.95 91.45 64.15 92.3 63.35 92.75
L 62.1 93.7
Q 61.85 94.2 61.85 94.8 61.85 96.25 63.15 97.25 64.45 98.25 66.3 98.3 68.15 98.3 69.45 97.35 70.75 96.35 70.75 94.9 70.75 93.45 69.45 92.45
M 64.3 94.45
Q 64.3 93.8 64.75 93.4 65.2 92.9 65.85 92.9 66.5 92.9 66.95 93.4 67.4 93.85 67.4 94.5
L 67.3 95.1 66.95 95.65 65.85 96.1
Q 65.2 96.1 64.75 95.65 64.35 95.2 64.3 94.65
L 64.3 94.45
M 47.3 74.55
Q 43.75 78.75 42.15 83.75
L 42 83.8
Q 38.8 90.65 38.8 98.95 38.8 118.65 48.75 133.25 53.7 140.55 58.8 143.95
L 60.25 143.6 61.05 143
Q 59.3 142.4 55.85 138.6 52.15 134.4 48.8 128.7 39.9 113.6 39.9 99.65 39.9 91.1 43.4 83.6
L 43.65 83.55
Q 44.5 80.7 46 78.05 50.35 70.6 58.65 65.6 51.45 69.65 47.3 74.55
M 68 69.7
Q 73.8 67.55 75.25 65.75
L 74.75 64.9
Q 53.6 72.45 47.85 79.8 46.9 81.1 46.25 82.65
L 46 82.7
Q 43.15 87.95 43.15 96.3 43.15 117.95 52.4 129.9 59.55 139.2 67.95 139.3 74.15 139.4 77.35 136.7 80.4 134.1 80.4 129.5 80.4 125.95 77.6 123.9 74.55 121.6 68.8 121.55 67.25 121.5 65.75 122.6 63.85 123.95 63.85 126.25 63.85 130.45 64.7 131.85 65.85 133.6 69.6 133.65 71.7 133.65 72.7 133 73.85 132.1 73.85 130 73.85 127.8 72.7 126.8 72.05 126.2 71.45 126.2 71.1 126.2 69.85 126.8 68.15 127.55 67.2 128.55
L 67.85 128.8 70.65 127.55
Q 71.6 127.55 71.15 127.75 72.65 129.3 72.65 130.4 72.65 132.3 68.45 132.2 66.4 132.2 65.65 130.65 65.15 129.6 65.15 127.3 65.15 123.8 67.5 123.1
L 70.75 123.1
Q 73.75 123.15 75.95 124.4 79.1 126.25 79.1 130.05 79.1 133.05 77.35 135.05 74.7 138.1 68.35 138 60.5 137.9 53.4 128.65 44.4 116.8 44.4 96.45 44.4 88.2 48.3 82.3
L 48.6 82.2
Q 51.3 77.25 57.45 74.05 60 72.7 68 69.7
M 29.9 87.25
L 30 87.2
Q 30.65 81.4 33.7 73.3 39.15 59.1 46.9 55.9
L 53.05 53.1
Q 59.35 50.1 59.65 50.05
L 58.35 49.3
Q 44.2 50.8 34.9 66.5 31 73.1 29.35 80.35 28.4 84.2 28.25 87.55
L 28.2 87.55
Q 27.6 90.5 27.6 93.05 27.6 98.55 30.1 108.95 33.1 121.5 37.9 132.3 51.4 162.6 71.7 162.85 74.9 162.9 77.85 162.15 80.3 161.45 81.45 160.65
L 81.4 160.35 80.75 160.25
Q 77.05 160.55 75.85 161.15
L 72.05 161.6
Q 65.2 161.55 58.15 157.15
L 52.4 152.75
Q 50.85 152.75 47.6 147.25
L 43.05 138.8
Q 36 125.6 32.65 115.1 29 103.7 29 93.25 29 90.65 29.9 87.25
M 36.85 85.35
Q 37.55 81.5 39.25 77.75 45.85 62.7 66.4 54.25 50.45 58.95 41.3 72.2 36.25 79.4 35.15 85.7
L 35.05 85.7
Q 33.75 89.4 33.75 92.75 33.75 119.9 46.8 138 52.35 145.65 59.15 149.95 65.65 154.05 71.7 154.1 74.05 154.15 76.25 151.55 78.3 149.25 78.3 147.45 78.3 145.5 76.6 143.4 74.2 140.45 69.4 140.4 67.45 140.35 66.1 141.5 64.7 142.75 64.7 144.75 64.7 146.55 65.25 147.2 65.75 147.8 66.95 147.8 68.15 147.8 69.95 147.1 71.85 146.3 71.85 145.65 71.85 143 70.35 143
L 69.6 143.15 69.55 143.55 70.05 143.95
Q 70.55 144.5 70.55 145.1 70.55 146.1 69.95 145.9
L 67.75 146.1
Q 65.95 146.1 65.95 144.8 65.95 143.4 66.9 142.5 67.85 141.55 69.5 141.6 73.2 141.65 75.45 144.1 77.15 145.95 77.15 147.45
L 75.95 150.15
Q 74.2 152.8 71.15 152.75 55.25 152.55 44.55 133.75 34.9 116.75 34.9 96.3 34.9 90.85 36.75 85.4
L 36.85 85.35
M 65.95 45.4
L 72.95 46.95
Q 76.65 48.05 78.85 49.45 71.7 43.75 64.85 43.65 57.5 43.55 48.7 46.65 39.2 50 31.7 55.85 13.95 70 16.7 90.7
L 16.65 92.95
Q 16.65 101.3 19.6 112.8 23.05 126.65 29.25 138.1 33.85 146.55 39.3 152.7
L 36.2 147.35 36.55 148.1
Q 27.55 134.75 22.3 115.45 18.3 100.9 18.3 92.85
L 18.5 90.25 18.5 90.2
Q 18.35 87.1 18.35 81.35 18.45 79 20.85 72.25 23.4 65 24.9 65.05
L 27.25 62.45
Q 29.95 59.45 32.4 57.65 25.45 68.7 23.25 76 21.35 82.4 21.8 89.35
L 21.75 89.35
Q 21.55 90.95 21.5 92.6 21.15 101.4 25.3 115.8 29.4 130.2 33.35 135.35 38 145.4 45.6 154.45 51.2 161 56 163.65 51.65 162.35 47.95 160.4
L 47 159.9
Q 59.25 169.25 75.05 169.45 85.6 169.6 92.7 164.2 99.3 159.25 99.3 152.75 98.85 150.5 97.5 148.35 94.95 144.05 90.7 144 88.5 143.95 84.45 146.9 80.5 149.75 80.5 151.15 80.5 155.9 82.2 159.05 83.8 161.85 85.75 161.9 88.05 161.9 89.65 160.95 92.15 159.5 92.15 156.15 92.15 153.7 91.5 152.85 90.4 151.4 86.6 151.35 86.4 151.35 84.7 152.75
L 82.7 154.35 84.45 156.25
Q 85.1 156.75 86.8 156.75
L 87.75 156.6 88.2 156.45 88.35 155.4 88.1 155
Q 87.8 154.7 87.45 154.65
L 86.8 155.05
Q 86.25 155.4 85.7 155.4
L 85.05 155.3 85.1 155.15 85.05 154.45
Q 85.05 154 85.8 153.45 86.95 152.55 89.35 152.6 89.55 152.6 90.15 153.65 90.95 155.05 90.95 156.7 90.95 160.55 85.9 160.5 84.35 160.45 83.05 157.65 81.85 155 81.85 152 81.85 149.65 84.7 147.4 87.65 145.15 91 145.2 92.05 145.2 94.7 147.4 98.1 150.2 98.1 153.25 98.1 159.15 93.75 163.2 88.25 168.45 77.15 168.35 60.85 168.15 50 157.45 46.4 153.9 43.45 149.25 40.9 144.8 37.65 141.75 34.35 138.7 28.25 118.95 22.15 99.15 22.7 92.95
L 23.25 89 23.3 88.95
Q 23.4 84.35 24.65 78.95 26.6 70.4 31.4 63.25 43.5 45.15 65.95 45.4
M 95.45 83.75
L 94.85 83.65
Q 92.65 83.6 91 85.8
L 90.95 86.35
Q 90.95 87.6 91.85 88.5 92.75 89.4 94 89.45 95.25 89.45 96.15 88.55 97.05 87.7 97.05 86.45 97.05 85.2 96.15 84.25
L 95.45 83.75
M 92.15 86
Q 92.15 85.35 92.65 84.9 93.1 84.45 93.8 84.45 94.5 84.45 95 84.95 95.45 85.4 95.45 86.05
L 95 87.2
Q 94.5 87.65 93.8 87.65 93.1 87.65 92.65 87.15 92.15 86.65 92.15 86
M 83.9 54.55
L 83.65 54.5 72.7 53.05 67.65 53.2
Q 71.6 54.25 75.9 54.2 80.15 54.7 88.15 59.15
L 79.6 57.5 72 58.2 88.55 60.5 89.3 60.5 90.2 62.45 89.4 62.35 76 64.1 76.65 65.25 77.55 64.8 86.8 63.85
Q 91.1 63.65 91.75 62.8 83.95 54 80.55 50.9
L 81.3 52.1 79.6 50.85
Q 77.25 48.9 70.85 48.15
L 64.85 47.85 61.35 48.1 62 48.65 71.8 49.55
Q 81.3 50.85 83.9 54.55 Z"/>
</g>
</defs>

<g transform="matrix( 1, 0, 0, 1, 0,0) ">
<use xlink:href="#Layer0_0_FILL"/>
</g>
</svg>
