
<svg xmlns="http://www.w3.org/2000/svg" version="1.1" xmlns:xlink="http://www.w3.org/1999/xlink" preserveAspectRatio="none" x="0px" y="0px" width="550px" height="400px" viewBox="0 0 550 400">
<defs>
<g id="Layer0_0_FILL">
<path fill="#FFFFFF" stroke="none" d="
M 2.75 -29.65
L 13.75 -29.65 -17 0.35 -17 -29.4 -6.75 -29.4 -6.75 -43.1 -44.5 -43.1 -44.5 -29.4 -37.75 -29.4 -37.75 30.6 -44.5 30.6 -44.5 43.15 -9.75 43.15 -9.75 29.6 -17.5 29.6 -17.5 15.85 -3.5 5.35 12.25 27.35 12.25 30.1 5 30.1 5 43.15 44.5 43.15 44.5 29.85 38.75 29.85 10 -4.9 38 -28.9 44.5 -28.9 44.5 -43.1 2.75 -43.1 2.75 -29.65 Z"/>
</g>
</defs>

<g transform="matrix( 1, 0, 0, 1, 0,0) ">
<use xlink:href="#Layer0_0_FILL"/>
</g>
</svg>
