
<svg xmlns="http://www.w3.org/2000/svg" version="1.1" xmlns:xlink="http://www.w3.org/1999/xlink" preserveAspectRatio="none" x="0px" y="0px" width="550px" height="400px" viewBox="0 0 550 400">
<defs>
<g id="MovieClips_Symbol_228_41_Layer1_0_FILL">
<path fill="#669999" stroke="none" d="
M 45.4 15.7
Q 45.4 12.75 42.75 8.2 39.6 2.95 36 2.45
L 29.4 2.4
Q 24.8 0.85 21.3 0.3 14.55 -0.8 11.2 2.85
L 8.5 2.85
Q 5.45 -0.9 -0.95 6.35 -4.25 9.9 -6.85 14.35
L -6.75 17.25
Q -6.35 20.15 -5 20.15 -3.25 20.15 -1.3 22.9 1.15 26.35 4.75 28.15 5.5 28.5 12.15 32.95 18.1 36.75 18.8 36.75 19.35 36.75 20.15 36.1
L 20.95 35.35
Q 25.7 36.3 26.35 36.3 27.75 36.3 28.3 35.65 28.55 35.35 28.65 34.35 28.75 33.6 29.85 32.95 31.45 32.05 31.5 32 36.6 27.05 37.2 26.5 39.7 24.35 42.35 21.1 45.4 17.25 45.4 15.7 Z"/>
</g>
</defs>

<g transform="matrix( 1, 0, 0, 1, -28.15,-10.5) ">
<g transform="matrix( 1, 0, 0, 1, 0,0) ">
<use xlink:href="#MovieClips_Symbol_228_41_Layer1_0_FILL"/>
</g>
</g>
</svg>
