
<svg xmlns="http://www.w3.org/2000/svg" version="1.1" xmlns:xlink="http://www.w3.org/1999/xlink" preserveAspectRatio="none" x="0px" y="0px" width="550px" height="400px" viewBox="0 0 550 400">
<defs>
<g id="Layer0_0_FILL">
<path fill="#FFFFFF" fill-opacity="0.32941176470588235" stroke="none" d="
M 34.6 10.15
Q 35.7 10.75 37.3 10.75 38.9 10.75 40.05 10.15 41.15 9.5 41.15 8.65 41.15 7.8 40.05 7.2 38.9 6.55 37.3 6.55 35.7 6.55 34.6 7.2 33.45 7.8 33.45 8.65 33.45 9.5 34.6 10.15
M 47.05 13.55
Q 46.25 13.95 46.25 14.55 46.25 15.15 47.05 15.6
L 48.9 16
Q 50 16 50.8 15.6 51.55 15.15 51.55 14.55 51.55 13.95 50.8 13.55
L 48.9 13.1
Q 47.8 13.1 47.05 13.55
M 63.35 9.7
Q 64.35 9.15 64.35 8.35 64.35 7.55 63.35 7 62.35 6.45 60.9 6.45 59.45 6.45 58.45 7 57.45 7.55 57.45 8.35 57.45 9.15 58.45 9.7
L 60.9 10.25
Q 62.35 10.25 63.35 9.7 Z"/>
</g>
</defs>

<g transform="matrix( 1, 0, 0, 1, 0,0) ">
<use xlink:href="#Layer0_0_FILL"/>
</g>
</svg>
