
<svg xmlns="http://www.w3.org/2000/svg" version="1.1" xmlns:xlink="http://www.w3.org/1999/xlink" preserveAspectRatio="none" x="0px" y="0px" width="550px" height="400px" viewBox="0 0 550 400">
<defs>
<g id="Layer0_0_FILL">
<path fill="#FFFFFF" stroke="none" d="
M 14 2.75
Q 14.2 2.05 13.85 1.45 13.45 0.55 12.1 0.25 11.4 0.05 9.9 0 6.2 0.1 3.35 2.4 1.95 3.5 0.9 5.3 0.4 6.15 0.1 7.2
L 0 8.05
Q -0.05 8.3 0 8.9 -0.1 9.5 0.35 9.7 0.75 9.9 0.9 9.25
L 1.55 8.3 2.35 6.8
Q 3.35 5.45 4.45 4.7 5.7 3.8 7.3 3.5 9.25 3.25 11.15 3.65 12.2 3.95 13.2 3.75 13.8 3.4 14 2.75 Z"/>
</g>
</defs>

<g transform="matrix( 1, 0, 0, 1, 0,0) ">
<use xlink:href="#Layer0_0_FILL"/>
</g>
</svg>
