
<svg xmlns="http://www.w3.org/2000/svg" version="1.1" xmlns:xlink="http://www.w3.org/1999/xlink" preserveAspectRatio="none" x="0px" y="0px" width="550px" height="400px" viewBox="0 0 550 400">
<defs>
<g id="Parts_Hats_Jellyfish_jellyHat_0_Layer7_0_FILL">
<path fill="#FFFFFF" fill-opacity="0.4980392156862745" stroke="none" d="
M 40.45 71.55
L 40.25 71.05
Q 40.15 71.2 40.05 71.35 40.2 71.45 40.45 71.55
M 119.35 71.25
Q 119.65 66.4 118.85 57.8 118.35 53.05 116.5 51.1 116.2736328125 50.7083984375 116.05 50.35 115.4869140625 51.6169921875 113.95 53.25 111.05 56.25 107.75 56.25 106.05 56.25 105.25 55.05 105.145703125 54.9041015625 105.05 54.75 104.222265625 56.0130859375 102.35 57.5 98.65 60.5 95 60.5 91.5 60.05 90.85 60.05 86.6 60.05 83.35 58.75 82.0484375 58.244921875 81.25 57.65 80.084375 58.7419921875 78.85 59.5 78.2904296875 60.68125 77.45 61.95 74 67.1 68.55 67.1 64.805859375 67.1 61.35 65.5 59.43046875 69.1890625 57.1 71.8 57.0484375 71.9412109375 57 72.05 56.55 73 55.85 74.95 55.15 76.55 54.05 77.5 50.95 80.1 41.75 80.1 39.1 80.1 35.75 78.5 35.1458984375 78.2025390625 34.65 77.9 34.2388671875 79.31640625 33.5 80.9 33.83828125 80.8966796875 34.15 80.95 36 81.3 36 83.35 36 85.7 33 89.35 29 94.1 23.2 94.1 21.8171875 94.1 20.7 93.3 19.29921875 93.081640625 18.45 92.25 18.4201171875 92.584375 18.3 92.85 18.1591796875 93.328515625 17.85 93.75 17.15 94.75 16 94.75 14.60625 94.75 13.9 93.8 13.7140625 93.7505859375 13.55 93.65
L 13.75 95.35
Q 12.85 95.35 12.2 95.6
L 12.25 95.6
Q 12.3 95.55 12.3 95.8 11.95 99.3 12.85 102.55 13.5 105 14.85 107.05 15.75 108.45 16.8 109.6 19.7 112.7 23.45 114.85 29 118.25 34.1 122.2 36.15 123.75 37.75 125.95 40.85 130.2 40.95 135.55 41.05 143.95 37.2 151.4 35.9 154.1 34.8 156.8
L 35.15 157.7 36.45 158.75
Q 36.95 157.95 37.45 157.1 40.35 152.25 42.2 147.05 44.15 141.5 44.1 135.8 44.1 132.4 43.15 129.25 43.15 129 43.15 128.7 43.15 128.6 42.45 127.1 42.35 126.85 42.25 126.7 41.85 125.7 41.3 124.8 41 124.25 40.65 123.6 37.85 118.15 36.9 114.85 36.25 112.7 35.65 107.7 35.65 107.65 35.65 107.6 39 106 41.3 102.1 42.5 100.05 43.35 97.3 44.05 94.9 44.25 94.55 45.3 95.6 46.25 95.6 50 95.6 51.4 93.65 52.2 91.35 52.65 90.75 53.9 88.85 57.3 88.4 61.15 87.95 62.3 87.15 64.95 83.75 67.4 81.4 72.1 76.75 77.5 76.75 77.65 76.75 79.35 77.65 81 78.5 82.15 78.5 87.9 78.5 92.9 72.25 95.05 69.65 96.05 68.5 101.7 71.85 107.75 77.15 110.65 79.65 117.3 86.75 118.5 89.75 120.95 93 125.6 99.1 130.65 99.1 131.35 99.1 131.6 98.9 131.8 98.65 131.95 98.65 132.2 98.35 132.2 97.25 130.2 96.35 127.75 94.65 125.65 93.25 124 91.2 122.5 89.45 121.35 87.2 120.8 86.05 120.25 84.75 119.2 81.85 119.05 78.1 119 75.9 119.35 71.25 Z"/>
</g>

<g id="Parts_Hats_Jellyfish_jellyHat_0_Layer6_0_FILL">
<path fill="#FFFFFF" fill-opacity="0.3176470588235294" stroke="none" d="
M 27 94.15
Q 27.2552734375 94.3345703125 27.5 94.5 27.621875 94.5845703125 27.75 94.65 28.503125 94.584375 29.2 94.4 31.133984375 92.8349609375 32.6 91.4 33.2521484375 90.5251953125 33.9 89.4 34.304296875 88.655078125 34.55 88 33.77734375 84.6787109375 31.6 81.05 28.75 76.3 25.2 73.8 21.6 71.4 19.45 72.7 17.3 74 17.75 78.25 18.25 82.6 21.1 87.35 23.753515625 91.7724609375 27 94.15
M 34.6 58.5
Q 34.6 64.75 37.95 72 40.34453125 77.146484375 43.45 80.7 47.54375 80.345703125 52.15 78 54.77421875 76.687890625 56.45 75.45 56.6470703125 74.729296875 56.85 73.35 56.868359375 73.23359375 56.85 73.1 56.08984375 68.991796875 54 64.5 50.65 57.25 45.9 53.2 41.1 49.25 37.8 50.75 34.5 52.3 34.6 58.5
M 70.3 41.1
Q 66.35 36.55 63.05 37.5 59.75 38.45 58.9 44.35 57.95 50.2 60.05 57.45 61.648046875 63.00546875 64.25 66.9 64.793359375 66.9939453125 66.45 67.8 68.35 68.65 70.25 68.65 72.2701171875 68.65 74.75 67.4 75.044140625 67.2103515625 75.3 67 76.05 66.4 77.5 63.6 77.5755859375 63.4521484375 77.65 63.3 77.688671875 62.533203125 77.65 61.7 77.571484375 57.5677734375 76.2 52.8 74.1 45.55 70.3 41.1
M 98.35 43.65
Q 96.25 39.15 93.4 39.15 90.55 39.15 88.5 43.65 86.4 48.15 86.4 54.4 86.4 57.760546875 87 60.6
L 91.55 61.75
Q 94.315234375 61.75 98.9 60.85 99.3515625 60.4978515625 99.95 60 100.4 57.414453125 100.4 54.4 100.4 48.15 98.35 43.65 Z"/>
</g>

<g id="Parts_Hats_Jellyfish_jellyHat_0_Layer5_0_FILL">
<path fill="#FFFFFF" fill-opacity="0.3568627450980392" stroke="none" d="
M 90.8 11.4
Q 90.0658203125 10.8080078125 89.55 10.4 89.0453125 10.0134765625 88.8 9.85 88.7052734375 9.7982421875 88.6 9.75 87.1564453125 8.9486328125 86.25 8.45
L 84.65 8.6 84.55 7.75
Q 82.3966796875 7.023828125 80.4 6.4 78.532421875 5.8560546875 76.8 5.4 70.26640625 3.6765625 66.1 3.55 64.33515625 6.8025390625 66.7 11.75 70.65 19.85 78.65 24 86.3 27.85 94.75 26.05 96.7 25.75 97.85 24.5 98.8861328125 23.3369140625 99.5 22.1 100.201171875 20.6857421875 100.35 19.15 99.9875 18.9828125 99.65 18.8 99.0890625 18.4888671875 98.6 18.2 97.1994140625 17.3576171875 96.35 16.65 92.3 13.3 91.55 12.45 91.1337890625 11.962109375 90.8 11.4 Z"/>
</g>

<g id="Parts_Hats_Jellyfish_jellyHat_0_Layer3_0_FILL">
<path fill="#000000" stroke="none" d="
M 37.6 146.45
Q 37.694140625 146.4873046875 37.8 146.5 37.759375 146.3587890625 37.7 146.2 37.6568359375 146.346875 37.6 146.45
M 81.65 59.95
Q 83.1 60.95 84.65 61.8 88.3 63.7 92.45 63.5 96.7 63.45 100.15 61 102 59.8 103.4 58.05 110.2 61.25 114.65 54.8 120.25 46.55 115.2 37.35 103.45 16 80.1 5.05 57.2 -5.6 33.95 6.25 12.25 17.3 3.85 40.5 -4.7 64.1 5.65 87.9 7.2 92.65 11.3 95.75 12.840234375 96.8703125 14.5 97.25 15.250390625 97.455078125 16 97.5
L 16 97.55 18.45 97.3
Q 18.4525390625 97.2904296875 18.45 97.25 18.708203125 97.20703125 18.9 97.1 18.9650390625 97.1138671875 19 97.1 20.15 96.7 21.25 96.2 23.25 97.15 25.65 97.15 29.1 97.15 31.95 95.4 36.4 92.55 37.85 87.35 38.55 84.95 38.4 82.5 43.3 83.65 48.3 82.4 55.65 80.3 58.7 73.35 59.85 70.8 60.95 68.15 62.7 68.8 64.55 69.3 73.2 71.55 79 64.6 80.7 62.45 81.65 59.95
M 104.15 25.35
L 103.6 25.1 110.75 39.15 110 40.7
Q 112.8 42.65 113.1 45.95 113.8 54.55 105.55 55.5 106.85 54.3 107.4 52.65 107.9 51.15 107.65 49.45
L 106.95 49.4 106.65 48.45
Q 106.15 48.55 106 48.85 97.85 64.55 83.05 57.1
L 84.3 51.6 81.9 49.25
Q 80.3 52.15 79.2 55.5 73.35 73.55 57.85 61.45
L 56.3 61.85
Q 56.4 62.45 56.4 63.1 56.95 81.9 36.95 78.9
L 34.5 76.2 32.5 76.3
Q 32.6 77.1 33 77.75 34.35 79.8 33.85 82.25 30.7 98.35 18.75 90.35 18.45 90.15 18.2 90 17.15 89.25 16 88.3
L 15 88.7
Q 15.05 89.2 15.1 89.75 15.25 91.15 16.5 92.1 16.55 92.15 16.6 92.15 16.5 92.9 16.4 94.05 15.4 94.1 14.5 93.5 8 89.2 7.4 81.25
L 8.4 80.45
Q -2 57.25 10.4 34.4 24 9.4 52.4 5.4 82.55 0.9 104.15 25.35 Z"/>
</g>

<g id="Parts_Hats_Jellyfish_jellyHat_0_Layer2_0_FILL">
<path fill="#000000" fill-opacity="0.14901960784313725" stroke="none" d="
M 42.7 86.85
Q 42.3546875 86.9 42 86.9
L 41.95 86.9
Q 41.9490234375 87.087109375 41.85 87.3 42.298046875 87.089453125 42.7 86.85
M 52 1.25
Q 51.9912109375 1.7142578125 51.8 2.05 52.809765625 1.71875 54.35 1.15 53.262109375 1.2474609375 52 1.25
M 88.5 43.65
Q 90.55 39.15 93.4 39.15 96.25 39.15 98.35 43.65 100.4 48.15 100.4 54.4 100.4 57.414453125 99.95 60 100.797265625 59.2998046875 102 58.3 102.8677734375 57.721484375 103.55 57.4 107.657421875 54.7505859375 107.75 57.95 108.9056640625 57.2734375 109.65 56.5 111.25 54.75 112.65 54.05 114.4044921875 53.1501953125 114.55 54.85 117.8033203125 50.7310546875 115.05 43.9 108.4 42.7 104.25 37.4 100.6 32.8 94.8 31.65 85.45 29.6 79.9 37.4 74.2 25.25 60.85 25.9 49.45 26.85 46.8 37.75 41.05 35.65 35.4 37.75 22.5 42.55 24.45 56.35 22.1 57.1 19.95 58.2 12.5 62.05 10.1 70.35 8.5658203125 56.3763671875 14.05 43.85 14.1962890625 43.85 14.35 43.85 19.9 43.85 22.1 39.35 22.8 37.95 23.1 36.25 23.25 34.85 23.25 34.8 23.25 33.3357421875 22.95 31.85 24.7861328125 32.85 27.1 32.85 32.55 32.85 34.7 25.95 35.2017578125 24.2775390625 35.45 22.6 37.22265625 24.5 39.15 24.5 42.5 24.5 44.35 19.45 45.3 16.95 45.55 14.25 45.55 13.6865234375 45.25 11.75 45.3697265625 11.7142578125 45.5 11.65 45.5439453125 11.7015625 45.6 11.75 48 13.8 51.05 13.8 56 13.8 58.35 9.05 58.934765625 7.859765625 59.25 6.65 59.6796875 6.5572265625 60 6.35 60.05078125 6.3171875 60.1 6.25 66.2330078125 4.7978515625 72.85 4.3
L 67.75 1.9 61.55 3 66.1 -0.05 59.25 2.15
Q 58.9080078125 1.9806640625 58.35 2.2 57.907421875 2.3677734375 57.55 2.7
L 50 5.1 52 3.5
Q 47.634375 4.4595703125 43.45 5.65 42.8291015625 4.87578125 41.8 5.25 40.7724609375 5.64140625 40.75 6.5 37.6419921875 7.5076171875 34.65 8.65 33.536328125 9.08828125 32.45 9.55 31.56953125 9.0701171875 30.8 9.35 29.8 9.7 29.8 10.75 29.8 10.7912109375 29.8 10.85 16.5912109375 17.9 9.95 32.8 8.85 35.2 7.45 37.3 -1.8 51.45 2.05 67.2
L 3.4 63.35
Q 0.85 76 7.75 86.4 7.7 86.9 7.75 87.45 7.95 90.65 10.4 92.65 13 94.8 16.4 94.4
L 17.3 93.3
Q 20.3017578125 94.6185546875 23.35 94.6 23.9681640625 94 24.55 94 25.0328125 94 25.7 94.4 26.3798828125 94.3109375 27 94.15 23.753515625 91.7724609375 21.1 87.35 18.25 82.6 17.75 78.25 17.3 74 19.45 72.7 21.6 71.4 25.2 73.8 28.75 76.3 31.6 81.05 33.77734375 84.6787109375 34.55 88 34.8423828125 87.3919921875 34.95 86.85 35 86.70078125 35 86.55 35 84.4068359375 36.3 82.95 36.574609375 82.6693359375 36.9 82.4 37.0943359375 82.2431640625 37.3 82.1 39.10859375 80.8419921875 39.5 82.3 39.5 81.5337890625 40 81.15 40.1513671875 81.0318359375 40.35 80.95 40.9 80.75 42.1 80.75 42.7833984375 80.75 43.45 80.7 40.34453125 77.146484375 37.95 72 34.6 64.75 34.6 58.5 34.5 52.3 37.8 50.75 41.1 49.25 45.9 53.2 50.65 57.25 54 64.5 56.08984375 68.991796875 56.85 73.1 57.1623046875 71.40703125 57.35 70.75 58.2357421875 67.89609375 59.75 69.2
L 59.75 69.15
Q 59.75 68.6 60.1 68 60.6 67.15 61.5 67.15 61.805859375 67.15 62.9 67.65 63.55 66.9 64.15 66.9 64.1970703125 66.9 64.25 66.9 61.648046875 63.00546875 60.05 57.45 57.95 50.2 58.9 44.35 59.75 38.45 63.05 37.5 66.35 36.55 70.3 41.1 74.1 45.55 76.2 52.8 77.571484375 57.5677734375 77.65 61.7 80.4267578125 59.941796875 83.6 60.7 84.3177734375 60.155078125 84.65 60 85.4498046875 59.680078125 85.7 60.45 85.9373046875 60.4 86.15 60.4
L 87 60.6
Q 86.4 57.760546875 86.4 54.4 86.4 48.15 88.5 43.65
M 53.75 10.3
Q 53.6115234375 10.3177734375 53.45 10.3
L 53.5 10.3
Q 53.656640625 10.278515625 53.8 10.25 53.77578125 10.2771484375 53.75 10.3
M 49.05 10
Q 49.10390625 9.9765625 49.15 9.95 49.1173828125 9.98359375 49.05 10
L 49.05 10
M 29.05 23.1
Q 28.78359375 23.5142578125 28.45 23.9
L 27.55 24.95
Q 27.148828125 25.159765625 26.8 25.3 27.9138671875 24.179296875 29.05 23.1
M 26.65 29.75
Q 26.2759765625 29.75 25.9 29.65 26.027734375 29.6435546875 26.15 29.6 26.5447265625 29.72265625 26.95 29.75 26.8146484375 29.75 26.65 29.75
M 16.4 90.85
L 17.75 91.75 15.95 91.1 16.4 90.85 Z"/>

<path fill="#FFFFFF" fill-opacity="0.24705882352941178" stroke="none" d="
M 88.5 65.2
Q 88.630078125 65.4822265625 88.75 65.75 89.372265625 65.5359375 89.9 65.3 89.1951171875 65.21796875 88.4 65 88.458203125 65.110546875 88.5 65.2 Z"/>
</g>

<g id="Parts_Hats_Jellyfish_jellyHat_0_Layer0_0_FILL">
<path fill="#000000" stroke="none" d="
M 11.65 29.35
Q 11.4 32.9 14.05 35.25 14.4 35.55 14.7 35.75 15.75 36.45 16.25 35.65 16.45 35.2 16.55 34.55 17.3 27.95 11.8 26.6
L 11.65 29.35
M 23.85 14.35
Q 22.4 15.95 22.15 17.9 20.95 25.95 28.4 25.85
L 28.8 25.4 29 24.35
Q 27.55 19.15 24.65 14.35
L 23.85 14.35
M 40.8 18.55
Q 40.8 17.7 40.8 16.8 40.7 12.75 39.4 8.95
L 39.25 6.5
Q 36.7 6.85 35.85 9.45 33 17.85 40.8 18.55
M 52.2 11.3
L 53.5 11
Q 54.7 6.55 50.5 3.1 50.1 3.35 49.85 3.7 46.85 9.05 52.2 11.3 Z"/>
</g>

<g id="MovieClips_PR2_Graphics_1_Apr_2014_fla_Symbol_667_14_Layer0_0_FILL">
<path fill="#FF9999" fill-opacity="0.9176470588235294" stroke="none" d="
M 29.15 -16.25
Q 33.1 -14.25 37.65 -14.45 42.25 -14.5 46 -17.15 48 -18.45 49.55 -20.35 56.95 -16.85 61.75 -23.9 67.85 -32.85 62.35 -42.85 49.6 -66.05 24.2 -77.95 -0.65 -89.45 -25.9 -76.65 -49.45 -64.6 -58.6 -39.4 -67.85 -13.8 -56.7 12.05 -55 17.25 -50.5 20.6 -48.8 21.8 -47 22.3 -46.25 22.45 -45.4 22.5
L -45.4 22.6 -42.75 22.35
Q -42.75 22.3 -42.75 22.25 -42.5 22.2 -42.2 22.15 -42.2 22.1 -42.15 22.1 -40.9 21.65 -39.7 21.1 -37.55 22.15 -34.95 22.15 -31.2 22.15 -28.1 20.25 -23.25 17.2 -21.65 11.45 -20.9 8.85 -21.05 6.25 -15.8 7.45 -10.35 6.15 -2.35 3.85 1 -3.75 2.2 -6.45 3.4 -9.4 5.3 -8.7 7.3 -8.15 16.75 -5.65 23 -13.25 24.85 -15.55 25.9 -18.25 27.45 -17.2 29.15 -16.25 Z"/>
</g>

<g id="MovieClips_PR2_Graphics_1_Apr_2014_fla_Symbol_684_14_Layer1_0_FILL">
<path fill="#FFFFFF" stroke="none" d="
M -35.7 -2.75
Q -39.65 -5.4 -42 -3.95 -44.4 -2.55 -43.9 2.15 -43.35 6.9 -40.2 12.15 -37.3 17 -33.65 19.65 -33.45 19.85 -33.15 20 -33.05 20.1 -32.9 20.25 -32.05 20.1 -31.25 19.9 -29.15 18.2 -27.55 16.6 -26.85 15.65 -26.15 14.4 -25.7 13.6 -25.35 12.9 -26.25 9.25 -28.65 5.2 -31.8 0 -35.7 -2.75
M -25.35 -19.6
Q -25.35 -12.7 -21.7 -4.75 -19.05 0.95 -15.55 4.85 -11.1 4.45 -6.05 1.85 -3.2 0.45 -1.35 -0.95 -1.1 -1.7 -0.9 -3.25 -0.9 -3.35 -0.85 -3.5 -1.7 -8.05 -4.05 -13 -7.7 -20.95 -12.95 -25.4 -18.2 -29.75 -21.85 -28.1 -25.45 -26.4 -25.35 -19.6
M 5.9 -42.7
Q 2.3 -41.65 1.35 -35.15 0.3 -28.7 2.6 -20.75 4.4 -14.65 7.25 -10.35 7.85 -10.25 9.65 -9.35 11.75 -8.45 13.85 -8.45 16.05 -8.45 18.8 -9.8 19.1 -10 19.4 -10.25 20.2 -10.9 21.8 -14 21.9 -14.15 22 -14.25 22.05 -15.15 22.05 -16 21.85 -20.65 20.4 -25.85 18.05 -33.85 13.9 -38.75 9.55 -43.75 5.9 -42.7
M 39.3 -40.9
Q 36.15 -40.9 33.9 -35.95 31.6 -31 31.6 -24.1 31.6 -20.4 32.25 -17.25
L 37.25 -16
Q 40.3 -16 45.4 -17 45.85 -17.4 46.5 -17.95 47 -20.8 47 -24.1 47 -31 44.75 -35.95 42.45 -40.9 39.3 -40.9 Z"/>
</g>
</defs>

<g transform="matrix( 1, 0, 0, 1, 0,0) ">
<g transform="matrix( 1.0968017578125, 0, 0, 1.0963287353515625, -63.2,-83.6) ">
<g transform="matrix( 1, 0, 0, 1, 0,0) ">
<use xlink:href="#Parts_Hats_Jellyfish_jellyHat_0_Layer7_0_FILL"/>
</g>

<g transform="matrix( 1, 0, 0, 1, 0,0) ">
<use xlink:href="#Parts_Hats_Jellyfish_jellyHat_0_Layer6_0_FILL"/>
</g>

<g transform="matrix( 1, 0, 0, 1, 0,0) ">
<use xlink:href="#Parts_Hats_Jellyfish_jellyHat_0_Layer5_0_FILL"/>
</g>

<g transform="matrix( 1, 0, 0, 1, 0,0) ">
<use xlink:href="#Parts_Hats_Jellyfish_jellyHat_0_Layer3_0_FILL"/>
</g>

<g transform="matrix( 1, 0, 0, 1, 0,0) ">
<use xlink:href="#Parts_Hats_Jellyfish_jellyHat_0_Layer2_0_FILL"/>
</g>

<g transform="matrix( 1, 0, 0, 1, 0,0) ">
<use xlink:href="#Parts_Hats_Jellyfish_jellyHat_0_Layer0_0_FILL"/>
</g>
</g>
</g>

<g transform="matrix( 1, 0, 0, 1, 0,0) ">
<g transform="matrix( 1, 0, 0, 1, 0,0) ">
<use xlink:href="#MovieClips_PR2_Graphics_1_Apr_2014_fla_Symbol_667_14_Layer0_0_FILL"/>
</g>
</g>

<g transform="matrix( 1, 0, 0, 1, 0,0) ">
<g transform="matrix( 1, 0, 0, 1, 0,0) ">
<use xlink:href="#MovieClips_PR2_Graphics_1_Apr_2014_fla_Symbol_684_14_Layer1_0_FILL"/>
</g>
</g>
</svg>
