
<svg xmlns="http://www.w3.org/2000/svg" version="1.1" xmlns:xlink="http://www.w3.org/1999/xlink" preserveAspectRatio="none" x="0px" y="0px" width="550px" height="400px" viewBox="0 0 550 400">
<defs>
<g id="MovieClips_PR2_Graphics_1_Apr_2014_fla_Symbol_667_14_Layer0_0_FILL">
<path fill="#FF9999" fill-opacity="0.9176470588235294" stroke="none" d="
M 29.15 -16.25
Q 33.1 -14.25 37.65 -14.45 42.25 -14.5 46 -17.15 48 -18.45 49.55 -20.35 56.95 -16.85 61.75 -23.9 67.85 -32.85 62.35 -42.85 49.6 -66.05 24.2 -77.95 -0.65 -89.45 -25.9 -76.65 -49.45 -64.6 -58.6 -39.4 -67.85 -13.8 -56.7 12.05 -55 17.25 -50.5 20.6 -48.8 21.8 -47 22.3 -46.25 22.45 -45.4 22.5
L -45.4 22.6 -42.75 22.35
Q -42.75 22.3 -42.75 22.25 -42.5 22.2 -42.2 22.15 -42.2 22.1 -42.15 22.1 -40.9 21.65 -39.7 21.1 -37.55 22.15 -34.95 22.15 -31.2 22.15 -28.1 20.25 -23.25 17.2 -21.65 11.45 -20.9 8.85 -21.05 6.25 -15.8 7.45 -10.35 6.15 -2.35 3.85 1 -3.75 2.2 -6.45 3.4 -9.4 5.3 -8.7 7.3 -8.15 16.75 -5.65 23 -13.25 24.85 -15.55 25.9 -18.25 27.45 -17.2 29.15 -16.25 Z"/>
</g>
</defs>

<g transform="matrix( 1, 0, 0, 1, 0,0) ">
<g transform="matrix( 1, 0, 0, 1, 0,0) ">
<use xlink:href="#MovieClips_PR2_Graphics_1_Apr_2014_fla_Symbol_667_14_Layer0_0_FILL"/>
</g>
</g>
</svg>
