
<svg xmlns="http://www.w3.org/2000/svg" version="1.1" xmlns:xlink="http://www.w3.org/1999/xlink" preserveAspectRatio="none" x="0px" y="0px" width="550px" height="400px" viewBox="0 0 550 400">
<defs>
<g id="MovieClips_Symbol_264_44_Layer1_0_FILL">
<path fill="#FFFF00" stroke="none" d="
M 16.95 38.45
L 16.25 38.35 16.25 38.45 16.95 38.45
M 16.35 6.4
L 4.15 6.15
Q 1.6 8 -3.25 10.3 -6.3 11.7 -8.15 12.35
L -7.8 12.25
Q -5.1 11.9 -3.15 11.8 -1.25 11.65 -1.2 11.95 -1.2 12.05 -1.35 12.25
L -1.05 12.25 -1.15 12.3
Q -0.75 12.9 -0.95 14.5 -1.05 16.05 -1.65 18.15 -2.2 19.95 -3 21.4 0.2 18.2 6.7 13.2 12.45 8.85 16.35 6.4
M 15.55 23.35
Q 10.3 23.85 5.85 24 -3.35 24.45 -7.5 23.75 -7.05 26.2 -6.85 28.15
L -6.6 30.1
Q -2.55 29.75 7.05 29.8
L 15.7 29.9
Q 15.4 28.7 15.3 26.65 15.3 24.55 15.55 23.35
M 37.25 19.45
L 37.35 19.75 37.35 19.45 37.25 19.45
M 27.8 15.75
Q 27.6 16.1 27.45 16.15
L 27.8 16.15 27.8 15.75
M 25.15 23.1
Q 25 20.05 25.35 19
L 25.35 18.75
Q 21.7 18.75 16.25 18.6
L 16.25 18.95
Q 16.8 19.85 16.55 23.25
L 16.35 23.25
Q 16.7 24.45 16.7 26.65 16.8 29.5 16.35 30.45
L 16.6 30.6 16.6 30.65
Q 16.45 30.85 16.3 31.15 16.4 33.9 16.25 35.5 21.4 35.3 24.8 35.15 24.65 33.25 24.9 29.85 24.55 28.75 24.6 26.65 24.65 24.15 25.15 23.1
M 26.35 11.2
Q 26.35 8.55 26.75 7.15
L 25.35 6.55 18.6 6.45
Q 17.2 7.9 14.4 10.3 14.9 11.3 14.9 13.15 14.9 14.4 14.7 15.35 14.4 16.3 14.1 16.5 19.65 16.25 27.35 16.15 26.9 16 26.6 14.6 26.35 13.2 26.35 11.2
M 23.35 2.6
Q 22.6 2.1 21.45 1.75
L 21.25 1.75
Q 20.35 1.5 19.2 1.35
L 19.15 1.4 19.25 1.75
Q 19.5 2.5 19.2 2.6 19 2.6 18.85 2.55 18.6 2.75 17.75 2.1 17.2 2.4 17.15 2.35
L 17.45 2.1 17.15 2
Q 16.3 1.75 14.95 2.1
L 14.65 2.1
Q 13.65 2.35 12.85 2.85 12.35 3.2 11.85 3.8
L 12.55 3.75 12.45 3.8 25.2 4
Q 25 3.9 24.65 3.6 23.85 2.85 23.35 2.6
M 50.7 23.1
Q 49.7 23.55 45.55 23.85 41.4 24 35.7 23.85 29.85 23.85 26 23.55 26.35 24.8 26.3 26.65 26.25 28.4 25.95 29.5 33.2 29.5 34.4 29.5 42.95 29.5 47.7 29.95
L 50.45 29.95 50.45 28.75
Q 50.5 25.55 50.7 23.1
M 40.55 12.25
Q 40.65 11.85 41.85 11.95 43.05 12.1 44.7 12.6 46.3 13 47.35 13.65 46.75 12.9 46.2 11.75 45.05 9.35 44.35 8.1
L 44.3 8.1
Q 43.7 7.05 43.1 6.5 36.35 6.6 29.35 6.55
L 31.1 7.15
Q 33.25 7.9 34.6 9.25 35.85 10.7 36.4 13 37.2 15.7 37.45 17.95 37.7 16.8 38.2 15.6 38.85 14.1 39.5 13.05 40.2 12.1 40.55 12.25
M 46.15 -19.1
Q 44.95 -19.1 43.5 -18.75
L 48.5 -18.75
Q 47.4 -19.15 46.15 -19.1
M 39.95 -10.2
Q 38.1 -9.55 36 -8.55 34.5 -7.85 32.75 -6.9 29.7 -5 26.95 -3.35
L 21.45 0.05 21.7 0.05 21.95 0.15
Q 23.3 0.55 24.25 1.35 25.2 2.15 25.4 3.1 25.65 3.85 25.35 4
L 25.9 4
Q 26.4 3.45 28.1 2.1 31.6 -0.75 35.65 -2.95 37.55 -3.95 39.65 -4.85 42.5 -6.05 44.7 -6.15 46.65 -6.4 47.7 -5.7
L 48 -7.65
Q 47.7 -8.85 47.1 -9.6
L 46.2 -10.25
Q 44.9 -10.85 43.4 -10.8 41.85 -10.8 39.95 -10.2
M 39.85 -3.1
Q 40.25 -2.4 39.75 -1.05 39.3 0.15 38.35 1.35
L 38 1.75
Q 37.15 2.5 36.7 2.85
L 35.9 4.25 39.4 4.35
Q 41 3.95 42.5 4.4
L 42.85 4.25
Q 42.9 3.75 43.75 2.45 45.7 -0.5 46.35 -1.8
L 46.45 -2
Q 47.25 -3.55 47.6 -5.25
L 47.15 -5.25
Q 46.2 -5.35 44.85 -5 43.2 -4.65 40.35 -3.35
L 39.85 -3.1
M 0.9 -0.7
Q 0.2 -1.55 0.2 -2 -2.05 -3.15 -3.65 -3.5 -5.15 -3.9 -6.9 -3.9 -8.55 -3.9 -8.6 -3.9 -7.85 -2.75 -7.2 -1.75
L -6.9 -1.35
Q -5.75 0.25 -3.7 2.8
L -2.95 3.95
Q 1.15 3.8 6.1 3.8 4.75 3.1 3.1 1.55
L 2.65 1.15
Q 1.6 0.2 0.9 -0.7
M 2.1 -3.35
L 2.3 -3.2
Q 4.85 -1.7 7 0.3 9.75 2.75 10.15 3.8
L 10.5 3.8
Q 10.35 2.6 11.5 1.35 12.6 0.25 14.1 -0.15
L 14.35 -0.15 12.35 -1.65
Q 7.75 -4.95 4.8 -6.55
L 4.35 -6.9
Q 2.1 -8.15 0.3 -8.75 -1.85 -9.55 -3.45 -9.8
L -4.4 -9.9
Q -5.75 -9.9 -6.85 -9.5 -7.8 -9.15 -8.8 -8.45 -9.6 -7.45 -9.55 -6 -9.35 -5.35 -9.1 -4.75
L -8.7 -4.05
Q -8.55 -4.55 -7.25 -5 -5.5 -5.7 -3.3 -5.4 -0.65 -4.95 2.1 -3.35 Z"/>
</g>
</defs>

<g transform="matrix( 1, 0, 0, 1, -28.4,-10.7) ">
<g transform="matrix( 1, 0, 0, 1, 0,0) ">
<use xlink:href="#MovieClips_Symbol_264_44_Layer1_0_FILL"/>
</g>
</g>
</svg>
