
<svg xmlns="http://www.w3.org/2000/svg" version="1.1" xmlns:xlink="http://www.w3.org/1999/xlink" preserveAspectRatio="none" x="0px" y="0px" width="550px" height="400px" viewBox="0 0 550 400">
<defs>
<g id="Layer0_0_FILL">
<path fill="#000000" fill-opacity="0.30196078431372547" stroke="none" d="
M 7.1 117.45
L 7 117.55
Q -0.45 116 -6.4 113.95 -17.8 110 -19.7 104.45
L -20.15 104.55
Q -20.35 104.65 -20.35 105.25 -20.35 110.45 -15.95 115.55 -10.3 122.1 -0.9 122.1 0.8 122.1 3.7 121 7.2 119.65 7.2 118.1
L 7.1 117.45
M 60 41.85
Q 54 41.35 51.25 45.4 49.85 47.45 49.65 49.85
L 49.7 51.05 52.35 51.15 65.5 49.65
Q 67.05 49.65 72.55 51
L 78.55 52.3
Q 79.45 52.3 80.25 50.95 81.3 49.25 81.3 46.55 81.3 43.75 80.85 43 80.35 42.2 78.35 42.15 70.3 42.75 60 41.85
M 49.1 41.5
Q 45.2 43.25 41.35 43.25 34.8 43.25 32.5 39.85 29.6 35.7 29.05 22.45
L 27.9 23.3
Q 26.35 26.1 24.75 29.95 23.15 33.8 23.15 34.75 23.15 39.6 25.05 44.05
L 18.2 42.05
Q 14.15 41 10.3 41 10.45 32.4 10.25 29.6 10 25.3 5.55 24.2
L 3.95 28.15
Q 4.25 28.25 3.4 31.75
L 2 38.5
Q 1.25 42.55 1.25 43.3 1.25 44.8 2 45.55 2.95 46.55 6.3 47.9
L 4.75 49
Q 3.5 50.25 3.5 52.3
L 3.1 82.95
Q 3.1 97.15 4.15 103.1 4.05 102.9 3.65 103.1 3.2 103.35 3.2 104 3.2 113.6 11.85 121.6 22.15 131.1 38.9 131.1 54.9 131.1 61.45 127.6 65.2 125.6 65.2 123.05
L 64.9 120.85 65.7 121.2
Q 67.85 122 69.25 122 70.25 122 71 121.3 72.1 120.3 72.1 118.1
L 72.05 116.8 70 105.6
Q 67.95 95.6 65.4 88.45 63.5 83.05 63.5 82.25
L 64.55 80.1
Q 65.55 78.05 65.55 77.45 65.75 74.85 64.05 73.45 67.5 71.75 67.5 66.7 67.5 65.8 67 64.55
L 66.05 62.2 67.25 61.65
Q 67.65 61.3 67.65 60.65 67.65 58.8 66.8 56.1 65.85 53.2 65.8 51.95
L 65.25 52.9
Q 63.7 51.95 62 51.95 60.85 51.95 59.45 55 58.1 58.05 58.1 60.65 58.1 64.8 60.5 67.45 58.6 69.65 57.8 71.2 56.7 73.4 56.7 76.15 56.7 76.9 57.75 79.2
L 58.8 82.2 56.95 90.55
Q 56.95 92.5 60.75 99.55 64.55 106.65 64.55 112.15 64.55 112.85 63.5 114.6 62.4 116.4 62.4 117.35 62.4 118.5 63.1 119.5
L 62.6 119.75 40.8 117.2
Q 19.5 113.9 16.3 109.65 10.95 102.6 10.6 88.25
L 11.8 49.7
Q 11.15 50.5 10.85 49.85 11.3 49.9 11.15 49.4
L 19.35 50.25
Q 25.25 50.25 26.65 49.4 27.05 49.15 27.5 47.3
L 33.9 51.65
Q 35.95 53.1 38.8 53.1 42.35 53.1 46.6 48.35 52.65 41.55 55.55 39.6 55.4 39.05 54.85 38.75
L 54.25 38.85 49.1 41.5
M 25.8 128.85
L 36.65 129.25
Q 43.45 129.4 47.45 129.2
L 37.15 130.7 25.8 128.85
M 67.8 24.5
Q 67.15 23.2 65.35 21.15 68.95 20.55 66.7 16.4 64.55 12.4 61.9 11.75
L 62.05 10.45
Q 57.75 13.05 56.5 15.1 56.05 15.9 56.05 17.25 56.05 22.05 59.75 24.4 61.65 25.6 63.65 25.8 64.95 25.8 67.8 24.5 Z"/>
</g>
</defs>

<g transform="matrix( 1, 0, 0, 1, 0,0) ">
<use xlink:href="#Layer0_0_FILL"/>
</g>
</svg>
