
<svg xmlns="http://www.w3.org/2000/svg" version="1.1" xmlns:xlink="http://www.w3.org/1999/xlink" preserveAspectRatio="none" x="0px" y="0px" width="550px" height="400px" viewBox="0 0 550 400">
<defs>
<g id="Parts_Heads_headColorMC_27_Layer1_0_FILL">
<path fill="#7E6D62" stroke="none" d="
M 94.5 73.5
Q 94.65 73.2 95.1 73.2 96.2 73.1 95.85 71.25 95.7 67.5 88.4 62.95 82.65 59.35 66.25 51.7
L 55.4 49.6
Q 49.55 50 43.25 53.05 36.75 56.25 31.55 61.45 19.3 73.85 20.35 90.65 20.9 99.8 27.45 103.8
L 31.95 106.15
Q 34 107.45 34.1 108.95
L 33.9 109.45
Q 33.6 109.6 33.65 109.95 37.4 114.1 41.3 119.4 49.05 129.95 49.4 136.15
L 49.15 138.8
Q 48.75 141.65 48.85 143 49.05 145.95 53.5 148.15 56.95 149.8 58.2 149.75 67.6 149.15 78.7 145.25
L 81.75 144 81.9 144.3 81.9 144.35 82.6 144.4
Q 87.25 144.15 88.8 141.1
L 88.65 140.7
Q 91.65 138.9 92.85 137.05
L 104.35 120.25
Q 107.7 115.05 107.6 112.3 106.65 109.1 106.1 109.15 105.65 109.2 105.15 108.2
L 104.5 106.8
Q 104.1 107 104.05 106.3 104.05 105.9 105.9 103.2
L 108.2 99.85 107.8 98.95 107.55 98.1 107.15 97.2
Q 107.15 96.7 107.35 96.6 107.6 96.35 108.4 96.15
L 110.65 95.45 111.6 94.5
Q 112.25 94.05 112.2 93.25 112.2 92.8 94.5 74.4
L 94.5 73.5 Z"/>
</g>
</defs>

<g transform="matrix( 1, 0, 0, 1, -62.75,-76.85) ">
<g transform="matrix( 1, 0, 0, 1, 0,0) ">
<use xlink:href="#Parts_Heads_headColorMC_27_Layer1_0_FILL"/>
</g>
</g>
</svg>
