
<svg xmlns="http://www.w3.org/2000/svg" version="1.1" xmlns:xlink="http://www.w3.org/1999/xlink" preserveAspectRatio="none" x="0px" y="0px" width="550px" height="400px" viewBox="0 0 550 400">
<defs>
<g id="Layer0_0_FILL">
<path fill="#010101" stroke="none" d="
M 5.2 1.65
Q 5.35 1.4 5.45 0.85 5.45 0.1 4.85 0 4.7 0 4.4 0.2
L 4.25 0.25 3.9 0.5 3.8 0.6 3.75 0.6 3.75 0.65 2.85 1 2.75 1.05 2.6 1.05
Q 1.35 1.4 0.45 0.4 0.25 0.15 0.1 0.45 -0.05 0.7 0.05 0.95 0.35 1.65 1.05 2.3 1.65 2.9 2.65 3 3.5 3.15 4.2 2.7 4.7 2.5 5 2.05 5.1 1.95 5.1 1.85
L 5.2 1.65 Z"/>
</g>
</defs>

<g transform="matrix( 1, 0, 0, 1, 0,0) ">
<use xlink:href="#Layer0_0_FILL"/>
</g>
</svg>
