
<svg xmlns="http://www.w3.org/2000/svg" version="1.1" xmlns:xlink="http://www.w3.org/1999/xlink" preserveAspectRatio="none" x="0px" y="0px" width="550px" height="400px" viewBox="0 0 550 400">
<defs>
<g id="Layer0_0_FILL">
<path fill="#000000" stroke="none" d="
M 52.6 7.7
Q 50.35 5.95 47.35 4.2 41.35 0.7 37.35 0.7 20.2 0.7 12.5 26.9 7.3 44.6 7.3 68.85 7.3 71.4 8.4 74.05 9.45 76.7 9.45 78.15
L 8.75 110.85 8 105.4
Q 8.25 111.2 7.95 113.65 7.95 116.85 9 131.25
L 9.85 130.75 11.35 136
Q 11.05 136.3 9.9 139.2 8.55 142.45 7.2 144.6 2.4 152 -6.3 152 -10.8 152 -13 150.25 -15.45 148.3 -15.45 143.85 -15.45 136.1 -13.45 129.5 -12.25 125.5 -9.1 118.95 -5.9 112.3 -4.75 108.55 -2.75 102.15 -2.75 94.65 -2.75 88.5 -6.55 84.9 -10.85 80.85 -19.35 80.85 -26.85 80.85 -31.55 83.85 -36.75 87.2 -36.75 93.35 -36.75 95.85 -33.3 97.1 -31.15 97.9 -25.75 98.6 -20.1 99.3 -18.2 99.9 -14.75 101 -14.75 103.15 -14.75 105.65 -16.6 109.25
L -20.75 116.75
Q -26.75 128.45 -26.75 143.3 -26.75 151.05 -24.35 156.1 -20.3 164.75 -10 164.75 -1.55 164.75 6.5 161.05 14.9 157.2 18.45 151.25 20.9 155.2 24.4 156.7 26.9 157.75 30.7 157.75 44.35 157.75 52.15 150.6 60.75 142.7 60.75 127.35
L 59.75 103.6
Q 60.4 88.3 60.25 86.1
L 60.05 80.65
Q 59.85 77.6 59 77 59.05 76.35 59.2 76.15
L 59.55 76.05 62.15 76.1
Q 61.95 71.85 61.45 69 63.3 69.25 64 68.3 64.45 67.8 64.45 67
L 62.8 56.25 67.35 56.65
Q 68.45 56.4 68.45 54.15 68.45 50.2 66.3 46.5
L 62.15 39 62.65 39.2 67.1 40.25
Q 69.1 40.25 69.55 39.7
L 69.75 38.45
Q 69.75 36.8 68.6 33.85
L 64.5 24.3
Q 56.35 7.7 52.6 7.7
M 48.4 8.05
L 54.25 12.15 54.3 11.75
Q 54.53828125 11.178125 54.15 11.15 57.4298828125 11.2728515625 62.25 23.05 64.75 29.2 67.45 37.5
L 65.35 37.5 63.85 36.1 60.8 35.75
Q 59.9 35.75 59.5 36.75
L 66.75 54 61 53.5 60.8 55.1
Q 60.7 56.2 61.55 60.85
L 62.45 66
Q 59.6 66.75 59.6 69.75 59.6 71.3 60.15 73
L 58.8 73.2 58.75 71.65
Q 57.95 74 57.15 75.25
L 57.05 87.15
Q 56.9 98.3 57.25 118.25 57.3 121.7 57.8 124.85
L 58.25 127.85
Q 58.25 134.45 55.15 141.15 52.4 147.05 49.8 148.4 45 151.85 41.7 153.1 36.7 155 29.1 155 25.55 155 22.7 151.55
L 19.4 146.6 17.55 147.1
Q 16.35 147.35 16.35 147.95 16.35 151.25 5.85 157.65
L 5.15 154.7
Q 4.4 152.3 3.75 151.3 7.1 148.05 10.55 143.6 14.5 138.5 14.5 136.7 14.5 131.8 12.65 126.8 10.75 121.85 10.75 120.05 11.45 95.55 11.7 91.4 19.25 86.85 19.25 84.2 19.25 83 18.95 82.5 18.5 81.85 16.95 81.2 16.35 80.95 15.05 76.25 13.75 71.7 13.75 70.3 13.75 70.15 14.5 68.75
L 15.25 67.3 15 66
Q 12.8 66.6 11.25 68.3
L 10.5 51.4
Q 10.5 49.2 11.25 47.35 12 45.45 12 44.75 11 41.35 11 40.3 11 36.2 12.65 32.15
L 18.05 20.8 18.35 21.5
Q 18.4 21.75 19 21.75 20.75 21.75 22.15 19.15 23.25 17.1 23.25 16.1
L 22.8 14.95
Q 22.35 14.25 22.35 13.75 22.35 12.95 23.85 11.15 25.4 9.25 26.1 9.25 26.3 9.25 26.7 9.55 27.5 9.65 29.75 8.45 32.75 6.7 32.75 5.65
L 32.65 4 38.15 3.7
Q 42.3 3.7 48.4 8.05
M 0.6 153.2
Q 0.6 155.3 1.75 159.7 1.75 160.75 -4 161.45
L -10.05 162
Q -13.1 162 -15.65 161.2 -19.7 159.9 -21.1 156.85 -15.85 152.85 -14.35 152.85
L -11.4 153.8
Q -8.45 154.75 -6.25 154.75
L 0.6 153.2
M -24.4 85.35
L -21.2 84.05 -18.55 83.8 -15.05 83
Q -10.75 83 -8.2 86.3 -5.65 89.55 -5.25 95.4
L -6.25 95.25
Q -7.9 95.8 -10.75 97.3 -13.05 98.5 -13.8 98.5
L -14.95 97.6
Q -15.95 96.45 -17 95.85
L -19.75 95.95 -21.25 95.7 -33.1 95.1
Q -34.25 94.7 -34.25 93.25 -34.25 89.9 -30.2 87.5
L -26 85.75 -24.4 85.35
M -15.35 110.65
Q -13.8 106.05 -11.5 104.35
L -5.9 103.1
Q -6.9 108 -8.3 111.45
L -12 119.2
Q -12.85 118.65 -14.75 118.4
L -17.2 118.3 -18.2 117.65
Q -17.3 116.3 -15.35 110.65
M -24.25 143.6
Q -22.2 127.35 -21.4 124.7 -20.05 125.45 -18.15 125.8
L -15.05 126.2
Q -17.2 131.75 -17.65 138.95
L -17.7 148.05 -20.9 147.85 -24 148.15 -24.25 143.6
M 32.75 117.5
Q 32.75 114.35 30.4 113.2 28.2 112.1 25.25 113.25 22.15 114.45 20.1 117.5 17.75 121 17.75 125.8 17.75 128 18.9 129.4 20.05 130.75 21.7 130.75 26.35 130.75 29.7 126.15 32.75 122 32.75 117.5
M 18.4 42.35
Q 16.25 42.35 13.95 44.25 11.25 46.55 11.25 49.9
L 11.3 52 12.65 52.25 17 50.1
Q 17.45 50.45 17.45 54.05 17.45 55.35 18.9 56.1 20.15 56.75 21.55 56.75 24.4 56.75 25.55 55 26.25 54 26.25 52.75 26.25 51.2 24.2 47.35 21.6 42.35 18.4 42.35 Z"/>
</g>
</defs>

<g transform="matrix( 1, 0, 0, 1, 0,0) ">
<use xlink:href="#Layer0_0_FILL"/>
</g>
</svg>
