
<svg xmlns="http://www.w3.org/2000/svg" version="1.1" xmlns:xlink="http://www.w3.org/1999/xlink" preserveAspectRatio="none" x="0px" y="0px" width="550px" height="400px" viewBox="0 0 550 400">
<defs>
<g id="Layer0_0_FILL">
<path fill="#000000" fill-opacity="0.25098039215686274" stroke="none" d="
M 61.5 78.1
L 61.65 78.6 61.7 78.15 61.5 78.1
M 64.2 44.95
Q 59.05 38.6 64.75 39
L 68.05 39.1 69.05 38.6
Q 68.6 37.8 66.9 31.75 64.8 24.45 57.65 13.1 50.4 1.75 38.05 1.75 34.55 1.75 29.75 4.35 24 7.5 16.85 19.45 9.65 31.35 8.75 47.05 7.85 62.75 8.75 72.75 9.6 82.75 10 94.15 10 96.15 11.5 115.05 12.95 133.95 12.95 138.6 12.95 142.65 6.05 147.95 -0.75 153.2 -5.75 153.2 -12.25 153.2 -14.2 151.8 -16.05 150.5 -17.05 145.95 -18.05 141.35 -10.65 118.7 -3.25 96.05 -3 93.85 -2.75 91.6 -6.45 87 -10.75 81.7 -16.5 81.7 -21.65 81.7 -27.4 83.75 -35.75 86.75 -35.75 92.25 -35.75 94.25 -33.45 95.95 -31.2 97.6 -22.65 97.25 -14.1 96.9 -14.15 99.55 -14.25 102.2 -17.9 112.55 -21.55 122.8 -23.25 128.5
L -23.75 130.15 -23.5 130.45
Q -23.55 133.5 -24.4 135.05 -26.55 137.25 -26.55 148.3 -26.55 156.75 -21.25 160.35 -17 163.25 -8.9 163.25 -0.4 163.25 6.15 159.75 11.05 157.1 18.8 149.8 20.55 153.85 21.75 154.6 23 155.35 27.7 155.35 39.75 155.35 48.55 150.45 59.75 144.15 59.75 131.85 59.75 129.85 58.5 121.15
L 57.25 112.75
Q 57.25 103.3 58.75 95.3
L 60.35 86.6 60.2 85.8 60.25 82.6 59.25 79.9
Q 58.75 78.5 58.75 77.35 58.75 75.65 61.25 75.5
L 61.25 73.7
Q 61.25 72.15 61.5 71
L 61.5 70
Q 61.5 68.05 62.9 68.25
L 63 68.3 63.05 68.25 63.25 65.7
Q 63.25 63.15 62.25 56.5 66.05 56.3 67.3 55.3 68.55 54.25 68.95 52.8 69.35 51.3 64.2 44.95
M 53.9 46.35
Q 53.25 47.5 53.25 49.3 53.25 51.6 54.55 54.2
L 55.85 56.5
Q 55.85 57 54.3 59.35 52.75 61.7 52.75 62.4 52.75 64.4 53.7 65.35
L 54.6 66
Q 54.6 68.1 53.2 70.3
L 51.75 72.15 52.75 79.15 51 89.6
Q 49.25 101.75 49.25 114.35 49.25 115.9 50.45 120.1
L 51.6 125.1
Q 51.6 138.55 47.15 145.4 43.35 151.3 37.15 151.3 36.5 151.3 30.9 149.35 25.65 147.45 20.3 144.7
L 18.75 144.25
Q 15.05 146.5 11.85 149.85
L 7.1 154.95
Q 1.5 160.1 -10.75 160.1 -13.85 160.1 -16.1 158.7
L -23.9 152.25
Q -21.6 151.65 -21.15 151.3 -20.75 150.95 -20.75 149.7 -20.75 147.15 -21.95 139.2
L -20.95 137.2
Q -19.4 134.1 -19.85 132 -16.6 119.9 -12.75 110.85 -10.75 106.1 -10.75 100.6 -10.75 97 -12.55 95.55 -13.95 94.45 -17.2 94.3
L -23.5 94.15
Q -27.45 93.9 -30.25 92.5 -29.35 88.65 -23.7 86.75 -19.65 85.35 -15.25 85.35 -12.8 85.35 -9.2 89.8 -5.75 94.1 -5.75 96.55
L -13 116.25
Q -20.25 136.7 -20.25 141
L -18.65 145.3
Q -17.05 150.05 -17.05 152.45 -17.05 153.2 -17.2 153.55 -17.45 154 -18.25 154.25
L -7.6 156.75
Q 3.1 156.75 10.65 148.45 19.25 138.95 19.25 122.55 19.25 110.3 17.75 96.5 16.25 82.7 16.25 81.4 16.25 13 38.1 13 44.2 13 48.8 16.75 53.55 20.55 56.25 28 54.2 28.2 53.55 29.3 53.25 29.75 53.25 30.5 53.25 31 54.4 35.05 55.8 39.95 56.6 45.5 54.8 44.8 53.9 46.35 Z"/>
</g>
</defs>

<g transform="matrix( 1, 0, 0, 1, 0,0) ">
<use xlink:href="#Layer0_0_FILL"/>
</g>
</svg>
