
<svg xmlns="http://www.w3.org/2000/svg" version="1.1" xmlns:xlink="http://www.w3.org/1999/xlink" preserveAspectRatio="none" x="0px" y="0px" width="550px" height="400px" viewBox="0 0 550 400">
<defs>
<g id="Layer0_0_FILL">
<path fill="#FFFFFF" fill-opacity="0.25098039215686274" stroke="none" d="
M 41.25 27.2
Q 42.25 27.1 42.25 26.2 42.25 24.25 39.25 20.45 35.65 15.95 31.6 15.2 30.75 15.65 30.75 16.85 30.75 19.4 32.05 20.15
L 34.35 20.55
Q 34.8 20.55 35.8 21.25 37.1 22.2 37.5 23.5
L 38.1 24.5 33.3 24.05
Q 30.3 24.05 28.25 25.55 26.75 26.7 26.75 27.35
L 33.25 36
Q 29.8 36.05 27.95 37.05 26.25 37.95 26.25 39.5
L 32.1 51.5 30.75 60.65
Q 29.4 69.35 29.25 75.05
L 28.75 98.75
Q 28.75 108.15 29.75 118.3
L 30.7 129.6
Q 30.7 134.45 31.6 136.2 32.15 137.25 33.2 137.25
L 34.1 137.15 34.25 136.25 32.75 120.55
Q 31.25 104.85 31.25 98.9 31.25 77.65 33 63.5 34.75 53.3 34.75 51.65 34.75 51 33.65 48.9 31.6 45 29.25 39.5 34.75 39.3 36.25 38.6 37.25 38.15 37.25 36.8 37.25 36.35 30.6 27.3
L 41.25 27.2 Z"/>
</g>
</defs>

<g transform="matrix( 1, 0, 0, 1, 0,0) ">
<use xlink:href="#Layer0_0_FILL"/>
</g>
</svg>
