
<svg xmlns="http://www.w3.org/2000/svg" version="1.1" xmlns:xlink="http://www.w3.org/1999/xlink" preserveAspectRatio="none" x="0px" y="0px" width="550px" height="400px" viewBox="0 0 550 400">
<defs>
<g id="Parts_Heads_headColorMC_1_Layer1_0_FILL">
<path fill="#63A665" stroke="none" d="
M 92.5 80.75
Q 91.95 83.45 91.6 84 85.75 64.8 79.65 57.35 75.25 52 69.7 52 64.5 52 59.3 53.25 54.4 54.4 53.3 55.7 53.9 56.1 40 65.35
L 36.95 67.3
Q 19.5 79.1 19.5 90.2 19.5 101.15 27.75 108.55 32.95 113.15 48.5 123.6 59.65 132.2 63.35 141.45
L 65.05 146.45
Q 65.75 148.25 67.05 148.25 81.05 148.25 94 140.6 105.9 133.6 105.9 127.8 105.9 125.9 105.45 124.45
L 105.4 123.95 105.05 123.1 105.05 123.55 94.85 108.35 93.2 106.8
Q 95.9 104.4 99.05 102.9
L 103.7 101.05
Q 107.9 99.35 107.9 94.1 107.9 92.9 106.7 91.7
L 93.05 77.75 92.5 80.75 Z"/>
</g>
</defs>

<g transform="matrix( 1, 0, 0, 1, -62.75,-76.85) ">
<g transform="matrix( 1, 0, 0, 1, 0,0) ">
<use xlink:href="#Parts_Heads_headColorMC_1_Layer1_0_FILL"/>
</g>
</g>
</svg>
