
<svg xmlns="http://www.w3.org/2000/svg" version="1.1" xmlns:xlink="http://www.w3.org/1999/xlink" preserveAspectRatio="none" x="0px" y="0px" width="550px" height="400px" viewBox="0 0 550 400">
<defs>
<g id="Parts_Hats_Cheese_cheeseHatStatic_0_Layer0_0_FILL">
<path fill="#010101" stroke="none" d="
M 112.35 3.8
L 111.5 1.2
Q 111.2 0.45 110.5 0.05 110.15 -0.1 109.7 0.1
L 109.5 0.25
Q 106.25 0.1 103.1 0.25
L 59.75 0.75
Q 57.45 0.75 56.25 0.85 54.35 0.75 52.75 1.25 52.55 1.3 52.55 1.55 51.55 2.25 51.05 2.55 49.65 3.55 48.9 3.9 46.7 5.25 44.2 5.8 41.9 6.25 39.5 5.7 38.2 5.4 37.2 4.8 36.7 4.45 35.8 4.1 35.75 3.95 35.55 3.85 34.35 3.65 33.15 3.85
L 30.7 4.1
Q 28.1 4.35 26.05 4.75
L 20.85 5.95
Q 20.55 5.85 20.35 6
L 20.1 6.15
Q 19.75 6.25 19.4 6.55
L 19.25 6.7
Q 18.25 7.55 17.6 8.25
L 9.85 16.95
Q 5.05 22.55 0.1 29.15 0 29.35 0 29.8
L 0 30
Q 0.2 36 1.3 42.35 2.05 48.65 3.1 54.75 3.95 60.2 5.3 67.1 5.65 68.9 6.35 72.75 7.15 76.05 8.45 78.1
L 8.7 78.35
Q 8.7 78.65 8.85 78.85 9.05 79.05 9.3 79 11.25 78.5 14.45 77.4 18.3 76.05 19.6 75.65 26.15 73.75 30.1 72.75 41.6 69.65 50.6 66.6 71.25 59.4 90.45 49.9 94.1 48.15 101.3 44.25
L 106.4 41.25 107.05 40.8 107.35 40.7
Q 108.1 40.4 109.2 39.8 109.8 39.45 111 38.75 112.85 37.8 114.5 36.75 115.1 36.4 116.35 35.65 117.45 34.9 117.85 34.05 118.2 33.35 117.95 32.45 117.15 24.45 115.65 17.05 114.75 12.75 113.75 9.45 112.6 5.55 112.35 4.9
L 112.35 4.55
Q 112.45 4.2 112.35 3.8
M 110.75 3.8
L 110.9 4.25
Q 111.3 6.25 112.35 10.25
L 114 17.75
Q 115.35 24.55 116.15 32 114.85 32.6 113.7 33.5
L 109.7 36
Q 107.7 36.8 106.1 37.7
L 101.35 40.4
Q 96.15 43.35 91.8 45.65 80.65 51.55 72.5 55.05 52.65 63.6 31.75 69.3 22.3 71.9 19.9 72.7 14.65 74.2 10 77
L 9.9 76.3
Q 8.75 73.95 8 70.65 7.75 69.55 6.9 64.8 5.55 57.95 4.7 52.5 3.35 43.95 2.85 40.1
L 1.7 31.4
Q 29.75 22.6 43.55 19 58.2 15.05 86.8 10 93.2 8.9 98.8 7.55 105 6.2 110.75 3.8
M 109.2 1.9
Q 109.3 2.2 109.5 2.35 104.9 3 100.05 4.25 95.45 5.35 88.85 6.6 70.25 9.9 66.9 10.6 62.4 11.55 56.2 13.15 49.2 15.1 45.65 16 36.1 18.5 24.75 22 12.9 25.65 1.55 29.65 8 23 11.1 19.5
L 16.1 14.1
Q 17 13.2 18.9 11.25 20.45 9.55 21.2 8.1
L 21.2 8.05 31.6 6.3
Q 33.65 6.4 35.5 5.85 35.55 5.85 35.65 5.75 37.1 7.45 39.55 8.15 41.8 8.75 44.2 8.35 46.8 8 49.2 6.55 50.7 5.75 51.65 5 52.9 4 53.65 2.9 53.8 2.55 53.75 2.2 54.6 2.3 56.3 2.3
L 81.5 2.2
Q 88.7 2.2 95.9 2.05
L 103.15 2
Q 108.2 2 109.2 1.9 Z"/>

<path fill="#010101" fill-opacity="0.3176470588235294" stroke="none" d="
M 109.5 2.35
Q 109.3 2.2 109.2 1.9 108.2 2 103.15 2
L 95.9 2.05
Q 88.7 2.2 81.5 2.2
L 56.3 2.3
Q 54.6 2.3 53.75 2.2 53.8 2.55 53.65 2.9 52.9 4 51.65 5 50.7 5.75 49.2 6.55 46.8 8 44.2 8.35 41.8 8.75 39.55 8.15 37.1 7.45 35.65 5.75 35.55 5.85 35.5 5.85 33.65 6.4 31.6 6.3
L 21.2 8.05 21.2 8.1
Q 20.45 9.55 18.9 11.25 17 13.2 16.1 14.1
L 11.1 19.5
Q 8 23 1.55 29.65 12.9 25.65 24.75 22 36.1 18.5 45.65 16 49.2 15.1 56.2 13.15 62.4 11.55 66.9 10.6 70.25 9.9 88.85 6.6 95.45 5.35 100.05 4.25 104.9 3 109.5 2.35
M 46.55 9.2
Q 55.7 4.2 69.7 3.55 74.3 3.35 95.85 4.25 80.95 6.1 61.1 10.95 39.85 16.6 31.85 18.7 18.45 22.2 15.25 21.7 11.25 21.05 18.55 14.25 22.45 9.05 30.9 9.35 33.3 9.4 38.45 9.8 43.1 10 46.55 9.2
M 110.9 4.25
L 110.75 3.8
Q 105 6.2 98.8 7.55 93.2 8.9 86.8 10 58.2 15.05 43.55 19 29.75 22.6 1.7 31.4
L 2.85 40.1
Q 3.35 43.95 4.7 52.5 5.55 57.95 6.9 64.8 7.75 69.55 8 70.65 8.75 73.95 9.9 76.3
L 10 77
Q 14.65 74.2 19.9 72.7 22.3 71.9 31.75 69.3 52.65 63.6 72.5 55.05 80.65 51.55 91.8 45.65 96.15 43.35 101.35 40.4
L 106.1 37.7
Q 107.7 36.8 109.7 36
L 113.7 33.5
Q 114.85 32.6 116.15 32 115.35 24.55 114 17.75
L 112.35 10.25
Q 111.3 6.25 110.9 4.25
M 109.55 5.25
Q 109.25 11.35 110.75 18.55 112.2 25.25 114.8 31.35 114.3 31.45 114.1 31.6 70.95 56.4 43.45 62.3 21.15 67.15 11.9 59.25 4.35 52.8 7.7 41.6 9.15 36.85 12.25 33.3 15.4 29.6 19.2 28.5 34.2 23.6 64.05 17 93.75 10.45 109.55 5.25 Z"/>

<path fill="#FFFFFF" fill-opacity="0.3686274509803922" stroke="none" d="
M 23.85 16.65
Q 25.05 14.55 26.5 14.4 26.85 14 31.15 14.1 34.7 14.15 34.1 11.85 31.4 10.05 26.9 11.5 22 13.05 22.35 17.25 22.95 18.2 23.85 16.65
M 78.3 7
Q 80.3 6.45 78.95 4.7 72.9 3.6 64.5 4.55 57.25 5.4 53.4 6.95 49.5 8.5 54.25 8.85 59.9 9.2 75.6 7.25 75.9 7.2 78.3 7
M 51.65 47.4
Q 53.7 48.15 58 46.4 62.5 44.6 67.25 41 68.6 40.05 71.4 39.6 72.95 39.35 76 38.95 80.85 38.1 78.75 34.25 73.2 32.5 66.6 35.55 63.9 36.85 55.15 42.7 63.75 35.25 64.15 31.7 64.55 28.7 59.2 29.25 54.2 29.75 47.6 32.85 40.65 36.1 36.8 40 35.65 40.45 36.2 39.5 36.45 39 38.15 36.75 46.6 28.35 45.25 25.85 44.2 23.85 37.7 26.1 31.65 28.2 27.9 31.2 23.75 34.55 28.15 35.05 34.55 29.85 40.7 29.2 36.65 31.75 34.1 37.4 31.2 43.9 36.05 45.7 39.75 43.55 46.35 38.65 52.45 34.75 58.65 34 52.6 39.85 50.9 43.45 49.45 46.65 51.65 47.4
M 109.2 23.1
Q 109.85 23.2 110.15 20.6 109.1 12.55 102.75 10.95 97.75 9.65 92.15 12.35 86.75 15 88.55 16.75 90.6 18.7 102.15 15.9 104.45 16 107.65 21.2 108.75 23.05 109.2 23.1 Z"/>
</g>

<g id="MovieClips_PR2_Graphics_1_Apr_2014_fla_Symbol_667_15_Layer0_0_FILL">
<path fill="#FFD860" stroke="none" d="
M 70.5 -55.75
Q 70.35 -58.9 70.05 -60.55 69.55 -63.25 68.5 -65 68.35 -65.35 67.9 -65.7 68.35 -67.85 67.45 -69.45 66.5 -71.3 64.65 -70.75
L 63.55 -70.4
Q 48.85 -70.4 37.15 -70.65
L 20.35 -70.65
Q 18.7 -70.9 17 -71 13.25 -71.3 10.3 -71.3 7 -71.2 3.65 -70.6 3.25 -70.55 1.95 -70.55 0.75 -70.55 0.2 -70.4 -0.3 -70.3 -0.75 -69.75 -1.5 -68.8 -1.55 -68.75
L -1.85 -68.15
Q -5.1 -66.5 -6 -66.1 -8.3 -65.05 -10.35 -64.8 -15.45 -64.25 -20.3 -65
L -20.95 -65.05
Q -21.3 -65.9 -22.15 -66.4 -22.55 -66.6 -23.15 -66.6 -23.95 -66.6 -24.45 -65.45 -33.1 -66.2 -38 -63.9 -39.75 -63.75 -40.4 -62.4
L -40.85 -62.15
Q -41.4 -61.95 -42 -61.45
L -42.4 -61.15
Q -43.9 -59.95 -44.75 -58.45 -44.95 -58.15 -46.9 -55.1 -48.2 -53.05 -49.2 -51.8 -51.25 -49.35 -54.6 -46
L -59.05 -41.6
Q -60.65 -40.15 -61.75 -38.4 -61.8 -38.2 -62.4 -38.05 -62.85 -37.85 -62.85 -37.75 -63.35 -37.1 -63.05 -35.95 -62.9 -35.3 -62.45 -34.05
L -62.2 -32.4
Q -62.1 -31.75 -61.85 -31.2
L -61.5 -30.55
Q -61.65 -25.1 -60.6 -19.9
L -60.55 -19.45
Q -61.25 -11.5 -59 -3.65 -58.4 -1.6 -57.15 2.4 -56.2 5.9 -56.05 8.6 -55.6 13 -54.4 15.75 -52.8 19.5 -49.7 18.65 -48.5 18.3 -44.1 15.55
L -40.9 13.75
Q -33.05 12.7 -25.4 10.2 -19.8 8.45 -15.65 6.95 -9.75 7.1 -4.15 5.2 -1.8 4.55 3 3.25 6.9 1.85 8.95 -0.65
L 17.05 -3.1
Q 18.35 -3.45 18.85 -4.85
L 19.15 -4.95
Q 28.25 -7.35 37.35 -11.4 57.3 -20.3 70.3 -31.35
L 70.75 -31.9
Q 71.55 -32 72.6 -32.25 73.95 -32.65 74.15 -33.05 75.45 -35.25 74.4 -38.6 72.9 -43.25 72.9 -44.45 72.9 -52.3 70.5 -55.75 Z"/>
</g>

<g id="MovieClips_PR2_Graphics_1_Apr_2014_fla_Symbol_684_15_Layer1_0_FILL">
<path fill="#010101" fill-opacity="0.5294117647058824" stroke="none" d="
M -16.8 -13.7
L -17.85 -13.2
Q -19.15 -12.35 -19.9 -11.2 -21 -9.65 -20.95 -7.7 -20.95 -6.05 -19.75 -5.15 -19.1 -4.7 -18.05 -4.55 -16.8 -4.45 -15.7 -5 -14.15 -5.75 -13.3 -7.25 -12.4 -8.65 -12.5 -10.4 -12.5 -11.9 -13.55 -13 -14.05 -13.45 -14.75 -13.55
L -15.15 -13.85
Q -16.1 -14.1 -16.8 -13.7
M -0.25 -44.2
Q -0.6 -44.7 -1.65 -45.25 -6.15 -49 -7.7 -47.3 -9.05 -45.95 -7.75 -42.5 -6.45 -38.9 -4.35 -38.55 -1.75 -38.15 0.05 -43.7 -0.05 -44 -0.25 -44.2
M -42.6 -25.2
Q -45.8 -22.6 -46.05 -19.05 -46.3 -15 -42.3 -11.25 -36.25 -8.15 -30.55 -13 -24.6 -18.1 -29 -24.7 -31.55 -27.8 -35.75 -27.75 -39.55 -27.7 -42.6 -25.2
M -20.9 -66.95
Q -21.3 -66.8 -21.5 -65.75 -21.65 -62.6 -17.9 -61.7 -15.3 -61.1 -11.85 -61.7 -8.65 -62.2 -5.4 -63.85 -0.4 -66.4 -0.2 -68.85 0 -70.2 -0.95 -70.85
L -1.2 -70.9
Q -1.75 -71.15 -2.15 -70.7 -5.9 -68.05 -6.5 -67.75 -9 -66.35 -11.65 -65.65 -14.05 -65 -16.85 -65 -19.45 -65 -19.95 -66.5 -20.2 -67.15 -20.9 -66.95
M -36.8 -57
Q -36.25 -58.2 -36.55 -59.45 -37.45 -64.1 -40.1 -63.8 -42.3 -63.5 -44.25 -60.4 -46.1 -57.3 -45 -55.5 -43.7 -53.35 -38.5 -55.2 -37.35 -55.8 -36.8 -57
M 61.8 -26.45
Q 63.1 -27.3 62.75 -28.75 62.55 -30.15 60.95 -31.3 59.65 -32.25 58 -32.65 55.3 -33.4 52.85 -32.2
L 52.5 -31.95 52.2 -31.85
Q 51.5 -31.6 50.65 -31 49.4 -29.85 48.6 -28.2 47.7 -26.45 47.9 -24.45 47.9 -24.25 47.7 -23.95 47.35 -23.05 47.25 -21.7
L 47.25 -21.35
Q 47.25 -20.7 47.5 -20.25 47.65 -19.8 48.1 -19.35 48.45 -19.05 49.15 -19.3 49.5 -19.35 49.7 -19.8 50 -20.25 49.8 -20.75
L 50 -20.6 50 -20.5
Q 50.4 -19.75 51.25 -20.15
L 51.3 -20.15
Q 52.05 -20.8 51.95 -21.8
L 51.95 -22.25 52.05 -22.35 52.8 -22.9
Q 53.8 -23.6 55 -24.1
L 55.25 -24.15 56.3 -24
Q 57 -23.8 57.5 -24.75
L 57.6 -24.75
Q 58.05 -24.25 58.7 -24.45 59.45 -24.75 60.05 -24.8 61.15 -24.8 61.25 -26.3 61.55 -26.3 61.8 -26.45
M 38.25 -37.4
Q 36.6 -39.15 34.15 -38.5 32 -37.9 30.7 -36.05 29.3 -34.25 30.25 -33.25 31.45 -32.05 35.45 -32.95 35.55 -33.25 37.65 -34.8 39.25 -36 38.25 -37.4
M 67.45 -68.15
Q 66.75 -68.7 64.1 -69 61.35 -69.25 59.15 -68.85 53.1 -67.75 59.15 -63.1 61.9 -60.55 66.1 -62.05 70.45 -63.55 67.45 -68.15 Z"/>
</g>
</defs>

<g transform="matrix( 1, 0, 0, 1, 0,0) ">
<g transform="matrix( 1.1859283447265625, 0, 0, 1.1860504150390625, -64.15,-72.85) ">
<g transform="matrix( 1, 0, 0, 1, 0,0) ">
<use xlink:href="#Parts_Hats_Cheese_cheeseHatStatic_0_Layer0_0_FILL"/>
</g>
</g>
</g>

<g transform="matrix( 1, 0, 0, 1, 0,0) ">
<g transform="matrix( 1, 0, 0, 1, 0,0) ">
<use xlink:href="#MovieClips_PR2_Graphics_1_Apr_2014_fla_Symbol_667_15_Layer0_0_FILL"/>
</g>
</g>

<g transform="matrix( 1, 0, 0, 1, 0,0) ">
<g transform="matrix( 1, 0, 0, 1, 0,0) ">
<use xlink:href="#MovieClips_PR2_Graphics_1_Apr_2014_fla_Symbol_684_15_Layer1_0_FILL"/>
</g>
</g>
</svg>
