
<svg xmlns="http://www.w3.org/2000/svg" version="1.1" xmlns:xlink="http://www.w3.org/1999/xlink" preserveAspectRatio="none" x="0px" y="0px" width="550px" height="400px" viewBox="0 0 550 400">
<defs>
<g id="Parts_Hats_Cheese_cheeseHatStatic_0_Layer0_0_FILL">
<path fill="#010101" stroke="none" d="
M 112.35 3.8
L 111.5 1.2
Q 111.2 0.45 110.5 0.05 110.15 -0.1 109.7 0.1
L 109.5 0.25
Q 106.25 0.1 103.1 0.25
L 59.75 0.75
Q 57.45 0.75 56.25 0.85 54.35 0.75 52.75 1.25 52.55 1.3 52.55 1.55 51.55 2.25 51.05 2.55 49.65 3.55 48.9 3.9 46.7 5.25 44.2 5.8 41.9 6.25 39.5 5.7 38.2 5.4 37.2 4.8 36.7 4.45 35.8 4.1 35.75 3.95 35.55 3.85 34.35 3.65 33.15 3.85
L 30.7 4.1
Q 28.1 4.35 26.05 4.75
L 20.85 5.95
Q 20.55 5.85 20.35 6
L 20.1 6.15
Q 19.75 6.25 19.4 6.55
L 19.25 6.7
Q 18.25 7.55 17.6 8.25
L 9.85 16.95
Q 5.05 22.55 0.1 29.15 0 29.35 0 29.8
L 0 30
Q 0.2 36 1.3 42.35 2.05 48.65 3.1 54.75 3.95 60.2 5.3 67.1 5.65 68.9 6.35 72.75 7.15 76.05 8.45 78.1
L 8.7 78.35
Q 8.7 78.65 8.85 78.85 9.05 79.05 9.3 79 11.25 78.5 14.45 77.4 18.3 76.05 19.6 75.65 26.15 73.75 30.1 72.75 41.6 69.65 50.6 66.6 71.25 59.4 90.45 49.9 94.1 48.15 101.3 44.25
L 106.4 41.25 107.05 40.8 107.35 40.7
Q 108.1 40.4 109.2 39.8 109.8 39.45 111 38.75 112.85 37.8 114.5 36.75 115.1 36.4 116.35 35.65 117.45 34.9 117.85 34.05 118.2 33.35 117.95 32.45 117.15 24.45 115.65 17.05 114.75 12.75 113.75 9.45 112.6 5.55 112.35 4.9
L 112.35 4.55
Q 112.45 4.2 112.35 3.8
M 110.75 3.8
L 110.9 4.25
Q 111.3 6.25 112.35 10.25
L 114 17.75
Q 115.35 24.55 116.15 32 114.85 32.6 113.7 33.5
L 109.7 36
Q 107.7 36.8 106.1 37.7
L 101.35 40.4
Q 96.15 43.35 91.8 45.65 80.65 51.55 72.5 55.05 52.65 63.6 31.75 69.3 22.3 71.9 19.9 72.7 14.65 74.2 10 77
L 9.9 76.3
Q 8.75 73.95 8 70.65 7.75 69.55 6.9 64.8 5.55 57.95 4.7 52.5 3.35 43.95 2.85 40.1
L 1.7 31.4
Q 29.75 22.6 43.55 19 58.2 15.05 86.8 10 93.2 8.9 98.8 7.55 105 6.2 110.75 3.8
M 109.2 1.9
Q 109.3 2.2 109.5 2.35 104.9 3 100.05 4.25 95.45 5.35 88.85 6.6 70.25 9.9 66.9 10.6 62.4 11.55 56.2 13.15 49.2 15.1 45.65 16 36.1 18.5 24.75 22 12.9 25.65 1.55 29.65 8 23 11.1 19.5
L 16.1 14.1
Q 17 13.2 18.9 11.25 20.45 9.55 21.2 8.1
L 21.2 8.05 31.6 6.3
Q 33.65 6.4 35.5 5.85 35.55 5.85 35.65 5.75 37.1 7.45 39.55 8.15 41.8 8.75 44.2 8.35 46.8 8 49.2 6.55 50.7 5.75 51.65 5 52.9 4 53.65 2.9 53.8 2.55 53.75 2.2 54.6 2.3 56.3 2.3
L 81.5 2.2
Q 88.7 2.2 95.9 2.05
L 103.15 2
Q 108.2 2 109.2 1.9 Z"/>

<path fill="#010101" fill-opacity="0.3176470588235294" stroke="none" d="
M 109.5 2.35
Q 109.3 2.2 109.2 1.9 108.2 2 103.15 2
L 95.9 2.05
Q 88.7 2.2 81.5 2.2
L 56.3 2.3
Q 54.6 2.3 53.75 2.2 53.8 2.55 53.65 2.9 52.9 4 51.65 5 50.7 5.75 49.2 6.55 46.8 8 44.2 8.35 41.8 8.75 39.55 8.15 37.1 7.45 35.65 5.75 35.55 5.85 35.5 5.85 33.65 6.4 31.6 6.3
L 21.2 8.05 21.2 8.1
Q 20.45 9.55 18.9 11.25 17 13.2 16.1 14.1
L 11.1 19.5
Q 8 23 1.55 29.65 12.9 25.65 24.75 22 36.1 18.5 45.65 16 49.2 15.1 56.2 13.15 62.4 11.55 66.9 10.6 70.25 9.9 88.85 6.6 95.45 5.35 100.05 4.25 104.9 3 109.5 2.35
M 46.55 9.2
Q 55.7 4.2 69.7 3.55 74.3 3.35 95.85 4.25 80.95 6.1 61.1 10.95 39.85 16.6 31.85 18.7 18.45 22.2 15.25 21.7 11.25 21.05 18.55 14.25 22.45 9.05 30.9 9.35 33.3 9.4 38.45 9.8 43.1 10 46.55 9.2
M 110.9 4.25
L 110.75 3.8
Q 105 6.2 98.8 7.55 93.2 8.9 86.8 10 58.2 15.05 43.55 19 29.75 22.6 1.7 31.4
L 2.85 40.1
Q 3.35 43.95 4.7 52.5 5.55 57.95 6.9 64.8 7.75 69.55 8 70.65 8.75 73.95 9.9 76.3
L 10 77
Q 14.65 74.2 19.9 72.7 22.3 71.9 31.75 69.3 52.65 63.6 72.5 55.05 80.65 51.55 91.8 45.65 96.15 43.35 101.35 40.4
L 106.1 37.7
Q 107.7 36.8 109.7 36
L 113.7 33.5
Q 114.85 32.6 116.15 32 115.35 24.55 114 17.75
L 112.35 10.25
Q 111.3 6.25 110.9 4.25
M 109.55 5.25
Q 109.25 11.35 110.75 18.55 112.2 25.25 114.8 31.35 114.3 31.45 114.1 31.6 70.95 56.4 43.45 62.3 21.15 67.15 11.9 59.25 4.35 52.8 7.7 41.6 9.15 36.85 12.25 33.3 15.4 29.6 19.2 28.5 34.2 23.6 64.05 17 93.75 10.45 109.55 5.25 Z"/>

<path fill="#FFFFFF" fill-opacity="0.3686274509803922" stroke="none" d="
M 23.85 16.65
Q 25.05 14.55 26.5 14.4 26.85 14 31.15 14.1 34.7 14.15 34.1 11.85 31.4 10.05 26.9 11.5 22 13.05 22.35 17.25 22.95 18.2 23.85 16.65
M 78.3 7
Q 80.3 6.45 78.95 4.7 72.9 3.6 64.5 4.55 57.25 5.4 53.4 6.95 49.5 8.5 54.25 8.85 59.9 9.2 75.6 7.25 75.9 7.2 78.3 7
M 51.65 47.4
Q 53.7 48.15 58 46.4 62.5 44.6 67.25 41 68.6 40.05 71.4 39.6 72.95 39.35 76 38.95 80.85 38.1 78.75 34.25 73.2 32.5 66.6 35.55 63.9 36.85 55.15 42.7 63.75 35.25 64.15 31.7 64.55 28.7 59.2 29.25 54.2 29.75 47.6 32.85 40.65 36.1 36.8 40 35.65 40.45 36.2 39.5 36.45 39 38.15 36.75 46.6 28.35 45.25 25.85 44.2 23.85 37.7 26.1 31.65 28.2 27.9 31.2 23.75 34.55 28.15 35.05 34.55 29.85 40.7 29.2 36.65 31.75 34.1 37.4 31.2 43.9 36.05 45.7 39.75 43.55 46.35 38.65 52.45 34.75 58.65 34 52.6 39.85 50.9 43.45 49.45 46.65 51.65 47.4
M 109.2 23.1
Q 109.85 23.2 110.15 20.6 109.1 12.55 102.75 10.95 97.75 9.65 92.15 12.35 86.75 15 88.55 16.75 90.6 18.7 102.15 15.9 104.45 16 107.65 21.2 108.75 23.05 109.2 23.1 Z"/>
</g>
</defs>

<g transform="matrix( 1, 0, 0, 1, 0,0) ">
<g transform="matrix( 1.1859283447265625, 0, 0, 1.1860504150390625, -64.15,-72.85) ">
<g transform="matrix( 1, 0, 0, 1, 0,0) ">
<use xlink:href="#Parts_Hats_Cheese_cheeseHatStatic_0_Layer0_0_FILL"/>
</g>
</g>
</g>
</svg>
