
<svg xmlns="http://www.w3.org/2000/svg" version="1.1" xmlns:xlink="http://www.w3.org/1999/xlink" preserveAspectRatio="none" x="0px" y="0px" width="550px" height="400px" viewBox="0 0 550 400">
<defs>
<g id="Layer0_0_FILL">
<path fill="#FFFFFF" stroke="none" d="
M 3.05 2.2
Q 3.2 1.45 2.7 0.8 2.5 0.35 1.9 0.1 1.4 -0.1 0.9 0.1 0.35 0.25 0.05 0.7 -0.05 0.8 0 1 0.1 1.2 0.25 1.15 0.6 1 0.95 1.05
L 1.2 1.05 1.75 1.35 1.9 1.45 1.9 1.5 1.95 1.55 2 1.65 2.05 1.65 2.1 1.8 2.1 1.9 2.15 2.25
Q 2.3 2.75 2.6 2.75 2.95 2.7 3.05 2.2 Z"/>
</g>
</defs>

<g transform="matrix( 1, 0, 0, 1, 0,0) ">
<use xlink:href="#Layer0_0_FILL"/>
</g>
</svg>
