
<svg xmlns="http://www.w3.org/2000/svg" version="1.1" xmlns:xlink="http://www.w3.org/1999/xlink" preserveAspectRatio="none" x="0px" y="0px" width="550px" height="400px" viewBox="0 0 550 400">
<defs>
<g id="Layer0_0_FILL">
<path fill="#B87A61" stroke="none" d="
M 4.8 0
L 4.8 -6 -1.2 -6 -1.2 0 4.8 0
M 4.8 6
L 4.8 0 -1.2 0 -6.3 0 -6.3 6 4.8 6 Z"/>

<path fill="#8A5B48" stroke="none" d="
M 6.3 6
L 6.3 0 4.8 0 4.8 6 6.3 6
M 6.3 -6
L 4.8 -6 4.8 0 6.3 0 6.3 -6 Z"/>
</g>

<path id="Layer0_0_1_STROKES" stroke="#000000" stroke-width="1" stroke-linejoin="round" stroke-linecap="butt" fill="none" d="
M 6.3 -6
L 4.8 -6
M 4.8 0
L 6.3 0
M 6.3 6
L 4.8 6 -6.3 6 -6.3 0 -1.2 0 -1.2 -6 4.8 -6
M -1.2 0
L 4.8 0"/>
</defs>

<g transform="matrix( 1, 0, 0, 1, 0,0) ">
<use xlink:href="#Layer0_0_FILL"/>

<use xlink:href="#Layer0_0_1_STROKES"/>
</g>
</svg>
