
<svg xmlns="http://www.w3.org/2000/svg" version="1.1" xmlns:xlink="http://www.w3.org/1999/xlink" preserveAspectRatio="none" x="0px" y="0px" width="550px" height="400px" viewBox="0 0 550 400">
<defs>
<g id="Layer0_0_FILL">
<path fill="#B87A61" stroke="none" d="
M -9.6 -3.1
L -11.35 -3.1 -11.35 2.9 -9.6 2.9 -9.6 -3.1
M -5.85 -5.1
L -11.35 -5.1 -11.35 -3.1 -9.6 -3.1 -5.85 -3.1 -5.85 -5.1
M 4.05 5.15
L 4.05 2.9 -9.6 2.9 -11.35 2.9 -11.35 5.15 4.05 5.15
M 9.15 0.75
L 4.75 0.75 4.75 -3.1 -5.85 -3.1 -9.6 -3.1 -9.6 2.9 4.05 2.9 9.15 2.9 9.15 0.75
M 11.4 2.9
L 11.4 0.75 9.15 0.75 9.15 2.9 11.4 2.9
M 11.4 5.15
L 11.4 2.9 9.15 2.9 4.05 2.9 4.05 5.15 11.4 5.15
M 4.75 -3.1
L 4.75 -5.1 -5.85 -5.1 -5.85 -3.1 4.75 -3.1 Z"/>
</g>

<path id="Layer0_0_1_STROKES" stroke="#000000" stroke-width="1" stroke-linejoin="round" stroke-linecap="butt" fill="none" d="
M -5.85 -5.1
L -5.85 -3.1 4.75 -3.1
M 11.4 2.9
L 9.15 2.9 4.05 2.9 4.05 5.15
M 9.15 2.9
L 9.15 0.75
M -11.35 -3.1
L -9.6 -3.1 -5.85 -3.1
M 4.05 2.9
L -9.6 2.9 -11.35 2.9
M -9.6 -3.1
L -9.6 2.9"/>
</defs>

<g transform="matrix( 1, 0, 0, 1, 0,0) ">
<use xlink:href="#Layer0_0_FILL"/>

<use xlink:href="#Layer0_0_1_STROKES"/>
</g>
</svg>
