<?xml version='1.0' encoding='utf-8'?>
<svg xmlns="http://www.w3.org/2000/svg" xmlns:xlink="http://www.w3.org/1999/xlink" version="1.1" width="550px" height="400px" viewBox="0 0 550 400" preserveAspectRatio="none" data-xfl-root="UI/Popups (outside levels)/LevelInfo/Buttons/hatsAllowed">
  <g data-xfl-symbol="UI/Popups (outside levels)/LevelInfo/Buttons/hatsAllowed">
    <g transform="matrix(0.1472625732 0 0 0.1467132568 -11.25 -9.45)">
      <g data-xfl-symbol="expMC">
        <g data-svg-leaf="expmc_c1dc465d41/t00_l000_f0000_r00.svg">
          <defs>
            <g id="xfl1_Layer0_0_FILL">
              <path fill="#AF831D" stroke="none" d=" M 101.1 16.25 Q 91.4 11.1 81.3 7.35 71.15 3.55 66.05 6.55 L 53.1 14.85 Q 46.15 19.55 42.95 27.55 44.1 27.65 41.7 30.3 39.3 32.95 39.1 39.4 38.9 45.85 39.25 52.4 40.1 66.8 39.6 81.1 39.35 87.65 36.8 93.65 L 2.65 112.7 2.65 116.35 3.85 117.35 Q 3.9 119.25 4.65 120.9 6.2 124.5 9.95 125.1 18 126.65 25.65 123.35 50.3 112.85 73.3 99.1 78.95 95.75 85.45 93.7 119.1 83.4 149.55 66.85 147.85 60.2 146.1 56.3 141.3 45.35 131.6 37.9 L 117.75 27.2 Q 110.8 21.4 101.1 16.25 Z" />
            </g>
          </defs>
          <g transform="matrix( 1, 0, 0, 1, 0,0) ">
            <use xlink:href="#xfl1_Layer0_0_FILL" />
          </g>
        </g>
        <g transform="matrix(1 0 0 1 91.9 93.2)">
          <g data-xfl-symbol="Graphics/Symbol 685">
            <g data-svg-leaf="graphics_symbol_685_6acfb69716/t00_l002_f0000_r00.svg">
              <defs>
                <g id="xfl2_Layer0_0_FILL">
                  <path fill="#000000" stroke="none" d=" M -67 -4.85 L -66.95 -5 Q -66.9 -5.7 -67 -4.85 M 44.6 -53.25 L 45.55 -52.45 35.55 -61.7 Q 24.95 -70.6 12.7 -77.5 L -20.4 -93.2 Q -21.45 -92.55 -21.75 -91 -22.55 -87.25 -26.5 -86.4 -34.2 -85.25 -41.65 -79.85 -49.15 -74.45 -54.15 -56.45 -59.15 -38.45 -52.1 -9.95 -52.65 -7.05 -54.6 -4.75 -62.7 5 -74.7 9.4 -84.95 13.15 -91.35 20.5 -91.25 21.95 -91.6 23.35 -92.9 28.55 -88.95 32 -83.5 36.65 -76.6 35.3 -66.6 33.2 -57.35 28.35 -28.4 13.15 1.85 1 L 20 -6.45 Q 40.6 -15.3 60.85 -25 57.35 -40.25 46.5 -51.45 L 44.6 -53.25 M 7.2 -44.25 Q 11.95 -23.75 17.6 -13.15 L 19.5 -9.25 Q 0.75 -1.7 -13.8 2.75 -27.25 -38.05 -18.95 -80 L -18.5 -84.85 Q 2.4 -64.8 7.2 -44.25 M 52.1 -37.4 L 54.3 -25.95 Q 37.95 -17 20.85 -9.8 17 -29.25 8.45 -51.4 2.95 -65.75 -6.45 -78.05 -9 -81.35 -12.55 -83.75 49.1 -54.05 52.1 -37.4 M -23.8 -83.5 L -20.25 -84.6 -22 -78.25 Q -32.05 -36.4 -16.15 3.55 -31.65 8.75 -45.9 16.6 -58.4 23.35 -71.55 28.8 -85.15 34.4 -88.9 20.7 L -49.85 -0.65 Q -48.05 -6.65 -49.45 -12.85 -54.25 -34.25 -49.9 -55.95 -45.45 -77.95 -23.8 -83.5 Z" />
                </g>
              </defs>
              <g transform="matrix( 1, 0, 0, 1, 0,0) ">
                <use xlink:href="#xfl2_Layer0_0_FILL" />
              </g>
            </g>
            <g data-svg-leaf="graphics_symbol_685_6acfb69716/t00_l001_f0000_r00.svg">
              <defs>
                <g id="xfl3_Layer0_0_FILL">
                  <path fill="#000000" fill-opacity="0.25098039215686274" stroke="none" d=" M 60.75 -25.45 L 59.75 -28.6 Q 56.35 -39.75 47.3 -47.55 23.05 -74.65 -2.05 -83.95 -27.15 -93.3 -45 -71.55 -62.9 -49.9 -49.7 -1.35 -71.05 7.6 -89.75 21.5 L -87.65 24.45 Q -66.6 19.95 -50.65 6.2 -40.05 -3 -39.45 -17.25 -38.6 -36.95 -33.2 -57.85 -27.85 -78.8 -6.55 -69.5 14.75 -60.25 24.5 -53.1 34.25 -46 40.3 -35 46.3 -24.05 60.75 -25.45 Z" />
                </g>
              </defs>
              <g transform="matrix( 1, 0, 0, 1, 0,0) ">
                <use xlink:href="#xfl3_Layer0_0_FILL" />
              </g>
            </g>
            <g data-svg-leaf="graphics_symbol_685_6acfb69716/t00_l000_f0000_r00.svg">
              <defs>
                <g id="xfl4_Layer0_0_FILL">
                  <path fill="#FFFFFF" fill-opacity="0.25098039215686274" stroke="none" d=" M -3.9 -57.85 Q -15.65 -66.25 -21.15 -55.35 -31 -35.85 -14.6 -22.4 7.4 -4.45 14.9 -30.5 10.5 -47.7 -3.9 -57.85 Z" />
                </g>
              </defs>
              <g transform="matrix( 1, 0, 0, 1, 0,0) ">
                <use xlink:href="#xfl4_Layer0_0_FILL" />
              </g>
            </g>
          </g>
        </g>
      </g>
    </g>
  </g>
</svg>