<?xml version='1.0' encoding='utf-8'?>
<svg xmlns="http://www.w3.org/2000/svg" xmlns:xlink="http://www.w3.org/1999/xlink" version="1.1" width="550px" height="400px" viewBox="0 0 550 400" preserveAspectRatio="none" data-xfl-root="UI/Popups (outside levels)/LevelInfo/Buttons/cowboy">
  <g data-xfl-symbol="UI/Popups (outside levels)/LevelInfo/Buttons/cowboy">
    <g data-xfl-symbol="MovieClips/cowboyMC">
      <g transform="matrix(-0.1612854004 0 0 0.1610412598 27.25 -2.15)">
        <g data-xfl-symbol="Graphics/Symbol 433">
          <g data-svg-leaf="graphics_symbol_433_0b8905e294/t00_l002_f0000_r00.svg">
            <defs>
              <g id="xfl1_Layer0_0_FILL">
                <path fill="#000000" stroke="none" d=" M 113.8 -24.4 Q 111.95 -28.6 107.65 -29.55 103.35 -27.65 102.3 -22.6 99.3 -8.2 102.15 6.6 105.2 22.1 118.95 30.45 128.85 36.45 139.15 41.85 150.6 48.05 161.6 55.4 182.5 69.6 207.6 69.25 225.5 69.05 237.15 57.9 L 236.4 46.9 Q 235.85 38.4 223.9 43.1 212 47.8 207.6 44.6 203.2 41.35 207.75 22.95 212.35 4.55 220 -9.15 220.65 -14.15 218.85 -19.45 215.25 -30.05 205.9 -33.95 202.65 -35.05 199.6 -36.3 L 185 -41.75 Q 177.15 -44.45 171.3 -40.35 170.85 -36.7 166.2 -33.35 157.45 -27.2 150.55 -19 143.85 -11 135.25 -4.9 132.4 -2.85 129.25 -3.35 117.9 -4.65 116.3 -17.35 115.25 -21 113.8 -24.4 M 106.45 -14 Q 103.4 -22.05 109.25 -26.15 L 109.6 -26.05 Q 113.3 -21.1 113.45 -14.55 114.4 -7.8 119 -2.5 124.5 3.9 132.05 1 141.95 -2.7 148.9 -10.5 162 -25 175.75 -38.8 181.35 -39.3 177.9 -34.75 174.5 -30.3 170.2 -17.1 165.95 -3.9 182.4 -20.5 198.95 -37.1 209.1 -27.45 218.5 -17.1 213.55 -4.75 209.75 4.75 206.1 14.4 201.95 25.35 202.5 39.55 203.05 53.75 218.8 48 234.55 42.2 233.1 56.65 227.9 61.15 221.3 63.45 206.3 68.6 190.65 64.45 173.65 60 159.9 49.45 148.2 40.45 134.5 35.05 125.3 31.65 118.35 24.75 102.4 8.7 106.45 -14 Z" />
                <path fill="#6C3224" stroke="none" d=" M 109.25 -26.15 Q 103.4 -22.05 106.45 -14 102.4 8.7 118.35 24.75 125.3 31.65 134.5 35.05 148.2 40.45 159.9 49.45 173.65 60 190.65 64.45 206.3 68.6 221.3 63.45 227.9 61.15 233.1 56.65 234.55 42.2 218.8 48 203.05 53.75 202.5 39.55 201.95 25.35 206.1 14.4 209.75 4.75 213.55 -4.75 218.5 -17.1 209.1 -27.45 198.95 -37.1 182.4 -20.5 165.95 -3.9 170.2 -17.1 174.5 -30.3 177.9 -34.75 181.35 -39.3 175.75 -38.8 162 -25 148.9 -10.5 141.95 -2.7 132.05 1 124.5 3.9 119 -2.5 114.4 -7.8 113.45 -14.55 113.3 -21.1 109.6 -26.05 L 109.25 -26.15 Z" />
              </g>
            </defs>
            <g transform="matrix( 1, 0, 0, 1, 0,0) ">
              <use xlink:href="#xfl1_Layer0_0_FILL" />
            </g>
          </g>
          <g data-svg-leaf="graphics_symbol_433_0b8905e294/t00_l001_f0000_r00.svg">
            <defs>
              <g id="xfl2_Layer0_0_FILL">
                <path fill="#000000" fill-opacity="0.25098039215686274" stroke="none" d=" M 108.8 -27.05 L 105.5 -26.9 Q 102.4 -19.5 101.9 -11.2 100.3 13.6 114.25 24.05 128.3 34.45 148.35 46.4 168.45 58.35 200.25 69.9 221.05 68.3 229.15 61.15 237.25 54.05 233.05 48.25 229.3 43 223.2 45.1 218 46.9 212.6 46.2 208.2 46 207 42.3 205.75 38.15 206 33.75 206.6 22.65 211.2 12.3 L 217.4 -1.85 Q 221.5 -11.3 217.55 -20.85 212.35 -33.2 198.25 -34.2 191.15 -34.6 184.65 -31.45 184.3 -35.2 183.1 -39 182.65 -40.4 181.45 -40.55 171.65 -41.05 164.9 -32 158.8 -23.7 150.85 -17.1 L 135.8 -5 Q 125.65 2.75 120.2 -8.8 115.5 -18.65 108.8 -27.05 M 191.8 -16.95 Q 196.25 -24.45 200.85 -17.9 207.25 -8.65 201.75 1 L 202.65 2.95 Q 199.35 9.15 195.35 15.05 188.65 24.9 189.8 36.8 191.3 52.15 204.65 59.4 200.9 58.9 197.45 57.6 168.5 55.15 150.25 43.05 132.05 31 121.8 21.45 111.5 11.8 117.35 5.35 121.3 6.65 125.15 8.25 134.65 12.35 141.7 5.2 151.5 -4.6 159.85 -15.25 L 162.5 -13.15 Q 162.55 -11.7 161.85 -10.4 154.75 1.95 153.1 14.85 161.25 15.3 168.85 9.35 182.8 -1.6 191.8 -16.95 M 175.25 -20.5 Q 176.25 -26.6 182.1 -28.85 L 175.25 -20.5 Z" />
              </g>
            </defs>
            <g transform="matrix( 1, 0, 0, 1, 0,0) ">
              <use xlink:href="#xfl2_Layer0_0_FILL" />
            </g>
          </g>
          <g data-svg-leaf="graphics_symbol_433_0b8905e294/t00_l000_f0000_r00.svg">
            <defs>
              <g id="xfl3_Layer0_0_FILL">
                <path fill="#FFFFFF" fill-opacity="0.25098039215686274" stroke="none" d=" M 179.55 41.3 Q 178.45 25.1 185.85 10.55 189.3 3.75 191.55 -3.6 L 164.7 32.5 Q 150.6 26.8 146.8 13.45 L 139.1 17.5 131.15 13.95 Q 130.65 15.35 131.5 16.6 134 20.05 138.35 21.15 156.55 36.2 179.55 41.3 M 139.3 17.6 Q 145.65 19.45 141.85 18.4 L 139.3 17.6 Z" />
              </g>
            </defs>
            <g transform="matrix( 1, 0, 0, 1, 0,0) ">
              <use xlink:href="#xfl3_Layer0_0_FILL" />
            </g>
          </g>
        </g>
      </g>
    </g>
  </g>
</svg>