<?xml version='1.0' encoding='utf-8'?>
<svg xmlns="http://www.w3.org/2000/svg" xmlns:xlink="http://www.w3.org/1999/xlink" version="1.1" width="550px" height="400px" viewBox="0 0 550 400" preserveAspectRatio="none" data-xfl-root="MovieClips/PR2_Graphics_1_Apr_2014_fla/Symbol 1312">
  <g data-xfl-symbol="MovieClips/PR2_Graphics_1_Apr_2014_fla/Symbol 1312">
    <g data-svg-leaf="movieclips_pr2_graphics_1_apr_2014_fla_symbol_1312_53a6126aa3/t00_l000_f0003_r00.svg">
      <defs>
        <g id="xfl1_Layer0_0_FILL">
          <path fill="#A3ADE9" stroke="none" d=" M 13.25 41 Q 14.4 42.75 15.05 42.75 L 16.7 42.25 16.75 40.75 29.95 40.55 Q 33.25 40.45 33.25 38.85 L 32.5 37.5 Q 31.75 36.3 31.75 33.6 L 31.2 29.2 Q 30.5 25.05 30 23.75 L 13.25 24.05 13.25 41 M 16.6 38.25 L 16.15 26.25 28.8 26.25 29.25 37.8 16.6 38.25 M 42.7 24.35 L 42.5 24.5 Q 42.25 24.75 42.25 25.35 42.25 26.45 42.95 26.6 L 43.95 26.75 43.75 33.9 Q 43.75 38.3 44.1 40.7 44.5 43.5 45.5 44.75 46.3 44.15 46.65 44.15 L 46.75 41.25 64.8 40.65 65.25 39.35 Q 64.35 38.15 62.65 38.1 L 60.75 38.3 60.95 27.2 Q 60.95 27 61.5 27.35 62.05 27.5 62.25 25.85 61.75 25.5 59.95 24.85 L 58 24.25 43.5 24.25 42.7 24.35 M 57.6 27.5 Q 57.45 28.15 57.45 28.75 L 58.25 33 58.15 35.5 Q 58.1 37.5 58.2 38.5 L 46.6 38.75 Q 45.65 30.05 44.95 26.8 L 57.7 27 57.6 27.5 M 61.6 -0.9 Q 61 -0.9 60.75 -0.55 L 60.5 -0.25 Q 50.6 -0.3 46.25 -0.55 L 43.25 -0.8 42.5 -0.75 42.15 -0.55 Q 41.75 -0.6 41.75 0.4 L 43 14.85 Q 43 15.35 42.65 15.35 42.25 15.35 42.25 15.85 42.25 17.15 42.65 17.3 L 64.5 17.1 Q 66.1 16.95 66.3 16.65 L 66.25 15.85 Q 66.25 15.25 65.8 15.1 L 61.45 14.75 61.2 11.95 Q 61.2 7.55 62.25 1.5 L 62.1 -0.65 62.15 -0.75 61.6 -0.9 M 44.65 14.75 Q 45.25 7.2 45.25 2.25 L 59.65 2.25 Q 58.75 10.55 58.8 14.75 L 44.65 14.75 M 12.5 -0.75 L 11.4 -0.65 11.25 0.85 12.6 9.2 12.25 15.85 12.3 17.5 13.6 17.75 15.05 17.55 15.05 17.25 29.5 17.25 30.65 16.8 Q 30.9 16.55 31.15 14.95 L 32 4.05 Q 32 1.5 31 0.45 30.05 -0.5 27.5 -0.75 L 12.5 -0.75 M 25.95 2.2 Q 28.25 2.4 28.4 2.85 L 28.65 5 Q 28.9 12.6 29.25 14.75 L 15.25 14.75 Q 15.5 12.4 14.95 9.6 14.4 6.65 12.8 1.75 L 25.95 2.2 Z" />
        </g>
      </defs>
      <g transform="matrix( 1, 0, 0, 1, 0,0) ">
        <use xlink:href="#xfl1_Layer0_0_FILL" />
      </g>
    </g>
  </g>
</svg>