<?xml version='1.0' encoding='utf-8'?>
<svg xmlns="http://www.w3.org/2000/svg" xmlns:xlink="http://www.w3.org/1999/xlink" version="1.1" width="550px" height="400px" viewBox="0 0 550 400" preserveAspectRatio="none" data-xfl-root="MovieClips/PR2_Graphics_1_Apr_2014_fla/Symbol 1312">
  <g data-xfl-symbol="MovieClips/PR2_Graphics_1_Apr_2014_fla/Symbol 1312">
    <g data-svg-leaf="movieclips_pr2_graphics_1_apr_2014_fla_symbol_1312_53a6126aa3/t00_l000_f0004_r00.svg">
      <defs>
        <g id="xfl1_Layer0_0_FILL">
          <path fill="#FF9966" stroke="none" d=" M 54.7 11.35 Q 51.25 8.4 47.25 6.15 L 36.4 1 Q 36.05 1.25 36 1.75 35.7 3 34.4 3.2 31.9 3.65 29.45 5.35 27 7.15 25.4 13.05 23.7 18.95 26.05 28.25 25.85 29.2 25.2 30 22.6 33.15 18.65 34.65 15.25 35.8 13.15 38.25 13.25 38.75 13.1 39.15 12.7 40.9 13.95 42 15.75 43.5 18 43.1 21.3 42.4 24.3 40.85 33.8 35.8 43.7 31.85 L 49.65 29.45 Q 56.4 26.55 63 23.35 61.85 18.35 58.3 14.65 L 57.7 14.15 58 14.35 54.7 11.35 M 45.85 14.75 Q 44.05 10 41 5.95 40.15 4.9 39 4.1 59.2 13.85 60.15 19.3 L 60.85 23 Q 55.5 26 49.95 28.3 48.65 21.95 45.85 14.75 M 48.85 27.25 L 49.45 28.5 Q 43.35 31 38.55 32.45 34.15 19.1 36.9 5.35 L 37 3.75 Q 43.85 10.3 45.45 17.05 47 23.8 48.85 27.25 M 36.45 3.8 L 35.9 5.9 Q 32.6 19.6 37.8 32.65 32.7 34.4 28.05 36.95 23.95 39.15 19.65 40.95 15.2 42.8 14 38.35 L 26.75 31.3 Q 27.35 29.35 26.9 27.3 25.35 20.35 26.75 13.25 28.2 6 35.3 4.2 L 36.45 3.8 Z" />
        </g>
      </defs>
      <g transform="matrix( 1, 0, 0, 1, 0,0) ">
        <use xlink:href="#xfl1_Layer0_0_FILL" />
      </g>
    </g>
  </g>
</svg>