<?xml version='1.0' encoding='utf-8'?>
<svg xmlns="http://www.w3.org/2000/svg" xmlns:xlink="http://www.w3.org/1999/xlink" version="1.1" width="550px" height="400px" viewBox="0 0 550 400" preserveAspectRatio="none" data-xfl-root="UI/Popups (outside levels)/LevelInfo/Buttons/musicNote">
  <g data-xfl-symbol="UI/Popups (outside levels)/LevelInfo/Buttons/musicNote">
    <g data-svg-leaf="ui_popups_outside_levels_levelinfo_buttons_musicnote_9d283d19cb/t00_l000_f0000_r00.svg">
      <defs>
        <g id="xfl1_Layer0_0_FILL">
          <path fill="#000000" stroke="none" d=" M -1.8 6.6 L -1.6 7.85 Q -1.55 7.65 -1.55 7.4 -1.55 6.95 -1.8 6.6 M -2.4 6 Q -3.3 5.4 -4.5 5.4 -5.7 5.4 -6.55 6 -7.45 6.55 -7.45 7.4 -7.45 8.25 -6.55 8.85 -5.7 9.4 -4.5 9.4 -3.3 9.4 -2.4 8.85 -1.8 8.4 -1.6 7.85 L -1.8 6.6 Q -2 6.25 -2.4 6 M 7.5 2.3 L 7.5 3.9 7.5 2.3 Q 7.35 2.15 7.15 2 6.25 1.4 5.05 1.4 3.85 1.4 3 2 2.1 2.55 2.1 3.4 2.1 4.25 3 4.85 3.85 5.4 5.05 5.4 6.25 5.4 7.15 4.85 8 4.25 8 3.4 8 2.75 7.5 2.3 Z" />
        </g>
        <path id="xfl1_Layer0_0_1_STROKES" stroke="#000000" stroke-width="1" stroke-linejoin="round" stroke-linecap="round" fill="none" d=" M -1.8 6.6 L -1.8 -5.3 Q -0.2 -4.8 2.65 -5.75 5.9 -6.85 7.5 -9.05 L 7.5 2.3 7.5 3.9 M -1.6 7.85 L -1.8 6.6" />
      </defs>
      <g transform="matrix( 1, 0, 0, 1, 0,0) ">
        <use xlink:href="#xfl1_Layer0_0_FILL" />
        <use xlink:href="#xfl1_Layer0_0_1_STROKES" />
      </g>
    </g>
  </g>
</svg>