<?xml version='1.0' encoding='utf-8'?>
<svg xmlns="http://www.w3.org/2000/svg" xmlns:xlink="http://www.w3.org/1999/xlink" version="1.1" width="550px" height="400px" viewBox="0 0 550 400" preserveAspectRatio="none" data-xfl-root="Buttons/Symbol 1357">
  <g data-xfl-symbol="Buttons/Symbol 1357">
    <g transform="matrix(1.125 0 0 1.125 -9 -9)">
      <g data-xfl-symbol="MovieClips/Symbol 1317">
        <g data-svg-leaf="movieclips_symbol_1317_6df1c05aab/t00_l000_f0000_r00.svg">
          <defs>
            <linearGradient id="xfl1_Gradient_1" gradientUnits="userSpaceOnUse" x1="8" y1="0" x2="8" y2="16" spreadMethod="pad">
              <stop offset="0%" stop-color="#999999" />
              <stop offset="100%" stop-color="#333333" />
            </linearGradient>
            <g id="xfl1_Layer0_0_FILL">
              <path fill="#FFFFFF" stroke="none" d=" M 16 8 Q 16 4.7 13.65 2.3 11.3 0 8 0 4.7 0 2.3 2.3 0 4.7 0 8 0 11.3 2.3 13.65 4.7 16 8 16 11.3 16 13.65 13.65 16 11.3 16 8 Z" />
            </g>
            <path id="xfl1_Layer0_0_1_STROKES" stroke="url(#xfl1_Gradient_1)" stroke-width="0" stroke-linejoin="round" stroke-linecap="round" fill="none" d=" M 13.65 2.3 Q 16 4.7 16 8 16 11.3 13.65 13.65 11.3 16 8 16 4.7 16 2.3 13.65 0 11.3 0 8 0 4.7 2.3 2.3 4.7 0 8 0 11.3 0 13.65 2.3 Z" />
          </defs>
          <g transform="matrix( 1, 0, 0, 1, 0,0) ">
            <use xlink:href="#xfl1_Layer0_0_FILL" />
            <use xlink:href="#xfl1_Layer0_0_1_STROKES" />
          </g>
        </g>
      </g>
    </g>
    <g transform="matrix(1.3098754883 0 0 1.3098754883 -2.25 -8.6)">
      <g data-xfl-symbol="MovieClips/Symbol 1356">
        <g data-svg-leaf="movieclips_symbol_1356_2c2f6687f3/t00_l000_f0000_r00.svg">
          <defs>
            <g id="xfl2_Layer0_0_FILL">
              <path fill="#FF9900" stroke="none" d=" M 1.7 10.2 Q 1.1 10.2 0.7 10.6 0.3 11 0.3 11.6 0.3 12.2 0.7 12.6 1.1 13 1.7 13 2.3 13 2.7 12.6 3.1 12.2 3.1 11.6 3.1 11 2.7 10.6 2.3 10.2 1.7 10.2 M 3.05 0.15 L 1.85 0 0.55 0.2 Q 0.05 0.45 0 3.2 -0.05 5.95 0.4 7.45 0.8 9 1.65 9 2.45 9 3 7.6 3.5 6.15 3.45 3.25 3.4 0.35 3.05 0.15 Z" />
            </g>
          </defs>
          <g transform="matrix( 1, 0, 0, 1, 0,0) ">
            <use xlink:href="#xfl2_Layer0_0_FILL" />
          </g>
        </g>
      </g>
    </g>
  </g>
</svg>