<?xml version='1.0' encoding='utf-8'?>
<svg xmlns="http://www.w3.org/2000/svg" xmlns:xlink="http://www.w3.org/1999/xlink" version="1.1" width="550px" height="400px" viewBox="0 0 550 400" preserveAspectRatio="none" data-xfl-root="MovieClips/clockMC">
  <g data-xfl-symbol="MovieClips/clockMC">
    <g transform="matrix(0.0390167236 0 0 0.0390167236 -10 -10)">
      <g data-xfl-symbol="Images/clock_icon.svg">
        <g data-svg-leaf="images_clock_icon_svg_347eb8ce16/t00_l000_f0000_r00.svg">
          <defs>
            <g id="xfl1_Layer0_0_MEMBER_0_MEMBER_0_FILL">
              <path fill="#000000" stroke="none" d=" M 437 75 Q 400.75 38.75 354 19.35 307.25 0 256 0 204.7 0 157.95 19.35 111.2 38.75 74.95 75 38.7 111.25 19.35 158 0 204.7 0 256 0 307.3 19.35 354.05 38.7 400.8 74.95 437.05 111.2 473.3 157.95 492.65 204.6828125 511.99296875 255.95 512 L 256 512 Q 307.2728515625 511.990625 354 492.65 400.75 473.3 437 437.05 473.25 400.8 492.65 354.05 512 307.3 512 256 512 204.75 492.65 158 473.25 111.25 437 75 M 342.5 47.1 Q 383.75 64.2 415.8 96.2 447.8 128.25 464.9 169.5 482 210.75 482 256 482 301.3 464.9 342.55 447.8 383.8 415.8 415.85 383.75 447.85 342.5 464.9 301.25 482 256 482 210.7 482 169.45 464.9 128.2 447.85 96.15 415.85 64.15 383.8 47.1 342.55 30 301.3 30 256 30 210.75 47.1 169.5 64.15 128.25 96.15 96.2 128.2 64.2 169.45 47.1 210.7 30 256 30 301.25 30 342.5 47.1 Z" />
            </g>
            <g id="xfl1_Layer0_0_MEMBER_1_MEMBER_0_FILL">
              <path fill="#000000" stroke="none" d=" M 241 60.05 L 241 100.1 271 100.1 271 60.05 241 60.05 Z" />
            </g>
            <g id="xfl1_Layer0_0_MEMBER_2_MEMBER_0_FILL">
              <path fill="#000000" stroke="none" d=" M 355.6 135.2 L 376.8 156.4 405.1 128.1 383.9 106.9 355.6 135.2 Z" />
            </g>
            <g id="xfl1_Layer0_0_MEMBER_3_MEMBER_0_FILL">
              <path fill="#000000" stroke="none" d=" M 411.9 241 L 411.9 271 451.95 271 451.95 241 411.9 241 Z" />
            </g>
            <g id="xfl1_Layer0_0_MEMBER_4_MEMBER_0_FILL">
              <path fill="#000000" stroke="none" d=" M 376.75 355.7 L 355.55 376.9 383.85 405.2 405.05 384 376.75 355.7 Z" />
            </g>
            <g id="xfl1_Layer0_0_MEMBER_5_MEMBER_0_FILL">
              <path fill="#000000" stroke="none" d=" M 271 452 L 271 411.95 241 411.95 241 452 271 452 Z" />
            </g>
            <g id="xfl1_Layer0_0_MEMBER_6_MEMBER_0_FILL">
              <path fill="#000000" stroke="none" d=" M 156.25 376.85 L 135.05 355.65 106.75 383.95 127.95 405.15 156.25 376.85 Z" />
            </g>
            <g id="xfl1_Layer0_0_MEMBER_7_MEMBER_0_FILL">
              <path fill="#000000" stroke="none" d=" M 100.05 271 L 100.05 241 60 241 60 271 100.05 271 Z" />
            </g>
            <g id="xfl1_Layer0_0_MEMBER_8_MEMBER_0_FILL">
              <path fill="#000000" stroke="none" d=" M 156.3 135.15 L 128 106.85 106.8 128.05 135.1 156.35 156.3 135.15 Z" />
            </g>
            <g id="xfl1_Layer0_0_MEMBER_9_MEMBER_0_FILL">
              <path fill="#000000" stroke="none" d=" M 361.85 271 L 361.85 241 271 241 271 150.15 241 150.15 241 271 361.85 271 Z" />
            </g>
          </defs>
          <g transform="matrix( 1, 0, 0, 1, 0,0) ">
            <use xlink:href="#xfl1_Layer0_0_MEMBER_0_MEMBER_0_FILL" />
          </g>
          <g transform="matrix( 1, 0, 0, 1, 0,0) ">
            <use xlink:href="#xfl1_Layer0_0_MEMBER_1_MEMBER_0_FILL" />
          </g>
          <g transform="matrix( 1, 0, 0, 1, 0,0) ">
            <use xlink:href="#xfl1_Layer0_0_MEMBER_2_MEMBER_0_FILL" />
          </g>
          <g transform="matrix( 1, 0, 0, 1, 0,0) ">
            <use xlink:href="#xfl1_Layer0_0_MEMBER_3_MEMBER_0_FILL" />
          </g>
          <g transform="matrix( 1, 0, 0, 1, 0,0) ">
            <use xlink:href="#xfl1_Layer0_0_MEMBER_4_MEMBER_0_FILL" />
          </g>
          <g transform="matrix( 1, 0, 0, 1, 0,0) ">
            <use xlink:href="#xfl1_Layer0_0_MEMBER_5_MEMBER_0_FILL" />
          </g>
          <g transform="matrix( 1, 0, 0, 1, 0,0) ">
            <use xlink:href="#xfl1_Layer0_0_MEMBER_6_MEMBER_0_FILL" />
          </g>
          <g transform="matrix( 1, 0, 0, 1, 0,0) ">
            <use xlink:href="#xfl1_Layer0_0_MEMBER_7_MEMBER_0_FILL" />
          </g>
          <g transform="matrix( 1, 0, 0, 1, 0,0) ">
            <use xlink:href="#xfl1_Layer0_0_MEMBER_8_MEMBER_0_FILL" />
          </g>
          <g transform="matrix( 1, 0, 0, 1, 0,0) ">
            <use xlink:href="#xfl1_Layer0_0_MEMBER_9_MEMBER_0_FILL" />
          </g>
        </g>
      </g>
    </g>
  </g>
</svg>