<?xml version='1.0' encoding='utf-8'?>
<svg xmlns="http://www.w3.org/2000/svg" xmlns:xlink="http://www.w3.org/1999/xlink" version="1.1" width="550px" height="400px" viewBox="0 0 550 400" preserveAspectRatio="none" data-xfl-root="MovieClips/PR2_Graphics_1_Apr_2014_fla/Symbol 1312">
  <g data-xfl-symbol="MovieClips/PR2_Graphics_1_Apr_2014_fla/Symbol 1312">
    <g data-svg-leaf="movieclips_pr2_graphics_1_apr_2014_fla_symbol_1312_53a6126aa3/t00_l000_f0001_r00.svg">
      <defs>
        <g id="xfl1_Layer0_0_FILL">
          <path fill="#E59995" stroke="none" d=" M 5.85 19.75 L 9.85 22.75 5.1 25.5 Q 1.9 27.4 1.9 28.4 L 2 29.75 2.4 30 3.3 30.25 Q 4.8 30.25 9.55 27.05 14.25 23.9 14.25 23.1 14.25 21.3 9.7 18.5 5.5 15.95 4.2 15.95 3.55 17.75 5.85 19.75 M 30.4 22.9 Q 27.1 21.4 27.05 21.1 L 13.9 10.9 8.3 7.1 1.85 3.85 1.25 3.95 1 4.4 Q 1.95 7.15 11 13.9 18.8 19.7 23.5 22.15 17.5 28.9 11.2 32.45 4.9 35.95 4.9 36.75 4.9 37.5 5.3 38 5.7 38.5 6.3 38.5 9.2 38.5 18.25 31.2 27.25 23.9 30.4 22.9 M 43.85 47.25 Q 44.6 48.05 45.4 47.1 46.1 46.3 46.1 45.65 46.1 44.9 42.85 41.95 39.6 39 38.85 39 37.1 39 34.95 42.3 33.15 45.1 33.15 45.75 L 33.2 46.65 33.6 47.15 34.45 47.3 Q 35.2 47.3 35.85 46.6 L 39.2 42.7 Q 40.7 43.6 41.9 45.05 L 43.85 47.25 M 56.8 46.75 L 58.3 46.5 58.85 44.9 Q 56.25 43.05 47.9 35.5 39.6 28.05 39.3 27.3 L 23.9 39.5 Q 16.8 45.15 16.9 46.3 17.15 48.25 18 48.25 18.85 48.2 21.25 46.3 30.05 38.6 39.75 31 L 47.35 39.1 Q 54.7 46.65 56.8 46.75 M 46.65 22.6 L 48.1 24.55 Q 74.15 38.55 75.5 38.55 L 76.55 38.45 76.75 38.05 76.95 37.2 Q 71.9 33.8 62.75 28.85 53.55 23.9 49.95 22.45 55.6 19.75 73.6 6.1 70 4.6 58.1 12.7 46.75 20.45 46.65 22.6 M 71.35 17.1 L 71.05 17 Q 66.2 16.8 62.2 18.65 58.7 20.25 57.85 22.25 59.15 24.55 64.2 27 69.2 29.4 71.5 28.9 71.3 25.3 68.4 25.25 65.5 25.15 62.55 22.4 64.05 21.55 67.4 20.45 70.7 19.35 71.3 18.75 L 71.35 17.1 M 37.3 -3.1 Q 35.2 -5.15 32.25 -5.15 L 30.95 -5.1 30.9 -4.15 Q 30.9 -3.8 39.05 3.3 L 44.85 -2.25 46.65 -4.45 Q 45.15 -5.3 42.3 -3.3 L 39.1 -1.1 37.3 -3.1 M 15.2 -6.4 L 14.65 -7 Q 15.55 -2.1 27.25 8.1 33.1 13.2 38.9 17.35 40.3 17.35 42.05 15.5 L 59.45 -2.6 Q 61.25 -4.6 61.25 -5.85 L 61.2 -6.5 61.15 -6.45 60.95 -6.5 Q 58.5 -6.65 51.7 -0.95 44.35 5.3 38.8 13.05 36.5 10.15 25.8 1.75 L 15.2 -6.4 Z" />
        </g>
      </defs>
      <g transform="matrix( 1, 0, 0, 1, 0,0) ">
        <use xlink:href="#xfl1_Layer0_0_FILL" />
      </g>
    </g>
  </g>
</svg>