<?xml version='1.0' encoding='utf-8'?>
<svg xmlns="http://www.w3.org/2000/svg" xmlns:xlink="http://www.w3.org/1999/xlink" version="1.1" width="106.577682495117px" height="28px" viewBox="0 0 106.577682495117 28" preserveAspectRatio="none" data-xfl-root="MovieClips/PR2_Graphics_1_Apr_2014_fla/Symbol 1082">
  <g data-xfl-symbol="MovieClips/PR2_Graphics_1_Apr_2014_fla/Symbol 1082">
    <g transform="matrix(0.6201629639 0 0 0.6201629639 87.5 8.2)">
      <g data-xfl-symbol="MovieClips/Symbol 1079">
        <g data-xfl-symbol="Graphics/Symbol 1078">
          <g data-svg-leaf="graphics_symbol_1078_2be41edf3c/t00_l001_f0000_r00.svg">
            <defs>
              <g id="xfl1_Layer0_0_FILL">
                <path fill="#EA0000" stroke="none" d=" M 4.55 -4.55 Q 2.65 -6.45 0 -6.45 -2.65 -6.45 -4.55 -4.55 -6.45 -2.65 -6.45 0 -6.45 2.65 -4.55 4.55 -2.65 6.45 0 6.45 2.65 6.45 4.55 4.55 6.45 2.65 6.45 0 6.45 -2.65 4.55 -4.55 Z" />
              </g>
            </defs>
            <g transform="matrix( 1, 0, 0, 1, 0,0) ">
              <use xlink:href="#xfl1_Layer0_0_FILL" />
            </g>
          </g>
          <g data-svg-leaf="graphics_symbol_1078_2be41edf3c/t00_l000_f0000_r00.svg">
            <defs>
              <g id="xfl2_Layer0_0_FILL">
                <path fill="#FFFFFF" stroke="none" d=" M 6.05 -2.05 L 1.8 -2 0.05 -6.15 -1.5 -1.95 -6 -1.95 -2.35 0.4 -4.15 5.2 0.3 2.1 4.6 4.85 2.75 0.35 6.05 -2.05 Z" />
              </g>
            </defs>
            <g transform="matrix( 1, 0, 0, 1, 0,0) ">
              <use xlink:href="#xfl2_Layer0_0_FILL" />
            </g>
          </g>
        </g>
      </g>
    </g>
    <g transform="matrix(0.6201629639 0 0 0.6201629639 9.5 8.2)">
      <g data-xfl-symbol="MovieClips/Symbol 1079">
        <g data-xfl-symbol="Graphics/Symbol 1078">
          <g data-svg-leaf="graphics_symbol_1078_2be41edf3c/t00_l001_f0000_r00.svg">
            <defs>
              <g id="xfl3_Layer0_0_FILL">
                <path fill="#EA0000" stroke="none" d=" M 4.55 -4.55 Q 2.65 -6.45 0 -6.45 -2.65 -6.45 -4.55 -4.55 -6.45 -2.65 -6.45 0 -6.45 2.65 -4.55 4.55 -2.65 6.45 0 6.45 2.65 6.45 4.55 4.55 6.45 2.65 6.45 0 6.45 -2.65 4.55 -4.55 Z" />
              </g>
            </defs>
            <g transform="matrix( 1, 0, 0, 1, 0,0) ">
              <use xlink:href="#xfl3_Layer0_0_FILL" />
            </g>
          </g>
          <g data-svg-leaf="graphics_symbol_1078_2be41edf3c/t00_l000_f0000_r00.svg">
            <defs>
              <g id="xfl4_Layer0_0_FILL">
                <path fill="#FFFFFF" stroke="none" d=" M 6.05 -2.05 L 1.8 -2 0.05 -6.15 -1.5 -1.95 -6 -1.95 -2.35 0.4 -4.15 5.2 0.3 2.1 4.6 4.85 2.75 0.35 6.05 -2.05 Z" />
              </g>
            </defs>
            <g transform="matrix( 1, 0, 0, 1, 0,0) ">
              <use xlink:href="#xfl4_Layer0_0_FILL" />
            </g>
          </g>
        </g>
      </g>
    </g>
    <g transform="matrix(1 0 0 1.003112793 -0.55 2)">
      <text x="15.95" y="9.963" fill="#000000" font-family="Verdana" font-size="9.963" letter-spacing="0">Get a Hat at </text>
    </g>
    <g transform="matrix(1 0 0 1.003112793 -24 13)">
      <text x="30.8" y="9.963" fill="#B10101" font-family="Verdana" font-size="9.963" letter-spacing="0">Kongregate.com</text>
    </g>
  </g>
</svg>