
<svg xmlns="http://www.w3.org/2000/svg" version="1.1" xmlns:xlink="http://www.w3.org/1999/xlink" preserveAspectRatio="none" x="0px" y="0px" width="550px" height="400px" viewBox="0 0 550 400">
<defs>
<g id="Layer0_0_FILL">
<path fill="#4A483E" stroke="none" d="
M 10.1 -4.75
L 7.8 -7.4 -3.3 -6.8 -8.35 1.45 -9.9 0.3 -4.75 6 2.9 6.8 8.8 2.5 3.95 6.7 8.6 5.65 10.1 -4.75
M 2.6 -5.8
Q 4 -5.55 2.7 -5.65
L 2.6 -5.8
M 2.45 -6.1
L 0.1 -4.3 -0.9 0.05 -3.15 -3.7 2.45 -6.1
M 4.6 -4.95
L 3.35 -2.5 2.1 -4.95 4.6 -4.95
M 1.75 -2
L 3.15 -2.35 6.35 -2.7 6.7 -0.7
Q 5.2 1.1 3.15 1.75
L 1.75 -2
M 7 -4.35
L 1.55 -6.8
Q 5.05 -7.05 7 -4.35
M 0.8 4.1
L 2.8 4.1 1.75 5.1 0.8 4.1
M 4.7 2.2
L 3.6 3.25
Q -0.75 3.85 -3.15 0.15 -3.95 -1.1 -3.8 -2.5
L -0.9 1.15 4.7 2.2
M 1.4 -0.95
L 2.9 1.8 -0.35 -1 1.4 -0.95 Z"/>
</g>
</defs>

<g transform="matrix( 1, 0, 0, 1, 0,0) ">
<use xlink:href="#Layer0_0_FILL"/>
</g>
</svg>
