
<svg xmlns="http://www.w3.org/2000/svg" version="1.1" xmlns:xlink="http://www.w3.org/1999/xlink" preserveAspectRatio="none" x="0px" y="0px" width="550px" height="400px" viewBox="0 0 550 400">
<defs>
<g id="Layer0_0_FILL">
<path fill="#000000" fill-opacity="0.25098039215686274" stroke="none" d="
M 95 124
L 94.55 128.25
Q 93.05 137.95 96.15 146.95
L 96.45 148.5 101.95 146.55 100.55 143.65 103.45 144.75 109.55 146.1 105.95 144 110.2 142 100.1 141.05 102.45 137 99.25 126.25 98.4 129.05 96.8 124.55 95 124
M 6.7 105.85
Q 6.5 105.55 6 105.5 3.15 129.45 19.7 126.4
L 20.1 126.3
Q 13.45 115.65 6.7 105.85 Z"/>

<path fill="#FFFFFF" fill-opacity="0.5019607843137255" stroke="none" d="
M 90.1 131.2
L 94.55 128.25 95 124 92.7 120.4 87.25 130.85 90.1 131.2
M 5 112.25
L 5 107
Q 1.85 103.1 0.7 104.3 0 105.05 0 108.25
L 0 110.9
Q 0.5 113.25 3 113.25 4.5 113.25 4.75 112.75
L 5 112.25 Z"/>
</g>
</defs>

<g transform="matrix( 1, 0, 0, 1, 0,0) ">
<use xlink:href="#Layer0_0_FILL"/>
</g>
</svg>
