
<svg xmlns="http://www.w3.org/2000/svg" version="1.1" xmlns:xlink="http://www.w3.org/1999/xlink" preserveAspectRatio="none" x="0px" y="0px" width="550px" height="400px" viewBox="0 0 550 400">
<defs>
<g id="Layer0_0_FILL">
<path fill="#000000" stroke="none" d="
M 72.05 -64.85
Q 73.65 -64.3 74.9 -62.05 75.8 -60.5 80.75 -60.5 88.05 -60.5 90 -64.3 91 -66.2 90.55 -68.3 90.55 -74.6 88 -77.85 85.75 -80.7 82 -80.7 78.25 -80.7 75.1 -79.2 69.95 -76.7 69.2 -70.95
L 59.45 -71.5
Q 30.1 -71.5 11.3 -51.55 4.85 -44.65 0.75 -36.55 -2.5 -30.05 -2.5 -27 -2.5 -23.8 -0.15 -23.5
L 3.1 -29.95
Q 6.05 -36.25 8.8 -40.45 18.15 -55 32.15 -58.3 35.45 -59.05 50.25 -63.7 64.85 -67.45 72.05 -64.85
M 79.85 -66
Q 77.35 -66 75.55 -67.35 73.8 -68.7 73.8 -70.65 73.8 -72.6 75.55 -73.95 77.35 -75.3 79.85 -75.3 82.35 -75.3 84.1 -73.95 85.9 -72.6 85.9 -70.65 85.9 -68.7 84.1 -67.35 82.35 -66 79.85 -66 Z"/>
</g>
</defs>

<g transform="matrix( 1, 0, 0, 1, 0,0) ">
<use xlink:href="#Layer0_0_FILL"/>
</g>
</svg>
