
<svg xmlns="http://www.w3.org/2000/svg" version="1.1" xmlns:xlink="http://www.w3.org/1999/xlink" preserveAspectRatio="none" x="0px" y="0px" width="550px" height="400px" viewBox="0 0 550 400">
<defs>
<g id="Layer0_0_FILL">
<path fill="#000000" stroke="none" d="
M -50.05 -39.1
Q -57.55 -35.25 -67.35 -25.85
L -75.35 -13.55
Q -80.35 -5.25 -83.7 3.4 -92.85 27.25 -92.85 63.1 -92.85 98.05 -81.9 115.15 -69.6 134.45 -41.65 134.45 -8.2 134.45 10.5 116.35 28.9 98.5 28.9 67.2 28.9 47.6 21.65 24.45 17.9 12.45 12.95 0.1 7.55 -19.15 -1.25 -29.5 -13 -43.3 -31.9 -43.3 -41.85 -43.3 -50.05 -39.1
M -27.85 -38.1
Q -22.3 -38.1 -14.3 -31.6 -5.4 -24.35 2.2 -12.1 22 19.95 22 66.4 22 91.1 8.55 107.8 -7.6 127.85 -38.25 127.85 -70.5 127.85 -81.15 105.95 -85.45 97.1 -86.95 83.5 -87.95 74.35 -87.95 57.65 -87.95 43.55 -84.45 27.8 -80.65 10.5 -73.65 -3.45 -56.35 -38.1 -27.85 -38.1 Z"/>
</g>
</defs>

<g transform="matrix( 1, 0, 0, 1, 0,0) ">
<use xlink:href="#Layer0_0_FILL"/>
</g>
</svg>
