
<svg xmlns="http://www.w3.org/2000/svg" version="1.1" xmlns:xlink="http://www.w3.org/1999/xlink" preserveAspectRatio="none" x="0px" y="0px" width="550px" height="400px" viewBox="0 0 550 400">
<defs>
<g id="Layer0_0_FILL">
<path fill="#000000" fill-opacity="0.25098039215686274" stroke="none" d="
M -6.4 37.4
L -6.4 25.85 -17.9 25.85 -17.9 37.4 -6.4 37.4
M -14.2 -3.5
Q -19.4 -3.6 -21.55 -1.7 -23.7 0.2 -18.9 7.7
L -18.25 13.95
Q -18.15 14.6 -11.3 13.9
L -9.05 13.9 -9.2 5.2
Q -9.6 1.45 -10.9 -2.5
L -8.8 -3 -14.2 -3.5
M 8.9 36.3
Q 13.75 36.45 19.25 36.1 23.45 36.2 22.35 28.05
L 22.35 21.85
Q 21.35 21.75 15.45 23.1
L 7.1 25.05 8.9 25.25
Q 9.2 32.65 8.9 36.3
M 77.95 20.1
Q 78.75 13.4 73.75 5.1 68.75 -3.25 56.3 -3.75 43.85 -4.25 38.7 1.7 33.5 7.6 33.35 16.3 33.15 24.95 40.35 32 47.35 38.8 57.7 38.5 68.05 38.15 72.55 32.5 77.05 26.8 77.95 20.1
M 69.6 4.8
Q 75 9.95 75 17.25 75 24.55 69.6 29.7 64.2 34.85 56.55 34.85 48.9 34.85 43.5 29.7 38.1 24.55 38.1 17.25 38.1 9.95 43.5 4.8 48.9 -0.35 56.55 -0.35 64.2 -0.35 69.6 4.8
M 68.3 17.2
Q 68.3 13.65 65.2 11.15 62.05 8.65 57.6 8.65 53.15 8.65 50.05 11.15 46.9 13.65 46.9 17.2 46.9 20.75 50.05 23.25 53.15 25.75 57.6 25.75 62.05 25.75 65.2 23.25 68.3 20.75 68.3 17.2
M 11.75 -5.25
L 7.8 -4.65 5.65 -4.1
Q 6.35 -1.35 7.1 6.8 7.6 12.55 8.65 12.55 15.75 12.8 18.15 12.55
L 22.8 12.05 23 11.9
Q 22.75 11 21.85 5.25 20.8 -1.45 20.55 -4.85
L 11.75 -5.25 Z"/>
</g>
</defs>

<g transform="matrix( 1, 0, 0, 1, 0,0) ">
<use xlink:href="#Layer0_0_FILL"/>
</g>
</svg>
