
<svg xmlns="http://www.w3.org/2000/svg" version="1.1" xmlns:xlink="http://www.w3.org/1999/xlink" preserveAspectRatio="none" x="0px" y="0px" width="550px" height="400px" viewBox="0 0 550 400">
<defs>
<g id="Layer0_0_FILL">
<path fill="#000000" stroke="none" d="
M -15.4 -0.4
Q -15.5 -0.85 -15.75 -1.1 -19.15 -1.6 -21 9.05 -22.25 16.45 -22.25 23.55
L -21.25 32.25
Q -19.55 40.75 -16 40.75
L -1.45 40.05
Q 10.1 39.35 44 39.35
L 61.5 41.6 62.8 40.5
Q 63.8 39.35 63.8 39 63.8 38.4 64.25 37.05
L 64.65 35.05
Q 64.65 31.25 53.75 25.4 46.6 21.5 37.25 17.95
L 37.25 17.85
Q 36.15 15.85 34.8 15.75 31.65 14 23.65 10.2
L 22 9.45 22.25 9.05 20.95 8.95 16.35 6.8
Q 10.3 2.2 1.9 0.9
L -15.5 0 -15.4 -0.4
M -19.25 8.55
Q -18.8 3.25 -16.25 1.05 -0.25 1 2.95 1.5 6.95 2.1 11.55 4.65
L 11.35 5.05 14.15 7.5
Q 12.4 8.1 10.2 10.2 6.85 13.35 6.85 14.35 6.85 15.6 7.1 15 8.35 14.7 9.45 13.2
L 10.35 11.5
Q 11 10.15 13.45 9.75 15.2 9.5 16.1 8.8
L 17.8 9.8
Q 16.65 10.55 15.85 11.95 14.75 13.9 13.85 17.25 12.85 17 11.85 15.35 10.65 13.4 10.1 13
L 9.85 13.3
Q 10.3 14.9 11.25 16.35 12.6 18.45 14.5 19.25
L 15.85 16.65 16.6 14.25
Q 16.75 13.2 19.05 11.75
L 20.1 11.05 26.85 14.25
Q 25.35 14.6 24.35 15.85
L 23 18.7 21.75 17.6 21.5 18 22.55 19.5 21.85 20.25 22.5 20.5 22.95 20.1 24.05 21.4
Q 26.15 23.6 28.4 23.6 28.7 23.6 30.8 20.75 32.95 17.85 35.15 17.85
L 35.6 17.9 45.95 22.9
Q 54.9 27.15 59.25 30.25 37.35 29.45 12.05 28.9 -15.65 28.3 -20.2 28.7
L -20.75 23.4
Q -20.75 21.05 -20.15 16.25
L -19.25 8.55
M -19.75 31.5
L -20.05 29.55 11.8 31.05
Q 32.65 31.75 44 31.75
L 54.85 32.2
Q 58.45 32.25 59.7 30.55 63.4 33.25 63.4 35.05 61.55 40 61.15 40
L 49.65 38.9 25.75 37.75 -17 39
Q -18.5 39 -19.75 31.5
M 24.3 19.9
L 23.6 19.25 24.85 17.25
Q 25.65 15.85 28.35 16
L 30.65 15.85 32.65 16.6 31.75 17.4
Q 28.65 21.85 28 21.85 26.6 21.85 24.3 19.9 Z"/>
</g>
</defs>

<g transform="matrix( 1, 0, 0, 1, 0,0) ">
<use xlink:href="#Layer0_0_FILL"/>
</g>
</svg>
