
<svg xmlns="http://www.w3.org/2000/svg" version="1.1" xmlns:xlink="http://www.w3.org/1999/xlink" preserveAspectRatio="none" x="0px" y="0px" width="550px" height="400px" viewBox="0 0 550 400">
<defs>
<g id="Layer0_0_FILL">
<path fill="#000000" stroke="none" d="
M 113.8 -24.4
Q 111.95 -28.6 107.65 -29.55 103.35 -27.65 102.3 -22.6 99.3 -8.2 102.15 6.6 105.2 22.1 118.95 30.45 128.85 36.45 139.15 41.85 150.6 48.05 161.6 55.4 182.5 69.6 207.6 69.25 225.5 69.05 237.15 57.9
L 236.4 46.9
Q 235.85 38.4 223.9 43.1 212 47.8 207.6 44.6 203.2 41.35 207.75 22.95 212.35 4.55 220 -9.15 220.65 -14.15 218.85 -19.45 215.25 -30.05 205.9 -33.95 202.65 -35.05 199.6 -36.3
L 185 -41.75
Q 177.15 -44.45 171.3 -40.35 170.85 -36.7 166.2 -33.35 157.45 -27.2 150.55 -19 143.85 -11 135.25 -4.9 132.4 -2.85 129.25 -3.35 117.9 -4.65 116.3 -17.35 115.25 -21 113.8 -24.4
M 106.45 -14
Q 103.4 -22.05 109.25 -26.15
L 109.6 -26.05
Q 113.3 -21.1 113.45 -14.55 114.4 -7.8 119 -2.5 124.5 3.9 132.05 1 141.95 -2.7 148.9 -10.5 162 -25 175.75 -38.8 181.35 -39.3 177.9 -34.75 174.5 -30.3 170.2 -17.1 165.95 -3.9 182.4 -20.5 198.95 -37.1 209.1 -27.45 218.5 -17.1 213.55 -4.75 209.75 4.75 206.1 14.4 201.95 25.35 202.5 39.55 203.05 53.75 218.8 48 234.55 42.2 233.1 56.65 227.9 61.15 221.3 63.45 206.3 68.6 190.65 64.45 173.65 60 159.9 49.45 148.2 40.45 134.5 35.05 125.3 31.65 118.35 24.75 102.4 8.7 106.45 -14 Z"/>

<path fill="#6C3224" stroke="none" d="
M 109.25 -26.15
Q 103.4 -22.05 106.45 -14 102.4 8.7 118.35 24.75 125.3 31.65 134.5 35.05 148.2 40.45 159.9 49.45 173.65 60 190.65 64.45 206.3 68.6 221.3 63.45 227.9 61.15 233.1 56.65 234.55 42.2 218.8 48 203.05 53.75 202.5 39.55 201.95 25.35 206.1 14.4 209.75 4.75 213.55 -4.75 218.5 -17.1 209.1 -27.45 198.95 -37.1 182.4 -20.5 165.95 -3.9 170.2 -17.1 174.5 -30.3 177.9 -34.75 181.35 -39.3 175.75 -38.8 162 -25 148.9 -10.5 141.95 -2.7 132.05 1 124.5 3.9 119 -2.5 114.4 -7.8 113.45 -14.55 113.3 -21.1 109.6 -26.05
L 109.25 -26.15 Z"/>
</g>
</defs>

<g transform="matrix( 1, 0, 0, 1, 0,0) ">
<use xlink:href="#Layer0_0_FILL"/>
</g>
</svg>
