
<svg xmlns="http://www.w3.org/2000/svg" version="1.1" xmlns:xlink="http://www.w3.org/1999/xlink" preserveAspectRatio="none" x="0px" y="0px" width="550px" height="400px" viewBox="0 0 550 400">
<defs>
<g id="Layer0_0_FILL">
<path fill="#000000" stroke="none" d="
M 27.9 -107.9
Q 27 -106.95 24.95 -102.45 20.65 -92.75 6.95 -87.45 -15.55 -72.4 -27.5 -51.05 -37.95 -32.5 -35.45 -20.1 -33.8 -17.2 -32 -15.5 -30.3 -16.45 -27.35 -27.8 -25.85 -33.55 -24.6 -39.75 -23.55 -44.9 -17.95 -53.55 -12.25 -62.4 -7.05 -66.65
L 27.15 -93.15 34.7 -91.5
Q 43.9 -91.5 45.65 -95.35 46.2 -96.55 45.5 -99.95 44.5 -105 41.35 -107.65 38.55 -110.05 34.7 -110.05 29.95 -110.05 27.9 -107.9
M 30.65 -103.55
Q 31.95 -104.75 34.2 -104.75 36.45 -104.75 38.3 -103.55 40.05 -102.4 40.4 -100.75 40.75 -99.1 39.4 -97.9 38.05 -96.75 35.8 -96.75 33.55 -96.75 31.75 -97.9 29.95 -99.1 29.6 -100.75 29.25 -102.4 30.65 -103.55 Z"/>
</g>
</defs>

<g transform="matrix( 1, 0, 0, 1, 0,0) ">
<use xlink:href="#Layer0_0_FILL"/>
</g>
</svg>
