
<svg xmlns="http://www.w3.org/2000/svg" version="1.1" xmlns:xlink="http://www.w3.org/1999/xlink" preserveAspectRatio="none" x="0px" y="0px" width="550px" height="400px" viewBox="0 0 550 400">
<defs>
<g id="Layer0_0_FILL">
<path fill="#FFFFFF" fill-opacity="0.25098039215686274" stroke="none" d="
M 9.45 24.75
Q 7.9 24.05 5.7 24.05 3.5 24.05 1.95 24.75 0.4 25.45 0.4 26.45 0.4 27.45 1.95 28.15 3.5 28.85 5.7 28.85 7.9 28.85 9.45 28.15 11 27.45 11 26.45 11 25.45 9.45 24.75
M 62.65 7.9
Q 59.45 3.55 53.6 3.55 52.95 3.55 50.3 5.6 47.55 7.8 47.55 8.8 47.55 14 52.1 17.25 54.4 18.9 56.75 19.5 59.05 19.5 61.85 17.9 65 16.15 65 14.15 65 11.05 62.65 7.9
M 3.7 -0.1
Q 3.7 -0.85 2.5 -1.4 1.3 -1.95 -0.4 -1.95
L -3.3 -1.4
Q -4.5 -0.85 -4.5 -0.1 -4.5 0.65 -3.3 1.2
L -0.4 1.75
Q 1.3 1.75 2.5 1.2 3.7 0.65 3.7 -0.1 Z"/>
</g>
</defs>

<g transform="matrix( 1, 0, 0, 1, 0,0) ">
<use xlink:href="#Layer0_0_FILL"/>
</g>
</svg>
