
<svg xmlns="http://www.w3.org/2000/svg" version="1.1" xmlns:xlink="http://www.w3.org/1999/xlink" preserveAspectRatio="none" x="0px" y="0px" width="550px" height="400px" viewBox="0 0 550 400">
<defs>
<g id="Layer0_0_FILL">
<path fill="#000000" stroke="none" d="
M 61.5 -5.15
L 58.45 -17.35 58.95 -20.95 0.2 -19.1
Q 5.05 -43 -20.95 -37.5 -27.95 -36 -34.6 -39
L -37.4 -39.15 -45.2 -28.3
Q -53.25 -2.75 -60.3 24.6 -61.8 30.45 -60.8 36.65
L -60.55 37 -59.4 37.05 -61.05 38.85
Q -45.85 37.7 -32.5 24.95
L -30.4 24.75 -30.1 22.75 -28.65 20.35 -25.45 2.25 -15.7 3.6 -15.5 1.8 61.5 -5.15
M 54.6 -17.4
L 56.15 -9.25 -24.2 -1.9 -28.1 1.1
Q -32.45 8.3 -33.1 16.95
L -33.25 19.8 -58.55 36.3 -53.35 13.05 -53.3 13
Q -51.8 8.75 -49.9 4.5
L -51.55 3.3
Q -51.1 2.35 -47.95 0.25 -40.6 -10.9 -39.55 -23.85
L -39.5 -24.65
Q -33.3 -41.7 -11.6 -34.4 -7.65 -33.15 -3.35 -33.25
L -2.15 -20.05 -3.3 -19 -3.2 -18.9
Q -2.65 -18.8 -2.4 -18.45 -2 -17.95 -1.9 -17.2 -1.5 -15.2 -0.05 -18.55
L 54.6 -17.4 Z"/>

<path fill="#2F3025" stroke="none" d="
M -29.05 -2.65
L -28.15 -1.5 -26.85 -1.9 -29.05 -2.65 Z"/>

<path fill="#83836B" stroke="none" d="
M -45.7 -1.65
L -46.15 -1.6 -47.95 0.25
Q -51.1 2.35 -51.55 3.3
L -49.9 4.5
Q -51.8 8.75 -53.3 13
L -53.35 13.05 -58.55 36.3 -33.25 19.8 -33.1 16.95
Q -32.45 8.3 -28.1 1.1
L -28.15 -1.5 -29.05 -2.65
Q -37.35 -4.45 -45.7 -1.65 Z"/>

<path fill="#D2D8C9" stroke="none" d="
M 56.15 -9.25
L 54.6 -17.4 -0.05 -18.55
Q -1.5 -15.2 -1.9 -17.2 -2 -17.95 -2.4 -18.45 -2.65 -18.8 -3.2 -18.9
L -3.3 -19 -2.15 -20.05 -3.35 -33.25
Q -7.65 -33.15 -11.6 -34.4 -33.3 -41.7 -39.5 -24.65
L -39.55 -23.85
Q -40.6 -10.9 -47.95 0.25
L -46.15 -1.6 -45.7 -1.65
Q -37.35 -4.45 -29.05 -2.65
L -26.85 -1.9 -28.15 -1.5 -28.1 1.1 -24.2 -1.9 56.15 -9.25
M -16.5 -31.1
L -14 -31.1 -12.45 -29.75
Q -11.55 -28.7 -11.55 -26.15 -11.55 -23.75 -12.4 -21.1
L -13.6 -17.3 -15.65 -16.9 -16.5 -18.15 -16.5 -31.1 Z"/>

<path fill="#EE0000" stroke="none" d="
M -14 -31.1
L -16.5 -31.1 -16.5 -18.15 -15.65 -16.9 -13.6 -17.3 -12.4 -21.1
Q -11.55 -23.75 -11.55 -26.15 -11.55 -28.7 -12.45 -29.75
L -14 -31.1 Z"/>
</g>
</defs>

<g transform="matrix( 1, 0, 0, 1, 0,0) ">
<use xlink:href="#Layer0_0_FILL"/>
</g>
</svg>
