
<svg xmlns="http://www.w3.org/2000/svg" version="1.1" xmlns:xlink="http://www.w3.org/1999/xlink" preserveAspectRatio="none" x="0px" y="0px" width="550px" height="400px" viewBox="0 0 550 400">
<defs>
<g id="Layer0_0_FILL">
<path fill="#000000" stroke="none" d="
M 0.2 20.9
Q 0.15 23.2 1.3 24.55
L -19.25 25.85 -19.25 37.1
Q -18.75 37.75 -18.6 38.4 -18.4 38.75 -17 38.75 -0.4 37 17.3 37 22.2 37 23.65 33 24.25 31.25 24.25 26.05 24.25 22.2 23.65 21.7
L 19 21.85 1.85 24.5 2.25 23.85
Q 1.95 22.25 1.8 19.95
L 1.55 16.3 0.5 16.25 0.2 16.4 -0.25 17
Q 0.25 18 0.2 20.9
M 19.25 36.1
L 15.5 35.75 -17.25 37.1 -17.35 36.75 -17.75 31.5 -17.5 27 22.1 23.1
Q 22.75 24.3 22.75 25.9
L 22.5 29.65
Q 22.2 32.7 21.75 34.35 21.3 36.15 19.25 36.1
M 7.15 -5.65
L 3.25 -5.8 -13.25 -4.25 -22.85 -2.85 -23 -2.9 -23 -2.25 -21.2 4.5
Q -19.25 11.65 -18.85 15
L -12.5 15.05
Q 14.9 15.05 21.45 13.3 23.7 12.7 23.7 11.85
L 23.25 10.6
Q 23.25 8.45 22.65 6.45
L 22 3.45 33 4.75
Q 34.25 4.75 33.8 4.1
L 35.8 4.6
Q 32.6 9.2 32.6 15.4 32.6 16.6 33.55 19.85 34.8 24.25 36.9 28 43.3 39.35 54.3 39.35 68.25 39.35 74.8 30.85 78.8 25.65 78.8 20.75 78.8 8.65 71.6 1.75 65.2 -4.35 55.7 -4.65 46.45 -4.9 39.8 0.35 37.95 1.8 36.6 3.5
L 36.25 3.5 36.3 3.55 36.35 3.55 36.5 3.65 36.45 3.7 31.75 2.8
Q 30.2 2.2 28.05 2.3
L 25.85 2.65 23.75 2.6 22.3 2.8 21.9 2.8 21.75 1.55
Q 21.65 0.65 21.7 -0.65 21.75 -2.8 21.2 -4.85 20.6 -6.9 18.25 -6.85
L 12.3 -6.75
Q 8.7 -6.7 7.15 -5.65
M 6.65 -3.95
L 20.1 -3.6 20.95 2.75 19.05 2.7 19.05 3.25 21.05 3.4 21.05 3.45
Q 21.75 8.05 21.75 10.15
L 21.6 12.05 4.95 12.1
Q -4.65 12.2 -11.85 13.75
L -17.85 13.55 -19.2 6.25
Q -20 1.7 -21.35 -1
L -4.25 -3.45 -4.15 -3.15 -3.75 -3.15 6.65 -3.95
M 63.65 16.85
Q 63.65 15.55 61.8 14.4 60 13.25 57.75 12.95
L 57.15 12.9 50.1 8.9
Q 42.7 4.9 38.9 3.85
L 40 2.5
Q 39.75 2.05 38.75 2.05 63 -7.8 72.4 4.1 77.3 10.35 77.3 20.85 77 25.4 74.05 29.5 68.25 37.6 55.05 37.6 44.5 37.6 38.5 27.25 36.5 23.8 35.3 19.75 34.4 16.75 34.4 15.6 34.4 11.85 35.65 9.05 36.45 7.1 38.35 4.6
L 53.85 13.25
Q 51.8 14.2 51.8 17.15 51.8 17.95 52.95 18.75 54.8 20.1 58.75 20.1 61 20.1 62.4 19 63.65 18.05 63.65 16.85
M 61.9 17.85
L 61.85 17.9 61.8 17.85 61.9 17.85 Z"/>
</g>
</defs>

<g transform="matrix( 1, 0, 0, 1, 0,0) ">
<use xlink:href="#Layer0_0_FILL"/>
</g>
</svg>
