
<svg xmlns="http://www.w3.org/2000/svg" version="1.1" xmlns:xlink="http://www.w3.org/1999/xlink" preserveAspectRatio="none" x="0px" y="0px" width="550px" height="400px" viewBox="0 0 550 400">
<defs>
<g id="Layer0_0_FILL">
<path fill="#000000" fill-opacity="0.25098039215686274" stroke="none" d="
M 108.8 -27.05
L 105.5 -26.9
Q 102.4 -19.5 101.9 -11.2 100.3 13.6 114.25 24.05 128.3 34.45 148.35 46.4 168.45 58.35 200.25 69.9 221.05 68.3 229.15 61.15 237.25 54.05 233.05 48.25 229.3 43 223.2 45.1 218 46.9 212.6 46.2 208.2 46 207 42.3 205.75 38.15 206 33.75 206.6 22.65 211.2 12.3
L 217.4 -1.85
Q 221.5 -11.3 217.55 -20.85 212.35 -33.2 198.25 -34.2 191.15 -34.6 184.65 -31.45 184.3 -35.2 183.1 -39 182.65 -40.4 181.45 -40.55 171.65 -41.05 164.9 -32 158.8 -23.7 150.85 -17.1
L 135.8 -5
Q 125.65 2.75 120.2 -8.8 115.5 -18.65 108.8 -27.05
M 191.8 -16.95
Q 196.25 -24.45 200.85 -17.9 207.25 -8.65 201.75 1
L 202.65 2.95
Q 199.35 9.15 195.35 15.05 188.65 24.9 189.8 36.8 191.3 52.15 204.65 59.4 200.9 58.9 197.45 57.6 168.5 55.15 150.25 43.05 132.05 31 121.8 21.45 111.5 11.8 117.35 5.35 121.3 6.65 125.15 8.25 134.65 12.35 141.7 5.2 151.5 -4.6 159.85 -15.25
L 162.5 -13.15
Q 162.55 -11.7 161.85 -10.4 154.75 1.95 153.1 14.85 161.25 15.3 168.85 9.35 182.8 -1.6 191.8 -16.95
M 175.25 -20.5
Q 176.25 -26.6 182.1 -28.85
L 175.25 -20.5 Z"/>
</g>
</defs>

<g transform="matrix( 1, 0, 0, 1, 0,0) ">
<use xlink:href="#Layer0_0_FILL"/>
</g>
</svg>
