
<svg xmlns="http://www.w3.org/2000/svg" version="1.1" xmlns:xlink="http://www.w3.org/1999/xlink" preserveAspectRatio="none" x="0px" y="0px" width="550px" height="400px" viewBox="0 0 550 400">
<defs>
<linearGradient id="Gradient_1" gradientUnits="userSpaceOnUse" x1="0.7250000000000014" y1="-0.25" x2="-70.82499999999999" y2="-0.25" spreadMethod="pad">
<stop  offset="0%" stop-color="#FFFFFF" stop-opacity="0"/>

<stop  offset="100%" stop-color="#FFFF00"/>
</linearGradient>

<g id="Layer0_0_FILL">
<path fill="url(#Gradient_1)" stroke="none" d="
M -70 -1.1
Q -71.25 -1.1 -70.6 -1
L -70.35 0.25 -42.35 1.25 -7.45 1.25 -26.9 6.4
Q -39.5 9.6 -46.35 11.8
L -46.25 12.25
Q -32.6 8.85 -26.75 7.8 -2.35 3.4 -0.4 0.3
L 0.65 0.1 0.75 -0.75 -0.25 -1 -0.3 -1 -42 -11.85
Q -43.25 -11.85 -47 -12.75 -48.25 -12.75 -47.25 -12.6
L -47.25 -12.5
Q -42.15 -10.45 -25.45 -5.45 -11.75 -1.35 -5.65 -0.15
L -70 -1.1 Z"/>
</g>
</defs>

<g transform="matrix( 1, 0, 0, 1, 0,0) ">
<use xlink:href="#Layer0_0_FILL"/>
</g>
</svg>
