<?xml version='1.0' encoding='utf-8'?>
<svg xmlns="http://www.w3.org/2000/svg" version="1.1" width="550px" height="400px" viewBox="0 0 550 400" preserveAspectRatio="none" data-xfl-root="MovieClips/Symbol 18 bitmap">
  <g data-xfl-bitmap="Images/bitmap18.png">
    <path d="M28 28h1v1h-1z" fill="#3F271D" />
    <path d="M29 1h1v1h-1zM29 2h1v1h-1zM29 3h1v1h-1zM29 4h1v1h-1zM29 5h1v1h-1zM6 6h18v1h-18zM29 6h1v1h-1zM6 7h1v1h-1zM23 7h1v1h-1zM29 7h1v1h-1zM6 8h1v1h-1zM23 8h1v1h-1zM29 8h1v1h-1zM6 9h1v1h-1zM23 9h1v1h-1zM29 9h1v1h-1zM6 10h1v1h-1zM11 10h1v1h-1zM18 10h1v1h-1zM23 10h1v1h-1zM29 10h1v1h-1zM6 11h1v1h-1zM10 11h1v1h-1zM12 11h1v1h-1zM17 11h1v1h-1zM19 11h1v1h-1zM23 11h1v1h-1zM29 11h1v1h-1zM6 12h1v1h-1zM9 12h1v1h-1zM13 12h1v1h-1zM16 12h1v1h-1zM20 12h1v1h-1zM23 12h1v1h-1zM29 12h1v1h-1zM6 13h1v1h-1zM23 13h1v1h-1zM29 13h1v1h-1zM6 14h1v1h-1zM23 14h1v1h-1zM29 14h1v1h-1zM6 15h1v1h-1zM23 15h1v1h-1zM29 15h1v1h-1zM6 16h1v1h-1zM11 16h1v1h-1zM18 16h1v1h-1zM23 16h1v1h-1zM29 16h1v1h-1zM6 17h1v1h-1zM12 17h1v1h-1zM17 17h1v1h-1zM23 17h1v1h-1zM29 17h1v1h-1zM6 18h1v1h-1zM13 18h4v1h-4zM23 18h1v1h-1zM29 18h1v1h-1zM6 19h1v1h-1zM23 19h1v1h-1zM29 19h1v1h-1zM6 20h1v1h-1zM23 20h1v1h-1zM29 20h1v1h-1zM6 21h1v1h-1zM23 21h1v1h-1zM29 21h1v1h-1zM6 22h1v1h-1zM23 22h1v1h-1zM29 22h1v1h-1zM6 23h18v1h-18zM29 23h1v1h-1zM29 24h1v1h-1zM29 25h1v1h-1zM29 26h1v1h-1zM29 27h1v1h-1zM29 28h1v1h-1zM1 29h29v1h-29z" fill="#604030" />
    <path d="M28 2h1v1h-1zM28 3h1v1h-1zM28 4h1v1h-1zM28 5h1v1h-1zM28 6h1v1h-1zM28 7h1v1h-1zM28 8h1v1h-1zM28 9h1v1h-1zM28 10h1v1h-1zM28 11h1v1h-1zM28 12h1v1h-1zM28 13h1v1h-1zM28 14h1v1h-1zM28 15h1v1h-1zM28 16h1v1h-1zM28 17h1v1h-1zM28 18h1v1h-1zM28 19h1v1h-1zM28 20h1v1h-1zM28 21h1v1h-1zM28 22h1v1h-1zM28 23h1v1h-1zM28 24h1v1h-1zM28 25h1v1h-1zM28 26h1v1h-1zM28 27h1v1h-1zM2 28h26v1h-26z" fill="#68402F" />
    <path d="M3 3h24v1h-24zM3 4h24v1h-24zM3 5h24v1h-24zM3 6h3v1h-3zM24 6h3v1h-3zM3 7h3v1h-3zM24 7h3v1h-3zM3 8h3v1h-3zM24 8h3v1h-3zM3 9h3v1h-3zM24 9h3v1h-3zM3 10h3v1h-3zM24 10h3v1h-3zM3 11h3v1h-3zM24 11h3v1h-3zM3 12h3v1h-3zM24 12h3v1h-3zM3 13h3v1h-3zM24 13h3v1h-3zM3 14h3v1h-3zM24 14h3v1h-3zM3 15h3v1h-3zM24 15h3v1h-3zM3 16h3v1h-3zM24 16h3v1h-3zM3 17h3v1h-3zM24 17h3v1h-3zM3 18h3v1h-3zM24 18h3v1h-3zM3 19h3v1h-3zM24 19h3v1h-3zM3 20h3v1h-3zM24 20h3v1h-3zM3 21h3v1h-3zM7 21h16v1h-16zM24 21h3v1h-3zM3 22h3v1h-3zM7 22h16v1h-16zM24 22h3v1h-3zM3 23h3v1h-3zM24 23h3v1h-3zM3 24h24v1h-24zM3 25h24v1h-24zM3 26h24v1h-24z" fill="#905840" />
    <path d="M7 19h16v1h-16zM7 20h16v1h-16z" fill="#965B43" />
    <path d="M7 17h5v1h-5zM13 17h4v1h-4zM18 17h5v1h-5zM7 18h6v1h-6zM17 18h6v1h-6z" fill="#9C6045" />
    <path d="M7 15h16v1h-16zM7 16h4v1h-4zM12 16h6v1h-6zM19 16h4v1h-4z" fill="#A36347" />
    <path d="M7 13h16v1h-16zM7 14h16v1h-16z" fill="#AA674A" />
    <path d="M7 11h3v1h-3zM11 11h1v1h-1zM13 11h4v1h-4zM18 11h1v1h-1zM20 11h3v1h-3zM7 12h2v1h-2zM10 12h3v1h-3zM14 12h2v1h-2zM17 12h3v1h-3zM21 12h2v1h-2z" fill="#AE6A4D" />
    <path d="M7 9h16v1h-16zM7 10h4v1h-4zM12 10h6v1h-6zM19 10h4v1h-4z" fill="#B37053" />
    <path d="M7 8h16v1h-16z" fill="#B8785C" />
    <path d="M29 0h1v1h-1zM1 1h1v1h-1zM28 1h1v1h-1zM2 4h1v1h-1zM2 5h1v1h-1zM2 6h1v1h-1zM2 7h1v1h-1zM2 8h1v1h-1zM2 9h1v1h-1zM2 10h1v1h-1zM2 11h1v1h-1zM2 12h1v1h-1zM2 13h1v1h-1zM2 14h1v1h-1zM2 15h1v1h-1zM2 16h1v1h-1zM2 17h1v1h-1zM2 18h1v1h-1zM2 19h1v1h-1zM2 20h1v1h-1zM2 21h1v1h-1zM2 22h1v1h-1zM2 23h1v1h-1zM2 24h1v1h-1zM2 25h1v1h-1zM2 26h1v1h-1zM27 26h1v1h-1zM2 27h26v1h-26zM1 28h1v1h-1zM0 29h1v1h-1z" fill="#B8795F" />
    <path d="M2 2h26v1h-26zM2 3h1v1h-1zM27 3h1v1h-1zM27 4h1v1h-1zM27 5h1v1h-1zM27 6h1v1h-1zM27 7h1v1h-1zM27 8h1v1h-1zM27 9h1v1h-1zM27 10h1v1h-1zM27 11h1v1h-1zM27 12h1v1h-1zM27 13h1v1h-1zM27 14h1v1h-1zM27 15h1v1h-1zM27 16h1v1h-1zM27 17h1v1h-1zM27 18h1v1h-1zM27 19h1v1h-1zM27 20h1v1h-1zM27 21h1v1h-1zM27 22h1v1h-1zM27 23h1v1h-1zM27 24h1v1h-1zM27 25h1v1h-1z" fill="#B89080" />
    <path d="M2 1h26v1h-26zM1 2h1v1h-1zM1 3h1v1h-1zM1 4h1v1h-1zM1 5h1v1h-1zM1 6h1v1h-1zM1 7h1v1h-1zM1 8h1v1h-1zM1 9h1v1h-1zM1 10h1v1h-1zM1 11h1v1h-1zM1 12h1v1h-1zM1 13h1v1h-1zM1 14h1v1h-1zM1 15h1v1h-1zM1 16h1v1h-1zM1 17h1v1h-1zM1 18h1v1h-1zM1 19h1v1h-1zM1 20h1v1h-1zM1 21h1v1h-1zM1 22h1v1h-1zM1 23h1v1h-1zM1 24h1v1h-1zM1 25h1v1h-1zM1 26h1v1h-1zM1 27h1v1h-1z" fill="#B97E66" />
    <path d="M7 7h16v1h-16z" fill="#BC8167" />
    <path d="M0 0h29v1h-29zM0 1h1v1h-1zM0 2h1v1h-1zM0 3h1v1h-1zM0 4h1v1h-1zM0 5h1v1h-1zM0 6h1v1h-1zM0 7h1v1h-1zM0 8h1v1h-1zM0 9h1v1h-1zM0 10h1v1h-1zM0 11h1v1h-1zM0 12h1v1h-1zM0 13h1v1h-1zM0 14h1v1h-1zM0 15h1v1h-1zM0 16h1v1h-1zM0 17h1v1h-1zM0 18h1v1h-1zM0 19h1v1h-1zM0 20h1v1h-1zM0 21h1v1h-1zM0 22h1v1h-1zM0 23h1v1h-1zM0 24h1v1h-1zM0 25h1v1h-1zM0 26h1v1h-1zM0 27h1v1h-1zM0 28h1v1h-1z" fill="#C4937D" />
  </g>
</svg>