
<svg xmlns="http://www.w3.org/2000/svg" version="1.1" xmlns:xlink="http://www.w3.org/1999/xlink" preserveAspectRatio="none" x="0px" y="0px" width="550px" height="400px" viewBox="0 0 550 400">
<defs>
<g id="Layer0_0_FILL">
<path fill="#000000" fill-opacity="0.25098039215686274" stroke="none" d="
M 7.05 -16.65
Q -6.15 -36.9 -14.3 -14.65 -22.95 8.95 -11.05 25.4 -10.15 26.65 -8.35 26.55
L 0.15 26.9 -2.2 26.5 14.25 25 11.05 26.4 20.5 25.75 21.4 23.55
Q 18.95 1.6 7.05 -16.65
M -10.65 -1.7
Q -7.6 -14.7 1.75 -20.5 10.5 -6.8 11.4 10.75 11.55 13.65 12 16.5 5.6 18.55 -1.3 17.5
L -6.9 16.65
Q -8.45 16.1 -9.5 14.7 -12.55 6.4 -10.65 -1.7 Z"/>
</g>
</defs>

<g transform="matrix( 1, 0, 0, 1, 0,0) ">
<use xlink:href="#Layer0_0_FILL"/>
</g>
</svg>
