
<svg xmlns="http://www.w3.org/2000/svg" version="1.1" xmlns:xlink="http://www.w3.org/1999/xlink" preserveAspectRatio="none" x="0px" y="0px" width="550px" height="400px" viewBox="0 0 550 400">
<defs>
<g id="Layer0_0_FILL">
<path fill="#00CC99" stroke="none" d="
M 59.25 30.25
Q 54.9 27.15 45.95 22.9
L 35.6 17.9 35.15 17.85
Q 32.95 17.85 30.8 20.75 28.7 23.6 28.4 23.6 26.15 23.6 24.05 21.4
L 22.95 20.1 22.5 20.5 21.85 20.25 22.55 19.5 21.5 18 21.75 17.6 23 18.7 24.35 15.85
Q 25.35 14.6 26.85 14.25
L 20.1 11.05 19.05 11.75
Q 16.75 13.2 16.6 14.25
L 15.85 16.65 14.5 19.25
Q 12.6 18.45 11.25 16.35 10.3 14.9 9.85 13.3
L 9.45 13.2
Q 8.35 14.7 7.1 15 6.85 15.6 6.85 14.35 6.85 13.35 10.2 10.2 12.4 8.1 14.15 7.5
L 11.35 5.05 11.55 4.65
Q 6.95 2.1 2.95 1.5 -0.25 1 -16.25 1.05 -18.8 3.25 -19.25 8.55
L -20.15 16.25
Q -20.75 21.05 -20.75 23.4
L -20.2 28.7
Q -15.65 28.3 12.05 28.9 37.35 29.45 59.25 30.25 Z"/>
</g>
</defs>

<g transform="matrix( 1, 0, 0, 1, 0,0) ">
<use xlink:href="#Layer0_0_FILL"/>
</g>
</svg>
