
<svg xmlns="http://www.w3.org/2000/svg" version="1.1" xmlns:xlink="http://www.w3.org/1999/xlink" preserveAspectRatio="none" x="0px" y="0px" width="550px" height="400px" viewBox="0 0 550 400">
<defs>
<g id="Layer0_0_FILL">
<path fill="#519C30" stroke="none" d="
M 110.55 33.3
Q 102.9 33.25 100 41.4 95.85 53.1 85.5 58.15 91.5 42.75 89.3 25.25 90.3 35.7 84 48.7 81.25 54.3 78.7 60.25 49.15 65.75 61.15 88 63.8 92.85 69.65 94.05 64.5 116.25 69.8 136.05 53.15 152.1 33.9 137.65
L 32.55 136.75
Q 32.65 101.75 42.1 67.4 48.7 69.45 52.95 64.65 64.05 61.3 63.55 49.25 63.35 44.85 61 41.25
L 59.25 40.4 56.1 41.75 52.25 41.25
Q 60 17 81.75 8.75 87.1224609375 14.6408203125 88.7 21.8
L 87.5 15.65
Q 83 -2.4 68.35 12 56.15 24 49.05 39.9
L 38.95 32.6
Q 41.05 19.3 36.3 6.25 31 -0.5 26.65 4.15
L 26 4.15
Q 21.6 8.35 19.9 14.35 19.6 15.45 19.9 16.45
L 20.75 17.2
Q 17.25 27.55 19.5 38.2 19.95 40.35 19.3 42.65
L 18.5 43.75
Q 21.95 61.3 39.05 66.8 29.45 101.75 29.5 138
L 30.65 140.1
Q 58.55 159.15 75.65 133
L 73.15 132.95 73.15 94.75
Q 117.15 96.35 120.25 48.35 121.15 34.3 110.55 33.3
M 81.3 67.35
Q 99.6 55.7 110.45 35.25 119.85 74.05 84.45 89.1 79.2 91.35 73.5 90.95
L 73.8 88.85 70.7 87.2 70.15 90.55
Q 47.1 74.75 75.2 68.8
L 75.5 68.75 75.25 69.55 80.2 70.25 81.3 67.35
M 57.35 45.15
L 54.55 48.15
Q 48.4 73.1 26.85 51.35 23.15 47.7 24.5 42.5
L 24.5 41.6 23.9 41.05 23 40.8 23.65 36.7 21.7 36.1
Q 18.65 19.85 29.65 9.75 30.9 8.6 32.55 8.95
L 34 18.85 35.7 36.45 37.7 36.75
Q 41.85 45.4 51.55 45.25 54.65 45 57.35 45.15 Z"/>
</g>
</defs>

<g transform="matrix( 1, 0, 0, 1, 0,0) ">
<use xlink:href="#Layer0_0_FILL"/>
</g>
</svg>
