
<svg xmlns="http://www.w3.org/2000/svg" version="1.1" xmlns:xlink="http://www.w3.org/1999/xlink" preserveAspectRatio="none" x="0px" y="0px" width="550px" height="400px" viewBox="0 0 550 400">
<defs>
<g id="Layer0_0_FILL">
<path fill="#FFFFFF" stroke="none" d="
M 16.7 23.5
L 11.4 23.9 11.4 24.3
Q 15.4 25.55 19.75 25.55 21 25.55 21.1 25.15
L 21 25 21.25 24.75 21.2 27.95
Q 21.15 30 22 31.25
L 22.55 30.9 22.8 27.05
Q 22.8 24.35 22.25 22.9 18.3 23.9 16.7 23.5
M 59.05 -1.85
L 59.05 -1.3 59.8 -0.9 61 -0.55
Q 60.3 0.05 61.1 0.75
L 62.25 2
Q 60.95 1.5 60.3 1.5
L 59.85 1.6 59.8 1.8 59.85 2.25 63.2 4.6
Q 65.9 6.5 66.95 6.5 67.55 6.5 67.5 6.25
L 67.45 5.55
Q 67.4 5.2 67.5 5.1
L 70.8 8.05 71.25 8 71.6 7.4 71.8 6.6
Q 71.8 6.15 70.35 4.25 68.75 2.15 67.5 1.5
L 64.25 -1.1
Q 61.95 -2.65 61.1 -2.5
L 61.05 -2.25 62 -1.1 59.55 -2 59.1 -1.9 59.05 -1.85
M 7.75 -3.85
Q 7.75 -3.5 7.9 -3.35
L 8 -3.15 17.25 -2.65 17.6 1.85
Q 17.95 4.5 19 4.5 19.65 4.5 19.55 4.25
L 19.55 -1.9 19.75 -1.6 19.85 -0.25 19.75 3.3
Q 19.85 5.5 20.75 6.75
L 21.25 6.5 21.3 4.7
Q 21.55 2.3 21.25 -0.05 20.65 -4.8 17.75 -4.8 17.2 -4.8 17.1 -4.4 17 -4 15.95 -4 15 -4 11.65 -4.9
L 8.15 -5.55
Q 8.55 -5.2 9.25 -4.9
L 10.65 -4.4
Q 7.75 -4.4 7.75 -3.85 Z"/>
</g>
</defs>

<g transform="matrix( 1, 0, 0, 1, 0,0) ">
<use xlink:href="#Layer0_0_FILL"/>
</g>
</svg>
