
<svg xmlns="http://www.w3.org/2000/svg" version="1.1" xmlns:xlink="http://www.w3.org/1999/xlink" preserveAspectRatio="none" x="0px" y="0px" width="550px" height="400px" viewBox="0 0 550 400">
<defs>
<g id="Layer0_0_FILL">
<path fill="#000000" fill-opacity="0.32941176470588235" stroke="none" d="
M -29.55 31.6
L -32.9 23.8
Q -56.45 32.95 -61.2 36.55 -64.35 38.95 -65 41.8 -65.55 44.2 -64.45 48.55 -63.9 50.85 -62.7 52.6 -61.9 53.75 -61.1 54.3
L -29.55 31.6
M 34.6 53.25
L 34.5 53.2
Q 27.1 49.25 25.45 53.35
L 28.2 54.75
Q 28.05 55.5 28.35 56.6
L 28.75 58.25
Q 29.25 59.1 30.3 59.3
L 30.1 59.65
Q 30.35 60.5 30.75 60.8
L 31.15 60.95 31.75 61.05 32.85 60.05 32.5 59.35 33.1 59.2 34.75 58.55 35.2 58.05 36.6 58.75
Q 44.65 62.5 45.25 62.35
L 45.85 61.65 46.35 60.55
Q 38.65 55.4 34.6 53.25
M 13.3 45.45
Q 10.15 39.2 8.45 42.5 7.75 43.8 7.25 46.55 6.95 48.65 7.35 52.3
L 8.3 60
Q 8.55 63.35 6.9 67.35
L 5.5 71.25
Q 5.7 71.15 5.8 71.45 6.3 72.3 7.25 72.3
L 10.65 71.5
Q 18.1 70.35 17.85 67.65
L 17.2 61.55
Q 16.8 58.1 17.45 56.3 15.85 50.55 13.3 45.45
M 29.5 -54.6
L 29.2 -55.4
Q 29 -55.4 29 -55.5 27.4 -54.85 24.15 -48.3 20.85 -41.8 21.25 -40.2 21.4 -39.45 22.85 -37.75 24.7 -35.6 26.35 -36
L 27.3 -36.4 27.5 -36.8 27.55 -37.6 25.3 -39.35
Q 24.45 -39.75 24.35 -40.25 24.1 -41.15 26.9 -47.55 29.65 -53.95 29.5 -54.6 Z"/>

<path fill="#000000" fill-opacity="0.10196078431372549" stroke="none" d="
M 40.55 5
L 40.75 2.6 37.45 4.25 37.6 4.45 38.7 4.2
Q 39.3 4.05 40.55 5
M 16.05 -56.1
Q 10.2 -52.35 6.35 -51.4
L 12.35 -36.5
Q 12.4 -36.1 10 -32.35 7.35 -28.25 7.2 -24.05 7.15 -22.6 7.7 -19.5
L 8.4 -15.7
Q 8.6 -15.05 11.45 -9.35
L 14.25 -3.7
Q 14.55 -2.6 14.3 -0.85
L 5.25 -0.9 22.7 23.45
Q 21.9 22.95 18.65 22.8
L 10.45 22 14.4 28.25
Q 14.65 29.35 13.65 29.75
L -13.35 10.4 -15.55 19.25 -17.85 15.9
Q -20.3 12.65 -20.9 12.8 -24.15 13.6 -25.7 15.8 -27.8 18.85 -26.45 24.2 -25.25 29 -16.8 35.85 -12.55 39.4 -7.3 43.05
L -4.7 38.75
Q -2 34.5 -1.4 34.35 1.5 33.6 5.2 38.1
L 8.45 42.5
Q 10.15 39.2 13.3 45.45 15.85 50.55 17.45 56.3
L 19.15 58.35
Q 23.1 62.75 26.35 61.95
L 31.15 60.95 30.75 60.8
Q 30.35 60.5 30.1 59.65
L 30.3 59.3
Q 29.25 59.1 28.75 58.25
L 28.35 56.6
Q 28.05 55.5 28.2 54.75
L 25.45 53.35
Q 27.1 49.25 34.5 53.2
L 36.05 47.2
Q 38.05 38.7 40.2 10 39 10.1 36.65 8.35
L 35.05 7
Q 33.7 6.85 33.2 5.75 32.6 3.6 32 3
L 30.8 -1.8
Q 33.1 -2.5 33.95 -0.15 34.9 2.3 35.65 2.1
L 40.95 -1.05 41.85 -16.15
Q 41.2 -15.45 40.1 -15.2 39.85 -15.15 37.35 -16.75 34.9 -18.3 34.9 -18.45
L 34.95 -19.4
Q 33 -19.65 33.25 -20.8
L 34 -23.35 33.95 -23.5 33.65 -23.4
Q 32.25 -23.05 27.3 -26
L 26.75 -26.35 24.6 -26.45
Q 19.4 -26.8 17.4 -28.6
L 18.1 -29.25
Q 15.75 -29.6 14.6 -31.6
L 14.85 -32.3 15.85 -32.9
Q 16.65 -33.1 17.75 -32.4
L 20.25 -32.2
Q 22.85 -32.85 25.6 -34.9 28.1 -36.8 29 -36.9 29.3 -36.7 29.6 -35.5
L 29.8 -35.6 30 -35.35 30.35 -34.55
Q 30.5 -33.9 30.15 -32.95 29.75 -31.9 29.9 -31.35
L 36.05 -26.75
Q 40.75 -23.15 42.15 -21.25
L 42.65 -30.75 28.3 -57.1
Q 29.2 -57.6 29.5 -58.55 29.8 -59.4 29.55 -60.1 27.25 -56.7 14.45 -62.5
L 16.05 -56.1
M 29.2 -55.4
L 29.5 -54.6
Q 29.65 -53.95 26.9 -47.55 24.1 -41.15 24.35 -40.25 24.45 -39.75 25.3 -39.35
L 27.55 -37.6 27.5 -36.8 27.3 -36.4 26.35 -36
Q 24.7 -35.6 22.85 -37.75 21.4 -39.45 21.25 -40.2 20.85 -41.8 24.15 -48.3 27.4 -54.85 29 -55.5 29 -55.4 29.2 -55.4 Z"/>

<path fill="#000000" fill-opacity="0.2" stroke="none" d="
M 33.95 -0.15
Q 33.1 -2.5 30.8 -1.8
L 32 3
Q 32.6 3.6 33.2 5.75 33.7 6.85 35.05 7
L 36.65 8.35
Q 39 10.1 40.2 10
L 40.4 9.95
Q 41.85 9.6 42.5 8.7 43 7.9 42.75 7.05
L 40.55 5
Q 39.3 4.05 38.7 4.2
L 37.6 4.45 37.45 4.25 40.75 2.6 42.95 1.25
Q 47.45 -0.95 56.7 -2.35
L 57.35 -2.85
Q 57.75 -3.25 57.55 -4 57.35 -4.75 56.9 -4.8
L 56.05 -4.8 46 -2.75
Q 43.2 -2.05 40.95 -1.05
L 35.65 2.1
Q 34.9 2.3 33.95 -0.15
M 29.9 -31.35
Q 29.75 -31.9 30.15 -32.95 30.5 -33.9 30.35 -34.55
L 30 -35.35 29.8 -35.6 29.6 -35.5
Q 29.3 -36.7 29 -36.9 28.1 -36.8 25.6 -34.9 22.85 -32.85 20.25 -32.2
L 17.75 -32.4
Q 16.65 -33.1 15.85 -32.9
L 14.85 -32.3 14.6 -31.6
Q 15.75 -29.6 18.1 -29.25
L 17.4 -28.6
Q 19.4 -26.8 24.6 -26.45
L 26.75 -26.35 27.3 -26
Q 32.25 -23.05 33.65 -23.4
L 33.95 -23.5 34 -23.35 33.25 -20.8
Q 33 -19.65 34.95 -19.4
L 34.9 -18.45
Q 34.9 -18.3 37.35 -16.75 39.85 -15.15 40.1 -15.2 41.2 -15.45 41.85 -16.15
L 42.6 -17.45
Q 43 -18.85 42.65 -20.25
L 42.15 -21.25
Q 40.75 -23.15 36.05 -26.75
L 29.9 -31.35 Z"/>
</g>
</defs>

<g transform="matrix( 1, 0, 0, 1, 0,0) ">
<use xlink:href="#Layer0_0_FILL"/>
</g>
</svg>
