
<svg xmlns="http://www.w3.org/2000/svg" version="1.1" xmlns:xlink="http://www.w3.org/1999/xlink" preserveAspectRatio="none" x="0px" y="0px" width="550px" height="400px" viewBox="0 0 550 400">
<defs>
<g id="Layer0_0_FILL">
<path fill="#000000" fill-opacity="0.25098039215686274" stroke="none" d="
M 63.2 34
Q 61.5 30.05 58.9 28.15 58.35 27.75 50.5 23.6 41.95 19.1 38.05 17.25
L 20.5 8.65
Q 12.8 4.8 9.15 3.35 0.6 0 -13.25 0 -18.4 0 -20.45 7.4 -21.7 11.9 -21.7 18.75
L -21.65 22.95
Q -21.45 25.65 -20.6 27
L -21.7 28.35 -20.2 27.1 -20.35 32.4
Q -19.65 39.75 -13.25 39.75 -9.1 39.25 -3 39.6
L 10.9 39
Q 18.7 38.1 39.6 39.35 60.5 40.6 58.35 41.05 62.25 40.85 63.85 39 64.85 37.8 63.2 34
M 45.2 25.55
Q 49.4 27.9 51.3 29.75 50.5 30.35 49.45 30.65
L 43.4 31.15 -6.45 28.6
Q -7.65 28.6 -9.8 20.95
L -11.75 13.2
Q -11.75 5.95 -4.55 5.95 3.4 5.95 13.35 11.4 14.9 12.25 20.05 15.35 23.35 17.35 24.55 17.65 36.9 20.9 45.2 25.55
M -20.55 19.55
L -20.5 19.2 -20.5 19.6 -20.55 19.55
M -20.55 15.25
L -20.65 15.5 -20.75 15.25 -20.55 15.25 Z"/>
</g>
</defs>

<g transform="matrix( 1, 0, 0, 1, 0,0) ">
<use xlink:href="#Layer0_0_FILL"/>
</g>
</svg>
