
<svg xmlns="http://www.w3.org/2000/svg" version="1.1" xmlns:xlink="http://www.w3.org/1999/xlink" preserveAspectRatio="none" x="0px" y="0px" width="550px" height="400px" viewBox="0 0 550 400">
<defs>
<g id="Layer0_0_FILL">
<path fill="#FFFFFF" stroke="none" d="
M -43.25 27.8
L -47.95 26.4 -35.85 62.85 -43.25 27.8
M -61.7 20.95
L -62.55 24.3 -67.2 23.1
Q -66.5 27.1 -54.1 65.9
L -60.65 21.4 -61.7 20.95
M -13.8 36.35
L -13.55 41.5 -17.25 31.3 -18.4 31.5 -5 59.4 -5.6 52.3 -2.45 51.8 -13.8 36.35
M 19.25 55.2
L 29.95 79.6 30.1 63.75
Q 27.9 62.05 26.9 62.25 25.95 62.5 25.45 63.7
L 19.25 55.2 Z"/>

<path fill="#85858E" stroke="none" d="
M 33.05 44.5
L 31.8 44.45
Q 28.95 45.15 27.2 47.55 25.65 49.75 26.1 51.55 27.15 55.85 31.65 54.7 40.1 61.25 41.2 60.3 41.95 61.8 43.1 62.5
L 45.9 62.65
Q 47.3 62.3 49.4 60.35 52.15 57.8 51.55 55.3
L 50.85 53.5
Q 45.5 55.7 42.25 56.1 42.4 55.3 40.55 52.6 36.75 47.25 35.4 46 34.1 44.7 33.05 44.5
M 65.1 -2.6
L 63.3 -9.95
Q 48.9 -3.15 31.15 -1.9
L 32.95 5.45
Q 45.95 -3.35 65.1 -2.6
M 29.4 -56.35
L 30.45 -56.9 30.25 -58.3
Q 28.75 -62.15 26.85 -63.2 23.05 -65.4 20.7 -52.5
L 22.35 -52.4
Q 19.9 -43.75 16.65 -37.4
L 14.2 -32.65
Q 15.15 -28.75 22.15 -30.5 24.5 -31.05 26.15 -32.55 28.1 -34.35 27.6 -36.25 27.45 -36.95 26.5 -37.9 25.5 -38.95 24.35 -39.3 27 -53.8 29.4 -56.35 Z"/>
</g>
</defs>

<g transform="matrix( 1, 0, 0, 1, 0,0) ">
<use xlink:href="#Layer0_0_FILL"/>
</g>
</svg>
