
<svg xmlns="http://www.w3.org/2000/svg" version="1.1" xmlns:xlink="http://www.w3.org/1999/xlink" preserveAspectRatio="none" x="0px" y="0px" width="550px" height="400px" viewBox="0 0 550 400">
<defs>
<g id="Layer0_0_FILL">
<path fill="#000000" stroke="none" d="
M 25.95 -45.95
Q 25.35 -46.65 23.6 -46.65
L 6.25 -45.5 2.05 -41.15 -7.75 -33.25
Q -11.95 -29.7 -17.5 -26.1 -20.95 -23.35 -20.95 -19.35 -20.95 -18.1 -15.8 -7.05
L -3.8 18.4
Q -1.8 22.65 0.3 25.15 2.1 27.3 4.35 28.5 3.65 29.2 -0.05 40.4
L 5.75 40.6 23.2 40 23.25 39.05
Q 23.25 36.75 21.45 33 19.65 29.25 17.35 26.8 18.5 26.5 19.1 25.9
L 19.45 25.25
Q 19.45 21 9.3 2.3 -2.7 -19.85 -3.55 -21.95 0.25 -23.6 11.9 -31.6 26.25 -41.45 26.25 -45.1
L 25.95 -45.95
M 14.2 -42.1
L 19.4 -42.5
Q 8.05 -32.1 -1.05 -27.6 -4.35 -25.95 -4.85 -25.55 -5.85 -24.7 -5.85 -22.75 -5.85 -18.9 3.75 -0.05 12.9 17.85 17.4 24.05
L 16.25 23.75
Q 15.6 23.65 15.6 24.25
L 15.75 25.55
Q 15.5 26.2 13.45 26.05
L 12.65 23.65
Q 12.1 22.65 10.55 22.65
L 8.7 24.7
Q 6.7 26.75 5.65 26.75 2.5 22.6 1 18.4 -13.3 -14.05 -18.55 -19.7
L -12.4 -25.2 0 -34.95 6.15 -40.3
Q 8.8 -42.65 9.15 -42.6
L 14.2 -42.1
M 14.05 33.9
Q 13.1 31.75 11.8 31.1
L 13.1 37.85 3.75 37.15
Q 8.45 31.05 8.45 30
L 8.3 29.15 8.1 28.95 11.3 28.8 15.15 27.65 15.25 27.75 20.15 37.15 14.5 37.8
Q 15.15 36.2 14.05 33.9
M -11.65 -21.6
L -10.1 -24.6
Q -10.5 -25 -11.25 -25.05 -11.7 -24.65 -12.1 -24.5
L -12.45 -24.4 -12.65 -22.45
Q -12.65 -21.2 -12 -20.3 -11.3 -19.4 -10.2 -19.4 -9.25 -19.4 -7.45 -20.3
L -11.65 -21.6 Z"/>
</g>
</defs>

<g transform="matrix( 1, 0, 0, 1, 0,0) ">
<use xlink:href="#Layer0_0_FILL"/>
</g>
</svg>
