
<svg xmlns="http://www.w3.org/2000/svg" version="1.1" xmlns:xlink="http://www.w3.org/1999/xlink" preserveAspectRatio="none" x="0px" y="0px" width="550px" height="400px" viewBox="0 0 550 400">
<defs>
<g id="Layer0_0_FILL">
<path fill="#000000" fill-opacity="0.30196078431372547" stroke="none" d="
M 16.25 34.1
L 11.35 34.8 9.25 27.7 9.1 27.75
Q 6.6 28.6 3.95 32.6 2.6 34.7 2.1 36.75 2.1 38.8 4 39.15
L 16.75 39.5
Q 18.65 39.5 19.8 38.75 21.2 37.9 21.2 36.15
L 20.95 35.05
Q 20 34.1 16.25 34.1
M 9.95 -44.85
Q 8.95 -44.85 0.65 -37.6
L -11.7 -28.8
Q -15.75 -26.95 -17.5 -22.85 -18.55 -20.5 -18.55 -18.65 -0.5 28 9.1 27.7
L 9.7 26.85
Q 10.45 25.8 10.45 24.9
L -9.45 -15.7 -8.9 -16.25
Q -8.65 -16.6 -8.65 -17.25
L -10.3 -21.35
Q -10.3 -23.95 -2.6 -29.35 10.85 -38.75 16.1 -43.2 15.75 -43.7 14.95 -43.7 14.35 -43.7 14 -43.25
L 13.75 -42.8
Q 12.65 -44.85 9.95 -44.85 Z"/>
</g>
</defs>

<g transform="matrix( 1, 0, 0, 1, 0,0) ">
<use xlink:href="#Layer0_0_FILL"/>
</g>
</svg>
