
<svg xmlns="http://www.w3.org/2000/svg" version="1.1" xmlns:xlink="http://www.w3.org/1999/xlink" preserveAspectRatio="none" x="0px" y="0px" width="550px" height="400px" viewBox="0 0 550 400">
<defs>
<g id="Layer0_0_FILL">
<path fill="#FFFFFF" fill-opacity="0.3176470588235294" stroke="none" d="
M 33.9 89.4
Q 34.304296875 88.655078125 34.55 88 33.77734375 84.6787109375 31.6 81.05 28.75 76.3 25.2 73.8 21.6 71.4 19.45 72.7 17.3 74 17.75 78.25 18.25 82.6 21.1 87.35 23.753515625 91.7724609375 27 94.15 27.2552734375 94.3345703125 27.5 94.5 27.621875 94.5845703125 27.75 94.65 28.503125 94.584375 29.2 94.4 31.133984375 92.8349609375 32.6 91.4 33.2521484375 90.5251953125 33.9 89.4
M 34.6 58.5
Q 34.6 64.75 37.95 72 40.34453125 77.146484375 43.45 80.7 47.54375 80.345703125 52.15 78 54.77421875 76.687890625 56.45 75.45 56.6470703125 74.729296875 56.85 73.35 56.868359375 73.23359375 56.85 73.1 56.08984375 68.991796875 54 64.5 50.65 57.25 45.9 53.2 41.1 49.25 37.8 50.75 34.5 52.3 34.6 58.5
M 63.05 37.5
Q 59.75 38.45 58.9 44.35 57.95 50.2 60.05 57.45 61.648046875 63.00546875 64.25 66.9 64.793359375 66.9939453125 66.45 67.8 68.35 68.65 70.25 68.65 72.2701171875 68.65 74.75 67.4 75.044140625 67.2103515625 75.3 67 76.05 66.4 77.5 63.6 77.5755859375 63.4521484375 77.65 63.3 77.688671875 62.533203125 77.65 61.7 77.571484375 57.5677734375 76.2 52.8 74.1 45.55 70.3 41.1 66.35 36.55 63.05 37.5
M 93.4 39.15
Q 90.55 39.15 88.5 43.65 86.4 48.15 86.4 54.4 86.4 57.760546875 87 60.6
L 91.55 61.75
Q 94.315234375 61.75 98.9 60.85 99.3515625 60.4978515625 99.95 60 100.4 57.414453125 100.4 54.4 100.4 48.15 98.35 43.65 96.25 39.15 93.4 39.15 Z"/>
</g>
</defs>

<g transform="matrix( 1, 0, 0, 1, 0,0) ">
<use xlink:href="#Layer0_0_FILL"/>
</g>
</svg>
