
<svg xmlns="http://www.w3.org/2000/svg" version="1.1" xmlns:xlink="http://www.w3.org/1999/xlink" preserveAspectRatio="none" x="0px" y="0px" width="550px" height="400px" viewBox="0 0 550 400">
<defs>
<g id="Layer0_0_FILL">
<path fill="#000000" fill-opacity="0.14901960784313725" stroke="none" d="
M 42 86.9
L 41.95 86.9
Q 41.9490234375 87.087109375 41.85 87.3 42.298046875 87.089453125 42.7 86.85 42.3546875 86.9 42 86.9
M 52 1.25
Q 51.9912109375 1.7142578125 51.8 2.05 52.809765625 1.71875 54.35 1.15 53.262109375 1.2474609375 52 1.25
M 104.25 37.4
Q 100.6 32.8 94.8 31.65 85.45 29.6 79.9 37.4 74.2 25.25 60.85 25.9 49.45 26.85 46.8 37.75 41.05 35.65 35.4 37.75 22.5 42.55 24.45 56.35 22.1 57.1 19.95 58.2 12.5 62.05 10.1 70.35 8.5658203125 56.3763671875 14.05 43.85 14.1962890625 43.85 14.35 43.85 19.9 43.85 22.1 39.35 22.8 37.95 23.1 36.25 23.25 34.85 23.25 34.8 23.25 33.3357421875 22.95 31.85 24.7861328125 32.85 27.1 32.85 32.55 32.85 34.7 25.95 35.2017578125 24.2775390625 35.45 22.6 37.22265625 24.5 39.15 24.5 42.5 24.5 44.35 19.45 45.3 16.95 45.55 14.25 45.55 13.6865234375 45.25 11.75 45.3697265625 11.7142578125 45.5 11.65 45.5439453125 11.7015625 45.6 11.75 48 13.8 51.05 13.8 56 13.8 58.35 9.05 58.934765625 7.859765625 59.25 6.65 59.6796875 6.5572265625 60 6.35 60.05078125 6.3171875 60.1 6.25 66.2330078125 4.7978515625 72.85 4.3
L 67.75 1.9 61.55 3 66.1 -0.05 59.25 2.15
Q 58.9080078125 1.9806640625 58.35 2.2 57.907421875 2.3677734375 57.55 2.7
L 50 5.1 52 3.5
Q 47.634375 4.4595703125 43.45 5.65 42.8291015625 4.87578125 41.8 5.25 40.7724609375 5.64140625 40.75 6.5 37.6419921875 7.5076171875 34.65 8.65 33.536328125 9.08828125 32.45 9.55 31.56953125 9.0701171875 30.8 9.35 29.8 9.7 29.8 10.75 29.8 10.7912109375 29.8 10.85 16.5912109375 17.9 9.95 32.8 8.85 35.2 7.45 37.3 -1.8 51.45 2.05 67.2
L 3.4 63.35
Q 0.85 76 7.75 86.4 7.7 86.9 7.75 87.45 7.95 90.65 10.4 92.65 13 94.8 16.4 94.4
L 17.3 93.3
Q 20.3017578125 94.6185546875 23.35 94.6 23.9681640625 94 24.55 94 25.0328125 94 25.7 94.4 26.3798828125 94.3109375 27 94.15 23.753515625 91.7724609375 21.1 87.35 18.25 82.6 17.75 78.25 17.3 74 19.45 72.7 21.6 71.4 25.2 73.8 28.75 76.3 31.6 81.05 33.77734375 84.6787109375 34.55 88 34.8423828125 87.3919921875 34.95 86.85 35 86.70078125 35 86.55 35 84.4068359375 36.3 82.95 36.574609375 82.6693359375 36.9 82.4 37.0943359375 82.2431640625 37.3 82.1 39.10859375 80.8419921875 39.5 82.3 39.5 81.5337890625 40 81.15 40.1513671875 81.0318359375 40.35 80.95 40.9 80.75 42.1 80.75 42.7833984375 80.75 43.45 80.7 40.34453125 77.146484375 37.95 72 34.6 64.75 34.6 58.5 34.5 52.3 37.8 50.75 41.1 49.25 45.9 53.2 50.65 57.25 54 64.5 56.08984375 68.991796875 56.85 73.1 57.1623046875 71.40703125 57.35 70.75 58.2357421875 67.89609375 59.75 69.2
L 59.75 69.15
Q 59.75 68.6 60.1 68 60.6 67.15 61.5 67.15 61.805859375 67.15 62.9 67.65 63.55 66.9 64.15 66.9 64.1970703125 66.9 64.25 66.9 61.648046875 63.00546875 60.05 57.45 57.95 50.2 58.9 44.35 59.75 38.45 63.05 37.5 66.35 36.55 70.3 41.1 74.1 45.55 76.2 52.8 77.571484375 57.5677734375 77.65 61.7 80.4267578125 59.941796875 83.6 60.7 84.3177734375 60.155078125 84.65 60 85.4498046875 59.680078125 85.7 60.45 85.9373046875 60.4 86.15 60.4
L 87 60.6
Q 86.4 57.760546875 86.4 54.4 86.4 48.15 88.5 43.65 90.55 39.15 93.4 39.15 96.25 39.15 98.35 43.65 100.4 48.15 100.4 54.4 100.4 57.414453125 99.95 60 100.797265625 59.2998046875 102 58.3 102.8677734375 57.721484375 103.55 57.4 107.657421875 54.7505859375 107.75 57.95 108.9056640625 57.2734375 109.65 56.5 111.25 54.75 112.65 54.05 114.4044921875 53.1501953125 114.55 54.85 117.8033203125 50.7310546875 115.05 43.9 108.4 42.7 104.25 37.4
M 53.8 10.25
Q 53.77578125 10.2771484375 53.75 10.3 53.6115234375 10.3177734375 53.45 10.3
L 53.5 10.3
Q 53.656640625 10.278515625 53.8 10.25
M 49.05 10
L 49.05 10
Q 49.10390625 9.9765625 49.15 9.95 49.1173828125 9.98359375 49.05 10
M 29.05 23.1
Q 28.78359375 23.5142578125 28.45 23.9
L 27.55 24.95
Q 27.148828125 25.159765625 26.8 25.3 27.9138671875 24.179296875 29.05 23.1
M 26.65 29.75
Q 26.2759765625 29.75 25.9 29.65 26.027734375 29.6435546875 26.15 29.6 26.5447265625 29.72265625 26.95 29.75 26.8146484375 29.75 26.65 29.75
M 16.4 90.85
L 17.75 91.75 15.95 91.1 16.4 90.85 Z"/>

<path fill="#FFFFFF" fill-opacity="0.24705882352941178" stroke="none" d="
M 88.75 65.75
Q 89.372265625 65.5359375 89.9 65.3 89.1951171875 65.21796875 88.4 65 88.458203125 65.110546875 88.5 65.2 88.630078125 65.4822265625 88.75 65.75 Z"/>
</g>
</defs>

<g transform="matrix( 1, 0, 0, 1, 0,0) ">
<use xlink:href="#Layer0_0_FILL"/>
</g>
</svg>
