
<svg xmlns="http://www.w3.org/2000/svg" version="1.1" xmlns:xlink="http://www.w3.org/1999/xlink" preserveAspectRatio="none" x="0px" y="0px" width="550px" height="400px" viewBox="0 0 550 400">
<defs>
<g id="Layer0_0_FILL">
<path fill="#FFFFFF" fill-opacity="0.3568627450980392" stroke="none" d="
M 84.65 8.6
L 84.55 7.75
Q 82.3966796875 7.023828125 80.4 6.4 78.532421875 5.8560546875 76.8 5.4 70.26640625 3.6765625 66.1 3.55 64.33515625 6.8025390625 66.7 11.75 70.65 19.85 78.65 24 86.3 27.85 94.75 26.05 96.7 25.75 97.85 24.5 98.8861328125 23.3369140625 99.5 22.1 100.201171875 20.6857421875 100.35 19.15 99.9875 18.9828125 99.65 18.8 99.0890625 18.4888671875 98.6 18.2 97.1994140625 17.3576171875 96.35 16.65 92.3 13.3 91.55 12.45 91.1337890625 11.962109375 90.8 11.4 90.0658203125 10.8080078125 89.55 10.4 89.0453125 10.0134765625 88.8 9.85 88.7052734375 9.7982421875 88.6 9.75 87.1564453125 8.9486328125 86.25 8.45
L 84.65 8.6 Z"/>
</g>
</defs>

<g transform="matrix( 1, 0, 0, 1, 0,0) ">
<use xlink:href="#Layer0_0_FILL"/>
</g>
</svg>
