
<svg xmlns="http://www.w3.org/2000/svg" version="1.1" xmlns:xlink="http://www.w3.org/1999/xlink" preserveAspectRatio="none" x="0px" y="0px" width="550px" height="400px" viewBox="0 0 550 400">
<defs>
<g id="Layer0_0_FILL">
<path fill="#000000" stroke="none" d="
M 37.8 146.5
Q 37.759375 146.3587890625 37.7 146.2 37.6568359375 146.346875 37.6 146.45 37.694140625 146.4873046875 37.8 146.5
M 103.4 58.05
Q 110.2 61.25 114.65 54.8 120.25 46.55 115.2 37.35 103.45 16 80.1 5.05 57.2 -5.6 33.95 6.25 12.25 17.3 3.85 40.5 -4.7 64.1 5.65 87.9 7.2 92.65 11.3 95.75 12.840234375 96.8703125 14.5 97.25 15.250390625 97.455078125 16 97.5
L 16 97.55 18.45 97.3
Q 18.4525390625 97.2904296875 18.45 97.25 18.708203125 97.20703125 18.9 97.1 18.9650390625 97.1138671875 19 97.1 20.15 96.7 21.25 96.2 23.25 97.15 25.65 97.15 29.1 97.15 31.95 95.4 36.4 92.55 37.85 87.35 38.55 84.95 38.4 82.5 43.3 83.65 48.3 82.4 55.65 80.3 58.7 73.35 59.85 70.8 60.95 68.15 62.7 68.8 64.55 69.3 73.2 71.55 79 64.6 80.7 62.45 81.65 59.95 83.1 60.95 84.65 61.8 88.3 63.7 92.45 63.5 96.7 63.45 100.15 61 102 59.8 103.4 58.05
M 106.65 48.45
Q 106.15 48.55 106 48.85 97.85 64.55 83.05 57.1
L 84.3 51.6 81.9 49.25
Q 80.3 52.15 79.2 55.5 73.35 73.55 57.85 61.45
L 56.3 61.85
Q 56.4 62.45 56.4 63.1 56.95 81.9 36.95 78.9
L 34.5 76.2 32.5 76.3
Q 32.6 77.1 33 77.75 34.35 79.8 33.85 82.25 30.7 98.35 18.75 90.35 18.45 90.15 18.2 90 17.15 89.25 16 88.3
L 15 88.7
Q 15.05 89.2 15.1 89.75 15.25 91.15 16.5 92.1 16.55 92.15 16.6 92.15 16.5 92.9 16.4 94.05 15.4 94.1 14.5 93.5 8 89.2 7.4 81.25
L 8.4 80.45
Q -2 57.25 10.4 34.4 24 9.4 52.4 5.4 82.55 0.9 104.15 25.35
L 103.6 25.1 110.75 39.15 110 40.7
Q 112.8 42.65 113.1 45.95 113.8 54.55 105.55 55.5 106.85 54.3 107.4 52.65 107.9 51.15 107.65 49.45
L 106.95 49.4 106.65 48.45 Z"/>
</g>
</defs>

<g transform="matrix( 1, 0, 0, 1, 0,0) ">
<use xlink:href="#Layer0_0_FILL"/>
</g>
</svg>
