
<svg xmlns="http://www.w3.org/2000/svg" version="1.1" xmlns:xlink="http://www.w3.org/1999/xlink" preserveAspectRatio="none" x="0px" y="0px" width="550px" height="400px" viewBox="0 0 550 400">
<defs>
<g id="Layer0_0_FILL">
<path fill="#FFFFFF" fill-opacity="0.4980392156862745" stroke="none" d="
M 40.45 71.55
L 40.25 71.05
Q 40.15 71.2 40.05 71.35 40.2 71.45 40.45 71.55
M 119.35 71.25
Q 119.65 66.4 118.85 57.8 118.35 53.05 116.5 51.1 116.2736328125 50.7083984375 116.05 50.35 115.4869140625 51.6169921875 113.95 53.25 111.05 56.25 107.75 56.25 106.05 56.25 105.25 55.05 105.145703125 54.9041015625 105.05 54.75 104.222265625 56.0130859375 102.35 57.5 98.65 60.5 95 60.5 91.5 60.05 90.85 60.05 86.6 60.05 83.35 58.75 82.0484375 58.244921875 81.25 57.65 80.084375 58.7419921875 78.85 59.5 78.2904296875 60.68125 77.45 61.95 74 67.1 68.55 67.1 64.805859375 67.1 61.35 65.5 59.43046875 69.1890625 57.1 71.8 57.0484375 71.9412109375 57 72.05 56.55 73 55.85 74.95 55.15 76.55 54.05 77.5 50.95 80.1 41.75 80.1 39.1 80.1 35.75 78.5 35.1458984375 78.2025390625 34.65 77.9 34.2388671875 79.31640625 33.5 80.9 33.83828125 80.8966796875 34.15 80.95 36 81.3 36 83.35 36 85.7 33 89.35 29 94.1 23.2 94.1 21.8171875 94.1 20.7 93.3 19.29921875 93.081640625 18.45 92.25 18.4201171875 92.584375 18.3 92.85 18.1591796875 93.328515625 17.85 93.75 17.15 94.75 16 94.75 14.60625 94.75 13.9 93.8 13.7140625 93.7505859375 13.55 93.65
L 13.75 95.35
Q 12.85 95.35 12.2 95.6
L 12.25 95.6
Q 12.3 95.55 12.3 95.8 11.95 99.3 12.85 102.55 13.5 105 14.85 107.05 15.75 108.45 16.8 109.6 19.7 112.7 23.45 114.85 29 118.25 34.1 122.2 36.15 123.75 37.75 125.95 40.85 130.2 40.95 135.55 41.05 143.95 37.2 151.4 35.9 154.1 34.8 156.8
L 35.15 157.7 36.45 158.75
Q 36.95 157.95 37.45 157.1 40.35 152.25 42.2 147.05 44.15 141.5 44.1 135.8 44.1 132.4 43.15 129.25 43.15 129 43.15 128.7 43.15 128.6 42.45 127.1 42.35 126.85 42.25 126.7 41.85 125.7 41.3 124.8 41 124.25 40.65 123.6 37.85 118.15 36.9 114.85 36.25 112.7 35.65 107.7 35.65 107.65 35.65 107.6 39 106 41.3 102.1 42.5 100.05 43.35 97.3 44.05 94.9 44.25 94.55 45.3 95.6 46.25 95.6 50 95.6 51.4 93.65 52.2 91.35 52.65 90.75 53.9 88.85 57.3 88.4 61.15 87.95 62.3 87.15 64.95 83.75 67.4 81.4 72.1 76.75 77.5 76.75 77.65 76.75 79.35 77.65 81 78.5 82.15 78.5 87.9 78.5 92.9 72.25 95.05 69.65 96.05 68.5 101.7 71.85 107.75 77.15 110.65 79.65 117.3 86.75 118.5 89.75 120.95 93 125.6 99.1 130.65 99.1 131.35 99.1 131.6 98.9 131.8 98.65 131.95 98.65 132.2 98.35 132.2 97.25 130.2 96.35 127.75 94.65 125.65 93.25 124 91.2 122.5 89.45 121.35 87.2 120.8 86.05 120.25 84.75 119.2 81.85 119.05 78.1 119 75.9 119.35 71.25 Z"/>
</g>
</defs>

<g transform="matrix( 1, 0, 0, 1, 0,0) ">
<use xlink:href="#Layer0_0_FILL"/>
</g>
</svg>
