
<svg xmlns="http://www.w3.org/2000/svg" version="1.1" xmlns:xlink="http://www.w3.org/1999/xlink" preserveAspectRatio="none" x="0px" y="0px" width="550px" height="400px" viewBox="0 0 550 400">
<defs>
<g id="Layer0_0_FILL">
<path fill="#000000" stroke="none" d="
M 11.8 26.6
L 11.65 29.35
Q 11.4 32.9 14.05 35.25 14.4 35.55 14.7 35.75 15.75 36.45 16.25 35.65 16.45 35.2 16.55 34.55 17.3 27.95 11.8 26.6
M 23.85 14.35
Q 22.4 15.95 22.15 17.9 20.95 25.95 28.4 25.85
L 28.8 25.4 29 24.35
Q 27.55 19.15 24.65 14.35
L 23.85 14.35
M 49.85 3.7
Q 46.85 9.05 52.2 11.3
L 53.5 11
Q 54.7 6.55 50.5 3.1 50.1 3.35 49.85 3.7
M 40.8 18.55
Q 40.8 17.7 40.8 16.8 40.7 12.75 39.4 8.95
L 39.25 6.5
Q 36.7 6.85 35.85 9.45 33 17.85 40.8 18.55 Z"/>
</g>
</defs>

<g transform="matrix( 1, 0, 0, 1, 0,0) ">
<use xlink:href="#Layer0_0_FILL"/>
</g>
</svg>
