
<svg xmlns="http://www.w3.org/2000/svg" version="1.1" xmlns:xlink="http://www.w3.org/1999/xlink" preserveAspectRatio="none" x="0px" y="0px" width="550px" height="400px" viewBox="0 0 550 400">
<defs>
<g id="Layer0_0_FILL">
<path fill="#010101" stroke="none" d="
M 3.2 1.7
L 2.8 1.75 2.25 1.65 1.6 1.45 1.35 1.2 1.2 1.1 1.1 1 1 0.85 0.95 0.75 0.85 0.6 0.85 0.5
Q 0.75 -0.1 0.35 0 0 0.1 0 0.7 0 2.25 1.1 3.25 1.7 3.75 2.25 3.9 2.8 4 3.05 3.95
L 3.45 3.9 3.85 3.6
Q 4.25 3.2 4.1 2.65 4.1 2 3.65 1.85
L 3.2 1.7 Z"/>
</g>
</defs>

<g transform="matrix( 1, 0, 0, 1, 0,0) ">
<use xlink:href="#Layer0_0_FILL"/>
</g>
</svg>
