
<svg xmlns="http://www.w3.org/2000/svg" version="1.1" xmlns:xlink="http://www.w3.org/1999/xlink" preserveAspectRatio="none" x="0px" y="0px" width="550px" height="400px" viewBox="0 0 550 400">
<defs>
<g id="Layer0_0_FILL">
<path fill="#000000" fill-opacity="0.25098039215686274" stroke="none" d="
M 5.95 -5.95
L 1.35 -5.95
Q 1.6 -10.3 0.05 -14.1 -0.45 -15.3 -1.5 -15.55
L -14.1 -5.6 -13.05 -4.35 -10.8 -3.9
Q -31.35 -6 -34.8 10.5 -38.1 26.25 -55.65 30.3 -50.3 6.1 -37.2 -14.45 -33.25 -20.7 -30.1 -27.5 -21.6 -33.75 -11.05 -33.2 -9.85 -27.15 -12.75 -22.75 -16.05 -17.7 -19.55 -18.05 -22.65 -20.85 -22.35 -25.35 -22.2 -27.3 -22.55 -29.3
L -22.95 -31
Q -28.4 -25.5 -26.95 -16.8 -26.55 -14.35 -24.95 -12.7 -45.6 0.35 -8.05 -15
L -9.55 -33.25 -5.65 -33.45 -14.6 -35.3
Q -14.05 -38.65 -27.1 -33.75
L -26.8 -36.45 -28.4 -37.3 -30.25 -36.05 -32.2 -36.45
Q -38.25 -28.05 -43.45 -17.7 -48.35 -7.9 -49.95 2.4
L -47.45 0.4
Q -54.4 12.9 -60.3 31.05 -60.8 32.55 -60.6 34.15
L -52.35 35.25 -37.15 19.9 -35.7 29.2 -34 29.45
Q -34.7 14.25 -25.15 5.2 -19.4 -0.35 1.8 -1.7
L 42.25 -4.2
Q 61.5 -5.3 59.15 -11.65 56.75 -18 56.9 -19.8
L 6.35 -18.2
Q -2.9 -17.85 -2.65 -22.55 -2.4 -27.25 0.2 -32.3
L -3.65 -33.05 -2.4 -16.35 6.2 -15.85 6 -15.85 14.45 -15.4 11.7 -15.8 52.8 -15.65 50.7 -11.95 5.95 -5.95 Z"/>
</g>
</defs>

<g transform="matrix( 1, 0, 0, 1, 0,0) ">
<use xlink:href="#Layer0_0_FILL"/>
</g>
</svg>
