<?xml version='1.0' encoding='utf-8'?>
<svg xmlns="http://www.w3.org/2000/svg" xmlns:xlink="http://www.w3.org/1999/xlink" version="1.1" width="550px" height="400px" viewBox="0 0 550 400" preserveAspectRatio="none" data-xfl-root="MovieClips/Symbol 1106">
  <g data-xfl-symbol="MovieClips/Symbol 1106">
    <g data-xfl-symbol="Graphics/Symbol 1105">
      <g data-svg-leaf="graphics_symbol_1105_4b787e2210/t00_l001_f0000_r00.svg">
        <defs>
          <g id="xfl1_Layer0_0_FILL">
            <path fill="#010101" fill-opacity="0" stroke="none" d=" M 0 0 L 0 30 30 30 30 0 0 0 Z" />
          </g>
        </defs>
        <g transform="matrix( 1, 0, 0, 1, 0,0) ">
          <use xlink:href="#xfl1_Layer0_0_FILL" />
        </g>
      </g>
      <g data-svg-leaf="graphics_symbol_1105_4b787e2210/t00_l000_f0000_r00.svg">
        <defs>
          <g id="xfl2_Layer0_0_FILL">
            <path fill="#000000" stroke="none" d=" M 11 18 L 13 19 Q 18.15 15.45 22 7 24.55 3.15 20 5 12.2 10.5 11 18 M 8.65 21.3 Q 9 22.3 7.65 23.15 6.9 23.6 5.65 23.6 6.9 24.7 8.3 24.6 L 10.2 24.1 11.45 22.9 12.3 21.45 Q 12.4 20.85 11.4 19.65 10.75 18.9 10.2 18.95 L 9.8 18.95 Q 9.45 18.95 9.1 19.35 8.2 20.2 8.65 21.3 Z" />
          </g>
        </defs>
        <g transform="matrix( 1, 0, 0, 1, 0,0) ">
          <use xlink:href="#xfl2_Layer0_0_FILL" />
        </g>
      </g>
    </g>
  </g>
</svg>