<?xml version='1.0' encoding='utf-8'?>
<svg xmlns="http://www.w3.org/2000/svg" xmlns:xlink="http://www.w3.org/1999/xlink" version="1.1" width="550px" height="400px" viewBox="0 0 550 400" preserveAspectRatio="none" data-xfl-root="Buttons/Symbol 992">
  <g data-xfl-symbol="Buttons/Symbol 992">
    <g data-xfl-symbol="Graphics/Symbol 989">
      <g data-svg-leaf="graphics_symbol_989_89eb95974b/t00_l000_f0000_r00.svg">
        <defs>
          <g id="xfl1_Layer0_0_FILL">
            <path fill="#FFFFFF" stroke="none" d=" M 7 -3.1 Q 7 -7 3.1 -7 L -3.1 -7 Q -7 -7 -7 -3.1 L -7 3.1 Q -7 7 -3.1 7 L 3.1 7 Q 7 7 7 3.1 L 7 -3.1 Z" />
          </g>
          <path id="xfl1_Layer0_0_1_STROKES" stroke="#FF0000" stroke-width="2" stroke-linejoin="round" stroke-linecap="round" fill="none" d=" M 3.1 -7 L -3.1 -7 Q -7 -7 -7 -3.1 L -7 3.1 Q -7 7 -3.1 7 L 3.1 7 Q 7 7 7 3.1 L 7 -3.1 Q 7 -7 3.1 -7 Z" />
        </defs>
        <g transform="matrix( 1, 0, 0, 1, 0,0) ">
          <use xlink:href="#xfl1_Layer0_0_FILL" />
          <use xlink:href="#xfl1_Layer0_0_1_STROKES" />
        </g>
      </g>
    </g>
    <g transform="matrix(0.888885498 0 0 0.888885498 0 0)">
      <g data-xfl-symbol="Graphics/Symbol 990">
        <g data-svg-leaf="graphics_symbol_990_5dea3cfcf5/t00_l000_f0000_r00.svg">
          <defs>
            <path id="xfl2_Layer0_0_1_STROKES" stroke="#000000" stroke-width="2" stroke-linejoin="round" stroke-linecap="round" fill="none" d=" M 4.5 -4.5 L 0 0 4.5 4.5 M -4.5 4.5 L 0 0 -4.5 -4.5" />
          </defs>
          <g transform="matrix( 1, 0, 0, 1, 0,0) ">
            <use xlink:href="#xfl2_Layer0_0_1_STROKES" />
          </g>
        </g>
      </g>
    </g>
  </g>
</svg>