<?xml version='1.0' encoding='utf-8'?>
<svg xmlns="http://www.w3.org/2000/svg" xmlns:xlink="http://www.w3.org/1999/xlink" version="1.1" width="550px" height="400px" viewBox="0 0 550 400" preserveAspectRatio="none" data-xfl-root="Buttons/Symbol 992">
  <g data-xfl-symbol="Buttons/Symbol 992">
    <g data-xfl-symbol="Graphics/Symbol 988">
      <g data-svg-leaf="graphics_symbol_988_016c9754f2/t00_l001_f0000_r00.svg">
        <defs>
          <g id="xfl1_Layer0_0_FILL">
            <path fill="#FFFFFF" stroke="none" d=" M 5.35 -2.35 Q 5.35 -5.35 2.35 -5.35 L -2.4 -5.35 Q -5.4 -5.35 -5.4 -2.35 L -5.4 2.4 Q -5.4 5.4 -2.4 5.4 L 2.35 5.4 Q 5.35 5.4 5.35 2.4 L 5.35 -2.35 Z" />
          </g>
          <path id="xfl1_Layer0_0_1_STROKES" stroke="#999999" stroke-width="1" stroke-linejoin="round" stroke-linecap="round" fill="none" d=" M 2.35 -5.35 L -2.4 -5.35 Q -5.4 -5.35 -5.4 -2.35 L -5.4 2.4 Q -5.4 5.4 -2.4 5.4 L 2.35 5.4 Q 5.35 5.4 5.35 2.4 L 5.35 -2.35 Q 5.35 -5.35 2.35 -5.35 Z" />
        </defs>
        <g transform="matrix( 1, 0, 0, 1, 0,0) ">
          <use xlink:href="#xfl1_Layer0_0_FILL" />
          <use xlink:href="#xfl1_Layer0_0_1_STROKES" />
        </g>
      </g>
      <g data-svg-leaf="graphics_symbol_988_016c9754f2/t00_l000_f0000_r00.svg">
        <defs>
          <path id="xfl2_Layer0_0_1_STROKES" stroke="#FF0000" stroke-width="2" stroke-linejoin="round" stroke-linecap="round" fill="none" d=" M 2.5 -2.5 L 0 0 2.5 2.5 M -2.5 2.5 L 0 0 -2.5 -2.5" />
        </defs>
        <g transform="matrix( 1, 0, 0, 1, 0,0) ">
          <use xlink:href="#xfl2_Layer0_0_1_STROKES" />
        </g>
      </g>
    </g>
  </g>
</svg>