<?xml version='1.0' encoding='utf-8'?>
<svg xmlns="http://www.w3.org/2000/svg" xmlns:xlink="http://www.w3.org/1999/xlink" version="1.1" width="550px" height="400px" viewBox="0 0 550 400" preserveAspectRatio="none" data-xfl-root="Buttons/Symbol 998">
  <g data-xfl-symbol="Buttons/Symbol 998">
    <g data-xfl-symbol="Graphics/Symbol 996">
      <g data-svg-leaf="graphics_symbol_996_1425481f6a/t00_l001_f0000_r00.svg">
        <defs>
          <g id="xfl1_Layer0_0_FILL">
            <path fill="#FFFFFF" stroke="none" d=" M 5.35 -2.35 Q 5.35 -5.35 2.35 -5.35 L -2.4 -5.35 Q -5.4 -5.35 -5.4 -2.35 L -5.4 2.4 Q -5.4 5.4 -2.4 5.4 L 2.35 5.4 Q 5.35 5.4 5.35 2.4 L 5.35 -2.35 Z" />
          </g>
          <path id="xfl1_Layer0_0_1_STROKES" stroke="#999999" stroke-width="1" stroke-linejoin="round" stroke-linecap="round" fill="none" d=" M 2.35 -5.35 L -2.4 -5.35 Q -5.4 -5.35 -5.4 -2.35 L -5.4 2.4 Q -5.4 5.4 -2.4 5.4 L 2.35 5.4 Q 5.35 5.4 5.35 2.4 L 5.35 -2.35 Q 5.35 -5.35 2.35 -5.35 Z" />
        </defs>
        <g transform="matrix( 1, 0, 0, 1, 0,0) ">
          <use xlink:href="#xfl1_Layer0_0_FILL" />
          <use xlink:href="#xfl1_Layer0_0_1_STROKES" />
        </g>
      </g>
      <g data-svg-leaf="graphics_symbol_996_1425481f6a/t00_l000_f0000_r00.svg">
        <defs>
          <g id="xfl2_Layer0_0_FILL">
            <path fill="#BD07FF" stroke="none" d=" M -1.95 4 L -1.4 2.45 1.4 2.45 1.95 4 4.05 4 1.15 -3.75 -1.15 -3.75 -4 4 -1.95 4 M -0.95 1.05 L 0 -1.75 0.95 1.05 -0.95 1.05 Z" />
          </g>
        </defs>
        <g transform="matrix( 1, 0, 0, 1, 0,0) ">
          <use xlink:href="#xfl2_Layer0_0_FILL" />
        </g>
      </g>
    </g>
  </g>
</svg>