<?xml version='1.0' encoding='utf-8'?>
<svg xmlns="http://www.w3.org/2000/svg" xmlns:xlink="http://www.w3.org/1999/xlink" version="1.1" width="550px" height="400px" viewBox="0 0 550 400" preserveAspectRatio="none" data-xfl-root="Buttons/Symbol 998">
  <g data-xfl-symbol="Buttons/Symbol 998">
    <g data-xfl-symbol="Graphics/Symbol 997">
      <g data-svg-leaf="graphics_symbol_997_12e9daeef8/t00_l001_f0000_r00.svg">
        <defs>
          <g id="xfl1_Layer0_0_FILL">
            <path fill="#FFFFFF" stroke="none" d=" M 7 -3.1 Q 7 -7 3.1 -7 L -3.1 -7 Q -7 -7 -7 -3.1 L -7 3.1 Q -7 7 -3.1 7 L 3.1 7 Q 7 7 7 3.1 L 7 -3.1 Z" />
          </g>
          <path id="xfl1_Layer0_0_1_STROKES" stroke="#BD07FF" stroke-width="2" stroke-linejoin="round" stroke-linecap="round" fill="none" d=" M 3.1 -7 L -3.1 -7 Q -7 -7 -7 -3.1 L -7 3.1 Q -7 7 -3.1 7 L 3.1 7 Q 7 7 7 3.1 L 7 -3.1 Q 7 -7 3.1 -7 Z" />
        </defs>
        <g transform="matrix( 1, 0, 0, 1, 0,0) ">
          <use xlink:href="#xfl1_Layer0_0_FILL" />
          <use xlink:href="#xfl1_Layer0_0_1_STROKES" />
        </g>
      </g>
      <g data-svg-leaf="graphics_symbol_997_12e9daeef8/t00_l000_f0000_r00.svg">
        <defs>
          <g id="xfl2_Layer0_0_FILL">
            <path fill="#000000" stroke="none" d=" M 2.65 5 L 5.4 5 1.6 -5.25 -1.45 -5.25 -5.25 5 -2.55 5 -1.8 2.95 1.9 2.95 2.65 5 M 0.05 -2.6 L 1.3 1.05 -1.2 1.05 0.05 -2.6 Z" />
          </g>
        </defs>
        <g transform="matrix( 1, 0, 0, 1, 0,0) ">
          <use xlink:href="#xfl2_Layer0_0_FILL" />
        </g>
      </g>
    </g>
  </g>
</svg>