<?xml version='1.0' encoding='utf-8'?>
<svg xmlns="http://www.w3.org/2000/svg" xmlns:xlink="http://www.w3.org/1999/xlink" version="1.1" width="550px" height="400px" viewBox="0 0 550 400" preserveAspectRatio="none" data-xfl-root="MovieClips/Symbol 986">
  <g data-xfl-symbol="MovieClips/Symbol 986">
    <g data-xfl-symbol="Graphics/Symbol 985">
      <g data-svg-leaf="graphics_symbol_985_a046c4152d/t00_l001_f0000_r00.svg">
        <defs>
          <linearGradient id="xfl1_Gradient_1" gradientUnits="userSpaceOnUse" x1="-0.05" y1="-14" x2="-0.05" y2="14" spreadMethod="pad">
            <stop offset="0%" stop-color="#89BFF5" />
            <stop offset="49.01960784313726%" stop-color="#FFFFFF" />
            <stop offset="100%" stop-color="#7A6FE6" />
          </linearGradient>
          <g id="xfl1_Layer0_0_FILL">
            <path fill="url(#xfl1_Gradient_1)" stroke="none" d=" M 33 -8 Q 33 -13 29.45 -13 L -29.5 -13 Q -33.05 -13 -33.05 -8 L -33.05 8 Q -33.05 13 -29.5 13 L 29.45 13 Q 33 13 33 8 L 33 -8 Z" />
          </g>
        </defs>
        <g transform="matrix( 1, 0, 0, 1, 0,0) ">
          <use xlink:href="#xfl1_Layer0_0_FILL" />
        </g>
      </g>
      <g data-svg-leaf="graphics_symbol_985_a046c4152d/t00_l000_f0000_r00.svg">
        <defs>
          <linearGradient id="xfl2_Gradient_1" gradientUnits="userSpaceOnUse" x1="28.012500000000003" y1="0" x2="-28.012500000000003" y2="0" spreadMethod="pad">
            <stop offset="0%" stop-color="#FFFFFF" />
            <stop offset="18.823529411764707%" stop-color="#FFFFFF" stop-opacity="0" />
            <stop offset="84.70588235294117%" stop-color="#FFFFFF" stop-opacity="0" />
            <stop offset="100%" stop-color="#FFFFFF" />
          </linearGradient>
          <g id="xfl2_Layer0_0_FILL">
            <path fill="url(#xfl2_Gradient_1)" stroke="none" d=" M 33.05 -8 Q 33.05 -13 29.5 -13 L -29.45 -13 Q -33 -13 -33 -8 L -33 8 Q -33 13 -29.45 13 L 29.5 13 Q 33.05 13 33.05 8 L 33.05 -8 Z" />
          </g>
        </defs>
        <g transform="matrix( 1, 0, 0, 1, 0,0) ">
          <use xlink:href="#xfl2_Layer0_0_FILL" />
        </g>
      </g>
    </g>
  </g>
</svg>