<?xml version='1.0' encoding='utf-8'?>
<svg xmlns="http://www.w3.org/2000/svg" xmlns:xlink="http://www.w3.org/1999/xlink" version="1.1" width="550px" height="400px" viewBox="0 0 550 400" preserveAspectRatio="none" data-xfl-root="MovieClips/Symbol 1175">
  <g data-xfl-symbol="MovieClips/Symbol 1175">
    <g transform="matrix(1 0 0 1 1.5 0)">
      <g data-xfl-symbol="Graphics/Symbol 1174">
        <g data-svg-leaf="graphics_symbol_1174_4f70b02e07/t00_l002_f0000_r00.svg">
          <defs>
            <g id="xfl1_Layer0_0_FILL">
              <path fill="#000000" stroke="none" d=" M 18 22 Q 19.2 22 20.1 21.45 20.95 20.85 20.95 20 20.95 19.15 20.1 18.6 19.2 18 18 18 16.8 18 15.95 18.6 15.05 19.15 15.05 20 15.05 20.85 15.95 21.45 16.8 22 18 22 M 6.4 22.6 Q 5.5 23.15 5.5 24 5.5 24.85 6.4 25.45 7.25 26 8.45 26 9.65 26 10.55 25.45 11.4 24.85 11.4 24 11.4 23.15 10.55 22.6 9.65 22 8.45 22 7.25 22 6.4 22.6 Z" />
            </g>
          </defs>
          <g transform="matrix( 1, 0, 0, 1, 0,0) ">
            <use xlink:href="#xfl1_Layer0_0_FILL" />
          </g>
        </g>
        <g data-svg-leaf="graphics_symbol_1174_4f70b02e07/t00_l001_f0000_r00.svg">
          <defs>
            <path id="xfl2_Layer0_0_1_STROKES" stroke="#000000" stroke-width="1" stroke-linejoin="round" stroke-linecap="round" fill="none" d=" M 11.15 11.3 Q 12.75 11.8 15.6 10.85 18.85 9.75 20.45 7.55" />
          </defs>
          <g transform="matrix( 1, 0, 0, 1, 0,0) ">
            <use xlink:href="#xfl2_Layer0_0_1_STROKES" />
          </g>
        </g>
        <g data-svg-leaf="graphics_symbol_1174_4f70b02e07/t00_l000_f0000_r00.svg">
          <defs>
            <path id="xfl3_Layer0_0_1_STROKES" stroke="#000000" stroke-width="1" stroke-linejoin="round" stroke-linecap="round" fill="none" d=" M 20.45 7.55 L 20.45 20.5 M 11.15 11.3 L 11.15 24.4" />
          </defs>
          <g transform="matrix( 1, 0, 0, 1, 0,0) ">
            <use xlink:href="#xfl3_Layer0_0_1_STROKES" />
          </g>
        </g>
      </g>
    </g>
  </g>
</svg>