<?xml version='1.0' encoding='utf-8'?>
<svg xmlns="http://www.w3.org/2000/svg" xmlns:xlink="http://www.w3.org/1999/xlink" version="1.1" width="550px" height="400px" viewBox="0 0 550 400" preserveAspectRatio="none" data-xfl-root="Buttons/Symbol 1213">
  <g data-xfl-symbol="Buttons/Symbol 1213">
    <g transform="matrix(1.0011901855 0 0 1.0011901855 0 0)">
      <g data-xfl-symbol="Graphics/Symbol 1210">
        <g data-svg-leaf="graphics_symbol_1210_a4eefb40ce/t00_l000_f0000_r00.svg">
          <defs>
            <linearGradient id="xfl1_Gradient_1" gradientUnits="userSpaceOnUse" x1="5" y1="10.5" x2="5" y2="-0.5" spreadMethod="pad">
              <stop offset="0%" stop-color="#666666" />
              <stop offset="100%" stop-color="#FFFFFF" />
            </linearGradient>
            <g id="xfl1_Layer0_0_FILL">
              <path fill="#43A398" stroke="none" d=" M 1.45 8.5 Q 2.95 10 5 10 7.05 10 8.5 8.5 10 7.05 10 5 10 2.95 8.5 1.45 7.05 0 5 0 2.95 0 1.45 1.45 0 2.95 0 5 0 7.05 1.45 8.5 Z" />
            </g>
            <path id="xfl1_Layer0_0_1_STROKES" stroke="url(#xfl1_Gradient_1)" stroke-width="0" stroke-linejoin="round" stroke-linecap="round" fill="none" d=" M 5 10 Q 2.95 10 1.45 8.5 0 7.05 0 5 0 2.95 1.45 1.45 2.95 0 5 0 7.05 0 8.5 1.45 10 2.95 10 5 10 7.05 8.5 8.5 7.05 10 5 10 Z" />
          </defs>
          <g transform="matrix( 1, 0, 0, 1, 0,0) ">
            <use xlink:href="#xfl1_Layer0_0_FILL" />
            <use xlink:href="#xfl1_Layer0_0_1_STROKES" />
          </g>
        </g>
      </g>
    </g>
    <g transform="matrix(0.5972290039 0 0 0.6036224365 0.65 0.35)">
      <g data-xfl-symbol="Graphics/Symbol 1212">
        <g data-svg-leaf="graphics_symbol_1212_6f2141682f/t00_l000_f0000_r00.svg">
          <defs>
            <g id="xfl2_Layer0_0_FILL">
              <path fill="#FFFF00" stroke="none" d=" M 19.95 20.1 L 19.95 -4.75 -5.25 -4.75 -5.25 20.1 19.95 20.1 Z" />
            </g>
          </defs>
          <g transform="matrix( 1, 0, 0, 1, 0,0) ">
            <use xlink:href="#xfl2_Layer0_0_FILL" />
          </g>
        </g>
      </g>
    </g>
  </g>
</svg>