<?xml version='1.0' encoding='utf-8'?>
<svg xmlns="http://www.w3.org/2000/svg" xmlns:xlink="http://www.w3.org/1999/xlink" version="1.1" width="550px" height="400px" viewBox="0 0 550 400" preserveAspectRatio="none" data-xfl-root="Components/Component Assets/ColorPickerSkins/ColorPicker_upSkin">
  <g data-xfl-symbol="Components/Component Assets/ColorPickerSkins/ColorPicker_upSkin">
    <g data-svg-leaf="components_component_assets_colorpickerskins_colorpicker_upskin_21ceca783f/t00_l002_f0000_r00.svg">
      <defs>
        <g id="xfl1_Layer0_0_FILL">
          <path fill="#333333" fill-opacity="0" stroke="none" d=" M 3 3 L 3 19 19 19 19 3 3 3 Z" />
        </g>
      </defs>
      <g transform="matrix( 1, 0, 0, 1, 0,0) ">
        <use xlink:href="#xfl1_Layer0_0_FILL" />
      </g>
    </g>
    <g data-svg-leaf="components_component_assets_colorpickerskins_colorpicker_upskin_21ceca783f/t00_l001_f0000_r00.svg">
      <defs>
        <g id="xfl2_Layer0_0_FILL">
          <path fill="#FFFFFF" stroke="none" d=" M 21 1 L 21 0 0 0 0 21 1 21 1 1 21 1 M 3 19 L 2 19 2 20 14 20 14 19 3 19 M 19 2 L 19 3 19 16 20 16 20 2 19 2 Z" />
          <path fill="#E5E6E7" stroke="none" d=" M 21 21 L 21 1 1 1 1 21 21 21 M 19 2 L 20 2 20 16 19 16 14 16 14 19 14 20 2 20 2 19 2 2 19 2 Z" />
          <path fill="#9A9B9D" stroke="none" d=" M 19 3 L 19 2 2 2 2 19 3 19 3 3 19 3 M 21 1 L 21 21 1 21 0 21 0 22 22 22 22 0 21 0 21 1 Z" />
        </g>
      </defs>
      <g transform="matrix( 1, 0, 0, 1, 0,0) ">
        <use xlink:href="#xfl2_Layer0_0_FILL" />
      </g>
    </g>
    <g data-svg-leaf="components_component_assets_colorpickerskins_colorpicker_upskin_21ceca783f/t00_l000_f0000_r00.svg">
      <defs>
        <g id="xfl3_Layer0_0_FILL">
          <path fill="#000000" stroke="none" d=" M 19.45 17.55 L 15.45 17.55 17.45 19.55 19.45 17.55 Z" />
        </g>
      </defs>
      <g transform="matrix( 1, 0, 0, 1, 0,0) ">
        <use xlink:href="#xfl3_Layer0_0_FILL" />
      </g>
    </g>
  </g>
</svg>