
<svg xmlns="http://www.w3.org/2000/svg" version="1.1" xmlns:xlink="http://www.w3.org/1999/xlink" preserveAspectRatio="none" x="0px" y="0px" width="550px" height="400px" viewBox="0 0 550 400">
<defs>
<filter id="Filter_1" x="-30.000323574072446%" y="-41.249999998909374%" width="160.00064714814488%" height="182.49999999781875%" color-interpolation-filters="sRGB">
<feFlood flood-color="#000000" flood-opacity="1" in="SourceGraphic" result="result1"/>

<feComposite in2="SourceGraphic" in="result1" operator="in" result="result2"/>

<feGaussianBlur in="result2" stdDeviation="0.6666666666666666,0.6666666666666666" result="result3"/>

<feOffset dx="0.000032357407244499166" dy="2.9999999998254996" in="result3" result="result4"/>

<feComposite in2="result4" in="SourceGraphic" operator="over" result="result5"/>
</filter>

<g id="Graphics_Symbol_1179_0_Layer0_0_FILL">
<path fill="#DDEEE4" stroke="none" d="
M 0 16
L 10 8 0 0 0 16 Z"/>
</g>

<path id="Graphics_Symbol_1179_0_Layer0_0_1_STROKES" stroke="#999999" stroke-width="1" stroke-linejoin="round" stroke-linecap="round" fill="none" d="
M 10 8
L 0 0 0 16 10 8 Z"/>
</defs>

<g transform="matrix( 1, 0, 0, 1, 0,0) ">
<g id="hat" transform="matrix( 0.3008880615234375, 0.0806121826171875, -0.0806121826171875, 0.3008880615234375, 56,20) ">
<g id="colorMC" transform="matrix( 0.9999847412109375, 0, 0, 0.9999847412109375, 0,0) "/>

<g id="colorMC2" transform="matrix( 1, 0, 0, 1, 0,0) "/>
</g>

<g id="var_173" transform="matrix( 1, 0, 0, 1, 0,0) ">
<g filter="url(#Filter_1)" transform="matrix( 1, 0, 0, 1, 0,0) ">
<g id="right" transform="matrix( 1, 0, 0, 1, 100,0) ">
<g transform="matrix( 1, 0, 0, 1, 0,0) ">
<g transform="matrix( 1, 0, 0, 1, 0,0) ">
<use xlink:href="#Graphics_Symbol_1179_0_Layer0_0_FILL"/>

<use xlink:href="#Graphics_Symbol_1179_0_Layer0_0_1_STROKES"/>
</g>
</g>
</g>
</g>

<g filter="url(#Filter_1)" transform="matrix( 1, 0, 0, 1, 0,0) ">
<g id="left" transform="matrix( -0.9999847412109375, 0, 0, 1, 10,0) ">
<g transform="matrix( 1, 0, 0, 1, 0,0) ">
<g transform="matrix( 1, 0, 0, 1, 0,0) ">
<use xlink:href="#Graphics_Symbol_1179_0_Layer0_0_FILL"/>

<use xlink:href="#Graphics_Symbol_1179_0_Layer0_0_1_STROKES"/>
</g>
</g>
</g>
</g>
</g>
</g>
</svg>
