
<svg xmlns="http://www.w3.org/2000/svg" version="1.1" xmlns:xlink="http://www.w3.org/1999/xlink" preserveAspectRatio="none" x="0px" y="0px" width="550px" height="400px" viewBox="0 0 550 400">
<defs>
<linearGradient id="Gradient_1" gradientUnits="userSpaceOnUse" x1="-0.4750000000000014" y1="50.15" x2="100.775" y2="50.15" spreadMethod="pad">
<stop  offset="0%" stop-color="#9D9D9D" stop-opacity="0.4"/>

<stop  offset="100%" stop-color="#FFFFFF" stop-opacity="0.6470588235294118"/>
</linearGradient>

<linearGradient id="Gradient_2" gradientUnits="userSpaceOnUse" x1="-0.4750000000000014" y1="50.15" x2="100.775" y2="50.15" spreadMethod="pad">
<stop  offset="0%" stop-color="#333333"/>

<stop  offset="100%" stop-color="#999999"/>
</linearGradient>

<linearGradient id="Gradient_3" gradientUnits="userSpaceOnUse" x1="-0.05" y1="-14" x2="-0.05" y2="14" spreadMethod="pad">
<stop  offset="0%" stop-color="#89BFF5"/>

<stop  offset="49.01960784313726%" stop-color="#FFFFFF"/>

<stop  offset="100%" stop-color="#7A6FE6"/>
</linearGradient>

<linearGradient id="Gradient_4" gradientUnits="userSpaceOnUse" x1="28.012500000000003" y1="0" x2="-28.012500000000003" y2="0" spreadMethod="pad">
<stop  offset="0%" stop-color="#FFFFFF"/>

<stop  offset="18.823529411764707%" stop-color="#FFFFFF" stop-opacity="0"/>

<stop  offset="84.70588235294117%" stop-color="#FFFFFF" stop-opacity="0"/>

<stop  offset="100%" stop-color="#FFFFFF"/>
</linearGradient>

<g id="UI_Popups__outside_levels__BG_0_Layer0_0_FILL">
<path fill="url(#Gradient_1)" stroke="none" d="
M 95.8 -0.45
L 4.55 -0.45
Q -0.45 -0.45 -0.45 4.55
L -0.45 95.8
Q -0.45 100.8 4.55 100.8
L 95.8 100.8
Q 100.8 100.8 100.8 95.8
L 100.8 4.55
Q 100.8 -0.45 95.8 -0.45 Z"/>
</g>

<g id="Graphics_Symbol_985_0_Layer1_0_FILL">
<path fill="url(#Gradient_3)" stroke="none" d="
M 33 -8
Q 33 -13 29.45 -13
L -29.5 -13
Q -33.05 -13 -33.05 -8
L -33.05 8
Q -33.05 13 -29.5 13
L 29.45 13
Q 33 13 33 8
L 33 -8 Z"/>
</g>

<g id="Graphics_Symbol_985_0_Layer0_0_FILL">
<path fill="url(#Gradient_4)" stroke="none" d="
M 33.05 -8
Q 33.05 -13 29.5 -13
L -29.45 -13
Q -33 -13 -33 -8
L -33 8
Q -33 13 -29.45 13
L 29.5 13
Q 33.05 13 33.05 8
L 33.05 -8 Z"/>
</g>

<g id="Components_Component_Assets__private_Component_avatar_0_Layer0_0_FILL">
<path fill="#FFFFFF" stroke="none" d="
M 80 22
L 80 0 0 0 0 22 80 22 Z"/>
</g>

<path id="UI_Popups__outside_levels__BG_0_Layer0_0_1_STROKES" stroke="url(#Gradient_2)" stroke-width="0.05" stroke-linejoin="round" stroke-linecap="round" fill="none" d="
M 0.005554962158203114 95.05616683959961
L 0.005554962158203114 4.93258972167969
Q 0.005554962158203114 -0.005688476562497158 4.9438331604003904 -0.005688476562497158
L 95.06741027832031 -0.005688476562497158
Q 100.0056884765625 -0.005688476562497158 100.0056884765625 4.93258972167969
L 100.0056884765625 95.05616683959961
Q 100.0056884765625 99.9944450378418 95.06741027832031 99.9944450378418
L 4.9438331604003904 99.9944450378418
Q 0.005554962158203114 99.9944450378418 0.005554962158203114 95.05616683959961 Z"/>

<path id="Components_Component_Assets__private_Component_avatar_0_Layer0_0_1_STROKES" stroke="#000000" stroke-width="0.05" stroke-linejoin="round" stroke-linecap="round" fill="none" d="
M 80 22
L 0 22 0 0 80 0 80 22 Z"/>
</defs>

<g transform="matrix( 1, 0, 0, 1, 0,0) ">
<g transform="matrix( 2.72998046875, 0, 0, 0.350006103515625, -265,162) ">
<g transform="matrix( 0, -0.9876556396484375, 0.9876556396484375, 0, 0.45,99.55) ">
<use xlink:href="#UI_Popups__outside_levels__BG_0_Layer0_0_FILL"/>

<use xlink:href="#UI_Popups__outside_levels__BG_0_Layer0_0_1_STROKES" transform="matrix( 0, 1.0124969482421875, -1.0124969482421875, 0, 100.75,-0.45) "/>
</g>
</g>

<g transform="matrix( 0.5600433349609375, 0, 0, 3.569976806640625, 216,-198) ">
<g transform="matrix( 0, -0.9876556396484375, 0.9876556396484375, 0, 0.45,99.55) ">
<use xlink:href="#UI_Popups__outside_levels__BG_0_Layer0_0_FILL"/>

<use xlink:href="#UI_Popups__outside_levels__BG_0_Layer0_0_1_STROKES" transform="matrix( 0, 1.0124969482421875, -1.0124969482421875, 0, 100.75,-0.45) "/>
</g>
</g>

<g transform="matrix( 1.7998046875, 0, 0, 0.350006103515625, 21,162) ">
<g transform="matrix( 0, -0.9876556396484375, 0.9876556396484375, 0, 0.45,99.55) ">
<use xlink:href="#UI_Popups__outside_levels__BG_0_Layer0_0_FILL"/>

<use xlink:href="#UI_Popups__outside_levels__BG_0_Layer0_0_1_STROKES" transform="matrix( 0, 1.0124969482421875, -1.0124969482421875, 0, 100.75,-0.45) "/>
</g>
</g>

<g transform="matrix( 4.6602630615234375, 0, 0, 0.349945068359375, -265,-198) ">
<g transform="matrix( 0, -0.9876556396484375, 0.9876556396484375, 0, 0.45,99.55) ">
<use xlink:href="#UI_Popups__outside_levels__BG_0_Layer0_0_FILL"/>

<use xlink:href="#UI_Popups__outside_levels__BG_0_Layer0_0_1_STROKES" transform="matrix( 0, 1.0124969482421875, -1.0124969482421875, 0, 100.75,-0.45) "/>
</g>
</g>

<g id="selectedGlow" transform="matrix( 1, 0, 0, 1, -198.9,-180) ">
<g transform="matrix( 1, 0, 0, 1, 0,0) ">
<g transform="matrix( 1, 0, 0, 1, 0,0) ">
<use xlink:href="#Graphics_Symbol_985_0_Layer1_0_FILL"/>
</g>

<g transform="matrix( 1, 0, 0, 1, 0,0) ">
<use xlink:href="#Graphics_Symbol_985_0_Layer0_0_FILL"/>
</g>
</g>
</g>

<g id="saveButton" transform="matrix( 0.4610443115234375, 0, 0, 1, -254.6,169) ">
<g transform="matrix( 1.25, 0, 0, 1, 0,0) ">
<g transform="matrix( 1, 0, 0, 1, 0,0) ">
<use xlink:href="#Components_Component_Assets__private_Component_avatar_0_Layer0_0_FILL"/>

<use xlink:href="#Components_Component_Assets__private_Component_avatar_0_Layer0_0_1_STROKES"/>
</g>
</g>
</g>

<g id="testButton" transform="matrix( 0.4610443115234375, 0, 0, 1, -150.9,169) ">
<g transform="matrix( 1.25, 0, 0, 1, 0,0) ">
<g transform="matrix( 1, 0, 0, 1, 0,0) ">
<use xlink:href="#Components_Component_Assets__private_Component_avatar_0_Layer0_0_FILL"/>

<use xlink:href="#Components_Component_Assets__private_Component_avatar_0_Layer0_0_1_STROKES"/>
</g>
</g>
</g>

<g id="undoButton" transform="matrix( 0.4609375, 0, 0, 1, 94.65,169) ">
<g transform="matrix( 1.25, 0, 0, 1, 0,0) ">
<g transform="matrix( 1, 0, 0, 1, 0,0) ">
<use xlink:href="#Components_Component_Assets__private_Component_avatar_0_Layer0_0_FILL"/>

<use xlink:href="#Components_Component_Assets__private_Component_avatar_0_Layer0_0_1_STROKES"/>
</g>
</g>
</g>

<g id="redoButton" transform="matrix( 0.4609375, 0, 0, 1, 146.15,169) ">
<g transform="matrix( 1.25, 0, 0, 1, 0,0) ">
<g transform="matrix( 1, 0, 0, 1, 0,0) ">
<use xlink:href="#Components_Component_Assets__private_Component_avatar_0_Layer0_0_FILL"/>

<use xlink:href="#Components_Component_Assets__private_Component_avatar_0_Layer0_0_1_STROKES"/>
</g>
</g>
</g>

<g id="zoomSelect" transform="matrix( 0.60009765625, 0, 0, 1, 30,169) ">
<g transform="matrix( 1.25, 0, 0, 1, 0,0) ">
<g transform="matrix( 1, 0, 0, 1, 0,0) ">
<use xlink:href="#Components_Component_Assets__private_Component_avatar_0_Layer0_0_FILL"/>

<use xlink:href="#Components_Component_Assets__private_Component_avatar_0_Layer0_0_1_STROKES"/>
</g>
</g>
</g>

<g id="newButton" transform="matrix( 0.4610443115234375, 0, 0, 1, -98.4,169) ">
<g transform="matrix( 1.25, 0, 0, 1, 0,0) ">
<g transform="matrix( 1, 0, 0, 1, 0,0) ">
<use xlink:href="#Components_Component_Assets__private_Component_avatar_0_Layer0_0_FILL"/>

<use xlink:href="#Components_Component_Assets__private_Component_avatar_0_Layer0_0_1_STROKES"/>
</g>
</g>
</g>

<g id="loadButton" transform="matrix( 0.4610443115234375, 0, 0, 1, -202.6,169) ">
<g transform="matrix( 1.25, 0, 0, 1, 0,0) ">
<g transform="matrix( 1, 0, 0, 1, 0,0) ">
<use xlink:href="#Components_Component_Assets__private_Component_avatar_0_Layer0_0_FILL"/>

<use xlink:href="#Components_Component_Assets__private_Component_avatar_0_Layer0_0_1_STROKES"/>
</g>
</g>
</g>

<g id="exitButton" transform="matrix( 0.4609375, 0, 0, 1, -47,169) ">
<g transform="matrix( 1.25, 0, 0, 1, 0,0) ">
<g transform="matrix( 1, 0, 0, 1, 0,0) ">
<use xlink:href="#Components_Component_Assets__private_Component_avatar_0_Layer0_0_FILL"/>

<use xlink:href="#Components_Component_Assets__private_Component_avatar_0_Layer0_0_1_STROKES"/>
</g>
</g>
</g>

<g id="blocksButton" transform="matrix( 0.4998626708984375, 0, 0, 1, -143,-191) ">
<g transform="matrix( 1.25, 0, 0, 1, 0,0) ">
<g transform="matrix( 1, 0, 0, 1, 0,0) ">
<use xlink:href="#Components_Component_Assets__private_Component_avatar_0_Layer0_0_FILL"/>

<use xlink:href="#Components_Component_Assets__private_Component_avatar_0_Layer0_0_1_STROKES"/>
</g>
</g>
</g>

<g id="layer1Button" transform="matrix( 0.499847412109375, 0, 0, 1, -87,-191) ">
<g transform="matrix( 1.25, 0, 0, 1, 0,0) ">
<g transform="matrix( 1, 0, 0, 1, 0,0) ">
<use xlink:href="#Components_Component_Assets__private_Component_avatar_0_Layer0_0_FILL"/>

<use xlink:href="#Components_Component_Assets__private_Component_avatar_0_Layer0_0_1_STROKES"/>
</g>
</g>
</g>

<g id="layer2Button" transform="matrix( 0.499847412109375, 0, 0, 1, -31,-191) ">
<g transform="matrix( 1.25, 0, 0, 1, 0,0) ">
<g transform="matrix( 1, 0, 0, 1, 0,0) ">
<use xlink:href="#Components_Component_Assets__private_Component_avatar_0_Layer0_0_FILL"/>

<use xlink:href="#Components_Component_Assets__private_Component_avatar_0_Layer0_0_1_STROKES"/>
</g>
</g>
</g>

<g id="layer3Button" transform="matrix( 0.499847412109375, 0, 0, 1, 25,-191) ">
<g transform="matrix( 1.25, 0, 0, 1, 0,0) ">
<g transform="matrix( 1, 0, 0, 1, 0,0) ">
<use xlink:href="#Components_Component_Assets__private_Component_avatar_0_Layer0_0_FILL"/>

<use xlink:href="#Components_Component_Assets__private_Component_avatar_0_Layer0_0_1_STROKES"/>
</g>
</g>
</g>

<g id="settingsButton" transform="matrix( 0.5499267578125, 0, 0, 1, 137,-191) ">
<g transform="matrix( 1.25, 0, 0, 1, 0,0) ">
<g transform="matrix( 1, 0, 0, 1, 0,0) ">
<use xlink:href="#Components_Component_Assets__private_Component_avatar_0_Layer0_0_FILL"/>

<use xlink:href="#Components_Component_Assets__private_Component_avatar_0_Layer0_0_1_STROKES"/>
</g>
</g>
</g>

<g id="bgButton" transform="matrix( 0.49993896484375, 0, 0, 1, 81,-191) ">
<g transform="matrix( 1.25, 0, 0, 1, 0,0) ">
<g transform="matrix( 1, 0, 0, 1, 0,0) ">
<use xlink:href="#Components_Component_Assets__private_Component_avatar_0_Layer0_0_FILL"/>

<use xlink:href="#Components_Component_Assets__private_Component_avatar_0_Layer0_0_1_STROKES"/>
</g>
</g>
</g>

<g id="layer0Button" transform="matrix( 0.499847412109375, 0, 0, 1, -199,-191) ">
<g transform="matrix( 1.25, 0, 0, 1, 0,0) ">
<g transform="matrix( 1, 0, 0, 1, 0,0) ">
<use xlink:href="#Components_Component_Assets__private_Component_avatar_0_Layer0_0_FILL"/>

<use xlink:href="#Components_Component_Assets__private_Component_avatar_0_Layer0_0_1_STROKES"/>
</g>
</g>
</g>

<g id="layer00Button" transform="matrix( 0.499847412109375, 0, 0, 1, -255,-191) ">
<g transform="matrix( 1.25, 0, 0, 1, 0,0) ">
<g transform="matrix( 1, 0, 0, 1, 0,0) ">
<use xlink:href="#Components_Component_Assets__private_Component_avatar_0_Layer0_0_FILL"/>

<use xlink:href="#Components_Component_Assets__private_Component_avatar_0_Layer0_0_1_STROKES"/>
</g>
</g>
</g>
</g>
</svg>
