
<svg xmlns="http://www.w3.org/2000/svg" version="1.1" xmlns:xlink="http://www.w3.org/1999/xlink" preserveAspectRatio="none" x="0px" y="0px" width="550px" height="400px" viewBox="0 0 550 400">
<defs>
<g id="Layer0_0_FILL">
<path fill="#000000" stroke="none" d="
M 4.75 15.35
Q 6.95 18.1 9.55 20.25 14.5822265625 24.3001953125 19.95 27.8 14.0052734375 20.862890625 9.65 15.75 8.3548828125 14.8390625 7.05 13.95
L 5.15 14.45 4.75 15.35
M 23.05 4.2
Q 22.15 12.45 25.65 20.05
L 25.65 20.05
Q 25.65 17.2953125 25.65 11.3 25.65 8.656640625 25.55 6 24.9357421875 4.21171875 24.05 2.4 23.15 3.25 23.05 4.2
M 46.45 5.9
L 46.25 3.2 45.6 3.35
Q 45.2267578125 3.7826171875 44.85 4.2 44.3166015625 5.7107421875 43.65 7.5 40.4884765625 16.039453125 38.95 20.15 39.1986328125 20.772265625 39.5 21.4 39.85 21.3 39.95 21.1 43.4 13.95 46.45 5.9
M 62.05 15.6
L 62.1 14
Q 52.637109375 21.460546875 48 25.25 47.56875 25.6236328125 43.7 29.05
L 44.45 29.6
Q 47.6 28.05 50.3 26 56.5 21.15 62.05 15.6 Z"/>
</g>
</defs>

<g transform="matrix( 1, 0, 0, 1, 0,0) ">
<use xlink:href="#Layer0_0_FILL"/>
</g>
</svg>
