
<svg xmlns="http://www.w3.org/2000/svg" version="1.1" xmlns:xlink="http://www.w3.org/1999/xlink" preserveAspectRatio="none" x="0px" y="0px" width="550px" height="400px" viewBox="0 0 550 400">
<defs>
<g id="Layer0_0_FILL">
<path fill="#000000" stroke="none" d="
M 61.5 12.65
L 61.05 12.8
Q 60.85 10.9 59.95 9.5 54.2 -0.1 43.1 2.45 33.8 -4.6 23.25 1.65 22.55 1.1 21.85 1.1 10.05 -0.15 4.75 10.4 0.2 13.05 -0.9 18.35 -1.080859375 19.2546875 -0.85 20.05 -0.9935546875 21.1578125 -0.5 22.1 7.0505859375 35.301171875 21.35 42.35
L 20.75 43.35 21.25 44.15 20.85 44.8 21.8 46.35
Q 22.15 46.35 22.55 46.35 23.405859375 46.2216796875 24.1 45.7 24.153515625 45.89609375 24.2 46.1 24.21171875 46.20625 24.2 46.3 24.05 47.35 24.75 48.4 24.95 48.45 25.2 48.55 27.65 48.4 29.25 46.85 29.45 47.25 29.8 47.65 33.4 51.7 35.75 47.15
L 36.2 46.1 39.65 49.1 41.1 47.8 44.25 47.15 44.35 46.2 44.4 46.2 44.6 44.2
Q 55.322265625 36.269921875 63.25 25.5
L 63.85 25.45
Q 65.430859375 22.36015625 64.95 19.6 65.0865234375 15.81640625 61.5 12.65
M 60.8 16.05
Q 61.5 17.5 62 18.95 62.01171875 19.0138671875 62 19.05 61.9689453125 19.2205078125 61.9 19.35 55.3 31.75 43.2 39.8
L 41.55 38.9
Q 41.2654296875 40.1958984375 41.5 41.55 41.4775390625 42.3033203125 41.6 43.05
L 40.85 42.9
Q 40.8453125 42.856640625 40.8 42.8 40.2962890625 41.6291015625 38.8 41.05 38.55 41.15 38.35 41.3 37.65 41.7 37.55 42.4
L 34.4 39.65
Q 34.0208984375 42.5884765625 32.5 45.15 31.9861328125 43.883984375 31.05 42.9 30.3806640625 42.0384765625 29.4 41.4
L 28.95 41.5 28.2 42.6
Q 27.7349609375 42.689453125 27.4 42.55 27.266796875 42.2640625 27.2 41.85
L 26.75 41.8
Q 26.6943359375 41.5748046875 26.65 41.3
L 26.2 41.25 25.45 39.5 25.15 39.5 24.9 38.9 23.6 38.95
Q 15.6703125 35.0361328125 9.2 29.35 6.683984375 27.07109375 4.4 24.5 3.7 22.55 2.1 20.7 2.880859375 17.403125 5.3 14.75 5.4580078125 16.0119140625 6.5 16.75
L 7.5 16.7
Q 7.515625 16.491796875 7.5 16.3
L 8.25 16.25
Q 8.83984375 8.493359375 13.75 6.35 17.0708984375 5.1837890625 22.15 6.3
L 23 8.05
Q 23.2205078125 7.834375 23.45 7.6
L 23.5 7.75
Q 25.725 5.5748046875 27.9 4.3 36.5763671875 -0.430859375 44.55 8.95
L 44.55 8.45
Q 44.6291015625 8.566796875 44.7 8.65
L 44.75 6.05
Q 56.05078125 4.8251953125 59.4 13.85
L 60.15 16.65
Q 60.2060546875 16.9142578125 60.25 17.15
L 60.8 16.05 Z"/>
</g>
</defs>

<g transform="matrix( 1, 0, 0, 1, 0,0) ">
<use xlink:href="#Layer0_0_FILL"/>
</g>
</svg>
