
<svg xmlns="http://www.w3.org/2000/svg" version="1.1" xmlns:xlink="http://www.w3.org/1999/xlink" preserveAspectRatio="none" x="0px" y="0px" width="550px" height="400px" viewBox="0 0 550 400">
<defs>
<g id="Layer0_0_FILL">
<path fill="#000000" fill-opacity="0.2980392156862745" stroke="none" d="
M 62.25 21.9
Q 62.2916015625 21.6509765625 62.3 21.35 62.5220703125 20.9109375 62.65 20.3 62.8 19.4 62.8 17.8
L 62.75 17.4
Q 62.8 17.2 62.8 17.1 62.8 16.7 62.7 16.45
L 62.5 14.3
Q 61.95 13 60.95 13.3 60.5 11.3 58.35 9.4 58.05 5.4 50.7 3.9 48.3166015625 3.4232421875 46.4 3.55 44.997265625 3.463671875 43.8 3.65 43.4369140625 3.6953125 43.1 3.75 42.64921875 3.396875 42.05 3.05 38.4056640625 0.932421875 32.4 1.1 32.341796875 1.0970703125 32.25 1.1 31.451953125 1.0720703125 30.6 1.1 27.35 1.35 24.8 2.9 24.5333984375 3.0568359375 24.3 3.2 23.6314453125 2.8078125 22.6 2.55 21.0283203125 2.15 19.2 2.25 17.1376953125 2.1232421875 14.7 2.75 6.24765625 4.7822265625 5.6 11.65 5.2109375 11.4353515625 4.6 11.85 4.43515625 11.966015625 4.3 12.05 3.8669921875 11.227734375 2.95 11.85 1.6 12.8 1.6 14 1.6 14.9 1.75 15.85
L 1.7 15.85
Q 0.75 16.45 0.6 17.3 0.45 17.65 0.45 18.05 0.45 18.15 1.2 20.9 1.8177734375 22.3828125 2.7 23.05 3.217578125 24.0482421875 3.85 24.55 4.6302734375 25.76875 5.35 26.55 7.42890625 29.6 9.2 29.6 9.2609375 29.6 9.3 29.6 10.9740234375 31.5544921875 13.05 33.6 19.2232421875 39.63359375 25.5 42.3 26.2626953125 42.8142578125 27.4 43.5 28.82578125 44.331640625 29.95 44.8 29.9583984375 45.2146484375 30.15 45.55 30.46953125 46.1890625 31.3 46.25 31.2 46.3533203125 31.2 46.4 31.2 46.8 31.4 47.15 31.75 47.85 32.7 47.85 34.36328125 47.85 38 45.25 39.1345703125 45.3 40.5 45.3 41.15 45.3 41.6 44.85 41.6818359375 44.7681640625 41.75 44.65 42.5111328125 44.3201171875 43.45 43.35 43.6453125 43.1396484375 43.8 42.95 45.6013671875 41.7009765625 47.75 39.65 48.9216796875 38.52578125 50 37.35 51.89140625 36.4525390625 56.25 29.85 58.0126953125 27.1640625 59.15 24.9 59.494140625 24.408984375 59.75 23.95 60.0587890625 24.05 60.45 24.05 61.8 24.05 62.25 21.9
M 40.5 7.85
Q 41.95 8.95 43.1 10.05 43.9 10.05 44.3 9.45 44.559375 9.0609375 44.6 8.55 44.9037109375 8.613671875 46.95 8.75 51.65 9 55.8 12.9 55.9548828125 13.0423828125 56.1 13.15 56.4 13.773828125 56.4 14.3 56.4 14.65 56.15 16.05 56.15 16.75 56.7 17.1 56.55 17.5 56.5 17.95 56.35 19.15 55.55 20.7 55.35 21.05 55.2 21.4 50.1 27.6 47.7 29.95 44.2 33.5 36.45 39.45 36.2 39.65 36 39.8
L 33.4 39.8
Q 25.8 38.1 19.5 33.45 14.8 29.95 11.4 25.3 8.1291015625 20.8576171875 7.3 17.5 7.453515625 17.5953125 7.55 17.65 8.3 19.35 9.3 19.35 10.2 19.35 11.2 16.55 12.4 13.05 12.9 12.45 13.55 11.2 13.9 10.6 14.6 9.55 16.25 9 20.05 7.75 23.45 7.75 23.6767578125 7.75 23.85 7.7 23.8849609375 7.76484375 23.9 7.8 24.3 8.55 25.25 8.55 25.4 8.55 27.65 7.1 29.95 5.6 32.85 5.6 37.65 5.6 40.5 7.85
M 34.1 23.15
Q 33.45 22.8 31.6 23.15 29.35 23.5 29.35 24.9 29.35 25.8 29.9 26.15 29.7 26.2 29.6 26.25 27.6 26.85 27 27.3 26.6 27.65 26.6 28.45 26.6 29.05 26.75 29.4 27.05 30.2 28.1 30.2 28.6 30.2 29.05 29.9 29.75 29.4 30 29.3
L 30 29.4
Q 29.55 29.9 28.45 30.85 27.95 31.35 27.95 31.75 27.95 32.15 28.25 32.6 28.65 33.3 29.7 33.3 29.95 33.3 31.55 32.75 31.6 32.75 32.2 33.8 32.8 34.8 34.15 34.8 35.7 34.8 38.3 33 40.6 31.35 40.6 30.9 40.6 30.5 40.35 30.15 39.95 29.4 39 29.4 38.75 29.4 38.25 29.65 37.65 29.9 37.1 29.95 37 29.7 37 29.4 37 29.1 37.3 28.65 37.6 28.2 37.6 28 36.8 24.4 35.45 24.4 35.25 24.4 34.9 24.55 34.45 23.4 34.1 23.15 Z"/>
</g>
</defs>

<g transform="matrix( 1, 0, 0, 1, 0,0) ">
<use xlink:href="#Layer0_0_FILL"/>
</g>
</svg>
