
<svg xmlns="http://www.w3.org/2000/svg" version="1.1" xmlns:xlink="http://www.w3.org/1999/xlink" preserveAspectRatio="none" x="0px" y="0px" width="550px" height="400px" viewBox="0 0 550 400">
<defs>
<g id="Layer0_0_FILL">
<path fill="#FFCCCC" fill-opacity="0.4" stroke="none" d="
M 45.8 5.35
Q 45.1 4.9 44.35 4.45 39.6 1.9 34.35 1.9 29.8 1.9 24.45 5.2 23.76015625 5.628125 23.15 6 23.4310546875 6.080078125 23.7 6.1 29.5671875 3 34.7 3 40.4 3 45.8 5.35
M 23.85 -13.4
Q 17.05 -9.95 15.2 -5.6 13.45 -1.6 14.6 3.15 14.8818359375 4.2775390625 15.35 5.3 15.63828125 5.2642578125 15.95 5.25
L 19.85 5.25
Q 20.3359375 5.40390625 20.9 5.55 19.7267578125 3.8962890625 19.2 2 18.4 -1.55 19.7 -4.5 21.1 -7.8 26.15 -10.4 33 -14.15 40.2 -11.05 47.1 -8 48.3 -2.8 49.05 0.45 47.55 3.7 47 4.75 46.45 5.75 46.493359375 5.7662109375 46.5 5.75 48.2369140625 5.9 51.7 5.9 51.8626953125 5.9 52 5.9 52.1689453125 5.62421875 52.3 5.35 54.25 1.05 53.3 -3.3 51.7 -10.15 42.4 -14.25 32.95 -18.3 23.85 -13.4 Z"/>

<path fill="#FFCCCC" fill-opacity="0.8" stroke="none" d="
M 26.15 -10.4
Q 21.1 -7.8 19.7 -4.5 18.4 -1.55 19.2 2 19.7267578125 3.8962890625 20.9 5.55 21.9134765625 5.8048828125 23.15 6 23.76015625 5.628125 24.45 5.2 29.8 1.9 34.35 1.9 39.6 1.9 44.35 4.45 45.1 4.9 45.8 5.35 46.0818359375 5.537890625 46.35 5.75
L 46.4 5.75 46.45 5.75
Q 47 4.75 47.55 3.7 49.05 0.45 48.3 -2.8 47.1 -8 40.2 -11.05 33 -14.15 26.15 -10.4 Z"/>
</g>
</defs>

<g transform="matrix( 1, 0, 0, 1, 0,0) ">
<use xlink:href="#Layer0_0_FILL"/>
</g>
</svg>
