
<svg xmlns="http://www.w3.org/2000/svg" version="1.1" xmlns:xlink="http://www.w3.org/1999/xlink" preserveAspectRatio="none" x="0px" y="0px" width="550px" height="400px" viewBox="0 0 550 400">
<defs>
<g id="Layer0_0_FILL">
<path fill="#000000" stroke="none" d="
M 59.75 124.6
Q 59.4 128.1 59.5 128.55 59.65 129.05 63.05 130.35
L 70.3 133.15 70.4 133.15 65.95 135.55
Q 62.7 137.2 60.8 138.3 59.75 138.85 59.2 142.75 59 144.05 58.75 147.65
L 58.75 147.9 54.45 143.35
Q 53.3 141.9 52.5 141.7
L 42.1 143.4 42.1 143.5
Q 41.85 144.55 40.85 144.55 40.3 144.55 39.95 144.2
L 39.45 145.35 39.7 145.25
Q 40.1 145.05 41.3 144.6
L 42.75 144.1 46.05 143.3 50.4 143.15
Q 56.15 143.95 59.8 150.75 60.6 150.05 60.9 144.85 61.05 140.15 60.85 139.1 67.45 136.2 70.3 134.7
L 72.75 133.2 64.85 129.95
Q 60.65 128.4 60.6 128.25 60.2 126.65 60.6 122.55 61 118.3 60.75 116.85 57.7 119.15 54.6 122.25
L 51.9 124.7 40.15 121 39.6 121.2 39.7 121.9 41.35 124.5 44.3 128.1
Q 46.2 130.4 46.9 133
L 46.85 133.35 46.65 133.45 46.55 134.15 46 134.55
Q 44.95 135.95 42.4 140.05
L 41.1 142.2 41.85 142.65 44.95 138.5
Q 47.95 134.1 47.7 133.2 47.4 132.1 45.5 129.25
L 41.3 122.65
Q 44.45 123.7 48.85 125.45 51.1 126.35 51.65 126.2 51.9 126.15 53.8 124.3
L 60 118.55 59.75 124.6
M 43.7 108.5
L 43.3 108.45 38 108.95 32.5 108.9
Q 28.55 108.6 25.5 107.3 16.8 103.55 13.95 91.3 12.35 92.1 9.75 100.15 7.4 107.45 7.35 109.2 -4.3 111 -9.4 112.15
L -13.95 113.5
Q -10.55 116.25 -2.75 121.95
L 3.1 126.5
Q 3.1 129.2 0.8 135.5 -1.65 142.05 -1.85 144.35 3.85 142 10.1 138.5 15.1 135.75 15.35 135.75 15.55 135.75 32.2 146.4
L 32.05 146
Q 32.05 144.8 33.25 144.95
L 31.95 140.5 28.8 133.6
Q 26.8 129.15 26.8 124.75 26.8 124.35 27 124.25
L 27.35 124.15
Q 27.35 123.55 27.8 123.1 28.25 122.65 28.85 122.65
L 36.85 115.6
Q 42.95 109.85 43.7 108.5
M 14.3 96.65
L 14.4 96.25
Q 16.55 99.9 19.15 105.25 20.45 108.05 21.6 108.6 22.6 109.15 26.95 109.35
L 40.5 110.6
Q 38.3 111.7 32.25 116.9 25.65 122.55 25.65 124.1 25.65 126 27.4 131.25
L 31.2 143.45 20.5 135.85
Q 17.35 133.5 16.4 133.5 15.95 133.5 12.2 135.6 6.35 138.9 0 142 0.7 139 3 132.65 4.95 127.25 4.95 126.45 4.95 125.6 0.2 122.15
L -10.1 114.65 -10.25 114.6 7.1 110.55
Q 8.95 110.1 11.5 104.15
L 14.3 96.65
M 44.15 75.85
L 44.5 84.65
Q 44.25 87.9 43.2 90.4 40.15 97.5 30.1 99.85 30.8 101.15 37.35 103.3 43.35 105.2 44.75 105.25 46.25 114.75 47.15 118.95
L 48.3 122.65 55.2 113.5
Q 58.7 108.7 58.9 108.7 61.1 108.7 66.25 110.6 71.65 112.6 73.5 112.75 71.6 108.1 68.75 103
L 66.5 98.7 75.3 84.75 75.25 84 74.35 83.95 70.35 85.1 64.7 87.7
Q 61.1 89.35 57.5 89.35 57.15 89.35 57.05 89.15
L 57 88.9
Q 56.5 88.9 56.15 88.5 55.75 88.15 55.75 87.65 54.35 85.8 50 81.1 45.3 76.1 44.2 75.5
L 44.15 75.85
M 44.25 93.6
Q 44.7 92.75 44.9 89.2 45.2 83.4 45.9 78.15 46.8 79.95 51.05 84.85 55.7 90.25 56.95 90.25 58.5 90.25 62.8 88.85
L 72.75 85.75 66.55 94.5
Q 64.65 97.05 64.65 97.85 64.65 98.2 66.35 101.25
L 71.6 111.25
Q 69.15 110.7 63.95 108.8 59.5 107.2 58.85 107.2 58.15 107.2 55.35 111.1
L 49.2 119.5 49.2 119.65 45.85 105.45
Q 45.5 103.95 40.65 101.85 39.05 101.15 34.5 99.55
L 34.15 99.45 41.55 95.6
Q 43.8 94.5 44.25 93.6
M 17.55 45.95
L 16.85 46.55 10.4 64.2 5.3 66.5
Q -1 69.1 -6.2 71.9 -4.85 72.95 0.25 74.65 5.15 76.25 6.55 77.65
L 4.8 84.2
Q 2.25 92.65 1.25 96.45 3.4 95.2 5.15 93.95
L 18.55 83.65
Q 19.5 84.5 24.95 86.65 31 89 32.5 88.3 28.2 79.9 32.4 71.8 33.85 68.95 36.5 66
L 42.2 60.4 44.35 58.65 44.6 58.3
Q 43.35 58.15 36.1 59.5 29.25 60.75 26.75 61.45
L 25.8 62 24.95 61.75
Q 24.8 61.8 24.65 61.95
L 24.25 61.85
Q 21.95 59.55 21.05 55.85
L 19.7 50 18.15 46.45 17.55 45.95
M 21.25 58.05
Q 22.8 62 23.75 62.95 24.55 63.75 32.15 62.05 39.15 60.45 41.3 59.5
L 32.35 69.75
Q 29.4 72.9 28.9 73.9 28.4 75 28.95 77.35
L 30.3 85.4 30 85.3
Q 25.75 83.75 24.15 83.35
L 17.65 83.15 3.3 93.3 3.4 93.2 6.8 82
Q 8.35 76.85 7.9 76.4 7.5 76 3.25 74.55 -1.65 72.85 -3.7 71.8 2.4 68.9 8.3 66.5
L 12.35 64.65
Q 13 64 14 60.5
L 17.6 49 21.25 58.05
M 64.95 45.95
L 63.45 48.7
Q 62 51.9 59.15 59.4
L 53.15 59.15
Q 47.8 59.2 47.05 60.15 54.3 64.6 55.35 71.25 55.75 73.6 55.3 76.3
L 54.1 81.65 53.45 83.5 53.45 83.75
Q 54.35 83.55 58.85 80.65
L 64.4 76.7
Q 64.5 76.3 64.9 76.1
L 65.55 76 65.65 75.75 66 75.7 67.7 76.45
Q 69.55 77.35 71.25 78.9
L 75.05 82.5 77.9 84.45 78.6 84.6 78.8 84.05
Q 74.5 70.45 74.55 70.3
L 77 67.3
Q 80.1 63.85 82.4 60.5 80.9 60.15 76.45 60.45
L 70.55 60.15
Q 70.4 60.1 68.55 55.25
L 64.95 45.95
M 65.05 48.65
L 65.05 48.8 68.25 57.3
Q 69.7 61.2 70.25 61.35
L 74.35 61.3
Q 78.65 61.05 80.65 61.25
L 74.9 68.1
Q 73 70.25 72.95 70.55 72.8 71.2 73.85 73.75
L 77 82.6 68.8 76.6 65.75 74.85
Q 64.8 74.5 60.35 77.8 56.25 80.75 55.2 82.05 55.6 77.5 56.45 72.65 56.9 69.7 56.7 68.9 56.5 68 55 66.55 52 63.7 50.1 61.45
L 50.3 61.5 55.4 61.15
Q 59.5 60.7 60 59.55
L 65.05 48.65
M 46.1 43.55
L 44.6 44 50.25 48.3
Q 50.25 49.2 49.45 51.3 48.65 53.45 48.6 54.25
L 52.55 52.3
Q 54.2 51.4 54.3 51.4
L 59.95 54.95 60.25 54.95 60.25 54.55 59.8 52.95 58.75 50.65
Q 58.1 49.2 58.1 47.75
L 58.15 47.55 58.25 47.55 58.4 47.2
Q 58.55 47.05 58.75 47.05
L 63.7 42.35 63.55 42.35 62.6 42.45 59.95 42.5 57.65 41.95
Q 54.75 40.7 53.8 36.65 53.3 36.9 52.45 39.6 51.65 42 51.65 42.6
L 46.1 43.55
M 45.85 44.4
L 45.8 44.35 51.55 43.05
Q 52.15 42.9 53 40.9
L 53.95 38.4 53.95 38.3 55.55 41.25 56.35 42.4 62.6 43.05 59.9 45.15
Q 57.7 47 57.7 47.5
L 59.55 53.95
Q 58.05 52.95 56 51.4 54.95 50.65 54.65 50.65
L 49.2 53.45 50.85 48.3
Q 50.85 48 49.25 46.85
L 45.85 44.4
M 47.65 21.05
Q 40.85 18.4 40.8 18.15 40.1 15.55 40.75 8.85 41.4 1.9 41 -0.4 36.1 3.4 30.95 8.35
L 26.55 12.4 7.3 6.4 6.5 6.65 6.75 7.8
Q 7.55 9.55 9.35 12.1
L 14.15 17.95
Q 17.2 21.75 18.35 26
L 18.3 26.55 18 26.75 17.85 27.85
Q 17.5 28.4 16.95 28.55 15.2 30.75 11.05 37.45 6.6 44.55 6.25 46.05
L 6.7 46 11.65 44.15 16.95 42.75 24.15 42.5
Q 33.5 43.9 39.45 54.95 40.75 53.8 41.25 45.3 41.6 37.65 41.2 35.95 51.95 31.25 56.6 28.75
L 60.6 26.3
Q 56.65 24.5 47.65 21.05
M 56.65 26.2
L 56.8 26.2 41.1 34.6
Q 39.4 35.5 38.5 41.95 38.15 44.05 37.75 49.9
L 37.75 50.35 30.8 42.85
Q 28.85 40.5 27.6 40.25 26.45 39.95 22.2 40.95
L 8.8 43.2
Q 10.65 41.55 15.15 35 20.05 27.85 19.65 26.35 19.15 24.5 16.15 19.85
L 9.25 9.1
Q 14.35 10.75 21.6 13.65 25.25 15.1 26.15 14.85 26.6 14.75 29.65 11.7
L 39.8 2.4
Q 39.85 5.5 39.3 12.2 38.8 17.95 39 18.7 39.25 19.55 44.75 21.6
L 56.65 26.2
M 201.1 48.8
L 201 48.45 200.85 48.3 200.25 48.75 201.1 48.8 Z"/>

<path fill="#003366" stroke="none" d="
M 28.85 122.65
Q 28.25 122.65 27.8 123.1 27.35 123.55 27.35 124.15
L 28.85 122.65
M 58.25 47.55
L 58.75 47.05
Q 58.55 47.05 58.4 47.2
L 58.25 47.55 Z"/>
</g>
</defs>

<g transform="matrix( 1, 0, 0, 1, 0,0) ">
<use xlink:href="#Layer0_0_FILL"/>
</g>
</svg>
