
<svg xmlns="http://www.w3.org/2000/svg" version="1.1" xmlns:xlink="http://www.w3.org/1999/xlink" preserveAspectRatio="none" x="0px" y="0px" width="550px" height="400px" viewBox="0 0 550 400">
<defs>
<g id="Graphics_Symbol_802_0_Layer0_0_FILL">
<path fill="#FFC142" stroke="none" d="
M 175.6 76.85
Q 175 76.3 173.95 74.55
L 169.45 77.05
Q 170.4 77.95 171.2 79.55 171.95 81.05 171.95 81.8 171.95 83.9 170.9 84.85
L 169.85 85.4
Q 167.05 84.05 164 80.1 155.5 85.1 151.65 86.65 146.6 88.7 141.15 88.7
L 138.75 88.5
Q 136.45 88.1 132.65 86.75 132.05 88.6 129.9 91.25
L 126.9 94.25 129.25 98.2
Q 129.25 99 128.25 99.55 127.4 100.05 126.55 100.05 124.95 100.05 124.25 99.1 123.55 98.15 122.05 98.15 118.8 98.15 115.1 101.85
L 115.7 102.75
Q 116.15 103.55 116.2 104.2
L 115.4 104.9
Q 114.65 105.4 113.45 105.4
L 112.7 104.8
Q 111.75 104.2 110.15 104.2 109.55 104.8 108.15 105.4 105.3 106.6 100.9 106.6 100 106.6 96.8 105.05 93.6 103.45 92.3 103.45
L 83.45 111.25 84.05 112.5 84.35 113.8
Q 84.35 115.45 80.7 115.55
L 77.3 114.7 71.7 116.75 71.95 117.6 72.15 119.15 71.1 120.2 69.4 120.4 67.8 120.2
Q 62.25 118.15 58.65 115.9 51.8 111.65 51.5 104.35
L 53.25 99.05 52.05 98.9 50.7 99.1 46.5 103.85
Q 41.85 108.55 39.15 108.55 38.8 108.55 37.9 110.8 36.85 113.45 35.9 117.25
L 35.45 120
Q 35.1 122.35 35.1 123 35.1 130.8 44.6 135.25 49.4 137.5 54.25 138.15
L 61.6 137.7 55.95 135.4 56.05 134.7
Q 56.25 133.95 56.85 133.95
L 59.75 134.6 64.05 135.7 70.1 136.1
Q 75.3 136.1 78 134.9 85.05 131.8 98.25 128.15
L 99.2 127.8
Q 97.95 127.45 95.35 126.25
L 92.6 123.95 93.35 123.05
Q 93.65 122.35 94.45 122.35
L 97.2 123.5
Q 100.45 124.6 103 124.6
L 108.7 123.85 121.8 117.8
Q 120.65 117.7 119.4 116.7 117.3 115.05 117 111.9
L 121.15 113.5
Q 125.15 115.1 127.4 115.1 131.5 115.1 142.7 105.65
L 158.6 92.1 155.15 88.95 155 88.55
Q 156.5 88 157.8 88
L 161 88.45 164.15 88.9
Q 168.9 88.9 172.9 85.7 176.6 82.65 178.45 77.9 178.5 77.3 178.1 77.2
L 176.6 77.25
Q 176.05 77.25 175.6 76.85 Z"/>
</g>

<g id="Graphics_Symbol_852_0_Layer1_0_FILL">
<path fill="#000000" stroke="none" d="
M 179.75 45.15
Q 175.7 40.1 169.6 39.05 163.3 37.95 157.65 41.75 151.35 46.05 147.85 55.3
L 143.25 54.2 138.9 53.35
Q 126.3 53.35 121.85 57.1
L 118.3 59.7
Q 115.7 60.85 110.6 60.85 109.65 60.85 107.1 58.25
L 101.55 52.6
Q 92.95 44.3 86.05 44.3 84.05 44.3 78.7 45.95 72.05 48.05 72.05 50.3
L 72.9 56.1
Q 71.2 57.15 69.4 57
L 66.75 56.75
Q 63.95 57.2 59.95 67 57.95 71.95 54.65 72.1
L 49.65 71.3
Q 38.05 71.3 26.05 85.15 21.1 90.85 18 97.05 14.9 103.2 14.9 107.4 14.9 119.2 25.75 129.9 38.2 142.15 56.5 142.15 72.75 142.15 102.45 130.05 117.6 123.9 133.1 116.45 135.25 115.7 150.15 103.75 164.9 91.9 166.1 91.6 172.4 90.05 176.35 86.7 181.2 82.5 181.2 76.5
L 180.4 73.25
Q 179.55 70.65 179.55 69.6
L 181.8 65.5
Q 184 61.05 184 58.15 184 50.5 179.75 45.15
M 165.35 42.9
Q 171.65 42.9 176.1 47.45 180.65 52.1 180.65 58.9 180.65 65.95 170.25 74.25 160.15 82.35 152.3 82.35
L 149.6 79.5
Q 147.7 79.5 146.95 80.05
L 145.75 81.25
Q 143.55 82.95 133.6 82.95 130.65 82.95 127.85 85.9
L 122.55 92.35
Q 114.55 101.75 102.2 101.75
L 101.5 100.25
Q 100.9 98.75 100.45 98.75
L 94.9 100.5
Q 94.3 100.5 93.35 99.05
L 92.5 97.6 92.15 97.5
Q 91.75 97.5 91.75 98.1 91.75 98.95 88.45 103.3 84.6 108.4 81.1 110.5 77.65 112.55 75.15 113.1
L 66.2 113.75
Q 58 113.75 56.65 109.2 56.25 107.8 56.15 104.45
L 55.7 98.9 59.85 99.4 61.05 98.95 62.85 97.65 63 97.5 57.25 97 52.55 96.5 50.15 96.9
Q 48.1 97.4 47.55 98
L 47.55 98.15 47.55 98.35 47.65 98.75 44.25 100.95 41.3 102.9 37.95 105.75
Q 36.25 105.75 34.25 111.95 32.45 117.55 32.45 120.35
L 33.35 125.3
Q 34.3 130.3 34.7 131.45 34.55 131.7 33.3 131
L 26.75 118.35
Q 20.15 105.6 20.15 104.95 20.15 94.6 31.75 84.6 42.7 75.2 52.2 75.2 53.85 75.2 63.05 79.75 72.25 84.25 75.65 84.25 78.95 84.25 80.9 81.5 83.05 77.6 84.7 75.25 91.5 65.8 111.4 64.15
L 115.1 64.15 114.35 65.55 114.25 66.7 141 56.9 147.4 57.65
Q 146.85 60.15 144.7 64
L 144.55 64.45 146.8 64.85
Q 148 64.85 149.5 61.4
L 152.6 53.9
Q 157.6 42.9 165.35 42.9
M 177.85 72.8
Q 178.25 73.3 178.25 74.05 178.25 74.8 177.85 75.35 177.45 75.85 176.9 75.85 176.35 75.85 175.95 75.35 175.55 74.8 175.55 74.05 175.55 73.3 175.95 72.8 176.35 72.25 176.9 72.25 177.45 72.25 177.85 72.8
M 173.95 74.55
Q 175 76.3 175.6 76.85 176.05 77.25 176.6 77.25
L 178.1 77.2
Q 178.5 77.3 178.45 77.9 176.6 82.65 172.9 85.7 168.9 88.9 164.15 88.9
L 161 88.45 157.8 88
Q 156.5 88 155 88.55
L 155.15 88.95 158.6 92.1 142.7 105.65
Q 131.5 115.1 127.4 115.1 125.15 115.1 121.15 113.5
L 117 111.9
Q 117.3 115.05 119.4 116.7 120.65 117.7 121.8 117.8
L 108.7 123.85 103 124.6
Q 100.45 124.6 97.2 123.5
L 94.45 122.35
Q 93.65 122.35 93.35 123.05
L 92.6 123.95 95.35 126.25
Q 97.95 127.45 99.2 127.8
L 98.25 128.15
Q 85.05 131.8 78 134.9 75.3 136.1 70.1 136.1
L 64.05 135.7 59.75 134.6 56.85 133.95
Q 56.25 133.95 56.05 134.7
L 55.95 135.4 61.6 137.7 54.25 138.15
Q 49.4 137.5 44.6 135.25 35.1 130.8 35.1 123 35.1 122.35 35.45 120
L 35.9 117.25
Q 36.85 113.45 37.9 110.8 38.8 108.55 39.15 108.55 41.85 108.55 46.5 103.85
L 50.7 99.1 52.05 98.9 53.25 99.05 51.5 104.35
Q 51.8 111.65 58.65 115.9 62.25 118.15 67.8 120.2
L 71.1 120.2 72.15 119.15 71.95 117.6 71.7 116.75 77.3 114.7 80.7 115.55
Q 84.35 115.45 84.35 113.8
L 84.05 112.5 83.45 111.25 92.3 103.45
Q 93.6 103.45 96.8 105.05 100 106.6 100.9 106.6 105.3 106.6 108.15 105.4 109.55 104.8 110.15 104.2 111.75 104.2 112.7 104.8
L 113.45 105.4
Q 114.65 105.4 115.4 104.9
L 116.2 104.2
Q 116.15 103.55 115.7 102.75
L 115.1 101.85
Q 118.8 98.15 122.05 98.15 123.55 98.15 124.25 99.1 124.95 100.05 126.55 100.05 127.4 100.05 128.25 99.55 129.25 99 129.25 98.2
L 126.9 94.25 129.9 91.25
Q 132.05 88.6 132.65 86.75 136.45 88.1 138.75 88.5
L 141.15 88.7
Q 146.6 88.7 151.65 86.65 155.5 85.1 164 80.1 167.05 84.05 169.85 85.4
L 170.9 84.85
Q 171.95 83.9 171.95 81.8 171.95 81.05 171.2 79.55 170.4 77.95 169.45 77.05
L 173.95 74.55
M 170.6 83
L 168.8 84.1 165.75 79.2 168.55 78.05
Q 170.05 82.1 170.6 83
M 87.35 47.7
L 91.1 48.55
Q 94.9 49.95 96 52.85
L 94.95 54
Q 88.05 49 88.6 49.7
L 88.6 49.8
Q 84.2 48.9 81.7 53.25 80.4 55.6 78.95 59.7
L 78.85 59.85
Q 76.85 55.3 76.85 54.4 76.85 52.45 80.4 50.1 84.05 47.7 87.35 47.7
M 104 57.85
L 106.25 60.85 98.7 63.55 98.75 63.4
Q 97.25 60.45 96.75 58.4 95.8 54.55 100.15 54
L 104 57.85
M 94.2 59.5
L 93.05 60.25 89.45 57.1
Q 88.3 56.15 87.5 56.15 87.2 56.15 86.75 57.05 86.2 58.15 86.2 59.4
L 86.95 61.15 88.15 63.3 86.3 64.5 84.75 61.35
Q 83.2 58.05 83.2 57.4 83.2 55.55 84.65 54.4 86 53.35 87.8 53.35 89.2 53.35 90.7 54.4 92.85 56 94.2 59.5
M 87.6 68.65
L 87.35 67.55 92.7 64.35 95.75 62.2 96.65 64.45
Q 92.65 66.1 91.85 66.5
L 87.6 68.65
M 81.9 76.3
L 82.45 76.3
Q 78.1 78.25 76.8 78.25 77.9 77.8 81.95 74.15
L 81.9 76.3
M 125.35 98.85
Q 124.6 98.85 124.1 98.35 123.55 97.8 123.55 97.05 123.55 96.3 124.1 95.8 124.6 95.25 125.35 95.25 126.1 95.25 126.65 95.8 127.15 96.3 127.15 97.05 127.15 97.8 126.65 98.35 126.1 98.85 125.35 98.85
M 147.15 83.2
L 148.5 80.85 149.8 81.95 150.4 82.7 147.15 83.2
M 62.75 68.3
Q 62.3 64.9 64.6 62.3 66.95 59.65 70.65 59.65 76.7 59.65 77.8 63
L 78.95 61.45
Q 79.35 62.85 81.25 66.65 80.25 65.35 76.8 63.9 73.25 62.45 70.75 62.45 67.8 62.45 66.2 65.15 65.2 66.9 65.2 68.1 65.2 70.95 67.8 73.6
L 75.5 81.2
Q 69.15 80.8 65.7 79.25 59.1 76.35 62.75 68.3
M 74.3 68.75
L 73.55 69.35 75.8 74.35
Q 73.4 74.7 72.8 73.9 71.05 71.05 68.1 66.95
L 80.05 66.15
Q 80.2 68.6 80.95 70
L 80.6 70.4
Q 80.2 69.85 79.05 69.2 77.3 68.3 75.35 68.3 74.9 68.3 74.3 68.75
M 58.3 71.6
L 58.7 73.55 59 74.45 55.85 72.75 58.3 71.6
M 69.95 117.05
L 70.45 118.95 69.75 119.2
Q 68.15 119.1 68.1 118.85
L 67.55 118.15 67.05 117.25 69.95 117.05
M 111.9 103.6
Q 114.15 102.8 114.8 102.7
L 114.85 103.05 114.8 103.85 113.55 104.3
Q 112.45 104.2 111.9 103.6
M 99.35 100
L 100.2 101.75 96.45 101.15 99.35 100
M 82.5 113.15
L 81 113.95
Q 80.05 114.25 78.85 113.95 80.4 113.1 81.9 112.2
L 82.5 113.15
M 27.3 112.6
L 27.3 115.55 30.3 115.55 30.3 112.6 27.3 112.6
M 26.85 105.1
L 26.2 103.5
Q 25.25 101.95 23.65 101.95 23 101.95 22.55 102.4
L 21.75 103.6 22.9 103.6
Q 24.05 103.55 24.7 103.95
L 25 104.35 25.1 105.1 23.9 106.85 24.65 106.85
Q 26.35 107.1 26.85 105.1
M 32.65 107.1
L 31.2 105.95 29.8 106.15 29.4 107.05 29 107.85 31.6 108.15 30.95 109.15 30.5 109.8 31.75 109.95 33 109.9
Q 33.5 108.25 32.65 107.1
M 73.25 101.4
L 71.65 100.95
Q 70.4 100.75 70.25 101.6 70.85 102.05 72.25 102.25
L 68.05 105.15 68.6 105.35 69.5 105.45
Q 71.45 105.45 72.3 104.8 73.5 103.85 73.25 101.4
M 77.75 88.6
Q 78.05 90.45 78.95 92.5
L 74.95 94
Q 76.95 94.95 77.8 94.95 79.95 94.95 79.95 92.95 79.95 91.3 78.9 89.5
L 78.4 89.05 77.75 88.6
M 68.75 90.9
Q 69.45 90.35 69.45 89.2
L 68.9 88.05
Q 68 86.8 65.95 86.1
L 64.45 87.4 67.75 88.75 68.15 89.1
Q 66.2 90.25 65.1 91.8
L 65.95 91.85
Q 68.05 91.45 68.75 90.9
M 43.95 90.9
L 43.6 92.15
Q 45.1 92.8 45.9 92.7
L 45.15 93.95
Q 44.55 95.25 45.25 95.3 46.5 95.25 47.2 94.35
L 47.65 93.4
Q 47.65 92.65 47.15 91.75 46.5 90.55 45.4 90.55
L 44.55 90.6 43.95 90.9
M 54.9 84.75
L 52.25 86.45
Q 50.25 87.65 51.15 87.95
L 51.9 88.15
Q 56.7 87.25 56.7 85.05 56.7 83.55 53.8 82.25
L 53.1 82.4 53.05 83.4 54.9 84.75
M 29.35 95.65
Q 28.25 97.45 28.25 98.4
L 28.3 99.15 28.4 99.25
Q 30.2 97.55 31.1 96.05
L 31.4 95.9 32.75 98.6 31.55 100.3
Q 33.25 100.1 33.95 99.4 34.35 99 34.35 98.55 34.35 96.15 33 94.9 32 93.95 30.85 93.95 30.45 93.95 29.35 95.65
M 37.6 84.65
L 37.3 85.3 41.15 86.05 41.25 86.45 39.65 89
Q 42.35 88.35 42.65 86.25 43 84.05 39.2 84.05
L 38.25 84.2 37.6 84.65
M 128.2 76
L 128.8 77.55 127.2 78.4 126.5 79.85
Q 128.35 80.25 129.5 79.45 130.5 78.8 130.5 77.85 130.5 76.45 129.8 75.5
L 128.7 74.45 127.7 74.4 128.2 76
M 138.4 63.85
Q 137.15 62.95 135.7 64 136.2 65.6 138.8 67.1
L 135.35 68.85 136.55 69.5 137.9 69.85
Q 139.65 69.85 139.65 66.6 139.65 64.75 138.4 63.85
M 124.1 71.05
L 126.4 70.8
Q 127.35 70.2 127.35 69.1 127.35 68 126.85 67.2 126.2 66 124.8 66.15 124.15 66.5 123.55 67.2
L 126.25 68.5 124.1 71.05
M 119.05 84.6
Q 119.7 85.05 120.65 85.05 121.7 85.05 122.4 84.15 122.95 83.45 122.95 82.95 122.95 82.15 122.45 81.4 121.65 80.25 119.95 80.85
L 119.45 81.1
Q 119.2 81.25 119.2 81.9 119.2 82.5 119.65 82.5
L 121 82.55
Q 119.35 83.6 119.05 84.6
M 112.5 85.4
Q 112.5 84.65 111.85 83.7 110.8 82.1 108.65 82.15
L 108.35 81.9
Q 108.05 81.75 108.05 82.35
L 108.8 83.25 110.7 85.65 110.75 85.7 108.05 87.3 107.55 88.05 107.65 88.25
Q 107.8 88.45 108.4 88.45 109.8 88.45 111.15 87.45 112.5 86.45 112.5 85.4
M 85.2 93.1
L 84.55 93.7 84.6 94.6 87.5 95 83.1 97.5 84.55 98.6
Q 85.75 98.3 87.4 97 89.05 95.65 89.05 95.05 89.05 94.55 88.45 93.75 87.65 92.75 86.45 92.75 85.75 92.75 85.2 93.1
M 87.6 81.4
L 90.15 82.9 88.7 83.35
Q 87.5 83.75 86.95 84.2
L 88.9 85.3
Q 90.05 84.8 90.8 83.9 91.5 83.1 91.5 82.3 91.5 80.1 88.3 80.15 87.95 81.4 87.6 81.4
M 100.2 85.95
Q 99.05 84.55 97.05 84.85
L 96.45 86.05 98.7 86.15
Q 98.7 86.65 99.2 87.25
L 96.75 88.8 96.1 89.45 96.9 90.05 97.85 90.2
Q 98.4 90.2 99.7 89.4 101.05 88.55 101.05 88.05 101.05 86.95 100.2 85.95
M 100.05 78.9
L 100.9 79.6 101.9 79.8
Q 102.85 79.8 103.55 78.6 104.2 77.55 104.2 76.5 104.2 75.65 103.7 75.2
L 101.3 75.25 100.75 76.3
Q 100.75 76.7 102.65 76.85
L 102.9 77 100.05 78.9
M 114.95 72.2
L 113.85 72.5 113.15 73.1 113.1 74 114.3 74.1 115.2 74 115.6 74.5 115.85 75.55
Q 115.85 76.15 115.25 76.45 114.45 76.8 114.4 76.9
L 115.8 77.1
Q 117.6 77.05 117.6 75.55 117.6 74.35 117.1 73.65 116.55 72.95 114.95 72.2
M 163.95 55.95
Q 163.95 54.75 163.1 53.9 162.2 53 161 53 159.8 53 158.95 53.9 158.05 54.75 158.05 55.95 158.05 57.15 158.95 58.05 159.8 58.9 161 58.9 162.2 58.9 163.1 58.05 163.95 57.15 163.95 55.95
M 162.35 55.25
L 162.75 55.95 162.2 56.85
Q 161.8 57.2 161.15 57.2 159.85 57.2 159.25 56.45
L 160.5 55.8
Q 161.9 55.15 162.35 55.25
M 167 45.75
Q 166.1 46.6 166.1 47.85 166.1 49.1 167 50 167.85 50.85 169.1 50.85 170.35 50.85 171.25 50 172.1 49.1 172.1 47.85 172.1 46.6 171.25 45.75 170.35 44.85 169.1 44.85 167.85 44.85 167 45.75
M 169.55 47
L 170.75 49 168.2 49
Q 168.2 48.8 167.25 48.45 169.25 47.15 169.55 47 Z"/>

<path fill="#FFFFFF" stroke="none" d="
M 81 113.95
L 82.5 113.15 81.9 112.2
Q 80.4 113.1 78.85 113.95 80.05 114.25 81 113.95
M 100.2 101.75
L 99.35 100 96.45 101.15 100.2 101.75
M 114.8 102.7
Q 114.15 102.8 111.9 103.6 112.45 104.2 113.55 104.3
L 114.8 103.85 114.85 103.05 114.8 102.7
M 70.45 118.95
L 69.95 117.05 67.05 117.25 67.55 118.15 68.1 118.85
Q 68.15 119.1 69.75 119.2
L 70.45 118.95
M 148.5 80.85
L 147.15 83.2 150.4 82.7 149.8 81.95 148.5 80.85
M 124.1 98.35
Q 124.6 98.85 125.35 98.85 126.1 98.85 126.65 98.35 127.15 97.8 127.15 97.05 127.15 96.3 126.65 95.8 126.1 95.25 125.35 95.25 124.6 95.25 124.1 95.8 123.55 96.3 123.55 97.05 123.55 97.8 124.1 98.35
M 168.8 84.1
L 170.6 83
Q 170.05 82.1 168.55 78.05
L 165.75 79.2 168.8 84.1
M 178.25 74.05
Q 178.25 73.3 177.85 72.8 177.45 72.25 176.9 72.25 176.35 72.25 175.95 72.8 175.55 73.3 175.55 74.05 175.55 74.8 175.95 75.35 176.35 75.85 176.9 75.85 177.45 75.85 177.85 75.35 178.25 74.8 178.25 74.05 Z"/>

<path fill="#FFFF33" stroke="none" d="
M 73.55 69.35
L 74.3 68.75
Q 74.9 68.3 75.35 68.3 77.3 68.3 79.05 69.2 80.2 69.85 80.6 70.4
L 80.95 70
Q 80.2 68.6 80.05 66.15
L 68.1 66.95
Q 71.05 71.05 72.8 73.9 73.4 74.7 75.8 74.35
L 73.55 69.35
M 93.05 60.25
L 94.2 59.5
Q 92.85 56 90.7 54.4 89.2 53.35 87.8 53.35 86 53.35 84.65 54.4 83.2 55.55 83.2 57.4 83.2 58.05 84.75 61.35
L 86.3 64.5 88.15 63.3 86.95 61.15 86.2 59.4
Q 86.2 58.15 86.75 57.05 87.2 56.15 87.5 56.15 88.3 56.15 89.45 57.1
L 93.05 60.25 Z"/>

<path fill="#57B02D" stroke="none" d="
M 162.75 55.95
L 162.35 55.25
Q 161.9 55.15 160.5 55.8
L 159.25 56.45
Q 159.85 57.2 161.15 57.2 161.8 57.2 162.2 56.85
L 162.75 55.95 Z"/>
</g>

<g id="Graphics_Symbol_852_0_Layer0_0_FILL">
<path fill="#000000" fill-opacity="0.25098039215686274" stroke="none" d="
M 119.7 116.75
Q 118.4 115.75 117.55 114.5 117.15 114.3 110.9 117.85
L 99.6 124.2 103 124.6 107 123.9 108.1 123.75 108.7 123.85 121.8 117.8
Q 120.9 117.7 119.7 116.75
M 58.7 73.55
L 58.3 71.6 55.85 72.75 59 74.45 58.7 73.55
M 156.8 90.55
L 155.15 88.95
Q 147.4 95.85 134.35 103.8 125.25 109.35 118.95 112.35 122.75 115.1 127.1 115.1 131.35 115.1 143.6 104.85
L 158.3 92.6 158.6 92.1 156.8 90.55
M 121.2 91.65
Q 114.2 92.9 102.9 95.6 94.4 97.6 92.5 97.6
L 92.3 103.45
Q 95.25 102.15 97.35 102.55 99.4 102.9 100.15 101 100.9 99.05 101.1 102.75 101.25 106.45 108.65 104.3 116.05 102.15 120.8 96.65 125.55 91.15 130.3 84.1 129.25 84.65 126.2 88.2 123.6 91.25 121.2 91.65
M 87.35 67.55
L 87.6 68.65 91.9 66.35 96.65 64.45 95.75 62.2 87.35 67.55
M 81.05 66.4
L 81.25 66.65 80.1 64.25 78.95 61.45 77.8 63
Q 76.75 61.35 76.1 60.75 75 59.65 70.65 59.65 68.3 59.75 66.25 60.9 62.25 63.1 62.75 68.3 54.85 80.25 62.5 74.65
L 58.55 77.75
Q 52.6 74.2 47.8 74.7 43 75.2 31.75 84.6 19.6 94.75 20.15 104.95 21.95 119.5 33.3 131
L 34.55 131.7 34.7 131.45
Q 35.5 130.7 34.45 126.9 33.35 123.1 34.5 118.75
L 36.5 110.4
Q 37.4 106.4 37.95 105.75 37.45 110.35 35.9 117.25
L 35.5 119.8 35.1 123
Q 35.1 129.45 43.2 134.3 49.6 138.15 53.5 138.15
L 60.75 137.75 60.8 137.4 55.95 135.4 56.85 133.95 58.45 134.35
Q 63.75 136.1 69.2 136.95 74.6 137.75 79.2 136.4 83.75 135 98.25 128.15
L 98.45 127.6 95.35 126.25 95 126.4
Q 89.15 129.35 80.45 131.2 73.1 132.75 68.35 132.75
L 59.25 132.5
Q 54.95 132.1 53.55 130.65 50.65 127.7 47.9 122.9 44.9 117.75 44.9 115 46 109.9 48 107.05 48.75 111.4 51.75 113.9 54.55 116.2 58.5 116.2
L 59.9 116.1
Q 61.9 116.95 66.2 113.75 77.6 113.75 82.9 110.95 88.15 108.1 90.2 104.3 92.2 100.45 91.75 98.1
L 91.7 98.05
Q 81.05 105.05 76 107.1 72.7 108.4 68.75 108.4 62.05 108.4 60.15 106.25 59.5 105.55 59.1 104.25
L 58.35 102.15
Q 61.05 102.8 62.45 100.8
L 63.35 98.6 63.2 97.8 63.05 97.7 62.85 97.65
Q 57.9 98.95 58.55 99.15 59.2 99.35 57.5 99.15
L 55.7 98.9 56.1 102.55 56.1 102.85 56.05 109.7 56.05 109.8
Q 55.2 107.9 51.5 104.35 52.8 100 53.25 99.05
L 52.5 98.6
Q 49.45 97.5 49.75 100.05
L 47.65 98.75 47.45 98.45 47.45 98.2
Q 44.75 98.35 40.4 100.6 35.2 103.3 32.65 106.85 33.1 107.5 33.2 108.7
L 33 109.9 32.5 109.95 32.15 109.95 30.5 109.8 29.4 112.3 29.75 112.5 30 112.45 30.25 112.95 29.7 114.15 28.95 115.75 29 114.85 28.65 114.85 28.4 117.05 28.5 119.2 26.75 113.9
Q 26.1 110.65 25.95 106.55
L 23.9 106.85 24.45 105.9 25.1 105.1
Q 25.05 104.35 24.7 103.95 24.1 103.2 21.9 103.75
L 21.75 103.6 22.35 102.65
Q 22.95 101.95 23.65 101.95
L 24.7 102.35 26.2 103.5
Q 26.2 96.3 30.55 91.25 34.85 86.15 41 86.15
L 39.55 85.85 37.3 85.3 37.6 84.65 37.8 84.4 38.35 84.1 39.2 84.05
Q 40.85 84.05 42.1 85.95
L 45.2 85.65 53.3 86.4 54.9 84.75 53.05 83.4 53.1 82.55 53.1 82.4
Q 53.2 82.25 53.8 82.25 54.85 82.25 55.75 83.1 56.7 84 56.7 85.05
L 56.4 86.1 55.7 86.7 65.75 87.95 64.45 87.4 65.95 86.1
Q 66.75 86.1 67.65 86.55 68.75 87.15 69.3 88.2 73.35 88.2 76.2 86.75 79.05 85.25 79.05 83.15
L 77.45 83.9 75.65 84.25
Q 74.6 84.25 72.25 83.45 73.95 82.65 75.5 81.2 68.2 74.45 66.35 71.9 65.2 70.3 65.2 68.1 65.2 66.9 66.2 65.15 67.8 62.45 70.75 62.45 73.8 62.45 75.7 63.65 78.95 65.65 81.05 66.4
M 56.3 111.2
L 56.25 110.25 58.45 114.5
Q 55.9 112.5 56.3 111.2
M 115.9 66.05
L 119.75 65.4 121 65.25 121 64.95 126.55 63.85 138.75 61.65 140.15 61.6
Q 141.8 61.6 142.95 62.35
L 144.7 64
Q 151.15 59.55 147.4 57.65 146.9 55.15 144.35 55.5 141.75 55.8 141.05 56.35 140.3 56.9 132.05 60.05
L 115.9 66.05
M 105.95 68.45
L 114.35 65.55 115.1 64.15 111.4 64.15 108.05 64.75
Q 107.85 62.15 97.6 65.95 87.35 69.75 83.3 73.5
L 81.95 74.75 81.95 74.15 79.6 76.25
Q 77.5 78 76.8 78.25
L 77.2 78.65 79.65 77.7
Q 79.25 78.45 79.25 79.05
L 79.1 83.05 86.9 77.7
Q 93.9 72.75 96.4 71.9
L 105.95 68.45
M 93.05 48.6
L 86.95 47.7
Q 85.25 47.7 81.45 49.5 76.85 51.75 76.85 54.4 76.85 55.4 78.85 59.85 78.8 59.4 82.65 54.25 84.6 51.7 89 51.7 89.1 50.2 88.45 49.5
L 94.95 54 96 52.85
Q 97.4 49.5 93.05 48.6
M 177.15 48.8
Q 172.8 42.9 167.7 42.75 162.6 42.6 159.8 43.8 157 45 153.95 49.3 150.85 53.6 149.25 59.35
L 147.85 64.25
Q 150.8 62.7 151.95 60.45
L 154 56.35
Q 156.95 51.15 163.3 51.15 166.25 51.15 168.85 53.65 171.85 56.5 171.85 60.75 171.85 63.25 171.3 64.35 170.4 66.05 167.2 68.05 160.85 71.85 133.55 82.7
L 133.6 82.95 137.95 83.25 140.15 83.4 139.55 83.8
Q 133.05 88.1 152.15 82.35
L 156.1 82.85
Q 159.2 83 169.95 75.7 180.65 68.35 180.65 58.9 180.65 53.55 177.15 48.8
M 166.1 47.85
Q 166.1 46.6 167 45.75 167.85 44.85 169.1 44.85 170.35 44.85 171.25 45.75 172.1 46.6 172.1 47.85 172.1 49.1 171.25 50 170.35 50.85 169.1 50.85 167.85 50.85 167 50 166.1 49.1 166.1 47.85 Z"/>

<path fill="#339900" stroke="none" d="
M 162.75 55.95
L 162.35 55.25
Q 161.9 55.15 160.5 55.8
L 159.25 56.45
Q 159.85 57.2 161.15 57.2 161.8 57.2 162.2 56.85
L 162.75 55.95
M 170.75 49
L 169.55 47
Q 169.25 47.15 167.25 48.45 168.2 48.8 168.2 49
L 170.75 49 Z"/>
</g>

<g id="Parts_Heads_headColorMC_36_Layer1_0_FILL">
<path fill="#57B02D" stroke="none" d="
M 176.1 47.45
Q 171.65 42.9 165.35 42.9 157.6 42.9 152.6 53.9
L 149.5 61.4
Q 148 64.85 146.8 64.85
L 144.55 64.45 144.7 64
Q 146.85 60.15 147.4 57.65
L 141 56.9 114.25 66.7 114.35 65.55 115.1 64.15 108.4 64.45 105.8 61.05 106.25 60.85 104 57.85 103.15 56.9 102.9 56.3
Q 102.55 55.5 100.55 54.25
L 100.25 54.05 100.15 54 91.7 48.45 90.7 48.45 87.35 47.7
Q 84.05 47.7 80.4 50.1 77.35 52.1 76.95 53.85
L 76.7 54.05 70.9 59.65 70.65 59.65
Q 66.95 59.65 64.6 62.3 62.3 64.9 62.75 68.3 58.2 70.25 53.25 75.4
L 52.2 75.2
Q 42.7 75.2 31.75 84.6 20.15 94.6 20.15 104.95 20.15 105.6 26.75 118.35
L 33.3 131
Q 34.55 131.7 34.7 131.45 34.3 130.3 33.35 125.3
L 32.45 120.35
Q 32.45 117.55 34.25 111.95 36.25 105.75 37.95 105.75
L 41.3 102.9 47.65 98.75 47.55 98.35 47.55 98
Q 48.1 97.4 50.15 96.9
L 52.55 96.5 63 97.5 62.85 97.65 61.05 98.95 59.85 99.4 55.7 98.9 56.15 104.45
Q 56.25 107.8 56.65 109.2 58 113.75 66.2 113.75
L 75.15 113.1
Q 77.65 112.55 81.1 110.5 84.6 108.4 88.45 103.3 91.75 98.95 91.75 98.1 91.75 97.5 92.15 97.5
L 92.5 97.6 93.35 99.05
Q 94.3 100.5 94.9 100.5
L 100.45 98.75
Q 100.9 98.75 101.5 100.25
L 102.2 101.75
Q 114.55 101.75 122.55 92.35
L 127.85 85.9
Q 130.65 82.95 133.6 82.95 143.55 82.95 145.75 81.25
L 146.95 80.05
Q 147.7 79.5 149.6 79.5
L 152.3 82.35
Q 160.15 82.35 170.25 74.25 180.65 65.95 180.65 58.9 180.65 52.1 176.1 47.45 Z"/>
</g>
</defs>

<g transform="matrix( 1, 0, 0, 1, -62.75,-76.85) ">
<g transform="matrix( 1, 0, 0, 1, 0,0) ">
<g transform="matrix( 1, 0, 0, 1, 0,0) ">
<use xlink:href="#Graphics_Symbol_802_0_Layer0_0_FILL"/>
</g>
</g>

<g transform="matrix( 1, 0, 0, 1, 0,0) ">
<g transform="matrix( 1, 0, 0, 1, 0,0) ">
<use xlink:href="#Graphics_Symbol_852_0_Layer1_0_FILL"/>
</g>

<g transform="matrix( 1, 0, 0, 1, 0,0) ">
<use xlink:href="#Graphics_Symbol_852_0_Layer0_0_FILL"/>
</g>
</g>

<g id="hat1" transform="matrix( 0.983917236328125, -0.17529296875, 0.17529296875, 0.983917236328125, 45.2,78.25) ">
<g id="colorMC" transform="matrix( 0.9999847412109375, 0, 0, 0.9999847412109375, 0,0) "/>

<g id="colorMC2" transform="matrix( 1, 0, 0, 1, 0,0) "/>
</g>

<g id="hat2" transform="matrix( 0.9733734130859375, -0.2247314453125, 0.2247314453125, 0.9733734130859375, 38,60.6) ">
<g id="colorMC_FL" transform="matrix( 0.9999847412109375, 0, 0, 0.9999847412109375, 0,0) "/>

<g id="colorMC2_FL" transform="matrix( 1, 0, 0, 1, 0,0) "/>
</g>

<g id="hat3" transform="matrix( 0.96026611328125, -0.2753753662109375, 0.2753753662109375, 0.96026611328125, 26,48.4) ">
<g id="colorMC_FL_FL" transform="matrix( 0.9999847412109375, 0, 0, 0.9999847412109375, 0,0) "/>

<g id="colorMC2_FL_FL" transform="matrix( 1, 0, 0, 1, 0,0) "/>
</g>

<g id="hat4" transform="matrix( 0.944580078125, -0.3252410888671875, 0.3252410888671875, 0.944580078125, 18.85,34.5) ">
<g id="colorMC_FL_FL_FL" transform="matrix( 0.9999847412109375, 0, 0, 0.9999847412109375, 0,0) "/>

<g id="colorMC2_FL_FL_FL" transform="matrix( 1, 0, 0, 1, 0,0) "/>
</g>
</g>

<g transform="matrix( 1, 0, 0, 1, -75.4,-101.9) ">
<g transform="matrix( 1, 0, 0, 1, 0,0) ">
<use xlink:href="#Parts_Heads_headColorMC_36_Layer1_0_FILL"/>
</g>
</g>

<g transform="matrix( 1, 0, 0, 1, -62.75,-76.85) ">
<g transform="matrix( 1, 0, 0, 1, 0,0) ">
<g transform="matrix( 1, 0, 0, 1, 0,0) ">
<use xlink:href="#Graphics_Symbol_802_0_Layer0_0_FILL"/>
</g>
</g>
</g>
</svg>
