
<svg xmlns="http://www.w3.org/2000/svg" version="1.1" xmlns:xlink="http://www.w3.org/1999/xlink" preserveAspectRatio="none" x="0px" y="0px" width="550px" height="400px" viewBox="0 0 550 400">
<defs>
<g id="Parts_Heads_headColorMC_36_Layer1_0_FILL">
<path fill="#57B02D" stroke="none" d="
M 176.1 47.45
Q 171.65 42.9 165.35 42.9 157.6 42.9 152.6 53.9
L 149.5 61.4
Q 148 64.85 146.8 64.85
L 144.55 64.45 144.7 64
Q 146.85 60.15 147.4 57.65
L 141 56.9 114.25 66.7 114.35 65.55 115.1 64.15 108.4 64.45 105.8 61.05 106.25 60.85 104 57.85 103.15 56.9 102.9 56.3
Q 102.55 55.5 100.55 54.25
L 100.25 54.05 100.15 54 91.7 48.45 90.7 48.45 87.35 47.7
Q 84.05 47.7 80.4 50.1 77.35 52.1 76.95 53.85
L 76.7 54.05 70.9 59.65 70.65 59.65
Q 66.95 59.65 64.6 62.3 62.3 64.9 62.75 68.3 58.2 70.25 53.25 75.4
L 52.2 75.2
Q 42.7 75.2 31.75 84.6 20.15 94.6 20.15 104.95 20.15 105.6 26.75 118.35
L 33.3 131
Q 34.55 131.7 34.7 131.45 34.3 130.3 33.35 125.3
L 32.45 120.35
Q 32.45 117.55 34.25 111.95 36.25 105.75 37.95 105.75
L 41.3 102.9 47.65 98.75 47.55 98.35 47.55 98
Q 48.1 97.4 50.15 96.9
L 52.55 96.5 63 97.5 62.85 97.65 61.05 98.95 59.85 99.4 55.7 98.9 56.15 104.45
Q 56.25 107.8 56.65 109.2 58 113.75 66.2 113.75
L 75.15 113.1
Q 77.65 112.55 81.1 110.5 84.6 108.4 88.45 103.3 91.75 98.95 91.75 98.1 91.75 97.5 92.15 97.5
L 92.5 97.6 93.35 99.05
Q 94.3 100.5 94.9 100.5
L 100.45 98.75
Q 100.9 98.75 101.5 100.25
L 102.2 101.75
Q 114.55 101.75 122.55 92.35
L 127.85 85.9
Q 130.65 82.95 133.6 82.95 143.55 82.95 145.75 81.25
L 146.95 80.05
Q 147.7 79.5 149.6 79.5
L 152.3 82.35
Q 160.15 82.35 170.25 74.25 180.65 65.95 180.65 58.9 180.65 52.1 176.1 47.45 Z"/>
</g>
</defs>

<g transform="matrix( 1, 0, 0, 1, -75.4,-101.9) ">
<g transform="matrix( 1, 0, 0, 1, 0,0) ">
<use xlink:href="#Parts_Heads_headColorMC_36_Layer1_0_FILL"/>
</g>
</g>
</svg>
