
<svg xmlns="http://www.w3.org/2000/svg" version="1.1" xmlns:xlink="http://www.w3.org/1999/xlink" preserveAspectRatio="none" x="0px" y="0px" width="550px" height="400px" viewBox="0 0 550 400">
<defs>
<g id="Layer0_0_FILL">
<path fill="#010101" stroke="none" d="
M 5.05 0.45
Q 4.9 0.05 4.55 0
L 4.3 0.05
Q 3.95 0.05 3.7 0.2
L 3.15 0.4
Q 2.75 0.6 2.15 0.6
L 1.9 0.55 1.7 0.55 1.1 0.4 0.9 0.4 0.65 0.3 0.45 0.3 0.35 0.35 0.3 0.4 0.2 0.4
Q 0.05 0.35 0.05 0.55 0 0.7 0.05 0.8
L 0.1 0.95 0.1 1.1 0.3 1.6 0.9 2.15
Q 1.55 2.65 2.35 2.65 3.1 2.7 3.75 2.5
L 4.45 2.1 4.65 1.9 5.05 1.15
Q 5.15 0.8 5.05 0.45 Z"/>
</g>
</defs>

<g transform="matrix( 1, 0, 0, 1, 0,0) ">
<use xlink:href="#Layer0_0_FILL"/>
</g>
</svg>
