
<svg xmlns="http://www.w3.org/2000/svg" version="1.1" xmlns:xlink="http://www.w3.org/1999/xlink" preserveAspectRatio="none" x="0px" y="0px" width="550px" height="400px" viewBox="0 0 550 400">
<defs>
<g id="Layer0_0_MEMBER_0_FILL">
<path fill="#010101" stroke="none" d="
M 53.9 36.6
Q 53.35 35.45 52.75 34.8 51.65 33.5 49.9 34.05 49.6 32.7 47.9 32.2 46.05 31.65 44.6 33.15 43 30.55 40.35 29 37.65 27.45 34.6 27.35 34.75 25.45 33.35 23.65 31.7 21.65 29.2 21.7 30.15 13.4 27.95 0.85 21.8 -1.75 18.9 2.95 16.05 7.65 19.9 14.6 18.7 13.7 14.8 13.9 10.95 14.1 7.3 15.2 -2.35 18.05 2.2 22.45
L 2.45 22.65
Q 1.75 23.55 1.65 24.6 -0.35 25.95 0.1 29.85 0.35 32.05 1 36.6 0.3 36.85 0.3 39.65 0.3 42.6 1.1 45.6 3.4 53.9 8.8 52.35 11.35 50.5 23.65 51.4 30.85 51.9 48.15 53.6 63.3 54.75 70.45 53.45 79.9 51.7 78.6 45.4 77.95 42.8 76.2 41.5 74.1 39.85 71.05 40.9 71.4 38.8 69.25 37.95 66.9 37 64.75 39.55 63.7 39.05 59.95 38.35 56.2 37.6 53.9 36.6
M 50.85 35.45
Q 51.55 35.5 52.3 36.65 55.2 44.5 60.75 50.5 58.8 50.6 56.8 50.5 56.45 49.35 52.2 43.7 49.05 39.4 50.15 35.5 50.3 35.6 50.85 35.45
M 46.8 34.3
Q 49.1 33.35 48.1 36.85 47 40.95 41.6 49.25 41 50.2 39.7 50.15 37.9 49.9 36.55 49.9 38.3 44.15 41.65 39.4 44.6 35.25 46.8 34.3
M 45.55 46
Q 47.7 43 48.5 40.95 49.25 42.9 51.05 45.35 53.7 49.05 54.6 50.5
L 43.25 50.2
Q 43.65 48.65 45.55 46
M 54.8 38.3
L 55.25 38.5
Q 59.4 39.9 64 40.5 62.75 42.15 60.15 46.1 57.1 42.55 54.8 38.3
M 65.3 48.3
L 64.8 49.4
Q 63.75 49.2 63.15 49.05 62.1 48.8 61.7 47.4 61.8 47.3 64.8 42.45 67 38.85 69.15 40.2 67.85 44.55 65.3 48.3
M 76.9 46.45
Q 76.95 47.55 75.1 47.8 70.9927734375 49.38359375 66.45 50.05 66.9703125 49.8501953125 68.65 46.4 70.45 42.65 71.7 43.05 72.1 43.3 72.5 43
L 72.4 43.05
Q 72.95 42.45 74.3 43 75.65 43.55 76.4 44.8 76.5 45.2 76.9 46.45
M 25.3 6.95
Q 24.45 8.2 24.45 10.05 24.35 14.85 28.45 15 28.45 15.05 28.25 16.8 28.1 18.1 28.3 20.5 28.2 20.45 27.55 20.3
L 27.8 20.3
Q 25.15 19.95 22.7 15.35 20.8 11.75 19.6 6.8 19.35 2.75 21.15 2.15 22.45 1.75 27.8 1.55 27.8 1.65 27.5 5.85 26.2 5.6 25.3 6.95
M 27.4 7.95
L 27.3 12.15
Q 26.55 11.85 26.2 11.15 25.85 10.4 26.1 9.65 26.4 8.55 27.4 7.95
M 25.35 21.75
Q 26.05 22.55 27 22.9 26.35 24.3 24.1 26.7 21.15 29.75 20.3 30.9 17.25 30.45 14.35 29.55 19.1 27.75 20.55 26.95 24.3 24.8 25.35 21.75
M 1.95 20.85
Q 2.1 19.7 2.75 18.85 6.3 20.5 13.1 20.95 23.65 21.55 24.3 21.65 22.15 24.05 19.5 25.65 17.65 24.4 11.45 23.95 5.15 23.45 2.3 21.65 2.1 21.3 1.95 21
L 1.95 20.85
M 5.8 18.2
L 7.1 17.8
Q 8.85 17.65 15.2 16.45 20.95 16 22.35 19.3 16.8 19.4 14.5 19.35 9.6 19.15 5.8 18.2
M 2.75 24.5
Q 3 23.6 3 22.85 5.7 24.7 10.1 25.4 12.7 25.85 18.5 26.45 13.15 30.65 2.65 24.95
L 2.75 24.5
M 1.1 31.75
Q 1 31.2 1 30.45 1 29 1.55 25.65 5 29.95 15.4 32 24.6 33.85 26.6 32.7 25 39.25 16.3 37.4 13.9 36.85 1.1 31.75
M 4.8 49.15
Q 3.75 48.3 2.85 46.5 5 48.5 7.7 50.05 7.15 50.2 6.55 50.05 5.4 49.65 4.8 49.15
M 4.55 45.65
Q 0.5 42.8 1.55 38.55 8.2 44.8 16.6 48.3 13.5 48.4 10.85 49.15 6.8 47.25 4.55 45.65
M 19.65 48.4
Q 19.75 47.9 19.4 47.4 22.95 44.9 25.5 41.45 25.25 44.75 25.4 48.9
L 19.65 48.4
M 14.8 45.25
Q 16.45 44.9 19.3 41.5 21.85 38.45 25.65 38.55
L 25.55 39.9
Q 25.2 39.25 23.1 41.5 19.3 45.5 18.1 46.55 17.75 46.65 17 46.3 15.6 45.55 14.8 45.25
M 14.4 43.25
Q 14.35 43.9 12.25 43.35 10.05 42.8 7.7 41.5 1.25 38 2.25 34.15 10.55 39.1 18.1 39.5 17 42.15 14.4 43.25
M 33.25 32.55
Q 33.75 27.25 36.85 29.25 37.45 29.65 40.05 31.8 42.3 33.7 43.8 34.45 40.5 38.8 38.95 41.3 36.25 45.6 34.95 49.6 34.85 49.7 34.95 49.8 30.4 50.95 31 44.5 32.7 36.1 33.25 32.55
M 26.8 26.05
Q 27.25 29.25 26.65 32.4 24.55 31.55 21.75 31.1 24.45 28.75 26.8 26.05
M 29.55 49.3
Q 25.25 50.45 26.2 38.95 26.75 31.75 28.85 22.95 33.4 22.3 31.65 32.55 31.15 35.35 30 41.45 29.15 46.65 29.55 49.3 Z"/>
</g>
</defs>

<g transform="matrix( 1, 0, 0, 1, 0,0) ">
<use xlink:href="#Layer0_0_MEMBER_0_FILL"/>
</g>
</svg>
