
<svg xmlns="http://www.w3.org/2000/svg" version="1.1" xmlns:xlink="http://www.w3.org/1999/xlink" preserveAspectRatio="none" x="0px" y="0px" width="550px" height="400px" viewBox="0 0 550 400">
<defs>
<g id="Layer0_0_FILL">
<path fill="#000000" stroke="none" d="
M 15.75 -3.35
Q 15.3 -3.35 13.75 -6.6 11.9 -10.5 10.05 -12.4 9.45 -13.05 8.1 -13.3 7.1 -13.8 7.3 -16.15
L 6.8 -16.3 0.4 -15.05 -7.35 -14.5
Q -8.9 -14.5 -10.5 -16 -12.05 -17.5 -13.1 -17.5 -15.9 -17.5 -17.2 -9.2 -18 -4.15 -18 0.55 -18 5.25 -16.3 7.55 -14.25 10.35 -13.95 11.95 -13.25 15.9 -13.8 24.1
L -14.5 32.15 -14.3 35.6
Q -14 35.45 -13.5 35.6
L -13.7 35.65 -14.3 35.6
Q -14.55 37.95 -12.7 38.8
L -9.5 39.4 -7.8 39.3 -7.55 39.05 -7.45 38.2
Q -7.45 37 -8.3 37.1
L -8 18.55
Q -6.2 19.15 -2.9 21.9
L 0.1 24.5
Q 2.7 24.5 2.4 27.1 1.8 31.6 2.15 32.8 4.45 41.1 32.8 41.1 39.3 41.1 44.8 36.2 49.5 32.05 49.5 29.15
L 49.1 28.4
Q 48.65 27.85 48.25 27.8 47.15 28.85 42.5 28.85 34.45 28.85 30.3 27.05 26.2 25.25 24.35 21.05 23.3 18.65 19.5 6.85 16.2 -3.35 15.75 -3.35
M 4.15 -13.55
Q 8.25 -13.55 13.3 -1.95 15.85 3.8 17.65 9.6 18.7 9.6 19.5 16.3 21.95 24.3 30.75 29.45 33.05 30.8 39.9 31
L 46.75 30.65
Q 42.9 36.05 41.45 37.3 39.5 39 36.3 39
L 10.65 37.7 7.35 36.25
Q 4 34.55 4 30.55 4 30.05 4.45 30.1 4.85 30.15 4.85 29.65 4.85 26.55 -0.45 21.85 -5.75 17.2 -10.2 16.3
L -9.95 37.05
Q -10.8 36.45 -11.55 36.4
L -12.25 36.45
Q -12.5 36.35 -12.5 32.1
L -11.75 12.35
Q -11.75 10.5 -13.95 6.4 -16.15 2.25 -16.15 0.65 -16.15 -2.8 -15.55 -6.75 -14.65 -12.45 -12.85 -15.1 -11.7 -13.95 -8.2 -12.85 -4.6 -11.7 -2 -11.7 2.7 -13.55 4.15 -13.55
M -8.3 37.2
Q -8.3 37.7 -8.8 37.2
L -8.3 37.2 Z"/>
</g>
</defs>

<g transform="matrix( 1, 0, 0, 1, 0,0) ">
<use xlink:href="#Layer0_0_FILL"/>
</g>
</svg>
