
<svg xmlns="http://www.w3.org/2000/svg" version="1.1" xmlns:xlink="http://www.w3.org/1999/xlink" preserveAspectRatio="none" x="0px" y="0px" width="550px" height="400px" viewBox="0 0 550 400">
<defs>
<g id="Layer0_0_FILL">
<path fill="#000000" fill-opacity="0.25098039215686274" stroke="none" d="
M 11.25 -9.7
Q 8.6 -12.45 6.9 -13.25 -1.4 -14.6 -4.4 -14.2 -7.4 -13.85 -8.9 -15.15 -10.3 -16.4 -11.85 -16.4 -13.9 -16.4 -15.55 -9.8 -16.9 -4.3 -16.9 -0.45 -16.9 4.4 -14.75 10.55 -12.6 16.65 -12.6 22.5
L -13.85 29.55
Q -13.85 34.65 -13.05 36.4 -12.25 38.15 -10.45 38.2 -8.7 38.2 -8.75 35
L -8.2 18.45 -5.75 19.05
Q -3.25 19.8 -1.5 21.4 -0.6 22.2 0.4 24.25 2.3 24.8 2.3 26.5
L 2.2 28.8 2.25 28.95
Q 4.2 34.9 8.55 37.95 12.85 41 23.65 41 32.55 41 39.15 38.45 46.3 35.75 46.3 31.55
L 46.2 30.9 46 30.75 43.05 30.1
Q 36.05 30.1 30.75 27.55 27.45 25.95 25.5 23.8 20.75 18.5 19.25 12.75 17.9 4.8 16 -1.9 14.9 -5.9 11.25 -9.7
M 32.75 34.45
Q 31.55 35.65 25.8 35.65 17.15 35.65 12.7 29.65 8.1 21.15 3.9 16.1 -0.8 13.15 -4.75 9.9 -12.5 3.5 -12.5 -2.55 -12.5 -4.95 -11.75 -5.95 -11.05 -6.95 -9.25 -6.95
L -5 -6.1 -6 -6
Q -4 -4.95 -2.15 -5
L 0.45 -5.15
Q 3.05 -4.8 7.5 3.35 18.2 28.9 32.75 34.45 Z"/>
</g>
</defs>

<g transform="matrix( 1, 0, 0, 1, 0,0) ">
<use xlink:href="#Layer0_0_FILL"/>
</g>
</svg>
