
<svg xmlns="http://www.w3.org/2000/svg" version="1.1" xmlns:xlink="http://www.w3.org/1999/xlink" preserveAspectRatio="none" x="0px" y="0px" width="550px" height="400px" viewBox="0 0 550 400">
<defs>
<g id="Layer0_0_FILL">
<path fill="#010101" stroke="none" d="
M 8.3 0.6
Q 8.05 0.15 7.6 0 7.15 -0.05 6.45 0.55
L 5.55 1.35
Q 4.3 2.45 3.7 2.95
L 1.9 4.5
Q 0.7 5.45 0.05 6.7 -0.1 7.1 0.05 7.6 0.25 8.2 0.7 8.2 1.25 8.2 1.8 7.8
L 1.85 7.8
Q 1.8 8.15 2 8.45 2.25 8.8 2.6 8.85
L 3.05 8.8
Q 3.65 8.75 4.1 8.35 4.85 7.9 5.8 7.05 6.65 6.15 7.3 5.1
L 7.9 4.2
Q 8.4 3.55 8.25 2.75 8.25 2.45 8.1 2.15 8.25 1.9 8.35 1.45 8.5 1 8.3 0.6 Z"/>
</g>
</defs>

<g transform="matrix( 1, 0, 0, 1, 0,0) ">
<use xlink:href="#Layer0_0_FILL"/>
</g>
</svg>
