
<svg xmlns="http://www.w3.org/2000/svg" version="1.1" xmlns:xlink="http://www.w3.org/1999/xlink" preserveAspectRatio="none" x="0px" y="0px" width="550px" height="400px" viewBox="0 0 550 400">
<defs>
<g id="Layer0_0_FILL">
<path fill="#010101" stroke="none" d="
M 52.25 22.55
Q 55.05 22.15 54.7 18.1 48.15 15.4 44.7 13.7 38.65 10.65 35.75 6.4 35.35 4.6 35.05 3.4 34.45 1.15 33.25 0 32.8 1.1 32.95 2.5 33.05 3.45 33.55 6.35 32.6 9.45 29.8 5.85 28.6 4.35 28.35 4.3 27.9 4.3 28.35 7 28.05 7.95 26.65 6.9 25.05 5.5 24.45 5.1 24 5.15 24.4 6.8 24.9 8.85 23.65 10.1 19.05 13.1 17.6 19.55 16.8 23.3 16.9 31.4 16.95 38.65 16.05 41 14.6 44.8 9.7 43.9 10.3 41.95 10.65 39.1 11.05 35.6 10.5 34.35 10.35 35.8 10.05 39.1 9.6 42.1 8.3 44.4 3.55 44.1 2.4 43.6 1.4 43.1 2.35 41.85 3.95 40 4.95 38.55 6.5001953125 36.20234375 7 33.65 6.324609375 34.9892578125 3 38.85 -1.25 43.75 0.8 43.6 1.05 45.25 2.65 46.2 4.3 47.1 6.6 46.8 6.15 47.9 6.7 48.3 7.3 48.8 8.4 46.5 16.95 52 18.4 41.5 18.75 38.6 18.8 31.9 18.8 25.55 19.2 23.4 19.55 21.2 22.75 17.55 25.65 14.2 25.55 10.9
L 27.2 12.45
Q 29.05 13.65 28.9 11.3 29.05 11.3 29.6 11.5 30.1 11.6 30.4 11.1 30.75 11.2 32.3 12.85 33.8 14.1 34.4 12.5 34.85 13.75 35.1 13.2 35.55 11.85 35.9 11.6 36 13.15 39.05 16 42.15 18.8 45.75 20.75 49.85 22.9 52.25 22.55 Z"/>
</g>
</defs>

<g transform="matrix( 1, 0, 0, 1, 0,0) ">
<use xlink:href="#Layer0_0_FILL"/>
</g>
</svg>
