
<svg xmlns="http://www.w3.org/2000/svg" version="1.1" xmlns:xlink="http://www.w3.org/1999/xlink" preserveAspectRatio="none" x="0px" y="0px" width="550px" height="400px" viewBox="0 0 550 400">
<defs>
<g id="Layer0_0_FILL">
<path fill="#FFFFFF" fill-opacity="0.25098039215686274" stroke="none" d="
M 17.65 93
L 17.05 92.2
Q 13.15 84.1 -7.6 73.95 -15.9 69.9 -22.9 67.6
L -22.85 67.65
Q -29.75 65.4 -31.45 66.1
L -32.2 66.65 -31.95 67.4
Q -30.95 68.45 -27.55 70.1
L -7.6 78.2 -7.65 78.2 4.1 87.7
Q 13.55 95.6 16.15 94.5
L 16.85 93.85
Q 17.1 93.25 17.65 93
M 38.3 62.4
Q 39.05 61.4 38.65 60.4 36.35 55.65 28.95 50.8 21.1 45.65 11.05 42.75 -11.55 36.15 -29.6 44 -5.05 38.45 16.65 50.5 21.85 53.35 30.7 59.9 35.95 63.8 37.25 63.4
L 38.3 62.4
M 42.15 47.3
L 41.85 47.25
Q 19.1 33.9 6.05 30 -3 27.2 -7.05 29.05 -8.5 29.7 -9.05 31.9 -9.65 33.8 -9.2 34.85
L -5.9 35 -5.85 35
Q -1.15 35.6 4.45 37.15 22.4 42.1 42.05 54.75
L 49.05 59.35
Q 54 61.8 57.7 60.05
L 59 58.6 58.4 57.8
Q 57.95 57 44.85 49
L 44.6 48.75 44.6 48.5 45.45 46.7 45.5 46.7
Q 45.3 45.65 42.7 40.25 36.7 27.6 25.65 15.35 16.6 5.35 13.65 4.6
L 13.85 5.45 13.85 5.4
Q 14.15 6.7 14.4 7.25 15.05 8.65 21.6 16.3
L 29.5 25.6 33.35 32.25
Q 37.4 39.4 42.5 46.55
L 42.6 46.8 42.45 47.15 42.15 47.3
M 87.8 97.25
Q 89 95 88.1 93.05 87.2 91.1 84.65 90.6 82.05 90.15 79.4 91.35 76.75 92.65 75.5 94.95 74.35 97.25 75.25 99.2 76.15 101.15 78.65 101.6 81.3 102.1 83.95 100.85 86.6 99.6 87.8 97.25
M 106.05 -6.7
Q 106.75 -9.3 106.5 -10.65 103.25 -4.15 98.2 4.5 92.6 13.8 90.3 17.95 82.7 31.4 84.7 35.95
L 85.8 37.3 87.5 37.35
Q 90.75 35.8 95.55 22.75
L 103.15 1.15
Q 105.35 -4.15 106.05 -6.7
M 59.8 -23.05
Q 55.25 -20.8 56.85 -1.65 58.35 18.1 64.85 31.7
L 66.35 33.85
Q 67.6 35.45 68.95 36.2 64.9 17.2 63.5 -4.05 62.65 -14.7 62.25 -22.3
L 61.75 -23.15 61.65 -23.2 59.8 -23.05
M 25.2 -5.85
Q 23 -7.2 22.45 -6.75 21.75 -6 23.4 -2.6
L 38.9 19.25
Q 54.8 41.85 60.6 53.05
L 60.75 53.1 62.65 52.45 64.1 51.4 64.15 50.5
Q 64.1 50.25 64.2 50.15
L 63.9 49.55 56 36.05
Q 48.2 23.05 45.1 18.85
L 34.6 3.4 34.55 3.35
Q 31.1 -2.35 25.2 -5.85 Z"/>
</g>
</defs>

<g transform="matrix( 1, 0, 0, 1, 0,0) ">
<use xlink:href="#Layer0_0_FILL"/>
</g>
</svg>
