
<svg xmlns="http://www.w3.org/2000/svg" version="1.1" xmlns:xlink="http://www.w3.org/1999/xlink" preserveAspectRatio="none" x="0px" y="0px" width="550px" height="400px" viewBox="0 0 550 400">
<defs>
<g id="Layer0_0_FILL">
<path fill="#000000" stroke="none" d="
M 22.4 -11.5
L 18.2 -10.75
Q 16.45 -9.9 17.55 -7.65 18.35 -5.95 37.2 14.7 34.05 11.7 19.65 5.3 5.2 -1.15 3.3 -1.35 3 -0.45 3.05 0.7 3.15 1.75 3.55 2.65
L 4.75 4.25 6.55 6.1
Q 0.25 8.5 -0.35 9 -1.9 10.05 -0.75 12.5 0.45 14.95 4.95 14.95
L 13.85 15.65
Q 17.5 16.65 22.9 23.7 27.25 29.4 29.65 34.4 30.35 35.8 30.65 37.9
L 0.4 23.95
Q -15.2 17.2 -17.85 18.45
L -18.55 19 -18.75 19.2 -18.45 20.35 -15.7 23.9
Q -12.5 27.35 -9.85 27.55 -12.5 28.85 -12.95 30.3 -13.3 31.25 -12.55 32.8 -11.7 34.65 -8.55 35.65
L -4.3 36.65 -5.5 36.7
Q -7.6 36.95 -14.7 38.65 -18.85 39.65 -20.85 38.55 -26.9 34.25 -30.25 32.6 -36.75 29.4 -32.85 37.65
L -31.3 40.7 -39.95 41.05
Q -42.5 41.65 -43.9 42.3 -46.8 43.65 -45.55 46.25 -44.2 49.05 -42.8 49.45 -41.3 49.95 -37.6 48.65
L -39.05 49.8
Q -42.25 50.95 -43.05 54.4 -43.6 56.95 -42.9 58.35
L -42.1 59.6
Q -40.75 60.4 -38.1 59.15 -36.9 58.6 -34.5 55.75 -32.05 52.8 -28.6 51.2 -25.6 49.8 -19.75 51.3 -12.85 53.1 -10.4 58.2 -10.05 59.05 -9.8 61.1
L -18.2 61.6
Q -22.45 61.65 -23.45 60.75 -25.8 58.75 -28.6 57.45 -32.2 55.9 -34.55 57 -36.35 57.85 -34.75 61.2
L -34.2 61.6
Q -33.55 62 -32 64.1 -46.05 70.8 -49.3 73.95 -50.45 75.05 -50.35 75.85 -50.3 76.3 -49.85 76.8 -48.45 79.85 -44.95 78.1
L -36.9 73.35
Q -24 66.6 -12.65 79.95 -14.9 78.2 -17.6 78.15 -21.8 78 -29.2 81.5 -30.4 82.05 -31.05 82.9 -31.8 83.85 -31.35 84.75 -29.8 88.1 -20.45 88.65
L -5.9 89.3
Q -3.6 89.65 4.2 97.35 11.85 104.95 13.45 108.35 27.35 136.35 45.7 145.05 70.95 157.1 110.7 138.25 121.75 133 124.5 127.9 128.05 121.45 122.75 110.3 122.15 109.05 116 99.5 109.8 90.05 108.3 86.9 103.35 76.5 100.7 65.3 98.6 54.2 97.45 50.1
L 94.35 37.3
Q 93.55 33.9 94 32.1
L 96.35 25.3
Q 102.3 5.8 122.65 -12.4
L 134.95 -23.05
Q 139.8 -27.55 138.8 -29.65 137.2 -33.1 131.95 -30.6 129.75 -29.55 125.8 -26.35 121.2 -22.6 115.7 -17.1 120.25 -23.05 121.15 -27.15 121.65 -29.3 121.1 -30.45 120.8 -31.1 119.3 -31.5 111.1 -28.45 98.9 -10.15 88.75 5.05 80.9 22.6 88 -7.5 97.25 -20.6
L 101.7 -26.3
Q 102.8 -28.1 101.65 -30.55 100.95 -31.95 99.95 -32.4
L 97.95 -32.35
Q 90.9 -29 84.65 -16.55 77.3 -1.75 72.45 23.85
L 66.8 -8.1
Q 63.25 -27.4 62.7 -28.45 60.95 -32.15 58.05 -30.8 57.25 -30.4 55.65 -26 53.95 -21.25 52.8 -15.9 49.6 -1 54.2 3.2
L 40.75 -7.55
Q 37.05 -10.45 32.05 -11.3 27.4 -12.15 22.4 -11.5
M 58.35 -27.95
L 60.1 -28.5 61.1 -26.4 71.65 33.25 72.25 34.25 73.25 33.95
Q 73.85 32.9 75.1 23.65 76.7 11.75 78.25 4.45 84.4 -23.15 98.55 -29.9
L 99.25 -30.15 99.35 -29.95
Q 89.75 -15.6 83.9 0.25 80.6 9.55 79.5 15.9
L 76.4 33
Q 75.25 39.75 75.75 40.75 76.15 41.6 76.65 41.7
L 76.55 41.8 77.15 41.6 79.1 35.45
Q 81.65 27.55 85.1 19.9 96.9 -6.15 118.85 -28.6 103.55 -7.85 104.75 -5.25
L 105.45 -4.15 105.65 -4.15
Q 106 -4.15 106.45 -4.45
L 115 -14.1
Q 124.7 -24.4 132.8 -28.25 134.35 -29 135.1 -28.85
L 136.65 -28.65
Q 134.1 -27.75 126.9 -21.4 118.8 -14.25 111.3 -5.65 90.6 18.05 91.2 33.35
L 90.15 36.6
Q 89.15 39.25 89.7 42.35
L 94.5 59.95
Q 101.25 79.45 103.95 88.75 104.75 90.5 110.8 99.8
L 117.35 110.25
Q 121.15 118.4 118.45 124.45 116.15 129.8 108.6 133.4 93.15 140.75 80 143.65 66.8 146.5 53.1 140.5 39.4 134.5 33.25 126.75 27.4 117.35 19.65 108.5
L 14.35 102.3
Q 9.85 97.2 5 93.55 -9.7 82.65 -28.05 84
L -26.1 83
Q -16.35 78.35 -2.25 86.35 5.2 90.55 14.55 98.1
L 15.65 96.8
Q 15.8 96.8 15.35 95.95 15.15 95.4 -3.55 81.7 -3.7 81.45 -6.45 80.1 -10.6 78 -17.15 72.7 -23.4 67.55 -23.7 67.7
L -23.8 68.3
Q -23.75 68.85 -24.2 69.1
L -32.25 71.05
Q -33.9 71.5 -40.75 74.5 -45.55 76.5 -47.7 75.75
L -47.55 74.55 -45.35 73.35 -39.35 70.75
Q -34.65 68.9 -32.2 68.4
L -27.4 66.1
Q -27.4 65.65 -27.75 64.8
L -32.7 60 -31.45 58.6 -23.05 64.65
Q -22.75 64.7 -21.35 64.15 -20.05 63.6 -18.55 63.75
L -13.55 64.35
Q -9.85 64.6 -7.75 63.6 -7.05 63.25 -6.95 62.05 -6.8 60.25 -8.35 57.15 -9.85 53.9 -15.9 50.4 -23.65 45.95 -29.6 48.8 -33.15 50.45 -36.75 54.05
L -39.65 57.35 -40.25 57.55 -40.15 57.35 -40.4 57.05
Q -40.4 55.55 -36.9 52 -33.5 48.6 -33.65 46.9 -34.35 46.35 -38.3 46.05 -42.3 45.8 -43.6 44.75
L -30.6 43.75
Q -27.6 43.65 -26.4 43.05 -25.5 42.65 -25.5 42.3
L -25.9 41.2
Q -26.15 40.65 -28.85 39.45
L -31.95 37.7
Q -32.5 36.45 -32 35.35
L -31.25 34.2
Q -30.7 34.25 -27.4 37.3 -23.9 40.4 -21.7 41.2
L -10.65 40.4
Q -0.55 38.9 5.9 40.45 13.1 42.1 29.1 51.95 41.8 59.85 46.35 63.55
L 51.9 68.9
Q 53.25 70.25 54.8 69.55
L 55.35 69
Q 55.8 68.35 55.45 67.7 54.75 66.15 38.95 52.95 21.45 38.4 15 36.6 7.05 34.35 -0.5 33.5 -6.65 32.75 -10.75 31.1 -8.5 30.25 -5.75 29.8 -3.2 29.4 -2.3 29 -1.8 28.75 -1.8 28.45
L -1.65 27.1
Q -6 26.5 -10.2 24.8 -13.5 23.5 -13.75 22.95
L -14.35 21.35
Q 12.5 33.4 19 36.4 30.8 41.8 33.85 43.75 35.6 41.35 35.4 40.95 35.25 40.55 34.55 40.25 33.9 39.95 33.7 39.5
L 31.6 32.8
Q 25.95 21.05 16.4 15.4 8.55 10.65 1.4 11.45
L 1.45 10.7 3.05 9.9
Q 5.95 8.5 7.1 8.5
L 8.8 8.45 9.9 7.7 9.3 5.9 5.5 1.25 7.1 2.3
Q 24.75 11.8 35.75 18.15
L 42.75 22.25
Q 43.6 21.8 43.65 21.2
L 44.45 22.3 43.7 20.8
Q 41.65 16.35 38.65 12.75
L 20.5 -8.1
Q 35.1 -3.5 51 23.7
L 61.3 42.2
Q 66.15 50.35 68.65 51.25
L 68.65 51.1 65.3 41.9
Q 58 26.55 44.3 9.4 33.35 -4.3 28 -8.2 39.6 -6.9 46.85 -0.2 51.15 3.75 58.4 13.75 58.3 11.1 56.8 -0.3
L 55 -12.4
Q 56.85 -7.7 57.25 -7.3
L 58.45 -7.3 60.85 -9.2 60.6 -9.75
Q 57.6 -14 56.1 -17.85 53.15 -25.35 58.35 -27.95
M 5.8 37.3
L 13.35 38.5
Q 21.85 40.65 27.85 47.15 16.1 39.45 5.8 37.3
M -23.65 44.95
Q -23.9 45.5 -23.6 46
L -22.8 46.7 -21.75 46.6
Q -21.25 46.4 -21 45.85 -20.8 45.3 -21.05 44.75 -21.3 44.25 -21.85 44.1
L -22.95 44.15 -23.65 44.95
M 13.25 88.35
L 12.5 86.55
Q 10.2 81.7 6.05 78.25 -0.3 72.85 -1.75 71.15 -4.75 67.8 -9.8 66.6 -14.85 65.45 -18.8 67 -17.45 69.75 -10.7 72.7 -2.55 76.35 -0.55 78 4.45 82.2 9.35 86.75 12.05 89.3 12.45 89.2
L 13.25 88.35
M -6.85 68.7
L -3.8 73.3 -11.75 70.25 -6.85 68.7
M 11.8 73.6
Q 6.8 69.8 0.7 68.7 5.15 75 10.5 79.4 16.1 84 19.2 83.45
L 18.45 81.4
Q 16.4 77.1 11.8 73.6
M 19.55 68.85
L 11.25 61.35
Q 1 53.1 -6.1 56.3 -3.95 59.95 -2.5 61.15 -1.45 62.1 -1.2 62.75
L -2.4 65.1
Q 3.35 67.5 13.95 72.85 22.7 76.85 27.2 75.8
L 27.15 75.5
Q 24.65 73.65 19.55 68.85
M 14.15 67.9
Q 11.35 67.1 6.05 64.05 1.2 61.25 -0.2 60 6.1 59.95 8.25 61.7 9.85 62.9 14.15 67.9
M 38.7 68.8
Q 37.2 65.7 30.15 60.95 23.4 56.35 14.5 52.15 -7.15 41.95 -15.2 44.9
L -14.7 45.8
Q -13.15 47.4 -0.5 51.75
L 12.05 55.85
Q 19.55 58.2 28 66.55 31.45 69.95 33.1 70.85 35.7 72.3 38.2 71.05 39.5 70.5 38.7 68.8
M 58.2 49.4
Q 57.1 45.6 55.95 43.25 51.7 34.3 43.25 26.6 33.5 17.6 21.1 13.55 20.7 14.5 21.1 15.35 36.15 33.55 39.35 37.9
L 41.55 41.2
Q 43.95 44.65 46.25 47.25 53.65 55.5 59.3 53.7
L 58.2 49.4
M 44.15 30.05
Q 47.9 34.5 50.3 38.45 50.7 39.2 50.4 40.35 50.05 41.55 50.15 42.05 43.9 42.95 36.75 32.25 30.35 20.55 29.15 19
L 30.3 19.15
Q 36.75 21.35 44.15 30.05
M 93.1 81.65
Q 94.6 79.85 93.75 77.7 92.95 75.5 86.5 71.1 79.4 66.35 74.7 68.55 71.1 70.35 69.05 74.85 67.25 78.7 67.2 83.4 67.15 87.9 68.6 90.45 70.1 93.25 72.7 92.05 70.7 77.45 76.6 74.75 82.6 71.95 87.1 77.7 91.6 83.4 93.1 81.65 Z"/>
</g>
</defs>

<g transform="matrix( 1, 0, 0, 1, 0,0) ">
<use xlink:href="#Layer0_0_FILL"/>
</g>
</svg>
