
<svg xmlns="http://www.w3.org/2000/svg" version="1.1" xmlns:xlink="http://www.w3.org/1999/xlink" preserveAspectRatio="none" x="0px" y="0px" width="550px" height="400px" viewBox="0 0 550 400">
<defs>
<g id="Layer0_0_FILL">
<path fill="#000000" stroke="none" d="
M 103.05 67.5
Q 99.65 60.25 88.45 55.45 79 51.4 71.4 51.4 64.4 51.4 56.4 53.05 44.15 55.55 35.65 61.1 40 56.25 48.95 50.25 63.25 40.6 81.65 33.9 71.15 34.2 59.95 39.25 49.55 43.95 40.5 51.8 31.75 59.35 26.55 67.85 21.2 76.6 21.2 83.9
L 21 85.05
Q 20.9 85.4 21.5 85.4
L 22.05 85.35 21.95 85.05 22.7 84.4 22.45 88.05
Q 22.45 96 26.7 106.65 31.5 118.7 39.9 128.75 61.75 155 95.75 155 112.7 155 118.9 144.5 122.85 137.85 122.85 124.35
L 119.95 101.65
Q 119.95 96.2 112.65 82.85 106.6 71.75 103.05 67.5
M 96.2 65.6
Q 109.15 77.3 111.8 88.95 116.5 99.2 117.15 105 118.35 115.6 118.9 117.9 106.45 118.5 94.95 124.65 84.85 130.05 83.45 134.65
L 83.4 135.5
Q 83.45 135.85 84.05 135.85
L 90.85 133.05
Q 98.95 129.8 105.05 127.65
L 108.15 135.3 109.45 133.8 108 126.6
Q 111.5 125.35 115.2 123.5
L 119.05 121.4 119.2 125.3
Q 119.2 138.95 112.55 145.45 106.65 151.25 95.75 151.25 61.9 151.25 41.4 125.7 33.8 116.25 29.45 104.8 25.75 95.15 25.75 88.3 25.75 75.45 35.05 66.7 43.3 58.9 55.35 57.15
L 53.9 58.05 52.4 59.35
Q 56.3 58.15 62.15 56.65 71.6 54.2 74.45 54.2 83.6 54.2 96.2 65.6 Z"/>
</g>
</defs>

<g transform="matrix( 1, 0, 0, 1, 0,0) ">
<use xlink:href="#Layer0_0_FILL"/>
</g>
</svg>
