
<svg xmlns="http://www.w3.org/2000/svg" version="1.1" xmlns:xlink="http://www.w3.org/1999/xlink" preserveAspectRatio="none" x="0px" y="0px" width="550px" height="400px" viewBox="0 0 550 400">
<defs>
<g id="Layer0_0_FILL">
<path fill="#000000" fill-opacity="0.25098039215686274" stroke="none" d="
M 113.5 91.2
Q 106.95 65.6 91.35 57.1 84.35 53.3 73.4 53.3 53.25 53.3 41.8 58.6 24.7 66.45 24.7 86.2 24.7 101.3 34.1 116.35 37.2 121.35 42.1 127.5
L 49.15 136.2
Q 55.45 144.45 61.45 146.95 65.45 148.6 77.5 152.05 83.5 154.25 88 153.9
L 98.95 154.55
Q 105.35 155.55 113.8 147.9 122.5 140.05 122.55 127.8 122.6 115.55 120.25 106.95 117.9 98.3 113.5 91.2
M 87.85 70.55
Q 98.4 72.65 103.25 82.8 110 95.75 112.25 107.95 113.2 113.2 113.2 119.25 113.2 133.7 106.25 140.5 100.35 146.25 89.7 146.25 75.35 146.25 60.7 130.95 54.45 124.45 50.65 117.35 46.75 110.05 46.75 104.6 46.75 89.95 54.75 79.8 62.55 69.9 74.5 68.7
L 75.15 68.8 69.05 70.25 78.4 69.85 87.85 70.55 Z"/>
</g>
</defs>

<g transform="matrix( 1, 0, 0, 1, 0,0) ">
<use xlink:href="#Layer0_0_FILL"/>
</g>
</svg>
