
<svg xmlns="http://www.w3.org/2000/svg" version="1.1" xmlns:xlink="http://www.w3.org/1999/xlink" preserveAspectRatio="none" x="0px" y="0px" width="550px" height="400px" viewBox="0 0 550 400">
<defs>
<g id="Layer0_0_FILL">
<path fill="#FFFFFF" stroke="none" d="
M 103.45 107.9
Q 103.45 106.55 102.3 105.65 101.1 104.7 99.45 104.7 97.8 104.7 96.65 105.65 95.45 106.55 95.45 107.9 95.45 109.25 96.65 110.2 97.8 111.1 99.45 111.1 101.1 111.1 102.3 110.2 103.45 109.25 103.45 107.9
M 61.15 97.05
Q 62.65 98.1 64.75 98.1 66.85 98.1 68.35 97.05 69.85 95.95 69.85 94.45 69.85 92.95 68.35 91.9 66.85 90.8 64.75 90.8 62.65 90.8 61.15 91.9 59.65 92.95 59.65 94.45 59.65 95.95 61.15 97.05
M 101 86.15
Q 101 85.15 100 84.45 99 83.7 97.55 83.7 96.1 83.7 95.1 84.45 94.1 85.15 94.1 86.15 94.1 87.15 95.1 87.9 96.1 88.6 97.55 88.6 99 88.6 100 87.9 101 87.15 101 86.15 Z"/>

<path fill="#FFFFFF" fill-opacity="0.25098039215686274" stroke="none" d="
M 117.25 109.65
L 116.65 108.4
Q 113.9 108.1 112.2 109.5 111 110.5 111 111.4 111 112.05 111.15 112.3
L 111.6 112.75
Q 110.2 113.2 109.05 114.35 107.95 115.4 107.95 116.15 107.95 118.2 109.5 118.2 111.35 118.2 112.7 117.45 114.25 116.6 114.25 115.25
L 114 114.2 113.5 113.3
Q 115.75 113.45 116.8 112.3 117.45 111.6 117.45 110.8
L 117.25 109.65
M 116.4 103.25
Q 115.5 103.25 114.85 103.9 114.2 104.55 114.2 105.5 114.2 106.45 114.85 107.1 115.5 107.75 116.4 107.75 117.3 107.75 117.95 107.1 118.6 106.45 118.6 105.5 118.6 104.55 117.95 103.9 117.3 103.25 116.4 103.25
M 56.2 111.3
Q 51.5 114.1 54.05 118.65 56.2 122.5 62.3 125.95 68.15 129.25 72.35 129.25 82.5 129.25 88.3 125.9 93.2 123.1 93.2 119.35 93.2 114.2 89.7 111.3 85.7 108 77.4 108 61.9 108 56.2 111.3
M 53.9 51.1
Q 52.15 51.1 51.15 51.95 50.15 52.85 50.15 54.4 50.15 55.15 52.8 56.25 57.05 58 58.65 58.9 67.1 63.75 67.1 73.45 67.1 74.35 65.9 79.15 65.9 82.45 66.75 83.7 67.2 84.35 67.7 84.35 69.2 84.35 70.25 83.2 71.4 82 71.4 80.15 71.4 73.8 66.1 63.2 60.05 51.1 53.9 51.1
M 82.55 76.8
Q 83.35 74.7 83.35 73.75 83.35 68.4 78.15 61.05 72.2 52.65 65.45 52.65
L 64.75 52.85 64.8 53.05
Q 64.95 54.5 64.75 54.85 69 53.25 74.6 59.85 80.1 66.3 80.1 72.3 80.1 73.5 78.05 82.3 78.05 82.9 78.25 83.1
L 78.4 83.3 79.7 83.4 82.55 76.8
M 93.9 73.45
Q 93.9 62.45 88.9 55.4 84.55 49.15 77.3 47.2
L 77.05 48.75 81.9 52.75
Q 87.05 56.8 88 58.55 90.7 62.1 89.85 68.75
L 88.4 76.65
Q 88.4 82.25 90.15 82.25 91.65 82.25 92.65 80.5 93.9 78.2 93.9 73.45 Z"/>
</g>
</defs>

<g transform="matrix( 1, 0, 0, 1, 0,0) ">
<use xlink:href="#Layer0_0_FILL"/>
</g>
</svg>
