
<svg xmlns="http://www.w3.org/2000/svg" version="1.1" xmlns:xlink="http://www.w3.org/1999/xlink" preserveAspectRatio="none" x="0px" y="0px" width="550px" height="400px" viewBox="0 0 550 400">
<defs>
<g id="Layer0_0_FILL">
<path fill="#000000" stroke="none" d="
M 112.95 44.35
Q 111.45 30.25 114.35 29.2 114.4 28.15 113.85 26.75
L 113.8 26.6 113.15 26.75
Q 106.55 28.5 96.5 43.4 91.25 51.15 89 53.85 84.85 58.75 81.3 59.7
L 78 59.45
Q 73.85 59.45 68.3 60.95 62 62.6 58.7 64.4
L 56.4 65.95 0.1 61.9 -0.5 62.1 -0.5 62.25
Q 14.6 84.35 18.25 88.85 20.65 91.75 23.45 93.9 22.6 95.1 21 99.4
L 27.5 121.05
Q 30.55 132.5 35.8 140 44.45 152.4 56.6 149.2
L 55.6 149
Q 55.1 148.6 54.65 148.7 59.75 147.3 66.85 147.45
L 76.15 146.9
Q 88.5 143.55 98.85 137.2 104.7 133.6 114.65 126.4
L 113.7 124.55
Q 117.2 123.4 120.75 119.4 125.6 113.95 123.95 107.95 123.8 107.3 120.1 102.7 116.35 98.05 115.9 96.4 116.55 86.45 116.3 85.4 116.15 84.9 115.75 85.1 115.3 85.2 115.15 84.65 114.35 81.6 115.7 74.15 117.15 66.65 116.5 64.3 114.2 55.7 112.95 44.35
M 109.5 30.75
Q 109.35 33.55 110.15 43.8 111.1 55.7 112.3 60.25
L 112.95 63.25
Q 113.4 65.75 112.35 66.55 111.3 67.35 112.2 74.2 113.35 74.65 111.3 75.2 111.7 79.95 112.5 82.8
L 113.75 86.9
Q 114.25 88.85 113.6 92.3 112.9 95.65 113.3 97.1 114.4 101.15 117.85 104.7
L 121.3 108.35
Q 122.6 113.15 116.1 119.1 112.8 122.15 108.7 124.65 108.05 123.8 106.55 120.95
L 105 117.9
Q 104.9 117.45 109.8 111.45 114.7 105.45 114.3 104.05 113.85 102.4 109.45 102.9 105.65 103.3 97.8 105.4 96.25 105.8 94.55 106.65 92.8 107.4 92.4 108
L 92.4 108.6 98.15 113.7
Q 99.15 114.45 99.75 116.75 100.1 117.95 101.05 118.15 102.05 118.25 102.55 120.1 103.35 123.25 99.7 126.05 96.2 128.75 89.55 130.55 78 133.6 71.05 131.15 65.75 128 63.85 127.95
L 62.1 128.7
Q 67.4 133.65 73.95 134.6 80.4 135.55 90.2 132.95 95.4 131.55 99.85 128.75 103.45 126.35 104.75 124.45
L 105.85 125.45
Q 106.65 126.05 106.8 126.65 108 131.1 96.35 136.8 86.85 141.4 73.05 145.1 53.15 150.4 41.7 140.85 33.8 134.2 30.15 120.5
L 25.55 101.9
Q 25 99.85 25.5 96.1
L 26.05 92.5 25.85 91.9 25.8 92.05
Q 22.55 92.15 15.25 81.45 10.65 74.65 6.25 66.3
L 47 68.45
Q 53.1 68.75 59.15 67.15 68.25 64.7 74.25 63.95
L 82.5 62.55
Q 85.15 61.85 95.5 47.4 106.2 32.4 109.5 30.75
M 110.2 105.45
L 107.25 108.7
Q 104.55 111.45 101.6 113.25
L 97.25 108.1 110.2 105.45 Z"/>

<path fill="#FFDDDD" stroke="none" d="
M 107.25 108.7
L 110.2 105.45 97.25 108.1 101.6 113.25
Q 104.55 111.45 107.25 108.7
M 10.65 69.45
L 10.55 70.1
Q 11.05 71.95 21 81.7 30.8 91.4 33.1 92.55 35.65 90.3 40.4 84.55 46.95 76.6 46.25 74.05 45.9 72.8 32 70.3 17.3 67.6 11.75 69.05
L 10.65 69.45
M 106.95 39.2
L 106.4 39.1
Q 105.2 39.4 98.9 47.2 93.4 53.95 88.45 60.8
L 101.3 70.5
Q 106.45 74.45 107.35 74.3 109.85 69.05 106.75 39.5
L 106.95 39.2 Z"/>
</g>
</defs>

<g transform="matrix( 1, 0, 0, 1, 0,0) ">
<use xlink:href="#Layer0_0_FILL"/>
</g>
</svg>
