
<svg xmlns="http://www.w3.org/2000/svg" version="1.1" xmlns:xlink="http://www.w3.org/1999/xlink" preserveAspectRatio="none" x="0px" y="0px" width="550px" height="400px" viewBox="0 0 550 400">
<defs>
<g id="Layer0_0_FILL">
<path fill="#000000" fill-opacity="0.25098039215686274" stroke="none" d="
M 109.45 29.65
Q 107.5 32.7 106.9 34.35 105.9 37.15 105.9 41.45 105.9 44.3 106.4 50.85 106.3 57.55 103.15 65.35 97.7 62.4 92.5 60.85 88.3 59.65 85.4 59.65 80.2 59.65 72.75 61.15 62.75 63.15 56.7 65.5
L 52.6 67.4 5.85 64.65 6.05 65.55
Q 8.7 68.65 21.95 72.6 36.3 76.85 49.5 77.55 39.25 86.2 29.05 91.2
L 24.15 93.65
Q 22.55 94.7 22.55 96 22.55 96.5 23.7 97.7 24.95 99 25.25 103.35
L 26 114.35
Q 26.55 119.25 28.65 124.15 34.9 138.65 43.6 143.95 50.3 148.05 61.95 148.05 68.6 148.05 82.65 143.65 97.75 138.95 101.7 134.75
L 116.6 119.45
Q 123.25 112.25 123.25 108.45 123.25 104.55 121.95 102.6 119.6 106.3 116.7 101.35 113.8 96.4 113.05 62.8
L 112.3 38.5
Q 111.9 30.95 109.45 29.65
M 95.35 79.55
Q 98.65 81.85 100.95 88.1
L 103.55 95.5
Q 108.55 102.95 113.25 105.8
L 115.4 107.3
Q 116.05 108.05 116.05 109.95 116.05 110.9 111.4 115.15 106.1 120 99.6 124.55 81 137.55 68.1 137.55 53.4 137.55 44.1 129.3 35.25 121.45 35.25 110.1 35.25 91.3 53.25 79.25 59.45 75.15 66.7 72.55 72.4 70.5 74.95 70.5 80.15 70.5 87.3 74.3 92.5 77 95.35 79.55 Z"/>
</g>
</defs>

<g transform="matrix( 1, 0, 0, 1, 0,0) ">
<use xlink:href="#Layer0_0_FILL"/>
</g>
</svg>
