
<svg xmlns="http://www.w3.org/2000/svg" version="1.1" xmlns:xlink="http://www.w3.org/1999/xlink" preserveAspectRatio="none" x="0px" y="0px" width="550px" height="400px" viewBox="0 0 550 400">
<defs>
<linearGradient id="Gradient_1" gradientUnits="userSpaceOnUse" x1="-13.737500000000004" y1="73.25" x2="86.23750000000001" y2="73.25" spreadMethod="pad">
<stop  offset="0%" stop-color="#000000" stop-opacity="0"/>

<stop  offset="100%" stop-color="#950000" stop-opacity="0.4980392156862745"/>
</linearGradient>

<g id="MovieClips_Symbol_621_15_Layer14_0_FILL">
<path fill="url(#Gradient_1)" stroke="none" d="
M 73.35 33.6
Q 75.5 26.55 75.7 24.4 76.3 17.05 73.45 11.2 68.4 1.05 54.1 0.7
L 43.75 -0.2
Q 13.7 -1.9 -1.55 28.2 -10.6 46.05 -12.85 70.95 -13.25 76.9 -13.5 90.95
L -13.75 108.75
Q -13.85 114.6 -13.25 118.3 -12.5 123.7 -10.15 127.9 -6.85 133.6 -2.05 137.65 1.55 140.55 8.25 142.75 16.65 145.55 27.85 146.55 58.6 149.25 75.05 127 80.5 119.65 83.65 110.4 85.85 104.15 86.15 100.3 86.7 94.2 84.15 86.95 82.95 83.35 78.45 73.85 74.4 65.15 72.75 59.65 70.3 51.25 71 43.3 71.25 40.6 73.35 33.6 Z"/>
</g>
</defs>

<g transform="matrix( 1, 0, 0, 1, -33.5,-72.6) ">
<g transform="matrix( 1, 0, 0, 1, 0,0) ">
<use xlink:href="#MovieClips_Symbol_621_15_Layer14_0_FILL"/>
</g>
</g>
</svg>
