
<svg xmlns="http://www.w3.org/2000/svg" version="1.1" xmlns:xlink="http://www.w3.org/1999/xlink" preserveAspectRatio="none" x="0px" y="0px" width="550px" height="400px" viewBox="0 0 550 400">
<defs>
<g id="Graphics_Symbol_263_0_Layer0_0_FILL">
<path fill="#FFCCCC" stroke="none" d="
M -3.9 -3.35
L -3.95 -8.75 -5.6 -1.75 -6.3 2.8
Q -7.1 11.55 -6.6 15 -5.9 19.45 -2.6 21.45 0.8 23.4 8.9 24 14.9 24.45 30.75 24.45 35.3 24.45 38.95 20.2 42.1 16.55 42.4 12.9 42.75 9.5 40.1 7.35 37.6 5.25 33.6 5.25 31.2 5.25 20.3 8.7 9.5 12.05 8.25 12.05 0.3 12.05 -2.5 3.6 -3.3 1.35 -3.75 -1.75
L -3.9 -3.35 Z"/>
</g>
</defs>

<g transform="matrix( 1, 0, 0, 1, -28.4,-10.7) ">
<g transform="matrix( 1, 0, 0, 1, 0,0) ">
<g transform="matrix( 1, 0, 0, 1, 0,0) ">
<use xlink:href="#Graphics_Symbol_263_0_Layer0_0_FILL"/>
</g>
</g>
</g>
</svg>
