
<svg xmlns="http://www.w3.org/2000/svg" version="1.1" xmlns:xlink="http://www.w3.org/1999/xlink" preserveAspectRatio="none" x="0px" y="0px" width="550px" height="400px" viewBox="0 0 550 400">
<defs>
<g id="Layer0_0_FILL">
<path fill="#000000" fill-opacity="0.24705882352941178" stroke="none" d="
M 101.4 29.75
Q 91.5 47.4 91 65.3 86.25 71.3 80.3 75.5 73.8 79.5 70.95 81.35 66 84.6 63.2 88.6 59.55 93.85 57.4 102.9 56.75 106.5 56.55 109.65 55.55 107.75 53.65 105.4 51.45 102.75 50.4 101.45 52.65 102.9 54.9 103.6 57.25 104.3 57.55 101.35 57.85 98.6 56.5 97.25 54.6 95.35 51 92.85 46.25 89.55 45.25 88.8 39.35 84.05 34.25 78.95 30.65 75.4 25.05 68.45 18.8 60.65 16.05 57.7 14.85 56.45 14.1 58.4 13.35 60.25 13.85 61.3 14.75 63.4 15.65 65.15 9.85 65.75 5.4 69.6 4.4 70.65 3.75 71.6
L 3.55 71.75
Q 0.6 74.15 0.1 79.5 -0.4 84.5 1.4 88.25 0.1 89.45 0.1 91.1 0.15 93.45 1.25 95.45 2.35 97.5 4.3 98.75 5.8 99.95 7.75 100.25 8.75 100.4 9.75 100.25 10.05 100.15 10.7 99.85 11.3 99.55 11.65 99.45 11.9 99.35 12.05 99.15 12.05 99.9 12.25 100.35 13.05 102.15 14 103.6 13.25 105.55 14.45 107.15 19.7 112.05 25.8 115.45 32.6 120.9 39.7 125.25 48.05 130.3 56.2 133.65 57.7 134.3 60.95 135.7 63.85 136.9 65.95 137.6 77 148.3 95.9 147.5 115.05 146.7 132.5 134.35 151.8 120.6 161.4 97.35 172.5 70.55 168.4 35.8 162.85 10.05 149.8 2.65 138.4 -3.8 124.25 4.8 111 12.8 101.4 29.75
M 142 21.3
Q 149.85 22.6 154.2 30.55 158.25 38 158.6 49.85 158.9 61.45 155.55 74.55 148.05 104.05 128.85 121.25 106.3 141.45 77.1 133.25 67.35 130.5 64.05 120.4 61 110.9 65.2 100.95 66.6 96.75 71.5 93.85 72.1 93.5 81.65 89.05 88.4 85.95 92.15 82.3 97.45 77.2 99.55 69.2 102.9 64.75 105.45 58.25 106 56.85 109.35 46.75 114.1 32.5 121.65 26.75 133.4 19.85 142 21.3
M 12.8 72.35
Q 13.9 72.15 16.2 71.8 19.45 76.7 26.35 83.6 35.35 92.6 37.25 94.8 42.8 101.3 46.85 106.45 48.05 107.95 50.9 112.45 53.7 116.3 56.1 116.8 56.35 116.9 56.6 116.8 57.05 122.3 59.1 127.45
L 56.15 126.2
Q 53 123.85 47.45 120.8 39.4 116.35 38.65 115.9 37.5 115.2 30.85 110.9
L 26.3 107.2
Q 22.45 103.5 20.4 101.6 16.75 98.3 13.8 97.05 12.95 96.7 12.5 97.5 12.3 96.15 11.55 95.95 10.2 95.4 8.9 94.4
L 6.45 92.7
Q 5.65 92.05 4.65 90.75 3.35 89.15 2.95 88.7 3.3 87.2 4.1 81.45
L 4.7 78
Q 6.5 75 9.5 73.4 10.8 72.7 12.8 72.35 Z"/>
</g>
</defs>

<g transform="matrix( 1, 0, 0, 1, 0,0) ">
<use xlink:href="#Layer0_0_FILL"/>
</g>
</svg>
