
<svg xmlns="http://www.w3.org/2000/svg" version="1.1" xmlns:xlink="http://www.w3.org/1999/xlink" preserveAspectRatio="none" x="0px" y="0px" width="550px" height="400px" viewBox="0 0 550 400">
<defs>
<g id="Graphics_Symbol_278_0_Layer3_0_FILL">
<path fill="#000000" fill-opacity="0.25098039215686274" stroke="none" d="
M 39.05 -7.85
Q 37.65 -4.85 35.5 -3.25 33.35 -1.6 31.5 1.2
L 28.4 5.85
Q 23.95 11.25 12.3 13.05
L 11.55 10.7 10.75 8.1
Q 10.75 7.65 12.25 4.6 13.75 1.6 13.75 -0.1
L 13.75 -0.35 13.55 -2.1 11.2 -3.8 10.6 -4.2 8.5 -5.75
Q 4.25 -8.7 -0.6 -9.7 -5.15 -11.1 -8.25 -10.25 -13.65 -8.8 -15.65 -3.9 -17.2 -0.2 -16.35 3 -15.7 5.4 -13.75 5.8
L -11.85 5.8 -9.75 6.65
Q -3.75 8.7 -3.75 11.6 -3.75 13.2 -4.3 14.2
L -5.7 15.55 -5.7 15.6
Q -7 16.2 -10 16.3
L -13.4 16.6 -14.05 16.7 -14.55 17
Q -16.25 17.85 -16.25 20.25
L -16.25 22.45
Q -16.55 24.15 -16.35 24.85
L -16.35 24.9 -16.35 25.25
Q -16.1 26.65 -15.45 27.95
L -15.8 27.75 -15.45 29.05 -15.2 29.95 -12.85 31.05 -12 31.75
Q -0.85 39.8 38.25 39.8 61.65 39.8 69.55 28.75 73.5 23.3 73.5 13
L 73.25 11.35
Q 73 8.4 72.15 5.2 70.75 -0.6 68.1 -5.5 62.5 -18.35 55.25 -18.35 50.5 -18.35 47.2 -17.25
L 46.7 -17.1
Q 45.9 -16.9 45.15 -16.35 42.6 -15.05 41.3 -12.8
L 39.05 -7.85
M 5 -4.25
Q 11.25 -1.25 11.25 -0.3 11.25 0.95 9.75 3.6 8.25 6.25 8.25 8.5
L 8.8 12.2
Q 10.15 15.75 14 15.75
L 15.7 15.7 19.05 15.4
Q 21.95 14.6 24.5 13.3 27.4 11.9 30.3 9.8 37.75 4.35 37.75 0.35 37.75 -1.55 40.95 -6.6
L 45.5 -13.25
Q 46.05 -14.05 48.1 -14.55
L 52.95 -14.75
Q 59.95 -13.95 63.3 -7.75 68.85 2.6 69.85 6.8 70.55 9.65 70.55 19.35 70.55 20.9 69.1 23.4 67.25 26.6 64 29.25 57.55 34.5 47.6 36.1
L 40.6 36.75 38.15 36.8 15.65 36 14.6 35.85
Q 3.35 34.5 -4.85 32.1
L -7.85 30.75
Q -11.95 28.55 -13.15 25.4 -13.75 23.9 -13.75 20.5
L -13.65 19.4 -13.6 19 -9.9 19.15 -12 20.9 -11.75 21.25 -8.1 18.85
Q -5.25 18.15 -3.25 15.9 -0.75 13.1 -0.75 10.65 -0.75 5.6 -7 4.35
L -11.3 3.55
Q -13.25 3 -13.25 1.75 -12.85 -0.55 -11.75 -2.85 -9.5 -7.5 -6.05 -7.5 -1.85 -7.5 5 -4.25
M -13.75 -5.1
L -15.1 -1.95 -14.85 -2.85
Q -14.25 -4.7 -13.2 -6
L -13.75 -5.1 Z"/>

<path fill="#333333" stroke="none" d="
M -12.1 20.95
L -11.75 21.25 -12 20.9 -12.1 20.95 Z"/>
</g>

<g id="Graphics_Symbol_278_0_Layer2_0_FILL">
<path fill="#000000" fill-opacity="0.10196078431372549" stroke="none" d="
M 13.55 -2.1
Q 12.65 -3.9 6.85 -6.95 0.05 -10.5 -5.45 -10.5 -10.55 -10.5 -13.65 -7.05 -16.6 -3.75 -16.6 1.4 -16.6 5.6 -13.1 5.9
L -7.45 5.4
Q -5.45 5.4 -4.05 7.05 -2.75 8.6 -2.75 10.65 -2.75 12.05 -4.8 14.8 -7.1 17.85 -9.2 17.85
L -11.4 17.25 -13.15 16.65
Q -15.15 16.65 -15.95 20.15 -16.4 21.9 -16.4 23.75 -16.4 24.55 -15.65 25.2 -14.95 25.9 -14.95 26.35
L -15.7 28.05
Q -14.75 30.85 -2.95 34.05 11.75 38.05 31 38.05 52.85 38.05 62.75 32.9 73.45 27.35 73.45 14.4 73.45 -0.1 65.45 -9.75 58.85 -17.75 52.45 -17.75 46.95 -17.75 42.75 -12.7 40.65 -10.15 36 -1.55 31.85 6.25 28.4 9.6 23.15 14.65 15.95 14.65
L 14.3 13.4
Q 13.25 12.6 14.1 14.6 9.7 13.3 9.7 9.55 9.7 8.6 12.65 4.5 15.15 1.05 13.55 -2.1
M 3.55 -3.55
Q 6.45 -2.2 6.45 -1.1
L 5 1.15
Q 3.55 3.95 3.55 7.25 3.55 13.15 7.95 16.6 11.8 19.6 17.05 19.6 28.1 19.6 33.4 15.35 36.9 12.45 39.05 5.95 41.4 -1.5 43 -3.5 46.45 -7.75 54.4 -7.75 62.7 -7.75 66.65 1.65 69.1 7.45 69.1 12.65 69.1 18.7 66.15 23.1 62.55 28.45 55.9 28.45 54.35 28.45 47.1 25.35 39.8 22.2 33.25 22.2 26.05 22.2 17.65 27 9.3 31.75 6.05 31.75 4.45 31.75 -0.6 29.4 -5.45 27.1 -5.45 26.7 -5.45 25.5 -0.5 22.1 4.4 18.75 4.4 15.85 4.4 14.65 3.25 11.15 1.85 6.95 0.05 3.95 -0.95 2.35 -4 0.45 -7.95 -2 -10.75 -0.8
L -11.3 -1.15
Q -11.3 -2.7 -10.5 -3.55 -9.05 -5.05 -3.4 -5.05 0.3 -5.05 3.55 -3.55
M -13.1 28
L -13.8 27.2 -13.3 27.55
Q -12.9 27.9 -13.1 28 Z"/>
</g>

<g id="Graphics_Symbol_278_0_Layer1_0_FILL">
<path fill="#FFFFFF" fill-opacity="0.10196078431372549" stroke="none" d="
M 11 26.45
Q 11 25.45 9.45 24.75 7.9 24.05 5.7 24.05 3.5 24.05 1.95 24.75 0.4 25.45 0.4 26.45 0.4 27.45 1.95 28.15 3.5 28.85 5.7 28.85 7.9 28.85 9.45 28.15 11 27.45 11 26.45
M 65 14.15
Q 65 11.05 62.65 7.9 59.45 3.55 53.6 3.55 52.95 3.55 50.3 5.6 47.55 7.8 47.55 8.8 47.55 14 52.1 17.25 54.4 18.9 56.75 19.5 59.05 19.5 61.85 17.9 65 16.15 65 14.15
M 3.7 -0.1
Q 3.7 -0.85 2.5 -1.4 1.3 -1.95 -0.4 -1.95
L -3.3 -1.4
Q -4.5 -0.85 -4.5 -0.1 -4.5 0.65 -3.3 1.2
L -0.4 1.75
Q 1.3 1.75 2.5 1.2 3.7 0.65 3.7 -0.1 Z"/>
</g>

<g id="Graphics_Symbol_278_0_Layer0_0_FILL">
<path fill="#FFFFFF" fill-opacity="0.25098039215686274" stroke="none" d="
M 59.9 -0.15
Q 56.35 -4.9 50.75 -3.4 46.3 -1.05 45 0.85 50.45 5.2 63.95 11.05 65.15 10.7 64.5 10.25
L 63.55 6.6
Q 61.8 2.3 59.9 -0.15 Z"/>
</g>
</defs>

<g transform="matrix( 1, 0, 0, 1, -28.4,-10.7) ">
<g transform="matrix( 1, 0, 0, 1, 0,0) ">
<g transform="matrix( 1, 0, 0, 1, 0,0) ">
<use xlink:href="#Graphics_Symbol_278_0_Layer3_0_FILL"/>
</g>

<g transform="matrix( 1, 0, 0, 1, 0,0) ">
<use xlink:href="#Graphics_Symbol_278_0_Layer2_0_FILL"/>
</g>

<g transform="matrix( 1, 0, 0, 1, 0,0) ">
<use xlink:href="#Graphics_Symbol_278_0_Layer1_0_FILL"/>
</g>

<g transform="matrix( 1, 0, 0, 1, 0,0) ">
<use xlink:href="#Graphics_Symbol_278_0_Layer0_0_FILL"/>
</g>
</g>
</g>
</svg>
