
<svg xmlns="http://www.w3.org/2000/svg" version="1.1" xmlns:xlink="http://www.w3.org/1999/xlink" preserveAspectRatio="none" x="0px" y="0px" width="550px" height="400px" viewBox="0 0 550 400">
<defs>
<g id="Layer0_0_FILL">
<path fill="#EEEEEE" stroke="none" d="
M 203.7 19.8
Q 203.7 13.8 197.7 13.8
L 51.45 13.8
Q 45.45 13.8 45.45 19.8
L 45.45 91.45
Q 45.45 97.45 51.45 97.45
L 197.7 97.45
Q 203.7 97.45 203.7 91.45
L 203.7 19.8 Z"/>
</g>

<path id="Layer0_0_1_STROKES" stroke="#CCCCCC" stroke-width="1" stroke-linejoin="round" stroke-linecap="round" fill="none" d="
M 12.876659393310561 -0.020611572265622158
L 326.91381072998047 -0.020611572265622158
Q 339.7973861694336 -0.020611572265622158 339.7973861694336 33.44868774414063
L 339.7973861694336 433.1279037475586
Q 339.7973861694336 466.5972030639649 326.91381072998047 466.5972030639649
L 12.876659393310561 466.5972030639649
Q -0.006916046142563914 466.5972030639649 -0.006916046142563914 433.1279037475586
L -0.006916046142563914 33.44868774414063
Q -0.006916046142563914 -0.020611572265622158 12.876659393310561 -0.020611572265622158 Z"/>
</defs>

<g transform="matrix( 2.1472625732421875, 0, 0, 5.578216552734375, -97.6,-77) ">
<use xlink:href="#Layer0_0_FILL"/>

<use xlink:href="#Layer0_0_1_STROKES" transform="matrix( 0.4656982421875, 0, 0, 0.17926025390625, 45.45,13.8) "/>
</g>
</svg>
