
<svg xmlns="http://www.w3.org/2000/svg" version="1.1" xmlns:xlink="http://www.w3.org/1999/xlink" preserveAspectRatio="none" x="0px" y="0px" width="550px" height="400px" viewBox="0 0 550 400">
<defs>
<g id="Graphics_Symbol_609_0_Layer3_0_FILL">
<path fill="#BEFCCA" fill-opacity="0.25098039215686274" stroke="none" d="
M 8.9 36.4
L 8.75 36.45 8.9 36.35
Q 2.7 34.4 -0.75 33.7 -6.7 32.55 -14.15 32.55 -39.75 32.55 -60.3 41.75 -72.7 47.35 -97.2 62.35
L -95.95 62
Q -77.45 55.15 -57.25 49 -23.95 38.9 -11.8 39.45 -28 42.1 -53.65 49.25 -78.15 56.1 -94 62.15 -80 62.3 -77.5 62.5 -74.75 62.75 -74.75 64.65 -74.75 68 -76.45 69.65
L -80.15 72.35
Q -48.6 60.65 -32.75 54.95 -30.3 53.95 -0.65 39.15
L -1.5 39 -4.25 39.05 1.95 38.1 4.5 36.5 4.2 37.25 3.1 38.35 7.55 36.95
Q 6.6 37.4 5.9 38 -3.8 42.8 -36.65 56.75 -68.4 70.2 -71.7 71.25 -69.75 72.1 -68.85 74.6 -68.45 75.75 -70.75 82.65 -68.4 77.6 -69.1 79.7
L -70.1 81.65
Q -70.75 82.65 -64.65 80.05 -58.95 77.5 -45.1 70.5 -34.55 65.2 -30.2 62.7 -40.15 68.9 -47.7 72.95 -56.7 77.75 -67.05 82.05 -56.2 81.9 -55.3 82.05 -52.7 82.45 -52.7 85.2
L -53.1 87.1
Q -53.8 89.25 -55.2 90.75
L -36.35 77.65 -30.35 73.45 -47.15 85.9
Q -43.35 85.05 -39.1 83.6 -36.75 82.8 -33.85 82.8 -30.3 82.8 -28.9 83.75 -27.6 84.7 -26.85 87.4 -23.7 83.95 -10.8 66 2 48.25 2 47.45
L 2.6 45.85
Q 3.35 43.7 4.1 40
L -4 45.45 4.8 39.25
Q 4 40.3 3.75 41.7 2.45 48.4 -0.25 52.6 -7.25 63.6 -16.2 75.45
L -24.1 85.55 -23.15 85.1
Q -1.95 61.45 1.95 55.5 4.5 51.55 6 47.15
L 8.9 36.4 Z"/>
</g>

<g id="Graphics_Symbol_609_0_Layer2_0_FILL">
<path fill="#BEFCCA" fill-opacity="0.25098039215686274" stroke="none" d="
M -72.9 -28.9
Q -72.05 -28.2 -71.5 -26.6 -70.9 -24.65 -70.9 -21.8 -70.9 -19 -73.8 -15.4 -76.9 -11.5 -80.6 -10.55 -74.6 -8.8 -72.85 -5.3 -71.75 -3.1 -71.75 2.6 -71.75 4.8 -72.05 5.85 -72.45 7.05 -73.9 9.5 -71.45 10.9 -70.35 11.8
L -68.6 13.5
Q -66.2 15.6 -66.2 19.7 -66.2 23.55 -67.6 26.2 -68.2 27.3 -70.7 30.35 -63.75 31.35 -61.6 33.1 -59.15 35.05 -59.15 40.3
L -59.45 42.8 -60.05 45.25
Q -55.3 46.7 -53.7 47.5 -51.2 48.8 -51.2 52.6 -51.2 53.25 -51.35 53.6
L -51.65 54.3 -52.1 55
Q -33.7 52.3 -15.35 42.75
L -2.05 35.45
Q 5.1 31.6 9.75 30 -0.3 38.1 -23.15 46.9 -40.5 53.55 -50.3 55.7
L -26.55 56.25
Q -3 56.25 5.25 50.95 11.25 47.1 11.25 37.65 11.25 33.25 10.2 28.95 9.2 24.9 9.3 22.9
L -12 22.65 -31.8 25.55
Q -53.9 28.7 -68 29.8
L -68.7 29.75 -68.75 29.5
Q -63.5 27.85 -42.15 25.05 -12.75 21.15 7.65 22.35 -3.75 19.25 -32 14.55 -58.65 10.05 -71.35 8.85 -66.7 8.45 -44.95 11.95
L 2 20.05 -17.95 11.3 7.9 22
Q -3 13.3 -36 -7.1 -64.35 -24.6 -72.9 -28.9
M -61.25 -5.7
L -70.15 -8.35 -58 -5.65
Q -55.55 -4.85 -38 2.65
L -61.25 -5.7
M -58.5 44.2
Q -45.75 40.65 9 23.75 -41.65 45.4 -58.5 44.2
M -72.35 -53.25
Q -72.35 -52.1 -74.45 -51.3
L -78.3 -48.75 -50.9 -27.6
Q -64.675 -37.6625 -75.4 -44.75
L -71.2 -40.2
Q -68.75 -37.4 -68.75 -35.2 -68.75 -33.7 -70.7 -31.95 -72.8 -29.95 -74.9 -30.55 -44.9 -17.25 3.45 16.55
L -19.5 -3.15 0.4 12.45 -2.4 7.65
Q -6.75 0.7 -14.95 -10.7 -16.95 -13.05 -19.7 -15.7
L -21.2 -17.05
Q -32.3 -27.15 -43.55 -33.6 -50.65 -37.7 -59.8 -45.75
L -74.4 -59
Q -74.45 -57.85 -73.4 -56.35 -72.35 -54.75 -72.35 -53.25 Z"/>

<path fill="#FFFFFF" fill-opacity="0.25098039215686274" stroke="none" d="
M -70.15 -8.35
L -61.25 -5.7 -38 2.65
Q -55.55 -4.85 -58 -5.65
L -70.15 -8.35 Z"/>
</g>

<g id="Graphics_Symbol_609_0_Layer1_0_FILL">
<path fill="#FFFFFF" fill-opacity="0.25098039215686274" stroke="none" d="
M -18.45 71.4
L -18.5 71.5 -18 71.6 -18.45 71.4 Z"/>

<path fill="#BEFCCA" fill-opacity="0.25098039215686274" stroke="none" d="
M 13.8 25.85
Q 8.4 24.05 2.8 24.05
L -9.95 24.75 -43.5 28.55 -36.95 30.45
Q -35.05 31 -35.05 32.7 -35.05 34.05 -35.85 35.3 -36.6 36.55 -37.85 36.9 -23.1 35.6 -3.65 30.7
L 13.8 25.85
M 13.2 28.05
L 1.15 41.6
Q -2.95 46.35 -9.7 51.7 -20.15 60.05 -25.85 59.2
L -24.1 59.8 -21 60.05 -18.05 60.7
Q -14.85 60.9 -13.9 62.95 -13.1 64.55 -13.4 68.5 -5.1 62.4 0.05 55.65 8 45.1 13.2 28.05
M 17.3 33.95
Q 16.05 29.2 14.65 26.95 12.5 38.35 2.95 52.4 -6.55 66.4 -15.15 70.9
L -12.65 70.75
Q -9.55 70.75 -8 73.7 -6.6 76.45 -7.15 80.15
L 3.45 75.8 5.85 74.2
Q 7.05 73.15 7.4 71.75
L 7.3 71 7.15 69.8
Q 7.15 68.9 8.9 65.65
L 12.8 58.4
Q 18.45 47.3 18.45 39.75 18.45 38.15 17.3 33.95
M 12.5 28.1
L 12.95 27.2 -17.1 34.2
Q -29.85 37 -39.25 37.6
L -33 38.45
Q -26.1 39.85 -26.1 42.7 -26.1 43.3 -28.25 46.2 -30.7 49.55 -32.3 49.55 -33.3 49.55 -35 50.8 -27.7 50.75 -24.95 51.85 -21.3 53.3 -22.7 57.3 -18.15 58.3 -5.15 46.85 6.55 36.5 12.5 28.1
M 9.55 23.2
L 9.4 23.15
Q 4.45 21.7 -2.2 20.7 -11.8 19.25 -22.35 19.25 -33.3 19.25 -41.5 21.45 -45.7 22.55 -48.55 23.8
L -43.55 23.7
Q -41.4 23.7 -40.4 24.8 -39.3 26.05 -40.5 27.95
L -25.95 25.85
Q -9.45 23.7 9.5 23.2
L 9.55 23.2 Z"/>
</g>

<g id="Graphics_Symbol_609_0_Layer0_0_FILL">
<path fill="#000000" stroke="none" d="
M 17.2 36.25
L 17.2 36.55 17.4 36.55 17.4 36.25 17.2 36.25 Z"/>

<path fill="#FFFFFF" fill-opacity="0.25098039215686274" stroke="none" d="
M -5.45 46.8
L -5.1 46.3 -7.7 48.4 -7.65 48.8 -2.9 46.75
Q 1.1 44.85 2.45 43.9
L 1.35 44.3
Q 3.1 43.05 4.1 43.05
L 7.35 40.85
Q 2.6 43.3 -4.45 46.35
L -5.45 46.8
M 12.75 18.35
Q 12.35 18 11.75 18
L 2.15 11.75 7.85 15.85 13.9 20.05 14.75 20.2 12.75 18.35
M -3 -5.75
L -4.85 -7 -1.05 -3.2 -3 -5.75 Z"/>

<path fill="#BEFCCA" fill-opacity="0.25098039215686274" stroke="none" d="
M -12.8 11.05
Q -11.35 12.55 -10.1 15.3 -8.65 18.55 -8.65 21.2 -8.65 22.55 -9.45 22.95
L -11.75 23.3 -10.8 23.65 2.35 26.1
Q 13.8 28.45 14.95 29.15
L 13.45 29.1 4.95 27.9 -4.3 25.8 -4.05 26.1
Q -3.3 27.25 -2.7 30.35 -2 33.85 -2 37.7
L -2.15 38.95 -2.2 39.6 -2.95 38.5
Q -2.55 40.75 -3.65 43.6
L -3.8 45 -5.1 46.3 -5.45 46.8 -4.45 46.35
Q 2.6 43.3 7.35 40.85
L 8 40.45
Q 13.85 37.3 16.05 34.6 17.3 33 17.3 31.55 17.3 31.1 16.85 30.6
L 15.25 29.15 17.15 27.3
Q 16 25.95 10.85 22.85 2.25 17.75 -12.8 11.05
M -20.9 -29.95
Q -22.7 -27.2 -23.5 -26.95
L -27.8 -25.65 -25.7 -25.55 -27.2 -24.4 -16.5 -15.9 -19.55 -17.5
Q -18.5 -13.4 -18.5 -11.4 -18.5 -7.2 -19.1 -6.55 -19.35 -6.25 -22.25 -6
L -12.05 1.75
Q -10.7 4.2 -14.15 4.9
L -22 5.7 -0.75 15.45
Q 12.3 21.45 13.25 23.35
L 15.05 22.05 15 20.6 15 20.45 15.2 19.4 14.35 18.3 14.5 19.1 14.25 19.55 13.4 18.9
Q 13.9 17.6 11.3 13 9.5 9.85 7 6.45 -0.15 -4.85 -5.8 -11.5 -17.3 -25.05 -20.9 -29.95
M -4.85 -7
L -3 -5.75 -1.05 -3.2 -4.85 -7
M 11.75 18
Q 12.35 18 12.75 18.35
L 14.75 20.2 13.9 20.05 7.85 15.85 2.15 11.75 11.75 18
M -39.3 -67.55
Q -29.2 -57.55 -28.4 -51.7 -27.9 -47.95 -31.95 -43.85 -23.95 -38.05 -9.25 -17.8 -2.7 -8.75 14.45 16.9
L 2.65 -4.05
Q -9 -25.15 -10.1 -28.75 -12.15 -35.55 -19.3 -46.95 -29.3 -62.85 -39.3 -67.55 Z"/>
</g>
</defs>

<g transform="matrix( 1, 0, 0, 1, -33.5,-72.6) ">
<g transform="matrix( 1, 0, 0, 1, 0,0) ">
<g transform="matrix( 1, 0, 0, 1, 0,0) ">
<use xlink:href="#Graphics_Symbol_609_0_Layer3_0_FILL"/>
</g>

<g transform="matrix( 1, 0, 0, 1, 0,0) ">
<use xlink:href="#Graphics_Symbol_609_0_Layer2_0_FILL"/>
</g>

<g transform="matrix( 1, 0, 0, 1, 0,0) ">
<use xlink:href="#Graphics_Symbol_609_0_Layer1_0_FILL"/>
</g>

<g transform="matrix( 1, 0, 0, 1, 0,0) ">
<use xlink:href="#Graphics_Symbol_609_0_Layer0_0_FILL"/>
</g>
</g>
</g>
</svg>
