
<svg xmlns="http://www.w3.org/2000/svg" version="1.1" xmlns:xlink="http://www.w3.org/1999/xlink" preserveAspectRatio="none" x="0px" y="0px" width="550px" height="400px" viewBox="0 0 550 400">
<defs>
<g id="Graphics_Symbol_608_0_Layer0_0_FILL">
<path fill="#A49F67" stroke="none" d="
M 11.6 9.1
Q 11.6 7.75 12.8 5.9 0.65 6.95 -4.8 12.2 -10.1 17.4 -10.1 27.75 -10.1 36.7 -6.65 42.4 -2.35 49.5 6.45 49.5
L 10 49.05
Q 9.4 47.8 8.45 43.45
L 7.6 39.35
Q 7.6 35.2 11.95 33.55 13.95 32.8 21.15 31.95 27.3 31.2 29.6 29.6 33 27.15 31.55 21.55 25.75 24.05 18.5 18.95 11.6 14.15 11.6 9.1
M 83.25 23.95
Q 83.8 19.85 83.8 15.95 83.8 7.75 78.2 3.55 73.05 -0.35 63.7 -0.35
L 54.45 0.3 63 5.65
Q 68.35 9.6 68.35 13.55 68.35 15.45 65.4 16.95 61.95 18.7 56.4 18.65 61.6 23.9 63.9 25.65 66.7 27.8 68.9 27.8 70.45 27.8 73.2 26.8 75.9 25.8 77.25 25.8 78.6 25.8 79.45 26.75 80.45 27.9 80.45 30.3
L 80.4 33.95
Q 82.35 30.35 83.25 23.95 Z"/>
</g>

<g id="Graphics_Symbol_646_0_Layer2_0_FILL">
<path fill="#EEF3FA" stroke="none" d="
M 20.95 132.65
Q 21.3 132.95 21.3 132.3 20.6 132.3 20.95 132.65 Z"/>

<path fill="#000033" stroke="none" d="
M 50.65 -1.3
L 50.5 -0.6
Q 50.85 0.55 51.1 0.7
L 52.4 1.5
Q 32.85 3.3 24.65 5.55
L 20.65 6.85 17.7 7.35
Q 15.95 7.35 15.5 6.35
L 14.3 3.65
Q -12.25 4.75 -12.25 25.85 -12.25 40.45 -4.3 47.5
L 1.15 51.45
Q 3.65 53.25 3.65 54.8 3.65 55.3 3.2 55.8 2.75 56.25 2.75 56.75
L 4.2 59
Q 6.5 63.45 10.3 75.05 13.4 84.4 15.6 92.45 16.35 94.5 17.15 94.9
L 19.55 94.65 20.25 114.55 19 132.4
Q 19 136.15 29.4 139.95 37.9 143.1 40.4 143.1 47.4 143.1 53.5 138.1 59.7 133.05 59.7 127 59.7 106.35 58.65 101.55 57.6 100.35 57.6 97.95 57.6 93.1 58.3 91.85 58.5 91.55 60.3 90.65 64.2 88.8 67.45 73.15 68.05 70.15 68.95 67.05 66.55 73.4 62.5 80.95 52.9 98.95 47.6 100.6 46.35 99.1 42.2 97.15 37.2 94.75 32.3 94.2 34.45 95.05 40.85 99.45 46.45 103.3 47.85 103.3 48.5 103.3 51 100.1 54.85 95.25 57.15 92.85
L 57.5 123.15
Q 57.5 131.9 54.35 135.55 50.8 139.7 41.4 139.7 31.8 139.7 25.65 136.1 21.45 133.7 21.3 132.3 21.3 132.95 20.95 132.65 20.6 132.3 21.3 132.3
L 21.35 132.3
Q 21.55 132.3 21.95 127.05 22.45 120.8 22.45 114.35
L 21.2 94.65
Q 21.2 94.05 22.15 93.8
L 23.8 93.55 24.75 93.3
Q 20.45 93.95 17.85 90.45 15.05 86.6 13.7 77.05 13 71.9 12.35 69.9 11.1 65.9 7.5 60.5
L 8.85 60.7
Q 10.2 60.2 12 56.95 14.85 51.7 17.25 48.5 19.45 45.55 22.65 44.05 26.25 42.35 29.9 43.15 40.15 45.35 44.85 46.8
L 47.35 47.65 54.65 30.35
Q 55.25 33.45 57.25 38.5 59.45 44.1 60.55 44.1 62.65 44.1 64.95 41.6 67.3 39.1 68.75 39.1 69.8 39.1 70.8 40.7 72.65 43.65 72.65 50.5 72.65 54.75 71.25 60.05
L 72.7 56.25 75.95 48.85
Q 75.95 48.45 75.2 47.75 74.45 47.05 74.45 45.5 74.45 43.4 76.25 41.85 77.35 40.95 80.2 38.75 85.95 33.1 85.95 18.05 85.95 6.55 79.3 1.6 73.75 -2.55 62.5 -2.55
L 57.15 -2.05 50.65 -1.3
M 83.8 15.95
Q 83.8 19.85 83.25 23.95 82.35 30.35 80.4 33.95
L 80.45 30.3
Q 80.45 27.9 79.45 26.75 78.6 25.8 77.25 25.8 75.9 25.8 73.2 26.8 70.45 27.8 68.9 27.8 66.7 27.8 63.9 25.65 61.6 23.9 56.4 18.65 61.95 18.7 65.4 16.95 68.35 15.45 68.35 13.55 68.35 9.6 63 5.65
L 54.45 0.3 63.7 -0.35
Q 73.05 -0.35 78.2 3.55 83.8 7.75 83.8 15.95
M 66.15 12.8
Q 66.15 14.85 61.15 15.9
L 53.15 17.6
Q 53.6 25.3 69.9 30.15
L 73.1 29.2 77.1 28 77.85 28.1
Q 78.15 28.25 78.15 29.8 78.15 31.25 77.45 33.75 76.3 38 73.75 42.1 73.65 40 72.3 38.55 70.85 36.95 68.55 36.95 67.7 36.95 66.25 37.95
L 60.15 42
Q 58.25 38.25 56.8 32.55 55.55 27.8 55.55 26.25
L 55.55 26.05 54.85 26
Q 54.25 26 54 26.25
L 53.8 26.65 45.9 45.25
Q 42.3 43 36.25 41.75
L 30.75 40.95
Q 24.05 40.95 19.15 43.8 15.5 45.95 12.55 49.95
L 9.8 39.45
Q 9.8 35.95 13.6 35.2
L 21.95 34.65
Q 27.5 34.25 30.25 31.7 34.05 28.3 34.05 20.25 34.05 19.9 33.65 19.5 33.2 19 32.65 19
L 30.15 19.45 27.6 19.9
Q 24.35 19.9 21.5 18.5 17.1 16.4 15 11.4 19.55 7.6 27.4 5.4 35.35 3.2 44.65 3.2 50.85 3.2 57.6 5.45 66.15 8.35 66.15 12.8
M 14.4 9
L 14.75 6.9 16 8.3 14.4 9
M 12.8 5.9
Q 11.6 7.75 11.6 9.1 11.6 14.15 18.5 18.95 25.75 24.05 31.55 21.55 33 27.15 29.6 29.6 27.3 31.2 21.15 31.95 13.95 32.8 11.95 33.55 7.6 35.2 7.6 39.35
L 8.45 43.45
Q 9.4 47.8 10 49.05
L 6.45 49.5
Q -2.35 49.5 -6.65 42.4 -10.1 36.7 -10.1 27.75 -10.1 17.4 -4.8 12.2 0.65 6.95 12.8 5.9
M 8.1 57.7
L 4.5 50.55 11.7 50.55 8.1 57.7 Z"/>
</g>

<g id="Graphics_Symbol_646_0_Layer1_0_FILL">
<path fill="#010265" fill-opacity="0.25098039215686274" stroke="none" d="
M 58.55 -2.2
Q 53.65 -2.65 52.9 -1.4
L 53.6 -0.3
Q 54.45 0.7 56.25 1.4
L 57.8 2.05 46.8 2.05
Q 39.15 1.9 28 4.8 16.8 7.7 16.7 7.9 16.6 8.05 13.8 6.15 11 4.25 5.95 5 0.9 5.7 -5.65 12.55 -12.25 19.4 -11.8 28.85 -11.4 38.3 -7.65 42.7 -3.9 47.1 1.35 51.6 6.6 56.05 5.9 57.15
L 7.25 58.8 4.8 56.3 4.45 56.45
Q 4.3 56.65 4.3 57.3 4.3 59.15 10.9 72.15 15.25 82.45 17 94.7
L 19.4 94.85 19.75 95.8 19.8 98.8 20.25 104.9 20 114.75
Q 20 117.3 19.3 122.6
L 19.1 124.1
Q 19.9 131.55 21.4 134.05 24.1 138.5 27.9 139.6 31.65 140.65 38.25 140.65 49.05 140.65 54.2 135.7 58.5 131.55 58.5 124.35
L 58.2 115.3
Q 57.9 108.65 58.1 105.8 58.2 104.45 58.85 101.05 58.3 100.35 58 99.25
L 57.75 96.45
Q 57.75 91.25 61 89.7
L 61.3 89.6
Q 64.25 77.15 74.25 49.9 73.85 49.7 73.5 47.45
L 73.25 44.85
Q 73.25 42.65 74.95 40.8 75.95 39.7 78.7 37.35 84.1 31.95 84.1 21.85 84.1 -2.15 58.55 -2.2
M 77.85 8.15
L 76.15 7.5 66.75 4.9 68.75 4.55 72.65 5
Q 76.5 5.9 77.85 8.15
M 80.2 16.25
L 80.65 16.25 80.6 11.35
Q 81.95 16.9 82 19.15 82.05 21.25 80.85 27
L 80.4 26.6 79.75 25.7 80.2 16.25
M 45.7 19.5
Q 53.8 19.5 59.85 22.5 68.6 26.85 69.35 36.35
L 65.9 37.85 66.85 38.85
Q 67.5 39.75 67.5 41.8 67.5 45.4 61.85 64.15 56 83.5 55.75 85.75
L 53.85 85.8 53.5 85.75
Q 54.6 84.4 54.6 82.9 54.6 81.15 52.6 77.05
L 49.8 71.8 47.2 98.25
Q 44.75 96.95 42 95.3 36.6 92 31.85 87.25 25.75 81.15 21.5 67.9 18.15 57.6 18.15 52.85 18.15 51.15 23.7 48.7 30.85 45.5 43.05 43.9 37.25 42.05 33.55 41.4 29.8 40.75 24.4 42.95 19 45.15 16.45 48.1
L 13.45 40.1
Q 13.65 34.15 20.85 33.55
L 26.35 33.45
Q 29.25 33.45 30.05 32.85 33 30.7 34.1 27.95
L 35.2 23.65
Q 35.8 21.55 37.65 20.65 40.05 19.5 45.7 19.5
M 13.4 10.35
L 15.1 10.55
Q 4.05 18.6 -0.95 24.85 -4.45 29.25 -4.45 31.95
L -2.7 38.7 -0.45 46.5 -1.2 45.95
Q -4.2 44.05 -5.75 39.5
L -6.75 35.2
Q -6.75 26.5 -3.4 19.85 1.65 9.75 12.95 9.1
L 13.4 10.35
M 25.8 25.7
Q 27.15 26.8 27.15 28.1 27.15 29.25 24.55 29.7
L 20.15 29.9 25.8 25.7
M 30.5 94.95
Q 30.5 93.85 31.35 93.6 34.6 94.7 42.3 98.5
L 49.5 102
Q 54.7 102 55.35 98.75 54.5 120.55 51.6 128.6 48.75 136.45 41.95 136.45
L 38.3 135.85
Q 35.3 135.15 34.6 134.75
L 35.25 130.35 35.7 124.55
Q 35.7 120.55 33.1 107.8
L 30.5 94.95
M 61.6 67.65
L 64.5 59.45
Q 62.6 70.6 61.75 73.95 60.45 78.85 58.25 82.1
L 58.4 80.75
Q 58.8 76.15 61.6 67.65
M 54.65 30.35
L 54.3 29.45 52.35 62.15 52.95 61.45
Q 53.65 59.95 54.8 54.95 56.05 49.6 56.7 45.05
L 57.1 46
Q 58.95 45.35 59.8 44.45
L 64.3 38.9 59.8 42.15 58.85 42.65
Q 58.5 36.8 54.65 30.35 Z"/>
</g>

<g id="Graphics_Symbol_646_0_Layer0_0_FILL">
<path fill="#FFFFFF" fill-opacity="0.15294117647058825" stroke="none" d="
M 37.3 140.25
L 34.95 139.15 33.8 139.1 36.55 140.1 39.1 140.95 37.3 140.25
M 45.8 118.1
L 46.3 118.1 46.7 113.15
Q 47.15 108.15 47.45 108.15
L 36.95 106.75 37.2 111.9 37 116.05 35.45 130.65 43.95 131.85 44.85 128.15
Q 45.7 123.65 45.8 118.1
M 35.35 86.65
Q 35.55 87.9 36.6 88.7
L 48.55 94.2 49.2 79.8
Q 49.2 78.6 48.35 79.05 51.7 75.4 53.95 68.8
L 53.95 68.75 54.05 68.55 55.3 64
Q 56.95 57.15 56.95 53.2
L 56.9 50.65 50.75 50.3 44.5 49.15
Q 43 49.15 42.45 57.65
L 41.55 70.35
Q 40.95 73.8 38.05 78.5
L 35.3 83 35.35 86.65
M 41.5 48.9
Q 41.25 48.85 41.2 49.25
L 41.15 49.65 41.5 48.9
M 58.2 33.55
L 57.95 31.55 57.85 30.9
Q 57.7 33.1 57.1 35.1
L 57.9 35.1 58.2 33.55
M 57.55 30
L 57.35 30.4 57.7 30.4 57.55 30
M 45.25 3.95
Q 43.2 3.2 42.05 3.2
L 40.3 3.55 39.3 3.9 45.25 3.95
M 49.6 24.7
L 49.65 22.35 40.25 23.35 37.1 23.75 38.65 31.35 39.8 38.15
Q 42.15 37.45 45.05 35.05 47.25 33.25 50.3 33.25
L 51.75 33.6 52.65 34
Q 49.6 25.25 49.6 24.7 Z"/>

<path fill="#FFFFFF" fill-opacity="0.5019607843137255" stroke="none" d="
M 57.1 65.25
L 56.9 64.9
Q 55.75 66 54.75 67.4
L 54.05 68.55 53.95 68.75 53.95 68.8 54.7 70.9
Q 55.9 73 57.95 73.45
L 58 69.65 57.1 65.25
M 11.4 22.85
Q 11.4 21.65 10.3 20.8 9.05 19.8 6.85 19.8 2.4 19.8 0.25 21.9 -1.35 23.5 -1.35 25.8 -1.35 27.5 -0.65 28.6 0.25 30.05 2.1 30.05 4.2 30.05 7.65 27.7 11.4 25.15 11.4 22.85
M 71.9 7.85
Q 73.65 13.6 76.6 15.9 78.55 17.4 80.65 17.25 80.45 16.3 78 13.05 75 9.05 72.1 7.05
L 71.9 7.85 Z"/>
</g>

<g id="MovieClips_Symbol_585_22_Layer0_0_FILL">
<path fill="#EEF3FA" stroke="none" d="
M 63.7 -0.35
L 59.25 -0.05
Q 54.95 0.3 54.95 0.65 54.95 2.2 52 2.75
L 44.65 3.2
Q 40.2 3.2 30.85 5.35 21.3 7.6 17.5 9.6 17.15 7.65 15.65 6.65 14.55 5.9 13.3 5.9 1.2 5.9 -4.8 12.2 -10.1 17.8 -10.1 27.75 -10.1 36.95 -7.2 41.95 -5.2 45.4 -0.8 47.85 4.55 50.85 5.6 51.95 8.45 54.85 8.5 60.55
L 8.4 60.2
Q 7.95 60.5 7.55 60.5 8.45 60.55 12.95 75.25 17.45 89.9 19.15 91.85 21.35 94.4 22.15 104.35 22.5 109.3 22.45 113.9 22.45 125.75 21.9 130.1 21.6 132.3 21.3 132.3 21.3 134.45 27.3 136.95 33.9 139.7 41.4 139.7
L 48.8 139.05
Q 52.55 138 54.65 134.4 59.75 125.65 57.2 96.55 73.4 50.05 74.15 45.45 74.85 40.85 76.8 38.45
L 80.1 34.55
Q 83.8 29.25 83.8 15.95 83.8 7.75 78.2 3.55 73.05 -0.35 63.7 -0.35 Z"/>
</g>
</defs>

<g transform="matrix( 1, 0, 0, 1, -33.5,-72.6) ">
<g transform="matrix( 1, 0, 0, 1, 0,0) ">
<g transform="matrix( 1, 0, 0, 1, 0,0) ">
<use xlink:href="#Graphics_Symbol_608_0_Layer0_0_FILL"/>
</g>
</g>

<g transform="matrix( 1, 0, 0, 1, 0,0) ">
<g transform="matrix( 1, 0, 0, 1, 0,0) ">
<use xlink:href="#Graphics_Symbol_646_0_Layer2_0_FILL"/>
</g>

<g transform="matrix( 1, 0, 0, 1, 0,0) ">
<use xlink:href="#Graphics_Symbol_646_0_Layer1_0_FILL"/>
</g>

<g transform="matrix( 1, 0, 0, 1, 0,0) ">
<use xlink:href="#Graphics_Symbol_646_0_Layer0_0_FILL"/>
</g>
</g>
</g>

<g transform="matrix( 1, 0, 0, 1, -32.9,-71.25) ">
<g transform="matrix( 1, 0, 0, 1, 0,0) ">
<use xlink:href="#MovieClips_Symbol_585_22_Layer0_0_FILL"/>
</g>
</g>

<g transform="matrix( 1, 0, 0, 1, -33.5,-72.6) ">
<g transform="matrix( 1, 0, 0, 1, 0,0) ">
<g transform="matrix( 1, 0, 0, 1, 0,0) ">
<use xlink:href="#Graphics_Symbol_608_0_Layer0_0_FILL"/>
</g>
</g>
</g>
</svg>
