
<svg xmlns="http://www.w3.org/2000/svg" version="1.1" xmlns:xlink="http://www.w3.org/1999/xlink" preserveAspectRatio="none" x="0px" y="0px" width="550px" height="400px" viewBox="0 0 550 400">
<defs>
<g id="Graphics_Symbol_608_0_Layer0_0_FILL">
<path fill="#A49F67" stroke="none" d="
M 11.6 9.1
Q 11.6 7.75 12.8 5.9 0.65 6.95 -4.8 12.2 -10.1 17.4 -10.1 27.75 -10.1 36.7 -6.65 42.4 -2.35 49.5 6.45 49.5
L 10 49.05
Q 9.4 47.8 8.45 43.45
L 7.6 39.35
Q 7.6 35.2 11.95 33.55 13.95 32.8 21.15 31.95 27.3 31.2 29.6 29.6 33 27.15 31.55 21.55 25.75 24.05 18.5 18.95 11.6 14.15 11.6 9.1
M 83.25 23.95
Q 83.8 19.85 83.8 15.95 83.8 7.75 78.2 3.55 73.05 -0.35 63.7 -0.35
L 54.45 0.3 63 5.65
Q 68.35 9.6 68.35 13.55 68.35 15.45 65.4 16.95 61.95 18.7 56.4 18.65 61.6 23.9 63.9 25.65 66.7 27.8 68.9 27.8 70.45 27.8 73.2 26.8 75.9 25.8 77.25 25.8 78.6 25.8 79.45 26.75 80.45 27.9 80.45 30.3
L 80.4 33.95
Q 82.35 30.35 83.25 23.95 Z"/>
</g>
</defs>

<g transform="matrix( 1, 0, 0, 1, -33.5,-72.6) ">
<g transform="matrix( 1, 0, 0, 1, 0,0) ">
<g transform="matrix( 1, 0, 0, 1, 0,0) ">
<use xlink:href="#Graphics_Symbol_608_0_Layer0_0_FILL"/>
</g>
</g>
</g>
</svg>
