
<svg xmlns="http://www.w3.org/2000/svg" version="1.1" xmlns:xlink="http://www.w3.org/1999/xlink" preserveAspectRatio="none" x="0px" y="0px" width="550px" height="400px" viewBox="0 0 550 400">
<defs>
<g id="Parts_Heads_headsMC_2_Layer12_0_FILL">
<path fill="#FFFFFF" stroke="none" d="
M 84.7 85.3
Q 89.55 81.55 89.55 80.75 89.55 77 85.85 73.25 81.85 69.2 76.95 69.2
L 68.85 74.9
Q 67.15 76.15 65.1 76.85 63.9 77.6 63.9 80.4 63.9 86.6 66.45 88.9 68.95 91.15 75.05 90.75 76.85 90.8 76.5 90.45 79.6 89.25 84.7 85.3
M 77.5 82.5
Q 75.75 82.5 74.55 81.5 73.3 80.5 73.3 79.1 73.3 77.7 74.55 76.7 75.75 75.7 77.5 75.7 79.25 75.7 80.5 76.7 81.7 77.7 81.7 79.1 81.7 80.5 80.5 81.5 79.25 82.5 77.5 82.5 Z"/>
</g>

<g id="Graphics_Symbol_810_0_Layer2_0_FILL">
<path fill="#000000" stroke="none" d="
M 22.65 68.9
Q 26.95 65.6 33.35 64.05 42.4 61.8 42.4 69.65 42.4 70.9 32.35 85 22.3 100.6 22.3 109.3 22.3 128 34.4 138 45.85 147.5 65.8 147.5 89.1 147.5 105.7 133.6 112.05 128.25 115.85 122 119.3 116.4 119.3 112.45 119.3 82.45 102.7 65.4 86.2 48.45 57.35 48.45 30.75 48.45 10.75 61.8 2.85 67.1 -1.9 73.25 -6.3 79 -6.3 83.2 -6.3 85.9 -4.85 87.3 -3.65 88.5 -1.7 88.5
L 5.3 82.7
Q 14.15 75.4 22.65 68.9
M 99.5 64.8
Q 116.05 78.75 116.05 96.5 116.05 98 112.35 99.85
L 105.8 102.7 95.7 107.75
Q 88.85 110.9 83.5 110.9 83 110.9 83.45 110.3 83.85 109.7 83.35 109.7
L 77.6 111.2 64.25 112.45 50.2 113.35
Q 50.65 113.35 50.45 113.15 50.15 112.85 50.3 112.5
L 49.45 112.35
Q 49.2 112.3 49.2 112.9 49.2 117.25 60.45 125.95 72.75 135.45 87.4 140.7 76 144.5 65.5 144.5 49.95 144.5 39.1 137.5 25.4 128.65 25.4 111.1 25.4 108.3 28.2 99.65 31.35 89.95 35.15 82.65 35.5 81.95 41.05 76 45.7 70.95 45.7 68.25 45.7 66.65 41 63.55 36.5 60.55 34.9 60.55 28.4 60.55 23.35 63.35 19.6 65.4 15.15 70.05
L 7.25 78.25
Q 2.25 82.95 -3.25 85.5 0.2 67 25.9 57.1 34.85 53.65 45.35 51.75 53.35 50.3 58.3 50.3 82.25 50.3 99.5 64.8
M 79.8 112.9
L 78.9 119.1
Q 78.45 120.95 77 120.95 71.05 120.95 61.6 115.5 65.55 115.5 79.8 112.9
M 75.55 124.45
L 72.35 130
Q 68.25 128.25 61.65 122.5 56.1 117.65 54.85 115.85 58.75 118.2 66.5 121.3 73.8 124.3 75.55 124.45
M 80.15 132.45
Q 76.55 131.45 76.05 131.05 80.45 124.85 80.6 124.85
L 91.1 125.75 86.45 131.1
Q 85.35 132.5 85.85 134
L 80.15 132.45
M 116.55 101.05
L 116.8 108.3
Q 116.8 115.7 113.1 119.3 109.8 122.5 103.8 122.5
L 98.95 122.05 101.5 117.6
Q 103.4 113.6 104.4 111.95 108.75 104.5 116.55 101.05
M 84.55 123.45
Q 81.75 122.7 81.75 121.5 81.75 112.95 89.25 111.05
L 96.1 109.8
Q 100.4 109.05 102.85 107.6 100.6 120.8 91 123.35 87.6 124.25 84.55 123.45
M 93.5 137.85
Q 92.3 137.85 91.3 136.65 90.15 135.25 88.55 134.8 96.5 125.3 101.2 124.85
L 105.2 124.95
Q 107.8 125 110.4 123.8
L 110.65 123.7
Q 105.95 128.5 100.7 132.95 94.85 137.85 93.5 137.85
M 89.2 89.4
Q 92.8 86.45 92.8 82 92.8 75.4 87 70.5 81.75 66.1 76.1 66.1 71.9 66.1 65.95 71.75 60.4 77 60.4 79.4 60.4 86.4 63.5 90.3 66.35 93.9 71 93.9 83.75 93.9 89.2 89.4
M 89.55 80.75
Q 89.55 81.55 84.7 85.3 79.6 89.25 76.5 90.45 76.85 90.8 75.05 90.75 68.95 91.15 66.45 88.9 63.9 86.6 63.9 80.4 63.9 77.6 65.1 76.85 67.15 76.15 68.85 74.9
L 76.95 69.2
Q 81.85 69.2 85.85 73.25 89.55 77 89.55 80.75
M 77.5 82.5
Q 79.25 82.5 80.5 81.5 81.7 80.5 81.7 79.1 81.7 77.7 80.5 76.7 79.25 75.7 77.5 75.7 75.75 75.7 74.55 76.7 73.3 77.7 73.3 79.1 73.3 80.5 74.55 81.5 75.75 82.5 77.5 82.5 Z"/>

<path fill="#FFFFFF" stroke="none" d="
M 91.3 136.65
Q 92.3 137.85 93.5 137.85 94.85 137.85 100.7 132.95 105.95 128.5 110.65 123.7
L 110.4 123.8
Q 107.8 125 105.2 124.95
L 101.2 124.85
Q 96.5 125.3 88.55 134.8 90.15 135.25 91.3 136.65
M 81.75 121.5
Q 81.75 122.7 84.55 123.45 87.6 124.25 91 123.35 100.6 120.8 102.85 107.6 100.4 109.05 96.1 109.8
L 89.25 111.05
Q 81.75 112.95 81.75 121.5
M 116.8 108.3
L 116.55 101.05
Q 108.75 104.5 104.4 111.95 103.4 113.6 101.5 117.6
L 98.95 122.05 103.8 122.5
Q 109.8 122.5 113.1 119.3 116.8 115.7 116.8 108.3
M 76.05 131.05
Q 76.55 131.45 80.15 132.45
L 85.85 134
Q 85.35 132.5 86.45 131.1
L 91.1 125.75 80.6 124.85
Q 80.45 124.85 76.05 131.05
M 72.35 130
L 75.55 124.45
Q 73.8 124.3 66.5 121.3 58.75 118.2 54.85 115.85 56.1 117.65 61.65 122.5 68.25 128.25 72.35 130
M 78.9 119.1
L 79.8 112.9
Q 65.55 115.5 61.6 115.5 71.05 120.95 77 120.95 78.45 120.95 78.9 119.1 Z"/>
</g>

<g id="Graphics_Symbol_810_0_Layer1_0_FILL">
<path fill="#000000" fill-opacity="0.25098039215686274" stroke="none" d="
M 113.4 83.3
Q 108.3 71 95.95 59.45 93 56.7 83.5 53.65 74.2 50.65 69.4 50.75
L 59.4 49.8 50.55 48.8
Q 48.8 48.8 41.35 51.3
L 23.8 57.2 24.35 56.85
Q 24.55 56.85 24.6 55.35 9.15 61.4 1.2 71.2 -5.05 78.8 -5.05 85.8
L -5 86.6 -4.95 86.55 -4.95 86.65
Q 3.9 82.5 10.7 76 15.9 71 15.9 69.8 15.9 67.8 25 64.6 33.3 61.65 35.85 61.65 36.85 61.65 40.25 64.05 43.7 66.5 44.55 67.9 40.4 71.85 36.6 77.7 35.25 79.9 30.7 85.6 26.9 90.9 26.9 93.85 26.9 94.35 27.4 94.5 27.9 94.65 27.9 95.15 27.9 96.05 26.1 102.75 24.3 109.45 24.3 116.25 24.3 131.4 42.95 139.95 56.75 146.25 70.45 146.25 88 146.25 103.7 133.45 119.35 120.65 118.9 108.15 118.45 95.6 113.4 83.3
M 90.85 70.45
Q 104.1 79.6 104.1 93.9 104.1 108.35 97.55 119.9 88.25 136.3 69.05 136.3 58.3 136.3 49.5 130.3 37.4 122 37.4 105.55 37.4 92.15 51.1 76.75
L 55.3 71.65
Q 50.85 68.35 45.35 65.85 44.15 64.2 41.2 61.95 37.85 59.4 36.25 59.4 33.15 59.4 28 61.2 24.7 62.4 21.7 63.85
L 26.65 61.85
Q 21.9 65 17.45 66.7 13.2 68.95 4.35 77.6
L 2.8 76.3
Q 3.75 72.15 10.55 67.5 16.8 63.25 26.25 59.65 47.5 51.7 60.95 53.9 64.4 60.35 65.9 61.45 68.05 63 69.5 63 80.1 63 90.85 70.45 Z"/>
</g>

<g id="Graphics_Symbol_810_0_Layer0_0_FILL">
<path fill="#FFFFFF" fill-opacity="0.25098039215686274" stroke="none" d="
M 11.35 68.7
L 10.4 68.5
Q 7.1 68.5 3.4 72.8 0.35 76.4 0.1 78.1
L 0.5 78.75
Q 1.25 79.35 2.8 79.35
L 8.9 75.7
Q 12.45 73.05 11.35 68.7
M 84.65 95.7
Q 84.65 92.15 83.2 88.95 80.85 83.85 75.7 83.85 72.8 83.85 64.45 87.35 54.6 91.55 54.6 95.35 54.6 95.85 55.15 96.8
L 55.65 98.2 55.25 99.45
Q 54.8 100.2 54.8 100.7 54.8 104.25 61.05 109.75 67.1 115 70.15 115 74.9 115 79.5 109.6 84.65 103.6 84.65 95.7 Z"/>
</g>
</defs>

<g transform="matrix( 1, 0, 0, 1, -62.75,-76.85) ">
<g transform="matrix( 1, 0, 0, 1, 0,0) ">
<use xlink:href="#Parts_Heads_headsMC_2_Layer12_0_FILL"/>
</g>

<g transform="matrix( 1, 0, 0, 1, 0,0) ">
<g transform="matrix( 1, 0, 0, 1, 0,0) ">
<use xlink:href="#Graphics_Symbol_810_0_Layer2_0_FILL"/>
</g>

<g transform="matrix( 1, 0, 0, 1, 0,0) ">
<use xlink:href="#Graphics_Symbol_810_0_Layer1_0_FILL"/>
</g>

<g transform="matrix( 1, 0, 0, 1, 0,0) ">
<use xlink:href="#Graphics_Symbol_810_0_Layer0_0_FILL"/>
</g>
</g>

<g id="hat1" transform="matrix( 0.983917236328125, -0.17529296875, 0.17529296875, 0.983917236328125, 45.2,78.25) ">
<g id="colorMC" transform="matrix( 0.9999847412109375, 0, 0, 0.9999847412109375, 0,0) "/>

<g id="colorMC2" transform="matrix( 1, 0, 0, 1, 0,0) "/>
</g>

<g id="hat2" transform="matrix( 0.9733734130859375, -0.2247314453125, 0.2247314453125, 0.9733734130859375, 38,60.6) ">
<g id="colorMC_FL" transform="matrix( 0.9999847412109375, 0, 0, 0.9999847412109375, 0,0) "/>

<g id="colorMC2_FL" transform="matrix( 1, 0, 0, 1, 0,0) "/>
</g>

<g id="hat3" transform="matrix( 0.96026611328125, -0.2753753662109375, 0.2753753662109375, 0.96026611328125, 26,48.4) ">
<g id="colorMC_FL_FL" transform="matrix( 0.9999847412109375, 0, 0, 0.9999847412109375, 0,0) "/>

<g id="colorMC2_FL_FL" transform="matrix( 1, 0, 0, 1, 0,0) "/>
</g>

<g id="hat4" transform="matrix( 0.944580078125, -0.3252410888671875, 0.3252410888671875, 0.944580078125, 18.85,34.5) ">
<g id="colorMC_FL_FL_FL" transform="matrix( 0.9999847412109375, 0, 0, 0.9999847412109375, 0,0) "/>

<g id="colorMC2_FL_FL_FL" transform="matrix( 1, 0, 0, 1, 0,0) "/>
</g>
</g>
</svg>
