
<svg xmlns="http://www.w3.org/2000/svg" version="1.1" xmlns:xlink="http://www.w3.org/1999/xlink" preserveAspectRatio="none" x="0px" y="0px" width="550px" height="400px" viewBox="0 0 550 400">
<defs>
<g id="Graphics_Symbol_277_0_Layer1_0_FILL">
<path fill="#000000" fill-opacity="0.25098039215686274" stroke="none" d="
M 25 29.3
Q 24.15 29.3 23.6 30.05 23 30.8 23 31.9 23 33 23.6 33.75 24.15 34.5 25 34.5 25.85 34.5 26.45 33.75 27 33 27 31.9 27 30.8 26.45 30.05 25.85 29.3 25 29.3
M 20.05 35.6
Q 20.05 34.65 19.4 33.95 18.7 33.25 17.75 33.25 16.8 33.25 16.15 33.95 15.45 34.65 15.45 35.6 15.45 36.55 16.15 37.25 16.8 37.95 17.75 37.95 18.7 37.95 19.4 37.25 20.05 36.55 20.05 35.6
M 26.55 23.45
Q 25.5 23.95 25.5 24.7 25.5 25.45 26.55 26
L 29 26.5 31.5 26
Q 32.5 25.45 32.5 24.7 32.5 23.95 31.5 23.45 30.45 22.9 29 22.9 27.55 22.9 26.55 23.45
M 24 13.25
Q 24 12.3 23.05 11.65 22.1 11 20.75 11 19.4 11 18.45 11.65 17.5 12.3 17.5 13.25 17.5 14.2 18.45 14.85 19.4 15.5 20.75 15.5 22.1 15.5 23.05 14.85 24 14.2 24 13.25
M 52.5 32
Q 51.9 30.6 50.95 30.5 49 30.25 45 34.1
L 45.55 34.8
Q 46.25 35.45 46.85 35.45 47.85 35.45 52.5 32
M 60.25 36.3
L 55.05 36.3 55.05 39.85 60.25 39.85 60.25 36.3
M 12.95 -2
Q 10.8 -2.25 8.5 -0.5
L 6.65 1.3 7.25 1.65 8.6 1.95
Q 9.6 1.95 12.95 -2 Z"/>
</g>

<g id="Graphics_Symbol_277_0_Layer0_0_FILL">
<path fill="#FFFFFF" fill-opacity="0.25098039215686274" stroke="none" d="
M 31.25 31
Q 31.25 29.85 30.45 29.05 29.65 28.25 28.5 28.25 27.35 28.25 26.55 29.05 25.75 29.85 25.75 31 25.75 32.15 26.55 32.95 27.35 33.75 28.5 33.75 29.65 33.75 30.45 32.95 31.25 32.15 31.25 31
M 19.65 31.4
Q 18.9 32.15 18.9 33.25 18.9 34.35 19.65 35.15 20.4 35.9 21.5 35.9 22.6 35.9 23.35 35.15 24.1 34.35 24.1 33.25 24.1 32.15 23.35 31.4 22.6 30.6 21.5 30.6 20.4 30.6 19.65 31.4
M 20.15 9.25
Q 19.25 8.7 18 8.7 16.75 8.7 15.9 9.25 15 9.8 15 10.6 15 11.4 15.9 11.95 16.75 12.5 18 12.5 19.25 12.5 20.15 11.95 21 11.4 21 10.6 21 9.8 20.15 9.25
M 27.75 23
Q 29.1 23 30.05 22.45 31 21.9 31 21.1 31 20.3 30.05 19.75 29.1 19.2 27.75 19.2 26.4 19.2 25.45 19.75 24.5 20.3 24.5 21.1 24.5 21.9 25.45 22.45 26.4 23 27.75 23
M 48 31.5
Q 48 30.65 47.3 30.1 46.55 29.5 45.5 29.5 44.45 29.5 43.75 30.1 43 30.65 43 31.5 43 32.35 43.75 32.95 44.45 33.5 45.5 33.5 46.55 33.5 47.3 32.95 48 32.35 48 31.5
M 58 35.9
Q 58 35.05 57.05 34.45 56.1 33.8 54.75 33.8 53.4 33.8 52.45 34.45 51.5 35.05 51.5 35.9 51.5 36.75 52.45 37.4 53.4 38 54.75 38 56.1 38 57.05 37.4 58 36.75 58 35.9
M 9.5 -2.3
Q 9.5 -3.45 8.7 -4.25 7.9 -5.1 6.75 -5.1 5.6 -5.1 4.8 -4.25 4 -3.45 4 -2.3 4 -1.15 4.8 -0.3 5.6 0.5 6.75 0.5 7.9 0.5 8.7 -0.3 9.5 -1.15 9.5 -2.3 Z"/>
</g>
</defs>

<g transform="matrix( 1, 0, 0, 1, -28.4,-10.7) ">
<g transform="matrix( 1, 0, 0, 1, 0,0) ">
<g transform="matrix( 1, 0, 0, 1, 0,0) ">
<use xlink:href="#Graphics_Symbol_277_0_Layer1_0_FILL"/>
</g>

<g transform="matrix( 1, 0, 0, 1, 0,0) ">
<use xlink:href="#Graphics_Symbol_277_0_Layer0_0_FILL"/>
</g>
</g>
</g>
</svg>
