
<svg xmlns="http://www.w3.org/2000/svg" version="1.1" xmlns:xlink="http://www.w3.org/1999/xlink" preserveAspectRatio="none" x="0px" y="0px" width="550px" height="400px" viewBox="0 0 550 400">
<defs>
<g id="Layer0_0_FILL">
<path fill="#B10101" fill-opacity="0.7529411764705882" stroke="none" d="
M -14.35 -21.65
L -14.85 -23.6
Q -15.4 -25 -16.2 -25.3
L -16.65 -21.45 -16.6 -21.3 -14.35 -21.65
M -35.5 -18.65
Q -33.4 -20.85 -33.6 -22.4
L -39.4 -18.1 -35.5 -18.65
M -28.2 -19.6
Q -27.6 -20.65 -27.65 -21.25
L -27.9 -21.4 -31.15 -19.25 -28.2 -19.6
M -27.05 -31.05
Q -27.5 -29.95 -27.3 -28.85
L -26.05 -23.85
Q -25.65 -22.95 -24.6 -22.45
L -22.45 -25.7 -22.45 -24.75
Q -22.35 -23.25 -21.7 -22.05 -20.95 -20.8 -19.85 -20.8
L -19.45 -20.9 -19.4 -21 -19.35 -21.2 -19.3 -21.1 -19.4 -21.5 -19.95 -21.85
Q -20.55 -22.35 -20.85 -23.6
L -20.4 -25.65
Q -20.05 -27.85 -20.4 -29.25
L -20.55 -29.55 -21.45 -29.85 -22.35 -26.6 -22.4 -27.3
Q -22.55 -28.1 -23.65 -30.45
L -24.95 -32.9
Q -26.4 -32.3 -27.05 -31.05
M -35.55 -34.55
L -35.65 -34.4
Q -36 -33.6 -34.25 -29.6 -32.65 -25.8 -31.75 -24.8 -31.3 -24.85 -31.05 -25.05
L -30.75 -25.25 -31.2 -27.75
Q -31.75 -30.1 -32.55 -31.5 -33.55 -33.3 -35.55 -34.55
M -54.65 -15.05
L -52.1 -18.8
Q -48.65 -24 -48.55 -25.1 -51.65 -24.65 -54.65 -21.2 -57.6 -17.75 -57.1 -15.4
L -56.8 -14.55 -54.65 -15.05
M -48.6 -16.35
L -45.2 -20.15
Q -42.25 -23.5 -42.3 -23.8 -42.4 -24.25 -43.5 -24.55
L -51.85 -15.75 -48.6 -16.35
M -80.7 -17.55
Q -80.6 -17.15 -80.2 -16.9
L -79.45 -16.65
Q -74.5 -22.65 -73.5 -24.2 -72.2 -25.95 -71.95 -27.35 -73.9 -27.2 -77.45 -22.8 -80.85 -18.55 -80.7 -17.55
M -66.65 -14.6
L -66.3 -14.05 -65.5 -13.75
Q -59.75 -18.95 -57.9 -21.35 -55.65 -24.25 -56.15 -26.55 -57.8 -25.8 -62.3 -20.55 -66.85 -15.35 -66.65 -14.6
M -69.15 -30.15
Q -68.7 -30.8 -69.5 -34.6
L -70.3 -37.8
Q -71.15 -40.6 -72.15 -42
L -71.8 -35.95
Q -71.25 -33.5 -70.4 -31.55
L -69.45 -29.9 -69.15 -30.15
M -64.5 -26.1
Q -64.8 -27.45 -65.8 -27.6
L -73.7 -17.9 -72.5 -17.25
Q -69.15 -18.1 -66.55 -21.15 -64.05 -24.1 -64.5 -26.1
M -77.35 -38.85
Q -78.45 -40.65 -79.55 -41.35
L -79.7 -40.65 -79.7 -39.7
Q -79.2 -37.35 -77.95 -35.05 -76.7 -32.8 -75.45 -32
L -74.95 -32.5
Q -75.6 -36.2 -77.35 -38.85
M -67.3 -39.85
Q -67.95 -39.25 -68.1 -38.1
L -68.05 -36.7
Q -67.3 -33.4 -66.35 -31.85 -65.35 -30.2 -63.2 -28.95
L -62.9 -29.55
Q -63.15 -30.75 -64.6 -34.15 -66.1 -37.8 -67.3 -39.85
M -43.7 -35.25
Q -43.85 -33 -43.3 -30.65 -42.85 -28.5 -42 -27.25 -41.25 -26 -40.5 -26
L -39.9 -26.15 -39.95 -26.2 -39.9 -26.35 -40.95 -31.5 -41.1 -34.15
Q -41.65 -36.75 -43.5 -37.8
L -43.7 -35.25
M -57.15 -27.8
L -56.4 -28 -56.45 -29 -58.05 -33.5
Q -59.95 -37.8 -61.4 -38.45
L -61.5 -38.4 -61.5 -37.25
Q -61.15 -35.15 -57.15 -27.8
M -50.8 -36.05
L -50.75 -35
Q -50.55 -34.15 -48.35 -30.1
L -45.65 -25.6 -44.9 -26.25 -45.1 -27.35 -47.15 -31.9
Q -49.4 -36.55 -50.35 -37.3
L -50.8 -36.05
M -51.05 -31.9
Q -51.35 -33.1 -52.3 -35.15 -53.5 -37.75 -54.4 -38.35 -54.65 -37.35 -54.5 -32.45
L -53.5 -29.45
Q -52.9 -27.9 -52.45 -27.65 -52.15 -27.8 -51.9 -28 -50.55 -29.4 -51.05 -31.9
M -85.7 -20.7
L -85.35 -20.1
Q -83.9 -20.4 -81 -23.75 -78.05 -27.05 -78.25 -27.85
L -78.55 -28.2 -79.3 -28.15
Q -81.5 -28.3 -83.65 -25.3 -85.55 -22.65 -85.7 -20.7
M -107.15 -27.65
Q -109.3 -26.05 -109.15 -25.45
L -108.85 -24.85 -108.65 -24.65 -107.75 -24.65
Q -105.75 -25.35 -103.9 -26.45 -100.3 -28.8 -100.9 -31.25 -101 -31.85 -101.75 -32 -103.65 -30.2 -107.15 -27.65
M -117.35 -28.15
Q -114.55 -30.3 -114.3 -32.45 -123.1 -28.8 -122.4 -25.85 -120.1 -26.05 -117.35 -28.15
M -116.25 -26.15
L -116.05 -26
Q -114.75 -26.15 -111.45 -28.3 -107.85 -30.7 -107.55 -32.2
L -108 -32.1
Q -109.1 -32 -112.9 -29.55 -116.65 -27.1 -116.55 -26.75
L -116.25 -26.15
M -111.85 -42.7
Q -113.7 -42.35 -114.3 -40.65
L -114.5 -38.95
Q -113.9 -36.2 -112.4 -35.85
L -110.8 -35.95 -110.8 -36.55 -111.7 -37.7
Q -112.5 -38.7 -112.6 -39.25
L -111.85 -42.7
M -107.1 -40.8
Q -107.3 -39.65 -106.95 -38.15 -106.65 -36.7 -105.95 -35.7 -105.35 -34.65 -104.7 -34.65 -104.2 -34.75 -104.05 -35.85 -103.85 -36.95 -104.2 -38.45 -104.55 -39.95 -105.1 -40.95 -105.85 -41.95 -106.35 -41.95 -106.95 -41.85 -107.1 -40.8
M -84.35 -28.95
L -84.7 -29.6
Q -92.6 -23.9 -94.5 -21.35 -96 -19.45 -94.35 -18.2
L -88.5 -23.75
Q -84.2 -28.1 -84.35 -28.95
M -95.25 -30
L -95.65 -30.35 -97.9 -29 -103.05 -24.7
Q -102.85 -23.95 -102.15 -23.95 -101.25 -24.1 -99.35 -25.95
L -95.25 -30
M -95.8 -44.95
L -96 -44.75 -96.25 -43.65
Q -95.7 -40.85 -93.85 -37.15
L -91.9 -33.5 -91.65 -33.7 -91.35 -34.25
Q -91.15 -34.8 -91.25 -35.15
L -93.2 -40
Q -95.15 -44.35 -95.8 -44.95
M -98.85 -41.85
L -100.7 -41.7 -99 -34.25 -97.15 -34.45 -98.85 -41.85
M -87.1 -42.95
L -86.7 -39.35
Q -86.2 -37.1 -85.1 -35 -83.8 -32.2 -82.25 -31.5
L -81.95 -31.65
Q -81.6 -32.3 -81.85 -33.25 -82.25 -35.05 -83.25 -36.8
L -87.05 -43 -87.1 -42.95
M -126.75 -30.25
L -126.25 -29.5 -125.15 -29.6
Q -123.6 -29.7 -121.25 -31.15 -118.9 -32.5 -118.05 -33.7
L -118.2 -33.95 -124.25 -31.75
Q -126.9 -30.8 -126.75 -30.25
M -122.4 -37.35
Q -125.15 -38.9 -127.8 -38.65
L -125.15 -36.55 -128.45 -36.55 -128.45 -35.9 -123.4 -34.55
Q -128.15 -32.6 -128.8 -32.45
L -126.95 -31.75
Q -123.95 -32.05 -121 -33.75
L -118.55 -35.4 -118.05 -35.2 -117.6 -34.95
Q -117.1 -35.05 -116.95 -35.2
L -116.85 -35.3 -117 -36.05
Q -118 -40.5 -120.85 -41.4
L -120.95 -41.1
Q -121.05 -39.6 -120.15 -37.9
L -118.65 -35.5 -119.65 -35.75
Q -120 -35.75 -122.4 -37.35 Z"/>
</g>
</defs>

<g transform="matrix( 1, 0, 0, 1, 0,0) ">
<use xlink:href="#Layer0_0_FILL"/>
</g>
</svg>
