
<svg xmlns="http://www.w3.org/2000/svg" version="1.1" xmlns:xlink="http://www.w3.org/1999/xlink" preserveAspectRatio="none" x="0px" y="0px" width="550px" height="400px" viewBox="0 0 550 400">
<defs>
<g id="Layer0_0_FILL">
<path fill="#FD1313" fill-opacity="0.7529411764705882" stroke="none" d="
M -18.45 -21.05
L -16.3 -21.35 -16.5 -22.35
Q -16.7 -23.45 -17.25 -24.2 -17.8 -24.95 -18.25 -24.9 -18.7 -24.9 -18.85 -24.05
L -18.8 -22.1 -18.45 -21.05
M -34.95 -18.85
L -35.15 -18.65 -31.95 -19.15
Q -30.3 -20.75 -30.3 -21.85
L -34.95 -18.85
M -22.15 -21
L -23.9 -20.25 -22.15 -20.5 -22.15 -21
M -24.2 -26.9
Q -24.65 -26.9 -24.8 -26 -24.95 -25.25 -24.7 -24.1 -24.45 -22.95 -23.95 -22.15 -23.4 -21.4 -22.9 -21.4 -22.5 -21.5 -22.35 -22.3 -22.15 -23.15 -22.45 -24.25 -22.65 -25.4 -23.2 -26.15 -23.7 -26.95 -24.2 -26.9
M -30.65 -34.1
Q -31.1 -32.75 -30.65 -31.05 -30.2 -28.95 -29.15 -26.45 -27.95 -23.7 -27.05 -23.1
L -26.9 -24.75
Q -27.15 -27.85 -28.75 -35.05
L -28.95 -35.35 -29.55 -35.45
Q -30.35 -35.35 -30.65 -34.1
M -40.35 -34.35
L -38.85 -29.6
Q -37.4 -25.7 -36.3 -24.95
L -34.45 -25.4
Q -34.6 -26.3 -36.55 -30.6
L -38.8 -36.05 -40.65 -35.85 -40.35 -34.35
M -42.35 -20.45
L -45.9 -16.9 -40.7 -17.8
Q -38.05 -20.45 -36.85 -23.2
L -42.35 -20.45
M -54.3 -15.15
L -53.2 -15.4
Q -48.05 -18.25 -45.55 -20.85 -43.05 -23.4 -43.6 -25 -47.3 -22.15 -50.8 -18.65
L -54.3 -15.15
M -74.8 -16.7
Q -74.35 -16.75 -70.1 -21.35 -65.7 -26.25 -65.85 -27.7 -72.2 -23 -73.5 -21.35
L -77 -17.05 -74.8 -16.7
M -67 -29.95
Q -66.65 -30.45 -66.75 -30.9 -68.05 -36.75 -69.6 -38.7 -70.15 -39.45 -71.45 -39.75
L -70.35 -34.85
Q -70.05 -33.3 -67.4 -29.5
L -67 -29.95
M -74.5 -38.3
Q -75.55 -39.85 -76.8 -40.35
L -76.05 -35.75
Q -75 -30.95 -73.8 -30.1 -72.35 -31.3 -73.4 -36 -73.6 -37 -74.5 -38.3
M -63 -39
L -65.25 -38.8 -63.05 -28.85 -60.75 -29.1 -63 -39
M -50.4 -26.35
Q -50.5 -26.35 -50.6 -26.5 -54.45 -24.15 -57.8 -20.3
L -62.3 -15
Q -59.85 -14.75 -56.75 -17.9
L -50.75 -24.75
Q -50.15 -25.4 -50.25 -25.85
L -50.4 -26.35
M -47.5 -26.55
L -47.1 -27.05
Q -46.8 -27.9 -47.1 -29.2
L -48.1 -33.1
Q -49.45 -36.8 -51.45 -37.05
L -52.15 -37.3
Q -51.15 -34.4 -47.5 -26.55
M -45.65 -36.45
L -45.8 -34.1
Q -45.75 -31.85 -45.1 -28.7 -44.6 -26.5 -43.8 -25.9 -43.3 -25.45 -42.25 -25.6 -42.1 -26 -42.55 -28.45
L -44 -36.2 -45.65 -36.45
M -59.8 -26.9
L -60.55 -27.15 -71.1 -16.2 -70.4 -15.95 -70.25 -15.8 -68.7 -15.85
Q -68 -15.9 -63.65 -20 -58.95 -24.4 -59.4 -26.3 -59.45 -26.7 -59.8 -26.9
M -56 -37.8
L -58.1 -38.05 -56.15 -31.6
Q -55.95 -30.7 -56.2 -29.85
L -56.3 -28.05
Q -55.25 -27.35 -54.95 -27.4 -53.8 -27.5 -53.8 -28.65 -53.8 -30.6 -56 -37.8
M -81.1 -25
Q -85.2 -21.25 -86.7 -19.35 -80.75 -20.05 -76.95 -24.25 -74 -27.55 -74 -29.9 -76.1 -29.4 -81.1 -25
M -107.7 -29.75
Q -111.6 -27.05 -112.6 -25 -112.4 -24.45 -111.85 -24.3 -110.2 -24.5 -105.8 -27.95 -101.5 -31.45 -100.95 -32.8 -103.6 -32.55 -107.7 -29.75
M -118 -26.85
L -117.9 -26.8
Q -115.65 -26.9 -111.65 -29.65 -107.6 -32.35 -107.85 -33.7 -108 -34.35 -108.65 -33.95 -110.65 -34.05 -114.25 -31.5 -118 -28.9 -118 -26.85
M -118.5 -32.85
Q -120.15 -31.8 -120.3 -31.25
L -119.9 -30.75
Q -119.75 -30.6 -119.1 -30.4 -117.6 -31.45 -116.45 -32.5
L -115.35 -33.85
Q -116.65 -34 -118.5 -32.85
M -118.3 -42.9
L -119.15 -42.25
Q -119.2 -41.4 -117.7 -38.5 -116.25 -35.75 -115.35 -34.95
L -114.55 -35.25 -114.8 -36.55
Q -115 -37.65 -116.35 -40 -117.65 -42.35 -118.3 -42.9
M -108.6 -39.15
Q -109.65 -41.05 -111.05 -42.05 -112.15 -40.15 -111.75 -38.25 -111.3 -36.15 -108.7 -34.9 -107.4 -35.7 -107.75 -37.1 -107.9 -37.95 -108.6 -39.15
M -85.25 -32.4
L -85.35 -33.45
Q -85.65 -34.75 -87.35 -37.5 -89.5 -40.85 -91.65 -42.45
L -90.95 -38.6
Q -90.55 -36.6 -89.2 -34.45 -87.6 -31.85 -86.35 -31.95 -85.9 -32 -85.55 -32.2
L -85.25 -32.4
M -90.25 -25.4
Q -86.4 -29.55 -86.65 -31.15 -88.05 -30.85 -91.95 -27.6
L -98.15 -21.75 -95.6 -21.25
Q -94.05 -21.45 -90.25 -25.4
M -81.35 -29.35
Q -86.15 -27.35 -87.3 -25.3
L -88.25 -23.2
Q -88.95 -21.7 -90.2 -20.05
L -89.75 -19.85 -89.6 -19.75
Q -87.35 -19.8 -84.1 -23.25 -80.75 -26.9 -81.35 -29.35
M -100.9 -34.85
Q -100.75 -35.3 -100.9 -36.2 -101.1 -37.05 -102.25 -39.3 -103.35 -41.6 -103.9 -42.1
L -103.95 -42.1 -103.5 -35.65 -101.8 -33.8
Q -101 -34.3 -100.9 -34.85
M -99.4 -27.4
Q -96.3 -30.55 -95.9 -32.1
L -108.75 -23.8 -105.9 -23.3
Q -103.15 -23.55 -99.4 -27.4
M -99.2 -44.25
Q -100.3 -44.25 -99.75 -41.8 -99.1 -38.75 -96.4 -34
L -94.5 -34.15
Q -93.85 -34.4 -93.95 -35 -94.85 -39.2 -96.6 -41.9 -98.1 -44.3 -99.2 -44.25
M -81.05 -41.4
L -83.3 -41.2 -81.35 -32.55 -79.15 -32.75 -81.05 -41.4 Z"/>
</g>
</defs>

<g transform="matrix( 1, 0, 0, 1, 0,0) ">
<use xlink:href="#Layer0_0_FILL"/>
</g>
</svg>
