
<svg xmlns="http://www.w3.org/2000/svg" version="1.1" xmlns:xlink="http://www.w3.org/1999/xlink" preserveAspectRatio="none" x="0px" y="0px" width="550px" height="400px" viewBox="0 0 550 400">
<defs>
<g id="Layer0_0_FILL">
<path fill="#000000" stroke="none" d="
M 69 -35.15
L 63.6 -38.45
Q 57.4 -42.4 50.3 -44.95 33.45 -51.2 2.1 -53.5 -26.15 -55.6 -35.65 -53.3 -39.1 -50.1 -40.35 -40.5 -41 -30.45 -41.5 -28.25 -42.5 -23.3 -45.1 -21.95
L -50.8 -19.4
Q -55.55 -16.15 -57.3 -15.25 -58.4 -14.75 -60.75 -14.2
L -62.9 -12.35
Q -62.5 -12.05 -61.65 -11.9 -61.15 -11.75 -61 -11.2 -60.2 -7.85 -53.95 5.1
L -51.8 9.5
Q -47.75 17.75 -47.4 17.65
L -46.9 17.25
Q -46.9 16.75 -44.6 15.85 -38.9 13.45 -31.05 11.65
L -16.75 8.3 71.1 -14.15 71 -13.6 72.25 -12.6
Q 73.4 -14.8 74.8 -15.8 75.55 -16.3 75.3 -17.3 75.2 -17.8 74.95 -17.8
L 74.55 -17.7
Q 78.65 -26.35 80.2 -31.8 80.05 -32.5 78.6 -33.25 75.85 -34.7 69 -35.15
M 74.1 -31.75
L 70.3 -31.15 69.9 -32.65 74.1 -31.75
M 74.55 -23.4
L 73.2 -18.8
Q 72.5 -16.8 70.85 -15.85 68.85 -14.7 64.15 -14
L -4.15 2.5
Q -15.25 5.7 -20.6 6.9
L -47.35 15.4 -59.6 -11.85
Q -36.3 -17.5 -6.65 -21.2
L 46.05 -26.45
Q 64.8 -28.25 77.9 -30.3 75.7 -26.95 74.55 -23.4
M 68.9 -31
L 47.25 -28.85 27.8 -27.6
Q 2.35 -25.8 -31.75 -19.55
L -41.9 -17.25 -41.8 -17.65
Q -37.2 -33.55 -35.7 -43.05 -35.4 -45.3 -35 -52.2
L -1.15 -52.4
Q 13.1 -52.25 22.45 -50.55 32.6 -48.7 43.25 -44.2 53.1 -39.95 68.9 -31
M -42.95 -21.55
L -43.6 -16.9 -52.8 -15.8 -42.95 -21.55 Z"/>

<path fill="#584D1F" stroke="none" d="
M -43.6 -16.9
L -42.95 -21.55 -52.8 -15.8 -43.6 -16.9 Z"/>
</g>
</defs>

<g transform="matrix( 1, 0, 0, 1, 0,0) ">
<use xlink:href="#Layer0_0_FILL"/>
</g>
</svg>
