
<svg xmlns="http://www.w3.org/2000/svg" version="1.1" xmlns:xlink="http://www.w3.org/1999/xlink" preserveAspectRatio="none" x="0px" y="0px" width="550px" height="400px" viewBox="0 0 550 400">
<defs>
<g id="Layer0_0_FILL">
<path fill="#FFFFFF" stroke="none" d="
M -57.85 -70.4
Q -57.95 -71.05 -58.45 -71.45 -59.35 -72.3 -61.6 -71.85 -63.3 -71.65 -63.8 -70.9
L -63.8 -69.75
Q -63.65 -68.8 -63 -68 -62 -66.8 -60.5 -67.05 -59.15 -67.3 -58.35 -68.4 -57.65 -69.4 -57.85 -70.4
M -31.9 -72.5
Q -31.4 -72.6 -30.1 -73.6 -28.65 -74.75 -28.75 -75.5 -29.1 -77.2 -32.3 -78.05 -35.45 -78.9 -34.85 -75.3
L -34.45 -73.85
Q -33.65 -72.15 -31.9 -72.5
M 3.85 -46.25
L 2.75 -46.8
Q -10.85 -40.55 -3.75 -25.35
L 1.5 -14.4 9.25 -16.5 11.7 -18
Q 11.45 -28.9 7.2 -40.1 6.75 -44.05 3.85 -46.25
M 6 -79.55
Q 7 -79.75 7.75 -81.4 8.4 -82.85 8.3 -83.55 8 -85.55 5.5 -85.4 2.95 -85.25 3.4 -82.75
L 4 -81
Q 4.85 -79.35 6 -79.55
M 41.15 -87.15
Q 42.45 -88.3 42.35 -89.15 42 -90.85 39.3 -90.4
L 37.2 -89.65
Q 35.85 -88.75 36.05 -87.6
L 36.35 -86.35
Q 36.9 -85.45 38.35 -85.65 39.75 -85.9 41.15 -87.15 Z"/>
</g>
</defs>

<g transform="matrix( 1, 0, 0, 1, 0,0) ">
<use xlink:href="#Layer0_0_FILL"/>
</g>
</svg>
