
<svg xmlns="http://www.w3.org/2000/svg" version="1.1" xmlns:xlink="http://www.w3.org/1999/xlink" preserveAspectRatio="none" x="0px" y="0px" width="550px" height="400px" viewBox="0 0 550 400">
<defs>
<linearGradient id="Gradient_1" gradientUnits="userSpaceOnUse" x1="193.75" y1="-1.6500000000000057" x2="193.75" y2="187.05" spreadMethod="pad">
<stop  offset="0%" stop-color="#FFFFFF" stop-opacity="0.7529411764705882"/>

<stop  offset="100%" stop-color="#B7B7B7" stop-opacity="0.5019607843137255"/>
</linearGradient>

<g id="Layer0_0_FILL">
<path fill="url(#Gradient_1)" stroke="none" d="
M 387.5 96.4
Q 387.5 94.25 377.8 80.8 365.9 64.35 351.5 49.95 307.7 6.15 266 6.15 264.35 6.15 251 11.15 236.65 16.55 229.25 17.65 230.3 -0.15 199.7 0 174.35 0.15 131.75 12.3 95.65 22.55 63.25 36.35 32 49.65 32 54.15 32 57.4 35.5 61.1 38.65 64.35 48 71.4 24.65 81.75 11.55 96.9 0 110.2 0 122.4 0 129.5 2.05 134.45 6.6 145.4 19.5 145.4 28.55 145.4 37.05 151.65 41.6 155 51.55 165.4 60.85 175.1 67.1 179.15 76.8 185.4 87.75 185.4 94.55 185.4 100.7 181.8 104.8 179.45 110.7 173.9 117.25 167.8 119.9 166 125.2 162.4 130.5 162.4 136.05 162.4 142.05 165.7
L 154.9 172.9
Q 176.6 183.4 217.75 183.4 255.25 183.4 294.8 178.3 283.35 182.05 283 182.4 288.5 183.4 290 183.9 297.55 181.45 324.4 175.75 346.1 171.15 361 164.4 359.95 163.7 358.75 163.3 359.5 162.45 359.5 161.65
L 357.7 147.3
Q 356.35 135.35 358.5 129.4
L 358.55 129.3
Q 359.8 126 362.6 122.65
L 363.1 122.9 359.35 129.65
Q 359.6 130.4 361.1 130.9
L 375.95 113.7 383.45 104.35 383.7 104.1
Q 387.5 100 387.5 96.4
M 379.1 106.4
L 375.85 109.15 375.85 108.9
Q 378.35 106.4 379.1 106.4
M 263.85 179.35
L 263.75 179.35 263.75 179.25 263.85 179.35
M 307.5 174.4
Q 306.25 174.6 296.05 177.9
L 280.7 178.75 284.75 178.2
Q 298.95 176.2 302.4 174.7
L 307.5 174.05 307.55 174.05 309 173.9 307.5 174.4 Z"/>
</g>
</defs>

<g transform="matrix( 1, 0, 0, 1, 0,0) ">
<use xlink:href="#Layer0_0_FILL"/>
</g>
</svg>
