
<svg xmlns="http://www.w3.org/2000/svg" version="1.1" xmlns:xlink="http://www.w3.org/1999/xlink" preserveAspectRatio="none" x="0px" y="0px" width="550px" height="400px" viewBox="0 0 550 400">
<defs>
<filter id="Filter_1" x="-20%" y="-20%" width="140%" height="140%" color-interpolation-filters="sRGB">
<feColorMatrix in="SourceGraphic" type="matrix" values="1 0 0 0 0 0 1 0 0 0 0 0 1 0 0 0 0 0 0.46 0" result="result1"/>
</filter>

<filter id="Filter_2" x="-20%" y="-20%" width="140%" height="140%" color-interpolation-filters="sRGB">
<feColorMatrix in="SourceGraphic" type="matrix" values="1 0 0 0 0 0 1 0 0 0 0 0 1 0 0 0 0 0 0.79 0" result="result1"/>
</filter>

<g id="Parts_Heads_headColorMC_47_Layer1_0_FILL">
<path fill="#EF95EF" stroke="none" d="
M 90.25 65.05
Q 87.65 60.1 83.65 57.05 77.85 53 70.8 51.6 67.95 49.75 64.7 49.6 62.7 49.6 60.65 50.1
L 60.45 49.95
Q 56.95 47.85 51.8 49.5 48.05 50.65 43.85 53.55 39.75 56.4 36.15 60.6 34.65 60.25 33.4 61 31 62.35 28.8 65.35 27.85 66.75 25.45 70.85 22 76.5 19.95 82.9 18.45 87.95 18.3 94.1 18.15 100.25 19.45 102.65 20.5 104.7 20.75 107.6 21 110.8 21.35 111.75 23.75 118.6 24.4 120.2 26.35 125 28.5 128.15
L 29.85 129.8
Q 30.9 131.55 32.55 133.75 35.5 137.7 39.7 140.3
L 40.1 140.95
Q 44.6 148.1 54.5 149.2 62.3 150.05 71.6 147.2 82.05 144.05 87.55 137.3 91.85 133.6 92.55 128.05
L 92.65 127.9
Q 94.05 124.8 93.7 120.65 93.55 117.1 92.2 113.4 90.95 109.7 89.95 107.65 88.4 104.3 86.5 102.35 86.7 101.25 86.65 99.7 86.15 94.65 86.55 89.95
L 87 86.75
Q 87.65 85.9 88 85.05 89 82.6 89.15 82.25
L 89.6 80.65
Q 91.5 80.7 92.65 79.2 93.95 77.55 93.5 75 92.65 69.6 90.25 65.05 Z"/>
</g>

<g id="Parts_Heads_headColorMC2_47_Layer3_0_FILL">
<path fill="#FF050C" stroke="none" d="
M 92.7 82.75
Q 92.35 82.55 92.1 82.75 90.3 84.95 89.45 87.4 87.75 89.85 87.35 92.95 86.6 97.8 88.55 102.25 88.75 104 89.2 106.1
L 89.6 107.6
Q 90.1 110.15 92 112.1 92.85 114.55 93.8 116.1 94.35 117.1 94.95 117.8 95.4 118.5 96 118.85
L 97.5 121.9
Q 98.85 124.5 100.65 127.15
L 102.7 130.65
Q 103.1 131.15 103.3 131.75
L 103.4 132.5 103.35 133.15 103.45 133.7
Q 103.6 134.95 104 136.5 104.65 139.5 106.3 142.1
L 106.75 142.7
Q 106.8 143.4 107.05 143.95 107.75 145.3 109.1 145.95 109.6 146.6 110.5 147.15
L 110.75 147.4
Q 111.3 148.8 112.1 148.65 113.95 148.25 114.9 146.8 115.35 145.75 114.95 144.65
L 114.9 144.4 114.9 144.3
Q 115.4 142.25 114.15 140.65 114.9 140.15 114.4 138.3 113.85 136.5 113.05 136.45 113.35 135.8 113.3 134.85 113.15 133.25 111.95 132
L 111.85 132
Q 112.1 130.25 111.05 128.9 111.05 127.75 110.5 126.85 109.95 125.9 109.3 126
L 108.35 126.15 108.25 125.75
Q 108 124.9 107.3 124
L 107.1 123.65
Q 106.7 122.8 105.75 122.6
L 105.65 122.3
Q 105.2 119.85 104 119.8 103.9 119.35 103.65 119
L 103.25 118
Q 102.3 116.15 101.6 117
L 101.55 117.05
Q 100.85 115.25 100.1 114.1 99.35 112.9 98.25 110.65 97.35 108.7 96.65 106.8 96.2 105.15 95.15 103.1
L 94.85 102.8
Q 94.85 102.7 94 99.05
L 93.8 98.25
Q 93.3 94.6 93.3 93.6 93.3 93.4 93.25 93.35
L 93.6 91.85
Q 93.9 90.25 93.1 88.9
L 92.85 88.5 93.05 88.3
Q 93.3 87.9 93.25 87.4 93.9 86.65 94.05 85.9
L 94.2 85.55
Q 94.3 84.3 93.6 83.25 93.1 82.6 92.7 82.75 Z"/>
</g>

<g id="Parts_Heads_headsMC_47_Layer11_0_FILL">
<path fill="#FF050C" stroke="none" d="
M 92.8 82.9
Q 92.45 82.7 92.2 82.9 90.4 85.1 89.55 87.55 87.85 90 87.45 93.1 86.7 97.95 88.65 102.4 88.85 104.15 89.3 106.25
L 89.7 107.75
Q 90.2 110.3 92.1 112.25 92.95 114.7 93.9 116.25 94.45 117.25 95.05 117.95 95.5 118.65 96.1 119
L 97.6 122.05
Q 98.95 124.65 100.75 127.3
L 102.8 130.8
Q 103.2 131.3 103.4 131.9
L 103.5 132.65 103.45 133.3 103.55 133.85
Q 103.7 135.1 104.1 136.65 104.75 139.65 106.4 142.25
L 106.85 142.85
Q 106.9 143.55 107.15 144.1 107.85 145.45 109.2 146.1 109.7 146.75 110.6 147.3
L 110.85 147.55
Q 111.4 148.95 112.2 148.8 114.05 148.4 115 146.95 115.45 145.9 115.05 144.8
L 115 144.55 115 144.45
Q 115.5 142.4 114.25 140.8 115 140.3 114.5 138.45 113.95 136.65 113.15 136.6 113.45 135.95 113.4 135 113.25 133.4 112.05 132.15
L 111.95 132.15
Q 112.2 130.4 111.15 129.05 111.15 127.9 110.6 127 110.05 126.05 109.4 126.15
L 108.45 126.3 108.35 125.9
Q 108.1 125.05 107.4 124.15
L 107.2 123.8
Q 106.8 122.95 105.85 122.75
L 105.75 122.45
Q 105.3 120 104.1 119.95 104 119.5 103.75 119.15
L 103.35 118.15
Q 102.4 116.3 101.7 117.15
L 101.65 117.2
Q 100.95 115.4 100.2 114.25 99.45 113.05 98.35 110.8 97.45 108.85 96.75 106.95 96.3 105.3 95.25 103.25
L 94.95 102.95
Q 94.95 102.85 94.1 99.2
L 93.9 98.4
Q 93.4 94.75 93.4 93.75 93.4 93.55 93.35 93.5
L 93.7 92
Q 94 90.4 93.2 89.05
L 92.95 88.65 93.15 88.45
Q 93.4 88.05 93.35 87.55 94 86.8 94.15 86.05
L 94.3 85.7
Q 94.4 84.45 93.7 83.4 93.2 82.75 92.8 82.9 Z"/>
</g>

<g id="Parts_Sets_Turkey_turkeyHead_0_Layer2_0_FILL">
<path fill="#FFB435" stroke="none" d="
M 87.85 44.8
Q 85.35 42.7 83.75 42.85 81.95 43 80.25 45.9 78.4 49.2 77.55 52.9 77.15 54.85 76.9 57.25 76.9 57.55 76.7 59.05 76.55 60.25 76.85 59.8 76.4 60.55 76.3 62.7 76.2 64.8 76.55 66.55 76.25 68.65 76.5 70.15 76.9 72.2 78.25 72.25 80.8 72.4 85.95 71.85 91.05 71.3 93.65 71.4 101.65 71.9 109.2 74.8 111.05 75.5 111.3 72.2 111.5 69.3 110.8 67.9 108.2 62.8 106.5 59.95 103.9 55.75 101.1 52.7 99.35 50.8 98.2 49.8 96.45 48.35 94.7 47.65 92.25 46.85 91.1 46.5 89.15 45.85 87.85 44.8 Z"/>
</g>

<g id="Parts_Sets_Turkey_turkeyHead_0_Layer1_0_MEMBER_0_FILL">
<path fill="#000000" stroke="none" d="
M 89 51.75
Q 89.1 51.6 89 50.85 88.8 50.15 87.3 49.65 86 49.2 84.9 49.25 81.75 49.45 88.4 51.85 88.95 51.75 89 51.75 Z"/>
</g>

<g id="Parts_Sets_Turkey_turkeyHead_0_Layer1_0_MEMBER_1_FILL">
<path fill="#000000" stroke="none" d="
M 61.3 41.1
Q 62.8 38.2 61.9 34.85 61.65 31.75 58.8 30.25 56.15 28.85 53 29.6 49.7 30.4 48.2 33.2 46.5 36.45 48.1 41.3 49.4 44.45 52.15 45.4 54.65 46.2 57.3 44.95 59.95 43.7 61.3 41.1 Z"/>
</g>

<g id="Parts_Sets_Turkey_turkeyHead_0_Layer1_0_MEMBER_2_FILL">
<path fill="#00001F" stroke="none" d="
M 84.1 41.15
L 81.2 39.65
Q 81.8 28.65 78.75 20.15 75.85 12.25 70.2 7.5 63 1.15 51.8 0.6 41.6 0.15 30.55 4.5 19.8 8.8 11.85 16.15 3.55 23.9 1.15 32.5 -2.15 45.25 2.8 68.6 7.95 92.9 16.7 99.9 35.7 105 45.4 104.2 61.7 102.85 70.9 87.9 73.5 92.25 73.65 97.35 73.75 100.55 73.45 109.75 76.5 117.75 80 117.9 83.25 118 85.05 111.95 86.9 105.7 85.75 97.3 84.4 87.55 79.3 79.2 79.45 79.2 79.55 79.3 78.45 77 78.05 74.4
L 78.15 74.4
Q 82.65 71.4 93.5 72.6 99.6 73.3 111 75.6 111.1 75.9 111.4 76 111.75 76.1 111.95 75.75 112.2 75.2 112.25 74.75 112.6 69.05 110.05 63.05 107.75 57.7 103.6 53 99.6 48.8 94.6 45.75 92.05 44.15 89.1 42.9 86.75 41.6 84.1 41.15
M 88.85 46.15
Q 90.45 47 93.55 49 97.9 51.65 102 55.5 105.9 59.15 108.3 63.9 110.45 68.3 110.7 73.45 104.35 68.55 94.95 66 85.4 63.4 77.05 64.45 77.9 53.5 82.85 43.9
L 82.9 43.75
Q 84.5 44.15 85.9 44.65
L 88.85 46.15
M 102.4 71.55
L 102.4 71.6
Q 97.45 69.7 86.6 71.05 77.65 72.15 77.4 70.65
L 77.35 70.65
Q 77.2 70.15 77.1 68.95 76 63.75 87.95 66.7 94.1330078125 68.1958984375 103.1 71.7 102.941015625 71.6748046875 102.4 71.55
M 82.1 92.1
L 82.1 92.15
Q 84 101.7 83.1 107.65 82.35 112.8 80.2 112.9 78.05 113 76.65 108.1 75.05 102.45 75.8 93.45 70 76.25 68.95 67.7 67.15 52.8 78.05 44.95 73.8 57.8 74.8 68.85 75.8 79.65 82.1 92.1
M 75.25 41.2
L 75.25 41.25
Q 68 47.7 66.35 56.6 65.35 61.95 66.4 72.3 67.4 82.25 66.4 86.4 64.75 93.35 57.4 97 49 100.6 36.5 100 22.95 99.3 16.8 93.5 3.15 67.45 2.6 50.1 2.15 34.8 12.1 21.6 28.6 6.55 44.7 5.55 57.95 4.75 68.45 13.2 77.45 20.55 79.75 29.95 82.05 39.4 75.25 41.2 Z"/>
</g>

<g id="Parts_Sets_Turkey_turkeyHead_0_Layer0_0_MEMBER_0_FILL">
<path fill="#FFFFFF" stroke="none" d="
M 58.7 36.8
Q 58.95 35.05 58 33.5 57.45 32.75 56.55 32.5 55.95 32.35 55.5 32.4
L 54.7 32.65
Q 54.45 32.75 54.4 32.9
L 53.75 33.3
Q 53.15 33.65 53.3 35.05 53.25 35.8 53.3 36.6 53.3 37.75 53.9 38.65 54.35 39.35 55.15 39.65 56.7 40.25 58 39.1 58.85 38.1 58.7 36.8 Z"/>
</g>

<g id="Parts_Sets_Turkey_turkeyHead_Assets_Layer_1__Compound_Path__0_Layer0_0_FILL">
<path fill="#000000" fill-opacity="0.24705882352941178" stroke="none" d="
M 82.1 95.6
L 82.05 95.4
Q 81 90.8 79.45 86.8 77.9 82.6 77.2 80.5 75.95 76.85 75.4 74 74.3 67.9 75.05 61.5 76.05 54.35 79.25 48 80 46.3 79.2 44.5 78.85 43.85 78.4 43.85 78 43.9 77.65 44.5
L 76.95 45.95 76.75 46.05
Q 76 46.75 75.45 47.4
L 74.45 49.05
Q 73.45 50.85 72.85 52.95 72.15 55 71.95 57.05
L 71.85 59.45
Q 71.7 60.8 72.05 62.1 72.4 62.9 72.65 62.95 72.45 66.35 72.65 69.7 73.1 76.15 75.35 82.7 75.7 83.7 77.8 88.95 79.3 92.8 80 95.3
L 80.5 97.5
Q 80.45 102.95 79.2 108.45
L 78.6 108
Q 77.55 106.9 77.25 105.4
L 77.1 104.85 76.9 102.45
Q 76.2 95.4 74.55 89.2 74.25 87.95 70.75 77.4 68.35 70.25 68.1 65.35 67.9 62.35 68.5 59.25 68.5 59.05 68.6 58.95 69.7 55.7 71.5 53.2
L 72.5 51.75
Q 72.85 51.3 73.4 49.95 73.5 49.8 73.5 49.4 73.45 49 73.25 49.1 72.7 49.1 72.45 49.2 71.95 49.5 71.75 49.75 71.3 50.1 70.5 51 70.25 51.35 70.2 51.4 68.7 51.9 67.3 56.2
L 66.85 57.85
Q 66.4 59.3 66.05 61.25 65.85 62.35 65.75 64.5 64.65 57.95 66.9 54.15 68.1 52.2 70.8 49.2 73.9 45.85 74.95 44.4 79.6 37.75 79.5 29.7 79.45 14.2 65.6 5.65 52.7 -2.3 37.4 0.75 29.45 2.35 22.65 6.6 15.75 10.85 10.9 17.25 4.45 25.65 2.1 36 1 36.7 0.45 38.4 0 39.75 0 41.25 0 59.35 4.75 76.85 6.95 85.2 9.95 90.2 13.95 96.8 20.4 99.65 26.2 102.25 34.55 102.85 42.05 103.35 49.05 102.15 56.35 100.85 61.05 96.25 65.85 91.5 67.05 84.25 67.8 79.05 67.2 73.75
L 67.3 74.15 67.95 75.7 68.75 78.45
Q 69.55 81 71.25 86 72.65 90.5 73.4 93.7 73.9 95.95 74.3 98.45
L 74.2 99.05
Q 74.35 101.25 74.85 103.05
L 74.95 103.5
Q 75.1 106.6 75.55 109.5 75.9 111.45 76.85 112.85 78.15 114.7 79.9 114.4 81.5 114 82.1 112.35 83.05 111.7 83.55 110.55 84.2 108.9 84.05 106.6 84 105.85 83.5 102.6
L 82.9 98.35
Q 82.75 97.2 82.4 96.25 82.3056640625 95.9205078125 82.1 95.6
M 70.15 29.9
Q 69.9 33.45 65.5 38.35 59.9 44.65 59.1 46.15 56.4 51.4 56.25 58.3 56.2 63 57.45 70.85 58.6 77.55 57.85 80.75 56.7 85.55 51.2 87.45 46.5 89.1 39.5 88.95 33.85 88.85 27.6 87.65 20.9 86.4 17.3 81.6 14.5 77.85 12.6 70.25 10.5 61.95 8.9 51.1
L 9.5 49.75
Q 11.25 42.85 12.1 39.55 13.65 33.65 16.2 29.85 19.25 25.35 23.55 22 27.9 18.65 33 16.85 44.3 12.7 55.85 16 61.45 17.75 65.4 20.85 70.5 24.95 70.15 29.9 Z"/>
</g>

<g id="Parts_Sets_Turkey_turkeyHead_Assets_Layer_1__Path__2_0_Layer0_0_FILL">
<path fill="#FFFFFF" fill-opacity="0.24705882352941178" stroke="none" d="
M 12.9 4.9
Q 12.2 2.9 10.7 1.4 9.2 -0.25 6.85 0.05 5.55 -0.1 4.35 0.35 1.5 1.65 0.6 4.65 -0.6 8.05 0.6 11.7 1.9 15.65 5.3 16.65 8.6 17.65 11.05 14.95 13.2 12.5 13.4 9 13.65 6.9 12.9 4.9 Z"/>
</g>

<g id="Parts_Sets_Turkey_turkeyHead_Assets_Layer_1__Path__1_0_Layer0_0_FILL">
<path fill="#000000" fill-opacity="0.24705882352941178" stroke="none" d="
M 4.05 2.1
Q 4 1.75 3.6 1.45
L 0.7 0
Q 0.4 -0.15 0.2 0.3 0.05 0.6 0.05 0.95 0 1.25 0.1 1.95 0.2 2.35 0.5 2.5
L 2.65 3.8 3.4 4.1
Q 3.75 4.3 3.85 3.95 4.35 3.15 4.05 2.1 Z"/>
</g>

<g id="Parts_Sets_Turkey_turkeyHead_Assets_Layer_1__Path__0_Layer0_0_FILL">
<path fill="#000000" fill-opacity="0.24705882352941178" stroke="none" d="
M 26.35 23.2
Q 26.05 23.1 25.65 23.2 21.95 20.85 17.75 19.15 13.65 17.5 9.3 17.1 7.1 16.9 4.85 17.1 2.55 17.2 0.55 18.4 -0.05 18.9 0 20.3 0.05 21.75 0.85 21.9 1.55 22.05 2.95 21.85 5.05 21.5 5.2 21.5 7.3 21.3 9.4 21.5 13.95 21.9 17.95 23.5
L 18.2 23.65
Q 15.55 23.75 13 24.1 10.15 24.55 6.45 24.65 4.9 24.65 4.1 24.5 2.8 24.3 2.05 23.55 1.9 23.3 1.6 23.3
L 1.5 23.3
Q 0.9 23.5 0.8 24.55 0.55 28.2 4.1 29.3 6.5 30.05 10.5 29.55 11 29.5 14 29.1 16.1 28.8 17.5 28.75 19.25 28.6 20.95 28.75 21.75 28.85 23.3 29.1
L 24.2 29.6
Q 25.55 30.25 26.95 30.45 30.55 31.15 32.2 31.4
L 32.5 31.25 32.6 31.25 32.9 31.15 33.05 31.25
Q 33.5 31.5 33.75 31.05 34.1 31.4 34.5 30.95 35.3 29.6 34.75 28.15 32.65 21.35 30.85 17.4 28.15 11.6 24.5 7.95 20.85 4.35 16.1 2.15 13.75 1.15 11.5 0.55 7.8 -0.45 6.5 0.55 5.8 1.5 6.45 2.4 7.15 3.1 8.55 3.55 9.35 3.8 10.9 4.15 13.5 4.95 15.4 5.85 19.95 8.05 23.5 11.6 26.1 14.25 28.2 18.05 29.75 20.9 31.5 25.3
L 28.95 24
Q 27.8 23.5 26.35 23.2 Z"/>
</g>
</defs>

<g transform="matrix( 1, 0, 0, 1, -62.75,-76.85) ">
<g transform="matrix( 1, 0, 0, 1, 0,0) ">
<use xlink:href="#Parts_Heads_headColorMC_47_Layer1_0_FILL"/>
</g>
</g>

<g transform="matrix( 1, 0, 0, 1, -62.75,-76.85) ">
<g transform="matrix( 1, 0, 0, 1, 0,0) ">
<use xlink:href="#Parts_Heads_headColorMC2_47_Layer3_0_FILL"/>
</g>
</g>

<g transform="matrix( 1, 0, 0, 1, -62.75,-76.85) ">
<g transform="matrix( 1, 0, 0, 1, 0,0) ">
<use xlink:href="#Parts_Heads_headsMC_47_Layer11_0_FILL"/>
</g>

<g transform="matrix( 0.9659271240234375, -0.2587890625, 0.2587890625, 0.9659271240234375, 6,59.5) ">
<g transform="matrix( 1, 0, 0, 1, 0,0) ">
<use xlink:href="#Parts_Sets_Turkey_turkeyHead_0_Layer2_0_FILL"/>
</g>

<g transform="matrix( 1, 0, 0, 1, 0,0) ">
<use xlink:href="#Parts_Sets_Turkey_turkeyHead_0_Layer1_0_MEMBER_0_FILL"/>
</g>

<g transform="matrix( 1, 0, 0, 1, 0,0) ">
<use xlink:href="#Parts_Sets_Turkey_turkeyHead_0_Layer1_0_MEMBER_1_FILL"/>
</g>

<g transform="matrix( 1, 0, 0, 1, 0,0) ">
<use xlink:href="#Parts_Sets_Turkey_turkeyHead_0_Layer1_0_MEMBER_2_FILL"/>
</g>

<g transform="matrix( 1, 0, 0, 1, -0.05,0) ">
<use xlink:href="#Parts_Sets_Turkey_turkeyHead_0_Layer0_0_MEMBER_0_FILL"/>
</g>

<g transform="matrix( 1, 0, 0, 1, 1.1,0) ">
<g transform="matrix( 1, 0, 0, 1, 0,0) ">
<use filter="url(#Filter_1)" xlink:href="#Parts_Sets_Turkey_turkeyHead_Assets_Layer_1__Compound_Path__0_Layer0_0_FILL"/>
</g>
</g>

<g transform="matrix( 1, 0, 0, 1, 24.35,47.8) ">
<g transform="matrix( 1, 0, 0, 1, 0,0) ">
<use filter="url(#Filter_2)" xlink:href="#Parts_Sets_Turkey_turkeyHead_Assets_Layer_1__Path__2_0_Layer0_0_FILL"/>
</g>
</g>

<g transform="matrix( 1, 0, 0, 1, 84.15,49.25) ">
<g transform="matrix( 1, 0, 0, 1, 0,0) ">
<use filter="url(#Filter_1)" xlink:href="#Parts_Sets_Turkey_turkeyHead_Assets_Layer_1__Path__1_0_Layer0_0_FILL"/>
</g>
</g>

<g transform="matrix( 1, 0, 0, 1, 76,43.4) ">
<g transform="matrix( 1, 0, 0, 1, 0,0) ">
<use filter="url(#Filter_1)" xlink:href="#Parts_Sets_Turkey_turkeyHead_Assets_Layer_1__Path__0_Layer0_0_FILL"/>
</g>
</g>
</g>

<g id="hat1" transform="matrix( 0.983917236328125, -0.17529296875, 0.17529296875, 0.983917236328125, 45.2,78.25) ">
<g id="colorMC" transform="matrix( 0.9999847412109375, 0, 0, 0.9999847412109375, 0,0) "/>

<g id="colorMC2" transform="matrix( 1, 0, 0, 1, 0,0) "/>
</g>

<g id="hat2" transform="matrix( 0.9733734130859375, -0.2247314453125, 0.2247314453125, 0.9733734130859375, 38,60.6) ">
<g id="colorMC_FL" transform="matrix( 0.9999847412109375, 0, 0, 0.9999847412109375, 0,0) "/>

<g id="colorMC2_FL" transform="matrix( 1, 0, 0, 1, 0,0) "/>
</g>

<g id="hat3" transform="matrix( 0.96026611328125, -0.2753753662109375, 0.2753753662109375, 0.96026611328125, 26,48.4) ">
<g id="colorMC_FL_FL" transform="matrix( 0.9999847412109375, 0, 0, 0.9999847412109375, 0,0) "/>

<g id="colorMC2_FL_FL" transform="matrix( 1, 0, 0, 1, 0,0) "/>
</g>

<g id="hat4" transform="matrix( 0.944580078125, -0.3252410888671875, 0.3252410888671875, 0.944580078125, 18.85,34.5) ">
<g id="colorMC_FL_FL_FL" transform="matrix( 0.9999847412109375, 0, 0, 0.9999847412109375, 0,0) "/>

<g id="colorMC2_FL_FL_FL" transform="matrix( 1, 0, 0, 1, 0,0) "/>
</g>
</g>
</svg>
