
<svg xmlns="http://www.w3.org/2000/svg" version="1.1" xmlns:xlink="http://www.w3.org/1999/xlink" preserveAspectRatio="none" x="0px" y="0px" width="550px" height="400px" viewBox="0 0 550 400">
<defs>
<g id="Layer0_0_FILL">
<path fill="#FFFFFF" stroke="none" d="
M 2.65 0.9
Q 2.7 0.8 2.6 0.6
L 2.4 0.3 2.3 0.2
Q 2.25 0.15 2 0
L 1.35 0
Q 0.75 0.15 0.15 0.55 -0.05 0.75 0.05 1.05 0.15 1.35 0.35 1.3 0.6 1.15 0.85 1.15 1.15 1.1 1.4 1.15
L 1.65 1.2 1.75 1.2 1.9 1.25
Q 2 1.35 2.15 1.25
L 2.3 1.2 2.5 1.1
Q 2.65 1.1 2.65 0.9 Z"/>
</g>
</defs>

<g transform="matrix( 1, 0, 0, 1, 0,0) ">
<use xlink:href="#Layer0_0_FILL"/>
</g>
</svg>
