
<svg xmlns="http://www.w3.org/2000/svg" version="1.1" xmlns:xlink="http://www.w3.org/1999/xlink" preserveAspectRatio="none" x="0px" y="0px" width="550px" height="400px" viewBox="0 0 550 400">
<defs>
<g id="Layer0_0_FILL">
<path fill="#6C3224" stroke="none" d="
M 0 241.05
L 0.8 240.55 0.3 240.55 0 241.05
M 73.8 0.45
Q 64 14.15 60.55 30.7 56.05 52.6 70.05 70.9 68.75 67.25 71.9 63.3 75.05 59.35 93.05 65.35 98.05 26.75 73.8 0.45
M 256.7 95.5
Q 255.5 74.3 255.95 53.8 256.5 29.55 227.15 34.15 210.1 36.95 199.1 49.05 185.1 64.3 186.2 84.5 187.4 106.2 188.1 127.85 188.25 132.2 180 129 181.15 134 180.15 131 177.6 123.25 172.35 117.7 148.7 129.05 130.55 115.4 106.3 97.3 94.35 69.1
L 93.4 70.75
Q 79.2 63.05 70.05 71 77.15 89.2 69.5 111.8 66.55 120.6 64.8 129.8
L 0.3 240.55 0.8 240.55
Q 18.8 249.1 37.55 255.4 57.35 262.15 77.85 265.25 99.45 268.55 121.05 266.05 141.1 263.35 161.15 258.25 179.8 253.35 198.95 255.8 219.6 258.35 240.5 255.6 260.8 252.9 280 246.3 287.1 243.95 293.9 240.3 283.9 217.8 277 194.25 267.65 162.2 260.45 129.75 257.25 115.5 255 101.2 251.2 101.4 248.1 98.85 230.5 84.45 206.9 93.4 195.4 97.7 187.85 91.25 202.1 86.5 217.2 84.5 239.9 81.1 256.7 95.5 Z"/>

<path fill="#936953" stroke="none" d="
M 93.4 70.75
L 94.35 69.1 94.6 68.1 93.05 65.35
Q 75.05 59.35 71.9 63.3 68.75 67.25 70.05 70.9
L 70 71 70.05 71
Q 79.2 63.05 93.4 70.75
M 217.2 84.5
Q 202.1 86.5 187.85 91.25 195.4 97.7 206.9 93.4 230.5 84.45 248.1 98.85 251.2 101.4 255 101.2
L 256.7 95.5
Q 239.9 81.1 217.2 84.5 Z"/>
</g>

<path id="Layer0_0_1_STROKES" stroke="#0099FF" stroke-width="1" stroke-linejoin="round" stroke-linecap="round" fill="none" d="
M 0.8 240.55
L 0.3 240.55"/>
</defs>

<g transform="matrix( 1, 0, 0, 1, 0,0) ">
<use xlink:href="#Layer0_0_FILL"/>

<use xlink:href="#Layer0_0_1_STROKES"/>
</g>
</svg>
