
<svg xmlns="http://www.w3.org/2000/svg" version="1.1" xmlns:xlink="http://www.w3.org/1999/xlink" preserveAspectRatio="none" x="0px" y="0px" width="550px" height="400px" viewBox="0 0 550 400">
<defs>
<g id="Layer0_0_FILL">
<path fill="#000000" fill-opacity="0.5019607843137255" stroke="none" d="
M 171.5 121.5
Q 171.5 123.95 171 125.25 169.9 128 166.5 128 164 128 161 125.5
L 158.5 123
Q 158.5 122.6 158.8 122.2 146.65 123.55 134.65 116.6 115.9 105.65 104.15 87.3 92.3 68.85 92.95 47 93.55 26.1 81.45 8.9
L 73.75 0 76.9 10
Q 83 31.75 75.6 53.1
L 85.55 62.7 79.6 78.5
Q 90.25 93.2 95.9 110.3 103.15 132.4 105.75 155.6
L 92.7 190.9
Q 79.2 226.85 75.85 264.3 86.85 270 99.05 267.55 144.65 258.65 190.05 256.85 191.3 239.25 180.95 224.75 171.5 211.55 173.35 195.45 176.9 164.2 179.6 132.9 180.4 123.45 173.3 117.6
L 170 119.2
Q 171.5 119.7 171.5 121.5
M 174.75 121.8
L 175 122.1
Q 173.9 121.1 174.75 121.8
M 255.8 65
Q 259.85 36.7 244.7 36 229.5 35.25 229.75 41.45 230.65 62.5 225.9 82.85
L 228.65 87.75
Q 225.5 89.8 223.55 92.75 214.35 106.25 227.6 118.2 221.65 143.6 229 173.5
L 243.05 231.6
Q 249.75 259.8 287.55 242.3
L 293.45 241.3 291.5 232.65
Q 290.2 227.1 288.1 226.3 285.9 214.05 278.9 193.15 254.65 120.95 256 99.05 257.3 77.1 255.8 65
M 288.9 231.15
L 288.85 231.05
Q 288.55 228.35 288.9 231.15 Z"/>
</g>
</defs>

<g transform="matrix( 1, 0, 0, 1, 0,0) ">
<use xlink:href="#Layer0_0_FILL"/>
</g>
</svg>
