
<svg xmlns="http://www.w3.org/2000/svg" version="1.1" xmlns:xlink="http://www.w3.org/1999/xlink" preserveAspectRatio="none" x="0px" y="0px" width="550px" height="400px" viewBox="0 0 550 400">
<defs>
<g id="Parts_Sets_Brew_brewBody_0_Layer0_0_FILL">
<path fill="#000000" stroke="none" d="
M 112.6 4.3
L 114.2 3.25
Q 114.8 2.45 114.75 2.4
L 114.55 1.8 113.1 0.9 111.5 0.3 111.6 0.35 109.6 0
Q 109.55 0 109.5 0
L 109.45 0
Q 106.05 0 101.85 0.5 92.55 3.45 82.4 5.55 70.7 8 62.45 8.25 56.95 8.8 51.5 7.4 49.4 6.8 48.35 6.5 46.55 6 45.15 5.9 43.3 5.75 41.85 6.15 41.7 6.2 41.55 6.25 41.25 6.35 41 6.5 40.65 6.6 40.25 6.8 39 7.35 38.7 7.6 38.25 8 38.2 8.35
L 38.25 8.9
Q 38.3 9.15 38.35 9.35 37.4 9.2 36.35 9.15 32.95 9 30.9 9.2 28.25 9.45 26.2 10.4 23.6 11.5 19.25 13.65 14.45 16 11.3 18.9 8.35 21.7 5.3 26.4 1.95 31.45 0.65 37.5 -0.55 43.55 0.5 49.45 1.65 55.45 5.15 60.5 8.65 65.7 13.75 68.8 15.15 69.6 16.4 70.15 16.45 70.15 16.45 70.2 16.5 70.65 16.05 73.95 15.6 77.25 15.3 78.75 14.9 80.7 13.45 83.8 12.2 86.45 12.25 86.5 12.3 86.7 12.7 86.8 14.1 87.05 15.8 86.65 16.85 86.4 18.7 85.6 20.65 84.75 21.95 84 22.45 90.35 24.15 96.65 28.1 110.6 37.1 121.5 37 121.7 37 121.85 37 121.9 36.95 121.95 36.8 122.4 36.7 123.9 36.7 125.95 36.8 127.1 37.05 129.65 39.85 132.25 40.8 133.15 43.45 135 45.15 136.2 48.4 137.3 51.1 138.2 53.5 138.65 60 139.85 68.4 139.25 76.5 138.7 82.55 137.1 87.45 135.75 91.5 133.7 93.1 133.05 94.7 132.3 96.2 131.75 97.65 130.85 99.1 129.9 100.4 128.5 101.8 126.9 102.2 125.65
L 102.6 123.1
Q 102.75 121.55 102.8 120.75 102.8 120.65 102.8 120.6 102.85 120.25 102.75 119.95 106.75 115.95 109 110.15 109.75 107.8 111.15 104.05 112.3 100.9 112.65 99.65 114.95 91.2 115.2 85.95 115.9 71.4 110.25 55.2 108.5 50.15 104.3 40.35 101.6 34.05 99.4 29.65 99.35 29.55 99.35 29.4 98.95 28.2 98.5 27.15
L 94.75 20.25
Q 94.85 20.25 94.9 20.2 95.95 19.65 97.8 18.25 99.45 16.9 100.65 15.7 101.7 14.55 105.3 9.9 106.55 8.25 107.55 7.4 109.9 5.5 112.6 4.3
M 109.1 3.2
L 107.05 4.95
Q 106.25 5.5 106 5.85 105.65 6.35 105.1 6.85 103.75 8.05 100 12.25 96.85 15.8 94.7 17.35 93.7 18 92.7 18.55
L 88.1 20.5 88.05 20.6 88 20.6
Q 88.05 20.7 87.95 21
L 87.8 21.9 91.3 20.75
Q 92.7 20.4 93.35 20.15
L 93.7 20.5 96.3 26.35
Q 96.45 26.7 96.6 27
L 97.75 29.55
Q 98.2 30.3 98.35 30.4 101 36.25 102.45 39.5 106 47.85 108.1 54.65 113.5 72.05 112.05 86.5 111.4 93.2 109.1 100.9 107.35 106.7 104.05 114.7 101.85 117.9 101.3 118.55 100.65 118.75 99.8 119.1 98.1 119.7 97.2 120.4 96.8 120.65 96.85 120.9 96.8 121.2 97.3 121.4 97.9 121.6 98.7 121.3 99.15 121.15 100 120.75
L 100.5 120.6
Q 100.55 121.55 100.4 122.6 100.35 123.15 100.2 123.7 99.75 125.75 99.1 126.4 96.7 128.8 96.2 129.2 95.9 129.4 95.5 129.6 88.25 132.4 83.3 133.7 78.1 135.05 70.45 135.9 61.7 136.8 55.65 136.1 52.2 135.7 47.45 134.05 43.15 132.5 41.35 131.25 40.9 131 40 129.5 39 127.9 38.9 127 38.6 124.4 38.6 122.3 40.2 123.9 42.1 124.5 42.65 124.6 43 124.55 43.65 124.35 43.55 124.05 43.4 123.7 43.15 123.55 42.85 123.3 42.75 123.2
L 37.65 118.3
Q 30.3 108.8 26.7 97 25.55 93.25 25 90.15 24.8 89 24.6 87.35 24.65 87.3 23.85 79.8
L 23.75 76.8
Q 23.8 73.8 24.1 70.8
L 24.1 70.75 24.15 70.25
Q 24.1916015625 69.87578125 24.2 69.5 24.5990234375 66.6791015625 25.25 63.75
L 26.25 59.6
Q 28.3 51.75 32.2 43.3
L 32.3 43.15
Q 32.25 43.25 32.15 43.45
L 32.2 43.4 34.8 38.8
Q 35.7 36.5 37 34.05 39.2 30.6 43.85 23.4 47.55 17.65 48.1 16.5 48.7 15.45 47.1 14.15 45.1 12.8 44.25 12.05 43.75 11.4 42.55 10.75 41.2 9.7 39.95 9.1 39.85 8.95 39.85 8.85 40.1 8.5 40.5 8.3 40.75 8.2 41.2 8.15 41.7 8.1 42.65 8
L 43.1 8
Q 45.85 8.15 47.7 8.7
L 53.5 9.7
Q 54 9.8 56.75 10.1 58.2 10.2 59.75 10.15
L 73.55 9.2
Q 77.5 8.95 81.9 8 85.85 7.2 92.95 5.15 97.15 3.9 102.15 3 109.25 1.7 109.1 3.2
M 45.75 16.4
L 46 16.9 44 16.55
Q 35.35 16.95 27.65 20.3 23.1 22.05 19.45 25.2 17.65 26.85 16.85 28.35 16.65 28.6 14.6 32.4
L 11.8 37.25
Q 9.85 41.95 10.3 47.3 10.5 50.75 11.85 53.2 13.6 56.4 17.5 59.05 20.05 60.85 23.35 62.25 23.4 62.25 23.45 62.3 22.65 65.4 22.25 68.45 21.5 76.5 21.7 80.9 21.6 81 21.55 81.05 20 82.65 18.5 83.6 16.5 84.7 14.7 85.3 14.65 84.95 16.2 82.25 17.8 79.3 17.95 75.25 17.95 74.15 17.95 73.1 18 70.95 18.1 71 18.7 71.05 19.3 71.25
L 19.35 69.9
Q 16.1638671875 68.555859375 13.45 66.4 13.308984375 66.3083984375 13.15 66.2 10.5984375 64.090625 8.45 61.25 3.4 54.85 2.5 47 1.6 39.15 4.9 31.6 8.05 24.2 14.35 19.35 17.75 16.7 23.3 14 23.85 13.7 24.45 13.5 26.95 12.75 32.25 12.35
L 35.8 12.25
Q 37.5 12.35 39.95 13.05 43.45 13.95 44.5 14.85 44.9 15.2 45.2 15.6 45.7 16.35 45.75 16.4
M 42.7 18.8
L 43.05 18.75
Q 43.9 18.85 44.9 18.85 43.75 20.3 42.85 21.65 40.5 24.4 37.65 29.15 34.95 33.7 33.5 37.35 32.6 38.85 31.1 41.85 26.15 51.6 23.8 60.9 23.3 60.65 22.9 60.35 17.95 57.4 16 55.1 13.75 52.35 12.95 48.65 12.15 45.2 12.8 41.55 13.9 35.2 19.1 28.95 22.6 24.7 26.05 23.2 27.9 22.3 30.2 21.9 30.3 21.85 30.4 21.8 30.45 21.8 30.55 21.75 30.65 21.75 30.8 21.65 30.85 21.6 30.95 21.6 31.05 21.55 31.2 21.5 31.25 21.45 31.3 21.4 31.45 21.4 31.65 21.35 32 21.25 32.35 21.15 32.5 21.1 32.7 21.05 32.75 20.95 32.8 20.9 33 20.9 33.15 20.85 33.35 20.8 33.5 20.75 33.85 20.7 34.15 20.65 34.35 20.55 34.55 20.55 34.65 20.5 34.8 20.45 34.85 20.4 34.95 20.4 35.1 20.4 35.25 20.4
L 35.3 20.35
Q 35.3 20.3 35.3 20.25 35.45 20.25 35.55 20.25 35.7 20.2 35.9 20.15 35.75 20.15 35.6 20.15 39.1 19.3 42.7 18.8
M 52.95 124.9
Q 51.6 124.3 51.15 124.3 51.15 124.9 52.1 125.55 54.85 127.25 60.35 127.95 68.2 129.05 74.75 128.2 82.45 127.2 88.4 123.75 89.65 123.1 89.6 122.3 89.65 121.85 89.3 121.75 89.15 121.65 88.75 121.8 84.95 123.25 83.05 123.85 79.75 125.05 77.25 125.6 75.1 126.1 70.7 126.6 65.4 127.2 61.65 126.95 56.7 126.6 52.95 124.9
M 94.3 8.2
Q 94.45 7.7 94.2 7.55 93.95 7.2 93.35 7.5 88.7 9.75 86 10.95 85.1 10.65 84.45 10.45 82.05 9.75 80.45 9.55 78.45 9.3 75 9.65
L 73.65 9.85
Q 72.45 9.85 70.9 10.2 70.35 10.3 69.95 10.4
L 69.9 10.4
Q 68.9 10.6 67.95 10.85
L 67.85 10.85
Q 62.95 12.05 59.15 14.25 56.1 13.5 53.35 12.15 52.25 11.55 51.7 11.75 51.3 11.75 51.45 12 51.45 12.15 51.6 12.2 53.5 13.4 55.4 14.35 55.65 14.5 56 14.65 56.6 14.95 57.3 15.2 60.2 16.35 63.05 16.85 67.2 17.5 72.9 16.75 74.1 16.55 74.6 16.4 77.8 16 80.9 15.15 83.5 14.4 89.5 11.7 94.05 8.65 94.3 8.2
M 74.8 11.75
Q 78.25 11.3 80.95 11.6 81.8 11.7 83.35 12 77.6 14.15 71.45 14.75 66.35 15.25 61.35 14.7 67.55 12.55 74.8 11.75 Z"/>

<path fill="#000000" fill-opacity="0.24705882352941178" stroke="none" d="
M 46 16.9
L 45.75 16.4
Q 45.7 16.35 45.2 15.6 44.9 15.2 44.5 14.85 43.45 13.95 39.95 13.05 37.5 12.35 35.8 12.25
L 32.25 12.35
Q 26.95 12.75 24.45 13.5 23.85 13.7 23.3 14 17.75 16.7 14.35 19.35 8.05 24.2 4.9 31.6 1.6 39.15 2.5 47 3.4 54.85 8.45 61.25 10.5984375 64.090625 13.15 66.2
L 13.2 66.15 13.45 66.4
Q 16.1638671875 68.555859375 19.35 69.9
L 19.3 71.25
Q 18.7 71.05 18.1 71 18 70.95 17.95 73.1 17.95 74.15 17.95 75.25 17.8 79.3 16.2 82.25 14.65 84.95 14.7 85.3 16.5 84.7 18.5 83.6 20 82.65 21.55 81.05 21.6 81 21.7 80.9 21.5 76.5 22.25 68.45 22.65 65.4 23.45 62.3 23.4 62.25 23.35 62.25 20.05 60.85 17.5 59.05 13.6 56.4 11.85 53.2 10.5 50.75 10.3 47.3 9.85 41.95 11.8 37.25
L 14.6 32.4
Q 16.65 28.6 16.85 28.35 17.65 26.85 19.45 25.2 23.1 22.05 27.65 20.3 35.35 16.95 44 16.55
L 46 16.9
M 16.35 22.3
Q 17.95 21.95 17.5 22.95 17.3 23.4 14.05 26.75 13.05 27.65 11.55 29.9 8.45 34.9 7.2 39.5 5.4 47 8.2 54.2 8.5 54.85 9.55 56.5 9.6 56.55 9.65 56.65 10.8 58.35 10.85 58.4 11.55 59.4 10.65 59.65 10.1 59.8 9.8 59.6 9.3 59.1 8.75 58.55 8.15 57.6 7.1 56.15
L 5.3 52.1
Q 4.55 50.1 4.3 46.8
L 4.1 42.15
Q 4.55 39.5 6.6 33.5 8.35 28.65 10.55 26 11.55 24.8 13.35 23.55 14.75 22.6 16.35 22.3
M 19.2 81.75
Q 18.4 82.75 18.2 81.9 18 81.2 18.2 80.25
L 19.4 74.05
Q 20.35 71.6 20.8 72.7 21.05 73.25 21.15 74.3
L 20.65 76.55 19.2 81.75
M 107.05 4.95
L 109.1 3.2
Q 109.25 1.7 102.15 3 97.15 3.9 92.95 5.15 85.85 7.2 81.9 8 77.5 8.95 73.55 9.2
L 59.75 10.15
Q 58.2 10.2 56.75 10.1 54 9.8 53.5 9.7
L 47.7 8.7
Q 45.85 8.15 43.1 8
L 42.65 8
Q 41.7 8.1 41.2 8.15 40.75 8.2 40.5 8.3 40.1 8.5 39.85 8.85 39.85 8.95 39.95 9.1 41.2 9.7 42.55 10.75 43.75 11.4 44.25 12.05 45.1 12.8 47.1 14.15 48.7 15.45 48.1 16.5 47.55 17.65 43.85 23.4 39.2 30.6 37 34.05 35.7 36.5 34.8 38.8
L 32.2 43.4 32.15 43.45
Q 32.25 43.25 32.3 43.15
L 32.2 43.3
Q 28.3 51.75 26.25 59.6
L 25.25 63.75
Q 24.5990234375 66.6791015625 24.2 69.5 24.1916015625 69.87578125 24.15 70.25
L 24.1 70.75 24.1 70.8
Q 23.8 73.8 23.75 76.8
L 23.85 79.8
Q 24.65 87.3 24.6 87.35 24.8 89 25 90.15 25.55 93.25 26.7 97 30.3 108.8 37.65 118.3
L 42.75 123.2
Q 42.85 123.3 43.15 123.55 43.4 123.7 43.55 124.05 43.65 124.35 43 124.55 42.65 124.6 42.1 124.5 40.2 123.9 38.6 122.3 38.6 124.4 38.9 127 39 127.9 40 129.5 40.9 131 41.35 131.25 43.15 132.5 47.45 134.05 52.2 135.7 55.65 136.1 61.7 136.8 70.45 135.9 78.1 135.05 83.3 133.7 88.25 132.4 95.5 129.6 95.9 129.4 96.2 129.2 96.7 128.8 99.1 126.4 99.75 125.75 100.2 123.7 100.35 123.15 100.4 122.6 100.55 121.55 100.5 120.6
L 100 120.75
Q 99.15 121.15 98.7 121.3 97.9 121.6 97.3 121.4 96.8 121.2 96.85 120.9 96.8 120.65 97.2 120.4 98.1 119.7 99.8 119.1 100.65 118.75 101.3 118.55 101.85 117.9 104.05 114.7 107.35 106.7 109.1 100.9 111.4 93.2 112.05 86.5 113.5 72.05 108.1 54.65 106 47.85 102.45 39.5 101 36.25 98.35 30.4 98.2 30.3 97.75 29.55
L 96.6 27
Q 96.45 26.7 96.3 26.35
L 93.7 20.5 93.35 20.15
Q 92.7 20.4 91.3 20.75
L 87.8 21.9 87.85 23.4 87.95 23.8 88 24.25
Q 88.1 24.8 88.15 25.35 91.15 32.3 93.8 42.5 99.05 62.9 100.25 79.25 101.45 96.3 98.55 111.8 98.5 111.85 98.3 112.75 98.05 113.85 97.65 114.5 96.25 116.8 92.95 119 90.65 120.55 89.65 120.95 84.4 122.9 83.95 123 76.55 125.4 68.85 126.5 68.35 126.5 67.9 126.55 55.5 127.05 46.4 121.25 40.3 117.35 36.05 110.6 32.15 104.3 30.5 96.65 27.9 84.25 31.1 66.8 35.1 44.3 45.25 23.85 45.55 23.2 45.85 22.7
L 48.8 19.45
Q 51.6 16.7 52.65 16.75 52.85 16.1 57.2 17.1 63.3 18.45 63.55 18.5 64.3 18.6 67 18.6 67.35 18.65 67.9 18.65
L 70.1 18.6 72.15 18.3
Q 75.25 18.25 78.4 17.95 78.65 18.05 79.05 17.95 79.2 17.9 79.4 17.85
L 79.45 17.85
Q 79.6 17.85 79.8 17.8 80.65 17.75 81.5 17.6
L 85 17.1 84.05 17.2 83.9 17.25 83.9 17.2 84.05 17.2 84.25 17.15 84.65 17.1 84.85 17.05
Q 85.25 16.9 85.6 16.7 85.7 16.65 85.8 16.6 86 16.5 86.25 16.45 86.45 16.3 86.55 16.25 86.65 16.25 86.8 16.15 86.85 16.15 86.95 16.1 87.1 16.05 87.2 16.05 87.3 15.95 87.45 15.95 87.65 15.9 87.85 15.8 88 15.8 88.2 15.75 88.25 15.75 88.3 15.7 88.4 15.65 88.55 15.6 88.6 15.55 88.75 15.55 88.9 15.45 89 15.45 89.1 15.4 89.25 15.4 89.35 15.3 89.45 15.25 89.6 15.25 89.7 15.2 89.75 15.15 89.8 15.1 89.9 15 89.95 15 90.05 14.95 90.1 14.9 90.1 14.85 90.2 14.8 90.25 14.75 90.35 14.65 90.4 14.65 90.45 14.6 90.5 14.55 90.55 14.5 90.65 14.45 90.7 14.4 90.75 14.35 90.75 14.3 90.85 14.25 90.9 14.2 90.95 14.15 91 14.1 91.1 14.05 91.2 14 91.25 13.95 91.35 13.85 91.4 13.85 91.5 13.8 91.55 13.75 91.55 13.7 91.65 13.65 91.7 13.6 91.8 13.55 91.85 13.45 91.95 13.45 92.05 13.4 92.1 13.35 92.1 13.3 92.15 13.25 92.2 13.2 92.25 13.15 92.35 13.1 92.35 13.05 92.4 13 92.45 12.95 92.55 12.9 92.6 12.85 92.7 12.8 92.75 12.7 92.85 12.7 92.85 12.65 92.9 12.6 92.95 12.55 92.95 12.5 93 12.45 93.05 12.4 93.15 12.35 93.2 12.35 93.25 12.25 93.3 12.2 93.35 12.15 93.4 12.1 93.5 12.05 93.55 12 93.6 11.95 93.7 11.95 93.65 11.9 93.7 11.8 93.75 11.75 93.8 11.7 93.85 11.65 93.9 11.6 94 11.6 94.05 11.55 94.1 11.5 94.15 11.45 94.2 11.4 94.2 11.3 94.25 11.25 94.3 11.2 94.35 11.2 94.4 11.15 94.5 11.1 94.55 11.05 94.6 11 94.7 10.9 94.75 10.85 94.8 10.8 94.85 10.8 94.9 10.75 94.9 10.7 94.95 10.65 95 10.6 95.05 10.55 95.1 10.5 95.15 10.45 95.2 10.4 95.25 10.35 95.3 10.3 95.35 10.25 95.45 10.2 95.45 10.15 95.5 10.1 95.55 10.05 95.65 10 95.7 9.95 95.75 9.9 95.75 9.85 95.85 9.8 95.9 9.75 95.95 9.7 96 9.7 96.05 9.65 96.1 9.6 96.1 9.55 96.2 9.45 96.25 9.4 96.3 9.35 96.35 9.3 96.4 9.3 96.45 9.25 96.5 9.2 96.55 9.15 96.6 9.1 96.7 9 96.7 8.95 96.75 8.9 96.8 8.9 96.85 8.85 96.9 8.8 97 8.75 97.05 8.7 97.1 8.6 97.2 8.55 97.25 8.5 97.3 8.5 97.35 8.45 97.35 8.4 97.4 8.35 97.45 8.3 97.5 8.25 97.55 8.2 97.65 8.15 97.7 8.1 97.75 8.05 97.75 8 97.85 7.95 97.9 7.9 97.95 7.85 98 7.8 98.05 7.75 98.05 7.7 98.1 7.65 98.15 7.6 98.2 7.55 98.25 7.5 98.3 7.45 98.35 7.4 98.4 7.4 98.5 7.35 98.55 7.3 98.55 7.2 98.65 7.15 98.7 7.1 98.75 7.05 98.85 7 98.9 7 98.9 6.95 99 6.9 99.05 6.8 99.1 6.75 99.1 6.7 99.15 6.65 99.2 6.65 99.25 6.6 99.3 6.55 99.4 6.5 99.45 6.45 99.5 6.4 99.55 6.35 99.6 6.3 99.7 6.3 99.7 6.25 99.7 6.2 99.75 6.15 99.75 6.1 99.8 6.05 99.85 6
L 99.9 5.95
Q 99.95 5.9 100 5.8 100.05 5.75 100.1 5.7 100.15 5.65 100.2 5.6
L 100.2 5.55
Q 100.2 5.5 100.2 5.45 100.2 5.4 100.25 5.35 100.3 5.3 100.35 5.25 100.4 5.25 100.45 5.2 100.5 5.1 100.55 5.05 100.65 5.05 100.75 5.05 100.8 5.05 100.85 5.05 100.95 5.05 101.05 5.05 101.15 5.1 101.2 5.15 101.25 5.2 101.3 5.25
L 101.35 5.3
Q 101.35 5.35 101.4 5.4 101.45 5.45 101.45 5.5 101.45 5.55 101.45 5.6
L 101.5 5.65
Q 101.55 5.65 101.6 5.65 101.6 5.7 101.65 5.75 101.65 5.8 101.7 5.85 101.7 5.9 101.75 5.95
L 101.75 6
Q 101.8 6.05 101.8 6.1
L 101.8 6.15
Q 101.8 6.2 101.8 6.25
L 101.8 6.3
Q 101.8 6.35 101.8 6.4 101.8 6.45 101.8 6.5 101.8 6.55 101.75 6.6
L 101.75 6.65
Q 101.7 6.7 101.7 6.75 101.7 6.8 101.65 6.85 101.65 6.9 101.65 7
L 101.6 7.05
Q 101.6 7.1 101.55 7.15 101.55 7.2 101.55 7.25 101.5 7.3 101.45 7.35
L 101.45 7.4
Q 101.4 7.45 101.4 7.5 101.35 7.55 101.35 7.6
L 101.3 7.65
Q 101.25 7.7 101.25 7.75 101.2 7.85 101.15 7.9 101.15 7.95 101.1 8 101.05 8.05 101 8.05 101.05 8.1 101.05 8.15 101 8.2 100.95 8.25 100.95 8.3 100.9 8.35
L 100.85 8.4
Q 100.8 8.45 100.8 8.5 100.75 8.6 100.75 8.65 100.7 8.7 100.65 8.75 100.65 8.8 100.6 8.8 100.55 8.85 100.55 8.9 100.5 8.95 100.45 9 100.45 9.05 100.4 9.1
L 100.4 9.15
Q 100.4 9.2 100.35 9.25 100.3 9.35 100.25 9.4 100.25 9.45 100.2 9.5
L 100.15 9.55
Q 100.15 9.6 100.1 9.65 100.05 9.7 100.05 9.75 100.05 9.8 100 9.85 99.95 9.85 99.95 9.9 99.9 9.95 99.85 10.05 99.8 10.1 99.75 10.15 99.7 10.2 99.65 10.25
L 99.65 10.3
Q 99.6 10.35 99.55 10.4 99.5 10.45 99.45 10.5 99.4 10.55 99.35 10.65
L 99.3 10.7
Q 99.25 10.75 99.2 10.8 99.15 10.85 99.15 10.9 99.1 10.95 99.05 10.95 99 11 98.95 11.05 98.9 11.15 98.85 11.2 98.8 11.25 98.75 11.3 98.7 11.35 98.65 11.35 98.6 11.4 98.65 11.45 98.6 11.5 98.55 11.55 98.5 11.6 98.45 11.65 98.35 11.75 98.3 11.75 98.25 11.8 98.2 11.85 98.15 11.9 98.1 11.95 98.05 12 98.05 12.05 97.95 12.15 97.9 12.15 97.85 12.2 97.8 12.25 97.75 12.3 97.7 12.35 97.65 12.4 97.6 12.45 97.5 12.45 97.45 12.5 97.35 12.6 97.35 12.65 97.3 12.7 97.25 12.75 97.15 12.8 97.1 12.85 97.05 12.85 97 12.9 96.95 13 96.9 13.05 96.85 13.1 96.8 13.15 96.75 13.2 96.75 13.25 96.65 13.25 96.6 13.3 96.55 13.35 96.5 13.45 96.45 13.5 96.35 13.55 96.3 13.6 96.25 13.65 96.2 13.65 96.1 13.7 96.05 13.75 96.05 13.8 95.95 13.85 95.85 13.9
L 95.8 13.95 95.6 14.1 95.45 14.25
Q 95.25 14.25 95.4 14.4
L 95.2 14.55
Q 95 14.55 95.15 14.7
L 94.95 14.85 94.8 15 94.6 15.15 94.45 15.3 94.05 15.6 93.9 15.75 93.75 15.8
Q 93.6 15.8 93.7 15.9 93.5 15.9 93.6 16 93.4 16.1 93.3 16.2 93.1 16.3 92.95 16.4 92.8 16.5 92.7 16.55 92.65 16.55 92.6 16.6 92.5 16.65 92.4 16.7
L 92.4 16.75 92.45 16.8
Q 92.4 16.8 92.35 16.8
L 92.05 16.95 92.05 17 91.95 17 91.5 17.3 91.45 17.35
Q 91.35 17.45 91.3 17.45
L 91.25 17.45 90.95 17.75 90.5 18.05 90.4 18.1
Q 90.1 18.3 89.5 18.5 89.55 18.5 89.5 18.55
L 89.1 18.75 89.15 18.85 89.05 18.85
Q 89.0986328125 18.8513671875 89 18.95
L 88.9 19 88.85 19.1 88.75 19.15 88.7 19.25 88.6 19.4 88.55 19.45
Q 88.6 19.5 88.5 19.6
L 88.35 19.85 88.25 19.95
Q 88.35 19.95 88.25 20.05 88.2 20.1 88.2 20.05
L 87.95 20.7 87.8 21.9 87.95 21
Q 88.05 20.7 88 20.6
L 88.05 20.6 88.1 20.5 92.7 18.55
Q 93.7 18 94.7 17.35 96.85 15.8 100 12.25 103.75 8.05 105.1 6.85 105.65 6.35 106 5.85 106.25 5.5 107.05 4.95
M 94.2 7.55
Q 94.45 7.7 94.3 8.2 94.05 8.65 89.5 11.7 83.5 14.4 80.9 15.15 77.8 16 74.6 16.4 74.1 16.55 72.9 16.75 67.2 17.5 63.05 16.85 60.2 16.35 57.3 15.2 56.6 14.95 56 14.65 55.65 14.5 55.4 14.35 53.5 13.4 51.6 12.2 51.45 12.15 51.45 12 51.3 11.75 51.7 11.75 52.25 11.55 53.35 12.15 56.1 13.5 59.15 14.25 62.95 12.05 67.85 10.85
L 67.95 10.85
Q 68.9 10.6 69.9 10.4
L 69.95 10.4
Q 70.35 10.3 70.9 10.2 72.45 9.85 73.65 9.85
L 75 9.65
Q 78.45 9.3 80.45 9.55 82.05 9.75 84.45 10.45 85.1 10.65 86 10.95 88.7 9.75 93.35 7.5 93.95 7.2 94.2 7.55
M 45.9 10.3
L 46 10.35
Q 45.9 10.30234375 45.85 10.35
L 45.9 10.3
M 51.15 124.3
Q 51.6 124.3 52.95 124.9 56.7 126.6 61.65 126.95 65.4 127.2 70.7 126.6 75.1 126.1 77.25 125.6 79.75 125.05 83.05 123.85 84.95 123.25 88.75 121.8 89.15 121.65 89.3 121.75 89.65 121.85 89.6 122.3 89.65 123.1 88.4 123.75 82.45 127.2 74.75 128.2 68.2 129.05 60.35 127.95 54.85 127.25 52.1 125.55 51.15 124.9 51.15 124.3
M 57.7 134.05
Q 57.6 134.05 57.55 134.05 52.5 133.65 50.2 132.75 48.9 132.25 48.6 132.15
L 47.65 131.85 45.05 130.55
Q 43.45 129.7 42.9 129.3 42.4 128.9 42.3 128.6 42 127.95 42.4 127.35 42.85 126.85 43.55 126.95 46.75 128.65 50.75 129.5 53.9 130.2 58.15 130.35 58.65 130.4 59.4 130.4 64.85 130.55 70.5 129.9
L 73 129.7
Q 78.35 128.75 83.05 127.5 83.55 127.25 84.95 127
L 86.55 126.45
Q 88.25 125.75 91.4 124.35 93.696875 123.365625 95.4 122.95
L 95.65 122.9
Q 95.75 122.85 96.5 122.9
L 96.55 122.9
Q 96.6 122.9 96.75 123
L 96.8 123.05
Q 96.85 123.1 96.9 123.15 96.95 123.25 97 123.3 97 123.4 97.05 123.5 97.05 123.6 97.05 123.65 97 123.75 96.95 123.85 96.9 123.95 96.8 124 96.7546875 124.0453125 96.7 124.1
L 92.65 126.75 86.15 130.1 77.55 132.9
Q 73.35 134.1 69.15 134.5
L 67.65 134.5
Q 67.5 134.45 67.2 134.45 63.65 134.6 57.7 134.05
M 83.3 130.7
L 83.25 130.75 83.35 130.7 83.3 130.7
M 80.95 11.6
Q 78.25 11.3 74.8 11.75 67.55 12.55 61.35 14.7 66.35 15.25 71.45 14.75 77.6 14.15 83.35 12 81.8 11.7 80.95 11.6 Z"/>

<path fill="#FFFFFF" fill-opacity="0.2980392156862745" stroke="none" d="
M 17.5 22.95
Q 17.95 21.95 16.35 22.3 14.75 22.6 13.35 23.55 11.55 24.8 10.55 26 8.35 28.65 6.6 33.5 4.55 39.5 4.1 42.15
L 4.3 46.8
Q 4.55 50.1 5.3 52.1
L 7.1 56.15
Q 8.15 57.6 8.75 58.55 9.3 59.1 9.8 59.6 10.1 59.8 10.65 59.65 11.55 59.4 10.85 58.4 10.8 58.35 9.65 56.65 9.6 56.55 9.55 56.5 8.5 54.85 8.2 54.2 5.4 47 7.2 39.5 8.45 34.9 11.55 29.9 13.05 27.65 14.05 26.75 17.3 23.4 17.5 22.95
M 14.9 24.05
Q 15.15 24.3 14.95 24.65
L 14.55 25.15
Q 12.25 27.15 10.5 30.5 9.25 32.75 7.75 36.75 7.15 38.15 6.95 38.9 6.15 41.25 5.8 43.3 5.6 43.85 5.3 43.8 5.1 43.75 5.1 43.5 4.95 43.05 5.05 42.1
L 6 36.7 8.8 30.15
Q 9.9 28.1 11.2 26.45 12.8 24.65 14.05 24 14.6 23.75 14.9 24.05
M 87.05 27.85
Q 86.95 27.85 86.9 27.9 86.85 27.95 86.8 27.95 86.7 27.95 86.65 28 86.6 28 86.5 28 86.45 28.05 86.4 28.05 86.35 28.1 86.3 28.1 86.2 28.15 86.15 28.15 86.1 28.15 86 28.2 85.9 28.2 85.75 28.25 85.55 28.25 85.4 28.3 85.25 28.35 85.1 28.35 85.05 28.4 84.95 28.4 84.85 28.4 84.75 28.45 84.65 28.5 84.55 28.5 84.5 28.5 84.4 28.55 84.3 28.55 84.2 28.6 84.15 28.65 84.05 28.65 83.95 28.65 83.85 28.65 83.7 28.75 83.6 28.75 83.5 28.75 83.35 28.8 83.3 28.8 83.2 28.85 83.1 28.85 83 28.9 82.95 28.9 82.85 28.9 82.75 29 82.7 29 82.65 29 82.55 29 82.4 29.05 82.25 29.1 82.1 29.1 81.95 29.15 81.8 29.15 81.6 29.2 81.5 29.2 81.4 29.25 81.3 29.25 81.2 29.3 81.05 29.35 80.95 29.35 80.85 29.35 80.7 29.45 80.55 29.45 80.45 29.45 80.25 29.45 80.15 29.55 80 29.55 79.85 29.55 79.8 29.6 79.7 29.65 79.6 29.65 79.5 29.65 79.4 29.7 79.3 29.7 79.25 29.7 79.15 29.8 79.05 29.8 78.95 29.8 78.85 29.8 78.75 29.85 78.6 29.9 78.5 29.9 78.35 29.95 78.25 29.95 78.15 30 78 30 77.85 30.05 77.7 30.05 77.55 30.1 77.35 30.15 77.2 30.15 77.05 30.2 76.85 30.25 76.65 30.25 76.45 30.3 76.2 30.3 76 30.4 75.75 30.4 75.55 30.4 75.3 30.5 75.1 30.5 74.85 30.55 74.15 30.6 73.5 30.75 73.25 30.75 73.05 30.75 72.1 30.9 71.25 31 70.3 31.1 69.35 31.15 69.15 31.15 68.95 31.15 68.2 31.2 67.5 31.25 67.3 31.25 67.1 31.3 66.4 31.3 65.75 31.35 65.55 31.4 65.3 31.35 64.65 31.4 64.05 31.5 63.6 31.5 63.2 31.5 63 31.55 62.8 31.55 62.6 31.5 62.4 31.55 62.2 31.55 62 31.55 61.9 31.55 61.8 31.55 61.7 31.55 61.6 31.5 61.5 31.5 61.4 31.55 61.1 31.5 60.85 31.55 60.65 31.55 60.45 31.6 60.35 31.55 60.25 31.55 60.15 31.55 60.1 31.5 59.95 31.55 59.85 31.55 59.75 31.55 59.65 31.5 59.55 31.5 59.4 31.55 59.25 31.5 59.15 31.5 59 31.5 58.85 31.55 58.8 31.5 58.7 31.5 58.6 31.5 58.5 31.45 58.45 31.45 58.35 31.5 58.1 31.45 57.8 31.5 57.65 31.5 57.45 31.5 57.35 31.45 57.25 31.5 57.2 31.5 57.1 31.45 57 31.45 56.9 31.45 56.85 31.45 56.75 31.45 56.65 31.45 56.5 31.45 56.4 31.4 56.3 31.4 56.15 31.45 56.05 31.45 55.95 31.4 55.9 31.4 55.85 31.4 55.75 31.35 55.7 31.4 55.6 31.4 55.55 31.4 55.45 31.35 55.35 31.35 55.3 31.35 55.25 31.3 55.15 31.35 55.05 31.35 55 31.3 54.9 31.3 54.85 31.3 54.75 31.3 54.65 31.25 54.6 31.3 54.5 31.3 54.45 31.25 54.35 31.25 54.3 31.25 54.25 31.25 54.2 31.2 54.1 31.25 54.05 31.25 54 31.2 53.9 31.2 53.85 31.2 53.8 31.2 53.75 31.15 53.65 31.15 53.6 31.2 53.55 31.15 53.45 31.15 53.4 31.15 53.3 31.15 53.25 31.1 53.2 31.1 53.15 31.1 53.1 31.05 53.05 31.1 53 31.1 52.85 31.05 52.8 31.05 52.7 31.05 52.65 31.05 52.6 31 52.55 31 52.5 31.05 52.4 31 52.35 31 52.3 31 52.2 31 52.15 30.95 52.05 30.95 52 30.95 51.95 30.95 51.9 30.95 51.8 30.95 51.75 30.95 51.7 30.9 51.65 30.9 51.6 30.9 51.55 30.85 51.5 30.85 51.4 30.9 51.35 30.9 51.25 30.85 51.2 30.85 51.1 30.85 51 30.8 50.95 30.8 50.9 30.85 50.85 30.8 50.8 30.8 50.7 30.8 50.65 30.8 50.5 30.75 50.45 30.75 50.4 30.75 50.35 30.75 50.25 30.75 50.2 30.75 50.15 30.75 50.05 30.7 50 30.7 49.95 30.65 49.85 30.7 49.7 30.65 49.6 30.6 49.5 30.6 49.4 30.55 49.35 30.6 49.3 30.55 49.25 30.55 49.2 30.55 49.15 30.5 49.1 30.5 49.05 30.5 49 30.5 48.9 30.45 48.85 30.45 48.75 30.45 48.65 30.45 48.5 30.4 48.35 30.35 48.2 30.35 48.1 30.3 47.95 30.3 47.85 30.25 47.75 30.25 47.6 30.2 47.5 30.15 47.35 30.1 47.25 30.05 47.15 30.05 47.05 30.05 46.95 30 46.85 29.95 46.75 29.9 46.65 29.9 46.55 29.85 46.5 29.85 46.45 29.8 46.45 30.35 47.1 31 40.15 46.15 37.45 61.75 35.75 72 35.5 78.5 35.15 87.45 37.15 94.3 39.35 101.7 40.65 104.8 43.3 111.15 46.8 113.7 50.25 115.9 54.35 117.3 59.7 119.1 65.45 119.15 76.75 119.3 86.95 113.35 93.7 108.95 93.9 108.9 95.2 107.45 95.3 107.2 96.25 105.5 96.3 102.65
L 96.25 91.45
Q 96.25 92 95.95 86.8 95.6 81.9 94.5 72.6 93.2 61.5 91.85 53.7 91.3 48.9 90.35 43.05 89.75 39.25 88.05 30.4 87.95 29.75 87.15 28.6 87.2 28.4 87.6 28 87.9 27.7 87.75 27.55
L 87.05 27.85
M 54.3 33.65
Q 54.2 33.55 54.05 33.45 55.4 33.7 56.8 33.85 56.3 33.85 55.9 33.9 54.65 33.9 54.3 33.65
M 52 36.8
Q 52.25 36.8 52.4 36.9 52.8 37.25 52.65 37.85 52.65 38 52.65 38.1 52.85 38.5 53 39.1 53.4 40.6 53.05 43.65 52.05 54.3 49.25 61.6 48.55 63.3 48.1 63.85 47.3 64.95 46.05 65.05 45.15 65.15 44.35 64.55 43.6 64.1 43.15 63.2 42.55 61.9 42.6 59.7 42.65 58.2 43.05 55.05 43.4 52.55 43.6 51.45 44 49.35 45.45 45.1 46.8 41 47.2 38.8
L 47.5 37.9
Q 47.75 37.55 48.15 37.5 48.5 36.8 49 36.4 49.9 35.65 50.85 35.85 51.45 35.85 51.8 36.3 51.95 36.5 52 36.8
M 95.75 101.55
Q 95.75 101.6 95.8 101.7 95.7 101.9 95.6 102.05 95.55 102.15 95.5 102.2 95.6 101.85 95.75 101.55
M 84.2 23.5
L 84.2 23.45
Q 85.4 22.4 84.85 21.1 84.3 19.85 82.65 19.6 82.35 19.55 78.4 20 74.45 20.5 73.2 20.7 71.35 20.85 69.95 21.15 68.5 21.4 67.15 21.65
L 62.75 21.85
Q 59.75 21.6 54.3 20.2 53.85 20.1 53 20.1 52.6 20.1 51.45 20.35 50.3 20.65 50.15 20.75 48.3 21.9 50.3 23.8 50.35 23.95 50.7 24.2 51.05 24.55 51.3 24.6 51.4 24.65 51.55 24.75 54.5 26.65 59.6 27.5 67.6 28.85 75.75 27.35 78 26.8 79.05 26.4 79.4 26.3 80.5 25.75 81.65 25.2 81.8 25.05
L 81.75 25.05
Q 82.55 24.65 84.2 23.5
M 56.05 131.7
Q 57.8833984375 131.7291015625 59.85 131.6 52.5 131.25 47.7 129.35 47.139453125 129.143359375 46.8 129.2 47.0154296875 129.293359375 47.25 129.4 49.8 130.55 51.6 131.15 53.05 131.6 56.05 131.7
M 57.55 134.05
Q 57.6 134.05 57.7 134.05 63.65 134.6 67.2 134.45 67.5 134.45 67.65 134.5
L 69.15 134.5
Q 73.35 134.1 77.55 132.9
L 86.15 130.1 92.65 126.75 96.7 124.1
Q 96.9 123.891796875 96.9 123.55 96.9 123.4 96.65 123.2
L 96.4 122.95 96.5 122.9
Q 95.75 122.85 95.65 122.9
L 95.4 122.95
Q 93.318359375 123.5232421875 86.65 126.55 86.6 126.55 86.55 126.45
L 84.95 127
Q 83.55 127.25 83.05 127.5 77.3732421875 130.2515625 70.5 131.2 70.5787109375 131.2609375 70.65 131.35 70.75 131.75 70.6 132.05 70.5 132.25 69.35 132.45 68.9 132.4 68.8 132.35 68.5 132.15 68.7 131.9 68.959765625 131.5693359375 69.25 131.35 67.953125 131.4947265625 66.6 131.55
L 66.6 131.6
Q 66.6 131.9 66.35 132.15 66.05 132.3 65.75 132.3
L 63.8 132.65
Q 60.2 133.2 56.1 132.9 51.333203125 132.69453125 48.1 131.3 49.84296875 132.1765625 52.35 132.85 54.95 133.6 57.55 134.05
M 83.25 130.75
L 83.3 130.7 83.35 130.7 83.25 130.75 Z"/>

<path fill="#FFFFFF" stroke="none" d="
M 14.95 24.65
Q 15.15 24.3 14.9 24.05 14.6 23.75 14.05 24 12.8 24.65 11.2 26.45 9.9 28.1 8.8 30.15
L 6 36.7 5.05 42.1
Q 4.95 43.05 5.1 43.5 5.1 43.75 5.3 43.8 5.6 43.85 5.8 43.3 6.15 41.25 6.95 38.9 7.15 38.15 7.75 36.75 9.25 32.75 10.5 30.5 12.25 27.15 14.55 25.15
L 14.95 24.65
M 52.4 36.9
Q 52.25 36.8 52 36.8 51.95 36.5 51.8 36.3 51.45 35.85 50.85 35.85 49.9 35.65 49 36.4 48.5 36.8 48.15 37.5 47.75 37.55 47.5 37.9
L 47.2 38.8
Q 46.8 41 45.45 45.1 44 49.35 43.6 51.45 43.4 52.55 43.05 55.05 42.65 58.2 42.6 59.7 42.55 61.9 43.15 63.2 43.6 64.1 44.35 64.55 45.15 65.15 46.05 65.05 47.3 64.95 48.1 63.85 48.55 63.3 49.25 61.6 52.05 54.3 53.05 43.65 53.4 40.6 53 39.1 52.85 38.5 52.65 38.1 52.65 38 52.65 37.85 52.8 37.25 52.4 36.9
M 70.65 131.35
Q 70.5787109375 131.2609375 70.5 131.2 70.3251953125 131.064453125 70.1 131 70.1 131.05 70 131 69.6041015625 131.10546875 69.25 131.35 68.959765625 131.5693359375 68.7 131.9 68.5 132.15 68.8 132.35 68.9 132.4 69.35 132.45 70.5 132.25 70.6 132.05 70.75 131.75 70.65 131.35
M 59.9 131.6
L 59.85 131.6
Q 57.8833984375 131.7291015625 56.05 131.7 53.05 131.6 51.6 131.15 49.8 130.55 47.25 129.4 47.0154296875 129.293359375 46.8 129.2 45.0447265625 128.4 45 128.4 43.85 128.2 45.15 129.35 45.85 129.95 46.8 130.65 47.4234375 131.00625 48.1 131.3 51.333203125 132.69453125 56.1 132.9 60.2 133.2 63.8 132.65
L 65.75 132.3
Q 66.05 132.3 66.35 132.15 66.6 131.9 66.6 131.6
L 66.6 131.55
Q 66.4296875 131.2 65.8 131.2 65.2 131.15 64.3 131.25 63.25 131.35 62.75 131.35 61.2923828125 131.5142578125 59.9 131.6 Z"/>

<path fill="#000000" fill-opacity="0.2980392156862745" stroke="none" d="
M 88.55 19.05
L 88.55 19.1 88.6 19.1 88.55 19.05
M 88.65 18.95
L 88.65 19 88.7 18.95 88.75 18.85 88.65 18.95 Z"/>
</g>

<g id="MovieClips_Symbol_585_42_Layer0_0_FILL">
<path fill="#CCFFFF" stroke="none" d="
M 81.15 1.8
Q 81.2 1.7 81 1.6 80.85 1.55 81 1.45 81.05 1.4 81.1 1.35 81.1 1.25 81.05 1.25 80.35 0.9 78.95 0.65 78.85 0.65 78.8 0.65 75.05 0.95 73.15 1.15
L 67.7 2.1
Q 65.1 3.05 60.65 4.4 53.5 6.45 49.4 7.3 44 7.4 43.15 7.5 42.75 7.55 35.6 8.45 29.5 9.2 28.25 9.1 22.35 8.85 21.65 8.9 21.6 8.9 21.5 8.9 21.05 8.85 19.5 8.5
L 17.15 8
Q 17.1 8.05 16.75 8 16.45 7.95 16.3 7.9 15.65 7.7 15.4 7.75 15.3 7.8 15.2 7.75 14.95 7.65 14.65 7.6 14.2 7.6 14.05 7.55
L 13.2 7.25 11.6 6.95
Q 10.9 6.7 10.45 6.8 9.55 6.85 8.9 6.8
L 7.8 6.85
Q 6 7.15 5.65 7.2 5.45 7.2 5.2 7.4 4.95 7.6 4.85 7.7
L 4.8 7.75 5.15 9.7
Q 6.4 10.3 7.9 11.4 6.95 11.2 4.7 11.45
L 4.7 11.4
Q 4.25 11.4 1.35 11.05 -1.2 10.65 -1.9 10.7 -2.25 10.75 -5.45 10.75 -7.3 10.75 -8.85 11.25 -11.8 12.35 -12.25 12.6 -17.5 15.15 -21.6 18.3 -28.1 23.3 -31.6 31.5 -35.1 39.75 -34.15 47.8 -33.65 51.95 -32 56 -30.35 60.2 -27.75 63.45 -25.75 66.05 -23.6 67.8 -21.25 69.7 -17.85 71.3
L -18.05 72.4
Q -17.85 72.95 -17.9 74.1 -17.95 75.65 -17.9 76.3 -17.85 76.95 -18.15 78.15 -18.2 80.5 -19.15 82.85
L -21.4 87.15
Q -21.6 88.45 -21.8 88.65 -21.15 88.45 -18.9 87.75 -16.8 87 -15.9 86.55 -15.4 86.2 -13.55 85.2 -11.75 84.15 -11.1 83.45 -11.1 83.55 -11.05 83.75 -10.55 91.75 -8.15 99.7 -4.4 111.95 3.25 121.8 3.25 121.85 3.25 121.95 3.25 122.1 3.3 122.2 3.3 122.25 3.3 122.35
L 3.3 122.35
Q 3.3 122.4625 3.3 122.55 3.3 122.580859375 3.3 122.6 3.330859375 122.6619140625 3.35 122.7 3.35 122.7720703125 3.35 122.85
L 3.35 122.9
Q 3.35 122.95 3.35 123
L 3.35 123
Q 3.5966796875 124.620703125 4.55 129.35 4.6 130.8 4.3 132.1 4.25 132.55 4 132.75
L 4 132.8
Q 4.05 133.1 4 133.25 4.8 133.95 5.6 134.65 5.85 134.65 6.15 134.8 6.55 134.9 7.5 135.45 13.6 139.35 21.95 140.3 28.2 141 37.3 140.1 45.25 139.2 50.65 137.8 55.75 136.45 63.3 133.55 63.7 133.35 64.05 133.15 66.05 131.4 67.05 130.2 67.45 129.7 67.6 129.65 67.8 129.5 68 129.5 68.25 129.3 68.65 129
L 68.85 128.75 72.1 118.3
Q 72.1466796875 118.2064453125 72.2 118.1 75.6 109.8 77.4 103.75 79.8 95.75 80.5 88.8 82 73.8 76.4 55.75 74.2 48.7 70.5 40.05 69 36.65 66.25 30.6 66.1 30.5 65.65 29.7
L 64.15 26.45 63.8 25.9 61.95 20.15
Q 63.1 18.8 66.9 13.65 68.45 11.4 70.7 9.35 71.9 8.3 73.6 6.9 75.6 4.95 76.3 4.55 77.2 3.9 78.75 3.75
L 80.5 2.95
Q 80.7 2.8 81.15 1.8
M 11.15 17.3
Q 11.2 17.35 11.55 17.4 11.8 17.4 11.85 17.5
L 11.85 19.2
Q 11.8 19.2 11.8 19.25 11.75 19.3 11.75 19.35 11.7 19.4 11.7 19.45
L 11.7 19.55
Q 11 20.45 10.85 20.65 10.55 21.15 9.5 23 9.05 23.9 8.05 24.9 7.1 25.85 6.6 26.8 6.55 26.9 6.55 26.95 5.55 29.35 5.35 29.3 5.15 29.55 5 29.8 4.55 30.65 3.4 32.05 2.25 33.45 1.9 34.15 1.3 35.15 0.8 36.7 0.5 37.6 -0.1 39.3 -0.55 40.15 -1.75 41.65 -2.95 43.1 -3.3 43.75 -5.05 47.65 -7.4 54.75 -9.95 62.45 -10.3 64
L -11.15 63.05 -11.8 62.55
Q -14.9 61.25 -17.2 59.65 -19.05 58.45 -20.1 57.25 -21.3 56 -22.3 54.15 -23.55 51.8 -23.8 48.2 -24.45 41.55 -22.3 37.05 -20.45 33.05 -18.15 30 -18.2 29.8 -17.85 29.4 -17.65 29.2 -17.3 28.85 -16.9 28.05 -16 27.15 -15.5 26.7 -14.45 25.7 -10.4 22.25 -6.8 20.85 0.25 17.8 11.15 17.3
M 40.05 137.05
Q 39.9 137.05 39.75 137.15 39.9 137 40.1 136.95 40.05 137 40.05 137.05
M -11.15 62.65
Q -11.15 62.85 -11.15 63.05 -11.05 61.75 -11.15 62.65 Z"/>
</g>

<g id="MovieClips_Symbol_621_42_Layer14_0_FILL">
<path fill="#FF6600" stroke="none" d="
M 45.85 32.8
Q 43 32.3 41.9 32.4 41.6 32.45 39.65 32.45 37.9 32.5 37.1 32.65 35.4 32.85 33 33.25 29.15 33.95 29.05 33.95 27.05 34.3 25.8 34.65 24.55 35.05 23.35 35.25 22.6 35.4 17.1 38.45
L 12.35 42.25 8.2 48.05
Q 5.55 53.3 4.5 54.95 3.55 56.5 3.25 57.2
L 2.95 57.9
Q 2.8 58.6 1.95 60.25 1.1 61.95 0.7 63.5 0.55 64.05 -0.65 70.95
L -0.85 83.15 0.05 92.15
Q 1.5 99.85 5.3 106.1 9.35 112.9 15.45 116.75 21.85 120.9 31.25 121.95 39.45 123 45.25 121.5 48.1 120.65 50.45 119.65 54 118.1 59.3 114.9 64.5 110.4 66.55 104.6 68 100.35 68.95 90.55 69.25 87.4 69.25 81.35 69.2 74.7 69.2 72.15 69.15 67.85 68.55 64.4 67.2 57.15 66.65 55.45
L 65.3 51.45
Q 63.55 46.95 60.3 41.9 58.7 39.5 58.3 39.05 57.95 38.55 56.85 37.6 55.7 36.6 55.25 36.2
L 50.25 33.6
Q 49.8 33.55 45.85 32.8 Z"/>
</g>
</defs>

<g transform="matrix( 1, 0, 0, 1, -33.5,-72.6) ">
<g transform="matrix( 1.0394439697265625, 0, 0, 1.039794921875, -35.9,-1.3) ">
<g transform="matrix( 1, 0, 0, 1, 0,0) ">
<use xlink:href="#Parts_Sets_Brew_brewBody_0_Layer0_0_FILL"/>
</g>
</g>
</g>

<g transform="matrix( 1, 0, 0, 1, -32.9,-71.25) ">
<g transform="matrix( 1, 0, 0, 1, 0,0) ">
<use xlink:href="#MovieClips_Symbol_585_42_Layer0_0_FILL"/>
</g>
</g>

<g transform="matrix( 1, 0, 0, 1, -33.5,-72.6) ">
<g transform="matrix( 1, 0, 0, 1, 0,0) ">
<use xlink:href="#MovieClips_Symbol_621_42_Layer14_0_FILL"/>
</g>
</g>
</svg>
