
<svg xmlns="http://www.w3.org/2000/svg" version="1.1" xmlns:xlink="http://www.w3.org/1999/xlink" preserveAspectRatio="none" x="0px" y="0px" width="550px" height="400px" viewBox="0 0 550 400">
<defs>
<g id="Parts_Heads_headsMC_33_Layer12_0_FILL">
<path fill="#FFFFFF" stroke="none" d="
M 115.6 105.45
Q 117.4 104.15 117.4 102.2 117.4 101.65 116.85 100.45 116 98.8 114.8 98.8
L 112.05 99.7 110.8 100.25
Q 109.4 100.85 109.4 101.05 109.4 102 106.4 104.35
L 96.95 110.6
Q 84.95 117.95 79.25 120.05 80.95 119.85 82.25 120.5 83.75 121.25 84.35 121.25
L 87.9 120.05
Q 93.95 118.4 95.9 119.3 96.65 119.6 103.05 115.55
L 110.85 109.2
Q 111.9 108.2 115.6 105.45
M 70.2 46.35
Q 69.55 46.35 68.2 46.85 66.9 47.4 67.05 47.6 66.1 47.75 60.05 50.9 56.3 52.85 56.75 49.55
L 54.85 49.8 55.85 50.15
Q 53.85 50.45 53.1 51 52.45 51.45 51.7 51.45 49 51.45 43.6 55.55 39.4 58.75 38.8 59.55
L 39.05 59.75
Q 39.3 60.15 39.35 59.9 39.1 61.65 30.4 61.65
L 29.7 62 29.65 64.4 29.75 65.65 31.1 65.65 27.8 68.5
Q 25.8 70.25 24.4 72.2
L 22.1 74.6
Q 21.3 75.3 21.3 76
L 21.6 78.75
Q 21.65 81.5 20.45 81.5 18.9 81.5 17.8 82.15 16.7 82.8 16.7 83.55
L 17.9 86.75 18.6 87
Q 18.55 89 18 89.45 16.75 90.4 16.45 91
L 16 93 16.95 94.2
Q 17.3 94.55 17.85 94.55 18.7 94.55 18.95 93.7
L 19.3 96.15
Q 18.7 96.75 17.8 98.05
L 16.8 99.65
Q 16.8 100.9 17.75 101.55 18.35 102 19.8 102.35
L 20.3 101.65 21.1 105.25 20.05 108.55
Q 20.05 112.95 23.6 115.45 27.4 118.1 34.4 118.1 35.25 118.1 34.55 118.2 34.25 119.6 33.2 120.05
L 29.95 120.4 27.55 120.05
Q 26.05 119.7 25.25 119.35
L 24.6 125.45
Q 24.6 129.1 28.45 132.45 32.6 136.05 33.15 139.15 35.4 151.25 40.4 151.25
L 43.75 151.15
Q 44.55 151.15 45.7 150.45
L 46.75 149.65 49.25 149.75 49.2 150.2
Q 48.05 151.7 44.95 152.55
L 41.85 153.15 41.95 153.4
Q 44.45 153.75 46.35 155.9 48.15 157.9 49.8 157.9
L 50.25 157.55
Q 50.25 157.15 50.65 157.15
L 51.15 157.7
Q 51.85 158.2 53.3 158.2
L 59.75 157.65
Q 59.7 158.3 59.8 158.5 60 158.9 60.6 159.15
L 55.25 160.3 55.85 160.7
Q 56.9 161.35 60.15 162.25 63.8 163.25 65.8 163.25 70.15 163.25 75.95 161.55 77.25 161.2 79.65 158.4
L 80.9 156.95
Q 84.05 158.1 88.15 158.1
L 94.45 157.6
Q 97.5 156.75 100.2 156.45
L 100.55 156.55 100.6 157.35
Q 100.6 158.35 99.5 158.75
L 93.95 160.15
Q 97.5 162.95 102.75 169.7 105.55 173.35 110.35 173.35 117.95 173.35 120.35 169.9
L 121.6 167.55
Q 122.2 166.5 123.2 166.5
L 124.55 166.65 124.55 167.1 124.25 168.15 122.8 170.55
Q 119.8 174.15 113.85 175.35 114.95 175.95 115.2 178.4 115.6 182.75 116.45 185.6 117.7 190 122.25 191.8 125.45 193.05 130.8 193.05
L 134.95 191.8
Q 139.45 190.5 141.55 190.5
L 142.8 190.75 142.95 191 142.95 191.55
Q 142.95 192.45 140.7 193.15 137.55 194.15 129.75 194.9 128.6 197.4 131.55 198.75 133.1 199.5 135.35 200 144.3 205.15 150.55 205.15 153.55 205.15 155.65 203.95 157.75 202.65 160.8 199.05 160.35 198.9 159.55 198.2
L 158.55 197.25
Q 160 196.3 161.65 192.35 163.45 188.05 163.45 184.7 163.45 180.55 158.4 173.75 152.65 166.65 151.15 164.1
L 149.25 168.95 148.15 168.7
Q 147.85 168.45 147.85 167.85 147.85 163.35 149.15 157.35 150.5 151.3 150.5 150.3 150.5 146.8 148.85 143.7
L 143.95 135.5 144.9 142.2
Q 144.9 143 144.15 143.25 143.05 142.8 142.6 142 141.9 140.8 141.9 138.05 142.55 133.1 141.9 128.15 140.6 118.3 134 117.85
L 134.65 118.7 135.25 119.15 135.35 119.8
Q 135.35 120.65 135.1 120.7
L 133.4 120.9
Q 132.2 120.9 131.45 119.1
L 130.25 115.15
Q 128.15 109.4 122.1 109.4
L 118.5 110.25
Q 112.15 111.6 109.8 113.4 99.85 121.9 97.8 122.65 85.85 127.2 80.05 130.1
L 79.9 130.1 77.15 130.55 71.45 122.25
Q 70.4 123.15 68.3 124 66 124.9 64.4 124.9
L 62.4 124.75 61.85 123.6
Q 63.55 122.05 65.95 120.6
L 69.6 118.5
Q 73.15 116.2 73.15 112.35 73.15 108.8 71.7 104.55 69.65 98.75 65.55 94.4
L 64.7 95.6 63.4 96.7 62.85 96.4
Q 62.7 96.15 62.7 95.6 62.7 94.9 63.6 91.65
L 64.55 88.1
Q 64.55 85.85 62.5 78.1 61.8 79.3 60.2 80.5 58.8 81.5 58.25 81.5
L 57.35 80.95
Q 56.85 80.25 56.85 79.1
L 69 69.25
Q 81.1 58.6 81.1 54.25 81.1 52 75.7 48.95
L 70.2 46.35
M 23.3 101.2
L 23 101.85
Q 22.9 101.55 23.1 101.35
L 23.3 101.2
M 83.1 67.5
L 81 69.95 79.75 69.5
Q 78.75 68.95 78.75 68.3 78.75 67.8 79.1 67.55
L 79.55 67.3 79.3 67.2
Q 77.4 66.8 75.35 68.85 73.5 70.8 73.5 72.5 73.5 73.3 74.35 73.5 75.25 73.65 75.25 74.35 75.25 75.7 72.9 79.25
L 69.6 83.7
Q 77.65 78.2 88.45 72.6
L 95.25 69 95.55 68.8 96.65 68.2 96.95 68 97.8 67.55 98.15 67.3 98.2 67.25 98.5 67.05 98.65 66.9 88.5 65.1
Q 85.4 65.1 83.1 67.5 Z"/>
</g>

<g id="Graphics_Symbol_849_0_Layer4_0_FILL">
<path fill="#000000" stroke="none" d="
M 107.3 112.25
Q 106.85 114.4 105.8 116.8
L 106.45 116.25
Q 107.8 113.65 108.75 111.05
L 107.3 112.25
M 23.6 115.45
L 21.7 113.65
Q 23.25 121.65 24.15 122.3
L 24.8 123.15 25.25 119.35 27.2 119.95 26.05 116.75
Q 24.7 116.2 23.6 115.45
M 20.4 106.7
L 20.5 107.1 21.1 105.25 20.3 101.65 19.8 102.35 19.7 102.35 20.4 106.7
M 69.6 118.5
L 65.95 120.6 64.8 121.35
Q 67.45 120.75 69.6 118.5
M 62.75 95.3
L 62.7 95.6 62.7 95.7 62.75 95.3
M 55.85 50.15
L 55.25 49.95 51.45 51.45 51.7 51.45
Q 52.45 51.45 53.1 51 53.85 50.45 55.85 50.15
M 21.6 78.75
L 21.3 76.1 17.85 80 20.25 80.7 20.1 81.5 20.45 81.5
Q 21.65 81.5 21.6 78.75
M 18.8 96.75
L 19.3 96.15 18.95 93.7 18.45 94.4 18.8 96.75
M 30.75 66
Q 28.75 66 24.75 71.45
L 23.15 73.65 24.4 72.2
Q 25.8 70.25 27.8 68.5
L 30.75 66
M 39.35 59.9
Q 39.3 60.15 39.05 59.75
L 38.8 59.55
Q 39.3 58.9 42.15 56.7
L 42.1 56.7 35.75 61.4
Q 39.2 61 39.35 59.9
M 67.05 47.6
Q 67 47.55 67.1 47.45 61.6 47.75 56.05 49.65
L 56.75 49.55
Q 56.3 52.85 60.05 50.9 66.1 47.75 67.05 47.6
M 97.05 80.15
Q 94.05 80.15 90.75 81.75 87.25 83.45 86.6 85.6 86.35 88 88.15 88.15
L 90.15 87.85
Q 93.65 87.85 99.2 82.55 98.25 80.15 97.05 80.15
M 97.8 67.55
L 96.95 68 99.3 71.6 97.8 67.55
M 96.65 68.2
Q 96 68.55 95.25 69 96.5 71.75 96.95 74.8 98.35 82.15 104.15 85.95 108.5 88.75 113.55 88.75 114.15 88.75 114.25 88.4 114.4 87.85 114.7 87.6 116.55 88.85 116.85 90.95 116.85 92.35 115.2 93.65
L 111.6 96.1
Q 106.9 99.35 106.4 104.35 109.4 102 109.4 101.05 109.4 100.85 110.8 100.25
L 110.8 99.5
Q 111.15 97.65 115.3 95.85 119.2 94.2 119.2 91.05 119.2 87.5 117.65 86.4 116.6 85.65 113.8 85.75
L 108.95 85.55
Q 106.1 84.9 104.2 82.3
L 104.75 83.9 101.2 77.45
Q 98.8 73 96.65 68.2
M 81 55.15
L 84.4 57.2
Q 90.45 61.1 93.65 66.05
L 97.45 66.75 95.55 62.95
Q 91.7 56.35 84.5 53.1 82.35 51.35 79.85 50 76.7 48.3 73.1 47.7
L 75.7 48.95
Q 81.1 52 81.1 54.25
L 81 55.15 Z"/>
</g>

<g id="Graphics_Symbol_849_0_Layer3_0_FILL">
<path fill="#999999" stroke="none" d="
M 163.75 196.85
L 165.75 185.15
Q 165.75 177.8 158.95 168.7 152.1 161.05 152.1 160.6 152.1 160.15 152.45 158.7
L 152.8 156.75
Q 152.8 150.95 151.35 146.35 149.85 141.4 146.25 136.7 144.6 134.5 144.45 132
L 144.35 128.6
Q 142.9 120.75 139.3 117.65 136.75 115.35 132.7 115.35 132.2 115.35 132 114.15 131.7 112.35 130.45 110.75 128.7 108.3 125.4 107.6 122.1 106.85 116.9 107.7
L 118.6 105.55
Q 119.75 103.75 119.75 102.45 119.75 99.85 117.95 98.15 116.35 96.65 114.15 96.65 112.2 96.65 109.5 98.1 107.15 99.45 107.15 99.7 107.15 100.25 107.4 100.55
L 107.95 100.95
Q 105.4 101.9 98.9 105.8
L 85.5 114.05
Q 83.5 115.25 75.95 117.65 69.4 119.7 68.2 121.25 68.5 122.35 70.45 122.95
L 71.45 122.25 72.3 123.4 73.8 123.6 77.15 123 80.75 122.35
Q 80.9 122.35 82.75 123.7
L 82.9 123.85
Q 81.4 125.55 78.5 126.85
L 75.65 128.25 77.15 130.55 79.9 130.1 80.05 130.1
Q 85.85 127.2 97.8 122.65 99.85 121.9 109.8 113.4 112.15 111.6 118.5 110.25
L 120.55 109.7 122.1 109.4
Q 128.15 109.4 130.25 115.15
L 131.45 119.1
Q 132.2 120.9 133.4 120.9
L 135.1 120.7
Q 135.35 120.65 135.35 119.8
L 135.25 119.15 134.65 118.7 134 117.85
Q 140.6 118.3 141.9 128.15 142.55 133.1 141.9 138.05 141.9 140.8 142.6 142 143.05 142.8 144.15 143.25 144.9 143 144.9 142.2
L 144.45 138.65 144 135.85 143.95 135.5 148.85 143.7
Q 150.5 146.8 150.5 150.3 150.5 151.3 149.15 157.35 147.85 163.35 147.85 167.85 147.85 168.45 148.15 168.7
L 149.25 168.95 150.35 166.5 151.15 164.1
Q 152.65 166.65 158.4 173.75 163.45 180.55 163.45 184.7 163.45 188.05 161.65 192.35 160 196.3 158.55 197.25
L 159.55 198.2
Q 160.35 198.9 160.8 199.05 157.75 202.65 155.65 203.95 153.55 205.15 150.55 205.15 144.3 205.15 135.35 200 133.1 199.5 131.55 198.75 128.6 197.4 129.75 194.9 137.55 194.15 140.7 193.15 142.95 192.45 142.95 191.55
L 142.95 191 142.8 190.75 141.55 190.5
Q 139.45 190.5 134.95 191.8
L 130.8 193.05
Q 125.45 193.05 122.25 191.8 117.7 190 116.45 185.6 115.6 182.75 115.2 178.4 114.95 175.95 113.85 175.35 119.8 174.15 122.8 170.55
L 124.25 168.15 124.55 167.1 124.55 166.65 123.2 166.5
Q 122.2 166.5 121.6 167.55
L 120.35 169.9
Q 117.95 173.35 110.35 173.35 105.55 173.35 102.75 169.7 97.5 162.95 93.95 160.15
L 99.5 158.75
Q 100.6 158.35 100.6 157.35
L 100.55 156.55 100.2 156.45
Q 97.5 156.75 94.45 157.6
L 88.15 158.1
Q 84.05 158.1 80.9 156.95
L 79.65 158.4 79.55 158.55 80.7 159.1
Q 81.6 159.7 85.95 159.6
L 91.55 160.05
Q 91.9 161.05 93.55 163.25 95.8 166.25 98.9 168.85 100.25 169.95 106.55 173.15 111.45 175.7 112.75 178.1 113.9 180.3 114.25 184.55 114.5 188.3 116 190.05 118.15 192.5 119.6 193.25 121.8 194.35 127.3 194.9 127.45 196.5 129.4 198.65 131.25 200.7 133.05 201.55 134.6 202.35 139.2 205.1 144.45 207.6 151.6 207.6 155.7 207.6 159.8 203.8 163.75 200.15 163.75 196.85
M 116.85 100.45
Q 117.4 101.65 117.4 102.2 117.4 104.15 115.6 105.45 111.9 108.2 110.85 109.2
L 103.05 115.55
Q 96.65 119.6 95.9 119.3 93.95 118.4 87.9 120.05
L 86.1 120.7 84.35 121.25
Q 83.75 121.25 82.25 120.5 80.95 119.85 79.25 120.05 84.95 117.95 96.95 110.6 109.4 102.95 109.4 101.05 109.4 100.75 112.05 99.7
L 114.8 98.8
Q 116 98.8 116.85 100.45
M 94.8 120.6
L 94.4 120.55 94.6 120.5
Q 94.8 120.5 94.8 120.6 Z"/>
</g>

<g id="Graphics_Symbol_849_0_Layer2_0_FILL">
<path fill="#999999" stroke="none" d="
M 79.65 158.4
Q 77.25 161.2 75.95 161.55 70.15 163.25 65.8 163.25 63.8 163.25 60.15 162.25 56.9 161.35 55.85 160.7
L 55.25 160.3 60.6 159.15
Q 60 158.9 59.8 158.5 59.7 158.3 59.75 157.65
L 56.2 158.05 53.3 158.2
Q 51.85 158.2 51.15 157.7
L 50.65 157.15
Q 50.25 157.15 50.25 157.55
L 49.8 157.9
Q 48.15 157.9 46.35 155.9 44.45 153.75 41.95 153.4 42.3 157.4 45.65 158.8
L 47.95 159.5
Q 49 159.75 49 160 49 161.65 54.65 163.95
L 57.85 165.55
Q 61.6 167.1 64.4 167.1 71.65 167.1 79.05 162.5 85.4 158.5 85.4 156.45 85.4 156 85.1 156 84.75 156 84.75 155.55
L 85.1 153.6 85.5 151.35
Q 82.7 155.75 81.9 155.75
L 79.65 158.4
M 23 101.85
L 23.3 101.2 23.1 101.35
Q 22.9 101.55 23 101.85
M 27.1 64.35
Q 26.9 65.05 27.25 66.1 27.25 66.8 24.95 68 22.55 69.25 22.55 69.8 22.55 70.65 23.25 71.7 21.1 71.4 19.65 74.45 18.15 77.5 19.45 79.6 17.2 80 15.75 81.1 14.35 82.1 14.35 83.3
L 15.1 84.9 16.65 87.3
Q 15 88.4 14.1 89.8 13.35 90.9 13.35 91.95 13.35 92.35 14.05 93.75 14.95 95.45 16.1 96.35
L 15.05 97.75
Q 14.6 98.35 14.6 98.95 14.6 103 16.4 104.4 17.05 104.9 18.5 105 17.8 107.25 17.8 108.3 17.8 110.2 20.45 114.6
L 23.1 118.9 22.2 124.75
Q 22.2 130.9 26.1 134.65 28.85 137.3 30.75 137.3 30.8 141.1 33.25 146.5 36.65 154.15 41.85 153.15
L 44.95 152.55
Q 48.05 151.7 49.2 150.2
L 49.25 149.75 46.75 149.65 45.7 150.45
Q 44.55 151.15 43.75 151.15
L 40.4 151.25
Q 35.4 151.25 33.15 139.15 32.6 136.05 28.45 132.45 24.6 129.1 24.6 125.45
L 25.25 119.35
Q 26.05 119.7 27.55 120.05
L 29.95 120.4 33.2 120.05
Q 34.25 119.6 34.55 118.2 35.25 118.1 34.4 118.1 27.4 118.1 23.6 115.45 20.05 112.95 20.05 108.55
L 20.45 107.15 21.1 105.25 20.3 101.65 19.8 102.35
Q 18.35 102 17.75 101.55 16.8 100.9 16.8 99.65
L 17.8 98.05
Q 18.7 96.75 19.3 96.15
L 18.95 93.7
Q 18.7 94.55 17.85 94.55 17.3 94.55 16.95 94.2
L 16 93
Q 15.85 92.75 16.1 92.05
L 16.4 91.25 16.45 91
Q 16.75 90.4 18 89.45 18.55 89 18.6 87
L 17.9 86.75 16.7 83.55
Q 16.7 82.8 17.8 82.15 18.9 81.5 20.45 81.5 21.65 81.5 21.6 78.75
L 21.3 76
Q 21.3 75.3 22.1 74.6
L 24.4 72.2
Q 25.8 70.25 27.8 68.5
L 31.1 65.65 29.75 65.65 29.65 64.4 29.7 62
Q 27.35 62.9 27.1 64.35
M 82.2 59.6
Q 83.5 58 83.5 55.45
L 83.15 53.05
Q 82.7 51.45 82.1 50.6 80.55 48.45 76.45 46.65 71.9 44.9 70.3 44 62.85 46.2 55.85 47.75 49.95 49.05 48.7 49.5 46.25 50.35 43.95 52.5
L 36.8 59.8 36.85 59.9
Q 32.15 61 30.4 61.65 39.1 61.65 39.35 59.9 39.3 60.15 39.05 59.75
L 38.8 59.55
Q 39.4 58.75 43.6 55.55 49 51.45 51.7 51.45 52.45 51.45 53.1 51 53.85 50.45 55.85 50.15
L 54.85 49.8 56.75 49.55
Q 56.3 52.85 60.05 50.9 66.1 47.75 67.05 47.6 66.9 47.4 68.2 46.85 69.55 46.35 70.2 46.35
L 75.7 48.95
Q 81.1 52 81.1 54.25 81.1 58.6 69 69.25
L 56.85 79.1
Q 56.85 80.25 57.35 80.95
L 58.25 81.5
Q 58.8 81.5 60.2 80.5 61.8 79.3 62.5 78.1 64.55 85.85 64.55 88.1
L 63.6 91.65
Q 62.7 94.9 62.7 95.6 62.7 96.15 62.85 96.4
L 63.4 96.7 64.7 95.6 65.55 94.4
Q 69.65 98.75 71.7 104.55 73.15 108.8 73.15 112.35 73.15 116.2 69.6 118.5
L 65.95 120.6
Q 63.55 122.05 61.85 123.6
L 62.4 124.75 64.4 124.9
Q 66 124.9 68.3 124 70.4 123.15 71.45 122.25
L 73.75 125.45 77.15 130.55 79.9 130.1 76.75 125.05
Q 74.4 121.65 72.9 120.55 74.6 117.95 75.2 114.85
L 75.5 112.1
Q 75.5 109.25 71 100.7
L 66.4 92.1 66.7 90.05 67.1 85.65
Q 68.15 87.35 70.25 87.35 73.45 87.35 78.45 83.5
L 87.65 76.25
Q 88.3 75.9 96.15 72.9 103.2 69.5 100.6 66.85 101.8 66.7 102.2 66.3 101.7 64.15 95.05 62.8
L 88.15 61.85
Q 86.5 61.85 85.15 63.25 83.85 64.65 81.95 64.65
L 77.1 64.5 82.2 59.6
M 83.1 67.5
Q 85.4 65.1 88.5 65.1
L 93.1 65.95 98.65 66.9
Q 97.8 67.7 88.45 72.6 77.65 78.2 69.6 83.7
L 72.9 79.25
Q 75.25 75.7 75.25 74.35 75.25 73.65 74.35 73.5 73.5 73.3 73.5 72.5 73.5 70.8 75.35 68.85 77.4 66.8 79.3 67.2
L 79.55 67.3 79.1 67.55
Q 78.75 67.8 78.75 68.3 78.75 68.95 79.75 69.5
L 81 69.95 83.1 67.5
M 69.1 70.85
L 74.15 66.5
Q 71.2 69.75 69 75.25
L 66.85 81.25 66.65 79.9 65.3 74.9
Q 65.3 74.35 69.1 70.85 Z"/>
</g>

<g id="Graphics_Symbol_849_0_Layer1_0_FILL">
<path fill="#000000" fill-opacity="0.14901960784313725" stroke="none" d="
M 100.05 70.45
L 100.85 69.5
Q 100.85 67.7 96.55 64.4 91.05 60.15 89.45 58.05 86.2 53.7 79.85 49.3 72.75 44.35 68.55 44.35 58.55 44.35 49 49.25 40.55 53.6 31.9 62.1 23.2 70.75 19.55 78 15.3 86.7 15.3 98.45 15.3 104.35 19.4 116.55 24.7 132.5 33.85 146.3 42.2 158.85 48.85 163.65 55.3 168.3 64.2 168.3 65 168.3 71.65 165.05 78.3 161.8 81.35 161.8 83.45 161.8 84.55 161.25 85.65 160.7 87 160.7 92.3 160.7 98.7 166.7
L 103.35 171.35
Q 105.75 173.85 107 174.55 112.85 177.95 115.25 182.6 116.65 185.25 117.4 190.05 118.05 194.05 119.3 195.2 121.25 196.95 126.8 196.25 127.4 201.55 134.25 204.5 140 206.95 147.4 206.95 155.75 206.95 161.1 201.25 166.75 195.2 166.75 185.15 166.75 177.15 153.15 164.95 150.9 162.95 151.45 160 152.65 153.7 152.65 151.9 152.65 147.55 148.7 141.15 144.7 134.8 144.7 130.15 144.7 128.05 143.8 126.1
L 140.85 120.95
Q 140.25 120 136.45 117.8 132.5 115.5 131.75 114.45 129.95 112 126.35 109.85 120.9 106.5 116 107.85
L 116 108 115.95 107.3
Q 115.95 106.4 116.65 104.05
L 117.9 99.95
Q 117.7 98.6 114.4 98.35 115.65 97.75 117.35 93.7 118.9 90.05 118.9 88.9 118.9 88.3 117.4 86.65 115.4 84.5 113 84.5
L 111.05 85.05 109.1 85.55
Q 103.35 85.55 100.8 79.5 99.2 75.8 99.2 71.85 99.2 71.4 100.05 70.45
M 92.45 71.4
Q 88.05 72.4 85.95 73.25 82.1 74.75 82.1 78.5
L 76.8 80.55 75.35 80.1 76.7 77.5 77.4 76
Q 77.4 75.15 77 74.95
L 76.1 74.55
Q 81.2 70.85 83.65 69.5 81.05 65.55 75.4 69.4 73.4 70.75 71.7 72.7 70.15 74.35 70.15 74.95
L 70.2 75.7
Q 70.5 75.8 70.4 76
L 70.4 76.05 70.9 76.1
Q 73.7 76.1 75.65 74.85
L 74.55 76.9 73.4 79.1
Q 72.2 80.1 69.4 81.6 67.1 82.75 67.1 83.15
L 67.25 84.35 69.95 85.45
Q 70.85 85.75 72.8 84.85
L 74.35 86.35
Q 75.75 86.35 80.6 83.85 86.75 80.7 92.55 79.05 93.4 84.35 95.45 86.55 98.05 89.3 103.9 89.3
L 106.6 88.85 109.65 88.4
Q 110.2 88.4 110.2 88.7
L 110.25 89.15
Q 111.8 89.45 111.8 88.6
L 111.6 87.7 110.95 87.2 111.85 87.05 113.3 86.8
Q 114.6 86.8 116.3 89.5 116.3 94.25 112.65 96.15
L 110.1 97.45
Q 108.95 98.25 108.95 99.65 108.95 100.4 109.65 101.05
L 111.2 102.55
Q 109.2 104.45 107.55 107.85 106.7 109.55 103.5 110.05 102 110.25 96.4 114.35 89.95 119.05 89.95 121.8
L 90.15 122.35 91.35 122.9
Q 89.05 125.2 86.45 126.6 84.6 127.55 84.6 128
L 85.1 128.65
Q 85.65 129.2 86 129.2 116.55 114.9 116.85 114.9 125 114.9 126.25 115.1 127.05 115.2 129.95 116.8 130.1 121.35 131.05 124.3 131.8 126.65 132.55 126.65
L 133.45 126.35
Q 134.45 125.85 135.15 124.85
L 137.25 126.75 139.7 128.6
Q 139.45 128.8 139.05 130.6
L 140 134.45 138.6 145.1
Q 138.6 145.75 140.8 148.65 143 151.55 143.45 151.55
L 143.45 151 143.6 148.25 143.9 147.15
Q 144.25 148.65 146.35 152.4
L 148.45 155.8
Q 148.45 156.7 146.55 157.75 144.65 158.8 144.65 161.5 144.65 166.85 146.8 170.55 147.9 172.4 149.1 173.15 149.7 173.15 150.75 172.2 151.75 174.4 156.5 182.55 159.3 187.45 159.3 190.65 159.3 195.45 154.85 198.6 151 201.35 146.6 201.35 145.75 201.35 144.15 200.75 142.3 200.1 141.45 199.25
L 140.95 198.5 142 198.8
Q 142.5 198.6 142.5 197.85 142.5 197.35 140.8 195.4
L 138.35 192.75 140.2 192.7
Q 140.7 192.7 140.7 192.15
L 143.4 190.75
Q 146.1 189.45 146.1 189.1 146.1 187.45 137.55 187.1
L 128.25 187.05
Q 125.15 187.05 122.45 182.75 119.85 178.65 119.85 174.2
L 125.95 166.45 125.9 165.95 125.85 166
Q 124.3 165.5 123.75 165.5
L 121.7 165.4 110.5 168.4
Q 109.75 168.1 106.15 164.8
L 101.05 159.9 106.3 158.75
Q 107.25 158.5 107.45 156.55
L 107.35 156.05
Q 103.2 154.65 99.8 154.4 96.05 154.05 87.75 154.6
L 89.2 152 89.8 150.4
Q 89.8 147.65 88.85 147.65
L 85.85 150.25
Q 82.5 153.45 79.35 155.15 78.4 155.75 73.3 157.35
L 68.55 158.85
Q 68.55 159.35 67 159.15
L 65.55 158.95
Q 65.75 158.85 65.75 158.15 65.75 157.7 64.65 156.7 63.35 155.5 62.2 155.5
L 57.3 156.3 52.3 157
Q 51.7 157 51.2 156.45 50.8 155.95 50.8 155.25 50.8 154.9 50.2 154.55 49 153.85 48.15 153.15 53.55 151 54.75 150.1 55.5 149.6 55.5 148.45
L 55.5 147.95 55.45 148
Q 55.3 147.6 54.2 147.6
L 51.05 148.25 47.85 148.85
Q 41.45 148.85 37.1 142.15 32.95 135.85 31.65 125.1
L 34 125.15 37.1 124.55
Q 39.45 123.85 41.55 123.85
L 42.3 123.7 42.55 123.35 42.7 122.55
Q 37.65 121.05 36.6 119.35
L 36.5 117.7 32.7 113.9
Q 28.55 109.75 27.45 105.85 27.2 104.8 26.9 101.2 26.45 96.4 26.45 91.55 26.45 78.8 44.4 64.7 51.65 59.05 59.25 55.35 66.75 51.75 71.25 51.75 71.5 51.75 73.35 54.1 75.4 56.65 75.4 57.8 75.4 59.05 72 62.15
L 64.65 68.45
Q 53.85 77.6 53.85 81.3 53.85 83 56.1 83 57.55 83 58.05 82.25
L 59.05 80.7 59.65 80
Q 59.65 82.15 60.3 84.9
L 60.9 87.9
Q 60.9 92.95 57.2 98.65 53.4 104.4 53.4 105
L 53.6 106.1 54.8 106.15 57.1 104 60.4 100.65 63.45 97.05 65.8 105.95
Q 67.45 112.9 67.45 116.65
L 61.6 121.5 52.05 129.05 52.2 129.95
Q 52.3 130.2 52.85 130.2 56.2 130.2 60.1 127.7 62.75 126.05 69.9 120.05 71.15 119 72.1 117.3 73.8 114.15 73.8 109.8 71.75 102.8 69.6 99.4 67.45 96 65.8 94.35 65.4 93.9 65.4 92.55
L 64.95 89.9 64.15 85.25 63.35 79.55 62.9 76.65
Q 62.9 76.35 66.1 72.95
L 69.4 69.65
Q 71.55 69.65 75.05 66.95 78.85 64.05 80.4 60.65
L 80.45 60.4 86.15 65.5 92.45 71.4
M 35.85 145.05
L 35.8 144.95 36.15 144.85 35.85 145.05
M 132.3 118.35
L 132.7 118.35
Q 132.4 119 132.4 119.6 132.2 119.5 132.1 118.9 132.05 118.3 132.3 118.35
M 119.65 170.85
L 119.6 171.2 119.35 171.35 119.1 171.2 119 170.85 119.1 170.5
Q 119.2 170.35 119.35 170.35
L 119.6 170.5 119.65 170.85
M 149.8 163.9
L 151.2 165.55 150.4 165.8
Q 150 165.85 149.95 165.5
L 149.8 163.9
M 96.1 91.5
Q 92.5 91.5 89.95 93.25 87.15 95.15 88.1 96.95
L 102.2 99.7 102.75 99.65
Q 104.5 97.15 102.1 94.3 99.65 91.45 96.1 91.5 Z"/>
</g>

<g id="Graphics_Symbol_849_0_Layer0_0_FILL">
<path fill="#FF0000" fill-opacity="0.25098039215686274" stroke="none" d="
M 116.65 91.05
Q 116.65 89.55 115.4 88.55 114.1 87.5 112.3 87.5 110.5 87.5 109.2 88.55 107.95 89.55 107.95 91.05 107.95 92.55 109.2 93.6 110.5 94.6 112.3 94.6 114.1 94.6 115.4 93.6 116.65 92.55 116.65 91.05
M 100.3 92.7
Q 98.15 91.45 95.25 91.45 88.95 91.45 83.7 95.9 79.7 99.35 79.7 100.65 79.7 103.1 82.05 104.7 84.85 106.65 90.1 106.65 95.35 106.65 99.15 103.4 102.75 100.3 102.75 96.15 102.75 94.05 100.3 92.7 Z"/>
</g>
</defs>

<g transform="matrix( 1, 0, 0, 1, -62.75,-76.85) ">
<g transform="matrix( 1, 0, 0, 1, 0,0) ">
<use xlink:href="#Parts_Heads_headsMC_33_Layer12_0_FILL"/>
</g>

<g transform="matrix( 1, 0, 0, 1, 0,0) ">
<g transform="matrix( 1, 0, 0, 1, 0,0) ">
<use xlink:href="#Graphics_Symbol_849_0_Layer4_0_FILL"/>
</g>

<g transform="matrix( 1, 0, 0, 1, 0,0) ">
<use xlink:href="#Graphics_Symbol_849_0_Layer3_0_FILL"/>
</g>

<g transform="matrix( 1, 0, 0, 1, 0,0) ">
<use xlink:href="#Graphics_Symbol_849_0_Layer2_0_FILL"/>
</g>

<g transform="matrix( 1, 0, 0, 1, 0,0) ">
<use xlink:href="#Graphics_Symbol_849_0_Layer1_0_FILL"/>
</g>

<g transform="matrix( 1, 0, 0, 1, 0,0) ">
<use xlink:href="#Graphics_Symbol_849_0_Layer0_0_FILL"/>
</g>
</g>

<g id="hat1" transform="matrix( 0.983917236328125, -0.17529296875, 0.17529296875, 0.983917236328125, 45.2,78.25) ">
<g id="colorMC" transform="matrix( 0.9999847412109375, 0, 0, 0.9999847412109375, 0,0) "/>

<g id="colorMC2" transform="matrix( 1, 0, 0, 1, 0,0) "/>
</g>

<g id="hat2" transform="matrix( 0.9733734130859375, -0.2247314453125, 0.2247314453125, 0.9733734130859375, 38,60.6) ">
<g id="colorMC_FL" transform="matrix( 0.9999847412109375, 0, 0, 0.9999847412109375, 0,0) "/>

<g id="colorMC2_FL" transform="matrix( 1, 0, 0, 1, 0,0) "/>
</g>

<g id="hat3" transform="matrix( 0.96026611328125, -0.2753753662109375, 0.2753753662109375, 0.96026611328125, 26,48.4) ">
<g id="colorMC_FL_FL" transform="matrix( 0.9999847412109375, 0, 0, 0.9999847412109375, 0,0) "/>

<g id="colorMC2_FL_FL" transform="matrix( 1, 0, 0, 1, 0,0) "/>
</g>

<g id="hat4" transform="matrix( 0.944580078125, -0.3252410888671875, 0.3252410888671875, 0.944580078125, 18.85,34.5) ">
<g id="colorMC_FL_FL_FL" transform="matrix( 0.9999847412109375, 0, 0, 0.9999847412109375, 0,0) "/>

<g id="colorMC2_FL_FL_FL" transform="matrix( 1, 0, 0, 1, 0,0) "/>
</g>
</g>
</svg>
