
<svg xmlns="http://www.w3.org/2000/svg" version="1.1" xmlns:xlink="http://www.w3.org/1999/xlink" preserveAspectRatio="none" x="0px" y="0px" width="550px" height="400px" viewBox="0 0 550 400">
<defs>
<radialGradient id="Gradient_1" gradientUnits="userSpaceOnUse" cx="0" cy="0" r="46.150000000000006" fx="0" fy="0" gradientTransform="matrix( 1, 0, 0, 1, 0,0) " spreadMethod="pad">
<stop  offset="0%" stop-color="#FF00FF"/>

<stop  offset="100%" stop-color="#FF00FF" stop-opacity="0"/>
</radialGradient>

<g id="Layer0_0_FILL">
<path fill="url(#Gradient_1)" stroke="none" d="
M 31.8 -31.85
Q 18.65 -45 0 -45 -18.65 -45 -31.85 -31.85 -45 -18.65 -45 0 -45 18.65 -31.85 31.8 -18.65 45 0 45 18.65 45 31.8 31.8 45 18.65 45 0 45 -18.65 31.8 -31.85 Z"/>
</g>

<path id="Layer0_0_1_STROKES" stroke="#FFFFFF" stroke-width="3" stroke-linejoin="round" stroke-linecap="round" fill="none" d="
M 31.8 -31.85
Q 45 -18.65 45 0 45 18.65 31.8 31.8 18.65 45 0 45 -18.65 45 -31.85 31.8 -45 18.65 -45 0 -45 -18.65 -31.85 -31.85 -18.65 -45 0 -45 18.65 -45 31.8 -31.85 Z"/>
</defs>

<g transform="matrix( 1, 0, 0, 1, 0,0) ">
<use xlink:href="#Layer0_0_FILL"/>

<use xlink:href="#Layer0_0_1_STROKES"/>
</g>
</svg>
