
<svg xmlns="http://www.w3.org/2000/svg" version="1.1" xmlns:xlink="http://www.w3.org/1999/xlink" preserveAspectRatio="none" x="0px" y="0px" width="550px" height="400px" viewBox="0 0 550 400">
<defs>
<g id="Layer0_0_FILL">
<path fill="#FFFF00" stroke="none" d="
M 174.9 15.45
L 166.4 15.4 165.05 54.85 173.2 55.05 173.7 51.15
Q 174.1 52.35 174.8 53.05 175.3 53.75 176.3 54.35
L 178.8 54.8 182.5 54.35
Q 184.65 53.8 186.4 52.35 188.1 50.75 189.3 48.35 190.45 46 191.05 43.15 191.45 40.25 191.2 37.6 190.85 34.8 189.45 32.6 187.9 30.4 185.3 28.85 182.65 27.35 180.05 27.25 177.4 27.25 174.7 28.65
L 174.9 15.45
M 174.9 36.6
Q 176.65 35.6 177.8 35.55 179.05 35.35 180.25 36 181.25 36.45 182 37.55 182.6 38.55 182.6 39.8 182.6 41.25 182.25 42.15
L 181.25 43.85
Q 180.6 44.55 179.8 44.8
L 178 44.95
Q 176.85 44.65 176.3 44.2 175.6 43.75 175 42.75 174.45 41.75 174.45 40.25 174.45 38.6 174.9 36.6 Z"/>
</g>
</defs>

<g transform="matrix( 1, 0, 0, 1, 0,0) ">
<use xlink:href="#Layer0_0_FILL"/>
</g>
</svg>
