
<svg xmlns="http://www.w3.org/2000/svg" version="1.1" xmlns:xlink="http://www.w3.org/1999/xlink" preserveAspectRatio="none" x="0px" y="0px" width="550px" height="400px" viewBox="0 0 550 400">
<defs>
<g id="Layer0_0_FILL">
<path fill="#FFFF00" stroke="none" d="
M 382.95 31.5
Q 381.45 32.95 380.75 34.75 379.85 36.55 379.6 38.35 379.35 40.1 379.35 42.1 379.35 44.1 379.6 45.55 379.85 47.1 380.6 48.7 381.25 50.05 382.35 51.45 383.35 52.55 384.85 53.5 386.2 54.25 388 54.7
L 391.4 55.1 394.55 54.95 397.45 54.1 400.2 52.35 402.55 49.85 404 46.5
Q 404.6 44.55 404.6 42.55 404.65 40.45 404.2 38.15 403.8 36.1 402.95 34.25 402.05 32.35 401 31.45
L 398.55 29.55
Q 397.25 28.75 395.75 28.5
L 392.65 28.05 389.2 28.15
Q 387.35 28.35 385.85 29.15 384.25 30.05 382.95 31.5
M 391.05 36.95
L 392.2 36.95 393.2 37.1 394.15 37.45 395 38.1 395.65 39.05 396.15 40.55 396.25 42.15 396 43.65 395.45 44.75 394.75 45.65 393.8 46.3 392.65 46.65 391.55 46.7 390.4 46.45 389.4 45.95 388.55 45.3 388 44.45 387.65 43.35 387.55 42.15 387.65 40.7
Q 387.75 39.9 388.05 39.25
L 388.85 38.1 389.85 37.35 391.05 36.95 Z"/>
</g>
</defs>

<g transform="matrix( 1, 0, 0, 1, 0,0) ">
<use xlink:href="#Layer0_0_FILL"/>
</g>
</svg>
