
<svg xmlns="http://www.w3.org/2000/svg" version="1.1" xmlns:xlink="http://www.w3.org/1999/xlink" preserveAspectRatio="none" x="0px" y="0px" width="550px" height="400px" viewBox="0 0 550 400">
<defs>
<g id="Layer0_0_FILL">
<path fill="#FFFF00" stroke="none" d="
M 217.35 32.6
Q 215.8 30.4 213.2 28.85 210.55 27.35 207.95 27.25 205.3 27.25 202.6 28.65
L 202.8 15.45 194.2 15.4 192.95 54.85 201.1 55.05 201.6 51.15
Q 202 52.35 202.7 53.05
L 204.2 54.35 206.7 54.8 210.4 54.35
Q 212.55 53.8 214.3 52.35 216 50.75 217.2 48.35 218.5 45.6 218.9 43.15 219.35 40.4 219.1 37.6 218.75 34.8 217.35 32.6
M 205.7 35.55
Q 206.95 35.35 208.15 36 209.3 36.6 209.8 37.55 210.5 38.6 210.5 39.8 210.5 41.25 210.15 42.15
L 209.15 43.85 207.7 44.8 205.9 44.95
Q 204.75 44.65 204.2 44.2 203.5 43.75 202.9 42.75 202.35 41.75 202.35 40.25 202.35 38.6 202.8 36.6 204.55 35.6 205.7 35.55 Z"/>
</g>
</defs>

<g transform="matrix( 1, 0, 0, 1, 0,0) ">
<use xlink:href="#Layer0_0_FILL"/>
</g>
</svg>
