
<svg xmlns="http://www.w3.org/2000/svg" version="1.1" xmlns:xlink="http://www.w3.org/1999/xlink" preserveAspectRatio="none" x="0px" y="0px" width="550px" height="400px" viewBox="0 0 550 400">
<defs>
<g id="Layer0_0_FILL">
<path fill="#FFFF00" stroke="none" d="
M 286.75 25.2
Q 286.2 23.15 285.1 21.6 283.95 20.05 282.4 19.05 280.7 17.95 278.95 17.55
L 274.95 16.85 270.7 16.75 265.95 17.25
Q 263.9 17.65 260.55 18.6
L 259.55 54.45 267.95 55.35 274.4 55.55 279.35 54.95 283.15 53.6
Q 284.7 52.8 285.6 51.2 286.4 49.75 286.7 47.55 286.9 45.35 286.3 43.55 285.6 41.6 284.35 40.35
L 281.55 38.05
Q 280.2 37.25 278.75 37 282.6 36.05 284.7 34.25 286.7 32.45 286.95 29.85 287.15 27.6 286.75 25.2
M 274.35 25.75
L 275.4 26.6 276.15 27.75 276.2 29.05 275.5 30.25 274.3 31.2 272.9 31.65 268.95 31.8 268.95 26.25 270.5 25.55 271.8 25.2 273.1 25.25 274.35 25.75
M 273.3 47.8
L 271.9 47.95 270.5 47.8 268.8 47.4 268.95 41.25 272.35 41.05 273.8 41.4 274.9 42.25 275.6 43.55 275.95 45 275.8 46.4 274.75 47.35 273.3 47.8 Z"/>
</g>
</defs>

<g transform="matrix( 1, 0, 0, 1, 0,0) ">
<use xlink:href="#Layer0_0_FILL"/>
</g>
</svg>
