
<svg xmlns="http://www.w3.org/2000/svg" version="1.1" xmlns:xlink="http://www.w3.org/1999/xlink" preserveAspectRatio="none" x="0px" y="0px" width="550px" height="400px" viewBox="0 0 550 400">
<defs>
<g id="Layer0_0_FILL">
<path fill="#FFFF00" stroke="none" d="
M 134.8 21.6
Q 133.65 20.05 132.1 19.05 130.45 17.95 128.65 17.55
L 124.65 16.85 120.4 16.75 115.65 17.25 110.25 18.6 109.25 54.45 117.65 55.35 124.1 55.55 129.05 54.95
Q 131.4 54.35 132.85 53.6 134.45 52.75 135.4 51.2 136.2 49.75 136.45 47.55 136.65 45.35 136.05 43.55 135.45 41.75 134.05 40.35 132.85 39.05 131.3 38.05 130 37.25 128.45 37 132.3 36.05 134.4 34.25 136.5 32.4 136.7 29.85 136.9 27.15 136.45 25.2 135.9 23.15 134.8 21.6
M 125.85 27.75
L 125.9 29.05 125.2 30.25 124 31.2 122.6 31.65 118.7 31.8 118.7 26.25
Q 119.6 25.65 120.25 25.55
L 121.6 25.2 122.8 25.25 124.05 25.75 125.2 26.6 125.85 27.75
M 123.6 41.4
L 124.6 42.25 125.3 43.55 125.7 45
Q 125.8 45.8 125.5 46.4
L 124.45 47.35 123.05 47.8 121.65 47.95 120.2 47.8 118.5 47.4 118.7 41.25 122.1 41.05 123.6 41.4 Z"/>
</g>
</defs>

<g transform="matrix( 1, 0, 0, 1, 0,0) ">
<use xlink:href="#Layer0_0_FILL"/>
</g>
</svg>
