
<svg xmlns="http://www.w3.org/2000/svg" version="1.1" xmlns:xlink="http://www.w3.org/1999/xlink" preserveAspectRatio="none" x="0px" y="0px" width="550px" height="400px" viewBox="0 0 550 400">
<defs>
<g id="Layer0_0_FILL">
<path fill="#FFFF00" stroke="none" d="
M 302.4 28.05
L 299 28.15
Q 297.2 28.35 295.6 29.15 294 30.05 292.7 31.5 291.3 33.05 290.5 34.75 289.6 36.55 289.35 38.35 289.1 40.1 289.1 42.1 289.1 44.1 289.35 45.55 289.6 47.1 290.35 48.7 291.1 50.15 292.15 51.45 293.2 52.7 294.6 53.5 295.95 54.25 297.75 54.7
L 301.15 55.1 304.3 54.95 307.2 54.1
Q 308.9 53.3 310 52.35 311.3 51.45 312.3 49.85 313.2 48.35 313.75 46.5 314.35 44.55 314.35 42.55
L 314 38.15
Q 313.6 36.1 312.75 34.25 311.9 32.35 310.8 31.45
L 308.3 29.55
Q 307 28.75 305.55 28.5
L 302.4 28.05
M 301.95 36.95
L 303 37.1 303.9 37.45 304.75 38.1 305.4 39.05 305.9 40.55 306 42.15 305.8 43.65 305.3 44.75 304.5 45.65 303.55 46.3 302.5 46.65 301.35 46.7 300.2 46.45 299.15 45.95 298.35 45.3 297.75 44.45 297.4 43.35 297.4 40.7 297.9 39.25 298.6 38.1 299.7 37.35 300.8 36.95 301.95 36.95 Z"/>
</g>
</defs>

<g transform="matrix( 1, 0, 0, 1, 0,0) ">
<use xlink:href="#Layer0_0_FILL"/>
</g>
</svg>
