
<svg xmlns="http://www.w3.org/2000/svg" version="1.1" xmlns:xlink="http://www.w3.org/1999/xlink" preserveAspectRatio="none" x="0px" y="0px" width="550px" height="400px" viewBox="0 0 550 400">
<defs>
<g id="Layer0_0_FILL">
<path fill="#FFFF00" stroke="none" d="
M 374 28.35
Q 372.4 27.45 370.75 27.25 369.35 27.05 367.5 27.2
L 363.8 27.85
Q 361.75 28.4 360.35 29.55 358.95 30.6 357.7 32.65 356.55 34.65 356.1 36.8 355.6 38.8 355.6 41.4 355.7 43.95 356.35 45.85 357 47.85 358.3 49.55 359.5 51.15 361.1 52.4 362.6 53.55 364.4 54.15
L 367.95 55
Q 369.75 55.2 371.6 55 373.35 54.8 375.1 54.05 376.7 53.4 378.3 52.15
L 374.4 44.75
Q 372.75 45.6 371.75 45.85
L 369.7 46.2 368.1 45.75 366.7 44.6
Q 366 43.8 365.75 42.95 365.4 41.95 365.4 40.8 365.4 39.95 365.7 38.75 365.95 37.75 366.5 37.2 367.15 36.45 367.8 36.25
L 369.5 35.95 371.7 36.45 374.5 38 377.8 30.65
Q 375.7 29.05 374 28.35 Z"/>
</g>
</defs>

<g transform="matrix( 1, 0, 0, 1, 0,0) ">
<use xlink:href="#Layer0_0_FILL"/>
</g>
</svg>
