
<svg xmlns="http://www.w3.org/2000/svg" version="1.1" xmlns:xlink="http://www.w3.org/1999/xlink" preserveAspectRatio="none" x="0px" y="0px" width="550px" height="400px" viewBox="0 0 550 400">
<defs>
<g id="Layer0_0_FILL">
<path fill="#562D4B" stroke="none" d="
M 448.15 42.9
Q 447.45 37.9 446.55 35.15 445.6 32.55 444.35 30.4 442.95 28.2 441.25 26.8 439.4 25.3 437 24.55
L 432.15 24.2
Q 430.6 24.4 429.55 24.9 428.35 25.4 427.35 26.3
L 427 26.6 426.05 25.75
Q 424.95 24.9 423.4 24.4
L 420.15 23.9 417.8 24.1
Q 416.75 24.2 415.75 24.7
L 414.8 25.3 413.45 24 406.55 24.15 403 27.75 402.25 27.1
Q 401.2 26.3 399.6 25.5
L 396.65 24.5 392.85 23.95 388.8 24.1
Q 386.8 24.2 385.05 25 383.4 25.6 381.8 26.95
L 380.45 28.2 380.25 27.4
Q 377.6 25.4 375.8 24.6 373.15 23.4 371.2 23.2 368.85 22.95 367.15 23.15
L 362.8 23.9
Q 360.05 24.55 357.8 26.35 355.65 28 354.15 30.7 352.75 33 352.05 35.9 351.4 38.7 351.55 41.55
L 350.8 41.2 348.45 40.95 346.2 41.2
Q 345.25 41.4 344.05 42.1
L 343 42.75 342.05 43.6 341.75 44 340.2 41.8 341.95 39.1 345.15 31.75 342.65 26.6 335.4 23.95 330.85 25.3 328.6 28.15 325.65 24.7 320.8 23.8 314.55 26.9 313.8 28.7 313.6 28.5
Q 312.05 26.95 310.25 25.95 308.55 24.95 306.45 24.5
L 302.6 23.95 298.55 24.1
Q 296.6 24.2 294.85 25 293.25 25.6 291.55 26.95
L 291.05 27.4 291.05 27.2
Q 290.95 25 290.35 22.95 289.6 20.95 288.35 19.15 286.75 17 284.65 15.7 282.45 14.2 279.95 13.55
L 275.35 12.75
Q 273.2 12.55 270.45 12.7
L 265.2 13.3
Q 262.35 13.75 259.4 14.7
L 256.45 18.5 256.2 27.3 255.45 26.6
Q 254.65 25.9 252.8 24.9 251.6 24.35 249.75 23.75
L 245.05 23.15 240.35 23.7 237.65 24.5
Q 236.85 24.75 235.25 25.75
L 233.45 27.1 233.25 16.1 229.15 12.1 220.95 12.2 216.95 16.2 216.8 26.5 215.25 25.35
Q 213.4 24.3 211.65 23.8
L 208 23.2 206.75 23.3 206.85 15.55 202.8 11.4 194.25 11.35 190.15 15.3 189.75 27.1 187.45 25.35
Q 185.55 24.3 183.85 23.8
L 180.2 23.2 178.95 23.3 179 15.55 174.95 11.4 166.4 11.35 162.25 15.3 162 24.3 155.05 24 150.8 28.15 150.75 34.75 150.55 27.95 146.4 24 140.35 24.1 139.55 21.6 138.05 19.15
Q 136.65 17.15 134.4 15.7 132.2 14.2 129.65 13.55
L 125.05 12.75
Q 123 12.55 120.25 12.7
L 114.95 13.3
Q 112.2 13.75 109.15 14.7
L 106.2 18.5 105.2 54.35 108.75 58.55 115.4 59.3 124.35 59.6 129.95 58.95
Q 132.75 58.3 134.8 57.2
L 137.15 55.5 137.75 54.75 138.25 55.35
Q 139.75 56.9 141.75 57.8 143.75 58.6 146.4 58.9
L 150.25 58.9 153.95 58 154 58 155.15 59.15 163 59.1 164.05 58 164.95 58.95 173.15 59.15 174.55 57.95 176.45 58.7 179.95 58.9 183.4 58.35 186.45 57.2 189.15 55.4 189.25 55.2 192.8 58.95 200.95 59.15 202.4 57.95 204.35 58.7 207.8 58.9 211.25 58.35
Q 212.8 58 214.35 57.2
L 217 55.4 217.35 55 221.4 58.9 229.25 58.8 233.25 54.9 233.45 55.15 236.65 57.15 240.45 58.55 242.8 59.1 245.2 59.35 250 58.8 252.65 57.95 255.15 56.55 256.45 55.55 258.95 58.55 265.65 59.3 274.55 59.6 280.2 58.95
Q 283.15 58.2 285 57.2
L 286.35 56.4 287.4 55.5 288.8 53.75 289 54
Q 290.6 55.9 292.6 57 294.45 58.15 296.95 58.7
L 301 59.15 304.85 58.95
Q 306.85 58.6 308.95 57.75 310.8 56.9 312.55 55.55
L 313.6 54.55 313.65 54.9 319.95 59.1 325.2 58.55 328.55 55.1 331.45 58.55 336.8 59.3 341.75 56.1 342.05 56.6 344.15 58.1 346.2 58.9 348.45 59.15 350.8 58.9 352.95 58.1 354.95 56.6 356.45 54.7 356.75 54 358.6 55.7 360.75 57 363 58 367.45 59.1
Q 369.75 59.35 372.05 59.1
L 375.55 58.3
Q 377.55 57.55 378.8 56.75
L 380.65 55.5 380.85 55.7 383.8 57.55 387.2 58.7 391.2 59.15 395.15 58.95 399.15 57.75
Q 401 56.95 402.75 55.55
L 402.85 55.4 406.2 58.9 415.4 59.15 419.25 55.4 422.95 58.9 429.55 58.8 432.75 55.4 436.6 59.15 445.15 58.9 449.05 54.6
Q 448.75 47.1 448.15 42.9
M 369.75 41.9
L 369.65 41.7 369.55 40.1 369.75 40.1 372 41.35 370.65 41.95 370.2 42.1 369.95 42.1 369.75 41.9
M 375.35 40.55
L 375.2 41.95 372.8 41.2 375.35 40.55
M 391.75 41.3
L 391.75 41 392 41 392.05 41.2 392.15 42 392.05 42.4 392.05 42.55 391.95 42.6 391.8 42.6 391.75 42.55 391.65 42.55 391.6 42.15 391.75 41.3
M 301.8 41
L 301.85 41.2 301.85 42.4 301.8 42.55 301.75 42.6 301.6 42.6 301.55 42.55 301.4 42.55 301.4 41.75 301.45 41.3 301.55 41 301.8 41 Z"/>
</g>
</defs>

<g transform="matrix( 1, 0, 0, 1, 0,0) ">
<use xlink:href="#Layer0_0_FILL"/>
</g>
</svg>
