
<svg xmlns="http://www.w3.org/2000/svg" version="1.1" xmlns:xlink="http://www.w3.org/1999/xlink" preserveAspectRatio="none" x="0px" y="0px" width="550px" height="400px" viewBox="0 0 550 400">
<defs>
<g id="Layer0_0_FILL">
<path fill="#FFFF00" stroke="none" d="
M 94.85 40
Q 94 29.15 88.5 22.05 83.8 15.9 77.45 13.85 70.35 12.8 61.9 8.4 54.45 4.55 52.2 4.9 50.7 8.8 50.95 14.65 50.95 15.85 52.05 24.35 49.35 23.9 41.7 21.6 35.75 19.85 34.95 20.85 33.8 22.5 35.1 29.3
L 37.2 41.2
Q 34.3 40 31.05 39.5
L 25.35 39.65
Q 23.9 41.35 25.15 46.8
L 27.35 56.9 25 60.6 21.95 63.9
Q 19 65.75 14.6 67.4 11.35 68.5 6.7 69.65 5.35 70.7 5.25 72.35
L 5.5 75.6 8.9 76.1 16.7 76.35
Q 26.3 76.35 33.8 74.9 43.45 73.05 47.2 69.25
L 51.75 75.9
Q 56.5 76.05 64.4 75.7
L 76.35 75.1 77.85 74.75
Q 81.6 74.25 82.25 71.15 82.75 67.95 79.15 65.9
L 75.6 64.75 72.8 64.35 71.95 64.4 74.15 62.2 80.9 60.85 83.8 57.25 79.25 55.1 68.7 54.05 76.3 47.1 78.35 49.8
Q 80.1 52.15 82.3 53.35 84.1 54.25 86.45 54.7
L 87.9 55 88.55 55.05 91.2 53.2 94.85 40 Z"/>
</g>
</defs>

<g transform="matrix( 1, 0, 0, 1, 0,0) ">
<use xlink:href="#Layer0_0_FILL"/>
</g>
</svg>
