
<svg xmlns="http://www.w3.org/2000/svg" version="1.1" xmlns:xlink="http://www.w3.org/1999/xlink" preserveAspectRatio="none" x="0px" y="0px" width="550px" height="400px" viewBox="0 0 550 400">
<defs>
<g id="Layer0_0_FILL">
<path fill="#FFFF00" stroke="none" d="
M 256.8 35.95
Q 256.4 34.55 255.65 33.25
L 254 30.85
Q 252.9 29.7 251.65 28.95 250.45 28.15 248.65 27.7
L 245.05 27.25 241.2 27.7
Q 238.9 28.25 237.45 29.25 235.7 30.25 234.3 31.95 232.85 33.65 232.1 35.65 231.4 37.65 231.3 39.85 231.3 42.3 231.6 44.05 231.85 45.65 232.65 47.35
L 234.2 50.05 236.05 51.95
Q 237.2 52.9 238.45 53.45 240.1 54.25 241.65 54.7
L 245.25 55.25 249.05 54.85
Q 250.8 54.45 252.9 53.1 254.85 51.85 256.8 49.75
L 251 44.75
Q 249.4 46.25 247.85 46.95 246.25 47.65 244.85 47.5 243.4 47.35 242.25 46.65 241.1 45.95 240.2 44.5
L 257.45 43.5 256.8 35.95
M 245.3 35.1
Q 246.65 35.25 247.65 36.25 248.6 37.25 248.8 38.9
L 239.7 38.9
Q 239.8 38.05 240.2 37.15 240.6 36.3 241.2 35.75 241.8 35.15 242.85 35.05
L 245.3 35.1 Z"/>
</g>
</defs>

<g transform="matrix( 1, 0, 0, 1, 0,0) ">
<use xlink:href="#Layer0_0_FILL"/>
</g>
</svg>
