
<svg xmlns="http://www.w3.org/2000/svg" version="1.1" xmlns:xlink="http://www.w3.org/1999/xlink" preserveAspectRatio="none" x="0px" y="0px" width="550px" height="400px" viewBox="0 0 550 400">
<defs>
<g id="Layer0_0_FILL">
<path fill="#FFFF00" stroke="none" d="
M 163 55.05
L 163.25 28.45 154.85 28.1 154.4 41.45
Q 154.05 43.65 153.05 44.9 151.95 46.05 150.2 46.05 148.4 46.05 147.55 43.7 146.6 41.35 146.75 36.7
L 146.45 28.1 138.6 28.25 139.05 46.75
Q 139.35 50.65 141.2 52.55 143.15 54.55 146.65 54.85 150.15 55.1 152.35 54.3 154.4 53.5 155.15 51.55
L 155.15 55.1 163 55.05 Z"/>
</g>
</defs>

<g transform="matrix( 1, 0, 0, 1, 0,0) ">
<use xlink:href="#Layer0_0_FILL"/>
</g>
</svg>
