
<svg xmlns="http://www.w3.org/2000/svg" version="1.1" xmlns:xlink="http://www.w3.org/1999/xlink" preserveAspectRatio="none" x="0px" y="0px" width="550px" height="400px" viewBox="0 0 550 400">
<defs>
<g id="Layer0_0_FILL">
<path fill="#010101" stroke="none" d="
M 100.7 23.35
Q 99.1 16.25 96.5 10.85 96.4 7.85 95.1 5.65 93.4 2.95 90.05 1.95 80.25 -0.35 69 0.05 60.2 0.35 47.5 2.6 45.9 3.25 43.7 3.3 41.1 3.35 39.55 3.8 38.85 3.95 37.6 5.25 36.45 6.4 35.4 6.25 32.4 7.3 35.55 14.45 39.2 22.7 38.25 24.6 38.2 28.6 36.65 32.95 35.75 35.5 33.6 41.05 32.4 26.9 26.1 21.15 20.95 16.5 13.4 17.85 7.15 18.95 2.65 22.95 -1.8 26.9 0.85 28.4 7.5 23.6 12.05 22.25 19.15 20.2 24.2 24.9 26.55 33.25 26.8 35.15 27.75 42.1 24.7 46.7 24.15 50.1 21.1 49.7 19.15 49.45 14.7 47.05 9.95 44.45 8.3 44.05 5.3 43.3 4.75 46.15 10.1 48.4 17.7 52.5 23.2 54.95 25.65 52.35 23.7 55.35 24.4 57.85 27.2 64.45 34.05 77.3 39.9 89.15 41.35 98.25 41.65 100.15 40 104.2 38.1 108.75 37.95 110.8 37.35 112.7 38.9 116 40.3 118.85 38.8 120.8 33.35 133.15 34.4 140.1 35.3 146.05 40.4 146.1 45.35 146.15 50.5 140.9 56.2 135.1 58.4 126.35 57.35 134.75 60.7 141.7 64.55 149.7 71.65 147.1 73.9 150.95 78 141.85 82 133.05 81.4 128.65 82.7 133.85 85.85 138.75 88.9 143.45 92 145.35 95.35 147.4 96.95 144.9 98.8 142.05 97.75 133.8 97 129.95 94.2 123.85 91.05 117.15 90.25 114.1 91.6 110.05 89.45 106.25 86.25 103.1 88.1 93.6 89.3 88.35 89.8 85.8 90.75 81.3 90.7 78.75 93 74.85 93.85 73.1 95.25 70.3 95.8 66.85 97.9 67.95 99.45 65.3 100.95 62.65 99.95 59.85 99.85 59.45 98.95 58.35 98.3 57.6 98.8 56.35 101.55 53 102.4 46.85 103 42.6 102.7 35.95 101.9 28.6 100.7 23.35
M 91.3 22.85
Q 92.55 19.05 93 17.15 99.9 29.75 95 55.2 93.95 59.7 92.5 63.45 82.9 56.7 72.05 51.3 60.9 45.85 49.1 41.7
L 39.05 38.35
Q 39.7 36.9 40.6 34.6 42.3 30.9 42.25 25.05 41.95 18.5 42.15 15.4 45.15 10.15 50.7 8.05 54.8 6.55 62.55 6.25 82.95 3.15 91.3 14.55 90.4 16.5 89.1 20.7
L 86.25 28.2
Q 82.8 36.8 79.9 42.8 79.15 44.5 80.5 45.9 81.8 47.3 82.75 45.2 86.3 37.4 88.8 30.35 90.75 24.8 91.3 22.85
M 90.55 68.7
Q 85.3 68.15 82.95 68.65 79.4 69.45 88.55 72.75 88.6 73.75 85.2 79.6 82.65 85.1 86.2 85.65 85.2 88.3 84.6 95.45 83.3 101.25 77.85 101.35 78.9 97.85 78.65 88.75 78.35 78.85 75.75 80.8 75.45 82.35 76.1 92.4 76.25 101.75 73.35 102.25 64.3 103.25 59.75 103.25 51.8 103.25 47.9 99 44.2 97.05 43 92.5 42.45 90.6 41.95 83.65 39.45 79.35 38.25 77.05 36.15 73.05 35.45 69.8 31.9 65.65 30.05 63.1 26.6 58.45 27.75 55.75 33.4 49.1 37.6 41.35 39.25 42.15 41.15 42.85
L 46.7 45.05
Q 53.1 47.45 58.25 49.6 69.5 54.35 79.65 60.3 85.55 63.8 90.95 67.7
L 90.55 68.7
M 31.65 44.2
Q 31.05 45.6 29.5 47.55 28.6 48.65 26.75 50.85 28.9 47.15 30.2 37 30.25 37.15 30.4 40.55 30.5 43.1 31.65 44.2
M 70.4 122.7
Q 74 122.25 75 122.6 76.45 123 76.65 125.3 76.8 127.35 76 133.15 73.75 140.25 70.7 141.85 68.05 143.2 65.5 140.3 63.15 137.55 62.1 132.7 61 127.6 62.15 123.25 65.55 123.25 70.4 122.7
M 42.45 108.1
Q 48.45 109.65 55.4 110.45 65.55 112.35 77.8 110.2 83 109.3 84.15 109.25 86.6 109.2 87.15 110.75 85.4 116.95 67.55 117.65 54 118.15 46.05 116.4 42.9 115.85 41.85 113.5 40.85 111.15 42.45 108.1
M 48.3 122.35
Q 50.15 122.65 54.8 123.05 54.7 126.65 52.7 130.7 50.75 134.65 47.85 137.3 42.25 141.85 40.2 141.25 38.6 140.8 39.15 136.7 42.55 124.45 42.45 120.55 44.65 121.75 48.3 122.35
M 82.1 120.95
Q 85 120.15 87.45 118.3 92.35 128.45 94 134.85 95.45 140.5 94 140.95 92.5 141.35 89.35 136.35 85.8 130.65 82.1 120.95 Z"/>
</g>
</defs>

<g transform="matrix( 1, 0, 0, 1, 0,0) ">
<use xlink:href="#Layer0_0_FILL"/>
</g>
</svg>
