
<svg xmlns="http://www.w3.org/2000/svg" version="1.1" xmlns:xlink="http://www.w3.org/1999/xlink" preserveAspectRatio="none" x="0px" y="0px" width="550px" height="400px" viewBox="0 0 550 400">
<defs>
<g id="Layer0_0_FILL">
<path fill="#090604" stroke="none" d="
M 247.4 62.25
Q 246.45 61.75 243.9 60.7 241.6 59.7 240.85 59.3 237.75 57.65 236.55 57.4 234.2 57.05 229.2 55.1 227.1 54.25 224.15 53.7
L 218.2 52.35
Q 213.15 51.25 211.75 51.1 209.95 50.9 208.5 50.45 207.15 50 204.5 48.9 197.65 46 193.1 45.2 188.25 44.35 177.45 44.3 174.85 44.3 171.6 44.55
L 168.95 44.75 167 41.65
Q 164.65 38.05 162.8 35.6 160.95 33.25 157.9 28.95 153.8 23.05 151.8 20.25 148.35 15.45 145.5 12.3 144.25 10.85 141.7 8.3 139.2 5.8 138.55 5.05 136.75 3 134.7 1.4 132.9 0 132.45 0 132.35 0 131.75 0.65 131.2 1.25 130.8 1.8 129.65 3.45 127.45 5.25 125.35 6.9 123.2 8.05 120.4 9.55 120.4 9.8 120.4 9.95 121.05 11.65 121.85 13.6 122.6 15.05 126.2 21.9 127.5 24.7 128.6 27.1 129.4 29.75 130.4 32.8 131.6 38.5 132.1 41.15 132.7 44.5 133.05 45.95 132.65 46.35 132.55 46.45 129.9 46.55 125.2 46.75 123.1 46.85 113.45 47.35 111.5 47.75 108 48.6 105.6 49.75 100.9 52 99.95 52.45 97.5 53.55 95.25 54.8 79.1 61.9 74.7 63.55 65.35 66.6 61.8 68.55 58.25 70.55 52.5 75.95 48.85 79.35 45.05 81.65 41.3 83.85 35.45 88.65 29.95 93.2 26.3 96.95 21.6 101.85 20.4 103.45 18.35 106.3 15.4 112.45 10.05 123.75 7.45 130.95 5.75 135.65 3.55 143.95 1.95 149.9 1.3 153.35 0.55 157.25 0.2 161.95 -0.15 166.55 0.15 170.75 0.45 175.05 1.65 182.15 3.05 190.6 4.9 195.35 5.6 197.2 8.15 202.3 10.65 207.45 11.3 208.35 12.25 209.5 14.6 214.05 18.35 221.35 23.5 227.8 25.6 230.45 31.9 236.7 38.2 242.9 41.35 245.4 45.7 248.9 52 252.75 58.25 256.6 60.85 257.3 63.85 258.15 68.35 260.1 69.95 260.85 76.25 262.45 82.4 264.05 85.45 264.55 87.25 264.85 88.65 265.35 90.05 265.85 92.5 267 101.75 271.25 106.8 271.35 108.75 271.4 111.55 271.95 112.05 272.05 115.4 272.35
L 121.25 272.6
Q 122.9 272.8 127.6 272.6 132.1 272.45 136.05 272 141.65 271.45 144.2 271.4 147.2 271.35 150.9 271.8 153.1 272.1 156.75 272.15 158.55 272.2 167.35 272.2 176.95 272.2 181.45 271.9 185.75 271.6 188.05 270.85 190.65 270 194.55 268.3 198.5 266.6 200.3 265.6 201.85 264.75 208.25 261.7 211.6 260.15 213.65 259.5 215.2 258.95 219.3 258 229.85 255.5 234.2 253.4 238.4 251.35 244.9 245.65 248.5 242.45 251.4 240.95 254.05 239.6 255.75 238.45 257.95 237 263.55 232.85 268.55 229.15 273.05 224.65 277.35 220.35 279.65 217 285.5 208.3 291.6 192.5 297.7 176.65 299.4 165.8 300.15 161.3 300.15 154.95 300.15 150.65 299.85 147.6 299.7 145.55 298.8 139.2 297.7 131.4 296.75 127.85 295.7 123.85 292.35 115.8 287.8 104.8 284.25 98.65 280.75 92.6 275.25 86.15 271.8 82.15 265.65 76.55 259.35 70.75 255.2 67.85 254.25 67.2 251.05 64.45 249.65 63.4 247.4 62.25
M 259.75 87.35
Q 260.75 87.6 261.15 87.9 261.65 88.2 263.3 89.7 266.1 92 267 92.45 268.1 93.05 270.35 95.55 272.9 98.4 274.9 101.5 278.7 107.5 281.75 114.95
L 284.5 121.6
Q 286 125.05 286.6 127.75 287.1 130.35 287.55 131.55 288.8 135.2 289.85 143.05 290.95 151.3 290.7 158 290.45 164.65 288.7 171.45 286.4 180.25 281.9 191.45 277.4 202.65 273.4 209.3 271.3 212.8 268.25 216 262.95 221.65 262.3 221.15 262.05 221 262.6 217.65 263.4 213.35 263.3 212.05 263.2 209.75 262.4 205.65 261.2 202.7 260.55 204.05 259.65 207 258.65 209 256.85 214 255.1 216.85 253.6 221.35 252.1 223.35 249 228.05 247.5 229.9 245.15 232.8 242.1 235.1 239.65 236.95 236.9 239.8 234.5 242.25 232.5 243.55 230.55 244.85 227.45 246 224.4 247.15 221.55 247.65 218.7 248.15 214.4 248.3
L 211.4 248.35 209.85 247.1
Q 209.45 246.25 208.7 240.05 208.2 236.25 206.5 239.05 206.15 239.45 203.15 244.15 200.05 249.05 199.45 250.2 196.15 256.85 187.8 260.95 185.5 262.1 182.9 262.35 180.25 262.65 171.95 262.7 165.55 262.75 162.9 262.65 160.3 262.55 157.85 262.15 155.4 261.8 154.5 260.95 153.95 260.1 153.6 259.8 153.45 259.65 152.6 257.75 151.75 255.8 151.65 255.35 151.3 251.6 150.95 248.75 150.25 243.3 149.35 242.9 147.85 243.75 144.55 249.3 140.8 255.6 140.3 256.15 137.2 259.6 135.05 261 133.05 262.25 131 262.25 129.15 262.35 127.5 262.75 124.85 263.4 119.15 263.2 113.35 262.95 110.75 262.1
L 106.4 260.8
Q 104.35 260.15 102.7 259.05 101.7 258.35 99.95 256.75 97.8 254.85 93 249.1 91.2 247.7 84.5 236.15 78.85 226.4 78.35 228.55 78.3 232.25 80.15 240.55 82.05 249.1 82.05 249.8 82.1 250.35 80.95 250.85 80.05 251.3 79.65 251.3 79.1 251.3 73.7 249.5 68.2 247.7 66.7 247
L 61.35 244.75
Q 58.2 243.6 56.6 242.8 53.8 241.4 52.25 239.05 51.4 237.75 50.35 233.8 49.25 229.5 48.9 228.3 47.2 222.2 42.95 216.3 41.95 214.9 41.25 219.4 40.9 221.85 40.25 226.4 40.15 226.85 39.2 227.2 38.3 227.45 38.15 227.5 37.8 227.6 37.25 227.1 36.15 226 34.85 224.8 33.25 223.3 32.5 223.1 31.95 222.9 29.7 220 27.45 217.1 25.55 214.05 21.65 207.75 17.05 195.65 12.2 182.7 10.75 174.25 9.3 165.85 10.4 157.65 11.75 148 17.1 132.85 22.45 117.65 26.85 111.05 28.35 108.8 31.8 105.1 35.25 101.35 35.55 101.65 35.7 101.8 36.7 105.45 39.3 111.1 40.4 113.85 41.15 115 41.5 114.95 41.85 114.9 42.75 113.55 43.65 111.65 44.55 107.75 46.2 100.55 48.8 95.5 51.95 89.4 56.9 85.65 58.65 84.45 60.15 82.5 63.9 77.2 73.1 74.15 75.85 73.2 81.9 72.5 86.05 72 87 72 87.95 72 88.15 72.4 90.5 72.7 91.6 76.3 91.95 77.65 92.3 77.75 92.8 77.9 93.95 76.3 95.5 73.55 97.3 70.3 99.2 67.5 101.6 64.6 104.85 61.6 107.3 60.05 109.65 58.6 113.15 57.25 115.1 56.7 122.35 56.4
L 131.4 55.95
Q 133.2 55.8 137.65 56.1 142.05 56.45 144.1 56.85 146.8 57.4 147.6 57.85 148.25 58.2 148.4 59 149.3 60.1 149.7 60.65 150.15 61.35 150.8 62.7 152.25 64.8 153.3 67 153.9 68.3 155 70.85 155.6 72.15 155.85 71.55 156 71.15 156.15 69.05 156.65 63.65 158.05 62.15 159.15 60.2 160.7 58.25 162.65 56.45 167.3 55.1 168.7 54.95 172.55 54.2 179.25 53.8 183 54.1 190.9 55.15 196.35 57.75 199.65 59.35 201.1 60.85 202.6 62.4 204.4 66 205.4 68.05 208.15 73.1 210.45 77.4 210.95 78.6 212.95 83.25 213.55 80.3 213.95 75.85 214.3 74.65 214.55 73.25 215.25 69.85 215.8 67.2 215.9 66.1 216.25 64.75 216.6 64.55 216.95 64.35 218.05 64.65 228.85 67.25 233.7 69 241.25 71.7 243.15 73.2 245.1 74.75 246.65 79.25 247.2 80.8 248.4 85.7 248.4 85.8 249.4 90.5 250.05 93.75 250.15 95.5 249.8 97.55 251.95 95.85 252.45 95.45 255.8 92.25
L 259.75 87.35 Z"/>
</g>
</defs>

<g transform="matrix( 1, 0, 0, 1, 0,0) ">
<use xlink:href="#Layer0_0_FILL"/>
</g>
</svg>
