
<svg xmlns="http://www.w3.org/2000/svg" version="1.1" xmlns:xlink="http://www.w3.org/1999/xlink" preserveAspectRatio="none" x="0px" y="0px" width="550px" height="400px" viewBox="0 0 550 400">
<defs>
<g id="Layer0_0_FILL">
<path fill="#070707" fill-opacity="0.14901960784313725" stroke="none" d="
M 248.35 63.4
Q 246.7 62.7 243.75 61.2 240.95 59.75 239.9 59.1 238.65 58.3 236.5 57.85 234.4 57.4 231.55 56.4
L 226.9 54.8
Q 224.45 54.1 219.05 52.95 213.55 51.75 211.45 51.55 209.8 51.4 208.45 51 207.05 50.6 204.55 49.5 195.45 45.7 190.4 45.55 187.45 45.45 184.75 45.1 182 44.7 175.45 44.85
L 168.85 44.95 166.55 41.5
Q 163.95 37.65 162.3 35.55
L 157.5 28.95
Q 152 21.2 147.85 16.55
L 140.85 8.65
Q 133.5 0.25 132.55 0.25 132.25 0.25 130.95 2 128 5.95 123.4 8.35 120.9 9.6 120.7 10.1 120.5 10.55 122.7 14.65 126.5 22 127.5 24.15 128.7 26.6 129.45 29.1 130.55 32.4 131.7 38.15
L 133.2 44.9
Q 133.5 46.2 133.25 46.4 132.95 46.7 125.1 47.05 115.85 47.45 112.3 48.05 108.85 48.6 105.3 50.25 98.5 53.4 95.7 55 88.55 59.05 85.65 60.4 82.75 61.7 78.15 63 67.3 65.95 63.3 68 59.35 70.05 52.9 75.95 48.55 79.95 45.9 81.4 42.6 83.25 33.1 90.95 30.2 93.3 26.2 97.4 22.25 101.45 20.85 103.5 19 106.25 14.4 116.15 9.8 126.1 7.35 132.55 5.55 137.35 3.8 143.8 2.05 150.3 1.35 154.55 0.35 160.9 0.45 167.1 0.55 173.35 1.8 181.1 3.4 190.7 4.9 194.65 5.65 196.65 8.25 201.9 10.85 207.1 11.8 208.5 12.7 209.9 14.8 213.95 18.05 220.15 21.75 224.95 25.45 229.85 31.8 236.15 38.15 242.45 42.4 245.9 46.75 249.4 52 252.4
L 56.9 255.35
Q 58.7 256.5 60.95 257.1 63.6 257.8 65.7 258.7 70.35 260.6 76.05 262.1
L 81.5 263.55
Q 82.6 263.9 85.4 264.25 87.1 264.5 88.4 264.9 89.75 265.35 92.3 266.5 101.9 271 106.85 271.15 109.25 271.15 111.55 271.55
L 114.6 272.05
Q 116.2 272.3 124.1 272.05 132.15 271.85 135.9 271.45 141.5 270.95 144.05 270.9 146.55 270.9 151 271.4 154.35 271.8 157.65 271.9 160.85 271.95 170.05 271.85 181.35 271.75 184.4 271.4 187.35 271.1 190.55 269.7
L 194.9 267.95
Q 196.85 267.2 199.9 265.55 203.1 263.75 208.05 261.5 213.05 259.2 214.8 258.7 216.1 258.3 222 256.95 229.85 255.2 234.15 253.1 238.4 250.95 243.6 246.35 246.45 243.8 248.1 242.6 249.8 241.4 252.15 240.15 255.65 238.4 266.65 230 268.9 228.3 272.65 224.55 276.35 220.85 278.1 218.6 281.85 213.8 286.35 204.05 293.95 187.7 297.7 172.75 299.55 165.5 299.8 157.9 300.05 150.45 298.75 140.45 297.65 131.95 296.55 128.05 295.45 124.2 291.5 114.65 285.85 101 280.45 93.3 275.1 85.6 264.5 76 259.45 71.4 256.25 69.1
L 251.4 65.4
Q 249.9 64.1 248.35 63.4
M 258.7 88.35
Q 259.1 87.05 259.65 87.05 260.2 87.05 262.7 89.1 265.45 91.2 266 91.4 267.4 92.05 271.2 97.4 275 102.75 277.55 107.7 279.75 112 282.75 119.35 285.8 126.75 285.8 127.8 285.8 129 286.75 131.5 288.05 135.05 289.05 142.15 290.05 149.3 290.05 154.8 290.05 160.4 289.35 164.7 288.65 169 286.7 175.55 283.35 186.9 278.6 197.6 273.85 208.2 270 213 268.25 215.15 266.55 216.8 264.8 218.5 264.6 218.3 264.4 218 265.9 214.85 267.95 210.35 270.75 201.9 273.5 193.4 273.05 192.95 272.85 192.75 272.35 193.45 271.85 194.1 270.4 196.65 269.1 199 268.4 199.85 267.9 200.4 266.55 201.45 266.4109375 201.5427734375 264.85 202.65 264.7857421875 202.82421875 262.25 204.65 261.65 205.9 261.15 205.5
L 260.8 204.85
Q 260.5 206.25 259.95 207.2 259.6 207.8 258.65 209 257.85 210.05 257.5 211.75 257.3 212.9 256.8 216.4 256.55 217.75 254.55 219.65 252.05 221.95 251.7 222.5 247.8 230.15 240.65 235.3 238.25 237 237 238.65 234.8 241.55 230.55 243.8 226.25 246.1 221.35 246.95 219.4 247.3 217.25 247.4 215.1 247.55 215.1 247.3 215.1 247.15 218.9 245.15 224.6 242.15 227.6 239.85 230.55 237.55 236.9 231.15 245.2 222.85 248.85 217.65 252.55 212.4 254.5 206.05 255.15 204 255.55 203.15 256 202.3 256.75 201.6 257.6 200.8 259.55 197.35 261.5 193.85 267.15 182.95 269.05 179.35 269.3 179.35 269.65 179.35 272.1 180.45 274.25 181.45 275.15 181.55 275.95 181.6 276.65 180.85 277.4 180.05 277.7 179.2 278 178.35 278.35 176.25 278.75 173.5 279.5 170.8 280.2 167.9 280.95 164 281.8 159.55 282.1 158.4 282.85 155.5 282.35 153.05 281.9 150.6 280.45 149.9 279.4 149.4 278.45 150.65 277.5 151.85 275 156.95
L 271.75 163.5
Q 271.6 163.6 269.1 162.6 266.2 161.5 265.15 161.4 264.05 161.3 263.3 161.95 262.4 162.85 261.7 164.4 261 166.1 260.6 166.1 260.3 166.1 260.3 161.85 260.3 155.75 259.5 150.75 259.35 150 259.6 149.65 259.8 149.35 261.05 148.55 265.85 145.35 269.75 137.95 270.4 136.65 270.75 132.85 271.1 129.1 270.7 127.15 270.35 125.4 269.05 122.75 267.8 120.1 266.5 118.4 265.2 116.75 263.8 115.75 262.35 114.7 259.4 113.35 256.1 111.9 254.4 111.9 252.55 111.9 252.1 111.4 251.6 110.9 251.6 110.75 251.6 110.35 250.2 106.1 248.75 101.8 247.9 99.6 246.3 95.4 243.35 89.6 240.4 83.9 238.45 81.15 237.25 79.55 233.35 76 230.1 73 226.85 71 223.65 68.95 219.1 67.05 214.9 65.3 215.6 64.5 215.9 64.2 222.45 66.1 228.9 68 234.3 69.95 240.95 72.4 243.35 74.4 245.8 76.35 247.2 80.6 247.85 82.55 248.55 84.9 249.1 87.6 249.65 90.3 249.95 92.15 250.1 95.25 250.15 97.1 254.15 93.75 258.1 90.4 258.7 88.35
M 199 73.75
Q 197.4 71.75 195.6 70.25 193.6 68.55 186.25 63 182.9 60.5 181.5 59.75 179.7 58.85 176.15 57.95 172.55 57.05 169.4 56.7 168.15 56.55 163.5 56.5
L 159.55 56.45
Q 160.55 56.35 169.8 53.85 171.25 53.45 172.8 53.3 174.25 53.2 177.7 53.2 181.85 53.15 184.95 53.6 187.9 54 191.75 55.05 193.95 55.7 196.55 57 199.15 58.35 200.35 59.45 201.45 60.45 202.6 62.35 203.8 64.25 204.4 65.95 204.85 67.25 206.45 69 207.65 70.35 209.85 75.7 211.25 78.95 214.6 87.4 216.8 92.9 219 99.1 221.25 105.5 222.1 108.65 222.65 110.65 224.5 116.7
L 226.1 121.65 223.2 125.6
Q 221.5 127.75 220.65 129.85 219.85 131.95 219.2 135.85 218.65 139.2 218.6 140.3 218.55 141.5 218.85 143.45 219.4 147.15 220.4 149.45 221.35 151.75 223.15 153.55 224.25 154.65 225.15 155.05 226 155.45 228.6 156.1 229.6 156.35 229.8 156.6 229.95 156.8 229.95 157.8 229.95 159.2 228.5 166.25 226.9 173.75 226.05 178.35 225.05 183.45 222.55 190.7 220.05 198.05 219.3 198.05 219 198.05 216.5 196.1 214.25 194.35 213.4 193.9 212.6 193.45 211.8 193.65 211.05 193.8 207.8 197.05
L 200.05 204.6
Q 195.5 209.05 195 209.05 194.45 209.05 193 207.7
L 189.65 205.05
Q 187.95 203.85 184.25 200.25 181.6 197.75 180.9 197.25 180.2 196.75 179.15 196.75 178.2 196.75 177.55 197.1 176.9 197.45 175.1 198.95 173.05 200.65 169.9 202.6 166.75 204.5 166 204.5 165.5 204.5 165.5 203.9 165.5 203.3 166.05 199.95 167 194.4 166.6 187.1 166.4 183.7 167 173.75 167.6 163.8 168.1 163 168.25 162.7 169.5 162.4 173.55 161.7 179 156.4 180.6 154.85 182.1 152.1 183.65 149.3 184.3 146.7 184.75 145 184.7 141.7 184.65 138.4 184.1 136.6 183.6 134.75 182.1 131.35 180.6 128 179.75 126.85 177.3 123.4 170.8 120.35 168.55 119.25 167.7 118.75 166.9 118.2 166.8 117.7 166.5 116.75 166.6 106.2 166.65 95.75 166.95 91.75 167.35 86.55 168.15 84.2 168.95 81.85 171.2 79.5 174.5 76.05 178.75 74.75 180.25 74.3 181.3 74.2 182.35 74.15 185.05 74.25 188.8 74.45 191.1 75 193.35 75.5 197.55 77.2 202 79 202.15 78.85 202.65 78.25 199 73.75
M 215.45 73
Q 215.45 72.65 219 73 222.55 73.3 224 73.75 226.15 74.4 227.45 75.25 228.65 76 231.4 78.35 237.4 83.5 240.75 88.6 244.1 93.7 245.3 99.4 245.7 101.45 247.4 106.15 249 110.75 249 110.9 249 111.35 247.75 111.75 246.6 112.15 242.9 113 239.9 113.7 238.25 114.3 236.7 114.85 234.2 116.05 230.3 118.05 230 118.05 229.65 118.05 229.4 117.35 229.2 116.75 228.35 113.2 226.3 103.95 222.3 93 220.75 88.65 218.15 81.05 215.45 73.25 215.45 73
M 227.55 123.35
Q 230.65 120.25 233.35 118.5 234.85 117.55 238.45 116.2 242.15 114.85 244.6 114.35 248.65 113.5 253.1 113.95 257.5 114.45 260.8 116.1 266.5 118.9 268.6 124.25 270.65 129.6 268.55 135.7 267.45 138.95 265.2 141.95 263.25 144.6 261.05 146.25 260.7 146.3 258.15 147.75 256.7 148.6 254.9 148.55 253.05 148.5 253.4 147.65 253.5 147.25 253.55 146.8 253.75 146 254.15 145.35 255.45 143.05 255.85 140.15 256.25 137.2 255.45 135.15 255.15 134.3 253.9 132.4 252.6 130.4 252 129.9 249.9 128 246.1 128.55 242.25 129.15 239.3 131.8 236.7 134.15 236 138.95 235.3 143.7 237.05 147.25 237.5 148.15 238.1 149.55 238.75 150.65 240.25 151.7 241.4 152.7 242.7 153.5 242.85 154.05 241.7 154.8 241.25 155 240 155.35
L 237.7 155.6
Q 234.25 155.65 231.85 155.25 230.35 155 227.25 154.15 224.9 152.75 223.55 150.85 221.95 148.7 221.2 145.4 219.75 138.75 221.9 132.55 222.75 129.95 223.5 128.3 224.45 126.4 227.55 123.35
M 238.75 142.4
Q 238.55 138.75 239.65 136.45 240.75 134.15 243.55 132.25 246 130.65 247.8 131 249.65 131.3 251.6 133.75 252.7 135.15 253.1 136.4 253.5 137.65 253.5 139.75 253.5 141.3 253.2 142.05 252.95 142.8 251.7 144.65 250.7 146.15 250.4 147.6 250.3 148.5 250.4 148.85 250.5 149.25 251.05 149.8 251.55 150.35 252.1 150.5 252.6 150.6 254.15 150.6 256.4 150.6 256.4 150.85
L 256.9 154
Q 257.4 156.75 257.7 163.6 257.9 167.85 257.9 169.25 257.85 170.75 257.6 171.4 257.2 172.25 254.9 175.75 252.55 179.3 252.2 179.5 251.9 179.7 251.15 178.85 250.35 178.05 249.75 178.05 248 178.05 244.95 182.3 242.65 185.5 241.8 186.45 237.55 191.55 230.8 201.35 228.65 204.5 228.4 204.5 228.05 204.5 226.75 203.65 225.45 202.8 225.35 202.5 225.2 202.15 227.75 194.5
L 230.8 185.15
Q 231.8 181.6 232.2 165.45
L 232.35 157.25 236.9 157.05
Q 241.35 156.85 243.05 156.35 244.7 155.85 245.4 154.55 245.85 153.7 245.45 153 245.05 152.3 243.4 151.15 240.85 149.35 239.9 147.55 238.95 145.75 238.75 142.4
M 163.15 108.75
Q 163.7 115.05 163.7 115.15 163.9 117.05 163.5 117.35 163.1 117.65 160.9 117.15 158.6 116.65 154.85 116.6 151.1 116.55 148.8 116.95 146.55 117.35 143.3 118.85 140 120.3 137.3 122.15 134.6 123.9 133.5 124.5 132 125.25 129.75 127.5 128.05 129.2 126.8 131.3 125.65 133.35 123.7 137.9 122.3 141.15 122.25 144.15 122.15 147.15 123.4 150.8 124.4 153.8 125.7 155.85 126.95 157.9 128.95 159.75 134.9 165.25 142.75 165.7 148.7 166 147.65 163.8 147.2 162.7 146.8 162.2 146.5 161.75 145.2 160.3 143.4 157.75 143 156.95 142.25 155.45 142 152.95 141.9 151.2 142 150.4 142.05 149.55 142.55 148.2 143.55 145.3 146.05 142.8 148.55 140.3 151.35 139.3 154.4 138.25 157.6 138.4 160.8 138.6 163.45 139.9 164.7 141.15 165.1 142.55 165.35 143.4 166.1 149.05
L 165.3 155.9 164.7 157.55
Q 164.2 158.5 163.25 159.6
L 162.2 162.1
Q 161.75 162.9 162.5 163.45 163.2 163.95 164.55 164
L 165.9 164 165.8 165.45
Q 165.7 167.15 164.75 171.6 163.7 177 163.15 181.1 162.5 185.8 159.4 200.6 159.2 201.5 158.65 200.95 158.15 200.4 156.85 198.05 154.6 193.7 150.85 189.5 149.3 187.8 148.2 188 147.1 188.15 143.25 190.6
L 137.8 194.2
Q 136.5 195.15 136.05 195.15 135.55 195.15 131.7 191.35 127.85 187.55 126.4 185.65 124.7 183.4 120.65 177.25 116.65 171.2 115.5 169.8 114.35 168.35 113.4 168.35 112.45 168.35 111.35 169.45 110.45 170.35 110.3 170.95 110.2 171.55 110.55 172.9 110.9 173.9 111.35 179
L 112.35 187.55
Q 112.8 190.75 114.25 196.85 115.75 202.9 116.75 205.8 117.8 209 118.45 212.1 119.9 219 120.95 220.05 121.75 220.85 123.6 220.5 125.4 220.15 127.55 218.8 130.15 217.25 133.7 216 138.25 214.25 140.25 213.4 142.9 212.25 143.55 212.25 143.95 212.25 147.65 216.45 151.35 220.7 152.75 222.8
L 153.85 224.45 152.7 228.55
Q 150.55 235.95 149.4 237.75 148.85 238.5 145.75 245.95
L 142.65 253.35 141.1 254.15
Q 139.6 255 137.65 257.3 135.6 259.8 134.2 260.6 132.8 261.45 130.25 261.65 127.25 261.95 126.05 262.25 123.35 262.85 117.3 262.4 111.2 261.95 111.2 261.15 111.2 260.85 113.45 260 115.65 259.1 117.95 258.5 120.5 257.85 122.05 257.05 123.6 256.3 127.25 253.85 131.6 250.95 137.15 245.25 142.65 239.55 144.4 236.15 146.65 231.8 147.5 229.1 147.75 228.2 147.05 228.55 146.3 228.95 143.8 230.95 137.75 235.8 134.3 237.5 125.55 241.85 112.5 232.6 108.9 230 104 226.05 99.05 222.05 95.9 219.15 90.95 214.6 88.8 211.5 86.6 208.3 83.4 200.95 80.75 194.95 79.55 191.8 78.35 188.75 77.6 185.8 76.75 182.1 76.2 180.8 75.7 179.6 75.7 178.6 75.7 177.3 75.1 174.45 74.25 170.3 74 166.35 73.75 162.5 73.9 155.85 74 147.9 74.85 142.25 75.6 137.25 76.95 131.65 78.35 126.05 79.8 122
L 82.65 113.85
Q 84.05 109.8 86.55 104.65 89.05 99.45 91.4 95.75 96.3 88 104.9 81.25 113.45 74.55 120.25 73.1 123.3 72.45 127.75 72.45 132.2 72.4 134.95 72.95 137.2 73.45 140.8 75.15 144.45 76.9 146.2 78.3 149 80.5 149.35 80.5 149.75 80.5 148.7 78.25 146.7 74.2 140.65 68.8 136.85 65.35 134.75 64.05 132.7 62.8 126.85 60.15 125.85 59.65 122.3 58.85 118.4 57.95 117.9 57.7 117.4 57.45 119.3 57.25 122.85 56.9 130 56.85 137.15 56.75 139.75 57 142.55 57.3 145.25 57.9 147.9 58.5 148.45 58.95 148.9 59.35 149.1 60.5 149.3 61.65 150.9 63.15 152.5 64.65 153.55 67.05 154.65 69.4 156.65 75.7 159.05 83.35 159.9 88.3
L 161.35 95.95
Q 162.75 102.6 163.15 108.75
M 176.6 128.3
Q 179.9 132.15 181.3 136.35 182.25 139 182.35 142.45 182.5 145.9 181.75 147.85 181.05 149.6 179.8 151.75 178.5 153.9 177.95 154.2 177.35 154.5 176.5 155.9 174.65 158.9 172.85 159.2 171.3 159.6 168.85 160.85 165.35 162.55 164.85 162.15 164.3 161.8 166.05 158.85 168.05 155.45 168.75 153.6 169.4 151.75 169.45 149.5 169.45 145.1 167.1 141.45 164.75 137.75 161 136.3 157.85 135.1 153.2 136.25 143.8 138.55 140.5 145.65 139.65 147.45 139.55 147.85 139.3 148.75 139.4 150.7 139.5 152.45 139.9 153.6 140.1 154.25 141 156.15 142.15 158.45 144.25 160.9 146.4 163.25 146.4 163.7 146.4 164.15 145.75 164.5 145.2 164.8 144.35 164.75 143.55 164.7 140.9 164.3 135.1 163.35 130.55 158.7 125.95 154.05 124.65 147.75 123.6 142.85 125.3 137.95 127.05 133 131 129.65
L 135.55 125.7
Q 140.2 121.6 145.1 120.45
L 150.9 119.15
Q 155.75 118.05 159.6 118.75 163.45 119.4 169.45 122.5 173.3 124.45 176.6 128.3
M 281.25 152.5
Q 281.3 152.8 281.15 154.4 280.9 156.45 279.35 165.45 277.75 174.65 277.15 177.1 276.8 178.55 276.55 179.05 276.3 179.55 275.9 179.6 275.3 179.7 272.25 178.2 269.3 176.65 269 176.95 268.65 177.35 266.4 181.15 264.1 184.85 262.55 187.55 255.7 199.5 255.1 199.85 254.7 200.05 253.35 199.05 252 198.05 251.2 198.1 250.35 198.1 249.65 199.1
L 244.95 204.85
Q 241.4 209.05 238.6 212.9 236.3 216.1 233.85 218.8
L 231.1 221.95
Q 230.55 222.5 229.35 223.3 228.6 223.45 228.55 223.45 228.05 223.45 226.85 222.8 226.5 222.6 223.55 220.75 219.15 217.7 217.45 216.55 214.6 214.6 212.65 213.75
L 211.3 213.15 206.2 218.4
Q 200.7 224 198.6 225.65 196.15 227.75 195.65 227.75 194.7 227.75 185.55 220.7 181.05 217.3 178.75 216.05
L 176.8 215.05 170.1 218.35
Q 163.55 221.55 160.55 223.6 157.7 225.55 157.15 225.45 156.7 225.35 155.95 224.4 155.1 223.45 152.9 220.3 146.95 211.85 145.35 210.05 144.7 209.35 144.4 209.25 144.1 209.15 143.25 209.5 141 210.3 135.4 212.8 129.7 215.3 128.3 216.1 124.25 218.45 123.25 218.65 122.25 218.8 121.75 217.15 119.35 210 114.4 182.55 113.85 179.6 113.6 176.15 113.3 172.65 113.5 172 113.6 171.65 113.8 171.8 113.95 171.95 114.35 172.75 115.05 174.2 115.55 175.55 116.1 176.95 118.4 179.75
L 124.35 187.1
Q 128.7 192.4 130.05 193.8 131.5 195.3 133.65 197 135.8 198.7 136.3 198.7 136.6 198.7 139.25 196.8 141.85 194.95 144 193.2 146.2 191.4 147.15 190.8
L 148.1 190.2 149.05 191.3
Q 149.95 192.35 150.95 194.3 151.65 195.7 153.1 198.15 154.3 200 155.9 203.05 157.25 205.55 158.8 207.6 160.3 209.65 160.8 209.65 161.6 209.65 165.75 207.45 169.9 205.25 173.35 203 177.4 200.4 178.8 200 180.15 199.6 181.05 200.85 183.05 203.65 189.3 208.55 194.1 212.25 194.5 212.25 194.95 212.25 200.6 206.6 205.15 202.05 208.45 199.05 211.8 196.1 212.4 196.1 213.2 196.1 217.35 199.6 219.25 201.25 223.45 204.1 227.65 206.95 228.55 207.2 229.2 207.4 230.2 206.3 231.1 205.2 233.75 201.3 236.15 197.65 239.4 193.55 242.75 189.2 243.5 187.7 244.05 186.5 246.35 183.6 248.65 180.65 249 180.65 249.35 180.65 250.35 182.75 251.45 184.85 251.7 184.75 252.15 184.5 254.1 181.25
L 259.65 172.55
Q 263.15 167.25 263.95 165.6 264.95 163.6 265.6 163.5 266.25 163.4 269.05 164.8 272.4 166.45 272.55 166.2 272.9 165.9 274.3 162.4 277.7 154.5 279.1 152.95 279.7 152.25 280.55 152.25 281.15 152.25 281.25 152.5
M 86.3 72.9
Q 87 72.65 87 73
L 85.75 76.3
Q 84.5 79.5 82.9 84.3 81.2 89.35 80.45 92.05 78.7 98.45 77 104.15 75.25 109.95 74.8 110.75 73.95 112.4 72.45 119.1 70.9 125.9 69.85 132.65 69.3 135.95 69.2 139.3 69.1 142.85 69.1 156.45 69.1 170.55 69.2 173.45 69.3 176.55 69.8 178.85 70.5 181.9 70.85 187.75 71.1 191.75 71.75 198.1 72.4 204.5 72.65 205.7 72.85 206.55 73.75 214.3 75.15 225.75 76.55 232.45 77.95 239.15 80.55 246.5
L 81.85 250.6
Q 81.85 250.95 81.55 250.95 81.25 250.95 80.95 250.55 80.45 249.9 79.35 247.75 76.5 242.5 73.8 232.05 71.15 221.65 69.55 209.85 69.2 206.95 68.9 206.55 68.65 206.25 66.75 206.05 65.6 206 64.85 205.7 64.15 205.45 62.95 204.6 60.8 203.05 58.9 200.4 57 197.75 54.45 192.65 53.15 190.15 51.45 185.35 49.7 180.55 49.1 177.85 48.3 174.5 47.6 168.9 46.9 163.3 46.9 160.3 46.9 155.45 48.25 148.1 49.6 140.8 51.5 135.5 53.65 129.4 55.5 125.4 57.35 121.4 60.05 116.8 63.1 111.6 67.15 107.85 71.15 104.15 73.65 104.15 74.6 104.15 75 103.75 75.45 103.15 75.75 101.5 76.05 99.85 75.95 98.65 75.8 97.65 76.05 96.6 76.25 95.55 77.15 92.95 78.7 88.45 81.5 81.75 84.3 75 85.25 73.65 85.55 73.15 86.3 72.9
M 159.3 230.8
Q 159.35 227.75 159.95 227 160.55 226.25 164.8 223.95 171 220.6 172.9 219.45
L 176.05 217.7 177.25 218.4
Q 181.9 221.2 190.2 227.5 194.85 230.95 195.3 230.95 195.8 230.95 196.5 230.6 197.15 230.25 202.1 225.5 207.1 220.65 209.1 218.45 212.45 214.7 212.3 217.2 212.2 218.35 210.45 223.65 208.6 229.25 208.35 230.95 208.05 232.45 206.1 236.6 204.1 240.8 202.2 243.9 200.3 246.95 199.25 249.15 198 251.75 197 253.1 195.6 255 192.25 257.45 188.85 259.85 185.9 261 184.55 261.55 182.85 261.7 181.3 261.8 173.65 261.9 163.35 261.95 163.65 261.65 164 261.35 168.8 260.05 175.25 258.35 177.25 257.45 179.2 256.5 183.75 253.1 189.4 248.85 191.8 246.35 194.15 243.85 198.05 238.05 201.75 232.6 204.35 228.25 206.9 223.95 206.65 223.65 206.45 223.55 205.55 224.75 204.6 226.05 200.35 230.6 196.1 235.15 192.55 238.7 188.95 242.3 186.65 243.65 184.3 245 180.35 245.8 176.45 246.6 172 246.35 167.55 246.1 165.4 245 162.95 243.75 161.1 239.4 159.25 235.1 159.3 230.8
M 252.65 201.55
Q 253 201.9 251.25 206.2 249.1 211.7 248.5 213.65 246.75 218.7 241.65 224.05 240.2 225.5 238.85 226.4 237.45 227.35 233.85 229.35 229.15 231.9 227.55 232.3 225.9 232.75 223.35 232.1 221.6 231.65 220.55 230.75 219.55 229.85 218.65 227.95 216.75 224.05 217.8 221.5 218.35 220.3 218.7 220.3 219.15 220.3 220.6 221.15 222.2 222.05 223.85 223.4 226.95 225.3 227.6 225.6 228.95 226.2 229.7 225.8 231.7 224.7 235.05 221.45 238.4 218.2 240.65 215.15 242.65 212.55 244.75 210.2 246.9 207.9 249.35 204.65 251.25 202.15 251.75 201.65 252.25 201.2 252.65 201.55 Z"/>
</g>
</defs>

<g transform="matrix( 1, 0, 0, 1, 0,0) ">
<use xlink:href="#Layer0_0_FILL"/>
</g>
</svg>
