
<svg xmlns="http://www.w3.org/2000/svg" version="1.1" xmlns:xlink="http://www.w3.org/1999/xlink" preserveAspectRatio="none" x="0px" y="0px" width="550px" height="400px" viewBox="0 0 550 400">
<defs>
<g id="Layer0_0_FILL">
<path fill="#000000" fill-opacity="0.14901960784313725" stroke="none" d="
M 249.3 63.75
Q 247.5 62.95 244.7 61.5 241.8 60.05 240.8 59.4 239.6 58.65 237.4 58.2 235.2 57.75 232.5 56.75 230 55.75 227.8 55.15 225.5 54.4 220 53.25 214.6 52.15 212.4 51.9 209.65 51.6 205.5 49.85 196.4 46.05 191.35 45.9 188.1 45.8 185.7 45.4 182.95 45.05 176.35 45.15
L 169.35 45.35 166.6 42.65
Q 163.8 37.75 162.7 36.35 159.2 31.95 157.6 29.7 156.45 28.05 152.9 22.55 150.55 18.9 148.75 16.9
L 141.8 8.95
Q 134.45 0.6 133.45 0.6 133.1 0.6 131.85 2.3 128.9 6.3 124.35 8.65 121.8 10 121.6 10.4 121.5 10.85 123.6 15 127.25 21.95 128.45 24.5 129.55 26.85 130.4 29.45 131.65 33.55 132.65 38.5
L 134.1 45.25
Q 134.5 46.5 134.2 46.75 133.95 47 126 47.35 116.65 47.8 113.25 48.35 109.7 48.9 106.25 50.55 99.05 53.95 96.6 55.35 89.1 59.85 86.8 61.2 83.35 63.15 79.5 64.2 68.65 67.15 64.65 69.2 60.7 71.25 54.3 77.15 52.45 78.85 50.2 80.1 48.95 80.75 46.85 81.75 43.4 83.65 34 91.3 31.15 93.6 27.15 97.7 23.15 101.8 21.8 103.8 19.95 106.55 15.35 116.5 10.75 126.4 8.3 132.9 6.5 137.65 4.75 144.1 3 150.55 2.3 154.85 1.25 161.2 1.35 167.45 1.45 173.6 2.75 181.45 4.35 191.2 5.8 195 6.55 197 9.15 202.25 11.75 207.45 12.7 208.85 13.8 210.35 15.75 214.3 18.95 220.45 22.65 225.3 26.4 230.15 32.75 236.45 38.4 242.1 43.6 245.8 46.75 248.05 53.45 251.95 54.3 252.45 56.05 253.25 57.5 253.95 57.95 254.25 59.1 254.95 62.25 255.85 63.55 256.2 67 258.05 70.5 259.5 71.8 260 74.05 260.8 77.2 261.6
L 82.8 262.95
Q 83.1 263.05 83.85 263.4 84.7 263.7 85.6 263.8 88.65 264.2 93.4 266.45 102.1 270.45 108.1 270.65 109.5 270.65 111.8 271.35 113 271.45 116.55 271.45
L 119.35 271.45
Q 122.1 271.55 126.95 271.55 133.3 271.55 136.7 271.2 142.9 270.6 144.65 270.55 147.25 270.45 151.4 270.95 154.65 271.2 158.3 271.25 161.1 271.3 171 271.3 181.3 271.2 184.85 270.7 186.65 270.4 190.6 269
L 194.6 267.4
Q 196.85 266.6 200.2 264.75 203.35 263 208.2 260.9 213 258.75 214.85 258.35 221.85 256.55 222.65 256.35 230.55 254.25 234.4 252.35 238.35 250.35 243.5 245.8 246.7 242.95 247.9 242 249.65 240.65 251.85 239.55 253.4 238.75 257.3 235.85 258.35 235 265.85 229.25 268.65 227.05 271.95 224.1 276.05 220.45 277.6 218.45 282 212.8 286.1 204 294.1 186.6 297.55 172.95 299.4 165.55 299.7 158.2 299.95 150.65 298.7 140.8 297.5 131.55 296.7 128.5 295.6 124.15 291.9 115.15 286.05 101.1 281.15 93.7 275.75 85.7 265.4 76.3 260.55 71.9 257.2 69.4 254.15 67.2 252.35 65.7 250.55 64.3 249.3 63.75
M 248.3 80.6
Q 249.05 82.65 249.15 83 249.4 83.9 249.8 86.2 250.55 89.35 250.8 91.25 251.25 93.4 253.25 93.4 255.15 93.35 257.5 91.55 258.15 91 258.85 89.8 259.6 88.55 259.6 87.9 259.6 87.45 260.05 87.1 260.4 86.8 261.05 87.15 261.75 87.55 264.15 89.45 266 90.95 266.95 91.45 268.5 92.15 272.65 98.05 276.8 104 279.3 109.15 281.7 114.1 284.2 120.3 286.75 126.5 287 128.2 287.25 129.95 287.95 131.75 289.25 135 290.45 144.6 291.65 154.4 290.95 161.5 290.2 168.6 287 178.85 284.5 186.85 280.2 196.7 275.9 206.55 273 210.95 271.25 213.55 267.95 216.95 264.65 220.3 264.25 219.9 264.1 219.75 264.65 216.6 265.1 213.25 264.95 211.8 264.75 210 263.95 207.8 263.7 207.1 262.6 204.65 261.9 204.65 261.95 204.45 262 204.2 261.8 204.1 261 205.3 259.6 209.25 257.8 214.3 257.05 215.95 254.2 222.85 250.45 227.6 246.7 232.35 240.95 236.45 239.05 237.75 238.25 238.95 237.55 240.15 235.45 241.8 233.4 243.45 231.25 244.5 224.1 248.15 216.2 248.05
L 214.25 248.05 212.7 246.25
Q 211.3 244.65 210.75 243.3 210.2 241.85 210.05 239.55
L 209.75 236.85
Q 209.55 236.2 208.65 237.15 207.8 238.1 205.7 241.25
L 202.2 246.3
Q 201.7 246.8 199.9 250.3 198.45 253.15 196.95 254.85 195.4 256.55 192.6 258.45 187.8 261.7 183.65 262.25 181.35 262.6 172.75 262.6 164.15 262.6 162.75 262.3
L 159.9 261.7
Q 158.95 261.55 158.5 261.25 158.05 260.9 157.4 259.85 154.75 256.05 153.6 252.25 153 250.45 152.95 245.45 152.7 235.35 150.7 238.55 150.25 239.15 147.15 246.55
L 144.2 253.7 142.45 254.55
Q 140.65 255.45 138.65 257.9 136.65 260.3 135.2 261.15 133.7 262 130.95 262.35 128.1 262.7 122.1 262.75 116.05 262.85 114.55 262.55 111 262 111.3 261.1
L 109.7 259.9
Q 107.55 258.4 105.95 256.25 103.55 253.2 102 251.5 99.25 248.5 96.1 245.1 89.95 236.75 88.35 234.45 86.3 231.6 82.8 226.3 80.3 222.6 79.5 221.7 78.75 220.8 78.1 220.7 76.75 220.6 76.5 221.15 76.25 221.7 76.6 224.1 76.95 226.75 77.8 230.95
L 78.75 235.8
Q 79.05 238.2 81.3 244.75 82.3 247.7 82.8 249.85 83.3 251.95 82.95 251.95
L 81.75 251.4
Q 80.85 251 76.85 249.7 72.8 248.4 72.3 248.4 71.85 248.4 69.85 247.4 67.8 246.45 65.75 245.2 64.25 244.3 63.55 243.65 62.85 242.95 61.85 241.35 60.4 239.1 58.75 235.95 57.05 232.8 56.5 231.3 56 229.95 53.1 226.3 51.45 223.7 48.2 218.85 46.75 216.65 45.85 214.8 45.35 213.8 43.35 211.1 41.3 208.25 40.95 207.65 39.8 205.65 36.85 199.8 33.95 194 33.25 192.35 32.45 190.5 31.35 185.45 30.25 180.45 29.45 175.3 28.4 168.15 28.35 162.25 28.35 156.3 29.35 147.55 30 141.85 30.25 140.45 30.55 139.05 31.2 138 32.1 136.55 32.1 136.3 32.1 135.8 33.55 133.25 35 130.75 36.35 128.9 41.7 121.9 43.05 120.1 44.9 117.6 45.9 115.55 46.45 114.5 47.85 112.75 49.05 111.2 49.15 110.85 50.35 106.75 51.35 105 52.05 103.9 52.95 101.65 54.1 98.8 54.25 98.55 55.55 95.95 57.1 94.05 58.65 92.15 64.25 86.1 68 82.1 71.9 78.9 74.85 76.5 76.3 75.75 77.7 74.95 78.05 74.8 80.05 74 83.9 73.5
L 87.55 72.95
Q 88.6 72.75 88.6 73.1 88.6 73.35 87.25 76.6 86.05 79.6 84.1 85.4 82.15 91.3 82.15 91.9 82.15 92.8 82.65 92.35 83.15 91.9 84.35 89.9 87.7 84.35 90.15 83.05 91.05 82.6 94 80.4 96.9 78.2 99.6 75.95 101.7 74.3 103.55 71.5 105.25 68.95 106.55 67.75 107.85 66.55 111.5 64.25 117.65 60.35 118.6 59.5 119.55 58.7 117.85 58.65 116.55 58.55 116 58.35 115.45 58.2 115.4 58.15 115.4 58.1 115.85 57.9 117.1 57.4 130.2 56.9 137.4 56.6 143.3 57.45 149.15 58.25 149.75 59.65 150.75 61.7 151.25 62.45 151.75 63.2 152.6 63.85 155.35 65.85 159.6 60.6
L 165.05 54.6 167.55 54.3
Q 170 54.05 170.95 53.65 171.9 53.25 177.5 53.15 183.05 53 185.2 53.35 190.4 54.15 194.7 55.75 199 57.3 201.15 59.2 203.8 61.5 205.25 65.4 207.7 71.65 209.6 72.25 212.25 73.05 214.75 70.75 217.25 68.45 216.4 66 216.05 65 216.1 64.7 216.1 64.45 216.65 64.45 217.5 64.45 224.2 66.5 230.8 68.45 235.1 70 241.85 72.5 244.35 74.5 246.9 76.55 248.3 80.6 Z"/>
</g>
</defs>

<g transform="matrix( 1, 0, 0, 1, 0,0) ">
<use xlink:href="#Layer0_0_FILL"/>
</g>
</svg>
