
<svg xmlns="http://www.w3.org/2000/svg" version="1.1" xmlns:xlink="http://www.w3.org/1999/xlink" preserveAspectRatio="none" x="0px" y="0px" width="550px" height="400px" viewBox="0 0 550 400">
<defs>
<g id="Parts_Sets_Gecko_geckoFootStatic_0_Layer0_0_FILL">
<path fill="#DAC849" stroke="none" d="
M 20.7 13.3
Q 21.6 12.4 21.6 10.7 21.6 8.9 20.1 7.4 17.8 5.45 16.3 3.75 15.45 2.65 14.85 2.05 13.75 0.95 12.15 0.45 8 -0.1 6.75 0 5.8 0.1 5.45 0.6 5.55 0.7 5.6 0.8 5.6 1.2 5.75 1.95 6.05 2.35 6.65 3 8 4.85 8 6.55 8 7.45 6.25 12.5 5.9 12.95 4.9 13.9 4.8 14 3.8 14.25 2.75 14.5 2.2 14.8 0.4 15.7 0.1 16.25 0 16.45 0 17.7 0 19.65 1.8 20.2 3.05 20.6 8.25 22
L 11.85 22
Q 12.95 21.9 14.2 21.05 15.25 20.3 15.75 19.6 17.55 17.3 18 16.6 18.9 15.1 20.7 13.3 Z"/>
</g>

<g id="Parts_Sets_Gecko_geckoFootOutline_0_Layer0_0_FILL">
<path fill="#000000" fill-opacity="0.2784313725490196" stroke="none" d="
M 13.25 35.1
Q 12.9908203125 35.0515625 12.7 34.95 12.808203125 35.0873046875 12.9 35.2 13.0826171875 35.159375 13.25 35.1
M 2.75 5.5
Q 2.5041015625 6.1986328125 2.45 7.05 2.2 11.5 3.4 15.8 4.25 18.75 5.35 21.5 7.35 26.3 10.95 30 12.1 31.15 13.25 32.35
L 13.4 31.4
Q 16.05 28.35 19.85 28.05 20.85 27.9 21.9 27.75
L 21.3 26.95
Q 21.3203125 26.8875 21.35 26.8 20.8201171875 26.6486328125 20.3 26.5 19.1 26.2 17.9 25.9 17.3 25.7 16.7 25.5 15.05 24.8 13.5 23.95 11.6 22.9 10 21.55 9.35 21.05 8.9 20.45 7.05 18.25 6 15.5 4.55 11.6 3.35 7.6 3.0490234375 6.5466796875 2.75 5.5 Z"/>

<path fill="#000000" stroke="none" d="
M 38.6 24.65
Q 37.6 23.7 36.8 22.65 36.50625 22.386328125 36.25 22.1 35.719921875 21.5595703125 35.35 20.95 34.711328125 19.929296875 34.55 18.8 28.95 14.75 21.95 15 19.8 10.85 16.95 7.2 12.75 1.9 6.45 0 4.05 0.5 2.45 2.3 -0.6 5.8 0.15 10.4 0.95 15.1 2.05 19.8 2.95 23.7 4.5 27.45 6.920703125 33.322265625 12.7 34.95 12.9908203125 35.0515625 13.25 35.1 13.6732421875 35.21953125 14.1 35.3 16.65 38.85 20.85 39.7 25.75 40.65 30.25 38.7 34.7 36.9 35.7 32.15 37.75 32.2 38.85 30.45 40.05 28.45 39.45 26.15 39.2 25.2 38.6 24.65
M 25.95 17.9
L 27.95 18.1 28.1 18.15 30.7 18.45 31.45 19.7
Q 31.4 19.85 31.3 20.05 30.3 20.2 29.1 20.5 26.65 21.05 25.2 21.55 25.05 21.5 24.9 21.45 24.8224609375 21.4189453125 24.75 21.4 24.5880859375 21.3189453125 24.45 21.25 24.3 21.3 24.2 21.35
L 23 17.55 25.95 17.9
M 27.9 22.5
Q 28.8 22.3 30 22.1 30.29765625 22.1 30.6 22.1 31.51015625 22.1125 32.45 22.15 36.4 22.6 37.25 26.45 37.8 28.9 35.35 29.55 35.1 29.2 34.85 28.9 34.619921875 28.6123046875 34.35 28.35
L 34.35 28.3
Q 32.43046875 26.332421875 29.6 26.25 29.04296875 26.240625 28.45 26.3
L 24.2 27.15 27.9 22.5
M 11.8 5.55
Q 14.7 8.65 17.65 11.4 18.92421875 12.56796875 19.8 13.9 21.053515625 15.7427734375 21.6 17.9 22.7337890625 22.4353515625 21.35 26.8 21.3203125 26.8875 21.3 26.95
L 21.9 27.75
Q 20.85 27.9 19.85 28.05 16.05 28.35 13.4 31.4
L 13.25 32.35
Q 12.1 31.15 10.95 30 7.35 26.3 5.35 21.5 4.25 18.75 3.4 15.8 2.2 11.5 2.45 7.05 2.5041015625 6.1986328125 2.75 5.5 2.8412109375 5.234765625 2.95 5 3.6904296875 3.4728515625 5.45 2.75 9.25 2.85 11.8 5.55
M 17.75 35.35
L 16.75 34.7 16.5 32.05
Q 20.105859375 29.7783203125 24.1 29.15
L 24.15 29.15
Q 25.5015625 28.9314453125 26.9 28.9 27.0986328125 28.9 27.3 28.9 31.5 28.35 33.2 32.05 31.05 36.05 26.5 36.5 24.4576171875 36.8552734375 22.5 36.65 20.057421875 36.4341796875 17.75 35.35 Z"/>

<path fill="#FFFFFF" fill-opacity="0.4" stroke="none" d="
M 27.3 28.9
Q 27.0986328125 28.9 26.9 28.9 22.6 33.3646484375 22.6 35.8
L 22.6 35.9
Q 22.51953125 36.29296875 22.5 36.65 24.4576171875 36.8552734375 26.5 36.5 31.05 36.05 33.2 32.05 31.5 28.35 27.3 28.9
M 32.45 22.15
Q 31.51015625 22.1125 30.6 22.1 29.610546875 24.1935546875 29.6 26.25 32.43046875 26.332421875 34.35 28.3
L 34.95 28.2
Q 35 28.15 35.1 28.2 35.005078125 28.294921875 34.35 28.35 34.619921875 28.6123046875 34.85 28.9 35.1 29.2 35.35 29.55 37.8 28.9 37.25 26.45 36.4 22.6 32.45 22.15
M 33.1 25.3
L 33.15 25.25 32.95 25.65 32.95 25.55
Q 32.95 25.4 33.1 25.3
M 27.95 18.1
L 25.95 17.9
Q 24.75 19.2255859375 24.75 21.4 24.8224609375 21.4189453125 24.9 21.45 25.05 21.5 25.2 21.55 26.65 21.05 29.1 20.5 30.3 20.2 31.3 20.05 31.4 19.85 31.45 19.7
L 30.7 18.45 28.1 18.15
Q 27.93828125 18.2142578125 27.75 18.3 27.8796875 18.21328125 27.95 18.1 Z"/>

<path fill="#FFFFFF" fill-opacity="0.2784313725490196" stroke="none" d="
M 20.3 18.25
Q 20.3 17.7 20.3 17.3 20.3 15.74296875 19.8 13.9 18.92421875 12.56796875 17.65 11.4 14.7 8.65 11.8 5.55 9.25 2.85 5.45 2.75 3.6904296875 3.4728515625 2.95 5 3.805078125 7.659375 5.05 10.3 10.1 21.55 18.1 21.55 20 21.55 20.3 20.05 20.3 19.05 20.3 18.35
L 20.3 18.25
M 14.75 11.3
Q 14.75 11.05 14.75 10.8 14.95 11.2 15.15 11.55 14.95 11.4 14.75 11.3 Z"/>
</g>

<g id="MovieClips_Symbol_228_39_Layer1_0_FILL">
<path fill="#F7E48F" stroke="none" d="
M 23.85 15.25
Q 23.7 14.95 22.25 12.15 20.05 7.8 15.65 3.55 15.5 3.55 15.35 3.55 11.4 2 9.35 1.3
L 9.3 1.3
Q 8.85 1.3 8.65 1.1 8.45 1 8.3 0.95 8.3 1 8.3 1.05 8.3 1.35 7.5 1.8 6.6 2.3 5.8 2.3 5.7 2.3 5.65 2.3 5.35 2.75 5.15 3.35 4.4 5.55 4.4 8.4 4.4 14.35 7.05 21.3 10.2 29.65 15.35 33.1 15.75 33.1 21.4 29.3
L 23.45 28.45
Q 24.9 27.85 25.15 27.15 25.35 26.6 25.35 25.5 25.3 24.5 25.3 24.35 25.3 22 25.3 21.7 25.25 21.4 24.8 18.3 24.6 16.95 23.85 15.25 Z"/>
</g>

<g id="MovieClips_Symbol_264_39_Layer1_0_FILL">
<path fill="#DAC849" stroke="none" d="
M 25.45 15.1
Q 24.5 15.2 24.15 15.7 24.25 15.8 24.3 15.9 24.3 16.3 24.45 17.05 24.75 17.45 25.35 18.1 26.7 19.95 26.7 21.65 26.7 22.55 24.95 27.6 24.6 28.05 23.6 29 23.5 29.1 22.5 29.35 21.45 29.6 20.9 29.9 19.1 30.8 18.8 31.35 18.7 31.55 18.7 32.8 18.7 34.75 20.5 35.3 21.75 35.7 26.95 37.1
L 30.55 37.1
Q 31.65 37 32.9 36.15 33.95 35.4 34.45 34.7 36.25 32.4 36.7 31.7 37.6 30.2 39.4 28.4 40.3 27.5 40.3 25.8 40.3 24 38.8 22.5 36.5 20.55 35 18.85 34.15 17.75 33.55 17.15 32.45 16.05 30.85 15.55 26.7 15 25.45 15.1 Z"/>
</g>
</defs>

<g transform="matrix( 1, 0, 0, 1, -28.4,-10.7) ">
<g transform="matrix( 1, 0, 0, 1, 18.6,15.35) ">
<g transform="matrix( 1, 0, 0, 1, 0,0) ">
<use xlink:href="#Parts_Sets_Gecko_geckoFootStatic_0_Layer0_0_FILL"/>
</g>
</g>

<g transform="matrix( 1, 0, 0, 1, 2.5,-0.75) ">
<g transform="matrix( 1, 0, 0, 1, 0,0) ">
<use xlink:href="#Parts_Sets_Gecko_geckoFootOutline_0_Layer0_0_FILL"/>
</g>
</g>
</g>

<g transform="matrix( 1, 0, 0, 1, -28.15,-10.5) ">
<g transform="matrix( 1, 0, 0, 1, 0,0) ">
<use xlink:href="#MovieClips_Symbol_228_39_Layer1_0_FILL"/>
</g>
</g>

<g transform="matrix( 1, 0, 0, 1, -28.4,-10.7) ">
<g transform="matrix( 1, 0, 0, 1, 0,0) ">
<use xlink:href="#MovieClips_Symbol_264_39_Layer1_0_FILL"/>
</g>
</g>
</svg>
