
<svg xmlns="http://www.w3.org/2000/svg" version="1.1" xmlns:xlink="http://www.w3.org/1999/xlink" preserveAspectRatio="none" x="0px" y="0px" width="550px" height="400px" viewBox="0 0 550 400">
<defs>
<g id="MovieClips_Symbol_264_39_Layer1_0_FILL">
<path fill="#DAC849" stroke="none" d="
M 25.45 15.1
Q 24.5 15.2 24.15 15.7 24.25 15.8 24.3 15.9 24.3 16.3 24.45 17.05 24.75 17.45 25.35 18.1 26.7 19.95 26.7 21.65 26.7 22.55 24.95 27.6 24.6 28.05 23.6 29 23.5 29.1 22.5 29.35 21.45 29.6 20.9 29.9 19.1 30.8 18.8 31.35 18.7 31.55 18.7 32.8 18.7 34.75 20.5 35.3 21.75 35.7 26.95 37.1
L 30.55 37.1
Q 31.65 37 32.9 36.15 33.95 35.4 34.45 34.7 36.25 32.4 36.7 31.7 37.6 30.2 39.4 28.4 40.3 27.5 40.3 25.8 40.3 24 38.8 22.5 36.5 20.55 35 18.85 34.15 17.75 33.55 17.15 32.45 16.05 30.85 15.55 26.7 15 25.45 15.1 Z"/>
</g>
</defs>

<g transform="matrix( 1, 0, 0, 1, -28.4,-10.7) ">
<g transform="matrix( 1, 0, 0, 1, 0,0) ">
<use xlink:href="#MovieClips_Symbol_264_39_Layer1_0_FILL"/>
</g>
</g>
</svg>
