
<svg xmlns="http://www.w3.org/2000/svg" version="1.1" xmlns:xlink="http://www.w3.org/1999/xlink" preserveAspectRatio="none" x="0px" y="0px" width="550px" height="400px" viewBox="0 0 550 400">
<defs>
<g id="Layer0_0_FILL">
<path fill="#FFFFFF" stroke="none" d="
M 0.1 5.5
Q 0.35 8.2 1.15 10.65 1.9 12.85 3.05 14.95 3.55 15.85 4.25 16.65 4.8 17.35 5.6 17.4 5.75 17.5 5.9 17.4 6.2 17.5 6.5 17.2 6.65 17.15 6.7 17.1
L 6.6 17.15
Q 7.25 16.65 7.4 15.85 7.6 15.05 7.25 14.35 7.5 14.8 6.95 13.55
L 6.3 12.55
Q 5.75 11.85 5.35 11.1
L 5.1 10.65
Q 5.5 11.25 5.05 10.5
L 4.6 9.65 2.95 4.6
Q 2.6 2.45 2.15 0.7 1.9 -0.05 1.3 0 0.65 0.05 0.4 0.75 -0.3 3.1 0.1 5.5 Z"/>
</g>
</defs>

<g transform="matrix( 1, 0, 0, 1, 0,0) ">
<use xlink:href="#Layer0_0_FILL"/>
</g>
</svg>
