
<svg xmlns="http://www.w3.org/2000/svg" version="1.1" xmlns:xlink="http://www.w3.org/1999/xlink" preserveAspectRatio="none" x="0px" y="0px" width="550px" height="400px" viewBox="0 0 550 400">
<defs>
<g id="Layer0_0_FILL">
<path fill="#330000" fill-opacity="0.5019607843137255" stroke="none" d="
M 22.4 -0.3
Q 20.05 -3.65 16.5 -3.65 14.85 -3.65 10.2 -0.65 5.45 2.35 0.55 6.6 -12.15 17.55 -12.15 24.1 -12.15 31.9 -9.2 35.35 -8.25 36.45 -7.15 36.95
L -6.15 37.25
Q -5.55 37.25 0.5 34.5 6.55 31.8 9.35 31.8 10.65 31.75 16 36.35 21.35 40.95 26.3 40.9 33.25 40.9 38.55 36.7
L 42.35 33.7
Q 44.55 32.4 47.15 32.4 54.3 32.4 57.3 31.25 61.7 29.65 61.7 25 61.7 19.75 59.6 16.75 57.05 13.1 51.55 13.15 48.45 13.15 46.65 14.95 45.7 15.9 42.4 13.65
L 35.3 8.95
Q 31.65 6.7 30.3 6.7 28.1 6.7 26.35 8 24.45 9.5 22.45 9.65
L 24.2 4.5
Q 24.2 2.3 22.4 -0.3
M 50.4 23.85
L 45.95 24.2
Q 40.2 24.25 33.5 29.35
L 27.9 34.45
Q 25.65 34.45 20 31.15 14.3 27.75 9.55 27.8 5.7 27.8 0.85 29.25 -1.6 30 -3.35 30.7 -4.5 30.7 -4.95 29.35 -5.3 28.3 -5.3 25.6 -5.3 17.65 2.8 10.4 9.85 4.1 14.75 4.05 16.4 4.05 17.65 4.65 18.75 5.2 19.9 5.1
L 20.05 4.85
Q 19.8 6.65 17.05 8.3 14.45 9.85 14.45 12.65 14.45 14.05 15.5 14.8 16.45 15.5 18.15 15.5 19.15 15.5 19.9 14.75
L 21.4 13.15
Q 23.9 10.75 29.8 10.7 30.6 10.7 34.85 15.35 39.1 19.95 42.4 19.9
L 50.1 17.95
Q 54.95 17.95 57 21.5 52.5 23.4 50.4 23.85 Z"/>
</g>
</defs>

<g transform="matrix( 1, 0, 0, 1, 0,0) ">
<use xlink:href="#Layer0_0_FILL"/>
</g>
</svg>
