
<svg xmlns="http://www.w3.org/2000/svg" version="1.1" xmlns:xlink="http://www.w3.org/1999/xlink" preserveAspectRatio="none" x="0px" y="0px" width="550px" height="400px" viewBox="0 0 550 400">
<defs>
<g id="Layer0_0_FILL">
<path fill="#FFFFFF" fill-opacity="0.25098039215686274" stroke="none" d="
M 4.55 21.65
Q 5.85 21.65 7.1 19.4 8.15 17.45 8.15 16.5 8.15 13.45 5.35 15.6 2.5 17.7 2.5 19.25
L 2.85 20.5
Q 3.4 21.65 4.55 21.65
M 29.7 21.4
Q 29.7 19.65 26.5 19.55 23.25 19.5 23.25 21.75 23.1 22.25 23.45 22.7 24.05 23.6 26.35 23.55 29.7 23.55 29.7 21.4
M 48.05 21.5
Q 48.3 22 49.1 22 50.1 22 50.1 20.9 50.1 19.9 49.05 19.9 48 19.9 48 20.9
L 48.05 21.5 Z"/>
</g>
</defs>

<g transform="matrix( 1, 0, 0, 1, 0,0) ">
<use xlink:href="#Layer0_0_FILL"/>
</g>
</svg>
