
<svg xmlns="http://www.w3.org/2000/svg" version="1.1" xmlns:xlink="http://www.w3.org/1999/xlink" preserveAspectRatio="none" x="0px" y="0px" width="550px" height="400px" viewBox="0 0 550 400">
<defs>
<g id="Layer0_0_FILL">
<path fill="#009966" stroke="none" d="
M 220.35 129
L 208 125
Q 223.2 117.1 219.1 108.15
L 214.25 98.75
Q 204.45 98.1 195.4 101.9
L 208.6 129.1 218.1 131.7 220.35 129
M 207.6 124.95
L 207.75 125.2
Q 208.25 126.95 207.6 124.95
M 209.35 99.95
L 209.25 100.25
Q 207.65 99.15 209.35 99.95
M 183.5 72.5
Q 183.45 69.55 182.85 69 182.25 68.45 179.75 69
L 174.9 69.95
Q 166.1 69.2 163.4 70.2 162.55 70.55 161.85 71.35
L 161.85 71.4 160.55 71.45
Q 155 69.3 149.75 68.4
L 140.85 68.05 141.25 67.85
Q 135.9 68.45 123.75 74.15 111.55 79.8 118.3 93.9 125 108.05 144.05 116.35 163.1 124.6 161.2 140.45 159.3 156.3 164.25 173.25 172.7 155.5 188.45 142.75
L 180.75 137.8 186.55 142.1
Q 157.65 131.45 149.8 106.05 149.45 104.95 149.65 103.75 154.55 102.1 158.55 105.4 162.05 108.25 164 112.25 163.1 94.4 175.9 82
L 177.5 80.5 176.15 79.6 176.2 78.2
Q 177.15 76.7 183.5 77
L 183.5 72.5
M 163.05 72.1
L 162.9 72.4 162.65 72.3 163.05 72.1 Z"/>

<path fill="#9D9D9D" stroke="none" d="
M 169.3 63.2
L 169 63
Q 152.25 55.6 142.5 64.25
L 146.25 64.75 141.25 67.85 140.85 68.05 149.75 68.4
Q 156.3 68.1 163.25 66.25
L 160.5 64 169.3 63.2
M 146.5 67
L 142.5 67.25
Q 144.4 66.3 146.5 67 Z"/>
</g>
</defs>

<g transform="matrix( 1, 0, 0, 1, 0,0) ">
<use xlink:href="#Layer0_0_FILL"/>
</g>
</svg>
