
<svg xmlns="http://www.w3.org/2000/svg" version="1.1" xmlns:xlink="http://www.w3.org/1999/xlink" preserveAspectRatio="none" x="0px" y="0px" width="550px" height="400px" viewBox="0 0 550 400">
<defs>
<g id="Graphics_Symbol_801_0_Layer0_0_FILL">
<path fill="#FF0000" stroke="none" d="
M 96.15 139.45
Q 95.45 142.15 93.2 145.55 98.3 146.65 102.95 148.6 102.4 147.65 101.7 145.05
L 101.15 142.55
Q 101.15 140.3 102.05 138.65 103.15 136.6 105.8 135.05
L 95.8 132.95
Q 97.1 135.95 96.15 139.45
M 62.2 128.75
L 62.65 130.95
Q 62.65 133.95 61.1 137.15 59.85 139.65 58.85 140.45
L 69.25 142 70.1 142.05
Q 69.05 141.3 68 139.55 66.6 137.1 66.6 134.6 66.6 132.55 67 131.35 67.8 128.8 70.25 127.6
L 61.15 126.6 62.2 128.75
M 79.1 129.3
Q 80.2 131.85 80.2 132.95
L 79.35 136.5
Q 78.3 140.25 77.15 141.8
L 76.55 142.4 84.6 143.6
Q 84.4 143.5 83.7 141.55 83 139.5 83 138.85 83 136.2 83.75 134.15 84.75 131.5 86.65 130.95
L 79.1 129.3
M 49.1 131.8
Q 49.1 129.95 50.6 127.9 51.5 126.6 52.5 125.8
L 44.15 124.15 44.6 126.95
Q 44.6 127.8 43.6 130.9 42.55 134.3 41.8 135.25
L 44.65 136.35 51 138.55
Q 49.1 135.5 49.1 131.8 Z"/>

<path fill="#660000" stroke="none" d="
M 3.75 44.85
Q 4 42.65 2.6 41 1.05 39.25 -1.55 39.25 -2 39.25 -5.45 40.55 -9.3 41.95 -11.15 43 -11 42.35 -11 41.35 -11 37.15 -12.3 34.35 -14.15 30.35 -19.25 26.85 -19.85 28.4 -21.1 34.25 -21.1 37.1 -18.05 40.7 -15.05 44.25 -15.05 45.35
L -18.7 46.15
Q -21.75 47.15 -21.75 49.15 -21.75 52 -16.75 52 -12.05 52.05 -9.5 50.55 -10.4 52.85 -10.7 52.95 -7.5 55.15 -4.7 60.95 -1.5 67.8 -2.95 72.95 -1.65 73.15 -0.15 74 -2 75.5 -6.4 77 -9.25 78 -9.25 80.15 -9.25 83.2 -7.85 84.65 -6.7 85.85 -4.8 85.85
L 0.3 83.9
Q 5.25 81.9 6.55 81.9
L 9.25 84.9 12.1 88.15 15.8 91.35 19.9 94.15
Q 20.45 93.2 22.5 91.45 24.4 89.8 24.75 88.95
L 15.4 82.9
Q 13.85 81.95 13.85 80.9 13.85 79.45 17.55 78.1 21.25 76.8 21.25 75.6 21.25 73.65 19.2 72.5 17.65 71.65 16.1 71.65 14.7 71.65 10.4 72.9
L 5.9 74.25
Q 4.4 73.1 4.4 72.75 4.4 72.1 5.05 71.45 6 70.45 7.9 70.25 6.8 68.7 5.55 64.7 3.8 59.25 3.2 52.5
L 0.7 52.75
Q -2.95 52.65 -3.95 50.85
L -4.6 50.05
Q -0.75 50.25 1.5 48.55 3.5 47.15 3.75 44.85
M 83.15 -8.4
L 82.95 -1.85
Q 82.7 1.5 81.35 2.5 75.25 7 79.6 9.75
L 83.4 11.55
Q 85.45 12.5 85.45 13.25 85.45 16.05 83.1 21.85 81.05 26.95 79 30.2
L 79.9 31 81.1 32.5
Q 80.25 33.5 74.9 33.8 70.5 34.1 70.5 37.4 70.5 40.25 72.05 41.45 73 42.25 75.45 42.7 77.95 43.15 78.8 43.7 80.35 44.7 80.35 47.2 79.25 53.1 78 55.8
L 80.7 57.8
Q 82.5 56.25 82.75 53.45
L 82.7 48.65
Q 82.7 45.4 86.85 43.1 91 40.85 91 38.3 91 35.8 88.75 34.7 86 33.35 85.65 32.6
L 85.95 31.7 89.3 32 90.8 22.4 92.2 14.25
Q 92.2 13.75 91.75 13.8 91.3 13.85 91.3 13.35 91.3 12.7 91.45 12.2
L 91.9 10.75
Q 95.35 12.2 97.85 12.2 100.35 12.2 101.35 11.05 102.35 9.95 102.35 7.3 102.35 2.75 101.3 1.95
L 96.75 1.55 94.35 1.45 95.15 -12.15
Q 95.15 -15.2 93.3 -16.3 92.15 -17 89.85 -17 83.65 -17 83.15 -8.4 Z"/>
</g>

<g id="Graphics_Symbol_851_0_Layer2_0_FILL">
<path fill="#000000" stroke="none" d="
M 88.3 -20.7
Q 86.65 -20.7 83.55 -16.7 79.95 -12.05 79.95 -7.2 79.95 -1.05 77 0.4 75.35 1.15 74.95 1.7 74 2.85 74 5.55 74 8.6 74.95 10.4 76.35 13.25 80.35 14.7 78.45 20.85 77.1 26.95 76.1 30.15 72.6 31.2 69.9 32.05 68.45 34.4 67.35 36.15 67.35 37.75 67.35 41.95 70.2 44.65 72.45 46.8 75.05 47.1
L 74.5 53.85 65.25 50.9
Q 64.15 50.9 53.8 55.25 43.4 59.6 42.5 60.45 41.5 61.5 35.6 73 29.4 84.05 26 84.05 21 82.45 20.2 81.6 21.85 81.65 23.35 77.35
L 24.55 72.95
Q 24.55 69.65 21.7 69.25
L 15.5 69.1
Q 6.4 68.15 6.4 51.3 6.4 50.8 6.9 49.9
L 7.35 48.5
Q 7.35 42.15 5.6 39.15 3.7 35.9 -0.6 35.9 -3.3 35.9 -8.85 38
L -8.9 37.6
Q -9.65 32.1 -12.1 28.15 -14.4 24.55 -17.2 23.5 -20 22.4 -21.9 24.5 -23.95 26.75 -23.95 32.05 -23.95 34.25 -22.25 38.55
L -20.6 42.55
Q -20.6 43.2 -23 45.5
L -25.45 48.1
Q -25.45 49.85 -23.7 52.15 -21.1 55.55 -16.3 55.55 -11.8 55.55 -9.4 59.7 -7.2 63.5 -5.7 72.95 -10.6 73.6 -12.3 75.8 -13.2 76.9 -13.2 78.65 -13.2 83.1 -10.7 85.85 -8.2 88.7 -4 88.7 -1.65 88.7 4.65 86.3 8.15 88.55 11.7 93.25 14.25 96.55 16.85 96.55
L 18.05 96.3
Q 15.65 100 13.75 106.15 13.75 107.9 16.4 109.55 20.3 112 28.2 112 28.8 112 33.45 115.25 38.8 118.45 43.05 118.45
L 45.5 118.2 46.25 122.65 40 120.95
Q 37.85 120.25 36.55 120.25 35.15 120.25 33.15 122.75 31.05 125.45 31.05 127.95 31.05 132.15 33.15 134.75 35.15 137.25 38.1 137.25 40.25 137.25 48.55 140.4 59.3 143.5 73.75 143.5
L 93 147.55
Q 94.95 147.95 99.25 150.05 103 151.9 104.7 151.9 108.65 151.9 110.1 151.2 114.7 148.95 114.7 140.85 114.7 139.4 114.05 137.95 121.65 136.65 124.5 134.65 127.25 132.75 127.25 128.9 127.25 127.6 126.3 124.85 132.7 124.3 137.25 119.9 140.3 117 143.3 111.2 144.1 109.65 148.1 106 151.7 101.8 151.7 96.4 150 87.9 147.7 84.3 145.65 81.1 139.45 77.2 133.75 73.95 133.75 73.7
L 133.7 73.1
Q 133.35 72.6 131.85 72.6
L 123.85 72.05
Q 122.45 72.05 111.9 74.7
L 101.5 77.35
Q 94.6 77.35 91.45 70.45 97.75 69 101.05 62.4 103.2 58.15 103.2 55.05 103.2 51.2 97.4 51.2 94.5 51.2 92.8 51.95 90.5 53.05 86.7 53.6
L 86.45 52
Q 86.6 51.4 91.15 45.3 95.3 39.65 95.3 36.9
L 93.15 33.15 95.15 15.85
Q 98.65 18.6 102.2 14.3 105.6 10.05 105.6 3.85 105.6 0.1 102.5 -1 98.45 -1.9 96.45 -3.2 97.6 -5.3 98.2 -8.25
L 98.55 -11.55
Q 98.55 -16.05 95.4 -18.5 92.6 -20.7 88.3 -20.7
M 82.95 -1.85
L 83.15 -8.4
Q 83.65 -17 89.85 -17 92.15 -17 93.3 -16.3 95.15 -15.2 95.15 -12.15
L 94.35 1.45 96.75 1.55 101.3 1.95
Q 102.35 2.75 102.35 7.3 102.35 9.95 101.35 11.05 100.35 12.2 97.85 12.2 95.35 12.2 91.9 10.75
L 91.45 12.2
Q 91.3 12.7 91.3 13.35 91.3 13.85 91.75 13.8 92.2 13.75 92.2 14.25
L 90.8 22.4 89.3 32 85.95 31.7 85.65 32.6
Q 86 33.35 88.75 34.7 91 35.8 91 38.3 91 40.85 86.85 43.1 82.7 45.4 82.7 48.65
L 82.75 53.45
Q 82.5 56.25 80.7 57.8
L 78 55.8
Q 79.25 53.1 80.35 47.2 80.35 44.7 78.8 43.7 77.95 43.15 75.45 42.7 73 42.25 72.05 41.45 70.5 40.25 70.5 37.4 70.5 34.1 74.9 33.8 80.25 33.5 81.1 32.5
L 79.9 31 79 30.2
Q 81.05 26.95 83.1 21.85 85.45 16.05 85.45 13.25 85.45 12.5 83.4 11.55
L 79.6 9.75
Q 75.25 7 81.35 2.5 82.7 1.5 82.95 -1.85
M 100 57.75
L 99.45 58.25 90.15 68.5 83.75 60.5 99.6 55.15
Q 100.15 56 100.15 57
L 100 57.75
M 101.9 80.05
Q 105.25 80.05 114.45 77.85 124.15 75.55 126.35 75.4 117.75 87.15 117.5 90.95 117.25 95.25 126.6 95.25
L 133.5 94
Q 136.9 94 139.4 100.2 140.65 103.35 141.25 106.55 141.25 111.95 136.55 116.4 132.35 120.4 128.65 120.4 126.45 120.4 124.45 118.95 120.85 116.35 112.15 113.3 113 112.25 113.6 110.25
L 114.1 107.3
Q 114.1 106.65 113.65 106.5
L 112.45 106.45 111.6 106.55 111.5 106.6
Q 105.65 112.4 100.6 118.05
L 102.15 118.25 105.8 117.5
Q 108.55 116.75 109.55 116.1 110.1 116.95 113.75 119.85
L 118 123
Q 120.5 124.45 121.3 124.35
L 123.2 131 110.7 134.3
Q 102.15 134.3 97.65 132.45 92.45 130.3 88.35 129.95 81.4 129.35 77.4 127.8 73.9 126.45 72.15 126.45 63.4 126.45 57.2 124.95 48.3 122.8 47 117.85 48.7 117.3 50 116.5 51.3 115.75 53 114.25
L 52.8 114.05
Q 47.7 115.55 41.6 114.1 36.4 112.85 34.65 110.95 37.85 110.4 42.1 106.95 45.45 104.2 47.05 101.85
L 44.1 100.4
Q 42.35 100.4 40 101.6
L 35.3 104.2
Q 28.15 107.95 20 107.95
L 18.7 107.65
Q 18.1 107.3 18.1 106.7 18.1 105.15 22.3 99.7 26.95 93.8 32.65 88.6
L 32.45 88.35 31.85 87.75 30.8 87.45
Q 29.85 87.45 28.6 87.95
L 28.35 86.95 29.3 86.75
Q 33.3 86.45 36.9 79.9 40.55 71.95 42.6 68.95 47.75 61.5 55.5 57.4 61.5 54.2 65.7 54.2 71.55 54.2 76.2 58.25 78.9 60.6 83.5 67.15 88 73.55 90.95 76 95.75 80.05 101.9 80.05
M 136.75 92.1
Q 138.55 91 140.25 87.65 141.65 84.9 142 82.95 144.5 86.75 146.6 93.95
L 145.6 97.05
Q 144.6 99.7 144.6 101.45
L 144.55 102.8 143.8 104.3 143.6 102.75
Q 143.85 100.95 140.55 96.6 138 93.15 136.75 92.1
M 2.6 41
Q 4 42.65 3.75 44.85 3.5 47.15 1.5 48.55 -0.75 50.25 -4.6 50.05
L -3.95 50.85
Q -2.95 52.65 0.7 52.75
L 3.2 52.5
Q 3.8 59.25 5.55 64.7 6.8 68.7 7.9 70.25 6 70.45 5.05 71.45 4.4 72.1 4.4 72.75 4.4 73.1 5.9 74.25
L 10.4 72.9
Q 14.7 71.65 16.1 71.65 17.65 71.65 19.2 72.5 21.25 73.65 21.25 75.6 21.25 76.8 17.55 78.1 13.85 79.45 13.85 80.9 13.85 81.95 15.4 82.9
L 24.75 88.95
Q 24.4 89.8 22.5 91.45 20.45 93.2 19.9 94.15
L 15.8 91.35 12.1 88.15 9.25 84.9 6.55 81.9
Q 5.25 81.9 0.3 83.9
L -4.8 85.85
Q -6.7 85.85 -7.85 84.65 -9.25 83.2 -9.25 80.15 -9.25 78 -6.4 77 -2 75.5 -0.15 74 -1.65 73.15 -2.95 72.95 -1.5 67.8 -4.7 60.95 -7.5 55.15 -10.7 52.95 -10.4 52.85 -9.5 50.55 -12.05 52.05 -16.75 52 -21.75 52 -21.75 49.15 -21.75 47.15 -18.7 46.15
L -15.05 45.35
Q -15.05 44.25 -18.05 40.7 -21.1 37.1 -21.1 34.25 -19.85 28.4 -19.25 26.85 -14.15 30.35 -12.3 34.35 -11 37.15 -11 41.35 -11 42.35 -11.15 43 -9.3 41.95 -5.45 40.55 -2 39.25 -1.55 39.25 1.05 39.25 2.6 41
M 55.9 125.55
Q 58 125.55 59.5 127.7 60.95 129.8 60.95 132.8 60.95 135.8 59.5 137.95 58 140.05 55.9 140.05 53.8 140.05 52.35 137.95 50.85 135.8 50.85 132.8 50.85 129.8 52.35 127.7 53.8 125.55 55.9 125.55
M 50.6 127.9
Q 49.1 129.95 49.1 131.8 49.1 135.5 51 138.55
L 44.65 136.35 41.8 135.25
Q 42.55 134.3 43.6 130.9 44.6 127.8 44.6 126.95
L 44.15 124.15 52.5 125.8
Q 51.5 126.6 50.6 127.9
M 42.85 128.65
Q 42.85 131.65 41.4 133.75 39.9 135.85 37.85 135.85 35.8 135.85 34.35 133.75 32.85 131.65 32.85 128.65 32.85 125.65 34.35 123.55 35.8 121.45 37.85 121.45 39.9 121.45 41.4 123.55 42.85 125.65 42.85 128.65
M 80.2 132.95
Q 80.2 131.85 79.1 129.3
L 86.65 130.95
Q 84.75 131.5 83.75 134.15 83 136.2 83 138.85 83 139.5 83.7 141.55 84.4 143.5 84.6 143.6
L 76.55 142.4 77.15 141.8
Q 78.3 140.25 79.35 136.5
L 80.2 132.95
M 76.95 129.75
Q 78.4 131.85 78.4 134.85 78.4 137.85 76.95 140 75.45 142.1 73.4 142.1 71.35 142.1 69.9 140 68.4 137.85 68.4 134.85 68.4 131.85 69.9 129.75 71.35 127.6 73.4 127.6 75.45 127.6 76.95 129.75
M 62.65 130.95
L 62.2 128.75 61.15 126.6 70.25 127.6
Q 67.8 128.8 67 131.35 66.6 132.55 66.6 134.6 66.6 137.1 68 139.55 69.05 141.3 70.1 142.05
L 69.25 142 58.85 140.45
Q 59.85 139.65 61.1 137.15 62.65 133.95 62.65 130.95
M 86.3 133.1
Q 87.75 131 89.8 131 91.85 131 93.35 133.1 94.8 135.2 94.8 138.2 94.8 141.2 93.35 143.3 91.85 145.4 89.8 145.4 87.75 145.4 86.3 143.3 84.8 141.2 84.8 138.2 84.8 135.2 86.3 133.1
M 93.2 145.55
Q 95.45 142.15 96.15 139.45 97.1 135.95 95.8 132.95
L 105.8 135.05
Q 103.15 136.6 102.05 138.65 101.15 140.3 101.15 142.55
L 101.7 145.05
Q 102.4 147.65 102.95 148.6 98.3 146.65 93.2 145.55
M 113 142.9
Q 113 145.9 111.55 148.05 110.05 150.15 107.95 150.15 105.85 150.15 104.4 148.05 102.9 145.9 102.9 142.9 102.9 139.9 104.4 137.8 105.85 135.65 107.95 135.65 110.05 135.65 111.55 137.8 113 139.9 113 142.9
M 74.95 80.35
Q 74.95 78.8 73.9 77.75 72.8 76.65 71.3 76.65 69.8 76.65 68.75 77.75 67.65 78.8 67.65 80.35 67.65 81.9 68.75 83 69.8 84.05 71.3 84.05 72.8 84.05 73.9 83 74.95 81.9 74.95 80.35
M 81.6 79
Q 82.75 77.8 82.75 76.1 82.75 74.4 81.6 73.25 80.4 72.05 78.75 72.05 77.1 72.05 75.95 73.25 74.75 74.4 74.75 76.1 74.75 77.8 75.95 79 77.1 80.15 78.75 80.15 80.4 80.15 81.6 79 Z"/>

<path fill="#FFCC33" stroke="none" d="
M 111.55 148.05
Q 113 145.9 113 142.9 113 139.9 111.55 137.8 110.05 135.65 107.95 135.65 105.85 135.65 104.4 137.8 102.9 139.9 102.9 142.9 102.9 145.9 104.4 148.05 105.85 150.15 107.95 150.15 110.05 150.15 111.55 148.05
M 89.8 131
Q 87.75 131 86.3 133.1 84.8 135.2 84.8 138.2 84.8 141.2 86.3 143.3 87.75 145.4 89.8 145.4 91.85 145.4 93.35 143.3 94.8 141.2 94.8 138.2 94.8 135.2 93.35 133.1 91.85 131 89.8 131
M 78.4 134.85
Q 78.4 131.85 76.95 129.75 75.45 127.6 73.4 127.6 71.35 127.6 69.9 129.75 68.4 131.85 68.4 134.85 68.4 137.85 69.9 140 71.35 142.1 73.4 142.1 75.45 142.1 76.95 140 78.4 137.85 78.4 134.85
M 41.4 133.75
Q 42.85 131.65 42.85 128.65 42.85 125.65 41.4 123.55 39.9 121.45 37.85 121.45 35.8 121.45 34.35 123.55 32.85 125.65 32.85 128.65 32.85 131.65 34.35 133.75 35.8 135.85 37.85 135.85 39.9 135.85 41.4 133.75
M 59.5 127.7
Q 58 125.55 55.9 125.55 53.8 125.55 52.35 127.7 50.85 129.8 50.85 132.8 50.85 135.8 52.35 137.95 53.8 140.05 55.9 140.05 58 140.05 59.5 137.95 60.95 135.8 60.95 132.8 60.95 129.8 59.5 127.7 Z"/>
</g>

<g id="Graphics_Symbol_851_0_Layer1_0_FILL">
<path fill="#000000" fill-opacity="0.30196078431372547" stroke="none" d="
M 109.8 140.5
Q 109.8 139.95 109.45 139.6
L 108.5 139.2
Q 107.95 139.2 107.6 139.6 107.2 139.95 107.2 140.5 107.2 141.05 107.6 141.45 107.95 141.8 108.5 141.8 109.05 141.8 109.45 141.45
L 109.8 140.5
M 90.3 134.7
Q 89.6 134.7 89.15 135.2 88.65 135.65 88.65 136.3 88.65 136.95 89.15 137.45 89.6 137.9 90.3 137.9 91 137.9 91.5 137.45 91.95 136.95 91.95 136.3 91.95 135.65 91.5 135.2 91 134.7 90.3 134.7
M 38.9 129.3
Q 39.7 129.3 40.3 128.75 40.85 128.15 40.85 127.35 40.85 126.55 40.3 126 39.7 125.4 38.9 125.4 38.1 125.4 37.55 126 36.95 126.55 36.95 127.35 36.95 128.15 37.55 128.75 38.1 129.3 38.9 129.3
M 80.95 139.15
Q 78.95 139.15 77.55 139.95 76.15 140.7 76.15 141.8 76.15 142.9 77.55 143.7 78.95 144.45 80.95 144.45 82.95 144.45 84.35 143.7
L 85.4 142.8
Q 86.7 145.35 89.7 145.35
L 90.9 145.05 93.05 144.1
Q 92.8 147.2 96.55 148.15
L 104.25 148.9 103.85 147.1
Q 104.9 148.75 105.9 149.65
L 106.8 150.2
Q 109.9 150.2 111.8 148.1 113.35 146.35 113.3 144.4
L 112.55 144.2 110.05 144.9 107.25 145.55
Q 105.3 145.55 103.95 143.7
L 102.35 141.65
Q 102.65 144.4 103.6 146.65
L 103.25 146.15
Q 98.4 141.8 94.15 142.6
L 94.65 140.8 94.75 139.75
Q 93.05 140.7 91.4 140.7 90.05 140.7 87.95 139.45 85.5 138 84.2 136
L 84.4 137.95 84.6 140.05 84.35 139.95
Q 82.95 139.15 80.95 139.15
M 70.85 135.85
Q 69 134.65 67.85 132.6
L 67.9 134
Q 68.6 139.15 70.35 140.7
L 71.9 141.85 71.4 142.3
Q 71.25 142.65 72.8 142.65 74 142.65 76.05 140.6 78.15 138.55 78.15 137.3
L 78 136.5 77.4 136.35 76.25 136.85 74.8 137.15
Q 72.75 137.15 70.85 135.85
M 75.6 132.65
Q 75.6 131.85 75.05 131.3 74.5 130.75 73.7 130.75 72.9 130.75 72.35 131.3 71.8 131.85 71.8 132.65 71.8 133.45 72.35 134 72.9 134.55 73.7 134.55 74.5 134.55 75.05 134 75.6 133.45 75.6 132.65
M 40.8 135.1
Q 41.75 134.15 41.85 132.8 34.85 132.25 34.85 125.8
L 35.05 124.15 35.2 123.25 35 123.1
Q 34.05 124 33.15 125.6 32.1 127.45 32.1 128.8 32.1 136.15 38 136.15 39.7 136.15 40.8 135.1
M 42.65 131.75
L 42.45 131.85 42.4 132.5 41.95 133.6
Q 41.5 134.2 41.5 134.7 41.5 135.15 45.1 137.15 48.95 139.3 50.85 139.3
L 51.55 139.15
Q 51.5 138.95 51.6 138.8 51.65 137.3 50.15 135.65 47.8 133.1 42.65 131.75
M 54.55 131.05
Q 54.55 131.6 54.95 132 55.35 132.4 55.9 132.4 56.45 132.4 56.85 132 57.25 131.6 57.25 131.05 57.25 130.5 56.85 130.1 56.45 129.7 55.9 129.7 55.35 129.7 54.95 130.1 54.55 130.5 54.55 131.05
M 54.85 135.15
L 51.15 130
Q 50.7 131.95 50.7 133.5 50.7 136.3 52.75 138.65 54.45 140.6 55.5 140.6 57.75 140.05 59.65 138.15
L 59.15 138.95 58.9 139.5 58.9 140 58.6 140.6 58.8 141.15 60.3 141.35 62 141.65 67.75 142.35 69.3 142.05 70.45 141.45
Q 69.2 138.55 66.05 137.1 62.9 135.6 60.55 136.85 61.35 134.85 60.4 134.85
L 54.85 135.15
M 27.45 95.7
L 28 93.9 28.8 91.65 28.35 91.3 27.55 91.05
Q 23.05 95.75 19.9 100.4 16.75 105.05 16.75 106.95 16.75 107.5 18.9 109.1 21.6 111.15 24.55 111.15
L 29.3 110.35
Q 32.1 109.6 34.15 108.65 33.1 109.2 33.1 110.05 33.1 112 36.65 114.3 41 117.1 47.35 116.85 47.35 118.25 48.65 120.85 50.15 123.8 51.45 123.8
L 57.15 124.9 62.1 125.95
Q 69.65 125.95 86.35 130.3 103.05 134.6 108.4 134.6 115.95 134.6 120.2 133.15 124.3 131.75 124.3 129.45 124.3 124.75 122.95 122.6 121.6 120.5 118.75 120.5
L 117.35 120.75 116.4 121.85 117.35 123.45
Q 118.2 124.9 118.2 125.8 118.2 127.1 112.45 127.1 100.55 127.1 91.15 124.8 78.45 121.65 67.75 118.35 67.15 118.2 60.35 118.2
L 52.15 118.75 52.75 116.45 53.25 114.3 53 113.7 52.7 113.85
Q 49.5 114.4 46.25 113.9 41.45 113.05 41.45 109.85 41.45 108.65 43.7 106.85 45.9 105 45.9 103.8
L 45.8 102.9 45.45 102.25 45.15 103.35
Q 44.55 104.55 40.85 105.9
L 36.15 107.5 40.55 104.2 43.65 101.55 41.75 101.35 39.15 101.15 35.85 101.6 32.55 102.05
Q 30.5 102.05 29 100.3 27.45 98.45 27.45 95.7
M 1.25 86.35
Q 3.3 85.1 4.45 85.1 5.1 85.1 6.7 86.7
L 10.15 90.25
Q 15.55 95.4 20.75 95.4 22.35 95.4 22.35 93.5 20.65 89.55 17.25 87.55 14.8 86.1 12.55 84
L 9.35 81.2
Q 5.85 78.8 -2.45 79.5
L 1.35 75.75
Q 1.85 75.15 1.85 74.55 1.85 71.85 -0.7 63.95 -2.85 57.35 -4.2 54.35 -5.9 50.55 -8 49.65
L -15.6 47.8
Q -14.2 45.85 -12.9 45.5 -12.35 45.4 -12.35 43.45 -12.35 42.85 -14.75 38.6 -17.2 34.4 -17.2 31.8 -17.2 28.6 -16.05 27.1 -17.3 26.4 -18.45 26.4 -20.2 26.4 -21.1 28.8 -21.8 30.7 -21.8 33.5 -21.8 34.75 -20.55 38.2
L -19.55 40.45
Q -19.25 41.05 -19.25 41.6 -19.25 42.3 -19.5 42.85
L -20.95 45.7 -22.55 48.6
Q -22.95 49.25 -22.95 49.8 -22.95 50.95 -20.1 52.6 -17.05 54.35 -14.15 54.35
L -10.8 54
Q -8.1 62.15 -5.85 65.9 -4.9 67.5 -4.9 70.6 -4.9 72.95 -7.65 75.45 -10.45 77.95 -10.45 79 -10.45 81.05 -9.2 83.55 -7.2 87.55 -3.15 87.55 -0.85 87.55 1.25 86.35
M 13.85 81.9
Q 14.5 82.6 14.95 82.6
L 15.8 82.75 15.85 82.1 19.4 79.05
Q 22.95 76 22.95 75.5 22.95 74.85 22.6 74.3
L 21.8 73.25
Q 18.55 75.4 14.7 76.5 12.85 77.05 12.85 78.85 12.85 80.85 13.85 81.9
M 3.15 49.35
Q 6.1 47.05 6.1 44.15
L 5.9 43.25 5.7 42.9 4.05 42.75
Q 3 42.75 -1.2 45.4 -5.5 48.1 -5.5 49
L -5.4 49.8 -4.65 51.15
Q -4.25 51.7 -3.65 51.7 0.15 51.7 3.15 49.35
M 147.15 89
Q 145.4 94.2 144.75 94.45
L 137.65 94.95 139.15 97.9
Q 138.85 97.6 138.3 97.6 137.5 97.6 137.45 100.05
L 137.15 105.4
Q 135.85 113.2 126.6 113.2 121.15 113.2 117.4 111.25
L 113.45 109.25
Q 112.35 109.25 110.35 109.95
L 111.05 110.2
Q 111.65 110.35 111.65 110.95 111.65 114 116.4 117.6 121.35 121.35 126 121.35 129.85 121.35 135.65 118.2 143.85 113.8 143.85 106.55
L 146.25 102
Q 148.65 97.25 148.65 94.1
L 148.2 91.8 147.15 89
M 89.55 45.6
Q 90.6 44.5 90.6 42.95 90.6 41.4 89.55 40.35 88.45 39.25 86.95 39.25 85.45 39.25 84.4 40.35 83.3 41.4 83.3 42.95 83.3 44.5 84.4 45.6 85.45 46.65 86.95 46.65 88.45 46.65 89.55 45.6
M 93.25 8.95
Q 91.6 9.8 91.6 11.05 91.6 12.3 93.25 13.2 94.85 14.05 97.15 14.05 99.45 14.05 101.1 13.2 102.7 12.3 102.7 11.05 102.7 9.8 101.1 8.95 99.45 8.05 97.15 8.05 94.85 8.05 93.25 8.95
M 89.6 -18.95
Q 83.75 -18.95 82.8 -12.1 82.65 -3.6 81.25 -0.4
L 76.8 4.35
Q 75.5 5.55 75.5 7.25 75.5 10.6 78.65 11.65 81.75 12.7 81.75 16.9 81.75 26.15 78.35 29.9 74.95 32 74.95 32.95
L 72.3 34.05
Q 69.65 35.25 69.65 36.15 69.65 41.55 73.5 44.25
L 76.15 46.3
Q 77.3 47.55 77.25 49.6 77.1 54.95 77.6 56.3 77.85 57 79.5 58.1 82.1 56.35 82.1 48.4 82.1 42.35 80.45 40.85
L 74.55 38
Q 75.35 37.4 75.35 36.9 80.5 36.55 81.05 36.05 82.1 35.15 84.45 25.9 86.6 17.5 87.6 15.6 87.9 15.05 87.9 13.5 87.9 8.9 82.55 6.7 84.1 3.8 86.5 2.8 87.65 2.35 88.4 -4.45 89.4 -13.65 91.55 -15.85 92.7 -17.1 94.6 -17.4
L 94.5 -17.6
Q 92.3 -18.95 89.6 -18.95 Z"/>
</g>

<g id="Graphics_Symbol_851_0_Layer0_0_FILL">
<path fill="#000000" fill-opacity="0.30196078431372547" stroke="none" d="
M 97.45 53.2
Q 96.8 53.2 92.6 54.95
L 81.1 59.6
Q 82.7 64.35 85.35 67 87.85 69.45 90.55 69.45 94.75 69.45 98.2 63.65 101 58.9 101 56.1 101 54.65 100.35 54 99.6 53.2 97.45 53.2
M 99.6 55.15
Q 100.15 56 100.15 57
L 100 57.75 99.45 58.25 90.15 68.5 83.75 60.5 99.6 55.15 Z"/>
</g>

<g id="Parts_Heads_headColorMC_35_Layer1_0_FILL">
<path fill="#663300" stroke="none" d="
M 140.25 87.65
Q 138.55 91 136.75 92.1 138 93.15 140.55 96.6 143.85 100.95 143.6 102.75
L 143.8 104.3 144.55 102.8 144.6 101.45
Q 144.6 99.7 145.6 97.05
L 146.6 93.95
Q 144.5 86.75 142 82.95 141.65 84.9 140.25 87.65
M 114.45 77.85
Q 105.25 80.05 101.9 80.05 95.75 80.05 90.95 76 88 73.55 83.5 67.15 78.9 60.6 76.2 58.25 71.55 54.2 65.7 54.2 61.5 54.2 55.5 57.4 47.75 61.5 42.6 68.95 40.55 71.95 36.9 79.9 33.3 86.45 29.3 86.75
L 28.35 86.95 28.6 87.95
Q 29.85 87.45 30.8 87.45
L 31.85 87.75 32.45 88.35 32.65 88.6
Q 26.95 93.8 22.3 99.7 18.1 105.15 18.1 106.7 18.1 107.3 18.7 107.65
L 20 107.95
Q 28.15 107.95 35.3 104.2
L 40 101.6
Q 42.35 100.4 44.1 100.4
L 47.05 101.85
Q 45.45 104.2 42.1 106.95 37.85 110.4 34.65 110.95 36.4 112.85 41.6 114.1 47.7 115.55 52.8 114.05
L 53 114.25
Q 51.3 115.75 50 116.5 48.7 117.3 47 117.85 48.3 122.8 57.2 124.95 63.4 126.45 72.15 126.45 73.9 126.45 77.4 127.8 81.4 129.35 88.35 129.95 92.45 130.3 97.65 132.45 102.15 134.3 110.7 134.3
L 123.2 131 121.3 124.35
Q 120.5 124.45 118 123
L 113.75 119.85
Q 110.1 116.95 109.55 116.1 108.55 116.75 105.8 117.5
L 102.15 118.25 100.6 118.05
Q 105.65 112.4 111.5 106.6
L 111.6 106.55 112.45 106.45 113.65 106.5
Q 114.1 106.65 114.1 107.3
L 113.6 110.25
Q 113 112.25 112.15 113.3 120.85 116.35 124.45 118.95 126.45 120.4 128.65 120.4 132.35 120.4 136.55 116.4 141.25 111.95 141.25 106.55 140.65 103.35 139.4 100.2 136.9 94 133.5 94
L 126.6 95.25
Q 117.25 95.25 117.5 90.95 117.75 87.15 126.35 75.4 124.15 75.55 114.45 77.85
M 82.75 76.1
Q 82.75 77.8 81.6 79 80.4 80.15 78.75 80.15 77.1 80.15 75.95 79 74.75 77.8 74.75 76.1 74.75 74.4 75.95 73.25 77.1 72.05 78.75 72.05 80.4 72.05 81.6 73.25 82.75 74.4 82.75 76.1
M 73.9 77.75
Q 74.95 78.8 74.95 80.35 74.95 81.9 73.9 83 72.8 84.05 71.3 84.05 69.8 84.05 68.75 83 67.65 81.9 67.65 80.35 67.65 78.8 68.75 77.75 69.8 76.65 71.3 76.65 72.8 76.65 73.9 77.75
M 90.15 68.5
L 99.45 58.25 100 57.75 100.15 57
Q 100.15 56 99.6 55.15
L 83.75 60.5 90.15 68.5 Z"/>
</g>
</defs>

<g transform="matrix( 1, 0, 0, 1, -62.75,-76.85) ">
<g transform="matrix( 1, 0, 0, 1, 0,0) ">
<g transform="matrix( 1, 0, 0, 1, 0,0) ">
<use xlink:href="#Graphics_Symbol_801_0_Layer0_0_FILL"/>
</g>
</g>

<g transform="matrix( 1, 0, 0, 1, 0,0) ">
<g transform="matrix( 1, 0, 0, 1, 0,0) ">
<use xlink:href="#Graphics_Symbol_851_0_Layer2_0_FILL"/>
</g>

<g transform="matrix( 1, 0, 0, 1, 0,0) ">
<use xlink:href="#Graphics_Symbol_851_0_Layer1_0_FILL"/>
</g>

<g transform="matrix( 1, 0, 0, 1, 0,0) ">
<use xlink:href="#Graphics_Symbol_851_0_Layer0_0_FILL"/>
</g>
</g>

<g id="hat1" transform="matrix( 0.983917236328125, -0.17529296875, 0.17529296875, 0.983917236328125, 45.2,78.25) ">
<g id="colorMC" transform="matrix( 0.9999847412109375, 0, 0, 0.9999847412109375, 0,0) "/>

<g id="colorMC2" transform="matrix( 1, 0, 0, 1, 0,0) "/>
</g>

<g id="hat2" transform="matrix( 0.9733734130859375, -0.2247314453125, 0.2247314453125, 0.9733734130859375, 38,60.6) ">
<g id="colorMC_FL" transform="matrix( 0.9999847412109375, 0, 0, 0.9999847412109375, 0,0) "/>

<g id="colorMC2_FL" transform="matrix( 1, 0, 0, 1, 0,0) "/>
</g>

<g id="hat3" transform="matrix( 0.96026611328125, -0.2753753662109375, 0.2753753662109375, 0.96026611328125, 26,48.4) ">
<g id="colorMC_FL_FL" transform="matrix( 0.9999847412109375, 0, 0, 0.9999847412109375, 0,0) "/>

<g id="colorMC2_FL_FL" transform="matrix( 1, 0, 0, 1, 0,0) "/>
</g>

<g id="hat4" transform="matrix( 0.944580078125, -0.3252410888671875, 0.3252410888671875, 0.944580078125, 18.85,34.5) ">
<g id="colorMC_FL_FL_FL" transform="matrix( 0.9999847412109375, 0, 0, 0.9999847412109375, 0,0) "/>

<g id="colorMC2_FL_FL_FL" transform="matrix( 1, 0, 0, 1, 0,0) "/>
</g>
</g>

<g transform="matrix( 1, 0, 0, 1, -75.4,-101.9) ">
<g transform="matrix( 1, 0, 0, 1, 0,0) ">
<use xlink:href="#Parts_Heads_headColorMC_35_Layer1_0_FILL"/>
</g>
</g>

<g transform="matrix( 1, 0, 0, 1, -62.75,-76.85) ">
<g transform="matrix( 1, 0, 0, 1, 0,0) ">
<g transform="matrix( 1, 0, 0, 1, 0,0) ">
<use xlink:href="#Graphics_Symbol_801_0_Layer0_0_FILL"/>
</g>
</g>
</g>
</svg>
