
<svg xmlns="http://www.w3.org/2000/svg" version="1.1" xmlns:xlink="http://www.w3.org/1999/xlink" preserveAspectRatio="none" x="0px" y="0px" width="550px" height="400px" viewBox="0 0 550 400">
<defs>
<g id="Layer0_0_FILL">
<path fill="#FFFFFF" stroke="none" d="
M 7 -3.1
Q 7 -7 3.1 -7
L -3.1 -7
Q -7 -7 -7 -3.1
L -7 3.1
Q -7 7 -3.1 7
L 3.1 7
Q 7 7 7 3.1
L 7 -3.1
M 3.3 -1.05
L 4.5 -0.65 4.5 0.7 3.3 1.1
Q 3.3 1.3 3.1 1.6
L 3.6 2.7 2.7 3.6 1.65 3.1 1.05 3.3 0.65 4.5 -0.7 4.5 -1.1 3.3 -1.65 3.1 -2.75 3.6 -3.6 2.7 -3.15 1.6
Q -3.3 1.4 -3.3 1.1
L -4.5 0.7 -4.5 -0.65 -3.3 -1.05
Q -3.3 -1.25 -3.15 -1.65
L -3.6 -2.75 -2.75 -3.6 -1.65 -3.15 -1.1 -3.3 -0.7 -4.5 0.65 -4.5 1.05 -3.3 1.65 -3.15 2.7 -3.6 3.6 -2.75 3.1 -1.65 3.3 -1.05
M 1.1 1.15
Q 1.6 0.7 1.65 0 1.6 -0.6 1.1 -1.1 0.65 -1.6 -0.05 -1.65 -0.7 -1.6 -1.15 -1.1 -1.65 -0.6 -1.65 0 -1.65 0.7 -1.15 1.15 -0.65 1.65 -0.05 1.65 0.6 1.65 1.1 1.15 Z"/>

<path fill="#010101" stroke="none" d="
M 4.5 -0.65
L 3.3 -1.05 3.1 -1.65 3.6 -2.75 2.7 -3.6 1.65 -3.15 1.05 -3.3 0.65 -4.5 -0.7 -4.5 -1.1 -3.3 -1.65 -3.15 -2.75 -3.6 -3.6 -2.75 -3.15 -1.65
Q -3.3 -1.25 -3.3 -1.05
L -4.5 -0.65 -4.5 0.7 -3.3 1.1
Q -3.3 1.4 -3.15 1.6
L -3.6 2.7 -2.75 3.6 -1.65 3.1 -1.1 3.3 -0.7 4.5 0.65 4.5 1.05 3.3 1.65 3.1 2.7 3.6 3.6 2.7 3.1 1.6
Q 3.3 1.3 3.3 1.1
L 4.5 0.7 4.5 -0.65
M 1.65 0
Q 1.6 0.7 1.1 1.15 0.6 1.65 -0.05 1.65 -0.65 1.65 -1.15 1.15 -1.65 0.7 -1.65 0 -1.65 -0.6 -1.15 -1.1 -0.7 -1.6 -0.05 -1.65 0.65 -1.6 1.1 -1.1 1.6 -0.6 1.65 0 Z"/>
</g>

<path id="Layer0_0_1_STROKES" stroke="#FF9900" stroke-width="2" stroke-linejoin="round" stroke-linecap="round" fill="none" d="
M 3.1 -7
L -3.1 -7
Q -7 -7 -7 -3.1
L -7 3.1
Q -7 7 -3.1 7
L 3.1 7
Q 7 7 7 3.1
L 7 -3.1
Q 7 -7 3.1 -7 Z"/>
</defs>

<g transform="matrix( 1, 0, 0, 1, 0,0) ">
<use xlink:href="#Layer0_0_FILL"/>

<use xlink:href="#Layer0_0_1_STROKES"/>
</g>
</svg>
