
<svg xmlns="http://www.w3.org/2000/svg" version="1.1" xmlns:xlink="http://www.w3.org/1999/xlink" preserveAspectRatio="none" x="0px" y="0px" width="550px" height="400px" viewBox="0 0 550 400">
<defs>
<g id="Parts_Feet_footMC_36_Layer7_0_FILL">
<path fill="#000000" stroke="none" d="
M 82.3 23.35
L 82.5 23.1
Q 82.2 18.95 80.3 16.4 77.85 13.15 73.4 13.4 74.9 12.75 74.85 11.65 74.85 11 73.05 9.75
L 73.6 8.55 73.9 6.85
Q 73.1 5.1 71.9 4.45 68.95 2.85 54.6 0.75 39.4 -1.5 29.45 -1.5 1.85 -1.5 -9.25 7.2 -16.85 13.2 -16.85 23.8 -16.85 27.7 -14.15 30.6 -11.65 33.3 -7.55 34.4 -4.95 33.25 5.95 35.95
L 27.35 41.1
Q 33.5 42.2 44.05 44.85
L 44.9 45.2 45.9 45.4 46.5 45.15 46.4 43.7 52 50.1 53.9 50.1
Q 53.95 47.15 52.85 44 51.7 40.65 49.9 38.95 52.1 37.45 53.25 35.6 53.8 34.65 55.8 34.65
L 59.15 36.2
Q 62.7 37.75 64.25 37.75
L 68.2 37.65 68.7 33.75 78.55 39.85 79.4 40.05
Q 79.4 33.85 75.5 30.4 72.5 27.8 69.8 28.1
L 72.4 25.05
Q 74.6 21.8 74.15 19.05
L 82.3 23.35
M 81 20.65
L 81.4 21.8
Q 77.75 18.2 76.25 17.55
L 73.95 17.5 73.35 14.15
Q 77.85 16.55 78.15 16.8 78.9 17.4 81 20.65
M 46.8 39.7
L 47.2 39.2
Q 51.3 40.6 52.35 46.95 48 46.05 46.75 43.45
L 46.35 40.9
Q 46.35 40.3 46.8 39.7
M 77.9 37
Q 76.45 34.75 73.95 33.6 71.5 32.5 68.8 32.75
L 69.4 29.35
Q 71.6 30.6 72.55 30.8
L 77.05 35.2 77.55 36.1 77.9 37
M 71.95 12.25
L 72.95 12.15 72.2 13.75
Q 71.75 14.95 71.75 15.6
L 72.25 19.65 72.25 19.7 72.65 20.35 73 21.45
Q 73 22.65 71.2 24.7 69.4 26.7 68.4 26.7 65.55 26.7 59.8 24.85 52.65 22.5 50.5 22.1
L 50.15 22.4 50.6 22.85
Q 52.75 23.6 58.15 26.4 63.55 28.8 68.05 28.45
L 67.4 30.1
Q 66.8 31.8 67 32.6
L 67.2 35.45 64.45 35.6
Q 60.8 35.6 53.45 32.25 47.55 29.55 45.7 28.15
L 45.2 27.7 44.95 27.8 44.85 28.05 54.2 34.05 49.65 36.7
Q 47.5 34.9 45.8 34.35
L 41.6 33.65 41.5 33.85 46.5 37.35 45.4 40.25
Q 44.6 42.7 44.6 43.25
L 25.5 39.5
Q 6.8 35.8 0.95 33.1 -5.25 30.95 -11.85 30.4 -13.8 29.8 -14.5 28.15 -15.3 26.3 -15.3 21.95 -15.3 12.4 -4 6.15 6.2 0.5 18.1 0.85 21.9 -0.2 36.7 1.25
L 54.05 3.45 64.8 4.2 64.5 7.5 64.55 8.7 61.7 9
Q 55.55 7.95 53.9 7.3
L 53.6 7.5 53.5 7.65
Q 57.5 9.9 62.5 9.9
L 66 11.1
Q 69 12.25 71.95 12.25
M 73.05 7.9
L 71 8.8 69.7 9.2 66.05 8.85 66.4 4.55 69.65 5.55
Q 72.55 6.7 73.05 7.9
M 10.55 22
L 10.45 23.15 10.45 23.4 10.55 22.45 12.55 24.15 12.4 24.45 11.65 24.55 11 24.45 10.45 23.4 10.3 23.05
Q 10.55 24.85 10.7 25.05
L 11.45 25.25
Q 12.35 25.25 13.2 24.4 13.2 23.6 12.4 22.8 11.55 21.85 10.55 22
M 9.7 8.6
Q 9.25 7.7 8.45 8.35
L 9.55 10 8.1 11.25 8.05 11.45 8.95 11.75 9.8 11.55 10.05 10
Q 10.05 9.25 9.7 8.6
M -9.5 26.25
L -7.6 27.5
Q -6.7 27.35 -7.4 27.7
L -9 28.55 -9.1 28.75 -8.15 29 -7.25 28.8 -7.1 27.75
Q -6.95 26.3 -7.95 26.05
L -9.5 26.25
M -6.55 18.3
L -7.6 17.4
Q -8.55 17.55 -8.65 17.95 -7.3 18.7 -7.1 19.45 -7.5 20.05 -8.25 19.95
L -8.2 20.75 -7.9 20.85 -6.6 20.05 -6.1 19.35 -6.35 18.95 -6.55 18.3
M -3.75 12.5
L -4.05 12.7 -3.7 13.55 -3.3 14.95
Q -3.95 15 -4.85 14.2
L -5 14.4 -5.15 15
Q -5.05 15 -4.65 15.35
L -3.95 15.85 -2.95 14.8
Q -2.6 14.4 -2.6 14.15 -2.6 13.15 -3.75 12.5
M 26.8 35.1
L 25.55 35.25 25.95 35.7
Q 26.45 36.15 27.05 36.15 28.7 36.15 28.65 35
L 28.25 33.65 27.8 33.3
Q 27.6 33.4 27.75 34.1
L 28.05 35.25 26.8 35.1
M 22.75 27
L 22.4 27.35 23.75 29.5 22.95 29.65
Q 22.45 29.85 22.2 30.15
L 22.55 30.45 24.45 30.45 24.6 29.6 24.1 28.5 22.75 27
M 34.95 29.65
L 33.65 29.75
Q 34.9 30.6 35.15 31.15
L 33.9 31.4
Q 33.45 31.55 33 31.85
L 33.4 32.4 33.4 32.45 34.1 32.6 35.25 32.5 35.5 32.4 35.65 31.5 35.9 30.75 34.95 29.65
M 1.35 27.45
L 1.2 27.4
Q 0.9 27.6 1.35 29.65
L -0.35 30.1 -0.8 30.35 0.5 30.85
Q 1.5 30.8 1.8 30.35
L 2.05 29.2
Q 2.05 27.95 1.35 27.45
M 7.7 29.6
Q 7.1 30.15 5.75 29.95 5.85 30.45 7.05 31
L 7.9 30.8
Q 8.45 30.95 8.45 29.95
L 8.25 29.05
Q 7.8 28.1 6.5 27.8
L 6.35 27.6
Q 6.2 27.55 6.2 28.15 6.2 28.75 6.8 29.1
L 7.7 29.6
M 15.35 29.7
L 15.35 29.75
Q 15.1 29.95 15.2 30.4
L 15.35 31.65 13.6 31.35 14.35 32.6 14.7 32.7
Q 15.45 32.45 15.85 31.85 16.25 31.25 16.15 30.6 16.05 30.05 15.8 29.85
L 15.35 29.7
M 18.3 20.9
L 17.95 21.2
Q 18.15 21.95 18.7 22.3
L 17.45 22.45 17.2 22.85 18.15 23.5 18.65 23.4 19.05 23.1 19.25 22.15 19.1 21.4 18.75 21.1 18.3 20.9
M 14.35 14.85
L 13.65 14.8 13.05 14.95 14 16.4
Q 13.65 16.8 13 16.15
L 12.9 16.2 12.75 16.7
Q 12.8 17.4 13.35 17.65
L 14.15 17.55
Q 14.6 17.3 14.7 16.25
L 14.35 14.85
M 1.3 21
Q 0.75 20.4 0.35 20.4 -0.85 20.4 -1 20.85
L 1 22.85
Q 0.95 23.2 -1.65 23.4
L -1.6 23.55 -1.2 24.05 -0.35 24.25
Q 1.45 24.15 1.7 23 2.1 21.85 1.3 21
M 6.75 17.4
Q 7.15 16 5.5 14.7
L 5.25 14.5
Q 4.95 14.45 4.95 15.05 4.95 15.65 5.6 16.35
L 6.35 17.2 5.2 17.55 4.1 18.05 4.7 18.4 5.6 18.55
Q 6.45 18.55 6.75 17.4
M 0.1 9.95
L 1.45 12 0.25 12.15 0.1 12.35 1.2 13
Q 2.05 12.65 2.05 10.95 2.05 10 1.25 9.7 0.55 9.45 0.1 9.95
M 15 6
L 14.95 6.15 17.05 7.15
Q 17.3 7.35 17.35 7.9
L 15.5 8.6 15.45 8.75 16.7 9.2 17.5 9
Q 17.85 8.3 17.85 7.3
L 17.4 6.75 16.2 5.7 15 6
M 39.5 24.05
L 38.75 23.1
Q 38.2 23.1 38 23.45
L 39.25 25 38 25.1 36.8 25.5 36.75 25.65 37.1 26
Q 37.55 26.35 38.15 26.35
L 39.8 26.25 39.95 25.1 39.5 24.05
M 31.7 24.3
Q 31.7 23.4 30.75 22.6 30.3 23 31 24.1 30.55 24.55 29.55 24.35 29.75 25.25 30.45 25.45
L 31.3 25
Q 31.7 24.8 31.7 24.3
M 35.25 18.5
Q 35.25 15.8 33.25 16.55 33.2 16.75 34.65 17.95
L 34.7 17.8 34.75 18.4
Q 34.75 19 34.25 19.1
L 33.65 19.05 33.5 19.25 34.7 19.75 35.05 19.45 35.25 18.5
M 23.8 21.5
L 24.7 22.5 25.55 23.8 24.6 24.15 24.05 24.45 24.2 24.65 24.9 24.85 25.9 24.65
Q 26.2 24.5 26.2 23.85
L 26 22.85
Q 25.45 21.9 23.8 21.5
M 20.8 17
L 20.4 16.35
Q 20.1 16 19.85 16
L 19.45 16.35 20.2 17
Q 20.2 17.45 18.7 18 19.15 18.5 19.8 18.65 20.35 18.45 20.8 17
M 25.75 16.9
L 26.65 18.15
Q 27.45 18.1 28 17.5 28.5 16.95 28.5 16.3 28.5 15.1 27.55 14.2 27.35 14.35 27.55 14.9
L 27.8 16.1 27.75 16.85 25.75 16.9
M 23.25 8.65
L 22.25 8.5
Q 22.25 9.05 22.8 9.45
L 21.3 10.25 21.6 10.6 22.35 10.75 23.2 10.4
Q 23.75 9.8 23.25 8.65
M 37.85 11.95
L 37.3 12.15 37.05 12.55 37.35 13 38.1 13.15
Q 39.15 13.15 39.4 11.75
L 39 11.1
Q 38.45 11.1 38.25 11.45
L 38.65 12.05 37.85 11.95
M 30.8 9.7
Q 31.45 8.95 31.45 8.2 31.45 5.6 30.1 6.15
L 30.5 7.4 30.75 8.85
Q 30.75 9.5 30.2 9.55
L 29.15 9.45
Q 29.55 10.45 29.95 10.55
L 30.8 9.7
M 38.5 4.6
L 37.7 4 37.3 4.35 38 4.8 38.2 5.65
Q 38.2 6.6 37.75 6.9 37.25 7.05 37.15 7.15
L 37 7.45 37.15 7.6 38 7.7
Q 38.7 7.7 38.9 7.2
L 39 5.95
Q 39 5.05 38.5 4.6
M 42.9 16.35
L 43.65 17.1 43.25 18.65 42.95 18.8 42.15 18.95 40.65 18.6 39.4 18.55 40.3 19.45
Q 40.8 19.9 41.4 19.9 42.6 19.9 43.55 18.9 44.35 18.05 44.35 17.3
L 44.25 16.6 43.65 16
Q 43.15 16 42.9 16.35
M 49.7 9.75
Q 49.35 8.85 48.9 8.5 47.75 8.65 47.65 8.95
L 48.9 9.25
Q 49.25 9.25 49.5 11.9
L 48.1 12.2 46.9 12.75 47.5 13.1 48.4 13.25
Q 48.95 13.25 49.45 12.7 50.05 12.05 50.05 11.05
L 49.7 9.75 Z"/>
</g>

<g id="Graphics_Symbol_305_0_Layer1_0_FILL">
<path fill="#999999" stroke="none" d="
M 69.4 29.35
L 68.8 32.75
Q 71.5 32.5 73.95 33.6 76.45 34.75 77.9 37
L 77.55 36.1 77.05 35.2 72.55 30.8
Q 71.6 30.6 69.4 29.35
M 52.35 46.95
Q 51.3 40.6 47.2 39.2
L 46.8 39.7
Q 46.35 40.3 46.35 40.9
L 46.75 43.45
Q 48 46.05 52.35 46.95
M 71 8.8
L 73.05 7.9
Q 72.55 6.7 69.65 5.55
L 66.4 4.55 66.35 6.4 66.05 8.85 69.7 9.2 71 8.8
M 81.4 21.8
L 81 20.65
Q 78.9 17.4 78.15 16.8 77.85 16.55 73.35 14.15
L 73.95 17.5 76.25 17.55
Q 77.75 18.2 81.4 21.8 Z"/>
</g>

<g id="Graphics_Symbol_305_0_Layer0_0_FILL">
<path fill="#000000" fill-opacity="0.25098039215686274" stroke="none" d="
M 41.5 33.85
L 41.6 33.65 38.55 32.55 35.25 32.5 34.1 32.6 33.4 32.45 33.4 32.4
Q 24.85 31.9 15.8 29.85 16.05 30.05 16.15 30.6 16.25 31.25 15.85 31.85 15.45 32.45 14.7 32.7
L 14.35 32.6 13.6 31.35 15.35 31.65 15.2 30.4
Q 15.1 29.95 15.35 29.75
L 15.2 29.7
Q 4.5 27.2 -0.35 24.25
L -1.2 24.05 -1.6 23.55
Q -5.2 20.7 -6.1 19.35
L -6.6 20.05 -7.9 20.85 -8.2 20.75 -8.25 19.95
Q -7.5 20.05 -7.1 19.45 -7.3 18.7 -8.65 17.95 -8.55 17.55 -7.6 17.4
L -6.55 18.3
Q -6.9 13.6 -0.25 8.9 6.35 4.25 18.1 0.85 6.2 0.5 -4 6.15 -15.3 12.4 -15.3 21.95 -15.3 26.3 -14.5 28.15 -13.8 29.8 -11.85 30.4 -5.25 30.95 0.95 33.1 6.8 35.8 25.5 39.5
L 44.6 43.25
Q 44.6 42.7 45.4 40.25
L 46.5 37.35 41.5 33.85
M 5.75 29.95
Q 7.1 30.15 7.7 29.6
L 6.8 29.1
Q 6.2 28.75 6.2 28.15 6.2 27.55 6.35 27.6
L 6.5 27.8
Q 7.8 28.1 8.25 29.05
L 8.45 29.95
Q 8.45 30.95 7.9 30.8
L 7.05 31
Q 5.85 30.45 5.75 29.95
M 1.35 29.65
Q 0.9 27.6 1.2 27.4
L 1.35 27.45
Q 2.05 27.95 2.05 29.2
L 1.8 30.35
Q 1.5 30.8 0.5 30.85
L -0.8 30.35 -0.35 30.1 1.35 29.65
M 27.05 36.15
Q 26.45 36.15 25.95 35.7
L 25.55 35.25 26.8 35.1 28.05 35.25 27.75 34.1
Q 27.6 33.4 27.8 33.3
L 28.25 33.65 28.65 35
Q 28.7 36.15 27.05 36.15
M -7.6 27.5
L -9.5 26.25 -7.95 26.05
Q -6.95 26.3 -7.1 27.75
L -7.25 28.8 -8.15 29 -9.1 28.75 -9 28.55 -7.4 27.7
Q -6.7 27.35 -7.6 27.5
M 51.8 35.45
L 54.2 34.05 49.75 31.45 44.85 28.05
Q 44.85 31.1 46.9 33.3 48.9 35.45 51.8 35.45
M 50.1 23.65
Q 49.75 24.15 49.75 24.7 49.75 26.65 55.25 28.3 63.65 30.85 67 32.6 66.8 31.8 67.4 30.1
L 68.05 28.45
Q 63.55 28.8 58.15 26.4 52.75 23.6 50.6 22.85
L 50.1 23.65
M 64.5 7.5
L 64.8 4.2 54.05 3.45
Q 53.9 4.1 53.9 5.1 53.9 5.9 55.35 6.8 57.45 8.05 61.25 8.05
L 63.15 7.85 64.5 7.5
M 72.95 12.15
L 71.95 12.25
Q 69 12.25 66 11.1
L 62.5 9.9
Q 57.5 9.9 53.5 7.65
L 53.6 7.5 53.9 7.3 53.85 7.1 53.5 7.2
Q 52.6 13.5 52.6 14.35 52.6 17.3 71.35 19.75
L 72.25 19.7 72.25 19.65 71.95 17.85 71.75 15.6
Q 71.75 14.95 72.2 13.75
L 72.95 12.15 Z"/>
</g>

<g id="MovieClips_Symbol_228_36_Layer1_0_FILL">
<path fill="#57B02D" stroke="none" d="
M 72.95 12.15
L 71.95 12.25
Q 69 12.25 66 11.1
L 62.5 9.9
Q 57.5 9.9 53.5 7.65
L 53.6 7.5 53.9 7.3
Q 55.55 7.95 61.7 9
L 64.55 8.7 64.5 7.5 64.8 4.2 54.05 3.45 36.7 1.25
Q 21.9 -0.2 18.1 0.85 6.2 0.5 -4 6.15 -15.3 12.4 -15.3 21.95 -15.3 26.3 -14.5 28.15 -13.8 29.8 -11.85 30.4 -5.25 30.95 0.95 33.1 6.8 35.8 25.5 39.5
L 44.6 43.25
Q 44.6 42.7 45.4 40.25
L 46.5 37.35 41.5 33.85 41.6 33.65 45.8 34.35
Q 47.5 34.9 49.65 36.7
L 54.2 34.05 44.85 28.05 44.95 27.8 45.2 27.7
Q 45.4 27.7 45.55 27.85
L 45.7 28.15
Q 47.55 29.55 53.45 32.25 60.8 35.6 64.45 35.6
L 67.2 35.45 67 32.6
Q 66.8 31.8 67.4 30.1
L 68.05 28.45
Q 63.55 28.8 58.15 26.4 52.75 23.6 50.6 22.85
L 50.15 22.4 50.5 22.1
Q 52.65 22.5 59.8 24.85 65.55 26.7 68.4 26.7 69.4 26.7 71.2 24.7 73 22.65 73 21.45
L 72.65 20.35 72.25 19.7 72.25 19.65 71.75 15.6
Q 71.75 14.95 72.2 13.75
L 72.95 12.15 Z"/>
</g>

<g id="MovieClips_Symbol_264_36_Layer1_0_FILL">
<path fill="#000000" stroke="none" d="
M 82.3 23.35
L 82.5 23.1
Q 82.2 18.95 80.3 16.4 77.85 13.15 73.4 13.4 74.9 12.75 74.85 11.65 74.85 11 73.05 9.75
L 73.6 8.55 73.9 6.85
Q 73.1 5.1 71.9 4.45 68.95 2.85 54.6 0.75 39.4 -1.5 29.45 -1.5 1.85 -1.5 -9.25 7.2 -16.85 13.2 -16.85 23.8 -16.85 27.7 -14.15 30.6 -11.65 33.3 -7.55 34.4 -4.95 33.25 5.95 35.95
L 27.35 41.1
Q 33.5 42.2 44.05 44.85
L 44.9 45.2 45.9 45.4 46.5 45.15 46.4 43.7 52 50.1 53.9 50.1
Q 53.95 47.15 52.85 44 51.7 40.65 49.9 38.95 52.1 37.45 53.25 35.6 53.8 34.65 55.8 34.65
L 59.15 36.2
Q 62.7 37.75 64.25 37.75
L 68.2 37.65 68.7 33.75 78.55 39.85 79.4 40.05
Q 79.4 33.85 75.5 30.4 72.5 27.8 69.8 28.1
L 72.4 25.05
Q 74.6 21.8 74.15 19.05
L 82.3 23.35
M 81 20.65
L 81.4 21.8
Q 77.75 18.2 76.25 17.55
L 73.95 17.5 73.35 14.15
Q 77.85 16.55 78.15 16.8 78.9 17.4 81 20.65
M 71.95 12.25
L 72.95 12.15 72.2 13.75
Q 71.75 14.95 71.75 15.6
L 72.25 19.65 72.25 19.7 72.65 20.35 73 21.45
Q 73 22.65 71.2 24.7 69.4 26.7 68.4 26.7 65.55 26.7 59.8 24.85 52.65 22.5 50.5 22.1
L 50.15 22.4 50.6 22.85
Q 52.75 23.6 58.15 26.4 63.55 28.8 68.05 28.45
L 67.4 30.1
Q 66.8 31.8 67 32.6
L 67.2 35.45 64.45 35.6
Q 60.8 35.6 53.45 32.25 47.55 29.55 45.7 28.15
L 45.2 27.7 44.95 27.8 44.85 28.05 54.2 34.05 49.65 36.7
Q 47.5 34.9 45.8 34.35
L 41.6 33.65 41.5 33.85 46.5 37.35 45.4 40.25
Q 44.6 42.7 44.6 43.25
L 25.5 39.5
Q 6.8 35.8 0.95 33.1 -5.25 30.95 -11.85 30.4 -13.8 29.8 -14.5 28.15 -15.3 26.3 -15.3 21.95 -15.3 12.4 -4 6.15 6.2 0.5 18.1 0.85 21.9 -0.2 36.7 1.25
L 54.05 3.45 64.8 4.2 64.5 7.5 64.55 8.7 61.7 9
Q 55.55 7.95 53.9 7.3
L 53.6 7.5 53.5 7.65
Q 57.5 9.9 62.5 9.9
L 66 11.1
Q 69 12.25 71.95 12.25
M 73.05 7.9
L 71 8.8 69.7 9.2 66.05 8.85 66.4 4.55 69.65 5.55
Q 72.55 6.7 73.05 7.9
M 46.8 39.7
L 47.2 39.2
Q 51.3 40.6 52.35 46.95 48 46.05 46.75 43.45
L 46.35 40.9
Q 46.35 40.3 46.8 39.7
M 77.9 37
Q 76.45 34.75 73.95 33.6 71.5 32.5 68.8 32.75
L 69.4 29.35
Q 71.6 30.6 72.55 30.8
L 77.05 35.2 77.55 36.1 77.9 37
M -9.5 26.25
L -7.6 27.5
Q -6.7 27.35 -7.4 27.7
L -9 28.55 -9.1 28.75 -8.15 29 -7.25 28.8 -7.1 27.75
Q -6.95 26.3 -7.95 26.05
L -9.5 26.25
M -7.6 17.4
Q -8.55 17.55 -8.65 17.95 -7.3 18.7 -7.1 19.45 -7.5 20.05 -8.25 19.95
L -8.2 20.75 -7.9 20.85 -6.6 20.05 -6.1 19.35 -6.35 18.95 -6.55 18.3 -7.6 17.4
M -4.05 12.7
L -3.7 13.55 -3.3 14.95
Q -3.95 15 -4.85 14.2
L -5 14.4 -5.15 15
Q -5.05 15 -4.65 15.35
L -3.95 15.85 -2.95 14.8
Q -2.6 14.4 -2.6 14.15 -2.6 13.15 -3.75 12.5
L -4.05 12.7
M 26.8 35.1
L 25.55 35.25 25.95 35.7
Q 26.45 36.15 27.05 36.15 28.7 36.15 28.65 35
L 28.25 33.65 27.8 33.3
Q 27.6 33.4 27.75 34.1
L 28.05 35.25 26.8 35.1
M 22.75 27
L 22.4 27.35 23.75 29.5 22.95 29.65
Q 22.45 29.85 22.2 30.15
L 22.55 30.45 24.45 30.45 24.6 29.6 24.1 28.5 22.75 27
M 34.95 29.65
L 33.65 29.75
Q 34.9 30.6 35.15 31.15
L 33.9 31.4
Q 33.45 31.55 33 31.85
L 33.4 32.4 33.4 32.45 34.1 32.6 35.25 32.5 35.5 32.4 35.65 31.5 35.9 30.75 34.95 29.65
M 1.2 27.4
Q 0.9 27.6 1.35 29.65
L -0.35 30.1 -0.8 30.35 0.5 30.85
Q 1.5 30.8 1.8 30.35
L 2.05 29.2
Q 2.05 27.95 1.35 27.45
L 1.2 27.4
M 7.7 29.6
Q 7.1 30.15 5.75 29.95 5.85 30.45 7.05 31
L 7.9 30.8
Q 8.45 30.95 8.45 29.95
L 8.25 29.05
Q 7.8 28.1 6.5 27.8
L 6.35 27.6
Q 6.2 27.55 6.2 28.15 6.2 28.75 6.8 29.1
L 7.7 29.6
M 15.35 29.7
L 15.35 29.75
Q 15.1 29.95 15.2 30.4
L 15.35 31.65 13.6 31.35 14.35 32.6 14.7 32.7
Q 15.45 32.45 15.85 31.85 16.25 31.25 16.15 30.6 16.05 30.05 15.8 29.85
L 15.35 29.7
M 18.3 20.9
L 17.95 21.2
Q 18.15 21.95 18.7 22.3
L 17.45 22.45 17.2 22.85 18.15 23.5 18.65 23.4 19.05 23.1 19.25 22.15 19.1 21.4 18.75 21.1 18.3 20.9
M 10.55 22
L 10.45 23.15 10.45 23.4 10.55 22.45 12.55 24.15 12.4 24.45 11.65 24.55 11 24.45 10.45 23.4 10.3 23.05
Q 10.55 24.85 10.7 25.05
L 11.45 25.25
Q 12.35 25.25 13.2 24.4 13.2 23.6 12.4 22.8 11.55 21.85 10.55 22
M 13.65 14.8
L 13.05 14.95 14 16.4
Q 13.65 16.8 13 16.15
L 12.9 16.2 12.75 16.7
Q 12.8 17.4 13.35 17.65
L 14.15 17.55
Q 14.6 17.3 14.7 16.25
L 14.35 14.85 13.65 14.8
M 1.7 23
Q 2.1 21.85 1.3 21 0.75 20.4 0.35 20.4 -0.85 20.4 -1 20.85
L 1 22.85
Q 0.95 23.2 -1.65 23.4
L -1.6 23.55 -1.2 24.05 -0.35 24.25
Q 1.45 24.15 1.7 23
M 6.75 17.4
Q 7.15 16 5.5 14.7
L 5.25 14.5
Q 4.95 14.45 4.95 15.05 4.95 15.65 5.6 16.35
L 6.35 17.2 5.2 17.55 4.1 18.05 4.7 18.4 5.6 18.55
Q 6.45 18.55 6.75 17.4
M 10.05 10
Q 10.05 9.25 9.7 8.6 9.25 7.7 8.45 8.35
L 9.55 10 8.1 11.25 8.05 11.45 8.95 11.75 9.8 11.55 10.05 10
M 0.1 9.95
L 1.45 12 0.25 12.15 0.1 12.35 1.2 13
Q 2.05 12.65 2.05 10.95 2.05 10 1.25 9.7 0.55 9.45 0.1 9.95
M 15 6
L 14.95 6.15 17.05 7.15
Q 17.3 7.35 17.35 7.9
L 15.5 8.6 15.45 8.75 16.7 9.2 17.5 9
Q 17.85 8.3 17.85 7.3
L 17.4 6.75 16.2 5.7 15 6
M 38.75 23.1
Q 38.2 23.1 38 23.45
L 39.25 25 38 25.1 36.8 25.5 36.75 25.65 37.1 26
Q 37.55 26.35 38.15 26.35
L 39.8 26.25 39.95 25.1 39.5 24.05 38.75 23.1
M 30.75 22.6
Q 30.3 23 31 24.1 30.55 24.55 29.55 24.35 29.75 25.25 30.45 25.45
L 31.3 25
Q 31.7 24.8 31.7 24.3 31.7 23.4 30.75 22.6
M 35.25 18.5
Q 35.25 15.8 33.25 16.55 33.2 16.75 34.65 17.95
L 34.7 17.8 34.75 18.4
Q 34.75 19 34.25 19.1
L 33.65 19.05 33.5 19.25 34.7 19.75 35.05 19.45 35.25 18.5
M 24.05 24.45
L 24.2 24.65 24.9 24.85 25.9 24.65
Q 26.2 24.5 26.2 23.85
L 26 22.85
Q 25.45 21.9 23.8 21.5
L 24.7 22.5 25.55 23.8 24.6 24.15 24.05 24.45
M 20.8 17
L 20.4 16.35
Q 20.1 16 19.85 16
L 19.45 16.35 20.2 17
Q 20.2 17.45 18.7 18 19.15 18.5 19.8 18.65 20.35 18.45 20.8 17
M 25.75 16.9
L 26.65 18.15
Q 27.45 18.1 28 17.5 28.5 16.95 28.5 16.3 28.5 15.1 27.55 14.2 27.35 14.35 27.55 14.9
L 27.8 16.1 27.75 16.85 25.75 16.9
M 23.25 8.65
L 22.25 8.5
Q 22.25 9.05 22.8 9.45
L 21.3 10.25 21.6 10.6 22.35 10.75 23.2 10.4
Q 23.75 9.8 23.25 8.65
M 37.85 11.95
L 37.3 12.15 37.05 12.55 37.35 13 38.1 13.15
Q 39.15 13.15 39.4 11.75
L 39 11.1
Q 38.45 11.1 38.25 11.45
L 38.65 12.05 37.85 11.95
M 30.8 9.7
Q 31.45 8.95 31.45 8.2 31.45 5.6 30.1 6.15
L 30.5 7.4 30.75 8.85
Q 30.75 9.5 30.2 9.55
L 29.15 9.45
Q 29.55 10.45 29.95 10.55
L 30.8 9.7
M 38.5 4.6
L 37.7 4 37.3 4.35 38 4.8 38.2 5.65
Q 38.2 6.6 37.75 6.9 37.25 7.05 37.15 7.15
L 37 7.45 37.15 7.6 38 7.7
Q 38.7 7.7 38.9 7.2
L 39 5.95
Q 39 5.05 38.5 4.6
M 42.9 16.35
L 43.65 17.1 43.25 18.65 42.95 18.8 42.15 18.95 40.65 18.6 39.4 18.55 40.3 19.45
Q 40.8 19.9 41.4 19.9 42.6 19.9 43.55 18.9 44.35 18.05 44.35 17.3
L 44.25 16.6 43.65 16
Q 43.15 16 42.9 16.35
M 49.7 9.75
Q 49.35 8.85 48.9 8.5 47.75 8.65 47.65 8.95
L 48.9 9.25
Q 49.25 9.25 49.5 11.9
L 48.1 12.2 46.9 12.75 47.5 13.1 48.4 13.25
Q 48.95 13.25 49.45 12.7 50.05 12.05 50.05 11.05
L 49.7 9.75 Z"/>
</g>
</defs>

<g transform="matrix( 1, 0, 0, 1, -28.4,-10.7) ">
<g transform="matrix( 1, 0, 0, 1, 0,0) ">
<use xlink:href="#Parts_Feet_footMC_36_Layer7_0_FILL"/>
</g>

<g transform="matrix( 1, 0, 0, 1, 0,0) ">
<g transform="matrix( 1, 0, 0, 1, 0,0) ">
<use xlink:href="#Graphics_Symbol_305_0_Layer1_0_FILL"/>
</g>

<g transform="matrix( 1, 0, 0, 1, 0,0) ">
<use xlink:href="#Graphics_Symbol_305_0_Layer0_0_FILL"/>
</g>
</g>
</g>

<g transform="matrix( 1, 0, 0, 1, -28.15,-10.5) ">
<g transform="matrix( 1, 0, 0, 1, 0,0) ">
<use xlink:href="#MovieClips_Symbol_228_36_Layer1_0_FILL"/>
</g>
</g>

<g transform="matrix( 1, 0, 0, 1, -28.4,-10.7) ">
<g transform="matrix( 1, 0, 0, 1, 0,0) ">
<use xlink:href="#MovieClips_Symbol_264_36_Layer1_0_FILL"/>
</g>
</g>
</svg>
