
<svg xmlns="http://www.w3.org/2000/svg" version="1.1" xmlns:xlink="http://www.w3.org/1999/xlink" preserveAspectRatio="none" x="0px" y="0px" width="550px" height="400px" viewBox="0 0 550 400">
<defs>
<g id="Layer0_0_FILL">
<path fill="#5EC92E" stroke="none" d="
M 99.6 0.25
L 99.35 0
Q 88 16.35 73.1 32.8 71.75 34.3 72.1 36.2
L 78.9 36.6 54.35 59.3
Q 66.5 66.15 82 59
L 49.55 91.25
Q 59.25 94.2 71.35 87.2 72.6 86.5 74.1 86.1
L 34.5 120.35
Q 41.5 128.8 54 119.6
L 53.75 120.25 32.6 145.1 39.5 146.45 11.55 168.55
Q 25.75 169.05 38.25 161.25
L 0 193.45
Q 6.35 203.1 21.5 200.5
L 15.75 206.85
Q 16.45 211.9 21.95 212.7 24.95 213.3 25.6 214.2 49.15 203.95 76.75 201.75
L 78.4 202.1 82.85 211.4 86.2 212.9 102.35 196.15
Q 127.6 200.8 149.4 216.1 153.95 219.3 158.5 217.4
L 144.05 186 186.1 192.55
Q 173.3 172.15 147.05 162.25
L 166.65 165.65
Q 154.5 151.6 134.5 140.75 155.05 143.2 174.3 136
L 142 118.25
Q 148.55 121.6 155.8 122.75 157.8 122.9 159.2 121.5 135.15 104.65 118.5 78.75 124.25 82.7 130.8 83.7 132.85 84.15 134.35 82.7 117.35 71.65 114.25 49.5 119.3 56.3 127.45 55.75 128.55 55.8 128.4 54.95
L 110.7 32.1
Q 119.75 35 130.25 30.7 112.55 19.45 99.6 0.25
M 63.15 200.65
Q 62 201.1 63.05 200.3
L 63.15 200.65 Z"/>
</g>
</defs>

<g transform="matrix( 1, 0, 0, 1, 0,0) ">
<use xlink:href="#Layer0_0_FILL"/>
</g>
</svg>
