
<svg xmlns="http://www.w3.org/2000/svg" version="1.1" xmlns:xlink="http://www.w3.org/1999/xlink" preserveAspectRatio="none" x="0px" y="0px" width="550px" height="400px" viewBox="0 0 550 400">
<defs>
<g id="Layer0_0_FILL">
<path fill="#FFFFFF" stroke="none" d="
M 87 204.1
L 88.25 203.75
Q 101.1 178.35 105 149.75 91.5 174.45 86.75 202.6
L 87 204.1
M 161.5 162.05
L 161.55 160.75
Q 151.5 151.8 139.75 146.5 147.65 160.7 161.5 162.05
M 98.2 136.15
Q 101.3 123.7 98 111.5
L 97 111.5
Q 97.1 134.65 90.35 156.85 84.45 176.1 76.65 194.75 74.4 200.15 74.5 205.6
L 76.25 205.25
Q 82.4 191.7 86.75 177.4 93.05 156.95 98.2 136.15
M 129.25 147.25
L 127.75 147.5
Q 132.6 168.5 138.4 189.15 142.75 204.7 150.05 219.25 142.9 182.4 129.25 147.25
M 5.25 191.25
Q 24.2 186 39.75 169.95 45.75 163.75 52.5 158.25 27.85 171.9 5.25 191.25
M 16.25 163.5
L 17 164.25
Q 35.8 154.75 52 141.5 32.65 150.3 16.25 163.5
M 42.65 119.65
Q 42.55 119.8 42.6 120.05 57.55 108.45 69.25 92.25 52.9 103.55 42.65 119.65
M 48.9 131.25
L 60.85 118.75
Q 43.55 127.4 32.6 144.05
L 48.9 131.25
M 122.85 50.3
L 123.15 50.2
Q 120.4 39.65 111.5 34.5 113.9 45.05 122.85 50.3
M 125.25 92.25
L 123.9 92.6 122 75.75
Q 119.55 110.5 136.75 142.65 139 146.85 142.15 145.4 126.9 122.6 124.1 94.35
L 129 103.25 140 112.5 125.25 92.25
M 98.75 76.5
L 97.45 91.75 99.25 81 100.9 145 101.1 144.45
Q 102.1 131 102.45 117.4 103 97.1 100.55 77
L 98.75 76.5
M 88 57.5
L 83.9 62.1 93.75 22
Q 83.2 36.2 81.05 54.05
L 79.2 67.25 60.75 84
Q 70.75 81.3 78.55 71.65 73.9 97.9 67.7 124 60.1 156.05 38.25 179.75 25.55 193.45 13.1 207.35
L 11 209.75
Q 34.8 191.25 51.2 165.6
L 33.7 206.25
Q 34.5 206.8 35.3 205.85
L 35.4 206.4 35.55 206.6
Q 61.65 184.25 73 151.75
L 48.25 185.75 59.05 161 59.25 165.25
Q 75.65 127.25 89 86.5
L 66.8 140.45
Q 74.35 97.65 88 57.5
M 121 33.5
L 111.6 19.05 99.25 9 121 33.5
M 83.85 40.3
L 84.25 39.25
Q 71.15 45.3 64.25 58 75.95 55.25 83.85 40.3
M 101.25 17
L 97.25 21.75 99.75 20.25
Q 103.2 55.85 106.95 91 108.85 108.55 109.6 126.35 111 159.2 113.85 192.05 114.8 202.8 118.3 209.4
L 110.3 91.3 113 97.25 111.8 77.1 119.75 147.9
Q 120.4 153.85 123.3 155.4 121.55 124.55 115.9 93.9 113.45 80.7 113.5 67.7 120.5 76.45 131.15 76.85 123.4 65.95 110.95 62.55 110.25 62.45 109.45 62.95
L 101.25 17
M 108.95 63.95
Q 110.3 68.55 111.45 74.15
L 110.7 78.2 108.95 63.95
M 112.1 70.85
L 110 64.45 113 67.25 112.1 70.85
M 97 21.5
L 96 21.5
Q 93.95 101.3 70.25 177.25
L 71.25 177
Q 75.35 168 78.75 158.5 82.05 149.2 84.1 139.2 90.7 107.65 98 76.5
L 89.2 102.3 94.55 69.85
Q 98.45 45.7 97 21.5
M 97.1 10.2
L 96.65 8.65
Q 86.65 20.1 80.8 33.7 91.95 23.8 97.1 10.2
M 181.8 192.05
L 181.15 190.4
Q 175.3 181.2 165.05 175.9
L 167.3 176.7
Q 177.5 179.75 187.8 177
L 141.75 160.25
Q 160.35 177.9 181.8 192.05
M 163.65 137
Q 164.7 137.25 165.3 136.65
L 134.75 119.25
Q 145 134.55 163.65 137 Z"/>
</g>
</defs>

<g transform="matrix( 1, 0, 0, 1, 0,0) ">
<use xlink:href="#Layer0_0_FILL"/>
</g>
</svg>
