
<svg xmlns="http://www.w3.org/2000/svg" version="1.1" xmlns:xlink="http://www.w3.org/1999/xlink" preserveAspectRatio="none" x="0px" y="0px" width="550px" height="400px" viewBox="0 0 550 400">
<defs>
<g id="Layer0_0_FILL">
<path fill="#000000" fill-opacity="0.25098039215686274" stroke="none" d="
M 91.85 189.9
Q 92.4 191.45 92.75 189.95
L 91.85 189.9
M 109.75 105.35
L 109.3 101.6
Q 108.85 124.55 107.85 147.6 107.15 164.15 99.55 178.85 93.9 189.8 94.25 202.1
L 100.35 194.95 102.6 195.9 112.5 154.85 115.3 135.7 111.6 137.2 109.75 105.35
M 87.55 112.1
L 87.2 113.7 87.3 117.25 87.55 112.1
M 69.5 166.9
L 67.3 169.9 54.3 186.8 50 194.3 48.5 201.9 56.75 197.25 57.75 202.25 62.9 196.8 64.5 198.1 84.4 183.55 86.8 125.65 82.55 143.85 81.7 147.9 80.45 154.1
Q 75.9 158.35 69.5 166.9
M 177.1 190.7
L 181.1 187.55
Q 163.3 178.6 151.8 162.45
L 149.35 158.8 164.6 164.9
Q 158.5 152.15 146 145.5
L 143.3 144.25 142.9 140.1 169.15 136.55
Q 149.9 131.3 137.9 115.6 135.1 111.9 132.8 107.95
L 156.3 127
Q 146.1 105.85 124.6 96
L 118.55 73.3 134.75 87
Q 119 71.55 113.2 50.7 112.15 46.95 112 43.1
L 118.75 53.75 110.5 29 124.4 34.65 105.75 10 103.5 16.15 106.45 25.35 103 22.75 138.9 169.5 133.65 170.9
Q 139.8 181.7 151.15 186.35 163.65 191.5 177.1 190.7
M 143 156.25
L 149.95 168.6 146 167.55 143 156.25 Z"/>

<path fill="#FFFFFF" fill-opacity="0.25098039215686274" stroke="none" d="
M 111.6 137.2
L 115.3 135.7 112.5 154.85
Q 119.05 175.15 128.5 194.4 136.25 210.15 149.75 219.2 153.85 205.55 142.75 190.6 129.1 172.2 122.25 149.95 115.4 127.75 109.75 105.35
L 111.6 137.2
M 5.3 187.5
L 14.8 191.15 47.55 170.55 45 178.25 64.55 148.5
Q 45.6 174.9 5.3 187.5
M 77.65 65.45
Q 57.4 73 47.35 90.4
L 50.7 91.45 73.6 79.35 68.35 96.9
Q 45.95 103.05 29.7 119.55
L 29.5 123.2 42.25 119.15 42.85 119.4
Q 53.1 114.45 63.15 109.1
L 60.6 121.15
Q 45.4 129.3 37.6 142.65
L 40.4 145.05
Q 23.3 153.5 15.1 169.6
L 67.6 138.35 81.2 97.05
Q 79.95 123.35 68.25 142.85
L 72.55 136.3
Q 70.4 142 67.3 146.85 47.15 178.55 24.1 207.65
L 28.6 206.35 35.25 208.75 50 194.3 54.3 186.8 63.8 170.9 67.3 169.9 69.5 166.9 69.45 164.35 81.7 147.9 82.55 143.85
Q 80.45 130.95 86.65 115.5
L 87.2 113.7 87.55 112.1 90.6 49.3
Q 81.05 54.75 77.65 65.45
M 55.8 139.45
Q 48.1 141.45 41.65 144.5
L 57.7 131.4 55.8 139.45
M 90.35 37.35
L 98 22.5
Q 78.25 44.7 57.05 58.15
L 59.1 59.85
Q 82.8 55.25 93 37.75
L 90.35 37.35
M 96.65 14.05
L 96.45 8.3
Q 80.9 15.35 75.7 34.35 96.3 30.05 96.65 14.05 Z"/>
</g>
</defs>

<g transform="matrix( 1, 0, 0, 1, 0,0) ">
<use xlink:href="#Layer0_0_FILL"/>
</g>
</svg>
