
<svg xmlns="http://www.w3.org/2000/svg" version="1.1" xmlns:xlink="http://www.w3.org/1999/xlink" preserveAspectRatio="none" x="0px" y="0px" width="550px" height="400px" viewBox="0 0 550 400">
<defs>
<g id="Layer0_0_FILL">
<path fill="#010101" stroke="none" d="
M 109.45 62.3
Q 111.9 60 112.8 57.1 110.65 57.9 108.15 59.7 105.2 61.9 104.5 62.25 100.65 64.25 95.3 59.2 97.2 66.9 104.15 65.2 107 64.5 109.45 62.3
M 105.4 47.15
Q 103.85 46.15 101.9 47.05 99.85 48 98.85 50.3 97.7 52.95 98.55 56.3 100.7 59.6 104.2 57.8 107.8 55.95 107.15 51.1 107.1 48.25 105.4 47.15
M 148.65 45.9
Q 148.2 43 146.8 42.75 145.55 42.5 144.5 44.05 143.45 45.65 143.85 47.25 144.3 49.15 146.8 49.7 147.2 49.35 148.25 48.45 149.05 47.45 148.65 45.9
M 151.45 45.95
Q 150.15 41.6 146.6 34.3 146.75 37.8 151.3 48.8 152.4 52.65 151.1 53.45 149.55 54.5 144.1 51.4 144.5 54.05 146.85 55.9 149.55 58 152.1 55.7 153.9 62.2 156.45 66.8 157.45 70.05 154.5 79 152.65 77.1 151.8 76.4 150.45 75.3 148.1 74.8 149.15 69.1 148.25 63.7 147.1 57.1 143.2 53.2 149.05 67 145.55 77 142.5 85.65 134.6 87.55 126.8 89.45 121.35 83.15 115.1 76 116.55 62 115.35 65 115.7 71 116 77.1 117.65 81 108.15 85.85 102.7 91.1 100.75 93 96.95 98.05 95 100.7 92.55 100.85 89.65 101 81.5 98.4 84.6 96.95 89.15 90.05 93.8 83.1 93.05 80.65 86.4 92.5 74.9 97.9 62 103.9 51 97 51.4 96.4 59.9 87.65 65.9 81.45 66.4 76.5 57.7 88.3 52.45 88.4 47.1 88.45 38.3 76.7
L 38.3 76.4
Q 38.1 73.6 37.75 75.9 37.5 77.65 38.5 80.3
L 38.35 80.25
Q 37.9 79.3 35.7 79.05 33.4 78.85 32.8 76 32.35 75.8 33.1 78.7 31.8 78.85 31.05 78.75 29.7 78.5 28.8 76.5
L 28.7 76.2
Q 28.4 76.2 28.55 77.1 28.65 77.95 29.1 79 24.95 80.6 22.6 87.55 20.3 94.2 21.3 100.3 21.5 99.3 21.5 98.7 22.45 113.95 15.8 113.4 12.25 112.55 10.85 112.25 8.4 111.7 8.1 113.7 1.9 109.7 1.35 107.1 0.65 103.55 8.1 99.3
L 8.1 99.4
Q 15 95.25 16.5 82.3 17.1 75.1 17.45 71.55 18.05 65.25 19.3 61.7 19.3 63.35 19.6 62.6 19.6 62.55 20.55 59.5 22.6 52.85 24.9 50.9 25.1 51.2 25.15 51.3 25.2 50.8 25.7 49.9 25.3 52.25 25.65 54.9 25.95 57.35 26.1 51.4 31.1 31 47.65 18.1 62.9 6.3 83.25 4 103.35 1.75 120.4 9.65 138.6 18.15 146.65 35.6 142.6 19.95 129.65 10.7 118.1 2.45 101.55 0.55 86.1 -1.25 70.9 2.9 55.7 7 46.5 15.5 31.5 27.9 23.05 49.3 16.35 66.3 13.55 89.9 12.8 93 8.25 96.05 2.55 99.85 1.35 101.4 -0.85 105.3 0.5 109 1.65 112.25 5.25 114.55 8.6 116.75 12.5 117.25 16.55 117.7 19.2 116 22.4 113.35 22.1 103.6 21.75 92.65 23.7 89.1 27.75 79.1 36.8 82.4 39.9 83.55 44.65 86.7 47.3 88.45 52.2 91.7 48.7 97.35 51.2 100.45 53.35 103.05 59.35 103.5 64.65 103.85 70.9 102.5 76.95 101.2 80 99.2 82.15 101.7 85.55 102.6 87.55 103.15 93.8 103.7 93.3 110.4 98.65 110 103.65 109.6 107.4 104.6 110.5 106 117.9 105.3 125.05 104.65 132.55 102.4 140.5 100 145 96.95 150.1 93.45 149.1 90 152.85 93 156.05 93.1 158.95 93.2 160.25 91.1 161.5 89 160.4 86 159.15 82.65 155.3 79.7 158.45 74.3 157.6 68.55 156.9 63.9 153.1 57.2 153.15 51.5 151.45 45.95
M 112.3 85.4
Q 119 81.35 120.35 85.9 119.5 84.65 109 92.65 98.65 100.5 101.75 101.6 102.95 100.65 107.25 96.45 111 92.9 113.4 91.25 121 86 127 91.2 115.3 94.6 106.15 103.7 95.9 109.3 95.25 105.9 94.7 103.05 100.65 95.95 106.5 88.9 112.3 85.4
M 146.05 81.1
Q 147.2 78.5 147.75 76.1 152.1 78.45 155.3 81.15 160.85 85.8 160.45 89.7 158.3 93 152.55 90.5 145.2 87.25 141.8 88.1 145.45 80.25 151.4 85 152.75 86.1 154.6 87.9 155.6 88.7 155.15 86.3 152.35 81.6 146.05 81.1
M 148.75 90
Q 148.5 90.3 147.5 91.7 135 102.15 109.15 103.1 116.7 96.75 130.15 92.45 143.25 88.3 148.75 90 Z"/>
</g>
</defs>

<g transform="matrix( 1, 0, 0, 1, 0,0) ">
<use xlink:href="#Layer0_0_FILL"/>
</g>
</svg>
