
<svg xmlns="http://www.w3.org/2000/svg" version="1.1" xmlns:xlink="http://www.w3.org/1999/xlink" preserveAspectRatio="none" x="0px" y="0px" width="550px" height="400px" viewBox="0 0 550 400">
<defs>
<g id="MovieClips_PR2_Graphics_1_Apr_2014_fla_Symbol_684_6_Layer1_0_FILL">
<path fill="#FFFFFF" stroke="none" d="
M -81.05 -35.2
Q -84.85 -31.55 -84.85 -26.35 -84.85 -21.15 -81.05 -17.5 -77.25 -13.85 -71.9 -13.85 -66.55 -13.85 -62.75 -17.5 -58.95 -21.15 -58.95 -26.35 -58.95 -31.55 -62.75 -35.2 -66.55 -38.85 -71.9 -38.85 -77.25 -38.85 -81.05 -35.2
M 39.4 -48.1
Q 36.4 -45.65 33 -43.7 22.85 -37.8 11.8 -33.45 -1.4 -28.3 -15.1 -25.1 -27.55 -22.3 -39.15 -16.55 -37.5 -12.1 -36.35 -7.75 -33.95 1.35 -34.5 10.65
L -4.65 1.9
Q 4 -0.75 12.25 -4.4 21.15 -8.3 30.6 -8.05
L 30.65 -7.55 36 -8.05 50.65 -12.7
Q 54.25 -13.65 56.25 -16.45 57.4 -18.1 57.55 -20.2
L 57.75 -24.35 56.5 -25.9
Q 50.4 -32.15 42.55 -36.2
L 41.4 -35.15
Q 33.35 -28.15 23.7 -25.1 23.45 -25.55 23.5 -26
L 23.8 -26.4 41.45 -37.55 39.4 -48.1 Z"/>
</g>
</defs>

<g transform="matrix( 1, 0, 0, 1, 0,0) ">
<g transform="matrix( 1, 0, 0, 1, 0,0) ">
<use xlink:href="#MovieClips_PR2_Graphics_1_Apr_2014_fla_Symbol_684_6_Layer1_0_FILL"/>
</g>
</g>
</svg>
