
<svg xmlns="http://www.w3.org/2000/svg" version="1.1" xmlns:xlink="http://www.w3.org/1999/xlink" preserveAspectRatio="none" x="0px" y="0px" width="550px" height="400px" viewBox="0 0 550 400">
<defs>
<g id="Parts_Hats_hatsMC_6_Layer9_0_FILL">
<path fill="#000000" stroke="none" d="
M 42.2 -50.6
L 41.85 -52.1 40.25 -51.5 39.55 -52.25 32.6 -50.4
Q 24.4 -56.6 15.15 -61.15 7.7 -64.85 0.3 -69.05 -10.15 -74.8 -18.25 -83.55 -22.75 -88.35 -28.85 -89.75 -39.5 -92.15 -49.15 -85.6 -60 -78.35 -68.25 -66.8 -72.65 -60.65 -75.9 -53.8 -80.25 -44.5 -84.8 -35.7
L -84.45 -35.7
Q -89.4 -29.15 -86.9 -21.15 -84.2 -12.65 -75.2 -11.6 -64.2 -9.95 -58.55 -18.85 -55.35 -23.95 -57.1 -29.8 -58.8 -35.6 -63.9 -38.8 -62.05 -41.95 -58.7 -45.4 -50.95 -53.35 -41.25 -58.9 -44.7 -47.4 -44.9 -35.35 -44.95 -30.8 -43.95 -26.4 -42.9 -21.7 -41.3 -17.15
L -43.15 -16.45
Q -37.45 -8.35 -37.6 1.45 -37.7 6.6 -37.25 11.45 -34.5 13.25 -31.1 12.65 -19.3 10.3 -7.55 6.65
L 12.3 0.35
Q 12.4 0.8 12.65 0.95
L 13.5 1 13.25 -0.5 32.55 -4
Q 37.7 -3.7 43 -4.9 51.5 -7.05 57.35 -13.5 63.25 -20.05 62.65 -28.75
L 59.75 -27.65 49.75 -35.65
Q 43.6 -40.25 41.2 -47.55 40.55 -49.5 42.2 -50.6
M 33 -43.7
Q 36.4 -45.65 39.4 -48.1
L 41.45 -37.55 23.8 -26.4 23.5 -26
Q 23.45 -25.55 23.7 -25.1 33.35 -28.15 41.4 -35.15
L 42.55 -36.2
Q 50.4 -32.15 56.5 -25.9
L 57.75 -24.35 57.55 -20.2
Q 57.4 -18.1 56.25 -16.45 54.25 -13.65 50.65 -12.7
L 36 -8.05 30.65 -7.55 28.45 -7.1 30.6 -8.05
Q 21.15 -8.3 12.25 -4.4 4 -0.75 -4.65 1.9
L -34.5 10.65
Q -33.95 1.35 -36.35 -7.75 -37.5 -12.1 -39.15 -16.55 -27.55 -22.3 -15.1 -25.1 -1.4 -28.3 11.8 -33.45 22.85 -37.8 33 -43.7
M 27.8 -49.05
L 24.05 -47.9 28.65 -48.6 31.05 -47.3 -5.55 -31.55 17 -45.5
Q 2.4 -39.8 -11.05 -31.75 -13.35 -30.35 -15.75 -29.05 -19.35 -27.05 -23.25 -26.25
L -23.6 -24.95 -39 -18.1
Q -40.5 -27.1 -41.45 -36.05 -42.05 -41.45 -40.8 -46.75 -38.4 -57.2 -35.4 -67.35 -34.85 -69.15 -35.35 -71
L -40.7 -60.9
Q -48.45 -59.5 -54.9 -54.45 -61.45 -49.3 -67.05 -42.95
L -68.85 -40.75 -79.75 -39.3
Q -72.2 -59 -58.05 -74.7
L -52.35 -80.95
Q -49.15 -81.9 -46.15 -83.4 -41.3 -85.8 -36.1 -85.8 -24.2 -84.85 -14.95 -76.25 -9.2 -70.9 -2.6 -66.1 0 -64.2 3.15 -62.55 15.5 -56 27.8 -49.05
M -84.85 -26.35
Q -84.85 -31.55 -81.05 -35.2 -77.25 -38.85 -71.9 -38.85 -66.55 -38.85 -62.75 -35.2 -58.95 -31.55 -58.95 -26.35 -58.95 -21.15 -62.75 -17.5 -66.55 -13.85 -71.9 -13.85 -77.25 -13.85 -81.05 -17.5 -84.85 -21.15 -84.85 -26.35 Z"/>

<path fill="#FFFFFF" stroke="none" d="
M -81.05 -35.2
Q -84.85 -31.55 -84.85 -26.35 -84.85 -21.15 -81.05 -17.5 -77.25 -13.85 -71.9 -13.85 -66.55 -13.85 -62.75 -17.5 -58.95 -21.15 -58.95 -26.35 -58.95 -31.55 -62.75 -35.2 -66.55 -38.85 -71.9 -38.85 -77.25 -38.85 -81.05 -35.2
M 39.4 -48.1
Q 36.4 -45.65 33 -43.7 22.85 -37.8 11.8 -33.45 -1.4 -28.3 -15.1 -25.1 -27.55 -22.3 -39.15 -16.55 -37.5 -12.1 -36.35 -7.75 -33.95 1.35 -34.5 10.65
L -4.65 1.9
Q 4 -0.75 12.25 -4.4 21.15 -8.3 30.6 -8.05
L 28.45 -7.1 30.65 -7.55 36 -8.05 50.65 -12.7
Q 54.25 -13.65 56.25 -16.45 57.4 -18.1 57.55 -20.2
L 57.75 -24.35 56.5 -25.9
Q 50.4 -32.15 42.55 -36.2
L 41.4 -35.15
Q 33.35 -28.15 23.7 -25.1 23.45 -25.55 23.5 -26
L 23.8 -26.4 41.45 -37.55 39.4 -48.1 Z"/>
</g>

<g id="Parts_Hats_hatsMC_6_Layer5_0_FILL">
<path fill="#000000" fill-opacity="0.25098039215686274" stroke="none" d="
M -29.7 -74.55
L -34.8 -77.35
Q -41.1 -74.1 -40.6 -66.2 -52.35 -63.95 -61.4 -54.95 -68.1 -48.3 -70.9 -39.55
L -80 -37.1
Q -89.1 -29.65 -82.15 -19.55 -78.05 -13.65 -70.5 -13.85 -56.75 -14.25 -57.95 -27.45 -58.75 -36.2 -67.05 -39.1
L -39.55 -61.7
Q -41.3 -50.6 -43.75 -37.05 -44.55 -32.65 -43.2 -28.2 -41.45 -22.6 -39.05 -17.35 -39.4 -9.5 -37.75 -1.8 -36.8 2.75 -36.15 7.35 -35.85 9.65 -34.15 11 -22.3 11.25 -12.05 5.1 -10.6 4.2 -9.75 2.65
L -9.65 2.15 -12.6 2.35 -14 1.55 -16.5 3.2
Q -26.85 2.05 -27.1 -10.2
L -27.5 -19.25 -26.8 -19.75 -27.75 -23.1 -27.9 -23.1 -28.4 -23.4 -29 -23.65 -29.6 -23.4
Q -32.2 -30.3 -26.9 -35.4 -23.75 -38.45 -25.65 -42.15
L -29.6 -50.15
Q -23.65 -61.1 -28.55 -72.4 -29.05 -73.55 -29.7 -74.55
M -72.25 -35.1
Q -67.2 -36.3 -65.05 -32 -59.15 -20.4 -70.55 -18.85 -74.3 -18.3 -76.9 -20.95 -86.7 -31.1 -72.25 -35.1
M 32.45 -44.4
Q 33.35 -45.55 32.5 -46.9 26.8 -56.4 16.05 -60.8 -3.75 -68.9 -20.7 -82.4
L -20.05 -79.75 -22.85 -82.55
Q -31.05 -90.55 -42.2 -87.95 -52.6 -85.7 -59.7 -77.6 -66.4 -69.85 -71.9 -61.15 -78.85 -50.15 -80.75 -37.95
L -80 -37.1
Q -74.85 -43.35 -71 -50.7 -62.35 -67.25 -48.05 -78.7
L -37.25 -82.6
Q -41 -82.8 -36.8 -85.7
L -31.45 -82.15
Q -32.05 -83.1 -30.1 -83.6 -24.05 -81.7 -20.1 -77.15
L -19.35 -77.15 -9.95 -63.4 -4.85 -60.15
Q 5.3 -54.2 12.95 -45.65
L 14.95 -45.55 14.85 -43.85 13.25 -42.9
Q 12.15 -40.15 9.35 -40.3 -1.4 -39.25 -7.15 -31.8 9.95 -34.45 24.85 -44.05
L 32.45 -44.4
M 35.75 -47.45
L 34.9 -45.6 33.3 -37.65
Q 20.1 -34.5 16.9 -23.25 16.75 -22.75 17.2 -22.15 28.95 -23 41.15 -24.95 44.55 -25.65 47.35 -23.35 49.85 -21.3 49.6 -18.65
L 28.55 -8.1
Q 40.35 -1.5 53.1 -10.4 60.35 -15.45 61.4 -23.65 50.1 -32.4 43 -44.2 41.2 -47.15 40 -50.5 37.1 -50 35.75 -47.45 Z"/>
</g>
</defs>

<g transform="matrix( 1, 0, 0, 1, 0,0) ">
<g transform="matrix( 1, 0, 0, 1, 0,0) ">
<use xlink:href="#Parts_Hats_hatsMC_6_Layer9_0_FILL"/>
</g>

<g transform="matrix( 1, 0, 0, 1, 0,0) ">
<use xlink:href="#Parts_Hats_hatsMC_6_Layer5_0_FILL"/>
</g>
</g>
</svg>
