
<svg xmlns="http://www.w3.org/2000/svg" version="1.1" xmlns:xlink="http://www.w3.org/1999/xlink" preserveAspectRatio="none" x="0px" y="0px" width="550px" height="400px" viewBox="0 0 550 400">
<defs>
<g id="Parts_Heads_headColorMC_44_Layer1_0_FILL">
<path fill="#FBFF00" stroke="none" d="
M 123.2 91.7
L 157.95 49.05 101.2 47.9 72.65 3.3 53.45 54.1 1.75 67.7 47.35 99.8 43.2 156.5 86.85 124.5 139.15 143.9 123.2 91.7 Z"/>
</g>

<g id="Parts_Heads_headColorMC2_44_Layer3_0_FILL">
<path fill="#000000" stroke="none" d="
M 151.1 47.4
Q 137.85 47.7 131.95 47.3 123.35 46.75 105.5 46.45 104.3 45.65 98.5 35.55 91.8 23.75 90.25 21.6 76.7 2.25 73.5 2.1 73.6 1 73 0.75
L 72.75 0.85
Q 71 1.3 64.65 15.7 58.45 29.65 50.9 50.15
L 50.45 51.3
Q 29.15 56.95 14.85 61.8 0.15 66.75 0.55 68.25 0.85 68.8 2.1 68.8
L 2 68.9
Q 1.15 70.2 7.45 75.7 13.8 81.3 23.45 87.75 30.95 92.7 37.45 96.2 43.7 99.55 46.8 100.35 44.9 106.45 42.75 127.55 41.6 139.9 41.6 148.7 41.6 157.55 42.75 157.65 42.85 157.65 43.1 157.95 43.25 158.15 43.35 157.95
L 44.2 157.65
Q 44.25 157.65 88.05 133.75
L 138.05 144.65
Q 138.8 145.75 139.4 145.55 140.65 145.2 139.2 136.8 137.65 128.25 134.3 116.85 131.65 107.65 128.9 100.45 126.2 93.4 124.45 90.95 126.2 89.95 131.2 84.5 136.2 79.05 142.35 71.45 148.7 63.7 153.2 57.4 157.5 51.35 157.85 49.75 160.05 49 160.05 48.25 160.05 47.15 151.1 47.4
M 85.3 26.7
Q 89.9 33.5 95.85 42.25 99.95 47.85 103.4 49.9 106.95 52.05 113.4 52.55 116.8 52.8 131.2 52.85 138 52.8 145.2 52 151.6 51.3 155.95 50.3 153.5 52.25 149.1 56.95 144.15 62.2 138.95 68.6 133.15 75.7 128.7 82 124.55 87.85 123.7 90.05 123.45 89.75 122.95 90 121.7 90.3 123.15 98.75 124.6 107.3 127.95 118.7 132.1 132.65 136.15 141.3 136.15 141.25 86.7 124.05 45.65 150.35 45.65 150.4 47.4 142.15 48.7 128.2 49.6 118.95 49.75 111.15 49.95 103.7 49.45 100.3 49.7 99.85 49.2 99 48.85 98 48.6 98 46.45 95.25 41 90.75 35.1 85.9 27.9 81.15 20.3 76.05 13.5 72.55 7.15 69.25 4.15 68.7 9.8 68.15 23.4 64.9 37.1 61.55 54.85 56.4 54.85 56.35 55.45 55 62.45 37.45 67.15 23.95 71.95 10.25 73.05 4.55 73.95 7.7 77.1 13.5 80.6 19.95 85.3 26.7 Z"/>
</g>

<g id="Parts_Heads_headsMC_44_Layer12_0_FILL">
<path fill="#000000" stroke="none" d="
M 151.05 47.6
Q 138.25 48.15 131.95 47.7 119.35 46.9 105.3 46.65 104.05 45.85 98.2 35.75 91.35 23.8 89.95 21.8 83.2 12.2 79.5 7.7 75 2.15 73.4 2.1
L 73.3 2.15
Q 73.4 1 73 0.85 72.9 0.8 72.75 0.85 71 1.3 64.65 15.7 58.45 29.65 50.9 50.15
L 50.45 51.3
Q 29.15 56.95 14.85 61.8 0.15 66.75 0.55 68.25 0.7 68.7 2.2 68.7
L 2.1 68.8
Q 1.25 70.05 7.55 75.55 13.85 81.05 23.65 87.55 31.15 92.55 37.65 96.05 43.95 99.45 47.1 100.25 46 103.6 44.85 110.95 43.65 118.35 42.75 127.55 41.6 139.9 41.6 148.7 41.6 157.55 42.75 157.65 43.05 157.65 43.35 157.15
L 43.3 157.65 88.05 133.05 138.05 144.55
Q 138.8 145.7 139.3 145.55 140.55 145.2 139.05 136.8 137.5 128.3 134.1 116.85 131.4 107.65 128.65 100.45 125.95 93.4 124.25 90.95 126 89.9 131 84.5 136.15 78.95 142.25 71.45 148.65 63.7 153.15 57.35 157.5 51.2 157.85 49.65 159.95 48.9 159.95 48.25 159.9 47.2 151.05 47.6
M 85.6 26.4
Q 90.2 33.2 96.1 41.95 100.2 47.6 103.55 49.65 107.05 51.8 113.4 52.25 116.8 52.55 131.2 52.55 138.2 52.5 145.3 51.8 152.05 51.1 156.15 50.1 151 54.4 139.15 68.9 133.15 76.3 128.8 82.3 124.55 88.2 123.7 90.25 123.25 89.8 122.95 89.9 121.7 90.25 123.25 98.65 124.75 107.05 128.15 118.6 132.55 133.45 136.25 141.3
L 86.7 124.55 45.25 150.7
Q 47.1 142 48.4 128.1 49.3 118.75 49.5 111.1 49.75 103.55 49.25 100.2 49.5 99.8 49 98.9 48.7 98.05 48.4 98 46.35 95.4 40.8 90.95 35.05 86.35 27.7 81.45 19.9 76.25 13.2 72.65 6.65 69.15 3.75 68.6 9.35 68.1 23.2 64.7 36.85 61.35 54.85 56.1
L 55.35 54.9
Q 62.3 37.45 67.05 23.8 71.85 10.1 72.95 4.35 73.8 7.35 77.2 13.3 80.7 19.45 85.6 26.4 Z"/>
</g>

<g id="Parts_Heads_headsMC_44_Layer8_0_FILL">
<path fill="#FFFFFF" fill-opacity="0.615686274509804" stroke="none" d="
M 81.35 93.15
Q 85.1 83.8 85.7 70.9 86.25 58.05 83.5 47.45 80.5 35.95 74.55 31.6 70.75 31.35 64.6 41.05 58.15 51.15 54.95 63.4 51.15 77.85 54.15 88.35 57.75 100.95 70.8 105.5 77.3 103.4 81.35 93.15 Z"/>
</g>
</defs>

<g transform="matrix( 1, 0, 0, 1, -62.75,-76.85) ">
<g transform="matrix( 0.7476043701171875, -0.2003021240234375, 0.20025634765625, 0.74761962890625, -8.3,54) ">
<use xlink:href="#Parts_Heads_headColorMC_44_Layer1_0_FILL"/>
</g>
</g>

<g transform="matrix( 1, 0, 0, 1, -62.75,-76.85) ">
<g transform="matrix( 0.750946044921875, -0.2012939453125, 0.201202392578125, 0.7513275146484375, -8.75,54) ">
<use xlink:href="#Parts_Heads_headColorMC2_44_Layer3_0_FILL"/>
</g>
</g>

<g transform="matrix( 1, 0, 0, 1, -62.75,-76.85) ">
<g transform="matrix( 0.7507781982421875, -0.20123291015625, 0.2010498046875, 0.751434326171875, -8.7,54) ">
<use xlink:href="#Parts_Heads_headsMC_44_Layer12_0_FILL"/>
</g>

<g transform="matrix( 0.7507781982421875, -0.20123291015625, 0.201080322265625, 0.751434326171875, -7.8,60.4) ">
<use xlink:href="#Parts_Heads_headsMC_44_Layer8_0_FILL"/>
</g>

<g id="hat1" transform="matrix( 0.983917236328125, -0.17529296875, 0.17529296875, 0.983917236328125, 45.2,78.25) ">
<g id="colorMC" transform="matrix( 0.9999847412109375, 0, 0, 0.9999847412109375, 0,0) "/>

<g id="colorMC2" transform="matrix( 1, 0, 0, 1, 0,0) "/>
</g>

<g id="hat2" transform="matrix( 0.9733734130859375, -0.2247314453125, 0.2247314453125, 0.9733734130859375, 38,60.6) ">
<g id="colorMC_FL" transform="matrix( 0.9999847412109375, 0, 0, 0.9999847412109375, 0,0) "/>

<g id="colorMC2_FL" transform="matrix( 1, 0, 0, 1, 0,0) "/>
</g>

<g id="hat3" transform="matrix( 0.96026611328125, -0.2753753662109375, 0.2753753662109375, 0.96026611328125, 26,48.4) ">
<g id="colorMC_FL_FL" transform="matrix( 0.9999847412109375, 0, 0, 0.9999847412109375, 0,0) "/>

<g id="colorMC2_FL_FL" transform="matrix( 1, 0, 0, 1, 0,0) "/>
</g>

<g id="hat4" transform="matrix( 0.944580078125, -0.3252410888671875, 0.3252410888671875, 0.944580078125, 18.85,34.5) ">
<g id="colorMC_FL_FL_FL" transform="matrix( 0.9999847412109375, 0, 0, 0.9999847412109375, 0,0) "/>

<g id="colorMC2_FL_FL_FL" transform="matrix( 1, 0, 0, 1, 0,0) "/>
</g>
</g>
</svg>
