
<svg xmlns="http://www.w3.org/2000/svg" version="1.1" xmlns:xlink="http://www.w3.org/1999/xlink" preserveAspectRatio="none" x="0px" y="0px" width="550px" height="400px" viewBox="0 0 550 400">
<defs>
<g id="Graphics_Symbol_620_0_Layer0_0_FILL">
<path fill="#000000" stroke="none" d="
M 98.75 57.1
L 99.65 56.9
Q 100.1 56.7 100.1 55.75 100.1 54.85 99.6 54.5
L 98.75 54.2 76.3 54.1 74.7 53.65 64.55 53.65 63.55 54
Q 63.2 54.35 63.2 55.25 63.2 56.2 63.7 56.45
L 64.55 56.55 76.85 57.1 98.75 57.1
M 103 49.3
L 103.2 49.2 103.3 48.25
Q 103.3 46.5 84.25 32.45 63.95 17.55 54.9 14.95
L 53.95 15.3
Q 53.6 15.65 53.6 16.55
L 64.8 23.4
Q 76.7 30.55 79.05 32.45 86.05 39.2 89.65 42.35 95.95 47.85 103 49.3
M 92.95 25.55
L 101.05 35.15
Q 105.9 40.95 109.95 42.4
L 110.15 42.25 110.25 41.35
Q 110.25 37.4 72.55 5.75
L 71.6 6.1
Q 71.2 6.45 71.2 7.35 71.2 8.05 79.15 13.95 88.7 21.1 92.95 25.55
M 121.65 41.2
Q 124.5 38.85 133.75 31.65 141.55 25.2 141.75 22.6 141.95 20.65 140.85 21.05 139.75 21.55 132 28.5 124.65 35.05 116.6 42.75
L 116.85 44.35 118.75 43.1
Q 121.15 41.75 121.65 41.2
M 165.65 69.45
L 172.95 70.8
Q 173 67.85 172.5 67.35 171.85 66.65 167.8 65.85 149.05 62.5 135.25 59.35 126.85 57.5 121 56.9
L 119.25 56.75 119.35 59.95
Q 130 57 143.65 62.35 158.05 68.05 165.65 69.45
M 170.85 43.75
Q 170.55 42.95 165.15 43.75 159.7 44.45 144.2 47.55 128.7 50.65 119.95 51.65
L 119.1 52.1 119.1 52.65 121.15 52.9
Q 129.15 53.75 142.3 51.55 153.1 49.65 170.9 45 170.8 44.7 170.85 43.75 Z"/>
</g>

<g id="Graphics_Symbol_724_0_Layer2_0_FILL">
<path fill="#000000" stroke="none" d="
M 119.1 52.1
L 118.2 52.55 119.1 52.65 119.1 52.1
M 110.2 36.4
Q 106.05 30.25 102.4 26.35 89.65 13.3 67.85 11 22.1 6.05 3.75 25.85 -9.85 40.4 -13.4 78.5 -16.15 107.75 5.75 121.15 16.95 128.1 33.4 129.85 47.45 131.4 69.25 120.7 88.45 111.25 93.4 104.2
L 107.35 84.25
Q 117.35 69.7 117.5 68.1 117.65 66.4 116.85 66.05
L 115.85 65.95 118.15 60.3 119.35 59.95 119.25 56.75 118.4 56.65
Q 118.4 55.75 115.85 44.85
L 116.85 44.35 116.6 42.75 115.45 43.8
Q 114.25 42.55 110.2 36.4
M 105.3 39.35
Q 105.25 40.15 105.85 41.15 106.55 42.05 106.5 42.85 104.8 43.8 102.85 45.9 99.1 50.05 98.35 57.85 98.2 59.9 101.9 60.35
L 107.65 59.8 114.5 59
Q 110.9 66.55 106.25 73.5 99.1 84.05 95.75 89.85 90.85 106.4 71.75 115.9 53.95 124.55 25.85 126.35 6.4 117.65 -2.1 106.9 -11.2 95.2 -9.7 78.8 -7.4 54.25 0.55 39.3 13.7 14.75 40.9 17.7
L 49.35 16
Q 56.8 14.25 68.7 15.55 91.2 18 100.4 28.4 105.8 34.5 105.3 39.35
M 114.1 51.05
Q 115.3 53.7 115.4 54.6
L 109.55 55.05 103.45 55.65 105.85 52
Q 108.65 47.6 110.35 44.05 112.55 47.35 114.1 51.05
M 79.65 68.9
Q 74.9 63.85 67.75 63.1 60.5 62.3 55 66.2 49.45 70.1 48.85 76.4 48.3 82.6 53.05 87.65 57.7 92.6 64.9 93.4 72.05 94.15 77.7 90.25 83.1 86.4 83.65 80.2 84.25 73.9 79.65 68.9
M 68.5 67.6
L 71.55 68.05 73.05 68.55
Q 68.25 68.7 66.9 70.1 66.05 70.95 65.75 73.95 65.05 81.1 70.45 81.7 74 82.1 77 80.5 79.35 79.15 79.4 78.4 79.55 76.8 78.75 75.45
L 78.1 73.05
Q 80.35 76.45 79.8 82.15 79.55 85.15 77 86.9 74.5 88.8 70.8 88.4 62.6 87.55 57.5 83.8 52.9 80.3 52.5 76.15 52.1 71.95 56.1 69.5 60.5 66.75 68.5 67.6 Z"/>

<path fill="#FFCCFF" stroke="none" d="
M 115.4 54.6
Q 115.3 53.7 114.1 51.05 112.55 47.35 110.35 44.05 108.65 47.6 105.85 52
L 103.45 55.65 109.55 55.05 115.4 54.6 Z"/>

<path fill="#FFFFFF" stroke="none" d="
M 71.55 68.05
L 68.5 67.6
Q 60.5 66.75 56.1 69.5 52.1 71.95 52.5 76.15 52.9 80.3 57.5 83.8 62.6 87.55 70.8 88.4 74.5 88.8 77 86.9 79.55 85.15 79.8 82.15 80.35 76.45 78.1 73.05
L 78.75 75.45
Q 79.55 76.8 79.4 78.4 79.35 79.15 77 80.5 74 82.1 70.45 81.7 65.05 81.1 65.75 73.95 66.05 70.95 66.9 70.1 68.25 68.7 73.05 68.55
L 71.55 68.05 Z"/>
</g>

<g id="Graphics_Symbol_724_0_Layer1_0_FILL">
<path fill="#000000" fill-opacity="0.14901960784313725" stroke="none" d="
M 107.45 34.8
L 107.55 33.9
Q 107.55 23.75 84.25 16.9 65.8 11.5 50.7 11.5 37.9 11.5 25.55 14.8 14.45 17.8 8.5 22 7.3 22.9 5.45 23.55 4.85 23.8 4.5 25.2
L 0.05 32.5
Q -4.15 39.5 -5.15 45.15 -5.9 49.5 -7.25 52 -8.65 54.65 -9 56.5 -13.25 76.45 -13.25 82.65 -13.25 98.1 -3.75 109.15 5.85 120.2 25.5 127.5
L 44.75 127.5
Q 67.15 121.5 82.5 108.45 86.55 105 92.55 98.75 97.75 93.4 100.1 91.75 108.05 82.3 113.45 71.8 118.25 62.25 118.25 57.5 118.25 51.25 111.55 42.65 108.15 38.3 104.35 34.75
L 107.3 34.95 107.45 34.8
M 105.55 45.95
L 104.6 45.75 106 44.6
Q 107.2 43.5 106.95 43.3 110.5 43.9 112.8 47.15 115.6 50.95 115.6 57.4 115.6 59.15 112.65 66.4 109.4 74.4 107.3 74.4
L 90.35 95.9
Q 90.35 103.25 69.1 110.65 51.05 116.85 42.8 116.85 21.6 116.85 10.1 109.25 -2 101.25 -2 85.65 -2 66.5 5.95 49.55 13.85 32.6 31.4 30.25 48.85 27.9 58.45 29.35 67.95 30.8 75.35 34.75 82.6 38.75 94.2 43.1
L 105.9 47.6 105.95 46.9
Q 105.95 46.15 105.55 45.95
M 68 62.9
Q 68 62.1 67.35 61.4 66.7 60.6 65.85 60.6 51.05 60.6 42.9 68.4 37 73.95 37 79.2 37 86.7 42.85 90.15 48.4 93.45 59.9 93.45 65.4 93.45 66.3 92.05 67.05 90.85 65.15 89.85 63.9 88.6 58.15 84.7 53.05 80.45 53.05 75.75 53.05 69.65 60.5 65.75 64.25 63.75 68 62.9 Z"/>
</g>

<g id="Graphics_Symbol_724_0_Layer0_0_FILL">
<path fill="#FFFFFF" stroke="none" d="
M 70.15 78.85
Q 73.9 79.9 73.9 76.45 73.9 75.2 73.1 74.65 71.95 73.85 69.1 73.85
L 66.5 74.1 66.4 75.75
Q 66.4 77.85 70.15 78.85
M 109.15 55.05
Q 112.35 54.1 112.35 52.7 112.35 51.7 110.75 50
L 108.9 48.45
Q 106.45 48.45 105.95 50.2
L 105.95 51.9
Q 105.95 56.1 109.15 55.05 Z"/>
</g>
</defs>

<g transform="matrix( 1, 0, 0, 1, -33.5,-72.6) ">
<g transform="matrix( 1, 0, 0, 1, 0,0) ">
<g transform="matrix( 1, 0, 0, 1, 0,0) ">
<use xlink:href="#Graphics_Symbol_620_0_Layer0_0_FILL"/>
</g>
</g>

<g transform="matrix( 1, 0, 0, 1, 0,0) ">
<g transform="matrix( 1, 0, 0, 1, 0,0) ">
<use xlink:href="#Graphics_Symbol_724_0_Layer2_0_FILL"/>
</g>

<g transform="matrix( 1, 0, 0, 1, 0,0) ">
<use xlink:href="#Graphics_Symbol_724_0_Layer1_0_FILL"/>
</g>

<g transform="matrix( 1, 0, 0, 1, 0,0) ">
<use xlink:href="#Graphics_Symbol_724_0_Layer0_0_FILL"/>
</g>
</g>
</g>
</svg>
