
<svg xmlns="http://www.w3.org/2000/svg" version="1.1" xmlns:xlink="http://www.w3.org/1999/xlink" preserveAspectRatio="none" x="0px" y="0px" width="550px" height="400px" viewBox="0 0 550 400">
<defs>
<g id="MovieClips_PR2_Graphics_1_Apr_2014_fla_Symbol_667_15_Layer0_0_FILL">
<path fill="#FFD860" stroke="none" d="
M 70.5 -55.75
Q 70.35 -58.9 70.05 -60.55 69.55 -63.25 68.5 -65 68.35 -65.35 67.9 -65.7 68.35 -67.85 67.45 -69.45 66.5 -71.3 64.65 -70.75
L 63.55 -70.4
Q 48.85 -70.4 37.15 -70.65
L 20.35 -70.65
Q 18.7 -70.9 17 -71 13.25 -71.3 10.3 -71.3 7 -71.2 3.65 -70.6 3.25 -70.55 1.95 -70.55 0.75 -70.55 0.2 -70.4 -0.3 -70.3 -0.75 -69.75 -1.5 -68.8 -1.55 -68.75
L -1.85 -68.15
Q -5.1 -66.5 -6 -66.1 -8.3 -65.05 -10.35 -64.8 -15.45 -64.25 -20.3 -65
L -20.95 -65.05
Q -21.3 -65.9 -22.15 -66.4 -22.55 -66.6 -23.15 -66.6 -23.95 -66.6 -24.45 -65.45 -33.1 -66.2 -38 -63.9 -39.75 -63.75 -40.4 -62.4
L -40.85 -62.15
Q -41.4 -61.95 -42 -61.45
L -42.4 -61.15
Q -43.9 -59.95 -44.75 -58.45 -44.95 -58.15 -46.9 -55.1 -48.2 -53.05 -49.2 -51.8 -51.25 -49.35 -54.6 -46
L -59.05 -41.6
Q -60.65 -40.15 -61.75 -38.4 -61.8 -38.2 -62.4 -38.05 -62.85 -37.85 -62.85 -37.75 -63.35 -37.1 -63.05 -35.95 -62.9 -35.3 -62.45 -34.05
L -62.2 -32.4
Q -62.1 -31.75 -61.85 -31.2
L -61.5 -30.55
Q -61.65 -25.1 -60.6 -19.9
L -60.55 -19.45
Q -61.25 -11.5 -59 -3.65 -58.4 -1.6 -57.15 2.4 -56.2 5.9 -56.05 8.6 -55.6 13 -54.4 15.75 -52.8 19.5 -49.7 18.65 -48.5 18.3 -44.1 15.55
L -40.9 13.75
Q -33.05 12.7 -25.4 10.2 -19.8 8.45 -15.65 6.95 -9.75 7.1 -4.15 5.2 -1.8 4.55 3 3.25 6.9 1.85 8.95 -0.65
L 17.05 -3.1
Q 18.35 -3.45 18.85 -4.85
L 19.15 -4.95
Q 28.25 -7.35 37.35 -11.4 57.3 -20.3 70.3 -31.35
L 70.75 -31.9
Q 71.55 -32 72.6 -32.25 73.95 -32.65 74.15 -33.05 75.45 -35.25 74.4 -38.6 72.9 -43.25 72.9 -44.45 72.9 -52.3 70.5 -55.75 Z"/>
</g>
</defs>

<g transform="matrix( 1, 0, 0, 1, 0,0) ">
<g transform="matrix( 1, 0, 0, 1, 0,0) ">
<use xlink:href="#MovieClips_PR2_Graphics_1_Apr_2014_fla_Symbol_667_15_Layer0_0_FILL"/>
</g>
</g>
</svg>
