
<svg xmlns="http://www.w3.org/2000/svg" version="1.1" xmlns:xlink="http://www.w3.org/1999/xlink" preserveAspectRatio="none" x="0px" y="0px" width="550px" height="400px" viewBox="0 0 550 400">
<defs>
<g id="Layer0_0_FILL">
<path fill="#000000" stroke="none" d="
M 112.9 32.5
Q 106.55 32.5 102.3 33.7
L 80.9 40.4
Q 73 45.9 69.4 49.65 66.7 52.35 66.7 53.65
L 66.75 54.15
Q 61.2 52.35 51.5 54.05 41.15 55.9 31.55 60.95 20.6 66.7 14.25 74.95 6.85 84.55 6.85 96.15 6.85 111.35 14.3 120.6 20.45 128.25 33.3 133.25 39 135.5 58.7 140.9 75.85 145.6 85.55 150.3 92.35 153.35 93 154.8
L 93.1 155.65
Q 93.2 156.05 94.25 156.5 98.95 144.65 109.25 128.25 117.55 115.05 122.75 108.8 130.7 99.35 136.6 87.55 143.4 73.95 143.4 64.65 143.4 47.5 132.85 39.05 124.7 32.5 112.9 32.5
M 101.85 35.85
L 112.65 35.05
Q 123.3 35.05 131.05 41.1 140.5 48.5 140.5 62.15 140.5 71.4 136.65 80.7 133.55 88.35 126.3 99.2
L 110.95 121.35
Q 100.35 136.8 92.3 150.8 89.8 145.4 75.9 141.9 57.6 138.2 47.7 135.5 30.05 130.65 21 122.8 9.15 112.45 9.15 95 9.15 80.95 22.2 69 36.45 55.95 56.7 55.95 66.55 55.95 75.8 60.4 81.3 63 88.65 68.6 90.2 66.75 82.85 61.15 75.15 55.25 68.6 54.5 71.25 51.5 74.9 48.2 79.1 44.35 81.35 43.25 94.85 36.45 99.45 35.8
L 101.85 35.85
M 91.6 95.9
L 99.05 90.9
Q 107 85.9 109.95 85.9 111.5 85.9 115.05 87.15
L 118.4 88.35 119.25 88.1 119.55 87.65
Q 118.75 85.4 116.5 84.15 114.45 83 111.8 83 104.3 83 96.8 88.15 90.45 92.55 90.45 94.65 90.45 95.9 91.6 95.9 Z"/>
</g>
</defs>

<g transform="matrix( 1, 0, 0, 1, 0,0) ">
<use xlink:href="#Layer0_0_FILL"/>
</g>
</svg>
