
<svg xmlns="http://www.w3.org/2000/svg" version="1.1" xmlns:xlink="http://www.w3.org/1999/xlink" preserveAspectRatio="none" x="0px" y="0px" width="550px" height="400px" viewBox="0 0 550 400">
<defs>
<g id="Layer0_0_FILL">
<path fill="#000000" stroke="none" d="
M 83.35 48.65
L 83.25 49 83.1 49.9 83.15 50.25
Q 77.05 42.4 73.5 33.05 72.1 29.2 71.3 25.35
L 71.4 24.85 71.4 24.75 71.45 24.4 71.45 24.5
Q 71.5 24.35 71.5 24.1
L 71.5 23.6 71.45 23.45 71.4 22.55 71.35 22.35 71.35 22.25
Q 71.45 21.65 71.35 21.05
L 71.35 20.8 71.15 19.9 70.15 18.1
Q 69.9 17.15 69.4 16 69.15 15.6 69.15 16.2
L 69.05 16.4 69 16.75 68.65 16.35
Q 67.85 14.65 66.6 13.1 64.05 10.05 58.3 7.3 53.2 4.85 47.9 3.3 37.2 0.1 25.85 0 19.35 0 13.2 1.1 10.2 1.6 7.15 2.45
L 4.25 3.4 3.55 3.75 3.1 3.7 1.05 3.7 0.35 3.8
Q 0.1 3.9 0.1 4.3 0 4.75 0 5.55 0 6.2 0.15 6.8 0.3 7.25 0.45 7.3
L 1.1 7.4
Q 1.2 8.25 1.5 8.35 2.85 8.8 3.95 8.5 4.15 8.45 6.85 7.75 10.45 6.85 12.3 6.5 17.85 5.4 23.15 5.2 40.05 4.15 55.5 10.8 60.65 12.8 64.9 16.25 68.25 19.3 69.75 25.35 70.2 27.15 71 30.65 71.75 33.8 72.45 35.9 76.7 48.75 84.35 56.95 84.85 57.5 85 55.2
L 85 54.1 86.05 55.25
Q 86.4 55.6 86.5 55.55 86.75 55.35 86.75 54.6 86.85 53.8 86.7 53.2
L 86.7 53.15 86.65 52.95 86.65 53 86.4 52.3 83.95 49 83.7 48.75 83.45 48.6 83.35 48.65 Z"/>
</g>
</defs>

<g transform="matrix( 1, 0, 0, 1, 0,0) ">
<use xlink:href="#Layer0_0_FILL"/>
</g>
</svg>
