
<svg xmlns="http://www.w3.org/2000/svg" version="1.1" xmlns:xlink="http://www.w3.org/1999/xlink" preserveAspectRatio="none" x="0px" y="0px" width="550px" height="400px" viewBox="0 0 550 400">
<defs>
<g id="Graphics_Symbol_244_0_Layer0_0_FILL">
<path fill="#000000" stroke="none" d="
M 37 37.75
L 37.8 37.45
Q 38.25 37.15 38.25 36.35
L 38.2 35.8 38.25 33.25
Q 38.25 28.1 35 24.45 29.55 18.3 16.5 19.5 0.65 19.95 -8.2 24.7 -15.25 28.5 -15.25 32.85
L -15.1 34.9 -14.25 36.2 -13.9 37.05 -13 37.75 37 37.75
M 36.1 33.85
L 36.4 35.25 -10.25 35.25
Q -10.7 34.45 -11.7 33.65
L -12.55 32.8
Q -12.55 30.15 -6.05 26.8 3.25 22 19.65 22 30.8 22 34.4 28.75 35.45 30.7 36.1 33.85 Z"/>
</g>
</defs>

<g transform="matrix( 1, 0, 0, 1, -28.4,-10.7) ">
<g transform="matrix( 1, 0, 0, 1, 0,0) ">
<g transform="matrix( 1, 0, 0, 1, 0,0) ">
<use xlink:href="#Graphics_Symbol_244_0_Layer0_0_FILL"/>
</g>
</g>
</g>
</svg>
