
<svg xmlns="http://www.w3.org/2000/svg" version="1.1" xmlns:xlink="http://www.w3.org/1999/xlink" preserveAspectRatio="none" x="0px" y="0px" width="550px" height="400px" viewBox="0 0 550 400">
<defs>
<g id="Graphics_Symbol_593_0_Layer0_0_FILL">
<path fill="#FCFB83" stroke="none" d="
M 57.9 47.8
Q 57.9 37 54.8 23.6 51.7 10.25 47.75 3.75 50.3 10.05 42.5 30.05 36.6 45.15 28.75 59.3 23.85 68.15 21.1 71.85 18.8 74.9 14.5 78.65 12.05 80.75 10.85 93.1
L 9.25 111 9.35 111
Q 11.05 108.95 11.3 108.95 13.8 108.95 18.9 104.85 24.05 100.65 33.15 91.65 42.2 82.6 47.3 72.85
L 55.05 57.4
Q 56.75 57.05 57.9 47.8 Z"/>
</g>

<g id="MovieClips_Symbol_587_0_Layer0_0_FILL">
<path fill="#000000" stroke="none" d="
M 59.95 37.15
Q 54.45 0 46 0 24.95 0 14.5 25.5 10.95 34.15 9.1 44.8 7.75 52.45 7.75 57.35 7.75 60.15 8.5 62
L 9 60.8
Q 8.9 73.15 6.05 98.2
L 3.1 124.4
Q 0 130 0 130.85 0 132.35 0.4 132.45
L 0.75 132.5 2.2 132.55 3.85 132.55
Q 44 133.4 52.4 136.65 54.8 137.55 58 140.4 61.3 143.25 66.25 145.25
L 67 144 67 99
Q 63 57.75 59.95 37.15
M 19.25 84.75
Q 16.9 86.9 15.5 94.75 13.8 104.15 12.75 106.5
L 8.55 114.65 9.75 107.9
Q 11.5 96.2 11.5 80.85 11.5 64.8 9.75 54.3 11.7 40.15 15.6 28.85 24.95 2 45 2 53 2 59.3 59.8 62.45 88.75 64 118.25
L 63.75 140.5
Q 57.85 137.05 56.15 136.2 53.95 135.15 50.3 134.7 34.05 133.3 5.1 129.1
L 4.95 129.05 5.2 128.1
Q 12.15 119.1 15.2 106.45 17.7 91.55 19.25 84.75 Z"/>
</g>

<g id="Parts_Bodies_bodyMC_6_Layer9_0_FILL">
<path fill="#000000" stroke="none" d="
M 46.35 1.95
Q 45.3 2.4 45.3 2.95 45.3 16.55 41.15 28.4 33.55 50.15 11.5 76.8 7.5 80.15 5.5 98.55 4.45 107.9 3.95 118.2
L 6.4 118.45 7 118.75 9.15 117.15
Q 11.05 115.55 12.35 115.65 14.65 113.95 14.75 112.7
L 14.95 111.05
Q 17.35 108.45 23.5 103.3
L 31.25 96.8
Q 43 86.35 51.1 71.15 57.8 58.7 58.35 51.35
L 58.75 54.6 61.1 50.15 61.6 48.4
Q 61.6 34.7 58 21.1 54.2 6.8 48.4 0.85
L 46.35 1.95
M 48.05 6.6
L 48.9 6.25
Q 51.5 13.5 54.25 24.85 57.9 40.15 57.9 48.85
L 56.5 54.4
Q 56.5 55.8 55.45 56.85 53.55 58.8 50.95 65.3 50 67.7 46 73.6 41.85 79.75 36.9 85.85 31.2 92.9 15.35 107.5 14.3 108.55 12.9 108.6
L 10.9 108.8 10.3 111.15
Q 9.6 113.05 8.85 112 9.55 107.75 9.95 101.55
L 10.65 92
Q 11.7 81.75 16.65 76.65 30 62.95 30.5 56 39.1 40 44.15 25.7 49.2 11.45 48.05 6.6
M 21.25 81.05
L 20.3 81.2 19.75 81.6 21.3 86.55
Q 22.85 91.2 23.55 92.1 25.5 90 25.5 84.75 25.4 83.85 25.95 85.4
L 27.05 87.95
Q 29 87.95 29 86.25
L 28.35 83.75 26.6 78.95 26.45 77.85
Q 27.45 78.3 29.7 81.95 31.3 84.5 34.05 83.3 32.15 81.5 30.1 76.95 28.45 73.25 27.4 73.25
L 21.25 81.05
M 34.9 64.45
Q 34.25 64.75 34.1 65.3
L 39.4 72.75 40.45 71.8 35.55 64.25 34.9 64.45
M 39.5 55.35
Q 39.5 56.05 38.2 57.75 42.5 59.65 45.65 59.7
L 45.9 59.6
Q 44.85 60.6 44.45 61.5 44.2 62.2 44.2 63.4 44.2 64 44.55 64.25
L 46.1 65.65 48.75 58.65 48.6 57.55 41.5 57.55
Q 41.5 56.25 42.05 53.1
L 40.15 52.9
Q 39.5 53.75 39.5 55.35
M 47.3 40.1
Q 45.3 43.6 45.3 44 45.3 45.45 47.35 47.3 48.45 48.35 50.4 49.75 49.75 50.15 49.75 51.35
L 49.8 53.5 50.05 53.7 50.9 53.75
Q 52.85 53.75 55.75 48.35 55.75 46.95 53.05 45.8 50.05 44.45 49.75 43.9 49.5 43.4 50.1 40.5
L 50.75 37.35 50.65 36.4 50.5 36
Q 49.5 36.2 47.3 40.1
M 52 48.3
L 51.15 49.1 51.45 48.65
Q 51.8 48.2 52 48.3 Z"/>
</g>

<g id="MovieClips_Symbol_623_0_Layer0_0_FILL">
<path fill="#000000" fill-opacity="0.25098039215686274" stroke="none" d="
M 61.7 48.9
Q 55.2 0 46 0 31.5 0 20.35 14.9 7.75 31.75 7.75 58.7 7.75 60.55 8.3 61.6
L 8.8 62.5 8.45 69.7 5.85 99.8
Q 5 110.65 3.15 123.3 2.25 127.85 1 129.15 0 130.15 0 130.85 0 132.1 0.15 132.2
L 2.8 132.45 29.2 133.45
Q 42.05 134.35 49.3 136.4 58.6 139.05 66.25 145.25
L 67 119.95
Q 67 88.5 61.7 48.9
M 30.5 27.25
Q 33.8 27.45 39.4 35.5 44.1 42.3 46.25 47.8 49.25 55.55 49.85 62.85 50.15 66.65 49.95 70 50.85 81.5 52.8 99.4 54.25 112.55 54.25 116.45 54.25 119.95 49.75 121.5 44.6 123.25 31.55 123.25
L 24.75 122.65 15.7 121.7
Q 20.25 118.4 22.25 116.05 24.95 112.95 25.85 109.1
L 29.55 92.7
Q 31 86 31 84.1 31 79.35 29 74 26.6 67.65 23.25 67.65 20.4 67.65 17.55 71.35
L 13.35 77.45
Q 19.9 53.05 24.15 41.65 25.25 38.6 30.5 27.25
M 14.65 78.15
L 12.4 81.2 16.2 75.7 16.1 76 14.65 78.15 Z"/>
</g>

<g id="MovieClips_Symbol_625_0_Layer0_0_FILL">
<path fill="#FFFFFF" fill-opacity="0.25098039215686274" stroke="none" d="
M 11 9.65
Q 11 8.1 12.2 5.5
L 13.35 2.7
Q 13.35 1.35 12.4 0 8.65 0.5 4.15 7.8 0 14.5 0 18
L 0.3 20.2
Q 0.2 20.3 0.05 20.35
L 0.55 20.45
Q 4.3 20.45 5.05 19.55 5.45 18.25 6.1 17.55 10.85 23.2 12.05 25.3 13.6 27.95 13.6 31
L 11.15 50.35
Q 8.65 69.15 8.65 74.1 8.65 75.95 10.4 77.15 12.6 78.65 16.8 78.65 20.9 78.65 20.9 75.35
L 17.75 70.1 19.75 51.75
Q 21.75 33.35 21.75 30.35 21.75 24.95 16.4 18.8
L 12.7 14.4
Q 11 11.9 11 9.65 Z"/>
</g>
</defs>

<g transform="matrix( 1, 0, 0, 1, -33.5,-72.6) ">
<g transform="matrix( 1, 0, 0, 1, 0,0) ">
<g transform="matrix( 1, 0, 0, 1, 0,0) ">
<use xlink:href="#Graphics_Symbol_593_0_Layer0_0_FILL"/>
</g>
</g>

<g transform="matrix( 1, 0, 0, 1, 0,0) ">
<g transform="matrix( 1, 0, 0, 1, 0,0) ">
<use xlink:href="#MovieClips_Symbol_587_0_Layer0_0_FILL"/>
</g>
</g>

<g transform="matrix( 1, 0, 0, 1, 0,0) ">
<use xlink:href="#Parts_Bodies_bodyMC_6_Layer9_0_FILL"/>
</g>

<g transform="matrix( 1, 0, 0, 1, 0,0) ">
<g transform="matrix( 1, 0, 0, 1, 0,0) ">
<use xlink:href="#MovieClips_Symbol_623_0_Layer0_0_FILL"/>
</g>
</g>

<g transform="matrix( 1, 0, 0, 1, 25,39.6) ">
<g transform="matrix( 1, 0, 0, 1, 0,0) ">
<use xlink:href="#MovieClips_Symbol_625_0_Layer0_0_FILL"/>
</g>
</g>
</g>
</svg>
