
<svg xmlns="http://www.w3.org/2000/svg" version="1.1" xmlns:xlink="http://www.w3.org/1999/xlink" preserveAspectRatio="none" x="0px" y="0px" width="550px" height="400px" viewBox="0 0 550 400">
<defs>
<g id="Layer0_0_FILL">
<path fill="#FFFFFF" stroke="none" d="
M 43.1 46.5
L 43.45 48.15 39.05 49.05 40.7 56.9 64.5 51.95 62.8 43.95 59.35 44.65 37.7 27.35 51.5 9.35 55.4 8.55 53.6 0 28.45 5.25 30.15 13.35 36.8 11.95 22.05 33.95 18.3 16 24.5 14.7 22.75 6.45 0 11.2 1.75 19.45 5.8 18.6 13.35 54.75 9.3 55.6 10.9 63.15 31.85 58.8 30.15 50.65 25.45 51.6 23.7 43.3 30.85 35.25 43.1 46.5 Z"/>
</g>
</defs>

<g transform="matrix( 1, 0, 0, 1, 0,0) ">
<use xlink:href="#Layer0_0_FILL"/>
</g>
</svg>
