
<svg xmlns="http://www.w3.org/2000/svg" version="1.1" xmlns:xlink="http://www.w3.org/1999/xlink" preserveAspectRatio="none" x="0px" y="0px" width="550px" height="400px" viewBox="0 0 550 400">
<defs>
<g id="Parts_Heads_headsMC_3_Layer12_0_FILL">
<path fill="#FFE000" stroke="none" d="
M 59.75 87.4
Q 54.7 91.2 55.5 98.3
L 54.5 98.2 55.85 99
Q 54.7 99.35 59.5 102.45 64.05 105.4 70.15 105.4 71.55 105.4 73.9 103.4 76.7 101 76.7 98.05 76.7 94.8 73.8 90.1 70.2 84.25 65.4 84.25 63.95 84.25 59.75 87.4
M 65.15 93.5
Q 66.3 93 67.95 93 69.6 93 70.75 93.5 71.9 93.95 71.9 94.65 71.9 95.35 70.75 95.85
L 67.95 96.3 65.15 95.85
Q 64 95.35 64 94.65 64 93.95 65.15 93.5 Z"/>
</g>

<g id="Graphics_Symbol_812_0_Layer2_0_FILL">
<path fill="#000000" stroke="none" d="
M 92.95 48.8
Q 90.85 46.2 87.3 46.05 79.05 45.7 68.95 57.55 69.2 53.2 65.1 50.85 62.25 49.2 59.7 49.2 53.85 49.2 49.65 50.2
L 47.35 50.95
Q 45.8 49.1 38.95 44.6 32.05 40.1 24.2 34.1 16.3 28.1 6.9 26.9
L 7.3 26.8
Q 10.05 25.3 10.2 24.9 1.6 26.85 -2.5 27.25 -3.15 27.4 -3.4 28
L -4.5 30.4
Q 16.95 38.15 28.8 45.05 39.85 51.45 39.85 55.45
L 38.6 59.15
Q 37.6 62.75 38.6 64.75
L 34.55 63.75 29.9 63.25
Q 21.9 63.25 16.5 67.2 11.2 71.1 11.2 76.7 11.2 80.55 13.8 85.8 16.65 91.65 21.3 95.75 18.05 95.75 16.25 100.15 15 103.25 15 105.9 15 120.1 19.65 129.15 25.2 139.9 36.1 139.9
L 38.7 139.7
Q 40.8 139.35 41.6 138.85 45 148.45 48.8 152.1 53.15 156.3 61 156.3 73.95 156.3 75.5 140.3 76.7 142.25 81.3 143.1
L 87.9 143.6
Q 97.35 143.6 103 138.05 109.1 132.05 109.1 120.9 109.1 118.9 108 114.75 106.3 108.35 103.1 103.7 112.45 102.15 119.85 93.2 126.1 85.65 126.1 80.8 126.1 66.05 111.4 66.05 109.35 66.05 102.15 68.05 95.6 69.85 92.6 71.05
L 95 55.8
Q 95 51.45 92.95 48.8
M 93.85 72.3
L 99.3 70.5
Q 105.1 68.55 109.55 68.1 123.9 66.65 123.9 79.9 123.9 83 117.3 91.15 109.6 100.65 102.7 101.05
L 85.1 104 77.15 103.1 78.8 98.1 78.15 96
Q 77.65 94.5 77.65 93.55 77.65 92.1 80.15 90.6 83.7 88.4 86.3 84.45 87.3 81.15 88.55 78.2 91.1 72.4 93.85 72.3
M 92.35 52.65
Q 93.3 57.3 92 64 88.65 80.9 76.35 90.7
L 72.9 86.75
Q 69.8 82.8 69.8 80.1
L 70.6 68.45 70.35 63.4 69.55 59.45
Q 69.55 55.6 75.55 51.85 81.7 48 88.6 48 91.4 48 92.35 52.65
M 6.4 30.25
Q 5.9 30.25 5.75 30.65 5.6 31 5.1 31 2.5 29.4 1.2 29.1 3.5 27 16.5 31.9
L 35.75 45
Q 41.95 50.05 43.15 52.55
L 41.15 54.05 35.45 48.05
Q 29.65 42.1 27.2 40.65 24.05 38.75 15.15 34.4 6.75 30.25 6.4 30.25
M 32.25 66
Q 37.9 67.5 39.3 68.4 40.95 69.4 45.35 78.35
L 47.35 81.65 50.6 85.9
Q 53.5 89.85 53.5 90.45
L 51.75 95.2
Q 48.7 94.05 42.55 93.45
L 34.5 93.05 23.75 94.75
Q 19.7 94.75 13.5 78 13.5 73.9 15.8 69.95 19.05 64.5 25 64.5 26.7 64.5 32.25 66
M 68 66.5
Q 68 68.65 67.05 72.6 66.1 76.55 66.1 77.05
L 67.75 82.15 65.85 82.2
Q 62.05 82.2 60.55 83.6 57.2 86.9 54.6 88.4 44.65 71.6 42.7 67.8 40.8 64.1 40.8 61.7 40.8 57.3 44.35 54.6 48.3 51.65 55.75 51.65 68 51.65 68 66.5
M 54.5 98.2
L 55.5 98.3
Q 54.7 91.2 59.75 87.4 63.95 84.25 65.4 84.25 70.2 84.25 73.8 90.1 76.7 94.8 76.7 98.05 76.7 101 73.9 103.4 71.55 105.4 70.15 105.4 64.05 105.4 59.5 102.45 54.7 99.35 55.85 99
L 54.5 98.2
M 53.7 98.1
L 54.1 98.35
Q 58.4 101.3 56.05 104.6
L 57.4 104.9 60.65 106
Q 64.9 107.45 66.35 107.45
L 68.2 107.35 67.9 115.45
Q 67.7 119 70.45 128.65
L 73.3 139
Q 73.3 144.65 71.55 147.85 68.3 153.8 59.4 153.8 52.9 153.8 48.25 148.3 43.4 142.5 43.4 133.9 43.4 130.25 45.05 123.05 47.5 112.3 57.2 105.05 46.75 112 43.6 121.9 41.25 129.35 41.25 134
L 41.45 138.2
Q 31.7 139.45 24.4 129.8 17.2 120.4 17.2 107.3 17.2 101.4 22.15 97.8 26.55 94.6 53.7 98.1
M 70.15 115.95
L 70.3 107.4 76.45 106.45 84.9 106.5 101.85 104.1
Q 104.85 104.1 107.3 121.1 107.3 129.3 101.45 135.3 95.65 141.3 87.9 141.3 70.15 141.3 70.15 115.95
M 67.95 93
Q 66.3 93 65.15 93.5 64 93.95 64 94.65 64 95.35 65.15 95.85
L 67.95 96.3 70.75 95.85
Q 71.9 95.35 71.9 94.65 71.9 93.95 70.75 93.5 69.6 93 67.95 93 Z"/>

<path fill="#00FF00" stroke="none" d="
M 5.75 30.65
Q 5.9 30.25 6.4 30.25 6.75 30.25 15.15 34.4 24.05 38.75 27.2 40.65 29.65 42.1 35.45 48.05
L 41.15 54.05 43.15 52.55
Q 41.95 50.05 35.75 45
L 16.5 31.9
Q 3.5 27 1.2 29.1 2.5 29.4 5.1 31 5.6 31 5.75 30.65 Z"/>
</g>

<g id="Graphics_Symbol_812_0_Layer1_0_FILL">
<path fill="#000000" fill-opacity="0.25098039215686274" stroke="none" d="
M 92.9 49.3
Q 91.2 45.9 89.15 45.9 83.5 45.9 79.1 48.85
L 68.15 56.1
Q 67.75 54.2 65 52.2 62.35 50.2 60.45 50.2 49.25 50.2 43.1 54.25 38.7 57.15 38.7 60 38.7 61 40.1 63.35
L 37.95 63.75 35.35 64 31.1 63.35
Q 28.05 62.65 24.7 63.2 21.35 63.75 16.3 67.55 11.25 71.35 11.1 75.9 10.95 80.4 16.45 86.5 17.8 88 18.25 92.6 21.9 92.75 21.9 94.4 21.9 96.7 21.05 97.45
L 19.15 98.6
Q 16.35 100.95 16.35 113.9 16.35 124.05 24.5 132.5 31.6 139.85 37.1 139.85
L 39.15 139.6 40.6 137.95
Q 44.05 146.85 52 152.45 58.35 156.9 62.85 156.9 69.05 156.9 72.45 149.75
L 74.6 144.8
Q 75.75 142.55 77 142.55 77.55 142.55 77.95 143.25 79.1 143.95 83.55 143.95 96.65 143.95 103.1 134.45 107.75 127.65 107.75 119.25 107.75 117.15 106.4 112.5 105.05 107.85 103.8 104.95 102.55 102.05 106.15 101.4 109.75 100.75 114.4 98.95 123.75 94.35 123.75 77.9 123.75 66.25 114.3 66 110.7 65.9 104.7 67.4
L 93.8 70.5
Q 92.2 70.15 93.35 67.25 94.45 64.35 94.85 59.15 95.2 53.9 92.9 49.3
M 85.65 55.2
Q 87.5 58.3 87.9 68.7 88.25 77.35 90.35 77.35 92.15 77.35 96.25 76.2 100.35 75 103.9 75 114 75 114 82.25 114 87.15 109.9 91.55 105.7 96.1 93.85 103.85 97.3 111.2 97.3 112.2 97.3 124.4 92.5 129.95 88.65 134.35 82.05 134.35 80.75 134.35 77.25 131.3 73.75 128.25 72.35 128.25 70.85 128.25 70.2 129.95
L 69 133.75
Q 66.85 139.2 58.5 139.2 54.15 139.2 50.7 132.1 48 126.5 48 123.6
L 48.8 121.75 49.55 119.4
Q 49.45 119 48.2 119 47 119 45.95 120.4
L 44.05 123.5
Q 41.25 127.95 36.75 127.95 34.3 127.95 31.95 119.85 30 113.15 28.45 109.9 26.85 106.6 27.75 103.65 28.65 100.7 43.3 93.85 35.85 97.1 27 89.35 24.1 86.75 21.65 84
L 19.75 81.6
Q 19.75 77.2 22.9 74.7 26.1 72.15 32 72.15
L 36.9 73.2 44.35 74.25
Q 46.1 74.25 46.6 71.8
L 47.4 66.4
Q 49.1 58.55 59.2 58.55
L 62.7 62.45
Q 66.75 68.65 67.75 68.65 70.8 68.65 78.3 61.4 85.25 54.7 85.65 55.2 Z"/>
</g>

<g id="Graphics_Symbol_812_0_Layer0_0_FILL">
<path fill="#FFFFFF" fill-opacity="0.25098039215686274" stroke="none" d="
M 52.65 101.7
Q 49.85 102.45 43.15 107.45 36.2 112.7 34.75 115.55
L 35.05 116.95 35.3 117.05 35.85 117.85
Q 44.05 113.15 48.65 108.3 52.4 104.35 52.65 101.7
M 65.15 113.2
Q 65.25 110.6 64.4 108.95 63.7 107.5 62.75 107.5 59.2 107.5 57.05 113.6 55.45 118.15 55.45 121.8 55.45 124.7 56.05 126.3 56.5 127.55 58 129.65 64.9 120.3 65.15 113.2
M 58.45 125.95
L 58.45 124.6
Q 58.9 125.05 58.45 125.95
M 76.2 105.4
Q 76.2 112.6 80.85 118.15 84.55 122.6 86.7 122.6 87.6 122.6 88.2 121.2 88.7 120.05 88.7 118.7 88.7 114.35 84 110.7
L 79.9 107.8
Q 77.45 106.1 76.25 104.7
L 76.2 105.4
M 59.35 72.75
Q 59.35 68.4 58.3 65.3 57.25 62.2 55.8 62.2 54.35 62.2 53.3 65.3 52.25 68.4 52.25 72.75 52.25 77.1 53.3 80.2 54.35 83.3 55.8 83.3 57.25 83.3 58.3 80.2 59.35 77.1 59.35 72.75
M 31.5 78.8
Q 28.95 78.8 28.85 80.95 28.7 83.05 30.75 85.75 36.05 92.7 45.25 92.7 46.9 92.7 48.2 91.15 49.3 89.9 49.3 89.15 49.3 86.2 43.65 82.6 37.65 78.8 31.5 78.8
M 33.15 84.9
L 32.9 84.65 36.5 87.1 37.9 88.3 35.25 86.6 33.15 84.9
M 81.1 77.9
Q 84.3 72.5 85.7 63.9 81.95 64.3 77.45 70.5 72.75 77.05 73.8 81.9
L 75.05 82.95
Q 78.1 82.95 81.1 77.9
M 84.75 95.6
Q 93.3 96.05 100.65 93.2 107.65 90.5 107.65 87.45 107.65 85.85 106.3 84.95 105.15 84.2 103.5 84.2 101.55 84.2 91.55 88.75 81.8 93.15 80.6 94.25
L 82.2 94 85.85 92.8 85 93.5
Q 84.65 93.75 84.65 94.6
L 84.75 95.6
M 101.7 85.85
Q 103.05 85.6 103.7 85.85
L 106 87 105.9 87.15 104.7 87.1 101.7 85.85 Z"/>
</g>
</defs>

<g transform="matrix( 1, 0, 0, 1, -62.75,-76.85) ">
<g transform="matrix( 1, 0, 0, 1, 0,0) ">
<use xlink:href="#Parts_Heads_headsMC_3_Layer12_0_FILL"/>
</g>

<g transform="matrix( 1, 0, 0, 1, 0,0) ">
<g transform="matrix( 1, 0, 0, 1, 0,0) ">
<use xlink:href="#Graphics_Symbol_812_0_Layer2_0_FILL"/>
</g>

<g transform="matrix( 1, 0, 0, 1, 0,0) ">
<use xlink:href="#Graphics_Symbol_812_0_Layer1_0_FILL"/>
</g>

<g transform="matrix( 1, 0, 0, 1, 0,0) ">
<use xlink:href="#Graphics_Symbol_812_0_Layer0_0_FILL"/>
</g>
</g>

<g id="hat1" transform="matrix( 0.983917236328125, -0.17529296875, 0.17529296875, 0.983917236328125, 45.2,78.25) ">
<g id="colorMC" transform="matrix( 0.9999847412109375, 0, 0, 0.9999847412109375, 0,0) "/>

<g id="colorMC2" transform="matrix( 1, 0, 0, 1, 0,0) "/>
</g>

<g id="hat2" transform="matrix( 0.9733734130859375, -0.2247314453125, 0.2247314453125, 0.9733734130859375, 38,60.6) ">
<g id="colorMC_FL" transform="matrix( 0.9999847412109375, 0, 0, 0.9999847412109375, 0,0) "/>

<g id="colorMC2_FL" transform="matrix( 1, 0, 0, 1, 0,0) "/>
</g>

<g id="hat3" transform="matrix( 0.96026611328125, -0.2753753662109375, 0.2753753662109375, 0.96026611328125, 26,48.4) ">
<g id="colorMC_FL_FL" transform="matrix( 0.9999847412109375, 0, 0, 0.9999847412109375, 0,0) "/>

<g id="colorMC2_FL_FL" transform="matrix( 1, 0, 0, 1, 0,0) "/>
</g>

<g id="hat4" transform="matrix( 0.944580078125, -0.3252410888671875, 0.3252410888671875, 0.944580078125, 18.85,34.5) ">
<g id="colorMC_FL_FL_FL" transform="matrix( 0.9999847412109375, 0, 0, 0.9999847412109375, 0,0) "/>

<g id="colorMC2_FL_FL_FL" transform="matrix( 1, 0, 0, 1, 0,0) "/>
</g>
</g>
</svg>
