
<svg xmlns="http://www.w3.org/2000/svg" version="1.1" xmlns:xlink="http://www.w3.org/1999/xlink" preserveAspectRatio="none" x="0px" y="0px" width="550px" height="400px" viewBox="0 0 550 400">
<defs>
<g id="Layer0_0_FILL">
<path fill="#000000" fill-opacity="0.25098039215686274" stroke="none" d="
M 53.7 -10.25
L 53.1 -10.8
Q 44.75 -10.8 31.6 -7.35 15.7 -3.1 2.3 4.1 -34.6 24.15 -34.6 57.1 -34.6 70.8 -20.2 80.8 -10 87.9 11.5 95.15 40 104.8 43.15 106.2 57.55 112.55 57.55 119.95 57.55 125.65 47.3 127.9 40.75 129.35 24.8 129.9
L 2.3 131.45
Q -7.95 133.2 -7.95 138 -7.95 141.75 -3.45 145.15 3.85 150.65 20.1 150.65 55.45 150.65 69.6 142.6 83.7 134.55 83.05 119.9 82.4 105.25 74.75 99.45 67.05 93.65 58.4 89.8 48.25 85.4 34.8 80.6 21.3 75.8 10.15 63.8 -1.05 51.8 -0.05 32.15 0.9 12.5 27.65 1.3 34.95 -1.8 47.95 -5.75 59.1 -9.15 61.25 -10.4
L 54.6 -9.75
Q 54.3 -9.75 53.7 -10.25
M 0.15 63.7
Q 8.6 77.4 39.6 89.55 57.75 96.65 66.7 105.15 75.95 114 75.95 125 75.95 131.1 67.65 135.8 55.65 142.65 30.15 142.65
L 24.3 141.6 13.25 140.5 4.95 141.25 1.7 141.95
Q -1.15 141.95 -3.2 141.1 -5.35 140.2 -5.35 138.75 -5.35 136.5 -1 134.9 3.15 133.4 8.15 133.4 16.9 133.4 24.05 135.8 27.65 136.95 29.9 138.15 45.2 138.15 55.95 131.6 65.4 125.85 65.4 119.75 65.4 107.95 51.75 101.45 46.75 99.1 37.8 96.4
L 21.75 91.7
Q 1.45 85.4 -8.25 76.4 -21.9 63.75 -21.9 41.45 -21.9 36.55 -17.3 29 -12.75 21.55 -5.55 14.45 11.85 -2.65 27.15 -2.8 3.4 9.9 -2 17.3 -4.45 20.6 -4.9 24.7
L -5.05 33.3
Q -5.05 45.25 -4.5 49.7 -3.5 57.8 0.15 63.7 Z"/>
</g>
</defs>

<g transform="matrix( 1, 0, 0, 1, 0,0) ">
<use xlink:href="#Layer0_0_FILL"/>
</g>
</svg>
