
<svg xmlns="http://www.w3.org/2000/svg" version="1.1" xmlns:xlink="http://www.w3.org/1999/xlink" preserveAspectRatio="none" x="0px" y="0px" width="550px" height="400px" viewBox="0 0 550 400">
<defs>
<g id="Layer0_0_FILL">
<path fill="#000000" stroke="none" d="
M 64.7 -11.35
Q 58.7 -14.75 42.7 -11.85 25.9 -8.8 9.35 -0.55 -9.85 9 -21.15 22.15 -34.5 37.6 -34.5 55.75 -34.5 72.2 -20.2 82.9 -9.85 90.65 11.25 97
L 28 101.7
Q 37.65 104.4 42.65 106.25 56.95 111.6 56.95 119
L 57.25 121.35
Q 57.05 123.55 54.8 125.25 47.8 130.55 22.4 130.55
L -4.25 131.75
Q -7.2 132.5 -8.2 134.15 -9 135.5 -9 138.65 -9 143.3 -2.7 146.2 6.65 150.45 29.1 150.45 63.9 150.45 76.4 139.1 83.3 132.8 83.3 121.4 83.3 104.1 70.4 94.55 65.35 90.8 57.2 87.35
L 42.1 81.7
Q 22.05 74.45 13.75 66.95 0.85 55.3 0.85 34.5 0.85 14.6 20.25 6.55 26.55 3.95 35.2 1.75
L 48.55 -1.45
Q 62.35 -5 64.7 -11.35
M 61.4 -10.05
Q 57.25 -7.5 43.7 -5.35 29.9 -3.2 23.15 0.7
L 23.55 1.35 28.4 0.35 28.55 0.3 28.35 0.7
Q 8.65 7.95 2.75 17.25 0.35 20.95 -0.3 25.75 -0.7 28.4 -0.7 34.5 -0.7 55.55 12.1 67.9 20.95 76.4 40.35 83.5
L 55.4 88.9
Q 63.65 92.05 68.55 95.05 81.35 102.9 81.35 116.3
L 81.45 123.7
Q 80.85 129.8 77.25 134.35 66.4 148.1 29.1 148.1 11.45 148.1 2.75 145.85 -6.45 143.5 -6.45 138.4 -6.45 136.6 -4 134.6 -0.2 131.5 7.5 131.5 45.2 131.5 54 128.45 57.9 127.1 58.7 124.55
L 58.95 119
Q 58.95 110.1 44.75 104.35 39.45 102.2 30.2 99.65
L 13.5 95.15
Q -7.7 89.2 -17.75 82.05 -31.95 72 -31.95 55.75 -31.95 32.25 -12.5 15.35 11.85 -5.85 61.4 -10.05 Z"/>
</g>
</defs>

<g transform="matrix( 1, 0, 0, 1, 0,0) ">
<use xlink:href="#Layer0_0_FILL"/>
</g>
</svg>
