
<svg xmlns="http://www.w3.org/2000/svg" version="1.1" xmlns:xlink="http://www.w3.org/1999/xlink" preserveAspectRatio="none" x="0px" y="0px" width="550px" height="400px" viewBox="0 0 550 400">
<defs>
<g id="Layer0_0_FILL">
<path fill="#000000" stroke="none" d="
M 53.85 147.45
Q 51.3 145.85 49.6 142.95
L 50.1 142.85 50.15 138.4 48.05 138 48.4 141.8 47.6 142.6
Q 49.65 147.4 52.6 149.45 55.25 151.15 58.95 150.95
L 73.05 148.9 87.15 143.6 89.55 142.35 89.7 142.4
Q 89.9 142.45 89.95 142.55
L 90.6 142.55 92.3 140.55 89.65 139.95 89.5 140.3 89.45 140.3
Q 88.2 140.4 88 140.8
L 87.05 142.05
Q 83.85 144.35 67.3 147.7
L 58.5 148.95
Q 56.3 149.1 53.85 147.45
M 68.85 107.55
Q 68.4 108.05 68.35 109.9 67.9 111.4 65.6 111.6
L 54 101.45 52.95 101.55 52.95 101.75 52.85 102.3
Q 53 103.85 55.05 105.15
L 59.3 107.45
Q 62.3 108.9 63.5 111.65
L 64.3 113
Q 64.85 113.5 66.05 113.4
L 68 112.85
Q 69.85 112 69.85 110.1
L 68.85 107.55
M 66.9 103.9
L 65.9 103.9
Q 63.95 104 63.15 102.8 62.45 101.6 62.15 98.35
L 60.3 100.45
Q 60.5 103.5 62.45 104.95 63.9 105.95 65.55 105.8
L 67.4 105.45 68.25 104.9
Q 67.45 104.05 66.9 103.9
M 70.9 83.8
L 70.4 83.75 70.6 83.8 70.9 83.8
M 92.45 80.65
Q 91.6 82.25 91.6 82.6
L 91.8 83.2 92.9 83.9
Q 94.2 82.35 94.3 80.65
L 92.4 77.9
Q 90.15 75.2 88.5 75.35 87.5 75.4 83.95 78.1 79.4 81.6 78.1 85.3 78.3 86 78.65 86.2
L 79.05 86.2 80.15 85.75 82.25 84
Q 83.2 83.4 83.15 83.6 83.8 84.8 85.05 85.3
L 86.45 85.65
Q 90.4 85.4 90.15 81.85 90.05 80.05 88.2 79.25
L 89.7 77.85 92.45 80.65
M 92.7 65.6
Q 88.35 61.45 81.75 57.45 77.75 55.05 74.1 53.3 73.25 52.5 71.4 51.7 68.4 50.45 68.4 52.65 68.4 52.85 70.55 53.85
L 73.05 54.8 73.75 55.25 73.8 55.4 79 57.9
Q 94.85 66.1 95.2 71.75
L 93.8 74.4
Q 93.85 75.05 101.05 82.25
L 109.9 91
Q 111.45 92.8 111.5 93.45 110.65 94.15 109.1 94.25
L 105.2 94.4 98.9 96.55
Q 98.35 96.6 98 96.05 97.65 95.5 97.6 94.85
L 98.1 93.05 97.65 92.5
Q 97.5 92.25 97.2 92.25 96.35 92.35 95.85 93.3 95.6 94 95.65 94.55 95.8 97.6 97.4 98.1
L 101.35 98.1 102.75 98.55
Q 104.4 98.85 106.2 97.95
L 106.8 99.6 106.9 100.4 106.25 101.25 106.5 101.5 107.55 102.85 108.9 99.95
Q 108.85 99.25 107.65 97.35 108.7 96.65 111.4 95.65 113.55 94.6 113.5 93.4
L 95.8 74.8 97.35 72.45
Q 97.15 69.8 92.7 65.6 Z"/>
</g>
</defs>

<g transform="matrix( 1, 0, 0, 1, 0,0) ">
<use xlink:href="#Layer0_0_FILL"/>
</g>
</svg>
