
<svg xmlns="http://www.w3.org/2000/svg" version="1.1" xmlns:xlink="http://www.w3.org/1999/xlink" preserveAspectRatio="none" x="0px" y="0px" width="550px" height="400px" viewBox="0 0 550 400">
<defs>
<g id="Layer0_0_FILL">
<path fill="#FFFFFF" fill-opacity="0.5019607843137255" stroke="none" d="
M 94.1 105.4
Q 93.7 106.4 93.7 107.85 93.7 109.3 94.1 110.3 94.5 111.3 95.05 111.3 95.6 111.3 96 110.3 96.4 109.3 96.4 107.85 96.4 106.4 96 105.4 95.6 104.4 95.05 104.4 94.5 104.4 94.1 105.4
M 101.75 106.4
Q 102.45 104.7 102.45 103.3 102.15 100.95 100.35 99.6
L 100 99.65 99.4 107.9 99.5 108.1
Q 99.6 108.3 100.2 108.3 101 108.3 101.75 106.4
M 76.2 81.1
L 74.8 80.8 70.2 81.5
Q 65.5 82.45 64.7 83.6 65.1 84.6 66.15 84.6 75.75 82.8 77.05 81.75
L 76.2 81.1
M 56.1 71.1
L 55.8 70.5
Q 55 70.75 53.85 72.35 52.75 73.85 52.6 74.7
L 54.2 76.45 55.55 73.9 56.15 71.8 56.1 71.1
M 51.45 67.25
L 50.7 67.15
Q 45.4 73.5 45.2 75.05
L 45.4 76.1
Q 47.6 75.95 49.85 73.35 52.45 70.35 51.45 67.25
M 35.15 61
Q 30.4 67.45 30 73.1 30.45 73.1 34.15 67.8 38.95 60.85 44.8 55.4
L 44.5 54.55 43.9 54.5
Q 39.95 54.5 35.15 61
M 33.45 76.25
L 34.3 76.45 48.4 57.75 48.35 57.15 48.25 57.1
Q 40.45 61.6 35.9 68.1 31.95 73.8 33.15 76.05
L 33.45 76.25
M 39.9 74.1
L 40 74.9 40.25 75.15
Q 41.15 74.7 44.85 69.95 48.6 65.15 48.95 63.95 49.15 63.35 48.15 63.35 44.5 63.35 41.85 68.65 40.5 71.35 39.9 74.1
M 104.35 97.2
Q 103.7 97.35 103.7 97.95
L 105.7 103.85
Q 107.5 102.6 107.5 101.35
L 107 99.7
Q 106.25 98.1 105 97.15
L 104.35 97.2
M 85.75 81.25
Q 85.3 81.7 85.3 82.3 85.3 82.9 85.75 83.35 86.2 83.8 86.8 83.8 87.4 83.8 87.85 83.35
L 88.3 82.3
Q 88.3 81.7 87.85 81.25 87.4 80.8 86.8 80.8 86.2 80.8 85.75 81.25
M 84.15 77
Q 84.05 76.45 82.85 76.45
L 77.8 77.25
Q 73.1 78.2 71.5 79.25
L 71.4 80.1
Q 71.35 80.3 71.95 80.3 74.4 80.3 84.05 77.75
L 84.15 77
M 86.95 72.05
L 86.55 70.95 81.35 72.15
Q 77.45 73 76.3 73.9 76.75 74.9 77.7 74.9
L 85.45 74.75 85.45 73.95
Q 85.65 73.1 86.95 72.05 Z"/>

<path fill="#FFFFFF" fill-opacity="0.14901960784313725" stroke="none" d="
M 101.35 83.2
L 101.35 83.05 101.3 83.65
Q 101.3 84.45 105.05 88.9 108.8 93.35 109.65 93.6 110.45 93.85 110.45 94.3
L 110.9 94.15 111 93.95 111.1 93.15
Q 111.1 92.85 108.95 90
L 106.5 86.8
Q 106 86.2 103.65 84.85
L 101.35 83.2
M 90.25 91.95
Q 88.3 88.7 86.85 88.7 86.5 88.7 81.9 91.65 77.05 94.75 77.05 95.55 77.05 99.55 87.45 99.55 90.85 99.55 91.7 98.75 92.1 98.4 92.1 96.8 92.1 95.05 90.25 91.95 Z"/>
</g>
</defs>

<g transform="matrix( 1, 0, 0, 1, 0,0) ">
<use xlink:href="#Layer0_0_FILL"/>
</g>
</svg>
