
<svg xmlns="http://www.w3.org/2000/svg" version="1.1" xmlns:xlink="http://www.w3.org/1999/xlink" preserveAspectRatio="none" x="0px" y="0px" width="550px" height="400px" viewBox="0 0 550 400">
<defs>
<g id="Layer0_0_FILL">
<path fill="#C6B8A2" stroke="none" d="
M 117.2 142.95
L 115.2 143.25
Q 112.05 143.25 102.75 138.5 109.9 144.1 111.6 144.45
L 119.35 144
Q 123.45 144 125.3 146.4 126.25 147.6 126.4 148.9 126.4 152.85 122.35 152.85 120 152.85 120 149.8
L 121.4 148.3 121.5 148.1 120.85 148
Q 119.7 148 119.05 148.7 118.6 149.15 118.6 149.5 118.6 154.15 123.55 154.15 125.95 154.15 127 152.35 127.75 151.1 127.75 149.2 127.75 143.65 121.55 142.9 119.6 142.65 117.2 142.95
M 110.95 146.1
L 104.9 144.1
Q 105.2 144.6 109.05 146.9 112.55 149 113.15 151.3
L 112.4 151.9 112.45 152.35 112.35 152.45 112.9 152.55
Q 114.65 152.55 114.65 151.5 114.65 147.9 110.95 146.1
M 89.45 115.85
L 91.4 115.85 91.4 109.85 89.45 109.85 89.45 115.85
M 93.45 121.45
L 93.1 120.25
Q 93.25 123.7 95.25 130.65 98.05 140.4 101.65 141.2 100.45 139.5 97 130.95 93.9 123.15 93.45 121.45
M 94.2 111.65
L 94.45 111.55 94.75 111.25 93.9 111.4 94.2 111.65
M 87.55 120.6
L 87.35 120.65
Q 87.1 120.75 87.1 121.35 87.1 121.75 88.75 126.35 90.55 131.45 91.4 132.4
L 92.1 131.75 89.5 124.85
Q 88.1 121.1 87.55 120.6
M 84.15 119.4
L 84.75 118.6 84.75 117.95 84.7 118 84.55 117 83.4 118.1
Q 82.55 119.45 82.55 121.75 82.55 126.15 86.1 132.55 90.9 141.15 98.7 143.5 83.5 133.75 83.5 121.25 83.5 120.35 84.15 119.4
M 102.9 110.65
L 101.8 109.65
Q 101.85 112.8 102.75 116.05
L 105.35 125.6
Q 106.3 129.3 114.25 131.65 119.35 133.1 122.75 133.3 117.1 132.55 113.85 131.15 108.95 129.05 107.65 125.1 106.35 121.05 105.55 116.3 105.2 114 102.9 110.65
M 104.4 107.8
L 104.3 107.8
Q 105 109.1 107.25 110.45 109.3 111.65 110 113.55
L 108.95 116.85
Q 109.85 119.9 111.55 121.15 112.8 122.05 115.15 122.85 113.8 121.35 112.55 118 110.75 113.2 109.8 111.75 107.8 108.55 104.4 107.8
M 106.95 105
Q 107.25 104.4 107.25 102.3 107.25 101 105.85 99.7 104.6 98.55 103.6 98.4
L 105.1 100.9 106.1 102.15 105.9 103.5
Q 105.8 103.5 105.6 103.65
L 104.85 103.75
Q 104.25 103.75 103.6 102.6 102.65 100.9 101.55 99.95
L 101.45 102.15 100.85 102.2 98.35 100.8
Q 100.05 102.9 101 106.15 101 107.3 99.8 107.3 99.3 107.3 98.25 105.85 97.15 104.3 96 104.1
L 95.85 103.85 95.6 104.35 98.6 109.2
Q 101.95 106.6 105.75 105.75 106.7 105.5 106.95 105
M 122 140.25
Q 125.45 140.6 127.45 141.45 132.85 143.75 133.25 152.3
L 133.3 152.5 133.7 152.75 134.15 150.15
Q 134.15 144.9 129.75 142.05 124.55 138.7 112.1 137.4 104.6 136.65 101.65 126.75 99.7 115.9 98.25 113.6
L 97.45 112.8
Q 98.25 128.2 103.85 134.5 107.8 138.95 115.75 139.75
L 122 140.25
M 129.4 141.05
L 130.05 140.4
Q 129.35 136 122.75 135.15 114.8 134.9 111.75 134
L 111.6 133.9 111.55 134.5
Q 111.55 135.55 113.15 135.75
L 117.3 135.9
Q 124.55 136.4 129.4 141.05
M 129.9 134.8
L 128.1 134.3
Q 131.25 137 132.35 139.9 133.05 141.65 134.5 141.7
L 135 141.7
Q 135.65 140 133.3 137.45 131.3 135.25 129.9 134.8
M 125.55 130.85
L 126.15 130.8 126.1 130.6 126.25 130.25
Q 125.3 129.7 123.85 129.65
L 121.3 129.6
Q 117.75 129.05 113.6 123.85
L 113.35 123.9 113.1 124.35
Q 113.95 127.15 114.95 128.1 117.85 130.85 125.55 130.85
M 124.85 125.2
L 124.1 125 129.95 131.2 130.45 131.05
Q 130.65 131 130.65 130.4 130.65 128.45 129.2 127.05 127.65 125.55 124.85 125.2
M 46.75 136.6
L 45.95 137.15 44.4 138.45 42.45 138.7 40.6 139.3 39.15 138.95 38.15 138.2 37.3 136.85 36.3 136.95
Q 37.15 138.7 37.55 139.1 38.8 140.2 41.65 140.2 44.8 139 46.75 136.6
M 42 99.85
Q 41.85 99.55 41.15 99.25
L 40.25 100.15
Q 40 100.6 40 103.1 40 111 46.3 118.95
L 50.65 124.5
Q 52.6 127.45 52.6 130 52.6 130.6 52.75 130.65
L 53.05 130.75 53.95 130.2 54.5 129.5
Q 54.5 128.2 52.4 125.1
L 47.9 118.5
Q 41.4 108.35 42 99.85
M 78.55 117.7
Q 76.6 120.95 76.6 123 76.6 123.65 76.95 123.95
L 77.55 124.3
Q 77.7 122.45 79.6 119.15
L 82.25 114.05 82 113.5
Q 80.35 114.75 78.55 117.7
M 64.5 105.15
L 64.8 105.3 68.4 101.95
Q 71.4 98.85 71.85 97.85 70.2 97.85 67.3 100.9 64.75 103.5 64.35 104.65
L 64.5 105.15
M 77.4 105.55
Q 76.15 105.35 73.7 108.05 71.7 110.25 70.55 112.3 70.6 112.8 71 113 72.5 112.4 74.85 109.65 77.15 106.95 77.4 105.55
M 79.15 110.85
L 80.1 110
Q 75.9 111.8 72.7 124.65
L 73.65 125.55
Q 74.75 114.1 79.15 110.85
M 80.65 109.6
Q 80.7 109.8 80.95 109.7
L 81.4 109.15 80.4 109.35
Q 80.4 109.75 80.65 109.6
M 74.8 100.7
L 74.6 100.4 73.75 100.25
Q 72.8 100.25 71.6 103.05 70 106.65 68.95 107.9
L 69.85 108.55
Q 70.7 107.85 72.7 104.7 74.75 101.45 74.8 100.7
M 66.6 97.9
Q 69.35 94.9 69.7 92.65 67.45 93.55 64.9 96.3 62.15 99.15 62.15 100.95
L 62.15 101.2
Q 63.95 100.8 66.6 97.9
M 59.5 82.7
Q 51.85 91.15 49.75 94.65 47.55 98.25 47.55 102.65 47.55 107.7 53.1 115.25
L 56.05 119.05 50.3 114.35 56.6 120.55
Q 59 123.15 59 124.7
L 56.65 129.3
Q 58.35 129.35 59.4 127.75 60.15 126.55 60.15 125.75
L 59.7 123.45 60.9 124.85 61.1 124.7
Q 60.85 122.85 54.75 114.15 48.85 105.75 48.85 102.35 48.85 98 54.2 90.3 59.5 83.35 59.5 82.7
M 57.75 91.65
Q 53.75 96.9 53.6 98.5
L 54.7 99.55
Q 55.6 98.85 62.45 86 61.35 86.85 57.75 91.65
M 58.9 96.5
L 59.5 96.85
Q 60.1 96.75 61.7 94.7
L 63.85 91.5
Q 63.75 90.95 63 90.6 58.95 94.65 58.65 96.15
L 58.9 96.5
M 58 77.05
L 58.25 76.5
Q 53.2 76.3 48.45 84.8 43.7 93.15 43.7 102.05 43.7 106.2 47.6 111.25 44.75 107.2 44.75 102.7 44.75 94.25 50.85 85.55
L 58 77.05
M 47.3 70.7
L 46.85 70.25
Q 38.35 77.65 34.4 87.1 31.3 94.45 31.3 102.1 31.3 106.1 33.35 113.35 35.7 121.65 38.4 124.1
L 38.9 124.15
Q 39.1 124.15 39.1 123.5 39.1 119.5 36.85 115.55 33.95 110.4 33.4 108.35
L 32.65 102.8
Q 32.65 96 38.1 85.65 41.25 79.7 47.25 71
L 47.3 70.7
M 51 54.5
Q 53 54.5 55.5 55.2 56.8 55.55 56.65 54.75 55.75 54.1 55.1 53.8 53.4 53.1 50.9 53.1 50.6 53.1 48.5 53.85 46.25 54.6 45.8 55
L 45.7 55.5 46.3 55.65 51 54.5
M 63.65 50.8
L 64.65 52.5 64.45 53.45
Q 63.1 52.25 61.2 52.1
L 60.25 52.05
Q 58 52.45 59.45 53.35
L 61 54.5
Q 60.85 55.25 59.35 56.4
L 57.65 57.5 57.75 57.9 58.5 58.15 60.65 57
Q 62.35 55.8 62.35 55.25 62.35 53.2 61.7 52.45
L 64.15 53.95 63.3 54.9
Q 62.55 55.75 62.55 56.1 62.55 56.75 62.75 56.8
L 63.4 56.8 64.1 56.05
Q 64.35 55.75 64 56.5
L 65.05 54.8 66.05 52.55 65.75 50.95 65.2 50.75 64.6 50.4
Q 64.15 50.5 63.65 50.8
M 28.45 76.5
Q 31.3 69.75 37 64.95 46.1837890625 57.2732421875 56.6 58.35
L 50.3 57.55
Q 33.9 57.55 28.45 76.5
M 29.25 94.3
L 28.85 90.45
Q 28.85 84.05 33.25 76.3 35.75 71.9 41.1 65.1
L 41.1 64.95
Q 41.5 64.75 40.5 64.75 34.75 64.75 30.55 77.25 27.4 86.5 27.4 90.5 27.4 92.75 28.9 94.3
L 29.25 94.3
M 24.25 85.95
Q 24.25 82.15 26.95 74.5 29.45 67.55 29.3 67.25 27.65 67.75 25.25 74.7 22.9 81.6 22.9 85.85
L 23.95 94.1
Q 25.45 102.6 27.5 104.3
L 27.85 104.35 28 103.65
Q 28 100.75 26.15 93.5
L 24.25 85.95
M 33.55 84.05
Q 34.7 81.15 38.9 75.2 44.25 67.7 49.6 62.7
L 49.45 62.45
Q 44.5 66.15 42.45 68.45 37.15 74.3 33.55 84.05
M 19.6 88.6
L 19.2 91
Q 19.2 103.1 21.75 107.2
L 24.45 110.4
Q 26.45 112.55 27.75 114.8
L 33.25 124.65
Q 34.1 125.8 39.5 128.05
L 38.25 131.65
Q 38.25 132.2 39.1 133.95 40.2 136.1 41.35 136.1 43.95 136.1 46.35 133.05 48.35 130.55 48.35 129.45 48.35 128.35 46.9 125.95 45.45 123.5 45.45 122.75
L 41.75 116.25
Q 41.75 115.35 39.55 108.9 37.35 102.5 37.35 100.6 37.35 92.05 44.45 82.25 52.2 73.2 53.5 71.1
L 53.8 70.3 52.75 69.9 45 77.45
Q 40.9 81.6 40.9 85 40.9 85.85 38.4 91.05 35.9 96.3 35.9 98.55 35.9 111.85 41.4 120.3
L 45.2 125.4
Q 46.9 127.75 46.9 129.4 46.9 130.5 46.05 131.8 44.6 133.95 41.25 134.75
L 39.55 131.8
Q 39.55 130.9 40.75 129.4 41.75 128.05 42.55 127.55
L 42.95 128.15 43.25 129.2 42.65 129.7 41.6 130.95 41.5 131.05 41.5 131.4
Q 41.65 131.75 42.25 131.75 43.2 131.75 43.95 130.7
L 44.6 129.35
Q 44.6 127.9 43.95 126.85 43.45 126 43.05 126
L 41.8 126.5 39.9 127.5
Q 39.65 126.9 34.9 121 29.5 114.3 26.25 109.05 19.05 97.35 19.6 88.6
M 63.85 48.55
Q 61.55 47.8 57.25 47.8 47.85 47.8 39.7 52.25 31.6 56.65 30.7 62.2 33.45 61.7 36.3 59.45
L 41.4 54.9
Q 48.45 48.7 56.95 48.7
L 67.1 49.95 68.1 50.3
Q 65.25 49.05 63.85 48.55
M 86.2 75.35
L 86.6 75.45
Q 86.3734375 74.9513671875 86.1 75.3 86.1453125 75.2953125 86.2 75.35
M 84.6 73.7
L 86.25 72.25 86.95 70.85
Q 83.9 70.4 79.45 72.55
L 74.1 75.3 79 74.8 79.75 74.95 80 75.25 80.1 75.15 80.15 75.8
Q 80.15 76.6 78.3 77.1
L 70.7 79.2
Q 71.6 79.6 71.6 79.85
L 71.7 80.4
Q 71 81.95 68.55 82.5 65.6 83.15 65.2 83.5
L 65.65 83.95
Q 71.45 84.3 77.7 81.35 83.15 78.8 86 75.4
L 85.05 75.55 84.25 75.4 84.55 75.05
Q 84.7 74.85 84.1 74.85 83.3 74.85 84.6 73.7 Z"/>
</g>
</defs>

<g transform="matrix( 1, 0, 0, 1, 0,0) ">
<use xlink:href="#Layer0_0_FILL"/>
</g>
</svg>
