
<svg xmlns="http://www.w3.org/2000/svg" version="1.1" xmlns:xlink="http://www.w3.org/1999/xlink" preserveAspectRatio="none" x="0px" y="0px" width="550px" height="400px" viewBox="0 0 550 400">
<defs>
<g id="Layer0_0_FILL">
<path fill="#666666" stroke="none" d="
M 65.75 47.55
Q 60.85 46.15 53.8 46.15 40.55 46.15 28.75 61 16.8 76.1 16.8 93.7
L 18.8 101.55
Q 22 110.95 28 119.15 31.15 123.45 32.45 128.35 32.9 129.9 33.75 135.5 34.25 138.9 35.5 140.15 37.2 141.8 41.5 141.8 44.15 141.8 46.95 140.35 49.75 138.95 49.75 137.65
L 49.5 136.85 49 136.75
Q 45.5 138.9 43.75 139.5
L 41.55 139.75
Q 38.7 139.75 37.25 136.95
L 37.25 137 37 137.25
Q 36.05 137.25 36.05 136.1
L 36.35 134.95 36.45 134.75
Q 35.6 131.65 35.6 126.6 35.6 125.6 33 122.05
L 27.2 114.25
Q 18.8 102.25 18.8 93.95 18.8 78.2 29.6 63.35 40.7 48.15 53.25 48.15 56.15 48.15 63.4 50.35
L 70.15 52.5
Q 71.15 52.5 70.65 52.45
L 70.95 52.3 71.1 51.55
Q 71.1 49.1 65.75 47.55
M 108.45 98.85
L 108.1 98.75
Q 106.8 104.4 105.05 104.05 103.25 103.65 103.25 106.45 103.25 107.95 104.4 108.45
L 106.95 109.25
Q 110.65 110.8 110.65 118.5 110.65 120.5 114.4 122
L 122.6 125.05
Q 134.5 130.3 134.5 143.5 134.5 149.85 129.1 152.45 124.95 154.5 116.8 154.5 112.5 154.5 109.35 152.8 107.2 151.65 104.25 148.7 97.25 141.7 90.65 139.7
L 89.85 140.05 89.7 140.1
Q 89.55 140.3 89.55 140.9 89.55 141.6 100.15 148.75 111.6 156.5 116.05 156.5 128.65 156.5 133.35 152.5 136.55 149.75 136.55 144.25 136.55 134.95 132.9 129.8 130.25 126.05 124.9 123.85 119.05 121.95 116.85 120.75 113.2 118.75 113.2 114.8 113.2 114.1 111.6 111.75 109.25 108.35 105.65 106.1
L 108 104.25
Q 109.25 102.9 109.25 100.75 109.25 99.65 108.45 98.85 Z"/>
</g>
</defs>

<g transform="matrix( 1, 0, 0, 1, 0,0) ">
<use xlink:href="#Layer0_0_FILL"/>
</g>
</svg>
