
<svg xmlns="http://www.w3.org/2000/svg" version="1.1" xmlns:xlink="http://www.w3.org/1999/xlink" preserveAspectRatio="none" x="0px" y="0px" width="550px" height="400px" viewBox="0 0 550 400">
<defs>
<g id="Layer0_0_FILL">
<path fill="#000000" fill-opacity="0.32941176470588235" stroke="none" d="
M 106.1 105.05
L 106.1 104.5 106.05 104.65 105.9 104.45
Q 103.2 105 97.8 108.7 92.6 112.3 91.9 113.75
L 93.4 115.1 101.35 109.3
Q 102.85 113.85 104.45 115.85 106.05 118 111.4 122.3
L 113.1 122.5
Q 111.8 121.65 111.15 120.7 109.95 118.9 109.95 116.2
L 110.95 111.45
Q 110.95 110.75 109.4 109.2 107.4 107.25 104.75 106.65
L 106.1 105.05
M 68.8 117.3
L 68.25 117.4
Q 68 117.5 67.95 117.9
L 70.4 120.6
Q 69.4 126.65 71.25 129.95 72.35 131.8 74.05 132.45
L 74 132.25
Q 73.95 132.1 74.05 131.9 75.3 133.85 80 135.55
L 85.95 137.5
Q 85.85 139.5 77.5 142.3 68.85 145.2 61.95 145.2 60 145.2 59.35 144.65 58.65 144.1 58.65 142.3
L 59.65 137.5 63.8 130.75
Q 67.9 123.6 67.9 121.45 67.9 112.35 59.6 107.75 55.55 105.5 54.65 103.85 54.15 102.95 53.5 102.95
L 51.65 103.2 51.45 103.9
Q 51.7 104.65 57.75 113.05
L 64 121.75 60.9 123.75
Q 58.1 125.9 57.05 128.1 55.4 131.7 51.15 134.8 47 137.8 44.2 137.8 42.15 137.8 40.35 135.5 38.65 133.3 36.35 128
L 35.8 133.65
Q 35.8 137.7 38.55 139.5 40.2 140.6 41.95 140.6
L 45.4 139.7
Q 48.25 138.75 48.65 138.3 49.05 143.65 51.45 146.65 54 149.8 58.5 149.8
L 73.9 147.45
Q 89.9 143.4 89.75 137.6 89.6 131.8 85.75 130.3 81.9 128.8 73.25 128.8
L 71.85 128.85
Q 72.65 119.2 71.5 118.2
L 70.55 117.8
Q 70.1 117.4 70.1 115.6
L 70.6 111.6 70.4 111.3 68.6 113.35
Q 67.85 114.45 67.85 115.4 67.85 116 68.3 116.6
L 68.8 117.3
M 93.05 81.15
Q 93.05 78.9 92.1 77.3 91.15 75.7 89.8 75.7 88.45 75.7 87.5 77.3 86.55 78.9 86.55 81.15 86.55 83.4 87.5 85 88.45 86.6 89.8 86.6 91.15 86.6 92.1 85 93.05 83.4 93.05 81.15
M 95.5 71.75
L 95.5 69.15
Q 95.4 67.55 93.9 66.4 86.1 62.15 73.35 54.25
L 73.35 54.4
Q 77.75 60.15 87.5 65.95 94.4 70.05 95.5 71.75
M 95.15 72.9
Q 94.6 73.25 94.6 73.95 94.6 75.5 99.85 81.7
L 109.4 92.8 102.3 94.3
Q 101.75 94.3 100.85 92 99.7 89.05 98.95 88.1 97.75 88.95 97.15 90.7 96.7 91.95 96.7 93.25 96.7 94.95 97.9 96.1 98.85 97.05 99.7 97.05
L 108.65 95.2
Q 112.4 94.55 111.55 93.4
L 111.55 91.3
Q 110.7 91.65 108.55 89.3
L 106.25 86.4 105.75 86.65
Q 102.7 83.35 98.8 78.65
L 95.35 74.3 95.45 72.7 95.15 72.9 Z"/>
</g>
</defs>

<g transform="matrix( 1, 0, 0, 1, 0,0) ">
<use xlink:href="#Layer0_0_FILL"/>
</g>
</svg>
