
<svg xmlns="http://www.w3.org/2000/svg" version="1.1" xmlns:xlink="http://www.w3.org/1999/xlink" preserveAspectRatio="none" x="0px" y="0px" width="550px" height="400px" viewBox="0 0 550 400">
<defs>
<g id="Layer0_0_FILL">
<path fill="#010101" stroke="none" d="
M 4.5 1.35
Q 4.65 0.85 4.45 0.45 4.35 0 3.95 0 3.75 0.05 3.35 0.35
L 3.25 0.45 3 0.55
Q 2.4 0.85 2.05 0.9 1.15 1.15 0.25 0.65 0.05 0.55 0.05 0.8 -0.05 1 0.05 1.15 0.9 2.25 2.15 2.45 2.4 2.55 2.7 2.45 3.05 2.45 3.35 2.3 4.1 2.1 4.5 1.35 Z"/>
</g>
</defs>

<g transform="matrix( 1, 0, 0, 1, 0,0) ">
<use xlink:href="#Layer0_0_FILL"/>
</g>
</svg>
