
<svg xmlns="http://www.w3.org/2000/svg" version="1.1" xmlns:xlink="http://www.w3.org/1999/xlink" preserveAspectRatio="none" x="0px" y="0px" width="550px" height="400px" viewBox="0 0 550 400">
<defs>
<g id="MovieClips_Symbol_585_36_Layer0_0_FILL">
<path fill="#57B02D" stroke="none" d="
M 35.55 -1.4
Q 35.55 -2 35.9 -3.1
L 36.5 -4.9
Q 13.1 -0.75 13.1 20.35 13.1 63.45 14.3 72.5 14.6 74.7 15.25 75.75 15.7 76.6 15.8 79.15
L 16.5 93.85
Q 16.5 98.8 14.1 102.2 11.45 106 6.95 106 5.55 106 -22.65 96.85 -50.85 87.7 -57.2 87.7 -59.3 87.7 -61.85 88.6 -71.8 92.05 -89.6 97.45
L -93.9 103.95 -92.85 103.7 -87.5 103 -74.7 102.55
Q -70.45 102.55 -59.7 106.1
L -49.75 109.6 -42.05 108.65
Q -35 108.65 -19.8 114.15 -4.65 119.6 0.5 119.6
L 22.95 118.85
Q 24.4 118.85 30.15 120.25 35.95 121.6 37.65 121.6
L 41.2 121.15
Q 44.4 120.4 44.4 118.75 42.85 113.7 41.25 107.9 38.1 96.25 38.1 90.75 38.1 88.75 39.5 86.75
L 42.55 83.2
Q 46.95 78.15 46.95 72.15 46.95 71.05 45.15 67.3
L 41.15 59.05
Q 35.3 46.45 35.3 38.45 35.3 36.3 36.55 34.4
L 39.3 30.95
Q 43.3 26.05 43.3 19 43.3 14.4 39.45 8.6 35.55 2.8 35.55 -1.4 Z"/>
</g>
</defs>

<g transform="matrix( 1, 0, 0, 1, -32.9,-71.25) ">
<g transform="matrix( 1, 0, 0, 1, 0,0) ">
<use xlink:href="#MovieClips_Symbol_585_36_Layer0_0_FILL"/>
</g>
</g>
</svg>
