
<svg xmlns="http://www.w3.org/2000/svg" version="1.1" xmlns:xlink="http://www.w3.org/1999/xlink" preserveAspectRatio="none" x="0px" y="0px" width="550px" height="400px" viewBox="0 0 550 400">
<defs>
<g id="Layer0_0_FILL">
<path fill="#000000" stroke="none" d="
M 47.8 -50.35
Q 37.5 -70.45 17.45 -80.7
L -18.75 -90.8
Q -34.95 -75.65 -44.05 -55.4 -58.85 -22.3 -48.6 12.1 21.35 -1.35 91.1 -15.55 113.45 -19.95 104.85 -37.45 93.35 -39.65 82.15 -36.1 58.85 -28.9 47.8 -50.35
M 45.9 -47.9
Q 53.2 -35.1 58.1 -31.2
L 102.9 -35.9
Q 107.45 -22.45 92.9 -19.25 78.8 -16.25 64.5 -14.7 48.15 -12.95 32.15 -8.4 23 -50.5 -8.95 -79.35 -11.4 -81.55 -10.4 -84.75 -7.85 -89.25 15.35 -74.95 38.55 -60.7 45.9 -47.9
M -15.65 -82.8
L -12.55 -79.05
Q 18.05 -49.15 29.75 -7.75 18.6 -4.2 -1.5 -1.8 -5.75 -9.45 -6.6 -13.45 -7.5 -17.45 -14.7 -35.85 -21.9 -54.3 -15.65 -82.8
M -32.45 -66
Q -26.8 -74.65 -18.7 -81.15 -25.95 -64 -21.55 -45.25 -17.15 -26.7 -11.3 -8.6
L -8.95 -1.4
Q -25.6 6.2 -44 7.55 -55.05 -31.4 -32.45 -66 Z"/>
</g>
</defs>

<g transform="matrix( 1, 0, 0, 1, 0,0) ">
<use xlink:href="#Layer0_0_FILL"/>
</g>
</svg>
