
<svg xmlns="http://www.w3.org/2000/svg" version="1.1" xmlns:xlink="http://www.w3.org/1999/xlink" preserveAspectRatio="none" x="0px" y="0px" width="550px" height="400px" viewBox="0 0 550 400">
<defs>
<g id="Layer0_0_FILL">
<path fill="#FFFFFF" stroke="none" d="
M 47.05 44.25
L 47.05 44.15 39.75 43.5
Q 31.75 47.6 29.2 52.05 27.8 54.5 27.55 58.9
L 28 59.4 28 60.55
Q 27.75 61.4 27.75 62.4
L 27.7 65.6
Q 27.85 69.35 28.65 72.45 29.2 74.6 30 76.3
L 30 76.85 30.65 77.5
Q 32.3 80.2 34.75 81.4
L 36.3 82.6 35.4 81.65 36.75 82.1
Q 38.5 83.45 40.55 84.25 42.4 85.8 43.8 85.8 46.85 85.8 49.4 85.05
L 49.4 85
Q 51.75 84.5 53.35 83.25 57.2 80.8 59.5 75.9 62.1 70.5 62.1 65.1
L 62.1 64.9 60.35 66.3
Q 57.45 68.35 55.3 68.35 52.45 68.35 50.45 64.6
L 49 60.8
Q 49 57.45 51.2 55.65 53.2 54 56.05 54.35 58.75 54.65 60.6 56.6 59.9 54.65 58.8 52.8 55.6 47.25 49.85 45
L 49.85 45.1 47.75 44.4 47.05 44.25 Z"/>
</g>
</defs>

<g transform="matrix( 1, 0, 0, 1, 0,0) ">
<use xlink:href="#Layer0_0_FILL"/>
</g>
</svg>
