
<svg xmlns="http://www.w3.org/2000/svg" version="1.1" xmlns:xlink="http://www.w3.org/1999/xlink" preserveAspectRatio="none" x="0px" y="0px" width="550px" height="400px" viewBox="0 0 550 400">
<defs>
<g id="Layer0_0_FILL">
<path fill="#A49F67" stroke="none" d="
M 65.75 108.15
L 65.55 111.85
Q 65.25 115.9 65.5 124.05
L 74.45 122.6
Q 78.35 122.6 81.45 123.45
L 81.55 123.5 81.65 123.4 90.2 124.4
Q 100 125.15 106.7 124.1 125.85 121.2 128.95 121.2
L 128.4 121.5 132.7 120.85
Q 135.9 120.6 140.1 119.05 141.8 118.45 144.6 114.75 147.8 110.5 147.4 107.9 126.4 108 119.05 108.4 104.8 109.4 98 112.45 93.2 114.55 87.75 114.15
L 86.8 114.65 85.4 114.45 85.65 113.85 81.55 113.05
Q 71.4 109.2 65.75 108.15 Z"/>
</g>
</defs>

<g transform="matrix( 1, 0, 0, 1, 0,0) ">
<use xlink:href="#Layer0_0_FILL"/>
</g>
</svg>
