
<svg xmlns="http://www.w3.org/2000/svg" version="1.1" xmlns:xlink="http://www.w3.org/1999/xlink" preserveAspectRatio="none" x="0px" y="0px" width="550px" height="400px" viewBox="0 0 550 400">
<defs>
<g id="Layer0_0_FILL">
<path fill="#FFFFFF" fill-opacity="0.25098039215686274" stroke="none" d="
M 71.75 14.7
Q 71.75 10.65 68.25 7.4 63.65 3.1 54.65 3.1 46.45 3.1 43.5 6.7 41.5 9.15 41.5 14.65 41.5 23.2 46.05 27.3 49.2 30.15 52.95 30.15 62.35 30.15 66.5 27.35 71.75 23.85 71.75 14.7
M 69.45 16.5
Q 69.45 21.1 65.8 24.4 62.1 27.65 56.9 27.65 51.7 27.65 48.05 24.4 44.35 21.1 44.35 16.5 44.35 11.9 48.05 8.65 51.7 5.35 56.9 5.35 62.1 5.35 65.8 8.65 69.45 11.9 69.45 16.5
M -1.9 24.6
L -1.9 36 5.35 36 5.35 24.6 -1.9 24.6
M -5.75 -2.9
L -6.95 -2.05
Q -6.45 7.05 -5 11.2 -4.05 14 -2.9 14
L 4 12.45 4 8.15 0.35 -3.5
Q -0.6 -3.85 -1.05 -4.2
L -1.95 -4.95 -2.35 -4.85 -2.5 -4.1 -2.45 -3.4
Q -4.25 -3.7 -5.75 -2.9
M -5.05 -3.1
L -4.9 -3 -5.15 -2.85 -5.05 -3.1 Z"/>
</g>
</defs>

<g transform="matrix( 1, 0, 0, 1, 0,0) ">
<use xlink:href="#Layer0_0_FILL"/>
</g>
</svg>
