
<svg xmlns="http://www.w3.org/2000/svg" version="1.1" xmlns:xlink="http://www.w3.org/1999/xlink" preserveAspectRatio="none" x="0px" y="0px" width="550px" height="400px" viewBox="0 0 550 400">
<defs>
<g id="MovieClips_Symbol_228_33_Layer1_0_FILL">
<path fill="#414141" stroke="none" d="
M 40 -23.05
Q 40 -23.9 39.85 -23.45 18.2 -23.55 11.45 -24
L 1.55 -24.45 -7.65 -24.25
Q -3.4 -17.6 -1.6 -12.7 0.2 -7.7 0.2 -2.65
L 2.35 7.3
Q 4.5 17.45 4.5 18.55 4.5 21.5 2.95 25.5
L 1.4 29.4
Q 1.4 30.75 1.8 32.8
L 4 33.3 8.3 33.75
Q 13.4 33.75 15.3 32.75 16.6 32.1 16.8 30.55 17 28.95 17.6 28.4 18.85 27.4 22.95 27.4 23 28 23.4 28.65
L 23.7 29.6
Q 23.7 31.3 22.5 33.15
L 46.9 33.45
Q 60.6 33.45 70.7 28.5 80.55 23.6 80.55 17.2 80.55 15.85 78.4 11.75 75.75 6.6 72.65 6.6 68.2 6.6 55.8 12
L 43.2 17.35
Q 40.35 17.35 38.65 15.35 36.35 12.7 33.05 11.45 33.05 10.95 33.6 10.5 34.15 10.15 34.15 9.7 34.15 4.8 37.1 -9.3
L 40 -23.05 Z"/>
</g>
</defs>

<g transform="matrix( 1, 0, 0, 1, -28.15,-10.5) ">
<g transform="matrix( 1, 0, 0, 1, 0,0) ">
<use xlink:href="#MovieClips_Symbol_228_33_Layer1_0_FILL"/>
</g>
</g>
</svg>
