
<svg xmlns="http://www.w3.org/2000/svg" version="1.1" xmlns:xlink="http://www.w3.org/1999/xlink" preserveAspectRatio="none" x="0px" y="0px" width="550px" height="400px" viewBox="0 0 550 400">
<defs>
<g id="Layer0_0_FILL">
<path fill="#010101" stroke="none" d="
M 40.6 1.05
Q 40.6 0.55 40.5 0.25 40.4 -0.15 40.3 0.05
L 40.2 0.25 39.7 1.75 39.6 2.35 39.6 2.65
Q 39.2 2.85 38.5 3.55 37.8 4.15 36.2 5.15 33.4 6.75 32 7.35 28.05 9.15 22.2 10.55
L 3.7 14.25 3.7 13.95
Q 3.85 13.2 3.7 12.45 3.7 11.75 3.4 11.15 3.4 11.05 3.2 10.85
L 3 10.75 3 11.25 3.2 12.05 3.2 12.25 3.1 12.55
Q 3 12.75 3 13.15
L 3 14.25
Q 1.8 14.65 1.3 14.95
L 1.3 14.15
Q 1.3 13.3 1 12.55 0.9 12.2 0.4 12.05
L 0.3 12.55
Q 0.3 13.05 0.4 13.15
L 0.7 13.75
Q 0.7 13.85 0.6 13.85 0.5 14.05 0.1 14.55 0.1 14.85 0 14.95
L 0 15.65
Q 0 15.95 0.1 16.15
L 0.2 16.55 0.3 16.55 0.5 16.35
Q 0.5 18.05 1 18.55
L 1.3 18.85
Q 1.45 19 1.5 18.85 1.55 18.6 1.6 18.45 1.85 18.4 6 17.55
L 11.6 16.65
Q 20 15.25 22.4 14.65 28.75 13.1 32.2 11.55 34.8 10.35 36.4 9.35 38.1 8.3 38.55 8 39.8 7.1 40.3 6.25 40.75 6 40.8 4.35 40.9 2.65 40.4 2.35 40.6 1.8 40.6 1.05 Z"/>
</g>
</defs>

<g transform="matrix( 1, 0, 0, 1, 0,0) ">
<use xlink:href="#Layer0_0_FILL"/>
</g>
</svg>
