
<svg xmlns="http://www.w3.org/2000/svg" version="1.1" xmlns:xlink="http://www.w3.org/1999/xlink" preserveAspectRatio="none" x="0px" y="0px" width="550px" height="400px" viewBox="0 0 550 400">
<defs>
<g id="Layer0_0_FILL">
<path fill="#000000" fill-opacity="0.25098039215686274" stroke="none" d="
M 25 29.3
Q 24.15 29.3 23.6 30.05 23 30.8 23 31.9 23 33 23.6 33.75 24.15 34.5 25 34.5 25.85 34.5 26.45 33.75 27 33 27 31.9 27 30.8 26.45 30.05 25.85 29.3 25 29.3
M 19.4 33.95
Q 18.7 33.25 17.75 33.25 16.8 33.25 16.15 33.95 15.45 34.65 15.45 35.6 15.45 36.55 16.15 37.25 16.8 37.95 17.75 37.95 18.7 37.95 19.4 37.25 20.05 36.55 20.05 35.6 20.05 34.65 19.4 33.95
M 24 13.25
Q 24 12.3 23.05 11.65 22.1 11 20.75 11 19.4 11 18.45 11.65 17.5 12.3 17.5 13.25 17.5 14.2 18.45 14.85 19.4 15.5 20.75 15.5 22.1 15.5 23.05 14.85 24 14.2 24 13.25
M 26.55 23.45
Q 25.5 23.95 25.5 24.7 25.5 25.45 26.55 26
L 29 26.5 31.5 26
Q 32.5 25.45 32.5 24.7 32.5 23.95 31.5 23.45 30.45 22.9 29 22.9 27.55 22.9 26.55 23.45
M 52.5 32
Q 51.9 30.6 50.95 30.5 49 30.25 45 34.1
L 45.55 34.8
Q 46.25 35.45 46.85 35.45 47.85 35.45 52.5 32
M 60.25 36.3
L 55.05 36.3 55.05 39.85 60.25 39.85 60.25 36.3
M 12.95 -2
Q 10.8 -2.25 8.5 -0.5
L 6.65 1.3 7.25 1.65 8.6 1.95
Q 9.6 1.95 12.95 -2 Z"/>
</g>
</defs>

<g transform="matrix( 1, 0, 0, 1, 0,0) ">
<use xlink:href="#Layer0_0_FILL"/>
</g>
</svg>
