
<svg xmlns="http://www.w3.org/2000/svg" version="1.1" xmlns:xlink="http://www.w3.org/1999/xlink" preserveAspectRatio="none" x="0px" y="0px" width="550px" height="400px" viewBox="0 0 550 400">
<defs>
<g id="Layer0_0_MEMBER_0_FILL">
<path fill="#D37EB4" stroke="none" d="
M 58.65 46.5
Q 58.45 46.15 57.95 45.65 56.05 43.95 54.35 44.7 52.9 45.4 52.5 47.35 52.05 49.3 53.2 50.55 54.55 52 57.5 51.4 58.75 50.6 59.1 49.2 59.45 47.75 58.65 46.5 Z"/>
</g>

<g id="Layer0_0_MEMBER_1_FILL">
<path fill="#D37EB4" stroke="none" d="
M 95.15 45.5
Q 96.85 42.65 94.4 40.45 93.25 39.3 91.7 39.65 90.35 40.05 89.4 41.4 86.95 44.9 90.65 47.15 93.45 48.3 95.15 45.5 Z"/>
</g>

<g id="Layer0_1_MEMBER_0_FILL">
<path fill="#010101" stroke="none" d="
M 37.7 67.8
Q 37.25 68.35 37.5 68.9 39 72.55 42.55 74.8 45.85 76.85 49.95 77.1 54.7 77.2 59.2 75.5 61.55 74.7 63.7 73.7 65.6 72.95 65.8 72.8 67 72.25 67.55 71.45 67.7 71.3 67.7 70.9 67.65 70.5 67.4 70.45 66.65 70.3 65.6 70.75 64.5 71.35 63.95 71.6 62 72.55 60.15 73.25 55.9 74.9 51.3 75.05 47.05 75.1 43.75 73.45 39.95 71.6 38.45 68 38.15 67.3 37.7 67.8 Z"/>
</g>

<g id="Layer0_1_MEMBER_1_FILL">
<path fill="#010101" stroke="none" d="
M 94.4 4.65
Q 93.95 2.6 91.65 1.3 89.1 -0.2 86.95 1.45 79.5 0.1 71.35 0 64.95 0.1 58.4 1.15 45.4 3.1 33.75 8.9 33.55 8.95 33.45 9.25
L 33.05 8.9
Q 28.8 5.7 22.95 6.15 17.65 6.55 12.9 9.65 11.4 10.6 9.95 11.85 9 11.75 8.45 12.5
L 6.05 15.5
Q 4.95 16.65 4.4 18.05 0.9 24.15 0.15 31 -0.25 35.75 0.45 39.85 1.25 44.8 3.6 48.05
L 3.65 48.1 3.8 48.2
Q 4.85 48.7 6.3 49.15 7.2 49.5 9.15 50.05 12.35 51.35 14.5 52.55 16.75 53.65 19.5 55.45
L 21.9 57.2
Q 22.2 57.4 22.95 57.9 23.6 58.3 24.1 58.1 24.35 57.95 24.4 57.75
L 24.85 57.5
Q 24.95 58.25 25.1 59.75 25.4 60.9 25.85 62 26.7 64.4 28 66.5 30.4 71.1 35.45 80.75 39.55 89.4 41 96.75 41.75 99.6 42.25 103.1 39.1 105.25 38.4 110.8 37.85 115.45 39.05 120.45 38.35 123.5 36.95 128.9 35.75 133.7 35.1 137.65 35.2 145.9 38.75 148.65 41.8 151 46.55 148.8 51 146.7 54.7 141.85 58.55 136.8 59.3 131.65 59.15 140.85 62.45 146.3 65.4 151.15 70.05 151.65 74.55 152.1 78.35 148.3 82.45 144.2 83.65 136.9 86.4 144.45 90.15 148.2 93.55 151.55 96.3 150.7 99.1 149.8 99.7 145.1 100.3 139.95 97.8 132.2 97.25 129.15 94.5 124 91.75 118.7 91.2 116.15 91.95 113.9 91.35 110.2 90.7 106.05 88.7 104.95 89.95 100.4 90.55 96.55
L 91.5 91.2
Q 92.3 87.6 92.7 85.8 93.35 82.55 93.3 80.3 93.3 80.15 93.15 79.9
L 93.4 79.5
Q 94.75 77.05 95.25 75.85 96.05 73.75 96.1 71.85 96.1 71.35 95.9 71.1 97.05 70.5 97.3 69.15
L 97.4 68.9
Q 97.55 68.7 97.55 68.4
L 98.35 68.95
Q 98.95 69.85 100.05 68.8 101.05 67.85 101.85 65.95 103.9 61 101.25 59.85 103.4 55.8 104.25 50.3 105 45.15 104.5 39.55 102.9 26.75 101.6 21.35 99.15 10.85 94.4 4.65
M 85.45 4
Q 86.3 8.4 84.4 17 82.45 25.9 79.05 32.45
L 78.95 31.45
Q 78.85 30.9 78.45 29.8 77.95 28.35 77.4 28.4 77.1 28.5 77 28.8 76.8 29.4 77 30
L 77.15 30.4 77.15 30.45 77.2 30.65
Q 77.35 31.1 77.5 32.05
L 77.55 32.4 77.65 34.9
Q 74.9 39.25 72.1 40.25 68.95 41.45 66.05 38.25 63.35 36.85 53.55 32.1 49.1 29.95 46.8 29.1 42.9 27.6 39.65 27.35
L 39.7 24.45
Q 39.65 21.25 38.8 18.1 37.75 13.85 34.75 10.45 46.25 5.55 58.65 3.75 68.45 2.85 71.95 2.75 79.6 2.55 85.45 4
M 86.95 13.55
Q 87.7 8.25 87.3 2.7 96.85 0.85 90.35 21.7 88.05 29.1 84.45 37 81.2 44.1 79.7 45.75 75.85 43.5 73.45 42.15 79 36.95 82.65 29.3 86.3 21.65 86.95 13.55
M 100.7 27
Q 103.05 38.3 102.15 48.3 101.4 52.75 101.3 53.3 100.55 56.4 99.25 58.6 97.05 57.25 90.45 52.55 84.75 48.5 80.85 46.4 93.35 27.05 94.3 7.05 98.65 16.8 100.7 27
M 85 70.6
L 89.45 71.05
Q 90.3 71.1 91.9 71.4 93.2 71.65 94.5 71.55 94.4 71.9 94.5 72.2 94.5 74.1 93.55 75.55
L 89.9 82.3
Q 89.3 83.3 89.05 84.15
L 88.85 85.1 88.35 86.15
Q 88.25 86.35 88.45 86.65 88.65 86.9 88.8 86.65 89.75 85.6 90.2 85
L 91.85 82.3
Q 91.6 83.2 91.15 85.35 90.8 87.1 90.1 90.65
L 88.9 95.9
Q 87.9 98.45 87.9 101.05 87.9 103.85 87.8 104.2 87.1 106.45 76.95 108.7 78.3 103.7 78.55 97.9 78.85 93.9 78.8 91.6 78.7 88.1 77.9 85.45 77.85 85.25 77.7 85.3 77.55 85.3 77.55 85.55
L 77.5 87.7
Q 77.55 89.4 77.65 92.75 77.75 95.75 77.55 97.85 77.1 103.95 76.2 106.45 75.3 108.9 73.35 109.4 72.05 109.75 68.3 109.3 63.25 108.65 60.15 108.65 51.3 107.5 43.35 103.75 43.5 102.7 43.1 100.65 42.6 98.2 42.4 96.9 40.85 91.15 39.75 88 39.9 88.15 40.4 88.85 40.95 89.5 41.55 89.7 41.4 90.15 42.2 90.4 42.9 90.65 42.2 89.7
L 42.25 89.75
Q 39.15 84.8 37.55 82.15 34.6 77.45 33.25 73.4 33.85 74.3 35.55 73.65 37.15 73.05 35.25 72.35 34.35 72.2 33.5 71.15 32.15 69.35 31.65 68.9 30.2 67.05 29.15 65.05 28.4 63.75 27.2 61.05
L 26.4 59
Q 25.7 57.75 25.45 57 26.8 55.55 27.35 55 29.15 53.05 30.35 51.45 33.2 47.7 35.35 43.1
L 36.95 39.1
Q 38.8 39.8 42.35 40.8 46.1 41.9 47.7 42.45
L 53.3 44.6 53.5 44.65 58.4 46.65
Q 63.8 48.75 68.6 51.35 72.55 53.75 79.4 57.4 79.7 60.45 78.95 63.05 78.65 64.05 78.25 66.1
L 77.3 69.3
Q 77.15 69.7 77.4 70.05 77.6 70.35 77.85 70.1
L 77.95 70
Q 78.65 68.55 79.1 67 79.65 65.45 79.9 63.6
L 80.5 58
Q 88.85 62.4 96.5 67.6
L 96.45 67.65 96.4 67.75
Q 96.25 68.05 96.25 68.35
L 96.25 68.4 96.1 68.55 96 68.95 95.85 69.2
Q 95.2 69.8 94.45 69.85 92.55 70 90.8 69.65 90.7 69.65 86.85 69.05
L 84.95 68.9
Q 83.75 68.9 82.8 69.1 82.55 69.15 82.55 69.45 82.5 69.8 82.75 69.9 83.9 70.4 85 70.6
M 101 62.25
Q 100.85 65.35 98.35 67.3 88.1 58.7 69.2 50.45 66.5 49.3 58.6 45.45 52.85 42.75 47.75 40.85 44.1 39.45 42.6 39.05 39.55 38.15 37.2 38.4 38.4 34.8 38.85 31.05
L 39.05 30.7
Q 39.35 29.8 39.55 28.45 45.3 29.75 52.35 33.05 53.35 33.5 64.55 39.2 72.7 42.85 83.35 49.95 89.45 54 101 62.25
M 35.9 16.35
Q 37.4 19.7 37.6 23.1 37.75 25.05 37.7 28.95 36.65 35.6 33.95 41.65 32.9 43.85 31.65 45.95 32.3 44.15 32.5 42.4 32.9 38.8 32.1 35.6 31.4 32.15 29.75 29.25 28 26.15 25.45 24.05 22.55 21.65 19.35 21.1 15.8 20.45 12.6 21.25 10.9 21.75 9.55 22.45 8.3 23 6.85 24 3.8 26.25 2.15 29.9 3.4 22.85 7.6 17.25 8.95 15.65 9.6 14.85 11.7 12.9 14.4 11.3 20 8 26.45 9 29.55 9.6 32.1 11.55 34.6 13.5 35.9 16.35
M 14.8 23.6
Q 16.45 23.5 17.65 23.8 24.65 25.55 27.7 29.55 29.6 31.85 30.4 34.8 31.25 37.65 30.85 40.65 30.45 44.2 29.15 47.25 28.3 49.1 27.5 50.35 26.4 51.8 25.7 53.4
L 25.65 53.5
Q 24.7 54.3 23.7 55.4 22.15 53.9 20.4 52.9 17.4 50.95 15.1 49.9 12.35 48.65 9.5 47.85 8.2 47.4 6.7 47.1 5.65 47 5.15 46.85 4.6 46.65 3.85 46.8 2.3 41.5 1.9 36.65 2.2 36.45 2.2 36.15 2.5 30.45 6.8 26.55 9 24.35 11.95 23.9 12.9 23.8 14.8 23.6
M 51.75 121.3
Q 46.4 120.7 43.6 119.45 35.8 116 42.35 105.4 55.7 110.65 65.25 111.2 75.8 111.85 88.8 107.45 93.35 117.65 81.2 120.9 73.75 122.9 60.8 122.1 54.8 121.65 51.75 121.3
M 40.75 120.15
Q 43.85 122.45 49.1 123.25 52.15 123.75 58.55 124.3 57.55 126.8 56.8 130 56.45 133.5 54.05 137.6 51.65 141.8 48.5 144.35 40.45 150.85 36.4 141.6 36.45 137.25 38.15 130.9 40.35 122.85 40.75 120.15
M 61.1 124.5
Q 67.2 124.85 70.3 124.7 75.65 124.5 80 122.95 80.2 124.7 81.1 129.25 81.85 133.6 81.25 136.6 80.65 142.6 75.9 146.2 70.75 150.15 65.55 146.55 61.9 142.6 61.2 136.35 61.05 134.85 61.1 124.5
M 86.35 121.45
Q 89.1 120.6 90 118.75 96.75 131.7 98 139.95 99 146.95 95.95 147.4 92.9 147.8 89.1 141.5 84.75 134.25 82.7 122.6 82.85 122.5 86.35 121.45 Z"/>
</g>
</defs>

<g transform="matrix( 1, 0, 0, 1, 0,0) ">
<use xlink:href="#Layer0_0_MEMBER_0_FILL"/>
</g>

<g transform="matrix( 1, 0, 0, 1, 0,0) ">
<use xlink:href="#Layer0_0_MEMBER_1_FILL"/>
</g>

<g transform="matrix( 1, 0, 0, 1, 0,0) ">
<use xlink:href="#Layer0_1_MEMBER_0_FILL"/>
</g>

<g transform="matrix( 1, 0, 0, 1, 0,0) ">
<use xlink:href="#Layer0_1_MEMBER_1_FILL"/>
</g>
</svg>
