
<svg xmlns="http://www.w3.org/2000/svg" version="1.1" xmlns:xlink="http://www.w3.org/1999/xlink" preserveAspectRatio="none" x="0px" y="0px" width="550px" height="400px" viewBox="0 0 550 400">
<defs>
<g id="Parts_Heads_headsMC_40_Layer12_0_FILL">
<path fill="#FFFF66" stroke="none" d="
M 114.15 110.05
Q 113.85 110.55 113.75 111.2
L 113.7 111.4 113.8 111.85
Q 113.75 112.05 114 112.3
L 114.15 112.45 114.4 112.8 114.5 112.85 114.5 112.9 115 113.15 115 113.1 115.1 113.2
Q 115.15 113.3 115.4 113.25
L 115.75 113.3 116.85 113 117.3 113
Q 117.35 113 117.45 113 118 113.1 118.55 113.25 118.95 113.3 119.3 113.3 121.1 112.9 120.6 111.2 120.25 109.95 120.25 108.6 120.2 107.4 120.05 106.15 119.8 104.65 118.3 104.85 117.45 105.15 117.35 106.1 117.25 106.6 117.15 107.1 117.05 107.7 116.9 108.15 116.8 108.3 116.7 108.55 116.4 108.75 116.2 109.05 116.1 109 116.05 109.05
L 115.1 109.25 114.15 110.05
M 75.75 134.35
Q 75.95 133.6 76.55 132.8 76.6 132.65 76.65 132.65 78.25 132.05 78.4 130.5 78.5 129.6 77.5 129.25 76.5 128.95 75.5 128.55 73.4 127.95 71.25 127.6 70.75 127.45 70.25 127.2 68.9 126.5 67.65 126.75 67.55 126.45 67.45 126.15 67.2 125.8 66.75 125.6 66.3 125.4 65.9 125.45 64.6 126 65 127.35 65.6 129.2 66.7 130.85 68.55 133.8 70.2 136.85 70.65 137.75 71.65 137.75 72.6 137.65 73.4 137.05 73.85 136.6 74.45 136.15 75.55 135.5 75.75 134.35
M 26.55 64.5
Q 25.55 63.55 25.05 63 24.7 62.65 23.1 60.35 21.95 58.6 19.65 56.45
L 17.95 54.65
Q 17.55 54 17.25 53.7 16.55 52.9 15.45 53 14.4 53.2 13.95 54.2 13.9 54.4 13.85 54.65 13.7 54.8 13.6 55.05 13 56.4 13.5 57.8 13.55 58 13.55 58.2 13.15 59.5 12.7 60.85 12.5 61.4 12.45 61.9 11.7 65.15 11.9 68.6 11.9 69.4 12 70.25 12.25 71.7 12.35 73 12.7 76.15 13.85 79.1 14.3 80.15 14.9 81.05 14.9 81.2 14.9 81.3 15.15 82.1 15.45 82.9
L 15.45 82.95
Q 15.35 83.7 15.8 84.55 16.1 85.25 16.9 86.55 17.25 87.3 17.9 89
L 19.1 91.45
Q 19.3 91.9 19.65 92.25
L 20.4 93.4
Q 20.95 94.25 21.3 94.4 21.5 94.55 21.75 94.65 22.45 95.75 23.4 96.85 24.55 98.3 26 99.65 26.55 100.45 27.25 101.25 28 102.1 28.8 102.8 28.9 102.9 29.05 103.05
L 30.9 104.75
Q 32.8 106.4 34.75 107.6 35.75 108.25 36.4 108.3 37.8 108.4 38.35 107.25 38.85 106.1 38.15 105.1 38.2 104.45 38.2 103.7 38.25 100.95 38.55 98.2 38.7 97.8 38.75 97.25 38.7 97.2 38.75 97.1 38.8 97.1 38.85 97.05 39.05 96.8 39.15 96.8
L 39.1 96.75
Q 39.2 96.7 39.35 96.55
L 39.8 95.8
Q 39.9 95.65 39.85 95.55
L 39.9 94.6
Q 39.95 94.45 39.85 94.4
L 39.8 94.2 39.1 93.3
Q 39.05 93.35 39 93.25
L 38.45 93 38.1 93
Q 38.05 92.95 38 92.9 37.65 92.8 36.65 92.8 36.6 92.75 36.55 92.75 36.3 92.8 36.1 92.8
L 33.05 92.85
Q 32.95 92.85 32.3 92.65
L 31.1 92.05
Q 29.9 91.6 29.45 91.15 28.85 90.7 28.35 89.8 27.9 89.05 27.75 88.45
L 27.65 87.2
Q 27.6 86.85 27.3 85.85 27 85 27 84.45 27.15 83.8 27.2 83.4
L 27.25 82.2
Q 27.4 82.05 27.4 81.9 27.95 80.85 28.3 79.6 28.65 78.55 29.25 77.65 29.5 77.25 29.9 77.1 30.7 76.8 31.2 76.25 31.45 76.15 31.65 76.05 32.4 75.65 32.7 74.8
L 32.7 74.65
Q 32.8 74.15 32.65 73.8
L 31.55 71.8
Q 31.4 71.4 31.05 71.1
L 30.5 70.65
Q 30.2 70.4 30 70
L 28.8 67.9 28.1 67.45
Q 28 67.15 27.75 66.45 27.1 65.1 26.55 64.5
M 101.1 94.1
Q 100 94.9 98.8 95.6 96.4 97.3 96.9 100.05 97 100.55 96.8 101.2 96.8 101.3 96.75 101.5 95.9 100.7 94.85 100.25 92.15 99.05 89.4 100.1 87 100.9 86.4 103.2 86.25 103.65 86.1 104.1 85.6 105.8 86.15 107.45 86.5 108.6 86.95 109.7 87.75 111.7 89.75 112.65
L 89.75 112.7
Q 90 113.25 90.5 113.5 94.4 115.2 98.65 114.7 99.45 114.6 100.25 114.6 101.05 114.6 101.7 114.15 101.85 114.05 102 114.05 102.6 113.95 103.15 113.15 103.45 112.65 103.7 112.05 104.3 110.95 105.05 109.8 106.4 107.85 107.1 105.4 107.25 104.75 107.35 104.15 108 101.35 107.6 98.6 107.55 98.2 107.45 98 107.45 97.8 107.45 97.65
L 107.45 97.45 107.4 97.05 107.3 96.85 107.3 96.8 106.25 95.15 106.1 95.1 106.15 95 106.05 94.95 105.85 94.75 105.75 94.75 105.65 94.65 105.1 94.25
Q 105.1 94.3 104.9 94.2 104.7 93.95 104.75 94.15 104.65 94.05 104.5 94.1 102.95 93.35 101.1 94.1
M 103.4 98.2
Q 103.45 98.2 103.5 98.25
L 104 99.05 104.15 99.05 104.15 99.15 104.5 99.4 104.55 99.4
Q 104.65 99.5 104.85 99.55
L 105 99.55
Q 104.95 99.95 104.95 100.3 105 101.7 104.85 103.1 104.45 105.5 103.2 107.75
L 103.05 107.65
Q 102.85 107.55 102.85 107.6
L 102.7 107.55 102.05 107.5 101.35 107.7
Q 101.25 107.6 101.15 107.5 101 107.25 100.85 106.95 100.65 106.45 100.4 105.9 100.3 105.7 100.25 105.6 100.15 105.35 100.1 105.2 99.85 104.45 99.6 103.75 98.95 101.95 100.1 100.45 101.35 98.7 103.4 98.2
M 92.3 103.7
Q 93.9 104.4 95.45 104.8 96.3 105.75 97.35 106.55 97.65 106.75 97.8 107.05 98.3 107.75 98.45 108.6 98.45 108.75 98.45 108.95 98.5 109.4 98.35 109.75 98.1 110.25 97.55 110.5 96.9 110.8 96.25 111.15 96.05 111.25 96 111.35 95.05 111.25 94.15 111 93.15 110.8 92.25 110.6 92.05 110.45 91.85 110.4 91.5 110.2 91.15 109.95 89.2 108.7 88.75 106.5 88.75 106.2 88.8 105.85 89.05 105.1 89.6 104.35 90.65 103 92.3 103.7
M 87.75 47.75
Q 86.45 46.95 85.3 45.95 81.4 42.65 76.65 41.55 76.5 41.3 76.2 41.2 73.45 39.95 70.35 39.7 69.5 39.6 68.65 39.35 65.6 38.35 62.55 38.65 62.05 38.8 61.65 39.25 59.85 41.45 62.35 43.2 64.15 44.35 65.2 46.1 67.5 49.85 69.25 53.9 69.8 55.25 70.3 56.7 70.45 57.45 70.75 58.15
L 70.55 58.65 70.55 58.8
Q 70.5 58.8 70.45 58.95 70.45 59.5 70.75 60
L 70.8 60.15 71.05 60.5 71.15 60.55
Q 71.15 60.6 71.25 60.7
L 72.15 61.15 72.6 61.15
Q 73.5 61.15 74 60.4
L 74.25 60.15 74.3 60.05
Q 76.65 59.55 79.1 59.25 81.1 58.95 83.05 58.85 83.8 59.45 84.5 60.1 87 62.4 88.45 65.55 88.25 66.1 88.35 66.75 87.1 67.2 86.8 68.5 86.6 69.3 87.1 69.9 88.5 71.65 91 72.05 91.1 72.05 91.2 72.1 91.3 73.7 92.85 74.85 94.4 75.95 96.15 76.9
L 96.5 77.5 96.7 77.6
Q 96.65 77.7 96.8 78
L 97.15 78.55 97.2 78.6 97.4 78.85 97.5 78.9 97.45 79 97.65 79.1
Q 97.8 79.15 97.8 79.1
L 97.85 79.25 98.05 79.3 98.35 79.45
Q 98.45 79.4 98.55 79.45 98.75 79.4 98.8 79.55
L 98.9 79.45
Q 99.55 79.45 100 79.1
L 100.25 78.95 100.25 78.85
Q 100.45 78.85 100.5 78.65
L 100.8 78.05 100.8 78 100.85 77.8 100.9 77.3
Q 101 77.1 101 76.85 101.45 76.35 101.6 75.55 101.8 74.1 101.25 72.65 102.05 71.45 101.55 70.05 100.25 66.7 99.15 63.15 97.35 57.25 93.3 52.55 90.8 49.7 87.75 47.75 Z"/>
</g>

<g id="Graphics_batHead_0_Layer0_0_FILL">
<path fill="#000000" fill-opacity="0.28627450980392155" stroke="none" d="
M 177.75 107.35
Q 177.8 107.403125 177.8 107.45
L 177.85 107.45
Q 177.803125 107.403125 177.75 107.35
M 181.65 165.65
Q 180.95 167.05 180.1 168.35 180.2 168.3 180.3 168.3 181.1 167.15 181.75 166.05 181.7 165.9 181.7 165.8 181.65 165.7 181.65 165.65
M 184.9 126.25
Q 185.95 128.8 186.7 131.35 186.1 128.7 185.1 126.2 185 126.2 184.9 126.25
M 47.4 97.85
Q 46.9 98.2 46.5 98.65 46.75 98.5 46.95 98.35 47.3 98.15 47.4 97.85
M 54.9 133.15
Q 55.7 128.35 57.5 124.05 55.3 124.55 53.05 124.5 50.7 130.5 50.3 137.05 50.9 137.3 51.55 137.65 54.65 139 52.2 141.2 51.85 141.5 51.55 141.65 53.1 142.45 54.75 143.2 54 138.2 54.9 133.15
M 21 66.35
Q 21.2 66.6 21.35 66.9 28.45 76.45 35.05 86.45 38.5 91.65 41.75 97 42.15 97.7 42.6 98.1 44.05 96.55 45.8 95.45
L 45.85 95.45
Q 46.35 94.8 47 94.35 43.85 89.3 40.05 84.3 34.95 77.55 30.15 70.7 27.45 66.8 23.9 64.3 23.1 63.75 22.45 63.3 21.6 64.8 21 66.35
M 19.9 46
Q 20.2 44.2 20.55 42.45 27.1 50 33 58.2 45.75 76.05 62.45 90.35 69.15 96.05 77 100 78.55 100.75 79.8 101 79.15 100.85 78.35 99.65 77.1 97.8 77.65 95.3 78 93.4 78.8 91.85 71.7 83.9 64.55 76.05 61.5 72.95 58.55 69.7 57.35 68.3 56.15 66.9 51.25 61.55 46.35 56.25 31.35 40.1 14.4 25.85 10.65 47.85 9.45 70.3 8.25 93.4 8.8 116.35 9.25 138.15 17.9 158.3 22.85 169.85 33.7 176.25 44.35 182.5 55.6 181.45 56.2 181.6 56.85 181.5 59.15 181.1 61.55 180.65 64.3 180.55 67.1 180.3 70.75 179.9 74.4 179.65 74.4 177.85 73.05 175.6 71.85 173.5 69.5 173.7 45.95 175.25 30.05 158.9 27.9 156.6 26.5 154 21.25 144.05 19.9 132.8 17.85 116.45 17.15 99.9 15.55 94 14.8 87.85 13.6 76.8 17.4 66.7 18.15 56.35 19.9 46
M 84.7 98
Q 85.4 97.4 86.2 96.8 90.6 93.5 96 94.7 97.25 95 98.3 94.35 100.6 92.9 100.2 90.8 97.45 91.4 94.35 90.4 86.6 87.9 83.3 94.95 82.3 97.05 81.5 99.3 80.85 101.05 80 101 83.15 101.4 84.7 98
M 168.4 108
Q 175.6 94.45 170.25 79.35 166.35 68.4 157.45 60.55 138.75 43.85 115.05 34.7 91.55 25.6 68.5 15.85 62.7 13.35 57.6 13.5 64.55 26.15 70.7 39.15 77.85 54.3 86.7 68.55 91.4 76.05 92.35 84.4 97.85 84.65 101.15 89.25 101.5 88.6 101.75 87.8 102.05 86.5 102 85.15 102.4 84.45 102.2 83.5 99.6 72.3 94.4 61.55 85.4 43.25 75.45 25.4 90.9 31.9 105.55 40.2 107.2 40.9 108.9 41.5 111.3 41.85 113.7 42.3 120.5 44.4 126.6 48.55 126.85 48.75 127.15 48.95 131 51.2 134.4 54.05 137.55 56.75 140.5 59.6 143.65 61.6 146.7 63.7 166.6 77.1 162.9 101 162.35 104.6 161 107.75 161.05 107.75 161.15 107.75 165 107.05 168.4 108
M 107.25 186.4
Q 107.35 186.5 107.35 186.6 107.45 186.55 107.6 186.45 107.4 186.45 107.25 186.4
M 154.45 136.45
Q 153.9 138.35 153.2 140.25 153.05 140.65 152.9 141.1 154.05 138.85 154.45 136.45
M 155.55 131
Q 156.35 131.9 156.5 133.1 157 138.4 154.25 143.15 153.65 144.1 152.7 144.8 152.8 147.45 152.5 150.25 155.25 145.6 157.25 140.5 160.5 131.85 154.6 125.05 153.1 123.35 151.25 124.5 148.8 125.95 147.3 128.1 148.15 129.5 148.85 130.9 149.65 129.6 150.5 128.35 151.75 126.55 153.75 126.75 154.05 126.8 154.15 126.95 155.15 128.65 155.25 130.7 155.4 130.8 155.55 131
M 177.05 145.95
Q 177 145.4 176.9 144.95 176.3 147.55 175.3 150.25 176.45 150.5 177.65 150.85 177.55 148.35 177.05 145.95
M 92.55 45.35
Q 94.7 45.4 96.95 45.85 109.4 48.35 120.3 54.65 129.25 59.8 134.6 68.25 135.9 70.35 137.05 72.6 138.3 75.25 139.4 77.95 141.8 84 143.2 90.3 137.85 85.95 131.05 85.3 130.65 87.35 129.75 88.85 130.95 89.3 132.15 89.85 140.35 93.5 146.35 99.9 146.8 100.4 147.2 100.95 151.15 92.95 147.95 82.9 144.1 70.55 135.7 61.5
L 135.65 61.5
Q 135.35 61.1625 135 60.8
L 134.8 60.6
Q 130.15 55.85 124.25 52 108.95 42.1 90.65 42.9 91.15 44.1 91.85 45.3 92.15 45.3 92.55 45.35
M 166.6 112.7
Q 166.2 112.5 165.65 112.35 167.6 114.45 169.45 116.65 171.7 119.3 173.2 122.35 177.05 129.2 177.5 136.3 178.45 137.35 178.85 139.1 179.75 143.4 180.55 147.7 181.35 151.8 179.3 155.1 178.85 155.8 177.95 155.7 175.6 155.25 173.35 154.8 164.5 173.4 147.15 185.3 128.65 198 105.75 197.2 90.3 196.65 77.95 187.05 75.3 184.95 73.3 182.4 73.8 181.95 74 181.35 72.65 182.15 71.1 182.75 66.95 184.4 62.9 185.4 69.65 200.2 85.35 205.25 92.2 207.5 99.45 206.5 124.45 203.1 146.75 191.6 170.3 179.5 180.6 156.05 185.7 144.3 182 132.15 179.2 122.95 172.55 117.15 172.5 117.1 172.5 117.05 171.35 115.75 170 114.5 168.4 113.15 166.6 112.7 Z"/>

<path fill="#000000" stroke="none" d="
M 172.65 109.8
Q 174.1 106.95 175.4 103.9 179.5 94.05 176.7 84 170.75 62.35 151.65 49.2 130.95 34.95 107.5 25.8 101.15 23.4 95.1 20.45 74.9 10.7 53.2 7.95 52.95 8.05 52.7 8.25 51.75 8.75 52.05 9.7 56.2 22.9 62.55 35.5 71.9 54.1 82.65 72.1 85.5 77.1 86.9 82.6 87.15 83.85 87.65 84.8 87.55 84.85 87.45 84.9 84.15 85.85 82 87.7 81.85 87.6 81.8 87.5 73.1 79.25 65.15 70.25 48.6 51.6 30.75 34.15 26.1 29.65 21.6 25.05 16.75 20 11 17.35 10.35 17.6 10.1 18.2 9 20.65 8.85 23.45 8.15 34.85 6.8 46.3 4 70.3 3.4 94.5 2.7 119.4 7.15 143.8 10.65 163.05 25.25 175.65 40 188.45 57.85 186.3 58.7 188.6 59.9 190.85 71.55 212.6 96.75 211.85 108.75 211.5 120.45 208.1 144.6 201.15 164.3 186 174.05 178.5 180.1 168.35 180.95 167.05 181.65 165.65 183 163.15 184.1 160.4 190.5 145.1 186.7 131.35 185.95 128.8 184.9 126.25 182.2 119.9 177.3 113.9 175.15 111.35 172.65 109.8
M 165.65 112.35
Q 166.2 112.5 166.6 112.7 168.4 113.15 170 114.5 171.35 115.75 172.5 117.05 172.5 117.1 172.55 117.15 179.2 122.95 182 132.15 185.7 144.3 180.6 156.05 170.3 179.5 146.75 191.6 124.45 203.1 99.45 206.5 92.2 207.5 85.35 205.25 69.65 200.2 62.9 185.4 66.95 184.4 71.1 182.75 72.65 182.15 74 181.35 75.5 180.45 76.85 179.45 76.1 179.5 75.3 179.55 74.85 179.55 74.4 179.65 70.75 179.9 67.1 180.3 64.3 180.55 61.55 180.65 59.15 181.1 56.85 181.5 56.2 181.6 55.6 181.45 44.35 182.5 33.7 176.25 22.85 169.85 17.9 158.3 9.25 138.15 8.8 116.35 8.25 93.4 9.45 70.3 10.65 47.85 14.4 25.85 31.35 40.1 46.35 56.25 51.25 61.55 56.15 66.9 60.35 71.5 64.55 76.05 71.7 83.9 78.8 91.85 78 93.4 77.65 95.3 77.1 97.8 78.35 99.65 79.15 100.85 79.8 101 79.85 101 80 101 80.85 101.05 81.5 99.3 82.3 97.05 83.3 94.95 86.6 87.9 94.35 90.4 97.45 91.4 100.2 90.8 100.35 90.75 100.55 90.7 101.95 90.3 101.15 89.3
L 101.15 89.25
Q 97.85 84.65 92.35 84.4 91.4 76.05 86.7 68.55 77.85 54.3 70.7 39.15 64.55 26.15 57.6 13.5 62.7 13.35 68.5 15.85 91.55 25.6 115.05 34.7 138.75 43.85 157.45 60.55 166.35 68.4 170.25 79.35 175.6 94.45 168.4 108 165 107.05 161.15 107.75 161.05 107.75 161 107.75 157.7 109 155.2 111.75 154.85 112.15 154.65 112.55 157.55 112.25 160.35 112 162.6 111.85 164.8 112.2 165.25 112.25 165.65 112.35
M 107.5 109.65
Q 105 105.2 101.25 102.65 99 101.1 96.25 100.25 95.65 100.4 95.7 101 95.75 102.25 95.85 103.6 97.1 117.3 104.25 129.5 108.1 136.2 115 139.1 117.8 140.35 117.65 137.55 117.15 130.4 114.35 123.75 111.3 116.55 107.5 109.65
M 32.45 68.7
Q 28.5 61.75 21.7 60 19.6 61.5 18.45 64.15 17.85 65.4 17.4 66.7 13.6 76.8 14.8 87.85 15.55 94 17.15 99.9 21.2 115.5 31.05 128.65 41.15 142.15 55.4 146.45 55.9 148.5 56.6 150.5 57.35 152.55 58.45 153.7 58.4 153.4 58.3 153.1 57.9 150.95 57.55 148.8 56.6 142.65 56.9 136.45 57.15 130.05 59.85 124.3 60.05 123.3 60.55 122.25 61.7 119.75 62.95 117.3 65.15 113.25 67.85 109.6 62.65 114.25 59.4 120.15 53.5 122.05 47 120.25 41.55 118.75 40.85 113.45 39.8 104.6 46.5 98.65 46.9 98.2 47.4 97.85 47.7 97.6 48.1 97.35
L 48.15 97.35
Q 48.35 97.2 48.55 96.95 48.8 96.8 49 96.6 49.25 96.6 49.5 96.55 49.75 96.45 50.05 96.35 51.5 93.75 49.5 91.4 43.3 84.35 37.65 76.75 34.8 72.9 32.45 68.7
M 23.9 64.3
Q 27.45 66.8 30.15 70.7 34.95 77.55 40.05 84.3 43.85 89.3 47 94.35 46.35 94.8 45.85 95.45
L 45.8 95.45
Q 44.05 96.55 42.6 98.1 41.85 98.95 41.2 99.9 38.15 104.2 37.15 109.3 35.85 115.7 41 119.65 47.05 124.3 53.05 124.5 55.3 124.55 57.5 124.05 55.7 128.35 54.9 133.15 54 138.2 54.75 143.2 53.1 142.45 51.55 141.65 44.9 138.15 39.15 132.5 29.8 123.4 24.35 112 20.65 104.4 18.7 95.7 16.2 84.8 18.35 74.6 18.85 72.45 19.5 70.4 20.15 68.35 21 66.35 21.6 64.8 22.45 63.3 23.1 63.75 23.9 64.3
M 118.8 94.05
Q 117.25 92.7 115.45 92.95 115.2 93.1 115.15 93.2 113.65 97.5 114.9 102.45 115.1 103.05 115.25 103.7 118.8 116.15 128.3 125.05 129.95 126.75 132.3 127.15 137.7 128.1 136 122.95 134 116.8 130.95 111.1 127.3 104.3 122.2 98.4 122.55 97.15 121.55 96.4 120.15 95.25 118.8 94.05
M 174.65 134.6
Q 174 134.85 173.95 135.5 173.55 138.95 172.05 142.25 167.5 152.5 156.45 154.75 154.85 155.1 153.4 154.65 157.45 148.2 160.1 141.15 163.1 132.8 158.8 125.15 155.95 120.15 150.45 121.25 147.55 122.85 145.45 125.4 144.75 126.3 144.1 127.2 142.7 129.45 142.2 132 137.45 129.1 131.7 131.15 130.4 131.6 129.3 132.55 123.55 137.8 125 145.55 125.35 147.35 126.3 148.85 131 156.15 139.95 157.4 143.2 157.8 146.4 157.35 147.5 156.95 148.7 156.85 149.4 156.75 150.2 156.65 149.2 162.5 144.5 166.85 138 173 128.9 174.35 123.2 175.2 117.65 174.85
L 117.6 174.8
Q 111.8 174.45 106.25 172.75 100.95 171.2 96.4 168.05 94.35 166.55 92.35 165.65 91.75 165.8 91.45 166.45 91.05 167.35 91.75 168 91.85 168.1 91.95 168.1 91.9 169.7 92.55 171.4 95.75 178.45 99.15 185.5 99.2 185.65 99.25 185.75 100.7 188.7 103.5 190.55 105.25 191.75 106.95 190.3 109.35 188.4 111.6 186.25 114.95 182.9 117.8 179.1 118.25 178.5 118.5 177.9 128.15 178.15 137.5 174.85 138.8 174.4 140 173.85 150.6 169 153.05 157.65 156.5 158.55 160.55 157.05 164.25 155.55 167.15 153.35 170.2 154.1 173.35 154.8 175.6 155.25 177.95 155.7 178.85 155.8 179.3 155.1 181.35 151.8 180.55 147.7 179.75 143.4 178.85 139.1 178.45 137.35 177.5 136.3 177 135.75 176.35 135.4 175.7 134.85 174.65 134.6
M 176.9 144.95
Q 177 145.4 177.05 145.95 177.55 148.35 177.65 150.85 177.65 151.65 177.6 152.5 173.7 151.95 169.8 150.95 170.6 150.05 171.4 149.15 173.55 146.25 175 142.75 175.35 141.8 175.7 140.9 176.4 142.8 176.9 144.95
M 139.7 133.75
Q 140.7 134.05 141.25 134.85 141.65 135.35 142.25 135.6 142.5 135.7 142.75 135.75 144.05 136 144.3 135 144.35 134.9 144.4 134.8 144.9 133.15 145.6 131.4 146.2 129.6 147.3 128.1 148.8 125.95 151.25 124.5 153.1 123.35 154.6 125.05 160.5 131.85 157.25 140.5 155.25 145.6 152.5 150.25 151.5 151.85 150.35 153.45 150.25 153.65 150.1 153.75 150.05 153.75 149.95 153.75 141.65 156.25 133.8 152.25 128.95 149.7 128 145.25 127.55 143.35 127.85 141.05 128.05 139.4 128.85 138.05 129.15 137.4 129.55 136.9 133.55 131.7 139.7 133.75
M 96.65 172.35
Q 96.45 171.85 96.25 171.35 99.1 173.2 102.35 174.55 107.3 176.65 112.95 177.45 113.95 177.55 114.95 177.65 112.2 180.85 109.65 184.25 108.7 185.5 107.6 186.45 107.45 186.55 107.35 186.6 106.05 187.55 104.65 188.1 103.1 186.35 102 184.35 101.15 183.05 100.5 181.65 100 180.55 99.55 179.4 98 175.9 96.65 172.35
M 156.5 133.1
Q 156.35 131.9 155.55 131 155.4 130.8 155.25 130.7 153.3 128.8 150.5 129.6 149.65 130.2 148.9 130.95 146.65 133.15 146.25 136.65 146 138.95 146.5 141.3 147.1 144.25 149.8 145.3 150.95 145.8 152.05 145.15 152.35 144.95 152.7 144.8 153.65 144.1 154.25 143.15 157 138.4 156.5 133.1
M 152.85 131.6
Q 154.3 131.8 154.45 133.3 154.6 134.9 154.45 136.45 154.05 138.85 152.9 141.1 152.7 141.4 152.5 141.8 152.05 142.45 151.65 143.05 150.9 143.9 150 143.2 148.55 142 148.2 140.1 147.5 136 149.9 132.9 150.4 132.2 151.1 131.55 151.9 131.45 152.85 131.6
M 139.2 138.75
Q 136.55 137.55 133.7 137.85 133.35 137.9 132.9 137.95 130.35 139.65 131.05 142.85 132.15 147.8 136.75 149.6 137.3 149.8 137.95 149.9 140.55 150.6 143.1 149.7 146.55 148.45 145.9 144.95 145.75 144.1 145.2 143.4 142.8 140.45 139.2 138.75
M 133.5 139.95
Q 134.4 139.4 135.25 139.9 136.4 140.75 137.65 140.45 139.45 141.15 141.1 142.15 142.95 143.2 143.75 145.1 144.2 146.2 143.55 147.1 142.6 148.35 141.1 148.3 136.2 148.45 133.75 144.45 132.4 142.15 133.5 139.95
M 88 38.8
Q 87.85 38.9 87.6 39 87.55 39.05 87.5 39.1 87.35 39.2 87.3 39.3 87.15 39.45 87.1 39.6 87.3 44.4 90.6 47.95 95.5 53.35 99.15 59.7 101.6 63.8 101.9 68.55 102.25 73.5 105 75.15 104.95 75.3 104.85 75.5 104.9 75.6 104.9 75.75 104.9 75.85 104.9 76 104.9 76.1 104.95 76.25 105 76.35 105 76.45 105.1 76.45 105.1 76.6 105.2 76.7 105.2 76.8 105.3 76.85 105.4 77 109.6 76.3 114.3 74.7 115.75 74.2 117.15 73.9 118.05 74 118.75 73.75 125.4 73.25 127.85 80.1 129.05 83.35 127.25 86.2 126.7 87.1 126.1 87.75 121.4 86.6 116.4 86.8 116.85 87 117.2 87.15 121.15 88.75 125.2 90.2 126.45 90.6 127.7 91.15
L 127.75 91.1
Q 131.15 92.15 134.3 93.95 140.4 97.4 144.35 102.9 144.8 103.4 145.25 104 145.95 104.7 146.45 105.5 147.4 107.05 148.4 108.7 148.7 108.7 148.95 108.7 149.2 108.6 149.4 108.5 149.5 108.5 149.55 108.45 149.75 106.35 149.1 104.35 151.6 100.65 151.6 95.3 151.85 71.95 134.45 56.25 125.05 47.85 113.15 43.95 100.6 39.95 88 38.8
M 95.15 49.35
Q 93.1 47.55 91.85 45.3 91.15 44.1 90.65 42.9 108.95 42.1 124.25 52 130.15 55.85 134.8 60.6
L 135 60.8
Q 135.36171875 61.16171875 135.7 61.5 144.1 70.55 147.95 82.9 151.15 92.95 147.2 100.95 146.8 100.4 146.35 99.9 140.35 93.5 132.15 89.85 130.95 89.3 129.75 88.85 130.65 87.35 131.05 85.3 131.35 83.6 131.35 81.55 131.4 78.45 129.35 76.15 125 71.15 119.15 70.7 114.85 70.3 109.8 72.4 108.8 72.7 107.85 73.1 107.4 73.25 106.95 73.55 106.8 73.65 106.65 73.75 106.5 73.8 106.35 73.9 106.4 72.2 106.2 70.5 105.85 68.05 105.15 65.6 105.1 65.45 105.1 65.4
L 105.1 65.35
Q 103.55 60.15 100.55 55.6 99.15 53.5 97.45 51.65 96.95 51.1 96.4 50.55 95.75 49.95 95.15 49.35 Z"/>

<path fill="#FFFFFF" fill-opacity="0.09803921568627451" stroke="none" d="
M 118.5 177.9
Q 118.25 178.5 117.8 179.1 114.95 182.9 111.6 186.25 127.6 184.75 139.6 174.15 139.8 174 140 173.85 138.8 174.4 137.5 174.85 128.15 178.15 118.5 177.9
M 69.55 133.6
Q 66.15 149.4 72.9 164.1 76.35 171.6 82.55 176.95 90.05 183.45 99.15 185.5 95.75 178.45 92.55 171.4 91.9 169.7 91.95 168.1 91.85 168.1 91.75 168 91.05 167.35 91.45 166.45 91.75 165.8 92.35 165.65 94.35 166.55 96.4 168.05 100.95 171.2 106.25 172.75 111.8 174.45 117.6 174.8
L 117.65 174.85
Q 123.2 175.2 128.9 174.35 138 173 144.5 166.85 149.2 162.5 150.2 156.65 149.4 156.75 148.7 156.85 147.5 156.95 146.4 157.35 143.2 157.8 139.95 157.4 131 156.15 126.3 148.85 125.35 147.35 125 145.55 123.55 137.8 129.3 132.55 130.4 131.6 131.7 131.15 137.45 129.1 142.2 132 142.7 129.45 144.1 127.2 144.75 126.3 145.45 125.4 139.4 117 130.95 111.1 134 116.8 136 122.95 137.7 128.1 132.3 127.15 129.95 126.75 128.3 125.05 118.8 116.15 115.25 103.7 108.4 101.9 101.25 102.65 105 105.2 107.5 109.65 111.3 116.55 114.35 123.75 117.15 130.4 117.65 137.55 117.8 140.35 115 139.1 108.1 136.2 104.25 129.5 97.1 117.3 95.85 103.6 94.85 103.8 93.8 104.1 89.7 105.55 86.2 108.1 72.9 117.65 69.55 133.6
M 94.6 161.9
Q 94.45 161.8 94.3 161.65
L 94.35 161.65
Q 94.5 161.7 94.55 161.8 94.7 161.9 94.9 162.05 94.95 162.1 95.05 162.2 94.95 162.15 94.9 162.15 94.8 162.05 94.7 162 94.6 161.95 94.6 161.9
M 114.95 177.65
Q 113.95 177.55 112.95 177.45 107.3 176.65 102.35 174.55 102.4 174.75 102.45 174.95 104.2 181.05 107.25 186.4 107.4 186.45 107.6 186.45 108.7 185.5 109.65 184.25 112.2 180.85 114.95 177.65
M 99.55 179.4
Q 100 180.55 100.5 181.65 101.15 183.05 102 184.35 101.8 184 101.65 183.7 100.65 181.45 99.55 179.4
M 150 143.2
Q 150.9 143.9 151.65 143.05 152.05 142.45 152.5 141.8 151.8 137.25 149.9 132.9 147.5 136 148.2 140.1 148.55 142 150 143.2
M 135.25 139.9
Q 134.4 139.4 133.5 139.95 132.4 142.15 133.75 144.45 136.2 148.45 141.1 148.3 142.6 148.35 143.55 147.1 144.2 146.2 143.75 145.1 142.95 143.2 141.1 142.15 139.45 141.15 137.65 140.45 136.4 140.75 135.25 139.9
M 133.7 137.85
Q 136.55 137.55 139.2 138.75 142.8 140.45 145.2 143.4 145.75 144.1 145.9 144.95 146.55 148.45 143.1 149.7 140.55 150.6 137.95 149.9 137.3 149.8 136.75 149.6 138.05 150.25 139.4 150.85 142.4 152.05 145.7 152.4 146.9 152.5 148.1 152 148.9 151.65 149.6 152.3 150.15 152.85 150.35 153.45 151.5 151.85 152.5 150.25 152.8 147.45 152.7 144.8 152.35 144.95 152.05 145.15 150.95 145.8 149.8 145.3 147.1 144.25 146.5 141.3 146 138.95 146.25 136.65 146.65 133.15 148.9 130.95
L 148.85 130.9
Q 148.15 129.5 147.3 128.1 146.2 129.6 145.6 131.4 144.9 133.15 144.4 134.8 144.35 134.9 144.3 135 144.05 136 142.75 135.75 141.85 137.7 139.5 136.4 138.95 136.05 138.25 135.95 135.65 135.55 133.9 137.6 133.75 137.75 133.7 137.85
M 128 145.25
Q 127.75 143.85 127.8 142.35 127.95 140.5 128.55 138.7 128.7 138.4 128.85 138.05 128.05 139.4 127.85 141.05 127.55 143.35 128 145.25 Z"/>

<path fill="#FFFFFF" fill-opacity="0.47843137254901963" stroke="none" d="
M 23.1 72.95
Q 23.2 71.7 22.45 70.7 21.55 69.6 20.25 69.9 19.85 70.1 19.5 70.4 18.85 72.45 18.35 74.6 18.3 77.25 18.5 79.95 19.2 92.4 22.1 104.65 23 108.4 24.35 112 29.8 123.4 39.15 132.5 44.9 138.15 51.55 141.65 51.85 141.5 52.2 141.2 54.65 139 51.55 137.65 50.9 137.3 50.3 137.05 39.35 131.7 33 121 26.5 110.15 24.65 97.55 23 85.95 22.4 74.35 23 73.8 23.1 72.95
M 96.25 171.35
Q 96.45 171.85 96.65 172.35 98 175.9 99.55 179.4 100.65 181.45 101.65 183.7 101.8 184 102 184.35 103.1 186.35 104.65 188.1 106.05 187.55 107.35 186.6 107.35 186.5 107.25 186.4 104.2 181.05 102.45 174.95 102.4 174.75 102.35 174.55 99.1 173.2 96.25 171.35
M 141.25 134.85
Q 140.7 134.05 139.7 133.75 133.55 131.7 129.55 136.9 129.15 137.4 128.85 138.05 128.7 138.4 128.55 138.7 127.95 140.5 127.8 142.35 127.75 143.85 128 145.25 128.95 149.7 133.8 152.25 141.65 156.25 149.95 153.75 150.05 153.75 150.1 153.75 150.25 153.65 150.35 153.45 150.15 152.85 149.6 152.3 148.9 151.65 148.1 152 146.9 152.5 145.7 152.4 142.4 152.05 139.4 150.85 138.05 150.25 136.75 149.6 132.15 147.8 131.05 142.85 130.35 139.65 132.9 137.95 133.35 137.9 133.7 137.85 133.75 137.75 133.9 137.6 135.65 135.55 138.25 135.95 138.95 136.05 139.5 136.4 141.85 137.7 142.75 135.75 142.5 135.7 142.25 135.6 141.65 135.35 141.25 134.85
M 177.65 150.85
Q 176.45 150.5 175.3 150.25 173.35 149.65 171.4 149.15 170.6 150.05 169.8 150.95 173.7 151.95 177.6 152.5 177.65 151.65 177.65 150.85
M 105.1 65.4
Q 105.1 65.45 105.15 65.6 105.85 68.05 106.2 70.5 106.35 70.9 106.55 71.25 106.35 71.65 106.35 72.3 106.4 73.15 106.95 73.55 107.4 73.25 107.85 73.1 108.8 72.7 109.8 72.4 114.85 70.3 119.15 70.7 114.95 68.3 109.95 69.45 108.8 61.65 105.65 54.35 103.3 48.95 97.8 48.65 96.45 49.1 96.4 50.55 96.95 51.1 97.45 51.65 101.95 53.8 103.45 58.9 104.35 62.05 105.1 65.35
L 105.1 65.4 Z"/>

<path fill="#FFFFFF" fill-opacity="0.047058823529411764" stroke="none" d="
M 115.35 59.2
Q 114.75 61.65 117.3 61.75 117.75 61.75 118 61.9 123.3 64 127.75 67.75 132.55 71.85 137.25 75.95 138.45 76.95 139.4 77.95 138.3 75.25 137.05 72.6 135.9 70.35 134.6 68.25 130.55 64.85 126.2 61.7 124.9 60.7 123.55 59.75 120.4 57.35 116.55 57.95 115.55 58.25 115.35 59.2 Z"/>
</g>

<g id="Parts_Heads_headColorMC_40_Layer1_0_FILL">
<path fill="#354466" stroke="none" d="
M 126.4 123.5
Q 126.55 123.3 126.65 123.1 126.6 122.95 126.6 122.85 126.55 123.15 126.4 123.5
M 100.45 44.1
L 100.35 44.1 100.35 44.05
Q 94.55 40.55 88.5 37.35 83.2 34.55 77.85 32.4 71.2 29.8 64.8 27.4 52.95 22.95 40.55 19.25 39.35 20.25 38.2 21.4 41.05 28.75 44.8 35.9 48.55 42.95 52.1 50.25 53.25 52.55 54.65 54.6 54.65 54.7 54.75 54.9 55.05 55.35 55.35 55.95 55.65 56.4 55.85 56.95 56.15 57.6 56.45 58.35 56.75 59 57.1 59.65 57.75 60.55 58.15 61.65 58.3 62.2 58.6 62.65 58.85 62.95 59 63.45 59 63.5 59.05 63.5 59.4 63.9 59.65 64.35 59.9 64.6 60.05 65 60.25 65.35 60.4 65.75 60.55 66.15 60.7 66.6 60.8 67 60.85 67.25 61 67.75 61.1 68.25 61.3 68.65 61.3 69.2 60.8 69.55 60.3 69.8 60.05 69.9 59.75 70 57.8 70.5 55.8 70.8 54.7 70.9 53.95 70.25 53.5 69.8 53.1 69.3 52.95 69.15 52.75 69.05 52.1 68.15 51.45 67.3 50.75 66.4 50.05 65.65 49.2 65.8 48.4 66
L 48.35 65.9
Q 48.1 65.85 48 65.85 46.75 64.35 45.4 63.05 44.45 62.1 43.75 60.7 43.4 60.1 43.3 59.1 42.1 57.55 40.85 55.8 40.35 55.2 39.8 54.55 37.9 52.6 35.9 50.9 34.55 49.3 32.9 47.95 31.55 46.85 30.4 45.7 26.5 41.6 22.85 37.75 20.4 35.3 18.3 32.6 16 29.7 13.05 27.4
L 13.05 27.35
Q 12.85 26.9 12.55 26.6 12.3 26.35 11.9 26.1 11.35 25.85 10.8 25.6 10.45 25.5 10.1 25.35 9.85 25.25 9.6 25.15 9.2 27.15 9.1 29.15 9.05 30.15 8.95 31.1 8.7 32.7 8.7 34.25 8.5 34.5 8.5 34.85 8.6 35.95 8.6 36.95 8.6 37.15 8.6 37.35 8.6 37.4 8.65 37.5 8.55 37.55 8.55 37.6 8.5 37.95 8.35 38.25 8.35 39.4 8.35 40.5 8.4 41.8 8.35 43.05 8.3 43.3 8.4 43.6 8.4 43.65 8.3 43.7 7.7 43.85 7.1 44.05 7.05 44.65 7.15 45.2
L 7.2 45.25
Q 7.1 45.3 7.05 45.3 6.95 46.15 6.9 46.95 6.6 49.75 6.75 52.5 6.7 52.55 6.65 52.55 6.3 52.65 6 52.8 5.85 53.4 5.7 54.1 5.55 54.6 5.75 55.3 4.3 66.4 4.5 78.1 4.8 94.15 9.1 110.25 11.9 120.6 18.8 127.95 19.45 127.8 20.15 127.65
L 20.15 127.7
Q 21 128.1 21.7 128.8 23.3 130.2 25 131.75 25.7 131.95 26.25 132.15 30.9 133.85 36.25 134 39.1 134.05 41.9 134.95 41.95 135 41.95 135.05 41.95 135.15 42 135.3 42.05 135.35 42.05 135.4 42.15 135.4 42.2 135.45 42.4 135.55 42.65 135.6 42.65 136.1 43 136.5 43.7705078125 137.35625 44.55 138.15 44.71328125 138.31328125 44.85 138.45 45.3 139 45.75 139.45 46.4 140.3 47.15 141.1 48 142.05 48.8 142.9 49.3 143.05 50.25 143.8 51.15 144.5 51.8 144.6 51.15 144.5 50.25 143.8 49.3 143.05 48.8 142.9 49.85 143.9 50.6 145.15 50.65 145.2 50.7 145.25 50.9 145.35 51.05 145.4 51.1 145.45 51.1 145.5 51.15 145.5 51.2 145.55 51.35 145.65 51.55 145.7 55.2 148.95 59.8 150.5 64.75 152.2 70.35 151.45 71.8 151.25 73.3 150.9 73.4 150.85 73.5 150.8 74.65 149.95 76.15 149.65 77.95 149.2 79.7 148.75
L 79.7 148.7
Q 85.85 147.15 91.7 143.75 93.9 142.5 96.35 141.65 101.3 138.7 106.15 135.5 107.8 135.1 109.55 134.7 109.8 134.35 110.1 134 110.2 133.95 110.2 133.9 110.75 133.75 111.25 133.7 112.1 132.9 112.85 132.1 113.15 131.85 113.5 131.6 115 130.35 116.25 128.9 117.35 127.05 118.6 125.3 118.75 124.9 118.85 124.5 119.15 123.65 119.45 122.75 120.9 118.65 123.6 115.1 123.65 113.35 124.15 111.6 124.75 109.6 125 107.65 125.05 107.2 124.95 106.75 124.5 104.05 124.75 101.3 124.9 99.6 124.55 98.1 124.55 98.05 124.5 98.1 124.45 98.1 124.3 98.1
L 124.3 98.05
Q 123.8 97.05 123.25 96 122.3 94.35 121.35 92.6 120.7 91.5 119.75 90.55 119.4 90.25 119.1 89.9 118.9 89.9 118.75 89.95
L 118.7 89.9
Q 117.4 87.9 115.95 86.35 115.65 86.05 115.6 85.6 115.25 82.95 116.1 80.35 116.75 78.4 117.8 76.6 118.1 76.25 118.4 75.8 118.55 75.75 118.8 75.7 118.75 75.5 118.7 75.25 117.55 71.2 117.2 67.05 116.75 62.9 115.35 59.1 112.1 54.85 108.35 51.1 104.55 47.4 100.45 44.1 Z"/>
</g>

<g id="Parts_Heads_headColorMC2_40_Layer3_0_FILL">
<path fill="#FFFF66" stroke="none" d="
M 114.4 110.15
Q 114.1 110.65 114 111.3
L 113.95 111.5 114.05 111.95
Q 114 112.15 114.25 112.4
L 114.4 112.55 114.65 112.9 114.75 112.95 114.75 113 115.25 113.25 115.25 113.2 115.35 113.3
Q 115.4 113.4 115.65 113.35
L 116 113.4 117.1 113.1 117.55 113.1
Q 117.6 113.1 117.7 113.1 118.25 113.2 118.8 113.35 119.2 113.4 119.55 113.4 121.35 113 120.85 111.3 120.5 110.05 120.5 108.7 120.45 107.5 120.3 106.25 120.05 104.75 118.55 104.95 117.7 105.25 117.6 106.2 117.5 106.7 117.4 107.2 117.3 107.8 117.15 108.25 117.05 108.4 116.95 108.65 116.65 108.85 116.45 109.15 116.35 109.1 116.3 109.15
L 115.35 109.35 114.4 110.15
M 75.75 128.65
Q 73.65 128.05 71.5 127.7 71 127.55 70.5 127.3 69.15 126.6 67.9 126.85 67.8 126.55 67.7 126.25 67.45 125.9 67 125.7 66.55 125.5 66.15 125.55 64.85 126.1 65.25 127.45 65.85 129.3 66.95 130.95 68.8 133.9 70.45 136.95 70.9 137.85 71.9 137.85 72.85 137.75 73.65 137.15 74.1 136.7 74.7 136.25 75.8 135.6 76 134.45 76.2 133.7 76.8 132.9 76.85 132.75 76.9 132.75 78.5 132.15 78.65 130.6 78.75 129.7 77.75 129.35 76.75 129.05 75.75 128.65
M 29.25 67.9
L 28.55 67.45
Q 28.45 67.15 28.2 66.45 27.55 65.1 27 64.5 26 63.55 25.5 63 25.15 62.65 23.55 60.35 22.4 58.6 20.1 56.45
L 18.4 54.65
Q 18 54 17.7 53.7 17 52.9 15.9 53 14.85 53.2 14.4 54.2 14.35 54.4 14.3 54.65 14.15 54.8 14.05 55.05 13.45 56.4 13.95 57.8 14 58 14 58.2 13.6 59.5 13.15 60.85 12.95 61.4 12.9 61.9 12.15 65.15 12.35 68.6 12.35 69.4 12.45 70.25 12.7 71.7 12.8 73 13.15 76.15 14.3 79.1 14.75 80.15 15.35 81.05 15.35 81.2 15.35 81.3 15.6 82.1 15.9 82.9
L 15.9 82.95
Q 15.8 83.7 16.25 84.55 16.55 85.25 17.35 86.55 17.7 87.3 18.35 89
L 19.55 91.45
Q 19.75 91.9 20.1 92.25
L 20.85 93.4
Q 21.4 94.25 21.75 94.4 21.95 94.55 22.2 94.65 22.9 95.75 23.85 96.85 25 98.3 26.45 99.65 27 100.45 27.7 101.25 28.45 102.1 29.25 102.8 29.35 102.9 29.5 103.05
L 31.35 104.75
Q 33.25 106.4 35.2 107.6 36.2 108.25 36.85 108.3 38.25 108.4 38.8 107.25 39.3 106.1 38.6 105.1 38.65 104.45 38.65 103.7 38.7 100.95 39 98.2 39.15 97.8 39.2 97.25 39.15 97.2 39.2 97.1 39.25 97.1 39.3 97.05 39.5 96.8 39.6 96.8
L 39.55 96.75
Q 39.65 96.7 39.8 96.55
L 40.25 95.8
Q 40.35 95.65 40.3 95.55
L 40.35 94.6
Q 40.4 94.45 40.3 94.4
L 40.25 94.2 39.55 93.3
Q 39.5 93.35 39.45 93.25
L 38.9 93 38.55 93
Q 38.5 92.95 38.45 92.9 38.1 92.8 37.1 92.8 37.05 92.75 37 92.75 36.75 92.8 36.55 92.8
L 33.5 92.85
Q 33.4 92.85 32.75 92.65
L 31.55 92.05
Q 30.35 91.6 29.9 91.15 29.3 90.7 28.8 89.8 28.35 89.05 28.2 88.45
L 28.1 87.2
Q 28.05 86.85 27.75 85.85 27.45 85 27.45 84.45 27.6 83.8 27.65 83.4
L 27.7 82.2
Q 27.85 82.05 27.85 81.9 28.4 80.85 28.75 79.6 29.1 78.55 29.7 77.65 29.95 77.25 30.35 77.1 31.15 76.8 31.65 76.25 31.9 76.15 32.1 76.05 32.85 75.65 33.15 74.8
L 33.15 74.65
Q 33.25 74.15 33.1 73.8
L 32 71.8
Q 31.85 71.4 31.5 71.1
L 30.95 70.65
Q 30.65 70.4 30.45 70
L 29.25 67.9
M 105 94.25
Q 104.9 94.15 104.75 94.2 103.2 93.45 101.35 94.2 100.25 95 99.05 95.7 96.65 97.4 97.15 100.15 97.25 100.65 97.05 101.3 97.05 101.4 97 101.6 96.15 100.8 95.1 100.35 92.4 99.15 89.65 100.2 87.25 101 86.65 103.3 86.5 103.75 86.35 104.2 85.85 105.9 86.4 107.55 86.75 108.7 87.2 109.8 88 111.8 90 112.75
L 90 112.8
Q 90.25 113.35 90.75 113.6 94.65 115.3 98.9 114.8 99.7 114.7 100.5 114.7 101.3 114.7 101.95 114.25 102.1 114.15 102.25 114.15 102.85 114.05 103.4 113.25 103.7 112.75 103.95 112.15 104.55 111.05 105.3 109.9 106.65 107.95 107.35 105.5 107.5 104.85 107.6 104.25 108.25 101.45 107.85 98.7 107.8 98.3 107.7 98.1 107.7 97.9 107.7 97.75
L 107.7 97.55 107.65 97.15 107.55 96.95 107.55 96.9 106.5 95.25 106.35 95.2 106.4 95.1 106.3 95.05 106.1 94.85 106 94.85 105.9 94.75 105.35 94.35
Q 105.35 94.4 105.15 94.3 104.95 94.05 105 94.25
M 103.65 98.3
Q 103.7 98.3 103.75 98.35
L 104.25 99.15 104.4 99.15 104.4 99.25 104.75 99.5 104.8 99.5
Q 104.9 99.6 105.1 99.65
L 105.25 99.65
Q 105.2 100.05 105.2 100.4 105.25 101.8 105.1 103.2 104.7 105.6 103.45 107.85
L 103.3 107.75
Q 103.1 107.65 103.1 107.7
L 102.95 107.65 102.3 107.6 101.6 107.8
Q 101.5 107.7 101.4 107.6 101.25 107.35 101.1 107.05 100.9 106.55 100.65 106 100.55 105.8 100.5 105.7 100.4 105.45 100.35 105.3 100.1 104.55 99.85 103.85 99.2 102.05 100.35 100.55 101.6 98.8 103.65 98.3
M 92.55 103.8
Q 94.15 104.5 95.7 104.9 96.55 105.85 97.6 106.65 97.9 106.85 98.05 107.15 98.55 107.85 98.7 108.7 98.7 108.85 98.7 109.05 98.75 109.5 98.6 109.85 98.35 110.35 97.8 110.6 97.15 110.9 96.5 111.25 96.3 111.35 96.25 111.45 95.3 111.35 94.4 111.1 93.4 110.9 92.5 110.7 92.3 110.55 92.1 110.5 91.75 110.3 91.4 110.05 89.45 108.8 89 106.6 89 106.3 89.05 105.95 89.3 105.2 89.85 104.45 90.9 103.1 92.55 103.8
M 88 47.85
Q 86.7 47.05 85.55 46.05 81.65 42.75 76.9 41.65 76.75 41.4 76.45 41.3 73.7 40.05 70.6 39.8 69.75 39.7 68.9 39.45 65.85 38.45 62.8 38.75 62.3 38.9 61.9 39.35 60.1 41.55 62.6 43.3 64.4 44.45 65.45 46.2 67.75 49.95 69.5 54 70.05 55.35 70.55 56.8 70.7 57.55 71 58.25
L 70.8 58.75 70.8 58.9
Q 70.75 58.9 70.7 59.05 70.7 59.6 71 60.1
L 71.05 60.25 71.3 60.6 71.4 60.65
Q 71.4 60.7 71.5 60.8
L 72.4 61.25 72.85 61.25
Q 73.75 61.25 74.25 60.5
L 74.5 60.25 74.55 60.15
Q 76.9 59.65 79.35 59.35 81.35 59.05 83.3 58.95 84.05 59.55 84.75 60.2 87.25 62.5 88.7 65.65 88.5 66.2 88.6 66.85 87.35 67.3 87.05 68.6 86.85 69.4 87.35 70 88.75 71.75 91.25 72.15 91.35 72.15 91.45 72.2 91.55 73.8 93.1 74.95 94.65 76.05 96.4 77
L 96.75 77.6 96.95 77.7
Q 96.9 77.8 97.05 78.1
L 97.4 78.65 97.45 78.7 97.65 78.95 97.75 79 97.7 79.1 97.9 79.2
Q 98.05 79.25 98.05 79.2
L 98.1 79.35 98.3 79.4 98.6 79.55
Q 98.7 79.5 98.8 79.55 99 79.5 99.05 79.65
L 99.15 79.55
Q 99.8 79.55 100.25 79.2
L 100.5 79.05 100.5 78.95
Q 100.7 78.95 100.75 78.75
L 101.05 78.15 101.05 78.1 101.1 77.9 101.15 77.4
Q 101.25 77.2 101.25 76.95 101.7 76.45 101.85 75.65 102.05 74.2 101.5 72.75 102.3 71.55 101.8 70.15 100.5 66.8 99.4 63.25 97.6 57.35 93.55 52.65 91.05 49.8 88 47.85 Z"/>
</g>

<path id="Parts_Heads_headColorMC_40_Layer1_0_1_STROKES" stroke="#354466" stroke-width="1.75" stroke-linejoin="round" stroke-linecap="round" fill="none" d="
M 48.8 142.9
Q 49.3 143.05 50.25 143.8 51.15 144.5 51.8 144.6
M 45.75 139.45
Q 46.25 140.75 46.9 141.6 47.3 142.15 47.9 142.7 48.3 142.85 48.8 142.9
M 44.575 138.175
L 45.9 141.05
Q 46.35 141.9 46.85 142.35 47.25 142.6 47.9 142.7"/>
</defs>

<g transform="matrix( 1, 0, 0, 1, -62.75,-76.85) ">
<g transform="matrix( 1, 0, 0, 1, 0,0) ">
<use xlink:href="#Parts_Heads_headsMC_40_Layer12_0_FILL"/>
</g>

<g transform="matrix( 0.6686859130859375, 0, 0, 0.6683197021484375, 1.3,11.25) ">
<g transform="matrix( 1, 0, 0, 1, 0,0) ">
<use xlink:href="#Graphics_batHead_0_Layer0_0_FILL"/>
</g>
</g>

<g id="hat1" transform="matrix( 0.983917236328125, -0.17529296875, 0.17529296875, 0.983917236328125, 45.2,78.25) ">
<g id="colorMC" transform="matrix( 0.9999847412109375, 0, 0, 0.9999847412109375, 0,0) "/>

<g id="colorMC2" transform="matrix( 1, 0, 0, 1, 0,0) "/>
</g>

<g id="hat2" transform="matrix( 0.9733734130859375, -0.2247314453125, 0.2247314453125, 0.9733734130859375, 38,60.6) ">
<g id="colorMC_FL" transform="matrix( 0.9999847412109375, 0, 0, 0.9999847412109375, 0,0) "/>

<g id="colorMC2_FL" transform="matrix( 1, 0, 0, 1, 0,0) "/>
</g>

<g id="hat3" transform="matrix( 0.96026611328125, -0.2753753662109375, 0.2753753662109375, 0.96026611328125, 26,48.4) ">
<g id="colorMC_FL_FL" transform="matrix( 0.9999847412109375, 0, 0, 0.9999847412109375, 0,0) "/>

<g id="colorMC2_FL_FL" transform="matrix( 1, 0, 0, 1, 0,0) "/>
</g>

<g id="hat4" transform="matrix( 0.944580078125, -0.3252410888671875, 0.3252410888671875, 0.944580078125, 18.85,34.5) ">
<g id="colorMC_FL_FL_FL" transform="matrix( 0.9999847412109375, 0, 0, 0.9999847412109375, 0,0) "/>

<g id="colorMC2_FL_FL_FL" transform="matrix( 1, 0, 0, 1, 0,0) "/>
</g>
</g>

<g transform="matrix( 1, 0, 0, 1, -75.4,-101.9) ">
<g transform="matrix( 1, 0, 0, 1, 0,0) ">
<use xlink:href="#Parts_Heads_headColorMC_40_Layer1_0_FILL"/>

<use xlink:href="#Parts_Heads_headColorMC_40_Layer1_0_1_STROKES"/>
</g>
</g>

<g transform="matrix( 1, 0, 0, 1, -62.75,-76.85) ">
<g transform="matrix( 1, 0, 0, 1, 0,0) ">
<use xlink:href="#Parts_Heads_headColorMC2_40_Layer3_0_FILL"/>
</g>
</g>
</svg>
