
<svg xmlns="http://www.w3.org/2000/svg" version="1.1" xmlns:xlink="http://www.w3.org/1999/xlink" preserveAspectRatio="none" x="0px" y="0px" width="550px" height="400px" viewBox="0 0 550 400">
<defs>
<g id="Parts_Heads_headColorMC_40_Layer1_0_FILL">
<path fill="#354466" stroke="none" d="
M 126.4 123.5
Q 126.55 123.3 126.65 123.1 126.6 122.95 126.6 122.85 126.55 123.15 126.4 123.5
M 100.45 44.1
L 100.35 44.1 100.35 44.05
Q 94.55 40.55 88.5 37.35 83.2 34.55 77.85 32.4 71.2 29.8 64.8 27.4 52.95 22.95 40.55 19.25 39.35 20.25 38.2 21.4 41.05 28.75 44.8 35.9 48.55 42.95 52.1 50.25 53.25 52.55 54.65 54.6 54.65 54.7 54.75 54.9 55.05 55.35 55.35 55.95 55.65 56.4 55.85 56.95 56.15 57.6 56.45 58.35 56.75 59 57.1 59.65 57.75 60.55 58.15 61.65 58.3 62.2 58.6 62.65 58.85 62.95 59 63.45 59 63.5 59.05 63.5 59.4 63.9 59.65 64.35 59.9 64.6 60.05 65 60.25 65.35 60.4 65.75 60.55 66.15 60.7 66.6 60.8 67 60.85 67.25 61 67.75 61.1 68.25 61.3 68.65 61.3 69.2 60.8 69.55 60.3 69.8 60.05 69.9 59.75 70 57.8 70.5 55.8 70.8 54.7 70.9 53.95 70.25 53.5 69.8 53.1 69.3 52.95 69.15 52.75 69.05 52.1 68.15 51.45 67.3 50.75 66.4 50.05 65.65 49.2 65.8 48.4 66
L 48.35 65.9
Q 48.1 65.85 48 65.85 46.75 64.35 45.4 63.05 44.45 62.1 43.75 60.7 43.4 60.1 43.3 59.1 42.1 57.55 40.85 55.8 40.35 55.2 39.8 54.55 37.9 52.6 35.9 50.9 34.55 49.3 32.9 47.95 31.55 46.85 30.4 45.7 26.5 41.6 22.85 37.75 20.4 35.3 18.3 32.6 16 29.7 13.05 27.4
L 13.05 27.35
Q 12.85 26.9 12.55 26.6 12.3 26.35 11.9 26.1 11.35 25.85 10.8 25.6 10.45 25.5 10.1 25.35 9.85 25.25 9.6 25.15 9.2 27.15 9.1 29.15 9.05 30.15 8.95 31.1 8.7 32.7 8.7 34.25 8.5 34.5 8.5 34.85 8.6 35.95 8.6 36.95 8.6 37.15 8.6 37.35 8.6 37.4 8.65 37.5 8.55 37.55 8.55 37.6 8.5 37.95 8.35 38.25 8.35 39.4 8.35 40.5 8.4 41.8 8.35 43.05 8.3 43.3 8.4 43.6 8.4 43.65 8.3 43.7 7.7 43.85 7.1 44.05 7.05 44.65 7.15 45.2
L 7.2 45.25
Q 7.1 45.3 7.05 45.3 6.95 46.15 6.9 46.95 6.6 49.75 6.75 52.5 6.7 52.55 6.65 52.55 6.3 52.65 6 52.8 5.85 53.4 5.7 54.1 5.55 54.6 5.75 55.3 4.3 66.4 4.5 78.1 4.8 94.15 9.1 110.25 11.9 120.6 18.8 127.95 19.45 127.8 20.15 127.65
L 20.15 127.7
Q 21 128.1 21.7 128.8 23.3 130.2 25 131.75 25.7 131.95 26.25 132.15 30.9 133.85 36.25 134 39.1 134.05 41.9 134.95 41.95 135 41.95 135.05 41.95 135.15 42 135.3 42.05 135.35 42.05 135.4 42.15 135.4 42.2 135.45 42.4 135.55 42.65 135.6 42.65 136.1 43 136.5 43.7705078125 137.35625 44.55 138.15 44.71328125 138.31328125 44.85 138.45 45.3 139 45.75 139.45 46.4 140.3 47.15 141.1 48 142.05 48.8 142.9 49.3 143.05 50.25 143.8 51.15 144.5 51.8 144.6 51.15 144.5 50.25 143.8 49.3 143.05 48.8 142.9 49.85 143.9 50.6 145.15 50.65 145.2 50.7 145.25 50.9 145.35 51.05 145.4 51.1 145.45 51.1 145.5 51.15 145.5 51.2 145.55 51.35 145.65 51.55 145.7 55.2 148.95 59.8 150.5 64.75 152.2 70.35 151.45 71.8 151.25 73.3 150.9 73.4 150.85 73.5 150.8 74.65 149.95 76.15 149.65 77.95 149.2 79.7 148.75
L 79.7 148.7
Q 85.85 147.15 91.7 143.75 93.9 142.5 96.35 141.65 101.3 138.7 106.15 135.5 107.8 135.1 109.55 134.7 109.8 134.35 110.1 134 110.2 133.95 110.2 133.9 110.75 133.75 111.25 133.7 112.1 132.9 112.85 132.1 113.15 131.85 113.5 131.6 115 130.35 116.25 128.9 117.35 127.05 118.6 125.3 118.75 124.9 118.85 124.5 119.15 123.65 119.45 122.75 120.9 118.65 123.6 115.1 123.65 113.35 124.15 111.6 124.75 109.6 125 107.65 125.05 107.2 124.95 106.75 124.5 104.05 124.75 101.3 124.9 99.6 124.55 98.1 124.55 98.05 124.5 98.1 124.45 98.1 124.3 98.1
L 124.3 98.05
Q 123.8 97.05 123.25 96 122.3 94.35 121.35 92.6 120.7 91.5 119.75 90.55 119.4 90.25 119.1 89.9 118.9 89.9 118.75 89.95
L 118.7 89.9
Q 117.4 87.9 115.95 86.35 115.65 86.05 115.6 85.6 115.25 82.95 116.1 80.35 116.75 78.4 117.8 76.6 118.1 76.25 118.4 75.8 118.55 75.75 118.8 75.7 118.75 75.5 118.7 75.25 117.55 71.2 117.2 67.05 116.75 62.9 115.35 59.1 112.1 54.85 108.35 51.1 104.55 47.4 100.45 44.1 Z"/>
</g>

<path id="Parts_Heads_headColorMC_40_Layer1_0_1_STROKES" stroke="#354466" stroke-width="1.75" stroke-linejoin="round" stroke-linecap="round" fill="none" d="
M 48.8 142.9
Q 49.3 143.05 50.25 143.8 51.15 144.5 51.8 144.6
M 45.75 139.45
Q 46.25 140.75 46.9 141.6 47.3 142.15 47.9 142.7 48.3 142.85 48.8 142.9
M 44.575 138.175
L 45.9 141.05
Q 46.35 141.9 46.85 142.35 47.25 142.6 47.9 142.7"/>
</defs>

<g transform="matrix( 1, 0, 0, 1, -75.4,-101.9) ">
<g transform="matrix( 1, 0, 0, 1, 0,0) ">
<use xlink:href="#Parts_Heads_headColorMC_40_Layer1_0_FILL"/>

<use xlink:href="#Parts_Heads_headColorMC_40_Layer1_0_1_STROKES"/>
</g>
</g>
</svg>
