<?xml version='1.0' encoding='utf-8'?>
<svg xmlns="http://www.w3.org/2000/svg" xmlns:xlink="http://www.w3.org/1999/xlink" version="1.1" width="550px" height="400px" viewBox="0 0 550 400" preserveAspectRatio="none" data-xfl-root="Graphics/Symbol 43">
  <g data-xfl-symbol="Graphics/Symbol 43">
    <g data-svg-leaf="graphics_symbol_43_99fbaa5380/t00_l000_f0000_r00.svg">
      <defs>
        <g id="xfl1_Layer0_0_FILL">
          <path fill="#FFFFFF" stroke="none" d=" M -23.45 -6.8 Q -25.2 -5.9 -26.2 -4.1 -27.25 -2.35 -27.25 0 -27.25 3.35 -25.2 5.55 -23.1 7.75 -19.2 7.75 -16.95 7.75 -15.15 6.85 -13.35 5.9 -12.4 4.3 -11.45 2.7 -11.45 0 L -18.2 0 -18.2 2.5 -15.65 2.5 Q -16 3.7 -16.85 4.35 -17.75 5 -19 5 -20.8 5 -22 3.65 -23.25 2.3 -23.2 -0.25 -23.25 -2.5 -22 -3.75 -20.85 -5.05 -19.1 -5.05 -17.8 -5.05 -16.65 -4.25 -15.55 -3.5 -15.15 -2.15 L -12.7 -2.15 -12.7 -7.5 -15.15 -7.5 -15.15 -6.25 Q -16.75 -7.75 -19.65 -7.7 -21.7 -7.7 -23.45 -6.8 M -48.3 -5.45 Q -50.5 -7.7 -54.2 -7.7 -57.95 -7.7 -60.05 -5.45 -62.2 -3.2 -62.2 0 -62.2 3.15 -60.1 5.45 -58.05 7.75 -54.2 7.75 -50.5 7.75 -48.35 5.5 -46.2 3.25 -46.2 0 -46.2 -3.2 -48.3 -5.45 M -51.35 -3.6 Q -50.25 -2.25 -50.2 -0.05 -50.25 2.4 -51.35 3.7 -52.55 5 -54.2 5 -55.9 5 -57 3.65 -58.15 2.35 -58.15 0.1 -58.15 -2.4 -57 -3.7 -55.85 -5 -54.2 -4.95 -52.45 -4.95 -51.35 -3.6 M -44.55 -4.95 L -42.65 -4.95 -42.65 5 -44.55 5 -44.55 7.55 -38.25 7.55 -38.25 5 -40.05 5 -40.05 -3.5 -33.85 7.65 -30.65 7.65 -30.65 -4.95 -28.65 -4.95 -28.65 -7.5 -35.1 -7.5 -35.1 -4.95 -33.25 -4.95 -33.25 1.9 -38.5 -7.5 -44.55 -7.5 -44.55 -4.95 M -62.9 -7.5 L -69.9 -7.5 -69.9 -4.95 -68.2 -4.95 -72.9 -0.35 -68.55 5 -70.2 5 -70.2 7.55 -62.5 7.55 -62.5 5 -64 5 -68.7 -0.8 -64.65 -4.95 -62.9 -4.95 -62.9 -7.5 M -78.7 -7.5 L -78.7 -4.95 -76.75 -4.95 -76.75 5 -78.7 5 -78.7 7.55 -71.3 7.55 -71.3 5 -73 5 -73 -4.95 -71.2 -4.95 -71.2 -7.5 -78.7 -7.5 M 66.1 -4.95 L 67.85 -4.95 67.85 5 66.1 5 66.1 7.55 78.75 7.55 78.75 2.8 76 2.8 76 5 71.6 5 71.6 1.05 75.15 1.05 75.15 -1.45 71.6 -1.45 71.6 -4.95 76 -4.95 76 -2.7 78.75 -2.7 78.75 -7.5 66.1 -7.5 66.1 -4.95 M 54.2 -4.95 L 56.35 -4.95 56.35 5 54.2 5 54.2 7.55 62.25 7.55 62.25 5 60.1 5 60.1 -4.95 62.3 -4.95 62.3 -1.45 64.75 -1.45 64.75 -7.5 51.7 -7.5 51.7 -1.45 54.2 -1.45 54.2 -4.95 M 39.55 -7.5 L 39.55 -4.95 41.45 -4.95 38.65 5 36.85 5 36.85 7.55 43.25 7.55 43.25 5 41.3 5 42.05 2.45 45.8 2.45 46.5 5 44.65 5 44.65 7.55 51.7 7.55 51.7 5 50 5 47 -4.95 48.95 -4.95 48.95 -7.5 39.55 -7.5 M 45.25 0.25 L 42.75 0.25 44.05 -4.3 45.25 0.25 M 23.95 -6.8 Q 22.2 -5.9 21.2 -4.1 20.15 -2.35 20.15 0 20.15 3.35 22.2 5.55 24.3 7.75 28.2 7.75 30.45 7.75 32.25 6.85 34.05 5.9 35 4.3 35.95 2.7 35.95 0 L 29.2 0 29.2 2.5 31.75 2.5 Q 31.4 3.7 30.55 4.35 29.65 5 28.4 5 26.6 5 25.4 3.65 24.15 2.3 24.2 -0.25 24.15 -2.5 25.4 -3.75 26.55 -5.05 28.3 -5.05 29.6 -5.05 30.75 -4.25 31.85 -3.5 32.25 -2.15 L 34.7 -2.15 34.7 -7.5 32.25 -7.5 32.25 -6.25 Q 30.65 -7.75 27.75 -7.7 25.7 -7.7 23.95 -6.8 M 3.25 -3.25 Q 3.25 -4.9 2.2 -6.15 1.1 -7.5 -1.35 -7.5 L -10 -7.5 -10 -4.95 -8.05 -4.95 -8.05 5 -10 5 -10 7.55 -2.5 7.55 -2.5 5 -4.3 5 -4.3 1 -2.65 1 0.6 7.55 4.95 7.55 4.95 5 3.1 5 0.75 0.5 Q 3.25 -0.7 3.25 -3.25 M -1.2 -4.5 Q -0.65 -4.1 -0.65 -3.2 -0.65 -1.45 -3 -1.4 L -4.3 -1.4 -4.3 -4.95 -2.65 -4.95 Q -1.75 -4.95 -1.2 -4.5 M 5.65 -7.5 L 5.65 -4.95 7.35 -4.95 7.35 5 5.65 5 5.65 7.55 18.3 7.55 18.3 2.8 15.55 2.8 15.55 5 11.1 5 11.1 1.05 14.7 1.05 14.7 -1.45 11.1 -1.45 11.1 -4.95 15.55 -4.95 15.55 -2.7 18.3 -2.7 18.3 -7.5 5.65 -7.5 Z" />
        </g>
      </defs>
      <g transform="matrix( 1, 0, 0, 1, 0,0) ">
        <use xlink:href="#xfl1_Layer0_0_FILL" />
      </g>
    </g>
  </g>
</svg>