<?xml version='1.0' encoding='utf-8'?>
<svg xmlns="http://www.w3.org/2000/svg" xmlns:xlink="http://www.w3.org/1999/xlink" version="1.1" width="550px" height="400px" viewBox="0 0 550 400" preserveAspectRatio="none" data-xfl-root="MovieClips/Symbol 30">
  <g data-xfl-symbol="MovieClips/Symbol 30">
    <g data-svg-leaf="movieclips_symbol_30_93f239843f/t00_l000_f0000_r00.svg">
      <defs>
        <g id="xfl1_Layer0_0_FILL">
          <path fill="#FFFFFF" stroke="none" d=" M 2.75 -29.65 L 13.75 -29.65 -17 0.35 -17 -29.4 -6.75 -29.4 -6.75 -43.1 -44.5 -43.1 -44.5 -29.4 -37.75 -29.4 -37.75 30.6 -44.5 30.6 -44.5 43.15 -9.75 43.15 -9.75 29.6 -17.5 29.6 -17.5 15.85 -3.5 5.35 12.25 27.35 12.25 30.1 5 30.1 5 43.15 44.5 43.15 44.5 29.85 38.75 29.85 10 -4.9 38 -28.9 44.5 -28.9 44.5 -43.1 2.75 -43.1 2.75 -29.65 Z" />
        </g>
      </defs>
      <g transform="matrix( 1, 0, 0, 1, 0,0) ">
        <use xlink:href="#xfl1_Layer0_0_FILL" />
      </g>
    </g>
  </g>
</svg>