<?xml version='1.0' encoding='utf-8'?>
<svg xmlns="http://www.w3.org/2000/svg" xmlns:xlink="http://www.w3.org/1999/xlink" version="1.1" width="550px" height="400px" viewBox="0 0 550 400" preserveAspectRatio="none" data-xfl-root="MovieClips/Symbol 34">
  <g data-xfl-symbol="MovieClips/Symbol 34">
    <g data-svg-leaf="movieclips_symbol_34_9baa3cb2f7/t00_l000_f0000_r00.svg">
      <defs>
        <g id="xfl1_Layer0_0_FILL">
          <path fill="#000000" stroke="none" d=" M 21.45 -19.55 Q 12.6 -27.65 0 -27.65 -12.55 -27.65 -21.5 -19.55 -30.4 -11.4 -30.4 0 -30.4 11.4 -21.5 19.5 -12.55 27.6 0 27.6 12.6 27.6 21.45 19.5 30.4 11.4 30.4 0 30.4 -11.4 21.45 -19.55 Z" />
        </g>
        <path id="xfl1_Layer0_0_1_STROKES" stroke="#000000" stroke-width="1" stroke-linejoin="round" stroke-linecap="round" fill="none" d=" M 0 -27.65 Q 12.6 -27.65 21.45 -19.55 30.4 -11.4 30.4 0 30.4 11.4 21.45 19.5 12.6 27.6 0 27.6 -12.55 27.6 -21.5 19.5 -30.4 11.4 -30.4 0 -30.4 -11.4 -21.5 -19.55 -12.55 -27.65 0 -27.65 Z" />
      </defs>
      <g transform="matrix( 1, 0, 0, 1, 0,0) ">
        <use xlink:href="#xfl1_Layer0_0_FILL" />
        <use xlink:href="#xfl1_Layer0_0_1_STROKES" />
      </g>
    </g>
  </g>
</svg>