<?xml version='1.0' encoding='utf-8'?>
<svg xmlns="http://www.w3.org/2000/svg" xmlns:xlink="http://www.w3.org/1999/xlink" version="1.1" width="550px" height="400px" viewBox="0 0 550 400" preserveAspectRatio="none" data-xfl-root="MovieClips/Symbol 32">
  <g data-xfl-symbol="MovieClips/Symbol 32">
    <g data-svg-leaf="movieclips_symbol_32_01b2af816f/t00_l000_f0000_r00.svg">
      <defs>
        <g id="xfl1_Layer0_0_FILL">
          <path fill="#000000" stroke="none" d=" M 40.35 -37.6 L 13.05 -30 -13.95 -30 -38.05 -36.2 -52.7 -44 -88.45 -41 -162.45 -6 -162.45 44 162.5 44 120.05 3 91.05 -30 59.05 -37.6 40.35 -37.6 Z" />
        </g>
        <path id="xfl1_Layer0_0_1_STROKES" stroke="#000000" stroke-width="1" stroke-linejoin="round" stroke-linecap="round" fill="none" d=" M -88.45 -41 L -52.7 -44 -38.05 -36.2 -13.95 -30 13.05 -30 40.35 -37.6 59.05 -37.6 91.05 -30 120.05 3 162.5 44 -162.45 44 -162.45 -6 -88.45 -41 Z" />
      </defs>
      <g transform="matrix( 1, 0, 0, 1, 0,0) ">
        <use xlink:href="#xfl1_Layer0_0_FILL" />
        <use xlink:href="#xfl1_Layer0_0_1_STROKES" />
      </g>
    </g>
  </g>
</svg>