
<svg xmlns="http://www.w3.org/2000/svg" version="1.1" xmlns:xlink="http://www.w3.org/1999/xlink" preserveAspectRatio="none" x="0px" y="0px" width="550px" height="400px" viewBox="0 0 550 400">
<defs>
<g id="MovieClips_Symbol_36_0_Layer0_0_FILL">
<path fill="#000000" stroke="none" d="
M -0.6 -7.25
Q -1.2 -4.4 -3.35 -1 -0.65 0.2 1.15 3.5 0.8 6.2 -1.35 8
L 1.4 12.5 1.4 19 9.65 19.25 9.65 -5.75
Q 4.3 -21 -9.6 -19 -2.4 -13.4 -0.6 -7.25 Z"/>
</g>

<path id="MovieClips_Symbol_36_0_Layer0_0_1_STROKES" stroke="#000000" stroke-width="1" stroke-linejoin="round" stroke-linecap="round" fill="none" d="
M 9.65 -5.75
Q 4.3 -21 -9.6 -19 -2.4 -13.4 -0.6 -7.25 -1.2 -4.4 -3.35 -1 -0.65 0.2 1.15 3.5 0.8 6.2 -1.35 8
L 1.4 12.5 1.4 19 9.65 19.25 9.65 -5.75 Z"/>
</defs>

<g transform="matrix( 1, 0, 0, 1, 0,0) ">
<g transform="matrix( 1, 0, 0, 1, 0,0) ">
<use xlink:href="#MovieClips_Symbol_36_0_Layer0_0_FILL"/>

<use xlink:href="#MovieClips_Symbol_36_0_Layer0_0_1_STROKES"/>
</g>
</g>
</svg>
