<?xml version='1.0' encoding='utf-8'?>
<svg xmlns="http://www.w3.org/2000/svg" xmlns:xlink="http://www.w3.org/1999/xlink" version="1.1" width="550px" height="400px" viewBox="0 0 550 400" preserveAspectRatio="none" data-xfl-root="MovieClips/Symbol 41">
  <g data-xfl-symbol="MovieClips/Symbol 41">
    <g transform="matrix(0.5950622559 -0.3684692383 0.3445281982 0.607131958 -5.8 0.15)">
      <g data-xfl-symbol="MovieClips/Symbol 34">
        <g data-svg-leaf="movieclips_symbol_34_9baa3cb2f7/t00_l000_f0000_r00.svg">
          <defs>
            <g id="xfl1_Layer0_0_FILL">
              <path fill="#000000" stroke="none" d=" M 21.45 -19.55 Q 12.6 -27.65 0 -27.65 -12.55 -27.65 -21.5 -19.55 -30.4 -11.4 -30.4 0 -30.4 11.4 -21.5 19.5 -12.55 27.6 0 27.6 12.6 27.6 21.45 19.5 30.4 11.4 30.4 0 30.4 -11.4 21.45 -19.55 Z" />
            </g>
            <path id="xfl1_Layer0_0_1_STROKES" stroke="#000000" stroke-width="1" stroke-linejoin="round" stroke-linecap="round" fill="none" d=" M 0 -27.65 Q 12.6 -27.65 21.45 -19.55 30.4 -11.4 30.4 0 30.4 11.4 21.45 19.5 12.6 27.6 0 27.6 -12.55 27.6 -21.5 19.5 -30.4 11.4 -30.4 0 -30.4 -11.4 -21.5 -19.55 -12.55 -27.65 0 -27.65 Z" />
          </defs>
          <g transform="matrix( 1, 0, 0, 1, 0,0) ">
            <use xlink:href="#xfl1_Layer0_0_FILL" />
            <use xlink:href="#xfl1_Layer0_0_1_STROKES" />
          </g>
        </g>
      </g>
    </g>
    <g transform="matrix(0.4926147461 -0.0151977539 -0.003616333 0.4856414795 6.15 12.2)">
      <g data-xfl-symbol="MovieClips/Symbol 34">
        <g data-svg-leaf="movieclips_symbol_34_9baa3cb2f7/t00_l000_f0000_r00.svg">
          <defs>
            <g id="xfl2_Layer0_0_FILL">
              <path fill="#000000" stroke="none" d=" M 21.45 -19.55 Q 12.6 -27.65 0 -27.65 -12.55 -27.65 -21.5 -19.55 -30.4 -11.4 -30.4 0 -30.4 11.4 -21.5 19.5 -12.55 27.6 0 27.6 12.6 27.6 21.45 19.5 30.4 11.4 30.4 0 30.4 -11.4 21.45 -19.55 Z" />
            </g>
            <path id="xfl2_Layer0_0_1_STROKES" stroke="#000000" stroke-width="1" stroke-linejoin="round" stroke-linecap="round" fill="none" d=" M 0 -27.65 Q 12.6 -27.65 21.45 -19.55 30.4 -11.4 30.4 0 30.4 11.4 21.45 19.5 12.6 27.6 0 27.6 -12.55 27.6 -21.5 19.5 -30.4 11.4 -30.4 0 -30.4 -11.4 -21.5 -19.55 -12.55 -27.65 0 -27.65 Z" />
          </defs>
          <g transform="matrix( 1, 0, 0, 1, 0,0) ">
            <use xlink:href="#xfl2_Layer0_0_FILL" />
            <use xlink:href="#xfl2_Layer0_0_1_STROKES" />
          </g>
        </g>
      </g>
    </g>
    <g transform="matrix(0.6900024414 -0.021270752 -0.0043792725 0.587097168 15.55 20.8)">
      <g data-xfl-symbol="MovieClips/Symbol 34">
        <g data-svg-leaf="movieclips_symbol_34_9baa3cb2f7/t00_l000_f0000_r00.svg">
          <defs>
            <g id="xfl3_Layer0_0_FILL">
              <path fill="#000000" stroke="none" d=" M 21.45 -19.55 Q 12.6 -27.65 0 -27.65 -12.55 -27.65 -21.5 -19.55 -30.4 -11.4 -30.4 0 -30.4 11.4 -21.5 19.5 -12.55 27.6 0 27.6 12.6 27.6 21.45 19.5 30.4 11.4 30.4 0 30.4 -11.4 21.45 -19.55 Z" />
            </g>
            <path id="xfl3_Layer0_0_1_STROKES" stroke="#000000" stroke-width="1" stroke-linejoin="round" stroke-linecap="round" fill="none" d=" M 0 -27.65 Q 12.6 -27.65 21.45 -19.55 30.4 -11.4 30.4 0 30.4 11.4 21.45 19.5 12.6 27.6 0 27.6 -12.55 27.6 -21.5 19.5 -30.4 11.4 -30.4 0 -30.4 -11.4 -21.5 -19.55 -12.55 -27.65 0 -27.65 Z" />
          </defs>
          <g transform="matrix( 1, 0, 0, 1, 0,0) ">
            <use xlink:href="#xfl3_Layer0_0_FILL" />
            <use xlink:href="#xfl3_Layer0_0_1_STROKES" />
          </g>
        </g>
      </g>
    </g>
    <g transform="matrix(0.7224578857 -0.0000152588 0 0.8197174072 -39.5 20.75)">
      <g data-xfl-symbol="MovieClips/Symbol 38">
        <g data-svg-leaf="movieclips_symbol_38_499f986e2b/t00_l000_f0000_r00.svg">
          <defs>
            <g id="xfl4_Layer0_0_FILL">
              <path fill="#000000" stroke="none" d=" M 14.75 -17.9 L 10.4 -19.6 Q 7.25 -2.2 -5.1 12.5 L -14.7 19.65 -11.7 19.65 -4.95 17.4 Q 9.85 4.7 14.75 -17.9 Z" />
            </g>
            <path id="xfl4_Layer0_0_1_STROKES" stroke="#000000" stroke-width="1" stroke-linejoin="round" stroke-linecap="round" fill="none" d=" M 14.75 -17.9 Q 9.85 4.7 -4.95 17.4 L -11.7 19.65 -14.7 19.65 -5.1 12.5 Q 7.25 -2.2 10.4 -19.6 L 14.75 -17.9 Z" />
          </defs>
          <g transform="matrix( 1, 0, 0, 1, 0,0) ">
            <use xlink:href="#xfl4_Layer0_0_FILL" />
            <use xlink:href="#xfl4_Layer0_0_1_STROKES" />
          </g>
        </g>
      </g>
    </g>
    <g transform="matrix(0.8119812012 0.1096343994 -0.1096191406 0.8119812012 -16.1 14.4)">
      <g data-xfl-symbol="MovieClips/Symbol 40">
        <g data-svg-leaf="movieclips_symbol_40_11103afe31/t00_l000_f0000_r00.svg">
          <defs>
            <g id="xfl5_Layer0_0_FILL">
              <path fill="#000000" stroke="none" d=" M -8.8 -8.4 Q -18.05 -12.4 -21.3 -8.4 L 18.95 10.45 21.3 6.75 -8.8 -8.4 Z" />
            </g>
            <path id="xfl5_Layer0_0_1_STROKES" stroke="#000000" stroke-width="1" stroke-linejoin="round" stroke-linecap="round" fill="none" d=" M 18.95 10.45 L -21.3 -8.4 Q -18.05 -12.4 -8.8 -8.4 L 21.3 6.75 18.95 10.45 Z" />
          </defs>
          <g transform="matrix( 1, 0, 0, 1, 0,0) ">
            <use xlink:href="#xfl5_Layer0_0_FILL" />
            <use xlink:href="#xfl5_Layer0_0_1_STROKES" />
          </g>
        </g>
      </g>
    </g>
    <g transform="matrix(-0.5605926514 0.223739624 0.122253418 0.7676849365 42.2 12.65)">
      <g data-xfl-symbol="MovieClips/Symbol 38">
        <g data-svg-leaf="movieclips_symbol_38_499f986e2b/t00_l000_f0000_r00.svg">
          <defs>
            <g id="xfl6_Layer0_0_FILL">
              <path fill="#000000" stroke="none" d=" M 14.75 -17.9 L 10.4 -19.6 Q 7.25 -2.2 -5.1 12.5 L -14.7 19.65 -11.7 19.65 -4.95 17.4 Q 9.85 4.7 14.75 -17.9 Z" />
            </g>
            <path id="xfl6_Layer0_0_1_STROKES" stroke="#000000" stroke-width="1" stroke-linejoin="round" stroke-linecap="round" fill="none" d=" M 14.75 -17.9 Q 9.85 4.7 -4.95 17.4 L -11.7 19.65 -14.7 19.65 -5.1 12.5 Q 7.25 -2.2 10.4 -19.6 L 14.75 -17.9 Z" />
          </defs>
          <g transform="matrix( 1, 0, 0, 1, 0,0) ">
            <use xlink:href="#xfl6_Layer0_0_FILL" />
            <use xlink:href="#xfl6_Layer0_0_1_STROKES" />
          </g>
        </g>
      </g>
    </g>
    <g transform="matrix(-0.6640319824 -0.0184020996 -0.1664123535 0.7768249512 19.1 6.1)">
      <g data-xfl-symbol="MovieClips/Symbol 40">
        <g data-svg-leaf="movieclips_symbol_40_11103afe31/t00_l000_f0000_r00.svg">
          <defs>
            <g id="xfl7_Layer0_0_FILL">
              <path fill="#000000" stroke="none" d=" M -8.8 -8.4 Q -18.05 -12.4 -21.3 -8.4 L 18.95 10.45 21.3 6.75 -8.8 -8.4 Z" />
            </g>
            <path id="xfl7_Layer0_0_1_STROKES" stroke="#000000" stroke-width="1" stroke-linejoin="round" stroke-linecap="round" fill="none" d=" M 18.95 10.45 L -21.3 -8.4 Q -18.05 -12.4 -8.8 -8.4 L 21.3 6.75 18.95 10.45 Z" />
          </defs>
          <g transform="matrix( 1, 0, 0, 1, 0,0) ">
            <use xlink:href="#xfl7_Layer0_0_FILL" />
            <use xlink:href="#xfl7_Layer0_0_1_STROKES" />
          </g>
        </g>
      </g>
    </g>
    <g transform="matrix(0.2969512939 0.079574585 -0.1022338867 0.3816375732 -25.85 -24.35)">
      <g data-xfl-symbol="MovieClips/Symbol 38">
        <g data-svg-leaf="movieclips_symbol_38_499f986e2b/t00_l000_f0000_r00.svg">
          <defs>
            <g id="xfl8_Layer0_0_FILL">
              <path fill="#000000" stroke="none" d=" M 14.75 -17.9 L 10.4 -19.6 Q 7.25 -2.2 -5.1 12.5 L -14.7 19.65 -11.7 19.65 -4.95 17.4 Q 9.85 4.7 14.75 -17.9 Z" />
            </g>
            <path id="xfl8_Layer0_0_1_STROKES" stroke="#000000" stroke-width="1" stroke-linejoin="round" stroke-linecap="round" fill="none" d=" M 14.75 -17.9 Q 9.85 4.7 -4.95 17.4 L -11.7 19.65 -14.7 19.65 -5.1 12.5 Q 7.25 -2.2 10.4 -19.6 L 14.75 -17.9 Z" />
          </defs>
          <g transform="matrix( 1, 0, 0, 1, 0,0) ">
            <use xlink:href="#xfl8_Layer0_0_FILL" />
            <use xlink:href="#xfl8_Layer0_0_1_STROKES" />
          </g>
        </g>
      </g>
    </g>
    <g transform="matrix(0.2759552002 0.2415008545 -0.2131652832 0.3125305176 -17 -22.9)">
      <g data-xfl-symbol="MovieClips/Symbol 40">
        <g data-svg-leaf="movieclips_symbol_40_11103afe31/t00_l000_f0000_r00.svg">
          <defs>
            <g id="xfl9_Layer0_0_FILL">
              <path fill="#000000" stroke="none" d=" M -8.8 -8.4 Q -18.05 -12.4 -21.3 -8.4 L 18.95 10.45 21.3 6.75 -8.8 -8.4 Z" />
            </g>
            <path id="xfl9_Layer0_0_1_STROKES" stroke="#000000" stroke-width="1" stroke-linejoin="round" stroke-linecap="round" fill="none" d=" M 18.95 10.45 L -21.3 -8.4 Q -18.05 -12.4 -8.8 -8.4 L 21.3 6.75 18.95 10.45 Z" />
          </defs>
          <g transform="matrix( 1, 0, 0, 1, 0,0) ">
            <use xlink:href="#xfl9_Layer0_0_FILL" />
            <use xlink:href="#xfl9_Layer0_0_1_STROKES" />
          </g>
        </g>
      </g>
    </g>
    <g transform="matrix(0.2662658691 0.1537475586 -0.1974945068 0.3421936035 -8.85 -30.5)">
      <g data-xfl-symbol="MovieClips/Symbol 38">
        <g data-svg-leaf="movieclips_symbol_38_499f986e2b/t00_l000_f0000_r00.svg">
          <defs>
            <g id="xfl10_Layer0_0_FILL">
              <path fill="#000000" stroke="none" d=" M 14.75 -17.9 L 10.4 -19.6 Q 7.25 -2.2 -5.1 12.5 L -14.7 19.65 -11.7 19.65 -4.95 17.4 Q 9.85 4.7 14.75 -17.9 Z" />
            </g>
            <path id="xfl10_Layer0_0_1_STROKES" stroke="#000000" stroke-width="1" stroke-linejoin="round" stroke-linecap="round" fill="none" d=" M 14.75 -17.9 Q 9.85 4.7 -4.95 17.4 L -11.7 19.65 -14.7 19.65 -5.1 12.5 Q 7.25 -2.2 10.4 -19.6 L 14.75 -17.9 Z" />
          </defs>
          <g transform="matrix( 1, 0, 0, 1, 0,0) ">
            <use xlink:href="#xfl10_Layer0_0_FILL" />
            <use xlink:href="#xfl10_Layer0_0_1_STROKES" />
          </g>
        </g>
      </g>
    </g>
    <g transform="matrix(0.2040405273 0.3046722412 -0.2868041992 0.2467193604 -0.45 -26.3)">
      <g data-xfl-symbol="MovieClips/Symbol 40">
        <g data-svg-leaf="movieclips_symbol_40_11103afe31/t00_l000_f0000_r00.svg">
          <defs>
            <g id="xfl11_Layer0_0_FILL">
              <path fill="#000000" stroke="none" d=" M -8.8 -8.4 Q -18.05 -12.4 -21.3 -8.4 L 18.95 10.45 21.3 6.75 -8.8 -8.4 Z" />
            </g>
            <path id="xfl11_Layer0_0_1_STROKES" stroke="#000000" stroke-width="1" stroke-linejoin="round" stroke-linecap="round" fill="none" d=" M 18.95 10.45 L -21.3 -8.4 Q -18.05 -12.4 -8.8 -8.4 L 21.3 6.75 18.95 10.45 Z" />
          </defs>
          <g transform="matrix( 1, 0, 0, 1, 0,0) ">
            <use xlink:href="#xfl11_Layer0_0_FILL" />
            <use xlink:href="#xfl11_Layer0_0_1_STROKES" />
          </g>
        </g>
      </g>
    </g>
    <g transform="matrix(-0.4545288086 -0.0140075684 0.0038452148 0.5146026611 41.1 14.75)">
      <g data-xfl-symbol="MovieClips/Symbol 38">
        <g data-svg-leaf="movieclips_symbol_38_499f986e2b/t00_l000_f0000_r00.svg">
          <defs>
            <g id="xfl12_Layer0_0_FILL">
              <path fill="#000000" stroke="none" d=" M 14.75 -17.9 L 10.4 -19.6 Q 7.25 -2.2 -5.1 12.5 L -14.7 19.65 -11.7 19.65 -4.95 17.4 Q 9.85 4.7 14.75 -17.9 Z" />
            </g>
            <path id="xfl12_Layer0_0_1_STROKES" stroke="#000000" stroke-width="1" stroke-linejoin="round" stroke-linecap="round" fill="none" d=" M 14.75 -17.9 Q 9.85 4.7 -4.95 17.4 L -11.7 19.65 -14.7 19.65 -5.1 12.5 Q 7.25 -2.2 10.4 -19.6 L 14.75 -17.9 Z" />
          </defs>
          <g transform="matrix( 1, 0, 0, 1, 0,0) ">
            <use xlink:href="#xfl12_Layer0_0_FILL" />
            <use xlink:href="#xfl12_Layer0_0_1_STROKES" />
          </g>
        </g>
      </g>
    </g>
    <g transform="matrix(-0.5153656006 0.0540161133 0.0718536377 0.5068511963 26.3 10)">
      <g data-xfl-symbol="MovieClips/Symbol 40">
        <g data-svg-leaf="movieclips_symbol_40_11103afe31/t00_l000_f0000_r00.svg">
          <defs>
            <g id="xfl13_Layer0_0_FILL">
              <path fill="#000000" stroke="none" d=" M -8.8 -8.4 Q -18.05 -12.4 -21.3 -8.4 L 18.95 10.45 21.3 6.75 -8.8 -8.4 Z" />
            </g>
            <path id="xfl13_Layer0_0_1_STROKES" stroke="#000000" stroke-width="1" stroke-linejoin="round" stroke-linecap="round" fill="none" d=" M 18.95 10.45 L -21.3 -8.4 Q -18.05 -12.4 -8.8 -8.4 L 21.3 6.75 18.95 10.45 Z" />
          </defs>
          <g transform="matrix( 1, 0, 0, 1, 0,0) ">
            <use xlink:href="#xfl13_Layer0_0_FILL" />
            <use xlink:href="#xfl13_Layer0_0_1_STROKES" />
          </g>
        </g>
      </g>
    </g>
    <g transform="matrix(0.6995697021 0.019241333 -0.0051879883 -0.6222991943 -5.4 15.5)">
      <g data-xfl-symbol="MovieClips/Symbol 36">
        <g data-svg-leaf="movieclips_symbol_36_f4660611ae/t00_l000_f0000_r00.svg">
          <defs>
            <g id="xfl14_Layer0_0_FILL">
              <path fill="#000000" stroke="none" d=" M -9.6 -19 Q -2.4 -13.4 -0.6 -7.25 -1.2 -4.4 -3.35 -1 -0.65 0.2 1.15 3.5 0.8 6.2 -1.35 8 L 1.4 12.5 1.4 19 9.65 19.25 9.65 -5.75 Q 4.3 -21 -9.6 -19 Z" />
            </g>
            <path id="xfl14_Layer0_0_1_STROKES" stroke="#000000" stroke-width="1" stroke-linejoin="round" stroke-linecap="round" fill="none" d=" M 9.65 -5.75 Q 4.3 -21 -9.6 -19 -2.4 -13.4 -0.6 -7.25 -1.2 -4.4 -3.35 -1 -0.65 0.2 1.15 3.5 0.8 6.2 -1.35 8 L 1.4 12.5 1.4 19 9.65 19.25 9.65 -5.75 Z" />
          </defs>
          <g transform="matrix( 1, 0, 0, 1, 0,0) ">
            <use xlink:href="#xfl14_Layer0_0_FILL" />
            <use xlink:href="#xfl14_Layer0_0_1_STROKES" />
          </g>
        </g>
      </g>
    </g>
    <g transform="matrix(-0.6770782471 -0.1796569824 0.1760253906 -0.5961151123 -17.85 13.7)">
      <g data-xfl-symbol="MovieClips/Symbol 36">
        <g data-svg-leaf="movieclips_symbol_36_f4660611ae/t00_l000_f0000_r00.svg">
          <defs>
            <g id="xfl15_Layer0_0_FILL">
              <path fill="#000000" stroke="none" d=" M -9.6 -19 Q -2.4 -13.4 -0.6 -7.25 -1.2 -4.4 -3.35 -1 -0.65 0.2 1.15 3.5 0.8 6.2 -1.35 8 L 1.4 12.5 1.4 19 9.65 19.25 9.65 -5.75 Q 4.3 -21 -9.6 -19 Z" />
            </g>
            <path id="xfl15_Layer0_0_1_STROKES" stroke="#000000" stroke-width="1" stroke-linejoin="round" stroke-linecap="round" fill="none" d=" M 9.65 -5.75 Q 4.3 -21 -9.6 -19 -2.4 -13.4 -0.6 -7.25 -1.2 -4.4 -3.35 -1 -0.65 0.2 1.15 3.5 0.8 6.2 -1.35 8 L 1.4 12.5 1.4 19 9.65 19.25 9.65 -5.75 Z" />
          </defs>
          <g transform="matrix( 1, 0, 0, 1, 0,0) ">
            <use xlink:href="#xfl15_Layer0_0_FILL" />
            <use xlink:href="#xfl15_Layer0_0_1_STROKES" />
          </g>
        </g>
      </g>
    </g>
  </g>
</svg>