<?xml version='1.0' encoding='utf-8'?>
<svg xmlns="http://www.w3.org/2000/svg" xmlns:xlink="http://www.w3.org/1999/xlink" version="1.1" width="550px" height="400px" viewBox="0 0 550 400" preserveAspectRatio="none" data-xfl-root="MovieClips/Symbol 47">
  <g data-xfl-symbol="MovieClips/Symbol 47">
    <g data-svg-leaf="movieclips_symbol_47_5a57631126/t00_l032_f0000_r00.svg">
      <defs>
        <g id="xfl1_Layer0_0_FILL">
          <path fill="#000000" stroke="none" d=" M 181 154.95 L 181 -235 -221.95 -235 -221.95 154.95 181 154.95 M 14.7 -211.45 Q 16.55 -214.65 19.65 -216.3 22.8 -217.9 26.45 -217.9 31.6 -217.9 34.5 -215.3 L 34.5 -217.5 38.85 -217.5 38.85 -207.95 34.5 -207.95 Q 33.8 -210.35 31.8 -211.75 29.75 -213.15 27.4 -213.15 24.35 -213.15 22.2 -210.85 20.05 -208.6 20.05 -204.55 20.05 -199.95 22.25 -197.55 24.45 -195.15 27.6 -195.15 29.9 -195.15 31.45 -196.35 33 -197.5 33.6 -199.65 L 29.05 -199.65 29.05 -204.15 41.1 -204.15 Q 41.1 -199.3 39.4 -196.4 37.7 -193.55 34.5 -191.9 31.25 -190.25 27.25 -190.25 20.3 -190.25 16.55 -194.2 12.85 -198.1 12.85 -204.1 12.85 -208.25 14.7 -211.45 M 9.55 -208.95 L 4.65 -208.95 4.65 -212.95 -3.3 -212.95 -3.3 -206.75 3.1 -206.75 3.1 -202.2 -3.3 -202.2 -3.3 -195.15 4.65 -195.15 4.65 -199.15 9.55 -199.15 9.55 -190.6 -13.1 -190.6 -13.1 -195.15 -10 -195.15 -10 -212.95 -13.1 -212.95 -13.1 -217.5 9.55 -217.5 9.55 -208.95 M 58.75 -199.75 L 52.05 -199.75 50.7 -195.15 54.15 -195.15 54.15 -190.6 42.75 -190.6 42.75 -195.15 45.95 -195.15 50.95 -212.95 47.55 -212.95 47.55 -217.5 64.3 -217.5 64.3 -212.95 60.85 -212.95 66.25 -195.15 69.3 -195.15 69.3 -190.6 56.65 -190.6 56.65 -195.15 59.95 -195.15 58.75 -199.75 M 73.7 -212.95 L 73.7 -206.7 69.25 -206.7 69.25 -217.5 92.55 -217.5 92.55 -206.7 88.2 -206.7 88.2 -212.95 84.25 -212.95 84.25 -195.15 88.1 -195.15 88.1 -190.6 73.7 -190.6 73.7 -195.15 77.55 -195.15 77.55 -212.95 73.7 -212.95 M 95 -212.95 L 95 -217.5 117.65 -217.5 117.65 -208.95 112.75 -208.95 112.75 -212.95 104.8 -212.95 104.8 -206.75 111.2 -206.75 111.2 -202.2 104.8 -202.2 104.8 -195.15 112.75 -195.15 112.75 -199.15 117.65 -199.15 117.65 -190.6 95 -190.6 95 -195.15 98.1 -195.15 98.1 -212.95 95 -212.95 M 119.5 73.55 L 119.5 91.15 -164.65 91.15 -164.65 73.55 -164.65 -187.5 119.5 -187.5 119.5 73.55 M -150.45 -212.95 L -153.7 -212.95 -153.7 -195.15 -150.7 -195.15 -150.7 -190.6 -163.85 -190.6 -163.85 -195.15 -160.4 -195.15 -160.4 -212.95 -163.85 -212.95 -163.85 -217.5 -150.45 -217.5 -150.45 -212.95 M -153.5 -204.7 L -145.1 -212.95 -148.15 -212.95 -148.15 -217.5 -135.6 -217.5 -135.6 -212.95 -138.75 -212.95 -146 -205.55 -137.6 -195.15 -134.9 -195.15 -134.9 -190.6 -148.7 -190.6 -148.7 -195.15 -145.7 -195.15 -153.5 -204.7 M -134.35 -204.1 Q -134.35 -209.85 -130.55 -213.85 -126.75 -217.9 -120.05 -217.9 -113.4 -217.9 -109.55 -213.9 -105.75 -209.85 -105.75 -204.1 -105.75 -198.3 -109.6 -194.25 -113.4 -190.25 -120.05 -190.25 -126.95 -190.25 -130.65 -194.4 -134.35 -198.5 -134.35 -204.1 M -102.85 -212.95 L -102.85 -217.5 -92.05 -217.5 -82.6 -200.75 -82.6 -212.95 -85.9 -212.95 -85.9 -217.5 -74.4 -217.5 -74.4 -212.95 -78 -212.95 -78 -190.4 -83.7 -190.4 -94.8 -210.35 -94.8 -195.15 -91.6 -195.15 -91.6 -190.6 -102.85 -190.6 -102.85 -195.15 -99.4 -195.15 -99.4 -212.95 -102.85 -212.95 M -70.05 -211.45 Q -68.2 -214.65 -65.1 -216.3 -61.95 -217.9 -58.3 -217.9 -53.15 -217.9 -50.25 -215.3 L -50.25 -217.5 -45.9 -217.5 -45.9 -207.95 -50.25 -207.95 Q -50.95 -210.35 -52.95 -211.75 -55 -213.15 -57.35 -213.15 -60.4 -213.15 -62.55 -210.85 -64.7 -208.6 -64.7 -204.55 -64.7 -199.95 -62.5 -197.55 -60.3 -195.15 -57.15 -195.15 -54.85 -195.15 -53.3 -196.35 -51.75 -197.5 -51.15 -199.65 L -55.7 -199.65 -55.7 -204.15 -43.65 -204.15 Q -43.65 -199.3 -45.35 -196.4 -47.05 -193.55 -50.25 -191.9 -53.5 -190.25 -57.5 -190.25 -64.45 -190.25 -68.2 -194.2 -71.9 -198.1 -71.9 -204.1 -71.9 -208.25 -70.05 -211.45 M -41.1 -212.95 L -41.1 -217.5 -25.6 -217.5 Q -21.2 -217.5 -19.25 -215.15 -17.35 -212.85 -17.35 -209.95 -17.35 -205.35 -21.8 -203.25 L -17.6 -195.15 -14.3 -195.15 -14.3 -190.6 -22.1 -190.6 -27.9 -202.35 -30.85 -202.35 -30.85 -195.15 -27.65 -195.15 -27.65 -190.6 -41.1 -190.6 -41.1 -195.15 -37.55 -195.15 -37.55 -212.95 -41.1 -212.95 M -25.3 -212.15 Q -26.25 -212.95 -27.95 -212.95 L -30.85 -212.95 -30.85 -206.65 -28.55 -206.65 Q -24.3 -206.65 -24.3 -209.85 -24.3 -211.4 -25.3 -212.15 M -125.05 -210.7 Q -127.15 -208.35 -127.15 -203.9 -127.15 -199.9 -125.1 -197.55 -123.05 -195.15 -120.05 -195.15 -117.1 -195.15 -115 -197.5 -112.95 -199.8 -112.95 -204.2 -112.95 -208.15 -114.95 -210.55 -116.9 -213 -120.05 -213 -123 -213 -125.05 -210.7 M 57.7 -203.7 L 55.55 -211.8 53.25 -203.7 57.7 -203.7 Z" />
          <path fill="#FFFFFF" stroke="none" d=" M -41.1 -217.5 L -41.1 -212.95 -37.55 -212.95 -37.55 -195.15 -41.1 -195.15 -41.1 -190.6 -27.65 -190.6 -27.65 -195.15 -30.85 -195.15 -30.85 -202.35 -27.9 -202.35 -22.1 -190.6 -14.3 -190.6 -14.3 -195.15 -17.6 -195.15 -21.8 -203.25 Q -17.35 -205.35 -17.35 -209.95 -17.35 -212.85 -19.25 -215.15 -21.2 -217.5 -25.6 -217.5 L -41.1 -217.5 M -27.95 -212.95 Q -26.25 -212.95 -25.3 -212.15 -24.3 -211.4 -24.3 -209.85 -24.3 -206.65 -28.55 -206.65 L -30.85 -206.65 -30.85 -212.95 -27.95 -212.95 M -65.1 -216.3 Q -68.2 -214.65 -70.05 -211.45 -71.9 -208.25 -71.9 -204.1 -71.9 -198.1 -68.2 -194.2 -64.45 -190.25 -57.5 -190.25 -53.5 -190.25 -50.25 -191.9 -47.05 -193.55 -45.35 -196.4 -43.65 -199.3 -43.65 -204.15 L -55.7 -204.15 -55.7 -199.65 -51.15 -199.65 Q -51.75 -197.5 -53.3 -196.35 -54.85 -195.15 -57.15 -195.15 -60.3 -195.15 -62.5 -197.55 -64.7 -199.95 -64.7 -204.55 -64.7 -208.6 -62.55 -210.85 -60.4 -213.15 -57.35 -213.15 -55 -213.15 -52.95 -211.75 -50.95 -210.35 -50.25 -207.95 L -45.9 -207.95 -45.9 -217.5 -50.25 -217.5 -50.25 -215.3 Q -53.15 -217.9 -58.3 -217.9 -61.95 -217.9 -65.1 -216.3 M -102.85 -217.5 L -102.85 -212.95 -99.4 -212.95 -99.4 -195.15 -102.85 -195.15 -102.85 -190.6 -91.6 -190.6 -91.6 -195.15 -94.8 -195.15 -94.8 -210.35 -83.7 -190.4 -78 -190.4 -78 -212.95 -74.4 -212.95 -74.4 -217.5 -85.9 -217.5 -85.9 -212.95 -82.6 -212.95 -82.6 -200.75 -92.05 -217.5 -102.85 -217.5 M -130.55 -213.85 Q -134.35 -209.85 -134.35 -204.1 -134.35 -198.5 -130.65 -194.4 -126.95 -190.25 -120.05 -190.25 -113.4 -190.25 -109.6 -194.25 -105.75 -198.3 -105.75 -204.1 -105.75 -209.85 -109.55 -213.9 -113.4 -217.9 -120.05 -217.9 -126.75 -217.9 -130.55 -213.85 M -127.15 -203.9 Q -127.15 -208.35 -125.05 -210.7 -123 -213 -120.05 -213 -116.9 -213 -114.95 -210.55 -112.95 -208.15 -112.95 -204.2 -112.95 -199.8 -115 -197.5 -117.1 -195.15 -120.05 -195.15 -123.05 -195.15 -125.1 -197.55 -127.15 -199.9 -127.15 -203.9 M -145.1 -212.95 L -153.5 -204.7 -145.7 -195.15 -148.7 -195.15 -148.7 -190.6 -134.9 -190.6 -134.9 -195.15 -137.6 -195.15 -146 -205.55 -138.75 -212.95 -135.6 -212.95 -135.6 -217.5 -148.15 -217.5 -148.15 -212.95 -145.1 -212.95 M -153.7 -212.95 L -150.45 -212.95 -150.45 -217.5 -163.85 -217.5 -163.85 -212.95 -160.4 -212.95 -160.4 -195.15 -163.85 -195.15 -163.85 -190.6 -150.7 -190.6 -150.7 -195.15 -153.7 -195.15 -153.7 -212.95 M 95 -217.5 L 95 -212.95 98.1 -212.95 98.1 -195.15 95 -195.15 95 -190.6 117.65 -190.6 117.65 -199.15 112.75 -199.15 112.75 -195.15 104.8 -195.15 104.8 -202.2 111.2 -202.2 111.2 -206.75 104.8 -206.75 104.8 -212.95 112.75 -212.95 112.75 -208.95 117.65 -208.95 117.65 -217.5 95 -217.5 M 73.7 -206.7 L 73.7 -212.95 77.55 -212.95 77.55 -195.15 73.7 -195.15 73.7 -190.6 88.1 -190.6 88.1 -195.15 84.25 -195.15 84.25 -212.95 88.2 -212.95 88.2 -206.7 92.55 -206.7 92.55 -217.5 69.25 -217.5 69.25 -206.7 73.7 -206.7 M 52.05 -199.75 L 58.75 -199.75 59.95 -195.15 56.65 -195.15 56.65 -190.6 69.3 -190.6 69.3 -195.15 66.25 -195.15 60.85 -212.95 64.3 -212.95 64.3 -217.5 47.55 -217.5 47.55 -212.95 50.95 -212.95 45.95 -195.15 42.75 -195.15 42.75 -190.6 54.15 -190.6 54.15 -195.15 50.7 -195.15 52.05 -199.75 M 55.55 -211.8 L 57.7 -203.7 53.25 -203.7 55.55 -211.8 M 4.65 -208.95 L 9.55 -208.95 9.55 -217.5 -13.1 -217.5 -13.1 -212.95 -10 -212.95 -10 -195.15 -13.1 -195.15 -13.1 -190.6 9.55 -190.6 9.55 -199.15 4.65 -199.15 4.65 -195.15 -3.3 -195.15 -3.3 -202.2 3.1 -202.2 3.1 -206.75 -3.3 -206.75 -3.3 -212.95 4.65 -212.95 4.65 -208.95 M 19.65 -216.3 Q 16.55 -214.65 14.7 -211.45 12.85 -208.25 12.85 -204.1 12.85 -198.1 16.55 -194.2 20.3 -190.25 27.25 -190.25 31.25 -190.25 34.5 -191.9 37.7 -193.55 39.4 -196.4 41.1 -199.3 41.1 -204.15 L 29.05 -204.15 29.05 -199.65 33.6 -199.65 Q 33 -197.5 31.45 -196.35 29.9 -195.15 27.6 -195.15 24.45 -195.15 22.25 -197.55 20.05 -199.95 20.05 -204.55 20.05 -208.6 22.2 -210.85 24.35 -213.15 27.4 -213.15 29.75 -213.15 31.8 -211.75 33.8 -210.35 34.5 -207.95 L 38.85 -207.95 38.85 -217.5 34.5 -217.5 34.5 -215.3 Q 31.6 -217.9 26.45 -217.9 22.8 -217.9 19.65 -216.3 Z" />
          <path fill="#CC0000" stroke="none" d=" M 119.5 73.55 L 119.5 -187.5 -164.65 -187.5 -164.65 73.55 119.5 73.55 Z" />
        </g>
        <path id="xfl1_Layer0_0_1_STROKES" stroke="#000000" stroke-width="1" stroke-linejoin="round" stroke-linecap="round" fill="none" d=" M 119.5 73.55 L 119.5 91.15 -164.65 91.15 -164.65 73.55 -164.65 -187.5 119.5 -187.5 119.5 73.55 Z" />
      </defs>
      <g transform="matrix( 1, 0, 0, 1, 0,0) ">
        <use xlink:href="#xfl1_Layer0_0_FILL" />
        <use xlink:href="#xfl1_Layer0_0_1_STROKES" />
      </g>
    </g>
    <g transform="matrix(3.0429534912 0 0 3.0429534912 -23.25 -51.4)">
      <g data-xfl-symbol="MovieClips/Symbol 30">
        <g data-svg-leaf="movieclips_symbol_30_93f239843f/t00_l000_f0000_r00.svg">
          <defs>
            <g id="xfl2_Layer0_0_FILL">
              <path fill="#FFFFFF" stroke="none" d=" M 2.75 -29.65 L 13.75 -29.65 -17 0.35 -17 -29.4 -6.75 -29.4 -6.75 -43.1 -44.5 -43.1 -44.5 -29.4 -37.75 -29.4 -37.75 30.6 -44.5 30.6 -44.5 43.15 -9.75 43.15 -9.75 29.6 -17.5 29.6 -17.5 15.85 -3.5 5.35 12.25 27.35 12.25 30.1 5 30.1 5 43.15 44.5 43.15 44.5 29.85 38.75 29.85 10 -4.9 38 -28.9 44.5 -28.9 44.5 -43.1 2.75 -43.1 2.75 -29.65 Z" />
            </g>
          </defs>
          <g transform="matrix( 1, 0, 0, 1, 0,0) ">
            <use xlink:href="#xfl2_Layer0_0_FILL" />
          </g>
        </g>
      </g>
    </g>
    <g transform="matrix(1.5424499512 -0.0475769043 -0.0114593506 1.5394592285 -11.55 10.35)">
      <g data-xfl-symbol="MovieClips/Symbol 46">
        <g transform="matrix(0.7415161133 0 0 0.9072570801 0 45.3)">
          <g data-xfl-symbol="MovieClips/Symbol 32">
            <g data-svg-leaf="movieclips_symbol_32_01b2af816f/t00_l000_f0000_r00.svg">
              <defs>
                <g id="xfl3_Layer0_0_FILL">
                  <path fill="#000000" stroke="none" d=" M 40.35 -37.6 L 13.05 -30 -13.95 -30 -38.05 -36.2 -52.7 -44 -88.45 -41 -162.45 -6 -162.45 44 162.5 44 120.05 3 91.05 -30 59.05 -37.6 40.35 -37.6 Z" />
                </g>
                <path id="xfl3_Layer0_0_1_STROKES" stroke="#000000" stroke-width="1" stroke-linejoin="round" stroke-linecap="round" fill="none" d=" M -88.45 -41 L -52.7 -44 -38.05 -36.2 -13.95 -30 13.05 -30 40.35 -37.6 59.05 -37.6 91.05 -30 120.05 3 162.5 44 -162.45 44 -162.45 -6 -88.45 -41 Z" />
              </defs>
              <g transform="matrix( 1, 0, 0, 1, 0,0) ">
                <use xlink:href="#xfl3_Layer0_0_FILL" />
                <use xlink:href="#xfl3_Layer0_0_1_STROKES" />
              </g>
            </g>
          </g>
        </g>
        <g transform="matrix(0.8197174072 0 0 0.8197174072 -26.45 -39.7)">
          <g data-xfl-symbol="MovieClips/Symbol 34">
            <g data-svg-leaf="movieclips_symbol_34_9baa3cb2f7/t00_l000_f0000_r00.svg">
              <defs>
                <g id="xfl4_Layer0_0_FILL">
                  <path fill="#000000" stroke="none" d=" M 21.45 -19.55 Q 12.6 -27.65 0 -27.65 -12.55 -27.65 -21.5 -19.55 -30.4 -11.4 -30.4 0 -30.4 11.4 -21.5 19.5 -12.55 27.6 0 27.6 12.6 27.6 21.45 19.5 30.4 11.4 30.4 0 30.4 -11.4 21.45 -19.55 Z" />
                </g>
                <path id="xfl4_Layer0_0_1_STROKES" stroke="#000000" stroke-width="1" stroke-linejoin="round" stroke-linecap="round" fill="none" d=" M 0 -27.65 Q 12.6 -27.65 21.45 -19.55 30.4 -11.4 30.4 0 30.4 11.4 21.45 19.5 12.6 27.6 0 27.6 -12.55 27.6 -21.5 19.5 -30.4 11.4 -30.4 0 -30.4 -11.4 -21.5 -19.55 -12.55 -27.65 0 -27.65 Z" />
              </defs>
              <g transform="matrix( 1, 0, 0, 1, 0,0) ">
                <use xlink:href="#xfl4_Layer0_0_FILL" />
                <use xlink:href="#xfl4_Layer0_0_1_STROKES" />
              </g>
            </g>
          </g>
        </g>
        <g transform="matrix(0.5772094727 0 0 0.5702819824 -14.6 -12.2)">
          <g data-xfl-symbol="MovieClips/Symbol 34">
            <g data-svg-leaf="movieclips_symbol_34_9baa3cb2f7/t00_l000_f0000_r00.svg">
              <defs>
                <g id="xfl5_Layer0_0_FILL">
                  <path fill="#000000" stroke="none" d=" M 21.45 -19.55 Q 12.6 -27.65 0 -27.65 -12.55 -27.65 -21.5 -19.55 -30.4 -11.4 -30.4 0 -30.4 11.4 -21.5 19.5 -12.55 27.6 0 27.6 12.6 27.6 21.45 19.5 30.4 11.4 30.4 0 30.4 -11.4 21.45 -19.55 Z" />
                </g>
                <path id="xfl5_Layer0_0_1_STROKES" stroke="#000000" stroke-width="1" stroke-linejoin="round" stroke-linecap="round" fill="none" d=" M 0 -27.65 Q 12.6 -27.65 21.45 -19.55 30.4 -11.4 30.4 0 30.4 11.4 21.45 19.5 12.6 27.6 0 27.6 -12.55 27.6 -21.5 19.5 -30.4 11.4 -30.4 0 -30.4 -11.4 -21.5 -19.55 -12.55 -27.65 0 -27.65 Z" />
              </defs>
              <g transform="matrix( 1, 0, 0, 1, 0,0) ">
                <use xlink:href="#xfl5_Layer0_0_FILL" />
                <use xlink:href="#xfl5_Layer0_0_1_STROKES" />
              </g>
            </g>
          </g>
        </g>
        <g transform="matrix(0.8668518066 0 0 0.6894073486 7.1 -2)">
          <g data-xfl-symbol="MovieClips/Symbol 34">
            <g data-svg-leaf="movieclips_symbol_34_9baa3cb2f7/t00_l000_f0000_r00.svg">
              <defs>
                <g id="xfl6_Layer0_0_FILL">
                  <path fill="#000000" stroke="none" d=" M 21.45 -19.55 Q 12.6 -27.65 0 -27.65 -12.55 -27.65 -21.5 -19.55 -30.4 -11.4 -30.4 0 -30.4 11.4 -21.5 19.5 -12.55 27.6 0 27.6 12.6 27.6 21.45 19.5 30.4 11.4 30.4 0 30.4 -11.4 21.45 -19.55 Z" />
                </g>
                <path id="xfl6_Layer0_0_1_STROKES" stroke="#000000" stroke-width="1" stroke-linejoin="round" stroke-linecap="round" fill="none" d=" M 0 -27.65 Q 12.6 -27.65 21.45 -19.55 30.4 -11.4 30.4 0 30.4 11.4 21.45 19.5 12.6 27.6 0 27.6 -12.55 27.6 -21.5 19.5 -30.4 11.4 -30.4 0 -30.4 -11.4 -21.5 -19.55 -12.55 -27.65 0 -27.65 Z" />
              </defs>
              <g transform="matrix( 1, 0, 0, 1, 0,0) ">
                <use xlink:href="#xfl6_Layer0_0_FILL" />
                <use xlink:href="#xfl6_Layer0_0_1_STROKES" />
              </g>
            </g>
          </g>
        </g>
        <g transform="matrix(0.8197174072 0 0 0.8197174072 -21.8 -69.35)">
          <g data-xfl-symbol="MovieClips/Symbol 36">
            <g data-svg-leaf="movieclips_symbol_36_f4660611ae/t00_l000_f0000_r00.svg">
              <defs>
                <g id="xfl7_Layer0_0_FILL">
                  <path fill="#000000" stroke="none" d=" M -9.6 -19 Q -2.4 -13.4 -0.6 -7.25 -1.2 -4.4 -3.35 -1 -0.65 0.2 1.15 3.5 0.8 6.2 -1.35 8 L 1.4 12.5 1.4 19 9.65 19.25 9.65 -5.75 Q 4.3 -21 -9.6 -19 Z" />
                </g>
                <path id="xfl7_Layer0_0_1_STROKES" stroke="#000000" stroke-width="1" stroke-linejoin="round" stroke-linecap="round" fill="none" d=" M 9.65 -5.75 Q 4.3 -21 -9.6 -19 -2.4 -13.4 -0.6 -7.25 -1.2 -4.4 -3.35 -1 -0.65 0.2 1.15 3.5 0.8 6.2 -1.35 8 L 1.4 12.5 1.4 19 9.65 19.25 9.65 -5.75 Z" />
              </defs>
              <g transform="matrix( 1, 0, 0, 1, 0,0) ">
                <use xlink:href="#xfl7_Layer0_0_FILL" />
                <use xlink:href="#xfl7_Layer0_0_1_STROKES" />
              </g>
            </g>
          </g>
        </g>
        <g transform="matrix(-0.7917785645 0.2121582031 0.2121582031 0.7917785645 -44.75 -65.65)">
          <g data-xfl-symbol="MovieClips/Symbol 36">
            <g data-svg-leaf="movieclips_symbol_36_f4660611ae/t00_l000_f0000_r00.svg">
              <defs>
                <g id="xfl8_Layer0_0_FILL">
                  <path fill="#000000" stroke="none" d=" M -9.6 -19 Q -2.4 -13.4 -0.6 -7.25 -1.2 -4.4 -3.35 -1 -0.65 0.2 1.15 3.5 0.8 6.2 -1.35 8 L 1.4 12.5 1.4 19 9.65 19.25 9.65 -5.75 Q 4.3 -21 -9.6 -19 Z" />
                </g>
                <path id="xfl8_Layer0_0_1_STROKES" stroke="#000000" stroke-width="1" stroke-linejoin="round" stroke-linecap="round" fill="none" d=" M 9.65 -5.75 Q 4.3 -21 -9.6 -19 -2.4 -13.4 -0.6 -7.25 -1.2 -4.4 -3.35 -1 -0.65 0.2 1.15 3.5 0.8 6.2 -1.35 8 L 1.4 12.5 1.4 19 9.65 19.25 9.65 -5.75 Z" />
              </defs>
              <g transform="matrix( 1, 0, 0, 1, 0,0) ">
                <use xlink:href="#xfl8_Layer0_0_FILL" />
                <use xlink:href="#xfl8_Layer0_0_1_STROKES" />
              </g>
            </g>
          </g>
        </g>
        <g transform="matrix(0.7224578857 0 0 0.8197174072 -62.05 0.35)">
          <g data-xfl-symbol="MovieClips/Symbol 38">
            <g data-svg-leaf="movieclips_symbol_38_499f986e2b/t00_l000_f0000_r00.svg">
              <defs>
                <g id="xfl9_Layer0_0_FILL">
                  <path fill="#000000" stroke="none" d=" M 14.75 -17.9 L 10.4 -19.6 Q 7.25 -2.2 -5.1 12.5 L -14.7 19.65 -11.7 19.65 -4.95 17.4 Q 9.85 4.7 14.75 -17.9 Z" />
                </g>
                <path id="xfl9_Layer0_0_1_STROKES" stroke="#000000" stroke-width="1" stroke-linejoin="round" stroke-linecap="round" fill="none" d=" M 14.75 -17.9 Q 9.85 4.7 -4.95 17.4 L -11.7 19.65 -14.7 19.65 -5.1 12.5 Q 7.25 -2.2 10.4 -19.6 L 14.75 -17.9 Z" />
              </defs>
              <g transform="matrix( 1, 0, 0, 1, 0,0) ">
                <use xlink:href="#xfl9_Layer0_0_FILL" />
                <use xlink:href="#xfl9_Layer0_0_1_STROKES" />
              </g>
            </g>
          </g>
        </g>
        <g transform="matrix(0.8126983643 -0.1042633057 0.1042480469 0.8126983643 -37.15 -10.9)">
          <g data-xfl-symbol="MovieClips/Symbol 40">
            <g data-svg-leaf="movieclips_symbol_40_11103afe31/t00_l000_f0000_r00.svg">
              <defs>
                <g id="xfl10_Layer0_0_FILL">
                  <path fill="#000000" stroke="none" d=" M -8.8 -8.4 Q -18.05 -12.4 -21.3 -8.4 L 18.95 10.45 21.3 6.75 -8.8 -8.4 Z" />
                </g>
                <path id="xfl10_Layer0_0_1_STROKES" stroke="#000000" stroke-width="1" stroke-linejoin="round" stroke-linecap="round" fill="none" d=" M 18.95 10.45 L -21.3 -8.4 Q -18.05 -12.4 -8.8 -8.4 L 21.3 6.75 18.95 10.45 Z" />
              </defs>
              <g transform="matrix( 1, 0, 0, 1, 0,0) ">
                <use xlink:href="#xfl10_Layer0_0_FILL" />
                <use xlink:href="#xfl10_Layer0_0_1_STROKES" />
              </g>
            </g>
          </g>
        </g>
        <g transform="matrix(-0.6256713867 0.3612365723 0.4098510742 0.7098846436 34.55 8)">
          <g data-xfl-symbol="MovieClips/Symbol 38">
            <g data-svg-leaf="movieclips_symbol_38_499f986e2b/t00_l000_f0000_r00.svg">
              <defs>
                <g id="xfl11_Layer0_0_FILL">
                  <path fill="#000000" stroke="none" d=" M 14.75 -17.9 L 10.4 -19.6 Q 7.25 -2.2 -5.1 12.5 L -14.7 19.65 -11.7 19.65 -4.95 17.4 Q 9.85 4.7 14.75 -17.9 Z" />
                </g>
                <path id="xfl11_Layer0_0_1_STROKES" stroke="#000000" stroke-width="1" stroke-linejoin="round" stroke-linecap="round" fill="none" d=" M 14.75 -17.9 Q 9.85 4.7 -4.95 17.4 L -11.7 19.65 -14.7 19.65 -5.1 12.5 Q 7.25 -2.2 10.4 -19.6 L 14.75 -17.9 Z" />
              </defs>
              <g transform="matrix( 1, 0, 0, 1, 0,0) ">
                <use xlink:href="#xfl11_Layer0_0_FILL" />
                <use xlink:href="#xfl11_Layer0_0_1_STROKES" />
              </g>
            </g>
          </g>
        </g>
        <g transform="matrix(0.6256713867 0.3612365723 -0.4098510742 0.7098846436 -62.9 10.15)">
          <g data-xfl-symbol="MovieClips/Symbol 38">
            <g data-svg-leaf="movieclips_symbol_38_499f986e2b/t00_l000_f0000_r00.svg">
              <defs>
                <g id="xfl12_Layer0_0_FILL">
                  <path fill="#000000" stroke="none" d=" M 14.75 -17.9 L 10.4 -19.6 Q 7.25 -2.2 -5.1 12.5 L -14.7 19.65 -11.7 19.65 -4.95 17.4 Q 9.85 4.7 14.75 -17.9 Z" />
                </g>
                <path id="xfl12_Layer0_0_1_STROKES" stroke="#000000" stroke-width="1" stroke-linejoin="round" stroke-linecap="round" fill="none" d=" M 14.75 -17.9 Q 9.85 4.7 -4.95 17.4 L -11.7 19.65 -14.7 19.65 -5.1 12.5 Q 7.25 -2.2 10.4 -19.6 L 14.75 -17.9 Z" />
              </defs>
              <g transform="matrix( 1, 0, 0, 1, 0,0) ">
                <use xlink:href="#xfl12_Layer0_0_FILL" />
                <use xlink:href="#xfl12_Layer0_0_1_STROKES" />
              </g>
            </g>
          </g>
        </g>
        <g transform="matrix(0.708694458 -0.4104919434 0.4104919434 0.708694458 -33.2 0.4)">
          <g data-xfl-symbol="MovieClips/Symbol 40">
            <g data-svg-leaf="movieclips_symbol_40_11103afe31/t00_l000_f0000_r00.svg">
              <defs>
                <g id="xfl13_Layer0_0_FILL">
                  <path fill="#000000" stroke="none" d=" M -8.8 -8.4 Q -18.05 -12.4 -21.3 -8.4 L 18.95 10.45 21.3 6.75 -8.8 -8.4 Z" />
                </g>
                <path id="xfl13_Layer0_0_1_STROKES" stroke="#000000" stroke-width="1" stroke-linejoin="round" stroke-linecap="round" fill="none" d=" M 18.95 10.45 L -21.3 -8.4 Q -18.05 -12.4 -8.8 -8.4 L 21.3 6.75 18.95 10.45 Z" />
              </defs>
              <g transform="matrix( 1, 0, 0, 1, 0,0) ">
                <use xlink:href="#xfl13_Layer0_0_FILL" />
                <use xlink:href="#xfl13_Layer0_0_1_STROKES" />
              </g>
            </g>
          </g>
        </g>
        <g transform="matrix(0.7224578857 0 0 0.8197174072 -25.45 8.95)">
          <g data-xfl-symbol="MovieClips/Symbol 38">
            <g data-svg-leaf="movieclips_symbol_38_499f986e2b/t00_l000_f0000_r00.svg">
              <defs>
                <g id="xfl14_Layer0_0_FILL">
                  <path fill="#000000" stroke="none" d=" M 14.75 -17.9 L 10.4 -19.6 Q 7.25 -2.2 -5.1 12.5 L -14.7 19.65 -11.7 19.65 -4.95 17.4 Q 9.85 4.7 14.75 -17.9 Z" />
                </g>
                <path id="xfl14_Layer0_0_1_STROKES" stroke="#000000" stroke-width="1" stroke-linejoin="round" stroke-linecap="round" fill="none" d=" M 14.75 -17.9 Q 9.85 4.7 -4.95 17.4 L -11.7 19.65 -14.7 19.65 -5.1 12.5 Q 7.25 -2.2 10.4 -19.6 L 14.75 -17.9 Z" />
              </defs>
              <g transform="matrix( 1, 0, 0, 1, 0,0) ">
                <use xlink:href="#xfl14_Layer0_0_FILL" />
                <use xlink:href="#xfl14_Layer0_0_1_STROKES" />
              </g>
            </g>
          </g>
        </g>
        <g transform="matrix(-0.697845459 0.18699646 0.2121582031 0.7917785645 10.85 11.3)">
          <g data-xfl-symbol="MovieClips/Symbol 38">
            <g data-svg-leaf="movieclips_symbol_38_499f986e2b/t00_l000_f0000_r00.svg">
              <defs>
                <g id="xfl15_Layer0_0_FILL">
                  <path fill="#000000" stroke="none" d=" M 14.75 -17.9 L 10.4 -19.6 Q 7.25 -2.2 -5.1 12.5 L -14.7 19.65 -11.7 19.65 -4.95 17.4 Q 9.85 4.7 14.75 -17.9 Z" />
                </g>
                <path id="xfl15_Layer0_0_1_STROKES" stroke="#000000" stroke-width="1" stroke-linejoin="round" stroke-linecap="round" fill="none" d=" M 14.75 -17.9 Q 9.85 4.7 -4.95 17.4 L -11.7 19.65 -14.7 19.65 -5.1 12.5 Q 7.25 -2.2 10.4 -19.6 L 14.75 -17.9 Z" />
              </defs>
              <g transform="matrix( 1, 0, 0, 1, 0,0) ">
                <use xlink:href="#xfl15_Layer0_0_FILL" />
                <use xlink:href="#xfl15_Layer0_0_1_STROKES" />
              </g>
            </g>
          </g>
        </g>
        <g transform="matrix(-0.7224731445 0.0000305176 0.0000152588 0.8197174072 23.3 5)">
          <g data-xfl-symbol="MovieClips/Symbol 38">
            <g data-svg-leaf="movieclips_symbol_38_499f986e2b/t00_l000_f0000_r00.svg">
              <defs>
                <g id="xfl16_Layer0_0_FILL">
                  <path fill="#000000" stroke="none" d=" M 14.75 -17.9 L 10.4 -19.6 Q 7.25 -2.2 -5.1 12.5 L -14.7 19.65 -11.7 19.65 -4.95 17.4 Q 9.85 4.7 14.75 -17.9 Z" />
                </g>
                <path id="xfl16_Layer0_0_1_STROKES" stroke="#000000" stroke-width="1" stroke-linejoin="round" stroke-linecap="round" fill="none" d=" M 14.75 -17.9 Q 9.85 4.7 -4.95 17.4 L -11.7 19.65 -14.7 19.65 -5.1 12.5 Q 7.25 -2.2 10.4 -19.6 L 14.75 -17.9 Z" />
              </defs>
              <g transform="matrix( 1, 0, 0, 1, 0,0) ">
                <use xlink:href="#xfl16_Layer0_0_FILL" />
                <use xlink:href="#xfl16_Layer0_0_1_STROKES" />
              </g>
            </g>
          </g>
        </g>
        <g transform="matrix(-0.6147613525 0.1647338867 0.2121582031 0.7917785645 20.05 -11.35)">
          <g data-xfl-symbol="MovieClips/Symbol 38">
            <g data-svg-leaf="movieclips_symbol_38_499f986e2b/t00_l000_f0000_r00.svg">
              <defs>
                <g id="xfl17_Layer0_0_FILL">
                  <path fill="#000000" stroke="none" d=" M 14.75 -17.9 L 10.4 -19.6 Q 7.25 -2.2 -5.1 12.5 L -14.7 19.65 -11.7 19.65 -4.95 17.4 Q 9.85 4.7 14.75 -17.9 Z" />
                </g>
                <path id="xfl17_Layer0_0_1_STROKES" stroke="#000000" stroke-width="1" stroke-linejoin="round" stroke-linecap="round" fill="none" d=" M 14.75 -17.9 Q 9.85 4.7 -4.95 17.4 L -11.7 19.65 -14.7 19.65 -5.1 12.5 Q 7.25 -2.2 10.4 -19.6 L 14.75 -17.9 Z" />
              </defs>
              <g transform="matrix( 1, 0, 0, 1, 0,0) ">
                <use xlink:href="#xfl17_Layer0_0_FILL" />
                <use xlink:href="#xfl17_Layer0_0_1_STROKES" />
              </g>
            </g>
          </g>
        </g>
        <g transform="matrix(-0.8119812012 0.1096496582 0.1096496582 0.8119812012 -6.5 -15.8)">
          <g data-xfl-symbol="MovieClips/Symbol 40">
            <g data-svg-leaf="movieclips_symbol_40_11103afe31/t00_l000_f0000_r00.svg">
              <defs>
                <g id="xfl18_Layer0_0_FILL">
                  <path fill="#000000" stroke="none" d=" M -8.8 -8.4 Q -18.05 -12.4 -21.3 -8.4 L 18.95 10.45 21.3 6.75 -8.8 -8.4 Z" />
                </g>
                <path id="xfl18_Layer0_0_1_STROKES" stroke="#000000" stroke-width="1" stroke-linejoin="round" stroke-linecap="round" fill="none" d=" M 18.95 10.45 L -21.3 -8.4 Q -18.05 -12.4 -8.8 -8.4 L 21.3 6.75 18.95 10.45 Z" />
              </defs>
              <g transform="matrix( 1, 0, 0, 1, 0,0) ">
                <use xlink:href="#xfl18_Layer0_0_FILL" />
                <use xlink:href="#xfl18_Layer0_0_1_STROKES" />
              </g>
            </g>
          </g>
        </g>
      </g>
    </g>
    <g transform="matrix(0.2965698242 -0.3154449463 0.3030700684 0.3076171875 -138.65 25.7)">
      <g data-xfl-symbol="MovieClips/Symbol 34">
        <g data-svg-leaf="movieclips_symbol_34_9baa3cb2f7/t00_l000_f0000_r00.svg">
          <defs>
            <g id="xfl19_Layer0_0_FILL">
              <path fill="#000000" stroke="none" d=" M 21.45 -19.55 Q 12.6 -27.65 0 -27.65 -12.55 -27.65 -21.5 -19.55 -30.4 -11.4 -30.4 0 -30.4 11.4 -21.5 19.5 -12.55 27.6 0 27.6 12.6 27.6 21.45 19.5 30.4 11.4 30.4 0 30.4 -11.4 21.45 -19.55 Z" />
            </g>
            <path id="xfl19_Layer0_0_1_STROKES" stroke="#000000" stroke-width="1" stroke-linejoin="round" stroke-linecap="round" fill="none" d=" M 0 -27.65 Q 12.6 -27.65 21.45 -19.55 30.4 -11.4 30.4 0 30.4 11.4 21.45 19.5 12.6 27.6 0 27.6 -12.55 27.6 -21.5 19.5 -30.4 11.4 -30.4 0 -30.4 -11.4 -21.5 -19.55 -12.55 -27.65 0 -27.65 Z" />
          </defs>
          <g transform="matrix( 1, 0, 0, 1, 0,0) ">
            <use xlink:href="#xfl19_Layer0_0_FILL" />
            <use xlink:href="#xfl19_Layer0_0_1_STROKES" />
          </g>
        </g>
      </g>
    </g>
    <g transform="matrix(0.2919158936 -0.0879516602 0.075592041 0.2907562256 -129.6 30.95)">
      <g data-xfl-symbol="MovieClips/Symbol 34">
        <g data-svg-leaf="movieclips_symbol_34_9baa3cb2f7/t00_l000_f0000_r00.svg">
          <defs>
            <g id="xfl20_Layer0_0_FILL">
              <path fill="#000000" stroke="none" d=" M 21.45 -19.55 Q 12.6 -27.65 0 -27.65 -12.55 -27.65 -21.5 -19.55 -30.4 -11.4 -30.4 0 -30.4 11.4 -21.5 19.5 -12.55 27.6 0 27.6 12.6 27.6 21.45 19.5 30.4 11.4 30.4 0 30.4 -11.4 21.45 -19.55 Z" />
            </g>
            <path id="xfl20_Layer0_0_1_STROKES" stroke="#000000" stroke-width="1" stroke-linejoin="round" stroke-linecap="round" fill="none" d=" M 0 -27.65 Q 12.6 -27.65 21.45 -19.55 30.4 -11.4 30.4 0 30.4 11.4 21.45 19.5 12.6 27.6 0 27.6 -12.55 27.6 -21.5 19.5 -30.4 11.4 -30.4 0 -30.4 -11.4 -21.5 -19.55 -12.55 -27.65 0 -27.65 Z" />
          </defs>
          <g transform="matrix( 1, 0, 0, 1, 0,0) ">
            <use xlink:href="#xfl20_Layer0_0_FILL" />
            <use xlink:href="#xfl20_Layer0_0_1_STROKES" />
          </g>
        </g>
      </g>
    </g>
    <g transform="matrix(0.4088897705 -0.1231842041 0.0913848877 0.3515014648 -122.55 34.6)">
      <g data-xfl-symbol="MovieClips/Symbol 34">
        <g data-svg-leaf="movieclips_symbol_34_9baa3cb2f7/t00_l000_f0000_r00.svg">
          <defs>
            <g id="xfl21_Layer0_0_FILL">
              <path fill="#000000" stroke="none" d=" M 21.45 -19.55 Q 12.6 -27.65 0 -27.65 -12.55 -27.65 -21.5 -19.55 -30.4 -11.4 -30.4 0 -30.4 11.4 -21.5 19.5 -12.55 27.6 0 27.6 12.6 27.6 21.45 19.5 30.4 11.4 30.4 0 30.4 -11.4 21.45 -19.55 Z" />
            </g>
            <path id="xfl21_Layer0_0_1_STROKES" stroke="#000000" stroke-width="1" stroke-linejoin="round" stroke-linecap="round" fill="none" d=" M 0 -27.65 Q 12.6 -27.65 21.45 -19.55 30.4 -11.4 30.4 0 30.4 11.4 21.45 19.5 12.6 27.6 0 27.6 -12.55 27.6 -21.5 19.5 -30.4 11.4 -30.4 0 -30.4 -11.4 -21.5 -19.55 -12.55 -27.65 0 -27.65 Z" />
          </defs>
          <g transform="matrix( 1, 0, 0, 1, 0,0) ">
            <use xlink:href="#xfl21_Layer0_0_FILL" />
            <use xlink:href="#xfl21_Layer0_0_1_STROKES" />
          </g>
        </g>
      </g>
    </g>
    <g transform="matrix(0.421081543 -0.1005249023 -0.1027374268 -0.3710174561 -134.75 35.1)">
      <g data-xfl-symbol="MovieClips/Symbol 36">
        <g data-svg-leaf="movieclips_symbol_36_f4660611ae/t00_l000_f0000_r00.svg">
          <defs>
            <g id="xfl22_Layer0_0_FILL">
              <path fill="#000000" stroke="none" d=" M -9.6 -19 Q -2.4 -13.4 -0.6 -7.25 -1.2 -4.4 -3.35 -1 -0.65 0.2 1.15 3.5 0.8 6.2 -1.35 8 L 1.4 12.5 1.4 19 9.65 19.25 9.65 -5.75 Q 4.3 -21 -9.6 -19 Z" />
            </g>
            <path id="xfl22_Layer0_0_1_STROKES" stroke="#000000" stroke-width="1" stroke-linejoin="round" stroke-linecap="round" fill="none" d=" M 9.65 -5.75 Q 4.3 -21 -9.6 -19 -2.4 -13.4 -0.6 -7.25 -1.2 -4.4 -3.35 -1 -0.65 0.2 1.15 3.5 0.8 6.2 -1.35 8 L 1.4 12.5 1.4 19 9.65 19.25 9.65 -5.75 Z" />
          </defs>
          <g transform="matrix( 1, 0, 0, 1, 0,0) ">
            <use xlink:href="#xfl22_Layer0_0_FILL" />
            <use xlink:href="#xfl22_Layer0_0_1_STROKES" />
          </g>
        </g>
      </g>
    </g>
    <g transform="matrix(-0.4333343506 0.0010681152 0.0097503662 -0.3843688965 -145 35.45)">
      <g data-xfl-symbol="MovieClips/Symbol 36">
        <g data-svg-leaf="movieclips_symbol_36_f4660611ae/t00_l000_f0000_r00.svg">
          <defs>
            <g id="xfl23_Layer0_0_FILL">
              <path fill="#000000" stroke="none" d=" M -9.6 -19 Q -2.4 -13.4 -0.6 -7.25 -1.2 -4.4 -3.35 -1 -0.65 0.2 1.15 3.5 0.8 6.2 -1.35 8 L 1.4 12.5 1.4 19 9.65 19.25 9.65 -5.75 Q 4.3 -21 -9.6 -19 Z" />
            </g>
            <path id="xfl23_Layer0_0_1_STROKES" stroke="#000000" stroke-width="1" stroke-linejoin="round" stroke-linecap="round" fill="none" d=" M 9.65 -5.75 Q 4.3 -21 -9.6 -19 -2.4 -13.4 -0.6 -7.25 -1.2 -4.4 -3.35 -1 -0.65 0.2 1.15 3.5 0.8 6.2 -1.35 8 L 1.4 12.5 1.4 19 9.65 19.25 9.65 -5.75 Z" />
          </defs>
          <g transform="matrix( 1, 0, 0, 1, 0,0) ">
            <use xlink:href="#xfl23_Layer0_0_FILL" />
            <use xlink:href="#xfl23_Layer0_0_1_STROKES" />
          </g>
        </g>
      </g>
    </g>
    <g transform="matrix(0.4316864014 -0.1156921387 0.1312408447 0.4897918701 -155.5 43.35)">
      <g data-xfl-symbol="MovieClips/Symbol 38">
        <g data-svg-leaf="movieclips_symbol_38_499f986e2b/t00_l000_f0000_r00.svg">
          <defs>
            <g id="xfl24_Layer0_0_FILL">
              <path fill="#000000" stroke="none" d=" M 14.75 -17.9 L 10.4 -19.6 Q 7.25 -2.2 -5.1 12.5 L -14.7 19.65 -11.7 19.65 -4.95 17.4 Q 9.85 4.7 14.75 -17.9 Z" />
            </g>
            <path id="xfl24_Layer0_0_1_STROKES" stroke="#000000" stroke-width="1" stroke-linejoin="round" stroke-linecap="round" fill="none" d=" M 14.75 -17.9 Q 9.85 4.7 -4.95 17.4 L -11.7 19.65 -14.7 19.65 -5.1 12.5 Q 7.25 -2.2 10.4 -19.6 L 14.75 -17.9 Z" />
          </defs>
          <g transform="matrix( 1, 0, 0, 1, 0,0) ">
            <use xlink:href="#xfl24_Layer0_0_FILL" />
            <use xlink:href="#xfl24_Layer0_0_1_STROKES" />
          </g>
        </g>
      </g>
    </g>
    <g transform="matrix(0.5027160645 -0.0644989014 0.0644989014 0.5027160645 -142.5 35.85)">
      <g data-xfl-symbol="MovieClips/Symbol 40">
        <g data-svg-leaf="movieclips_symbol_40_11103afe31/t00_l000_f0000_r00.svg">
          <defs>
            <g id="xfl25_Layer0_0_FILL">
              <path fill="#000000" stroke="none" d=" M -8.8 -8.4 Q -18.05 -12.4 -21.3 -8.4 L 18.95 10.45 21.3 6.75 -8.8 -8.4 Z" />
            </g>
            <path id="xfl25_Layer0_0_1_STROKES" stroke="#000000" stroke-width="1" stroke-linejoin="round" stroke-linecap="round" fill="none" d=" M 18.95 10.45 L -21.3 -8.4 Q -18.05 -12.4 -8.8 -8.4 L 21.3 6.75 18.95 10.45 Z" />
          </defs>
          <g transform="matrix( 1, 0, 0, 1, 0,0) ">
            <use xlink:href="#xfl25_Layer0_0_FILL" />
            <use xlink:href="#xfl25_Layer0_0_1_STROKES" />
          </g>
        </g>
      </g>
    </g>
    <g transform="matrix(-0.2991333008 0.2234344482 0.1959533691 0.4391326904 -107.95 25.45)">
      <g data-xfl-symbol="MovieClips/Symbol 38">
        <g data-svg-leaf="movieclips_symbol_38_499f986e2b/t00_l000_f0000_r00.svg">
          <defs>
            <g id="xfl26_Layer0_0_FILL">
              <path fill="#000000" stroke="none" d=" M 14.75 -17.9 L 10.4 -19.6 Q 7.25 -2.2 -5.1 12.5 L -14.7 19.65 -11.7 19.65 -4.95 17.4 Q 9.85 4.7 14.75 -17.9 Z" />
            </g>
            <path id="xfl26_Layer0_0_1_STROKES" stroke="#000000" stroke-width="1" stroke-linejoin="round" stroke-linecap="round" fill="none" d=" M 14.75 -17.9 Q 9.85 4.7 -4.95 17.4 L -11.7 19.65 -14.7 19.65 -5.1 12.5 Q 7.25 -2.2 10.4 -19.6 L 14.75 -17.9 Z" />
          </defs>
          <g transform="matrix( 1, 0, 0, 1, 0,0) ">
            <use xlink:href="#xfl26_Layer0_0_FILL" />
            <use xlink:href="#xfl26_Layer0_0_1_STROKES" />
          </g>
        </g>
      </g>
    </g>
    <g transform="matrix(-0.3997192383 0.0953216553 0.0249328613 0.490814209 -122.8 25.25)">
      <g data-xfl-symbol="MovieClips/Symbol 40">
        <g data-svg-leaf="movieclips_symbol_40_11103afe31/t00_l000_f0000_r00.svg">
          <defs>
            <g id="xfl27_Layer0_0_FILL">
              <path fill="#000000" stroke="none" d=" M -8.8 -8.4 Q -18.05 -12.4 -21.3 -8.4 L 18.95 10.45 21.3 6.75 -8.8 -8.4 Z" />
            </g>
            <path id="xfl27_Layer0_0_1_STROKES" stroke="#000000" stroke-width="1" stroke-linejoin="round" stroke-linecap="round" fill="none" d=" M 18.95 10.45 L -21.3 -8.4 Q -18.05 -12.4 -8.8 -8.4 L 21.3 6.75 18.95 10.45 Z" />
          </defs>
          <g transform="matrix( 1, 0, 0, 1, 0,0) ">
            <use xlink:href="#xfl27_Layer0_0_FILL" />
            <use xlink:href="#xfl27_Layer0_0_1_STROKES" />
          </g>
        </g>
      </g>
    </g>
    <g transform="matrix(0.1837005615 -0.0492248535 0.0632781982 0.2360839844 -153.7 14.7)">
      <g data-xfl-symbol="MovieClips/Symbol 38">
        <g data-svg-leaf="movieclips_symbol_38_499f986e2b/t00_l000_f0000_r00.svg">
          <defs>
            <g id="xfl28_Layer0_0_FILL">
              <path fill="#000000" stroke="none" d=" M 14.75 -17.9 L 10.4 -19.6 Q 7.25 -2.2 -5.1 12.5 L -14.7 19.65 -11.7 19.65 -4.95 17.4 Q 9.85 4.7 14.75 -17.9 Z" />
            </g>
            <path id="xfl28_Layer0_0_1_STROKES" stroke="#000000" stroke-width="1" stroke-linejoin="round" stroke-linecap="round" fill="none" d=" M 14.75 -17.9 Q 9.85 4.7 -4.95 17.4 L -11.7 19.65 -14.7 19.65 -5.1 12.5 Q 7.25 -2.2 10.4 -19.6 L 14.75 -17.9 Z" />
          </defs>
          <g transform="matrix( 1, 0, 0, 1, 0,0) ">
            <use xlink:href="#xfl28_Layer0_0_FILL" />
            <use xlink:href="#xfl28_Layer0_0_1_STROKES" />
          </g>
        </g>
      </g>
    </g>
    <g transform="matrix(0.2035522461 0.1000976562 -0.077331543 0.2208709717 -149 13.65)">
      <g data-xfl-symbol="MovieClips/Symbol 40">
        <g data-svg-leaf="movieclips_symbol_40_11103afe31/t00_l000_f0000_r00.svg">
          <defs>
            <g id="xfl29_Layer0_0_FILL">
              <path fill="#000000" stroke="none" d=" M -8.8 -8.4 Q -18.05 -12.4 -21.3 -8.4 L 18.95 10.45 21.3 6.75 -8.8 -8.4 Z" />
            </g>
            <path id="xfl29_Layer0_0_1_STROKES" stroke="#000000" stroke-width="1" stroke-linejoin="round" stroke-linecap="round" fill="none" d=" M 18.95 10.45 L -21.3 -8.4 Q -18.05 -12.4 -8.8 -8.4 L 21.3 6.75 18.95 10.45 Z" />
          </defs>
          <g transform="matrix( 1, 0, 0, 1, 0,0) ">
            <use xlink:href="#xfl29_Layer0_0_FILL" />
            <use xlink:href="#xfl29_Layer0_0_1_STROKES" />
          </g>
        </g>
      </g>
    </g>
    <g transform="matrix(0.1837158203 0.0492401123 -0.0632171631 0.2360839844 -146.9 9.35)">
      <g data-xfl-symbol="MovieClips/Symbol 38">
        <g data-svg-leaf="movieclips_symbol_38_499f986e2b/t00_l000_f0000_r00.svg">
          <defs>
            <g id="xfl30_Layer0_0_FILL">
              <path fill="#000000" stroke="none" d=" M 14.75 -17.9 L 10.4 -19.6 Q 7.25 -2.2 -5.1 12.5 L -14.7 19.65 -11.7 19.65 -4.95 17.4 Q 9.85 4.7 14.75 -17.9 Z" />
            </g>
            <path id="xfl30_Layer0_0_1_STROKES" stroke="#000000" stroke-width="1" stroke-linejoin="round" stroke-linecap="round" fill="none" d=" M 14.75 -17.9 Q 9.85 4.7 -4.95 17.4 L -11.7 19.65 -14.7 19.65 -5.1 12.5 Q 7.25 -2.2 10.4 -19.6 L 14.75 -17.9 Z" />
          </defs>
          <g transform="matrix( 1, 0, 0, 1, 0,0) ">
            <use xlink:href="#xfl30_Layer0_0_FILL" />
            <use xlink:href="#xfl30_Layer0_0_1_STROKES" />
          </g>
        </g>
      </g>
    </g>
    <g transform="matrix(0.2035522461 0.1000976562 -0.077331543 0.2208862305 -139.8 9.9)">
      <g data-xfl-symbol="MovieClips/Symbol 40">
        <g data-svg-leaf="movieclips_symbol_40_11103afe31/t00_l000_f0000_r00.svg">
          <defs>
            <g id="xfl31_Layer0_0_FILL">
              <path fill="#000000" stroke="none" d=" M -8.8 -8.4 Q -18.05 -12.4 -21.3 -8.4 L 18.95 10.45 21.3 6.75 -8.8 -8.4 Z" />
            </g>
            <path id="xfl31_Layer0_0_1_STROKES" stroke="#000000" stroke-width="1" stroke-linejoin="round" stroke-linecap="round" fill="none" d=" M 18.95 10.45 L -21.3 -8.4 Q -18.05 -12.4 -8.8 -8.4 L 21.3 6.75 18.95 10.45 Z" />
          </defs>
          <g transform="matrix( 1, 0, 0, 1, 0,0) ">
            <use xlink:href="#xfl31_Layer0_0_FILL" />
            <use xlink:href="#xfl31_Layer0_0_1_STROKES" />
          </g>
        </g>
      </g>
    </g>
    <g transform="matrix(-0.2738342285 0.0643920898 0.0847015381 0.3068695068 -108.3 26.85)">
      <g data-xfl-symbol="MovieClips/Symbol 38">
        <g data-svg-leaf="movieclips_symbol_38_499f986e2b/t00_l000_f0000_r00.svg">
          <defs>
            <g id="xfl32_Layer0_0_FILL">
              <path fill="#000000" stroke="none" d=" M 14.75 -17.9 L 10.4 -19.6 Q 7.25 -2.2 -5.1 12.5 L -14.7 19.65 -11.7 19.65 -4.95 17.4 Q 9.85 4.7 14.75 -17.9 Z" />
            </g>
            <path id="xfl32_Layer0_0_1_STROKES" stroke="#000000" stroke-width="1" stroke-linejoin="round" stroke-linecap="round" fill="none" d=" M 14.75 -17.9 Q 9.85 4.7 -4.95 17.4 L -11.7 19.65 -14.7 19.65 -5.1 12.5 Q 7.25 -2.2 10.4 -19.6 L 14.75 -17.9 Z" />
          </defs>
          <g transform="matrix( 1, 0, 0, 1, 0,0) ">
            <use xlink:href="#xfl32_Layer0_0_FILL" />
            <use xlink:href="#xfl32_Layer0_0_1_STROKES" />
          </g>
        </g>
      </g>
    </g>
    <g transform="matrix(-0.2992858887 0.1147918701 0.1240844727 0.2913513184 -117.9 26.45)">
      <g data-xfl-symbol="MovieClips/Symbol 40">
        <g data-svg-leaf="movieclips_symbol_40_11103afe31/t00_l000_f0000_r00.svg">
          <defs>
            <g id="xfl33_Layer0_0_FILL">
              <path fill="#000000" stroke="none" d=" M -8.8 -8.4 Q -18.05 -12.4 -21.3 -8.4 L 18.95 10.45 21.3 6.75 -8.8 -8.4 Z" />
            </g>
            <path id="xfl33_Layer0_0_1_STROKES" stroke="#000000" stroke-width="1" stroke-linejoin="round" stroke-linecap="round" fill="none" d=" M 18.95 10.45 L -21.3 -8.4 Q -18.05 -12.4 -8.8 -8.4 L 21.3 6.75 18.95 10.45 Z" />
          </defs>
          <g transform="matrix( 1, 0, 0, 1, 0,0) ">
            <use xlink:href="#xfl33_Layer0_0_FILL" />
            <use xlink:href="#xfl33_Layer0_0_1_STROKES" />
          </g>
        </g>
      </g>
    </g>
    <g transform="matrix(-0.4501495361 -0.3530273438 -0.249786377 0.4554443359 66.25 9.4)">
      <g data-xfl-symbol="MovieClips/Symbol 34">
        <g data-svg-leaf="movieclips_symbol_34_9baa3cb2f7/t00_l000_f0000_r00.svg">
          <defs>
            <g id="xfl34_Layer0_0_FILL">
              <path fill="#000000" stroke="none" d=" M 21.45 -19.55 Q 12.6 -27.65 0 -27.65 -12.55 -27.65 -21.5 -19.55 -30.4 -11.4 -30.4 0 -30.4 11.4 -21.5 19.5 -12.55 27.6 0 27.6 12.6 27.6 21.45 19.5 30.4 11.4 30.4 0 30.4 -11.4 21.45 -19.55 Z" />
            </g>
            <path id="xfl34_Layer0_0_1_STROKES" stroke="#000000" stroke-width="1" stroke-linejoin="round" stroke-linecap="round" fill="none" d=" M 0 -27.65 Q 12.6 -27.65 21.45 -19.55 30.4 -11.4 30.4 0 30.4 11.4 21.45 19.5 12.6 27.6 0 27.6 -12.55 27.6 -21.5 19.5 -30.4 11.4 -30.4 0 -30.4 -11.4 -21.5 -19.55 -12.55 -27.65 0 -27.65 Z" />
          </defs>
          <g transform="matrix( 1, 0, 0, 1, 0,0) ">
            <use xlink:href="#xfl34_Layer0_0_FILL" />
            <use xlink:href="#xfl34_Layer0_0_1_STROKES" />
          </g>
        </g>
      </g>
    </g>
    <g transform="matrix(-0.3688201904 -0.0591583252 0.0091247559 0.390914917 57.45 17.95)">
      <g data-xfl-symbol="MovieClips/Symbol 34">
        <g data-svg-leaf="movieclips_symbol_34_9baa3cb2f7/t00_l000_f0000_r00.svg">
          <defs>
            <g id="xfl35_Layer0_0_FILL">
              <path fill="#000000" stroke="none" d=" M 21.45 -19.55 Q 12.6 -27.65 0 -27.65 -12.55 -27.65 -21.5 -19.55 -30.4 -11.4 -30.4 0 -30.4 11.4 -21.5 19.5 -12.55 27.6 0 27.6 12.6 27.6 21.45 19.5 30.4 11.4 30.4 0 30.4 -11.4 21.45 -19.55 Z" />
            </g>
            <path id="xfl35_Layer0_0_1_STROKES" stroke="#000000" stroke-width="1" stroke-linejoin="round" stroke-linecap="round" fill="none" d=" M 0 -27.65 Q 12.6 -27.65 21.45 -19.55 30.4 -11.4 30.4 0 30.4 11.4 21.45 19.5 12.6 27.6 0 27.6 -12.55 27.6 -21.5 19.5 -30.4 11.4 -30.4 0 -30.4 -11.4 -21.5 -19.55 -12.55 -27.65 0 -27.65 Z" />
          </defs>
          <g transform="matrix( 1, 0, 0, 1, 0,0) ">
            <use xlink:href="#xfl35_Layer0_0_FILL" />
            <use xlink:href="#xfl35_Layer0_0_1_STROKES" />
          </g>
        </g>
      </g>
    </g>
    <g transform="matrix(-0.5166015625 -0.0828399658 0.0110473633 0.4725646973 50.55 24)">
      <g data-xfl-symbol="MovieClips/Symbol 34">
        <g data-svg-leaf="movieclips_symbol_34_9baa3cb2f7/t00_l000_f0000_r00.svg">
          <defs>
            <g id="xfl36_Layer0_0_FILL">
              <path fill="#000000" stroke="none" d=" M 21.45 -19.55 Q 12.6 -27.65 0 -27.65 -12.55 -27.65 -21.5 -19.55 -30.4 -11.4 -30.4 0 -30.4 11.4 -21.5 19.5 -12.55 27.6 0 27.6 12.6 27.6 21.45 19.5 30.4 11.4 30.4 0 30.4 -11.4 21.45 -19.55 Z" />
            </g>
            <path id="xfl36_Layer0_0_1_STROKES" stroke="#000000" stroke-width="1" stroke-linejoin="round" stroke-linecap="round" fill="none" d=" M 0 -27.65 Q 12.6 -27.65 21.45 -19.55 30.4 -11.4 30.4 0 30.4 11.4 21.45 19.5 12.6 27.6 0 27.6 -12.55 27.6 -21.5 19.5 -30.4 11.4 -30.4 0 -30.4 -11.4 -21.5 -19.55 -12.55 -27.65 0 -27.65 Z" />
          </defs>
          <g transform="matrix( 1, 0, 0, 1, 0,0) ">
            <use xlink:href="#xfl36_Layer0_0_FILL" />
            <use xlink:href="#xfl36_Layer0_0_1_STROKES" />
          </g>
        </g>
      </g>
    </g>
    <g transform="matrix(-0.523223877 -0.0511779785 -0.0043640137 -0.4999694824 64.85 22.35)">
      <g data-xfl-symbol="MovieClips/Symbol 36">
        <g data-svg-leaf="movieclips_symbol_36_f4660611ae/t00_l000_f0000_r00.svg">
          <defs>
            <g id="xfl37_Layer0_0_FILL">
              <path fill="#000000" stroke="none" d=" M -9.6 -19 Q -2.4 -13.4 -0.6 -7.25 -1.2 -4.4 -3.35 -1 -0.65 0.2 1.15 3.5 0.8 6.2 -1.35 8 L 1.4 12.5 1.4 19 9.65 19.25 9.65 -5.75 Q 4.3 -21 -9.6 -19 Z" />
            </g>
            <path id="xfl37_Layer0_0_1_STROKES" stroke="#000000" stroke-width="1" stroke-linejoin="round" stroke-linecap="round" fill="none" d=" M 9.65 -5.75 Q 4.3 -21 -9.6 -19 -2.4 -13.4 -0.6 -7.25 -1.2 -4.4 -3.35 -1 -0.65 0.2 1.15 3.5 0.8 6.2 -1.35 8 L 1.4 12.5 1.4 19 9.65 19.25 9.65 -5.75 Z" />
          </defs>
          <g transform="matrix( 1, 0, 0, 1, 0,0) ">
            <use xlink:href="#xfl37_Layer0_0_FILL" />
            <use xlink:href="#xfl37_Layer0_0_1_STROKES" />
          </g>
        </g>
      </g>
    </g>
    <g transform="matrix(0.5042724609 -0.0799713135 -0.1396179199 -0.4961700439 76.9 20.85)">
      <g data-xfl-symbol="MovieClips/Symbol 36">
        <g data-svg-leaf="movieclips_symbol_36_f4660611ae/t00_l000_f0000_r00.svg">
          <defs>
            <g id="xfl38_Layer0_0_FILL">
              <path fill="#000000" stroke="none" d=" M -9.6 -19 Q -2.4 -13.4 -0.6 -7.25 -1.2 -4.4 -3.35 -1 -0.65 0.2 1.15 3.5 0.8 6.2 -1.35 8 L 1.4 12.5 1.4 19 9.65 19.25 9.65 -5.75 Q 4.3 -21 -9.6 -19 Z" />
            </g>
            <path id="xfl38_Layer0_0_1_STROKES" stroke="#000000" stroke-width="1" stroke-linejoin="round" stroke-linecap="round" fill="none" d=" M 9.65 -5.75 Q 4.3 -21 -9.6 -19 -2.4 -13.4 -0.6 -7.25 -1.2 -4.4 -3.35 -1 -0.65 0.2 1.15 3.5 0.8 6.2 -1.35 8 L 1.4 12.5 1.4 19 9.65 19.25 9.65 -5.75 Z" />
          </defs>
          <g transform="matrix( 1, 0, 0, 1, 0,0) ">
            <use xlink:href="#xfl38_Layer0_0_FILL" />
            <use xlink:href="#xfl38_Layer0_0_1_STROKES" />
          </g>
        </g>
      </g>
    </g>
    <g transform="matrix(-0.5406036377 -0.0688476562 0.010848999 0.6592254639 91.7 29.2)">
      <g data-xfl-symbol="MovieClips/Symbol 38">
        <g data-svg-leaf="movieclips_symbol_38_499f986e2b/t00_l000_f0000_r00.svg">
          <defs>
            <g id="xfl39_Layer0_0_FILL">
              <path fill="#000000" stroke="none" d=" M 14.75 -17.9 L 10.4 -19.6 Q 7.25 -2.2 -5.1 12.5 L -14.7 19.65 -11.7 19.65 -4.95 17.4 Q 9.85 4.7 14.75 -17.9 Z" />
            </g>
            <path id="xfl39_Layer0_0_1_STROKES" stroke="#000000" stroke-width="1" stroke-linejoin="round" stroke-linecap="round" fill="none" d=" M 14.75 -17.9 Q 9.85 4.7 -4.95 17.4 L -11.7 19.65 -14.7 19.65 -5.1 12.5 Q 7.25 -2.2 10.4 -19.6 L 14.75 -17.9 Z" />
          </defs>
          <g transform="matrix( 1, 0, 0, 1, 0,0) ">
            <use xlink:href="#xfl39_Layer0_0_FILL" />
            <use xlink:href="#xfl39_Layer0_0_1_STROKES" />
          </g>
        </g>
      </g>
    </g>
    <g transform="matrix(-0.6061553955 0.0108032227 0.0927734375 0.6634521484 74.15 21.9)">
      <g data-xfl-symbol="MovieClips/Symbol 40">
        <g data-svg-leaf="movieclips_symbol_40_11103afe31/t00_l000_f0000_r00.svg">
          <defs>
            <g id="xfl40_Layer0_0_FILL">
              <path fill="#000000" stroke="none" d=" M -8.8 -8.4 Q -18.05 -12.4 -21.3 -8.4 L 18.95 10.45 21.3 6.75 -8.8 -8.4 Z" />
            </g>
            <path id="xfl40_Layer0_0_1_STROKES" stroke="#000000" stroke-width="1" stroke-linejoin="round" stroke-linecap="round" fill="none" d=" M 18.95 10.45 L -21.3 -8.4 Q -18.05 -12.4 -8.8 -8.4 L 21.3 6.75 18.95 10.45 Z" />
          </defs>
          <g transform="matrix( 1, 0, 0, 1, 0,0) ">
            <use xlink:href="#xfl40_Layer0_0_FILL" />
            <use xlink:href="#xfl40_Layer0_0_1_STROKES" />
          </g>
        </g>
      </g>
    </g>
    <g transform="matrix(0.4224395752 0.2333374023 -0.0813140869 0.6057434082 30.45 14.9)">
      <g data-xfl-symbol="MovieClips/Symbol 38">
        <g data-svg-leaf="movieclips_symbol_38_499f986e2b/t00_l000_f0000_r00.svg">
          <defs>
            <g id="xfl41_Layer0_0_FILL">
              <path fill="#000000" stroke="none" d=" M 14.75 -17.9 L 10.4 -19.6 Q 7.25 -2.2 -5.1 12.5 L -14.7 19.65 -11.7 19.65 -4.95 17.4 Q 9.85 4.7 14.75 -17.9 Z" />
            </g>
            <path id="xfl41_Layer0_0_1_STROKES" stroke="#000000" stroke-width="1" stroke-linejoin="round" stroke-linecap="round" fill="none" d=" M 14.75 -17.9 Q 9.85 4.7 -4.95 17.4 L -11.7 19.65 -14.7 19.65 -5.1 12.5 Q 7.25 -2.2 10.4 -19.6 L 14.75 -17.9 Z" />
          </defs>
          <g transform="matrix( 1, 0, 0, 1, 0,0) ">
            <use xlink:href="#xfl41_Layer0_0_FILL" />
            <use xlink:href="#xfl41_Layer0_0_1_STROKES" />
          </g>
        </g>
      </g>
    </g>
    <g transform="matrix(0.4966430664 0.0484619141 0.1348114014 0.6405944824 47.7 11.85)">
      <g data-xfl-symbol="MovieClips/Symbol 40">
        <g data-svg-leaf="movieclips_symbol_40_11103afe31/t00_l000_f0000_r00.svg">
          <defs>
            <g id="xfl42_Layer0_0_FILL">
              <path fill="#000000" stroke="none" d=" M -8.8 -8.4 Q -18.05 -12.4 -21.3 -8.4 L 18.95 10.45 21.3 6.75 -8.8 -8.4 Z" />
            </g>
            <path id="xfl42_Layer0_0_1_STROKES" stroke="#000000" stroke-width="1" stroke-linejoin="round" stroke-linecap="round" fill="none" d=" M 18.95 10.45 L -21.3 -8.4 Q -18.05 -12.4 -8.8 -8.4 L 21.3 6.75 18.95 10.45 Z" />
          </defs>
          <g transform="matrix( 1, 0, 0, 1, 0,0) ">
            <use xlink:href="#xfl42_Layer0_0_FILL" />
            <use xlink:href="#xfl42_Layer0_0_1_STROKES" />
          </g>
        </g>
      </g>
    </g>
    <g transform="matrix(-0.2300567627 -0.029296875 0.0052185059 0.3177490234 80.1 -7.6)">
      <g data-xfl-symbol="MovieClips/Symbol 38">
        <g data-svg-leaf="movieclips_symbol_38_499f986e2b/t00_l000_f0000_r00.svg">
          <defs>
            <g id="xfl43_Layer0_0_FILL">
              <path fill="#000000" stroke="none" d=" M 14.75 -17.9 L 10.4 -19.6 Q 7.25 -2.2 -5.1 12.5 L -14.7 19.65 -11.7 19.65 -4.95 17.4 Q 9.85 4.7 14.75 -17.9 Z" />
            </g>
            <path id="xfl43_Layer0_0_1_STROKES" stroke="#000000" stroke-width="1" stroke-linejoin="round" stroke-linecap="round" fill="none" d=" M 14.75 -17.9 Q 9.85 4.7 -4.95 17.4 L -11.7 19.65 -14.7 19.65 -5.1 12.5 Q 7.25 -2.2 10.4 -19.6 L 14.75 -17.9 Z" />
          </defs>
          <g transform="matrix( 1, 0, 0, 1, 0,0) ">
            <use xlink:href="#xfl43_Layer0_0_FILL" />
            <use xlink:href="#xfl43_Layer0_0_1_STROKES" />
          </g>
        </g>
      </g>
    </g>
    <g transform="matrix(-0.2033081055 0.1679077148 0.1636505127 0.2716522217 74.3 -8.05)">
      <g data-xfl-symbol="MovieClips/Symbol 40">
        <g data-svg-leaf="movieclips_symbol_40_11103afe31/t00_l000_f0000_r00.svg">
          <defs>
            <g id="xfl44_Layer0_0_FILL">
              <path fill="#000000" stroke="none" d=" M -8.8 -8.4 Q -18.05 -12.4 -21.3 -8.4 L 18.95 10.45 21.3 6.75 -8.8 -8.4 Z" />
            </g>
            <path id="xfl44_Layer0_0_1_STROKES" stroke="#000000" stroke-width="1" stroke-linejoin="round" stroke-linecap="round" fill="none" d=" M 18.95 10.45 L -21.3 -8.4 Q -18.05 -12.4 -8.8 -8.4 L 21.3 6.75 18.95 10.45 Z" />
          </defs>
          <g transform="matrix( 1, 0, 0, 1, 0,0) ">
            <use xlink:href="#xfl44_Layer0_0_FILL" />
            <use xlink:href="#xfl44_Layer0_0_1_STROKES" />
          </g>
        </g>
      </g>
    </g>
    <g transform="matrix(-0.1972198486 0.0982666016 0.1523284912 0.2940063477 70.35 -13.2)">
      <g data-xfl-symbol="MovieClips/Symbol 38">
        <g data-svg-leaf="movieclips_symbol_38_499f986e2b/t00_l000_f0000_r00.svg">
          <defs>
            <g id="xfl45_Layer0_0_FILL">
              <path fill="#000000" stroke="none" d=" M 14.75 -17.9 L 10.4 -19.6 Q 7.25 -2.2 -5.1 12.5 L -14.7 19.65 -11.7 19.65 -4.95 17.4 Q 9.85 4.7 14.75 -17.9 Z" />
            </g>
            <path id="xfl45_Layer0_0_1_STROKES" stroke="#000000" stroke-width="1" stroke-linejoin="round" stroke-linecap="round" fill="none" d=" M 14.75 -17.9 Q 9.85 4.7 -4.95 17.4 L -11.7 19.65 -14.7 19.65 -5.1 12.5 Q 7.25 -2.2 10.4 -19.6 L 14.75 -17.9 Z" />
          </defs>
          <g transform="matrix( 1, 0, 0, 1, 0,0) ">
            <use xlink:href="#xfl45_Layer0_0_FILL" />
            <use xlink:href="#xfl45_Layer0_0_1_STROKES" />
          </g>
        </g>
      </g>
    </g>
    <g transform="matrix(-0.2033081055 0.1679077148 0.1636505127 0.2716674805 62.3 -11.15)">
      <g data-xfl-symbol="MovieClips/Symbol 40">
        <g data-svg-leaf="movieclips_symbol_40_11103afe31/t00_l000_f0000_r00.svg">
          <defs>
            <g id="xfl46_Layer0_0_FILL">
              <path fill="#000000" stroke="none" d=" M -8.8 -8.4 Q -18.05 -12.4 -21.3 -8.4 L 18.95 10.45 21.3 6.75 -8.8 -8.4 Z" />
            </g>
            <path id="xfl46_Layer0_0_1_STROKES" stroke="#000000" stroke-width="1" stroke-linejoin="round" stroke-linecap="round" fill="none" d=" M 18.95 10.45 L -21.3 -8.4 Q -18.05 -12.4 -8.8 -8.4 L 21.3 6.75 18.95 10.45 Z" />
          </defs>
          <g transform="matrix( 1, 0, 0, 1, 0,0) ">
            <use xlink:href="#xfl46_Layer0_0_FILL" />
            <use xlink:href="#xfl46_Layer0_0_1_STROKES" />
          </g>
        </g>
      </g>
    </g>
    <g transform="matrix(0.3399353027 0.032043457 0.0039215088 0.413482666 31.35 16.7)">
      <g data-xfl-symbol="MovieClips/Symbol 38">
        <g data-svg-leaf="movieclips_symbol_38_499f986e2b/t00_l000_f0000_r00.svg">
          <defs>
            <g id="xfl47_Layer0_0_FILL">
              <path fill="#000000" stroke="none" d=" M 14.75 -17.9 L 10.4 -19.6 Q 7.25 -2.2 -5.1 12.5 L -14.7 19.65 -11.7 19.65 -4.95 17.4 Q 9.85 4.7 14.75 -17.9 Z" />
            </g>
            <path id="xfl47_Layer0_0_1_STROKES" stroke="#000000" stroke-width="1" stroke-linejoin="round" stroke-linecap="round" fill="none" d=" M 14.75 -17.9 Q 9.85 4.7 -4.95 17.4 L -11.7 19.65 -14.7 19.65 -5.1 12.5 Q 7.25 -2.2 10.4 -19.6 L 14.75 -17.9 Z" />
          </defs>
          <g transform="matrix( 1, 0, 0, 1, 0,0) ">
            <use xlink:href="#xfl47_Layer0_0_FILL" />
            <use xlink:href="#xfl47_Layer0_0_1_STROKES" />
          </g>
        </g>
      </g>
    </g>
    <g transform="matrix(0.3863677979 0.0925445557 -0.0470733643 0.4007720947 42.35 14.3)">
      <g data-xfl-symbol="MovieClips/Symbol 40">
        <g data-svg-leaf="movieclips_symbol_40_11103afe31/t00_l000_f0000_r00.svg">
          <defs>
            <g id="xfl48_Layer0_0_FILL">
              <path fill="#000000" stroke="none" d=" M -8.8 -8.4 Q -18.05 -12.4 -21.3 -8.4 L 18.95 10.45 21.3 6.75 -8.8 -8.4 Z" />
            </g>
            <path id="xfl48_Layer0_0_1_STROKES" stroke="#000000" stroke-width="1" stroke-linejoin="round" stroke-linecap="round" fill="none" d=" M 18.95 10.45 L -21.3 -8.4 Q -18.05 -12.4 -8.8 -8.4 L 21.3 6.75 18.95 10.45 Z" />
          </defs>
          <g transform="matrix( 1, 0, 0, 1, 0,0) ">
            <use xlink:href="#xfl48_Layer0_0_FILL" />
            <use xlink:href="#xfl48_Layer0_0_1_STROKES" />
          </g>
        </g>
      </g>
    </g>
  </g>
</svg>