
<svg xmlns="http://www.w3.org/2000/svg" version="1.1" xmlns:xlink="http://www.w3.org/1999/xlink" preserveAspectRatio="none" x="0px" y="0px" width="550px" height="400px" viewBox="0 0 550 400">
<defs>
<linearGradient id="Gradient_1" gradientUnits="userSpaceOnUse" x1="8.5" y1="20.9" x2="8.5" y2="7.999999999999999" spreadMethod="pad">
<stop  offset="0%" stop-color="#5B5D5E"/>

<stop  offset="100%" stop-color="#B7BABC"/>
</linearGradient>

<g id="Layer0_0_FILL">
<path fill="#B7BABC" stroke="none" d="
M 1 1.25
L 0 1.25 0 21 1 21 1 1.25
M 152 1.25
L 151 1.25 151 21 152 21 152 1.25 Z"/>

<path fill="url(#Gradient_1)" stroke="none" d="
M 152 21
L 151 21 1 21 0 21 0 22 152 22 152 21
M 151 1
L 151 1.25 152 1.25 152 0 0 0 0 1.25 1 1.25 1 1 151 1 Z"/>
</g>
</defs>

<g transform="matrix( 1, 0, 0, 1, 0,0) ">
<use xlink:href="#Layer0_0_FILL"/>
</g>
</svg>
