
<svg xmlns="http://www.w3.org/2000/svg" version="1.1" xmlns:xlink="http://www.w3.org/1999/xlink" preserveAspectRatio="none" x="0px" y="0px" width="550px" height="400px" viewBox="0 0 550 400">
<defs>
<g id="Graphics_Symbol_795_0_Layer0_0_FILL">
<path fill="#F5E7AD" stroke="none" d="
M 133.35 137.8
Q 133.35 133.9 131.7 131.05 129.45 127.1 124.6 127
L 120.8 127.55 118.25 128.15
Q 115.2 128.1 114.1 125.6 113.45 124.1 113.45 121.3 113.45 119.4 115.1 116.9
L 115.8 115.7 116.25 115.2
Q 117.55 113.7 117.55 112.5 117.55 111.75 115.9 109.4
L 115.8 109.25
Q 115.05 107.7 114.05 107.15 111.5 104.15 110.05 104.15 108.8 104.1 105.9 107.35
L 103.95 109.7 103.55 110.35 103.55 110.4 104.45 109.2 104.15 110.05 103.55 111.7
Q 103.15 112.45 103.4 113.05
L 103.6 113.45
Q 101.7 117.65 101.7 122.2 101.7 122.8 101.8 122.7
L 101.8 122.75 102.05 126.05 101.8 128.5 100.2 133.05
Q 99.6 134.55 97.75 136.25
L 96.05 137.6 96.05 137.65 93.05 139.1 91.7 139.2 92.1 139.85 92.35 139.75 92.55 139.35
Q 99.6 143.35 101.45 144.2 108.5 147.35 114.75 147.45 122.55 147.55 127.3 145.65 133.35 143.25 133.35 137.8
M 102.75 122.95
L 102.65 122.85 102.75 122.85 102.75 122.95
M 90.15 60.45
Q 88.6 57.75 83.4 53.75 78.4 49.95 73.15 47.15 67.4 44.15 64.5 44.1 56 44 42.2 50.1 28.7 56.1 29.25 59
L 26.95 61.6
Q 24.1 65 22.1 68.4 15.65 79.25 17.3 90.55
L 17.25 90.55 17.2 92.05
Q 17.2 100.05 21.1 114.35
L 24.95 127.8
Q 24.95 129.15 28.45 136.85 32.8 146.35 37.5 151.95 39.25 154.05 45.3 158.4 52.95 163.95 57 164 57.85 164 64.6 166.5 72.2 168.9 77.15 169 83.75 169.05 89.85 166.2 98.45 162.1 98.45 154.15 98.45 151.1 95.85 147.8 93.3 144.7 91.4 144.65 87.4 144.6 84.4 146.7 81.45 148.85 80.65 148.8 79 148.8 77.7 146.25 75.4 141.9 72.85 139.05 76.3 137.35 77.9 135.5 79.8 133.2 79.8 129.9 79.8 126.5 76.75 124.35 73.75 122.15 69.05 122.1 66.45 122.05 64.95 123.95 63.85 125.35 63.85 126.9
L 64.6 129.65
Q 65.45 132.45 66.2 133.45
L 64.55 134.3 61.4 134.75
Q 53.95 134.65 48.45 121.15 43.45 109 43.45 96.45 43.45 88.65 47.75 82.45
L 48.05 82.35
Q 51.45 76.45 59.5 72.05 70.6 65.85 87.85 63.5
L 88.05 63.8
Q 91.95 63.6 90.15 60.45 Z"/>
</g>
</defs>

<g transform="matrix( 1, 0, 0, 1, -62.75,-76.85) ">
<g transform="matrix( 1, 0, 0, 1, 0,0) ">
<g transform="matrix( 1, 0, 0, 1, 0,0) ">
<use xlink:href="#Graphics_Symbol_795_0_Layer0_0_FILL"/>
</g>
</g>
</g>
</svg>
