
<svg xmlns="http://www.w3.org/2000/svg" version="1.1" xmlns:xlink="http://www.w3.org/1999/xlink" preserveAspectRatio="none" x="0px" y="0px" width="550px" height="400px" viewBox="0 0 550 400">
<defs>
<g id="MovieClips_Symbol_585_44_Layer0_0_MEMBER_0_FILL">
<path fill="#007600" stroke="none" d="
M 192.95 48.95
Q 172.15 36.45 162.3 28.15 147.15 15.45 141.05 1.05 122.95 30.05 109.05 48.05 90.3 72.35 70.7 88.7
L 112.9 84.8 54.9 145.3 92.4 144.25 84.9 151.25 54.85 173.8 69.15 176.65 40.3 211.55 82.7 215.15 41.8 239.9 57.55 248.7 15.15 282.9 60.5 282.9 3.15 327.95 56.45 324.75 47.8 335.15 114.3 324.65 149 335.75 196.2 320 303.95 329.55 252.45 284.15 296.4 284.15 233.8 214.45 270.9 219.3 230.6 178.65 245.05 183.35 217.3 161.65 194.65 142.35 237.25 143.35 180.45 83.2 211.95 89.55 176.55 48.35 192.95 48.95 Z"/>
</g>
</defs>

<g transform="matrix( 1, 0, 0, 1, -32.9,-71.25) ">
<g transform="matrix( 0.5750579833984375, 0, 0, 0.575103759765625, -43.4,-30.6) ">
<use xlink:href="#MovieClips_Symbol_585_44_Layer0_0_MEMBER_0_FILL"/>
</g>
</g>
</svg>
