
<svg xmlns="http://www.w3.org/2000/svg" version="1.1" xmlns:xlink="http://www.w3.org/1999/xlink" preserveAspectRatio="none" x="0px" y="0px" width="550px" height="400px" viewBox="0 0 550 400">
<defs>
<g id="Parts_Bodies_bodyMC_44_Layer14_0_MEMBER_0_FILL">
<path fill="#000000" fill-opacity="0.5333333333333333" stroke="none" d="
M 186.75 200.5
L 186.65 200.55
Q 185.7 200.85 186.6 205.7 187.5 210.5 189.7 217.05 191.9 223.6 194.05 227.95 196.2 232.35 197.15 232.05 198.05 231.75 197.15 226.9 196.25 222.05 194.1 215.55 192 209.2 189.9 204.9 187.75 200.55 186.75 200.5
M 66.05 326.65
Q 71.85 324.45 79.6 320.55 87.35 316.7 92.55 313.4 97.8 310.1 97.4 309.3 97.35 309.1 96.85 309.1 95.2 309.1 89.85 311.25 84.5 313.4 77.7 316.75 69.9 320.65 64.7 323.95 59.5 327.25 59.9 328.05 60.3 328.85 66.05 326.65
M 145.7 283.6
Q 144 277.65 143.15 277.8 142.3 277.95 142.8 284.1 143.25 290.25 144.8 298.8 146.35 307.3 148.05 313.3 149.8 319.2 150.65 319.05 151.5 318.9 151.05 312.75 150.55 306.6 149 298.05 147.4 289.5 145.7 283.6
M 91.4 243.3
L 91.3 243.3
Q 90.4 243.4 88.65 247.55 86.85 251.75 85.2 257.7 83.5 263.95 82.9 268.5 82.3 273.1 83.15 273.3 84 273.55 85.8 269.3 87.6 265.1 89.35 258.85 91.05 252.6 91.65 248.1 92.25 243.55 91.4 243.3
M 119.7 241.1
Q 119.6 234.15 118.65 234.05 117.7 234 116.5 240.85 115.3 247.7 114.5 257.45 113.7 267.2 113.85 274.25 113.95 281.25 114.9 281.3 115.85 281.4 117.05 274.5 118.25 267.65 119.05 257.85 119.85 248.1 119.7 241.1
M 148.95 161.7
Q 148.5 158.6 147.65 158.55 146.8 158.5 145.95 161.5 145.1 164.55 144.75 168.9 144.45 173.25 144.85 176.35 145.3 179.5 146.15 179.55 147 179.6 147.85 176.55 148.7 173.5 149 169.2 149.35 164.9 148.95 161.7
M 120.85 160.6
Q 119.95 160.65 117.35 165.4 114.75 170.2 111.9 177.1 108.95 184.25 107.45 189.5 105.9 194.8 106.7 195.1 107.5 195.45 110.15 190.65 112.8 185.8 115.75 178.65 118.7 171.55 120.25 166.25 121.75 160.95 120.95 160.6
L 120.85 160.6
M 145.65 70.35
Q 144.95 66.9 143.7 66.8 142.45 66.75 141.4 70.15 140.35 73.5 140.05 78.4 139.8 83.25 140.5 86.75 141.15 90.25 142.4 90.3 143.65 90.4 144.7 87 145.75 83.6 146.05 78.7 146.3 73.85 145.65 70.35
M 168.25 187.15
Q 167.65 180.65 165.5 171.8 163.4 163.25 161 157.25 158.6 151.3 157.2 151.2
L 157.05 151.2
Q 155.7 151.55 156.3 158.05 156.9 164.55 159.05 173.4 161.25 182.25 163.7 188.25 166.2 194.3 167.55 193.95 168.85 193.65 168.25 187.15
M 170.65 74
Q 167.4 68.4 165.85 68.5
L 165.65 68.55
Q 164.2 69.1 165.45 75.55 166.75 81.95 170 90.5 173.25 99.05 176.6 104.7 179.95 110.35 181.4 109.8 182.85 109.25 181.55 102.8 180.3 96.4 177.05 87.85 173.85 79.55 170.65 74 Z"/>
</g>

<g id="Parts_Bodies_bodyMC_44_Layer14_0_MEMBER_1_FILL">
<path fill="#FFFFFF" fill-opacity="0.6" stroke="none" d="
M 228.95 276
Q 227.9 274.8 226.4 273.45
L 227.15 277.3 228.95 276
M 227.25 289.2
L 226.75 288.85 224.25 290.1
Q 226 290.5 227.25 289.2
M 181.85 282.55
L 172.05 279.2
Q 171.25 292.3 171.25 295 171.3 303.1 173.6 304.65 176.3 306.5 178.65 298.9 180.55 292.9 181.85 282.55
M 172.45 260
Q 172.4484375 260.048828125 172.25 259.9
L 172.45 260.25 172.45 260
M 197.35 241.6
Q 193.65 236.25 192.75 236.25 191.75 236.2 194.2 243 197.35 251.6 197.35 251.65 198.75 257.5 203.05 264.8 204.25 264.95 205.15 265.25
L 211 271.5 210.45 275.75 210.5 275.85
Q 211.45 274.2 212.3 273.45
L 214.65 269.95 224.75 271.95
Q 217 264.95 213.2 261.05 204.95 252.45 197.35 241.6
M 177.9 242.6
Q 175.75 232.7 173.5 232.4 172.8 232.4 172.3 232.85 170.1 234.75 170.05 241.8 170.05 246.25 171.1 256.4
L 174.45 259.05 173.8 264.5 173.85 265 174.1 264.8
Q 175.25 263.35 176.9 262.8
L 181.05 259.8 180.95 259.4
Q 179.1 248.15 177.9 242.6
M 137.85 259.4
L 138.3 254.6
Q 136.6 255.9 134 256.35 131.8 256.65 130.75 256.65
L 127.85 258.15 127.75 258.05 115.45 301.6
Q 113.85 307.25 116.4 304.35 118.75 301.65 123.2 293.55 134.5 273.05 137.85 259.4
M 100.25 243.5
L 99.95 243.45
Q 98.05 243.4 97.7 252.65 97.2 265.1 96.7 267.35 96.35 269 95.25 272.1 94.2 275.1 93.85 276.9 93.2 280.35 91.25 288.6 89.9 295.7 91.5 298.65 92.55 300.55 94.3 298.1 95.65 296.25 96.95 292.8 98.8 287.9 99.6 279.3 99.75 277.55 100.5 264.15 101.4 255.85 101.65 251.65 102.15 244.1 100.25 243.5
M 155.25 201.6
Q 154.95 203.3 154.25 204.4 166.5 205.25 167.7 221.25 167.7 222.8 167.55 224.3 169.2 222 169.75 219.85 171.55 212.45 170.4 203.25 169.15 193.1 165 193 163.05 192.9 160.6 195.45 157.4 198.8 155.25 201.6
M 126.1 194.25
Q 124.5 193.45 123 193.5 118.15 193.65 113.05 201.35 109.15 207.25 106.5 214.95
L 106.3 215.45 111.4 220.6 112 228.05 113.25 227.65
Q 113.9 225.6 114.45 221.85 115.1 217.25 115.35 216.15 115.85 213.75 118.6 210.1 122.15 205.8 123.8 203.75 129.9 196.25 126.1 194.25
M 105.2 157.85
Q 102.7 164.95 95.25 180.25 89.6 193.4 91.95 199.75
L 98.3 202.4 105.2 157.85
M 152.8 145.4
Q 151.85 144.65 151.05 144.7 146.95 144.9 143.65 158.05 140.55 170.4 141.05 180.9 141.15 183 142.25 186.2 143.25 189.05 144.55 191.5 145.7 190.75 147.05 190.55 146.95 183.65 151.5 163.55 155.15 147.35 152.8 145.4
M 124.35 141.5
Q 123.35 145.6 123.2 146.3 122.7 148.85 122.55 152.15 122.4 156.1 122.75 160.35 123.1 164.7 123.75 166.95 124.9 170.7 126.45 171.2 128.1 171.75 129.05 167.9 130.9 160.2 131.8 145.05 127.05 144 124.35 141.5
M 129.45 108.2
Q 128.5 108.05 127.65 114.85 128.45 114.2 129.2 113.75
L 128.25 112.3 129.75 108.45
Q 129.6 108.2 129.45 108.2
M 140.2 45.95
Q 139.3 45.5 138.55 45.5 135.85 45.45 132.5 52.2 128.55 60.2 126.4 61.85 124.75 63.1 120.45 64.15 115.95 65.2 114.55 66.1
L 114.7 66.35
Q 114.5 67 113.2 70.5
L 112.85 71.75 113 72.2 113.8 71.95
Q 114.95 71.45 116.4 71.3
L 116.65 71.15 116.8 71.25
Q 121.45 71 124.15 75.8
L 125.2 76.4 125 77.6 125.45 78.65
Q 125.95 80.65 125.95 82.25 128.45 83.05 130.15 82 132.6 80.65 133.3 76.2 133.75 71 134.35 68.75 135 66.55 137.15 62.5 140.35 56.65 140.7 55.9 144.4 48.15 140.2 45.95
M 194.35 170.9
Q 193.75 171.15 193.35 171.9 191.05 176 195.8 191.15 202 211.05 202.5 214.6 203.75 224.05 206.55 234.55 210.25 248.55 213.3 248.1 215.25 247.8 215.2 239.7 215.1 234.95 214.2 225.55 213.8 221.5 212.2 215.85 210.4 209.65 209.6 206.45 207.5 197.9 203.5 186.75 197.8 170.85 194.7 170.85
L 194.35 170.9
M 169.5 145.55
L 165.6 147.1
Q 165.85 147.9 167.9 154.2 169.3 158.55 169.75 160.8 170.1 162.55 170.8 166.05 171.4 169.1 172.1 171.25 173.4 175.35 176.35 186.55 179.15 195.55 181.85 194.65 184.55 193.7 181.95 184.35 178.25 173.05 177.15 168.75 175.8 163.35 173.4 156.45
L 172.55 156.5
Q 172.55 156.95 171.95 152.4
L 170.7 149.15
Q 170.3 148.15 169.5 145.55
M 164.55 112.8
Q 165.15 109.1 163.45 103.7 161.05 96.15 160.8 94.5 160.3 91.25 160.05 72.6 159.8 58.95 157.45 58.65
L 157.05 58.7
Q 153.15 59.6 153.1 76.85 153.1 91.6 155.3 104.4 156.15 109.1 158.2 112.2
L 159.95 112 162.25 115.4
Q 164.1 115.4 164.55 112.8 Z"/>
</g>

<g id="Parts_Bodies_bodyMC_44_Layer14_0_MEMBER_2_FILL">
<path fill="#000000" fill-opacity="0.2235294117647059" stroke="none" d="
M 140.3 167.1
Q 136.5 177.1 129.1 192.9 119.85 212.6 117.35 218.5 104.2 249.15 103.85 273.75 111.5 282.7 121.55 282.2 128.7 281.85 140.3 275.85
L 140.3 167.1
M 106.45 291.2
Q 106.68359375 291.0724609375 106.9 290.95 104.0751953125 290.11015625 106.45 291.2
M 174.7 69.95
Q 170.95 69.55 166.9 69.85 158.8 70.45 157.4 73.9 152.25 86.7 169.55 105.55 173.65 110.05 181.4 117.1 186.5 121.75 185.7 121.9 184.85 123.85 182 124.15 180.3 124.35 176.25 123.85 168.1 122.85 166.85 125.8 163.05 135.6 176.5 149.85 180.2 153.8 185.65 158.4 189.35 161.6 188.9 161.45 188.05 163.5 182.05 162.75 176.3 162.05 175.75 164.25 173 175.65 196 188.85 207.5 195.5 219.55 199.8 206.15 197.7 194.05 196.8 169.85 195.05 176.3 201.35 181.05 206 206.1 220 218.6 227 230.15 233.05 219.65 241.25 214.05 244.8 211.7 246.25 230.35 255.05 239.65 259.45 249.45 263.55 240.7 261.85 232.1 260.65 214.9 258.15 215.65 260.4 215.85 261.05 216.35 264.6 217.25 268.45 219.65 271 233.05 285.35 242.1 291.75 244.966796875 293.7546875 247.1 294.8 249.709765625 292.75234375 251.75 293.9 252.6 294.4 252.6 295.1 252.6 295.85 251.6 296 249.9787109375 296.2275390625 247.1 294.8 246.672265625 295.1853515625 246.2 295.65 234.15 303.2 215.4 288.65 206.5 281.05 203.15 278.25 197.5 273.5 195.95 274.4 192.3 276.5 187.85 281.6 185.25 284.55 179.9 291 169.35 302.75 157.25 303.55 144.5 304.35 121.35 296.8 113.8 294.3 108.45 292.05 107.208203125 291.5296875 106.45 291.2 95.7384765625 297.2240234375 85.25 300.9 64.15 308.3 58.9 298.8 53.6 289.25 68.45 284.95 72.5 283.75 80.65 282.4 87.8 281.15 89.4 280.5 92.65 279.1 90.4 277.2 88.65 275.75 82.7 273.4 75.35 270.6 71.75 269.1 65.45 266.45 62.95 264.3 54.7 257.35 77.6 252 85.7 250.1 94.35 249.2 102.5 248.35 103.35 249.1 101.65 239.55 88.05 241.65 83.5 242.4 78.45 244.3 74.45 245.8 73.4 246.6 71 241.65 75.55 236 78.3 232.6 86.8 226.05 95.4 219.45 98.2 216.05 102.9 210.35 100.75 205.3 100.3 201.3 97.1 200.65 94.85 200.2 90.15 201.45 84.1 203.05 83 203.15 79.5 203.55 78.7 201.35 77.15 196.6 82.7 192.15 85.95 189.5 95.4 184.85 104.65 180.25 107.65 177.7 112.65 173.5 110.3 169.05 109.15 166.9 106.05 167.75 104.15 168.3 99.7 170.8 95.2 173.3 93.2 173.9 89.95 174.85 88.55 172.85 92.75 170.95 99.95 164.7 108.5 157.2 112.5 149.75 117.7 139.9 114.1 131.35 110.9 125.25 94.6 129.55 89.5 130.85 83.7 133.1
L 78.95 135.05
Q 78.3 134.6 83.6 130.55 89 126.4 96.7 121.5 117.2 108.5 128.6 106.1 128.3 104.05 125.75 103.8 124.2 103.65 120.2 104.25 111.75 105.55 110.4 102.85 108.7 99.45 111.55 95.1 113.2 92.55 118.55 87.35 123.75 82.25 125.35 79.7 127.95 75.5 125.9 72.3 123.5 68.55 106.3 73.7 98.8 75.95 98.2 76.05 96.35 76.3 101.5 73.1 108.6 68.7 114.05 61.3 117.05 57.25 121.9 48.35 126.05 40.6 128.75 37.7 132.9 33.25 138.5 32.95 143.9 32.65 153.5 37 162.65 41.15 170.7 47.25
L 194 50.2
Q 174.65 38.35 163.85 29.3 148.6 16.55 140 2.05 125.3 30.05 110.7 49.65 93.15 73.15 72.85 88.7
L 107.65 84.8 49.65 145.3 93.2 141.2 80.95 155.95 49.55 173.05 64.2 176.15 35.05 211.15 77.45 215.15 38.35 240.15 52.65 249.35 10.95 282.35 57.9 281.8 2.65 328.45 54.85 324.5 50.55 335.7 113 325.9 143.75 335.75 190.95 320 303.25 327.75 247.2 284.15 291.15 284.15 228.55 214.45 265.65 219.3 225 178.25 239.6 180.55 205.8 158.9 189.4 142.35 232 143.35 181.95 82.45 206.7 89.55 182.7 61.35
Q 184.3 67.8 174.7 69.95 Z"/>
</g>

<g id="Parts_Bodies_bodyMC_44_Layer14_0_MEMBER_3_FILL">
<path fill="#FFFFFF" stroke="none" d="
M 275.5 262.8
Q 275.55 259.75 273.35 255.15 269.7 247.75 254.85 241.7 249.45 239.5 238.55 238.25 226.7 237.25 222.55 236.75 219.55 236.4 212.4 236.6 207.75 236.75 205.35 235.4 202.3 233.65 196 232 190.05 230.4 186.6 230.25 185.3 230.2 184.3 230 183.35 229.8 183.2 229.8 182.55 229.8 179.95 231.45 175.9 234 171.35 239.85 166 246.7 168.05 249.5 169.85 252 173.1 251.95 180.05 251.75 181.05 251.9 183.9 252.3 194.6 251.75 204.5 251.2 208.8 252.3 213 253.3 218.6 257.1 224.15 260.85 226.65 261.45 229.3 262.05 233.25 261.25 237.15 260.45 240.25 261.2 242.15 261.65 242.7 261.3 243 260.8 243.15 260.7 243.5 260.3 249.9 264.2 258.1 269.25 263.25 270.25 268.15 271.2 271.95 268.8 275.4 266.6 275.5 262.8
M 104.8 283.9
Q 102.05 284.05 92.8 281.6 83.1 279 78.6 278.95
L 76.9 278.95
Q 72.65 279.25 65 282.7 57.9 285.9 54 285.8 52.9 285.75 45.65 284.45 42.25 283.85 39.65 286.05 36.7 288.5 40.3 296.2 43.4 302.8 46.95 306.05 49.25 308.1 49.9 308.2 50.5 308.3 53.6 308.35 57.3 308.75 64 308.15 71.1 307.45 74.8 306.25 77.45 305.4 82.25 307.7 88.1 310.5 92.5 310.7 100.9 311.05 119.35 310.45 140.25 309.7 147.1 308.3 164.55 304.65 170.45 297.9 174.1 293.75 174.9 290.65 175.9 286.85 172.9 284.15 169.6 281.1 164.2 281.25 158.45 281.4 148.35 285.05 140.5 287.9 140.2 287.45 140.25 286.95 139.95 286.75 139.45 286.3 137.3 286.45 133.9 286.65 120.85 285.2 107.85 283.7 104.8 283.9
M 137.6 193.7
Q 135 193.45 132.65 193.45 113.85 193.65 87.5 206.4 76.3 211.85 69 217.35 61.3 223.05 60.75 226.8 59.8 233.05 74.35 234.05 82.1 234.55 98.15 233.3 104.85 232.75 114 228.25 125.2 222.75 129.15 221.65 130.75 221.2 141 220.85 148.3 220.65 150 217.65 153.2 212.05 149.2 203.5 145.1 194.65 137.6 193.7
M 89.6 94.3
Q 87.85 94.8 85.6 95.85 81.75 98.25 81.05 100.1 79.95 102.2 80.15 103.85 81.6 108.6 86.05 110.6 92.6 113.55 94.45 115.3 95.3 116.7 99.6 118.75 99.5 120.3 111 119.35 115.2 118.25 117.9 116.4 119.85 116.5 124.75 116.5 129.75 115.2 130.35 113.8 130.65 113.2 129.45 111.3 128.4 109.65 129.6 108.45 131.4 106.65 138.4 104.7 142.9 102.95 143.95 100.7 144.75 98.95 143.55 98.2 142.7 97.7 140.5 97.25 138.05 96.8 137.15 96.4 134.95 95.4 133.3 94.8 132.6 94.7 130.55 92.25 128.55 89.85 125.25 89.5
L 125.15 89.55 125.1 89.6
Q 121.65 89 118.65 89 112.1 89.1 108.05 91.7 104.2 94.3 103.2 95.45 101.45 94.75 99.25 94.25 97.45 93.7 93.6 93.7 91.6 93.8 89.6 94.3
M 164.7 143.4
L 163.25 143.7
Q 161.65 144 155.7 144.8
L 144.75 146.25
Q 142.7 144.3 140.5 142.6 137.35 140.4 133.1 139.85
L 131.8 139.8
Q 127.8 139.8 124.85 141.35 120.75 143.55 118.3 146.75 115.3 150.6 114.7 154.05 114.15 157 115.5 158.35 116.8 159.65 119.7 159.35 120.4 159.25 126.35 158 129.4 157.4 130.2 157.75 130.85 158.2 129.65 158.55 128.15 158.55 127.9 158.45 127.6 158.4 127.85 159.25 128.15 160.35 129.25 162 130.1 163.75 132.85 166.45 136.05 169.55 142.3 170.15
L 148.4 170.55
Q 153.6 170.75 157.65 170.6 162.7 170.5 167.35 169.85
L 169.55 169.5
Q 174.95 172.5 176.45 173.5 181.45 177 186.2 176.6 190.7 176.15 192.6 175 196.75 172.85 198.8 170.8 198.9 170.75 202 167.85 202.95 167.6 202.2 167.5 201.4 167.4 199.7 167.65 201.4 167.2 205.3 167.15 207.55 167.1 211.95 167.1 220.1 167.05 225.1 164.45 229.5 162.2 229.05 159.35 228.9 158.2 227.7 157.1 226.8 156.2 224.85 155 220.9 152.55 215.45 149.95 207.45 145.95 199.7 145.05 192 145.65 189.65 147.75 188.4 148.4 187 149.25 184.45 147.5 182.65 146.5 179.95 144.9 177.9 143.9 177.1 143.5 175.3 142.85
L 175.1 142.75
Q 174.75 142.55 172.25 142.1 172.5 140.2 162.15 144.9
L 164.7 143.4
M 147.7 149.15
Q 147.65 149.2 147.2 148.85
L 146.05 147.6
Q 146.9 148 147.3 148.55 147.7 149.05 147.7 149.15
M 171.9 42.75
L 170.9 42.25
Q 170.25 41.85 170.5 41.8 170.5 41.6 170.75 41.7 168.55 39.8 167.5 39.65 167.05 39.6 166.8 39.7 164.8 39.25 163.85 39.25
L 157.7 39.6 155.5 38.85 153.85 38.5
Q 149.25 38.55 146.9 39.2 143.8 38.2 141.05 38.3 139.55 37.05 138.3 36.8 135.7 36.05 134.05 36.05
L 133.3 36.15
Q 130.85 36.4 129.15 37.1 124.2 39.4 122.35 40.75 119.6 42.85 119.8 45 120.05 47.05 122.6 48.8 122.95 49.05 124.2 49.8 124.75 51.85 126.35 54.1 130.95 58.1 133 57.85 134.8 58.55 137.2 58.8 142.4 62.3 148.9 61.45 150.9 61 152.85 60.45 155.25 61.35 156.25 61.8
L 157.1 61.7 161.7 60.6 161.85 60.6
Q 163.7 63.15 168.65 64.8 174.1 64.9 177.9 62.95 180.3 61.85 182.3 59.85 184.15 58.1 184.5 56.75 185 54.85 183.05 53.2 182.1 52.35 180.45 51.55
L 180.1 49.25
Q 170.85 39.3 173.85 43.5
L 172.25 42.9 172.05 42.8 171.9 42.75
M 148.25 59.55
Q 148.2 59.4 149.55 59.3
L 151.7 60 152.05 60.15 150.6 60.2 149.7 60
Q 148.25 59.65 148.25 59.55 Z"/>
</g>

<g id="Parts_Bodies_bodyMC_44_Layer14_0_MEMBER_4_FILL">
<path fill="#000000" fill-opacity="0.1450980392156863" stroke="none" d="
M 104.8 283.9
Q 102.05 284.05 91.85 281.35 81.65 278.65 76.9 278.95 72.65 279.25 65 282.7 57.9 285.9 54 285.8 52.9 285.75 45.65 284.45 42.25 283.85 39.65 286.05 36.7 288.5 40.3 296.2 43.4 302.8 46.95 306.05 49.25 308.1 49.9 308.2 50.5 308.3 53.6 308.35 57.3 308.75 64 308.15 71.1 307.45 74.8 306.25 77.45 305.4 82.25 307.7 88.1 310.5 92.5 310.7 100.9 311.05 119.35 310.45 140.25 309.7 147.1 308.3 164.55 304.65 170.45 297.9 174.1 293.75 174.9 290.65 175.9 286.85 172.9 284.15 169.6 281.1 164.2 281.25 158.45 281.4 148.35 285.05 140.5 287.9 140.2 287.45 140.25 286.95 139.95 286.75 139.45 286.3 137.3 286.45 133.9 286.65 120.85 285.2 107.85 283.7 104.8 283.9
M 98.85 290.65
Q 108.05 292.25 116.95 293.8
L 142.45 293.1
Q 145.2 292.95 161.95 291.6
L 156.45 299.9 137.5 301.35 97.8 301.15 80.4 300.4 67.65 296.2 56.9 298.9 54.95 292.55 71.7 291.2 79.1 287.65
Q 80.45 287.55 98.85 290.65 Z"/>
</g>

<g id="Parts_Bodies_bodyMC_44_Layer14_0_MEMBER_5_FILL">
<path fill="#898989" stroke="none" d="
M 84.8 282.35
Q 87.75 283.25 92.5 284.4
L 98.8 285.85
Q 105.75 287.4 113.2 288.6 125.5 290.55 134.1 290.5 138.95 290.5 142.25 289.75 143.75 289.45 145.35 288.75 146.85 288.05 147.75 287 148.35 286.2 151.15 285 153.25 284.25 157.1 283.35 159.4 282.85 165.05 281.8 167.9 281.3 167.85 280.95 167.85 280.6 164.9 280.45 161.4 280.25 156.7 280.75 153.15 281.15 150.15 281.95 147.05 282.8 145.15 284.6 144.9 284.9 143.85 285.35 142.85 285.75 141.5 286 138.5 286.45 134.2 286.3 126.3 286.05 113.95 283.9 106.85 282.65 99.85 281.15
L 93.6 279.7
Q 89.8 278.8 86.1 277.75
L 81.9 276.45
Q 78.85 275.35 75.85 276.6 73.55 277.4 70.2 279.35 65.7 281.9 64.9 282.3 62.1 283.7 61.05 283.75 60.8 283.8 59.75 283.7
L 57.25 283.4
Q 52.7 282.8 50.6 282.55 45.45 282 44.15 281.95 43 281.9 41.8 281.95
L 40.9 282.05
Q 40.65 281.95 39.85 282.6 38.8 283.95 38.8 285.85 38.75 287.6 39.1 289.15 39.2 289.75 39.65 291.55
L 39.8 292 39.8 292.1
Q 39.8 292.2 39.9 292.3 40.15 292.4 40.25 292.15 40.3 292.1 40.45 291.5 40.5 290.2 40.55 289 40.7 286.55 40.8 286.05 41.1208984375 284.9087890625 41.4 284.45
L 41.85 284.45 43.85 284.7
Q 46.45 285.1 50.1 285.85
L 59.35 287.55
Q 60.05 287.7 61.25 287.7 63.55 287.6 66.75 286.1 67.95 285.5 72.35 283.2 75.9 281.4 77.3 280.95 77.95 280.85 79 280.6 79.8 280.5 80.05 280.75
L 84.8 282.35 Z"/>
</g>

<g id="Parts_Bodies_bodyMC_44_Layer14_0_MEMBER_6_FILL">
<path fill="#898989" stroke="none" d="
M 52.85 309.4
Q 52.95 310.05 56.3 309.65 58.6 309.35 65.5 308.05 69.7 307.35 71.45 307.2 74.2 307 75.1 307.35 77.55 308.1 81.85 308.95 86.25 309.8 92.4 310.55 106.4 312.25 120.6 312.05
L 121.95 312.05
Q 138.25 311.75 150.4 308.75 157.5 307.05 163 304.3 168.8 301.4 172.35 297.4 174.45 295.05 175.15 292.45 175.75 290 174.8 287.7 173.3 284.25 169.6 282.25 167.4 281 167.05 281.45 166.9 281.75 168.65 283.5 170.1 285.15 170.5 285.65 171.7 287.25 171.95 288.65 172.3 290.05 171.75 291.45 171.25 292.8 169.45 294.6 166.45 297.45 160.95 299.9 156.1 301.9 149.2 303.4 137.65 305.75 121.85 306.05
L 120.55 306.05
Q 106.9 306.25 92.95 305.1 86.25 304.55 82.65 304.05 78.35 303.5 76.35 303.05 73.9 302.5 70.9 303.1 68.1 303.65 64.65 304.7 59.5 306.35 55.9 307.85 52.8 309.1 52.85 309.4 Z"/>
</g>

<g id="Parts_Bodies_bodyMC_44_Layer14_0_MEMBER_7_FILL">
<path fill="#DADADA" stroke="none" d="
M 275.5 262.8
Q 275.55 259.75 273.35 255.15 269.7 247.75 254.85 241.7 249.45 239.5 238.55 238.25 226.7 237.25 222.55 236.75 219.55 236.4 212.4 236.6 207.75 236.75 205.35 235.4 202.3 233.65 196 232 190.05 230.4 186.6 230.25 183.8 229.8 183.2 229.8 182.55 229.8 179.95 231.45 175.9 234 171.35 239.85 166 246.7 168.05 249.5 169.85 252 173.1 251.95 180.05 251.75 181.05 251.9 183.9 252.3 194.6 251.75 204.5 251.2 208.8 252.3 213 253.3 218.6 257.1 224.15 260.85 226.65 261.45 229.3 262.05 233.25 261.25 237.15 260.45 240.25 261.2 242.15 261.65 242.7 261.3 243 260.8 243.15 260.7 243.5 260.3 249.9 264.2 258.1 269.25 263.25 270.25 268.15 271.2 271.95 268.8 275.4 266.6 275.5 262.8
M 255.2 260.95
L 244.2 254.4 232.15 253.5 220.05 250.2
Q 215.75 249.25 207.2 247.1
L 199.55 245.1 187.3 244.7 190.2 235.95 211.85 240.2 223.95 243.45 253.2 247 261 255.75 264.4 262.95 255.2 260.95 Z"/>
</g>

<g id="Parts_Bodies_bodyMC_44_Layer14_0_MEMBER_8_FILL">
<path fill="#DADADA" stroke="none" d="
M 137.6 193.7
Q 128.75 192.6 115.3 196.05 103.3 199.15 90.45 205.05 78.2 210.65 69.95 216.6 61.35 222.85 60.75 226.8 59.8 233.05 74.35 234.05 82.1 234.55 98.15 233.3 104.85 232.75 114 228.25 125.2 222.75 129.15 221.65 130.75 221.2 141 220.85 148.3 220.65 150 217.65 153.2 212.05 149.2 203.5 145.1 194.65 137.6 193.7
M 136.6 217.05
L 122.05 215.8 107.5 220.85 104.95 225.9 82.15 225.3 94.2 218.35 106.25 208.2 113.8 204.4 125.2 204.4 134.1 206.95 136.6 217.05 Z"/>
</g>

<g id="Parts_Bodies_bodyMC_44_Layer14_0_MEMBER_9_FILL">
<path fill="#DADADA" stroke="none" d="
M 165.5 144.25
L 163.6 144.7
Q 162.1 145 155.9 145.8
L 144.2 147.25
Q 141.75 144.8 139.5 143.1 136.6 141 132.8 140.55
L 131.65 140.55
Q 128.05 140.55 125.3 142 121.4 144.2 118.75 147.35 116.75 149.7 115.7 152.25 113.9 156.6 115.5 158.35 116.2 159.15 117.65 159.25 118.95 159.3 121.1 158.8 122.25 158.55 125.35 157.6 128.25 156.85 129.75 157.15 130.6 157.45 129.95 157.85
L 128.9 158
Q 128.8 158.1 129.15 158.95 129.6 160.15 130.6 161.7 131.45 163.55 134.05 165.9 137 168.75 142.3 169.2 145.1 169.45 148.3 169.55 152.4 169.75 157.5 169.6 162.5 169.5 167 168.85 168.6 168.65 169.85 168.35
L 170.6 168.75
Q 176.05 171.8 177.7 172.95 182.05 175.95 186.15 175.65 190.05 175.2 191.75 174.2 195.5 172.25 197.65 170.2 199.2 168.95 201 167.25 201.9 166.95 201.45 166.75 201 166.6 199.7 166.8 201.55 166.4 205.65 166.4 207.9 166.45 212.25 166.45 220.2 166.55 225.05 164.1 229.4 161.95 229.05 159.35 228.9 158.3 227.75 157.25 226.85 156.45 224.9 155.35 220.9 153.2 215.15 150.55 207.1 146.7 199.7 145.9 193.1 146.35 190.65 148.35 189 149.2 186.85 150.6 183.9 148.55 181.6 147.2 179.35 145.85 176.95 144.7
L 174.4 143.7
Q 173.95 143.45 171.95 143.1 172.25 141.45 163.45 145.5
L 165.5 144.25
M 187.45 162.15
L 201.2 154.05 217.4 156.55 218 160.3 186.85 164.65 181.85 167.75 166.25 164.65 156.9 161.55 141.95 162.75 133.85 150.3 128.9 150.5 141.95 149.7 147.55 150.95 158.15 154.65 166.9 155.9 175 162.15 187.45 162.15
M 146.35 149.5
L 145.9 149.15 145.15 148.3
Q 145.75 148.65 146.15 149.1 146.4 149.5 146.35 149.5 Z"/>
</g>

<g id="Parts_Bodies_bodyMC_44_Layer14_0_MEMBER_10_FILL">
<path fill="#898989" stroke="none" d="
M 268.7 246.7
Q 267.25 245.5 265.85 244.7 264.7 243.9 263.1 243.5 261.05 243.1 256.2 240.65
L 248.3 236.4
Q 245.15 234.8 239.8 234.2 235.8 233.7 229.2 233.6 222.95 233.55 211.35 234.2 204.75 234.5 199.5 232.95 198.25 232.6 195.55 231.6 193 230.6 191.6 230.25 189.7 229.7 187.5 229.7 185.2 229.85 182.85 230.7 178.05 232.65 173.4 236.85 170.45 239.45 170.8 239.8 170.95 240 174.25 237.95 177.2 236.15 178.2 235.6 181.25 233.95 183.7 233.25 185.8 232.65 187.5 232.7 188.8 232.75 190.65 233.35 191.75 233.7 194.25 234.8 196.85 235.95 198.4 236.5 204.35 238.6 211.5 238.45 222.8 238.25 229.1 238.45 235 238.65 239.15 239.25 244.2 240.05 245.85 241 248.4 242.35 253.75 245.4 258.7 248 261.95 248.8 262 248.8 263.1 249.35 263.8 249.8 265.2 250.9 267.95 253.2 269.85 255.95 272.1 259.25 272.4 261.55 272.55 262.5 272.3 263.55 272 264.95 271.15 265.85 269.75 267.25 268.8 267.3 268 267.45 265.95 266.85 265.35 266.65 261.85 265.05 259 263.75 256.85 263.25
L 249.6 260
Q 246.3 258.65 244.4 258.25 243.05 257.9 241.8 257.95 240.5 257.85 238.95 258.7 239 258.65 238.6 258.8
L 237.05 259.25
Q 234.8 259.85 232.65 260.3 229.65 260.8 228.5 260.8 228.0390625 260.8 227.75 260.75 226.7982421875 259.2314453125 225.55 257.9 223.9 256.05 221.55 254.2 219 252.3 216.5 251.3 213.55 250.1 210.75 250.45
L 178.45 251.4 178.55 251.45
Q 176.4 251.05 173.35 250.85 170.3 250.6 169.4 250.45 168.1 250.15 167.85 249.7 167.3 249.05 167.3 248.05
L 167.3 247.3
Q 167.1943359375 247.5056640625 166.85 247.85 166.25 248.8 166.75 250.25 167.45 251.55 169 252 170.25 252.45 173.05 252.95 176.45 253.6 178 254
L 178.65 254.1 183.1 254.3
Q 188.95 254.6 193.55 254.7
L 208.7 254.9
Q 210.3 254.9 211.25 254.8 212.7 254.65 214.8 255.5 216.65 256.35 218.65 257.95 220.45 259.35 221.9 261.1 223.35 262.85 223.75 263.7 225.2 265.6 226.2 265.5 227.2 265.8 228.5 265.8 230.9 265.8 233.55 265.3 235.8 264.95 238.4 264.3
L 240.25 263.75
Q 240.78046875 263.6615234375 241.5 263.25 241.6078125 263.2484375 241.85 263.2 242.45 263.2 243.2 263.4 244.6 263.7 247.45 264.95
L 253.9 267.95
Q 254.45 268.25 255.65 268.55 256.95 268.8 259.5 270 262.7 271.55 264.15 272.05 266.75 273.1 269.6 272.75 273.05 272.2 275.25 269.55 277.05 267.5 277.7 264.75 278.15 262.8 277.85 260.75 277.2 256.65 274.35 252.75 272.15 249.55 268.7 246.7 Z"/>
</g>

<g id="Parts_Bodies_bodyMC_44_Layer14_0_MEMBER_11_FILL">
<path fill="#898989" stroke="none" d="
M 142.35 194.7
Q 137.85 192.5 131.85 192.3 121.15 192 106.5 197.2 93.85 201.6 81.3 208.75 75.45 212.05 71.2 215 67.9 217.3 65.95 219.05 64.25 220.6 64.45 220.85 64.6 221.05 66.6 219.95 69.9 218.2 72.35 216.85 78.2 213.75 82.75 211.55 96.05 205.2 107.9 201.45 114.8 199.3 119.4 198.4 126.15 197.05 131.65 197.35 136.75 197.6 140.05 199.25 143.45 201.05 145.05 204.3 146.65 207.65 146.7 207.75
L 147 208.75
Q 147.6 210.4 147.35 210.8 146.95 212.75 146.1 213.8 145.45 214.65 144.35 215.15 143.25 215.7 141.4 215.9 140.6 215.95 137.75 216 131.6 216 128.35 216.65 122.6 217.8 118.8 222.05 111.15 230.65 100.7 233.3 90.8 235.65 83.4 232.8 81.9 233.55 78.85 233.65 76.65 233.65 73.75 233.15
L 68.9 232.3
Q 67.65 232.05 67.05 232.05 65.7 232 65.7 232.25 65.7 232.4 66.85 232.85
L 68.55 233.55
Q 72.15 234.85 73.3 235.2 76.15 236.05 78.75 236.25 81.5 236.55 83.45 235.5 91.55 239.45 101.6 237.25 113.65 234.65 122.35 225.25 124.9 222.4 129.3 221.5 130.95 221.2 133.3 221.1 133.8 221.1 137.75 221.1 140.3 221.15 141.9 221 144.4 220.7 146.45 219.85 148.65 218.95 150.25 216.95 151.85 214.7 152.45 211.95 152.85 209.35 152 207.05
L 151.5 205.8
Q 151.4 205.6 149.7 202 147.25 197.15 142.35 194.7 Z"/>
</g>

<g id="Parts_Bodies_bodyMC_44_Layer14_0_MEMBER_12_FILL">
<path fill="#898989" stroke="none" d="
M 205.45 146.45
L 204.15 146.25
Q 202.85 145.05 201.9 145.35 200.5 145.2 199 145.4 196.95 145.7 192.65 146.9
L 186.55 148.8
Q 184.85 149.35 184.25 149.45
L 183.1 149.65
Q 179.4 149.75 175.85 148.15 174.6 147.6 172.3 146.35 169.8 144.95 168.6 144.4 165.15 142.85 160.9 143.65 158.3 144.05 152.85 145.5 147.9 146.75 145.8 146.95 144.25 147.05 143.4 146.85 142.6 146.85 142.45 146.75 141.5 143.85 138.8 142.55 136.2 141.1 133.1 140.95 130.2 140.65 127.25 141.3 124.3 141.9 122.35 143.15 118.2 145.75 115.55 148.2 113.25 150.2 112.1 152.45 111.1 154.35 111.65 156.35 112.3 158.05 114 159 117.1 160.7 121.8 160.45 125.25 160.35 127.7 159.45 129.55 158.75 129.5 158.4 129.45 158.3 127.45 158.55 124.7 158.85 121.85 158.65 119.65 158.4 118.6 158.2 116.55 157.75 115.3 156.85 114.3 156.05 114.25 155.55 114.05 155.05 114.65 153.8 115.3 152.5 117.6 150.6 119.9 148.65 124.15 146.2 125.5 145.4 127.95 145 130.55 144.6 132.75 144.85 135.25 145.2 136.75 146.1 138.45 147.3 138.95 148.9 140.55 150.5 142.45 151.1 144.2 151.45 146.1 151.35 148.85 151.15 153.95 149.95 159.95 148.55 161.5 148.35 163.6 148.2 164.3 148.2 165.7 148.25 166.45 148.75 167.05 149.05 169.95 150.65 172.25 151.9 173.85 152.65 178.2 154.65 183.1 154.7 184.35 154.65 185.4 154.35
L 194.1 151.8
Q 198.05 150.7 199.7 150.5 200.75 150.35 201.35 150.4 202.55 151 201.95 150.6
L 203.4 150.85
Q 211.2 152.2 214.65 153.4 219.7 155.1 222.15 157.9 223.95 158.85 224.6 159.45 224.8578125 159.75078125 224.95 159.85 224.8453125 160.0443359375 224.25 160.6 223.05 161.6 219.35 163.2 215.9 164.55 211.5 165.8 204.15 167.85 193.55 169.8 191.3 170.2 186.35 170.95
L 182.5 171.35
Q 181.45 171.45 180.1 170.9 179.3 170.6 177.5 169.7 175.5 168.5 174.5 167.9 172.7 166.8 171.35 166.2 169.7 165.5 168 165.6 166.5 165.65 164.9 166.2 163.55 166.65 161.65 167.4 159.4 168.35 158.8 168.55 154.75 169.85 151.2 169.7 146.9 169.55 143.05 168.2 140.2 167 140.1 167.15 140.15 167.05 142.55 169.05 146.05 171.25 151 171.9 155.15 172.4 159.6 171.25 160.3 171.05 162.7 170.25 164.6 169.6 165.8 169.3 167.2 168.95 168.05 168.95 169.15 168.95 169.9 169.35 171.7 170.3 175.6 172.95 179.15 175.25 182.5 175.35
L 186.9 175.05
Q 190.05 174.7 194.25 174.05 204.5 172.55 212.75 170.35 217.3 169.2 221.15 167.75 224.9 166.35 227.4 164.45 228.6 163.5 229.4 162.05 230.25 160.6 229.85 158.65 229.2 156.75 227.95 155.75 226.85 154.7 225.15 153.95 221.7 150.2 216.2 148.5 212.35 147.35 205.45 146.45 Z"/>
</g>

<g id="Parts_Bodies_bodyMC_44_Layer14_0_MEMBER_13_FILL">
<path fill="#DADADA" stroke="none" d="
M 93.6 93.7
Q 91.6 93.8 89.6 94.3 87.85 94.8 85.6 95.85 81.75 98.25 81.05 100.1 79.95 102.2 80.15 103.85 81.6 108.6 86.05 110.6 92.6 113.55 94.45 115.3 95.3 116.7 99.6 118.75 99.5 120.3 111 119.35 115.2 118.25 117.9 116.4 119.85 116.5 124.75 116.5 134.55 114.15 135.45 110.6 136 108.65 136.4 108.15 137.55 106.9 141.3 106.05 145.75 104.3 146.7 99.1 147.55 94.55 146.2 93.7 145.4 93.2 147.15 93.4 148.7 93.6 147.8 93.2 145.55 92.2 143.9 91.6 130.95 90.1 125.25 89.5
L 125.15 89.55 125.1 89.6
Q 114 87.8 108.05 91.7 106.65 92.65 104.7 92.55 102.95 92.5 102.65 92.8 102.15 92.6 101.1 93.5 100.05 94.45 99.25 94.25 97.45 93.7 93.6 93.7
M 107.45 96.1
L 117.8 96.65 132 93.7 138.45 94.9 123.6 103.2 119.75 109.75
Q 119.35 111.65 112.4 113.55
L 105.5 115.1 97.75 104.4 107.45 96.1 Z"/>
</g>

<g id="Parts_Bodies_bodyMC_44_Layer14_0_MEMBER_14_FILL">
<path fill="#898989" stroke="none" d="
M 112.8 87.1
Q 102.5 88.8 95.95 92.35 92.6 94.1 90.6 96.5 89.7 97.6 89.25 98.9 88.9 100 89.05 100.8 89.15 101.45 89.35 101.45 89.5 101.45 89.75 100.9 90.15 100.05 90.5 99.5 90.95 98.8 92.05 97.85 93.65 96.45 97.2 95 103.45 92.45 113.4 91.3 123.25 90.3 131.1 91.1 135.3 91.55 137.95 92.4 141 93.45 141.9 94.4 142.5 94.9 142.7 95.4
L 142.75 95.6
Q 142.95 96.1 142.8 97 142.6 98.55 140.15 101.8 137.95 104.5 133.9 107.65 130.35 110.45 125.5 113.2 120.7 115.9 116.35 117.6 111.45 119.45 107.95 120 103.9 120.6 101.7 119.8 100.45 119.4 99.6 118.55 98.9 117.9 98.3 117 97.9 116.3 97.75 116.3 97.55 116.3 97.55 117.2 97.55 118.3 98.35 119.55 99.3 120.95 100.75 121.75 103.75 123.4 108.25 123.1 112.6 122.9 117.65 121.25 122.5 119.75 127.6 117.15 132.5 114.65 136.85 111.5 141.2 108.3 144 105 146.95 101.75 147.8 97.9 148.2 96 147.6 94.05
L 147.35 93.4
Q 146.55 91.65 145.35 90.65 143.05 88.6 139.45 87.55 136.15 86.55 131.55 86.2 122.65 85.4 112.8 87.1 Z"/>
</g>

<g id="Parts_Bodies_bodyMC_44_Layer14_0_MEMBER_15_MEMBER_0_FILL">
<path fill="#868686" stroke="none" d="
M 252.75 273.4
Q 249.3 274.35 247.55 277.4 245.75 280.5 246.65 283.95 247.6 287.4 250.65 289.2 253.75 291 257.2 290.05 260.65 289.1 262.45 286.05 264.25 282.95 263.3 279.5 262.4 276.05 259.3 274.25 256.2 272.45 252.75 273.4 Z"/>
</g>

<g id="Parts_Bodies_bodyMC_44_Layer14_0_MEMBER_15_MEMBER_1_FILL">
<path fill="#868686" stroke="none" d="
M 243.3 287.25
Q 245.1 284.15 244.15 280.7 243.25 277.25 240.15 275.5 237.05 273.7 233.6 274.6 230.2 275.55 228.4 278.6 226.6 281.7 227.55 285.15 228.45 288.6 231.55 290.4 234.65 292.2 238.05 291.25 241.5 290.35 243.3 287.25 Z"/>
</g>

<g id="Parts_Bodies_bodyMC_44_Layer14_0_MEMBER_15_MEMBER_2_FILL">
<path fill="#868686" stroke="none" d="
M 216.15 272.7
Q 212.7 273.6 210.95 276.7 209.15 279.8 210.05 283.25 211 286.7 214.05 288.5 217.15 290.25 220.6 289.35 224.05 288.4 225.85 285.35 227.65 282.25 226.7 278.8 225.8 275.35 222.7 273.55 219.6 271.75 216.15 272.7 Z"/>
</g>

<g id="Parts_Bodies_bodyMC_44_Layer14_0_MEMBER_15_MEMBER_3_FILL">
<path fill="#868686" stroke="none" d="
M 198 268.15
Q 194.55 269.05 192.75 272.15 190.95 275.25 191.9 278.7 192.85 282.15 195.9 283.95 199 285.7 202.45 284.8 205.9 283.85 207.7 280.8 209.45 277.7 208.55 274.25 207.6 270.8 204.55 269 201.45 267.2 198 268.15 Z"/>
</g>

<g id="Parts_Bodies_bodyMC_44_Layer14_0_MEMBER_15_MEMBER_4_FILL">
<path fill="#868686" stroke="none" d="
M 178.9 263.05
Q 175.45 264 173.65 267.05 171.85 270.15 172.8 273.6 173.7 277.05 176.8 278.85 179.9 280.65 183.35 279.7 186.8 278.75 188.6 275.7 190.35 272.6 189.45 269.15 188.5 265.7 185.45 263.95 182.35 262.15 178.9 263.05 Z"/>
</g>

<g id="Parts_Bodies_bodyMC_44_Layer14_0_MEMBER_15_MEMBER_5_FILL">
<path fill="#868686" stroke="none" d="
M 156.75 260.65
Q 154.95 263.75 155.9 267.2 156.8 270.65 159.9 272.45 163 274.25 166.45 273.3 169.9 272.4 171.7 269.3 173.45 266.2 172.55 262.75 171.6 259.3 168.5 257.55 165.4 255.75 162 256.65 158.55 257.6 156.75 260.65 Z"/>
</g>

<g id="Parts_Bodies_bodyMC_44_Layer14_0_MEMBER_15_MEMBER_6_FILL">
<path fill="#868686" stroke="none" d="
M 145.45 248
Q 142 248.9 140.25 252 138.45 255.1 139.35 258.55 140.3 262 143.35 263.8 146.45 265.55 149.9 264.65 153.35 263.7 155.15 260.65 156.95 257.55 156 254.1 155.05 250.65 152 248.85 148.9 247.05 145.45 248 Z"/>
</g>

<g id="Parts_Bodies_bodyMC_44_Layer14_0_MEMBER_15_MEMBER_7_FILL">
<path fill="#868686" stroke="none" d="
M 129.35 238.8
Q 125.9 239.75 124.1 242.8 122.3 245.9 123.25 249.35 124.15 252.8 127.25 254.6 130.35 256.4 133.8 255.45 137.25 254.5 139.05 251.45 140.8 248.35 139.9 244.9 138.95 241.45 135.85 239.7 132.75 237.9 129.35 238.8 Z"/>
</g>

<g id="Parts_Bodies_bodyMC_44_Layer14_0_MEMBER_15_MEMBER_8_FILL">
<path fill="#868686" stroke="none" d="
M 122.8 241.35
Q 124.6 238.25 123.65 234.8 122.7 231.35 119.65 229.6 116.55 227.8 113.1 228.7 109.65 229.65 107.85 232.7 106.05 235.8 107 239.25 107.95 242.7 111 244.5 114.1 246.3 117.55 245.35 121 244.45 122.8 241.35 Z"/>
</g>

<g id="Parts_Bodies_bodyMC_44_Layer14_0_MEMBER_15_MEMBER_9_FILL">
<path fill="#868686" stroke="none" d="
M 99.45 216.95
Q 96 217.9 94.2 220.95 92.4 224.05 93.35 227.5 94.25 230.95 97.35 232.75 100.45 234.55 103.9 233.6 107.35 232.7 109.15 229.6 110.9 226.5 110 223.05 109.05 219.6 106 217.85 102.9 216.05 99.45 216.95 Z"/>
</g>

<g id="Parts_Bodies_bodyMC_44_Layer14_0_MEMBER_15_MEMBER_10_FILL">
<path fill="#868686" stroke="none" d="
M 82.95 219.05
Q 86.05 220.85 89.5 219.9 92.95 219 94.75 215.9 96.5 212.8 95.6 209.35 94.65 205.9 91.6 204.15 88.5 202.35 85.05 203.25 81.6 204.2 79.8 207.25 78 210.35 78.95 213.8 79.9 217.25 82.95 219.05 Z"/>
</g>

<g id="Parts_Bodies_bodyMC_44_Layer14_0_MEMBER_15_MEMBER_11_FILL">
<path fill="#868686" stroke="none" d="
M 71.65 191
Q 68.2 191.95 66.4 195 64.6 198.1 65.55 201.55 66.45 205 69.55 206.8 72.65 208.6 76.1 207.65 79.55 206.75 81.35 203.65 83.1 200.55 82.2 197.1 81.25 193.65 78.2 191.9 75.1 190.1 71.65 191 Z"/>
</g>

<g id="Parts_Bodies_bodyMC_44_Layer14_0_MEMBER_15_MEMBER_12_FILL">
<path fill="#868686" stroke="none" d="
M 223.25 174.1
Q 219.8 175.05 218.05 178.1 216.25 181.2 217.15 184.65 218.1 188.1 221.15 189.9 224.25 191.7 227.7 190.75 231.15 189.8 232.95 186.75 234.75 183.65 233.8 180.2 232.9 176.75 229.8 174.95 226.7 173.15 223.25 174.1 Z"/>
</g>

<g id="Parts_Bodies_bodyMC_44_Layer14_0_MEMBER_16_FILL">
<path fill="#868686" stroke="none" d="
M 208.4 161.4
Q 204.95 162.3 203.2 165.4 201.4 168.5 202.3 171.95 203.25 175.4 206.3 177.15 209.4 178.95 212.85 178 216.3 177.1 218.1 174 219.9 170.9 218.95 167.45 218.05 164.05 214.95 162.25 211.85 160.45 208.4 161.4 Z"/>
</g>

<g id="Parts_Bodies_bodyMC_44_Layer14_0_MEMBER_17_FILL">
<path fill="#868686" stroke="none" d="
M 193.55 150.75
Q 190.1 151.7 188.35 154.75 186.55 157.85 187.45 161.3 188.4 164.75 191.45 166.55 194.55 168.35 198 167.4 201.45 166.5 203.25 163.4 205.05 160.3 204.1 156.85 203.2 153.4 200.1 151.65 197 149.85 193.55 150.75 Z"/>
</g>

<g id="Parts_Bodies_bodyMC_44_Layer14_0_MEMBER_18_FILL">
<path fill="#868686" stroke="none" d="
M 178.7 138.55
Q 175.25 139.5 173.5 142.55 171.7 145.65 172.6 149.1 173.55 152.55 176.6 154.35 179.7 156.15 183.15 155.2 186.6 154.3 188.4 151.2 190.2 148.1 189.25 144.65 188.35 141.2 185.25 139.45 182.15 137.65 178.7 138.55 Z"/>
</g>

<g id="Parts_Bodies_bodyMC_44_Layer14_0_MEMBER_19_FILL">
<path fill="#868686" stroke="none" d="
M 162.3 143.25
Q 165.4 145 168.85 144.1 172.3 143.15 174.1 140.1 175.85 137 174.95 133.55 174 130.1 170.95 128.3 167.85 126.5 164.4 127.45 160.95 128.35 159.15 131.45 157.35 134.55 158.3 138 159.25 141.45 162.3 143.25 Z"/>
</g>

<g id="Parts_Bodies_bodyMC_44_Layer14_0_MEMBER_20_FILL">
<path fill="#868686" stroke="none" d="
M 151.65 114.7
Q 148.2 115.65 146.45 118.7 144.65 121.8 145.55 125.25 146.5 128.7 149.55 130.5 152.65 132.3 156.1 131.35 159.55 130.4 161.35 127.35 163.15 124.25 162.2 120.8 161.3 117.35 158.2 115.6 155.1 113.8 151.65 114.7 Z"/>
</g>

<g id="Parts_Bodies_bodyMC_44_Layer14_0_MEMBER_21_FILL">
<path fill="#868686" stroke="none" d="
M 138.4 101.45
Q 134.95 102.4 133.2 105.45 131.4 108.55 132.3 112 133.25 115.45 136.3 117.25 139.4 119 142.85 118.1 146.3 117.15 148.1 114.1 149.9 111 148.95 107.55 148.05 104.1 144.95 102.3 141.85 100.5 138.4 101.45 Z"/>
</g>

<g id="Parts_Bodies_bodyMC_44_Layer14_0_MEMBER_22_FILL">
<path fill="#868686" stroke="none" d="
M 121 90.05
Q 119.2 93.15 120.1 96.6 121.05 100.05 124.1 101.85 127.2 103.65 130.65 102.7 134.1 101.8 135.9 98.7 137.7 95.6 136.75 92.15 135.85 88.7 132.75 86.95 129.65 85.15 126.2 86.05 122.75 87 121 90.05 Z"/>
</g>

<g id="Parts_Bodies_bodyMC_44_Layer14_0_MEMBER_23_FILL">
<path fill="#868686" stroke="none" d="
M 114 72.8
Q 110.55 73.75 108.8 76.8 107 79.9 107.9 83.35 108.85 86.8 111.9 88.6 115 90.4 118.45 89.45 121.9 88.55 123.7 85.45 125.5 82.35 124.55 78.9 123.65 75.45 120.55 73.7 117.45 71.9 114 72.8 Z"/>
</g>

<g id="Parts_Bodies_bodyMC_44_Layer14_0_MEMBER_24_FILL">
<path fill="#868686" stroke="none" d="
M 101.4 59.4
Q 98 60.35 96.2 63.4 94.4 66.5 95.35 69.95 96.25 73.4 99.35 75.2 102.45 77 105.9 76.05 109.3 75.15 111.1 72.05 112.9 68.95 111.95 65.5 111.05 62.05 107.95 60.3 104.85 58.5 101.4 59.4 Z"/>
</g>

<g id="Parts_Bodies_bodyMC_44_Layer14_0_MEMBER_25_FILL">
<path fill="#000000" stroke="none" d="
M 66.9 317.15
Q 69.5 313 68.6 312.2 67.7 311.4 63.8 314.4 59.95 317.35 55.3 322.4
L 53.95 323.95
Q 46.25 322.85 28.9 323.65 17.45 324.1 9.1 325.25 21.05 318.65 32.8 309.25
L 35.5 307.05
Q 39.8 303.45 43.3 300.15
L 40.65 296.5 29.7 305.35
Q 23.3 310.45 12.85 318.35 4.05 324.95 1.95 326.75 1.1 327.05 1.1 327.4
L 1.15 327.5
Q -0.2 328.7 0.05 329 0.3 329.5 3.15 328.25 6.3 328.85 13.25 328.95 20.5 329.1 29.15 328.7 43.7 328.1 51.7 326.65 48.65 330.45 47.15 333.2 45.65 335.95 46.35 336.6 46.85 337 48.5 336.15 49.35 337.05 60.75 335.85 72.15 334.6 87.85 331.95 104.1 329.2 116.15 326.3
L 118.5 327.25
Q 128.75 331.2 150.35 338.35 175 330.7 198.05 323.2 198.65 327 200.05 329.25 202.1 332.55 206.15 334.15 209.35 335.4 214.5 335.9 221.2 336.55 225.45 333.35 229.25 330.5 230.65 325.1 260.25 327.65 278.65 328.7 297.7 329.85 297.75 329 297.8 328.15 279.05 325.75 260.55 323.35 231.3 320.45
L 231.35 319.1
Q 230.1 302.7 217.2 302.2 218.2 300.3 218 297.95 218 297.45 217.8 296.45 217.25 294.35 215.9 292.85 214.2 291 212.05 291
L 211.6 291
Q 210 291.2 209.7 292.55 209.6 293.1 209.95 294.8 210.25 296 210.2 296.7
L 210.7 299.05
Q 211.25 300.95 211.85 302.1
L 212.1 302.45
Q 209.2 302.65 207.5 303.5 205.1 304.65 202.3 307.85 198 312.75 197.75 318.15 170.45 327.35 150.35 334.4 130.55 328.3 119.55 325.45 126.55 323.6 126.4 322.8 126.25 321.75 114.7 322.95 103.15 324.15 87 326.9 74.35 329.05 64.35 331.25 54.45 333.4 50.55 334.85 54.6 331.85 59.65 326.35 64.25 321.3 66.9 317.15
M 228.1 319.1
L 228.1 320.1 227.15 324.8 226.55 326.15
Q 225.85 327.65 225.4 328.25 222.05 332.7 214.5 332.7 211.55 332.7 208.9 331.5 206.35 330.3 204.45 328.2 203.5 327.2 202.35 324.75
L 201.35 322.45 200.7 317.45
Q 202.3 314.5 204.75 311.5 209.65 305.55 213.8 305.5
L 214.5 305.5
Q 221.65 305.8 225.3 309.7 228.75 313.35 228.1 319.1
M 53.8 245.1
Q 56.15 245.3 57.35 245.05 55.35 246.6 49.95 251.6 44.7 256.4 41.5 258.85 36.95 262.35 21 274 12.6 280.1 13.1 280.9 13.8 282 23.25 276.6 33.75 270.65 44.95 261.95 50.65 257.5 55.9 252.85
L 55.9 252.95
Q 55.85 254.45 56.1 255.8 56.65 258.8 58.05 260.7 55 260.9 53.3 261.7 50.9 262.85 48 266.15 43.4 271.35 43.4 277.4
L 43.55 280.35 40.05 280.35
Q 28.55 280.5 20.5 281.25 12.4 282 12.4 282.95 12.4 283.9 20.5 284.45 28.65 285 40.1 284.85
L 44.5 284.75
Q 44.9 286.25 45.75 287.55 50.05 292.6 50.7 292.7 51.25 292.85 53.4 292.95 56.25 293.2 60.2 294.2 68.7 295 73.2 289.7 77.1 285.1 77 277.4 75.75 260.65 62.4 260.5 63.1 258.65 63.25 255.15
L 63.3 254.35 65.8 254.15
Q 67.65 253.85 68.1 252.8 68.5 251.6 67.3 250.25 65.9 248.5 63 247.6 62.3 247.4 61.65 247.4 66.35 242.8 69 239.4 71.55 236.15 71.05 235.6
L 70.9 235.55
Q 69.85 235.3 60.55 242.55 59.3 241.85 56 241.55 52.65 241.2 48.45 241.4 43.2 241.65 39.6 242.45 35.9 243.3 35.95 244.25 36 245.1 40.1 245.2 42.25 245.2 49.4 244.9 50.9 244.85 53.8 245.1
M 59.5 263.8
Q 59.85 263.75 60.2 263.8 67.35 264.1 71 268 74.4 271.65 73.8 277.4 73.8 279.8 73.1 282.25 72.3 284.9 71.05 286.55 67.75 291 60.2 291 57.2 291 54.35 289.65 54.8 289.15 53.65 288.45 52.5 287.75 51.5 287.85
L 50.1 286.5
Q 49.1 285.3 48.7 284.6 49.2 285.05 48.15 282.95 46.9 280.5 46.95 280.35 46.6 278.7 46.6 277.4 45.35 272.8 49.7 268.3 53.95 263.9 59.5 263.8
M 58.4 231.2
Q 60.15 230.2 60.1 230.45 60.1 230.65 61.45 229.8
L 60.3 225.55 56.4 227.8
Q 46.75 233.4 40.1 237.9 33.55 242.35 33.95 243.05 34.35 243.75 41.55 240.3 48.7 236.8 58.4 231.2
M 147.95 190.45
Q 145.95 190.5 144.55 191.5 141.4 194.1 141.3 197.15 141.25 199.35 142.45 199.8 143.35 200.2 145.05 199 146.05 198.3 146.55 197.95 147.4 197.45 147.9 197.5 148.05 197.6 147.65 197.7
L 147.35 197.7 147.55 197.85 148.6 199.95
Q 149.25 201.55 150.1 204.5 146.05 204.8 144.55 205.35 141.85 206.4 138.7 210 134.05 215.25 134.05 221.25 134.05 223.95 134.65 226.6 135.25 229.6 136.4 231.4 138.45 234.65 142.55 236.3 145.7 237.6 150.9 238.1 159.4 238.85 163.9 233.6 167.8 228.95 167.7 221.25 166.5 205.25 154.25 204.4 155.65 202.05 155.4 198.7 155.4 195.65 153.15 193
L 152.25 192.05
Q 150.8 190.75 148.55 190.45
L 147.95 190.45
M 150.9 207.65
Q 158.05 208 161.7 211.85 165.1 215.55 164.5 221.25 164.5 223.65 163.75 226.15 163 228.75 161.75 230.4 158.45 234.85 150.9 234.85 147.95 234.85 145.3 233.65 142.7 232.5 140.8 230.4 137.3 226.5 137.3 221.25 136.05 216.7 140.35 212.2 144.65 207.75 150.2 207.65
L 150.9 207.65
M 196.9 74.1
L 192 69.55
Q 188.75 66.3 186 62.3 184.85 60.65 179.3 51.85 176.7 47.8 176.1 48.1 175.55 48.35 177.2 52.95 179.15 58.4 182.65 64.4 185.35 69.05 188.95 72.65
L 192.8 76.3 192.2 77.05
Q 191.1 78.75 191.05 80.2 190.95 81.5 191.65 82 192.3 82.5 193.55 82.2 194.05 82.05 196.1 81.25
L 196.2 81.2 196.35 81.55
Q 196.7 82.25 197.45 84.35
L 197.55 84.6
Q 195.65 83.9 192.75 83.05 185.95 81.05 180.9 80.5 175.9 79.95 175.5 81.15 175.3 81.95 177.35 83.25 179.4 84.55 183 86 182.5 87 187.95 95.5 184.25 100.3 184.25 105.7 184.25 108.4 184.8 111 185.45 114 186.6 115.85 188.65 119.1 192.7 120.75 195.9 122.05 201.05 122.5 204.95 122.85 208 121.95 218.45 133.4 230.15 140.7 223.2 139.85 212.4 139.85 206.35 139.85 199.7 140.35 193.7 140.8 190.1 141.4 188.6 138.3 184.35 137.2 180 136.1 176.7 138.25 176.25 130.7 175.65 129.2 175 127.6 168.6 125.1
L 167.2 125.9
Q 165.9 125.95 164.15 126.55
L 164 126.6
Q 164.3 125.55 164.2 124.2 164.15 122.9 164.4 121.85 164.85 116.15 159.4 113.1 154.05 110.1 150.5 113.15 152.15 110.05 151.95 106.8 147.75 97.15 138.15 100.55
L 138.05 100.6 137.55 100.3
Q 139.4 92.85 138.4 90.3 137.5 87.9 131.4 83.95
L 130.1 84.55
Q 128.1 84.4 125.95 85.2
L 125.4 85.4
Q 126.5 82.4 125.45 78.65
L 125 77.6 125.2 76.4 124.15 75.8
Q 121.45 71 116.8 71.25
L 116.65 71.15 116.4 71.3
Q 114.95 71.45 113.8 71.95
L 112.65 72.3
Q 113.05 71.4 113.2 70.5 114.5 67 114.7 66.35 112.55 63.6 111.5 62.25 110.5 60.55 109.4 59.6
L 108.1 58 113.85 50.9
Q 123.1 38.85 129.4 27.3 135.2 16.75 137.75 8.05 138.8 4.6 139.05 2.25 139.3 0.15 138.85 0
L 138.7 0
Q 138.25 0.05 137.15 1.85 136.7 2.6 134.5 6.7 129.7 15.6 124.2 24.2 121.7 28.1 120.1 29.85 117.25 33.05 114.7 36.35 114.55 36.55 99.2 49.7 83.9 62.85 83.75 63.1 82.7 65.05 85.7 63.95 88.45 62.95 93.15 60.05 100.6349609375 55.3798828125 104.3 51.75 101.5572265625 55.23125 99.15 58.1
L 96.4 58.25 93.95 64.15
Q 90.45 68.2 87.05 71.8 83.2 75.95 78.35 80.6 73.15 85.7 72.75 86.1 68.95 87.4 69 88.65 69.1 89.6 71.65 90.3 74.15 90.95 78.35 91.15
L 78.35 91.3 78.25 91.3
Q 73.35 91.7 72.25 92.1 69.35 93.05 66.05 96.85 61.4 102.1 61.4 108.1 61.4 110.75 62 113.45 62.6 116.4 63.75 118.25 66.7 122.9 74 124.35 67 131.85 58 140.25 52 145.85 51.05 146.8 50.6 147.1 50.55 147.3 48.95 149.05 49.2 149.4 49.6 150.05 53.8 147.8 57.8 147.55 73.4 145.55 79.75 144.8 89.2 144.2
L 91.7 144
Q 89.7 144.65 83.85 149.25 74.25 156.85 71.4 158.9 65.4 163.25 55.75 169.95 49.25 174.65 49.8 175.4 49.9994140625 175.6705078125 50.7 175.55 49.6494140625 175.8462890625 49.7 176.2 49.8 177 54.1 177.65 58.65 178.3 63.1 177.85 68.05 177.4 71.25 176.45 69.95 177.5 64.1 182.55 59.3 182.95 58.2 183.35 55.35 184.35 52.05 188.1 48.3 192.5 47.6 197.2 36.85 207.15 30.2 214.05 23.45 221.1 24.1 221.8 24.85 222.65 35.4 214.2 37.1 215.1 44.05 214.7 53.65 214.15 58.1 214.4 61.55 214.6 67.6 216.45 72.95 218.05 75.15 217.8 73.85 217.6 76.05 217.7 79.15 217.9 79.2 217.9
L 79.6 218.9
Q 79.5 218.9 81.05 219.45 82.8 220.95 85.65 221.1
L 87.05 221.6 89.75 220.8
Q 91.35 220.5 92.45 219.95
L 93.65 219.6 93.1 221.5
Q 92.55 222.65 92.35 223.8
L 91 228.05
Q 96.1 234.65 97.2 235.2 98.2 235.7 105.4 235.15 105.35 236.25 105.55 237.45 105.75 238.6 105.65 239.8 107.35 244.8 110.45 246.35 113.1 247.65 116.45 246.45
L 117.8 246.25
Q 120.4 245.8 121.95 244.6 120.7 250.4 124.05 254.5 127.2 258.4 130.75 256.65 131.8 256.65 134 256.35 136.6 255.9 138.3 254.6 135.5 261.3 142.4 265 145.2 266.5 148.25 266.45 151.45 266.35 153.35 264.45 154.2 264.05 154.9 263.4 152.15 270.9 160.5 274 163.55 275.1 166.8 275.05 169.9 275 170.6 273.9 170.15 275.15 172.55 277.1 174.9 279 178.2 280.1 187.05 283 189.85 276.6
L 190.25 276.2
Q 191.1 284.3 197.5 286.5 203.95 288.7 208.5 282.35 208.65 283.45 209.25 288.4
L 219.3 292.65 226.75 288.85 229.35 290.55 229.4 290.6
Q 232.1 294.4 237.8 293.65 243.7 292.85 246.25 287.5 254.05 290.1 263.55 298.9 268.75 303.7 278.4 312.95 287.85 320.7 295.25 325.35 302.65 330 303.65 328.8 304.65 327.6 298.65 321.25 292.6 314.9 283.15 307.15 281.75 305.5 269.7 297.8 259.55 291.3 260.95 289.75 263.05 288.55 264 286.35
L 265.6 284.55 265.9 284.65
Q 268.35 285 273.5 285.3 283.25 286.2 294.75 285.35 298.15 288.75 302.5 293.85 305.05 296.8 305.45 296.45 302.95 288.05 293.6 278.25 282.65 267.8 278.25 262.8
L 275.45 268.9
Q 278.9 272.75 281.2 274.75 284.1 277.2 286.2 279.4 282.05 279.95 279.85 280.2 275.75 280.7 274.2 277.8 270.1 280.1 267.75 279.2 265.65 277.6 264.4 277.15
L 263.7 273.15
Q 263.55 273.1 257.7 271.4 254.6 270.5 252.75 270.45 247.9 270.25 244.55 275.95
L 244.2 275.25
Q 239.35 271.2 236.9 271.35 235.25 271.45 230.45 274.9
L 227.15 277.3
Q 226.95 272.95 221.15 271.6 215.4 270.25 212.3 273.45 211.25 274.4 210.4 276 211.1 272.45 209.15 269.8 207.4 267.4 204.05 266.4 200.75 265.4 197.35 266.15 193.75 266.95 191.5 269.5 191 270.8 190.8 271.85
L 190.7 270.95
Q 191.15 264.95 186.2 262.3 181.35 259.75 176.9 262.8 175.25 263.35 174.1 264.8
L 173.85 265 173.8 264.5
Q 175.1 257.15 170 255.4 166.3 254.1 161.75 255.8 159.7 256.5 159.3 256.7 158.2 257.25 157.35 258.25
L 157.35 257.45
Q 157.8 249.7 152.55 246.8 147.35 243.9 141.25 248.45 141.25 247.25 141.15 246.65 142 238.65 134.6 237.9 129.3 237.35 125.25 239.45 126.55 231.65 120.95 228.8 116.6 226.65 112 228.05
L 111.4 220.6 106.25 215.4 103.75 215.5
Q 102.65 215.3 101.1 215.55
L 97.2 215.7 97.15 208.05
Q 93.75 203.2 92 202.4 90.1 201.5 84.8 202.4
L 83.45 202.7 83.75 202.75 83.2 202.95
Q 84 200.15 83.05 196.9 81.7 192.9 79.3 190.95 76.75 184.7 70.75 183 78.6 175.55 83 170.75 87.55 165.8 87.05 165.2
L 86.9 165.15
Q 85.25 165.05 73.8 174.4 72.7 173.9 69.65 173.8 66.55 173.75 62.7 174.1 54.75 174.85 53.8 175 52.2408203125 175.185546875 51.25 175.4 53.16328125 174.8142578125 57.35 172.4 64.2 168.45 73.2 161.95 82.15 155.45 88.05 150.15 93.95 144.85 93.25 143.95
L 93.2 143.85
Q 95.9 143.6 95.95 143.1 96 142.65 94.2 142.15 92.35 141.55 89.3 141.15 81.8 140.3 72.9 141.3 66.75 141.95 60.65 143.45 71.1 136.1 81.35 125 88.25 124.65 91.9 119.55 95.1 115.05 95.05 108.15 95.75 107.95 95.6 105.25 95.4 102.35 93.85 101.35 91.3 93.15 83.85 91.55
L 84.15 91.25
Q 87.15 91.15 88.75 91 100.3 90.2 105.65 87.9 102.55 89.3 104.25 88.95 105.8 88.65 107.7 87.9
L 110.25 91.2 117.75 92.35
Q 117.6 94.75 117.6 97.05 116.9 98.25 120.8 102.25 124.65 106.2 125 105.7 126.85 105.95 128.05 105.35 128.55 105.1 130 103.75
L 131.75 103.4 128.25 112.3 129.2 113.75
Q 127.25 114.9 124.65 117.75 120.05 123.05 120.05 129 120.05 131.7 120.6 134.35 121.25 137.35 122.4 139.2 124.5 142.45 128.55 144.1 131.75 145.4 136.9 145.85 144.05 146.5 148.4 142.8 152.2 139.55 153.3 133.5
L 155.95 133.1
Q 156.5 141.9 162.4 144.65 166.8 146.7 170.8 145 171.95 154.1 171.95 153.85 171.6 153.85 173.7 155.15 175.8 156.45 177.15 156.4 179.55 157.35 183.95 156.65
L 185 156.4
Q 184.3 165.25 191.8 168.05 197.35 170.15 201.95 168.6 202.6 175 206.1 177.6 209.85 180.35 216.05 177.9 214 187.45 222.45 190.95 225.5 192.2 228.5 192.05 231.45 191.9 231.7 190.65
L 232.55 189.6
Q 233.6 188.65 234.6 189.25 237.85 192.7 249.1 202.75
L 250.2 203.75
Q 248 204.2 247.1 205.6 245.9 207.3 246 208.75 246.1 209.9 246.8 210.35 247.35 210.7 248.6 210.35
L 250.65 209.8
Q 251 209.85 251.05 209.9 251.05 209.95 250.65 210.2 249.75 210.25 249.7 210.15
L 250.45 211.95
Q 250.9 213.15 251.8 215.75 247.65 214.9 242.6 214.1 230.85 212.25 222.4 211.9 214 211.55 213.75 212.9 213.55 214.1 219.9 216 226.05 217.85 235.85 219.65 238.4 223.65 242.25 228.65 240.55 231.95 240.55 235.5 240.55 238.2 241.15 240.85 241.75 243.85 242.9 245.65 244.95 248.9 249.05 250.55 252.2 251.85 257.4 252.35 259.8 252.5 261.65 252.3 272.2 253.15 274.2 235.5 273.55 226.7 269.45 222.45 270.35 222.2 270.45 221.8 270.7 220.1 258.25 217.1 258.45 216.1 258.45 214.5 258.35 212.55 257.9 210.75 262.85 215.1 266.1 217.6 269.4 220.1 269.75 219.75 270.3 219.25 264.95 213.5 259.6 207.75 251.55 200.2 243.1 192.15 236.6 186.95
L 236.7 185.4
Q 240.5 185.9 242.75 185.75 245.05 185.65 245.25 184.85 245.55 183.7 241.65 181.65 243.85 182.4 245.35 182.5 246.75 182.6 246.85 182.1 246.95 181.65 244.15 179.8 239.4 176.8 236.8 174.8 232.7 171.65 225.65 165.55 225.85 165.75 223.85 166.35 222.038671875 166.92421875 221.95 167.1 219.5857421875 160.844921875 215.3 159.3 211.2 157.8 206.9 160.95
L 205.65 161.45
Q 206.3 152.95 201.25 150.55 197.6 148.85 191.85 150.4
L 190.9 150.8
Q 191.35 148.7 191 146.6
L 191.5 144
Q 198.75 145.35 212.4 145.35 220 145.35 226.35 144.85 232.5 144.35 235.25 143.6 238.9 145.5 241.6 146.3 244 147.05 244.25 146.6 244.5 146.1 241.8 144 237.5 140.8 234.45 138.4 229 134.15 215.2 120.25 214.65 119.7 221.6 120.55 228.55 121.35 227.95 120.75 227.7 120.5 222.05 118.05 216.4 115.65 216.1 115.35 218.15 113.35 218.2 111.2 217.9 108.25 217.85 105.7 217.25 97.3 213.5 93.05 211.65 89.3 204.05 81.15 203.8 79.65 203.05 78.25 202.7 77.5 202.05 76.6 201.2 75.2 199 74.35 197.8 74.05 196.9 74.1
M 196.5 81.1
Q 197 80.9 197.2 80.9
L 197.35 80.95
Q 197.35 81.15 196.5 81.1
M 190.55 92.6
Q 186.55 88.1 184.55 86.65 188.3 87.95 191.05 88.8 193.55 89.5 194.7 89.75 192.65 90.55 190.55 92.6
M 195.4 93.5
Q 198.65 92.1 200.35 92.05
L 201.05 92.1
Q 208.2 92.4 211.85 96.3 215.25 99.95 214.65 105.7 214.65 108.1 213.95 110.55 213.15 113.2 211.9 114.85
L 210.75 116.15 205.3 118.85
Q 202.55 119.25 201.05 119.25 195 119.25 190.95 114.8 187.45 110.9 187.45 105.7 187 104.05 188.2 100.75
L 189.5 97.8 192.55 94.85 195.4 93.5
M 204.2 87.3
L 204.35 86.65 206.55 88.6
Q 205.25 87.8 204.2 87.3
M 162.4 129.45
L 168.55 128.6 172.05 129.75
Q 173.65 131.3 174.05 133.75 174.85 136.8 173.9 139.2 172.75 142.1 168.6 143.2 165.35 144.1 162.45 142.25 159.95 140.65 159.2 137.75 158.05 135.85 159.1 133.25 160.1 130.7 162.4 129.25
L 162.4 129.45
M 179.5 140
Q 180.85 139.7 182.1 139.7
L 187.5 142.05 187.85 142.5 187.8 142.6
Q 187.8 142.7 188.1 143 188.65 143.95 188.9 145.45
L 189.1 146.25 189 150 188.75 150.85
Q 187.9 153 185.5 154.1
L 177.4 154 177.3 153.9
Q 174.8 152.3 174.05 149.4 172.65 147 174.5 143.85 176.35 140.7 179.5 140
M 193.8 151.65
Q 195.3 151.35 196.65 151.35 199.4 151.4 201.15 153 202.85 154.5 203.25 157.1 204.05 160.15 203.05 162.5 201.9 165.45 197.8 166.55 194.4 167.4 191.6 165.55 189.1 163.95 188.35 161.1 186.95 158.7 188.8 155.5 190.65 152.35 193.8 151.65
M 208.65 162.25
Q 210.15 161.95 211.5 161.95 212.55 162.05 213.45 162.25
L 216.8 164.85 217.3 165.3
Q 217.9 166.5 218.1 167.7 219.2 173.25 215.65 175.25 212.6 177 208.45 175.35 204.2 173.65 203.65 170.25 203.05 166.2 208.65 162.25
M 221.5 172.4
L 221.7 169.1 224.75 171.6 221.5 172.4
M 218.2 180.5
Q 218.85 179 220.85 176.55
L 224 175.3 223.2 175.05 223.5 175
Q 225 174.65 226.3 174.7 230 175.05 231.4 177.9 232.4 180.05 232.45 184.95
L 232.1 185.3 232.7 186
Q 231.45 188.85 227.5 189.85 224.15 190.75 221.3 188.9 218.8 187.3 218.05 184.4 217.4 182.45 218.2 180.5
M 109.5 62.2
Q 110.75 63.6 111.1 65.75 111.9 68.8 110.95 71.15 110.05 73.3 107.7 74.4 107.6 74.9 107.05 74.8 106.55 74.75 106.55 74.9
L 105.65 75.2
Q 104.3 75.5 103.15 75.45 101.35 74.8 100.55 74.8 99.7 74.35 99.45 74.2 97.35 72.85 96.5 70.6 95.9 64.75 98.65 62.25 101 60.15 106.25 60.25 108.25 60.75 109.5 62.2
M 117.1 73.4
Q 117.7 73.4 118.7 73.6
L 122.5 76.05
Q 123.4 77.4 123.7 79.15
L 123.7 79.3 123.15 85.3
Q 121.8 87.6 118.25 88.6 114.85 89.45 112.05 87.6 109.55 86 108.8 83.15
L 108.45 82.25 108.25 80.45
Q 108.5 78.2 110.2 76.25 111.95 74.2 114.25 73.7 115.75 73.35 117.1 73.4
M 81.1 84
Q 88.7 77.8 90.95 75.8 92.1 74.8 94.4 72.6
L 97.9 77.3 99.45 76.75
Q 101.85 77.65 106.1 76.95
L 106.45 76.9 106.05 84.45
Q 89.9 86.7 85.45 87.25 78.9 88.05 78.2 87.45 77.55 86.9 81.1 84
M 121 96.4
Q 119.85 94.45 120.9 91.85 121.95 89.35 124.25 87.9
L 128.4 86.65 129.25 86.65
Q 131.25 86.7 132.85 87.6
L 134.65 89.25
Q 135.6 90.7 135.9 92.4 136.7 95.45 135.7 97.8 134.55 100.75 130.45 101.85 127.05 102.7 124.25 100.85 121.75 99.25 121 96.4
M 77.55 94.5
L 78.25 94.5
Q 83.15 94.7 87.9 99.35 90.3 101.7 91.7 103.95
L 90.85 113.75 85.6 120.2 76.5 121.6
Q 74.95 121.1 73.1 120.3 69.45 118.65 68.15 117.2 64.65 113.4 64.65 108.1 63.4 103.55 67.7 99.05 72 94.6 77.55 94.5
M 51.25 193.9
L 59.45 186.6 67.5 186.1 74.55 189.5 76.45 191.85 77.3 194.55
Q 78.05 197.6 77.85 199.35 77.85 201.7 76.25 206.65
L 75.85 206.8 74.95 208.75
Q 72.35 211.2 70.65 211.9
L 68.4 211.55 63.05 213.25 60.45 210.7 56.45 210.45
Q 55.35 209.75 54.2 208.5 53.1 207.25 51.85 204.1
L 50.8 201.2 51.25 193.9
M 143.4 102.3
Q 145.15 102.75 146.2 103.9
L 147.05 104.95
Q 147.85 106.2 148.05 107.8 148.45 109.05 148.4 110.55 148.4 112.1 147.9 113.2 147.65 113.9 147.2 114.45 143.45 111.85 137.8 112.15
L 138.6 111.4
Q 139.7 110.15 140.1 107.95 140.25 107.15 140.25 106.25 140.25 103.95 139.4 102.25
L 143.4 102.3
M 142.7 118.2
Q 146.6 119.9 147.1 119.1 150.35 125.25 150.5 129.75 150.65 134.25 147.75 138.15 144.4 142.6 136.9 142.6 133.9 142.6 131.25 141.4 128.65 140.25 126.8 138.15 123.3 134.35 123.3 129 126.5 115.7 134.8 115.9 137.75 116 142.7 118.2
M 151.9 115.6
Q 153.4 115.25 154.75 115.3 157.5 115.4 159.25 116.95 160.95 118.45 161.35 121.05 162.15 124.1 161.2 126.45 160 129.35 155.9 130.45 154.8 130.75 153.65 130.75
L 153.7 129
Q 153.15 120.95 149.55 116.65 150.6 115.9 151.9 115.6
M 133.35 102.9
L 133 104.15 132.65 104.75 132.95 103.05 133.35 102.9
M 132.9 107.95
Q 133.15 109.65 134.05 110.95 134.2 111.15 135 111.7
L 135.55 111.7
Q 136.6 111.45 135.95 112.25
L 133.4 112.45 133.2 111.75
Q 132.25 110.15 132.9 107.95
M 80.5 194.85
Q 81.05 195.9 81.3 197.35 82.1 200.4 81.15 202.75
L 80.75 203.55
Q 81.1 201.65 81.1 199.35 81 197.6 80.5 194.85
M 129.55 239.7
Q 131.1 239.35 132.4 239.4 135.15 239.5 136.9 241.05 138.6 242.55 139 245.15 139.8 248.2 138.85 250.55 138.55 251.4 137.75 252.25
L 131.75 254.8
Q 129.4 254.85 127.35 253.6 124.95 252.05 124.1 249.1 122.7 246.7 124.55 243.55 126.4 240.4 129.55 239.7
M 122.75 235.05
Q 123.55 238.1 122.6 240.45 121.45 243.4 117.3 244.5 113.95 245.35 111.15 243.5 108.65 241.9 107.9 239.05 106.5 236.65 108.35 233.45 110.2 230.3 113.35 229.6 114.55 229.3 116.15 229.3 118.95 229.35 120.7 230.95 122.35 232.5 122.75 235.05
M 102.5 217.55
Q 105.25 217.65 107 219.2 108.7 220.75 109.1 223.3 109.9 226.35 108.95 228.7 107.75 231.65 103.65 232.75 100.3 233.6 97.45 231.75 95 230.15 94.2 227.3 92.8 224.9 94.7 221.7 96.5 218.55 99.65 217.85 101.25 217.55 102.5 217.55
M 92.6 205.5
Q 94.3 207 94.7 209.6 95.5 212.65 94.55 215 93.4 217.85 89.25 219.05 85.9 219.9 83.1 218.05 81.9 217.3 81.05 216.15 81.3 215.9 81.3 215.65 81.3 215.05 80.1 214.35
L 79.85 213.55
Q 78.45 211.15 80.3 208 82.15 204.85 85.3 204.15 86.8 203.8 88.1 203.85 90.85 203.95 92.6 205.5
M 153.05 250.2
Q 154.7 251.75 155.1 254.3 155.9 257.35 154.95 259.75 153.8 262.65 149.65 263.75 146.4 264.65 143.5 262.8 141 261.2 140.25 258.3 138.85 255.9 140.7 252.75 142.55 249.55 145.7 248.85 147.2 248.55 148.5 248.55 151.3 248.6 153.05 250.2
M 156.3 263.9
Q 156.65 261.75 158.3 259.95 160 258.05 162.2 257.55 163.8 257.25 165.05 257.25 167.8 257.35 169.55 258.9 171.25 260.45 171.65 263 172.45 266.05 171.5 268.4 170.3 271.35 166.2 272.45 162.85 273.3 160 271.45 158.95 270.8 158.15 269.75
L 156.3 263.9
M 77.2 211.7
L 77.85 210.95
Q 77.7 212.15 77.9 213.3
L 77.2 211.7
M 76.85 212.1
L 77.35 213.3 76 212.95 76.85 212.1
M 49.8 209.5
L 50.35 210.3
Q 43.7 210.3 39.5 210.9
L 47.85 203.8
Q 48.45 207.35 49.8 209.5
M 245.2 224.25
L 245.15 224.25 241.2 220.55 247.95 221.5
Q 246.7 222.55 245.2 224.25
M 247.15 226.2
L 249.7 224.45
Q 252.55 222.6 254.2 222.2 259 222.7 262.7 222.8 267.25 224.25 269.4 227.7 271.5 231 271 235.5 271 237.9 270.25 240.4 269.5 243 268.25 244.65 267.9 245.1 267.1 245.9
L 266.4 246.55 258.85 249.05 257.4 249.1
Q 254.45 249.1 251.8 247.9 249.2 246.75 247.3 244.65 243.8 240.75 243.8 235.5 243.55 234.55 243.75 232.65
L 244 230.95 247.15 226.2
M 255.85 274
Q 259.75 274.1 261.55 277.1 262.05 277.25 262.55 280.5 263.05 283.8 262.6 283.85 262.6 284.25 262.45 284.55
L 259.5 288.15
Q 258.55 288.7 257 289.15 253.65 290.05 250.8 288.2 248.3 286.6 247.55 283.7 246.15 281.3 248 278.15 249.85 275 253 274.3 254.5 273.95 255.85 274
M 243.3 280.95
Q 244.1 284 243.15 286.35 241.9 289.3 237.85 290.4 234.45 291.25 231.65 289.4 229.15 287.8 228.4 284.95 228.1 284.35 227.95 283.7 228.15 282.7 228.05 281.25 228.6 279.25 230.15 277.65 231.8 275.95 233.85 275.5 235.05 275.2 236.7 275.2 239.45 275.25 241.2 276.85 242.9 278.35 243.3 280.95
M 188.55 269.4
Q 188.9 270.7 188.85 272.15 188.85 273.7 188.4 274.8 187.2 277.7 183.1 278.8 179.8 279.7 176.9 277.85 174.45 276.2 173.65 273.35 172.25 270.95 174.15 267.8 175.95 264.65 179.1 263.95 180.7 263.6 181.95 263.65 184.7 263.75 186.45 265.3 188.15 266.8 188.55 269.4
M 198.25 269
Q 199.75 268.7 201.05 268.7 203.8 268.8 205.55 270.35 207.25 271.9 207.65 274.45 208.45 277.5 207.5 279.9 206.35 282.8 202.2 283.9 201.05 284.25 199.65 284.15
L 195.4 282.5
Q 193.45 280.9 192.8 278.45 191.4 276.05 193.25 272.9 195.1 269.7 198.25 269
M 216.4 273.6
Q 217.9 273.25 219.25 273.3 222 273.35 223.75 274.9 225.45 276.45 225.85 279.05 226.2 280.35 226.15 281.8 226.1 283.35 225.65 284.45 224.5 287.35 220.4 288.45 217.05 289.35 214.2 287.5 211.7 285.9 210.95 283 209.55 280.6 211.4 277.45 213.25 274.3 216.4 273.6
M 176.95 36.55
Q 170.8 31.65 164.75 26 154.5 17.85 147.5 8.7 144.4 4.6 143.4 3.2 141.75 1.05 141.2 1
L 141.05 1.05
Q 140.45 1.25 141.05 3.95 141.7 7.05 143.7 11.05 149.05 21.85 160.25 31.5 166.6 36 173.95 39.8 179.25 42.6 192.8 48.9 180.25 45.35 171.85 44 163.6 42.65 163.35 44.1 163.1 45.55 171.55 47 180.2 48.5 193.95 49.3 184.2 42.35 176.95 36.55 Z"/>
</g>

<g id="Parts_Bodies_bodyMC_44_Layer14_0_MEMBER_26_FILL">
<path fill="#DADADA" stroke="none" d="
M 171.9 42.75
L 170.9 42.25
Q 170.25 41.85 170.5 41.8 170.5 41.6 170.75 41.7 168.55 39.8 167.5 39.65 167.05 39.6 166.8 39.7 164.8 39.25 163.85 39.25
L 157.7 39.6 155.5 38.85 153.85 38.5
Q 149.25 38.55 146.9 39.2 143.8 38.2 141.05 38.3 139.55 37.05 138.3 36.8 134.8 35.75 133.3 36.15 130.85 36.4 129.15 37.1 124.2 39.4 122.35 40.75 119.6 42.85 119.8 45 120.05 47.05 122.6 48.8 122.95 49.05 124.2 49.8 124.75 51.85 126.35 54.1 130.95 58.1 133 57.85 134.8 58.55 137.2 58.8 142.4 62.3 148.9 61.45 150.9 61 152.85 60.45 155.25 61.35 156.25 61.8
L 157.1 61.7 161.7 60.6 161.85 60.6
Q 163.7 63.15 168.65 64.8 174.1 64.9 177.9 62.95 180.3 61.85 182.3 59.85 184.15 58.1 184.5 56.75 185 54.85 183.05 53.2 182.1 52.35 180.45 51.55
L 180.1 49.25
Q 170.85 39.3 173.85 43.5
L 172.25 42.9 172.05 42.8 171.9 42.75
M 169.9 46.5
L 175.75 48.6 175.65 49.55
Q 176.2953125 49.907421875 176.85 50.25 176.1638671875 50.01640625 175.65 49.85
L 175.2 56.55 165.65 57.1 156.65 54.95 146.55 56.05 140.75 54.45 132.8 50.75 131.7 44.35 137 42.8
Q 139.15 42.8 149.75 44.9 152.4 44.9 159.3 43.85
L 169.9 46.5
M 148.25 59.55
Q 148.2 59.4 149.55 59.3
L 151.7 60 152.05 60.15 150.6 60.2 149.7 60
Q 148.25 59.65 148.25 59.55
M 172.9 48.35
Q 173.05 48.85 174.25 49.35 174.426953125 49.420703125 175.65 49.85
L 175.65 49.55
Q 174.4158203125 48.92265625 172.9 48.35 Z"/>
</g>

<g id="Parts_Bodies_bodyMC_44_Layer14_0_MEMBER_27_FILL">
<path fill="#898989" stroke="none" d="
M 166.25 42.45
Q 169.25 42.9 170.25 44 174.35 48 176.7 51.35 178.85 54.5 179.45 56.65 179.9 58.8 179.5 59.6 179.3 60.5 178 61.25 176.6 62 174.35 62.1 172 62.3 168.9 61.65 163.75 60.6 158.85 58.25 155.15 56.45 155.05 56.55 155.05 56.6 157.9 59.6 162 62.95 168.1 64.85 171.4 65.85 174.4 65.9 177.35 66 179.8 64.9 182.25 63.85 183.5 61.25 184.55 58.5 183.8 55.55 182.9 52.1 180.6 48.7 177.85 44.55 173.8 40.5 170.95 37.8 166.75 37.45 163.65 37.15 159.65 37.5
L 159.3 37.5
Q 154.65 37.8 152.7 37.55 149.5 37 148.35 35.7 145.1 32.75 140.4 33.05 136.05 33.2 131.6 35.15 127.2 37.1 124.15 40.2 120.9 43.45 120.85 47.55 121 51 122.9 53.75 124.55 56.05 127.3 57.65 132.85 60.9 136.5 59.75 136.5 59.6 134.25 58.65 131.25 57.4 128.75 55.45 126.55 53.65 125.6 52 124.5 50 124.55 47.55 124.55 45.8 127.1 43.15 129.35 41 133.35 39.35 137.3 37.85 140.45 37.85 143.95 38.15 144.8 39.25 147.75 42.05 152.05 42.55 154.7 42.9 159.65 42.6
L 159.95 42.55
Q 164.4 42.25 166.25 42.45 Z"/>
</g>

<g id="Parts_Bodies_bodyMC_44_Layer14_0_MEMBER_28_FILL">
<path fill="#FDFDFD" fill-opacity="0.4235294117647059" stroke="none" d="
M 73.3 152.65
Q 50.65 178 77.6 157.65 96.65 137.55 101.3 130.1 104.8 124.5 101.35 123.25 84.65 140 73.3 152.65 Z"/>
</g>

<g id="Parts_Bodies_bodyMC_44_Layer14_0_MEMBER_29_FILL">
<path fill="#FDFDFD" fill-opacity="0.4235294117647059" stroke="none" d="
M 168.2 335.3
Q 172.15 336.25 177.55 330.9 178.5 337.8 182.95 324 188.25 305.9 190.4 300.7 186 306.45 178.15 319.15 170.65 329.65 161.9 332.6 163.05 332.85 165.05 333.95 167.1 335.05 168.2 335.3
M 273.3 330.45
Q 273.1166015625 330.4119140625 272.9 330.35 276.30546875 331.9212890625 278.75 332.05 281.65 332.15 273.3 330.45
M 237.35 300.15
Q 236.55 299.1 234.75 300.6 233 302.05 232.9 303.5 232.55 310.6 241.35 316.8 244.4 318.95 249.5 321.65 252.3 323.15 257.5 325.9 260.996875 327.8701171875 272.9 330.35 267.1375 327.7115234375 258.6 320.85 252.45 315.8 246.1 309.5 240.6 304.05 237.35 300.15
M 56.25 316.5
Q 54.35 316 47.85 316.4
L 14.3 333.15 16.55 339.85
Q 36.35 330.1 43.6 326.3 53.5 321.15 56.1 319 58.35 317.1 56.25 316.5
M 81.95 190.05
Q 83.2 187.3 87.3 181.25 93 172.85 94.5 170.45 103.15 156.45 100.4 149.25
L 77.5 185 81.95 190.05
M 228.4 197.85
Q 221.65 195.55 217.5 195.6 213.3 195.65 216.2 198.1 224.25 204.85 269.8 217.45 273.8 217 270.85 214.2 264.85 208.4 228.4 197.85 Z"/>
</g>

<g id="Parts_Bodies_bodyMC_44_Layer14_0_MEMBER_30_FILL">
<path fill="#FDFDFD" fill-opacity="0.4235294117647059" stroke="none" d="
M 184.1 122.45
Q 173.3 120.55 188.15 129.1
L 215.55 139.15
Q 219.5 140.65 231.45 148.9 238 152.3 222.25 133.55 193.25 124.05 184.1 122.45 Z"/>
</g>

<g id="Parts_Bodies_bodyMC_44_Layer13_0_MEMBER_0_FILL">
<path fill="#FF0000" stroke="none" d="
M -8.65 138.5
L -9.05 138.5
Q -12.4 138.55 -14.9 141.35 -17.45 144 -16.7 146.85 -16.7 147.6 -16.55 148.65 -16.55 148.7 -15.85 150.25 -15.15 151.5 -15.5 151.25 -15.3 151.7 -14.7 152.4
L -13.8 153.2
Q -13.2 153.15 -12.55 153.6 -11.9 154 -12.1 154.3 -10.4 155.1 -8.65 155.1 -4.15 155.1 -2.2 152.45 -1.5 151.4 -0.95 149.75 -0.6 148.3 -0.6 146.85 -0.2 143.3 -2.3 141.05 -4.4 138.65 -8.65 138.5
M 107.2 115
Q 105.05 114.95 102.3 114.65 101.35 114.9 99.65 116
L 98.15 117.1 96.3 119.9 96.15 121
Q 96 122.15 96.15 122.7 96.15 125.9 98.2 128.25 99.4 129.5 100.95 130.2 102.45 130.95 104.2 130.95
L 105.1 130.95 109.5 129.4 109.95 129.05
Q 110.4 128.55 110.6 128.25 111.35 127.3 111.85 125.7 112.3 124.2 112.3 122.7 112.55 120 111.3 118 110.05 115.9 107.35 115 107.25 115 107.2 115
M 79.2 162.3
Q 76.7 162.35 73.8 166 72.35 167.85 71.4 169.7
L 71.8 172.75 72.35 174.15
Q 72.75 175.1 73.15 175.75 73.4 176.05 73.65 176.35 74.75 177.6 76.25 178.35 77.85 179.1 79.6 179.1 84.05 179.1 86.1 176.35 86.2 176.05 86.4 175.75 86.6 175.45 86.75 175.05
L 87.15 174.15 87.65 171.3 87.65 170.65
Q 88.05 167.15 86 164.85 83.8 162.45 79.6 162.3
L 79.2 162.3
M 1.7 102.3
Q 1.8 101.15 1.3 99.25
L 0.85 97.55 -0.3 96.1 -4.5 94 -9.4 94.25 -14.3 98.85 -14.5 103.5 -13.9 105.3
Q -13.2 107.25 -12.5 108.05 -11.85 108.8 -11.2 109.3
L -8.8 109.4 -7.25 111.05 -4 109.95 -2.6 110.15
Q -1.65 109.8 -0.05 108.15
L 0.45 107 0.65 106.9
Q 1.7 103.75 1.7 102.3
M 43.35 106.45
L 42.9 106.45
Q 39.6 106.5 37.1 109.2 34.5 111.95 35.3 114.75 35.3 118 37.4 120.35 38.45 121.7 40 122.35 41.6 123.05 43.35 123.05 47.8 123.05 49.8 120.35 50.5 119.35 50.95 117.7 51.35 116.25 51.35 114.75 51.75 111.3 49.75 109.05 47.6 106.6 43.35 106.45
M 38.6 55.2
Q 35.65 53.85 33.95 53.75 29.7 53.65 27.75 59.55 27.4 60.6 27.05 61.8 27.05 65.05 29.15 67.4 30.25 68.65 31.8 69.35 33.35 70.1 35.15 70.1 39.6 70.1 41.6 67.4 43.3 65 43.25 62.2 43.2 60.95 42.8 59.55 42.25 57.75 41.2 55.7 40.95 56.25 38.6 55.2
M 1.85 41.1
L 1.4 41.1
Q -2 41.2 -4.7 44.15 -7.3 47.1 -6.55 50.2 -6.55 53.65 -4.35 56.25 -3.05 57.7 0.75 59.1
L 6.35 58.15 9.65 53.85 10.1 47.45
Q 9.3 45.85 7.85 44.35 4.9 41.25 1.85 41.1
M 72 39.9
L 71.6 39.9
Q 70.6 39.9 68.65 40.75
L 67 41.55 65.15 43.35 64.4 45.15
Q 63.7 47.15 63.95 48.1 63.95 51.25 66.05 53.6 68.45 56.35 72 56.35 72.85 56.35 74.55 56.1
L 77.75 54.5 78.45 53.65
Q 79.2 52.65 79.65 51.05 80.05 49.6 80.05 48.1 80.4 44.65 78.45 42.45 76.25 40.05 72 39.9 Z"/>
</g>

<g id="Parts_Bodies_bodyMC_44_Layer9_0_MEMBER_0_FILL">
<path fill="#050000" fill-opacity="0.2627450980392157" stroke="none" d="
M 161.65 210.5
Q 157.2 206.05 150.9 206.05 144.6 206.05 140.15 210.5 135.7 214.95 135.7 221.25 135.7 227.55 140.15 232 144.6 236.45 150.9 236.45 157.2 236.45 161.65 232 166.1 227.55 166.1 221.25 166.1 214.95 161.65 210.5
M 143.6 216.75
Q 145.6 214.8 146.5 213.8 147.5 212.6 148.05 212.05 149 211.1 149.9 210.9 151.05 210.65 152.6 211.2 152.7 211.25 155.25 212.35 157.55 213.45 158.15 214.3 158.85 215.35 159.2 217.1 159.35 218.1 159.6 220.15 159.75 220.8 160.05 222.1 160.3 223.2 160.1 224 159.55 226.3 157.2 228.4 153.9 231.15 150.85 231.3 148.75 231.4 146.9 230.85 144.8 230.25 143.55 228.9 142.1 227.25 141.6 224.75 141.1 222.4 141.6 220.15 142 218.5 143.6 216.75 Z"/>
</g>

<g id="Parts_Bodies_bodyMC_44_Layer9_0_MEMBER_1_FILL">
<path fill="#050000" fill-opacity="0.2627450980392157" stroke="none" d="
M 272.7 235.05
Q 272.7 228.75 268.25 224.3 263.8 219.85 257.5 219.85 251.2 219.85 246.75 224.3 242.3 228.75 242.3 235.05 242.3 241.35 246.75 245.8 251.2 250.25 257.5 250.25 263.8 250.25 268.25 245.8 272.7 241.35 272.7 235.05
M 257.15 244.85
Q 252.3 245.05 249.85 242.4 248.4 240.8 247.9 238.3 247.45 235.95 247.95 233.65 248.3 232 249.9 230.25 250.8 229.2 252.8 227.3 257.85 221.75 262.9 226.65 264.95 228.65 265.95 231.65 267 234.8 266.4 237.55 265.85 239.9 263.5 241.9 260.3 244.65 257.15 244.85 Z"/>
</g>

<g id="Parts_Bodies_bodyMC_44_Layer9_0_MEMBER_2_FILL">
<path fill="#050000" fill-opacity="0.2627450980392157" stroke="none" d="
M 198.25 90.65
Q 192.05 91.7 188.35 96.8 184.7 101.95 185.75 108.15 186.8 114.35 191.9 118.05 197.05 121.7 203.25 120.65 209.5 119.6 213.15 114.45 216.8 109.35 215.75 103.15 214.7 96.9 209.55 93.25 204.45 89.6 198.25 90.65
M 199.05 94.75
Q 200.4 94.75 202.15 95.6 203.15 96.1 205.15 97.15 205.8 97.45 207.15 98 208.3 98.5 208.9 99.2 210.6 101.1 210.95 104.55 211.3 109.2 209.55 112 208.3 113.95 206.65 115.25 204.7 116.75 202.75 116.95 200.4 117.2 197.85 116.1 195.45 115.05 193.75 113.15 192.5 111.8 191.95 109.25 191.5 106.25 191.2 104.8 190.8 103.15 190.65 102.35 190.4 100.9 190.8 99.95 191.3 98.75 192.75 97.75 192.8 97.7 195.45 96.1 197.95 94.75 199.05 94.75 Z"/>
</g>

<g id="Parts_Bodies_bodyMC_44_Layer9_0_MEMBER_3_FILL">
<path fill="#050000" fill-opacity="0.2627450980392157" stroke="none" d="
M 134.6 115.05
Q 128.35 116.05 124.7 121.2 121.05 126.35 122.1 132.55 123.15 138.8 128.3 142.45 133.4 146.1 139.6 145.05 145.85 144 149.5 138.85 153.15 133.7 152.1 127.5 151.05 121.35 145.95 117.65 140.8 114 134.6 115.05
M 143 122.15
Q 144.65 122.9 145.25 123.6 147.05 125.6 147.3 128.95 147.75 133.45 145.9 136.4 144.4 138.75 139.1 141.35 137.4 141 135.45 140.35 131.5 139.05 130.1 137.55 128.85 136.2 128.35 133.65 127.9 130.65 127.6 129.2 127.15 127.55 127 126.75 126.75 125.3 127.15 124.35 127.6 123.2 129.75 121.75 130.85 121 131.8 120.5
L 135.4 119.15 143 122.15 Z"/>
</g>

<g id="Parts_Bodies_bodyMC_44_Layer9_0_MEMBER_4_FILL">
<path fill="#050000" fill-opacity="0.2627450980392157" stroke="none" d="
M 65.85 99.45
Q 62.2 104.6 63.25 110.8 64.25 117.05 69.4 120.7 74.55 124.35 80.75 123.3 87 122.25 90.65 117.1 94.3 112 93.25 105.8 92.2 99.55 87.05 95.9 81.9 92.25 75.7 93.3 69.55 94.35 65.85 99.45
M 72.95 98.75
L 76.55 97.4 84.15 100.4
Q 85.8 101.15 86.4 101.85 88.1 103.75 88.45 107.2 88.8 111.85 87.05 114.65 85.55 117 80.25 119.6 78.55 119.25 76.6 118.6 72.65 117.3 71.25 115.8 70 114.45 69.45 111.9 69 108.9 68.7 107.45 68.3 105.8 68.15 105 67.9 103.55 68.25 102.6 68.75 101.45 70.9 100
L 72.95 98.75 Z"/>
</g>

<g id="Parts_Bodies_bodyMC_44_Layer9_0_MEMBER_5_FILL">
<path fill="#050000" fill-opacity="0.2627450980392157" stroke="none" d="
M 62.45 184.5
Q 56.25 185.55 52.6 190.7 48.95 195.85 49.95 202.05 51 208.25 56.15 211.9 61.3 215.55 67.5 214.5 73.7 213.5 77.35 208.35 81 203.2 80 197 78.95 190.8 73.8 187.1 68.65 183.45 62.45 184.5
M 65.75 192.05
Q 67.35 192.95 68.4 193.8 70.1 195.2 73.05 198.45
L 71.55 200.95
Q 69.9 203.7 68.85 204.95 68.15 205.75 66.75 207.6 65.4 209.05 64.05 209.2 62.5 209.4 60.65 208.3 59.45 207.55 57.7 205.9 56.1 204.4 55.95 202.3 56.05 199.9 55.9 198.7
L 55.55 194.45
Q 57.6 192.05 58.9 191.15 60.65 189.95 61.45 189.95 62.45 189.95 63.7 190.7 64.4 191.15 65.75 192.05 Z"/>
</g>

<g id="Parts_Bodies_bodyMC_44_Layer9_0_MEMBER_6_FILL">
<path fill="#050000" fill-opacity="0.2627450980392157" stroke="none" d="
M 57.15 261.4
Q 50.95 262.45 47.3 267.6 43.75 272.55 45.4 279.7 46.95 286.5 51.65 289.85 56.2 293.05 62.3 291.7 68.45 290.35 72.05 285.25 75.7 280.1 74.7 273.9 73.65 267.7 68.5 264 63.35 260.35 57.15 261.4
M 62.2 269.2
Q 63.05 269.65 64.8 270.55 65.4 270.8 66.55 271.25 67.55 271.7 68.1 272.3 69.65 274.05 69.9 277 70.2 281.15 68.65 283.55 67.6 285.2 66.1 286.35 64.45 287.65 62.7 287.85 60.65 288.1 58.45 287.1 56.35 286.15 54.85 284.5 53.8 283.35 53.3 281.1 52.85 278.5 52.6 277.25 52.25 275.8 52.15 275.1 51.9 273.8 52.25 273 52.65 271.95 53.95 271.05 54.4 270.7 56.35 269.65 58.25 268.45 59.45 268.45 60.65 268.45 62.2 269.2 Z"/>
</g>

<g id="Parts_Bodies_bodyMC_44_Layer9_0_MEMBER_7_FILL">
<path fill="#050000" fill-opacity="0.2627450980392157" stroke="none" d="
M 229 316.85
Q 227.95 310.65 222.85 307 217.7 303.35 211.5 304.35 205.3 305.4 201.6 310.55 197.95 315.7 199 321.9 200.05 328.1 205.2 331.75 210.3 335.4 216.5 334.4 222.75 333.35 226.4 328.2 230.05 323.05 229 316.85
M 204.45 318.55
L 204.05 313.65 208.7 309.85 212.3 308.5 218.4 310.9
Q 222.65 314.3 223.55 318.25 224.45 321.85 222.35 324.65 220.3 327.45 216.3 328.2 212 328.95 207 326.85
L 204.45 318.55 Z"/>
</g>

<g id="Parts_Bodies_bodyMC_44_Layer9_0_MEMBER_8_FILL">
<path fill="#FCFCFC" fill-opacity="0.3568627450980392" stroke="none" d="
M -8.3 123.95
Q -9.1 123.55 -10.15 124.2 -11.2 124.95 -11.9 126.3 -12.6 127.7 -12.5 128.95 -12.45 130.2 -11.65 130.6 -10.85 131 -9.8 130.3 -8.7 129.65 -8.05 128.25 -7.35 126.85 -7.45 125.6 -7.5 124.35 -8.3 123.95
M -8 79.55
Q -8.85 79.3 -9.7 80 -10.55 80.75 -10.95 82 -11.35 83.25 -11 84.3 -10.65 85.4 -9.8 85.65 -8.95 85.9 -8.1 85.2 -7.2 84.5 -6.85 83.25 -6.45 81.95 -6.8 80.9 -7.15 79.8 -8 79.55
M -0.7 26.4
Q -1.55 26.1 -2.5 26.85 -3.5 27.55 -4.05 28.95 -4.6 30.3 -4.45 31.55 -4.25 32.75 -3.4 33.1 -2.6 33.4 -1.6 32.7 -0.6 31.95 -0.05 30.55 0.5 29.2 0.3 28 0.15 26.75 -0.7 26.4
M 104.45 101.15
Q 103.7 100.65 102.75 100.95 101.8 101.25 101.2 102.15 100.6 103.1 100.75 104.1 100.8 105.05 101.55 105.55 102.3 106.05 103.3 105.75 104.2 105.45 104.8 104.5 105.4 103.6 105.3 102.6 105.2 101.6 104.45 101.15
M 76.7 148.8
Q 75.6 149.75 74.85 151.45 74.1 153.15 74.1 154.6 74.15 156.05 74.95 156.45 75.75 156.8 76.9 155.85 78 154.9 78.8 153.2 79.5 151.5 79.5 150.05 79.45 148.6 78.65 148.2 77.85 147.9 76.7 148.8
M 40.35 91.75
Q 39.4 92.7 38.9 94.25 38.4 95.85 38.65 97.15 38.9 98.45 39.75 98.75 40.55 99 41.55 98.05 42.5 97.15 43 95.55 43.5 94 43.25 92.7 43 91.4 42.15 91.1 41.3 90.85 40.35 91.75
M 33.95 38.25
Q 33.1 38.05 32.15 39.3 31.25 40.55 30.8 42.5 30.35 44.45 30.65 45.95 30.95 47.5 31.8 47.7 32.7 47.9 33.6 46.65 34.55 45.4 34.95 43.45 35.45 41.5 35.1 40 34.85 38.45 33.95 38.25
M 70.4 26.4
Q 69.6 26.1 68.55 27 67.5 27.95 66.9 29.6 66.25 31.2 66.4 32.6 66.55 34 67.4 34.3 68.2 34.6 69.25 33.7 70.25 32.75 70.9 31.15 71.55 29.5 71.4 28.1 71.25 26.7 70.4 26.4 Z"/>
</g>

<g id="Parts_Bodies_bodyMC_44_Layer9_0_MEMBER_9_FILL">
<path fill="#000000" fill-opacity="0.1843137254901961" stroke="none" d="
M 82.25 195.9
L 78.75 193.35 78.75 203.6 75.7 209.95 80.85 218.15 85.4 220.25 94.45 218.15 93.25 222.4 93.25 229.35 97.2 233.55 106.25 233.25 106.6 240.25 110.8 245.35 116.25 245.35 123.2 242.65 122.3 249.3 127.45 255.95 133.8 255.95 138.95 252.35 138.35 259 142.6 263.85 146.2 265.35 151.35 263.85 155.6 261.7 155.9 271.7 162.85 273.5 170.1 272.3 173.75 277.45 181 280.45 190.4 275.35 193.1 281.7 198.55 285.3 206.75 283.2 208.55 280.45 210.95 288.65 217.95 291.35 227.6 286.2 231.25 291.65 238.5 292.25 245.75 286.55 253.05 289.85 257.55 291.05 264.85 284.1 262.4 273.5 249.1 272.9 244.25 278.65 236.4 272.6 227.3 278.35 223.7 273.5 215.2 272 209.75 277.15 206.45 269.3 199.75 267.75 193.1 269.3 191 273.5 188.25 265.65 183.75 262.9 178 262.6 173.75 266.25 172.45 258.55 164.15 255.7 156.3 258.8 155.75 253.5 153.25 248.15 148.5 247.9 144.3 248.15 141.2 249.85 140.35 243.15 136.45 239.8 133.95 238.65 128.9 238.95 125.55 239.8 123.6 237.85 123.3 231.1 117.15 228.6 110.45 228.9 110.2 221.6 105.7 216.05 96.2 216.6 96.2 207.9 92.3 202.6 82.8 203.75 82.25 195.9
M 127 247.1
Q 127 245.1 128.6 243.65 130.2 242.25 132.45 242.25 134.7 242.25 136.3 243.65 137.85 245.1 137.85 247.1 137.85 249.1 136.3 250.5 134.7 251.9 132.45 251.9 130.2 251.9 128.6 250.5 127 249.1 127 247.1
M 84.35 208.35
Q 85.7 206.85 87.65 206.85 89.65 206.85 91 208.35 92.4 209.85 92.4 212 92.4 214.15 91 215.65 89.65 217.15 87.65 217.15 85.7 217.15 84.35 215.65 82.95 214.15 82.95 212 82.95 209.85 84.35 208.35
M 97.35 227
Q 97.35 224.9 98.75 223.4 100.15 221.9 102.1 221.9 104.05 221.9 105.45 223.4 106.85 224.9 106.85 227 106.85 229.15 105.45 230.65 104.05 232.15 102.1 232.15 100.15 232.15 98.75 230.65 97.35 229.15 97.35 227
M 112.9 233.8
Q 114.15 232.15 115.95 232.15 117.75 232.15 119.05 233.8 120.3 235.4 120.3 237.7 120.3 240 119.05 241.6 117.75 243.25 115.95 243.2 114.15 243.2 112.9 241.6 111.6 240 111.6 237.7 111.6 235.4 112.9 233.8
M 143.7 252.05
Q 145.2 250.55 147.35 250.55 149.5 250.55 151 252.05 152.5 253.5 152.5 255.6 152.5 257.65 151 259.15 149.5 260.6 147.35 260.6 145.2 260.6 143.7 259.15 142.2 257.65 142.2 255.6 142.2 253.5 143.7 252.05
M 158.8 264.25
Q 158.8 262.2 160.4 260.7 162 259.25 164.25 259.25 166.5 259.25 168.1 260.7 169.7 262.2 169.7 264.25 169.7 266.35 168.1 267.85 166.5 269.3 164.25 269.3 162 269.3 160.4 267.85 158.8 266.35 158.8 264.25
M 258.35 279.9
Q 259.6 281.15 259.6 282.95 259.6 284.75 258.35 286.05 257.1 287.3 255.35 287.3 253.6 287.3 252.35 286.05 251.1 284.75 251.1 282.95 251.1 281.15 252.35 279.9 253.6 278.6 255.35 278.6 257.1 278.6 258.35 279.9
M 183.7 266.7
Q 185.1 268.2 185.1 270.4 185.1 272.6 183.7 274.1 182.25 275.65 180.25 275.65 178.25 275.65 176.85 274.1 175.4 272.55 175.4 270.4 175.4 268.25 176.85 266.7 178.25 265.15 180.25 265.15 182.25 265.15 183.7 266.7
M 195.85 271.75
Q 197.3 270.1 199.35 270.1 201.4 270.1 202.85 271.75 204.3 273.35 204.3 275.65 204.3 277.95 202.85 279.55 201.4 281.15 199.35 281.15 197.3 281.15 195.85 279.55 194.4 277.95 194.4 275.65 194.4 273.35 195.85 271.75
M 216.5 278.3
Q 217.9 276.8 219.8 276.8 221.7 276.8 223.1 278.3 224.45 279.8 224.45 281.85 224.45 283.95 223.1 285.45 221.7 286.9 219.8 286.9 217.9 286.9 216.5 285.45 215.15 283.95 215.15 281.85 215.15 279.8 216.5 278.3
M 235.6 279.2
Q 237.45 279.2 238.75 280.4 240.05 281.65 240.05 283.35 240.05 285.05 238.75 286.3 237.45 287.5 235.6 287.5 233.75 287.5 232.45 286.3 231.15 285.05 231.15 283.35 231.15 281.65 232.45 280.4 233.75 279.2 235.6 279.2
M 169.2 127.95
L 162.85 127.65 162.25 119.2 159.25 115.85 155.6 113.75 149.85 114.35 149.55 106.8 146.2 102.55 142.9 101.05 137.15 101.65 135 100.15 137.75 97.1 136.85 90.45 133.5 85.3 125.05 85.6 124.45 78.05 120.2 72.6 112.65 73.5 112.65 66.85 109.9 61.4 105.35 58.35 97.2 60.2 95.1 70.5 98.1 75.6 107.2 75.9 108.1 85.3 113.55 90.45 117.75 90.45 119.9 98 125.35 103.75 132.6 102.25 131.1 112.25 136.85 114.35 147.45 116.75 151.35 123.75 152.55 131.9 156.8 131.9 157.4 136.75 159.25 141.9 165 144.9 171.05 143.7 172.55 151.25 177.4 155.2 186.45 155.5 187.05 161.85 189.5 165.2 193.1 167.3 201.3 167.9 201.9 167.9 203.1 172.15 207.05 177 217.3 176.7 216.7 184.25 220.05 189.4 225.8 191.8 234.85 187.6 233.95 177.9 225.5 171.25 220.95 174.55 218.55 164.3 211.55 159.75 204.3 163.05 203.7 154.3 198.85 150.65 193.4 150.35 190.4 151.55 189.8 141.6 182.5 138.25 176.45 140.4 174.05 129.8 169.2 127.95
M 164.6 133.1
Q 166.05 131.55 168.1 131.55 170.15 131.55 171.6 133.1 173.05 134.6 173.05 136.8 173.05 139 171.6 140.5 170.15 142.05 168.1 142.05 166.05 142.05 164.6 140.5 163.15 138.95 163.15 136.8 163.15 134.65 164.6 133.1
M 177.5 143.5
Q 178.8 142.05 180.65 142.05 182.5 142.05 183.8 143.5 185.1 145 185.1 147.05 185.1 149.15 183.8 150.65 182.5 152.1 180.65 152.1 178.8 152.1 177.5 150.65 176.2 149.15 176.2 147.05 176.2 145 177.5 143.5
M 193.2 156.2
Q 194.55 154.7 196.45 154.7 198.4 154.7 199.75 156.2 201.1 157.7 201.1 159.8 201.1 161.95 199.75 163.45 198.4 164.95 196.45 164.95 194.55 164.95 193.2 163.45 191.85 161.95 191.85 159.8 191.85 157.7 193.2 156.2
M 207.8 172.15
Q 206.65 170.65 206.65 168.5 206.65 166.4 207.8 164.9 208.95 163.35 210.6 163.35 212.25 163.35 213.4 164.85 214.55 166.35 214.55 168.5 214.55 170.65 213.4 172.15 212.25 173.65 210.6 173.65 208.95 173.65 207.8 172.15
M 220.3 182.75
Q 220.3 180.75 221.7 179.4 223.15 178 225.15 178 227.15 178 228.55 179.4 229.95 180.75 230 182.75 229.95 184.7 228.55 186.1 227.15 187.5 225.15 187.5 223.15 187.5 221.7 186.1 220.3 184.7 220.3 182.75
M 103.1 63.75
L 105.25 63.15 107.25 66.75
Q 110.7 68.85 107.35 70.65
L 103.3 72.05
Q 100.7 70.15 99.4 68.15 96.8 64.15 103.1 63.75
M 112.3 78.15
Q 113.65 76.65 115.7 76.65 116.3 76.65 116.9 76.8 120.55 80 120.85 81.15 121.55 83.8 116.35 87.7
L 116.55 86.3
Q 111 86.25 111.1 81.45 111.1 79.5 112.3 78.15
M 126 91.8
Q 127.35 90.25 129.25 90.25 131.2 90.25 132.55 91.8 133.9 93.3 133.9 95.5 133.9 97.7 132.55 99.2 131.2 100.7 129.25 100.7 127.35 100.7 126 99.2 124.65 97.65 124.65 95.5 124.65 93.3 126 91.8
M 144.6 106.15
Q 146.15 107.4 146.15 109.2 146.15 111 144.6 112.3 143.05 113.55 140.85 113.55 138.65 113.55 137.05 112.3 135.5 111 135.5 109.2 135.5 107.4 137.05 106.15 138.65 104.85 140.85 104.85 143.05 104.85 144.6 106.15
M 149.45 119.05
Q 148.75 117.7 151.5 117.15 154.25 116.55 156.7 117.55 159.6 118.7 159.35 121.45 159.1 124.85 153.8 129.95 157.45 125.4 154.5 123 150.3 120.8 149.45 119.05 Z"/>
</g>
</defs>

<g transform="matrix( 1, 0, 0, 1, -33.5,-72.6) ">
<g transform="matrix( 0.5730438232421875, 0, 0, 0.5728759765625, -43.05,-30) ">
<use xlink:href="#Parts_Bodies_bodyMC_44_Layer14_0_MEMBER_0_FILL"/>
</g>

<g transform="matrix( 0.5730438232421875, 0, 0, 0.5728759765625, -43.05,-30) ">
<use xlink:href="#Parts_Bodies_bodyMC_44_Layer14_0_MEMBER_1_FILL"/>
</g>

<g transform="matrix( 0.5730438232421875, 0, 0, 0.5728759765625, -43.05,-30) ">
<use xlink:href="#Parts_Bodies_bodyMC_44_Layer14_0_MEMBER_2_FILL"/>
</g>

<g transform="matrix( 0.5730438232421875, 0, 0, 0.5728759765625, -43.05,-30) ">
<use xlink:href="#Parts_Bodies_bodyMC_44_Layer14_0_MEMBER_3_FILL"/>
</g>

<g transform="matrix( 0.5730438232421875, 0, 0, 0.5728759765625, -43.05,-30) ">
<use xlink:href="#Parts_Bodies_bodyMC_44_Layer14_0_MEMBER_4_FILL"/>
</g>

<g transform="matrix( 0.5730438232421875, 0, 0, 0.5728759765625, -43.05,-30) ">
<use xlink:href="#Parts_Bodies_bodyMC_44_Layer14_0_MEMBER_5_FILL"/>
</g>

<g transform="matrix( 0.5730438232421875, 0, 0, 0.5728759765625, -43.05,-30) ">
<use xlink:href="#Parts_Bodies_bodyMC_44_Layer14_0_MEMBER_6_FILL"/>
</g>

<g transform="matrix( 0.5730438232421875, 0, 0, 0.5728759765625, -43.05,-30) ">
<use xlink:href="#Parts_Bodies_bodyMC_44_Layer14_0_MEMBER_7_FILL"/>
</g>

<g transform="matrix( 0.5730438232421875, 0, 0, 0.5728759765625, -43.05,-30) ">
<use xlink:href="#Parts_Bodies_bodyMC_44_Layer14_0_MEMBER_8_FILL"/>
</g>

<g transform="matrix( 0.5730438232421875, 0, 0, 0.5728759765625, -43.05,-30) ">
<use xlink:href="#Parts_Bodies_bodyMC_44_Layer14_0_MEMBER_9_FILL"/>
</g>

<g transform="matrix( 0.5730438232421875, 0, 0, 0.5728759765625, -43.05,-30) ">
<use xlink:href="#Parts_Bodies_bodyMC_44_Layer14_0_MEMBER_10_FILL"/>
</g>

<g transform="matrix( 0.5730438232421875, 0, 0, 0.5728759765625, -43.05,-30) ">
<use xlink:href="#Parts_Bodies_bodyMC_44_Layer14_0_MEMBER_11_FILL"/>
</g>

<g transform="matrix( 0.5730438232421875, 0, 0, 0.5728759765625, -43.05,-30) ">
<use xlink:href="#Parts_Bodies_bodyMC_44_Layer14_0_MEMBER_12_FILL"/>
</g>

<g transform="matrix( 0.5730438232421875, 0, 0, 0.5728759765625, -43.05,-30) ">
<use xlink:href="#Parts_Bodies_bodyMC_44_Layer14_0_MEMBER_13_FILL"/>
</g>

<g transform="matrix( 0.5730438232421875, 0, 0, 0.5728759765625, -43.05,-30) ">
<use xlink:href="#Parts_Bodies_bodyMC_44_Layer14_0_MEMBER_14_FILL"/>
</g>

<g transform="matrix( 0.5730438232421875, 0, 0, 0.5728759765625, -43.05,-30) ">
<use xlink:href="#Parts_Bodies_bodyMC_44_Layer14_0_MEMBER_15_MEMBER_0_FILL"/>
</g>

<g transform="matrix( 0.5730438232421875, 0, 0, 0.5728759765625, -43.05,-30) ">
<use xlink:href="#Parts_Bodies_bodyMC_44_Layer14_0_MEMBER_15_MEMBER_1_FILL"/>
</g>

<g transform="matrix( 0.5730438232421875, 0, 0, 0.5728759765625, -43.05,-30) ">
<use xlink:href="#Parts_Bodies_bodyMC_44_Layer14_0_MEMBER_15_MEMBER_2_FILL"/>
</g>

<g transform="matrix( 0.5730438232421875, 0, 0, 0.5728759765625, -43.05,-30) ">
<use xlink:href="#Parts_Bodies_bodyMC_44_Layer14_0_MEMBER_15_MEMBER_3_FILL"/>
</g>

<g transform="matrix( 0.5730438232421875, 0, 0, 0.5728759765625, -43.05,-30) ">
<use xlink:href="#Parts_Bodies_bodyMC_44_Layer14_0_MEMBER_15_MEMBER_4_FILL"/>
</g>

<g transform="matrix( 0.5730438232421875, 0, 0, 0.5728759765625, -43.05,-30) ">
<use xlink:href="#Parts_Bodies_bodyMC_44_Layer14_0_MEMBER_15_MEMBER_5_FILL"/>
</g>

<g transform="matrix( 0.5730438232421875, 0, 0, 0.5728759765625, -43.05,-30) ">
<use xlink:href="#Parts_Bodies_bodyMC_44_Layer14_0_MEMBER_15_MEMBER_6_FILL"/>
</g>

<g transform="matrix( 0.5730438232421875, 0, 0, 0.5728759765625, -43.05,-30) ">
<use xlink:href="#Parts_Bodies_bodyMC_44_Layer14_0_MEMBER_15_MEMBER_7_FILL"/>
</g>

<g transform="matrix( 0.5730438232421875, 0, 0, 0.5728759765625, -43.05,-30) ">
<use xlink:href="#Parts_Bodies_bodyMC_44_Layer14_0_MEMBER_15_MEMBER_8_FILL"/>
</g>

<g transform="matrix( 0.5730438232421875, 0, 0, 0.5728759765625, -43.05,-30) ">
<use xlink:href="#Parts_Bodies_bodyMC_44_Layer14_0_MEMBER_15_MEMBER_9_FILL"/>
</g>

<g transform="matrix( 0.5730438232421875, 0, 0, 0.5728759765625, -43.05,-30) ">
<use xlink:href="#Parts_Bodies_bodyMC_44_Layer14_0_MEMBER_15_MEMBER_10_FILL"/>
</g>

<g transform="matrix( 0.5730438232421875, 0, 0, 0.5728759765625, -43.05,-30) ">
<use xlink:href="#Parts_Bodies_bodyMC_44_Layer14_0_MEMBER_15_MEMBER_11_FILL"/>
</g>

<g transform="matrix( 0.5730438232421875, 0, 0, 0.5728759765625, -43.05,-30) ">
<use xlink:href="#Parts_Bodies_bodyMC_44_Layer14_0_MEMBER_15_MEMBER_12_FILL"/>
</g>

<g transform="matrix( 0.5730438232421875, 0, 0, 0.5728759765625, -43.05,-30) ">
<use xlink:href="#Parts_Bodies_bodyMC_44_Layer14_0_MEMBER_16_FILL"/>
</g>

<g transform="matrix( 0.5730438232421875, 0, 0, 0.5728759765625, -43.05,-30) ">
<use xlink:href="#Parts_Bodies_bodyMC_44_Layer14_0_MEMBER_17_FILL"/>
</g>

<g transform="matrix( 0.5730438232421875, 0, 0, 0.5728759765625, -43.05,-30) ">
<use xlink:href="#Parts_Bodies_bodyMC_44_Layer14_0_MEMBER_18_FILL"/>
</g>

<g transform="matrix( 0.5730438232421875, 0, 0, 0.5728759765625, -43.05,-30) ">
<use xlink:href="#Parts_Bodies_bodyMC_44_Layer14_0_MEMBER_19_FILL"/>
</g>

<g transform="matrix( 0.5730438232421875, 0, 0, 0.5728759765625, -43.05,-30) ">
<use xlink:href="#Parts_Bodies_bodyMC_44_Layer14_0_MEMBER_20_FILL"/>
</g>

<g transform="matrix( 0.5730438232421875, 0, 0, 0.5728759765625, -43.05,-30) ">
<use xlink:href="#Parts_Bodies_bodyMC_44_Layer14_0_MEMBER_21_FILL"/>
</g>

<g transform="matrix( 0.5730438232421875, 0, 0, 0.5728759765625, -43.05,-30) ">
<use xlink:href="#Parts_Bodies_bodyMC_44_Layer14_0_MEMBER_22_FILL"/>
</g>

<g transform="matrix( 0.5730438232421875, 0, 0, 0.5728759765625, -43.05,-30) ">
<use xlink:href="#Parts_Bodies_bodyMC_44_Layer14_0_MEMBER_23_FILL"/>
</g>

<g transform="matrix( 0.5730438232421875, 0, 0, 0.5728759765625, -43.05,-30) ">
<use xlink:href="#Parts_Bodies_bodyMC_44_Layer14_0_MEMBER_24_FILL"/>
</g>

<g transform="matrix( 0.5730438232421875, 0, 0, 0.5728759765625, -43.05,-30) ">
<use xlink:href="#Parts_Bodies_bodyMC_44_Layer14_0_MEMBER_25_FILL"/>
</g>

<g transform="matrix( 0.5730438232421875, 0, 0, 0.5728759765625, -43.05,-30) ">
<use xlink:href="#Parts_Bodies_bodyMC_44_Layer14_0_MEMBER_26_FILL"/>
</g>

<g transform="matrix( 0.5730438232421875, 0, 0, 0.5728759765625, -43.05,-30) ">
<use xlink:href="#Parts_Bodies_bodyMC_44_Layer14_0_MEMBER_27_FILL"/>
</g>

<g transform="matrix( 0.5730438232421875, 0, 0, 0.5728759765625, -43.05,-30) ">
<use xlink:href="#Parts_Bodies_bodyMC_44_Layer14_0_MEMBER_28_FILL"/>
</g>

<g transform="matrix( 0.5730438232421875, 0, 0, 0.5728759765625, -43.05,-30) ">
<use xlink:href="#Parts_Bodies_bodyMC_44_Layer14_0_MEMBER_29_FILL"/>
</g>

<g transform="matrix( 0.5730438232421875, 0, 0, 0.5728759765625, -43.05,-30) ">
<use xlink:href="#Parts_Bodies_bodyMC_44_Layer14_0_MEMBER_30_FILL"/>
</g>

<g transform="matrix( 1, 0, 0, 1, 0,-18) ">
<use xlink:href="#Parts_Bodies_bodyMC_44_Layer13_0_MEMBER_0_FILL"/>
</g>

<g transform="matrix( 0.5730438232421875, 0, 0, 0.5728759765625, -43.05,-30) ">
<use xlink:href="#Parts_Bodies_bodyMC_44_Layer9_0_MEMBER_0_FILL"/>
</g>

<g transform="matrix( 0.5730438232421875, 0, 0, 0.5728759765625, -43.05,-30) ">
<use xlink:href="#Parts_Bodies_bodyMC_44_Layer9_0_MEMBER_1_FILL"/>
</g>

<g transform="matrix( 0.5730438232421875, 0, 0, 0.5728759765625, -43.05,-30) ">
<use xlink:href="#Parts_Bodies_bodyMC_44_Layer9_0_MEMBER_2_FILL"/>
</g>

<g transform="matrix( 0.5730438232421875, 0, 0, 0.5728759765625, -43.05,-30) ">
<use xlink:href="#Parts_Bodies_bodyMC_44_Layer9_0_MEMBER_3_FILL"/>
</g>

<g transform="matrix( 0.5730438232421875, 0, 0, 0.5728759765625, -43.05,-30) ">
<use xlink:href="#Parts_Bodies_bodyMC_44_Layer9_0_MEMBER_4_FILL"/>
</g>

<g transform="matrix( 0.5730438232421875, 0, 0, 0.5728759765625, -43.05,-30) ">
<use xlink:href="#Parts_Bodies_bodyMC_44_Layer9_0_MEMBER_5_FILL"/>
</g>

<g transform="matrix( 0.5730438232421875, 0, 0, 0.5728759765625, -43.05,-30) ">
<use xlink:href="#Parts_Bodies_bodyMC_44_Layer9_0_MEMBER_6_FILL"/>
</g>

<g transform="matrix( 0.5730438232421875, 0, 0, 0.5728759765625, -43.05,-30) ">
<use xlink:href="#Parts_Bodies_bodyMC_44_Layer9_0_MEMBER_7_FILL"/>
</g>

<g transform="matrix( 1, 0, 0, 1, 0,0) ">
<use xlink:href="#Parts_Bodies_bodyMC_44_Layer9_0_MEMBER_8_FILL"/>
</g>

<g transform="matrix( 0.5730438232421875, 0, 0, 0.5728759765625, -43.05,-30) ">
<use xlink:href="#Parts_Bodies_bodyMC_44_Layer9_0_MEMBER_9_FILL"/>
</g>
</g>
</svg>
