
<svg xmlns="http://www.w3.org/2000/svg" version="1.1" xmlns:xlink="http://www.w3.org/1999/xlink" preserveAspectRatio="none" x="0px" y="0px" width="550px" height="400px" viewBox="0 0 550 400">
<defs>
<linearGradient id="Gradient_1" gradientUnits="userSpaceOnUse" x1="-0.5" y1="17.2" x2="74.9" y2="17.2" spreadMethod="pad">
<stop  offset="0%" stop-color="#0075BF"/>

<stop  offset="0%" stop-color="#0075BF"/>

<stop  offset="99.2156862745098%" stop-color="#009DFF"/>

<stop  offset="100%" stop-color="#009DFF"/>

<stop  offset="100%" stop-color="#009DFF"/>
</linearGradient>

<g id="Layer0_0_FILL">
<path fill="url(#Gradient_1)" stroke="none" d="
M 74.75 -0.35
Q 74.6052734375 -0.4982421875 74.4 -0.5
L 0 -0.5
Q -0.2052734375 -0.4982421875 -0.35 -0.35 -0.4982421875 -0.2052734375 -0.5 0
L -0.5 34.45
Q -0.4984375 34.6552734375 -0.35 34.8 -0.2046875 34.9486328125 0 34.95
L 74.4 34.95
Q 74.605078125 34.948046875 74.75 34.8 74.8982421875 34.654296875 74.9 34.45
L 74.9 0
Q 74.8982421875 -0.2052734375 74.75 -0.35
M 73.9 0.5
L 73.9 33.95 0.5 33.95 0.5 0.5 73.9 0.5 Z"/>
</g>
</defs>

<g transform="matrix( 1, 0, 0, 1, 0,0) ">
<use xlink:href="#Layer0_0_FILL"/>
</g>
</svg>
