
<svg xmlns="http://www.w3.org/2000/svg" version="1.1" xmlns:xlink="http://www.w3.org/1999/xlink" preserveAspectRatio="none" x="0px" y="0px" width="550px" height="400px" viewBox="0 0 550 400">
<defs>
<g id="MovieClips_Symbol_585_12_Layer0_0_FILL">
<path fill="#000000" stroke="none" d="
M 36.3 -2.2
L 35.85 -2
Q 30.95 19.1 36.5 40.6 38.4 47.9 39.1 55.5 14 40.2 -14.8 35.6 -20.6 34.55 -26.4 35.6
L -26.75 35.7 -26.5 37.55
Q 5.05 53.1 38.8 63.65 40.9 105.35 34.25 146.65
L 37.9 150.9
Q 45.35 145.05 46.1 134.55 47.6 114.3 47.85 93.75 48.05 78.4 46.75 62.75 68.65 51.4 90.55 40.3 94.5 38.35 97.25 34.85 101.25 29.75 101.6 23.55
L 99.75 22.85
Q 70.75 33.55 46.4 52.55 46.75 23.3 36.3 -2.2 Z"/>
</g>
</defs>

<g transform="matrix( 1, 0, 0, 1, -32.9,-71.25) ">
<g transform="matrix( 1, 0, 0, 1, 0,0) ">
<use xlink:href="#MovieClips_Symbol_585_12_Layer0_0_FILL"/>
</g>
</g>
</svg>
