
<svg xmlns="http://www.w3.org/2000/svg" version="1.1" xmlns:xlink="http://www.w3.org/1999/xlink" preserveAspectRatio="none" x="0px" y="0px" width="550px" height="400px" viewBox="0 0 550 400">
<defs>
<g id="MovieClips_Symbol_585_19_Layer0_0_FILL">
<path fill="#FFFF00" stroke="none" d="
M 65.05 48.8
L 65.05 48.65 60 59.55
Q 59.5 60.7 55.4 61.15
L 50.3 61.5 50.1 61.45
Q 52 63.7 55 66.55 56.5 68 56.7 68.9 56.9 69.7 56.45 72.65 55.6 77.5 55.2 82.05 56.25 80.75 60.35 77.8 64.8 74.5 65.75 74.85
L 68.7 76.55 68.8 76.6 77 82.6 73.85 73.75
Q 72.8 71.2 72.95 70.55 73 70.25 74.9 68.1
L 80.65 61.25
Q 78.65 61.05 74.35 61.3
L 70.25 61.35
Q 69.7 61.2 68.25 57.3
L 65.05 48.8
M 53.8 124.3
Q 51.9 126.15 51.65 126.2 51.1 126.35 48.85 125.45 44.45 123.7 41.3 122.65
L 45.5 129.25
Q 47.4 132.1 47.7 133.2 47.95 134.1 44.95 138.5
L 41.85 142.65 42.1 143.4 52.5 141.7
Q 53.3 141.9 54.45 143.35
L 58.75 147.9 58.75 147.65
Q 59 144.05 59.2 142.75 59.75 138.85 60.8 138.3 62.7 137.2 65.95 135.55
L 70.4 133.15 70.3 133.15 63.05 130.35
Q 59.65 129.05 59.5 128.55 59.4 128.1 59.75 124.6
L 60 118.55 53.8 124.3
M 44.25 93.6
Q 43.8 94.5 41.55 95.6
L 34.15 99.45 34.5 99.55
Q 39.05 101.15 40.65 101.85 45.5 103.95 45.85 105.45
L 49.2 119.65 49.2 119.5 55.35 111.1
Q 58.15 107.2 58.85 107.2 59.5 107.2 63.95 108.8 69.15 110.7 71.6 111.25
L 66.35 101.25
Q 64.65 98.2 64.65 97.85 64.65 97.05 66.55 94.5
L 72.75 85.75 62.8 88.85
Q 58.5 90.25 56.95 90.25 55.7 90.25 51.05 84.85 46.8 79.95 45.9 78.15 45.2 83.4 44.9 89.2 44.7 92.75 44.25 93.6
M 14.4 96.25
L 14.3 96.65 11.5 104.15
Q 8.95 110.1 7.1 110.55
L -10.25 114.6 -10.1 114.65 0.2 122.15
Q 4.95 125.6 4.95 126.45 4.95 127.25 3 132.65 0.7 139 0 142 6.35 138.9 12.2 135.6 15.95 133.5 16.4 133.5 17.35 133.5 20.5 135.85
L 31.2 143.45 27.4 131.25
Q 25.65 126 25.65 124.1 25.65 122.55 32.25 116.9 38.3 111.7 40.5 110.6
L 26.95 109.35
Q 22.6 109.15 21.6 108.6 20.45 108.05 19.15 105.25 16.55 99.9 14.4 96.25
M 23.75 62.95
Q 22.8 62 21.25 58.05
L 17.6 49 14 60.5
Q 13 64 12.35 64.65
L 8.3 66.5
Q 2.4 68.9 -3.7 71.8 -1.65 72.85 3.25 74.55 7.5 76 7.9 76.4 8.35 76.85 6.8 82
L 3.4 93.2 3.3 93.3 17.65 83.15 24.15 83.35
Q 25.75 83.75 30 85.3
L 30.3 85.4 28.95 77.35
Q 28.4 75 28.9 73.9 29.4 72.9 32.35 69.75
L 41.3 59.5
Q 39.15 60.45 32.15 62.05 24.55 63.75 23.75 62.95
M 45.85 44.4
L 49.25 46.85
Q 50.85 48 50.85 48.3
L 49.2 53.45 54.65 50.65
Q 54.95 50.65 56 51.4 58.05 52.95 59.55 53.95
L 57.7 47.5
Q 57.7 47 59.9 45.15
L 62.6 43.05 56.35 42.4 55.55 41.25 53.95 38.3 53.95 38.4 53 40.9
Q 52.15 42.9 51.55 43.05
L 45.8 44.35 45.85 44.4
M 56.8 26.2
L 56.65 26.2 44.75 21.6
Q 39.25 19.55 39 18.7 38.8 17.95 39.3 12.2 39.85 5.5 39.8 2.4
L 29.65 11.7
Q 26.6 14.75 26.15 14.85 25.25 15.1 21.6 13.65 14.35 10.75 9.25 9.1
L 16.15 19.85
Q 19.15 24.5 19.65 26.35 20.05 27.85 15.15 35 10.65 41.55 8.8 43.2
L 22.2 40.95
Q 26.45 39.95 27.6 40.25 28.85 40.5 30.8 42.85
L 37.75 50.35 37.75 49.9
Q 38.15 44.05 38.5 41.95 39.4 35.5 41.1 34.6
L 56.8 26.2 Z"/>
</g>
</defs>

<g transform="matrix( 1, 0, 0, 1, -32.9,-71.25) ">
<g transform="matrix( 1, 0, 0, 1, 0,0) ">
<use xlink:href="#MovieClips_Symbol_585_19_Layer0_0_FILL"/>
</g>
</g>
</svg>
