
<svg xmlns="http://www.w3.org/2000/svg" version="1.1" xmlns:xlink="http://www.w3.org/1999/xlink" preserveAspectRatio="none" x="0px" y="0px" width="550px" height="400px" viewBox="0 0 550 400">
<defs>
<g id="Parts_Bodies_bodyMC_24_Layer16_0_FILL">
<path fill="#534424" stroke="none" d="
M 66.45 12.45
L 66.05 11.3 65.1 9.35 65.3 10.8
Q 64.5 10.15 63.5 10.15 60.4 10.7 59.1 11.2 58.2 11.9 57.45 12.85
L 56.85 13.8 56.95 14.85 57.25 15.05 58.1 15.2 59.9 14
Q 61.75 19 65.7 39 70.05 61.2 70.05 69.95
L 69.25 94.6 70.45 99.45
Q 71.6 104 71.6 106 71.6 120.7 64.35 125.8 58.2 130.15 41.9 130.15 19.05 130.15 11.65 124.05 8.65 121.65 7.3 117.6 6.65 115.7 5.7 109.75 5.05 105.45 4.3 93.55 3.45 79.2 3.45 66.6 3.45 64.7 3.95 60.25
L 5.3 47.05 6.45 29.75
Q 6.8 25.25 9.55 22.9 12.2 20.6 12.2 19.3
L 11.85 18.3 10.85 16.7
Q 9.5 17.05 7.5 19.5 4.6 22.9 2.8 28.25 -0.8 38.75 -1.5 50.3
L -1.55 66.35
Q -1.55 78.55 -0.55 93.05
L 0.45 107.6 -0.5 118.3
Q -0.5 124 8 128.75 18.95 134.9 38.75 134.9 63.6 134.9 72.25 125.1 77.85 118.8 77.85 104.4 77.85 92.9 77.2 89.25 76 82.2 74.45 50.45 74.3 47.25 70.35 30.8 66.45 14.7 66.45 12.45 Z"/>
</g>

<g id="Graphics_Symbol_610_0_Layer0_0_FILL">
<path fill="#7D5924" stroke="none" d="
M 26.5 22.1
L 28.9 21.55
Q 29.65 21.3 29.65 20.4 29.65 17.7 25.9 15.5 18.9 11.9 12.4 8.15 12.45 11 11.15 17.1
L 11.85 18.3 12.2 19.3
Q 12.2 20.55 9.85 22.65
L 8.7 26.9
Q 8.7 27.9 9.45 29.15
L 16.55 29.15
Q 21.8 23.4 26.5 22.1
M 43 22.35
L 41.6 23.2 39.45 23.5 37.05 23.65
Q 33.15 23.65 30.55 25.55
L 18.05 34.65
Q 12.15 37.65 6.15 33.85
L 5.75 40.1 5.3 47.05 3.95 60.25
Q 3.45 64.7 3.45 66.6 3.45 79.2 4.3 93.55 5.05 105.45 5.7 109.75 6.65 115.7 7.3 117.6 8.65 121.65 11.65 124.05 19.05 130.15 41.9 130.15 58.2 130.15 64.35 125.8 71.6 120.7 71.6 106 71.6 104 70.45 99.45
L 69.25 94.6 70.05 69.95
Q 70.05 61.2 65.7 39
L 64 30.5 62.15 30.75
Q 62 30.75 43.8 21.75
L 43 22.35
M 30.25 46.45
Q 33.1 44.85 37 44.85 46.15 44.85 44.45 51.75 43.85 54.35 41.8 56.5 39.75 58.65 37.8 58.65 32.45 58.65 29.45 54.4
L 27.55 50
Q 27.55 48.05 30.25 46.45
M 29.7 89.4
Q 29.7 85.9 32.2 83.7 34.45 81.8 37.7 81.55 40.95 81.35 43.2 82.9 45.7 84.65 45.7 87.8 45.7 91.8 43.8 93.3 42 94.75 37.25 94.75 33.5 94.75 31.55 93.3 29.7 91.95 29.7 89.4
M 57.25 4.4
L 57.2 4.35 56.95 4.45
Q 49.1 8.2 46.4 11.75 44.65 15.25 43.05 16.65 44.35 18.1 49.1 19.75
L 60.7 23.55 60.7 19.05
Q 59.8 17 59.15 14.55
L 58.1 15.2 57.25 15.05 56.95 14.85 56.85 13.8 57.45 12.85 58.5 11.75 58.1 9.65 57.25 4.4 Z"/>
</g>

<g id="Graphics_Symbol_650_0_Layer2_0_FILL">
<path fill="#000000" fill-opacity="0.3333333333333333" stroke="none" d="
M 76.55 84.05
Q 74.9 46.2 71.05 33.75 66.75 78.05 66.75 92.25 66.7 106.4 58.9 114.25 51.1 122.1 35.7 121.35 20.3 120.6 15.25 117.65 10.95 115.15 10.95 114.15 10.95 113.45 8.65 111.2
L 6.2 109.1
Q 5.85 109.1 4.25 111.95 2.45 115.2 2.45 117.3 2.45 126.15 12.25 130.05 20.2 133.2 35.2 133.2 61.4 133.2 69.8 127.55 78.15 121.9 76.55 84.05 Z"/>
</g>

<g id="Graphics_Symbol_650_0_Layer1_0_FILL">
<path fill="#000000" fill-opacity="0.3333333333333333" stroke="none" d="
M 46.7 88.95
L 45.7 87
Q 40.1 90.85 32.6 93.05 36.15 97.35 41.55 96.05 47 94.75 47 89.6
L 46.7 88.95
M 39.25 52.6
Q 33.45 55 32.35 57.2 33.25 58.25 35 58.95 36.5 59.55 37.7 59.55 40.65 59.55 43.4 56.75 46.05 54.1 46.05 51.7
L 45.95 50.95 45.55 50.75 44.8 50.65
Q 42.15 51.4 39.25 52.6
M 56.2 2.4
Q 56.2 1.4 55.95 1.55
L 49.25 7.6
Q 42.8 13.65 42.8 14.55 42.8 15.95 43.85 15.9 56.2 5.45 56.2 2.4
M 61.6 -2.85
L 61.1 -2.25 60.6 -2
Q 60.35 -1.8 60.35 -1.2 60.35 3.05 62.4 11.35 64.45 19.6 64.45 22.85
L 64.15 27.6 47.35 22.25 42.5 20.95
Q 43.3 19.6 43.3 18.35 43.3 17.6 42.05 15.85 34.2 22.35 26.85 26.25 20.1 29.85 7 34.8 9.95 32.75 12.6 22.8 15.35 12.7 14.45 6.95
L 13.75 6.9
Q 12.7 6.9 9.2 19.3 5.85 31.3 5.85 33.5
L 5.95 34.65 6.75 34.9 5.85 35.2 6.35 35.8 7 36.8 10 36.9
Q 15.5 36.9 19.65 34.95 22 33.8 26.05 30.65 29.95 27.55 32.65 26.35 37 24.4 42.95 24.4 45.45 24.4 53.35 28.35 61.25 32.25 66.85 32.25
L 68.4 32.2 68.55 27.95
Q 68.55 26.45 67.75 24.95 66.9 23.4 66.8 21.25 66.65 16.3 65.2 8.15 63.45 -1.85 61.6 -2.85 Z"/>
</g>

<g id="Graphics_Symbol_650_0_Layer0_0_FILL">
<path fill="#FFFFFF" fill-opacity="0.5019607843137255" stroke="none" d="
M 35 89.7
Q 36.15 90.85 37.85 90.85 39.55 90.85 40.75 89.7 41.9 88.5 41.9 86.8 41.9 85.1 40.75 83.95 39.55 82.75 37.85 82.75 36.15 82.75 35 83.95 33.8 85.1 33.8 86.8 33.8 88.5 35 89.7
M 35.75 47
Q 33.7 47 32.25 48.1 30.8 49.2 30.8 50.75 30.8 52.3 32.25 53.4 33.7 54.5 35.75 54.5 37.8 54.5 39.25 53.4 40.7 52.3 40.7 50.75 40.7 49.2 39.25 48.1 37.8 47 35.75 47
M 38.3 18.45
Q 39.55 17.25 39.55 15.2 39.55 13.6 27.35 8.5 14.95 3.35 10.35 3.35 9.9 3.35 5.95 12.6 1.7 22.65 1.7 26.9 1.7 28.85 2.2 29.15
L 2.95 29.4
Q 3.85 28.5 6.3 21.8 8.95 14.55 11.55 5.5
L 20.5 9.35
Q 28.85 12.85 31.85 13.5 31.7 16.15 31.8 19.45
L 35.05 19.65
Q 37.1 19.65 38.3 18.45
M 29.6 16.35
L 29 15.35 13.7 27.95 14.25 28.55 15.35 29.3
Q 18.8 29.25 24.15 25.15 29.8 20.8 29.8 17.5
L 29.6 16.35
M 56.5 -0.3
L 56.1 -0.5
Q 54.5 -2.95 51.1 0.3
L 46.25 5.6
Q 40.4 10.5 38.8 12.4 38.8 13.45 39.65 13.8
L 52.9 4.3
Q 56.7 1.65 56.7 0.6
L 56.5 -0.3 Z"/>
</g>

<g id="MovieClips_Symbol_585_24_Layer0_0_FILL">
<path fill="#993333" stroke="none" d="
M 31.55 93.3
Q 33.5 94.75 37.25 94.75 42 94.75 43.8 93.3 45.7 91.8 45.7 87.8 45.7 84.65 43.2 82.9 40.95 81.35 37.7 81.55 34.45 81.8 32.2 83.7 29.7 85.9 29.7 89.4 29.7 91.95 31.55 93.3
M 37 44.85
Q 33.1 44.85 30.25 46.45 27.55 48.05 27.55 50
L 29.45 54.4
Q 32.45 58.65 37.8 58.65 39.75 58.65 41.8 56.5 43.85 54.35 44.45 51.75 46.15 44.85 37 44.85
M 61.6 -3
L 60.25 -3.2
Q 57.75 -3.2 48.15 4.8
L 38.9 12.75 34.9 11.25 32.95 11.05
Q 32.45 11.05 31.85 11.55 31.2 12.05 30.7 12.05
L 20.6 6.1
Q 19.55 5.65 15.9 4.6
L 12.25 3.6
Q 8.45 3.6 7.25 8.1 5.95 15.75 4.1 22 2.75 26.65 3.1 29
L 3.45 31.85
Q 10.85 38.3 18.05 34.65
L 30.55 25.55
Q 33.15 23.65 37.05 23.65
L 41.6 23.2 43.8 21.75
Q 62 30.75 62.15 30.75 64.3 30.75 65.5 29.5 66.7 28.3 66.7 26.15 66.7 16 64.4 7.2
L 61.6 -3
M 57.2 4.3
L 58.1 9.65
Q 58.95 15.05 60.7 19.05
L 60.7 23.55 49.1 19.75
Q 44.35 18.1 43.05 16.65 44.65 15.25 46.4 11.75 49.15 8.15 57.2 4.3
M 25.9 15.5
Q 29.65 17.7 29.65 20.4 29.65 21.3 28.9 21.55
L 26.5 22.1
Q 21.8 23.4 16.55 29.15
L 9.45 29.15
Q 8.7 27.9 8.7 26.9
L 10.6 19.5
Q 12.45 11.55 12.4 8.15 18.9 11.9 25.9 15.5 Z"/>
</g>
</defs>

<g transform="matrix( 1, 0, 0, 1, -33.5,-72.6) ">
<g transform="matrix( 1, 0, 0, 1, 0,0) ">
<use xlink:href="#Parts_Bodies_bodyMC_24_Layer16_0_FILL"/>
</g>

<g transform="matrix( 1, 0, 0, 1, 0,0) ">
<g transform="matrix( 1, 0, 0, 1, 0,0) ">
<use xlink:href="#Graphics_Symbol_610_0_Layer0_0_FILL"/>
</g>
</g>

<g transform="matrix( 1, 0, 0, 1, 0,0) ">
<g transform="matrix( 1, 0, 0, 1, 0,0) ">
<use xlink:href="#Graphics_Symbol_650_0_Layer2_0_FILL"/>
</g>

<g transform="matrix( 1, 0, 0, 1, 0,0) ">
<use xlink:href="#Graphics_Symbol_650_0_Layer1_0_FILL"/>
</g>

<g transform="matrix( 1, 0, 0, 1, 0,0) ">
<use xlink:href="#Graphics_Symbol_650_0_Layer0_0_FILL"/>
</g>
</g>
</g>

<g transform="matrix( 1, 0, 0, 1, -32.9,-71.25) ">
<g transform="matrix( 1, 0, 0, 1, 0,0) ">
<use xlink:href="#MovieClips_Symbol_585_24_Layer0_0_FILL"/>
</g>
</g>

<g transform="matrix( 1, 0, 0, 1, -33.5,-72.6) ">
<g transform="matrix( 1, 0, 0, 1, 0,0) ">
<g transform="matrix( 1, 0, 0, 1, 0,0) ">
<use xlink:href="#Graphics_Symbol_610_0_Layer0_0_FILL"/>
</g>
</g>
</g>
</svg>
