
<svg xmlns="http://www.w3.org/2000/svg" version="1.1" xmlns:xlink="http://www.w3.org/1999/xlink" preserveAspectRatio="none" x="0px" y="0px" width="550px" height="400px" viewBox="0 0 550 400">
<defs>
<g id="Layer0_0_FILL">
<path fill="#000000" fill-opacity="0.25098039215686274" stroke="none" d="
M 32 11.25
L 32.75 36.75 41.75 47.2 33.5 11.25 32 11.25
M 57.15 45.05
Q 57 44.35 56.4 43.95
L 49.15 58 33 50 28.5 49.25 31 52.25
Q 28.15 50.8 25.15 52.45
L 23.25 53.75 39.5 68 37.5 70.25 40.8 72.5 41 78.05 50.25 70.7
Q 54.75 70 57.2 66.65
L 57.5 65.6 56.8 65.3 52.2 63.9
Q 54 62.95 54.55 61.05 55.05 59.4 54.35 57.95 58.65 52.15 57.15 45.05
M 112.2 35.75
Q 108.6 56.8 98.15 75.05 91.9 86.05 78.65 85.75 69.7 85.55 61.6 81.2
L 58.25 83.75
Q 55.3 90.2 56.95 97.2 58 101.8 62.25 103.2 70.8 125.95 56.2 135.6 50.6 139.4 43.8 138.85 39.7 138.4 36.7 140.25
L 36.85 142.3
Q 48.45 149.45 62.45 145.9
L 62.7 143.7 71.25 139.75 70.75 137.2 72.75 134.85 70.75 133.45 72.9 122.05 71 121.25
Q 69.7 112.05 71.9 102.1 73.25 96 69.25 90.8
L 73.6 89.75
Q 84.25 100.6 98.8 85.2 118.05 64.85 112.2 35.75
M 87 15
Q 85.5 4.4 81 12 80.15 39.45 65 63.25
L 66.65 65.15 66.75 68.9 70.85 65.05 76.3 63.1 76.9 67.7
Q 90.8 49.6 91 31
L 87 15 Z"/>
</g>
</defs>

<g transform="matrix( 1, 0, 0, 1, 0,0) ">
<use xlink:href="#Layer0_0_FILL"/>
</g>
</svg>
