
<svg xmlns="http://www.w3.org/2000/svg" version="1.1" xmlns:xlink="http://www.w3.org/1999/xlink" preserveAspectRatio="none" x="0px" y="0px" width="550px" height="400px" viewBox="0 0 550 400">
<defs>
<g id="Layer0_0_FILL">
<path fill="#3C7524" stroke="none" d="
M 95.75 125.15
Q 96.95 124.9 99.1 122.4 98.35 122.4 95.75 125.15
M 89.3 121.55
Q 91.75 122.3 88.45 119.35
L 87.75 118.9 89.3 121.55
M 27.95 115.45
L 32.6 113.4 21.25 117.15 27.95 115.45
M 76.7 122.35
L 71.75 123.65 81.6 121.75 76.7 122.35
M 77 110.1
L 72.25 111.15 82.75 109.65 77 110.1
M 34.15 87.9
L 35.6 88.6
Q 26.8 83.3 16.25 84.75 25.4 84.55 34.15 87.9
M 23.35 55.75
Q 20.8 57.6 19.75 58.1 21.9 57.4 23.6 56.1
L 26.05 53.85 23.35 55.75
M 16.1 42.4
L 12 43.55 21.4 41.6 16.1 42.4
M 11.5 25.25
L 11.4 25.35 11.25 25.6 22.25 26.6
Q 22.15 26.45 21.7 26.25
L 21.25 26 11.5 25.25
M 15.75 2.85
L 15.25 3 23.75 8.5
Q 22.25 6.15 15.75 2.85
M 9.25 15.6
L 18.5 16.75 20.75 16.6 9.5 15.25 9.4 15.35 9.25 15.6
M 58.3 16.6
L 53.25 9.35 61.95 24.3 58.3 16.6
M 79.8 4.75
L 79.65 0.6 79.25 8.6 79.8 4.75
M 65 14.5
L 66 15.25
Q 61.87421875 12.047265625 60.5 6.55
L 60.1 4.85
Q 59.9 10.45 65 14.5
M 123.05 74.5
L 123.05 74.45 111.1 70.35
Q 115 75.15 123.05 74.5
M 124.85 61.7
L 126.75 61.6 118.1 58.35
Q 119.15 61.95 124.85 61.7
M 108.6 85.85
L 108.1 82.85 107.95 85.9 112.5 89.1 108.6 85.85
M 108.4 26.55
Q 107.35 26.5 108.6 32.45
L 109.25 34.1 108.4 26.55
M 117.25 30.55
L 118.85 26.1 114.6 35.6 117.25 30.55
M 122.2 35.3
L 125.6 32.85 118.25 37.35 122.2 35.3
M 26.55 -3.55
L 26.25 -3.55 26.35 0.65
Q 26.6 3.35 27.75 3.85
L 26.55 -3.55 Z"/>
</g>
</defs>

<g transform="matrix( 1, 0, 0, 1, 0,0) ">
<use xlink:href="#Layer0_0_FILL"/>
</g>
</svg>
