
<svg xmlns="http://www.w3.org/2000/svg" version="1.1" xmlns:xlink="http://www.w3.org/1999/xlink" preserveAspectRatio="none" x="0px" y="0px" width="550px" height="400px" viewBox="0 0 550 400">
<defs>
<g id="Layer0_0_FILL">
<path fill="#FFFFFF" stroke="none" d="
M 5.35 -2.35
Q 5.35 -5.35 2.35 -5.35
L -2.4 -5.35
Q -5.4 -5.35 -5.4 -2.35
L -5.4 2.4
Q -5.4 5.4 -2.4 5.4
L 2.35 5.4
Q 5.35 5.4 5.35 2.4
L 5.35 -2.35 Z"/>
</g>

<path id="Layer0_0_1_STROKES" stroke="#999999" stroke-width="1" stroke-linejoin="round" stroke-linecap="round" fill="none" d="
M 2.35 -5.35
L -2.4 -5.35
Q -5.4 -5.35 -5.4 -2.35
L -5.4 2.4
Q -5.4 5.4 -2.4 5.4
L 2.35 5.4
Q 5.35 5.4 5.35 2.4
L 5.35 -2.35
Q 5.35 -5.35 2.35 -5.35 Z"/>
</defs>

<g transform="matrix( 1, 0, 0, 1, 0,0) ">
<use xlink:href="#Layer0_0_FILL"/>

<use xlink:href="#Layer0_0_1_STROKES"/>
</g>
</svg>
