
<svg xmlns="http://www.w3.org/2000/svg" version="1.1" xmlns:xlink="http://www.w3.org/1999/xlink" preserveAspectRatio="none" x="0px" y="0px" width="550px" height="400px" viewBox="0 0 550 400">
<defs>
<g id="Parts_Heads_headColorMC_29_Layer1_0_FILL">
<path fill="#CACEF7" stroke="none" d="
M 92.05 66
L 94.3 65.75
Q 90.65 61.15 85.4 57.35 75.1 49.95 61.45 49.95 58.55 49.95 53.2 51.35
L 41.5 54.45
Q 42.25 56.35 42.25 57.2 42.25 59.55 37.5 65.75 32.7 74.85 32.7 91.5 32.7 108.25 42.6 123.2 54.3 140.8 72.4 140.8 90.45 140.8 100.7 129.3 109.95 118.95 109.95 103.4 109.95 97.65 107.4 88.05
L 102 88.45 101.25 88.4
Q 100.85 87.75 100.85 86.75 100.85 83.9 109.6 82.55 118.35 81.2 118.35 78.25 118.35 74.1 105.85 70.95
L 96.85 68.8
Q 92.5 67.7 91.9 66.7
L 92.05 66 Z"/>
</g>

<g id="Graphics_Symbol_796_0_Layer0_0_FILL">
<path fill="#7D5924" stroke="none" d="
M 73.05 48.55
Q 74.4 47.15 74.4 46.5 74.4 41.95 70.45 41.95 69.05 41.95 67.9 42.55
L 66.95 43.1
Q 66.3 43.1 65.8 42.6 65.3 42.05 64.55 42.05 42.05 42.05 33 55.9 25.2 67.9 25.2 94.75 25.2 100.75 31.3 110.2 36.8 118.7 38.4 118.7 41.1 118.7 42.15 111.8
L 43.3 96.6
Q 43.9 86.1 45.15 81.4 47 74.5 51.05 74.5 52.35 74.5 53.15 75.7
L 54.8 78.75
Q 57.9 83.85 66 86.75
L 56 66.8
Q 53.6 62 53.6 58.2 53.9 56.75 54.75 55.25 56.45 52.25 59.45 51.45
L 58.15 49.95
Q 58.9 48.2 59.6 47.95 60.15 47.75 61.3 48.35 65.1 50.5 68.45 50.5 71.2 50.5 73.05 48.55
M 113.1 94.5
Q 113.8 94.5 114.3 94 114.8 93.45 114.8 92.75 114.8 92.05 114.3 91.55 113.8 91 113.1 91 112.4 91 111.9 91.55 111.4 92.05 111.4 92.75 111.4 93.45 111.9 94 112.4 94.5 113.1 94.5
M 105.05 94.05
Q 103.45 93.35 101.45 93.4 96.2 93.55 94.95 98.35 94.35 102.55 91.9 104.5 89.5 106.4 84.95 106.4
L 81.8 105.75 80.9 105.45 80.15 105.05
Q 83.35 109.65 86.8 109.65 93.6 109.65 100.6 103.45 106.6 98.15 106.6 95.7 106.6 94.75 105.05 94.05 Z"/>
</g>

<g id="Graphics_Symbol_844_0_Layer4_0_FILL">
<path fill="#000000" stroke="none" d="
M 94.3 65.75
L 92.05 66 91.9 66.7
Q 92.5 67.7 96.85 68.8
L 105.85 70.95
Q 118.35 74.1 118.35 78.25 118.35 81.2 109.6 82.55 100.85 83.9 100.85 86.75 100.85 87.75 101.25 88.4
L 102 88.45 107.4 88.05
Q 109.95 97.65 109.95 103.4 109.95 118.95 100.7 129.3 90.45 140.8 72.4 140.8 54.3 140.8 42.6 123.2
L 40.35 119.5
Q 38.15 119.45 36.4 117.85 39.7 124.85 44.75 130.4 56.95 143.85 72.8 143.85 93.25 143.85 103.65 130.85 112.25 120.15 112.25 103.85 112.25 99.4 111.5 93.7 110.8 88.8 110.3 87.4 117.35 84.6 119.4 83.1 121.6 81.45 121.6 78.9 121.6 73.95 110 69.65
L 97.45 65.85
Q 87.35 55.75 80.8 51.85 77.75 50.05 74.45 48.9
L 74.5 49.75 74.05 51.75
Q 80.15 53.6 85.4 57.35 90.65 61.15 94.3 65.75 Z"/>
</g>

<g id="Graphics_Symbol_844_0_Layer3_0_FILL">
<path fill="#000000" stroke="none" d="
M 56.75 91.1
Q 52.95 91.1 50.8 93.1 48.8 95 48.8 98.1 48.8 104.25 53.95 107.5 59.1 110.75 68.7 110.75
L 72.4 110.2
Q 73.45 109.75 74.15 108.6 62.25 108.5 57 106.1 51.35 103.45 51.35 97.15 51.35 92.95 56 94
L 60.05 95.25
Q 62.5 96.05 63.65 96.05
L 64.45 95.9 64.6 95.5 64.7 94.9
Q 64.7 93.55 63.35 92.55 61.35 91.1 56.75 91.1
M 58.7 95.45
Q 57.3 95.45 56.4 96.1 55.6 96.7 55.6 97.55 55.6 100.4 58.6 102.9 61.35 105.2 63.7 105.2 64.75 105.2 65.1 104.7
L 65.6 103.65
Q 59.55 100.7 58.35 98.35 59.65 98.7 60.4 97.75 61 96.95 61 95.85
L 58.7 95.45
M 87.65 71.25
Q 86.25 70.9 85.55 71.55
L 82.6 74.55
Q 80.55 76.35 77.35 79.7 74.4 82.75 74.4 82.9 74.4 83.4 74.9 83.7 75.5 84.05 75.65 84.3 78.15 84.15 82.75 78.85 87 73.9 87.85 71.25
L 87.65 71.25 Z"/>

<path fill="#412E11" stroke="none" d="
M 74.05 41.05
Q 71.45 38.75 69.3 38.75 41.1 38.75 30.3 55.5 22.35 67.85 22.35 93.75 22.35 104.5 30.6 114.15 34.75 119 38.95 121.65 41.85 121.65 43.75 118.55 46.1 114.7 46.1 106.85 46.05 100.8 46.55 94.45 47.6 81.85 50.6 77.45
L 59.05 86.05
Q 62.6 89.7 65.65 89.7 68.9 89.7 68.9 87.5 68.9 83.75 66.95 80.75
L 62.65 75.65
Q 56.35 68.65 56.35 58.65 56.35 57.6 59.25 54.8
L 62.25 52.2 64.45 52.65 66.6 53.05
Q 69.7 53.05 73.1 51.65 77.2 50 77.2 47.65 77.2 43.8 74.05 41.05
M 65.8 42.6
Q 66.3 43.1 66.95 43.1
L 67.9 42.55
Q 69.05 41.95 70.45 41.95 74.4 41.95 74.4 46.5 74.4 47.15 73.05 48.55 71.2 50.5 68.45 50.5 65.1 50.5 61.3 48.35 60.15 47.75 59.6 47.95 58.9 48.2 58.15 49.95
L 59.45 51.45
Q 56.45 52.25 54.75 55.25 53.9 56.75 53.6 58.2 53.6 62 56 66.8
L 66 86.75
Q 57.9 83.85 54.8 78.75
L 53.15 75.7
Q 52.35 74.5 51.05 74.5 47 74.5 45.15 81.4 43.9 86.1 43.3 96.6
L 42.15 111.8
Q 41.1 118.7 38.4 118.7 36.8 118.7 31.3 110.2 25.2 100.75 25.2 94.75 25.2 67.9 33 55.9 42.05 42.05 64.55 42.05 65.3 42.05 65.8 42.6
M 85.6 62.65
L 85.5 62.45
Q 81.4 62.4 78.25 67.25 74.75 72.45 72.3 73.05
L 71.95 72.2
Q 72.2 72 73.15 71.65 74.05 71.15 74.05 70.1 74.05 69.45 73.65 69.3
L 72.5 69.2
Q 69.2 69.8 69.2 71.5 69.2 73.3 69.75 74.5 70.45 75.95 71.85 75.95 74.25 75.95 78.7 72.2 83.75 67.85 85.7 62.7
L 85.6 62.65
M 97 58.25
L 96.15 57.35 95.9 57.05
Q 88.8 59.15 87.1 61.3 86.75 61.9 87.45 62.25
L 88.35 62.45 92.1 61.65
Q 95.95 60.45 97 58.25 Z"/>
</g>

<g id="Graphics_Symbol_844_0_Layer2_0_FILL">
<path fill="#412E11" stroke="none" d="
M 96.05 92.15
Q 93.8 93.6 92.55 96.75 91.05 100.55 90.4 101.3 88.65 103.35 84.5 103.35
L 82.35 102.9
Q 80.95 101.8 80.1 97.65 77.9 98.3 76.8 99.75 76.1 100.65 76.1 101.2 76.1 107.45 81.3 110.8 83.95 112.5 86.65 112.9 92.5 112.9 100.15 108.35 108.9 103.15 109.85 96.7
L 113.7 98 115.85 97.3
Q 117.85 95.85 117.85 92 117.85 87.4 108.95 87.4
L 107.8 88.55
Q 108 89.6 108.75 90.15 108.6 91.65 108.4 91.45
L 107 90.6 106 90.1
Q 99.3 90.1 96.05 92.15
M 101.45 93.4
Q 103.45 93.35 105.05 94.05 106.6 94.75 106.6 95.7 106.6 98.15 100.6 103.45 93.6 109.65 86.8 109.65 83.35 109.65 80.15 105.05
L 80.9 105.45 81.8 105.75 84.95 106.4
Q 89.5 106.4 91.9 104.5 94.35 102.55 94.95 98.35 96.2 93.55 101.45 93.4
M 114.3 91.55
Q 114.8 92.05 114.8 92.75 114.8 93.45 114.3 94 113.8 94.5 113.1 94.5 112.4 94.5 111.9 94 111.4 93.45 111.4 92.75 111.4 92.05 111.9 91.55 112.4 91 113.1 91 113.8 91 114.3 91.55 Z"/>
</g>

<g id="Graphics_Symbol_844_0_Layer1_0_FILL">
<path fill="#000000" fill-opacity="0.25098039215686274" stroke="none" d="
M 64.55 98.65
Q 62.95 95.35 59.7 95.35 58.15 95.35 58.15 99.25 58.15 101.6 59.75 102.65 61.35 103.8 65.8 104.35 65.8 101.1 64.55 98.65
M 99.55 76.9
Q 98.2 76.9 97.3 78.75 96.5 80.3 96.5 81.75 96.5 83.15 97.25 84.45 98.3 86.25 100.25 86.1
L 100.3 85.8 99.15 82.05
Q 99.15 81.55 99.9 79.35
L 100.5 77 99.55 76.9
M 111 70.55
L 110.95 69.6
Q 106.1 71.5 99.5 67.15 94.7 64 89.3 57.8 86.6 54.7 80.75 52.1 75.9 49.95 75.2 47.7 75.3 47.1 75.4 47.35
L 76.25 47.3
Q 76.75 47.1 76.75 46.15 76.75 43.2 73.3 41.5 69.9 39.85 64 39.85 43.15 39.85 32.65 53.6 22.15 67.4 22 82.55 21.8 97.7 25.95 107.6
L 27.3 110.5
Q 30 112.3 35.05 117.65 43.3 126.4 45.25 130.05
L 54.15 137.15
Q 61.6 141.3 69.25 143.35 79.45 142.75 89.5 138.4 101.15 133.35 102.55 131.05 103.95 128.75 104.15 127.8
L 104.3 126.3 108.6 117.1
Q 112.9 107.55 112.9 103.7 112.9 92.5 107.05 87.5 104.9 88.7 102.45 91.55 100.5 93.85 99.5 93.85 98.5 93.85 96.15 95.5 93.7 97.25 92.8 98.7
L 92.8 99.55
Q 92.85 100 93.5 100
L 95.15 99.75 101.3 96.05 102.05 98.65 102.55 100.6 102.2 101.6 100.15 104.5 101 104.05 101.65 103.6 97.4 107.8
Q 93.8 111.1 93.4 111.25
L 95.3 113.3
Q 96.35 113.3 103.2 109.3 104.3 109.3 105.1 109.95 105.85 110.6 105.85 111.4 105.85 118.35 95.25 127.6 84.1 137.35 73.85 137.35 61.8 137.35 55.1 129.85 49.25 123.3 44.75 107.35
L 43.05 112.9
Q 42.8 113.15 42.35 112.65
L 44.5 99.9 45.45 92.85
Q 45.45 92.35 44.95 92.25 44.4 92.1 44.4 91.6 44.4 88.2 45.85 83.5
L 47.3 78.6 47.3 77.95 47.25 78.05
Q 46.85 77.55 45.8 77.55 43.75 77.55 41.6 86.8 39.85 94.35 39.85 96.45
L 40.5 98.85
Q 41.15 101.3 41.15 103.1
L 40.95 106.75 40.2 107.1
Q 40 107 40.25 106.3
L 39.95 106.1
Q 39.9 106.6 38.4 108.1 36.9 109.6 36.35 109.7 30.9 100.45 29.5 97.65 27.4 93.65 27.4 89.45 27.4 66.05 39.7 54.85 49.8 45.65 66.6 45.65 69 45.65 70.05 46.7
L 72.25 49.15
Q 71.15 50.2 70.6 51
L 70.05 51.75
Q 71.85 52.8 72.65 52.85 74.7 54.1 85.55 63.5 78.65 66.4 75.9 70 74.1 72.25 73.9 75.25
L 74.2 76.6 75 76.65
Q 80.35 76.65 82.95 75.25 85.85 73.7 88.75 68.85
L 114.95 79.9
Q 117.6 81 119 81 121.15 81 121.15 78.3 121.15 74.75 116.1 72.95
L 112.6 71.8
Q 111 71.2 111 70.55 Z"/>
</g>

<g id="Graphics_Symbol_844_0_Layer0_0_FILL">
<path fill="#FFFFFF" fill-opacity="0.32941176470588235" stroke="none" d="
M 93.15 103.15
Q 86.35 107.4 85.3 107.6
L 86.1 108.6
Q 86.3 109 86.95 109 92.15 109 96.7 105 100.85 101.35 100.45 98.8 99.95 98.9 93.15 103.15
M 58.35 94.05
Q 55.95 93.9 54.4 96.45 53.05 98.65 53.05 101.4 53.05 104.15 54.9 105.8 56.65 107.3 58.5 106.9
L 58.75 106.5 56.5 103.25
Q 55.7 102.05 55.7 101.55 55.7 100.7 57.15 98.1 58.5 95.6 58.35 94.05
M 50.4 66.6
Q 50 66.95 50 67.45 50 67.95 50.4 68.3 50.75 68.65 51.25 68.65
L 52.15 68.3 52.5 67.45
Q 52.5 66.95 52.15 66.6 51.75 66.25 51.25 66.25 50.75 66.25 50.4 66.6
M 70.15 71.45
L 69.55 72.75
Q 69.55 74.35 70.1 74.5
L 71.05 74.75 71.65 69.7 71.4 69.4
Q 70.8 70.2 70.15 71.45
M 78.6 67.5
L 75.75 71.05
Q 75.9 71.5 76.2 71.75 79.55 68.65 80.85 66.25
L 81.65 63.85
Q 81.15 64.15 78.6 67.5
M 36.45 72.6
Q 37.8 72.6 38.95 71.7 40.1 70.75 41.5 68.5
L 40.9 72.45 41.5 72.75 42.25 72.8
Q 43.1 72.8 44.25 72.25 45.6 71.6 46.4 70.55
L 46.45 69.9
Q 45.35 69.75 43.8 69.9 46.5 67.15 47.85 64.2 48.95 61.8 48.75 60.35
L 48.6 60.25 46.25 61.4 43.45 63.3 48.2 57.65 49.75 55.55 49.7 54.95 49.4 54.9
Q 47.4 55.35 42.25 58.8 36.55 62.55 35.1 65
L 36.3 67.25
Q 35.1 68.6 35.05 70.6 35.05 72.6 36.45 72.6
M 111.35 92.25
Q 110.65 92.9 110.65 93.85 110.65 94.8 111.35 95.5 112.05 96.15 113 96.15 113.95 96.15 114.65 95.5 115.35 94.8 115.35 93.85 115.35 92.9 114.65 92.25 113.95 91.55 113 91.55 112.05 91.55 111.35 92.25
M 107.35 77.2
Q 106.5 76.35 105.3 76.35 104.1 76.35 103.25 77.2 102.4 78.05 102.4 79.25 102.4 80.45 103.25 81.3 104.1 82.15 105.3 82.15 106.5 82.15 107.35 81.3 108.2 80.45 108.2 79.25 108.2 78.05 107.35 77.2
M 92.9 87.7
Q 92.9 83.25 91.9 81.3 91 79.55 89.1 79.55 86 79.55 81.75 84.5 79.6 87 78.1 89.6 78.1 92.5 79.35 93.85 80.7 95.3 83.7 95.3 88.35 95.3 90.85 92.8 92.9 90.7 92.9 87.7
M 95.1 56.65
Q 93.65 56.65 90.55 58.2
L 87.3 59.95 87.45 60.5
Q 88.95 61.05 92.15 59.7 95.3 58.35 96.15 56.85
L 96.1 56.8 95.1 56.65 Z"/>
</g>
</defs>

<g transform="matrix( 1, 0, 0, 1, -62.75,-76.85) ">
<g transform="matrix( 1, 0, 0, 1, 0,0) ">
<use xlink:href="#Parts_Heads_headColorMC_29_Layer1_0_FILL"/>
</g>
</g>

<g transform="matrix( 1, 0, 0, 1, -62.75,-76.85) ">
<g transform="matrix( 1, 0, 0, 1, 0,0) ">
<g transform="matrix( 1, 0, 0, 1, 0,0) ">
<use xlink:href="#Graphics_Symbol_796_0_Layer0_0_FILL"/>
</g>
</g>
</g>

<g transform="matrix( 1, 0, 0, 1, -62.75,-76.85) ">
<g transform="matrix( 1, 0, 0, 1, 0,0) ">
<g transform="matrix( 1, 0, 0, 1, 0,0) ">
<use xlink:href="#Graphics_Symbol_796_0_Layer0_0_FILL"/>
</g>
</g>

<g transform="matrix( 1, 0, 0, 1, 0,0) ">
<g transform="matrix( 1, 0, 0, 1, 0,0) ">
<use xlink:href="#Graphics_Symbol_844_0_Layer4_0_FILL"/>
</g>

<g transform="matrix( 1, 0, 0, 1, 0,0) ">
<use xlink:href="#Graphics_Symbol_844_0_Layer3_0_FILL"/>
</g>

<g transform="matrix( 1, 0, 0, 1, 0,0) ">
<use xlink:href="#Graphics_Symbol_844_0_Layer2_0_FILL"/>
</g>

<g transform="matrix( 1, 0, 0, 1, 0,0) ">
<use xlink:href="#Graphics_Symbol_844_0_Layer1_0_FILL"/>
</g>

<g transform="matrix( 1, 0, 0, 1, 0,0) ">
<use xlink:href="#Graphics_Symbol_844_0_Layer0_0_FILL"/>
</g>
</g>

<g id="hat1" transform="matrix( 0.983917236328125, -0.17529296875, 0.17529296875, 0.983917236328125, 45.2,78.25) ">
<g id="colorMC" transform="matrix( 0.9999847412109375, 0, 0, 0.9999847412109375, 0,0) "/>

<g id="colorMC2" transform="matrix( 1, 0, 0, 1, 0,0) "/>
</g>

<g id="hat2" transform="matrix( 0.9733734130859375, -0.2247314453125, 0.2247314453125, 0.9733734130859375, 38,60.6) ">
<g id="colorMC_FL" transform="matrix( 0.9999847412109375, 0, 0, 0.9999847412109375, 0,0) "/>

<g id="colorMC2_FL" transform="matrix( 1, 0, 0, 1, 0,0) "/>
</g>

<g id="hat3" transform="matrix( 0.96026611328125, -0.2753753662109375, 0.2753753662109375, 0.96026611328125, 26,48.4) ">
<g id="colorMC_FL_FL" transform="matrix( 0.9999847412109375, 0, 0, 0.9999847412109375, 0,0) "/>

<g id="colorMC2_FL_FL" transform="matrix( 1, 0, 0, 1, 0,0) "/>
</g>

<g id="hat4" transform="matrix( 0.944580078125, -0.3252410888671875, 0.3252410888671875, 0.944580078125, 18.85,34.5) ">
<g id="colorMC_FL_FL_FL" transform="matrix( 0.9999847412109375, 0, 0, 0.9999847412109375, 0,0) "/>

<g id="colorMC2_FL_FL_FL" transform="matrix( 1, 0, 0, 1, 0,0) "/>
</g>
</g>
</svg>
