
<svg xmlns="http://www.w3.org/2000/svg" version="1.1" xmlns:xlink="http://www.w3.org/1999/xlink" preserveAspectRatio="none" x="0px" y="0px" width="550px" height="400px" viewBox="0 0 550 400">
<defs>
<g id="Parts_Heads_headColorMC_29_Layer1_0_FILL">
<path fill="#CACEF7" stroke="none" d="
M 92.05 66
L 94.3 65.75
Q 90.65 61.15 85.4 57.35 75.1 49.95 61.45 49.95 58.55 49.95 53.2 51.35
L 41.5 54.45
Q 42.25 56.35 42.25 57.2 42.25 59.55 37.5 65.75 32.7 74.85 32.7 91.5 32.7 108.25 42.6 123.2 54.3 140.8 72.4 140.8 90.45 140.8 100.7 129.3 109.95 118.95 109.95 103.4 109.95 97.65 107.4 88.05
L 102 88.45 101.25 88.4
Q 100.85 87.75 100.85 86.75 100.85 83.9 109.6 82.55 118.35 81.2 118.35 78.25 118.35 74.1 105.85 70.95
L 96.85 68.8
Q 92.5 67.7 91.9 66.7
L 92.05 66 Z"/>
</g>
</defs>

<g transform="matrix( 1, 0, 0, 1, -62.75,-76.85) ">
<g transform="matrix( 1, 0, 0, 1, 0,0) ">
<use xlink:href="#Parts_Heads_headColorMC_29_Layer1_0_FILL"/>
</g>
</g>
</svg>
