
<svg xmlns="http://www.w3.org/2000/svg" version="1.1" xmlns:xlink="http://www.w3.org/1999/xlink" preserveAspectRatio="none" x="0px" y="0px" width="550px" height="400px" viewBox="0 0 550 400">
<defs>
<g id="MovieClips_Symbol_621_45_Layer14_0_FILL">
<path fill="#FF0000" stroke="none" d="
M 14.7 -0.4
Q 10.9 -0.4 7.6 -0.05 4.35 0.25 1.75 0.9 -0.75 1.5 -2.6 2.45 -4.55 3.5 -5.55 4.7 -6.65 6 -7 7.8 -7.45 9.65 -7.1 12.4 -6.85 14.3 -6.15 16.85 -5.2 15.05 -4.4 13.9 -3.5 12.5 -3.05 12.55 -2.45 12.65 -2.55 14.4 -2.6 16.1 -3.45 18.8 -4.85 23.2 -5.05 24.1
L -5.1 24.2
Q -5.3 25.5 -5.25 26 -5.15 26.75 -4.85 27.25 -4.55 27.75 -3.6 28.35 -2.75 24.4 -2.1 24.45 -1.3 24.45 -0.9 29.75 0.15 30.25 0.15 30.65 0.05 31 -0.85 31.3 -0.5 39.35 -1.15 50.2 -1.6 57.95 -2.35 64.3 -3.1 70.55 -3.95 73.5 2.5 73.05 14.1 73.15
L 22.85 73.35 18 72.45 17.9 72.45
Q 11.2 71.25 6.9 70.95 4.35 70.85 3.55 70.85 2.25 70.75 2.2 70.6 2.2 70.3 3.45 70 4.85 69.6 6.9 69.45 11.5 69.05 18.3 70.3
L 18.4 70.3
Q 23.45 71.25 29.5 72.9 32.35 73.6 33.55 74.1
L 34.35 74.2
Q 34.65 73.9 34.8 73.85 33.65 68.7 32.85 64.65 31.3 56.95 31.35 50.75 31.45 43.2 33.2 35.4 33.85 32.6 35.5 27.1
L 34.5 26.65
Q 32.55 25.9 30.7 25.3 25.65 23.7 21.05 23.25 19.15 23.15 18.25 23.1 13.9 23.05 10.4 24 6.55 25 2.9 27.45 1.35 28.5 0.85 28.85 0.15 29.35 0 29.25 -0.15 29.1 0.3 28.3 0.85 27.35 1.95 26.25 5 23.15 9.65 21.55 13.7 20.25 18.3 20.35 19.35 20.35 21.35 20.5 26.6 21.1 31.45 23.3 33.6 24.25 35.2 25.35 35.6 25.65 36.3 26.2 40.25 24.95 45.7 25.9 48.75 26.45 53.3 28.3 58.5 30.5 60.65 31.1 65.25 32.45 70.9 32.7 73.55 32.75 74.85 32.7 76.2 32.65 77.9 32.45 80.7 31.9 82.15 31.1 83.6 30.2 84.4 28.95 85.2 27.8 85.75 25.65 86.2 23.75 86.55 20.4 86.95 16.75 87.1 15.4 87.8 10.1 89.15 6 90.2 2.65 90.9 2.15
L 91 1.75
Q 89.45 2.3 85.9 2.75 81.7 3.2 76.4 3.25 69.4 3.3 58.55 2.55 53.7 2.2 39.95 1
L 33.4 0.5
Q 26.55 0 22.4 -0.2 17.9 -0.4 14.7 -0.4 Z"/>
</g>
</defs>

<g transform="matrix( 1, 0, 0, 1, -33.5,-72.6) ">
<g transform="matrix( 1, 0, 0, 1, 0,0) ">
<use xlink:href="#MovieClips_Symbol_621_45_Layer14_0_FILL"/>
</g>
</g>
</svg>
