
<svg xmlns="http://www.w3.org/2000/svg" version="1.1" xmlns:xlink="http://www.w3.org/1999/xlink" preserveAspectRatio="none" x="0px" y="0px" width="550px" height="400px" viewBox="0 0 550 400">
<defs>
<g id="Parts_Bodies_bodyMC_45_Layer14_0_FILL">
<path fill="#FF0000" stroke="none" d="
M 22.4 -0.2
Q 17.9 -0.4 14.7 -0.4 10.9 -0.4 7.6 -0.05 4.35 0.25 1.75 0.9 -0.75 1.5 -2.6 2.45 -4.55 3.5 -5.55 4.7 -6.65 6 -7 7.8 -7.45 9.65 -7.1 12.4 -6.85 14.3 -6.15 16.85 -5.2 15.05 -4.4 13.9 -3.5 12.5 -3.05 12.55 -2.45 12.65 -2.55 14.4 -2.6 16.1 -3.45 18.8 -4.85 23.2 -5.05 24.1
L -5.1 24.2
Q -5.3 25.5 -5.25 26 -5.15 26.75 -4.85 27.25 -4.55 27.75 -3.6 28.35 -2.75 24.4 -2.1 24.45 -1.3 24.45 -0.9 29.75 0.15 30.25 0.15 30.65 0.05 31 -0.85 31.3 -0.5 39.35 -1.15 50.2 -1.6 57.95 -2.35 64.3 -3.1 70.55 -3.95 73.5 2.5 73.05 14.1 73.15
L 22.85 73.35 18 72.45 17.9 72.45
Q 11.2 71.25 6.9 70.95 4.35 70.85 3.55 70.85 2.25 70.75 2.2 70.6 2.2 70.3 3.45 70 4.85 69.6 6.9 69.45 11.5 69.05 18.3 70.3
L 18.4 70.3
Q 23.45 71.25 29.5 72.9 32.35 73.6 33.55 74.1
L 34.35 74.2
Q 34.65 73.9 34.8 73.85 33.65 68.7 32.85 64.65 31.3 56.95 31.35 50.75 31.45 43.2 33.2 35.4 33.85 32.6 35.5 27.1
L 34.5 26.65
Q 32.55 25.9 30.7 25.3 25.65 23.7 21.05 23.25 19.15 23.15 18.25 23.1 13.9 23.05 10.4 24 6.55 25 2.9 27.45 1.35 28.5 0.85 28.85 0.15 29.35 0 29.25 -0.15 29.1 0.3 28.3 0.85 27.35 1.95 26.25 5 23.15 9.65 21.55 13.7 20.25 18.3 20.35 19.35 20.35 21.35 20.5 26.6 21.1 31.45 23.3 33.6 24.25 35.2 25.35 35.6 25.65 36.3 26.2 40.25 24.95 45.7 25.9 48.75 26.45 53.3 28.3 58.5 30.5 60.65 31.1 65.25 32.45 70.9 32.7 73.55 32.75 74.85 32.7 76.2 32.65 77.9 32.45 80.7 31.9 82.15 31.1 83.6 30.2 84.4 28.95 85.2 27.8 85.75 25.65 86.2 23.75 86.55 20.4 86.95 16.75 87.1 15.4 87.8 10.1 89.15 6 90.2 2.65 90.9 2.15
L 91 1.75
Q 89.45 2.3 85.9 2.75 81.7 3.2 76.4 3.25 69.4 3.3 58.55 2.55 53.7 2.2 39.95 1
L 33.4 0.5
Q 26.55 0 22.4 -0.2 Z"/>
</g>

<g id="Parts_Bodies_bodyMC_45_Layer14_1_MEMBER_0_FILL">
<path fill="#000000" stroke="none" d="
M 202.15 9.8
Q 202.1 9.3 195.75 8.9 182.3 8.05 178.55 7.75 169.2 7 151.1 5 128.2 2.55 122.2 1.95
L 111.9 1.05
Q 101.95 0.3 94.45 0.1
L 88.15 0
Q 78.45 0 70.35 1.05 64.85 1.85 60.45 3.15 55.7 4.55 52.4 6.65 48.8 8.8 46.55 12 44.3 15.2 43.9 19.25 43.45 23.35 44.85 27.9 46.35 32.6 48.6 35.7 39.25 43.2 31.35 51.95 12.1 72.95 4.9 96.45 -2 118.9 0.8 148.35 2.45 165.8 13.2 186.35 24.3 207.55 38.65 219.15 49.6 228 65.45 234.2 74.9 237.95 96 244.6 102.65 246.85 113.5 246.25 119.7 245.9 131.4 244.5 138.85 243.9 146.2 241.95 152.8 240.25 160.35 237.15 162.3 236.35 169.85 234.75 175.75 233.5 178.7 231.25 186.8 225.1 190.7 222.3 192.2 221.2 194.35 219.4 196.3 217.75 199.3 214.85 202.95 211.3 204.1 210.25 210.8 205.15 216.15 197.3 221.35 189.55 223.75 181.3 227.05 174.85 228.5 169.7 228.85 168.3 229.8 166.15 230.9 163.45 231.2 162.65 235.95 156 235 140.6 234.35 131.2 229.6 103.45 228.95 100.65 228.8 100.2 228.8 100.05 227.7 97.05 224.95 89.1 223 85.25 222.1 83.5 220.6 79.5 219.25 75.9 218.05 73.8 216.85 71.75 214.25 68.25 210.9 63.7 210.3 62.85 209.95 62.35 206.8 57.25 204.65 53.75 203.05 51.85 201.75 50.3 200.45 48.1 199 45.6 198.25 44.35 198.55 41.55 198.75 37.75 198.9 33.75 198.95 32.2 199.35 25.15 200.55 16.85 201.4 11.15 201.1 11.05 200.3 10.75 198.4 16.3 196.15 22.95 195 31.8 194.75 33.9 194.15 39.55 193.6 44.8 192.85 47.7 192.05 51.05 190.8 52.85 189.55 54.85 187.25 56.2 185.05 57.5 180.65 58.3 178.05 58.65 175.9 58.7 173.85 58.8 169.75 58.7 160.95 58.3 153.8 56.2 150.45 55.25 142.35 51.85 135.25 48.95 130.5 48.15 122 46.65 115.9 48.6 114.8 47.7 114.15 47.3 111.65 45.55 108.35 44.1 100.75 40.65 92.55 39.75 89.45 39.45 87.8 39.45 80.7 39.3 74.4 41.35 67.15 43.8 62.35 48.7 60.7 50.4 59.8 51.85 59.1 53.1 59.35 53.3 59.55 53.5 60.7 52.7 61.45 52.2 63.85 50.55 69.55 46.75 75.5 45.15 80.95 43.7 87.75 43.75 89.2 43.8 92.1 44 99.25 44.7 107.15 47.15 110.05 48.1 113.05 49.3
L 114.65 50
Q 111.75 59.5 110.85 63.3 107.9 75.9 107.8 87.55 107.7 97.15 110.3 108.85 111.65 114.95 113.55 122.8 113.3 122.9 112.8 123.3
L 111.55 123.15
Q 109.75 122.4 105.3 121.3 95.85 118.75 88 117.3
L 87.85 117.3
Q 77.25 115.35 70.05 115.95 66.9 116.2 64.7 116.8 62.75 117.3 62.8 117.7 62.85 118 64.85 118.1 66.1 118.15 70.05 118.3 76.8 118.75 87.25 120.65
L 87.4 120.65 94.95 122.05 81.3 121.7
Q 63.2 121.55 53.2 122.25 54.5 117.65 55.65 107.9 56.85 98.05 57.55 85.95 58.55 69.05 58.05 56.55 59.45 56.1 59.55 55.55 59.6 54.9 57.9 54.1 57.35 45.9 56.1 45.85 55.05 45.8 53.75 51.95 52.25 51 51.75 50.2 51.3 49.45 51.15 48.3 51.05 47.5 51.4 45.45
L 51.45 45.3
Q 51.75 43.9 53.95 37.1 55.25 32.85 55.4 30.25 55.5 27.5 54.55 27.35 53.85 27.25 52.5 29.4 51.25 31.2 49.75 34 48.7 30.05 48.3 27.1 47.7 22.85 48.4 19.95 49 17.1 50.7 15.1 52.25 13.25 55.25 11.6 58.15 10.1 62.1 9.15 66.1 8.15 71.15 7.7 80.35 6.9 94.2 7.45 100.55 7.75 111.35 8.55
L 121.55 9.35
Q 143 11.25 150.5 11.75 167.4 12.9 178.35 12.85 188.65 12.75 195.9 11.65 202.25 10.7 202.15 9.8
M 196.9 51.4
Q 198.7 53.15 199.9 54.5 204.7 59.95 206.35 62.65 208.7 66.7 210.85 69.55 212.45 71.65 213.6 73.85 215.1 76.9 218.05 83.1 218.8 84.55 220.3 87.35 221.55 89.75 222.1 91.75 222.55 93.2 223.95 98.7 225.05 102.95 225.95 105.55 226.45 107.05 226.8 109.15 227 110.35 227.4 112.75 230.7 131.85 225.2 155.2 225 155.95 224.75 158.05 224.6 159.75 224.1 160.75 223.2 162.5 222.5 165.75 222.2 167.1 221.05 169.45 219.75 172 219.4 173.15 219.1 174.05 218.15 175.8 217.2 177.55 216.9 178.5 216 190.55 207.7 200.55 200 209.75 190.5 212.5 185 217.85 180.45 220.8 173.45 225.35 172.1 226.2 167.25 229.1 163.3 230.8 148.7 237.05 132.6 239.7 128.2 240.45 123.6 240.6 115.2 241.45 110.95 241.6 103.6 241.85 99.05 239.5 91.8 235.7 81.05 232.4 68.9 228.95 63 227.1 53.25 224.15 44.75 217.05 36.4 210.05 31.4 200.9 8.15 158.05 4.3 140.65 2.35 131.6 3.4 123.1 4.2 116.9 7.7 105.4 12.5 89.7 22.9 74.8 31.45 62.55 45.35 48.9
L 45.4 49.15
Q 45.85 51.85 47.65 53.7 49.7 55.85 52.45 56.4
L 52.95 56.5
Q 51.1 68.05 50.05 85.5 49.35 97.8 49.4 108 49.5 117.9 50.25 122.5 46.5 122.9 46.5 123.4 46.5 123.8 48.9 124.2 46.9 126.8 46.45 131.6 46.15 134.75 47.35 137.5 48 139 49.35 140.95 50.15 142.35 50.65 141.4 51.75 139.3 53.55 128.5 54 125.9 53.7 124.75
L 60.15 125.2
Q 58.95 126.05 58.3 128.55 57.65 131.05 57.85 134.25 58.1 138.05 59.35 140.65 60.65 143.25 62.2 143.15 63.6 143.05 63.9 140.2 64.1 138.2 63.8 133.6 63.65 127 63.4 125.4 71.05 125.7 72.45 125.7 71.4 128.45 71.3 132.05 71.25 135.85 72.35 138.5 73.4 141.2 74.95 141.2 76.3 141.25 76.5 138.4 76.55 134.3 76.55 131.75 76.65 126.3 76.65 125.8
L 85.8 125.95
Q 85.65 126.85 86.05 129.2 86.65 133.05 86.75 133.85 86.8 134.4 86.3 137.5 85.95 140.75 86.7 142.55 87.4 144.2 89.75 140.5 92.15 136.7 91.7 133.25 91.05 128.3 89.05 125.95 94.3 125.95 98.8 125.8 97.35 128.65 97.6 133.2 97.8 136.9 99.05 139.5 100.25 142.1 101.8 142 103.35 141.95 104.35 139.25 105.3 136.55 105.1 132.8 104.9 128.4 103.2 125.7 108.95 125.45 111.55 125.2 110.05 128.35 109.75 133.1 109.45 137.55 110.35 140.75 111.25 143.95 112.8 144.05 114.35 144.15 115.65 141.1 116.95 138.05 117.25 133.6 117.65 127.45 116 124.35
L 116.05 124.2
Q 116.05 124.1 115.8 124
L 115.45 123.45
Q 115.95 120.7 115 109.95 113.9 96.6 113.95 88.35 114 86.1 115.65 81.55 117.35 77.05 117.3 75.15
L 117.6 77.85 117.1 65.25
Q 117.85 50.9 126.75 50.8
L 127.8 51.05 134.9 53.3 140.55 55.85
Q 147.75 59.4 152.35 60.95 155.8 62.05 159.2 62.7
L 158.4 64 153 69.2 156.8 84.45 164.8 87.75 178.85 80.6 181 65.9 179 63.8
Q 179.8 63.75 181.5 63.5 186.3 62.75 189.85 60.7 193.2 58.75 195.1 55.5 196.15 53.7 196.9 51.4
M 192.6 170.35
L 186.05 163.45 176.8 165.5 173.1 163.55 170 168.45 164.6 173.6 168.45 188.9 176.4 192.2 190.45 185.05 192.6 170.35
M 195.25 113.25
L 188.7 106.35 179.45 108.4 175.75 106.45 172.65 111.4 167.25 116.55 171.1 131.8 179.05 135.1 193.1 127.95 195.25 113.25 Z"/>
</g>

<g id="Parts_Bodies_bodyMC_45_Layer9_0_MEMBER_0_FILL">
<path fill="#000000" fill-opacity="0.3176470588235294" stroke="none" d="
M 156 222
Q 154.95 222.2 153.15 222 151.6 221.85 148.95 221.15 145.3 220.1 141.35 218 137.8 216.1 135.4 214.25 134.05 213.2 133.55 212.7 132.3 211.45 132.25 211.4 131.95 211.35 131.65 211.9 131.3 212.6 131.6 213.65 131.9 215 132.95 216.5 134.95 219.5 138.75 222.25 142.6 225.05 147.2 226.65 149.9 227.6 152.55 227.85 154.7 228.1 156.7 227.8 158.6 227.55 162.7 227.55
L 169.9 227.65
Q 174 227.65 176 227.4 176.95 227.3 177.9 227 178.25 226.85 178.45 226.65
L 178.6 226.5
Q 178.7 226.35 178.6 226.2
L 178.5 226.05 178.4 225.95 177.95 225.6
Q 177.5 225.35 176.25 224.9 173.9 224.05 170.4 223.3 166.55 222.45 163 222.15 159.2 221.7 156 222 Z"/>
</g>

<g id="Parts_Bodies_bodyMC_45_Layer9_0_MEMBER_1_FILL">
<path fill="#000000" fill-opacity="0.2901960784313726" stroke="none" d="
M 195.15 44.4
L 195.05 49.15 190.2 58.3
Q 198.65 68.5 204.05 86.75 209.85 106.15 213.5 138.7 216.6 166.35 196 186.45 182.35 199.8 155.4 211.4 139 218.45 105.75 211.15 95.4 208.9 82.55 205 71.2 201.4 68.95 200.85 57.25 198.05 47.5 190.35 37.85 182.7 32.1 171.8 26.15 160.5 25.55 147.85 24.95 134.3 30.65 121.1 35.5 110.05 40 87.8 43.6 70 50 61.4 52.8 57.8 55.7 54.9
L 49.5 52.5 51.65 39.1 49.8 35.1
Q 25.05 52.75 12.15 80.35 -1.15 108.75 1.85 140.15 4.1 163.55 15.15 184.05 25.85 203.8 43.3 218.2 60.7 232.6 82.15 239.35 104.35 246.35 127.75 244.1 151.15 241.85 171.65 230.8 191.45 220.1 205.85 202.7 220.2 185.25 226.95 163.8 233.95 141.6 231.7 118.2 229.65 96.5 219.9 77.25 210.55 58.65 195.15 44.4 Z"/>
</g>

<g id="Parts_Bodies_bodyMC_45_Layer9_0_MEMBER_2_FILL">
<path fill="#000000" fill-opacity="0.32941176470588235" stroke="none" d="
M 15.95 -3.3
L 0.35 -0.7 -7.6 4.5 -7.9 13.35 -4.65 20.4 -6 29 -1.45 30.8 -1.9 57 -6.35 75.85 36.4 75.45
Q 34.75 64 34.85 51.1 34.9 40.45 36.2 27.2
L 45.85 27.75
Q 48.4 27.1 52.45 28.85 54.85 29.85 60.35 32.6 71.85 37.65 82.35 33
L 87.45 26.85 87.6 16.9 91.3 2 54.75 1.1 15.95 -3.3
M 60.8 26.15
Q 54.1 25.05 46.3 21.25
L 36.2 24.05 21.35 21.3
Q 20.7 21.55 20.05 21.8 22.6 22 26.05 22.6 29.35 23.25 32 23.95 24.55 31.8 23.95 44.15 23.4 55.05 28.1 64.95 25 66.4 21.35 67.35 13.95 69.25 11.1 67.1 3.4 61.35 3.2 48.75 3 37.35 8.55 27.55 10.15 24.65 11.55 23.5 8.25 23.6 6.85 22.15 3.9 19.2 5.95 10.4 6.95 6 8.55 2.2
L 26.4 5.45
Q 36 3.6 51.95 5.65 61.65 6.85 64.35 7.1 71.3 7.65 76.8 7.15 79.3 11.2 78.5 15.5 77.95 18.2 75.3 25.3 68.45 27.4 60.8 26.15
M 19.75 21.5
Q 17.45 21.3 15.85 21.5 12.9 21.85 11.25 23.2 12.9 23.2 15.05 22.75 17.5 22.25 19.75 21.5 Z"/>
</g>

<g id="Parts_Bodies_bodyMC_45_Layer9_0_MEMBER_3_FILL">
<path fill="#5F5F5F" stroke="none" d="
M 185.2 112.15
L 183.75 108.5 173.15 112.35 174.6 112.45
Q 175.5 112.8 172.8 114.15 170.1 115.55 169.9 118.8 169.8 120.45 170.25 121.8
L 171.5 123
Q 172.65 124.6 172.45 126.9 172.05 130.55 172.45 129.45
L 178.65 129.3 175.7 123.8
Q 174.8 122.45 174.5 120.95 173.95 117.95 177.15 117.25 180.35 116.55 180.35 114.45
L 179.7 112.5 185.2 112.15 Z"/>
</g>

<g id="Parts_Bodies_bodyMC_45_Layer9_0_MEMBER_4_FILL">
<path fill="#FFFFFF" fill-opacity="0.34901960784313724" stroke="none" d="
M 169.7 167.7
Q 167.2 168.5 167.95 172 168.3 173.75 169.15 175.35
L 166.6 182.25 170.45 187.55 174.6 185.2
Q 173.05 184.3 171.95 182.9 169.65 180.05 171.7 177.55 173.75 175.05 173.6 172.4
L 173 170.25 178.65 171 182.25 168.45
Q 180.1 167.95 177.5 167.6 172.2 166.9 169.7 167.7 Z"/>
</g>

<g id="Parts_Bodies_bodyMC_45_Layer9_0_MEMBER_5_FILL">
<path fill="#FFFFFF" fill-opacity="0.38823529411764707" stroke="none" d="
M 172.25 64.65
L 163.7 64.65 160.95 67.35 156.25 68.25 158.4 72.25 156.25 78.45 160.05 83.2 165.5 83.4 160.6 75.75 163.9 72.25 163.15 69.55 166.45 69.35 172.25 64.65 Z"/>
</g>

<g id="Parts_Bodies_bodyMC_45_Layer9_0_MEMBER_6_FILL">
<path fill="#FFFFFF" fill-opacity="0.27058823529411763" stroke="none" d="
M 163.45 30.85
Q 164.6 29.85 162.9 28.55 161.65 27.6 159.3 26.75 154.6 25.05 146.55 24.95 137 25.15 132.45 25.2 112.85 24.4 103.05 24.45 85.65 24.55 76.9 29.55 74.4 30.95 73.7 33.25 72.95 35.65 75 36.75 78.85 38.8 85.9 37.05 89.15 36.25 99.55 32.3 108.55 28.9 113.65 28.15 121.2 27.05 126.05 30.15 150.55 45.9 156.6 42.3 158.45 41.2 160 37 161.7 32.4 163.45 30.85 Z"/>
</g>

<g id="Parts_Bodies_bodyMC_45_Layer9_0_MEMBER_7_FILL">
<path fill="#FFFFFF" fill-opacity="0.43137254901960786" stroke="none" d="
M 163.7 137.25
Q 163.6 126.85 162.9 124.55 154.65 106.7 147 101.25 143.1 98.5 140.9 98.5 139.8 98.5 139.05 99.1 131.5 104.8 127.7 111.1 123.5 118.05 123.1 126.7 122.95 130.25 124.1 138.1 124.6 144.9 121.55 147.9 118.15 151.2 110.7 150.45 102.1 148.9 98.2 148.95 86.55 149.2 81.9 150.35 77.25 151.55 66.9 156.9 64.65 158.1 63 160.5 61.4 162.85 61.05 165.4 60.45 170 62.3 175.05 64.05 179.9 67.45 183.45 73.9 190.3 88.65 192.45 100.25 194.15 113.05 192.65 124.95 191.2 136.9 187.15 142.5 185.25 146.45 181.3 157.7 170.05 161.85 156.4 163.8 149.85 163.7 137.25 Z"/>
</g>

<g id="Parts_Bodies_bodyMC_45_Layer9_0_MEMBER_8_FILL">
<path fill="#000000" fill-opacity="0.3176470588235294" stroke="none" d="
M 55.2 171.7
Q 54.85 168.15 54.15 165.8 53.2 162.7 51.55 161 50.2 159.6 49.5 159.95 48.9 160.25 48.9 162.05 48.85 166.25 48.85 166.55 48.8 167.65 48.25 171.55 47.2 179.1 49.25 185.45 50.4 188.45 52.7 190.75 54.4 192.65 57.1 194.7
L 57.2 194.8
Q 58.45 195.8 61.85 198.2 64.45 200.05 65.7 201.15 67.25 202.6 69.7 205.1 71.9 207.25 74.15 208.75 76.9 210.6 80.1 211.2 83.4 211.8 85.7 211 87.6 210.4 87.55 209.6 87.55 209 85.85 208.15 82.7 206.65 81.85 206.1 80 204.95 78.5 203.35 77.7 202.5 75.6 199.75 73.5 196.9 71.8 195.1 69.9 193.1 67.35 191.05 64.35 188.75 62.8 187.55
L 62.7 187.5
Q 59.75 185.1 59.15 184.5 57.65 182.9 57.4 182.3 55.85 178.95 55.2 171.7 Z"/>
</g>

<g id="Parts_Bodies_bodyMC_45_Layer9_0_MEMBER_9_FILL">
<path fill="#000000" fill-opacity="0.3176470588235294" stroke="none" d="
M 112.3 124.85
L 106.4 124.95 106.8 126.45
Q 107.75 129.7 109.1 131.6 110.35 133.2 111.1 132.95 111.8 132.75 112 130.8 112.15 127.85 112.25 125.75
L 112.3 124.85
M 139.55 82.55
Q 138.35 82.85 134.6 83.55 127.1 85.05 121.8 88.95 117.35 92.3 114.1 95.95
L 114.15 112.4 114.55 111.55
Q 115.6 109.4 120.7 102.7 123.45 99.2 127.35 95.65 129 94.05 131.8 92.5 133.45 91.6 136.65 90.15 139.9 88.75 141.95 87.25 144.6 85.35 145.65 83.3 146.55 81.6 146 81.05 145.75 80.8 145.4 80.8 144.85 80.75 143.15 81.4 140.85 82.2 139.55 82.55 Z"/>
</g>

<g id="Parts_Bodies_bodyMC_45_Layer9_0_MEMBER_10_FILL">
<path fill="#000000" fill-opacity="0.3176470588235294" stroke="none" d="
M 39 81.75
Q 39.5 81.45 40.45 80.6 42.4 78.95 44.7 76.25 46.85 73.8 49.3 70.35 51.65 66.85 52.75 64.3 53.25 63.15 54.15 61.8 55.1 60.45 56.6 58.95
L 56.65 55.25 53.35 54 53 54.35
Q 51.05 56 49.35 58.4 48.25 60 47.35 62.1 46.75 63.8 44.7 67.45
L 41.1 73.75
Q 39.15 77.3 38.4 79.15 37.9 80.45 37.85 81.05 37.8 81.4 37.85 81.7
L 37.95 81.9 38.15 82.05 38.35 82 38.5 82 39 81.75 Z"/>
</g>

<g id="Parts_Bodies_bodyMC_45_Layer9_0_MEMBER_11_FILL">
<path fill="#FFFFFF" fill-opacity="0.27058823529411763" stroke="none" d="
M 87.5 55.8
Q 85.3 55.95 83.95 55.75 81.25 55 80.3 54.8 78.8 54.55 77.9 56.15 76.3 59.15 77.05 66.55 78.15 77.6 78.1 79.25 78.05 81 76.6 90.9 75.7 97.05 77.3 100.45 78.1 102.2 79.65 102.65 81.25 103.1 82.1 101.6 83.65 98.7 82.2 91.45 80.7 83.9 82.2 80.05 89.85 60.85 89.35 57.4 89.15 55.95 87.5 55.8 Z"/>
</g>
</defs>

<g transform="matrix( 1, 0, 0, 1, -33.5,-72.6) ">
<g transform="matrix( 1, 0, 0, 1, 0,0) ">
<use xlink:href="#Parts_Bodies_bodyMC_45_Layer14_0_FILL"/>
</g>

<g transform="matrix( 0.64208984375, 0, 0, 0.6421356201171875, -38.1,-5) ">
<use xlink:href="#Parts_Bodies_bodyMC_45_Layer14_1_MEMBER_0_FILL"/>
</g>

<g transform="matrix( 0.64208984375, 0, 0, 0.6421356201171875, -38.1,-5) ">
<use xlink:href="#Parts_Bodies_bodyMC_45_Layer9_0_MEMBER_0_FILL"/>
</g>

<g transform="matrix( 0.64208984375, 0, 0, 0.6421356201171875, -38.1,-5) ">
<use xlink:href="#Parts_Bodies_bodyMC_45_Layer9_0_MEMBER_1_FILL"/>
</g>

<g transform="matrix( 1, 0, 0, 1, 0,0) ">
<use xlink:href="#Parts_Bodies_bodyMC_45_Layer9_0_MEMBER_2_FILL"/>
</g>

<g transform="matrix( 0.64208984375, 0, 0, 0.6421356201171875, -38.1,-5) ">
<use xlink:href="#Parts_Bodies_bodyMC_45_Layer9_0_MEMBER_3_FILL"/>
</g>

<g transform="matrix( 0.64208984375, 0, 0, 0.6421356201171875, -38.1,-5) ">
<use xlink:href="#Parts_Bodies_bodyMC_45_Layer9_0_MEMBER_4_FILL"/>
</g>

<g transform="matrix( 0.64208984375, 0, 0, 0.6421356201171875, -38.1,-5) ">
<use xlink:href="#Parts_Bodies_bodyMC_45_Layer9_0_MEMBER_5_FILL"/>
</g>

<g transform="matrix( 0.64208984375, 0, 0, 0.6421356201171875, -38.1,-5) ">
<use xlink:href="#Parts_Bodies_bodyMC_45_Layer9_0_MEMBER_6_FILL"/>
</g>

<g transform="matrix( 0.64208984375, 0, 0, 0.6421356201171875, -38.1,-5) ">
<use xlink:href="#Parts_Bodies_bodyMC_45_Layer9_0_MEMBER_7_FILL"/>
</g>

<g transform="matrix( 0.64208984375, 0, 0, 0.6421356201171875, -38.1,-5) ">
<use xlink:href="#Parts_Bodies_bodyMC_45_Layer9_0_MEMBER_8_FILL"/>
</g>

<g transform="matrix( 0.64208984375, 0, 0, 0.6421356201171875, -38.1,-5) ">
<use xlink:href="#Parts_Bodies_bodyMC_45_Layer9_0_MEMBER_9_FILL"/>
</g>

<g transform="matrix( 0.64208984375, 0, 0, 0.6421356201171875, -38.1,-5) ">
<use xlink:href="#Parts_Bodies_bodyMC_45_Layer9_0_MEMBER_10_FILL"/>
</g>

<g transform="matrix( 0.64208984375, 0, 0, 0.6421356201171875, -38.1,-5) ">
<use xlink:href="#Parts_Bodies_bodyMC_45_Layer9_0_MEMBER_11_FILL"/>
</g>
</g>
</svg>
