
<svg xmlns="http://www.w3.org/2000/svg" version="1.1" xmlns:xlink="http://www.w3.org/1999/xlink" preserveAspectRatio="none" x="0px" y="0px" width="550px" height="400px" viewBox="0 0 550 400">
<defs>
<g id="Layer0_0_FILL">
<path fill="#FFFFFF" stroke="none" d="
M 23.5 3
Q 23.55 2.85 23.55 1.6 23.55 0.7 23.2 0.4 22.8 0 22.3 0 21.65 0 21.3 0.1
L 19.4 0.4
Q 18.6 0.6 18.2 0.85 17.2 0.7 15.8 1.35
L 13.3 2.5
Q 10.6 3.9 8.3 5.4 5.65 7.2 4 8.75 2.25 10.2 1.7 10.75 0.4 12.1 0 13.35 -0.1 13.85 0.1 13.9 0.45 14.2 1.1 13.8 1.75 13.25 2 13.1
L 4.2 11.6
Q 6.3 10.05 8.9 8.6 12.1 6.8 13.8 6
L 16.3 4.85
Q 17.2 4.5 17.9 4
L 21.6 3.5
Q 22.3 3.5 22.6 3.4 23.15 3.4 23.5 3 Z"/>
</g>
</defs>

<g transform="matrix( 1, 0, 0, 1, 0,0) ">
<use xlink:href="#Layer0_0_FILL"/>
</g>
</svg>
