
<svg xmlns="http://www.w3.org/2000/svg" version="1.1" xmlns:xlink="http://www.w3.org/1999/xlink" preserveAspectRatio="none" x="0px" y="0px" width="550px" height="400px" viewBox="0 0 550 400">
<defs>
<g id="Parts_Heads_headColorMC_3_Layer1_0_FILL">
<path fill="#FFFF00" stroke="none" d="
M 109.55 68.1
Q 105.1 68.55 99.3 70.5
L 93.85 72.3
Q 92.95 72.35 92.05 73
L 90 71.5
Q 91.2 67.95 92 64 93.3 57.3 92.35 52.65 91.4 48 88.6 48 81.7 48 75.55 51.85 70.7 54.9 69.8 58
L 67.25 58.75 66.7 58.4
Q 64 51.65 55.75 51.65 48.3 51.65 44.35 54.6 40.8 57.3 40.8 61.7 40.8 63 41.4 64.7
L 37.3 67.5 32.25 66
Q 26.7 64.5 25 64.5 19.05 64.5 15.8 69.95 13.5 73.9 13.5 78 18.75 92.15 22.45 94.35
L 22.7 97.5
Q 22.4 97.6 22.15 97.8 17.2 101.4 17.2 107.3 17.2 120.4 24.4 129.8 31.35 138.95 40.5 138.3
L 40.8 138.35 43.75 138.1
Q 44.65 143.95 48.25 148.3 52.9 153.8 59.4 153.8 68.3 153.8 71.55 147.85 73.1 144.95 73.3 140.15
L 73.55 139.85 75 138.4 77 137.65
Q 81.15 141.3 87.9 141.3 95.65 141.3 101.45 135.3 107.3 129.3 107.3 121.1 105.55 108.9 103.5 105.45
L 103.9 103.5
Q 104.45 101.65 106.05 100.35 111.45 98.4 117.3 91.15 123.9 83 123.9 79.9 123.9 66.65 109.55 68.1 Z"/>
</g>
</defs>

<g transform="matrix( 1, 0, 0, 1, -62.75,-76.85) ">
<g transform="matrix( 1, 0, 0, 1, 0,0) ">
<use xlink:href="#Parts_Heads_headColorMC_3_Layer1_0_FILL"/>
</g>
</g>
</svg>
