
<svg xmlns="http://www.w3.org/2000/svg" version="1.1" xmlns:xlink="http://www.w3.org/1999/xlink" preserveAspectRatio="none" x="0px" y="0px" width="550px" height="400px" viewBox="0 0 550 400">
<defs>
<g id="Layer0_0_FILL">
<path fill="#000000" fill-opacity="0.25098039215686274" stroke="none" d="
M -8.5 9.8
L -8 9.65 -6.95 9.45 -5.75 10.65
Q -4.4 12 -3.25 12.7
L -2 11.85
Q -1.7 11.45 -1.7 10.6 -1.7 9.95 -2.65 5.85 -3.35 5.45 -5.2 4.8
L -7.15 4.2
Q -9.55 4.2 -13.55 6.1 -15.55 7.05 -17.4 8.15 -20.9 11.3 -20.9 16.25 -20.9 18.15 -20.55 18.5 -20.05 18.05 -19.7 17
L -18.8 14.05 -17.5 13.95
Q -15.75 13.95 -15.55 16.05
L -15.3 17.25
Q -14.55 16.4 -14.3 13.55 -14.1 11.4 -12.55 11.4 -11.8 11.4 -11.3 12.15
L -9.75 14.7 -8.5 9.8
M 38.05 0.3
Q 37.6 0.75 37.2 2.35 38.75 2.85 40.2 3.9
L 40.2 2.65 39.75 0.9 38.95 0
Q 38.45 -0.2 38.05 0.3
M 3 -7.65
L -2.9 -7.65 3.45 5.4
Q 6.95 13.1 6.95 16.8
L 3.85 26.35
Q 3.85 27.9 6.45 29.45 10.45 31.85 19.2 32.4 28.5 33 37.95 34.75 46 36.25 50.65 36.25 55.65 36.25 58.3 34.8 61.1 33.3 61.1 30.3
L 60.8 25.9
Q 60.15 21.5 58.65 20.6
L 57.45 25.6
Q 56.85 28.25 56.2 29.5 54.35 33 47.6 33 35.6 33 24.95 28.35 14.05 23.55 13.3 17.55 12 6.75 10.25 1.65 7.8 -5.35 3 -7.65 Z"/>
</g>
</defs>

<g transform="matrix( 1, 0, 0, 1, 0,0) ">
<use xlink:href="#Layer0_0_FILL"/>
</g>
</svg>
