
<svg xmlns="http://www.w3.org/2000/svg" version="1.1" xmlns:xlink="http://www.w3.org/1999/xlink" preserveAspectRatio="none" x="0px" y="0px" width="550px" height="400px" viewBox="0 0 550 400">
<defs>
<g id="Layer0_0_FILL">
<path fill="#000000" fill-opacity="0.25098039215686274" stroke="none" d="
M 59.35 21.05
Q 49.15 17.7 45.05 14.95 41.8 13.65 39.05 12
L 35.15 9.55
Q 31.15 7.25 25.8 7.35 20.45 7.45 12.1 10.2 3.7 12.9 0.4 12.9 -2.95 12.9 -8.1 9 -13.3 5.05 -12.75 2.9
L -13.35 3.85
Q -13.85 5.55 -13.85 11.8
L -12.3 30.05 -11.95 31.7 -11.85 32.85
Q -11.9 34.05 -11.5 34.9 -11.15 37.15 -10.25 38.2 -9.2 39.4 -6.7 39.4 -4.2 39.4 -5.1 33.55 -6 27.7 -5.4 26.1 -4.85 24.45 -3.05 24.1
L 5.8 23.85
Q 12.8 24.05 16.45 25.75 20.1 27.45 29.4 32.65 38.7 37.85 54.8 37.85 58.65 37.85 62.1 35.6 66.25 32.9 66.25 28.5 66.25 24.25 59.35 21.05
M 59.1 34.6
Q 57.05 35.6 53.8 35.6 49.8 35.6 46 33.1
L 38.85 27.65
Q 27.95 19.65 10.3 19.65
L -3.3 20.6 -8.1 20.4 -8.35 20.15 -8.6 19.3
Q -8.6 16.95 -0.9 16.75
L 13.6 16.45 17.45 15.4
Q 21.35 14.5 28.05 14.5
L 34.65 14.95
Q 36 15.25 37.2 16.5 41.25 20.6 50.65 24.35 54.3 25.8 58.85 26.3 61.65 27.05 61.65 30.9 61.65 33.4 59.1 34.6
M -10.1 36.55
L -10 36.6 -10.1 36.6 -10.1 36.55 Z"/>
</g>
</defs>

<g transform="matrix( 1, 0, 0, 1, 0,0) ">
<use xlink:href="#Layer0_0_FILL"/>
</g>
</svg>
