
<svg xmlns="http://www.w3.org/2000/svg" version="1.1" xmlns:xlink="http://www.w3.org/1999/xlink" preserveAspectRatio="none" x="0px" y="0px" width="550px" height="400px" viewBox="0 0 550 400">
<defs>
<g id="Layer0_0_FILL">
<path fill="#000000" stroke="none" d="
M 40.7 11.55
L 43.95 11.85
Q 40.45 9.55 38.5 9.5
L 35.85 9.85
Q 33.65 8.8 30.7 7.9 24.75 6.2 20.45 7.3
L 21.6 3.1
Q 19.55 7.55 12.3 10.15 6.55 12.25 1.3 12.25 -3.8 12.25 -7.7 8.85 -11.75 5.35 -13.25 -0.6
L -13.95 0.05 -14.25 1.15 -13.65 32.6 -13 35.45
Q -12.4 38.3 -12.6 38.95
L -8.2 39.35
Q -5.45 39.35 -4.1 38.1
L -5.25 31.35 -4.25 25 9.35 24.85
Q 14.35 24.85 18.3 26.95 20.65 28.2 25.2 31.55 35.3 38.25 53.5 38.25 63.1 38.25 65.8 33.9 66.8 32.3 66.8 27.95 66.8 25.3 64.55 23.55 62.9 22.3 58.6 20.65 46.3 15.9 40.7 11.55
M 60.1 35.5
Q 56.05 36.6 48.4 36.6 40.25 36.6 35 34.5 33.05 33.75 26.9 29.95 21.75 26.8 16.15 25.35 8 23.25 -5 23.25 -6.4 23.25 -6.4 37.35
L -9.75 37.5
Q -10.55 37.5 -11.5 32.25 -12.85 24.55 -12.85 10.05
L -12.55 5.5 -12.35 4.3
Q -10 9.25 -8.4 10.6 -4.7 13.75 3.75 13.75 6.3 12.5 9.5 11.25 15.95 8.75 19.85 8.75
L 25.7 7.8
Q 30.35 7.8 32.9 9.1 34.6 9.95 34.6 10.55 34.6 11.7 39.45 13.75
L 50.1 17.95
Q 65.55 24.4 65.55 30.45 65.55 34 60.1 35.5
M 40.1 11.4
L 40.1 12.35 38.2 11.25 40.1 11.4 Z"/>
</g>
</defs>

<g transform="matrix( 1, 0, 0, 1, 0,0) ">
<use xlink:href="#Layer0_0_FILL"/>
</g>
</svg>
