
<svg xmlns="http://www.w3.org/2000/svg" version="1.1" xmlns:xlink="http://www.w3.org/1999/xlink" preserveAspectRatio="none" x="0px" y="0px" width="550px" height="400px" viewBox="0 0 550 400">
<defs>
<g id="Layer0_0_FILL">
<path fill="#000000" stroke="none" d="
M 13.55 -2.1
L 8.5 -5.75
Q 4.25 -8.7 -0.6 -9.7 -5.15 -11.1 -8.25 -10.25
L -10.5 -9.4
Q -14.1 -7.7 -15.65 -3.9 -17.2 -0.2 -16.35 3 -15.7 5.4 -13.75 5.8
L -11.85 5.8 -9.75 6.65
Q -3.75 8.7 -3.75 11.6 -3.75 13.2 -4.3 14.2
L -5.7 15.55 -5.7 15.6
Q -7 16.2 -10 16.3
L -14.05 16.7 -14.55 17
Q -16.25 17.85 -16.25 20.25
L -16.25 22.45
Q -16.55 24.15 -16.35 24.85
L -16.35 25.25
Q -16.1 26.65 -15.45 27.95
L -15.8 27.75 -15.2 29.95 -12.85 31.05 -12 31.75
Q -0.85 39.8 38.25 39.8 61.65 39.8 69.55 28.75 73.5 23.3 73.5 13
L 73.25 11.35
Q 73 8.4 72.15 5.2 70.75 -0.6 68.1 -5.5 62.5 -18.35 55.25 -18.35 50.5 -18.35 47.2 -17.25
L 46.7 -17.1
Q 45.9 -16.9 45.15 -16.35 42.6 -15.05 41.3 -12.8
L 39.05 -7.85
Q 37.65 -4.85 35.5 -3.25 33.35 -1.6 31.5 1.2
L 28.4 5.85
Q 24.65 10.4 15.9 12.4
L 15.55 12.45 15 13 12.95 13.1 13.05 12.95 12.3 13.05 11.55 10.75 11.55 10.7 10.75 8.1
Q 10.75 7.65 12.25 4.6 13.75 1.6 13.75 -0.1
L 13.75 -0.35 13.55 -2.1
M 5 -4.25
Q 11.25 -1.25 11.25 -0.3 11.25 0.95 9.75 3.6 8.5 5.8 8.3 7.75
L 8.25 8.5 8.8 12.05 8.8 12.2 9.3 13.2
Q 10.75 15.75 14 15.75
L 19.05 15.4
Q 21.95 14.6 24.5 13.3 27.4 11.9 30.3 9.8 37.75 4.35 37.75 0.35 37.75 -1.55 40.95 -6.6
L 45.5 -13.25
Q 46.05 -14.05 48.1 -14.55
L 52.95 -14.75
Q 59.95 -13.95 63.3 -7.75 68.85 2.6 69.85 6.8 70.55 9.65 70.55 19.35 70.55 20.9 69.1 23.4 67.25 26.6 64 29.25 57.55 34.5 47.6 36.1
L 38.15 36.8 15.65 36 14.6 35.85
Q 3.35 34.5 -4.85 32.1
L -7.85 30.75
Q -11.95 28.55 -13.15 25.4 -13.75 23.9 -13.75 20.5
L -13.6 19 -9.9 19.15 -8.1 18.85
Q -5.25 18.15 -3.25 15.9
L -1.8 14.05
Q -0.75 12.25 -0.75 10.65 -0.75 5.6 -7 4.35
L -11.3 3.55
Q -13.25 3 -13.25 1.75 -12.85 -0.55 -11.75 -2.85 -10.15 -6.15 -7.95 -7.1
L -6.05 -7.5
Q -1.85 -7.5 5 -4.25
M -14.85 -2.85
Q -14.25 -4.7 -13.2 -6
L -13.75 -5.1 -15.1 -1.95 -14.85 -2.85 Z"/>
</g>
</defs>

<g transform="matrix( 1, 0, 0, 1, 0,0) ">
<use xlink:href="#Layer0_0_FILL"/>
</g>
</svg>
