
<svg xmlns="http://www.w3.org/2000/svg" version="1.1" xmlns:xlink="http://www.w3.org/1999/xlink" preserveAspectRatio="none" x="0px" y="0px" width="550px" height="400px" viewBox="0 0 550 400">
<defs>
<g id="Layer0_0_FILL">
<path fill="#FFFFFF" stroke="none" d="
M 33.15 -25.5
Q 33.15 -40.25 12.4 -40.25
L 6.15 -39.25
Q 5.65 -41.4 3.05 -43.4 -0.7 -46.25 -6.6 -46.25 -13.45 -46.25 -24.85 -35 -29.15 -30.8 -32.3 -26.65 -35.35 -22.65 -35.35 -21.5 -35.35 -18.5 -34.1 -14.75 -39.75 -13.5 -43.45 -5.7 -46.35 0.4 -46.35 5.25 -46.35 9.1 -42.95 13.7 -38.8 19.35 -32.85 19.5 -35.35 22.7 -35.35 26.6 -35.35 30.9 -31.85 34.55 -25.4 41.25 -9.6 41.25 -1.25 41.25 8.1 43.75 17.45 46.25 22.9 46.25 45.4 46.25 45.4 27.6 45.4 24.4 38.4 13.75 46.4 12.75 46.4 5.6 46.4 2.55 40.35 -7.25 34 -17.65 29.65 -20.25 29.9 -21.25 33.15 -25.5
M -23.5 -33.6
L -23.85 -33.5 -23.6 -34 -23.5 -33.6 Z"/>
</g>
</defs>

<g transform="matrix( 1, 0, 0, 1, 0,0) ">
<use xlink:href="#Layer0_0_FILL"/>
</g>
</svg>
