
<svg xmlns="http://www.w3.org/2000/svg" version="1.1" xmlns:xlink="http://www.w3.org/1999/xlink" preserveAspectRatio="none" x="0px" y="0px" width="550px" height="400px" viewBox="0 0 550 400">
<defs>
<g id="Parts_Heads_headColorMC2_40_Layer3_0_FILL">
<path fill="#FFFF66" stroke="none" d="
M 114.4 110.15
Q 114.1 110.65 114 111.3
L 113.95 111.5 114.05 111.95
Q 114 112.15 114.25 112.4
L 114.4 112.55 114.65 112.9 114.75 112.95 114.75 113 115.25 113.25 115.25 113.2 115.35 113.3
Q 115.4 113.4 115.65 113.35
L 116 113.4 117.1 113.1 117.55 113.1
Q 117.6 113.1 117.7 113.1 118.25 113.2 118.8 113.35 119.2 113.4 119.55 113.4 121.35 113 120.85 111.3 120.5 110.05 120.5 108.7 120.45 107.5 120.3 106.25 120.05 104.75 118.55 104.95 117.7 105.25 117.6 106.2 117.5 106.7 117.4 107.2 117.3 107.8 117.15 108.25 117.05 108.4 116.95 108.65 116.65 108.85 116.45 109.15 116.35 109.1 116.3 109.15
L 115.35 109.35 114.4 110.15
M 76 134.45
Q 76.2 133.7 76.8 132.9 76.85 132.75 76.9 132.75 78.5 132.15 78.65 130.6 78.75 129.7 77.75 129.35 76.75 129.05 75.75 128.65 73.65 128.05 71.5 127.7 71 127.55 70.5 127.3 69.15 126.6 67.9 126.85 67.8 126.55 67.7 126.25 67.45 125.9 67 125.7 66.55 125.5 66.15 125.55 64.85 126.1 65.25 127.45 65.85 129.3 66.95 130.95 68.8 133.9 70.45 136.95 70.9 137.85 71.9 137.85 72.85 137.75 73.65 137.15 74.1 136.7 74.7 136.25 75.8 135.6 76 134.45
M 27 64.5
Q 26 63.55 25.5 63 25.15 62.65 23.55 60.35 22.4 58.6 20.1 56.45
L 18.4 54.65
Q 18 54 17.7 53.7 17 52.9 15.9 53 14.85 53.2 14.4 54.2 14.35 54.4 14.3 54.65 14.15 54.8 14.05 55.05 13.45 56.4 13.95 57.8 14 58 14 58.2 13.6 59.5 13.15 60.85 12.95 61.4 12.9 61.9 12.15 65.15 12.35 68.6 12.35 69.4 12.45 70.25 12.7 71.7 12.8 73 13.15 76.15 14.3 79.1 14.75 80.15 15.35 81.05 15.35 81.2 15.35 81.3 15.6 82.1 15.9 82.9
L 15.9 82.95
Q 15.8 83.7 16.25 84.55 16.55 85.25 17.35 86.55 17.7 87.3 18.35 89
L 19.55 91.45
Q 19.75 91.9 20.1 92.25
L 20.85 93.4
Q 21.4 94.25 21.75 94.4 21.95 94.55 22.2 94.65 22.9 95.75 23.85 96.85 25 98.3 26.45 99.65 27 100.45 27.7 101.25 28.45 102.1 29.25 102.8 29.35 102.9 29.5 103.05
L 31.35 104.75
Q 33.25 106.4 35.2 107.6 36.2 108.25 36.85 108.3 38.25 108.4 38.8 107.25 39.3 106.1 38.6 105.1 38.65 104.45 38.65 103.7 38.7 100.95 39 98.2 39.15 97.8 39.2 97.25 39.15 97.2 39.2 97.1 39.25 97.1 39.3 97.05 39.5 96.8 39.6 96.8
L 39.55 96.75
Q 39.65 96.7 39.8 96.55
L 40.25 95.8
Q 40.35 95.65 40.3 95.55
L 40.35 94.6
Q 40.4 94.45 40.3 94.4
L 40.25 94.2 39.55 93.3
Q 39.5 93.35 39.45 93.25
L 38.9 93 38.55 93
Q 38.5 92.95 38.45 92.9 38.1 92.8 37.1 92.8 37.05 92.75 37 92.75 36.75 92.8 36.55 92.8
L 33.5 92.85
Q 33.4 92.85 32.75 92.65
L 31.55 92.05
Q 30.35 91.6 29.9 91.15 29.3 90.7 28.8 89.8 28.35 89.05 28.2 88.45
L 28.1 87.2
Q 28.05 86.85 27.75 85.85 27.45 85 27.45 84.45 27.6 83.8 27.65 83.4
L 27.7 82.2
Q 27.85 82.05 27.85 81.9 28.4 80.85 28.75 79.6 29.1 78.55 29.7 77.65 29.95 77.25 30.35 77.1 31.15 76.8 31.65 76.25 31.9 76.15 32.1 76.05 32.85 75.65 33.15 74.8
L 33.15 74.65
Q 33.25 74.15 33.1 73.8
L 32 71.8
Q 31.85 71.4 31.5 71.1
L 30.95 70.65
Q 30.65 70.4 30.45 70
L 29.25 67.9 28.55 67.45
Q 28.45 67.15 28.2 66.45 27.55 65.1 27 64.5
M 105 94.25
Q 104.9 94.15 104.75 94.2 103.2 93.45 101.35 94.2 100.25 95 99.05 95.7 96.65 97.4 97.15 100.15 97.25 100.65 97.05 101.3 97.05 101.4 97 101.6 96.15 100.8 95.1 100.35 92.4 99.15 89.65 100.2 87.25 101 86.65 103.3 86.5 103.75 86.35 104.2 85.85 105.9 86.4 107.55 86.75 108.7 87.2 109.8 88 111.8 90 112.75
L 90 112.8
Q 90.25 113.35 90.75 113.6 94.65 115.3 98.9 114.8 99.7 114.7 100.5 114.7 101.3 114.7 101.95 114.25 102.1 114.15 102.25 114.15 102.85 114.05 103.4 113.25 103.7 112.75 103.95 112.15 104.55 111.05 105.3 109.9 106.65 107.95 107.35 105.5 107.5 104.85 107.6 104.25 108.25 101.45 107.85 98.7 107.8 98.3 107.7 98.1 107.7 97.9 107.7 97.75
L 107.7 97.55 107.65 97.15 107.55 96.95 107.55 96.9 106.5 95.25 106.35 95.2 106.4 95.1 106.3 95.05 106.1 94.85 106 94.85 105.9 94.75 105.35 94.35
Q 105.35 94.4 105.15 94.3 104.95 94.05 105 94.25
M 103.65 98.3
Q 103.7 98.3 103.75 98.35
L 104.25 99.15 104.4 99.15 104.4 99.25 104.75 99.5 104.8 99.5
Q 104.9 99.6 105.1 99.65
L 105.25 99.65
Q 105.2 100.05 105.2 100.4 105.25 101.8 105.1 103.2 104.7 105.6 103.45 107.85
L 103.3 107.75
Q 103.1 107.65 103.1 107.7
L 102.95 107.65 102.3 107.6 101.6 107.8
Q 101.5 107.7 101.4 107.6 101.25 107.35 101.1 107.05 100.9 106.55 100.65 106 100.55 105.8 100.5 105.7 100.4 105.45 100.35 105.3 100.1 104.55 99.85 103.85 99.2 102.05 100.35 100.55 101.6 98.8 103.65 98.3
M 92.55 103.8
Q 94.15 104.5 95.7 104.9 96.55 105.85 97.6 106.65 97.9 106.85 98.05 107.15 98.55 107.85 98.7 108.7 98.7 108.85 98.7 109.05 98.75 109.5 98.6 109.85 98.35 110.35 97.8 110.6 97.15 110.9 96.5 111.25 96.3 111.35 96.25 111.45 95.3 111.35 94.4 111.1 93.4 110.9 92.5 110.7 92.3 110.55 92.1 110.5 91.75 110.3 91.4 110.05 89.45 108.8 89 106.6 89 106.3 89.05 105.95 89.3 105.2 89.85 104.45 90.9 103.1 92.55 103.8
M 88 47.85
Q 86.7 47.05 85.55 46.05 81.65 42.75 76.9 41.65 76.75 41.4 76.45 41.3 73.7 40.05 70.6 39.8 69.75 39.7 68.9 39.45 65.85 38.45 62.8 38.75 62.3 38.9 61.9 39.35 60.1 41.55 62.6 43.3 64.4 44.45 65.45 46.2 67.75 49.95 69.5 54 70.05 55.35 70.55 56.8 70.7 57.55 71 58.25
L 70.8 58.75 70.8 58.9
Q 70.75 58.9 70.7 59.05 70.7 59.6 71 60.1
L 71.05 60.25 71.3 60.6 71.4 60.65
Q 71.4 60.7 71.5 60.8
L 72.4 61.25 72.85 61.25
Q 73.75 61.25 74.25 60.5
L 74.5 60.25 74.55 60.15
Q 76.9 59.65 79.35 59.35 81.35 59.05 83.3 58.95 84.05 59.55 84.75 60.2 87.25 62.5 88.7 65.65 88.5 66.2 88.6 66.85 87.35 67.3 87.05 68.6 86.85 69.4 87.35 70 88.75 71.75 91.25 72.15 91.35 72.15 91.45 72.2 91.55 73.8 93.1 74.95 94.65 76.05 96.4 77
L 96.75 77.6 96.95 77.7
Q 96.9 77.8 97.05 78.1
L 97.4 78.65 97.45 78.7 97.65 78.95 97.75 79 97.7 79.1 97.9 79.2
Q 98.05 79.25 98.05 79.2
L 98.1 79.35 98.3 79.4 98.6 79.55
Q 98.7 79.5 98.8 79.55 99 79.5 99.05 79.65
L 99.15 79.55
Q 99.8 79.55 100.25 79.2
L 100.5 79.05 100.5 78.95
Q 100.7 78.95 100.75 78.75
L 101.05 78.15 101.05 78.1 101.1 77.9 101.15 77.4
Q 101.25 77.2 101.25 76.95 101.7 76.45 101.85 75.65 102.05 74.2 101.5 72.75 102.3 71.55 101.8 70.15 100.5 66.8 99.4 63.25 97.6 57.35 93.55 52.65 91.05 49.8 88 47.85 Z"/>
</g>
</defs>

<g transform="matrix( 1, 0, 0, 1, -62.75,-76.85) ">
<g transform="matrix( 1, 0, 0, 1, 0,0) ">
<use xlink:href="#Parts_Heads_headColorMC2_40_Layer3_0_FILL"/>
</g>
</g>
</svg>
