
<svg xmlns="http://www.w3.org/2000/svg" version="1.1" xmlns:xlink="http://www.w3.org/1999/xlink" preserveAspectRatio="none" x="0px" y="0px" width="550px" height="400px" viewBox="0 0 550 400">
<defs>
<g id="Layer0_0_FILL">
<path fill="#E2B8E8" stroke="none" d="
M 19.5 27.85
Q 18.15 27.25 16.5 26.75 11.55 25.6 9.1 24.9 8.2 24.65 7.95 26.15 7.75 27.4 8.05 28.25 8.45 29.5 9.2 31.1
L 9.2 31.05 9.35 31.3
Q 9.35 31.9 9.7 32.5 11.15 35.3 14.05 36.7 16.8 37.95 19.55 36.7 20.9 36.05 21.7 34.85 22.2 34 22.35 33.1
L 22.4 33.1 22.6 33.05
Q 22.75 33.05 22.95 32.85
L 23.15 32.35 23.3 31.7 23.3 31.15
Q 23.3 30.65 23.15 30.2
L 23 29.8
Q 22.9 29.5 22.65 29.35
L 22.55 29.3
Q 22.45 29.2 22.25 29.2
L 22.1 29.2 21.85 29.3 21.65 29.5
Q 20.75 28.35 19.5 27.85
M 80.1 8.25
Q 80.15 6.85 78.3 7.45 76.65 8 74.75 9.7 72.8 11.45 72.5 12.8 72.2 14.45 74.65 14.65 75.4 14.75 77.7 15.2 79.55 15.2 78.8 12.75 78.85 12.5 79.7 10.9 80.35 9.65 80.1 8.25 Z"/>
</g>
</defs>

<g transform="matrix( 1, 0, 0, 1, 0,0) ">
<use xlink:href="#Layer0_0_FILL"/>
</g>
</svg>
