
<svg xmlns="http://www.w3.org/2000/svg" version="1.1" xmlns:xlink="http://www.w3.org/1999/xlink" preserveAspectRatio="none" x="0px" y="0px" width="550px" height="400px" viewBox="0 0 550 400">
<defs>
<g id="Graphics_Symbol_790_0_Layer0_0_FILL">
<path fill="#A49F67" stroke="none" d="
M 65.5 124.05
L 74.45 122.6
Q 78.35 122.6 81.45 123.45
L 81.55 123.5 81.65 123.4 90.2 124.4
Q 100 125.15 106.7 124.1 125.85 121.2 128.95 121.2
L 128.4 121.5 132.7 120.85
Q 135.9 120.6 140.1 119.05 141.8 118.45 144.6 114.75 147.8 110.5 147.4 107.9 126.4 108 119.05 108.4 104.8 109.4 98 112.45 93.2 114.55 87.75 114.15
L 86.8 114.65 85.4 114.45 85.65 113.85 81.55 113.05
Q 71.4 109.2 65.75 108.15
L 65.55 111.85
Q 65.25 115.9 65.5 124.05 Z"/>
</g>

<g id="Graphics_Symbol_836_0_Layer2_0_FILL">
<path fill="#568128" stroke="none" d="
M 64.55 126.95
L 62.85 127.25 64.55 127.1 64.55 126.95
M 71.35 85
L 72.4 85 69.7 83.5
Q 68.7 82.8 67.75 80.65
L 67.5 78.95 67.2 76.5 66.85 77.1 66.45 79.85
Q 66.3 81.1 66.45 81.3 66.95 82.65 68.6 83.85 70.1 84.9 71.35 85 Z"/>

<path fill="#A49F67" stroke="none" d="
M 65.55 126.95
L 68.5 126.15 65.55 126.7 65.55 126.95 Z"/>

<path fill="#000000" stroke="none" d="
M 92.2 57.15
L 87.05 57.85 80.65 58.95
Q 78.45 59.7 77.55 62.5 76.5 64.95 76 65.2
L 71.35 65.65
Q 66.85 65.9 64.55 66.75 60.95 68.15 59.25 70.8 58.4 72.15 58.1 73.8
L 58.2 74.45 57.9 76 57.9 76.25 57.7 76.25 57 76.5 54.4 76.35
Q 52.05 77.45 48.5 81.95 46.25 84.8 44.15 88.25 42.45 88.75 41.55 90.9 40.9 92.4 40.85 94.1
L 40.2 95.4 39.95 97.45 40 97.65 39.65 101.15 39.9 103.25
Q 39.6 105.7 40.05 106.2 40.05 108.85 41.5 113.95 43.25 120.35 46.2 125.8
L 46.75 126.75 48.15 128 48.25 128 53.2 128.35 54.85 128.1 59.4 127.55 62.85 127.25 64.55 126.95 64.55 127.1 65.15 127.05 65.55 126.95 65.55 126.7 68.5 126.15 72.25 125.1 73.7 124.95 75.7 124.7
Q 77.55 124.7 81.4 126.6
L 82.25 127 82.6 127.05 90.1 128.1 92.2 128.55
Q 125.5 126.75 136.45 122.65 143.8 119.85 147.75 115 151.6 110.4 150.3 107.25 149.2 104.75 147.05 105.85
L 146.25 101.45 145.85 99.9
Q 144.95 97.7 143.9 98.05 142.45 98.6 140.9 102.3 139.3 105.75 138.85 105.95
L 138.1 106.15 136.6 105.9 136.95 105.4 136.8 104.65 134.8 101.25
Q 133.45 99.3 132.5 98.85 131.9 99.45 130.5 102.3 129.2 105.1 128.55 105.2 122.45 107.7 120.3 104.65
L 119.15 102.5
Q 118.65 101.5 117.7 101.85
L 117.3 103.3
Q 116.7 104.9 113.6 106.1
L 111.9 106.2 110.7 106.1
Q 112.8 100.65 112.6 97.4
L 112.6 96.2
Q 112.75 95.85 113.75 95.45 116.2 94.4 118.95 97.85 122.9 102.6 125.65 104.15 128.7 97 130.05 91.8 130.5 89.5 131.55 89.05 132 88.9 132.1 89.05
L 132.3 89.2 135.3 95 138.95 101.2
Q 140.35 100.55 140.6 95.05 140.9 88.85 142.7 86.1 144.85 90.75 146.35 92.9 148.15 95.8 149.5 95.8 149.55 82.35 150.95 77.85 151.35 76.85 151.1 76.25
L 149.4 71.95
Q 143.45 57.55 126.15 53.95 110.15 50.45 92.2 57.15
M 81.65 59.9
Q 83.85 59.2 86.4 60.25 88.7 61.4 89.1 61.3 89.5 61.15 89.35 60.9 89.2 60.55 89.5 60.5
L 112.3 55.6
Q 119.9 52.75 130.8 56.45 142.95 60.65 147.1 70.35 150 77.4 143 81.75 140.4 83.55 136.05 85.15 131 87 128.9 87.9 118.7 91.65 93.75 97.8
L 67.6 104.3
Q 64.1 105.6 62.9 106.3 61.15 107.35 61.45 108.05 61.8 108.8 61.85 108.55
L 62.8 108.3 63.9 120.4 64.3 124.25 53.8 125.8
Q 51.05 125.8 50.65 124.25 50.65 122.3 47.7 123.05 42.9 114.4 42.9 106.85 42.9 103.85 44.15 96.15
L 45.3 89.4 47 88.05 51.7 83.95 52.15 84.75 52.95 84.65 54.05 83.55
Q 54.95 82.15 55.65 78.25
L 59.2 78.35
Q 59.6 78.1 60.85 74.1 62.2 70 64.85 68.95
L 69.25 68.75
Q 72.85 68.75 74.65 68.05 78.3 66.8 80.25 63.35
L 81.65 59.9
M 105.75 97.45
L 110.55 96.35 109.55 103.7
Q 106.35 98.1 105.75 97.45
M 137.45 95.4
Q 136.85 93.7 135.75 91.75 134.3 89.1 133.25 88.3
L 142 84.85
Q 140.85 87.95 138.35 97.1
L 137.45 95.4
M 146.6 86.15
Q 147.3 88.65 147.15 89.85 145.45 86 144.1 83.85
L 145.85 83.1 146.6 86.15
M 120.15 95.4
Q 118.55 92.25 125.65 91.4 124.95 97.9 124.2 101.15 123.85 100.2 122.2 98.35 120.6 96.3 120.15 95.4
M 80.45 106.9
L 78.55 103.7 80.8 103.65 80.45 106.9
M 79.4 109.15
L 80.5 110.15 82.25 110.05
Q 82.5 109.95 82.55 108.8 82.7 106.45 83.2 104.25 84.7 107.35 86.6 108.2 87.75 108.9 88.65 108.45
L 90.65 105.2
Q 92.45 102.1 92.75 100.6 94.35 102.6 96.35 105.9 98.1 108 99.55 107.45 100.1 107.3 100.55 105.4 101.3 102.65 100.6 98 101.85 98.2 104.1 100.55
L 109 106 108.3 105.8 107.65 105.35
Q 105.3 103.05 101.7 105.9
L 97.65 109.55
Q 96.35 110 94.5 109.2
L 92.85 108.25 91.65 109.1
Q 90.55 110.35 90.45 112.2
L 90.25 111.65
Q 89.95 110.4 88.65 109.85
L 86.85 109.8 85.35 111.2 83.3 112.9
Q 82.7 112.3 81.75 111.9 79.25 110.3 70.4 105.9 77 106.8 79.4 109.15
M 65.55 111.85
L 65.75 108.15
Q 71.4 109.2 81.55 113.05
L 85.65 113.85 87.15 111.65 88.8 113.65 87.75 114.15
Q 93.2 114.55 98 112.45 104.8 109.4 119.05 108.4 126.4 108 147.4 107.9 147.8 110.5 144.6 114.75 141.8 118.45 140.1 119.05 135.9 120.6 132.7 120.85
L 128.4 121.5 128.95 121.2
Q 125.85 121.2 106.7 124.1 100 125.15 90.2 124.4
L 81.65 123.4 81.55 123.5 81.45 123.45
Q 78.35 122.6 74.45 122.6
L 65.5 124.05
Q 65.25 115.9 65.55 111.85
M 144.1 101.9
L 144.15 102 144.95 105.8 141.45 105.95 142.95 103.95 144.1 101.9
M 132.6 102.95
L 134.55 105.8 131 105.5
Q 132.4 103.8 132.6 102.95
M 116.6 106.2
L 117.7 104.2 119 106.35 116.6 106.2
M 105.15 106.75
L 103.7 107.2 104.4 106.1 105.15 106.75
M 98.3 100.9
L 97.9 103.8 95.3 99.2 98.25 98.5 98.3 100.9
M 95.2 110.6
L 93.7 111.25 94.3 109.9 95.2 110.6
M 90.15 100.9
L 90.05 103.2
Q 89.9 104.2 88 105.8
L 85.8 102.85 90.15 100.9
M 81.55 82.1
Q 83.25 79.1 81.8 76.05 80.65 72.95 77.2 71.8 73.8 70.55 70.25 71.85 66.7 73.35 65.1 76.45 63.5 79.45 64.7 82.55 66.05 85.55 69.45 86.75
L 76.4 86.55
Q 80 85.3 81.55 82.1
M 79.75 76.6
Q 80.45 78.25 79.5 80 78.45 81.6 76.4 82.35
L 72.35 82.6
Q 70.4 81.9 69.75 80.35 69.1 78.7 70.05 77 71.05 75.2 73.1 74.4 75.1 73.7 77.1 74.35 79 74.9 79.75 76.6
M 72.4 85
L 71.35 85
Q 70.1 84.9 68.6 83.85 66.95 82.65 66.45 81.3 66.3 81.1 66.45 79.85
L 66.85 77.1 67.2 76.5 67.5 78.95 67.75 80.65
Q 68.7 82.8 69.7 83.5
L 72.4 85
M 76 78.15
L 77.4 78.1 78.35 77.15
Q 78.65 76.45 78.3 75.8 78.05 75.15 77.4 74.75
L 76 74.8
Q 75.45 75 75.05 75.6 74.75 76.4 75.1 77.05
L 76 78.15
M 118.25 61.55
Q 116.9 62.95 117.35 64.05 117.9 65.2 119.8 65.35 121.65 65.45 123.9 64.7 126.15 63.8 127.4 62.45 128.6 61 128.15 59.95 127.75 58.9 125.85 58.7 123.85 58.5 121.6 59.35 119.4 60.15 118.25 61.55 Z"/>

<path fill="#F9ED86" stroke="none" d="
M 90.05 103.2
L 90.15 100.9 85.8 102.85 88 105.8
Q 89.9 104.2 90.05 103.2
M 93.7 111.25
L 95.2 110.6 94.3 109.9 93.7 111.25
M 97.9 103.8
L 98.3 100.9 98.25 98.5 95.3 99.2 97.9 103.8
M 103.7 107.2
L 105.15 106.75 104.4 106.1 103.7 107.2
M 117.7 104.2
L 116.6 106.2 119 106.35 117.7 104.2
M 134.55 105.8
L 132.6 102.95
Q 132.4 103.8 131 105.5
L 134.55 105.8
M 144.15 102
L 144.1 101.9 142.95 103.95 141.45 105.95 144.95 105.8 144.15 102
M 88.8 113.65
L 87.15 111.65 85.65 113.85 85.4 114.45 86.8 114.65 87.75 114.15 88.8 113.65
M 78.55 103.7
L 80.45 106.9 80.8 103.65 78.55 103.7
M 125.65 91.4
Q 118.55 92.25 120.15 95.4 120.6 96.3 122.2 98.35 123.85 100.2 124.2 101.15 124.95 97.9 125.65 91.4
M 147.15 89.85
Q 147.3 88.65 146.6 86.15
L 145.85 83.1 144.1 83.85
Q 145.45 86 147.15 89.85
M 135.75 91.75
Q 136.85 93.7 137.45 95.4
L 138.35 97.1
Q 140.85 87.95 142 84.85
L 133.25 88.3
Q 134.3 89.1 135.75 91.75
M 110.55 96.35
L 105.75 97.45
Q 106.35 98.1 109.55 103.7
L 110.55 96.35 Z"/>

<path fill="#FFFFFF" stroke="none" d="
M 79.5 80
Q 80.45 78.25 79.75 76.6 79 74.9 77.1 74.35 75.1 73.7 73.1 74.4 71.05 75.2 70.05 77 69.1 78.7 69.75 80.35 70.4 81.9 72.35 82.6
L 76.4 82.35
Q 78.45 81.6 79.5 80
M 77.4 78.1
L 76 78.15 75.1 77.05
Q 74.75 76.4 75.05 75.6 75.45 75 76 74.8
L 77.4 74.75
Q 78.05 75.15 78.3 75.8 78.65 76.45 78.35 77.15
L 77.4 78.1 Z"/>
</g>

<g id="Graphics_Symbol_836_0_Layer1_0_FILL">
<path fill="#000000" fill-opacity="0.3333333333333333" stroke="none" d="
M 90.2 78.35
Q 90.2 82.6 93.4 85.9 96.75 89.35 101.4 89.35 104.75 89.35 109.35 87.55 114.3 85.6 114.3 83.7 114.3 82.55 113.9 82.45
L 111 83.4
Q 108.4 84.2 105.7 84.2 100.35 84.2 96.65 81.25 93.25 77.7 91 76.6 91.05 77 90.6 77.4 90.2 77.85 90.2 78.35 Z"/>

<path fill="#000000" fill-opacity="0.5019607843137255" stroke="none" d="
M 112.9 65.35
Q 112.9 69.25 118.95 69.25 121.9 69.25 128.9 66.15 134.85 63.55 137.05 61.95
L 141.2 70.5
Q 142.15 72.7 142.15 74.7 142.15 76.85 140.4 80.1
L 138.65 83.2 138.85 84.25 139.15 84.85
Q 142.25 83.25 147.1 81.6 150.4 80.2 150.4 77.7 150.4 68.65 141.5 61.75 132.55 54.85 123.95 53.95 115.35 53.05 101.7 56.65
L 87.35 60.2 84.55 59.75 81.6 59.2
Q 80.9 59.05 79.15 62.75 77.35 66.45 70.6 66.85 63.85 67.2 61.45 71.05 60.4 72.7 58.2 74.95 58.05 76.5 57 76.5
L 56.55 76.5 50.4 81.65
Q 44 87.6 40.75 93.7 39.5 96 39.65 101.15 41 100.65 41.3 106.05 41.75 115.3 43.2 120.05
L 43.55 117.7
Q 45.8 122.55 48.25 124.5 50.75 126.45 54.75 126.45
L 57.15 125.95 66.25 124.45 74.05 123.4 76.7 123.3 81.6 125.8
Q 87.15 128.25 90.75 128.25 121.35 128.25 137.55 121.4 143.45 118.95 146.55 115.85 149.05 113.45 149.05 111.55 149.05 110.75 147.3 109.85
L 136.6 115.65 135 115.75 129.55 116.8 121.75 117.95
Q 94.05 122.45 90 122.45 84.3 122.45 76.7 118.7 69.35 115.15 68.05 115.25 68.1 116.8 69.85 118.45 71.35 119.85 73.7 120.95
L 57.05 122.45
Q 50.1 122.45 48.9 121.55
L 48.25 120.55 47.75 119.55 45.5 115.35
Q 44.45 113.45 44.45 112.75 44.45 106.8 49.8 97.3 55.65 87 60.9 87
L 67 87.9 71.9 88.75
Q 72.45 88.75 73.45 88.05 74.7 87.2 74.7 86.05 74.7 85.05 71.95 83.1 69.2 81.1 68.8 77.5 68.4 73.85 88.15 66.3 107.85 58.75 115.35 59.35
L 114.95 60.15 113.35 63.05
Q 112.9 63.75 112.9 65.35 Z"/>
</g>

<g id="Graphics_Symbol_836_0_Layer0_0_FILL">
<path fill="#FFFFFF" fill-opacity="0.3333333333333333" stroke="none" d="
M 132.7 111.2
L 132.2 111.25 111.65 113.35
Q 92.45 115.75 87.05 118.15
L 127.35 113.55
Q 129.55 113.3 130.15 112.85
L 132.7 111.2
M 63.3 111.8
Q 63.3 109.1 61.05 106.15
L 58.3 103.2
Q 55.9 99.25 53.1 101.9 50.4 104.45 50.4 109.45 50.4 111.6 50.7 113.25
L 52 119.7
Q 56.75 120 59.85 118.15 63.3 116.05 63.3 111.8
M 139.7 82.7
Q 139.6 81.9 139 81.4 125.95 87.4 104.7 92.5 78.2 98.9 67.25 102.65
L 69.3 102.55
Q 81.6 100.75 98.6 96.7 125.95 90.1 139.7 82.7 Z"/>

<path fill="#FFFFFF" fill-opacity="0.25098039215686274" stroke="none" d="
M 104.65 73.1
L 95.9 74.4
Q 96.55 74.8 99.1 77.75 100.8 79.75 103.65 79.75 105.1 79.75 106.55 79 108.4 78.05 108.4 76.45 108.4 74.95 107.3 74.05 106.25 73.1 104.65 73.1 Z"/>
</g>
</defs>

<g transform="matrix( 1, 0, 0, 1, -62.75,-76.85) ">
<g transform="matrix( 1, 0, 0, 1, 0,0) ">
<g transform="matrix( 1, 0, 0, 1, 0,0) ">
<use xlink:href="#Graphics_Symbol_790_0_Layer0_0_FILL"/>
</g>
</g>

<g transform="matrix( 1, 0, 0, 1, 0,0) ">
<g transform="matrix( 1, 0, 0, 1, 0,0) ">
<use xlink:href="#Graphics_Symbol_836_0_Layer2_0_FILL"/>
</g>

<g transform="matrix( 1, 0, 0, 1, 0,0) ">
<use xlink:href="#Graphics_Symbol_836_0_Layer1_0_FILL"/>
</g>

<g transform="matrix( 1, 0, 0, 1, 0,0) ">
<use xlink:href="#Graphics_Symbol_836_0_Layer0_0_FILL"/>
</g>
</g>

<g id="hat1" transform="matrix( 0.983917236328125, -0.17529296875, 0.17529296875, 0.983917236328125, 53.3,78.15) ">
<g id="colorMC" transform="matrix( 0.9999847412109375, 0, 0, 0.9999847412109375, 0,0) "/>

<g id="colorMC2" transform="matrix( 1, 0, 0, 1, 0,0) "/>
</g>

<g id="hat2" transform="matrix( 0.9733734130859375, -0.2247314453125, 0.2247314453125, 0.9733734130859375, 46.1,60.5) ">
<g id="colorMC_FL" transform="matrix( 0.9999847412109375, 0, 0, 0.9999847412109375, 0,0) "/>

<g id="colorMC2_FL" transform="matrix( 1, 0, 0, 1, 0,0) "/>
</g>

<g id="hat3" transform="matrix( 0.96026611328125, -0.2753753662109375, 0.2753753662109375, 0.96026611328125, 34.1,48.3) ">
<g id="colorMC_FL_FL" transform="matrix( 0.9999847412109375, 0, 0, 0.9999847412109375, 0,0) "/>

<g id="colorMC2_FL_FL" transform="matrix( 1, 0, 0, 1, 0,0) "/>
</g>

<g id="hat4" transform="matrix( 0.944580078125, -0.3252410888671875, 0.3252410888671875, 0.944580078125, 26.95,34.4) ">
<g id="colorMC_FL_FL_FL" transform="matrix( 0.9999847412109375, 0, 0, 0.9999847412109375, 0,0) "/>

<g id="colorMC2_FL_FL_FL" transform="matrix( 1, 0, 0, 1, 0,0) "/>
</g>
</g>
</svg>
