
<svg xmlns="http://www.w3.org/2000/svg" version="1.1" xmlns:xlink="http://www.w3.org/1999/xlink" preserveAspectRatio="none" x="0px" y="0px" width="550px" height="400px" viewBox="0 0 550 400">
<defs>
<g id="Layer0_0_FILL">
<path fill="#FFFFFF" stroke="none" d="
M 7.25 4.05
L 8.1 1.4
Q 6.4 0.5 4.75 0.2
L 3.35 0.05 2.2 0.2 1.4 0.55 0.8 1.1 0.45 1.85 0.25 2.8 0.25 3.3 0.35 3.8 0.75 4.7 1.45 5.45 1.85 5.75 2.3 6 5.05 7.1 5.25 7.5 4.65 7.9 3.5 7.85 2.75 7.5 1.8 6.7 0 8.6 0.6 9.25 1.15 9.7 2.35 10.4 3.2 10.65 4.2 10.8 5.35 10.75 6.3 10.5 7.1 10.05 7.65 9.4 8.05 8.55 8.2 7.5 8.1 6.5 7.7 5.8 7.1 5.25 6.35 4.8 3.55 3.6 3.2 2.95 3.95 2.65 4.6 2.8 7.25 4.05 Z"/>
</g>
</defs>

<g transform="matrix( 1, 0, 0, 1, 0,0) ">
<use xlink:href="#Layer0_0_FILL"/>
</g>
</svg>
