<?xml version='1.0' encoding='utf-8'?>
<svg xmlns="http://www.w3.org/2000/svg" xmlns:xlink="http://www.w3.org/1999/xlink" version="1.1" width="550px" height="400px" viewBox="0 0 550 400" preserveAspectRatio="none" data-xfl-root="MovieClips/Symbol 861">
  <g data-xfl-symbol="MovieClips/Symbol 861">
    <g data-xfl-symbol="Graphics/Symbol 860">
      <g data-svg-leaf="graphics_symbol_860_8a3e79c806/t00_l001_f0000_r00.svg">
        <defs>
          <radialGradient id="xfl1_Gradient_1" gradientUnits="userSpaceOnUse" cx="0" cy="0" r="46.150000000000006" fx="0" fy="0" gradientTransform="matrix( 1, 0, 0, 1, 0,0) " spreadMethod="pad">
            <stop offset="0%" stop-color="#FFFF00" />
            <stop offset="100%" stop-color="#FFFFFF" stop-opacity="0" />
          </radialGradient>
          <g id="xfl1_Layer0_0_FILL">
            <path fill="url(#xfl1_Gradient_1)" stroke="none" d=" M 31.8 -31.85 Q 18.65 -45 0 -45 -18.65 -45 -31.85 -31.85 -45 -18.65 -45 0 -45 18.65 -31.85 31.8 -18.65 45 0 45 18.65 45 31.8 31.8 45 18.65 45 0 45 -18.65 31.8 -31.85 Z" />
          </g>
          <path id="xfl1_Layer0_0_1_STROKES" stroke="#FFFFFF" stroke-width="3" stroke-linejoin="round" stroke-linecap="round" fill="none" d=" M 31.8 -31.85 Q 45 -18.65 45 0 45 18.65 31.8 31.8 18.65 45 0 45 -18.65 45 -31.85 31.8 -45 18.65 -45 0 -45 -18.65 -31.85 -31.85 -18.65 -45 0 -45 18.65 -45 31.8 -31.85 Z" />
        </defs>
        <g transform="matrix( 1, 0, 0, 1, 0,0) ">
          <use xlink:href="#xfl1_Layer0_0_FILL" />
          <use xlink:href="#xfl1_Layer0_0_1_STROKES" />
        </g>
      </g>
      <g data-svg-leaf="graphics_symbol_860_8a3e79c806/t00_l000_f0000_r00.svg">
        <defs>
          <g id="xfl2_Layer0_0_FILL">
            <path fill="#FFFFFF" stroke="none" d=" M 25.25 -8.9 L 13.65 -29.85 -22.95 -29.85 1.45 -6.6 -16.6 10.85 6.1 33.5 -0.3 10.85 25.25 -8.9 Z" />
          </g>
          <path id="xfl2_Layer0_0_1_STROKES" stroke="#000000" stroke-width="3" stroke-linejoin="round" stroke-linecap="round" fill="none" d=" M 25.25 -8.9 L -0.3 10.85 6.1 33.5 -16.6 10.85 1.45 -6.6 -22.95 -29.85 13.65 -29.85 25.25 -8.9 Z" />
        </defs>
        <g transform="matrix( 1, 0, 0, 1, 0,0) ">
          <use xlink:href="#xfl2_Layer0_0_FILL" />
          <use xlink:href="#xfl2_Layer0_0_1_STROKES" />
        </g>
      </g>
    </g>
  </g>
</svg>