
<svg xmlns="http://www.w3.org/2000/svg" version="1.1" xmlns:xlink="http://www.w3.org/1999/xlink" preserveAspectRatio="none" x="0px" y="0px" width="550px" height="400px" viewBox="0 0 550 400">
<defs>
<g id="Layer0_0_FILL">
<path fill="#010101" stroke="none" d="
M 2.45 0.75
Q 2.5 0.55 2.4 0.3
L 2.25 0.05
Q 2.05 -0.05 1.9 0
L 1.4 0.2 1.15 0.25 0.95 0.25 0.9 0.2 0.6 0.2 0.55 0.15 0.25 0.05
Q 0.2 0 0 0.2 -0.05 0.35 0.05 0.65 0.45 1.05 0.55 1.1 0.75 1.25 1.25 1.35 1.5 1.45 1.8 1.35
L 2.15 1.2 2.4 0.95 2.45 0.75 Z"/>
</g>
</defs>

<g transform="matrix( 1, 0, 0, 1, 0,0) ">
<use xlink:href="#Layer0_0_FILL"/>
</g>
</svg>
