
<svg xmlns="http://www.w3.org/2000/svg" version="1.1" xmlns:xlink="http://www.w3.org/1999/xlink" preserveAspectRatio="none" x="0px" y="0px" width="550px" height="400px" viewBox="0 0 550 400">
<defs>
<g id="Layer0_0_FILL">
<path fill="#FFFF00" stroke="none" d="
M 10.25 7.3
L 10.2 7.4 4.2 11.1
Q 1.5 12.8 1.05 12.65
L -5.85 6.9 -4.9 17
Q -5.1 17.5 -6.9 18.6 -10.6 20.8 -13 22.5
L -2 23.65
Q -1.2 23.95 0.3 28.5 1.65 32.65 1.75 34
L 5.25 27.4
Q 6.2 25.15 6.75 24.75 7.25 24.3 8.9 24.25
L 14.5 23.65 14.3 23.5 11.05 20.6
Q 8.55 18.05 8.7 17
L 10.25 7.3
M 40.75 -10.9
Q 39.85 -8.15 38.3 -1.95 37.15 3.3 36.8 3.95 36.3 4.65 30.45 4.95
L 17.8 6 30.15 17.6
Q 31.55 18.95 30.55 24.95
L 28.85 32.65
Q 32.6 30.85 37.65 27.85 40.1 26.2 41.4 26.35 42.6 26.4 46.25 28.45 52.5 31.6 58.4 34.05 57.05 32.1 54.75 25 52.1 17.25 52.95 16 54 14.5 58.15 11.15
L 67.85 3.35 54.75 4.15 50.05 3.9
Q 49.7 3.75 47.65 0.15
L 40.75 -10.9 Z"/>
</g>
</defs>

<g transform="matrix( 1, 0, 0, 1, 0,0) ">
<use xlink:href="#Layer0_0_FILL"/>
</g>
</svg>
