
<svg xmlns="http://www.w3.org/2000/svg" version="1.1" xmlns:xlink="http://www.w3.org/1999/xlink" preserveAspectRatio="none" x="0px" y="0px" width="550px" height="400px" viewBox="0 0 550 400">
<defs>
<g id="Layer0_0_FILL">
<path fill="#993300" stroke="none" d="
M 36.15 -3.75
L 36.6 -4.4 29.2 -5.65 3 -7.65 -2.9 -7.65 3.45 5.4
Q 6.95 13.1 6.95 16.8
L 3.85 26.35
Q 3.85 27.9 6.45 29.45 10.45 31.85 19.2 32.4 28.5 33 37.95 34.75 46 36.25 50.65 36.25 55.65 36.25 58.3 34.8 61.1 33.3 61.1 30.3
L 60.8 25.9
Q 60.15 21.5 58.65 20.6
L 53.95 16.9 47.75 16.9 47.15 18.25
Q 56.4 18.25 56.4 25.6 56.4 27.8 53.2 28.45
L 46.7 28.8
Q 36.1 28.8 31.65 26.6 27.65 24.65 27.65 20.35 27.65 14.25 28.9 10.8 30 7.75 36.15 -3.75 Z"/>
</g>
</defs>

<g transform="matrix( 1, 0, 0, 1, 0,0) ">
<use xlink:href="#Layer0_0_FILL"/>
</g>
</svg>
