
<svg xmlns="http://www.w3.org/2000/svg" version="1.1" xmlns:xlink="http://www.w3.org/1999/xlink" preserveAspectRatio="none" x="0px" y="0px" width="550px" height="400px" viewBox="0 0 550 400">
<defs>
<g id="Layer0_0_FILL">
<path fill="#000000" stroke="none" d="
M 62.05 37.15
Q 62.05 35.1 57.8 32.85 54 30.75 48.55 29.3 42.95 27.9 39.2 28
L 36.7 28.4 31 20.7
Q 23.9 11.55 17.45 4.2 -2.25 -18.35 -2.25 -8.85 -2.25 -7.6 15.3 12.35
L 29.4 28 25.9 28.4
Q 21.2 29.2 18 30.75 14.5 32.5 14.5 34.6 14.5 35.75 15.3 36.55 16.05 37.35 17 37.35 17.9 37.35 28.05 33.2 30.75 32.1 32.7 31.45
L 32.75 31.4 33.95 32.25
Q 35.75 32.25 36.5 31.35
L 36.55 31.4
Q 41.05 33.6 57.6 39.75 62.05 39.75 62.05 37.15 Z"/>
</g>
</defs>

<g transform="matrix( 1, 0, 0, 1, 0,0) ">
<use xlink:href="#Layer0_0_FILL"/>
</g>
</svg>
