
<svg xmlns="http://www.w3.org/2000/svg" version="1.1" xmlns:xlink="http://www.w3.org/1999/xlink" preserveAspectRatio="none" x="0px" y="0px" width="550px" height="400px" viewBox="0 0 550 400">
<defs>
<g id="Layer0_0_FILL">
<path fill="#0000FF" stroke="none" d="
M 52 17.7
L 56.85 17.45 57 6 -15 5.2 -15 17.45 -9.15 17.45 -7.9 30.75 -9.85 37.8 51.5 38.05 52 17.7
M 44 8.3
Q 44.7 9.55 45.8 11.9 46.4 13.05 47 13.7 45.95 13.2 44.4 12.7 42.7 12.25 41.5 12.1 40.3 12 40.2 12.4 39.85 12.25 39.2 13.25 38.5 14.2 37.9 15.8 37.4 17 37.15 18.15 36.95 15.85 36.05 13.05 35.5 10.85 34.35 9.45 32.95 8.1 30.85 7.35
L 29.05 6.7
Q 36.05 6.75 42.75 6.6 43.35 7.25 43.95 8.25
L 44 8.3
M 45.2 23.9
Q 49.4 23.7 50.4 23.25 50.15 25.65 50.05 28.8
L 50.05 30.05 47.35 30.05
Q 42.6 29.55 34.1 29.55 32.9 29.55 25.7 29.65 26 28.55 26.05 26.8 26.1 24.9 25.75 23.7 29.6 23.9 35.4 24 41.05 24.15 45.2 23.9
M 26.5 7.35
Q 26.1 8.8 26.1 11.35 26.1 13.35 26.3 14.8 26.65 16.15 27.1 16.3 19.45 16.35 13.85 16.65 14.2 16.4 14.45 15.5 14.7 14.55 14.7 13.35 14.7 11.45 14.2 10.45 16.95 8.1 18.35 6.6
L 25.1 6.7 26.5 7.35
M 25.1 19.1
Q 24.75 20.15 24.9 23.3 24.4 24.25 24.3 26.8 24.3 28.9 24.65 30 24.4 33.3 24.55 35.3 21.15 35.4 16.05 35.6 16.2 34 16.05 31.25 16.25 30.95 16.45 30.75
L 16.45 30.7 16.4 30.65 16.25 30.65 16.1 30.55
Q 16.55 29.6 16.5 26.8 16.45 24.55 16.1 23.4
L 16.35 23.4
Q 16.55 20 16.05 19.05
L 16.05 18.7
Q 21.45 18.9 25.1 18.9
L 25.1 19.1
M 27.2 16.3
Q 27.35 16.25 27.55 15.95
L 27.55 16.3 27.2 16.3
M 37.05 19.85
L 36.95 19.65 37.05 19.65 37.05 19.85
M 4 6.3
L 16.1 6.55
Q 12.3 8.9 6.55 13.35 0.05 18.3 -3.15 21.55 -2.35 20.05 -1.85 18.2 -1.2 16.2 -1.1 14.65 -0.9 13.05 -1.3 12.5
L -1.2 12.4 -1.4 12.4 -1.5 12.35 -1.55 12.35
Q -1.35 12.2 -1.35 12.1 -1.4 11.85 -3.3 11.95 -5.25 12.05 -7.9 12.45
L -8.3 12.55
Q -6.45 11.85 -3.35 10.45 1.45 8.15 4 6.3
M 5.65 24.15
Q 10.1 23.95 15.35 23.4 15.1 24.6 15.1 26.8 15.2 28.75 15.45 30
L 6.85 29.9
Q -2.65 29.8 -6.7 30.2
L -7 28.25
Q -7.2 26.35 -7.7 23.8 -3.55 24.55 5.65 24.15 Z"/>
</g>
</defs>

<g transform="matrix( 1, 0, 0, 1, 0,0) ">
<use xlink:href="#Layer0_0_FILL"/>
</g>
</svg>
