
<svg xmlns="http://www.w3.org/2000/svg" version="1.1" xmlns:xlink="http://www.w3.org/1999/xlink" preserveAspectRatio="none" x="0px" y="0px" width="550px" height="400px" viewBox="0 0 550 400">
<defs>
<g id="Layer0_0_FILL">
<path fill="#EEF3FA" stroke="none" d="
M 52.2 24.15
Q 45.25 24.15 42.6 23
L 39.5 20.5
Q 35.55 16.8 15.45 16.8 4.65 16.8 2.05 19 -1.25 21.8 -1.25 33.4 -1.25 34.4 -1.95 35.25 0.95 36.7 4.1 36.7
L 11.25 35.6
Q 17.35 34.45 21.5 34.45 28.65 34.45 36.45 35.8
L 43.65 37.15
Q 52.4 37.15 57.6 33.5 64.85 28.35 66.05 16 65.2 19.35 60.4 21.9 56.05 24.15 52.2 24.15 Z"/>
</g>
</defs>

<g transform="matrix( 1, 0, 0, 1, 0,0) ">
<use xlink:href="#Layer0_0_FILL"/>
</g>
</svg>
