
<svg xmlns="http://www.w3.org/2000/svg" version="1.1" xmlns:xlink="http://www.w3.org/1999/xlink" preserveAspectRatio="none" x="0px" y="0px" width="550px" height="400px" viewBox="0 0 550 400">
<defs>
<g id="Layer0_0_FILL">
<path fill="#006699" stroke="none" d="
M 45.4 15.6
Q 40.7 13.75 40.7 11.4
L 36.85 11.05 35.75 10.15
Q 34.75 9.4 30 8
L 22.55 7.8
Q 19.9 9 19.75 8.35 16.95 8.6 11.1 10.55 5.2 12.4 0.05 12.7 -5.1 13 -7.45 10.4 -9.9 7.8 -12.25 4.3
L -12.35 4.3
Q -12.85 6.45 -13.25 11.9 -13.7 17.35 -12.7 27.45 -11.75 37.55 -9.75 37.5
L -6.5 37.35 -6.05 34.2
Q -5.75 32.15 -5.4 27.9 -5.05 23.65 1.8 23.7 8.65 23.75 15.55 25.55 22.45 27.3 27.7 30.55 32.95 33.75 34.7 34.5 39.65 36.6 51.35 36.95 63 37.3 64.45 34.6 65.85 31.85 65.65 30.55
L 65.35 28.6 63.25 25.65
Q 60.2 21.9 55.15 19.65
L 45.4 15.6 Z"/>
</g>
</defs>

<g transform="matrix( 1, 0, 0, 1, 0,0) ">
<use xlink:href="#Layer0_0_FILL"/>
</g>
</svg>
