
<svg xmlns="http://www.w3.org/2000/svg" version="1.1" xmlns:xlink="http://www.w3.org/1999/xlink" preserveAspectRatio="none" x="0px" y="0px" width="550px" height="400px" viewBox="0 0 550 400">
<defs>
<g id="Layer0_0_FILL">
<path fill="#AE0000" stroke="none" d="
M 57.05 15.9
Q 55.35 15.2 52.75 15.2 49.6 15.2 45.3 17.2 42.5 18.55 40.25 16.85 36.5 14.7 34.85 10.85 33.45 7.65 32.6 7.65 32 7.65 28.1 10.1 24.2 12.55 22.4 12.55
L 19.95 12.3 19.85 10.45 23.7 5.55
Q 23.7 -0.25 18.6 -0.25 8.25 -0.2 -1.05 10.75 -4.5 14.85 -6.8 19.35 -8.9 23.4 -8.9 25.35 -8.9 27.75 -6.8 31.5
L -4.7 34.75
Q -3.55 34.75 0.95 32.3 5.45 29.85 11.95 29.8 14.35 29.8 19.7 34.3 25.1 38.8 27 38.75 27.45 38.75 32.85 34.65 38.75 30.2 41.5 29.1 45.75 27.45 53.6 25.85 59.3 24 59.3 19.1 59.3 16.9 57.05 15.9 Z"/>
</g>
</defs>

<g transform="matrix( 1, 0, 0, 1, 0,0) ">
<use xlink:href="#Layer0_0_FILL"/>
</g>
</svg>
