
<svg xmlns="http://www.w3.org/2000/svg" version="1.1" xmlns:xlink="http://www.w3.org/1999/xlink" preserveAspectRatio="none" x="0px" y="0px" width="550px" height="400px" viewBox="0 0 550 400">
<defs>
<g id="Layer0_0_FILL">
<path fill="#CDCCFF" stroke="none" d="
M 2.4 -65.2
L 2 -52.05
Q 1.6 -36.85 -10.65 -12
L -13.3 -3.65
Q -13.45 -2.55 -13.75 -1.75
L -13.8 -1.7 -13.9 -1.7
Q -17.25 12.3 -18.15 21.5 -18.85 29.05 -17.1 33 -15.5 36.95 -11.8 36.95 18.35 36.95 31.25 33.35 33.95 32.6 37.95 30.8 40.55 29.7 42.6 29.7 43.6 29.7 45.05 26.6 46.8 22.95 47.2 18.3 47.85 11.55 46.45 5.3 44.05 -5.35 36.35 -5.35 30.85 -5.35 26.15 -1.35 21.5 2.55 19.1 2.55
L 13.5 3.7
Q 8.45 3.7 6.05 0.3
L 4.95 -1.75 4.9 -1.75
Q 3.35 -5.15 4 -11.15
L 8.6 -32.35
Q 6.2 -57.3 2.4 -65.2
M 0.3 -22.15
Q 1.3 -21.75 1.5 -20.5
L 1.35 -18.9 -1.7 -12.9 -1.9 -12
Q -3.5 -6 -2.3 -1.75
L -2.3 -1.7 -2.25 -1.7
Q -1.15 2.5 1.6 5.15 5.35 8.75 10.45 8.75 11.45 8.75 13.25 8.05
L 22.95 4.05 32.4 1.9
Q 40.25 1.9 43.55 5.35 46.05 7.95 45.7 11.65 45.2 16.65 42 21.3 37.55 27.75 30.25 27.75 0.25 27.75 -6.1 22.9 -9.35 20.45 -9.8 15.45 -10.1 12.5 -9.25 3.4
L -8.15 -1.75
Q -6.75 -7.4 -4.95 -12 -1.75 -19.1 0.3 -22.15 Z"/>
</g>
</defs>

<g transform="matrix( 1, 0, 0, 1, 0,0) ">
<use xlink:href="#Layer0_0_FILL"/>
</g>
</svg>
