
<svg xmlns="http://www.w3.org/2000/svg" version="1.1" xmlns:xlink="http://www.w3.org/1999/xlink" preserveAspectRatio="none" x="0px" y="0px" width="550px" height="400px" viewBox="0 0 550 400">
<defs>
<g id="Layer0_0_FILL">
<path fill="#FFFFFF" stroke="none" d="
M 3.65 -2.3
Q 2.8 -1.7 2.6 -1.5 1.6 -0.6 0.5 1.35 -0.7 3.6 -1.25 4.5 -2.05 5.95 -3.5 10.6 -4.8 15.65 -3.35 21.4 -1.75 27.6 2.15 29.5 6.8 34.7 8.85 35.45 9.2 35.6 17.65 36.55 21.7 36.9 24.5 36.6 27.3 36.3 30.1 35.25 31.6 34.85 31.7 34.85 32.35 34.45 34.2 33.95 35.65 33.55 36.45 32.75
L 37.85 30.55
Q 38.35 29.55 38.55 29 38.9 28.05 38.8 27.4 39.7 26.15 40.15 24.25 40.55 22.05 40.85 20.8 42 17.25 41.9 12.8 41.8 8.75 40.7 4.75 39.55 2.35 39.25 1.85 38.35 0.2 37.45 -0.95 35.8 -2.45 35.3 -2.9 33.75 -4.1 32.4 -4.45 30.25 -6.1 27.15 -7 19.9 -9.95 14.9 -9.25 9.35 -8.45 4.75 -3.15 4.55 -2.9 3.65 -2.3 Z"/>
</g>
</defs>

<g transform="matrix( 1, 0, 0, 1, 0,0) ">
<use xlink:href="#Layer0_0_FILL"/>
</g>
</svg>
