
<svg xmlns="http://www.w3.org/2000/svg" version="1.1" xmlns:xlink="http://www.w3.org/1999/xlink" preserveAspectRatio="none" x="0px" y="0px" width="550px" height="400px" viewBox="0 0 550 400">
<defs>
<g id="Layer0_0_FILL">
<path fill="#F7E48F" stroke="none" d="
M 23.85 15.25
Q 23.7 14.95 22.25 12.15 20.05 7.8 15.65 3.55 15.5 3.55 15.35 3.55 11.4 2 9.35 1.3
L 9.3 1.3
Q 8.85 1.3 8.65 1.1 8.45 1 8.3 0.95 8.3 1 8.3 1.05 8.3 1.35 7.5 1.8 6.6 2.3 5.8 2.3 5.7 2.3 5.65 2.3 5.35 2.75 5.15 3.35 4.4 5.55 4.4 8.4 4.4 14.35 7.05 21.3 10.2 29.65 15.35 33.1 15.75 33.1 21.4 29.3
L 23.45 28.45
Q 24.9 27.85 25.15 27.15 25.35 26.6 25.35 25.5 25.3 24.5 25.3 24.35 25.3 22 25.3 21.7 25.25 21.4 24.8 18.3 24.6 16.95 23.85 15.25 Z"/>
</g>
</defs>

<g transform="matrix( 1, 0, 0, 1, 0,0) ">
<use xlink:href="#Layer0_0_FILL"/>
</g>
</svg>
