
<svg xmlns="http://www.w3.org/2000/svg" version="1.1" xmlns:xlink="http://www.w3.org/1999/xlink" preserveAspectRatio="none" x="0px" y="0px" width="550px" height="400px" viewBox="0 0 550 400">
<defs>
<g id="Layer0_0_FILL">
<path fill="#006699" stroke="none" d="
M 3.65 -0.9
Q 2.6 -6.5 1.3 -8.7 0.1 -10.75 -1.85 -10.75 -3.7 -10.75 -5 -8.3 -6.35 -5.9 -6.1 0.25
L -7.4 13.4
Q -7.75 14 -7.8 15.2 -10.4 18 -12.25 22.5 -14.15 26.95 -13.45 29.95 -12.75 32.95 -10.6 36.4 -8.5 39.8 -3.1 39.5 2.35 39.2 7.2 36.1 12 33 19.75 33.4 27.45 33.8 39.65 36.35 51.85 38.85 56.2 38.1 60.55 37.35 64 34 67.4 30.65 67.15 27.1 66.9 23.5 65.15 22.55 63.6 21.75 61.25 21.75 59.55 21.85 57.4 22.85 55.25 23.8 53.8 25.35 52.35 26.9 49.4 24.55 46.4 22.2 41.25 20.4 36.1 18.6 33.3 18.75 25.95 15.85 15.55 16.4 5.15 16.95 5.55 14.5 7.95 15.3 3.85 0 3.15 -0.95 3.65 -0.8
L 3.65 -0.9 Z"/>
</g>
</defs>

<g transform="matrix( 1, 0, 0, 1, 0,0) ">
<use xlink:href="#Layer0_0_FILL"/>
</g>
</svg>
