
<svg xmlns="http://www.w3.org/2000/svg" version="1.1" xmlns:xlink="http://www.w3.org/1999/xlink" preserveAspectRatio="none" x="0px" y="0px" width="550px" height="400px" viewBox="0 0 550 400">
<defs>
<g id="Layer0_0_FILL">
<path fill="#FFFFFF" stroke="none" d="
M 4.55 1.95
Q 4.75 1.6 4.55 0.95 4.35 0.55 4.15 0.35
L 3.7 0.15
Q 3.35 0 2.9 0 2.4 0 2.05 0.2
L 1.75 0.35 1.6 0.45 1.45 0.5 1.45 0.55
Q 0.5 1.15 0.1 2.3
L 0 2.85 0.1 3.35
Q 0.15 3.5 0.3 3.55 0.45 3.6 0.55 3.5
L 0.8 3.1 0.85 3 0.95 2.85 1 2.7 1.05 2.65 1.1 2.65 1.45 2.3 1.75 2.15 1.8 2.1
Q 2.25 2.05 2.6 2.1
L 2.45 2.1 2.8 2.15 3.6 2.45
Q 3.85 2.55 4.05 2.45
L 4 2.45
Q 4.45 2.35 4.55 1.95 Z"/>
</g>
</defs>

<g transform="matrix( 1, 0, 0, 1, 0,0) ">
<use xlink:href="#Layer0_0_FILL"/>
</g>
</svg>
