
<svg xmlns="http://www.w3.org/2000/svg" version="1.1" xmlns:xlink="http://www.w3.org/1999/xlink" preserveAspectRatio="none" x="0px" y="0px" width="550px" height="400px" viewBox="0 0 550 400">
<defs>
<g id="Layer0_0_FILL">
<path fill="#000000" fill-opacity="0.25098039215686274" stroke="none" d="
M -4.3 -9.2
Q -6.5 -9.2 -8.05 -8.25 -9.6 -7.35 -9.6 -6.05 -9.6 -4.75 -8.05 -3.8 -6.5 -2.9 -4.3 -2.9 -2.1 -2.9 -0.55 -3.8 1 -4.75 1 -6.05 1 -7.35 -0.55 -8.25 -2.1 -9.2 -4.3 -9.2
M 20.85 114.7
L 16.35 129
Q 10.1 149.65 10.1 162.45 10.1 165.1 10.65 165.3
L 11.5 165.65
Q 14.75 164.15 17.15 154.8 20.5 141.6 23.7 109.35
L 24.7 109.35
Q 24 104.8 23.45 103.8
L 23.3 104.7
Q 23 107.7 20.85 114.7
M 46.15 119.3
L 43.2 109.35
Q 42.45 107.25 40.7 103.8
L 40.5 117.05
Q 40.5 135.7 43 149.9 45.95 166.5 51.05 167.3
L 52.7 166.95 52.85 163.5
Q 52.85 156.15 50.3 140.7 48.3 128.6 46.15 119.3
M 44.85 97.05
L 44.75 97.95 47.75 112.3
Q 51.2 128.55 53.85 139.65 56.35 150.2 57.55 154.1 61 164.85 64.25 164.85 65.25 164.85 66.4 164.15 67.75 163.35 67.75 162.2 67.75 157.75 66.15 150.3 64.8 144 63.45 140.3 67.55 148.95 72.3 155 77.45 161.55 80.7 161.55 81.85 161.55 82.65 161 83.7 160.3 83.7 158.75 83.7 155.95 81.3 151.25
L 69.5 129.55
Q 62.5 116.6 57.4 103.4 52.25 90.2 52.75 88.35 53.2 86.45 51.8 86.45 50.25 86.45 48.55 89.45 46.85 92.5 47.4 94.75 45.7 93.45 45.1 96.35
L 44.85 97.05
M 33.1 94.05
L 31.9 94.05
Q 32.1 96.3 31.2 110.1
L 30.25 124.65 30.9 166.9 36.55 166.3 36.7 167.45 38.05 155.5
Q 38.05 151.6 36.15 129.75
L 33.1 94.05
M 21.5 84.6
Q 17.75 84.35 16.65 86.75
L 14.5 91.4
Q 13.1 94.7 6.85 114.1 -0.3 134.3 -8.05 148.2
L -12.4 155.55
Q -13.95 158.2 -13.95 159.15 -13.95 162.5 -10.55 162.5 -7.85 162.5 -6.15 160.4 -4.65 158.55 -2.7 153.35 7.25 127.3 10.55 120.1 13.1 114.45 21 99.3 22.7 96.05 22.7 89.8 22.2 86 21.5 84.6
M 56.55 5.05
L 54.2 10.25
Q 53.2 12.25 53.2 15.8
L 53.3 16.55 53.65 16.65
Q 61.5 15.15 61.5 9.65 61.5 6.8 56.55 5.05
M 50.15 8.1
Q 53.35 5.75 54.15 4.65 56.1 2.05 48.35 0.05
L 43.3 13.35 50.15 8.1
M 62.7 10.95
L 60.85 14.5
Q 58.7 18.2 58.7 18.4
L 60.8 22.3
Q 20.6 11.3 13.65 11.3 11.35 11.3 11.35 12.8 11.35 15.75 12.7 19.9
L 15.65 28.45
Q 19.95 41.7 19.95 58
L 19.2 69.65
Q 22.85 69.6 24.5 64.6 26 59.95 26 50.3 26 41.25 23.55 31.45
L 21.05 21.25
Q 21.05 19.9 21.6 19.05
L 23.75 16.45 58.6 24.2
Q 57.75 27.1 53.65 45.3 49.1 65.75 49.1 69.15 49.1 71.25 51 71.25 53 71.25 56.2 61.85 59.15 53.15 61.65 41.1 64.25 28.7 64.7 20.35 65.25 10.95 62.7 10.95
M 29 -9.35
L 24.4 -8.8 23.35 -8.1 24.15 -7.25
Q 25.15 -6.6 26.55 -6.9 26.45 1.05 27.5 3.85 27.85 4.85 31.3 9.65
L 31.6 9.45
Q 32 8.55 33.05 0.75 33.75 -4.4 36.55 -4.4 37.5 -4.4 37.95 -3.6 36.6 0.45 36.6 1 37.1 7.65 37.1 12.05
L 39.05 12.1
Q 41.45 10.75 43.6 6.65 45.75 2.55 45.75 -0.9 45.75 -3.5 42.95 -5.1 40.6 -6.5 37.75 -6.5 37.1 -6.5 36.85 -6.15
L 36.55 -5.35
Q 35.5 -7.6 32.2 -8.7
L 29 -9.35
M 6.6 -9.25
Q 4.45 -8.95 2.65 -9.7
L 2.3 -8.95
Q 3.1 -2.25 5.65 2.15 7.7 5.7 11.85 9.05
L 11.9 7.05
Q 11.9 5.9 11.15 3.7
L 7.9 -4.75
Q 13.05 -4.95 13.6 -6.3
L 19.65 9.05
Q 20.35 7.2 20.35 5.45
L 19.9 -3.9
Q 21.35 -4.6 22.3 -6.6 22.3 -9.55 18.7 -9.55
L 13.35 -8.65 12 -9.2 8.95 -9.75 6.6 -9.25 Z"/>
</g>
</defs>

<g transform="matrix( 1, 0, 0, 1, 0,0) ">
<use xlink:href="#Layer0_0_FILL"/>
</g>
</svg>
