
<svg xmlns="http://www.w3.org/2000/svg" version="1.1" xmlns:xlink="http://www.w3.org/1999/xlink" preserveAspectRatio="none" x="0px" y="0px" width="550px" height="400px" viewBox="0 0 550 400">
<defs>
<g id="Layer0_0_FILL">
<path fill="#070707" stroke="none" d="
M 68.05 144.55
L 62.1 146.55
Q 51.2 149.5 24.9 149.75
L 3 147.6
Q 1.1 147.4 -4.45 144.95 -7.75 144.95 -9.65 149.85 -10.7 152.3 -11 154.8 -11 156.75 0.05 158.6 13.45 160.95 33.9 160.95 47.7 160.95 57.7 159 68.2 156.95 79.2 151.95 79.2 149.05 77.7 148.25 76.2 147.5 76.2 145.9 76.2 145.45 76.55 145
L 77 144.15 75.5 143.8 73.65 143.65
Q 70.7 143.65 68.05 144.55 Z"/>
</g>
</defs>

<g transform="matrix( 1, 0, 0, 1, 0,0) ">
<use xlink:href="#Layer0_0_FILL"/>
</g>
</svg>
