
<svg xmlns="http://www.w3.org/2000/svg" version="1.1" xmlns:xlink="http://www.w3.org/1999/xlink" preserveAspectRatio="none" x="0px" y="0px" width="550px" height="400px" viewBox="0 0 550 400">
<defs>
<g id="Layer0_0_FILL">
<path fill="#EEE9D2" stroke="none" d="
M -5.45 -0.35
L -5.35 -0.2 -5 0.2 -1.6 3.25 -0.15 4.15 -5.45 -0.35 Z"/>

<path fill="#000000" stroke="none" d="
M 7.3 -11.8
L 7.3 -11.55 -3.55 -10.6
Q -13.1 -9.4 -13.1 -7.3
L -12.05 -4.9
Q -9.25 -3.25 -5.7 -0.35
L -5 0.2 -5.35 -0.2 -5.45 -0.35 -0.15 4.15 6.25 9.75 6.4 9.95
Q 8.2 12.15 8.9 13.85 10.5 14.6 11 16.05
L 11.75 20.85
Q 12.25 24.85 13.9 28.45 16.4 33.95 17.25 38.85 18.3 44.5 18.3 54.75 18.3 80.35 15.85 87.15
L 12.5 95.35
Q 9.95 102.3 7.5 113.3 5.65 121.65 -4.6 141.5
L -15.75 162.65
Q -12.5 163.95 -0.5 166.45 15.05 169.65 24.45 169.65
L 57.4 168.45
Q 62.3 167.8 65.95 166.35
L 80.2 163.05
Q 85.55 161.45 85.55 159.25 85.55 158.55 80.4 149.2
L 68.95 128.05
Q 52.3 95.8 52.3 82.2
L 52.9 80.7
Q 53.1 79.95 52.65 80.3 53.65 71.9 54.05 71.8
L 54.35 72.25 55.05 70.2
Q 66.2 25.75 66.2 14.9 66.2 14.5 66.65 14.45 67.05 14.35 67.05 13.9 64 7 55.05 0.35 37.1 -12.85 7.3 -11.8
M 0.8 -9
L 1.5 -9.05 11.05 -9.35
Q 11.2 -10.4 11.45 -10.55
L 12.4 -9.35 22.5 -8.85 22.6 -9.35
Q 24.1 -9.05 24.95 -8.55
L 36.25 -6.65
Q 36.3 -7.4 36.6 -7.7 36.8 -8 37.05 -7.8
L 37.45 -7.15 37.55 -6.3 46.85 -2.05 47.9 -2.2 48.5 -2.05 48.5 -1.1
Q 50.15 0 50.95 0.35
L 54.25 3.2
Q 54.35 2.55 54.6 2.25
L 54.95 2.3
Q 55.9 3.05 56.45 5.55
L 61 10.6
Q 61.5 8.65 61.9 8.7 62.25 8.75 62.55 9.55
L 62.75 11.6 62.75 12.45 64.2 13.85
Q 64.05 14.2 63.8 16.7
L 63.5 19.9
Q 63.5 21 64.45 22.95 56.45 19.15 51.05 17.6 43.85 15.55 9.25 9.15
L 6.35 6.55 -4.25 -3 -9.35 -5.8 -9.65 -6.3 -10.45 -7.2 -8.6 -6.75
Q -7.3 -6.75 -5.35 -7.55 -3.1 -8.55 0.8 -9
M 43.3 17.85
L 51.25 20.6
Q 57.15 22.7 63.3 24.5 61.1 29.85 57.85 45.25
L 52.4 70.45
Q 42.1 70.35 30.55 68.65
L 20.2 67 20.5 53.2
Q 20.5 44.35 19.1 38.85
L 12.95 13.5
Q 35.25 15.55 43.3 17.85
M 23.2 69.4
L 30.2 70.6
Q 42.3 72.45 51.8 72.75
L 50.15 79.75 49.75 82.45 49.75 82.8 50.05 83.35 50.7 85.3
Q 50.45 85 49.35 85
L 37.05 85.9 22.6 84.1 22.4 84.1 21.95 84 19 83.7
Q 19.7470703125 83.2517578125 18.85 83.25 19.29765625 83.2419921875 19 82.25 18.65 81.2 19.05 81.2 19.55 81.2 19.7 78.75
L 19.55 76.6
Q 19.55 75.25 19.7 74.1
L 19.75 68.8 21.95 69.2 22.35 69.1 22.45 69.1 23.2 69.4
M 17.5 86.2
Q 18.3 85.6 18.8 85.6 20.9 85.6 21.55 86.75 22.2 87.95 26.15 88.2
L 46.75 87.8
Q 50.65 87.35 50.9 86.25 56.45 108.95 62.55 121.9 66.85 130.95 81.5 158.25 78.35 159.1 73.7 161.05 69.3 162.9 65.8 163.75 54.1 166.6 24 166.6
L 11.35 164.85 -11.55 160.7
Q 6.45 122.9 12.6 106.15 15.85 97.4 17.8 86.85
L 16.8 86.8 17.5 86.2 Z"/>

<path fill="#070707" stroke="none" d="
M 19.7 78.75
Q 19.55 81.2 19.05 81.2 18.65 81.2 19 82.25 19.29765625 83.2419921875 18.85 83.25 19.7470703125 83.2517578125 19 83.7
L 21.95 84
Q 21.05 83.65 20.4 81.9 19.85 80.5 19.7 78.75
M 20.4 71.3
Q 21.05 69.55 21.95 69.2
L 19.75 68.8 19.7 74.1
Q 19.9 72.55 20.4 71.3
M 30.2 70.6
L 23.2 69.4
Q 23.85 69.9 24.4 71.3 25.2 73.45 25.2 76.6 25.2 79.7 24.4 81.9 23.6 83.9 22.6 84.1
L 37.05 85.9 49.35 85
Q 50.45 85 50.7 85.3
L 50.05 83.35 49.75 82.8 49.75 82.45 49.65 82.8
Q 49.15 84.35 48.35 84.35 47.6 84.35 47.05 82.8 46.55 81.25 46.55 79.15 46.55 77 47.05 75.5 47.6 74 48.35 74 49.15 74 49.65 75.5 50.15 77 50.15 79.15
L 50.15 79.75 51.8 72.75
Q 42.3 72.45 30.2 70.6
M 27.6 72.7
Q 28.4 70.7 29.6 70.7 30.75 70.7 31.6 72.7 32.4 74.75 32.4 77.6 32.4 80.45 31.6 82.45 30.75 84.5 29.6 84.5 28.4 84.5 27.6 82.45 26.75 80.45 26.75 77.6 26.75 74.75 27.6 72.7
M 34.7 73.8
Q 35.35 71.85 36.3 71.85 37.3 71.85 37.95 73.8 38.6 75.65 38.6 78.35 38.6 81 37.95 82.95 37.3 84.85 36.3 84.85 35.35 84.85 34.7 82.95 34.05 81 34.05 78.35 34.05 75.65 34.7 73.8
M 43.9 74.65
Q 44.5 76.35 44.5 78.85 44.5 81.3 43.9 83.1 43.3 84.85 42.35 84.85 41.5 84.85 40.9 83.1 40.3 81.3 40.3 78.85 40.3 76.35 40.9 74.65 41.5 72.85 42.35 72.85 43.3 72.85 43.9 74.65 Z"/>

<path fill="#C9B45E" stroke="none" d="
M 54.6 2.25
Q 54.35 2.55 54.25 3.2 54.15 5.05 51.65 15.95
L 51.85 17.45 52.1 17.55 52.75 18.1
Q 54.05 16.5 55.35 11.35 56.45 7 56.45 5.55 55.9 3.05 54.95 2.3
L 54.6 2.25
M 61.9 8.7
Q 61.5 8.65 61 10.6 59.75 13.1 58.95 15.45 58.25 17.4 58.25 17.95
L 58.25 19.05 58.45 19.2 59.25 19.3
Q 60.8 19.3 61.25 17.65 62.3 13.4 62.7 12.4
L 62.75 12.45 62.75 11.6 62.55 9.55
Q 62.25 8.75 61.9 8.7
M 47.9 -2.2
L 46.85 -2.05
Q 45.2 -0.6 43.85 5.2 43.15 8.15 42.8 10.95 42.8 11.8 43.15 12.8
L 43.85 14.2
Q 44.5 13.75 46.5 7 48.55 0.3 48.5 -1.1
L 48.5 -2.05 47.9 -2.2
M 22.6 -9.35
L 22.5 -8.85
Q 22.5 -3.55 25.85 3.95 27 6.65 29.8 11.6
L 30.9 11.5
Q 31.4 11.35 31.4 10.8 30.9 6.85 29.8 2.5 27.65 -6.15 24.95 -8.55 24.1 -9.05 22.6 -9.35
M 38.7 -2.85
Q 38.2 -3.3 37.55 -6.3
L 37.45 -7.15 37.05 -7.8
Q 36.8 -8 36.6 -7.7 36.3 -7.4 36.25 -6.65
L 35.45 4.35
Q 35.45 11.3 37.75 12.45
L 38.55 11.5
Q 38.85 10.95 38.85 9.35
L 38.7 -2.85
M 11.45 -10.55
Q 11.2 -10.4 11.05 -9.35 11 -5.75 13.25 -0.6
L 16.95 7.75
Q 17.85 10.2 18.5 10.2 19.05 10.2 19.45 9.85 19.85 9.55 19.85 9.1 19.85 6.05 16.7 -0.8
L 12.4 -9.35 11.45 -10.55
M 1.5 -9.05
L 0.8 -9 0.05 -8.65
Q -0.35 -8.35 -0.35 -7.8 -0.35 -7.2 1.1 -4.95
L 4.1 -0.65
Q 5.05 0.7 5.85 4.5
L 6.35 6.55 9.25 9.15 9.75 8.8 6.65 0.65
Q 4.5 -4.8 1.5 -9.05 Z"/>
</g>
</defs>

<g transform="matrix( 1, 0, 0, 1, 0,0) ">
<use xlink:href="#Layer0_0_FILL"/>
</g>
</svg>
