
<svg xmlns="http://www.w3.org/2000/svg" version="1.1" xmlns:xlink="http://www.w3.org/1999/xlink" preserveAspectRatio="none" x="0px" y="0px" width="550px" height="400px" viewBox="0 0 550 400">
<defs>
<g id="Layer0_0_FILL">
<path fill="#FFFFFF" fill-opacity="0.5019607843137255" stroke="none" d="
M 43.65 75.3
Q 43.1 74.75 42.3 74.75 41.5 74.75 40.95 75.3 40.4 75.85 40.4 76.6 40.4 77.35 40.95 77.9 41.5 78.45 42.3 78.45 43.1 78.45 43.65 77.9 44.2 77.35 44.2 76.6 44.2 75.85 43.65 75.3
M 49.45 75.3
Q 48.95 74.8 48.25 74.8 47.55 74.8 47.1 75.3 46.6 75.75 46.6 76.4 46.6 77.05 47.1 77.55 47.55 78 48.25 78 48.95 78 49.45 77.55 49.9 77.05 49.9 76.4
L 49.45 75.3
M 47.25 67.55
Q 47.9 68.05 48.85 68.05 49.8 68.05 50.5 67.55 51.15 67.05 51.15 66.35 51.15 65.65 50.5 65.15 49.8 64.65 48.85 64.65 47.9 64.65 47.25 65.15 46.55 65.65 46.55 66.35 46.55 67.05 47.25 67.55
M 42.65 55.9
Q 41.85 56.4 41.85 57.1 41.85 57.8 42.65 58.3 43.45 58.8 44.55 58.8 45.65 58.8 46.45 58.3 47.25 57.8 47.25 57.1 47.25 56.4 46.45 55.9 45.65 55.4 44.55 55.4 43.45 55.4 42.65 55.9
M 37.4 76.8
Q 37.4 76 36.85 75.45 36.3 74.9 35.5 74.9 34.7 74.9 34.15 75.45 33.6 76 33.6 76.8 33.6 77.6 34.15 78.15 34.7 78.7 35.5 78.7 36.3 78.7 36.85 78.15 37.4 77.6 37.4 76.8
M 36.25 65.25
Q 36.25 66.2 37.15 66.85 38 67.5 39.25 67.5 40.5 67.5 41.4 66.85 42.25 66.2 42.25 65.25 42.25 64.3 41.4 63.65 40.5 63 39.25 63 38 63 37.15 63.65 36.25 64.3 36.25 65.25
M 28.65 73
Q 27.75 73 27.1 73.65 26.45 74.25 26.45 75.15 26.45 76.05 27.1 76.7 27.75 77.3 28.65 77.3 29.55 77.3 30.2 76.7 30.85 76.05 30.85 75.15 30.85 74.25 30.2 73.65 29.55 73 28.65 73
M 21.05 71.5
Q 20.35 72.2 20.35 73.15 20.35 74.1 21.05 74.8 21.75 75.5 22.7 75.5 23.65 75.5 24.35 74.8 25.05 74.1 25.05 73.15 25.05 72.2 24.35 71.5 23.65 70.8 22.7 70.8 21.75 70.8 21.05 71.5
M 30.1 61.7
Q 29.2 61.1 27.95 61.1 26.7 61.1 25.8 61.7 24.9 62.3 24.9 63.15 24.9 64 25.8 64.6 26.7 65.2 27.95 65.2 29.2 65.2 30.1 64.6 31 64 31 63.15 31 62.3 30.1 61.7
M 33.5 56.8
Q 34.85 56.8 35.85 56.2 36.8 55.55 36.8 54.65 36.8 53.75 35.85 53.15 34.85 52.5 33.5 52.5 32.15 52.5 31.2 53.15 30.2 53.75 30.2 54.65 30.2 55.55 31.2 56.2 32.15 56.8 33.5 56.8
M 8.6 9.3
L 9.3 9.4
Q 9.6 9.4 9.6 8.75 9.6 6.9 5.85 0.2 2.05 -6.65 -0.15 -8.4 -1.05 -8.2 -1.05 -6.7 -1.05 -5.6 8.6 9.3
M 36.25 21.15
Q 35.1 21.15 34.3 21.95 33.5 22.75 33.5 23.9 33.5 25.05 34.3 25.85 35.1 26.65 36.25 26.65 37.4 26.65 38.2 25.85 39 25.05 39 23.9 39 22.75 38.2 21.95 37.4 21.15 36.25 21.15
M 30.7 12.15
L 31.05 11.55 27.2 2.25
Q 24.35 -4.25 21.4 -8.45 18.65 -4.7 23.4 4.15 25.15 7.3 27.2 9.95 29.1 12.4 29.7 12.4
L 30.7 12.15
M 40.95 48.9
Q 41.8 48.9 42.45 48.3 43.05 47.65 43.05 46.75 43.05 45.85 42.45 45.25 41.8 44.6 40.95 44.6 40.1 44.6 39.5 45.25 38.85 45.85 38.85 46.75 38.85 47.65 39.5 48.3 40.1 48.9 40.95 48.9
M 50.1 45.3
Q 49 45.3 48.25 46.1 47.45 46.85 47.45 47.95 47.45 49.05 48.25 49.85 49 50.6 50.1 50.6 51.2 50.6 52 49.85 52.75 49.05 52.75 47.95 52.75 46.85 52 46.1 51.2 45.3 50.1 45.3
M 42.1 35.6
Q 42.1 34.55 41.35 33.8 40.6 33.05 39.55 33.05 38.5 33.05 37.75 33.8 37 34.55 37 35.6 37 36.65 37.75 37.4 38.5 38.15 39.55 38.15 40.6 38.15 41.35 37.4 42.1 36.65 42.1 35.6
M 48.6 35.3
Q 47 35.3 45.9 35.95 44.75 36.6 44.75 37.55 44.75 38.5 45.9 39.15 47 39.8 48.6 39.8 50.2 39.8 51.35 39.15 52.45 38.5 52.45 37.55 52.45 36.6 51.35 35.95 50.2 35.3 48.6 35.3
M 56.15 30.4
Q 57.05 29.65 57.05 28.6 57.05 27.55 56.15 26.85 55.2 26.1 53.85 26.1 52.5 26.1 51.6 26.85 50.65 27.55 50.65 28.6 50.65 29.65 51.6 30.4 52.5 31.1 53.85 31.1 55.2 31.1 56.15 30.4
M 46.6 24.05
Q 45.8 23.25 44.65 23.25 43.5 23.25 42.7 24.05 41.9 24.85 41.9 25.95 41.9 27.05 42.7 27.85 43.5 28.65 44.65 28.65 45.8 28.65 46.6 27.85 47.4 27.05 47.4 25.95 47.4 24.85 46.6 24.05
M 41.8 5
Q 40.7 9.35 40.7 11.75
L 40.8 12.75 41.05 13.05 41.8 13.6
Q 44.05 9.8 45.6 3.65 46.95 -1.8 46.5 -2.85 43.5 -1.55 41.8 5
M 55 2.3
Q 53 2.2 51.4 5.55 49.65 9.15 49.1 15.5
L 49.8 16.35 50.2 16.7 52.65 12.1
Q 55.1 6.65 55.3 2.7
L 55 2.3
M 61.4 9.4
L 61.15 8.9 60.35 8.7
Q 59.9 8.7 58.2 11.3 56.25 14.3 56.45 16.35
L 56.7 17.8 56.95 17.9 57.55 18.4
Q 58.65 17.6 60.1 13.9 61.45 10.5 61.4 9.4
M 35.05 -6.15
L 33.95 -3.95
Q 33.95 -0.5 34.4 3.25 34.95 7.6 35.1 11.85
L 35.25 11.95 35.55 12.75
Q 36.55 12.5 36.9 11.1
L 36.95 0.75
Q 36.55 -3.15 35.05 -6.15
M 10.35 -6.9
L 9.3 -6.95 12.95 1
Q 16.25 8.2 18.5 9.55
L 19.1 9.5
Q 19.6 10 19.6 9 19.6 7.85 16.2 1.1 12.6 -5.9 11.25 -6.7
L 10.35 -6.9 Z"/>
</g>
</defs>

<g transform="matrix( 1, 0, 0, 1, 0,0) ">
<use xlink:href="#Layer0_0_FILL"/>
</g>
</svg>
