
<svg xmlns="http://www.w3.org/2000/svg" version="1.1" xmlns:xlink="http://www.w3.org/1999/xlink" preserveAspectRatio="none" x="0px" y="0px" width="550px" height="400px" viewBox="0 0 550 400">
<defs>
<g id="Layer0_0_FILL">
<path fill="#000000" stroke="none" d="
M 42.15 77.3
Q 41.5 78.55 41.5 79.3
L 42.55 81.75 43 81.6 43.65 76.7 43.55 75.35
Q 42.8 76.05 42.2 77.3
L 42.15 77.3
M 48.5 75.8
Q 48.25 75.9 48 76.7 47.65 77.75 47.65 79.35 47.65 81 48 82.05 48.25 82.85 48.5 82.9
L 48.95 82.05
Q 49.3 81 49.3 79.35 49.3 77.75 48.95 76.7
L 48.5 75.8
M 23.55 78.75
Q 24 77.8 24 76.5 24 75.2 23.55 74.25 23.25 73.6 22.9 73.5 22.55 73.6 22.25 74.25 21.8 75.2 21.8 76.5 21.8 77.8 22.25 78.75
L 22.9 79.5 23.55 78.75
M 30.95 77.4
Q 30.95 76.25 30.45 75.45 29.95 74.8 29.35 74.75 28.75 74.8 28.3 75.45 27.7 76.25 27.7 77.4 27.7 78.5 28.3 79.3 28.75 79.95 29.35 80 29.95 79.95 30.45 79.3 30.95 78.5 30.95 77.4
M 36.5 76.15
L 36.5 76.1 36.45 76.1 35 80.1 35.2 81
Q 35.5 81.05 35.8 81.35
L 36.8 79.7 37.1 78.55
Q 37.1 77.4 36.55 76.2
L 36.5 76.15 Z"/>
</g>
</defs>

<g transform="matrix( 1, 0, 0, 1, 0,0) ">
<use xlink:href="#Layer0_0_FILL"/>
</g>
</svg>
