
<svg xmlns="http://www.w3.org/2000/svg" version="1.1" xmlns:xlink="http://www.w3.org/1999/xlink" preserveAspectRatio="none" x="0px" y="0px" width="550px" height="400px" viewBox="0 0 550 400">
<defs>
<g id="Layer0_0_FILL">
<path fill="#000000" stroke="none" d="
M -25.55 64.3
Q -24 65.75 -21.85 65.75 -23.25 64.85 -27.1 60.75 -27.1 62.8 -25.55 64.3
M 100.35 46.15
Q 98.75 47.75 98.75 49.2
L 99.65 51.8
Q 101.15 54.4 104.4 54.95
L 93.25 57.7
Q 93.65 54.8 89.7 49.55 85.95 44.55 79.6 39.15 64.75 26.5 53.2 24.65 37.6 22.15 33.45 20 29 16.55 22.6 12.95 23.8 10.25 23.8 8.45 23.8 5.1 20.15 1.95 15.8 -1.8 8.95 -1.8 3.45 -1.8 0.25 0.6 -3.3 3.3 -3.3 8.45 -3.3 14.7 -0.95 18 0.45 19.95 4.4 23.8 12.6 33.85 14.25 65.85
L -2.95 65.85 -5.35 61.35
Q -7.15 58.2 -8.6 57.45 -6.25 60.65 -5.5 63.2 -5.1 64.45 -5.2 65.05
L -5.3 65.95 -5.55 66.4 -6.25 66.5 -7.7 65.5 -8.9 64.4
Q -10.1 64.4 -10.95 63.55 -11.85 62.7 -11.85 61.5
L -17.95 57.2
Q -19.2 56.35 -19.85 56.35 -20.85 56.35 -20.45 56.5
L -20.45 57.55 -16.5 62 -11.75 66.1 -13.25 66.25
Q -16.3 66.25 -18.45 65.05 -20.6 63.8 -20.6 62.05 -21.25 61.6 -23.15 60.9
L -20.55 63.45
Q -18.9 65.2 -18.7 65.8 -19.25 66.65 -20.75 66.35
L -17.85 67.8 -18.75 68.45
Q -19.5 70.2 -22.15 72.95 -24.95 75.8 -26.85 76.5
L -27.25 77.05
Q -27.45 77.3 -27.45 77.9 -27.45 79.1 -25.7 79.1 -24.95 79.1 -23.3 77.1 -20.4 73.6 -18.1 71.35 -17.7 70.35 -16.6 69.05
L -14.95 67.5 -14.55 67.8
Q -14.1 68.15 -13.75 68.95
L -13.8 69 -17.7 75.3 -17.7 77.85
Q -17.6 78.2 -16.6 78.2 -15.1 78.2 -12.6 74.4 -10.1 70.6 -10.55 69.2
L -8.4 69.4 -6.95 68.75 -6.7 69.45 -6.75 70.1
Q -5.55 69.25 -3.95 68.75
L -3.8 69.05 -3.7 69.95
Q -3.7 71.7 -5.55 74.7 -6.75 76.65 -7.95 78 -7.35 81.55 -6.4 82.45 -5.85 82.95 -5 83 -4.2 82.1 -3.9 78.35
L -2.85 69.5
Q 5.35 69.75 14.75 69.45 15.85 110.3 15.85 120.65
L 14.25 128.6
Q 14.25 132.95 17.3 138.4 21.3 145.55 27.6 145.55 33.15 145.55 37.2 142.35 40.8 139.5 40.8 136.5 40.8 133.95 39.8 131.25 38.35 127.3 35.35 125.05 38 122.4 45.15 117.05 53.3 110.95 57.65 107.1 81.05 86.5 84.25 82.95 93.7 72.65 93.7 62.4
L 93.6 60.2 104.7 57.6
Q 104 57.8 103.2 58.85
L 102.55 60
Q 102.55 61.2 103.75 63.05 105.5 65.8 108.45 65.8 111.95 65.8 115.95 60.4 120.95 53.6 125.6 51.1
L 125.55 50.95
Q 121.35 48.2 113.55 45.95 107.3 44.15 105.5 44.15 102.4 44.15 100.35 46.15
M 107.25 45.9
Q 107.75 45.9 112.95 47.85 118.05 49.8 121.8 51.4 120.6 52.4 116.05 59.5 112.95 64.25 108.8 64.25 104.75 64.25 104.75 61.15
L 107.5 58.25
Q 110.3 55.3 110.55 54 99.8 51.75 100.6 48.7 100.9 47.5 102.9 46.7 104.9 45.9 107.25 45.9
M 90.35 60.85
L 90.45 62.9
Q 90.45 70.5 80.8 81.4 73.85 89.2 59.6 100.95
L 38.4 118.4
Q 28.75 126.9 28.75 130.55 28.75 131.5 29.55 132.55 30.7 134.15 32.85 132.75
L 32.15 131.1 31.75 129.75
Q 31.75 129.15 31.85 129.25
L 31.95 129.5 32.15 129.45 33.25 127.7
Q 34.3 129.25 36.1 130.8 37.45 132.3 37.45 135.55 37.45 137.1 35.7 139.35 33.15 142.7 28.6 142.7 25.65 142.7 21.9 138.45 17.55 133.55 17.55 127.45 17.55 119.55 26.5 111.4 31.5 106.85 46.4 97.1 60.65 87.75 66.6 81.95 76 72.85 76.6 63.4
L 84.85 61.9 84.9 61.6 84.9 61.9 90.35 60.85
M 84.9 59.75
L 84.85 59.6 76.45 61.2
Q 77.35 58.3 74.2 53.7 71.05 49.1 65 44.35 50.65 33.05 32.85 29.45 12.95 25.45 7.9 22.65 0.2 18.4 0.2 7.75 0.2 1.2 8.35 1.2 14.45 1.2 18 4.55 20.6 7 20.6 9.05 20.6 11.7 19.35 11.35 18.05 11 18.05 11.65 18.05 12.8 17.05 13.85 15.65 15.25 13.45 14.65
L 12.65 13
Q 11.8 11.35 11.8 10.75
L 12.85 9.05
Q 12.6 9.4 11.6 9.4 10.65 9.4 10.1 7.6
L 9.85 7.75
Q 9.75 9.35 10.9 13.2
L 12.2 17.1 14.65 17.5 17.9 16.6
Q 19 16.05 19 15.55
L 20.3 15.3
Q 20.75 15.3 23.6 18.05 27.15 20.95 30.9 21.65
L 43.7 25.05
Q 83 33.75 90 58.45 85.65 59.35 84.9 59.75
M 15.95 45.5
Q 13.25 31.7 10.6 27.9 31.5 32.15 45.7 37.4 72.8 47.4 72.95 62.7
L 26.4 65.9 17.95 65.8
Q 18.65 59.3 15.95 45.5
M 50.2 66.8
L 72.95 63.95
Q 72.95 70 66.5 76.85 61.75 81.9 51.2 89.4
L 33.15 102.25
Q 23.2 109.9 18.5 116.15
L 18.6 114.2
Q 18.85 98.25 18.35 69.05
L 50.2 66.8 Z"/>

<path fill="#CC0000" stroke="none" d="
M -22.2 68.35
Q -22.5 69.2 -24.15 71.1
L -28.05 74.9
Q -28.05 75.55 -27.7 76.05 -27.35 76.5 -26.85 76.5 -24.95 75.8 -22.15 72.95 -19.5 70.2 -18.75 68.45
L -22.2 68.35
M -6.75 70.1
L -6.7 69.45 -6.95 68.75 -8.4 69.4
Q -10 70.65 -11.15 72.8 -12.2 74.7 -12.2 75.85 -12.2 76.25 -11.8 76.65
L -10.95 77.5 -10 76.7 -9.6 76.2
Q -8.95 72.3 -6.75 70.1
M -18.45 65.05
Q -16.3 66.25 -13.25 66.25 -13.7 65.3 -16.5 62
L -20.45 57.55
Q -21.85 56.75 -23.2 56.3
L -23.2 58.55 -20.6 62.05
Q -20.6 63.8 -18.45 65.05
M -8.6 57.45
Q -8.6 55.95 -9.7 54.9 -10.85 53.85 -12.45 53.85
L -10.1 58.5
Q -8.5 61.9 -8.9 64.4
L -7.7 65.5 -6.25 66.5 -5.55 66.4 -5.3 65.95 -5.2 65.05
Q -5.1 64.45 -5.5 63.2 -6.25 60.65 -8.6 57.45 Z"/>
</g>
</defs>

<g transform="matrix( 1, 0, 0, 1, 0,0) ">
<use xlink:href="#Layer0_0_FILL"/>
</g>
</svg>
