
<svg xmlns="http://www.w3.org/2000/svg" version="1.1" xmlns:xlink="http://www.w3.org/1999/xlink" preserveAspectRatio="none" x="0px" y="0px" width="550px" height="400px" viewBox="0 0 550 400">
<defs>
<g id="Layer0_0_FILL">
<path fill="#424242" fill-opacity="0.5019607843137255" stroke="none" d="
M 12.85 9.05
L 14.45 7.85 13.7 5.5
Q 12.55 3.3 10.5 3.3 9 3.3 7.6 4.25 5.6 5.7 5.6 8.5 5.6 12.6 7.75 15.55 9.45 17.9 10.65 17.9 11.6 17.9 12.2 17.1
L 10.9 13.2
Q 9.75 9.35 9.85 7.75
L 10.1 7.6
Q 10.65 9.4 11.6 9.4 12.6 9.4 12.85 9.05
M 84.7 66.3
Q 84.35 68.1 82.25 68.3 80.2 68.5 80.2 69.2 80.2 70.6 81.8 70.95
L 72.4 81.6
Q 67.15 87.2 67.15 87.5 67.15 88.8 68 88.9
L 69.8 88.5 69.55 88.95
Q 65.5 93.2 61 95.45 58.75 96.55 57.3 96.9
L 58.5 98.1 61 97.3 59.55 98.6
Q 53.9 104.35 47.95 105.1
L 44.25 105.3
Q 42.6 105.45 42 106.3
L 44.1 109.25
Q 42.6 111.1 37.25 112.2 32 113.3 31.25 114.3
L 31.8 115.25
Q 32.55 116.25 33.35 116.45 29.4 118.35 26.6 122.15 23.6 126.1 23.6 130 23.6 133 25.5 135.35 27.5 137.8 30.2 137.8 32.25 137.8 33.65 136.85 35.05 135.95 35.05 134.65 35.05 133.25 34.05 131.65
L 32.15 129.45 31.95 129.5 31.85 129.25
Q 31.75 129.15 31.75 129.75
L 32.15 131.1 32.85 132.75
Q 30.7 134.15 29.55 132.55 28.75 131.5 28.75 130.55 28.75 126.9 38.4 118.4
L 59.6 100.95
Q 73.85 89.2 80.8 81.4 90.45 70.5 90.45 62.9
L 90.35 60.85 84.9 61.9 84.9 61.6 84.85 61.9 84.7 66.3
M 84.75 57.5
Q 84.65 59.15 84.85 59.6
L 84.9 59.75
Q 85.65 59.35 90 58.45 83 33.75 43.7 25.05
L 30.9 21.65
Q 27.15 20.95 23.6 18.05 20.75 15.3 20.3 15.3
L 19 15.55
Q 19 16.05 17.9 16.6 19.2 21.15 39.7 28.1 49.95 31.6 60.05 34.15
L 63.2 34.25
Q 65.35 34.7 65.35 36.65
L 64.55 38.05
Q 63.75 39.1 63.75 39.45 63.75 40.05 63.9 40.25
L 64.05 40.45 64.45 40.65 65.1 40.7
Q 65.8 40.7 66.9 39.8 67.95 38.85 69.1 38.85
L 71.7 40.5
Q 74.2 42.4 74.2 43.65
L 73.75 45.05
Q 73.25 45.95 73.25 46.45 73.25 47.05 73.5 47.45 73.85 48 74.45 48
L 76.25 47.3
Q 77.5 46.6 78 46.6 79.05 46.6 80.65 49.75 81.85 52.25 82.65 54.95 80.8 55.7 80 56.2 79.95 56.25 79.25 56.85
L 79.75 57.85 82.15 58.05
Q 83.15 58.05 84.75 57.25
L 84.75 57.5 Z"/>

<path fill="#000000" fill-opacity="0.32941176470588235" stroke="none" d="
M 112.95 47.85
Q 107.75 45.9 107.25 45.9 104.9 45.9 102.9 46.7 100.9 47.5 100.6 48.7 99.8 51.75 110.55 54 110.3 55.3 107.5 58.25
L 104.75 61.15
Q 104.75 64.25 108.8 64.25 112.95 64.25 116.05 59.5 120.6 52.4 121.8 51.4 118.05 49.8 112.95 47.85
M 112.7 53.6
Q 112.7 52.95 111.4 52 109.7 50.75 106.5 49.6 107.6 49.6 116.55 52.4
L 114.2 55.5 109.25 60.35
Q 110.85 58.3 112.7 53.6 Z"/>
</g>
</defs>

<g transform="matrix( 1, 0, 0, 1, 0,0) ">
<use xlink:href="#Layer0_0_FILL"/>
</g>
</svg>
