
<svg xmlns="http://www.w3.org/2000/svg" version="1.1" xmlns:xlink="http://www.w3.org/1999/xlink" preserveAspectRatio="none" x="0px" y="0px" width="550px" height="400px" viewBox="0 0 550 400">
<defs>
<g id="MovieClips_Symbol_344_0_Layer0_0_FILL">
<path fill="#5AB035" stroke="none" d="
M 97.95 118.45
Q 96 114 91.75 109.4 89.55 110.7 86.7 115.65 83.35 121.5 83.35 126.6 83.35 133.5 85.55 135.9 87.65 138.2 93.4 138.2 97.75 138.2 98.8 136.65 99.95 135.05 99.95 128.55 99.95 123.05 97.95 118.45
M 6.7 98.25
Q 2.75 95.9 1.25 96.2 -0.95 96.65 -0.95 102.1 -0.95 110.6 1.9 114.4 3.85 117 6.6 117
L 9.9 116.8
Q 10.25 116.7 10.25 116.25
L 9.05 111.7
Q 7.8 106.3 7.35 99.15 7.35 98.65 6.7 98.25
M 88.25 19.15
Q 88.25 13.5 85.05 6.2 81.95 -0.95 79.75 -0.95 73.25 -0.95 62.8 10.55 51.8 22.6 48.05 35.5 38.95 39.35 34.6 19.75
L 32 5.75
Q 30.75 -0.85 29.5 -0.85 25.05 -0.85 21.15 7.5 17.85 14.7 17.85 19.55 17.85 25.1 19.15 30.6
L 20.4 36.85
Q 20.4 40.2 27.55 47.15 35.2 54.55 40.05 53.7
L 32.7 89.65
Q 29.3 109.05 29.3 128 29.3 131.2 38.5 134.25 46.1 136.8 49.2 136.8 54.75 136.8 61.75 133.2 68.55 129.75 68.55 127.3 68.55 123.65 67.3 115.8 66.05 107.95 66.05 106.6 66.05 101.85 67.1 93.6 68 86.45 68.75 83.05
L 70.95 83.15
Q 87.35 83.15 99.4 70.8 111.3 58.65 111.3 42.5 111.3 37.05 110.25 31.2 109.25 25.5 108.35 25.5 105.65 30.05 100.5 36.45 90.05 49.3 75.2 58.3 80.25 47.85 83.1 41.05 88.25 28.5 88.25 19.15 Z"/>
</g>
</defs>

<g transform="matrix( 1, 0, 0, 1, -32.9,-71.25) ">
<g transform="matrix( -3.04296875, -0.546234130859375, -0.490509033203125, 2.7325286865234375, 260.1,-127) ">
<g transform="matrix( 1, 0, 0, 1, 0,0) ">
<use xlink:href="#MovieClips_Symbol_344_0_Layer0_0_FILL"/>
</g>
</g>
</g>
</svg>
