
<svg xmlns="http://www.w3.org/2000/svg" version="1.1" xmlns:xlink="http://www.w3.org/1999/xlink" preserveAspectRatio="none" x="0px" y="0px" width="550px" height="400px" viewBox="0 0 550 400">
<defs>
<g id="Layer0_0_MEMBER_0_FILL">
<path fill="#000000" stroke="none" d="
M 172.25 62.3
Q 173.4 36.45 167.3 15.8 160.7 3.8 149.75 0.85 140 -1.8 128.8 3.15 118.3 7.75 110.05 17.35 101.7 27.15 99.15 38.25 99.7 33.65 92.8 30.8 85.9 27.9 81.55 30.95 81.05 28.15 77.8 26.2 74.8 24.35 70.8 23.9 66.65 23.5 63.5 24.85 60 26.4 59 29.75 54.85 25.25 46.25 29.55 37.8 33.7 36.15 40.4 31.9 39.1 27.3 40.9 23 42.55 19.7 46.45 16.35 50.35 15.25 55.1 14 60.2 15.8 64.8 -8.8 79.55 4.85 98.5 13.1 109.95 36.9 123.7 39.65 124.75 47.3 130.35 51.7 133.55 61.25 140.6 62.4 140.95 63.6 141.6
L 67.65 143.7
Q 72.15 145.7 76.8 146.45
L 76.75 146.05
Q 108.3 156.55 130.85 145.55 150.4 136.05 161.4 111.6 170.95 90.25 172.25 62.3
M 165.4 47.55
Q 163.5 47.4 162.2 46 161.4 45.3 161 44.15 162.1 41.55 161.85 38.75 161.85 38.25 161.7 38.3 161.55 38.3 161.5 38.75 161.4 40.6 160.65 42
L 160.5 42.25
Q 158.75 45.8 155 47 151.2 48.25 147.65 46.45 144.95 45.05 143.5 42.4 143.6 42.05 143.65 41.3 143.65 40.4 143.35 40.4
L 143.1 40.4
Q 143.2 39.95 143.1 39.35 143.05 38.75 142.9 38.75
L 142.35 38.75
Q 142.2 38.75 142.15 39.25 142.15 39.5 142.15 39.8
L 142.3 41.15 141.3 42.1
Q 140.05 43.25 139 44.05 136.45 45.9 133.4 46.05 130.5 46.15 128.6 44.15 127.85 43.3 127.6 42.25 127.7 41.15 128.4 40.25 128.55 39.65 128.5 39.25 128.5 38.4 128.25 38.65 126.4 40.5 127.3 44.5 127.65 46 128.65 47.2 129.7 48.35 131.2 48.85 134.8 49.85 138 47.9 139.85 46.85 141 45.75 142.15 44.6 143 43.55 143.65 45.6 145.3 47.35 148.2 50.6 152.75 50.5 155.3 50.3 157.4 48.85 159.55 47.45 160.65 45.1 160.8 46.9 161.9 48.35 162.95 49.75 164.65 50.4 166.9 51.05 168.85 49.85 169.6 49.4 170.15 48.7 170.1 62 167.4 80.45 166 90.25 163.7 103.65
L 163.65 103.65
Q 153.4 123.8 135.1 135.45 118.55 146.05 100.3 146.85 82.5 147.65 70.95 138.9 58.6 129.5 58.65 112.65 61.75 96.85 70.35 87.6 78.95 78.25 94.4 74.05 94.75 77 96.2 75.35 97.7 73.7 97.1 69.7 97.6 47.7 106.85 30.55 118.15 9.5 138.5 6.65 169 2.85 170.05 45.85 169.7 46.15 168.9 46.65 167.4 47.7 165.4 47.55
M 81.35 34.35
Q 82.7 34.65 85.45 34.35 88.2 34.05 89.55 34.3 90.75 35.25 95.5 36.45 99.25 38.45 97.4 44.3 96.35 41.25 91.05 40 85.7 38.75 82 40.9
L 81.35 34.35
M 82.3 44.5
Q 82.75 44.75 87.1 45 91.7 45.25 96.7 47.2 95.5 50.45 95.3 55.55 94.95 62.45 94.85 63.25 93.65 71.2 83.75 71.75 84.15 67.75 83.65 61.65 83 54.8 82.75 51.5
L 82.3 44.5
M 46 35.7
Q 47.75 34.85 51.5 34.3 55.45 33.7 57 33.05 57.65 35.8 59.1 39.9 53.9 40.15 49.5 42.9 45.1 45.65 42.65 50.25 39.1 47.15 39.25 43.4 39.4 38.7 46 35.7
M 71.95 43.05
Q 75 42.7 76.6 43.25 80.78828125 44.546484375 80.2 53.5 79.65 55.75 80.3 59.55 80.7 61.7 81.5 66.05 82.55 73.65 76.6 75.8 76.55 71.1 71.1 59.9 65.85 49.15 66.3 43.85 68.3 43.65 71.95 43.05
M 62.7 30.15
L 62.7 30.1
Q 67.9 27.55 73.85 29.25 81.1 31.35 79.3 39.75 76.85 37.45 72.05 37.45 66.95 37.45 63.6 40.3 61.9 35.85 59.85 32 60.5 31.85 61.3 31.2 62.4 30.3 62.7 30.15
M 40.05 52.7
Q 34 55.35 30 60.65 26 65.95 25.05 72.5 24.55 71.2 22.9 69.4 20.85 67.3 19.95 66.2 16.45 61.95 18.15 57.45 19.25 55 21.85 52.4 24.7 49.55 27.85 48.15 36.05 44.5 40.05 52.7
M 3.85 89.35
Q 3.65 83.1 7.05 77.35 10.6 71.5 15.3 70.85 20.7 70.15 25.2 77.35 16.15 84.6 11.5 100.8 9.85 99.85 9 99.35 4.1 96.3 3.85 89.35
M 31 79.3
Q 27.75 75 30.05 70.45 32.45 65.65 42.65 57.05 45.3 61.75 51.6 73.25 57.85 83.2 64.9 87.55 59.15 95.95 57.8 106 51.1 97.65 41.6 89.25 32.5 81.25 31 79.3
M 17.55 97.5
Q 19.4 93.85 28.25 80.6 50.05 99.9 57.4 118.85 59.2 123.5 61.5 130.75 63.65 136.2 67.3 139
L 40.3 121.25 40.25 121.25
Q 33.55 116.05 24.45 110.85 17.75 107 16.6 105.25 14.9 102.7 17.55 97.5
M 63.65 51.3
Q 65.65 54.55 68.75 63.3 72.25 73.3 74.3 77.5 69.65 81.25 66 86.05 65.8 83.25 62.8 79.65 58.75 75.4 56.7 73 49.95 64.4 45.05 54.5 51.95 47.05 56.6 46.7 60.6 46.35 63.65 51.3 Z"/>
</g>

<g id="Layer0_0_MEMBER_1_FILL">
<path fill="#000000" stroke="none" d="
M 149.3 51.7
Q 149.2 51.45 149.1 51.55 148.8 51.85 148.4 52.45 147.95 53.3 147.8 53.45 146.95 54.5 145.85 55.2 143.55 56.7 140.85 56.55 138.25 56.4 136.25 54.75 134.1 53.05 133.7 50.55 133.7 50.05 133.4 50.25 133.3 50.4 133.35 50.85 133.35 51.25 133.4 51.4 133.85 54.2 135.8 56.45 137.85 58.8 140.55 59.25 143.45 59.7 146.1 58.05 148.85 56.35 149.4 53.55 149.55 52.85 149.4 52.1 149.35 51.85 149.3 51.7 Z"/>
</g>

<g id="Layer0_0_MEMBER_2_FILL">
<path fill="#000000" stroke="none" d="
M 168.2 51.05
Q 168.05 50.65 168 51.05 167.55 53.05 166.05 54.4 164.45 56.15 162.05 56.4 159.75 56.7 157.85 55.35 156.95 54.75 156.35 54
L 155.8 53.2 155.55 52.75 155.3 52.5
Q 155.2 52.9 155.2 52.95 155.5 55.9 157.65 57.8 159.7 59.55 162.35 59.4 165.05 59.15 166.65 57.1 168.55 54.65 168.3 51.6 168.3 51.4 168.2 51.05 Z"/>
</g>
</defs>

<g transform="matrix( 1, 0, 0, 1, 0,0) ">
<use xlink:href="#Layer0_0_MEMBER_0_FILL"/>
</g>

<g transform="matrix( 1, 0, 0, 1, 0,0) ">
<use xlink:href="#Layer0_0_MEMBER_1_FILL"/>
</g>

<g transform="matrix( 1, 0, 0, 1, 0,0) ">
<use xlink:href="#Layer0_0_MEMBER_2_FILL"/>
</g>
</svg>
