
<svg xmlns="http://www.w3.org/2000/svg" version="1.1" xmlns:xlink="http://www.w3.org/1999/xlink" preserveAspectRatio="none" x="0px" y="0px" width="550px" height="400px" viewBox="0 0 550 400">
<defs>
<g id="Layer0_0_FILL">
<path fill="#999999" stroke="none" d="
M 106.65 61.85
L 105.3 60 106.75 64 106.65 61.85 Z"/>

<path fill="#000000" stroke="none" d="
M 220.2 42.9
Q 220.2 30.85 211.7 30.85 204.5 30.85 198.25 37.7 192.9 43.6 192.9 47.65 192.9 53.05 196.5 61.15 200.05 69.2 200.05 73.85 200.05 81.15 190.35 87.8 180.15 94.85 167.6 94.85 156.75 94.85 151.3 91.3 145.8 86.4 140.55 83.75 138.15 82.5 132.95 81.7 126.75 80.75 124.1 79.85 113 76.25 106.65 61.85
L 106.75 64 105.3 60 98.05 46.45
Q 95.7 42.4 91.2 40.2 72.7 31.1 63.15 28.25 53.5 25.3 41.8 25.3 23.05 25.3 13.1 33.35 4.45 40.35 4.45 51.45 4.45 53.8 5.05 55.85 5.2 56.9 3.25 57.45 -8.4 59.7 -29.35 66.25 -39.2 69.35 -44.35 79.45 -48.75 88 -48.75 98.9 -48.75 123.35 -42.65 141.7 -34.5 166.1 -15.4 181
L -18.75 177.1
Q -9.1 186.9 26.5 197.55 44.3 202.9 60.25 206.3 67.25 206.3 71.35 202.15 75 198.5 75 193.3 75 191.65 74.5 190.3 73.95 188.85 73.2 188.85 72.4 188.85 72.2 189.1 71.9 189.45 71.1 191.35 71.55 184.1 66.3 171.35 61.9 160.7 56.25 152.1 65.3 154.35 83.75 146.55 101.3 139.2 104.3 133.6
L 104.8 134.35
Q 105.45 135.05 106.05 135.05 112.55 135.05 119.7 132.45 126.9 129.85 126.9 127.4 126.9 126.5 126.3 125.8 125.3 124.7 122.5 123.5
L 133 125.25 147.35 126.35
Q 148.45 126.35 150.5 125.2 152.5 124.05 153.2 124.05
L 162.9 125.65
Q 184.45 125.65 201.85 103.85 208.9 95.05 213.1 84.95 217.15 75.25 217.15 68.05 214.6 59 214.6 57
L 219.3 50.8 220.2 42.9
M 206.4 35.85
Q 210.05 33.7 211.25 33.7 213.9 33.7 214.8 35.95 216 38.9 216 48.2 216 50.4 215.3 52.55
L 211.5 51.25
Q 211.9 56.3 212.2 57.35
L 210.6 57.45 203.8 56.9
Q 200.9 56.85 200.5 59.35 198.85 54.85 198.35 52.85 197.65 50.2 197.65 47.65
L 198.5 42.7 202 46.35
Q 203.15 47.2 204.7 47.2 206.6 47.05 207.05 46.1 207.9 44.25 199.85 40.4 202.95 37.95 206.4 35.85
M 192.6 90.7
L 195.4 92.25
Q 197.9 93.75 199.5 93.75
L 200.35 93.55 200.55 93.2
Q 200.55 91.9 199.35 90.15 197.9 88 196.15 88.2 199.15 86.2 201.5 81.5 203.2 78.1 203.4 76.55 204.45 77.05 206.45 77.75
L 208.4 78.35
Q 210.6 78.35 210.6 76.35 210.6 74.75 207.65 74.35 204.2 73.9 203.65 73.2 203.5 71.4 200.7 59.9 201.6 60.4 203.85 61.1
L 206.95 61.8
Q 208.65 61.8 212.35 60.05
L 212.5 63.75
Q 212.5 86.5 195.45 104.75 187.85 112.9 178.75 117.5 169.45 122.25 160.7 122.25
L 151.75 121.2
Q 143.9 119.9 133.35 119.3 123.25 118.7 109.8 113.85 98.25 109.15 97.4 109.15
L 94.7 109.75 95.15 109.9 95.9 110.4 95.1 110.6
Q 94.8 110.6 94.8 111.2 94.8 114.55 103.1 120 112.4 126.1 122.3 127.15
L 118.4 128.2 111.45 128.9 100.15 128.3 100.85 129.55 101.05 130.6
Q 101.05 133.65 93.85 138.4
L 84.25 143.85
Q 81.7 145.15 73.85 146.95 65.65 148.85 61.9 148.85 55.45 148.85 52.15 145 48.85 141.15 48.85 133.65 48.85 131.45 49.85 127.75 50.85 124.05 50.85 122.85
L 49.6 120.9
Q 48.3 118.8 48.3 117.15
L 48.85 114.3
Q 49.15 112.4 47.9 111.25 46.2 111.75 44.65 113.95 43.1 116.2 43.6 117.6
L 39.5 116.9
Q 40.75 119.8 42.9 122.7 44.45 125.45 44.7 130.65 44.95 136.35 47.15 140.05 49.25 143.6 49.25 145.85
L 49.05 149.35 49.4 149.55
Q 51.65 150.15 57.95 161.65 63.15 171.2 65.9 183.15 67.7 191 67.7 194.85 67.7 197.15 67.3 198.1 66.85 199.1 65.8 199.4
L 69.3 199.05 65.5 201.25 62.35 202.3 59.1 201.95 63.25 200
Q 60.65 200.9 59 200.9 39.15 200.9 20.8 194.8 1.6 188.4 -12.95 176.35 -46.15 148.8 -46.15 101.8 -46.15 83.9 -36.85 76.05 -33.45 73.2 -28.05 71.05
L -19 67.85
Q -10.4 64.65 7.55 60.4 23.2 56.75 24.2 55.95 23.4 60.25 21.6 66.8 20.25 71.7 20.25 73.75 20.25 74.2 20.8 74.9 21.4 75.75 22.35 76.45
L 22.9 75.9
Q 22.7 69 26.6 59.45
L 30.5 51.2 30.35 50.4 30.05 50.3 29.2 50.9
Q 33.25 44.75 44.1 40.1 54.3 35.75 62.55 35.75 69.15 35.75 74.95 37.4
L 84.35 40.25
Q 82.95 41.75 82.95 42.2 82.95 43.2 83.25 43.65 88.75 42.5 93.25 45.6 97.8 48.75 100.25 55.5 102.9 62.9 106.4 69.1 112.4 79.65 118.65 82.2
L 134.7 86.65
Q 135.7 86.65 136.3 86
L 136.35 86.15 129.45 107
Q 129.45 108 130.4 108.45 133.55 107.9 135.05 103.95 136.7 99.75 137.95 88.2
L 139.2 88.45
Q 139.75 88.35 140.45 87.75
L 150.55 94
Q 148.85 97.65 148.8 102.8 148.8 105.5 149.1 108.4
L 150.5 108.7
Q 152.65 108.3 153.45 105.3 154.05 102.9 154.35 95.9 157.05 97 158.6 98.3 160.55 99.1 169.4 99.1
L 172.6 98.75
Q 172.8 104.6 173.4 106.5 173.8 107.8 174.8 107.8 177.4 107.8 177.4 104.4 177.4 102.4 177.05 100.65 176.7 98.6 176.1 98.05 181.4 96.35 186.85 93.2 191.1 90.7 192.6 90.7
M 39.3 38.25
Q 34.2 41.1 30.4 46.25 26.35 51.7 24.05 53.15 19.4 56.2 9.7 56.55
L 8.9 50.7
Q 8.9 41 16.7 35.65 23.15 31.25 31.65 31.25
L 61.3 31.7
Q 47 33.95 39.3 38.25
M 86.3 83.1
Q 89.9 79.65 91.15 75 92.45 70.05 90.15 66.85 87.5 63.15 80.7 63.15 76.95 63.15 73.15 65.6 69.35 68 68.15 73.8 66.95 79.55 71.7 83.2 76.45 86.8 78.1 86.8 82.4 86.8 86.3 83.1
M 82 66.65
Q 84.6 66.65 86.8 68.8 88.85 70.85 88.1 72.25 85 70.95 81.35 72.1 77 73.5 77 77.8
L 81.5 81.35
Q 79.35 82.85 77.5 83 75.65 83.15 73.35 79.35 71.05 75.5 72.1 73.05 73.1 70.6 74.75 68.4 76.35 66.15 75.8 68.65
L 82 66.65
M 209.55 43.75
Q 210.5 43.75 211.15 42.7 211.8 41.6 211.8 40.1 211.8 38.6 211.15 37.55 210.5 36.45 209.55 36.45 208.6 36.45 207.95 37.55 207.3 38.6 207.3 40.1 207.3 41.6 207.95 42.7 208.6 43.75 209.55 43.75 Z"/>
</g>
</defs>

<g transform="matrix( 1, 0, 0, 1, 0,0) ">
<use xlink:href="#Layer0_0_FILL"/>
</g>
</svg>
