
<svg xmlns="http://www.w3.org/2000/svg" version="1.1" xmlns:xlink="http://www.w3.org/1999/xlink" preserveAspectRatio="none" x="0px" y="0px" width="550px" height="400px" viewBox="0 0 550 400">
<defs>
<g id="Layer0_0_FILL">
<path fill="#000000" fill-opacity="0.25098039215686274" stroke="none" d="
M 55.4 120.85
Q 55.4 115 52.55 111.05 49.95 107.4 46.25 106.85 42.5 106.25 39.95 109.3 37.1 112.7 37.1 119.4 37.1 127.1 42.8 137.75 45.15 142.2 58.65 163.65
L 60.05 162.3
Q 59.8 159.25 57.4 156.4 54.55 152.9 53.55 149.9 55.9 152.3 63.15 152.3 73.35 152.3 88.55 143.5
L 98.7 137.15
Q 103.6 133.95 104.8 133.55 112.45 130.9 120.85 128.9 124.75 127.95 124.75 126.85 124.75 125.9 121.15 124.85
L 107.2 120.8
Q 104.55 120 100.55 117.1
L 95.95 113.5 95.35 114.05
Q 99 119.25 105.6 122.8
L 111.3 125.75
Q 111.3 126.75 111.1 126.2
L 110.65 126.5 109.8 126.6 107.45 125.35
Q 104.75 124.05 102.35 124.05 100.7 124.05 97.9 126.85
L 91.65 132.95
Q 81.5 141.85 67.6 141.85 61.65 141.85 58.15 139.55 54.05 136.85 54.05 131.2
L 54.75 128.8
Q 55.4 125.55 55.4 120.85
M 215.2 61.05
Q 214.6 59.5 214.6 58.55 214.6 57.6 214.95 56.85 215.3 54.2 217.25 53.4
L 217.4 53.35 217.35 52.7
Q 217.5 51.75 217.15 50.9 216.5 49.25 214.2 49.25 211.8 49.25 209.9 51.1 207.8 53.2 207.8 56.6 207.8 58.25 209.35 66.25
L 210.85 75.1
Q 210.85 79.6 207.1 86.3 202.25 94.95 193.3 102.15 183.3 110.2 173.55 112.9 167.05 114.65 156.2 114.65 142 114.65 121.85 108.85
L 104.4 103.05
Q 101.8 103.05 100.05 104.2 98.35 105.3 98.35 106.85 98.35 112.8 106 116 110.7 118 122.6 120.05
L 134.6 122.7 147.1 124.7
Q 148.95 123.65 153.75 124.15
L 158.45 125.05
Q 168.25 124.35 177.7 120.05 189 114.9 203.8 96.45 214.05 83.55 216.6 67.35 216.35 66.9 216.25 66.2
L 216.05 63.4 215.2 61.05
M 211.7 79.2
L 212.4 76.05 212.4 76.3
Q 212.15 78.05 211.7 79.2
M 217.15 35.6
Q 217.15 34.1 216.35 33 215.05 31.25 212 31.25 206.8 31.25 200.6 35.85 193.1 41.5 193.1 49.45 193.1 54.1 197.45 62.35 201.75 70.55 201.65 76.05 201.5 81.5 187.8 89.8 174.05 98.1 170.25 97 166.45 95.9 161.9 96.2 157.3 96.45 150.75 92.4 144.2 88.35 135.05 85.75 125.85 83.1 117.95 78.85 110.05 74.55 103.35 59.85 96.6 45.1 94.15 42.6 91.65 40.05 87.7 40.05
L 84.95 41.1 84.55 40.45
Q 85.1 39.6 84.65 38.5 84.25 37.55 83.8 37.55
L 79.9 36.25
Q 76.1 34.9 73.3 34.9
L 65 35.7 66.2 34.35 66.5 33.25
Q 66.3 32.35 64.95 31.45 62.3 29.6 56.6 29.6 48.35 29.6 46.3 27.7 44.2 25.8 39.15 25.8 24.85 25.8 14.6 33.45 5.2 40.5 5.2 48.7 5.2 53.75 8.95 58.65
L -10.15 62
Q -21.5 64.1 -28.1 67 -46.6 75.1 -46.6 97.6
L -46.2 107.15
Q -45.85 117.45 -46.2 124.75 -46.65 134.35 -40.45 145.25 -37.35 150.7 -34 154.65 -31.3 161.25 -18.75 173.75 -6.15 186.3 -1.95 186.3
L -0.5 185.95 -0.5 187
Q 23.25 195.55 27.7 197.35 44.05 203.85 55.95 203.85 61.1 203.85 65.45 201.95 69.15 200.35 69.15 199.2 69.15 197.85 67.55 197.65
L 61.7 197.6
Q 48.85 197.25 31.55 191.2 0.4 180.3 -10.7 173.85 -18.1 169.5 -22.7 162.45 -28 154.2 -33.75 136.85 -40.5 116.6 -40.5 103.15 -40.5 90.45 -28.05 82.15 -16.6 74.55 7.55 69.35 10 78.25 13.5 84.3 17.25 90.65 20.35 90.65 21.6 90.65 22.5 90.1 23.4 89.5 23.4 88.75 23.4 88.1 22.95 87.85 22.3 87.6 21.95 87.35 20.45 86.2 20.45 81.45 20.45 78.8 23.4 73 26.85 66.3 32.05 60.35 46.5 43.85 64.55 43.85 79.4 43.85 84.45 49 85.85 50.45 88.55 54.8 91.35 59.25 93.95 62.1 100.7 69.4 102.05 71.3 103.2 72.95 105.4 78.5 107.1 82.8 116 88.75 126.05 95.4 136.4 97.3 139.6 97.9 152.75 101.4 161.2 103.65 168.6 103.65 184.4 103.65 196.55 91.3 201.5 86.25 204.45 80.4 207.25 74.75 207.25 70.3 207.25 64.7 204.9 57.35 202.55 50 202.55 47 202.55 39.85 209.85 38.6
L 214.85 37.85
Q 217.15 37.3 217.15 35.6
M 38.5 32.5
Q 35.75 35.6 23.75 45.9 16.8 51.85 16.8 56.55
L 17 58.2
Q 16.5 57.2 15.6 53.65
L 14.8 50.15
Q 14.8 43.3 20.5 38.2 27.15 32.3 38.5 32.5 Z"/>
</g>
</defs>

<g transform="matrix( 1, 0, 0, 1, 0,0) ">
<use xlink:href="#Layer0_0_FILL"/>
</g>
</svg>
