
<svg xmlns="http://www.w3.org/2000/svg" version="1.1" xmlns:xlink="http://www.w3.org/1999/xlink" preserveAspectRatio="none" x="0px" y="0px" width="550px" height="400px" viewBox="0 0 550 400">
<defs>
<g id="Layer0_0_FILL">
<path fill="#FFFFFF" fill-opacity="0.25098039215686274" stroke="none" d="
M -2.75 78.25
Q -7.95 79.45 -14.95 83.6 -22.35 87.95 -27.2 93 -32.75 98.8 -32.75 103.4
L -31.85 123.5 -30.9 123.9 -30.05 123.95
Q -28.45 123.95 -20.65 99.75 -20.65 97.55 -8.9 89.6 2.8 81.65 2.8 80 2.8 77 -2.75 78.25
M 73.85 56.1
Q 77.15 54.15 79.15 53.25 79.15 52 76.15 52 71 52 66.65 54.15 58.4 58.25 54.55 68.9
L 54.45 68.95 55.1 69
Q 56.6 69 58 68.25
L 60.9 66
Q 67.2 60.1 73.85 56.1
M 17.7 47.4
Q 18.1 48.05 18.6 48.05 19.6 48.05 22.2 45.75
L 30.65 37.55
Q 24.65 37.55 20.85 39.95 17.2 42.25 17.2 45.65 17.2 46.7 17.7 47.4
M 65.6 47.5
Q 65.3 47.15 64.8 47.15 63.35 46.95 60.15 48 53.8 50 44.65 56.15 38.45 60.05 35.4 63.6 33.7 65.55 33.35 66.85 34.65 67.9 35.75 71.3 36.65 74.1 37.8 74.1 38.65 74.1 40.4 71.95 42.9 68.65 44.95 66.25 53.4 56.3 66.15 48.4
L 65.6 47.5
M 213.2 40.2
Q 212.6 39.75 211.1 39.75 208.85 39.75 206 41.2 201.85 43.3 201.85 47.15
L 203.55 53.3
Q 205.25 59.65 205.25 61.35 205.25 77.15 197.6 88.2 187.85 102.35 168.45 102.35 155.8 102.35 138.35 97.4 120.85 92.45 117.1 92.45 114.2 92.45 111.9 93.7 120.2 99.55 139.9 102.65 155.4 105.15 170.75 105.15 184.5 105.15 195.15 97.5 209.3 87.35 209.3 67.4 209.3 65.25 208.35 56.05
L 207.35 47.05
Q 207.35 44.35 210.55 43.65 213.75 42.95 213.75 41.5 213.75 40.6 213.2 40.2 Z"/>
</g>
</defs>

<g transform="matrix( 1, 0, 0, 1, 0,0) ">
<use xlink:href="#Layer0_0_FILL"/>
</g>
</svg>
