
<svg xmlns="http://www.w3.org/2000/svg" version="1.1" xmlns:xlink="http://www.w3.org/1999/xlink" preserveAspectRatio="none" x="0px" y="0px" width="550px" height="400px" viewBox="0 0 550 400">
<defs>
<g id="Parts_Sets_Sea_seaFoot_0_Layer5_0_FILL">
<path fill="#FFCCCC" fill-opacity="0.4" stroke="none" d="
M 45.8 5.35
Q 45.1 4.9 44.35 4.45 39.6 1.9 34.35 1.9 29.8 1.9 24.45 5.2 23.76015625 5.628125 23.15 6 23.4310546875 6.080078125 23.7 6.1 29.5671875 3 34.7 3 40.4 3 45.8 5.35
M 26.15 -10.4
Q 33 -14.15 40.2 -11.05 47.1 -8 48.3 -2.8 49.05 0.45 47.55 3.7 47 4.75 46.45 5.75 46.493359375 5.7662109375 46.5 5.75 48.2369140625 5.9 51.7 5.9 51.8626953125 5.9 52 5.9 52.1689453125 5.62421875 52.3 5.35 54.25 1.05 53.3 -3.3 51.7 -10.15 42.4 -14.25 32.95 -18.3 23.85 -13.4 17.05 -9.95 15.2 -5.6 13.45 -1.6 14.6 3.15 14.8818359375 4.2775390625 15.35 5.3 15.63828125 5.2642578125 15.95 5.25
L 19.85 5.25
Q 20.3359375 5.40390625 20.9 5.55 19.7267578125 3.8962890625 19.2 2 18.4 -1.55 19.7 -4.5 21.1 -7.8 26.15 -10.4 Z"/>

<path fill="#FFCCCC" fill-opacity="0.8" stroke="none" d="
M 40.2 -11.05
Q 33 -14.15 26.15 -10.4 21.1 -7.8 19.7 -4.5 18.4 -1.55 19.2 2 19.7267578125 3.8962890625 20.9 5.55 21.9134765625 5.8048828125 23.15 6 23.76015625 5.628125 24.45 5.2 29.8 1.9 34.35 1.9 39.6 1.9 44.35 4.45 45.1 4.9 45.8 5.35 46.0818359375 5.537890625 46.35 5.75
L 46.4 5.75 46.45 5.75
Q 47 4.75 47.55 3.7 49.05 0.45 48.3 -2.8 47.1 -8 40.2 -11.05 Z"/>
</g>

<g id="Parts_Sets_Sea_seaFoot_0_Layer4_0_FILL">
<path fill="#000000" stroke="none" d="
M 64.95 19.6
Q 65.0865234375 15.81640625 61.5 12.65
L 61.05 12.8
Q 60.85 10.9 59.95 9.5 54.2 -0.1 43.1 2.45 33.8 -4.6 23.25 1.65 22.55 1.1 21.85 1.1 10.05 -0.15 4.75 10.4 0.2 13.05 -0.9 18.35 -1.080859375 19.2546875 -0.85 20.05 -0.9935546875 21.1578125 -0.5 22.1 7.0505859375 35.301171875 21.35 42.35
L 20.75 43.35 21.25 44.15 20.85 44.8 21.8 46.35
Q 22.15 46.35 22.55 46.35 23.405859375 46.2216796875 24.1 45.7 24.153515625 45.89609375 24.2 46.1 24.21171875 46.20625 24.2 46.3 24.05 47.35 24.75 48.4 24.95 48.45 25.2 48.55 27.65 48.4 29.25 46.85 29.45 47.25 29.8 47.65 33.4 51.7 35.75 47.15
L 36.2 46.1 39.65 49.1 41.1 47.8 44.25 47.15 44.35 46.2 44.4 46.2 44.6 44.2
Q 55.322265625 36.269921875 63.25 25.5
L 63.85 25.45
Q 65.430859375 22.36015625 64.95 19.6
M 60.8 16.05
Q 61.5 17.5 62 18.95 62.01171875 19.0138671875 62 19.05 61.9689453125 19.2205078125 61.9 19.35 55.3 31.75 43.2 39.8
L 41.55 38.9
Q 41.2654296875 40.1958984375 41.5 41.55 41.4775390625 42.3033203125 41.6 43.05
L 40.85 42.9
Q 40.8453125 42.856640625 40.8 42.8 40.2962890625 41.6291015625 38.8 41.05 38.55 41.15 38.35 41.3 37.65 41.7 37.55 42.4
L 34.4 39.65
Q 34.0208984375 42.5884765625 32.5 45.15 31.9861328125 43.883984375 31.05 42.9 30.3806640625 42.0384765625 29.4 41.4
L 28.95 41.5 28.2 42.6
Q 27.7349609375 42.689453125 27.4 42.55 27.266796875 42.2640625 27.2 41.85
L 26.75 41.8
Q 26.6943359375 41.5748046875 26.65 41.3
L 26.2 41.25 25.45 39.5 25.15 39.5 24.9 38.9 23.6 38.95
Q 15.6703125 35.0361328125 9.2 29.35 6.683984375 27.07109375 4.4 24.5 3.7 22.55 2.1 20.7 2.880859375 17.403125 5.3 14.75 5.4580078125 16.0119140625 6.5 16.75
L 7.5 16.7
Q 7.515625 16.491796875 7.5 16.3
L 8.25 16.25
Q 8.83984375 8.493359375 13.75 6.35 17.0708984375 5.1837890625 22.15 6.3
L 23 8.05
Q 23.2205078125 7.834375 23.45 7.6
L 23.5 7.75
Q 25.725 5.5748046875 27.9 4.3 36.5763671875 -0.430859375 44.55 8.95
L 44.55 8.45
Q 44.6291015625 8.566796875 44.7 8.65
L 44.75 6.05
Q 56.05078125 4.8251953125 59.4 13.85
L 60.15 16.65
Q 60.2060546875 16.9142578125 60.25 17.15
L 60.8 16.05 Z"/>
</g>

<g id="Parts_Sets_Sea_seaFoot_0_Layer1_0_FILL">
<path fill="#000000" stroke="none" d="
M 9.65 15.75
Q 8.3548828125 14.8390625 7.05 13.95
L 5.15 14.45 4.75 15.35
Q 6.95 18.1 9.55 20.25 14.5822265625 24.3001953125 19.95 27.8 14.0052734375 20.862890625 9.65 15.75
M 23.05 4.2
Q 22.15 12.45 25.65 20.05
L 25.65 20.05
Q 25.65 17.2953125 25.65 11.3 25.65 8.656640625 25.55 6 24.9357421875 4.21171875 24.05 2.4 23.15 3.25 23.05 4.2
M 46.45 5.9
L 46.25 3.2 45.6 3.35
Q 45.2267578125 3.7826171875 44.85 4.2 44.3166015625 5.7107421875 43.65 7.5 40.4884765625 16.039453125 38.95 20.15 39.1986328125 20.772265625 39.5 21.4 39.85 21.3 39.95 21.1 43.4 13.95 46.45 5.9
M 62.05 15.6
L 62.1 14
Q 52.637109375 21.460546875 48 25.25 47.56875 25.6236328125 43.7 29.05
L 44.45 29.6
Q 47.6 28.05 50.3 26 56.5 21.15 62.05 15.6 Z"/>
</g>

<g id="Parts_Sets_Sea_seaFoot_0_Layer0_0_FILL">
<path fill="#000000" fill-opacity="0.2980392156862745" stroke="none" d="
M 62.25 21.9
Q 62.2916015625 21.6509765625 62.3 21.35 62.5220703125 20.9109375 62.65 20.3 62.8 19.4 62.8 17.8
L 62.75 17.4
Q 62.8 17.2 62.8 17.1 62.8 16.7 62.7 16.45
L 62.5 14.3
Q 61.95 13 60.95 13.3 60.5 11.3 58.35 9.4 58.05 5.4 50.7 3.9 48.3166015625 3.4232421875 46.4 3.55 44.997265625 3.463671875 43.8 3.65 43.4369140625 3.6953125 43.1 3.75 42.64921875 3.396875 42.05 3.05 38.4056640625 0.932421875 32.4 1.1 32.341796875 1.0970703125 32.25 1.1 31.451953125 1.0720703125 30.6 1.1 27.35 1.35 24.8 2.9 24.5333984375 3.0568359375 24.3 3.2 23.6314453125 2.8078125 22.6 2.55 21.0283203125 2.15 19.2 2.25 17.1376953125 2.1232421875 14.7 2.75 6.24765625 4.7822265625 5.6 11.65 5.2109375 11.4353515625 4.6 11.85 4.43515625 11.966015625 4.3 12.05 3.8669921875 11.227734375 2.95 11.85 1.6 12.8 1.6 14 1.6 14.9 1.75 15.85
L 1.7 15.85
Q 0.75 16.45 0.6 17.3 0.45 17.65 0.45 18.05 0.45 18.15 1.2 20.9 1.8177734375 22.3828125 2.7 23.05 3.217578125 24.0482421875 3.85 24.55 4.6302734375 25.76875 5.35 26.55 7.42890625 29.6 9.2 29.6 9.2609375 29.6 9.3 29.6 10.9740234375 31.5544921875 13.05 33.6 19.2232421875 39.63359375 25.5 42.3 26.2626953125 42.8142578125 27.4 43.5 28.82578125 44.331640625 29.95 44.8 29.9583984375 45.2146484375 30.15 45.55 30.46953125 46.1890625 31.3 46.25 31.2 46.3533203125 31.2 46.4 31.2 46.8 31.4 47.15 31.75 47.85 32.7 47.85 34.36328125 47.85 38 45.25 39.1345703125 45.3 40.5 45.3 41.15 45.3 41.6 44.85 41.6818359375 44.7681640625 41.75 44.65 42.5111328125 44.3201171875 43.45 43.35 43.6453125 43.1396484375 43.8 42.95 45.6013671875 41.7009765625 47.75 39.65 48.9216796875 38.52578125 50 37.35 51.89140625 36.4525390625 56.25 29.85 58.0126953125 27.1640625 59.15 24.9 59.494140625 24.408984375 59.75 23.95 60.0587890625 24.05 60.45 24.05 61.8 24.05 62.25 21.9
M 40.5 7.85
Q 41.95 8.95 43.1 10.05 43.9 10.05 44.3 9.45 44.559375 9.0609375 44.6 8.55 44.9037109375 8.613671875 46.95 8.75 51.65 9 55.8 12.9 55.9548828125 13.0423828125 56.1 13.15 56.4 13.773828125 56.4 14.3 56.4 14.65 56.15 16.05 56.15 16.75 56.7 17.1 56.55 17.5 56.5 17.95 56.35 19.15 55.55 20.7 55.35 21.05 55.2 21.4 50.1 27.6 47.7 29.95 44.2 33.5 36.45 39.45 36.2 39.65 36 39.8
L 33.4 39.8
Q 25.8 38.1 19.5 33.45 14.8 29.95 11.4 25.3 8.1291015625 20.8576171875 7.3 17.5 7.453515625 17.5953125 7.55 17.65 8.3 19.35 9.3 19.35 10.2 19.35 11.2 16.55 12.4 13.05 12.9 12.45 13.55 11.2 13.9 10.6 14.6 9.55 16.25 9 20.05 7.75 23.45 7.75 23.6767578125 7.75 23.85 7.7 23.8849609375 7.76484375 23.9 7.8 24.3 8.55 25.25 8.55 25.4 8.55 27.65 7.1 29.95 5.6 32.85 5.6 37.65 5.6 40.5 7.85
M 35.45 24.4
Q 35.25 24.4 34.9 24.55 34.45 23.4 34.1 23.15 33.45 22.8 31.6 23.15 29.35 23.5 29.35 24.9 29.35 25.8 29.9 26.15 29.7 26.2 29.6 26.25 27.6 26.85 27 27.3 26.6 27.65 26.6 28.45 26.6 29.05 26.75 29.4 27.05 30.2 28.1 30.2 28.6 30.2 29.05 29.9 29.75 29.4 30 29.3
L 30 29.4
Q 29.55 29.9 28.45 30.85 27.95 31.35 27.95 31.75 27.95 32.15 28.25 32.6 28.65 33.3 29.7 33.3 29.95 33.3 31.55 32.75 31.6 32.75 32.2 33.8 32.8 34.8 34.15 34.8 35.7 34.8 38.3 33 40.6 31.35 40.6 30.9 40.6 30.5 40.35 30.15 39.95 29.4 39 29.4 38.75 29.4 38.25 29.65 37.65 29.9 37.1 29.95 37 29.7 37 29.4 37 29.1 37.3 28.65 37.6 28.2 37.6 28 36.8 24.4 35.45 24.4 Z"/>
</g>

<g id="MovieClips_Symbol_228_41_Layer1_0_FILL">
<path fill="#669999" stroke="none" d="
M 45.4 15.7
Q 45.4 12.75 42.75 8.2 39.6 2.95 36 2.45
L 29.4 2.4
Q 24.8 0.85 21.3 0.3 14.55 -0.8 11.2 2.85
L 8.5 2.85
Q 5.45 -0.9 -0.95 6.35 -4.25 9.9 -6.85 14.35
L -6.75 17.25
Q -6.35 20.15 -5 20.15 -3.25 20.15 -1.3 22.9 1.15 26.35 4.75 28.15 5.5 28.5 12.15 32.95 18.1 36.75 18.8 36.75 19.35 36.75 20.15 36.1
L 20.95 35.35
Q 25.7 36.3 26.35 36.3 27.75 36.3 28.3 35.65 28.55 35.35 28.65 34.35 28.75 33.6 29.85 32.95 31.45 32.05 31.5 32 36.6 27.05 37.2 26.5 39.7 24.35 42.35 21.1 45.4 17.25 45.4 15.7 Z"/>
</g>

<g id="MovieClips_Symbol_264_41_Layer1_0_FILL">
<path fill="#FFFFFF" stroke="none" d="
M 15.95 -7.35
Q 14.8 -6.7 13.95 -5.8 11.65 -3.4 11.75 0.1 11.8 0.2 11.95 0.2 14.55 -1.35 17.15 -1.9 19.2 -2.25 21.15 -2.1 24.85 -1.7 28.4 0.9 28.8 0.6 29.25 0.1 29.1 -1.5 28.55 -2.9 26.75 -8.15 20.95 -8.05 18.35 -8.4 15.95 -7.35 Z"/>
</g>
</defs>

<g transform="matrix( 1, 0, 0, 1, -28.4,-10.7) ">
<g transform="matrix( 0.832000732421875, 0, 0, 0.8304443359375, -7.3,-1.15) ">
<g transform="matrix( 1, 0, 0, 1, 0,0) ">
<use xlink:href="#Parts_Sets_Sea_seaFoot_0_Layer5_0_FILL"/>
</g>

<g transform="matrix( 1, 0, 0, 1, 0,0) ">
<use xlink:href="#Parts_Sets_Sea_seaFoot_0_Layer4_0_FILL"/>
</g>

<g transform="matrix( 1, 0, 0, 1, 0,0) ">
<use xlink:href="#Parts_Sets_Sea_seaFoot_0_Layer1_0_FILL"/>
</g>

<g transform="matrix( 1, 0, 0, 1, 0,0) ">
<use xlink:href="#Parts_Sets_Sea_seaFoot_0_Layer0_0_FILL"/>
</g>
</g>
</g>

<g transform="matrix( 1, 0, 0, 1, -28.15,-10.5) ">
<g transform="matrix( 1, 0, 0, 1, 0,0) ">
<use xlink:href="#MovieClips_Symbol_228_41_Layer1_0_FILL"/>
</g>
</g>

<g transform="matrix( 1, 0, 0, 1, -28.4,-10.7) ">
<g transform="matrix( 1, 0, 0, 1, 0,0) ">
<use xlink:href="#MovieClips_Symbol_264_41_Layer1_0_FILL"/>
</g>
</g>
</svg>
