
<svg xmlns="http://www.w3.org/2000/svg" version="1.1" xmlns:xlink="http://www.w3.org/1999/xlink" preserveAspectRatio="none" x="0px" y="0px" width="550px" height="400px" viewBox="0 0 550 400">
<defs>
<g id="Layer0_0_FILL">
<path fill="#000000" fill-opacity="0.25098039215686274" stroke="none" d="
M -26.55 120.6
L -25.35 117.15
Q -25.35 116.15 -31.65 114.5 -38.3 112.75 -46.1 111.95
L -44.85 112.8 -40.85 114.3
Q -37.65 115.6 -26.55 120.6
M 4.7 128.25
Q 4.7 127.6 6 123.55
L -0.7 124.7 -3.85 124.5 -4.65 123.5
Q -7 121.15 -21.5 117.4
L -22.3 122.75 -21.7 124.55
Q -20.65 126.55 -18.25 127.4 -18.75 126.15 -18.75 125.15 -18.75 124.6 -18.15 123.7
L -17.4 122.9 -1.4 127.5 4.7 128.25
M 17.9 121.55
Q 11.9 121.55 10.2 122.5 8.15 123.7 8.15 128 8.15 130.1 10 133.45 12.25 137.4 15.4 139.1
L 15.55 139.1
Q 15.55 138 14.35 132.4 14.8 129.55 17.35 128.15 19.4 127 22 127
L 30.95 127.55
Q 28.8 124.95 27.25 123.7 24.5 121.55 17.9 121.55
M 47.35 123.25
L 45.4 122.7
Q 40.3 125.35 39.2 125.35
L 33.55 124.3 33.75 125.25
Q 35.65 131.9 38.35 136.9 40.9 141.6 42.2 141.6
L 46.7 141.1 46.8 141.05
Q 45.4 138.45 44.35 135.8
L 43.55 133.55
Q 44.15 129.15 49.8 127.4 56.35 125.4 74.8 124.95
L 76.6 121.05 58.55 123.8 47.35 123.25
M 46.35 94.55
L 42.25 93.15
Q 44.3 103.5 47.7 116.05
L 47.4 119 73.85 119
Q 80.15 118.7 79.2 111.7
L 79.05 111.65 62.5 113.35
Q 49.6 113.35 47.9 99.95
L 46.35 94.55
M 56 71.35
Q 56 69.85 55.2 66.3
L 51.3 59.75 47.8 61.1 50.3 67.25
Q 51.15 69.6 51.15 71.7 51.15 74.35 49.2 76.85 45.7 81.25 42.4 88.8
L 49.55 89.05 60.4 87.05 67 88.7
Q 75.35 88.7 77.05 86.65 77.6 85.95 77.85 84.5 78.15 82.85 78.5 82.15 74.2 81.2 73 81.2 69.7 81.2 65.35 82.65 61 84.05 58.95 84.05
L 53.2 83.4 51.1 82.4 54.55 76.6
Q 56 74.05 56 71.35
M 46.45 36.2
Q 48.65 29.3 48.65 28.4 48.35 28.3 46.85 27.4
L 45.3 26.45 41.6 32.4
Q 39.1 36.5 39.1 38.2 39.1 39.05 40.1 41.75
L 45.85 56.15
Q 47.1 56.15 51.3 54.8 55.5 53.4 56.85 53.4
L 70.1 54.9
Q 72.9 54.9 73.7 53.6 74.1 52.95 74.3 50.35
L 50.4 49.65
Q 46.55 49.35 46.05 44.2 45.95 43 46.45 36.2
M 46.35 -6
L 41.6 -5.6
Q 40.25 -4.85 39.75 -4.75 41.05 2.4 44.15 10.85 46.85 18.1 46.85 19.4
L 46.65 21.75
Q 46.5 23.4 46.7 23.6
L 50.05 23.85 66.2 21.75
Q 69.4 21.65 71.55 20.2 73.9 18.55 74 15.65
L 66.9 17.7
Q 63.95 18.6 59 18.6 52.65 18.6 51.05 15.05 50.4 13.65 49.85 10.4
L 48.6 3.6
Q 48.6 1.45 46.35 -6
M 35.9 -3.1
L 36.5 -4.9
Q 13.1 -0.75 13.1 20.35 13.1 63.45 14.3 72.5 14.6 74.7 15.25 75.75 15.7 76.6 15.8 79.15
L 16.5 93.85
Q 16.5 98.8 14.1 102.2 11.45 106 6.95 106 5.55 106 -22.65 96.85 -50.85 87.7 -57.2 87.7 -59.3 87.7 -61.85 88.6 -71.8 92.05 -89.6 97.45
L -93.9 103.95 -92.85 103.7 -87.5 103 -74.7 102.55
Q -70.45 102.55 -59.7 106.1
L -49.75 109.6 -42.05 108.65
Q -35 108.65 -19.8 114.15 -4.65 119.6 0.5 119.6
L 22.95 118.85
Q 24.4 118.85 30.15 120.25 35.95 121.6 37.65 121.6
L 41.2 121.15
Q 44.4 120.4 44.4 118.75 42.85 113.7 41.25 107.9 38.1 96.25 38.1 90.75 38.1 88.75 39.5 86.75
L 42.55 83.2
Q 46.95 78.15 46.95 72.15 46.95 71.05 45.15 67.3
L 41.15 59.05
Q 35.3 46.45 35.3 38.45 35.3 36.3 36.55 34.4
L 39.3 30.95
Q 43.3 26.05 43.3 19 43.3 14.4 39.45 8.6 35.55 2.8 35.55 -1.4 35.55 -2 35.9 -3.1
M 20.25 6.35
Q 24.05 0.7 31.25 0.7 33.1 2.65 34.8 6 38.25 12.7 38.25 19.95 38.25 25.9 34.2 30.3
L 31.4 33.5
Q 30.15 35.45 30.15 37.8 30.15 43 31.6 46.5 32.35 48.2 34.85 51.85 39.55 58.7 39.55 69.8 39.55 75.35 38.4 78.5 37.75 80.3 33.5 88.4
L 33.9 89 34 89.8
Q 34 90.45 33.6 91.1
L 32.85 92.15
Q 33.5 96.05 33.6 99.25 34.2 102.55 38.4 113.2
L 32.8 112.8 21.1 113.85
Q 15.75 114.65 5.25 116.8
L 3.2 118.05
Q 2.8 118.05 2.45 117.75
L 1.4 116.8
Q -4.65 116.55 -10.7 114.85
L -31.65 107.95
Q -34.1 107.15 -38.05 106.95
L -50.65 105.4
Q -57.25 104.2 -65.4 101.65
L -72.65 99.45 -88.85 101
Q -83.7 97 -75.4 93.85 -67.3 90.75 -62.4 90.75 -50 90.75 -40.15 93.05 -32.65 94.8 -22.5 99.1
L -20 99.3 -19.4 100.2 -1.35 106.9
Q 6.8 109.7 9.6 109.7 15.6 109.7 18.6 104.25 21.5 99.1 21.5 89.35
L 19.05 63.95
Q 16.6 37.8 16.6 21.75 16.6 11.8 20.25 6.35 Z"/>
</g>
</defs>

<g transform="matrix( 1, 0, 0, 1, 0,0) ">
<use xlink:href="#Layer0_0_FILL"/>
</g>
</svg>
