
<svg xmlns="http://www.w3.org/2000/svg" version="1.1" xmlns:xlink="http://www.w3.org/1999/xlink" preserveAspectRatio="none" x="0px" y="0px" width="550px" height="400px" viewBox="0 0 550 400">
<defs>
<g id="Layer0_0_FILL">
<path fill="#6633FF" stroke="none" d="
M -1.35 96.4
Q -2.2 95.75 -4.35 95.3
L -8.25 94.6 -8.9 94.75
Q -10.95 95.4 -11.55 96.5
L -1.5 100.05
Q -0.7 97.75 -1.35 96.4
M -99.7 100.05
L -100.15 101.85 -98.55 105.95 -98.4 105.1 -98.1 101.3
Q -97.95 98.75 -96.6 97.75 -98.8 98.3 -99.7 100.05
M -95.6 94.8
L -95.4 96.25 -89 90.6
Q -92.6 89.4 -94.45 91.9 -95.4 93.2 -95.6 94.8
M -82.95 84.15
Q -83.9 84.15 -85 85 -86.15 85.9 -86.15 86.9
L -86.1 88.75 -80.4 86.3
Q -80 84.15 -82.95 84.15
M -12.65 95.95
Q -12.65 94 -14.15 92.5 -15.3 91.35 -15.95 91.35
L -21 92.1
Q -16.8 94.05 -12.65 95.95
M -34.65 86.6
L -25 90.55 -25 88.45
Q -25.9 87.4 -28.2 87
L -34.65 86.6
M -54.8 82.8
L -55.75 83.2 -57.3 84.6 -51 84.65
Q -51.65 84.2 -53.2 83.45
L -54.8 82.8
M -44.4 84
L -44.35 85.25 -37.25 86.55 -37.75 85.2 -43.85 83.8
Q -44.85 83.8 -44.4 84
M -74.95 84.9
L -73.9 84.65 -70.3 84.3 -72.35 84.15
Q -74.05 84.25 -74.95 84.9
M -63.65 83.05
L -65.05 83.2 -65.1 84.35 -59.85 84.6
Q -60.85 83.75 -62.25 83.3
L -63.65 83.05
M 11.75 94.45
L 3.6 94.7
Q 2.05 94.85 -0.5 100.25
L 3.5 100.85
Q 6.75 100.85 8.8 99.4 11.1 97.75 11.75 94.45
M 9.35 75.5
Q 9.45 77.1 12.5 78.2
L 11.45 69
Q 9.25 74.1 9.35 75.5
M 7.4 88.9
L 7.55 89.05
Q 10.8 90.9 12.3 92.9
L 13.3 86.4 10.55 87.5
Q 7.95 88.5 7.4 88.9
M 13.2 82.5
Q 13.2 81.4 12.45 80.65 11.65 79.9 10.55 79.9 9.45 79.9 8.7 80.65 7.9 81.4 7.9 82.5 7.9 83.6 8.7 84.35 9.45 85.1 10.55 85.1 11.65 85.1 12.45 84.35 13.2 83.6 13.2 82.5
M 8.15 62.3
Q 7.75 62.9 7.75 63.6 7.75 64.6 8.4 65.55 9.15 66.65 10.45 67.3 11.2 67.25 10.15 58.55
L 8.15 62.3
M 6.75 53.45
Q 7.25 55 9.75 55.75
L 8.75 46.45
Q 6.05 51.15 6.75 53.45
M 5.35 37.7
Q 4.85 41.05 8.45 43.15
L 8.55 32.4
Q 5.8 35 5.35 37.7
M 6.95 28.45
Q 7.8 29.95 8.7 30.8
L 9.65 22.1
Q 7.45 23.05 6.65 25.05 6.25 26.1 6.25 27
L 6.95 28.45
M 6 18.4
L 10 20.05 11.15 14.15 8.05 15.75
Q 6.85 16.35 6 18.4
M 13.5 9.4
Q 13.5 7.9 12.8 6.85 12.05 5.8 11 5.8 9.95 5.8 9.25 6.85 8.5 7.9 8.5 9.4 8.5 10.9 9.25 11.95 9.95 13 11 13 12.05 13 12.8 11.95 13.5 10.9 13.5 9.4
M -42.3 102
Q -42.3 101.35 -42.75 100.9 -43.2 100.45 -43.85 100.45 -44.5 100.45 -44.95 100.9 -45.4 101.35 -45.4 102 -45.4 102.65 -44.95 103.1 -44.5 103.55 -43.85 103.55 -43.2 103.55 -42.75 103.1 -42.3 102.65 -42.3 102
M -23.8 101.85
L -24.7 103.2
Q -24.2 103.35 -24.05 103.5
L -19.2 103 -21.15 101.55 -22.15 101.05
Q -23.05 101.05 -23.8 101.85
M -62.7 94.55
L -65.65 94.55 -65.65 97.45 -62.7 97.45 -62.7 94.55
M 4.15 114
Q 3.75 113.55 3.15 113.55 2.55 113.55 2.15 114 1.75 114.4 1.75 115 1.75 115.6 2.15 116.05 2.55 116.45 3.15 116.45 3.75 116.45 4.15 116.05 4.55 115.6 4.55 115 4.55 114.4 4.15 114
M 26.6 106
L 26.25 105.55 25.9 106
Q 25.75 106.45 25.75 107.1 25.75 107.75 25.9 108.2
L 26.25 108.65 26.6 108.2 26.75 107.1 26.6 106
M 30.2 87
Q 29 89.2 29 89.9 29 90.9 29.3 91.6
L 30.9 91.75 32.35 91.45 30.2 87
M 25.2 70.2
Q 24.75 70.2 24.45 70.6 24.15 71 24.15 71.6 24.15 72.2 24.45 72.6 24.75 73 25.2 73 25.65 73 25.95 72.6
L 26.25 71.6 25.95 70.6
Q 25.65 70.2 25.2 70.2
M 34.1 55
Q 33.7 54.25 33.1 54.25 32.5 54.25 32.1 55 31.7 55.7 31.7 56.7 31.7 57.7 32.1 58.45 32.5 59.15 33.1 59.15 33.7 59.15 34.1 58.45 34.5 57.7 34.5 56.7 34.5 55.7 34.1 55
M 21.95 35.7
Q 21.65 36.2 21.65 36.9 21.65 37.6 21.95 38.15
L 22.65 38.65 23.35 38.15 23.65 36.9 23.35 35.7
Q 23.05 35.15 22.65 35.15 22.25 35.15 21.95 35.7
M 33.2 23.85
Q 33 23.85 32.85 24.2 32.7 24.5 32.7 24.95 32.7 25.4 32.85 25.75
L 33.2 26.05 33.55 25.75 33.7 24.95 33.55 24.2 33.2 23.85
M 25.25 7.3
Q 24.95 7.9 24.95 8.55 24.95 9.3 25.2 9.6
L 26.35 9.95 28 9.7 28 9.15 25.7 6.55 25.25 7.3 Z"/>

<path fill="#000000" stroke="none" d="
M 39.9 -7.55
L 18.65 -2.9
Q 17.9 -2.7 17.15 -1.85
L 14.35 3.25
Q 13.55 5 12.05 5.15
L 9.55 5.4
Q 6.85 6.45 6.85 9.95 6.85 11.7 7.4 13.35
L 6 14.4
Q 4.55 15.85 4.55 18.55 4.55 19.55 5.15 20.15 5.6 20.6 7.1 21.25 4.3 23.05 3.55 26.1 3.55 27.85 4.3 29.2 4.95 30.35 6.35 31.55 4 33.85 3 38.85 3 40.25 3.65 41.6 4.75 44.05 7.4 44.65 6.05 46.05 5.05 48.15 4.05 50.25 4.05 51.75 4.05 53.6 4.85 55 6.05 57.05 8.65 57.15 7.15 57.65 6.4 59.6 5.75 61.2 5.75 63.5
L 6.3 65.6
Q 7.2 67.75 9.2 68.6
L 7.8 73.05
Q 7.45 74.1 7.45 74.8
L 8.55 78.8 7.55 80.1
Q 6.55 81.45 6.55 82.15 6.55 85.3 8.5 85.6 7.65 85.5 6.7 86.3 5.55 87.3 5.55 88.75 5.55 90.45 6 91.25
L 7.35 92.4
Q 5.75 91.6 2.55 93.4 -0.35 95 -1.25 96.45
L -1.35 96.4
Q -0.7 97.75 -1.5 100.05
L -11.55 96.5
Q -10.95 95.4 -8.9 94.75
L -8.25 94.6 -10.3 94.15 -12.65 91.8
Q -14.75 89.6 -17.95 89.6
L -22.75 90.6
Q -25.9 85.6 -27.75 84.9
L -35.5 84.6 -40.9 81.7 -46.25 84.35 -54.35 81.55 -58.15 81.9
Q -58.95 82.2 -59.05 83.15 -62.4 81.3 -63.35 81.3
L -64.8 81.85
Q -66.25 82.55 -67 83.5 -69.8 81.45 -72 81.45 -72.6 81.45 -74.4 82.3 -76.85 83.45 -77.6 85 -81.55 83.4 -83 83.4 -86.45 83.4 -88.1 86.35 -89.95 89.6 -93.45 90.3 -94.8 90.55 -98.7 95.6 -102.45 100.45 -102.45 101.3 -102.45 103.45 -101 106.55 -99.45 109.9 -98 109.9 -91.2 109.9 -87.85 107.7 -84.45 105.5 -81.05 105.5 -67.05 105.5 -53.25 111.7 -46.85 114.6 -29.3 125.4 -13.8 134.85 -2.4 139.05 14.6 145.25 34.1 145.25 61.5 145.25 73.95 132.45 83.15 123 83.15 108.2 83.15 106.5 81.5 99.45 79.85 92.45 79.85 90.85 79.85 88.7 81.3 84 82.75 79.3 82.75 77.95 82.75 67.7 79.2 62.05 77.95 60.05 75.25 58.1 76.1 56.6 77.45 50.6 78.7 44.95 78.7 43.45 78.7 37.9 75.9 31.25
L 73.1 24.35 75.65 21.95
Q 78.2 18.9 78.2 15.15 78.2 5.35 72.65 -1.6 66.05 -9.9 53.75 -9.9 50.65 -9.9 39.9 -7.55
M 36.5 -4.9
L 35.9 -3.1
Q 35.55 -2 35.55 -1.4 35.55 2.8 39.45 8.6 43.3 14.4 43.3 19 43.3 26.05 39.3 30.95
L 36.55 34.4
Q 35.3 36.3 35.3 38.45 35.3 46.45 41.15 59.05
L 45.15 67.3
Q 46.95 71.05 46.95 72.15 46.95 78.15 42.55 83.2
L 39.5 86.75
Q 38.1 88.75 38.1 90.75 38.1 96.25 41.25 107.9 42.85 113.7 44.4 118.75 44.4 120.4 41.2 121.15
L 37.65 121.6
Q 35.95 121.6 30.15 120.25 24.4 118.85 22.95 118.85
L 0.5 119.6
Q -4.65 119.6 -19.8 114.15 -35 108.65 -42.05 108.65
L -49.75 109.6 -59.7 106.1
Q -70.45 102.55 -74.7 102.55
L -87.5 103 -92.85 103.7 -93.9 103.95 -89.6 97.45
Q -71.8 92.05 -61.85 88.6 -59.3 87.7 -57.2 87.7 -50.85 87.7 -22.65 96.85 5.55 106 6.95 106 11.45 106 14.1 102.2 16.5 98.8 16.5 93.85
L 15.8 79.15
Q 15.7 76.6 15.25 75.75 14.6 74.7 14.3 72.5 13.1 63.45 13.1 20.35 13.1 -0.75 36.5 -4.9
M 41.6 -5.6
L 46.35 -6 61.9 -5.2
Q 64.3 -4.35 70.6 2.6 72.4 4.85 74 15.65 73.9 18.55 71.55 20.2 69.4 21.65 66.2 21.75
L 50.05 23.85 46.7 23.6
Q 46.5 23.4 46.65 21.75
L 46.85 19.4
Q 46.85 18.1 44.15 10.85 41.05 2.4 39.75 -4.75 40.25 -4.85 41.6 -5.6
M 48.65 28.4
L 54.95 29 57.2 28.75 57.3 27.2
Q 57.3 25.35 69.05 25.35 69.35 25.35 70.3 27
L 73.05 32.65
Q 74.1 34.65 74.85 37.55
L 75.5 40.8 74.25 50.35 74.3 50.35
Q 74.1 52.95 73.7 53.6 72.9 54.9 70.1 54.9
L 56.85 53.4
Q 55.5 53.4 51.3 54.8 47.1 56.15 45.85 56.15
L 40.1 41.75
Q 39.1 39.05 39.1 38.2 39.1 36.5 41.6 32.4
L 45.3 26.45 46.85 27.4
Q 48.35 28.3 48.65 28.4
M 12.8 6.85
Q 13.5 7.9 13.5 9.4 13.5 10.9 12.8 11.95 12.05 13 11 13 9.95 13 9.25 11.95 8.5 10.9 8.5 9.4 8.5 7.9 9.25 6.85 9.95 5.8 11 5.8 12.05 5.8 12.8 6.85
M 10 20.05
L 6 18.4
Q 6.85 16.35 8.05 15.75
L 11.15 14.15 10 20.05
M 8.7 30.8
Q 7.8 29.95 6.95 28.45
L 6.25 27
Q 6.25 26.1 6.65 25.05 7.45 23.05 9.65 22.1
L 8.7 30.8
M 8.45 43.15
Q 4.85 41.05 5.35 37.7 5.8 35 8.55 32.4
L 8.45 43.15
M 9.75 55.75
Q 7.25 55 6.75 53.45 6.05 51.15 8.75 46.45
L 9.75 55.75
M 7.75 63.6
Q 7.75 62.9 8.15 62.3
L 10.15 58.55
Q 11.2 67.25 10.45 67.3 9.15 66.65 8.4 65.55 7.75 64.6 7.75 63.6
M 12.45 80.65
Q 13.2 81.4 13.2 82.5 13.2 83.6 12.45 84.35 11.65 85.1 10.55 85.1 9.45 85.1 8.7 84.35 7.9 83.6 7.9 82.5 7.9 81.4 8.7 80.65 9.45 79.9 10.55 79.9 11.65 79.9 12.45 80.65
M 7.55 89.05
L 7.4 88.9
Q 7.95 88.5 10.55 87.5
L 13.3 86.4 12.3 92.9
Q 10.8 90.9 7.55 89.05
M 12.5 78.2
Q 9.45 77.1 9.35 75.5 9.25 74.1 11.45 69
L 12.5 78.2
M 3.6 94.7
L 11.75 94.45
Q 11.1 97.75 8.8 99.4 6.75 100.85 3.5 100.85
L -0.5 100.25
Q 2.05 94.85 3.6 94.7
M 65.5 59.2
L 70.55 58.1 72.3 59.6
Q 74.2 61.5 75.55 63.75 76.5 65.8 77.8 72.2 79.3 79.65 78.5 82.15 78.15 82.85 77.85 84.5 77.6 85.95 77.05 86.65 75.35 88.7 67 88.7
L 60.4 87.05 49.55 89.05 42.4 88.8
Q 45.7 81.25 49.2 76.85 51.15 74.35 51.15 71.7 51.15 69.6 50.3 67.25
L 47.8 61.1 51.3 59.75
Q 52.5 58.75 54.05 57.75 55.45 56.9 55.7 56.9
L 59.95 58.05
Q 64.05 59.2 65.5 59.2
M 42.25 93.15
L 46.35 94.55 52.1 94.9
Q 54.35 94.9 56.95 92.95 59.55 90.95 61.5 90.95
L 76 92.45 76.85 93.6 78.6 96.6 79.65 101.15 79.9 103.8
Q 79.9 106.15 79.2 111.7 80.15 118.7 73.85 119
L 47.4 119 47.7 116.05
Q 44.3 103.5 42.25 93.15
M 45.4 122.7
L 47.35 123.25 58.55 123.8 76.6 121.05 74.8 124.95 69.85 131.65
Q 68.6 133.3 59.15 137.15 49.9015625 140.987109375 46.8 141.1 46.74921875 141.09921875 46.7 141.1
L 42.2 141.6
Q 40.9 141.6 38.35 136.9 35.65 131.9 33.75 125.25
L 33.55 124.3 39.2 125.35
Q 40.3 125.35 45.4 122.7
M 10.2 122.5
Q 11.9 121.55 17.9 121.55 24.5 121.55 27.25 123.7 28.8 124.95 30.95 127.55 32.8 130.2 35.3 135.95
L 37.6 141.6 37.7 141.8 25.9 141.25
Q 20.7736328125 140.6091796875 15.55 139.15 15.475 139.1212890625 15.4 139.1 12.25 137.4 10 133.45 8.15 130.1 8.15 128 8.15 123.7 10.2 122.5
M 6.85 136.75
Q 5.25 136.75 1.9 135.4
L -18.25 127.4
Q -20.65 126.55 -21.7 124.55
L -22.3 122.75 -21.5 117.4
Q -7 121.15 -4.65 123.5
L -3.85 124.5 -0.7 124.7 6 123.55
Q 4.7 127.6 4.7 128.25
L 4.6 130.05
Q 4.6 132.7 5.45 134.6
L 6.85 136.75
M -65.05 83.2
L -63.65 83.05 -62.25 83.3
Q -60.85 83.75 -59.85 84.6
L -65.1 84.35 -65.05 83.2
M -73.9 84.65
L -74.95 84.9
Q -74.05 84.25 -72.35 84.15
L -70.3 84.3 -73.9 84.65
M -44.35 85.25
L -44.4 84
Q -44.85 83.8 -43.85 83.8
L -37.75 85.2 -37.25 86.55 -44.35 85.25
M -55.75 83.2
L -54.8 82.8 -53.2 83.45
Q -51.65 84.2 -51 84.65
L -57.3 84.6 -55.75 83.2
M -25 90.55
L -34.65 86.6 -28.2 87
Q -25.9 87.4 -25 88.45
L -25 90.55
M -14.15 92.5
Q -12.65 94 -12.65 95.95 -16.8 94.05 -21 92.1
L -15.95 91.35
Q -15.3 91.35 -14.15 92.5
M -85 85
Q -83.9 84.15 -82.95 84.15 -80 84.15 -80.4 86.3
L -86.1 88.75 -86.15 86.9
Q -86.15 85.9 -85 85
M -95.4 96.25
L -95.6 94.8
Q -95.4 93.2 -94.45 91.9 -92.6 89.4 -89 90.6
L -95.4 96.25
M -100.15 101.85
L -99.7 100.05
Q -98.8 98.3 -96.6 97.75 -97.95 98.75 -98.1 101.3
L -98.4 105.1 -98.55 105.95 -100.15 101.85
M -25.35 117.15
L -26.55 120.6 -26.4 123.55
Q -35.6 118.2 -44.85 112.8
L -46.1 111.95
Q -38.3 112.75 -31.65 114.5 -25.35 116.15 -25.35 117.15
M -40.65 101.6
Q -40.65 100.35 -41.5 99.5 -42.4 98.6 -43.65 98.6 -44.9 98.6 -45.75 99.5 -46.65 100.35 -46.65 101.6 -46.65 102.85 -45.75 103.75 -44.9 104.6 -43.65 104.6 -42.4 104.6 -41.5 103.75 -40.65 102.85 -40.65 101.6
M -42.75 100.9
Q -42.3 101.35 -42.3 102 -42.3 102.65 -42.75 103.1 -43.2 103.55 -43.85 103.55 -44.5 103.55 -44.95 103.1 -45.4 102.65 -45.4 102 -45.4 101.35 -44.95 100.9 -44.5 100.45 -43.85 100.45 -43.2 100.45 -42.75 100.9
M -18.55 104.95
Q -17.65 104.25 -17.65 102.8
L -18.15 101.9 -20 99.3 -22.5 99.1 -24.95 100.85
Q -26.2 101.6 -26.2 102.75 -26.2 104.45 -25.25 105.1 -24.35 105.7 -22 105.7 -19.55 105.7 -18.55 104.95
M -24.7 103.2
L -23.8 101.85
Q -23.05 101.05 -22.15 101.05
L -21.15 101.55 -19.2 103 -24.05 103.5
Q -24.2 103.35 -24.7 103.2
M -61.55 93.4
Q -62.65 92.3 -64.15 92.3 -65.65 92.3 -66.7 93.4 -67.8 94.45 -67.8 95.95 -67.8 97.45 -66.7 98.55 -65.65 99.6 -64.15 99.6 -62.65 99.6 -61.55 98.55 -60.5 97.45 -60.5 95.95 -60.5 94.45 -61.55 93.4
M -65.65 94.55
L -62.7 94.55 -62.7 97.45 -65.65 97.45 -65.65 94.55
M 4.75 113.3
Q 4.15 111.8 3.35 111.8 2.55 111.8 2 113.3 1.4 114.75 1.4 116.8
L 2.45 117.75
Q 2.8 118.05 3.2 118.05
L 5.25 116.8
Q 5.3 114.75 4.75 113.3
M 3.15 113.55
Q 3.75 113.55 4.15 114 4.55 114.4 4.55 115 4.55 115.6 4.15 116.05 3.75 116.45 3.15 116.45 2.55 116.45 2.15 116.05 1.75 115.6 1.75 115 1.75 114.4 2.15 114 2.55 113.55 3.15 113.55
M 28.25 104.7
Q 27.45 103.85 26.3 103.85 25.15 103.85 24.35 104.7 23.55 105.5 23.55 106.65 23.55 107.8 24.35 108.65 25.15 109.45 26.3 109.45 27.45 109.45 28.25 108.65 29.05 107.8 29.05 106.65 29.05 105.5 28.25 104.7
M 26.25 105.55
L 26.6 106 26.75 107.1 26.6 108.2 26.25 108.65 25.9 108.2
Q 25.75 107.75 25.75 107.1 25.75 106.45 25.9 106
L 26.25 105.55
M 32.05 85.8
Q 31.4 85 30.45 85 29.4 85 28.2 86.8 27.2 88.3 27.2 88.7 27.2 90.35 28.3 91.9 29.3 93.25 29.95 93.25 32.45 92.55 32.85 92.15
L 33.6 91.1
Q 34 90.45 34 89.8
L 33.9 89 33.5 88.4 32.05 85.8
M 29 89.9
Q 29 89.2 30.2 87
L 32.35 91.45 30.9 91.75 29.3 91.6
Q 29 90.9 29 89.9
M 23.3 69.3
Q 22.4 70.15 22.4 71.35 22.4 72.55 23.3 73.45 24.15 74.3 25.35 74.3 26.55 74.3 27.45 73.45 28.3 72.55 28.3 71.35 28.3 70.15 27.45 69.3 26.55 68.4 25.35 68.4 24.15 68.4 23.3 69.3
M 24.45 70.6
Q 24.75 70.2 25.2 70.2 25.65 70.2 25.95 70.6
L 26.25 71.6 25.95 72.6
Q 25.65 73 25.2 73 24.75 73 24.45 72.6 24.15 72.2 24.15 71.6 24.15 71 24.45 70.6
M 33.05 52.7
Q 31.5 52.7 30.4 53.85 29.25 54.95 29.25 56.5 29.25 58.05 30.4 59.2 31.5 60.3 33.05 60.3 34.6 60.3 35.75 59.2 36.85 58.05 36.85 56.5 36.85 54.95 35.75 53.85 34.6 52.7 33.05 52.7
M 33.1 54.25
Q 33.7 54.25 34.1 55 34.5 55.7 34.5 56.7 34.5 57.7 34.1 58.45 33.7 59.15 33.1 59.15 32.5 59.15 32.1 58.45 31.7 57.7 31.7 56.7 31.7 55.7 32.1 55 32.5 54.25 33.1 54.25
M 25.5 36.9
Q 25.5 35.5 24.75 34.5 23.95 33.5 22.85 33.5 21.75 33.5 21 34.5 20.2 35.5 20.2 36.9 20.2 38.3 21 39.3 21.75 40.3 22.85 40.3 23.95 40.3 24.75 39.3 25.5 38.3 25.5 36.9
M 21.65 36.9
Q 21.65 36.2 21.95 35.7 22.25 35.15 22.65 35.15 23.05 35.15 23.35 35.7
L 23.65 36.9 23.35 38.15 22.65 38.65 21.95 38.15
Q 21.65 37.6 21.65 36.9
M 35.15 23
Q 34.4 22.25 33.35 22.25 32.3 22.25 31.55 23 30.8 23.75 30.8 24.85 30.8 25.95 31.55 26.7 32.3 27.45 33.35 27.45 34.4 27.45 35.15 26.7 35.9 25.95 35.9 24.85 35.9 23.75 35.15 23
M 32.85 24.2
Q 33 23.85 33.2 23.85
L 33.55 24.2 33.7 24.95 33.55 25.75 33.2 26.05 32.85 25.75
Q 32.7 25.4 32.7 24.95 32.7 24.5 32.85 24.2
M 29 5.85
Q 27.95 4.8 26.5 4.8 25.05 4.8 24.05 5.85 23 6.9 23 8.35 23 9.8 24.05 10.85 25.05 11.9 26.5 11.9 27.95 11.9 29 10.85 30 9.8 30 8.35 30 6.9 29 5.85
M 24.95 8.55
Q 24.95 7.9 25.25 7.3
L 25.7 6.55 28 9.15 28 9.7 26.35 9.95 25.2 9.6
Q 24.95 9.3 24.95 8.55 Z"/>
</g>
</defs>

<g transform="matrix( 1, 0, 0, 1, 0,0) ">
<use xlink:href="#Layer0_0_FILL"/>
</g>
</svg>
