
<svg xmlns="http://www.w3.org/2000/svg" version="1.1" xmlns:xlink="http://www.w3.org/1999/xlink" preserveAspectRatio="none" x="0px" y="0px" width="550px" height="400px" viewBox="0 0 550 400">
<defs>
<g id="Layer0_0_FILL">
<path fill="#FFFFFF" fill-opacity="0.10196078431372549" stroke="none" d="
M 4.6 130.05
L 4.7 128.25 -1.4 127.5 -2.5 133.6 1.9 135.4
Q 5.25 136.75 6.85 136.75
L 5.45 134.6
Q 4.6 132.7 4.6 130.05
M 17.35 128.15
Q 14.8 129.55 14.35 132.4
L 16.55 132.5 23.55 131.2
Q 26.15 131.2 28.55 134.15 31.1 137.25 31.35 141.45
L 37.7 141.8 37.6 141.6 35.3 135.95
Q 32.8 130.2 30.95 127.55
L 22 127
Q 19.4 127 17.35 128.15
M 49.8 127.4
Q 44.15 129.15 43.55 133.55 48.35 133.55 54.6 131.65 60.8 129.7 62.9 129.7 66.45 129.7 68.2 130.45 69.05 130.8 69.85 131.65
L 74.8 124.95
Q 56.35 125.4 49.8 127.4
M 52.1 94.9
L 46.35 94.55 47.9 99.95 63.15 98.55 78.6 96.6 76.85 93.6 76 92.45 61.5 90.95
Q 59.55 90.95 56.95 92.95 54.35 94.9 52.1 94.9
M 70.55 58.1
L 65.5 59.2
Q 64.05 59.2 59.95 58.05
L 55.7 56.9
Q 55.45 56.9 54.05 57.75 52.5 58.75 51.3 59.75
L 55.2 66.3 56.55 66.65 58.45 66.8 69.05 66.1
Q 74.2 65.3 75.55 63.75 74.2 61.5 72.3 59.6
L 70.55 58.1
M 48.65 28.4
Q 48.65 29.3 46.45 36.2
L 47.3 36.8 48.45 37.1
Q 55.25 37.1 63.3 35.4 69.8 34.05 73.05 32.65
L 70.3 27
Q 69.35 25.35 69.05 25.35 57.3 25.35 57.3 27.2
L 57.2 28.75 54.95 29 48.65 28.4
M 61.9 -5.2
L 46.35 -6
Q 48.6 1.45 48.6 3.6 48.9 3.35 48.65 2.9 51.85 3.35 56.3 2 61.25 0.5 63.2 0.5
L 70.6 2.6
Q 64.3 -4.35 61.9 -5.2 Z"/>
</g>
</defs>

<g transform="matrix( 1, 0, 0, 1, 0,0) ">
<use xlink:href="#Layer0_0_FILL"/>
</g>
</svg>
