
<svg xmlns="http://www.w3.org/2000/svg" version="1.1" xmlns:xlink="http://www.w3.org/1999/xlink" preserveAspectRatio="none" x="0px" y="0px" width="550px" height="400px" viewBox="0 0 550 400">
<defs>
<g id="Layer0_0_FILL">
<path fill="#562D4B" stroke="none" d="
M 99.2 39.7
Q 98.3 27.8 91.9 19.5 86.5 12.4 78.8 9.75
L 78.45 9.7 78 9.55
Q 72.05 8.7 62.95 4.1 55.25 0.15 51.6 0.6 50.35 0.85 49.5 1.55 48.5 2.3 48.15 3.4 47.1 5.95 46.8 9.05 46.5 11.55 46.65 14.9
L 47 18.7 40.35 16.8 37.95 16.35 35.35 16.3
Q 32.95 16.5 31.6 18.15
L 31.55 18.3 31.4 18.4
Q 29.9 20.6 30.05 24.6
L 31.85 35.3 31.75 35.3 27.7 34.95
Q 25.45 35 23.8 35.65
L 22.9 36.15 22.2 36.85
Q 20 39.25 20.25 43.6 20.35 45.1 21.9 51.85
L 22.8 56.15 21.6 58.05 19.4 60.4 13.1 63.4 4.9 65.8 4.15 66.3
Q 1.7 68.15 1.1 71.1
L 1.2 76.15 1.7 77.8 2.85 79.05
Q 3.7 79.7 5 80.05
L 7.95 80.4 16.8 80.7 29.7 79.9
Q 37.95 78.9 43.4 76.65
L 46.1 75.3 48.2 78.35
Q 48.9 79.25 49.7 79.7 50.55 80.25 51.6 80.25 55.5 80.4 64.4 80
L 77.1 79.5 78.2 79.25 81.5 78.2
Q 85.75 76.2 86.45 71.95 87.2 67.5 83.9 64.15
L 83.75 64.1 84.3 63.6 87.15 60 87.5 59.25 87.95 59.35 89.65 59.25
Q 90.5 59 91.05 58.55
L 93.65 56.8 94.75 55.75 95.4 54.4 99.2 40.5 99.2 39.7 Z"/>
</g>
</defs>

<g transform="matrix( 1, 0, 0, 1, 0,0) ">
<use xlink:href="#Layer0_0_FILL"/>
</g>
</svg>
