
<svg xmlns="http://www.w3.org/2000/svg" version="1.1" xmlns:xlink="http://www.w3.org/1999/xlink" preserveAspectRatio="none" x="0px" y="0px" width="550px" height="400px" viewBox="0 0 550 400">
<defs>
<g id="Layer0_0_FILL">
<path fill="#FFFFB7" stroke="none" d="
M 94.9 40.05
Q 94.05 29.15 88.5 22.1 83.8 15.9 77.45 13.85 70.35 12.8 61.9 8.4 54.45 4.55 52.2 4.9 50.7 8.8 51 14.65
L 52.05 24.35
Q 49.35 23.9 41.7 21.6 35.7 19.9 34.95 20.9 33.8 22.5 35.1 29.3
L 37.25 41.25
Q 34.3 40 31.05 39.55 27.3 38.9 25.4 39.65 23.9 41.35 25.15 46.85
L 27.35 56.9
Q 26.3 58.95 25.05 60.6
L 22 63.95
Q 19 65.75 14.6 67.4
L 6.75 69.65
Q 5.35 70.7 5.2 72.35
L 5.55 75.65 8.95 76.15 16.75 76.35
Q 26.3 76.3 33.8 74.9 43.45 73.05 47.25 69.25
L 51.75 75.9
Q 56.5 76.05 64.4 75.7
L 76.4 75.15 77.85 74.8
Q 81.6 74.25 82.25 71.15 82.75 67.95 79.15 65.9
L 75.6 64.8 72.85 64.35 72 64.4 74.2 62.25 80.9 60.9 83.8 57.25 79.3 55.15 68.7 54.05 76.3 47.1 78.35 49.8
Q 80.1 52.15 82.35 53.35 84.1 54.25 86.45 54.7
L 87.95 55 88.55 55.05 91.2 53.2 94.9 40.05
M 134.8 21.6
Q 133.65 20.05 132.15 19.1 130.45 17.95 128.65 17.55
L 124.65 16.9 120.4 16.75 115.65 17.3 110.25 18.6 109.25 54.5 117.65 55.35 124.15 55.55 129.05 54.95
Q 131.4 54.35 132.85 53.6 134.45 52.75 135.4 51.2 136.2 49.75 136.45 47.55 136.65 45.35 136.05 43.55 135.45 41.75 134.05 40.35 132.85 39.05 131.35 38.1 130 37.25 128.45 37 132.3 36.05 134.4 34.3 136.5 32.4 136.75 29.9 136.9 27.15 136.45 25.2 135.9 23.15 134.8 21.6
M 122.8 25.3
L 124.05 25.75 125.2 26.6 125.85 27.75
Q 126.1 28.4 125.95 29.1
L 125.2 30.3 124 31.2 122.6 31.7 118.75 31.8 118.75 26.3
Q 119.6 25.65 120.25 25.55
L 121.6 25.2 122.8 25.3
M 122.15 41.1
L 123.6 41.4 124.6 42.3 125.35 43.55 125.75 45 125.55 46.4 124.45 47.35 123.05 47.8 121.65 47.95 120.2 47.8 118.55 47.4 118.75 41.3 122.15 41.1
M 163 55.05
L 163.3 28.45 154.9 28.1 154.4 41.45
Q 154.05 43.65 153.1 44.9 151.95 46.05 150.2 46.05 148.4 46.05 147.55 43.7 146.6 41.35 146.75 36.7
L 146.5 28.1 138.6 28.25 139.1 46.8
Q 139.35 50.65 141.2 52.6 143.15 54.55 146.7 54.85
L 152.35 54.3
Q 154.4 53.5 155.15 51.6
L 155.15 55.1 163 55.05
M 174.95 15.5
L 166.4 15.4 165.05 54.9 173.2 55.1 173.75 51.15
Q 174.1 52.35 174.8 53.1
L 176.35 54.35 178.8 54.8 182.55 54.35
Q 184.65 53.8 186.4 52.35 188.1 50.75 189.35 48.35 190.45 46 191.05 43.15 191.45 40.25 191.2 37.6 190.85 34.8 189.45 32.6 187.9 30.4 185.35 28.9 182.65 27.35 180.05 27.3 177.4 27.3 174.75 28.7
L 174.95 15.5
M 177.8 35.55
Q 179.05 35.35 180.25 36 181.25 36.45 182 37.55 182.6 38.55 182.6 39.8 182.6 41.25 182.25 42.15
L 181.25 43.9
Q 180.6 44.55 179.8 44.8
L 178 44.95
Q 176.85 44.65 176.35 44.2 175.6 43.75 175 42.75 174.45 41.75 174.45 40.3 174.45 38.6 174.95 36.6 176.65 35.6 177.8 35.55
M 217.35 32.6
Q 215.8 30.4 213.25 28.9 210.55 27.35 207.95 27.3 205.3 27.3 202.65 28.7
L 202.85 15.5 194.25 15.4 192.95 54.9 201.1 55.1 201.65 51.15
Q 202 52.35 202.7 53.1
L 204.25 54.35 206.7 54.8 210.45 54.35
Q 212.55 53.8 214.3 52.35 216 50.75 217.25 48.35 218.5 45.6 218.9 43.15 219.35 40.4 219.1 37.6 218.75 34.8 217.35 32.6
M 202.85 36.6
Q 204.55 35.6 205.7 35.55 206.95 35.35 208.15 36 209.3 36.6 209.85 37.55 210.5 38.6 210.5 39.8 210.5 41.25 210.15 42.15
L 209.15 43.9
Q 208.5 44.55 207.7 44.8
L 205.9 44.95
Q 204.75 44.65 204.25 44.2 203.5 43.75 202.9 42.75 202.35 41.75 202.35 40.3 202.35 38.6 202.85 36.6
M 221 19.55
Q 220.9 20.6 220.95 22.6
L 221.35 54.8 229.2 54.7 229.55 37.1 229.2 16.2 221 16.3 221 19.55
M 256.8 36
Q 256.4 34.55 255.65 33.25
L 254 30.85
Q 252.9 29.7 251.65 29 250.45 28.15 248.65 27.7
L 245.05 27.25 241.2 27.7
Q 238.9 28.25 237.45 29.25 235.7 30.25 234.35 32 232.85 33.65 232.15 35.65 231.4 37.6 231.35 39.85 231.3 42.3 231.6 44.05 231.85 45.65 232.65 47.4
L 234.2 50.05 236.05 52
Q 237.2 52.9 238.45 53.45 240.1 54.25 241.65 54.7
L 245.25 55.25 249.05 54.85
Q 250.8 54.45 252.95 53.1 254.85 51.85 256.8 49.8
L 251 44.8 247.85 47
Q 246.25 47.65 244.85 47.5 243.4 47.35 242.25 46.65 241.1 45.95 240.2 44.5
L 257.45 43.5 257.35 39.4 256.8 36
M 245.35 35.1
Q 246.65 35.25 247.65 36.25 248.6 37.25 248.8 38.9
L 239.75 38.9
Q 239.8 38.05 240.2 37.2 240.6 36.3 241.2 35.8 241.8 35.15 242.85 35.05
L 245.35 35.1
M 286.95 29.9
Q 287.15 27.6 286.75 25.2 286.2 23.15 285.1 21.6 283.95 20.05 282.45 19.1 280.7 17.95 278.95 17.55
L 274.95 16.9 270.7 16.75 265.95 17.3 260.55 18.6 259.55 54.5 267.95 55.35 274.45 55.55 279.35 54.95 283.15 53.6
Q 284.7 52.8 285.65 51.2 286.4 49.75 286.7 47.55 286.9 45.35 286.3 43.55 285.6 41.6 284.35 40.35
L 281.55 38.1
Q 280.2 37.25 278.75 37 282.6 36.05 284.7 34.3 286.7 32.5 286.95 29.9
M 274.35 25.75
L 275.45 26.6 276.15 27.75
Q 276.4 28.4 276.25 29.1
L 275.5 30.3
Q 274.9 30.85 274.3 31.2 273.7 31.55 272.9 31.7
L 268.95 31.8 268.95 26.3
Q 270 25.6 270.5 25.55
L 271.85 25.2 273.1 25.3 274.35 25.75
M 268.95 41.3
L 272.35 41.1 273.85 41.4
Q 274.35 41.6 274.9 42.3
L 275.65 43.55 275.95 45
Q 276.1 45.75 275.85 46.4
L 274.75 47.35 273.3 47.8 271.9 47.95 270.5 47.8 268.85 47.4 268.95 41.3
M 302.45 28.05
L 299.05 28.2
Q 297.25 28.4 295.65 29.2 294 30.05 292.7 31.5 291.3 33.05 290.5 34.8 289.6 36.6 289.35 38.4 289.1 40.1 289.1 42.1 289.1 44.1 289.35 45.6 289.6 47.1 290.35 48.7 291.1 50.15 292.15 51.45 293.2 52.7 294.65 53.5 295.95 54.25 297.75 54.7
L 301.15 55.1 304.3 55 307.25 54.1 310.05 52.4 312.3 49.85
Q 313.2 48.35 313.75 46.5 314.35 44.55 314.35 42.6 314.4 40.6 314.05 38.2 313.6 36.1 312.75 34.25 311.9 32.35 310.85 31.45 309.35 30.1 308.3 29.6 307 28.75 305.55 28.5
L 302.45 28.05
M 300.85 37
L 303.05 37.1 303.9 37.45 304.75 38.1 305.45 39.05 305.9 40.6 306.05 42.2 305.85 43.65 305.3 44.8 304.5 45.65 303.55 46.3 302.5 46.65 301.35 46.7 300.25 46.45 299.15 46 298.35 45.3 297.75 44.45 297.45 43.4 297.35 42.2 297.45 40.7
Q 297.6 39.75 297.9 39.25 298.15 38.65 298.65 38.1
L 299.7 37.4 300.85 37
M 335 41.75
Q 336.65 40 338.4 37.1 339.95 34.35 341.3 30.4
L 334.1 27.8 328.8 35.15
Q 328.15 34 326.55 32
L 322.6 27.4 316.4 30.55
Q 317.65 34.35 319.3 37 320.8 39.75 322.5 41.35 320.6 43.15 319.15 45.6 317.45 48.05 316 51.5
L 322.3 55.75 328.7 48.8 334.6 55.8 341.15 51.6
Q 339.8 48.65 338.3 46.2
L 335 41.75
M 344.15 47.55
L 343.6 48.8 343.45 50.1 343.6 51.35 344.15 52.6 344.95 53.7 346 54.4 347.25 54.95 348.45 55.1 349.8 54.95 351 54.4 352.05 53.7 352.85 52.6 353.4 51.35 353.6 50.1 353.4 48.8 352.85 47.55 352.05 46.5 351 45.7 349.75 45.15 348.45 45 347.25 45.15
Q 346.8 45.25 346 45.7
L 344.95 46.5 344.15 47.55
M 369.5 35.95
Q 370.35 35.95 371.7 36.5
L 374.5 38 377.85 30.7
Q 375.7 29.05 374.05 28.35 372.4 27.45 370.75 27.3
L 367.5 27.2
Q 365.5 27.4 363.85 27.9 361.75 28.4 360.35 29.55 358.95 30.6 357.7 32.7 356.55 34.65 356.1 36.8 355.6 38.8 355.65 41.4 355.7 43.95 356.35 45.9 357 47.85 358.3 49.55 359.5 51.15 361.1 52.4 362.6 53.55 364.45 54.15
L 367.95 55
Q 369.75 55.2 371.65 55 373.35 54.8 375.1 54.1
L 378.3 52.15 374.45 44.75 371.75 45.9 369.7 46.2 368.1 45.75 366.7 44.6
Q 366 43.8 365.75 42.95 365.4 41.95 365.45 40.8 365.4 39.95 365.7 38.75 365.95 37.75 366.5 37.2 367.15 36.45 367.85 36.3 368.55 35.95 369.5 35.95
M 382.95 31.5
Q 381.45 32.95 380.75 34.8 379.85 36.6 379.6 38.4 379.35 40.1 379.35 42.1 379.35 44.1 379.6 45.6 379.85 47.1 380.6 48.7 381.25 50.05 382.35 51.45 383.35 52.55 384.9 53.5 386.2 54.25 388 54.7
L 391.4 55.1 394.55 55
Q 395.8 54.75 397.5 54.1
L 400.2 52.4 402.55 49.85 404 46.5
Q 404.6 44.55 404.6 42.6 404.65 40.45 404.2 38.2 403.8 36.1 402.95 34.25 402.05 32.35 401 31.45
L 398.55 29.6
Q 397.25 28.75 395.75 28.5
L 392.7 28.05 389.2 28.2
Q 387.35 28.4 385.9 29.2 384.25 30.05 382.95 31.5
M 391.1 37
L 393.2 37.1 394.15 37.45 395 38.1 395.7 39.05 396.15 40.6 396.3 42.2 396 43.65 395.5 44.8 394.75 45.65 393.8 46.3 392.7 46.65 391.55 46.7 390.4 46.45 389.4 46 388.55 45.3 388 44.45 387.7 43.4 387.55 42.2 387.7 40.7
Q 387.75 39.9 388.1 39.25 388.35 38.55 388.9 38.1
L 389.9 37.4 391.1 37
M 424.55 29.85
Q 422.8 28.05 420.1 28 417.2 27.95 415.7 29.85 414.15 31.7 413.9 35.5
L 413.55 28.1 406.65 28.25 406.35 54.85 415.55 55.1
Q 415.6 49.3 415.9 47.05 416.15 44.1 416.75 42.5 417.4 40.95 418.1 40.5 418.9 39.85 420.05 39.85 421.15 39.9 421.75 41.25 422.35 42.5 422.65 45.4
L 422.9 54.85 429.5 54.7
Q 429.35 50.05 429.5 47 429.55 44.15 430.05 42.65 430.55 41.15 431.15 40.65 431.75 39.95 432.85 39.9 433.75 39.9 434.5 40.5 435.2 41.25 435.65 42.6
L 436.25 47.1 436.5 55.1 444.95 54.8
Q 444.6 47.5 444.1 43.45 443.55 38.85 442.7 36.6 441.8 34.15 440.9 32.65 439.75 30.9 438.65 30 437.35 28.9 435.9 28.6
L 432.55 28.3
Q 430.75 28.45 429.3 30.2 427.8 31.85 426.65 35.2 426.2 31.7 424.55 29.85 Z"/>
</g>
</defs>

<g transform="matrix( 1, 0, 0, 1, 0,0) ">
<use xlink:href="#Layer0_0_FILL"/>
</g>
</svg>
