
<svg xmlns="http://www.w3.org/2000/svg" version="1.1" xmlns:xlink="http://www.w3.org/1999/xlink" preserveAspectRatio="none" x="0px" y="0px" width="550px" height="400px" viewBox="0 0 550 400">
<defs>
<g id="Layer0_0_FILL">
<path fill="#FFFFFF" stroke="none" d="
M 4.15 1.5
Q 4.55 1.2 4.25 0.75
L 4.1 0.6
Q 3.95 0.2 3.5 0.05
L 2.85 0
Q 2.4 -0.05 1.75 0.2
L 1.25 0.4
Q 0.85 0.7 0.75 0.9
L 0.05 1.8
Q -0.1 2 0.05 2.3 0.15 2.65 0.4 2.45
L 0.7 2.2 1.05 2.2 1.8 2.05 1.9 2 2.05 2 2.25 1.95 3.6 1.85 4.15 1.5 Z"/>
</g>
</defs>

<g transform="matrix( 1, 0, 0, 1, 0,0) ">
<use xlink:href="#Layer0_0_FILL"/>
</g>
</svg>
