
<svg xmlns="http://www.w3.org/2000/svg" version="1.1" xmlns:xlink="http://www.w3.org/1999/xlink" preserveAspectRatio="none" x="0px" y="0px" width="550px" height="400px" viewBox="0 0 550 400">
<defs>
<g id="Graphics_Symbol_612_0_Layer0_0_FILL">
<path fill="#EEE9D2" stroke="none" d="
M 44.5 78.85
Q 44.5 76.35 43.9 74.65 43.3 72.85 42.35 72.85 41.5 72.85 40.9 74.65 40.3 76.35 40.3 78.85 40.3 81.3 40.9 83.1 41.5 84.85 42.35 84.85 43.3 84.85 43.9 83.1 44.5 81.3 44.5 78.85
M 50.15 79.15
Q 50.15 77 49.65 75.5 49.15 74 48.35 74 47.6 74 47.05 75.5 46.55 77 46.55 79.15 46.55 81.25 47.05 82.8 47.6 84.35 48.35 84.35 49.15 84.35 49.65 82.8 50.15 81.25 50.15 79.15
M 37.95 73.8
Q 37.3 71.85 36.3 71.85 35.35 71.85 34.7 73.8 34.05 75.65 34.05 78.35 34.05 81 34.7 82.95 35.35 84.85 36.3 84.85 37.3 84.85 37.95 82.95 38.6 81 38.6 78.35 38.6 75.65 37.95 73.8
M 22.35 69.1
Q 21.2 69.15 20.4 71.3 19.55 73.45 19.55 76.6 19.55 79.7 20.4 81.9 21.2 84.1 22.4 84.1 23.55 84.1 24.4 81.9 25.2 79.7 25.2 76.6 25.2 73.45 24.4 71.3 23.55 69.15 22.45 69.1
L 22.35 69.1
M 31.6 72.7
Q 30.75 70.7 29.6 70.7 28.4 70.7 27.6 72.7 26.75 74.75 26.75 77.6 26.75 80.45 27.6 82.45 28.4 84.5 29.6 84.5 30.75 84.5 31.6 82.45 32.4 80.45 32.4 77.6 32.4 74.75 31.6 72.7
M 0.05 -8.65
L 0.8 -9
Q -3.1 -8.55 -5.35 -7.55 -7.3 -6.75 -8.6 -6.75
L -9.45 -7 -10.45 -7.2 -9.65 -6.3 -9.35 -5.8 -4.25 -3 6.35 6.55 5.85 4.5
Q 5.05 0.7 4.1 -0.65
L 1.1 -4.95
Q -0.35 -7.2 -0.35 -7.8 -0.35 -8.35 0.05 -8.65
M 36.25 -6.65
L 24.95 -8.55
Q 27.65 -6.15 29.8 2.5 30.9 6.85 31.4 10.8 31.4 11.35 30.9 11.5
L 29.8 11.6
Q 27 6.65 25.85 3.95 22.5 -3.55 22.5 -8.85
L 12.4 -9.35 16.7 -0.8
Q 19.85 6.05 19.85 9.1 19.85 9.55 19.45 9.85 19.05 10.2 18.5 10.2 17.85 10.2 16.95 7.75
L 13.25 -0.6
Q 11 -5.75 11.05 -9.35
L 1.5 -9.05
Q 4.5 -4.8 6.65 0.65
L 9.75 8.8 9.25 9.15
Q 43.85 15.55 51.05 17.6 56.45 19.15 64.45 22.95 63.5 21 63.5 19.9
L 63.8 16.7
Q 64.05 14.2 64.2 13.85
L 62.7 12.4
Q 62.3 13.4 61.25 17.65 60.8 19.3 59.25 19.3
L 58.45 19.2 58.25 19.05 58.25 17.95
Q 58.25 17.4 58.95 15.45 59.75 13.1 61 10.6
L 56.45 5.55
Q 56.45 7 55.35 11.35 54.05 16.5 52.75 18.1
L 52.1 17.55 51.85 17.45 51.65 15.95
Q 54.15 5.05 54.25 3.2
L 50.95 0.35
Q 50.15 0 48.5 -1.1 48.55 0.3 46.5 7 44.5 13.75 43.85 14.2
L 43.15 12.8
Q 42.8 11.8 42.8 10.95 43.15 8.15 43.85 5.2 45.2 -0.6 46.85 -2.05
L 41.7 -4.6 37.55 -6.3
Q 38.2 -3.3 38.7 -2.85
L 38.85 9.35
Q 38.85 10.95 38.55 11.5
L 37.75 12.45
Q 35.45 11.3 35.45 4.35
L 36.25 -6.65 Z"/>
</g>

<g id="Graphics_Symbol_652_0_Layer4_0_FILL">
<path fill="#EEE9D2" stroke="none" d="
M -5.45 -0.35
L -5.35 -0.2 -5 0.2 -1.6 3.25 -0.15 4.15 -5.45 -0.35 Z"/>

<path fill="#000000" stroke="none" d="
M -13.1 -7.3
L -12.05 -4.9
Q -9.25 -3.25 -5.7 -0.35
L -5 0.2 -5.35 -0.2 -5.45 -0.35 -0.15 4.15 4.3 8.05 6.25 9.75 6.4 9.95
Q 8.2 12.15 8.9 13.85 10.5 14.6 11 16.05
L 11.75 20.85
Q 12.25 24.85 13.9 28.45 16.4 33.95 17.25 38.85 18.3 44.5 18.3 54.75 18.3 80.35 15.85 87.15
L 12.5 95.35
Q 9.95 102.3 7.5 113.3 5.65 121.65 -4.6 141.5
L -15.75 162.65
Q -12.5 163.95 -0.5 166.45 15.05 169.65 24.45 169.65
L 57.4 168.45
Q 62.3 167.8 65.95 166.35
L 80.2 163.05
Q 85.55 161.45 85.55 159.25 85.55 158.55 80.4 149.2
L 68.95 128.05
Q 52.3 95.8 52.3 82.2
L 52.9 80.7
Q 53.1 79.95 52.65 80.3 53.65 71.9 54.05 71.8
L 54.35 72.25 55.05 70.2
Q 66.2 25.75 66.2 14.9 66.2 14.5 66.65 14.45 67.05 14.35 67.05 13.9 64 7 55.05 0.35 37.1 -12.85 7.3 -11.8
L 7.3 -11.55 -3.55 -10.6
Q -13.1 -9.4 -13.1 -7.3
M -4.25 -3
L -9.35 -5.8 -9.65 -6.3 -10.45 -7.2 -9.45 -7 -8.6 -6.75
Q -7.3 -6.75 -5.35 -7.55 -3.1 -8.55 0.8 -9
L 1.5 -9.05 11.05 -9.35
Q 11.2 -10.4 11.45 -10.55
L 12.4 -9.35 22.5 -8.85 22.6 -9.35
Q 24.1 -9.05 24.95 -8.55
L 36.25 -6.65
Q 36.3 -7.4 36.6 -7.7 36.8 -8 37.05 -7.8
L 37.45 -7.15 37.55 -6.3 41.7 -4.6 46.85 -2.05 47.9 -2.2 48.5 -2.05 48.5 -1.1
Q 50.15 0 50.95 0.35
L 54.25 3.2
Q 54.35 2.55 54.6 2.25
L 54.95 2.3
Q 55.9 3.05 56.45 5.55
L 61 10.6
Q 61.5 8.65 61.9 8.7 62.25 8.75 62.55 9.55
L 62.75 11.6 62.75 12.45 64.2 13.85
Q 64.05 14.2 63.8 16.7
L 63.5 19.9
Q 63.5 21 64.45 22.95 56.45 19.15 51.05 17.6 43.85 15.55 9.25 9.15
L 6.35 6.55 -4.25 -3
M 43.3 17.85
L 51.25 20.6
Q 57.15 22.7 63.3 24.5 61.1 29.85 57.85 45.25
L 52.4 70.45
Q 42.1 70.35 30.55 68.65
L 20.2 67 20.5 53.2
Q 20.5 44.35 19.1 38.85
L 12.95 13.5
Q 35.25 15.55 43.3 17.85
M 22.45 69.1
L 23.2 69.4 30.2 70.6
Q 42.3 72.45 51.8 72.75
L 50.15 79.75 49.75 82.45 49.75 82.8 50.05 83.35 50.7 85.3
Q 50.45 85 49.35 85
L 37.05 85.9 28.85 84.9 22.6 84.1 22.4 84.1 21.95 84 19 83.7
Q 19.7470703125 83.2517578125 18.85 83.25 19.29765625 83.2419921875 19 82.25 18.65 81.2 19.05 81.2 19.55 81.2 19.7 78.75
L 19.55 76.6
Q 19.55 75.25 19.7 74.1
L 19.75 68.8 21.95 69.2 22.35 69.1 22.45 69.1
M 17.5 86.2
Q 18.3 85.6 18.8 85.6 20.9 85.6 21.55 86.75 22.2 87.95 26.15 88.2
L 33.1 88.3 46.75 87.8
Q 50.65 87.35 50.9 86.25 56.45 108.95 62.55 121.9 66.85 130.95 81.5 158.25 78.35 159.1 73.7 161.05 69.3 162.9 65.8 163.75 54.1 166.6 24 166.6
L 11.35 164.85 -11.55 160.7
Q 6.45 122.9 12.6 106.15 15.85 97.4 17.8 86.85
L 16.8 86.8 17.5 86.2 Z"/>

<path fill="#070707" stroke="none" d="
M 19.7 78.75
Q 19.55 81.2 19.05 81.2 18.65 81.2 19 82.25 19.29765625 83.2419921875 18.85 83.25 19.7470703125 83.2517578125 19 83.7
L 21.95 84
Q 21.05 83.65 20.4 81.9 19.85 80.5 19.7 78.75
M 23.2 69.4
Q 23.85 69.9 24.4 71.3 25.2 73.45 25.2 76.6 25.2 79.7 24.4 81.9 23.6 83.9 22.6 84.1
L 28.85 84.9 37.05 85.9 49.35 85
Q 50.45 85 50.7 85.3
L 50.05 83.35 49.75 82.8 49.75 82.45 49.65 82.8
Q 49.15 84.35 48.35 84.35 47.6 84.35 47.05 82.8 46.55 81.25 46.55 79.15 46.55 77 47.05 75.5 47.6 74 48.35 74 49.15 74 49.65 75.5 50.15 77 50.15 79.15
L 50.15 79.75 51.8 72.75
Q 42.3 72.45 30.2 70.6
L 23.2 69.4
M 27.6 72.7
Q 28.4 70.7 29.6 70.7 30.75 70.7 31.6 72.7 32.4 74.75 32.4 77.6 32.4 80.45 31.6 82.45 30.75 84.5 29.6 84.5 28.4 84.5 27.6 82.45 26.75 80.45 26.75 77.6 26.75 74.75 27.6 72.7
M 36.3 71.85
Q 37.3 71.85 37.95 73.8 38.6 75.65 38.6 78.35 38.6 81 37.95 82.95 37.3 84.85 36.3 84.85 35.35 84.85 34.7 82.95 34.05 81 34.05 78.35 34.05 75.65 34.7 73.8 35.35 71.85 36.3 71.85
M 43.9 74.65
Q 44.5 76.35 44.5 78.85 44.5 81.3 43.9 83.1 43.3 84.85 42.35 84.85 41.5 84.85 40.9 83.1 40.3 81.3 40.3 78.85 40.3 76.35 40.9 74.65 41.5 72.85 42.35 72.85 43.3 72.85 43.9 74.65
M 20.4 71.3
Q 21.05 69.55 21.95 69.2
L 19.75 68.8 19.7 74.1
Q 19.9 72.55 20.4 71.3 Z"/>

<path fill="#C9B45E" stroke="none" d="
M 54.6 2.25
Q 54.35 2.55 54.25 3.2 54.15 5.05 51.65 15.95
L 51.85 17.45 52.1 17.55 52.75 18.1
Q 54.05 16.5 55.35 11.35 56.45 7 56.45 5.55 55.9 3.05 54.95 2.3
L 54.6 2.25
M 62.75 11.6
L 62.55 9.55
Q 62.25 8.75 61.9 8.7 61.5 8.65 61 10.6 59.75 13.1 58.95 15.45 58.25 17.4 58.25 17.95
L 58.25 19.05 58.45 19.2 59.25 19.3
Q 60.8 19.3 61.25 17.65 62.3 13.4 62.7 12.4
L 62.75 12.45 62.75 11.6
M 48.5 -1.1
L 48.5 -2.05 47.9 -2.2 46.85 -2.05
Q 45.2 -0.6 43.85 5.2 43.15 8.15 42.8 10.95 42.8 11.8 43.15 12.8
L 43.85 14.2
Q 44.5 13.75 46.5 7 48.55 0.3 48.5 -1.1
M 24.95 -8.55
Q 24.1 -9.05 22.6 -9.35
L 22.5 -8.85
Q 22.5 -3.55 25.85 3.95 27 6.65 29.8 11.6
L 30.9 11.5
Q 31.4 11.35 31.4 10.8 30.9 6.85 29.8 2.5 27.65 -6.15 24.95 -8.55
M 38.7 -2.85
Q 38.2 -3.3 37.55 -6.3
L 37.45 -7.15 37.05 -7.8
Q 36.8 -8 36.6 -7.7 36.3 -7.4 36.25 -6.65
L 35.45 4.35
Q 35.45 11.3 37.75 12.45
L 38.55 11.5
Q 38.85 10.95 38.85 9.35
L 38.7 -2.85
M 12.4 -9.35
L 11.45 -10.55
Q 11.2 -10.4 11.05 -9.35 11 -5.75 13.25 -0.6
L 16.95 7.75
Q 17.85 10.2 18.5 10.2 19.05 10.2 19.45 9.85 19.85 9.55 19.85 9.1 19.85 6.05 16.7 -0.8
L 12.4 -9.35
M 1.5 -9.05
L 0.8 -9 0.05 -8.65
Q -0.35 -8.35 -0.35 -7.8 -0.35 -7.2 1.1 -4.95
L 4.1 -0.65
Q 5.05 0.7 5.85 4.5
L 6.35 6.55 9.25 9.15 9.75 8.8 6.65 0.65
Q 4.5 -4.8 1.5 -9.05 Z"/>
</g>

<g id="Graphics_Symbol_652_0_Layer3_0_FILL">
<path fill="#070707" stroke="none" d="
M 73.65 143.65
Q 70.7 143.65 68.05 144.55
L 62.1 146.55
Q 51.2 149.5 24.9 149.75
L 3 147.6
Q 1.1 147.4 -4.45 144.95 -7.75 144.95 -9.65 149.85 -10.7 152.3 -11 154.8 -11 156.75 0.05 158.6 13.45 160.95 33.9 160.95 47.7 160.95 57.7 159 68.2 156.95 79.2 151.95 79.2 149.05 77.7 148.25 76.2 147.5 76.2 145.9 76.2 145.45 76.55 145
L 77 144.15 75.5 143.8 73.65 143.65 Z"/>
</g>

<g id="Graphics_Symbol_652_0_Layer2_0_FILL">
<path fill="#000000" stroke="none" d="
M 42.15 77.3
Q 41.5 78.55 41.5 79.3
L 41.95 80.4 42.55 81.75 43 81.6 43.65 76.7 43.55 75.35
Q 42.8 76.05 42.2 77.3
L 42.15 77.3
M 48.5 75.8
Q 48.25 75.9 48 76.7 47.65 77.75 47.65 79.35 47.65 81 48 82.05 48.25 82.85 48.5 82.9
L 48.95 82.05
Q 49.3 81 49.3 79.35 49.3 77.75 48.95 76.7
L 48.5 75.8
M 22.9 79.5
L 23.55 78.75
Q 24 77.8 24 76.5 24 75.2 23.55 74.25 23.25 73.6 22.9 73.5 22.55 73.6 22.25 74.25 21.8 75.2 21.8 76.5 21.8 77.8 22.25 78.75
L 22.9 79.5
M 30.95 77.4
Q 30.95 76.25 30.45 75.45 29.95 74.8 29.35 74.75 28.75 74.8 28.3 75.45 27.7 76.25 27.7 77.4 27.7 78.5 28.3 79.3 28.75 79.95 29.35 80 29.95 79.95 30.45 79.3 30.95 78.5 30.95 77.4
M 36.5 76.15
L 36.5 76.1 36.45 76.1 35 80.1 35.2 81
Q 35.5 81.05 35.8 81.35
L 36.8 79.7 37.1 78.55
Q 37.1 77.4 36.55 76.2
L 36.5 76.15 Z"/>
</g>

<g id="Graphics_Symbol_652_0_Layer1_0_FILL">
<path fill="#000000" fill-opacity="0.25098039215686274" stroke="none" d="
M -0.55 -8.25
Q -2.1 -9.2 -4.3 -9.2 -6.5 -9.2 -8.05 -8.25 -9.6 -7.35 -9.6 -6.05 -9.6 -4.75 -8.05 -3.8 -6.5 -2.9 -4.3 -2.9 -2.1 -2.9 -0.55 -3.8 1 -4.75 1 -6.05 1 -7.35 -0.55 -8.25
M 23.7 109.35
L 24.7 109.35
Q 24 104.8 23.45 103.8
L 23.3 104.7
Q 23 107.7 20.85 114.7
L 16.35 129
Q 10.1 149.65 10.1 162.45 10.1 165.1 10.65 165.3
L 11.5 165.65
Q 14.75 164.15 17.15 154.8 20.5 141.6 23.7 109.35
M 46.15 119.3
L 44.35 112.85 43.2 109.35
Q 42.45 107.25 40.7 103.8
L 40.5 117.05
Q 40.5 135.7 43 149.9 45.95 166.5 51.05 167.3
L 52.7 166.95 52.85 163.5
Q 52.85 156.15 50.3 140.7 48.3 128.6 46.15 119.3
M 52.75 88.35
Q 53.2 86.45 51.8 86.45 50.25 86.45 48.55 89.45 46.85 92.5 47.4 94.75 45.7 93.45 45.1 96.35
L 44.85 97.05 44.75 97.95 47.75 112.3
Q 51.2 128.55 53.85 139.65 56.35 150.2 57.55 154.1 61 164.85 64.25 164.85 65.25 164.85 66.4 164.15 67.75 163.35 67.75 162.2 67.75 157.75 66.15 150.3 64.8 144 63.45 140.3 67.55 148.95 72.3 155 77.45 161.55 80.7 161.55 81.85 161.55 82.65 161 83.7 160.3 83.7 158.75 83.7 155.95 81.3 151.25
L 69.5 129.55
Q 62.5 116.6 57.4 103.4 52.25 90.2 52.75 88.35
M 58.15 127.75
L 57.6 126.4 56.6 123.2 58.15 127.75
M 33.1 94.05
L 31.9 94.05
Q 32.1 96.3 31.2 110.1
L 30.25 124.65 30.9 166.9 36.55 166.3 36.7 167.45 37.5 161.25 38.05 155.5
Q 38.05 151.6 36.15 129.75
L 33.1 94.05
M 16.65 86.75
L 14.5 91.4
Q 13.1 94.7 6.85 114.1 -0.3 134.3 -8.05 148.2
L -12.4 155.55
Q -13.95 158.2 -13.95 159.15 -13.95 162.5 -10.55 162.5 -7.85 162.5 -6.15 160.4 -4.65 158.55 -2.7 153.35 7.25 127.3 10.55 120.1 13.1 114.45 21 99.3 22.7 96.05 22.7 89.8 22.2 86 21.5 84.6 17.75 84.35 16.65 86.75
M 48.35 0.05
L 43.3 13.35 50.15 8.1
Q 53.35 5.75 54.15 4.65 56.1 2.05 48.35 0.05
M 56.55 5.05
L 54.2 10.25
Q 53.2 12.25 53.2 15.8
L 53.3 16.55 53.65 16.65
Q 61.5 15.15 61.5 9.65 61.5 6.8 56.55 5.05
M 62.7 10.95
L 60.85 14.5
Q 58.7 18.2 58.7 18.4
L 59.4 19.9 60.8 22.3
Q 20.6 11.3 13.65 11.3 11.35 11.3 11.35 12.8 11.35 15.75 12.7 19.9
L 15.65 28.45
Q 19.95 41.7 19.95 58
L 19.2 69.65
Q 22.85 69.6 24.5 64.6 26 59.95 26 50.3 26 41.25 23.55 31.45
L 21.05 21.25
Q 21.05 19.9 21.6 19.05
L 23.75 16.45 58.6 24.2
Q 57.75 27.1 53.65 45.3 49.1 65.75 49.1 69.15 49.1 71.25 51 71.25 53 71.25 56.2 61.85 59.15 53.15 61.65 41.1 64.25 28.7 64.7 20.35 65.25 10.95 62.7 10.95
M 24.4 -8.8
L 23.35 -8.1 24.15 -7.25
Q 25.15 -6.6 26.55 -6.9 26.45 1.05 27.5 3.85 27.85 4.85 31.3 9.65
L 31.6 9.45
Q 32 8.55 33.05 0.75 33.75 -4.4 36.55 -4.4 37.5 -4.4 37.95 -3.6 36.6 0.45 36.6 1 37.1 7.65 37.1 12.05
L 39.05 12.1
Q 41.45 10.75 43.6 6.65 45.75 2.55 45.75 -0.9 45.75 -3.5 42.95 -5.1 40.6 -6.5 37.75 -6.5 37.1 -6.5 36.85 -6.15
L 36.55 -5.35
Q 35.5 -7.6 32.2 -8.7
L 29 -9.35 24.4 -8.8
M 2.65 -9.7
L 2.3 -8.95
Q 3.1 -2.25 5.65 2.15 7.7 5.7 11.85 9.05
L 11.9 7.05
Q 11.9 5.9 11.15 3.7
L 7.9 -4.75
Q 13.05 -4.95 13.6 -6.3
L 19.65 9.05
Q 20.35 7.2 20.35 5.45
L 19.9 -3.9
Q 21.35 -4.6 22.3 -6.6 22.3 -9.55 18.7 -9.55
L 16.05 -9.1 13.35 -8.65 12 -9.2 8.95 -9.75 6.6 -9.25
Q 4.45 -8.95 2.65 -9.7 Z"/>
</g>

<g id="Graphics_Symbol_652_0_Layer0_0_FILL">
<path fill="#FFFFFF" fill-opacity="0.5019607843137255" stroke="none" d="
M 44.2 76.6
Q 44.2 75.85 43.65 75.3 43.1 74.75 42.3 74.75 41.5 74.75 40.95 75.3 40.4 75.85 40.4 76.6 40.4 77.35 40.95 77.9 41.5 78.45 42.3 78.45 43.1 78.45 43.65 77.9 44.2 77.35 44.2 76.6
M 49.9 76.4
L 49.45 75.3
Q 48.95 74.8 48.25 74.8 47.55 74.8 47.1 75.3 46.6 75.75 46.6 76.4 46.6 77.05 47.1 77.55 47.55 78 48.25 78 48.95 78 49.45 77.55 49.9 77.05 49.9 76.4
M 48.85 68.05
Q 49.8 68.05 50.5 67.55 51.15 67.05 51.15 66.35 51.15 65.65 50.5 65.15 49.8 64.65 48.85 64.65 47.9 64.65 47.25 65.15 46.55 65.65 46.55 66.35 46.55 67.05 47.25 67.55 47.9 68.05 48.85 68.05
M 42.65 55.9
Q 41.85 56.4 41.85 57.1 41.85 57.8 42.65 58.3 43.45 58.8 44.55 58.8 45.65 58.8 46.45 58.3 47.25 57.8 47.25 57.1 47.25 56.4 46.45 55.9 45.65 55.4 44.55 55.4 43.45 55.4 42.65 55.9
M 37.4 76.8
Q 37.4 76 36.85 75.45 36.3 74.9 35.5 74.9 34.7 74.9 34.15 75.45 33.6 76 33.6 76.8 33.6 77.6 34.15 78.15 34.7 78.7 35.5 78.7 36.3 78.7 36.85 78.15 37.4 77.6 37.4 76.8
M 37.15 66.85
Q 38 67.5 39.25 67.5 40.5 67.5 41.4 66.85 42.25 66.2 42.25 65.25 42.25 64.3 41.4 63.65 40.5 63 39.25 63 38 63 37.15 63.65 36.25 64.3 36.25 65.25 36.25 66.2 37.15 66.85
M 28.65 73
Q 27.75 73 27.1 73.65 26.45 74.25 26.45 75.15 26.45 76.05 27.1 76.7 27.75 77.3 28.65 77.3 29.55 77.3 30.2 76.7 30.85 76.05 30.85 75.15 30.85 74.25 30.2 73.65 29.55 73 28.65 73
M 21.05 71.5
Q 20.35 72.2 20.35 73.15 20.35 74.1 21.05 74.8 21.75 75.5 22.7 75.5 23.65 75.5 24.35 74.8 25.05 74.1 25.05 73.15 25.05 72.2 24.35 71.5 23.65 70.8 22.7 70.8 21.75 70.8 21.05 71.5
M 27.95 61.1
Q 26.7 61.1 25.8 61.7 24.9 62.3 24.9 63.15 24.9 64 25.8 64.6 26.7 65.2 27.95 65.2 29.2 65.2 30.1 64.6 31 64 31 63.15 31 62.3 30.1 61.7 29.2 61.1 27.95 61.1
M 35.85 56.2
Q 36.8 55.55 36.8 54.65 36.8 53.75 35.85 53.15 34.85 52.5 33.5 52.5 32.15 52.5 31.2 53.15 30.2 53.75 30.2 54.65 30.2 55.55 31.2 56.2 32.15 56.8 33.5 56.8 34.85 56.8 35.85 56.2
M 9.6 8.75
Q 9.6 6.9 5.85 0.2 2.05 -6.65 -0.15 -8.4 -1.05 -8.2 -1.05 -6.7 -1.05 -5.6 8.6 9.3
L 9.3 9.4
Q 9.6 9.4 9.6 8.75
M 34.3 21.95
Q 33.5 22.75 33.5 23.9 33.5 25.05 34.3 25.85 35.1 26.65 36.25 26.65 37.4 26.65 38.2 25.85 39 25.05 39 23.9 39 22.75 38.2 21.95 37.4 21.15 36.25 21.15 35.1 21.15 34.3 21.95
M 30.7 12.15
L 31.05 11.55 27.2 2.25
Q 24.35 -4.25 21.4 -8.45 18.65 -4.7 23.4 4.15 25.15 7.3 27.2 9.95 29.1 12.4 29.7 12.4
L 30.7 12.15
M 42.45 48.3
Q 43.05 47.65 43.05 46.75 43.05 45.85 42.45 45.25 41.8 44.6 40.95 44.6 40.1 44.6 39.5 45.25 38.85 45.85 38.85 46.75 38.85 47.65 39.5 48.3 40.1 48.9 40.95 48.9 41.8 48.9 42.45 48.3
M 48.25 46.1
Q 47.45 46.85 47.45 47.95 47.45 49.05 48.25 49.85 49 50.6 50.1 50.6 51.2 50.6 52 49.85 52.75 49.05 52.75 47.95 52.75 46.85 52 46.1 51.2 45.3 50.1 45.3 49 45.3 48.25 46.1
M 42.1 35.6
Q 42.1 34.55 41.35 33.8 40.6 33.05 39.55 33.05 38.5 33.05 37.75 33.8 37 34.55 37 35.6 37 36.65 37.75 37.4 38.5 38.15 39.55 38.15 40.6 38.15 41.35 37.4 42.1 36.65 42.1 35.6
M 48.6 35.3
Q 47 35.3 45.9 35.95 44.75 36.6 44.75 37.55 44.75 38.5 45.9 39.15 47 39.8 48.6 39.8 50.2 39.8 51.35 39.15 52.45 38.5 52.45 37.55 52.45 36.6 51.35 35.95 50.2 35.3 48.6 35.3
M 56.15 30.4
Q 57.05 29.65 57.05 28.6 57.05 27.55 56.15 26.85 55.2 26.1 53.85 26.1 52.5 26.1 51.6 26.85 50.65 27.55 50.65 28.6 50.65 29.65 51.6 30.4 52.5 31.1 53.85 31.1 55.2 31.1 56.15 30.4
M 44.65 23.25
Q 43.5 23.25 42.7 24.05 41.9 24.85 41.9 25.95 41.9 27.05 42.7 27.85 43.5 28.65 44.65 28.65 45.8 28.65 46.6 27.85 47.4 27.05 47.4 25.95 47.4 24.85 46.6 24.05 45.8 23.25 44.65 23.25
M 41.8 5
Q 40.7 9.35 40.7 11.75
L 40.8 12.75 41.05 13.05 41.8 13.6
Q 44.05 9.8 45.6 3.65 46.95 -1.8 46.5 -2.85 43.5 -1.55 41.8 5
M 55.3 2.7
L 55 2.3
Q 53 2.2 51.4 5.55 49.65 9.15 49.1 15.5
L 49.8 16.35 50.2 16.7 52.65 12.1
Q 55.1 6.65 55.3 2.7
M 61.4 9.4
L 61.15 8.9 60.35 8.7
Q 59.9 8.7 58.2 11.3 56.25 14.3 56.45 16.35
L 56.7 17.8 56.95 17.9 57.55 18.4
Q 58.65 17.6 60.1 13.9 61.45 10.5 61.4 9.4
M 35.05 -6.15
L 33.95 -3.95
Q 33.95 -0.5 34.4 3.25 34.95 7.6 35.1 11.85
L 35.25 11.95 35.55 12.75
Q 36.55 12.5 36.9 11.1
L 37.15 7.2 36.95 0.75
Q 36.55 -3.15 35.05 -6.15
M 11.25 -6.7
L 10.35 -6.9 9.3 -6.95 12.95 1
Q 16.25 8.2 18.5 9.55
L 19.1 9.5
Q 19.6 10 19.6 9 19.6 7.85 16.2 1.1 12.6 -5.9 11.25 -6.7 Z"/>
</g>
</defs>

<g transform="matrix( 1, 0, 0, 1, -33.5,-72.6) ">
<g transform="matrix( 1, 0, 0, 1, 0,0) ">
<g transform="matrix( 1, 0, 0, 1, 0,0) ">
<use xlink:href="#Graphics_Symbol_612_0_Layer0_0_FILL"/>
</g>
</g>

<g transform="matrix( 1, 0, 0, 1, 0,0) ">
<g transform="matrix( 1, 0, 0, 1, 0,0) ">
<use xlink:href="#Graphics_Symbol_652_0_Layer4_0_FILL"/>
</g>

<g transform="matrix( 1, 0, 0, 1, 0,0) ">
<use xlink:href="#Graphics_Symbol_652_0_Layer3_0_FILL"/>
</g>

<g transform="matrix( 1, 0, 0, 1, 0,0) ">
<use xlink:href="#Graphics_Symbol_652_0_Layer2_0_FILL"/>
</g>

<g transform="matrix( 1, 0, 0, 1, 0,0) ">
<use xlink:href="#Graphics_Symbol_652_0_Layer1_0_FILL"/>
</g>

<g transform="matrix( 1, 0, 0, 1, 0,0) ">
<use xlink:href="#Graphics_Symbol_652_0_Layer0_0_FILL"/>
</g>
</g>
</g>
</svg>
