
<svg xmlns="http://www.w3.org/2000/svg" version="1.1" xmlns:xlink="http://www.w3.org/1999/xlink" preserveAspectRatio="none" x="0px" y="0px" width="550px" height="400px" viewBox="0 0 550 400">
<defs>
<g id="Layer0_0_FILL">
<path fill="#000000" stroke="none" d="
M 42.5 127.4
Q 60.45 122.55 66.85 104.75 79.7 68.75 75.85 30 74.5 4.95 51.2 -0.15 28.15 -4.8 11.95 12.7 -1.55 27.25 -8.6 46.3 -11.85 55.2 -8.65 63.9 -16.25 101.4 -38.4 132.9
L -42.35 139.1 -40.75 141.4 -32.3 135.45
Q -42.55 149.7 -44.65 167 -28.2 136.15 6.65 133.45 25 132.15 42.5 127.4
M 64.25 12.85
Q 69.95 18.65 71.45 26.8 79.1 69.15 61.65 107.5 54.85 122.5 38.9 126.4 39.95 124.15 41.6 122.45 52.9 111.15 54.7 96.1
L 52.45 101.85
Q 46.2 116.25 35.8 127.95
L 4.3 126.5
Q -15.2 125.5 -27.9 141.05
L -34.6 147.3 -28.15 140.75
Q -16.6 129.05 -3.2 119.95 1.25 116.9 6 114.4
L 3.35 115.4
Q -15.8 121.95 -28.8 137.8
L -30.35 139.85 -29.05 137.35
Q -23.45 130.3 -26 123.9
L -31.8 129.45 -25 116 -23.15 122.55
Q -7.6 118.25 -4.75 101.2
L -5.3 100.25 -4.15 98.15
Q 2.8 96.15 3.15 89.9
L -3.35 96.35 -3.45 96.4 -3.4 96.15
Q -13.65 78.4 3.1 59.1 4.5 57.55 5.45 55.45 -13.75 73.65 -6.55 98.4
L -8.9 102.6
Q -12.95 92.75 -10.6 82.35 -10.8 82.2 -10.9 82.2
L -4.1 61 -7.25 59.35
Q -3.5 50.25 -1 40.85 7.1 10.35 36.1 4.25 52.45 0.8 64.25 12.85
M -12.25 88.85
Q -13.05 88.55 -13.65 89.1
L -11.35 83.1 -12.25 88.85
M -9.9 104.65
L -6 101.6 -6.9 104
Q -7.7 111.1 -13.55 114.8
L -13.9 114.85
Q -20 103.25 -12.7 91.45 -14.25 98.8 -9.9 104.65
M -21.4 120.7
L -22.05 120.3
Q -24.05 108.75 -16.95 98.15 -20.9 108.35 -14.1 116.6 -16.75 120.85 -21.4 120.7
M 8.25 100.7
L 5 100
Q 4.7 99.6 4.7 99.2 4.3 93.15 6.65 87.5 -2.45 98.6 8.95 102.4 19.8 85.5 28 67 17.4 83.45 8.25 100.7
M 34.85 67.1
Q 41.65 62.15 40.55 51.35
L 34.85 67.1
M 48.6 89.7
L 54.2 93.5
Q 47.65 85.85 40.4 92.85 29.65 103.1 16.5 109.8 34.15 102.75 48.6 89.7
M 30.05 68.95
L 33.5 68
Q 29.4 66.75 28.25 62.2
L 28.9 67.5 30.05 68.95 Z"/>

<path fill="#415EA6" stroke="none" d="
M -13.65 89.1
Q -13.05 88.55 -12.25 88.85
L -11.35 83.1 -13.65 89.1 Z"/>
</g>
</defs>

<g transform="matrix( 1, 0, 0, 1, 0,0) ">
<use xlink:href="#Layer0_0_FILL"/>
</g>
</svg>
