
<svg xmlns="http://www.w3.org/2000/svg" version="1.1" xmlns:xlink="http://www.w3.org/1999/xlink" preserveAspectRatio="none" x="0px" y="0px" width="550px" height="400px" viewBox="0 0 550 400">
<defs>
<g id="Layer0_0_FILL">
<path fill="#FFFFFF" fill-opacity="0.25098039215686274" stroke="none" d="
M -10.7 106.45
Q -13.35 112.35 -13.35 116.05
L -7.4 106.5 -3.25 96.7
Q -7.55 99.55 -10.7 106.45
M 14.05 74.15
Q 17.1 69.65 22.3 57.9 28.1 44.85 30.8 35.2
L 14.05 74.15
M 23.3 70.85
Q 18.8 75.3 14.55 83.05 10.7 90 10.1 93.65
L 23.3 70.85
M 40.95 49.2
Q 40.95 48.6 40.55 47.75
L 40.1 47.05 32.55 65.5 37.75 57.35
Q 40.95 51.85 40.95 49.2 Z"/>
</g>
</defs>

<g transform="matrix( 1, 0, 0, 1, 0,0) ">
<use xlink:href="#Layer0_0_FILL"/>
</g>
</svg>
