
<svg xmlns="http://www.w3.org/2000/svg" version="1.1" xmlns:xlink="http://www.w3.org/1999/xlink" preserveAspectRatio="none" x="0px" y="0px" width="550px" height="400px" viewBox="0 0 550 400">
<defs>
<g id="Layer0_0_MEMBER_0_FILL">
<path fill="#00CCFF" stroke="none" d="
M 5 -4.15
Q 5 -4.45 4.75 -4.55 4.5 -4.65 4.3 -4.45
L 3.45 -3.6
Q 2.75 -4.3 1.85 -4.65 0.95 -5 0 -5 -1 -5 -1.95 -4.6 -2.85 -4.2 -3.55 -3.55 -4.2 -2.85 -4.6 -1.95 -5 -1 -5 0 -5 1 -4.6 1.95 -4.2 2.9 -3.55 3.55 -2.85 4.2 -1.95 4.6 -1 5 0 5 1.15 5 2.15 4.55 3.15 4.05 3.85 3.2 3.9 3.15 3.9 3.05 3.9 3 3.85 2.95
L 2.95 2.05
Q 2.9 1.95 2.8 1.95 2.7 2 2.65 2.05 2.15 2.65 1.5 3 0.8 3.35 0 3.35 -0.65 3.35 -1.3 3.1 -1.9 2.8 -2.35 2.35 -2.8 1.9 -3.05 1.3 -3.35 0.7 -3.35 0 -3.35 -0.65 -3.05 -1.3 -2.8 -1.9 -2.35 -2.35 -1.9 -2.8 -1.3 -3.05 -0.65 -3.35 0 -3.35 1.3 -3.35 2.3 -2.45
L 1.4 -1.55
Q 1.2 -1.35 1.3 -1.1 1.4 -0.85 1.7 -0.85
L 4.6 -0.85
Q 4.75 -0.85 4.9 -0.95 5 -1.05 5 -1.25
L 5 -4.15 Z"/>
</g>
</defs>

<g transform="matrix( 1.125, 0, 0, 1.125, 0,-0.15) ">
<use xlink:href="#Layer0_0_MEMBER_0_FILL"/>
</g>
</svg>
