
<svg xmlns="http://www.w3.org/2000/svg" version="1.1" xmlns:xlink="http://www.w3.org/1999/xlink" preserveAspectRatio="none" x="0px" y="0px" width="550px" height="400px" viewBox="0 0 550 400">
<defs>
<linearGradient id="Gradient_1" gradientUnits="userSpaceOnUse" x1="30.6375" y1="39.1875" x2="16.162499999999998" y2="1.6124999999999972" spreadMethod="pad">
<stop  offset="0%" stop-color="#002342"/>

<stop  offset="100%" stop-color="#004C7C"/>
</linearGradient>

<g id="Layer0_0_FILL">
<path fill="url(#Gradient_1)" stroke="none" d="
M 41.1 5.95
L 41.1 5.45 40.65 5.5 38.65 5.5
Q 33.15 5.5 29 4.1 26.15 3.15 20.75 0.15
L 20.5 0 20.3 0.15
Q 14.9 3.15 12.05 4.1 7.95 5.5 2.45 5.5
L 0.45 5.5 0 5.45 0 5.95
Q 0.5 23.7 4.8 33 8.95 41.9 20.25 50.85
L 20.5 51.05 20.8 50.85
Q 32.15 41.9 36.3 33 40.6 23.7 41.1 5.95 Z"/>
</g>
</defs>

<g transform="matrix( 1, 0, 0, 1, 0,0) ">
<use xlink:href="#Layer0_0_FILL"/>
</g>
</svg>
