
<svg xmlns="http://www.w3.org/2000/svg" version="1.1" xmlns:xlink="http://www.w3.org/1999/xlink" preserveAspectRatio="none" x="0px" y="0px" width="550px" height="400px" viewBox="0 0 550 400">
<defs>
<g id="MovieClips_Symbol_228_25_Layer1_0_FILL">
<path fill="#FF0000" stroke="none" d="
M 38.2 9.85
L 36.6 10.85
Q 35.3 11.8 35.3 12.4
L 35.4 12.85 35.75 12.95 37.95 11.55
Q 38.7 11.1 38.7 10.35
L 38.2 9.85
M 31.45 10.65
L 31.95 10.7 33.5 9.65 34.7 8.2 34.6 7.8
Q 33.7 7.75 32.45 8.9 31.35 9.85 31.35 10.1
L 31.45 10.65
M 32 5.65
L 31.85 5.25 31.5 5.1
Q 31.05 5.25 30.15 6.55
L 29.3 7.8 29.4 8.2 29.7 8.4 31.25 7.05
Q 32 6.15 32 5.65
M 31.35 2.75
L 31.05 2.9 30.25 4.35 30.3 4.3
Q 33 2.8 33 1.95
L 32.95 1.45
Q 29.7 1.55 27.4 2.45 26.05 2.9 25.5 3.35 21.15 -0.75 17.3 0.15 15.7 0.45 14.6 1.7 13.65 2.8 13.65 4.05
L 14 5.85
Q 15.1 7.6 18.95 7.6
L 24 6.5 23.5 7
Q 20.45 10.3 20.45 12.45
L 20.45 13.15 20.55 13.25 21 13.3 21.4 13.2 21.55 13
Q 21.8 8.2 26.2 5.95
L 26.9 5.8 27.6 4.3 27.25 4.1 26.5 4.45 26.35 4.3
Q 26.7 3.8 27.6 3.35 29 2.8 31.35 2.75
M 23.85 5.3
L 22.5 5.7
Q 19.75 6.6 18.6 6.6 15.8 6.6 14.95 5.65 14.6 5.15 14.6 4.1 14.6 1.5 17.75 1.05 21.2 0.55 25.05 4.3
L 25.05 4.7 25.15 4.8
Q 25 4.85 24.7 5
L 24.15 4.9 23.85 5.3 Z"/>
</g>
</defs>

<g transform="matrix( 1, 0, 0, 1, -28.15,-10.5) ">
<g transform="matrix( 1, 0, 0, 1, 0,0) ">
<use xlink:href="#MovieClips_Symbol_228_25_Layer1_0_FILL"/>
</g>
</g>
</svg>
