
<svg xmlns="http://www.w3.org/2000/svg" version="1.1" xmlns:xlink="http://www.w3.org/1999/xlink" preserveAspectRatio="none" x="0px" y="0px" width="550px" height="400px" viewBox="0 0 550 400">
<defs>
<g id="Graphics_Symbol_616_0_Layer0_0_FILL">
<path fill="#FFFFFF" stroke="none" d="
M 109.1 120.65
Q 109.1 118.7 108.55 116.4
L 93.65 118 86 119.9
Q 86.95 129.15 44.3 130.9 5.8 132.55 -3.45 133.9 -9.25 134.75 -11.4 136.1 -13.25 137.25 -13.25 139.5 -13.25 142.5 -9.05 144.75 -0.65 149.25 21.75 149.25 77.85 149.25 97.15 139.75 104.7 136.05 107.35 130.5 109.1 126.9 109.1 120.65
M 92.35 71.3
Q 88.9 63.45 84.3 50.55
L 77 30
Q 68.95 8.05 64.3 8.05 61.45 8.6 58.7 10 53.25 12.85 53.25 17.35 53.25 20.35 57.5 24.65
L 66.85 33.7
Q 80.4 48.1 80.4 67.6
L 80.3 74.35
Q 84.55 72.05 85.75 71.8
L 92.35 71.3 Z"/>
</g>

<g id="Graphics_Symbol_719_0_Layer2_0_FILL">
<path fill="#999999" stroke="none" d="
M 80 120.1
Q 77.65 121.65 49.45 125.25 17.55 129.35 -1.7 128.8
L -10.15 129.6
Q -16.2 131.45 -17 132.3 -18.25 133.6 -18.25 139.6 -18.25 142.55 -17.85 143.85 -16.95 146.75 -13.8 148.85 -4.9 154.75 22.15 154.75 77.05 154.75 99.7 145 114.25 138.75 114.25 129.05 114.25 122.1 113.4 118.95 112.05 114 111.8 112.1 111.8 113.9 110.85 115.15 109.9 116.4 108.55 116.4 109.1 118.7 109.1 120.65 109.1 126.9 107.35 130.5 104.7 136.05 97.15 139.75 77.85 149.25 21.75 149.25 -0.65 149.25 -9.05 144.75 -13.25 142.5 -13.25 139.5 -13.25 137.25 -11.4 136.1 -9.25 134.75 -3.45 133.9 5.8 132.55 44.3 130.9 86.95 129.15 86 119.9
L 80 120.1
M 100.55 71.6
Q 98.4 67.25 93.85 53.85 88.4 37.65 85.6 30.75 74.2 2.15 62.75 2.15 58.35 3.4 57 4.05 52.15 7.25 50.45 8.9
L 46.75 13
Q 44.75 15.5 44.75 16.35
L 49.4 21.2
Q 55.3 26.95 59.65 32.65 74.65 52.4 75.35 75.9
L 77.55 75.65
Q 78.95 75.3 80.3 74.35
L 80.4 67.6
Q 80.4 48.1 66.85 33.7
L 57.5 24.65
Q 53.25 20.35 53.25 17.35 53.25 12.85 58.7 10 61.45 8.6 64.3 8.05 68.95 8.05 77 30
L 84.3 50.55
Q 88.9 63.45 92.35 71.3
L 100.55 71.6 Z"/>

<path fill="#D2C170" stroke="none" d="
M 100.55 71.6
L 92.35 71.3 85.75 71.8
Q 84.55 72.05 80.3 74.35 78.95 75.3 77.55 75.65
L 75.35 75.9
Q 73.65 75.9 72.45 78.35 71.25 80.75 71.25 84.2 71.45 86.3 73.8 99.8 76.25 114.2 76.85 115.8
L 78.3 117.9 80 120.1 86 119.9 93.65 118 108.55 116.4
Q 109.9 116.4 110.85 115.15 111.8 113.9 111.8 112.1
L 110.85 102.05
Q 109.75 93.6 107.3 88.25
L 107.15 87.85 105.05 79.95
Q 102.7 72.3 100.55 71.6
M 92.35 79.3
L 99.6 78.75
Q 99.35 81.1 102.5 89.35 105.8 98.1 105.8 102.95
L 105.7 107.35 96 108.7
Q 91.75 109.3 85 111.25
L 80.95 83.15 92.35 79.3 Z"/>

<path fill="#000000" stroke="none" d="
M 99.6 78.75
L 92.35 79.3 80.95 83.15 85 111.25
Q 91.75 109.3 96 108.7
L 105.7 107.35 105.8 102.95
Q 105.8 98.1 102.5 89.35 99.35 81.1 99.6 78.75
M 31.75 -0.45
Q 28.45 -1.35 23.95 -1.35 5.85 -1.35 -2.6 25.85 -9.25 47.2 -9.25 82.05
L -8.65 95
Q -8.05 108.9 -8.05 114.2 -8.05 116.1 -9.15 119.7 -10.25 123.3 -10.25 125.25
L -10.15 129.6 -1.7 128.8 -3.25 114.9 8.95 118.55 43.85 118.65 56.75 117.15 70.7 115.6 72.25 116.4
Q 74.1 116.9 76.85 115.8 76.25 114.2 73.8 99.8 71.45 86.3 71.25 84.2
L 65.1 85.25 58.7 86.9
Q 48.3 89 25.7 89 15.3 89 11.05 87.85 6.85 86.7 1.35 86.7 0.45 86.7 -1.9 85.6 -4.4 84.45 -4.4 83.75 -4.4 63.4 -1.95 47.1 -0.2 35.55 2 29.9 5 22.1 9.9 15.5 18.1 4.25 27.1 4.25 29.35 4.25 31.25 3.5 33.15 2.7 35.35 2.7 40.1 2.7 45.1 5.05 49.45 7.1 50.45 8.9 52.15 7.25 57 4.05 53.6 1.85 49.7 0.4 45.1 -1.3 41.3 -1.3 38.8 -1.3 38.5 -0.6
L 38.6 0.45 31.75 -0.45 Z"/>
</g>

<g id="Graphics_Symbol_719_0_Layer1_0_FILL">
<path fill="#000000" fill-opacity="0.14901960784313725" stroke="none" d="
M 88.6 41.75
L 83 25.55
Q 75.85 7.4 64.15 5.8 58.35 5 44.7 1.25 33.6 -1.8 26.3 -1.8 19.75 -1.8 15.35 2.95 12.7 5.8 10.65 10.8
L 7.35 14.95 2.9 20.3
Q 0.7 23.4 -0.35 29.5
L 0.9 31
Q -0.8 31.7 -3.1 42.5
L -5.1 53.25 -4.55 55
Q -4 56.2 -4 56.7
L -5.5 62.5
Q -7.15 68.65 -7.7 76.5 -8.15 82.85 -8.25 91.6
L -8.5 101.1
Q -10.1 117.6 -12 129.35 -13.75 140 -14.8 141.45 -15.75 141.45 -16.7 140.15
L -17.05 141.15 -17.25 142.85
Q -17.25 147.4 -6.2 150.05 6.1 153 30.15 153 73.05 153 92.55 148.05 114.2 142.55 114.2 129.45 114.2 119.6 106.85 92.7 99.65 66.55 94.85 57.4 92 51.9 88.6 41.75
M 91.1 79.7
L 92.5 88.2
Q 93.45 92.55 96.65 100.25 99.35 106.8 100.85 114.5 101.9 120.1 101.9 123 101.9 135.65 78.2 140.45 58.05 144.55 9.9 144.55
L -9.75 144.3 -4.55 123.75
Q -3.8 128.65 -2.85 130.3 -1.9 132 0.2 132 7.7 132 13.45 128.15 19.35 124.2 26.5 124
L 70.3 122.1
Q 80.7 121.3 82.25 120.2
L 81.25 120.05 80.55 118.9
Q 79.6 117.35 76.85 115.8 74.1 114.25 69.45 114.35
L 61.9 114.65 48.8 114.2 32.95 115.15
Q 26.7 116.1 19.05 118.65 19.4 118.3 19.4 117.3 19.4 115.25 16.05 114.25 13.35 113.45 8.9 113.45 7.1 113.45 6.45 114.3 5.8 115.05 5.8 116.95
L 5.7 118.45
Q 4.9 116 2 110.85
L 1.65 110.4 0.25 113.5
Q -0.6 114.55 -3.75 114.7
L -3.05 106.4 -3.85 95.35 9.2 98.75 14.45 99.85
Q 16.35 99.85 16.8 98.9 17.1 98.35 17.1 95.95 17.1 91.85 53.35 92.75 58.05 89.15 65 87.3 70.95 85.75 72 84.15 71.3 84.15 71.6 83.95
L 71.75 83.65 70.9 83.05 69.45 82.8 61 83.65 49.5 84.45
Q 41.5 84.45 28.2 82 15.25 79.65 14.25 78.2 10.65 73.6 8.9 70.4 6 65.1 7.15 61.2
L 6.85 61.7
Q 6.7 62.05 6.7 61.05 6.7 40.5 15.45 26.2 23.95 12.35 35.45 12.35 40.15 12.35 44.75 16.35
L 53.45 6.4
Q 55 9.6 57.85 13.4 60.4 16.7 61.35 17.35
L 62.4 15.8 63.4 14.2 63.25 14.1 63.8 14
Q 65.9 14 71.5 27.9
L 78.85 47.1 85.4 63.85
Q 90.8 77.95 91.1 79.7
M 73.75 25.1
L 76.6 29.35 74.95 27.7
Q 73.95 26.55 73.75 25.1
M -2.7 86.5
Q -2.7 87.15 -3.05 87.7
L -3.85 88.65
Q -3.6 83.25 -3.15 83.9 -2.7 85.25 -2.7 86.5 Z"/>
</g>

<g id="Graphics_Symbol_719_0_Layer0_0_FILL">
<path fill="#FFFFFF" fill-opacity="0.23921568627450981" stroke="none" d="
M 93.95 80.85
L 87.4 81.7
Q 81 82.7 81 83.6 81 89.35 83.05 92.1 85.65 95.6 92 95.6 94.75 95.6 98.2 92.05 102 88.15 102 83.85 102 82.45 99.9 81.65 97.8 80.85 93.95 80.85
M 70.6 89.45
L 68.75 89
Q 14.35 89 5.95 90.15 0.6 90.9 -0.4 92.8 -0.75 93.4 -0.75 97.75 -0.75 100.85 10.6 102.15
L 38.5 103.25
Q 55.75 103.25 63.25 101.7 72.9 99.7 73.75 94.3 73.75 92.45 73.2 90.9 72.5 90.1 70.6 89.45 Z"/>

<path fill="#FFFFFF" stroke="none" d="
M 94.7 74.15
L 94.5 74.15
Q 72.75 76.25 72.75 78.6 72.75 79.1 73.25 79.3 73.7 79.5 73.7 80
L 72.9 81.6 72.1 83.35 73.2 90.9
Q 73.75 92.45 73.75 94.3 75.05 103.7 76.4 109.5 78.15 117 79.7 117 80.4 117 80.6 116.6
L 80.75 115.8
Q 80.75 114.05 78 103.85 75.25 93.65 75.25 87.65
L 75.45 80.05 87.4 78.15
Q 94.75 76.85 94.75 74.8
L 94.7 74.15 Z"/>
</g>

<g id="MovieClips_Symbol_585_33_Layer0_0_FILL">
<path fill="#C20000" stroke="none" d="
M 72.25 116.4
L 70.7 115.6 43.85 118.65 8.95 118.55 -3.25 114.9 -1.7 128.8
Q 17.55 129.35 49.45 125.25 77.65 121.65 80 120.1
L 76.85 115.8
Q 74.1 116.9 72.25 116.4
M 50.45 8.9
Q 49.45 7.1 45.1 5.05 40.1 2.7 35.35 2.7 33.15 2.7 31.25 3.5 29.35 4.25 27.1 4.25 18.1 4.25 9.9 15.5 5 22.1 2 29.9 -0.2 35.55 -1.95 47.1 -4.4 63.4 -4.4 83.75 -4.4 84.45 -1.9 85.6 0.45 86.7 1.35 86.7 6.85 86.7 11.05 87.85 15.3 89 25.7 89 48.3 89 58.7 86.9
L 65.1 85.25 71.25 84.2
Q 71.25 80.75 72.45 78.35 73.65 75.9 75.35 75.9 74.65 52.4 59.65 32.65 55.3 26.95 49.4 21.2
L 44.75 16.35
Q 44.75 15.5 46.75 13
L 50.45 8.9 Z"/>
</g>
</defs>

<g transform="matrix( 1, 0, 0, 1, -33.5,-72.6) ">
<g transform="matrix( 1, 0, 0, 1, 0,0) ">
<g transform="matrix( 1, 0, 0, 1, 0,0) ">
<use xlink:href="#Graphics_Symbol_616_0_Layer0_0_FILL"/>
</g>
</g>

<g transform="matrix( 1, 0, 0, 1, 0,0) ">
<g transform="matrix( 1, 0, 0, 1, 0,0) ">
<use xlink:href="#Graphics_Symbol_719_0_Layer2_0_FILL"/>
</g>

<g transform="matrix( 1, 0, 0, 1, 0,0) ">
<use xlink:href="#Graphics_Symbol_719_0_Layer1_0_FILL"/>
</g>

<g transform="matrix( 1, 0, 0, 1, 0,0) ">
<use xlink:href="#Graphics_Symbol_719_0_Layer0_0_FILL"/>
</g>
</g>
</g>

<g transform="matrix( 1, 0, 0, 1, -32.9,-71.25) ">
<g transform="matrix( 1, 0, 0, 1, 0,0) ">
<use xlink:href="#MovieClips_Symbol_585_33_Layer0_0_FILL"/>
</g>
</g>

<g transform="matrix( 1, 0, 0, 1, -33.5,-72.6) ">
<g transform="matrix( 1, 0, 0, 1, 0,0) ">
<g transform="matrix( 1, 0, 0, 1, 0,0) ">
<use xlink:href="#Graphics_Symbol_616_0_Layer0_0_FILL"/>
</g>
</g>
</g>
</svg>
