
<svg xmlns="http://www.w3.org/2000/svg" version="1.1" xmlns:xlink="http://www.w3.org/1999/xlink" preserveAspectRatio="none" x="0px" y="0px" width="550px" height="400px" viewBox="0 0 550 400">
<defs>
<g id="Graphics_Symbol_290_0_Layer2_0_FILL">
<path fill="#000000" stroke="none" d="
M 6.2 -2.6
L 8.85 -13.35
Q 10.15 -18.45 11 -19.5
L 12.65 -11.6
Q 12.85 -9.9 10.25 0.7 7.6 11.3 8.2 16.4 8.35 17.5 11.1 24.7 13.95 32.2 14.6 32.2
L 25.45 34.65 23.25 34.65
Q 21.9 33.95 19.7 34.1
L 15.6 34.55
Q 10.25 34.85 6.75 30.2 4.6 27.35 1.85 24.45
L -4.4 17.75
Q -1.25 15.35 1.45 10.25 0.35 12.1 -2.35 13.7 -6.8 16.35 -6.65 17.65 -6.55 18.65 -5.95 18.3
L 7.8 32.65 11.45 36.6 14.25 36.2 17.05 35.8 20.6 36.25
Q 23.6 36.45 30.8 35.05
L 30.15 34.45
Q 28.85 33.75 23.1 32.8
L 16 31.55
Q 13.65 25.75 11.4 21.6 10.2 19.35 10 17.75 9.35 12 11.75 0.15
L 14.25 -11.4
Q 13.95 -13.7 11.7 -22.2
L 10.75 -22.1
Q 7.3 -15.3 4.85 -7.45 2.05 1.6 2.15 7.45 2.15 8.6 1.7 9.65 4.15 4.75 6.2 -2.6 Z"/>
</g>

<g id="Graphics_Symbol_290_0_Layer1_0_FILL">
<path fill="#000000" fill-opacity="0.3333333333333333" stroke="none" d="
M 2.4 26.35
L 10.7 34.9 11 34.35 11 33.3 3.05 22.3
Q -2.05 15.7 -3.9 15.7 -4.55 15.7 -4.55 16.05
L -4.5 17.15
Q -4.1 19.5 2.4 26.35
M 13.2 -8.05
Q 13.8 -10.9 13.55 -12.1
L 12.15 -11.25
Q 11.65 -6.15 10.1 -0.15 8.8 5 7.3 8.7 9.4 7.5 11 1.15
L 13.2 -8.05
M 10.35 -15.45
L 10.15 -17.85
Q 7.45 -16.15 4.8 -6.1 1.7 5.55 2.2 5.9
L 2.35 11.15 3.2 11.25
Q 3.45 11.25 6.1 1.4
L 10.2 -13.3
Q 9.65 -13.2 9.65 -13.4
L 9.95 -14.15 10.35 -15.45 Z"/>
</g>

<g id="Graphics_Symbol_290_0_Layer0_0_FILL">
<path fill="#FFFFFF" fill-opacity="0.3333333333333333" stroke="none" d="
M 9 33.3
L 9.3 33.65
Q 10.3 34.85 12.6 35.3
L 17.55 35.55 23.15 35.15 28.45 34.55 28.3 34.35
Q 22.2 32.6 12.75 32.6
L 10.65 32.85 9 33.3
M 12.05 -12.65
Q 12.05 -13.65 10.85 -14.95 7.9 -13.5 6.9 -4.55 5.15 11.1 4.45 14.3
L 3.7 13.6 2.85 13.35
Q 1.85 13.35 2.35 13.9
L 2.3 14.95 3.1 17.55 4.55 21.35
Q 8.45 29.9 9.6 29.9
L 10.65 29.7 11 29.45
Q 11 27.7 8.65 23.3 6.25 18.9 6.25 16.4
L 9.15 5
Q 12.05 -6.3 12.05 -12.65 Z"/>
</g>
</defs>

<g transform="matrix( 1, 0, 0, 1, -28.4,-10.7) ">
<g transform="matrix( 1, 0, 0, 1, 0,0) ">
<g transform="matrix( 1, 0, 0, 1, 0,0) ">
<use xlink:href="#Graphics_Symbol_290_0_Layer2_0_FILL"/>
</g>

<g transform="matrix( 1, 0, 0, 1, 0,0) ">
<use xlink:href="#Graphics_Symbol_290_0_Layer1_0_FILL"/>
</g>

<g transform="matrix( 1, 0, 0, 1, 0,0) ">
<use xlink:href="#Graphics_Symbol_290_0_Layer0_0_FILL"/>
</g>
</g>
</g>
</svg>
