
<svg xmlns="http://www.w3.org/2000/svg" version="1.1" xmlns:xlink="http://www.w3.org/1999/xlink" preserveAspectRatio="none" x="0px" y="0px" width="550px" height="400px" viewBox="0 0 550 400">
<defs>
<g id="Graphics_Symbol_604_0_Layer0_0_FILL">
<path fill="#FFFFFF" stroke="none" d="
M 49.85 45
L 49.85 45.1 47.75 44.4 47.05 44.25 47.05 44.15 39.75 43.5
Q 31.75 47.6 29.2 52.05 27.8 54.5 27.55 58.9
L 28 59.4 28 60.55
Q 27.75 61.4 27.75 62.4
L 27.7 65.6
Q 27.85 69.35 28.65 72.45 29.2 74.6 30 76.3
L 30 76.85 30.65 77.5
Q 32.3 80.2 34.75 81.4
L 36.3 82.6 35.4 81.65 36.75 82.1
Q 38.5 83.45 40.55 84.25 42.4 85.8 43.8 85.8 46.85 85.8 49.4 85.05
L 49.4 85
Q 51.75 84.5 53.35 83.25 57.2 80.8 59.5 75.9 62.1 70.5 62.1 65.1
L 62.1 64.9 60.35 66.3
Q 57.45 68.35 55.3 68.35 52.45 68.35 50.45 64.6
L 49 60.8
Q 49 57.45 51.2 55.65 53.2 54 56.05 54.35 58.75 54.65 60.6 56.6 59.9 54.65 58.8 52.8 55.6 47.25 49.85 45 Z"/>
</g>

<g id="Graphics_Symbol_642_0_Layer2_0_FILL">
<path fill="#000000" stroke="none" d="
M 58.4 47.85
Q 54.65 43.8 49.75 42.15
L 49.3 33.9
Q 47.3 12.35 39.6 1.8 32.4 -1.95 26.75 16.35 24.85 22.55 23.5 30.05 22.4 36.15 22.4 38.15 22.4 39.4 23.4 40.2 24.4 40.95 24.4 41.65 24.4 48.75 20.15 66.95 15.85 85.15 15.85 92.35 15.85 96.1 16.7 103.25 17.55 110.25 17.5 114.4 17.4 118.9 23.25 126.4 30.15 135.3 38.15 135.3 46.9 135.3 51 129.6 53.75 125.8 53.75 121.1
L 54.65 107.55
Q 54.65 104.05 53.75 98.1
L 52.1 88.25 52.05 87.6
Q 57.85 85.4 61.35 77.9 64.6 71 64.6 65.05 64.6 54.55 58.4 47.85
M 47.05 44.25
L 47.75 44.4 49.85 45.1 49.85 45
Q 55.6 47.25 58.8 52.8 59.9 54.65 60.6 56.6 58.75 54.65 56.05 54.35 53.2 54 51.2 55.65 49 57.45 49 60.8
L 50.45 64.6
Q 52.45 68.35 55.3 68.35 57.45 68.35 60.35 66.3
L 62.1 64.9 62.1 65.1
Q 62.1 70.5 59.5 75.9 57.2 80.8 53.35 83.25 51.75 84.5 49.4 85
L 49.4 85.05
Q 46.85 85.8 43.8 85.8 42.4 85.8 40.55 84.25 38.5 83.45 36.75 82.1
L 35.4 81.65 36.3 82.6 34.75 81.4
Q 32.3 80.2 30.65 77.5
L 30 76.85 30 76.3
Q 29.2 74.6 28.65 72.45 27.85 69.35 27.7 65.6
L 27.75 62.4
Q 27.75 61.4 28 60.55
L 28 59.4 27.55 58.9
Q 27.8 54.5 29.2 52.05 31.75 47.6 39.75 43.5
L 47.05 44.15 47.05 44.25
M 45.8 28.35
L 46.85 41.4 44.8 41.1
Q 36.75 40.35 31.2 45.25 25 50.7 25 60.85
L 25.05 62.4 25 63.35 25.05 64.15
Q 24.5 64.8 24.5 65.55
L 25.5 72.15
Q 25.95 74.4 26.5 75.85
L 26.5 75.9
Q 26.5 78.4 32.7 83.1 39.85 88.5 46.8 88.5
L 49.65 88.25
Q 50.3 95.65 52.15 107.75 52.15 116.9 50.4 123 46.8 135.55 36.9 132.65 31.55 129.25 27.65 125.85 20.15 119.3 20 113.75 19.9 108.85 19.1 102.7 18.35 97.1 18.35 92.8 18.35 86.15 22.65 68 26.9 49.9 26.9 39
L 25.75 32.25
Q 25.75 30.1 29.5 19.2 33.25 8.4 34.75 6.05 40.5 2.65 43.2 12.2 43.65 13.65 45.8 28.35 Z"/>
</g>

<g id="Graphics_Symbol_642_0_Layer1_0_FILL">
<path fill="#000000" fill-opacity="0.25098039215686274" stroke="none" d="
M 50.75 45
Q 52.55 43.7 49.9 43
L 43 42.4
Q 38 42.4 33.05 46.15 29.4 48.95 27.85 51.7
L 28.35 50.45 31.75 32.65
Q 32.5 27.55 34.85 22.5 36 20 36.1 18.05
L 36 17.75
Q 36 16.15 37.8 15.9 40.75 15.8 41.7 19.85 42.35 22.55 42.25 28.8 42.1 35.85 42.35 37.8 42.85 41.9 45 41.9 46.4 41.9 47.35 40.35 48.4 38.65 48.4 35.65 48.4 27.9 44.2 15.3 40.35 3.8 37.9 3.3 35.45 2.8 31.25 11.6 28.15 17.95 27.6 20.2
L 27.3 20.05 26.3 23.2
Q 25.4 26.5 25.4 29.1 25.4 34.95 24.7 42.7 24 50.4 24 52.65
L 24.4 54.4
Q 24.75 55.65 24.35 57.15
L 19.85 75.4
Q 15.75 92.2 16.85 104.5 17.9 116.75 23.35 125.5 28.5 133.75 40.25 133.75 47.85 133.75 51.4 125.7 54.55 118.5 54.55 104.7 54.55 97.6 52.35 92.2 50.65 88 48.9 87
L 49.9 86.95
Q 56.8 82.5 59.05 79.85 64 74.15 64 65.25 64 60.8 62.9 58.15 62.05 56.2 58.05 50.25
L 58.3 50.3 59.85 50.8
Q 59.45 49.5 57.45 48.3 56.3 47.6 50.75 45
M 24.95 56.35
L 25.25 56.55 25.95 56.85 26.05 57.85 24.95 56.35
M 25.35 60.05
L 26.25 60.1 27.35 69.8
Q 26.85 67 24.25 66.45
L 25.05 62.1 25.35 60.05
M 30.35 64.85
Q 30.35 57.65 34.65 52.55 38.9 47.45 44.95 47.45 51 47.45 55.3 52.55 59.55 57.65 59.55 64.85 59.55 72.05 55.3 77.15 51 82.25 44.95 82.25 38.9 82.25 34.65 77.15 30.35 72.05 30.35 64.85
M 26.1 87.25
Q 28.35 85.55 35.15 91.25 38.75 94.25 44.3 93.8 48.05 94.85 48.05 106.75 48.05 117.55 46.05 122.3 44.05 127.15 39.35 127.15 35.2 127.15 30.8 122.65 23.75 115.4 23.75 100 23.75 88.95 26.1 87.25 Z"/>
</g>

<g id="Graphics_Symbol_642_0_Layer0_0_FILL">
<path fill="#FFFFFF" fill-opacity="0.25098039215686274" stroke="none" d="
M 42.9 111.45
Q 44.1 109.35 42.9 106.35 41.75 103.3 38.95 101.2 35.85 98.9 32.1 98.9 31 98.9 30.7 99.8 30.4 100.6 30.4 103.05 30.4 105 31.9 108.55 34.1 113.75 37.75 113.75 41.55 113.75 42.9 111.45
M 39.75 25.75
L 39.15 25
Q 38.15 25.7 36.45 29.7 34.9 33.2 34.8 34.15
L 35.05 35.05 35 35.25 35.65 35.4 36.5 35.15
Q 37.5 34.95 38.55 35.15 39.6 34 39.75 30.6
L 39.75 25.75 Z"/>

<path fill="#FFFFFF" fill-opacity="0.5019607843137255" stroke="none" d="
M 55.9 58.45
Q 55.9 57.1 54.95 56.15 54 55.2 52.65 55.2 51.3 55.2 50.35 56.15 49.4 57.1 49.4 58.45 49.4 59.8 50.35 60.75 51.3 61.7 52.65 61.7 54 61.7 54.95 60.75 55.9 59.8 55.9 58.45 Z"/>
</g>
</defs>

<g transform="matrix( 1, 0, 0, 1, -33.5,-72.6) ">
<g transform="matrix( 1, 0, 0, 1, 0,0) ">
<g transform="matrix( 1, 0, 0, 1, 0,0) ">
<use xlink:href="#Graphics_Symbol_604_0_Layer0_0_FILL"/>
</g>
</g>

<g transform="matrix( 1, 0, 0, 1, 0,0) ">
<g transform="matrix( 1, 0, 0, 1, 0,0) ">
<use xlink:href="#Graphics_Symbol_642_0_Layer2_0_FILL"/>
</g>

<g transform="matrix( 1, 0, 0, 1, 0,0) ">
<use xlink:href="#Graphics_Symbol_642_0_Layer1_0_FILL"/>
</g>

<g transform="matrix( 1, 0, 0, 1, 0,0) ">
<use xlink:href="#Graphics_Symbol_642_0_Layer0_0_FILL"/>
</g>
</g>
</g>
</svg>
