
<svg xmlns="http://www.w3.org/2000/svg" version="1.1" xmlns:xlink="http://www.w3.org/1999/xlink" preserveAspectRatio="none" x="0px" y="0px" width="550px" height="400px" viewBox="0 0 550 400">
<defs>
<g id="MovieClips_Symbol_585_31_Layer0_0_FILL">
<path fill="#FECE00" stroke="none" d="
M 62.3 39.85
L 60.8 27.75 59.4 29.3
Q 59.3 29.2 59.7 26.85 58.25 30.5 54.1 38.8 50.8 50.25 50.8 78.5
L 51.1 86.45 46.85 84.3
Q 43.05 55.4 36.95 41.4
L 23.2 10.45 22.55 10.7 21.85 11.6 19.85 13.45 19.55 13.55 19.7 13.55
Q 18.15 15.25 14.6 21.75 10.95 28.15 8.95 35.45
L 5.05 49.2
Q 3.35 55.75 2.5 61.45 1.6 67.2 1.2 80.6 0.75 93.85 1.6 107.15
L 3 136.65
Q 4.8 137.05 7.85 138.25 13.5 140.45 18.25 141.2
L 50.4 141.1 51.7 140.85 51.65 140.7 53.6 140.7
Q 54.05 140.65 54.5 140.3
L 54.9 139.95
Q 57.45 139 60.4 137.3
L 62.85 136
Q 63.5 135.35 64 135.25
L 64.25 135.1 64.25 107.8
Q 64 105.2 64.15 82.95 64.35 59.5 63.8 53.8 62.85 42.7 62.3 39.85 Z"/>
</g>
</defs>

<g transform="matrix( 1, 0, 0, 1, -32.9,-71.25) ">
<g transform="matrix( 1, 0, 0, 1, 0,0) ">
<use xlink:href="#MovieClips_Symbol_585_31_Layer0_0_FILL"/>
</g>
</g>
</svg>
