
<svg xmlns="http://www.w3.org/2000/svg" version="1.1" xmlns:xlink="http://www.w3.org/1999/xlink" preserveAspectRatio="none" x="0px" y="0px" width="550px" height="400px" viewBox="0 0 550 400">
<defs>
<g id="Parts_Feet_footMC_44_Layer7_0_FILL">
<path fill="#FFFF00" stroke="none" d="
M 16.95 38.45
L 16.25 38.35 16.25 38.45 16.95 38.45
M 37.35 19.45
L 37.25 19.45 37.35 19.75 37.35 19.45
M 27.8 16.15
L 27.8 15.75
Q 27.6 16.1 27.45 16.15
L 27.8 16.15
M 25.35 19
L 25.35 18.75
Q 21.7 18.75 16.25 18.6
L 16.25 18.95
Q 16.8 19.85 16.55 23.25
L 16.35 23.25
Q 16.7 24.45 16.7 26.65 16.8 29.5 16.35 30.45
L 16.6 30.6 16.6 30.65
Q 16.45 30.85 16.3 31.15 16.4 33.9 16.25 35.5 21.4 35.3 24.8 35.15 24.65 33.25 24.9 29.85 24.55 28.75 24.6 26.65 24.65 24.15 25.15 23.1 25 20.05 25.35 19
M 26.75 7.15
L 25.35 6.55 18.6 6.45
Q 17.2 7.9 14.4 10.3 14.9 11.3 14.9 13.15 14.9 14.4 14.7 15.35 14.4 16.3 14.1 16.5 19.65 16.25 27.35 16.15 26.9 16 26.6 14.6 26.35 13.2 26.35 11.2 26.35 8.55 26.75 7.15
M 25.2 4
Q 25 3.9 24.65 3.6 23.85 2.85 23.35 2.6 22.6 2.1 21.45 1.75
L 21.25 1.75
Q 20.35 1.5 19.2 1.35
L 19.15 1.4 19.25 1.75
Q 19.5 2.5 19.2 2.6 19 2.6 18.85 2.55 18.6 2.75 17.75 2.1 17.2 2.4 17.15 2.35
L 17.45 2.1 17.15 2
Q 16.3 1.75 14.95 2.1
L 14.65 2.1
Q 13.65 2.35 12.85 2.85 12.35 3.2 11.85 3.8
L 12.55 3.75 12.45 3.8 25.2 4
M 50.7 23.1
Q 49.7 23.55 45.55 23.85 41.4 24 35.7 23.85 29.85 23.85 26 23.55 26.35 24.8 26.3 26.65 26.25 28.4 25.95 29.5 33.2 29.5 34.4 29.5 42.95 29.5 47.7 29.95
L 50.45 29.95 50.45 28.75
Q 50.5 25.55 50.7 23.1
M 44.3 8.1
Q 43.7 7.05 43.1 6.5 36.35 6.6 29.35 6.55
L 31.1 7.15
Q 33.25 7.9 34.6 9.25 35.85 10.7 36.4 13 37.2 15.7 37.45 17.95 37.7 16.8 38.2 15.6 38.85 14.1 39.5 13.05 40.2 12.1 40.55 12.25 40.65 11.85 41.85 11.95 43.05 12.1 44.7 12.6 46.3 13 47.35 13.65 46.75 12.9 46.2 11.75 45.05 9.35 44.35 8.1
L 44.3 8.1
M -6.85 28.15
L -6.6 30.1
Q -2.55 29.75 7.05 29.8
L 15.7 29.9
Q 15.4 28.7 15.3 26.65 15.3 24.55 15.55 23.35 10.3 23.85 5.85 24 -3.35 24.45 -7.5 23.75 -7.05 26.2 -6.85 28.15
M -1.05 12.25
L -1.15 12.3
Q -0.75 12.9 -0.95 14.5 -1.05 16.05 -1.65 18.15 -2.2 19.95 -3 21.4 0.2 18.2 6.7 13.2 12.45 8.85 16.35 6.4
L 4.15 6.15
Q 1.6 8 -3.25 10.3 -6.3 11.7 -8.15 12.35
L -7.8 12.25
Q -5.1 11.9 -3.15 11.8 -1.25 11.65 -1.2 11.95 -1.2 12.05 -1.35 12.25
L -1.05 12.25
M 35.65 -2.95
Q 37.55 -3.95 39.65 -4.85 42.5 -6.05 44.7 -6.15 46.65 -6.4 47.7 -5.7
L 48 -7.65
Q 47.7 -8.85 47.1 -9.6
L 46.2 -10.25
Q 44.9 -10.85 43.4 -10.8 41.85 -10.8 39.95 -10.2 38.1 -9.55 36 -8.55 34.5 -7.85 32.75 -6.9 29.7 -5 26.95 -3.35
L 21.45 0.05 21.7 0.05 21.95 0.15
Q 23.3 0.55 24.25 1.35 25.2 2.15 25.4 3.1 25.65 3.85 25.35 4
L 25.9 4
Q 26.4 3.45 28.1 2.1 31.6 -0.75 35.65 -2.95
M 39.85 -3.1
Q 40.25 -2.4 39.75 -1.05 39.3 0.15 38.35 1.35
L 38 1.75
Q 37.15 2.5 36.7 2.85
L 35.9 4.25 39.4 4.35
Q 41 3.95 42.5 4.4
L 42.85 4.25
Q 42.9 3.75 43.75 2.45 45.7 -0.5 46.35 -1.8
L 46.45 -2
Q 47.25 -3.55 47.6 -5.25
L 47.15 -5.25
Q 46.2 -5.35 44.85 -5 43.2 -4.65 40.35 -3.35
L 39.85 -3.1
M 2.1 -3.35
L 2.3 -3.2
Q 4.85 -1.7 7 0.3 9.75 2.75 10.15 3.8
L 10.5 3.8
Q 10.35 2.6 11.5 1.35 12.6 0.25 14.1 -0.15
L 14.35 -0.15 12.35 -1.65
Q 7.75 -4.95 4.8 -6.55
L 4.35 -6.9
Q 2.1 -8.15 0.3 -8.75 -1.85 -9.55 -3.45 -9.8
L -4.4 -9.9
Q -5.75 -9.9 -6.85 -9.5 -7.8 -9.15 -8.8 -8.45 -9.6 -7.45 -9.55 -6 -9.35 -5.35 -9.1 -4.75
L -8.7 -4.05
Q -8.55 -4.55 -7.25 -5 -5.5 -5.7 -3.3 -5.4 -0.65 -4.95 2.1 -3.35
M 0.9 -0.7
Q 0.2 -1.55 0.2 -2 -2.05 -3.15 -3.65 -3.5 -5.15 -3.9 -6.9 -3.9 -8.55 -3.9 -8.6 -3.9 -7.85 -2.75 -7.2 -1.75
L -6.9 -1.35
Q -5.75 0.25 -3.7 2.8
L -2.95 3.95
Q 1.15 3.8 6.1 3.8 4.75 3.1 3.1 1.55
L 2.65 1.15
Q 1.6 0.2 0.9 -0.7 Z"/>
</g>

<g id="Parts_Feet_footMC_44_Layer7_1_FILL">
<path fill="#000000" stroke="none" d="
M 104.4 8.35
Q 104.2 6 103.4 5.2 102.65 2.95 100.35 1.45 98.2 0.15 95.4 0 92.65 -0.05 89.5 0.85 86.45 1.7 82.85 3.4 80.45 4.55 77.6 6.15 73.4 8.5 68.35 11.9 61.7 16.3 58.85 18.4 56.7 18.25 55.15 18.8
L 54.75 18.95 54.7 18.9
Q 53.6 18.3 52.05 18.15 48.95 15.4 47.45 14.2 41.25 9.05 35.4 5.7
L 34.7 5.3
Q 31.25 3.35 27.8 2.15 24.05 0.85 21.05 0.8 17.55 0.65 14.9 1.95 12.45 3.15 11.25 4.95 10.65 5.85 10.55 6.5 10.6 6.55 11.9 5.5 13.6 4.2 15.55 3.55 17.9 2.75 20.9 3.05 23.45 3.3 26.9 4.6 29.8 5.65 33.35 7.7
L 34.05 8.1
Q 38.95 10.9 46.1 16
L 49.25 18.3 48.85 18.4
Q 46.45 18.95 44.7 20.7 42.9 22.7 43.1 24.65
L 42.55 24.65
Q 41.9 22.95 37.6 19.05 34.1 15.8 30.05 13.45
L 29.8 13.25
Q 25.45 10.75 21.2 10.05 17.65 9.55 14.9 10.55 12.85 11.35 12.6 12.15
L 12 11
Q 11.35 9.7 10.8 7.8 10.4 6.55 10.2 6.5 9.75 6.45 9.5 7.9 9.2 9.6 9.9 11.8 10.7 14.45 12.7 17.35
L 13.25 18.1
Q 16.25 22.15 19.7 24.8 7.1 25.05 2.55 25.55 2.25 25.15 2 25.15 1.7 25.15 1.4 25.7 0.1 25.85 0.1 26.1 0.1 26.3 1.1 26.45 0 29.75 0 36.7 0 41.5 0.6 44.9 1.2 48.3 2 48.3 2.4 48.3 2.7 47.6 4.95 48.7 10.4 48.8 9.55 53.1 10.85 63.15
L 11.45 67.1
Q 10.15 71.85 9.8 75.15 9.45 78.5 10.25 78.7 10.28359375 78.73359375 10.35 78.7 9.25 79.007421875 9.25 79.2 9.3 79.9 20.35 79.8 31.35 79.65 47.15 78.8 50 79.5 58.45 80.15 67.2 80.8 78 81.15 99.75 81.8 108 80.8 108.4 81.6 108.75 81.6 109.15 81.6 109.6 80.5 110.15 80.35 110.2 80.15 110.2 80.05 109.8 79.85 111.2 75.25 111.35 64.25 111.45 57.85 110.95 53.1 110.5 48.3 109.65 47.15 115.15 46.75 116.85 46.35
L 116.95 46.35 117.25 46.25
Q 117.9 46 117.9 45.9 117.9 45.8 117.7 45.7 119.1 43.1 119.25 36.05 119.35 31.7 118.8 28.7 118.25 25.65 117.4 25.6 116.8 25.6 116.25 27.35 114.1 26.45 94.85 25.7 95.65 25.45 97.5 23.7 100.65 20.65 102.6 16.95
L 102.8 16.6
Q 104.85 12.35 104.4 8.35
M 101.35 10.25
L 102.1 10.25
Q 101.5 12.9 100.25 15.35
L 100.1 15.7
Q 99.05 17.75 95.95 22.45 94.15 25.35 94.5 25.7
L 94 25.65
Q 91.6 24.8 89 25.45
L 81.9 25.25
Q 84.4 23.85 86.8 21.25
L 87.3 20.65
Q 88.9 18.8 89.55 16.9 90.4 14.85 89.75 13.6
L 90.5 13.25
Q 95.05 11.15 97.75 10.55 99.8 10.15 101.35 10.25
M 102.5 8.3
L 102.25 9.55
Q 100.7 8.45 97.5 8.7 94 9 89.45 10.85 86 12.3 83.1 13.9 76.95 17.2 71.05 21.85 68.35 24.05 67.55 24.9
L 66.75 24.85
Q 67.137109375 24.6486328125 66.85 23.5 66.45 22.05 64.95 20.75 63.4 19.4 61.25 18.8
L 60.9 18.7 60.55 18.65 69.25 13.3
Q 75.55 9.4 78.5 7.7 81.25 6.15 83.65 5 86.95 3.35 89.95 2.4 92.95 1.4 95.4 1.4 97.85 1.35 99.8 2.35 101.8 3.4 103.05 5.15 102.85 5.25 102.75 6.15 102.7 6.7 102.5 8.3
M 84.4 16.35
Q 85.6 15.7 89.05 13.95 88.55 15.25 88 16.15 87.15 17.4 85.65 19.25
L 85.15 19.8
Q 80.85 24.15 80.1 25.2
L 69.6 24.95 72.15 23.5
Q 75 21.85 84.4 16.35
M 96.8 31.45
L 96.85 31.5
Q 98 33.45 99.8 37.25 100.75 39.05 101.7 40.2 100 39.3 97.5 38.55 94.85 37.8 92.95 37.6 91 37.45 90.85 38 90.3 37.8 89.2 39.35 88.15 40.9 87.15 43.35 86.35 45.4 85.95 47.15 85.55 43.55 84.25 39.15 83.35 35.55 81.4 33.3 79.35 31.15 75.85 29.9
L 73 28.95
Q 84.2 29 94.9 28.85 95.85 29.8 96.8 31.45
M 98.95 30.3
L 98.85 30.2
Q 98.75 30 97.95 28.8 113.9 28.5 116.15 27.75 115.25 30.85 115.1 35.95 115 42.6 116.05 45.3 110 44.35 89.8 44.2 91.3 40.35 91.15 38.6 92.5 39.95 96.7 41.15 99.2 41.9 101.1 42.1 103 42.3 103.35 41.85 103.85 42.2 104 42 104.15 41.85 103.45 40.35 102.25 37.8 101.65 36.35 99.85 31.85 98.95 30.3
M 81.5 40.05
L 83.05 44.15 70.05 44.25
Q 70.75 44.05 71.2 41.8 71.65 39.55 71.65 36.4 71.65 33.4 71.15 31
L 74.7 32.6
Q 78.05 34.25 79.05 35.4 80.15 36.6 81.5 40.05
M 87.85 48.1
Q 100.45 47.8 108.7 47.25 107.8 48.6 107.15 54.45 105.75 53.7 99.3 53.45 92.95 53.2 84.4 53.55 79.2 53.7 67.95 54.4 68.35 49.7 67.55 48.35
L 75.05 48.3
Q 80.05 48.3 84.7 48.15 85.4 49.6 85.8 49.55
L 86.05 49.8
Q 86.65 50.05 87.85 48.1
M 106.6 64.2
L 106.6 66.9
Q 104.4 66.2 97.35 65.8 90.5 65.4 81.1 65.4 79.2 65.4 67.65 65.55 68.15 63.8 68.2 61 68.25 58 67.75 56 73.95 56.4 83.15 56.55 92.2 56.75 98.8 56.4 105.5 56.05 107.05 55.3 106.7 59.2 106.6 64.2
M 82.35 68.25
Q 91.15 68.7 97.7 68.65 104.45 68.6 106.6 68 106.75 75.7 107.6 79.35 99.15 77.9 78.15 77.25
L 71.2 77.1
Q 87.1 75.7 87 74.85 86.95 73.85 67.45 74.45 67.8 71.6 67.7 67.3 74.2 67.85 82.35 68.25
M 63.55 22.7
Q 64.35 23.15 65.6 24.25 66.23125 24.7759765625 66.55 24.85
L 45.25 24.65
Q 46.05 23.65 46.85 23.1 48.1 22.3 49.7 21.9
L 50.2 21.8
Q 52.3 21.4 53.7 21.7
L 54.2 21.8 53.75 22.25
Q 53.85 22.35 54.65 22 56.1 22.9 56.3 22.6 56.6 22.75 56.85 22.7 57.4 22.5 57.05 21.35
L 56.85 20.85 56.95 20.8
Q 58.75 21 60.2 21.4
L 60.5 21.45
Q 62.35 22 63.55 22.7
M 47.1 43.05
Q 47.5 44.55 48.15 44.85 39.7 45.25 35.75 45.75
L 39.6 42.8
Q 43.3 39.95 46.85 37.05 46.65 38.55 46.7 39.55 46.7 41.55 47.1 43.05
M 49.3 34.95
Q 53.8 31.15 56 28.8
L 66.7 28.95 68.95 30
Q 68.25 32.25 68.25 36.4 68.25 39.55 68.7 41.8 69.2 44.05 69.85 44.25 57.65 44.4 48.75 44.85 49.35 44.45 49.75 43 50.15 41.45 50.1 39.5 50.1 36.55 49.3 34.95
M 26.75 15.45
Q 26.8 16.15 27.85 17.5 28.9 18.85 30.6 20.4
L 31.3 21.05
Q 34 23.45 36.1 24.65 28.25 24.65 21.7 24.8
L 20.5 23
Q 17.35 19 15.45 16.45
L 14.95 15.75
Q 13.9 14.3 12.7 12.35 12.8 12.4 15.4 12.35 18.2 12.3 20.6 12.95 23.2 13.6 26.75 15.45
M 37.55 24.65
Q 37.3 23.2 33.4 19.6
L 35.8 21.25
Q 39.75 24 41 24.65
L 37.55 24.65
M 4.05 36.7
Q 4.05 30.15 3.05 26.75 8.9 27.45 25.75 28.1 22.2 29.5 19.35 30.85 13.2 33.75 9.1 36.4 5.05 39.05 5.4 39.9
L 5.5 40
Q 4.2 40.4 3.95 40.65
L 4.05 36.7
M 3.25 45.85
Q 3.75 43.65 3.9 41 5.15 41.75 14.35 40.35 20.1 39.45 23.25 38.35 21.35 40.15 19.7 45.5 16.8 44.7 11.8 44.7 6.05 44.8 3.25 45.85
M 14 38.15
L 13.4 38.25
Q 16.35 37.2 21.25 34.95 28.9 31.3 33.05 28.35
L 52.3 28.75
Q 46.1 32.65 37.1 39.55 26.8 47.5 21.65 52.6 22.9 50.3 23.75 47.35 24.85 43.7 25 40.95 25.15 38.2 24.25 37.95 24.55 37.75 24.55 37.6 24.5 37.15 21.4 37.3 18.3 37.5 14 38.15
M 12.45 48.8
Q 16.4 48.7 18.95 48.1 18.2 51.1 18.2 53.2 15.55 53.45 13.95 53.8 13.15 50.4 12.45 48.8
M 34.05 52.8
Q 29.6 52.75 25.75 52.8 28.55 51 33.85 47.15 40.8 48.25 66.85 48.35 66.2 49.6 66.4 55.35 65.6 56.9 65.5 60.95 65.4 64.3 66 66.1 65.65 71.4 65.8 74.55 60.4 74.7 52.25 75.1 52.5 72.45 52.3 68.1
L 52.85 67.3 52.85 67.25 52.8 67.25 52.75 67.2 52.6 67.1 52.35 67
Q 53.1 65.45 53 60.95 52.95 57.45 52.35 55.55
L 52.7 55.55
Q 52.95 52.1 52.65 50.15 52.4 48.3 51.75 48.3 51.15 48.3 50.85 49.85 50.55 51.45 50.8 53.6 42.65 53 34.05 52.8
M 15.55 63.35
Q 15.2 60.25 14.45 56.3 21.05 57.45 35.7 56.75 42.8 56.45 51.15 55.7 50.75 57.55 50.75 61 50.85 64.15 51.35 66.15
L 37.65 65.9
Q 22.4 65.8 15.9 66.4
L 15.55 63.35
M 10.45 78.7
Q 11.3056640625 78.4884765625 12.75 75.55 14.2 72.6 15.8 67.9 24.05 68.85 37.65 68.9
L 41.25 68.95
Q 48.6 68.85 50.75 68.7
L 51.15 68.7
Q 51.1 73.1 51.3 75.15
L 48.05 75.3
Q 34.55 76.1 24 77.05 13.6607421875 77.9990234375 10.45 78.7 Z"/>
</g>

<g id="Parts_Feet_footMC_44_Layer3_0_MEMBER_0_FILL">
<path fill="#000000" fill-opacity="0.3607843137254902" stroke="none" d="
M 58.65 34.1
L 58.35 34.05 58.45 34.25 58.65 34.1
M 12.1 12.65
L 11.6 12.5 11.45 12.85 12.1 12.65
M 14.05 11.8
L 13.7 12.15 12.1 12.65
Q 12.7 12.95 13.1 14.25 13.35 15.3 14.05 15.2 19.6 14.45 21.25 18.5 22.15 20.75 22 26.6
L 25.9 26.6 37.5 25.3 28.8 14.9 16.15 11.15 14.05 11.8
M 24.25 4.5
L 21.75 1.05
Q 16.85 3.6 14.45 6.8 12.95 8.75 11.6 12.5
L 14.05 11.8 16.35 9.25 20.25 9.1 19.65 5.65 22.85 7 22.6 4.95 24.25 4.5
M 100.35 31.6
L 101 32.9
Q 102.1 32.9 103.05 33.8
L 103.15 33.8
Q 103.05 33.3 105 34.4 105.9 35.65 105.5 36.5 105.1 37.3 105 37.35 104.45 37.95 104.05 38.15
L 102.95 38.95
Q 102.25 39.9 101.35 40.45 100.4 41.15 99.2 41.65 98.9 41.8 97.9 41.95 97.2 41.95 96.55 40.4 95.7 40.2 94.85 39.85
L 94.3 39.05 94.15 39.05 93.75 39.3 93.25 39.3 92.6 39.65 92.3 39.85
Q 91.95 39.8 91.8 39.2 90.6 39.2 89.2 39
L 89.05 39
Q 88.05 40.05 87.15 40.55 86.1 41.2 84.8 41.65 84.55 41.9 82.8 41.75 81.65 42.05 80.75 42.1 79.3 42.25 78.05 41.15
L 76.55 41.9
Q 76.4 42.05 75.5 42.2 75.25 42.8 72.4 41.15
L 71.95 40.55 70.7 41.25
Q 70.95 41.85 69.8 41.7 68.55 41.55 66.05 40.55
L 65.4 38.5 61.75 41 60.95 41.4
Q 61.8 42.5 56.85 40.55
L 55.95 38.75 50 43.15 49.15 43.4
Q 49.4 43.25 48.2 42.2 46.85 42.2 44.8 41.75 42.3 38.5 43.2 38.65
L 42.55 38.45 42.5 37.95
Q 39.45 39.2 38.6 39.6
L 36.95 40.3 36.65 40.5
Q 36.7 40.6 35.4 41 34.7 44.35 33.05 46.2 31.3 48.3 28.15 48.85
L 28.15 49.5 27.35 49.5 20.15 55.35 22.05 46.05 23.6 44.85 24.95 37.55 23.15 38
Q 21.7 38.55 20.55 38.55 20.05 38.65 19.2 38.1 18.65 37.65 18.5 37.05 16.85 37.85 15.45 37.9 14.355859375 37.9498046875 14.35 37.65 14.35 37.55 15.7 36.85 17.5 35.9 19.05 34.45
L 21.6 32.2 22.7 32.95 22.9 33.2 23.4 34.1 23.15 34.45
Q 24.45 33.95 26.75 33.3
L 29.75 32.25 30.05 32.05 30.75 31.7 30.9 31.85 31.7 32.95 31.8 33.05 31.85 33.15 31.95 33.45 31.95 33.5 32.1 33.7 32.2 33.8 32.3 34.15 36.85 31.45
Q 38.05 30.75 38.55 30.5 39.2 31.1 41.3 31.9
L 41.55 31.8
Q 45 30.25 46.8 29.6 47.5 29.2 48.8 29 49 28.95 49.8 29 50.1 28.7 51.05 29.5 51.7 29.25 52.85 29.25 54.1 29.25 55.6 30.45
L 55.75 30.7
Q 56.45 30.35 57.45 30.1 57.35 29.7 59.5 30 59.5 29.6 62.25 29.3 63.3 29.85 64.05 30.35 64.8 29.25 65.75 28.15 66.2 27.6 67.5 26.95 68.015625 26.621875 68.8 26.6
L 25.9 26.6 21.95 27.05 22 26.6 2.7 26.6 2.7 46.05 10.6 46.05 12.75 67.25 10.6 78.95 108.85 78.95 108.85 46.05 117.4 46.05 117.4 26.6 69 26.6
Q 70.30625 26.6375 72.05 27.8
L 72.85 29.45
Q 74.15 30.05 74.8 31.25
L 74.95 31.15
Q 77.15 30.35 78.35 30
L 79.7 29.6
Q 80.75 30.4 82.5 31.25
L 82.75 33.1
Q 84.55 32.1 86.3 32 87.45 31.9 89.25 31.85
L 90 31.8 94.75 29
Q 95.55 28.6 95.7 28.55
L 96.65 28.25
Q 97.5 26.8 100.3 31.4
L 100.25 31.55 100.35 31.6
M 102.35 61.3
L 102.35 61.4
Q 102.55 64.75 100.7 68 99.9 68.95 99.1 69.65 98.8 69.95 98.2 70.25 97.7 69.9 95.5 69.5
L 95.45 69.55 95.25 69.65 94.9 69.9
Q 93.55 71.25 92.9 71.75 93 72.05 90.6 72.8 89.25 73.25 86.95 71.75 86.35 70.9 86.25 70.6
L 83.35 72.15 83.25 72.05 82.9 72.25 82.25 71.25
Q 81.15 70.6 80 70.1
L 79.7 69.55 76.65 70.75 73.6 70.5 71.3 71.75 70.7 70.3
Q 69.7 70.6 68.4 70.75 69 71.75 65.55 69.5
L 65.45 69.35 64 70
Q 62.35 71.05 59.7 72.1 57.2 73.1 56.55 73.55
L 54.9 74.6 54.7 74.55
Q 54 74.75 53.55 74.25
L 51.35 73.8 51.2 73.75
Q 51.2 71.9 51.05 71.3
L 49.4 70.35 49.1 69.75 47 70.35
Q 40 72.35 37.3 72.75
L 35.1 73.05
Q 34.65 73.15 33.65 73.1 33.8 75 31.4 71.2
L 22.95 73.85
Q 22.65 72.95 22.5 72.05
L 20.95 71.15 20.9 71 20.9 70.45 20.65 68.8
Q 20.1 68.65 19.1 67.75 18.7 66.1 19.1 66.1 19.6 65.3 19.85 65.15
L 23.35 62.45
Q 21.9 62.65 20.8 62.3 19.55 62.15 19.1 60.65 19.1 59.15 20.1 58.35 20.85 57.65 21.9 57.95
L 22.15 58.1
Q 23.35 57.3 26.1 55.75 26.5 55.55 27.2 55.05 28.1 54.35 28.5 54.1 29.25 53.6 29.9 53.45 30.35 53.35 30.95 53.7 31.5 54.25 31.4 54.6 31.25 55.3 30.95 55.5
L 30.2 56.1
Q 29.15 56.8 28.25 57.25
L 24.9 58.85 24.9 58.95
Q 24.8 59.25 24.6 59.5 29.2 57.8 32.3 55.95
L 35.85 53.45
Q 36.7 53.95 37.4 54.1
L 37.55 54.85
Q 37.75 55.6 38.2 55.65
L 38 55.85 39.3 55.15
Q 41.8 53.55 44.5 52.55
L 45.55 51.75 45.6 51.75 45.85 51.95
Q 46.75 51.35 48.6 51.3
L 48.9 51.25
Q 49.9 51.25 51 52.75 51.35 54.2 51.05 54.5 50.65 55.35 50.3 55.75
L 53.8 54.1 54.45 54.55 54.55 54.6 54.6 54.7 54.35 55 54.4 55.15
Q 56.3 54.8 57.4 54.5 58.35 54.15 58.8 54
L 59.4 53.55
Q 59.4 53.95 61.15 54.35
L 63.75 54.8 64.6 56.85
Q 66.15 55.8 67.6 55
L 68.9 54.4 69.55 54.25
Q 69.7 53.8 71.35 54.95
L 71.5 55.5 77.8 54.2
Q 79.75 53.7 83 53.2
L 85.3 52.7
Q 85.75 52.5 85.85 52.5 85.95 52.5 85.55 52.7
L 87.85 54.25 88.05 54.45 89.65 54.4
Q 90.35 54.35 92.75 54.05
L 92.8 54.05
Q 92.85 53.95 94.25 53.7
L 94.7 53.7
Q 94.25 54.1 95.6 55.55
L 96.05 55.45
Q 96.65 55.2 98.2 55.65 98.95 55.65 99.7 57.25
L 100.9 57.65
Q 102.4 60.15 101.65 59.5
L 101.4 60.75 102.35 61.3
M 100.55 5.7
Q 98.7 3.55 94.25 0.75
L 92 1.45 88 5.1 95.2 3.95 91.75 6.75 96.6 6.35 96.3 8.4 103 9.1
Q 101.65 6.95 100.55 5.7
M 103.2 10.8
L 102.05 9.95 98.45 9.6 92.65 10.3 87.7 13.9 87.7 19 81.35 25.5 94.85 26.35 97.75 20.95
Q 93.15 19.75 95.45 16.85 97 14.8 103.2 10.8 Z"/>
</g>

<g id="Parts_Feet_footMC_44_Layer3_0_MEMBER_1_FILL">
<path fill="#FFFFFF" fill-opacity="0.24705882352941178" stroke="none" d="
M 64.15 63.15
L 63.45 62.25
Q 63.25 61.2 62.45 59.35 60.2 57.9 59.4 58
L 59.25 57.9
Q 58.3 57.35 57.55 57.45 56.85 57.35 55.9 58 54.65 58.85 54.45 60.6 54.7 61.75 55.05 62.5 54.75 63.15 54.55 64 54.15 65.3 56.15 67.45
L 56.4 67.6
Q 56.4 68.6 56.65 69.3 57.6 70.45 58.5 70.3 59.05 70.2 59.4 69.65 60.5 69.75 59.8 69.5
L 59.85 69.45 59.5 69.5
Q 59.65 69.15 59.65 68.45
L 59.65 68.3 60.25 68.2
Q 60.65 69.15 60.4 69.45 60.4 69.7 60.95 69.5
L 61.65 69.05 61.8 69 61.35 68.5 61.85 68.15 61.95 68.75
Q 62.2 68.45 62.4 67.7
L 62.8 67.4
Q 63.05 67.3 63.85 66.1 64.4 66.45 64.15 63.15
M 59.25 61.5
L 59.6 61 60 61.15
Q 59.8 61.6 59.4 61.85 59 61.9 59.25 61.5
M 59.75 60.65
L 60.05 60.15 60.2 60.6 59.75 60.65
M 57.65 62.35
L 57.15 63.1
Q 57.15 62.5 57.4 62.65
L 57.65 62.35
M 57.75 65.1
L 57.7 65.2 57.4 65.65 57.25 65.5
Q 57.5 65.05 57.6 65.15
L 57.75 65.1
M 32.05 58
Q 31.55 57.5 31 57.35
L 29.8 57.2 29.55 57.25
Q 28.3 57.5 27.25 58.1 25.7 59 24.95 59.95 24.25 60.8 24.5 61.35 24.7 62 26.25 62.15 26.25 62.75 26.35 63.15 27.2 65.05 28.45 65.35 30.4 65.75 31.15 65.55
L 31.75 65.55
Q 32.25 65.55 32.6 65.5 32.45 65.7 32.75 65.6
L 33.5 66.95 34.25 66.55 36.5 65.8 36.9 65.05 37.05 65.5 37.75 65.55
Q 38.3 65.55 39.3 65.65
L 39.7 65.4 39.8 65.3
Q 40 65.7 40 65.15
L 40.25 65.05 40.8 64.75 40.75 64.55 41.75 63.7
Q 41.75 63.55 42.5 63.15
L 45.35 61.55
Q 45.5 60.75 46.1 59.65
L 45.2 58.35
Q 44.65 57.5 44.8 57.3
L 44.25 57.35
Q 44 57.35 43.4 57.55
L 40.65 57.85
Q 39.9 57.95 38.6 58.5
L 37.65 59
Q 36.6 57.6 34.55 57.2 32.7 57.4 32.25 57.85
L 32.05 58
M 27.6 59.3
Q 27.6 59.15 27.65 59.2
L 27.7 59.25 27.6 59.3
M 29.15 62.3
L 28.9 62.2
Q 29.55 62.2 29.75 62.35 29.85 62.45 29.15 62.3
M 44.75 60.4
L 44.85 60.4
Q 45 60.4 45 60.75 44.55 61.4 44.25 61.45
L 44.2 61
Q 44.2 60.75 44.4 60.75
L 44.75 60.4
M 39.2 29.95
Q 38.8 29.05 37.2 29.05 34.9 29.05 32.9 31.5 31.2 33.6 31.4 35.85 31.6 37.8 32.9 37.95 33.85 38.1 35.05 37.05 36 36.3 37.2 34.95 38.25 33.7 38.95 32.35 39.65 30.8 39.2 29.95
M 33.1 9.45
Q 31.7 9.45 31 10.3 30.25 11.2 30.85 12.6 31.4 14 33 14.95 34.4 15.75 35.8 15.7 37.2 15.6 37.85 14.75 38.55 13.75 37.95 12.45 37.35 11.1 35.8 10.2 34.5 9.35 33.1 9.45
M 82.7 58.15
L 82.6 58.1
Q 81 57.85 79.8 57.85 78.2 57.85 77.05 58.1 74.8 58.3 73.4 59.9 72.35 61.1 73 62.05 73.3 62.5 74.6 63.2 76.2 64.15 76.85 64.3 79.4 65.25 81.4 65.5
L 81.45 65.55
Q 84.55 66.05 87.05 65.55 89.45 65.2 90.8 63.55 91.8 62.25 91.1 61.35 90.75 60.85 89.45 60.25 88 59.45 87.1 59.25 84.65 58.45 82.7 58.15
M 88.65 29.15
L 88.15 28.75
Q 86.65 27.8 85.2 27.8 84.2 27.85 83.5 28.4 82.85 28.95 82.75 29.6 82.6 30.6 83.4 31.75 84.1 32.65 85.05 33.3
L 85.35 33.45
Q 85.65 33.85 85.9 33.3 86.25 32.65 86.75 33.25 87 33.6 87.5 34.35 88.1 34.95 88.95 34.7 90.25 34.25 90.3 32.2 90.05 30.05 88.65 29.15
M 82.15 6.85
L 81.05 6.9
Q 79.6 7.15 78 8.05
L 77.95 8.1
Q 76.4 9.05 75.55 10.25 73.9 12.5 75.05 13.55 75.5 13.95 76.4 14.1 77.25 14.2 78.15 13.95 79.4 13.65 80.85 12.8
L 80.85 12.75
Q 82.2 11.95 83.15 10.85 84.6 9.25 84.1 7.9 83.75 6.95 82.15 6.85 Z"/>
</g>
</defs>

<g transform="matrix( 1, 0, 0, 1, -28.4,-10.7) ">
<g transform="matrix( 1, 0, 0, 1, 0,0) ">
<use xlink:href="#Parts_Feet_footMC_44_Layer7_0_FILL"/>
</g>

<g transform="matrix( 0.6290283203125, 0, 0, 0.62908935546875, -16.45,-11.55) ">
<use xlink:href="#Parts_Feet_footMC_44_Layer7_1_FILL"/>
</g>

<g transform="matrix( 0.6290283203125, 0, 0, 0.629058837890625, -16.45,-11.55) ">
<use xlink:href="#Parts_Feet_footMC_44_Layer3_0_MEMBER_0_FILL"/>
</g>

<g transform="matrix( 0.6290283203125, 0, 0, 0.629058837890625, -16.45,-11.55) ">
<use xlink:href="#Parts_Feet_footMC_44_Layer3_0_MEMBER_1_FILL"/>
</g>
</g>
</svg>
