
<svg xmlns="http://www.w3.org/2000/svg" version="1.1" xmlns:xlink="http://www.w3.org/1999/xlink" preserveAspectRatio="none" x="0px" y="0px" width="550px" height="400px" viewBox="0 0 550 400">
<defs>
<g id="Layer0_0_FILL">
<path fill="#FFFFFF" stroke="none" d="
M 7.85 0.65
Q 7.75 0.3 7.45 0.05 7.2 -0.05 6.8 0 6.4 0.15 6.15 0.2
L 5.6 0.35 5.05 0.65
Q 4 1.3 2.95 2.25 2.05 3 1.2 4.2
L 0.7 5.1 0.7 5.2 0.65 5.25
Q 0.45 5.45 0.35 5.8
L 0.1 6.4
Q -0.05 6.65 0.1 6.85 0.2 7.2 0.4 6.95
L 1.25 6.15 1.9 5.75 4.25 3.85 6.35 2.6 6.85 2.15
Q 7.35 1.95 7.7 1.4 7.9 1.05 7.85 0.65 Z"/>
</g>
</defs>

<g transform="matrix( 1, 0, 0, 1, 0,0) ">
<use xlink:href="#Layer0_0_FILL"/>
</g>
</svg>
