
<svg xmlns="http://www.w3.org/2000/svg" version="1.1" xmlns:xlink="http://www.w3.org/1999/xlink" preserveAspectRatio="none" x="0px" y="0px" width="550px" height="400px" viewBox="0 0 550 400">
<defs>
<g id="Layer0_0_FILL">
<path fill="#F0EAD2" stroke="none" d="
M 106.75 98.2
Q 105.85 97.3 104.65 97.4
L 102.5 99.5
Q 100.7 101.55 99 101.65
L 96.9 100.85 95.5 102.9
Q 94.4 104.45 93.15 105 91.85 105.65 91.35 107
L 89.6 107.05
Q 88 107.1 86.55 109.4
L 84 113.8
Q 83.5 114.25 83.35 113.7
L 84.75 109.9
Q 84.65 108.1 82.85 108.05 80.5 107.95 79.3 106.6
L 77.15 102.45
Q 75.15 98.65 74.1 98.1 71.45 96.65 67.9 92.1 64.4 87.7 62.6 86.75 62.75 85.45 60.7 81.15
L 58.65 77.15 59.75 72.5
Q 59.6 70.8 56.4 68.7 52.7 66.35 49.55 67.65 49.15 67.15 49.15 66.25 49.05 64.8 52.3 63.1 53.6 62.4 59.5 59.95 69.85 55.7 69.65 52.2 69.4 48.45 64.55 48.15
L 53.45 48.9 51.5 48.4
Q 49.05 48.5 45.25 49.95 39.45 52.15 34.85 56.35 33.3 56.15 26.85 65.35 20.25 74.55 19.6 78.9 18.8 83.05 18.5 86.55 18.1 90.05 18.3 91.05
L 18.7 92.65 19.15 96.25
Q 19.2 97.7 20.2 99.55 21.45 101.9 22.35 106.45 22.95 109.4 29.6 119.2
L 36.2 128.4 35.95 130.65
Q 35.7 132.65 35.75 133.4 35.9 136.25 37.55 138.1 39.1 139.9 41.25 140.35 43.3 140.75 45.5 138.45 47.6 136.25 49.65 135.25
L 51.95 135.9
Q 54.35 135.7 59.65 130.1 64.85 124.7 64.75 123.3 64.6 120.85 58.2 113.25 51.7 105.4 51.25 102.6
L 52.6 102.75
Q 55.25 102.55 57.4 100.5
L 60.2 97.45 59.95 98
Q 59.6 98.45 59.65 98.85 59.75 100.05 60.45 100.85 61.4 101.95 62.9 101.9 62.4 102.85 61.9 104.55 61.95 106 63.85 106.9 66 107.95 68.6 106.95 70.25 111.15 70.4 114.05
L 69.5 116.5
Q 69.55 116.95 70.8 117.9 72 118.9 72.05 119.45
L 71.75 122.95
Q 72.05 128.25 74.5 130.85 76.5 132.9 79.3 132.7 82 132 83.3 130.35 89.3 135 100.4 146.6 110.35 155.75 118.45 155.25 128.4 154.65 132.05 150.8 134.7 147.95 134.4 142.35 134.1 136.55 130.6 130.35 127.05 124.15 121.05 123.65 115.05 123.15 112.95 122.4 110.8 121.65 110.6 116.8 110.3 111.85 108.25 109.95 106.25 107.95 103.2 107.05
L 103.05 106.95
Q 105.45 105.75 106.8 104.15 108.15 102.65 108.05 101.3 107.9 99.3 106.75 98.2 Z"/>

<path fill="#E9E9E9" stroke="none" d="
M 88.45 68.85
Q 87.5 68.2 86.75 68.2 83.75 68.45 75.9 74.45 68.7 80 68.75 80.45 68.8 81.25 70.3 83.15 71.9 85 72.75 84.95 74.7 84.8 82.2 77.85 89.5 71.05 89.5 70.45 89.45 69.55 88.45 68.85 Z"/>
</g>
</defs>

<g transform="matrix( 1, 0, 0, 1, 0,0) ">
<use xlink:href="#Layer0_0_FILL"/>
</g>
</svg>
