
<svg xmlns="http://www.w3.org/2000/svg" version="1.1" xmlns:xlink="http://www.w3.org/1999/xlink" preserveAspectRatio="none" x="0px" y="0px" width="550px" height="400px" viewBox="0 0 550 400">
<defs>
<g id="Layer0_0_FILL">
<path fill="#FFFFFF" stroke="none" d="
M 0.25 1.05
Q 0 1.65 0 2.1 -0.1 2.9 0.05 3.5
L 0.1 3.9
Q 0.2 4.3 0.4 4.6
L 0.65 4.9
Q 1.1 5.25 1.5 4.85 1.95 4.4 1.85 3.8
L 1.85 3.4 1.65 2.55 1.65 2.25 1.7 1.8 1.75 1.65 1.8 1
Q 1.8 0.6 1.55 0.2 1.3 -0.05 0.95 0.05 0.5 0.2 0.25 1.05 Z"/>
</g>
</defs>

<g transform="matrix( 1, 0, 0, 1, 0,0) ">
<use xlink:href="#Layer0_0_FILL"/>
</g>
</svg>
