
<svg xmlns="http://www.w3.org/2000/svg" version="1.1" xmlns:xlink="http://www.w3.org/1999/xlink" preserveAspectRatio="none" x="0px" y="0px" width="550px" height="400px" viewBox="0 0 550 400">
<defs>
<g id="Layer0_0_FILL">
<path fill="#FFFFFF" stroke="none" d="
M 6.3 1.15
Q 6.3 0.5 5.85 0.25
L 5.55 0.15
Q 5.25 -0.05 5 0
L 4.45 0.1 3.6 0.45
Q 1.9 1.3 0.8 2.85 0.15 3.85 0 4.85 -0.1 5.4 0.3 5.8 0.65 6.05 0.9 5.7
L 0.95 5.65 1.15 5.4 1.2 5.3 1.65 4.8 1.75 4.65 1.8 4.55 3 3.45 3.1 3.4 3.4 3.2 4.1 2.85 4.85 2.6
Q 5.4 2.55 5.75 2.15
L 5.9 2.05
Q 6.4 1.65 6.3 1.15 Z"/>
</g>
</defs>

<g transform="matrix( 1, 0, 0, 1, 0,0) ">
<use xlink:href="#Layer0_0_FILL"/>
</g>
</svg>
