
<svg xmlns="http://www.w3.org/2000/svg" version="1.1" xmlns:xlink="http://www.w3.org/1999/xlink" preserveAspectRatio="none" x="0px" y="0px" width="550px" height="400px" viewBox="0 0 550 400">
<defs>
<g id="Layer0_0_FILL">
<path fill="#FFFFFF" stroke="none" d="
M 111.6 85.05
Q 109.1 89.25 104.7 90.9
L 108.9 100.05 110 100.65 122.55 95.1
Q 121.85 91.25 120.65 87.4 118.1 79.35 113.7 72.9 115 79.25 111.6 85.05
M 113.55 96.45
Q 112.3 96.45 111.5 94.4 110.95 92.95 110.95 92.15 110.95 91.1 112 90.15 113.1 89.2 114.4 89.2 116.5 89.2 116.8 89.75 116.6 90.05 116.75 93.85 116.85 96.45 113.55 96.45
M 103.2 91.4
L 101.4 91.9
Q 96.5 92.45 91.75 91.05 71.4 87.7 53.1 79.95 61.15 98.95 76.15 113 91.85 110.35 106.2 102.3
L 103.2 91.4
M 90.5 95.15
L 95 95.4
Q 97.05 96.2 97.05 98
L 96.85 99.25
Q 96.6 100.7 95.7 101.9
L 94.35 103.1
Q 92.25 105.25 89.55 105.25 83.9 105.25 83.9 101.1 83.9 96.25 90.5 95.15 Z"/>
</g>
</defs>

<g transform="matrix( 1, 0, 0, 1, 0,0) ">
<use xlink:href="#Layer0_0_FILL"/>
</g>
</svg>
