
<svg xmlns="http://www.w3.org/2000/svg" version="1.1" xmlns:xlink="http://www.w3.org/1999/xlink" preserveAspectRatio="none" x="0px" y="0px" width="550px" height="400px" viewBox="0 0 550 400">
<defs>
<g id="Graphics_Symbol_626_0_Layer2_0_FILL">
<path fill="#000000" stroke="none" d="
M 48.65 5.95
Q 46.95 4.05 43.45 4.6
L 38.55 5.65 30.05 6.45
Q 24.6 7.55 23.05 9.85 20.7 13.35 17.8 20.65 14.4 29.1 14.4 33.2
L 14.9 35.8 16.8 44.25 16.75 44.25
Q 20 55.95 21.05 61.45 22.6 69.6 22.6 78.65 22.6 79.95 20 88.45 16.6 99.5 11.65 112.1 5.8 124.9 -0.9 132.5 -6.85 139.25 -14.2 142.55 4.05 159 26.55 159 55.25 159 75.7 149.45 91.25 142.2 95.25 134 91.45 133.85 86.45 130.55 81.2 127.05 76.5 121.2 65 106.75 63.6 87.4 63.3 83.3 57.1 47.05 57.1 41.95 60.15 34.95 63.2 28 63.2 25.65 63.2 22 56.8 14.5
L 48.65 5.95
M 51.2 10.2
L 59.85 18.75
Q 62.25 21.45 62.25 24.45 62.25 30.05 58.8 37.4 55.3 44.7 55.3 50.35
L 55.95 59.85
Q 56.95 75.2 63.45 98.5 68.1 115.35 71.2 122.6 72.9 126.7 81.45 131.75 88.9 136.2 90.95 136.25 72.4 146.7 63.85 149.95 50.35 155.1 35 155.1 25.3 155.1 10.65 150.85
L -11.25 144.45 -10.35 143.9
Q 6.65 128.45 9.35 124.95 13.95 118.85 20 96.4
L 25.25 75.2
Q 25.75 75.2 25.4 75.65 25 76.1 25.5 76.1 26.15 76.1 26.35 75.3
L 26.4 73.7
Q 26.4 70.45 21.9 55.25 17.35 40.05 17.35 34 17.35 30.3 19.8 25.25
L 22.95 18.1
Q 24.1 13.1 26.55 9.95 29.1 6.65 32.2 6.65
L 36 7.05 39.75 7.4 44.6 7.05
Q 48.3 7.25 51.2 10.2
M 31.55 117.6
Q 31.2 120.4 24.25 128.55 16.9 137.1 12.4 138.95 16.5 140.1 24.75 130.9 33.05 121.7 31.55 117.6
M 68.25 139.85
L 69.25 140.3
Q 61.4 135.25 55.95 126.9 48.7 115.9 45.05 98.5
L 44.3 102.3 45.95 108.85 46.75 113.65
Q 47.35 119.85 56.95 130.05 65.25 138.9 68.25 139.85
M 41.4 129.35
L 41.2 127.1
Q 36.05 142.5 38.6 139.9 41.4 136.55 41.4 129.35 Z"/>
</g>

<g id="Graphics_Symbol_626_0_Layer1_0_FILL">
<path fill="#000000" fill-opacity="0.25098039215686274" stroke="none" d="
M 65.5 143.75
L 68.35 143.05 43.95 100.2
Q 43.15 121.65 50.75 133.8 57 143.75 65.5 143.75
M 58.15 39.05
Q 54.5 40.8 52.45 44.1 47.7 51.75 47.7 68.35 47.7 90.8 62.15 116.75 68.25 127.75 74.7 134.55 81.3 141.55 85.85 141.55 86.7 141.55 87.85 140.5 89.15 139.3 89.8 137.7 90.05 137.85 90.05 136.85 90.05 135.5 88.2 133.6
L 83.5 129.35
Q 75.4 122.1 70.85 113.55 69.5 111.05 64.5 99.4 59.2 87.1 58.95 85.45
L 57.4 75.4
Q 56.4 68.35 56.4 63.9 56.4 62.9 58.15 39.05
M 44 9.05
Q 51.75 10.45 57.6 15.55 52.1 9.7 43.9 5.6
L 43.7 6.75 42.2 5.65 32.9 6.2 29.9 6.45 29.9 6.2 28.95 6.6 28.4 7
Q 25.85 8.9 22.35 15.7 17.15 25.85 16.55 32.15 15.9 38.4 20.1 51.2 24.25 63.95 22.1 81.35 19.9 98.75 13.85 113.3 7.75 127.85 -1.15 134.65 -10.1 141.4 -10.8 143.2 -11.5 145 -9.7 146.2 -8.3 147.15 -5.6 147.15 10.75 147.15 22.05 130.7 36.9 109.1 35.85 85 34.8 60.9 27.4 44.8 20 28.7 30.7 9.15
L 32.55 8.8 35.4 8
Q 36.2 7.6 44 9.05 Z"/>
</g>

<g id="Graphics_Symbol_626_0_Layer0_0_FILL">
<path fill="#FFFFFF" fill-opacity="0.25098039215686274" stroke="none" d="
M 16.5 138.5
L 16.85 139
Q 17.3 139.45 17.85 139.4 23.75 138.65 28.55 131.2 33.65 123.15 31.7 114.9 31 122.2 16.5 138.5
M 51 25.25
Q 51.8 20.4 47.4 17.45 43.5 14.85 40.3 14.85 37.7 14.85 35.9 16.9 34.35 18.7 34.35 20.6 34.35 25.05 38.15 38.4 41.95 56.6 41.95 85.55 41.95 98.6 35.35 121.8
L 30.8 137.25
Q 28.75 144.55 28.75 146.9 28.75 148.5 32.75 149.1
L 37 149.4
Q 43.7 149.4 49.3 147.85 56.6 145.8 71.8 138.95 68.8 139.95 66.25 137.5 63.85 135.15 58.8 126.7 51.45 114.35 48.5 102.5 44.75 87.35 44.75 62.25 44.75 59.1 45.35 53.8 48.2 42 49.2 36.05
L 51 25.25 Z"/>
</g>
</defs>

<g transform="matrix( 1, 0, 0, 1, -33.5,-72.6) ">
<g transform="matrix( 1, 0, 0, 1, 0,0) ">
<g transform="matrix( 1, 0, 0, 1, 0,0) ">
<use xlink:href="#Graphics_Symbol_626_0_Layer2_0_FILL"/>
</g>

<g transform="matrix( 1, 0, 0, 1, 0,0) ">
<use xlink:href="#Graphics_Symbol_626_0_Layer1_0_FILL"/>
</g>

<g transform="matrix( 1, 0, 0, 1, 0,0) ">
<use xlink:href="#Graphics_Symbol_626_0_Layer0_0_FILL"/>
</g>
</g>
</g>
</svg>
