
<svg xmlns="http://www.w3.org/2000/svg" version="1.1" xmlns:xlink="http://www.w3.org/1999/xlink" preserveAspectRatio="none" x="0px" y="0px" width="550px" height="400px" viewBox="0 0 550 400">
<defs>
<g id="Layer0_0_FILL">
<path fill="#FFFFFF" fill-opacity="0.15294117647058825" stroke="none" d="
M 39.1 140.95
L 34.95 139.15 33.8 139.1 39.1 140.95
M 46.3 118.1
L 46.7 113.15
Q 47.15 108.15 47.45 108.15
L 36.95 106.75 37 116.05 35.45 130.65 43.95 131.85 44.85 128.15
Q 45.7 123.65 45.8 118.1
L 46.3 118.1
M 38.05 78.5
L 35.3 83 35.35 86.65
Q 35.55 87.9 36.6 88.7
L 48.55 94.2 49.2 79.8
Q 49.2 78.6 48.35 79.05 51.7 75.4 53.95 68.8
L 53.95 68.75 54.05 68.55 55.3 64
Q 56.95 57.15 56.95 53.2
L 56.9 50.65 50.75 50.3 44.5 49.15
Q 43 49.15 42.45 57.65
L 41.55 70.35
Q 40.95 73.8 38.05 78.5
M 41.5 48.9
Q 41.25 48.85 41.2 49.25
L 41.15 49.65 41.5 48.9
M 57.7 30.4
L 57.55 30 57.35 30.4 57.7 30.4
M 57.1 35.1
L 57.9 35.1 58.2 33.55 57.85 30.9
Q 57.7 33.1 57.1 35.1
M 49.6 24.7
L 49.65 22.35 37.1 23.75 39.8 38.15
Q 42.15 37.45 45.05 35.05 47.25 33.25 50.3 33.25
L 51.75 33.6 52.65 34
Q 49.6 25.25 49.6 24.7
M 45.25 3.95
Q 43.2 3.2 42.05 3.2
L 40.3 3.55 39.3 3.9 45.25 3.95 Z"/>

<path fill="#FFFFFF" fill-opacity="0.5019607843137255" stroke="none" d="
M 57.1 65.25
L 56.9 64.9
Q 55.75 66 54.75 67.4
L 54.05 68.55 53.95 68.75 53.95 68.8 54.7 70.9
Q 55.9 73 57.95 73.45
L 58 69.65 57.1 65.25
M 2.1 30.05
Q 4.2 30.05 7.65 27.7 11.4 25.15 11.4 22.85 11.4 21.65 10.3 20.8 9.05 19.8 6.85 19.8 2.4 19.8 0.25 21.9 -1.35 23.5 -1.35 25.8 -1.35 27.5 -0.65 28.6 0.25 30.05 2.1 30.05
M 71.9 7.85
Q 73.65 13.6 76.6 15.9 78.55 17.4 80.65 17.25 80.45 16.3 78 13.05 75 9.05 72.1 7.05
L 71.9 7.85 Z"/>
</g>
</defs>

<g transform="matrix( 1, 0, 0, 1, 0,0) ">
<use xlink:href="#Layer0_0_FILL"/>
</g>
</svg>
