
<svg xmlns="http://www.w3.org/2000/svg" version="1.1" xmlns:xlink="http://www.w3.org/1999/xlink" preserveAspectRatio="none" x="0px" y="0px" width="550px" height="400px" viewBox="0 0 550 400">
<defs>
<g id="Layer0_0_FILL">
<path fill="#EEF3FA" stroke="none" d="
M 20.95 132.65
Q 21.3 132.95 21.3 132.3 20.6 132.3 20.95 132.65 Z"/>

<path fill="#000033" stroke="none" d="
M 62.5 -2.55
L 50.65 -1.3 50.5 -0.6
Q 50.85 0.55 51.1 0.7
L 52.4 1.5
Q 32.85 3.3 24.65 5.55
L 20.65 6.85 17.7 7.35
Q 15.95 7.35 15.5 6.35
L 14.3 3.65
Q -12.25 4.75 -12.25 25.85 -12.25 40.45 -4.3 47.5
L 1.15 51.45
Q 3.65 53.25 3.65 54.8 3.65 55.3 3.2 55.8 2.75 56.25 2.75 56.75
L 4.2 59
Q 6.5 63.45 10.3 75.05 13.4 84.4 15.6 92.45 16.35 94.5 17.15 94.9
L 19.55 94.65 20.25 114.55 19 132.4
Q 19 136.15 29.4 139.95 37.9 143.1 40.4 143.1 47.4 143.1 53.5 138.1 59.7 133.05 59.7 127 59.7 106.35 58.65 101.55 57.6 100.35 57.6 97.95 57.6 93.1 58.3 91.85 58.5 91.55 60.3 90.65 64.2 88.8 67.45 73.15 68.05 70.15 68.95 67.05 66.55 73.4 62.5 80.95 52.9 98.95 47.6 100.6 46.35 99.1 42.2 97.15 37.2 94.75 32.3 94.2 34.45 95.05 40.85 99.45 46.45 103.3 47.85 103.3 48.5 103.3 51 100.1 54.85 95.25 57.15 92.85
L 57.5 123.15
Q 57.5 131.9 54.35 135.55 50.8 139.7 41.4 139.7 31.8 139.7 25.65 136.1 21.45 133.7 21.3 132.3 21.3 132.95 20.95 132.65 20.6 132.3 21.3 132.3
L 21.35 132.3
Q 21.55 132.3 21.95 127.05 22.45 120.8 22.45 114.35
L 21.2 94.65
Q 21.2 94.05 22.15 93.8
L 23.8 93.55 24.75 93.3
Q 20.45 93.95 17.85 90.45 15.05 86.6 13.7 77.05 13 71.9 12.35 69.9 11.1 65.9 7.5 60.5
L 8.85 60.7
Q 10.2 60.2 12 56.95 14.85 51.7 17.25 48.5 19.45 45.55 22.65 44.05 26.25 42.35 29.9 43.15 40.15 45.35 44.85 46.8
L 47.35 47.65 54.65 30.35
Q 55.25 33.45 57.25 38.5 59.45 44.1 60.55 44.1 62.65 44.1 64.95 41.6 67.3 39.1 68.75 39.1 69.8 39.1 70.8 40.7 72.65 43.65 72.65 50.5 72.65 54.75 71.25 60.05
L 75.95 48.85
Q 75.95 48.45 75.2 47.75 74.45 47.05 74.45 45.5 74.45 43.4 76.25 41.85 77.35 40.95 80.2 38.75 85.95 33.1 85.95 18.05 85.95 6.55 79.3 1.6 73.75 -2.55 62.5 -2.55
M 83.8 15.95
Q 83.8 19.85 83.25 23.95 82.35 30.35 80.4 33.95
L 80.45 30.3
Q 80.45 27.9 79.45 26.75 78.6 25.8 77.25 25.8 75.9 25.8 73.2 26.8 70.45 27.8 68.9 27.8 66.7 27.8 63.9 25.65 61.6 23.9 56.4 18.65 61.95 18.7 65.4 16.95 68.35 15.45 68.35 13.55 68.35 9.6 63 5.65
L 54.45 0.3 63.7 -0.35
Q 73.05 -0.35 78.2 3.55 83.8 7.75 83.8 15.95
M 66.15 12.8
Q 66.15 14.85 61.15 15.9
L 53.15 17.6
Q 53.6 25.3 69.9 30.15
L 77.1 28 77.85 28.1
Q 78.15 28.25 78.15 29.8 78.15 31.25 77.45 33.75 76.3 38 73.75 42.1 73.65 40 72.3 38.55 70.85 36.95 68.55 36.95 67.7 36.95 66.25 37.95
L 60.15 42
Q 58.25 38.25 56.8 32.55 55.55 27.8 55.55 26.25
L 55.55 26.05 54.85 26
Q 54.25 26 54 26.25
L 45.9 45.25
Q 42.3 43 36.25 41.75
L 30.75 40.95
Q 24.05 40.95 19.15 43.8 15.5 45.95 12.55 49.95
L 9.8 39.45
Q 9.8 35.95 13.6 35.2
L 21.95 34.65
Q 27.5 34.25 30.25 31.7 34.05 28.3 34.05 20.25 34.05 19.9 33.65 19.5 33.2 19 32.65 19
L 27.6 19.9
Q 24.35 19.9 21.5 18.5 17.1 16.4 15 11.4 19.55 7.6 27.4 5.4 35.35 3.2 44.65 3.2 50.85 3.2 57.6 5.45 66.15 8.35 66.15 12.8
M 14.75 6.9
L 16 8.3 14.4 9 14.75 6.9
M 12.8 5.9
Q 11.6 7.75 11.6 9.1 11.6 14.15 18.5 18.95 25.75 24.05 31.55 21.55 33 27.15 29.6 29.6 27.3 31.2 21.15 31.95 13.95 32.8 11.95 33.55 7.6 35.2 7.6 39.35
L 8.45 43.45
Q 9.4 47.8 10 49.05
L 6.45 49.5
Q -2.35 49.5 -6.65 42.4 -10.1 36.7 -10.1 27.75 -10.1 17.4 -4.8 12.2 0.65 6.95 12.8 5.9
M 8.1 57.7
L 4.5 50.55 11.7 50.55 8.1 57.7 Z"/>
</g>
</defs>

<g transform="matrix( 1, 0, 0, 1, 0,0) ">
<use xlink:href="#Layer0_0_FILL"/>
</g>
</svg>
