
<svg xmlns="http://www.w3.org/2000/svg" version="1.1" xmlns:xlink="http://www.w3.org/1999/xlink" preserveAspectRatio="none" x="0px" y="0px" width="550px" height="400px" viewBox="0 0 550 400">
<defs>
<g id="Layer0_0_FILL">
<path fill="#010265" fill-opacity="0.25098039215686274" stroke="none" d="
M 52.9 -1.4
L 53.6 -0.3
Q 54.45 0.7 56.25 1.4
L 57.8 2.05 46.8 2.05
Q 39.15 1.9 28 4.8 16.8 7.7 16.7 7.9 16.6 8.05 13.8 6.15 11 4.25 5.95 5 0.9 5.7 -5.65 12.55 -12.25 19.4 -11.8 28.85 -11.4 38.3 -7.65 42.7 -3.9 47.1 1.35 51.6 6.6 56.05 5.9 57.15
L 7.25 58.8 4.8 56.3 4.45 56.45
Q 4.3 56.65 4.3 57.3 4.3 59.15 10.9 72.15 15.25 82.45 17 94.7
L 19.4 94.85 19.75 95.8 20.25 104.9 20 114.75
Q 20 117.3 19.3 122.6
L 19.1 124.1
Q 19.9 131.55 21.4 134.05 24.1 138.5 27.9 139.6 31.65 140.65 38.25 140.65 49.05 140.65 54.2 135.7 58.5 131.55 58.5 124.35
L 58.2 115.3
Q 57.9 108.65 58.1 105.8 58.2 104.45 58.85 101.05 58.3 100.35 58 99.25
L 57.75 96.45
Q 57.75 91.25 61 89.7
L 61.3 89.6
Q 64.25 77.15 74.25 49.9 73.85 49.7 73.5 47.45
L 73.25 44.85
Q 73.25 42.65 74.95 40.8 75.95 39.7 78.7 37.35 84.1 31.95 84.1 21.85 84.1 -2.15 58.55 -2.2 53.65 -2.65 52.9 -1.4
M 80.2 16.25
L 80.65 16.25 80.6 11.35
Q 81.95 16.9 82 19.15 82.05 21.25 80.85 27
L 80.4 26.6 79.75 25.7 80.2 16.25
M 77.85 8.15
L 76.15 7.5 66.75 4.9 68.75 4.55 72.65 5
Q 76.5 5.9 77.85 8.15
M 45.7 19.5
Q 53.8 19.5 59.85 22.5 68.6 26.85 69.35 36.35
L 65.9 37.85 66.85 38.85
Q 67.5 39.75 67.5 41.8 67.5 45.4 61.85 64.15 56 83.5 55.75 85.75
L 53.85 85.8 53.5 85.75
Q 54.6 84.4 54.6 82.9 54.6 81.15 52.6 77.05
L 49.8 71.8 47.2 98.25
Q 44.75 96.95 42 95.3 36.6 92 31.85 87.25 25.75 81.15 21.5 67.9 18.15 57.6 18.15 52.85 18.15 51.15 23.7 48.7 30.85 45.5 43.05 43.9 37.25 42.05 33.55 41.4 29.8 40.75 24.4 42.95 19 45.15 16.45 48.1
L 13.45 40.1
Q 13.65 34.15 20.85 33.55
L 26.35 33.45
Q 29.25 33.45 30.05 32.85 33 30.7 34.1 27.95
L 35.2 23.65
Q 35.8 21.55 37.65 20.65 40.05 19.5 45.7 19.5
M 13.4 10.35
L 15.1 10.55
Q 4.05 18.6 -0.95 24.85 -4.45 29.25 -4.45 31.95
L -0.45 46.5 -1.2 45.95
Q -4.2 44.05 -5.75 39.5
L -6.75 35.2
Q -6.75 26.5 -3.4 19.85 1.65 9.75 12.95 9.1
L 13.4 10.35
M 25.8 25.7
Q 27.15 26.8 27.15 28.1 27.15 29.25 24.55 29.7
L 20.15 29.9 25.8 25.7
M 30.5 94.95
Q 30.5 93.85 31.35 93.6 34.6 94.7 42.3 98.5
L 49.5 102
Q 54.7 102 55.35 98.75 54.5 120.55 51.6 128.6 48.75 136.45 41.95 136.45
L 38.3 135.85
Q 35.3 135.15 34.6 134.75
L 35.7 124.55
Q 35.7 120.55 33.1 107.8
L 30.5 94.95
M 61.6 67.65
L 64.5 59.45
Q 62.6 70.6 61.75 73.95 60.45 78.85 58.25 82.1
L 58.4 80.75
Q 58.8 76.15 61.6 67.65
M 58.85 42.65
Q 58.5 36.8 54.65 30.35
L 54.3 29.45 52.35 62.15 52.95 61.45
Q 53.65 59.95 54.8 54.95 56.05 49.6 56.7 45.05
L 57.1 46
Q 58.95 45.35 59.8 44.45
L 64.3 38.9 59.8 42.15 58.85 42.65 Z"/>
</g>
</defs>

<g transform="matrix( 1, 0, 0, 1, 0,0) ">
<use xlink:href="#Layer0_0_FILL"/>
</g>
</svg>
