
<svg xmlns="http://www.w3.org/2000/svg" version="1.1" xmlns:xlink="http://www.w3.org/1999/xlink" preserveAspectRatio="none" x="0px" y="0px" width="550px" height="400px" viewBox="0 0 550 400">
<defs>
<linearGradient id="Gradient_1" gradientUnits="userSpaceOnUse" x1="175" y1="6.450000000000003" x2="175" y2="203.95" spreadMethod="pad">
<stop  offset="0%" stop-color="#FFFFFF" stop-opacity="0.7529411764705882"/>

<stop  offset="100%" stop-color="#999999" stop-opacity="0.5019607843137255"/>
</linearGradient>

<g id="Layer0_0_FILL">
<path fill="url(#Gradient_1)" stroke="none" d="
M 268.7 85.9
Q 271.75 81.5 271.75 79.95 271.75 74.05 267.55 66.5 262.75 57.85 254.3 50.75 232.35 32.2 197.25 32.2
L 188.25 32.7
Q 188.55 19.3 177.05 10.4 160.1 -2.75 122 0.7 103.4 1.15 81.7 7 63.25 12.7 60.5 12.7
L 52 11.7
Q 50.85 19.35 44.25 21.65 41.05 22.55 39.9 23.1 38 24 38 25.95 38 32.9 33.95 36.45 31.35 38.7 25 40.6 18.3 42.65 16.05 44.25 12 47.25 12 53.2 12 59.15 15 74.4 18 89.65 18 92.95 18 96.45 15.2 100.5
L 9 107.9
Q 0 118.25 0 127.7 0 139 8.2 149.75 18.4 163.05 36.5 166.95 38.65 169.55 37.6 177.95 36.4 187.85 37.75 192.45 43 210.45 90 210.45 96.6 210.45 106.65 202.95
L 113.85 197.8
Q 117.7 195.45 120.5 195.45 123.15 195.45 125.85 196.55
L 131.45 198.95
Q 140.55 202.45 157 202.45 164.9 202.45 190.9 196.05 219.55 188.95 246.9 179.5 280 168.05 299.3 156.9 322.5 143.5 322.5 132.2 322.5 126.9 319.8 120.8 316.65 113.65 310.55 107.8 294.75 92.6 265.25 91.45 265.45 90.55 268.7 85.9 Z"/>
</g>
</defs>

<g transform="matrix( 1, 0, 0, 1, 0,0) ">
<use xlink:href="#Layer0_0_FILL"/>
</g>
</svg>
