
<svg xmlns="http://www.w3.org/2000/svg" version="1.1" xmlns:xlink="http://www.w3.org/1999/xlink" preserveAspectRatio="none" x="0px" y="0px" width="550px" height="400px" viewBox="0 0 550 400">
<defs>
<g id="Layer0_0_FILL">
<path fill="#000000" fill-opacity="0.25098039215686274" stroke="none" d="
M -56.6 -84.75
Q -60.5 -83.7 -60.5 -79.25 -60.5 -75.15 -57.15 -62.15 -53.7 -48.75 -48.95 -34.9 -36.5 1.5 -29.2 1.5 -23.1 1.5 -19.6 -2.05 -17.85 -3.85 -17.35 -5.75 -17.35 -9.35 -20.45 -17.4
L -32 -45.25
Q -46.95 -80.75 -46.5 -86
L -56.6 -84.75
M 17.2 -68.2
Q 14.2 -76 8.15 -89.1 0.35 -106 -1.35 -106 -2.85 -106 -5.2 -104.4 -8.35 -102.2 -10.25 -101.45
L -14.55 -99.4
Q -15.75 -98.75 -15.75 -97.35 -15.75 -90.75 -11.7 -83.5
L -3.65 -70.75
Q 6.05 -53.25 8 -47 13.25 -30.45 17.95 -21.6 22.75 -12.5 26.5 -12.5 29.25 -12.5 33.7 -16.05 38 -19.5 38 -21.15
L 31.9 -34.2
Q 23.9 -50.75 17.2 -68.2 Z"/>
</g>
</defs>

<g transform="matrix( 1, 0, 0, 1, 0,0) ">
<use xlink:href="#Layer0_0_FILL"/>
</g>
</svg>
