
<svg xmlns="http://www.w3.org/2000/svg" version="1.1" xmlns:xlink="http://www.w3.org/1999/xlink" preserveAspectRatio="none" x="0px" y="0px" width="550px" height="400px" viewBox="0 0 550 400">
<defs>
<g id="Layer0_0_FILL">
<path fill="#000000" fill-opacity="0.24705882352941178" stroke="none" d="
M 82.1 95.6
L 82.05 95.4
Q 81 90.8 79.45 86.8 77.9 82.6 77.2 80.5 75.95 76.85 75.4 74 74.3 67.9 75.05 61.5 76.05 54.35 79.25 48 80 46.3 79.2 44.5 78.85 43.85 78.4 43.85 78 43.9 77.65 44.5
L 76.95 45.95 76.75 46.05
Q 76 46.75 75.45 47.4
L 74.45 49.05
Q 73.45 50.85 72.85 52.95 72.15 55 71.95 57.05
L 71.85 59.45
Q 71.7 60.8 72.05 62.1 72.4 62.9 72.65 62.95 72.45 66.35 72.65 69.7 73.1 76.15 75.35 82.7 75.7 83.7 77.8 88.95 79.3 92.8 80 95.3
L 80.5 97.5
Q 80.45 102.95 79.2 108.45
L 78.6 108
Q 77.55 106.9 77.25 105.4
L 77.1 104.85 76.9 102.45
Q 76.2 95.4 74.55 89.2 74.25 87.95 70.75 77.4 68.35 70.25 68.1 65.35 67.9 62.35 68.5 59.25 68.5 59.05 68.6 58.95 69.7 55.7 71.5 53.2
L 72.5 51.75
Q 72.85 51.3 73.4 49.95 73.5 49.8 73.5 49.4 73.45 49 73.25 49.1 72.7 49.1 72.45 49.2 71.95 49.5 71.75 49.75 71.3 50.1 70.5 51 70.25 51.35 70.2 51.4 68.7 51.9 67.3 56.2
L 66.85 57.85
Q 66.4 59.3 66.05 61.25 65.85 62.35 65.75 64.5 64.65 57.95 66.9 54.15 68.1 52.2 70.8 49.2 73.9 45.85 74.95 44.4 79.6 37.75 79.5 29.7 79.45 14.2 65.6 5.65 52.7 -2.3 37.4 0.75 29.45 2.35 22.65 6.6 15.75 10.85 10.9 17.25 4.45 25.65 2.1 36 1 36.7 0.45 38.4 0 39.75 0 41.25 0 59.35 4.75 76.85 6.95 85.2 9.95 90.2 13.95 96.8 20.4 99.65 26.2 102.25 34.55 102.85 42.05 103.35 49.05 102.15 56.35 100.85 61.05 96.25 65.85 91.5 67.05 84.25 67.8 79.05 67.2 73.75
L 67.3 74.15 67.95 75.7 68.75 78.45
Q 69.55 81 71.25 86 72.65 90.5 73.4 93.7 73.9 95.95 74.3 98.45
L 74.2 99.05
Q 74.35 101.25 74.85 103.05
L 74.95 103.5
Q 75.1 106.6 75.55 109.5 75.9 111.45 76.85 112.85 78.15 114.7 79.9 114.4 81.5 114 82.1 112.35 83.05 111.7 83.55 110.55 84.2 108.9 84.05 106.6 84 105.85 83.5 102.6
L 82.9 98.35
Q 82.75 97.2 82.4 96.25 82.3056640625 95.9205078125 82.1 95.6
M 70.15 29.9
Q 69.9 33.45 65.5 38.35 59.9 44.65 59.1 46.15 56.4 51.4 56.25 58.3 56.2 63 57.45 70.85 58.6 77.55 57.85 80.75 56.7 85.55 51.2 87.45 46.5 89.1 39.5 88.95 33.85 88.85 27.6 87.65 20.9 86.4 17.3 81.6 14.5 77.85 12.6 70.25 10.5 61.95 8.9 51.1
L 9.5 49.75
Q 11.25 42.85 12.1 39.55 13.65 33.65 16.2 29.85 19.25 25.35 23.55 22 27.9 18.65 33 16.85 44.3 12.7 55.85 16 61.45 17.75 65.4 20.85 70.5 24.95 70.15 29.9 Z"/>
</g>
</defs>

<g transform="matrix( 1, 0, 0, 1, 0,0) ">
<use xlink:href="#Layer0_0_FILL"/>
</g>
</svg>
