
<svg xmlns="http://www.w3.org/2000/svg" version="1.1" xmlns:xlink="http://www.w3.org/1999/xlink" preserveAspectRatio="none" x="0px" y="0px" width="550px" height="400px" viewBox="0 0 550 400">
<defs>
<g id="MovieClips_Symbol_585_48_Layer0_0_FILL">
<path fill="#7C7C7C" stroke="none" d="
M 55.9 6.35
Q 54.1 5.2 48.65 2.55
L 48.4 2.1
Q 45.1 -2.15 39.3 -2.25 34.2 -2.3 29.15 0.6 25.65 2.65 23.1 5.65 20.25 7.25 17.4 11 15.1 14.05 13.35 17.8 11.6 18.55 10.15 21.95 9.8 22.85 8.2 27.65
L 7.8 29.05 7.7 29.25
Q 7.4 30.2 7.15 32.15 7.2 32.2 6.9 32.4 6.75 34.1 6.5 37.4 6.2 40.35 5.7 42.35
L 5.1 44.7
Q 4.95 45 5.05 45.65
L 4.75 47.05
Q 4.75 49.25 4.45 51.35
L 4.1 55.2
Q 4.1 56.75 3.75 60.05
L 3.75 61.5
Q 3.7 62.4 3.6 62.95 3.6 63.55 3.65 64.85 3.55 67.35 3.45 67.85
L 3.45 68.65
Q 3.55 68.75 3.45 68.95
L 3.45 69.95
Q 3.55 70 3.4 70.15 3.4 70.2 3.25 70.35
L 3.4 70.45 3.15 73.15
Q 3.15 73.2 3.25 73.35 3.35 73.5 3.25 73.55
L 2.6 81.7
Q 2.7 82.25 2.65 83.3 2.65 83.7 2.6 83.75 2.7 84.8 2.75 86.4
L 2.75 89
Q 2.8 90.95 2.7 94.8
L 3.25 96.6
Q 3.6 103.8 5.1 111.5
L 4.75 111.35
Q -21.4 102 -32.2 77.25 -32.4 76.75 -32.95 75.2 -33.25 74.3 -34 73.15 -34.75 71.3 -34.75 69.35
L -34.8 69.35
Q -35.05 66.8 -35.75 66.75 -35.95 67.45 -36.55 68.35
L -37.1 70.15
Q -37.2 70.5 -37.4 71.25
L -37.75 73.35
Q -38.8 85.3 -37.8 93.25 -37.6 94.9 -37.05 98.65 -36.7 99.1 -36.65 100.2 -36 102.15 -34.7 104.8 -32.7 108.9 -32.55 109.2 -31.9 110.6 -30.95 113.05 -29.95 115 -28.2 116.1 -27.6 116.5 -27.3 116.9 -24.4 118.5 -21.1 119.65 -20.4 122 -18.35 123.6 -17.1 124.55 -16.05 124.55 -14.95 124.55 -14.55 123.35 -13.3 123.35 -13.3 123.3 -12.55 123.55 -11.75 123.3 -11 123 -10.35 123.25 -7.6 124.25 -1.5 126.6 3.85 128.1 7.35 126.05
L 7.7 127 8.05 126.95
Q 8.25 127 8.4 127.25 8.55 127.5 8.55 127.7 8.55 127.85 8.8 128.05 8.95 128.2 8.85 128.2
L 10.5 131.85 11.2 132.25 11.55 132.75
Q 13.7 138 14.15 138.85 16 142.75 17.9 144.65 19.55 145.55 21.05 145.9
L 22.15 146.1
Q 22.6 145.75 22.7 145.4
L 24.1 146.45
Q 25.2 146.75 25.75 147 27.1 147.65 29.85 149.05 30.55 149.4 31.4 149.65
L 31.5 149.55
Q 32 149.2 32.65 149.2 33.05 149.2 33.85 149.35 35.65 149.6 37.45 149.5 40.2 149.45 43.7 148.85 46.1 148.45 47.85 147.9 48.6 147.5 49.65 147.25 50.75 146.75 51.95 146.05 51.95 145.6 52.4 145.5
L 52.6 145.5
Q 52.45 145.05 52.85 144.9
L 52.9 144.9 54.35 144.45
Q 55.7 143.4 56.9 142.2
L 56.1 141.8
Q 58.65 140.95 60.1 138.75 62.95 136.35 64.85 133.1 66 130.1 66.55 128.6 67.5 125.95 67.6 123.95 67.35 123.8 67.45 123.45 67.9 121.9 68.2 120.2
L 68.2 118.8
Q 68.1 118.7 68.1 118.45 68.6 112.8 68.55 111.35 68.55 110.3 68.4 109.25 68 109.25 68 108.9 67.55 105.85 67.45 101.95
L 67.25 99.8
Q 65.7 95.55 65.45 90.9 65.4 88.3 65.3 87
L 65.15 84.55
Q 65.1 84.35 65.3 84.15
L 64.95 81.45
Q 64.55 74.5 65.85 68.25
L 66.65 64.05
Q 66.8 62.5 67.75 61.15 67.55 60.95 67.55 60.75 67.65 59.7 69.25 56.95 71.2 53.75 72 52.05 72.35 51.15 73.35 49.85
L 74.65 48.4
Q 75.05 47.1 75.15 46.45
L 75.4 46.1
Q 75.75 46.1 76 45.85 77.75 44.2 78.1 41.95
L 79.1 38.1
Q 79.05 37.1 78.55 35.75 77.95 34.2 77.65 33.45 77.5 32.8 77 32.1
L 76.95 31.95
Q 76.2 29.1 75.25 26.75
L 74.8 25.8
Q 72.45 19.95 66.95 14.7 62.75 10.7 55.9 6.35 Z"/>
</g>
</defs>

<g transform="matrix( 1, 0, 0, 1, -32.9,-71.25) ">
<g transform="matrix( 1, 0, 0, 1, 0,0) ">
<use xlink:href="#MovieClips_Symbol_585_48_Layer0_0_FILL"/>
</g>
</g>
</svg>
