
<svg xmlns="http://www.w3.org/2000/svg" version="1.1" xmlns:xlink="http://www.w3.org/1999/xlink" preserveAspectRatio="none" x="0px" y="0px" width="550px" height="400px" viewBox="0 0 550 400">
<defs>
<g id="Layer0_0_FILL">
<path fill="#010101" stroke="none" d="
M 10.75 10.35
L 10.4 9.75 8.4 4.65
Q 8.75 4.55 8.9 4.15 9.05 3.95 9.05 3.1 9.05 2.4 8.75 2.3 8.2 2.15 7.9 2.3 7.5 2.15 7.1 2.3 6.75 2.4 5.9 2.4
L 3.4 2.4
Q 3 2.4 2.4 2.15 1.65 1.75 1.3 1.25
L 0.7 0.35
Q 0.5 -0.1 0.3 0.25
L 0.2 0.05
Q 0.1 -0.25 0 0.55 0.15 1.85 1 2.85 1.65 3.7 2.6 4.15 3.3 4.6 3.4 4.65 4.8 5.3 6.1 5.15 6.75 5.15 7 5.05 7.25 6.35 7.3 6.45 8.6 9.9 11.3 16.5
L 11.5 16.9
Q 11.5 17.1 11.6 17.2
L 11.6 17.6
Q 11.6 18.75 10.9 19.8
L 10.05 20.9
Q 9.8 21.15 9.4 21.3
L 8.9 21.8
Q 8.3 21.5 6.8 21.5
L 5.1 21.5
Q 4.25 21.35 3.9 21.65
L 3.9 22.5
Q 4.25 23.25 5 23.6 5.4 23.8 6.55 24
L 8.05 24.15
Q 8.05 24.5 8.25 25 8.25 25.1 8.35 25.15 8.7658203125 25.90625 8.95 26.15 8.9 26.1 8.85 26.15 8.75 26.25 8.65 26.6 8.55 26.65 8.45 27 8.25 27.3 8.05 27.9
L 7.95 28.2
Q 7.8 28.7 7.95 29.2 7.95 29.6 8.05 29.8
L 8.15 29.9 8.25 29.9
Q 8.25 30 8.35 29.9
L 8.45 29.8 8.85 28.9
Q 9.05 28.5 9.05 28.4
L 9.15 28.1 9.25 27.9 9.25 27
Q 9.5 27.4 9.55 27.4 10.55 26.85 11.3 25.65 11.75 24.95 12.35 23.4 13.65 20.05 12.85 16.25 12.65 15.05 11.85 13.1
L 11.25 10.45
Q 11.1 9.75 10.9 9.75 10.75 9.75 10.75 10.35 Z"/>
</g>
</defs>

<g transform="matrix( 1, 0, 0, 1, 0,0) ">
<use xlink:href="#Layer0_0_FILL"/>
</g>
</svg>
