
<svg xmlns="http://www.w3.org/2000/svg" version="1.1" xmlns:xlink="http://www.w3.org/1999/xlink" preserveAspectRatio="none" x="0px" y="0px" width="550px" height="400px" viewBox="0 0 550 400">
<defs>
<g id="Layer0_0_FILL">
<path fill="#FFC142" stroke="none" d="
M -25.35 117.15
Q -25.35 116.15 -31.65 114.5 -38.3 112.75 -46.1 111.95
L -44.85 112.8
Q -35.6 118.2 -26.4 123.55
L -26.55 120.6 -25.35 117.15
M 4.6 130.05
L 4.7 128.25
Q 4.7 127.6 6 123.55
L -0.7 124.7 -3.85 124.5 -4.65 123.5
Q -7 121.15 -21.5 117.4
L -22.3 122.75 -21.7 124.55
Q -20.65 126.55 -18.25 127.4
L 1.9 135.4
Q 5.25 136.75 6.85 136.75
L 5.45 134.6
Q 4.6 132.7 4.6 130.05
M 17.9 121.55
Q 11.9 121.55 10.2 122.5 8.15 123.7 8.15 128 8.15 130.1 10 133.45 12.25 137.4 15.4 139.1
L 15.55 139.1 15.55 139.15
Q 20.7 140.6 25.9 141.25
L 37.7 141.8 37.6 141.6 35.3 135.95
Q 32.8 130.2 30.95 127.55 28.8 124.95 27.25 123.7 24.5 121.55 17.9 121.55
M 47.35 123.25
L 45.4 122.7
Q 40.3 125.35 39.2 125.35
L 33.55 124.3 33.75 125.25
Q 35.65 131.9 38.35 136.9 40.9 141.6 42.2 141.6
L 46.7 141.1 46.8 141.05 46.8 141.1
Q 49.75 141.05 59.15 137.15 68.6 133.3 69.85 131.65
L 74.8 124.95 76.6 121.05 58.55 123.8 47.35 123.25
M 46.35 94.55
L 42.25 93.15
Q 44.3 103.5 47.7 116.05
L 47.4 119 73.85 119
Q 80.15 118.7 79.2 111.7
L 79.05 111.65 79.2 111.65
Q 79.9 106.15 79.9 103.8
L 79.65 101.15 78.6 96.6 76.85 93.6 76 92.45 61.5 90.95
Q 59.55 90.95 56.95 92.95 54.35 94.9 52.1 94.9
L 46.35 94.55
M 77.8 72.2
Q 76.5 65.8 75.55 63.75 74.2 61.5 72.3 59.6
L 70.55 58.1 65.5 59.2
Q 64.05 59.2 59.95 58.05
L 55.7 56.9
Q 55.45 56.9 54.05 57.75 52.5 58.75 51.3 59.75
L 47.8 61.1 50.3 67.25
Q 51.15 69.6 51.15 71.7 51.15 74.35 49.2 76.85 45.7 81.25 42.4 88.8
L 49.55 89.05 60.4 87.05 67 88.7
Q 75.35 88.7 77.05 86.65 77.6 85.95 77.85 84.5 78.15 82.85 78.5 82.15 79.3 79.65 77.8 72.2
M 54.95 29
L 48.65 28.4
Q 48.35 28.3 46.85 27.4
L 45.3 26.45 41.6 32.4
Q 39.1 36.5 39.1 38.2 39.1 39.05 40.1 41.75
L 45.85 56.15
Q 47.1 56.15 51.3 54.8 55.5 53.4 56.85 53.4
L 70.1 54.9
Q 72.9 54.9 73.7 53.6 74.1 52.95 74.3 50.35
L 74.25 50.35 75.5 40.8 74.85 37.55
Q 74.1 34.65 73.05 32.65
L 70.3 27
Q 69.35 25.35 69.05 25.35 57.3 25.35 57.3 27.2
L 57.2 28.75 54.95 29
M 46.35 -6
L 41.6 -5.6
Q 40.25 -4.85 39.75 -4.75 41.05 2.4 44.15 10.85 46.85 18.1 46.85 19.4
L 46.65 21.75
Q 46.5 23.4 46.7 23.6
L 50.05 23.85 66.2 21.75
Q 69.4 21.65 71.55 20.2 73.9 18.55 74 15.65 72.4 4.85 70.6 2.6 64.3 -4.35 61.9 -5.2
L 46.35 -6 Z"/>
</g>
</defs>

<g transform="matrix( 1, 0, 0, 1, 0,0) ">
<use xlink:href="#Layer0_0_FILL"/>
</g>
</svg>
