
<svg xmlns="http://www.w3.org/2000/svg" version="1.1" xmlns:xlink="http://www.w3.org/1999/xlink" preserveAspectRatio="none" x="0px" y="0px" width="550px" height="400px" viewBox="0 0 550 400">
<defs>
<g id="Layer0_0_FILL">
<path fill="#FFFFFF" stroke="none" d="
M 93.75 31.85
Q 92.8 31.3 92.45 31.05 91.25 30.2 89.7 29.9 87.8 29.5 86.75 30.25 85.7 30.8 85.1 31.15 84.1 31.75 83.45 32.65
L 82.75 33.75
Q 82.15 34.2 81.85 34.55 81.6 34.9 80.95 35.95 80.25 37.35 80.05 37.65 78.75 39.95 78.45 42.05 78.15 44.5 79.7 48.9 80.55 51.1 82.15 52.9 83.9 54.85 85.85 55.4 86.9 55.7 87.65 55.75 88.55 55.85 90.15 56.1 93.1 56 95.85 54.8 98.8 53.5 99.75 51.65 100.2 50.8 101.8 48.4 103.2 46.15 103.25 44.95 102.25 45.75 100.7 46.1 99.35 46.35 98.1 46.2 94.75 45.75 94.35 44.45 94.6 43.1 94.6 42.9 94.9 40.45 95.6 39.7 96.4 38.8 98.7 38.75 99.35 38.75 100.3 39.1 100.85 39.35 101.9 39.75
L 103.2 40
Q 103.65 38.05 103.6 37.95 102.5 34.45 100.75 34.2 100.15 34.15 99.4 34.3 98.65 34.45 98.1 34.35 97.05 34.2 96.9 34.15 96.35 33.95 95.5 33.25 94.75 32.5 93.75 31.85
M 95.95 3.1
Q 94.55 2.4 92.45 2.15 90.25 1.85 88.6 2.2 86.5 2.55 85.75 2.95 82.95 4 82.35 4.55 79.05 7.05 78.2 13.8 78.05 15.1 78.25 17.3 78.35 17.45 78.4 17.35 78.45 17.3 78.55 17.4 78.75 18.45 80.4 21.75 81.3 23.35 83.25 24.75 86.95 26.8 89.75 27.15 94.2 27.7 98.15 23.5 101.3 20.15 102.4 16.3 101.85 16.85 100.45 16.7 98.85 16.4 98.05 16.3 95.35 15.95 94.7 15.05 94.65 14.2 94.65 14.15 94.7 13.05 94.75 12.6 94.85 11.9 95.4 11.2 97.35 9 101.65 10.55 100.85 8.6 99.35 6.4 97.45 3.8 95.95 3.1 Z"/>
</g>
</defs>

<g transform="matrix( 1, 0, 0, 1, 0,0) ">
<use xlink:href="#Layer0_0_FILL"/>
</g>
</svg>
