
<svg xmlns="http://www.w3.org/2000/svg" version="1.1" xmlns:xlink="http://www.w3.org/1999/xlink" preserveAspectRatio="none" x="0px" y="0px" width="550px" height="400px" viewBox="0 0 550 400">
<defs>
<g id="Layer0_0_FILL">
<path fill="#DAC849" stroke="none" d="
M 24.35 113
Q 23.4 112.2 22.2 110.05 20.7 107.15 20.15 106.45 18.35 110.6 15.2 115.9
L 24.35 113
M 14.8 88.3
Q 14.1 88.4 13.25 88.3 12.65 89.25 10.45 93.3 6.8 99.8 6.35 102.25 8.05 103 12.85 103.3 16 103.7 17.9 104.3 18.3 103 19.5 102.5 16.4 94.95 14.8 88.3
M 14.3 86.5
Q 13.8 83.55 13.7 83.1 12.3 76.4 11.8 70.1 8.75 71.85 5.8 74.35 3.75 76.1 -0.6 80.9 9.05 85.3 14.3 86.5
M 11.6 50.05
Q 11.4 50.15 9.1 52.2 6.4 54.45 4.25 55.65 1.8 57 -0.2 58.55 -1.25 59.3 -2.4 60.2 -1.35 60.6 4.45 63.95 7.9 66.15 11.65 67.05 11.4 64 11.6 58.1 11.55 54.25 11.7 52.5
L 11.6 50.05
M 0.65 40.85
Q 0.9 42.95 5.55 46.2 9.35 48.85 11.6 50.05 12.05 45.4 14.15 35.6 11.65 36.35 0.65 40.25
L 0.6 40.05
Q 0.55 40 0.65 40.85
M 8.65 23.8
L 5.65 24.65
Q 6 25.65 7.65 27.1 8.6 27.95 11 29.9 12.05 31 14.4 34.6
L 15.8 30.05
Q 16.4 27.25 17.65 23.6 16.05 23.8 8.65 23.8
M 59.45 28.95
L 57.45 27.35
Q 57.3 37.8 57.5 48.15 57.8 58.5 58.65 68.85 59.45 77.6 60.7 86.3 61.6 92.75 64.4 98.7 66.7 103.85 69.2 108.95
L 71.6 106.25 72.6 102.6
Q 73.05 100.9 73.25 98.45 73.5 95.45 73.7 94.25 74.4 89.45 74.85 84.7 75.35 78.1 74.35 71.2 73.6 65.25 72.2 59.4 69.85 49.4 65.4 39.9 62.65 34.1 59.45 28.95 Z"/>
</g>
</defs>

<g transform="matrix( 1, 0, 0, 1, 0,0) ">
<use xlink:href="#Layer0_0_FILL"/>
</g>
</svg>
