
<svg xmlns="http://www.w3.org/2000/svg" version="1.1" xmlns:xlink="http://www.w3.org/1999/xlink" preserveAspectRatio="none" x="0px" y="0px" width="550px" height="400px" viewBox="0 0 550 400">
<defs>
<g id="Layer0_0_FILL">
<path fill="#FFFFFF" stroke="none" d="
M 5.1 120.25
Q 4.6 121.75 2.85 121.95 1.3 122.15 -0.1 121.4 -1.05 120.9 -3.2 119.15 -5.1 117.55 -6.45 117.1 -7.9 116.6 -10.3 116.75 -13.65 116.95 -14.2 116.9 -16.1 116.8 -17.65 115.85
L -18.05 115.45
Q -17.9 114.2 -18.05 112.9 -18.5 110.55 -18.95 111.05 -20.55 113.05 -23.2 112.35 -25.45 111.8 -27.2 109.75 -29.85 106.5 -31.6 102.85 -33.35 99.1 -33.75 98.05 -35.4 93.8 -36.45 89.35 -36.75 88.2 -37.15 85.8
L -37.6 81.85 -37.5 79.5
Q -37.5 77.75 -37.35 75.85 -37.25 74.3 -36.85 71.95 -36.3 68.55 -36.25 68.05
L -36.25 67.9
Q -36.4 68.25 -37.75 72 -37.8 73.65 -38.35 75.15
L -38.55 76.95 -38.5 77.35
Q -38.9 86.95 -37.65 92.4 -36.5 97.6 -34.85 101.7
L -33.8 104
Q -32.15 108.15 -27.1 114.65 -25.65 116.35 -23.7 117.2 -21.5 118.15 -19.75 117.3 -19.7 117.7 -20.15 119 -20.45 120.05 -20.1 120.6 -18.6 122.7 -15.25 123.3 -11.9 123.9 -9.85 122.35 -8.85 121.65 -7.25 122.2 -6.3 122.55 -4.6 123.65 -4 124.05 -2.65 125.2 -1.45 126.25 -0.65 126.7 1.25 127.9 3.15 127.6 5.25 127.25 5.9 125.15 6.4 123.35 6 121.3 5.9 120.75 5.7 120.25 5.35 119.55 5.1 120.25
M 78.65 34.15
Q 76.3 22.65 69.5 17.8 63.35 13.45 55.35 15.45 47.55 17.35 41.2 24.3 34.55 31.7 32.2 41.85 28.95 51 29.85 69.95 30.7 88.5 35 106.45 39.65 125.85 46.2 135.15 53.75 145.8 61.95 139.95 62.4 136.25 64.05 132.75 66.45 127.45 66.7 126.7 69.6 118.15 66.85 99 63.3 84.65 65.45 71 67.9 55.3 77.6 43.4 77.2 43.15 77.55 42.65 77.75 42.35 78.45 41.25 79.85 38.55 78.65 34.15 Z"/>
</g>
</defs>

<g transform="matrix( 1, 0, 0, 1, 0,0) ">
<use xlink:href="#Layer0_0_FILL"/>
</g>
</svg>
