
<svg xmlns="http://www.w3.org/2000/svg" version="1.1" xmlns:xlink="http://www.w3.org/1999/xlink" preserveAspectRatio="none" x="0px" y="0px" width="550px" height="400px" viewBox="0 0 550 400">
<defs>
<g id="Layer0_0_FILL">
<path fill="#FFFF66" stroke="none" d="
M 83.55 59.65
Q 82.6 55.2 81.5 50.85 81.2 49.9 80.85 48.8 79.75 45.65 79.7 42.25 77.85 38.6 75.55 35.15 75 34.35 74.8 33.55 74.15 31 72.05 29.25 67.3 25.35 60.65 27.3 55 28.35 51.05 32.6 45.5 38.55 40.6 45.25 36.4 50.95 34.05 57.35 34.3 64.3 33.1 71.05 32.5 74.3 32.5 77.75 32.6 86.6 32.95 95.45 33.05 99.85 34.6 103.85 35.3 105.65 35.75 107.5 37.65 115.95 42.05 123.4 42.5 124.15 42.7 124.9 42.7 125.1 42.75 125.3 44.6 127.35 46.75 129.2 55.15 136.45 61.75 128.8 70.25 126.85 74.45 119 84.85 99.15 86.45 76.95 86.5 76.25 86.5 75.7 85.7 70.15 84.6 64.65 84.1 62.2 83.55 59.65
M -18.05 73.5
Q -17.95 73.45 -17.95 73.35
L -18.1 73.35
Q -18.2 73.45 -18.25 73.5
L -18.35 73.55
Q -18.5 73.65 -18.65 73.75 -18.7 73.75 -18.75 73.85 -18.65 73.85 -18.6 73.85 -18.3 73.7 -18.05 73.5
M -16.3 30.5
Q -27.2 27.95 -35.85 21.85 -38 20.35 -40.6 19.15 -45.95 16.85 -50.4 13.25 -52.25 11.75 -53.5 9.85 -56.4 8.1 -59.3 6.2 -60.1 5.6 -60.5 4.95 -60.65 5 -60.8 5 -61.3 5.95 -61.9 6.8 -64.95 10.8 -66.6 15.4 -67.95 19.25 -68.95 22.95 -68.95 23 -68.95 23.05 -69.35 24.15 -69.65 25.2 -69.9 26.15 -70.2 27 -70.45 27.65 -70.5 28.3
L -70.5 28.4
Q -71 28.45 -71.45 28.45 -71.7 29.65 -71.65 30.9 -71.65 31.7 -71.75 32.55
L -71.75 32.6
Q -72.15 32.6 -72.5 32.6 -73.2 38.95 -74.1 45.1 -74.6 48 -74.95 50.9 -76.3 62.55 -75.85 74.45 -75.75 77.85 -75.3 81.15 -75.2 81.35 -75.1 81.55 -75.15 81.75 -75.2 81.85 -75.1 82.55 -75 83.25 -74.85 84.05 -74.2 84.55 -74.2 84.65 -74.2 84.7 -74.15 85.35 -73.85 85.9 -73.55 86.45 -73.1 86.95 -73.05 87.05 -72.95 87.05 -73.05 87.3 -73.1 87.65
L -73.25 88.05 -73.4 88.95
Q -73.6 90.05 -73.45 90.55 -73.3 91.2 -72.75 91.65 -72.25 92.05 -71.6 92.1 -70.95 92.1 -70.4 91.7 -69.8 91.3 -69.6 90.7
L -69.45 89.85
Q -68.6 89.6 -67.95 88.8 -66.55 87.1 -64.95 85.65 -64.95 85.35 -64.95 85.05 -64.95 84.7 -64.95 84.4 -63.2 82.9 -61.7 81.25 -60.5 79.85 -58.85 79.35 -56.75 78.7 -54.65 78.2
L -54.65 78.15
Q -54.5 77.75 -53.65 77.55 -50.1 76.85 -46.5 76.4 -46.45 76.4 -46.4 76.4 -46.3 76.4 -46.2 76.4 -43.45 76.05 -40.65 75.9 -35.5 75.05 -31.35 77.3 -30.5 77.75 -29.6 78.25 -29.55 78.25 -29.5 78.3 -29.1 78.65 -28.6 78.75 -28.4 78.85 -28.2 78.95 -28.05 79.15 -27.65 79.55 -27.05 80.1 -25.8 81.15
L -25.1 81.85
Q -24.3 82.5 -23.25 82.25 -22.8 82.2 -22.5 81.95 -22.4 82 -22.3 82.05 -22.1 81.95 -21.9 81.85 -21.9 81.8 -21.9 81.75 -21.9 81.45 -21.85 81.2 -21.85 81.15 -21.85 81.1 -21.6 80.45 -21.75 79.85 -21.7 79.3 -21.55 78.75 -21.3 77.45 -20.9 76.15 -20.7 75.1 -20.65 73.95 -20.6 72.6 -19.95 71.65 -19.85 71.55 -19.85 71.3 -19.75 71.25 -19.75 71.2 -19.7 71.2 -19.6 71.1
L -19.5 71 -19.5 70.95
Q -19.5 70.8 -19.5 70.7
L -18.6 69.85
Q -17.9 69.35 -17.7 69 -17.65 68.95 -17.6 68.9 -17.5 68.75 -17.45 68.7 -13.7 67.25 -10.35 64.9 -9.05 63.95 -7.4 63.45 -5.1 62.55 -2.85 61.5 -2.15 61.15 -1.3 60.9 6.35 58.8 14.05 56.7 15.8 56.75 17.6 56.8
L 17.6 56.85
Q 17.6 56.95 17.6 57 17.6 57.15 17.6 57.4 20.8 54.2 21.45 48.7 21.85 45 23.1 41.6 23.6 40.25 23.7 39.1 23.85 38.95 24.05 38.8
L 24.45 38.05
Q 24.8 37.7 24.9 37.5
L 25.05 37.15 25.2 36.65 25.25 36.55
Q 25.3 36.35 25.25 36.15
L 25.3 36.05
Q 25.3 35.45 25.05 35.05 24.45 33.95 23.3 33.95 22.4 33.95 21.9 34.55 21.8 34.55 21.75 34.6 21.45 34.45 21.2 34.2 18.85 34.65 16.3 34.8 2.85 35.6 -9.8 32.15 -13.1 31.3 -16.3 30.5
M -40.85 -4
Q -40.95 -2.8 -41.05 -1.55 -41.55 2.25 -42.75 5.7 -43.35 7.45 -43.9 9.3 -42.75 9.65 -41.65 10.25 -36.9 12.7 -31.8 15.35 -30.3 16.1 -28.75 16.7 -25.6 17.85 -23.15 20 -23.15 20.05 -23.15 20.1 -23.15 20.3 -23.15 20.55 -23.15 20.65 -23.15 20.7 -16.7 22.45 -10.7 25.1 1.35 30.25 14.6 30.6 16.6 30.65 18.5 31.05 18.85 30.95 19.25 30.85 23.2 29.9 27.2 29.95 27.2 30 27.2 30.05 27.2 30.3 27.2 30.6 28.4 29.2 28.55 26.55 28.55 26.45 28.55 26.35 28.85 26.35 29.1 26.3 29.65 26.1 29.9 25.6 30.5 24.25 29.05 23.95 28.9 23.95 28.7 24 28.1 24.05 27.65 24.4 24.85 22.2 21.45 20.8 20 20.7 18.65 20.3 16.8 19.7 14.9 19.1 14.3 18.9 13.6 18.9 13.55 18.85 13.45 18.75 13.4 18.7 13.35 18.6 -7.2 13.85 -25.5 3.2 -32.35 -0.8 -39.1 -4.45 -40.1 -4.3 -40.85 -4 Z"/>
</g>
</defs>

<g transform="matrix( 1, 0, 0, 1, 0,0) ">
<use xlink:href="#Layer0_0_FILL"/>
</g>
</svg>
