
<svg xmlns="http://www.w3.org/2000/svg" version="1.1" xmlns:xlink="http://www.w3.org/1999/xlink" preserveAspectRatio="none" x="0px" y="0px" width="550px" height="400px" viewBox="0 0 550 400">
<defs>
<g id="Layer0_0_FILL">
<path fill="#FF6600" stroke="none" d="
M 45.85 32.8
Q 43 32.3 41.9 32.4 41.6 32.45 39.65 32.45 37.9 32.5 37.1 32.65 35.4 32.85 33 33.25 29.15 33.95 29.05 33.95 27.05 34.3 25.8 34.65 24.55 35.05 23.35 35.25 22.6 35.4 17.1 38.45
L 12.35 42.25 8.2 48.05
Q 5.55 53.3 4.5 54.95 3.55 56.5 3.25 57.2
L 2.95 57.9
Q 2.8 58.6 1.95 60.25 1.1 61.95 0.7 63.5 0.55 64.05 -0.65 70.95
L -0.85 83.15 0.05 92.15
Q 1.5 99.85 5.3 106.1 9.35 112.9 15.45 116.75 21.85 120.9 31.25 121.95 39.45 123 45.25 121.5 48.1 120.65 50.45 119.65 54 118.1 59.3 114.9 64.5 110.4 66.55 104.6 68 100.35 68.95 90.55 69.25 87.4 69.25 81.35 69.2 74.7 69.2 72.15 69.15 67.85 68.55 64.4 67.2 57.15 66.65 55.45
L 65.3 51.45
Q 63.55 46.95 60.3 41.9 58.7 39.5 58.3 39.05 57.95 38.55 56.85 37.6 55.7 36.6 55.25 36.2
L 50.25 33.6
Q 49.8 33.55 45.85 32.8 Z"/>
</g>
</defs>

<g transform="matrix( 1, 0, 0, 1, 0,0) ">
<use xlink:href="#Layer0_0_FILL"/>
</g>
</svg>
