
<svg xmlns="http://www.w3.org/2000/svg" version="1.1" xmlns:xlink="http://www.w3.org/1999/xlink" preserveAspectRatio="none" x="0px" y="0px" width="550px" height="400px" viewBox="0 0 550 400">
<defs>
<g id="MovieClips_Symbol_585_17_Layer0_0_FILL">
<path fill="#FFFFFF" stroke="none" d="
M 12.85 -3.8
Q 6.35 -13.8 0.2 -17.85 -5.15 -21.4 -11.85 -21.4
L -24.1 -22.25
Q -29.5 -21.25 -29.5 -10.45
L -27.8 5.4
Q -27.8 9.05 -30.65 35.4 -33.5 61.7 -33.5 83.6 -33.5 93.85 -28.25 96.05 -26.5 96.8 -23.8 96.75
L -19.9 96.5
Q -11.9 96.5 -8.25 92.45
L -4.95 89.35
Q -2.55 87.75 1.5 87.2
L 0.55 114.9
Q -0.05 127 -0.05 132.25 -0.05 139.85 5 141.45
L 17.85 142.05 54.65 139.5 54.6 138.25
Q 54.6 136 57.4 133
L 63.55 127.1
Q 72.5 118.2 72.5 108.2 72.5 102.45 71.1 100.7 70.35 99.75 68.1 99.75
L 67.5 99.7 67.15 99.45 67 73.95
Q 67.55 73.75 68.5 73.95
L 69.7 73.9
Q 70.7 73.15 70.7 66.5 70.7 56.9 69.95 54 69.65 53 68.15 51.45 65.45 48.6 65 22.2 63.5 22.65 62.05 23.3
L 60.6 23.65
Q 53.7 23.65 49.35 17.7 45.25 12.05 46.45 5.75
L 38.8 4.25
Q 28.1 4.25 19.7 10.5 8.35 18.85 2.25 37.8 -0.5 37.2 -0.75 36.2 -0.65 34.75 -1.05 33.6
L -1.55 33.9 -1.75 30.1
Q -1.75 24.15 2.3 13.25 7.05 0.45 12.85 -3.8 Z"/>
</g>
</defs>

<g transform="matrix( 1, 0, 0, 1, -32.9,-71.25) ">
<g transform="matrix( 1, 0, 0, 1, 0,0) ">
<use xlink:href="#MovieClips_Symbol_585_17_Layer0_0_FILL"/>
</g>
</g>
</svg>
