
<svg xmlns="http://www.w3.org/2000/svg" version="1.1" xmlns:xlink="http://www.w3.org/1999/xlink" preserveAspectRatio="none" x="0px" y="0px" width="550px" height="400px" viewBox="0 0 550 400">
<defs>
<g id="Graphics_Symbol_603_0_Layer0_0_FILL">
<path fill="#CCCCCC" stroke="none" d="
M 32.15 82.05
L 36.25 82.8
Q 36.75 82.8 38.25 83.85
L 37.9 84.2
Q 39.65 86.35 39.65 87.7 39.65 88.7 39.4 88.4
L 37.55 88.45 38.2 89.25
Q 38.55 89.75 38.55 90.4 38.55 91.4 37.35 92.5 36.05 93.7 34.4 93.7
L 31.6 93.6 31.6 90.9 31 90.35 30.6 89.45 32 87.95 28.8 87.8 28.9 86.05 29.05 85.25 27.9 85.25 27.6 84.15
Q 28.25 82.2 30.9 82.05
L 22.5 82 25.6 83.9
Q 25.3 84.8 24.8 84.9
L 26.25 88.7 26.5 90.05
Q 26.5 92.4 25.55 101.9
L 44.8 101.3
Q 44.8 92.45 44.25 88.6
L 44.1 98.85 42.65 99.25
Q 41.8 99.15 41.7 98
L 36.9 98.65 32.65 99 30.5 98.75
Q 30.5 97.95 30.1 97.6
L 31.15 96.95
Q 36.5 96.95 40.3 93.35 44.1 89.75 44.1 84.7 44.55 83 44.95 82.6 46.05 84.45 47 89.6 48.15 96 47.35 101.05 55.05 99.55 62.85 99 65.15 98.6 65.95 97.6 66.85 96.5 66.85 93.95 66.85 82.7 65.35 78.45
L 61.2 79.6 61.2 79.75 61.3 80.35 61.65 79.85 61.15 80.8 60.8 91.6
Q 61.1 92.5 60.75 92.85
L 60.7 93.75 65.65 93.55 65.1 94.15 59.75 96.3
Q 54.65 98 52.1 98
L 51.05 97.8
Q 50.7 97.55 50.7 96.75
L 50.75 95.65 49.95 95.55 49.85 94.4
Q 49.85 93.9 50.7 93.5
L 53.95 92.5
Q 52.15 92.5 50.85 91.6 49.55 90.65 49.55 89.3 48.25 88.8 47.6 88.3
L 47.4 88.05
Q 48.4 87.4 50.7 87.05
L 53.2 86.85
Q 54.8 86.35 56.25 87.3 57.7 88.25 57.7 89.85 57.7 91.25 55.15 92.3
L 59 91.85 57.35 84.55
Q 55.25 85.95 49.45 85.9
L 48.15 84.55 47.7 83.7 52.9 82 60.45 79.8
Q 46.45 82 32.15 82.05
M 12.7 84.3
L 12.45 84.3 12.35 83.25 12.45 82.5 17.9 81.8 1.55 79.6 1.4 95.9
Q 1.4 96.45 2.55 96.8
L 4.5 97.55 4.5 97.3
Q 3.75 96.7 3.05 94.5 2.05 91.2 2.05 86.3 2.05 84.25 2.8 82.6 3.8 80.45 5.75 80.7
L 5.85 81.05 5.9 82.25 6.75 81
Q 7.95 81.75 8.3 83
L 8.5 84.8 7.75 89.25
Q 7 93.9 7 95.55 7 96.5 7.8 98.55
L 18.5 100.95 21.5 101.5 21.3 101.1 21 99.5 20.95 98.45 14.05 97.95
Q 13.35 97.75 11.5 96.3
L 17.35 94.15 20.95 94.9 21.2 94.9 21.9 88.7 19.75 88.4
Q 19.65 90.95 17.75 92.4 16.25 93.5 14.65 93.5
L 13.25 93.3 13.1 90.2
Q 13.1 88.95 13.8 88.05 14.43984375 87.1640625 15.35 87.15 14.2892578125 87.1392578125 13.5 86.35 12.7 85.5 12.7 84.3
M -19.35 95.5
L -19.35 96.15 -18.45 96.1 -17.95 89.85 -20.8 89.8 -20 92.5
Q -19.35 94.8 -19.35 95.5
M -15.85 73.65
L -20.25 73.4 -20.55 81.95 -16.95 81.5 -15.85 73.65
M -13.6 53
L -15.3 54 -19.55 53.75 -19.85 62.25 -19.6 62.2 -19.6 61.8 -16.9 62.2 -14.5 64.1
Q -13.7 58.9 -13.6 53
M -14.15 36.8
L -18.95 36.25 -19.15 41.8
Q -17.15 42.2 -15.9 42.8
L -13.75 44.4 -14.15 36.8
M -14.4 32.35
L -14.7 27.6 -16.85 27.3 -18.7 26.65
Q -18.7 30.55 -18.85 32.4
L -14.4 32.35
M -15.05 13.6
L -18.85 13.45
Q -18.6 16.85 -18.6 22.25
L -15.5 21.9 -15.6 23.1 -15 23.7 -15.05 13.6
M -16.6 5.95
L -19.35 6 -19.15 8.45 -14.9 8.75 -14.85 5.55 -16.6 5.95
M -14.5 -6
L -19.4 -5.75 -19.75 0.05 -19.7 1.05 -18 0.65
Q -17.65 0.65 -15.95 1.85
L -14.75 2 -14.5 -6
M -18.15 -19.05
L -18.55 -15.2 -16.8 -15.55 -14.3 -15.3 -14.2 -18.9 -18.15 -19.05 Z"/>
</g>

<g id="Graphics_Symbol_641_0_Layer3_0_FILL">
<path fill="#666666" stroke="none" d="
M 61.2 79.75
L 61.2 79.6 60.85 79.7 60.45 79.8 61.2 79.75
M 52 95.55
L 50.75 95.65 50.7 96.75
Q 50.7 97.55 51.05 97.8
L 52.1 98
Q 54.65 98 59.75 96.3
L 65.1 94.15 65.65 93.55 60.7 93.75 60.75 92.85 59.35 93.1 59.55 93.9 57.85 93.8 52 95.55
M 57.35 84.55
L 58.35 82.75
Q 59.05 83.6 59.75 86.7
L 60.8 91.6 61.15 80.8
Q 57.9 83.15 53.1 84.1
L 48.15 84.55 49.45 85.9
Q 55.25 85.95 57.35 84.55
M 44.95 82.6
Q 44.55 83 44.1 84.7 45.1 86.5 44.25 88.6 44.8 92.45 44.8 101.3
L 46.3 101.3 47.35 101.05
Q 48.15 96 47 89.6 46.05 84.45 44.95 82.6
M 30.1 97.6
Q 30.5 97.95 30.5 98.75
L 32.65 99 36.9 98.65 41.7 98 41.75 96.2
Q 32.75 97.75 31.15 96.95
L 30.1 97.6
M 37.9 84.2
L 35.9 84.75 29.05 85.25 28.9 86.05 28.8 87.8 32 87.95 37.55 88.45 39.4 88.4
Q 39.65 88.7 39.65 87.7 39.65 86.35 37.9 84.2
M 8.5 84.8
L 8.3 83
Q 7.95 81.75 6.75 81
L 5.9 82.25
Q 5.9 83.25 5.15 85.25 4.4 87.2 4.4 90
L 5.3 96.35 5 97.25 4.5 97.3 4.5 97.55
Q 4.35 98.3 4.7 99.25 5 100.15 5.65 100.45 6.3 100.75 6.95 100.25 7.55 99.75 7.8 98.55 7 96.5 7 95.55 7 93.9 7.75 89.25
L 8.5 84.8
M 13.2 96.5
L 15.1 95.65 20.95 94.9 17.35 94.15 11.5 96.3
Q 13.35 97.75 14.05 97.95
L 20.95 98.45 21 96.85 13.7 97.75 13.2 96.5
M 12.7 84.3
Q 12.7 85.5 13.5 86.35 14.2892578125 87.1392578125 15.35 87.15
L 15.4 87.15
Q 18.05 87.15 18.05 86.7
L 18.1 87.1 17.95 87.9 19.75 88.4 21.9 88.7 22.6 87.25 23.4 88.95
Q 23.95 89 23.85 91.2
L 23.45 96.15 23.1 99.45 23.75 101.8 25.55 101.9
Q 26.5 92.4 26.5 90.05
L 26.25 88.7 24.8 84.9 12.7 84.3
M -20.95 86
L -22 86.3
Q -22.4 86.6 -22.3 86.95
L -21.75 87.55 -20.75 87.75 -21.8 88
Q -22.35 88.15 -22.55 88.5 -22.75 88.8 -22.55 89.1
L -21.9 89.6 -20.8 89.8 -12.75 89.95 -12.7 89.5
Q -12.45 89.05 -11.3 88.55
L -11.95 88.1
Q -13.6 87.45 -15.05 87.45
L -16.8 87.55
Q -16.6 86.95 -16.75 86.65
L -17.3 85.8 -20.95 86
M -15.4 70.8
Q -17.15 69.85 -17.95 69.85 -18.7 69.85 -20.15 70.4
L -21.75 71.8 -20.25 73.4 -15.85 73.65 -14 73.35
Q -13.1 73 -12.9 72.45 -12.75 71.85 -13.4 71.4 -14.05 70.9 -15.4 70.8
M -13.6 51.55
L -19.45 51.15 -21.6 51.5
Q -22.55 51.85 -22.6 52.4 -22.65 52.95 -21.75 53.35 -20.9 53.75 -19.55 53.75
L -15.3 54 -13.6 53 -12.95 52.15 -13.6 51.55
M -13.6 11.5
Q -14.15 11.1 -15 11.15
L -15 10.8 -19 10.8 -21.05 11.15
Q -21.95 11.4 -22.2 11.85 -22.5 12.25 -22.1 12.65 -21.7 13.05 -20.75 13.3
L -15.05 13.6 -13.65 13.25
Q -13.05 12.9 -13.05 12.4 -13.05 11.85 -13.6 11.5
M -14.7 -22.8
L -14.8 -21.45 -16.05 -21.55 -18.15 -21.95 -19.6 -20.1 -18.15 -19.05 -14.2 -18.9
Q -12.1 -19 -11 -19.65 -9.9 -20.3 -10.1 -21.1 -10.35 -21.9 -11.8 -22.4
L -14.7 -22.8
M -21.55 -6.9
L -21.2 -6.05 -21 -5.8 -19.4 -5.75 -14.5 -6 -11.25 -6.3
Q -11.2 -6.2 -11.15 -6.25
L -11.1 -7
Q -11.1 -7.65 -11.35 -7.9
L -11.9 -8.15 -20.1 -7.9 -21.55 -6.9 Z"/>

<path fill="#CCCCCC" stroke="none" d="
M 57.85 93.8
L 59.55 93.9 59.35 93.1 57.85 93.8
M 22.5 101.65
L 23.75 101.8 23.1 99.45 22.6 101.55 22.5 101.65
M 23.85 91.2
Q 23.95 89 23.4 88.95 23.75 91.4 23.45 96.15
L 23.85 91.2
M -15.25 69.8
L -20.1 69.25 -20.15 70.4
Q -18.7 69.85 -17.95 69.85 -17.15 69.85 -15.4 70.8
L -15.25 69.8
M -20 66.15
L -20.05 67.4 -18.25 67.45 -20 66.15
M -19.45 51.15
L -13.6 51.55 -13.6 50.45 -19.45 50.45 -19.45 51.15
M -13.65 48.4
L -13.65 47.55
Q -14.3 48.3 -15.65 48.4
L -13.65 48.4
M -16.2 48.4
L -19.35 47.15 -19.4 48.4 -16.2 48.4
M -14.25 34.9
L -14.3 34.35 -16.65 34.35 -14.25 34.9
M -14.4 -9.75
L -14.4 -11.05
Q -16 -10.2 -16.95 -10.2
L -18.9 -11.75 -19.1 -9.8 -14.4 -9.75 Z"/>

<path fill="#8CC157" stroke="none" d="
M 57.7 89.85
Q 57.7 88.25 56.25 87.3 54.8 86.35 53.2 86.85 54.6 87.45 55.05 87.8
L 55.15 88.05
Q 53.85 89.35 52.7 89.45
L 49.55 89.3
Q 49.55 90.65 50.85 91.6 52.15 92.5 53.95 92.5
L 55.15 92.3
Q 57.7 91.25 57.7 89.85
M -15.9 42.8
L -15.45 43.3
Q -17.2 44.4 -17.6 44.4 -18.25 44.4 -18.65 44
L -19.45 42.8 -20.05 43.9 -20.25 44.95
Q -20.25 45.95 -19.35 47.15
L -16.2 48.4 -15.65 48.4
Q -14.3 48.3 -13.65 47.55
L -13.55 46.1 -13.75 44.4 -15.9 42.8
M -18.55 24.05
L -18.65 22.5 -19.9 24.9 -18.7 26.65 -16.85 27.3 -14.7 27.6
Q -13.85 27.55 -13.75 27.25 -13.55 26.75 -15 23.7
L -15.6 23.1
Q -15.8 23.35 -16.85 23.7
L -18.55 24.05 Z"/>

<path fill="#FFFFFF" stroke="none" d="
M 47.4 88.05
L 47.6 88.3
Q 48.25 88.8 49.55 89.3
L 52.7 89.45
Q 53.85 89.35 55.15 88.05
L 55.05 87.8
Q 54.6 87.45 53.2 86.85
L 50.7 87.05
Q 48.4 87.4 47.4 88.05
M 60.45 79.8
L 52.9 82 47.7 83.7 48.15 84.55 53.1 84.1
Q 57.9 83.15 61.15 80.8
L 61.65 79.85 61.3 80.35 61.2 79.75 60.45 79.8
M 58.35 82.75
L 57.35 84.55 59 91.85 55.15 92.3 53.95 92.5 50.7 93.5
Q 49.85 93.9 49.85 94.4
L 49.95 95.55 50.75 95.65 52 95.55 57.85 93.8 59.35 93.1 60.75 92.85
Q 61.1 92.5 60.8 91.6
L 59.75 86.7
Q 59.05 83.6 58.35 82.75
M 40.3 93.35
Q 36.5 96.95 31.15 96.95 32.75 97.75 41.75 96.2
L 41.7 98
Q 41.8 99.15 42.65 99.25
L 44.1 98.85 44.25 88.6
Q 45.1 86.5 44.1 84.7 44.1 89.75 40.3 93.35
M 35.9 84.75
L 37.9 84.2 38.25 83.85
Q 36.75 82.8 36.25 82.8
L 32.15 82.05 30.9 82.05
Q 28.25 82.2 27.6 84.15
L 27.9 85.25 29.05 85.25 35.9 84.75
M 5.15 85.25
Q 5.9 83.25 5.9 82.25
L 5.85 81.05 5.75 80.7
Q 3.8 80.45 2.8 82.6 2.05 84.25 2.05 86.3 2.05 91.2 3.05 94.5 3.75 96.7 4.5 97.3
L 5 97.25 5.3 96.35 4.4 90
Q 4.4 87.2 5.15 85.25
M 15.1 95.65
L 13.2 96.5 13.7 97.75 21 96.85 20.95 98.45 21 99.5 21.3 101.1 21.5 101.5 21.95 101.9 22.5 101.65 22.6 101.55 23.1 99.45 23.45 96.15
Q 23.75 91.4 23.4 88.95
L 22.6 87.25 21.9 88.7 21.2 94.9 20.95 94.9 15.1 95.65
M 17.95 87.9
L 18.1 87.1 18.05 86.7
Q 18.05 87.15 15.4 87.15
L 15.35 87.15
Q 14.43984375 87.1640625 13.8 88.05 13.1 88.95 13.1 90.2
L 15.6 89.25
Q 17.6 88.35 17.95 87.9
M 17.9 81.8
L 12.45 82.5 12.35 83.25 12.45 84.3 12.7 84.3 24.8 84.9
Q 25.3 84.8 25.6 83.9
L 22.5 82 17.9 81.8
M -21.25 82.4
L -21.25 83.85 -20.95 84.4
Q -20.05 84.05 -19.25 83.15
L -18.55 82.15 -19.1 82.15 -20.7 82 -21.25 82.4
M -17.3 63.85
Q -16.9 63.15 -16.9 62.2
L -19.6 61.8 -19.6 62.2
Q -19.6 63.15 -19.2 63.85
L -18.25 64.5
Q -17.7 64.5 -17.3 63.85
M -11.8 68.05
L -14.95 67.65 -15.25 67.65 -18.25 67.45 -20.05 67.4 -20.6 67.55 -21 68 -21 68.55 -20.65 69.05 -20.1 69.25 -15.25 69.8 -11.75 69.6 -11.8 68.05
M -15.9 42.8
Q -17.15 42.2 -19.15 41.8
L -19.45 42.8 -18.65 44
Q -18.25 44.4 -17.6 44.4 -17.2 44.4 -15.45 43.3
L -15.9 42.8
M -21.75 33.65
L -20.7 34.15 -18.9 34.35 -16.65 34.35 -14.3 34.35 -13.25 34.05
Q -12.85 33.7 -12.9 33.3 -12.95 32.9 -13.4 32.65
L -14.4 32.35 -20.55 32.55
Q -21.4 32.7 -21.7 33 -22.05 33.3 -21.75 33.65
M -15.6 23.1
L -15.5 21.9 -18.6 22.25 -18.65 22.5 -18.55 24.05 -16.85 23.7
Q -15.8 23.35 -15.6 23.1
M -19.15 8.45
L -20.15 8.65 -20.75 9.3
Q -20.9 9.7 -20.65 10.05
L -19.95 10.65 -19 10.8 -15 10.8 -13.8 10.55
Q -13.3 10.25 -13.25 9.8 -13.2 9.35 -13.65 9.05 -14.15 8.7 -14.9 8.75
L -19.15 8.45
M -15.95 1.85
Q -17.65 0.65 -18 0.65
L -19.7 1.05 -20.1 1.2 -20.35 1.95 -20.25 2.7 -19.95 2.85 -18.1 2.95
Q -16.9 2.75 -15.95 1.85
M -14.8 -21.45
L -14.7 -22.8
Q -16.15 -24.25 -16.9 -24.25
L -18.3 -23.85 -19.1 -23.25 -18.5 -22.35 -18.15 -21.95 -16.05 -21.55 -14.8 -21.45
M -18.65 -15
Q -18.5 -13.2 -18.2 -12.7 -17.95 -12.3 -17.15 -12.2
L -16.1 -13.1 -15.15 -14.2 -16.8 -15.55 -18.55 -15.2 -18.65 -15
M -20.45 -9.5
Q -21.1 -9.2 -21.2 -8.9 -21.1 -8.35 -20.1 -7.9
L -11.9 -8.15
Q -11.9 -8.8 -12.6 -9.25 -13.35 -9.75 -14.4 -9.75
L -19.1 -9.8 -20.45 -9.5 Z"/>

<path fill="#6A6BB7" stroke="none" d="
M 38.2 89.25
L 37.55 88.45 32 87.95 30.6 89.45 31 90.35 31.6 90.9 31.6 93.6 34.4 93.7
Q 36.05 93.7 37.35 92.5 38.55 91.4 38.55 90.4 38.55 89.75 38.2 89.25
M -14.2 64.85
L -14.5 64.1 -16.9 62.2
Q -16.9 63.15 -17.3 63.85 -17.7 64.5 -18.25 64.5
L -19.2 63.85
Q -19.6 63.15 -19.6 62.2
L -19.85 62.25 -20.9 64.1
Q -20.9 65.1 -20 66.15
L -18.25 67.45 -15.25 67.65 -14.95 67.65
Q -14.1 66.75 -14.1 65.8
L -14.2 64.85
M -14.85 5.55
Q -13.5 3.55 -13.5 3.25
L -14.75 2 -15.95 1.85
Q -16.9 2.75 -18.1 2.95
L -19.95 2.85 -20.25 3.45 -20.35 4.3
Q -20.35 5.4 -19.35 6
L -16.6 5.95 -14.85 5.55 Z"/>

<path fill="#993300" stroke="none" d="
M 19.75 88.4
L 17.95 87.9
Q 17.6 88.35 15.6 89.25
L 13.1 90.2 13.25 93.3 14.65 93.5
Q 16.25 93.5 17.75 92.4 19.65 90.95 19.75 88.4
M -20.55 81.95
L -20.7 82 -19.1 82.15 -18.55 82.15 -19.25 83.15
Q -20.05 84.05 -20.95 84.4
L -20.95 86 -17.3 85.8 -16.25 84.3 -15.75 83.3 -16.95 81.5 -20.55 81.95
M -21.25 83.85
L -21.25 82.4 -21.55 83.2 -21.25 83.85
M -18.2 -12.7
Q -18.5 -13.2 -18.65 -15
L -19.6 -13.85
Q -19.95 -13.4 -18.9 -11.75
L -16.95 -10.2
Q -16 -10.2 -14.4 -11.05
L -13.45 -11.75
Q -13.1 -12 -13.1 -12.6
L -14.3 -15.3 -16.8 -15.55 -15.15 -14.2 -16.1 -13.1 -17.15 -12.2
Q -17.95 -12.3 -18.2 -12.7 Z"/>

<path fill="#999999" stroke="none" d="
M -18.9 34.35
Q -19.35 34.5 -19.45 35.25 -19.4 36.05 -18.95 36.25
L -14.15 36.8 -12.6 36.5
Q -12.05 36.2 -12.1 35.8 -12.15 35.4 -12.8 35.15
L -14.25 34.9 -16.65 34.35 -18.9 34.35 Z"/>
</g>

<g id="Graphics_Symbol_641_0_Layer2_0_FILL">
<path fill="#000000" stroke="none" d="
M 16.8 -4.15
Q 16.8 -5.15 11.05 -11.05 3.4 -18.85 1.05 -21.75 -1.65 -25.05 -9.8 -25.2
L -23.1 -24.75
Q -25.25 -24.75 -28.9 -20.3 -32.35 -16.05 -32.35 -14.1 -32.35 -10.05 -31.3 -4.55 -30.3 1 -30.3 2.9 -30.3 22.85 -30.8 36.9
L -30.65 35.4
Q -27.8 9.05 -27.8 5.4
L -29.5 -10.45
Q -29.5 -13.65 -28.25 -16.9 -27.05 -19.95 -25.45 -21.4 -23.75 -22.9 -22.65 -21.55 -21.4 -20.05 -21.4 -15.1
L -22.25 0.6
Q -21.1 14.5 -21.1 21 -21.1 22.1 -21.85 25.4 -22.65 31.65 -22.65 47.6
L -22.1 52.7
Q -21.6 57.5 -21.6 60.6 -21.6 61.9 -22.55 70 -23.55 80.2 -23.55 92.05 -23.55 93.5 -22.8 94.2 -22 94.95 -21.8 96.2
L -27.3 96.5
Q -29.85 96.5 -31.9 90.6 -33.5 86 -33.5 83.6 -33.5 73.7 -32.9 62.85
L -32.95 63.05
Q -33.6 66.65 -34.75 71.15 -35.6 75.5 -35.6 83.25 -35.6 92.55 -31.15 96.15 -26.75 99.7 -15.4 99.7 -9.4 99.7 -6.95 97.65 -5.6 96.55 -1.65 90
L -1.8 121.1
Q -1.8 133.05 -0.75 137.5 0.45 142.5 4.1 143.9 6.9 145 15.2 145
L 42.15 144.15
Q 56.25 143.05 57.65 140.65 59.4 137.7 62.85 134.45
L 68.65 129.05
Q 75.25 122.15 75.25 111.4 75.25 103.95 74.1 100.9 73.55 99.5 71.55 97.55 67.8 93.9 67.8 77.5 67.8 76.85 67.95 76.65 68 76.55 68.3 76.45
L 69.05 76.85 70.25 77.2
Q 73.15 77.2 73.15 62.8
L 70.3 46.9
Q 67.4 30.7 67.4 28.8
L 68.45 16.35 65.65 16.35 65.35 18.9
Q 64.45 20.9 61 20.9 56.4 20.9 53.6 16.7
L 47.85 5.65
Q 49.7 4.65 49.75 5.65
L 49.55 2.95
Q 38 3.15 35.55 2.8
L 29 2.4
Q 24.1 2.4 12.25 17.65 6.35 25.25 1.3 32.85
L 0.8 32.7 1 32.1
Q 1.65 22.5 9.35 10.45
L 14.5 2.4
Q 16.8 -1.65 16.8 -4.15
M 0.2 -17.35
Q 5.7 -13.2 12.85 -3.8 7.05 0.45 2.3 13.25 -1.75 24.15 -1.75 30.1
L -1.55 33.9 -1.05 33.6
Q -0.75 36.3 -0.55 52.9 -0.55 96.5 -12.5 96.5
L -15 96 -11.7 66.9
Q -11.1 61.35 -11.1 51.6
L -11.6 41.6 -12.75 19.9 -11.8 -20.3
Q -11.8 -21.85 -12.05 -22.1 -5.8 -21.95 0.2 -17.35
M 62.05 23.3
Q 63.5 22.65 65 22.2 65.45 48.6 68.15 51.45 69.65 53 69.95 54 70.7 56.9 70.7 66.5 70.7 73.2 63 76.05 53.8 79.5 29.65 79.5
L 18.2 78.95 1.65 77.1
Q 0 67 0.9 55.15 1.95 42 5.85 31.25 15.75 4.25 38.8 4.25
L 46.45 5.75
Q 45.25 12.05 49.35 17.7 53.7 23.65 60.6 23.65
L 62.05 23.3
M 1.4 95.9
Q 1.55 85 2.05 81.75 2.35 79.8 3.2 79.95
L 8.25 80.65 12.6 81.15 27 81.75 37.65 82.05
Q 47.4 82.05 50.4 81.75 56.55 81.15 65.35 78.45
L 66.25 87.85
Q 66.85 93.8 66.85 96.15 66.85 98.65 60.8 99.95 51.8 101.9 28.3 101.9 18.45 101.9 9.3 99.15 2.6 97.1 1.4 95.9
M 71.95 102.7
Q 72.5 105.2 72.5 108.2 72.5 118.65 66.6 125.1
L 60.85 130.85
Q 57.15 134.7 54.65 138.95
L 30.9 141.6 17.85 142.05 4.25 141.2
Q -0.05 139.6 -0.05 132.25 -0.05 128.05 0.4 118.35
L 1.25 100.5 1.25 99.95
Q 3.4 102.6 14 103.75
L 30.45 104.55
Q 37.4 104.55 53.05 101.9
L 69.75 99.25
Q 71.2 99.25 71.95 102.7
M -13.3 -22.1
L -14.2 -19 -15.25 -19
Q -14.65 27.6 -14.05 39.55 -13.6 48.35 -13.6 51.95 -13.6 58.7 -15.2 69.45 -17.4 84.55 -18.45 96.1
L -19.5 96.15
Q -19.1 94.6 -19.9 93.55 -20.85 92.25 -20.85 90.65 -20.85 52 -19.7 36.45 -18.6 27.4 -18.6 21.45 -18.6 13.6 -19.75 0.05
L -17.8 -22.15 -13.3 -22.1 Z"/>
</g>

<g id="Graphics_Symbol_641_0_Layer1_0_FILL">
<path fill="#000000" fill-opacity="0.25098039215686274" stroke="none" d="
M 13.05 -4.95
Q 5.7 -17.05 0.15 -20.45 -5.4 -23.85 -8.2 -24.05 -11 -24.25 -20.4 -24.25 -24.85 -24.25 -28.55 -19.15 -31.55 -15.05 -31.55 -13 -31.55 -9.45 -29.85 -2.1 -28.15 5.25 -28.15 11.45
L -31.1 38.8
Q -34.1 68.55 -34.1 83.85 -34.1 91.65 -30.4 95.85 -26.7 100.1 -19.9 100.1 -12.4 100.1 -8.6 96.6 -4.8 93.05 -1.05 82.65
L 0.05 93.6 -1.15 107.05
Q -2.35 121 -2.35 128.5 -2.35 134.8 -0.05 138 2.3 141.2 7.8 142.5 12.65 143.65 22.55 143.9
L 45.55 143.95
Q 50.2 143.95 53.15 141.65
L 59.8 135.2 66.2 129.6 70.4 125.35
Q 73.5 121.3 73.5 112.9 73.5 105.95 71.55 98.85 67.95 85.5 66.15 76.5 68.7 76.35 70.8 72.95 73.05 69.2 73.05 63.95 73.05 59.05 70.2 51.3 67.35 43.5 66.65 18.4
L 61.65 21.65
Q 60.25 22.5 57.85 22.5 54.8 22.5 53.05 19.5
L 50.05 9.15
Q 48.4 2.95 37.05 3.2 25.65 3.4 16.7 11.65 5.3 22.15 0.3 42 1.6 25.3 8.45 10.05
L 12.4 1.2
Q 13.8 -2.65 13.05 -4.95
M -25.7 -2.4
Q -25.7 -9.65 -24.3 -12.05 -21.25 -17.35 -10.4 -17.35 6.35 -12.4 6.35 -8.6 6.35 -3.3 -1.1 10.3
L -8.55 24.05
Q -8.55 28.55 -6.4 40.4 -4.25 52.3 -4.25 56.45 -4.25 71 -8.8 83.1 -12.9 94 -16.5 94 -19.4 94 -23.65 90.35 -28.95 85.8 -28.95 79.7 -28.95 72.2 -27.3 53.2 -25.7 34.2 -25.7 -2.4
M 57.95 28.75
L 58 30.45 57.2 45.5
Q 57.2 46.05 59.1 50.75 61 56.95 61 64.8 61 74.3 56.85 77.4 53.8 79.7 45.45 79.7
L 23.25 78.6 6.4 76.1 5.9 58.3
Q 5.9 46.75 8.75 40.65 11 35.9 17.45 30.5 20.05 26.35 22.95 23.1 28.65 16.7 35.5 16.7 37 16.7 42.8 23.8 49.85 30.5 57.95 28.75
M 0.35 46.3
L 0.6 48.05 0.35 50.25 0.35 46.3
M 12.7 83.8
L 11.7 83.6 32.65 84.15 22.3 84.2 12.7 83.8
M 11.6 81.35
L 13.9 80.8
Q 16.9 80.4 21.4 80.8
L 23.15 80.85 11.6 81.35
M 9.1 87.7
Q 9.1 86.85 9.65 86.35 10.15 85.9 10.85 85.9
L 43.85 86.85
Q 55.05 86.85 57.3 84.25 58.25 88.5 57.9 97 58.25 102.7 63.1 100 63.2 101.05 65.2 104.2 67.1 107.3 67.1 108.55 67.1 113.05 60.9 119.4 57.3 123.15 50.25 128.5 46.95 131 39.5 132.95 33.3 134.55 30.2 134.55
L 18.6 134.05
Q 14.85 133.4 12.9 130.95 11.5 129.2 9.35 119.3 7.3 109.8 7.3 106.35
L 7.5 104.75 7.7 103.85 13.7 103.5
Q 13.7 100.9 11.4 95.85 9.1 90.8 9.1 87.7 Z"/>
</g>

<g id="Graphics_Symbol_641_0_Layer0_0_FILL">
<path fill="#FFFFFF" fill-opacity="0.25098039215686274" stroke="none" d="
M 33.05 32.9
Q 25.45 33.3 20.5 40.1 14.8 47.95 14.8 61.75 14.8 65.2 16.25 66.55 17.1 67.35 19.45 68.3 24.05 70.85 24.05 83.4 24.05 87.25 23.45 94.75 22.7 104.45 22.5 108.65
L 17.1 109.45
Q 15.85 110.2 15.85 114.3 15.85 122.2 19.35 126.3 22.35 129.8 27.05 129.8 34.45 129.8 44.3 121.45 53.3 113.8 54.7 108.55
L 54.05 107.9
Q 52.8 107.3 50 107.25 49.1 90.4 48.5 86.25
L 48.1 83.2 48.85 75.8 48 65.65
Q 48 64.95 49.65 61.7 51.25 58.45 51.25 52.8 51.25 43.55 45.55 37.85 40.25 32.45 33.05 32.9
M -17.5 -19.85
Q -17.15 -14.85 -17.15 -11.6 -17.75 -9.2 -18.3 -1.25 -19.5 14.6 -19.5 42.65
L -18.75 63.9 -19.75 85.6
Q -19.75 92.3 -18.2 94.45 -17.45 95.5 -15.8 95.5 -10.4 95.5 -7.7 82.75 -5.1 70.45 -5.1 46.85 -5.1 39.6 -6.35 32.8 -7.65 26 -7.65 23.55 -7.65 6.4 -5.95 -2
L -4.8 -6.8
Q -4.25 -8.9 -4.25 -10.75 -4.25 -17.2 -6.1 -18.7 -8.45 -20.55 -17.5 -19.85 Z"/>
</g>
</defs>

<g transform="matrix( 1, 0, 0, 1, -33.5,-72.6) ">
<g transform="matrix( 1, 0, 0, 1, 0,0) ">
<g transform="matrix( 1, 0, 0, 1, 0,0) ">
<use xlink:href="#Graphics_Symbol_603_0_Layer0_0_FILL"/>
</g>
</g>

<g transform="matrix( 1, 0, 0, 1, 0,0) ">
<g transform="matrix( 1, 0, 0, 1, 0,0) ">
<use xlink:href="#Graphics_Symbol_641_0_Layer3_0_FILL"/>
</g>

<g transform="matrix( 1, 0, 0, 1, 0,0) ">
<use xlink:href="#Graphics_Symbol_641_0_Layer2_0_FILL"/>
</g>

<g transform="matrix( 1, 0, 0, 1, 0,0) ">
<use xlink:href="#Graphics_Symbol_641_0_Layer1_0_FILL"/>
</g>

<g transform="matrix( 1, 0, 0, 1, 0,0) ">
<use xlink:href="#Graphics_Symbol_641_0_Layer0_0_FILL"/>
</g>
</g>
</g>
</svg>
