
<svg xmlns="http://www.w3.org/2000/svg" version="1.1" xmlns:xlink="http://www.w3.org/1999/xlink" preserveAspectRatio="none" x="0px" y="0px" width="550px" height="400px" viewBox="0 0 550 400">
<defs>
<g id="Layer0_0_FILL">
<path fill="#000000" stroke="none" d="
M 260.8 62.85
L 255 77.7 295 80.25 289.2 64.75 260.8 62.85
M 255 77.7
L 275 93.5 295 80.25 255 77.7
M 274.35 28.65
L 268.55 42.2 280.8 43.5 274.35 28.65
M 282.1 46.7
L 267.9 45.4 262.1 59.6 287.9 61.55 282.1 46.7 Z"/>
</g>

<path id="Layer0_0_1_STROKES" stroke="#FFFFFF" stroke-width="2" stroke-linejoin="round" stroke-linecap="round" fill="none" d="
M 282.1 46.7
L 287.9 61.55 262.1 59.6 267.9 45.4 282.1 46.7 Z
M 268.55 42.2
L 274.35 28.65 280.8 43.5 268.55 42.2 Z
M 295 80.25
L 275 93.5 255 77.7 260.8 62.85 289.2 64.75 295 80.25 255 77.7"/>
</defs>

<g transform="matrix( 1, 0, 0, 1, 0,0) ">
<use xlink:href="#Layer0_0_FILL"/>

<use xlink:href="#Layer0_0_1_STROKES"/>
</g>
</svg>
