
<svg xmlns="http://www.w3.org/2000/svg" version="1.1" xmlns:xlink="http://www.w3.org/1999/xlink" preserveAspectRatio="none" x="0px" y="0px" width="550px" height="400px" viewBox="0 0 550 400">
<defs>
<g id="MovieClips_Symbol_228_40_Layer1_0_FILL">
<path fill="#354466" stroke="none" d="
M 7.15 -26.25
Q 3.7 -25.7 1.85 -22.5 -1.5 -16.7 -2 -9.7 -2.45 -3.05 -1.7 3.85 -1.2 8.7 0.3 13.5 2.1 19.3 5.2 24.5
L 5.75 25.55
Q 6.3 26.6 6.5 26.9
L 7.7 28.55
Q 7.9 28.9 8.25 29.6
L 8.95 30.45
Q 9 30.55 9.8 31.95 10.3 32.8 10.85 33.15 11.65 33.6 12.4 33.35 12.85 33.3 13.3 33.05 13.8 32.8 14.3 32.3 15.4 31.35 16.4 30.9
L 17.85 30.2
Q 18.1 30.1 18.75 29.7 26.65 26.5 34.85 23.75 40.5 21.95 45.7 24.5 46.75 25 47.7 25.05 49.5 27.35 52.45 25.55 54.4 24.4 53.6 22.3 49.8 12.75 41.4 6.8 40.25 6 39.1 5.15 36.85 3.4 34.45 1.95 38.5 -6.3 36.35 -15.1 35.85 -16.95 34.9 -18.6 33 -21.75 29.45 -23.05 18.8 -27.05 7.15 -26.25 Z"/>
</g>
</defs>

<g transform="matrix( 1, 0, 0, 1, -28.15,-10.5) ">
<g transform="matrix( 1, 0, 0, 1, 0,0) ">
<use xlink:href="#MovieClips_Symbol_228_40_Layer1_0_FILL"/>
</g>
</g>
</svg>
