
<svg xmlns="http://www.w3.org/2000/svg" version="1.1" xmlns:xlink="http://www.w3.org/1999/xlink" preserveAspectRatio="none" x="0px" y="0px" width="550px" height="400px" viewBox="0 0 550 400">
<defs>
<g id="Parts_Heads_headColorMC_49_Layer1_0_FILL">
<path fill="#837A72" stroke="none" d="
M 92.75 61.45
Q 92.65 61.15 92 61.1 91.6 60.9 91.6 60.85 91.55 60.2 90.75 59.3 89.8 58.45 89.5 58.05 89.8 57.95 90.05 57.85 85 52.25 79.5 48.2 77.8 46.95 76.15 45.95 74.7 43.75 71.4 42.55 70.25 42.15 69.65 41.95 68.55 41.55 67.9 41.15 66.4 40.3 64.35 37.2 61.65 33.3 59.7 31.8 57.5 30.05 54.2 29.1 51.8 28.4 48.05 28 43.95 27.5 40.75 28.45 37.65 29.4 34.6 32.25 30.2 36.65 28.1 41.6 25.75 47.25 26.35 53.15 26.5 55.35 27.25 56.8 27.3 57.45 27.4 58.1 27.55 57.85 27.75 57.55 28.55 58.7 28.65 59 28.8 59.5 28.6 60.85 28.45 61.75 28.35 62.55 27.8 63.8 27.3 65.15 26.6 66.25 25.95 68.05 24.55 71.95 24.2 73.95 23.9 75.55 23.9 78 23.8 80.45 24.1 82.6 24.45 84.95 26.15 89.45 26.75 91.05 27.55 93.55 27.4 94.5 27.8 95.05 27.5 94.8 27.8 95.65 28 96.25 28.8 98.65 29.75 101.6 31.95 106.5 32.55 107.75 33.55 110.45 34.55 112.85 35.65 114.05 35.9 114.35 36.75 115.15 35.75 115.9 34.95 117.35 34.4 118.4 33.35 120.6 32.9 121.45 31.9 122.85 30.8 124.35 30.4 125.1 28.8 128.05 29.8 130.25 30.15 131 30.95 131.75 31.4 132.25 32.4 133.1 33.15 133.85 35.2 136.2 37.75 139.05 43.65 143.85 46.85 146.45 48.65 147.7 51.55 149.7 54.15 150.7 57.2 151.85 62.4 152.5 66.25 153 72.05 152.9
L 81.7 152.65
Q 82.8 152.65 84.75 152.65 86.3 152.55 87.45 151.8 87.6 151.7 88.2 151.8 88.75 151.85 88.95 151.65 89.55 151.5 90.2 151.3 91.4 150.9 93.7 149.8 96 148.65 97.2 148.25 98.45 147.8 100.55 146.6 102 145.95 104.2 144.05 104.55 143.75 106.15 142.65 107.4 141.75 107.95 141.05 108.6 140.25 110.2 137.35 110.3 137.15 110.6 137.1 110.95 137 111 136.85 111.7 136.2 112.7 134.85 113.9 133.1 114.3 132.65 119.05 127 121 119.2 122.8 112 122.4 102.15 122.25 100.65 121.5 99.15 120.55 97.35 119.95 96.25 118.25 95.35 113.35 95.4 108.85 95.5 106.9 93.8 107 94.45 106.45 93.95 105.9 93.5 105.95 94.1 105.15 93.6 105.05 93.55
L 104.75 93.05
Q 104.55 92.75 104.4 92.35 104.5 92.35 104.55 92.35
L 104 89.5 104 89.45
Q 104.05 88.75 103.95 87.95 103.85 87.15 103.8 86.85 103.65 83.6 101.6 79.75 101.25 79.1 99.95 77.5 98.8 76.1 98.45 75.15 98.2 74.45 97.9 72.55 97.65 70.85 97.2 69.95 97.05 69.6 96.85 69.3 94.35 64.05 93.15 62.15 92.85 61.9 92.75 61.45 Z"/>
</g>
</defs>

<g transform="matrix( 1, 0, 0, 1, -62.75,-76.85) ">
<g transform="matrix( 1, 0, 0, 1, 0,0) ">
<use xlink:href="#Parts_Heads_headColorMC_49_Layer1_0_FILL"/>
</g>
</g>
</svg>
