
<svg xmlns="http://www.w3.org/2000/svg" version="1.1" xmlns:xlink="http://www.w3.org/1999/xlink" preserveAspectRatio="none" x="0px" y="0px" width="550px" height="400px" viewBox="0 0 550 400">
<defs>
<g id="Parts_Heads_headColorMC2_49_Layer3_0_FILL">
<path fill="#837A72" stroke="none" d="
M 89.35 61.85
Q 88.95 61.8 86.75 61.8 84.9 61.8 84.35 62.1 83.75 62.65 83.35 62.8 83.15 62.95 82.15 63.05
L 79.1 63.9
Q 77.45 63.25 75.8 63.45 73.85 63.7 70.35 65.75
L 66.35 68.15
Q 64.25 69.45 63.45 70.35 63.25 70.6 63.1 70.85 62.6 70.95 62.1 71.15 59.65 72.1 57.7 73.35 56.6 74.05 54.4 75.75 52.3 77.4 51.1 78.15 49.85 78.9 46.45 80.55 43.45 81.95 41.9 83.1
L 39.7 84.75
Q 38.8 85.3 36.9 86.25 35.35 87.1 32.55 89.25 31.9 89.7 30.55 90.5 29.35 91.25 28.7 91.95 27.85 92.9 27.7 94.15 27.5 95.4 28.2 96.2 28.35 97.2 28.95 98.4 29.15 98.9 29.45 99.45 29.4 99.65 29.4 99.9 29.45 100.45 29.9 102.2 31.2 106.35 32.5 108.35
L 34.05 110.6
Q 34.1 110.7 34.8 111.95 35.25 112.8 35.65 113.25 35.9 113.55 36.65 114.25 37.3 114.9 37.6 115.3 37.85 115.7 38.7 117.5 39.6 119.05 40.9 120 42.2 120.9 43.35 120.8 43.55 120.95 43.75 121.1 43.8 120.8 44 120.65 44.05 120.6 44.15 120.55 44.4 120.4 44.7 120.2 51.45 115.8 64.45 108 64.6 107.9 64.7 107.85
L 69.85 105.2
Q 78.2 100.9 81.05 99.6 82.85 98.75 83.45 98.05 84.2 96.7 84.85 96.25 85.35 95.95 86.3 95.85 87.2 95.75 87.65 95.65 87.85 96 88.1 96.3 88.6 96.95 89.25 97.2
L 89.65 98.15
Q 90.35 99.95 91 101.75 91.3 103.05 91.7 104.65 91.95 105.5 94.45 112.75 95.65 117.15 96.65 121.65 96.75 122.9 96.55 123.85 96.25 125.1 96.15 126.7 95.95 129 96.45 129.55 97.1 130.2 98 130.35 98.95 130.5 99.7 130 100.35 129.55 100.95 128.05 101.35 126.8 101.6 125.4 101.7 125.15 101.8 124.9 101.75 124.7 101.7 124.5 101.75 124.15 101.75 123.8 101.8 121.4 101.35 118.8 100.9 116 100 113.2 99.5 111.55 98.3 108.25 97.1 105 96.6 103.3 95.2 97.25 94.2 94.3 93.9 93.4 93.25 91.8 94.25 92.05 95.65 92 97 91.95 99.7 91.75 100.5 91.75 102.1 91.8 103.55 91.7 104.2 90.75 104.85 89.85 104.45 88.35 103.8 86.8 103.55 86 103.25 84.85 103.1 84.25 102.8 83.25 102.3 82.7 101.6 81.95 99.05 81.35 96.75 80.85 96.2 79.7 95.95 79.2 95.85 78.1 95.65 75.95 96.2 74.85 96.5 74.2 97.45 73.1 98.5 71.3 97.5 68.75 97.15 67.9 96.45 66.75 95.6 65.55 95.2 64.9 94.25 63.45 93.6 62.8 92.55 61.8 91.45 61.85 90.95 61.85 90.5 62.1 89.95 61.9 89.35 61.85 Z"/>
</g>
</defs>

<g transform="matrix( 1, 0, 0, 1, -62.75,-76.85) ">
<g transform="matrix( 1, 0, 0, 1, 0,0) ">
<use xlink:href="#Parts_Heads_headColorMC2_49_Layer3_0_FILL"/>
</g>
</g>
</svg>
