
<svg xmlns="http://www.w3.org/2000/svg" version="1.1" xmlns:xlink="http://www.w3.org/1999/xlink" preserveAspectRatio="none" x="0px" y="0px" width="550px" height="400px" viewBox="0 0 550 400">
<defs>
<g id="Layer0_0_FILL">
<path fill="#000000" stroke="none" d="
M -10.1 23.6
L -9.95 23.4 -9.95 23.3 -10.1 23.6
M 3.75 -1.55
L 1.7 -8.1 3.65 -0.9 3.05 -1.6 5.55 14.5 4.6 14.55 5.25 15.6 5.65 16.65
Q 5.95 17.15 17.85 17.9 29.65 18.65 36.8 20.6 42.05 20.65 47.85 24.15 50.75 25.9 52.7 27.65
L 59.85 28.15
Q 60.35 28.15 62.25 25.8 64.15 23.4 64.65 23.4 65.35 23.4 66.1 24.05 66.85 24.75 66.85 25.55 66.85 29.9 63.4 33.6 59.9 37.4 55.6 37.4 49.05 37.4 40.25 35.25 31.5 33.05 17.25 33.05 10.25 33.05 6.6 35.95 2.95 38.85 -4.55 38.85
L -5.9 38.75 -8.65 37.7 -9.95 36.6
Q -12.65 33.85 -12.65 28.65 -12.65 26.75 -11.9 24.1 -10.55 19.45 -7.25 14.15
L -7 16.4 -6.45 15.8 -6.45 15.2
Q -5 9.25 -5.05 7.45
L -4.5 7 -5.35 0.25
Q -5.85 0.25 -5.9 4.05
L -6.1 0.95
Q -6.1 -5.3 -4.55 -8.45 -3.45 -10.7 -2.2 -10.7 -0.2 -10.2 0.95 -9.3
L 0.3 -10.35
Q -1.45 -12.1 -2.75 -12.1 -3.9 -12.2 -4.95 -10.85 -7 -8.15 -7 -0.9 -7 0.1 -7.55 6.3 -7.8 4.6 -8.35 4.25 -7.8 7.8 -10.8 15.15 -14.1 23.35 -14.1 29.8 -14.1 32.4 -12.35 35.75 -10.6 39.15 -9.3 39.15 -7.95 39.95 -6.55 40.35 -5.15 40.75 3.2 39.25 3.7 38.85 7.8 36.95 13.8 34.15 22.3 34.15 28.35 34.15 38.9 36.4
L 50.55 38.6
Q 57.75 38.6 62.5 35.7 68.2 32.25 68.2 25.45 68.2 24.3 67.25 23.1 65.75 21.2 62.55 21.2 60.15 21.2 57.05 22.65 53.95 24.1 53.25 25.5
L 43.3 20.5 43.75 20.1
Q 25.95 15.15 7.2 14.6 6 6.6 3.75 -1.55
M 60.15 25.9
Q 59.35 26.5 58.7 26.5 55.95 25.7 54.7 24.75 62.65 23.1 63.65 23.2
L 60.15 25.9 Z"/>
</g>
</defs>

<g transform="matrix( 1, 0, 0, 1, 0,0) ">
<use xlink:href="#Layer0_0_FILL"/>
</g>
</svg>
