
<svg xmlns="http://www.w3.org/2000/svg" version="1.1" xmlns:xlink="http://www.w3.org/1999/xlink" preserveAspectRatio="none" x="0px" y="0px" width="550px" height="400px" viewBox="0 0 550 400">
<defs>
<g id="Layer0_0_FILL">
<path fill="#FFFFFF" fill-opacity="0.25098039215686274" stroke="none" d="
M 7.35 24.15
Q 6.2 20.55 4.4 20.55 1.4 20.55 -2.05 23.6 -5.15 26.35 -5.15 27.9
L -4.7 30.05
Q -4 32.15 -2.6 32.15 0.5 32.15 3.9 29.5 7.35 26.8 7.35 24.15
M 54.3 29.8
Q 52.2 28.6 49.25 28.6 46.3 28.6 44.2 29.8 42.1 30.95 42.1 32.6 42.1 34.25 44.2 35.45 46.3 36.6 49.25 36.6 52.2 36.6 54.3 35.45 56.4 34.25 56.4 32.6 56.4 30.95 54.3 29.8 Z"/>
</g>
</defs>

<g transform="matrix( 1, 0, 0, 1, 0,0) ">
<use xlink:href="#Layer0_0_FILL"/>
</g>
</svg>
