
<svg xmlns="http://www.w3.org/2000/svg" version="1.1" xmlns:xlink="http://www.w3.org/1999/xlink" preserveAspectRatio="none" x="0px" y="0px" width="550px" height="400px" viewBox="0 0 550 400">
<defs>
<g id="Layer0_0_FILL">
<path fill="#000000" fill-opacity="0.25098039215686274" stroke="none" d="
M -2.5 -12.15
Q -5.3 -12.15 -5.75 -5.3 -6.5 6.85 -7.75 11.95
L -9.95 15.8
Q -11.35 18.1 -11.65 19.35
L -11.85 19.4 -11.65 19.55
Q -11.85 20.55 -11.25 20.85
L -12.9 23.75 -13.1 25.55
Q -13.1 31.3 -10.9 35.5 -9.1 38.95 -7.7 38.95
L -5.1 39.35 -1.2 39.1
Q 0.2 38.5 1.85 38.15 3.25 38.2 4.45 37.4 9.15 34.15 26.55 34.15 29.2 34.15 37.1 36.15 45.05 38.1 50.8 38.1 57.55 38.1 62.15 34.75 67 31.2 67 25.55 67 23.4 64.6 22.3 62.8 21.5 60.3 21.5
L 57.2 23.25
Q 54.4 25 51.65 25 49.6 25 49.05 24.45
L 47.85 23
Q 44.85 20.45 29.95 18.6 13.8 16.6 10.8 15.8 7.05 14.8 6.15 9.65 5.2 4.45 2.75 -3.85 0.3 -12.15 -2.5 -12.15
M -1.5 -4.1
L -0.4 -4.3
Q 1.2 -4.3 1.45 -1.75 1.6 -0.55 1.35 4.05 0.95 12.7 4.55 13.5
L 3.3 16.7
Q 3.3 19.8 9.2 21.05 16.15 22.55 33.65 22.2 37.55 22.1 44.45 26.05 51.45 30.05 53.3 30.05 54.35 30.05 56.75 28.75 60.3 26.8 61.5 26.3
L 62.75 27.55
Q 62.75 31.7 57.9 33.75 54.8 35.1 52.05 35.1 45.05 35.1 40.75 33.5 38.2 32.55 34.75 29.95 31.3 27.4 28.65 26.4 24.2 24.8 17 24.8 13.6 24.8 7.85 30.05 2.15 35.3 -3.25 35.3 -4.9 35.3 -5.95 33.5 -7.05 31.65 -7.05 28.55 -7.05 24.05 -3.85 19.6 -0.65 15.1 -0.65 14.45 -0.65 13.55 -1.7 9.9
L -2.75 6 -1.5 -4.1 Z"/>
</g>
</defs>

<g transform="matrix( 1, 0, 0, 1, 0,0) ">
<use xlink:href="#Layer0_0_FILL"/>
</g>
</svg>
