
<svg xmlns="http://www.w3.org/2000/svg" version="1.1" xmlns:xlink="http://www.w3.org/1999/xlink" preserveAspectRatio="none" x="0px" y="0px" width="550px" height="400px" viewBox="0 0 550 400">
<defs>
<g id="Layer0_0_FILL">
<path fill="#FFFFFF" stroke="none" d="
M 10.85 6.5
Q 11 6.35 11 5.5 11.05 5.1 10.85 4.3 10.55 3.55 9.7 3 9.55 2.9 8.15 2.1 6.5 1.3 5 0.85 3.1 0.35 1.75 0.15 1.25 0.05 0.95 0.05 0.45 0 0.25 0.3 -0.15 1 0.1 1.7 0.2 2.2 0.55 2.5 0.95 2.7 1.25 2.7
L 2.7 3.1
Q 3.85 3.4 5.5 4.1 7.3 4.9 8.15 5.4
L 9.45 6.15
Q 10.05 6.55 10.65 6.7
L 10.85 6.5 Z"/>
</g>
</defs>

<g transform="matrix( 1, 0, 0, 1, 0,0) ">
<use xlink:href="#Layer0_0_FILL"/>
</g>
</svg>
