
<svg xmlns="http://www.w3.org/2000/svg" version="1.1" xmlns:xlink="http://www.w3.org/1999/xlink" preserveAspectRatio="none" x="0px" y="0px" width="550px" height="400px" viewBox="0 0 550 400">
<defs>
<g id="Layer0_0_FILL">
<path fill="#010101" stroke="none" d="
M 2.55 0.75
L 2.6 0.65
Q 2.6 0.2 2.4 0.15
L 2.3 0.15
Q 2.15 0 1.9 0.05
L 1.45 0.2
Q 1.25 0.3 1 0.2
L 0.6 0.1 0.7 0.15 0.55 0.1 0.45 0.05 0.4 0
Q 0.25 -0.1 0.1 0.05
L 0.1 0.1
Q -0.05 0.3 0.05 0.55
L 0.35 1.15 1 1.55
Q 1.7 1.8 2.3 1.4 2.5 1.2 2.5 1.05
L 2.55 0.75 Z"/>
</g>
</defs>

<g transform="matrix( 1, 0, 0, 1, 0,0) ">
<use xlink:href="#Layer0_0_FILL"/>
</g>
</svg>
