
<svg xmlns="http://www.w3.org/2000/svg" version="1.1" xmlns:xlink="http://www.w3.org/1999/xlink" preserveAspectRatio="none" x="0px" y="0px" width="550px" height="400px" viewBox="0 0 550 400">
<defs>
<g id="Layer0_0_FILL">
<path fill="#7D5924" stroke="none" d="
M 26.5 22.1
L 28.9 21.55
Q 29.65 21.3 29.65 20.4 29.65 17.7 25.9 15.5 18.9 11.9 12.4 8.15 12.45 11 11.15 17.1
L 11.85 18.3 12.2 19.3
Q 12.2 20.55 9.85 22.65
L 8.7 26.9
Q 8.7 27.9 9.45 29.15
L 16.55 29.15
Q 21.8 23.4 26.5 22.1
M 43.8 21.75
L 41.6 23.2 37.05 23.65
Q 33.15 23.65 30.55 25.55
L 18.05 34.65
Q 12.15 37.65 6.15 33.85
L 3.95 60.25
Q 3.45 64.7 3.45 66.6 3.45 79.2 4.3 93.55 5.05 105.45 5.7 109.75 6.65 115.7 7.3 117.6 8.65 121.65 11.65 124.05 19.05 130.15 41.9 130.15 58.2 130.15 64.35 125.8 71.6 120.7 71.6 106 71.6 104 70.45 99.45
L 69.25 94.6 70.05 69.95
Q 70.05 61.2 65.7 39
L 64 30.5 62.15 30.75
Q 62 30.75 43.8 21.75
M 30.25 46.45
Q 33.1 44.85 37 44.85 46.15 44.85 44.45 51.75 43.85 54.35 41.8 56.5 39.75 58.65 37.8 58.65 32.45 58.65 29.45 54.4
L 27.55 50
Q 27.55 48.05 30.25 46.45
M 31.55 93.3
Q 29.7 91.95 29.7 89.4 29.7 85.9 32.2 83.7 34.45 81.8 37.7 81.55 40.95 81.35 43.2 82.9 45.7 84.65 45.7 87.8 45.7 91.8 43.8 93.3 42 94.75 37.25 94.75 33.5 94.75 31.55 93.3
M 57.2 4.35
L 56.95 4.45
Q 49.1 8.2 46.4 11.75 44.65 15.25 43.05 16.65 44.35 18.1 49.1 19.75
L 60.7 23.55 60.7 19.05
Q 59.8 17 59.15 14.55
L 58.1 15.2 57.25 15.05 56.95 14.85 56.85 13.8 57.45 12.85 58.5 11.75 57.25 4.4 57.2 4.35 Z"/>
</g>
</defs>

<g transform="matrix( 1, 0, 0, 1, 0,0) ">
<use xlink:href="#Layer0_0_FILL"/>
</g>
</svg>
