
<svg xmlns="http://www.w3.org/2000/svg" version="1.1" xmlns:xlink="http://www.w3.org/1999/xlink" preserveAspectRatio="none" x="0px" y="0px" width="550px" height="400px" viewBox="0 0 550 400">
<defs>
<g id="Parts_Heads_headsMC_6_Layer12_0_FILL">
<path fill="#000000" stroke="none" d="
M 96.9 81.7
Q 91.4 83.15 82.85 87.5 74.3 91.8 72.6 93.65 70.9 95.45 71.05 95.8 71.15 96.1 70.45 97.7
L 70.7 97.75 72 97.65
Q 98.5 104.55 99.9 104.65 102.95 104.8 105.05 94.95 106.65 84 107.3 81.85
L 106.85 80.85 106.9 80.7 106.15 80.55
Q 105.05 80.9 103.75 80.55 102.4 80.2 96.9 81.7 Z"/>
</g>

<g id="Graphics_Symbol_817_0_Layer2_0_FILL">
<path fill="#000000" stroke="none" d="
M 112.65 82.85
Q 106.6 71.75 103.05 67.5 99.65 60.25 88.45 55.45 79 51.4 71.4 51.4 64.4 51.4 56.4 53.05 44.15 55.55 35.65 61.1 40 56.25 48.95 50.25 63.25 40.6 81.65 33.9 71.15 34.2 59.95 39.25 49.55 43.95 40.5 51.8 31.75 59.35 26.55 67.85 21.2 76.6 21.2 83.9
L 21 85.05
Q 20.9 85.4 21.5 85.4
L 22.05 85.35 21.95 85.05 22.7 84.4 22.45 88.05
Q 22.45 96 26.7 106.65 31.5 118.7 39.9 128.75 61.75 155 95.75 155 112.7 155 118.9 144.5 122.85 137.85 122.85 124.35
L 121.4 112.2 119.95 101.65
Q 119.95 96.2 112.65 82.85
M 96.2 65.6
Q 109.15 77.3 111.8 88.95 116.5 99.2 117.15 105 118.35 115.6 118.9 117.9 106.45 118.5 94.95 124.65 84.85 130.05 83.45 134.65
L 83.4 135.5
Q 83.45 135.85 84.05 135.85
L 90.85 133.05
Q 98.95 129.8 105.05 127.65
L 107.1 133.05 108.15 135.3 109.45 133.8 108 126.6
Q 111.5 125.35 115.2 123.5
L 119.05 121.4 119.2 125.3
Q 119.2 138.95 112.55 145.45 106.65 151.25 95.75 151.25 61.9 151.25 41.4 125.7 33.8 116.25 29.45 104.8 25.75 95.15 25.75 88.3 25.75 75.45 35.05 66.7 43.3 58.9 55.35 57.15
L 53.9 58.05 52.4 59.35
Q 56.3 58.15 62.15 56.65 71.6 54.2 74.45 54.2 83.6 54.2 96.2 65.6 Z"/>
</g>

<g id="Graphics_Symbol_817_0_Layer1_0_FILL">
<path fill="#000000" fill-opacity="0.25098039215686274" stroke="none" d="
M 113.5 91.2
Q 106.95 65.6 91.35 57.1 84.35 53.3 73.4 53.3 53.25 53.3 41.8 58.6 24.7 66.45 24.7 86.2 24.7 101.3 34.1 116.35 37.2 121.35 42.1 127.5
L 49.15 136.2
Q 55.45 144.45 61.45 146.95 65.45 148.6 77.5 152.05 83.5 154.25 88 153.9
L 98.95 154.55
Q 105.35 155.55 113.8 147.9 122.5 140.05 122.55 127.8 122.6 115.55 120.25 106.95 117.9 98.3 113.5 91.2
M 87.85 70.55
Q 98.4 72.65 103.25 82.8 110 95.75 112.25 107.95 113.2 113.2 113.2 119.25 113.2 133.7 106.25 140.5 100.35 146.25 89.7 146.25 75.35 146.25 60.7 130.95 54.45 124.45 50.65 117.35 46.75 110.05 46.75 104.6 46.75 89.95 54.75 79.8 62.55 69.9 74.5 68.7
L 75.15 68.8 69.05 70.25 78.4 69.85 87.85 70.55 Z"/>
</g>

<g id="Graphics_Symbol_817_0_Layer0_0_FILL">
<path fill="#FFFFFF" fill-opacity="0.25098039215686274" stroke="none" d="
M 60.4 102.85
Q 57.95 102.85 57.95 106.2 57.95 111.85 66.25 121.05 73.9 129.5 76.15 129.5 78.3 129.5 78.6 127.85
L 78.6 123.35
Q 78.6 120.7 81.9 118.1
L 85.2 116
Q 85.2 111.7 82.6 109.75 80 107.85 74 107.65 71.4 107.6 66.35 105.2 61.35 102.85 60.4 102.85 Z"/>
</g>
</defs>

<g transform="matrix( 1, 0, 0, 1, -62.75,-76.85) ">
<g transform="matrix( 1, 0, 0, 1, 0,0) ">
<use xlink:href="#Parts_Heads_headsMC_6_Layer12_0_FILL"/>
</g>

<g transform="matrix( 1, 0, 0, 1, 0,0) ">
<g transform="matrix( 1, 0, 0, 1, 0,0) ">
<use xlink:href="#Graphics_Symbol_817_0_Layer2_0_FILL"/>
</g>

<g transform="matrix( 1, 0, 0, 1, 0,0) ">
<use xlink:href="#Graphics_Symbol_817_0_Layer1_0_FILL"/>
</g>

<g transform="matrix( 1, 0, 0, 1, 0,0) ">
<use xlink:href="#Graphics_Symbol_817_0_Layer0_0_FILL"/>
</g>
</g>

<g id="hat1" transform="matrix( 0.983917236328125, -0.17529296875, 0.17529296875, 0.983917236328125, 45.2,78.25) ">
<g id="colorMC" transform="matrix( 0.9999847412109375, 0, 0, 0.9999847412109375, 0,0) "/>

<g id="colorMC2" transform="matrix( 1, 0, 0, 1, 0,0) "/>
</g>

<g id="hat2" transform="matrix( 0.9733734130859375, -0.2247314453125, 0.2247314453125, 0.9733734130859375, 38,60.6) ">
<g id="colorMC_FL" transform="matrix( 0.9999847412109375, 0, 0, 0.9999847412109375, 0,0) "/>

<g id="colorMC2_FL" transform="matrix( 1, 0, 0, 1, 0,0) "/>
</g>

<g id="hat3" transform="matrix( 0.96026611328125, -0.2753753662109375, 0.2753753662109375, 0.96026611328125, 26,48.4) ">
<g id="colorMC_FL_FL" transform="matrix( 0.9999847412109375, 0, 0, 0.9999847412109375, 0,0) "/>

<g id="colorMC2_FL_FL" transform="matrix( 1, 0, 0, 1, 0,0) "/>
</g>

<g id="hat4" transform="matrix( 0.944580078125, -0.3252410888671875, 0.3252410888671875, 0.944580078125, 18.85,34.5) ">
<g id="colorMC_FL_FL_FL" transform="matrix( 0.9999847412109375, 0, 0, 0.9999847412109375, 0,0) "/>

<g id="colorMC2_FL_FL_FL" transform="matrix( 1, 0, 0, 1, 0,0) "/>
</g>
</g>
</svg>
