
<svg xmlns="http://www.w3.org/2000/svg" version="1.1" xmlns:xlink="http://www.w3.org/1999/xlink" preserveAspectRatio="none" x="0px" y="0px" width="550px" height="400px" viewBox="0 0 550 400">
<defs>
<g id="Parts_Heads_headColorMC_10_Layer1_0_FILL">
<path fill="#506197" stroke="none" d="
M 120.55 98.85
Q 120.25 91.9 120.8 85.2
L 121.35 80.45 121.6 78.3
Q 122.15 74.8 124.35 72.2 117.7 68.95 108.15 61.85 99.8 55.65 89.7 53.2 80.4 50.85 70.7 51.1 59.65 51.6 49.6 56.2 39.8 60.7 32.85 68.9 26.5 76.45 23.8 85.7 20.75 95.85 20.1 106.4 19.75 111.8 21.35 117 24.65 127.7 34.9 132.4 45.25 137 56.45 138.3 66.65 139.2 76.65 138.5 87.75 137.6 98.25 133.3 109.05 129 115.05 119.45 121.1 109.95 120.55 98.85 Z"/>
</g>

<g id="Parts_Heads_headColorMC2_10_Layer3_0_FILL">
<path fill="#49526F" stroke="none" d="
M 118.75 86.55
L 120.5 83.8 122.1 84.7 137.85 77.7 143.25 72.1 143.95 72
Q 136.25 69.75 124.85 72.05
L 120.35 79.25
Q 119.5 80.35 119.05 81.55
L 118.55 86.15 118.75 86.55 Z"/>

<path fill="#000000" stroke="none" d="
M 85.15 87.65
Q 97.9 91.9 100.9 77.7 97.85 73.2 92.85 74.1 78.25 77.1 85.15 87.65
M 92.55 81.85
L 91 82.15 89.1 79.55
Q 88.3 77.6 91.05 77.05 93.8 76.5 95.1 79.4
L 95.15 80.3
Q 95.05 81.15 94.25 81.45
L 92.55 81.85 Z"/>
</g>

<g id="Parts_Heads_headsMC_10_Layer12_0_FILL">
<path fill="#49526F" stroke="none" d="
M 119.05 81.55
L 118.55 86.15 118.75 86.55 120.5 83.8 122.1 84.7 137.85 77.7 143.25 72.1 143.95 72 124.85 72.05 120.35 79.25
Q 119.5 80.35 119.05 81.55 Z"/>

<path fill="#000000" stroke="none" d="
M 85.15 87.65
Q 97.9 91.9 100.9 77.7 97.85 73.2 92.85 74.1 78.25 77.1 85.15 87.65
M 94.25 81.45
L 91 82.15 89.1 79.55
Q 88.3 77.6 91.05 77.05 93.8 76.5 95.1 79.4
L 95.15 80.3
Q 95.05 81.15 94.25 81.45 Z"/>
</g>

<g id="Graphics_Symbol_823_0_Layer2_0_FILL">
<path fill="#000000" stroke="none" d="
M 119.05 81.55
Q 119.5 80.35 120.35 79.25
L 124.85 72.05 143.95 72
Q 130.7 73.75 120.85 80.75
L 120.85 82.05 137.85 77.7 122.1 84.7 120.5 83.8 118.75 86.55 118.55 86.15
Q 118 92.65 118.3 99.4 118.8 110.2 112.95 119.45 107.1 128.7 96.6 132.9 86.4 137.05 75.6 137.95 65.9 138.6 56 137.75 45.1 136.5 35.05 132 25.1 127.45 21.9 117.05 20.35 112 20.65 106.75 21.3 96.5 24.25 86.65 26.9 77.65 33.05 70.3 39.8 62.35 49.35 58 59.1 53.5 69.85 53.05 79.25 52.8 88.3 55.05 98.1 57.45 106.25 63.45 115.55 70.35 123.45 71.2 118.5 62.8 108.65 58.45 99.25 54.25 89.65 51.25 79.1 47.9 68 48.75 57.75 49.25 48.55 53.55 39 58.05 31.9 65.8 25 73.4 20.85 82.75 16.25 92.95 17.65 104.1
L 18 107.4
Q 15.65 121.7 28.15 130.75 35.65 136.25 44.65 138.55 61.5 143.1 78.95 141.25 92.5 139.6 104.55 132.9 112.35 128.45 117.2 120.7 119.95 116.35 121.15 111.4 124.1 99.2 123 86.5
L 154 71.85
Q 142.95 67.75 129.55 70.1 126.6 70.55 124 71.55 120.05 74.6 119.3 79.45
L 119.05 81.55 Z"/>

<path fill="#FFFFFF" stroke="none" d="
M 95.1 79.4
Q 93.8 76.5 91.05 77.05 88.3 77.6 89.1 79.55
L 91 82.15 92.55 81.85 94.25 81.45
Q 95.05 81.15 95.15 80.3
L 95.1 79.4 Z"/>
</g>

<g id="Graphics_Symbol_823_0_Layer1_0_FILL">
<path fill="#000000" fill-opacity="0.25098039215686274" stroke="none" d="
M 111.3 63.35
Q 102 58.6 93.4 55.2 87.15 52.75 82.8 51.6 77.5 50.15 73.65 50.15 71.2 50.15 60.9 52.6
L 50.15 55 50.1 54.55
Q 50.1 54.2 50.25 54.05
L 50 54.05
Q 48.15 54.05 38.45 62.95 28.75 71.85 27.9 74.25
L 23 86.05
Q 18.8 98.15 18.8 110.25 18.8 116 20.15 119.8 22.25 125.8 28.1 129.9 35 134.75 42.95 137.25 49.6 139.3 55.2 139.3
L 82.45 138.25
Q 97.3 136.05 107.45 127.85 114.25 122.3 116.75 118.65 118.8 115.65 119.55 110.95 122.05 95.25 122.05 91.35
L 121.05 79.5
Q 121.05 78.55 122.55 76.25 124.05 73.95 124.05 72.5 124.05 69.9 111.3 63.35
M 107.1 74.95
Q 113.5 82.45 113.5 92.85 113.5 96.7 109.2 107.05
L 104.65 117.35
Q 102.9 123.05 91.05 125.95 79.5 128.75 59.25 128.75 46.95 128.75 38.85 122.75 30.05 116.25 30.05 105 30.05 101.35 32.5 94.15 35.8 84.55 41 79.25
L 44 75.5
Q 46.45 72.65 49.75 70.7 59.75 64.8 80.75 64.8 98.5 64.8 107.1 74.95 Z"/>
</g>

<g id="Graphics_Symbol_823_0_Layer0_0_FILL">
<path fill="#FFFFFF" fill-opacity="0.25098039215686274" stroke="none" d="
M 77.8 95.7
Q 77.8 93.3 75.75 91.6 73.7 89.9 70.8 89.9 67.9 89.9 65.85 91.6 63.8 93.3 63.8 95.7 63.8 98.1 65.85 99.8 67.9 101.5 70.8 101.5 73.7 101.5 75.75 99.8 77.8 98.1 77.8 95.7
M 131.75 72.05
L 127.4 72.25 124 75 124.15 75.75
Q 124.35 76.3 125 76.3 127.2 76.3 129.25 75.4
L 132.3 73.7 132.5 73.5 130.9 73.55 131.75 72.05 Z"/>
</g>
</defs>

<g transform="matrix( 1, 0, 0, 1, -62.75,-76.85) ">
<g transform="matrix( 1, 0, 0, 1, 0,0) ">
<use xlink:href="#Parts_Heads_headColorMC_10_Layer1_0_FILL"/>
</g>
</g>

<g transform="matrix( 1, 0, 0, 1, -62.75,-76.85) ">
<g transform="matrix( 1, 0, 0, 1, 0,0) ">
<use xlink:href="#Parts_Heads_headColorMC2_10_Layer3_0_FILL"/>
</g>
</g>

<g transform="matrix( 1, 0, 0, 1, -62.75,-76.85) ">
<g transform="matrix( 1, 0, 0, 1, 0,0) ">
<use xlink:href="#Parts_Heads_headsMC_10_Layer12_0_FILL"/>
</g>

<g transform="matrix( 1, 0, 0, 1, 0,0) ">
<g transform="matrix( 1, 0, 0, 1, 0,0) ">
<use xlink:href="#Graphics_Symbol_823_0_Layer2_0_FILL"/>
</g>

<g transform="matrix( 1, 0, 0, 1, 0,0) ">
<use xlink:href="#Graphics_Symbol_823_0_Layer1_0_FILL"/>
</g>

<g transform="matrix( 1, 0, 0, 1, 0,0) ">
<use xlink:href="#Graphics_Symbol_823_0_Layer0_0_FILL"/>
</g>
</g>

<g id="hat1" transform="matrix( 0.983917236328125, -0.17529296875, 0.17529296875, 0.983917236328125, 45.2,78.25) ">
<g id="colorMC" transform="matrix( 0.9999847412109375, 0, 0, 0.9999847412109375, 0,0) "/>

<g id="colorMC2" transform="matrix( 1, 0, 0, 1, 0,0) "/>
</g>

<g id="hat2" transform="matrix( 0.9733734130859375, -0.2247314453125, 0.2247314453125, 0.9733734130859375, 38,60.6) ">
<g id="colorMC_FL" transform="matrix( 0.9999847412109375, 0, 0, 0.9999847412109375, 0,0) "/>

<g id="colorMC2_FL" transform="matrix( 1, 0, 0, 1, 0,0) "/>
</g>

<g id="hat3" transform="matrix( 0.96026611328125, -0.2753753662109375, 0.2753753662109375, 0.96026611328125, 26,48.4) ">
<g id="colorMC_FL_FL" transform="matrix( 0.9999847412109375, 0, 0, 0.9999847412109375, 0,0) "/>

<g id="colorMC2_FL_FL" transform="matrix( 1, 0, 0, 1, 0,0) "/>
</g>

<g id="hat4" transform="matrix( 0.944580078125, -0.3252410888671875, 0.3252410888671875, 0.944580078125, 18.85,34.5) ">
<g id="colorMC_FL_FL_FL" transform="matrix( 0.9999847412109375, 0, 0, 0.9999847412109375, 0,0) "/>

<g id="colorMC2_FL_FL_FL" transform="matrix( 1, 0, 0, 1, 0,0) "/>
</g>
</g>
</svg>
