<?xml version='1.0' encoding='utf-8'?>
<svg xmlns="http://www.w3.org/2000/svg" xmlns:xlink="http://www.w3.org/1999/xlink" version="1.1" width="550px" height="400px" viewBox="0 0 550 400" preserveAspectRatio="none" data-xfl-root="MovieClips/PR2_Graphics_1_Apr_2014_fla/Symbol 878">
  <g data-xfl-symbol="MovieClips/PR2_Graphics_1_Apr_2014_fla/Symbol 878">
    <g transform="matrix(0.8701477051 0.4892730713 -0.4892730713 0.8701477051 -6.9 -1.6)">
      <g data-xfl-symbol="MovieClips/Symbol 877">
        <g data-xfl-symbol="Graphics/Symbol 876">
          <g data-svg-leaf="graphics_symbol_876_95606d101a/t00_l001_f0000_r00.svg">
            <defs>
              <g id="xfl1_Layer0_0_FILL">
                <path fill="#2B2B2B" stroke="none" d=" M 13.45 -6.8 Q 12.1 -11.85 6.8 -15.1 2.45 -17.85 0.65 -17.35 L 0.5 -17.35 Q -1.35 -18.55 -2.8 -18.7 L -5.85 -18.5 -11.3 -16.75 Q -13.15 3.9 -7.2 7.1 L -1.85 8.55 -1.2 8.8 -0.65 10.3 -0.65 10.4 -0.5 10.7 Q -1.35 13.05 2.15 28.5 L 7 47.95 Q 12.15 67.2 7.2 86.05 1.3 100.4 -6.7 115.7 L -17.4 135.95 -19.6 138.15 Q -24.65 143.2 -27 146.4 L -25.7 146.5 -23.15 145.85 -7.45 137.2 Q -7.15 137.45 -7.2 137.75 L -5.4 137.45 Q -2.6 136.7 3.9 133.2 13.05 128.3 20 122.15 41.55 103.4 35.65 81.4 27.3 50.25 18.3 29 L 12.45 15.7 Q 9.7 9.45 8.45 5.4 L 8.25 4.3 Q 14.65 -2.4 13.45 -6.8 M 9.5 -6.3 L 6.75 -9.15 Q 5.8 -10.55 5.5 -12.45 6.35 -12.4 7.1 -11.4 L 9.5 -6.3 M 3.1 -7 Q 7.55 -4.85 8.05 -2.8 8.3 -1.9 4.05 2.9 1.35 5.85 0.25 7.9 L 0 7.7 -0.9 -9.3 3.1 -7 M 2.9 12 L 2 9.9 6.4 6.15 Q 5.95 8.95 6.35 13.75 6.75 15.15 14.95 34.25 L 15.6 35.8 Q 23.25 53.6 24.85 59.8 L 26.45 59.35 Q 35.35 75.25 31.5 95.05 27.65 114.1 15.5 121.5 L 6.7 126.65 6.5 126.55 -1.55 130.9 -6.6 133.4 Q -10.7 135.6 -13.95 137.8 L -14.45 137.95 Q -8.15 131.2 -2.4 117.7 L 0.7 109.65 Q 2 107.65 3.45 104.45 6.75 96.65 8.75 85.3 L 9 83.7 9.1 83.35 Q 13.5 55.75 6.65 30.2 L 4 19.05 Q 2.1 11.9 0.7 10.6 L 1.3 10.4 1.5 10.25 Q 2.4 11 2.9 12 M -4.75 -16.2 L -5.2 -14.4 Q -5.9 -10.4 -4.5 -3.85 L -3.7 0.6 -1.9 6.55 -5.35 6.45 -5.7 6.55 Q -6.25 6.3 -6.65 4.8 L -6.6 -2.3 Q -6.8 -9.75 -8.2 -15.25 L -4.75 -16.2 M -2 -16.45 L -2.45 -16.3 -2.7 -16.7 -2.4 -16.8 -2 -16.45 M -9.5 127 L -11.3 129.35 -7.65 123 Q -7.9 124.25 -9.5 127 Z" />
                <path fill="#FED455" stroke="none" d=" M -5.2 -14.4 L -4.75 -16.2 -8.2 -15.25 Q -6.8 -9.75 -6.6 -2.3 L -6.65 4.8 Q -6.25 6.3 -5.7 6.55 L -5.35 6.45 -1.9 6.55 -3.7 0.6 -4.5 -3.85 Q -5.9 -10.4 -5.2 -14.4 M 6.75 -9.15 L 9.5 -6.3 7.1 -11.4 Q 6.35 -12.4 5.5 -12.45 5.8 -10.55 6.75 -9.15 Z" />
                <path fill="#FEFEFE" stroke="none" d=" M 26.45 59.35 L 24.85 59.8 Q 23.25 53.6 15.6 35.8 37.9 103.8 -1.55 130.9 L 6.5 126.55 6.7 126.65 15.5 121.5 Q 27.65 114.1 31.5 95.05 35.35 75.25 26.45 59.35 Z" />
                <path fill="#C3C3C3" stroke="none" d=" M 2 9.9 L 2.9 12 Q 2.4 11 1.5 10.25 L 1.3 10.4 0.7 10.6 Q 2.1 11.9 4 19.05 L 6.65 30.2 Q 13.5 55.75 9.1 83.35 L 9 83.7 8.75 85.3 Q 6.75 96.65 3.45 104.45 2 107.65 0.7 109.65 L -2.4 117.7 Q -8.15 131.2 -14.45 137.95 L -13.95 137.8 Q -10.7 135.6 -6.6 133.4 L -1.55 130.9 Q 37.9 103.8 15.6 35.8 L 14.95 34.25 Q 6.75 15.15 6.35 13.75 5.95 8.95 6.4 6.15 L 2 9.9 Z" />
              </g>
            </defs>
            <g transform="matrix( 1, 0, 0, 1, 0,0) ">
              <use xlink:href="#xfl1_Layer0_0_FILL" />
            </g>
          </g>
          <g data-svg-leaf="graphics_symbol_876_95606d101a/t00_l000_f0000_r00.svg">
            <defs>
              <radialGradient id="xfl2_Gradient_1" gradientUnits="userSpaceOnUse" cx="0" cy="0" r="11.700000000000001" fx="0" fy="0" gradientTransform="matrix( 0.9999999999999999, 0, 0, 0.9999999999999999, -15.4,133.25) " spreadMethod="pad">
                <stop offset="0%" stop-color="#FEFEFE" />
                <stop offset="100%" stop-color="#FEFEFE" stop-opacity="0" />
              </radialGradient>
              <g id="xfl2_Layer0_0_FILL">
                <path fill="url(#xfl2_Gradient_1)" stroke="none" d=" M -23.45 141.35 Q -20.15 144.65 -15.4 144.65 -10.6 144.7 -7.3 141.35 -3.95 138.05 -4 133.25 -4 128.5 -7.3 125.2 -10.6 121.9 -15.4 121.85 -20.15 121.85 -23.5 125.15 -26.8 128.5 -26.8 133.25 -26.75 138.05 -23.45 141.35 Z" />
              </g>
            </defs>
            <g transform="matrix( 1, 0, 0, 1, 0,0) ">
              <use xlink:href="#xfl2_Layer0_0_FILL" />
            </g>
          </g>
        </g>
      </g>
    </g>
  </g>
</svg>