
<svg xmlns="http://www.w3.org/2000/svg" version="1.1" xmlns:xlink="http://www.w3.org/1999/xlink" preserveAspectRatio="none" x="0px" y="0px" width="550px" height="400px" viewBox="0 0 550 400">
<defs>
<g id="Layer0_0_FILL">
<path fill="#FFFFFF" stroke="none" d="
M 0.35 0
Q 0.15 0.15 0.05 0.4 -0.35 2.05 1.05 3.05 1.7 3.7 2 4.25
L 2.3 4.95 2.35 5.1 2.35 5.15 2.4 5.4 2.45 5.35 2.5 6.45
Q 2.5 7.25 2.7 7.2 2.9 7.3 2.9 7.05
L 3 6.65 3.1 5.6
Q 3.1 4.75 2.95 3.9 2.7 1.5 0.75 0.15 0.6 0 0.35 0 Z"/>
</g>
</defs>

<g transform="matrix( 1, 0, 0, 1, 0,0) ">
<use xlink:href="#Layer0_0_FILL"/>
</g>
</svg>
