
<svg xmlns="http://www.w3.org/2000/svg" version="1.1" xmlns:xlink="http://www.w3.org/1999/xlink" preserveAspectRatio="none" x="0px" y="0px" width="550px" height="400px" viewBox="0 0 550 400">
<defs>
<g id="Parts_Bodies_bodyMC_31_Layer16_0_FILL">
<path fill="#000000" stroke="none" d="
M 13.25 58.6
Q 10.5 58.6 8.35 62.25
L 4.5 70.05
Q -1.2 81.5 -11.7 81.5 -12.65 81.5 -14.3 79.95 -16 78.25 -16 76.8 -13.75 72.5 -13.75 72 -13.75 71.6 -42.75 58.2 -48.55 58.2 -48.55 64.7 -48.55 84.9 -40.1 92.3 -35 96.7 -26.1 96.7 -24.1 96.7 -21.8 98.55
L -23.95 104.9
Q -24.8 107.4 -24.8 108.7 -24.8 111.3 -24.6 111.7
L -23.95 112.1 -22.05 112.45
Q -18.9 112.45 -17.65 109.6 -16.45 107 -16.45 101 -16.45 93.2 -18.6 91.8
L -24.2 91.5
Q -34.15 91.8 -40.7 69.15
L -41.15 67.2
Q -21.6 79.65 -14.8 86.7 -11.6 90.1 -10.3 90.1 6.2 90.1 12.8 74.35 15.15 68.75 15.15 63.55 15.15 58.6 13.25 58.6
M 19.85 28.8
L 17.2 30.9
Q 15.15 30.9 13.75 32.05 12.35 33.2 12.35 34.8 6 31.65 -4.2 15.5 -13.1 1.6 -20.05 1.6 -29.55 1.6 -34.15 7.7 -38.9 14.1 -37 28
L -33.95 47.9
Q -32.95 53.9 -25.15 53.8 -17.4 53.4 -12.05 46.9 -6.8 40.25 -6.8 30.5 -6.8 28.15 -7.65 23.35
L -8.35 20.2
Q -4.5 25.15 1.3 35.45 6.55 43.1 12.8 43.1 15.8 43.1 20.3 40.1 25.8 36.45 25.8 31.8 25.8 29.7 24.95 28.8 24 27.75 21.6 27.75 21.25 27.75 19.85 28.8
M -15.8 12
L -13 13.55
Q -23.1 12.55 -24.8 27.5 -24.7 32.55 -21.5 32.55 -19.45 32.55 -18.05 28.55
L -16.75 23.7 -15.4 22.4
Q -17.55 41.3 -15.65 37.65 -13.85 34 -14.4 39.6 -16.85 46.6 -24.8 46.6 -26.65 46.6 -29.65 37.75 -32.35 29.85 -32.35 27.6 -32.35 9.65 -23.1 9.65 -20.65 9.65 -15.8 12
M 84.2 83.05
Q 82.75 81.9 82.6 73.05 82.4 64.05 83.6 59.9 84.65 55.6 84 53.4 81.75 56.75 74.4 62.65 67.15 68.5 64.45 67.85
L 64.6 69 64.75 75.9 66.5 76.15 78.1 69.5
Q 78.1 72.65 77.45 77.7 76.7 82.65 76.7 83.6 76.7 86.7 78.3 88.5 79.7 90.1 81.65 90.1
L 84.9 89.8
Q 85.6 88.15 85.6 85.55 85.6 84.1 84.2 83.05
M 84.1 38.3
Q 88.85 30.75 89.45 23.6 90.05 16.3 80.85 16.3 68.3 16.3 60.9 24.5
L 61.15 27.25
Q 61 28.8 61.15 31.15
L 61.35 34.65 64.25 34.4
Q 67.15 34 68.45 27.35 69.75 20.75 74.15 22.05 78.55 23.2 83.15 26.95 80.75 32.45 79.5 34 77.85 36.1 75.1 36.45
L 75 33.1 73.9 32.55
Q 73.05 31.9 71.75 31.9 68.45 31.9 68.45 37.9
L 68.65 41.8
Q 69.75 45.3 74.55 45.6 79.3 45.85 84.1 38.3 Z"/>
</g>

<g id="Parts_Bodies_bodyMC_31_Layer14_0_FILL">
<path fill="#000000" stroke="none" d="
M 57.05 5.75
Q 56.15 5.75 52.85 2.9 49.55 0.05 47.3 0.05 30.3 0.05 22.9 6.55
L 17.95 10.95 13.85 16.95
Q 10.65 21.9 10.05 23.85 9.5 25.85 10.65 23.2
L 6.35 35.05
Q 0.85 49.85 -0.35 69.9 -1.5 89.95 0.65 137.2
L 1.1 138.1 1.95 138.35
Q 3.95 138.35 9.65 140.3
L 17.7 142.9 50.9 143.05
Q 57.35 140.7 60.45 139.15 63.9 137.3 65.1 135.5
L 66.3 135.1
Q 65.85 123.4 66.05 113
L 66.4 73.45
Q 66.6 44.3 63.5 31.55
L 57.05 5.75
M 41.45 17.85
L 40.85 18.1 40.4 18 40.4 18.15 39.75 20.45
Q 39.2 22.7 39.2 24.25 39.2 24.65 39.55 25.15
L 40 27.35 34.25 23.45
Q 30.95 20.75 30.7 20.75 29.4 20.75 27.1 16.45
L 23.55 10.2 26.85 7.3
Q 27.35 6.8 28.65 6.8
L 41.45 17.85
M 49.35 18.55
L 49.1 18.1 57.55 9
Q 59.2 19.8 58.75 20.35
L 51.8 26.05
Q 51.95 25.15 51.1 22.4
L 49.35 18.55
M 57.7 24
L 58.55 23.2
Q 59.4 22.8 59.5 24.35
L 56.4 30.9
Q 55.45 32.75 51.8 41.8
L 51.35 42.85 48.35 34.15 50.6 30.1
Q 51.1 28.8 51.7 28.65
L 57.7 24
M 59.7 26.85
Q 59.3 29.2 59.4 29.3
L 60.8 27.75 62.3 39.85
Q 62.85 42.7 63.8 53.8 64.35 59.5 64.15 82.95 64 105.2 64.25 107.8
L 64.25 135.1 64 135.25
Q 63.5 135.35 62.85 136
L 60.4 137.3
Q 56.5 139.55 53.25 140.45
L 52.85 139.65
Q 52.4 139 52.4 127.3 52.3 115.6 51.55 97.9
L 50.8 78.5
Q 50.8 50.25 54.1 38.8 58.25 30.5 59.7 26.85
M 42.15 31.8
L 42.2 32.05 43.85 34.65
Q 44.15 36.45 43.7 39.35
L 42.2 47.75 42 48.45
Q 38.7 38.15 33.6 26.6
L 31.9 22.8 42.15 31.8
M 21.85 11.6
L 22.55 10.7 23.2 10.45 36.95 41.4
Q 43.25 55.85 47.05 86.05 50.8 116.25 50.9 127.95 50.9 139.65 51.7 140.85
L 50.4 141.1 18.25 141.2
Q 13.5 140.45 7.85 138.25 4.8 137.05 3 136.65
L 1.6 107.15
Q 0.75 93.85 1.2 80.6 1.6 67.2 2.5 61.45 3.35 55.75 5.05 49.2
L 8.95 35.45
Q 10.95 28.15 14.6 21.75 18.15 15.25 19.7 13.55
L 19.55 13.55 19.85 13.45 21.85 11.6 Z"/>

<path fill="#FFFFFF" stroke="none" d="
M 42.2 32.05
L 42.15 31.8 31.9 22.8 33.6 26.6
Q 38.7 38.15 42 48.45
L 42.2 47.75 43.7 39.35
Q 44.15 36.45 43.85 34.65
L 42.2 32.05
M 58.55 23.2
L 57.7 24 51.7 28.65
Q 51.1 28.8 50.6 30.1
L 48.35 34.15 51.35 42.85 51.8 41.8
Q 55.45 32.75 56.4 30.9
L 59.5 24.35
Q 59.4 22.8 58.55 23.2
M 49.1 18.1
L 49.35 18.55 51.1 22.4
Q 51.95 25.15 51.8 26.05
L 58.75 20.35
Q 59.2 19.8 57.55 9
L 49.1 18.1
M 40.85 18.1
L 41.45 17.85 28.65 6.8
Q 27.35 6.8 26.85 7.3
L 23.55 10.2 27.1 16.45
Q 29.4 20.75 30.7 20.75 30.95 20.75 34.25 23.45
L 40 27.35 39.55 25.15
Q 39.2 24.65 39.2 24.25 39.2 22.7 39.75 20.45
L 40.4 18.15 40.4 18 40.85 18.1 Z"/>
</g>

<g id="Parts_Bodies_bodyMC_31_Layer11_0_FILL">
<path fill="#000000" fill-opacity="0.25098039215686274" stroke="none" d="
M 60.05 8.6
L 59.95 8.35 59.7 8.75 59.95 8.6 60.05 8.6
M 55.75 9.8
Q 54.45 10.6 54.25 11.5
L 54.25 13.85
Q 54.25 15 54.9 18.5 55.65 22.95 56.6 22.95 59.95 22.95 59.95 20.85 59.95 19.15 59.2 16.15
L 58.3 11.75 58.25 9.55
Q 57.8 8.35 55.75 9.8
M 63.15 24
L 63.05 24 60.7 25.8 60.8 29.85 59.95 43.75
Q 59.1 57.3 58.3 63.8 57.55 70.15 57.7 78.35
L 57.7 87.75
Q 57.7 94.5 55.3 121.55
L 53.7 125.2
Q 51.7 99.3 51.7 95.4 51.7 78.1 54 50.65
L 56.6 43.25
Q 59.95 33.2 60.05 29.95 60.15 28.25 59.85 26.3
L 58.55 26.95 56.4 33.85
Q 51.1 44.9 50.35 51.9
L 50.25 54.95
Q 50.7 62.35 50.4 75.75
L 46.2 65.3
Q 42 54.75 39.3 47.25 32.1 27.35 32.1 19.15 32.1 9 29 6 26.4 3.55 22.25 6.8 18.4 9.8 15.45 15.9 12.35 22.3 10.95 25.55 9.45 28.65 3.65 50.5 -2.25 72.4 -0.65 87.6 0.85 102.7 -1.05 134.85 -1.05 139.55 21.6 142.25 36.95 144.2 46.45 144.2 52.55 144.2 59.5 138.9 66.75 133.3 66.75 128.35
L 66.5 71.35
Q 65.75 41.95 63.15 24
M 20.2 20.05
Q 25.55 20.05 32.65 41.4 34.05 45.45 40.4 68.6 41.45 72.65 44.7 80.85
L 45.55 99.3
Q 46 109.6 46.7 117.55 46.7 120.15 45.35 130.3
L 38.8 130.15
Q 30.3 130.15 22.45 131.75
L 13.75 133.8 6.8 133.8
Q 5.25 127.8 5.25 125.2 5.25 20.05 20.2 20.05
M 53.15 52.35
L 53.25 52.2 53.25 52.35 53.15 52.5 53.15 52.35 Z"/>
</g>

<g id="MovieClips_Symbol_585_31_Layer0_0_FILL">
<path fill="#FECE00" stroke="none" d="
M 62.3 39.85
L 60.8 27.75 59.4 29.3
Q 59.3 29.2 59.7 26.85 58.25 30.5 54.1 38.8 50.8 50.25 50.8 78.5
L 51.1 86.45 46.85 84.3
Q 43.05 55.4 36.95 41.4
L 23.2 10.45 22.55 10.7 21.85 11.6 19.85 13.45 19.55 13.55 19.7 13.55
Q 18.15 15.25 14.6 21.75 10.95 28.15 8.95 35.45
L 5.05 49.2
Q 3.35 55.75 2.5 61.45 1.6 67.2 1.2 80.6 0.75 93.85 1.6 107.15
L 3 136.65
Q 4.8 137.05 7.85 138.25 13.5 140.45 18.25 141.2
L 50.4 141.1 51.7 140.85 51.65 140.7 53.6 140.7
Q 54.05 140.65 54.5 140.3
L 54.9 139.95
Q 57.45 139 60.4 137.3
L 62.85 136
Q 63.5 135.35 64 135.25
L 64.25 135.1 64.25 107.8
Q 64 105.2 64.15 82.95 64.35 59.5 63.8 53.8 62.85 42.7 62.3 39.85 Z"/>
</g>

<g id="MovieClips_Symbol_621_31_Layer14_0_FILL">
<path fill="#000000" stroke="none" d="
M 13.25 58.6
Q 10.5 58.6 8.35 62.25
L 4.5 70.05
Q -1.2 81.5 -11.7 81.5 -12.65 81.5 -14.3 79.95 -16 78.25 -16 76.8 -13.75 72.5 -13.75 72 -13.75 71.6 -42.75 58.2 -48.55 58.2 -48.55 64.7 -48.55 84.9 -40.1 92.3 -35 96.7 -26.1 96.7 -24.1 96.7 -21.8 98.55
L -23.95 104.9
Q -24.8 107.4 -24.8 108.7 -24.8 111.3 -24.6 111.7
L -23.95 112.1 -22.05 112.45
Q -18.9 112.45 -17.65 109.6 -16.45 107 -16.45 101 -16.45 93.2 -18.6 91.8
L -24.2 91.5
Q -34.15 91.8 -40.7 69.15
L -41.15 67.2
Q -21.6 79.65 -14.8 86.7 -11.6 90.1 -10.3 90.1 6.2 90.1 12.8 74.35 15.15 68.75 15.15 63.55 15.15 58.6 13.25 58.6
M 17.2 30.9
Q 15.15 30.9 13.75 32.05 12.35 33.2 12.35 34.8 6 31.65 -4.2 15.5 -13.1 1.6 -20.05 1.6 -29.55 1.6 -34.15 7.7 -38.9 14.1 -37 28
L -33.95 47.9
Q -32.95 53.9 -25.15 53.8 -17.4 53.4 -12.05 46.9 -6.8 40.25 -6.8 30.5 -6.8 28.15 -7.65 23.35
L -8.35 20.2
Q -4.5 25.15 1.3 35.45 6.55 43.1 12.8 43.1 15.8 43.1 20.3 40.1 25.8 36.45 25.8 31.8 25.8 29.7 24.95 28.8 24 27.75 21.6 27.75 21.25 27.75 19.85 28.8
L 17.2 30.9
M -15.8 12
L -13 13.55
Q -23.1 12.55 -24.8 27.5 -24.7 32.55 -21.5 32.55 -19.45 32.55 -18.05 28.55
L -16.75 23.7 -15.4 22.4
Q -17.55 41.3 -15.65 37.65 -13.85 34 -14.4 39.6 -16.85 46.6 -24.8 46.6 -26.65 46.6 -29.65 37.75 -32.35 29.85 -32.35 27.6 -32.35 9.65 -23.1 9.65 -20.65 9.65 -15.8 12
M 83.6 59.9
Q 84.65 55.6 84 53.4 81.75 56.75 74.4 62.65 67.15 68.5 64.45 67.85
L 64.6 69 64.75 75.9 66.5 76.15 78.1 69.5
Q 78.1 72.65 77.45 77.7 76.7 82.65 76.7 83.6 76.7 86.7 78.3 88.5 79.7 90.1 81.65 90.1
L 84.9 89.8
Q 85.6 88.15 85.6 85.55 85.6 84.1 84.2 83.05 82.75 81.9 82.6 73.05 82.4 64.05 83.6 59.9
M 84.1 38.3
Q 88.85 30.75 89.45 23.6 90.05 16.3 80.85 16.3 68.3 16.3 60.9 24.5
L 61.15 27.25
Q 61 28.8 61.15 31.15
L 61.35 34.65 64.25 34.4
Q 67.15 34 68.45 27.35 69.75 20.75 74.15 22.05 78.55 23.2 83.15 26.95 80.75 32.45 79.5 34 77.85 36.1 75.1 36.45
L 75 33.1 73.9 32.55
Q 73.05 31.9 71.75 31.9 68.45 31.9 68.45 37.9
L 68.65 41.8
Q 69.75 45.3 74.55 45.6 79.3 45.85 84.1 38.3 Z"/>
</g>
</defs>

<g transform="matrix( 1, 0, 0, 1, -33.5,-72.6) ">
<g transform="matrix( 1, 0, 0, 1, 0,0) ">
<use xlink:href="#Parts_Bodies_bodyMC_31_Layer16_0_FILL"/>
</g>

<g transform="matrix( 1, 0, 0, 1, 0,0) ">
<use xlink:href="#Parts_Bodies_bodyMC_31_Layer14_0_FILL"/>
</g>

<g transform="matrix( 1, 0, 0, 1, 0,0) ">
<use xlink:href="#Parts_Bodies_bodyMC_31_Layer11_0_FILL"/>
</g>
</g>

<g transform="matrix( 1, 0, 0, 1, -32.9,-71.25) ">
<g transform="matrix( 1, 0, 0, 1, 0,0) ">
<use xlink:href="#MovieClips_Symbol_585_31_Layer0_0_FILL"/>
</g>
</g>

<g transform="matrix( 1, 0, 0, 1, -33.5,-72.6) ">
<g transform="matrix( 1, 0, 0, 1, 0,0) ">
<use xlink:href="#MovieClips_Symbol_621_31_Layer14_0_FILL"/>
</g>
</g>
</svg>
