
<svg xmlns="http://www.w3.org/2000/svg" version="1.1" xmlns:xlink="http://www.w3.org/1999/xlink" preserveAspectRatio="none" x="0px" y="0px" width="550px" height="400px" viewBox="0 0 550 400">
<defs>
<g id="Layer0_0_FILL">
<path fill="#FFFFFF" fill-opacity="0.25098039215686274" stroke="none" d="
M 8.05 24.25
L 8.35 24.3
Q 8.9 26 11.05 26.4
L 29.9 27.85 30.85 27.8
Q 31.3 27.55 31.35 26.5 14.15 24.15 8.5 24.15
L 8.05 24.25
M 27.7 17.75
L 31.85 16.65
Q 15.3 16.25 10.35 17.65
L 10.55 18 16.6 18.35 27.7 17.75
M 31.7 22.05
L 31.8 20.75 8.5 20.25 8.35 20.95 8.4 21.7 15.45 22.45 31.7 22.05 Z"/>
</g>
</defs>

<g transform="matrix( 1, 0, 0, 1, 0,0) ">
<use xlink:href="#Layer0_0_FILL"/>
</g>
</svg>
