
<svg xmlns="http://www.w3.org/2000/svg" version="1.1" xmlns:xlink="http://www.w3.org/1999/xlink" preserveAspectRatio="none" x="0px" y="0px" width="550px" height="400px" viewBox="0 0 550 400">
<defs>
<g id="Parts_Heads_headColorMC_33_Layer1_0_FILL">
<path fill="#A88B43" stroke="none" d="
M 114.25 88.4
Q 114.15 88.75 113.55 88.75 108.5 88.75 104.15 85.95 98.35 82.15 96.95 74.8 95.35 64.3 84.4 57.2 75.65 51.5 69.1 51.5
L 64.15 52 62.2 52.4
Q 46.25 52.4 32.75 65.95 27 71.8 23.6 78.5 20.2 85.25 20.2 90.95 21.7 105.25 22.9 105.25 23.45 105.25 23.5 105.8
L 23.4 106.9
Q 23.7 106.75 24.75 106.35
L 26.15 105.95 26.1 106.3
Q 25.8 106.65 25.2 108.25
L 24.55 110.05
Q 24.55 110.55 24.8 110.75
L 25.25 111.25 24.4 112.05
Q 27 119.7 27.9 121.8 30.45 127.85 33.8 131.85 43.1 142.85 61.75 142.85 81.65 142.85 96.15 129.75 102.1 124.3 105.2 118.05 108.2 112 107.45 107.3 106.8 107.25 106.55 106.9 106.3 106.55 106.3 105.65 106.3 99.75 111.6 96.1
L 115.2 93.65
Q 116.85 92.35 116.85 90.95 116.55 88.85 114.7 87.6 114.4 87.85 114.25 88.4 Z"/>
</g>
</defs>

<g transform="matrix( 1, 0, 0, 1, -62.75,-76.85) ">
<g transform="matrix( 1, 0, 0, 1, 0,0) ">
<use xlink:href="#Parts_Heads_headColorMC_33_Layer1_0_FILL"/>
</g>
</g>
</svg>
