
<svg xmlns="http://www.w3.org/2000/svg" version="1.1" xmlns:xlink="http://www.w3.org/1999/xlink" preserveAspectRatio="none" x="0px" y="0px" width="550px" height="400px" viewBox="0 0 550 400">
<defs>
<g id="Parts_Heads_headColorMC2_33_Layer3_0_FILL">
<path fill="#FFFFFF" stroke="none" d="
M 117.4 102.2
Q 117.4 101.65 116.85 100.45 116 98.8 114.8 98.8
L 112.05 99.7 110.8 100.25
Q 109.4 100.85 109.4 101.05 109.4 102 106.4 104.35
L 96.95 110.6
Q 84.95 117.95 79.25 120.05 80.95 119.85 82.25 120.5 83.75 121.25 84.35 121.25
L 87.9 120.05
Q 93.95 118.4 95.9 119.3 96.65 119.6 103.05 115.55
L 109.15 110.75 110.85 109.2
Q 111.9 108.2 115.6 105.45 117.4 104.15 117.4 102.2
M 68.2 46.85
Q 66.9 47.4 67.05 47.6 66.1 47.75 60.05 50.9 56.3 52.85 56.75 49.55
L 54.85 49.8 55.85 50.15
Q 53.85 50.45 53.1 51 52.45 51.45 51.7 51.45 49 51.45 43.6 55.55 39.4 58.75 38.8 59.55
L 39.05 59.75
Q 39.3 60.15 39.35 59.9 39.1 61.65 30.4 61.65
L 29.7 62 29.65 64.4 29.75 65.65 31.1 65.65 27.8 68.5
Q 25.8 70.25 24.4 72.2
L 22.1 74.6
Q 21.3 75.3 21.3 76
L 21.6 78.75
Q 21.65 81.5 20.45 81.5 18.9 81.5 17.8 82.15 16.7 82.8 16.7 83.55
L 17.9 86.75 18.6 87
Q 18.55 89 18 89.45 16.75 90.4 16.45 91
L 16 93 16.95 94.2
Q 17.3 94.55 17.85 94.55 18.7 94.55 18.95 93.7
L 19.3 96.15
Q 18.7 96.75 17.8 98.05
L 16.8 99.65
Q 16.8 100.9 17.75 101.55 18.35 102 19.8 102.35
L 20.3 101.65 21.1 105.25 20.05 108.55
Q 20.05 112.95 23.6 115.45 27.4 118.1 34.4 118.1 35.25 118.1 34.55 118.2 34.25 119.6 33.2 120.05
L 29.95 120.4 27.55 120.05
Q 26.05 119.7 25.25 119.35
L 24.6 125.45
Q 24.6 129.1 28.45 132.45 32.6 136.05 33.15 139.15 35.4 151.25 40.4 151.25
L 43.75 151.15
Q 44.55 151.15 45.7 150.45
L 46.75 149.65 49.25 149.75 49.2 150.2
Q 48.05 151.7 44.95 152.55
L 41.85 153.15 41.95 153.4
Q 44.45 153.75 46.35 155.9 48.15 157.9 49.8 157.9
L 50.25 157.55
Q 50.25 157.15 50.65 157.15
L 51.15 157.7
Q 51.85 158.2 53.3 158.2
L 59.75 157.65
Q 59.7 158.3 59.8 158.5 60 158.9 60.6 159.15
L 55.25 160.3 55.85 160.7
Q 56.9 161.35 60.15 162.25 63.8 163.25 65.8 163.25 70.15 163.25 75.95 161.55 77.25 161.2 79.65 158.4
L 80.9 156.95
Q 84.05 158.1 88.15 158.1
L 94.45 157.6
Q 97.5 156.75 100.2 156.45
L 100.55 156.55 100.6 157.35
Q 100.6 158.35 99.5 158.75
L 93.95 160.15
Q 97.5 162.95 102.75 169.7 105.55 173.35 110.35 173.35 117.95 173.35 120.35 169.9
L 121.6 167.55
Q 122.2 166.5 123.2 166.5
L 124.55 166.65 124.55 167.1 124.25 168.15 122.8 170.55
Q 119.8 174.15 113.85 175.35 114.95 175.95 115.2 178.4 115.6 182.75 116.45 185.6 117.7 190 122.25 191.8 125.45 193.05 130.8 193.05
L 134.95 191.8
Q 139.45 190.5 141.55 190.5
L 142.8 190.75 142.95 191 142.95 191.55
Q 142.95 192.45 140.7 193.15 137.55 194.15 129.75 194.9 128.6 197.4 131.55 198.75 133.1 199.5 135.35 200 144.3 205.15 150.55 205.15 153.55 205.15 155.65 203.95 157.75 202.65 160.8 199.05 160.35 198.9 159.55 198.2
L 158.55 197.25
Q 160 196.3 161.65 192.35 163.45 188.05 163.45 184.7 163.45 180.55 158.4 173.75 152.65 166.65 151.15 164.1
L 149.25 168.95 148.15 168.7
Q 147.85 168.45 147.85 167.85 147.85 163.35 149.15 157.35 150.5 151.3 150.5 150.3 150.5 146.8 148.85 143.7
L 143.95 135.5 144.9 142.2
Q 144.9 143 144.15 143.25 143.05 142.8 142.6 142 141.9 140.8 141.9 138.05 142.55 133.1 141.9 128.15 140.6 118.3 134 117.85
L 134.65 118.7 135.25 119.15 135.35 119.8
Q 135.35 120.65 135.1 120.7
L 133.4 120.9
Q 132.2 120.9 131.45 119.1
L 130.25 115.15
Q 128.15 109.4 122.1 109.4
L 118.5 110.25
Q 112.15 111.6 109.8 113.4 99.85 121.9 97.8 122.65 85.85 127.2 80.05 130.1
L 79.9 130.1 77.15 130.55 71.45 122.25
Q 70.4 123.15 68.3 124 66 124.9 64.4 124.9
L 62.4 124.75 61.85 123.6
Q 63.55 122.05 65.95 120.6
L 69.6 118.5
Q 73.15 116.2 73.15 112.35 73.15 108.8 71.7 104.55 69.65 98.75 65.55 94.4
L 64.7 95.6 63.4 96.7 62.85 96.4
Q 62.7 96.15 62.7 95.6 62.7 94.9 63.6 91.65
L 64.55 88.1
Q 64.55 85.85 62.5 78.1 61.8 79.3 60.2 80.5 58.8 81.5 58.25 81.5
L 57.35 80.95
Q 56.85 80.25 56.85 79.1
L 69 69.25
Q 81.1 58.6 81.1 54.25 81.1 52 75.7 48.95
L 70.2 46.35
Q 69.55 46.35 68.2 46.85
M 23.1 101.35
L 23.3 101.2 23 101.85
Q 22.9 101.55 23.1 101.35
M 88.5 65.1
Q 85.4 65.1 83.1 67.5
L 81 69.95 79.75 69.5
Q 78.75 68.95 78.75 68.3 78.75 67.8 79.1 67.55
L 79.55 67.3 79.3 67.2
Q 77.4 66.8 75.35 68.85 73.5 70.8 73.5 72.5 73.5 73.3 74.35 73.5 75.25 73.65 75.25 74.35 75.25 75.7 72.9 79.25
L 69.6 83.7
Q 77.65 78.2 88.45 72.6
L 95.25 69 95.55 68.8 96.65 68.2 96.95 68 97.8 67.55 98.15 67.3 98.2 67.25 98.5 67.05 98.65 66.9 88.5 65.1 Z"/>
</g>
</defs>

<g transform="matrix( 1, 0, 0, 1, -62.75,-76.85) ">
<g transform="matrix( 1, 0, 0, 1, 0,0) ">
<use xlink:href="#Parts_Heads_headColorMC2_33_Layer3_0_FILL"/>
</g>
</g>
</svg>
