
<svg xmlns="http://www.w3.org/2000/svg" version="1.1" xmlns:xlink="http://www.w3.org/1999/xlink" preserveAspectRatio="none" x="0px" y="0px" width="550px" height="400px" viewBox="0 0 550 400">
<defs>
<g id="Layer0_0_FILL">
<path fill="#333333" stroke="none" d="
M 12.7 131.6
Q 12.7 135.3 9.45 135.25 7.45 135.1 6.6 133.7
L 6.7 147.6 69.95 150.2 69.3 114.3 6.4 112.7 6.6 126.65
Q 7.35 125.05 9.3 125.1 12.65 125.15 12.7 131.6
M 67.85 131.05
Q 67.9 133.75 67.35 135.1 66.25 137.6 63.15 137.5 61.1 137.4 60.15 135.05
L 59.7 132.7
Q 59.6 127.85 63.7 126.9 67.75 125.7 67.85 131.05
M 35.85 127.1
Q 39.9 127.6 39.95 132.65 40.05 137 36.4 136.85 32.05 136.65 31.95 130.85 31.85 126.65 35.85 127.1
M 65.8 13.7
Q 57.3 12.8 52.15 18.1 31.8 41.4 26.95 47.45 16.2 60.95 16.2 65.1 16.35 81.55 19 91.35 21.95 102.15 22.4 110.3
L 29.65 111.1 32 106.2
Q 34.45 100.95 35.35 99.75 42.05 90.7 48.5 79.35 54.3 68.95 56.5 62.9 64.75 40.5 76.5 18.45 73.65 14.45 65.8 13.7 Z"/>
</g>
</defs>

<g transform="matrix( 1, 0, 0, 1, 0,0) ">
<use xlink:href="#Layer0_0_FILL"/>
</g>
</svg>
