
<svg xmlns="http://www.w3.org/2000/svg" version="1.1" xmlns:xlink="http://www.w3.org/1999/xlink" preserveAspectRatio="none" x="0px" y="0px" width="550px" height="400px" viewBox="0 0 550 400">
<defs>
<g id="Layer0_0_FILL">
<path fill="#000000" fill-opacity="0.25098039215686274" stroke="none" d="
M 30 24
L 30 23.8 29.8 24 30 24
M 51.05 4.05
L 50.8 3.3
Q 50.35 2.9 48.6 2.75
L 48.25 2.75 34.05 0.85
Q 32.25 0.25 31.05 16.55
L 31.05 21.15 31.35 22.1 31.35 23.65 31.2 24.6
Q 30.9 25.25 29.7 25.25
L 28.85 25.1 22.05 25.5 1.95 25
Q -12.15 24.55 -13.25 24.8 -14.4 25 -14.95 25.9 -15.5 26.8 -15.1 30.85
L -14.85 35.2 -14.95 35.4 -15.1 36.3 -15.05 36.8 -9.1 36.85 -2 35.9
Q 6.15 35.9 19.5 36.3
L 45.35 37.1 59.8 38.4
Q 64.65 38.4 68.45 37.05 72.25 35.7 72.1 31.45 71.95 27.25 65.75 26.45
L 57.9 25.85
Q 56.2 26 54.5 21.9 52.8 17.75 52.2 15.25
L 52.35 15.15 52.35 14 51.05 4.05
M 42 5.65
Q 47.05 5.65 48.05 10.75
L 48.75 16.6
Q 49.25 20.85 50.15 24.05 51.8 31.05 57.6 31.15
L 64.15 30.25 64.25 30.55 64.35 31.45
Q 64.35 32.05 59.7 32.85 55.05 33.6 55.05 34.05 55.05 34.55 55.55 34.15 56.05 33.75 56.05 34.25 56.05 34.95 54.3 34.75
L 47.45 33.7
Q 32 31.5 9.3 31.5
L -7.45 32.65 -10.4 32.6 -10.75 32.2 -11.5 31.6 -10.55 30.9 -8.15 29.45
Q -7.25 29 -4.25 28.8
L 21.05 29.5
Q 37.1 29.5 37.1 21.5 37.1 18.75 36.25 15.05
L 35.35 10.85
Q 35.35 9 37.15 7.4 39.1 5.65 42 5.65 Z"/>
</g>
</defs>

<g transform="matrix( 1, 0, 0, 1, 0,0) ">
<use xlink:href="#Layer0_0_FILL"/>
</g>
</svg>
