
<svg xmlns="http://www.w3.org/2000/svg" version="1.1" xmlns:xlink="http://www.w3.org/1999/xlink" preserveAspectRatio="none" x="0px" y="0px" width="550px" height="400px" viewBox="0 0 550 400">
<defs>
<g id="Layer0_0_FILL">
<path fill="#000000" stroke="none" d="
M 53.25 3.35
L 53.15 2.8 50.7 2.65 50.6 2.05 50.05 2.1 50.15 2.6 43.55 2.45 50.35 3.5 51.35 9.45
Q 52.75 18.6 53.6 21.6 55.15 27.1 57.5 27.1 65.75 27.1 68.9 28.25 71.4 29.1 71.4 31.05 72.75 32.6 70.8 34 66.85 36.75 50.15 36.75
L 31 35.5 -9 35.25 -14.85 36.25 -14.85 27.75
Q -14.55 26.5 -14 26.25
L 12.7 25.8 32.5 26
Q 31.35 17.35 33.45 6.4 33.85 4.3 34.4 2.5
L 34.05 2.5 33.05 5.5 33.1 1.55 45.75 2.05 37.05 0.45
Q 35.05 0.15 31.85 0.5
L 31.85 9.95
Q 30.05 18.05 31.35 24.6
L 19.8 24.75 21.5 24.6 7.2 24 -7.35 24.35 -12.55 23.6
Q -15.25 23.3 -15.75 25.6 -16.1 27.05 -16.1 29.35
L -16.25 37.05
Q -16.25 37.8 -15.95 37.8
L -15 37.75
Q -13.65 37.2 -10.95 36.95 -6.35 36.5 9 36.75
L 11 36.75 9 37 20.4 37.5 32.5 37.1 65.05 38.1
Q 69.8 38.1 71.65 34.75 72.65 33 72.65 31 72.65 29.4 70.75 28 67.25 25.35 58.5 25.35 55.55 25.35 54 20.5 53.15 17.8 51.9 9.45
L 50.9 3.55 52.5 3.55 53.25 3.35 Z"/>
</g>
</defs>

<g transform="matrix( 1, 0, 0, 1, 0,0) ">
<use xlink:href="#Layer0_0_FILL"/>
</g>
</svg>
