
<svg xmlns="http://www.w3.org/2000/svg" version="1.1" xmlns:xlink="http://www.w3.org/1999/xlink" preserveAspectRatio="none" x="0px" y="0px" width="550px" height="400px" viewBox="0 0 550 400">
<defs>
<g id="MovieClips_Symbol_228_24_Layer1_0_FILL">
<path fill="#CDCDCD" stroke="none" d="
M -3.4 -4.05
L -5.4 -4.5
Q -8.25 -4.55 -9.25 -2.85 -9.9 -2.05 -9.9 -1 -9.9 1 -7.55 1.85 -5.15 2.6 -5.15 3.25
L -5.15 3.4
Q -4.45 4.05 -4.05 5.45 -3.65 6.6 -3 9.05
L -1.6 16.2 2.5 30.6 2.4 31.05 2.2 31.2 2.3 31.55
Q 2.3 32.15 1.7 33.15 1 34.1 1 34.6
L 0.85 35.2 5.9 35.2 5.25 31.65
Q 4.75 28.7 4.75 26.75 4.75 24.45 5.75 22 6.7 19.75 7.9 18.45
L 8.9 18.6 8.7 18.85
Q 11.5 21.5 14.5 28.45 16.6 33.5 17.05 35.3
L 17.85 35.15
Q 19.9 34.95 25.95 35.3
L 37.65 35.35 44.55 34.85 47.45 33.55
Q 51.9 31.35 55.9 28.85 56.95 27.4 56.95 26.25 56.95 25.05 56.15 24 55 22.4 52.4 22.35 50.05 22.3 41.5 25 32.85 27.55 28.5 27.5 21.25 27.35 18.3 26.45
L 16.35 23.85 13.85 18.95
Q 10.15 11 9.25 9.65
L 4 1.7
Q 2.95 -0.1 -0.6 -2.3
L -3.4 -4.05 Z"/>
</g>
</defs>

<g transform="matrix( 1, 0, 0, 1, -28.15,-10.5) ">
<g transform="matrix( 1, 0, 0, 1, 0,0) ">
<use xlink:href="#MovieClips_Symbol_228_24_Layer1_0_FILL"/>
</g>
</g>
</svg>
