
<svg xmlns="http://www.w3.org/2000/svg" version="1.1" xmlns:xlink="http://www.w3.org/1999/xlink" preserveAspectRatio="none" x="0px" y="0px" width="550px" height="400px" viewBox="0 0 550 400">
<defs>
<g id="Parts_Feet_footMC_24_Layer7_0_FILL">
<path fill="#FFFFFF" stroke="none" d="
M 45.8 33.15
L 49.2 31.9 48.1 28.95 45.7 33.15 45.8 33.15
M 42.8 34.1
L 43.5 33.35 42.8 32.65 42.85 32.65
Q 42 32.3 40.8 32.3
L 38.85 32.65
Q 38.2 33.05 38.15 33.35 38.2 33.7 38.85 34.05
L 38.85 34.1 40.8 34.45 42.8 34.1
M 42.9 30.2
L 41.15 27.75 40.95 27.65 39 30.3 42.9 30.2
M 48.85 26.85
L 50.25 26.65 50.65 26.3
Q 50.6 26.2 50.25 26.05 49.65 25.75 48.85 25.75
L 47.4 26.05 47.35 26.05 47 26.3 47.4 26.65 48.85 26.85
M 20.55 33.25
L 23.85 28.55 17.2 28.55 20.55 33.25
M 29.65 31
L 25.15 31 25.15 33.65 29.65 33.65 29.65 31
M 31.4 29.05
L 33.85 33.2 36.35 29.05 31.4 29.05
M 2.8 32.4
L 2.7 32.45
Q 2.45 32.65 2.45 33.1 2.45 33.5 2.7 33.7
L 2.8 33.75 3.3 33.95 3.85 33.75 3.85 33.7 4.1 33.1 3.85 32.45
Q 3.65 32.15 3.3 32.15 2.95 32.15 2.8 32.4
M 3.25 26.65
L 3.2 26.75
Q 2.95 26.9 2.95 27.25
L 3.2 27.8 3.25 27.85 3.3 27.95 3.6 27.8 3.75 27.25 3.6 26.7 3.3 26.5 3.25 26.65
M 14.15 23.8
Q 13.95 23.8 13.8 23.95
L 13.75 24 13.55 24.4 13.75 24.85 14.15 25 14.6 24.9 14.65 24.85 14.7 24.4 14.6 23.95 14.15 23.8
M 9.35 16.3
Q 6.75 15.4 2 16.65
L 2 16.95 10.2 16.6 9.35 16.3
M 4.5 19.8
L 1.8 19.8 3.1 22.65 4.5 19.8
M 44.3 28.2
L 45.4 26 43.2 26 44.3 28.2
M 51.25 29.35
L 52 28.1
Q 51 28.2 50.25 28.65
L 50.2 28.65 50.1 28.7 51.25 29.35
M 54.15 25.1
Q 53.85 24.75 53.5 24.75
L 52.95 25.05 52.9 25.15
Q 52.55 25.3 52.55 25.75 52.55 26.15 52.9 26.45
L 52.95 26.5 53.5 26.75 54.1 26.5 54.15 26.5 54.45 25.75 54.15 25.1
M -3.2 4.75
L -2.85 6.05 0.8 4.1 -3.2 4.75
M -1.1 8.95
L -1.1 9.9 0.7 13.35
Q 1.85 12.45 3.75 11.75 4.9 11.25 6.2 9.45
L -1.1 8.95
M -2.45 -1.15
L -6.9 -1.15 -4.7 0.9 -2.45 -1.15 Z"/>
</g>

<g id="Graphics_Symbol_295_0_Layer1_0_FILL">
<path fill="#4F4F4F" stroke="none" d="
M -8.05 -5.4
Q -10.9 -4.65 -10.9 -1.1 -10.9 0.45 -10.3 1.65 -9.1 3.75 -6.15 3.95
L -4.75 9.3 -2.6 17.25 -0.45 25.85
Q 0.45 29 1.2 30.3
L 0.55 31.55 0.6 31.9 -0.15 33.15
Q -0.65 34.15 -0.95 35.3
L -0.85 35.6 -0.7 35.75 -0.55 35.8 -0.35 36.1 0 36.2 6.25 36.2 6.65 36.15 6.75 36.05 6.8 36 6.8 35.15
Q 6.8 33.85 6.25 31.3
L 5.85 27.6
Q 5.85 24.95 7.4 21.7
L 8.35 19.7
Q 9.75 22.05 13.15 29.7 15.5 34.9 16.3 36.15
L 16.25 36.2 16.25 36.35 19.45 36.15 25.7 36.35 31.85 36.35 39.4 36.05 42.4 35.95 45.15 36 45.4 35.95 45.8 35.6 47.3 34.95 48.05 34.7 49.25 34.1
Q 50.1 33.65 50.8 33.35
L 51.45 33
Q 52.8 31.9 54.2 31.05 55.5 30.25 56.7 29.75 57.6 28.9 57.6 28.2
L 57.5 27.9
Q 58.05 27.05 58.05 26.45
L 58.05 26.35 57.9 24.4 56.5 22.65 55.5 21.55 50.95 21.3 41.75 23.95
Q 32.85 26.35 29.2 26.3
L 19.35 25.65 18.55 24.55 18.1 24.2 15 17.65 10.05 8.4
Q 7.4 3.35 5.15 0.65 1.35 -4 -2.6 -4.6
L -2.6 -4.65
Q -4.85 -5.7 -6.7 -5.6
L -8.05 -5.4
M -9.9 -1
Q -9.9 -2.05 -9.25 -2.85 -8.25 -4.55 -5.4 -4.5
L -3.4 -4.05 -0.6 -2.3
Q 2.95 -0.1 4 1.7
L 6.7 5.75 9.25 9.65
Q 10.15 11 13.85 18.95
L 16.35 23.85 17.3 25 18.3 26.45
Q 21.25 27.35 28.5 27.5 32.85 27.55 41.5 25 50.05 22.3 52.4 22.35 55 22.4 56.15 24 56.95 25.05 56.95 26.25 56.95 27.4 55.9 28.85 51.9 31.35 47.45 33.55
L 44.55 34.85 43.55 34.95 37.65 35.35 25.95 35.3
Q 19.9 34.95 17.85 35.15
L 17.05 35.3
Q 16.6 33.5 14.5 28.45 11.5 21.5 8.7 18.85
L 8.9 18.6 7.9 18.45
Q 6.7 19.75 5.75 22 4.75 24.45 4.75 26.75 4.75 28.7 5.25 31.65
L 5.9 35.2 0.85 35.2 1 34.6
Q 1 34.1 1.7 33.15 2.3 32.15 2.3 31.55
L 2.2 31.2 2.4 31.05 2.5 30.6 0.8 24.35 -1.6 16.2 -2.3 12.65 -3 9.05
Q -3.65 6.6 -4.05 5.45 -4.45 4.05 -5.15 3.4
L -5.15 3.25
Q -5.15 2.6 -7.55 1.85 -9.9 1 -9.9 -1 Z"/>
</g>

<g id="Graphics_Symbol_295_0_Layer0_0_FILL">
<path fill="#000000" fill-opacity="0.25098039215686274" stroke="none" d="
M 14.65 20.3
Q 11.25 10.6 8.3 5.5 5.3 0.4 0 -3 1.95 -1.2 5.2 3.75 9.55 10.4 14.65 20.3
M -3.15 -2.3
Q -2.75 -3.7 -2.1 -4 -5.15 -5.25 -7.95 -4.05 -10.35 -3.45 -10.35 -1.35 -10.35 0.2 -9.8 1.05 -8.85 2.5 -6.4 3 -5.05 6.45 -3.05 12.95 -0.05 23.05 0.65 27.5 1.3 31.95 -0.15 35.2
L -0.15 35.95 4.95 36.05
Q 5.75 36.05 6.05 35.65 6.4 35.25 6.4 34.15 5.85 30.7 5.9 27.3 6 20.6 8.9 20.6 9.25 20.6 12 25.6 14.7 30.55 14.95 33.35 15.15 36.1 18.75 36 22.35 35.85 34.75 35.85 45.45 35.85 52.05 32.15 57.4 29.2 57.8 26.95 58.15 24.65 55.45 22.65 52.7 20.65 50.7 21.35 48.65 22 47.45 22.7 46.25 23.35 45.9 23.7
L 47.95 23.55
Q 51.75 23.55 53.05 24.1 54.05 24.55 54.05 25.8 54.05 29.8 47.6 31.85 42.6 33.45 35.45 33.45 30.2 33.45 24.6 32.15 17.8 30.55 16.7 28.05
L 13.25 19.85
Q 9.75 12.65 7.4 12.65 5.95 12.65 4.3 14.05 2.7 15.35 2.25 16.9
L -0.95 6.1
Q -3.15 -1.05 -3.15 -2.3 Z"/>
</g>
</defs>

<g transform="matrix( 1, 0, 0, 1, -28.4,-10.7) ">
<g transform="matrix( 1, 0, 0, 1, 0,0) ">
<use xlink:href="#Parts_Feet_footMC_24_Layer7_0_FILL"/>
</g>

<g transform="matrix( 1, 0, 0, 1, 0,0) ">
<g transform="matrix( 1, 0, 0, 1, 0,0) ">
<use xlink:href="#Graphics_Symbol_295_0_Layer1_0_FILL"/>
</g>

<g transform="matrix( 1, 0, 0, 1, 0,0) ">
<use xlink:href="#Graphics_Symbol_295_0_Layer0_0_FILL"/>
</g>
</g>
</g>
</svg>
