
<svg xmlns="http://www.w3.org/2000/svg" version="1.1" xmlns:xlink="http://www.w3.org/1999/xlink" preserveAspectRatio="none" x="0px" y="0px" width="550px" height="400px" viewBox="0 0 550 400">
<defs>
<linearGradient id="Gradient_1" gradientUnits="userSpaceOnUse" x1="53.949999999999996" y1="108.33749999999999" x2="121.05000000000001" y2="90.3625" spreadMethod="pad">
<stop  offset="0%" stop-color="#FFFFFF" stop-opacity="0.7529411764705882"/>

<stop  offset="55.294117647058826%" stop-color="#FFFFFF" stop-opacity="0.25098039215686274"/>

<stop  offset="100%" stop-color="#FFFFFF" stop-opacity="0.7529411764705882"/>
</linearGradient>

<g id="Graphics_Symbol_788_0_Layer0_0_FILL">
<path fill="url(#Gradient_1)" stroke="none" d="
M 118.6 87.5
Q 118.6 83.9 116.35 78.05 113.75 71.3 110.9 71.3 107.2 71.3 98.25 74.3 88.9 77.4 79.7 81.85 55.7 93.6 55.7 102.85 55.7 112.9 59.15 119.35 62.85 126.2 69.2 126.2
L 75.65 126.5
Q 81.7 126.8 86.35 126.6 101.15 125.9 104.65 120.5
L 111.3 108.55
Q 116.65 98.5 117 96.55
L 117.9 92.8
Q 118.6 89.2 118.6 87.5 Z"/>
</g>

<g id="Graphics_Symbol_834_0_Layer3_0_FILL">
<path fill="#000000" stroke="none" d="
M 116.15 64.4
Q 104.5 49.2 81.6 49.2 52.15 49.2 34.25 67.5 26.85 75.05 22.85 84.55 19.15 93.4 19.15 101.75 19.15 113.3 21.85 119.85 24.8 127.1 32 131 45.05 138.05 69.75 143 87.75 146.55 93.05 146.55 107.5 146.55 115.4 134.2 124.4 120.25 124.8 90.75 124.95 75.9 116.15 64.4
M 117.9 92.8
L 117 96.55
Q 116.65 98.5 111.3 108.55
L 104.65 120.5
Q 101.15 125.9 86.35 126.6 81.7 126.8 75.65 126.5
L 69.2 126.2
Q 62.85 126.2 59.15 119.35 55.7 112.9 55.7 102.85 55.7 93.6 79.7 81.85 88.9 77.4 98.25 74.3 107.2 71.3 110.9 71.3 113.75 71.3 116.35 78.05 118.6 83.9 118.6 87.5 118.6 89.2 117.9 92.8
M 99.65 56.35
Q 109.6 60.25 114.15 68.85 111.15 66.5 100.85 69.5 91.35 72.2 79.8 78.2 68 84.3 60.3 90.55 51.7 97.55 51.7 102.1 51.7 112.75 54.95 120.15 59.35 130.2 68.7 130.2
L 93.5 129.25
Q 101.5 128.2 105.3 125.05 108.25 122.55 111.7 115.55 117.5 103.7 120.4 98.8 118.75 123.3 110.8 133.85 104.3 142.5 92.75 142.5 86.45 142.5 68.65 137.7
L 35.85 128.3
Q 30.65 126.85 27.3 121.15 23.2 114.2 23.2 102.6 23.2 96.9 25.2 90.1 27.85 80.95 33.3 73.65 48.55 53.25 80.85 53.25 91.75 53.25 99.65 56.35 Z"/>
</g>

<g id="Graphics_Symbol_834_0_Layer2_0_FILL">
<path fill="#010265" fill-opacity="0.25098039215686274" stroke="none" d="
M 89 50.35
L 84.95 50.4 84.95 50.95
Q 50.05 51.85 31.9 73.65 25.75 81 22.35 89.8 19.9 96.2 19.9 99.7 19.9 101.9 21.35 107.8 22.85 114.2 24.7 118.9 25.85 121.85 29.5 125.35 32.85 128.5 36.4 130.55 47.9 137.05 69.5 141.5 86.35 144.95 94.45 144.95 105.85 144.95 113.9 134.7 124.05 121.9 124.05 97.15 124.05 80.3 115.2 66.35 105.05 50.35 89 50.35
M 104.75 56.8
Q 110.2 58.95 111.1 62.75 122.1 84.6 122.1 90.1
L 114.05 126.45
Q 112.55 133.5 103.75 137.35 95.5 140.95 82.9 140.95 60.55 140.95 46.35 125.85 40.7 119.8 37.5 112.4 34.6 105.65 34.6 99.9 34.6 95.1 37.75 88.05 41.4 79.9 47.6 73.05 64.3 54.7 90.25 54.7 99.25 54.7 104.75 56.8 Z"/>
</g>

<g id="Graphics_Symbol_834_0_Layer1_0_FILL">
<path fill="#FFFFFF" fill-opacity="0.5019607843137255" stroke="none" d="
M 51.35 135.7
Q 52.5 134.9 51.25 132.6
L 52.2 129.9
Q 50 128.1 45.55 128.1 44.85 128.1 43.45 128.65 42.15 129.15 41 129.8
L 42.75 131.65 48.2 131.5 48.15 134.4
Q 50.15 136.55 51.35 135.7
M 57.4 127.7
L 56.15 127.95 55.8 128.65
Q 57.55 131.15 63.25 132.65
L 69.05 133.7
Q 70.75 133.7 71.05 133.25
L 71.65 131.9 64.25 129.2
Q 61.6 128.3 57.4 127.7
M 45.45 109.45
L 44.45 110.15
Q 44.1 110.45 44.1 111 44.1 111.55 45.65 113.45 47.25 115.45 47.4 119.55
L 48.1 119.7 49.55 119.6
Q 50.4 119.4 50.4 118.75 50.4 111.05 48.6 109.7 48.05 109.25 47 109.35
L 45.45 109.45
M 65.4 79.45
Q 65.4 78.75 64.9 78.25 64.35 77.75 63.65 77.75 62.95 77.75 62.45 78.25 61.9 78.75 61.9 79.45 61.9 80.15 62.45 80.65 62.95 81.15 63.65 81.15 64.35 81.15 64.9 80.65 65.4 80.15 65.4 79.45
M 80 70
Q 79.25 69.5 78.2 69.5 77.15 69.5 76.45 70 75.7 70.45 75.7 71.15 75.7 71.85 76.45 72.35
L 78.2 72.8 80 72.35
Q 80.7 71.85 80.7 71.15 80.7 70.45 80 70
M 25.05 87.4
L 24.85 88.3 25.3 89.4 25.65 87.15
Q 25.15 87.3 25.05 87.4
M 126.45 87
Q 125.15 91.5 123.9 94.4
L 120.95 101.25
Q 121.45 102.25 121.9 102.6
L 122.4 102.95
Q 126.25 98.85 127.3 93.7 128.25 89 126.45 87
M 93.75 65.75
Q 93.75 65.2 92.95 64.85
L 91.05 64.45 89.15 64.85
Q 88.35 65.2 88.35 65.75 88.35 66.3 89.15 66.7
L 91.05 67.05 92.95 66.7
Q 93.75 66.3 93.75 65.75
M 119.5 68.95
Q 118.9 69.25 118.9 70.35
L 121.3 73.5 124.85 78.05
Q 127.2 76.7 125.1 73.3 123.05 70 119.5 68.95 Z"/>
</g>

<g id="Graphics_Symbol_834_0_Layer0_0_FILL">
<path fill="#4E4F49" stroke="none" d="
M 51.15 134
L 55.3 133.3
Q 57.6 137.25 58.45 137.15 67.15 136.15 70.6 137 74.1 137.85 75.85 131.35
L 65.7 128.35
Q 59.2 126.5 57.45 125.25 54.15 120.85 52.65 122.7 51.5 124.15 51.85 126.85
L 53.75 130.5 50.8 130.9 49.6 128.95
Q 48.75 127.45 47.85 126.7
L 38.9 127.75 38 128.2
Q 37.65 128.45 37.75 129.3 43.85 138.9 45.6 138.7
L 48.45 137.2
Q 50.75 135.6 51.15 134
M 127 96.7
Q 128.6 94.6 128 89.05 127.35 83.55 124.4 83 121.35 82.35 121.95 87.6 122.7 93.95 120.55 98.35 118.4 102.65 118.75 105.8 118.85 106.65 119.3 107 119.6 107.3 120.3 107.45 122.8 101.65 127 96.7 Z"/>

<path fill="#000000" stroke="none" d="
M 47.45 110.15
Q 45.9 107.45 43.95 106.35 39.6 104.7 38.25 110.2 37.45 113.5 37.85 116.6 38.2 119.75 39.05 121.15 39.65 122.15 40.8 123 41.7 124.45 42.75 124.55
L 47.3 124.05
Q 47.9 123.25 48.5 119.3 49 115.55 48.8 114.15 48.6 112.45 47.45 110.15
M 46.6 113.75
Q 46.75 115.15 46.05 116.55 44.9 118.95 44.65 119.85
L 43.9 120.25
Q 42.9 119.85 42.35 117.9
L 42.05 115.5
Q 41.4 110.35 43.85 110.6 46.25 110.85 46.6 113.75
M 116.35 67.35
L 119.85 74.55
Q 123.55 82 123.95 81.95 124.85 81.85 125.25 78.85 125.45 76.45 125.25 74.7 115.5 59.95 116.35 67.35 Z"/>

<path fill="#8C8460" stroke="none" d="
M 46.05 116.55
Q 46.75 115.15 46.6 113.75 46.25 110.85 43.85 110.6 41.4 110.35 42.05 115.5
L 42.35 117.9
Q 42.9 119.85 43.9 120.25
L 44.65 119.85
Q 44.9 118.95 46.05 116.55 Z"/>

<path fill="#7F0003" stroke="none" d="
M 63.3 83.25
L 63.35 83.55 65.2 82.35
Q 66.25 81.2 66.05 79.65 65.8 77.1 61.85 77.9 59.6 78.4 58.8 79.6 62.15 83.05 63.3 83.25
M 76 69.25
Q 74.7 69.05 73.9 69.25
L 76.25 71.9 78.35 73.95 78.45 73.9
Q 80.2 72.85 80.1 71.8 79.85 69.8 76 69.25
M 89.45 63.15
Q 87.85 63 87.25 63.9
L 88 64.6
Q 89.7 66.3 91.5 69.1 93.05 68.5 92.85 66.65 92.45 63.55 89.45 63.15 Z"/>

<path fill="#010265" fill-opacity="0.25098039215686274" stroke="none" d="
M 58.8 79.6
L 58.7 79.5
Q 56.7 77.45 57.2 81.5 57.05 82.6 57.45 83.55 58.3 85.4 61.6 85
L 62.9 84.7 63.35 84.45 63.35 83.55 63.3 83.25
Q 62.15 83.05 58.8 79.6
M 73.9 69.25
L 73.7 69
Q 71.2 66.55 71.9 72.25 72.1 74.15 72.75 75 74.05 76.6 77.4 76.2 78.2 76.1 78.45 75.7
L 79.05 74.4 78.35 73.95 76.25 71.9 73.9 69.25
M 86.7 68.9
Q 88.45 71.2 90.4 70.95
L 91.4 70.6 91.45 70.3 91.55 70.15 91.5 69.1
Q 89.7 66.3 88 64.6
L 87.25 63.9
Q 84.8 61.8 85.3 66.1 85.4 67.1 86.7 68.9 Z"/>

<path fill="#040905" stroke="none" d="
M 16.85 93.3
Q 17 95 17.45 95.35 18.25 96 21.45 96.15
L 21.55 99.7
Q 21.9 101.95 23.95 101.7 25.25 101.55 25.7 98.8 26.1 96.05 26.65 96
L 27.9 96.1 30.3 96.1
Q 31.5 94.85 31.3 93.6 31.15 92.3 30.5 91.7 29.4 90.7 26.6 90.45
L 26.9 88.95 26.9 87.3
Q 26.6 84.7 25.2 82.35 23.6 79.5 22.55 83.7 22.05 85.7 22.4 88.5 18.45 89.65 17.3 90.8 16.65 91.65 16.85 93.3 Z"/>
</g>
</defs>

<g transform="matrix( 1, 0, 0, 1, -62.75,-76.85) ">
<g transform="matrix( 1, 0, 0, 1, 0,0) ">
<g transform="matrix( 1, 0, 0, 1, 0,0) ">
<use xlink:href="#Graphics_Symbol_788_0_Layer0_0_FILL"/>
</g>
</g>

<g transform="matrix( 1, 0, 0, 1, 0,0) ">
<g transform="matrix( 1, 0, 0, 1, 0,0) ">
<use xlink:href="#Graphics_Symbol_834_0_Layer3_0_FILL"/>
</g>

<g transform="matrix( 1, 0, 0, 1, 0,0) ">
<use xlink:href="#Graphics_Symbol_834_0_Layer2_0_FILL"/>
</g>

<g transform="matrix( 1, 0, 0, 1, 0,0) ">
<use xlink:href="#Graphics_Symbol_834_0_Layer1_0_FILL"/>
</g>

<g transform="matrix( 1, 0, 0, 1, 0,0) ">
<use xlink:href="#Graphics_Symbol_834_0_Layer0_0_FILL"/>
</g>
</g>

<g id="hat1" transform="matrix( 0.983917236328125, -0.17529296875, 0.17529296875, 0.983917236328125, 45.2,78.25) ">
<g id="colorMC" transform="matrix( 0.9999847412109375, 0, 0, 0.9999847412109375, 0,0) "/>

<g id="colorMC2" transform="matrix( 1, 0, 0, 1, 0,0) "/>
</g>

<g id="hat2" transform="matrix( 0.9733734130859375, -0.2247314453125, 0.2247314453125, 0.9733734130859375, 38,60.6) ">
<g id="colorMC_FL" transform="matrix( 0.9999847412109375, 0, 0, 0.9999847412109375, 0,0) "/>

<g id="colorMC2_FL" transform="matrix( 1, 0, 0, 1, 0,0) "/>
</g>

<g id="hat3" transform="matrix( 0.96026611328125, -0.2753753662109375, 0.2753753662109375, 0.96026611328125, 26,48.4) ">
<g id="colorMC_FL_FL" transform="matrix( 0.9999847412109375, 0, 0, 0.9999847412109375, 0,0) "/>

<g id="colorMC2_FL_FL" transform="matrix( 1, 0, 0, 1, 0,0) "/>
</g>

<g id="hat4" transform="matrix( 0.944580078125, -0.3252410888671875, 0.3252410888671875, 0.944580078125, 18.85,34.5) ">
<g id="colorMC_FL_FL_FL" transform="matrix( 0.9999847412109375, 0, 0, 0.9999847412109375, 0,0) "/>

<g id="colorMC2_FL_FL_FL" transform="matrix( 1, 0, 0, 1, 0,0) "/>
</g>
</g>
</svg>
