
<svg xmlns="http://www.w3.org/2000/svg" version="1.1" xmlns:xlink="http://www.w3.org/1999/xlink" preserveAspectRatio="none" x="0px" y="0px" width="550px" height="400px" viewBox="0 0 550 400">
<defs>
<g id="MovieClips_Symbol_752_0_Layer0_0_FILL">
<path fill="#000000" stroke="none" d="
M -14.1 3.5
Q -16 3.5 -16 6.55
L -14.55 9.25
Q -12.6 12.1 -9.85 13.5
L -8.5 13.7 -13.45 15.4
Q -16 16.45 -16 18.55 -16 19.75 -15.55 20.55 -14.9 21.7 -13.5 21.7 -10.4 21.7 -5.8 19.45 -1 17.1 -1 15.25 -1 14.55 -5.9 9.3 -11.35 3.5 -14.1 3.5
M 15.2 39.05
Q 15.6 39.9 15.45 41.45 15.95 42.55 20.25 42.55 21.15 42.55 21.7 41.8
L 23 39.55
Q 20 36.7 17.4 32.75 14.3 28.1 10.25 23.75 9 25 9 27.55 9 28.35 9.8 31.45
L -7.35 31
Q -5.55 29.2 -4.45 26.75 -3.3 24.2 -4.5 24.2 -11.15 24.2 -17.7 32.05 -19.85 34.65 -21.6 37.6 -23 40 -23 40.45 -23 43.55 -20.5 43.55
L -17.55 39.55
Q -14.3 35.5 -11.5 35.5 13.4 35.5 15.2 39.05
M 19 6.9
L 18.95 5.65 18.5 5.2
Q 14.1 5.5 9.25 10 5 13.9 5 15.55
L 7.4 19.2
Q 10.9 22.7 16.5 22.7 19 22.7 19 20.2
L 16.35 17.95 11.75 14.45 16.8 10.3
Q 19 8.25 19 6.9 Z"/>
</g>

<g id="MovieClips_Symbol_256_0_Layer0_0_FILL">
<path fill="#FFFFFF" stroke="none" d="
M -21.65 -32.3
Q -22.85 -33.45 -25.45 -32.5 -28.05 -31.6 -30.55 -29.1 -33.05 -26.55 -34.05 -23.9 -34.95 -21.35 -33.75 -20.15 -32.6 -18.95 -30 -19.9 -27.35 -20.85 -24.85 -23.35 -22.35 -25.85 -21.45 -28.45 -20.45 -31.1 -21.65 -32.3 Z"/>
</g>
</defs>

<g transform="matrix( 1, 0, 0, 1, -62.75,-76.85) ">
<g transform="matrix( 1, 0, 0, 1, 64.05,100.5) ">
<g transform="matrix( 1, 0, 0, 1, 0,0) ">
<g transform="matrix( 1, 0, 0, 1, 0,0) ">
<use xlink:href="#MovieClips_Symbol_752_0_Layer0_0_FILL"/>
</g>
</g>
</g>

<g transform="matrix( 1, 0, 0, 1, 64.05,100.5) ">
<g transform="matrix( 1, 0, 0, 1, 0,0) ">
<use xlink:href="#MovieClips_Symbol_256_0_Layer0_0_FILL"/>
</g>
</g>
</g>
</svg>
