
<svg xmlns="http://www.w3.org/2000/svg" version="1.1" xmlns:xlink="http://www.w3.org/1999/xlink" preserveAspectRatio="none" x="0px" y="0px" width="550px" height="400px" viewBox="0 0 550 400">
<defs>
<g id="Parts_Heads_headColorMC_24_Layer1_0_FILL">
<path fill="#FFFFFF" stroke="none" d="
M 54.4 122.45
L 53.5 122.65
Q 49 122.65 41.4 114.25 34.35 106.6 32.65 101.45 33.3 101.3 33.9 101.45 31.1 98.25 29.5 97.25 28.25 98.25 27.85 100.5 27.4 103.15 27.4 110.35
L 28.05 113.55
Q 29 117.25 30.55 120.7 35.3 131.6 43.5 135.2 52.75 139.15 59.45 140.75 64.15 141.85 66.6 141.6
L 66.75 141.55 66.1 133 64.25 123.4
Q 62.6 124.25 60.85 124.25 57.95 124.25 54.55 122.3
L 54.4 122.45
M 93.6 69.25
Q 93.6 68.75 83.25 65.35 73.15 62.05 66.35 61.65
L 66.1 62 65.5 62.35 39.6 73.25 37.35 75.1 34.95 76.35
Q 32.9 77.25 31.65 78.65 27.6 83.2 28.8 95.35
L 28.8 96.25
Q 28.85 96.5 29.45 96.5
L 30.65 95.85
Q 31.25 95.25 32.2 95.25 35.4 95.25 40.9 98.15 46.4 101.15 48.25 101.15
L 48.85 101.15 48.95 101.05 49 99.7 49.05 99.7 49.4 99.6
Q 52.6 98.9 57.35 103.7 60.8 107.15 63.6 111.65
L 64.75 112.35
Q 58.45 87.05 58.45 86.05 58.45 84 62.45 84.15
L 71.8 84.8
Q 74.5 84.8 76.75 84 78.9 83.2 79.9 81.95
L 72.25 77.55 71.75 77
Q 75.45 74.45 84.05 72.15 89.9 70.6 93.25 70.25
L 93.4 70.1 93.6 69.25 Z"/>
</g>
</defs>

<g transform="matrix( 1, 0, 0, 1, -62.75,-76.85) ">
<g transform="matrix( 1, 0, 0, 1, 0,0) ">
<use xlink:href="#Parts_Heads_headColorMC_24_Layer1_0_FILL"/>
</g>
</g>
</svg>
