
<svg xmlns="http://www.w3.org/2000/svg" version="1.1" xmlns:xlink="http://www.w3.org/1999/xlink" preserveAspectRatio="none" x="0px" y="0px" width="550px" height="400px" viewBox="0 0 550 400">
<defs>
<g id="Parts_Heads_headColorMC2_24_Layer3_0_FILL">
<path fill="#DAECBD" stroke="none" d="
M 84.35 82.05
Q 88.3 84.7 90.15 85.4
L 89.75 85.65 91.15 85.95
Q 91.75 86.15 91 87.55
L 93.15 90.55 92.6 91.25 92 90.6 93.2 92.8 96.1 95.55 97.5 94.8
Q 98.55 94.45 98.55 95.4 96 99.05 92.2 102.15 87.85 105.7 84.85 105.7 83.6 105.7 81.75 103.45 79.7 100.9 77.55 100.5 73.8 99.6 70.5 97.9
L 67.95 96.35
Q 67.4 96.35 67.4 95.95
L 67.5 94.7
Q 67.5 92.4 69 90.55 70.5 88.6 72.95 88.05 74.25 89.1 74.25 89.9 74.25 92.75 70.75 93.6
L 70.3 93.6 70.5 93.55 70.35 93.35 70.3 92.85 71.35 92.05
Q 72.55 91.45 73.05 89.65 71.5 90.1 70.15 91.5 68.9 92.9 68.5 94.25 69.95 95 69.75 95.85 69.55 96.25 71.25 96.25 73.45 96.25 75.8 93.3
L 80.35 86.3 73.7 85.45 59.35 84.65
Q 59.2 84.75 59.2 85.5
L 63.4 99.3
Q 67.6 113.4 67.6 115.05 67.6 116.15 67 116.25 65.65 116.4 64.3 116.9
L 63.4 117.65
Q 58.15 111.4 51.3 106.1 41.6 98.55 35.5 98.85
L 35.2 99.2
Q 35.05 100.7 35.45 102.15
L 39.3 107.7 43.15 112.35 43.4 112.6 49.45 117.15
Q 55.05 120.5 59.6 120.75
L 58.85 119.65
Q 58.35 118.95 58.35 118.25
L 58.95 117.45 59.35 117.1
Q 62.8 117.1 61.75 121.15
L 68.55 122.95 67.15 123.95 65.6 124.05 66.55 136.3
Q 66.85 139.7 68.75 142 70.2 143.75 72.05 144.3 79.8 143.3 91.65 136.45
L 102.35 130.05
Q 109.45 124.5 109.45 120.9 109.45 118.65 108.45 108.9 107.4 98.6 106.8 97.55 101.4 87.35 95.6 79.8 91.15 73.9 90.4 73.9 87.45 73.9 83.15 75.25 79.9 76.3 78.9 76.95 79.5 78.8 84.35 82.05
M 107.9 115
Q 107.3 117.7 103.85 121.55 99.8 126.2 96.2 126.1 99.75 123.75 106.8 116.3
L 107.9 115 Z"/>
</g>
</defs>

<g transform="matrix( 1, 0, 0, 1, -62.75,-76.85) ">
<g transform="matrix( 1, 0, 0, 1, 0,0) ">
<use xlink:href="#Parts_Heads_headColorMC2_24_Layer3_0_FILL"/>
</g>
</g>
</svg>
