
<svg xmlns="http://www.w3.org/2000/svg" version="1.1" xmlns:xlink="http://www.w3.org/1999/xlink" preserveAspectRatio="none" x="0px" y="0px" width="550px" height="400px" viewBox="0 0 550 400">
<defs>
<g id="Parts_Heads_headsMC_24_Layer12_0_FILL">
<path fill="#DAECBD" stroke="none" d="
M 84.35 82.05
Q 88.3 84.7 90.15 85.4
L 89.75 85.65 91.15 85.95
Q 91.75 86.15 91 87.55
L 93.15 90.55 92.6 91.25 92 90.6 93.2 92.8 96.1 95.55 97.5 94.8
Q 98.55 94.45 98.55 95.4 96 99.05 92.2 102.15 87.85 105.7 84.85 105.7 83.6 105.7 81.75 103.45 79.7 100.9 77.55 100.5 73.8 99.6 70.5 97.9
L 67.95 96.35
Q 67.4 96.35 67.4 95.95
L 67.5 94.7
Q 67.5 92.4 69 90.55 70.5 88.6 72.95 88.05 74.25 89.1 74.25 89.9 74.25 92.75 70.75 93.6
L 70.3 93.6 70.5 93.55 70.35 93.35 70.3 92.85 71.35 92.05
Q 72.55 91.45 73.05 89.65 71.5 90.1 70.15 91.5 68.9 92.9 68.5 94.25 69.95 95 69.75 95.85 69.55 96.25 71.25 96.25 73.45 96.25 75.8 93.3
L 80.35 86.3 73.7 85.45 59.35 84.65
Q 59.2 84.75 59.2 85.5
L 63.4 99.3
Q 67.6 113.4 67.6 115.05 67.6 116.15 67 116.25 65.65 116.4 64.3 116.9
L 63.4 117.65
Q 58.15 111.4 51.3 106.1 41.6 98.55 35.5 98.85
L 35.2 99.2
Q 35.05 100.7 35.45 102.15
L 39.3 107.7 43.15 112.35 43.4 112.6 49.45 117.15
Q 55.05 120.5 59.6 120.75
L 58.85 119.65
Q 58.35 118.95 58.35 118.25
L 58.95 117.45 59.35 117.1
Q 62.8 117.1 61.75 121.15
L 68.55 122.95 67.15 123.95 65.6 124.05 66.55 136.3
Q 66.85 139.7 68.75 142 70.2 143.75 72.05 144.3 79.8 143.3 91.65 136.45
L 102.35 130.05
Q 109.45 124.5 109.45 120.9 109.45 118.65 108.45 108.9 107.4 98.6 106.8 97.55 101.4 87.35 95.6 79.8 91.15 73.9 90.4 73.9 87.45 73.9 83.15 75.25 79.9 76.3 78.9 76.95 79.5 78.8 84.35 82.05
M 107.9 115
Q 107.3 117.7 103.85 121.55 99.8 126.2 96.2 126.1 99.75 123.75 106.8 116.3
L 107.9 115 Z"/>
</g>

<g id="Graphics_Symbol_839_0_Layer2_0_FILL">
<path fill="#000000" stroke="none" d="
M 95 71.85
L 95.65 71.75 97.4 70.15
Q 93.5 65.7 84.45 62.8 75.4 59.85 65.45 59.85
L 63.55 60.5
Q 55.15 63.1 45.95 67.2 39.7 69.95 37.5 71.45 31.05 73.9 28.45 80.2 25 88.3 25 109.2 25 126.55 46.15 137.8 56.65 143.5 67.15 145.7
L 67.15 146.2 69 146.15 72.2 146.5 77.2 145.7
Q 85 142.4 88 140.9 89.3 140.25 99.6 133.45
L 104.3 130.5 104.6 129.8 104.6 129.7 109.25 126.35
Q 109.75 124.4 110.6 121.95
L 111.35 119.8 111.1 119.65
Q 110.4 119.45 110.4 117.75
L 111.05 106.75
Q 111.05 102.35 110.1 98.1 107.6 94.7 104.4 88.7 100.7 81.9 98.95 78.15 96.1 75.4 92.65 73.25
L 95 71.85
M 93.6 69.25
L 93.4 70.1 93.25 70.25
Q 89.9 70.6 84.05 72.15 75.45 74.45 71.75 77
L 72.25 77.55 79.9 81.95
Q 78.9 83.2 76.75 84 74.5 84.8 71.8 84.8
L 62.45 84.15
Q 58.45 84 58.45 86.05 58.45 87.05 64.75 112.35
L 63.6 111.65
Q 60.8 107.15 57.35 103.7 52.6 98.9 49.4 99.6
L 49.05 99.7 49 99.7 48.95 101.05 48.85 101.15 48.25 101.15
Q 46.4 101.15 40.9 98.15 35.4 95.25 32.2 95.25 31.25 95.25 30.65 95.85
L 29.45 96.5
Q 28.85 96.5 28.8 96.25
L 28.8 95.35
Q 27.6 83.2 31.65 78.65 32.9 77.25 34.95 76.35
L 37.35 75.1 39.6 73.25 65.5 62.35 66.1 62 66.35 61.65
Q 73.15 62.05 83.25 65.35 93.6 68.75 93.6 69.25
M 90.15 85.4
Q 88.3 84.7 84.35 82.05 79.5 78.8 78.9 76.95 79.9 76.3 83.15 75.25 87.45 73.9 90.4 73.9 91.15 73.9 95.6 79.8 101.4 87.35 106.8 97.55 107.4 98.6 108.45 108.9 109.45 118.65 109.45 120.9 109.45 124.5 102.35 130.05
L 91.65 136.45
Q 79.8 143.3 72.05 144.3 70.2 143.75 68.75 142 66.85 139.7 66.55 136.3
L 66.75 141.55 66.6 141.6
Q 64.15 141.85 59.45 140.75 52.75 139.15 43.5 135.2 35.3 131.6 30.55 120.7 29 117.25 28.05 113.55
L 27.4 110.35
Q 27.4 103.15 27.85 100.5 28.25 98.25 29.5 97.25 31.1 98.25 33.9 101.45 33.3 101.3 32.65 101.45 34.35 106.6 41.4 114.25 49 122.65 53.5 122.65
L 54.4 122.45 54.55 122.3
Q 57.95 124.25 60.85 124.25 62.6 124.25 64.25 123.4
L 64.7 126.75 66.1 133 65.8 128.05 65.6 124.05 67.15 123.95 68.55 122.95 61.75 121.15
Q 62.8 117.1 59.35 117.1
L 58.95 117.45 58.35 118.25
Q 58.35 118.95 58.85 119.65
L 59.6 120.75
Q 55.05 120.5 49.45 117.15
L 47.65 115.9 43.4 112.6 43.25 112.45 41.3 110.65 39.3 107.7 37 104.15 35.45 102.15
Q 35.05 100.7 35.2 99.2
L 35.5 98.85
Q 41.6 98.55 51.3 106.1 58.15 111.4 63.4 117.65
L 64.3 116.9
Q 65.65 116.4 67 116.25 67.6 116.15 67.6 115.05 67.6 113.4 63.4 99.3
L 59.2 85.5
Q 59.2 84.75 59.35 84.65
L 60.2 84.65 73.7 85.45 80.35 86.3 75.8 93.3
Q 73.45 96.25 71.25 96.25 69.55 96.25 69.75 95.85 69.95 95 68.5 94.25 68.9 92.9 70.15 91.5 71.5 90.1 73.05 89.65 72.55 91.45 71.35 92.05
L 70.3 92.85 70.35 93.35 70.5 93.55 70.3 93.6 70.75 93.6
Q 74.25 92.75 74.25 89.9 74.25 89.1 72.95 88.05 70.5 88.6 69 90.55 67.5 92.4 67.5 94.7
L 67.4 95.95
Q 67.4 96.35 67.95 96.35
L 70.5 97.9
Q 73.8 99.6 77.55 100.5 79.7 100.9 81.75 103.45 83.6 105.7 84.85 105.7 87.85 105.7 92.2 102.15 96 99.05 98.55 95.4 98.55 94.45 97.5 94.8
L 96.1 95.55 93.2 92.8 93.5 95.3
Q 93.5 97.45 91.85 99.5 89.75 102.1 85.95 102.1 81.75 102.1 79.7 98.9 78.4 96.9 78.4 94.85 78.4 91.15 81.85 89.1 84 87.8 85.65 87.8
L 87.2 87.9
Q 89 88.05 90.15 88.85
L 90.1 88.8 90.55 89.15 92 90.6 92.6 91.25 93.15 90.55 92.1 89.05 91 87.55
Q 91.75 86.15 91.15 85.95
L 89.75 85.65 90.15 85.4
M 63.95 115.5
L 63.25 115.25 61.8 113.95 63.95 115.5
M 107.9 115
L 106.8 116.3
Q 99.75 123.75 96.2 126.1 99.8 126.2 103.85 121.55 107.3 117.7 107.9 115 Z"/>

<path fill="#FFFFFF" stroke="none" d="
M 63.25 115.25
L 63.95 115.5 61.8 113.95 63.25 115.25
M 43.25 112.45
L 43.15 112.35 39.3 107.7 41.3 110.65 43.25 112.45
M 90.55 89.15
L 90.15 88.85
Q 89 88.05 87.2 87.9
L 85.65 87.8
Q 84 87.8 81.85 89.1 78.4 91.15 78.4 94.85 78.4 96.9 79.7 98.9 81.75 102.1 85.95 102.1 89.75 102.1 91.85 99.5 93.5 97.45 93.5 95.3
L 93.2 92.8 92 90.6 90.55 89.15 Z"/>

<path fill="#DAECBD" stroke="none" d="
M 90.15 88.85
L 90.55 89.15 90.1 88.8 90.15 88.85 Z"/>
</g>

<g id="Graphics_Symbol_839_0_Layer1_0_FILL">
<path fill="#000000" fill-opacity="0.25098039215686274" stroke="none" d="
M 48.7 105.15
Q 48.7 103.25 47.55 101.95 46.1 100.3 43.3 100.3 41.25 100.3 39.8 101.5 38.55 102.55 38.55 103.75 38.55 108.35 44.45 112.25 49.95 115.9 55.35 115.9 56.15 115.9 56.35 115.4 56.6 114.65 57.15 114.3 56 113.15 53.1 112.2
L 47.7 110.6
Q 40.95 108.4 40.95 103.85
L 41.55 103.25
Q 42.3 102.75 43 102.75
L 44.55 103.75 46.2 105 44.35 106
Q 43.85 106.35 43.85 106.95 43.85 108.25 44.65 108.35 46.85 108.85 47.95 107.35 48.7 106.35 48.7 105.15
M 81.35 88.25
L 81.35 85.1 74 85.1 74 88.25 81.35 88.25
M 90.1 72
L 88.55 71.9 93.25 70.95
Q 95.8 70.45 96.35 68.85
L 81.95 63.9
Q 72.5 60.65 70.2 60.65
L 67.9 61.1 65.6 61.55 60.45 61.65
Q 52.45 65.85 51 66.25 41.15 69.15 34.2 75.05 26.4 81.75 26.4 89.25
L 27 91.55
Q 26.7 92.85 26.55 97.25 26.15 106.45 26.3 112.05 26.4 117.6 34.3 127.85 38.25 133 42.35 135.65 43.2 136.55 43.5 136.05
L 43.8 135.25
Q 46.75 137.25 50.45 139.35
L 53.8 141.2
Q 54.3 141.2 54.75 140.8 55.15 140.4 55.65 140.4
L 60.2 142.1 64.6 143.75
Q 65.35 143.75 66.15 143.05
L 67.2 141.95
Q 67.65 144.05 69.8 145.3 71.65 146.35 73.8 146.35 78.3 146.35 89.4 139.75 95.45 136.15 104.6 129.8 105.45 129.55 104.75 129.2
L 103.55 128.85 102.95 128.9
Q 94.85 132.5 87.75 134.8 72.1 139.9 68.25 139.9 66.6 139.9 66.4 138.6
L 66.25 135.05 65.7 134.85 64.95 134.8
Q 59.45 136.8 57.7 136.8 49 136.8 40.2 128.25 31 119.3 31 109.35 31 108.35 32 107.75 32.95 107.15 32.95 105.75 38.85 116 46.3 121.45 53.9 126.95 62.35 126.95 63.8 126.95 63.8 125.3
L 64.25 123.2
Q 56.55 125.6 46.15 116.7 35.7 107.8 30.6 94.4 30.95 94.2 31.95 93.95
L 33.45 93.35 32.85 90 32.25 87.25
Q 32.25 77.05 47.65 71.6 60.25 67.15 78 67.15
L 80.45 67.4 80.4 67.5 78.8 68.2
Q 77.5 68.7 77.25 68.95
L 80.95 69.5 84.65 70.3
Q 80.95 71.6 75.25 72.75 70.1 73.8 68.8 74.4 72.7 76.25 75.6 80.8 77.65 84 83.05 84
L 83.75 83.9 83.8 83.6 83.9 82.95
Q 83.9 81.75 82.6 80.55
L 80.05 78.6 83.7 77.3
Q 87.35 76.05 88.8 76.25 97.5 84.65 103 97.4 109 111.2 109 125.3
L 108.9 126.3 108.6 127 109 126.65 109.9 124.15
Q 110.5 121.85 110.5 119.2 110.5 115.7 109.9 107.6 109.25 99.45 105.7 93.35
L 100.75 86.35
Q 93.15 75.85 91.7 74.45
L 92.45 74 92.75 73.15
Q 92.75 72.45 92.3 72.15 91.75 71.95 91.45 71.75
L 90.1 72
M 87.95 72.1
L 87.6 72.95
Q 86.8 73.7 83.7 74.65 80.75 75.55 79.45 75.55 80.9 74.7 83.1 73.9
L 87.95 72.1
M 75.7 76.3
L 77.95 76.65 78.25 77.45 75.7 76.3 Z"/>
</g>

<g id="Graphics_Symbol_839_0_Layer0_0_FILL">
<path fill="#FFFFFF" fill-opacity="0.5019607843137255" stroke="none" d="
M 76.9 112.65
Q 75 114.35 75 117 75 119.7 76.9 121.55 78.7 123.3 81.3 123.3 83.95 123.3 85.85 121.55 87.55 119.7 87.55 117 87.55 114.35 85.85 112.65 83.95 110.75 81.3 110.75 78.7 110.75 76.9 112.65 Z"/>
</g>
</defs>

<g transform="matrix( 1, 0, 0, 1, -62.75,-76.85) ">
<g transform="matrix( 1, 0, 0, 1, 0,0) ">
<use xlink:href="#Parts_Heads_headsMC_24_Layer12_0_FILL"/>
</g>

<g transform="matrix( 1, 0, 0, 1, 0,0) ">
<g transform="matrix( 1, 0, 0, 1, 0,0) ">
<use xlink:href="#Graphics_Symbol_839_0_Layer2_0_FILL"/>
</g>

<g transform="matrix( 1, 0, 0, 1, 0,0) ">
<use xlink:href="#Graphics_Symbol_839_0_Layer1_0_FILL"/>
</g>

<g transform="matrix( 1, 0, 0, 1, 0,0) ">
<use xlink:href="#Graphics_Symbol_839_0_Layer0_0_FILL"/>
</g>
</g>

<g id="hat1" transform="matrix( 0.983917236328125, -0.17529296875, 0.17529296875, 0.983917236328125, 45.2,78.25) ">
<g id="colorMC" transform="matrix( 0.9999847412109375, 0, 0, 0.9999847412109375, 0,0) "/>

<g id="colorMC2" transform="matrix( 1, 0, 0, 1, 0,0) "/>
</g>

<g id="hat2" transform="matrix( 0.9733734130859375, -0.2247314453125, 0.2247314453125, 0.9733734130859375, 38,60.6) ">
<g id="colorMC_FL" transform="matrix( 0.9999847412109375, 0, 0, 0.9999847412109375, 0,0) "/>

<g id="colorMC2_FL" transform="matrix( 1, 0, 0, 1, 0,0) "/>
</g>

<g id="hat3" transform="matrix( 0.96026611328125, -0.2753753662109375, 0.2753753662109375, 0.96026611328125, 26,48.4) ">
<g id="colorMC_FL_FL" transform="matrix( 0.9999847412109375, 0, 0, 0.9999847412109375, 0,0) "/>

<g id="colorMC2_FL_FL" transform="matrix( 1, 0, 0, 1, 0,0) "/>
</g>

<g id="hat4" transform="matrix( 0.944580078125, -0.3252410888671875, 0.3252410888671875, 0.944580078125, 18.85,34.5) ">
<g id="colorMC_FL_FL_FL" transform="matrix( 0.9999847412109375, 0, 0, 0.9999847412109375, 0,0) "/>

<g id="colorMC2_FL_FL_FL" transform="matrix( 1, 0, 0, 1, 0,0) "/>
</g>
</g>
</svg>
