
<svg xmlns="http://www.w3.org/2000/svg" version="1.1" xmlns:xlink="http://www.w3.org/1999/xlink" preserveAspectRatio="none" x="0px" y="0px" width="550px" height="400px" viewBox="0 0 550 400">
<defs>
<g id="MovieClips_Symbol_585_9_Layer0_0_FILL">
<path fill="#415EA6" stroke="none" d="
M 68.35 14.8
Q 61.35 2.55 42.7 2.55 19.45 2.55 4.85 25.85 -5.05 41.6 -9.25 64.25 -13.05 84.8 -23.3 107.35
L -29.7 121.2
Q -32.35 127.45 -32.35 130.5
L -30.5 135.55 -30.55 136.1 -30.75 136.15 -33.3 139
Q -35.85 142 -35.85 142.6 -35.85 144.3 -34.1 144.3 -30.95 144.3 -28.95 142.95 -27.5 141.95 -25.5 139.1 -19.45 130.45 -13.35 125.6 -12.1 124.6 7.45 115.05 27.35 105.3 30 103.45 38 97.8 43.5 92.55
L 45.5 91.05 48.4 90.75
Q 50.35 90.75 52.7 92.4 55.6 94.45 55.6 97.3 55.6 103.3 49.55 113.3
L 39.8 127.6
Q 43.05 126.9 47.8 123.4 54.3 118.7 59.55 111.3 74.75 89.95 74.75 54.15 74.75 25.95 68.35 14.8 Z"/>
</g>
</defs>

<g transform="matrix( 1, 0, 0, 1, -32.9,-71.25) ">
<g transform="matrix( 1, 0, 0, 1, 0,0) ">
<use xlink:href="#MovieClips_Symbol_585_9_Layer0_0_FILL"/>
</g>
</g>
</svg>
