
<svg xmlns="http://www.w3.org/2000/svg" version="1.1" xmlns:xlink="http://www.w3.org/1999/xlink" preserveAspectRatio="none" x="0px" y="0px" width="550px" height="400px" viewBox="0 0 550 400">
<defs>
<g id="Graphics_Symbol_596_0_Layer0_0_FILL">
<path fill="#FFFFFF" stroke="none" d="
M 54.2 93.5
Q 52.35 90.65 47.35 89.7 30.8 102.65 16.5 109.8
L 6 114.4
Q 1.25 116.9 -3.2 119.95 -16.6 129.05 -28.15 140.75
L -27.9 141.05
Q -18.3 131.35 1.25 129.45
L 35.8 127.95
Q 48.4 116.7 51.2 107.9
L 54.7 96.1 54.2 93.5 Z"/>
</g>

<g id="Graphics_Symbol_633_0_Layer2_0_FILL">
<path fill="#000000" stroke="none" d="
M 42.5 127.4
Q 60.45 122.55 66.85 104.75 79.7 68.75 75.85 30 74.5 4.95 51.2 -0.15 28.15 -4.8 11.95 12.7 -1.55 27.25 -8.6 46.3 -11.85 55.2 -8.65 63.9 -16.25 101.4 -38.4 132.9
L -42.35 139.1 -40.75 141.4 -32.3 135.45
Q -42.55 149.7 -44.65 167 -28.2 136.15 6.65 133.45 25 132.15 42.5 127.4
M 64.25 12.85
Q 69.95 18.65 71.45 26.8 79.1 69.15 61.65 107.5 54.85 122.5 38.9 126.4 39.95 124.15 41.6 122.45 52.9 111.15 54.7 96.1
L 52.45 101.85
Q 46.2 116.25 35.8 127.95
L 4.3 126.5
Q -15.2 125.5 -27.9 141.05
L -34.6 147.3 -28.15 140.75
Q -16.6 129.05 -3.2 119.95 1.25 116.9 6 114.4
L 3.35 115.4
Q -15.8 121.95 -28.8 137.8
L -30.35 139.85 -29.05 137.35
Q -23.45 130.3 -26 123.9
L -31.8 129.45 -25 116 -23.15 122.55
Q -7.6 118.25 -4.75 101.2
L -5.3 100.25 -4.15 98.15
Q 2.8 96.15 3.15 89.9
L -3.35 96.35 -3.45 96.4 -3.4 96.15
Q -13.65 78.4 3.1 59.1 4.5 57.55 5.45 55.45 -13.75 73.65 -6.55 98.4
L -8.9 102.6
Q -12.95 92.75 -10.6 82.35 -10.8 82.2 -10.9 82.2
L -10.85 82.05 -4.1 61 -7.25 59.35
Q -3.5 50.25 -1 40.85 7.1 10.35 36.1 4.25 52.45 0.8 64.25 12.85
M -12.25 88.85
Q -13.05 88.55 -13.65 89.1
L -11.35 83.1 -12.25 88.85
M -9.9 104.65
L -6 101.6 -6.9 104
Q -7.7 111.1 -13.55 114.8
L -13.9 114.85
Q -20 103.25 -12.7 91.45 -14.25 98.8 -9.9 104.65
M -21.4 120.7
L -22.05 120.3
Q -24.05 108.75 -16.95 98.15 -20.9 108.35 -14.1 116.6 -16.75 120.85 -21.4 120.7
M 5 100
Q 4.7 99.6 4.7 99.2 4.3 93.15 6.65 87.5 -2.45 98.6 8.95 102.4 19.8 85.5 28 67 17.4 83.45 8.25 100.7
L 5 100
M 40.55 51.35
L 34.85 67.1
Q 41.65 62.15 40.55 51.35
M 48.6 89.7
L 54.2 93.5
Q 47.65 85.85 40.4 92.85 29.65 103.1 16.5 109.8 34.15 102.75 48.6 89.7
M 28.9 67.5
L 30.05 68.95 33.5 68
Q 29.4 66.75 28.25 62.2
L 28.9 67.5 Z"/>

<path fill="#415EA6" stroke="none" d="
M -13.65 89.1
Q -13.05 88.55 -12.25 88.85
L -11.35 83.1 -13.65 89.1 Z"/>
</g>

<g id="Graphics_Symbol_633_0_Layer1_0_FILL">
<path fill="#000000" fill-opacity="0.25098039215686274" stroke="none" d="
M 74.5 29.5
Q 73.85 21.35 70.85 17.5
L 70.15 18.45
Q 64.6 9.25 56.9 4.65 49.65 0.3 40.85 0.3 29.95 0.3 25.8 2.9 21.05 6.8 14.55 10.7 5.2 26.35 -5 41.75 -6.8 42.5 -7.7 49.65 -8.65 56.7 -8.5 58.1 -8.4 59.45 -8.95 65.5 -9.5 71.55 -18.7 99.05 -28.5 128.55 -36 136.15
L -31 133.45 -35.6 151.7
Q -30.8 144.95 -23.2 139.4 -14.3 132.9 -7.6 133.2
L 15.45 130.5 39.05 127.65
Q 53.65 126.55 64.05 106.15 74.9 84.9 74.9 54.15 74.9 34.25 74.5 29.5
M 44.8 16
Q 58 16 62.95 31.1 65.85 39.9 65.85 54.8 65.85 69.3 63.25 78.85 60.5 89.1 53.15 99.95 48.85 106.25 39.95 112 32.15 117.05 29.05 117.05
L 22.75 116.35 16.4 115.65
Q 2.85 115.65 -7.8 120.8 -9.9 121.8 -15.85 125.2 -20.5 127.85 -23.7 129.05 -17.1 123.15 -8.55 104.5 0.85 84 3.75 65.8 7.6 41.65 20.7 27.85 31.9 16 44.8 16 Z"/>
</g>

<g id="Graphics_Symbol_633_0_Layer0_0_FILL">
<path fill="#FFFFFF" fill-opacity="0.25098039215686274" stroke="none" d="
M -13.35 116.05
L -7.4 106.5 -3.25 96.7
Q -7.55 99.55 -10.7 106.45 -13.35 112.35 -13.35 116.05
M 14.05 74.15
Q 17.1 69.65 22.3 57.9 28.1 44.85 30.8 35.2
L 14.05 74.15
M 14.55 83.05
Q 10.7 90 10.1 93.65
L 23.3 70.85
Q 18.8 75.3 14.55 83.05
M 40.95 49.2
Q 40.95 48.6 40.55 47.75
L 40.1 47.05 32.55 65.5 37.75 57.35
Q 40.95 51.85 40.95 49.2 Z"/>
</g>
</defs>

<g transform="matrix( 1, 0, 0, 1, -33.5,-72.6) ">
<g transform="matrix( 1, 0, 0, 1, 0,0) ">
<g transform="matrix( 1, 0, 0, 1, 0,0) ">
<use xlink:href="#Graphics_Symbol_596_0_Layer0_0_FILL"/>
</g>
</g>

<g transform="matrix( 1, 0, 0, 1, 0,0) ">
<g transform="matrix( 1, 0, 0, 1, 0,0) ">
<use xlink:href="#Graphics_Symbol_633_0_Layer2_0_FILL"/>
</g>

<g transform="matrix( 1, 0, 0, 1, 0,0) ">
<use xlink:href="#Graphics_Symbol_633_0_Layer1_0_FILL"/>
</g>

<g transform="matrix( 1, 0, 0, 1, 0,0) ">
<use xlink:href="#Graphics_Symbol_633_0_Layer0_0_FILL"/>
</g>
</g>
</g>
</svg>
