
<svg xmlns="http://www.w3.org/2000/svg" version="1.1" xmlns:xlink="http://www.w3.org/1999/xlink" preserveAspectRatio="none" x="0px" y="0px" width="550px" height="400px" viewBox="0 0 550 400">
<defs>
<g id="Layer0_0_FILL">
<path fill="#EEEEEE" stroke="none" d="
M 387.4 40.3
Q 387.4 30.3 377.4 30.3
L 8.45 30.3
Q -1.55 30.3 -1.55 40.3
L -1.55 203.3
Q -1.55 213.3 8.45 213.3
L 377.4 213.3
Q 387.4 213.3 387.4 203.3
L 387.4 40.3 Z"/>
</g>

<path id="Layer0_0_1_STROKES" stroke="#CCCCCC" stroke-width="1" stroke-linejoin="round" stroke-linecap="round" fill="none" d="
M 9.998968505859375 0.015063476562502842
L 378.9039306640625 0.015063476562502842
Q 388.9027099609375 0.015063476562502842 388.9027099609375 14.954028320312496
L 388.9027099609375 258.4591552734375
Q 388.9027099609375 273.3981201171875 378.9039306640625 273.3981201171875
L 9.998968505859375 273.3981201171875
Q 0.00018920898437491118 273.3981201171875 0.00018920898437491118 258.4591552734375
L 0.00018920898437491118 14.954028320312496
Q 0.00018920898437491118 0.015063476562502842 9.998968505859375 0.015063476562502842 Z"/>
</defs>

<g transform="matrix( 0.9998779296875, 0, 0, 1.493896484375, 1.55,-45.25) ">
<use xlink:href="#Layer0_0_FILL"/>

<use xlink:href="#Layer0_0_1_STROKES" transform="matrix( 1.0001220703125, 0, 0, 0.6693878173828125, -1.55,30.25) "/>
</g>
</svg>
