
<svg xmlns="http://www.w3.org/2000/svg" version="1.1" xmlns:xlink="http://www.w3.org/1999/xlink" preserveAspectRatio="none" x="0px" y="0px" width="550px" height="400px" viewBox="0 0 550 400">
<defs>
<g id="Graphics_Symbol_793_0_Layer0_0_FILL">
<path fill="#7D5924" stroke="none" d="
M 118.15 93.3
L 118.3 93.3
Q 115.5 66.7 101.9 53.8 90.55 43.05 73.45 43.05 42.55 43.05 26.5 60.45 21 66.4 17.9 73.8 15.7 79.1 15.55 82.75
L 15.9 82.7 17.5 79.95
Q 16.75 86.95 16.75 89 16.75 107.5 22.85 121.25 33.4 144.9 59.15 144.9 85.25 144.9 100.75 130.95 115.8 117.4 118.15 93.3
M 90 70.05
Q 90 74.3 87 77.35 84 80.35 79.75 80.35 75.5 80.35 72.5 77.35 69.5 74.3 69.5 70.05 69.5 65.8 72.5 62.85 75.5 59.8 79.75 59.8 84 59.8 87 62.85 90 65.8 90 70.05
M 101 92.95
Q 101.8 93.95 101.8 95.15 101.8 110.1 90.2 120.1 79.05 129.7 63.55 129.7 53.95 129.7 46.25 124.05 40 119.45 40 116.55 40 115.4 41.1 114.85
L 42.8 114.45
Q 44 114.45 45.35 116
L 48.35 119.5
Q 53.4 124.45 62.95 124.45 81.4 124.45 90.6 107.85 95.25 99.5 96.25 91.2 99.6 91.2 101 92.95
M 31.85 86.65
Q 31.85 82.7 34.65 79.95 37.4 77.2 41.35 77.2 45.25 77.2 48.05 79.95 50.8 82.7 50.8 86.65 50.8 90.55 48.05 93.3 45.25 96.05 41.35 96.05 37.4 96.05 34.65 93.3 31.85 90.55 31.85 86.65 Z"/>
</g>
</defs>

<g transform="matrix( 1, 0, 0, 1, -62.75,-76.85) ">
<g transform="matrix( 1, 0, 0, 1, 0,0) ">
<g transform="matrix( 1, 0, 0, 1, 0,0) ">
<use xlink:href="#Graphics_Symbol_793_0_Layer0_0_FILL"/>
</g>
</g>
</g>
</svg>
