
<svg xmlns="http://www.w3.org/2000/svg" version="1.1" xmlns:xlink="http://www.w3.org/1999/xlink" preserveAspectRatio="none" x="0px" y="0px" width="550px" height="400px" viewBox="0 0 550 400">
<defs>
<g id="Parts_Heads_headsMC_25_Layer14_0_FILL">
<path fill="#534424" stroke="none" d="
M 124.15 93
Q 124.15 69.5 108.95 53.1 94 37 73.05 37 62.75 37 51.1 41.9 40.25 46.5 30.55 54.25 21.1 61.85 15.45 70.3 9.5 79.15 9.5 86.5 9.5 117.85 24.5 135.1 38.15 150.9 60.25 150.9 87.55 150.9 106.4 132.6 114.85 124.4 119.5 114 124.15 103.65 124.15 93
M 101.9 53.8
Q 115.5 66.7 118.3 93.3
L 118.15 93.3
Q 115.8 117.4 100.75 130.95 85.25 144.9 59.15 144.9 33.4 144.9 22.85 121.25 16.75 107.5 16.75 89 16.75 86.95 17.5 79.95
L 15.9 82.7 15.55 82.75
Q 15.7 79.1 17.9 73.8 21 66.4 26.5 60.45 42.55 43.05 73.45 43.05 90.55 43.05 101.9 53.8 Z"/>
</g>

<g id="Graphics_Symbol_793_0_Layer0_0_FILL">
<path fill="#7D5924" stroke="none" d="
M 118.15 93.3
L 118.3 93.3
Q 115.5 66.7 101.9 53.8 90.55 43.05 73.45 43.05 42.55 43.05 26.5 60.45 21 66.4 17.9 73.8 15.7 79.1 15.55 82.75
L 15.9 82.7 17.5 79.95
Q 16.75 86.95 16.75 89 16.75 107.5 22.85 121.25 33.4 144.9 59.15 144.9 85.25 144.9 100.75 130.95 115.8 117.4 118.15 93.3
M 90 70.05
Q 90 74.3 87 77.35 84 80.35 79.75 80.35 75.5 80.35 72.5 77.35 69.5 74.3 69.5 70.05 69.5 65.8 72.5 62.85 75.5 59.8 79.75 59.8 84 59.8 87 62.85 90 65.8 90 70.05
M 101 92.95
Q 101.8 93.95 101.8 95.15 101.8 110.1 90.2 120.1 79.05 129.7 63.55 129.7 53.95 129.7 46.25 124.05 40 119.45 40 116.55 40 115.4 41.1 114.85
L 42.8 114.45
Q 44 114.45 45.35 116
L 48.35 119.5
Q 53.4 124.45 62.95 124.45 81.4 124.45 90.6 107.85 95.25 99.5 96.25 91.2 99.6 91.2 101 92.95
M 31.85 86.65
Q 31.85 82.7 34.65 79.95 37.4 77.2 41.35 77.2 45.25 77.2 48.05 79.95 50.8 82.7 50.8 86.65 50.8 90.55 48.05 93.3 45.25 96.05 41.35 96.05 37.4 96.05 34.65 93.3 31.85 90.55 31.85 86.65 Z"/>
</g>

<g id="Graphics_Symbol_841_0_Layer1_0_FILL">
<path fill="#000000" fill-opacity="0.25098039215686274" stroke="none" d="
M 39.5 95.95
L 38.95 96
Q 39.6 96.65 40.9 97.35 42.55 98.3 43.35 98.3 47.85 98.3 50.85 95.05 54 91.6 54 86.2 54 81.4 51.9 78.95 50.3 77.05 48.05 77.05 47.35 77.05 46.85 77.45
L 45.85 78.55 48.05 81.3
Q 49.25 82.95 49.25 84.05 49.25 85.5 47.05 88.6
L 42.85 93.75
Q 40.9 95.8 39.5 95.95
M 104.55 92.8
Q 103.85 91.7 101.45 91.9 98.8 96.6 97.9 103.5 96.95 110.4 95.4 113.9 93.85 117.35 87.05 120.2
L 61.7 130.95 63.05 131.7 65.45 131.9
Q 82.75 131.9 94.1 121.45 105.1 111.35 105.1 96.7 105.1 93.7 104.55 92.8
M 84 59
L 83.5 59.1
Q 82.9 61.2 84.35 63.65 86.1 66.5 86.1 68.35 86.1 71.6 84.35 75
L 81.65 76.95
Q 77.8 79.75 77.8 80.05 77.8 81.2 78.95 81.85
L 80.6 82.3
Q 85.05 82.3 88.45 79.3 92.35 75.8 92.35 69.95 92.35 65.95 90.6 62.7 88.5 58.85 84.9 58.85
L 84 59
M 109.95 54.1
Q 107.9 59.05 111.75 66.85 114.95 74.8 114.95 84.1 114.95 119.1 84.65 135.8 75.7 140.75 63.8 144.05
L 54.35 146.85 54.15 150.05
Q 53.9 150.9 54.9 150.85
L 56.45 150.8 57.45 150.75 60.4 150.85 68.75 150.4
Q 74.6 149.8 83.65 147.25 92.65 144.7 107.7 131.75 122.7 118.8 123.75 94.5 124.75 70.15 109.95 54.1 Z"/>
</g>

<g id="Graphics_Symbol_841_0_Layer0_0_FILL">
<path fill="#FFFFFF" fill-opacity="0.5019607843137255" stroke="none" d="
M 58.1 127.45
L 58.2 125.6
Q 57.8 125.2 53.2 123.3 48.5 121.35 46.5 119.5 45.05 118.15 44.35 115.15 43.85 113.1 41.7 113.1 40.55 113.1 39.6 113.65 38.65 114.2 38.65 114.8 38.65 120.15 56.6 127.6
L 58.1 127.45
M 78.5 60.9
Q 78.5 59.5 76.35 59.5 74.05 59.5 71.2 62.65 68.3 65.85 68.3 68.7 68.3 70.15 69.2 71.95 70 73.5 70.55 73.9 76.1 66.5 77.7 63.7 78.5 62.2 78.5 60.9
M 35.65 87.55
Q 36.05 87.1 37.75 86.3 41.25 84.6 41.25 80.25
L 41.2 77.6
Q 41.05 76.15 40.35 75.25 37.4 75.3 34.1 79.7 31.05 83.75 31.05 86.25 31.05 90.5 34.2 90.5
L 35.3 90.2
Q 34.85 88.45 35.65 87.55
M 99.55 93.5
L 99.45 91.9
Q 95.1 92.1 92.2 96.8 90.3 99.85 89.6 103.4 88.9 105.95 85.9 110.95
L 83.05 115.5
Q 83.05 116.5 83.3 116.9
L 83.6 117.2 84.2 117.25
Q 84.9 117.25 87.3 115.25 90 113 92.5 109.95 99.55 101.4 99.55 93.5 Z"/>
</g>
</defs>

<g transform="matrix( 1, 0, 0, 1, -62.75,-76.85) ">
<g transform="matrix( 1, 0, 0, 1, 0,0) ">
<use xlink:href="#Parts_Heads_headsMC_25_Layer14_0_FILL"/>
</g>

<g transform="matrix( 1, 0, 0, 1, 0,0) ">
<g transform="matrix( 1, 0, 0, 1, 0,0) ">
<use xlink:href="#Graphics_Symbol_793_0_Layer0_0_FILL"/>
</g>
</g>

<g transform="matrix( 1, 0, 0, 1, 0,0) ">
<g transform="matrix( 1, 0, 0, 1, 0,0) ">
<use xlink:href="#Graphics_Symbol_841_0_Layer1_0_FILL"/>
</g>

<g transform="matrix( 1, 0, 0, 1, 0,0) ">
<use xlink:href="#Graphics_Symbol_841_0_Layer0_0_FILL"/>
</g>
</g>

<g id="hat1" transform="matrix( 0.983917236328125, -0.17529296875, 0.17529296875, 0.983917236328125, 45.2,78.25) ">
<g id="colorMC" transform="matrix( 0.9999847412109375, 0, 0, 0.9999847412109375, 0,0) "/>

<g id="colorMC2" transform="matrix( 1, 0, 0, 1, 0,0) "/>
</g>

<g id="hat2" transform="matrix( 0.9733734130859375, -0.2247314453125, 0.2247314453125, 0.9733734130859375, 38,60.6) ">
<g id="colorMC_FL" transform="matrix( 0.9999847412109375, 0, 0, 0.9999847412109375, 0,0) "/>

<g id="colorMC2_FL" transform="matrix( 1, 0, 0, 1, 0,0) "/>
</g>

<g id="hat3" transform="matrix( 0.96026611328125, -0.2753753662109375, 0.2753753662109375, 0.96026611328125, 26,48.4) ">
<g id="colorMC_FL_FL" transform="matrix( 0.9999847412109375, 0, 0, 0.9999847412109375, 0,0) "/>

<g id="colorMC2_FL_FL" transform="matrix( 1, 0, 0, 1, 0,0) "/>
</g>

<g id="hat4" transform="matrix( 0.944580078125, -0.3252410888671875, 0.3252410888671875, 0.944580078125, 18.85,34.5) ">
<g id="colorMC_FL_FL_FL" transform="matrix( 0.9999847412109375, 0, 0, 0.9999847412109375, 0,0) "/>

<g id="colorMC2_FL_FL_FL" transform="matrix( 1, 0, 0, 1, 0,0) "/>
</g>
</g>
</svg>
