
<svg xmlns="http://www.w3.org/2000/svg" version="1.1" xmlns:xlink="http://www.w3.org/1999/xlink" preserveAspectRatio="none" x="0px" y="0px" width="550px" height="400px" viewBox="0 0 550 400">
<defs>
<g id="Layer0_0_FILL">
<path fill="#FFFFFF" fill-opacity="0.25098039215686274" stroke="none" d="
M 0.65 9
L 0.6 5.3 -0.25 4.3
Q -1.9 8.5 -4.45 16.9 -7 25.35 -7 26.6 -7 27.25 -6.6 27.45 -6.25 27.65 -6.25 28.4
L -6.15 29.05 -5.75 29.15
Q -1.7 22.3 -3 19.75
L -2.2 18.25
Q -1.15 20.4 0.8 25.5 2.8 29.55 5.6 29.55
L 6.85 29.25 7.5 29 7.6 29.05 7.65 28.45
Q 7.65 27.6 5.55 24.35
L 1.15 18.3
Q -0.15 16.65 0.1 12.9
L 0.65 9
M 5.95 27.35
L 6.3 28.35
Q 5.75 27.85 4.55 25.85 3.3 23.8 3.3 23.3 4.7 25 5.95 27.35 Z"/>
</g>
</defs>

<g transform="matrix( 1, 0, 0, 1, 0,0) ">
<use xlink:href="#Layer0_0_FILL"/>
</g>
</svg>
