
<svg xmlns="http://www.w3.org/2000/svg" version="1.1" xmlns:xlink="http://www.w3.org/1999/xlink" preserveAspectRatio="none" x="0px" y="0px" width="550px" height="400px" viewBox="0 0 550 400">
<defs>
<g id="Layer0_0_FILL">
<path fill="#999999" stroke="none" d="
M 79.65 158.4
Q 77.25 161.2 75.95 161.55 70.15 163.25 65.8 163.25 63.8 163.25 60.15 162.25 56.9 161.35 55.85 160.7
L 55.25 160.3 60.6 159.15
Q 60 158.9 59.8 158.5 59.7 158.3 59.75 157.65
L 53.3 158.2
Q 51.85 158.2 51.15 157.7
L 50.65 157.15
Q 50.25 157.15 50.25 157.55
L 49.8 157.9
Q 48.15 157.9 46.35 155.9 44.45 153.75 41.95 153.4 42.3 157.4 45.65 158.8
L 47.95 159.5
Q 49 159.75 49 160 49 161.65 54.65 163.95
L 57.85 165.55
Q 61.6 167.1 64.4 167.1 71.65 167.1 79.05 162.5 85.4 158.5 85.4 156.45 85.4 156 85.1 156 84.75 156 84.75 155.55
L 85.5 151.35
Q 82.7 155.75 81.9 155.75
L 79.65 158.4
M 23.3 101.2
L 23.1 101.35
Q 22.9 101.55 23 101.85
L 23.3 101.2
M 24.4 72.2
Q 25.8 70.25 27.8 68.5
L 31.1 65.65 29.75 65.65 29.65 64.4 29.7 62
Q 27.35 62.9 27.1 64.35 26.9 65.05 27.25 66.1 27.25 66.8 24.95 68 22.55 69.25 22.55 69.8 22.55 70.65 23.25 71.7 21.1 71.4 19.65 74.45 18.15 77.5 19.45 79.6 17.2 80 15.75 81.1 14.35 82.1 14.35 83.3
L 15.1 84.9 16.65 87.3
Q 15 88.4 14.1 89.8 13.35 90.9 13.35 91.95 13.35 92.35 14.05 93.75 14.95 95.45 16.1 96.35
L 15.05 97.75
Q 14.6 98.35 14.6 98.95 14.6 103 16.4 104.4 17.05 104.9 18.5 105 17.8 107.25 17.8 108.3 17.8 110.2 20.45 114.6
L 23.1 118.9 22.2 124.75
Q 22.2 130.9 26.1 134.65 28.85 137.3 30.75 137.3 30.8 141.1 33.25 146.5 36.65 154.15 41.85 153.15
L 44.95 152.55
Q 48.05 151.7 49.2 150.2
L 49.25 149.75 46.75 149.65 45.7 150.45
Q 44.55 151.15 43.75 151.15
L 40.4 151.25
Q 35.4 151.25 33.15 139.15 32.6 136.05 28.45 132.45 24.6 129.1 24.6 125.45
L 25.25 119.35
Q 26.05 119.7 27.55 120.05
L 29.95 120.4 33.2 120.05
Q 34.25 119.6 34.55 118.2 35.25 118.1 34.4 118.1 27.4 118.1 23.6 115.45 20.05 112.95 20.05 108.55
L 21.1 105.25 20.3 101.65 19.8 102.35
Q 18.35 102 17.75 101.55 16.8 100.9 16.8 99.65
L 17.8 98.05
Q 18.7 96.75 19.3 96.15
L 18.95 93.7
Q 18.7 94.55 17.85 94.55 17.3 94.55 16.95 94.2
L 16 93
Q 15.85 92.75 16.1 92.05
L 16.4 91.25 16.45 91
Q 16.75 90.4 18 89.45 18.55 89 18.6 87
L 17.9 86.75 16.7 83.55
Q 16.7 82.8 17.8 82.15 18.9 81.5 20.45 81.5 21.65 81.5 21.6 78.75
L 21.3 76
Q 21.3 75.3 22.1 74.6
L 24.4 72.2
M 83.5 55.45
L 83.15 53.05
Q 82.7 51.45 82.1 50.6 80.55 48.45 76.45 46.65 71.9 44.9 70.3 44 62.85 46.2 55.85 47.75 49.95 49.05 48.7 49.5 46.25 50.35 43.95 52.5
L 36.8 59.8 36.85 59.9
Q 32.15 61 30.4 61.65 39.1 61.65 39.35 59.9 39.3 60.15 39.05 59.75
L 38.8 59.55
Q 39.4 58.75 43.6 55.55 49 51.45 51.7 51.45 52.45 51.45 53.1 51 53.85 50.45 55.85 50.15
L 54.85 49.8 56.75 49.55
Q 56.3 52.85 60.05 50.9 66.1 47.75 67.05 47.6 66.9 47.4 68.2 46.85 69.55 46.35 70.2 46.35
L 75.7 48.95
Q 81.1 52 81.1 54.25 81.1 58.6 69 69.25
L 56.85 79.1
Q 56.85 80.25 57.35 80.95
L 58.25 81.5
Q 58.8 81.5 60.2 80.5 61.8 79.3 62.5 78.1 64.55 85.85 64.55 88.1
L 63.6 91.65
Q 62.7 94.9 62.7 95.6 62.7 96.15 62.85 96.4
L 63.4 96.7 64.7 95.6 65.55 94.4
Q 69.65 98.75 71.7 104.55 73.15 108.8 73.15 112.35 73.15 116.2 69.6 118.5
L 65.95 120.6
Q 63.55 122.05 61.85 123.6
L 62.4 124.75 64.4 124.9
Q 66 124.9 68.3 124 70.4 123.15 71.45 122.25
L 77.15 130.55 79.9 130.1 76.75 125.05
Q 74.4 121.65 72.9 120.55 74.6 117.95 75.2 114.85
L 75.5 112.1
Q 75.5 109.25 71 100.7
L 66.4 92.1 67.1 85.65
Q 68.15 87.35 70.25 87.35 73.45 87.35 78.45 83.5
L 87.65 76.25
Q 88.3 75.9 96.15 72.9 103.2 69.5 100.6 66.85 101.8 66.7 102.2 66.3 101.7 64.15 95.05 62.8
L 88.15 61.85
Q 86.5 61.85 85.15 63.25 83.85 64.65 81.95 64.65
L 77.1 64.5 82.2 59.6
Q 83.5 58 83.5 55.45
M 81 69.95
L 83.1 67.5
Q 85.4 65.1 88.5 65.1
L 98.65 66.9
Q 97.8 67.7 88.45 72.6 77.65 78.2 69.6 83.7
L 72.9 79.25
Q 75.25 75.7 75.25 74.35 75.25 73.65 74.35 73.5 73.5 73.3 73.5 72.5 73.5 70.8 75.35 68.85 77.4 66.8 79.3 67.2
L 79.55 67.3 79.1 67.55
Q 78.75 67.8 78.75 68.3 78.75 68.95 79.75 69.5
L 81 69.95
M 69.1 70.85
L 74.15 66.5
Q 71.2 69.75 69 75.25
L 66.85 81.25 66.65 79.9 65.3 74.9
Q 65.3 74.35 69.1 70.85 Z"/>
</g>
</defs>

<g transform="matrix( 1, 0, 0, 1, 0,0) ">
<use xlink:href="#Layer0_0_FILL"/>
</g>
</svg>
