
<svg xmlns="http://www.w3.org/2000/svg" version="1.1" xmlns:xlink="http://www.w3.org/1999/xlink" preserveAspectRatio="none" x="0px" y="0px" width="550px" height="400px" viewBox="0 0 550 400">
<defs>
<g id="Layer0_0_FILL">
<path fill="#000000" stroke="none" d="
M 108.75 111.05
L 107.3 112.25
Q 106.85 114.4 105.8 116.8
L 106.45 116.25
Q 107.8 113.65 108.75 111.05
M 21.7 113.65
Q 23.25 121.65 24.15 122.3
L 24.8 123.15 25.25 119.35 27.2 119.95 26.05 116.75
Q 24.7 116.2 23.6 115.45
L 21.7 113.65
M 21.1 105.25
L 20.3 101.65 19.8 102.35 19.7 102.35 20.4 106.7 20.5 107.1 21.1 105.25
M 64.8 121.35
Q 67.45 120.75 69.6 118.5
L 64.8 121.35
M 62.7 95.7
L 62.75 95.3 62.7 95.6 62.7 95.7
M 55.85 50.15
L 55.25 49.95 51.45 51.45 51.7 51.45
Q 52.45 51.45 53.1 51 53.85 50.45 55.85 50.15
M 20.45 81.5
Q 21.65 81.5 21.6 78.75
L 21.3 76.1 17.85 80 20.25 80.7 20.1 81.5 20.45 81.5
M 18.45 94.4
L 18.8 96.75 19.3 96.15 18.95 93.7 18.45 94.4
M 30.75 66
Q 28.75 66 24.75 71.45
L 23.15 73.65 24.4 72.2
Q 25.8 70.25 27.8 68.5
L 30.75 66
M 39.35 59.9
Q 39.3 60.15 39.05 59.75
L 38.8 59.55
Q 39.3 58.9 42.15 56.7
L 42.1 56.7 35.75 61.4
Q 39.2 61 39.35 59.9
M 67.05 47.6
Q 67 47.55 67.1 47.45 61.6 47.75 56.05 49.65
L 56.75 49.55
Q 56.3 52.85 60.05 50.9 66.1 47.75 67.05 47.6
M 90.75 81.75
Q 87.25 83.45 86.6 85.6 86.35 88 88.15 88.15
L 90.15 87.85
Q 93.65 87.85 99.2 82.55 98.25 80.15 97.05 80.15 94.05 80.15 90.75 81.75
M 96.65 68.2
Q 96 68.55 95.25 69 96.5 71.75 96.95 74.8 98.35 82.15 104.15 85.95 108.5 88.75 113.55 88.75 114.15 88.75 114.25 88.4 114.4 87.85 114.7 87.6 116.55 88.85 116.85 90.95 116.85 92.35 115.2 93.65
L 111.6 96.1
Q 106.9 99.35 106.4 104.35 109.4 102 109.4 101.05 109.4 100.85 110.8 100.25
L 110.8 99.5
Q 111.15 97.65 115.3 95.85 119.2 94.2 119.2 91.05 119.2 87.5 117.65 86.4 116.6 85.65 113.8 85.75
L 108.95 85.55
Q 106.1 84.9 104.2 82.3
L 104.75 83.9 101.2 77.45
Q 98.8 73 96.65 68.2
M 99.3 71.6
L 97.8 67.55 96.95 68 99.3 71.6
M 81.1 54.25
L 81 55.15 84.4 57.2
Q 90.45 61.1 93.65 66.05
L 97.45 66.75 95.55 62.95
Q 91.7 56.35 84.5 53.1 82.35 51.35 79.85 50 76.7 48.3 73.1 47.7
L 75.7 48.95
Q 81.1 52 81.1 54.25 Z"/>
</g>
</defs>

<g transform="matrix( 1, 0, 0, 1, 0,0) ">
<use xlink:href="#Layer0_0_FILL"/>
</g>
</svg>
