
<svg xmlns="http://www.w3.org/2000/svg" version="1.1" xmlns:xlink="http://www.w3.org/1999/xlink" preserveAspectRatio="none" x="0px" y="0px" width="550px" height="400px" viewBox="0 0 550 400">
<defs>
<g id="Layer0_0_FILL">
<path fill="#FF0000" fill-opacity="0.25098039215686274" stroke="none" d="
M 112.3 94.6
Q 114.1 94.6 115.4 93.6 116.65 92.55 116.65 91.05 116.65 89.55 115.4 88.55 114.1 87.5 112.3 87.5 110.5 87.5 109.2 88.55 107.95 89.55 107.95 91.05 107.95 92.55 109.2 93.6 110.5 94.6 112.3 94.6
M 100.3 92.7
Q 98.15 91.45 95.25 91.45 88.95 91.45 83.7 95.9 79.7 99.35 79.7 100.65 79.7 103.1 82.05 104.7 84.85 106.65 90.1 106.65 95.35 106.65 99.15 103.4 102.75 100.3 102.75 96.15 102.75 94.05 100.3 92.7 Z"/>
</g>
</defs>

<g transform="matrix( 1, 0, 0, 1, 0,0) ">
<use xlink:href="#Layer0_0_FILL"/>
</g>
</svg>
