
<svg xmlns="http://www.w3.org/2000/svg" version="1.1" xmlns:xlink="http://www.w3.org/1999/xlink" preserveAspectRatio="none" x="0px" y="0px" width="550px" height="400px" viewBox="0 0 550 400">
<defs>
<g id="Layer0_0_FILL">
<path fill="#999999" stroke="none" d="
M 163.75 196.85
L 165.75 185.15
Q 165.75 177.8 158.95 168.7 152.1 161.05 152.1 160.6 152.1 160.15 152.45 158.7
L 152.8 156.75
Q 152.8 150.95 151.35 146.35 149.85 141.4 146.25 136.7 144.6 134.5 144.45 132
L 144.35 128.6
Q 142.9 120.75 139.3 117.65 136.75 115.35 132.7 115.35 132.2 115.35 132 114.15 131.7 112.35 130.45 110.75 128.7 108.3 125.4 107.6 122.1 106.85 116.9 107.7
L 118.6 105.55
Q 119.75 103.75 119.75 102.45 119.75 99.85 117.95 98.15 116.35 96.65 114.15 96.65 112.2 96.65 109.5 98.1 107.15 99.45 107.15 99.7 107.15 100.25 107.4 100.55
L 107.95 100.95
Q 105.4 101.9 98.9 105.8
L 85.5 114.05
Q 83.5 115.25 75.95 117.65 69.4 119.7 68.2 121.25 68.5 122.35 70.45 122.95
L 71.45 122.25 72.3 123.4 73.8 123.6 80.75 122.35
Q 80.9 122.35 82.75 123.7
L 82.9 123.85
Q 81.4 125.55 78.5 126.85
L 75.65 128.25 77.15 130.55 79.9 130.1 80.05 130.1
Q 85.85 127.2 97.8 122.65 99.85 121.9 109.8 113.4 112.15 111.6 118.5 110.25
L 122.1 109.4
Q 128.15 109.4 130.25 115.15
L 131.45 119.1
Q 132.2 120.9 133.4 120.9
L 135.1 120.7
Q 135.35 120.65 135.35 119.8
L 135.25 119.15 134.65 118.7 134 117.85
Q 140.6 118.3 141.9 128.15 142.55 133.1 141.9 138.05 141.9 140.8 142.6 142 143.05 142.8 144.15 143.25 144.9 143 144.9 142.2
L 143.95 135.5 148.85 143.7
Q 150.5 146.8 150.5 150.3 150.5 151.3 149.15 157.35 147.85 163.35 147.85 167.85 147.85 168.45 148.15 168.7
L 149.25 168.95 151.15 164.1
Q 152.65 166.65 158.4 173.75 163.45 180.55 163.45 184.7 163.45 188.05 161.65 192.35 160 196.3 158.55 197.25
L 159.55 198.2
Q 160.35 198.9 160.8 199.05 157.75 202.65 155.65 203.95 153.55 205.15 150.55 205.15 144.3 205.15 135.35 200 133.1 199.5 131.55 198.75 128.6 197.4 129.75 194.9 137.55 194.15 140.7 193.15 142.95 192.45 142.95 191.55
L 142.95 191 142.8 190.75 141.55 190.5
Q 139.45 190.5 134.95 191.8
L 130.8 193.05
Q 125.45 193.05 122.25 191.8 117.7 190 116.45 185.6 115.6 182.75 115.2 178.4 114.95 175.95 113.85 175.35 119.8 174.15 122.8 170.55
L 124.25 168.15 124.55 167.1 124.55 166.65 123.2 166.5
Q 122.2 166.5 121.6 167.55
L 120.35 169.9
Q 117.95 173.35 110.35 173.35 105.55 173.35 102.75 169.7 97.5 162.95 93.95 160.15
L 99.5 158.75
Q 100.6 158.35 100.6 157.35
L 100.55 156.55 100.2 156.45
Q 97.5 156.75 94.45 157.6
L 88.15 158.1
Q 84.05 158.1 80.9 156.95
L 79.65 158.4 79.55 158.55 80.7 159.1
Q 81.6 159.7 85.95 159.6
L 91.55 160.05
Q 91.9 161.05 93.55 163.25 95.8 166.25 98.9 168.85 100.25 169.95 106.55 173.15 111.45 175.7 112.75 178.1 113.9 180.3 114.25 184.55 114.5 188.3 116 190.05 118.15 192.5 119.6 193.25 121.8 194.35 127.3 194.9 127.45 196.5 129.4 198.65 131.25 200.7 133.05 201.55 134.6 202.35 139.2 205.1 144.45 207.6 151.6 207.6 155.7 207.6 159.8 203.8 163.75 200.15 163.75 196.85
M 117.4 102.2
Q 117.4 104.15 115.6 105.45 111.9 108.2 110.85 109.2
L 103.05 115.55
Q 96.65 119.6 95.9 119.3 93.95 118.4 87.9 120.05
L 84.35 121.25
Q 83.75 121.25 82.25 120.5 80.95 119.85 79.25 120.05 84.95 117.95 96.95 110.6 109.4 102.95 109.4 101.05 109.4 100.75 112.05 99.7
L 114.8 98.8
Q 116 98.8 116.85 100.45 117.4 101.65 117.4 102.2
M 94.4 120.55
L 94.6 120.5
Q 94.8 120.5 94.8 120.6
L 94.4 120.55 Z"/>
</g>
</defs>

<g transform="matrix( 1, 0, 0, 1, 0,0) ">
<use xlink:href="#Layer0_0_FILL"/>
</g>
</svg>
