
<svg xmlns="http://www.w3.org/2000/svg" version="1.1" xmlns:xlink="http://www.w3.org/1999/xlink" preserveAspectRatio="none" x="0px" y="0px" width="550px" height="400px" viewBox="0 0 550 400">
<defs>
<g id="Layer0_0_FILL">
<path fill="#000000" fill-opacity="0.14901960784313725" stroke="none" d="
M 100.05 70.45
L 100.85 69.5
Q 100.85 67.7 96.55 64.4 91.05 60.15 89.45 58.05 86.2 53.7 79.85 49.3 72.75 44.35 68.55 44.35 58.55 44.35 49 49.25 40.55 53.6 31.9 62.1 23.2 70.75 19.55 78 15.3 86.7 15.3 98.45 15.3 104.35 19.4 116.55 24.7 132.5 33.85 146.3 42.2 158.85 48.85 163.65 55.3 168.3 64.2 168.3 65 168.3 71.65 165.05 78.3 161.8 81.35 161.8 83.45 161.8 84.55 161.25 85.65 160.7 87 160.7 92.3 160.7 98.7 166.7
L 103.35 171.35
Q 105.75 173.85 107 174.55 112.85 177.95 115.25 182.6 116.65 185.25 117.4 190.05 118.05 194.05 119.3 195.2 121.25 196.95 126.8 196.25 127.4 201.55 134.25 204.5 140 206.95 147.4 206.95 155.75 206.95 161.1 201.25 166.75 195.2 166.75 185.15 166.75 177.15 153.15 164.95 150.9 162.95 151.45 160 152.65 153.7 152.65 151.9 152.65 147.55 148.7 141.15 144.7 134.8 144.7 130.15 144.7 128.05 143.8 126.1
L 140.85 120.95
Q 140.25 120 136.45 117.8 132.5 115.5 131.75 114.45 129.95 112 126.35 109.85 120.9 106.5 116 107.85
L 116 108 115.95 107.3
Q 115.95 106.4 116.65 104.05
L 117.9 99.95
Q 117.7 98.6 114.4 98.35 115.65 97.75 117.35 93.7 118.9 90.05 118.9 88.9 118.9 88.3 117.4 86.65 115.4 84.5 113 84.5
L 109.1 85.55
Q 103.35 85.55 100.8 79.5 99.2 75.8 99.2 71.85 99.2 71.4 100.05 70.45
M 92.45 71.4
Q 88.05 72.4 85.95 73.25 82.1 74.75 82.1 78.5
L 76.8 80.55 75.35 80.1 77.4 76
Q 77.4 75.15 77 74.95
L 76.1 74.55
Q 81.2 70.85 83.65 69.5 81.05 65.55 75.4 69.4 73.4 70.75 71.7 72.7 70.15 74.35 70.15 74.95
L 70.2 75.7
Q 70.5 75.8 70.4 76
L 70.4 76.05 70.9 76.1
Q 73.7 76.1 75.65 74.85
L 73.4 79.1
Q 72.2 80.1 69.4 81.6 67.1 82.75 67.1 83.15
L 67.25 84.35 69.95 85.45
Q 70.85 85.75 72.8 84.85
L 74.35 86.35
Q 75.75 86.35 80.6 83.85 86.75 80.7 92.55 79.05 93.4 84.35 95.45 86.55 98.05 89.3 103.9 89.3
L 109.65 88.4
Q 110.2 88.4 110.2 88.7
L 110.25 89.15
Q 111.8 89.45 111.8 88.6
L 111.6 87.7 110.95 87.2 113.3 86.8
Q 114.6 86.8 116.3 89.5 116.3 94.25 112.65 96.15
L 110.1 97.45
Q 108.95 98.25 108.95 99.65 108.95 100.4 109.65 101.05
L 111.2 102.55
Q 109.2 104.45 107.55 107.85 106.7 109.55 103.5 110.05 102 110.25 96.4 114.35 89.95 119.05 89.95 121.8
L 90.15 122.35 91.35 122.9
Q 89.05 125.2 86.45 126.6 84.6 127.55 84.6 128
L 85.1 128.65
Q 85.65 129.2 86 129.2 116.55 114.9 116.85 114.9 125 114.9 126.25 115.1 127.05 115.2 129.95 116.8 130.1 121.35 131.05 124.3 131.8 126.65 132.55 126.65
L 133.45 126.35
Q 134.45 125.85 135.15 124.85
L 139.7 128.6
Q 139.45 128.8 139.05 130.6
L 140 134.45 138.6 145.1
Q 138.6 145.75 140.8 148.65 143 151.55 143.45 151.55
L 143.6 148.25 143.9 147.15
Q 144.25 148.65 146.35 152.4
L 148.45 155.8
Q 148.45 156.7 146.55 157.75 144.65 158.8 144.65 161.5 144.65 166.85 146.8 170.55 147.9 172.4 149.1 173.15 149.7 173.15 150.75 172.2 151.75 174.4 156.5 182.55 159.3 187.45 159.3 190.65 159.3 195.45 154.85 198.6 151 201.35 146.6 201.35 145.75 201.35 144.15 200.75 142.3 200.1 141.45 199.25
L 140.95 198.5 142 198.8
Q 142.5 198.6 142.5 197.85 142.5 197.35 140.8 195.4
L 138.35 192.75 140.2 192.7
Q 140.7 192.7 140.7 192.15
L 143.4 190.75
Q 146.1 189.45 146.1 189.1 146.1 187.45 137.55 187.1
L 128.25 187.05
Q 125.15 187.05 122.45 182.75 119.85 178.65 119.85 174.2
L 125.95 166.45 125.9 165.95 125.85 166
Q 124.3 165.5 123.75 165.5
L 121.7 165.4 110.5 168.4
Q 109.75 168.1 106.15 164.8
L 101.05 159.9 106.3 158.75
Q 107.25 158.5 107.45 156.55
L 107.35 156.05
Q 103.2 154.65 99.8 154.4 96.05 154.05 87.75 154.6
L 89.2 152 89.8 150.4
Q 89.8 147.65 88.85 147.65
L 85.85 150.25
Q 82.5 153.45 79.35 155.15 78.4 155.75 73.3 157.35
L 68.55 158.85
Q 68.55 159.35 67 159.15
L 65.55 158.95
Q 65.75 158.85 65.75 158.15 65.75 157.7 64.65 156.7 63.35 155.5 62.2 155.5
L 52.3 157
Q 51.7 157 51.2 156.45 50.8 155.95 50.8 155.25 50.8 154.9 50.2 154.55 49 153.85 48.15 153.15 53.55 151 54.75 150.1 55.5 149.6 55.5 148.45
L 55.5 147.95 55.45 148
Q 55.3 147.6 54.2 147.6
L 47.85 148.85
Q 41.45 148.85 37.1 142.15 32.95 135.85 31.65 125.1
L 34 125.15 37.1 124.55
Q 39.45 123.85 41.55 123.85
L 42.3 123.7 42.55 123.35 42.7 122.55
Q 37.65 121.05 36.6 119.35
L 36.5 117.7 32.7 113.9
Q 28.55 109.75 27.45 105.85 27.2 104.8 26.9 101.2 26.45 96.4 26.45 91.55 26.45 78.8 44.4 64.7 51.65 59.05 59.25 55.35 66.75 51.75 71.25 51.75 71.5 51.75 73.35 54.1 75.4 56.65 75.4 57.8 75.4 59.05 72 62.15
L 64.65 68.45
Q 53.85 77.6 53.85 81.3 53.85 83 56.1 83 57.55 83 58.05 82.25
L 59.05 80.7 59.65 80
Q 59.65 82.15 60.3 84.9
L 60.9 87.9
Q 60.9 92.95 57.2 98.65 53.4 104.4 53.4 105
L 53.6 106.1 54.8 106.15 60.4 100.65 63.45 97.05 65.8 105.95
Q 67.45 112.9 67.45 116.65
L 52.05 129.05 52.2 129.95
Q 52.3 130.2 52.85 130.2 56.2 130.2 60.1 127.7 62.75 126.05 69.9 120.05 71.15 119 72.1 117.3 73.8 114.15 73.8 109.8 71.75 102.8 69.6 99.4 67.45 96 65.8 94.35 65.4 93.9 65.4 92.55
L 62.9 76.65
Q 62.9 76.35 66.1 72.95
L 69.4 69.65
Q 71.55 69.65 75.05 66.95 78.85 64.05 80.4 60.65
L 80.45 60.4 92.45 71.4
M 36.15 144.85
L 35.85 145.05 35.8 144.95 36.15 144.85
M 132.3 118.35
L 132.7 118.35
Q 132.4 119 132.4 119.6 132.2 119.5 132.1 118.9 132.05 118.3 132.3 118.35
M 119.35 170.35
L 119.6 170.5 119.65 170.85 119.6 171.2 119.35 171.35 119.1 171.2 119 170.85 119.1 170.5
Q 119.2 170.35 119.35 170.35
M 151.2 165.55
L 150.4 165.8
Q 150 165.85 149.95 165.5
L 149.8 163.9 151.2 165.55
M 96.1 91.5
Q 92.5 91.5 89.95 93.25 87.15 95.15 88.1 96.95
L 102.2 99.7 102.75 99.65
Q 104.5 97.15 102.1 94.3 99.65 91.45 96.1 91.5 Z"/>
</g>
</defs>

<g transform="matrix( 1, 0, 0, 1, 0,0) ">
<use xlink:href="#Layer0_0_FILL"/>
</g>
</svg>
