
<svg xmlns="http://www.w3.org/2000/svg" version="1.1" xmlns:xlink="http://www.w3.org/1999/xlink" preserveAspectRatio="none" x="0px" y="0px" width="550px" height="400px" viewBox="0 0 550 400">
<defs>
<g id="Layer0_0_FILL">
<path fill="#FFFFFF" stroke="none" d="
M 9.1 2.7
Q 9.7 2.55 10 2 10.3 1.55 10.2 1 10.1 0.45 9.65 0.1 9 -0.15 8.5 0.15
L 7.7 0.45
Q 6.8 0.85 6.05 1.35 4.3 2.45 3.05 3.85 1.7 5.45 0.9 7.25 0.25 9.25 0.05 11.1 -0.05 11.6 0.35 11.8 0.75 12 0.8 11.4 1.3 9.7 2.2 8.5 3.05 7.1 4.2 5.9 5.2 4.75 6.8 3.75
L 8.3 3 9.1 2.7 Z"/>
</g>
</defs>

<g transform="matrix( 1, 0, 0, 1, 0,0) ">
<use xlink:href="#Layer0_0_FILL"/>
</g>
</svg>
