
<svg xmlns="http://www.w3.org/2000/svg" version="1.1" xmlns:xlink="http://www.w3.org/1999/xlink" preserveAspectRatio="none" x="0px" y="0px" width="550px" height="400px" viewBox="0 0 550 400">
<defs>
<g id="Layer0_0_FILL">
<path fill="#FFFFFF" stroke="none" d="
M 4.1 2.75
Q 3.8 2.15 3.2 1.25 2.65 0.55 1.85 0.15
L 1.5 0
Q 1.15 -0.1 0.9 0.1 0.55 0.25 0.15 0.6 -0.05 0.95 0.05 1.45 0.3 1.95 0.55 1.9
L 0.7 1.9 1.15 2.3 1 2.2 1.4 2.5 1.5 2.6 2.3 3.65 2.4 3.85 2.45 3.9 2.65 4.35 2.8 4.9 3.05 5.3 3.1 5.4
Q 3.4 6 3.85 5.85 4.45 5.7 4.45 5 4.55 4.3 4.4 3.7 4.4 3.6 4.1 2.75 Z"/>
</g>
</defs>

<g transform="matrix( 1, 0, 0, 1, 0,0) ">
<use xlink:href="#Layer0_0_FILL"/>
</g>
</svg>
