
<svg xmlns="http://www.w3.org/2000/svg" version="1.1" xmlns:xlink="http://www.w3.org/1999/xlink" preserveAspectRatio="none" x="0px" y="0px" width="550px" height="400px" viewBox="0 0 550 400">
<defs>
<g id="Layer0_0_FILL">
<path fill="#000000" fill-opacity="0.25098039215686274" stroke="none" d="
M -6.35 29.35
Q -4.3 27.35 -3.75 25.8 -4.4 25.4 -6.35 25.5 -8.35 25.55 -10.45 27.1 -12.6 28.6 -13.4 31.7 -14.25 34.75 -13.75 35
L -6.65 35.55 -0.45 35.3
Q -0.7 33.65 0.75 30.85
L -2.7 30.45
Q -4.25 30.2 -6.35 29.35
M 30.3 22.3
Q 28.4 22.3 29 24.65 29.4 26.35 31.55 30.35
L 19.65 31.3 22.05 31.5 9.3 31.35 8.15 35.9 26.1 36.75 35.1 36.3
Q 38.45 35.85 38 33.2 37.55 30.5 35.45 26.4 33.35 22.3 30.3 22.3 Z"/>
</g>
</defs>

<g transform="matrix( 1, 0, 0, 1, 0,0) ">
<use xlink:href="#Layer0_0_FILL"/>
</g>
</svg>
