
<svg xmlns="http://www.w3.org/2000/svg" version="1.1" xmlns:xlink="http://www.w3.org/1999/xlink" preserveAspectRatio="none" x="0px" y="0px" width="550px" height="400px" viewBox="0 0 550 400">
<defs>
<g id="Layer0_0_FILL">
<path fill="#000000" fill-opacity="0.25098039215686274" stroke="none" d="
M 63.85 31.6
Q 63.85 17.35 56 7.05 46.95 -4.85 31.25 -4.85 19.7 -4.85 9.9 2.55 -0.3 10.25 -0.3 20.1 -0.3 22.6 1 28.45 2.3 34.3 2.3 35.35 2.3 43 -2.7 49.1 -5.65 52.75 -13.65 60.15 -20.95 67.75 -24.6 76.8 -29.6 89.2 -27.9 106.5 -26.2 123.8 -22.95 128.7 -19.75 133.55 -8.3 133.55 3.1 133.55 12.2 129.25 24.95 123.2 39.55 108.5 54.1 93.75 55.05 89.85 56 85.9 57.35 82.6 58.65 79.3 59.6 72.25 60.55 65.15 62.2 55.15 63.85 45.15 63.85 31.6
M 52 38.1
L 51.7 38.1 48.7 57.55
Q 47.65 63.9 46.15 67.15 44.75 70.1 39.95 76.55
L 26.2 95.4
Q 17.7 107.5 7.95 114.2 0.05 119.6 -5.2 119.6 -9.65 119.6 -13.15 115.6 -17.15 111.05 -17.15 103.75 -17.15 93.15 -11.55 86.75 -8.15 82.9 0.85 78 9.85 73.05 13.2 69.25 18.8 62.95 18.8 52.5 18.8 50.65 18.3 48.1 17.75 45.6 17.75 38.55 17.75 24.8 22.45 19.3 25.85 15.35 32.4 15.35 41.3 15.35 46.75 22.35 51.75 28.75 52 38.1 Z"/>
</g>
</defs>

<g transform="matrix( 1, 0, 0, 1, 0,0) ">
<use xlink:href="#Layer0_0_FILL"/>
</g>
</svg>
