
<svg xmlns="http://www.w3.org/2000/svg" version="1.1" xmlns:xlink="http://www.w3.org/1999/xlink" preserveAspectRatio="none" x="0px" y="0px" width="550px" height="400px" viewBox="0 0 550 400">
<defs>
<g id="Layer0_0_FILL">
<path fill="#FFFFFF" stroke="none" d="
M -21.65 143.7
Q -15.45 138.6 -14.1 132.75
L -30.35 146.2 -32.3 151.65 -21.65 143.7 Z"/>

<path fill="#FFFFFF" fill-opacity="0.25098039215686274" stroke="none" d="
M -17.15 120.05
Q -18.4 120.9 -19.5 121.8
L -15.35 121 -17.9 126.05 -8.5 121
Q -8.45 120.5 -8.55 119.95 -8.7 118.9 -9.35 118.9
L -14.05 118.25
Q -14.65 118.25 -17.15 120.05
M 2.55 109.3
L 3.65 106.1
Q 3.55 105.4 0.95 106.7
L -1.6 108.15
Q 0 106.05 0 105.05 0 104.55 -0.55 104.3 -1.15 104.05 -1.15 103.55 -1.15 102.95 -0.55 101.75
L 0 100.65 -12.35 108.3 -5.55 98.9
Q -7 98.8 -6.95 97.3
L -6.6 95.85
Q -10.25 97.15 -14.35 101.35 -17.95 105 -18.9 107.4 -16.9 107.8 -14.05 106.15 -11.7 104.75 -10.8 103.4
L -15.45 111.05 -12.5 111.05 -14 113.3
Q -11.3 113.25 -7.7 110.65 -5 108.75 -3.5 106.9
L -9.4 114.55 -5.45 113.75
Q -4.8 113.75 -2.9 114.8
L -1.1 115.8 -2.6 113.5
Q 1.45 110.95 2.55 109.3
M 5.5 88.5
L 1.85 87.15
Q 0.6 87.15 -2.35 89.65
L 2.6 89.3 -2.5 94.4
Q -0.55 95.1 0.85 95.1 2 95.1 4.6 94.1
L 7.55 92.9 4.8 99.1 16.5 94.75 13.6 100.55
Q 15.2 100.5 17.75 98.85 20 97.35 20.45 96.45
L 16.75 97.75 19.45 92 7.8 96.25 10.95 90.95 1 93 5.5 88.5
M 23.95 71.5
L 24.2 69.65 15.75 76.05 20.45 68.4
Q 17.6 68.5 14.5 70.3 11.6 72 10 74.3
L 10.55 74.55 11.3 74.65
Q 13.35 74.65 15.25 72.5
L 13.1 78.75 20.5 77.45
Q 21 77.45 21.6 77.95 22.2 78.4 22.7 78.4 23.7 78.4 26.8 74.05
L 25.55 79.55 26.15 79.75 27.5 79.95
Q 28.5 79.95 30.3 77
L 29.05 80.3 30.25 80.1
Q 31.55 79.05 32.3 77.55
L 32.85 75.9 32.5 72.95 28 76.55 29.5 71.05
Q 28.7 70.7 25.8 72.95
L 23 75.25 23.95 71.5
M 25.2 48
L 25.05 46.4
Q 23.3 48.2 21.55 52.45
L 22.3 55.25
Q 23.2 58.2 24 59.5
L 26.9 55.75 28.25 60 33.3 52.8 34.05 59.9 41.25 53.3 42.5 60.5 43.9 51.4
Q 43.9 50.8 43.1 50.6
L 42.25 50.5 35.5 56.8 35.05 49.2
Q 33.2 49.1 31.4 51.7 29.9 53.85 29.6 55.8
L 29.45 46.45 25 54.3
Q 25.3 50.35 25.2 48
M 46.45 33.6
Q 46.45 31.35 44.25 29
L 39.5 34.15 38 28.55 32 35.8 33.9 26.3 32.4 26.25 25.5 36.7 28.35 24.85
Q 26.6 26.3 24.45 30.35 21.95 34.85 22.6 36.85
L 22.6 39.25 25 39.4
Q 26 39.4 29.35 36 29.8 37.5 30.75 38
L 32.4 38.3
Q 33.4 38.3 37.5 31.4 37.25 35.2 37.4 35.9 37.55 36.65 38.75 36.7 39.8 36.5 41.6 34.95 43.7 33.15 43.75 31.55
L 44.2 39.85 49 37 48.5 36.55 47.5 36.3
Q 46.9 36.3 46.35 36.65
L 45.5 37.3
Q 46.45 34.85 46.45 33.6 Z"/>
</g>
</defs>

<g transform="matrix( 1, 0, 0, 1, 0,0) ">
<use xlink:href="#Layer0_0_FILL"/>
</g>
</svg>
