
<svg xmlns="http://www.w3.org/2000/svg" version="1.1" xmlns:xlink="http://www.w3.org/1999/xlink" preserveAspectRatio="none" x="0px" y="0px" width="550px" height="400px" viewBox="0 0 550 400">
<defs>
<g id="Layer0_0_FILL">
<path fill="#000000" stroke="none" d="
M 66.35 41.3
Q 68.05 35.25 68.05 32.9 68.05 16.25 56.45 4.3 45.6 -6.85 32.55 -6.85 14.5 -6.85 5.05 4.9 -3 14.85 -3 30.4 -3 35.25 -2.1 37.8 -1.25 40.4 -1.25 41.45 -1.25 43.45 -5.95 49.15
L -16.25 62
Q -31.3 82.25 -31.3 101.15 -31.3 102.75 -28.05 115.4 -24.85 128 -24.85 129.8 -24.85 131.2 -28.55 139.3 -32.65 148.35 -33.75 153.1 -31.55 152.85 -20.65 147.25 -8.8 141.15 -5.6 137.75 -2.1 134.05 10.65 129.75 25 124.9 27.45 123.35 34.25 119 41.3 111.85 50.25 102.8 53.45 94.7 55.6 90.45 56.8 86.65 58.75 80.25 61.85 61.95 63.85 50 66.35 41.3
M 56.3 10.3
Q 63.15 20 63.15 33.65 63.15 37.95 62 46
L 58.15 73.35 56.35 72.95 47.75 96.3 32.25 112.5
Q 23.95 118.7 13.7 122.9 5 126.5 -0.55 127
L 0.5 127.35
Q -5.7 127.2 -11.15 129.05 -14.55 130.25 -16.3 131.55 -20.55 126.75 -24.1 118.15 -27.15 110.65 -27.4 106.8 -27.25 106.95 -27.2 102.3
L -26.95 94.55
Q -26.45 90.2 -23.75 83.45
L -21.15 77.3
Q -21.15 76.3 -16.6 68.75
L -15.45 69.55
Q -9.65 61.25 -1.05 53.05 1.1 51 1.75 49.25 2.55 47.2 2.55 42.8
L 2.2 38.8
Q 1.75 34.95 1.15 34.95 1.45 34.95 2.7 27.25 4.05 18.85 4.6 17.45
L 1.8 16.6
Q 5.1 7.5 13.65 2.4 21.25 -2.15 30.1 -2.15 47.55 -2.15 56.3 10.3 Z"/>
</g>
</defs>

<g transform="matrix( 1, 0, 0, 1, 0,0) ">
<use xlink:href="#Layer0_0_FILL"/>
</g>
</svg>
