
<svg xmlns="http://www.w3.org/2000/svg" version="1.1" xmlns:xlink="http://www.w3.org/1999/xlink" preserveAspectRatio="none" x="0px" y="0px" width="550px" height="400px" viewBox="0 0 550 400">
<defs>
<g id="Parts_Hats_hatColorMC_0_Layer0_0_FILL">
<path fill="#FFFFFF" stroke="none" d="
M 62.8 43.95
L 59.35 44.65 37.7 27.35 51.5 9.35 55.4 8.55 53.6 0 28.45 5.25 30.15 13.35 36.8 11.95 22.05 33.95 18.3 16 24.5 14.7 22.75 6.45 0 11.2 1.75 19.45 5.8 18.6 13.35 54.75 9.3 55.6 10.9 63.15 31.85 58.8 30.15 50.65 25.45 51.6 23.7 43.3 30.85 35.25 43.1 46.5 43.45 48.15 39.05 49.05 40.7 56.9 64.5 51.95 62.8 43.95 Z"/>
</g>

<g id="Graphics_Symbol_686_0_Layer2_0_FILL">
<path fill="#000000" stroke="none" d="
M 38.3 -83.95
Q 31.35 -89.35 8.3 -93.6
L 1.85 -93.75 -6.7 -93.15 -8.45 -92.95 -4.4 -92.6
Q -10.55 -92.3 -16.6 -90.55 -32.25 -85.95 -44.05 -74.45 -59.7 -59.15 -65.4 -37.9 -70.25 -19.75 -64.9 -1.9
L -63.95 1.05
Q -62.9 1.5 -61.75 2.2 -59.4 3.65 -57.35 5.55
L -57.65 5.1 -56.9 5.75
Q -47.45 14 -32.25 14
L -26.75 13.5 -25.95 13.35 -25.5 13.25 -24.6 13.05 -17.65 11.9 -17.5 11.7
Q -2.8 10.35 14.65 2.95 25.55 -1.6 35.35 -7 43.85 -9.75 53.9 -18.65 61.6 -25.4 63.45 -29.85
L 66.45 -32.95
Q 67.5 -46.25 66.95 -47.55
L 60.2 -60.25
Q 54.05 -71.6 38.3 -83.95
M 33.75 -9.6
L 21.75 -3.95
Q 14.3 -0.45 10.35 1.05
L 3.5 3.15
Q -1.45 4.55 -4.3 5.75 -6.65 6.75 -12.5 7.05
L -14.8 7.8
Q -24.6 11 -29.5 11
L -31.7 10.75 -32.5 10.75
Q -38.7 10.75 -47.25 6.9 -53.3 4.15 -56.75 1.55 -57.75 0.45 -61.85 -6.65
L -62.6 -7.8
Q -64.3 -16 -63.2 -24.3 -61.05 -40.65 -53.95 -55.7 -50.4 -63.2 -44.95 -69.75 -39.6 -76 -32.75 -80.65 -27.95 -83.95 -22.75 -86.5 -7.95 -93.65 14.75 -89 37.45 -84.4 54.2 -62.9 70.95 -41.45 53.35 -23.35
L 51.75 -21.8
Q 50.05 -20.35 48.15 -19.2
L 47.6 -17.8 47.15 -16.8 49.6 -18.2 46.9 -16.4
Q 46.4 -15.7 45.75 -15.35
L 41.75 -13.45
Q 38.2 -11.6 33.75 -9.6 Z"/>
</g>

<g id="Graphics_Symbol_686_0_Layer1_0_FILL">
<path fill="#000000" fill-opacity="0.25098039215686274" stroke="none" d="
M 58.1 -59.6
Q 51.75 -68.4 43.6 -75.8 21.55 -94 -7.3 -90.95 -20.05 -89.9 -31.1 -83.7 -37.2 -80.2 -42 -75 -67.2 -47.6 -63.4 -10.5 -62.7 -3.45 -58.45 2 -53.1 8.85 -39.05 11.4 -26.8 13.65 -15.65 8.65
L -10.6 7.55 -1.35 6.6 -1.1 5.35 -1.65 5.15
Q 7.4 3.75 20.5 -1.15 32.3 -5.65 42.05 -13.6
L 48 -15.3 48.5 -16.55
Q 51.95 -18.1 54.15 -21.25 59.9 -29.4 62.25 -39.55 64.75 -50.35 58.1 -59.6
M 12.1 -72.7
Q 21.15 -67.05 29 -59.65 42.05 -47.4 44.2 -30 41.85 -18.35 36.9 -13.25
L 28.85 -8.55
Q 20.1 -4.15 -2.75 2.1 -25.65 8.3 -40.85 -3.45 -50.2 -9.5 -50.7 -19.95 -51 -25.45 -50.3 -30.9 -49.3 -39.05 -45.95 -46.5 -39.5 -60.8 -25.6 -68 -11.55 -75.2 4.05 -75.05 8.45 -75 12.1 -72.7 Z"/>
</g>

<g id="Graphics_Symbol_686_0_Layer0_0_FILL">
<path fill="#B10101" stroke="none" d="
M 14.4 -58.7
L 17 -59.25
Q 18.45 -59.55 19.25 -60.8
L 19.2 -60.75
Q 20 -62 19.75 -63.4
L 17.95 -71.95
Q 17.65 -73.4 16.45 -74.15 15.2 -74.95 13.8 -74.65
L -11.35 -69.4
Q -12.75 -69.15 -13.55 -67.95
L -13.6 -67.85 -13.9 -67.3 -14.4 -67.7
Q -15.65 -68.5 -17.05 -68.2
L -39.8 -63.45
Q -41.2 -63.2 -42 -62
L -42.05 -61.95
Q -42.85 -60.7 -42.5 -59.25
L -42.5 -59.3 -40.75 -51.05
Q -40.5 -49.65 -39.25 -48.85
L -39.25 -48.9
Q -38.05 -48.1 -36.65 -48.35
L -36.6 -48.35 -36 -48.5 -29.85 -19.2 -30.5 -19.05 -30.45 -19.05
Q -31.9 -18.8 -32.7 -17.6
L -32.75 -17.55
Q -33.55 -16.3 -33.2 -14.85
L -33.2 -14.9 -31.6 -7.35
Q -31.35 -5.95 -30.1 -5.15
L -30.1 -5.2
Q -28.9 -4.4 -27.5 -4.65
L -6.55 -9
Q -5.15 -9.3 -4.3 -10.5
L -4.35 -10.5
Q -3.55 -11.75 -3.8 -13.15
L -5.5 -21.3
Q -5.8 -22.7 -7 -23.5 -8.25 -24.3 -9.65 -24
L -10.95 -23.75 -11.6 -26.95 -8 -31 -1.7 -25.25
Q -2.5 -24.85 -2.95 -24.1
L -2.95 -24.15
Q -3.75 -22.9 -3.45 -21.5
L -3.45 -21.45 -1.8 -13.6
Q -1.55 -12.2 -0.3 -11.4
L -0.3 -11.45
Q 0.9 -10.65 2.3 -10.9
L 26.1 -15.85
Q 27.5 -16.15 28.35 -17.35
L 28.35 -17.4
Q 29.15 -18.65 28.8 -20.05
L 28.85 -20 27.15 -28
Q 26.8 -29.45 25.65 -30.2 24.4 -31 23.05 -30.7
L 23 -30.7 21.15 -30.35 3.45 -44.5 14.4 -58.7
M 16.3 -62.7
L 12.4 -61.9 -1.4 -43.9 20.25 -26.6 23.7 -27.3 25.4 -19.3 1.6 -14.35 -0.05 -22.2 4.35 -23.1 4 -24.75 -8.25 -36 -15.4 -27.95 -13.65 -19.65 -8.95 -20.6 -7.25 -12.45 -28.2 -8.1 -29.8 -15.65 -25.75 -16.5 -33.3 -52.65 -37.35 -51.8 -39.1 -60.05 -16.35 -64.8 -14.6 -56.55 -20.8 -55.25 -17.05 -37.3 -2.3 -59.3 -8.95 -57.9 -10.65 -66 14.5 -71.25 16.3 -62.7
M -16.65 -52.55
L -13.85 -53.1 -13.9 -53.1
Q -12.5 -53.4 -11.7 -54.55
L -11.65 -54.65 -11.3 -55.3 -10.9 -55 -10.8 -54.9 -9.75 -54.45 -15.3 -46.15 -16.65 -52.55 Z"/>
</g>
</defs>

<g transform="matrix( 1, 0, 0, 1, 0,0) ">
<g transform="matrix( 1, 0, 0, 1, -39.1,-71.25) ">
<g transform="matrix( 1, 0, 0, 1, 0,0) ">
<use xlink:href="#Parts_Hats_hatColorMC_0_Layer0_0_FILL"/>
</g>
</g>

<g transform="matrix( 1, 0, 0, 1, 0,0) ">
<g transform="matrix( 1, 0, 0, 1, 0,0) ">
<use xlink:href="#Graphics_Symbol_686_0_Layer2_0_FILL"/>
</g>

<g transform="matrix( 1, 0, 0, 1, 0,0) ">
<use xlink:href="#Graphics_Symbol_686_0_Layer1_0_FILL"/>
</g>

<g transform="matrix( 1, 0, 0, 1, 0,0) ">
<use xlink:href="#Graphics_Symbol_686_0_Layer0_0_FILL"/>
</g>
</g>
</g>
</svg>
