<?xml version='1.0' encoding='utf-8'?>
<svg xmlns="http://www.w3.org/2000/svg" xmlns:xlink="http://www.w3.org/1999/xlink" version="1.1" width="550px" height="400px" viewBox="0 0 550 400" preserveAspectRatio="none" data-xfl-root="MovieClips/PR2_Graphics_1_Apr_2014_fla/Symbol 873">
  <g data-xfl-symbol="MovieClips/PR2_Graphics_1_Apr_2014_fla/Symbol 873">
    <g data-xfl-instance="anim">
      <g data-xfl-symbol="MovieClips/Symbol 872">
        <g transform="matrix(0 1 -1 0 5.35 146.05)" data-xfl-instance="fire2">
          <g data-xfl-symbol="MovieClips/Symbol 869">
            <g data-svg-leaf="movieclips_symbol_869_0f7d628e98/t00_l000_f0000_r00.svg">
              <defs>
                <radialGradient id="xfl1_Gradient_1" gradientUnits="userSpaceOnUse" cx="0" cy="0" r="107.80000000000001" fx="0" fy="0" gradientTransform="matrix( 0.9999999999999999, 0, 0, 0.9999999999999999, 0,0) " spreadMethod="pad">
                  <stop offset="0%" stop-color="#FFFFFF" />
                  <stop offset="100%" stop-color="#FFFFFF" stop-opacity="0" />
                </radialGradient>
                <linearGradient id="xfl1_Gradient_2" gradientUnits="userSpaceOnUse" x1="-108" y1="0" x2="108" y2="0" spreadMethod="pad">
                  <stop offset="0%" stop-color="#FFFFFF" stop-opacity="0" />
                  <stop offset="100%" stop-color="#FFFFFF" />
                </linearGradient>
                <g id="xfl1_Layer0_0_FILL">
                  <path fill="url(#xfl1_Gradient_1)" stroke="none" d=" M 75.65 -75.65 Q 44.3 -107 0 -107 -44.3 -107 -75.65 -75.65 -107 -44.3 -107 0 -107 44.3 -75.65 75.65 -44.3 107 0 107 44.3 107 75.65 75.65 107 44.3 107 0 107 -44.3 75.65 -75.65 Z" />
                </g>
                <path id="xfl1_Layer0_0_1_STROKES" stroke="url(#xfl1_Gradient_2)" stroke-width="2" stroke-linejoin="round" stroke-linecap="round" fill="none" d=" M 75.65 -75.65 Q 107 -44.3 107 0 107 44.3 75.65 75.65 44.3 107 0 107 -44.3 107 -75.65 75.65 -107 44.3 -107 0 -107 -44.3 -75.65 -75.65 -44.3 -107 0 -107 44.3 -107 75.65 -75.65 Z" />
              </defs>
              <g transform="matrix( 1, 0, 0, 1, 0,0) ">
                <use xlink:href="#xfl1_Layer0_0_FILL" />
                <use xlink:href="#xfl1_Layer0_0_1_STROKES" />
              </g>
            </g>
          </g>
        </g>
        <g transform="matrix(1 0 0 1 4 105.55)" data-xfl-instance="fire1">
          <g data-xfl-symbol="MovieClips/Symbol 871">
            <g data-svg-leaf="movieclips_symbol_871_f48f76552a/t00_l000_f0000_r00.svg">
              <defs>
                <radialGradient id="xfl2_Gradient_1" gradientUnits="userSpaceOnUse" cx="0" cy="0" r="48.6625" fx="0" fy="0" gradientTransform="matrix( 1, 0, 0, 2.623683534549191, -4,-53.65) " spreadMethod="pad">
                  <stop offset="0%" stop-color="#FFFFFF" />
                  <stop offset="100%" stop-color="#FFFFFF" stop-opacity="0" />
                </radialGradient>
                <g id="xfl2_Layer0_0_FILL">
                  <path fill="url(#xfl2_Gradient_1)" stroke="none" d=" M 26.5 -47.75 Q 15.55 -67.5 0 -67.5 -15.55 -67.5 -26.55 -47.75 -37.5 -27.95 -37.5 0 -37.5 27.95 -26.55 47.7 -15.55 67.5 0 67.5 15.55 67.5 26.5 47.7 37.5 27.95 37.5 0 37.5 -27.95 26.5 -47.75 Z" />
                </g>
              </defs>
              <g transform="matrix( 1, 0, 0, 1, 0,0) ">
                <use xlink:href="#xfl2_Layer0_0_FILL" />
              </g>
            </g>
          </g>
        </g>
        <g transform="matrix(1.9241943359 0 0 1.9241943359 1.3 0.15)">
          <g data-xfl-symbol="MovieClips/Symbol 867">
            <g data-xfl-symbol="Graphics/Symbol 866">
              <g data-svg-leaf="graphics_symbol_866_72607f57d2/t00_l002_f0000_r00.svg">
                <defs>
                  <g id="xfl3_Layer0_0_FILL">
                    <path fill="#666666" stroke="none" d=" M 18.35 17.3 L 11.25 24.45 18.8 24.75 18.35 17.3 M -7.3 25.35 L -3.75 25.35 -3.65 22.9 -7.3 25.35 M -13.95 19.35 L -17.8 19.85 -16.2 25.35 -10.2 25.35 -12.45 23.9 -13.5 25 -15.9 24.9 -13.95 19.35 M -13.85 -14.85 L -11.7 -12.05 -17.8 17.35 -16.3 15.7 Q -11.9 10.5 -10.5 14.25 L -6.15 10.45 -3 15 -11.85 23.2 -0.3 13.75 -1.4 17.55 -1.25 19.2 Q 2.4 13.95 5.25 12.5 L 5.25 14.25 7 13 Q 8.25 13.25 9.75 14.75 3.95 20.85 -1.15 25.3 L 3.15 25.3 Q 6.6 15.65 15.65 12.45 L 15.75 15.05 Q 16.9 13.65 17.7 13.2 16.55 5.2 14.65 -2.65 5.95 -38.35 -13.85 -14.85 M 5.25 25.25 L 6.75 24.75 6.35 24.55 5.25 25.25 Z" />
                    <path fill="#FFFF00" stroke="none" d=" M 19.95 14.65 L 19.7 12.95 17.7 13.2 Q 16.9 13.65 15.75 15.05 14.6 17.55 9.3 24.4 L 10.8 24.9 11.25 24.45 18.35 17.3 19.95 14.65 M -1.25 19.2 Q -1.35 21.45 -3.55 22.85 L -3.65 22.9 -3.75 25.35 -1.15 25.3 Q 3.95 20.85 9.75 14.75 8.25 13.25 7 13 L 5.25 14.25 5.25 12.5 Q 2.4 13.95 -1.25 19.2 M -10.5 14.25 Q -10.5 18.1 -13.95 19.35 L -15.9 24.9 -13.5 25 -12.45 23.9 -11.85 23.2 -3 15 -6.15 10.45 -10.5 14.25 Z" />
                    <path fill="#000000" stroke="none" d=" M -11.7 -12.05 L -13.85 -14.85 Q 5.95 -38.35 14.65 -2.65 16.55 5.2 17.7 13.2 L 19.7 12.95 Q 18.85 -10.75 2.4 -25.25 -2.15 -29.25 -6.85 -24.35 -22.1 -8.4 -20.75 14.75 L -20.6 20.2 -22.75 22.5 -21 21.2 -21.45 26.8 21.3 26.9 19.95 14.65 18.35 17.3 18.8 24.75 11.25 24.45 10.8 24.9 9.3 24.4 Q 14.6 17.55 15.75 15.05 L 15.65 12.45 Q 6.6 15.65 3.15 25.3 L -1.15 25.3 -3.75 25.35 -7.3 25.35 -3.65 22.9 -3.55 22.85 Q -1.35 21.45 -1.25 19.2 L -1.4 17.55 -0.3 13.75 -11.85 23.2 -12.45 23.9 -10.2 25.35 -16.2 25.35 -17.8 19.85 -13.95 19.35 Q -10.5 18.1 -10.5 14.25 -11.9 10.5 -16.3 15.7 L -17.8 17.35 -11.7 -12.05 M 6.75 24.75 L 5.25 25.25 6.35 24.55 6.75 24.75 Z" />
                  </g>
                </defs>
                <g transform="matrix( 1, 0, 0, 1, 0,0) ">
                  <use xlink:href="#xfl3_Layer0_0_FILL" />
                </g>
              </g>
              <g data-svg-leaf="graphics_symbol_866_72607f57d2/t00_l001_f0000_r00.svg">
                <defs>
                  <g id="xfl4_Layer0_0_FILL">
                    <path fill="#000000" fill-opacity="0.25098039215686274" stroke="none" d=" M 7.05 -16.65 Q -6.15 -36.9 -14.3 -14.65 -22.95 8.95 -11.05 25.4 -10.15 26.65 -8.35 26.55 L 0.15 26.9 -2.2 26.5 14.25 25 11.05 26.4 20.5 25.75 21.4 23.55 Q 18.95 1.6 7.05 -16.65 M -10.65 -1.7 Q -7.6 -14.7 1.75 -20.5 10.5 -6.8 11.4 10.75 11.55 13.65 12 16.5 5.6 18.55 -1.3 17.5 L -6.9 16.65 Q -8.45 16.1 -9.5 14.7 -12.55 6.4 -10.65 -1.7 Z" />
                  </g>
                </defs>
                <g transform="matrix( 1, 0, 0, 1, 0,0) ">
                  <use xlink:href="#xfl4_Layer0_0_FILL" />
                </g>
              </g>
              <g data-svg-leaf="graphics_symbol_866_72607f57d2/t00_l000_f0000_r00.svg">
                <defs>
                  <g id="xfl5_Layer0_0_FILL">
                    <path fill="#FFFFFF" fill-opacity="0.25098039215686274" stroke="none" d=" M 2.5 -22.25 L 0.5 -22 Q 1.1 -20.2 -0.1 -19.6 -1.5 -18.9 -1.5 -17.35 -1.5 -15.25 3.9 -4.9 9.2 5.15 10.75 6.5 L 11.5 5.25 Q 10.5 2.8 6.95 -11.4 4.25 -22.25 2.5 -22.25 Z" />
                  </g>
                </defs>
                <g transform="matrix( 1, 0, 0, 1, 0,0) ">
                  <use xlink:href="#xfl5_Layer0_0_FILL" />
                </g>
              </g>
            </g>
          </g>
        </g>
      </g>
    </g>
  </g>
</svg>