
<svg xmlns="http://www.w3.org/2000/svg" version="1.1" xmlns:xlink="http://www.w3.org/1999/xlink" preserveAspectRatio="none" x="0px" y="0px" width="550px" height="400px" viewBox="0 0 550 400">
<defs>
<g id="Layer0_0_FILL">
<path fill="#8CCB2C" stroke="none" d="
M 197.95 24.65
Q 195.7 18.25 190.3 14.4 172.9 2.15 155.1 14.2
L 154.55 14.35 145.75 11.15
Q 139.55 23.45 144.05 36.5
L 140.1 41.35
Q 140.15 37.55 138.05 34.75
L 138 33.8 136.9 33.45 134 31.2 134.25 31.05 133.8 31.05
Q 122.4 23.4 111.75 36.5
L 111.55 36.65 111.6 36.5
Q 112.5 27.55 104.6 23.55
L 103.6 23 99.7 6.6 101.75 6.55 98.85 5.15 96.5 0.1
Q 87.65 -0.4 82.6 7
L 84.4 11.1
Q 75.15 11.3 71.7 19.45 63.05 4.6 52.45 17.85
L 51.15 15.25
Q 32 16.3 28.6 41.45
L 28.15 41.35
Q 16.3 39.6 10.9 50.3 8.1 50.3 6.15 52.4 4.1 54.4 4.1 57.25
L 0.55 61.15 0.8 62.15
Q -2.45 72.75 7.65 76.65 9.2 78.9 11.35 80.6
L 7.3 84.8
Q 12.6 91.3 20.4 95.2
L 29.4 102.05
Q 32.5 106.6 36.45 110.4 52.95 126.1 75.6 127.35 94.2 128.8 108.4 116.65
L 121.5 120.8
Q 124.6 125.65 129.3 128.65 135.45 132.55 142.05 129.2 176.15 139.3 208.05 124.8
L 207.2 118.9
Q 210.65 117.9 213.05 115.35 224.9 102.5 221.3 86 230 77.25 227.1 65.1 220.85 38.9 197.95 24.65
M 123.7 33.05
Q 124.7 30.65 124 33.2
L 123.7 33.05
M 117.4 110.6
Q 118.55 108.2 118.5 110.7
L 117.4 110.6 Z"/>
</g>
</defs>

<g transform="matrix( 1, 0, 0, 1, 0,0) ">
<use xlink:href="#Layer0_0_FILL"/>
</g>
</svg>
