
<svg xmlns="http://www.w3.org/2000/svg" version="1.1" xmlns:xlink="http://www.w3.org/1999/xlink" preserveAspectRatio="none" x="0px" y="0px" width="550px" height="400px" viewBox="0 0 550 400">
<defs>
<g id="Layer0_0_FILL">
<path fill="#9CE828" stroke="none" d="
M 94.5 105.8
L 91 103.25 80.75 115.3 90.95 108.25 93.9 111.5 110.6 105.65 109.9 98.1 94.5 105.8
M 75 91.5
Q 69.6 84.2 58 83.25
L 53.3 68.95 54.9 84.5 75 91.5
M 34.6 77.55
L 27.55 73.3 32.05 65.35 23.8 74.4 31 78.25 27.9 87.4 37 93.45 36.15 102.9 64.75 109.2
Q 58.75 100.35 42.1 101.4 41.4 101.25 40.75 100.7
L 41.7 93.25 32.15 86.35 34.6 77.55
M 58.55 34.55
L 52 29.75 49.75 36.35 40.8 29.9
Q 39.35 33.7 38.15 37.55 37 41.45 36.85 45.45 36.65 49.75 38.55 53.65
L 41.85 35.3 51.3 41.25 54.45 36.2 59.6 39.45 63 35.65 67.25 36.4 88.25 22.6 79.75 20.85 73.3 28.1 68.75 25.95 64.75 31 60.25 30.05 58.55 34.55
M 146.1 74.25
L 151.85 64.5 151.05 60.9 137.95 72.2 143.6 69.25 131.75 82.05 146.1 74.25
M 98.25 82
Q 104.65 88.5 115.85 91.5 126 94.2 136.6 94 147.2 93.85 156.35 91.1 148.85 87.35 137 89.05 124.5 90.55 112.35 86.6
L 98.25 82
M 81.8 63.15
Q 89.2 56.1 99 51.7 105.5 48.85 113.15 50.55
L 125.55 51
Q 121.4 44.2 103.75 44.8 89 45.9 83 58.25
L 81.1 54.85
Q 71.25 54.85 68.95 65.55 68.75 66.35 69.15 67.2
L 73.15 67.05 78.65 58 81.8 63.15
M 111.45 69.25
L 101.25 63.25 91.6 74.45 103.05 66.25 109.3 73.05 120.85 68.5 131.2 77.15 121 64.75 111.45 69.25
M 181.25 133.6
Q 182.7 133.45 184.05 132.65 169.3 120.95 148.3 120.1
L 145 108.95 138.9 116.95 143.6 112.6
Q 142.4 122.1 151.15 124.15
L 162 126.7
Q 169.7 135.45 181.25 133.6
M 194.6 67.05
L 200.2 75.15
Q 200.15 88.4 195.65 100.4 193 107.6 198.55 110.55
L 205.4 75.15 200 67 207.2 57.4 199.95 45.85 202.75 56 194.6 67.05
M 185.25 66.25
L 179.7 52.85 176.5 55.5 181.6 66.75 172.4 77.9 178.35 88.9 166.6 100.95
Q 178.4 103.1 183.2 88.85
L 176 79.35 185.25 66.25
M 180.8 23.75
L 175.6 29.05 168.6 33.95 164 25.7
Q 160.1 43.95 143.15 43.55 137.55 43.45 136.35 48.35
L 138.55 49.9 140.35 47.9
Q 157.75 52.2 162.65 36.2
L 163.35 33.25 166.45 38.05
Q 175.85 37.75 181.4 29 190.85 42.55 203.05 36.2
L 180.8 23.75
M 166.3 14.2
L 172.65 14.85
Q 166.45 6.3 152.3 14.05 150.35 15.05 148.6 16.35
L 145.55 16.2
Q 141.15 23.05 144.9 29.85
L 146.9 21.35 149.2 21.05
Q 154.8 10.45 166.3 14.2 Z"/>
</g>
</defs>

<g transform="matrix( 1, 0, 0, 1, 0,0) ">
<use xlink:href="#Layer0_0_FILL"/>
</g>
</svg>
