
<svg xmlns="http://www.w3.org/2000/svg" version="1.1" xmlns:xlink="http://www.w3.org/1999/xlink" preserveAspectRatio="none" x="0px" y="0px" width="550px" height="400px" viewBox="0 0 550 400">
<defs>
<g id="Layer0_0_FILL">
<path fill="#000000" fill-opacity="0.25098039215686274" stroke="none" d="
M 113.05 141.3
L 110.45 141.2 109.65 146.05 109.4 149.45 113.05 141.3
M 132.85 66.3
L 132.1 83.7 126 92.05 134.45 87.85 132.85 66.3
M 154.8 70
Q 154.2 60.35 144.9 56.35
L 151.95 68.8 148 76.05 154.8 70
M 109.6 36.2
L 110.9 34.95
Q 109.25 29.45 104.4 28.6 107.3 35.6 109.6 36.2
M 93 4.75
L 91.65 4.9
Q 92.6 6.25 99 23 100.05 6.25 93 4.75
M 138 45.35
Q 142.05 33.6 129.9 30.25
L 138 45.35
M 172.9 101.6
L 174 105.25 183.15 92.35 172.9 101.6
M 166.75 62.6
Q 165.75 64.2 165.75 66.5 165.75 68.8 166.75 70.4 167.7 72 169.1 72 170.5 72 171.5 70.4 172.45 68.8 172.45 66.5 172.45 64.2 171.5 62.6 170.5 61 169.1 61 167.7 61 166.75 62.6
M 179.3 55.6
Q 180.25 57.85 182 56.35
L 178.05 47.6
Q 177.2 50.7 179.3 55.6
M 189.55 33.7
L 184.75 30.75 188.65 36.25 189.55 33.7
M 162.25 42.25
L 162.25 32.85 158.85 32.85 158.85 42.25 162.25 42.25
M 219.65 43.3
Q 215.4 33.2 205.55 28.1 195.95 23.05 189.7 14.3
L 190.05 19.95 195.7 24.8 196.9 33.65 194.6 37.65 202.6 48.5 198.7 56.85 202.15 64.5 193.4 77.75 195.7 47.3 184.9 81.95 186.9 86.15 191.5 81.6 200.5 88.5 187.3 108.8 185 109.25 178.45 116.2 175 116.75 172 109.4 159.9 120.5 155.15 110.8 161.4 106 148.35 112.2 138.35 106.95 142.75 100.8 124.5 109.35 102.6 102.45 100.45 105.15 94.8 105.15 94.05 110.1 84.6 113.25 78.2 110.9
Q 75.15 116.5 69.05 118.5 60.55 121.3 53.35 120.35 59.85 126.1 72.85 126.75 89.85 128.35 105.45 121.05
L 114.45 130.3 110.8 172.8 121.05 125.4 116.65 125.65 115.35 128.15 109.85 119.65 117.65 121.9
Q 125.5 124.3 133.25 127 142.65 130.25 152.3 132.55 161.3 134.7 170.45 134.9 181.05 135.1 191.15 131.8 201.75 128.4 209.5 120.5 216.6 113.25 220.35 103.85 224.35 93.9 224.8 83.2 225.3 72.35 224.25 61.5 223.35 52.05 219.65 43.3
M 203.35 94.05
L 208.5 98.6
Q 203.1 103.9 195.5 100.7 198.15 93.4 203.35 94.05
M 191.15 107.25
L 191.4 110.8 188.65 111.75 191.15 107.25 Z"/>

<path fill="#FFFFFF" fill-opacity="0.25098039215686274" stroke="none" d="
M 109.65 146.05
L 109.5 130.65 107.6 167.5 109.4 149.45 109.65 146.05
M 58.65 71.5
L 58.65 75.3 63.7 75.3
Q 60 73.55 58.65 71.5
M 61.9 96.4
L 64.85 88.6 60.6 91.55 61.7 106.65 65.1 104.75 61.9 96.4
M 58.65 60.9
L 58.65 66.3
Q 60 63.8 63.7 60.9
L 58.65 60.9
M 71.35 38.5
L 77.5 35
Q 48.85 44.15 43.05 68.05
L 82.25 34.6 71.35 38.5
M 86.3 76
L 89.25 78
Q 92.6 87.45 102.35 90
L 104.8 90.6 88.65 68.05 86.3 76
M 86.1 96.55
L 83 82.25 78.6 90.05 84.5 100.35 86.1 96.55
M 96.05 62.55
L 101 63 106.95 56.1
Q 101.7 59 96.05 62.55
M 121.4 57.05
L 112.45 53.1 107.1 56 121.4 57.05
M 113.05 38.95
L 113 41.5 127.5 32 110.9 34.95 109.6 36.2 113.05 38.95
M 101 35.5
Q 89.55 32.7 86.7 43.5
L 86.8 43.5 101 35.5
M 91.65 4.9
L 93 4.75
Q 93.75 4.55 94.35 4
L 91.9 2.55 87.3 1.85 85.1 9.55 77.45 13.75 74.55 18.4 69.6 18.7 64.65 12.95
Q 57 11.25 53.25 17.3
L 49.95 15.55
Q 33.7 18.4 31.55 36.6
L 30.8 38.8
Q 8.45 47.15 2.9 56.4 -2.65 65.6 6.7 76.3
L 12.5 83.1 8.2 84.7 42.1 114.05 42.5 105.85 50.55 97.7 49.1 93.35 52.1 88.8 35.45 90.8 34.75 86.3 51.6 77.45 30.35 73.5 36.1 70.8 24.65 54.85 29.7 54.7 35.75 48.35
Q 43.05 55.65 50 49.45 48.8 46.6 51 45.15
L 51.6 40.35 61.55 37.35 57.15 31.8
Q 67.6 26.3 81.6 31.5
L 82.05 31.45 82.6 26.45 92.4 20.8 88.2 4.9 91.65 4.9
M 190.05 19.95
L 189.7 14.3
Q 182.25 5.15 170.4 6.75 159.65 8.05 149.9 12.85 140.05 17.85 141.8 28.75 142.8 35.2 145.55 41.05
L 161.8 43.95 162.85 42.05 165.1 42.75 173.4 37.25 163.5 24.55 168 26.85 172 23.6 185.45 26.2 190.05 19.95
M 162.25 32.85
L 162.25 42.25 158.85 42.25 158.85 32.85 162.25 32.85 Z"/>
</g>
</defs>

<g transform="matrix( 1, 0, 0, 1, 0,0) ">
<use xlink:href="#Layer0_0_FILL"/>
</g>
</svg>
