
<svg xmlns="http://www.w3.org/2000/svg" version="1.1" xmlns:xlink="http://www.w3.org/1999/xlink" preserveAspectRatio="none" x="0px" y="0px" width="550px" height="400px" viewBox="0 0 550 400">
<defs>
<g id="Layer0_0_FILL">
<path fill="#010101" stroke="none" d="
M 54.65 11.2
Q 54.25 10.75 52.3 8.8 49.65 6.4 47.35 5 41.9 1.5 35.25 0.4 28.15 -0.75 21.25 1.3 13.25 3.7 11.2 8.65 10.9 9.35 11.4 10.45 11.9 11.6 12.65 11
L 12.8 10.9
Q 14.3 10.1 15.75 9.9 16.6 9.65 18.25 8.85
L 19.85 8.35
Q 18.2 9.1 16.4 10.25 11.65 13.5 8.35 17.85 4.6 22.55 2.6 29 0.8 34.75 0.5 41.4 0.45 42.8 0.55 45.7
L 0.35 46.45 0 52.3
Q 0 53.15 0.35 53.8 0.75 60.6 2.5 66.85
L 3.3 69.55
Q 3.1 69.1 2.6 68.95 2.1 68.85 1.65 69.1
L 1.6 69.1
Q 0.25 70.35 0.75 72.05 3.3 82 10.65 90.65 17.7 98.9 27.3 103.7 37.7 108.9 48.3 108.75 60.65 108.55 67.5 100.55 71.85 95.45 73.8 89.15 76.4 81.75 76.8 73.75 76.95 72 75.35 71 74.7 70.75 74.05 71.25 73.45 71.65 73.25 72.4
L 73.05 73.1
Q 73.05 73.7 72.85 74.15
L 72.75 74.4
Q 72.5 75.5 71.9 79.4 71.35 82.5 70.85 84.35 69.5 89.6 66.55 94.2 62.2 100.35 54.9 102.05 56.85 99.95 57.15 95.15 57.6 87.35 57.65 86.95 58.2 79.3 58.4 75.6 58.75 69.05 55.85 66.5 47.45 67.4 34.15 70.4 12.4 75.3 12.1 75.35 10 71.65 8.8 67.45 7.35 61.9 6.6 56.4
L 5.75 50.85
Q 5.6 48.9 5.45 47.85 5.2 45.95 4.55 45 5.1 44.5 5.4 43.5 5.5 43.2 5.75 41.8
L 6.6 37.85
Q 7.4 33.75 8.65 30.4 10.75 23.8 16.1 19.1 21.25 14.95 27.85 14.35 35.05 13.85 41.5 17.4 45.45 19.55 48.75 21.9 49.45 22.35 52.3 24.6 54.5 26.35 56 27.15 56.55 27.45 57.15 26.95 57.6 26.55 57.8 25.95 58.4 24.45 57.5 22.95
L 57.35 22.8
Q 56.9 21.4 55.8 20.3 56.35 19.25 56.1 18.1
L 55.85 17.35 56.3 16.75
Q 56.9 15.45 56.4 14 56 12.75 54.65 11.2
M 18.05 83.7
Q 17.3 82 15.95 80.7 18.9 78.2 26.65 76.9 36.7 75.25 37.65 74.9 45.8 72.95 49.2 72.7 52.9 72.4 54.1 73.9 55.1 75.15 54.95 78.9 54.8 81.25 54.3 88.15 53.8 89.5 54 94.35 53.75 98.55 50.95 98.9 42.35 98.7 33 94.3 24.05 90.05 18.05 83.7
M 30.2 98.45
Q 22.6 94.85 16.45 89 22.9 94.1 30.2 98.45 Z"/>
</g>
</defs>

<g transform="matrix( 1, 0, 0, 1, 0,0) ">
<use xlink:href="#Layer0_0_FILL"/>
</g>
</svg>
