
<svg xmlns="http://www.w3.org/2000/svg" version="1.1" xmlns:xlink="http://www.w3.org/1999/xlink" preserveAspectRatio="none" x="0px" y="0px" width="550px" height="400px" viewBox="0 0 550 400">
<defs>
<g id="MovieClips_Symbol_346_0_Layer0_0_FILL">
<path fill="#A2BF26" stroke="none" d="
M 95.25 122.25
L 92.7 123.2
Q 89.5 133.75 90.45 144.5
L 92.45 144.5 93.85 140.75 95.45 128.1 95.25 122.25
M 6.9 112.35
L 3.25 106.5 8.5 121.25 8.75 119 6.9 112.35
M 53.6 121.3
L 53.55 122.25
Q 57.8 101 67.25 80 56.75 99.45 53.6 121.3
M 53.3 109.7
Q 50.35 125.35 50.05 141.4 50.05 142.75 51 143.75
L 53.3 109.7
M 55.25 63
Q 46.85 74.7 45.75 89.85
L 36.65 138.6 55.25 63
M 70.25 98.95
Q 71.2 93.4 70.25 88 66.1 108.35 63.75 130.7 63.3 135.1 64 139.5 66.85 119.3 70.25 98.95
M 63.7 61.25
Q 64.1 60.85 64.75 60.75 74.15 28.6 90.2 0 70.6 26.95 63 59.9 62.95 61.8 63.7 61.25
M 74.65 51.7
L 69.65 64.6
Q 80.55 41.1 91.2 16 78.75 31.65 74.65 51.7
M 30.25 28
L 28.7 32.05 27.35 19.75 27.6 17.95
Q 21.3 39.05 38.5 58.35
L 40.5 60.25 39.7 58.65
Q 46.6 62.2 54.5 60.5 28.45 56.9 30.25 28
M 40.45 41.85
L 38.85 39.8
Q 44.15 51 51.85 51 54.35 51 55 50.25 44.85 46.6 40.45 41.85
M 36.65 34.45
Q 35.65 27.2 35.75 19.9 35.85 14.4 33.5 9.5
L 32 9.95 36.65 34.45
M 74.35 11.3
L 77.25 7.75
Q 65.45 15.9 60.3 29.35
L 57.25 38
Q 64 25.6 74.35 11.3
M 106.9 58.65
L 109.2 47
Q 103.6 68.25 87.95 81.3 82 86.3 73.7 85.2 72.25 84.95 71.1 85.75
L 71.4 90
Q 73 90.95 72.3 88.8
L 72.3 88.4 74 86
Q 100.35 92.1 106.9 58.65
M 111.2 37.75
L 104.1 47.1
Q 97.55 70.6 74.95 75.4 69.15 76.65 63.15 76.9
L 64.25 75 62.75 76.9
Q 62 76.95 61.45 77.35
L 61.5 77.75 58.4 86.8 62.55 77.9
Q 101.45 77.1 111.2 37.75 Z"/>
</g>
</defs>

<g transform="matrix( 1, 0, 0, 1, -33.5,-72.6) ">
<g transform="matrix( -3.04296875, -0.546234130859375, -0.490509033203125, 2.7325286865234375, 271.1,-149.05) ">
<g transform="matrix( 1, 0, 0, 1, 0,0) ">
<use xlink:href="#MovieClips_Symbol_346_0_Layer0_0_FILL"/>
</g>
</g>
</g>
</svg>
