
<svg xmlns="http://www.w3.org/2000/svg" version="1.1" xmlns:xlink="http://www.w3.org/1999/xlink" preserveAspectRatio="none" x="0px" y="0px" width="550px" height="400px" viewBox="0 0 550 400">
<defs>
<g id="Parts_Heads_headColorMC2_16_Layer3_0_FILL">
<path fill="#000000" stroke="none" d="
M 126.4 96.2
Q 124.8 73.65 107.7 58.9 90 43.65 67.1 47.8 44.95 51.85 31.95 70.05 19.4 87.6 20.8 109.25 22.25 131.4 38.5 146.15 55.05 161.15 77.55 158.2 100.3 154.9 114.25 136.45 127.65 118.8 126.4 96.2
M 91.45 57.55
L 94.6 58.25
Q 113.35 69.95 116.85 91.65 120.45 113.9 107.15 131.85 93.55 150.1 71 150.1 46.85 150.05 35.6 129.3 24.7 109.25 35.8 89.7 47.1 69.9 69.1 64.3
L 68.1 62.5 45.55 66.5
Q 66.85 52.95 91.45 57.55 Z"/>
</g>
</defs>

<g transform="matrix( 1, 0, 0, 1, -62.75,-76.85) ">
<g transform="matrix( 1, 0, 0, 1, 0,0) ">
<use xlink:href="#Parts_Heads_headColorMC2_16_Layer3_0_FILL"/>
</g>
</g>
</svg>
