
<svg xmlns="http://www.w3.org/2000/svg" version="1.1" xmlns:xlink="http://www.w3.org/1999/xlink" preserveAspectRatio="none" x="0px" y="0px" width="550px" height="400px" viewBox="0 0 550 400">
<defs>
<linearGradient id="Gradient_1" gradientUnits="userSpaceOnUse" x1="137" y1="22" x2="137" y2="0" spreadMethod="pad">
<stop  offset="0%" stop-color="#585F63" stop-opacity="0.2980392156862745"/>

<stop  offset="100%" stop-color="#B7BABC" stop-opacity="0.2980392156862745"/>
</linearGradient>

<linearGradient id="Gradient_2" gradientUnits="userSpaceOnUse" x1="125.65" y1="30.95" x2="125.65" y2="0.9499999999999993" spreadMethod="pad">
<stop  offset="0%" stop-color="#585F63" stop-opacity="0.2980392156862745"/>

<stop  offset="100%" stop-color="#B7BABC" stop-opacity="0.2980392156862745"/>
</linearGradient>

<g id="Layer0_0_FILL">
<path fill="url(#Gradient_1)" stroke="none" d="
M 144 22
Q 148 22 148 18
L 148 4
Q 148 0 144 0
L 4 0
Q 0 0 0 4
L 0 18
Q 0 22 4 22
L 144 22
M 147 4
L 147 18
Q 147 20.93671875 144.1 21
L 3.85 21
Q 1 20.93671875 1 18
L 1 4
Q 1 1.06328125 3.85 1
L 144.1 1
Q 147 1.06328125 147 4 Z"/>
</g>

<g id="Layer0_1_FILL">
<path fill="url(#Gradient_2)" stroke="none" d="
M 125 1
L 125 21 126 21 126 1 125 1 Z"/>
</g>
</defs>

<g transform="matrix( 1, 0, 0, 1, 0,0) ">
<use xlink:href="#Layer0_0_FILL"/>
</g>

<g transform="matrix( 1, 0, 0, 1, 0,0) ">
<use xlink:href="#Layer0_1_FILL"/>
</g>
</svg>
