
<svg xmlns="http://www.w3.org/2000/svg" version="1.1" xmlns:xlink="http://www.w3.org/1999/xlink" preserveAspectRatio="none" x="0px" y="0px" width="550px" height="400px" viewBox="0 0 550 400">
<defs>
<g id="Graphics_Symbol_602_0_Layer0_0_FILL">
<path fill="#3F3F3F" stroke="none" d="
M 45.7 5.15
L 49.05 19.7
Q 51 30 50.75 32.15 50.65 33.05 44.65 35.85 37.55 39.25 31.95 38.4 29.15 37.95 27.7 33.15 25.6 26.75 25 11.15
L 23.15 12.95
Q 22.8 15.45 23.7 24.3 24.55 33.1 24.05 36.8 23.55 41.05 12.5 39.4 11 39.15 4.55 36.5
L 3.05 36.6 1.85 36.7
Q 1.6 38.65 0.25 43 -0.8 46.55 -1.4 51.9 -5.15 80.4 -2.25 89.8 0.9 99.9 15.25 102.1 31.45 104.6 48.8 93.45 54.55 89.7 59.35 85.25 63.2 81.6 63.35 80.8 65.3 65.2 65.5 58.95 66 42.95 61.95 25.5
L 58.5 27.9
Q 55.95 29.65 54.65 29.45 52.5 29.1 50.25 17.6 49.15 11.85 48.35 5.45
L 45.7 5.15 Z"/>
</g>
</defs>

<g transform="matrix( 1, 0, 0, 1, -33.5,-72.6) ">
<g transform="matrix( 1, 0, 0, 1, 0,0) ">
<g transform="matrix( 1, 0, 0, 1, 0,0) ">
<use xlink:href="#Graphics_Symbol_602_0_Layer0_0_FILL"/>
</g>
</g>
</g>
</svg>
