
<svg xmlns="http://www.w3.org/2000/svg" version="1.1" xmlns:xlink="http://www.w3.org/1999/xlink" preserveAspectRatio="none" x="0px" y="0px" width="550px" height="400px" viewBox="0 0 550 400">
<defs>
<g id="Layer0_0_FILL">
<path fill="#000000" stroke="none" d="
M 20.35 1.15
L 20.25 1.05
Q 20.1 0.7 19.8 0.45 19.35 0.05 18.85 0 18.35 -0.05 17.85 0.1
L 17.3 0.45
Q 16.95 0.8 16.9 1.2 15.6 1.35 14.4 1.65 9.35 2.75 4.7 5.2 4.4 5.35 4.25 6.2
L 0.5 5.8
Q 0 5.75 0 8.25 -0.05 10.7 0.65 10.8
L 15.25 13.05
Q 16.75 13.25 17.1 13.2 18.15 13.15 18.75 12.55 19.9 11.1 20.05 9.35 20.55 7.25 20.3 4.75 20.446875 4.7009765625 20.45 4.55
L 20.45 4.65
Q 20.5 4.7 20.65 4.9
L 20.7 4.9
Q 20.8 4.9 20.9 4.7
L 21 4.15
Q 21.1 3.15 20.95 2.4
L 20.75 1.65
Q 20.55 1.25 20.35 1.15 Z"/>
</g>
</defs>

<g transform="matrix( 1, 0, 0, 1, 0,0) ">
<use xlink:href="#Layer0_0_FILL"/>
</g>
</svg>
