
<svg xmlns="http://www.w3.org/2000/svg" version="1.1" xmlns:xlink="http://www.w3.org/1999/xlink" preserveAspectRatio="none" x="0px" y="0px" width="550px" height="400px" viewBox="0 0 550 400">
<defs>
<g id="Layer0_0_FILL">
<path fill="#010101" stroke="none" d="
M 3.65 2.8
Q 4.2 1.85 3.95 0.75 3.85 -0.1 3.25 0.05 2.7 0.15 2.7 1.05
L 2.65 1.2 2.65 1.3 2.6 1.4 2.6 1.45 2.5 1.6 2.45 1.65 2.35 1.8 2.3 1.9 2.1 2.1 2 2.15 1.95 2.2 1.6 2.35 1.5 2.35 1.1 2.5 0.6 2.6
Q 0.4 2.6 0.15 2.45 0 2.4 0 2.6 -0.05 2.75 0 2.85 0.35 3.35 1.1 3.8 1.45 4 1.85 4 2.25 4 2.55 3.85 3.35 3.55 3.65 2.8 Z"/>
</g>
</defs>

<g transform="matrix( 1, 0, 0, 1, 0,0) ">
<use xlink:href="#Layer0_0_FILL"/>
</g>
</svg>
