
<svg xmlns="http://www.w3.org/2000/svg" version="1.1" xmlns:xlink="http://www.w3.org/1999/xlink" preserveAspectRatio="none" x="0px" y="0px" width="550px" height="400px" viewBox="0 0 550 400">
<defs>
<g id="Layer0_0_FILL">
<path fill="#000000" fill-opacity="0.25098039215686274" stroke="none" d="
M 58.1 -59.6
Q 51.75 -68.4 43.6 -75.8 21.55 -94 -7.3 -90.95 -20.05 -89.9 -31.1 -83.7 -37.2 -80.2 -42 -75 -67.2 -47.6 -63.4 -10.5 -62.7 -3.45 -58.45 2 -53.1 8.85 -39.05 11.4 -26.8 13.65 -15.65 8.65
L -10.6 7.55 -1.35 6.6 -1.1 5.35 -1.65 5.15
Q 7.4 3.75 20.5 -1.15 32.3 -5.65 42.05 -13.6
L 48 -15.3 48.5 -16.55
Q 51.95 -18.1 54.15 -21.25 59.9 -29.4 62.25 -39.55 64.75 -50.35 58.1 -59.6
M 4.05 -75.05
Q 8.45 -75 12.1 -72.7 21.15 -67.05 29 -59.65 42.05 -47.4 44.2 -30 41.85 -18.35 36.9 -13.25
L 28.85 -8.55
Q 20.1 -4.15 -2.75 2.1 -25.65 8.3 -40.85 -3.45 -50.2 -9.5 -50.7 -19.95 -51 -25.45 -50.3 -30.9 -49.3 -39.05 -45.95 -46.5 -39.5 -60.8 -25.6 -68 -11.55 -75.2 4.05 -75.05 Z"/>
</g>
</defs>

<g transform="matrix( 1, 0, 0, 1, 0,0) ">
<use xlink:href="#Layer0_0_FILL"/>
</g>
</svg>
