
<svg xmlns="http://www.w3.org/2000/svg" version="1.1" xmlns:xlink="http://www.w3.org/1999/xlink" preserveAspectRatio="none" x="0px" y="0px" width="550px" height="400px" viewBox="0 0 550 400">
<defs>
<linearGradient id="Gradient_1" gradientUnits="userSpaceOnUse" x1="146" y1="-132.3125" x2="169.10000000000002" y2="-68.7875" spreadMethod="pad">
<stop  offset="0%" stop-color="#B0D077"/>

<stop  offset="100%" stop-color="#429D04"/>
</linearGradient>

<linearGradient id="Gradient_2" gradientUnits="userSpaceOnUse" x1="144.6" y1="-136.16250000000002" x2="167.70000000000002" y2="-72.6375" spreadMethod="pad">
<stop  offset="0%" stop-color="#B0D077"/>

<stop  offset="100%" stop-color="#429D04"/>
</linearGradient>

<g id="Layer0_0_FILL">
<path fill="#61AB25" stroke="none" d="
M -44.5 -20.55
L -45.35 -19.7
Q -45.85 -18.75 -45.55 -17.9
L -44.5 -15.1
Q -44.2 -14.25 -43.2 -13.85 -42.35 -13.5 -41.45 -13.85
L -36.45 -15.65 -36.35 -15.7
Q -35.5 -16.05 -35 -16.8 -34.55 -17.75 -34.85 -18.6
L -35.9 -21.4
Q -36.2 -22.25 -37.15 -22.65
L -37.2 -22.65
Q -38.15 -23 -39 -22.65
L -41 -21.9 -43.55 -21 -44 -20.85 -44.2 -20.75 -44.5 -20.55 Z"/>

<path fill="#FFFFFF" fill-opacity="0.5019607843137255" stroke="none" d="
M -44.2 -20.75
L -44.75 -20.55 -44.95 -20.5 -45.1 -20.4
Q -46.5 -19.45 -45.9 -17.75
L -45.55 -17.15 -45.75 -17.6
Q -46.1 -18.4 -45.7 -19.25
L -45.75 -19.35
Q -45.5 -20.15 -44.6 -20.55
L -44.5 -20.55 -44.2 -20.75
M -41.05 -21.9
L -41 -21.9 -39 -22.65
Q -38.15 -23 -37.2 -22.65
L -37.7 -22.85 -38.5 -22.85 -41.05 -21.9 Z"/>

<path fill="url(#Gradient_1)" stroke="none" d="
M -41.05 -21.9
L -41.8 -21.75 -43.55 -21 -41 -21.9 -41.05 -21.9
M 0.75 -14.2
Q 5 -23.1 1 -34.75
L -0.35 -38.4 -0.7 -38.85 -1.3 -38.85 -6.5 -36.95 -6.8 -36.6 -6.95 -36.05 -6.95 -36 -6.05 -32.3 -6.05 -32.25
Q -3.2 -23.75 -5.95 -17.35 -8.5 -11.95 -13.75 -9.4
L -15.8 -8.45
Q -22.6 -6 -29 -8.95 -33.35 -11.15 -36.35 -15.7
L -36.45 -15.65 -41.45 -13.85
Q -42.35 -13.5 -43.2 -13.85 -44.2 -14.25 -44.5 -15.1
L -45.55 -17.9
Q -45.85 -18.75 -45.35 -19.7
L -44.5 -20.55 -44.6 -20.55
Q -45.5 -20.15 -45.75 -19.35
L -45.7 -19.25
Q -46.1 -18.4 -45.75 -17.6
L -45.55 -17.15
Q -40.95 -6.05 -32.15 -2.25 -22.8 2.1 -13.2 -1.4
L -12.4 -1.7 -12.2 -1.75 -12.15 -1.8 -11.9 -1.85 -11.85 -1.9 -11.7 -1.95 -10.55 -2.6
Q -3 -6.3 0.75 -14.2 Z"/>

<path fill="url(#Gradient_2)" stroke="none" d="
M -32.25 -69.1
Q -32.1 -66.95 -26 -65.05 -14.15 -60.15 -8.6 -40.9
L -6.95 -36.05 -6.8 -36.6 -6.5 -36.95 -1.3 -38.85 -0.7 -38.85 -0.35 -38.4 -14.25 -76.6
Q -14.55 -77.8 -16.15 -77.5
L -27.05 -73.55
Q -32.8 -71.4 -32.25 -69.1 Z"/>
</g>
</defs>

<g transform="matrix( 1, 0, 0, 1, 0,0) ">
<use xlink:href="#Layer0_0_FILL"/>
</g>
</svg>
