
<svg xmlns="http://www.w3.org/2000/svg" version="1.1" xmlns:xlink="http://www.w3.org/1999/xlink" preserveAspectRatio="none" x="0px" y="0px" width="550px" height="400px" viewBox="0 0 550 400">
<defs>
<g id="Layer0_0_FILL">
<path fill="#000000" stroke="none" d="
M 90.05 35.7
Q 91.4 34.4 91.75 32.6
L 89.85 31.15
Q 88.15 30.15 87 30.15 81.8 32.15 77.45 35.8 68.7 43.15 72.35 51.65
L 66.45 51.9
Q 63.5 52.2 56.65 54.35
L 55.9 47.3
Q 55.9 46.5 59.5 44.6 63.7 42.4 67.7 42.4 69.05 42.4 70.1 41.55 71.05 40.8 71.05 40.15 71.05 39.25 69.95 37.7
L 68.55 36.3
Q 66.95 36.3 60.3 41.9 53.85 47.35 53.85 47.95
L 54.8 55.15
Q 51 56.9 47.15 59.45 39.4 64.5 38.95 69.5 32.7 67.85 24.55 76.75
L 15.95 87 12.9 87.85
Q 11.1 88.15 10.3 88.8 7.75 90.8 7.75 100.45
L 4.45 105.95
Q 5.348828125 104.62890625 6.7 103.7 10.65 102.05 10.65 101.1
L 9.5 97.35
Q 9.5 93.9 14.8 91.1 20.05 88.35 19.95 86.2 19.65 79.15 30.1 73.7 35.3 71 40.6 69.6 40.6 68 46.35 63.55 50.9 60 55.25 57.4 55.5 58.6 56.4 60.2 57.2 61.65 57.75 62.1
L 58.3 62.25 58.45 61.65 57.2 56.5
Q 60 55.3 69.6 53.75
L 78.2 54.5
Q 69.1 59.2 66.55 61.55 58.75 68.65 58.75 80.45 58.75 90.25 66.05 96.6 72.85 102.5 82 102.5 90.55 102.5 96.3 97.65 102.2 92.65 104 83.6 111.6 86.7 128.95 91.35 120.15 95.7 118.45 96.65 116.5 97.75 116.5 98.85
L 115.4 99.95
Q 114.3 101 114.3 102.55 114.3 104.95 115.4 106.3
L 118.55 109.55
Q 115.95 110.25 111.55 112.05 105.3 114.65 104.7 116.35
L 104.95 116.85
Q 105.2 117.15 105.85 117.15 111.15 117.15 114.2 115.4 116.25 114.25 119.4 110.55 119.95 111.7 121.45 119.45 121.45 124.4 110 129.05 99 133.55 88.4 133.55 87.25 133.55 84.35 128.15
L 78 116.3
Q 67.9 99 57.55 99 57.05 99 56.75 99.4 56.4 99.75 55.9 99.75
L 49.2 98.45 47.8 98.6 47.6 99.05 47.35 99.95 47.65 100.1 50.7 100.8
Q 46.9 101.35 45.35 104 44.8 104.9 43.65 109 42.85 111.95 41.1 112.7 38.7 113.8 33.1 111.95
L 32.75 113.9
Q 32.35 115.7 31.5 117 28.85 121.2 21.85 121.2 16.25 121.2 9.85 118.8 2.7 116.1 2.7 112.85 2.7 109.1728515625 4 106.7
L 0.8 112.1
Q 0.8 117.1 7.2 120.35 13.25 123.4 21.65 123.4 26.7 123.4 30.7 120.65 34.6 117.95 34.9 114.4 41.35 114 43.9 112 45.45 110.75 46.25 107.9 47.05 105.05 48.4 104 50.7 102.3 56.75 102.3 63.3 102.3 68.55 107.6 72.15 111.15 76.7 119.2 81.85 128.4 83.75 130.8 87.95 136.1 92.55 136.1 104.6 136.1 115.45 128.05 120.9 124 123.9 119.85
L 123.4 115.2
Q 123.4 112.15 119.95 107.85 116.5 103.55 116.5 101.5 116.5 100.35 121.7 97.45 130.65 92.45 133.45 90.6 132.15 89.7 126.05 88
L 111.4 83.7
Q 102.9 80.95 102.35 74.45 102.2 72.65 102.7 69.55 103.2 66.75 103 65.9 100.95 57.25 95.25 54.7 90.3 52.4 74 51.7 75.35 39.75 76.25 38.15 77.65 35.5 84.65 35.5
L 87.5 36.95
Q 88.75 36.95 90.05 35.7
M 89.35 55.6
L 89.25 55.15 89.4 55.1
Q 95.45 55.1 98.85 60.4 102.15 65.4 101.7 73.15
L 98.5 69.95
Q 93.3 69.95 89.8 74.7 87.3 78.1 87.3 79.8 87.3 81.9 89.75 84.15 92.25 86.45 94.6 86.45 96.5 86.45 99.6 83.15 102.2966796875 80.30625 102.65 78.55
L 101.95 82.65
Q 101.95 91.35 94.5 96.45 88.55 100.55 81.9 100.55 71.95 100.55 65.95 93.45 60.85 87.45 60.85 80 60.85 72.45 68.15 64.4 76 55.85 84.95 55.85
L 87.55 56.1
Q 89.35 56.2 89.35 55.6 Z"/>
</g>
</defs>

<g transform="matrix( 1, 0, 0, 1, 0,0) ">
<use xlink:href="#Layer0_0_FILL"/>
</g>
</svg>
