
<svg xmlns="http://www.w3.org/2000/svg" version="1.1" xmlns:xlink="http://www.w3.org/1999/xlink" preserveAspectRatio="none" x="0px" y="0px" width="550px" height="400px" viewBox="0 0 550 400">
<defs>
<g id="Layer0_0_FILL">
<path fill="#000000" fill-opacity="0.25098039215686274" stroke="none" d="
M 100.7 59.55
Q 100.2 58.3 99 57.1 96.65 54.8 93.1 54.8
L 87 53.9 85.2 54.25 83.95 54.7
Q 83.05 52.7 79.75 53.35 76.45 54 70.5 52.35 64.55 50.7 57.25 54.9 50.4 58.8 39.75 66.4 39.7 67.8 39.2 68.55 38 70.25 34.5 70.25
L 33.7 70.15 30.35 72.15
Q 23.65 76.15 21.9 80.15 20.15 84.15 14.3 87.65 8.45 91.15 8.75 95.2 9.05 99.2 5.25 104.75 1.45 110.3 1.1 114.2 0.75 118.05 11.9 120.65 18.2 122.15 25.35 122.15 27.15 122.15 33.8 117.3 34.05 113.35 36.65 113.55 37.4 113.6 38.1 114.05 40.45 113.45 42.85 111.75 45.2 110 46.25 107.6
L 46.25 107.5
Q 46.25 106.5 47.05 105.6 47.85 104.05 51.05 103.1
L 53.65 102.5
Q 55.1 101.65 55.75 101.65 64.05 101.65 69.4 106.9 73.05 110.5 76.7 118.5 80.95 127.75 82.65 130.1 86.55 135.35 92.3 135.35 102.15 135.35 113.55 128.7 124.1 122.6 124.1 118.85 124.1 115.85 120.45 110.3 116.8 104.7 116.8 101.25 116.8 99.15 123.7 95.75 131.25 92 132.4 89.75 120.95 88.65 111.55 84.6 102.25 80.6 102.25 76.95 102.85 71.65 102.85 69.1 102.85 64.75 99.75 60.45
L 100.45 60.3 100.7 59.55
M 87.55 59.7
Q 95.55 59.7 97.95 64.3 99.7 67.55 102.75 80.45
L 99.2 75.6
Q 98.05 86.55 93.4 91.3 89 95.75 80.3 95.75 73.25 95.75 68.85 90.45 65.05 85.9 65.05 80.3 65.05 70.8 72.65 64.85 79.3 59.7 87.55 59.7
M 102.75 90.4
Q 105 86.25 117.1 92.2
L 111.55 96.7
Q 108.2 99.6 108.2 101.6 108.2 104.7 109.4 106.2 110.1 107.1 112.05 108 115.9 109.8 115.9 114.65 115.9 117.65 107.6 122.95 98.9 128.5 92.35 128.5 89.95 128.5 88.4 127 86.05 124.6 83.7 117.45 81.25 109.9 76 105.2
L 68.6 99.55 79.4 102.5 81.15 102.6
Q 96.4 102.6 102.75 90.4
M 103 84.8
L 102.85 80.7 103.5 83.05 103 84.8
M 32.2 80.3
Q 32.2 78.9 32.6 78.45 33.9 76.85 38.7 76.9
L 45.6 78.7
Q 48.25 70 55.05 64.8 60.95 60.25 66.85 60.25
L 69.1 60.45
Q 62.85 64.3 59.7 72.05 57.7 76.95 57.7 80.05 57.7 81.65 60.8 87.55
L 65.45 96.15 55.05 90.5
Q 53.75 89.85 52.85 89.85
L 47.15 93.2
Q 41.35 96.6 40.25 96.8
L 35.5 97.45
Q 34.65 97.5 34.15 98.2 34.8 100.2 37.3 102.35
L 39.6 104.65
Q 39.6 106.45 38.8 107
L 36.25 107.35
Q 29.6 107.2 24.85 108.65 25.65 110.65 27.45 113.7
L 25.9 116.05
Q 23.2 118.4 17.35 118.4 13.75 118.4 10.8 115.3 8.6 112.95 8.6 112.05 8.6 108.8 22.6 106.95
L 22.9 105.8 19.15 102.85
Q 17.65 101.75 17.65 100.25 17.65 98.15 19.35 96.65 21.1 95.15 23.75 95.15
L 28.9 96.55
Q 30.2 96.55 30.85 95.95
L 31.25 95.35 28.15 89.7
Q 28.15 88.5 30.2 84.85 32.2 81.15 32.2 80.3 Z"/>
</g>
</defs>

<g transform="matrix( 1, 0, 0, 1, 0,0) ">
<use xlink:href="#Layer0_0_FILL"/>
</g>
</svg>
