
<svg xmlns="http://www.w3.org/2000/svg" version="1.1" xmlns:xlink="http://www.w3.org/1999/xlink" preserveAspectRatio="none" x="0px" y="0px" width="550px" height="400px" viewBox="0 0 550 400">
<defs>
<g id="Layer0_0_FILL">
<path fill="#FFFFFF" fill-opacity="0.25098039215686274" stroke="none" d="
M 92.4 106.4
Q 90.75 108 90.75 110.1 90.75 114 93.15 116.4 95.3 118.55 98 118.55
L 100.1 118.35 100.65 114.8
Q 100.65 109.7 98.1 106.85
L 95.45 105
Q 93.9 105 92.4 106.4
M 22.9 112.25
Q 22.9 111.15 21.75 110.4 20.55 109.65 18.9 109.65 17.25 109.65 16.1 110.4 14.9 111.15 14.9 112.25 14.9 113.35 16.1 114.1 17.25 114.85 18.9 114.85 20.55 114.85 21.75 114.1 22.9 113.35 22.9 112.25
M 24.6 103.65
Q 26 105.05 29.9 105.05 32.2 105.05 33.1 104
L 33.55 102.9
Q 33.55 100.45 25.6 97.35 22.65 101.75 24.6 103.65
M 38.8 80.95
Q 36.45 80.95 35.3 82.7 34.2 84.35 34.7 86.55 36 92.15 43.3 92.15 44.25 92.15 44.85 91.4
L 45.35 90.5
Q 45.35 88.65 42.4 84.7 39.6 80.95 38.8 80.95
M 119.35 91.8
Q 118.55 91.3 117.65 91.3 115.8 91.3 113.65 93.05 111.9 94.45 110.65 96.3 116 102.7 120.35 93.4 120.35 92.4 119.35 91.8 Z"/>

<path fill="#FFFFFF" fill-opacity="0.5019607843137255" stroke="none" d="
M 91.15 72
Q 89.55 72 88.45 73.15 87.3 74.3 87.3 75.9 87.3 77.5 88.45 78.65 89.55 79.8 91.15 79.8 92.75 79.8 93.9 78.65 95 77.5 95 75.9 95 74.3 93.9 73.15 92.75 72 91.15 72 Z"/>
</g>
</defs>

<g transform="matrix( 1, 0, 0, 1, 0,0) ">
<use xlink:href="#Layer0_0_FILL"/>
</g>
</svg>
