
<svg xmlns="http://www.w3.org/2000/svg" version="1.1" xmlns:xlink="http://www.w3.org/1999/xlink" preserveAspectRatio="none" x="0px" y="0px" width="550px" height="400px" viewBox="0 0 550 400">
<defs>
<g id="Layer0_0_FILL">
<path fill="#000000" fill-opacity="0.25098039215686274" stroke="none" d="
M 19.45 -51.05
L 19.6 -50.75 -9.8 -53
Q -34.4 -54.15 -34.75 -53.5 -35.1 -52.8 -38.7 -37.3 -42.3 -21.75 -44.5 -21.25 -47.8 -20.45 -50.35 -18.55 -52.5 -17 -52.35 -16.45
L -51.95 -15.7
Q -51.8 -15.5 -51.5 -15.55
L -53.6 -15.15
Q -57.8 -14.15 -59.55 -12.95 -60.15 -12.45 -60.15 -11.4 -60.1 -9.75 -58.4 -6.5
L -53.55 3.3
Q -52 6.45 -51.15 9.5
L -50.55 12.05
Q -49.75 16.35 -48.9 16.6
L -45.25 16.35
Q -43.4 15.95 -42.55 15.45
L -39.3 14 4.6 3.25 31 -3.75 39.75 -5.15
Q 69.85 -12.45 70.6 -12.95
L 72.05 -14.5 75.05 -19.6
Q 79.15 -27.6 78.45 -30.65 78.25 -31.4 76.75 -31.9 75.25 -32.4 75.15 -32.65 74.95 -33.6 73.55 -33.7
L 71.8 -33.55
Q 69.95 -33.1 70.25 -31.8 70.35 -31.35 70.7 -31.25
L 71.3 -31.1
Q 69.2 -29.75 68.95 -27.25 68.7 -23.85 67.95 -22.6 64.2 -16.25 38.45 -10.1
L 8.8 -3.7 -31.65 7.2
Q -38.85 8.9 -44.25 2.6 -47.25 -1 -48.7 -5.25
L -49.4 -7.55 -50.3 -14.8 -47.4 -14.2 -44.75 -14.35
Q -43.7 -14.85 -42.6 -17.4
L 12.05 -25.55 40.15 -26.75
Q 59.8 -27.5 65.75 -28.95 67.75 -29.4 68.15 -30.45 68.4 -31 68.15 -32.05 66.8 -37.85 49.75 -43.6 36.75 -47.95 19.45 -51.05
M 28.65 -29.05
L 4.25 -27.2
Q -7.85 -25.95 -22.35 -23.2
L -29.25 -23.5
Q -31.65 -24.4 -32.4 -27.45 -31.85 -31.85 -31.15 -33.75
L -27.85 -42.35
Q -26.7 -44.4 -23.6 -45.15 -12.2 -47.85 -0.65 -47.65 11.95 -47.45 33.25 -43.8 42.05 -42.35 46.75 -39.9 50 -38.25 50.35 -36.8 50.75 -34.95 49.45 -33.65 47.95 -32.25 44.2 -31.35 37.1 -29.65 28.65 -29.05 Z"/>
</g>
</defs>

<g transform="matrix( 1, 0, 0, 1, 0,0) ">
<use xlink:href="#Layer0_0_FILL"/>
</g>
</svg>
