
<svg xmlns="http://www.w3.org/2000/svg" version="1.1" xmlns:xlink="http://www.w3.org/1999/xlink" preserveAspectRatio="none" x="0px" y="0px" width="550px" height="400px" viewBox="0 0 550 400">
<defs>
<g id="Layer0_0_FILL">
<path fill="#FFFFFF" fill-opacity="0.10196078431372549" stroke="none" d="
M 52.9 -26.65
L 51.6 -26.25 28.85 -25 -6.6 -21.15
Q -13.25 -20.3 -23.55 -17.8 -30.65 -16.1 -32.8 -17.3
L -33.15 -15.8 -33.25 -14.8
Q -32.15 -10.3 -29.7 -7.5 -27.95 -5.5 -25.5 -4.35 -20.6 -1.95 -14.35 -3.45 -12.45 -3.9 -10.3 -4.75
L 34.5 -15.5
Q 44.05 -17.7 49.55 -21.35 53.95 -24.35 53.85 -26.75
L 52.9 -26.65
M 22.2 -33.25
Q 24.75 -33.9 25.45 -34.85 25.95 -35.5 25.7 -36.5 25.45 -37.5 21.65 -38.85 17.75 -40.25 12.05 -41.1 -2.65 -43.45 -15.05 -40.45 -17.4 -39.9 -18.75 -36.85 -19.95 -34.15 -19.5 -32.2 -18.75 -29.15 0.05 -30.55 15.65 -31.7 22.2 -33.25 Z"/>
</g>
</defs>

<g transform="matrix( 1, 0, 0, 1, 0,0) ">
<use xlink:href="#Layer0_0_FILL"/>
</g>
</svg>
