
<svg xmlns="http://www.w3.org/2000/svg" version="1.1" xmlns:xlink="http://www.w3.org/1999/xlink" preserveAspectRatio="none" x="0px" y="0px" width="550px" height="400px" viewBox="0 0 550 400">
<defs>
<filter id="Filter_1" x="-20%" y="-20%" width="140%" height="140%" color-interpolation-filters="sRGB">
<feColorMatrix in="SourceGraphic" type="matrix" values="1 0 0 0 0 0 1 0 0 0 0 0 1 0 0 0 0 0 0.46 0" result="result1"/>
</filter>

<filter id="Filter_2" x="-20%" y="-20%" width="140%" height="140%" color-interpolation-filters="sRGB">
<feColorMatrix in="SourceGraphic" type="matrix" values="1 0 0 0 0 0 1 0 0 0 0 0 1 0 0 0 0 0 0.22 0" result="result1"/>
</filter>

<filter id="Filter_3" x="-20%" y="-20%" width="140%" height="140%" color-interpolation-filters="sRGB">
<feColorMatrix in="SourceGraphic" type="matrix" values="1 0 0 0 0 0 1 0 0 0 0 0 1 0 0 0 0 0 0.21 0" result="result1"/>
</filter>

<filter id="Filter_4" x="-20%" y="-20%" width="140%" height="140%" color-interpolation-filters="sRGB">
<feColorMatrix in="SourceGraphic" type="matrix" values="1 0 0 0 0 0 1 0 0 0 0 0 1 0 0 0 0 0 0.4 0" result="result1"/>
</filter>

<g id="Parts_Sets_Gladiator_gladiatorHead_Assets_Layer_1__Path__63_0_Layer0_0_FILL">
<path fill="#010101" stroke="none" d="
M 4.05 2.1
Q 4.25 1.5 3.85 1 3.7 0.85 3.6 0.85 3.35 0.75 3.15 0.9
L 2.75 1 2.35 1.2 2.05 1.3
Q 1.7 1.35 1.35 1.3
L 1.15 1.25 1 1.1 0.95 1.1 0.95 1.05 0.85 0.95 0.85 0.9 0.9 0.85 0.95 0.7
Q 1.1 0.4 0.85 0.05 0.7 -0.1 0.5 0.05
L 0.45 0.1
Q 0.2 0.45 0.1 0.85
L 0.1 0.9 0.05 1.2
Q 0 1.5 0.05 1.85 0.3 2.75 1.05 3.3 1.2 3.45 1.65 3.55
L 2 3.55
Q 2.3 3.55 2.9 3.35 3.35 3.15 3.65 2.75
L 3.8 2.65
Q 3.95 2.5 4.05 2.1 Z"/>
</g>

<g id="Parts_Sets_Gladiator_gladiatorHead_Assets_Layer_1__Path__62_0_Layer0_0_FILL">
<path fill="#010101" stroke="none" d="
M 4.25 0.35
Q 4.05 -0.1 3.65 0.05
L 3.35 0.3 3.35 0.35 3.25 0.4 3.05 0.6 2.35 0.85 1.75 0.9 1.35 0.85 1.2 0.85 1.1 0.8 0.95 0.75 0.9 0.75 0.6 0.45
Q 0.5 0.25 0.25 0.35
L 0.15 0.45
Q -0.1 0.8 0.05 1.15 0.4 1.9 0.85 2.3 1.05 2.6 1.4 2.75
L 2.15 2.9 2.75 2.85
Q 3.1 2.8 3.4 2.55 4.15 2.1 4.4 1.15 4.45 0.75 4.25 0.35 Z"/>
</g>

<g id="Parts_Sets_Gladiator_gladiatorHead_Assets_Layer_1__Path__61_0_Layer0_0_FILL">
<path fill="#010101" stroke="none" d="
M 4.5 1.3
Q 4.65 0.85 4.5 0.4 4.25 -0.05 3.95 0 3.8 0 3.35 0.35
L 3.25 0.4 3.05 0.55 2.05 0.9
Q 1.1 1.15 0.25 0.6 0.2 0.6 0.05 0.75 0 1 0.1 1.1 0.85 2.2 2.15 2.4
L 2.75 2.45 3.35 2.25
Q 4.15 2 4.5 1.3 Z"/>
</g>

<g id="Parts_Sets_Gladiator_gladiatorHead_Assets_Layer_1__Path__60_0_Layer0_0_FILL">
<path fill="#010101" stroke="none" d="
M 4.4 1.15
Q 4.45 0.75 4.25 0.35 4.05 -0.1 3.65 0.05 3.45 0.1 3.35 0.3
L 3.25 0.4 3.1 0.5 3.05 0.55 3.05 0.6 2.35 0.85
Q 2 0.9 1.7 0.85
L 1.85 0.9 1.35 0.85 1.2 0.8 1.1 0.8 0.95 0.75 0.9 0.75 0.6 0.45
Q 0.5 0.15 0.2 0.35
L 0.1 0.4
Q -0.1 0.75 0.05 1.15 0.4 1.85 0.85 2.3 1.2 2.65 1.4 2.75
L 2.1 2.9 2.75 2.8
Q 3.1 2.75 3.4 2.5 4.15 2.05 4.4 1.15 Z"/>
</g>

<g id="Parts_Sets_Gladiator_gladiatorHead_Assets_Layer_1__Path__59_0_Layer0_0_FILL">
<path fill="#010101" stroke="none" d="
M 4.5 1.35
Q 4.65 0.85 4.45 0.45 4.35 0 3.95 0 3.75 0.05 3.35 0.35
L 3.25 0.45 3 0.55
Q 2.4 0.85 2.05 0.9 1.15 1.15 0.25 0.65 0.05 0.55 0.05 0.8 -0.05 1 0.05 1.15 0.9 2.25 2.15 2.45 2.4 2.55 2.7 2.45 3.05 2.45 3.35 2.3 4.1 2.1 4.5 1.35 Z"/>
</g>

<g id="Parts_Sets_Gladiator_gladiatorHead_Assets_Layer_1__Path__58_0_Layer0_0_FILL">
<path fill="#010101" stroke="none" d="
M 4.9 0.65
Q 5 0.3 4.65 0.05
L 4.4 0 4.3 0
Q 3.85 -0.05 3.55 0.15
L 2.45 0.55 1.4 0.7 0.85 0.85
Q 0.55 0.85 0.3 0.7 0.05 0.6 0 0.95 -0.05 1.3 0.1 1.4
L 1.2 2.15
Q 1.6 2.35 1.95 2.35
L 2.6 2.45
Q 3.15 2.45 3.95 2.1 4.5 1.8 4.65 1.4
L 4.8 1.05 4.9 0.65 Z"/>
</g>

<g id="Parts_Sets_Gladiator_gladiatorHead_Assets_Layer_1__Path__57_0_Layer0_0_FILL">
<path fill="#010101" stroke="none" d="
M 5.15 1.55
Q 5.5 0.95 5.25 0.35
L 5.15 0.15
Q 4.95 -0.05 4.7 0.05
L 4.5 0.2 4.3 0.3 3.5 1.05 2.6 1.45
Q 2.1 1.6 1.5 1.5
L 0.95 1.45
Q 0.7 1.45 0.4 1.25 0.15 1.1 0.05 1.4 -0.05 1.75 0.15 1.95
L 0.7 2.4
Q 0.85 2.6 1.35 2.9 2.65 3.45 4.05 2.7
L 4.7 2.3
Q 5 2.05 5.15 1.5
L 5.15 1.55 Z"/>
</g>

<g id="Parts_Sets_Gladiator_gladiatorHead_Assets_Layer_1__Path__56_0_Layer0_0_FILL">
<path fill="#010101" stroke="none" d="
M 5.35 0.55
Q 5.4 0.4 5.35 0.15 5.25 -0.1 5.1 0
L 4.6 0.2 4.05 0.5 2.85 0.95
Q 2.25 1.05 1.55 0.95 0.9 0.95 0.25 0.7 0.05 0.6 0 0.85 -0.05 1.1 0.05 1.25 0.6 2 1.35 2.35 3.05 3 4.45 2
L 5.05 1.35
Q 5.3 0.95 5.35 0.55 Z"/>
</g>

<g id="Parts_Sets_Gladiator_gladiatorHead_Assets_Layer_1__Path__55_0_Layer0_0_FILL">
<path fill="#010101" stroke="none" d="
M 3.45 1.3
Q 3.45 0.9 3.2 0.75
L 3 0.6
Q 2.85 0.45 2.6 0.45
L 1.75 0.35 1.5 0.35 0.4 0
Q 0.15 -0.1 0.05 0.2 -0.05 0.6 0.1 0.8 0.65 1.55 1.5 1.95 2 2.15 2.3 2.15
L 2.7 2.15
Q 3.05 2.05 3.25 1.85 3.45 1.55 3.45 1.3 Z"/>
</g>

<g id="Parts_Sets_Gladiator_gladiatorHead_Assets_Layer_1__Path__54_0_Layer0_0_FILL">
<path fill="#010101" stroke="none" d="
M 3.5 1.5
Q 3.75 0.6 3.2 0.4 3.1 0.3 2.95 0.4
L 2.8 0.45 2.2 0.45 0.9 0.2 0.4 0
Q 0.25 -0.05 0.15 0.05 0.05 0.15 0.05 0.3 -0.1 0.65 0.2 0.95
L 0.65 1.25 1.1 1.65
Q 1.7 2.1 2.25 2.15 2.6 2.3 2.95 2.1 3.35 1.85 3.5 1.5 Z"/>
</g>

<g id="Parts_Sets_Gladiator_gladiatorHead_Assets_Layer_1__Path__53_0_Layer0_0_FILL">
<path fill="#010101" stroke="none" d="
M 3.4 1.3
Q 3.4 0.95 3.15 0.75
L 3 0.65
Q 2.8 0.5 2.55 0.5
L 1.5 0.35
Q 0.75 0.1 0.4 0 0.1 0 0 0.25 -0.05 0.5 0.1 0.85 0.65 1.65 1.45 2
L 2.3 2.2 2.7 2.2
Q 2.95 2.15 3.2 1.9 3.4 1.7 3.4 1.3 Z"/>
</g>

<g id="Parts_Sets_Gladiator_gladiatorHead_Assets_Layer_1__Path__52_0_Layer0_0_FILL">
<path fill="#010101" stroke="none" d="
M 3.5 1.5
Q 3.75 0.6 3.2 0.4 3.1 0.3 2.95 0.4
L 2.8 0.45 2.2 0.45 0.85 0.2 0.4 0
Q 0.25 -0.05 0.15 0.05 0.05 0.15 0.05 0.3 -0.1 0.65 0.2 0.95
L 0.65 1.25 1.1 1.65
Q 1.65 2.05 2.25 2.2 2.6 2.25 2.95 2.1 3.35 1.85 3.5 1.5 Z"/>
</g>

<g id="Parts_Sets_Gladiator_gladiatorHead_Assets_Layer_1__Path__51_0_Layer0_0_FILL">
<path fill="#010101" stroke="none" d="
M 2.55 0.7
Q 2.6 0.55 2.55 0.4 2.5 0.2 2.35 0.2
L 2.3 0.15
Q 2.15 0 1.9 0.05
L 1.45 0.2 1 0.25 0.6 0.15 0.7 0.15 0.5 0.1 0.45 0.05 0.4 0.05
Q 0.25 -0.1 0.1 0.05
L 0.05 0.1
Q -0.05 0.35 0.05 0.6 0.1 0.75 0.35 1.15 0.45 1.3 0.95 1.55 1.65 1.85 2.3 1.4 2.5 1.2 2.5 1.05
L 2.55 0.8 2.55 0.7 Z"/>
</g>

<g id="Parts_Sets_Gladiator_gladiatorHead_Assets_Layer_1__Path__50_0_Layer0_0_FILL">
<path fill="#010101" stroke="none" d="
M 2.35 0.95
Q 2.55 0.65 2.4 0.25 2.2 -0.25 1.85 0.2
L 1.85 0.25 1.8 0.3 1.4 0.5 1.1 0.5 0.8 0.35 0.75 0.35 0.65 0.25 0.65 0.3
Q 0.6 0.2 0.4 0.1 0.25 0.1 0.1 0.35 -0.15 0.85 0.2 1.25 0.9 1.95 1.75 1.5 2.1 1.35 2.35 0.95 Z"/>
</g>

<g id="Parts_Sets_Gladiator_gladiatorHead_Assets_Layer_1__Path__49_0_Layer0_0_FILL">
<path fill="#010101" stroke="none" d="
M 2.45 0.75
Q 2.5 0.55 2.4 0.3
L 2.25 0.05
Q 2.05 -0.05 1.9 0
L 1.4 0.2 1.15 0.25 0.95 0.25 0.9 0.2 0.6 0.2 0.55 0.15 0.25 0.05
Q 0.2 0 0 0.2 -0.05 0.35 0.05 0.65 0.45 1.05 0.55 1.1 0.75 1.25 1.25 1.35 1.5 1.45 1.8 1.35
L 2.15 1.2 2.4 0.95 2.45 0.75 Z"/>
</g>

<g id="Parts_Sets_Gladiator_gladiatorHead_Assets_Layer_1__Path__48_0_Layer0_0_FILL">
<path fill="#010101" stroke="none" d="
M 2.5 1.05
L 2.5 0.75 2.55 0.65
Q 2.55 0.2 2.35 0.15
L 2.3 0.15
Q 2.15 0 1.85 0
L 1.4 0.2
Q 1.2 0.3 0.95 0.2
L 0.6 0.1 0.7 0.15 0.5 0.1 0.4 0.05 0.35 0
Q 0.2 -0.1 0.05 0.05
L 0.05 0.1
Q -0.1 0.3 0 0.55
L 0.35 1.15
Q 0.6 1.4 0.95 1.55 1.7 1.8 2.3 1.4
L 2.5 1.05 Z"/>
</g>

<g id="Parts_Sets_Gladiator_gladiatorHead_Assets_Layer_1__Path__47_0_Layer0_0_FILL">
<path fill="#010101" stroke="none" d="
M 2.55 0.75
L 2.6 0.65
Q 2.6 0.2 2.4 0.15
L 2.3 0.15
Q 2.15 0 1.9 0.05
L 1.45 0.2
Q 1.25 0.3 1 0.2
L 0.6 0.1 0.7 0.15 0.55 0.1 0.45 0.05 0.4 0
Q 0.25 -0.1 0.1 0.05
L 0.1 0.1
Q -0.05 0.3 0.05 0.55
L 0.35 1.15 1 1.55
Q 1.7 1.8 2.3 1.4 2.5 1.2 2.5 1.05
L 2.55 0.75 Z"/>
</g>

<g id="Parts_Sets_Gladiator_gladiatorHead_Assets_Layer_1__Path__46_0_Layer0_0_FILL">
<path fill="#010101" stroke="none" d="
M 2.45 1.05
L 2.5 0.8 2.55 0.7
Q 2.55 0.25 2.35 0.2
L 2.3 0.2
Q 2.15 -0.05 1.85 0.05
L 1.4 0.25 0.95 0.25 0.6 0.15 0.7 0.15 0.5 0.1 0.4 0.1 0.35 0.05
Q 0.2 -0.05 0.05 0.1
L 0.05 0.15
Q -0.1 0.35 0 0.6
L 0.35 1.15
Q 0.6 1.45 0.95 1.6 1.7 1.85 2.3 1.45 2.45 1.3 2.45 1.05 Z"/>
</g>

<g id="Parts_Sets_Gladiator_gladiatorHead_Assets_Layer_1__Path__45_0_Layer0_0_FILL">
<path fill="#010101" stroke="none" d="
M 2.3 0.9
Q 2.55 0.55 2.4 0.2 2.2 -0.3 1.8 0.15
L 1.8 0.2 1.75 0.25 1.35 0.45 1.05 0.45 0.75 0.35 0.65 0.25
Q 0.6 0.15 0.35 0.05 0.2 0.05 0.05 0.3 -0.2 0.8 0.2 1.2 0.85 1.85 1.7 1.45 2.15 1.25 2.3 0.9 Z"/>
</g>

<g id="Parts_Sets_Gladiator_gladiatorHead_Assets_Layer_1__Path__44_0_Layer0_0_FILL">
<path fill="#010101" stroke="none" d="
M 2.5 0.75
L 2.45 0.3 2.25 0.1
Q 2.15 -0.05 1.95 0.05
L 1.65 0.15 1.45 0.25 0.75 0.25 0.65 0.2 0.6 0.2
Q 0.5 0.2 0.3 0.1 0.05 0 0.05 0.25 -0.05 0.5 0.1 0.65 0.15 0.75 0.55 1.15
L 1.25 1.4 1.85 1.4 2.2 1.25
Q 2.3 1.2 2.4 1
L 2.5 0.75 Z"/>
</g>

<g id="Parts_Sets_Gladiator_gladiatorHead_Assets_Layer_1__Path__43_0_Layer0_0_FILL">
<path fill="#010101" stroke="none" d="
M 2.5 0.75
L 2.45 0.3 2.3 0.1
Q 2.2 0 1.95 0
L 1.7 0.15 1.15 0.25 0.9 0.25 0.75 0.2 0.6 0.2 0.3 0.1
Q 0.15 0.05 0.05 0.25 -0.05 0.5 0.1 0.65
L 0.6 1.15
Q 1 1.35 1.25 1.35 1.55 1.45 1.85 1.35 2.05 1.35 2.2 1.2
L 2.4 1 2.5 0.75 Z"/>
</g>

<g id="Parts_Sets_Gladiator_gladiatorHead_Assets_Layer_1__Path__42_0_Layer0_0_FILL">
<path fill="#010101" stroke="none" d="
M 2.35 0.95
Q 2.55 0.65 2.45 0.25 2.2 -0.2 1.85 0.2
L 1.7 0.35 1.4 0.45 1.1 0.45 0.8 0.35 0.7 0.25 0.4 0.1
Q 0.2 0.1 0.1 0.35 -0.15 0.85 0.25 1.2 0.95 1.9 1.75 1.5 2.1 1.3 2.35 0.95 Z"/>
</g>

<g id="Parts_Sets_Gladiator_gladiatorHead_Assets_Layer_1__Path__41_0_Layer0_0_FILL">
<path fill="#010101" stroke="none" d="
M 2.3 0.9
Q 2.55 0.55 2.4 0.25 2.2 -0.25 1.8 0.2
L 1.65 0.35
Q 1.55 0.45 1.35 0.45
L 1.05 0.45 0.75 0.35 0.65 0.25
Q 0.6 0.1 0.35 0.1 0.15 0.1 0.05 0.35 -0.2 0.85 0.2 1.2 0.9 1.9 1.7 1.5 2.2 1.2 2.3 0.9 Z"/>
</g>

<g id="Parts_Sets_Gladiator_gladiatorHead_Assets_Layer_1__Path__40_0_Layer0_0_FILL">
<path fill="#010101" stroke="none" d="
M 2.5 0.8
L 2.45 0.35
Q 2.35 0.15 2.25 0.1 2.15 -0.05 1.95 0.05
L 1.65 0.15 1.45 0.25 1.15 0.3 1 0.25 0.6 0.25 0.55 0.2 0.3 0.1
Q 0.05 0 0.05 0.25 -0.05 0.5 0.1 0.65 0.15 0.75 0.55 1.15 0.85 1.3 1.25 1.4 1.55 1.5 1.85 1.4
L 2.2 1.25
Q 2.3 1.2 2.4 1
L 2.5 0.8 Z"/>
</g>

<g id="Parts_Sets_Gladiator_gladiatorHead_Assets_Layer_1__Path__39_0_Layer0_0_FILL">
<path fill="#010101" stroke="none" d="
M 4.7 1.05
Q 4.8 0.25 4.3 0.05 3.8 -0.15 3.65 0.65
L 3.6 0.8 3.6 0.9 3.55 1 3.3 1.4 3.2 1.45 2.85 1.8 2.4 1.95 1.9 2.05 1.35 1.95
Q 0.8 1.85 0.4 1.6 0.2 1.45 0.05 1.7 -0.05 2 0.1 2.2 0.45 2.95 1.2 3.35 1.95 3.65 2.75 3.4 3.55 3.2 4.1 2.55 4.65 1.85 4.7 1.05 Z"/>
</g>

<g id="Parts_Sets_Gladiator_gladiatorHead_Assets_Layer_1__Path__38_0_Layer0_0_FILL">
<path fill="#010101" stroke="none" d="
M 3.65 2.8
Q 4.2 1.85 3.95 0.75 3.85 -0.1 3.25 0.05 2.7 0.15 2.7 1.05
L 2.65 1.2 2.65 1.3 2.6 1.4 2.6 1.45 2.5 1.6 2.45 1.65 2.35 1.8 2.3 1.9 2.1 2.1 2 2.15 1.95 2.2 1.6 2.35 1.5 2.35 1.1 2.5 0.6 2.6
Q 0.4 2.6 0.15 2.45 0 2.4 0 2.6 -0.05 2.75 0 2.85 0.35 3.35 1.1 3.8 1.45 4 1.85 4 2.25 4 2.55 3.85 3.35 3.55 3.65 2.8 Z"/>
</g>

<g id="Parts_Sets_Gladiator_gladiatorHead_Assets_Layer_1__Path__37_0_Layer0_0_FILL">
<path fill="#010101" stroke="none" d="
M 3.2 1.7
L 2.8 1.75 2.25 1.65 1.6 1.45 1.35 1.2 1.2 1.1 1.1 1 1 0.85 0.95 0.75 0.85 0.6 0.85 0.5
Q 0.75 -0.1 0.35 0 0 0.1 0 0.7 0 2.25 1.1 3.25 1.7 3.75 2.25 3.9 2.8 4 3.05 3.95
L 3.45 3.9 3.85 3.6
Q 4.25 3.2 4.1 2.65 4.1 2 3.65 1.85
L 3.2 1.7 Z"/>
</g>

<g id="Parts_Sets_Gladiator_gladiatorHead_Assets_Layer_1__Path__36_0_Layer0_0_FILL">
<path fill="#010101" stroke="none" d="
M 4.05 1.55
L 3 1.55 1.85 1.15 1.8 1.1 1.7 1.05 1.1 0.55 1.1 0.5 1 0.4 0.85 0.2
Q 0.5 -0.25 0.2 0.15 -0.1 0.65 0.1 1.15 0.45 1.9 0.95 2.35 1.35 2.75 2.05 3.1 3.3 3.7 4.6 3.4 4.8 3.35 5 2.95 5.15 2.6 5.05 2.15 4.95 1.8 4.75 1.6 4.5 1.4 4.25 1.5
L 4.2 1.5 4.05 1.55 Z"/>
</g>

<g id="Parts_Sets_Gladiator_gladiatorHead_Assets_Layer_1__Path__35_0_Layer0_0_FILL">
<path fill="#010101" stroke="none" d="
M 5.2 1.65
Q 5.35 1.4 5.45 0.85 5.45 0.1 4.85 0 4.7 0 4.4 0.2
L 4.25 0.25 3.9 0.5 3.8 0.6 3.75 0.6 3.75 0.65 2.85 1 2.75 1.05 2.6 1.05
Q 1.35 1.4 0.45 0.4 0.25 0.15 0.1 0.45 -0.05 0.7 0.05 0.95 0.35 1.65 1.05 2.3 1.65 2.9 2.65 3 3.5 3.15 4.2 2.7 4.7 2.5 5 2.05 5.1 1.95 5.1 1.85
L 5.2 1.65 Z"/>
</g>

<g id="Parts_Sets_Gladiator_gladiatorHead_Assets_Layer_1__Path__34_0_Layer0_0_FILL">
<path fill="#010101" stroke="none" d="
M 5.05 0.45
Q 4.9 0.05 4.55 0
L 4.3 0.05
Q 3.95 0.05 3.7 0.2
L 3.15 0.4
Q 2.75 0.6 2.15 0.6
L 1.9 0.55 1.7 0.55 1.1 0.4 0.9 0.4 0.65 0.3 0.45 0.3 0.35 0.35 0.3 0.4 0.2 0.4
Q 0.05 0.35 0.05 0.55 0 0.7 0.05 0.8
L 0.1 0.95 0.1 1.1 0.3 1.6 0.9 2.15
Q 1.55 2.65 2.35 2.65 3.1 2.7 3.75 2.5
L 4.45 2.1 4.65 1.9 5.05 1.15
Q 5.15 0.8 5.05 0.45 Z"/>
</g>

<g id="Parts_Sets_Gladiator_gladiatorHead_Assets_Layer_1__Path__33_0_Layer0_0_FILL">
<path fill="#010101" stroke="none" d="
M 4.45 0.35
Q 4.4 0.05 4.15 0.05
L 3.95 0.05
Q 3.45 -0.1 2.95 0.15
L 2.5 0.25 2.4 0.3 2.25 0.3 2.1 0.35
Q 1.5 0.35 1.2 0.4 0.75 0.4 0.4 0.2 0.1 0.15 0 0.5 -0.05 0.9 0.15 1.1 0.5 1.5 1 1.85
L 1.6 2.1 2.2 2.25
Q 2.8 2.35 3.35 2.1 4.1 1.9 4.35 1.1
L 4.45 0.75
Q 4.55 0.55 4.45 0.35 Z"/>
</g>

<g id="Parts_Sets_Gladiator_gladiatorHead_Assets_Layer_1__Path__32_0_Layer0_0_FILL">
<path fill="#010101" stroke="none" d="
M 2.85 1.3
Q 3.3 0.7 2.75 0.15
L 2.45 0 2.1 0.1 1.65 0.15 1.3 0.25 1.2 0.3 1.1 0.3
Q 0.55 0.4 0.15 0.25 0.05 0.2 0 0.35 -0.05 0.45 0.05 0.55 0.4 1 0.75 1.2 1.2 1.55 1.75 1.65
L 2.5 1.55
Q 2.75 1.45 2.85 1.3 Z"/>
</g>

<g id="Parts_Sets_Gladiator_gladiatorHead_Assets_Layer_1__Path__31_0_Layer0_0_FILL">
<path fill="#FFFFFF" stroke="none" d="
M 4.55 1.95
Q 4.75 1.6 4.55 0.95 4.35 0.55 4.15 0.35
L 3.7 0.15
Q 3.35 0 2.9 0 2.4 0 2.05 0.2
L 1.75 0.35 1.6 0.45 1.45 0.5 1.45 0.55
Q 0.5 1.15 0.1 2.3
L 0 2.85 0.1 3.35
Q 0.15 3.5 0.3 3.55 0.45 3.6 0.55 3.5
L 0.8 3.1 0.85 3 0.95 2.85 1 2.7 1.05 2.65 1.1 2.65 1.45 2.3 1.75 2.15 1.8 2.1
Q 2.25 2.05 2.6 2.1
L 2.45 2.1 2.8 2.15 3.6 2.45
Q 3.85 2.55 4.05 2.45
L 4 2.45
Q 4.45 2.35 4.55 1.95 Z"/>
</g>

<g id="Parts_Sets_Gladiator_gladiatorHead_Assets_Layer_1__Path__30_0_Layer0_0_FILL">
<path fill="#FFFFFF" stroke="none" d="
M 4.15 1.2
Q 4.15 0.65 3.8 0.3 3.65 0.1 3.3 0
L 3 0 2.25 0.1
Q 1.65 0.25 1 0.85 1 0.9 0.9 1.05 0.85 1.1 0.8 1.1
L 0.55 1.45 0.25 2.05
Q -0.15 3.05 0.15 3.5 0.3 3.65 0.35 3.55 0.45 3.5 0.7 3 0.7 3.05 0.8 2.9
L 0.85 2.75 1.25 2.35 1.35 2.3 1.5 2.2 1.65 2.15 1.7 2.15 2.05 2.05
Q 2.5 1.95 3.05 2.05
L 3.25 2.1 3.7 2
Q 4.05 1.9 4.15 1.2 Z"/>
</g>

<g id="Parts_Sets_Gladiator_gladiatorHead_Assets_Layer_1__Path__29_0_Layer0_0_FILL">
<path fill="#FFFFFF" stroke="none" d="
M 5.05 1.8
Q 5 1.5 5 1.45 4.95 1.1 4.65 0.7
L 4.35 0.45 3.7 0.1
Q 3.3 -0.05 2.95 0 2.65 0 2.25 0.2 0.8 0.9 0.1 2.3 -0.05 2.6 0.05 2.95 0.25 3.3 0.45 3.15 1.15 2.75 1.55 2.65
L 1.7 2.6 1.75 2.55 2.05 2.55
Q 2.3 2.45 2.55 2.55 2.95 2.6 3.35 2.85
L 3.6 3.05
Q 3.7666015625 3.1833984375 4 3.25
L 4.2 3.3
Q 4.65 3.2 4.85 2.9 5.15 2.35 5 1.65
L 5.05 1.8 Z"/>
</g>

<g id="Parts_Sets_Gladiator_gladiatorHead_Assets_Layer_1__Path__28_0_Layer0_0_FILL">
<path fill="#FFFFFF" stroke="none" d="
M 4 2.4
Q 4.25 2.7 4.55 2.7 4.8 2.75 5.15 2.25 5.55 1.35 4.9 0.6 4.25 0.15 3.5 0.05 2.85 0 2.15 0.05 0.55 0.45 0.05 1.9 -0.1 2.35 0.2 2.65 0.5 2.95 0.65 2.45 1.15 1.35 2.25 1.2 2.8 1.15 3.3 1.45
L 3.55 1.65 3.6 1.75 3.65 1.8 3.85 2.1 4 2.4 Z"/>
</g>

<g id="Parts_Sets_Gladiator_gladiatorHead_Assets_Layer_1__Path__27_0_Layer0_0_FILL">
<path fill="#FFFFFF" stroke="none" d="
M 5.35 1.85
Q 5.4 1.3 5.1 0.85 4.8 0.45 4.55 0.3
L 4.25 0.2
Q 3.8 0.05 3.35 0.05 2.6 -0.1 1.8 0.15 1.15 0.3 0.7 0.75 0.15 1.35 0 2.15 -0.05 2.4 0.15 2.65 0.3 2.95 0.55 2.7
L 0.85 2.5 1.05 2.45 1.15 2.4 1.5 2.35 1.6 2.3 1.65 2.3 2.15 2.25 2.4 2.25 2.55 2.3 2.6 2.3 3.85 2.75 4.35 2.85
Q 4.65 2.85 4.8 2.7 5.25 2.35 5.35 1.85 Z"/>
</g>

<g id="Parts_Sets_Gladiator_gladiatorHead_Assets_Layer_1__Path__26_0_Layer0_0_FILL">
<path fill="#FFFFFF" stroke="none" d="
M 3.15 1.6
Q 3.3 1.15 3.05 0.7
L 2.7 0.25 2.3 0.05
Q 1.75 -0.05 1.35 0.1 0.85 0.3 0.65 0.5 0.25 0.9 0.15 1.15 -0.15 1.6 0.2 2.15 0.35 2.3 0.55 2.25 0.8 2.15 0.85 1.95
L 0.8 2 0.9 1.8 0.95 1.8 1 1.7 1.05 1.7 1.15 1.65 1.35 1.6 1.75 1.55 2.2 1.75 2.05 1.65 2.4 1.85 2.6 1.9
Q 3 2.15 3.15 1.6 Z"/>
</g>

<g id="Parts_Sets_Gladiator_gladiatorHead_Assets_Layer_1__Path__25_0_Layer0_0_FILL">
<path fill="#FFFFFF" stroke="none" d="
M 3.9 0.35
L 3.8 0.25
Q 3.2 -0.1 2.65 0.05 2.1 0.15 1.65 0.35
L 0.75 0.9 0.35 1.25 0.25 1.5 0.1 1.65
Q 0 1.75 0.05 1.9 0.05 2.1 0.2 2.05
L 0.4 2 0.7 2.1 1.2 2.05
Q 1.85 2.05 2.2 2.1
L 2.9 2.2
Q 3.05 2.2 3.3 2.25 3.55 2.25 3.7 2.15 4.1 1.8 4.2 1.3 4.25 0.75 3.9 0.35 Z"/>
</g>

<g id="Parts_Sets_Gladiator_gladiatorHead_Assets_Layer_1__Path__24_0_Layer0_0_FILL">
<path fill="#FFFFFF" stroke="none" d="
M 4.7 0.2
Q 4.35 0.05 4 0.05 2.85 -0.1 1.8 0.45 0.65 1.1 0.1 2.2 -0.05 2.4 0.05 2.7 0.3 2.95 0.4 2.75 1.1 2.05 2.1 1.85 3.1 1.65 4 2.1 4.5 2.3 4.7 2.2 5.3 1.85 5.2 1.15 5.1 0.55 4.7 0.2 Z"/>
</g>

<g id="Parts_Sets_Gladiator_gladiatorHead_Assets_Layer_1__Path__23_0_Layer0_0_FILL">
<path fill="#FFFFFF" stroke="none" d="
M 1.85 0.25
L 1.55 0.05 1.2 0
Q 0.6 -0.1 0.1 0.4 -0.1 0.6 0 0.85 0.15 1.1 0.3 0.95
L 0.35 0.95 0.4 0.9 0.5 0.85 0.65 0.85 0.7 0.8 1.1 0.8 1.15 0.85 1.4 0.9 1.5 0.95 1.65 1 1.75 1.05 1.8 1.05
Q 1.848828125 1.098828125 1.85 1.05
L 1.85 1.1 1.9 1.15 2 1.2
Q 2.1 1.4 2.2 1.15
L 2.25 0.85
Q 2.2 0.7 1.85 0.25 Z"/>
</g>

<g id="Parts_Sets_Gladiator_gladiatorHead_Assets_Layer_1__Path__22_0_Layer0_0_FILL">
<path fill="#FFFFFF" stroke="none" d="
M 1.85 0.3
Q 1.8 0.2 1.55 0.1
L 1.25 0.05
Q 0.6 -0.05 0.1 0.45 -0.05 0.6 0.05 0.9 0.15 1.15 0.35 1
L 0.4 1 0.4 0.95 0.55 0.9 0.65 0.85 1.2 0.85 1.45 0.95 1.5 1 1.7 1 1.75 1.05 1.85 1.1 1.9 1.1 1.95 1.15 2 1.25
Q 2.15 1.3 2.25 1.2 2.35 1.05 2.25 0.85 2.05 0.45 1.85 0.3 Z"/>
</g>

<g id="Parts_Sets_Gladiator_gladiatorHead_Assets_Layer_1__Path__21_0_Layer0_0_FILL">
<path fill="#FFFFFF" stroke="none" d="
M 1.55 1
L 1.7 1 1.8 1.05 1.85 1.1 1.9 1.1 2.05 1.25
Q 2.15 1.35 2.25 1.2 2.35 1.05 2.25 0.85 2.2 0.6 1.9 0.3
L 1.6 0.1 1.25 0.05
Q 0.65 -0.05 0.15 0.45 -0.05 0.6 0.05 0.9 0.2 1.15 0.35 1
L 0.4 1 0.45 0.95 0.65 0.85 1.2 0.85 1.55 1 Z"/>
</g>

<g id="Parts_Sets_Gladiator_gladiatorHead_Assets_Layer_1__Path__20_0_Layer0_0_FILL">
<path fill="#FFFFFF" stroke="none" d="
M 2.65 0.9
Q 2.7 0.8 2.6 0.6
L 2.4 0.3 2.3 0.2
Q 2.25 0.15 2 0
L 1.35 0
Q 0.75 0.15 0.15 0.55 -0.05 0.75 0.05 1.05 0.15 1.35 0.35 1.3 0.6 1.15 0.85 1.15 1.15 1.1 1.4 1.15
L 1.65 1.2 1.75 1.2 1.9 1.25
Q 2 1.35 2.15 1.25
L 2.3 1.2 2.5 1.1
Q 2.65 1.1 2.65 0.9 Z"/>
</g>

<g id="Parts_Sets_Gladiator_gladiatorHead_Assets_Layer_1__Path__19_0_Layer0_0_FILL">
<path fill="#FFFFFF" stroke="none" d="
M 2.65 0.9
Q 2.65 0.7 2.55 0.6
L 2.4 0.35 2.3 0.25
Q 2.15 0.05 1.95 0.05 1.65 0 1.35 0.05 0.65 0.15 0.1 0.6 -0.1 0.8 0 1.1 0.15 1.35 0.35 1.3
L 0.8 1.15 1.4 1.15 1.65 1.2 1.7 1.2 1.85 1.25
Q 2 1.35 2.15 1.25
L 2.25 1.2 2.5 1.15
Q 2.55 1.15 2.65 0.9 Z"/>
</g>

<g id="Parts_Sets_Gladiator_gladiatorHead_Assets_Layer_1__Path__18_0_Layer0_0_FILL">
<path fill="#FFFFFF" stroke="none" d="
M 2.65 0.9
L 2.55 0.6 2.4 0.35 2.3 0.25
Q 2.15 0.05 1.95 0.05 1.65 0 1.35 0.05 0.65 0.15 0.1 0.6 -0.1 0.8 0 1.1 0.15 1.35 0.3 1.3
L 0.8 1.15 1.35 1.15 1.65 1.2 1.7 1.2 1.85 1.25
Q 2 1.35 2.15 1.25
L 2.25 1.2 2.5 1.15 2.65 0.9 Z"/>
</g>

<g id="Parts_Sets_Gladiator_gladiatorHead_Assets_Layer_1__Path__17_0_Layer0_0_FILL">
<path fill="#FFFFFF" stroke="none" d="
M 2.65 0.95
L 2.55 0.6 2.4 0.35 2.3 0.25
Q 2.1 0.05 1.95 0.05 1.65 0 1.35 0.05 0.65 0.15 0.1 0.6 -0.05 0.85 0 1.1 0.15 1.35 0.3 1.3
L 0.8 1.15 1.35 1.15 1.6 1.2 1.7 1.25 1.85 1.25 2.15 1.3 2.25 1.2 2.5 1.15 2.65 0.95 Z"/>
</g>

<g id="Parts_Sets_Gladiator_gladiatorHead_Assets_Layer_1__Path__16_0_Layer0_0_FILL">
<path fill="#FFFFFF" stroke="none" d="
M 2.45 0.8
Q 2.55 0.5 2.3 0.35
L 2.05 0.15 1.8 0.05 1.2 0 0.6 0.15 0.1 0.5
Q -0.05 0.7 0 0.9 0.15 1.15 0.25 1.1
L 0.7 1 0.8 0.95 0.95 0.95 1.2 0.9 1.65 0.95 1.9 1.05 2.2 1.1
Q 2.45 1.1 2.45 0.8 Z"/>
</g>

<g id="Parts_Sets_Gladiator_gladiatorHead_Assets_Layer_1__Path__15_0_Layer0_0_FILL">
<path fill="#FFFFFF" stroke="none" d="
M 2.45 0.75
Q 2.5 0.55 2.35 0.3
L 2.05 0.1 1.8 0.05
Q 1.4 -0.05 1.2 0
L 0.65 0.1 0.1 0.5
Q -0.05 0.65 0.05 0.85 0.15 1.1 0.3 1.05
L 0.7 0.95 0.8 0.9 1 0.9 1.25 0.85 2.25 1.05
Q 2.45 1.05 2.45 0.75 Z"/>
</g>

<g id="Parts_Sets_Gladiator_gladiatorHead_Assets_Layer_1__Path__14_0_Layer0_0_FILL">
<path fill="#FFFFFF" stroke="none" d="
M 2.45 0.75
Q 2.5 0.55 2.35 0.3
L 2.05 0.1 1.8 0.05
Q 1.4 -0.05 1.2 0
L 0.65 0.1 0.1 0.5
Q 0 0.75 0.05 0.85 0.15 1.1 0.3 1.05
L 0.75 0.95 0.8 0.9 1 0.9 1.25 0.85 2.25 1.05
Q 2.45 1.05 2.45 0.75 Z"/>
</g>

<g id="Parts_Sets_Gladiator_gladiatorHead_Assets_Layer_1__Path__13_0_Layer0_0_FILL">
<path fill="#FFFFFF" stroke="none" d="
M 2.45 0.8
Q 2.45 0.5 2.3 0.35
L 2.05 0.15 1.75 0.05 1.15 0
Q 0.85 0 0.6 0.15
L 0.1 0.5
Q -0.05 0.7 0 0.9 0.15 1.15 0.25 1.05
L 0.7 0.95 0.8 0.95 0.95 0.9 1.2 0.9 1.65 0.95 1.9 1.05 2.2 1.1
Q 2.3 1.1 2.45 0.8 Z"/>
</g>

<g id="Parts_Sets_Gladiator_gladiatorHead_Assets_Layer_1__Path__12_0_Layer0_0_FILL">
<path fill="#FFFFFF" stroke="none" d="
M 2.45 0.75
Q 2.55 0.55 2.35 0.35
L 2.05 0.1 1.8 0.05 1.2 0 0.65 0.1 0.1 0.5
Q -0.05 0.65 0.05 0.9 0.15 1.1 0.3 1.05
L 0.7 0.95 0.8 0.95 0.85 0.9 1.25 0.9 2.25 1.05
Q 2.45 1.15 2.45 0.75 Z"/>
</g>

<g id="Parts_Sets_Gladiator_gladiatorHead_Assets_Layer_1__Path__11_0_Layer0_0_FILL">
<path fill="#FFFFFF" stroke="none" d="
M 2.7 1.55
Q 2.95 1.25 2.85 0.85 2.85 0.65 2.65 0.45
L 2.1 0.1 1.7 0 1.35 0
Q 0.75 0.1 0.5 0.3
L 0.25 0.6
Q 0.15 0.7 0.05 1.05 -0.15 1.4 0.2 1.5
L 0.55 1.55 1.7 1.5 2.2 1.6 2.3 1.6
Q 2.55 1.7 2.7 1.55 Z"/>
</g>

<g id="Parts_Sets_Gladiator_gladiatorHead_Assets_Layer_1__Path__10_0_Layer0_0_FILL">
<path fill="#FFFFFF" stroke="none" d="
M 3.3 1.65
Q 3.5 1.5 3.5 0.9 3.25 0.2 2.55 0.1 2.1 -0.05 1.6 0.05 1.2 0.05 0.65 0.4
L 0.35 0.8 0 1.15
Q 0 1.3 0.1 1.25
L 0.4 1.1
Q 0.6 1.05 0.75 1.1 0.95 1.15 1.15 1.1
L 1.55 1.1 2.2 1.3 2.75 1.6 2.8 1.65 2.85 1.65
Q 3.05 1.85 3.3 1.65 Z"/>
</g>

<g id="Parts_Sets_Gladiator_gladiatorHead_Assets_Layer_1__Path__9_0_Layer0_0_FILL">
<path fill="#FFFFFF" stroke="none" d="
M 4 1.65
Q 4.25 1.25 4.1 0.8 4 0.15 3.35 0 2.25 -0.1 1.35 0.65
L 1.2 0.7 0.9 0.9 0.55 1.2 0.2 1.65
Q 0.15 1.7 0.05 2
L 0 2.25 0.05 2.4 0.05 2.45
Q 0.05 2.7 0.2 2.75 0.35 2.85 0.5 2.75
L 0.7 2.65 1 2.4 1.05 2.35 1.1 2.35 1.25 2.25 1.65 2.1 1.7 2.05 1.9 2.05 2.25 2 3.25 2.15
Q 3.8 2.3 4 1.65 Z"/>
</g>

<g id="Parts_Sets_Gladiator_gladiatorHead_Assets_Layer_1__Path__8_0_Layer0_0_FILL">
<path fill="#FFFFFF" stroke="none" d="
M 4.05 1.25
Q 4.15 0.8 3.8 0.4
L 3.3 0.1
Q 3.1 0 2.7 0 1.95 0.1 1.6 0.25 1.1 0.4 0.65 0.75
L 0.25 1.25 0.05 1.8
Q 0 1.95 0.05 2.1 0.1 2.25 0.2 2.2
L 0.4 2.15 0.55 2.15 1.4 1.85 1.6 1.8 1.65 1.8 1.8 1.75
Q 2.25 1.7 2.7 1.75
L 2.8 1.75 3.15 1.8 3.6 1.8
Q 3.9 1.8 4.05 1.25 Z"/>
</g>

<g id="Parts_Sets_Gladiator_gladiatorHead_Assets_Layer_1__Path__7_0_Layer0_0_FILL">
<path fill="#FFFFFF" stroke="none" d="
M 4.15 1.5
Q 4.55 1.2 4.25 0.75
L 4.1 0.6
Q 3.95 0.2 3.5 0.05
L 2.85 0
Q 2.4 -0.05 1.75 0.2
L 1.25 0.4
Q 0.85 0.7 0.75 0.9
L 0.05 1.8
Q -0.1 2 0.05 2.3 0.15 2.65 0.4 2.45
L 0.7 2.2 1.05 2.2 1.8 2.05 1.9 2 2.05 2 2.25 1.95 3.6 1.85 4.15 1.5 Z"/>
</g>

<g id="Parts_Sets_Gladiator_gladiatorHead_Assets_Layer_1__Path__6_0_Layer0_0_FILL">
<path fill="#FFFFFF" stroke="none" d="
M 5.05 1.25
Q 4.95 0.85 4.8 0.75 4.45 0.45 4.15 0.4
L 3.75 0.3 3.7 0.3 3.35 0.1
Q 2.6 -0.1 1.95 0.2 1.45 0.4 0.8 0.85 0.4 1.15 0.3 1.4
L 0.05 2.05
Q 0 2.15 0.05 2.3 0.05 2.5 0.2 2.45
L 0.6 2.4
Q 0.95 2.4 1.15 2.25 1.65 2 2.15 2
L 3.3 1.9 3.5 1.8 4.05 2.05 4.25 2.25
Q 4.4 2.4 4.7 2.3 5.05 2.15 5.05 1.75
L 5.1 1.5 5.05 1.25 Z"/>
</g>

<g id="Parts_Sets_Gladiator_gladiatorHead_Assets_Layer_1__Path__5_0_Layer0_0_FILL">
<path fill="#FFFFFF" stroke="none" d="
M 3 1.8
Q 3.3 1.45 3.2 1 3.1 0.7 2.8 0.3 2.5 0.1 2.35 0.1
L 1.85 0 1.05 0.15 0.8 0.35 0.7 0.45 0.05 0.9
Q 0 1.25 0.1 1.2
L 0.45 1.2
Q 0.6 1.15 0.75 1.2
L 1.05 1.45 2.5 1.95 3 1.8 Z"/>
</g>

<g id="Parts_Sets_Gladiator_gladiatorHead_Assets_Layer_1__Path__4_0_Layer0_0_FILL">
<path fill="#FFFFFF" stroke="none" d="
M 3 1.85
Q 3.2 1.55 3.1 1.15 3 0.7 2.75 0.45
L 2.5 0.25 2.25 0.1 1.7 0
Q 1.25 0 1 0.2
L 0.85 0.25 0.65 0.35 0.55 0.45 0.4 0.55 0.4 0.6 0.05 0.75
Q 0 0.8 0 0.9 0 1 0.05 1
L 0.45 1.1 0.65 1.25 0.85 1.35 1.05 1.35 1.6 1.25 1.75 1.4 2.15 1.7 2.2 1.75 2.6 2
Q 2.9 2.1 3 1.85 Z"/>
</g>

<g id="Parts_Sets_Gladiator_gladiatorHead_Assets_Layer_1__Path__3_0_Layer0_0_FILL">
<path fill="#FFFFFF" stroke="none" d="
M 3.45 2.3
Q 4.15 1.5 3.55 0.65 3.15 0.25 2.9 0.2 2.35 -0.05 1.95 0
L 1 0.25 0.7 0.4 0.35 0.95 0.05 1.25
Q 0 1.45 0.05 1.4
L 0.45 1.4 0.7 1.55 0.75 1.55 0.85 1.65
Q 1.1 1.7 1 1.65
L 1.65 1.85 1.95 2 2.3 2.1 2.9 2.4
Q 3.2 2.55 3.45 2.3 Z"/>
</g>

<g id="Parts_Sets_Gladiator_gladiatorHead_Assets_Layer_1__Path__2_0_Layer0_0_FILL">
<path fill="#FFFFFF" stroke="none" d="
M 2.75 1.5
Q 2.9 1.1 2.75 0.7 2.6 0.3 2.25 0.15
L 2 0.05 1.3 0 0.8 0.1 0.6 0.25 0.45 0.4 0.1 0.6
Q -0.05 0.7 0 1 0.1 1.25 0.3 1.2
L 0.6 1.2 0.8 1.3 1.1 1.35 0.95 1.35
Q 1.4 1.45 1.65 1.6
L 1.85 1.7
Q 1.9 1.8 2.2 1.9
L 2.3 1.9
Q 2.6 1.9 2.75 1.5 Z"/>
</g>

<g id="Parts_Sets_Gladiator_gladiatorHead_Assets_Layer_1__Path__1_0_Layer0_0_FILL">
<path fill="#FFFFFF" stroke="none" d="
M 3.05 2.2
Q 3.2 1.45 2.7 0.8 2.5 0.35 1.9 0.1 1.4 -0.1 0.9 0.1 0.35 0.25 0.05 0.7 -0.05 0.8 0 1 0.1 1.2 0.25 1.15 0.6 1 0.95 1.05
L 1.2 1.05 1.75 1.35 1.9 1.45 1.9 1.5 1.95 1.55 2 1.65 2.05 1.65 2.1 1.8 2.1 1.9 2.15 2.25
Q 2.3 2.75 2.6 2.75 2.95 2.7 3.05 2.2 Z"/>
</g>

<g id="Parts_Sets_Gladiator_gladiatorHead_Assets_Layer_1__Path__0_Layer0_0_FILL">
<path fill="#FFFFFF" stroke="none" d="
M 3.7 2.15
Q 3.85 1.75 3.7 1.45
L 3.65 1.3
Q 3.6119140625 1.086328125 3.5 0.9 3.25 0.5 2.9 0.35 2.45 0.15 1.9 0.05 1.35 -0.05 0.95 0.1
L 0.1 0.75
Q 0 0.9 0 1.15 0.05 1.4 0.25 1.4
L 1.3 1.65 1.55 1.65 2.2 1.9 2.4 2 2.35 2 2.45 2.05 2.75 2.25
Q 2.95 2.45 3.15 2.35
L 3.25 2.4
Q 3.55 2.5 3.7 2.15 Z"/>
</g>

<g id="Layer0_0_MEMBER_1_FILL">
<path fill="#FFFFFF" fill-opacity="0.14901960784313725" stroke="none" d="
M 72.45 40.8
Q 68.8 37.05 62.7 34.15 59.3 32.6 51.55 29.9 44.9 27.6 40 27.3 33.4 26.85 28.65 29.7 20.65 34.45 17.65 48.05 15.2 59 17.5 69.95 19.6 80.3 25.25 88.7 31.5 98.05 40.3 101.85 45.85 104.95 51.9 105.9 57.45 107.05 63 105.6 68.3 104.2 71.75 99.85 74.55 96.35 76.25 89.15 79.3 76.5 79.45 63.2 79.75 57.05 78.3 50.95 76.7 45.1 72.45 40.8 Z"/>
</g>

<g id="Parts_Sets_Gladiator_gladiatorHead_Assets_Layer_1__Path__9_0_0_Layer0_0_FILL">
<path fill="#010101" stroke="none" d="
M 16.25 7.9
Q 18.6 4.8 18.15 1.6 18 0.55 17.1 0.15 16.2 -0.35 15.6 0.65
L 15.2 1.5 14.65 3.15 14.2 3.95 13.6 4.75
Q 12.05 6.5 9.8 7.05 7.5 7.6 5.25 6.85 4.2 6.6 3 5.9 1.8 5 1.15 4.65 0.9 4.5 0.55 4.7 0.3 4.9 0.15 5.2 -0.2 6.1 0.15 6.8 1.45 10 4.65 11.3 7.65 12.6 10.8 11.75 14 10.9 16.25 7.9 Z"/>
</g>

<g id="Parts_Sets_Gladiator_gladiatorHead_Assets_Layer_1__Compound_Path__1_0_Layer0_0_FILL">
<path fill="#010101" stroke="none" d="
M 3.15 23.85
Q 3 23.9 2.9 24.2 2.75 24.7 2.8 25.1
L 3.15 27.25
Q 3.2 27.95 3.8 28.55 5.4 37.5 6.15 42.35 7.25 50.05 7.55 56.45 8.1 61.85 8.1 69.05 8.1 73.1 8.1 81.9 8.6 89.4 11.45 83.05 13.65 78.1 16.75 66.35
L 16.2 66.75
Q 15.55 67 15.05 66.6 14.75 66.4 14.65 66.2
L 14.55 65.9
Q 14.4 65.75 14.3 65.3
L 14.35 65.2 14.25 64.95
Q 14.2 64.15 14.75 63.5 15.4 62.85 16.15 62.7 17 62.55 17.55 63.15
L 17.6 63.25
Q 20.55 51.4 20.45 50.4 19.75 39.9 19 34.45 17.8 25.05 14.7 18.3 13.05 13.3 6.9 5.15 0.2 -3.7 0 2.4 9.05 14.35 13.05 24.25 18.25 37.15 16.4 49.55
L 15.6 49.2
Q 14.55 48.7 13.95 47.35 13.2 45.65 12.4 44.85 11.5 45.5 11.55 47.1 11.6 48.7 12.6 50.4 13.5 51.7 15.2 53.3 16.2 54.75 15.25 57.5 12.7 56.9 10.45 58.25 10.15 53.05 8.1 40.8 5.75 26.9 4.25 25.05
L 4 24.35 3.7 23.9 3.5 23.8
Q 3.3 23.75 3.15 23.85
M 12.05 61.45
L 11.7 61.4
Q 14.3 61 13.95 63.9 13.9 64.55 12.35 69.7 13.05 69.55 13.75 69.95 14.35 70.45 14.55 71.2 14.75 71.95 14.4 72.6 14 73.4 13.2 73.6 12.35 73.85 11.6 73.3
L 11.3 73.1 11 74.1 11 72.75
Q 10.7 72.45 10.65 72.2 10.45 71.85 10.65 71.3
L 10.95 71
Q 10.95 66.6 10.65 61.4 11 61.35 12.05 61.45 Z"/>
</g>

<g id="Parts_Sets_Gladiator_gladiatorHead_Assets_Layer_1__Compound_Path__0_Layer0_0_FILL">
<path fill="#010101" stroke="none" d="
M 54.65 11.2
Q 54.25 10.75 52.3 8.8 49.65 6.4 47.35 5 41.9 1.5 35.25 0.4 28.15 -0.75 21.25 1.3 13.25 3.7 11.2 8.65 10.9 9.35 11.4 10.45 11.9 11.6 12.65 11
L 12.8 10.9
Q 14.3 10.1 15.75 9.9 16.6 9.65 18.25 8.85
L 19.85 8.35
Q 18.2 9.1 16.4 10.25 11.65 13.5 8.35 17.85 4.6 22.55 2.6 29 0.8 34.75 0.5 41.4 0.45 42.8 0.55 45.7
L 0.35 46.45 0 52.3
Q 0 53.15 0.35 53.8 0.75 60.6 2.5 66.85
L 3.3 69.55
Q 3.1 69.1 2.6 68.95 2.1 68.85 1.65 69.1
L 1.6 69.1
Q 0.25 70.35 0.75 72.05 3.3 82 10.65 90.65 17.7 98.9 27.3 103.7 37.7 108.9 48.3 108.75 60.65 108.55 67.5 100.55 71.85 95.45 73.8 89.15 76.4 81.75 76.8 73.75 76.95 72 75.35 71 74.7 70.75 74.05 71.25 73.45 71.65 73.25 72.4
L 73.05 73.1
Q 73.05 73.7 72.85 74.15
L 72.75 74.4
Q 72.5 75.5 71.9 79.4 71.35 82.5 70.85 84.35 69.5 89.6 66.55 94.2 62.2 100.35 54.9 102.05 56.85 99.95 57.15 95.15 57.6 87.35 57.65 86.95 58.2 79.3 58.4 75.6 58.75 69.05 55.85 66.5 47.45 67.4 34.15 70.4 12.4 75.3 12.1 75.35 10 71.65 8.8 67.45 7.35 61.9 6.6 56.4
L 5.75 50.85
Q 5.6 48.9 5.45 47.85 5.2 45.95 4.55 45 5.1 44.5 5.4 43.5 5.5 43.2 5.75 41.8
L 6.6 37.85
Q 7.4 33.75 8.65 30.4 10.75 23.8 16.1 19.1 21.25 14.95 27.85 14.35 35.05 13.85 41.5 17.4 45.45 19.55 48.75 21.9 49.45 22.35 52.3 24.6 54.5 26.35 56 27.15 56.55 27.45 57.15 26.95 57.6 26.55 57.8 25.95 58.4 24.45 57.5 22.95
L 57.35 22.8
Q 56.9 21.4 55.8 20.3 56.35 19.25 56.1 18.1
L 55.85 17.35 56.3 16.75
Q 56.9 15.45 56.4 14 56 12.75 54.65 11.2
M 18.05 83.7
Q 17.3 82 15.95 80.7 18.9 78.2 26.65 76.9 36.7 75.25 37.65 74.9 45.8 72.95 49.2 72.7 52.9 72.4 54.1 73.9 55.1 75.15 54.95 78.9 54.8 81.25 54.3 88.15 53.8 89.5 54 94.35 53.75 98.55 50.95 98.9 42.35 98.7 33 94.3 24.05 90.05 18.05 83.7
M 30.2 98.45
Q 22.6 94.85 16.45 89 22.9 94.1 30.2 98.45 Z"/>
</g>

<g id="Parts_Sets_Gladiator_gladiatorHead_Assets_Layer_1__Path__8_0_0_Layer0_0_FILL">
<path fill="#FFFFFF" stroke="none" d="
M 0.1 5.5
Q 0.35 8.2 1.15 10.65 1.9 12.85 3.05 14.95 3.55 15.85 4.25 16.65 4.8 17.35 5.6 17.4 5.75 17.5 5.9 17.4 6.2 17.5 6.5 17.2 6.65 17.15 6.7 17.1
L 6.6 17.15
Q 7.25 16.65 7.4 15.85 7.6 15.05 7.25 14.35 7.5 14.8 6.95 13.55
L 6.3 12.55
Q 5.75 11.85 5.35 11.1
L 5.1 10.65
Q 5.5 11.25 5.05 10.5
L 4.6 9.65 2.95 4.6
Q 2.6 2.45 2.15 0.7 1.9 -0.05 1.3 0 0.65 0.05 0.4 0.75 -0.3 3.1 0.1 5.5 Z"/>
</g>

<g id="Parts_Sets_Gladiator_gladiatorHead_Assets_Layer_1__Path__7_0_0_Layer0_0_FILL">
<path fill="#FFFFFF" stroke="none" d="
M 19.85 0.9
Q 19.3 0 18.25 0.1 16.95 0 16.35 0 14.4 0.15 12.8 0.75 9.2 1.95 6.35 4.35 3.55 6.7 1.9 9.9 0.25 13.1 0 16.7 -0.05 17.4 0.5 17.65 1.05 17.9 1.35 17.2 3.3 11.7 7.9 7.8 10.25 5.95 13.45 4.9 14.45 4.6 16.5 4.2
L 18.15 3.8
Q 18.5 3.75 19.05 3.65 19.45 3.55 19.75 3.2 20.15 2.7 20.2 2.05 20.25 1.4 19.85 0.9 Z"/>
</g>

<g id="Parts_Sets_Gladiator_gladiatorHead_Assets_Layer_1__Path__6_0_0_Layer0_0_FILL">
<path fill="#FFFFFF" stroke="none" d="
M 28.65 24.1
Q 25.4 23 23.5 22.15 18.55 19.95 14.2 16.55 9.95 13.1 6.6 8.9 5.8 7.85 3.5 4.55
L 2.2 2.5
Q 1.4 1.6 0.55 0.2 0.35 -0.15 0.15 0.05 -0.1 0.3 0 0.6 0.65 3.6 1.65 6.3 3.05 9.3 4.6 11.5 7.75 16.3 12.4 20.15 16.75 23.8 22.15 26.45 24.8 27.75 27.6 28.55 29.05 29.05 30.45 29.1
L 31.9 28.8
Q 32.5 28.8 33.15 28.55 33.7 28.35 33.7 27.55 33.75 26.75 33.3 26.4
L 31.1 25.05
Q 29.7 24.35 28.65 24.1 Z"/>
</g>

<g id="Parts_Sets_Gladiator_gladiatorHead_Assets_Layer_1__Path__5_0_0_Layer0_0_FILL">
<path fill="#FFFFFF" stroke="none" d="
M 35.85 11.3
L 34.6 9.45
Q 33.35 5.15 28.4 2.45 24.05 0.05 19.2 0 13.8 0 8.45 2.85 3 5.7 0.1 10.15 -0.1 10.45 0.1 11.05 0.25 11.7 0.65 11.45 1.25 11.05 4.5 8.7 6.85 7 8.5 6.1 13.2 3.65 18.4 3.55 23.35 3.3 27.6 5.95 29.15 6.95 30.75 8.85 31.65 9.95 33.45 12.2
L 33.65 12.4 34.6 14.6 34.8 15.25 34.95 15.55 34.95 15.65
Q 35.1 16.15 35.35 17.25 35.55 18.25 36 18.7 36.45 19.4 37.15 18.95 37.45 18.8 37.55 18.35 38 16.3 37.15 14.35 36.55 12.6 35.85 11.3 Z"/>
</g>

<g id="Parts_Sets_Gladiator_gladiatorHead_Assets_Layer_1__Path__4_0_0_Layer0_0_FILL">
<path fill="#FFFFFF" stroke="none" d="
M 14 2.75
Q 14.2 2.05 13.85 1.45 13.45 0.55 12.1 0.25 11.4 0.05 9.9 0 6.2 0.1 3.35 2.4 1.95 3.5 0.9 5.3 0.4 6.15 0.1 7.2
L 0 8.05
Q -0.05 8.3 0 8.9 -0.1 9.5 0.35 9.7 0.75 9.9 0.9 9.25
L 1.55 8.3 2.35 6.8
Q 3.35 5.45 4.45 4.7 5.7 3.8 7.3 3.5 9.25 3.25 11.15 3.65 12.2 3.95 13.2 3.75 13.8 3.4 14 2.75 Z"/>
</g>

<g id="Parts_Sets_Gladiator_gladiatorHead_Assets_Layer_1__Path__3_0_0_Layer0_0_FILL">
<path fill="#FFFFFF" stroke="none" d="
M 6.3 1.15
Q 6.3 0.5 5.85 0.25
L 5.55 0.15
Q 5.25 -0.05 5 0
L 4.45 0.1 3.6 0.45
Q 1.9 1.3 0.8 2.85 0.15 3.85 0 4.85 -0.1 5.4 0.3 5.8 0.65 6.05 0.9 5.7
L 0.95 5.65 1.15 5.4 1.2 5.3 1.65 4.8 1.75 4.65 1.8 4.55 3 3.45 3.1 3.4 3.4 3.2 4.1 2.85 4.85 2.6
Q 5.4 2.55 5.75 2.15
L 5.9 2.05
Q 6.4 1.65 6.3 1.15 Z"/>
</g>

<g id="Parts_Sets_Gladiator_gladiatorHead_Assets_Layer_1__Path__2_0_0_Layer0_0_FILL">
<path fill="#FFFFFF" stroke="none" d="
M 9.1 2.7
Q 9.7 2.55 10 2 10.3 1.55 10.2 1 10.1 0.45 9.65 0.1 9 -0.15 8.5 0.15
L 7.7 0.45
Q 6.8 0.85 6.05 1.35 4.3 2.45 3.05 3.85 1.7 5.45 0.9 7.25 0.25 9.25 0.05 11.1 -0.05 11.6 0.35 11.8 0.75 12 0.8 11.4 1.3 9.7 2.2 8.5 3.05 7.1 4.2 5.9 5.2 4.75 6.8 3.75
L 8.3 3 9.1 2.7 Z"/>
</g>

<g id="Parts_Sets_Gladiator_gladiatorHead_Assets_Layer_1__Path__1_0_0_Layer0_0_FILL">
<path fill="#FFFFFF" stroke="none" d="
M 1.95 1.45
L 1.95 1.05
Q 1.9 0.7 1.65 0.4
L 1.45 0.15
Q 1.25 0 0.95 0
L 0.6 0.1
Q 0.35 0.25 0.3 0.45 0.1 0.75 0.1 0.9
L 0 1.5 0.05 1.9
Q 0.15 2.3 0.35 2.55
L 0.55 2.75
Q 0.7 2.95 1.05 2.95
L 1.4 2.8
Q 1.65 2.75 1.7 2.5
L 1.9 2
Q 2 1.7 1.95 1.45 Z"/>
</g>

<g id="Parts_Sets_Gladiator_gladiatorHead_Assets_Layer_1__Path__0_0_Layer0_0_FILL">
<path fill="#FFFFFF" stroke="none" d="
M 7.85 0.65
Q 7.75 0.3 7.45 0.05 7.2 -0.05 6.8 0 6.4 0.15 6.15 0.2
L 5.6 0.35 5.05 0.65
Q 4 1.3 2.95 2.25 2.05 3 1.2 4.2
L 0.7 5.1 0.7 5.2 0.65 5.25
Q 0.45 5.45 0.35 5.8
L 0.1 6.4
Q -0.05 6.65 0.1 6.85 0.2 7.2 0.4 6.95
L 1.25 6.15 1.9 5.75 4.25 3.85 6.35 2.6 6.85 2.15
Q 7.35 1.95 7.7 1.4 7.9 1.05 7.85 0.65 Z"/>
</g>
</defs>

<g transform="matrix( 1, 0, 0, 1, 13.4,57.85) ">
<g transform="matrix( 1, 0, 0, 1, 0,0) ">
<use filter="url(#Filter_1)" xlink:href="#Parts_Sets_Gladiator_gladiatorHead_Assets_Layer_1__Path__63_0_Layer0_0_FILL"/>
</g>
</g>

<g transform="matrix( 1, 0, 0, 1, 19.05,56.9) ">
<g transform="matrix( 1, 0, 0, 1, 0,0) ">
<use filter="url(#Filter_1)" xlink:href="#Parts_Sets_Gladiator_gladiatorHead_Assets_Layer_1__Path__62_0_Layer0_0_FILL"/>
</g>
</g>

<g transform="matrix( 1, 0, 0, 1, 26.65,55.4) ">
<g transform="matrix( 1, 0, 0, 1, 0,0) ">
<use filter="url(#Filter_1)" xlink:href="#Parts_Sets_Gladiator_gladiatorHead_Assets_Layer_1__Path__61_0_Layer0_0_FILL"/>
</g>
</g>

<g transform="matrix( 1, 0, 0, 1, 58.15,75.7) ">
<g transform="matrix( 1, 0, 0, 1, 0,0) ">
<use filter="url(#Filter_1)" xlink:href="#Parts_Sets_Gladiator_gladiatorHead_Assets_Layer_1__Path__60_0_Layer0_0_FILL"/>
</g>
</g>

<g transform="matrix( 1, 0, 0, 1, 50.15,77.65) ">
<g transform="matrix( 1, 0, 0, 1, 0,0) ">
<use filter="url(#Filter_1)" xlink:href="#Parts_Sets_Gladiator_gladiatorHead_Assets_Layer_1__Path__59_0_Layer0_0_FILL"/>
</g>
</g>

<g transform="matrix( 1, 0, 0, 1, 34.6,54.05) ">
<g transform="matrix( 1, 0, 0, 1, 0,0) ">
<use filter="url(#Filter_1)" xlink:href="#Parts_Sets_Gladiator_gladiatorHead_Assets_Layer_1__Path__58_0_Layer0_0_FILL"/>
</g>
</g>

<g transform="matrix( 1, 0, 0, 1, 42.4,51.45) ">
<g transform="matrix( 1, 0, 0, 1, 0,0) ">
<use filter="url(#Filter_1)" xlink:href="#Parts_Sets_Gladiator_gladiatorHead_Assets_Layer_1__Path__57_0_Layer0_0_FILL"/>
</g>
</g>

<g transform="matrix( 1, 0, 0, 1, 50.4,50.3) ">
<g transform="matrix( 1, 0, 0, 1, 0,0) ">
<use filter="url(#Filter_1)" xlink:href="#Parts_Sets_Gladiator_gladiatorHead_Assets_Layer_1__Path__56_0_Layer0_0_FILL"/>
</g>
</g>

<g transform="matrix( 1, 0, 0, 1, 71.2,49.25) ">
<g transform="matrix( 1, 0, 0, 1, 0,0) ">
<use filter="url(#Filter_1)" xlink:href="#Parts_Sets_Gladiator_gladiatorHead_Assets_Layer_1__Path__55_0_Layer0_0_FILL"/>
</g>
</g>

<g transform="matrix( 1, 0, 0, 1, 76.45,50) ">
<g transform="matrix( 1, 0, 0, 1, 0,0) ">
<use filter="url(#Filter_1)" xlink:href="#Parts_Sets_Gladiator_gladiatorHead_Assets_Layer_1__Path__54_0_Layer0_0_FILL"/>
</g>
</g>

<g transform="matrix( 1, 0, 0, 1, 79.15,76.05) ">
<g transform="matrix( 1, 0, 0, 1, 0,0) ">
<use filter="url(#Filter_1)" xlink:href="#Parts_Sets_Gladiator_gladiatorHead_Assets_Layer_1__Path__53_0_Layer0_0_FILL"/>
</g>
</g>

<g transform="matrix( 1, 0, 0, 1, 74.25,75.05) ">
<g transform="matrix( 1, 0, 0, 1, 0,0) ">
<use filter="url(#Filter_1)" xlink:href="#Parts_Sets_Gladiator_gladiatorHead_Assets_Layer_1__Path__52_0_Layer0_0_FILL"/>
</g>
</g>

<g transform="matrix( 1, 0, 0, 1, 64.1,50.4) ">
<g transform="matrix( 1, 0, 0, 1, 0,0) ">
<use filter="url(#Filter_1)" xlink:href="#Parts_Sets_Gladiator_gladiatorHead_Assets_Layer_1__Path__51_0_Layer0_0_FILL"/>
</g>
</g>

<g transform="matrix( 1, 0, 0, 1, 65.7,55.45) ">
<g transform="matrix( 1, 0, 0, 1, 0,0) ">
<use filter="url(#Filter_1)" xlink:href="#Parts_Sets_Gladiator_gladiatorHead_Assets_Layer_1__Path__50_0_Layer0_0_FILL"/>
</g>
</g>

<g transform="matrix( 1, 0, 0, 1, 66.85,61.85) ">
<g transform="matrix( 1, 0, 0, 1, 0,0) ">
<use filter="url(#Filter_1)" xlink:href="#Parts_Sets_Gladiator_gladiatorHead_Assets_Layer_1__Path__49_0_Layer0_0_FILL"/>
</g>
</g>

<g transform="matrix( 1, 0, 0, 1, 67.45,66.95) ">
<g transform="matrix( 1, 0, 0, 1, 0,0) ">
<use filter="url(#Filter_1)" xlink:href="#Parts_Sets_Gladiator_gladiatorHead_Assets_Layer_1__Path__48_0_Layer0_0_FILL"/>
</g>
</g>

<g transform="matrix( 1, 0, 0, 1, 68.45,95.75) ">
<g transform="matrix( 1, 0, 0, 1, 0,0) ">
<use filter="url(#Filter_1)" xlink:href="#Parts_Sets_Gladiator_gladiatorHead_Assets_Layer_1__Path__47_0_Layer0_0_FILL"/>
</g>
</g>

<g transform="matrix( 1, 0, 0, 1, 67.7,109.5) ">
<g transform="matrix( 1, 0, 0, 1, 0,0) ">
<use filter="url(#Filter_1)" xlink:href="#Parts_Sets_Gladiator_gladiatorHead_Assets_Layer_1__Path__46_0_Layer0_0_FILL"/>
</g>
</g>

<g transform="matrix( 1, 0, 0, 1, 68.1,72.05) ">
<g transform="matrix( 1, 0, 0, 1, 0,0) ">
<use filter="url(#Filter_1)" xlink:href="#Parts_Sets_Gladiator_gladiatorHead_Assets_Layer_1__Path__45_0_Layer0_0_FILL"/>
</g>
</g>

<g transform="matrix( 1, 0, 0, 1, 68.5,78.35) ">
<g transform="matrix( 1, 0, 0, 1, 0,0) ">
<use filter="url(#Filter_1)" xlink:href="#Parts_Sets_Gladiator_gladiatorHead_Assets_Layer_1__Path__44_0_Layer0_0_FILL"/>
</g>
</g>

<g transform="matrix( 1, 0, 0, 1, 68.05,100.9) ">
<g transform="matrix( 1, 0, 0, 1, 0,0) ">
<use filter="url(#Filter_1)" xlink:href="#Parts_Sets_Gladiator_gladiatorHead_Assets_Layer_1__Path__43_0_Layer0_0_FILL"/>
</g>
</g>

<g transform="matrix( 1, 0, 0, 1, 68.7,84.1) ">
<g transform="matrix( 1, 0, 0, 1, 0,0) ">
<use filter="url(#Filter_1)" xlink:href="#Parts_Sets_Gladiator_gladiatorHead_Assets_Layer_1__Path__42_0_Layer0_0_FILL"/>
</g>
</g>

<g transform="matrix( 1, 0, 0, 1, 68.1,105.1) ">
<g transform="matrix( 1, 0, 0, 1, 0,0) ">
<use filter="url(#Filter_1)" xlink:href="#Parts_Sets_Gladiator_gladiatorHead_Assets_Layer_1__Path__41_0_Layer0_0_FILL"/>
</g>
</g>

<g transform="matrix( 1, 0, 0, 1, 68.7,90.8) ">
<g transform="matrix( 1, 0, 0, 1, 0,0) ">
<use filter="url(#Filter_1)" xlink:href="#Parts_Sets_Gladiator_gladiatorHead_Assets_Layer_1__Path__40_0_Layer0_0_FILL"/>
</g>
</g>

<g transform="matrix( 1, 0, 0, 1, 5.5,93.1) ">
<g transform="matrix( 1, 0, 0, 1, 0,0) ">
<use filter="url(#Filter_1)" xlink:href="#Parts_Sets_Gladiator_gladiatorHead_Assets_Layer_1__Path__39_0_Layer0_0_FILL"/>
</g>
</g>

<g transform="matrix( 1, 0, 0, 1, 10.45,89.45) ">
<g transform="matrix( 1, 0, 0, 1, 0,0) ">
<use filter="url(#Filter_1)" xlink:href="#Parts_Sets_Gladiator_gladiatorHead_Assets_Layer_1__Path__38_0_Layer0_0_FILL"/>
</g>
</g>

<g transform="matrix( 1, 0, 0, 1, 85.35,88.4) ">
<g transform="matrix( 1, 0, 0, 1, 0,0) ">
<use filter="url(#Filter_1)" xlink:href="#Parts_Sets_Gladiator_gladiatorHead_Assets_Layer_1__Path__37_0_Layer0_0_FILL"/>
</g>
</g>

<g transform="matrix( 1, 0, 0, 1, 91.3,91.25) ">
<g transform="matrix( 1, 0, 0, 1, 0,0) ">
<use filter="url(#Filter_1)" xlink:href="#Parts_Sets_Gladiator_gladiatorHead_Assets_Layer_1__Path__36_0_Layer0_0_FILL"/>
</g>
</g>

<g transform="matrix( 1, 0, 0, 1, 18.45,83.7) ">
<g transform="matrix( 1, 0, 0, 1, 0,0) ">
<use filter="url(#Filter_1)" xlink:href="#Parts_Sets_Gladiator_gladiatorHead_Assets_Layer_1__Path__35_0_Layer0_0_FILL"/>
</g>
</g>

<g transform="matrix( 1, 0, 0, 1, 27,82.55) ">
<g transform="matrix( 1, 0, 0, 1, 0,0) ">
<use filter="url(#Filter_1)" xlink:href="#Parts_Sets_Gladiator_gladiatorHead_Assets_Layer_1__Path__34_0_Layer0_0_FILL"/>
</g>
</g>

<g transform="matrix( 1, 0, 0, 1, 36.05,81.05) ">
<g transform="matrix( 1, 0, 0, 1, 0,0) ">
<use filter="url(#Filter_1)" xlink:href="#Parts_Sets_Gladiator_gladiatorHead_Assets_Layer_1__Path__33_0_Layer0_0_FILL"/>
</g>
</g>

<g transform="matrix( 1, 0, 0, 1, 44.65,79.85) ">
<g transform="matrix( 1, 0, 0, 1, 0,0) ">
<use filter="url(#Filter_1)" xlink:href="#Parts_Sets_Gladiator_gladiatorHead_Assets_Layer_1__Path__32_0_Layer0_0_FILL"/>
</g>
</g>

<g transform="matrix( 1, 0, 0, 1, 5.2,90.65) ">
<g transform="matrix( 1, 0, 0, 1, 0,0) ">
<use filter="url(#Filter_2)" xlink:href="#Parts_Sets_Gladiator_gladiatorHead_Assets_Layer_1__Path__31_0_Layer0_0_FILL"/>
</g>
</g>

<g transform="matrix( 1, 0, 0, 1, 10.05,87.5) ">
<g transform="matrix( 1, 0, 0, 1, 0,0) ">
<use filter="url(#Filter_2)" xlink:href="#Parts_Sets_Gladiator_gladiatorHead_Assets_Layer_1__Path__30_0_Layer0_0_FILL"/>
</g>
</g>

<g transform="matrix( 1, 0, 0, 1, 18.45,80.1) ">
<g transform="matrix( 1, 0, 0, 1, 0,0) ">
<use filter="url(#Filter_2)" xlink:href="#Parts_Sets_Gladiator_gladiatorHead_Assets_Layer_1__Path__29_0_Layer0_0_FILL"/>
</g>
</g>

<g transform="matrix( 1, 0, 0, 1, 26.9,79.1) ">
<g transform="matrix( 1, 0, 0, 1, 0,0) ">
<use filter="url(#Filter_2)" xlink:href="#Parts_Sets_Gladiator_gladiatorHead_Assets_Layer_1__Path__28_0_Layer0_0_FILL"/>
</g>
</g>

<g transform="matrix( 1, 0, 0, 1, 34.95,77.05) ">
<g transform="matrix( 1, 0, 0, 1, 0,0) ">
<use filter="url(#Filter_2)" xlink:href="#Parts_Sets_Gladiator_gladiatorHead_Assets_Layer_1__Path__27_0_Layer0_0_FILL"/>
</g>
</g>

<g transform="matrix( 1, 0, 0, 1, 43.9,76.45) ">
<g transform="matrix( 1, 0, 0, 1, 0,0) ">
<use filter="url(#Filter_2)" xlink:href="#Parts_Sets_Gladiator_gladiatorHead_Assets_Layer_1__Path__26_0_Layer0_0_FILL"/>
</g>
</g>

<g transform="matrix( 1, 0, 0, 1, 50.7,75.25) ">
<g transform="matrix( 1, 0, 0, 1, 0,0) ">
<use filter="url(#Filter_2)" xlink:href="#Parts_Sets_Gladiator_gladiatorHead_Assets_Layer_1__Path__25_0_Layer0_0_FILL"/>
</g>
</g>

<g transform="matrix( 1, 0, 0, 1, 57.7,72.2) ">
<g transform="matrix( 1, 0, 0, 1, 0,0) ">
<use filter="url(#Filter_2)" xlink:href="#Parts_Sets_Gladiator_gladiatorHead_Assets_Layer_1__Path__24_0_Layer0_0_FILL"/>
</g>
</g>

<g transform="matrix( 1, 0, 0, 1, 63.85,47.75) ">
<g transform="matrix( 1, 0, 0, 1, 0,0) ">
<use filter="url(#Filter_2)" xlink:href="#Parts_Sets_Gladiator_gladiatorHead_Assets_Layer_1__Path__23_0_Layer0_0_FILL"/>
</g>
</g>

<g transform="matrix( 1, 0, 0, 1, 68.6,76.4) ">
<g transform="matrix( 1, 0, 0, 1, 0,0) ">
<use filter="url(#Filter_2)" xlink:href="#Parts_Sets_Gladiator_gladiatorHead_Assets_Layer_1__Path__22_0_Layer0_0_FILL"/>
</g>
</g>

<g transform="matrix( 1, 0, 0, 1, 68.15,103.45) ">
<g transform="matrix( 1, 0, 0, 1, 0,0) ">
<use filter="url(#Filter_2)" xlink:href="#Parts_Sets_Gladiator_gladiatorHead_Assets_Layer_1__Path__21_0_Layer0_0_FILL"/>
</g>
</g>

<g transform="matrix( 1, 0, 0, 1, 65.15,53.05) ">
<g transform="matrix( 1, 0, 0, 1, 0,0) ">
<use filter="url(#Filter_2)" xlink:href="#Parts_Sets_Gladiator_gladiatorHead_Assets_Layer_1__Path__20_0_Layer0_0_FILL"/>
</g>
</g>

<g transform="matrix( 1, 0, 0, 1, 67.2,64.85) ">
<g transform="matrix( 1, 0, 0, 1, 0,0) ">
<use filter="url(#Filter_2)" xlink:href="#Parts_Sets_Gladiator_gladiatorHead_Assets_Layer_1__Path__19_0_Layer0_0_FILL"/>
</g>
</g>

<g transform="matrix( 1, 0, 0, 1, 68,98.85) ">
<g transform="matrix( 1, 0, 0, 1, 0,0) ">
<use filter="url(#Filter_2)" xlink:href="#Parts_Sets_Gladiator_gladiatorHead_Assets_Layer_1__Path__18_0_Layer0_0_FILL"/>
</g>
</g>

<g transform="matrix( 1, 0, 0, 1, 67.65,107.45) ">
<g transform="matrix( 1, 0, 0, 1, 0,0) ">
<use filter="url(#Filter_2)" xlink:href="#Parts_Sets_Gladiator_gladiatorHead_Assets_Layer_1__Path__17_0_Layer0_0_FILL"/>
</g>
</g>

<g transform="matrix( 1, 0, 0, 1, 66.7,59.2) ">
<g transform="matrix( 1, 0, 0, 1, 0,0) ">
<use filter="url(#Filter_2)" xlink:href="#Parts_Sets_Gladiator_gladiatorHead_Assets_Layer_1__Path__16_0_Layer0_0_FILL"/>
</g>
</g>

<g transform="matrix( 1, 0, 0, 1, 68.7,88.9) ">
<g transform="matrix( 1, 0, 0, 1, 0,0) ">
<use filter="url(#Filter_2)" xlink:href="#Parts_Sets_Gladiator_gladiatorHead_Assets_Layer_1__Path__15_0_Layer0_0_FILL"/>
</g>
</g>

<g transform="matrix( 1, 0, 0, 1, 68.5,94) ">
<g transform="matrix( 1, 0, 0, 1, 0,0) ">
<use filter="url(#Filter_2)" xlink:href="#Parts_Sets_Gladiator_gladiatorHead_Assets_Layer_1__Path__14_0_Layer0_0_FILL"/>
</g>
</g>

<g transform="matrix( 1, 0, 0, 1, 68.1,70.45) ">
<g transform="matrix( 1, 0, 0, 1, 0,0) ">
<use filter="url(#Filter_2)" xlink:href="#Parts_Sets_Gladiator_gladiatorHead_Assets_Layer_1__Path__13_0_Layer0_0_FILL"/>
</g>
</g>

<g transform="matrix( 1, 0, 0, 1, 68.7,82.55) ">
<g transform="matrix( 1, 0, 0, 1, 0,0) ">
<use filter="url(#Filter_2)" xlink:href="#Parts_Sets_Gladiator_gladiatorHead_Assets_Layer_1__Path__12_0_Layer0_0_FILL"/>
</g>
</g>

<g transform="matrix( 1, 0, 0, 1, 14.05,55.85) ">
<g transform="matrix( 1, 0, 0, 1, 0,0) ">
<use filter="url(#Filter_2)" xlink:href="#Parts_Sets_Gladiator_gladiatorHead_Assets_Layer_1__Path__11_0_Layer0_0_FILL"/>
</g>
</g>

<g transform="matrix( 1, 0, 0, 1, 19.45,54.95) ">
<g transform="matrix( 1, 0, 0, 1, 0,0) ">
<use filter="url(#Filter_2)" xlink:href="#Parts_Sets_Gladiator_gladiatorHead_Assets_Layer_1__Path__10_0_Layer0_0_FILL"/>
</g>
</g>

<g transform="matrix( 1, 0, 0, 1, 26.5,52.3) ">
<g transform="matrix( 1, 0, 0, 1, 0,0) ">
<use filter="url(#Filter_2)" xlink:href="#Parts_Sets_Gladiator_gladiatorHead_Assets_Layer_1__Path__9_0_Layer0_0_FILL"/>
</g>
</g>

<g transform="matrix( 1, 0, 0, 1, 34.75,50.7) ">
<g transform="matrix( 1, 0, 0, 1, 0,0) ">
<use filter="url(#Filter_2)" xlink:href="#Parts_Sets_Gladiator_gladiatorHead_Assets_Layer_1__Path__8_0_Layer0_0_FILL"/>
</g>
</g>

<g transform="matrix( 1, 0, 0, 1, 42.45,49.15) ">
<g transform="matrix( 1, 0, 0, 1, 0,0) ">
<use filter="url(#Filter_2)" xlink:href="#Parts_Sets_Gladiator_gladiatorHead_Assets_Layer_1__Path__7_0_Layer0_0_FILL"/>
</g>
</g>

<g transform="matrix( 1, 0, 0, 1, 50.3,47.1) ">
<g transform="matrix( 1, 0, 0, 1, 0,0) ">
<use filter="url(#Filter_2)" xlink:href="#Parts_Sets_Gladiator_gladiatorHead_Assets_Layer_1__Path__6_0_Layer0_0_FILL"/>
</g>
</g>

<g transform="matrix( 1, 0, 0, 1, 71.4,47.1) ">
<g transform="matrix( 1, 0, 0, 1, 0,0) ">
<use filter="url(#Filter_2)" xlink:href="#Parts_Sets_Gladiator_gladiatorHead_Assets_Layer_1__Path__5_0_Layer0_0_FILL"/>
</g>
</g>

<g transform="matrix( 1, 0, 0, 1, 76.8,48.05) ">
<g transform="matrix( 1, 0, 0, 1, 0,0) ">
<use filter="url(#Filter_2)" xlink:href="#Parts_Sets_Gladiator_gladiatorHead_Assets_Layer_1__Path__4_0_Layer0_0_FILL"/>
</g>
</g>

<g transform="matrix( 1, 0, 0, 1, 74.65,72.2) ">
<g transform="matrix( 1, 0, 0, 1, 0,0) ">
<use filter="url(#Filter_2)" xlink:href="#Parts_Sets_Gladiator_gladiatorHead_Assets_Layer_1__Path__3_0_Layer0_0_FILL"/>
</g>
</g>

<g transform="matrix( 1, 0, 0, 1, 79.75,73.6) ">
<g transform="matrix( 1, 0, 0, 1, 0,0) ">
<use filter="url(#Filter_2)" xlink:href="#Parts_Sets_Gladiator_gladiatorHead_Assets_Layer_1__Path__2_0_Layer0_0_FILL"/>
</g>
</g>

<g transform="matrix( 1, 0, 0, 1, 86.35,86.5) ">
<g transform="matrix( 1, 0, 0, 1, 0,0) ">
<use filter="url(#Filter_2)" xlink:href="#Parts_Sets_Gladiator_gladiatorHead_Assets_Layer_1__Path__1_0_Layer0_0_FILL"/>
</g>
</g>

<g transform="matrix( 1, 0, 0, 1, 92.05,89.25) ">
<g transform="matrix( 1, 0, 0, 1, 0,0) ">
<use filter="url(#Filter_2)" xlink:href="#Parts_Sets_Gladiator_gladiatorHead_Assets_Layer_1__Path__0_Layer0_0_FILL"/>
</g>
</g>

<g transform="matrix( 1, 0, 0, 1, 0,0) ">
<use xlink:href="#Layer0_0_MEMBER_1_FILL"/>
</g>

<g transform="matrix( 1, 0, 0, 1, 40.4,67.35) ">
<g transform="matrix( 1, 0, 0, 1, 0,0) ">
<use filter="url(#Filter_3)" xlink:href="#Parts_Sets_Gladiator_gladiatorHead_Assets_Layer_1__Path__9_0_0_Layer0_0_FILL"/>
</g>
</g>

<g transform="matrix( 1, 0, 0, 1, 64.45,21.1) ">
<g transform="matrix( 1, 0, 0, 1, 0,0) ">
<use filter="url(#Filter_3)" xlink:href="#Parts_Sets_Gladiator_gladiatorHead_Assets_Layer_1__Compound_Path__1_0_Layer0_0_FILL"/>
</g>
</g>

<g transform="matrix( 1, 0, 0, 1, 9.2,12) ">
<g transform="matrix( 1, 0, 0, 1, 0,0) ">
<use filter="url(#Filter_3)" xlink:href="#Parts_Sets_Gladiator_gladiatorHead_Assets_Layer_1__Compound_Path__0_Layer0_0_FILL"/>
</g>
</g>

<g transform="matrix( 1, 0, 0, 1, 20.6,61.55) ">
<g transform="matrix( 1, 0, 0, 1, 0,0) ">
<use filter="url(#Filter_3)" xlink:href="#Parts_Sets_Gladiator_gladiatorHead_Assets_Layer_1__Path__8_0_0_Layer0_0_FILL"/>
</g>
</g>

<g transform="matrix( 1, 0, 0, 1, 20.6,29.85) ">
<g transform="matrix( 1, 0, 0, 1, 0,0) ">
<use filter="url(#Filter_3)" xlink:href="#Parts_Sets_Gladiator_gladiatorHead_Assets_Layer_1__Path__7_0_0_Layer0_0_FILL"/>
</g>
</g>

<g transform="matrix( 1, 0, 0, 1, 5.9,97.3) ">
<g transform="matrix( 1, 0, 0, 1, 0,0) ">
<use filter="url(#Filter_3)" xlink:href="#Parts_Sets_Gladiator_gladiatorHead_Assets_Layer_1__Path__6_0_0_Layer0_0_FILL"/>
</g>
</g>

<g transform="matrix( 1, 0, 0, 1, 25.3,2.4) ">
<g transform="matrix( 1, 0, 0, 1, 0,0) ">
<use filter="url(#Filter_3)" xlink:href="#Parts_Sets_Gladiator_gladiatorHead_Assets_Layer_1__Path__5_0_0_Layer0_0_FILL"/>
</g>
</g>

<g transform="matrix( 1, 0, 0, 1, 39.95,56.85) ">
<g transform="matrix( 1, 0, 0, 1, 0,0) ">
<use filter="url(#Filter_3)" xlink:href="#Parts_Sets_Gladiator_gladiatorHead_Assets_Layer_1__Path__4_0_0_Layer0_0_FILL"/>
</g>
</g>

<g transform="matrix( 1, 0, 0, 1, 75.65,56.8) ">
<g transform="matrix( 1, 0, 0, 1, 0,0) ">
<use filter="url(#Filter_3)" xlink:href="#Parts_Sets_Gladiator_gladiatorHead_Assets_Layer_1__Path__3_0_0_Layer0_0_FILL"/>
</g>
</g>

<g transform="matrix( 1, 0, 0, 1, 21.25,30.85) ">
<g transform="matrix( 1, 0, 0, 1, 0,0) ">
<use filter="url(#Filter_4)" xlink:href="#Parts_Sets_Gladiator_gladiatorHead_Assets_Layer_1__Path__2_0_0_Layer0_0_FILL"/>
</g>
</g>

<g transform="matrix( 1, 0, 0, 1, 32.65,29.1) ">
<g transform="matrix( 1, 0, 0, 1, 0,0) ">
<use filter="url(#Filter_4)" xlink:href="#Parts_Sets_Gladiator_gladiatorHead_Assets_Layer_1__Path__1_0_0_Layer0_0_FILL"/>
</g>
</g>

<g transform="matrix( 1, 0, 0, 1, 28.95,3.3) ">
<g transform="matrix( 1, 0, 0, 1, 0,0) ">
<use filter="url(#Filter_4)" xlink:href="#Parts_Sets_Gladiator_gladiatorHead_Assets_Layer_1__Path__0_0_Layer0_0_FILL"/>
</g>
</g>
</svg>
