
<svg xmlns="http://www.w3.org/2000/svg" version="1.1" xmlns:xlink="http://www.w3.org/1999/xlink" preserveAspectRatio="none" x="0px" y="0px" width="550px" height="400px" viewBox="0 0 550 400">
<defs>
<g id="Graphics_Symbol_257_0_Layer0_0_FILL">
<path fill="#000000" stroke="none" d="
M 14.25 -3.25
Q 11.3 -3.25 6.95 -1.25 2.2 0.85 -1.95 4.35 -12.7 13.45 -12.7 25.45 -12.25 28.9 -11.05 32.15 -8.65 38.65 -4.7 38.6 -3.8 38.6 2.6 36.25 8.95 33.85 12.1 33.8 13.8 33.8 15.15 35.1
L 17.5 37.95
Q 20.95 42.05 27.1 42 31.65 42 37.4 38.05 43.8 33.55 51.4 32.55 58.1 31.65 61.1 28.4 63.55 25.7 63.55 21.2 63.55 16.6 59.8 13.35 56.2 10.3 52.45 11.2
L 43.7 13.2
Q 41.85 12.75 38.35 8.3 35.05 4 32 3.8 30.8 3.7 29.15 2.6
L 25.85 0.15
Q 20.75 -3.25 14.25 -3.25
M 45.3 17.2
Q 49.6 15.2 52.75 15.2 55.35 15.2 57.05 15.9 59.3 16.9 59.3 19.1 59.3 24 53.6 25.85 45.75 27.45 41.5 29.1 38.75 30.2 32.85 34.65 27.45 38.75 27 38.75 25.1 38.8 19.7 34.3 14.35 29.8 11.95 29.8 5.45 29.85 0.95 32.3 -3.55 34.75 -4.7 34.75
L -6.8 31.5
Q -8.9 27.75 -8.9 25.35 -8.9 23.4 -6.8 19.35 -4.5 14.85 -1.05 10.75 8.25 -0.2 18.6 -0.25 23.7 -0.25 23.7 5.55
L 21.8 8.05 19.85 10.45 19.95 12.3 22.4 12.55
Q 24.2 12.55 28.1 10.1 32 7.65 32.6 7.65 33.45 7.65 34.85 10.85 36.5 14.7 40.25 16.85 42.5 18.55 45.3 17.2 Z"/>
</g>
</defs>

<g transform="matrix( 1, 0, 0, 1, -28.4,-10.7) ">
<g transform="matrix( 1, 0, 0, 1, 0,0) ">
<g transform="matrix( 1, 0, 0, 1, 0,0) ">
<use xlink:href="#Graphics_Symbol_257_0_Layer0_0_FILL"/>
</g>
</g>
</g>
</svg>
