
<svg xmlns="http://www.w3.org/2000/svg" version="1.1" xmlns:xlink="http://www.w3.org/1999/xlink" preserveAspectRatio="none" x="0px" y="0px" width="550px" height="400px" viewBox="0 0 550 400">
<defs>
<g id="Layer0_0_FILL">
<path fill="#010101" stroke="none" d="
M 3.15 23.85
Q 3 23.9 2.9 24.2 2.75 24.7 2.8 25.1
L 3.15 27.25
Q 3.2 27.95 3.8 28.55 5.4 37.5 6.15 42.35 7.25 50.05 7.55 56.45 8.1 61.85 8.1 69.05 8.1 73.1 8.1 81.9 8.6 89.4 11.45 83.05 13.65 78.1 16.75 66.35
L 16.2 66.75
Q 15.55 67 15.05 66.6 14.75 66.4 14.65 66.2
L 14.55 65.9
Q 14.4 65.75 14.3 65.3
L 14.35 65.2 14.25 64.95
Q 14.2 64.15 14.75 63.5 15.4 62.85 16.15 62.7 17 62.55 17.55 63.15
L 17.6 63.25
Q 20.55 51.4 20.45 50.4 19.75 39.9 19 34.45 17.8 25.05 14.7 18.3 13.05 13.3 6.9 5.15 0.2 -3.7 0 2.4 9.05 14.35 13.05 24.25 18.25 37.15 16.4 49.55
L 15.6 49.2
Q 14.55 48.7 13.95 47.35 13.2 45.65 12.4 44.85 11.5 45.5 11.55 47.1 11.6 48.7 12.6 50.4 13.5 51.7 15.2 53.3 16.2 54.75 15.25 57.5 12.7 56.9 10.45 58.25 10.15 53.05 8.1 40.8 5.75 26.9 4.25 25.05
L 4 24.35 3.7 23.9 3.5 23.8
Q 3.3 23.75 3.15 23.85
M 12.05 61.45
L 11.7 61.4
Q 14.3 61 13.95 63.9 13.9 64.55 12.35 69.7 13.05 69.55 13.75 69.95 14.35 70.45 14.55 71.2 14.75 71.95 14.4 72.6 14 73.4 13.2 73.6 12.35 73.85 11.6 73.3
L 11.3 73.1 11 74.1 11 72.75
Q 10.7 72.45 10.65 72.2 10.45 71.85 10.65 71.3
L 10.95 71
Q 10.95 66.6 10.65 61.4 11 61.35 12.05 61.45 Z"/>
</g>
</defs>

<g transform="matrix( 1, 0, 0, 1, 0,0) ">
<use xlink:href="#Layer0_0_FILL"/>
</g>
</svg>
