
<svg xmlns="http://www.w3.org/2000/svg" version="1.1" xmlns:xlink="http://www.w3.org/1999/xlink" preserveAspectRatio="none" x="0px" y="0px" width="550px" height="400px" viewBox="0 0 550 400">
<defs>
<linearGradient id="Gradient_1" gradientUnits="userSpaceOnUse" x1="-161.4" y1="5.799999999999997" x2="-161.4" y2="235.7" spreadMethod="pad">
<stop  offset="0%" stop-color="#FFFFFF" stop-opacity="0.7529411764705882"/>

<stop  offset="100%" stop-color="#999999" stop-opacity="0.5019607843137255"/>
</linearGradient>

<g id="Layer0_0_FILL">
<path fill="url(#Gradient_1)" stroke="none" d="
M 325.9 147
Q 330 136.5 325.2 126.8 320.25 116.85 311.3 110.3 302.45 103.85 296.3 95.25 294.6 92.85 295.65 89.65 298.85 80.2 302.8 71.2 307.15 61.25 304.45 50.8 301.75 40.4 294.3 32.35 287.3 24.9 279.25 18.65
L 276.5 16.45
Q 270.6 3.05 256.1 1.05 244.2 -0.45 233.45 4.9 212 15.75 194.2 31.9 188 37.55 180.4 40.25
L 175.9 40.1 159.9 34.45
Q 144.15 29.15 128.4 34.65 113.45 39.85 104.05 52.35 97.4 61.15 92.5 71 90.65 74.75 87.6 77.65 83.95 81.1 82.15 86
L 79.7 91.15
Q 47.1 91.75 20.6 109.5 6.3 119.15 2.1 136 -4.4 161.85 12.1 182.85 21.3 194.5 33.5 203 25.25 206.4 19.7 212.85
L 19.55 213.2
Q 21.65 224.2 32.6 228.95 52.5 237.7 74.2 239.55 96.6 241.55 116.5 230.9 123.2 227.35 129.8 230.45 137.15 233.8 144.75 236.6 163.5 243.45 183.5 241.9 208.25 240.1 232.3 234.75 247.2 231.45 261.6 225.85 272 221.75 279.8 214.25 284.4 209.85 283.85 203.5 283.2 195.7 280.5 188.5 296.6 193.4 308.3 181.25 318.85 170.3 323.5 155.4
L 325.9 147
M 24.2 210.95
L 24.25 210.75
Q 24.3 212.15 24.2 210.95 Z"/>
</g>
</defs>

<g transform="matrix( 1, 0, 0, 1, 0,0) ">
<use xlink:href="#Layer0_0_FILL"/>
</g>
</svg>
