
<svg xmlns="http://www.w3.org/2000/svg" version="1.1" xmlns:xlink="http://www.w3.org/1999/xlink" preserveAspectRatio="none" x="0px" y="0px" width="550px" height="400px" viewBox="0 0 550 400">
<defs>
<radialGradient id="Gradient_1" gradientUnits="userSpaceOnUse" cx="0" cy="0" r="125.05000000000001" fx="0" fy="0" gradientTransform="matrix( 1, 0, 0, 1, 80.25,101.85) " spreadMethod="pad">
<stop  offset="41.1764705882353%" stop-color="#FF9900"/>

<stop  offset="100%" stop-color="#FFFF00" stop-opacity="0"/>
</radialGradient>

<g id="Graphics_Symbol_779_0_Layer0_0_FILL">
<path fill="#E6E600" stroke="none" d="
M 116.8 72.5
L 117.9 72.2
Q 111.2 61.5 99.15 55.25 81.2 45.95 61.9 52.05 42.65 58.2 33.35 76.15 24.05 94.1 30.15 113.4 36.3 132.7 54.25 142 72.2 151.3 91.45 145.15 104.3 141.1 112.75 131.75
L 113.25 131.75
Q 114.8 131.75 116.15 128.9
L 117.15 126.05 120.05 121.1
Q 127.1 107.45 125.3 93.05
L 125.4 92.95 125.75 92.6
Q 124.35 90.4 123.3 86.3
L 121.55 79.4
Q 120 74.65 116.8 72.55
L 116.8 72.5
M 104.9 80.05
L 109.65 93.55
Q 103.5 98.95 94.8 101.6 82 81.05 104.9 80.05 Z"/>
</g>

<g id="Parts_Heads_headsMC_11_Layer9_0_FILL">
<path fill="url(#Gradient_1)" stroke="none" d="
M 146.9 90.15
Q 142.45 86.15 143.05 80.25 145.2 58.8 163.35 45.45 145 40.1 125.8 40 97.55 39.9 106.2 11.4 86.8 17.85 75.05 34.45
L 70.25 34.7
Q 48.85 27.1 39.5 5.9 33.65 19.55 36.85 33.95
L 39.1 33.95 40.6 46.3 38.6 48.1
Q 13.5 30.9 -15.9 22.6 -7.2 58.8 13.6 88.2 -0.35 100.8 -17.9 107.45 7.65 117.05 29.45 132.95 23 152.6 21.2 173.1
L 25 172.55
Q 34.1 165.7 45.65 165.15
L 46.25 163.6 55.35 161.95 57.3 163.15
Q 57.8 185.5 73.3 197.75
L 83.75 178.9
Q 88.3 170.6 94.85 168.75 112.85 163.75 133.5 172.05 130.25 162.15 127.35 151.6 125.95 146.35 129.5 142.8 149.95 122.3 178.05 109.8 160.5 102.65 146.9 90.15
M 99.15 55.25
Q 111.2 61.5 117.9 72.2
L 125.85 70.15 130.3 70.2 137.25 86.8 136.4 89.6
Q 135.25 92.85 131.75 92.9
L 134.15 91.55 126.25 94.25 125.2 92.2
Q 127.35 107.05 120.05 121.1
L 116.65 126.8 117.1 127.2 116.8 129.3 115.35 128.6
Q 106.4 140.4 91.45 145.15 72.2 151.3 54.25 142 36.3 132.7 30.15 113.4 24.05 94.1 33.35 76.15 42.65 58.2 61.9 52.05 81.2 45.95 99.15 55.25 Z"/>

<path fill="#000000" stroke="none" d="
M 103.1 135.3
Q 105.95 133.85 104.3 132.15 93.15 137.8 86.75 135.35 81.75 133.45 79.6 126.6 88.5 124.9 86.75 135.35 93.15 123 82.75 122.6 98.45 120.3 115.35 128.6
L 116.8 129.3 117.1 127.2 116.65 126.8
Q 93.55 107.75 75.6 124.2 77.75 148.55 103.1 135.3
M 93.15 66.55
Q 93.85 66.6 94.45 66.1 78.55 58.95 74.35 76.05
L 77.3 76.6
Q 82.05 68.65 93.15 66.55
M 117.9 72.2
L 116.8 72.5 116.15 75.85 118 76.2 119 77.95
Q 114.75 77.85 111.85 80.85
L 110.15 83.1 105.35 75.5
Q 94.45 74.15 84.1 79.1
L 84.6 80.45 86.7 80.9 86.55 91.1
Q 66.35 80.8 56.6 99.9
L 59.1 100.35
Q 61.2 98.15 63.75 96.5 74.75 89.1 86.85 94.45
L 92.85 107.6 114.5 98.95 112.15 87.7 120.35 82.85 125.2 92.2 126.25 94.25 134.15 91.55 131.75 92.9
Q 135.25 92.85 136.4 89.6
L 137.25 86.8 130.3 70.2 125.85 70.15 117.9 72.2
M 104.95 80
L 109.7 93.5
Q 103.55 98.9 94.85 101.55 82.05 81 104.95 80
M 128.1 89.1
L 128 88.8 128.15 88.75 121.35 76
Q 125 74.55 128.6 73.05
L 133 87.4 128.1 89.1 Z"/>
</g>

<g id="Parts_Heads_headColorMC_11_Layer1_0_FILL">
<path fill="#00CC33" stroke="none" d="
M 128.1 88.8
L 128.05 89.15 132.95 87.45 128.55 73.1 121.3 76.05 128.1 88.8
M 109.65 93.55
L 104.9 80.05
Q 82 81.05 94.8 101.6 103.5 98.95 109.65 93.55 Z"/>
</g>
</defs>

<g transform="matrix( 1, 0, 0, 1, -62.75,-76.85) ">
<g transform="matrix( 1, 0, 0, 1, 0,0) ">
<g transform="matrix( 1, 0, 0, 1, 0,0) ">
<use xlink:href="#Graphics_Symbol_779_0_Layer0_0_FILL"/>
</g>
</g>

<g transform="matrix( 1, 0, 0, 1, 0,0) ">
<use xlink:href="#Parts_Heads_headsMC_11_Layer9_0_FILL"/>
</g>

<g id="hat1" transform="matrix( 0.983917236328125, -0.17529296875, 0.17529296875, 0.983917236328125, 45.2,78.25) ">
<g id="colorMC" transform="matrix( 0.9999847412109375, 0, 0, 0.9999847412109375, 0,0) "/>

<g id="colorMC2" transform="matrix( 1, 0, 0, 1, 0,0) "/>
</g>

<g id="hat2" transform="matrix( 0.9733734130859375, -0.2247314453125, 0.2247314453125, 0.9733734130859375, 38,60.6) ">
<g id="colorMC_FL" transform="matrix( 0.9999847412109375, 0, 0, 0.9999847412109375, 0,0) "/>

<g id="colorMC2_FL" transform="matrix( 1, 0, 0, 1, 0,0) "/>
</g>

<g id="hat3" transform="matrix( 0.96026611328125, -0.2753753662109375, 0.2753753662109375, 0.96026611328125, 26,48.4) ">
<g id="colorMC_FL_FL" transform="matrix( 0.9999847412109375, 0, 0, 0.9999847412109375, 0,0) "/>

<g id="colorMC2_FL_FL" transform="matrix( 1, 0, 0, 1, 0,0) "/>
</g>

<g id="hat4" transform="matrix( 0.944580078125, -0.3252410888671875, 0.3252410888671875, 0.944580078125, 18.85,34.5) ">
<g id="colorMC_FL_FL_FL" transform="matrix( 0.9999847412109375, 0, 0, 0.9999847412109375, 0,0) "/>

<g id="colorMC2_FL_FL_FL" transform="matrix( 1, 0, 0, 1, 0,0) "/>
</g>
</g>

<g transform="matrix( 1, 0, 0, 1, -75.4,-101.9) ">
<g transform="matrix( 1, 0, 0, 1, 0,0) ">
<use xlink:href="#Parts_Heads_headColorMC_11_Layer1_0_FILL"/>
</g>
</g>

<g transform="matrix( 1, 0, 0, 1, -62.75,-76.85) ">
<g transform="matrix( 1, 0, 0, 1, 0,0) ">
<g transform="matrix( 1, 0, 0, 1, 0,0) ">
<use xlink:href="#Graphics_Symbol_779_0_Layer0_0_FILL"/>
</g>
</g>
</g>
</svg>
