
<svg xmlns="http://www.w3.org/2000/svg" version="1.1" xmlns:xlink="http://www.w3.org/1999/xlink" preserveAspectRatio="none" x="0px" y="0px" width="550px" height="400px" viewBox="0 0 550 400">
<defs>
<g id="Layer0_0_FILL">
<path fill="#B10101" stroke="none" d="
M 14.4 -58.7
L 17 -59.25
Q 18.45 -59.55 19.25 -60.8
L 19.2 -60.75
Q 20 -62 19.75 -63.4
L 17.95 -71.95
Q 17.65 -73.4 16.45 -74.15 15.2 -74.95 13.8 -74.65
L -11.35 -69.4
Q -12.75 -69.15 -13.55 -67.95
L -13.9 -67.3 -14.4 -67.7
Q -15.65 -68.5 -17.05 -68.2
L -39.8 -63.45
Q -41.2 -63.2 -42 -62
L -42.05 -61.95
Q -42.85 -60.7 -42.5 -59.25
L -42.5 -59.3 -40.75 -51.05
Q -40.5 -49.65 -39.25 -48.85
L -39.25 -48.9
Q -38.05 -48.1 -36.65 -48.35
L -36.6 -48.35 -36 -48.5 -29.85 -19.2 -30.5 -19.05 -30.45 -19.05
Q -31.9 -18.8 -32.7 -17.6
L -32.75 -17.55
Q -33.55 -16.3 -33.2 -14.85
L -33.2 -14.9 -31.6 -7.35
Q -31.35 -5.95 -30.1 -5.15
L -30.1 -5.2
Q -28.9 -4.4 -27.5 -4.65
L -6.55 -9
Q -5.15 -9.3 -4.3 -10.5
L -4.35 -10.5
Q -3.55 -11.75 -3.8 -13.15
L -5.5 -21.3
Q -5.8 -22.7 -7 -23.5 -8.25 -24.3 -9.65 -24
L -10.95 -23.75 -11.6 -26.95 -8 -31 -1.7 -25.25
Q -2.5 -24.85 -2.95 -24.1
L -2.95 -24.15
Q -3.75 -22.9 -3.45 -21.5
L -3.45 -21.45 -1.8 -13.6
Q -1.55 -12.2 -0.3 -11.4
L -0.3 -11.45
Q 0.9 -10.65 2.3 -10.9
L 26.1 -15.85
Q 27.5 -16.15 28.35 -17.35
L 28.35 -17.4
Q 29.15 -18.65 28.8 -20.05
L 28.85 -20 27.15 -28
Q 26.8 -29.45 25.65 -30.2 24.4 -31 23.05 -30.7
L 23 -30.7 21.15 -30.35 3.45 -44.5 14.4 -58.7
M 16.3 -62.7
L 12.4 -61.9 -1.4 -43.9 20.25 -26.6 23.7 -27.3 25.4 -19.3 1.6 -14.35 -0.05 -22.2 4.35 -23.1 4 -24.75 -8.25 -36 -15.4 -27.95 -13.65 -19.65 -8.95 -20.6 -7.25 -12.45 -28.2 -8.1 -29.8 -15.65 -25.75 -16.5 -33.3 -52.65 -37.35 -51.8 -39.1 -60.05 -16.35 -64.8 -14.6 -56.55 -20.8 -55.25 -17.05 -37.3 -2.3 -59.3 -8.95 -57.9 -10.65 -66 14.5 -71.25 16.3 -62.7
M -10.9 -55
L -10.8 -54.9 -9.75 -54.45 -15.3 -46.15 -16.65 -52.55 -13.85 -53.1 -13.9 -53.1
Q -12.5 -53.4 -11.7 -54.55
L -11.3 -55.3 -10.9 -55 Z"/>
</g>
</defs>

<g transform="matrix( 1, 0, 0, 1, 0,0) ">
<use xlink:href="#Layer0_0_FILL"/>
</g>
</svg>
