
<svg xmlns="http://www.w3.org/2000/svg" version="1.1" xmlns:xlink="http://www.w3.org/1999/xlink" preserveAspectRatio="none" x="0px" y="0px" width="550px" height="400px" viewBox="0 0 550 400">
<defs>
<g id="Layer0_0_FILL">
<path fill="#000000" stroke="none" d="
M 8.3 -93.6
L 1.85 -93.75 -8.45 -92.95 -4.4 -92.6
Q -10.55 -92.3 -16.6 -90.55 -32.25 -85.95 -44.05 -74.45 -59.7 -59.15 -65.4 -37.9 -70.25 -19.75 -64.9 -1.9
L -63.95 1.05
Q -62.9 1.5 -61.75 2.2 -59.4 3.65 -57.35 5.55
L -57.65 5.1 -56.9 5.75
Q -47.45 14 -32.25 14
L -26.75 13.5 -17.65 11.9 -17.5 11.7
Q -2.8 10.35 14.65 2.95 25.55 -1.6 35.35 -7 43.85 -9.75 53.9 -18.65 61.6 -25.4 63.45 -29.85
L 66.45 -32.95
Q 67.5 -46.25 66.95 -47.55
L 60.2 -60.25
Q 54.05 -71.6 38.3 -83.95 31.35 -89.35 8.3 -93.6
M 33.75 -9.6
L 21.75 -3.95
Q 14.3 -0.45 10.35 1.05
L 3.5 3.15
Q -1.45 4.55 -4.3 5.75 -6.65 6.75 -12.5 7.05
L -14.8 7.8
Q -24.6 11 -29.5 11
L -31.7 10.75 -32.5 10.75
Q -38.7 10.75 -47.25 6.9 -53.3 4.15 -56.75 1.55 -57.75 0.45 -61.85 -6.65
L -62.6 -7.8
Q -64.3 -16 -63.2 -24.3 -61.05 -40.65 -53.95 -55.7 -50.4 -63.2 -44.95 -69.75 -39.6 -76 -32.75 -80.65 -27.95 -83.95 -22.75 -86.5 -7.95 -93.65 14.75 -89 37.45 -84.4 54.2 -62.9 70.95 -41.45 53.35 -23.35
L 51.75 -21.8
Q 50.05 -20.35 48.15 -19.2
L 47.15 -16.8 49.6 -18.2 46.9 -16.4
Q 46.4 -15.7 45.75 -15.35
L 41.75 -13.45
Q 38.2 -11.6 33.75 -9.6 Z"/>
</g>
</defs>

<g transform="matrix( 1, 0, 0, 1, 0,0) ">
<use xlink:href="#Layer0_0_FILL"/>
</g>
</svg>
