
<svg xmlns="http://www.w3.org/2000/svg" version="1.1" xmlns:xlink="http://www.w3.org/1999/xlink" preserveAspectRatio="none" x="0px" y="0px" width="550px" height="400px" viewBox="0 0 550 400">
<defs>
<g id="Layer0_0_FILL">
<path fill="#000000" stroke="none" d="
M 20.5 92.65
L 20.5 68.65 66.15 114.35 79.3 101.2 33.65 55.5 57.65 55.5 57.65 36.95 1.9 36.95 1.95 92.65 20.5 92.65
M 131.85 0
L 92.45 39.4 105.6 52.55 122.55 35.55 122.55 100.15 141.15 100.15 141.15 35.55 158.1 52.5 171.25 39.4 131.85 0
M 262.55 133.85
Q 262.55 129.75 259.6 126.75 256.65 123.75 252.6 123.75
L 9.9 123.75
Q 5.7 123.75 2.85 126.75 0 129.7 0 133.85
L 0 318.75
Q 0 323.05 2.85 326.1 5.7 329.15 9.9 329.15
L 252.6 329.15
Q 256.65 329.15 259.6 326.1 262.55 323 262.55 318.75
L 262.55 133.85
M 123.95 259.35
L 123.95 259.85 124.1 259.85
Q 127.05 262.65 131.25 262.65 135.45 262.65 138.3 259.85 186.8 211.1 242.5 155.6
L 242.5 308.8 20 308.8 20 155.55
Q 43.7 179.1 104.85 240.45
L 123.95 259.35
M 37 144.05
L 225.5 144.05 131.4 238.3
Q 68.55 175.35 37 144.05
M 243.1 92.65
L 261.7 92.65 261.7 36.95 206 36.95 206 55.5 230 55.5 184.3 101.2 197.45 114.35 243.1 68.65 243.1 92.65 Z"/>
</g>
</defs>

<g transform="matrix( 1, 0, 0, 1, 0,0) ">
<use xlink:href="#Layer0_0_FILL"/>
</g>
</svg>
