
<svg xmlns="http://www.w3.org/2000/svg" version="1.1" xmlns:xlink="http://www.w3.org/1999/xlink" preserveAspectRatio="none" x="0px" y="0px" width="550px" height="400px" viewBox="0 0 550 400">
<defs>
<g id="Graphics_Symbol_300_0_Layer1_0_FILL">
<path fill="#000000" stroke="none" d="
M -27.1 9.1
L -26.95 10.6
Q -27.1 13.4 -23.05 14.35 -19 15.25 -20.85 7.5 -22.8 -0.4 -17.35 -2.25 -11.85 -4.1 -4.7 9.7
L 2.45 23.65
Q 2.45 12.7 -2.1 5.2 -6.65 -1.9 -12.25 -5.4 -27.1 -14.9 -27.1 9.1
M 17.45 -22
Q 14.45 -22.7 16.65 -18.6 18.85 -14.1 16.4 -5.4 13.9 0.55 13.9 5.05
L 14.45 13.4 14.85 16 15.1 15.05
Q 16.8 11.55 18.5 9.35 17.95 6.9 17.95 5.2
L 19.15 -3.2
Q 20.3 -10.95 22.25 -12.7 24.2 -14.35 22.4 -17.9 20.45 -21.4 17.45 -22
M 3.4 -2.4
L 3.25 -9.9 -3.65 -21.75
Q 6.75 -21.6 7.55 -14.55 8.2 -7.6 10.4 -7.25 12.6 -7.1 12.6 -11.35 12.6 -17.7 2.05 -25.35 -8.45 -33.35 -4.95 -19.55 -1.55 -5.75 -0.55 -5.95 0.4 -6.3 0 -5.6 -0.55 -4.8 2.6 9.1 6.1 22.9 8.2 22.9 10.55 22.9 10.55 18.85
L 3.4 -2.4 Z"/>
</g>

<g id="Graphics_Symbol_300_0_Layer0_0_FILL">
<path fill="#A3495E" stroke="none" d="
M -18.5 -5.95
Q -22.3 -5.95 -23.95 -2.6 -25.8 0.9 -25.8 8.9 -25.8 12.7 -25.65 10.85 -24.6 12.1 -22 12.7 -21.75 12.5 -22.15 9.5
L -22.65 3.9
Q -22.65 0.2 -20.35 -2.25 -18.35 -4.1 -15.9 -4.1 -15 -4.1 -10.95 -0.15 -5.6 5.2 -1.2 13.05
L 0.65 16.75
Q -0.4 10.4 -6.15 2.6 -12.65 -5.95 -18.5 -5.95
M -4.55 -25.1
Q -7.3 -23.05 -2.35 -23.25
L 1.55 -23.6
Q -2.85 -26.6 -4.55 -25.1
M 11.05 -9.3
L 11.3 -10.8 11.2 -14.35
Q 10.8 -14.35 8.2 -17.7 9.9 -10.25 10.55 -9.1
L 11.05 -9.3
M 2.05 -5.05
L 2.05 -8.2 -1.2 -14.7 -3.25 -18.4
Q -1.3 -10.95 0.65 -5.2 3 1.45 8.2 21.05 9.25 23.05 9.25 19.35 9.25 17.35 5.7 6.7 2.05 -3.9 2.05 -5.05
M 17.55 -20.1
L 18.35 -18.05
Q 19.15 -15.6 19.15 -13.4 19.15 -6.9 17.45 -1.9 15.35 3.9 15.25 5.05
L 15.6 11
Q 15.9 8.4 17.85 -0.55 20.2 -11.35 22 -14.9 20.2 -17.9 17.55 -20.1 Z"/>
</g>

<g id="Graphics_Symbol_301_0_Layer2_0_FILL">
<path fill="#000000" stroke="none" d="
M 59.25 11.65
Q 54.3 5.5 46.6 3.15 31.25 -1.55 17.3 11.65
L 17.05 11.65 16.15 12.8 13.95 15 10.8 18.65 2.6 18.65
Q -6.25 17.25 -9.25 16.05
L -10.05 16.05 -10.05 15.8 -14.2 15.8 -14.2 16.7 -14.35 17.25
Q -14.35 18.15 -13.95 18.4
L -13.8 18.55 -14.2 23.2
Q -14.05 27 -11.35 29.6 -3.15 37.55 29.3 37.55 46.1 37.55 54.85 35.85
L 56.5 35.6 56.65 35.6 57.7 35.85
Q 60.95 35.85 62.75 30.65 64.05 27 64.05 24.15 64.05 17.5 59.25 11.65
M 43.25 4.7
Q 51.95 4.7 57.45 12.95 61.45 18.9 61.45 23.85 61.45 27.4 57.8 32.35
L 45.2 33.1
Q 43 34.55 29.3 34.55 6.9 34.55 -3.25 31.05 -10.15 28.55 -10.55 24.9 -10.8 23.35 -10.55 19.05
L -4.95 19.95
Q 1.8 21.15 2.45 21.5
L 11.6 21.5
Q 13 20.35 17.2 13.85
L 17.7 13.05 18.25 12.15
Q 26.05 4.7 43.25 4.7 Z"/>
</g>

<g id="Graphics_Symbol_301_0_Layer1_0_FILL">
<path fill="#000000" fill-opacity="0.25098039215686274" stroke="none" d="
M 55.1 7.6
Q 49.5 3.05 42.45 3.05 38.55 3.05 30.35 5.35 19.55 8.35 16.8 12.4 12.75 18.25 2.1 18
L -9.75 16.95
Q -12.9 20.5 -12.9 22.85 -12.9 27.9 -6.9 31.55 0.8 36.35 15.35 36.35
L 57.7 34.55
Q 60.3 34.55 61.6 31.8 62.75 29.35 62.75 25.7 62.75 13.7 55.1 7.6
M 49.35 8.75
Q 56.4 14.6 56.4 19.55 56.4 26.1 50.65 28.3 45.05 30.4 28.8 30.4 7.55 30.4 1.3 28.3 -8.85 26.45 -7.05 22.15
L -7.4 21.65
Q 12.25 27.5 19.25 19.95 26.2 12.4 29.7 9.65 33.2 6.8 37.75 4.85 42.3 2.9 49.35 8.75 Z"/>
</g>

<g id="Graphics_Symbol_301_0_Layer0_0_FILL">
<path fill="#FFFFFF" fill-opacity="0.25098039215686274" stroke="none" d="
M 44.8 12.95
Q 44.8 12.05 43.25 5.5 32.45 6.05 26.45 12.05
L 26.7 12.45 27.35 12.95 44.8 12.95 Z"/>
</g>
</defs>

<g transform="matrix( 1, 0, 0, 1, -28.4,-10.7) ">
<g transform="matrix( 1, 0, 0, 1, 0,0) ">
<g transform="matrix( 1, 0, 0, 1, 0,0) ">
<use xlink:href="#Graphics_Symbol_300_0_Layer1_0_FILL"/>
</g>

<g transform="matrix( 1, 0, 0, 1, 0,0) ">
<use xlink:href="#Graphics_Symbol_300_0_Layer0_0_FILL"/>
</g>
</g>

<g transform="matrix( 1, 0, 0, 1, 0,0) ">
<g transform="matrix( 1, 0, 0, 1, 0,0) ">
<use xlink:href="#Graphics_Symbol_301_0_Layer2_0_FILL"/>
</g>

<g transform="matrix( 1, 0, 0, 1, 0,0) ">
<use xlink:href="#Graphics_Symbol_301_0_Layer1_0_FILL"/>
</g>

<g transform="matrix( 1, 0, 0, 1, 0,0) ">
<use xlink:href="#Graphics_Symbol_301_0_Layer0_0_FILL"/>
</g>
</g>
</g>
</svg>
