
<svg xmlns="http://www.w3.org/2000/svg" version="1.1" xmlns:xlink="http://www.w3.org/1999/xlink" preserveAspectRatio="none" x="0px" y="0px" width="550px" height="400px" viewBox="0 0 550 400">
<defs>
<g id="Layer0_0_FILL">
<path fill="#010101" stroke="none" d="
M 128.3 40.6
Q 131.3 46.6 132.3 48 129.75 32.4 118.35 18.5 105.9 3.3 92.6 4 80.3 -0.6 66.35 0.05 52.5 0.75 40.1 6.4 27.15 12.3 18.35 22.45 8.9 33.4 5.7 47.7 5.7 47.6 5.65 47.55 5.55 47.45 5.5 47.6 3 48.7 0.35 56.15 -0.5 58.65 0.35 57.85 1.4 56.9 4.6 51.2 4.7 54.8 5.1 53.9 8.3 39.35 22.15 24.6 37.55 8.1 55.5 4.6 65.4 2.8 80.95 6.35 89.5 8.3 104.1 12.3 113.65 14.85 122.4 29.55 124.75 33.5 128.3 40.6 Z"/>
</g>
</defs>

<g transform="matrix( 1, 0, 0, 1, 0,0) ">
<use xlink:href="#Layer0_0_FILL"/>
</g>
</svg>
