
<svg xmlns="http://www.w3.org/2000/svg" version="1.1" xmlns:xlink="http://www.w3.org/1999/xlink" preserveAspectRatio="none" x="0px" y="0px" width="550px" height="400px" viewBox="0 0 550 400">
<defs>
<linearGradient id="Gradient_1" gradientUnits="userSpaceOnUse" x1="35.45" y1="1.2999999999999972" x2="35.45" y2="142.5" spreadMethod="pad">
<stop  offset="0%" stop-color="#000000" stop-opacity="0"/>

<stop  offset="100%" stop-color="#000000" stop-opacity="0.25098039215686274"/>
</linearGradient>

<filter id="Filter_1" x="-20%" y="-20%" width="140%" height="140%" color-interpolation-filters="sRGB">
<feColorMatrix in="SourceGraphic" type="matrix" values="1 0 0 0 0 0 1 0 0 0 0 0 1 0 0 0 0 0 0.25 0" result="result1"/>
</filter>

<filter id="Filter_2" x="-20%" y="-20%" width="140%" height="140%" color-interpolation-filters="sRGB">
<feColorMatrix in="SourceGraphic" type="matrix" values="1 0 0 0 0 0 1 0 0 0 0 0 1 0 0 0 0 0 0.5 0" result="result1"/>
</filter>

<g id="MovieClips_Symbol_587_0_Layer0_0_FILL">
<path fill="#000000" stroke="none" d="
M 59.95 37.15
Q 54.45 0 46 0 24.95 0 14.5 25.5 10.95 34.15 9.1 44.8 7.75 52.45 7.75 57.35 7.75 60.15 8.5 62
L 9 60.8
Q 8.9 73.15 6.05 98.2
L 3.1 124.4
Q 0 130 0 130.85 0 132.35 0.4 132.45
L 0.75 132.5 2.2 132.55 3.85 132.55
Q 44 133.4 52.4 136.65 54.8 137.55 58 140.4 61.3 143.25 66.25 145.25
L 67 144 67 99
Q 63 57.75 59.95 37.15
M 19.25 84.75
Q 16.9 86.9 15.5 94.75 13.8 104.15 12.75 106.5
L 8.55 114.65 9.75 107.9
Q 11.5 96.2 11.5 80.85 11.5 64.8 9.75 54.3 11.7 40.15 15.6 28.85 24.95 2 45 2 53 2 59.3 59.8 62.45 88.75 64 118.25
L 63.75 140.5
Q 57.85 137.05 56.15 136.2 53.95 135.15 50.3 134.7 34.05 133.3 5.1 129.1
L 4.95 129.05 5.2 128.1
Q 12.15 119.1 15.2 106.45 17.7 91.55 19.25 84.75 Z"/>
</g>

<g id="MovieClips_Symbol_623_0_Layer0_0_FILL">
<path fill="#000000" fill-opacity="0.25098039215686274" stroke="none" d="
M 61.7 48.9
Q 55.2 0 46 0 31.5 0 20.35 14.9 7.75 31.75 7.75 58.7 7.75 60.55 8.3 61.6
L 8.8 62.5 8.45 69.7 5.85 99.8
Q 5 110.65 3.15 123.3 2.25 127.85 1 129.15 0 130.15 0 130.85 0 132.1 0.15 132.2
L 2.8 132.45 29.2 133.45
Q 42.05 134.35 49.3 136.4 58.6 139.05 66.25 145.25
L 67 119.95
Q 67 88.5 61.7 48.9
M 30.5 27.25
Q 33.8 27.45 39.4 35.5 44.1 42.3 46.25 47.8 49.25 55.55 49.85 62.85 50.15 66.65 49.95 70 50.85 81.5 52.8 99.4 54.25 112.55 54.25 116.45 54.25 119.95 49.75 121.5 44.6 123.25 31.55 123.25
L 24.75 122.65 15.7 121.7
Q 20.25 118.4 22.25 116.05 24.95 112.95 25.85 109.1
L 29.55 92.7
Q 31 86 31 84.1 31 79.35 29 74 26.6 67.65 23.25 67.65 20.4 67.65 17.55 71.35
L 13.35 77.45
Q 19.9 53.05 24.15 41.65 25.25 38.6 30.5 27.25
M 14.65 78.15
L 12.4 81.2 16.2 75.7 16.1 76 14.65 78.15 Z"/>
</g>

<g id="MovieClips_Symbol_625_0_Layer0_0_FILL">
<path fill="#FFFFFF" fill-opacity="0.25098039215686274" stroke="none" d="
M 11 9.65
Q 11 8.1 12.2 5.5
L 13.35 2.7
Q 13.35 1.35 12.4 0 8.65 0.5 4.15 7.8 0 14.5 0 18
L 0.3 20.2
Q 0.2 20.3 0.05 20.35
L 0.55 20.45
Q 4.3 20.45 5.05 19.55 5.45 18.25 6.1 17.55 10.85 23.2 12.05 25.3 13.6 27.95 13.6 31
L 11.15 50.35
Q 8.65 69.15 8.65 74.1 8.65 75.95 10.4 77.15 12.6 78.65 16.8 78.65 20.9 78.65 20.9 75.35
L 17.75 70.1 19.75 51.75
Q 21.75 33.35 21.75 30.35 21.75 24.95 16.4 18.8
L 12.7 14.4
Q 11 11.9 11 9.65 Z"/>
</g>

<g id="Graphics_Symbol_560_0_Layer0_0_FILL">
<path fill="url(#Gradient_1)" stroke="none" d="
M 55.1 18.15
Q 54.25 14 51.35 7.8 48.3 1.25 46 1.25 35.6 1.25 26.2 8.95 9.65 22.5 9.65 54.3
L 10.55 64.45
Q 11.4 74.25 11.4 80.8 11.4 94.95 8.45 103.85 5.5 112.7 6.75 115.35
L 8.15 118.75 8.2 119.9 7.85 121.15 7.45 123.15 5 129.1
Q 27.6 132.75 48.95 134.75 54.9 136.5 57.95 138.75 60.95 141 65.65 142.5 66.75 125.1 61.35 73.7 55.95 22.25 55.1 18.15 Z"/>
</g>
</defs>

<g transform="matrix( 1, 0, 0, 1, -33.5,-72.6) ">
<g transform="matrix( 1, 0, 0, 1, 0,0) ">
<g transform="matrix( 1, 0, 0, 1, 0,0) ">
<use filter="url(#Filter_1)" xlink:href="#MovieClips_Symbol_587_0_Layer0_0_FILL"/>
</g>
</g>

<g transform="matrix( 1, 0, 0, 1, 0,0) ">
<g transform="matrix( 1, 0, 0, 1, 0,0) ">
<use filter="url(#Filter_2)" xlink:href="#MovieClips_Symbol_623_0_Layer0_0_FILL"/>
</g>
</g>

<g transform="matrix( 1, 0, 0, 1, 25,39.6) ">
<g transform="matrix( 1, 0, 0, 1, 0,0) ">
<use filter="url(#Filter_2)" xlink:href="#MovieClips_Symbol_625_0_Layer0_0_FILL"/>
</g>
</g>
</g>

<g transform="matrix( 1, 0, 0, 1, -32.9,-71.25) ">
<g transform="matrix( 1, 0, 0, 1, 0,0) ">
<g transform="matrix( 1, 0, 0, 1, 0,0) ">
<use xlink:href="#Graphics_Symbol_560_0_Layer0_0_FILL"/>
</g>
</g>
</g>

<g transform="matrix( 1, 0, 0, 1, -33.5,-72.6) ">
<g transform="matrix( 1, 0, 0, 1, 0,0) ">
<g transform="matrix( 1, 0, 0, 1, 0,0) ">
<use xlink:href="#Graphics_Symbol_560_0_Layer0_0_FILL"/>
</g>
</g>
</g>
</svg>
