
<svg xmlns="http://www.w3.org/2000/svg" version="1.1" xmlns:xlink="http://www.w3.org/1999/xlink" preserveAspectRatio="none" x="0px" y="0px" width="550px" height="400px" viewBox="0 0 550 400">
<defs>
<linearGradient id="Gradient_1" gradientUnits="userSpaceOnUse" x1="35.45" y1="1.2999999999999972" x2="35.45" y2="142.5" spreadMethod="pad">
<stop  offset="0%" stop-color="#000000" stop-opacity="0"/>

<stop  offset="100%" stop-color="#000000" stop-opacity="0.25098039215686274"/>
</linearGradient>

<g id="Graphics_Symbol_560_0_Layer0_0_FILL">
<path fill="url(#Gradient_1)" stroke="none" d="
M 55.1 18.15
Q 54.25 14 51.35 7.8 48.3 1.25 46 1.25 35.6 1.25 26.2 8.95 9.65 22.5 9.65 54.3
L 10.55 64.45
Q 11.4 74.25 11.4 80.8 11.4 94.95 8.45 103.85 5.5 112.7 6.75 115.35
L 8.15 118.75 8.2 119.9 7.85 121.15 7.45 123.15 5 129.1
Q 27.6 132.75 48.95 134.75 54.9 136.5 57.95 138.75 60.95 141 65.65 142.5 66.75 125.1 61.35 73.7 55.95 22.25 55.1 18.15 Z"/>
</g>
</defs>

<g transform="matrix( 1, 0, 0, 1, -33.5,-72.6) ">
<g transform="matrix( 1, 0, 0, 1, 0,0) ">
<g transform="matrix( 1, 0, 0, 1, 0,0) ">
<use xlink:href="#Graphics_Symbol_560_0_Layer0_0_FILL"/>
</g>
</g>
</g>
</svg>
