
<svg xmlns="http://www.w3.org/2000/svg" version="1.1" xmlns:xlink="http://www.w3.org/1999/xlink" preserveAspectRatio="none" x="0px" y="0px" width="550px" height="400px" viewBox="0 0 550 400">
<defs>
<g id="Layer0_0_FILL">
<path fill="#010101" stroke="none" d="
M 4.4 1.15
Q 4.45 0.75 4.25 0.35 4.05 -0.1 3.65 0.05 3.45 0.1 3.35 0.3
L 3.25 0.4 3.1 0.5 3.05 0.55 3.05 0.6 2.35 0.85
Q 2 0.9 1.7 0.85
L 1.85 0.9 1.35 0.85 1.2 0.8 1.1 0.8 0.95 0.75 0.9 0.75 0.6 0.45
Q 0.5 0.15 0.2 0.35
L 0.1 0.4
Q -0.1 0.75 0.05 1.15 0.4 1.85 0.85 2.3 1.2 2.65 1.4 2.75
L 2.1 2.9 2.75 2.8
Q 3.1 2.75 3.4 2.5 4.15 2.05 4.4 1.15 Z"/>
</g>
</defs>

<g transform="matrix( 1, 0, 0, 1, 0,0) ">
<use xlink:href="#Layer0_0_FILL"/>
</g>
</svg>
