
<svg xmlns="http://www.w3.org/2000/svg" version="1.1" xmlns:xlink="http://www.w3.org/1999/xlink" preserveAspectRatio="none" x="0px" y="0px" width="550px" height="400px" viewBox="0 0 550 400">
<defs>
<g id="Layer0_0_FILL">
<path fill="#000000" stroke="none" d="
M 45.4 -2.4
Q 28.25 -2.35 23.4 -0.5 21.6 0.25 19.8 1.85
L 15.65 4.8
Q 7.8 9.6 2.15 17.25 -6.4 28.8 -10.4 43.5 -13.2 53.9 -14.65 70.85 -15.15 76.6 -15.5 91.4
L -15.75 109.5
Q -15.55 128.75 -4.35 138.15 5.9 146.7 27.8 148.55 59.4 151.4 76.25 129.25 81.95 121.7 85.35 112.15 87.65 105.4 88.1 100.55 88.65 93.55 86.15 86.05 84.75 81.8 80.35 72.95 76.15 64.35 74.7 59.25 72.2 51.15 72.9 43.2 73.15 40.5 75.15 34 77.35 27.5 77.6 24.45 79.95 -2.45 45.4 -2.4
M 73.35 33.6
Q 71.25 40.6 71 43.3 70.3 51.25 72.75 59.65 74.4 65.15 78.45 73.85 82.95 83.35 84.15 86.95 86.7 94.2 86.15 100.3 85.85 104.15 83.65 110.4 80.5 119.65 75.05 127 58.6 149.25 27.85 146.55 16.65 145.55 8.25 142.75 1.55 140.55 -2.05 137.65 -6.85 133.6 -10.15 127.9 -12.5 123.7 -13.25 118.3 -13.85 114.6 -13.75 108.75
L -13.5 90.95
Q -13.25 76.9 -12.85 70.95 -10.6 46.05 -1.55 28.2 13.7 -1.9 43.75 -0.2
L 54.1 0.7
Q 68.4 1.05 73.45 11.2 76.3 17.05 75.7 24.4 75.5 26.55 73.35 33.6 Z"/>
</g>
</defs>

<g transform="matrix( 1, 0, 0, 1, 0,0) ">
<use xlink:href="#Layer0_0_FILL"/>
</g>
</svg>
