
<svg xmlns="http://www.w3.org/2000/svg" version="1.1" xmlns:xlink="http://www.w3.org/1999/xlink" preserveAspectRatio="none" x="0px" y="0px" width="550px" height="400px" viewBox="0 0 550 400">
<defs>
<g id="Layer0_0_FILL">
<path fill="#000000" fill-opacity="0.25098039215686274" stroke="none" d="
M 33.1 -1.05
L 33.1 -2
Q 12.05 2.05 -2.5 26.2 -8.55 36.25 -12 47.65 -15.25 58.55 -15.25 67.55 -15.25 70.85 -14.5 76.55 -13.75 82.3 -13.75 87.05
L -14.75 94.8
Q -15.75 103.15 -15.75 106.9 -15.75 130.55 0.9 140.55 13.25 148 35.4 148 57.45 148 72.2 132.5 86.1 117.9 86.1 98.35 86.1 89.95 78.6 69.75 71.1 49.6 71.1 49.1
L 74.55 37.9
Q 77.95 26.35 77.95 18.6 77.95 11.45 74.2 7.45 67.3 0.1 47.6 -1.15
L 47.2 -1.05 33.1 -1.05
M 48.15 11.8
Q 55.35 11.8 60.35 14.9 66.5 18.7 66.5 25.9 66.5 33.35 60.35 40.95
L 56.1 46.4
Q 54.15 49.35 54.15 51.95 54.15 57.5 57.4 62.4 59 64.8 64.6 70.7 69.6 76 71.8 80 75.05 86 75.05 93.4 75.05 99.6 71.5 107.45 68 115.35 62.05 122.3 47.85 138.85 31.6 138.85 13.25 138.85 3.5 126.6 -6.8 113.65 -6.8 87.75 -6.8 77.15 -5.45 70.7 -4.35 65.65 -1.65 60.3
L 4.15 49.1
Q 8.1 40.7 11.5 29.8 14.15 21.1 23.3 16.55 32.65 11.8 48.15 11.8 Z"/>
</g>
</defs>

<g transform="matrix( 1, 0, 0, 1, 0,0) ">
<use xlink:href="#Layer0_0_FILL"/>
</g>
</svg>
