
<svg xmlns="http://www.w3.org/2000/svg" version="1.1" xmlns:xlink="http://www.w3.org/1999/xlink" preserveAspectRatio="none" x="0px" y="0px" width="550px" height="400px" viewBox="0 0 550 400">
<defs>
<g id="Layer0_0_FILL">
<path fill="#010101" stroke="none" d="
M 34.85 0
Q 34.65 0.2 34.65 0.45
L 34.55 0.75 34.55 0.8
Q 33.35 4.4 33.65 10.2 33.65 10.6 33.85 11.6
L 33.85 12.1
Q 33.95 13.8 34.55 16.2 34.65 16.5 34.75 17
L 33.45 17.85
Q 31.2 17.8 28.05 20 27 20.7 23.35 23.75 20.5 26.15 19.05 27.4 16.45 29.65 14.85 31.45 12.15 32.1 10.85 32.25
L 7.85 32.25
Q 9.1 30.85 9.75 28.75
L 10.15 27.55
Q 10.25 27.45 10.25 27.05
L 11.35 23.05
Q 11.75 22.25 11.85 21.75
L 11.95 21.25 12.25 20.55
Q 12.35 20.4 12.25 19.85 12.15 19.3 12.05 19.45 11.15 20.35 10.75 21.45
L 9.65 23.45 7.25 26.95
Q 6.6 27.95 6.35 28.75
L 3.95 32.05
Q 3.2 33.15 2.85 33.55 2.1 34.3 1.25 34.65
L 1.05 35.05
Q 0.5 35.05 0.15 35.25 -0.05 35.4 0 36.15 0.05 36.9 0.25 37.05 0.65 37.4 2.25 37.85 3.95 38.3 4.55 38.35 7.5 38.95 8.9 39.05 11.75 39.25 13.3 39.15 14.6 38.95 15 38.55 15.5 38.2 15.5 37.05 15.65 36.95 16.5 36.25
L 16.65 35.95
Q 17.85 35.15 18.35 34.55 18.45 34.45 18.65 33.85 21.55 30.95 22.65 30.05 23.55 29.35 24.05 28.95
L 24.05 29.25
Q 24.35 30.5 24.4 30.55
L 24.55 31.15
Q 24.55 31.35 24.75 31.35
L 24.85 31.35
Q 24.95 31.35 24.95 31.05
L 24.95 30.25 24.75 29.55 24.65 29.35 24.65 29.25 24.55 29.05 24.55 28.75
Q 25.05 28.35 26.05 27.75 26.05 28.45 26.15 28.85 26.15 29.25 26.35 29.65
L 26.45 29.95
Q 26.45 30.15 26.65 30.15
L 26.75 30.05 26.75 29.75
Q 26.75 29.25 26.65 28.95
L 26.25 28.15 26.25 27.55 28.25 26.25 28.55 27.55 28.85 28.05
Q 28.95 28.05 28.95 27.65 28.95 27.25 28.85 27.05 28.85 26.85 28.75 26.85
L 28.55 26.25 28.45 26.05 30.15 24.95
Q 30.15 25.25 30.35 25.85
L 30.45 26.35 30.65 26.75
Q 30.75 26.85 30.75 26.75 30.85 26.75 30.85 26.45
L 30.85 25.85
Q 30.85 25.55 30.65 25.15
L 30.55 24.95 30.55 24.85 32.25 23.65
Q 32.25 23.95 32.35 24.05 32.6 24.85 32.75 25.05
L 33.05 25.65
Q 33.05 25.85 33.25 25.85
L 33.35 25.95
Q 33.45 26.05 33.45 25.65
L 33.45 25.05 33.35 24.85 33.25 24.55 32.85 23.75
Q 34.15 22.75 34.35 22.45
L 34.45 22.25
Q 34.55 22.25 34.55 22.15 35 21.85 35.95 21.3 36.8 20.8 37.15 20.25 36.9 17.5 36.55 17.3 36.55 16.3 36.25 16.3
L 35.95 16.3
Q 34.9 13.75 34.75 13.1 34.4 12 34.25 10.95
L 34.35 7.7
Q 34.35 6.7 34.15 5.1 34.5 3.2 34.55 2.1
L 34.65 2 34.85 1.5
Q 34.95 1.25 34.95 0.75
L 34.95 0.25 34.85 0 Z"/>
</g>
</defs>

<g transform="matrix( 1, 0, 0, 1, 0,0) ">
<use xlink:href="#Layer0_0_FILL"/>
</g>
</svg>
