
<svg xmlns="http://www.w3.org/2000/svg" version="1.1" xmlns:xlink="http://www.w3.org/1999/xlink" preserveAspectRatio="none" x="0px" y="0px" width="550px" height="400px" viewBox="0 0 550 400">
<defs>
<g id="MovieClips_Symbol_264_49_Layer1_0_FILL">
<path fill="#67481F" stroke="none" d="
M 21.35 18.35
Q 19.35 19.5 10.15 17.65 -0.25 15.6 -3.7 11.3 -4.25 14.65 -4.25 16.1 -4.25 16.85 -4.15 17.4 8.65 22.5 11.05 23.05 19.75 24.9 21.35 18.35
M 5.6 34.8
Q 8.25 34.05 11.35 33.95 2.95 30.45 -3.7 24.2 -4.75 28.45 -0.7 31.3 1.55 32.9 5.6 34.8
M 9.55 30.9
Q 10.35 31.2 11.75 31.95 12.5 32.3 12.85 32.2 14.05 31.15 17.85 27.15 19.95 24.9 20.3 25.55
L 20.4 24.2
Q 16.6 24.1 14.05 27.15 11.2 30.55 9.55 30.9
M 15.05 16.55
Q 15.9 15.4 18.85 12.35 21.1 9.95 21.75 8.55 20.8 8.2 20.1 7.4 19.05 10.45 15.3 12.6 13.85 13.4 9.1 15.2 12 16.1 15.05 16.55
M 14.25 11.3
Q 16.9 9.7 19.05 7.3 18.4 7.2 7.85 6.6 1.05 6.15 -2.5 4.5 -3.15 5.35 -3.3 6.5
L -3.3 6.65
Q -3.15 6.95 -2.95 7.3 -0.1 9.1 6.2 9.6 12.4 10.05 14.25 11.3
M 23.6 8.6
Q 21.5 17.4 20.95 24.6 20 36.1 24.3 34.95 23.9 32.3 24.75 27.1 25.9 21 26.4 18.2 28.15 7.95 23.6 8.6
M 59.5 28.15
Q 56.5 33.05 56.4 33.1 56.8 34.5 57.95 34.75 58.55 34.9 59.65 35.15 59.85 34.4 60.1 33.95 62.55 30.35 63.9 25.85 61.75 24.5 59.5 28.15
M 47.05 22.3
Q 46.3 21.15 45.6 21.1 45.05 21.25 44.9 21.15 43.8 25.05 46.95 29.35 51.2 35 51.55 36.15 53.55 36.25 55.5 36.15 49.95 30.15 47.05 22.3
M 42.85 22.5
Q 43.85 19 41.55 19.95 39.35 20.9 36.4 25.05 33.05 29.8 31.3 35.55 32.65 35.55 34.45 35.8 35.75 35.85 36.35 34.9 41.75 26.6 42.85 22.5 Z"/>
</g>
</defs>

<g transform="matrix( 1, 0, 0, 1, -28.4,-10.7) ">
<g transform="matrix( 1, 0, 0, 1, 0,0) ">
<use xlink:href="#MovieClips_Symbol_264_49_Layer1_0_FILL"/>
</g>
</g>
</svg>
