
<svg xmlns="http://www.w3.org/2000/svg" version="1.1" xmlns:xlink="http://www.w3.org/1999/xlink" preserveAspectRatio="none" x="0px" y="0px" width="550px" height="400px" viewBox="0 0 550 400">
<defs>
<g id="Layer0_0_FILL">
<path fill="#562D4B" stroke="none" d="
M 33.7 0.15
L 31.3 1.6 31.25 1.85 31.1 1.4 29 0.15 26.1 0.6 25.45 1.75 25 1.35
Q 24.2 0.75 23.6 0.5
L 20.2 0.3
Q 18.2 0.8 17.2 2.7 16.45 4.1 16.15 6.05
L 16 7.9 16 8 15.25 7.95 15.2 7.65 15.3 2.1 13.5 0.15 11 0 9.9 0.9 9.55 0.7
Q 8.45 0.15 6.65 0.15
L 1.75 0.5 0.15 2.35 0 12.5 1.8 14.4 4.6 14.55 6.55 12.75 6.65 10.9 7.25 10.85 8.65 10.5 8.8 10.45 8.85 10.6
Q 8.9 11.9 9.25 13.1
L 11.05 14.45 17.25 14.55 17.6 14.2 18 14.6 20.45 14.45 21.9 12.9 23.65 14.5 26.4 14.5 28.25 12.5 28.25 12.6 30.1 14.4 32.9 14.45 34.8 12.55 34.8 8.9 35.4 8.2
Q 37 6 37.9 3.4
L 36.6 1 33.7 0.15
M 27.9 8.75
L 28.1 8.95 28.2 11.25 28 9.2 27.9 8.75
M 68.9 3.55
L 68.05 1.05
Q 65.55 -0.1 63.25 0 61.45 0.15 60.35 0.9
L 59.95 1.25 58.8 0.15 56.15 0.15 54.7 1.55 53 0.05 50.7 0.15 50.35 0.5 50.25 0.3 41.5 0.3 39.75 2.2 39.75 4.55 41.7 6.4 42.65 6.45 42.65 12.5 44.55 14.4 47.35 14.4 48.95 12.8 50.95 14.4 53.35 14.3 54.6 12.95 56.15 14.45 58.6 14.45 59.9 13.25 60.2 13.5 60.8 13.85
Q 62 14.5 63.95 14.5 65.8 14.5 67.85 13.65
L 68.9 11.3 68.1 9 67.6 8.75 68.1 8.15 67.8 5.9 68.9 3.55
M 122.1 6.5
L 122.9 6.5 124.85 4.6 124.85 2.2 123.1 0.3 114.4 0.3 113.7 1.05 112.85 0.7 110.9 0.2
Q 108.95 -0.1 107.6 0.2 106.85 0.3 106.2 0.8
L 106 0.95 105.1 0.55
Q 103.4 -0.1 101.45 0 99.65 0.15 98.55 0.9
L 98.15 1.2 97.35 0.3 88.6 0.3 87.5 1.5 87.3 1.35
Q 86.6 0.75 85.9 0.5
L 82.5 0.3
Q 80.55 0.8 79.55 2.7 78.8 4.1 78.5 6.05 78.35 6.8 78.35 7.9
L 78.35 8 77.55 7.95 77.6 2.1 75.8 0.15 73.35 0 71.35 1.65
Q 70.95 4.5 70.95 7.15
L 71.15 10.6
Q 71.3 12.05 71.6 13.1
L 73.35 14.45 79.55 14.55 79.95 14.2 80.35 14.6 82.75 14.45 84.25 12.9 86 14.5 88.75 14.5 90.2 12.95 91.6 14.4 94.45 14.4 96.35 12.5 96.3 10.4 97.05 11.95
Q 97.8 13.2 99.05 13.85 100.2 14.5 102.2 14.5 104 14.5 106.05 13.65
L 106.2 13.3 107.45 14 109.95 14.55 112.8 14.1
Q 114.3 13.5 115.15 12.25
L 115.45 11.6 115.5 11.45 115.5 12.5 117.4 14.4 120.25 14.4 122.15 12.5 122.1 6.5
M 115.55 6.45
L 115.55 7.2 115 6.45 115.55 6.45
M 180.65 11.3
L 179.85 9 179.35 8.75 179.85 8.15 179.55 5.9 180.65 3.55 179.75 1.05
Q 177.35 -0.1 174.95 0 173.2 0.15 172.1 0.9
L 171.7 1.2 170.65 0.15 167.95 0 166.95 1 166.75 0.85
Q 165.95 0.35 165.4 0.25 163.8 -0.1 162.5 0.6
L 161.95 0.95 160.9 0 156.2 0 154.3 1.85 154.25 4.4 155.45 5.65 155.5 8.15 154.6 8 153.5 7.95 153.45 7.65 153.55 2.1 151.75 0.15 149.25 0 148.65 0.55 148.25 0.15 145.55 0 144.5 1 144.3 0.85 143 0.25
Q 141.4 -0.1 140.1 0.6
L 139.05 1.4 138.7 1.8 138.1 1.3
Q 137.05 0.55 135.75 0.25
L 132.55 0.1
Q 130.35 0.4 128.85 2 127.35 3.45 127 5.7 126.7 7.75 127.05 9.15 127.35 10.9 128.55 12.25 129.7 13.7 131.85 14.2
L 133.5 14.4 135.15 14.3
Q 136.25 14.15 137.55 13.4
L 138.1 13.05 139.55 14.45 141.85 14.45 143.65 12.7 143.8 13.15 145.65 14.4 148.3 14.35 148.65 13.95 149.3 14.45 155.5 14.55 155.85 14.2 156.05 14.4 161.05 14.5 161.5 14.05 161.95 14.45 164.3 14.45 166.05 12.7 166.2 13.15 168.05 14.4 170.7 14.35 171.75 13.3 171.95 13.5 172.55 13.85
Q 173.75 14.5 175.7 14.5 177.5 14.5 179.55 13.65
L 180.65 11.3
M 134.25 6.85
L 134.2 7.65 134.15 7.85 133.85 8 133.7 7.95 133.55 7.85 133.45 7.8 133.45 6.85 133.6 6.45 133.9 6.45 134.1 6.55 134.25 6.85
M 233.4 6.35
L 234.25 3.85 233.3 1.6
Q 231.2 0.45 229.4 0.2 227.35 -0.1 226.05 0.2 225.25 0.35 224.7 0.8
L 224.5 0.95 223.55 0.55
Q 221.85 -0.1 219.9 0 217.05 0.15 215.75 2.25
L 215.35 2.9 215 2.25 214.5 1.55
Q 213.1 -0.1 210.85 0.2 210.05 0.25 209.35 0.75
L 209.05 1 208.4 0.55
Q 207.4 -0.05 206 0.15 204.2 0.35 203.1 2.05
L 202.45 3.2 202.05 2.55
Q 200.95 1.05 199.5 0.5
L 196.1 0.3
Q 195.05 0.6 194.35 1.2
L 193.75 1.8 193 1.2 192 0.65 189.75 0.1
Q 188.3 0 187.1 0.45 185.9 0.8 184.65 1.95 183.35 3.15 182.95 5.4 182.6 7.5 182.9 9.25 183.2 11.15 184.3 12.5 185.4 13.75 186.9 14.2
L 189.6 14.25 190.1 14.1 190.55 14.5 193 14.4 193.35 14.05 193.95 14.6 196.35 14.45 197.85 12.9 199.6 14.5 202.35 14.5 202.65 14.2 202.85 14.45 205.55 14.55 206.8 13.4 207.9 14.4 210.25 14.45 211.55 13.25 212.85 14.4 215.75 14.4 216.7 13.3 216.9 13.5 217.5 13.85
Q 218.7 14.5 220.65 14.5 222.45 14.5 224.5 13.65
L 224.7 13.3 225.9 14 228.45 14.55 231.3 14.1
Q 232.7 13.55 233.6 12.25 234.25 11.05 234.45 9.5 234.5 8.1 233.95 7.05
L 233.4 6.35 Z"/>
</g>
</defs>

<g transform="matrix( 1, 0, 0, 1, 0,0) ">
<use xlink:href="#Layer0_0_FILL"/>
</g>
</svg>
