
<svg xmlns="http://www.w3.org/2000/svg" version="1.1" xmlns:xlink="http://www.w3.org/1999/xlink" preserveAspectRatio="none" x="0px" y="0px" width="550px" height="400px" viewBox="0 0 550 400">
<defs>
<g id="Layer0_0_FILL">
<path fill="#FFFFFF" stroke="none" d="
M 28.65 24.1
Q 25.4 23 23.5 22.15 18.55 19.95 14.2 16.55 9.95 13.1 6.6 8.9 5.8 7.85 3.5 4.55
L 2.2 2.5
Q 1.4 1.6 0.55 0.2 0.35 -0.15 0.15 0.05 -0.1 0.3 0 0.6 0.65 3.6 1.65 6.3 3.05 9.3 4.6 11.5 7.75 16.3 12.4 20.15 16.75 23.8 22.15 26.45 24.8 27.75 27.6 28.55 29.05 29.05 30.45 29.1
L 31.9 28.8
Q 32.5 28.8 33.15 28.55 33.7 28.35 33.7 27.55 33.75 26.75 33.3 26.4
L 31.1 25.05
Q 29.7 24.35 28.65 24.1 Z"/>
</g>
</defs>

<g transform="matrix( 1, 0, 0, 1, 0,0) ">
<use xlink:href="#Layer0_0_FILL"/>
</g>
</svg>
