
<svg xmlns="http://www.w3.org/2000/svg" version="1.1" xmlns:xlink="http://www.w3.org/1999/xlink" preserveAspectRatio="none" x="0px" y="0px" width="550px" height="400px" viewBox="0 0 550 400">
<defs>
<g id="Layer0_0_FILL">
<path fill="#000000" fill-opacity="0.14901960784313725" stroke="none" d="
M 77.15 165.55
L 77 164.6 76.5 164.15 77.15 165.55
M 90.05 97.45
L 89.6 98.65
Q 92.8 102.2 93.7 104 94.1 104.9 94.1 106.25 94.1 107.2 93.2 122.85
L 93.5 130
Q 92.65859375 128.0173828125 92.6 127.9 92.6 127.95 92.35 128 92.1 128.15 92.1 128.55 92.1 130.5416015625 93.1 132.9
L 91.5 131.9 91.1 133.7
Q 95.0287109375 136.9951171875 97.25 138.85 96.5146484375 139.994140625 95.5 141.55 94.6095703125 142.5888671875 93.6 143.35 93.51328125 143.229296875 93.4 143.15 93.0607421875 143.531640625 92.8 143.95 90.1220703125 145.75 86.75 145.75 81.25 145.75 74.1 134.95 70.6994140625 129.7822265625 69.1 126.35 68.998046875 124.53125 68.95 122.4 68.85 117.6 67.85 117.35 66.75 119.1 65.85 122.85 65.05 126.15 65.05 127.65 65.05 139.9 74.4 148.65 77.5 151.6 81.1 153.6 84 155.2 84.9 155.2 87.15 155.2 89.75 153.8 91.1623046875 153.0123046875 91.95 152.25
L 92 152.25
Q 92.083984375 152.1765625 92.15 152.05 92.7193359375 151.4884765625 92.95 150.95 92.8880859375 150.9412109375 92.8 150.9 93.0015625 150.583984375 93.2 150.15 94 148.35 94 147.75 94.35 145.75 94.35 145.1 94.1123046875 144.255078125 93.85 143.75 94.5919921875 143.2029296875 95.35 142.55 97.1916015625 140.9658203125 98.3 139.7 99.6123046875 140.803515625 100.05 141.15 101.85 142.45 103.1 142.45 104 142.45 105.25 141.95 104.48828125 141.124609375 103.8 140.35 107.7431640625 139.7376953125 109.8 135.75 111.25 130.95 111.25 130.85 111.25 130.15 110.4 128 109.6599609375 126.0619140625 108.8 125.5 109.2580078125 126.34140625 109.6 128.1 109.9 129.75 109.9 130.9 109.9 131.649609375 109.8 132.35 109.7529296875 132.0810546875 109.55 132 109.2 131.95 109 131.9 108.65 132 108.2 133.05 107.4 134 105.55 134 101.95 134 98.85 129.55 97.9890625 127.983203125 97.4 126.9 97.433203125 122.3203125 98.55 117.95 99.75 113.4 99.75 111.15 99.75 106.85 96.85 103.9 92.65 100.5 90.05 97.45
M 101.8 46.45
Q 96.55 40.2 92.1 36.75 86 31.8 80 27.65 68.2 19.5 63.25 19.5 62.81484375 19.5982421875 62.4 19.7 59.1404296875 18.8162109375 53.8 17.5 47.45 15.85 47.2 15.85 41.4 15.85 34 20.6 26.55 25.45 19.95 33.45 4.1 52.65 4.1 74.95 4.1 83.6 9.5 93.55 10.501171875 95.3869140625 11.5 96.9 14.409375 99.134375 19.05 102.65 19.2974609375 102.8150390625 19.6 103.05 20.3794921875 103.148828125 21.1 103.25 20.9685546875 102.9185546875 20.85 102.55 22 103.1 26.8 104.1 33.6 105.5 35.35 108.9 35.55 109.3 39.55 113.8 42.95 117.65 42.95 119.4
L 42.8 125.55
Q 42.8 126.85 41.9 133.4 41.9 134.15 40.9 135.8 39.7 137.75 38.65 137.75 38.2 137.75 37.7 138.25 37.2 138.75 37 139.45
L 37.1 140.45 37.15 140.55
Q 37.1984375 140.7439453125 37.45 141.3 37.623828125 141.0671875 37.8 140.75
L 37.8 140.7
Q 37.8 140.78515625 37.8 140.85 37.5845703125 141.1611328125 37.45 141.3
L 37.5 141.35
Q 37.5 142.55 37.35 143.15 38.9 141.6 37.4 143.3 37.3466796875 143.3623046875 37.3 143.4 36.7212890625 146.35859375 36.1 149.8 32.85 167.95 32.7 168.5 32.3 169.9 31.65 170.05 30.65 169.9 29.8 169.8
L 29.65 172.25
Q 29.65 172.45 32.95 179.15
L 32.9 177.45
Q 33.5 177.15 34.9 177.15 36.8 177.15 37.35 178.1 37.7 178.6 37.95 180.05 38.95 182.9 45.65 182.9 55.55 182.9 63.35 179.35 72.1 175.45 72.1 169.45 72.1 168.05 71.65 167.25 71.25 166.55 70 165.6 58.15 172.05 53.3 173.9 48.7 175.65 43.8 175.65 39.8 175.65 38.45 173.35 37.7 172.05 37.7 169 37.7 168.161328125 38.05 165.65 41.1583984375 159.426953125 43.5 146.3 43.587890625 145.80078125 43.65 145.3 44.4466796875 142.8888671875 45.25 140.05 48.75 127.5 48.75 121.55 48.75 112.45 45.75 105.1 44.0712890625 101.0314453125 41.15 96.65 40.744140625 95.946484375 40.3 95.25 39.2740234375 93.5974609375 38.1 92.15 34.15 87.2 26.85 81.9 22.2 79.4 17.85 77.75 20.3 62.75 33.35 45.6 40.55 36.1 48.85 29.5 49.117578125 29.2865234375 49.35 29.05 49.7689453125 28.9888671875 50.15 28.9 52.85 28.35 55.2 28.35 78.941015625 28.35 90 43.1 89.958984375 43.1 89.9 43.1 82.45 43.1 79.15 45.35 77.2 46.7 75.3 50.65 73.25 54.8 70.7 56.75 66.45 59.95 57.75 61.35 57.75 61.3 57.25 59.15 47.65 59.25 42 67 37.5 73.15 37.5 79.8 37.5 87.4 41.65 91.85 45.85 96.35 53.1 96.35 61.9 96.35 68.3 88.3 66 89.1 65 89.35 63.15 89.95 60.25 89.95 55.7 89.95 52.1 87.85 47.35 85.05 47.35 79.65 47.35 74.5 51.85 68.7 57.4 61.6 65.1 62.9 71.1 63.95 77.55 57.5 81.35 53.75 82.55 52.85 85.45 50.65 88.45 50.65 89.5 50.65 90 51.1 90.7 51.75 90.7 53.45 90.7 57.65 89 61.7 86.95 66.55 86.95 66.6 93.9 61.05 96.55 57.75 96.76328125 57.4833984375 96.95 57.2 97.8876953125 59.9404296875 98.9 63.05 100.85 67.05 102.2 73.85 103 77.7 104.35 85.1 106.85 96.1 106.95 96.35 107.5158203125 98.403125 108.2 100.2 108.783203125 99.9 109.55 99.9 111.9185546875 99.9 114.8 103.4 115.5171875 104.1416015625 116.1 105.1 116.1703125 105.21328125 116.2 105.3 116.6388671875 105.9068359375 117.05 106.55 119.025390625 109.6732421875 119.95 111.65 120.420703125 111.9541015625 120.75 112.15 120.75 112.21484375 120.75 112.25 120.75 112.3 121.1 114.05 121.155078125 114.2701171875 121.2 114.45 119.9984375 117.78671875 117.35 125.85 112.6 140.3 112.6 144.35 112.6 144.65 113.7 145.25 115.35 146.1 118.25 146.1 125.1 146.1 124.65 143.1 124.3625 142.4341796875 124.1 141.8 126.392578125 141.107421875 127.9 139.6 129.35 138.15 129.65 136.6 129.65 136.185546875 129.4 135.9 130.122265625 135.7533203125 131.3 135.4 131.5 135.35 131.6 135.3 131.75 135.2 131.75 134.8 131.75 134.45 131.65 134.35 131.55 134.3 131.55 134.25
L 131 134.25
Q 128.75 134.75 128.4 134.75 126.79296875 134.75 122.9 131.3 123.187109375 127.2 123.95 122.4 125.1 114.9 125.1 114.4 125.1 113.75 124.7 113.2
L 124.7 113.15
Q 124.75 112.9791015625 124.75 112.75 124.75 111.7017578125 124.25 111.05 123.365234375 107.943359375 120.7 103.6 115.95 95.85 114.35 88.5 113.65 85.25 110.2 74.8 108 68.1 108 61.65 108.5 59.1 108.5 58.5 108.5 54.4 101.8 46.45 Z"/>
</g>
</defs>

<g transform="matrix( 1, 0, 0, 1, 0,0) ">
<use xlink:href="#Layer0_0_FILL"/>
</g>
</svg>
