
<svg xmlns="http://www.w3.org/2000/svg" version="1.1" xmlns:xlink="http://www.w3.org/1999/xlink" preserveAspectRatio="none" x="0px" y="0px" width="550px" height="400px" viewBox="0 0 550 400">
<defs>
<g id="Layer0_0_FILL">
<path fill="#000000" stroke="none" d="
M 44.55 63.3
Q 45.1755859375 63.411328125 45.75 63.5 46.2837890625 68.9056640625 49.85 75.05 55.25 84.45 64.05 84.45 65.6513671875 84.45 66.25 84.2 66.7798828125 84.116796875 67 83.75 67.15 83.2 67.2 83.05 65.75 78.55 64.85 76.15 63.3 72 61.35 69.3 56.93828125 63.156640625 48.4 61.55 47.900390625 59.030078125 46.9 58.95 45.8314453125 58.8609375 45.7 61.2 45.1646484375 61.137109375 44.6 61.1
L 44.3 62.05 44.55 63.3
M 86 41.9
L 85.8 42.1
Q 85.04140625 42.116796875 84.4 42.4 83.13515625 41.98359375 81.95 42.6 82.47734375 42.92734375 83 43.4 82.59921875 43.8685546875 82.25 44.5 81.4 46.1 81.4 47.4 81.4 52.7 83.95 57 86.566796875 61.4048828125 91.45 63.85 91.4814453125 63.937890625 91.5 64
L 91.75 64
Q 92.3314453125 64.2921875 92.95 64.55
L 93.6 64.1 93.75 63.15
Q 93.6939453125 63.1025390625 93.65 63.05 93.7541015625 62.8255859375 93.85 62.55 94.15 61.7 94.15 60.9 94.15 56.4 90.15 48.95 87.977734375 44.8984375 85.95 43.3 86.2 42.816796875 86.2 42.75 86.2 41.9 86 41.9 Z"/>

<path fill="#FFFFFF" fill-opacity="0.2980392156862745" stroke="none" d="
M 34.55 96.65
Q 34.55 91.95 29.7 90.6 27.85 90.1 26.35 90.45 24.85 90.85 24.85 91.85 24.85 94.15 26.05 96.25 27.9 99.55 32 99.55 34.55 99.55 34.55 96.65
M 13.45 91.25
Q 14.5 94.8 16.8 95.75 20.05 95.35 22.05 92.3 23.5 90.1 23.5 88.6 23.5 85.45 22.45 83.05 20.55 78.5 15.7 78.5 12.75 78.5 12.75 86.6 12.75 88.95 13.45 91.25 Z"/>
</g>
</defs>

<g transform="matrix( 1, 0, 0, 1, 0,0) ">
<use xlink:href="#Layer0_0_FILL"/>
</g>
</svg>
