
<svg xmlns="http://www.w3.org/2000/svg" version="1.1" xmlns:xlink="http://www.w3.org/1999/xlink" preserveAspectRatio="none" x="0px" y="0px" width="550px" height="400px" viewBox="0 0 550 400">
<defs>
<g id="MovieClips_Symbol_637_0_Layer1_0_FILL">
<path fill="#333333" stroke="none" d="
M 81.2 49.4
Q 84.5 42.5 84.5 38.25 84.5 25.4 72 15.85 60.4 7.05 44.5 5.4 27.95 3.65 17 11.05 4.5 19.45 4.5 37.1 5.55 49.25 9.55 60.35 17.4 82.35 32 82.35 54.85 82.35 71.3 64.1 77.4 57.25 81.2 49.4 Z"/>
</g>

<g id="Graphics_Symbol_280_0_Layer2_0_FILL">
<path fill="#000000" stroke="none" d="
M 51.25 48.95
Q 56.15 44.25 59.2 38.95 62 34 62 30.7 62 21.2 56.6 14.6 49.95 6.45 34.3 1.2 20.4 -3.55 9 10.85 5.1 15.85 2.3 22.05 0 27.25 0 29.3 0 30.2 1.35 34.65 3.1 40.55 5.5 45.5 12.95 60.95 23.25 60.95 38.7 60.95 51.25 48.95
M 59.5 30.85
Q 59.5 33.5 56.8 37.95 53.85 42.7 49.25 47 37.25 58.2 23.1 58.2 14.2 58.2 8.25 44.5 6.3 40.05 5 34.75 4 30.7 4 29.55 4 15.7 12.65 8.95 17.05 5.5 22.75 4.45
L 23.35 4.35
Q 27.25 3.7 31.75 4.2 42.85 5.4 50.85 12.45 59.5 20.15 59.5 30.85
M 42 40.7
Q 48.5 35.55 48.5 31.2 48.5 21.1 42.8 15.95 37.75 11.4 30.25 11.95 22.95 12.55 17.7 17.45 12 22.8 12 30.6
L 12.5 33.35
Q 13.2 36.4 14.25 38.95 17.55 46.95 23 46.95 34.1 46.95 42 40.7
M 41.15 18.4
Q 46 22.9 46 31.2 46 33.85 39.75 38.5 32.1 44.2 22.85 44.2 20.35 44.2 17.5 39 15 34.5 15 32.6 15 24.75 19.85 19.75 24.25 15.25 30.5 14.8 36.8 14.35 41.15 18.4 Z"/>

<path fill="#CCCCCC" stroke="none" d="
M 46 31.2
Q 46 22.9 41.15 18.4 36.8 14.35 30.5 14.8 24.25 15.25 19.85 19.75 15 24.75 15 32.6 15 34.5 17.5 39 20.35 44.2 22.85 44.2 32.1 44.2 39.75 38.5 46 33.85 46 31.2 Z"/>
</g>

<g id="Graphics_Symbol_280_0_Layer1_0_FILL">
<path fill="#333333" stroke="none" d="
M 24.4 36.1
L 24.3 36.3 24.2 37.85
Q 24.2 38.6 24.6 39.35 25.2 40.6 26.6 40.6 28.45 40.6 29.15 39.3
L 29.65 37.7 29.4 36.1 25.8 35.95 24.4 36.1
M 32.4 34.55
L 32.35 35.6
Q 32.35 36.1 33.05 37.15 33.95 38.55 35.15 38.55 36.2 38.55 36.7 38.15
L 37.15 37.7
Q 37.15 35.05 36.8 34.1
L 33.85 33.95 32.6 34.1 32.4 34.55
M 20.15 29.2
Q 19.45 29.35 18.7 30 18.7 31.3 19.45 32.6
L 19.75 33.05
Q 20.8 34.45 22.45 34.45 26.25 34 26.25 31.85 26.25 30.85 25.9 30.35 25.15 29.3 23.1 29.1
L 22.1 29.05 20.15 29.2
M 28.8 22.95
L 30 23.5 34.8 23.5 36.1 22.6
Q 36.45 22.25 36.45 21.05 36.45 18.5 32.4 18.3 28.35 18.1 28.35 21.35 28.35 22.5 28.8 22.95
M 26.25 23.1
L 26.1 22 25.9 21.75 22.95 21.85
Q 22.1 22.15 22.1 23.45 22.1 23.85 23.85 25.55 24.35 25.55 25.2 24.85 26.25 24 26.25 23.1
M 42.55 27.15
L 42.35 26.6 38.7 26.75
Q 37.15 27.5 37.15 28.85 37.15 30.6 37.35 30.7
L 37.95 30.9 39.9 31.05
Q 41.75 31.05 42.35 30.2 42.7 29.7 42.7 28.6
L 42.55 27.15 Z"/>

<path fill="#CCCCCC" stroke="none" d="
M 18.7 30
Q 19.45 29.35 20.15 29.2
L 22.1 29.05 23.1 29.1 22.3 28.7
Q 20.1 27.85 16.85 28.7
L 16.8 29 16.7 30.6
Q 16.7 32.35 16.85 32.7
L 17.95 32.9 19.75 33.05 19.45 32.6
Q 18.7 31.3 18.7 30 Z"/>
</g>

<g id="Graphics_Symbol_280_0_Layer0_0_FILL">
<path fill="#FFFFFF" stroke="none" d="
M 25.05 34.05
Q 24.2 34.35 24.2 35.7
L 24.3 37.5 26.25 37.85 28 37.5 28.2 36.9 28.35 35.6 28.2 34.4 28 34.1 25.05 34.05
M 38.2 28.95
Q 38.7 28.95 39.55 28.2 40.6 27.35 40.6 26.5
L 40.45 25.4 40.25 25.2
Q 38.15 24.85 37.3 25.2 36.45 25.55 36.45 26.85 36.45 27.4 38.2 28.95
M 19.85 26.95
Q 18 28.1 18 29.55 18 31.3 18.2 31.3
L 18.5 31.5 20.1 31.65 22.15 30.5
Q 24.2 29.15 24.2 28.05
L 24.05 26.85 23.85 26.6
Q 21.85 25.75 19.85 26.95
M 24.8 24.2
L 24.85 22.9 24.7 21.25 24.55 20.45
Q 21.8 20.1 20.45 20.45
L 20.2 20.8 20.15 20.8 20.1 21.45 20.1 21.6 20.1 21.75
Q 20.1 22.55 20.8 24.1 21.8 26.25 23.15 26.25 24.25 26.25 24.5 25.9
L 24.65 25.55 24.8 24.2
M 29.1 17.85
Q 29.65 18.35 29.95 18.45
L 31.65 18.7 33.45 18.55
Q 34.4 18.2 34.45 16.95
L 34.45 16.85 34.3 15.8 34.1 15.7 34.1 15.65 29.85 15.5 29.55 15.85 28.95 16.8 29.1 17.85
M 44.55 31.5
L 44.35 31.3
Q 41.75 30 39.55 32.8
L 38.5 34.1 38.55 33.75
Q 36.8 31.7 35.25 31.85 33.95 32 32.35 33.85
L 32.55 35
Q 33.5 35.75 35.4 35.75
L 37.2 35.65 35.7 37
Q 31.5 38.8 24.65 40.25 20.8 41.05 20.8 42.75 20.8 44.5 21 44.25 23.55 44.85 24.1 45.6
L 26.95 46
Q 33.05 46 39.05 41.1 44.7 36.5 44.7 32.6
L 44.55 31.5 Z"/>

<path fill="#FFFFFF" fill-opacity="0.25098039215686274" stroke="none" d="
M 24.85 22.9
L 24.8 24.2
Q 25.8 24.1 26.95 23.2 28.35 22.1 28.35 21
L 28.2 20 28 20.3
Q 24.2 18.7 22.1 19.15 20.55 19.45 20.2 20.8
L 20.45 20.45
Q 21.8 20.1 24.55 20.45
L 24.7 21.25 24.85 22.9
M 29.55 15.85
Q 27.65 16.3 27.65 17.65 27.65 18.35 28 18.95 28.7 20.1 30.35 20.1 32.35 20.1 33.45 19.25 34.45 18.45 34.45 17.15
L 34.45 16.95
Q 34.4 18.2 33.45 18.55
L 31.65 18.7 29.95 18.45
Q 29.65 18.35 29.1 17.85
L 28.95 16.8 29.55 15.85
M 23.3 8.95
Q 24.85 8.5 24.85 7.4 24.85 4.95 18.5 7.3 12.05 9.65 9.4 13.45 9 14 7.45 17.7 5.8 21.5 5.8 22.05 5.8 23.45 7.35 23.45 8.35 23.45 9.6 20.3
L 11.15 15.95
Q 11.55 15.05 12.85 13.65 14.2 12.1 15.1 11.75 18.5 10.35 23.3 8.95 Z"/>
</g>

<g id="Graphics_Symbol_638_0_Layer2_0_FILL">
<path fill="#000000" stroke="none" d="
M 193.85 -3.6
Q 184.15 -15.75 181.2 -18.2 172.45 -25.45 149.9 -18.9 126.05 -12.1 104.2 6.15 94.4 14.5 85.25 17.9 78.4 20.75 72 21.2 65.5 21.85 51.3 18 31.4 12.6 21.55 17.45 15.7 20.3 5.55 30
L -20.25 49.8
Q -41.7 66.25 -41.95 66.65
L -46.35 77.15
Q -50.75 89 -50.65 96
L -49.75 110.65
Q -49.15 119.25 -50.25 120.85
L -66.2 132.5
Q -82.05 144.1 -86.65 150.6 -88.5 153.15 -82.7 160.3 -74.9 169.9 -74.25 171.3
L -74.3 171.8
Q -81.75 176.5 -82.15 177.1 -82.75 177.95 -81.55 179.35
L -65.6 193.35
Q -63.1 195.5 -61.25 198
L -59 200.8
Q -54.05 204.65 -35.7 192 -20.35 181.3 -21.1 179.4 -18.85 177.4 -23.7 172.45 -28.55 167.6 -32.6 159.05 -36.6 150.4 -31 142.5 -25.4 134.4 -13.15 133.35 0.05 132.15 9.75 139.65
L 14.75 144.25
Q 17.85 147.5 18.45 149.3 21.75 148.75 40.55 135.2
L 68.35 115.2
Q 79 109.55 89.7 102.75 110.75 89.5 118.2 78.75 118.9 77.7 116.4 74 112.4 68.2 111.45 66.05 107.25 57.5 109.85 48.85 110.85 44.65 113.35 40.6 118.55 32.55 130.3 32.55 147.05 32.45 167 54.05
L 167.95 54.4
Q 168.4 54.45 169.2 53.5 169.55 52.75 168.95 51.7 168.35 50.45 168.95 49.65 172.25 44.45 175.45 41.4
L 205.4 14.1
Q 205.35 10.45 193.85 -3.6
M 141.75 -9.55
L 143.65 -5.3
Q 145.3 -1.3 148.45 1.25 151.4 3.65 166.85 -2.45 169.3 1.55 171.55 3.5 172.45 4.2 177.65 2.3 183.95 0.05 190.45 -4.1
L 202.6 11.25
Q 173.65 36.9 165.7 47.2 146.95 33.05 133.5 30 117.55 26.6 110 38.45 107.85 41.75 106.75 44.9 104 51.55 105.4 57.5 106.25 61.55 114.55 76.55 95.6 92.35 75.65 105.2 48.55 122.7 19.3 144.6 3.3 131.15 -12.05 129.85 -26.15 128.75 -32.7 138.1 -39.95 148.45 -36.6 159.9 -33.5 170.8 -25.45 178.55
L -23.1 176.7
Q -42.55 193.25 -50.8 197.05 -55.25 199.1 -57.55 197.25
L -58.35 196.7 -57.95 196.2
Q -57.3 195.1 -63.1 190.55
L -77.6 179.2
Q -77.3 178.85 -73.5 176.6
L -69.4 174.1
Q -67.75 171.55 -76 163.15 -84.5 154.5 -83.2 152.6 -82.15 151 -67.05 138.55 -51.6 125.5 -49.55 125.5
L -48.55 126.35
Q -48.15 126.8 -47.85 126.7 -47.5 127.1 -46.8 126.05 -46.4 113.85 -45.1 100.8 -42.8 74.75 -38.8 68.9 -24.9 57.6 -9.05 45.7 21.2 23.2 32.55 19.2
L 32.4 19.2 32.3 19.1 32.75 19.1 32.9 19 33.5 18.75 33.6 18.2 36.35 18.35 34.6 18.75 36.45 18.75 36.2 19.4 41.9 19.7 42.1 19.2
Q 44 16.55 55.75 20 60.75 21.4 64.45 22.7
L 65.75 21.9 67.7 22.15 69.9 23.85 81.75 24.5 87.7 21.05 103.15 11.15
Q 125.85 -3.5 141.75 -9.55
M 149.75 -2.2
Q 149.45 -3.05 147 -6.3 144.45 -9.8 143.7 -10.25 158.7 -15.4 159.25 -15.4 160.65 -15.5 163.85 -11
L 163.85 -10.1
Q 163.9 -9 164.5 -7.2 159.9 -7.45 154.85 -4.9
L 149.75 -2.2
M 173.2 -0.2
L 172.5 -0.7
Q 171.5 -1.85 168.15 -9 165 -16.05 163.85 -17 172.05 -19.35 177 -17.1 181.35 -15.35 187.1 -8.1 184.85 -7.95 179.4 -4.35 176.55 -2.3 173.2 -0.2 Z"/>

<path fill="#FFFFDD" stroke="none" d="
M 172.5 -0.7
L 173.2 -0.2
Q 176.55 -2.3 179.4 -4.35 184.85 -7.95 187.1 -8.1 181.35 -15.35 177 -17.1 172.05 -19.35 163.85 -17 165 -16.05 168.15 -9 171.5 -1.85 172.5 -0.7 Z"/>

<path fill="#FFCC55" stroke="none" d="
M 147 -6.3
Q 149.45 -3.05 149.75 -2.2
L 154.85 -4.9
Q 159.9 -7.45 164.5 -7.2 163.9 -9 163.85 -10.1
L 163.85 -11
Q 160.65 -15.5 159.25 -15.4 158.7 -15.4 143.7 -10.25 144.45 -9.8 147 -6.3 Z"/>

<path fill="#000000" fill-opacity="0.5019607843137255" stroke="none" d="
M 33.5 18.75
L 33.45 19 34.6 18.75 36.35 18.35 33.6 18.2 33.5 18.75
M 33.5 19.25
L 33.45 19 32.75 19.1 32.3 19.1 32.4 19.2 32.55 19.2 33.5 19.25
M 65.75 21.9
L 64.45 22.7 75.75 25.6 74.9 30.25
Q 74.4 34.35 74.7 35.95 40.5 25.8 38.45 24.65 38.9 22.85 40.1 21.3
L 41.9 19.7 36.2 19.4
Q 34.7 23.1 34.8 24.4 34.95 26.2 37.5 28.25 41.35 31.3 59.85 35.65 77.85 39.75 78.45 38.8 82.35 33.4 81.9 29.5 81.75 28.45 80.05 25.35 80.45 25.4 81.75 24.5
L 69.9 23.85 67.7 22.15 65.75 21.9
M 90.15 87.2
L 97.7 86.2
Q 102.2 79.85 91.15 67.7 84.05 59.8 59.45 42.85 34.8 25.9 24.15 32.3 13.55 38.65 7.8 43.15 2.15 47.55 0.65 49.8 0.55 49.95 0.8 50.65
L -4.75 54.8 -6.4 55.95 -6.65 55.75
Q -8 54.75 -17.55 61.1 -27.25 67.6 -30.65 72.35 -36.2 80.5 -35.05 95.35 -34 108.4 -30.85 110.9 -29.45 112.05 -26.35 116.4
L -23 120.75
Q -20.8 122.5 -17.6 123.3 -14 124.3 -7.5 124.55 -3.85 124.85 4.1 128.3 13.5 132.3 18.95 137.3 26.2 133.7 34.5 127.8 42.65 122.15 44.55 119.7
L 44.2 120.25
Q 49.3 117.6 78.85 94.75
L 79.35 94.85 90.15 87.2
M 90.9 82.85
Q 90.55 83.2 91.3 84.75
L 90.4 85.85
Q 87.85 87.1 83.65 90.15 78.6 93.8 78.6 94.15
L 78.6 94.25 68.7 100.55
Q 45.7 114.8 47.35 116.9 30.6 98.4 19.9 76 22.2 73.3 40.6 61.4 60.75 48.35 60.95 46.35 79.75 60.35 87.6 69.05 95.55 77.75 93.4 80.1
L 90.9 82.85
M 1.55 52.15
L 14.8 73.45
Q 27.65 94 44.1 118.45 41.75 120.9 37.35 123.15 33 125.35 26 129.75 18.85 133.9 11.7 130.1 4.95 124.25 2.3 123.25 -0.85 122.15 -10.65 120.1 -20.05 118.25 -20.3 118 -21.85 116.75 -23.9 113.45
L -26.85 109.1
Q -13.45 99.95 0.5 92.2 10.3 86.9 11.2 85.65 12.35 84.05 4.45 71.05 -1.8 60.9 -5.1 57.2
L -1.75 54.85 1.55 52.15
M 18.1 72.5
Q 5.75 53.45 4.45 50.9 20.75 33.05 32.5 35.05 44.15 37.1 57.4 45.5 50.85 50.4 40.45 58.75 30.05 67.05 18.1 72.5
M -19.65 68.55
Q -11.05 62.2 -7.65 58.65 -5.35 64.75 -4.05 67.15 -0.8 73 6.8 81.15 0.45 84.55 -10.7 92.05 -23.5 100.6 -29.3 105.65 -32.3 100.1 -31.15 88.6 -30.05 78.35 -27.5 74.85
L -19.65 68.55 Z"/>
</g>

<g id="Graphics_Symbol_638_0_Layer1_0_FILL">
<path fill="#000000" fill-opacity="0.25098039215686274" stroke="none" d="
M 142.3 -1.4
Q 149.45 -4.45 157.1 -7.4 173.35 -12.95 174.1 -12.95 178.5 -12.95 184.45 -2.55 190.3 7.7 190.3 14.8 190.3 16.95 187.95 20.8 185.5 24.9 181.75 28.65 172.05 38.45 162.35 38.45 160.85 38.45 156.95 36.3 151.85 33.25 148.8 31.55 136.55 24.6 128.5 24.6 120.25 24.6 111.8 30.1 100.15 37.7 100.15 51.4 100.15 58.25 102.4 64.6 104.55 70.8 108.7 76.05
L 61.4 110.15 19.8 139.65
Q 17.1 139.65 8 134.35 -4.15 127.3 -5.3 126.75 -10 124.55 -15.7 123.55
L -21.75 122.9
Q -27.65 122.9 -34 131.25 -40.65 140.05 -40.65 149.55 -40.65 150.7 -37.9 163.75 -35.2 176.8 -35.2 177.85 -35.2 182.2 -42.85 185.75 -46.7 187.55 -50.8 188.5 -54 188.5 -57.4 187.4 -62.65 185.75 -66.8 181.85
L -61.7 177.6
Q -59 175.15 -59 172.1 -59 168.6 -62.75 164.65
L -72.65 154.15
Q -70.65 153.4 -59.05 143.6 -48.1 134.35 -44.3 130.5 -41.4 127.6 -39.3 120.55 -38.15 116.7 -32.05 91.5 -28.45 73.1 -27.55 70.9 -27 69.6 -25.25 68.45 -20.75 65.7 -19.15 64.55 -2.45 54.1 11.15 45 37.85 27.15 37.85 22.85 37.85 19.95 35.35 17.95 32.8 15.95 29.05 15.95 23.45 15.95 15.55 21.75
L -19.1 49.25
Q -34.9 61.8 -40.35 68.05 -47.8 76.5 -47.8 84.6 -47.8 87.45 -46.75 94.5 -45.7 101.55 -45.7 107.35 -45.7 123.55 -64.65 136.5
L -77.7 144.85
Q -83.65 149 -83.65 152.1
L -81.7 157.4
Q -78.35 164.2 -71.25 172.7 -72.5 174.15 -76.05 176 -78.7 177.4 -78.7 179 -78.7 181.7 -67.9 190.9 -57.05 200.1 -53.85 200.1 -24.9 187.7 -24.9 178.95
L -29.3 170.35
Q -33.75 161 -33.75 151.6 -33.75 142.05 -27 136.6 -21.8 132.4 -16.05 132.4 -5.5 132.4 5.3 138.8
L 12.85 143.15
Q 16.9 145.15 20.35 145.15 23.5 145.15 70.3 113.15 117.5 80.95 117.5 77.8 117.5 75.7 116.15 73.35
L 113.25 68.9
Q 109 62.25 109 53.4 109 46.25 113.5 40.3 119.4 32.5 130.3 32.5 135.7 32.5 151.05 38.8 157.8 41.55 161.8 45.3 164.9 48.2 165.9 48.2 167.1 48.2 178.65 37.25 190.2 26.3 191.2 26.3 191.7 26.3 192.35 26.75 192.95 27.15 193.45 27.15
L 198.45 21.9
Q 203.45 16.3 203.45 14.55 203.45 12.95 200.2 7.35 196.75 1.45 192.2 -4.55 180.1 -20.6 173.45 -20.6 168.65 -20.6 156.1 -16.25 143.35 -11.85 128.65 -5.05 91.9 12 76.9 27.45 77.5 28.25 79.35 29.25
L 80.35 27.75
Q 80.65 27.3 80.25 28.75
L 79.15 33.1
Q 78.2 36.4 78.2 37.6 78.2 38.35 78.95 38.95 79.65 39.55 80.4 39.55 83.9 39.55 95.3 30.95
L 108.2 20.75 118.7 12.7
Q 124.25 8.45 129.8 5.1
L 142.3 -1.4 Z"/>
</g>

<g id="Graphics_Symbol_638_0_Layer0_0_FILL">
<path fill="#FFFFFF" fill-opacity="0.5019607843137255" stroke="none" d="
M -63.8 180.55
Q -63.8 182.1 -62.1 183.2 -60.45 184.25 -58.1 184.25 -55.75 184.25 -54.05 183.2 -52.4 182.1 -52.4 180.55 -52.4 179 -54.05 177.95 -55.75 176.85 -58.1 176.85 -60.45 176.85 -62.1 177.95 -63.8 179 -63.8 180.55
M -34.5 127.9
Q -29.65 124.6 -32.8 122.1
L -45.05 127.95
Q -50.5 130.45 -50.5 132.3 -50.5 132.8 -50 133.1 -49.5 133.35 -49.5 133.85 -49.5 134.5 -50.2 135.1
L -52.85 137.35
Q -58.8 142.65 -68.05 155.1
L -66.75 156.7
Q -66.05 157.7 -65.45 157.7
L -61.45 156.15
Q -57.75 154.6 -57.3 154.6 -54.75 154.6 -51.8 151.25 -47.5 146.4 -43 135 -41.75 132.8 -34.5 127.9
M -3.35 76.25
Q -2.4 75.7 -2.4 74.75 -2.4 72.55 -5.1 69.75 -8.1 66.65 -11.4 66.65 -13.8 66.65 -13.8 68.8 -13.8 70.75 -11.05 73.6 -7.95 76.7 -4.8 76.7 -4.1 76.7 -3.35 76.25
M 22.9 93.15
Q 19.95 88.7 17.55 88.7 11.4 88.7 -0.7 98.4 -11.95 107.45 -11.95 109.8 -11.95 110.55 -10.75 111.2 -9.75 111.75 -9.15 111.75 -5.7 111.75 1.5 107.45 13.15 100.5 18.75 97.85 19.95 99.55 24.9 103 29.75 106.4 35.1 113.95
L 22.9 93.15
M 22.4 39.7
Q 21.3 40.65 23 42.05 27.15 45.4 36.65 45.4 38.5 45.4 39.35 44.85
L 40.3 43.8
Q 36.35 38.65 27.75 38.65 23.6 38.65 22.4 39.7
M 44.3 16.9
Q 43.2 16.9 41.65 19.1 43.6 22.1 54.35 25.4 64.9 28.7 72 28.7 75.15 28.7 75.8 27.1
L 76.35 27.35 76.3 27.25
Q 74.45 25.55 61.25 21.25 47.9 16.9 44.3 16.9
M 87.9 71.85
L 87.85 71.7 69.4 59.05
Q 63.05 54.8 60.8 54.8 59.5 54.8 50.1 61.65
L 39.45 69.4
Q 30.9 74.5 27.9 77 26.2 78.4 26.2 79.25 26.2 79.95 26.35 80.25 26.75 81.15 28.25 81.15 32.95 81.15 47.65 72.45
L 62.2 63.75 68.05 65.8 75.25 68.15 87.9 71.85
M 164.85 6.95
Q 173.4 9.75 174.75 9.75 177.3 9.75 179.3 8.7
L 182.7 6.2 181.85 3.7
Q 181.2 1.8 179.9 0.55 176.1 -3.3 165.4 -3.3 141.7 -3.3 113.1 18.5
L 94.8 33.45
Q 86.6 40.25 84.1 40.25
L 77.5 40.65
Q 71.75 41.8 71.75 45.75
L 72 48.25 74.5 48.4
Q 81.9 48.4 89.75 44.7 100.75 39.55 118.45 25.2 144.4 4.15 154.95 4.15 156.35 4.15 164.85 6.95
M 163.95 -15.5
L 176.25 -5.35 180.65 -12.2 168.35 -22.35 163.95 -15.5
M 154.2 -17.85
L 153.9 -15.95
Q 157.55 -8.8 161.15 -8.3 162.5 -8.15 163.4 -8.95 164.25 -9.7 164.25 -10.75 164.25 -12.7 161.85 -15.3 159.15 -18.25 156.1 -18.25
L 155 -18.05 154.2 -17.85 Z"/>
</g>

<g id="MovieClips_Symbol_585_14_Layer0_0_FILL">
<path fill="#99CC99" stroke="none" d="
M 143.65 -5.3
L 141.75 -9.55
Q 125.85 -3.5 103.15 11.15
L 81.75 24.5 69.9 23.85 67.7 22.15 65.75 21.9 64.45 22.7 75.75 25.6 74.9 30.25
Q 74.4 34.35 74.7 35.95 40.5 25.8 38.45 24.65 38.9 22.85 40.1 21.3
L 41.9 19.7 36.2 19.4 36.45 18.75 34.15 18.75 36.35 18.35 33.6 18.2 33.5 18.75 32.35 19.2 32.55 19.2
Q 21.2 23.2 -9.05 45.7 -24.9 57.6 -38.8 68.9 -42.8 74.75 -45.1 100.8 -46.4 113.85 -46.8 126.05 -47.5 127.1 -47.85 126.7 -48.15 126.8 -48.55 126.35
L -49.55 125.5
Q -51.6 125.5 -67.05 138.55 -82.15 151 -83.2 152.6 -84.5 154.5 -76 163.15 -67.75 171.55 -69.4 174.1
L -73.5 176.6
Q -77.3 178.85 -77.6 179.2
L -63.1 190.55
Q -57.3 195.1 -57.95 196.2
L -58.35 196.7 -57.55 197.25
Q -55.25 199.1 -50.8 197.05 -42.55 193.25 -23.1 176.7
L -25.45 178.55
Q -33.5 170.8 -36.6 159.9 -39.95 148.45 -32.7 138.1 -26.15 128.75 -12.05 129.85 3.3 131.15 19.3 144.6 48.55 122.7 75.65 105.2 95.6 92.35 114.55 76.55 106.25 61.55 105.4 57.5 104 51.55 106.75 44.9 107.85 41.75 110 38.45 117.55 26.6 133.5 30 146.95 33.05 165.7 47.2 173.65 36.9 202.6 11.25
L 190.45 -4.1
Q 183.95 0.05 177.65 2.3 172.45 4.2 171.55 3.5 169.3 1.55 166.85 -2.45 151.4 3.65 148.45 1.25 145.3 -1.3 143.65 -5.3
M 41.4 37.5
Q 49.1 40.25 57.4 45.5 50.85 50.4 40.45 58.75 30.05 67.05 18.1 72.5 5.75 53.45 4.45 50.9 20.75 33.05 32.5 35.05 36 35.7 39.7 36.9
L 41.4 37.5
M -7.65 58.65
Q -5.35 64.75 -4.05 67.15 -0.8 73 6.8 81.15 0.45 84.55 -10.7 92.05 -23.5 100.6 -29.3 105.65 -32.3 100.1 -31.15 88.6 -30.05 78.35 -27.5 74.85
L -19.65 68.55
Q -11.05 62.2 -7.65 58.65 Z"/>
</g>

<g id="MovieClips_Symbol_621_14_Layer14_0_FILL">
<path fill="#000000" stroke="none" d="
M 90.9 82.85
L 93.4 80.1
Q 95.55 77.75 87.6 69.05 79.75 60.35 60.95 46.35 60.75 48.35 40.6 61.4 22.2 73.3 19.9 76 30.6 98.4 47.35 116.9 45.7 114.8 68.7 100.55
L 78.6 94.25 78.6 94.15
Q 78.6 93.8 83.65 90.15 87.85 87.1 90.4 85.85
L 91.3 84.75
Q 90.55 83.2 90.9 82.85 Z"/>
</g>
</defs>

<g transform="matrix( 1, 0, 0, 1, -33.5,-72.6) ">
<g transform="matrix( 0.8353271484375, 0.17462158203125, -0.17462158203125, 0.8353271484375, 133.05,21.35) ">
<g transform="matrix( 1, 0, 0, 1, 0,0) ">
<use xlink:href="#MovieClips_Symbol_637_0_Layer1_0_FILL"/>
</g>

<g transform="matrix( 1.388885498046875, 0, 0, 1.388885498046875, 0,0) ">
<g transform="matrix( 1, 0, 0, 1, 0,0) ">
<g transform="matrix( 1, 0, 0, 1, 0,0) ">
<use xlink:href="#Graphics_Symbol_280_0_Layer2_0_FILL"/>
</g>

<g transform="matrix( 1, 0, 0, 1, 0,0) ">
<use xlink:href="#Graphics_Symbol_280_0_Layer1_0_FILL"/>
</g>

<g transform="matrix( 1, 0, 0, 1, 0,0) ">
<use xlink:href="#Graphics_Symbol_280_0_Layer0_0_FILL"/>
</g>
</g>
</g>
</g>

<g transform="matrix( 1, 0, 0, 1, 0,0) ">
<g transform="matrix( 1, 0, 0, 1, 0,0) ">
<use xlink:href="#Graphics_Symbol_638_0_Layer2_0_FILL"/>
</g>

<g transform="matrix( 1, 0, 0, 1, 0,0) ">
<use xlink:href="#Graphics_Symbol_638_0_Layer1_0_FILL"/>
</g>

<g transform="matrix( 1, 0, 0, 1, 0,0) ">
<use xlink:href="#Graphics_Symbol_638_0_Layer0_0_FILL"/>
</g>
</g>

<g transform="matrix( 0.969482421875, 0.20263671875, -0.20263671875, 0.969482421875, 107.95,25.7) ">
<g transform="matrix( 1, 0, 0, 1, 0,0) ">
<use xlink:href="#MovieClips_Symbol_637_0_Layer1_0_FILL"/>
</g>

<g transform="matrix( 1.388885498046875, 0, 0, 1.388885498046875, 0,0) ">
<g transform="matrix( 1, 0, 0, 1, 0,0) ">
<g transform="matrix( 1, 0, 0, 1, 0,0) ">
<use xlink:href="#Graphics_Symbol_280_0_Layer2_0_FILL"/>
</g>

<g transform="matrix( 1, 0, 0, 1, 0,0) ">
<use xlink:href="#Graphics_Symbol_280_0_Layer1_0_FILL"/>
</g>

<g transform="matrix( 1, 0, 0, 1, 0,0) ">
<use xlink:href="#Graphics_Symbol_280_0_Layer0_0_FILL"/>
</g>
</g>
</g>
</g>
</g>

<g transform="matrix( 1, 0, 0, 1, -32.9,-71.25) ">
<g transform="matrix( 1, 0, 0, 1, 0,0) ">
<use xlink:href="#MovieClips_Symbol_585_14_Layer0_0_FILL"/>
</g>
</g>

<g transform="matrix( 1, 0, 0, 1, -33.5,-72.6) ">
<g transform="matrix( 1, 0, 0, 1, 0,0) ">
<use xlink:href="#MovieClips_Symbol_621_14_Layer14_0_FILL"/>
</g>
</g>
</svg>
