
<svg xmlns="http://www.w3.org/2000/svg" version="1.1" xmlns:xlink="http://www.w3.org/1999/xlink" preserveAspectRatio="none" x="0px" y="0px" width="550px" height="400px" viewBox="0 0 550 400">
<defs>
<g id="MovieClips_Symbol_621_14_Layer14_0_FILL">
<path fill="#000000" stroke="none" d="
M 90.9 82.85
L 93.4 80.1
Q 95.55 77.75 87.6 69.05 79.75 60.35 60.95 46.35 60.75 48.35 40.6 61.4 22.2 73.3 19.9 76 30.6 98.4 47.35 116.9 45.7 114.8 68.7 100.55
L 78.6 94.25 78.6 94.15
Q 78.6 93.8 83.65 90.15 87.85 87.1 90.4 85.85
L 91.3 84.75
Q 90.55 83.2 90.9 82.85 Z"/>
</g>
</defs>

<g transform="matrix( 1, 0, 0, 1, -33.5,-72.6) ">
<g transform="matrix( 1, 0, 0, 1, 0,0) ">
<use xlink:href="#MovieClips_Symbol_621_14_Layer14_0_FILL"/>
</g>
</g>
</svg>
