
<svg xmlns="http://www.w3.org/2000/svg" version="1.1" xmlns:xlink="http://www.w3.org/1999/xlink" preserveAspectRatio="none" x="0px" y="0px" width="550px" height="400px" viewBox="0 0 550 400">
<defs>
<g id="Parts_Feet_footMC_7_Layer7_0_FILL">
<path fill="#006699" stroke="none" d="
M 63.6 21.8
L 61.25 21.75
Q 59.85 21.65 58.25 22.3 56.7 22.9 54.7 24.75 55 27.1 54.5 27.1
L 52.15 26.7 52.1 26.7 50 25.75 50 37.05 54.5 37.35
Q 61.2 37.35 64.7 31.6 66.9 27.95 66.9 25.25 66.9 24.4 65.7 23.1 64.5 21.75 63.6 21.8 Z"/>
</g>

<g id="Graphics_Symbol_274_0_Layer3_0_FILL">
<path fill="#000000" stroke="none" d="
M -9.95 23.3
L -10.1 23.6 -9.95 23.4 -9.95 23.3
M 1.7 -8.1
L 3.65 -0.9 3.05 -1.6 5.55 14.5 4.6 14.55 5.25 15.6 5.65 16.65
Q 5.95 17.15 17.85 17.9 29.65 18.65 36.8 20.6 42.05 20.65 47.85 24.15 50.75 25.9 52.7 27.65
L 59.85 28.15
Q 60.35 28.15 62.25 25.8 64.15 23.4 64.65 23.4 65.35 23.4 66.1 24.05 66.85 24.75 66.85 25.55 66.85 29.9 63.4 33.6 59.9 37.4 55.6 37.4 49.05 37.4 40.25 35.25 31.5 33.05 17.25 33.05 10.25 33.05 6.6 35.95 2.95 38.85 -4.55 38.85
L -5.9 38.75 -8.65 37.7 -9.95 36.6
Q -12.65 33.85 -12.65 28.65 -12.65 26.75 -11.9 24.1 -10.55 19.45 -7.25 14.15
L -7 16.4 -6.45 15.8 -6.45 15.2
Q -5 9.25 -5.05 7.45
L -4.5 7 -5.35 0.25
Q -5.85 0.25 -5.9 4.05
L -6.1 0.95
Q -6.1 -5.3 -4.55 -8.45 -3.45 -10.7 -2.2 -10.7 -0.2 -10.2 0.95 -9.3
L 0.3 -10.35
Q -1.45 -12.1 -2.75 -12.1 -3.9 -12.2 -4.95 -10.85 -7 -8.15 -7 -0.9 -7 0.1 -7.55 6.3 -7.8 4.6 -8.35 4.25 -7.8 7.8 -10.8 15.15 -14.1 23.35 -14.1 29.8 -14.1 32.4 -12.35 35.75 -10.6 39.15 -9.3 39.15 -7.95 39.95 -6.55 40.35 -5.15 40.75 3.2 39.25 3.7 38.85 7.8 36.95 13.8 34.15 22.3 34.15 28.35 34.15 38.9 36.4
L 50.55 38.6
Q 57.75 38.6 62.5 35.7 68.2 32.25 68.2 25.45 68.2 24.3 67.25 23.1 65.75 21.2 62.55 21.2 60.15 21.2 57.05 22.65 53.95 24.1 53.25 25.5
L 43.3 20.5 43.75 20.1
Q 25.95 15.15 7.2 14.6 6 6.6 3.75 -1.55
L 1.7 -8.1
M 60.15 25.9
Q 59.35 26.5 58.7 26.5 55.95 25.7 54.7 24.75 62.65 23.1 63.65 23.2
L 60.15 25.9 Z"/>
</g>

<g id="Graphics_Symbol_274_0_Layer2_0_FILL">
<path fill="#000000" fill-opacity="0.25098039215686274" stroke="none" d="
M -2.5 -12.15
Q -5.3 -12.15 -5.75 -5.3 -6.5 6.85 -7.75 11.95
L -9.95 15.8
Q -11.35 18.1 -11.65 19.35
L -11.85 19.4 -11.65 19.55
Q -11.85 20.55 -11.25 20.85
L -12.9 23.75 -13.1 25.55
Q -13.1 31.3 -10.9 35.5 -9.1 38.95 -7.7 38.95
L -5.1 39.35 -1.2 39.1
Q 0.2 38.5 1.85 38.15 3.25 38.2 4.45 37.4 9.15 34.15 26.55 34.15 29.2 34.15 37.1 36.15 45.05 38.1 50.8 38.1 57.55 38.1 62.15 34.75 67 31.2 67 25.55 67 23.4 64.6 22.3 62.8 21.5 60.3 21.5
L 57.2 23.25
Q 54.4 25 51.65 25 49.6 25 49.05 24.45
L 47.85 23
Q 44.85 20.45 29.95 18.6 13.8 16.6 10.8 15.8 7.05 14.8 6.15 9.65 5.2 4.45 2.75 -3.85 0.3 -12.15 -2.5 -12.15
M -1.5 -4.1
L -0.4 -4.3
Q 1.2 -4.3 1.45 -1.75 1.6 -0.55 1.35 4.05 0.95 12.7 4.55 13.5
L 3.3 16.7
Q 3.3 19.8 9.2 21.05 16.15 22.55 33.65 22.2 37.55 22.1 44.45 26.05 51.45 30.05 53.3 30.05 54.35 30.05 56.75 28.75 60.3 26.8 61.5 26.3
L 62.75 27.55
Q 62.75 31.7 57.9 33.75 54.8 35.1 52.05 35.1 45.05 35.1 40.75 33.5 38.2 32.55 34.75 29.95 31.3 27.4 28.65 26.4 24.2 24.8 17 24.8 13.6 24.8 7.85 30.05 2.15 35.3 -3.25 35.3 -4.9 35.3 -5.95 33.5 -7.05 31.65 -7.05 28.55 -7.05 24.05 -3.85 19.6 -0.65 15.1 -0.65 14.45 -0.65 13.55 -1.7 9.9
L -2.75 6 -2.25 1.7 -1.5 -4.1
M -2.8 7.65
L -1.9 10.75 -2.4 9.35 -2.8 7.65 Z"/>
</g>

<g id="Graphics_Symbol_274_0_Layer1_0_FILL">
<path fill="#FFFFFF" fill-opacity="0.25098039215686274" stroke="none" d="
M 3.9 29.5
Q 7.35 26.8 7.35 24.15 6.2 20.55 4.4 20.55 1.4 20.55 -2.05 23.6 -5.15 26.35 -5.15 27.9
L -4.7 30.05
Q -4 32.15 -2.6 32.15 0.5 32.15 3.9 29.5
M 56.4 32.6
Q 56.4 30.95 54.3 29.8 52.2 28.6 49.25 28.6 46.3 28.6 44.2 29.8 42.1 30.95 42.1 32.6 42.1 34.25 44.2 35.45 46.3 36.6 49.25 36.6 52.2 36.6 54.3 35.45 56.4 34.25 56.4 32.6 Z"/>
</g>

<g id="Graphics_Symbol_274_0_Layer0_0_FILL">
<path fill="#FFFFFF" stroke="none" d="
M 42.75 24.65
L 43.25 24.55 43.25 24.1
Q 42.2 23.15 37.7 20.55 33.3 18.05 31.55 17.4 31.55 17.9 30.5 17.65 29.45 17.35 29.75 17.75
L 30.1 18.25 30.15 18.5 42.75 24.65
M 65.75 24.55
L 65.6 23.7 64.55 22.75 63.8 23.45 63.6 23.95
Q 63.6 26.1 64.55 27
L 65.55 25.95 65.75 24.55 Z"/>
</g>

<g id="MovieClips_Symbol_228_7_Layer1_0_FILL">
<path fill="#006699" stroke="none" d="
M 3.65 -0.8
L 3.65 -0.9
Q 2.6 -6.5 1.3 -8.7 0.1 -10.75 -1.85 -10.75 -3.7 -10.75 -5 -8.3 -6.35 -5.9 -6.1 0.25
L -7.4 13.4
Q -7.75 14 -7.8 15.2 -10.4 18 -12.25 22.5 -14.15 26.95 -13.45 29.95 -12.75 32.95 -10.6 36.4 -8.5 39.8 -3.1 39.5 2.35 39.2 7.2 36.1 12 33 19.75 33.4 27.45 33.8 39.65 36.35 51.85 38.85 56.2 38.1 60.55 37.35 64 34 67.4 30.65 67.15 27.1 66.9 23.5 65.15 22.55 63.6 21.75 61.25 21.75 59.55 21.85 57.4 22.85 55.25 23.8 53.8 25.35 52.35 26.9 49.4 24.55 46.4 22.2 41.25 20.4 36.1 18.6 33.3 18.75 25.95 15.85 15.55 16.4 5.15 16.95 5.55 14.5 7.95 15.3 3.85 0 3.15 -0.95 3.65 -0.8 Z"/>
</g>

<g id="MovieClips_Symbol_264_7_Layer1_0_FILL">
<path fill="#029900" stroke="none" d="
M 65.7 23.1
Q 64.5 21.75 63.6 21.8
L 61.25 21.75
Q 59.85 21.65 58.25 22.3 56.7 22.9 54.7 24.75 55 27.1 54.5 27.1
L 52.15 26.7 52.1 26.7 50 25.75 50 37.05 54.5 37.35
Q 61.2 37.35 64.7 31.6 66.9 27.95 66.9 25.25 66.9 24.4 65.7 23.1 Z"/>
</g>
</defs>

<g transform="matrix( 1, 0, 0, 1, -28.4,-10.7) ">
<g transform="matrix( 1, 0, 0, 1, 0,0) ">
<use xlink:href="#Parts_Feet_footMC_7_Layer7_0_FILL"/>
</g>

<g transform="matrix( 1, 0, 0, 1, 0,0) ">
<g transform="matrix( 1, 0, 0, 1, 0,0) ">
<use xlink:href="#Graphics_Symbol_274_0_Layer3_0_FILL"/>
</g>

<g transform="matrix( 1, 0, 0, 1, 0,0) ">
<use xlink:href="#Graphics_Symbol_274_0_Layer2_0_FILL"/>
</g>

<g transform="matrix( 1, 0, 0, 1, 0,0) ">
<use xlink:href="#Graphics_Symbol_274_0_Layer1_0_FILL"/>
</g>

<g transform="matrix( 1, 0, 0, 1, 0,0) ">
<use xlink:href="#Graphics_Symbol_274_0_Layer0_0_FILL"/>
</g>
</g>
</g>

<g transform="matrix( 1, 0, 0, 1, -28.15,-10.5) ">
<g transform="matrix( 1, 0, 0, 1, 0,0) ">
<use xlink:href="#MovieClips_Symbol_228_7_Layer1_0_FILL"/>
</g>
</g>

<g transform="matrix( 1, 0, 0, 1, -28.4,-10.7) ">
<g transform="matrix( 1, 0, 0, 1, 0,0) ">
<use xlink:href="#MovieClips_Symbol_264_7_Layer1_0_FILL"/>
</g>
</g>
</svg>
