
<svg xmlns="http://www.w3.org/2000/svg" version="1.1" xmlns:xlink="http://www.w3.org/1999/xlink" preserveAspectRatio="none" x="0px" y="0px" width="550px" height="400px" viewBox="0 0 550 400">
<defs>
<g id="Parts_Sets_Gecko_geckoHeadStatic_0_Layer0_0_FILL">
<path fill="#DAC849" stroke="none" d="
M 26.1 47.9
Q 25.2 47.5 24.45 47.5 20.55 47.5 16 53.7 12.35 58.7 9.9 65.1 10.8 64.6 13.15 63.85 16.9 62.6 17.2 62.5 26.3 59.2 28.9 59 28.15 56.65 27.95 55.45 27.85 54.6 27.5 53.3 27.1 51.9 26.9 51.2
L 26.1 47.9
M 1.75 43
Q 0.7 44.8 0 45.9
L 23.55 45.9
Q 23.85 45.85 25.05 46.35 26.3 46.9 26.6 46.9 25.35 40.9 26.15 35.9 26.25 35.4 26.4 32.45 26.5 30.35 27 29 21.65 29.4 15.05 32.15 10.2 34.2 6.4 36.65 5.25 37.4 3.95 39.3 3.5 40 1.75 43
M 36.15 15.75
Q 38.65 11.9 38.95 11.55 39.65 11.15 40.35 10.8 36.1 8.85 32.4 8.85 24.2 8.85 16.05 13.8 10.55 17.1 6.15 21.9 10.35 21.65 26.05 24.8 26.3 24.85 27.45 25.45 28.6 26.1 29.1 26.25 30.25 23.4 30.6 22.8 30.9 22.35 33.35 19.95 33.7 19.65 36.15 15.75
M 48.65 7.5
Q 50.6 6.65 52.35 6.2
L 57.45 4
Q 57.05 3.35 56.55 2.85 53.7 0 43.55 0 36.9 0 35.2 1.2 38.55 1.4 43.25 6.9 43.95 7.75 44.65 8.6 47.15 8.15 48.65 7.5 Z"/>
</g>

<g id="Parts_Sets_Gecko_geckoHeadOutline_0_Layer0_0_FILL">
<path fill="#000000" fill-opacity="0.2784313725490196" stroke="none" d="
M 10.4 67.6
Q 10.4 67.4 10.45 67.1 10.35 67.3 10.4 67.8 10.4 67.7 10.4 67.6
M 7.6 22.1
Q 7.490625 22.20625 7.35 22.3
L 7.4 22.35
Q 7.49375 22.209375 7.6 22.1
M 70.9 4.9
Q 72.45 5 74.05 5.2 73.5 5.1 72.95 5 70.75 4.6 68.75 4.5 68.2 4.7 67.75 4.85 69.3 4.8 70.9 4.9
M 30 60.9
Q 29.7 59.25 29.45 57.6 29.35 56.95 29.25 56.3 28.7 56.35 28.15 56.45 27.55 56.65 26.85 56.9 22.65 58.45 18.75 59.35 18.05 59.6 17.35 59.9 17.5 59.75 17.7 59.55 16.85 59.7 16 59.85 14.95 61.7 14.15 63.35 13.35 65 12.8 66.45
L 12.85 66.45
Q 14.55 65.45 19.1 63.85 19.55 63.7 20.05 63.55 26.6 61.2 30 60.9
M 2.25 47.95
L 3.4 47.95
Q 3.70625 47.94375 4.1 47.9 5.35 47.85 5.9 47.95
L 25.95 47.95
Q 26.8 47.9 27.7 47.95
L 27.8 48.25
Q 27.2 45.05 27.15 43.6 23.1 44.4 19.1 44.4 18.85 44.4 18.65 44.4 18.45 44.45 18.3 44.5
L 12.65 44.5
Q 11.2 44.1 10.15 43.8 10.3 43.6 10.5 43.4 8.3 42.9 6.1 42.15 5 43.4 4.05 45.05
L 3.35 46.2 2.9 46.95
Q 2.55 47.5 2.25 47.95
M 26.25 24
Q 25 23.8 23.65 23.6 21.4 23.3 17.4 20.85 17.15 20.25 15.6 18.9 15.35 18.7 15.1 18.5 11.3 21.25 9.4 23.5 9.45 23.5 9.5 23.5 11.35 23.35 14.85 24
L 14.95 24
Q 15.1515625 24.0103515625 15.35 24.05 19.8 24.85 28.35 26.85 28.85 26.925 29.4 27.1
L 30.65 27.5
Q 30.95 26.8 31.35 26.15 30.15 25.65 29.25 25.4 27.65 24.6 26.25 24
M 43.65 4.7
Q 42.6 3.3 41.75 2.2 40.15 2.35 39.1 2.6 38.05 2.9 37.5 3.25 40 3.4 43.25 6.55 44.35 7.55 45.55 8.95 46.25 9.8 46.95 10.65 47.5 10.35 48.1 10.1 47.7 9.5 47.25 8.8 45.25 5.65 45.25 5.85
L 45.25 5.8
Q 44.4 5.3 43.65 4.7
M 83.05 89.2
Q 82.5 89.1 81.9 88.95
L 81.85 88.9
Q 81.85 88.7 80.85 88.7
L 80.8 88.75
Q 77.2 87.95 73.95 86.9 57.2 81.35 48.4 67.9 39.65 54.55 39.65 35.7 39.65 24.4 48.9 17.75 59.1 10.4 80 9.4 77.55 8.2 74.85 7.65 74.45 7.55 74.05 7.5 71.15 7.05 68.35 7.05
L 56.05 9.4 55.15 9.7
Q 54.725 9.9 54.3 10.1 50.35 11.95 46.45 14.1 45.8 14.55 45.2 15
L 45.15 15
Q 38.2 20.3 33.85 27.85 29.2 35.95 30.3 45.3 31.3 53.55 34.1 61.3 34.5 62.15 35 63
L 34.95 63 34.9 63
Q 34.825 63.0125 34.75 63.05 35 63.65 35.25 64.25 36.05 66.15 36 68.45 36 69 36 69.6
L 35.95 69.55 35.95 69.6 35.55 69
Q 37 75.1 39.05 81.25 39.9 83.7 41.7 85.5 47.05 90.7 54.5 92.45 54.75 92.5 55 92.55
L 58.65 93.35 58.7 93.35
Q 60.65 92.95 63.1 93.45
L 63.15 93.45
Q 63.95 93.35 64.8 93.35
L 67.2 93.55
Q 67.346875 93.578125 67.5 93.6
L 67.55 93.6 79.25 90.75
Q 80.05 90.45 80.9 90.1 82 89.65 83.05 89.2
M 132.6 38.6
Q 130.15 36.85 127.1 36.4 120.95 36 115.1 35.05 114.65 34.95 114.25 34.9 110.45 34.2 107.1 32.35 101.55 29.45 97.45 24.85 95.35 22.5 92.75 20.5 90.4 18.65 88.4 16.55 89.9 23.15 94.95 28.2 101.1 34.3 108.5 38.5 108.95 38.7 109.5 38.9 117.25 42.55 121.55 49.15 122.6 50.85 122.55 52.85 122.45 55.45 121.75 58 119.9 64.6 116.7 70.7 115.7 72.65 114.25 74.45 121.55 71.15 127.4 65.9 129.55 63.95 131.05 61.35 134.3 55.85 133.9 49.65 133.55 44.05 132.6 38.6 Z"/>

<path fill="#000000" stroke="none" d="
M 135.5 43.7
Q 135.4 42.75 135.35 41.85 135.2 37.8 132.1 35.85 131.55 35.5 130.85 35.2 129.85 34.7 128.9 34.2 121.75 34.3 115 32.7 112.15 31.85 109.75 31.05 102.9 28.85 97.9 23.75 92.95 18.7 88 14
L 88.75 13.35
Q 86.25 9.7 82.55 7.7 80.65 6.7 78.45 6.1 76.25 5.5 74.05 5.2 72.45 5 70.9 4.9 69.3 4.8 67.75 4.85 64.65 4.95 61.6 5.6 60.85 3.95 58.95 2.7 54.15 -0.4 42.6 0.05 38.25 0.6 36.45 1.55 34.8 2.45 34.8 4.05 34.8 4.45 34.9 4.65 34.95 4.8 35.1 4.9
L 35.8 5.15
Q 35.9 5.1 36 5.1 38.8 6.45 42.75 10.8 42.35 10.65 41.9 10.5 36.5 8.85 32.2 9.65 28.05 8.05 16.75 15.35 10.2 19.6 7.65 22.1
L 7.6 22.1
Q 7.49375 22.209375 7.4 22.35 6 23.75 6 24.5 6 25.35 7 26.35
L 7.6 26.15
Q 7.65 25.95 7.75 25.8 15.8 26.45 19.55 27.1 22.25 27.55 28.8 28.95 29.05 29 29.35 29.1 17 31.1 8.2 37.4 0 43.25 0 48.15 0 48.85 0.3 49.15 0.45 49.4 1 49.55 1.05 49.5 1.1 49.5 1.35 49.8 1.8 49.95
L 22.95 50.05
Q 20.55 51.55 17.75 54.85 15.7 57.3 13.95 60.15 13.9 60.35 13.5 60.8 13.25 61.2 13.05 61.6 12.8 62 12.55 62.45 10.75 65.65 10.45 67.1 10.4 67.4 10.4 67.6 10.4 67.7 10.4 67.8 10.4 67.85 10.45 67.9
L 10.45 67.95
Q 10.45 68.05 10.45 68.15 10.15 68.4 10 68.7 9.6 69.2 9.6 69.65 9.6 70.3 9.9 70.5
L 10.6 70.75
Q 11.3 70.35 14.5 68.1 16.75 66.5 18.9 65.65 22.9 64.1 30.5 63.35 30.8 64.85 31.2 66.35 33.55 75.9 37.8 84.65 40.25 89.65 45.15 92.15 53.45 96.35 62.8 96.65 72.15 96.95 80.8 93.4 89.55 89.9 98.2 85.75 111.3 79.5 123.75 72.05 124.25 71.75 124.8 71.55 130.7 69.1 134 63.5 135.65 60.65 135.8 57.35 136.15 50.55 135.5 43.7
M 127.1 36.4
Q 130.15 36.85 132.6 38.6 133.55 44.05 133.9 49.65 134.3 55.85 131.05 61.35 129.55 63.95 127.4 65.9 121.55 71.15 114.25 74.45 114.1 74.5 114 74.55 111.4 75.75 109 77.3 103.75 80.45 97.6 79.4 93.85 78.9 90.7 76.95 88.7 75.6 86.85 74.2
L 89.65 71.1
Q 89.55 70.95 89.5 70.8 86.4 70.55 85.05 73.25 84.3 74.65 84.25 76.2 84.2 77.35 85.15 78.05 85.75 78.6 86.5 78.45
L 87.15 77.25 86.15 75.6 86.5 74.75
Q 87.35 77.8 90.35 79.4 94.7 81.65 99.6 81.5 91.5 85.6 83.05 89.2 82 89.65 80.9 90.1 80.05 90.45 79.25 90.75
L 67.55 93.6 67.5 93.6
Q 67.346875 93.578125 67.2 93.55
L 64.8 93.35
Q 63.95 93.35 63.15 93.45
L 63.1 93.45
Q 60.65 92.95 58.7 93.35
L 58.65 93.35 55 92.55
Q 54.7310546875 92.501171875 54.45 92.45 47 90.7 41.65 85.5 39.85 83.7 39 81.25 36.95 75.05 35.45 68.85
L 35.55 69 35.95 69.6 35.95 69.55
Q 35.95 68.95 35.95 68.45 36 66.15 35.2 64.25 34.95 63.65 34.7 63.05 34.8146484375 63.01171875 34.9 63
L 34.95 63
Q 34.45 62.15 34.05 61.3 31.25 53.55 30.25 45.3 29.15 35.95 33.8 27.85 38.15 20.3 45.1 14.95
L 45.15 15 45.2 15
Q 45.75 14.55 46.4 14.1 50.3 11.95 54.25 10.1 54.70546875 9.89765625 55.15 9.7
L 56.05 9.4 68.35 7.05
Q 71.15 7.05 74.05 7.5 74.45 7.55 74.85 7.65 77.55 8.2 80 9.4 83.85 11.3 86.85 14.85 87.6 15.7 88.4 16.55 90.4 18.65 92.75 20.5 95.35 22.5 97.45 24.85 101.55 29.45 107.1 32.35 110.45 34.2 114.25 34.9 114.65 34.95 115.1 35.05 120.95 36 127.1 36.4
M 59.15 6.2
Q 57.5 6.65 55.95 7.15 51.95 8.4 48.1 10.1 47.5 10.35 46.95 10.65
L 46.9 10.65
Q 46.2 9.8 45.5 8.95 44.35 7.6 43.25 6.55 40 3.4 37.5 3.25
L 37.45 3.25
Q 38 2.85 39.1 2.6 40.15 2.35 41.75 2.2 43.45 2.05 45.8 2.05 55.95 2.05 58.8 4.9 59.3 5.4 59.7 6.05 59.4 6.1 59.15 6.2
M 42.6 12.85
Q 41.9 13.2 41.2 13.6 40.7 14.15 40.15 14.7 39.7 15.1 39.25 15.55 34.3 20.35 31.35 26.15 30.95 26.8 30.65 27.5
L 29.4 27.1
Q 28.81484375 26.9271484375 28.3 26.85 19.75 24.85 15.3 24.05 15.1125 24.0125 14.95 24
L 14.85 24
Q 11.35 23.35 9.5 23.5 9.45 23.5 9.4 23.5
L 9.35 23.5
Q 11.4 21.1 15.55 18.15 24.65 11.65 34.9 11.65 40 11.65 42.6 12.85
M 3.4 47.95
L 2.25 47.95
Q 2.55 47.5 2.9 46.95
L 3.35 46.2
Q 3.65 45.65 4 45.05 6.2 41.3 8.9 39.55 20.75 31.9 29.25 31.05 28.95 31.9 28.7 32.8 27.95 35.2 27.5 37.8 27.1 40.35 27.15 42.85 27.15 43.2 27.15 43.6 27.2 45.05 27.8 48.25
L 27.7 47.95
Q 26.8 47.9 25.95 47.95
L 5.9 47.95 3.4 47.95
M 26.85 50.15
Q 27.25 50.15 27.95 50.45 27.95 50.55 28 50.65 28.25 52 28.6 53.35 29 54.8 29.25 56.3 29.35 56.95 29.45 57.6 29.7 59.25 30 60.9 26.6 61.2 20.05 63.55 19.55 63.7 19.1 63.85 14.55 65.45 12.85 66.45
L 12.8 66.45
Q 13.35 65 14.15 63.35 15.65 60.05 17.75 57 22.45 50.15 26.85 50.15
M 107.6 46.95
Q 108 47.35 108.25 47.85 109.55 50.35 111.9 50.8 114.7 50.6 115.55 47.8 115.55 46.8 114.85 46.2 111.15 43 107.5 46.4
L 107.6 46.95
M 85.6 24.6
Q 83.65 22.75 81.15 22.35 79.45 21.9 78.25 23.35 72.7 30 73.6 38.75 74.1 43.35 77.9 45.9 82.55 48.95 88.2 48.9 90.35 48.9 92.1 47.55 94.3 45.95 94.5 43.4 94.55 42.7 94.45 41.95 94.2 40.4 93.85 38.9 91.85 30.75 85.6 24.6
M 82.5 25.35
Q 81.9 28.15 81.3 30.95 79.4 40.15 85.05 46.5 82.75 46.5 80.65 45.6 78.15 44.4 77 41.7 73.1 32.65 80.1 25.5
L 82.5 25.35 Z"/>

<path fill="#FFFFFF" fill-opacity="0.4" stroke="none" d="
M 28.6 53.35
Q 28.25 52 28 50.65 26.35 51.05 23.85 53.1 19.25 57.85 17.7 59.55 17.5 59.75 17.35 59.9 18.05 59.6 18.75 59.35 23.55 57.3 27.55 56.55 27.85 56.5 28.15 56.45 28.7 56.35 29.25 56.3 29 54.8 28.6 53.35
M 10.5 43.4
Q 10.3 43.6 10.15 43.8 11.2 44.1 12.65 44.5
L 18.3 44.5
Q 18.45 44.45 18.65 44.4 19.25 44.2 20.05 44.1 23.9 43.4 27.15 42.85 27.1 40.35 27.5 37.8 27.95 35.2 28.7 32.8 25 34 19.6 37.15 12.55 41.25 10.5 43.4
M 28.1 16.25
Q 24.5 17.5 21.3 19.15 18.45 20.65 18.45 21.05 18.45 21.1 19 21.45 21.1 21.65 24.7 23.25 25.45 23.6 26.25 24 27.65 24.6 29.25 25.4 30.15 25.65 31.35 26.15 34.3 20.35 39.25 15.55 39.7 15.1 40.15 14.7 35.7 13.6 28.1 16.25
M 55.95 7.15
Q 54.8 6.6 53.25 6.1 48.15 4.8 46.8 4.7 45.3 4.65 45.25 5.8
L 45.25 5.85
Q 45.25 5.65 47.25 8.8 47.7 9.5 48.1 10.1 51.95 8.4 55.95 7.15
M 73.95 73
Q 75.15 71.85 76.05 70.5 77.55 68.2 77.1 65.55 76.65 62.8 73.95 60.45 73.1 59.7 72 59 67.55 56.1 63.35 56.8 60.05 57.35 58.8 59.3 56.45 62.9 58.05 67.45 59.3 71.1 61.5 72.55 62.35 73.65 63.65 74.45 63.75 74.55 65.5 75.65 65.55 75.7 65.65 75.75
L 65.65 76
Q 67.9 76.85 71.2 74.95 72.75 74.1 73.95 73
M 95.6 36.25
Q 95.4 36.3 94.5 36.95 94.4 37.45 95.15 38.5 95.35 38.75 95.55 39.05 94.45 38.55 93.85 38.9 94.2 40.4 94.45 41.95 94.55 42.7 94.5 43.4 95.75 44.3 97.9 45.55 97.65 45.95 96.7 47.25 96.35 48.55 98.7 49.85 99.4 50.2 99.55 50.1 99.65 50.05 99.8 49.85 100.75 48.95 100.3 47.9 100.6 47.9 101.6 47.45 102.6 47.05 102.9 46.75 103 45.85 102.5 45.3 101.95 44.55 96.55 41.45 98.1 40.95 99.2 40.75 99.9 40.65 99.9 40.6 100.5 39.5 99.95 38.5 99.75 38.15 99.45 37.8 96.65 36.15 95.6 36.25 Z"/>

<path fill="#FFFFFF" stroke="none" d="
M 81.3 30.95
Q 81.9 28.15 82.5 25.35
L 80.1 25.5
Q 73.1 32.65 77 41.7 78.15 44.4 80.65 45.6 82.75 46.5 85.05 46.5 79.4 40.15 81.3 30.95 Z"/>
</g>

<g id="Parts_Heads_headColorMC_39_Layer1_0_FILL">
<path fill="#F7E48F" stroke="none" d="
M 82.3 66.45
Q 81.3 65.85 81.05 65.6 79.255859375 63.711328125 78.7 63.2 78.6779296875 63.175 78.65 63.15 78.3 62.75 77.5 61.25 76.65 59.6 76.45 59.35 73.8 57.55 69.5 56.15 65.65 54.95 61.15 54.75 56.6 54.55 52.05 55.5 51.75 54.75 51 54.25 50.05 53.7 49.4 53.3 46.95 51.75 43.55 51.1 39.95 50.5 34.3 50.7 29.35 51.35 29.2 51.35 28.6 51.55 28.6 53 31.3 55.85 31.35 55.85 32.3 56.3 34.15 56.95 35.9 57.8 37.5 59.55 37.4 59.5 35.05 60.15 32.7 60.8 32.55 60.75 27.5 59.2 23.45 60 21.35 59.2 18 60.35 14.45 61.6 8.9 65.15 0.5515625 70.5962890625 -1.35 73.1 2.022265625 73.40390625 6.55 74.2 9 74.6 12.35 75.25 12.4 75.25 15 75.55 17 75.8 19.6 76.35 22.1 78.05 22.3 78.1 9.3 80.2 0.75 85.9 -6.8 90.9 -6.8 95.4 -6.8 96.4 -7.5 97.65 -7.35 97.85 0.4 98
L 15.5 98.75
Q 11.5 101.25 6.4 110.05 1.9 117.85 2.1 118.5 6.1 115.4 8.65 114.1 12.9 111.85 21.75 111.15 22.9 113.85 24.7 119.3 25.7 122.3 27.3 127.2 29.5 133.5 32 136.25 36.75 141.5 46.65 143.15 47.3 143.25 48.75 143.75 50.05 144.2 50.75 144.25 61.3 144.25 63.7 143.7 63.85 143.7 63.95 143.85 64 144.05 64.2 144 75 141.15 85.55 136.1 92 133.05 98.7 129.65 112 122.9 115.95 119.95 126.65 115.3 126.65 104.2
L 126.45 92.3 125.55 87.9 124.35 86.35
Q 120.85 84 120.15 83.75 120 83.8 119.75 83.75
L 115.25 83.85
Q 106.2 83.1 100.5 80.7 95.25 78.95 91.2 75.75 88.55 73.7 84.65 69.35 82.95 67.15 82.3 66.45 Z"/>
</g>

<g id="Parts_Heads_headColorMC2_39_Layer3_0_FILL">
<path fill="#DAC849" stroke="none" d="
M 21.45 106.65
Q 21.35 105.8 21 104.5 20.6 103.1 20.4 102.4
L 19.6 99.1
Q 18.7 98.7 17.95 98.7 14.05 98.7 9.5 104.9 5.85 109.9 3.4 116.3 4.3 115.8 6.65 115.05 10.4 113.8 10.7 113.7 19.8 110.4 22.4 110.2 21.65 107.85 21.45 106.65
M 19.65 87.1
Q 19.75 86.6 19.9 83.65 20 81.55 20.5 80.2 15.15 80.6 8.55 83.35 3.7 85.4 -0.1 87.85 -1.25 88.6 -2.55 90.5 -3 91.2 -4.75 94.2 -5.8 96 -6.5 97.1
L 17.05 97.1
Q 17.35 97.05 18.55 97.55 19.8 98.1 20.1 98.1 18.85 92.1 19.65 87.1
M 37.05 51.2
Q 30.4 51.2 28.7 52.4 32.05 52.6 36.75 58.1 37.45 58.95 38.15 59.8 40.65 59.35 42.15 58.7 44.1 57.85 45.85 57.4
L 50.95 55.2
Q 50.55 54.55 50.05 54.05 47.2 51.2 37.05 51.2
M 29.65 66.95
Q 32.15 63.1 32.45 62.75 33.15 62.35 33.85 62 29.6 60.05 25.9 60.05 17.7 60.05 9.55 65 4.05 68.3 -0.35 73.1 3.85 72.85 19.55 76 19.8 76.05 20.95 76.65 22.1 77.3 22.6 77.45 23.75 74.6 24.1 74 24.4 73.55 26.85 71.15 27.2 70.85 29.65 66.95 Z"/>
</g>
</defs>

<g transform="matrix( 1, 0, 0, 1, -62.75,-76.85) ">
<g transform="matrix( 1, 0, 0, 1, -6.6,51.2) ">
<g transform="matrix( 1, 0, 0, 1, 0,0) ">
<use xlink:href="#Parts_Sets_Gecko_geckoHeadStatic_0_Layer0_0_FILL"/>
</g>
</g>

<g transform="matrix( 1, 0, 0, 1, -8.75,49.15) ">
<g transform="matrix( 1, 0, 0, 1, 0,0) ">
<use xlink:href="#Parts_Sets_Gecko_geckoHeadOutline_0_Layer0_0_FILL"/>
</g>
</g>

<g id="hat1" transform="matrix( 0.983917236328125, -0.17529296875, 0.17529296875, 0.983917236328125, 45.2,78.25) ">
<g id="colorMC" transform="matrix( 0.9999847412109375, 0, 0, 0.9999847412109375, 0,0) "/>

<g id="colorMC2" transform="matrix( 1, 0, 0, 1, 0,0) "/>
</g>

<g id="hat2" transform="matrix( 0.9733734130859375, -0.2247314453125, 0.2247314453125, 0.9733734130859375, 38,60.6) ">
<g id="colorMC_FL" transform="matrix( 0.9999847412109375, 0, 0, 0.9999847412109375, 0,0) "/>

<g id="colorMC2_FL" transform="matrix( 1, 0, 0, 1, 0,0) "/>
</g>

<g id="hat3" transform="matrix( 0.96026611328125, -0.2753753662109375, 0.2753753662109375, 0.96026611328125, 26,48.4) ">
<g id="colorMC_FL_FL" transform="matrix( 0.9999847412109375, 0, 0, 0.9999847412109375, 0,0) "/>

<g id="colorMC2_FL_FL" transform="matrix( 1, 0, 0, 1, 0,0) "/>
</g>

<g id="hat4" transform="matrix( 0.944580078125, -0.3252410888671875, 0.3252410888671875, 0.944580078125, 18.85,34.5) ">
<g id="colorMC_FL_FL_FL" transform="matrix( 0.9999847412109375, 0, 0, 0.9999847412109375, 0,0) "/>

<g id="colorMC2_FL_FL_FL" transform="matrix( 1, 0, 0, 1, 0,0) "/>
</g>
</g>

<g transform="matrix( 1, 0, 0, 1, -75.4,-101.9) ">
<g transform="matrix( 1, 0, 0, 1, 0,0) ">
<use xlink:href="#Parts_Heads_headColorMC_39_Layer1_0_FILL"/>
</g>
</g>

<g transform="matrix( 1, 0, 0, 1, -62.75,-76.85) ">
<g transform="matrix( 1, 0, 0, 1, 0,0) ">
<use xlink:href="#Parts_Heads_headColorMC2_39_Layer3_0_FILL"/>
</g>
</g>
</svg>
