
<svg xmlns="http://www.w3.org/2000/svg" version="1.1" xmlns:xlink="http://www.w3.org/1999/xlink" preserveAspectRatio="none" x="0px" y="0px" width="550px" height="400px" viewBox="0 0 550 400">
<defs>
<g id="Parts_Heads_headColorMC_39_Layer1_0_FILL">
<path fill="#F7E48F" stroke="none" d="
M 82.3 66.45
Q 81.3 65.85 81.05 65.6 79.255859375 63.711328125 78.7 63.2 78.6779296875 63.175 78.65 63.15 78.3 62.75 77.5 61.25 76.65 59.6 76.45 59.35 73.8 57.55 69.5 56.15 65.65 54.95 61.15 54.75 56.6 54.55 52.05 55.5 51.75 54.75 51 54.25 50.05 53.7 49.4 53.3 46.95 51.75 43.55 51.1 39.95 50.5 34.3 50.7 29.35 51.35 29.2 51.35 28.6 51.55 28.6 53 31.3 55.85 31.35 55.85 32.3 56.3 34.15 56.95 35.9 57.8 37.5 59.55 37.4 59.5 35.05 60.15 32.7 60.8 32.55 60.75 27.5 59.2 23.45 60 21.35 59.2 18 60.35 14.45 61.6 8.9 65.15 0.5515625 70.5962890625 -1.35 73.1 2.022265625 73.40390625 6.55 74.2 9 74.6 12.35 75.25 12.4 75.25 15 75.55 17 75.8 19.6 76.35 22.1 78.05 22.3 78.1 9.3 80.2 0.75 85.9 -6.8 90.9 -6.8 95.4 -6.8 96.4 -7.5 97.65 -7.35 97.85 0.4 98
L 15.5 98.75
Q 11.5 101.25 6.4 110.05 1.9 117.85 2.1 118.5 6.1 115.4 8.65 114.1 12.9 111.85 21.75 111.15 22.9 113.85 24.7 119.3 25.7 122.3 27.3 127.2 29.5 133.5 32 136.25 36.75 141.5 46.65 143.15 47.3 143.25 48.75 143.75 50.05 144.2 50.75 144.25 61.3 144.25 63.7 143.7 63.85 143.7 63.95 143.85 64 144.05 64.2 144 75 141.15 85.55 136.1 92 133.05 98.7 129.65 112 122.9 115.95 119.95 126.65 115.3 126.65 104.2
L 126.45 92.3 125.55 87.9 124.35 86.35
Q 120.85 84 120.15 83.75 120 83.8 119.75 83.75
L 115.25 83.85
Q 106.2 83.1 100.5 80.7 95.25 78.95 91.2 75.75 88.55 73.7 84.65 69.35 82.95 67.15 82.3 66.45 Z"/>
</g>
</defs>

<g transform="matrix( 1, 0, 0, 1, -75.4,-101.9) ">
<g transform="matrix( 1, 0, 0, 1, 0,0) ">
<use xlink:href="#Parts_Heads_headColorMC_39_Layer1_0_FILL"/>
</g>
</g>
</svg>
