
<svg xmlns="http://www.w3.org/2000/svg" version="1.1" xmlns:xlink="http://www.w3.org/1999/xlink" preserveAspectRatio="none" x="0px" y="0px" width="550px" height="400px" viewBox="0 0 550 400">
<defs>
<g id="Parts_Heads_headColorMC2_39_Layer3_0_FILL">
<path fill="#DAC849" stroke="none" d="
M 21.45 106.65
Q 21.35 105.8 21 104.5 20.6 103.1 20.4 102.4
L 19.6 99.1
Q 18.7 98.7 17.95 98.7 14.05 98.7 9.5 104.9 5.85 109.9 3.4 116.3 4.3 115.8 6.65 115.05 10.4 113.8 10.7 113.7 19.8 110.4 22.4 110.2 21.65 107.85 21.45 106.65
M 19.65 87.1
Q 19.75 86.6 19.9 83.65 20 81.55 20.5 80.2 15.15 80.6 8.55 83.35 3.7 85.4 -0.1 87.85 -1.25 88.6 -2.55 90.5 -3 91.2 -4.75 94.2 -5.8 96 -6.5 97.1
L 17.05 97.1
Q 17.35 97.05 18.55 97.55 19.8 98.1 20.1 98.1 18.85 92.1 19.65 87.1
M 37.05 51.2
Q 30.4 51.2 28.7 52.4 32.05 52.6 36.75 58.1 37.45 58.95 38.15 59.8 40.65 59.35 42.15 58.7 44.1 57.85 45.85 57.4
L 50.95 55.2
Q 50.55 54.55 50.05 54.05 47.2 51.2 37.05 51.2
M 29.65 66.95
Q 32.15 63.1 32.45 62.75 33.15 62.35 33.85 62 29.6 60.05 25.9 60.05 17.7 60.05 9.55 65 4.05 68.3 -0.35 73.1 3.85 72.85 19.55 76 19.8 76.05 20.95 76.65 22.1 77.3 22.6 77.45 23.75 74.6 24.1 74 24.4 73.55 26.85 71.15 27.2 70.85 29.65 66.95 Z"/>
</g>
</defs>

<g transform="matrix( 1, 0, 0, 1, -62.75,-76.85) ">
<g transform="matrix( 1, 0, 0, 1, 0,0) ">
<use xlink:href="#Parts_Heads_headColorMC2_39_Layer3_0_FILL"/>
</g>
</g>
</svg>
