
<svg xmlns="http://www.w3.org/2000/svg" version="1.1" xmlns:xlink="http://www.w3.org/1999/xlink" preserveAspectRatio="none" x="0px" y="0px" width="550px" height="400px" viewBox="0 0 550 400">
<defs>
<g id="Layer0_0_FILL">
<path fill="#010101" stroke="none" d="
M 2.45 1.05
L 2.5 0.8 2.55 0.7
Q 2.55 0.25 2.35 0.2
L 2.3 0.2
Q 2.15 -0.05 1.85 0.05
L 1.4 0.25 0.95 0.25 0.6 0.15 0.7 0.15 0.5 0.1 0.4 0.1 0.35 0.05
Q 0.2 -0.05 0.05 0.1
L 0.05 0.15
Q -0.1 0.35 0 0.6
L 0.35 1.15
Q 0.6 1.45 0.95 1.6 1.7 1.85 2.3 1.45 2.45 1.3 2.45 1.05 Z"/>
</g>
</defs>

<g transform="matrix( 1, 0, 0, 1, 0,0) ">
<use xlink:href="#Layer0_0_FILL"/>
</g>
</svg>
