
<svg xmlns="http://www.w3.org/2000/svg" version="1.1" xmlns:xlink="http://www.w3.org/1999/xlink" preserveAspectRatio="none" x="0px" y="0px" width="550px" height="400px" viewBox="0 0 550 400">
<defs>
<g id="Layer0_0_FILL">
<path fill="#FFFFFF" fill-opacity="0.25098039215686274" stroke="none" d="
M 4.5 132.65
Q 6.7 131.25 6.7 128.65 6.7 124.15 3.25 122.05 0.5 120.35 -3.95 120.35 -9.95 120.35 -17.9 122.25 -27.25 124.5 -28.4 127.45
L -28.05 128.5 -24.6 128.45
Q -23.45 128.45 -13 131.15 -2.6 133.8 0.6 133.8 2.75 133.8 4.5 132.65
M 23.75 119.65
Q 26.85 120.2 29.8 117.15 32.35 114.45 32.35 112.4
L 32.25 111.75 32.1 111.5 28.35 111.15
Q 21.1 111.15 20.25 118.8
L 21.6 119.25 23.75 119.65
M 49.65 86.55
Q 48.4 85.3 46.65 85.3 44.9 85.3 43.65 86.55 42.4 87.8 42.4 89.6 42.4 91.4 43.65 92.65 44.9 93.9 46.65 93.9 48.4 93.9 49.65 92.65 50.9 91.4 50.9 89.6 50.9 87.8 49.65 86.55
M 55.8 65.8
L 55.5 64.5 54.05 64.3
Q 50.5 63.5 46.35 66.15 42.7 68.5 42.7 69.95 42.7 73.35 43.9 75.4 45.4 77.95 48.7 77.95 52.65 77.95 54.15 74.25 54.9 72.45 55.8 65.8
M 35.05 92.1
Q 33.1 90.45 30.35 90.45 27.6 90.45 25.7 92.1 23.75 93.7 23.75 96 23.75 98.3 25.7 99.95 27.6 101.55 30.35 101.55 33.1 101.55 35.05 99.95 36.95 98.3 36.95 96 36.95 93.7 35.05 92.1
M 35.55 71.5
Q 32.85 69.7 29.05 69.7 25.25 69.7 22.6 71.5 19.9 73.25 19.9 75.8 19.9 78.35 22.6 80.15 25.25 81.9 29.05 81.9 32.85 81.9 35.55 80.15 38.2 78.35 38.2 75.8 38.2 73.25 35.55 71.5
M 29.3 43.05
Q 28.3 43.25 26.9 44.95 25.65 46.45 25.4 47.25
L 22.85 53.25
Q 21.75 55.5 21.75 56.65 21.75 57.95 22.4 58.6 23.8 59.95 27.95 59.95 32.45 59.95 36.15 58.75 41.35 57.05 41.35 53.65 40.05 41.15 38.05 41.15
L 29.3 43.05
M 53.25 38.45
Q 46.25 41.3 45.15 41.05 45.8 42.15 45.45 47.55 45.2 51.45 48.2 51.45
L 51.65 50
Q 54.95 48.15 54.95 46.05
L 53.9 38 53.25 38.45
M 44.55 24.75
Q 44.55 22.95 43.3 21.7 42 20.45 40.2 20.45 38.4 20.45 37.15 21.7 35.85 22.95 35.85 24.75 35.85 26.55 37.15 27.8 38.4 29.05 40.2 29.05 42 29.05 43.3 27.8 44.55 26.55 44.55 24.75 Z"/>
</g>
</defs>

<g transform="matrix( 1, 0, 0, 1, 0,0) ">
<use xlink:href="#Layer0_0_FILL"/>
</g>
</svg>
