
<svg xmlns="http://www.w3.org/2000/svg" version="1.1" xmlns:xlink="http://www.w3.org/1999/xlink" preserveAspectRatio="none" x="0px" y="0px" width="550px" height="400px" viewBox="0 0 550 400">
<defs>
<g id="Layer0_0_FILL">
<path fill="#000000" stroke="none" d="
M 67.45 42.8
Q 65.8 29.65 65.95 28.65 65 22.4 62.55 16.15 57.7 3.6 50.45 2.45 36.15 0.3 25.3 7.7 21.1 10.55 15.05 16.3
L 3.3 27.5
Q 0.65 30.05 -0.6 34.1 -2.3 39.15 -3.85 51.55 -7.9 82.8 -2.75 97
L 0.95 105.85
Q -1.75 105.65 -11.5 108.5 -18.35 110.4 -25.95 112.95 -28.25 113.6 -37.4 118.65 -43.15 121.65 -45.55 123.3
L -46.35 123.5 -46.4 123.85 -47.3 124.75
Q -47.4 126 -46.1 126.15
L -45.9 126.1
Q -44.05 128.35 -37.7 133.7
L -27.75 141.8
Q -19.65 151.15 1.7 159.1
L 10.05 160.4
Q 18.95 161.3 28.35 147.6 36.2 136.25 37.15 128.95
L 37.25 127.75 38.7 122.8 38.7 121.2
Q 43.9 116.65 49.15 110.65 64.45 93.55 66.1 81.2
L 66.1 80.05
Q 66.15 78.25 67.45 67.8 69 56.05 67.45 42.8
M 45.4 14.65
L 46.35 23.5
Q 46.8 30.3 47.05 31.05 45.85 31.95 39 33.75
L 31.8 35.6
Q 31.45 33 31 23.15 30.1 13.65 27.75 9.2 44.85 -0.7 45.4 14.65
M 45.7 5.15
L 48.35 5.45
Q 49.15 11.85 50.25 17.6 52.5 29.1 54.65 29.45 55.95 29.65 58.5 27.9
L 61.95 25.5
Q 66 42.95 65.5 58.95 65.3 65.2 63.35 80.8 63.2 81.6 59.35 85.25 54.55 89.7 48.8 93.45 31.45 104.6 15.25 102.1 0.9 99.9 -2.25 89.8 -5.15 80.4 -1.4 51.9 -0.8 46.55 0.25 43 1.6 38.65 1.85 36.7
L 4.55 36.5
Q 11 39.15 12.5 39.4 23.55 41.05 24.05 36.8 24.55 33.1 23.7 24.3 22.8 15.45 23.15 12.95
L 25 11.15
Q 25.6 26.75 27.7 33.15 29.15 37.95 31.95 38.4 37.55 39.25 44.65 35.85 50.65 33.05 50.75 32.15 51 30 49.05 19.7
L 45.7 5.15
M 51.4 6.1
Q 54 7.4 57.3 14.8 60.15 21.2 60.1 22
L 58.65 23.5
Q 57.05 25.1 55.35 26.3 52.85 14.5 51.55 6.85
L 51.4 6.1
M 4.9 33.55
Q 4.1 32.8 4.15 32.4 4.4 30.2 6.45 28.75 7.35 28.25 9.4 27.45 6.95 32.75 6.45 34.75
L 4.9 33.55
M 18 37.25
L 8.2 35.6 13.8 25.95
Q 18.3 18.45 20.35 16.2
L 21.55 36.1
Q 21.35 37.4 18 37.25
M 1.35 107.35
Q 2.4 111.5 1.75 116.85 1.25 120.4 4.25 123.8 7.85 128 15.15 129.1 19.9 129.8 25.6 127.75 31.45 125.6 32.05 125.7 32.8 125.8 34.75 124.4
L 34.8 128.5
Q 33.65 137.7 26.2 147.2 17.1 158.65 6.25 157.05 -10.2 154.5 -28.65 138.8
L -43.2 124.8 -36.6 121.4
Q -26.85 116.35 -24.65 115.55
L -9.9 111.65
Q -0.65 109.05 1.35 107.35
M 2.35 101.6
L 2.1 100.5
Q 3.3 101.35 5.55 102.25 9.95 104.15 15.25 104.95 23.6 106.2 37 102.45 51.3 98.5 56.8 92.05 51.95 106.4 37 117.45 23.3 127.55 15.35 126.35 3.75 124.55 2.95 115.85 2.8 114.35 3.15 108.4 3.35 103.85 2.35 101.6 Z"/>

<path fill="#3F3F3F" stroke="none" d="
M 4.15 32.4
Q 4.1 32.8 4.9 33.55
L 6.45 34.75
Q 6.95 32.75 9.4 27.45 7.35 28.25 6.45 28.75 4.4 30.2 4.15 32.4 Z"/>
</g>
</defs>

<g transform="matrix( 1, 0, 0, 1, 0,0) ">
<use xlink:href="#Layer0_0_FILL"/>
</g>
</svg>
