
<svg xmlns="http://www.w3.org/2000/svg" version="1.1" xmlns:xlink="http://www.w3.org/1999/xlink" preserveAspectRatio="none" x="0px" y="0px" width="550px" height="400px" viewBox="0 0 550 400">
<defs>
<g id="Layer0_0_FILL">
<path fill="#010101" stroke="none" d="
M 4.45 0.35
Q 4.4 0.05 4.15 0.05
L 3.95 0.05
Q 3.45 -0.1 2.95 0.15
L 2.5 0.25 2.4 0.3 2.25 0.3 2.1 0.35
Q 1.5 0.35 1.2 0.4 0.75 0.4 0.4 0.2 0.1 0.15 0 0.5 -0.05 0.9 0.15 1.1 0.5 1.5 1 1.85
L 1.6 2.1 2.2 2.25
Q 2.8 2.35 3.35 2.1 4.1 1.9 4.35 1.1
L 4.45 0.75
Q 4.55 0.55 4.45 0.35 Z"/>
</g>
</defs>

<g transform="matrix( 1, 0, 0, 1, 0,0) ">
<use xlink:href="#Layer0_0_FILL"/>
</g>
</svg>
