
<svg xmlns="http://www.w3.org/2000/svg" version="1.1" xmlns:xlink="http://www.w3.org/1999/xlink" preserveAspectRatio="none" x="0px" y="0px" width="550px" height="400px" viewBox="0 0 550 400">
<defs>
<g id="Layer0_0_FILL">
<path fill="#FFFFFF" stroke="none" d="
M 6.65 2.75
Q 7.2 2.1 7.05 1.3 7.05 1 6.85 0.6 6.6 0.1 6.35 0.05 5.9 -0.1 5.45 0.05
L 5.05 0.2 4.25 0.65
Q 3.2 1.25 2.55 1.85 1.8 2.5 1.15 3.35
L 0.4 4.6 0.1 5.6
Q -0.2 6.25 0.25 6.85 0.6 7.2 0.95 6.95
L 1.2 6.6 1.25 6.6
Q 1.45 6.55 1.6 6.3
L 1.75 6.1 1.8 6 2.3 5.45 3.55 4.35 3.75 4.25 3.65 4.25
Q 3.7015625 4.2484375 3.75 4.2
L 4.85 3.6 6.05 3.15
Q 6.45 2.95 6.65 2.75 Z"/>
</g>
</defs>

<g transform="matrix( 1, 0, 0, 1, 0,0) ">
<use xlink:href="#Layer0_0_FILL"/>
</g>
</svg>
