
<svg xmlns="http://www.w3.org/2000/svg" version="1.1" xmlns:xlink="http://www.w3.org/1999/xlink" preserveAspectRatio="none" x="0px" y="0px" width="550px" height="400px" viewBox="0 0 550 400">
<defs>
<g id="Parts_Heads_headColorMC2_34_Layer3_0_FILL">
<path fill="#8EDDFF" stroke="none" d="
M 125.6 34.75
Q 113.05 46.55 97.1 51.25 69.25 59.65 24.3 55.1 51 64.4 47.9 68.45 42.05 76.3 32.25 90.65
L 23.65 104.2 24.8 101.65 15.7 115.15
Q 6.8 128.95 -13.5 146.25 0.85 134.95 30.3 130.2 27.2 133.95 22.25 142.85
L 22.2 142.85
Q 18.2 150.1 12.9 160.75 68.4 123.25 114.85 150.5 105.7 137.6 114.8 116.1
L 140.2 106 110.1 113.2
Q 111.5 80.6 125.6 34.75
M 81.75 61.6
Q 89.15 59.6 110.7 49.75
L 105.85 114.1 77.75 118.45 78.05 120.2 105.15 118.15
Q 104.4 122.7 104 128.2 103.6 133.35 103.85 133.35
L 35.9 137.7
Q 36.9 132.75 43.45 127.3 50 121.8 58.05 115.6
L 12.35 129.15 20 112.2 52.1 67.65 81.75 61.6
M 72.25 83.15
Q 70.95 84.35 70.95 86.15 70.95 87.85 72.25 89.15 73.55 90.4 75.35 90.4 77.1 90.4 78.35 89.15 79.65 87.85 79.65 86.15 79.65 84.35 78.35 83.15 77.1 81.85 75.35 81.85 73.55 81.85 72.25 83.15
M 80.75 68.1
L 80.15 69.45 97.3 102.95 99.55 102.65 80.75 68.1
M 100.55 80.25
Q 101.2 79.6 101.2 78.6 101.2 77.65 100.55 77 99.9 76.35 99 76.35 98.1 76.35 97.5 77 96.8 77.65 96.8 78.6 96.8 79.6 97.5 80.25 98.1 80.9 99 80.9 99.9 80.9 100.55 80.25 Z"/>
</g>
</defs>

<g transform="matrix( 1, 0, 0, 1, -62.75,-76.85) ">
<g transform="matrix( 1, 0, 0, 1, 0,0) ">
<use xlink:href="#Parts_Heads_headColorMC2_34_Layer3_0_FILL"/>
</g>
</g>
</svg>
