
<svg xmlns="http://www.w3.org/2000/svg" version="1.1" xmlns:xlink="http://www.w3.org/1999/xlink" preserveAspectRatio="none" x="0px" y="0px" width="550px" height="400px" viewBox="0 0 550 400">
<defs>
<g id="Layer0_0_FILL">
<path fill="#FFFFFF" stroke="none" d="
M 3.1 2.7
Q 3.1 2.3 3 2.1 2.85 1.7 2.55 1.3
L 2.35 1
Q 2.15 0.7 2 0.6
L 1 0.05 0.6 0
Q 0.4 0 0.3 0.1 0.15 0.25 0.05 0.55 0 0.8 0.05 1 0.05 1.3 0.2 1.5
L 0.9 2.35 1 2.5 1.5 3.1 1.8 3.6
Q 2.05 3.9 2.35 3.9 2.7 3.9 2.85 3.65 3 3.45 3.1 3
L 3.1 2.7 Z"/>
</g>
</defs>

<g transform="matrix( 1, 0, 0, 1, 0,0) ">
<use xlink:href="#Layer0_0_FILL"/>
</g>
</svg>
