
<svg xmlns="http://www.w3.org/2000/svg" version="1.1" xmlns:xlink="http://www.w3.org/1999/xlink" preserveAspectRatio="none" x="0px" y="0px" width="550px" height="400px" viewBox="0 0 550 400">
<defs>
<g id="Layer0_0_FILL">
<path fill="#010101" stroke="none" d="
M 70.7 23.75
Q 70.3 23.85 70 24.05
L 67.9 26.6 66.75 28.65 66.65 28.75
Q 66.3 29.1 66.15 29.5
L 66.05 29.95 65.65 30 65.4 29.55
Q 65 29.05 64.65 29.1 64.05 29.25 63.3 29.15 62.65 29 62.15 28.7
L 61.75 28.4
Q 61.5841796875 28.2341796875 61.35 28.2 61.3 28.15 61.15 28.15 60.9 28.05 60.7 28.35 60.5 28.55 60.5 28.95
L 60.5 29 60.55 29.75
Q 60.6 30.05 60.9 30.45
L 58.9 30.5
Q 59 29.9 58.75 29.35 58.55 28.9 58.3 28.7 58.05 28.45 57.7 28.45 57.3 28.45 57 28.75
L 56.4 29 55.6 29.2 55.35 29.2 54.95 29.1 54.85 29.05 54.7 28.9
Q 54.35 28.65 54.05 29
L 54 29.05
Q 53.75 29.55 53.9 30.15
L 54.1 30.5 52.85 30.5 52.85 30.4
Q 52.9 29.75 52.45 29.1 51.9 28.3 51.6 27.9 51.05 27.2 50.35 26.1
L 48.65 23.5
Q 48.35 22.95 47.9 22.65
L 47.7 22.55
Q 47.15 22.1 46.7 22.65
L 46.6 22.8 43.35 29.35 43.15 30.1 42.9 30.1
Q 43.2 29.1 42.65 28.2 42.5 27.9 42.2 27.8 41.75 27.65 41.35 27.95
L 41.05 28.4 40.6 28.85 39.95 29.1
Q 39.35 29.2 38.7 29.1
L 38.1 28.9 38.05 28.9 37.85 28.75 37.85 28.7 37.7 28.55
Q 37.25 27.7 36.7 27.95 35.95 28.45 36.05 29.25
L 36.1 29.75 30.4 29.5
Q 30.75 29.3 30.9 28.75 31 28.05 31.05 27.8
L 31.4 25.4
Q 31.85 22.45 32.35 20.25 33.2 16.9 33.6 15.25
L 34.15 12.9
Q 34.7 11.6 34.3 10.25 33.9 9.55 33.4 9.75 32.9 9.95 32.65 10.65 32.65 10.75 32.4 11.85
L 30.55 20.1
Q 29.85 23.4 29.6 25.6
L 29.5 26.4
Q 29.35 26.25 29.1 26.25 28.4 26.3 28.3 27.4
L 28.3 27.5 28.25 27.6 28.25 27.7 28.15 27.8 28.15 27.85 27.95 28.05 27.4 28.25 26.95 28.3 26.65 28.2 26.6 28.15 26.45 28.05 26.4 28 26.4 27.95 26.35 27.75 26.35 27.45 26.25 26.8
Q 26.15 26.05 25.85 25.6 25.65 25.2 25.3 25.45
L 25.15 25.55
Q 24.8 26 25.05 26.6
L 25.1 26.75 25.1 26.85 25.15 26.9 25.1 27.95
Q 25.1 28.6 25.35 29.25
L 21.25 29.1 22.3 28.1 23.75 26.3 24.55 25 24.6 24.9 24.7 24.8 24.8 24.65 24.95 24.55 25.2 24.05 25.3 23.35 25.25 23 25.15 22.7 25.15 22.6 25.4 22.35
Q 25.6 21.95 25.6 21.75 25.7 21.35 25.6 21.05
L 25.4 20.55
Q 25.25 20.3 25.15 20.25 25 20.05 24.7 20.05 24.25 20.05 23.95 20.75
L 23.9 20.95 23.85 20.95
Q 22.55 21.7 21.7 22.4
L 16.95 26.2
Q 16.25 26.9 16 27.35 15.6 28.15 15.9 28.9
L 9.8 28.75
Q 7.7 27.75 5.65 26.4
L 3.9 25.1 3.6 23.4
Q 3.4 21.65 3.2 18.05
L 5.15 19.05
Q 6.45 19.7 8.95 21.15 10.9 22 12.9 22.45 14.85 23 17 22.7 17.55 22.5 17.7 21.55 17.75 21.15 17.7 20.7 17.45 19.7 16.95 19.6
L 18.15 19.65
Q 18.4 19.95 18.9 20.2 19.25 20.45 19.85 20.6
L 21 20.8 21.5 20.75 21.95 20.6
Q 22.1 20.55 22.3 20.35 22.8 19.8 22.7 19.15 23.6 18.95 23.95 18.75 24.65 18.25 24.55 17.5 24.45 16.9 24.4 16.85 24.25 16.25 23.65 16.25 21.75 16.65 20.75 16.65 18.75 16.45 17.8 16.2 15.35 15.85 11.9 14.95
L 2.95 12.3 2.95 12.1
Q 3.3 9.7 3.4 8.5 3.5 7.65 3.4 5.9 4.2 7.45 5.85 7.75 7.85 8.35 9.25 8.6 11.15 9 12.75 9.15 14.4 9.45 16.25 9.2 17.2 8.95 17.3 7.9 18.05 8.1 19 8.1 19.75 8 19.8 6.95 19.8 5.9 19.15 5.6 18.05 5.25 16.9 5.15 15.25 4.75 14.4 4.55 13.7 4.4 9.75 3.75 6.3 3.05 5.15 2.95 3.9 2.85 3.1 2.55
L 3 2.5 2.85 2.4 2.95 1.55
Q 3.1 0.85 2.6 0.3 2.05 -0.3 1.55 0.4 0.75 1.5 1.45 3.35 2.45 5.75 2.4 6.55
L 1 7.2
Q 0.5 7.45 0.35 8.05 0.15 8.6 0.15 9.35
L 0.15 10.9
Q 0.15 11.1 0.1 11.55 0 11.95 0.1 12.15
L 0.1 12.2
Q -0.45 12.75 0.25 13.9
L 0.35 14.05 0.65 20.1
Q 0.2 20.65 0.2 21.4
L 0.4 23.45
Q 0.3 23.85 0.4 24.3 0.65 24.9 1.15 25.55
L 1.15 25.65
Q 1.3 26.7 1.7 27.85 1.45 28 1.4 28.2 1.25 28.8 1.5 29.2
L 1.7 29.5 1.8 29.6 2.05 30.05 3.75 31.85 5.75 33.3
Q 6.15 33.45 6.45 33.4 7.05 33.3 7.25 32.9 7.4 32.65 7.5 32.15
L 9.7 32.4 10.15 32.6
Q 10.55 32.85 10.95 32.5
L 18.55 33
Q 21.1 33.2 33.7 33.8 38.45 34.05 47.95 34.65 56.25 35.05 62.2 34.65 69.8 34.25 76.85 31.4 78.1 30.85 77.75 28.75 77.4 26.7 76 27.3 72.6 28.75 69.05 29.4
L 69.3 29
Q 69.7 28.3 70.3 27.5
L 70.4 27.3
Q 70.45 27.3 70.5 27.25
L 70.55 27.15 70.7 26.95 71.05 26.65
Q 71.35 26.3 71.5 25.8 71.75 25.05 71.45 24.45 71.2 23.7 70.7 23.75
M 47.65 25.45
L 50.5 30.4 45.15 30.2 45.2 30.05 47.65 25.45 Z"/>
</g>
</defs>

<g transform="matrix( 1, 0, 0, 1, 0,0) ">
<use xlink:href="#Layer0_0_FILL"/>
</g>
</svg>
