
<svg xmlns="http://www.w3.org/2000/svg" version="1.1" xmlns:xlink="http://www.w3.org/1999/xlink" preserveAspectRatio="none" x="0px" y="0px" width="550px" height="400px" viewBox="0 0 550 400">
<defs>
<g id="Layer0_0_FILL">
<path fill="#FFFFFF" fill-opacity="0.25098039215686274" stroke="none" d="
M -18.45 71.4
L -18.5 71.5 -18 71.6 -18.45 71.4 Z"/>

<path fill="#BEFCCA" fill-opacity="0.25098039215686274" stroke="none" d="
M 13.8 25.85
Q 8.4 24.05 2.8 24.05
L -9.95 24.75 -43.5 28.55 -36.95 30.45
Q -35.05 31 -35.05 32.7 -35.05 34.05 -35.85 35.3 -36.6 36.55 -37.85 36.9 -23.1 35.6 -3.65 30.7
L 13.8 25.85
M 13.2 28.05
L 1.15 41.6
Q -2.95 46.35 -9.7 51.7 -20.15 60.05 -25.85 59.2
L -24.1 59.8 -21 60.05 -18.05 60.7
Q -14.85 60.9 -13.9 62.95 -13.1 64.55 -13.4 68.5 -5.1 62.4 0.05 55.65 8 45.1 13.2 28.05
M 18.45 39.75
Q 18.45 38.15 17.3 33.95 16.05 29.2 14.65 26.95 12.5 38.35 2.95 52.4 -6.55 66.4 -15.15 70.9
L -12.65 70.75
Q -9.55 70.75 -8 73.7 -6.6 76.45 -7.15 80.15
L 3.45 75.8 5.85 74.2
Q 7.05 73.15 7.4 71.75
L 7.15 69.8
Q 7.15 68.9 8.9 65.65
L 12.8 58.4
Q 18.45 47.3 18.45 39.75
M 12.5 28.1
L 12.95 27.2 -17.1 34.2
Q -29.85 37 -39.25 37.6
L -33 38.45
Q -26.1 39.85 -26.1 42.7 -26.1 43.3 -28.25 46.2 -30.7 49.55 -32.3 49.55 -33.3 49.55 -35 50.8 -27.7 50.75 -24.95 51.85 -21.3 53.3 -22.7 57.3 -18.15 58.3 -5.15 46.85 6.55 36.5 12.5 28.1
M 9.5 23.2
L 9.55 23.2 9.4 23.15
Q 4.45 21.7 -2.2 20.7 -11.8 19.25 -22.35 19.25 -33.3 19.25 -41.5 21.45 -45.7 22.55 -48.55 23.8
L -43.55 23.7
Q -41.4 23.7 -40.4 24.8 -39.3 26.05 -40.5 27.95
L -25.95 25.85
Q -9.45 23.7 9.5 23.2 Z"/>
</g>
</defs>

<g transform="matrix( 1, 0, 0, 1, 0,0) ">
<use xlink:href="#Layer0_0_FILL"/>
</g>
</svg>
