
<svg xmlns="http://www.w3.org/2000/svg" version="1.1" xmlns:xlink="http://www.w3.org/1999/xlink" preserveAspectRatio="none" x="0px" y="0px" width="550px" height="400px" viewBox="0 0 550 400">
<defs>
<g id="Layer0_0_FILL">
<path fill="#BEFCCA" fill-opacity="0.25098039215686274" stroke="none" d="
M -72.9 -28.9
Q -72.05 -28.2 -71.5 -26.6 -70.9 -24.65 -70.9 -21.8 -70.9 -19 -73.8 -15.4 -76.9 -11.5 -80.6 -10.55 -74.6 -8.8 -72.85 -5.3 -71.75 -3.1 -71.75 2.6 -71.75 4.8 -72.05 5.85 -72.45 7.05 -73.9 9.5 -71.45 10.9 -70.35 11.8
L -68.6 13.5
Q -66.2 15.6 -66.2 19.7 -66.2 23.55 -67.6 26.2 -68.2 27.3 -70.7 30.35 -63.75 31.35 -61.6 33.1 -59.15 35.05 -59.15 40.3
L -60.05 45.25
Q -55.3 46.7 -53.7 47.5 -51.2 48.8 -51.2 52.6 -51.2 53.25 -51.35 53.6
L -51.65 54.3 -52.1 55
Q -33.7 52.3 -15.35 42.75
L -2.05 35.45
Q 5.1 31.6 9.75 30 -0.3 38.1 -23.15 46.9 -40.5 53.55 -50.3 55.7
L -26.55 56.25
Q -3 56.25 5.25 50.95 11.25 47.1 11.25 37.65 11.25 33.25 10.2 28.95 9.2 24.9 9.3 22.9
L -12 22.65 -31.8 25.55
Q -53.9 28.7 -68 29.8
L -68.7 29.75 -68.75 29.5
Q -63.5 27.85 -42.15 25.05 -12.75 21.15 7.65 22.35 -3.75 19.25 -32 14.55 -58.65 10.05 -71.35 8.85 -66.7 8.45 -44.95 11.95
L 2 20.05 -17.95 11.3 7.9 22
Q -3 13.3 -36 -7.1 -64.35 -24.6 -72.9 -28.9
M -61.25 -5.7
L -70.15 -8.35 -58 -5.65
Q -55.55 -4.85 -38 2.65
L -61.25 -5.7
M 9 23.75
Q -41.65 45.4 -58.5 44.2 -45.75 40.65 9 23.75
M -74.4 -59
Q -74.45 -57.85 -73.4 -56.35 -72.35 -54.75 -72.35 -53.25 -72.35 -52.1 -74.45 -51.3
L -78.3 -48.75 -50.9 -27.6
Q -64.675 -37.6625 -75.4 -44.75
L -71.2 -40.2
Q -68.75 -37.4 -68.75 -35.2 -68.75 -33.7 -70.7 -31.95 -72.8 -29.95 -74.9 -30.55 -44.9 -17.25 3.45 16.55
L -19.5 -3.15 0.4 12.45 -2.4 7.65
Q -6.75 0.7 -14.95 -10.7 -16.95 -13.05 -19.7 -15.7
L -21.2 -17.05
Q -32.3 -27.15 -43.55 -33.6 -50.65 -37.7 -59.8 -45.75
L -74.4 -59 Z"/>

<path fill="#FFFFFF" fill-opacity="0.25098039215686274" stroke="none" d="
M -70.15 -8.35
L -61.25 -5.7 -38 2.65
Q -55.55 -4.85 -58 -5.65
L -70.15 -8.35 Z"/>
</g>
</defs>

<g transform="matrix( 1, 0, 0, 1, 0,0) ">
<use xlink:href="#Layer0_0_FILL"/>
</g>
</svg>
