
<svg xmlns="http://www.w3.org/2000/svg" version="1.1" xmlns:xlink="http://www.w3.org/1999/xlink" preserveAspectRatio="none" x="0px" y="0px" width="550px" height="400px" viewBox="0 0 550 400">
<defs>
<g id="Layer0_0_FILL">
<path fill="#BEFCCA" fill-opacity="0.25098039215686274" stroke="none" d="
M 8.75 36.45
L 8.9 36.35
Q 2.7 34.4 -0.75 33.7 -6.7 32.55 -14.15 32.55 -39.75 32.55 -60.3 41.75 -72.7 47.35 -97.2 62.35
L -95.95 62
Q -77.45 55.15 -57.25 49 -23.95 38.9 -11.8 39.45 -28 42.1 -53.65 49.25 -78.15 56.1 -94 62.15 -80 62.3 -77.5 62.5 -74.75 62.75 -74.75 64.65 -74.75 68 -76.45 69.65
L -80.15 72.35
Q -48.6 60.65 -32.75 54.95 -30.3 53.95 -0.65 39.15
L -1.5 39 -4.25 39.05 1.95 38.1 4.5 36.5 4.2 37.25 3.1 38.35 7.55 36.95
Q 6.6 37.4 5.9 38 -3.8 42.8 -36.65 56.75 -68.4 70.2 -71.7 71.25 -69.75 72.1 -68.85 74.6 -68.45 75.75 -70.75 82.65 -68.4 77.6 -69.1 79.7
L -70.1 81.65
Q -70.75 82.65 -64.65 80.05 -58.95 77.5 -45.1 70.5 -34.55 65.2 -30.2 62.7 -40.15 68.9 -47.7 72.95 -56.7 77.75 -67.05 82.05 -56.2 81.9 -55.3 82.05 -52.7 82.45 -52.7 85.2
L -53.1 87.1
Q -53.8 89.25 -55.2 90.75
L -30.35 73.45 -47.15 85.9
Q -43.35 85.05 -39.1 83.6 -36.75 82.8 -33.85 82.8 -30.3 82.8 -28.9 83.75 -27.6 84.7 -26.85 87.4 -23.7 83.95 -10.8 66 2 48.25 2 47.45
L 2.6 45.85
Q 3.35 43.7 4.1 40
L -4 45.45 4.8 39.25
Q 4 40.3 3.75 41.7 2.45 48.4 -0.25 52.6 -7.25 63.6 -16.2 75.45
L -24.1 85.55 -23.15 85.1
Q -1.95 61.45 1.95 55.5 4.5 51.55 6 47.15
L 8.9 36.4 8.75 36.45 Z"/>
</g>
</defs>

<g transform="matrix( 1, 0, 0, 1, 0,0) ">
<use xlink:href="#Layer0_0_FILL"/>
</g>
</svg>
