
<svg xmlns="http://www.w3.org/2000/svg" version="1.1" xmlns:xlink="http://www.w3.org/1999/xlink" preserveAspectRatio="none" x="0px" y="0px" width="550px" height="400px" viewBox="0 0 550 400">
<defs>
<g id="Layer0_0_FILL">
<path fill="#FFFFFF" stroke="none" d="
M 4.15 1.2
Q 4.15 0.65 3.8 0.3 3.65 0.1 3.3 0
L 3 0 2.25 0.1
Q 1.65 0.25 1 0.85 1 0.9 0.9 1.05 0.85 1.1 0.8 1.1
L 0.55 1.45 0.25 2.05
Q -0.15 3.05 0.15 3.5 0.3 3.65 0.35 3.55 0.45 3.5 0.7 3 0.7 3.05 0.8 2.9
L 0.85 2.75 1.25 2.35 1.35 2.3 1.5 2.2 1.65 2.15 1.7 2.15 2.05 2.05
Q 2.5 1.95 3.05 2.05
L 3.25 2.1 3.7 2
Q 4.05 1.9 4.15 1.2 Z"/>
</g>
</defs>

<g transform="matrix( 1, 0, 0, 1, 0,0) ">
<use xlink:href="#Layer0_0_FILL"/>
</g>
</svg>
