
<svg xmlns="http://www.w3.org/2000/svg" version="1.1" xmlns:xlink="http://www.w3.org/1999/xlink" preserveAspectRatio="none" x="0px" y="0px" width="550px" height="400px" viewBox="0 0 550 400">
<defs>
<g id="Layer0_0_FILL">
<path fill="#FFFFFF" stroke="none" d="
M 1.95 1.45
L 1.95 1.05
Q 1.9 0.7 1.65 0.4
L 1.45 0.15
Q 1.25 0 0.95 0
L 0.6 0.1
Q 0.35 0.25 0.3 0.45 0.1 0.75 0.1 0.9
L 0 1.5 0.05 1.9
Q 0.15 2.3 0.35 2.55
L 0.55 2.75
Q 0.7 2.95 1.05 2.95
L 1.4 2.8
Q 1.65 2.75 1.7 2.5
L 1.9 2
Q 2 1.7 1.95 1.45 Z"/>
</g>
</defs>

<g transform="matrix( 1, 0, 0, 1, 0,0) ">
<use xlink:href="#Layer0_0_FILL"/>
</g>
</svg>
