
<svg xmlns="http://www.w3.org/2000/svg" version="1.1" xmlns:xlink="http://www.w3.org/1999/xlink" preserveAspectRatio="none" x="0px" y="0px" width="550px" height="400px" viewBox="0 0 550 400">
<defs>
<g id="Layer0_0_FILL">
<path fill="#FFFF00" stroke="none" d="
M -10.45 -102
Q -11 -106.9 -11.75 -108.5 -12.5 -110.25 -15.3 -111.65 -18.8 -113.4 -21.55 -111.3 -22.9 -110.25 -25.3 -109.45 -26.85 -108.4 -26.7 -105.95
L -30.8 -105.75
Q -32.35 -105.1 -32.5 -103.75 -32.7 -102.55 -32.1 -101.2
L -28.65 -95.7 -28.95 -94.8
Q -29.3 -94.05 -29 -93.45 -28.7 -92.85 -27.05 -92.05 -24.85 -90.95 -22.5 -92
L -20.85 -92.6 -20.4 -92.7 -18.35 -93.35
Q -17.9 -93.65 -17.65 -94.25
L -17.6 -94.3
Q -17.5 -94.9 -17.05 -95.05 -13.75 -96.6 -13.25 -97.55 -11.7 -100.45 -10.45 -102 Z"/>
</g>
</defs>

<g transform="matrix( 1, 0, 0, 1, 0,0) ">
<use xlink:href="#Layer0_0_FILL"/>
</g>
</svg>
