
<svg xmlns="http://www.w3.org/2000/svg" version="1.1" xmlns:xlink="http://www.w3.org/1999/xlink" preserveAspectRatio="none" x="0px" y="0px" width="550px" height="400px" viewBox="0 0 550 400">
<defs>
<g id="Layer0_0_FILL">
<path fill="#000000" stroke="none" d="
M 36.25 -27.3
Q 36.25 -29.55 33.6 -30.8 11.2 -63.25 -15.15 -92.5
L -17.6 -94.3 -17.65 -94.25
Q -17.9 -93.65 -18.35 -93.35
L -20.4 -92.7 -20.85 -92.6 -20.9 -92.55 -21.1 -92.05 -19.45 -92.2
Q -20.25 -79.65 -22.95 -67.2 -30.05 -34.05 -31.55 -0.9
L -32.8 0 -32.55 1.55
Q -10.45 4.35 10.5 -2.75
L 11.9 -2.2
Q 28.4 -7.55 41.35 -19.25
L 41.3 -23.7 39.15 -23.45 36.25 -27.3
M 3 -67.1
L 9.95 -57.9
Q 6.45 -44.95 -5.85 -39.75 -14.85 -36.3 -24.15 -34.55
L -21.7 -50.65
Q -4.9 -53.45 3 -67.1
M 25.5 -35.4
L 32.25 -27.15
Q 28.55 -18.8 21.85 -12.6 11.1 -2.85 -4.4 -2.6
L -5.4 -2.4 -0.1 -5.45
Q 18.45 -16.25 25.5 -35.4
M 11.1 -36.55
L 18.05 -45.5 23.3 -38.35
Q 15.05 -17.65 -4.05 -5.55 -11.65 -0.7 -20.5 -0.3 -24.2 0.55 -27.1 -0.9
L -29.8 -0.8 -26.25 -21.55
Q -6.1 -25.15 11.1 -36.55
M 8.95 -39.1
L 6.6 -37.3
Q -8.05 -26.8 -26 -23.2
L -24.55 -31.95
Q -15.1 -32.55 -6.5 -35.8 6.4 -41.1 12.5 -53.8
L 15.25 -49.5 8.95 -39.1
M 24.75 -10.5
L 35.05 -23.9 37.35 -21.4 24.75 -10.5
M -16.7 -91
L -5.85 -76.5
Q -6.9 -67.85 -16.25 -67.25
L -19.35 -66.8 -16.7 -91
M -19.8 -63.8
L -17.65 -63.85
Q -6.8 -64.7 -2.45 -73.85
L 0.4 -70.2
Q -6.3 -56.75 -21.3 -53.05
L -19.8 -63.8 Z"/>

<path fill="#FFFC00" stroke="none" d="
M -17.65 -63.85
L -19.8 -63.8 -21.3 -53.05
Q -6.3 -56.75 0.4 -70.2
L -2.45 -73.85
Q -6.8 -64.7 -17.65 -63.85
M 6.6 -37.3
L 8.95 -39.1 15.25 -49.5 12.5 -53.8
Q 6.4 -41.1 -6.5 -35.8 -15.1 -32.55 -24.55 -31.95
L -26 -23.2
Q -8.05 -26.8 6.6 -37.3
M 32.25 -27.15
L 25.5 -35.4
Q 18.45 -16.25 -0.1 -5.45
L -5.4 -2.4 -4.4 -2.6
Q 11.1 -2.85 21.85 -12.6 28.55 -18.8 32.25 -27.15 Z"/>
</g>
</defs>

<g transform="matrix( 1, 0, 0, 1, 0,0) ">
<use xlink:href="#Layer0_0_FILL"/>
</g>
</svg>
