
<svg xmlns="http://www.w3.org/2000/svg" version="1.1" xmlns:xlink="http://www.w3.org/1999/xlink" preserveAspectRatio="none" x="0px" y="0px" width="550px" height="400px" viewBox="0 0 550 400">
<defs>
<g id="Graphics_Symbol_698_0_Layer1_0_FILL">
<path fill="#FFFF00" stroke="none" d="
M -21.55 -111.3
Q -22.9 -110.25 -25.3 -109.45 -26.85 -108.4 -26.7 -105.95
L -28.55 -105.9 -30.8 -105.75
Q -32.35 -105.1 -32.5 -103.75 -32.7 -102.55 -32.1 -101.2
L -30.35 -98.45 -28.65 -95.7 -28.95 -94.8
Q -29.3 -94.05 -29 -93.45 -28.7 -92.85 -27.05 -92.05 -24.85 -90.95 -22.5 -92
L -20.85 -92.6 -20.4 -92.7 -18.35 -93.35
Q -17.9 -93.65 -17.65 -94.25
L -17.6 -94.3
Q -17.5 -94.9 -17.05 -95.05 -13.75 -96.6 -13.25 -97.55 -11.7 -100.45 -10.45 -102 -11 -106.9 -11.75 -108.5 -12.5 -110.25 -15.3 -111.65 -18.8 -113.4 -21.55 -111.3 Z"/>
</g>

<g id="Graphics_Symbol_698_0_Layer0_0_FILL">
<path fill="#000000" stroke="none" d="
M 36.25 -27.3
Q 36.25 -29.55 33.6 -30.8 11.2 -63.25 -15.15 -92.5
L -16.15 -93.2 -17.6 -94.3 -17.65 -94.25
Q -17.9 -93.65 -18.35 -93.35
L -20.4 -92.7 -20.85 -92.6 -20.9 -92.55 -21.1 -92.05 -19.45 -92.2
Q -20.25 -79.65 -22.95 -67.2 -30.05 -34.05 -31.55 -0.9
L -32.8 0 -32.55 1.55
Q -10.45 4.35 10.5 -2.75
L 11.9 -2.2
Q 28.4 -7.55 41.35 -19.25
L 41.3 -23.7 39.15 -23.45 36.25 -27.3
M 3 -67.1
L 9.95 -57.9
Q 6.45 -44.95 -5.85 -39.75 -14.85 -36.3 -24.15 -34.55
L -21.7 -50.65
Q -4.9 -53.45 3 -67.1
M 25.5 -35.4
L 32.25 -27.15
Q 28.55 -18.8 21.85 -12.6 11.1 -2.85 -4.4 -2.6
L -5.4 -2.4 -4.6 -2.8 -0.1 -5.45
Q 18.45 -16.25 25.5 -35.4
M 11.1 -36.55
L 18.05 -45.5 23.3 -38.35
Q 15.05 -17.65 -4.05 -5.55 -11.65 -0.7 -20.5 -0.3 -24.2 0.55 -27.1 -0.9
L -29.8 -0.8 -26.25 -21.55
Q -6.1 -25.15 11.1 -36.55
M 8.95 -39.1
L 6.6 -37.3
Q -8.05 -26.8 -26 -23.2
L -24.55 -31.95
Q -15.1 -32.55 -6.5 -35.8 6.4 -41.1 12.5 -53.8
L 15.25 -49.5 8.95 -39.1
M 24.75 -10.5
L 35.05 -23.9 37.35 -21.4 24.75 -10.5
M -16.7 -91
L -5.85 -76.5
Q -6.9 -67.85 -16.25 -67.25
L -19.35 -66.8 -16.7 -91
M -19.8 -63.8
L -17.65 -63.85
Q -6.8 -64.7 -2.45 -73.85
L 0.4 -70.2
Q -6.3 -56.75 -21.3 -53.05
L -19.8 -63.8 Z"/>

<path fill="#FFFC00" stroke="none" d="
M -17.65 -63.85
L -19.8 -63.8 -21.3 -53.05
Q -6.3 -56.75 0.4 -70.2
L -2.45 -73.85
Q -6.8 -64.7 -17.65 -63.85
M 6.6 -37.3
L 8.95 -39.1 15.25 -49.5 12.5 -53.8
Q 6.4 -41.1 -6.5 -35.8 -15.1 -32.55 -24.55 -31.95
L -26 -23.2
Q -8.05 -26.8 6.6 -37.3
M 32.25 -27.15
L 25.5 -35.4
Q 18.45 -16.25 -0.1 -5.45
L -4.6 -2.8 -5.4 -2.4 -4.4 -2.6
Q 11.1 -2.85 21.85 -12.6 28.55 -18.8 32.25 -27.15 Z"/>
</g>

<g id="Graphics_Symbol_699_0_Layer2_0_FILL">
<path fill="#000000" fill-opacity="0.25098039215686274" stroke="none" d="
M -14.85 -103.35
L -15 -100.65 -13.75 -103.75 -18.9 -109.8 -14.85 -103.35
M 28.7 -12.25
Q 30.85 -14.5 31.4 -17.05
L 22.15 -8.65
Q 25.9 -9.4 28.7 -12.25
M 3.3 -31
L 5.2 -32.75 -16.3 -23.8 -16.5 -48.95
Q -11.95 -50.65 -7.8 -53.7
L -6.65 -54.35
Q -4.75 -55.45 -4.05 -57.55
L -4.05 -57.75 -16.35 -51.9 -16.55 -91.15
Q -18.65 -90.2 -18.35 -86.9
L -18.15 -82.65
Q -17.95 -80 -18.7 -77.2
L -19.6 -72.95 -19.9 -71.4 -19.85 -71.15
Q -18.6 -70.95 -18.95 -69.45
L -19.7 -66.2 -21.45 -59.65 -22.7 -55.65 -23.65 -51.6 -23.95 -49.6 -24.7 -41.7
Q -25.05 -37.45 -26.3 -33.3 -30.3 -19.45 -31.95 -5.45 -32.35 -2.45 -31.65 0.25 -29.15 2.15 -25.9 2
L -20.95 1.7 -16.85 1.15 -16.2 -20.85
Q -8.25 -22.65 -1.35 -27.3
L 3.3 -31 Z"/>
</g>

<g id="Graphics_Symbol_699_0_Layer1_0_FILL">
<path fill="#FFFFFF" fill-opacity="0.5019607843137255" stroke="none" d="
M 27.75 -32.65
L 22.7 -39.15
Q 19.1 -43.9 19 -44.45 18.65 -46.55 2.15 -68.15
L -16.3 -92.5
Q 19.4 -18.75 22.25 -13.35
L 24.25 -9.65 24.35 -9.65
Q 24.7 -9 24.6 -9.6
L 24.6 -9.65 24.55 -9.8
Q 24 -11.75 24.9 -9.65
L 29.05 -12.4
Q 37.8 -18.5 37.35 -21.3 37.25 -22.05 27.75 -32.65 Z"/>
</g>

<g id="Graphics_Symbol_699_0_Layer0_0_FILL">
<path fill="#FFFFFF" stroke="none" d="
M -13.8 -103.6
Q -13.35 -102.3 -13.85 -101.25
L -14.75 -99.6 -14.35 -98.45 -10.8 -99.3
Q -10.6 -102.8 -11.5 -106 -13.4 -112.65 -20.15 -111.85 -15.65 -108.4 -13.8 -103.6
M -16 -101.6
Q -15.8 -104.5 -18.05 -106.6 -19.35 -107.85 -21.2 -107.55
L -17.6 -100.35 -16 -101.6
M 13.2 -53.6
L 7.2 -61.85
Q 2.3 -68.65 -2.45 -75.5
L -6.5 -80.95 -10.6 -86.05
Q -12.05 -87.75 -12.75 -89.55 -14.25 -93.3 -17.3 -92.9 -14.7 -90.9 -13.45 -87.65 -12.05 -83.9 -8.85 -81.1 -6.9 -79.45 -5.65 -77.15
L -3.25 -73.65 -7.7 -67.25 -5.05 -62.75 -0.05 -67.95 12 -53.1
Q 10.2 -48.65 6.65 -45.1
L 4.8 -43.35 7.8 -38.25 14.95 -48.55 25.7 -34.5 17.3 -20.55 21.6 -12.6 30.65 -25.05 30.1 -25.35 29.85 -25.3 30.05 -25.9 30.6 -27 36.3 -19.2 36.3 -18 37.65 -17.3
Q 38.2 -18.85 37.1 -20.35
L 24.4 -38.15 13.2 -53.6
M 7.7 -40
Q 7.4 -40.85 8.1 -40.65
L 7.7 -40 Z"/>
</g>

<g id="MovieClips_PR2_Graphics_1_Apr_2014_fla_Symbol_667_7_Layer0_0_FILL">
<path fill="#FF0000" stroke="none" d="
M 8.7 -3.9
Q 18.65 -6 25.35 -11.25
L 24.75 -10.5 37.35 -21.4 35.05 -23.9 18.05 -45.5 3 -67.1 -16.7 -91 -21.7 -50.65 -29.8 -0.8 -27.1 -0.9
Q -24.2 0.55 -20.5 -0.3 -10.55 0.1 8.7 -3.9 Z"/>
</g>

<g id="MovieClips_PR2_Graphics_1_Apr_2014_fla_Symbol_684_7_Layer1_0_FILL">
<path fill="#FFFF00" stroke="none" d="
M -17.65 -63.85
L -19.8 -63.8 -21.3 -53.05
Q -6.3 -56.75 0.4 -70.2
L -2.45 -73.85
Q -6.8 -64.7 -17.65 -63.85
M -15.3 -111.65
Q -18.8 -113.4 -21.55 -111.3 -22.9 -110.25 -25.3 -109.45 -26.85 -108.4 -26.7 -105.95
L -30.8 -105.75
Q -32.35 -105.1 -32.5 -103.75 -32.7 -102.55 -32.1 -101.2
L -28.65 -95.7 -28.95 -94.8
Q -29.3 -94.05 -29 -93.45 -28.7 -92.85 -27.05 -92.05 -24.85 -90.95 -22.5 -92
L -20.85 -92.6 -20.4 -92.7 -18.35 -93.35
Q -17.9 -93.65 -17.65 -94.25
L -17.6 -94.3
Q -17.5 -94.9 -17.05 -95.05 -13.75 -96.6 -13.25 -97.55 -11.7 -100.45 -10.45 -102 -11 -106.9 -11.75 -108.5 -12.5 -110.25 -15.3 -111.65
M 32.25 -27.15
L 25.5 -35.4
Q 18.45 -16.25 -0.1 -5.45
L -4.6 -2.8 -4.4 -2.6
Q 11.1 -2.85 21.85 -12.6 28.55 -18.8 32.25 -27.15
M 8.95 -39.1
L 15.25 -49.5 12.5 -53.8
Q 6.4 -41.1 -6.5 -35.8 -15.1 -32.55 -24.55 -31.95
L -26 -23.2
Q -8.05 -26.8 6.6 -37.3
L 8.95 -39.1 Z"/>
</g>
</defs>

<g transform="matrix( 1, 0, 0, 1, 0,0) ">
<g transform="matrix( 1, 0, 0, 1, 0,0) ">
<g transform="matrix( 1, 0, 0, 1, 0,0) ">
<use xlink:href="#Graphics_Symbol_698_0_Layer1_0_FILL"/>
</g>

<g transform="matrix( 1, 0, 0, 1, 0,0) ">
<use xlink:href="#Graphics_Symbol_698_0_Layer0_0_FILL"/>
</g>
</g>

<g transform="matrix( 1, 0, 0, 1, 0,0) ">
<g transform="matrix( 1, 0, 0, 1, 0,0) ">
<use xlink:href="#Graphics_Symbol_699_0_Layer2_0_FILL"/>
</g>

<g transform="matrix( 1, 0, 0, 1, 0,0) ">
<use xlink:href="#Graphics_Symbol_699_0_Layer1_0_FILL"/>
</g>

<g transform="matrix( 1, 0, 0, 1, 0,0) ">
<use xlink:href="#Graphics_Symbol_699_0_Layer0_0_FILL"/>
</g>
</g>
</g>

<g transform="matrix( 1, 0, 0, 1, 0,0) ">
<g transform="matrix( 1, 0, 0, 1, 0,0) ">
<use xlink:href="#MovieClips_PR2_Graphics_1_Apr_2014_fla_Symbol_667_7_Layer0_0_FILL"/>
</g>
</g>

<g transform="matrix( 1, 0, 0, 1, 0,0) ">
<g transform="matrix( 1, 0, 0, 1, 0,0) ">
<use xlink:href="#MovieClips_PR2_Graphics_1_Apr_2014_fla_Symbol_684_7_Layer1_0_FILL"/>
</g>
</g>
</svg>
