
<svg xmlns="http://www.w3.org/2000/svg" version="1.1" xmlns:xlink="http://www.w3.org/1999/xlink" preserveAspectRatio="none" x="0px" y="0px" width="550px" height="400px" viewBox="0 0 550 400">
<defs>
<g id="MovieClips_PR2_Graphics_1_Apr_2014_fla_Symbol_684_7_Layer1_0_FILL">
<path fill="#FFFF00" stroke="none" d="
M -17.65 -63.85
L -19.8 -63.8 -21.3 -53.05
Q -6.3 -56.75 0.4 -70.2
L -2.45 -73.85
Q -6.8 -64.7 -17.65 -63.85
M -15.3 -111.65
Q -18.8 -113.4 -21.55 -111.3 -22.9 -110.25 -25.3 -109.45 -26.85 -108.4 -26.7 -105.95
L -30.8 -105.75
Q -32.35 -105.1 -32.5 -103.75 -32.7 -102.55 -32.1 -101.2
L -28.65 -95.7 -28.95 -94.8
Q -29.3 -94.05 -29 -93.45 -28.7 -92.85 -27.05 -92.05 -24.85 -90.95 -22.5 -92
L -20.85 -92.6 -20.4 -92.7 -18.35 -93.35
Q -17.9 -93.65 -17.65 -94.25
L -17.6 -94.3
Q -17.5 -94.9 -17.05 -95.05 -13.75 -96.6 -13.25 -97.55 -11.7 -100.45 -10.45 -102 -11 -106.9 -11.75 -108.5 -12.5 -110.25 -15.3 -111.65
M 32.25 -27.15
L 25.5 -35.4
Q 18.45 -16.25 -0.1 -5.45
L -4.6 -2.8 -4.4 -2.6
Q 11.1 -2.85 21.85 -12.6 28.55 -18.8 32.25 -27.15
M 8.95 -39.1
L 15.25 -49.5 12.5 -53.8
Q 6.4 -41.1 -6.5 -35.8 -15.1 -32.55 -24.55 -31.95
L -26 -23.2
Q -8.05 -26.8 6.6 -37.3
L 8.95 -39.1 Z"/>
</g>
</defs>

<g transform="matrix( 1, 0, 0, 1, 0,0) ">
<g transform="matrix( 1, 0, 0, 1, 0,0) ">
<use xlink:href="#MovieClips_PR2_Graphics_1_Apr_2014_fla_Symbol_684_7_Layer1_0_FILL"/>
</g>
</g>
</svg>
