
<svg xmlns="http://www.w3.org/2000/svg" version="1.1" xmlns:xlink="http://www.w3.org/1999/xlink" preserveAspectRatio="none" x="0px" y="0px" width="550px" height="400px" viewBox="0 0 550 400">
<defs>
<g id="Layer0_0_FILL">
<path fill="#FFFFFF" stroke="none" d="
M 3.3 1.65
Q 3.5 1.5 3.5 0.9 3.25 0.2 2.55 0.1 2.1 -0.05 1.6 0.05 1.2 0.05 0.65 0.4
L 0.35 0.8 0 1.15
Q 0 1.3 0.1 1.25
L 0.4 1.1
Q 0.6 1.05 0.75 1.1 0.95 1.15 1.15 1.1
L 1.55 1.1 2.2 1.3 2.75 1.6 2.8 1.65 2.85 1.65
Q 3.05 1.85 3.3 1.65 Z"/>
</g>
</defs>

<g transform="matrix( 1, 0, 0, 1, 0,0) ">
<use xlink:href="#Layer0_0_FILL"/>
</g>
</svg>
