
<svg xmlns="http://www.w3.org/2000/svg" version="1.1" xmlns:xlink="http://www.w3.org/1999/xlink" preserveAspectRatio="none" x="0px" y="0px" width="550px" height="400px" viewBox="0 0 550 400">
<defs>
<g id="Layer0_0_FILL">
<path fill="#000000" stroke="none" d="
M 51.7 5.1
Q 49.15 0 46 0 26.8 0 16.1 21.65 7.75 38.6 7.75 58.7
L 8.2 65.75
Q 8.65 71.8 7.85 87.45 7.05 103.05 5.45 111.05 3.8 119 -0.35 128.45 -4.45 137.6 -4.45 138.3 -4.45 141.45 -1.75 142.8 0.6 143.95 5.3 143.95 6.75 143.95 10.15 142.4 14.65 140.2 17.45 139 28.65 134 38.35 134 44.1 134 50 136.2 56.05 138.45 59.2 141.95
L 62.7 142.65 70.35 137.65
Q 75.7 134.2 79 131.25 89 122.35 89 111.75 89 100.5 84.75 92.5 81.9 87.15 75.5 80.55 69.05 73.9 67 69.4 64.95 64.9 63.45 59.9 61.95 54.9 60.15 40.7 58.35 26.35 57.45 22.25 54.1 9.9 51.7 5.1
M 82.45 94.35
Q 85.25 96.85 86.05 98.4 87.2 100.55 87.2 104.75 87.2 115.4 79.8 126.6 71.7 138.95 61.8 138.95 60.05 138.95 58.3 137.8
L 54.55 135.25
Q 48.1 131.5 35 131.5 24.1 131.5 12.5 136.6
L 4.85 140.1
Q 1.15 141.7 -1 141.7
L -2 141.6
Q -2.3 141.5 -2.3 138.85 -2.3 137.7 -0.2 134.2
L 5.1 125
Q 13.85 108.45 19.25 84.75 18.4 85.85 14.2 98.2
L 8.65 114.6 8.55 114.65
Q 10.4 103.5 11 97.35 11.5 91.95 11.5 85.25 11.5 81.6 10.9 71.4 9.75 56 9.75 54.3 9.75 26.9 23.35 12.55 28.5 7.15 34.95 4.3 40.3 2 45 2 48.95 2 50.95 7.5 52.9 12.95 55.75 35.9 58.6 58.85 66.2 72.75 73.8 86.65 82.45 94.35
M 32.35 88.7
L 33.95 87.2
Q 41.8 79.95 42.4 79.55 46 77 56.8 72.55
L 55.6 72.35 55.4 72.25
Q 45.4 73.2 41.6 77.25 40.85 78.05 37.95 82.1 35.3 85.75 32.35 88.7 Z"/>
</g>
</defs>

<g transform="matrix( 1, 0, 0, 1, 0,0) ">
<use xlink:href="#Layer0_0_FILL"/>
</g>
</svg>
