
<svg xmlns="http://www.w3.org/2000/svg" version="1.1" xmlns:xlink="http://www.w3.org/1999/xlink" preserveAspectRatio="none" x="0px" y="0px" width="550px" height="400px" viewBox="0 0 550 400">
<defs>
<g id="Layer0_0_FILL">
<path fill="#FFFFFF" fill-opacity="0.25098039215686274" stroke="none" d="
M 58.95 110.3
Q 61.6 107.95 61.6 104.2 60.95 102.2 59.1 100.6 55.4 97.45 49.5 98.9 49.5 103.25 48.05 104.45 46.6 105.7 46.6 106.25 46.6 107.4 48.25 109.45 50.55 112.3 54.1 112.3 56.7 112.3 58.95 110.3
M 37.9 43.1
Q 34.65 43.1 32.95 47.65 31.65 51.2 31.65 56.1 31.65 56.95 32.4 58.65 33.15 60.35 33.55 60.35 35.55 60.35 38.7 56.8 42.05 53 42.05 49.9 42.05 43.1 37.9 43.1 Z"/>
</g>
</defs>

<g transform="matrix( 1, 0, 0, 1, 0,0) ">
<use xlink:href="#Layer0_0_FILL"/>
</g>
</svg>
