
<svg xmlns="http://www.w3.org/2000/svg" version="1.1" xmlns:xlink="http://www.w3.org/1999/xlink" preserveAspectRatio="none" x="0px" y="0px" width="550px" height="400px" viewBox="0 0 550 400">
<defs>
<g id="Layer0_0_FILL">
<path fill="#000000" fill-opacity="0.25098039215686274" stroke="none" d="
M 59.15 43.2
Q 56.5 27.7 54.35 19.7
L 50.25 5.75
Q 48.3 -0.2 40.7 0.25 33.15 0.7 23.05 12.5 12.95 24.3 12.1 32.75 11.2 32.75 8.95 41.95 7.8 46.6 7.95 52.25 6.8 59.95 9.65 113.75 9.65 117 2.65 126.25 -4.35 135.45 -4 139.05 -3.65 142.65 -2.25 142.9
L 6 142.25
Q 12.85 141.35 22.05 136.75 31.25 132.15 36.65 132.15 43.7 132.15 52.85 135.7
L 61.7 139.25
Q 70.4 138.95 78.45 131.15 86.5 123.3 88.3 112.85 90.1 102.35 86.85 96.45 84.6 92.3 79.2 86.85 72.3 79.85 70.4 77.4 65.6 71.35 63.5 64.3 61.8 58.65 59.15 43.2
M 18.35 94.85
Q 20.45 76.6 24.15 58.4 31.6 22.1 39.7 22.1 44.3 22.1 48.25 34.1 51.7 44.55 51.7 52.1 51.7 59.8 48.3 64.75 46.4 67.5 40.8 71.95 35.45 76.2 33.25 79.75 29.85 85.4 29.85 94.2
L 30.05 100.15 30.85 100.4 32.4 100.6
Q 34.5 100.6 38.55 97.15 42.35 93.95 42.35 93.1
L 42.35 92.8
Q 42.35 91.8 45.25 90.45 48.2 89.1 51.2 89.1 64.7 89.1 71.9 99.55 76.9 106.8 76.9 113.75 76.9 121.85 59.8 121.85 33.8 121.85 24.4 112.8 18.35 107 18.35 94.85 Z"/>
</g>
</defs>

<g transform="matrix( 1, 0, 0, 1, 0,0) ">
<use xlink:href="#Layer0_0_FILL"/>
</g>
</svg>
