
<svg xmlns="http://www.w3.org/2000/svg" version="1.1" xmlns:xlink="http://www.w3.org/1999/xlink" preserveAspectRatio="none" x="0px" y="0px" width="550px" height="400px" viewBox="0 0 550 400">
<defs>
<g id="Layer0_0_FILL">
<path fill="#FFFFFF" stroke="none" d="
M 17.95 2.7
Q 18.35 2.2 18 1.7 17.3 1 16.3 1.05 15.5 0.95 13.9 0.95
L 4.9 0.4
Q 2.4 -0.1 0.25 0.05 0.05 0.1 0 0.4 -0.05 0.7 0.15 0.8 2 2 4.25 2.15 5.2 2.35 8.85 2.7 12.1 2.9 13.6 2.95
L 16 3.1
Q 16.8 3.15 17.05 3.15 17.6 3.05 17.95 2.7 Z"/>
</g>
</defs>

<g transform="matrix( 1, 0, 0, 1, 0,0) ">
<use xlink:href="#Layer0_0_FILL"/>
</g>
</svg>
