
<svg xmlns="http://www.w3.org/2000/svg" version="1.1" xmlns:xlink="http://www.w3.org/1999/xlink" preserveAspectRatio="none" x="0px" y="0px" width="550px" height="400px" viewBox="0 0 550 400">
<defs>
<g id="Graphics_Symbol_685_0_Layer2_0_FILL">
<path fill="#000000" stroke="none" d="
M -66.95 -5
Q -66.9 -5.7 -67 -4.85
L -66.95 -5
M 46.5 -51.45
L 44.6 -53.25 45.55 -52.45 35.55 -61.7
Q 24.95 -70.6 12.7 -77.5
L -20.4 -93.2
Q -21.45 -92.55 -21.75 -91 -22.55 -87.25 -26.5 -86.4 -34.2 -85.25 -41.65 -79.85 -49.15 -74.45 -54.15 -56.45 -59.15 -38.45 -52.1 -9.95 -52.65 -7.05 -54.6 -4.75 -62.7 5 -74.7 9.4 -84.95 13.15 -91.35 20.5 -91.25 21.95 -91.6 23.35 -92.9 28.55 -88.95 32 -83.5 36.65 -76.6 35.3 -66.6 33.2 -57.35 28.35 -28.4 13.15 1.85 1
L 20 -6.45
Q 40.6 -15.3 60.85 -25 57.35 -40.25 46.5 -51.45
M 17.6 -13.15
L 19.5 -9.25
Q 0.75 -1.7 -13.8 2.75 -27.25 -38.05 -18.95 -80
L -18.5 -84.85
Q 2.4 -64.8 7.2 -44.25 11.95 -23.75 17.6 -13.15
M 52.1 -37.4
L 54.3 -25.95
Q 37.95 -17 20.85 -9.8 17 -29.25 8.45 -51.4 2.95 -65.75 -6.45 -78.05 -9 -81.35 -12.55 -83.75 49.1 -54.05 52.1 -37.4
M -20.25 -84.6
L -22 -78.25
Q -32.05 -36.4 -16.15 3.55 -31.65 8.75 -45.9 16.6 -58.4 23.35 -71.55 28.8 -85.15 34.4 -88.9 20.7
L -49.85 -0.65
Q -48.05 -6.65 -49.45 -12.85 -54.25 -34.25 -49.9 -55.95 -45.45 -77.95 -23.8 -83.5
L -20.25 -84.6 Z"/>
</g>

<g id="Graphics_Symbol_685_0_Layer1_0_FILL">
<path fill="#000000" fill-opacity="0.25098039215686274" stroke="none" d="
M 59.75 -28.6
Q 56.35 -39.75 47.3 -47.55 23.05 -74.65 -2.05 -83.95 -27.15 -93.3 -45 -71.55 -62.9 -49.9 -49.7 -1.35 -71.05 7.6 -89.75 21.5
L -87.65 24.45
Q -66.6 19.95 -50.65 6.2 -40.05 -3 -39.45 -17.25 -38.6 -36.95 -33.2 -57.85 -27.85 -78.8 -6.55 -69.5 14.75 -60.25 24.5 -53.1 34.25 -46 40.3 -35 46.3 -24.05 60.75 -25.45
L 59.75 -28.6 Z"/>
</g>

<g id="Graphics_Symbol_685_0_Layer0_0_FILL">
<path fill="#FFFFFF" fill-opacity="0.25098039215686274" stroke="none" d="
M -3.9 -57.85
Q -15.65 -66.25 -21.15 -55.35 -31 -35.85 -14.6 -22.4 7.4 -4.45 14.9 -30.5 10.5 -47.7 -3.9 -57.85 Z"/>
</g>

<g id="MovieClips_PR2_Graphics_1_Apr_2014_fla_Symbol_667_1_Layer0_0_FILL">
<path fill="#AF831D" stroke="none" d="
M 26.1 -65.7
Q 19.15 -71.5 9.45 -76.65 -0.25 -81.8 -10.35 -85.55 -20.5 -89.35 -25.6 -86.35
L -38.55 -78.05
Q -45.5 -73.35 -48.7 -65.35 -47.55 -65.25 -49.95 -62.6 -52.35 -59.95 -52.55 -53.5 -52.75 -47.05 -52.4 -40.5 -51.55 -26.1 -52.05 -11.8 -52.3 -5.25 -54.85 0.75
L -89 19.8 -89 23.45 -87.8 24.45
Q -87.75 26.35 -87 28 -85.45 31.6 -81.7 32.2 -73.65 33.75 -66 30.45 -41.35 19.95 -18.35 6.2 -12.7 2.85 -6.2 0.8 27.45 -9.5 57.9 -26.05 56.2 -32.7 54.45 -36.6 49.65 -47.55 39.95 -55
L 26.1 -65.7 Z"/>
</g>

<g id="MovieClips_PR2_Graphics_1_Apr_2014_fla_Symbol_684_1_Layer1_0_FILL">
<path fill="#FFFFFF" stroke="none" d="
M 19.5 -9.25
L 17.6 -13.15
Q 11.95 -23.75 7.2 -44.25 2.4 -64.8 -18.5 -84.85
L -18.95 -80
Q -27.25 -38.05 -13.8 2.75 0.75 -1.7 19.5 -9.25 Z"/>
</g>
</defs>

<g transform="matrix( 1, 0, 0, 1, 0,0) ">
<g transform="matrix( 1, 0, 0, 1, 0,0) ">
<g transform="matrix( 1, 0, 0, 1, 0,0) ">
<use xlink:href="#Graphics_Symbol_685_0_Layer2_0_FILL"/>
</g>

<g transform="matrix( 1, 0, 0, 1, 0,0) ">
<use xlink:href="#Graphics_Symbol_685_0_Layer1_0_FILL"/>
</g>

<g transform="matrix( 1, 0, 0, 1, 0,0) ">
<use xlink:href="#Graphics_Symbol_685_0_Layer0_0_FILL"/>
</g>
</g>
</g>

<g transform="matrix( 1, 0, 0, 1, 0,0) ">
<g transform="matrix( 1, 0, 0, 1, 0,0) ">
<use xlink:href="#MovieClips_PR2_Graphics_1_Apr_2014_fla_Symbol_667_1_Layer0_0_FILL"/>
</g>
</g>

<g transform="matrix( 1, 0, 0, 1, 0,0) ">
<g transform="matrix( 1, 0, 0, 1, 0,0) ">
<use xlink:href="#MovieClips_PR2_Graphics_1_Apr_2014_fla_Symbol_684_1_Layer1_0_FILL"/>
</g>
</g>
</svg>
