
<svg xmlns="http://www.w3.org/2000/svg" version="1.1" xmlns:xlink="http://www.w3.org/1999/xlink" preserveAspectRatio="none" x="0px" y="0px" width="550px" height="400px" viewBox="0 0 550 400">
<defs>
<g id="Layer0_0_FILL">
<path fill="#000000" fill-opacity="0.3333333333333333" stroke="none" d="
M 11 33.3
L 3.05 22.3
Q -2.05 15.7 -3.9 15.7 -4.55 15.7 -4.55 16.05
L -4.5 17.15
Q -4.1 19.5 2.4 26.35
L 10.7 34.9 11 34.35 11 33.3
M 12.15 -11.25
Q 11.65 -6.15 10.1 -0.15 8.8 5 7.3 8.7 9.4 7.5 11 1.15
L 13.2 -8.05
Q 13.8 -10.9 13.55 -12.1
L 12.15 -11.25
M 9.65 -13.4
L 10.35 -15.45 10.15 -17.85
Q 7.45 -16.15 4.8 -6.1 1.7 5.55 2.2 5.9
L 2.35 11.15 3.2 11.25
Q 3.45 11.25 6.1 1.4
L 10.2 -13.3
Q 9.65 -13.2 9.65 -13.4 Z"/>
</g>
</defs>

<g transform="matrix( 1, 0, 0, 1, 0,0) ">
<use xlink:href="#Layer0_0_FILL"/>
</g>
</svg>
