
<svg xmlns="http://www.w3.org/2000/svg" version="1.1" xmlns:xlink="http://www.w3.org/1999/xlink" preserveAspectRatio="none" x="0px" y="0px" width="550px" height="400px" viewBox="0 0 550 400">
<defs>
<g id="Layer0_0_FILL">
<path fill="#000000" stroke="none" d="
M 10.75 -22.1
Q 7.3 -15.3 4.85 -7.45 2.05 1.6 2.15 7.45 2.15 8.6 1.7 9.65 4.15 4.75 6.2 -2.6
L 8.85 -13.35
Q 10.15 -18.45 11 -19.5
L 12.65 -11.6
Q 12.85 -9.9 10.25 0.7 7.6 11.3 8.2 16.4 8.35 17.5 11.1 24.7 13.95 32.2 14.6 32.2
L 25.45 34.65 23.25 34.65
Q 21.9 33.95 19.7 34.1
L 15.6 34.55
Q 10.25 34.85 6.75 30.2 4.6 27.35 1.85 24.45
L -4.4 17.75
Q -1.25 15.35 1.45 10.25 0.35 12.1 -2.35 13.7 -6.8 16.35 -6.65 17.65 -6.55 18.65 -5.95 18.3
L 11.45 36.6 17.05 35.8 20.6 36.25
Q 23.6 36.45 30.8 35.05
L 30.15 34.45
Q 28.85 33.75 23.1 32.8
L 16 31.55
Q 13.65 25.75 11.4 21.6 10.2 19.35 10 17.75 9.35 12 11.75 0.15
L 14.25 -11.4
Q 13.95 -13.7 11.7 -22.2
L 10.75 -22.1 Z"/>
</g>
</defs>

<g transform="matrix( 1, 0, 0, 1, 0,0) ">
<use xlink:href="#Layer0_0_FILL"/>
</g>
</svg>
