
<svg xmlns="http://www.w3.org/2000/svg" version="1.1" xmlns:xlink="http://www.w3.org/1999/xlink" preserveAspectRatio="none" x="0px" y="0px" width="550px" height="400px" viewBox="0 0 550 400">
<defs>
<g id="Layer0_0_FILL">
<path fill="#FFFFFF" stroke="none" d="
M 25.6 19.2
L 25.6 18.7 24.1 18.75
Q 21.35 18.75 19.25 18.05 17.75 17.55 14.95 15.95
L 14.75 15.85 14.55 15.95
Q 11.7 17.55 10.25 18.05
L 5.4 18.75 3.9 18.7 3.9 19.2
Q 4.2 28.25 6.35 33.05 8.55 37.9 14.45 42.55
L 14.75 42.8 14.9 42.7 15 42.55
Q 20.95 37.9 23.15 33.05 25.35 28.25 25.6 19.2
M 24.1 19.65
L 24.7 19.65
Q 24.4 28.25 22.35 32.7 20.35 37.15 14.75 41.65 9.15 37.15 7.15 32.7 5.15 28.25 4.8 19.65
L 5.4 19.65
Q 8.25 19.65 10.35 18.95 11.9 18.45 14.75 16.9 17.5 18.4 19.1 18.9 21.3 19.65 24.1 19.65 Z"/>
</g>
</defs>

<g transform="matrix( 1, 0, 0, 1, 0,0) ">
<use xlink:href="#Layer0_0_FILL"/>
</g>
</svg>
