
<svg xmlns="http://www.w3.org/2000/svg" version="1.1" xmlns:xlink="http://www.w3.org/1999/xlink" preserveAspectRatio="none" x="0px" y="0px" width="550px" height="400px" viewBox="0 0 550 400">
<defs>
<linearGradient id="Gradient_1" gradientUnits="userSpaceOnUse" x1="145.78750000000002" y1="27.012499999999996" x2="144.3125" y2="41.5875" spreadMethod="pad">
<stop  offset="0%" stop-color="#333333"/>

<stop  offset="100%" stop-color="#191919"/>
</linearGradient>

<g id="Layer0_0_FILL">
<path fill="url(#Gradient_1)" stroke="none" d="
M 144.9 23
L 142.1 23.2 139.5 23.75 140.1 27.05 144.15 26.6
Q 145.85 26.6 146.35 27.05 146.8 27.45 146.8 28.65
L 146.8 29.8 143.6 29.8
Q 141.25 29.8 140.2 30.75 139.15 31.75 139.15 34 139.15 36.05 140.05 37.25 141.05 38.55 143 38.55 145 38.55 147.3 37.3
L 147.6 38.25 151.2 38.25 151.2 28.7
Q 151.2 25.45 150 24.3 148.65 23 144.9 23
M 144.7 32.9
L 146.8 32.9 146.8 34.6
Q 145.7 35.1 144.55 35.1
L 143.65 34.85
Q 143.35 34.6 143.35 33.95 143.35 33.35 143.65 33.1
L 144.7 32.9 Z"/>
</g>
</defs>

<g transform="matrix( 1, 0, 0, 1, 0,0) ">
<use xlink:href="#Layer0_0_FILL"/>
</g>
</svg>
