
<svg xmlns="http://www.w3.org/2000/svg" version="1.1" xmlns:xlink="http://www.w3.org/1999/xlink" preserveAspectRatio="none" x="0px" y="0px" width="550px" height="400px" viewBox="0 0 550 400">
<defs>
<g id="Layer0_0_FILL">
<path fill="#404040" stroke="none" d="
M 25.5 9.35
L 25.55 8.95 25.3 8.6 21.75 6.8 21.5 6.75 21.35 6.75 21.05 7 0.4 46.8
Q 0.1 47.4 0 49.2 -0.05 51 0.15 51.65
L 0.5 52.15 0.8 52.2
Q 1.35 52.2 3 51 4.55 49.75 4.9 49.15
L 25.5 9.35
M 21.5 7.25
L 25.05 9.1 4.4 48.9 2.65 50.55 0.8 51.65 0.75 51.65
Q 0.5 51.5 0.55 49.55 0.6 47.65 0.85 47.05
L 21.5 7.25 Z"/>
</g>
</defs>

<g transform="matrix( 1, 0, 0, 1, 0,0) ">
<use xlink:href="#Layer0_0_FILL"/>
</g>
</svg>
