
<svg xmlns="http://www.w3.org/2000/svg" version="1.1" xmlns:xlink="http://www.w3.org/1999/xlink" preserveAspectRatio="none" x="0px" y="0px" width="550px" height="400px" viewBox="0 0 550 400">
<defs>
<g id="Layer0_0_FILL">
<path fill="#404040" stroke="none" d="
M 28.75 1.95
Q 28.4 0.85 27.35 0.3
L 25.2 0.15
Q 24.9 0.25 24.7 0.5
L 24.7 1.15 25.05 1.6 26.6 1.75 27.6 2.95 28.2 2.95 28.65 2.55 28.75 1.95 Z"/>
</g>

<path id="Layer0_0_1_STROKES" stroke="#404040" stroke-width="0.9" stroke-linejoin="round" stroke-linecap="butt" fill="none" d="
M 25.2 0.15
L 27.35 0.3
Q 28.4 0.85 28.75 1.95
L 28.65 2.55 28.2 2.95 27.6 2.95 26.6 1.75 25.05 1.6 24.7 1.15 24.7 0.5
Q 24.9 0.25 25.2 0.15 Z"/>
</defs>

<g transform="matrix( 1, 0, 0, 1, 0,0) ">
<use xlink:href="#Layer0_0_FILL"/>

<use xlink:href="#Layer0_0_1_STROKES"/>
</g>
</svg>
