
<svg xmlns="http://www.w3.org/2000/svg" version="1.1" xmlns:xlink="http://www.w3.org/1999/xlink" preserveAspectRatio="none" x="0px" y="0px" width="550px" height="400px" viewBox="0 0 550 400">
<defs>
<g id="Layer0_0_FILL">
<path fill="#404040" stroke="none" d="
M 10.15 7.45
L 10.6 6.85
Q 10.75 6.45 10.55 6.1
L 10 5.6 9.2 5.65 2.15 9.3 1.65 9.9
Q 1.5 10.3 1.7 10.65
L 2.3 11.15 3.05 11.1 3.5 10.65 3.6 10.1 9 7.25
Q 9.5 7.75 10.15 7.45 Z"/>
</g>

<path id="Layer0_0_1_STROKES" stroke="#404040" stroke-width="0.9" stroke-linejoin="round" stroke-linecap="butt" fill="none" d="
M 10.15 7.45
L 10.6 6.85
Q 10.75 6.45 10.55 6.1
L 10 5.6 9.2 5.65 2.15 9.3 1.65 9.9
Q 1.5 10.3 1.7 10.65
L 2.3 11.15 3.05 11.1 3.5 10.65 3.6 10.1 9 7.25
Q 9.5 7.75 10.15 7.45 Z"/>
</defs>

<g transform="matrix( 1, 0, 0, 1, 0,0) ">
<use xlink:href="#Layer0_0_FILL"/>

<use xlink:href="#Layer0_0_1_STROKES"/>
</g>
</svg>
