
<svg xmlns="http://www.w3.org/2000/svg" version="1.1" xmlns:xlink="http://www.w3.org/1999/xlink" preserveAspectRatio="none" x="0px" y="0px" width="550px" height="400px" viewBox="0 0 550 400">
<defs>
<g id="Layer0_0_FILL">
<path fill="#FFFFFF" stroke="none" d="
M 25.85 18.45
L 24.1 18.5 19.3 17.85
Q 17.8 17.3 15.05 15.8
L 14.75 15.6 14.45 15.8 10.15 17.85 5.4 18.5 3.7 18.45 3.7 19.2
Q 4 28.3 6.15 33.15 8.35 38 14.35 42.75
L 14.75 43.05 15.15 42.75
Q 21.15 38 23.35 33.15 25.55 28.35 25.8 19.2
L 25.85 18.45
M 25.4 18.95
L 25.4 19.2
Q 25.1 28.35 22.9 33.15 20.75 37.8 14.9 42.4
L 14.75 42.55 14.6 42.4
Q 8.75 37.8 6.65 33.15 4.4 28.35 4.15 19.2
L 4.1 18.95 5.4 18.95
Q 8.2 18.95 10.35 18.25
L 14.65 16.2 14.75 16.1 14.85 16.2
Q 17.65 17.75 19.15 18.25 21.3 18.95 24.1 18.95
L 25.4 18.95
M 24.95 19.4
L 24.1 19.4
Q 21.25 19.4 19.05 18.7 17.55 18.15 14.75 16.65 11.95 18.2 10.4 18.7
L 5.4 19.4 4.6 19.4
Q 4.9 28.35 7.05 33 9.1 37.4 14.75 41.95 20.45 37.4 22.5 33 24.6 28.35 24.95 19.4
M 24.1 19.85
L 24.45 19.85
Q 24.15 28.2 22.15 32.6 20.2 37 14.75 41.4 9.5 37.15 7.55 33.05 5.4 28.45 5.05 19.85
L 5.4 19.85 10.4 19.15 14.75 17.15 19.05 19.15
Q 21.25 19.85 24.1 19.85 Z"/>
</g>
</defs>

<g transform="matrix( 1, 0, 0, 1, 0,0) ">
<use xlink:href="#Layer0_0_FILL"/>
</g>
</svg>
