
<svg xmlns="http://www.w3.org/2000/svg" version="1.1" xmlns:xlink="http://www.w3.org/1999/xlink" preserveAspectRatio="none" x="0px" y="0px" width="550px" height="400px" viewBox="0 0 550 400">
<defs>
<g id="Layer0_0_FILL">
<path fill="#404040" stroke="none" d="
M 2.7 1.75
L 4.2 1.6 4.6 1.15 4.6 0.5 4.1 0.15 1.95 0.3
Q 0.9 0.85 0.55 1.95 0.45 2.25 0.6 2.55
L 1.1 2.95 1.7 2.95 2.7 1.75 Z"/>
</g>

<path id="Layer0_0_1_STROKES" stroke="#404040" stroke-width="0.9" stroke-linejoin="round" stroke-linecap="butt" fill="none" d="
M 1.1 2.95
L 1.7 2.95 2.7 1.75 4.2 1.6 4.6 1.15 4.6 0.5 4.1 0.15 1.95 0.3
Q 0.9 0.85 0.55 1.95 0.45 2.25 0.6 2.55
L 1.1 2.95 Z"/>
</defs>

<g transform="matrix( 1, 0, 0, 1, 0,0) ">
<use xlink:href="#Layer0_0_FILL"/>

<use xlink:href="#Layer0_0_1_STROKES"/>
</g>
</svg>
