
<svg xmlns="http://www.w3.org/2000/svg" version="1.1" xmlns:xlink="http://www.w3.org/1999/xlink" preserveAspectRatio="none" x="0px" y="0px" width="550px" height="400px" viewBox="0 0 550 400">
<defs>
<g id="Layer0_0_FILL">
<path fill="#404040" stroke="none" d="
M 7.8 6.75
L 7.55 6.8 4 8.6
Q 3.8 8.7 3.75 8.95
L 3.8 9.35 24.4 49.15 26.3 51
Q 27.95 52.2 28.5 52.2
L 28.8 52.15 29.15 51.65 29.3 49.2
Q 29.2 47.4 28.9 46.8
L 8.25 7
Q 8.2 6.8 7.95 6.75
L 7.8 6.75
M 4.25 9.1
L 7.8 7.25 28.45 47.05
Q 28.7 47.65 28.75 49.55 28.8 51.5 28.55 51.65
L 28.5 51.65
Q 28.1 51.65 26.65 50.55 25.15 49.45 24.9 48.9
L 4.25 9.1 Z"/>
</g>
</defs>

<g transform="matrix( 1, 0, 0, 1, 0,0) ">
<use xlink:href="#Layer0_0_FILL"/>
</g>
</svg>
