
<svg xmlns="http://www.w3.org/2000/svg" version="1.1" xmlns:xlink="http://www.w3.org/1999/xlink" preserveAspectRatio="none" x="0px" y="0px" width="550px" height="400px" viewBox="0 0 550 400">
<defs>
<linearGradient id="Gradient_1" gradientUnits="userSpaceOnUse" x1="130.4875" y1="25.4625" x2="129.0125" y2="40.0375" spreadMethod="pad">
<stop  offset="0%" stop-color="#333333"/>

<stop  offset="100%" stop-color="#191919"/>
</linearGradient>

<g id="Layer0_0_FILL">
<path fill="url(#Gradient_1)" stroke="none" d="
M 136.2 22.15
L 136.75 18.15 130.25 17.5
Q 126.55 17.5 124.6 19.2 122.75 20.85 122.75 23.75
L 122.75 32.3
Q 122.75 35.15 124.6 36.8 126.6 38.55 130.25 38.55 133.85 38.55 137.3 37.6
L 137.3 27.95 132.85 27.65 130.4 28 130.55 31.7 132.95 31.5 132.95 34.25 130.25 34.4
Q 128.6 34.4 127.9 33.55 127.35 32.85 127.35 31.5
L 127.35 24.45
Q 127.35 23.15 127.9 22.45 128.6 21.65 130.25 21.65
L 136.2 22.15 Z"/>
</g>
</defs>

<g transform="matrix( 1, 0, 0, 1, 0,0) ">
<use xlink:href="#Layer0_0_FILL"/>
</g>
</svg>
