
<svg xmlns="http://www.w3.org/2000/svg" version="1.1" xmlns:xlink="http://www.w3.org/1999/xlink" preserveAspectRatio="none" x="0px" y="0px" width="550px" height="400px" viewBox="0 0 550 400">
<defs>
<linearGradient id="Gradient_1" gradientUnits="userSpaceOnUse" x1="98.1875" y1="22.2125" x2="96.7125" y2="36.7875" spreadMethod="pad">
<stop  offset="0%" stop-color="#333333"/>

<stop  offset="100%" stop-color="#191919"/>
</linearGradient>

<g id="Layer0_0_FILL">
<path fill="url(#Gradient_1)" stroke="none" d="
M 90.55 29.05
L 90.55 32.5
Q 90.55 35.15 91.95 36.7 93.65 38.55 97.3 38.55 100.95 38.55 102.65 36.7 104.05 35.15 104.05 32.5
L 104.05 29.05
Q 104.05 26.4 102.65 24.85 100.95 23 97.3 23 93.65 23 91.95 24.85 90.55 26.4 90.55 29.05
M 99.65 32.65
Q 99.65 34.85 97.3 34.85 94.95 34.85 94.95 32.65
L 94.95 28.9
Q 94.95 26.7 97.3 26.7 99.65 26.7 99.65 28.9
L 99.65 32.65 Z"/>
</g>
</defs>

<g transform="matrix( 1, 0, 0, 1, 0,0) ">
<use xlink:href="#Layer0_0_FILL"/>
</g>
</svg>
