
<svg xmlns="http://www.w3.org/2000/svg" version="1.1" xmlns:xlink="http://www.w3.org/1999/xlink" preserveAspectRatio="none" x="0px" y="0px" width="550px" height="400px" viewBox="0 0 550 400">
<defs>
<g id="Layer0_0_FILL">
<path fill="#000000" stroke="none" d="
M 5.55 3.85
L 5.45 3.75 5.3 3.45 5.25 3.4 5.2 3.25 5.1 3.05 5.05 3 5 2.85 4.95 2.8 4.9 2.7 4.8 2.6 4.8 2.45 4.7 2.4 4.7 2.3 4.6 2.2 4.6 2.1 4.5 2 4.5 1.9 4.3 1.5 4.2 1.4 4.2 1.3 4.1 1.2 4.1 1.1 3.8 1 1.45 2.2
Q 1.25 2.35 1.35 2.5
L 1.45 2.6 1.45 2.7 1.55 2.8 1.55 2.9 1.65 3 1.85 3.4 1.85 3.5 1.95 3.6 1.95 3.7 2.05 3.75 2.05 3.9 2.15 4 2.15 4.1 2.25 4.15 2.3 4.25 2.3 4.3 2.4 4.5 2.45 4.55 2.5 4.65 2.5 4.7 2.55 4.75 2.65 4.95 2.7 5.1 2.75 5.15 2.8 5.25 2.9 5.35 2.9 5.45 3 5.55 3 5.65 3.15 5.95 3.2 5.95 3.2 6.05 3.4 6.45 3.5 6.55 3.5 6.65 3.6 6.75 3.6 6.85 3.7 6.9 3.7 7.05 3.8 7.15 3.8 7.25 3.9 7.3 3.9 7.45 4 7.5 4 7.65 4.1 7.7 4.1 7.85 4.2 7.9 4.2 8 4.3 8.1 4.35 8.25 4.6 8.3 6.95 7.1 7.05 6.8 6.95 6.6 6.85 6.55 6.85 6.4 6.75 6.3 6.75 6.2 6.65 6.15 6.65 6 6.55 5.95 6.55 5.8 6.45 5.75 6.45 5.6 6.35 5.55 6.35 5.45 6.25 5.35 6.25 5.2 6.15 5.15 6.15 5.05 6.05 4.95 5.85 4.55 5.85 4.45 5.8 4.45 5.75 4.35 5.75 4.25 5.65 4.15 5.65 4.05 5.55 3.95 5.55 3.85 Z"/>
</g>
</defs>

<g transform="matrix( 1, 0, 0, 1, 0,0) ">
<use xlink:href="#Layer0_0_FILL"/>
</g>
</svg>
