
<svg xmlns="http://www.w3.org/2000/svg" version="1.1" xmlns:xlink="http://www.w3.org/1999/xlink" preserveAspectRatio="none" x="0px" y="0px" width="550px" height="400px" viewBox="0 0 550 400">
<defs>
<g id="Layer0_0_FILL">
<path fill="#404040" stroke="none" d="
M 26.25 11.1
L 27 11.15 27.6 10.65 27.65 9.9 27.15 9.3 20.1 5.65 19.3 5.6
Q 18.9 5.7 18.75 6.1 18.55 6.45 18.7 6.85 18.8 7.25 19.15 7.45 19.8 7.75 20.3 7.25
L 25.7 10.1 25.8 10.65 26.25 11.1 Z"/>
</g>

<path id="Layer0_0_1_STROKES" stroke="#404040" stroke-width="0.9" stroke-linejoin="round" stroke-linecap="butt" fill="none" d="
M 26.25 11.1
L 25.8 10.65 25.7 10.1 20.3 7.25
Q 19.8 7.75 19.15 7.45 18.8 7.25 18.7 6.85 18.55 6.45 18.75 6.1 18.9 5.7 19.3 5.6
L 20.1 5.65 27.15 9.3 27.65 9.9 27.6 10.65 27 11.15 26.25 11.1 Z"/>
</defs>

<g transform="matrix( 1, 0, 0, 1, 0,0) ">
<use xlink:href="#Layer0_0_FILL"/>

<use xlink:href="#Layer0_0_1_STROKES"/>
</g>
</svg>
