
<svg xmlns="http://www.w3.org/2000/svg" version="1.1" xmlns:xlink="http://www.w3.org/1999/xlink" preserveAspectRatio="none" x="0px" y="0px" width="550px" height="400px" viewBox="0 0 550 400">
<defs>
<g id="Layer0_0_FILL">
<path fill="#404040" stroke="none" d="
M 27.5 14.85
Q 23.95 14.85 20.95 13.95 18.45 13.15 15 11.25
L 14.7 11.1 14.45 11.25
Q 11 13.15 8.5 13.95 5.55 14.85 2.05 14.85
L 0.15 14.8 0.15 15.35
Q 0.5 27.4 3.6 34.3 6.65 41.2 14.4 47.35
L 14.7 47.6 15.05 47.35
Q 22.8 41.25 25.9 34.3 29 27.4 29.4 15.35
L 29.4 14.8 27.5 14.85
M 27.5 15.4
L 28.85 15.35
Q 28.45 27.4 25.35 34.25 22.3 40.9 14.7 46.9 7.15 40.9 4.15 34.25 1 27.35 0.7 15.35
L 2.05 15.4
Q 5.65 15.4 8.75 14.4 11.25 13.65 14.7 11.75 18.2 13.65 20.7 14.4 23.85 15.4 27.5 15.4 Z"/>
</g>
</defs>

<g transform="matrix( 1, 0, 0, 1, 0,0) ">
<use xlink:href="#Layer0_0_FILL"/>
</g>
</svg>
