
<svg xmlns="http://www.w3.org/2000/svg" version="1.1" xmlns:xlink="http://www.w3.org/1999/xlink" preserveAspectRatio="none" x="0px" y="0px" width="550px" height="400px" viewBox="0 0 550 400">
<defs>
<g id="Graphics_Symbol_795_0_Layer0_0_FILL">
<path fill="#F5E7AD" stroke="none" d="
M 133.35 137.8
Q 133.35 133.9 131.7 131.05 129.45 127.1 124.6 127
L 120.8 127.55 118.25 128.15
Q 115.2 128.1 114.1 125.6 113.45 124.1 113.45 121.3 113.45 119.4 115.1 116.9
L 115.8 115.7 116.25 115.2
Q 117.55 113.7 117.55 112.5 117.55 111.75 115.9 109.4
L 115.8 109.25
Q 115.05 107.7 114.05 107.15 111.5 104.15 110.05 104.15 108.8 104.1 105.9 107.35
L 103.95 109.7 103.55 110.35 103.55 110.4 104.45 109.2 104.15 110.05 103.55 111.7
Q 103.15 112.45 103.4 113.05
L 103.6 113.45
Q 101.7 117.65 101.7 122.2 101.7 122.8 101.8 122.7
L 101.8 122.75 102.05 126.05 101.8 128.5 100.2 133.05
Q 99.6 134.55 97.75 136.25
L 96.05 137.6 96.05 137.65 93.05 139.1 91.7 139.2 92.1 139.85 92.35 139.75 92.55 139.35
Q 99.6 143.35 101.45 144.2 108.5 147.35 114.75 147.45 122.55 147.55 127.3 145.65 133.35 143.25 133.35 137.8
M 102.75 122.95
L 102.65 122.85 102.75 122.85 102.75 122.95
M 90.15 60.45
Q 88.6 57.75 83.4 53.75 78.4 49.95 73.15 47.15 67.4 44.15 64.5 44.1 56 44 42.2 50.1 28.7 56.1 29.25 59
L 26.95 61.6
Q 24.1 65 22.1 68.4 15.65 79.25 17.3 90.55
L 17.25 90.55 17.2 92.05
Q 17.2 100.05 21.1 114.35
L 24.95 127.8
Q 24.95 129.15 28.45 136.85 32.8 146.35 37.5 151.95 39.25 154.05 45.3 158.4 52.95 163.95 57 164 57.85 164 64.6 166.5 72.2 168.9 77.15 169 83.75 169.05 89.85 166.2 98.45 162.1 98.45 154.15 98.45 151.1 95.85 147.8 93.3 144.7 91.4 144.65 87.4 144.6 84.4 146.7 81.45 148.85 80.65 148.8 79 148.8 77.7 146.25 75.4 141.9 72.85 139.05 76.3 137.35 77.9 135.5 79.8 133.2 79.8 129.9 79.8 126.5 76.75 124.35 73.75 122.15 69.05 122.1 66.45 122.05 64.95 123.95 63.85 125.35 63.85 126.9
L 64.6 129.65
Q 65.45 132.45 66.2 133.45
L 64.55 134.3 61.4 134.75
Q 53.95 134.65 48.45 121.15 43.45 109 43.45 96.45 43.45 88.65 47.75 82.45
L 48.05 82.35
Q 51.45 76.45 59.5 72.05 70.6 65.85 87.85 63.5
L 88.05 63.8
Q 91.95 63.6 90.15 60.45 Z"/>
</g>

<g id="Graphics_Symbol_843_0_Layer4_0_FILL">
<path fill="#000000" stroke="none" d="
M 85.3 110.55
L 86.05 111.35 87.1 111.7
Q 87.5 111.85 87.5 111.25 87.5 110.65 87.9 110.25
L 88.7 109.35 86.85 109.1 85.3 110.55
M 95 100.6
L 94.1 100.7 93.55 101 93 101.3 95.05 102.85
Q 96.35 104.05 96.35 105.4 96.35 107.15 95.6 108.3 94.25 110.3 90.85 109.65
L 90.95 109.7 91.8 110.1 93.3 110.4
Q 95.3 110.4 96.65 108.2 97.65 106.65 97.65 105.9 97.65 103.3 96.5 101.7 95.65 100.6 95 100.6
M 70.3 92.05
L 69.55 91.45
Q 72 92.05 76.6 94.5 77.15 94.35 77.45 94 76.7 91.5 73.9 90.9 71.35 90.4 71.35 90.1
L 71.2 89.45 70.3 89.55
Q 64.35 89.45 60.25 93.1 54.25 98.45 51.7 99.55
L 51.25 99.8 51.75 100.45
Q 56.65 98.65 60.05 98.9
L 66.2 99.7
Q 72.5 99.05 73.6 97.75 72.85 97.1 72.1 97.15
L 71.8 94.9
Q 71.35 92.9 70.3 92.05
M 60.15 96.85
Q 60.35 96.65 60.55 97.15
L 61 97.7 59.9 97.6 60.15 96.85
M 66.95 91.45
Q 68.4 91.6 69.45 92.45 70.75 93.45 70.75 94.9 70.75 96.35 69.45 97.35 68.15 98.3 66.3 98.3 64.45 98.25 63.15 97.25 61.85 96.25 61.85 94.8 61.85 94.2 62.1 93.7
L 63.35 92.75
Q 64.15 92.3 66.95 91.45
M 64.75 93.4
Q 64.3 93.8 64.3 94.45
L 64.3 94.65
Q 64.35 95.2 64.75 95.65 65.2 96.1 65.85 96.1
L 66.95 95.65 67.3 95.1 67.4 94.5
Q 67.4 93.85 66.95 93.4 66.5 92.9 65.85 92.9 65.2 92.9 64.75 93.4
M 49.9 89.4
L 49.95 89.95 50.05 89.85
Q 50.8 89.8 53.25 88.2 57.1 86.25 64.35 84.95
L 70.55 84.35 74.35 84.35 74.65 84.15 73.7 82.95 71.7 82.55
Q 63.95 82.45 56.75 84.9 49.9 87.2 49.9 89.4
M 87.7 83.45
Q 87.7 81.9 89.5 79.65 91.85 76.65 95.85 74.8 93.35 74.25 89.8 77.5 86.3 80.7 86.3 83.2 86.3 87.35 87.95 91.4 89.55 95.4 91.05 95.4
L 91.65 95.35 91.75 95.25
Q 89.3 92.15 88.4 89.1 87.7 86.75 87.7 83.45
M 89.5 62.05
L 89.5 62.5 89.35 64.7 92.95 69.85 93.25 70.3 93.3 70.3
Q 94.65 72.65 95.6 73.35 96.6 74.05 98.25 81.8 92.9 82.15 91.15 83.6
L 90.7 84.1 90.35 84.4
Q 88.3 86.3 88.3 88
L 89.1 88.85 89.65 87.9 89.65 88.05
Q 89.65 88.55 90.4 89.6 91.45 91 92.9 91.05
L 95.35 90.4
Q 97.35 89.5 98.1 87.55
L 98.65 86.95 99.75 91
Q 99.75 92.85 101.1 97.4 102.45 101.85 102.45 103.7 102.45 110.15 100.85 112.85 99.25 115.55 97.55 115 95.8 114.4 89.9 116.95 84 119.4 82.05 120.85
L 82.15 121.5
Q 82.25 121.8 82.85 121.8
L 91.9 121.05
Q 97.35 119.65 100.55 115.1
L 100.6 114.9 100.65 114.85
Q 99.9 117.15 99.75 121.95 99.55 127.35 99.15 129.3 97.5 137.35 87.3 137.2
L 83.05 136.95 80.25 137.85 76.85 138.75 76.75 139.15 87.9 139.65
Q 94.15 139.75 97.75 136.6 102.35 132.55 102.35 123.35 102.35 118.3 103.9 111.4
L 105.45 105.15
Q 105.45 102.3 103.15 95.55 100.8 88.8 100.8 84.5 100.8 83.9 101.45 83.45
L 102.25 82.75 102.15 82.25 100.2 82.4
Q 98 78.4 94.6 70.05
L 94.65 70 94.55 69.85 94.5 69.8 94.4 69.5 94.3 69.5 89.5 62.05
M 96.15 84.25
Q 97.05 85.2 97.05 86.45 97.05 87.7 96.15 88.55 95.25 89.45 94 89.45 92.75 89.4 91.85 88.5 90.95 87.6 90.95 86.35
L 91 85.8
Q 92.65 83.6 94.85 83.65
L 95.45 83.75 96.15 84.25
M 95 84.95
Q 94.5 84.45 93.8 84.45 93.1 84.45 92.65 84.9 92.15 85.35 92.15 86 92.15 86.65 92.65 87.15 93.1 87.65 93.8 87.65 94.5 87.65 95 87.2
L 95.45 86.05
Q 95.45 85.4 95 84.95 Z"/>
</g>

<g id="Graphics_Symbol_843_0_Layer3_0_FILL">
<path fill="#B18239" stroke="none" d="
M 100.95 133.75
L 100.3 134.7 103 136.25
Q 104.25 137.05 108.1 137.1 111.05 137.15 113.1 134.85 115.25 132.35 115.25 128.55 115.25 127.05 114.75 125.8 114 124.1 112.4 124.05 109.95 124.05 107.8 126.3 106.2 128.1 106.2 128.75 106.2 129.9 107.1 130.5 107.85 131.05 109 131.05
L 110.3 130.7 112.45 129.55 111.45 128.15
Q 109.9 129.9 108.9 129.85 107.85 129.85 107.45 129
L 109.8 126.95
Q 111.5 125.3 112.3 125.3 113.25 125.35 113.75 126.4 114.25 127.4 114.25 128.95 114.25 130.9 113.15 132.75 111.35 135.85 107.15 135.8
L 103.55 135.2
Q 101.8 134.65 100.95 133.75
M 112.15 110.65
L 112.4 111.3 111.7 112.35 109.8 112.8
Q 107.2 112.75 107.2 110.15 107.3 108.95 107.55 107.8 108.1 105.55 109.05 105.6 112.35 105.6 114.9 108.05 117.15 110.3 117.15 112.45 117.15 114.95 113.9 116.75 110.45 118.7 105.4 118.65
L 104.15 118.2 103.3 117.75 102.75 117.95 102.5 118.1 102.55 118.7
Q 103.4 119.85 106.7 119.9 112.6 119.95 115.9 117.25 118.45 115.15 118.45 112.55 118.45 110.05 116.45 107.6 113.8 104.35 109.15 104.3 107.15 104.25 106.35 106.9 105.9 108.3 105.9 109.95 105.9 111.85 106.25 112.6 107.05 114.15 109.7 114.2 112.5 114.2 113.4 113 113.75 112.45 113.75 111.4 113.75 109.55 112.8 109.5 112.6 109.5 112.2 109.85
L 111.9 110.2 112.15 110.65
M 129.7 134.35
Q 128.5 132.2 126.95 132.2 125.5 132.2 124.35 133.15 124.4 133.7 124.55 133.7 126.1 133.65 127.45 134.35 129.2 135.25 129.45 136.9 126.5 138.75 125.25 138.75 121.8 138.7 120.3 137.65 118.6 136.45 118.6 133.35 118.6 130.55 120.05 129.3 121.7 128 125.65 128.05 129.15 128.05 131.45 131.1 133.65 134.15 133.1 137.8 132.45 141.85 128.45 144.4 123.7 147.35 115.25 147.25 112.4 147.2 101.95 143.25
L 92.05 139.2 91.35 139.25 91.4 139.25
Q 94.9 144.45 103.65 146.85 109.25 148.4 115.3 148.45 123 148.55 128.05 145.95 134 142.9 134 136.85 134 133.3 132.45 130.55 130.3 126.9 125.9 126.85 121.95 126.8 119.6 128.75 117.35 130.7 117.35 133.95 117.35 136.25 118.75 137.75 120.45 139.65 124 139.7
L 128.2 139.2
Q 130.6 138.5 130.6 137.05 130.6 136 129.7 134.35
M 44.5 157.85
Q 44.15 157.25 44.6 156.85
L 42.1 155.05 40.75 154.3 44.5 157.85
M 69.45 92.45
Q 68.4 91.6 66.95 91.45 64.15 92.3 63.35 92.75
L 62.1 93.7
Q 61.85 94.2 61.85 94.8 61.85 96.25 63.15 97.25 64.45 98.25 66.3 98.3 68.15 98.3 69.45 97.35 70.75 96.35 70.75 94.9 70.75 93.45 69.45 92.45
M 64.75 95.65
Q 64.35 95.2 64.3 94.65
L 64.3 94.45
Q 64.3 93.8 64.75 93.4 65.2 92.9 65.85 92.9 66.5 92.9 66.95 93.4 67.4 93.85 67.4 94.5
L 67.3 95.1 66.95 95.65 65.85 96.1
Q 65.2 96.1 64.75 95.65
M 47.3 74.55
Q 43.75 78.75 42.15 83.75
L 42 83.8
Q 38.8 90.65 38.8 98.95 38.8 118.65 48.75 133.25 53.7 140.55 58.8 143.95
L 60.25 143.6 61.05 143
Q 59.3 142.4 55.85 138.6 52.15 134.4 48.8 128.7 39.9 113.6 39.9 99.65 39.9 91.1 43.4 83.6
L 43.65 83.55
Q 44.5 80.7 46 78.05 50.35 70.6 58.65 65.6 51.45 69.65 47.3 74.55
M 68 69.7
Q 73.8 67.55 75.25 65.75
L 74.75 64.9
Q 53.6 72.45 47.85 79.8 46.9 81.1 46.25 82.65
L 46 82.7
Q 43.15 87.95 43.15 96.3 43.15 117.95 52.4 129.9 59.55 139.2 67.95 139.3 74.15 139.4 77.35 136.7 80.4 134.1 80.4 129.5 80.4 125.95 77.6 123.9 74.55 121.6 68.8 121.55 67.25 121.5 65.75 122.6 63.85 123.95 63.85 126.25 63.85 130.45 64.7 131.85 65.85 133.6 69.6 133.65 71.7 133.65 72.7 133 73.85 132.1 73.85 130 73.85 127.8 72.7 126.8 72.05 126.2 71.45 126.2 71.1 126.2 69.85 126.8 68.15 127.55 67.2 128.55
L 67.85 128.8 69.4 128.15 70.65 127.55
Q 71.6 127.55 71.15 127.75 72.65 129.3 72.65 130.4 72.65 132.3 68.45 132.2 66.4 132.2 65.65 130.65 65.15 129.6 65.15 127.3 65.15 123.8 67.5 123.1
L 70.75 123.1
Q 73.75 123.15 75.95 124.4 79.1 126.25 79.1 130.05 79.1 133.05 77.35 135.05 74.7 138.1 68.35 138 60.5 137.9 53.4 128.65 44.4 116.8 44.4 96.45 44.4 88.2 48.3 82.3
L 48.6 82.2
Q 51.3 77.25 57.45 74.05 60 72.7 68 69.7
M 29.9 87.25
L 30 87.2
Q 30.65 81.4 33.7 73.3 39.15 59.1 46.9 55.9
L 53.05 53.1
Q 59.35 50.1 59.65 50.05
L 58.35 49.3
Q 44.2 50.8 34.9 66.5 31 73.1 29.35 80.35 28.4 84.2 28.25 87.55
L 28.2 87.55
Q 27.6 90.5 27.6 93.05 27.6 98.55 30.1 108.95 33.1 121.5 37.9 132.3 51.4 162.6 71.7 162.85 74.9 162.9 77.85 162.15 80.3 161.45 81.45 160.65
L 81.4 160.35 80.75 160.25
Q 77.05 160.55 75.85 161.15
L 72.05 161.6
Q 65.2 161.55 58.15 157.15
L 52.4 152.75
Q 50.85 152.75 47.6 147.25
L 43.05 138.8
Q 36 125.6 32.65 115.1 29 103.7 29 93.25 29 90.65 29.9 87.25
M 35.15 85.7
L 35.05 85.7
Q 33.75 89.4 33.75 92.75 33.75 119.9 46.8 138 52.35 145.65 59.15 149.95 65.65 154.05 71.7 154.1 74.05 154.15 76.25 151.55 78.3 149.25 78.3 147.45 78.3 145.5 76.6 143.4 74.2 140.45 69.4 140.4 67.45 140.35 66.1 141.5 64.7 142.75 64.7 144.75 64.7 146.55 65.25 147.2 65.75 147.8 66.95 147.8 68.15 147.8 69.95 147.1 71.85 146.3 71.85 145.65 71.85 143 70.35 143
L 69.6 143.15 69.55 143.55 70.05 143.95
Q 70.55 144.5 70.55 145.1 70.55 146.1 69.95 145.9
L 67.75 146.1
Q 65.95 146.1 65.95 144.8 65.95 143.4 66.9 142.5 67.85 141.55 69.5 141.6 73.2 141.65 75.45 144.1 77.15 145.95 77.15 147.45
L 75.95 150.15
Q 74.2 152.8 71.15 152.75 55.25 152.55 44.55 133.75 34.9 116.75 34.9 96.3 34.9 90.85 36.75 85.4
L 36.85 85.35
Q 37.55 81.5 39.25 77.75 45.85 62.7 66.4 54.25 50.45 58.95 41.3 72.2 36.25 79.4 35.15 85.7
M 72.95 46.95
Q 76.65 48.05 78.85 49.45 71.7 43.75 64.85 43.65 57.5 43.55 48.7 46.65 39.2 50 31.7 55.85 13.95 70 16.7 90.7
L 16.65 92.95
Q 16.65 101.3 19.6 112.8 23.05 126.65 29.25 138.1 33.85 146.55 39.3 152.7
L 38.95 152.15 36.2 147.35 36.55 148.1
Q 27.55 134.75 22.3 115.45 18.3 100.9 18.3 92.85
L 18.5 90.25 18.5 90.2
Q 18.35 87.1 18.35 81.35 18.45 79 20.85 72.25 23.4 65 24.9 65.05
L 27.25 62.45
Q 29.95 59.45 32.4 57.65 25.45 68.7 23.25 76 21.35 82.4 21.8 89.35
L 21.75 89.35
Q 21.55 90.95 21.5 92.6 21.15 101.4 25.3 115.8 29.4 130.2 33.35 135.35 38 145.4 45.6 154.45 51.2 161 56 163.65 51.65 162.35 47.95 160.4
L 47 159.9
Q 59.25 169.25 75.05 169.45 85.6 169.6 92.7 164.2 99.3 159.25 99.3 152.75 98.85 150.5 97.5 148.35 94.95 144.05 90.7 144 88.5 143.95 84.45 146.9 80.5 149.75 80.5 151.15 80.5 155.9 82.2 159.05 83.8 161.85 85.75 161.9 88.05 161.9 89.65 160.95 92.15 159.5 92.15 156.15 92.15 153.7 91.5 152.85 90.4 151.4 86.6 151.35 86.4 151.35 84.7 152.75
L 82.7 154.35 84.45 156.25
Q 85.1 156.75 86.8 156.75
L 87.75 156.6 88.2 156.45 88.35 155.4 88.1 155
Q 87.8 154.7 87.45 154.65
L 86.8 155.05
Q 86.25 155.4 85.7 155.4
L 85.05 155.3 85.1 155.15 85.05 154.45
Q 85.05 154 85.8 153.45 86.95 152.55 89.35 152.6 89.55 152.6 90.15 153.65 90.95 155.05 90.95 156.7 90.95 160.55 85.9 160.5 84.35 160.45 83.05 157.65 81.85 155 81.85 152 81.85 149.65 84.7 147.4 87.65 145.15 91 145.2 92.05 145.2 94.7 147.4 98.1 150.2 98.1 153.25 98.1 159.15 93.75 163.2 88.25 168.45 77.15 168.35 60.85 168.15 50 157.45 46.4 153.9 43.45 149.25 40.9 144.8 37.65 141.75 34.35 138.7 28.25 118.95 22.15 99.15 22.7 92.95
L 23.25 89 23.3 88.95
Q 23.4 84.35 24.65 78.95 26.6 70.4 31.4 63.25 43.5 45.15 65.95 45.4
L 72.95 46.95
M 97.05 86.45
Q 97.05 85.2 96.15 84.25
L 95.45 83.75 94.85 83.65
Q 92.65 83.6 91 85.8
L 90.95 86.35
Q 90.95 87.6 91.85 88.5 92.75 89.4 94 89.45 95.25 89.45 96.15 88.55 97.05 87.7 97.05 86.45
M 92.15 86
Q 92.15 85.35 92.65 84.9 93.1 84.45 93.8 84.45 94.5 84.45 95 84.95 95.45 85.4 95.45 86.05
L 95 87.2
Q 94.5 87.65 93.8 87.65 93.1 87.65 92.65 87.15 92.15 86.65 92.15 86
M 86.8 58.85
L 82.5 58 79.6 57.5 72 58.2 83.65 59.75 88.55 60.5 89.3 60.5 90.2 62.45 89.4 62.35 81.65 63.2 76 64.1 76.65 65.25 77.55 64.8 86.8 63.85
Q 91.1 63.65 91.75 62.8 83.95 54 80.55 50.9
L 81.3 52.1 79.6 50.85
Q 77.25 48.9 70.85 48.15
L 64.85 47.85 61.35 48.1 62 48.65 71.8 49.55
Q 81.3 50.85 83.9 54.55
L 83.65 54.5 72.7 53.05 67.65 53.2
Q 71.6 54.25 75.9 54.2 80.15 54.7 88.15 59.15
L 86.8 58.85 Z"/>
</g>

<g id="Graphics_Symbol_843_0_Layer2_0_FILL">
<path fill="#000000" fill-opacity="0.14901960784313725" stroke="none" d="
M 96.05 106.65
Q 94.6 109.6 94.65 109.9
L 97.5 103.8 96.05 106.65
M 104.05 107.9
L 102.4 121.8 96.35 125.5
Q 98.2 125.5 99.55 129.5 97.4 133.65 91.35 136.85 92.55 142.1 101.6 146.1 110.6 150.05 125.25 147.15 111.35 147.9 99.15 140.5
L 106.45 107.75 104.05 107.9
M 95 140.8
L 94.85 140.55 95.2 140.55 95 140.8
M 77.1 124.15
Q 80.15 128.4 80.15 130
L 78.85 134
Q 77.05 137.8 74.25 137.35
L 74.15 137.65
Q 75.55 138.45 77.9 138.85 81.3 138.85 81.75 133.2 82.2 127.35 78.35 123.7
L 77.1 124.15
M 71.75 68.4
Q 68.3 69.95 68.05 69.5 57 73.15 52 77.7 43 85.95 43 101.65 43 111.7 48.05 120.7 51.55 127 59.85 136.1 50.4 123.75 48.5 115.3 46.6 106.8 46.65 99.65 46.65 92.5 49.9 87.3 55.4 78.6 71.75 68.4
M 103 108.75
L 102.55 106.5 102.5 108.45 103 108.75
M 90.45 70.1
Q 91.25 72.05 91.1 72.55
L 88.55 78.75
Q 86.05 84.45 88.1 90 90.15 95.5 95.45 96.75 100.7 98 102.55 106.5 105.9 105.25 98.7 86.8
L 95.7 89.6
Q 94.75 90.3 93.55 90.3 91.75 90.3 90.55 89.25 89.45 88.35 89.45 87.4 89.45 86.8 91 85.5 93.6 83.3 99.3 81.15
L 99.3 81.1
Q 98.45 80.2 97.5 77.7
L 95.85 72.5
Q 95.4 71.15 93 67.35
L 90.75 63.55
Q 90.75 63 91.75 62.4 87.3 56.15 82.1 51.8 75.95 46.65 69.75 45.1
L 63.8 43.85
Q 46.75 43.85 29.95 58.6 13.1 73.3 16.9 100.6 20.7 127.9 32.05 143.9 43.35 159.85 54.45 164.75 65.55 169.6 75.65 169.6 85 169.6 90.7 166.65 94.35 164.75 95.4 162.6
L 95.6 161.8 95 161.1
Q 93.55 162.25 90.2 165.05 86.45 167.3 80.1 167.3
L 71.45 166.6
Q 63.95 165.45 58.6 162.6 55.5 160.95 50.8 157.6
L 45.2 153.35
Q 44.3 152.5 45.75 154.8 47.15 157.1 45.7 156.55 44.25 156 39.85 149.6 35.45 143.25 32.1 137.55 28.7 131.9 24.45 118.7 20.15 105.5 20.4 90.45 20.65 75.35 34.7 61.25 48.7 47.1 68.35 48 78.3 54.4 83.9 62.95 85 63.55 83.3 64.05 79.95 65.1 76.65 65.25
L 86.7 66.35
Q 87.5 66.5 88.65 67.3 89.6 68.05 90.45 70.1 Z"/>
</g>

<g id="Graphics_Symbol_843_0_Layer1_0_FILL">
<path fill="#FFFFFF" fill-opacity="0.25098039215686274" stroke="none" d="
M 94.25 155
L 94.4 155.85
Q 94.2 159.5 91 162.25
L 87.85 164.3
Q 87.85 164.95 88.05 165
L 89.2 165
Q 93.45 164.65 95.95 161.15 98.1 158.1 98.1 154.25 98.1 151.2 96.75 149.45 95.05 147.3 92.4 149.45
L 92.6 155 94.25 155
M 114.45 127.15
L 114.4 126.35 114.3 126.25 113.4 126.1
Q 111.2 127.1 110.4 128 109.1 129.5 109.1 132.3
L 109.35 132.35
Q 109.55 132.5 109.35 133.6
L 109.65 134.15 110.65 134.3
Q 112.45 134.3 113.35 132.85 114.45 131.15 114.45 127.15
M 108.35 117.9
Q 111.7 118.5 114.75 116.7 117.25 115.25 117.25 114.4 117.25 111.5 115.05 109.05 113 106.75 110.6 106.5
L 114.5 114.1 112.75 113.85
Q 112.15 113.85 110.2 115.9
L 108.35 117.9
M 130.5 136.15
Q 129.8 141.45 128.35 140.75
L 127.75 142.9
Q 130.55 142.45 131.95 140.25 133 138.55 133 136.4 133 133.25 131.2 130.95
L 130.5 136.15
M 75.65 146.35
Q 75.75 145.25 73.85 146.45 71.8 147.65 69.4 150.4 71 152 71.4 152 73.6 152 75.6 149.85 77.65 147.65 77.55 145.15
L 77.1 145.2
Q 76.5 145.4 75.65 146.35
M 74.5 126.95
Q 74.9 128 76.15 129.65
L 69.15 136.4
Q 71.2 137.9 72.9 137.9 75.05 137.9 76.8 136.45 78.85 134.75 78.85 132.05 78.85 130.4 78 128.85 76.75 126.65 74.35 126.25
L 74.5 126.95
M 68.25 112.3
Q 69.35 107.55 69.6 106.85
L 60.7 106.25
Q 56.3 106.6 55.35 107.25 55.85 109.3 58.85 112.65 62.45 116.7 65.55 116.7 67 116.7 68.25 112.3
M 36.2 65.6
Q 29.15 74.9 29.15 90.7 29.15 101.2 31.75 112.2
L 36.15 129.25 36.95 129.3 37.75 129.2 37.85 128.95 36.8 124.4
Q 35.75 119.65 35.75 113.9 35.75 87.75 44.5 77.2 48.4 72.5 55.6 68.4 58.9 66.55 71.4 60.65
L 65.05 54.4
Q 60.25 50 57.1 51.25 42.6 57.1 36.2 65.6 Z"/>
</g>

<g id="Graphics_Symbol_843_0_Layer0_0_FILL">
<path fill="#FFFFFF" fill-opacity="0.5019607843137255" stroke="none" d="
M 64.1 92.35
L 63.85 92.4
Q 63.1 92.45 63.1 93.05
L 63.15 93.75 63.25 93.8 64.25 94.1 64.75 93.85 65.1 93.2 65.1 93.1 65.1 92.95 65 92.5 64.1 92.35
M 91.65 86.1
Q 92.85 85.8 92.85 84.9 92.85 83.9 91.85 83.85 90.85 83.75 90.85 84.95
L 90.9 86 91.65 86.1 Z"/>
</g>

<g id="Parts_Heads_headColorMC_28_Layer1_0_FILL">
<path fill="#F5DCDC" stroke="none" d="
M 38.2 56.7
Q 25.1 66.75 25.1 76.35 25.1 85.25 38.1 107 49 125.2 56.5 133.6 57.7 134.95 64.75 136.45 72.1 138 78.25 138 87.75 138 92.35 136.75 97.35 135.4 99.5 131.95 101.55 128.7 102.1 121.95 102.45 117.75 102.45 105.05 102.45 88.45 95.55 72.35 84.7 47 61.6 47 50.9 47 38.2 56.7 Z"/>
</g>
</defs>

<g transform="matrix( 1, 0, 0, 1, -62.75,-76.85) ">
<g transform="matrix( 1, 0, 0, 1, 0,0) ">
<g transform="matrix( 1, 0, 0, 1, 0,0) ">
<use xlink:href="#Graphics_Symbol_795_0_Layer0_0_FILL"/>
</g>
</g>

<g transform="matrix( 1, 0, 0, 1, 0,0) ">
<g transform="matrix( 1, 0, 0, 1, 0,0) ">
<use xlink:href="#Graphics_Symbol_843_0_Layer4_0_FILL"/>
</g>

<g transform="matrix( 1, 0, 0, 1, 0,0) ">
<use xlink:href="#Graphics_Symbol_843_0_Layer3_0_FILL"/>
</g>

<g transform="matrix( 1, 0, 0, 1, 0,0) ">
<use xlink:href="#Graphics_Symbol_843_0_Layer2_0_FILL"/>
</g>

<g transform="matrix( 1, 0, 0, 1, 0,0) ">
<use xlink:href="#Graphics_Symbol_843_0_Layer1_0_FILL"/>
</g>

<g transform="matrix( 1, 0, 0, 1, 0,0) ">
<use xlink:href="#Graphics_Symbol_843_0_Layer0_0_FILL"/>
</g>
</g>

<g id="hat1" transform="matrix( 0.983917236328125, -0.17529296875, 0.17529296875, 0.983917236328125, 45.2,78.25) ">
<g id="colorMC" transform="matrix( 0.9999847412109375, 0, 0, 0.9999847412109375, 0,0) "/>

<g id="colorMC2" transform="matrix( 1, 0, 0, 1, 0,0) "/>
</g>

<g id="hat2" transform="matrix( 0.9733734130859375, -0.2247314453125, 0.2247314453125, 0.9733734130859375, 38,60.6) ">
<g id="colorMC_FL" transform="matrix( 0.9999847412109375, 0, 0, 0.9999847412109375, 0,0) "/>

<g id="colorMC2_FL" transform="matrix( 1, 0, 0, 1, 0,0) "/>
</g>

<g id="hat3" transform="matrix( 0.96026611328125, -0.2753753662109375, 0.2753753662109375, 0.96026611328125, 26,48.4) ">
<g id="colorMC_FL_FL" transform="matrix( 0.9999847412109375, 0, 0, 0.9999847412109375, 0,0) "/>

<g id="colorMC2_FL_FL" transform="matrix( 1, 0, 0, 1, 0,0) "/>
</g>

<g id="hat4" transform="matrix( 0.944580078125, -0.3252410888671875, 0.3252410888671875, 0.944580078125, 18.85,34.5) ">
<g id="colorMC_FL_FL_FL" transform="matrix( 0.9999847412109375, 0, 0, 0.9999847412109375, 0,0) "/>

<g id="colorMC2_FL_FL_FL" transform="matrix( 1, 0, 0, 1, 0,0) "/>
</g>
</g>

<g transform="matrix( 1, 0, 0, 1, -75.4,-101.9) ">
<g transform="matrix( 1, 0, 0, 1, 0,0) ">
<use xlink:href="#Parts_Heads_headColorMC_28_Layer1_0_FILL"/>
</g>
</g>

<g transform="matrix( 1, 0, 0, 1, -62.75,-76.85) ">
<g transform="matrix( 1, 0, 0, 1, 0,0) ">
<g transform="matrix( 1, 0, 0, 1, 0,0) ">
<use xlink:href="#Graphics_Symbol_795_0_Layer0_0_FILL"/>
</g>
</g>
</g>
</svg>
