
<svg xmlns="http://www.w3.org/2000/svg" version="1.1" xmlns:xlink="http://www.w3.org/1999/xlink" preserveAspectRatio="none" x="0px" y="0px" width="550px" height="400px" viewBox="0 0 550 400">
<defs>
<g id="Parts_Bodies_bodyMC_41_Layer14_0_FILL">
<path fill="#FFFFFF" stroke="none" d="
M 93.4 31.6
Q 92.45 31.05 92.1 30.8 90.9 29.95 89.35 29.65 87.45 29.25 86.4 30 85.35 30.55 84.75 30.9 83.75 31.5 83.1 32.4
L 82.4 33.5
Q 81.8 33.95 81.5 34.3 81.25 34.65 80.6 35.7 79.9 37.1 79.7 37.4 78.4 39.7 78.1 41.8 77.8 44.25 79.35 48.65 80.2 50.85 81.8 52.65 83.55 54.6 85.5 55.15 86.55 55.45 87.3 55.5 88.2 55.6 89.8 55.85 92.75 55.75 95.5 54.55 98.45 53.25 99.4 51.4 99.85 50.55 101.45 48.15 102.85 45.9 102.9 44.7 101.9 45.5 100.35 45.85 99 46.1 97.75 45.95 94.4 45.5 94 44.2 94.25 42.85 94.25 42.65 94.55 40.2 95.25 39.45 96.05 38.55 98.35 38.5 99 38.5 99.95 38.85 100.5 39.1 101.55 39.5
L 102.85 39.75
Q 103.3 37.8 103.25 37.7 102.15 34.2 100.4 33.95 99.8 33.9 99.05 34.05 98.3 34.2 97.75 34.1 96.7 33.95 96.55 33.9 96 33.7 95.15 33 94.4 32.25 93.4 31.6
M 94.4 12.35
Q 94.5 11.65 95.05 10.95 97 8.75 101.3 10.3 100.5 8.35 99 6.15 97.1 3.55 95.6 2.85 94.2 2.15 92.1 1.9 89.9 1.6 88.25 1.95 86.15 2.3 85.4 2.7 82.6 3.75 82 4.3 78.7 6.8 77.85 13.55 77.7 14.85 77.9 17.05 78 17.2 78.05 17.1 78.1 17.05 78.2 17.15 78.4 18.2 80.05 21.5 80.95 23.1 82.9 24.5 86.6 26.55 89.4 26.9 93.85 27.45 97.8 23.25 100.95 19.9 102.05 16.05 101.5 16.6 100.1 16.45 98.5 16.15 97.7 16.05 95 15.7 94.35 14.8 94.3 13.95 94.3 13.9 94.35 12.8 94.4 12.35 Z"/>
</g>

<g id="Parts_Sets_Sea_seaBody_0_Layer3_0_FILL">
<path fill="#FFFFFF" fill-opacity="0.2980392156862745" stroke="none" d="
M 50.6 120.05
Q 50.4923828125 120.1755859375 50.4 120.3 48.44921875 120.1390625 46.7 119.7 46.55625 119.595703125 46.4 119.5 43.65 116.85 41.85 115.45 38.38046875 112.87265625 38.35 115.65 37.5068359375 116.0158203125 36.4 116.5 35.75 116.85 35.15 117.15 35.2 117.25 35.25 117.3 38.73515625 121.494140625 45.3 123.2 46.2205078125 123.558203125 47.3 123.9 49.6787109375 124.6744140625 51.6 125.1 56.916796875 127.25 61.8 127.25 69.6001953125 127.25 77.6 124.25
L 78.05 124.1
Q 78.4142578125 123.9873046875 78.75 123.85 78.8537109375 123.8072265625 78.95 123.75 79.1498046875 123.689453125 79.35 123.6 86.9927734375 120.4677734375 88.25 117.15 91.6310546875 113.859765625 93 111.05 94.5576171875 110.0001953125 96.1 108.85 100.8 105.3 104.55 101.7 104.3 98.95 104.25 95.9 100 101.45 95.8 104.4 87.75 110.15 75.55 115 62.71171875 120.163671875 54.2 120.4 53.86796875 120.1953125 53.65 120.05 52.95 119.6 51.55 119.6 50.95 119.6 50.6 120.05
M 56 83.85
Q 56 82.05 53.1 81.25 49.95 80.35 48 82.85 45.8 85.7 45.7 85.85 44.3 87.9 44.3 89.05 44.3 89.1 44.35 90.25 44.9 91.4 47.55 91.4 52.55 91.4 56 83.85
M 83.25 86.1
Q 83.25 82.9 82.65 80.4 81.9 77.45 80.15 74.5 76.95 68.7 75.55 66.5 73.3478515625 63.039453125 73.1 65.6 71.475390625 64.3615234375 69.25 63.55 69.15 63.6 69 63.7 68.95 64 68.9 64.35 68.7 65.3 68.5 66.1 71.3 67.15 72.8 70.9 74.05 73.95 74.05 76.5 74.05 85.5 60.75 94.35 55.7125 97.6830078125 50.65 100.05 50.00390625 99.7708984375 49.35 99.4 46.65 97.5 46 97.5 45.4 97.5 45.05 97.95 44.75 98.3 44.75 98.75 44.75 99.83046875 47.45 101.45
L 47.45 101.5
Q 47.45 101.9 47.8 102.2 48.1 102.45 49.35 103.25
L 52.05 103.35
Q 54.0701171875 103.85 56.3 103.85 69.85 103.85 77.5 96.75 83.25 91.45 83.25 86.1 Z"/>
</g>

<g id="Parts_Sets_Sea_seaBody_0_Layer2_0_FILL">
<path fill="#000000" stroke="none" d="
M 122.4 46.25
Q 123 43.8 123 42.95 123 40.8 122.25 39 121.05 36.05 118 33.85 114.2 31.15 109.25 30.75 113.3 29 115.15 23.2 116.45 19.05 116.3 14.5 116.3 6.65 111.8 2.8 107.75 -0.65 101.85 0.15 96.05 0.9 91.9 5.25 87.6 9.75 87.4 16.2 84.9 13.95 82.05 11.9 76.5 7.9 69.85 7.4 69.85 7.35 69.85 7.3 69.7 7.35 69.55 7.35 68.2 7.25 66.75 7.3 67.25 7.5 67.8 7.7 32.3 14.5 13.95 45.55 6.75 57.8 3.05 72.45 0 84.55 0 95.3 0 151.5 46.95 151.5 75.55 151.5 96.5 120.85 103.5 110.75 108.4 98.9 112.25 89.6 112.25 86.95 112.25 86.7 112.25 86.5
L 112.9 86.55
Q 113 86.05 113.05 85.55 113.95 79.45 113.95 79.25 113.95 78.85 113.95 78.45
L 109.35 73.2 110.4 73.15 107.4 68.7
Q 107.55 65.35 107.5 62.05 115.6 62 120.05 53.05 120.1 52.9 120.15 52.8 121.55 49.8 122.4 46.25
M 101.85 4.7
Q 106.15 4.45 109.2 7 112.55 9.8 112.55 14.6 112.9 17.75 111.85 21 109.7 27.55 102.85 27.55 99.3 27.55 96.85 26.55
L 96.8 26.5
Q 95.15 25.65 93.75 23.7 92.45 21.85 92.05 20.7 91.75 20.4 91.5 20.1 91.15 18.6 91.15 16.85 91.15 11.25 94.5 7.9 97.45 4.9 101.85 4.7
M 94.9 46.85
Q 94.9 45.1 96 42.4 97.2 39.35 98.75 38.05 98.8 38 98.85 37.95 100.1 35.5 101.5 34.3 103.7 32.25 106.05 33.45 107.1 34 109.3 35.65 111.35 37.05 112.95 37.05 113.6 37.05 113.8 36.55 114.05 36.05 114.65 36.05 116.7 36.05 118.05 39 118.15 39.15 118.2 39.3 119.2 41.6 119.2 42.95 118.9 46.85 116.95 50.65 116.3 51.95 115.5 53.05 112.45 57.2 107.4 58 106.2 58.2 104.9 58.2 103.95 58.2 103.05 58.05 98.75 57.35 96.55 53.1 94.9 50 94.9 46.85
M 89.3 24.95
Q 91.15 27.9 94.65 29.5 95.9 31.6 97.05 33.9 96.55 34.25 96.15 34.6 91.15 39 91.15 46.85 91.15 51.2 93.35 55 96.45 60.4 103 61.65 102.85 65.1 102.25 68.55 74.95 61.5 66 35.1 61.95 23.15 65.1 11.2 70.3 9.55 70.3 9.05 70.3 8.85 70.3 8.7 80.55 13.1 87.7 20.5 88.15 23.1 89.3 24.95
M 108 82.9
Q 106.65 85.05 105.1 87.45 98.85 97.15 92.8 101.45 84.75 107.2 72.55 112.05 59 117.5 50.3 117.5 36.85 117.5 32.7 107 31.35 103.65 31.15 99.55 31.15 96 31.15 95.75 31.15 86.1 35.35 78 43.25 62.75 63.15 62.75 67.7 62.75 69.8 67.95 71.05 71 71.05 73.55 71.05 82.55 57.75 91.4 51.1 95.8 44.45 98.55 44.45 98.95 44.8 99.25 45.1 99.5 46.35 100.3
L 49.85 100.45
Q 60.15 100.45 68.3 88.5 71.2 84.3 73.15 79.55 74.8 75.5 74.8 73.8 74.8 68.25 72.65 65.25 68.35 59.1 55.8 59.05 39.1 62.15 32.05 75.3 27.4 83.95 27.4 95.8 27.4 108.5 32.25 114.35 38.15 121.45 52.9 121.45 72.25 121.45 93.1 105.9 98.95 101.5 103.3 96.95 102.35 98.85 101.3 101 94.85 114.1 89.8 121.5 72.85 146.65 48.2 146.65 18.05 146.65 8.5 121.9 5.35 113.7 4.6 103.1 4.45 101 4.45 90.9 4.45 84.8 9.6 68.6 14.8 52.35 17.9 48.7 19.05 47.35 24.8 38.4 28.8 32.15 34.3 27.9 34.95 27.4 40.25 22.65 44 19.25 47.4 17.35 50.8 15.4 61.25 12.3 62.65 11.9 63.85 11.55 52.3 32.25 70.85 49.3 89.25 66.25 108 82.9 Z"/>
</g>

<g id="Parts_Sets_Sea_seaBody_0_Layer1_0_FILL">
<path fill="#000000" stroke="none" d="
M 108.8 45.15
Q 108.8 46.85 109.25 47.75 110.35 50 113.85 50 116.45 50 118.5 47.4 119.8181640625 45.7224609375 120.05 44.4 120.65 43.630859375 120.65 43 120.65 41.8158203125 120.25 41.05 120.0857421875 40.6228515625 119.75 40.3 119.0033203125 39.599609375 117.55 39.6 117.438671875 39.58125 117.3 39.55 115.65 39.15 113.85 39.4 108.8 40.25 108.8 45.15
M 112.6 11.35
Q 113.1 11.1 113.1 10.55 113.1 9.7 112.15 9.6 107.75 8.2 105.75 11.5 104.55 13.45 104.55 15.55 104.55 15.6 104.95 17.55 105.95 19.5 108.8 19.5 112.05 19.5 113.25 16.85 113.85 15.5 113.85 13.65 113.85 12.6 112.6 11.35 Z"/>

<path fill="#000000" fill-opacity="0.8" stroke="none" d="
M 89.85 22.4
Q 89.7259765625 21.53125 89.6 20.8 87.933203125 19.7580078125 85.4 18.45 77.45 14.3 74 15.4 70.55 14.7 65.35 17.5 60.5 20.1 60.5 21.65 60.5 22.05 60.6 22.3 60.8466796875 22.75234375 61.5 22.8 61.5 23.3775390625 61.5 24.05 61.5 26.45 63.05 29.2 64.75 32.25 65.05 35.05 65.35 37.65 67.25 41 68.1 42.6 70.6 46.15 76.2 54.35 80.55 58.85 89.0203125 67.66484375 96 67.8 94.65 69.90234375 94.65 70 94.65 70.4 94.8 70.65 95.2 71.25 96.25 71.25 98.3 71.25 99.9 66.5 101.15 62.85 101.15 61.35 101.15 60.25 100.4 59.15 100.2060546875 58.8806640625 100 58.75 100.15 58.3326171875 100.15 57.7 100.15 57.6337890625 100.15 57.55 99.4439453125 57.3947265625 99 56.85 95.94296875 56.5134765625 94.9 52.75 94.722265625 50.8611328125 94.6 49.75 94.207421875 49.2873046875 94.05 48.5 94 46.45 94 46.3 94 40.1970703125 97.6 36.35 96.0123046875 30.849609375 92.85 26.25 90.78125 25.40859375 89.85 22.4 Z"/>
</g>

<g id="Parts_Sets_Sea_seaBody_0_Layer0_0_FILL">
<path fill="#000000" fill-opacity="0.14901960784313725" stroke="none" d="
M 79 40.55
L 79.55 41.3 80.3 41.3 79 40.55
M 102.45 98.2
Q 109.05 91.75 110.95 82.75
L 99.4 69
Q 87.95 67.95 80.8 59.1 80.4 59.1 80 59.15 79.05 58.95 78.75 57.95
L 80.5 58.8
Q 71.35 49.1 65.85 37
L 65 37.25
Q 61.45 24.75 63.25 12.1
L 61.25 11.85 63.8 8.25 54.55 12.05 52.1 15.25
Q 48.5 15.9 45.4 17.9 37.7 22.9 31.05 29.2 19.95 39.8 13.25 53.45 3.15 74.2 1.6 96.4 0.05 118.5 13.7 135.55 19.3 142.55 27.65 144.8 60.7 153.7 85.05 130.7 102.65 122.5 100 103.05 100.2 102.9 100.45 102.75 102.5 101.4 102.5 99
L 102.45 98.2
M 88.75 84.9
Q 92.25 93.65 85.15 98.95 64.75 114.1 41.65 104.6 34.5 80.1 58.1 74.75 60.65 79.75 58.6 84.85 55 93.85 45.25 97.65
L 45.5 99.05
Q 49.85 101.1 54.3 99.35 60.8 96.7 63 90.1 71.1 86.1 71.85 75.65 73.05 58.7 58.7 61.3 54.05 62.3 49.85 63.7 45.05 65.3 41.3 68.55 20.45 86.8 34.25 110.5 36.95 115.1 42.15 115.9 72.65 121.15 94.55 101.15 95.3 108.5 92.2 115.2 87.15 126 74.65 129.9 59.65 134.5 43.95 130.25 18.6 123.5 19.15 95.85 19.25 88.15 21.7 80.95 32.2 50.2 61.4 56.1 68.95 57.7 74.45 63.25 83.7 72.4 88.75 84.9 Z"/>
</g>
</defs>

<g transform="matrix( 1, 0, 0, 1, -33.5,-72.6) ">
<g transform="matrix( 1, 0, 0, 1, 0,0) ">
<use xlink:href="#Parts_Bodies_bodyMC_41_Layer14_0_FILL"/>
</g>

<g transform="matrix( 0.9493865966796875, 0.1202850341796875, -0.12030029296875, 0.9492645263671875, -4.9,-13.35) ">
<g transform="matrix( 1, 0, 0, 1, 0,0) ">
<use xlink:href="#Parts_Sets_Sea_seaBody_0_Layer3_0_FILL"/>
</g>

<g transform="matrix( 1, 0, 0, 1, 0,0) ">
<use xlink:href="#Parts_Sets_Sea_seaBody_0_Layer2_0_FILL"/>
</g>

<g transform="matrix( 1, 0, 0, 1, 0,0) ">
<use xlink:href="#Parts_Sets_Sea_seaBody_0_Layer1_0_FILL"/>
</g>

<g transform="matrix( 1, 0, 0, 1, 0,0) ">
<use xlink:href="#Parts_Sets_Sea_seaBody_0_Layer0_0_FILL"/>
</g>
</g>
</g>
</svg>
