
<svg xmlns="http://www.w3.org/2000/svg" version="1.1" xmlns:xlink="http://www.w3.org/1999/xlink" preserveAspectRatio="none" x="0px" y="0px" width="550px" height="400px" viewBox="0 0 550 400">
<defs>
<g id="Graphics_Symbol_244_0_Layer0_0_FILL">
<path fill="#000000" stroke="none" d="
M 37 37.75
L 37.8 37.45
Q 38.25 37.15 38.25 36.35
L 38.2 35.8 38.25 33.25
Q 38.25 28.1 35 24.45 29.55 18.3 16.5 19.5 0.65 19.95 -8.2 24.7 -15.25 28.5 -15.25 32.85
L -15.1 34.9 -14.25 36.2 -13.9 37.05 -13 37.75 37 37.75
M 36.1 33.85
L 36.4 35.25 -10.25 35.25
Q -10.7 34.45 -11.7 33.65
L -12.55 32.8
Q -12.55 30.15 -6.05 26.8 3.25 22 19.65 22 30.8 22 34.4 28.75 35.45 30.7 36.1 33.85 Z"/>
</g>

<g id="Graphics_Symbol_284_0_Layer2_0_FILL">
<path fill="#000000" fill-opacity="0.25098039215686274" stroke="none" d="
M -3.75 25.8
Q -4.4 25.4 -6.35 25.5 -8.35 25.55 -10.45 27.1 -12.6 28.6 -13.4 31.7 -14.25 34.75 -13.75 35
L -6.65 35.55 -0.45 35.3
Q -0.7 33.65 0.75 30.85
L -2.7 30.45
Q -4.25 30.2 -6.35 29.35 -4.3 27.35 -3.75 25.8
M 30.3 22.3
Q 28.4 22.3 29 24.65 29.4 26.35 31.55 30.35
L 19.65 31.3 22.05 31.5 9.3 31.35 8.15 35.9 19.35 36.55 26.1 36.75 35.1 36.3
Q 38.45 35.85 38 33.2 37.55 30.5 35.45 26.4 33.35 22.3 30.3 22.3 Z"/>
</g>

<g id="Graphics_Symbol_284_0_Layer1_0_FILL">
<path fill="#FFFFFF" fill-opacity="0.25098039215686274" stroke="none" d="
M 26.65 27
L 26.7 23.05
Q 4.2 21.2 -1.75 25.6 -0.9 26.55 -0.9 26.85
L 10.1 28.25 26.65 27 Z"/>
</g>

<g id="Graphics_Symbol_284_0_Layer0_0_FILL">
<path fill="#FFFFFF" fill-opacity="0.5019607843137255" stroke="none" d="
M 29 27.6
Q 30.55 26.6 30.55 25.6 30.55 24.25 28.95 23.3 27.45 22.45 25.4 22.25 20.25 21.85 20.25 25.4 20.25 26.25 21.45 27.4 22.9 28.75 25 28.75 27.3 28.75 29 27.6 Z"/>
</g>
</defs>

<g transform="matrix( 1, 0, 0, 1, -28.4,-10.7) ">
<g transform="matrix( 1, 0, 0, 1, 0,0) ">
<g transform="matrix( 1, 0, 0, 1, 0,0) ">
<use xlink:href="#Graphics_Symbol_244_0_Layer0_0_FILL"/>
</g>
</g>

<g transform="matrix( 1, 0, 0, 1, 0,0) ">
<g transform="matrix( 1, 0, 0, 1, 0,0) ">
<use xlink:href="#Graphics_Symbol_284_0_Layer2_0_FILL"/>
</g>

<g transform="matrix( 1, 0, 0, 1, 0,0) ">
<use xlink:href="#Graphics_Symbol_284_0_Layer1_0_FILL"/>
</g>

<g transform="matrix( 1, 0, 0, 1, 0,0) ">
<use xlink:href="#Graphics_Symbol_284_0_Layer0_0_FILL"/>
</g>
</g>
</g>
</svg>
