
<svg xmlns="http://www.w3.org/2000/svg" version="1.1" xmlns:xlink="http://www.w3.org/1999/xlink" preserveAspectRatio="none" x="0px" y="0px" width="550px" height="400px" viewBox="0 0 550 400">
<defs>
<g id="Layer0_0_FILL">
<path fill="#FFFFFF" stroke="none" d="
M 3.7 2.15
Q 3.85 1.75 3.7 1.45
L 3.65 1.3
Q 3.6119140625 1.086328125 3.5 0.9 3.25 0.5 2.9 0.35 2.45 0.15 1.9 0.05 1.35 -0.05 0.95 0.1
L 0.1 0.75
Q 0 0.9 0 1.15 0.05 1.4 0.25 1.4
L 1.3 1.65 1.55 1.65 2.2 1.9 2.4 2 2.35 2 2.45 2.05 2.75 2.25
Q 2.95 2.45 3.15 2.35
L 3.25 2.4
Q 3.55 2.5 3.7 2.15 Z"/>
</g>
</defs>

<g transform="matrix( 1, 0, 0, 1, 0,0) ">
<use xlink:href="#Layer0_0_FILL"/>
</g>
</svg>
