
<svg xmlns="http://www.w3.org/2000/svg" version="1.1" xmlns:xlink="http://www.w3.org/1999/xlink" preserveAspectRatio="none" x="0px" y="0px" width="550px" height="400px" viewBox="0 0 550 400">
<defs>
<g id="Layer0_0_FILL">
<path fill="#010101" stroke="none" d="
M 18.25 3.95
Q 18.4 3.5 18.4 1.7 18.4 1.4 18.25 0.75 18.1 -0.05 17.9 0 17.35 0.2 16.8 0.9 16.25 1.7 16 2 14.8 3.6 14.05 4.3 12.05 6.45 8.9 6.9 5.55 7.5 3.55 6.8 2.55 6.4 1.65 5.4 1.5 5.25 0.15 3.5 0.1 3.4 0.05 3.65 0 3.75 0 3.9
L 0.05 4.8
Q 1.1 8.7 3.05 9.9 4.1 10.55 5.75 10.75 6.8 10.9 8.65 10.85 11.95 10.7 14.05 8.85 14.6 8.45 16.05 6.75 17.75 4.95 18.25 3.95 Z"/>
</g>
</defs>

<g transform="matrix( 1, 0, 0, 1, 0,0) ">
<use xlink:href="#Layer0_0_FILL"/>
</g>
</svg>
