
<svg xmlns="http://www.w3.org/2000/svg" version="1.1" xmlns:xlink="http://www.w3.org/1999/xlink" preserveAspectRatio="none" x="0px" y="0px" width="550px" height="400px" viewBox="0 0 550 400">
<defs>
<g id="Parts_Heads_headColorMC_31_Layer1_0_FILL">
<path fill="#FEE325" stroke="none" d="
M 60.1 -28.5
L 58.35 -27.95
Q 53.15 -25.35 56.1 -17.85 57.6 -14 60.6 -9.75
L 60.85 -9.2 58.45 -7.3 57.25 -7.3
Q 56.85 -7.7 55 -12.4
L 56.8 -0.3
Q 58.3 11.1 58.4 13.75 51.15 3.75 46.85 -0.2 39.6 -6.9 28 -8.2 33.35 -4.3 44.3 9.4 58 26.55 65.3 41.9
L 68.65 51.1 68.65 51.25
Q 66.15 50.35 61.3 42.2
L 51 23.7
Q 35.1 -3.5 20.5 -8.1
L 38.65 12.75
Q 41.65 16.35 43.7 20.8
L 44.45 22.3 43.65 21.2
Q 43.6 21.8 42.75 22.25
L 35.75 18.15
Q 24.75 11.8 7.1 2.3
L 5.5 1.25 9.3 5.9 9.9 7.7 8.8 8.45 7.1 8.5
Q 5.95 8.5 3.05 9.9
L 1.45 10.7 1.4 11.45
Q 8.55 10.65 16.4 15.4 25.95 21.05 31.6 32.8
L 33.7 39.5
Q 33.9 39.95 34.55 40.25 35.25 40.55 35.4 40.95 35.6 41.35 33.85 43.75 30.8 41.8 19 36.4 12.5 33.4 -14.35 21.35
L -13.75 22.95
Q -13.5 23.5 -10.2 24.8 -6 26.5 -1.65 27.1
L -1.8 28.45
Q -1.8 28.75 -2.3 29 -3.2 29.4 -5.75 29.8 -8.5 30.25 -10.75 31.1 -6.65 32.75 -0.5 33.5 7.05 34.35 15 36.6 21.45 38.4 38.95 52.95 54.75 66.15 55.45 67.7 55.8 68.35 55.35 69
L 54.8 69.55
Q 53.25 70.25 51.9 68.9
L 46.35 63.55
Q 41.8 59.85 29.1 51.95 13.1 42.1 5.9 40.45 -0.55 38.9 -10.65 40.4
L -21.7 41.2
Q -23.9 40.4 -27.4 37.3 -30.7 34.25 -31.25 34.2
L -32 35.35
Q -32.5 36.45 -31.95 37.7
L -28.85 39.45
Q -26.15 40.65 -25.9 41.2
L -25.5 42.3
Q -25.5 42.65 -26.4 43.05 -27.6 43.65 -30.6 43.75
L -43.6 44.75
Q -42.3 45.8 -38.3 46.05 -34.35 46.35 -33.65 46.9 -33.5 48.6 -36.9 52 -40.4 55.55 -40.4 57.05
L -40.15 57.35 -40.25 57.55 -39.65 57.35 -36.75 54.05
Q -33.15 50.45 -29.6 48.8 -23.65 45.95 -15.9 50.4 -9.85 53.9 -8.35 57.15 -6.8 60.25 -6.95 62.05 -7.05 63.25 -7.75 63.6 -9.85 64.6 -13.55 64.35
L -18.55 63.75
Q -20.05 63.6 -21.35 64.15 -22.75 64.7 -23.05 64.65
L -31.45 58.6 -32.7 60 -27.75 64.8
Q -27.4 65.65 -27.4 66.1
L -32.2 68.4
Q -34.65 68.9 -39.35 70.75
L -45.35 73.35 -47.55 74.55 -47.7 75.75
Q -45.55 76.5 -40.75 74.5 -33.9 71.5 -32.25 71.05
L -24.2 69.1
Q -23.75 68.85 -23.8 68.3
L -23.7 67.7
Q -23.4 67.55 -17.15 72.7 -10.6 78 -6.45 80.1 -3.7 81.45 -3.55 81.7 15.15 95.4 15.35 95.95 15.8 96.8 15.65 96.8
L 14.55 98.1
Q 5.2 90.55 -2.25 86.35 -16.35 78.35 -26.1 83
L -28.05 84
Q -9.7 82.65 5 93.55 9.85 97.2 14.35 102.3
L 19.65 108.5
Q 27.4 117.35 33.25 126.75 39.4 134.5 53.1 140.5 66.8 146.5 80 143.65 93.15 140.75 108.6 133.4 116.15 129.8 118.45 124.45 121.15 118.4 117.35 110.25
L 110.8 99.8
Q 104.75 90.5 103.95 88.75 101.25 79.45 94.5 59.95
L 89.7 42.35
Q 89.15 39.25 90.15 36.6
L 91.2 33.35
Q 90.6 18.05 111.3 -5.65 118.8 -14.25 126.9 -21.4 134.1 -27.75 136.65 -28.65
L 135.1 -28.85
Q 134.35 -29 132.8 -28.25 124.7 -24.4 115 -14.1
L 106.45 -4.45
Q 106 -4.15 105.65 -4.15
L 105.45 -4.15 104.75 -5.25
Q 103.55 -7.85 118.85 -28.6 96.9 -6.15 85.1 19.9 81.65 27.55 79.1 35.45
L 77.15 41.6 76.55 41.8 76.65 41.7
Q 76.15 41.6 75.75 40.75 75.25 39.75 76.4 33
L 79.5 15.9
Q 80.6 9.55 83.9 0.25 89.75 -15.6 99.35 -29.95
L 99.25 -30.15 98.55 -29.9
Q 84.4 -23.15 78.25 4.45 76.7 11.75 75.1 23.65 73.85 32.9 73.25 33.95
L 72.25 34.25 71.65 33.25 61.1 -26.4 60.1 -28.5
M 46.25 47.25
Q 43.95 44.65 41.55 41.2
L 39.35 37.9
Q 36.15 33.55 21.1 15.35 20.7 14.5 21.1 13.55 33.5 17.6 43.25 26.6 51.7 34.3 55.95 43.25 57.1 45.6 58.2 49.4
L 59.3 53.7
Q 53.65 55.5 46.25 47.25
M 30.15 60.95
Q 37.2 65.7 38.7 68.8 39.5 70.5 38.2 71.05 35.7 72.3 33.1 70.85 31.45 69.95 28 66.55 19.55 58.2 12.05 55.85
L -0.5 51.75
Q -13.15 47.4 -14.7 45.8
L -15.2 44.9
Q -7.15 41.95 14.5 52.15 23.4 56.35 30.15 60.95
M 0.7 68.7
Q 6.8 69.8 11.8 73.6 16.4 77.1 18.45 81.4
L 19.2 83.45
Q 16.1 84 10.5 79.4 5.15 75 0.7 68.7
M 11.25 61.35
L 19.55 68.85
Q 24.65 73.65 27.15 75.5
L 27.2 75.8
Q 22.7 76.85 13.95 72.85 3.35 67.5 -2.4 65.1
L -1.2 62.75
Q -1.45 62.1 -2.5 61.15 -3.95 59.95 -6.1 56.3 1 53.1 11.25 61.35
M 12.45 89.2
Q 12.05 89.3 9.35 86.75 4.45 82.2 -0.55 78 -2.55 76.35 -10.7 72.7 -17.45 69.75 -18.8 67 -14.85 65.45 -9.8 66.6 -4.75 67.8 -1.75 71.15 -0.3 72.85 6.05 78.25 10.2 81.7 12.5 86.55
L 13.25 88.35 12.45 89.2 Z"/>
</g>

<g id="Parts_Heads_headColorMC2_31_Layer3_0_FILL">
<path fill="#836E0F" stroke="none" d="
M 19.6 -9.05
L 20.3 -7.75 19.15 -7
Q 19 -6.7 19.65 -5.5 21.5 -2 24.05 1 29.05 7.05 32.7 5.35
L 37.45 14.4 28.9 9.45
Q 20.35 4.5 13.2 3.15 6.05 1.8 6.1 -1.3
L 4 0.05 4.3 1.05 6.25 2.95 9.05 5.4
Q 7.9 6.5 6.65 7.1
L 3.6 8.15
Q 1.05 9 0.65 9.2 0.2 9.4 0.2 10.25 0.1 10.95 0.25 11.2 1.25 13.4 4.75 14.5
L 12.05 16.1
Q 22.6 18.5 26.1 25.75
L 27.25 29.5 29.25 37.9
Q 23.95 35.65 16.55 31.7
L 4.85 25.55
Q -8.35 19 -17.4 19.4
L -17.65 19.75 -17.6 20.45 -14.3 23.8
Q -10.55 27.25 -8.4 28.3
L -7.7 28.65 -10.3 29.9
Q -11.25 30.45 -12 31.8 -11.1 32.75 -2.15 35.95
L -0.85 36.4
Q -5.5 38.05 -12.3 38.3 -18.95 38.55 -21.05 37.4 -22.2 36.75 -27.3 32.5 -29.35 30.8 -32.45 32.3 -34.85 33.45 -33.8 35.55 -33.3 36.6 -30.7 39
L -29.4 40.05 -41.55 41.4
Q -45.5 43 -44.45 45.2
L -42.5 46.95
Q -40.2 48.55 -37.95 48.3
L -37.05 48.25
Q -39.5 49.2 -40.55 52.8 -41.45 55.9 -40.9 57.05
L -39.35 58.65
Q -37.35 59.7 -34.7 57.6
L -34.25 59.2 -33.1 61.25
Q -31.8 63.25 -30.8 63.85
L -30.05 64.5 -32.8 64.65
Q -35.4 64.65 -39.7 66.7 -44.3 68.95 -47.65 71.95 -51.15 75.3 -50.25 77.15 -49.55 78.6 -47.7 78.65 -44.75 78.65 -38.55 75.7
L -34.4 73.15 -29.25 70.15
Q -25.55 68.35 -22.35 70.55 -20.55 71.75 -13.85 78.95 -14 79.45 -15.45 80.15
L -21.35 79.95 -28.35 80.15
Q -31.75 81.85 -30.4 84.7 -28.9 87.85 -17.65 87.1 -15.25 86.95 -9.7 88.65 -4.4 90.25 -1.7 91.85 1.35 93.5 22.2 118.15 45.95 146.3 70.7 146.75 79.95 146.95 90.6 143.2 95.7 141.35 107.7 135.7 118.2 130.7 121.45 124.95 124.65 119.2 121.15 111.9 119.95 109.3 114.5 100.55
L 109.2 92.25
Q 105.8 85.1 102.35 74.35
L 93.55 46.05
Q 90.75 37.5 93.35 29.25 94.3 26.25 100.7 13.45 103.7 7.5 119.5 -9.85 136.8 -28.85 138.25 -30.95 137.2 -31.55 136.6 -31.55 135.15 -31.75 132.9 -30.65 131.5 -30 129.25 -27.55 125.45 -23.55 115.25 -15.9
L 118.6 -23
Q 120 -26.55 119.65 -29.2
L 118.95 -30 114.45 -28.4
Q 111.95 -27.45 96.1 -2.15 80.2 23.1 78.55 30.05
L 78 31.05
Q 77.1 27.9 80.8 16.2 84.55 4.5 89.6 -5.35
L 98.65 -22.6
Q 101.25 -28.2 100.05 -30.6 98.8 -33.3 94.8 -31.35 90.8 -29.4 84.35 -14.4 77.85 0.55 73.2 25.2
L 66.05 -14.1
Q 64.05 -23.6 62.65 -26.55 60.4 -31.3 58.65 -30.5 56 -29.25 54.85 -21.9 53.65 -14.25 53.95 1.8 46.1 -4 39.1 -7.4 27 -13.25 19.5 -10.8 19.3 -10.05 19.6 -9.05
M 89.2 49.75
Q 91.65 56.9 94 69.65
L 97.2 86.8 108.1 102.05
Q 113.1 112.55 107.1 119.85 103.35 124.4 92.55 129.5 85.1 133.05 82 134.15
L 81.8 133.65 81.75 133.6
Q 77.45 135.35 70.2 134.65 62.35 133.9 54.3 130.35 33.8 121.45 24.3 101.4 24.1 101.05 24.15 100.2 27.25 101.5 29.2 100.6 34.35 98.15 31.65 91.35 28.55 85.65 27.35 83
L 28.05 82.35 33.75 86.05
Q 37.85 88.7 41.05 89.7
L 44.45 88.1
Q 46.35 85.35 44.95 81.35
L 42.6 75.05
Q 46.6 74 53.4 75.1
L 62.3 75.5
Q 64.5 74.8 66.05 71.35 67.55 67.8 66.15 66.4 64.75 64.9 63.5 62.85
L 62.55 61.2 63.55 59.55
Q 65.4 59.65 71.3 61.7 77.15 63.75 80.2 63.75 83.25 63.75 83.15 56.85 83.1 49.95 83.95 48.5 88.55 48.3 89.2 49.75
M 51.7 42.8
Q 51.4 44.1 50.5 44.55 48.05 45.65 44.15 41.7 40.15 37.65 32.35 26.3
L 28.9 21.2
Q 27.35 18.25 31.2 20.4
L 38.95 25.05
Q 42.85 27.5 46.1 31.05 49.1 34.45 50.9 38.15 52.2 40.9 51.7 42.8
M 7.3 36.7
L 7 36.4
Q 10.2 33.55 17.95 38.7 25.55 43.7 25.25 47.2 20.75 46.4 14.8 42.35
L 7.3 36.7
M 14.75 68.35
Q 10.95 67.3 7.9 67.1
L 4.65 66.8
Q 3.75 66.55 3 65.25
L 0.6 60.1 -0.05 59.15 8.25 62.45
Q 11.55 64.2 14.75 68.35
M -17.9 50.25
Q -13 51.75 -10.95 56.05 -10.2 57.55 -10.9 59.5 -11.55 61.45 -13.1 62.2 -14.85 63 -20.35 60.95 -27.85 57.85 -32.45 56.2 -31.7 54.75 -28.2 51.15 -23.05 48.7 -17.9 50.25
M -7.85 70.25
Q -5.15 70.2 -3.95 70.8
L -2.85 73.05 -5.05 74.15 -8.2 72.6 -11.25 70.8
Q -10.45 70.3 -7.85 70.25 Z"/>
</g>

<g id="Parts_Heads_headsMC_31_Layer12_0_FILL">
<path fill="#FECA18" stroke="none" d="
M 19.15 -7
Q 19 -6.7 19.65 -5.5 21.5 -2 24.05 1 29.05 7.05 32.7 5.35
L 37.45 14.4 28.9 9.45
Q 20.35 4.5 13.2 3.15 6.05 1.8 6.1 -1.3
L 4 0.05 4.3 1.05 9.05 5.4
Q 7.9 6.5 6.65 7.1
L 3.6 8.15
Q 1.05 9 0.65 9.2 0.2 9.4 0.2 10.25 0.1 10.95 0.25 11.2 1.25 13.4 4.75 14.5
L 12.05 16.1
Q 22.6 18.5 26.1 25.75
L 29.25 37.9
Q 23.95 35.65 16.55 31.7
L 4.85 25.55
Q -8.35 19 -17.4 19.4
L -17.65 19.75 -17.6 20.45 -14.3 23.8
Q -10.55 27.25 -8.4 28.3
L -7.7 28.65 -10.3 29.9
Q -11.25 30.45 -12 31.8 -11.1 32.75 -2.15 35.95
L -0.85 36.4
Q -5.5 38.05 -12.3 38.3 -18.95 38.55 -21.05 37.4 -22.2 36.75 -27.3 32.5 -29.35 30.8 -32.45 32.3 -34.85 33.45 -33.8 35.55 -33.3 36.6 -30.7 39
L -29.4 40.05 -41.55 41.4
Q -45.5 43 -44.45 45.2
L -42.5 46.95
Q -40.2 48.55 -37.95 48.3
L -37.05 48.25
Q -39.5 49.2 -40.55 52.8 -41.45 55.9 -40.9 57.05
L -39.35 58.65
Q -37.35 59.7 -34.7 57.6
L -34.25 59.2 -33.1 61.25
Q -31.8 63.25 -30.8 63.85
L -30.05 64.5 -32.8 64.65
Q -35.4 64.65 -39.7 66.7 -44.3 68.95 -47.65 71.95 -51.15 75.3 -50.25 77.15 -49.55 78.6 -47.7 78.65 -44.75 78.65 -38.55 75.7
L -29.25 70.15
Q -25.55 68.35 -22.35 70.55 -20.55 71.75 -13.85 78.95 -14 79.45 -15.45 80.15
L -28.35 80.15
Q -31.75 81.85 -30.4 84.7 -28.9 87.85 -17.65 87.1 -15.25 86.95 -9.7 88.65 -4.4 90.25 -1.7 91.85 1.35 93.5 22.2 118.15 45.95 146.3 70.7 146.75 79.95 146.95 90.6 143.2 95.7 141.35 107.7 135.7 118.2 130.7 121.45 124.95 124.65 119.2 121.15 111.9 119.95 109.3 114.5 100.55
L 109.2 92.25
Q 105.8 85.1 102.35 74.35
L 93.55 46.05
Q 90.75 37.5 93.35 29.25 94.3 26.25 100.7 13.45 103.7 7.5 119.5 -9.85 136.8 -28.85 138.25 -30.95 137.2 -31.55 136.6 -31.55 135.15 -31.75 132.9 -30.65 131.5 -30 129.25 -27.55 125.45 -23.55 115.25 -15.9
L 118.6 -23
Q 120 -26.55 119.65 -29.2
L 118.95 -30 116.1 -28.95
Q 112.95 -27.45 100.65 -6.5 83.2 23.1 78.55 30.05
L 78 31.05
Q 77.1 27.9 80.8 16.2 84.55 4.5 89.6 -5.35
L 98.65 -22.6
Q 101.25 -28.2 100.05 -30.6 98.8 -33.3 95.55 -31.8 90.85 -29.5 85.65 -15.95 80.8 -3.35 73.2 25.2
L 66.05 -14.1
Q 64.05 -23.6 62.65 -26.55 60.4 -31.3 58.65 -30.5 56 -29.25 54.85 -21.9 53.65 -14.25 53.95 1.8 46.1 -4 39.1 -7.4 27 -13.25 19.5 -10.8 19.3 -10.05 19.6 -9.05
L 20.3 -7.75 19.15 -7
M 89.2 49.75
Q 91.65 56.9 94 69.65
L 97.2 86.8 108.1 102.05
Q 113.1 112.55 107.1 119.85 103.35 124.4 92.55 129.5 85.1 133.05 82 134.15
L 81.8 133.65 81.75 133.6
Q 77.45 135.35 70.2 134.65 62.35 133.9 54.3 130.35 33.8 121.45 24.3 101.4 24.1 101.05 24.15 100.2 27.25 101.5 29.2 100.6 34.35 98.15 31.65 91.35 28.55 85.65 27.35 83
L 28.05 82.35 33.75 86.05
Q 37.85 88.7 41.05 89.7
L 44.45 88.1
Q 46.35 85.35 44.95 81.35
L 42.6 75.05
Q 46.6 74 53.4 75.1
L 62.3 75.5
Q 64.5 74.8 66.05 71.35 67.55 67.8 66.15 66.4 64.75 64.9 63.5 62.85
L 62.55 61.2 63.55 59.55
Q 65.4 59.65 71.3 61.7 77.15 63.75 80.2 63.75 83.25 63.75 83.15 56.85 83.1 49.95 83.95 48.5 88.55 48.3 89.2 49.75
M 46.1 31.05
Q 49.1 34.45 50.9 38.15 52.2 40.9 51.7 42.8 51.4 44.1 50.5 44.55 48.05 45.65 44.15 41.7 40.15 37.65 32.35 26.3
L 28.9 21.2
Q 27.35 18.25 31.2 20.4
L 38.95 25.05
Q 42.85 27.5 46.1 31.05
M 14.8 42.35
L 7.3 36.7 7 36.4
Q 10.2 33.55 17.95 38.7 25.55 43.7 25.25 47.2 20.75 46.4 14.8 42.35
M 4.65 66.8
Q 3.75 66.55 3 65.25
L 0.6 60.1 -0.05 59.15 8.25 62.45
Q 11.55 64.2 14.75 68.35 10.95 67.3 7.9 67.1
L 4.65 66.8
M -17.9 50.25
Q -13 51.75 -10.95 56.05 -10.2 57.55 -10.9 59.5 -11.55 61.45 -13.1 62.2 -14.85 63 -20.35 60.95 -27.85 57.85 -32.45 56.2 -31.7 54.75 -28.2 51.15 -23.05 48.7 -17.9 50.25
M -2.85 73.05
L -5.05 74.15 -11.25 70.8
Q -10.45 70.3 -7.85 70.25 -5.15 70.2 -3.95 70.8
L -2.85 73.05 Z"/>
</g>

<g id="Graphics_Symbol_846_0_Layer1_0_FILL">
<path fill="#000000" stroke="none" d="
M 18.2 -10.75
Q 16.45 -9.9 17.55 -7.65 18.35 -5.95 37.2 14.7 34.05 11.7 19.65 5.3 5.2 -1.15 3.3 -1.35 3 -0.45 3.05 0.7 3.15 1.75 3.55 2.65
L 4.75 4.25 6.55 6.1
Q 0.25 8.5 -0.35 9 -1.9 10.05 -0.75 12.5 0.45 14.95 4.95 14.95
L 13.85 15.65
Q 17.5 16.65 22.9 23.7 27.25 29.4 29.65 34.4 30.35 35.8 30.65 37.9
L 0.4 23.95
Q -15.2 17.2 -17.85 18.45
L -18.55 19 -18.75 19.2 -18.45 20.35 -15.7 23.9
Q -12.5 27.35 -9.85 27.55 -12.5 28.85 -12.95 30.3 -13.3 31.25 -12.55 32.8 -11.7 34.65 -8.55 35.65
L -4.3 36.65 -5.5 36.7
Q -7.6 36.95 -14.7 38.65 -18.85 39.65 -20.85 38.55 -26.9 34.25 -30.25 32.6 -36.75 29.4 -32.85 37.65
L -31.3 40.7 -39.95 41.05
Q -42.5 41.65 -43.9 42.3 -46.8 43.65 -45.55 46.25 -44.2 49.05 -42.8 49.45 -41.3 49.95 -37.6 48.65
L -39.05 49.8
Q -42.25 50.95 -43.05 54.4 -43.6 56.95 -42.9 58.35
L -42.1 59.6
Q -40.75 60.4 -38.1 59.15 -36.9 58.6 -34.5 55.75 -32.05 52.8 -28.6 51.2 -25.6 49.8 -19.75 51.3 -12.85 53.1 -10.4 58.2 -10.05 59.05 -9.8 61.1
L -18.2 61.6
Q -22.45 61.65 -23.45 60.75 -25.8 58.75 -28.6 57.45 -32.2 55.9 -34.55 57 -36.35 57.85 -34.75 61.2
L -34.2 61.6
Q -33.55 62 -32 64.1 -46.05 70.8 -49.3 73.95 -50.45 75.05 -50.35 75.85 -50.3 76.3 -49.85 76.8 -48.45 79.85 -44.95 78.1
L -36.9 73.35
Q -24 66.6 -12.65 79.95 -14.9 78.2 -17.6 78.15 -21.8 78 -29.2 81.5 -30.4 82.05 -31.05 82.9 -31.8 83.85 -31.35 84.75 -29.8 88.1 -20.45 88.65
L -5.9 89.3
Q -3.6 89.65 4.2 97.35 11.85 104.95 13.45 108.35 27.35 136.35 45.7 145.05 70.95 157.1 110.7 138.25 121.75 133 124.5 127.9 128.05 121.45 122.75 110.3 122.15 109.05 116 99.5 109.8 90.05 108.3 86.9 103.35 76.5 100.7 65.3 98.6 54.2 97.45 50.1
L 94.35 37.3
Q 93.55 33.9 94 32.1
L 96.35 25.3
Q 102.3 5.8 122.65 -12.4
L 134.95 -23.05
Q 139.8 -27.55 138.8 -29.65 137.2 -33.1 131.95 -30.6 129.75 -29.55 125.8 -26.35 121.2 -22.6 115.7 -17.1 120.25 -23.05 121.15 -27.15 121.65 -29.3 121.1 -30.45 120.8 -31.1 119.3 -31.5 111.1 -28.45 98.9 -10.15 88.75 5.05 80.9 22.6 88 -7.5 97.25 -20.6
L 101.7 -26.3
Q 102.8 -28.1 101.65 -30.55 100.95 -31.95 99.95 -32.4
L 97.95 -32.35
Q 90.9 -29 84.65 -16.55 77.3 -1.75 72.45 23.85
L 66.8 -8.1
Q 63.25 -27.4 62.7 -28.45 60.95 -32.15 58.05 -30.8 57.25 -30.4 55.65 -26 53.95 -21.25 52.8 -15.9 49.6 -1 54.2 3.2
L 40.75 -7.55
Q 37.05 -10.45 32.05 -11.3 27.4 -12.15 22.4 -11.5
L 18.2 -10.75
M 58.35 -27.95
L 60.1 -28.5 61.1 -26.4 71.65 33.25 72.25 34.25 73.25 33.95
Q 73.85 32.9 75.1 23.65 76.7 11.75 78.25 4.45 84.4 -23.15 98.55 -29.9
L 99.25 -30.15 99.35 -29.95
Q 89.75 -15.6 83.9 0.25 80.6 9.55 79.5 15.9
L 76.4 33
Q 75.25 39.75 75.75 40.75 76.15 41.6 76.65 41.7
L 76.55 41.8 77.15 41.6 79.1 35.45
Q 81.65 27.55 85.1 19.9 96.9 -6.15 118.85 -28.6 103.55 -7.85 104.75 -5.25
L 105.45 -4.15 105.65 -4.15
Q 106 -4.15 106.45 -4.45
L 115 -14.1
Q 124.7 -24.4 132.8 -28.25 134.35 -29 135.1 -28.85
L 136.65 -28.65
Q 134.1 -27.75 126.9 -21.4 118.8 -14.25 111.3 -5.65 90.6 18.05 91.2 33.35
L 90.15 36.6
Q 89.15 39.25 89.7 42.35
L 92.1 51.8 94.5 59.95
Q 101.25 79.45 103.95 88.75 104.75 90.5 110.8 99.8
L 117.35 110.25
Q 121.15 118.4 118.45 124.45 116.15 129.8 108.6 133.4 93.15 140.75 80 143.65 66.8 146.5 53.1 140.5 39.4 134.5 33.25 126.75 27.4 117.35 19.65 108.5
L 14.35 102.3
Q 9.85 97.2 5 93.55 -9.7 82.65 -28.05 84
L -26.1 83
Q -16.35 78.35 -2.25 86.35 5.2 90.55 14.55 98.1
L 15.65 96.8
Q 15.8 96.8 15.35 95.95 15.15 95.4 -3.55 81.7 -3.7 81.45 -6.45 80.1 -10.6 78 -17.15 72.7 -23.4 67.55 -23.7 67.7
L -23.8 68.3
Q -23.75 68.85 -24.2 69.1
L -32.25 71.05
Q -33.9 71.5 -40.75 74.5 -45.55 76.5 -47.7 75.75
L -47.55 74.55 -45.35 73.35 -39.35 70.75
Q -34.65 68.9 -32.2 68.4
L -27.4 66.1
Q -27.4 65.65 -27.75 64.8
L -32.7 60 -31.45 58.6 -31.3 58.7 -27.5 61.65 -23.05 64.65
Q -22.75 64.7 -21.35 64.15 -20.05 63.6 -18.55 63.75
L -13.55 64.35
Q -9.85 64.6 -7.75 63.6 -7.05 63.25 -6.95 62.05 -6.8 60.25 -8.35 57.15 -9.85 53.9 -15.9 50.4 -23.65 45.95 -29.6 48.8 -33.15 50.45 -36.75 54.05
L -39.65 57.35 -40.25 57.55 -40.15 57.35 -40.4 57.05
Q -40.4 55.55 -36.9 52 -33.5 48.6 -33.65 46.9 -34.35 46.35 -38.3 46.05 -42.3 45.8 -43.6 44.75
L -42.65 44.65 -30.6 43.75
Q -27.6 43.65 -26.4 43.05 -25.5 42.65 -25.5 42.3
L -25.9 41.2
Q -26.15 40.65 -28.85 39.45
L -31.95 37.7
Q -32.5 36.45 -32 35.35
L -31.25 34.2
Q -30.7 34.25 -27.4 37.3 -23.9 40.4 -21.7 41.2
L -10.65 40.4
Q -0.55 38.9 5.9 40.45 13.1 42.1 29.1 51.95 41.8 59.85 46.35 63.55
L 51.9 68.9
Q 53.25 70.25 54.8 69.55
L 55.35 69
Q 55.8 68.35 55.45 67.7 54.75 66.15 38.95 52.95 21.45 38.4 15 36.6 7.05 34.35 -0.5 33.5 -6.65 32.75 -10.75 31.1 -8.5 30.25 -5.75 29.8 -3.2 29.4 -2.3 29 -1.8 28.75 -1.8 28.45
L -1.65 27.1
Q -6 26.5 -10.2 24.8 -13.5 23.5 -13.75 22.95
L -14.35 21.35
Q 12.5 33.4 19 36.4 30.8 41.8 33.85 43.75 35.6 41.35 35.4 40.95 35.25 40.55 34.55 40.25 33.9 39.95 33.7 39.5
L 32.6 36.2 31.6 32.8
Q 25.95 21.05 16.4 15.4 8.55 10.65 1.4 11.45
L 1.45 10.7 3.05 9.9
Q 5.95 8.5 7.1 8.5
L 8.8 8.45 9.9 7.7 9.3 5.9 7.4 3.5 5.5 1.25 7.1 2.3
Q 24.75 11.8 35.75 18.15
L 42.75 22.25
Q 43.6 21.8 43.65 21.2
L 44.45 22.3 43.7 20.8
Q 41.65 16.35 38.65 12.75
L 20.5 -8.1
Q 35.1 -3.5 51 23.7
L 61.3 42.2
Q 66.15 50.35 68.65 51.25
L 68.65 51.1 66.9 46.25 65.3 41.9
Q 58 26.55 44.3 9.4 33.35 -4.3 28 -8.2 39.6 -6.9 46.85 -0.2 51.15 3.75 58.4 13.75 58.3 11.1 56.8 -0.3
L 55 -12.4
Q 56.85 -7.7 57.25 -7.3
L 58.45 -7.3 60.85 -9.2 60.6 -9.75
Q 57.6 -14 56.1 -17.85 53.15 -25.35 58.35 -27.95
M 5.8 37.3
L 13.35 38.5
Q 21.85 40.65 27.85 47.15 16.1 39.45 5.8 37.3
M -21.05 44.75
Q -21.3 44.25 -21.85 44.1
L -22.95 44.15 -23.65 44.95
Q -23.9 45.5 -23.6 46
L -22.8 46.7 -21.75 46.6
Q -21.25 46.4 -21 45.85 -20.8 45.3 -21.05 44.75
M 12.5 86.55
Q 10.2 81.7 6.05 78.25 -0.3 72.85 -1.75 71.15 -4.75 67.8 -9.8 66.6 -14.85 65.45 -18.8 67 -17.45 69.75 -10.7 72.7 -2.55 76.35 -0.55 78 4.45 82.2 9.35 86.75 12.05 89.3 12.45 89.2
L 13.25 88.35 12.5 86.55
M -6.85 68.7
L -3.8 73.3 -11.75 70.25 -6.85 68.7
M 19.55 68.85
L 11.25 61.35
Q 1 53.1 -6.1 56.3 -3.95 59.95 -2.5 61.15 -1.45 62.1 -1.2 62.75
L -2.4 65.1
Q 3.35 67.5 13.95 72.85 22.7 76.85 27.2 75.8
L 27.15 75.5
Q 24.65 73.65 19.55 68.85
M 14.15 67.9
Q 11.35 67.1 6.05 64.05 1.2 61.25 -0.2 60 6.1 59.95 8.25 61.7 9.85 62.9 14.15 67.9
M 11.8 73.6
Q 6.8 69.8 0.7 68.7 5.15 75 10.5 79.4 16.1 84 19.2 83.45
L 18.45 81.4
Q 16.4 77.1 11.8 73.6
M 38.7 68.8
Q 37.2 65.7 30.15 60.95 23.4 56.35 14.5 52.15 -7.15 41.95 -15.2 44.9
L -14.7 45.8
Q -13.15 47.4 -0.5 51.75
L 12.05 55.85
Q 19.55 58.2 28 66.55 31.45 69.95 33.1 70.85 35.7 72.3 38.2 71.05 39.5 70.5 38.7 68.8
M 58.2 49.4
Q 57.1 45.6 55.95 43.25 51.7 34.3 43.25 26.6 33.5 17.6 21.1 13.55 20.7 14.5 21.1 15.35 36.15 33.55 39.35 37.9
L 41.55 41.2
Q 43.95 44.65 46.25 47.25 53.65 55.5 59.3 53.7
L 58.2 49.4
M 50.3 38.45
Q 50.7 39.2 50.4 40.35 50.05 41.55 50.15 42.05 43.9 42.95 36.75 32.25 30.35 20.55 29.15 19
L 30.3 19.15
Q 36.75 21.35 44.15 30.05 47.9 34.5 50.3 38.45
M 93.75 77.7
Q 92.95 75.5 86.5 71.1 79.4 66.35 74.7 68.55 71.1 70.35 69.05 74.85 67.25 78.7 67.2 83.4 67.15 87.9 68.6 90.45 70.1 93.25 72.7 92.05 70.7 77.45 76.6 74.75 82.6 71.95 87.1 77.7 91.6 83.4 93.1 81.65 94.6 79.85 93.75 77.7 Z"/>
</g>

<g id="Graphics_Symbol_846_0_Layer0_0_FILL">
<path fill="#FFFFFF" fill-opacity="0.25098039215686274" stroke="none" d="
M 17.65 93
L 17.05 92.2
Q 13.15 84.1 -7.6 73.95 -15.9 69.9 -22.9 67.6
L -22.85 67.65
Q -29.75 65.4 -31.45 66.1
L -32.2 66.65 -31.95 67.4
Q -30.95 68.45 -27.55 70.1
L -7.6 78.2 -7.65 78.2 4.1 87.7
Q 13.55 95.6 16.15 94.5
L 16.85 93.85
Q 17.1 93.25 17.65 93
M 38.3 62.4
Q 39.05 61.4 38.65 60.4 36.35 55.65 28.95 50.8 21.1 45.65 11.05 42.75 -11.55 36.15 -29.6 44 -5.05 38.45 16.65 50.5 21.85 53.35 30.7 59.9 35.95 63.8 37.25 63.4
L 38.3 62.4
M 42.5 46.55
L 42.6 46.8 42.45 47.15 42.15 47.3 41.85 47.25
Q 19.1 33.9 6.05 30 -3 27.2 -7.05 29.05 -8.5 29.7 -9.05 31.9 -9.65 33.8 -9.2 34.85
L -5.9 35 -5.85 35
Q -1.15 35.6 4.45 37.15 22.4 42.1 42.05 54.75
L 49.05 59.35
Q 54 61.8 57.7 60.05
L 58.25 59.45 59 58.6 58.4 57.8
Q 57.95 57 44.85 49
L 44.6 48.75 44.6 48.5 44.7 48.25 45.45 46.7 45.5 46.7
Q 45.3 45.65 42.7 40.25 36.7 27.6 25.65 15.35 16.6 5.35 13.65 4.6
L 13.85 5.45 13.85 5.4
Q 14.15 6.7 14.4 7.25 15.05 8.65 21.6 16.3
L 29.5 25.6 33.35 32.25
Q 37.4 39.4 42.5 46.55
M 88.1 93.05
Q 87.2 91.1 84.65 90.6 82.05 90.15 79.4 91.35 76.75 92.65 75.5 94.95 74.35 97.25 75.25 99.2 76.15 101.15 78.65 101.6 81.3 102.1 83.95 100.85 86.6 99.6 87.8 97.25 89 95 88.1 93.05
M 106.05 -6.7
Q 106.75 -9.3 106.5 -10.65 103.25 -4.15 98.2 4.5 92.6 13.8 90.3 17.95 82.7 31.4 84.7 35.95
L 85.8 37.3 87.5 37.35
Q 90.75 35.8 95.55 22.75
L 103.15 1.15
Q 105.35 -4.15 106.05 -6.7
M 63.5 -4.05
Q 62.65 -14.7 62.25 -22.3
L 61.75 -23.15 61.65 -23.2 59.8 -23.05
Q 55.25 -20.8 56.85 -1.65 58.35 18.1 64.85 31.7
L 66.35 33.85
Q 67.6 35.45 68.95 36.2 64.9 17.2 63.5 -4.05
M 22.45 -6.75
Q 21.75 -6 23.4 -2.6
L 38.9 19.25
Q 54.8 41.85 60.6 53.05
L 60.75 53.1 62.65 52.45 64.1 51.4 64.15 50.5
Q 64.1 50.25 64.2 50.15
L 63.9 49.55 56 36.05
Q 48.2 23.05 45.1 18.85
L 39.65 10.85 34.6 3.4 34.55 3.35
Q 31.1 -2.35 25.2 -5.85 23 -7.2 22.45 -6.75 Z"/>
</g>
</defs>

<g transform="matrix( 1, 0, 0, 1, -62.75,-76.85) ">
<g transform="matrix( 1, 0, 0, 1, 0,0) ">
<use xlink:href="#Parts_Heads_headColorMC_31_Layer1_0_FILL"/>
</g>
</g>

<g transform="matrix( 1, 0, 0, 1, -62.75,-76.85) ">
<g transform="matrix( 1, 0, 0, 1, 0,0) ">
<use xlink:href="#Parts_Heads_headColorMC2_31_Layer3_0_FILL"/>
</g>
</g>

<g transform="matrix( 1, 0, 0, 1, -62.75,-76.85) ">
<g transform="matrix( 1, 0, 0, 1, 0,0) ">
<use xlink:href="#Parts_Heads_headsMC_31_Layer12_0_FILL"/>
</g>

<g transform="matrix( 1, 0, 0, 1, 0,0) ">
<g transform="matrix( 1, 0, 0, 1, 0,0) ">
<use xlink:href="#Graphics_Symbol_846_0_Layer1_0_FILL"/>
</g>

<g transform="matrix( 1, 0, 0, 1, 0,0) ">
<use xlink:href="#Graphics_Symbol_846_0_Layer0_0_FILL"/>
</g>
</g>

<g id="hat1" transform="matrix( 0.983917236328125, -0.17529296875, 0.17529296875, 0.983917236328125, 45.2,78.25) ">
<g id="colorMC" transform="matrix( 0.9999847412109375, 0, 0, 0.9999847412109375, 0,0) "/>

<g id="colorMC2" transform="matrix( 1, 0, 0, 1, 0,0) "/>
</g>

<g id="hat2" transform="matrix( 0.9733734130859375, -0.2247314453125, 0.2247314453125, 0.9733734130859375, 38,60.6) ">
<g id="colorMC_FL" transform="matrix( 0.9999847412109375, 0, 0, 0.9999847412109375, 0,0) "/>

<g id="colorMC2_FL" transform="matrix( 1, 0, 0, 1, 0,0) "/>
</g>

<g id="hat3" transform="matrix( 0.96026611328125, -0.2753753662109375, 0.2753753662109375, 0.96026611328125, 26,48.4) ">
<g id="colorMC_FL_FL" transform="matrix( 0.9999847412109375, 0, 0, 0.9999847412109375, 0,0) "/>

<g id="colorMC2_FL_FL" transform="matrix( 1, 0, 0, 1, 0,0) "/>
</g>

<g id="hat4" transform="matrix( 0.944580078125, -0.3252410888671875, 0.3252410888671875, 0.944580078125, 18.85,34.5) ">
<g id="colorMC_FL_FL_FL" transform="matrix( 0.9999847412109375, 0, 0, 0.9999847412109375, 0,0) "/>

<g id="colorMC2_FL_FL_FL" transform="matrix( 1, 0, 0, 1, 0,0) "/>
</g>
</g>
</svg>
