
<svg xmlns="http://www.w3.org/2000/svg" version="1.1" xmlns:xlink="http://www.w3.org/1999/xlink" preserveAspectRatio="none" x="0px" y="0px" width="550px" height="400px" viewBox="0 0 550 400">
<defs>
<g id="Parts_Heads_headColorMC_31_Layer1_0_FILL">
<path fill="#FEE325" stroke="none" d="
M 60.1 -28.5
L 58.35 -27.95
Q 53.15 -25.35 56.1 -17.85 57.6 -14 60.6 -9.75
L 60.85 -9.2 58.45 -7.3 57.25 -7.3
Q 56.85 -7.7 55 -12.4
L 56.8 -0.3
Q 58.3 11.1 58.4 13.75 51.15 3.75 46.85 -0.2 39.6 -6.9 28 -8.2 33.35 -4.3 44.3 9.4 58 26.55 65.3 41.9
L 68.65 51.1 68.65 51.25
Q 66.15 50.35 61.3 42.2
L 51 23.7
Q 35.1 -3.5 20.5 -8.1
L 38.65 12.75
Q 41.65 16.35 43.7 20.8
L 44.45 22.3 43.65 21.2
Q 43.6 21.8 42.75 22.25
L 35.75 18.15
Q 24.75 11.8 7.1 2.3
L 5.5 1.25 9.3 5.9 9.9 7.7 8.8 8.45 7.1 8.5
Q 5.95 8.5 3.05 9.9
L 1.45 10.7 1.4 11.45
Q 8.55 10.65 16.4 15.4 25.95 21.05 31.6 32.8
L 33.7 39.5
Q 33.9 39.95 34.55 40.25 35.25 40.55 35.4 40.95 35.6 41.35 33.85 43.75 30.8 41.8 19 36.4 12.5 33.4 -14.35 21.35
L -13.75 22.95
Q -13.5 23.5 -10.2 24.8 -6 26.5 -1.65 27.1
L -1.8 28.45
Q -1.8 28.75 -2.3 29 -3.2 29.4 -5.75 29.8 -8.5 30.25 -10.75 31.1 -6.65 32.75 -0.5 33.5 7.05 34.35 15 36.6 21.45 38.4 38.95 52.95 54.75 66.15 55.45 67.7 55.8 68.35 55.35 69
L 54.8 69.55
Q 53.25 70.25 51.9 68.9
L 46.35 63.55
Q 41.8 59.85 29.1 51.95 13.1 42.1 5.9 40.45 -0.55 38.9 -10.65 40.4
L -21.7 41.2
Q -23.9 40.4 -27.4 37.3 -30.7 34.25 -31.25 34.2
L -32 35.35
Q -32.5 36.45 -31.95 37.7
L -28.85 39.45
Q -26.15 40.65 -25.9 41.2
L -25.5 42.3
Q -25.5 42.65 -26.4 43.05 -27.6 43.65 -30.6 43.75
L -43.6 44.75
Q -42.3 45.8 -38.3 46.05 -34.35 46.35 -33.65 46.9 -33.5 48.6 -36.9 52 -40.4 55.55 -40.4 57.05
L -40.15 57.35 -40.25 57.55 -39.65 57.35 -36.75 54.05
Q -33.15 50.45 -29.6 48.8 -23.65 45.95 -15.9 50.4 -9.85 53.9 -8.35 57.15 -6.8 60.25 -6.95 62.05 -7.05 63.25 -7.75 63.6 -9.85 64.6 -13.55 64.35
L -18.55 63.75
Q -20.05 63.6 -21.35 64.15 -22.75 64.7 -23.05 64.65
L -31.45 58.6 -32.7 60 -27.75 64.8
Q -27.4 65.65 -27.4 66.1
L -32.2 68.4
Q -34.65 68.9 -39.35 70.75
L -45.35 73.35 -47.55 74.55 -47.7 75.75
Q -45.55 76.5 -40.75 74.5 -33.9 71.5 -32.25 71.05
L -24.2 69.1
Q -23.75 68.85 -23.8 68.3
L -23.7 67.7
Q -23.4 67.55 -17.15 72.7 -10.6 78 -6.45 80.1 -3.7 81.45 -3.55 81.7 15.15 95.4 15.35 95.95 15.8 96.8 15.65 96.8
L 14.55 98.1
Q 5.2 90.55 -2.25 86.35 -16.35 78.35 -26.1 83
L -28.05 84
Q -9.7 82.65 5 93.55 9.85 97.2 14.35 102.3
L 19.65 108.5
Q 27.4 117.35 33.25 126.75 39.4 134.5 53.1 140.5 66.8 146.5 80 143.65 93.15 140.75 108.6 133.4 116.15 129.8 118.45 124.45 121.15 118.4 117.35 110.25
L 110.8 99.8
Q 104.75 90.5 103.95 88.75 101.25 79.45 94.5 59.95
L 89.7 42.35
Q 89.15 39.25 90.15 36.6
L 91.2 33.35
Q 90.6 18.05 111.3 -5.65 118.8 -14.25 126.9 -21.4 134.1 -27.75 136.65 -28.65
L 135.1 -28.85
Q 134.35 -29 132.8 -28.25 124.7 -24.4 115 -14.1
L 106.45 -4.45
Q 106 -4.15 105.65 -4.15
L 105.45 -4.15 104.75 -5.25
Q 103.55 -7.85 118.85 -28.6 96.9 -6.15 85.1 19.9 81.65 27.55 79.1 35.45
L 77.15 41.6 76.55 41.8 76.65 41.7
Q 76.15 41.6 75.75 40.75 75.25 39.75 76.4 33
L 79.5 15.9
Q 80.6 9.55 83.9 0.25 89.75 -15.6 99.35 -29.95
L 99.25 -30.15 98.55 -29.9
Q 84.4 -23.15 78.25 4.45 76.7 11.75 75.1 23.65 73.85 32.9 73.25 33.95
L 72.25 34.25 71.65 33.25 61.1 -26.4 60.1 -28.5
M 46.25 47.25
Q 43.95 44.65 41.55 41.2
L 39.35 37.9
Q 36.15 33.55 21.1 15.35 20.7 14.5 21.1 13.55 33.5 17.6 43.25 26.6 51.7 34.3 55.95 43.25 57.1 45.6 58.2 49.4
L 59.3 53.7
Q 53.65 55.5 46.25 47.25
M 30.15 60.95
Q 37.2 65.7 38.7 68.8 39.5 70.5 38.2 71.05 35.7 72.3 33.1 70.85 31.45 69.95 28 66.55 19.55 58.2 12.05 55.85
L -0.5 51.75
Q -13.15 47.4 -14.7 45.8
L -15.2 44.9
Q -7.15 41.95 14.5 52.15 23.4 56.35 30.15 60.95
M 0.7 68.7
Q 6.8 69.8 11.8 73.6 16.4 77.1 18.45 81.4
L 19.2 83.45
Q 16.1 84 10.5 79.4 5.15 75 0.7 68.7
M 11.25 61.35
L 19.55 68.85
Q 24.65 73.65 27.15 75.5
L 27.2 75.8
Q 22.7 76.85 13.95 72.85 3.35 67.5 -2.4 65.1
L -1.2 62.75
Q -1.45 62.1 -2.5 61.15 -3.95 59.95 -6.1 56.3 1 53.1 11.25 61.35
M 6.05 78.25
Q 10.2 81.7 12.5 86.55
L 13.25 88.35 12.45 89.2
Q 12.05 89.3 9.35 86.75 4.45 82.2 -0.55 78 -2.55 76.35 -10.7 72.7 -17.45 69.75 -18.8 67 -14.85 65.45 -9.8 66.6 -4.75 67.8 -1.75 71.15 -0.3 72.85 6.05 78.25 Z"/>
</g>
</defs>

<g transform="matrix( 1, 0, 0, 1, -75.4,-101.9) ">
<g transform="matrix( 1, 0, 0, 1, 0,0) ">
<use xlink:href="#Parts_Heads_headColorMC_31_Layer1_0_FILL"/>
</g>
</g>
</svg>
