
<svg xmlns="http://www.w3.org/2000/svg" version="1.1" xmlns:xlink="http://www.w3.org/1999/xlink" preserveAspectRatio="none" x="0px" y="0px" width="550px" height="400px" viewBox="0 0 550 400">
<defs>
<g id="Parts_Heads_headColorMC2_31_Layer3_0_FILL">
<path fill="#836E0F" stroke="none" d="
M 19.6 -9.05
L 20.3 -7.75 19.15 -7
Q 19 -6.7 19.65 -5.5 21.5 -2 24.05 1 29.05 7.05 32.7 5.35
L 37.45 14.4 28.9 9.45
Q 20.35 4.5 13.2 3.15 6.05 1.8 6.1 -1.3
L 4 0.05 4.3 1.05 9.05 5.4
Q 7.9 6.5 6.65 7.1
L 3.6 8.15
Q 1.05 9 0.65 9.2 0.2 9.4 0.2 10.25 0.1 10.95 0.25 11.2 1.25 13.4 4.75 14.5
L 12.05 16.1
Q 22.6 18.5 26.1 25.75
L 29.25 37.9
Q 23.95 35.65 16.55 31.7
L 4.85 25.55
Q -8.35 19 -17.4 19.4
L -17.65 19.75 -17.6 20.45 -14.3 23.8
Q -10.55 27.25 -8.4 28.3
L -7.7 28.65 -10.3 29.9
Q -11.25 30.45 -12 31.8 -11.1 32.75 -2.15 35.95
L -0.85 36.4
Q -5.5 38.05 -12.3 38.3 -18.95 38.55 -21.05 37.4 -22.2 36.75 -27.3 32.5 -29.35 30.8 -32.45 32.3 -34.85 33.45 -33.8 35.55 -33.3 36.6 -30.7 39
L -29.4 40.05 -41.55 41.4
Q -45.5 43 -44.45 45.2
L -42.5 46.95
Q -40.2 48.55 -37.95 48.3
L -37.05 48.25
Q -39.5 49.2 -40.55 52.8 -41.45 55.9 -40.9 57.05
L -39.35 58.65
Q -37.35 59.7 -34.7 57.6
L -34.25 59.2 -33.1 61.25
Q -31.8 63.25 -30.8 63.85
L -30.05 64.5 -32.8 64.65
Q -35.4 64.65 -39.7 66.7 -44.3 68.95 -47.65 71.95 -51.15 75.3 -50.25 77.15 -49.55 78.6 -47.7 78.65 -44.75 78.65 -38.55 75.7
L -29.25 70.15
Q -25.55 68.35 -22.35 70.55 -20.55 71.75 -13.85 78.95 -14 79.45 -15.45 80.15
L -28.35 80.15
Q -31.75 81.85 -30.4 84.7 -28.9 87.85 -17.65 87.1 -15.25 86.95 -9.7 88.65 -4.4 90.25 -1.7 91.85 1.35 93.5 22.2 118.15 45.95 146.3 70.7 146.75 79.95 146.95 90.6 143.2 95.7 141.35 107.7 135.7 118.2 130.7 121.45 124.95 124.65 119.2 121.15 111.9 119.95 109.3 114.5 100.55
L 109.2 92.25
Q 105.8 85.1 102.35 74.35
L 93.55 46.05
Q 90.75 37.5 93.35 29.25 94.3 26.25 100.7 13.45 103.7 7.5 119.5 -9.85 136.8 -28.85 138.25 -30.95 137.2 -31.55 136.6 -31.55 135.15 -31.75 132.9 -30.65 131.5 -30 129.25 -27.55 125.45 -23.55 115.25 -15.9
L 118.6 -23
Q 120 -26.55 119.65 -29.2
L 118.95 -30 114.45 -28.4
Q 111.95 -27.45 96.1 -2.15 80.2 23.1 78.55 30.05
L 78 31.05
Q 77.1 27.9 80.8 16.2 84.55 4.5 89.6 -5.35
L 98.65 -22.6
Q 101.25 -28.2 100.05 -30.6 98.8 -33.3 94.8 -31.35 90.8 -29.4 84.35 -14.4 77.85 0.55 73.2 25.2
L 66.05 -14.1
Q 64.05 -23.6 62.65 -26.55 60.4 -31.3 58.65 -30.5 56 -29.25 54.85 -21.9 53.65 -14.25 53.95 1.8 46.1 -4 39.1 -7.4 27 -13.25 19.5 -10.8 19.3 -10.05 19.6 -9.05
M 89.2 49.75
Q 91.65 56.9 94 69.65
L 97.2 86.8 108.1 102.05
Q 113.1 112.55 107.1 119.85 103.35 124.4 92.55 129.5 85.1 133.05 82 134.15
L 81.8 133.65 81.75 133.6
Q 77.45 135.35 70.2 134.65 62.35 133.9 54.3 130.35 33.8 121.45 24.3 101.4 24.1 101.05 24.15 100.2 27.25 101.5 29.2 100.6 34.35 98.15 31.65 91.35 28.55 85.65 27.35 83
L 28.05 82.35 33.75 86.05
Q 37.85 88.7 41.05 89.7
L 44.45 88.1
Q 46.35 85.35 44.95 81.35
L 42.6 75.05
Q 46.6 74 53.4 75.1
L 62.3 75.5
Q 64.5 74.8 66.05 71.35 67.55 67.8 66.15 66.4 64.75 64.9 63.5 62.85
L 62.55 61.2 63.55 59.55
Q 65.4 59.65 71.3 61.7 77.15 63.75 80.2 63.75 83.25 63.75 83.15 56.85 83.1 49.95 83.95 48.5 88.55 48.3 89.2 49.75
M 51.7 42.8
Q 51.4 44.1 50.5 44.55 48.05 45.65 44.15 41.7 40.15 37.65 32.35 26.3
L 28.9 21.2
Q 27.35 18.25 31.2 20.4
L 38.95 25.05
Q 42.85 27.5 46.1 31.05 49.1 34.45 50.9 38.15 52.2 40.9 51.7 42.8
M 7.3 36.7
L 7 36.4
Q 10.2 33.55 17.95 38.7 25.55 43.7 25.25 47.2 20.75 46.4 14.8 42.35
L 7.3 36.7
M 14.75 68.35
Q 10.95 67.3 7.9 67.1
L 4.65 66.8
Q 3.75 66.55 3 65.25
L 0.6 60.1 -0.05 59.15 8.25 62.45
Q 11.55 64.2 14.75 68.35
M -10.95 56.05
Q -10.2 57.55 -10.9 59.5 -11.55 61.45 -13.1 62.2 -14.85 63 -20.35 60.95 -27.85 57.85 -32.45 56.2 -31.7 54.75 -28.2 51.15 -23.05 48.7 -17.9 50.25 -13 51.75 -10.95 56.05
M -2.85 73.05
L -5.05 74.15 -11.25 70.8
Q -10.45 70.3 -7.85 70.25 -5.15 70.2 -3.95 70.8
L -2.85 73.05 Z"/>
</g>
</defs>

<g transform="matrix( 1, 0, 0, 1, -62.75,-76.85) ">
<g transform="matrix( 1, 0, 0, 1, 0,0) ">
<use xlink:href="#Parts_Heads_headColorMC2_31_Layer3_0_FILL"/>
</g>
</g>
</svg>
