
<svg xmlns="http://www.w3.org/2000/svg" version="1.1" xmlns:xlink="http://www.w3.org/1999/xlink" preserveAspectRatio="none" x="0px" y="0px" width="550px" height="400px" viewBox="0 0 550 400">
<defs>
<g id="Layer0_0_FILL">
<path fill="#010265" fill-opacity="0.25098039215686274" stroke="none" d="
M 107.85 77.2
Q 99.5 69.7 90.85 63.35 82.15 56.95 60.1 56.95 42.55 56.95 29.95 69.55 18.45 81.1 18.45 94.45 18.45 105 24.3 118.05 29.15 129 34.45 134.7 50.5 138.3 63.1 138 80.95 137.6 91.5 133.15 102.05 128.6 100.9 125.95 99.75 123.3 95.9 121.45 92.05 119.6 89.9 119.6 84.5 119.6 77.1 122.7 69.65 125.8 64.4 125.8 54.85 125.8 46.25 120.2 36.1 113.6 36.1 103.4 36.1 87.2 49.2 76.95 60 68.5 71.55 68.5 80.75 68.5 96.3 82.65
L 109.8 95.55
Q 118.3 103.75 123.75 108.15
L 120.25 110.05
Q 119.2 108.5 112.7 106.35 105.7 104.05 105.8 104.5 105.9 104.9 100.75 105.5 95.6 106.05 94.6 107.2 93.6 108.3 95.5 109.2
L 99.75 110.5
Q 98.8 111.7 95.8 111.15
L 94 110.8 93 111.45
Q 92.9 111.9 93.3 114.05 93.7 116.15 94.8 116.25
L 101.35 116.3
Q 106.85 116.3 111.85 115.05 116.65 113.85 117.7 112.35
L 114.35 119.2 115.95 120.45
Q 131.6 113.35 133.3 113.85 134.95 114.35 134.6 111.75 134.2 109.1 132.8 107.35 131.2 105.3 130.4 101.1 130.25 100.2 128.55 98
L 126.4 95.35
Q 126.65 95.45 127.15 95.85
L 128 96.1
Q 129.25 96.1 129.8 95.4 130.2 94.9 130.2 94.35 130.2 92.75 127.2 89.85
L 124.2 87.25
Q 121.9 87.9 120.55 89.15 116.15 84.7 107.85 77.2 Z"/>
</g>
</defs>

<g transform="matrix( 1, 0, 0, 1, 0,0) ">
<use xlink:href="#Layer0_0_FILL"/>
</g>
</svg>
