
<svg xmlns="http://www.w3.org/2000/svg" version="1.1" xmlns:xlink="http://www.w3.org/1999/xlink" preserveAspectRatio="none" x="0px" y="0px" width="550px" height="400px" viewBox="0 0 550 400">
<defs>
<g id="Layer0_0_FILL">
<path fill="#FFFFFF" fill-opacity="0.25098039215686274" stroke="none" d="
M 111.75 120.95
Q 110.35 119.55 108.4 119.55 106.45 119.55 105.1 120.95 103.7 122.3 103.7 124.25 103.7 126.2 105.1 127.6 106.45 128.95 108.4 128.95 110.35 128.95 111.75 127.6 113.1 126.2 113.1 124.25 113.1 122.3 111.75 120.95
M 56.5 78.6
Q 54.3 77.75 53.15 77.75 49.7 77.75 46.5 84.1 42.8 91.5 42.8 102.35 42.8 110 50.95 115.85 59.05 121.7 69.3 121.7 70.2 121.7 70.6 121.15 71.6 119.75 71.6 115
L 71 107.55
Q 59.4 106.15 55.65 99.55 51.55 92.35 56.5 78.6
M 140.5 88
Q 143.55 86.85 145.3 84.9
L 144.45 83.8 133.15 84.15
Q 129.5 84.7 129.5 85.7 129.5 87.45 130.65 88.4 131.7 89.3 133.25 89.3 137.2 89.3 140.5 88 Z"/>
</g>
</defs>

<g transform="matrix( 1, 0, 0, 1, 0,0) ">
<use xlink:href="#Layer0_0_FILL"/>
</g>
</svg>
