
<svg xmlns="http://www.w3.org/2000/svg" version="1.1" xmlns:xlink="http://www.w3.org/1999/xlink" preserveAspectRatio="none" x="0px" y="0px" width="550px" height="400px" viewBox="0 0 550 400">
<defs>
<g id="Layer0_0_FILL">
<path fill="#000000" stroke="none" d="
M 169.2 81.3
L 169.3 79.65
Q 169.15 79.4 167.95 79.3
L 145.05 78.05
Q 122.7 77.95 118.45 83.05 117.25 82.5 114.05 78.45 110.3 73.55 106.6 70.4 93.15 59.05 67.7 56.25 51.85 54.55 38.6 62.1 20.9 72.2 18.35 95.6 16.4 113.5 24.25 126.3 27.15 131.1 30.95 134.15 34.25 136.8 36.6 137.05 68.25 140.5 86.4 135.7 90.95 134.5 96.25 132.05 100.05 130.35 101.35 130.5
L 106.05 134.35
Q 111.05 138.55 113.85 140 116.7 141.6 123.45 142.35 125.65 142.6 125.8 140.95 123.65 138.75 121.5 135.4 117.3 128.65 117.95 122.45 122.8 121.1 127.65 119.35 137.4 115.7 137.7 112.85
L 137.7 112.2 137.2 112.35
Q 135.95 112.25 133.8 106.95
L 132.75 104.35
Q 132.4 103.05 132.55 101.5 133.45 93.35 151.25 88.2
L 163.45 84.75
Q 169 83.05 169.2 81.3
M 141.85 89.25
Q 133.05 94.35 130.7 97.9
L 121.45 86.1
Q 122.8 82.8 130.95 82.3 136.9 82 161.35 81.9
L 162.45 81.9
Q 152.6 83 141.85 89.25
M 25.8 84.35
Q 29.9 77.3 36 71.2 51 56.3 65.3 57.85 91.1 60.7 113 83.35 126.45 97.3 133.5 112 125.7 113.75 122.1 116.1
L 120.45 117.05 123.6 112.45 124.45 110.95
Q 124.55 109.7 123.1 109.55 116.55 108.85 105.25 109.9
L 94.65 110.95
Q 94 110.9 93.7 110.45
L 92.95 109.55
Q 92.65 113.65 95.1 119.85 97.25 125.05 99.6 128.15 94.05 128.95 87.8 130.85
L 77.9 133.85
Q 66.2 137 51.5 135.1 36.65 133.1 34.25 130.75 31.85 128.25 29.95 125.2 28.05 122.1 27.45 120.3 23.45 108.85 22.4 105 20.85 99.45 21.2 96.2 21.75 91.15 25.8 84.35
M 116.5 117.05
Q 115.35 119.1 115.2 120.35 114.8 124.05 114.85 127.85 114.9 133.3 116 135.35 113 132.85 108.85 130.2 104.15 127.3 103 126.45 97.5 122.2 96 113.65
L 104 112.15
Q 112.5 110.95 119.55 112.1
L 116.5 117.05
M 86.05 97.85
Q 87.3 86.35 81.75 79.7 77.15 74.2 69.6 73.35 62.25 72.55 57.65 77.45 53.45 81.9 53.45 88.8 53.4 95.9 58.05 101.15 63.3 107.15 72.65 108.15 81.4 109.1 84.5 103.9 85.55 102.2 86.05 97.85
M 82 86.45
Q 83.85 91.55 83.15 97.85 82.3 105.95 72.8 104.9 66.4 104.2 61.7 99.95 55.95 94.8 56.8 86.8 57.35 81.6 61 78.8 64.45 76.15 69.05 76.65 78.85 77.7 82 86.45 Z"/>
</g>
</defs>

<g transform="matrix( 1, 0, 0, 1, 0,0) ">
<use xlink:href="#Layer0_0_FILL"/>
</g>
</svg>
