
<svg xmlns="http://www.w3.org/2000/svg" version="1.1" xmlns:xlink="http://www.w3.org/1999/xlink" preserveAspectRatio="none" x="0px" y="0px" width="550px" height="400px" viewBox="0 0 550 400">
<defs>
<g id="Layer0_0_FILL">
<path fill="#FFFFFF" stroke="none" d="
M 6.2 4.5
Q 6.55 4.25 6.45 3.65
L 6.15 3.2 5.8 2.8
Q 4.95 2.3 4.2 2.1
L 2.75 1.55
Q 2 1.2 1.45 0.8 1.2 0.65 0.8 0.25
L 0.75 0.15 0.75 0.25
Q 0.6 0.1 0.25 0 0 -0.05 0 0.35 0.25 1.95 1.7 2.75 3.15 3.65 4.55 4.2
L 5.3 4.5 5.55 4.55 5.8 4.55
Q 6.15 4.55 6.2 4.5 Z"/>
</g>
</defs>

<g transform="matrix( 1, 0, 0, 1, 0,0) ">
<use xlink:href="#Layer0_0_FILL"/>
</g>
</svg>
