
<svg xmlns="http://www.w3.org/2000/svg" version="1.1" xmlns:xlink="http://www.w3.org/1999/xlink" preserveAspectRatio="none" x="0px" y="0px" width="550px" height="400px" viewBox="0 0 550 400">
<defs>
<g id="Layer0_0_FILL">
<path fill="#000000" fill-opacity="0.25098039215686274" stroke="none" d="
M 119.7 116.75
Q 118.4 115.75 117.55 114.5 117.15 114.3 110.9 117.85
L 99.6 124.2 103 124.6 108.1 123.75 108.7 123.85 121.8 117.8
Q 120.9 117.7 119.7 116.75
M 58.3 71.6
L 55.85 72.75 59 74.45 58.7 73.55 58.3 71.6
M 158.3 92.6
L 158.6 92.1 155.15 88.95
Q 147.4 95.85 134.35 103.8 125.25 109.35 118.95 112.35 122.75 115.1 127.1 115.1 131.35 115.1 143.6 104.85
L 158.3 92.6
M 121.2 91.65
Q 114.2 92.9 102.9 95.6 94.4 97.6 92.5 97.6
L 92.3 103.45
Q 95.25 102.15 97.35 102.55 99.4 102.9 100.15 101 100.9 99.05 101.1 102.75 101.25 106.45 108.65 104.3 116.05 102.15 120.8 96.65 125.55 91.15 130.3 84.1 129.25 84.65 126.2 88.2 123.6 91.25 121.2 91.65
M 87.35 67.55
L 87.6 68.65 91.9 66.35 96.65 64.45 95.75 62.2 87.35 67.55
M 81.05 66.4
L 81.25 66.65 78.95 61.45 77.8 63
Q 76.75 61.35 76.1 60.75 75 59.65 70.65 59.65 68.3 59.75 66.25 60.9 62.25 63.1 62.75 68.3 54.85 80.25 62.5 74.65
L 58.55 77.75
Q 52.6 74.2 47.8 74.7 43 75.2 31.75 84.6 19.6 94.75 20.15 104.95 21.95 119.5 33.3 131
L 34.55 131.7 34.7 131.45
Q 35.5 130.7 34.45 126.9 33.35 123.1 34.5 118.75
L 36.5 110.4
Q 37.4 106.4 37.95 105.75 37.45 110.35 35.9 117.25
L 35.1 123
Q 35.1 129.45 43.2 134.3 49.6 138.15 53.5 138.15
L 60.75 137.75 60.8 137.4 55.95 135.4 56.85 133.95 58.45 134.35
Q 63.75 136.1 69.2 136.95 74.6 137.75 79.2 136.4 83.75 135 98.25 128.15
L 98.45 127.6 95.35 126.25 95 126.4
Q 89.15 129.35 80.45 131.2 73.1 132.75 68.35 132.75
L 59.25 132.5
Q 54.95 132.1 53.55 130.65 50.65 127.7 47.9 122.9 44.9 117.75 44.9 115 46 109.9 48 107.05 48.75 111.4 51.75 113.9 54.55 116.2 58.5 116.2
L 59.9 116.1
Q 61.9 116.95 66.2 113.75 77.6 113.75 82.9 110.95 88.15 108.1 90.2 104.3 92.2 100.45 91.75 98.1
L 91.7 98.05
Q 81.05 105.05 76 107.1 72.7 108.4 68.75 108.4 62.05 108.4 60.15 106.25 59.5 105.55 59.1 104.25
L 58.35 102.15
Q 61.05 102.8 62.45 100.8
L 63.35 98.6 63.2 97.8 63.05 97.7 62.85 97.65
Q 57.9 98.95 58.55 99.15 59.2 99.35 57.5 99.15
L 55.7 98.9 56.1 102.55 56.05 109.8
Q 55.2 107.9 51.5 104.35 52.8 100 53.25 99.05
L 52.5 98.6
Q 49.45 97.5 49.75 100.05
L 47.65 98.75 47.45 98.45 47.45 98.2
Q 44.75 98.35 40.4 100.6 35.2 103.3 32.65 106.85 33.1 107.5 33.2 108.7
L 33 109.9 32.15 109.95 30.5 109.8 29.4 112.3 29.75 112.5 30 112.45 30.25 112.95 28.95 115.75 29 114.85 28.65 114.85 28.4 117.05 28.5 119.2 26.75 113.9
Q 26.1 110.65 25.95 106.55
L 23.9 106.85 24.45 105.9 25.1 105.1
Q 25.05 104.35 24.7 103.95 24.1 103.2 21.9 103.75
L 21.75 103.6 22.35 102.65
Q 22.95 101.95 23.65 101.95
L 24.7 102.35 26.2 103.5
Q 26.2 96.3 30.55 91.25 34.85 86.15 41 86.15
L 37.3 85.3 37.6 84.65 37.8 84.4 38.35 84.1 39.2 84.05
Q 40.85 84.05 42.1 85.95
L 45.2 85.65 53.3 86.4 54.9 84.75 53.05 83.4 53.1 82.4
Q 53.2 82.25 53.8 82.25 54.85 82.25 55.75 83.1 56.7 84 56.7 85.05
L 56.4 86.1 55.7 86.7 65.75 87.95 64.45 87.4 65.95 86.1
Q 66.75 86.1 67.65 86.55 68.75 87.15 69.3 88.2 73.35 88.2 76.2 86.75 79.05 85.25 79.05 83.15
L 77.45 83.9 75.65 84.25
Q 74.6 84.25 72.25 83.45 73.95 82.65 75.5 81.2 68.2 74.45 66.35 71.9 65.2 70.3 65.2 68.1 65.2 66.9 66.2 65.15 67.8 62.45 70.75 62.45 73.8 62.45 75.7 63.65 78.95 65.65 81.05 66.4
M 56.3 111.2
L 56.25 110.25 58.45 114.5
Q 55.9 112.5 56.3 111.2
M 115.9 66.05
L 121 65.25 121 64.95 138.75 61.65 140.15 61.6
Q 141.8 61.6 142.95 62.35
L 144.7 64
Q 151.15 59.55 147.4 57.65 146.9 55.15 144.35 55.5 141.75 55.8 141.05 56.35 140.3 56.9 132.05 60.05
L 115.9 66.05
M 114.35 65.55
L 115.1 64.15 111.4 64.15 108.05 64.75
Q 107.85 62.15 97.6 65.95 87.35 69.75 83.3 73.5
L 81.95 74.75 81.95 74.15 79.6 76.25
Q 77.5 78 76.8 78.25
L 77.2 78.65 79.65 77.7
Q 79.25 78.45 79.25 79.05
L 79.1 83.05 86.9 77.7
Q 93.9 72.75 96.4 71.9
L 114.35 65.55
M 93.05 48.6
L 86.95 47.7
Q 85.25 47.7 81.45 49.5 76.85 51.75 76.85 54.4 76.85 55.4 78.85 59.85 78.8 59.4 82.65 54.25 84.6 51.7 89 51.7 89.1 50.2 88.45 49.5
L 94.95 54 96 52.85
Q 97.4 49.5 93.05 48.6
M 177.15 48.8
Q 172.8 42.9 167.7 42.75 162.6 42.6 159.8 43.8 157 45 153.95 49.3 150.85 53.6 149.25 59.35
L 147.85 64.25
Q 150.8 62.7 151.95 60.45
L 154 56.35
Q 156.95 51.15 163.3 51.15 166.25 51.15 168.85 53.65 171.85 56.5 171.85 60.75 171.85 63.25 171.3 64.35 170.4 66.05 167.2 68.05 160.85 71.85 133.55 82.7
L 133.6 82.95 140.15 83.4 139.55 83.8
Q 133.05 88.1 152.15 82.35
L 156.1 82.85
Q 159.2 83 169.95 75.7 180.65 68.35 180.65 58.9 180.65 53.55 177.15 48.8
M 171.25 45.75
Q 172.1 46.6 172.1 47.85 172.1 49.1 171.25 50 170.35 50.85 169.1 50.85 167.85 50.85 167 50 166.1 49.1 166.1 47.85 166.1 46.6 167 45.75 167.85 44.85 169.1 44.85 170.35 44.85 171.25 45.75 Z"/>

<path fill="#339900" stroke="none" d="
M 162.75 55.95
L 162.35 55.25
Q 161.9 55.15 160.5 55.8
L 159.25 56.45
Q 159.85 57.2 161.15 57.2 161.8 57.2 162.2 56.85
L 162.75 55.95
M 168.2 49
L 170.75 49 169.55 47
Q 169.25 47.15 167.25 48.45 168.2 48.8 168.2 49 Z"/>
</g>
</defs>

<g transform="matrix( 1, 0, 0, 1, 0,0) ">
<use xlink:href="#Layer0_0_FILL"/>
</g>
</svg>
