
<svg xmlns="http://www.w3.org/2000/svg" version="1.1" xmlns:xlink="http://www.w3.org/1999/xlink" preserveAspectRatio="none" x="0px" y="0px" width="550px" height="400px" viewBox="0 0 550 400">
<defs>
<g id="Layer0_0_FILL">
<path fill="#FFFFFF" stroke="none" d="
M 7 -3.1
Q 7 -7 3.1 -7
L -3.1 -7
Q -7 -7 -7 -3.1
L -7 3.1
Q -7 7 -3.1 7
L 3.1 7
Q 7 7 7 3.1
L 7 -3.1 Z"/>
</g>

<path id="Layer0_0_1_STROKES" stroke="#00FF00" stroke-width="2" stroke-linejoin="round" stroke-linecap="round" fill="none" d="
M 3.1 -7
L -3.1 -7
Q -7 -7 -7 -3.1
L -7 3.1
Q -7 7 -3.1 7
L 3.1 7
Q 7 7 7 3.1
L 7 -3.1
Q 7 -7 3.1 -7 Z"/>
</defs>

<g transform="matrix( 1, 0, 0, 1, 0,0) ">
<use xlink:href="#Layer0_0_FILL"/>

<use xlink:href="#Layer0_0_1_STROKES"/>
</g>
</svg>
