
<svg xmlns="http://www.w3.org/2000/svg" version="1.1" xmlns:xlink="http://www.w3.org/1999/xlink" preserveAspectRatio="none" x="0px" y="0px" width="550px" height="400px" viewBox="0 0 550 400">
<defs>
<g id="Layer0_0_FILL">
<path fill="#000000" stroke="none" d="
M 37 91.1
Q 26.9 90 18.45 90.9 10.05 91.8 10.05 94 10.05 98.25 10.65 106.3
L 15.65 105.55
Q 19.6 105.05 39.7 105.05 43.05 105.05 48.75 106.8 56.7 109.2 62.85 113.7 63.9 109.75 63.9 106 63.9 99.8 55.5 95.75 48.4 92.4 37 91.1
M 53.4 23
Q 52.25 29.25 41.6 43
L 22.55 65.5
Q 13.35 76.2 10.95 77.6 10.8 77.8 11.25 78.8 11.5 80.8 10.3 85.65 13.2 85.55 22.45 81.05 33.6 75.7 38.6 70.05 45.05 63.4 49.95 54.35 59.8 36.35 53.4 23 Z"/>
</g>
</defs>

<g transform="matrix( 1, 0, 0, 1, 0,0) ">
<use xlink:href="#Layer0_0_FILL"/>
</g>
</svg>
