
<svg xmlns="http://www.w3.org/2000/svg" version="1.1" xmlns:xlink="http://www.w3.org/1999/xlink" preserveAspectRatio="none" x="0px" y="0px" width="550px" height="400px" viewBox="0 0 550 400">
<defs>
<g id="Parts_Feet_footMC_14_Layer7_0_FILL">
<path fill="#C4B8A9" stroke="none" d="
M 14.45 33.7
L 14.9 28.05
Q 14.9 27.1 12.65 25.65 10 23.95 6.9 23.95 2.75 23.95 0 26.9 -2.8 29.9 -3.2 35.35
L 4.2 34.75 8.15 33.65 14.45 33.7
M 27.25 22.05
Q 25.7 20.55 23.35 20.65 20.95 20.75 19.4 22.3 17.6 24.15 17.6 27.05 17.6 29.6 17.8 29.4
L 16.35 33.8 28.75 34 29.1 26.7
Q 29.1 23.75 27.25 22.05
M 47.6 18.2
Q 45.65 16.2 42.05 16.2 36.35 16.2 33.4 21 30.5 25.65 30.6 34.15
L 36.4 34.2 36.35 34.3 36.45 34.2 43.2 34.3 38.4 33.95 52.75 34.15 57.05 32.65 50.75 24.05
Q 48.9 19.6 47.6 18.2 Z"/>
</g>

<g id="Graphics_Symbol_283_0_Layer1_0_FILL">
<path fill="#000000" stroke="none" d="
M 37.7 -23.45
Q 27.25 -35.35 9.7 -35.35 -7.6 -35.35 -16.3 -6.55 -22.25 13.15 -22.25 34.1 -22.25 37.8 -13.75 38
L -5.6 37.5 -5.6 37.4 -4 37.15 2 36.7 14.1 36 51.2 36.7
Q 56.45 36.7 58.2 35.1 59.2 34.2 59.2 32.45
L 55.6 26.35
Q 51.9 19.55 51.2 15.95
L 49 7.8
Q 46.75 -0.5 46.7 -2.6 46 -14 37.7 -23.45
M 10.05 -32.55
Q 23.5 -32.55 31.15 -28 37.65 -24.2 40.8 -16.45 42.95 -11.3 44.5 -0.85 46.35 11.2 47.7 15.8
L 48 16.9
Q 46.55 15.65 43.9 14.7
L 41.4 13.9
Q 34.5 13.9 30.15 24 28.5 18.4 22.95 18.4 20.4 18.4 18.05 20.85 16.05 23 15.8 24.75 14.4 23.8 11.9 23 8.9 22.05 6.2 22.05 1.05 22.05 -2.65 26.2 -6.45 30.4 -5.45 35.45
L -11.35 35.6
Q -16 35.6 -18.15 34.5 -19.65 33.8 -19.65 32.9 -19.65 2.5 -10.7 -15.7 -2.4 -32.55 10.05 -32.55
M 47.6 18.2
Q 48.9 19.6 50.75 24.05
L 57.05 32.65 52.75 34.15 44.55 33.95 38.4 33.95 39.45 34 43.2 34.3 36.45 34.2 36.35 34.3 36.4 34.2 30.6 34.15
Q 30.5 25.65 33.4 21 36.35 16.2 42.05 16.2 45.65 16.2 47.6 18.2
M 23.35 20.65
Q 25.7 20.55 27.25 22.05 29.1 23.75 29.1 26.7
L 28.85 30.1 28.75 34 16.35 33.8 17.8 29.4
Q 17.6 29.6 17.6 27.05 17.6 24.15 19.4 22.3 20.95 20.75 23.35 20.65
M 14.45 33.7
L 8.15 33.65 4.2 34.75 -3.2 35.35
Q -2.8 29.9 0 26.9 2.75 23.95 6.9 23.95 10 23.95 12.65 25.65 14.9 27.1 14.9 28.05
L 14.7 30.1 14.45 33.7 Z"/>
</g>

<g id="Graphics_Symbol_283_0_Layer0_0_FILL">
<path fill="#000000" fill-opacity="0.25098039215686274" stroke="none" d="
M 30.15 -29.35
Q 24.7 -33.4 18.95 -34.3 -4.3 -38.6 -12.8 -14.05 -21.35 10.45 -22.25 31.15 -22.25 37.55 -16.25 37.55
L -12.1 36.3 -10.1 36.55 9.3 35.9
Q 26.95 35 42.65 35.25 58.35 35.5 58.35 32.8 58.35 30.4 56.85 29 55.35 27.55 52.65 21.35 49.9 15.1 47.45 0.1 44.95 -14.95 40.25 -20.15 35.55 -25.35 30.15 -29.35
M 23.6 -16.5
Q 26.45 -13.7 31.55 -5 34.6 0.75 36.9 13.3 38.75 23.65 38.9 30.25
L 29.35 30.85 21.7 31.3 -7.6 31.25
Q -5.55 2.2 0.4 -10 5.35 -20.2 14.2 -20.2 19.8 -20.2 23.6 -16.5 Z"/>
</g>

<g id="MovieClips_Symbol_228_14_Layer1_0_FILL">
<path fill="#CCCCCC" stroke="none" d="
M 31.15 -28
Q 23.5 -32.55 10.05 -32.55 -2.4 -32.55 -10.7 -15.7 -19.65 2.5 -19.65 32.9 -19.65 33.8 -18.15 34.5 -16 35.6 -11.35 35.6
L -5.45 35.45
Q -6.45 30.4 -2.65 26.2 1.05 22.05 6.2 22.05 8.9 22.05 11.9 23 14.4 23.8 15.8 24.75 16.05 23 18.05 20.85 20.4 18.4 22.95 18.4 28.5 18.4 30.15 24 34.5 13.9 41.4 13.9
L 43.9 14.7
Q 46.55 15.65 48 16.9
L 47.7 15.8
Q 46.35 11.2 44.5 -0.85 42.95 -11.3 40.8 -16.45 37.65 -24.2 31.15 -28 Z"/>
</g>

<g id="MovieClips_Symbol_264_14_Layer1_0_FILL">
<path fill="#CCCCCC" stroke="none" d="
M 14.45 33.7
L 14.9 28.05
Q 14.9 27.1 12.65 25.65 10 23.95 6.9 23.95 2.75 23.95 0 26.9 -2.8 29.9 -3.2 35.35
L 4.2 34.75 8.15 33.65 14.45 33.7
M 27.25 22.05
Q 25.7 20.55 23.35 20.65 20.95 20.75 19.4 22.3 17.6 24.15 17.6 27.05 17.6 29.6 17.8 29.4
L 16.35 33.8 28.75 34 29.1 26.7
Q 29.1 23.75 27.25 22.05
M 52.75 34.15
L 57.05 32.65 50.75 24.05
Q 48.9 19.6 47.6 18.2 45.65 16.2 42.05 16.2 36.35 16.2 33.4 21 30.5 25.65 30.6 34.15
L 36.4 34.2 36.35 34.3 36.45 34.2 43.2 34.3 38.4 33.95 52.75 34.15 Z"/>
</g>
</defs>

<g transform="matrix( 1, 0, 0, 1, -28.4,-10.7) ">
<g transform="matrix( 1, 0, 0, 1, 0,0) ">
<use xlink:href="#Parts_Feet_footMC_14_Layer7_0_FILL"/>
</g>

<g transform="matrix( 1, 0, 0, 1, 0,0) ">
<g transform="matrix( 1, 0, 0, 1, 0,0) ">
<use xlink:href="#Graphics_Symbol_283_0_Layer1_0_FILL"/>
</g>

<g transform="matrix( 1, 0, 0, 1, 0,0) ">
<use xlink:href="#Graphics_Symbol_283_0_Layer0_0_FILL"/>
</g>
</g>
</g>

<g transform="matrix( 1, 0, 0, 1, -28.15,-10.5) ">
<g transform="matrix( 1, 0, 0, 1, 0,0) ">
<use xlink:href="#MovieClips_Symbol_228_14_Layer1_0_FILL"/>
</g>
</g>

<g transform="matrix( 1, 0, 0, 1, -28.4,-10.7) ">
<g transform="matrix( 1, 0, 0, 1, 0,0) ">
<use xlink:href="#MovieClips_Symbol_264_14_Layer1_0_FILL"/>
</g>
</g>
</svg>
