
<svg xmlns="http://www.w3.org/2000/svg" version="1.1" xmlns:xlink="http://www.w3.org/1999/xlink" preserveAspectRatio="none" x="0px" y="0px" width="550px" height="400px" viewBox="0 0 550 400">
<defs>
<g id="Layer0_0_FILL">
<path fill="#F5F578" stroke="none" d="
M 55 31.3
Q 52.7 26.9 46.9 25.2
L 39.2 24 37.95 30.9
Q 41.7 30.55 55 31.3
M 52.25 13.8
L 59.85 14.8 60.2 14.8 56.5 12.45
Q 53.1 10.15 52.25 10.2 52.5 11.55 52.25 13.8
M 61.65 24.2
L 61.8 23.35
Q 61.8 21.55 56.1 20
L 50.35 18.25
Q 50.35 17.7 50.05 17.8
L 48.95 18.1
Q 47.35 18.1 45.6 19.3
L 50.25 22.8
Q 52.9 24.55 53.7 24.45
L 61.5 24.45 61.65 24.2 Z"/>
</g>
</defs>

<g transform="matrix( 1, 0, 0, 1, 0,0) ">
<use xlink:href="#Layer0_0_FILL"/>
</g>
</svg>
