
<svg xmlns="http://www.w3.org/2000/svg" version="1.1" xmlns:xlink="http://www.w3.org/1999/xlink" preserveAspectRatio="none" x="0px" y="0px" width="550px" height="400px" viewBox="0 0 550 400">
<defs>
<linearGradient id="Gradient_1" gradientUnits="userSpaceOnUse" x1="-0.4750000000000014" y1="50.15" x2="100.775" y2="50.15" spreadMethod="pad">
<stop  offset="0%" stop-color="#9D9D9D" stop-opacity="0.4"/>

<stop  offset="100%" stop-color="#FFFFFF" stop-opacity="0.6470588235294118"/>
</linearGradient>

<linearGradient id="Gradient_2" gradientUnits="userSpaceOnUse" x1="50.15" y1="-0.4750000000000014" x2="50.15" y2="100.775" spreadMethod="pad">
<stop  offset="0%" stop-color="#999999"/>

<stop  offset="100%" stop-color="#333333"/>
</linearGradient>

<linearGradient id="Gradient_3" gradientUnits="userSpaceOnUse" x1="3.3" y1="-3.0500000000000003" x2="3.3" y2="3.0500000000000003" spreadMethod="pad">
<stop  offset="0%" stop-color="#CCCCCC"/>

<stop  offset="100%" stop-color="#666666"/>
</linearGradient>

<linearGradient id="Gradient_4" gradientUnits="userSpaceOnUse" x1="12" y1="0" x2="6.6000000000000005" y2="0" spreadMethod="pad">
<stop  offset="0%" stop-color="#CCCCCC"/>

<stop  offset="100%" stop-color="#666666"/>
</linearGradient>

<g id="UI_Popups__outside_levels__BG_0_Layer0_0_FILL">
<path fill="url(#Gradient_1)" stroke="none" d="
M 95.8 -0.45
L 4.55 -0.45
Q -0.45 -0.45 -0.45 4.55
L -0.45 95.8
Q -0.45 100.8 4.55 100.8
L 95.8 100.8
Q 100.8 100.8 100.8 95.8
L 100.8 4.55
Q 100.8 -0.45 95.8 -0.45 Z"/>
</g>

<g id="Graphics_Symbol_107_0_Layer2_0_FILL">
<path fill="#FFFFFF" fill-opacity="0" stroke="none" d="
M 33 -10.05
L 0 -10.05 0 9.95 33 9.95 33 -10.05 Z"/>
</g>

<g id="Graphics_Symbol_107_0_Layer1_0_FILL">
<path fill="url(#Gradient_3)" stroke="none" d="
M 6.6 -3
L 0 -3 0 3 6.6 3 6.6 -3 Z"/>

<path fill="url(#Gradient_4)" stroke="none" d="
M 12 -6
L 6.6 -3 6.6 3 12 6 12 -6 Z"/>
</g>

<g id="Graphics_Symbol_107_0_Layer0_0_FILL">
<path fill="#FFFFFF" stroke="none" d="
M 7.45 -1.55
L 7.5 -1.35 7.7 -1.3 10.65 -2.95 10.4 -3.25 8.7 -2.45
Q 7.45 -1.75 7.45 -1.55
M 1 -1.15
L 1 -0.95
Q 2 0.05 5.5 -0.45
L 5.7 -0.5 5.75 -0.75 5.7 -0.9 1 -1.15 Z"/>
</g>

<path id="UI_Popups__outside_levels__BG_0_Layer0_0_1_STROKES" stroke="url(#Gradient_2)" stroke-opacity="0.5" stroke-width="0" stroke-linejoin="round" stroke-linecap="round" fill="none" d="
M 0.005554962158203114 95.05616683959961
L 0.005554962158203114 4.93258972167969
Q 0.005554962158203114 -0.005688476562497158 4.9438331604003904 -0.005688476562497158
L 95.06741027832031 -0.005688476562497158
Q 100.0056884765625 -0.005688476562497158 100.0056884765625 4.93258972167969
L 100.0056884765625 95.05616683959961
Q 100.0056884765625 99.9944450378418 95.06741027832031 99.9944450378418
L 4.9438331604003904 99.9944450378418
Q 0.005554962158203114 99.9944450378418 0.005554962158203114 95.05616683959961 Z"/>

<path id="Graphics_Symbol_107_0_Layer1_0_1_STROKES" stroke="#333333" stroke-width="0" stroke-linejoin="round" stroke-linecap="round" fill="none" d="
M 6.6 -3
L 12 -6 12 6 6.6 3 0 3 0 -3 6.6 -3 6.6 3"/>

<path id="MovieClips_Symbol_109_0_Layer0_0_1_STROKES" stroke="#333333" stroke-width="0" stroke-linejoin="round" stroke-linecap="round" fill="none" d="
M 0 3.8
Q 2.5 6.35 2.7 9.35
L 2.7 9.9
Q 2.7 13.35 0.05 16.2"/>

<path id="MovieClips_Symbol_109_0_Layer0_0_2_STROKES" stroke="#333333" stroke-opacity="0.6627450980392157" stroke-width="0" stroke-linejoin="round" stroke-linecap="round" fill="none" d="
M 6.05 1.9
Q 7.2 3.05 7.95 4.4
L 8.5 5.4
Q 9.5 7.5 9.5 9.9 9.5 11.85 8.9 13.6 8 15.95 6.05 18.1"/>

<path id="MovieClips_Symbol_109_0_Layer0_0_3_STROKES" stroke="#333333" stroke-opacity="0.3333333333333333" stroke-width="0" stroke-linejoin="round" stroke-linecap="round" fill="none" d="
M 12 0
L 13.6 1.8
Q 16.4 5.55 16.4 9.85 16.4 13.8 14.25 17.25
L 12 20"/>
</defs>

<g transform="matrix( 1, 0, 0, 1, 15.1,-9.95) ">
<use xlink:href="#MovieClips_Symbol_109_0_Layer0_0_1_STROKES"/>
<use xlink:href="#MovieClips_Symbol_109_0_Layer0_0_2_STROKES"/>
<use xlink:href="#MovieClips_Symbol_109_0_Layer0_0_3_STROKES"/>
</g>
</svg>
