
<svg xmlns="http://www.w3.org/2000/svg" version="1.1" xmlns:xlink="http://www.w3.org/1999/xlink" preserveAspectRatio="none" x="0px" y="0px" width="550px" height="400px" viewBox="0 0 550 400">
<defs>
<g id="Layer0_0_FILL">
<path fill="#FFFFFF" stroke="none" d="
M 9.25 5.75
Q 9.35 4.8 8.6 4.05
L 7.65 3.35
Q 6.35 2.4 3.65 0.7 2.65 -0.1 1.4 0 0.9 0.1 0.45 0.5
L 0.25 0.95 0 1.3 0.05 1.45
Q 0.2 1.4 0.35 1.45
L 0.45 1.55 1.5 2.1
Q 2.6 2.75 3.2 3.35 6.6 6 7.1 6.3 7.65 6.75 8.25 6.9 9.15 6.95 9.25 5.75 Z"/>
</g>
</defs>

<g transform="matrix( 1, 0, 0, 1, 0,0) ">
<use xlink:href="#Layer0_0_FILL"/>
</g>
</svg>
