
<svg xmlns="http://www.w3.org/2000/svg" version="1.1" xmlns:xlink="http://www.w3.org/1999/xlink" preserveAspectRatio="none" x="0px" y="0px" width="550px" height="400px" viewBox="0 0 550 400">
<defs>
<g id="Layer0_0_FILL">
<path fill="#000000" stroke="none" d="
M 45.25 -74.9
L 50.85 -83.1
Q 44.6 -104.3 30.3 -95.95 31.15 -84.6 38.25 -77.65
L 25.15 -55.7 12.4 -71.35
Q 14.8 -74.65 14.05 -79.6 13.7 -82.4 12.3 -84.75 3.7 -101.85 -1 -85.8 -2.25 -81.55 -0.95 -76.6 0.2 -71.75 2.85 -67.95 4.05 -54.8 -3.65 -47.25
L -24.15 -64.15
Q -19.45 -81.55 -34.4 -86.8 -35.95 -87.4 -36.95 -85.6 -43.55 -74.2 -34.1 -67 -31.95 -65.2 -29.4 -64.3
L -26.1 -46.65 -50.4 -64.3
Q -52.95 -82.3 -64.25 -76.5 -68.85 -73.95 -67.9 -66.5 -66.8 -58.05 -60.3 -58.75
L -59.05 -58.85
Q -48.35 -28.45 -30.5 -4.35
L 42.05 -18.35 45.25 -74.9
M 39.7 -80.6
Q 34.15 -85.95 33.05 -94.2
L 34.55 -96.5
Q 43.7 -94.9 47.55 -83.35
L 39.7 -80.6
M 5.3 -89.35
Q 14.15 -85.25 10.2 -75.25
L 9.55 -73.8 6.4 -75.1 3.8 -72.1
Q 0.6 -79.85 2.7 -87.3
L 5.3 -89.35
M 7.75 -67.7
L 9 -68.25 25.75 -50 40.45 -74.7 42.4 -75.3 39.55 -21.6 -30.1 -8.65 -56.8 -59.4 -53.85 -60.4 -25.1 -41.9
Q -22.25 -43.35 -22.35 -47.5 -22.5 -54.4 -25.45 -60.5 -15.3 -47.55 -2.55 -42.35 5.95 -52.45 7.75 -67.7
M -37.85 -76
L -36.8 -80.1
Q -27.55 -89.85 -25.25 -69.95
L -25.2 -69.4
Q -33.5 -65.1 -37.85 -76
M -62.9 -76.4
L -61.9 -76.95
Q -54.95 -75.6 -53.9 -66.25
L -63.05 -62.6
Q -69.65 -70.4 -62.9 -76.4 Z"/>

<path fill="#FF0000" stroke="none" d="
M -61.9 -76.95
L -62.9 -76.4
Q -69.65 -70.4 -63.05 -62.6
L -53.9 -66.25
Q -54.95 -75.6 -61.9 -76.95
M -36.8 -80.1
L -37.85 -76
Q -33.5 -65.1 -25.2 -69.4
L -25.25 -69.95
Q -27.55 -89.85 -36.8 -80.1
M 10.2 -75.25
Q 14.15 -85.25 5.3 -89.35
L 2.7 -87.3
Q 0.6 -79.85 3.8 -72.1
L 6.4 -75.1 9.55 -73.8 10.2 -75.25
M 33.05 -94.2
Q 34.15 -85.95 39.7 -80.6
L 47.55 -83.35
Q 43.7 -94.9 34.55 -96.5
L 33.05 -94.2 Z"/>
</g>
</defs>

<g transform="matrix( 1, 0, 0, 1, 0,0) ">
<use xlink:href="#Layer0_0_FILL"/>
</g>
</svg>
