
<svg xmlns="http://www.w3.org/2000/svg" version="1.1" xmlns:xlink="http://www.w3.org/1999/xlink" preserveAspectRatio="none" x="0px" y="0px" width="550px" height="400px" viewBox="0 0 550 400">
<defs>
<g id="Layer0_0_FILL">
<path fill="#000000" fill-opacity="0.25098039215686274" stroke="none" d="
M -29.7 -74.55
L -34.8 -77.35
Q -41.1 -74.1 -40.6 -66.2 -52.35 -63.95 -61.4 -54.95 -68.1 -48.3 -70.9 -39.55
L -80 -37.1
Q -89.1 -29.65 -82.15 -19.55 -78.05 -13.65 -70.5 -13.85 -56.75 -14.25 -57.95 -27.45 -58.75 -36.2 -67.05 -39.1
L -39.55 -61.7
Q -41.3 -50.6 -43.75 -37.05 -44.55 -32.65 -43.2 -28.2 -41.45 -22.6 -39.05 -17.35 -39.4 -9.5 -37.75 -1.8 -36.8 2.75 -36.15 7.35 -35.85 9.65 -34.15 11 -22.3 11.25 -12.05 5.1 -10.6 4.2 -9.75 2.65
L -9.65 2.15 -12.6 2.35 -14 1.55 -16.5 3.2
Q -26.85 2.05 -27.1 -10.2
L -27.5 -19.25 -26.8 -19.75 -27.75 -23.1 -27.9 -23.1 -28.4 -23.4 -29 -23.65 -29.6 -23.4
Q -32.2 -30.3 -26.9 -35.4 -23.75 -38.45 -25.65 -42.15
L -29.6 -50.15
Q -23.65 -61.1 -28.55 -72.4 -29.05 -73.55 -29.7 -74.55
M -72.25 -35.1
Q -67.2 -36.3 -65.05 -32 -59.15 -20.4 -70.55 -18.85 -74.3 -18.3 -76.9 -20.95 -86.7 -31.1 -72.25 -35.1
M 32.45 -44.4
Q 33.35 -45.55 32.5 -46.9 26.8 -56.4 16.05 -60.8 -3.75 -68.9 -20.7 -82.4
L -20.05 -79.75 -22.85 -82.55
Q -31.05 -90.55 -42.2 -87.95 -52.6 -85.7 -59.7 -77.6 -66.4 -69.85 -71.9 -61.15 -78.85 -50.15 -80.75 -37.95
L -80 -37.1
Q -74.85 -43.35 -71 -50.7 -62.35 -67.25 -48.05 -78.7
L -37.25 -82.6
Q -41 -82.8 -36.8 -85.7
L -31.45 -82.15
Q -32.05 -83.1 -30.1 -83.6 -24.05 -81.7 -20.1 -77.15
L -19.35 -77.15 -9.95 -63.4 -4.85 -60.15
Q 5.3 -54.2 12.95 -45.65
L 14.95 -45.55 14.85 -43.85 13.25 -42.9
Q 12.15 -40.15 9.35 -40.3 -1.4 -39.25 -7.15 -31.8 9.95 -34.45 24.85 -44.05
L 32.45 -44.4
M 35.75 -47.45
L 34.9 -45.6 33.3 -37.65
Q 20.1 -34.5 16.9 -23.25 16.75 -22.75 17.2 -22.15 28.95 -23 41.15 -24.95 44.55 -25.65 47.35 -23.35 49.85 -21.3 49.6 -18.65
L 28.55 -8.1
Q 40.35 -1.5 53.1 -10.4 60.35 -15.45 61.4 -23.65 50.1 -32.4 43 -44.2 41.2 -47.15 40 -50.5 37.1 -50 35.75 -47.45 Z"/>
</g>
</defs>

<g transform="matrix( 1, 0, 0, 1, 0,0) ">
<use xlink:href="#Layer0_0_FILL"/>
</g>
</svg>
