
<svg xmlns="http://www.w3.org/2000/svg" version="1.1" xmlns:xlink="http://www.w3.org/1999/xlink" preserveAspectRatio="none" x="0px" y="0px" width="550px" height="400px" viewBox="0 0 550 400">
<defs>
<g id="Layer0_0_FILL">
<path fill="#000000" stroke="none" d="
M 42.2 -50.6
L 41.85 -52.1 40.25 -51.5 39.55 -52.25 32.6 -50.4
Q 24.4 -56.6 15.15 -61.15 7.7 -64.85 0.3 -69.05 -10.15 -74.8 -18.25 -83.55 -22.75 -88.35 -28.85 -89.75 -39.5 -92.15 -49.15 -85.6 -60 -78.35 -68.25 -66.8 -72.65 -60.65 -75.9 -53.8 -80.25 -44.5 -84.8 -35.7
L -84.45 -35.7
Q -89.4 -29.15 -86.9 -21.15 -84.2 -12.65 -75.2 -11.6 -64.2 -9.95 -58.55 -18.85 -55.35 -23.95 -57.1 -29.8 -58.8 -35.6 -63.9 -38.8 -62.05 -41.95 -58.7 -45.4 -50.95 -53.35 -41.25 -58.9 -44.7 -47.4 -44.9 -35.35 -44.95 -30.8 -43.95 -26.4 -42.9 -21.7 -41.3 -17.15
L -43.15 -16.45
Q -37.45 -8.35 -37.6 1.45 -37.7 6.6 -37.25 11.45 -34.5 13.25 -31.1 12.65 -19.3 10.3 -7.55 6.65
L 12.3 0.35
Q 12.4 0.8 12.65 0.95
L 13.5 1 13.25 -0.5 32.55 -4
Q 37.7 -3.7 43 -4.9 51.5 -7.05 57.35 -13.5 63.25 -20.05 62.65 -28.75
L 59.75 -27.65 49.75 -35.65
Q 43.6 -40.25 41.2 -47.55 40.55 -49.5 42.2 -50.6
M 28.65 -48.6
L 31.05 -47.3 -5.55 -31.55 17 -45.5
Q 2.4 -39.8 -11.05 -31.75 -13.35 -30.35 -15.75 -29.05 -19.35 -27.05 -23.25 -26.25
L -23.6 -24.95 -39 -18.1
Q -40.5 -27.1 -41.45 -36.05 -42.05 -41.45 -40.8 -46.75 -38.4 -57.2 -35.4 -67.35 -34.85 -69.15 -35.35 -71
L -40.7 -60.9
Q -48.45 -59.5 -54.9 -54.45 -61.45 -49.3 -67.05 -42.95
L -68.85 -40.75 -79.75 -39.3
Q -72.2 -59 -58.05 -74.7
L -52.35 -80.95
Q -49.15 -81.9 -46.15 -83.4 -41.3 -85.8 -36.1 -85.8 -24.2 -84.85 -14.95 -76.25 -9.2 -70.9 -2.6 -66.1 0 -64.2 3.15 -62.55 15.5 -56 27.8 -49.05
L 24.05 -47.9 28.65 -48.6
M 23.8 -26.4
L 23.5 -26
Q 23.45 -25.55 23.7 -25.1 33.35 -28.15 41.4 -35.15
L 42.55 -36.2
Q 50.4 -32.15 56.5 -25.9
L 57.75 -24.35 57.55 -20.2
Q 57.4 -18.1 56.25 -16.45 54.25 -13.65 50.65 -12.7
L 36 -8.05 30.65 -7.55 28.45 -7.1 30.6 -8.05
Q 21.15 -8.3 12.25 -4.4 4 -0.75 -4.65 1.9
L -34.5 10.65
Q -33.95 1.35 -36.35 -7.75 -37.5 -12.1 -39.15 -16.55 -27.55 -22.3 -15.1 -25.1 -1.4 -28.3 11.8 -33.45 22.85 -37.8 33 -43.7 36.4 -45.65 39.4 -48.1
L 41.45 -37.55 23.8 -26.4
M -81.05 -17.5
Q -84.85 -21.15 -84.85 -26.35 -84.85 -31.55 -81.05 -35.2 -77.25 -38.85 -71.9 -38.85 -66.55 -38.85 -62.75 -35.2 -58.95 -31.55 -58.95 -26.35 -58.95 -21.15 -62.75 -17.5 -66.55 -13.85 -71.9 -13.85 -77.25 -13.85 -81.05 -17.5 Z"/>

<path fill="#FFFFFF" stroke="none" d="
M -84.85 -26.35
Q -84.85 -21.15 -81.05 -17.5 -77.25 -13.85 -71.9 -13.85 -66.55 -13.85 -62.75 -17.5 -58.95 -21.15 -58.95 -26.35 -58.95 -31.55 -62.75 -35.2 -66.55 -38.85 -71.9 -38.85 -77.25 -38.85 -81.05 -35.2 -84.85 -31.55 -84.85 -26.35
M 23.5 -26
L 23.8 -26.4 41.45 -37.55 39.4 -48.1
Q 36.4 -45.65 33 -43.7 22.85 -37.8 11.8 -33.45 -1.4 -28.3 -15.1 -25.1 -27.55 -22.3 -39.15 -16.55 -37.5 -12.1 -36.35 -7.75 -33.95 1.35 -34.5 10.65
L -4.65 1.9
Q 4 -0.75 12.25 -4.4 21.15 -8.3 30.6 -8.05
L 28.45 -7.1 30.65 -7.55 36 -8.05 50.65 -12.7
Q 54.25 -13.65 56.25 -16.45 57.4 -18.1 57.55 -20.2
L 57.75 -24.35 56.5 -25.9
Q 50.4 -32.15 42.55 -36.2
L 41.4 -35.15
Q 33.35 -28.15 23.7 -25.1 23.45 -25.55 23.5 -26 Z"/>
</g>
</defs>

<g transform="matrix( 1, 0, 0, 1, 0,0) ">
<use xlink:href="#Layer0_0_FILL"/>
</g>
</svg>
