
<svg xmlns="http://www.w3.org/2000/svg" version="1.1" xmlns:xlink="http://www.w3.org/1999/xlink" preserveAspectRatio="none" x="0px" y="0px" width="550px" height="400px" viewBox="0 0 550 400">
<defs>
<g id="Layer0_0_FILL">
<path fill="#333333" stroke="none" d="
M -9.35 -106.2
L -9.55 -106.85
Q -20.35 -103 -30.1 -98.75 -14.1 -104.7 -9.35 -106.2
M -62.9 -78.1
L -63.35 -79.55 -64.4 -79.15 -62.9 -78.1
M 20.85 -49.5
L 5.75 -83.25
Q 3.1 -88.3 -4.5 -98.25
L -8.6 -97.85
Q -10.4 -97.95 -11.5 -100.2
L -20.35 -96.2
Q -23.95 -94.7 -58.95 -81.15
L -57.7 -80.5 -58.2 -80.25
Q -60.5 -78.85 -60.5 -76 -60.5 -74.65 -53.25 -59.85
L -49.2 -52.05
Q -47.35 -44.55 -46.65 -43.1 -44.2 -38.6 -39.8 -28.5 -31.65 -31.9 -12.25 -39.05 14.85 -49.05 20.85 -49.5
M 32.95 -26.15
L 30 -30.9
Q 26.35 -29.1 -1.25 -18.15 -28.65 -7.3 -30.85 -6.75
L -28.5 0.05 3.7 -11.05
Q 29.95 -19.95 35.95 -21.7 35.1 -22.8 32.95 -26.15 Z"/>

<path fill="#000000" stroke="none" d="
M 61 -29
L 41.5 -23.45
Q 36.15 -31.35 22.75 -61.15 8.5 -92.75 -1.9 -109.65
L -9.55 -106.85 -9.35 -106.2
Q -14.1 -104.7 -30.1 -98.75 -50 -90.3 -56.8 -87.5
L -63.3 -84.85 -63.9 -85.05
Q -67.15 -82.8 -71.7 -79.9
L -71.65 -79.7 -71.25 -79.5
Q -71.4 -79.35 -70.95 -79.25
L -61.8 -63.05 -61.5 -62.1
Q -59.3 -54.95 -55.05 -46.25
L -45.75 -27.75
Q -39.1 -14.15 -32.9 1.75
L -47.6 8.6
Q -53.5 11.3 -53.5 12.35 -53.5 15.5 -51 15.5
L 14.15 -5.2
Q 43.45 -13.65 54.25 -19.35 61.5 -23.15 61.5 -26.75 61.5 -28.35 61 -29
M 22.25 -46.4
Q 25.2 -40.15 27.85 -34.95 13.3 -31.4 -4.45 -24.2 -19.3 -18.2 -32.6 -11.2
L -37.9 -24.05
Q -33.85 -25 -7.45 -34.9 18.45 -44.55 22.25 -46.4
M 30 -30.9
L 32.95 -26.15
Q 35.1 -22.8 35.95 -21.7 29.95 -19.95 3.7 -11.05
L -28.5 0.05 -30.85 -6.75
Q -28.65 -7.3 -1.25 -18.15 26.35 -29.1 30 -30.9
M 5.75 -83.25
L 20.85 -49.5
Q 14.85 -49.05 -12.25 -39.05 -31.65 -31.9 -39.8 -28.5 -44.2 -38.6 -46.65 -43.1 -47.35 -44.55 -49.2 -52.05
L -53.25 -59.85
Q -60.5 -74.65 -60.5 -76 -60.5 -78.85 -58.2 -80.25
L -57.7 -80.5 -58.95 -81.15
Q -23.95 -94.7 -20.35 -96.2
L -11.5 -100.2
Q -10.4 -97.95 -8.6 -97.85
L -4.5 -98.25
Q 3.1 -88.3 5.75 -83.25
M -63.35 -79.55
L -62.9 -78.1 -64.4 -79.15 -63.35 -79.55 Z"/>
</g>
</defs>

<g transform="matrix( 1, 0, 0, 1, 0,0) ">
<use xlink:href="#Layer0_0_FILL"/>
</g>
</svg>
