
<svg xmlns="http://www.w3.org/2000/svg" version="1.1" xmlns:xlink="http://www.w3.org/1999/xlink" preserveAspectRatio="none" x="0px" y="0px" width="550px" height="400px" viewBox="0 0 550 400">
<defs>
<g id="Layer0_0_FILL">
<path fill="#000000" fill-opacity="0.25098039215686274" stroke="none" d="
M 0.85 15.35
L 1.9 15.65 -14.5 2.6
Q -20.95 -2.5 -23.65 -2.5 -30.3 -2.5 -30.3 14.25 -30.3 44.05 -26.5 53.9 -24.9 58.05 -21.7 61.6
L -14.85 68.55 -25.25 64.45 -25.2 64.55
Q -20.55 68.85 -15.65 71.2 -12.25 72.8 -10.75 72.8
L -9.55 72.5
Q -9 72.15 -9 71.05
L -14.7 47.1
Q -20.4 23.2 -20.4 15.1
L -19.35 10.1
Q -13 10.9 -8.7 14.65 -6.6 16.45 -5.5 17 -3.5 18 -0.6 18
L 1.05 17.65 2.1 16.75 0.4 15.1 0.85 15.35
M 45.6 -56.35
L 44.4 -57 34.05 -55.6 32.75 -55.35
Q 2.05 -48.25 -12 -30.35 -16.5 -24.6 -18.75 -18.4 -20.2 -14.5 -20.2 -12.7 -20.2 -9.1 -18.05 -6.6 -16.2 -4.5 -14.45 -4.5 -13.55 -4.5 -12.45 -5.5 -10.95 -6.75 -10.2 -9.25 -9.3 -12.1 -4.3 -19.7 1.85 -29.05 6.45 -31.75
L 40.7 -51.7 46.5 -54.7 45.6 -56.35 Z"/>

<path fill="#FFFFFF" fill-opacity="0.3333333333333333" stroke="none" d="
M 21.3 -57.3
L 32.75 -55.35 34.05 -55.6 34.95 -56.2
Q 35.65 -56.8 35.65 -57.55 34.75 -60 31.25 -62.4 24.45 -67.15 11.9 -67.15 -4.75 -67.15 -23.55 -59.4 -42.2 -51.75 -47.7 -43 -50.5 -40.75 -52.95 -38.05 -57.7 -32.85 -59.55 -24.55 -64.35 -1.75 -64.35 0.45 -64.35 5.3 -62.3 18.3 -60.45 30.35 -59.95 31.3 -50.9 48.85 -39.9 59.2 -31.4 67.2 -26.95 67.2 -25.8 67.2 -25.45 66.6 -25.25 66.2 -25.2 64.55
L -25.25 64.45 -14.85 68.55
Q -24.25 63.45 -32.85 54.05 -41.4 44.75 -43.15 37.8 -45.95 26.8 -49.25 15.15 -51.15 7.95 -51.15 3 -51.15 -7.7 -49.2 -14.7 -47 -22.8 -41.45 -29.6
L -33.75 -40.75 -23.8 -45.4
Q -19 -47.6 -14.35 -49.3
L 5.05 -56.45
Q 10.45 -58.25 13 -58.25
L 21.3 -57.3 Z"/>
</g>
</defs>

<g transform="matrix( 1, 0, 0, 1, 0,0) ">
<use xlink:href="#Layer0_0_FILL"/>
</g>
</svg>
