
<svg xmlns="http://www.w3.org/2000/svg" version="1.1" xmlns:xlink="http://www.w3.org/1999/xlink" preserveAspectRatio="none" x="0px" y="0px" width="550px" height="400px" viewBox="0 0 550 400">
<defs>
<g id="Layer0_0_FILL">
<path fill="#FCFB83" stroke="none" d="
M 47.75 3.75
Q 50.3 10.05 42.5 30.05 36.6 45.15 28.75 59.3 23.85 68.15 21.1 71.85 18.8 74.9 14.5 78.65 12.05 80.75 10.85 93.1
L 9.25 111 9.35 111
Q 11.05 108.95 11.3 108.95 13.8 108.95 18.9 104.85 24.05 100.65 33.15 91.65 42.2 82.6 47.3 72.85
L 55.05 57.4
Q 56.75 57.05 57.9 47.8 57.9 37 54.8 23.6 51.7 10.25 47.75 3.75 Z"/>
</g>
</defs>

<g transform="matrix( 1, 0, 0, 1, 0,0) ">
<use xlink:href="#Layer0_0_FILL"/>
</g>
</svg>
