
<svg xmlns="http://www.w3.org/2000/svg" version="1.1" xmlns:xlink="http://www.w3.org/1999/xlink" preserveAspectRatio="none" x="0px" y="0px" width="550px" height="400px" viewBox="0 0 550 400">
<defs>
<g id="Layer0_0_FILL">
<path fill="#EEEEEE" stroke="none" d="
M 135 -21
Q 115 -21 115 -1
L 115 277.95
Q 115 297.95 135 297.95
L 551 297.95
Q 571 297.95 571 277.95
L 571 -1
Q 571 -21 551 -21
L 135 -21 Z"/>
</g>

<path id="Layer0_0_1_STROKES" stroke="#CCCCCC" stroke-width="1" stroke-linejoin="round" stroke-linecap="round" fill="none" d="
M 18.771865844726562 0.003204345703125
L 410.18739318847656 0.003204345703125
Q 429.0054473876953 0.003204345703125 429.0054473876953 20.000152587890625
L 429.0054473876953 298.90758819580077
Q 429.0054473876953 318.90453643798827 410.18739318847656 318.90453643798827
L 18.771865844726562 318.90453643798827
Q -0.0461883544921875 318.90453643798827 -0.0461883544921875 298.90758819580077
L -0.0461883544921875 20.000152587890625
Q -0.0461883544921875 0.003204345703125 18.771865844726562 0.003204345703125 Z"/>
</defs>

<g transform="matrix( 0.9409027099609375, 0, 0, 0.999847412109375, -108.25,21) ">
<use xlink:href="#Layer0_0_FILL"/>

<use xlink:href="#Layer0_0_1_STROKES" transform="matrix( 1.06280517578125, 0, 0, 1.000152587890625, 115,-21) "/>
</g>
</svg>
