
<svg xmlns="http://www.w3.org/2000/svg" version="1.1" xmlns:xlink="http://www.w3.org/1999/xlink" preserveAspectRatio="none" x="0px" y="0px" width="550px" height="400px" viewBox="0 0 550 400">
<defs>
<g id="Layer0_0_FILL">
<path fill="#CCCCCC" stroke="none" d="
M 32.15 82.05
L 36.25 82.8
Q 36.75 82.8 38.25 83.85
L 37.9 84.2
Q 39.65 86.35 39.65 87.7 39.65 88.7 39.4 88.4
L 37.55 88.45 38.2 89.25
Q 38.55 89.75 38.55 90.4 38.55 91.4 37.35 92.5 36.05 93.7 34.4 93.7
L 31.6 93.6 31.6 90.9 31 90.35 30.6 89.45 32 87.95 28.8 87.8 28.9 86.05 29.05 85.25 27.9 85.25 27.6 84.15
Q 28.25 82.2 30.9 82.05
L 22.5 82 25.6 83.9
Q 25.3 84.8 24.8 84.9
L 26.25 88.7 26.5 90.05
Q 26.5 92.4 25.55 101.9
L 44.8 101.3
Q 44.8 92.45 44.25 88.6
L 44.1 98.85 42.65 99.25
Q 41.8 99.15 41.7 98
L 32.65 99 30.5 98.75
Q 30.5 97.95 30.1 97.6
L 31.15 96.95
Q 36.5 96.95 40.3 93.35 44.1 89.75 44.1 84.7 44.55 83 44.95 82.6 46.05 84.45 47 89.6 48.15 96 47.35 101.05 55.05 99.55 62.85 99 65.15 98.6 65.95 97.6 66.85 96.5 66.85 93.95 66.85 82.7 65.35 78.45
L 61.2 79.6 61.2 79.75 61.3 80.35 61.65 79.85 61.15 80.8 60.8 91.6
Q 61.1 92.5 60.75 92.85
L 60.7 93.75 65.65 93.55 65.1 94.15 59.75 96.3
Q 54.65 98 52.1 98
L 51.05 97.8
Q 50.7 97.55 50.7 96.75
L 50.75 95.65 49.95 95.55 49.85 94.4
Q 49.85 93.9 50.7 93.5
L 53.95 92.5
Q 52.15 92.5 50.85 91.6 49.55 90.65 49.55 89.3 48.25 88.8 47.6 88.3
L 47.4 88.05
Q 48.4 87.4 50.7 87.05
L 53.2 86.85
Q 54.8 86.35 56.25 87.3 57.7 88.25 57.7 89.85 57.7 91.25 55.15 92.3
L 59 91.85 57.35 84.55
Q 55.25 85.95 49.45 85.9
L 48.15 84.55 47.7 83.7 60.45 79.8
Q 46.45 82 32.15 82.05
M 12.45 84.3
L 12.35 83.25 12.45 82.5 17.9 81.8 1.55 79.6 1.4 95.9
Q 1.4 96.45 2.55 96.8
L 4.5 97.55 4.5 97.3
Q 3.75 96.7 3.05 94.5 2.05 91.2 2.05 86.3 2.05 84.25 2.8 82.6 3.8 80.45 5.75 80.7
L 5.85 81.05 5.9 82.25 6.75 81
Q 7.95 81.75 8.3 83
L 8.5 84.8 7.75 89.25
Q 7 93.9 7 95.55 7 96.5 7.8 98.55
L 21.5 101.5 21.3 101.1 21 99.5 20.95 98.45 14.05 97.95
Q 13.35 97.75 11.5 96.3
L 17.35 94.15 20.95 94.9 21.2 94.9 21.9 88.7 19.75 88.4
Q 19.65 90.95 17.75 92.4 16.25 93.5 14.65 93.5
L 13.25 93.3 13.1 90.2
Q 13.1 88.95 13.8 88.05 14.43984375 87.1640625 15.35 87.15 14.2892578125 87.1392578125 13.5 86.35 12.7 85.5 12.7 84.3
L 12.45 84.3
M -19.35 96.15
L -18.45 96.1 -17.95 89.85 -20.8 89.8 -20 92.5
Q -19.35 94.8 -19.35 95.5
L -19.35 96.15
M -15.85 73.65
L -20.25 73.4 -20.55 81.95 -16.95 81.5 -15.85 73.65
M -15.3 54
L -19.55 53.75 -19.85 62.25 -19.6 62.2 -19.6 61.8 -16.9 62.2 -14.5 64.1
Q -13.7 58.9 -13.6 53
L -15.3 54
M -14.7 27.6
L -16.85 27.3 -18.7 26.65
Q -18.7 30.55 -18.85 32.4
L -14.4 32.35 -14.7 27.6
M -14.15 36.8
L -18.95 36.25 -19.15 41.8
Q -17.15 42.2 -15.9 42.8
L -13.75 44.4 -14.15 36.8
M -18.85 13.45
Q -18.6 16.85 -18.6 22.25
L -15.5 21.9 -15.6 23.1 -15 23.7 -15.05 13.6 -18.85 13.45
M -16.6 5.95
L -19.35 6 -19.15 8.45 -14.9 8.75 -14.85 5.55 -16.6 5.95
M -14.5 -6
L -19.4 -5.75 -19.75 0.05 -19.7 1.05 -18 0.65
Q -17.65 0.65 -15.95 1.85
L -14.75 2 -14.5 -6
M -18.55 -15.2
L -16.8 -15.55 -14.3 -15.3 -14.2 -18.9 -18.15 -19.05 -18.55 -15.2 Z"/>
</g>
</defs>

<g transform="matrix( 1, 0, 0, 1, 0,0) ">
<use xlink:href="#Layer0_0_FILL"/>
</g>
</svg>
