
<svg xmlns="http://www.w3.org/2000/svg" version="1.1" xmlns:xlink="http://www.w3.org/1999/xlink" preserveAspectRatio="none" x="0px" y="0px" width="550px" height="400px" viewBox="0 0 550 400">
<defs>
<g id="Graphics_Symbol_628_0_Layer2_0_FILL">
<path fill="#000000" stroke="none" d="
M 57.45 22.25
Q 54.1 9.9 51.7 5.1 49.15 0 46 0 26.8 0 16.1 21.65 7.75 38.6 7.75 58.7
L 8.2 65.75
Q 8.65 71.8 7.85 87.45 7.05 103.05 5.45 111.05 3.8 119 -0.35 128.45 -4.45 137.6 -4.45 138.3 -4.45 141.45 -1.75 142.8 0.6 143.95 5.3 143.95 6.75 143.95 10.15 142.4 14.65 140.2 17.45 139 28.65 134 38.35 134 44.1 134 50 136.2 56.05 138.45 59.2 141.95
L 62.7 142.65 70.35 137.65
Q 75.7 134.2 79 131.25 89 122.35 89 111.75 89 100.5 84.75 92.5 81.9 87.15 75.5 80.55 69.05 73.9 67 69.4 64.95 64.9 63.45 59.9 61.95 54.9 60.15 40.7 58.35 26.35 57.45 22.25
M 82.45 94.35
Q 85.25 96.85 86.05 98.4 87.2 100.55 87.2 104.75 87.2 115.4 79.8 126.6 71.7 138.95 61.8 138.95 60.05 138.95 58.3 137.8
L 54.55 135.25
Q 48.1 131.5 35 131.5 24.1 131.5 12.5 136.6
L 4.85 140.1
Q 1.15 141.7 -1 141.7
L -2 141.6
Q -2.3 141.5 -2.3 138.85 -2.3 137.7 -0.2 134.2
L 5.1 125
Q 13.85 108.45 19.25 84.75 18.4 85.85 14.2 98.2
L 8.65 114.6 8.55 114.65
Q 10.4 103.5 11 97.35 11.5 91.95 11.5 85.25 11.5 81.6 10.9 71.4 9.75 56 9.75 54.3 9.75 26.9 23.35 12.55 28.5 7.15 34.95 4.3 40.3 2 45 2 48.95 2 50.95 7.5 52.9 12.95 55.75 35.9 58.6 58.85 66.2 72.75 73.8 86.65 82.45 94.35
M 37.95 82.1
Q 35.3 85.75 32.35 88.7
L 33.95 87.2
Q 41.8 79.95 42.4 79.55 46 77 56.8 72.55
L 55.6 72.35 55.4 72.25
Q 45.4 73.2 41.6 77.25 40.85 78.05 37.95 82.1 Z"/>
</g>

<g id="Graphics_Symbol_628_0_Layer1_0_FILL">
<path fill="#000000" fill-opacity="0.25098039215686274" stroke="none" d="
M 50.25 5.75
Q 48.3 -0.2 40.7 0.25 33.15 0.7 23.05 12.5 12.95 24.3 12.1 32.75 11.2 32.75 8.95 41.95 7.8 46.6 7.95 52.25 6.8 59.95 9.65 113.75 9.65 117 2.65 126.25 -4.35 135.45 -4 139.05 -3.65 142.65 -2.25 142.9
L 6 142.25
Q 12.85 141.35 22.05 136.75 31.25 132.15 36.65 132.15 43.7 132.15 52.85 135.7
L 61.7 139.25
Q 70.4 138.95 78.45 131.15 86.5 123.3 88.3 112.85 90.1 102.35 86.85 96.45 84.6 92.3 79.2 86.85 72.3 79.85 70.4 77.4 65.6 71.35 63.5 64.3 61.8 58.65 59.15 43.2 56.5 27.7 54.35 19.7
L 50.25 5.75
M 33.25 79.75
Q 29.85 85.4 29.85 94.2
L 30.05 100.15 30.85 100.4 32.4 100.6
Q 34.5 100.6 38.55 97.15 42.35 93.95 42.35 93.1
L 42.35 92.8
Q 42.35 91.8 45.25 90.45 48.2 89.1 51.2 89.1 64.7 89.1 71.9 99.55 76.9 106.8 76.9 113.75 76.9 121.85 59.8 121.85 33.8 121.85 24.4 112.8 18.35 107 18.35 94.85 20.45 76.6 24.15 58.4 31.6 22.1 39.7 22.1 44.3 22.1 48.25 34.1 51.7 44.55 51.7 52.1 51.7 59.8 48.3 64.75 46.4 67.5 40.8 71.95 35.45 76.2 33.25 79.75 Z"/>
</g>

<g id="Graphics_Symbol_628_0_Layer0_0_FILL">
<path fill="#FFFFFF" fill-opacity="0.25098039215686274" stroke="none" d="
M 54.1 112.3
Q 56.7 112.3 58.95 110.3 61.6 107.95 61.6 104.2 60.95 102.2 59.1 100.6 55.4 97.45 49.5 98.9 49.5 103.25 48.05 104.45 46.6 105.7 46.6 106.25 46.6 107.4 48.25 109.45 50.55 112.3 54.1 112.3
M 37.9 43.1
Q 34.65 43.1 32.95 47.65 31.65 51.2 31.65 56.1 31.65 56.95 32.4 58.65 33.15 60.35 33.55 60.35 35.55 60.35 38.7 56.8 42.05 53 42.05 49.9 42.05 43.1 37.9 43.1 Z"/>
</g>

<g id="MovieClips_Symbol_585_4_Layer0_0_FILL">
<path fill="#D20000" stroke="none" d="
M 86.05 98.4
Q 85.25 96.85 82.45 94.35 73.8 86.65 66.2 72.75 58.6 58.85 55.75 35.9 52.9 12.95 50.95 7.5 48.95 2 45 2 40.3 2 34.95 4.3 28.5 7.15 23.35 12.55 9.75 26.9 9.75 54.3 9.75 56 10.9 71.4 11.5 81.6 11.5 85.25 11.5 91.95 11 97.35 10.5 102.3 4.95 125.25
L 5 125.2 -0.2 134.2
Q -2.3 137.7 -2.3 138.85 -2.3 141.5 -2 141.6
L -1 141.7
Q 1.15 141.7 4.85 140.1
L 12.5 136.6
Q 24.1 131.5 35 131.5 48.1 131.5 54.55 135.25
L 58.3 137.8
Q 60.05 138.95 61.8 138.95 71.7 138.95 79.8 126.6 87.2 115.4 87.2 104.75 87.2 100.55 86.05 98.4 Z"/>
</g>

<g id="MovieClips_Symbol_590_0_Layer0_0_FILL">
<path fill="#000000" stroke="none" d="
M 1.05 -0.95
L 1.05 -1 -0.05 -5.35 -1.1 -1 -5.5 -1.25 -5.5 -1.2 -5.05 -0.9 -4.6 -0.6 -1.95 1.1 -3.55 5.3 -0.1 2.45 -0.05 2.5 3.4 5.35 1.7 1.2 5.5 -1.25 5.5 -1.3 4.7 -1.25 2.05 -1 1.65 -1 1.2 -0.95 1.05 -0.95 Z"/>
</g>
</defs>

<g transform="matrix( 1, 0, 0, 1, -33.5,-72.6) ">
<g transform="matrix( 1, 0, 0, 1, 0,0) ">
<g transform="matrix( 1, 0, 0, 1, 0,0) ">
<use xlink:href="#Graphics_Symbol_628_0_Layer2_0_FILL"/>
</g>

<g transform="matrix( 1, 0, 0, 1, 0,0) ">
<use xlink:href="#Graphics_Symbol_628_0_Layer1_0_FILL"/>
</g>

<g transform="matrix( 1, 0, 0, 1, 0,0) ">
<use xlink:href="#Graphics_Symbol_628_0_Layer0_0_FILL"/>
</g>
</g>
</g>

<g transform="matrix( 1, 0, 0, 1, -32.9,-71.25) ">
<g transform="matrix( 1, 0, 0, 1, 0,0) ">
<use xlink:href="#MovieClips_Symbol_585_4_Layer0_0_FILL"/>
</g>
</g>

<g transform="matrix( 1, 0, 0, 1, -33.5,-72.6) ">
<g transform="matrix( 0.3797454833984375, -1.41729736328125, 1.0492095947265625, 0.2811279296875, 20.85,33.5) ">
<g transform="matrix( 1, 0, 0, 1, 0,0) ">
<use xlink:href="#MovieClips_Symbol_590_0_Layer0_0_FILL"/>
</g>
</g>

<g transform="matrix( -1.46728515625, 0, -0.0000152587890625, -1.1930084228515625, 41.45,12.5) ">
<g transform="matrix( 1, 0, 0, 1, 0,0) ">
<use xlink:href="#MovieClips_Symbol_590_0_Layer0_0_FILL"/>
</g>
</g>

<g transform="matrix( 1.027099609375, 0, 0, 1.46728515625, 49.5,44.25) ">
<g transform="matrix( 1, 0, 0, 1, 0,0) ">
<use xlink:href="#MovieClips_Symbol_590_0_Layer0_0_FILL"/>
</g>
</g>

<g transform="matrix( 0.733642578125, 1.27069091796875, -1.27069091796875, 0.733642578125, 30.5,60) ">
<g transform="matrix( 1, 0, 0, 1, 0,0) ">
<use xlink:href="#MovieClips_Symbol_590_0_Layer0_0_FILL"/>
</g>
</g>

<g transform="matrix( 0.9959564208984375, -0.57501220703125, 0.7336273193359375, 1.27069091796875, 63,83.75) ">
<g transform="matrix( 1, 0, 0, 1, 0,0) ">
<use xlink:href="#MovieClips_Symbol_590_0_Layer0_0_FILL"/>
</g>
</g>

<g transform="matrix( 1.10711669921875, 0, 0, 1.46728515625, 77.5,102.75) ">
<g transform="matrix( 1, 0, 0, 1, 0,0) ">
<use xlink:href="#MovieClips_Symbol_590_0_Layer0_0_FILL"/>
</g>
</g>

<g transform="matrix( 0.8111419677734375, 0.8111419677734375, -1.0374908447265625, 1.0375213623046875, 70,124.25) ">
<g transform="matrix( 1, 0, 0, 1, 0,0) ">
<use xlink:href="#MovieClips_Symbol_590_0_Layer0_0_FILL"/>
</g>
</g>

<g transform="matrix( -0.733642578125, -1.27069091796875, 1.27069091796875, -0.733642578125, 45,104.3) ">
<g transform="matrix( 1, 0, 0, 1, 0,0) ">
<use xlink:href="#MovieClips_Symbol_590_0_Layer0_0_FILL"/>
</g>
</g>

<g transform="matrix( 0, 1.46728515625, -1.08331298828125, 0, 19.35,116.5) ">
<g transform="matrix( 1, 0, 0, 1, 0,0) ">
<use xlink:href="#MovieClips_Symbol_590_0_Layer0_0_FILL"/>
</g>
</g>
</g>
</svg>
