
<svg xmlns="http://www.w3.org/2000/svg" version="1.1" xmlns:xlink="http://www.w3.org/1999/xlink" preserveAspectRatio="none" x="0px" y="0px" width="550px" height="400px" viewBox="0 0 550 400">
<defs>
<g id="MovieClips_Symbol_590_0_Layer0_0_FILL">
<path fill="#000000" stroke="none" d="
M 1.05 -0.95
L 1.05 -1 -0.05 -5.35 -1.1 -1 -5.5 -1.25 -5.5 -1.2 -5.05 -0.9 -4.6 -0.6 -1.95 1.1 -3.55 5.3 -0.1 2.45 -0.05 2.5 3.4 5.35 1.7 1.2 5.5 -1.25 5.5 -1.3 4.7 -1.25 2.05 -1 1.65 -1 1.2 -0.95 1.05 -0.95 Z"/>
</g>
</defs>

<g transform="matrix( 1, 0, 0, 1, -33.5,-72.6) ">
<g transform="matrix( 0.3797454833984375, -1.41729736328125, 1.0492095947265625, 0.2811279296875, 20.85,33.5) ">
<g transform="matrix( 1, 0, 0, 1, 0,0) ">
<use xlink:href="#MovieClips_Symbol_590_0_Layer0_0_FILL"/>
</g>
</g>

<g transform="matrix( -1.46728515625, 0, -0.0000152587890625, -1.1930084228515625, 41.45,12.5) ">
<g transform="matrix( 1, 0, 0, 1, 0,0) ">
<use xlink:href="#MovieClips_Symbol_590_0_Layer0_0_FILL"/>
</g>
</g>

<g transform="matrix( 1.027099609375, 0, 0, 1.46728515625, 49.5,44.25) ">
<g transform="matrix( 1, 0, 0, 1, 0,0) ">
<use xlink:href="#MovieClips_Symbol_590_0_Layer0_0_FILL"/>
</g>
</g>

<g transform="matrix( 0.733642578125, 1.27069091796875, -1.27069091796875, 0.733642578125, 30.5,60) ">
<g transform="matrix( 1, 0, 0, 1, 0,0) ">
<use xlink:href="#MovieClips_Symbol_590_0_Layer0_0_FILL"/>
</g>
</g>

<g transform="matrix( 0.9959564208984375, -0.57501220703125, 0.7336273193359375, 1.27069091796875, 63,83.75) ">
<g transform="matrix( 1, 0, 0, 1, 0,0) ">
<use xlink:href="#MovieClips_Symbol_590_0_Layer0_0_FILL"/>
</g>
</g>

<g transform="matrix( 1.10711669921875, 0, 0, 1.46728515625, 77.5,102.75) ">
<g transform="matrix( 1, 0, 0, 1, 0,0) ">
<use xlink:href="#MovieClips_Symbol_590_0_Layer0_0_FILL"/>
</g>
</g>

<g transform="matrix( 0.8111419677734375, 0.8111419677734375, -1.0374908447265625, 1.0375213623046875, 70,124.25) ">
<g transform="matrix( 1, 0, 0, 1, 0,0) ">
<use xlink:href="#MovieClips_Symbol_590_0_Layer0_0_FILL"/>
</g>
</g>

<g transform="matrix( -0.733642578125, -1.27069091796875, 1.27069091796875, -0.733642578125, 45,104.3) ">
<g transform="matrix( 1, 0, 0, 1, 0,0) ">
<use xlink:href="#MovieClips_Symbol_590_0_Layer0_0_FILL"/>
</g>
</g>

<g transform="matrix( 0, 1.46728515625, -1.08331298828125, 0, 19.35,116.5) ">
<g transform="matrix( 1, 0, 0, 1, 0,0) ">
<use xlink:href="#MovieClips_Symbol_590_0_Layer0_0_FILL"/>
</g>
</g>
</g>
</svg>
