
<svg xmlns="http://www.w3.org/2000/svg" version="1.1" xmlns:xlink="http://www.w3.org/1999/xlink" preserveAspectRatio="none" x="0px" y="0px" width="550px" height="400px" viewBox="0 0 550 400">
<defs>
<g id="Graphics_Symbol_231_0_Layer0_0_FILL">
<path fill="#776955" stroke="none" d="
M 15.85 11.95
Q 16.65 10.55 17.8 9.8
L 16.1 8.8
Q 15.2 9.5 13.45 9.75 11 10.15 10.35 11.5
L 9.45 13.2 9.85 13.3 10.1 13
Q 10.65 13.4 11.85 15.35 12.85 17 13.85 17.25 14.75 13.9 15.85 11.95
M 31.75 17.4
L 32.65 16.6 30.65 15.85 28.35 16
Q 25.65 15.85 24.85 17.25
L 23.6 19.25 24.3 19.9
Q 26.6 21.85 28 21.85 28.65 21.85 31.75 17.4
M 61.15 40
Q 61.55 40 63.4 35.05 63.4 33.25 59.7 30.55 58.45 32.25 54.85 32.2
L 44 31.75
Q 32.65 31.75 11.8 31.05
L -20.05 29.55 -19.75 31.5
Q -18.5 39 -17 39
L 25.75 37.75 49.65 38.9 61.15 40 Z"/>
</g>
</defs>

<g transform="matrix( 1, 0, 0, 1, -28.4,-10.7) ">
<g transform="matrix( 1, 0, 0, 1, 0,0) ">
<g transform="matrix( 1, 0, 0, 1, 0,0) ">
<use xlink:href="#Graphics_Symbol_231_0_Layer0_0_FILL"/>
</g>
</g>
</g>
</svg>
