
<svg xmlns="http://www.w3.org/2000/svg" version="1.1" xmlns:xlink="http://www.w3.org/1999/xlink" preserveAspectRatio="none" x="0px" y="0px" width="550px" height="400px" viewBox="0 0 550 400">
<defs>
<g id="Graphics_Symbol_612_0_Layer0_0_FILL">
<path fill="#EEE9D2" stroke="none" d="
M 44.5 78.85
Q 44.5 76.35 43.9 74.65 43.3 72.85 42.35 72.85 41.5 72.85 40.9 74.65 40.3 76.35 40.3 78.85 40.3 81.3 40.9 83.1 41.5 84.85 42.35 84.85 43.3 84.85 43.9 83.1 44.5 81.3 44.5 78.85
M 50.15 79.15
Q 50.15 77 49.65 75.5 49.15 74 48.35 74 47.6 74 47.05 75.5 46.55 77 46.55 79.15 46.55 81.25 47.05 82.8 47.6 84.35 48.35 84.35 49.15 84.35 49.65 82.8 50.15 81.25 50.15 79.15
M 37.95 73.8
Q 37.3 71.85 36.3 71.85 35.35 71.85 34.7 73.8 34.05 75.65 34.05 78.35 34.05 81 34.7 82.95 35.35 84.85 36.3 84.85 37.3 84.85 37.95 82.95 38.6 81 38.6 78.35 38.6 75.65 37.95 73.8
M 22.35 69.1
Q 21.2 69.15 20.4 71.3 19.55 73.45 19.55 76.6 19.55 79.7 20.4 81.9 21.2 84.1 22.4 84.1 23.55 84.1 24.4 81.9 25.2 79.7 25.2 76.6 25.2 73.45 24.4 71.3 23.55 69.15 22.45 69.1
L 22.35 69.1
M 31.6 72.7
Q 30.75 70.7 29.6 70.7 28.4 70.7 27.6 72.7 26.75 74.75 26.75 77.6 26.75 80.45 27.6 82.45 28.4 84.5 29.6 84.5 30.75 84.5 31.6 82.45 32.4 80.45 32.4 77.6 32.4 74.75 31.6 72.7
M 0.05 -8.65
L 0.8 -9
Q -3.1 -8.55 -5.35 -7.55 -7.3 -6.75 -8.6 -6.75
L -9.45 -7 -10.45 -7.2 -9.65 -6.3 -9.35 -5.8 -4.25 -3 6.35 6.55 5.85 4.5
Q 5.05 0.7 4.1 -0.65
L 1.1 -4.95
Q -0.35 -7.2 -0.35 -7.8 -0.35 -8.35 0.05 -8.65
M 36.25 -6.65
L 24.95 -8.55
Q 27.65 -6.15 29.8 2.5 30.9 6.85 31.4 10.8 31.4 11.35 30.9 11.5
L 29.8 11.6
Q 27 6.65 25.85 3.95 22.5 -3.55 22.5 -8.85
L 12.4 -9.35 16.7 -0.8
Q 19.85 6.05 19.85 9.1 19.85 9.55 19.45 9.85 19.05 10.2 18.5 10.2 17.85 10.2 16.95 7.75
L 13.25 -0.6
Q 11 -5.75 11.05 -9.35
L 1.5 -9.05
Q 4.5 -4.8 6.65 0.65
L 9.75 8.8 9.25 9.15
Q 43.85 15.55 51.05 17.6 56.45 19.15 64.45 22.95 63.5 21 63.5 19.9
L 63.8 16.7
Q 64.05 14.2 64.2 13.85
L 62.7 12.4
Q 62.3 13.4 61.25 17.65 60.8 19.3 59.25 19.3
L 58.45 19.2 58.25 19.05 58.25 17.95
Q 58.25 17.4 58.95 15.45 59.75 13.1 61 10.6
L 56.45 5.55
Q 56.45 7 55.35 11.35 54.05 16.5 52.75 18.1
L 52.1 17.55 51.85 17.45 51.65 15.95
Q 54.15 5.05 54.25 3.2
L 50.95 0.35
Q 50.15 0 48.5 -1.1 48.55 0.3 46.5 7 44.5 13.75 43.85 14.2
L 43.15 12.8
Q 42.8 11.8 42.8 10.95 43.15 8.15 43.85 5.2 45.2 -0.6 46.85 -2.05
L 41.7 -4.6 37.55 -6.3
Q 38.2 -3.3 38.7 -2.85
L 38.85 9.35
Q 38.85 10.95 38.55 11.5
L 37.75 12.45
Q 35.45 11.3 35.45 4.35
L 36.25 -6.65 Z"/>
</g>
</defs>

<g transform="matrix( 1, 0, 0, 1, -33.5,-72.6) ">
<g transform="matrix( 1, 0, 0, 1, 0,0) ">
<g transform="matrix( 1, 0, 0, 1, 0,0) ">
<use xlink:href="#Graphics_Symbol_612_0_Layer0_0_FILL"/>
</g>
</g>
</g>
</svg>
