
<svg xmlns="http://www.w3.org/2000/svg" version="1.1" xmlns:xlink="http://www.w3.org/1999/xlink" preserveAspectRatio="none" x="0px" y="0px" width="550px" height="400px" viewBox="0 0 550 400">
<defs>
<g id="Layer0_0_FILL">
<path fill="#000000" stroke="none" d="
M -67 -4.85
L -66.95 -5
Q -66.9 -5.7 -67 -4.85
M 44.6 -53.25
L 45.55 -52.45 35.55 -61.7
Q 24.95 -70.6 12.7 -77.5
L -20.4 -93.2
Q -21.45 -92.55 -21.75 -91 -22.55 -87.25 -26.5 -86.4 -34.2 -85.25 -41.65 -79.85 -49.15 -74.45 -54.15 -56.45 -59.15 -38.45 -52.1 -9.95 -52.65 -7.05 -54.6 -4.75 -62.7 5 -74.7 9.4 -84.95 13.15 -91.35 20.5 -91.25 21.95 -91.6 23.35 -92.9 28.55 -88.95 32 -83.5 36.65 -76.6 35.3 -66.6 33.2 -57.35 28.35 -28.4 13.15 1.85 1
L 20 -6.45
Q 40.6 -15.3 60.85 -25 57.35 -40.25 46.5 -51.45
L 44.6 -53.25
M 7.2 -44.25
Q 11.95 -23.75 17.6 -13.15
L 19.5 -9.25
Q 0.75 -1.7 -13.8 2.75 -27.25 -38.05 -18.95 -80
L -18.5 -84.85
Q 2.4 -64.8 7.2 -44.25
M 52.1 -37.4
L 54.3 -25.95
Q 37.95 -17 20.85 -9.8 17 -29.25 8.45 -51.4 2.95 -65.75 -6.45 -78.05 -9 -81.35 -12.55 -83.75 49.1 -54.05 52.1 -37.4
M -23.8 -83.5
L -20.25 -84.6 -22 -78.25
Q -32.05 -36.4 -16.15 3.55 -31.65 8.75 -45.9 16.6 -58.4 23.35 -71.55 28.8 -85.15 34.4 -88.9 20.7
L -49.85 -0.65
Q -48.05 -6.65 -49.45 -12.85 -54.25 -34.25 -49.9 -55.95 -45.45 -77.95 -23.8 -83.5 Z"/>
</g>
</defs>

<g transform="matrix( 1, 0, 0, 1, 0,0) ">
<use xlink:href="#Layer0_0_FILL"/>
</g>
</svg>
