
<svg xmlns="http://www.w3.org/2000/svg" version="1.1" xmlns:xlink="http://www.w3.org/1999/xlink" preserveAspectRatio="none" x="0px" y="0px" width="550px" height="400px" viewBox="0 0 550 400">
<defs>
<g id="Layer0_0_FILL">
<path fill="#000000" fill-opacity="0.25098039215686274" stroke="none" d="
M 60.75 -25.45
L 59.75 -28.6
Q 56.35 -39.75 47.3 -47.55 23.05 -74.65 -2.05 -83.95 -27.15 -93.3 -45 -71.55 -62.9 -49.9 -49.7 -1.35 -71.05 7.6 -89.75 21.5
L -87.65 24.45
Q -66.6 19.95 -50.65 6.2 -40.05 -3 -39.45 -17.25 -38.6 -36.95 -33.2 -57.85 -27.85 -78.8 -6.55 -69.5 14.75 -60.25 24.5 -53.1 34.25 -46 40.3 -35 46.3 -24.05 60.75 -25.45 Z"/>
</g>
</defs>

<g transform="matrix( 1, 0, 0, 1, 0,0) ">
<use xlink:href="#Layer0_0_FILL"/>
</g>
</svg>
