
<svg xmlns="http://www.w3.org/2000/svg" version="1.1" xmlns:xlink="http://www.w3.org/1999/xlink" preserveAspectRatio="none" x="0px" y="0px" width="550px" height="400px" viewBox="0 0 550 400">
<defs>
<g id="Layer0_0_FILL">
<path fill="#FFFFFF" stroke="none" d="
M 17.15 5.15
Q 17.8 4.45 17.1 3.75 16.45 3.2 15.25 3.05 13.8 3 13.2 2.95 11.7 2.8 8.7 2.3 7.35 2 4.6 1.15 1.9 0.3 0.45 0 0.1 -0.05 0 0.4 -0.1 0.85 0.15 1 2.7 2.8 8.55 4.3 10.55 4.85 12.95 5.25 14.7 5.6 15.1 5.6 16.4 5.7 17.15 5.15 Z"/>
</g>
</defs>

<g transform="matrix( 1, 0, 0, 1, 0,0) ">
<use xlink:href="#Layer0_0_FILL"/>
</g>
</svg>
