
<svg xmlns="http://www.w3.org/2000/svg" version="1.1" xmlns:xlink="http://www.w3.org/1999/xlink" preserveAspectRatio="none" x="0px" y="0px" width="550px" height="400px" viewBox="0 0 550 400">
<defs>
<g id="Layer0_0_FILL">
<path fill="#010101" stroke="none" d="
M 168.45 92.85
Q 166.55 94.95 163.85 95.8 153.05 89.55 142.85 96.15 146.75 100.2 150.45 103.25 158.5 110.15 165.35 103.25 159.05 105.85 155.9 102.25
L 156.6 99.45 161.9 100.7 169.65 105.85 169.8 107.45 167.35 110.75 145.7 116.05
Q 153.65 119.45 162.7 115.3 168.8 112.75 171.85 106.75
L 163.9 99.75 172.85 89.55 165.85 78.55
Q 166.45 80.85 166.45 83.4
L 171 88.05
Q 170.35 90.75 168.45 92.85
M 162.1 99.6
L 162.1 99.65 156.9 98.1 157.4 94.25 163.4 96.6 162.1 99.6
M 156.2 93.9
L 155.2 97.6 145.3 95.4 156.2 93.9
M 155 99
L 154.4 102.7 145.45 96.95 155 99 Z"/>
</g>
</defs>

<g transform="matrix( 1, 0, 0, 1, 0,0) ">
<use xlink:href="#Layer0_0_FILL"/>
</g>
</svg>
