
<svg xmlns="http://www.w3.org/2000/svg" version="1.1" xmlns:xlink="http://www.w3.org/1999/xlink" preserveAspectRatio="none" x="0px" y="0px" width="550px" height="400px" viewBox="0 0 550 400">
<defs>
<g id="Layer0_0_FILL">
<path fill="#FFFFFF" stroke="none" d="
M 156.55 99.45
L 155.95 102.25
Q 159.2 105.75 165.45 102.9
L 161.9 100.55 156.55 99.45
M 154.5 102.75
L 154.9 99.05 145.3 97.35 154.5 102.75
M 155.05 97.65
L 156 93.85 145.05 95.8 155.05 97.65
M 114.45 64.5
L 114.7 64.3 111.65 54 104.55 57.35 98.5 71 99.55 71.7
Q 110.75 77.1 114.8 66.8
L 114.45 64.5
M 110.5 68.25
L 109.5 67.65
Q 107.45 65.6 108.75 62.45 110.05 59.35 112.25 61.55 113.05 62.4 113.55 63.65 114.4 65.85 112.9 67.3 111.6 68.6 110.5 68.25
M 162.1 99.4
L 163.25 96.35 157.15 94.2 156.8 98.05 162.1 99.4 Z"/>

<path fill="#000000" stroke="none" d="
M 139.65 112.55
Q 136.1 108.25 130.95 107.05 120.5 104.95 111.05 110.2 90.8 121.3 69.3 109.85 84.55 120.7 103.1 117.15
L 103.45 125.7
Q 106.5 122.05 105.55 117.25
L 105.25 115.85
Q 123.25 102.3 139.65 112.55
M 65.35 150.3
Q 58.9 152.2 52.45 150.5 69.2 155.25 84.7 145.1 90.25 141.45 94.9 136.55 81.15 145.7 65.35 150.3
M 70.05 61.5
Q 69.6 63.7 68.85 65.15 70.65 63.8 71.65 61.15
L 58.6 55.05 47.9 53.5
Q 51.85 65.45 60.75 66.55
L 58.35 65.1
Q 53.3 61.65 50.75 55.9
L 55.55 57.2 53.95 55.8 70.05 61.5
M 157.15 73.9
Q 155.45 72.55 153.6 72.3
L 150.5 74.6 149.65 80.95
Q 158.15 87.05 159.2 78.4 159.5 75.7 157.15 73.9
M 159 79.4
L 156.75 82.25 151.15 79.95 152.75 75.6 150.8 76.05 152.25 73.7
Q 157.8 73.95 159 79.4
M 109.5 67.65
L 110.5 68.25
Q 111.6 68.6 112.9 67.3 114.4 65.85 113.55 63.65 113.05 62.4 112.25 61.55 110.05 59.35 108.75 62.45 107.45 65.6 109.5 67.65
M 111.35 53.2
L 111 53.15
Q 101.95 55.5 99.35 64.4 98.4 67.7 98.5 71
L 104.55 57.35 111.65 54 114.7 64.3
Q 115.65 65.35 114.75 64.65
L 114.45 64.5 114.8 66.8
Q 110.75 77.1 99.55 71.7
L 98.5 71 98.65 72.85
Q 105.15 77.75 112 73.55 115.4 71.5 116.4 67.8 140.35 67.45 162.45 73.6 149.9 64.1 132.75 66.25 124.45 67.1 116.4 64.8 116.2 56.2 110.4 52.4
L 111.35 53.2
M 83.4 -24.75
L 81.3 -33.25 81.05 -23.65 78.05 -22.6 81.9 -43.8
Q 72.75 -19.65 70.85 5.8 69.7 21.2 67.05 36.5
L 64.85 48.6 62.95 50.2
Q 56 44.65 47.5 46.3 43.75 47.05 40.5 48.75
L 46.95 63.2
Q 33.3 75.8 33.2 95.05 33.15 107.6 34.75 119.8 36.55 134 45.15 144.8 36.8 129.75 35.5 111.9 33.65 85.9 47.8 64.45 51.45 70.75 58.45 72.35 63.8 73.65 68.75 71.35 64 72.2 59.65 70.6 45.35 65.45 41.95 49.7 49.7 45.5 57.1 49.65 66.9 55.05 77 59.15
L 64.9 50.65 65.75 49.4 66.25 47.65 66.1 47.8 67.5 43.25 81.1 37.95 82.75 51.5 82.6 52.85 84.8 55.6 84.7 52.75 94.8 46.95 93.85 54.15 96.3 55
Q 99.7 50.4 103.45 49.9 98.85 49.45 95.2 52.9
L 95.3 45.2 84.4 51.05
Q 79.9 12.9 83.4 -24.75
M 77.95 -22.25
L 80.95 -22.2 80.85 -15.7 74.65 -11.35 77.95 -22.25
M 80.05 -13.65
L 80.45 -12.4
Q 82.2 -3.55 72.95 -1.1
L 75.5 0.5 80.65 -3 80.5 8.35 72.5 12.25 80.35 9.55 80.45 9.35
Q 80.4080078125 9.466015625 80.45 9.55
L 80.55 22.55 71.1 25.3 72.55 -1.05 72.65 -1.15 74.7 -11 80.05 -13.65
M 68.1 41.1
L 71 26.4 80.6 24.25 81 36.4 68.1 41.1
M 68.35 -52.9
L 68.45 -51.85
Q 68.75 -53.8 68.35 -52.9 Z"/>

<path fill="#952F2F" stroke="none" d="
M 68.85 65.15
Q 69.6 63.7 70.05 61.5
L 53.95 55.8 55.55 57.2 50.75 55.9
Q 53.3 61.65 58.35 65.1
L 60.75 66.55 66 66.3
Q 67.6 66 68.85 65.15
M 156.75 82.25
L 159 79.4
Q 157.8 73.95 152.25 73.7
L 150.8 76.05 152.75 75.6 151.15 79.95 156.75 82.25 Z"/>
</g>
</defs>

<g transform="matrix( 1, 0, 0, 1, 0,0) ">
<use xlink:href="#Layer0_0_FILL"/>
</g>
</svg>
