
<svg xmlns="http://www.w3.org/2000/svg" version="1.1" xmlns:xlink="http://www.w3.org/1999/xlink" preserveAspectRatio="none" x="0px" y="0px" width="550px" height="400px" viewBox="0 0 550 400">
<defs>
<g id="Layer0_0_FILL">
<path fill="#FFFFFF" fill-opacity="0.25098039215686274" stroke="none" d="
M 59.1 118.05
Q 61.55 128.6 64.5 132.45 68.05 137.1 75.1 137.1 80.65 137.1 83.45 135.1 84.35 134.45 86.2 131.8
L 59.1 118.05
M 77 42.7
Q 75.8 40.65 74 40.6 73.75 40.7 73.45 43.65
L 73.15 46.6 75.65 43.5 75.8 52.85 77.4 49.6 78.1 47.1
Q 78.1 44.6 77 42.7
M 135.95 98.9
Q 136.65 98.9 137.2 98.15 137.7 97.35 137.7 96.25 137.7 95.15 137.2 94.4 136.65 93.6 135.95 93.6 135.25 93.6 134.75 94.4 134.2 95.15 134.2 96.25 134.2 97.35 134.75 98.15 135.25 98.9 135.95 98.9
M 85.9 90.1
L 81.65 90
Q 78.85 90.75 76.9 93.4 79.6 96.4 85.05 98.65 90.7 100.95 95.85 100.95 106.2 100.95 116.65 98.2 134.3 93.55 134.3 83.25 134.3 81.55 133.5 80 132.1 77.2 128.65 77.2 127.35 77.2 124.55 80.75 121 85.2 116.65 87.55 107.9 92.2 98.5 92.2
L 85.9 90.1
M 83.15 90.6
L 83.35 90.6 83.25 90.9 83.15 90.6
M 163.95 90.65
L 164.3 84.7
Q 164.3 82.55 162.55 79.2
L 160.3 75.6 163.1 90.65 163.95 90.65 Z"/>

<path fill="#FFFFFF" stroke="none" d="
M 73.15 46.6
Q 72.8 48.7 72.8 49.45 72.8 51.4 73.6 53.05 74.3 54.35 75 54.8
L 75.8 52.85 75.65 43.5 73.15 46.6
M 76.1 37.1
L 76.1 27.4 73.3 27.4 73.3 37.1 76.1 37.1
M 75.1 13.1
L 74.45 15.25
Q 74.1 16.65 74.1 17.35 74.1 18.7 75.95 22.1
L 75.1 13.1
M 77.25 8.65
Q 77.85 8.65 78.3 7.65 78.7 6.6 78.7 5.15 78.7 3.7 78.3 2.7 77.85 1.65 77.25 1.65 76.65 1.65 76.25 2.7 75.8 3.7 75.8 5.15 75.8 6.6 76.25 7.65 76.65 8.65 77.25 8.65
M 78.45 -9.2
Q 78.1 -10.1 77.65 -10.1 77.2 -10.1 76.9 -9.2 76.55 -8.3 76.55 -7.05 76.55 -5.8 76.9 -4.9 77.2 -4 77.65 -4 78.1 -4 78.45 -4.9
L 78.75 -7.05 78.45 -9.2
M 77.05 -16.15
Q 77.05 -14.4 77.45 -13.65
L 79.5 -20.15
Q 77.05 -18.35 77.05 -16.15
M 80.7 -30.5
L 79.35 -28.6 78.55 -27.05
Q 78.55 -26.2 79.85 -24.1
L 80.7 -30.5 Z"/>
</g>
</defs>

<g transform="matrix( 1, 0, 0, 1, 0,0) ">
<use xlink:href="#Layer0_0_FILL"/>
</g>
</svg>
