
<svg xmlns="http://www.w3.org/2000/svg" version="1.1" xmlns:xlink="http://www.w3.org/1999/xlink" preserveAspectRatio="none" x="0px" y="0px" width="550px" height="400px" viewBox="0 0 550 400">
<defs>
<g id="Layer0_0_FILL">
<path fill="#333333" fill-opacity="0.25098039215686274" stroke="none" d="
M 146.65 73.55
L 150 72.1 132.85 68.1 115.7 68.8 129.1 74.95
Q 132.3 76.25 135.85 76.25
L 140.3 75.85
Q 139.1 81.4 144.7 84.7 148.75 87.1 152.2 87.1
L 155.95 86.4 158.65 85.2
Q 152.85 86.25 148.1 83.3 143.3 80.35 143.3 75.7 143.3 75.1 146.65 73.55
M 93.15 68.25
L 97 67.65 109.65 51.75 93.15 68.25
M 163.15 114.25
Q 167.45 112 170 107 165.9 108.1 160.95 108.55
L 155.65 108.95
Q 148.65 108.95 136.5 106.15 124.35 103.35 121.75 103.35 119.9 103.35 113.6 104.85 107.7 106.25 105.8 107
L 103.85 102.65
Q 94.85 110.8 82.6 110.8
L 67.55 109.35 67.2 112.05
Q 67.2 115.25 80.4 121.95 93.85 128.75 98.35 126.95 96 128.8 94.3 131.65
L 92.15 134.95
Q 87.05 138.5 84.5 139.45
L 78.65 141.1 71.95 142.15
Q 61.8 142.15 55.1 135 46.5 125.8 46.5 106.7
L 47.5 96.6
Q 47.8 95.1 52.1 83.95 56.1 73.55 56.1 71.45 56.1 69.9 53.75 67.65 51.4 65.4 47.8 64.35 44.2 63.3 38.9 80 33.55 96.65 33.55 108.95 33.55 122.1 40.4 136.9 47.2 151.65 56.75 151.8 66.25 151.95 73.2 149.25 80.1 146.5 87.8 141.75 95.45 136.95 100.35 130.85 105.25 124.75 105.35 122 105.45 119.2 106.1 117.75
L 104.8 116.85
Q 108.15 113.25 114.1 110.65 120.55 107.9 126.85 107.9 129.65 107.9 132.25 109.25 133.1 109.7 136.7 112.25 142.9 116.55 150.5 116.55 158.65 116.55 163.15 114.25
M 106.45 82.8
Q 110.45 82.3 112.5 81.2
L 96.55 76.75
Q 87 73.8 82.8 69.35 82.85 76.8 90.95 80.5 96.5 83.05 102.75 83.05
L 106.45 82.8
M 93.85 54.15
Q 95.55 51.9 95.55 50.9 95.55 49.75 94.8 46.95 87.1 51.35 83.7 53.75
L 83.7 54.2 83.1 54.2
Q 82.85 54.3 82.7 54.45
L 76.8 59.55 77 59.15 70.45 54.35
Q 70.45 54.55 70.2 54.5 69.35 54.35 68.75 53.2
L 67.7 52.55 67.25 52.35
Q 65.75 52.55 65.25 51.4
L 53.75 46.05
Q 46.05 46.35 41.3 49.6 45.4 53.35 57.35 59.1 70.85 65.6 75.45 64.35 75.75 68.2 77.25 70 78.2 71.15 79.3 71.15
L 80.75 70.8
Q 82 70.3 82.8 69.35
L 81.45 66.95 84.8 55.6
Q 87.15 57.25 88.3 57.25 91.55 57.25 93.85 54.15 Z"/>

<path fill="#000000" fill-opacity="0.25098039215686274" stroke="none" d="
M 79.65 -24.45
Q 79.65 -23.65 80 -23.6
L 81.05 -23.85
Q 80.8 -21.6 79.5 1.85
L 78.25 25 78.95 39.95
Q 79.95 53.45 83.1 54.2
L 83.7 54.2 83.7 53.75 81.5 -35.35
Q 79.65 -25.9 79.65 -24.45
M 76.45 -18.65
Q 75.65 -16.45 76.35 -17.05 73.5 -8 72.25 0.25 70.9 9.15 71.15 18.65 69.8 33.5 66.5 43.25 64.4 49.35 65.25 51.4 65.75 52.55 67.25 52.35
L 67.7 52.55 68.75 53.2
Q 69.35 54.35 70.2 54.5 70.45 54.55 70.45 54.35 70.45 53.8 68.85 51.55 71.65 43.8 72.05 36.9 72.95 21.8 76.05 -14.7
L 77.4 -20.95 76.45 -18.65
M 74.75 -0.65
L 74.6 -0.4 74.85 -1.15 74.75 -0.65 Z"/>
</g>
</defs>

<g transform="matrix( 1, 0, 0, 1, 0,0) ">
<use xlink:href="#Layer0_0_FILL"/>
</g>
</svg>
