
<svg xmlns="http://www.w3.org/2000/svg" version="1.1" xmlns:xlink="http://www.w3.org/1999/xlink" preserveAspectRatio="none" x="0px" y="0px" width="550px" height="400px" viewBox="0 0 550 400">
<defs>
<g id="Parts_Heads_headColorMC2_45_Layer3_0_FILL">
<path fill="#FF7F2A" stroke="none" d="
M 98.7 86.1
Q 98.85 86.45 99.8 85.7 101.1 84.55 102.45 87.3 104.55 91.15 104.65 91.35 106.45 93.1 106.8 93.6
L 106.9 93.6 107.8 92.75
Q 107.1 93.2 107 93 106.75 92.75 107.7 91.5 108.1 90.95 110.2 88.4
L 109.5 87.55
Q 105.9 85.85 104.05 82.85 103.65 81.95 103.65 81.8 102.95 80.6 102.5 78.95 101.95 77 101.7 76.4 98.4 78.15 96.2 78.65
L 96.3 78.9
Q 96.65 79.45 97.3 82 97.75 84.25 98.65 85.55 98.65 85.6 98.7 86.1
M 117.65 68.25
Q 118.1 68.8 118.3 69.65 118.5 70.1 119 71.55 119.4 72.85 119.65 73.6
L 119.85 73.95
Q 120.3 75.05 120.85 75.7
L 121.35 76.35
Q 133.6 66 136.05 64.4 129.6 65.4 125.35 66.25
L 117.65 68.25
M 115.35 69.85
L 115.9 68.85
Q 114.15 69.7 113.25 70.1 110.5 71.4 110 71.7 106.2 73.7 104.65 74.65 105.55 77.95 107.05 80.55
L 107.15 80.85
Q 107.9 82.15 109.15 83.75 109.8 84.55 111.05 86
L 111.45 86.5
Q 113.7 83.95 117.4 80.3 118.1 79.55 118.85 78.75 119.05 78.6 118.95 78.55 116.65 77.25 116.05 75.85
L 115.8 75.3
Q 114.7 72.5 115.35 69.85 Z"/>
</g>
</defs>

<g transform="matrix( 1, 0, 0, 1, -62.75,-76.85) ">
<g transform="matrix( 1, 0, 0, 1, 0,0) ">
<use xlink:href="#Parts_Heads_headColorMC2_45_Layer3_0_FILL"/>
</g>
</g>
</svg>
