
<svg xmlns="http://www.w3.org/2000/svg" version="1.1" xmlns:xlink="http://www.w3.org/1999/xlink" preserveAspectRatio="none" x="0px" y="0px" width="550px" height="400px" viewBox="0 0 550 400">
<defs>
<g id="Layer0_0_FILL">
<path fill="#000000" fill-opacity="0.25098039215686274" stroke="none" d="
M 13.55 -2.1
Q 12.65 -3.9 6.85 -6.95 0.05 -10.5 -5.45 -10.5 -10.55 -10.5 -13.65 -7.05 -16.6 -3.75 -16.6 1.4 -16.6 5.6 -13.1 5.9
L -7.45 5.4
Q -5.45 5.4 -4.05 7.05 -2.75 8.6 -2.75 10.65 -2.75 12.05 -4.8 14.8 -7.1 17.85 -9.2 17.85
L -13.15 16.65
Q -15.15 16.65 -15.95 20.15 -16.4 21.9 -16.4 23.75 -16.4 24.55 -15.65 25.2 -14.95 25.9 -14.95 26.35
L -15.7 28.05
Q -14.75 30.85 -2.95 34.05 11.75 38.05 31 38.05 52.85 38.05 62.75 32.9 73.45 27.35 73.45 14.4 73.45 -0.1 65.45 -9.75 58.85 -17.75 52.45 -17.75 46.95 -17.75 42.75 -12.7 40.65 -10.15 36 -1.55 31.85 6.25 28.4 9.6 23.15 14.65 15.95 14.65
L 14.3 13.4
Q 13.25 12.6 14.1 14.6 9.7 13.3 9.7 9.55 9.7 8.6 12.65 4.5 15.15 1.05 13.55 -2.1
M 3.55 -3.55
Q 6.45 -2.2 6.45 -1.1
L 5 1.15
Q 3.55 3.95 3.55 7.25 3.55 13.15 7.95 16.6 11.8 19.6 17.05 19.6 28.1 19.6 33.4 15.35 36.9 12.45 39.05 5.95 41.4 -1.5 43 -3.5 46.45 -7.75 54.4 -7.75 62.7 -7.75 66.65 1.65 69.1 7.45 69.1 12.65 69.1 18.7 66.15 23.1 62.55 28.45 55.9 28.45 54.35 28.45 47.1 25.35 39.8 22.2 33.25 22.2 26.05 22.2 17.65 27 9.3 31.75 6.05 31.75 4.45 31.75 -0.6 29.4 -5.45 27.1 -5.45 26.7 -5.45 25.5 -0.5 22.1 4.4 18.75 4.4 15.85 4.4 14.65 3.25 11.15 1.85 6.95 0.05 3.95 -0.95 2.35 -4 0.45 -7.95 -2 -10.75 -0.8
L -11.3 -1.15
Q -11.3 -2.7 -10.5 -3.55 -9.05 -5.05 -3.4 -5.05 0.3 -5.05 3.55 -3.55
M -13.3 27.55
Q -12.9 27.9 -13.1 28
L -13.8 27.2 -13.3 27.55 Z"/>
</g>
</defs>

<g transform="matrix( 1, 0, 0, 1, 0,0) ">
<use xlink:href="#Layer0_0_FILL"/>
</g>
</svg>
