
<svg xmlns="http://www.w3.org/2000/svg" version="1.1" xmlns:xlink="http://www.w3.org/1999/xlink" preserveAspectRatio="none" x="0px" y="0px" width="550px" height="400px" viewBox="0 0 550 400">
<defs>
<g id="Layer0_0_FILL">
<path fill="#FFD860" stroke="none" d="
M 114.75 22.65
Q 114.75 16 112.75 13.1 112.6 10.45 112.35 9.05 111.95 6.8 111.05 5.3 110.9 5 110.55 4.7 110.9 2.9 110.15 1.55 109.35 0 107.8 0.45
L 106.85 0.75
Q 94.45 0.75 84.6 0.55
L 70.45 0.55
Q 69.05 0.35 67.6 0.25 64.45 0 61.95 0 59.15 0.1 56.35 0.6 56 0.65 54.9 0.65 53.9 0.65 53.45 0.75 53 0.85 52.65 1.3 52 2.1 51.95 2.15
L 51.7 2.65
Q 48.95 4.05 48.2 4.4 46.25 5.25 44.55 5.5 40.25 5.95 36.15 5.3
L 35.6 5.25
Q 35.3 4.55 34.6 4.15 34.25 3.95 33.75 3.95 33.05 3.95 32.65 4.95 25.35 4.3 21.2 6.25 19.75 6.35 19.2 7.5
L 18.8 7.7
Q 18.35 7.9 17.85 8.3
L 17.5 8.55
Q 16.25 9.55 15.5 10.85 15.35 11.1 13.7 13.65 12.6 15.4 11.75 16.45 10.05 18.5 7.2 21.35
L 3.45 25.05
Q 2.1 26.25 1.2 27.75 1.15 27.9 0.65 28.05 0.25 28.2 0.25 28.3 -0.15 28.85 0.1 29.8 0.2 30.35 0.6 31.4
L 0.8 32.8
Q 0.9 33.35 1.1 33.8
L 1.4 34.35
Q 1.25 38.95 2.15 43.35
L 2.2 43.7
Q 1.6 50.4 3.5 57.05 4 58.75 5.05 62.15 5.85 65.1 6 67.35 6.35 71.05 7.4 73.4 8.75 76.55 11.35 75.85 12.35 75.55 16.05 73.2
L 18.75 71.7
Q 25.4 70.8 31.85 68.7 36.55 67.25 40.05 65.95 45.05 66.1 49.75 64.5 51.75 63.95 55.8 62.85 59.1 61.65 60.8 59.55
L 67.65 57.5
Q 68.75 57.2 69.15 56
L 69.4 55.95
Q 77.1 53.9 84.75 50.5 101.6 43 112.55 33.7
L 112.95 33.2
Q 113.6 33.15 114.5 32.9 115.65 32.6 115.8 32.25 116.9 30.4 116 27.55 114.75 23.65 114.75 22.65 Z"/>
</g>
</defs>

<g transform="matrix( 1, 0, 0, 1, 0,0) ">
<use xlink:href="#Layer0_0_FILL"/>
</g>
</svg>
