
<svg xmlns="http://www.w3.org/2000/svg" version="1.1" xmlns:xlink="http://www.w3.org/1999/xlink" preserveAspectRatio="none" x="0px" y="0px" width="550px" height="400px" viewBox="0 0 550 400">
<defs>
<g id="Parts_Heads_headColorMC_12_Layer1_0_FILL">
<path fill="#FF6633" stroke="none" d="
M 62.5 55.6
Q 37.9 55.6 31.55 67.1 25.15 78.55 27.9 101.35 29.4 113.1 36.6 125.5 48.45 145.75 67.6 145.75 88.35 145.75 102.3 135.85 115.65 126.35 115.65 113.25 115.65 108.95 110.35 99.45 104.9 89.8 97 80.15 76.8 55.6 62.5 55.6 Z"/>
</g>

<g id="Parts_Heads_headColorMC2_12_Layer3_0_FILL">
<path fill="#000000" stroke="none" d="
M 32.25 105.9
L 32.15 105.4 32 105.55 32.25 105.9
M 35.75 80.9
Q 33.8 82.1 32.2 83.4 30.45 90.6 31 99.55
L 31.95 101.05 33.3 99.55 33.35 99.45
Q 35.85 96.35 36.5 93.1
L 36.7 85.4
Q 36.95 81.9 40.95 80.6 46.05 78.85 60.25 78.85 71.15 78.85 81.55 90.65 90.95 101.25 90.95 109
L 90.8 111.3
Q 90.45 113.7 89.25 115.6 85.55 121.7 75.1 121.7 68.3 121.7 61.05 117.15 53.05 112.2 53.05 106.3 53.05 103.45 54.1 102.2 57.05 98.6 67.15 98.6 70.15 98.6 70.85 100.45
L 71.65 103.15 68.05 105.35
Q 65.95 106.55 65.95 107.9 65.95 110.7 66.35 110.95
L 66.7 110.6
Q 67.6 111.1 67.7 111.55
L 71.15 111.75
Q 74 111.75 77.55 108.8 81.05 105.95 81.05 103.8 80.3 100.2 78.15 96.8 73.95 90 66.95 90 50.65 90 45.95 97.55 43.6 101.35 44.45 105.6 44.45 114.8 53.65 122 63.25 129.45 76.6 129.45 91.55 129.45 96.95 119.7 98.6 116.55 99.15 112.7
L 99.4 109
Q 99.4 92.2 87.55 82.85 77.3 74.7 61.65 74.4 46.7 74.15 35.75 80.9 Z"/>
</g>

<g id="Parts_Heads_headsMC_12_Layer12_0_FILL">
<path fill="#000000" stroke="none" d="
M 35.75 80.9
Q 33.8 82.1 32.2 83.4 30.45 90.6 31 99.55
L 31.95 101.05 33.3 99.55 33.35 99.45
Q 35.85 96.35 36.5 93.1
L 36.7 85.4
Q 36.95 81.9 40.95 80.6 46.05 78.85 60.25 78.85 71.15 78.85 81.55 90.65 90.95 101.25 90.95 109
L 90.8 111.3
Q 90.45 113.7 89.25 115.6 85.55 121.7 75.1 121.7 68.3 121.7 61.05 117.15 53.05 112.2 53.05 106.3 53.05 103.45 54.1 102.2 57.05 98.6 67.15 98.6 70.15 98.6 70.85 100.45
L 71.65 103.15 68.05 105.35
Q 65.95 106.55 65.95 107.9 65.95 110.7 66.35 110.95
L 66.7 110.6
Q 67.6 111.1 67.7 111.55
L 71.15 111.75
Q 74 111.75 77.55 108.8 81.05 105.95 81.05 103.8 80.3 100.2 78.15 96.8 73.95 90 66.95 90 50.65 90 45.95 97.55 43.6 101.35 44.45 105.6 44.45 114.8 53.65 122 63.25 129.45 76.6 129.45 91.55 129.45 96.95 119.7 98.6 116.55 99.15 112.7
L 99.4 109
Q 99.4 92.2 87.55 82.85 77.3 74.7 61.65 74.4 46.7 74.15 35.75 80.9 Z"/>
</g>

<g id="Graphics_Symbol_826_0_Layer2_0_FILL">
<path fill="#000000" stroke="none" d="
M 55.75 25.3
L 54.15 25.85 52.6 27.65 52.6 27.7
Q 52.2 28.15 51.6 28.2 51 28.25 50.55 27.9
L 50.45 27.85
Q 50 27.45 49.95 26.85
L 49.5 23.15
Q 37.25 28.3 32.25 42
L 32.2 42 31.75 42.65 31.8 42.6 31.1 42.95 31.05 42.95 29.8 43.15 29.05 43.05 29 43.05 28.4 42.6 -4.6 2.55 23.05 41.8 23.25 42.7 22.9 43.55 22.85 43.55 22.1 44.05 2.35 48.4
Q 4.65 52.6 9.25 55.1
L 9.3 55.1 9.35 55.15 10.85 55.7 10.9 55.75 11.55 56.3 11.6 56.3 11.8 57.15 11.8 57.2 11.5 58.05 4.75 66.45 5 67.95
Q 11.9 69.4 20.55 67.75
L 20.75 67.7 20.65 67.7
Q 23.65 67.2 26.3 66.3 26.8 66.1 27.3 66.3
L 27.25 66.3
Q 27.75 66.45 28.05 66.85
L 28.05 66.9
Q 28.35 67.3 28.3 67.8
L 28.3 67.85 27.95 68.7
Q 18.55 79.25 21.1 92.5
L 21.1 92.55
Q 22.25 98.7 23.85 104.85
L 23.85 104.8
Q 26.1 113.1 29.7 120.95 34.1 130.55 41.55 138.15 48.7 145.6 59.25 147.55 85.5 152.6 105.85 136.95 126.8 120.85 114.6 100.5 108.15 90 101.25 79.95 92.6 67.15 79.25 58.5 71.5 53.55 62.45 52.45 62 52.4 61.7 52.15
L 61.2 51.5 61.15 50.7 61.15 50.65
Q 62.8 42.35 66.65 33.4 67.15 32.25 67.3 30.8 67.4 29.65 66.85 28.65 65.8 26.9 63.75 26.2
L 63.65 26.15
Q 59.75 25.05 55.75 25.3
M 59.45 30.45
L 59.5 30.45
Q 59.9 30.5 60.3 30.85
L 60.25 30.8 60.75 31.55 60.75 32.4
Q 56.9 44.4 55.2 47.75 55.1 48.85 56 50.15
L 56.05 50.2 56.25 51.2 55.85 52.05 55.8 52.1
Q 55.45 52.45 54.95 52.5
L 54.9 52.5
Q 48 53.25 41.45 57
L 41.5 57 40.45 57.2 40.4 57.2 39.5 56.6 35.55 51.45 35.5 51.4 35.3 50.95 35.2 50.35 35.2 50.3
Q 37.1 37.8 39.75 33.7
L 39.75 33.75
Q 42.3 28.95 59.45 30.45
M 27.3 48.3
L 27.35 48.3 27.9 48.7 27.9 48.65 34.05 55 34 55 34.45 55.8 34.45 55.85 34.3 56.75 33.7 57.35 33.65 57.4
Q 25.1 62.15 14.9 63.05
L 14.95 63.05 10.5 63.75
Q 9.9 63.8 9.45 63.5
L 9.4 63.5
Q 8.95 63.2 8.85 62.7
L 8.8 62.6
Q 8.65 62.05 8.9 61.6
L 8.95 61.6
Q 9.2 61.05 9.7 60.85
L 9.75 60.85 23.45 55.8 23.35 53.8 12.5 52.7
Q 11.9 52.65 11.55 52.2 11.15 51.8 11.15 51.2 11.15 50.65 11.55 50.25
L 11.55 50.2
Q 11.95 49.8 12.5 49.7
L 26.65 48.2 27.3 48.3
M 30.45 84.6
L 30.35 84.45 30.35 84.4 30.2 83.55 30.25 83.5
Q 30.9 80.15 32.25 76.85
L 32.3 76.7
Q 39.7 58.05 63.5 58.05 77.3 57.85 96.6 81.1 104 90.05 109.1 99 114.3 108.2 114.2 112.4 114.3 125.15 101.25 134.35 88 143.7 68.2 143.7 49.65 143.75 38.25 124.35 32.9 115.25 30.85 106.55
L 30.75 106.4
Q 30.45 105.95 30.5 105.5
L 30.55 105.2 29.95 101.7 30.05 101.05 30.05 100.95 30.1 100.9 29.75 100.35 29.7 100.35 29.5 99.65
Q 29 91.35 30.45 84.6
M -21.2 -17.1
Q -20.6 -17.25 -21.15 -17.2
L -21.2 -17.1 Z"/>
</g>

<g id="Graphics_Symbol_826_0_Layer1_0_FILL">
<path fill="#000000" fill-opacity="0.25098039215686274" stroke="none" d="
M 34.55 73.45
L 37.35 74.2 40.9 74.95
Q 41.65 74.95 45.15 72.65 49.1 70 50.7 69.4 53.15 68.5 66.05 66.8 83.5 66.8 95.35 79.6 106.75 91.95 106.75 109 106.75 122.3 99 131.55 90.1 142.15 74.4 142.15 58.95 142.15 46.1 128.9 40.7 123.35 37.5 116.9 34.35 110.55 34.35 105.35 34.35 96.35 40.85 90.15 48.1 83.25 60.45 83.25 68.9 83.25 77 87.75 87.75 93.75 87.75 104.2 87.75 109.4 84.4 113.35 80.25 118.25 72.55 118.25 65.65 118.25 62.05 115.6 58.85 113.25 58.85 109.45 58.85 106.8 64.15 104.55 69.45 102.3 69.45 99 69.45 98.05 66 97.5
L 62.5 97.15
Q 57.8 97.15 54.55 100.85 51.8 104.05 51.8 107.3 51.8 113.05 56.4 117.55 62.35 123.35 73.4 123.35 81.6 123.35 86.95 119 92.8 114.25 92.8 105.95 92.8 94.95 84 86.15 74.35 76.55 59.95 76.55 45.55 76.55 36.65 84.4 28.15 91.85 28.15 103.15 28.15 121.8 43.45 135.5 50 141.4 57.85 144.7 65.6 148 72.55 148 90.7 148 102.5 137.75 114.45 127.4 113.25 110.65 112 93.9 97.7 77.65 83.4 61.4 67.55 61.25 51.7 61.05 42.95 65.55 35.7 69.25 34.55 73.45 Z"/>
</g>

<g id="Graphics_Symbol_826_0_Layer0_0_FILL">
<path fill="#FFFFFF" fill-opacity="0.25098039215686274" stroke="none" d="
M 31.4 79.75
L 34.1 82.9
Q 44.75 78.55 53.2 74.5 57.55 72.65 63.5 72.65 78.5 72.65 89.4 84.5 99.5 95.5 99.5 108.3 99.5 118.8 93.45 126.05 86.55 134.35 74.25 134.35 62.65 134.35 52.65 125.85 42.35 117.1 42.35 106.25 42.35 99 48.05 93.55 53.8 88.1 61.65 88.1 69.05 88.1 74.45 93.1 80.25 98.5 80.25 106.9 80.25 109.3 78.4 110.25 76.7 111.15 72.75 111.15
L 69.9 110.5
Q 67.75 109.8 66.2 108.95
L 69.2 103
Q 65.55 103.2 62.25 105.45 59.5 107.4 59.5 108.45 59.5 111.8 63.65 114.5 67.7 117.15 72.25 117.15 79.3 117.15 83.15 113.3 86.4 110.1 86.4 105.75 86.4 99 80.55 92.25 73 83.5 60.25 83.5 51.3 83.5 44.6 88.6 36.55 94.75 36.55 105.8 36.55 118.4 48.35 128.85 60.75 139.85 77.25 139.85 89.5 139.85 97.9 131.7 106.55 123.35 106.55 110.45 106.55 91.35 92.05 78.5 86.05 73.2 78.65 70.2 71.65 67.35 65.35 67.35 58.25 67.35 48.45 71.2 40.15 74.4 31.4 79.75 Z"/>

<path fill="#000000" stroke="none" d="
M 46.85 36.15
Q 44.5 40.85 44.5 45.55 44.5 51.1 47.85 54.3 51.7 39.05 53.3 28.35 49.25 31.25 46.85 36.15 Z"/>
</g>
</defs>

<g transform="matrix( 1, 0, 0, 1, -62.75,-76.85) ">
<g transform="matrix( 1, 0, 0, 1, 0,0) ">
<use xlink:href="#Parts_Heads_headColorMC_12_Layer1_0_FILL"/>
</g>
</g>

<g transform="matrix( 1, 0, 0, 1, -62.75,-76.85) ">
<g transform="matrix( 1, 0, 0, 1, 0,0) ">
<use xlink:href="#Parts_Heads_headColorMC2_12_Layer3_0_FILL"/>
</g>
</g>

<g transform="matrix( 1, 0, 0, 1, -62.75,-76.85) ">
<g transform="matrix( 1, 0, 0, 1, 0,0) ">
<use xlink:href="#Parts_Heads_headsMC_12_Layer12_0_FILL"/>
</g>

<g transform="matrix( 1, 0, 0, 1, 0,0) ">
<g transform="matrix( 1, 0, 0, 1, 0,0) ">
<use xlink:href="#Graphics_Symbol_826_0_Layer2_0_FILL"/>
</g>

<g transform="matrix( 1, 0, 0, 1, 0,0) ">
<use xlink:href="#Graphics_Symbol_826_0_Layer1_0_FILL"/>
</g>

<g transform="matrix( 1, 0, 0, 1, 0,0) ">
<use xlink:href="#Graphics_Symbol_826_0_Layer0_0_FILL"/>
</g>
</g>

<g id="hat1" transform="matrix( 0.983917236328125, -0.17529296875, 0.17529296875, 0.983917236328125, 45.2,78.25) ">
<g id="colorMC" transform="matrix( 0.9999847412109375, 0, 0, 0.9999847412109375, 0,0) "/>

<g id="colorMC2" transform="matrix( 1, 0, 0, 1, 0,0) "/>
</g>

<g id="hat2" transform="matrix( 0.9733734130859375, -0.2247314453125, 0.2247314453125, 0.9733734130859375, 38,60.6) ">
<g id="colorMC_FL" transform="matrix( 0.9999847412109375, 0, 0, 0.9999847412109375, 0,0) "/>

<g id="colorMC2_FL" transform="matrix( 1, 0, 0, 1, 0,0) "/>
</g>

<g id="hat3" transform="matrix( 0.96026611328125, -0.2753753662109375, 0.2753753662109375, 0.96026611328125, 26,48.4) ">
<g id="colorMC_FL_FL" transform="matrix( 0.9999847412109375, 0, 0, 0.9999847412109375, 0,0) "/>

<g id="colorMC2_FL_FL" transform="matrix( 1, 0, 0, 1, 0,0) "/>
</g>

<g id="hat4" transform="matrix( 0.944580078125, -0.3252410888671875, 0.3252410888671875, 0.944580078125, 18.85,34.5) ">
<g id="colorMC_FL_FL_FL" transform="matrix( 0.9999847412109375, 0, 0, 0.9999847412109375, 0,0) "/>

<g id="colorMC2_FL_FL_FL" transform="matrix( 1, 0, 0, 1, 0,0) "/>
</g>
</g>
</svg>
