
<svg xmlns="http://www.w3.org/2000/svg" version="1.1" xmlns:xlink="http://www.w3.org/1999/xlink" preserveAspectRatio="none" x="0px" y="0px" width="550px" height="400px" viewBox="0 0 550 400">
<defs>
<g id="Layer0_0_FILL">
<path fill="#FFFFFF" fill-opacity="0.25098039215686274" stroke="none" d="
M 95.15 235.15
Q 103.15 224.15 98.75 211.45 87.15 233.2 94.05 236.6
L 95.15 235.15
M 105.2 2.55
L 109 2 95.4 2.55 98.5 3.35 92.5 6.85 105.2 2.55
M 110.4 11.15
Q 108.45 10.3 104.15 9.35
L 85.5 6.6
Q 92.15 12.95 103.1 13
L 105 13.05 110.7 13.1
Q 111.6 12.95 111.7 12.5
L 111.5 11.85 110.4 11.15
M 132.5 27.85
L 123 26.25 117.95 26 92.75 24.5 105.9 27.45 120.05 28.35 132.5 27.85
M 97.45 130.65
L 91.25 130.65 97.25 131.9 83.45 130.6 67.8 130.35 112.4 134 97.45 130.65
M 61.1 130.15
L 55.9 130.1
Q 35.35 130.7 18.25 123.3
L 11.7 122.8 20.85 125.2 20.5 125.5 19.7 125.8
Q 22.25 128.45 25.65 130.85
L 2 124.65 28.35 134.9 0 134.65 28.75 147.4 12.3 151.95 14.5 152.6
Q 20.95 154.1 27.35 151.9 30.95 150.8 32.5 147.4
L 20.75 140.9 28.5 140.25 33.2 143
Q 49.8 152.7 68.7 154.55
L 72.1 154.75 30.9 140.45
Q 79.3 150.5 133.95 150.3
L 145.85 149.8
Q 137.35 146.2 123.3 145.2
L 53 140.9 33.15 139 56.45 139.25 100.5 141.9 82 139.65 90.65 139.65 102 139.55 120.3 139.15 150.35 136.8 108.6 136.95 94.5 137.1
Q 74.35 139.55 58 133.15
L 61.1 130.15
M 37.5 135.65
L 34.25 130.4 65.15 137.1 37.5 135.65
M 32.15 134.8
L 33.5 134.65
Q 31.9 135.6 32.15 134.8
M 160.85 65.1
L 161.25 64.95 162 64.6 160.85 65.1
M 157.35 67.9
Q 155.45 68 159.6 65.85
L 159.25 65.75
Q 149.85 69.55 149.6 70.1 155.8 68.55 157.35 67.9
M 83.2 94.6
L 88.1 97.15
Q 70.7 100 56.15 89.85
L 59.35 90.3
Q 53.95 89 51.5 87.25
L 19 81.65 44.8 92.45 14 92.65
Q 26.4 94.75 26.8 95.65
L 27.6 97.3
Q 29.3 100.45 32.4 102.55 38.2 106.45 44.95 107.55
L 20.2 107.75 10 99.65 14.75 107.25 7.3 109.25 7.9 109.5 15.05 108.35 32.75 115 9.35 110.15 38.85 122.95 26.45 121.85 30.1 124.15 56.4 126.25 48.25 122.65 74.7 127.15 80.95 127.4 65.75 124.35 117.7 122.55 146.8 120.55 124 120.15 90.9 118.4 81.15 117.15 83.5 117.4
Q 92.05 118.4 90.6 114.2
L 77.8 113.05 85.25 114.4 61.5 112 70.85 112.15 39.4 102.45 30.25 99.65 30.25 95.5 88.25 105.4 88.9 105.2 89.1 105.05 89.35 104.95
Q 90 104.6 89.1 104
L 95.05 106.65 65.55 107.95 88.35 112.6 96.6 107.25 86.2 102
Q 104.65 104 123.3 102.4 137.9 101.25 151.25 97.4
L 135.35 99.75 109.45 98.65
Q 98.95 97.25 88.7 93.85
L 88.75 93.95 89.25 94.45 87.7 94.05 86.35 93.75 74.55 92.75 83.2 94.6
M 34.75 113.2
L 20.5 107.95 57.25 111.4 34.75 113.2
M 105.5 99.65
L 102.55 99.9 85.75 99.45 89.45 97.4 105.5 99.65
M 89.2 121.05
L 85.95 121.05 77.45 120.65 85.85 120.85 89.2 121.05
M 70.25 98.1
L 76.7 99.4
Q 72.75 99.35 70.25 98.1
M 98.95 64.5
L 97.7 64.4
Q 100.35 68.45 99.55 65.6
L 98.95 64.5
M 102.5 53.85
L 102.65 52.25 70 51.1
Q 81.1 51.1 88.35 42.9
L 80 41.3 55.9 39.4
Q 68.9 45.95 85.25 43.35 65.55 52.15 43.4 44.65
L 42.75 44.6 64.45 55.05
Q 52.7 54.9 45.85 58.65
L 70.25 56.65 65.5 65.15
Q 48.05 65.45 38.75 51.6 35.6 64.25 48 71.3 23.3 65.95 32.2 70.15 48 71.9 66.7 81.15
L 41.25 78.4 57.55 84.5 51.5 85 90.6 90.8
Q 90.1 85.7 78.1 83.6
L 88.9 83.25 89.2 83.15 89 83 89.35 83.1
Q 89.8 82.85 89.85 82.3 89.9 82.1 89.55 81.85
L 93.7 82.45 91 83.35
Q 92.15 83.2 95.95 83.3
L 113.4 84.55 142.35 84.25 131.7 83.4 120.05 82.45 120 82
Q 93.85 82.1 72 77
L 125 77 124.75 77.3 141.75 72 144.65 70.3 131.9 72.15 114.8 75.4 106.25 70.75 102.65 68.25 100.25 68.2
Q 101.4 69.3 103.1 70.45
L 112.4 75.65 90.65 74.1 101.8 70.3 84.9 67.5
Q 66.05 78.4 48.15 67.6
L 44.5 64.1 71.25 67.9 68.25 63.7 71 59.85 73 57.85 76.35 57.9 71 59.85
Q 71 62.85 74.8 65 78.6 67.15 83.95 67.15
L 97.25 66.8 79.3 63 76.2 62.15 117.35 58.4
Q 119.3 58.7 119.8 57.4 104 57.4 102.5 53.85
M 92.45 53.85
L 82.05 54.6 85.85 55.75 74.15 54.65 92.45 53.85
M 89.1 68.3
L 97.75 70.7 79.95 72 89.1 68.3
M 84.75 14.85
L 89.3 20.15 66.5 20.6 93 31.35
Q 72.75 27.8 56.5 34.9
L 61.15 35.6 59.25 34.35 67.5 36.1 100.5 30.85 82.9 24.9 107.5 20.85 93.45 21.2 101.25 18.35 84.75 14.85
M 137.5 38.85
L 135.9 39 123.05 39.9 71 36.95 89.25 41.3 126.6 41.9 136.7 39.1 137.5 38.85 Z"/>

<path fill="#000000" fill-opacity="0.25098039215686274" stroke="none" d="
M 128.25 46.95
Q 118.5 48.25 108 46.6
L 110 50.6 128.25 46.95
M 110.7 13.1
L 105 13.05 115.15 17.45 110.7 13.1
M 115.95 10.7
L 111.75 5.35
Q 110 5.55 107.5 6.35 105.15 7.1 104.15 9.35 108.45 10.3 110.4 11.15
L 115.95 10.7
M 148.75 42.85
L 145.2 40.65 136.25 45.35 148.75 42.85
M 144.25 38.6
L 145.2 40.65 145 37.2 139.75 36.4 144.25 38.6
M 102.7 23.95
L 117.95 26 123 26.25
Q 115.65 15.85 102.7 23.95
M 120.05 28.35
L 105.9 27.45
Q 101.9 33.35 117.4 29.3
L 120.05 28.35
M 90.8 135.4
L 94.5 137.1 108.6 136.95 90.8 135.4
M 80.95 127.4
L 74.7 127.15 56.4 126.25 30.1 124.15 18.25 123.3
Q 35.35 130.7 55.9 130.1
L 61.1 130.15 67.8 130.35 83.45 130.6 91.25 130.65 97.45 130.65 144.5 129.05 80.95 127.4
M 89.25 94.45
L 88.75 93.95 87.7 94.05 89.25 94.45
M 88.1 97.15
L 83.2 94.6 78.5 95.15 88.1 97.15
M 85.95 121.05
L 89.2 121.05 85.85 120.85 85.95 121.05
M 102.55 99.9
L 105.5 99.65 89.45 97.4 102.55 99.9
M 90.65 83.45
L 91 83.35 93.7 82.45 90.25 83.35 90.65 83.45
M 89 83.65
L 89.9 83.7 89.65 83.5 89 83.65
M 140 39.55
L 136.7 39.1 126.6 41.9
Q 113 45.9 92.8 41.95
L 89.25 41.3 71 36.95 67.5 36.1 59.25 34.35 61.15 35.6
Q 66.15 38.25 80 41.3
L 88.35 42.9
Q 110.1 47.95 131.55 43.55 137.65 42.2 140 39.55
M 139.1 31.3
L 138.25 30.75 118.25 36.6 123.05 39.9 135.9 39 128 37.85
Q 133.95 34.85 139.1 31.3
M 178 82.65
L 162.6 82.9 175 77.65 156.1 77.7 142.25 75.15 149.6 70.1
Q 149.85 69.55 159.25 65.75
L 159.6 65.85 163.4 66.95 162.05 64.75 161.25 64.95 160.85 65.1 162 64.6
Q 149.95 63.85 144 65.6
L 144.05 65.5
Q 147.9 64.8 144.5 64.9
L 155 53.6 152.5 52.9 155.3 53.55 152.45 49.45 148.6 51.8 148 51.6 138.15 65.1 131.6 65.4 144.45 52.05
Q 124.05 63.35 98.95 64.5
L 99.55 65.6
Q 100.35 68.45 97.7 64.4
L 79.3 63 97.25 66.8 83.95 67.15 84.9 67.5 101.8 70.3 103.1 70.45
Q 101.4 69.3 100.25 68.2
L 102.65 68.25 106.25 70.75 134.8 66.85 131.9 72.15 144.65 70.3 141.75 72 124.75 77.3 125 77 72 77
Q 93.85 82.1 120 82
L 153 78.65 131.7 83.4 142.35 84.25 113.4 84.55 98 84.25 138.6 86.95 90.6 90.8 51.5 85
Q 48 83.8 51.1 86.85
L 51.5 87.25
Q 53.95 89 59.35 90.3 65.25 91.8 74.55 92.75
L 86.35 93.75 88.7 93.85
Q 98.95 97.25 109.45 98.65
L 135.35 99.75
Q 151.75 96.9 164.7 86.5 165.55 85.8 178 82.65
M 105.25 97.05
L 101.55 96.4 144.8 92.15
Q 125.85 100.5 105.25 97.05
M 132.5 59.85
Q 131 62.15 127.5 61.6 129.5 60.6 132.5 59.85
M 178 82.65
L 168.35 96.4
Q 149.1 98.2 130.45 105.6 109.95 113.75 88.35 112.6
L 65.55 107.95 39.4 102.45 70.85 112.15 77.8 113.05 90.6 114.2 132.8 116.85 90.9 118.4 124 120.15 155.7 110.4 152.85 116.25 182.1 105.3 157.9 120.65 146.8 120.55 117.7 122.55
Q 145.5 128.6 173.05 124.35
L 138.9 134.7 157.6 134.9 153.65 136.25
Q 137.25 141.25 120.3 139.15
L 102 139.55 113.75 141.9 90.65 139.65 82 139.65 100.5 141.9 56.45 139.25 53 140.9 123.3 145.2 171.55 137.1 159.4 149.7 145.85 149.8 133.95 150.3 75.8 152.05 78.75 155.15 72.1 154.75 68.7 154.55 45.75 153.2 43.2 157.05 45.9 158.2
Q 66.95 166.7 88.25 158.4 86.25 157.45 84.25 156.45
L 101.35 158.6 98.8 167.95 91.7 159.3
Q 89.05 163.85 90.7 168.95 98.45 192.7 105.35 215.55
L 106.9 233.8 108.65 228.7
Q 117.4 195.55 107.35 162.15 116.7 164.1 129.75 165.35 156.7 167.6 179 150.65
L 187.35 139.95 193 128.65 194 118.65 178 82.65
M 183.65 109.2
L 187.85 122.2 182.05 123.85 184.55 118.75 174.85 119.1 183.65 109.2
M 168.05 133.3
L 180.1 128.15 176.9 132.35 168.05 133.3
M 188.3 124.25
L 188.3 128.55 179.85 133.4 188.3 124.25
M 157.45 104.15
L 133.75 116.55 117.6 114.85 157.45 104.15 Z"/>
</g>
</defs>

<g transform="matrix( 1, 0, 0, 1, 0,0) ">
<use xlink:href="#Layer0_0_FILL"/>
</g>
</svg>
