
<svg xmlns="http://www.w3.org/2000/svg" version="1.1" xmlns:xlink="http://www.w3.org/1999/xlink" preserveAspectRatio="none" x="0px" y="0px" width="550px" height="400px" viewBox="0 0 550 400">
<defs>
<g id="Layer0_0_FILL">
<path fill="#5F5347" stroke="none" d="
M 102.75 160.3
L 98.6 166.6 93.65 159.5 90.5 159.9
Q 99.25 189.7 93.15 219.7 91.4 228.2 91.95 236.6
L 107.05 236.2
Q 112.1 220.45 111.6 203.4 111 182.65 108.1 161.85 105.25 160.85 102.75 160.3 Z"/>

<path fill="#4E6D2C" stroke="none" d="
M 186.55 142.15
Q 199 125.55 189.75 106.7 180.4 87.65 170.45 68.8 160.65 50.15 144.6 36.65 128.05 22.75 112.35 7.75 95.5 -8.2 78.25 8.7 64 22.65 50.7 37.55 36.85 53.15 25.65 70.85 13.85 89.4 5.95 109.75 -0.15 125.45 0.25 142.35 16 155.15 35.85 159.8 63.15 166.35 90.5 159.9
L 93.65 159.5 102.75 160.3
Q 105.25 160.85 108.1 161.85 129.35 168.7 151.2 164.25 173.1 159.95 186.55 142.15 Z"/>
</g>
</defs>

<g transform="matrix( 1, 0, 0, 1, 0,0) ">
<use xlink:href="#Layer0_0_FILL"/>
</g>
</svg>
