
<svg xmlns="http://www.w3.org/2000/svg" version="1.1" xmlns:xlink="http://www.w3.org/1999/xlink" preserveAspectRatio="none" x="0px" y="0px" width="550px" height="400px" viewBox="0 0 550 400">
<defs>
<g id="MovieClips_Symbol_264_8_Layer1_0_FILL">
<path fill="#000000" stroke="none" d="
M 39.25 -2.9
Q 37.65 -3.65 35.25 -2.05 32.9 -0.55 31.2 2.1 30.3 3.45 29.85 4.75 28.9 2.35 26.75 1.3 24.1 0.35 21.75 2.9
L 21.6 3.1
Q 20.95 6.2 19.85 8.75
L 20.25 9.6
Q 21.95 12.55 27.75 12.6 27.35 13.35 27.35 14.1
L 27.35 15.15
Q 27.55 16.1 28.5 16.1
L 28.9 16.05 29 15.85 29.1 15.5
Q 28.6 14.8 28.6 14.15 28.6 13.3 29.3 12.6
L 32.35 12.1 32.5 11.75 33.5 11.2 33.55 11.2 33.6 11.15 34.35 10.7 34.45 10.55 34.6 10.55 36 9.75 36.3 9.3 36.45 9.25 36.4 9.25
Q 37.95 7.8 39.6 4.9 42.35 3.65 45.95 3.65
L 49.6 3.75 49.6 3.4
Q 45.55 1.45 40.3 3.55
L 41.1 1.85
Q 41.1 -2 39.25 -2.9
M 36.5 -2.1
Q 38.25 -2.1 39.1 -0.6 39.75 0.45 39.75 1.75 39.75 2.7 38.85 4.2
L 38.1 4.55
Q 33.4 7 32.4 9.1
L 31.75 8.6 31.35 7.85 31.4 7.7 30.85 7.5 30.65 7
Q 31.75 5.5 33.05 2.25 34.75 -2.1 36.5 -2.1
M 34.8 8.7
L 34.8 8.65 34.1 9.3
Q 34.75 8.3 36.25 7
L 37.55 6 37.05 6.6 34.8 8.7
M 32.15 10.65
L 32.15 10.8 31.8 10.85 32.15 10.65
M 31 9.65
L 30.75 9.6 30.35 9.5 30.35 10 29.85 10.35 29.05 11.05 25.25 11.1
Q 23.6 11.1 22.4 9.65 21.6 8.65 21.4 7.65
L 21.9 7.45 21.85 6.65 22.35 5.65 21.6 6.05 22.25 4.9
Q 23.6 2.8 26.25 2.8 27.55 2.8 28.9 5.85
L 29.4 6.85 29.35 7.05 29.3 7
Q 29.6 7.45 29.6 8.55
L 29.55 9 30.6 9.35 30.75 9.6 30.9 9.45 31.25 9.55 31 9.65 Z"/>
</g>
</defs>

<g transform="matrix( 1, 0, 0, 1, -28.4,-10.7) ">
<g transform="matrix( 1, 0, 0, 1, 0,0) ">
<use xlink:href="#MovieClips_Symbol_264_8_Layer1_0_FILL"/>
</g>
</g>
</svg>
