
<svg xmlns="http://www.w3.org/2000/svg" version="1.1" xmlns:xlink="http://www.w3.org/1999/xlink" preserveAspectRatio="none" x="0px" y="0px" width="550px" height="400px" viewBox="0 0 550 400">
<defs>
<g id="MovieClips_Symbol_621_8_Layer14_0_FILL">
<path fill="#427DB8" stroke="none" d="
M -0.25 138.85
Q -0.25 138.1 -0.35 138.05
L -0.5 138 -2.45 137.8
Q -3.25 138.05 -3.25 138.85
L -3.15 139.75 -2.75 140 -1.75 140.25 -0.65 140.05 -0.35 139.8
Q -0.25 140.1 -0.25 138.85
M -11.2 67.1
Q -11.75 67.65 -11.75 69.75 -11.75 74.25 -5.25 74.25 -0.25 74.25 -0.25 70.25 -0.25 68.75 -0.45 68.25 -1.05 66.95 -3.5 65.75 -9.65 65.45 -11.2 67.1
M -23.25 43.1
Q -23.25 44.55 -22.75 45 -21.45 46.25 -16.75 46.25 -12.65 46.25 -11.35 44 -10.75 42.9 -10.75 40.25
L -11.05 39.4
Q -11.55 38.55 -12.5 37.75 -19.3 37.9 -21.75 39.7 -23.25 40.8 -23.25 43.1
M -6.75 18.8
Q -10.25 20.7 -10.25 23.1 -10.25 24.05 -10.05 24.4
L -9 25.25 -5.5 25.25
Q -3.8 24.65 -3.4 23.3 -3.25 22.85 -3.25 21.1 -3.25 16.85 -6.75 18.8
M 27.75 140.25
Q 29.25 140.25 30.05 139.55 30.75 139 30.75 138.1
L 30.65 137.2 30.5 137 26.4 137.2
Q 25.25 137.5 25.25 138.6
L 25.3 140 26.05 140.15 27.75 140.25
M 15.75 139.75
L 16.75 139.5
Q 17.75 139.05 17.75 137.85
L 17.65 137.05 17.5 137
Q 14.7 136.7 14 137
L 13.8 137.2 13.75 137.9
Q 13.75 139.75 15.75 139.75
M 8.65 138.2
L 8.5 138 5.8 137.95
Q 4.25 138.3 4.25 139.35
L 4.3 140.05
Q 5 140.75 6.5 140.75
L 8.5 140.5 8.65 140 8.75 139.1 8.65 138.2
M 45.25 137.35
L 45.15 136.55 45 136.5
Q 39.25 135.65 39.25 137.85
L 39.3 138.55
Q 39.8 139.25 42 139.25
L 44.25 139
Q 45.25 138.6 45.25 137.35
M 60.55 129.85
Q 59.75 130 59.75 130.85
L 60.55 132.3
Q 61.55 133.75 62.5 133.75 64.55 133.75 65.55 133 66.25 132.5 66.25 131.85 66.25 130.3 64.5 129.75
L 60.55 129.85
M 70.5 113.25
L 71.35 112.95
Q 71.75 112.65 71.75 111.85 71.75 110.25 67 108.4 62.25 106.55 62.25 109.25 62.25 109.85 63.85 111.5
L 66 113.25 70.5 113.25
M 45.25 95.75
Q 45.25 96.4 45.4 96.65 45.7 97.35 47 97.75
L 50.5 97.75
Q 51.8 97.55 52.15 96.5
L 52.25 95.25
Q 52.25 92.1 48.75 92.75 45.25 93.35 45.25 95.75
M 19.75 84.05
Q 17.25 85.65 17.25 86.25
L 18 87.75
Q 19.2 89.25 21.5 89.25 23.95 89.25 25.5 87.75 26.75 86.5 26.75 85.1 26.75 83.7 25 82.25 22.6 82.25 19.75 84.05
M 2.75 7.6
L 2.8 9 5.5 9.25 7.8 8.8
Q 8.25 8.45 8.25 7.5 8.25 5.25 5.5 5.3 2.75 5.3 2.75 7.6
M 19.15 0.7
L 19 0.5
Q 17.7 0.5 15.4 1.55 13.25 2.55 13.25 2.85
L 13.3 3.55
Q 14 4.25 15.5 4.25 16.95 4.25 18.05 3.5 19.25 2.7 19.25 1.6
L 19.15 0.7
M 49.4 -8.5
Q 48.75 -8.25 48.75 -7.3
L 48.8 -6 50.75 -5.75 52.5 -6 52.65 -6.45 52.75 -7.35 52.65 -8.25 52.5 -8.5
Q 50.15 -8.75 49.4 -8.5
M 39.25 -4.8
L 39.3 -3.5 41.75 -3.25
Q 43.45 -3.25 44.5 -3.75 45.75 -4.35 45.75 -5.5
L 45.5 -7 40.6 -6.65
Q 39.25 -6.05 39.25 -4.8
M 28.75 -2.1
L 28.8 -1.35
Q 30.2 -0.25 31.75 -0.25 32.9 -0.25 34 -0.75 35.25 -1.3 35.25 -2.05 35.25 -3.3 35 -2.6 32.65 -3.65 30.85 -3.65 28.75 -3.65 28.75 -2.1 Z"/>
</g>
</defs>

<g transform="matrix( 1, 0, 0, 1, -33.5,-72.6) ">
<g transform="matrix( 1, 0, 0, 1, 0,0) ">
<use xlink:href="#MovieClips_Symbol_621_8_Layer14_0_FILL"/>
</g>
</g>
</svg>
