
<svg xmlns="http://www.w3.org/2000/svg" version="1.1" xmlns:xlink="http://www.w3.org/1999/xlink" preserveAspectRatio="none" x="0px" y="0px" width="550px" height="400px" viewBox="0 0 550 400">
<defs>
<linearGradient id="Gradient_1" gradientUnits="userSpaceOnUse" x1="5" y1="10.5" x2="5" y2="-0.5" spreadMethod="pad">
<stop  offset="0%" stop-color="#666666"/>

<stop  offset="100%" stop-color="#FFFFFF"/>
</linearGradient>

<g id="Layer0_0_FILL">
<path fill="#43A398" stroke="none" d="
M 1.45 8.5
Q 2.95 10 5 10 7.05 10 8.5 8.5 10 7.05 10 5 10 2.95 8.5 1.45 7.05 0 5 0 2.95 0 1.45 1.45 0 2.95 0 5 0 7.05 1.45 8.5 Z"/>
</g>

<path id="Layer0_0_1_STROKES" stroke="url(#Gradient_1)" stroke-width="0" stroke-linejoin="round" stroke-linecap="round" fill="none" d="
M 5 10
Q 2.95 10 1.45 8.5 0 7.05 0 5 0 2.95 1.45 1.45 2.95 0 5 0 7.05 0 8.5 1.45 10 2.95 10 5 10 7.05 8.5 8.5 7.05 10 5 10 Z"/>
</defs>

<g transform="matrix( 1, 0, 0, 1, 0,0) ">
<use xlink:href="#Layer0_0_FILL"/>

<use xlink:href="#Layer0_0_1_STROKES"/>
</g>
</svg>
