
<svg xmlns="http://www.w3.org/2000/svg" version="1.1" xmlns:xlink="http://www.w3.org/1999/xlink" preserveAspectRatio="none" x="0px" y="0px" width="550px" height="400px" viewBox="0 0 550 400">
<defs>
<g id="Layer0_0_FILL">
<path fill="#DAC849" stroke="none" d="
M 20.7 13.3
Q 21.6 12.4 21.6 10.7 21.6 8.9 20.1 7.4 17.8 5.45 16.3 3.75 15.45 2.65 14.85 2.05 13.75 0.95 12.15 0.45 8 -0.1 6.75 0 5.8 0.1 5.45 0.6 5.55 0.7 5.6 0.8 5.6 1.2 5.75 1.95 6.05 2.35 6.65 3 8 4.85 8 6.55 8 7.45 6.25 12.5 5.9 12.95 4.9 13.9 4.8 14 3.8 14.25 2.75 14.5 2.2 14.8 0.4 15.7 0.1 16.25 0 16.45 0 17.7 0 19.65 1.8 20.2 3.05 20.6 8.25 22
L 11.85 22
Q 12.95 21.9 14.2 21.05 15.25 20.3 15.75 19.6 17.55 17.3 18 16.6 18.9 15.1 20.7 13.3 Z"/>
</g>
</defs>

<g transform="matrix( 1, 0, 0, 1, 0,0) ">
<use xlink:href="#Layer0_0_FILL"/>
</g>
</svg>
