
<svg xmlns="http://www.w3.org/2000/svg" version="1.1" xmlns:xlink="http://www.w3.org/1999/xlink" preserveAspectRatio="none" x="0px" y="0px" width="550px" height="400px" viewBox="0 0 550 400">
<defs>
<g id="Graphics_Symbol_246_0_Layer0_0_FILL">
<path fill="#11D524" stroke="none" d="
M -14.85 34.7
Q -13.3 35.05 -8.25 31.35 -8.65 26.35 -12.4 23.65
L -21 28.4 -21.05 28.5 -21.15 29.35
Q -17.35 34.1 -14.85 34.7
M 72.05 23.2
Q 71.8 22.3 64 22
L 57.55 21.6
Q 55.05 27 56.95 32.3
L 60.35 31.1
Q 70.35 27.3 72.45 25.5
L 72.05 23.2 Z"/>
</g>

<g id="Graphics_Symbol_286_0_Layer3_0_FILL">
<path fill="#000000" stroke="none" d="
M 38.25 -32.9
Q 37.65 -33.5 36.75 -33.5
L 34.4 -32.8 31.5 -31.9 23.55 -23.95 22.7 -23.1
Q 21.9 -22.2 22.15 -22.15
L 6.35 -1.4
Q -5.6 14.1 -8.4 18.75 -10.35 22.05 -17.5 22.8 -20.6 23.1 -21.75 23.75 -23.55 24.75 -23.55 27.3 -23.55 32.35 -21.75 33.75 -20.1 35.05 -14.05 35.05 -7.95 35.05 -0.2 28.05 8.25 19.45 12.15 16.2 13.3 22.95 23 30 32.85 37.1 41.5 37.1
L 47.35 36.55
Q 51.05 35.95 53.2 34.95
L 57.65 32.8 58.35 32.5 61.75 30.85
Q 65.55 28.95 68.3 28.25
L 72.7 27
Q 74.3 26.1 74.3 23.2
L 73.95 22.2 73.55 21.15
Q 73.55 20.55 72.1 20.7
L 69.9 20.95
Q 51.3 20.95 40.2 17.6 36.9 16.6 33.65 15.1
L 29.85 13.45 29.8 11.3 29.95 11.3 30.75 6.5 31.4 0.65 31.65 -9.4
Q 32.4 -9.4 36.1 -24.1 36.55 -25.5 38.05 -27.05 39.05 -28.1 39.05 -30.75 39.05 -32.15 38.25 -32.9
M 35.9 -30.75
Q 34 -26 32.2 -19.9 28.55 -7.7 28.55 0.7
L 27.1 6.65 28.6 15.65
Q 29.6 19.95 31.6 22.35 36.3 28 51.35 28
L 54.6 28.25
Q 57.15 28.55 57.85 28.95
L 58 29.05 58.05 29.65
Q 57.55 30.95 55.3 32.15 50.8 34.5 41.9 34.5 32 34.5 24.45 27.2 19.55 22.5 13.8 12.2
L 12.7 12
Q 5.05 19.55 -2.55 25.75 -17.7 38.2 -17.7 31.7
L -19.05 30.75 -20.55 29.5 -21.15 29.35 -21 28.4
Q -18.1 27.85 -14.35 26.25 -6.85 23.1 -2.8 17.45 10.75 -2.4 17.55 -11.75 29.6 -28.15 35.9 -30.75
M 70.75 23.2
L 70.85 23.5 71.65 24.25
Q 70.8 25.5 67.9 26.7 64.65 28.05 61.55 28.05 54.7 26.6 47.4 24.45 32.9 20.05 30.45 16.3 34.35 18.1 44.65 20.35 57.15 23 66.55 23
L 70.75 23.2 Z"/>
</g>

<g id="Graphics_Symbol_286_0_Layer2_0_FILL">
<path fill="#000000" fill-opacity="0.25098039215686274" stroke="none" d="
M 36.6 -30.9
Q 36.6 -31.9 36.4 -31.85 33.35 -35.15 23.35 -22.85 14.35 -11.85 3.95 6.15 -0.45 13.75 -4.6 18.5 -7.95 22.35 -9.85 23.1 -14.35 24.85 -19 25.75 -21.75 26.25 -21.75 26.9 -21.75 29.75 -19.8 32.15 -17.7 34.8 -14.65 34.8 -10.9 34.8 -8.55 33.75 -6.65 32.9 -4.1 30.45 6.1 20.6 12.25 16.15 15.65 24.45 20.55 28.55 28.5 35.3 42.95 35.3 48.7 35.3 53.8 33.2 58.9 31.15 58.9 28.8
L 57.75 26.85 58.75 27.1
Q 59.9 27.25 60.15 27.9 60.35 28.5 61.15 28.5 63.6 28.5 66.95 27.5 70.95 26.35 72.25 24.55 71.55 23.7 69.5 23.6
L 64.95 23.6
Q 68.4 24.2 70.15 24.75
L 70 25.9 64.8 26.45 62.45 26.85
Q 58.3 26.85 48.5 24.05 39.5 21.45 37.9 20.3
L 46.65 21.25 43.45 20.35 37.5 19.7
Q 34.35 19.7 33 18.75 29.15 16.05 29.15 -2.05 29.15 -6.75 32.9 -19.25
L 36.6 -30.9
M 21.25 -10.85
Q 23.65 -12.45 27.15 -16.4 25.75 -12.8 24.85 -8.8 23.15 -1.25 23.15 9 23.15 17.55 31.2 23.05 39.45 28.65 54.65 30 53.7 31.1 50.55 32.25 47.8 33.25 46.75 33.25 32.8 33.25 24 20.4
L 18.75 11.55
Q 16.4 7.55 14.8 7.55 13.5 7.55 1.4 19.2 -10.7 30.85 -12.65 30.85 -15.7 30.5 -16.5 28.85 -15.55 27.5 -12.8 25.85 -9.2 23.85 -7.1 22.45 1.35 17.05 6.45 8.1 15.05 -6.95 18.1 -9.05
L 21.25 -10.85 Z"/>
</g>

<g id="Graphics_Symbol_286_0_Layer1_0_FILL">
<path fill="#FFFFFF" fill-opacity="0.25098039215686274" stroke="none" d="
M 21.6 -4.05
Q 21.6 -5.05 21.3 -4.3 19.25 -3.8 17.15 -0.9 15.1 1.9 15.1 3.95 15.1 4.45 15.4 4.65
L 16.4 5.35
Q 19.65 3.05 20.95 -0.7 21.6 -2.55 21.6 -4.05 Z"/>
</g>

<g id="Graphics_Symbol_286_0_Layer0_0_FILL">
<path fill="#FFFFFF" fill-opacity="0.5019607843137255" stroke="none" d="
M -11.95 27.65
Q -11.95 26.8 -12.7 26.25 -13.45 25.65 -14.5 25.65 -15.55 25.65 -16.3 26.25 -17.05 26.8 -17.05 27.65 -17.05 28.5 -16.3 29.1 -15.55 29.65 -14.5 29.65 -13.45 29.65 -12.7 29.1 -11.95 28.5 -11.95 27.65
M 54.1 30.5
Q 54.1 29.5 53.4 28.8 52.7 28.1 51.7 28.1 50.7 28.1 50 28.8 49.3 29.5 49.3 30.5 49.3 31.5 50 32.2 50.7 32.9 51.7 32.9 52.7 32.9 53.4 32.2 54.1 31.5 54.1 30.5
M 71.15 24.6
Q 71.15 23.9 70.35 23.4 69.55 22.9 68.4 22.9 67.25 22.9 66.45 23.4 65.65 23.9 65.65 24.6 65.65 25.3 66.45 25.8 67.25 26.3 68.4 26.3 69.55 26.3 70.35 25.8 71.15 25.3 71.15 24.6 Z"/>
</g>

<g id="MovieClips_Symbol_228_17_Layer1_0_FILL">
<path fill="#11D524" stroke="none" d="
M 31.7 -10.9
Q 34.95 -28.1 35.9 -30.75 27.45 -26.5 22 -18.7
L 5.8 4.3
Q -4.9 19.45 -11.6 23.2
L -12.4 23.65
Q -8.65 26.35 -8.25 31.35
L -0.1 24.85
Q 12.05 14.45 12.5 13.25 12.95 12 15.15 15.5 18 20.1 24.45 28.15 30.9 36.15 40.65 35.5 48.7 34.95 56.95 32.3 55.05 27 57.55 21.6
L 45.9 20.1
Q 35.7 18.45 31.75 15.85 27.75 13.25 28.1 9.75 28.45 6.25 31.7 -10.9 Z"/>
</g>
</defs>

<g transform="matrix( 1, 0, 0, 1, -28.4,-10.7) ">
<g transform="matrix( 1, 0, 0, 1, 0,0) ">
<g transform="matrix( 1, 0, 0, 1, 0,0) ">
<use xlink:href="#Graphics_Symbol_246_0_Layer0_0_FILL"/>
</g>
</g>

<g transform="matrix( 1, 0, 0, 1, 0,0) ">
<g transform="matrix( 1, 0, 0, 1, 0,0) ">
<use xlink:href="#Graphics_Symbol_286_0_Layer3_0_FILL"/>
</g>

<g transform="matrix( 1, 0, 0, 1, 0,0) ">
<use xlink:href="#Graphics_Symbol_286_0_Layer2_0_FILL"/>
</g>

<g transform="matrix( 1, 0, 0, 1, 0,0) ">
<use xlink:href="#Graphics_Symbol_286_0_Layer1_0_FILL"/>
</g>

<g transform="matrix( 1, 0, 0, 1, 0,0) ">
<use xlink:href="#Graphics_Symbol_286_0_Layer0_0_FILL"/>
</g>
</g>
</g>

<g transform="matrix( 1, 0, 0, 1, -28.15,-10.5) ">
<g transform="matrix( 1, 0, 0, 1, 0,0) ">
<use xlink:href="#MovieClips_Symbol_228_17_Layer1_0_FILL"/>
</g>
</g>

<g transform="matrix( 1, 0, 0, 1, -28.4,-10.7) ">
<g transform="matrix( 1, 0, 0, 1, 0,0) ">
<g transform="matrix( 1, 0, 0, 1, 0,0) ">
<use xlink:href="#Graphics_Symbol_246_0_Layer0_0_FILL"/>
</g>
</g>
</g>
</svg>
