
<svg xmlns="http://www.w3.org/2000/svg" version="1.1" xmlns:xlink="http://www.w3.org/1999/xlink" preserveAspectRatio="none" x="0px" y="0px" width="550px" height="400px" viewBox="0 0 550 400">
<defs>
<g id="Layer0_0_FILL">
<path fill="#FFFFFF" stroke="none" d="
M 5.05 1.25
Q 4.95 0.85 4.8 0.75 4.45 0.45 4.15 0.4
L 3.75 0.3 3.7 0.3 3.35 0.1
Q 2.6 -0.1 1.95 0.2 1.45 0.4 0.8 0.85 0.4 1.15 0.3 1.4
L 0.05 2.05
Q 0 2.15 0.05 2.3 0.05 2.5 0.2 2.45
L 0.6 2.4
Q 0.95 2.4 1.15 2.25 1.65 2 2.15 2
L 3.3 1.9 3.5 1.8 4.05 2.05 4.25 2.25
Q 4.4 2.4 4.7 2.3 5.05 2.15 5.05 1.75
L 5.1 1.5 5.05 1.25 Z"/>
</g>
</defs>

<g transform="matrix( 1, 0, 0, 1, 0,0) ">
<use xlink:href="#Layer0_0_FILL"/>
</g>
</svg>
