
<svg xmlns="http://www.w3.org/2000/svg" version="1.1" xmlns:xlink="http://www.w3.org/1999/xlink" preserveAspectRatio="none" x="0px" y="0px" width="550px" height="400px" viewBox="0 0 550 400">
<defs>
<g id="Layer0_0_FILL">
<path fill="#000000" stroke="none" d="
M -23.05 14.35
Q -19 15.25 -20.85 7.5 -22.8 -0.4 -17.35 -2.25 -11.85 -4.1 -4.7 9.7
L 2.45 23.65
Q 2.45 12.7 -2.1 5.2 -6.65 -1.9 -12.25 -5.4 -27.1 -14.9 -27.1 9.1
L -26.95 10.6
Q -27.1 13.4 -23.05 14.35
M 17.45 -22
Q 14.45 -22.7 16.65 -18.6 18.85 -14.1 16.4 -5.4 13.9 0.55 13.9 5.05
L 14.45 13.4 14.85 16 15.1 15.05
Q 16.8 11.55 18.5 9.35 17.95 6.9 17.95 5.2
L 19.15 -3.2
Q 20.3 -10.95 22.25 -12.7 24.2 -14.35 22.4 -17.9 20.45 -21.4 17.45 -22
M 3.4 -2.4
L 3.25 -9.9 -3.65 -21.75
Q 6.75 -21.6 7.55 -14.55 8.2 -7.6 10.4 -7.25 12.6 -7.1 12.6 -11.35 12.6 -17.7 2.05 -25.35 -8.45 -33.35 -4.95 -19.55 -1.55 -5.75 -0.55 -5.95 0.4 -6.3 0 -5.6 -0.55 -4.8 2.6 9.1 6.1 22.9 8.2 22.9 10.55 22.9 10.55 18.85
L 3.4 -2.4 Z"/>
</g>
</defs>

<g transform="matrix( 1, 0, 0, 1, 0,0) ">
<use xlink:href="#Layer0_0_FILL"/>
</g>
</svg>
