
<svg xmlns="http://www.w3.org/2000/svg" version="1.1" xmlns:xlink="http://www.w3.org/1999/xlink" preserveAspectRatio="none" x="0px" y="0px" width="550px" height="400px" viewBox="0 0 550 400">
<defs>
<g id="Graphics_Symbol_617_0_Layer0_0_FILL">
<path fill="#FF0000" stroke="none" d="
M 22.65 27.65
L 4.55 26.05 4.25 36.2 3.65 46.45 25.8 48.2 23.6 41.75
Q 21.75 35.9 21.75 33.65
L 22 30.3
Q 22.3 27.65 22.65 27.65
M 79.95 27.85
L 57.55 28.6 57.75 29.75 57.95 31.6
Q 57.95 35.35 56.3 39.6 54.25 44.85 50.15 49.3
L 69.7 49.55 79.95 49.45
Q 79.25 46.7 78.75 43.05
L 78.3 39.05 79.95 27.85 Z"/>
</g>

<g id="Graphics_Symbol_720_0_Layer1_0_FILL">
<path fill="#000000" stroke="none" d="
M 84 29.7
Q 84 25.55 82.55 23.95 80.25 22.1 78.25 24.45
L 77.1 25.3
Q 76.5 25.2 75.7 23.15 75.05 21.45 71.6 16.95 68.05 12.45 66.7 11.6 57.6 5.95 45.1 3.05 33.45 0.3 20.5 0.3 9.5 0.3 5.15 11.5 3 17.1 2.9 22.7 1.75 22.7 0.55 32.35 -0.5 40.9 -0.5 46.05
L 0 49.75 2.6 49.95 2.25 59.95 2.05 69.9
Q 1.1 90.9 1.1 93
L 1.65 102.8 -5.2 103.05
Q -7.45 103.05 -12.4 100.75 -17.7 98.3 -20.4 95.75 -21.45 96.9 -22.2 98.5 -23.1 100.4 -23.1 102.2 -23.1 112.4 -15.8 118.75 -9.6 124.2 -2.2 124.2 1.85 124.2 7.95 121.25
L 9.75 125.2
Q 10.9 127.55 12.95 128.9 18.6 132.8 36.25 132.8 51.95 132.8 62.05 128.95 70.2 125.8 73.9 120.55 77.3 115.8 80.7 95.7 83.8 77.5 83.8 68.25
L 83.55 62.3 82.9 53.35 83.5 53.35 83.2 44.7
Q 82.3 36.9 82.3 35.9 82.3 34.3 83.15 32.95 84 31.65 84 29.7
M 61.3 12.2
Q 63.45 13.75 66.55 17.15 70.25 21.2 71.9 24.4
L 60.65 24.9 62.7 20.85 56.4 17.85 57 16.65 61.3 12.2
M 58.55 10.3
Q 56.5 11.6 54.9 13.55 53.2 15.65 53.2 17.05 53.2 18.65 54.6 20.3 56 22 57.8 22.45
L 55.55 24.75
Q 52.65 21.75 50.65 20.55 46.3 17.85 40.5 17.85
L 32.7 18.25 31.4 19.35 27.9 22.2 25.05 24.5 5.9 23 9.75 12.8
Q 13.05 4.35 14.3 4.35 38.05 4.35 49.3 6.8 53.2 7.65 58.55 10.3
M 45.4 22.75
L 48.6 23.8 44.45 27.55
Q 41.15 30.6 40.65 32.1
L 35.85 29.95 35.25 30.05
Q 34.95 30.15 34.95 30.8 34.95 31.5 35.6 32.05
L 36.85 32.95
Q 38.45 34.4 37.2 38.35
L 41.2 36.8 45.15 35.05
Q 43.15 33.6 41 32.3
L 46.05 27.45 49.45 24.1
Q 55.35 24.1 56.25 28.35 57 32 54 37.7 51.2 43 46.85 47 42.2 51.25 38.75 51.25 34.85 52.15 31.35 50.1 24.45 46.05 24.45 31.3 24.45 21.7 39.05 21.7 41.75 21.7 45.4 22.75
M 57.75 29.75
L 57.55 28.6 79.95 27.85 78.3 39.05 78.75 43.05
Q 79.25 46.7 79.95 49.45
L 69.7 49.55 50.15 49.3
Q 54.25 44.85 56.3 39.6 57.95 35.35 57.95 31.6
L 57.75 29.75
M 3.65 46.45
L 4.25 36.2 4.55 26.05 22.65 27.65
Q 22.3 27.65 22 30.3
L 21.75 33.65
Q 21.75 35.9 23.6 41.75
L 25.8 48.2 3.65 46.45
M 34.65 53.5
L 35.9 54 38.9 54.1 41.6 53.3
Q 44.25 52.55 45.75 52.5
L 56.4 53.3
Q 58.05 53.6 59.1 54.35
L 57 58
Q 55.65 60.35 55.65 61.7 55.65 62.95 56.9 64.6 57.85 65.9 58.9 66.65 57.1 67.85 55.85 69.4 54 71.6 54 73.8 54 74.3 54.5 75.35
L 55 76.85 54.55 78.6
Q 54.1 79.85 54.1 80.35 54.1 81.95 55.1 83.15 56.1 84.35 57.9 84.85 56.1 85.8 55.2 87.8 54.75 88.8 54.65 89.6 54.65 90.95 57.6 96.4 60.55 101.8 61.4 102.25 59.85 104.1 59.6 106.5 59.6 107.85 61.55 110 63.1 111.8 64.5 112.75 62.7 113.4 62.15 115.25 61.9 116.05 61.9 117.75 61.9 119.4 62.7 120.8 63.65 122.45 65.5 123.3 60.8 125.9 44.8 127.95
L 28.6 129.5
Q 15.45 129.5 8.8 115.75 4.05 105.9 4.05 94
L 4.25 87.35
Q 5.8 65.5 5.8 60.7
L 5.6 50.2
Q 30.05 52.35 34.65 53.5
M 70.95 53.3
L 79.6 53.35 79.65 66.65
Q 79.65 92.5 77.75 105.2 75.45 120.7 69.95 120.7
L 63.6 118.05 66.2 115.45
Q 67.75 113.8 67.75 112.5 67.75 110.85 66.65 109.35 65.5 107.65 62.7 105.75
L 65.1 103.85
Q 66.3 102.65 66.3 101.25
L 62.15 96.8
Q 58 92.05 58 89.65 58 89.4 59.55 87.45 61.05 85.5 61.05 84.55 61.05 83.4 59.8 81.95 58.6 80.5 57.2 80.05
L 61.6 76.75
Q 61.35 76.4 59.7 75.05 58.05 73.75 57.6 73.55
L 64.4 66.95 58.8 61.95 60.75 58.8
Q 62.65 56 62.65 54.8
L 62.5 53.55 62.3 53.05 70.95 53.3
M 1.9 114.35
L 4.25 114.75
Q 6.15 115.8 6.9 119.25
L 3.3 119.3
Q -9.3 119.3 -14.4 115.95 -19.15 112.85 -19.15 105.35
L -18.9 101.85
Q -14.95 108.15 -10.65 110.95 -5.55 114.35 1.9 114.35
M 2.05 104.6
Q 3 108.85 4.25 113
L 1.55 113.1
Q -0.8 113.1 -6.4 109.95 -11.6 107.05 -14.3 104.6 -10.3 107.45 -4.85 107.45 -2.5 107.45 -0.55 106.7 1.5 105.9 2.05 104.6
M 70.9 96.15
Q 70.35 92.55 69.05 91.8 68.55 92.6 68.55 93.1
L 69.95 95.9
Q 70.7 97.45 72.1 97.45 72.9 97.1 73.85 95.35
L 73.65 95.25 71.8 96.9 70.9 96.15
M 71.4 59.35
Q 73.3 57.65 72.8 57.3 71.9 57.2 71.8 56.95
L 71.4 57.15 71 58.1
Q 70.7 58.45 70.7 58.95
L 71.5 60.15
Q 72.35 61.15 73.35 61.75 72.8 63.4 73.55 63.8
L 74.4 63.9 73.95 64.75
Q 73.85 65.8 75.65 67.25 73.85 68.9 73.25 69.8
L 74 70.55
Q 74.65 71.1 75.2 71.1
L 75 71.45
Q 73.1 72.55 70.5 73.4
L 71.25 73.65
Q 72 73.65 73.6 72.85
L 75.85 71.35
Q 74.45 69.65 73.9 69.6
L 75.05 68.75 76.65 67.6 75.4 66.45
Q 74.4 65.65 74.4 65.05 74.4 64.55 75.05 64.65 75.7 64.7 75.7 64.2 75.7 63.6 74.75 62.95
L 73.8 62.45 74.5 62.5
Q 74.8 62.5 74.8 61.9 74.8 60.9 71.4 59.35
M 29.4 89.8
L 29.2 90 29.1 90.15
Q 28.95 91.3 29.9 91.7 30.65 92.05 31.5 91.7 31.45 93.65 31.65 94.25 32.2 95.8 34.5 95.7 33.5 96.25 33.05 98.45 32.75 99.85 32.75 101.3 32.75 102.3 33.05 103.15
L 34 103.35 38.35 101.75
Q 39 101.75 39.9 102.45 40.8 103.1 41.4 103.1 43.35 103.1 44.85 101.75 46.2 100.55 47.65 97.8
L 47.05 97.4
Q 46.7 97.25 46.7 97.9 44.5 101.8 43.4 101.8 42.8 102.25 41.1 102.25 39.55 100.9 39 100.8 39.45 100.15 39.25 99.4
L 38.95 99.35 36.9 101.2
Q 35.45 102.45 34.2 102.45
L 33.25 102.4
Q 33.25 101.4 34.35 98.45
L 35.35 95.1 32.9 94.35 33.4 93.75 33.7 92.9
Q 33.7 92.35 31.7 91.15
L 29.4 89.8
M 21.6 58.6
L 21.1 58.2 20.05 58 18.8 58.1 19.45 57.45 20.4 56.6
Q 20.1 56.3 19.7 56.25 18.35 57.25 18.1 57.95
L 18.05 58.5 18.9 60.05
Q 19.3 60.7 21.2 61.3
L 20 62.7 19.7 65.25 19.35 67.8
Q 19.35 68.8 19.5 68.1
L 21.3 68.15
Q 23.85 68.15 25.9 66.1
L 26.1 66.95 27.8 67.25 30.05 66.8
Q 31.75 66 31.5 64
L 31.1 63.95 29.15 65.85
Q 28 66.75 26.7 66.45 26.85 65.1 26.65 65 26 65.15 23.5 66.8 21.6 68 20.3 67.5
L 20.35 67.1
Q 20.75 65.4 21.55 63.8
L 23 61.05
Q 22.8 60.85 20.1 59.9
L 21.6 58.6 Z"/>

<path fill="#FFFFFF" stroke="none" d="
M 4.25 114.75
L 1.9 114.35
Q -5.55 114.35 -10.65 110.95 -14.95 108.15 -18.9 101.85
L -19.15 105.35
Q -19.15 112.85 -14.4 115.95 -9.3 119.3 3.3 119.3
L 6.9 119.25
Q 6.15 115.8 4.25 114.75
M 79.6 53.35
L 70.95 53.3 62.3 53.05 62.5 53.55 62.65 54.8
Q 62.65 56 60.75 58.8
L 58.8 61.95 64.4 66.95 57.6 73.55
Q 58.05 73.75 59.7 75.05 61.35 76.4 61.6 76.75
L 57.2 80.05
Q 58.6 80.5 59.8 81.95 61.05 83.4 61.05 84.55 61.05 85.5 59.55 87.45 58 89.4 58 89.65 58 92.05 62.15 96.8
L 66.3 101.25
Q 66.3 102.65 65.1 103.85
L 62.7 105.75
Q 65.5 107.65 66.65 109.35 67.75 110.85 67.75 112.5 67.75 113.8 66.2 115.45
L 63.6 118.05 69.95 120.7
Q 75.45 120.7 77.75 105.2 79.65 92.5 79.65 66.65
L 79.6 53.35
M 72.8 57.3
Q 73.3 57.65 71.4 59.35 74.8 60.9 74.8 61.9 74.8 62.5 74.5 62.5
L 73.8 62.45 74.75 62.95
Q 75.7 63.6 75.7 64.2 75.7 64.7 75.05 64.65 74.4 64.55 74.4 65.05 74.4 65.65 75.4 66.45
L 76.65 67.6 75.05 68.75 73.9 69.6
Q 74.45 69.65 75.85 71.35
L 73.6 72.85
Q 72 73.65 71.25 73.65
L 70.5 73.4
Q 73.1 72.55 75 71.45
L 75.2 71.1
Q 74.65 71.1 74 70.55
L 73.25 69.8
Q 73.85 68.9 75.65 67.25 73.85 65.8 73.95 64.75
L 74.4 63.9 73.55 63.8
Q 72.8 63.4 73.35 61.75 72.35 61.15 71.5 60.15
L 70.7 58.95
Q 70.7 58.45 71 58.1
L 71.4 57.15 71.8 56.95
Q 71.9 57.2 72.8 57.3
M 69.05 91.8
Q 70.35 92.55 70.9 96.15
L 71.8 96.9 73.65 95.25 73.85 95.35
Q 72.9 97.1 72.1 97.45 70.7 97.45 69.95 95.9
L 68.55 93.1
Q 68.55 92.6 69.05 91.8
M 66.55 17.15
Q 63.45 13.75 61.3 12.2
L 57 16.65 56.4 17.85 62.7 20.85 60.65 24.9 71.9 24.4
Q 70.25 21.2 66.55 17.15 Z"/>

<path fill="#FFCC33" stroke="none" d="
M 48.6 23.8
L 45.4 22.75
Q 41.75 21.7 39.05 21.7 24.45 21.7 24.45 31.3 24.45 46.05 31.35 50.1 34.85 52.15 38.75 51.25 42.2 51.25 46.85 47 51.2 43 54 37.7 57 32 56.25 28.35 55.35 24.1 49.45 24.1
L 46.05 27.45 41 32.3
Q 43.15 33.6 45.15 35.05
L 41.2 36.8 37.2 38.35
Q 38.45 34.4 36.85 32.95
L 35.6 32.05
Q 34.95 31.5 34.95 30.8 34.95 30.15 35.25 30.05
L 35.85 29.95 40.65 32.1
Q 41.15 30.6 44.45 27.55
L 48.6 23.8 Z"/>
</g>

<g id="Graphics_Symbol_720_0_Layer0_0_FILL">
<path fill="#000000" fill-opacity="0.30196078431372547" stroke="none" d="
M 3.7 121
Q 7.2 119.65 7.2 118.1
L 7.1 117.45 7 117.55
Q -0.45 116 -6.4 113.95 -17.8 110 -19.7 104.45
L -20.15 104.55
Q -20.35 104.65 -20.35 105.25 -20.35 110.45 -15.95 115.55 -10.3 122.1 -0.9 122.1 0.8 122.1 3.7 121
M 60 41.85
Q 54 41.35 51.25 45.4 49.85 47.45 49.65 49.85
L 49.7 51.05 52.35 51.15 58.35 50.4 65.5 49.65
Q 67.05 49.65 72.55 51
L 78.55 52.3
Q 79.45 52.3 80.25 50.95 81.3 49.25 81.3 46.55 81.3 43.75 80.85 43 80.35 42.2 78.35 42.15 70.3 42.75 60 41.85
M 46.6 48.35
Q 52.65 41.55 55.55 39.6 55.4 39.05 54.85 38.75
L 54.25 38.85 49.1 41.5
Q 45.2 43.25 41.35 43.25 34.8 43.25 32.5 39.85 29.6 35.7 29.05 22.45
L 27.9 23.3
Q 26.35 26.1 24.75 29.95 23.15 33.8 23.15 34.75 23.15 39.6 25.05 44.05
L 18.2 42.05
Q 14.15 41 10.3 41 10.45 32.4 10.25 29.6 10 25.3 5.55 24.2
L 4.45 27.05 3.95 28.15
Q 4.25 28.25 3.4 31.75
L 2 38.5
Q 1.25 42.55 1.25 43.3 1.25 44.8 2 45.55 2.95 46.55 6.3 47.9
L 4.75 49
Q 3.5 50.25 3.5 52.3
L 3.3 62.85 3.1 82.95
Q 3.1 97.15 4.15 103.1 4.05 102.9 3.65 103.1 3.2 103.35 3.2 104 3.2 113.6 11.85 121.6 22.15 131.1 38.9 131.1 54.9 131.1 61.45 127.6 65.2 125.6 65.2 123.05
L 64.9 120.85 65.7 121.2
Q 67.85 122 69.25 122 70.25 122 71 121.3 72.1 120.3 72.1 118.1
L 72.05 116.8 70 105.6
Q 67.95 95.6 65.4 88.45 63.5 83.05 63.5 82.25
L 64.55 80.1
Q 65.55 78.05 65.55 77.45 65.75 74.85 64.05 73.45 67.5 71.75 67.5 66.7 67.5 65.8 67 64.55
L 66.05 62.2 67.25 61.65
Q 67.65 61.3 67.65 60.65 67.65 58.8 66.8 56.1 65.85 53.2 65.8 51.95
L 65.25 52.9
Q 63.7 51.95 62 51.95 60.85 51.95 59.45 55 58.1 58.05 58.1 60.65 58.1 64.8 60.5 67.45 58.6 69.65 57.8 71.2 56.7 73.4 56.7 76.15 56.7 76.9 57.75 79.2
L 58.8 82.2 56.95 90.55
Q 56.95 92.5 60.75 99.55 64.55 106.65 64.55 112.15 64.55 112.85 63.5 114.6 62.4 116.4 62.4 117.35 62.4 118.5 63.1 119.5
L 62.6 119.75 40.8 117.2
Q 19.5 113.9 16.3 109.65 10.95 102.6 10.6 88.25
L 11.25 63.95 11.8 49.7
Q 11.15 50.5 10.85 49.85 11.3 49.9 11.15 49.4
L 19.35 50.25
Q 25.25 50.25 26.65 49.4 27.05 49.15 27.5 47.3
L 33.9 51.65
Q 35.95 53.1 38.8 53.1 42.35 53.1 46.6 48.35
M 47.45 129.2
L 41.2 130.3 37.15 130.7 31.3 129.95 25.8 128.85 36.65 129.25
Q 43.45 129.4 47.45 129.2
M 67.8 24.5
Q 67.15 23.2 65.35 21.15 68.95 20.55 66.7 16.4 64.55 12.4 61.9 11.75
L 62.05 10.45
Q 57.75 13.05 56.5 15.1 56.05 15.9 56.05 17.25 56.05 22.05 59.75 24.4 61.65 25.6 63.65 25.8 64.95 25.8 67.8 24.5 Z"/>
</g>
</defs>

<g transform="matrix( 1, 0, 0, 1, -33.5,-72.6) ">
<g transform="matrix( 1, 0, 0, 1, 0,0) ">
<g transform="matrix( 1, 0, 0, 1, 0,0) ">
<use xlink:href="#Graphics_Symbol_617_0_Layer0_0_FILL"/>
</g>
</g>

<g transform="matrix( 1, 0, 0, 1, 0,0) ">
<g transform="matrix( 1, 0, 0, 1, 0,0) ">
<use xlink:href="#Graphics_Symbol_720_0_Layer1_0_FILL"/>
</g>

<g transform="matrix( 1, 0, 0, 1, 0,0) ">
<use xlink:href="#Graphics_Symbol_720_0_Layer0_0_FILL"/>
</g>
</g>
</g>
</svg>
