
<svg xmlns="http://www.w3.org/2000/svg" version="1.1" xmlns:xlink="http://www.w3.org/1999/xlink" preserveAspectRatio="none" x="0px" y="0px" width="550px" height="400px" viewBox="0 0 550 400">
<defs>
<g id="Layer0_0_FILL">
<path fill="#FFFFFF" fill-opacity="0.5019607843137255" stroke="none" d="
M 56.6 127.6
L 58.1 127.45 58.2 125.6
Q 57.8 125.2 53.2 123.3 48.5 121.35 46.5 119.5 45.05 118.15 44.35 115.15 43.85 113.1 41.7 113.1 40.55 113.1 39.6 113.65 38.65 114.2 38.65 114.8 38.65 120.15 56.6 127.6
M 77.7 63.7
Q 78.5 62.2 78.5 60.9 78.5 59.5 76.35 59.5 74.05 59.5 71.2 62.65 68.3 65.85 68.3 68.7 68.3 70.15 69.2 71.95 70 73.5 70.55 73.9 76.1 66.5 77.7 63.7
M 35.3 90.2
Q 34.85 88.45 35.65 87.55 36.05 87.1 37.75 86.3 41.25 84.6 41.25 80.25
L 41.2 77.6
Q 41.05 76.15 40.35 75.25 37.4 75.3 34.1 79.7 31.05 83.75 31.05 86.25 31.05 90.5 34.2 90.5
L 35.3 90.2
M 99.45 91.9
Q 95.1 92.1 92.2 96.8 90.3 99.85 89.6 103.4 88.9 105.95 85.9 110.95
L 83.05 115.5
Q 83.05 116.5 83.3 116.9
L 83.6 117.2 84.2 117.25
Q 84.9 117.25 87.3 115.25 90 113 92.5 109.95 99.55 101.4 99.55 93.5
L 99.45 91.9 Z"/>
</g>
</defs>

<g transform="matrix( 1, 0, 0, 1, 0,0) ">
<use xlink:href="#Layer0_0_FILL"/>
</g>
</svg>
