
<svg xmlns="http://www.w3.org/2000/svg" version="1.1" xmlns:xlink="http://www.w3.org/1999/xlink" preserveAspectRatio="none" x="0px" y="0px" width="550px" height="400px" viewBox="0 0 550 400">
<defs>
<g id="Layer0_0_FILL">
<path fill="#000000" fill-opacity="0.25098039215686274" stroke="none" d="
M 109.95 54.1
Q 107.9 59.05 111.75 66.85 114.95 74.8 114.95 84.1 114.95 119.1 84.65 135.8 75.7 140.75 63.8 144.05
L 54.35 146.85 54.15 150.05
Q 53.9 150.9 54.9 150.85
L 68.75 150.4
Q 74.6 149.8 83.65 147.25 92.65 144.7 107.7 131.75 122.7 118.8 123.75 94.5 124.75 70.15 109.95 54.1
M 39.5 95.95
L 38.95 96
Q 39.6 96.65 40.9 97.35 42.55 98.3 43.35 98.3 47.85 98.3 50.85 95.05 54 91.6 54 86.2 54 81.4 51.9 78.95 50.3 77.05 48.05 77.05 47.35 77.05 46.85 77.45
L 45.85 78.55 48.05 81.3
Q 49.25 82.95 49.25 84.05 49.25 85.5 47.05 88.6
L 42.85 93.75
Q 40.9 95.8 39.5 95.95
M 104.55 92.8
Q 103.85 91.7 101.45 91.9 98.8 96.6 97.9 103.5 96.95 110.4 95.4 113.9 93.85 117.35 87.05 120.2
L 61.7 130.95 63.05 131.7 65.45 131.9
Q 82.75 131.9 94.1 121.45 105.1 111.35 105.1 96.7 105.1 93.7 104.55 92.8
M 83.5 59.1
Q 82.9 61.2 84.35 63.65 86.1 66.5 86.1 68.35 86.1 71.6 84.35 75
L 81.65 76.95
Q 77.8 79.75 77.8 80.05 77.8 81.2 78.95 81.85
L 80.6 82.3
Q 85.05 82.3 88.45 79.3 92.35 75.8 92.35 69.95 92.35 65.95 90.6 62.7 88.5 58.85 84.9 58.85
L 83.5 59.1 Z"/>
</g>
</defs>

<g transform="matrix( 1, 0, 0, 1, 0,0) ">
<use xlink:href="#Layer0_0_FILL"/>
</g>
</svg>
