<?xml version='1.0' encoding='utf-8'?>
<svg xmlns="http://www.w3.org/2000/svg" xmlns:xlink="http://www.w3.org/1999/xlink" version="1.1" width="550px" height="400px" viewBox="0 0 550 400" preserveAspectRatio="none" data-xfl-root="Parts/Hats/Propeller/Symbol 692">
  <g transform="matrix(1 0 0 1 -84.15 -116.65)">
    <g data-xfl-symbol="Parts/Hats/Propeller/Symbol 692">
      <g data-xfl-symbol="Graphics/Symbol 688">
        <g data-svg-leaf="graphics_symbol_688_77ddfb9f1a/t00_l001_f0000_r00.svg">
          <defs>
            <g id="xfl1_Layer0_0_FILL">
              <path fill="#000000" stroke="none" d=" M 123.25 13.5 Q 130.9 6.15 135.9 3.3 108.55 -2.4 68.55 26.05 20.95 17.3 0 44.05 33.4 43.05 50.25 34.3 67.1 25.5 69.4 26.1 115.6 20.8 123.25 13.5 Z" />
            </g>
          </defs>
          <g transform="matrix( 1, 0, 0, 1, 0,0) ">
            <use xlink:href="#xfl1_Layer0_0_FILL" />
          </g>
        </g>
        <g data-svg-leaf="graphics_symbol_688_77ddfb9f1a/t00_l000_f0000_r00.svg">
          <defs>
            <g id="xfl2_Layer0_0_FILL">
              <path fill="#FFFFFF" stroke="none" d=" M 51.25 29.75 Q 48.95 25.45 40.6 27.55 31.15 30.95 28 31.75 L 20 33.8 Q 15.3 35.1 11.8 36.6 L 12.55 37.5 13.55 38 Q 12.2 38.4 11.85 39.15 11.65 39.55 11.75 39.85 11.75 40.65 12.1 40.95 L 13 41.25 Q 16.3 39.8 22.1 38.55 L 30.25 36.6 Q 32.9 35.7 42.75 33.1 48.8 31.5 51.25 29.75 M 121.1 8.35 Q 117.9 5.9 113.15 7.95 108.25 10.8 106.6 11.25 L 106.65 10 Q 106.5 9.35 105 9.35 104.5 9.35 93.1 14.35 81.35 19.5 81.35 20.4 81.35 21.2 81.65 21.4 L 82.5 21.6 93.1 17.85 Q 93.75 17.85 93.95 18.5 94.15 19.1 94.75 19.1 99.2 19.1 109.6 14.35 117.9 10.55 121.1 8.35 Z" />
            </g>
          </defs>
          <g transform="matrix( 1, 0, 0, 1, 0,0) ">
            <use xlink:href="#xfl2_Layer0_0_FILL" />
          </g>
        </g>
      </g>
    </g>
  </g>
</svg>