<?xml version='1.0' encoding='utf-8'?>
<svg xmlns="http://www.w3.org/2000/svg" xmlns:xlink="http://www.w3.org/1999/xlink" version="1.1" width="550px" height="400px" viewBox="0 0 550 400" preserveAspectRatio="none" data-xfl-root="Parts/Hats/Propeller/Symbol 692">
  <g transform="matrix(1 0 0 1 -84.15 -116.65)">
    <g data-xfl-symbol="Parts/Hats/Propeller/Symbol 692">
      <g data-xfl-symbol="Graphics/Symbol 690">
        <g data-svg-leaf="graphics_symbol_690_e3b4b86003/t00_l001_f0000_r00.svg">
          <defs>
            <g id="xfl1_Layer0_0_FILL">
              <path fill="#000000" stroke="none" d=" M 69.65 35.2 Q 92.25 15.55 65.35 15.85 40.7 35.4 69.65 35.2 Z" />
            </g>
          </defs>
          <g transform="matrix( 1, 0, 0, 1, 0,0) ">
            <use xlink:href="#xfl1_Layer0_0_FILL" />
          </g>
        </g>
        <g data-svg-leaf="graphics_symbol_690_e3b4b86003/t00_l000_f0000_r00.svg">
          <defs>
            <g id="xfl2_Layer0_0_FILL">
              <path fill="#FFFFFF" stroke="none" d=" M 70.5 16.35 Q 67.55 18.55 64.4 23.65 61.6 28.15 61.6 29.55 L 63 31.1 65.95 29.65 68.85 27.75 69 28.5 Q 68.15 29.2 67.75 30.2 67.4 31.1 67.5 31.75 L 68.75 32 Q 70.35 32 72.75 27.5 75 23.3 75 21.65 L 75 20 Q 74.65 18.5 73 18.5 L 72.2 19.1 71.1 20.25 71.35 18.45 Q 71.3 17.3 70.5 16.35 Z" />
            </g>
          </defs>
          <g transform="matrix( 1, 0, 0, 1, 0,0) ">
            <use xlink:href="#xfl2_Layer0_0_FILL" />
          </g>
        </g>
      </g>
    </g>
  </g>
</svg>