
<svg xmlns="http://www.w3.org/2000/svg" version="1.1" xmlns:xlink="http://www.w3.org/1999/xlink" preserveAspectRatio="none" x="0px" y="0px" width="550px" height="400px" viewBox="0 0 550 400">
<defs>
<g id="Layer0_0_FILL">
<path fill="#FFFFFF" stroke="none" d="
M 214.4 5.5
Q 213.8 3.6 213.05 2.8 212.35 1.95 211.05 2.1 209.65 2.25 209.15 4.85 208.6 3.05 207.9 2.5 207.25 1.95 206.25 2
L 205.4 2.35 205 2.7 204.65 3.1
Q 204 4.1 203.65 5.15
L 203.1 8.4 202.95 12.55 205.65 12.65 206 7.4
Q 206.3 6.1 206.8 6.05
L 207.25 6.7 207.65 8.85 207.95 12.5 210.3 12.55 210.65 7.25 210.95 6.45 211.3 6.15 211.7 6.4 212.05 7.2 212.35 8.5 212.85 12.55 215.75 12.55
Q 215 7.35 214.4 5.5 Z"/>
</g>
</defs>

<g transform="matrix( 1, 0, 0, 1, 0,0) ">
<use xlink:href="#Layer0_0_FILL"/>
</g>
</svg>
