
<svg xmlns="http://www.w3.org/2000/svg" version="1.1" xmlns:xlink="http://www.w3.org/1999/xlink" preserveAspectRatio="none" x="0px" y="0px" width="550px" height="400px" viewBox="0 0 550 400">
<defs>
<g id="Layer0_0_FILL">
<path fill="#FFFFFF" stroke="none" d="
M 189.55 2
L 188.65 2 187.7 2.25 186.8 2.7 185.95 3.35
Q 185.15 4.05 184.85 5.75
L 184.65 7.4 184.75 8.95 185.15 10.3 185.4 10.85 185.75 11.3 186.5 11.95 187.4 12.35 188.3 12.5 189.1 12.45 189.85 12.15 190.4 11.65 190.45 12.6 192.95 12.55 192.5 6.35 188.95 6.5 188.9 8.65 189.9 8.65 189.65 9.2 189.2 9.45 188.7 9.5 188.15 9.35
Q 187.65 9.1 187.35 8.3 186.95 7.5 187.15 6.55
L 187.45 5.75 187.95 5.15 188.6 4.8 189.35 4.65 190.25 4.85 190.8 5.1 191.3 5.5 192.6 3.25
Q 192.15 2.8 191.25 2.4
L 189.55 2 Z"/>
</g>
</defs>

<g transform="matrix( 1, 0, 0, 1, 0,0) ">
<use xlink:href="#Layer0_0_FILL"/>
</g>
</svg>
