
<svg xmlns="http://www.w3.org/2000/svg" version="1.1" xmlns:xlink="http://www.w3.org/1999/xlink" preserveAspectRatio="none" x="0px" y="0px" width="550px" height="400px" viewBox="0 0 550 400">
<defs>
<g id="Layer0_0_FILL">
<path fill="#FFFFFF" stroke="none" d="
M 138.25 4.35
L 137.45 3.25
Q 136.6 2.4 135.35 2.1
L 132.75 2 131.4 2.4 130.2 3.3
Q 129.6 3.95 129.35 4.55
L 128.9 5.95 128.8 7.45 128.9 8.75 129.3 9.95 129.6 10.5 130 11.05
Q 130.85 12.05 132.25 12.35
L 134.85 12.45 136 12.1 136.6 11.8 137.65 10.95 138.05 10.45 138.4 9.85 138.65 9.15
Q 139.05 7.75 138.75 5.9
L 138.55 5.05 138.25 4.35
M 134 4.55
L 134.55 4.65 135.05 4.85 135.5 5.2 135.9 5.7 136.1 6.5 136.05 8.15 135.8 8.8 135.4 9.3 134.85 9.65 134.3 9.85 133.05 9.7
Q 132.35 9.45 132.05 9.05
L 131.55 8
Q 131.45 7.25 131.6 6.55
L 131.8 5.85 132.2 5.2
Q 132.75 4.6 133.4 4.55
L 134 4.55 Z"/>
</g>
</defs>

<g transform="matrix( 1, 0, 0, 1, 0,0) ">
<use xlink:href="#Layer0_0_FILL"/>
</g>
</svg>
