
<svg xmlns="http://www.w3.org/2000/svg" version="1.1" xmlns:xlink="http://www.w3.org/1999/xlink" preserveAspectRatio="none" x="0px" y="0px" width="550px" height="400px" viewBox="0 0 550 400">
<defs>
<g id="Layer0_0_FILL">
<path fill="#000000" stroke="none" d="
M 97.65 21.95
Q 93.7 17.25 88.4 17.25 81.2 17.25 76.1 20.85
L 71.85 24.2
Q 69.2 26.25 66.65 27.5 61.95 12.45 58.05 6.45 53.8 0 47.9 0 40.35 0 32.55 2.35 24.75 4.7 22.15 7.75
L 22.1 7.6 21.7 8.1 21.9 8.5 22.1 8.65
Q 18.9 9.9 12.75 15.95 5.6 23 1.55 30.35 2.3 30.35 7.15 25.3 3.45 33.25 2.5 36.35 0 44.65 0 56.4 0 72.7 6 86.5 13.2 103.1 25.05 103.1 32.2 103.1 40.15 101.35 52.65 98.6 60.3 92.35 59.8 92.15 57.05 93.05
L 53.05 94.6 53.05 94.5 84.35 69.9 79.65 74.75
Q 82.25 74.35 87.8 68.65 95.4 60.95 98.65 58.5
L 95.9 60.25 98.75 56.85 98.65 58.25 101.15 58.5
Q 101.95 58.5 102.6 51.8 103.15 46.15 103.15 42.05 103.15 28.45 97.65 21.95
M 87.15 20.25
Q 93.6 20.25 97.2 29.75 99.65 36.15 99.65 40.7 99.65 51.6 99.35 53.55 98.9 56.95 96.3 59.15
L 86.95 65.85
Q 78.1 72.35 68 81.8 59.35 89.9 54.5 92.9
L 51.9 94.55 51.8 94.55 52.6 94
Q 24.3 100.85 20.6 98.85 16.35 96.55 12.7 92.8 3.05 82.8 3.05 68.6 5.75 40.55 6.6 34.8
L 6.8 33.35 4.7 35.75 4.05 36.7
Q 3.35 32.85 8.2 25.65 15.3 15.25 31.3 4.85 27.05 6.3 22.9 8.25
L 22.15 8.65
Q 24.05 5.8 31.45 3.85 38.45 2 46 2 54.4 2 60.1 14.7
L 64.2 25.3
Q 66.45 31.6 67.9 34 72.05 27.55 74.45 25.35 79.8 20.25 87.15 20.25 Z"/>
</g>
</defs>

<g transform="matrix( 1, 0, 0, 1, 0,0) ">
<use xlink:href="#Layer0_0_FILL"/>
</g>
</svg>
