
<svg xmlns="http://www.w3.org/2000/svg" version="1.1" xmlns:xlink="http://www.w3.org/1999/xlink" preserveAspectRatio="none" x="0px" y="0px" width="550px" height="400px" viewBox="0 0 550 400">
<defs>
<linearGradient id="Gradient_1" gradientUnits="userSpaceOnUse" x1="6" y1="13.9625" x2="6" y2="0.33750000000000036" spreadMethod="pad">
<stop  offset="0%" stop-color="#E6E6E6"/>

<stop  offset="100%" stop-color="#FFFFFF"/>
</linearGradient>

<linearGradient id="Gradient_2" gradientUnits="userSpaceOnUse" x1="8.5" y1="12.9" x2="8.5" y2="0" spreadMethod="pad">
<stop  offset="0%" stop-color="#0075BF"/>

<stop  offset="99.2156862745098%" stop-color="#009DFF"/>
</linearGradient>

<linearGradient id="Gradient_3" gradientUnits="userSpaceOnUse" x1="6.45" y1="7.699999999999999" x2="6.45" y2="0.9999999999999996" spreadMethod="pad">
<stop  offset="0%" stop-color="#EEEEEE" stop-opacity="0"/>

<stop  offset="100%" stop-color="#FFFFFF" stop-opacity="0.2980392156862745"/>
</linearGradient>

<g id="Layer0_0_FILL">
<path fill="url(#Gradient_1)" stroke="none" d="
M 14 13
L 14 1 1 1 1 13 14 13 Z"/>
</g>

<g id="Layer0_1_FILL">
<path fill="url(#Gradient_2)" stroke="none" d="
M 15 14
L 15 0 0 0 0 14 15 14
M 14 1
L 14 13 1 13 1 1 14 1 Z"/>
</g>

<g id="Layer0_2_FILL">
<path fill="url(#Gradient_3)" stroke="none" d="
M 1 1
L 1 7.5 14 7.5 14 1 1 1 Z"/>
</g>
</defs>

<g transform="matrix( 1, 0, 0, 1, 0,0) ">
<use xlink:href="#Layer0_0_FILL"/>
</g>

<g transform="matrix( 1, 0, 0, 1, 0,0) ">
<use xlink:href="#Layer0_1_FILL"/>
</g>

<g transform="matrix( 1, 0, 0, 1, 0,0) ">
<use xlink:href="#Layer0_2_FILL"/>
</g>
</svg>
