
<svg xmlns="http://www.w3.org/2000/svg" version="1.1" xmlns:xlink="http://www.w3.org/1999/xlink" preserveAspectRatio="none" x="0px" y="0px" width="550px" height="400px" viewBox="0 0 550 400">
<defs>
<g id="Layer0_0_FILL">
<path fill="#FFFFFF" stroke="none" d="
M 83.85 79.4
L 83.95 79.15 84.2 76.8
Q 84.2 70.3 80.05 65.95 78.75 64.6 77.2 63.6 76.05 62.9 75.8 62.9
L 74.6 62.95
Q 74.15 63.05 74.15 63.7 74.15 64.3 73.35 64.25
L 71.9 64.2
Q 71.8 63.8 70.8 63.8 69.05 63.8 65.9 67.1 62.1 71.1 62.1 75.6 62.1 79.3 64.7 82.4 67.5 85.7 71.2 85.7 73.8 85.7 76.15 84.7
L 78 83.7
Q 79.95 83.7 81.7 82.4 83.25 81.25 83.85 79.4
M 72.1 73.6
Q 72.1 72.15 73.1 71.15 74.1 70.15 75.55 70.15 77 70.15 78 71.15 79 72.15 79 73.6 79 75.05 78 76.05 77 77.05 75.55 77.05 74.1 77.05 73.1 76.05 72.1 75.05 72.1 73.6 Z"/>
</g>
</defs>

<g transform="matrix( 1, 0, 0, 1, 0,0) ">
<use xlink:href="#Layer0_0_FILL"/>
</g>
</svg>
