
<svg xmlns="http://www.w3.org/2000/svg" version="1.1" xmlns:xlink="http://www.w3.org/1999/xlink" preserveAspectRatio="none" x="0px" y="0px" width="550px" height="400px" viewBox="0 0 550 400">
<defs>
<g id="Layer0_0_FILL">
<path fill="#FFFFFF" stroke="none" d="
M 92.5 20.7
Q 90.1 15.5 85.75 4.9
L 102.5 63.5 119.15 51.5
Q 115.3 51.5 112.6 49.75 109.9 47.95 109.9 45.45
L 106.4 48.05
Q 96.15 28.65 92.5 20.7
M 117.45 40.2
L 116.25 40.7 121 40.35 117.45 40.2
M -27.2 183.5
L -27.5 185.25 70.3 186.5 154.4 185.15 135.5 16.25 127.1 38.5 127.8 49.5 146.8 174.5 69.8 175.5 -27.2 183.5
M 50.45 -160.9
Q 46.95 -167 41.4 -172.4 35.65 -178 30.3 -180.3 26.8 -181.75 14.1 -184.8 1.25 -187.85 -1.6 -187.85 -2.1 -187.85 -5.05 -182.15 -8.05 -176.5 -8.55 -176.5 -10.55 -176.5 -19.45 -180.2
L -28.1 -183.95
Q -33.7 -183.95 -46.55 -155.7 -56.4 -134 -59.45 -123.85
L -72.2 -137.5 -149.15 175.5 -154.15 176.6 -154.4 183.65 -35.25 185.15 -43.6 182.1 -104.2 175.5 -138.7 175.5 -29.25 -171.35 2.05 -171.95 36.8 -166 64.05 -70.85
Q 61.05 -90.25 56.55 -131.9 54.05 -154.55 50.45 -160.9 Z"/>

<path fill="#FFFFFF" fill-opacity="0.5019607843137255" stroke="none" d="
M 116.25 40.7
Q 111.5 41.7 109.9 45.45 109.9 47.95 112.6 49.75 115.3 51.5 119.15 51.5
L 127.8 49.5 127.1 38.5 121 40.35 116.25 40.7
M -27.2 183.5
L -34.95 173.15 -4.05 11.1 -43.6 182.1 -35.25 185.15 -27.95 187.85 -27.5 185.25 -27.2 183.5
M 117.05 96.8
Q 109 81.5 101.3 74.5
L 114.8 128.5 108.45 160.55 123.85 131.6
Q 126.65 126.35 126.65 125.15
L 126.35 122.7
Q 125.15 112.35 117.05 96.8
M 89.4 84.6
L 92.4 80.35 67.8 23.5
Q 65.1 26.9 77 56.1 82.95 70.7 89.4 84.6
M -110.45 117.55
L -100.65 120.15
Q -98.7 112.4 -94.55 104.75 -92.45 100.95 -90.75 98.65
L -110.45 117.55
M -21.05 -67.9
L -31.35 -97.8 -79.2 87.5 -87.15 95.2 -63.7 124 -52.7 -2 -34.9 19.25 -30.7 -69 -21.05 -67.9
M 6.5 -22.15
Q 4.85 -15.45 4.85 -14.45 4.85 -3.6 17.75 41.65 24.2 64.3 30.65 84.85 30.65 91.65 27.15 96.45 25 99.5 19.55 103.6 13.85 107.85 11.9 110.35 8.4 114.8 8.4 120.95 8.4 126.45 14.8 137.65 24.05 153.85 41.8 169.5
L 16.8 123
Q 22.1 114.95 27.55 111.55 30.55 109.7 34.85 108.25 37.85 106.75 38.95 102.3 40.25 96.95 40.25 82.85 40.25 61.6 29.65 34.9
L 18.8 9.25
Q 11.45 -8.15 6.5 -22.15
M 3.3 -147.5
L 14.05 -128.85 6.9 -67.05 46.75 -32.75 17.8 -66.5 14.45 -142.15 17.8 -161.5 -9.65 -155.15 -10 -150.4 3.3 -147.5 Z"/>

<path fill="#FFFFFF" fill-opacity="0.25098039215686274" stroke="none" d="
M 36.8 -166
L 2.05 -171.95 -29.25 -171.35 -138.7 175.5 -104.2 175.5 -43.6 182.1 -4.05 11.1 -34.95 173.15 -27.2 183.5 69.8 175.5 146.8 174.5 127.8 49.5 119.15 51.5 102.5 63.5 85.75 4.9 64.05 -70.85 36.8 -166
M 14.05 -128.85
L 3.3 -147.5 -10 -150.4 -9.65 -155.15 17.8 -161.5 14.45 -142.15 17.8 -66.5 46.75 -32.75 6.9 -67.05 14.05 -128.85
M 4.85 -14.45
Q 4.85 -15.45 6.5 -22.15 11.45 -8.15 18.8 9.25
L 29.65 34.9
Q 40.25 61.6 40.25 82.85 40.25 96.95 38.95 102.3 37.85 106.75 34.85 108.25 30.55 109.7 27.55 111.55 22.1 114.95 16.8 123
L 41.8 169.5
Q 24.05 153.85 14.8 137.65 8.4 126.45 8.4 120.95 8.4 114.8 11.9 110.35 13.85 107.85 19.55 103.6 25 99.5 27.15 96.45 30.65 91.65 30.65 84.85 24.2 64.3 17.75 41.65 4.85 -3.6 4.85 -14.45
M -31.35 -97.8
L -21.05 -67.9 -30.7 -69 -34.9 19.25 -52.7 -2 -63.7 124 -87.15 95.2 -79.2 87.5 -31.35 -97.8
M -100.65 120.15
L -110.45 117.55 -90.75 98.65
Q -92.45 100.95 -94.55 104.75 -98.7 112.4 -100.65 120.15
M 92.4 80.35
L 89.4 84.6
Q 82.95 70.7 77 56.1 65.1 26.9 67.8 23.5
L 92.4 80.35
M 101.3 74.5
Q 109 81.5 117.05 96.8 125.15 112.35 126.35 122.7
L 126.65 125.15
Q 126.65 126.35 123.85 131.6
L 108.45 160.55 114.8 128.5 101.3 74.5 Z"/>
</g>
</defs>

<g transform="matrix( 1, 0, 0, 1, 0,0) ">
<use xlink:href="#Layer0_0_FILL"/>
</g>
</svg>
