
<svg xmlns="http://www.w3.org/2000/svg" version="1.1" xmlns:xlink="http://www.w3.org/1999/xlink" preserveAspectRatio="none" x="0px" y="0px" width="550px" height="400px" viewBox="0 0 550 400">
<defs>
<g id="Layer0_0_FILL">
<path fill="#000000" fill-opacity="0.14901960784313725" stroke="none" d="
M 9.35 -32.2
L 5.05 -32.65
Q -7.75 -32.65 -11.65 -30.8 -14 -29.65 -14 -26.6 -14 -25.15 -11.35 -21.05
L -8.7 -16.95
Q -8.7 -9.3 -3.8 -0.7 -1.3 3.6 -0.4 6.05 1.1 10.2 1.1 14.95 1.1 18.75 -2.35 27.35
L -5.85 35.45
Q -5.85 36.35 1.25 37.05
L 12 37.6
Q 13.9 37.6 16.6 36.65
L 19 35.7
Q 21.1 35.7 24.25 36.45
L 42.4 37.2
Q 84.05 37.2 84.05 18.5 84.05 12.05 82.25 9.3 78.55 3.6 66.6 3.6 58.95 3.6 51.2 6.65 43.4 9.6 42.4 9.6 40.9 9.6 40.5 7.9 40.35 7.3 40.35 5.65 40.35 4.75 40.75 4.7 41.3 4.55 41.6 3.75 42.85 0.3 42.85 -17.55
L 42.55 -18.25
Q 42.2 -18.55 42.2 -19 42.2 -21.05 46.65 -23.2
L 51.05 -25.6
Q 51.05 -30.25 45.85 -32.1 40.6 -33.9 25.2 -32.85
L 9.35 -32.2
M 7.25 -22.85
Q 2.5 -21.4 0.15 -21.4 -4.8 -21.4 -7.85 -22.45 -11.8 -23.85 -11.8 -26.8 -11.8 -28.55 -8.95 -29.45 -6.55 -30.25 -2.8 -30.25
L 14.4 -28.3 28.65 -28.2 44.6 -27.4
Q 44.6 -27.1 45.7 -26.75 44.4 -26.45 40.05 -23.55 36.35 -21.05 32.4 -21.05
L 30.7 -21.85
Q 28.65 -22.65 26.25 -22.65 25.5 -22.65 23.8 -23.45 22.1 -24.25 20.45 -24.25 12 -24.25 7.25 -22.85
M 2.2 -15
Q 2.2 -15.9 2.95 -18.25
L 4.7 -18.2 13.2 -18.8 30.35 -17.85 27.3 -3.15
Q 27.3 -1.75 31.3 4.05 35.8 10.5 39.6 13.25
L 42.35 15.6
Q 43 16.1 44.25 16.05
L 67.05 15.35
Q 72.55 15.35 74.4 16.45 76.45 17.6 76.45 21.05 76.45 26.3 67.95 28.35 60.55 30.1 43 30.1 32.15 30.1 28.05 26.3
L 25.85 23.7
Q 24.85 22.5 23.5 22.5
L 10.1 27.05 10.65 21
Q 10.65 11.9 6.4 2.05 2.2 -7.8 2.2 -15 Z"/>
</g>
</defs>

<g transform="matrix( 1, 0, 0, 1, 0,0) ">
<use xlink:href="#Layer0_0_FILL"/>
</g>
</svg>
