
<svg xmlns="http://www.w3.org/2000/svg" version="1.1" xmlns:xlink="http://www.w3.org/1999/xlink" preserveAspectRatio="none" x="0px" y="0px" width="550px" height="400px" viewBox="0 0 550 400">
<defs>
<g id="Layer0_0_FILL">
<path fill="#999999" stroke="none" d="
M 13.1 -32.3
L 12.8 -33
Q 12.1 -34 7.3 -33.85
L -3.45 -34.75
Q -10.8 -34.75 -14.6 -32.4 -16.5 -31.2 -17 -29.9
L -16.55 -28.4
Q -16.15 -27.6 -16.15 -26.8 -16.15 -22.7 -12.75 -19.1 -9.5 -15.6 -6.1 -15.6 -5.65 -15.6 -5.45 -15.95
L -3 -16.3
Q -2 -16.3 4.05 -17.7
L 9.9 -19.1
Q 10.85 -19.1 12.7 -18.05
L 14.35 -16.95
Q 16.4 -16.95 20.55 -18.2
L 25.05 -19.5
Q 26.95 -19.5 29.65 -18.05 32.4 -16.6 32.85 -16.6 36.05 -16.6 39.7 -18.75 43.95 -21.2 45.25 -21.5 49.4 -22.4 50.55 -23.15 51.95 -24.05 51.95 -26.35 51.95 -29.65 47.55 -31.7 43.65 -33.55 38.3 -33.55
L 13.75 -32
Q 13.2 -32 13.1 -32.3
M 38.75 -27.1
L 39.45 -27.1
Q 40.8 -27.1 41.05 -27.9
L 41.1 -29.65 43.3 -29.7 47.45 -29.05
Q 49.75 -28.2 49.75 -26.25 49.75 -24.95 48 -24.55
L 39.85 -22.95 40.35 -22.05 40.95 -21.6
Q 40.15 -21 39.85 -20.3
L 39.4 -19.45 32.15 -18.9 23.75 -22.95 22.75 -23.15
Q 22.45 -23.2 22.45 -22.65
L 22.65 -21.85 23.2 -21.15
Q 22.65 -20.5 20.7 -19.85 19 -19.3 18.5 -19.3 11.55 -19.3 8.95 -20.95 8.3 -21.35 7.2 -22.2 6.2 -22.9 4.8 -23.1
L 4.75 -21.95
Q 4.75 -21.8 6.85 -20.7
L 7.5 -20.4
Q 5.6 -19.2 2.2 -18.8
L -3.25 -18.65
Q -7.35 -18.65 -10.65 -21.2 -14 -23.8 -14 -27.05 -14 -30.35 -9.85 -31.55
L -1.45 -32.3
Q -0.05 -32.3 1.15 -30.5 2.45 -28.6 3.5 -28.5
L 4.5 -28.65
Q 4.95 -29.5 4.35 -31.15
L 10.7 -31.6
Q 11.3 -31.6 11.5 -31.25
L 11.65 -30.3
Q 11.65 -29.3 14.1 -27.65 16.3 -26.15 16.65 -26.15
L 17.45 -26.2 17.75 -26.55 18 -27.3 15.55 -30.2
Q 22.3 -32 27.85 -32.4 38.8 -33.15 38.55 -27.3
L 38.75 -27.1 Z"/>
</g>
</defs>

<g transform="matrix( 1, 0, 0, 1, 0,0) ">
<use xlink:href="#Layer0_0_FILL"/>
</g>
</svg>
