
<svg xmlns="http://www.w3.org/2000/svg" version="1.1" xmlns:xlink="http://www.w3.org/1999/xlink" preserveAspectRatio="none" x="0px" y="0px" width="550px" height="400px" viewBox="0 0 550 400">
<defs>
<g id="Layer0_0_FILL">
<path fill="#000000" stroke="none" d="
M 39.4 -19.45
L 39.2 -19.35 37.1 -9.3
Q 34.15 4.8 34.15 9.7 34.15 10.15 33.6 10.5 33.05 10.95 33.05 11.45 36.35 12.7 38.65 15.35 40.35 17.35 43.2 17.35
L 55.8 12
Q 68.2 6.6 72.65 6.6 75.75 6.6 78.4 11.75 80.55 15.85 80.55 17.2 80.55 23.6 70.7 28.5 60.6 33.45 46.9 33.45
L 22.5 33.15
Q 23.7 31.3 23.7 29.6
L 23.4 28.65
Q 23 28 22.95 27.4 18.85 27.4 17.6 28.4 17 28.95 16.8 30.55 16.6 32.1 15.3 32.75 13.4 33.75 8.3 33.75
L 4 33.3 1.8 32.8
Q 1.4 30.75 1.4 29.4
L 2.95 25.5
Q 4.5 21.5 4.5 18.55 4.5 17.45 2.35 7.3
L 0.2 -2.65
Q 0.2 -7.7 -1.6 -12.7 -2.6 -15.45 -4.35 -18.7 -7.8 -19 -10.65 -21.2
L -11.15 -21.6 -9.1 -15.05
Q -6.4 -6.7 -6.4 -4.6 -6.4 2.35 -3.15 9.75 0.05 17.15 0.05 20.75 0.05 22.2 -1.75 27.55 -3.55 32.95 -3.55 34.05 -3.55 36.4 -2.2 36.9
L 0.75 37.1 2.15 37.55 3.85 38.4 5.85 38.65 17.75 38.5 17.85 37.6
Q 17.7 36.75 18.55 35.75 21.35 39.25 29.35 39.1
L 46.9 37.95 46.9 38 51.6 37.9
Q 53.3 37.9 53.3 37.45 53.3 36.1 58.25 35.65
L 69.1 34.5
Q 84.85 31.5 84.85 17.3 84.85 8.85 79.05 5 74.95 2.25 68.8 2.25 64.8 2.25 57.65 4.75 48.65 7.8 46.85 11.95
L 46.2 12.35 43.25 8.4
Q 42.5 7.5 39.4 6.65
L 43.3 -11.5
Q 45.25 -20.45 45.8 -24.15
L 40 -22.95 39.95 -22.75 40.35 -22.05 40.95 -21.6
Q 40.15 -21 39.85 -20.3
L 39.4 -19.45
M 17.45 -26.15
L 16.45 -26.2 16.65 -26.15 17.45 -26.15
M 40.3 -27.2
L 39.1 -27.1 39.45 -27.1 40.3 -27.2 Z"/>
</g>
</defs>

<g transform="matrix( 1, 0, 0, 1, 0,0) ">
<use xlink:href="#Layer0_0_FILL"/>
</g>
</svg>
