
<svg xmlns="http://www.w3.org/2000/svg" version="1.1" xmlns:xlink="http://www.w3.org/1999/xlink" preserveAspectRatio="none" x="0px" y="0px" width="550px" height="400px" viewBox="0 0 550 400">
<defs>
<g id="Layer0_0_FILL">
<path fill="#FFFFFF" fill-opacity="0.25098039215686274" stroke="none" d="
M 2.05 33.1
L 7.55 33.75 13.1 33.1
Q 15.3 32.4 15.3 31.4 15.3 30.4 13.1 29.7 10.8 29 7.55 29 4.3 29 2.05 29.7 -0.25 30.4 -0.25 31.4 -0.25 32.4 2.05 33.1
M 58.25 29.6
L 45.55 30.35
Q 44.4 30.35 43.45 29.75 42.5 29.15 42.1 29.15
L 25.15 29.85
Q 24.15 30.4 22.95 30.65 20.1 31.35 20.1 32.45
L 19.8 33.1
Q 19.7 33.45 20.7 33.65 23.25 34.05 37.2 34.05
L 51.95 33.1
Q 66.55 34.3 70.8 31.7 72.2 30.85 72.45 29.6
L 72.45 28.2 58.25 29.6
M 41.65 7.55
L 41.55 7.05
Q 40.85 6.95 39.05 4.8 37.3 2.85 36.2 2.85 34.15 2.85 30.55 6.05 27.3 8.9 27.3 9.35 27.3 11.15 28.45 11.7
L 30.35 12
Q 36.75 12 39.6 10.4 41.65 9.25 41.65 7.55
M 51.15 9.55
Q 51.15 8.8 50.95 8.65 45.65 11.85 44.2 12.95 42 14.55 42 18.95
L 42.7 20.35
Q 43.35 21.65 43.4 23.4
L 43.6 23.55 44.3 23.6
Q 46.6 23.6 49.05 17.15 51.15 11.7 51.15 9.55
M 64.1 12.15
Q 64.9 12.15 65 11.2 65.15 9.65 64.7 3.05 61.75 2.75 59.85 3.85
L 58.5 5.1
Q 58.5 6.9 60.55 9.55 62.65 12.15 64.1 12.15
M 29.9 -12.55
Q 31.85 -10.55 36 -8.75 39.65 -7.2 41.1 -7.2
L 42.3 -7.35 42.4 -7.45 42.4 -8.1 41.7 -9.75
Q 40.85 -11.1 40.7 -11.65
L 41.5 -13.15
Q 41.85 -13.85 41.4 -14.35 43.1 -14.8 43.7 -16.4
L 43.7 -16.5 43.5 -16.5 38.8 -17.45
Q 37.1 -17.45 34.1 -15.85 30.95 -14.2 29.9 -12.55 Z"/>

<path fill="#FFFFFF" stroke="none" d="
M 76.8 19.1
L 77 18.35
Q 77 15 74.85 12.65
L 69.85 8.55
Q 67.85 9.5 71 14.35 74.1 19.15 75.95 19.15
L 76.8 19.1 Z"/>
</g>
</defs>

<g transform="matrix( 1, 0, 0, 1, 0,0) ">
<use xlink:href="#Layer0_0_FILL"/>
</g>
</svg>
