
<svg xmlns="http://www.w3.org/2000/svg" version="1.1" xmlns:xlink="http://www.w3.org/1999/xlink" preserveAspectRatio="none" x="0px" y="0px" width="550px" height="400px" viewBox="0 0 550 400">
<defs>
<g id="Parts_Feet_footMC_25_Layer11_0_FILL">
<path fill="#000000" stroke="none" d="
M 63.35 21.1
L 62.35 21.25 59.65 20.5 52.95 20.45
Q 47.65 19.85 43.4 17.5 40.65 15.9 38.75 15.9
L 38.9 14.65
Q 38.9 13.05 35.6 10.4
L 30.1 6.45 27.05 3.65
Q 25 2.25 22.4 3.3 21.75 3.5 19.45 5.1
L 14.95 7.95
Q 12 9.35 10.35 9.35 5.2 9.35 1.45 8 -1.5 6.65 -1.85 6.6 -4.9 4.65 -7.4 4.8 -9.65 4.95 -9.65 6.6
L -9.65 6.7
Q -13.9 11.25 -13.9 21.45
L -13.85 23 -13.9 23 -13.9 23.25 -13.8 23.45 -13.8 23.65 -13.75 23.65 -13.85 24.2 -13.15 26.85
Q -12.55 28.9 -12.55 30.55 -13.75 33.8 -10.65 35.05 -8.1 36.1 -1.35 36.1
L 8.3 35.8 9.25 35.3 9.9 34.7 10.1 34.3 10.05 34.05 9.9 34 9.8 31.05 9.6 29.85
Q 16.8 30.2 18.95 31.35
L 20.45 32.4
Q 21.4 32.95 22.75 33.3
L 28.75 35.2
Q 33.3 36.6 34.55 36.6
L 39.85 36.85 52.45 36 66.4 33.3
Q 73.85 31.95 73.85 28.35
L 73.3 27 72.5 25.75 71.8 25.75 71.8 25.5
Q 71.8 24.6 70.35 23.4 69.45 22.7 69.15 22.9
L 67.05 22.15 64.05 21.55 64 21.35
Q 63.8 21.1 63.35 21.1
M 63.45 22.25
Q 63.95 22.5 65.05 23.1 67.35 24.1 69.3 24.1
L 69.85 24.55
Q 70.85 25.25 70.85 25.5 70.85 27.55 65.3 28.8
L 54.3 30.9 53.7 30.85 43.5 32.1
Q 31.4 32.1 24.75 29.4 23 28.7 20.9 27.45
L 19.5 26.7 19.55 26.5 18.3 26.25 -4.85 24.5 -12.55 23.2 -12.9 21.3
Q -12.9 16.05 -10.4 10.85
L -8.1 6.15 -7.8 5.85 -6.6 5.85 -1.2 8.35
Q 4.15 10.45 10.4 10.45 13.4 10.45 15.95 9.15
L 19.95 6
Q 22.4 3.95 24.1 3.95 26.05 3.95 32 8.55 37.95 13.2 37.95 14.75 37.95 15.6 35.65 22.75
L 35.65 23.15 35.85 23.2 35.85 23.3 36.25 23.35
Q 37.25 23.35 37.95 20.4
L 38 20.55
Q 39.95 21.05 42.7 22.65 44.4 23.6 49.55 23.85
L 55.95 23.85
Q 61.4 23.75 62.7 22.9
L 63.45 22.25
M 43.5 19.2
Q 47.2 21.15 48.35 21.15
L 59.35 21.55 60.6 21.85 55.6 22.8 49.5 22.85
Q 47.2 22.55 41.8 20.7 38.45 19.55 38.05 20.05
L 38.7 16.45 43.5 19.2
M 46.1 33.2
L 52.6 32.2 53.4 32.2 67.9 29.3
Q 70.5 28.5 71.4 27.1
L 72 27.6 72.75 28.45
Q 72.75 31.15 57.35 33.75 44.6 35.85 39.2 35.85
L 34.4 35.55 34.3 35.5 22.4 32
Q 20.1 30.55 18.4 29.95 15.6 28.95 9.35 29.1
L 9.3 29.05 9.25 29.1 8.4 29.1 8.85 29.75 8.8 30.2 8.95 32.6
Q 8.9 34.15 7.75 34.75
L -1.75 35.05
Q -7.95 35.05 -10.05 33.9 -12.45 32.65 -11.5 29.15 -11.6 25.95 -12.65 24.1 -9.6 25.15 1 26.05
L 18.45 27.1
Q 19.65 28.35 26.6 30.55 35.5 33.25 41.1 33.2
L 46.1 33.2 Z"/>

<path fill="#414141" stroke="none" d="
M 48.35 21.15
Q 47.2 21.15 43.5 19.2
L 38.7 16.45 38.05 20.05
Q 38.45 19.55 41.8 20.7 47.2 22.55 49.5 22.85
L 55.6 22.8 60.6 21.85 59.35 21.55 48.35 21.15 Z"/>

<path fill="#353535" stroke="none" d="
M 65.05 23.1
Q 63.95 22.5 63.45 22.25
L 62.7 22.9
Q 61.4 23.75 55.95 23.85
L 49.55 23.85
Q 44.4 23.6 42.7 22.65 39.95 21.05 38 20.55
L 37.95 20.4
Q 37.25 23.35 36.25 23.35
L 35.85 23.3 35.85 23.2 35.65 23.15 35.65 22.75
Q 37.95 15.6 37.95 14.75 37.95 13.2 32 8.55 26.05 3.95 24.1 3.95 22.4 3.95 19.95 6
L 15.95 9.15
Q 13.4 10.45 10.4 10.45 4.15 10.45 -1.2 8.35
L -6.6 5.85 -7.8 5.85 -8.1 6.15 -10.4 10.85
Q -12.9 16.05 -12.9 21.3
L -12.55 23.2 -4.85 24.5 18.3 26.25 19.55 26.5 19.5 26.7 20.9 27.45
Q 23 28.7 24.75 29.4 31.4 32.1 43.5 32.1
L 53.7 30.85 54.3 30.9 65.3 28.8
Q 70.85 27.55 70.85 25.5 70.85 25.25 69.85 24.55
L 69.3 24.1
Q 67.35 24.1 65.05 23.1 Z"/>
</g>

<g id="Parts_Feet_footMC_25_Layer10_0_FILL">
<path fill="#FFFFFF" fill-opacity="0.14901960784313725" stroke="none" d="
M 1.6 35.85
L 4.35 35.6
Q 4.6 35.55 4.65 35 5.65 28.65 4.15 27.55
L -6.25 26.8
Q -8.25 26.8 -8.5 27.95
L -7.95 35.6 1.6 35.85
M 52.2 32.2
L 42.3 33.05
Q 39.7 33.75 39.7 34.5 39.7 34.9 40.25 35.15
L 43.4 35.45 55.9 34.25
Q 59.25 33.5 59.25 32.7 59.25 31.85 56.2 31.65
L 55.6 31.55 52.2 32.2 Z"/>

<path fill="#FFFFFF" fill-opacity="0.25098039215686274" stroke="none" d="
M 68.25 23.7
Q 55.55 26.15 51.6 26.15
L 37.5 24.9
Q 36 24.05 34.6 22.75 31.8 20.1 32.5 17.35 30.6 16.55 29.4 16.55 27.85 16.55 26.65 15.25 25.7 14.25 25.5 13.3
L 24.95 13.6 24.05 13.7
Q 23.4 13.7 23.4 13.4
L 23.7 12.6 17.7 13.55 17.8 13.05 17.95 12.85 17.4 12.8
Q 16 12.8 12.15 13.7
L 8.55 14.6
Q 7.4 14.6 6.65 13.75 5.85 12.9 6.4 12.55
L 7 12.05
Q 5.45 11 3.75 10.4 -0.3 9 -6.25 8.95
L -6.9 9.45 -7.15 9.8 -5.55 9.75
Q -6.75 10.2 -9.95 12
L -10.05 12.35
Q -6.45 15.1 -6 20.15 -5.8 21.95 -5.15 22.6 -4.15 23.55 -1.25 23.55
L 11.65 21.75
Q 18.05 21.75 21.05 23.05 22.75 23.75 24.55 25.9 26.25 27.9 28.45 28.7 31.95 30 39.15 30 42.45 30 54.5 27.55 67.2 25 68.25 23.7 Z"/>
</g>

<g id="Parts_Feet_footMC_25_Layer9_0_FILL">
<path fill="#FFFFFF" stroke="none" d="
M 52.4 27.15
Q 64.75 25.55 66.55 23.75
L 38.7 27.35 38.75 27
Q 39 25.95 38.85 25.5
L 38.15 24.6 35.4 25.8 35.45 25.65 35.35 24.6 33.65 24.35
Q 32.9 24.2 32.9 24.8
L 30.15 21.8
Q 26.7 18.15 23.75 19.2
L 24.05 17.15
Q 24.05 16.2 23.85 15.95 23.15 16.1 22.5 16.75
L 21.85 17.4
Q 21.15 17.4 20.65 16.75 20.15 16.15 18.6 16.25
L 18.95 14.85
Q 18.6 15.05 18.4 14.85 17.3 15.7 15.85 15.7 15.35 15.7 15.6 15.3 15.85 14.9 15.35 14.9 14.85 14.9 14.8 14.7
L 14.2 14.5 10.25 16.2
Q 9.75 16.2 9.75 15.75 9.75 15.3 9.25 15.3 8.75 15.3 7.35 15.8
L 5.4 16.3 2 15.25
Q 2 14.65 1.35 14.5
L 0.65 14.5
Q 1.05 12.65 0.8 11.9 0.45 10.9 -1.05 10.9 -1.7 10.9 -2.4 11.25 -2.95 11.55 -3.1 11.75
L -1.6 12.8
Q -2.85 13.45 -3.3 13.9 -4.4 15.05 -4.4 16.85 -4.4 17.85 -3.8 17.5
L -1.55 17.6 -2 19.05 -1.3 19.25
Q 0.1 20.45 1.05 20.1 6.1 20.65 8.05 20.2
L 10.65 19.85 14.55 19.95
Q 15.5 19.95 16.05 19.35
L 16.45 18.75 36.45 27.85 38.95 28.45 52.4 27.15 Z"/>
</g>

<g id="Graphics_Symbol_254_0_Layer0_0_FILL">
<path fill="#070707" stroke="none" d="
M 52.6 32.2
L 52.15 32.25 46.1 33.2 41.1 33.2
Q 35.5 33.25 26.6 30.55 19.65 28.35 18.45 27.1
L 1 26.05
Q -9.6 25.15 -12.65 24.1 -11.6 25.95 -11.5 29.15 -12.45 32.65 -10.05 33.9 -7.95 35.05 -1.75 35.05
L 0.85 35 3.3 34.85 7.75 34.75
Q 8.9 34.15 8.95 32.6
L 8.8 30.2 8.85 29.75 8.4 29.1 9.25 29.1 9.3 29.05 9.35 29.1
Q 15.6 28.95 18.4 29.95 20.1 30.55 22.4 32
L 27.3 33.6 34.3 35.5 34.4 35.55 39.2 35.85
Q 44.6 35.85 57.35 33.75 72.75 31.15 72.75 28.45
L 72 27.6 71.4 27.1
Q 70.5 28.5 67.9 29.3
L 53.4 32.2 52.6 32.2 Z"/>
</g>

<g id="MovieClips_Symbol_228_25_Layer1_0_FILL">
<path fill="#FF0000" stroke="none" d="
M 38.2 9.85
L 36.6 10.85
Q 35.3 11.8 35.3 12.4
L 35.4 12.85 35.75 12.95 37.95 11.55
Q 38.7 11.1 38.7 10.35
L 38.2 9.85
M 31.45 10.65
L 31.95 10.7 33.5 9.65 34.7 8.2 34.6 7.8
Q 33.7 7.75 32.45 8.9 31.35 9.85 31.35 10.1
L 31.45 10.65
M 32 5.65
L 31.85 5.25 31.5 5.1
Q 31.05 5.25 30.15 6.55
L 29.3 7.8 29.4 8.2 29.7 8.4 31.25 7.05
Q 32 6.15 32 5.65
M 31.35 2.75
L 31.05 2.9 30.25 4.35 30.3 4.3
Q 33 2.8 33 1.95
L 32.95 1.45
Q 29.7 1.55 27.4 2.45 26.05 2.9 25.5 3.35 21.15 -0.75 17.3 0.15 15.7 0.45 14.6 1.7 13.65 2.8 13.65 4.05
L 14 5.85
Q 15.1 7.6 18.95 7.6
L 24 6.5 23.5 7
Q 20.45 10.3 20.45 12.45
L 20.45 13.15 20.55 13.25 21 13.3 21.4 13.2 21.55 13
Q 21.8 8.2 26.2 5.95
L 26.9 5.8 27.6 4.3 27.25 4.1 26.5 4.45 26.35 4.3
Q 26.7 3.8 27.6 3.35 29 2.8 31.35 2.75
M 23.85 5.3
L 22.5 5.7
Q 19.75 6.6 18.6 6.6 15.8 6.6 14.95 5.65 14.6 5.15 14.6 4.1 14.6 1.5 17.75 1.05 21.2 0.55 25.05 4.3
L 25.05 4.7 25.15 4.8
Q 25 4.85 24.7 5
L 24.15 4.9 23.85 5.3 Z"/>
</g>
</defs>

<g transform="matrix( 1, 0, 0, 1, -28.4,-10.7) ">
<g transform="matrix( 1, 0, 0, 1, 0,0) ">
<use xlink:href="#Parts_Feet_footMC_25_Layer11_0_FILL"/>
</g>

<g transform="matrix( 1, 0, 0, 1, 0,0) ">
<use xlink:href="#Parts_Feet_footMC_25_Layer10_0_FILL"/>
</g>

<g transform="matrix( 1, 0, 0, 1, 0,0) ">
<use xlink:href="#Parts_Feet_footMC_25_Layer9_0_FILL"/>
</g>

<g transform="matrix( 1, 0, 0, 1, 0,0) ">
<g transform="matrix( 1, 0, 0, 1, 0,0) ">
<use xlink:href="#Graphics_Symbol_254_0_Layer0_0_FILL"/>
</g>
</g>
</g>

<g transform="matrix( 1, 0, 0, 1, -28.15,-10.5) ">
<g transform="matrix( 1, 0, 0, 1, 0,0) ">
<use xlink:href="#MovieClips_Symbol_228_25_Layer1_0_FILL"/>
</g>
</g>

<g transform="matrix( 1, 0, 0, 1, -28.4,-10.7) ">
<g transform="matrix( 1, 0, 0, 1, 0,0) ">
<g transform="matrix( 1, 0, 0, 1, 0,0) ">
<use xlink:href="#Graphics_Symbol_254_0_Layer0_0_FILL"/>
</g>
</g>
</g>
</svg>
