
<svg xmlns="http://www.w3.org/2000/svg" version="1.1" xmlns:xlink="http://www.w3.org/1999/xlink" preserveAspectRatio="none" x="0px" y="0px" width="550px" height="400px" viewBox="0 0 550 400">
<defs>
<g id="Graphics_Symbol_773_0_Layer0_0_FILL">
<path fill="#FFFFFF" stroke="none" d="
M 81.7 82.4
Q 83.25 81.25 83.85 79.4
L 83.95 79.15 84.2 76.8
Q 84.2 70.3 80.05 65.95 78.75 64.6 77.2 63.6 76.05 62.9 75.8 62.9
L 74.6 62.95
Q 74.15 63.05 74.15 63.7 74.15 64.3 73.35 64.25
L 71.9 64.2
Q 71.8 63.8 70.8 63.8 69.05 63.8 65.9 67.1 62.1 71.1 62.1 75.6 62.1 79.3 64.7 82.4 67.5 85.7 71.2 85.7 73.8 85.7 76.15 84.7
L 78 83.7
Q 79.95 83.7 81.7 82.4
M 72.1 73.6
Q 72.1 72.15 73.1 71.15 74.1 70.15 75.55 70.15 77 70.15 78 71.15 79 72.15 79 73.6 79 75.05 78 76.05 77 77.05 75.55 77.05 74.1 77.05 73.1 76.05 72.1 75.05 72.1 73.6 Z"/>
</g>

<g id="Graphics_Symbol_815_0_Layer2_0_FILL">
<path fill="#000000" stroke="none" d="
M 73.1 71.15
Q 72.1 72.15 72.1 73.6 72.1 75.05 73.1 76.05 74.1 77.05 75.55 77.05 77 77.05 78 76.05 79 75.05 79 73.6 79 72.15 78 71.15 77 70.15 75.55 70.15 74.1 70.15 73.1 71.15
M 83.25 81.45
L 83.85 79.4
Q 83.25 81.25 81.7 82.4 79.95 83.7 78 83.7
L 76.15 84.7
Q 73.8 85.7 71.2 85.7 67.5 85.7 64.7 82.4 62.1 79.3 62.1 75.6 62.1 71.1 65.9 67.1 69.05 63.8 70.8 63.8 71.8 63.8 71.9 64.2
L 73.35 64.25
Q 74.15 64.3 74.15 63.7 74.15 63.05 74.6 62.95
L 75.8 62.9
Q 76.05 62.9 77.2 63.6 78.75 64.6 80.05 65.95 84.2 70.3 84.2 76.8
L 83.95 79.15 85.2 74.6
Q 85.2 70.35 83.9 67.6 82.55 64.6 79.3 62.5 76.8 61.05 73.05 61.25
L 66.1 43 55.05 49.7
Q 46.3 54.8 41.4 56.95 36.35 47.1 28.8 39.1 18.9 28.6 10.45 28.6
L 9.05 28.8 8.4 29
Q 17.3 32.1 26.85 42.45
L 39.3 58 21.15 64.45
Q 8.4 68.8 8.4 71 8.4 72.9 15.35 79.8
L 23.45 87.35
Q 27.5 90.9 33 97.25 40.5 105.85 42.1 110.8
L 39.4 110.4
Q 56.65 146 72.5 146 82.7 146 90.75 141.05 98.05 136.6 98.05 132.15 98.05 131.65 98.55 129.85
L 99 127.5
Q 99 124.5 98.05 122.35 97.1 120.2 97.1 117.8
L 94.95 113.65
Q 92.5 108.75 91.1 105 94.8 102.45 102.6 98.95 106.3 97.25 106.3 94.25 106.3 90.55 102.85 86.75 99.05 82.6 94.5 82.6 93.75 82.6 90.3 83.85
L 86.9 85.1
Q 86.35 85.1 85 84.2 83.25 83.05 83.25 81.45
M 84.2 87.05
Q 86.1 88.55 87.1 88.7 88.15 89 90.65 87.2 93.3 85.3 94.1 85.3 97.25 85.3 100.35 87.9 103.6 90.65 103.6 93.7 103.6 97.7 95.75 99.8
L 90.35 101.25
Q 87.9 102.15 87.9 103.5 87.9 104.85 89.3 107.5
L 94.1 116.7 86.9 118.05 84.05 118.5 78.2 117.3 73.4 116.1
Q 72.3 116.1 71.65 116.95 71 117.8 71 119.2 71 120.65 72.55 123.3 74.3 126.35 77 128.85 84.5 135.65 94.1 134.1 91.05 138.3 86.9 140.35 81.85 142.8 74.15 142.8 65.75 142.8 59.5 135.55 55.6 131.1 48.5 117.6 40.55 102.5 34.75 94.5 24.85 80.9 11.7 71.8
L 43.85 59.75
Q 55.85 54.5 65.3 46.5
L 69.9 61.75
Q 63.6 64.7 60.9 68.25 58.4 71.5 58.4 76.1 58.4 82.55 64.35 86.3 68.6 89 71.9 89 79.4 89 81.55 84.3 82.3 85.55 84.2 87.05
M 92.5 121.5
Q 94.85 120.95 95.65 120.4 96.3 122.35 96.3 124.45
L 96.1 127.25 95.6 130.4
Q 89.15 130.05 84.3 129 75 126.95 74.1 119.8 82.9 122.1 87.75 122.1
L 92.5 121.5 Z"/>

<path fill="#5C0101" stroke="none" d="
M 95.65 120.4
Q 94.85 120.95 92.5 121.5
L 87.75 122.1
Q 82.9 122.1 74.1 119.8 75 126.95 84.3 129 89.15 130.05 95.6 130.4
L 96.1 127.25 96.3 124.45
Q 96.3 122.35 95.65 120.4 Z"/>
</g>

<g id="Graphics_Symbol_815_0_Layer1_0_FILL">
<path fill="#000000" fill-opacity="0.25098039215686274" stroke="none" d="
M 84.5 84.2
Q 83.8 82.3 83.8 80.3
L 84.8 79.5
Q 85.5 78.45 84.1 76.65
L 84.8 72.85
Q 84.8 68 80.1 64.75 74.4 61.65 72.35 59.85 71.65 59.2 68.95 51.6 66.5 44.7 64.7 44.7 63.9 44.7 63.45 45.4
L 62.2 47.35
Q 59.35 51.05 50.45 54.9
L 37.45 60.05
Q 26.8 64.3 9.15 72.35 35.3 98.5 39.55 106
L 42.3 112.8
Q 44 117.65 47.5 123.55 54.4 135.25 62.2 140.7 68.45 145.05 74.75 145.05 85.25 145.05 91.45 139.15 96.9 133.95 96.9 126.9 96.9 119.8 93.7 113.15 90.5 106.5 90.5 104.45 94.25 102.4 98 100 105.45 95.15 105.45 93.2 105.45 89.8 102.25 87.05 99.05 84.35 94.95 84.35 91.2 84.35 88 85.1
L 85.25 85.9 84.5 84.2
M 87.9 93.85
L 89.9 93.95 92.4 94.5 86.75 99.65
Q 84.5 101.85 84.5 103 84.5 107.5 85.5 110.3 85.95 111.7 86.45 112.25
L 85.4 114.65
Q 84.3 116.55 84.3 117.6 84.3 120.7 89 123.35 93.7 125.95 93.7 127.85 93.7 130.4 92.5 131.45 91.4 132.45 88.75 132.45
L 83.7 130.95
Q 84.45 132.75 83.7 133.85 82.85 135.1 80.2 135.1 73.6 135.1 67.15 128.3 62.9 123.8 52.95 109.05 51.85 102.1 48.8 95.1 42.75 81.25 29.8 76.3 46.85 70.9 53.1 66.85
L 57.9 63.2
Q 61 60.6 63.8 58.8
L 64.75 62.8
Q 65.3 65.1 65.75 66.15
L 71.5 65.05
Q 73.6 65.05 75.55 68.05 78.1 72 78.1 79
L 77.5 79.95
Q 76.9 80.8 76.9 82.9 76.9 85.9 79.45 89.35 82.75 93.85 87.9 93.85 Z"/>
</g>

<g id="Graphics_Symbol_815_0_Layer0_0_FILL">
<path fill="#FFFFFF" fill-opacity="0.25098039215686274" stroke="none" d="
M 51.85 79.65
L 51.45 83.3 50.9 83.3
Q 50.6 93.75 52.95 98.95 53.8 100.75 55.25 102.65
L 57.75 105.8
Q 61.15 110.65 68.05 116.1 75.05 121.6 77.85 121.6
L 79.6 120.75
Q 81.45 119.9 82.25 119.9
L 86.4 119.65 86.15 118.6 85.9 117.8 84.25 117.55 80.95 117.95 77.65 118.3 74.85 118.15 72.3 117.85
Q 72.5 116.75 72.3 115.4
L 72.1 113.6
Q 72.1 108.95 76.4 104.45
L 79.3 101.65
Q 80.65 100.4 80.65 99.95 80.65 98.85 80.1 98.05 79.4 97 78.1 97
L 69.75 99.35 65.7 94.35
Q 60 87.45 51.85 79.65 Z"/>
</g>

<g id="Parts_Heads_headColorMC_5_Layer1_0_FILL">
<path fill="#6479CE" stroke="none" d="
M 104.45 92.45
Q 104.45 83.95 96.5 84.75 94.1 85 90.7 86.2
L 87.2 87.3
Q 83.8 87.3 78.25 75.65 75.85 70.7 65.25 45.05 45.2 57.15 38.65 60 26.35 64.55 9.15 71.35 24.45 81.65 35.05 95.65 41.65 104.45 48.95 118.95 55.8 132.55 59.1 136.45 64.9 143.35 73.6 143.35 88.35 143.35 93.45 137.15 96.6 133.35 96.6 124.9 96.6 119.1 92.55 111.8 88.5 104.55 88.5 103.35 88.5 102.45 91 101.65
L 96.5 100.15
Q 104.45 97.6 104.45 92.45 Z"/>
</g>
</defs>

<g transform="matrix( 1, 0, 0, 1, -62.75,-76.85) ">
<g transform="matrix( 1, 0, 0, 1, 0,0) ">
<g transform="matrix( 1, 0, 0, 1, 0,0) ">
<use xlink:href="#Graphics_Symbol_773_0_Layer0_0_FILL"/>
</g>
</g>

<g transform="matrix( 1, 0, 0, 1, 0,0) ">
<g transform="matrix( 1, 0, 0, 1, 0,0) ">
<use xlink:href="#Graphics_Symbol_815_0_Layer2_0_FILL"/>
</g>

<g transform="matrix( 1, 0, 0, 1, 0,0) ">
<use xlink:href="#Graphics_Symbol_815_0_Layer1_0_FILL"/>
</g>

<g transform="matrix( 1, 0, 0, 1, 0,0) ">
<use xlink:href="#Graphics_Symbol_815_0_Layer0_0_FILL"/>
</g>
</g>

<g id="hat1" transform="matrix( 0.983917236328125, -0.17529296875, 0.17529296875, 0.983917236328125, 45.2,78.25) ">
<g id="colorMC" transform="matrix( 0.9999847412109375, 0, 0, 0.9999847412109375, 0,0) "/>

<g id="colorMC2" transform="matrix( 1, 0, 0, 1, 0,0) "/>
</g>

<g id="hat2" transform="matrix( 0.9733734130859375, -0.2247314453125, 0.2247314453125, 0.9733734130859375, 38,60.6) ">
<g id="colorMC_FL" transform="matrix( 0.9999847412109375, 0, 0, 0.9999847412109375, 0,0) "/>

<g id="colorMC2_FL" transform="matrix( 1, 0, 0, 1, 0,0) "/>
</g>

<g id="hat3" transform="matrix( 0.96026611328125, -0.2753753662109375, 0.2753753662109375, 0.96026611328125, 26,48.4) ">
<g id="colorMC_FL_FL" transform="matrix( 0.9999847412109375, 0, 0, 0.9999847412109375, 0,0) "/>

<g id="colorMC2_FL_FL" transform="matrix( 1, 0, 0, 1, 0,0) "/>
</g>

<g id="hat4" transform="matrix( 0.944580078125, -0.3252410888671875, 0.3252410888671875, 0.944580078125, 18.85,34.5) ">
<g id="colorMC_FL_FL_FL" transform="matrix( 0.9999847412109375, 0, 0, 0.9999847412109375, 0,0) "/>

<g id="colorMC2_FL_FL_FL" transform="matrix( 1, 0, 0, 1, 0,0) "/>
</g>
</g>

<g transform="matrix( 1, 0, 0, 1, -75.4,-101.9) ">
<g transform="matrix( 1, 0, 0, 1, 0,0) ">
<use xlink:href="#Parts_Heads_headColorMC_5_Layer1_0_FILL"/>
</g>
</g>

<g transform="matrix( 1, 0, 0, 1, -62.75,-76.85) ">
<g transform="matrix( 1, 0, 0, 1, 0,0) ">
<g transform="matrix( 1, 0, 0, 1, 0,0) ">
<use xlink:href="#Graphics_Symbol_773_0_Layer0_0_FILL"/>
</g>
</g>
</g>
</svg>
