
<svg xmlns="http://www.w3.org/2000/svg" version="1.1" xmlns:xlink="http://www.w3.org/1999/xlink" preserveAspectRatio="none" x="0px" y="0px" width="550px" height="400px" viewBox="0 0 550 400">
<defs>
<g id="MovieClips_Symbol_585_33_Layer0_0_FILL">
<path fill="#C20000" stroke="none" d="
M 72.25 116.4
L 70.7 115.6 43.85 118.65 8.95 118.55 -3.25 114.9 -1.7 128.8
Q 17.55 129.35 49.45 125.25 77.65 121.65 80 120.1
L 76.85 115.8
Q 74.1 116.9 72.25 116.4
M 50.45 8.9
Q 49.45 7.1 45.1 5.05 40.1 2.7 35.35 2.7 33.15 2.7 31.25 3.5 29.35 4.25 27.1 4.25 18.1 4.25 9.9 15.5 5 22.1 2 29.9 -0.2 35.55 -1.95 47.1 -4.4 63.4 -4.4 83.75 -4.4 84.45 -1.9 85.6 0.45 86.7 1.35 86.7 6.85 86.7 11.05 87.85 15.3 89 25.7 89 48.3 89 58.7 86.9
L 65.1 85.25 71.25 84.2
Q 71.25 80.75 72.45 78.35 73.65 75.9 75.35 75.9 74.65 52.4 59.65 32.65 55.3 26.95 49.4 21.2
L 44.75 16.35
Q 44.75 15.5 46.75 13
L 50.45 8.9 Z"/>
</g>
</defs>

<g transform="matrix( 1, 0, 0, 1, -32.9,-71.25) ">
<g transform="matrix( 1, 0, 0, 1, 0,0) ">
<use xlink:href="#MovieClips_Symbol_585_33_Layer0_0_FILL"/>
</g>
</g>
</svg>
