
<svg xmlns="http://www.w3.org/2000/svg" version="1.1" xmlns:xlink="http://www.w3.org/1999/xlink" preserveAspectRatio="none" x="0px" y="0px" width="550px" height="400px" viewBox="0 0 550 400">
<defs>
<g id="Graphics_Symbol_616_0_Layer0_0_FILL">
<path fill="#FFFFFF" stroke="none" d="
M 109.1 120.65
Q 109.1 118.7 108.55 116.4
L 93.65 118 86 119.9
Q 86.95 129.15 44.3 130.9 5.8 132.55 -3.45 133.9 -9.25 134.75 -11.4 136.1 -13.25 137.25 -13.25 139.5 -13.25 142.5 -9.05 144.75 -0.65 149.25 21.75 149.25 77.85 149.25 97.15 139.75 104.7 136.05 107.35 130.5 109.1 126.9 109.1 120.65
M 92.35 71.3
Q 88.9 63.45 84.3 50.55
L 77 30
Q 68.95 8.05 64.3 8.05 61.45 8.6 58.7 10 53.25 12.85 53.25 17.35 53.25 20.35 57.5 24.65
L 66.85 33.7
Q 80.4 48.1 80.4 67.6
L 80.3 74.35
Q 84.55 72.05 85.75 71.8
L 92.35 71.3 Z"/>
</g>
</defs>

<g transform="matrix( 1, 0, 0, 1, -33.5,-72.6) ">
<g transform="matrix( 1, 0, 0, 1, 0,0) ">
<g transform="matrix( 1, 0, 0, 1, 0,0) ">
<use xlink:href="#Graphics_Symbol_616_0_Layer0_0_FILL"/>
</g>
</g>
</g>
</svg>
