
<svg xmlns="http://www.w3.org/2000/svg" version="1.1" xmlns:xlink="http://www.w3.org/1999/xlink" preserveAspectRatio="none" x="0px" y="0px" width="550px" height="400px" viewBox="0 0 550 400">
<defs>
<g id="Layer0_0_FILL">
<path fill="#FFFFFF" stroke="none" d="
M 5.35 1.85
Q 5.4 1.3 5.1 0.85 4.8 0.45 4.55 0.3
L 4.25 0.2
Q 3.8 0.05 3.35 0.05 2.6 -0.1 1.8 0.15 1.15 0.3 0.7 0.75 0.15 1.35 0 2.15 -0.05 2.4 0.15 2.65 0.3 2.95 0.55 2.7
L 0.85 2.5 1.05 2.45 1.15 2.4 1.5 2.35 1.6 2.3 1.65 2.3 2.15 2.25 2.4 2.25 2.55 2.3 2.6 2.3 3.85 2.75 4.35 2.85
Q 4.65 2.85 4.8 2.7 5.25 2.35 5.35 1.85 Z"/>
</g>
</defs>

<g transform="matrix( 1, 0, 0, 1, 0,0) ">
<use xlink:href="#Layer0_0_FILL"/>
</g>
</svg>
