
<svg xmlns="http://www.w3.org/2000/svg" version="1.1" xmlns:xlink="http://www.w3.org/1999/xlink" preserveAspectRatio="none" x="0px" y="0px" width="550px" height="400px" viewBox="0 0 550 400">
<defs>
<g id="Layer0_0_FILL">
<path fill="#010101" stroke="none" d="
M 2.5 0.8
L 2.45 0.35
Q 2.35 0.15 2.25 0.1 2.15 -0.05 1.95 0.05
L 1.65 0.15 1.45 0.25 1.15 0.3 1 0.25 0.6 0.25 0.55 0.2 0.3 0.1
Q 0.05 0 0.05 0.25 -0.05 0.5 0.1 0.65 0.15 0.75 0.55 1.15 0.85 1.3 1.25 1.4 1.55 1.5 1.85 1.4
L 2.2 1.25
Q 2.3 1.2 2.4 1
L 2.5 0.8 Z"/>
</g>
</defs>

<g transform="matrix( 1, 0, 0, 1, 0,0) ">
<use xlink:href="#Layer0_0_FILL"/>
</g>
</svg>
