
<svg xmlns="http://www.w3.org/2000/svg" version="1.1" xmlns:xlink="http://www.w3.org/1999/xlink" preserveAspectRatio="none" x="0px" y="0px" width="550px" height="400px" viewBox="0 0 550 400">
<defs>
<g id="Parts_Heads_headColorMC_41_Layer1_0_FILL">
<path fill="#669999" stroke="none" d="
M 92.65 60.85
Q 85.95 54.1 82.15 51.1 69.65 40.9 53.95 40.9 46.55 40.9 38 45.45 29.6 49.9 22.4 57.7 5.7 75.9 5.7 99.3 5.7 111.9 12 120.45 15.05 124.45 19.95 128.15 19.95 128.05 24.05 130.7 28.15 133.35 28.1 133.25 32.8 135.85 39.95 139.7 46.35 143.8 46.35 148.85 46.35 150.95 44.3 156.75 43.15 160.25 39.85 168.75 33.3 186.5 33.3 195.45 33.3 208.95 46.65 210.3 48.6 211.05 52 211.05 58 211.05 63.25 209.75 70.85 209.9 75.55 205.2 79.05 201.75 79.05 199.65 79.05 194.6 73.1 190.2 66.65 185.5 55.75 183.35
L 55.7 180.2
Q 55.7 178.6 59 171.55 63 163.1 69.55 152.05 68.65 154.9 68.65 156.1 68.65 162.35 71.2 167.65 73.05 172.8 76.8 176.6 83 183 90.1 183 92.1 183 93.45 182.35 94.75 181.85 95.15 180.85 96.45 179.95 97 179.05 96.95 179.45 96.9 179.8
L 97.6 178.9
Q 99 177.5 99.9 175.2 100.6 173.2 100.6 171.6
L 100.35 168.95
Q 103.85 170.45 104.7 170.45 106.05 170.45 107.2 170.25 108.1 170.25 109.35 169.75
L 109.3 169.7
Q 115.9 167.1 115.9 155.8 115.9 151.75 115.8 151.05 115.5 150.55 115.25 150.05 113.95 147.55 112.1 129.25 115.8 129.25 119.15 133.6 122.75 138.05 122.75 143.2 122.75 147.45 118.7 155.8 114.75 164.2 114.75 168.45 114.75 169.55 115.25 171.2 115.75 172.75 116.25 173.4
L 117.3 172.8
Q 117.5 172.9 117.75 173.05 117.85 173.1 117.95 173.15 117.65 173.3 117.35 173.45
L 119.15 173.6
Q 119.3 173.6 119.5 173.65
L 118 174.45 121.35 174.6
Q 129.65 174.6 135.35 166.5 140 159.9 140 153.85 140 148.1 137.85 144.25 136.95 142.75 132.1 137.15 121.7 125.1 115.1 102.8 113.3 96.6 112.8 91.15 112.55 86 112.4 84.05 112.05 80.9 110.45 78.45 108.55 75.55 103.65 71.3 99.9 68.05 92.65 60.85
M 96.1 132.15
Q 97.25 135.75 97.25 140.9 97.25 146 96.1 149.65 95 153.3 93.3 153.3 91.65 153.3 90.55 149.65 89.45 146 89.45 140.9 89.45 135.75 90.55 132.15 91.65 128.45 93.3 128.45 95 128.45 96.1 132.15 Z"/>
</g>
</defs>

<g transform="matrix( 1, 0, 0, 1, -75.4,-101.9) ">
<g transform="matrix( 1, 0, 0, 1, 0,0) ">
<use xlink:href="#Parts_Heads_headColorMC_41_Layer1_0_FILL"/>
</g>
</g>
</svg>
