
<svg xmlns="http://www.w3.org/2000/svg" version="1.1" xmlns:xlink="http://www.w3.org/1999/xlink" preserveAspectRatio="none" x="0px" y="0px" width="550px" height="400px" viewBox="0 0 550 400">
<defs>
<g id="Parts_Heads_headColorMC2_41_Layer3_0_FILL">
<path fill="#FFFFFF" stroke="none" d="
M 119.7 160.95
Q 118.25 164.35 118.25 164.8 118.25 165.35 118.4 165.85 118.55 166.35 118.55 166.7 125 168 125.6 162.65 126.25 157.65 122.7 155.05
L 122.2 155.2
Q 121.55 156.8 119.7 160.95
M 112.25 158.45
L 112.6 152.15
Q 112.6 148.9 110.65 151 108.7 153.15 108.7 156.45 108.7 157.45 109.1 158.45 109.75 159.9 111.15 159.9 111.35 159.9 111.75 159.55 112.25 159 112.25 158.45
M 80.5 177.55
Q 80.5 177.6 80.7 178.5 81.1 179.45 82.1 179.45 83.35 179.45 84.95 179.8 86.5 180.1 87.55 180.1 88.15 180.1 88.5 179.9
L 88.75 179.7 89.05 178.55
Q 88.65 177.7 86.65 176.55 84.85 175.5 84 175.5 81.95 175.5 81.05 176.45 80.5 176.95 80.5 177.55
M 51.45 194.25
L 51.85 195.65
Q 52.45 197.1 53.55 197.1 55.85 197.1 56.95 196.6 58.05 196.15 58.05 195 58 194.05 57.5 193.2 56.55 191.45 54.55 191.45 51.45 191.45 51.45 194.25
M 59.7 187.15
Q 59 188.2 59 189.55 59 191.25 59.7 192.45 60.9 194.5 63.75 194.5 68.3 194.5 68.3 190.95 68.3 189.6 67.25 188.05 65.7 185.75 62.65 185.75 60.7 185.75 59.7 187.15
M 58.95 184.8
Q 58.35 184.1 57.2 184 50.45 185.7 50.45 187.7 50.45 188.3 51 189.1 51.8 190.4 53.6 190.4 55.2 190.4 57.2 188.85 59.3 187.3 59.3 185.95 59.3 185.3 58.95 184.8
M 74.05 169.8
Q 74.05 170.5 74.95 172.45 76.05 174.8 77.1 174.8 79.6 174.8 81.2 173.1 82.45 171.8 82.45 170.55 82.45 169.25 81.35 167.75 80.1 166 78.6 166.25 76.55 166.45 75.1 168 74.05 169.15 74.05 169.8 Z"/>

<path fill="#FFFFFF" fill-opacity="0.9176470588235294" stroke="none" d="
M 81.4 93.9
Q 82.1 93.65 82.9 93.65 91.8 93.65 98.55 86.9 104.05 81.45 104.05 77.7 104.05 75.75 100.9 72.5 96.95 68.45 92 68.45 88.75 68.45 79.15 77.5 77.95 78.6 76.9 79.6 77.4 80.65 77.4 81.75 77.4 83.9 76.2 85.25 74.75 86.9 72 86.9 70.45 86.9 69.35 86 68.6 86.5 68.35 86.5 67.65 86.5 64.5 85.85 61.3 85.2 60.65 85.2 49.95 85.2 43.7 94.85 40.55 99.7 39.55 104.85 39.55 109 42.9 115.2 47.35 123.3 53.75 123.3 58.6 123.3 62.35 122.1 73.3 114.8 73.3 109.45 73.3 107.65 74.05 106.3 74.6 105.25 75.55 104.75 75.7 104.05 75.9 103.4 73.3 99 73.3 97.85 73.3 95.9 74.45 94.45 75.95 92.55 78.85 92.55 79.95 92.55 81.4 93.9 Z"/>
</g>
</defs>

<g transform="matrix( 1, 0, 0, 1, -62.75,-76.85) ">
<g transform="matrix( 1, 0, 0, 1, 0,0) ">
<use xlink:href="#Parts_Heads_headColorMC2_41_Layer3_0_FILL"/>
</g>
</g>
</svg>
