
<svg xmlns="http://www.w3.org/2000/svg" version="1.1" xmlns:xlink="http://www.w3.org/1999/xlink" preserveAspectRatio="none" x="0px" y="0px" width="550px" height="400px" viewBox="0 0 550 400">
<defs>
<g id="Parts_Heads_headsMC_41_Layer12_0_FILL">
<path fill="#FFFFFF" fill-opacity="0.9176470588235294" stroke="none" d="
M 82.4 94.95
Q 91.25 94.95 97.95 88.25 103.4 82.85 103.4 79.1 103.4 77.2 100.25 73.95 96.35 69.95 91.45 69.95 88.2 69.95 78.7 78.95 77.5 80 76.45 81 76.95 82.05 76.95 83.15 76.95 85.25 75.75 86.6 74.3 88.25 71.6 88.25 70.05 88.25 68.95 87.35 68.2 87.85 67.95 87.85 67.3 87.85 64.15 87.2 61 86.55 60.35 86.55 49.7 86.55 43.5 96.15 40.4 100.95 39.4 106.05 39.4 110.15 42.7 116.3 47.15 124.35 53.5 124.35 58.3 124.35 62 123.15 72.9 115.9 72.9 110.6 72.9 108.85 73.65 107.5 74.15 106.45 75.1 105.95 75.25 105.25 75.45 104.6 72.9 100.25 72.9 99.1 72.9 97.2 74 95.75 75.5 93.85 78.4 93.85 79.5 93.85 80.9 95.2 81.6 94.95 82.4 94.95 Z"/>
</g>

<g id="Parts_Sets_Sea_seaHead_0_Layer4_0_FILL">
<path fill="#000000" stroke="none" d="
M 116.35 102.85
Q 112.4 99.15 109.1 99.15 107.55 99.15 106.6 100.35 105.45 101.75 105.45 104.65 105.45 108.05 106.85 117.15 107.55 121.75 108.25 125.95 108.25 133.9 106.3 137.4 104.55 140.5 101 140.5 96.95 140.5 95.05 136.2 93.7 133.15 93.7 128.75 93.7 126.05 94.2 118 94.7 110.4 94.7 110.3 94.7 106.7 93.2 102.4 91.3 96.75 88.2 96.75 86 98.1 83.9 100.25 79.75 104.5 79.75 108.7 79.75 109.3 86.75 123.25 93.75 137.1 93.75 141.7 93.75 142.6 93.35 145.45 92.95 149.05 92.7 152.05
L 93.4 151.15
Q 94.85 149.75 95.75 147.4 96.45 145.4 96.45 143.8
L 96.2 141.15
Q 99.7 142.65 100.6 142.65 111.85 142.65 111.85 127.9 111.85 123.85 111.75 123.15 111.45 122.65 111.2 122.15 109.9 119.6 108.05 101.2 111.75 101.2 115.15 105.55 118.7 110.05 118.7 115.25 118.7 119.5 114.7 127.9 110.7 136.35 110.7 140.6 110.7 141.75 111.2 143.4 111.7 144.95 112.2 145.6
L 116.7 142.85
Q 115.55 143.25 114.55 142.55 113.55 141.9 113.55 140.8 115.55 136.25 117.6 130.95 121.65 120.35 121.65 115.75 121.65 107.85 116.35 102.85
M 93.05 112.9
Q 93.05 118.05 91.9 121.75 90.8 125.4 89.15 125.4 87.5 125.4 86.35 121.75 85.25 118.05 85.25 112.9 85.25 107.75 86.35 104.1 87.5 100.4 89.15 100.4 90.8 100.4 91.9 104.1 93.05 107.75 93.05 112.9
M 54.7 143.75
Q 58.7 135.25 65.2 124.15 64 140.1 72.5 148.85 78.75 155.3 85.9 155.3 87.95 155.3 89.3 154.65 91.1 153.85 91.1 152.1 91.1 151.5 91 151.1
L 90.9 150.8 90.8 151.25
Q 90.5 151.75 90.2 152.4 89.65 152.85 86.65 152.85 79.9 152.85 74.45 147.4 68.1 141.05 68.1 130.7 68.1 126.25 68.7 123.2 69.35 120.2 69.35 119.55 69.35 116.65 66.65 116.65 64.55 116.65 61.6 121.9 59.8 125.2 55.55 134.8 45.65 157.6 38.75 166.6 39.55 166.25 46.55 161.4 51.15 158.2 55.1 158.2 61.3 158.2 66.65 163.05 71.35 167.25 71.35 170.4 71.35 173.2 67.55 176.35 63.95 179.3 57.55 182.1 66.05 182.8 71.25 177.6 74.8 174.1 74.8 172 74.8 166.9 68.8 162.5 62.4 157.75 51.4 155.65
L 51.35 152.45
Q 51.35 150.85 54.7 143.75
M 99.5 42.95
Q 95.75 39.75 88.5 32.5 81.75 25.7 77.9 22.65 65.3 12.45 49.6 12.45 42.15 12.45 33.6 16.95 25.1 21.45 17.85 29.3 1.1 47.6 1.1 71.05 1.1 83.75 7.45 92.35 12.15 98.7 21.5 104.05 26.65 106.95 35.55 111.7 41.95 115.85 41.95 120.95 41.95 123.05 39.9 128.85 38.7 132.35 35.45 140.95 28.85 158.75 28.85 167.75 28.85 182.9 45.5 182.9 50.25 182.9 54.45 181.4 56.25 180.8 61.05 178.45
L 58.05 178.75 59.35 178.15
Q 56.9 178.5 52.95 178.75 49.45 179.05 48.55 179.05 42.5 179.05 38.7 177.05 34.25 174.7 34.25 170.15 34.25 165.65 39.85 145.5 45.4 125.25 45.4 119.3 45.4 113.35 38 106.95
L 30.65 101.75
Q 30.05 101.75 29.4 102.75 28.8 103.7 26.6 103.7 20.65 103.7 14.25 95.1 6.8 85.15 6.8 71.9 6.8 50.45 22.9 33.9 29.7 26.95 37.7 22.95 45.45 18.95 52.1 18.95 62.9 18.95 75.5 25.95 86.95 32.3 92.85 40.1
L 91.75 39.8
Q 86.75 38.65 86.15 38.65 80.4 38.65 74.65 47.55 73.2 49.75 70.95 53.65 69.25 56.4 68.35 56.4 54.9 55.6 53.95 55.6 46.4 55.6 40.85 59.25 33.2 64.3 33.2 74.95 33.2 83.95 39.1 90.75 44.8 97.25 51.7 97.25 60.7 97.25 66.35 91.5 74.05 83.55 73.3 66.1
L 74.1 67
Q 75.75 68.2 82 69 88.15 69 94.55 63.65 101.2 58.1 101.2 52.3 101.2 51.75 100.9 50.95
L 100.6 50.3 101.6 50.55
Q 105 52.9 106.25 56.25 107.25 58.85 107.25 63.35 107.25 66 107.2 72.2 107.35 78.05 108.65 83.15 112.5 97.9 123.35 110 129.35 116.7 130.05 117.65 132.85 121.45 132.85 125 132.85 130.3 129.35 134.65 124.7 140.3 113.3 145.65
L 115.55 145.8 114 146.65 117.3 146.8
Q 125.65 146.8 131.4 138.65 136.1 132 136.1 125.95 136.1 120.15 133.9 116.3 133 114.8 128.15 109.15 117.65 97.05 111.05 74.6 109.25 68.4 108.75 62.9 108.5 57.75 108.35 55.8 108 52.65 106.35 50.15 104.45 47.25 99.5 42.95
M 88.4 44.6
Q 91.3 44.6 94.05 46.2 96.8 47.75 96.8 49.5 96.8 53.75 91.75 58.4 86.1 63.75 79.05 63.75 75.3 63.75 75.3 62.8 75.3 62.15 74.75 61 74.15 59.85 74.15 59.25 74.15 55.05 78.65 50 83.45 44.6 88.4 44.6
M 40.15 85.8
Q 39.6828125 85.084375 39.25 84.2 37.65 80.95 37.65 78.2 37.6724609375 77.89140625 37.7 77.55 37.8146484375 71.838671875 40.65 67.9 42.4412109375 66.381640625 42.85 66.2 48.2 63.25 48.2 62.6 48.2 62.4501953125 48.15 62.3 48.7576171875 62.55 48.9 62.55 49.8494140625 62.55 49.95 61.8 53.470703125 60.95 57.85 60.95 61.8 60.95 65 61.5 68.25 61.95 68.95 61.95
L 69 67.3
Q 69 77.2 64.15 84.7 58.9 92.6 51.1 92.6 45.15 92.6 42 88.85 40.90234375 87.529296875 40.15 85.8 Z"/>
</g>

<g id="Parts_Sets_Sea_seaHead_0_Layer2_0_FILL">
<path fill="#FFFFFF" fill-opacity="0.2980392156862745" stroke="none" d="
M 71.15 43.3
Q 73.8 39.55 74.1 35.6 74.5 31.9 72.5 31.35 71.65 31.15 68.5 31.5 64.5 32 60.85 33.25 50 36.85 47.8 45.05 47.5 46.1 47.7 47.45 48 49.4 49.45 49.8 63.9 53.65 71.15 43.3 Z"/>
</g>

<g id="Parts_Sets_Sea_seaHead_0_Layer1_0_FILL">
<path fill="#000000" fill-opacity="0.14901960784313725" stroke="none" d="
M 77.15 165.55
L 77 164.6 76.5 164.15 77.15 165.55
M 90.05 97.45
L 89.6 98.65
Q 92.8 102.2 93.7 104 94.1 104.9 94.1 106.25 94.1 107.2 93.2 122.85
L 93.5 130
Q 92.65859375 128.0173828125 92.6 127.9 92.6 127.95 92.35 128 92.1 128.15 92.1 128.55 92.1 130.5416015625 93.1 132.9
L 91.5 131.9 91.1 133.7
Q 95.0287109375 136.9951171875 97.25 138.85 96.5146484375 139.994140625 95.5 141.55 94.6095703125 142.5888671875 93.6 143.35 93.51328125 143.229296875 93.4 143.15 93.0607421875 143.531640625 92.8 143.95 90.1220703125 145.75 86.75 145.75 81.25 145.75 74.1 134.95 70.6994140625 129.7822265625 69.1 126.35 68.998046875 124.53125 68.95 122.4 68.85 117.6 67.85 117.35 66.75 119.1 65.85 122.85 65.05 126.15 65.05 127.65 65.05 139.9 74.4 148.65 77.5 151.6 81.1 153.6 84 155.2 84.9 155.2 87.15 155.2 89.75 153.8 91.1623046875 153.0123046875 91.95 152.25
L 92 152.25
Q 92.083984375 152.1765625 92.15 152.05 92.7193359375 151.4884765625 92.95 150.95 92.8880859375 150.9412109375 92.8 150.9 93.0015625 150.583984375 93.2 150.15 94 148.35 94 147.75 94.35 145.75 94.35 145.1 94.1123046875 144.255078125 93.85 143.75 94.5919921875 143.2029296875 95.35 142.55 97.1916015625 140.9658203125 98.3 139.7 99.6123046875 140.803515625 100.05 141.15 101.85 142.45 103.1 142.45 104 142.45 105.25 141.95 104.48828125 141.124609375 103.8 140.35 107.7431640625 139.7376953125 109.8 135.75 111.25 130.95 111.25 130.85 111.25 130.15 110.4 128 109.6599609375 126.0619140625 108.8 125.5 109.2580078125 126.34140625 109.6 128.1 109.9 129.75 109.9 130.9 109.9 131.649609375 109.8 132.35 109.7529296875 132.0810546875 109.55 132 109.2 131.95 109 131.9 108.65 132 108.2 133.05 107.4 134 105.55 134 101.95 134 98.85 129.55 97.9890625 127.983203125 97.4 126.9 97.433203125 122.3203125 98.55 117.95 99.75 113.4 99.75 111.15 99.75 106.85 96.85 103.9 92.65 100.5 90.05 97.45
M 90 43.1
Q 89.958984375 43.1 89.9 43.1 82.45 43.1 79.15 45.35 77.2 46.7 75.3 50.65 73.25 54.8 70.7 56.75 66.45 59.95 57.75 61.35 57.75 61.3 57.25 59.15 47.65 59.25 42 67 37.5 73.15 37.5 79.8 37.5 87.4 41.65 91.85 45.85 96.35 53.1 96.35 61.9 96.35 68.3 88.3 66 89.1 65 89.35 63.15 89.95 60.25 89.95 55.7 89.95 52.1 87.85 47.35 85.05 47.35 79.65 47.35 74.5 51.85 68.7 57.4 61.6 65.1 62.9 71.1 63.95 77.55 57.5 81.35 53.75 82.55 52.85 85.45 50.65 88.45 50.65 89.5 50.65 90 51.1 90.7 51.75 90.7 53.45 90.7 57.65 89 61.7 86.95 66.55 86.95 66.6 93.9 61.05 96.55 57.75 96.76328125 57.4833984375 96.95 57.2 97.8876953125 59.9404296875 98.9 63.05 100.85 67.05 102.2 73.85 103 77.7 104.35 85.1 106.85 96.1 106.95 96.35 107.5158203125 98.403125 108.2 100.2 108.783203125 99.9 109.55 99.9 111.9185546875 99.9 114.8 103.4 115.5171875 104.1416015625 116.1 105.1 116.1703125 105.21328125 116.2 105.3 116.6388671875 105.9068359375 117.05 106.55 119.025390625 109.6732421875 119.95 111.65 120.420703125 111.9541015625 120.75 112.15 120.75 112.21484375 120.75 112.25 120.75 112.3 121.1 114.05 121.155078125 114.2701171875 121.2 114.45 119.9984375 117.78671875 117.35 125.85 112.6 140.3 112.6 144.35 112.6 144.65 113.7 145.25 115.35 146.1 118.25 146.1 125.1 146.1 124.65 143.1 124.3625 142.4341796875 124.1 141.8 126.392578125 141.107421875 127.9 139.6 129.35 138.15 129.65 136.6 129.65 136.185546875 129.4 135.9 130.122265625 135.7533203125 131.3 135.4 131.5 135.35 131.6 135.3 131.75 135.2 131.75 134.8 131.75 134.45 131.65 134.35 131.55 134.3 131.55 134.25
L 131 134.25
Q 128.75 134.75 128.4 134.75 126.79296875 134.75 122.9 131.3 123.187109375 127.2 123.95 122.4 125.1 114.9 125.1 114.4 125.1 113.75 124.7 113.2
L 124.7 113.15
Q 124.75 112.9791015625 124.75 112.75 124.75 111.7017578125 124.25 111.05 123.365234375 107.943359375 120.7 103.6 115.95 95.85 114.35 88.5 113.65 85.25 110.2 74.8 108 68.1 108 61.65 108.5 59.1 108.5 58.5 108.5 54.4 101.8 46.45 96.55 40.2 92.1 36.75 86 31.8 80 27.65 68.2 19.5 63.25 19.5 62.81484375 19.5982421875 62.4 19.7 59.1404296875 18.8162109375 53.8 17.5 47.45 15.85 47.2 15.85 41.4 15.85 34 20.6 26.55 25.45 19.95 33.45 4.1 52.65 4.1 74.95 4.1 83.6 9.5 93.55 10.501171875 95.3869140625 11.5 96.9 14.409375 99.134375 19.05 102.65 19.2974609375 102.8150390625 19.6 103.05 20.3794921875 103.148828125 21.1 103.25 20.9685546875 102.9185546875 20.85 102.55 22 103.1 26.8 104.1 33.6 105.5 35.35 108.9 35.55 109.3 39.55 113.8 42.95 117.65 42.95 119.4
L 42.8 125.55
Q 42.8 126.85 41.9 133.4 41.9 134.15 40.9 135.8 39.7 137.75 38.65 137.75 38.2 137.75 37.7 138.25 37.2 138.75 37 139.45
L 37.1 140.45 37.15 140.55
Q 37.1984375 140.7439453125 37.45 141.3 37.623828125 141.0671875 37.8 140.75
L 37.8 140.7
Q 37.8 140.78515625 37.8 140.85 37.5845703125 141.1611328125 37.45 141.3
L 37.5 141.35
Q 37.5 142.55 37.35 143.15 38.9 141.6 37.4 143.3 37.3466796875 143.3623046875 37.3 143.4 36.7212890625 146.35859375 36.1 149.8 32.85 167.95 32.7 168.5 32.3 169.9 31.65 170.05 30.65 169.9 29.8 169.8
L 29.65 172.25
Q 29.65 172.45 32.95 179.15
L 32.9 177.45
Q 33.5 177.15 34.9 177.15 36.8 177.15 37.35 178.1 37.7 178.6 37.95 180.05 38.95 182.9 45.65 182.9 55.55 182.9 63.35 179.35 72.1 175.45 72.1 169.45 72.1 168.05 71.65 167.25 71.25 166.55 70 165.6 58.15 172.05 53.3 173.9 48.7 175.65 43.8 175.65 39.8 175.65 38.45 173.35 37.7 172.05 37.7 169 37.7 168.161328125 38.05 165.65 41.1583984375 159.426953125 43.5 146.3 43.587890625 145.80078125 43.65 145.3 44.4466796875 142.8888671875 45.25 140.05 48.75 127.5 48.75 121.55 48.75 112.45 45.75 105.1 44.0712890625 101.0314453125 41.15 96.65 40.744140625 95.946484375 40.3 95.25 39.2740234375 93.5974609375 38.1 92.15 34.15 87.2 26.85 81.9 22.2 79.4 17.85 77.75 20.3 62.75 33.35 45.6 40.55 36.1 48.85 29.5 49.117578125 29.2865234375 49.35 29.05 49.7689453125 28.9888671875 50.15 28.9 52.85 28.35 55.2 28.35 78.941015625 28.35 90 43.1 Z"/>
</g>

<g id="Parts_Sets_Sea_seaHead_0_Layer0_0_FILL">
<path fill="#000000" stroke="none" d="
M 44.55 63.3
Q 45.1755859375 63.411328125 45.75 63.5 46.2837890625 68.9056640625 49.85 75.05 55.25 84.45 64.05 84.45 65.6513671875 84.45 66.25 84.2 66.7798828125 84.116796875 67 83.75 67.15 83.2 67.2 83.05 65.75 78.55 64.85 76.15 63.3 72 61.35 69.3 56.93828125 63.156640625 48.4 61.55 47.900390625 59.030078125 46.9 58.95 45.8314453125 58.8609375 45.7 61.2 45.1646484375 61.137109375 44.6 61.1
L 44.3 62.05 44.55 63.3
M 86 41.9
L 85.8 42.1
Q 85.04140625 42.116796875 84.4 42.4 83.13515625 41.98359375 81.95 42.6 82.47734375 42.92734375 83 43.4 82.59921875 43.8685546875 82.25 44.5 81.4 46.1 81.4 47.4 81.4 52.7 83.95 57 86.566796875 61.4048828125 91.45 63.85 91.4814453125 63.937890625 91.5 64
L 91.75 64
Q 92.3314453125 64.2921875 92.95 64.55
L 93.6 64.1 93.75 63.15
Q 93.6939453125 63.1025390625 93.65 63.05 93.7541015625 62.8255859375 93.85 62.55 94.15 61.7 94.15 60.9 94.15 56.4 90.15 48.95 87.977734375 44.8984375 85.95 43.3 86.2 42.816796875 86.2 42.75 86.2 41.9 86 41.9 Z"/>

<path fill="#FFFFFF" fill-opacity="0.2980392156862745" stroke="none" d="
M 34.55 96.65
Q 34.55 91.95 29.7 90.6 27.85 90.1 26.35 90.45 24.85 90.85 24.85 91.85 24.85 94.15 26.05 96.25 27.9 99.55 32 99.55 34.55 99.55 34.55 96.65
M 13.45 91.25
Q 14.5 94.8 16.8 95.75 20.05 95.35 22.05 92.3 23.5 90.1 23.5 88.6 23.5 85.45 22.45 83.05 20.55 78.5 15.7 78.5 12.75 78.5 12.75 86.6 12.75 88.95 13.45 91.25 Z"/>
</g>
</defs>

<g transform="matrix( 1, 0, 0, 1, -62.75,-76.85) ">
<g transform="matrix( 1, 0, 0, 1, 0,0) ">
<use xlink:href="#Parts_Heads_headsMC_41_Layer12_0_FILL"/>
</g>

<g transform="matrix( 1, 0, 0, 1, 4,27.8) ">
<g transform="matrix( 1, 0, 0, 1, 0,0) ">
<use xlink:href="#Parts_Sets_Sea_seaHead_0_Layer4_0_FILL"/>
</g>

<g transform="matrix( 1, 0, 0, 1, 0,0) ">
<use xlink:href="#Parts_Sets_Sea_seaHead_0_Layer2_0_FILL"/>
</g>

<g transform="matrix( 1, 0, 0, 1, 0,0) ">
<use xlink:href="#Parts_Sets_Sea_seaHead_0_Layer1_0_FILL"/>
</g>

<g transform="matrix( 1, 0, 0, 1, 0,0) ">
<use xlink:href="#Parts_Sets_Sea_seaHead_0_Layer0_0_FILL"/>
</g>
</g>

<g id="hat1" transform="matrix( 0.983917236328125, -0.17529296875, 0.17529296875, 0.983917236328125, 45.2,78.25) ">
<g id="colorMC" transform="matrix( 0.9999847412109375, 0, 0, 0.9999847412109375, 0,0) "/>

<g id="colorMC2" transform="matrix( 1, 0, 0, 1, 0,0) "/>
</g>

<g id="hat2" transform="matrix( 0.9733734130859375, -0.2247314453125, 0.2247314453125, 0.9733734130859375, 38,60.6) ">
<g id="colorMC_FL" transform="matrix( 0.9999847412109375, 0, 0, 0.9999847412109375, 0,0) "/>

<g id="colorMC2_FL" transform="matrix( 1, 0, 0, 1, 0,0) "/>
</g>

<g id="hat3" transform="matrix( 0.96026611328125, -0.2753753662109375, 0.2753753662109375, 0.96026611328125, 26,48.4) ">
<g id="colorMC_FL_FL" transform="matrix( 0.9999847412109375, 0, 0, 0.9999847412109375, 0,0) "/>

<g id="colorMC2_FL_FL" transform="matrix( 1, 0, 0, 1, 0,0) "/>
</g>

<g id="hat4" transform="matrix( 0.944580078125, -0.3252410888671875, 0.3252410888671875, 0.944580078125, 18.85,34.5) ">
<g id="colorMC_FL_FL_FL" transform="matrix( 0.9999847412109375, 0, 0, 0.9999847412109375, 0,0) "/>

<g id="colorMC2_FL_FL_FL" transform="matrix( 1, 0, 0, 1, 0,0) "/>
</g>
</g>
</svg>
