
<svg xmlns="http://www.w3.org/2000/svg" version="1.1" xmlns:xlink="http://www.w3.org/1999/xlink" preserveAspectRatio="none" x="0px" y="0px" width="550px" height="400px" viewBox="0 0 550 400">
<defs>
<g id="Parts_Sets_Gecko_geckoBodyStatic_0_Layer0_0_FILL">
<path fill="#DAC849" stroke="none" d="
M 24.6 86.45
Q 23.1 83.55 22.55 82.85 20.75 87 17.6 92.3
L 26.75 89.4
Q 25.8 88.6 24.6 86.45
M 17.2 64.7
Q 16.5 64.8 15.65 64.7 15.05 65.65 12.85 69.7 9.2 76.2 8.75 78.65 10.45 79.4 15.25 79.7 18.4 80.1 20.3 80.7 20.7 79.4 21.9 78.9 18.8 71.35 17.2 64.7
M 8.2 50.75
Q 6.15 52.5 1.8 57.3 11.45 61.7 16.7 62.9 16.2 59.95 16.1 59.5 14.7 52.8 14.2 46.5 11.15 48.25 8.2 50.75
M 14 26.45
Q 13.8 26.55 11.5 28.6 8.8 30.85 6.65 32.05 4.2 33.4 2.2 34.95 1.15 35.7 0 36.6 1.05 37 6.85 40.35 10.3 42.55 14.05 43.45 13.8 40.4 14 34.5 13.95 30.65 14.1 28.9
L 14 26.45
M 3.05 17.25
Q 3.3 19.35 7.95 22.6 11.75 25.25 14 26.45 14.45 21.8 16.55 12 14.05 12.75 3.05 16.65
L 3 16.45
Q 2.95 16.4 3.05 17.25
M 20.05 0
Q 18.45 0.2 11.05 0.2
L 8.05 1.05
Q 8.4 2.05 10.05 3.5 11 4.35 13.4 6.3 14.45 7.4 16.8 11
L 18.2 6.45
Q 18.8 3.65 20.05 0
M 67.3 15.8
Q 64.55 10 61.35 4.85
L 59.35 3.25
Q 59.2 13.7 59.4 24.05 59.7 34.4 60.55 44.75 61.35 53.5 62.6 62.2 63.5 68.65 66.3 74.6 68.6 79.75 71.1 84.85
L 73.5 82.15 74.5 78.5
Q 74.95 76.8 75.15 74.35 75.4 71.35 75.6 70.15 76.3 65.35 76.75 60.6 77.25 54 76.25 47.1 75.5 41.15 74.1 35.3 71.75 25.3 67.3 15.8 Z"/>
</g>

<g id="Parts_Sets_Gecko_geckoBodyOutline_0_Layer0_0_FILL">
<path fill="#FFFFFF" fill-opacity="0.4" stroke="none" d="
M 13.95 126.6
Q 13.47421875 126.223828125 13 125.8
L 11.35 125.4
Q 12.648046875 126.0375 13.95 126.6
M 66.75 73.75
Q 68.85 73.75 69.5 71.35 69.75 70.3 69.75 67.55 69.75 60.3 66.75 59 63.75 57.75 63.75 66.5
L 63.75 70.05
Q 64.25 73.75 66.75 73.75
M 66.25 63.05
L 66.25 63
Q 66.4763671875 63.5318359375 66.65 64.05
L 66.65 64.1
Q 66.4720703125 63.97578125 66.25 63.85 66.25 63.4669921875 66.25 63.05
M 58.6 12.3
Q 56.25 14.15 56.25 22.4 56.25 22.45 56.4 27.4 56.65 33.3 57.45 38.2 58.65 45.6 60.95 49.55 61.5 50.6 62.2 51.35 64.25 53.8 67.05 53.8 70.05 53.8 70.95 47.2 71.25 45 71.25 39.7 71.25 32.15 68.95 24.8 66.85 18.05 63.75 14.35 60.7 10.6 58.6 12.3
M 65.35 22.75
Q 65.1 21.85 64.85 21.05 65.1 21.55 65.35 22.1 65.5 22.45 65.65 22.8 65.45 22.75 65.35 22.75
M 82.75 94.65
Q 82.67890625 94.8267578125 82.6 94.95 72.1646484375 114.555078125 51.7 124.35 49.596484375 125.3513671875 47.4 126.25 34.3703125 131.569140625 24.6 124.4 22.5287109375 122.8865234375 20.6 120.8 7.269140625 106.3970703125 3.55 87.7 3.5625 87.6392578125 3.55 87.55 1.5005859375 92.828125 2.05 98.45 2.25 100.5 2.65 102.55 3.0306640625 104.3412109375 3.6 106.1 4.328515625 108.3412109375 5.35 110.55 8.1 116.1 12.15 120.4 14.148046875 122.5541015625 16.45 124.4 17.8787109375 125.5359375 19.4 126.55 23 128.85 26.95 129.95 33.7 131.7 40.5 131.35 51.55 130.5 61.65 126.2 63.71875 125.3318359375 65.7 124.3 69.115625 122.575390625 72.3 120.4 73.35 119.7 74.35 118.95 77.5 116.8 80.45 114.45 82 113.15 83.3 111.25 85.55 107.9 86.7 104 87.05 102.85 87.4 101.75 84.83046875 98.3640625 82.75 94.65 Z"/>

<path fill="#000000" fill-opacity="0.2784313725490196" stroke="none" d="
M 16.45 49.5
Q 16.35859375 49.555859375 16.25 49.6
L 16.5 49.5 16.45 49.5
M 58.85 2.75
Q 58.871875 2.69453125 58.9 2.65 58.4 2.3 55.15 1.3 51.95 0.35 51.15 0.3
L 51.1 0.3
Q 53.9564453125 0.9494140625 56.65 1.9 57.7576171875 2.2923828125 58.85 2.75
M 43.05 103.9
Q 42.6603515625 103.5623046875 42.25 103 39.476171875 104.4662109375 36.95 105.45 36.4060546875 105.618359375 35.9 105.75 35.4228515625 106.6380859375 34.85 107.6
L 43.45 104.75
Q 43.25 104.3 43.05 103.9
M 27.5 90.3
Q 27.4498046875 90.328515625 27.4 90.3 26.3767578125 92.5658203125 26.1 93.95 27.6 94.65 32.55 95 35.45 95.35 37.55 96 37.9 94.45 38.65 94.2 37.1921875 90.5685546875 36 86.85 34.265625 87.0873046875 32.3 87.85 28.3796875 89.3638671875 27.5 90.3
M 21.3 73.2
Q 21.459375 73.284375 21.6 73.35 24.573828125 74.654296875 27.05 75.6 28.9 76.4 28.8 76.25 28.9404296875 76.296875 29.05 76.3 31.5587890625 77.1861328125 33.45 77.6
L 33.5 77.6
Q 33.2 76 32.9 74.55 32.6005859375 73.0283203125 32.35 71.5 30.137890625 70.9666015625 27.4 70.2 24.618359375 69.436328125 22.85 68.95 20.93984375 70.722265625 19.65 72.1
L 19.5 72.4
Q 19.7177734375 72.49921875 19.9 72.6 20.3201171875 72.775 20.7 72.95 21.0126953125 73.089453125 21.3 73.2
M 32.65 77.25
L 32.7 77.25
Q 33.0470703125 77.3595703125 33.35 77.45 33.400390625 77.512109375 33.4 77.55 33.1845703125 77.453515625 32.65 77.25
M 30.9 58.35
Q 30.8234375 57.01796875 30.75 55.65 27.8513671875 54.6845703125 25.85 52.75 23.15 50.1 23.05 50 22.2619140625 49.466015625 21.3 49.35 18.4546875 51.1189453125 17.3 51.9 19.4 52.65 24.05 55.45 27.2 57.45 30.9 58.35
M 31 44
L 31 43.95 29.5 44.25
Q 29.75 44.5 30.4 44.2
L 30.7 44.1
Q 30.923828125 44.044140625 31 44
M 20.3 32.15
Q 20.25 32 20.25 31.95 20.2 31.9 20.3 32.7 20.55 34.75 25.15 38 27.95 39.85 30.85 41.35 31 41.3 31.15 41.25 31.305859375 39.6185546875 31.5 38 29.9013671875 36.434375 27.75 34.65 24.9408203125 32.33671875 23.05 31.25 21.4001953125 31.770703125 20.3 32.15
M 29.75 16.25
Q 29.0046875 16.2931640625 28.2 16.3
L 25.25 16.7
Q 27.45 18.75 31.05 22 32.6 23.55 33.8 25.05
L 33.85 25.05
Q 34.3259765625 22.96484375 34.9 20.9 33.884375 20.0767578125 32.55 19.15 31.7326171875 18.142578125 31 17.4 30.307421875 16.6890625 29.75 16.25
M 58.15 3.7
L 57.65 4.15 50.4 2.4
Q 48.684375 4.115625 47.1 5.95 45.300390625 8.1171875 43.7 10.45 39.2 17.15 36.85 24.85 36 27.45 35.45 30.15 34.4 35.55 34.35 40.95 34.05 57.05 36.5 73.2
L 35.85 73.65
Q 38.25 81.45 41.3 88.8 44.4 96.3 48.1 103.2 43.85 108 37.7 110.05 35.15 110.8 32.6 111.4 32.45 111.55 32.3 111.75
L 30.3 112 30.3 111.9
Q 29.7 111.9 29.05 111.8 27.55 111.5 26.15 111 24.7 110.3 23.5 109.5 19.1 106.2 16.05 101.65 11.48984375 94.9779296875 10.35 86.85 10.758203125 95.9720703125 14.45 104.15 18 112.05 24.9 117.4 30.95 122.05 38.35 123.2 39.65 123.25 41 123 50.75 120.4 54.7 111.15 56 108.1 56.35 104.75 48.85 91.25 45.5 76.25 41.6 58.95 44.35 41.45 47.3046875 22.4490234375 56.9 5.9 57.555078125 4.815625 58.2 3.7 58.1865234375 3.718359375 58.15 3.7
M 82.6 94.95
Q 82.67890625 94.8267578125 82.75 94.65 81.814453125 93.0080078125 80.95 91.25 81.1689453125 92.3 81.35 93.25 81.9740234375 94.0712890625 82.6 94.95
M 84.65 73.5
Q 82.863671875 67.4759765625 82.3 57.8 79.75 27.75 79.75 24.25 79.75 23.8111328125 80 23.1 79.588671875 22.39609375 79.15 21.7
L 77.3 20.2 77.25 21.45
Q 77.2529296875 21.4900390625 77.2 21.5 77.11328125 30.971484375 77.3 40.35 77.6 50.4 78.4 60.45 79.15 68.9 80.4 77.4 81.3 83.6 83.95 89.4 84.80859375 91.26640625 85.65 93.1 85.715234375 93.13828125 85.75 93.15 85.80546875 93.336328125 85.85 93.5 87.2431640625 96.448046875 88.65 99.35
L 90.1 95.9 89.65 99.35
Q 90.45 96.7 91.1 94.05 91.3890625 92.919140625 91.65 91.8 91.671875 91.675390625 91.7 91.55 92.1240234375 89.7388671875 92.45 87.95 89.0703125 83.76484375 86.85 79.2 85.7765625 76.4900390625 84.65 73.5 Z"/>

<path fill="#000000" stroke="none" d="
M 93.55 91.55
Q 93.787890625 90.635546875 94 89.7 94.85703125 86.076171875 95.35 82.4 97.55 67.4 94.2 52.55 90.3720703125 35.409375 80.7 21.2 80.2916015625 20.5640625 79.85 19.9 78.5466796875 18.0916015625 77.15 16.3 74.05 12.3 70.15 9.3 67.7228515625 7.4314453125 65.15 5.9 62.1013671875 4.082421875 58.85 2.75 57.7576171875 2.2923828125 56.65 1.9 53.9564453125 0.9494140625 51.1 0.3 50.398046875 0.1455078125 49.65 0 49.45 0.05 49.3 0.25
L 48.05 1.35
Q 47.8 1.6 47.55 1.9 46.1951171875 3.3697265625 44 5.95 41.4080078125 9.00390625 37.65 13.6 37.4 13.85 37.2 14.2 26.1 13.75 23.9 13.9 21.6 14.1 21.75 15.45
L 27.6 21.8
Q 29.85 24.25 31.35 25.7 23.65 27.9 21.35 28.65 17.45 30.05 17.75 32.5 17.88046875 33.675 19.25 35.55 19.634375 36.0376953125 20.05 36.55 21.1951171875 37.912109375 22.85 39.55 25.2 41.8 27.15 42.95 25.05 44.1 22.1 45.9 18.35 48.15 16.5 49.5
L 16.25 49.6
Q 13.904296875 51.3740234375 14 51.9 14.05 52.35 21.15 56.6 27.55 60.4 30 60.85 27.55 62.3 23.9 65.2 21.6693359375 66.9611328125 20.1 68.35 19.9251953125 68.515625 19.75 68.65 16.365625 71.7580078125 16.5 72.9 16.6 73.5 23.3 76.85 27.4 78.9 30.3 79.7 28.85 81.4 27 84.85 23.25 91.7 23.55 94.2 23.75 95.6 29.8 97.35 34.1 98.65 36.8 98.8 35.95 101.05 33.45 104.95 31.95 107.4 31.1 108.85
L 30.25 109.1
Q 27.25 107.9 24.5 105.9 21.85 103.95 19.6 101.25 19.21796875 100.7765625 18.85 100.3 17.536328125 98.409765625 16.3 96.45 11.383984375 87.8876953125 11.85 77.4
L 12.65 77.1 11.6 74.5
Q 6.366015625 76.459375 3.55 80.35 1.0984375 83.759765625 0.45 88.6 -0.95 98.8 2 108.3 2.7056640625 110.5681640625 3.6 112.65 5.444140625 116.8478515625 8.1 120.4 9.6673828125 122.530078125 11.55 124.4 12.0193359375 124.8986328125 12.5 125.35 12.7509765625 125.5833984375 13 125.8 13.47421875 126.223828125 13.95 126.6 20.6109375 132.1208984375 29.2 133.2 39.15 134.1 48.95 132.75 58.9 131.4 67.55 126.25 69.7669921875 125.403515625 71.8 124.3 74.8236328125 122.6384765625 77.45 120.4 80.2 118.05 82.5 115.1 87.8 108.3 90.8 100.1 92.427734375 95.8484375 93.55 91.55
M 91.55 51.3
Q 92.9 56.95 93.65 62.7 94.6 69.4 94.1 75.85 93.7 80.45 93 85.1 92.761328125 86.516015625 92.45 87.95 92.1240234375 89.7388671875 91.7 91.55 91.671875 91.675390625 91.65 91.8 91.3890625 92.919140625 91.1 94.05 90.45 96.7 89.65 99.35
L 90.1 95.9 88.65 99.35
Q 87.2431640625 96.448046875 85.85 93.5 85.7701171875 93.3267578125 85.65 93.1 84.80859375 91.26640625 83.95 89.4 81.3 83.6 80.4 77.4 79.15 68.9 78.4 60.45 77.6 50.4 77.3 40.35 77.11328125 30.971484375 77.2 21.5 77.2400390625 20.828125 77.25 20.15
L 77.3 20.2 79.15 21.7
Q 79.588671875 22.39609375 80 23.1 82.6689453125 27.48671875 84.95 32.35 89.25 41.55 91.55 51.3
M 61.8 5.9
Q 65.52578125 8.56796875 68.25 12.45 74.1 20.7 74.65 31.05 75.15 40.65 74.95 50.15 74.8 58.25 74.95 66.3 75.15 76.65 78.85 86.35 79.817578125 88.874609375 80.95 91.25 81.814453125 93.0080078125 82.75 94.65 84.83046875 98.3640625 87.4 101.75 87.05 102.85 86.7 104 85.55 107.9 83.3 111.25 82 113.15 80.45 114.45 77.5 116.8 74.35 118.95 73.35 119.7 72.3 120.4 69.115625 122.575390625 65.7 124.3 63.71875 125.3318359375 61.65 126.2 51.55 130.5 40.5 131.35 33.7 131.7 26.95 129.95 23 128.85 19.4 126.55 17.8787109375 125.5359375 16.45 124.4 14.148046875 122.5541015625 12.15 120.4 8.1 116.1 5.35 110.55 4.328515625 108.3412109375 3.6 106.1 3.0306640625 104.3412109375 2.65 102.55 2.25 100.5 2.05 98.45 1.5005859375 92.828125 3.55 87.55
L 3.55 87.5
Q 3.945703125 86.58125 4.4 85.65 6.3 81.65 9.5 78.45 9.8 82.35 10.3 86.2 10.3400390625 86.53984375 10.35 86.85 11.48984375 94.9779296875 16.05 101.65 19.1 106.2 23.5 109.5 24.7 110.3 26.15 111 27.55 111.5 29.05 111.8 29.7 111.9 30.3 111.9
L 30.3 112 32.3 111.75
Q 32.45 111.55 32.6 111.4 35.15 110.8 37.7 110.05 43.85 108 48.1 103.2 44.4 96.3 41.3 88.8 38.25 81.45 35.85 73.65
L 36.5 73.2
Q 34.05 57.05 34.35 40.95 34.4 35.55 35.45 30.15 36 27.45 36.85 24.85 39.2 17.15 43.7 10.45 45.300390625 8.1171875 47.1 5.95 48.684375 4.115625 50.4 2.4
L 57.65 4.15 58.15 3.7
Q 58.1865234375 3.718359375 58.2 3.7 60.129296875 4.6880859375 61.8 5.9
M 28.2 16.3
Q 29.0046875 16.2931640625 29.75 16.25 34.3732421875 16.2087890625 36.4 15.95 35.5798828125 18.41015625 34.9 20.9 34.3259765625 22.96484375 33.85 25.05
L 33.8 25.05
Q 32.6 23.55 31.05 22 27.45 18.75 25.25 16.7
L 28.2 16.3
M 23.05 31.25
Q 25.7798828125 30.3912109375 30 29.15 32 28.5 33.2 27.8 32.1359375 32.8544921875 31.5 38 31.305859375 39.6185546875 31.15 41.25 31 41.3 30.85 41.35 27.95 39.85 25.15 38 20.55 34.75 20.3 32.7 20.2 31.9 20.25 31.95 20.25 32 20.3 32.15 21.4001953125 31.770703125 23.05 31.25
M 21.3 49.35
Q 22.63359375 48.5087890625 24.35 47.45 28.52734375 44.82890625 29.5 44.25
L 31 43.95 31 44 30.7 49.65
Q 30.665234375 52.66796875 30.75 55.65 30.8234375 57.01796875 30.9 58.35 27.2 57.45 24.05 55.45 19.4 52.65 17.3 51.9 18.4546875 51.1189453125 21.3 49.35
M 21.6 73.35
Q 21.459375 73.284375 21.3 73.2 21.0126953125 73.089453125 20.7 72.95 20.3201171875 72.775 19.9 72.6 19.7177734375 72.49921875 19.5 72.4
L 19.65 72.1
Q 20.93984375 70.722265625 22.85 68.95 24.1951171875 67.756640625 25.85 66.35 29.45 63.2 31.2 62.3 31.5751953125 66.9158203125 32.35 71.5 32.6005859375 73.0283203125 32.9 74.55 33.2 76 33.5 77.6
L 33.45 77.6
Q 31.5587890625 77.1861328125 29.05 76.3 28.9404296875 76.296875 28.8 76.25 28.9 76.4 27.05 75.6 24.573828125 74.654296875 21.6 73.35
M 32.9 80.15
Q 33.6 80.25 34.15 80.15 34.972265625 83.5330078125 36 86.85 37.1921875 90.5685546875 38.65 94.2 37.9 94.45 37.55 96 35.45 95.35 32.55 95 27.6 94.65 26.1 93.95 26.3767578125 92.5658203125 27.4 90.3 28.41171875 88.1294921875 30.15 85.1 32.1 81.65 32.9 80.15
M 42.25 103
Q 42.6603515625 103.5623046875 43.05 103.9 43.25 104.3 43.45 104.75
L 34.85 107.6
Q 35.4228515625 106.6380859375 35.9 105.75 38.896875 100.7048828125 39.75 98.7 40.1 99.05 41.5 101.85 41.884375 102.5224609375 42.25 103
M 31 44
Q 30.923828125 44.044140625 30.7 44.1
L 30.4 44.2
Q 30.6658203125 44.25 30.95 44.25
L 31 44 Z"/>
</g>
</defs>

<g transform="matrix( 1, 0, 0, 1, -33.5,-72.6) ">
<g transform="matrix( 1, 0, 0, 1, -2.2,23.85) ">
<g transform="matrix( 1, 0, 0, 1, 0,0) ">
<use xlink:href="#Parts_Sets_Gecko_geckoBodyStatic_0_Layer0_0_FILL"/>
</g>
</g>

<g transform="matrix( 1, 0, 0, 1, -19.5,8.25) ">
<g transform="matrix( 1, 0, 0, 1, 0,0) ">
<use xlink:href="#Parts_Sets_Gecko_geckoBodyOutline_0_Layer0_0_FILL"/>
</g>
</g>
</g>
</svg>
