
<svg xmlns="http://www.w3.org/2000/svg" version="1.1" xmlns:xlink="http://www.w3.org/1999/xlink" preserveAspectRatio="none" x="0px" y="0px" width="550px" height="400px" viewBox="0 0 550 400">
<defs>
<g id="Graphics_Symbol_627_0_Layer2_0_FILL">
<path fill="#000000" stroke="none" d="
M 71.05 40.65
Q 71.05 17.45 61.15 6.85 52.3 -2.65 39.4 1.25 26.55 5.1 17.65 19.8 7.75 36.15 7.75 58.7 7.75 60.6 8.25 61.45
L 8.7 62
Q 8.7 91.55 4.35 114.15 2.2 125.4 0 130.85 0 131.85 0.6 132.5 1.35 133.35 2.8 133.35 3.3 133.35 3.35 132.95 3.35 132.55 3.85 132.55
L 18.25 133 32.05 133.7 25.8 137.2 26.85 137.2
Q 28.35 136.5 34 134.65 39.3 132.65 40.9 130.6 45.45 124.55 47.85 118.65 50.8 111.4 50.8 103.65 50.8 79.2 60.95 61.15
L 67.9 49.85
Q 71.05 44.45 71.05 40.65
M 51.2 3.75
L 50.65 3.15
Q 56.6 4.75 61.8 11.85 69.6 22.6 69.6 40.75 69.6 43.3 66.35 48.85
L 59.2 60.15
Q 48.75 76.65 48.75 85.65 48.75 86.15 49.15 86.5 49.5 86.85 49.5 87.35 49.5 100.85 46.05 114.35 41.3 132.95 32.7 132.95
L 17.25 131.55
Q 7.9 130.2 4.95 129.05 10.65 117.3 15.3 100.75
L 19.05 85.5 19.25 84.75
Q 19.05 85.1 14.6 98.95 10.25 112.25 8.55 114.65 9.7 108.1 10.75 91.6
L 11.6 76.3
Q 9.75 57.15 9.75 54.3 9.75 29.7 22.6 14.3 27.6 8.3 33.7 4.9 39.15 1.9 43.55 1.9 46.8 1.9 48.85 5.75 52.95 13.25 56.1 17.05 54.85 12.4 53.15 7.85
L 51.2 3.75 Z"/>
</g>

<g id="Graphics_Symbol_627_0_Layer1_0_FILL">
<path fill="#000000" fill-opacity="0.25098039215686274" stroke="none" d="
M 68.8 46.65
Q 70.85 43.15 70.85 36.3 70.85 19.5 62.8 8.95 55 -1.3 45.1 0.95 35.15 3.2 31.35 5.65
L 26.8 8.25
Q 26 8.4 20.25 17.2 14.5 25.95 13 31.55 11.5 37.1 10.8 41.1 10.1 45.05 9.75 53.95 9.25 66.3 9.45 76.85 9.65 87.35 8.3 90 6.95 92.65 7.5 108.65 7.5 111.8 5.85 120.5
L 4.2 129.8
Q 4.2 131.8 10.75 132.5
L 27.65 134
Q 38 134.8 42.5 127.65 46.95 120.5 50.75 103.1 46.95 80.25 63.8 53.3 67.55 48.8 68.8 46.65
M 45.95 16.3
Q 55.25 16.3 61.45 24.65 66.3 31.15 66.3 36.3 66.3 45.5 61.6 50.9 58.45 54.55 51.25 57.95 43.15 61.8 40.9 63.7 36.2 67.7 36.2 74.45
L 36.6 79.15 37.25 88.85 31.55 88.4 24.95 87.65
Q 24.65 88.2 24.65 89.35 24.65 92.9 34.35 94.1
L 41 94.95
Q 44.05 95.55 44.05 96.65 44.05 98.55 42.6 98.8
L 37.95 98.9 38 99.65 37.95 103.8 35.05 103.85 29.8 103.35 24.3 102.8
Q 24.1 102.8 23.65 103.45 23.15 104.25 23.15 105.05 23.15 106.4 26.45 107.6
L 29.9 108.55 35.95 108.05 40.65 107.5
Q 41.9 107.5 42.6 108 43.2 108.45 43.2 109 43.2 111.65 36.8 111.6
L 21.2 111.05 20.9 111.1
Q 22.4 114.05 26.1 115.35
L 32.05 115.65 37.65 116.45
Q 39.95 116.75 39.95 118.45 39.95 120.3 37.6 120.7
L 31 120.9 27.4 120.45 26.75 119.95
Q 23.05 121.25 20.8 121.25
L 16.65 120.7
Q 21.45 102.75 21.45 99.65 21.45 89.7 19.35 80.4 17.2 71.1 17.2 63.95 17.2 47.75 26.55 32.1 36 16.3 45.95 16.3 Z"/>
</g>

<g id="Graphics_Symbol_627_0_Layer0_0_FILL">
<path fill="#FFFFFF" fill-opacity="0.25098039215686274" stroke="none" d="
M 27.35 118.45
Q 25 119.1 25 120.05 25 121 27.35 121.7
L 32.95 122.35 38.6 121.7
Q 40.9 121 40.9 120.05 40.9 119.1 38.6 118.45 36.25 117.75 32.95 117.75 29.65 117.75 27.35 118.45
M 43.95 109
Q 43.95 107.55 41.4 106.5 38.85 105.45 35.25 105.45 31.65 105.45 29.1 106.5 26.55 107.55 26.55 109 26.55 110.45 29.1 111.5 31.65 112.55 35.25 112.55 38.85 112.55 41.4 111.5 43.95 110.45 43.95 109
M 40.2 93.25
Q 37.75 92.1 34.3 92.1 30.85 92.1 28.45 93.25 26 94.4 26 96 26 97.6 28.45 98.75 30.85 99.9 34.3 99.9 37.75 99.9 40.2 98.75 42.6 97.6 42.6 96 42.6 94.4 40.2 93.25
M 59.75 40.2
Q 59.75 41.55 60.7 42.55 61.65 43.5 63 43.5 64.35 43.5 65.3 42.55 66.25 41.55 66.25 40.2 66.25 38.85 65.3 37.9 64.35 36.9 63 36.9 61.65 36.9 60.7 37.9 59.75 38.85 59.75 40.2
M 49.95 34.9
Q 49 32.3 46.8 32.3 43.85 32.3 39.7 35.6 34.8 39.5 34.8 44.1 34.8 46.45 36.25 47.8 37.5 48.95 39.25 48.95 47.8 48.95 50 40.65 50.8 37.4 49.95 34.9 Z"/>
</g>
</defs>

<g transform="matrix( 1, 0, 0, 1, -33.5,-72.6) ">
<g transform="matrix( 1, 0, 0, 1, 0,0) ">
<g transform="matrix( 1, 0, 0, 1, 0,0) ">
<use xlink:href="#Graphics_Symbol_627_0_Layer2_0_FILL"/>
</g>

<g transform="matrix( 1, 0, 0, 1, 0,0) ">
<use xlink:href="#Graphics_Symbol_627_0_Layer1_0_FILL"/>
</g>

<g transform="matrix( 1, 0, 0, 1, 0,0) ">
<use xlink:href="#Graphics_Symbol_627_0_Layer0_0_FILL"/>
</g>
</g>
</g>
</svg>
