
<svg xmlns="http://www.w3.org/2000/svg" version="1.1" xmlns:xlink="http://www.w3.org/1999/xlink" preserveAspectRatio="none" x="0px" y="0px" width="550px" height="400px" viewBox="0 0 550 400">
<defs>
<g id="Layer0_0_FILL">
<path fill="#000000" stroke="none" d="
M 26.05 63
Q 18.85 72.45 18.85 84.95 18.85 94.7 23.05 107.1 26.85 118.35 35.75 136.3 40.9 146.75 51.7 151.35 58.35 154.1 65.05 154.1 87.95 154.1 99.7 139.2 109.15 127.05 109.15 109.1 109.15 81.15 93.6 64.4 79.45 49.2 58.9 49.2 36.45 49.2 26.05 63
M 22.65 86.55
Q 22.65 72.6 30.6 63.5 39.45 53.2 55.5 53.2 77.05 53.2 91.2 68.05 105.1 82.55 105.1 103.75 105.1 124.5 93.95 137.45 83 150.25 66.15 150.25 46.7 150.35 33.1 123 28.25 113.15 25.25 101.8 22.65 92 22.65 86.55 Z"/>
</g>
</defs>

<g transform="matrix( 1, 0, 0, 1, 0,0) ">
<use xlink:href="#Layer0_0_FILL"/>
</g>
</svg>
