
<svg xmlns="http://www.w3.org/2000/svg" version="1.1" xmlns:xlink="http://www.w3.org/1999/xlink" preserveAspectRatio="none" x="0px" y="0px" width="550px" height="400px" viewBox="0 0 550 400">
<defs>
<g id="Layer0_0_FILL">
<path fill="#6F5B52" fill-opacity="0.5019607843137255" stroke="none" d="
M 50.1 36.2
L 51.5 38.85 54.95 36.55 57.65 40.75
Q 58.55 40.3 59.45 39.8 53.75 19.25 50.1 36.2 Z"/>

<path fill="#000000" fill-opacity="0.5019607843137255" stroke="none" d="
M 84.45 94.9
Q 84.9 74.55 84.7 55.2 84.5 35.85 83.4 21.95 82.3 8.05 79.8 2.4 69.8 -1.45 62.9 0.85
L 62.85 8.55
Q 60.6 34.1 59.75 59.8 59.1 80.4 65.15 95.7 71.8 112.5 69.8 135.55 67.65 160.55 67.35 185.9 67.1 202.55 71.4 217.2 74.25 226.85 73.7 237.2 72.3 260.75 63.35 280.05 58.35 290.85 54.5 319.4 86.4 322.35 114 303.85 112.4 297.65 111.15 291.2
L 92.2 192.1
Q 87.7 165.15 85.85 140.2 83.95 115.25 84.45 94.9 Z"/>
</g>
</defs>

<g transform="matrix( 1, 0, 0, 1, 0,0) ">
<use xlink:href="#Layer0_0_FILL"/>
</g>
</svg>
