
<svg xmlns="http://www.w3.org/2000/svg" version="1.1" xmlns:xlink="http://www.w3.org/1999/xlink" preserveAspectRatio="none" x="0px" y="0px" width="550px" height="400px" viewBox="0 0 550 400">
<defs>
<g id="Layer0_0_FILL">
<path fill="#000000" fill-opacity="0.5019607843137255" stroke="none" d="
M 33.7 257.65
L 33.6 257.25
Q 21.15 270.2 25.25 289.6 25.65 291.35 27.45 290.75
L 31.7 276.65
Q 34.45 267.2 33.7 257.65
M 61.75 118.1
L 62.45 115.75
Q 50.85 103.15 40.15 116.2
L 61.75 118.1
M 52.75 129
L 52.05 132.4 63.55 133.35
Q 59.05 125.25 52.75 129
M 69.85 132.7
L 71.35 133.3
Q 82.35 134.35 84 124 77.15 119.45 69.85 132.7
M 76.35 141.8
L 76.4 139.05
Q 67.2 140.25 58.7 146.65 67.85 148.05 76.35 141.8
M 47.85 93.5
L 48.05 96
Q 54.2 99.5 60.95 99.15
L 61.1 95.75 47.85 93.5
M 68.3 48
L 68.5 48.75 72.8 47.8 69.85 45.55 69.75 41.9 73.25 41.5
Q 68.05 33.6 68.3 48
M 65.9 40.9
L 64.7 39.85 59.05 44.8
Q 59.35 51.25 62.3 54.15
L 62.95 53.1
Q 66.4 47.85 65.9 40.9
M 81.05 92.05
L 81.85 91.1 81.8 88.95
Q 70.55 85.75 63.55 100.25 72.7 99.5 81.05 92.05 Z"/>
</g>
</defs>

<g transform="matrix( 1, 0, 0, 1, 0,0) ">
<use xlink:href="#Layer0_0_FILL"/>
</g>
</svg>
