
<svg xmlns="http://www.w3.org/2000/svg" version="1.1" xmlns:xlink="http://www.w3.org/1999/xlink" preserveAspectRatio="none" x="0px" y="0px" width="550px" height="400px" viewBox="0 0 550 400">
<defs>
<g id="Layer0_0_FILL">
<path fill="#FFFFFF" fill-opacity="0.3333333333333333" stroke="none" d="
M 130.15 112.85
L 132.7 111.2 111.65 113.35
Q 92.45 115.75 87.05 118.15
L 127.35 113.55
Q 129.55 113.3 130.15 112.85
M 63.3 111.8
Q 63.3 109.1 61.05 106.15
L 58.3 103.2
Q 55.9 99.25 53.1 101.9 50.4 104.45 50.4 109.45 50.4 111.6 50.7 113.25
L 52 119.7
Q 56.75 120 59.85 118.15 63.3 116.05 63.3 111.8
M 139.7 82.7
Q 139.6 81.9 139 81.4 125.95 87.4 104.7 92.5 78.2 98.9 67.25 102.65
L 69.3 102.55
Q 81.6 100.75 98.6 96.7 125.95 90.1 139.7 82.7 Z"/>

<path fill="#FFFFFF" fill-opacity="0.25098039215686274" stroke="none" d="
M 107.3 74.05
Q 106.25 73.1 104.65 73.1
L 95.9 74.4
Q 96.55 74.8 99.1 77.75 100.8 79.75 103.65 79.75 105.1 79.75 106.55 79 108.4 78.05 108.4 76.45 108.4 74.95 107.3 74.05 Z"/>
</g>
</defs>

<g transform="matrix( 1, 0, 0, 1, 0,0) ">
<use xlink:href="#Layer0_0_FILL"/>
</g>
</svg>
