
<svg xmlns="http://www.w3.org/2000/svg" version="1.1" xmlns:xlink="http://www.w3.org/1999/xlink" preserveAspectRatio="none" x="0px" y="0px" width="550px" height="400px" viewBox="0 0 550 400">
<defs>
<g id="Layer0_0_FILL">
<path fill="#000000" fill-opacity="0.3333333333333333" stroke="none" d="
M 90.2 78.35
Q 90.2 82.6 93.4 85.9 96.75 89.35 101.4 89.35 104.75 89.35 109.35 87.55 114.3 85.6 114.3 83.7 114.3 82.55 113.9 82.45
L 111 83.4
Q 108.4 84.2 105.7 84.2 100.35 84.2 96.65 81.25 93.25 77.7 91 76.6 91.05 77 90.6 77.4 90.2 77.85 90.2 78.35 Z"/>

<path fill="#000000" fill-opacity="0.5019607843137255" stroke="none" d="
M 112.9 65.35
Q 112.9 69.25 118.95 69.25 121.9 69.25 128.9 66.15 134.85 63.55 137.05 61.95
L 141.2 70.5
Q 142.15 72.7 142.15 74.7 142.15 76.85 140.4 80.1
L 138.65 83.2 138.85 84.25 139.15 84.85
Q 142.25 83.25 147.1 81.6 150.4 80.2 150.4 77.7 150.4 68.65 141.5 61.75 132.55 54.85 123.95 53.95 115.35 53.05 101.7 56.65
L 87.35 60.2 81.6 59.2
Q 80.9 59.05 79.15 62.75 77.35 66.45 70.6 66.85 63.85 67.2 61.45 71.05 60.4 72.7 58.2 74.95 58.05 76.5 57 76.5
L 56.55 76.5 50.4 81.65
Q 44 87.6 40.75 93.7 39.5 96 39.65 101.15 41 100.65 41.3 106.05 41.75 115.3 43.2 120.05
L 43.55 117.7
Q 45.8 122.55 48.25 124.5 50.75 126.45 54.75 126.45
L 74.05 123.4 76.7 123.3 81.6 125.8
Q 87.15 128.25 90.75 128.25 121.35 128.25 137.55 121.4 143.45 118.95 146.55 115.85 149.05 113.45 149.05 111.55 149.05 110.75 147.3 109.85
L 136.6 115.65 135 115.75 121.75 117.95
Q 94.05 122.45 90 122.45 84.3 122.45 76.7 118.7 69.35 115.15 68.05 115.25 68.1 116.8 69.85 118.45 71.35 119.85 73.7 120.95
L 57.05 122.45
Q 50.1 122.45 48.9 121.55
L 45.5 115.35
Q 44.45 113.45 44.45 112.75 44.45 106.8 49.8 97.3 55.65 87 60.9 87
L 71.9 88.75
Q 72.45 88.75 73.45 88.05 74.7 87.2 74.7 86.05 74.7 85.05 71.95 83.1 69.2 81.1 68.8 77.5 68.4 73.85 88.15 66.3 107.85 58.75 115.35 59.35
L 113.35 63.05
Q 112.9 63.75 112.9 65.35 Z"/>
</g>
</defs>

<g transform="matrix( 1, 0, 0, 1, 0,0) ">
<use xlink:href="#Layer0_0_FILL"/>
</g>
</svg>
