<?xml version='1.0' encoding='utf-8'?>
<svg xmlns="http://www.w3.org/2000/svg" xmlns:xlink="http://www.w3.org/1999/xlink" version="1.1" width="550px" height="400px" viewBox="0 0 550 400" preserveAspectRatio="none" data-xfl-root="Components/Component Assets/ButtonSkins/Button_upSkin">
  <g data-xfl-symbol="Components/Component Assets/ButtonSkins/Button_upSkin">
    <g data-svg-leaf="components_component_assets_buttonskins_button_upskin_2211b80242/t00_l002_f0000_r00.svg">
      <defs>
        <linearGradient id="xfl1_Gradient_1" gradientUnits="userSpaceOnUse" x1="11.05" y1="22" x2="11.05" y2="0" spreadMethod="pad">
          <stop offset="0%" stop-color="#585F63" />
          <stop offset="100%" stop-color="#B7BABC" />
        </linearGradient>
        <linearGradient id="xfl1_Gradient_2" gradientUnits="userSpaceOnUse" x1="71" y1="22" x2="71" y2="0" spreadMethod="pad">
          <stop offset="0%" stop-color="#585F63" />
          <stop offset="100%" stop-color="#B7BABC" />
        </linearGradient>
        <g id="xfl1_Layer0_0_FILL">
          <path fill="url(#xfl1_Gradient_1)" stroke="none" d=" M 41 1 L 41 0 4.05 0 Q 0 0 0 4 L 0 18 Q 0 22 4.05 22 L 41 22 41 21 3.9 21 Q 1 20.95 1 18 L 1 4 Q 1 1.05 3.9 1 L 41 1 Z" />
          <path fill="url(#xfl1_Gradient_2)" stroke="none" d=" M 82 18 L 82 4 Q 82 0 78 0 L 41 0 41 1 78.15 1 Q 81 1.05 81 4 L 81 18 Q 81 20.95 78.15 21 L 41 21 41 22 78 22 Q 82 22 82 18 Z" />
        </g>
      </defs>
      <g transform="matrix( 1, 0, 0, 1, 0,0) ">
        <use xlink:href="#xfl1_Layer0_0_FILL" />
      </g>
    </g>
    <g data-svg-leaf="components_component_assets_buttonskins_button_upskin_2211b80242/t00_l001_f0000_r00.svg">
      <defs>
        <linearGradient id="xfl2_Gradient_1" gradientUnits="userSpaceOnUse" x1="11.05" y1="22" x2="11.05" y2="0" spreadMethod="pad">
          <stop offset="0%" stop-color="#CCCCCC" stop-opacity="0.4" />
          <stop offset="100%" stop-color="#FFFFFF" stop-opacity="0.6" />
        </linearGradient>
        <linearGradient id="xfl2_Gradient_2" gradientUnits="userSpaceOnUse" x1="71" y1="22" x2="71" y2="0" spreadMethod="pad">
          <stop offset="0%" stop-color="#CCCCCC" stop-opacity="0.4" />
          <stop offset="100%" stop-color="#FFFFFF" stop-opacity="0.6" />
        </linearGradient>
        <g id="xfl2_Layer0_0_FILL">
          <path fill="url(#xfl2_Gradient_1)" stroke="none" d=" M 41.05 21 L 41.05 1 3.9 1 Q 1.0240234375 1.06328125 1 4 L 1 18 Q 1.0240234375 20.93671875 3.9 21 L 41.05 21 Z" />
          <path fill="url(#xfl2_Gradient_2)" stroke="none" d=" M 81 18 L 81 4 Q 81.02578125 1.06328125 78.15 1 L 41.05 1 41.05 21 78.15 21 Q 81.02578125 20.93671875 81 18 Z" />
        </g>
      </defs>
      <g transform="matrix( 1, 0, 0, 1, 0,0) ">
        <use xlink:href="#xfl2_Layer0_0_FILL" />
      </g>
    </g>
    <g data-svg-leaf="components_component_assets_buttonskins_button_upskin_2211b80242/t00_l000_f0000_r00.svg">
      <defs>
        <linearGradient id="xfl3_Gradient_1" gradientUnits="userSpaceOnUse" x1="61.55" y1="12" x2="61.55" y2="1.5" spreadMethod="pad">
          <stop offset="0%" stop-color="#CCCCCC" stop-opacity="0" />
          <stop offset="100%" stop-color="#FFFFFF" stop-opacity="0.2980392156862745" />
        </linearGradient>
        <linearGradient id="xfl3_Gradient_2" gradientUnits="userSpaceOnUse" x1="80.5" y1="8" x2="80.5" y2="1.5" spreadMethod="pad">
          <stop offset="0%" stop-color="#CCCCCC" stop-opacity="0" />
          <stop offset="100%" stop-color="#FFFFFF" stop-opacity="0.2980392156862745" />
        </linearGradient>
        <g id="xfl3_Layer0_0_FILL">
          <path fill="url(#xfl3_Gradient_1)" stroke="none" d=" M 41 12 L 41 1 4 1 Q 0.9990234375 0.9974609375 1 3.95 L 1 12 41 12 Z" />
          <path fill="url(#xfl3_Gradient_2)" stroke="none" d=" M 81 12 L 81 3.95 Q 81.00078125 0.9974609375 78 1 L 41 1 41 12 81 12 Z" />
        </g>
      </defs>
      <g transform="matrix( 1, 0, 0, 1, 0,0) ">
        <use xlink:href="#xfl3_Layer0_0_FILL" />
      </g>
    </g>
  </g>
</svg>