<?xml version='1.0' encoding='utf-8'?>
<svg xmlns="http://www.w3.org/2000/svg" xmlns:xlink="http://www.w3.org/1999/xlink" version="1.1" width="550px" height="400px" viewBox="0 0 550 400" preserveAspectRatio="none" data-xfl-root="Components/Component Assets/ButtonSkins/Button_emphasizedSkin">
  <g data-xfl-symbol="Components/Component Assets/ButtonSkins/Button_emphasizedSkin">
    <g data-svg-leaf="components_component_assets_buttonskins_button_emphasizedskin_89bb21fc64/t00_l001_f0000_r00.svg">
      <defs>
        <linearGradient id="xfl1_Gradient_1" gradientUnits="userSpaceOnUse" x1="41.037499999999994" y1="0.1999999999999993" x2="41.0625" y2="21.8" spreadMethod="pad">
          <stop offset="0%" stop-color="#2C92F5" />
          <stop offset="100%" stop-color="#3D00CC" />
        </linearGradient>
        <g id="xfl1_Layer0_0_FILL">
          <path fill="url(#xfl1_Gradient_1)" stroke="none" d=" M 82 18 L 82 4 Q 82.026171875 0 78 0 L 4 0 Q 0.023828125 0 0 4 L 0 18 Q 0.023828125 22 4 22 L 78 22 Q 82.026171875 22 82 18 M 81 4 L 81 18 Q 81.02578125 20.93671875 78.15 21 L 3.9 21 Q 1.0240234375 20.93671875 1 18 L 1 4 Q 1.0240234375 1.06328125 3.9 1 L 78.15 1 Q 81.02578125 1.06328125 81 4 Z" />
        </g>
      </defs>
      <g transform="matrix( 1, 0, 0, 1, 0,0) ">
        <use xlink:href="#xfl1_Layer0_0_FILL" />
      </g>
    </g>
    <g data-svg-leaf="components_component_assets_buttonskins_button_emphasizedskin_89bb21fc64/t00_l000_f0000_r00.svg">
      <defs>
        <g id="xfl2_Layer0_0_FILL">
          <path fill="#FFFFFF" fill-opacity="0" stroke="none" d=" M 81.05 18 L 81.05 4 Q 81.05 1 78.05 1 L 4 1 Q 1 1 1 4 L 1 18 Q 1 21 4 21 L 78.05 21 Q 81.05 21 81.05 18 Z" />
        </g>
      </defs>
      <g transform="matrix( 1, 0, 0, 1, 0,0) ">
        <use xlink:href="#xfl2_Layer0_0_FILL" />
      </g>
    </g>
  </g>
</svg>