<?xml version='1.0' encoding='utf-8'?>
<svg xmlns="http://www.w3.org/2000/svg" xmlns:xlink="http://www.w3.org/1999/xlink" version="1.1" width="550px" height="400px" viewBox="0 0 550 400" preserveAspectRatio="none" data-xfl-root="Components/Component Assets/CellRendererSkins/CellRenderer_upSkin">
  <g data-xfl-symbol="Components/Component Assets/CellRendererSkins/CellRenderer_upSkin">
    <g data-svg-leaf="components_component_assets_cellrendererskins_cellrenderer_upski_5bfd948812/t00_l001_f0000_r00.svg">
      <defs>
        <g id="xfl1_Layer0_0_FILL">
          <path fill="#FFFFFF" stroke="none" d=" M 151.95 22 L 151.95 0 -0.05 0 -0.05 22 151.95 22 Z" />
        </g>
      </defs>
      <g transform="matrix( 1, 0, 0, 1, 0,0) ">
        <use xlink:href="#xfl1_Layer0_0_FILL" />
      </g>
    </g>
    <g data-svg-leaf="components_component_assets_cellrendererskins_cellrenderer_upski_5bfd948812/t00_l000_f0000_r00.svg">
      <defs>
        <linearGradient id="xfl2_Gradient_1" gradientUnits="userSpaceOnUse" x1="143.5" y1="1.0999999999999996" x2="143.5" y2="14" spreadMethod="pad">
          <stop offset="0%" stop-color="#5B5D5E" />
          <stop offset="100%" stop-color="#B7BABC" />
        </linearGradient>
        <g id="xfl2_Layer0_0_FILL">
          <path fill="#B7BABC" stroke="none" d=" M 0 20.75 L 1 20.75 1 1 0 1 0 20.75 M 151 20.75 L 152 20.75 152 1 151 1 151 20.75 Z" />
          <path fill="url(#xfl2_Gradient_1)" stroke="none" d=" M 151 1 L 152 1 152 0 0 0 0 1 1 1 151 1 M 151 20.75 L 151 21 1 21 1 20.75 0 20.75 0 22 152 22 152 20.75 151 20.75 Z" />
        </g>
      </defs>
      <g transform="matrix( 1, 0, 0, 1, 0,0) ">
        <use xlink:href="#xfl2_Layer0_0_FILL" />
      </g>
    </g>
  </g>
</svg>