<?xml version='1.0' encoding='utf-8'?>
<svg xmlns="http://www.w3.org/2000/svg" xmlns:xlink="http://www.w3.org/1999/xlink" version="1.1" width="550px" height="400px" viewBox="0 0 550 400" preserveAspectRatio="none" data-xfl-root="Components/Component Assets/CheckBoxSkins/CheckBox_disabledIcon">
  <g data-xfl-symbol="Components/Component Assets/CheckBoxSkins/CheckBox_disabledIcon">
    <g data-svg-leaf="components_component_assets_checkboxskins_checkbox_disabledicon_86924d41ea/t00_l002_f0000_r00.svg">
      <defs>
        <linearGradient id="xfl1_Gradient_1" gradientUnits="userSpaceOnUse" x1="8.5" y1="12.9" x2="8.5" y2="0" spreadMethod="pad">
          <stop offset="0%" stop-color="#5B5D5E" stop-opacity="0.2980392156862745" />
          <stop offset="100%" stop-color="#B7BABC" stop-opacity="0.2980392156862745" />
        </linearGradient>
        <linearGradient id="xfl1_Gradient_2" gradientUnits="userSpaceOnUse" x1="6" y1="13.9625" x2="6" y2="0.33750000000000036" spreadMethod="pad">
          <stop offset="0%" stop-color="#CCCCCC" stop-opacity="0.2" />
          <stop offset="100%" stop-color="#FFFFFF" stop-opacity="0.2980392156862745" />
        </linearGradient>
        <g id="xfl1_Layer0_0_FILL">
          <path fill="url(#xfl1_Gradient_1)" stroke="none" d=" M 0 14 L 14 14 14 0 0 0 0 14 M 13 1 L 13 13 1 13 1 1 13 1 Z" />
        </g>
        <g id="xfl1_Layer0_1_FILL">
          <path fill="url(#xfl1_Gradient_2)" stroke="none" d=" M 1 13 L 13 13 13 1 1 1 1 13 Z" />
        </g>
      </defs>
      <g transform="matrix( 1, 0, 0, 1, 0,0) ">
        <use xlink:href="#xfl1_Layer0_0_FILL" />
      </g>
      <g transform="matrix( 1, 0, 0, 1, 0,0) ">
        <use xlink:href="#xfl1_Layer0_1_FILL" />
      </g>
    </g>
    <g data-svg-leaf="components_component_assets_checkboxskins_checkbox_disabledicon_86924d41ea/t00_l001_f0000_r00.svg">
      <defs>
        <linearGradient id="xfl2_Gradient_1" gradientUnits="userSpaceOnUse" x1="6" y1="13.9625" x2="6" y2="0.33750000000000036" spreadMethod="pad">
          <stop offset="0%" stop-color="#CCCCCC" stop-opacity="0.2" />
          <stop offset="100%" stop-color="#FFFFFF" stop-opacity="0.2980392156862745" />
        </linearGradient>
        <g id="xfl2_Layer0_0_FILL">
          <path fill="url(#xfl2_Gradient_1)" stroke="none" d=" M 13 13 L 13 1 1 1 1 13 13 13 Z" />
        </g>
      </defs>
      <g transform="matrix( 1, 0, 0, 1, 0,0) ">
        <use xlink:href="#xfl2_Layer0_0_FILL" />
      </g>
    </g>
    <g data-svg-leaf="components_component_assets_checkboxskins_checkbox_disabledicon_86924d41ea/t00_l000_f0000_r00.svg">
      <defs>
        <linearGradient id="xfl3_Gradient_1" gradientUnits="userSpaceOnUse" x1="6" y1="7.699999999999999" x2="6" y2="0.9999999999999996" spreadMethod="pad">
          <stop offset="0%" stop-color="#EEEEEE" stop-opacity="0" />
          <stop offset="100%" stop-color="#FFFFFF" stop-opacity="0.2980392156862745" />
        </linearGradient>
        <g id="xfl3_Layer0_0_FILL">
          <path fill="url(#xfl3_Gradient_1)" stroke="none" d=" M 1 7.5 L 13 7.5 13 1 1 1 1 7.5 Z" />
        </g>
      </defs>
      <g transform="matrix( 1, 0, 0, 1, 0,0) ">
        <use xlink:href="#xfl3_Layer0_0_FILL" />
      </g>
    </g>
  </g>
</svg>