<?xml version='1.0' encoding='utf-8'?>
<svg xmlns="http://www.w3.org/2000/svg" xmlns:xlink="http://www.w3.org/1999/xlink" version="1.1" width="550px" height="400px" viewBox="0 0 550 400" preserveAspectRatio="none" data-xfl-root="Components/Component Assets/ComboBoxSkins/ComboBox_upSkin">
  <g data-xfl-symbol="Components/Component Assets/ComboBoxSkins/ComboBox_upSkin">
    <g data-svg-leaf="components_component_assets_comboboxskins_combobox_upskin_3ecce3ff7f/t00_l003_f0000_r00.svg">
      <defs>
        <linearGradient id="xfl1_Gradient_1" gradientUnits="userSpaceOnUse" x1="137" y1="22" x2="137" y2="0" spreadMethod="pad">
          <stop offset="0%" stop-color="#585F63" />
          <stop offset="100%" stop-color="#B7BABC" />
        </linearGradient>
        <linearGradient id="xfl1_Gradient_2" gradientUnits="userSpaceOnUse" x1="125.65" y1="30.95" x2="125.65" y2="0.9499999999999993" spreadMethod="pad">
          <stop offset="0%" stop-color="#585F63" />
          <stop offset="100%" stop-color="#B7BABC" />
        </linearGradient>
        <g id="xfl1_Layer0_0_FILL">
          <path fill="url(#xfl1_Gradient_1)" stroke="none" d=" M 148 4 Q 148 0 144 0 L 4 0 Q 0 0 0 4 L 0 18 Q 0 22 4 22 L 144 22 Q 148 22 148 18 L 148 4 M 144.15 1 Q 147 1.05 147 4 L 147 18 Q 147 20.95 144.15 21 L 126 21 125 21 3.9 21 Q 1 20.95 1 18 L 1 4 Q 1 1.05 3.9 1 L 125 1 126 1 144.15 1 Z" />
          <path fill="url(#xfl1_Gradient_2)" stroke="none" d=" M 125 1 L 125 21 126 21 126 1 125 1 Z" />
        </g>
      </defs>
      <g transform="matrix( 1, 0, 0, 1, 0,0) ">
        <use xlink:href="#xfl1_Layer0_0_FILL" />
      </g>
    </g>
    <g data-svg-leaf="components_component_assets_comboboxskins_combobox_upskin_3ecce3ff7f/t00_l002_f0000_r00.svg">
      <defs>
        <linearGradient id="xfl2_Gradient_1" gradientUnits="userSpaceOnUse" x1="11" y1="22" x2="11" y2="0" spreadMethod="pad">
          <stop offset="0%" stop-color="#CCCCCC" stop-opacity="0.4" />
          <stop offset="100%" stop-color="#FFFFFF" stop-opacity="0.6" />
        </linearGradient>
        <g id="xfl2_Layer0_0_FILL">
          <path fill="url(#xfl2_Gradient_1)" stroke="none" d=" M 147 18 L 147 4 Q 147 1.05 144.15 1 L 3.9 1 Q 1 1.05 1 4 L 1 18 Q 1 20.95 3.9 21 L 144.15 21 Q 147 20.95 147 18 Z" />
        </g>
      </defs>
      <g transform="matrix( 1, 0, 0, 1, 0,0) ">
        <use xlink:href="#xfl2_Layer0_0_FILL" />
      </g>
    </g>
    <g data-svg-leaf="components_component_assets_comboboxskins_combobox_upskin_3ecce3ff7f/t00_l001_f0000_r00.svg">
      <defs>
        <linearGradient id="xfl3_Gradient_1" gradientUnits="userSpaceOnUse" x1="61.5" y1="12" x2="61.5" y2="1.5" spreadMethod="pad">
          <stop offset="0%" stop-color="#CCCCCC" stop-opacity="0" />
          <stop offset="100%" stop-color="#FFFFFF" stop-opacity="0.2980392156862745" />
        </linearGradient>
        <g id="xfl3_Layer0_0_FILL">
          <path fill="url(#xfl3_Gradient_1)" stroke="none" d=" M 147 4 Q 146.95 1 144 1 L 4 1 Q 1 1 1 4 L 1 12 147 12 147 4 Z" />
        </g>
      </defs>
      <g transform="matrix( 1, 0, 0, 1, 0,0) ">
        <use xlink:href="#xfl3_Layer0_0_FILL" />
      </g>
    </g>
    <g data-svg-leaf="components_component_assets_comboboxskins_combobox_upskin_3ecce3ff7f/t00_l000_f0000_r00.svg">
      <defs>
        <g id="xfl4_Layer0_0_FILL">
          <path fill="#000000" stroke="none" d=" M 134 12 L 135 12 135 13 136 13 136 12 137 12 137 11 138 11 138 10 139 10 139 9 132 9 132 10 133 10 133 11 134 11 134 12 Z" />
        </g>
      </defs>
      <g transform="matrix( 1, 0, 0, 1, 0,0) ">
        <use xlink:href="#xfl4_Layer0_0_FILL" />
      </g>
    </g>
  </g>
</svg>