<?xml version='1.0' encoding='utf-8'?>
<svg xmlns="http://www.w3.org/2000/svg" xmlns:xlink="http://www.w3.org/1999/xlink" version="1.1" width="550px" height="400px" viewBox="0 0 550 400" preserveAspectRatio="none" data-xfl-root="UI/Global/ProgressBar">
  <g data-xfl-symbol="UI/Global/ProgressBar">
    <g data-svg-leaf="ui_global_progressbar_1ab3bd1cbe/t00_l001_f0000_r00.svg">
      <defs>
        <path id="xfl1_Layer0_0_1_STROKES" stroke="#FFFFFF" stroke-width="0" stroke-linejoin="round" stroke-linecap="round" fill="none" d=" M 3 0 L 197 0 Q 200 0 200 3 L 200 6 Q 200 9 197 9 L 3 9 Q 0 9 0 6 L 0 3 Q 0 0 3 0 Z" />
      </defs>
      <g transform="matrix( 1, 0, 0, 1, 0,0) ">
        <use xlink:href="#xfl1_Layer0_0_1_STROKES" />
      </g>
    </g>
    <g transform="matrix(1 0 0 0.0599975586 2 2)" data-xfl-instance="bar">
      <g data-xfl-symbol="MovieClips/Symbol 1073">
        <g data-svg-leaf="movieclips_symbol_1073_9bb0a48e28/t00_l000_f0000_r00.svg">
          <defs>
            <g id="xfl2_Layer0_0_FILL">
              <path fill="#FFFFFF" stroke="none" d=" M 100 3 Q 100 0 97 0 L 3 0 Q 0 0 0 3 L 0 97 Q 0 100 3 100 L 97 100 Q 100 100 100 97 L 100 3 Z" />
            </g>
          </defs>
          <g transform="matrix( 1, 0, 0, 1, 0,0) ">
            <use xlink:href="#xfl2_Layer0_0_FILL" />
          </g>
        </g>
      </g>
    </g>
  </g>
</svg>