<?xml version='1.0' encoding='utf-8'?>
<svg xmlns="http://www.w3.org/2000/svg" xmlns:xlink="http://www.w3.org/1999/xlink" version="1.1" width="550px" height="400px" viewBox="0 0 550 400" preserveAspectRatio="none" data-xfl-root="MovieClips/Symbol 1065">
  <g data-xfl-symbol="MovieClips/Symbol 1065">
    <g transform="matrix(1 0 0 1 5.5 5.35)">
      <g data-xfl-symbol="MovieClips/Symbol 590">
        <g data-svg-leaf="movieclips_symbol_590_f43d8c885d/t00_l000_f0000_r00.svg">
          <defs>
            <g id="xfl1_Layer0_0_FILL">
              <path fill="#000000" stroke="none" d=" M 5.5 -1.25 L 5.5 -1.3 1.05 -0.95 1.05 -1 -0.05 -5.35 -1.1 -1 -5.5 -1.25 -5.5 -1.2 -1.95 1.1 -3.55 5.3 -0.1 2.45 -0.05 2.5 3.4 5.35 1.7 1.2 5.5 -1.25 Z" />
            </g>
          </defs>
          <g transform="matrix( 1, 0, 0, 1, 0,0) ">
            <use xlink:href="#xfl1_Layer0_0_FILL" />
          </g>
        </g>
      </g>
    </g>
    <g transform="matrix(1 0 0 1 16.55 5.35)">
      <g data-xfl-symbol="MovieClips/Symbol 590">
        <g data-svg-leaf="movieclips_symbol_590_f43d8c885d/t00_l000_f0000_r00.svg">
          <defs>
            <g id="xfl2_Layer0_0_FILL">
              <path fill="#000000" stroke="none" d=" M 5.5 -1.25 L 5.5 -1.3 1.05 -0.95 1.05 -1 -0.05 -5.35 -1.1 -1 -5.5 -1.25 -5.5 -1.2 -1.95 1.1 -3.55 5.3 -0.1 2.45 -0.05 2.5 3.4 5.35 1.7 1.2 5.5 -1.25 Z" />
            </g>
          </defs>
          <g transform="matrix( 1, 0, 0, 1, 0,0) ">
            <use xlink:href="#xfl2_Layer0_0_FILL" />
          </g>
        </g>
      </g>
    </g>
    <g transform="matrix(1 0 0 1 27.6 5.35)">
      <g data-xfl-symbol="MovieClips/Symbol 590">
        <g data-svg-leaf="movieclips_symbol_590_f43d8c885d/t00_l000_f0000_r00.svg">
          <defs>
            <g id="xfl3_Layer0_0_FILL">
              <path fill="#000000" stroke="none" d=" M 5.5 -1.25 L 5.5 -1.3 1.05 -0.95 1.05 -1 -0.05 -5.35 -1.1 -1 -5.5 -1.25 -5.5 -1.2 -1.95 1.1 -3.55 5.3 -0.1 2.45 -0.05 2.5 3.4 5.35 1.7 1.2 5.5 -1.25 Z" />
            </g>
          </defs>
          <g transform="matrix( 1, 0, 0, 1, 0,0) ">
            <use xlink:href="#xfl3_Layer0_0_FILL" />
          </g>
        </g>
      </g>
    </g>
    <g transform="matrix(1 0 0 1 38.65 5.35)">
      <g data-xfl-symbol="MovieClips/Symbol 590">
        <g data-svg-leaf="movieclips_symbol_590_f43d8c885d/t00_l000_f0000_r00.svg">
          <defs>
            <g id="xfl4_Layer0_0_FILL">
              <path fill="#000000" stroke="none" d=" M 5.5 -1.25 L 5.5 -1.3 1.05 -0.95 1.05 -1 -0.05 -5.35 -1.1 -1 -5.5 -1.25 -5.5 -1.2 -1.95 1.1 -3.55 5.3 -0.1 2.45 -0.05 2.5 3.4 5.35 1.7 1.2 5.5 -1.25 Z" />
            </g>
          </defs>
          <g transform="matrix( 1, 0, 0, 1, 0,0) ">
            <use xlink:href="#xfl4_Layer0_0_FILL" />
          </g>
        </g>
      </g>
    </g>
    <g transform="matrix(1 0 0 1 49.7 5.35)">
      <g data-xfl-symbol="MovieClips/Symbol 590">
        <g data-svg-leaf="movieclips_symbol_590_f43d8c885d/t00_l000_f0000_r00.svg">
          <defs>
            <g id="xfl5_Layer0_0_FILL">
              <path fill="#000000" stroke="none" d=" M 5.5 -1.25 L 5.5 -1.3 1.05 -0.95 1.05 -1 -0.05 -5.35 -1.1 -1 -5.5 -1.25 -5.5 -1.2 -1.95 1.1 -3.55 5.3 -0.1 2.45 -0.05 2.5 3.4 5.35 1.7 1.2 5.5 -1.25 Z" />
            </g>
          </defs>
          <g transform="matrix( 1, 0, 0, 1, 0,0) ">
            <use xlink:href="#xfl5_Layer0_0_FILL" />
          </g>
        </g>
      </g>
    </g>
  </g>
</svg>