<?xml version='1.0' encoding='utf-8'?>
<svg xmlns="http://www.w3.org/2000/svg" xmlns:xlink="http://www.w3.org/1999/xlink" version="1.1" width="550px" height="400px" viewBox="0 0 550 400" preserveAspectRatio="none" data-xfl-root="Buttons/reloadButton">
  <g data-xfl-symbol="Buttons/reloadButton">
    <g transform="matrix(0.9999847412 0 0 0.9999847412 -8 -8)">
      <g data-xfl-symbol="MovieClips/Symbol 1317">
        <g data-svg-leaf="movieclips_symbol_1317_6df1c05aab/t00_l000_f0000_r00.svg">
          <defs>
            <linearGradient id="xfl1_Gradient_1" gradientUnits="userSpaceOnUse" x1="8" y1="0" x2="8" y2="16" spreadMethod="pad">
              <stop offset="0%" stop-color="#999999" />
              <stop offset="100%" stop-color="#333333" />
            </linearGradient>
            <g id="xfl1_Layer0_0_FILL">
              <path fill="#FFFFFF" stroke="none" d=" M 16 8 Q 16 4.7 13.65 2.3 11.3 0 8 0 4.7 0 2.3 2.3 0 4.7 0 8 0 11.3 2.3 13.65 4.7 16 8 16 11.3 16 13.65 13.65 16 11.3 16 8 Z" />
            </g>
            <path id="xfl1_Layer0_0_1_STROKES" stroke="url(#xfl1_Gradient_1)" stroke-width="0" stroke-linejoin="round" stroke-linecap="round" fill="none" d=" M 13.65 2.3 Q 16 4.7 16 8 16 11.3 13.65 13.65 11.3 16 8 16 4.7 16 2.3 13.65 0 11.3 0 8 0 4.7 2.3 2.3 4.7 0 8 0 11.3 0 13.65 2.3 Z" />
          </defs>
          <g transform="matrix( 1, 0, 0, 1, 0,0) ">
            <use xlink:href="#xfl1_Layer0_0_FILL" />
            <use xlink:href="#xfl1_Layer0_0_1_STROKES" />
          </g>
        </g>
      </g>
    </g>
    <g data-svg-leaf="buttons_reloadbutton_317cb49104/t00_l000_f0000_r00.svg">
      <defs>
        <g id="xfl2_Layer0_0_MEMBER_0_FILL">
          <path fill="#00CCFF" stroke="none" d=" M 5 -4.15 Q 5 -4.45 4.75 -4.55 4.5 -4.65 4.3 -4.45 L 3.45 -3.6 Q 2.75 -4.3 1.85 -4.65 0.95 -5 0 -5 -1 -5 -1.95 -4.6 -2.85 -4.2 -3.55 -3.55 -4.2 -2.85 -4.6 -1.95 -5 -1 -5 0 -5 1 -4.6 1.95 -4.2 2.9 -3.55 3.55 -2.85 4.2 -1.95 4.6 -1 5 0 5 1.15 5 2.15 4.55 3.15 4.05 3.85 3.2 3.9 3.15 3.9 3.05 3.9 3 3.85 2.95 L 2.95 2.05 Q 2.9 1.95 2.8 1.95 2.7 2 2.65 2.05 2.15 2.65 1.5 3 0.8 3.35 0 3.35 -0.65 3.35 -1.3 3.1 -1.9 2.8 -2.35 2.35 -2.8 1.9 -3.05 1.3 -3.35 0.7 -3.35 0 -3.35 -0.65 -3.05 -1.3 -2.8 -1.9 -2.35 -2.35 -1.9 -2.8 -1.3 -3.05 -0.65 -3.35 0 -3.35 1.3 -3.35 2.3 -2.45 L 1.4 -1.55 Q 1.2 -1.35 1.3 -1.1 1.4 -0.85 1.7 -0.85 L 4.6 -0.85 Q 4.75 -0.85 4.9 -0.95 5 -1.05 5 -1.25 L 5 -4.15 Z" />
        </g>
      </defs>
      <g transform="matrix( 0.9999847412109375, 0, 0, 0.9999847412109375, 0,-0.1) ">
        <use xlink:href="#xfl2_Layer0_0_MEMBER_0_FILL" />
      </g>
    </g>
  </g>
</svg>