<?xml version='1.0' encoding='utf-8'?>
<svg xmlns="http://www.w3.org/2000/svg" xmlns:xlink="http://www.w3.org/1999/xlink" version="1.1" width="550px" height="400px" viewBox="0 0 550 400" preserveAspectRatio="none" data-xfl-root="Components/Component Assets/ScrollBarSkins/ScrollThumb_overSkin">
  <g data-xfl-symbol="Components/Component Assets/ScrollBarSkins/ScrollThumb_overSkin">
    <g data-svg-leaf="components_component_assets_scrollbarskins_scrollthumb_overskin_81237085ba/t00_l000_f0000_r00.svg">
      <defs>
        <linearGradient id="xfl1_Gradient_1" gradientUnits="userSpaceOnUse" x1="32.85" y1="42" x2="32.85" y2="20" spreadMethod="pad">
          <stop offset="0%" stop-color="#E6E6E6" />
          <stop offset="100%" stop-color="#FFFFFF" />
        </linearGradient>
        <linearGradient id="xfl1_Gradient_2" gradientUnits="userSpaceOnUse" x1="2" y1="52" x2="2" y2="30" spreadMethod="pad">
          <stop offset="0%" stop-color="#0075BF" />
          <stop offset="99.2156862745098%" stop-color="#009DFF" />
        </linearGradient>
        <linearGradient id="xfl1_Gradient_3" gradientUnits="userSpaceOnUse" x1="2" y1="52.25" x2="2" y2="30.25" spreadMethod="pad">
          <stop offset="0%" stop-color="#0075BF" />
          <stop offset="99.2156862745098%" stop-color="#009DFF" />
        </linearGradient>
        <g id="xfl1_Layer0_0_FILL">
          <path fill="url(#xfl1_Gradient_1)" stroke="none" d=" M 12 47.95 L 12 4 Q 12 1.05 9.15 1 L 1 1 1 51 9.15 51 Q 12 50.9 12 47.95 Z" />
        </g>
        <g id="xfl1_Layer0_1_FILL">
          <path fill="url(#xfl1_Gradient_2)" stroke="none" d=" M 13 48 L 13 46.35 12 46.35 12 48 Q 12 50.95 9.15 51 L 1 51 1 52 9 52 Q 13 52 13 48 Z" />
          <path fill="url(#xfl1_Gradient_3)" stroke="none" d=" M 13 4 Q 13 0 9 0 L 1 0 1 1 9.15 1 Q 12 1.1 12 4 L 12 46.35 13 46.35 13 4 Z" />
        </g>
        <g id="xfl1_Layer0_2_FILL">
          <path fill="#FF0000" fill-opacity="0" stroke="none" d=" M 16 0 L 13 0 13 52 16 52 16 0 Z" />
        </g>
      </defs>
      <g transform="matrix( 1, 0, 0, 1, 0,0) ">
        <use xlink:href="#xfl1_Layer0_0_FILL" />
      </g>
      <g transform="matrix( 1, 0, 0, 1, 0,0) ">
        <use xlink:href="#xfl1_Layer0_1_FILL" />
      </g>
      <g transform="matrix( 1, 0, 0, 1, 0,0) ">
        <use xlink:href="#xfl1_Layer0_2_FILL" />
      </g>
    </g>
  </g>
</svg>