<?xml version='1.0' encoding='utf-8'?>
<svg xmlns="http://www.w3.org/2000/svg" xmlns:xlink="http://www.w3.org/1999/xlink" version="1.1" width="550px" height="400px" viewBox="0 0 550 400" preserveAspectRatio="none" data-xfl-root="Components/Component Assets/ScrollBarSkins/ScrollArrowUp_disabledSkin">
  <g data-xfl-symbol="Components/Component Assets/ScrollBarSkins/ScrollArrowUp_disabledSkin">
    <g data-svg-leaf="components_component_assets_scrollbarskins_scrollarrowup_disable_1d8f2f02fd/t00_l000_f0000_r00.svg">
      <defs>
        <linearGradient id="xfl1_Gradient_1" gradientUnits="userSpaceOnUse" x1="6" y1="13.9625" x2="6" y2="0.33750000000000036" spreadMethod="pad">
          <stop offset="0%" stop-color="#E6E6E6" />
          <stop offset="100%" stop-color="#FFFFFF" />
        </linearGradient>
        <linearGradient id="xfl1_Gradient_2" gradientUnits="userSpaceOnUse" x1="8.5" y1="12.9" x2="8.5" y2="0" spreadMethod="pad">
          <stop offset="0%" stop-color="#5B5D5E" stop-opacity="0.2980392156862745" />
          <stop offset="100%" stop-color="#B7BABC" stop-opacity="0.2980392156862745" />
        </linearGradient>
        <linearGradient id="xfl1_Gradient_3" gradientUnits="userSpaceOnUse" x1="6.45" y1="7.449999999999999" x2="6.45" y2="0.7499999999999996" spreadMethod="pad">
          <stop offset="0%" stop-color="#EEEEEE" stop-opacity="0" />
          <stop offset="100%" stop-color="#FFFFFF" stop-opacity="0.2980392156862745" />
        </linearGradient>
        <g id="xfl1_Layer0_0_MEMBER_0_FILL">
          <path fill="url(#xfl1_Gradient_1)" stroke="none" d=" M 14 13 L 14 1 1 1 1 13 14 13 Z" />
        </g>
        <g id="xfl1_Layer0_0_MEMBER_1_FILL">
          <path fill="url(#xfl1_Gradient_2)" stroke="none" d=" M 15 14 L 15 0 0 0 0 14 15 14 M 1 13 L 1 1 14 1 14 13 1 13 Z" />
        </g>
        <g id="xfl1_Layer0_0_MEMBER_2_FILL">
          <path fill="url(#xfl1_Gradient_3)" stroke="none" d=" M 1 0.75 L 1 7.25 14 7.25 14 0.75 1 0.75 Z" />
        </g>
      </defs>
      <g transform="matrix( 1, 0, 0, 1, 0,0) ">
        <use xlink:href="#xfl1_Layer0_0_MEMBER_0_FILL" />
      </g>
      <g transform="matrix( 1, 0, 0, 1, 0,0) ">
        <use xlink:href="#xfl1_Layer0_0_MEMBER_1_FILL" />
      </g>
      <g transform="matrix( 1, 0, 0, 1, 0,0) ">
        <use xlink:href="#xfl1_Layer0_0_MEMBER_2_FILL" />
      </g>
    </g>
  </g>
</svg>