<?xml version='1.0' encoding='utf-8'?>
<svg xmlns="http://www.w3.org/2000/svg" xmlns:xlink="http://www.w3.org/1999/xlink" version="1.1" width="550px" height="400px" viewBox="0 0 550 400" preserveAspectRatio="none" data-xfl-root="Components/Component Assets/SliderSkins/SliderTrack_skin">
  <g data-xfl-symbol="Components/Component Assets/SliderSkins/SliderTrack_skin">
    <g data-svg-leaf="components_component_assets_sliderskins_slidertrack_skin_502cdb1159/t00_l000_f0000_r00.svg">
      <defs>
        <g id="xfl1_Layer0_0_FILL">
          <path fill="#8C9295" stroke="none" d=" M 1 2 L 1 3 2 3 2 2 1 2 M 1 1 L 0 1 0 2 1 2 1 1 M 79 2 L 80 2 80 1 79 1 79 2 M 79 3 L 79 2 78 2 78 3 79 3 Z" />
          <path fill="#AEB2B4" stroke="none" d=" M 78 3 L 78 2 2 2 2 3 78 3 Z" />
          <path fill="#575E62" stroke="none" d=" M 79 1 L 79 0 1 0 1 1 79 1 Z" />
          <path fill="#EBEBEB" stroke="none" d=" M 79 2 L 79 1 1 1 1 2 2 2 78 2 79 2 Z" />
        </g>
      </defs>
      <g transform="matrix( 1, 0, 0, 1, 0,0) ">
        <use xlink:href="#xfl1_Layer0_0_FILL" />
      </g>
    </g>
  </g>
</svg>