
<svg xmlns="http://www.w3.org/2000/svg" version="1.1" xmlns:xlink="http://www.w3.org/1999/xlink" preserveAspectRatio="none" x="0px" y="0px" width="550px" height="400px" viewBox="0 0 550 400">
<defs>
<g id="Parts_Heads_headColorMC_2_Layer1_0_FILL">
<path fill="#63A665" stroke="none" d="
M 116.05 96.5
Q 116.05 78.75 99.5 64.8 82.25 50.3 58.3 50.3 53.35 50.3 45.35 51.75 34.85 53.65 25.9 57.1 0.2 67 -3.25 85.5 2.25 82.95 7.25 78.25
L 15.15 70.05
Q 19.6 65.4 23.35 63.35 28.4 60.55 34.9 60.55 36.5 60.55 41 63.55 45.7 66.65 45.7 68.25 45.7 70.95 41.05 76 35.5 81.95 35.15 82.65 31.35 89.95 28.2 99.65 25.4 108.3 25.4 111.1 25.4 128.65 39.1 137.5 49.95 144.5 65.5 144.5 76 144.5 87.4 140.7 72.75 135.45 60.45 125.95 49.2 117.25 49.2 112.9 49.2 112.3 49.45 112.35
L 50.3 112.5
Q 50.15 112.85 50.45 113.15 50.6021484375 113.3021484375 50.35 113.35
L 77.6 111.2 83.35 109.7
Q 83.85 109.7 83.45 110.3 83 110.9 83.5 110.9 88.85 110.9 95.7 107.75
L 112.35 99.85
Q 116.05 98 116.05 96.5
M 87 70.5
Q 92.8 75.4 92.8 82 92.8 86.45 89.2 89.4 83.75 93.9 71 93.9 66.35 93.9 63.5 90.3 60.4 86.4 60.4 79.4 60.4 77 65.95 71.75 71.9 66.1 76.1 66.1 81.75 66.1 87 70.5 Z"/>
</g>
</defs>

<g transform="matrix( 1, 0, 0, 1, -62.75,-76.85) ">
<g transform="matrix( 1, 0, 0, 1, 0,0) ">
<use xlink:href="#Parts_Heads_headColorMC_2_Layer1_0_FILL"/>
</g>
</g>
</svg>
