
<svg xmlns="http://www.w3.org/2000/svg" version="1.1" xmlns:xlink="http://www.w3.org/1999/xlink" preserveAspectRatio="none" x="0px" y="0px" width="550px" height="400px" viewBox="0 0 550 400">
<defs>
<g id="Layer0_0_FILL">
<path fill="#FFFFFF" stroke="none" d="
M 103.3 45.1
Q 97.2 32.85 87.2 23.6
L 87.15 26.55 83.95 32.55
Q 80.15 35.95 75 36.05 70.95 36.1 65.15 34.05 58.4 31.3 55.1 30.05 49.2 27.7 45.55 27.45
L 35.9 26.9
Q 34.75 50.05 34.7 50.95 34.4 64.65 36.1 75.15
L -6.65 75.55 -2.2 56.7 -1.75 30.5 -6.3 28.7 -4.95 20.1 -6.1 17.6
Q -22.25 29.15 -30.5 47.15 -38.75 65.2 -36.9 85 -35.45 100 -28.35 113.2 -21.45 125.9 -10.3 135.1 0.9 144.35 14.7 148.7 28.95 153.2 43.95 151.75 59 150.3 72.1 143.2 84.85 136.35 94.05 125.15 103.3 113.95 107.6 100.2 112.1 85.95 110.65 70.9 109.35 57.3 103.3 45.1 Z"/>
</g>
</defs>

<g transform="matrix( 1, 0, 0, 1, 0,0) ">
<use xlink:href="#Layer0_0_FILL"/>
</g>
</svg>
