
<svg xmlns="http://www.w3.org/2000/svg" version="1.1" xmlns:xlink="http://www.w3.org/1999/xlink" preserveAspectRatio="none" x="0px" y="0px" width="550px" height="400px" viewBox="0 0 550 400">
<defs>
<g id="Layer0_0_FILL">
<path fill="#99CC99" stroke="none" d="
M 143.65 -5.3
L 141.75 -9.55
Q 125.85 -3.5 103.15 11.15
L 81.75 24.5 69.9 23.85 67.7 22.15 65.75 21.9 64.45 22.7 75.75 25.6 74.9 30.25
Q 74.4 34.35 74.7 35.95 40.5 25.8 38.45 24.65 38.9 22.85 40.1 21.3
L 41.9 19.7 36.2 19.4 36.45 18.75 34.15 18.75 36.35 18.35 33.6 18.2 33.5 18.75 32.35 19.2 32.55 19.2
Q 21.2 23.2 -9.05 45.7 -24.9 57.6 -38.8 68.9 -42.8 74.75 -45.1 100.8 -46.4 113.85 -46.8 126.05 -47.5 127.1 -47.85 126.7 -48.15 126.8 -48.55 126.35
L -49.55 125.5
Q -51.6 125.5 -67.05 138.55 -82.15 151 -83.2 152.6 -84.5 154.5 -76 163.15 -67.75 171.55 -69.4 174.1
L -73.5 176.6
Q -77.3 178.85 -77.6 179.2
L -63.1 190.55
Q -57.3 195.1 -57.95 196.2
L -58.35 196.7 -57.55 197.25
Q -55.25 199.1 -50.8 197.05 -42.55 193.25 -23.1 176.7
L -25.45 178.55
Q -33.5 170.8 -36.6 159.9 -39.95 148.45 -32.7 138.1 -26.15 128.75 -12.05 129.85 3.3 131.15 19.3 144.6 48.55 122.7 75.65 105.2 95.6 92.35 114.55 76.55 106.25 61.55 105.4 57.5 104 51.55 106.75 44.9 107.85 41.75 110 38.45 117.55 26.6 133.5 30 146.95 33.05 165.7 47.2 173.65 36.9 202.6 11.25
L 190.45 -4.1
Q 183.95 0.05 177.65 2.3 172.45 4.2 171.55 3.5 169.3 1.55 166.85 -2.45 151.4 3.65 148.45 1.25 145.3 -1.3 143.65 -5.3
M 41.4 37.5
Q 49.1 40.25 57.4 45.5 50.85 50.4 40.45 58.75 30.05 67.05 18.1 72.5 5.75 53.45 4.45 50.9 20.75 33.05 32.5 35.05 36 35.7 39.7 36.9
L 41.4 37.5
M -31.15 88.6
Q -30.05 78.35 -27.5 74.85
L -19.65 68.55
Q -11.05 62.2 -7.65 58.65 -5.35 64.75 -4.05 67.15 -0.8 73 6.8 81.15 0.45 84.55 -10.7 92.05 -23.5 100.6 -29.3 105.65 -32.3 100.1 -31.15 88.6 Z"/>
</g>
</defs>

<g transform="matrix( 1, 0, 0, 1, 0,0) ">
<use xlink:href="#Layer0_0_FILL"/>
</g>
</svg>
