
<svg xmlns="http://www.w3.org/2000/svg" version="1.1" xmlns:xlink="http://www.w3.org/1999/xlink" preserveAspectRatio="none" x="0px" y="0px" width="550px" height="400px" viewBox="0 0 550 400">
<defs>
<g id="Layer0_0_FILL">
<path fill="#FFFF00" stroke="none" d="
M -20.45 114.5
L -27.4 106.8
Q -25 120.55 -16.3 131.55 -11.2 128.15 -4.9 127.75
L 0.5 127.35
Q -11.45 123.45 -20.45 114.5
M 48 96
L 37.85 94.7
Q 16.7 89.95 -1.6 78.7 -9.2 74 -16.6 68.75
L -21.3 77.1
Q -13.05 90.05 0.45 97.55 15.85 106.15 32.25 112.5
L 48 96
M 1.1 50.6
L 0.3 52.6
Q 27.9 66.6 58.15 73.35
L 62 46 1.15 34.95
Q 3.95 42.8 1.1 50.6
M 8.8 6.1
Q 3.95 10.3 1.8 16.6 31.9 25.75 63.1 27 58.9 3.9 38 -1.2 21.65 -5.15 8.8 6.1 Z"/>
</g>
</defs>

<g transform="matrix( 1, 0, 0, 1, 0,0) ">
<use xlink:href="#Layer0_0_FILL"/>
</g>
</svg>
