
<svg xmlns="http://www.w3.org/2000/svg" version="1.1" xmlns:xlink="http://www.w3.org/1999/xlink" preserveAspectRatio="none" x="0px" y="0px" width="550px" height="400px" viewBox="0 0 550 400">
<defs>
<g id="Layer0_0_FILL">
<path fill="#FFCC00" stroke="none" d="
M 84.85 59.6
L 84.9 59.75
Q 85.65 59.35 90 58.45 83 33.75 43.7 25.05
L 30.9 21.65
Q 27.15 20.95 23.6 18.05 20.75 15.3 20.3 15.3
L 19 15.55
Q 19 16.05 17.9 16.6
L 14.65 17.5 12.2 17.1 10.9 13.2
Q 9.75 9.35 9.85 7.75
L 10.1 7.6
Q 10.65 9.4 11.6 9.4 12.6 9.4 12.85 9.05
L 11.8 10.75
Q 11.8 11.35 12.65 13
L 13.45 14.65
Q 15.65 15.25 17.05 13.85 18.05 12.8 18.05 11.65 18.05 11 19.35 11.35 20.6 11.7 20.6 9.05 20.6 7 18 4.55 14.45 1.2 8.35 1.2 0.2 1.2 0.2 7.75 0.2 18.4 7.9 22.65 12.95 25.45 32.85 29.45 50.65 33.05 65 44.35 71.05 49.1 74.2 53.7 77.35 58.3 76.45 61.2
L 84.85 59.6
M 90.45 62.9
L 90.35 60.85 84.9 61.9 84.9 61.6 84.85 61.9 76.6 63.4
Q 76 72.85 66.6 81.95 60.65 87.75 46.4 97.1 31.5 106.85 26.5 111.4 17.55 119.55 17.55 127.45 17.55 133.55 21.9 138.45 25.65 142.7 28.6 142.7 33.15 142.7 35.7 139.35 37.45 137.1 37.45 135.55 37.45 132.3 36.1 130.8 34.3 129.25 33.25 127.7
L 32.15 129.45 31.95 129.5 31.85 129.25
Q 31.75 129.15 31.75 129.75
L 32.15 131.1 32.85 132.75
Q 30.7 134.15 29.55 132.55 28.75 131.5 28.75 130.55 28.75 126.9 38.4 118.4
L 59.6 100.95
Q 73.85 89.2 80.8 81.4 90.45 70.5 90.45 62.9 Z"/>
</g>
</defs>

<g transform="matrix( 1, 0, 0, 1, 0,0) ">
<use xlink:href="#Layer0_0_FILL"/>
</g>
</svg>
