
<svg xmlns="http://www.w3.org/2000/svg" version="1.1" xmlns:xlink="http://www.w3.org/1999/xlink" preserveAspectRatio="none" x="0px" y="0px" width="550px" height="400px" viewBox="0 0 550 400">
<defs>
<g id="Layer0_0_FILL">
<path fill="#D20000" stroke="none" d="
M 86.05 98.4
Q 85.25 96.85 82.45 94.35 73.8 86.65 66.2 72.75 58.6 58.85 55.75 35.9 52.9 12.95 50.95 7.5 48.95 2 45 2 40.3 2 34.95 4.3 28.5 7.15 23.35 12.55 9.75 26.9 9.75 54.3 9.75 56 10.9 71.4 11.5 81.6 11.5 85.25 11.5 91.95 11 97.35 10.5 102.3 4.95 125.25
L 5 125.2 -0.2 134.2
Q -2.3 137.7 -2.3 138.85 -2.3 141.5 -2 141.6
L -1 141.7
Q 1.15 141.7 4.85 140.1
L 12.5 136.6
Q 24.1 131.5 35 131.5 48.1 131.5 54.55 135.25
L 58.3 137.8
Q 60.05 138.95 61.8 138.95 71.7 138.95 79.8 126.6 87.2 115.4 87.2 104.75 87.2 100.55 86.05 98.4 Z"/>
</g>
</defs>

<g transform="matrix( 1, 0, 0, 1, 0,0) ">
<use xlink:href="#Layer0_0_FILL"/>
</g>
</svg>
