
<svg xmlns="http://www.w3.org/2000/svg" version="1.1" xmlns:xlink="http://www.w3.org/1999/xlink" preserveAspectRatio="none" x="0px" y="0px" width="550px" height="400px" viewBox="0 0 550 400">
<defs>
<g id="Layer0_0_FILL">
<path fill="#F7E48F" stroke="none" d="
M 55.2 39.25
Q 54.65 28.9 48.8 20.65 44.8 14.95 38.7 11.9
L 38.2 12.35 30.95 10.6
Q 27.2 14.35 24.25 18.65 18.7 26.85 16.95 32.6 16.5 33.9 15.7 38.05 15.4 39.85 14.6 43.6 14 46.9 14 49.15 13.85 57.95 14.15 64.5 14.55 72.25 15.7 79.9
L 15.8 81.85
Q 18 89.25 21.25 97 23.35 102.25 28.05 110.8 25.55 113.65 23.6 115.2 21.05 117.3 18.25 118.25 15.7 119 13.15 119.6 13 119.75 12.85 119.95
L 10.85 120.2 10.85 120.1
Q 10.25 120.1 9.6 120 8.1 119.7 6.7 119.2 5.25 118.5 4.05 117.7 -0.35 114.4 -3.4 109.85 -8.15 102.9 -9.15 94.4 -9.3 93 -9.35 89.55 -9.4 85.8 -9.5 84.7 -14.7 89.75 -15.95 92.5 -18.75 98.2 -18 106.2 -17.85 108.25 -17.4 110.75 -16.55 114.8 -14.7 118.75 -11.95 124.3 -7.9 128.6 -3.35 133.55 -0.65 135.35 1.85 137 7.5 138.6 15.25 140.45 21.05 140.15 32.15 139.25 42.2 135 48.1 132.55 52.85 129.35
L 54.9 127.9
Q 56.1 127.1 58 125.35 60.45 123.1 61 122.65 62.55 121.35 63.85 119.45 66.1 116.1 67.25 112.2 67.6 111.05 67.95 109.95 63.65 104.3 59.85 94.55 56.1 84.65 55.95 74.5 55.95 72.35 55.65 66.45 55.45 61.35 55.5 58.35 55.7 48.85 55.2 39.25 Z"/>
</g>
</defs>

<g transform="matrix( 1, 0, 0, 1, 0,0) ">
<use xlink:href="#Layer0_0_FILL"/>
</g>
</svg>
