
<svg xmlns="http://www.w3.org/2000/svg" version="1.1" xmlns:xlink="http://www.w3.org/1999/xlink" preserveAspectRatio="none" x="0px" y="0px" width="550px" height="400px" viewBox="0 0 550 400">
<defs>
<g id="Layer0_0_FILL">
<path fill="#FF9999" stroke="none" d="
M 82.45 26.75
L 81.15 20.95
Q 78.65 17.9 75.8 14 73.05 10.3 73.1 10.15 66.1 3.5 60.8 2.3
L 60.8 2.2 58.85 2.35
Q 24.5 4.4 3.35 31.35 -5.15 42 -10.35 55.35 -14.65 65.8 -16 76.45 -23.05 129.55 21.35 135.3 48.4 138.9 72 112.6 79.85 103.9 85.95 93.3 90.7 85 91.05 82.5
L 91.1 82.15 91.75 82.25 93.7 75.45 87.15 64.6
Q 87.45 64.6 87.15 64.5 88.15 59.2 88.35 57.6 87.95 57.55 84.65 54.75 81.35 51.95 81.1 51.9 79.65 51.45 79.45 48.2 79.25 44.8 78.5 44.35 77.65 43.9 80.1 38.9 82.5 33.95 83.75 33.3
L 85.75 30.75
Q 85.2 30.8 84.45 30.35 83 29.4 82.45 26.75 Z"/>
</g>
</defs>

<g transform="matrix( 1, 0, 0, 1, 0,0) ">
<use xlink:href="#Layer0_0_FILL"/>
</g>
</svg>
