
<svg xmlns="http://www.w3.org/2000/svg" version="1.1" xmlns:xlink="http://www.w3.org/1999/xlink" preserveAspectRatio="none" x="0px" y="0px" width="550px" height="400px" viewBox="0 0 550 400">
<defs>
<g id="Layer0_0_FILL">
<path fill="#CCFFFF" stroke="none" d="
M 81.15 1.8
Q 81.2 1.7 81 1.6 80.85 1.55 81 1.45 81.05 1.4 81.1 1.35 81.1 1.25 81.05 1.25 80.35 0.9 78.95 0.65 78.85 0.65 78.8 0.65 75.05 0.95 73.15 1.15
L 67.7 2.1
Q 65.1 3.05 60.65 4.4 53.5 6.45 49.4 7.3 44 7.4 43.15 7.5 42.75 7.55 35.6 8.45 29.5 9.2 28.25 9.1 22.35 8.85 21.65 8.9 21.6 8.9 21.5 8.9 21.05 8.85 19.5 8.5
L 17.15 8
Q 17.1 8.05 16.75 8 16.45 7.95 16.3 7.9 15.65 7.7 15.4 7.75 15.3 7.8 15.2 7.75 14.95 7.65 14.65 7.6 14.2 7.6 14.05 7.55
L 13.2 7.25 11.6 6.95
Q 10.9 6.7 10.45 6.8 9.55 6.85 8.9 6.8
L 7.8 6.85
Q 6 7.15 5.65 7.2 5.45 7.2 5.2 7.4 4.95 7.6 4.85 7.7
L 4.8 7.75 5.15 9.7
Q 6.4 10.3 7.9 11.4 6.95 11.2 4.7 11.45
L 4.7 11.4
Q 4.25 11.4 1.35 11.05 -1.2 10.65 -1.9 10.7 -2.25 10.75 -5.45 10.75 -7.3 10.75 -8.85 11.25 -11.8 12.35 -12.25 12.6 -17.5 15.15 -21.6 18.3 -28.1 23.3 -31.6 31.5 -35.1 39.75 -34.15 47.8 -33.65 51.95 -32 56 -30.35 60.2 -27.75 63.45 -25.75 66.05 -23.6 67.8 -21.25 69.7 -17.85 71.3
L -18.05 72.4
Q -17.85 72.95 -17.9 74.1 -17.95 75.65 -17.9 76.3 -17.85 76.95 -18.15 78.15 -18.2 80.5 -19.15 82.85
L -21.4 87.15
Q -21.6 88.45 -21.8 88.65 -21.15 88.45 -18.9 87.75 -16.8 87 -15.9 86.55 -15.4 86.2 -13.55 85.2 -11.75 84.15 -11.1 83.45 -11.1 83.55 -11.05 83.75 -10.55 91.75 -8.15 99.7 -4.4 111.95 3.25 121.8 3.25 121.85 3.25 121.95 3.25 122.1 3.3 122.2 3.3 122.25 3.3 122.35
L 3.3 122.35
Q 3.3 122.4625 3.3 122.55 3.3 122.580859375 3.3 122.6 3.330859375 122.6619140625 3.35 122.7 3.35 122.7720703125 3.35 122.85
L 3.35 122.9
Q 3.35 122.95 3.35 123
L 3.35 123
Q 3.5966796875 124.620703125 4.55 129.35 4.6 130.8 4.3 132.1 4.25 132.55 4 132.75
L 4 132.8
Q 4.05 133.1 4 133.25 4.8 133.95 5.6 134.65 5.85 134.65 6.15 134.8 6.55 134.9 7.5 135.45 13.6 139.35 21.95 140.3 28.2 141 37.3 140.1 45.25 139.2 50.65 137.8 55.75 136.45 63.3 133.55 63.7 133.35 64.05 133.15 66.05 131.4 67.05 130.2 67.45 129.7 67.6 129.65 67.8 129.5 68 129.5 68.25 129.3 68.65 129
L 68.85 128.75 72.1 118.3
Q 72.1466796875 118.2064453125 72.2 118.1 75.6 109.8 77.4 103.75 79.8 95.75 80.5 88.8 82 73.8 76.4 55.75 74.2 48.7 70.5 40.05 69 36.65 66.25 30.6 66.1 30.5 65.65 29.7
L 64.15 26.45 63.8 25.9 61.95 20.15
Q 63.1 18.8 66.9 13.65 68.45 11.4 70.7 9.35 71.9 8.3 73.6 6.9 75.6 4.95 76.3 4.55 77.2 3.9 78.75 3.75
L 80.5 2.95
Q 80.7 2.8 81.15 1.8
M 11.15 17.3
Q 11.2 17.35 11.55 17.4 11.8 17.4 11.85 17.5
L 11.85 19.2
Q 11.8 19.2 11.8 19.25 11.75 19.3 11.75 19.35 11.7 19.4 11.7 19.45
L 11.7 19.55
Q 11 20.45 10.85 20.65 10.55 21.15 9.5 23 9.05 23.9 8.05 24.9 7.1 25.85 6.6 26.8 6.55 26.9 6.55 26.95 5.55 29.35 5.35 29.3 5.15 29.55 5 29.8 4.55 30.65 3.4 32.05 2.25 33.45 1.9 34.15 1.3 35.15 0.8 36.7 0.5 37.6 -0.1 39.3 -0.55 40.15 -1.75 41.65 -2.95 43.1 -3.3 43.75 -5.05 47.65 -7.4 54.75 -9.95 62.45 -10.3 64
L -11.15 63.05 -11.8 62.55
Q -14.9 61.25 -17.2 59.65 -19.05 58.45 -20.1 57.25 -21.3 56 -22.3 54.15 -23.55 51.8 -23.8 48.2 -24.45 41.55 -22.3 37.05 -20.45 33.05 -18.15 30 -18.2 29.8 -17.85 29.4 -17.65 29.2 -17.3 28.85 -16.9 28.05 -16 27.15 -15.5 26.7 -14.45 25.7 -10.4 22.25 -6.8 20.85 0.25 17.8 11.15 17.3
M 40.05 137.05
Q 39.9 137.05 39.75 137.15 39.9 137 40.1 136.95 40.05 137 40.05 137.05
M -11.15 62.65
Q -11.15 62.85 -11.15 63.05 -11.05 61.75 -11.15 62.65 Z"/>
</g>
</defs>

<g transform="matrix( 1, 0, 0, 1, 0,0) ">
<use xlink:href="#Layer0_0_FILL"/>
</g>
</svg>
