
<svg xmlns="http://www.w3.org/2000/svg" version="1.1" xmlns:xlink="http://www.w3.org/1999/xlink" preserveAspectRatio="none" x="0px" y="0px" width="550px" height="400px" viewBox="0 0 550 400">
<defs>
<g id="Layer0_0_FILL">
<path fill="#930000" stroke="none" d="
M 51.2 10.2
Q 48.3 7.25 44.6 7.05
L 39.75 7.4 32.2 6.65
Q 29.1 6.65 26.55 9.95 24.1 13.1 22.95 18.1
L 19.8 25.25
Q 17.35 30.3 17.35 34 17.35 40.05 21.9 55.25 26.4 70.45 26.4 73.7
L 26.35 75.3
Q 26.15 76.1 25.5 76.1 25 76.1 25.4 75.65 25.75 75.2 25.25 75.2
L 20 96.4
Q 13.95 118.85 9.35 124.95 6.65 128.45 -10.35 143.9
L -11.25 144.45 10.65 150.85
Q 25.3 155.1 35 155.1 50.35 155.1 63.85 149.95 72.4 146.7 90.95 136.25 88.9 136.2 81.45 131.75 72.9 126.7 71.2 122.6 68.1 115.35 63.45 98.5 56.95 75.2 55.95 59.85
L 55.3 50.35
Q 55.3 44.7 58.8 37.4 62.25 30.05 62.25 24.45 62.25 21.45 59.85 18.75
L 51.2 10.2 Z"/>
</g>
</defs>

<g transform="matrix( 1, 0, 0, 1, 0,0) ">
<use xlink:href="#Layer0_0_FILL"/>
</g>
</svg>
