
<svg xmlns="http://www.w3.org/2000/svg" version="1.1" xmlns:xlink="http://www.w3.org/1999/xlink" preserveAspectRatio="none" x="0px" y="0px" width="550px" height="400px" viewBox="0 0 550 400">
<defs>
<g id="Layer0_0_FILL">
<path fill="#895127" stroke="none" d="
M 63 23.55
Q 61.75 19.05 60.2 16.05 58.2 12.15 55.2 9.85 52.3 7.55 47.85 6.55 44.2 5.75 39.9 5.8 26.85 6.1 17.05 15.2 9.15 22.5 2.9 36.1 2.7 36.55 2.7 35.75 2.7 34.7 2.65 34.35 1.65 30.85 -3.65 29.95 -7.4 29.1 -11.2 29.95
L -13.75 29.15
Q -14.15 27.1 -15.05 26.6 -18.85 24.7 -23.8 24.9 -29.35 25.15 -32.2 28.2 -32.75 27.1 -33.45 27.25 -36.55 27.8 -39.45 29.15
L -48 31.75
Q -48.95 32 -49.35 33.45 -49.7 34.8 -49.55 36.45
L -50.45 37.5
Q -51.2 38.9 -51 40.5 -52.75 39.5 -55.65 40.2 -57.95 40.75 -60.05 42.15 -60.85 42.7 -61.35 43.25 -62.9 42.35 -65 44.6 -66.5 46.15 -68.15 49
L -68.3 49
Q -69.1 49 -69 50.75
L -69.15 51.05
Q -69.4 51.6 -69.15 52.95 -68.95 54.45 -68.35 54 -68.35 54.85 -68.1 55.5 -68.4 58.55 -66.85 59.9
L -66 60.7 -66.95 60.5
Q -76.65 59.05 -81.15 75.55 -81.4 77.35 -80.8 79.15 -80.95 79.6 -80.95 79.9
L -80.95 80.2
Q -80.95 82.05 -79.95 83.65
L -80.15 83.75
Q -78.85 85.1 -76 88.4 -73.35 90.95 -71.2 90.4 -70.95 92.3 -70.25 93.75 -69.45 95.3 -68.3 95.85 -67.3 98.65 -63.2 98.95 -62.35 99 -61.35 99.6 -60.25 100.2 -59.55 100.3
L -59.25 100.65
Q -50.75 107.8 -40.45 112.45
L -28.35 120.95
Q -25.15 122.95 -23.9 122.35 -23.55 122.55 -22.85 122.25 -22.15 121.9 -21.75 122.05 -20.85 124.45 -19 125.9 -16.7 127.75 -12.05 128.6 -9.45 129 -4.4 129.35 6.1 130.05 10.9 129.75 19.3 129.2 25.3 125.9 30.55 124.6 35.9 120.8 40.8 117.4 44.85 112.7 45.9 111.4 48.6 109.2 50.7 107.5 51.85 105.45 52.6 104.9 53.9 102.95 55.05 101.25 55.5 100.1
L 60.05 90.15
Q 60.1 90.05 60.6 87.15 61.05 84.45 61.65 83.25
L 62.3 82.1
Q 61.4158203125 83.561328125 62.05 80 63.05 74.4 63 72.85 64.3 72 64.75 68.3 65.05 64.35 65.15 63.25 68.2 42.35 63 23.55 Z"/>
</g>
</defs>

<g transform="matrix( 1, 0, 0, 1, 0,0) ">
<use xlink:href="#Layer0_0_FILL"/>
</g>
</svg>
