
<svg xmlns="http://www.w3.org/2000/svg" version="1.1" xmlns:xlink="http://www.w3.org/1999/xlink" preserveAspectRatio="none" x="0px" y="0px" width="550px" height="400px" viewBox="0 0 550 400">
<defs>
<g id="Layer0_0_FILL">
<path fill="#6479CE" stroke="none" d="
M 30.5 -5.95
Q 27.45 -5.95 19.3 -7.95 10.55 -10.1 -8.1 -15.55 -4.8 -13.2 -0.3 -5.7 3.3 0.35 5.15 5.05 6.65 8.7 9.7 20.25
L 12.55 30.85 12.7 30.85
Q 12.6 34.65 11.2 43.35 9.65 52.5 9.65 54.3
L 10.55 62.75
Q 11.4 72.4 11.4 80.8 11.4 94.95 8.95 102.65
L 7.2 107.65
Q 6.45 110.4 6.45 113.7 6.45 116 7.35 117.35 8.25 118.65 8.25 119.45 8.25 121.35 6.95 124.65
L 5 129.1 50.05 135
Q 53.65 135.55 54.2 136.65 56.2 137.3 59.7 139.65 62.95 141.8 65.65 142.5
L 65.9 135
Q 65.9 129.85 63.75 105.25 61.55 80.7 61.55 75.65 61.55 74.6 65.65 44.7 69.8 14.3 69.95 11 70.8 -4.15 72.1 -9.5 72.75 -12.15 73.25 -12.75 73.25 -13.25 72.85 -13.7 72.1 -14.55 70.1 -14.55 67.2 -14.55 54.45 -10.25 41.7 -5.95 30.5 -5.95
M 13 31.05
L 12.75 30.85
Q 13.55 30.85 13 31.05 Z"/>
</g>
</defs>

<g transform="matrix( 1, 0, 0, 1, 0,0) ">
<use xlink:href="#Layer0_0_FILL"/>
</g>
</svg>
