
<svg xmlns="http://www.w3.org/2000/svg" version="1.1" xmlns:xlink="http://www.w3.org/1999/xlink" preserveAspectRatio="none" x="0px" y="0px" width="550px" height="400px" viewBox="0 0 550 400">
<defs>
<g id="Layer0_0_FILL">
<path fill="#993333" stroke="none" d="
M 37.7 81.55
Q 34.45 81.8 32.2 83.7 29.7 85.9 29.7 89.4 29.7 91.95 31.55 93.3 33.5 94.75 37.25 94.75 42 94.75 43.8 93.3 45.7 91.8 45.7 87.8 45.7 84.65 43.2 82.9 40.95 81.35 37.7 81.55
M 37 44.85
Q 33.1 44.85 30.25 46.45 27.55 48.05 27.55 50
L 29.45 54.4
Q 32.45 58.65 37.8 58.65 39.75 58.65 41.8 56.5 43.85 54.35 44.45 51.75 46.15 44.85 37 44.85
M 61.6 -3
L 60.25 -3.2
Q 57.75 -3.2 48.15 4.8
L 38.9 12.75 34.9 11.25 32.95 11.05
Q 32.45 11.05 31.85 11.55 31.2 12.05 30.7 12.05
L 20.6 6.1
Q 19.55 5.65 15.9 4.6
L 12.25 3.6
Q 8.45 3.6 7.25 8.1 5.95 15.75 4.1 22 2.75 26.65 3.1 29
L 3.45 31.85
Q 10.85 38.3 18.05 34.65
L 30.55 25.55
Q 33.15 23.65 37.05 23.65
L 41.6 23.2 43.8 21.75
Q 62 30.75 62.15 30.75 64.3 30.75 65.5 29.5 66.7 28.3 66.7 26.15 66.7 16 64.4 7.2
L 61.6 -3
M 57.2 4.3
L 58.1 9.65
Q 58.95 15.05 60.7 19.05
L 60.7 23.55 49.1 19.75
Q 44.35 18.1 43.05 16.65 44.65 15.25 46.4 11.75 49.15 8.15 57.2 4.3
M 29.65 20.4
Q 29.65 21.3 28.9 21.55
L 26.5 22.1
Q 21.8 23.4 16.55 29.15
L 9.45 29.15
Q 8.7 27.9 8.7 26.9
L 10.6 19.5
Q 12.45 11.55 12.4 8.15 18.9 11.9 25.9 15.5 29.65 17.7 29.65 20.4 Z"/>
</g>
</defs>

<g transform="matrix( 1, 0, 0, 1, 0,0) ">
<use xlink:href="#Layer0_0_FILL"/>
</g>
</svg>
