
<svg xmlns="http://www.w3.org/2000/svg" version="1.1" xmlns:xlink="http://www.w3.org/1999/xlink" preserveAspectRatio="none" x="0px" y="0px" width="550px" height="400px" viewBox="0 0 550 400">
<defs>
<g id="Layer0_0_FILL">
<path fill="#FF9933" stroke="none" d="
M 26.1 9.25
Q 25.4 9.25 23.85 11.15 22.35 12.95 22.35 13.75
L 22.35 13.9
Q 20.25 16.3 18.2 21.05
L 18.05 20.8 12.65 32.15
Q 11 36.2 11 40.3 11 41.35 12 44.75 12 45.45 11.25 47.35 10.5 49.2 10.5 51.4
L 11.2 66.45 11.1 66.65
Q 10.55 68.15 10.55 69.3
L 11.55 81.3 11.05 92 11.3 95.75 11.5 95.8 10.75 120.05
Q 10.75 121.85 12.65 126.8 14.5 131.8 14.5 136.7 14.5 138.5 10.55 143.6 7.1 148.05 3.75 151.3
L 4.5 152.85 0.6 153.2 -6.25 154.75
Q -8.45 154.75 -11.4 153.8
L -14.35 152.85
Q -15.5 152.85 -18.7 155.1 -20.2 147.8 -17.7 148.05
L -17.65 138.95
Q -17.2 131.75 -15.05 126.2
L -16.6 126 -12 119.2 -8.3 111.45
Q -6.9 108 -5.9 103.1
L -7.8 103.6
Q -6.9 100.8 -6.25 95.25
L -5.25 95.4
Q -5.65 89.55 -8.2 86.3 -10.75 83 -15.05 83
L -18.55 83.8
Q -16.9 85.45 -16.2 87.85 -15.75 89.3 -15.75 90.4
L -16.15 92.85 -17 95.85
Q -15.95 96.45 -14.95 97.6 -14.15 98.5 -13.5 102.2 -13.15 104.05 -12.35 105.1 -14.1 106.95 -15.35 110.65 -17.3 116.3 -18.2 117.65
L -17.2 118.3
Q -18.5 122.95 -19 125.6 -20.35 125.25 -21.4 124.7 -22.2 127.35 -24.25 143.6
L -24 148.15 -20.3 156.3 -21.1 156.85
Q -20.2 158.8 -18.25 160
L -17.85 160.25 -15.65 161.2
Q -13.1 162 -10.05 162
L -4 161.45
Q 1.75 160.75 1.75 159.7 4.4 157.25 5.45 155.7
L 5.85 157.65
Q 16.35 151.25 16.35 147.95 16.35 147.35 17.55 147.1
L 19.4 146.6 22.7 151.55
Q 25.55 155 29.1 155 36.7 155 41.7 153.1 45 151.85 49.8 148.4 48.45 148.95 43.25 149.75 41.7 149.75 38.85 147.2
L 36.25 144.6
Q 35.95 144.6 35.35 141.85 34.7 138.85 34.65 136.4 34.5 132.25 34.15 131.35
L 33.65 130.3
Q 33.05 127.75 33.25 102.85
L 32.9 100.8
Q 32.55 99.3 32.55 98.45 32.1 68.35 31.75 65.15 31.75 58.9 32.9 57.3 33.15 56.9 36.25 55.5 35.85 52.3 34.25 48.25
L 32.75 44.15
Q 32.75 42.35 33.95 41.85 35.15 41.3 39.75 41
L 33.95 33.1
Q 32.75 31.25 32.75 30.1
L 32.95 29.1 33.1 28.65 35.4 28.55 42.25 29
Q 39.9 22.75 34.7 15.35 29.95 9.2 29.75 8.45 27.5 9.65 26.7 9.55 26.3 9.25 26.1 9.25 Z"/>
</g>
</defs>

<g transform="matrix( 1, 0, 0, 1, 0,0) ">
<use xlink:href="#Layer0_0_FILL"/>
</g>
</svg>
