
<svg xmlns="http://www.w3.org/2000/svg" version="1.1" xmlns:xlink="http://www.w3.org/1999/xlink" preserveAspectRatio="none" x="0px" y="0px" width="550px" height="400px" viewBox="0 0 550 400">
<defs>
<g id="Layer0_0_FILL">
<path fill="#663300" stroke="none" d="
M 1.55 113.1
L 4.25 113
Q 3 108.85 2.05 104.6 1.5 105.9 -0.55 106.7 -2.5 107.45 -4.85 107.45 -10.3 107.45 -14.3 104.6 -11.6 107.05 -6.4 109.95 -0.8 113.1 1.55 113.1
M 38.9 54.1
L 35.9 54 34.65 53.5
Q 30.05 52.35 5.6 50.2
L 5.8 60.7
Q 5.8 65.5 4.25 87.35
L 4.05 94
Q 4.05 105.9 8.8 115.75 15.45 129.5 28.6 129.5
L 44.8 127.95
Q 60.8 125.9 65.5 123.3 63.65 122.45 62.7 120.8 61.9 119.4 61.9 117.75 61.9 116.05 62.15 115.25 62.7 113.4 64.5 112.75 63.1 111.8 61.55 110 59.6 107.85 59.6 106.5 59.85 104.1 61.4 102.25 60.55 101.8 57.6 96.4 54.65 90.95 54.65 89.6 54.75 88.8 55.2 87.8 56.1 85.8 57.9 84.85 56.1 84.35 55.1 83.15 54.1 81.95 54.1 80.35 54.1 79.85 54.55 78.6
L 55 76.85 54.5 75.35
Q 54 74.3 54 73.8 54 71.6 55.85 69.4 57.1 67.85 58.9 66.65 57.85 65.9 56.9 64.6 55.65 62.95 55.65 61.7 55.65 60.35 57 58
L 59.1 54.35
Q 58.05 53.6 56.4 53.3
L 45.75 52.5
Q 44.25 52.55 41.6 53.3
L 38.9 54.1
M 58.55 10.3
Q 53.2 7.65 49.3 6.8 38.05 4.35 14.3 4.35 13.05 4.35 9.75 12.8
L 5.9 23 25.05 24.5 32.7 18.25 40.5 17.85
Q 46.3 17.85 50.65 20.55 52.65 21.75 55.55 24.75
L 57.8 22.45
Q 56 22 54.6 20.3 53.2 18.65 53.2 17.05 53.2 15.65 54.9 13.55 56.5 11.6 58.55 10.3 Z"/>
</g>
</defs>

<g transform="matrix( 1, 0, 0, 1, 0,0) ">
<use xlink:href="#Layer0_0_FILL"/>
</g>
</svg>
