
<svg xmlns="http://www.w3.org/2000/svg" version="1.1" xmlns:xlink="http://www.w3.org/1999/xlink" preserveAspectRatio="none" x="0px" y="0px" width="550px" height="400px" viewBox="0 0 550 400">
<defs>
<g id="Layer0_0_FILL">
<path fill="#010101" stroke="none" d="
M 1.25 0.6
Q 1 0.7 1 0.3
L 0.85 0 0.75 0 0.65 0.1 0.45 0.4 0.35 0.5 0.15 0.9
Q 0.05 1 0.05 1.2
L 0.05 1.5
Q -0.1 1.95 0.05 2.4 0.05 2.6 0.15 2.7
L 0.25 2.9
Q 0.45 3 0.55 2.9
L 0.65 2.8 0.75 2.6
Q 0.95 2.3 0.95 2.05
L 1.15 1.45
Q 1.25 1.25 1.25 0.6 Z"/>
</g>
</defs>

<g transform="matrix( 1, 0, 0, 1, 0,0) ">
<use xlink:href="#Layer0_0_FILL"/>
</g>
</svg>
