
<svg xmlns="http://www.w3.org/2000/svg" version="1.1" xmlns:xlink="http://www.w3.org/1999/xlink" preserveAspectRatio="none" x="0px" y="0px" width="550px" height="400px" viewBox="0 0 550 400">
<defs>
<g id="Layer0_0_FILL">
<path fill="#FFFFFF" fill-opacity="0.25098039215686274" stroke="none" d="
M 10.4 68.5
Q 7.1 68.5 3.4 72.8 0.35 76.4 0.1 78.1
L 0.5 78.75
Q 1.25 79.35 2.8 79.35
L 8.9 75.7
Q 12.45 73.05 11.35 68.7
L 10.4 68.5
M 84.65 95.7
Q 84.65 92.15 83.2 88.95 80.85 83.85 75.7 83.85 72.8 83.85 64.45 87.35 54.6 91.55 54.6 95.35 54.6 95.85 55.15 96.8
L 55.65 98.2 55.25 99.45
Q 54.8 100.2 54.8 100.7 54.8 104.25 61.05 109.75 67.1 115 70.15 115 74.9 115 79.5 109.6 84.65 103.6 84.65 95.7 Z"/>
</g>
</defs>

<g transform="matrix( 1, 0, 0, 1, 0,0) ">
<use xlink:href="#Layer0_0_FILL"/>
</g>
</svg>
