
<svg xmlns="http://www.w3.org/2000/svg" version="1.1" xmlns:xlink="http://www.w3.org/1999/xlink" preserveAspectRatio="none" x="0px" y="0px" width="550px" height="400px" viewBox="0 0 550 400">
<defs>
<g id="Layer0_0_FILL">
<path fill="#000000" fill-opacity="0.25098039215686274" stroke="none" d="
M 95.95 59.45
Q 93 56.7 83.5 53.65 74.2 50.65 69.4 50.75
L 50.55 48.8
Q 48.8 48.8 41.35 51.3
L 23.8 57.2 24.35 56.85
Q 24.55 56.85 24.6 55.35 9.15 61.4 1.2 71.2 -5.05 78.8 -5.05 85.8
L -5 86.6 -4.95 86.55 -4.95 86.65
Q 3.9 82.5 10.7 76 15.9 71 15.9 69.8 15.9 67.8 25 64.6 33.3 61.65 35.85 61.65 36.85 61.65 40.25 64.05 43.7 66.5 44.55 67.9 40.4 71.85 36.6 77.7 35.25 79.9 30.7 85.6 26.9 90.9 26.9 93.85 26.9 94.35 27.4 94.5 27.9 94.65 27.9 95.15 27.9 96.05 26.1 102.75 24.3 109.45 24.3 116.25 24.3 131.4 42.95 139.95 56.75 146.25 70.45 146.25 88 146.25 103.7 133.45 119.35 120.65 118.9 108.15 118.45 95.6 113.4 83.3 108.3 71 95.95 59.45
M 90.85 70.45
Q 104.1 79.6 104.1 93.9 104.1 108.35 97.55 119.9 88.25 136.3 69.05 136.3 58.3 136.3 49.5 130.3 37.4 122 37.4 105.55 37.4 92.15 51.1 76.75
L 55.3 71.65
Q 50.85 68.35 45.35 65.85 44.15 64.2 41.2 61.95 37.85 59.4 36.25 59.4 33.15 59.4 28 61.2 24.7 62.4 21.7 63.85
L 26.65 61.85
Q 21.9 65 17.45 66.7 13.2 68.95 4.35 77.6
L 2.8 76.3
Q 3.75 72.15 10.55 67.5 16.8 63.25 26.25 59.65 47.5 51.7 60.95 53.9 64.4 60.35 65.9 61.45 68.05 63 69.5 63 80.1 63 90.85 70.45 Z"/>
</g>
</defs>

<g transform="matrix( 1, 0, 0, 1, 0,0) ">
<use xlink:href="#Layer0_0_FILL"/>
</g>
</svg>
