
<svg xmlns="http://www.w3.org/2000/svg" version="1.1" xmlns:xlink="http://www.w3.org/1999/xlink" preserveAspectRatio="none" x="0px" y="0px" width="550px" height="400px" viewBox="0 0 550 400">
<defs>
<g id="Layer0_0_FILL">
<path fill="#000000" stroke="none" d="
M 5.3 82.7
Q 14.15 75.4 22.65 68.9 26.95 65.6 33.35 64.05 42.4 61.8 42.4 69.65 42.4 70.9 32.35 85 22.3 100.6 22.3 109.3 22.3 128 34.4 138 45.85 147.5 65.8 147.5 89.1 147.5 105.7 133.6 112.05 128.25 115.85 122 119.3 116.4 119.3 112.45 119.3 82.45 102.7 65.4 86.2 48.45 57.35 48.45 30.75 48.45 10.75 61.8 2.85 67.1 -1.9 73.25 -6.3 79 -6.3 83.2 -6.3 85.9 -4.85 87.3 -3.65 88.5 -1.7 88.5
L 5.3 82.7
M 99.5 64.8
Q 116.05 78.75 116.05 96.5 116.05 98 112.35 99.85
L 95.7 107.75
Q 88.85 110.9 83.5 110.9 83 110.9 83.45 110.3 83.85 109.7 83.35 109.7
L 77.6 111.2 50.35 113.35
Q 50.6021484375 113.3021484375 50.45 113.15 50.15 112.85 50.3 112.5
L 49.45 112.35
Q 49.2 112.3 49.2 112.9 49.2 117.25 60.45 125.95 72.75 135.45 87.4 140.7 76 144.5 65.5 144.5 49.95 144.5 39.1 137.5 25.4 128.65 25.4 111.1 25.4 108.3 28.2 99.65 31.35 89.95 35.15 82.65 35.5 81.95 41.05 76 45.7 70.95 45.7 68.25 45.7 66.65 41 63.55 36.5 60.55 34.9 60.55 28.4 60.55 23.35 63.35 19.6 65.4 15.15 70.05
L 7.25 78.25
Q 2.25 82.95 -3.25 85.5 0.2 67 25.9 57.1 34.85 53.65 45.35 51.75 53.35 50.3 58.3 50.3 82.25 50.3 99.5 64.8
M 79.8 112.9
L 78.9 119.1
Q 78.45 120.95 77 120.95 71.05 120.95 61.6 115.5 65.55 115.5 79.8 112.9
M 75.55 124.45
L 72.35 130
Q 68.25 128.25 61.65 122.5 56.1 117.65 54.85 115.85 58.75 118.2 66.5 121.3 73.8 124.3 75.55 124.45
M 76.05 131.05
Q 80.45 124.85 80.6 124.85
L 91.1 125.75 86.45 131.1
Q 85.35 132.5 85.85 134
L 80.15 132.45
Q 76.55 131.45 76.05 131.05
M 116.55 101.05
L 116.8 108.3
Q 116.8 115.7 113.1 119.3 109.8 122.5 103.8 122.5
L 98.95 122.05 101.5 117.6
Q 103.4 113.6 104.4 111.95 108.75 104.5 116.55 101.05
M 84.55 123.45
Q 81.75 122.7 81.75 121.5 81.75 112.95 89.25 111.05
L 96.1 109.8
Q 100.4 109.05 102.85 107.6 100.6 120.8 91 123.35 87.6 124.25 84.55 123.45
M 91.3 136.65
Q 90.15 135.25 88.55 134.8 96.5 125.3 101.2 124.85
L 105.2 124.95
Q 107.8 125 110.4 123.8
L 110.65 123.7
Q 105.95 128.5 100.7 132.95 94.85 137.85 93.5 137.85 92.3 137.85 91.3 136.65
M 92.8 82
Q 92.8 75.4 87 70.5 81.75 66.1 76.1 66.1 71.9 66.1 65.95 71.75 60.4 77 60.4 79.4 60.4 86.4 63.5 90.3 66.35 93.9 71 93.9 83.75 93.9 89.2 89.4 92.8 86.45 92.8 82
M 85.85 73.25
Q 89.55 77 89.55 80.75 89.55 81.55 84.7 85.3 79.6 89.25 76.5 90.45 76.85 90.8 75.05 90.75 68.95 91.15 66.45 88.9 63.9 86.6 63.9 80.4 63.9 77.6 65.1 76.85 67.15 76.15 68.85 74.9
L 76.95 69.2
Q 81.85 69.2 85.85 73.25
M 74.55 76.7
Q 73.3 77.7 73.3 79.1 73.3 80.5 74.55 81.5 75.75 82.5 77.5 82.5 79.25 82.5 80.5 81.5 81.7 80.5 81.7 79.1 81.7 77.7 80.5 76.7 79.25 75.7 77.5 75.7 75.75 75.7 74.55 76.7 Z"/>

<path fill="#FFFFFF" stroke="none" d="
M 88.55 134.8
Q 90.15 135.25 91.3 136.65 92.3 137.85 93.5 137.85 94.85 137.85 100.7 132.95 105.95 128.5 110.65 123.7
L 110.4 123.8
Q 107.8 125 105.2 124.95
L 101.2 124.85
Q 96.5 125.3 88.55 134.8
M 81.75 121.5
Q 81.75 122.7 84.55 123.45 87.6 124.25 91 123.35 100.6 120.8 102.85 107.6 100.4 109.05 96.1 109.8
L 89.25 111.05
Q 81.75 112.95 81.75 121.5
M 116.8 108.3
L 116.55 101.05
Q 108.75 104.5 104.4 111.95 103.4 113.6 101.5 117.6
L 98.95 122.05 103.8 122.5
Q 109.8 122.5 113.1 119.3 116.8 115.7 116.8 108.3
M 80.6 124.85
Q 80.45 124.85 76.05 131.05 76.55 131.45 80.15 132.45
L 85.85 134
Q 85.35 132.5 86.45 131.1
L 91.1 125.75 80.6 124.85
M 72.35 130
L 75.55 124.45
Q 73.8 124.3 66.5 121.3 58.75 118.2 54.85 115.85 56.1 117.65 61.65 122.5 68.25 128.25 72.35 130
M 78.9 119.1
L 79.8 112.9
Q 65.55 115.5 61.6 115.5 71.05 120.95 77 120.95 78.45 120.95 78.9 119.1 Z"/>
</g>
</defs>

<g transform="matrix( 1, 0, 0, 1, 0,0) ">
<use xlink:href="#Layer0_0_FILL"/>
</g>
</svg>
