
<svg xmlns="http://www.w3.org/2000/svg" version="1.1" xmlns:xlink="http://www.w3.org/1999/xlink" preserveAspectRatio="none" x="0px" y="0px" width="550px" height="400px" viewBox="0 0 550 400">
<defs>
<g id="Layer0_0_FILL">
<path fill="#FFFFFF" fill-opacity="0.25098039215686274" stroke="none" d="
M 16.85 139
Q 17.3 139.45 17.85 139.4 23.75 138.65 28.55 131.2 33.65 123.15 31.7 114.9 31 122.2 16.5 138.5
L 16.85 139
M 49.2 36.05
L 51 25.25
Q 51.8 20.4 47.4 17.45 43.5 14.85 40.3 14.85 37.7 14.85 35.9 16.9 34.35 18.7 34.35 20.6 34.35 25.05 38.15 38.4 41.95 56.6 41.95 85.55 41.95 98.6 35.35 121.8
L 30.8 137.25
Q 28.75 144.55 28.75 146.9 28.75 148.5 32.75 149.1
L 37 149.4
Q 43.7 149.4 49.3 147.85 56.6 145.8 71.8 138.95 68.8 139.95 66.25 137.5 63.85 135.15 58.8 126.7 51.45 114.35 48.5 102.5 44.75 87.35 44.75 62.25 44.75 59.1 45.35 53.8 48.2 42 49.2 36.05 Z"/>
</g>
</defs>

<g transform="matrix( 1, 0, 0, 1, 0,0) ">
<use xlink:href="#Layer0_0_FILL"/>
</g>
</svg>
