
<svg xmlns="http://www.w3.org/2000/svg" version="1.1" xmlns:xlink="http://www.w3.org/1999/xlink" preserveAspectRatio="none" x="0px" y="0px" width="550px" height="400px" viewBox="0 0 550 400">
<defs>
<g id="Layer0_0_FILL">
<path fill="#000000" fill-opacity="0.25098039215686274" stroke="none" d="
M 68.35 143.05
L 43.95 100.2
Q 43.15 121.65 50.75 133.8 57 143.75 65.5 143.75
L 68.35 143.05
M 58.15 39.05
Q 54.5 40.8 52.45 44.1 47.7 51.75 47.7 68.35 47.7 90.8 62.15 116.75 68.25 127.75 74.7 134.55 81.3 141.55 85.85 141.55 86.7 141.55 87.85 140.5 89.15 139.3 89.8 137.7 90.05 137.85 90.05 136.85 90.05 135.5 88.2 133.6
L 83.5 129.35
Q 75.4 122.1 70.85 113.55 69.5 111.05 64.5 99.4 59.2 87.1 58.95 85.45
L 57.4 75.4
Q 56.4 68.35 56.4 63.9 56.4 62.9 58.15 39.05
M 57.6 15.55
Q 52.1 9.7 43.9 5.6
L 43.7 6.75 42.2 5.65 29.9 6.45 29.9 6.2 28.95 6.6 28.4 7
Q 25.85 8.9 22.35 15.7 17.15 25.85 16.55 32.15 15.9 38.4 20.1 51.2 24.25 63.95 22.1 81.35 19.9 98.75 13.85 113.3 7.75 127.85 -1.15 134.65 -10.1 141.4 -10.8 143.2 -11.5 145 -9.7 146.2 -8.3 147.15 -5.6 147.15 10.75 147.15 22.05 130.7 36.9 109.1 35.85 85 34.8 60.9 27.4 44.8 20 28.7 30.7 9.15
L 35.4 8
Q 36.2 7.6 44 9.05 51.75 10.45 57.6 15.55 Z"/>
</g>
</defs>

<g transform="matrix( 1, 0, 0, 1, 0,0) ">
<use xlink:href="#Layer0_0_FILL"/>
</g>
</svg>
