
<svg xmlns="http://www.w3.org/2000/svg" version="1.1" xmlns:xlink="http://www.w3.org/1999/xlink" preserveAspectRatio="none" x="0px" y="0px" width="550px" height="400px" viewBox="0 0 550 400">
<defs>
<g id="Layer0_0_FILL">
<path fill="#000000" stroke="none" d="
M 48.65 5.95
Q 46.95 4.05 43.45 4.6
L 38.55 5.65 30.05 6.45
Q 24.6 7.55 23.05 9.85 20.7 13.35 17.8 20.65 14.4 29.1 14.4 33.2
L 16.8 44.25 16.75 44.25
Q 20 55.95 21.05 61.45 22.6 69.6 22.6 78.65 22.6 79.95 20 88.45 16.6 99.5 11.65 112.1 5.8 124.9 -0.9 132.5 -6.85 139.25 -14.2 142.55 4.05 159 26.55 159 55.25 159 75.7 149.45 91.25 142.2 95.25 134 91.45 133.85 86.45 130.55 81.2 127.05 76.5 121.2 65 106.75 63.6 87.4 63.3 83.3 57.1 47.05 57.1 41.95 60.15 34.95 63.2 28 63.2 25.65 63.2 22 56.8 14.5
L 48.65 5.95
M 51.2 10.2
L 59.85 18.75
Q 62.25 21.45 62.25 24.45 62.25 30.05 58.8 37.4 55.3 44.7 55.3 50.35
L 55.95 59.85
Q 56.95 75.2 63.45 98.5 68.1 115.35 71.2 122.6 72.9 126.7 81.45 131.75 88.9 136.2 90.95 136.25 72.4 146.7 63.85 149.95 50.35 155.1 35 155.1 25.3 155.1 10.65 150.85
L -11.25 144.45 -10.35 143.9
Q 6.65 128.45 9.35 124.95 13.95 118.85 20 96.4
L 25.25 75.2
Q 25.75 75.2 25.4 75.65 25 76.1 25.5 76.1 26.15 76.1 26.35 75.3
L 26.4 73.7
Q 26.4 70.45 21.9 55.25 17.35 40.05 17.35 34 17.35 30.3 19.8 25.25
L 22.95 18.1
Q 24.1 13.1 26.55 9.95 29.1 6.65 32.2 6.65
L 39.75 7.4 44.6 7.05
Q 48.3 7.25 51.2 10.2
M 24.25 128.55
Q 16.9 137.1 12.4 138.95 16.5 140.1 24.75 130.9 33.05 121.7 31.55 117.6 31.2 120.4 24.25 128.55
M 69.25 140.3
Q 61.4 135.25 55.95 126.9 48.7 115.9 45.05 98.5
L 44.3 102.3 46.75 113.65
Q 47.35 119.85 56.95 130.05 65.25 138.9 68.25 139.85
L 69.25 140.3
M 41.4 129.35
L 41.2 127.1
Q 36.05 142.5 38.6 139.9 41.4 136.55 41.4 129.35 Z"/>
</g>
</defs>

<g transform="matrix( 1, 0, 0, 1, 0,0) ">
<use xlink:href="#Layer0_0_FILL"/>
</g>
</svg>
