
<svg xmlns="http://www.w3.org/2000/svg" version="1.1" xmlns:xlink="http://www.w3.org/1999/xlink" preserveAspectRatio="none" x="0px" y="0px" width="550px" height="400px" viewBox="0 0 550 400">
<defs>
<g id="Graphics_Symbol_269_0_Layer3_0_FILL">
<path fill="#000000" stroke="none" d="
M -18.6 38.4
Q -18.4 38.75 -17 38.75 -0.4 37 17.3 37 22.2 37 23.65 33 24.25 31.25 24.25 26.05 24.25 22.2 23.65 21.7
L 19 21.85 1.85 24.5 2.25 23.85
Q 1.95 22.25 1.8 19.95
L 1.55 16.3 0.5 16.25 0.2 16.4 -0.25 17
Q 0.25 18 0.2 20.9 0.15 23.2 1.3 24.55
L -19.25 25.85 -19.25 37.1
Q -18.75 37.75 -18.6 38.4
M -17.25 37.1
L -17.35 36.75 -17.5 33.9 -17.75 31.5 -17.55 29.35 -17.5 27 6.65 24.7 22.1 23.1
Q 22.75 24.3 22.75 25.9
L 22.5 29.65
Q 22.2 32.7 21.75 34.35 21.3 36.15 19.25 36.1
L 15.5 35.75 -17.25 37.1
M 21.7 -0.65
Q 21.75 -2.8 21.2 -4.85 20.6 -6.9 18.25 -6.85
L 12.3 -6.75
Q 8.7 -6.7 7.15 -5.65
L 3.25 -5.8 0 -5.5 -13.25 -4.25 -22.85 -2.85 -23 -2.9 -23 -2.25 -21.2 4.5
Q -19.25 11.65 -18.85 15
L -12.5 15.05
Q 14.9 15.05 21.45 13.3 23.7 12.7 23.7 11.85
L 23.25 10.6
Q 23.25 8.45 22.65 6.45
L 22 3.45 25.25 3.9 33 4.75
Q 34.25 4.75 33.8 4.1
L 35.8 4.6
Q 32.6 9.2 32.6 15.4 32.6 16.6 33.55 19.85 34.8 24.25 36.9 28 43.3 39.35 54.3 39.35 68.25 39.35 74.8 30.85 78.8 25.65 78.8 20.75 78.8 8.65 71.6 1.75 65.2 -4.35 55.7 -4.65 46.45 -4.9 39.8 0.35 37.95 1.8 36.6 3.5
L 36.25 3.5 36.3 3.55 36.35 3.55 36.5 3.65 36.45 3.7 36.25 3.65 34.1 3.2 31.75 2.8
Q 30.2 2.2 28.05 2.3
L 25.85 2.65 23.75 2.6 22.3 2.8 21.9 2.8 21.75 1.55
Q 21.65 0.65 21.7 -0.65
M 2.6 -3.55
L 6.65 -3.95 20.1 -3.6 20.95 2.75 19.05 2.7 19.05 3.25 21.05 3.4 21.05 3.45
Q 21.75 8.05 21.75 10.15
L 21.6 12.05 4.95 12.1
Q -4.65 12.2 -11.85 13.75
L -17.85 13.55 -19.2 6.25
Q -20 1.7 -21.35 -1
L -14.55 -1.85 -7.75 -3.05 -4.25 -3.45 -4.15 -3.15 -3.75 -3.15 2.6 -3.55
M 61.85 17.9
L 61.8 17.85 61.9 17.85 61.85 17.9
M 63.65 16.85
Q 63.65 15.55 61.8 14.4 60 13.25 57.75 12.95
L 57.15 12.9 50.1 8.9
Q 42.7 4.9 38.9 3.85
L 40 2.5
Q 39.75 2.05 38.75 2.05 63 -7.8 72.4 4.1 77.3 10.35 77.3 20.85 77 25.4 74.05 29.5 68.25 37.6 55.05 37.6 44.5 37.6 38.5 27.25 36.5 23.8 35.3 19.75 34.4 16.75 34.4 15.6 34.4 11.85 35.65 9.05 36.45 7.1 38.35 4.6
L 53.05 12.8 53.85 13.25
Q 51.8 14.2 51.8 17.15 51.8 17.95 52.95 18.75 54.8 20.1 58.75 20.1 61 20.1 62.4 19 63.65 18.05 63.65 16.85 Z"/>
</g>

<g id="Graphics_Symbol_269_0_Layer2_0_FILL">
<path fill="#000000" fill-opacity="0.25098039215686274" stroke="none" d="
M -6.4 37.4
L -6.4 25.85 -17.9 25.85 -17.9 37.4 -6.4 37.4
M -8.8 -3
L -14.2 -3.5
Q -19.4 -3.6 -21.55 -1.7 -23.7 0.2 -18.9 7.7
L -18.25 13.95
Q -18.15 14.6 -11.3 13.9
L -9.05 13.9 -9 11.65 -9.2 5.2
Q -9.6 1.45 -10.9 -2.5
L -8.8 -3
M 8.9 36.3
Q 13.75 36.45 19.25 36.1 23.45 36.2 22.35 28.05
L 22.35 21.85
Q 21.35 21.75 15.45 23.1
L 7.1 25.05 8.9 25.25
Q 9.2 32.65 8.9 36.3
M 77.95 20.1
Q 78.75 13.4 73.75 5.1 68.75 -3.25 56.3 -3.75 43.85 -4.25 38.7 1.7 33.5 7.6 33.35 16.3 33.15 24.95 40.35 32 47.35 38.8 57.7 38.5 68.05 38.15 72.55 32.5 77.05 26.8 77.95 20.1
M 69.6 4.8
Q 75 9.95 75 17.25 75 24.55 69.6 29.7 64.2 34.85 56.55 34.85 48.9 34.85 43.5 29.7 38.1 24.55 38.1 17.25 38.1 9.95 43.5 4.8 48.9 -0.35 56.55 -0.35 64.2 -0.35 69.6 4.8
M 68.3 17.2
Q 68.3 13.65 65.2 11.15 62.05 8.65 57.6 8.65 53.15 8.65 50.05 11.15 46.9 13.65 46.9 17.2 46.9 20.75 50.05 23.25 53.15 25.75 57.6 25.75 62.05 25.75 65.2 23.25 68.3 20.75 68.3 17.2
M 20.55 -4.85
L 11.75 -5.25 7.8 -4.65 5.65 -4.1
Q 6.35 -1.35 7.1 6.8 7.6 12.55 8.65 12.55 15.75 12.8 18.15 12.55
L 21.45 12.2 22.8 12.05 23 11.9
Q 22.75 11 21.85 5.25 20.8 -1.45 20.55 -4.85 Z"/>
</g>

<g id="Graphics_Symbol_269_0_Layer1_0_FILL">
<path fill="#FFFFFF" fill-opacity="0.25098039215686274" stroke="none" d="
M 71.75 14.7
Q 71.75 10.65 68.25 7.4 63.65 3.1 54.65 3.1 46.45 3.1 43.5 6.7 41.5 9.15 41.5 14.65 41.5 23.2 46.05 27.3 49.2 30.15 52.95 30.15 62.35 30.15 66.5 27.35 71.75 23.85 71.75 14.7
M 65.8 8.65
Q 69.45 11.9 69.45 16.5 69.45 21.1 65.8 24.4 62.1 27.65 56.9 27.65 51.7 27.65 48.05 24.4 44.35 21.1 44.35 16.5 44.35 11.9 48.05 8.65 51.7 5.35 56.9 5.35 62.1 5.35 65.8 8.65
M -1.9 24.6
L -1.9 36 5.35 36 5.35 24.6 -1.9 24.6
M -5.75 -2.9
L -6.95 -2.05
Q -6.45 7.05 -5 11.2 -4.05 14 -2.9 14
L 4 12.45 4 8.15 0.35 -3.5
Q -0.6 -3.85 -1.05 -4.2
L -1.95 -4.95 -2.35 -4.85 -2.5 -4.1 -2.45 -3.4
Q -4.25 -3.7 -5.75 -2.9
M -5.05 -3.1
L -4.9 -3 -5.15 -2.85 -5.05 -3.1 Z"/>
</g>

<g id="Graphics_Symbol_269_0_Layer0_0_FILL">
<path fill="#FFFFFF" stroke="none" d="
M 16.7 23.5
L 11.4 23.9 11.4 24.3
Q 15.4 25.55 19.75 25.55 21 25.55 21.1 25.15
L 21 25 21.25 24.75 21.2 27.95
Q 21.15 30 22 31.25
L 22.55 30.9 22.8 27.05
Q 22.8 24.35 22.25 22.9 18.3 23.9 16.7 23.5
M 59.05 -1.3
L 59.8 -0.9 61 -0.55
Q 60.3 0.05 61.1 0.75
L 62.25 2
Q 60.95 1.5 60.3 1.5
L 59.85 1.6 59.8 1.8 59.85 2.25 63.2 4.6
Q 65.9 6.5 66.95 6.5 67.55 6.5 67.5 6.25
L 67.45 5.55
Q 67.4 5.2 67.5 5.1
L 70.8 8.05 71.25 8 71.6 7.4 71.8 6.6
Q 71.8 6.15 70.35 4.25 68.75 2.15 67.5 1.5
L 64.25 -1.1
Q 61.95 -2.65 61.1 -2.5
L 61.05 -2.25 62 -1.1 60.55 -1.7 59.55 -2 59.1 -1.9 59.05 -1.85 59.05 -1.3
M 7.9 -3.35
L 8 -3.15 13 -2.9 17.25 -2.65 17.6 1.85
Q 17.95 4.5 19 4.5 19.65 4.5 19.55 4.25
L 19.55 -1.9 19.75 -1.6 19.85 -0.25 19.75 3.3
Q 19.85 5.5 20.75 6.75
L 21.25 6.5 21.3 4.7
Q 21.55 2.3 21.25 -0.05 20.65 -4.8 17.75 -4.8 17.2 -4.8 17.1 -4.4 17 -4 15.95 -4 15 -4 11.65 -4.9
L 8.15 -5.55
Q 8.55 -5.2 9.25 -4.9
L 10.65 -4.4
Q 7.75 -4.4 7.75 -3.85 7.75 -3.5 7.9 -3.35 Z"/>
</g>

<g id="MovieClips_Symbol_228_4_Layer1_0_FILL">
<path fill="#009966" stroke="none" d="
M 15.5 35.75
L 19.25 36.1
Q 21.3 36.15 21.75 34.35 22.2 32.7 22.5 29.65
L 22.75 25.9
Q 22.75 24.3 22.1 23.1
L -17.5 27 -17.75 31.5 -17.35 36.75 -17.25 37.1 15.5 35.75
M 77.3 20.85
Q 80.35 11.1 70.55 1.35 60.7 -8.5 38.75 2.05 39.75 2.05 40 2.5
L 38.9 3.85 38.95 3.9
Q 36.35 7.4 35.65 9.05 34.4 11.85 34.4 15.6 34.4 16.75 35.3 19.75 36.5 23.8 38.5 27.25 44.5 37.6 55.05 37.6 68.25 37.6 74.05 29.5 77 25.4 77.3 20.85
M 20.1 -3.6
L 6.65 -3.95 -3.75 -3.15 -4.15 -3.15 -4.25 -3.45 -21.35 -1
Q -20 1.7 -19.2 6.25
L -17.85 13.55 -11.85 13.75
Q -4.65 12.2 4.95 12.1
L 21.6 12.05 21.75 10.15
Q 21.75 8.05 21.05 3.45
L 21.05 3.4 19.05 3.25 19.05 2.7 20.95 2.75 20.1 -3.6 Z"/>
</g>

<g id="MovieClips_Symbol_264_4_Layer1_0_FILL">
<path fill="#009966" stroke="none" d="
M 15.5 35.75
L 19.25 36.1
Q 21.3 36.15 21.75 34.35 22.2 32.7 22.5 29.65
L 22.75 25.9
Q 22.75 24.3 22.1 23.1
L -17.5 27 -17.75 31.5 -17.35 36.75 -17.25 37.1 15.5 35.75
M 20.1 -3.6
L 6.65 -3.95 -3.75 -3.15 -4.15 -3.15 -4.25 -3.45 -21.35 -1
Q -20 1.7 -19.2 6.25
L -17.85 13.55 -11.85 13.75
Q -4.65 12.2 4.95 12.1
L 21.6 12.05 21.75 10.15
Q 21.75 8.05 21.05 3.45
L 21.05 3.4 19.05 3.25 19.05 2.7 20.95 2.75 20.1 -3.6 Z"/>
</g>
</defs>

<g transform="matrix( 1, 0, 0, 1, -28.4,-10.7) ">
<g transform="matrix( 1, 0, 0, 1, 0,0) ">
<g transform="matrix( 1, 0, 0, 1, 0,0) ">
<use xlink:href="#Graphics_Symbol_269_0_Layer3_0_FILL"/>
</g>

<g transform="matrix( 1, 0, 0, 1, 0,0) ">
<use xlink:href="#Graphics_Symbol_269_0_Layer2_0_FILL"/>
</g>

<g transform="matrix( 1, 0, 0, 1, 0,0) ">
<use xlink:href="#Graphics_Symbol_269_0_Layer1_0_FILL"/>
</g>

<g transform="matrix( 1, 0, 0, 1, 0,0) ">
<use xlink:href="#Graphics_Symbol_269_0_Layer0_0_FILL"/>
</g>
</g>
</g>

<g transform="matrix( 1, 0, 0, 1, -28.15,-10.5) ">
<g transform="matrix( 1, 0, 0, 1, 0,0) ">
<use xlink:href="#MovieClips_Symbol_228_4_Layer1_0_FILL"/>
</g>
</g>

<g transform="matrix( 1, 0, 0, 1, -28.4,-10.7) ">
<g transform="matrix( 1, 0, 0, 1, 0,0) ">
<use xlink:href="#MovieClips_Symbol_264_4_Layer1_0_FILL"/>
</g>
</g>
</svg>
