
<svg xmlns="http://www.w3.org/2000/svg" version="1.1" xmlns:xlink="http://www.w3.org/1999/xlink" preserveAspectRatio="none" x="0px" y="0px" width="550px" height="400px" viewBox="0 0 550 400">
<defs>
<filter id="Filter_1" x="-20%" y="-20%" width="140%" height="140%" color-interpolation-filters="sRGB">
<feColorMatrix in="SourceGraphic" type="matrix" values="1 0 0 0 0 0 1 0 0 0 0 0 1 0 0 0 0 0 0.19 0" result="result1"/>
</filter>

<g id="Parts_Bodies_bodyMC_48_Layer14_0_FILL">
<path fill="#FFFFFF" stroke="none" d="
M 5.65 120.25
Q 5.35 119.6 5.1 120.3 4.6 121.8 2.8 122 1.25 122.15 -0.15 121.4 -1.1 120.9 -3.25 119.15 -5.15 117.55 -6.5 117.1 -7.95 116.6 -10.35 116.75 -13.7 116.95 -14.25 116.9 -16.15 116.8 -17.7 115.85
L -18.1 115.45
Q -17.95 114.2 -18.1 112.9 -18.55 110.65 -18.9 111.05 -20.5 113.05 -23.2 112.4 -25.55 111.8 -27.25 109.8 -29.85 106.6 -31.65 102.85 -33.4 99.1 -33.8 98.05 -35.45 93.8 -36.5 89.35 -36.8 88.2 -37.2 85.8
L -37.65 81.85 -37.55 79.5
Q -37.55 77.75 -37.4 75.85 -37.3 74.3 -36.9 71.95 -36.35 68.55 -36.3 68.05
L -36.3 67.9
Q -36.95 69.3 -37.75 72 -37.85 74 -38.25 75.15
L -38.45 77.35
Q -38.4 83.3 -38.3 84.75 -38.1 88.95 -37.4 92.1 -36.1 98 -34.75 101.35
L -33.7 103.65 -33.65 103.7
Q -31.55 109 -27.15 114.65 -25.7 116.35 -23.75 117.2 -21.55 118.15 -19.8 117.3 -19.8 117.4 -19.9 119.25 -20 120.55 -19.6 121.1 -17.5 124.05 -9.95 123.8 -8.1 123.45 -7.2 123.3 -5.6 123.05 -4.65 123.65 -4.05 124.05 -2.7 125.2 -1.5 126.25 -0.7 126.7 1.2 127.9 3.1 127.6 5.2 127.25 5.85 125.15 6.35 123.35 5.95 121.3 5.85 120.7 5.65 120.25
M 78.5 41.6
Q 79.9 39 78.7 34.6 76.35 23.1 69.6 18.25 63.55 13.9 55.6 15.9 47.9 17.8 41.6 24.75 35 32.15 32.65 42.3 29.4 51.45 30.2 70.4 31.05 88.9 35.25 106.8 39.8 126.15 46.3 135.45 53.8 146.05 62 140.2 61.85 136.45 63.2 133.15 65.1 129.45 66.05 127.1 69.75 117.8 67.1 99.25 63.55 84.85 65.6 71.25 68 55.55 77.65 43.65 77.25 43.4 77.6 42.95 77.8 42.65 78.5 41.6 Z"/>
</g>

<g id="Parts_Sets_Dog_dogBody_0_Layer0_0_MEMBER_0_MEMBER_0_MEMBER_0_FILL">
<path fill="#FFFFFF" stroke="none" d="
M 4.05 69.45
Q 4.05 69.55 3.05 69.45 3.3 70.9 3.05 72.25 3.65 71.05 4.05 69.45 Z"/>
</g>

<g id="Parts_Sets_Dog_dogBody_0_Layer0_0_MEMBER_1_FILL">
<path fill="#000000" stroke="none" d="
M 118 43.9
Q 119.15 40.35 117.7 37.1 116.2 27 109.05 17.9 102.2 9.1 92.65 4.25 82.7 -0.85 73.4 0.15 63.1 1.3 56.2 9.75 47.4 20.7 44.2 44.2 42.95 53.6 42 79.25 40.35 95.25 42.55 111.35 38.8 110.15 37.45 109.55 33.75 107.95 30.65 106.25 23.55 102.4 18 96.7 12.8 91.25 9.3 84.6 6.25 78.45 4.9 72.05
L 4.7 70.25
Q 4.6 69.45 4.25 68.8 3.95 68.35 3.45 68.6
L 3.3 68.75 2.95 69.45 2.9 69.6
Q -1.35 81.3 0.7 96.3 2.55 110.4 10.95 121.6 13.8 125.3 16.65 124.9
L 17.85 124.55
Q 17.95 126.65 18.85 128.65 20.25 131.25 23 131.8 25.45 132.3 28.5 130.3 31.4 128.45 34.45 130.75 36.15 132 39.7 134.75 40.85 135.3 42.1 135 43.4 134.7 44.2 133.7 44.8 132.95 45.05 131.85
L 45.75 131.3 46.2 131.05 46.05 131.15
Q 46.55 130.85 47.1 130.8
L 48.45 134.25
Q 48.95 135.8 49.85 137.45 49.95 137.65 49.9 137.85 57.4 153.65 69.45 156.15 83.4 159.1 101.85 143.55 107.75 132.35 107.85 119.1 107.9 113 105.55 96.15 103.55 82 104.8 73.45 106.65 60.85 115.55 49.9 117.35 45.95 118 43.9
M 99.55 43.3
Q 98.7 39.55 98.55 39.4 98.2 38.9 97.9 43.15 98.2 47.3 96.2 48.95 94.45 50.4 91.65 49.4 88.85 48.4 86.75 45.5 84.35 42.35 84 38.3 83.3 41.9 84.45 45.9 85.6 49.75 87.95 52.25 90.45 54.9 93.25 54.7 96.4 54.45 99.15 50.55 100.1 53.75 102.3 55.75 104.95 58.15 108.4 57.8 103.95 67.85 102.55 76.2 100.8 86.6 103.3 96.25 107.4 111.45 106.1 123.4 104.8 135 98.6 141.95 92.35 148.95 82.1 150.1 71.45 151.35 57.85 146.1 48.8 136.7 45.45 120.55 43.6 111.5 42.7 91.15
L 42.75 91.5
Q 41.6 48.4 50.95 26.1 58.8 7.3 73.1 4.95 85.15 3 98.2 12.55 110.2 21.35 115.1 33.3 112.7 30.7 112.95 31.2 113.15 31.6 115.05 34.75 119.55 42.8 116 44.7 114.3 44.95 113.6 43.75 113.35 43.4 112.2 40.05 111.35 43.05 113.4 49 113.8 53.3 105.05 52.65 101.7 52.8 99.55 43.3
M 3.85 71.35
L 3.9 73.05
Q 4.45 80.85 8.2 88.4 11.65 95.4 17.5 101.45 22.85 107.2 30.05 110.85 33.55 112.65 37.45 113.55 38.2 113.75 40.3 114.55 41.95 115.2 43.15 115.3 43.95 119.75 44.85 123.25
L 44.75 123.25
Q 44.9 123.35 44.9 123.55 45.05 124.75 45.4 125.6
L 45.45 125.6 45.6 126.2 45.95 127.05
Q 45.4 127.5 44.85 128.3
L 44.35 129.25 44.25 129.4
Q 43.7 129.9 43.4 130.05 42.5 130.3 41.8 130.3 39.65 130.3 38.05 128.8 36.1 126.9 35 126.05 33.05 124.5 31.25 124.45 30.25 124.4 29.2 125 28.55 125.35 27.3 126.1 25.45 126.9 23.6 126.45 21.55 126.05 20.1 124.4
L 19.4 123.25
Q 20.15 122.2 20.3 120.95 20.5 119.55 20.35 118 20.25 117.55 20.15 117.3 19.95 116.7 19.75 117 18.95 118.1 18.6 119.25 17.85 119.75 16.8 119.9 15.35 120.05 14.15 119.45 12.75 118.75 11.4 117.1 10.8 116.35 9.35 114.15 3.85 105.55 2 95.5 0.1 85.5 2.15 75.45
L 2.9 73.1 3.35 71.45 3.35 71.4
Q 3.55 71.15 3.85 71.35 Z"/>
</g>

<g id="Parts_Sets_Dog_dogBody_Assets_Layer_1__Compound_Path__0_Layer0_0_FILL">
<path fill="#000000" stroke="none" d="
M 117.9 43.85
Q 118.95 38.6 116.05 34.25 113.8 24.05 105.7 15 97.75 6.15 87.8 2.25 77.2 -1.9 68.6 1.5 58.85 5.35 54.1 18.3 53.05 15.6 51.05 20.8 49.25 25.4 48.65 30.05 48.6 29.7 48.35 29.6 48.05 29.45 47.8 30.15
L 47.35 31 47.05 32.05
Q 47.05 32.4 46.7 32.4
L 46.35 33.1
Q 46 35.55 45.35 38.55 45.85 38.65 45.75 39.05
L 45.75 39.45 45.7 39.7
Q 45.55 41 45.05 42.55
L 44.9 43.8 44.4 46.05
Q 43.85 48.3 43.6 50.95 43.45 52.3 43.35 55.05
L 43.4 55.25
Q 43.35 57.3 42.95 59.3 42.9 59.9 42.95 60.6 42.95 61 42.65 61.05 42.6 63.3 42.5 67.85 42.4 69.75 42.15 71.3
L 42.1 71.6
Q 42.3 71.8 42.3 71.95
L 42.3 72.95
Q 42.45 73.05 42.45 73.15
L 42.5 73.35 42.45 73.45 42.4 76.15
Q 42.4 76.4 42.2 76.55
L 42.15 77.2
Q 42 77.75 41.9 78.85 42.1 83.4 42.65 94.15 43.15 103.75 43.3 108.85 42.75 108.85 42.5 108.8 42.95 110.1 42.65 111.45 42.55 112 42.05 111.8 41.6 111.7 41.7 111.2
L 41.75 111 41.75 110.95 41.8 110.9 41.8 110.55
Q 38.85 110.1 36.3 108.6 32.8 107.15 31.1 106.25 28.6 104.95 25.95 103.2 23.45 101.7 21.45 100 21.15 99.7 19.7 98.1 18.65 96.9 17.8 96.3 17.5 96.1 17.6 95.8
L 15.6 93.55
Q 14.95 92.7 14.25 92.1 12.85 90.85 11.95 89.3 11.7 88.95 12.05 88.7 6.85 81.9 3.3 74.15 2.5 73.85 1.7 74.15
L 1.6 74.45
Q 1.7 74.65 1.6 74.8
L 1.15 75.85
Q 1.1 77.45 0.55 79.05
L 0.45 80.85
Q 0.45 81.05 0.25 81.2 0.2 82.1 0.25 82.95 0.4 84.5 0.3 86.45 0 88.1 0 89.75
L 0.15 90.55
Q 0.55 91.95 0.7 93.8 1.15 95.65 1.15 95.8 1.8 97.6 1.8 99.75 2.1 101.45 2.7 103 2.8 103.2 2.7 103.4 2.65 103.65 2.4 103.7
L 2.3 103.75
Q 3.2 106.85 5 111.45 5.3 111.55 5.35 111.75 5.75 112.9 6.6 114.25 6.75 114.15 7 114.25 7.6 114.7 7.9 115.4 8.1 115.9 8.5 116.55 8.7 116.75 8.5 117 10 119.25 11.95 121.05
L 12.55 121.5 12.75 121.6 14.45 122.8
Q 15 123.1 16.6 123.8 16.6 123.55 16.85 123.3 17.3 123.1 17.55 123.5 18.1 124.3 18.45 125.05 19.45 126.6 19.9 127.6 20.15 127.9 19.85 128.2 19.85 128.45 19.75 128.55
L 19.7 128.8 20.05 129
Q 20.45 129.2 20.25 129.55
L 20.2 129.65
Q 23.9 130.8 27.45 129.4 27.6 129.35 28.5 129.75 29.05 129.05 29.75 128.75 30.55 128.45 31.65 128.6 33.55 129.05 35.05 130.25
L 35.15 130.35 35.35 130.4
Q 36.8 131 37.95 131.95
L 40.4 132.75
Q 41.25 133.15 42.1 133.2 42.55 133.1 42.8 132.95 43.05 132.8 43.35 133
L 43.5 132.9
Q 43.75 132.75 44 132.9 43.95 132.8 44 132.65 44.15 132.05 44.6 131.7 44.55 131.5 44.7 131.25 45.25 130.7 45.95 130.5 46.35 130.3 47.2 130.2 47.2751953125 128.355859375 46.85 126.65 52.3955078125 145.177734375 65.8 151.2 78.05 156.7 90.45 149.95 101.9 143.6 105.85 130.25 110.4 114.7 102.85 94.15 101.15 88.05 102.9 78.35 104.35 70.25 107.8 61.55 108.55 59.75 112.4 51.75 114.3 47.75 113.35 47.2 116.8 49.05 117.9 43.85
M 98.7 38
Q 96.45 37.15 94.15 44.05 91.75 45.9 88.2 43.05 85.1 40.6 84.15 37.75 83.1 41.05 84.35 44.7 85.6 48.15 88.15 50.2 90.85 52.35 93.5 51.7 96.55 50.95 98.45 46.65 98.55 48.3 99.75 50.05 100.45 51 101.85 52.9 104.05 56.5 100.25 61.85 95.15 69.15 95.75 83.65 96.05 92 98.35 109.35 99.7 124.1 96.45 131 92.05 140.2 78.3 140.7 59.5 132.8 52.1 101.5 45.45 73 51.5 44.5 54.4 30.85 59.8 22 65.65 12.55 73.4 10.3 91.55 5.1 114.7 39.55
L 114.45 39.55
Q 112.95 38.8 111.8 38.45 109.6 37.8 110.05 42.05 108.05 49.05 106 48.35 104.75 47.9 102.4 43.2 100.05 38.5 98.7 38
M 42.6 118.1
Q 46.9 120.1 44.7 124.75 25.65 125.2 13.1 113.7 -1.45 100.35 3.2 77.75 9.35 105.9 30.55 114.05 35.5 115.95 42.6 118.1 Z"/>
</g>
</defs>

<g transform="matrix( 1, 0, 0, 1, -33.5,-72.6) ">
<g transform="matrix( 1, 0, 0, 1, 0,0) ">
<use xlink:href="#Parts_Bodies_bodyMC_48_Layer14_0_FILL"/>
</g>

<g transform="matrix( 1, 0, 0, 1, -39.05,-3.55) ">
<g transform="matrix( 1, 0, 0, 1, 0,0) ">
<use xlink:href="#Parts_Sets_Dog_dogBody_0_Layer0_0_MEMBER_0_MEMBER_0_MEMBER_0_FILL"/>
</g>

<g transform="matrix( 1, 0, 0, 1, 0,0) ">
<use xlink:href="#Parts_Sets_Dog_dogBody_0_Layer0_0_MEMBER_1_FILL"/>
</g>

<g transform="matrix( 1, 0, 0, 1, 0,0.45) ">
<g transform="matrix( 1, 0, 0, 1, 0,0) ">
<use filter="url(#Filter_1)" xlink:href="#Parts_Sets_Dog_dogBody_Assets_Layer_1__Compound_Path__0_Layer0_0_FILL"/>
</g>
</g>
</g>
</g>
</svg>
