
<svg xmlns="http://www.w3.org/2000/svg" version="1.1" xmlns:xlink="http://www.w3.org/1999/xlink" preserveAspectRatio="none" x="0px" y="0px" width="550px" height="400px" viewBox="0 0 550 400">
<defs>
<g id="Layer0_0_FILL">
<path fill="#000000" fill-opacity="0.5019607843137255" stroke="none" d="
M 76.2 305.1
Q 74.05 311.5 75.3 317.85 85.35 320.25 97.05 317.9 114.3 314.75 131.7 316.4 132.6 308.9 130.45 300.85 123.9 276.05 102.45 271.25 83.6 282.9 76.2 305.1
M 8.3 251.2
Q 8.2 253.2 7.75 255.2 2.85 276.85 14.3 295.65 28.1 318.4 43.85 293.5 53.25 278.6 47.2 260.9 40.4 240.95 34.9 220.5 29.6 200.65 17.25 184.4 9.1 173.65 -3.05 167.7 10.65 208.4 8.3 251.2
M 114.1 135.95
L 94.95 136.95
Q 82.2 180.55 104.7 217.6 108.05 223.1 107.3 229.55 103.45 262.5 136.55 276.85 156.25 285.45 162.6 305 165.1 312.6 165.7 320.75 159.55 328.5 162.8 337.85
L 157.1 339.2
Q 225.1 366.3 296.95 353.3 304.95 351.75 312.25 344.65 319.55 337.55 285.5 324.3 263.45 312.25 244.05 304.45 229.75 298.7 215.55 292.45
L 199.6 294.85
Q 164.5 235.55 121.8 181.55 132.05 156.45 114.1 135.95
M 454.7 126
Q 449.3 138.75 445.6 151.9 438.3 177.65 442.65 203.65 445.2 218.8 441.1 233.05 436.8 248.05 424.75 258.45 418.95 263.4 416.2 270.4 407.6 292.3 410.3 316.1
L 412.15 317 411.25 322.1 421.35 326.15
Q 439.9 333 459.05 337.6 507.55 349.45 555 341.55
L 555 137 454.7 126
M 385.5 176.9
L 387 176.55
Q 405.1 168.45 408.75 146.65 409.9 139.85 410.05 132.95
L 371.9 132.4 227.85 134.9
Q 227.85 146.3 229.9 157.65 235.45 188.5 250.5 216.1 261.85 237 271.15 259.05 276.15 270.9 278.9 283.5 280.95 293 289.05 298 319.25 316.55 352.7 305.7 359.65 303.4 366.05 299.7 355.35 256.4 368.65 213.85 374.8 194.3 385.5 176.9 Z"/>
</g>
</defs>

<g transform="matrix( 1, 0, 0, 1, 0,0) ">
<use xlink:href="#Layer0_0_FILL"/>
</g>
</svg>
