
<svg xmlns="http://www.w3.org/2000/svg" version="1.1" xmlns:xlink="http://www.w3.org/1999/xlink" preserveAspectRatio="none" x="0px" y="0px" width="550px" height="400px" viewBox="0 0 550 400">
<defs>
<g id="Layer0_0_FILL">
<path fill="#000000" fill-opacity="0.5019607843137255" stroke="none" d="
M -2.45 291.85
L -2.15 292.3
Q 1.7 290.15 0.7 283.85 -3.8 287 -2.45 291.85
M 227 280.3
L 227.2 275.35 224.7 274.95 220.4 279 223.9 281.5 227 280.3
M 249.55 255.15
Q 241.3 258.3 245.2 265.55 247.3 269.55 251.2 270.85
L 249.55 255.15
M 54.45 323.85
L 67.15 320.85 76.95 283.1
Q 60.05 299.95 53.2 322.5
L 54.45 323.85
M 63.45 287.5
L 60.1 289.6
Q 58.15 293.2 59.65 297.25
L 60.2 299 65.7 292 63.45 287.5
M 88.05 241.1
L 82.75 245.45
Q 74.25 253 72.65 264.25
L 79.2 265 80.95 272 83.15 270.15
Q 88.1 256.15 88.05 241.1
M 74.85 171.6
L 74.85 167.95 67.25 167.95 67.25 171.6 74.85 171.6
M 35.95 176.75
L 38.1 179.5
Q 46.65 179.1 45.65 167.25
L 45.5 166.45 43.65 166.4 35.95 176.75
M 162.1 180.9
L 164.6 181.5 165.4 166.5 164.95 165.45
Q 147 164.45 157.05 178.05 158.6 180.15 162.1 180.9
M 192.4 159
L 192.15 170.8 214.35 174.3 214.45 172.85 201.55 164.85 213.4 166.2 212.05 163.5 192.4 159
M 377.85 257.4
L 377.8 260.55 381.25 263 382.75 261.6
Q 385.45 258.9 385.05 255.2
L 377.85 257.4
M 418.55 238.2
L 418.55 242.35 424.9 242.35 424.9 238.2 418.55 238.2
M 410 167.75
L 416.3 167.05 416.35 163.4 415.2 162.5
Q 409.5 163.8 409.95 167.65
L 410 167.75 Z"/>
</g>
</defs>

<g transform="matrix( 1, 0, 0, 1, 0,0) ">
<use xlink:href="#Layer0_0_FILL"/>
</g>
</svg>
