
<svg xmlns="http://www.w3.org/2000/svg" version="1.1" xmlns:xlink="http://www.w3.org/1999/xlink" preserveAspectRatio="none" x="0px" y="0px" width="550px" height="400px" viewBox="0 0 550 400">
<defs>
<linearGradient id="Gradient_1" gradientUnits="userSpaceOnUse" x1="275.85" y1="291.35" x2="275.85" y2="404.65" spreadMethod="pad">
<stop  offset="0%" stop-color="#B58D7D"/>

<stop  offset="100%" stop-color="#BCC08B"/>
</linearGradient>

<g id="Layer0_0_FILL">
<path fill="#725035" stroke="none" d="
M -0.7 193.3
Q -2.05 193.35 -3.05 193.95
L -3.05 199.7 -0.7 193.3
M 128.95 241.25
L 129.4 241
Q 125.4 227.7 113 224.25 111.55 223.95 110.2 223.45
L 108.5 224.7 65.85 223.45 65.9 221.55
Q 85.35 218.8 104.85 220.35 97.3 214.4 98.95 203.1
L 95.35 209.7
Q 92.45 211.2 89.15 211.45 63.4 214.2 40.4 207.7
L 42.2 205.75 40.2 205.8 39.4 206.1
Q 17.3 209.35 -3.05 200.9
L -3.05 262.85
Q 17.2 260.95 37.45 264.5 53.55 267.1 65.4 278.25 118.1 257.25 163.3 282.1 165 275.8 174.4 273 177.3 272.1 179.9 271.9
L 179.75 271
Q 175.45 268.75 172.25 265.95
L 171.95 265.65
Q 148.85 266.8 134.3 251.45
L 143.5 250 141.65 249.75
Q 135 248.15 130.75 242.8
L 130.7 242.8
Q 128.75 245.25 125.6 245.75 85 253.1 43.9 244.5
L 43.85 242.45
Q 64.55 237.55 86.35 243.45 108.2 249.35 128.95 241.25
M 109.2 230.5
L 110.05 233.85 65.4 229.5 65.9 226.45 109.2 230.5
M 108.2 237.5
L 109.05 240.85 55.45 236.7
Q 56.45 230.3 63.1 231.2 85.8 233.2 108.2 237.5
M 43.95 222.75
L 49.1 219.2 65.45 219.5 64.25 220.25
Q 54.85 225.35 43.95 222.75
M 29.2 231.75
L 3.2 235.4
Q 5.9 233.8 9.45 232.75 19.2 230.05 29.2 231.75
M 1.5 228.1
Q 7.35 223.15 15 222.7
L 25.35 222.4 26.35 224.1 1.5 228.1
M 555 208.25
L 552.1 208.25 555 215 555 208.25
M 337.25 235
Q 332.35 233.95 329.35 230.15 316.25 213.4 303.8 195.8 302.3 196.8 300.75 197.75
L 293.9 196.25 296.75 199.25 294.45 201
Q 300.3 206.4 299.75 213.9
L 296.15 216.75 294.55 216.05
Q 278.6 211.75 274.55 197.95
L 273.75 198 271.95 202.7
Q 271.65 204.65 270.15 205.85 268.65 207 266.8 206.75 264.9 206.5 263.75 205 262.55 203.45 262.75 201.55 259.15 205.25 257.75 205.25 257.35 205.25 256.95 204.9
L 253.75 211.25 242.4 203.35 238.95 206.2 230.7 204.35 231.35 199.8 230.1 199.75
Q 224.7 205.05 216.45 205.75 188.25 207.45 162.7 201.5
L 162.5 199.75 157.8 203.4 159.8 209.9 156.05 209.9
Q 167.05 221.3 156.95 231.2
L 146.05 223.1 159.95 241.7
Q 170.8 245.1 182.3 246.9 203.45 250.6 225 250.25 246.85 249.85 268.45 252.6 268.45 250.45 271.55 248.9 274.6 247.35 278.95 247.35
L 277 244.75 277.2 244.4
Q 293.3 233 310.55 242.6 322.85 236.3 337.25 235
M 317.25 220.75
L 318.25 221.25 309.55 222.55
Q 312.65 219.1 317.25 220.75
M 312.3 211.55
L 311.85 214.4 300.25 215.7 300.15 213.4 302.05 211.9
Q 307.6 209.6 312.3 211.55
M 290.6 225.5
L 290.55 227.95
Q 280.95 233.3 270.75 228.75 277.7 219.1 290.6 225.5
M 301.6 232.9
Q 296.6 230.2 298.2 225
L 298.8 223.55
Q 306.5 220.45 310.7 227.95
L 309.9 229.6 301.6 232.9
M 269 216.75
Q 269.7 215.25 270.3 214.9 271.3 214.25 274.25 214.25
L 277.8 214.6
Q 279.5 214.95 280.25 215.5 280.45 216.8 280.1 217.2 279.6 217.75 275.75 217.75 270.35 217.75 269 216.75
M 245.7 218.5
L 245.6 216.65 257.4 214.7
Q 258.7 216.1 256.3 217.2 250.4 219.7 245.7 218.5
M 257.55 216.95
L 259 216.5 259.75 218
Q 259.3 219.4 257.75 220 256.5 219.5 255.75 218.75
L 256.65 217.65 257.55 216.95
M 251.25 232.45
L 250.5 235.95
Q 228.7 236.65 206.75 233.3
L 164.25 227.5
Q 171.5 224.35 179.6 225.1 216 227.25 251.25 232.45
M 259.75 237.5
L 261 241.25 258.75 243.25 257.6 242
Q 247.8 232.5 257.4 222.55 268 220.95 267 236.75
L 261.1 239.25 260.75 238 259.75 237.5
M 239.25 222.5
L 238.35 225.1
Q 213.3 225.9 188.75 219.5
L 188 217.25
Q 214.05 216.05 239.25 222.5
M 531.5 191.05
L 531.5 191.3
Q 544.65 192.85 550.65 204.15
L 550.9 204.2 555 203.75 555 185.15 552.95 186.05 552.8 186.35
Q 544.65 193.8 531.5 191.05
M 503.15 196.55
Q 501.55 197.2 499.9 197 478.3 193.85 457 196.15 436.35 198.4 415.9 197.45 394.8 196.1 374.75 189
L 376.9 188.65 362 179.55 317.45 190.7 317.55 191.55
Q 318.25 209.2 338.75 215.15
L 338.9 215.25
Q 343.55 212.8 348.25 214.25
L 346.3 214.95 348.25 215.85 347.5 217.5 345.25 215.2 339.5 215.75 340.1 216.25
Q 349.6 224.15 346.75 236.15 357.45 271.65 362.25 285.5
L 365.75 299.45
Q 387.3 313.7 411.9 322.25
L 411.65 306.85
Q 411.45 284.95 421.3 266.2 432.2 250.75 454.2 250.75 457.85 250.75 459.25 253.75
L 460.65 249.3
Q 461.55 246.35 464.2 246.75
L 464.45 246.25
Q 465.45 246.25 467.45 247.35
L 467.9 245.6 496.7 245.75 499.8 249.65 500.4 249.4 499.7 242.5 502.5 242.35 481.4 234.3
Q 481.4 224.55 494 228.05 515.8 234.15 537.45 229.75
L 538.75 230.4
Q 539.8 230.5 541.3 231.4 547.8 226.6 553.05 234.75
L 553.2 235 554.1 234.75
Q 553.75 233.1 552.95 231.9 548.25 224.7 540.7 220.7
L 540.55 213.65
Q 508.75 223.15 475.1 223.6
L 451.95 224.55
Q 445.9 225.2 440 224.45 398.4 223.75 358.25 216.5 375.4 211.9 394.95 215.05 415.5 218.4 436.2 219 455.7 219.6 475.2 217.3
L 517.1 216.05
Q 517.65 216.2 516.25 215.7
L 540.15 210.9 539.05 203.6 538.6 203.15
Q 526.35 199.55 519.2 191
L 518.95 191 518.55 193.85 503.65 194.05 503.15 196.55
M 340.55 192.9
L 341.15 191
Q 341.5 188.65 344 190.2
L 347.25 192.5 344.1 194.55 344.3 197.95 343.75 199 339.85 198.15 340.55 192.9
M 335 196.4
L 334.5 192.5
Q 339.4 192.9 338.3 198.6
L 335 196.4
M 330.9 193.3
L 330.95 193.5 335.3 198.7 333.75 201.8 330.05 199.4
Q 325.2 195.1 330.9 193.3
M 349 195.5
Q 349 193.65 349.4 192.75 349.8 191.9 350.75 191.5 351.85 192.75 352.4 194.65
L 353.25 198
Q 352.75 199.45 350.75 199.75 349.5 198.85 349.2 198.1 349 197.5 349 195.5
M 362.25 209.4
L 363 206.5 375.55 197.85
Q 383.8 202.55 387.45 209.7
L 362.25 209.4
M 346.25 204.25
L 350.6 207.65 355.25 207.2 351 208.65 350.95 212.2 347 212.5 346.25 204.25
M 338.25 209.45
Q 335.45 208.6 337.05 207.25
L 337.65 207.1
Q 342 206.1 343.85 209.55
L 344 209.5 343.85 209.6
Q 344.55 210.9 344.85 212.9
L 340.3 211.75 335.35 210.8 338.8 210.2 338.25 209.45
M 511.75 208.8
L 511.45 207.1 512.25 205.45
Q 525.1 204.2 534.7 208.4 523.35 211.4 511.75 208.8
M 320.7 194.95
L 320.9 194.95 322.75 192.25
Q 327.4 195.35 325.75 199.65
L 323.75 200.75 321.4 199.7 320.8 197.95 319.75 198
Q 319.25 196.5 319.25 195.75 319.7 195.1 320.7 194.95 Z"/>

<path fill="#DFA688" stroke="none" d="
M 277 244.75
L 278.95 247.35 282.25 248.5 281.2 249.95
Q 292.75 265.8 310.4 271.45
L 317 266 313.4 256.2 310.55 242.6
Q 293.3 233 277.2 244.4
L 277 244.75
M 65.4 278.25
Q 53.55 267.1 37.45 264.5 17.2 260.95 -3.05 262.85
L -3.05 303.65
Q 4.55 309 17.75 308.1 33 306.8 41.8 318.8 46.2 324.85 51.9 323.15 71.9 317.35 92.9 315.8 113.05 314.7 132.4 320.45 134.85 346.9 161 344.45
L 153.5 343.8
Q 153.75 333.55 157.45 324.05 165.35 303.85 163.3 282.1 118.1 257.25 65.4 278.25
M 159.95 241.7
L 160.85 242.75
Q 168.3 253.15 171.95 265.65
L 172.25 265.95
Q 175.45 268.75 179.75 271
L 181.2 271.8
Q 184.65 271.75 187.3 273.45 205.35 284.95 223.9 295.85 245.8 298.2 267.5 295.6 278.5 294 284.35 285.5
L 282.25 283.95 282.1 281.75 285.25 280.6 285 275 270.25 276
Q 266.65 265.3 270.7 254.95
L 268.7 254.35 268.45 252.6
Q 246.85 249.85 225 250.25 203.45 250.6 182.3 246.9 170.8 245.1 159.95 241.7
M 546.4 238.95
L 544.5 240.15
Q 546.2 250.85 554.05 258.6
L 555 257.8 555 238.45 554.9 238.15 553.2 235 553.05 234.75
Q 547.8 226.6 541.3 231.4 545.2 233.6 546.2 237.8
L 546.4 238.95
M 532.45 234.25
L 538.75 230.4 537.45 229.75
Q 515.8 234.15 494 228.05 481.4 224.55 481.4 234.3
L 502.5 242.35
Q 507.45 242.6 512.55 246.8 516.9 250.4 518.55 253.95
L 519.85 255.05
Q 528 264.3 539.2 259.5
L 539.7 257.7 539.7 256.15 532.45 234.25
M 460.65 249.3
L 459.25 253.75 459.95 258.5 460.65 258.25
Q 466.7 255.35 464.45 247.55
L 464.2 246.75
Q 461.55 246.35 460.65 249.3
M 467.9 245.6
L 467.45 247.35
Q 472.6 250.15 484.25 260.2 494.9 269.4 498.75 274.75
L 501.35 274.75
Q 505 262 499.8 249.65
L 496.7 245.75 467.9 245.6 Z"/>

<path fill="#110809" stroke="none" d="
M 270.15 205.85
Q 271.65 204.65 271.95 202.7
L 268.45 202.15 266.5 196.05 262.75 201.55
Q 262.55 203.45 263.75 205 264.9 206.5 266.8 206.75 268.65 207 270.15 205.85
M 157.45 324.05
Q 153.75 333.55 153.5 343.8
L 161 344.45
Q 182.9 346.65 203.15 338.35 210.8 335.2 219 334.75 253 355.25 291.8 362.65 294.05 345.25 308.25 335.1 309.3 334.35 310 333.1 265.4 318.25 223.9 295.85 205.35 284.95 187.3 273.45 184.65 271.75 181.2 271.8
L 179.9 271.9
Q 177.3 272.1 174.4 273 165 275.8 163.3 282.1 165.35 303.85 157.45 324.05
M 101.55 196.5
L 102.85 196.85 98.95 203.1
Q 97.3 214.4 104.85 220.35
L 111.5 221.55 110.2 223.45
Q 111.55 223.95 113 224.25 125.4 227.7 129.4 241
L 129.7 241.4 130.3 241.3
Q 130.7 241.35 130.7 242.75
L 130.75 242.8
Q 135 248.15 141.65 249.75
L 143.5 250 134.3 251.45
Q 148.85 266.8 171.95 265.65 168.3 253.15 160.85 242.75
L 159.95 241.7 146.05 223.1 137.3 214.9 126.1 206.1 121.55 202.95 118.45 202.7 118.35 200.35 116.2 198.9
Q 109.7 193.4 102.25 196.05
L 101.55 196.5
M 274.65 197.35
L 274.55 197.95
Q 278.6 211.75 294.55 216.05
L 296.15 216.75 299.75 213.9
Q 300.3 206.4 294.45 201 291.45 201 289.35 199.5 287.25 198 287.25 195.85 278.5 190.35 274.65 197.35
M 238.75 197
L 240 197.75 239.75 199.6 231.35 199.8 230.7 204.35 238.95 206.2 242.4 203.35 253.75 211.25 256.95 204.9 254.8 198
Q 247.7 190.9 237.75 192.5
L 238.75 197
M 261 241.25
L 259.75 237.5 260.75 238 261.1 239.25 267 236.75
Q 268 220.95 257.4 222.55 247.8 232.5 257.6 242
L 258.75 243.25 261 241.25
M 259 216.5
L 257.55 216.95 256.65 217.65 255.75 218.75
Q 256.5 219.5 257.75 220 259.3 219.4 259.75 218
L 259 216.5
M 298.2 225
Q 296.6 230.2 301.6 232.9
L 309.9 229.6 310.7 227.95
Q 306.5 220.45 298.8 223.55
L 298.2 225
M 340.1 216.25
L 339.5 215.75 338.9 215.25 338.75 215.15
Q 318.25 209.2 317.55 191.55
L 317.45 190.7 316 188.6
Q 293.55 176.95 268.6 171.25
L 268.1 171.15 257 174.2 256.6 177.8
Q 266.7 190.1 282.05 184.45
L 283.15 183.85
Q 293.7 183.8 301.1 192.55
L 306.5 193.5 303.8 195.8
Q 316.25 213.4 329.35 230.15 332.35 233.95 337.25 235 322.85 236.3 310.55 242.6
L 313.4 256.2 317 266 310.4 271.45
Q 292.75 265.8 281.2 249.95
L 282.25 248.5 278.95 247.35
Q 274.6 247.35 271.55 248.9 268.45 250.45 268.45 252.6
L 268.7 254.35 270.7 254.95
Q 266.65 265.3 270.25 276
L 285 275 285.25 280.6 282.1 281.75 282.25 283.95 284.35 285.5
Q 295.15 297.2 309.9 293.5 335.35 287.45 321.65 270.45 326.5 265.15 334.1 265.8
L 338 269.95
Q 352.5 283.9 362.25 285.5 357.45 271.65 346.75 236.15 349.6 224.15 340.1 216.25
M 345.25 215.2
L 347.5 217.5 348.25 215.85 346.3 214.95 345.25 215.2
M 467.45 247.35
Q 465.45 246.25 464.45 246.25
L 464.45 247.55
Q 466.7 255.35 460.65 258.25
L 459.95 258.5 459.25 253.75
Q 457.85 250.75 454.2 250.75 432.2 250.75 421.3 266.2 411.45 284.95 411.65 306.85
L 411.9 322.25
Q 431.95 326.05 450.75 311.65 468.05 298.4 490.35 298.05 504.9 297.25 498.8 285.15 500.2 282.05 500.15 278.65 500.1 276.5 498.75 274.75 494.9 269.4 484.25 260.2 472.6 250.15 467.45 247.35
M 325 195.5
L 325.25 196.25
Q 324.85 196.8 323.05 197.4
L 320.8 197.95 321.4 199.7 323.75 200.75 325.75 199.65
Q 327.4 195.35 322.75 192.25
L 320.9 194.95 325 195.5
M 343.85 209.6
L 340.3 211.75 344.85 212.9
Q 344.55 210.9 343.85 209.6
M 338.25 209.45
L 338.8 210.2 343.85 209.55
Q 342 206.1 337.65 207.1
L 338.5 207.65
Q 339.9 208.65 338.25 209.45
M 350.6 207.65
L 346.25 204.25 347 212.5 350.95 212.2 351 208.65 347.25 209.5 350.6 207.65
M 349.4 192.75
Q 349 193.65 349 195.5 349 197.5 349.2 198.1 349.5 198.85 350.75 199.75 352.75 199.45 353.25 198
L 352.4 194.65
Q 351.85 192.75 350.75 191.5 349.8 191.9 349.4 192.75
M 330.05 199.4
L 333.75 201.8 335.3 198.7 330.95 193.5 330.05 199.4
M 344.3 197.95
L 340.55 192.9 339.85 198.15 343.75 199 344.3 197.95
M 344 190.2
Q 341.5 188.65 341.15 191 342.35 191 343.25 192.05 344.1 193.1 344.1 194.55
L 347.25 192.5 344 190.2
M 503.55 168.35
L 503.35 168.25
Q 502 168.1 500.95 167.5 500.4 167.3 500.45 166.45
L 499.75 166.4
Q 507.4 180.65 522.2 187
L 519.2 191
Q 526.35 199.55 538.6 203.15
L 539.05 203.6 540.15 210.9 540.55 213.65 540.7 220.7
Q 548.25 224.7 552.95 231.9 553.75 233.1 554.1 234.75
L 554.9 238.15 555 238.45 555 215 552.1 208.25 550.8 204.6 550.65 204.15
Q 544.65 192.85 531.5 191.3
L 531.5 191.05 529.65 190.7 530.2 187.5
Q 519.2 176.2 504.95 169.1
L 503.55 168.35 Z"/>

<path fill="#BB8875" stroke="none" d="
M 111.5 221.55
L 104.85 220.35
Q 85.35 218.8 65.9 221.55
L 65.85 223.45 108.5 224.7 110.2 223.45 111.5 221.55
M 130.7 242.8
L 130.7 242.75
Q 130.7 241.35 130.3 241.3
L 129.7 241.4 128.95 241.25
Q 108.2 249.35 86.35 243.45 64.55 237.55 43.85 242.45
L 43.9 244.5
Q 85 253.1 125.6 245.75 128.75 245.25 130.7 242.8
M 15 222.7
Q 7.35 223.15 1.5 228.1
L 26.35 224.1 25.35 222.4 15 222.7
M 3.2 235.4
L 29.2 231.75
Q 19.2 230.05 9.45 232.75 5.9 233.8 3.2 235.4
M 49.1 219.2
L 43.95 222.75
Q 54.85 225.35 64.25 220.25
L 65.45 219.5 49.1 219.2
M 109.05 240.85
L 108.2 237.5
Q 85.8 233.2 63.1 231.2 56.45 230.3 55.45 236.7
L 109.05 240.85
M 110.05 233.85
L 109.2 230.5 65.9 226.45 65.4 229.5 110.05 233.85
M 102.85 196.85
L 101.55 196.5 97.95 196.55
Q 67.55 196.4 40.8 202.5
L 40.2 205.8 42.2 205.75 40.4 207.7
Q 63.4 214.2 89.15 211.45 92.45 211.2 95.35 209.7
L 98.95 203.1 102.85 196.85
M 293.9 196.25
L 288.05 194.3 287.25 195.85
Q 287.25 198 289.35 199.5 291.45 201 294.45 201
L 296.75 199.25 293.9 196.25
M 272.85 195.55
L 256 195.5 254.8 198 256.95 204.9
Q 257.35 205.25 257.75 205.25 259.15 205.25 262.75 201.55
L 266.5 196.05 268.45 202.15 271.95 202.7 273.75 198 272.85 195.55
M 229.75 194.8
Q 197.75 193.25 164.8 197.6
L 163.75 198.1 163.6 196.5
Q 151.15 189.95 143.7 197.5
L 143.05 197.4 138.75 194.75 138.75 196
Q 131.05 192.8 123.85 193.8
L 123.75 196.75 117.2 194.35 116.5 198.5 118.35 200.35 118.45 202.7 121.55 202.95 126.1 206.1
Q 128.85 207.5 132.3 208.3 133.3 210.75 137.3 214.9
L 146.05 223.1 156.95 231.2
Q 167.05 221.3 156.05 209.9
L 159.8 209.9 157.8 203.4 162.5 199.75 162.7 201.5
Q 188.25 207.45 216.45 205.75 224.7 205.05 230.1 199.75
L 229.75 194.8
M 550.8 204.6
L 552.1 208.25 555 208.25 555 203.75 550.9 204.2 550.8 204.6
M 238.35 225.1
L 239.25 222.5
Q 214.05 216.05 188 217.25
L 188.75 219.5
Q 213.3 225.9 238.35 225.1
M 250.5 235.95
L 251.25 232.45
Q 216 227.25 179.6 225.1 171.5 224.35 164.25 227.5
L 206.75 233.3
Q 228.7 236.65 250.5 235.95
M 245.6 216.65
L 245.7 218.5
Q 250.4 219.7 256.3 217.2 258.7 216.1 257.4 214.7
L 245.6 216.65
M 270.3 214.9
Q 269.7 215.25 269 216.75 270.35 217.75 275.75 217.75 279.6 217.75 280.1 217.2 280.45 216.8 280.25 215.5 279.5 214.95 277.8 214.6
L 274.25 214.25
Q 271.3 214.25 270.3 214.9
M 290.55 227.95
L 290.6 225.5
Q 277.7 219.1 270.75 228.75 280.95 233.3 290.55 227.95
M 311.85 214.4
L 312.3 211.55
Q 307.6 209.6 302.05 211.9
L 300.15 213.4 300.25 215.7 311.85 214.4
M 318.25 221.25
L 317.25 220.75
Q 312.65 219.1 309.55 222.55
L 318.25 221.25
M 346.3 214.95
L 348.25 214.25
Q 343.55 212.8 338.9 215.25
L 339.5 215.75 345.25 215.2 346.3 214.95
M 451.95 224.55
L 475.1 223.6
Q 508.75 223.15 540.55 213.65
L 540.15 210.9 516.25 215.7
Q 517.65 216.2 517.1 216.05
L 475.2 217.3
Q 455.7 219.6 436.2 219 415.5 218.4 394.95 215.05 375.4 211.9 358.25 216.5 398.4 223.75 440 224.45 445.9 225.2 451.95 224.55
M 529.65 190.7
L 531.5 191.05
Q 544.65 193.8 552.8 186.35
L 552.95 186.05 552.55 184.5
Q 541.75 182.3 531.3 186.85
L 530.2 187.5 529.65 190.7
M 325.25 196.25
L 325 195.5 320.9 194.95 320.7 194.95
Q 319.7 195.1 319.25 195.75 319.25 196.5 319.75 198
L 320.8 197.95 323.05 197.4
Q 324.85 196.8 325.25 196.25
M 511.45 207.1
L 511.75 208.8
Q 523.35 211.4 534.7 208.4 525.1 204.2 512.25 205.45
L 511.45 207.1
M 344 209.5
L 343.85 209.55 338.8 210.2 335.35 210.8 340.3 211.75 343.85 209.6 344 209.5
M 337.05 207.25
Q 335.45 208.6 338.25 209.45 339.9 208.65 338.5 207.65
L 337.65 207.1 337.05 207.25
M 347.25 209.5
L 351 208.65 355.25 207.2 350.6 207.65 347.25 209.5
M 363 206.5
L 362.25 209.4 387.45 209.7
Q 383.8 202.55 375.55 197.85
L 363 206.5
M 330.95 193.5
L 330.9 193.3
Q 325.2 195.1 330.05 199.4
L 330.95 193.5
M 334.5 192.5
L 335 196.4 338.3 198.6
Q 339.4 192.9 334.5 192.5
M 341.15 191
L 340.55 192.9 344.3 197.95 344.1 194.55
Q 344.1 193.1 343.25 192.05 342.35 191 341.15 191
M 499.9 197
Q 501.55 197.2 503.15 196.55
L 503.65 194.05 518.55 193.85 518.95 191 518.75 188.5 514.9 188.7
Q 464.35 192.1 413.55 192.75
L 412.6 191.55 391.85 191.3 391.15 189.7 376.9 188.65 374.75 189
Q 394.8 196.1 415.9 197.45 436.35 198.4 457 196.15 478.3 193.85 499.9 197 Z"/>

<path fill="#000000" stroke="none" d="
M 126.1 206.1
L 137.3 214.9
Q 133.3 210.75 132.3 208.3 128.85 207.5 126.1 206.1
M 512.55 246.8
Q 507.45 242.6 502.5 242.35
L 499.7 242.5 500.4 249.4 500.45 249.45
Q 505.1 263.5 513.35 275.75
L 512.2 277.75
Q 513.25 280.1 515.4 281.55 519.25 284.3 523.85 284.75 531.1 278.3 531.35 269.5
L 530.8 269.05
Q 521.5 265.4 519.2 255.75
L 518.55 253.95
Q 516.9 250.4 512.55 246.8
M 538.75 230.4
L 532.45 234.25 539.7 256.15 540.25 257.7
Q 540.25 264.75 544.6 269.75 548.9 274.75 555 274.75
L 555 272.45 549.7 265.5 554.35 261.55 554.05 258.6
Q 546.2 250.85 544.5 240.15
L 546.4 238.95 546.2 237.8
Q 545.2 233.6 541.3 231.4 539.8 230.5 538.75 230.4 Z"/>

<path fill="#C79A7B" stroke="none" d="
M 66.05 158.95
L 79.95 159.35
Q 76.25 153.85 69.9 153.7
L 68.15 153.75 66.05 158.95 Z"/>

<path fill="#3A2E30" stroke="none" d="
M 267.55 156.7
L 267.3 156.5 244.7 153.2 244.25 156.5 244.25 158.5
Q 247.85 160.55 249.15 167.05
L 250.35 172.3
Q 251.1 175.35 251.75 176.25 253.9 175.15 257 174.2
L 268.1 171.15 268.45 170.95 268.75 170.75
Q 269.9 169.9 270 168.15 270.75 162.35 268.15 157.55
L 267.55 156.7
M 476.8 151.4
L 476.6 150
Q 472.4 146.6 466.45 147
L 466.35 151.6 468.95 160.35
Q 471.45 166.95 473.95 168.65
L 477.35 169.05 476.8 151.4
M 402.8 172.9
Q 402.95 171.3 403.55 169
L 407.95 154.1 407.9 152.25
Q 368 155.35 328.6 152.45 313.55 151.3 299 158.85
L 299.05 159.9 304 171.85
Q 322.1 178.8 345.1 176 365.7 173.75 386.45 173.7
L 402.8 172.9
M 555 155.8
L 553.3 157.65
Q 550 162.7 553.05 167.15
L 553.45 167.5 554.7 168 555 155.8
M 489.15 153.15
Q 487.2 150.45 486.1 154.6
L 485.7 156 485.4 154.15 481.1 153.4 480.7 166.25 480.7 168.75 484 169.4 487.15 161.8 487.45 161.1 489.15 153.15
M 503.7 155
Q 503.7 153.85 503.35 153.05 500.2 149.7 495.7 152.5
L 495 152.9
Q 488.4 156.7 487.8 163.85
L 488.3 166.5 497.9 165.2 500.8 162.75
Q 503.7 159.8 503.7 155 Z"/>

<path fill="#E0C8B8" stroke="none" d="
M 267.6 156.65
L 267.55 156.7 268.15 157.55
Q 270.75 162.35 270 168.15 285.8 175.85 303.35 172.85
L 304 171.85 299.05 159.9 298.55 159.6
Q 291.85 156.15 284.25 156.5
L 272.5 156.75 270.75 152.75 267.6 156.65
M 184.45 181.55
Q 201.1 178.65 218.15 178.85 234 179.05 248.7 173.45
L 250.35 172.3 249.15 167.05
Q 247.85 160.55 244.25 158.5
L 244.25 156.5
Q 226.85 149.85 208.3 152.85 187.35 156.4 166.2 154.9 146.1 154.4 127.7 162.75 125.15 161.15 114.05 160.5 99.35 159.7 95.45 163 95.45 163.5 96.15 164.45
L 95.05 163.5 79.95 159.35 66.05 158.95 46.3 159.95 46.25 157.65 8.75 162.05
Q 3 158.95 -3.05 160.05
L -3.05 178.65 -1.4 179.55 17.05 181.35 17.45 179.1
Q 56.5 181.1 95.35 177.45 110.1 183.25 122.6 175.25
L 124.25 174 122.1 180.95
Q 151.15 187.25 184.45 181.55
M 481.1 153.4
Q 479.25 151.85 476.8 151.4
L 477.35 169.05 480.7 166.25 481.1 153.4
M 403.55 169
L 403.7 172.85 473.2 171.5 473.95 168.65
Q 471.45 166.95 468.95 160.35
L 466.35 151.6
Q 444.1 149.15 421.95 150.2
L 421.1 151.15 415.7 152.5 412.45 147.9 407.95 154.1 403.55 169
M 553.3 157.65
Q 552.45 155.05 550.45 154.3 546.3 152.85 531.4 155.85
L 546.45 168.9 550.75 170.15 550.95 168.25 553.25 168 553.45 167.5 553.05 167.15
Q 550 162.7 553.3 157.65
M 495 152.9
Q 493.85 151.25 492.35 151.05 490.45 150.85 489.15 153.15
L 487.45 161.1 487.45 161.85 487.8 163.85
Q 488.4 156.7 495 152.9
M 523.15 154.3
Q 523.35 153.8 523.7 153.4
L 522.35 152.1 503.35 153.05
Q 503.7 153.85 503.7 155 503.7 159.8 500.8 162.75
L 500.45 166.45
Q 500.4 167.3 500.95 167.5 502 168.1 503.35 168.25
L 503.55 168.35 522.7 168.25 523.55 167.95
Q 520.3 160.75 523.15 154.3 Z"/>

<path fill="#6F5B52" stroke="none" d="
M 240 197.75
L 238.75 197 237.75 192.5
Q 247.7 190.9 254.8 198
L 256 195.5 272.85 195.55 273.75 198 274.55 197.95 274.65 197.35
Q 278.5 190.35 287.25 195.85
L 288.05 194.3 293.9 196.25 300.75 197.75
Q 302.3 196.8 303.8 195.8
L 306.5 193.5 301.1 192.55
Q 293.7 183.8 283.15 183.85
L 282.05 184.45
Q 266.7 190.1 256.6 177.8
L 257 174.2
Q 253.9 175.15 251.75 176.25 251.1 175.35 250.35 172.3
L 248.7 173.45
Q 234 179.05 218.15 178.85 201.1 178.65 184.45 181.55 151.15 187.25 122.1 180.95
L 124.25 174 122.6 175.25
Q 110.1 183.25 95.35 177.45 56.5 181.1 17.45 179.1
L 17.05 181.35 -1.4 179.55 -3.05 182.25 -3.05 193.95
Q -2.05 193.35 -0.7 193.3
L -3.05 199.7 -3.05 200.9
Q 17.3 209.35 39.4 206.1
L 40.2 205.8 40.8 202.5
Q 67.55 196.4 97.95 196.55
L 101.55 196.5 102.25 196.05
Q 109.7 193.4 116.2 198.9
L 116.5 198.5 117.2 194.35 123.75 196.75 123.85 193.8
Q 131.05 192.8 138.75 196
L 138.75 194.75 143.05 197.4 143.7 197.5
Q 151.15 189.95 163.6 196.5
L 163.75 198.1 164.8 197.6
Q 197.75 193.25 229.75 194.8
L 230.1 199.75 231.35 199.8 239.75 199.6 240 197.75
M 487.8 163.85
L 487.45 161.85 487.15 161.8 484 169.4 480.7 168.75 480.7 166.25 477.35 169.05 473.95 168.65 473.2 171.5 403.7 172.85 402.8 172.9 386.45 173.7
Q 365.7 173.75 345.1 176 322.1 178.8 304 171.85
L 303.35 172.85
Q 285.8 175.85 270 168.15 269.9 169.9 268.75 170.75
L 268.45 170.95 268.6 171.25
Q 293.55 176.95 316 188.6
L 317.45 190.7 362 179.55 376.9 188.65 391.15 189.7 391.85 191.3 412.6 191.55 413.55 192.75
Q 464.35 192.1 514.9 188.7
L 518.75 188.5 518.95 191 519.2 191 522.2 187
Q 507.4 180.65 499.75 166.4
L 500.45 166.45 500.8 162.75 497.9 165.2 488.3 166.5 487.8 163.85
M 523.7 153.4
Q 523.35 153.8 523.15 154.3 520.3 160.75 523.55 167.95
L 522.7 168.25 503.55 168.35 504.95 169.1
Q 519.2 176.2 530.2 187.5
L 531.3 186.85
Q 541.75 182.3 552.55 184.5
L 552.95 186.05 555 185.15 555 168.6 553.25 168 550.95 168.25 550.75 170.15 546.45 168.9 531.4 155.85 528.45 155 525.95 151.5 523.7 153.4 Z"/>

<path fill="url(#Gradient_1)" stroke="none" d="
M 554.05 258.6
L 554.35 261.55 549.7 265.5 555 272.45 555 257.8 554.05 258.6
M 362.25 285.5
Q 352.5 283.9 338 269.95
L 334.1 265.8
Q 326.5 265.15 321.65 270.45 335.35 287.45 309.9 293.5 295.15 297.2 284.35 285.5 278.5 294 267.5 295.6 245.8 298.2 223.9 295.85 265.4 318.25 310 333.1 309.3 334.35 308.25 335.1 294.05 345.25 291.8 362.65 253 355.25 219 334.75 210.8 335.2 203.15 338.35 182.9 346.65 161 344.45 134.85 346.9 132.4 320.45 113.05 314.7 92.9 315.8 71.9 317.35 51.9 323.15 46.2 324.85 41.8 318.8 33 306.8 17.75 308.1 4.55 309 -3.05 303.65
L -3.05 406.1 555 406.1 555 274.75
Q 548.9 274.75 544.6 269.75 540.25 264.75 540.25 257.7
L 539.7 257.7 539.2 259.5
Q 528 264.3 519.85 255.05
L 519.2 255.75
Q 521.5 265.4 530.8 269.05
L 531.35 269.5
Q 531.1 278.3 523.85 284.75 519.25 284.3 515.4 281.55 513.25 280.1 512.2 277.75
L 513.35 275.75
Q 505.1 263.5 500.45 249.45
L 500.4 249.4 499.8 249.65
Q 505 262 501.35 274.75
L 498.75 274.75
Q 500.1 276.5 500.15 278.65 500.2 282.05 498.8 285.15 504.9 297.25 490.35 298.05 468.05 298.4 450.75 311.65 431.95 326.05 411.9 322.25 387.3 313.7 365.75 299.45
L 362.25 285.5 Z"/>

<path fill="#DEC19F" stroke="none" d="
M 446.65 130.15
L 446.1 131.5
Q 438.75 128.8 431.35 131.2
L 427.95 135 427.4 132.65 413.75 138.4 413.1 139.3 412.05 139.5 410.65 140.15 407.5 139.45 404.75 145.1 406.9 148.55 408.75 149
Q 410.45 148.2 412.1 147.35
L 412.15 147.35 431.2 138.75 438.2 142.25 441.45 139
Q 453.45 146.65 465 139.1
L 461.8 133.1 451.75 130.9 450.15 132.9 449.6 130.55 446.65 130.15
M 555 143.75
Q 550.6 144.45 548.35 148.4
L 547.8 149.65 555 151.35 555 143.75
M 70.1 146.55
Q 81.3 156.1 90.95 145
L 70.1 146.55
M 212.45 142.7
L 211.8 145.3
Q 230.85 152.2 247 141.75
L 159.2 137.55
Q 150.05 139.1 144.25 141.05
L 143.35 142.05
Q 136.3 142.65 134.2 149.05
L 134.1 149.85 188.05 142.3 198.75 147.5 212.45 142.7
M 379.75 146
L 383.25 143.1
Q 395.45 152.15 404.75 141.75 397.15 134.8 387.15 139.05
L 387 139.5 386.75 139.05 379.9 138.95 378.75 140.75 378.65 138.9 354.05 138.45 353.75 138.75 353.75 138.45 349.75 138.35
Q 349.1 140.65 347.7 138.35
L 343.45 138.25 342.6 140.5 339.6 139.55 338.65 138.15 329.3 138.55 327.8 139.15
Q 313.2 131.85 298.7 139.95
L 294.75 137.35 280.8 137.1 279.5 139.15 257.05 142.05 257 144.55 288 144.85 288.9 143.3
Q 289.75 147.55 294.05 149.15 334.9 136.25 379.75 146
M 543.4 145.55
L 541.35 143.15 535.5 143.25 534.65 145.5 534.55 143.2 530.15 142.9
Q 528.05 144.75 527.2 147.3 526.4 149.6 527.65 151.4 534 147.5 541.35 149.35
L 543.4 145.55 Z"/>

<path fill="#565E55" stroke="none" d="
M 555 143.75
L 555 136.15
Q 532.4 136.15 509.85 133.8 488.45 131.4 467.45 127.4 445.5 123.4 424.3 130.15 410.8 134.3 396.95 133.6
L 359.45 132.85
Q 336.9 132.3 314.6 134.15 295.25 135.5 275.75 133.55
L 233.3 129.7
Q 211.55 128.1 189.85 129.8 170.65 131.1 151.5 133.9 133.75 136.5 115.7 135.1 94.7 133.15 74.6 137.75 53.3 142.7 31.65 144.5 13.2 145.35 -3.05 151.45
L -3.05 160.05
Q 3 158.95 8.75 162.05
L 46.25 157.65 46.3 159.95 66.05 158.95 68.15 153.75 69.9 153.7
Q 76.25 153.85 79.95 159.35
L 95.05 163.5 95.45 163
Q 99.35 159.7 114.05 160.5 125.15 161.15 127.7 162.75 146.1 154.4 166.2 154.9 187.35 156.4 208.3 152.85 226.85 149.85 244.25 156.5
L 244.7 153.2 267.3 156.5 267.6 156.65 270.75 152.75 272.5 156.75 284.25 156.5
Q 291.85 156.15 298.55 159.6
L 299 158.85
Q 313.55 151.3 328.6 152.45 368 155.35 407.9 152.25
L 407.95 154.1 412.45 147.9 412.1 147.35
Q 410.45 148.2 408.75 149
L 406.9 148.55 404.75 145.1 407.5 139.45 410.65 140.15 412.05 139.5 413.1 139.3 413.75 138.4 427.4 132.65 427.95 135 431.35 131.2
Q 438.75 128.8 446.1 131.5
L 446.65 130.15 449.6 130.55 450.15 132.9 451.75 130.9 461.8 133.1 465 139.1
Q 453.45 146.65 441.45 139
L 438.2 142.25 431.2 138.75 412.15 147.35 412.45 147.9 415.7 152.5 421.1 151.15 421.95 150.2
Q 444.1 149.15 466.35 151.6
L 466.45 147
Q 472.4 146.6 476.6 150
L 476.8 151.4
Q 479.25 151.85 481.1 153.4
L 485.4 154.15 485.7 156 486.1 154.6
Q 487.2 150.45 489.15 153.15 490.45 150.85 492.35 151.05 493.85 151.25 495 152.9
L 495.7 152.5
Q 500.2 149.7 503.35 153.05
L 522.35 152.1 523.7 153.4 525.95 151.5 528.45 155 531.4 155.85
Q 546.3 152.85 550.45 154.3 552.45 155.05 553.3 157.65
L 555 155.8 555 151.35 547.8 149.65 548.35 148.4
Q 550.6 144.45 555 143.75
M 541.35 143.15
L 543.4 145.55 541.35 149.35
Q 534 147.5 527.65 151.4 526.4 149.6 527.2 147.3 528.05 144.75 530.15 142.9
L 534.55 143.2 534.65 145.5 535.5 143.25 541.35 143.15
M 383.25 143.1
L 379.75 146
Q 334.9 136.25 294.05 149.15 289.75 147.55 288.9 143.3
L 288 144.85 257 144.55 257.05 142.05 279.5 139.15 280.8 137.1 294.75 137.35 298.7 139.95
Q 313.2 131.85 327.8 139.15
L 329.3 138.55 338.65 138.15 339.6 139.55 342.6 140.5 343.45 138.25 347.7 138.35
Q 349.1 140.65 349.75 138.35
L 353.75 138.45 354.05 138.45 378.65 138.9 378.75 140.75 379.9 138.95 386.75 139.05 387.15 139.05
Q 397.15 134.8 404.75 141.75 395.45 152.15 383.25 143.1
M 211.8 145.3
L 212.45 142.7 198.75 147.5 188.05 142.3 134.1 149.85 134.2 149.05
Q 136.3 142.65 143.35 142.05
L 144.25 141.05
Q 150.05 139.1 159.2 137.55
L 247 141.75
Q 230.85 152.2 211.8 145.3
M 90.95 145
Q 81.3 156.1 70.1 146.55
L 90.95 145 Z"/>
</g>
</defs>

<g transform="matrix( 1, 0, 0, 1, 0,0) ">
<use xlink:href="#Layer0_0_FILL"/>
</g>
</svg>
