
<svg xmlns="http://www.w3.org/2000/svg" version="1.1" xmlns:xlink="http://www.w3.org/1999/xlink" preserveAspectRatio="none" x="0px" y="0px" width="550px" height="400px" viewBox="0 0 550 400">
<defs>
<linearGradient id="Gradient_1" gradientUnits="userSpaceOnUse" x1="121.35" y1="81.4" x2="121.35" y2="105.4" spreadMethod="pad">
<stop  offset="0%" stop-color="#F3F3F5" stop-opacity="0.7529411764705882"/>

<stop  offset="100%" stop-color="#9CA1B5" stop-opacity="0.7529411764705882"/>
</linearGradient>

<linearGradient id="Gradient_2" gradientUnits="userSpaceOnUse" x1="323.85" y1="110.25" x2="323.85" y2="125.25" spreadMethod="pad">
<stop  offset="0%" stop-color="#F3F3F5" stop-opacity="0.5019607843137255"/>

<stop  offset="100%" stop-color="#9CA1B5" stop-opacity="0.5019607843137255"/>
</linearGradient>

<linearGradient id="Gradient_3" gradientUnits="userSpaceOnUse" x1="167.9125" y1="23.762500000000003" x2="169.88750000000002" y2="55.4375" spreadMethod="pad">
<stop  offset="0%" stop-color="#F3F3F5"/>

<stop  offset="100%" stop-color="#9CA1B5"/>
</linearGradient>

<linearGradient id="Gradient_4" gradientUnits="userSpaceOnUse" x1="498.75" y1="77.85" x2="498.75" y2="93.65" spreadMethod="pad">
<stop  offset="0%" stop-color="#F3F3F5" stop-opacity="0.7529411764705882"/>

<stop  offset="100%" stop-color="#9CA1B5" stop-opacity="0.7529411764705882"/>
</linearGradient>

<g id="Layer0_0_FILL">
<path fill="url(#Gradient_1)" stroke="none" d="
M 183.15 83.9
Q 177.05 76.4 174.1 76.4
L 166 77.8 144.35 79.15
Q 135.75 79.15 131.2 77.9
L 125.2 75.55
Q 118.25 72.9 93.65 75.65 76.5 78.85 68.6 82.9 59.65 87.5 59.65 94.4 59.65 97.85 60.9 99.65 63.5 103.4 71.15 103.4
L 143.25 97.15
Q 155.55 97.15 159.6 98.8 163.6 100.4 168.1 100.4 180.5 100.4 184.9 98.15 188.6 96.25 188.6 91.4 186.15 87.65 183.15 83.9 Z"/>

<path fill="url(#Gradient_2)" stroke="none" d="
M 340.7 94.9
Q 330.45 97 326.5 96.75 315.65 98.55 305 101.85 283.75 108.45 283.75 115.85 283.75 118.1 285 120 287.45 123.75 293.75 123.75 296 123.75 301.1 121.9 306.2 120 307 120 307.7 120 309.15 121.9 311.35 123.75 315.75 123.75 317.65 123.75 324.35 121.75
L 331.9 119.75
Q 335.15 119.75 336.85 121.65
L 339.4 124.25
Q 341.2 126.05 347.3 125.75 353.4 125.45 355.6 125.65 357.75 125.8 357.75 123.5 357.75 122.25 358.75 118.8 359.75 115.35 359.75 114.1 359.75 110.25 356.8 107.85 352.9 104.7 351.25 100 349.4 94.05 340.7 94.9 Z"/>

<path fill="url(#Gradient_3)" stroke="none" d="
M 324.55 37.8
Q 333.75 34.45 333.75 28.5 333.75 18.8 294.8 13.75
L 254.75 9.8 208.75 6
Q 182.35 0.55 167.45 0.05 156.2 -0.3 145.3 2.45
L 123.15 7.8
Q 106.3 10.75 81.7 10.75 74.85 10.75 49.85 6.75
L 38.9 4.95 36.85 2.75
Q 34 0.55 29.95 0.4 25.85 0.3 23.1 2.35 20.95 3.95 20.3 6.4 17.3 8.65 12.8 12.25 -0.05 22.6 -0.05 26.85 -0.05 30.6 3.25 32.75 6.6 34.9 18.95 39
L 18.7 39.25
Q 12.35 49.5 32.7 54 45.15 56.75 61.95 56.75 68.55 56.75 85.1 52.4 101.65 48 103.2 48 115.45 48 121 45.95 124.8 44.55 126.5 41.5 128.5 37.8 129.6 37.05 132.5 35 140.25 35 140.7 35 144 36.55 147.65 38.25 149.4 39.5
L 149.35 44.1
Q 149.3 46.65 150.5 48 153.7 51.75 170.75 51.75 181.4 51.75 189.25 45.75 195.75 40.8 195.75 36.75
L 195.5 34.65 195.25 34 220.65 32
Q 229.55 32 241.4 33.9
L 253.75 35.75
Q 283.1 36.1 290.4 38.5
L 294.85 40.05 304.75 40.75
Q 316.5 40.75 324.55 37.8 Z"/>

<path fill="url(#Gradient_4)" stroke="none" d="
M 500.2 69.25
Q 492.7 69.25 490.15 71.25 487.55 73.25 481.45 73.25 479.95 73.25 478.05 73.95
L 475.2 75
Q 474.85 74.75 474.3 72.65 473.9 71 471.7 71 467.6 71 465.25 72.1 460.7 74.2 449.95 76.5 435.95 79.55 431.6 80.9 423.95 83.35 423.95 86 423.95 88.5 424.2 89
L 474.6 92.4 555 95.5 555 75.3 554.95 75.25 555 75.15 555 65.4
Q 547.75 63.55 537.7 62.25 531.45 64 518.3 66.55 504.2 69.25 500.2 69.25
M 508.45 73
Q 513.5 74.05 517.25 72.2
L 521.95 69.5
Q 521.35 71.25 522.7 73.25 518.7 74.25 515.2 74.25
L 506.2 73.5 508.45 73 Z"/>
</g>
</defs>

<g transform="matrix( 1, 0, 0, 1, 0,0) ">
<use xlink:href="#Layer0_0_FILL"/>
</g>
</svg>
