
<svg xmlns="http://www.w3.org/2000/svg" version="1.1" xmlns:xlink="http://www.w3.org/1999/xlink" preserveAspectRatio="none" x="0px" y="0px" width="550px" height="400px" viewBox="0 0 550 400">
<defs>
<linearGradient id="Gradient_1" gradientUnits="userSpaceOnUse" x1="80.13749999999999" y1="281.91249999999997" x2="108.9625" y2="372.3875" spreadMethod="pad">
<stop  offset="0%" stop-color="#000000"/>

<stop  offset="100%" stop-color="#6B6E27"/>
</linearGradient>

<linearGradient id="Gradient_2" gradientUnits="userSpaceOnUse" x1="80.13749999999999" y1="278.725" x2="108.9625" y2="171.075" spreadMethod="pad">
<stop  offset="0%" stop-color="#000000"/>

<stop  offset="100%" stop-color="#6B6E27"/>
</linearGradient>

<linearGradient id="Gradient_3" gradientUnits="userSpaceOnUse" x1="412.42499999999995" y1="264.6" x2="381.375" y2="362" spreadMethod="pad">
<stop  offset="0%" stop-color="#000000"/>

<stop  offset="100%" stop-color="#254A24"/>
</linearGradient>

<linearGradient id="Gradient_4" gradientUnits="userSpaceOnUse" x1="412.42499999999995" y1="299.3" x2="381.375" y2="183.39999999999998" spreadMethod="pad">
<stop  offset="0%" stop-color="#000000"/>

<stop  offset="100%" stop-color="#254A24"/>
</linearGradient>

<g id="Layer0_0_FILL">
<path fill="#FDFCFF" stroke="none" d="
M 164.25 274.8
L 164.65 274.8
Q 165.25 274.6 164.25 274.8
M 0 150.65
L 0.95 150.65
Q 0.3 150.2 0 149.2
L 0 150.65
M 501 142.5
L 507.6 142.25
Q 528.85 137.5 550 140.7
L 550 0 0 0 0 144.55 3 140.75 5.25 141 5.5 149.5 9.5 145 12 148.05 17.9 149.55 21.45 145.35 25.5 150 30.85 146.95 31.95 151.05
Q 34.1 150.05 36.25 149
L 37 154.25 43.7 152.25 44.7 153.8 53.5 152 56.5 156.45 62.65 154.25 63.75 159.25 68.5 156 70.25 166.5 74.6 162 76.2 166 92.25 159.15 97.75 167.75
Q 99.05 165.95 100.8 165.05
L 101.65 165.7
Q 104.7 168.65 108.6 170.25 111.4 171.5 114.6 171.85
L 118.95 171.75 119.5 176.25 124.5 180.25 139.5 178.75 141.25 183.5 147 179.5 149.25 187.25 155.95 183.6 158.4 184.7 158.5 190.25 165.75 186.25 164.8 192.2 175.75 190.25 176.5 194 181.75 194.25 182.55 196.55 188.6 198.1 190.5 203.5 194.2 204.2 196.55 209.05 209.55 215.8 210.65 220.6 216 219.5 217 223.75 222.3 221.85 229.1 229.8
Q 252.85 216.5 279.3 218.9 313.3 222.4 339 196.75
L 342.1 201
Q 348.9 203.85 357.2 197.25 367.85 188.7 379.9 182.35
L 379.65 187.1 387.95 192.1
Q 394.65 188.65 400.35 183.55 409.15 175.75 419.8 173.7
L 421.5 175.25
Q 428.9 176.55 436.35 176.7 458.75 178.55 472.35 164.15 484.5 151.25 501 142.5 Z"/>

<path fill="url(#Gradient_1)" stroke="none" d="
M 113.15 281
L 103.15 280.45 88.1 280.65 55.25 281.9 22 280 0.95 280 0 280.15 0 389.55 0.95 389.55
Q 0.3 389.9 0 390.75
L 0 394.65 2.2 397 5.3 397 5.5 390.5 9.5 394.3 12 391.75 17.9 390.45 21.45 394 25.5 390.1 30.85 392.65 31.95 389.2 36.25 390.95 37 386.5 43.7 388.2 44.7 386.9 53.5 388.4 56.5 384.65 62.65 386.5 63.75 382.3 68.5 385.05 70.25 376.2 74.6 380 76.2 376.65 92.25 382.4 97.75 375.15
Q 99.05 376.7 100.8 377.45 101 377.55 101.65 376.9 104.7 374.4 108.6 373.05 111.4 372 114.6 371.75
L 118.95 371.8 119.5 368.05 124.5 364.65 139.5 365.95 141.25 361.95 147 365.3 149.25 358.8 155.95 361.85 158.4 360.95 158.5 356.25 165.75 359.65 164.8 354.65 175.75 356.25 176.5 353.1 181.75 352.9 182.55 350.95 188.6 349.65 190.5 345.15 194.2 344.55 196.55 340.45 209.55 334.8 210.65 330.75 216 331.7 217 328.1 222.3 329.7 229.1 323.05 218.3 321.4 223.95 320.15
Q 199.55 314.35 182.8 300.05
L 183.15 298.6
Q 183.05 287.4 165.45 285.2
L 164 285.05 164.65 285.2
Q 165.25 285.4 164.25 285.2 143.55 284.85 123.1 282.1
L 113.15 281 Z"/>

<path fill="url(#Gradient_2)" stroke="none" d="
M 164.8 192.2
L 165.75 186.25 158.5 190.25 158.4 184.7 155.95 183.6 149.25 187.25 147 179.5 141.25 183.5 139.5 178.75 124.5 180.25 119.5 176.25 118.95 171.75 114.6 171.85
Q 111.4 171.5 108.6 170.25 104.7 168.65 101.65 165.7
L 100.8 165.05
Q 99.05 165.95 97.75 167.75
L 92.25 159.15 76.2 166 74.6 162 70.25 166.5 68.5 156 63.75 159.25 62.65 154.25 56.5 156.45 53.5 152 44.7 153.8 43.7 152.25 37 154.25 36.25 149
Q 34.1 150.05 31.95 151.05
L 30.85 146.95 25.5 150 21.45 145.35 17.9 149.55 12 148.05 9.5 145 5.5 149.5 5.25 141 3 140.75 0 144.55 0 149.2
Q 0.3 150.2 0.95 150.65
L 0 150.65 0 280.15 0.95 280 22 280 36.9 280 55.25 278.75 85.5 280 110.95 280 123.1 278.5
Q 143.55 275.2 164.25 274.8 165.25 274.6 164.65 274.8
L 164 275 165.45 274.8
Q 183.05 272.2 183.15 258.85
L 182.8 257.15
Q 199.55 240.15 223.95 233.25
L 218.3 231.75 229.1 229.8 222.3 221.85 217 223.75 216 219.5 210.65 220.6 209.55 215.8 196.55 209.05 194.2 204.2 190.5 203.5 188.6 198.1 182.55 196.55 181.75 194.25 176.5 194 175.75 190.25 164.8 192.2 Z"/>

<path fill="url(#Gradient_3)" stroke="none" d="
M 470.55 288.85
L 429.75 287.2
Q 408.1 285.65 386.4 286.9 364.6 287.6 342.95 286.6
L 300.95 284.6 261.6 283.65
Q 245.95 283.3 230.45 283.9
L 188.25 285.05 164 285.05 165.45 285.2
Q 183.05 287.4 183.15 298.6
L 182.8 300.05
Q 199.55 314.35 223.95 320.15
L 218.3 321.4 229.1 323.05
Q 252.85 334.2 279.3 332.2 313.3 329.25 339 350.8
L 342.1 347.25
Q 348.9 344.85 357.2 350.4 367.85 357.55 379.9 362.9
L 379.65 358.9 387.95 354.7
Q 394.65 357.6 400.35 361.9 409.15 368.45 419.8 370.15
L 421.5 368.85 436.35 367.65
Q 458.75 366.1 472.35 378.2 481.15 386.05 492.3 392.1 496.45 394.4 501 396.4
L 507.6 396.6 509.85 397 550 397 550 287.65
Q 529.65 288.5 509.35 288.8 489.9 289.1 470.55 288.85 Z"/>

<path fill="#513F2F" stroke="none" d="
M 429.75 287.2
L 470.55 288.85
Q 489.9 289.1 509.35 288.8 529.65 288.5 550 287.65
L 550 271.9 509.35 270.5
Q 489.9 270.15 470.55 270.45
L 429.75 272.45
Q 408.1 274.25 386.4 272.8 364.6 271.95 342.95 273.15
L 300.95 275.5 261.6 276.65
Q 245.95 277.1 230.45 276.35
L 188.25 275 164 275 164.65 274.8 164.25 274.8
Q 143.55 275.2 123.1 278.5
L 110.95 280 85.5 280 55.25 278.75 36.9 280 22 280 55.25 281.9 88.1 280.65 103.15 280.45 113.15 281 123.1 282.1
Q 143.55 284.85 164.25 285.2
L 164.65 285.2 164 285.05 188.25 285.05 230.45 283.9
Q 245.95 283.3 261.6 283.65
L 300.95 284.6 342.95 286.6
Q 364.6 287.6 386.4 286.9 408.1 285.65 429.75 287.2 Z"/>

<path fill="url(#Gradient_4)" stroke="none" d="
M 507.6 142.25
L 501 142.5
Q 484.5 151.25 472.35 164.15 458.75 178.55 436.35 176.7 428.9 176.55 421.5 175.25
L 419.8 173.7
Q 409.15 175.75 400.35 183.55 394.65 188.65 387.95 192.1
L 379.65 187.1 379.9 182.35
Q 367.85 188.7 357.2 197.25 348.9 203.85 342.1 201
L 339 196.75
Q 313.3 222.4 279.3 218.9 252.85 216.5 229.1 229.8
L 218.3 231.75 223.95 233.25
Q 199.55 240.15 182.8 257.15
L 183.15 258.85
Q 183.05 272.2 165.45 274.8
L 164 275 188.25 275 230.45 276.35
Q 245.95 277.1 261.6 276.65
L 300.95 275.5 342.95 273.15
Q 364.6 271.95 386.4 272.8 408.1 274.25 429.75 272.45
L 470.55 270.45
Q 489.9 270.15 509.35 270.5
L 550 271.9 550 140.7
Q 528.85 137.5 507.6 142.25 Z"/>
</g>
</defs>

<g transform="matrix( 1, 0, 0, 1, 0,0) ">
<use xlink:href="#Layer0_0_FILL"/>
</g>
</svg>
