
<svg xmlns="http://www.w3.org/2000/svg" version="1.1" xmlns:xlink="http://www.w3.org/1999/xlink" preserveAspectRatio="none" x="0px" y="0px" width="550px" height="400px" viewBox="0 0 550 400">
<defs>
<g id="Layer0_0_FILL">
<path fill="#FFFFFF" stroke="none" d="
M 1.75 0.9
Q 1.65 0.7 1.65 0.5 1.5 0.25 1.25 0.1
L 1.05 0
Q 0.95 0 0.75 0.2
L 0.75 0.3 0.65 0.3
Q 0.4 0.3 0.15 0.8 -0.05 1.45 0.05 1.9 0.05 2.4 0.35 3 0.6 3.5 0.95 3.5
L 1.05 3.5 1.15 3.7
Q 1.55 3.9 1.75 3.5 1.95 3.3 1.95 3
L 2 2.4
Q 1.9 1.25 1.75 0.9 Z"/>
</g>
</defs>

<g transform="matrix( 1, 0, 0, 1, 0,0) ">
<use xlink:href="#Layer0_0_FILL"/>
</g>
</svg>
