
<svg xmlns="http://www.w3.org/2000/svg" version="1.1" xmlns:xlink="http://www.w3.org/1999/xlink" preserveAspectRatio="none" x="0px" y="0px" width="550px" height="400px" viewBox="0 0 550 400">
<defs>
<g id="Layer0_0_MEMBER_0_MEMBER_0_MEMBER_0_FILL">
<path fill="#000000" stroke="none" d="
M 379.35 384
L 347.35 384 347.35 441.4 310.65 404.7 288 427.35 363.35 502.65 438.65 427.35 416 404.7 379.35 441.4 379.35 384 Z"/>
</g>

<g id="Layer0_0_MEMBER_0_MEMBER_0_MEMBER_1_FILL">
<path fill="#000000" stroke="none" d="
M 366.75 97.75
Q 354.55 69.05 332.45 46.95 310.3 24.8 281.6 12.65 251.9 0.05 219.35 0
L 219.35 32
Q 245.4 32.05 269.15 42.1 292.1 51.85 309.8 69.55 327.5 87.25 337.25 110.2 347.3 133.95 347.35 160
L 347.35 224 379.35 224 379.35 160
Q 379.3 127.45 366.75 97.75 Z"/>
</g>

<g id="Layer0_0_MEMBER_0_MEMBER_0_MEMBER_2_FILL">
<path fill="#000000" stroke="none" d="
M 59.35 288
L 59.35 352
Q 59.35 384.55 71.95 414.25 84.1 442.95 106.25 465.1 128.4 487.25 157.1 499.4 186.8 512 219.35 512
L 219.35 480
Q 193.3 480 169.55 469.9 146.55 460.2 128.85 442.5 111.15 424.8 101.45 401.8 91.35 378.05 91.35 352
L 91.35 288 59.35 288 Z"/>
</g>

<g id="Layer0_0_MEMBER_0_MEMBER_0_MEMBER_3_FILL">
<path fill="#000000" stroke="none" d="
M 91.35 256
L 91.35 224 59.35 224 59.35 256 91.35 256 Z"/>
</g>

<g id="Layer0_0_MEMBER_0_MEMBER_0_MEMBER_4_FILL">
<path fill="#000000" stroke="none" d="
M 59.35 160
L 59.35 192 91.35 192 91.35 160 59.35 160 Z"/>
</g>

<g id="Layer0_0_MEMBER_0_MEMBER_0_MEMBER_5_FILL">
<path fill="#000000" stroke="none" d="
M 75.35 9.4
L 0 84.7 22.65 107.35 59.35 70.65 59.35 128 91.35 128 91.35 70.65 128 107.35 150.65 84.7 75.35 9.4 Z"/>
</g>

<g id="Layer0_0_MEMBER_0_MEMBER_0_MEMBER_6_FILL">
<path fill="#000000" stroke="none" d="
M 347.35 256
L 347.35 288 379.35 288 379.35 256 347.35 256 Z"/>
</g>

<g id="Layer0_0_MEMBER_0_MEMBER_0_MEMBER_7_FILL">
<path fill="#000000" stroke="none" d="
M 347.35 320
L 347.35 352 379.35 352 379.35 320 347.35 320 Z"/>
</g>
</defs>

<g transform="matrix( 1, 0, 0, 1, 0,0) ">
<use xlink:href="#Layer0_0_MEMBER_0_MEMBER_0_MEMBER_0_FILL"/>
</g>

<g transform="matrix( 1, 0, 0, 1, 0,0) ">
<use xlink:href="#Layer0_0_MEMBER_0_MEMBER_0_MEMBER_1_FILL"/>
</g>

<g transform="matrix( 1, 0, 0, 1, 0,0) ">
<use xlink:href="#Layer0_0_MEMBER_0_MEMBER_0_MEMBER_2_FILL"/>
</g>

<g transform="matrix( 1, 0, 0, 1, 0,0) ">
<use xlink:href="#Layer0_0_MEMBER_0_MEMBER_0_MEMBER_3_FILL"/>
</g>

<g transform="matrix( 1, 0, 0, 1, 0,0) ">
<use xlink:href="#Layer0_0_MEMBER_0_MEMBER_0_MEMBER_4_FILL"/>
</g>

<g transform="matrix( 1, 0, 0, 1, 0,0) ">
<use xlink:href="#Layer0_0_MEMBER_0_MEMBER_0_MEMBER_5_FILL"/>
</g>

<g transform="matrix( 1, 0, 0, 1, 0,0) ">
<use xlink:href="#Layer0_0_MEMBER_0_MEMBER_0_MEMBER_6_FILL"/>
</g>

<g transform="matrix( 1, 0, 0, 1, 0,0) ">
<use xlink:href="#Layer0_0_MEMBER_0_MEMBER_0_MEMBER_7_FILL"/>
</g>
</svg>
