
<svg xmlns="http://www.w3.org/2000/svg" version="1.1" xmlns:xlink="http://www.w3.org/1999/xlink" preserveAspectRatio="none" x="0px" y="0px" width="550px" height="400px" viewBox="0 0 550 400">
<defs>
<linearGradient id="Gradient_1" gradientUnits="userSpaceOnUse" x1="152.25" y1="-14.25" x2="152.25" y2="13.850000000000001" spreadMethod="pad">
<stop  offset="0%" stop-color="#FFFFFF"/>

<stop  offset="100%" stop-color="#BBBBBB"/>
</linearGradient>

<linearGradient id="Gradient_2" gradientUnits="userSpaceOnUse" x1="159.65" y1="-14.05" x2="159.65" y2="14.05" spreadMethod="pad">
<stop  offset="0%" stop-color="#FFFFFF"/>

<stop  offset="100%" stop-color="#BBBBBB"/>
</linearGradient>

<g id="Layer0_0_FILL">
<path fill="url(#Gradient_1)" stroke="none" d="
M -31.95 -6.9
Q -37.1 -6.8 -39.05 -4.45 -41.05 -2.05 -40.9 1.15
L -40.9 5.75
Q -41.05 8.9 -39.05 11.3 -37.15 13.65 -31.95 13.8 -26.75 13.65 -24.75 11.3 -22.85 8.9 -22.95 5.75
L -22.95 1.15
Q -22.85 -2.05 -24.75 -4.45 -26.75 -6.8 -31.95 -6.9
M -31.95 8.85
Q -35.1 8.75 -35 5.9
L -35 0.95
Q -35.1 -1.9 -31.95 -2 -28.8 -1.9 -28.8 0.95
L -28.8 5.9
Q -28.8 8.75 -31.95 8.85
M -12.45 -6.15
Q -14.7 -5.25 -15.75 -4.55
L -16.2 -6.5 -21.1 -6.5 -21.1 13.35 -15.2 13.35 -15.2 1.25
Q -14.15 0.25 -12.3 -0.6
L -9 -1.9 -8.55 -7.25
Q -10.2 -7.1 -12.45 -6.15
M -67.35 -5
L -67.95 -6.5 -72.35 -6.5 -72.35 13.35 -66.45 13.35 -66.45 0.25
Q -64.15 -1 -62.2 -1.2 -60.7 -1.2 -60.75 0.25
L -60.75 13.35 -54.85 13.35 -54.85 0.25
Q -52.6 -1 -50.6 -1.2 -49.1 -1.2 -49.15 0.25
L -49.15 13.35 -43.25 13.35 -43.25 -0.55
Q -43.05 -6.65 -47.85 -6.9 -52.2 -6.8 -55.8 -5 -56.85 -6.9 -59.4 -6.9 -63.3 -6.85 -67.35 -5
M -82.15 -6.5
L -87.05 -6.5 -87.05 13.35 -81.15 13.35 -81.15 1.25
Q -80.1 0.25 -78.25 -0.6
L -74.95 -1.9 -74.5 -7.25
Q -76.2 -7.1 -78.45 -6.15
L -81.75 -4.55 -82.15 -6.5
M -98.4 -13.8
L -106.55 -13.8 -114.85 13.35 -108.5 13.35 -107 8.05 -97.95 8.05 -96.45 13.35 -90.1 13.35 -98.4 -13.8
M -99.4 2.95
L -105.65 2.95 -102.5 -8.4 -99.4 2.95 Z"/>

<path fill="url(#Gradient_2)" stroke="none" d="
M 96.45 -4.2
Q 94.8 -6.6 89.95 -6.7 85.1 -6.65 83.2 -4.35 81.35 -2.05 81.45 1.25
L 81.45 5.9
Q 81.05 13.6 90.3 14 94.8 13.85 97.8 12.7
L 96.95 8.3
Q 94 9.1 90.9 9.15 87.05 9.4 87.3 6.3
L 87.3 5.7 98 5.7 98 1.55
Q 98.1 -1.85 96.45 -4.2
M 92.45 0.45
L 92.45 1.3 87.3 1.3 87.3 0.45
Q 87.1 -1.9 90 -2.1 92.75 -1.9 92.45 0.45
M 102.3 -5.3
Q 100.65 -3.9 100.75 -0.75 100.6 1.95 101.6 3.3 102.5 4.6 106 5.45 108.3 5.95 108.8 6.35 109.35 6.75 109.25 7.65 109.5 9.4 107.2 9.35 103.75 9.25 101.2 8.45
L 100.25 12.8 103.8 13.65 107.45 14
Q 111.65 13.95 113.3 12.35 114.9 10.75 114.85 7.65 115 4.75 113.95 3.4 112.9 2.05 108.8 1.2
L 106.65 0.5
Q 106.2 0.15 106.25 -0.7 106.05 -2.05 108.4 -2.05
L 113.85 -1.5 114.4 -6.05 108.35 -6.7
Q 103.9 -6.75 102.3 -5.3
M 62.9 -6.7
Q 59.05 -6.65 55 -4.8
L 54.4 -6.3 50 -6.3 50 13.55 55.9 13.55 55.9 0.45
Q 58.15 -0.8 60.15 -1 61.65 -1 61.6 0.45
L 61.6 13.55 67.5 13.55 67.5 0.45
Q 69.75 -0.8 71.75 -1 73.2 -1 73.2 0.45
L 73.2 13.55 79.05 13.55 79.05 -0.35
Q 79.3 -6.45 74.5 -6.7 70.15 -6.6 66.55 -4.8 65.5 -6.7 62.9 -6.7
M 32.35 -1.3
L 37.75 -1.9
Q 40 -1.95 40.7 -1.3 41.35 -0.7 41.3 0.85
L 41.3 2.35 37 2.35
Q 30.95 2.15 31.05 7.95 30.9 13.5 36.25 14 38.35 14.1 41.9 12.3
L 42.3 13.55 47.15 13.55 47.15 0.9
Q 47.25 -3.25 45.55 -5 43.75 -6.8 38.75 -6.7 34.85 -6.65 31.6 -5.7
L 32.35 -1.3
M 41.3 6.45
L 41.3 8.75
Q 40 9.35 38.3 9.4 36.6 9.45 36.7 7.85 36.6 6.3 38.45 6.45
L 41.3 6.45
M 19.25 -14
Q 9.3 -13.65 9.25 -5.65
L 9.25 5.7
Q 9.3 13.55 19.25 14 24.05 13.95 28.6 12.7
L 28.6 -0.1 22.7 -0.5 19.5 -0.1 19.65 4.9 22.85 4.65 22.85 8.25 19.25 8.5
Q 15 8.15 15.4 4.6
L 15.4 -4.75
Q 15 -8.2 19.25 -8.45
L 27.2 -7.8 27.95 -13.15 19.25 -14 Z"/>
</g>
</defs>

<g transform="matrix( 1, 0, 0, 1, 0,0) ">
<use xlink:href="#Layer0_0_FILL"/>
</g>
</svg>
