
<svg xmlns="http://www.w3.org/2000/svg" version="1.1" xmlns:xlink="http://www.w3.org/1999/xlink" preserveAspectRatio="none" x="0px" y="0px" width="550px" height="400px" viewBox="0 0 550 400">
<defs>
<g id="Graphics_Symbol_818_0_Layer4_0_FILL">
<path fill="#000000" stroke="none" d="
M 119.75 81
L 104.4 61.95
Q 93.2 41.75 67.1 41.75 65.15 41.75 60.4 42.9
L 54.85 44.35 53.9 44.55
Q 57.3 37.75 57.3 28.15 57.3 26.75 55.4 17.6 51.45 20.85 48.1 29.1 46.1 34 43.7 36.45 42.35 34 29.55 22.15
L 28.85 21.5 25.75 17.7 28 20.7
Q 13.4 7.1 10.85 3.75 3.15 -6.3 2.5 -12.75 1.9 -21.85 -1 -26.3 -2.1 -28.05 -2.95 -27.8 -3.8 -27.5 -3.8 -25.1 -3.8 -23.55 -0.8 -9.3 0.3 -3.55 8.5 6.75 15.65 15.7 35.2 33.1 36.6 36.7 36.6 39.5 36.6 41.05 15.95 46.45 15.8 46.45 14.2 45.65 12.35 44.7 11.3 44.35
L 10.75 45
Q 20.05 53.45 24.25 55.85 27.4 57.65 31.35 57.65
L 34.95 57.05 38.2 56 39.1 55.6 31 71.3
Q 23.95 86 23.95 92.2
L 30.05 103.8
Q 36.65 117.35 39.25 127.5 42.05 138.45 49.4 142.45 56.5 146.3 73 146.3 91 146.3 100.1 139.85 108.7 133.75 112.7 119.25 116.3 106.2 121.1 97.1 125 90.75 125 89.95 125 87.9 119.75 81
M 121.35 90.25
Q 121.35 91.1 120.2 93.15 117.4 98.1 114.9 103.1
L 114.95 101.55
Q 111.9 104.45 109.7 112.3 106.75 123 105.3 126.05 97.45 142.95 70.75 142.95 54.4 142.95 48.45 136.05 46.05 133.3 43.2 127.3
L 37.2 114.9
Q 34.8 110.3 32.15 101.7 29.35 92.65 29.35 88.65
L 29.95 86.1 31.75 79.35 30.9 79.55
Q 35.45 62.5 47.45 53.7 58.35 45.65 73.7 45.65 86.25 45.65 94.9 54.15 100.6 59.8 102.2 65.3
L 117.55 84.9
Q 121.35 89.75 121.35 90.25
M 53.8 25.3
L 53.95 28.1
Q 53.95 40.6 48.95 47.5 43.85 54.55 34.25 54.55 32.8 54.55 30.05 53.45 27.35 52.35 21.35 49.35
L 32.15 46.75
Q 37.1 45.4 40.1 43.3 46.85 38.65 52.4 22.65 53.45 23.5 53.8 25.3
M 103.8 122.35
L 102.05 122.5
Q 97.85 122.5 90.1 121.05
L 82.05 119.4 81.45 119.6
Q 85.45 123.2 91.7 124.65
L 98.3 125.4
Q 100.1 125.4 101.65 124.5 103.1 123.65 103.8 122.35
M 86.9 90.3
Q 89.25 89.75 97.9 86.4 102 84.9 111.8 84.3
L 109 78.8
Q 105.2 74.7 100.1 71.8 90.45 66 77.45 67.5 72.55 68.15 68.3 75.05 62.7 84.4 64.5 99.4
L 65.15 101
Q 65.85 102.3 66.45 102.25 68.85 101.9 75.15 96.9 81.85 91.65 86.9 90.3
M 100.7 78.4
Q 100.95 80.65 94.95 83.65 88.7 86.9 81.55 87.75 81 87.8 79.65 85.45 78.45 83.1 78.25 81.35 77.85 78.05 80.65 75.2 83.1 72.85 85.45 72.6 91.8 71.8 96.8 74.7 100.55 76.9 100.7 78.4
M 106.45 82.5
Q 102.4 82.85 101.9 82.05 101.7 81.65 103 80.3
L 106.45 82.5
M 75.45 83.3
L 76.35 85.75
Q 77.4 88.4 78.65 89.4
L 73.05 93.6
Q 71.4 94.75 69.8 94.95
L 68.55 94.85
Q 69.55 81.7 72.35 76.15 75 71 79.55 72
L 77.35 76.8
Q 75.3 81.7 75.45 83.3
M 94.35 81.45
Q 95.85 80 95.6 78.2 95.35 76.45 93.6 75.3 91.95 74.2 89.65 74.5 87.35 74.7 85.95 76.25 84.45 77.7 84.65 79.45 84.85 81.3 86.6 82.4 88.4 83.45 90.7 83.2 93 82.95 94.35 81.45 Z"/>

<path fill="#FFFFFF" stroke="none" d="
M 76.35 85.75
L 75.45 83.3
Q 75.3 81.7 77.35 76.8
L 79.55 72
Q 75 71 72.35 76.15 69.55 81.7 68.55 94.85
L 69.8 94.95
Q 71.4 94.75 73.05 93.6
L 78.65 89.4
Q 77.4 88.4 76.35 85.75
M 101.9 82.05
Q 102.4 82.85 106.45 82.5
L 103 80.3
Q 101.7 81.65 101.9 82.05 Z"/>
</g>

<g id="Graphics_Symbol_818_0_Layer3_0_FILL">
<path fill="#000000" fill-opacity="0.25098039215686274" stroke="none" d="
M 117.05 80.45
Q 111.8 74.45 101.2 59.9 90.6 45.3 75.5 42.55 61.05 45.3 54.95 45.3
L 54.95 46.75 54.75 44.25 56 31.95 55.35 25.5 54.35 18.1
Q 46.2 35.55 43.75 38.25 42.05 40.15 38.85 41.8
L 30.4 45.9 29.75 44.95 28.95 44.75
Q 27.75 44.75 24.8 45.95 21.55 47.25 20.5 48.4
L 22.45 51.4 21.95 51.55
Q 21.7 51.7 21.6 52.2
L 21.65 53 27.55 54.65 31.75 54.8 38.75 54.65
Q 33.25 71 29.1 78.35 24.95 85.65 25.5 90.2 26.05 94.75 31.6 105.5 37.2 116.2 42.15 128.6 47.1 141 52.6 143.35 58.1 145.65 71.05 146 84 146.3 91.5 143.85 98.95 141.4 109.85 119.1 120.7 96.8 121.45 91.6 122.2 86.4 117.05 80.45
M 94.55 61.55
L 97.8 64.45
Q 100.95 66.8 103.45 69.7 107.15 74.1 108.65 78.8 109.6 80.55 110.15 82.35
L 111.55 86.55 110.05 90.55 108.75 91.05
Q 107.3 96.7 103.1 102.75
L 96.6 112.7
Q 92.45 119.05 89 122.9 79.05 134.05 66.95 134.05 56.7 134.05 46.6 123.9 35.1 112.35 35.1 96.5 35.1 87.4 41.9 75.2 48 64.25 52.1 62.45 54.2 61.5 62.3 59.75 72.55 57.45 79.05 57.45 84.45 57.45 90.95 60.5
L 94.1 61.4 94.55 61.55
M 53.9 30.75
Q 50.2 44.05 44.4 48.7 39.75 52.4 30.65 52.4
L 28.75 52.15 28.55 50.8
Q 28.35 49.2 30.55 47.65 31.5 46.95 36.4 44.3 47.25 38.4 53.9 30.75 Z"/>
</g>

<g id="Graphics_Symbol_818_0_Layer2_0_FILL">
<path fill="#000000" fill-opacity="0.25098039215686274" stroke="none" d="
M 108.75 91.05
L 110.05 90.55 111.55 86.55 110.15 82.35
Q 109.6 80.55 108.65 78.8 110.45 84.65 108.75 91.05
M 91.3 60.65
Q 94.85 62.3 97.8 64.45
L 94.55 61.55 94.1 61.4 90.95 60.5 91.3 60.65 Z"/>
</g>

<g id="Graphics_Symbol_818_0_Layer1_0_FILL">
<path fill="#FFFFFF" fill-opacity="0.25098039215686274" stroke="none" d="
M 90.15 97.3
L 90.15 96.95
Q 79.75 99.55 68.7 101
L 63.3 105.6 61.85 101.5 59.5 101.55
Q 55.9 99.55 53.85 97.25
L 52.5 95.95
Q 51 100.95 51 104.35 51 110.5 52.7 113.4 55.25 117.65 62.05 117.65 70 117.65 79.95 110.65 90.15 103.5 90.15 97.3 Z"/>
</g>

<g id="Graphics_Symbol_818_0_Layer0_0_FILL">
<path fill="#FFFFFF" fill-opacity="0.25098039215686274" stroke="none" d="
M 62.05 83.8
Q 60.55 80.35 58.55 78.8
L 58.35 79.6 53.6 92.6 52.5 95.95 53.85 97.25
Q 55.9 99.55 59.5 101.55
L 61.85 101.5 61.25 99.6 63.5 89.95
Q 63.5 87.1 62.05 83.8
M 90.15 96.95
Q 90 95.8 89.2 94.5 87.85 92.35 85.4 92.35 82.1 92.35 76.8 95.4 73 97.55 68.7 101 79.75 99.55 90.15 96.95 Z"/>
</g>

<g id="Parts_Heads_headColorMC_7_Layer1_0_FILL">
<path fill="#00CC99" stroke="none" d="
M 55.4 22.8
Q 51 21.5 50.25 24.65 49.15 29.3 47.55 32.05 41.95 41.55 21.35 49.35 25.7 51.5 29.45 53.55 31.55 54.55 37.25 54.7 42.95 54.85 48.45 50.9 53.9 46.9 55.4 22.8
M 117.25 84.35
Q 111.55 76.75 109.95 72.95 108.3 69.1 103.9 62.85 99.5 56.6 94.35 53.2 84.8 45.65 73.7 45.65 57.65 45.65 45.95 54.55 33.8 63.8 30.9 79.55
L 31.75 79.35 30.35 84.5
Q 29.35 87.75 29.35 88.65 29.35 92.5 30.1 95.05
L 32.3 102.15 30.95 101.4
Q 34.2 111.4 39.4 121.5 44.55 131.55 47.4 135.25 50.2 138.9 55.5 140.85 61.1 142.95 72.3 142.95 95.9 142.95 104.6 127.8 107 123.6 108.5 117.4 109.65 112.65 110.2 112.65 111.15 112.65 111.65 110.05 112.5 105.8 114.95 101.55
L 114.9 103.1
Q 117.2 100.4 119.5 95.25 121.35 90.95 121.35 90.1
L 117.25 84.35 Z"/>
</g>

<g id="Parts_Heads_headColorMC2_7_Layer3_0_FILL">
<path fill="#00CC99" stroke="none" d="
M 88.25 69.6
Q 84.55 68.25 81.15 71.85 77.7 75.4 77.55 78.2 77.45 80.95 77.75 81.9
L 78.4 84.15
Q 79.35 87.15 80.3 87.4 80.75 88.3 89.35 87.45 97.9 86.55 98.4 85.2 98.85 83.8 100 82.65 101.1 81.5 101.6 79.15 102.8 73.7 97.35 72.3 91.9 70.9 88.25 69.6 Z"/>
</g>
</defs>

<g transform="matrix( 1, 0, 0, 1, -62.75,-76.85) ">
<g transform="matrix( 1, 0, 0, 1, 0,0) ">
<g transform="matrix( 1, 0, 0, 1, 0,0) ">
<use xlink:href="#Graphics_Symbol_818_0_Layer4_0_FILL"/>
</g>

<g transform="matrix( 1, 0, 0, 1, 0,0) ">
<use xlink:href="#Graphics_Symbol_818_0_Layer3_0_FILL"/>
</g>

<g transform="matrix( 1, 0, 0, 1, 0,0) ">
<use xlink:href="#Graphics_Symbol_818_0_Layer2_0_FILL"/>
</g>

<g transform="matrix( 1, 0, 0, 1, 0,0) ">
<use xlink:href="#Graphics_Symbol_818_0_Layer1_0_FILL"/>
</g>

<g transform="matrix( 1, 0, 0, 1, 0,0) ">
<use xlink:href="#Graphics_Symbol_818_0_Layer0_0_FILL"/>
</g>
</g>

<g id="hat1" transform="matrix( 0.983917236328125, -0.17529296875, 0.17529296875, 0.983917236328125, 45.2,78.25) ">
<g id="colorMC" transform="matrix( 0.9999847412109375, 0, 0, 0.9999847412109375, 0,0) "/>

<g id="colorMC2" transform="matrix( 1, 0, 0, 1, 0,0) "/>
</g>

<g id="hat2" transform="matrix( 0.9733734130859375, -0.2247314453125, 0.2247314453125, 0.9733734130859375, 38,60.6) ">
<g id="colorMC_FL" transform="matrix( 0.9999847412109375, 0, 0, 0.9999847412109375, 0,0) "/>

<g id="colorMC2_FL" transform="matrix( 1, 0, 0, 1, 0,0) "/>
</g>

<g id="hat3" transform="matrix( 0.96026611328125, -0.2753753662109375, 0.2753753662109375, 0.96026611328125, 26,48.4) ">
<g id="colorMC_FL_FL" transform="matrix( 0.9999847412109375, 0, 0, 0.9999847412109375, 0,0) "/>

<g id="colorMC2_FL_FL" transform="matrix( 1, 0, 0, 1, 0,0) "/>
</g>

<g id="hat4" transform="matrix( 0.944580078125, -0.3252410888671875, 0.3252410888671875, 0.944580078125, 18.85,34.5) ">
<g id="colorMC_FL_FL_FL" transform="matrix( 0.9999847412109375, 0, 0, 0.9999847412109375, 0,0) "/>

<g id="colorMC2_FL_FL_FL" transform="matrix( 1, 0, 0, 1, 0,0) "/>
</g>
</g>

<g transform="matrix( 1, 0, 0, 1, -75.4,-101.9) ">
<g transform="matrix( 1, 0, 0, 1, 0,0) ">
<use xlink:href="#Parts_Heads_headColorMC_7_Layer1_0_FILL"/>
</g>
</g>

<g transform="matrix( 1, 0, 0, 1, -62.75,-76.85) ">
<g transform="matrix( 1, 0, 0, 1, 0,0) ">
<use xlink:href="#Parts_Heads_headColorMC2_7_Layer3_0_FILL"/>
</g>
</g>
</svg>
