
<svg xmlns="http://www.w3.org/2000/svg" version="1.1" xmlns:xlink="http://www.w3.org/1999/xlink" preserveAspectRatio="none" x="0px" y="0px" width="550px" height="400px" viewBox="0 0 550 400">
<defs>
<g id="Parts_Heads_headColorMC_7_Layer1_0_FILL">
<path fill="#00CC99" stroke="none" d="
M 50.25 24.65
Q 49.15 29.3 47.55 32.05 41.95 41.55 21.35 49.35 25.7 51.5 29.45 53.55 31.55 54.55 37.25 54.7 42.95 54.85 48.45 50.9 53.9 46.9 55.4 22.8 51 21.5 50.25 24.65
M 109.95 72.95
Q 108.3 69.1 103.9 62.85 99.5 56.6 94.35 53.2 84.8 45.65 73.7 45.65 57.65 45.65 45.95 54.55 33.8 63.8 30.9 79.55
L 31.75 79.35 30.35 84.5
Q 29.35 87.75 29.35 88.65 29.35 92.5 30.1 95.05
L 32.3 102.15 30.95 101.4
Q 34.2 111.4 39.4 121.5 44.55 131.55 47.4 135.25 50.2 138.9 55.5 140.85 61.1 142.95 72.3 142.95 95.9 142.95 104.6 127.8 107 123.6 108.5 117.4 109.65 112.65 110.2 112.65 111.15 112.65 111.65 110.05 112.5 105.8 114.95 101.55
L 114.9 103.1
Q 117.2 100.4 119.5 95.25 121.35 90.95 121.35 90.1
L 117.25 84.35
Q 111.55 76.75 109.95 72.95 Z"/>
</g>
</defs>

<g transform="matrix( 1, 0, 0, 1, -62.75,-76.85) ">
<g transform="matrix( 1, 0, 0, 1, 0,0) ">
<use xlink:href="#Parts_Heads_headColorMC_7_Layer1_0_FILL"/>
</g>
</g>
</svg>
