
<svg xmlns="http://www.w3.org/2000/svg" version="1.1" xmlns:xlink="http://www.w3.org/1999/xlink" preserveAspectRatio="none" x="0px" y="0px" width="550px" height="400px" viewBox="0 0 550 400">
<defs>
<g id="Parts_Heads_headColorMC2_7_Layer3_0_FILL">
<path fill="#00CC99" stroke="none" d="
M 88.25 69.6
Q 84.55 68.25 81.15 71.85 77.7 75.4 77.55 78.2 77.45 80.95 77.75 81.9
L 78.4 84.15
Q 79.35 87.15 80.3 87.4 80.75 88.3 89.35 87.45 97.9 86.55 98.4 85.2 98.85 83.8 100 82.65 101.1 81.5 101.6 79.15 102.8 73.7 97.35 72.3 91.9 70.9 88.25 69.6 Z"/>
</g>
</defs>

<g transform="matrix( 1, 0, 0, 1, -62.75,-76.85) ">
<g transform="matrix( 1, 0, 0, 1, 0,0) ">
<use xlink:href="#Parts_Heads_headColorMC2_7_Layer3_0_FILL"/>
</g>
</g>
</svg>
