
<svg xmlns="http://www.w3.org/2000/svg" version="1.1" xmlns:xlink="http://www.w3.org/1999/xlink" preserveAspectRatio="none" x="0px" y="0px" width="550px" height="400px" viewBox="0 0 550 400">
<defs>
<g id="Layer0_0_FILL">
<path fill="#FFFFFF" stroke="none" d="
M 5.05 1.8
Q 5 1.5 5 1.45 4.95 1.1 4.65 0.7
L 4.35 0.45 3.7 0.1
Q 3.3 -0.05 2.95 0 2.65 0 2.25 0.2 0.8 0.9 0.1 2.3 -0.05 2.6 0.05 2.95 0.25 3.3 0.45 3.15 1.15 2.75 1.55 2.65
L 1.7 2.6 1.75 2.55 2.05 2.55
Q 2.3 2.45 2.55 2.55 2.95 2.6 3.35 2.85
L 3.6 3.05
Q 3.7666015625 3.1833984375 4 3.25
L 4.2 3.3
Q 4.65 3.2 4.85 2.9 5.15 2.35 5 1.65
L 5.05 1.8 Z"/>
</g>
</defs>

<g transform="matrix( 1, 0, 0, 1, 0,0) ">
<use xlink:href="#Layer0_0_FILL"/>
</g>
</svg>
