
<svg xmlns="http://www.w3.org/2000/svg" version="1.1" xmlns:xlink="http://www.w3.org/1999/xlink" preserveAspectRatio="none" x="0px" y="0px" width="550px" height="400px" viewBox="0 0 550 400">
<defs>
<g id="MovieClips_Symbol_264_37_Layer1_0_FILL">
<path fill="#FF0000" stroke="none" d="
M -2.65 5.85
L -3.2 2.7 -12.2 2.45 -17.4 8.15
Q -20.9 11.3 -20.9 16.25 -20.9 18.15 -20.55 18.5 -20.05 18.05 -19.7 17
L -18.8 14.05 -17.5 13.95
Q -15.75 13.95 -15.55 16.05
L -15.3 17.25
Q -14.55 16.4 -14.3 13.55 -14.1 11.4 -12.55 11.4 -11.8 11.4 -11.3 12.15
L -9.75 14.7 -8.5 9.8 -8 9.65 -6.95 9.45 -5.75 10.65
Q -4.4 12 -3.25 12.7
L -2 11.85
Q -1.7 11.45 -1.7 10.6 -1.7 9.95 -2.65 5.85
M 41 14.95
L 41.05 14.95 41.05 15.05 41 14.95
Q 39.3 16 39.3 16.8 39.3 17.65 40.2 18.25 41.05 18.85 42.3 18.85 43.55 18.85 44.45 18.25 45.3 17.65 45.3 16.8 45.3 15.95 44.45 15.35 43.55 14.75 42.3 14.75
L 41 14.95
M 40.9 9.85
L 41.15 8.7
Q 41.15 7.3 40.2 3.9
L 40.2 2.65 39.75 0.9 38.95 0
Q 38.45 -0.2 38.05 0.3 37.6 0.75 37.2 2.35 35 5.9 34.1 7.7
L 32.3 11.25 32.95 12.55 33.1 12.75 34.35 7.85 34.85 7.7 35.9 7.5
Q 36.65 7.5 37.9 8.95
L 39.6 10.75
Q 40.65 10.25 40.9 9.85 Z"/>
</g>
</defs>

<g transform="matrix( 1, 0, 0, 1, -28.4,-10.7) ">
<g transform="matrix( 1, 0, 0, 1, 0,0) ">
<use xlink:href="#MovieClips_Symbol_264_37_Layer1_0_FILL"/>
</g>
</g>
</svg>
