
<svg xmlns="http://www.w3.org/2000/svg" version="1.1" xmlns:xlink="http://www.w3.org/1999/xlink" preserveAspectRatio="none" x="0px" y="0px" width="550px" height="400px" viewBox="0 0 550 400">
<defs>
<g id="Parts_Feet_footMC_37_Layer7_0_FILL">
<path fill="#FF0000" stroke="none" d="
M -2.65 5.85
L -3.2 2.7 -12.2 2.45 -17.4 8.15
Q -20.9 11.3 -20.9 16.25 -20.9 18.15 -20.55 18.5 -20.05 18.05 -19.7 17
L -18.8 14.05 -17.5 13.95
Q -15.75 13.95 -15.55 16.05
L -15.3 17.25
Q -14.55 16.4 -14.3 13.55 -14.1 11.4 -12.55 11.4 -11.8 11.4 -11.3 12.15
L -9.75 14.7 -8.5 9.8 -8 9.65 -6.95 9.45 -5.75 10.65
Q -4.4 12 -3.25 12.7
L -2 11.85
Q -1.7 11.45 -1.7 10.6 -1.7 9.95 -2.65 5.85
M 41 14.95
L 41.05 14.95 41.05 15.05 41 14.95
Q 39.3 16 39.3 16.8 39.3 17.65 40.2 18.25 41.05 18.85 42.3 18.85 43.55 18.85 44.45 18.25 45.3 17.65 45.3 16.8 45.3 15.95 44.45 15.35 43.55 14.75 42.3 14.75
L 41 14.95
M 40.9 9.85
L 41.15 8.7
Q 41.15 7.3 40.2 3.9
L 40.2 2.65 39.75 0.9 38.95 0
Q 38.45 -0.2 38.05 0.3 37.6 0.75 37.2 2.35 35 5.9 34.1 7.7
L 32.3 11.25 32.95 12.55 33.1 12.75 34.35 7.85 34.85 7.7 35.9 7.5
Q 36.65 7.5 37.9 8.95
L 39.6 10.75
Q 40.65 10.25 40.9 9.85 Z"/>
</g>

<g id="Graphics_Symbol_307_0_Layer2_0_FILL">
<path fill="#000000" stroke="none" d="
M -5.75 -11.2
L -7.05 -10.55 -7.3 -9.45 -3.3 -0.6
Q -15.75 -1.25 -20.55 4.6 -23.95 8.8 -23.95 17.75 -23.95 19.8 -23.35 20.75 -22.35 22.35 -19.5 22.35 -15.2 22.35 -11.05 20.05 -7.6 18.15 -7.6 17.35 -7.9 17 -7.8 16.7 -7.6 16.2 -5.5 16.2 -5 16.2 -3.85 16.7
L -2.2 17.2
Q -0.65 17.2 0.3 15.75 1.4 14.1 1.4 10.9
L 1.3 9.7 4.15 15.95
Q 2.55 17.7 1.5 22.15 0.95 24.35 0.75 26.35 0.75 32.65 16.6 36.4 30.75 39.8 50.4 39.8 58.25 39.8 61.05 37.45 64.6 34.45 63.8 25.9 63.3 20.5 62.05 18.95 59.45 15.7 49.75 13.35 47.25 13 46.15 14.05
L 44.7 13.05 43.6 12.8
Q 44.5 9.5 43.9 5.25 42.85 -0.35 42.35 -4.7 40.6 -5.95 35.45 -7.3
L 19 -11.2 -5.75 -11.2
M 3 -7.65
L 29.2 -5.65 36.6 -4.4 36.15 -3.75
Q 30 7.75 28.9 10.8 27.65 14.25 27.65 20.35 27.65 24.65 31.65 26.6 36.1 28.8 46.7 28.8
L 53.2 28.45
Q 56.4 27.8 56.4 25.6 56.4 18.25 47.15 18.25
L 47.75 16.9 53.95 16.9 58.65 20.6
Q 60.15 21.5 60.8 25.9
L 61.1 30.3
Q 61.1 33.3 58.3 34.8 55.65 36.25 50.65 36.25 46 36.25 37.95 34.75 28.5 33 19.2 32.4 10.45 31.85 6.45 29.45 3.85 27.9 3.85 26.35
L 6.95 16.8
Q 6.95 13.1 3.45 5.4
L -2.9 -7.65 3 -7.65
M 41.15 8.7
L 40.9 9.85
Q 40.65 10.25 39.6 10.75
L 37.9 8.95
Q 36.65 7.5 35.9 7.5
L 34.85 7.7 34.35 7.85 33.8 10.3 33.1 12.75 32.95 12.55 32.3 11.25 34.1 7.7
Q 35 5.9 37.2 2.35 37.6 0.75 38.05 0.3 38.45 -0.2 38.95 0
L 39.75 0.9 40.2 2.65 40.2 3.9
Q 41.15 7.3 41.15 8.7
M 45.3 16.8
Q 45.3 17.65 44.45 18.25 43.55 18.85 42.3 18.85 41.05 18.85 40.2 18.25 39.3 17.65 39.3 16.8 39.3 16 40.05 15.45
L 40.2 15.3
Q 40.5 15 41 14.95
L 42.3 14.75
Q 43.55 14.75 44.45 15.35 45.3 15.95 45.3 16.8
M 51.25 22.5
Q 52.15 22.5 52.5 23.6
L 52.7 24.7 45.75 25.7 43.85 25.85 42.3 26.05
Q 41.5 26.1 41.5 25.5
L 36.45 22.35
Q 31.35 19.15 31.1 18.5 36.25 15.8 36.8 13.05
L 38.05 14.4 37.55 15 37.05 15.85
Q 36.8 16.3 36.8 16.95 36.8 19.2 41.2 20.85 45.55 22.5 51.25 22.5
M -2.65 5.85
Q -1.7 9.95 -1.7 10.6 -1.7 11.45 -2 11.85
L -3.25 12.7
Q -4.4 12 -5.75 10.65
L -6.95 9.45 -8 9.65 -8.5 9.8 -9.05 12.25 -9.75 14.7 -11.3 12.15
Q -11.8 11.4 -12.55 11.4 -14.1 11.4 -14.3 13.55 -14.55 16.4 -15.3 17.25
L -15.55 16.05
Q -15.75 13.95 -17.5 13.95
L -18.8 14.05 -19.7 17
Q -20.05 18.05 -20.55 18.5 -20.9 18.15 -20.9 16.25 -20.9 11.3 -17.4 8.15
L -12.2 2.45 -3.2 2.7 -2.65 5.85 Z"/>
</g>

<g id="Graphics_Symbol_307_0_Layer1_0_FILL">
<path fill="#000000" fill-opacity="0.25098039215686274" stroke="none" d="
M -5.2 4.8
L -7.15 4.2
Q -9.55 4.2 -13.55 6.1 -15.55 7.05 -17.4 8.15 -20.9 11.3 -20.9 16.25 -20.9 18.15 -20.55 18.5 -20.05 18.05 -19.7 17
L -18.8 14.05 -17.5 13.95
Q -15.75 13.95 -15.55 16.05
L -15.3 17.25
Q -14.55 16.4 -14.3 13.55 -14.1 11.4 -12.55 11.4 -11.8 11.4 -11.3 12.15
L -9.75 14.7 -9.05 12.25 -8.5 9.8 -8 9.65 -6.95 9.45 -5.75 10.65
Q -4.4 12 -3.25 12.7
L -2 11.85
Q -1.7 11.45 -1.7 10.6 -1.7 9.95 -2.65 5.85 -3.35 5.45 -5.2 4.8
M 38.05 0.3
Q 37.6 0.75 37.2 2.35 38.75 2.85 40.2 3.9
L 40.2 2.65 39.75 0.9 38.95 0
Q 38.45 -0.2 38.05 0.3
M 3 -7.65
L -2.9 -7.65 3.45 5.4
Q 6.95 13.1 6.95 16.8
L 3.85 26.35
Q 3.85 27.9 6.45 29.45 10.45 31.85 19.2 32.4 28.5 33 37.95 34.75 46 36.25 50.65 36.25 55.65 36.25 58.3 34.8 61.1 33.3 61.1 30.3
L 60.8 25.9
Q 60.15 21.5 58.65 20.6
L 57.45 25.6
Q 56.85 28.25 56.2 29.5 54.35 33 47.6 33 35.6 33 24.95 28.35 14.05 23.55 13.3 17.55 12 6.75 10.25 1.65 7.8 -5.35 3 -7.65 Z"/>
</g>

<g id="Graphics_Symbol_307_0_Layer0_0_FILL">
<path fill="#FFFFFF" fill-opacity="0.5019607843137255" stroke="none" d="
M 42.3 16.15
L 41.95 15.3
Q 41.55 14.95 41.05 14.95
L 41 14.95
Q 40.5 15 40.2 15.3
L 40.05 15.45
Q 39.8 15.75 39.8 16.15 39.8 16.65 40.2 17 40.55 17.35 41.05 17.35 41.55 17.35 41.95 17
L 42.3 16.15 Z"/>
</g>
</defs>

<g transform="matrix( 1, 0, 0, 1, -28.4,-10.7) ">
<g transform="matrix( 1, 0, 0, 1, 0,0) ">
<use xlink:href="#Parts_Feet_footMC_37_Layer7_0_FILL"/>
</g>

<g transform="matrix( 1, 0, 0, 1, 0,0) ">
<g transform="matrix( 1, 0, 0, 1, 0,0) ">
<use xlink:href="#Graphics_Symbol_307_0_Layer2_0_FILL"/>
</g>

<g transform="matrix( 1, 0, 0, 1, 0,0) ">
<use xlink:href="#Graphics_Symbol_307_0_Layer1_0_FILL"/>
</g>

<g transform="matrix( 1, 0, 0, 1, 0,0) ">
<use xlink:href="#Graphics_Symbol_307_0_Layer0_0_FILL"/>
</g>
</g>
</g>
</svg>
