
<svg xmlns="http://www.w3.org/2000/svg" version="1.1" xmlns:xlink="http://www.w3.org/1999/xlink" preserveAspectRatio="none" x="0px" y="0px" width="550px" height="400px" viewBox="0 0 550 400">
<defs>
<g id="Layer0_0_FILL">
<path fill="#000000" stroke="none" d="
M 36.75 -33.5
L 31.5 -31.9 22.7 -23.1
Q 21.9 -22.2 22.15 -22.15
L 6.35 -1.4
Q -5.6 14.1 -8.4 18.75 -10.35 22.05 -17.5 22.8 -20.6 23.1 -21.75 23.75 -23.55 24.75 -23.55 27.3 -23.55 32.35 -21.75 33.75 -20.1 35.05 -14.05 35.05 -7.95 35.05 -0.2 28.05 8.25 19.45 12.15 16.2 13.3 22.95 23 30 32.85 37.1 41.5 37.1
L 47.35 36.55
Q 51.05 35.95 53.2 34.95
L 61.75 30.85
Q 65.55 28.95 68.3 28.25
L 72.7 27
Q 74.3 26.1 74.3 23.2
L 73.55 21.15
Q 73.55 20.55 72.1 20.7
L 69.9 20.95
Q 51.3 20.95 40.2 17.6 36.9 16.6 33.65 15.1
L 29.85 13.45 29.8 11.3 29.95 11.3 31.4 0.65 31.65 -9.4
Q 32.4 -9.4 36.1 -24.1 36.55 -25.5 38.05 -27.05 39.05 -28.1 39.05 -30.75 39.05 -32.15 38.25 -32.9 37.65 -33.5 36.75 -33.5
M 35.9 -30.75
Q 34 -26 32.2 -19.9 28.55 -7.7 28.55 0.7
L 27.1 6.65 28.6 15.65
Q 29.6 19.95 31.6 22.35 36.3 28 51.35 28
L 54.6 28.25
Q 57.15 28.55 57.85 28.95
L 58 29.05 58.05 29.65
Q 57.55 30.95 55.3 32.15 50.8 34.5 41.9 34.5 32 34.5 24.45 27.2 19.55 22.5 13.8 12.2
L 12.7 12
Q 5.05 19.55 -2.55 25.75 -17.7 38.2 -17.7 31.7
L -20.55 29.5 -21.15 29.35 -21 28.4
Q -18.1 27.85 -14.35 26.25 -6.85 23.1 -2.8 17.45 10.75 -2.4 17.55 -11.75 29.6 -28.15 35.9 -30.75
M 70.75 23.2
L 70.85 23.5 71.65 24.25
Q 70.8 25.5 67.9 26.7 64.65 28.05 61.55 28.05 54.7 26.6 47.4 24.45 32.9 20.05 30.45 16.3 34.35 18.1 44.65 20.35 57.15 23 66.55 23
L 70.75 23.2 Z"/>
</g>
</defs>

<g transform="matrix( 1, 0, 0, 1, 0,0) ">
<use xlink:href="#Layer0_0_FILL"/>
</g>
</svg>
