
<svg xmlns="http://www.w3.org/2000/svg" version="1.1" xmlns:xlink="http://www.w3.org/1999/xlink" preserveAspectRatio="none" x="0px" y="0px" width="550px" height="400px" viewBox="0 0 550 400">
<defs>
<g id="Layer0_0_FILL">
<path fill="#FFFFFF" fill-opacity="0.5019607843137255" stroke="none" d="
M -12.7 26.25
Q -13.45 25.65 -14.5 25.65 -15.55 25.65 -16.3 26.25 -17.05 26.8 -17.05 27.65 -17.05 28.5 -16.3 29.1 -15.55 29.65 -14.5 29.65 -13.45 29.65 -12.7 29.1 -11.95 28.5 -11.95 27.65 -11.95 26.8 -12.7 26.25
M 53.4 28.8
Q 52.7 28.1 51.7 28.1 50.7 28.1 50 28.8 49.3 29.5 49.3 30.5 49.3 31.5 50 32.2 50.7 32.9 51.7 32.9 52.7 32.9 53.4 32.2 54.1 31.5 54.1 30.5 54.1 29.5 53.4 28.8
M 71.15 24.6
Q 71.15 23.9 70.35 23.4 69.55 22.9 68.4 22.9 67.25 22.9 66.45 23.4 65.65 23.9 65.65 24.6 65.65 25.3 66.45 25.8 67.25 26.3 68.4 26.3 69.55 26.3 70.35 25.8 71.15 25.3 71.15 24.6 Z"/>
</g>
</defs>

<g transform="matrix( 1, 0, 0, 1, 0,0) ">
<use xlink:href="#Layer0_0_FILL"/>
</g>
</svg>
