
<svg xmlns="http://www.w3.org/2000/svg" version="1.1" xmlns:xlink="http://www.w3.org/1999/xlink" preserveAspectRatio="none" x="0px" y="0px" width="550px" height="400px" viewBox="0 0 550 400">
<defs>
<g id="Layer0_0_FILL">
<path fill="#000000" fill-opacity="0.25098039215686274" stroke="none" d="
M 32.9 -19.25
L 36.6 -30.9
Q 36.6 -31.9 36.4 -31.85 33.35 -35.15 23.35 -22.85 14.35 -11.85 3.95 6.15 -0.45 13.75 -4.6 18.5 -7.95 22.35 -9.85 23.1 -14.35 24.85 -19 25.75 -21.75 26.25 -21.75 26.9 -21.75 29.75 -19.8 32.15 -17.7 34.8 -14.65 34.8 -10.9 34.8 -8.55 33.75 -6.65 32.9 -4.1 30.45 6.1 20.6 12.25 16.15 15.65 24.45 20.55 28.55 28.5 35.3 42.95 35.3 48.7 35.3 53.8 33.2 58.9 31.15 58.9 28.8
L 57.75 26.85 58.75 27.1
Q 59.9 27.25 60.15 27.9 60.35 28.5 61.15 28.5 63.6 28.5 66.95 27.5 70.95 26.35 72.25 24.55 71.55 23.7 69.5 23.6
L 64.95 23.6
Q 68.4 24.2 70.15 24.75
L 70 25.9 62.45 26.85
Q 58.3 26.85 48.5 24.05 39.5 21.45 37.9 20.3
L 46.65 21.25 43.45 20.35 37.5 19.7
Q 34.35 19.7 33 18.75 29.15 16.05 29.15 -2.05 29.15 -6.75 32.9 -19.25
M 18.1 -9.05
L 21.25 -10.85
Q 23.65 -12.45 27.15 -16.4 25.75 -12.8 24.85 -8.8 23.15 -1.25 23.15 9 23.15 17.55 31.2 23.05 39.45 28.65 54.65 30 53.7 31.1 50.55 32.25 47.8 33.25 46.75 33.25 32.8 33.25 24 20.4
L 18.75 11.55
Q 16.4 7.55 14.8 7.55 13.5 7.55 1.4 19.2 -10.7 30.85 -12.65 30.85 -15.7 30.5 -16.5 28.85 -15.55 27.5 -12.8 25.85 -9.2 23.85 -7.1 22.45 1.35 17.05 6.45 8.1 15.05 -6.95 18.1 -9.05 Z"/>
</g>
</defs>

<g transform="matrix( 1, 0, 0, 1, 0,0) ">
<use xlink:href="#Layer0_0_FILL"/>
</g>
</svg>
