
<svg xmlns="http://www.w3.org/2000/svg" version="1.1" xmlns:xlink="http://www.w3.org/1999/xlink" preserveAspectRatio="none" x="0px" y="0px" width="550px" height="400px" viewBox="0 0 550 400">
<defs>
<g id="Parts_Hats_hatsMC_5_Layer9_0_FILL">
<path fill="#000000" stroke="none" d="
M 45.25 -74.9
L 50.85 -83.1
Q 44.6 -104.3 30.3 -95.95 31.15 -84.6 38.25 -77.65
L 25.15 -55.7 12.4 -71.35
Q 14.8 -74.65 14.05 -79.6 13.7 -82.4 12.3 -84.75 3.7 -101.85 -1 -85.8 -2.25 -81.55 -0.95 -76.6 0.2 -71.75 2.85 -67.95 4.05 -54.8 -3.65 -47.25
L -24.15 -64.15
Q -19.45 -81.55 -34.4 -86.8 -35.95 -87.4 -36.95 -85.6 -43.55 -74.2 -34.1 -67 -31.95 -65.2 -29.4 -64.3
L -26.1 -46.65 -50.4 -64.3
Q -52.95 -82.3 -64.25 -76.5 -68.85 -73.95 -67.9 -66.5 -66.8 -58.05 -60.3 -58.75
L -59.05 -58.85
Q -48.35 -28.45 -30.5 -4.35
L 42.05 -18.35 45.25 -74.9
M 39.7 -80.6
Q 34.15 -85.95 33.05 -94.2
L 34.55 -96.5
Q 43.7 -94.9 47.55 -83.35
L 39.7 -80.6
M 5.3 -89.35
Q 14.15 -85.25 10.2 -75.25
L 9.55 -73.8 6.4 -75.1 3.8 -72.1
Q 0.6 -79.85 2.7 -87.3
L 5.3 -89.35
M 7.75 -67.7
L 9 -68.25 25.75 -50 40.45 -74.7 42.4 -75.3 39.55 -21.6 -30.1 -8.65 -56.8 -59.4 -53.85 -60.4 -25.1 -41.9
Q -22.25 -43.35 -22.35 -47.5 -22.5 -54.4 -25.45 -60.5 -15.3 -47.55 -2.55 -42.35 5.95 -52.45 7.75 -67.7
M -37.85 -76
L -36.8 -80.1
Q -27.55 -89.85 -25.25 -69.95
L -25.2 -69.4
Q -33.5 -65.1 -37.85 -76
M -62.9 -76.4
L -61.9 -76.95
Q -54.95 -75.6 -53.9 -66.25
L -63.05 -62.6
Q -69.65 -70.4 -62.9 -76.4 Z"/>

<path fill="#FF0000" stroke="none" d="
M -61.9 -76.95
L -62.9 -76.4
Q -69.65 -70.4 -63.05 -62.6
L -53.9 -66.25
Q -54.95 -75.6 -61.9 -76.95
M -36.8 -80.1
L -37.85 -76
Q -33.5 -65.1 -25.2 -69.4
L -25.25 -69.95
Q -27.55 -89.85 -36.8 -80.1
M 10.2 -75.25
Q 14.15 -85.25 5.3 -89.35
L 2.7 -87.3
Q 0.6 -79.85 3.8 -72.1
L 6.4 -75.1 9.55 -73.8 10.2 -75.25
M 33.05 -94.2
Q 34.15 -85.95 39.7 -80.6
L 47.55 -83.35
Q 43.7 -94.9 34.55 -96.5
L 33.05 -94.2 Z"/>
</g>

<g id="Graphics_Symbol_695_0_Layer2_0_FILL">
<path fill="#000000" fill-opacity="0.25098039215686274" stroke="none" d="
M 44.1 -59.55
Q 45.8 -71.1 44.25 -76.5
L 43.2 -77.45
Q 33.05 -73.55 30 -61.1 29.3 -58.35 27.95 -55.85
L 27.05 -55.65 26.3 -55.7 24.85 -54.6
Q 17.75 -59 13.35 -66.4 11 -70.2 7.45 -73 3.7 -64.65 1.9 -53.05 0.2 -41.35 -9.35 -48.9 -18.85 -56.55 -24.15 -62.9 -25.35 -64.5 -27.25 -64.1 -28.85 -57.7 -25.85 -50.9 -25.1 -48.85 -25.15 -46.95 -33.55 -48.2 -39.95 -55.25 -48 -63.95 -58.5 -63.75 -55.3 -54.55 -49.8 -42.15
L -40.05 -20.05
Q -35.7 -10.35 -31.25 -7.6
L -31.45 -8.7 -23.9 -10 -39 -38.65 -25.3 -30.05 -17.9 -44.9
Q -11.65 -36.8 -2 -35.85 5 -35 7.6 -43.05 9.15 -47.95 11.1 -52.7
L 23.9 -42.1 36 -58.9 32.5 -20.3 41.5 -21.3
Q 40.35 -25.85 41.25 -35.6 42.45 -47.95 44.1 -59.55 Z"/>
</g>

<g id="Graphics_Symbol_695_0_Layer1_0_FILL">
<path fill="#FFFFFF" fill-opacity="0.5019607843137255" stroke="none" d="
M 27.6 -18.9
L 21.45 -49.45 20.55 -52.25
Q 8.8 -53.25 -0.75 -47 -9.35 -41.65 -19 -45.55
L -20.8 -45.65 -13.95 -11.75 27.6 -18.9 Z"/>
</g>

<g id="Graphics_Symbol_695_0_Layer0_0_FILL">
<path fill="#FFFFFF" stroke="none" d="
M -58.45 -71.45
Q -59.35 -72.3 -61.6 -71.85 -63.3 -71.65 -63.8 -70.9
L -63.8 -69.75
Q -63.65 -68.8 -63 -68 -62 -66.8 -60.5 -67.05 -59.15 -67.3 -58.35 -68.4 -57.65 -69.4 -57.85 -70.4 -57.95 -71.05 -58.45 -71.45
M -30.1 -73.6
Q -28.65 -74.75 -28.75 -75.5 -29.1 -77.2 -32.3 -78.05 -35.45 -78.9 -34.85 -75.3
L -34.45 -73.85
Q -33.65 -72.15 -31.9 -72.5 -31.4 -72.6 -30.1 -73.6
M 1.5 -14.4
L 9.25 -16.5 11.7 -18
Q 11.45 -28.9 7.2 -40.1 6.75 -44.05 3.85 -46.25
L 2.75 -46.8
Q -10.85 -40.55 -3.75 -25.35
L 1.5 -14.4
M 4 -81
Q 4.85 -79.35 6 -79.55 7 -79.75 7.75 -81.4 8.4 -82.85 8.3 -83.55 8 -85.55 5.5 -85.4 2.95 -85.25 3.4 -82.75
L 4 -81
M 41.15 -87.15
Q 42.45 -88.3 42.35 -89.15 42 -90.85 39.3 -90.4
L 37.2 -89.65
Q 35.85 -88.75 36.05 -87.6
L 36.35 -86.35
Q 36.9 -85.45 38.35 -85.65 39.75 -85.9 41.15 -87.15 Z"/>
</g>

<g id="MovieClips_PR2_Graphics_1_Apr_2014_fla_Symbol_667_5_Layer0_0_FILL">
<path fill="#FFFF00" stroke="none" d="
M 40.45 -74.7
L 25.75 -50 9 -68.25 7.75 -67.7
Q 5.95 -52.45 -2.55 -42.35 -15.3 -47.55 -25.45 -60.5 -22.5 -54.4 -22.35 -47.5 -22.25 -43.35 -25.1 -41.9
L -53.85 -60.4 -56.8 -59.4 -30.1 -8.65 39.55 -21.6 42.4 -75.3 40.45 -74.7 Z"/>
</g>

<g id="MovieClips_PR2_Graphics_1_Apr_2014_fla_Symbol_684_5_Layer1_0_FILL">
<path fill="#FF0000" stroke="none" d="
M -61.9 -76.95
L -62.9 -76.4
Q -69.65 -70.4 -63.05 -62.6
L -53.9 -66.25
Q -54.95 -75.6 -61.9 -76.95
M -36.8 -80.1
L -37.85 -76
Q -33.5 -65.1 -25.2 -69.4
L -25.25 -69.95
Q -27.55 -89.85 -36.8 -80.1
M 3.8 -72.1
L 6.4 -75.1 9.55 -73.8 10.2 -75.25
Q 14.15 -85.25 5.3 -89.35
L 2.7 -87.3
Q 0.6 -79.85 3.8 -72.1
M 33.05 -94.2
Q 34.15 -85.95 39.7 -80.6
L 47.55 -83.35
Q 43.7 -94.9 34.55 -96.5
L 33.05 -94.2 Z"/>
</g>
</defs>

<g transform="matrix( 1, 0, 0, 1, 0,0) ">
<g transform="matrix( 1, 0, 0, 1, 0,0) ">
<use xlink:href="#Parts_Hats_hatsMC_5_Layer9_0_FILL"/>
</g>

<g transform="matrix( 1, 0, 0, 1, 0,0) ">
<g transform="matrix( 1, 0, 0, 1, 0,0) ">
<use xlink:href="#Graphics_Symbol_695_0_Layer2_0_FILL"/>
</g>

<g transform="matrix( 1, 0, 0, 1, 0,0) ">
<use xlink:href="#Graphics_Symbol_695_0_Layer1_0_FILL"/>
</g>

<g transform="matrix( 1, 0, 0, 1, 0,0) ">
<use xlink:href="#Graphics_Symbol_695_0_Layer0_0_FILL"/>
</g>
</g>
</g>

<g transform="matrix( 1, 0, 0, 1, 0,0) ">
<g transform="matrix( 1, 0, 0, 1, 0,0) ">
<use xlink:href="#MovieClips_PR2_Graphics_1_Apr_2014_fla_Symbol_667_5_Layer0_0_FILL"/>
</g>
</g>

<g transform="matrix( 1, 0, 0, 1, 0,0) ">
<g transform="matrix( 1, 0, 0, 1, 0,0) ">
<use xlink:href="#MovieClips_PR2_Graphics_1_Apr_2014_fla_Symbol_684_5_Layer1_0_FILL"/>
</g>
</g>
</svg>
