
<svg xmlns="http://www.w3.org/2000/svg" version="1.1" xmlns:xlink="http://www.w3.org/1999/xlink" preserveAspectRatio="none" x="0px" y="0px" width="550px" height="400px" viewBox="0 0 550 400">
<defs>
<g id="MovieClips_Symbol_34_0_Layer0_0_FILL">
<path fill="#000000" stroke="none" d="
M 21.45 -19.55
Q 12.6 -27.65 0 -27.65 -12.55 -27.65 -21.5 -19.55 -30.4 -11.4 -30.4 0 -30.4 11.4 -21.5 19.5 -12.55 27.6 0 27.6 12.6 27.6 21.45 19.5 30.4 11.4 30.4 0 30.4 -11.4 21.45 -19.55 Z"/>
</g>

<g id="MovieClips_Symbol_36_0_Layer0_0_FILL">
<path fill="#000000" stroke="none" d="
M -0.6 -7.25
Q -1.2 -4.4 -3.35 -1 -0.65 0.2 1.15 3.5 0.8 6.2 -1.35 8
L 1.4 12.5 1.4 19 9.65 19.25 9.65 -5.75
Q 4.3 -21 -9.6 -19 -2.4 -13.4 -0.6 -7.25 Z"/>
</g>

<g id="MovieClips_Symbol_38_0_Layer0_0_FILL">
<path fill="#000000" stroke="none" d="
M 14.75 -17.9
L 10.4 -19.6
Q 7.25 -2.2 -5.1 12.5
L -14.7 19.65 -11.7 19.65 -4.95 17.4
Q 9.85 4.7 14.75 -17.9 Z"/>
</g>

<g id="MovieClips_Symbol_40_0_Layer0_0_FILL">
<path fill="#000000" stroke="none" d="
M -8.8 -8.4
Q -18.05 -12.4 -21.3 -8.4
L 18.95 10.45 21.3 6.75 -8.8 -8.4 Z"/>
</g>

<path id="MovieClips_Symbol_34_0_Layer0_0_1_STROKES" stroke="#000000" stroke-width="1" stroke-linejoin="round" stroke-linecap="round" fill="none" d="
M 0 -27.65
Q 12.6 -27.65 21.45 -19.55 30.4 -11.4 30.4 0 30.4 11.4 21.45 19.5 12.6 27.6 0 27.6 -12.55 27.6 -21.5 19.5 -30.4 11.4 -30.4 0 -30.4 -11.4 -21.5 -19.55 -12.55 -27.65 0 -27.65 Z"/>

<path id="MovieClips_Symbol_36_0_Layer0_0_1_STROKES" stroke="#000000" stroke-width="1" stroke-linejoin="round" stroke-linecap="round" fill="none" d="
M 9.65 -5.75
Q 4.3 -21 -9.6 -19 -2.4 -13.4 -0.6 -7.25 -1.2 -4.4 -3.35 -1 -0.65 0.2 1.15 3.5 0.8 6.2 -1.35 8
L 1.4 12.5 1.4 19 9.65 19.25 9.65 -5.75 Z"/>

<path id="MovieClips_Symbol_38_0_Layer0_0_1_STROKES" stroke="#000000" stroke-width="1" stroke-linejoin="round" stroke-linecap="round" fill="none" d="
M 14.75 -17.9
Q 9.85 4.7 -4.95 17.4
L -11.7 19.65 -14.7 19.65 -5.1 12.5
Q 7.25 -2.2 10.4 -19.6
L 14.75 -17.9 Z"/>

<path id="MovieClips_Symbol_40_0_Layer0_0_1_STROKES" stroke="#000000" stroke-width="1" stroke-linejoin="round" stroke-linecap="round" fill="none" d="
M 18.95 10.45
L -21.3 -8.4
Q -18.05 -12.4 -8.8 -8.4
L 21.3 6.75 18.95 10.45 Z"/>
</defs>

<g transform="matrix( 1, 0, 0, 1, -1.3,0.05) ">
<g transform="matrix( 0.595062255859375, -0.36846923828125, 0.3445281982421875, 0.60711669921875, -5.8,0.15) ">
<g transform="matrix( 1, 0, 0, 1, 0,0) ">
<use xlink:href="#MovieClips_Symbol_34_0_Layer0_0_FILL"/>

<use xlink:href="#MovieClips_Symbol_34_0_Layer0_0_1_STROKES"/>
</g>
</g>

<g transform="matrix( 0.49261474609375, -0.01519775390625, -0.0036163330078125, 0.4856414794921875, 6.15,12.2) ">
<g transform="matrix( 1, 0, 0, 1, 0,0) ">
<use xlink:href="#MovieClips_Symbol_34_0_Layer0_0_FILL"/>

<use xlink:href="#MovieClips_Symbol_34_0_Layer0_0_1_STROKES"/>
</g>
</g>

<g transform="matrix( 0.69000244140625, -0.021270751953125, -0.0043792724609375, 0.58709716796875, 15.55,20.8) ">
<g transform="matrix( 1, 0, 0, 1, 0,0) ">
<use xlink:href="#MovieClips_Symbol_34_0_Layer0_0_FILL"/>

<use xlink:href="#MovieClips_Symbol_34_0_Layer0_0_1_STROKES"/>
</g>
</g>

<g transform="matrix( 0.6995697021484375, 0.0192413330078125, -0.00518798828125, -0.6222991943359375, -3.65,16.5) ">
<g transform="matrix( 1, 0, 0, 1, 0,0) ">
<use xlink:href="#MovieClips_Symbol_36_0_Layer0_0_FILL"/>

<use xlink:href="#MovieClips_Symbol_36_0_Layer0_0_1_STROKES"/>
</g>
</g>

<g transform="matrix( -0.67706298828125, -0.179656982421875, 0.176025390625, -0.5961151123046875, -19.85,12.7) ">
<g transform="matrix( 1, 0, 0, 1, 0,0) ">
<use xlink:href="#MovieClips_Symbol_36_0_Layer0_0_FILL"/>

<use xlink:href="#MovieClips_Symbol_36_0_Layer0_0_1_STROKES"/>
</g>
</g>

<g transform="matrix( 0.7224578857421875, -0.0000152587890625, 0, 0.8197021484375, -39.5,20.75) ">
<g transform="matrix( 1, 0, 0, 1, 0,0) ">
<use xlink:href="#MovieClips_Symbol_38_0_Layer0_0_FILL"/>

<use xlink:href="#MovieClips_Symbol_38_0_Layer0_0_1_STROKES"/>
</g>
</g>

<g transform="matrix( 0.811981201171875, 0.109619140625, -0.109619140625, 0.811981201171875, -16.1,14.4) ">
<g transform="matrix( 1, 0, 0, 1, 0,0) ">
<use xlink:href="#MovieClips_Symbol_40_0_Layer0_0_FILL"/>

<use xlink:href="#MovieClips_Symbol_40_0_Layer0_0_1_STROKES"/>
</g>
</g>

<g transform="matrix( -0.5605926513671875, 0.2237396240234375, 0.12225341796875, 0.7676849365234375, 42.2,12.65) ">
<g transform="matrix( 1, 0, 0, 1, 0,0) ">
<use xlink:href="#MovieClips_Symbol_38_0_Layer0_0_FILL"/>

<use xlink:href="#MovieClips_Symbol_38_0_Layer0_0_1_STROKES"/>
</g>
</g>

<g transform="matrix( -0.664031982421875, -0.018402099609375, -0.166412353515625, 0.776824951171875, 19.1,6.1) ">
<g transform="matrix( 1, 0, 0, 1, 0,0) ">
<use xlink:href="#MovieClips_Symbol_40_0_Layer0_0_FILL"/>

<use xlink:href="#MovieClips_Symbol_40_0_Layer0_0_1_STROKES"/>
</g>
</g>

<g transform="matrix( 0.30743408203125, 0, 0.0000152587890625, 0.39508056640625, -24.75,-23.25) ">
<g transform="matrix( 1, 0, 0, 1, 0,0) ">
<use xlink:href="#MovieClips_Symbol_38_0_Layer0_0_FILL"/>

<use xlink:href="#MovieClips_Symbol_38_0_Layer0_0_1_STROKES"/>
</g>
</g>

<g transform="matrix( 0.27593994140625, 0.2415008544921875, -0.213165283203125, 0.312530517578125, -17,-22.9) ">
<g transform="matrix( 1, 0, 0, 1, 0,0) ">
<use xlink:href="#MovieClips_Symbol_40_0_Layer0_0_FILL"/>

<use xlink:href="#MovieClips_Symbol_40_0_Layer0_0_1_STROKES"/>
</g>
</g>

<g transform="matrix( 0.266265869140625, 0.15374755859375, -0.197509765625, 0.342193603515625, -11.85,-28.75) ">
<g transform="matrix( 1, 0, 0, 1, 0,0) ">
<use xlink:href="#MovieClips_Symbol_38_0_Layer0_0_FILL"/>

<use xlink:href="#MovieClips_Symbol_38_0_Layer0_0_1_STROKES"/>
</g>
</g>

<g transform="matrix( 0.27593994140625, 0.241455078125, -0.2131805419921875, 0.3125457763671875, -1,-24.9) ">
<g transform="matrix( 1, 0, 0, 1, 0,0) ">
<use xlink:href="#MovieClips_Symbol_40_0_Layer0_0_FILL"/>

<use xlink:href="#MovieClips_Symbol_40_0_Layer0_0_1_STROKES"/>
</g>
</g>

<g transform="matrix( -0.45452880859375, -0.014007568359375, 0.00384521484375, 0.51458740234375, 41.1,14.75) ">
<g transform="matrix( 1, 0, 0, 1, 0,0) ">
<use xlink:href="#MovieClips_Symbol_38_0_Layer0_0_FILL"/>

<use xlink:href="#MovieClips_Symbol_38_0_Layer0_0_1_STROKES"/>
</g>
</g>

<g transform="matrix( -0.5153656005859375, 0.05401611328125, 0.0718536376953125, 0.5068359375, 26.3,10) ">
<g transform="matrix( 1, 0, 0, 1, 0,0) ">
<use xlink:href="#MovieClips_Symbol_40_0_Layer0_0_FILL"/>

<use xlink:href="#MovieClips_Symbol_40_0_Layer0_0_1_STROKES"/>
</g>
</g>
</g>
</svg>
