
<svg xmlns="http://www.w3.org/2000/svg" version="1.1" xmlns:xlink="http://www.w3.org/1999/xlink" preserveAspectRatio="none" x="0px" y="0px" width="550px" height="400px" viewBox="0 0 550 400">
<defs>
<g id="Layer0_0_FILL">
<path fill="#FFFFFF" stroke="none" d="
M 109.65 116.9
Q 109.65 119.7 110.25 120.65
L 113.8 123.65 114.35 123.45
Q 114.55 123.35 114.55 122.75
L 114.05 120.5
Q 113.55 118.2 113.45 106.8
L 109.65 116.9
M 67.9 80.8
Q 67.9 77.75 65 75.6 62.6 73.8 60.35 73.8 56.95 73.8 51.3 78.1 44.05 83.6 44.05 90.95 44.05 97.95 48.55 103.7 52.1 108.3 54 108.3 56.2 108.3 59.7 102.1
L 64.05 93.45
Q 67.9 86.25 67.9 80.8
M 94.8 90.65
Q 89.25 84.95 85.65 84.6
L 85.4 85.25
Q 85.85 87.3 88.8 90.9 92.3 95.15 100.6 103.35
L 100.7 101.4
Q 100.7 96.7 94.8 90.65
M 116.25 86.6
L 117.1 92.05 117.15 93.55
Q 117.75 89.8 117.3 86.05
L 116.25 86.6 Z"/>
</g>
</defs>

<g transform="matrix( 1, 0, 0, 1, 0,0) ">
<use xlink:href="#Layer0_0_FILL"/>
</g>
</svg>
