
<svg xmlns="http://www.w3.org/2000/svg" version="1.1" xmlns:xlink="http://www.w3.org/1999/xlink" preserveAspectRatio="none" x="0px" y="0px" width="550px" height="400px" viewBox="0 0 550 400">
<defs>
<g id="Layer0_0_FILL">
<path fill="#010265" fill-opacity="0.25098039215686274" stroke="none" d="
M 91.05 45.5
Q 91.05 43.4 83.6 40.95 76.15 38.5 68.8 38.1 61.45 37.7 50.55 40.35 39.6 43 24.1 51.8 27.5 52.8 28.4 54.1 29.3 55.35 41.1 64.2 34.7 67.7 30.4 75.55 26.05 83.4 25.65 101.1 25.25 118.8 36.15 132.25 40.55 137.65 45.75 140.7 50.6 143.55 54.5 143.55 69.8 143.55 83.3 141.2 98.45 138.6 101.3 134.5 62.45 137.35 49 128.6 42.65 124.45 40.05 116.95 37.85 110.6 37.85 99.85 37.85 80.1 41.7 73.2 46.6 64.5 61.8 64.5
L 79.4 65.6 88.8 66.7
Q 90.65 66.7 93 63.95
L 95.35 61.15
Q 96.5 61.15 98.75 62.45 101.75 64.15 103.2 66.7
L 111.3 77.3
Q 119.05 87.75 119.05 89.5 119.05 90.65 116.25 98.25 113.4 105.8 113.4 113 113.4 120.05 116.1 120.05 118.3 120.05 119.85 115.5 121.6 110.3 121.6 100.95 121.6 95.9 119.6 88.2 117.45 79.7 109.75 68.1 102 56.5 96.25 54.75 90.5 53 89.45 53.45 88.35 53.85 87.9 54.4
L 88.5 53.55 90.2 49.85
Q 91.05 47.55 91.05 45.5 Z"/>
</g>
</defs>

<g transform="matrix( 1, 0, 0, 1, 0,0) ">
<use xlink:href="#Layer0_0_FILL"/>
</g>
</svg>
