
<svg xmlns="http://www.w3.org/2000/svg" version="1.1" xmlns:xlink="http://www.w3.org/1999/xlink" preserveAspectRatio="none" x="0px" y="0px" width="550px" height="400px" viewBox="0 0 550 400">
<defs>
<g id="Layer0_0_FILL">
<path fill="#000000" stroke="none" d="
M 106.95 71.7
Q 103.6 68.1 101.4 68.1 99.5 68.1 98.65 70.15 97.8 72.15 97.8 76.55 97.8 80.55 99.3 90.65
L 101.35 104.55 101.15 106.1
Q 99.15 105 96.3 101.55
L 91.15 95
Q 84.3 86.6 78.45 86.6 73.4 86.6 69.5 96.95 65.2 108.35 65.2 125.75 65.2 126.8 66.25 126.8 68.4 126.8 79.4 123.45 90.35 120.1 94.55 120.1 100.55 120.1 104.1 122.4 108.35 125.15 108.35 130.9 108.35 134.8 85.3 138.7 66.65 141.8 61.05 141.8 53 141.8 47.4 138.95 40.75 135.55 35.1 127.15 30.1 119.65 27.6 109.3 25.85 102.15 25.85 97.1 25.85 77.85 41.3 65 41 63.95 41 62.6 23.85 76.5 23.85 98.75 23.85 103.75 26.85 113.5 30.05 123.9 33.4 128.2 41.8 139 45.6 141.25 49.85 143.75 60.7 143.75 100.9 143.75 114.45 127.1 119.35 121.1 120.9 112.75 121.7 108.35 121.7 100.05
L 121.4 93.35
Q 121.05 87.05 120.7 84.85 113.25 65.15 100.85 56.3 95 52.15 88.3 50.5
L 88.5 52.55
Q 100.55 55.6 109.05 66.85 119.7 80.9 119.7 99.5 119.7 106.45 117.55 114.45 115.6 121.65 113.35 124.9 111.8 123.2 110.6 119.35 109.3 115.3 109.3 111.55 109.3 109.9 113.2 95.6 116.35 84 113.8 80.5 109 73.95 106.95 71.7 Z"/>
</g>
</defs>

<g transform="matrix( 1, 0, 0, 1, 0,0) ">
<use xlink:href="#Layer0_0_FILL"/>
</g>
</svg>
