
<svg xmlns="http://www.w3.org/2000/svg" version="1.1" xmlns:xlink="http://www.w3.org/1999/xlink" preserveAspectRatio="none" x="0px" y="0px" width="550px" height="400px" viewBox="0 0 550 400">
<defs>
<g id="Layer0_0_FILL">
<path fill="#000000" stroke="none" d="
M 92.75 43.75
Q 92.75 42.3 83.3 39.6 73.3 36.75 65.9 36.75 56.2 36.75 40.3 41.65 23.15 46.95 23.15 51.55 23.15 52.3 30.85 57.5 38.5 62.75 38.5 64.2
L 38.1 65.35
Q 37.7 65.95 37.7 66.45 37.7 67.05 37.85 67.2
L 38 67.35 38.8 67.4
Q 40.2 67.4 48.6 63.4 56.95 59.4 61.7 59.4 66.2 59.4 76.15 63.45 86.15 67.45 88.2 67.45
L 89.15 67.4 89.3 66.6
Q 89.3 61.35 91.05 52.1
L 92.75 43.75
M 86.7 61.5
L 86.9 64.55
Q 81.15 60.7 72.4 58.75 66.3 57.35 62.1 57.35 56.9 57.35 49.95 59.7 44.4 61.6 40.6 63.8 39.8 61.2 37.3 58.9 33.95 55.9 26.05 51.7 40.3 43.8 48 41.25 55.75 38.75 65.85 38.75 71.4 38.75 78.1 40.4 83.25 41.65 90.45 44.25 88.15 51.55 87.8 52.95 86.7 57.3 86.7 61.5 Z"/>
</g>
</defs>

<g transform="matrix( 1, 0, 0, 1, 0,0) ">
<use xlink:href="#Layer0_0_FILL"/>
</g>
</svg>
