
<svg xmlns="http://www.w3.org/2000/svg" version="1.1" xmlns:xlink="http://www.w3.org/1999/xlink" preserveAspectRatio="none" x="0px" y="0px" width="550px" height="400px" viewBox="0 0 550 400">
<defs>
<g id="Layer0_0_FILL">
<path fill="#EEEEEE" stroke="none" d="
M 387.4 40.3
Q 387.4 30.3 377.4 30.3
L 8.45 30.3
Q -1.55 30.3 -1.55 40.3
L -1.55 203.3
Q -1.55 213.3 8.45 213.3
L 377.4 213.3
Q 387.4 213.3 387.4 203.3
L 387.4 40.3 Z"/>
</g>

<path id="Layer0_0_1_STROKES" stroke="#CCCCCC" stroke-width="1" stroke-linejoin="round" stroke-linecap="round" fill="none" d="
M 15.797663116455077 -0.22487640380859375
L 598.5929656982422 -0.22487640380859375
Q 614.3890167236328 -0.22487640380859375 614.3890167236328 19.403877258300767
L 614.3890167236328 339.35256195068365
Q 614.3890167236328 358.981315612793 598.5929656982422 358.981315612793
L 15.797663116455077 358.981315612793
Q 0.0016120910644530362 358.981315612793 0.0016120910644530362 339.35256195068365
L 0.0016120910644530362 19.403877258300767
Q 0.0016120910644530362 -0.22487640380859375 15.797663116455077 -0.22487640380859375 Z"/>
</defs>

<g transform="matrix( 1.5796051025390625, 0, 0, 1.9628753662109375, 2.45,-59.7) ">
<use xlink:href="#Layer0_0_FILL"/>

<use xlink:href="#Layer0_0_1_STROKES" transform="matrix( 0.633056640625, 0, 0, 0.5094451904296875, -1.55,30.4) "/>
</g>
</svg>
