
<svg xmlns="http://www.w3.org/2000/svg" version="1.1" xmlns:xlink="http://www.w3.org/1999/xlink" preserveAspectRatio="none" x="0px" y="0px" width="550px" height="400px" viewBox="0 0 550 400">
<defs>
<g id="Layer0_0_FILL">
<path fill="#000000" stroke="none" d="
M 120.5 83.95
Q 117.05 76.4 111.65 69.95 106.1 63.35 98.9 58.65 91.9 54.15 84.2 51.45 75.95 48.55 67.25 48 59.25 47.45 51.7 50.45 42.7 53.95 35.1 59.65 30 63 26.75 67.9 15.55 84.6 15.15 104.6 14.85 120 22.5 133.3 25.15 137.9 29.7 140.1 32.05 141.25 34.65 141.6 46.8 143.3 58.7 146.55 63 147.75 66.55 150 71.25 152.85 76.65 152.95 81.85 153.1 86.6 150.45 93.35 145.75 97.8 138.55
L 147.05 125.05 146.25 122.65
Q 143.15 114.15 137.05 107.75 129.65 107.15 122.9 109.4 116.45 111.4 110.35 114.7 103.2 117.9 95.75 120.2 94.25 118.55 93.6 116.6 92.6 113.7 92.65 110.65 92.7 106.45 94.55 102.6 97.15 97.35 102.25 94.5 111.45 89.4 122.1 87.75
L 120.5 83.95
M 104.15 89.7
Q 100.4 90.8 97.5 93.2 91.25 98.65 90.1 106.85 89 114.75 92.8 121
L 95.2 121.2
Q 94.15 123.7 95 129.05 95.5 132.55 96.55 135.85
L 95.85 135.95 95.05 136.9
Q 90.55 143.1 85.15 148.5 82.3 151.4 78.35 150.8 70.15 149.65 63 145.7
L 52.65 140.2 40.9 141.8
Q 32.05 142.6 27.25 134.95 22.65 127.5 20.5 119.05 18.5 111.05 18.2 103 17.8 95.05 20.4 87.35
L 25.35 72
Q 33.7 60.8 46.55 54.3 62.85 46.75 80.2 52.4 94.25 56.85 104.1 67.4 106.7 70.1 109 72.95
L 114.6 79.7
Q 117 82.45 118.2 85.8
L 104.15 89.7
M 141.7 122.3
L 134.45 112.25 100.1 122.7 99.75 124.15
Q 98.7 129.25 101.3 133.5
L 102.05 134.65 99.15 135.2 97.8 121 134 110.05
Q 141.55 115 145.05 123.9
L 103.75 134.3 141.7 122.3
M 133.8 114.85
L 137.85 121.1 116.05 128.9 102.85 131.7 102.25 124.45 133.8 114.85
M 70.35 127.95
Q 68.4 129.1 68.9 132.7 69.25 135.3 70 136.6
L 72.6 138.95
Q 76 140.75 80.65 138.05 83.7 136.3 83.8 133.6 83.9 131.95 82.9 130.15 81.95 128.3 79.9 127.05 75.9 124.75 70.35 127.95
M 72.25 135.35
Q 71.75 134.55 72.6 132.75 73.75 130.05 77.85 129.05
L 78.5 129.85 79.5 130.55
Q 80.25 130.8 80.5 131.25 81.25 132.5 81.15 133.35 81.05 134.6 79.55 135.45 75.85 137.6 72.25 135.35 Z"/>

<path fill="#A6A6A6" stroke="none" d="
M 72.6 132.75
Q 71.75 134.55 72.25 135.35 75.85 137.6 79.55 135.45 81.05 134.6 81.15 133.35 81.25 132.5 80.5 131.25 80.25 130.8 79.5 130.55
L 78.5 129.85 77.85 129.05
Q 73.75 130.05 72.6 132.75 Z"/>
</g>
</defs>

<g transform="matrix( 1, 0, 0, 1, 0,0) ">
<use xlink:href="#Layer0_0_FILL"/>
</g>
</svg>
