
<svg xmlns="http://www.w3.org/2000/svg" version="1.1" xmlns:xlink="http://www.w3.org/1999/xlink" preserveAspectRatio="none" x="0px" y="0px" width="550px" height="400px" viewBox="0 0 550 400">
<defs>
<g id="Layer0_0_FILL">
<path fill="#000000" fill-opacity="0.25098039215686274" stroke="none" d="
M 98.7 83.95
Q 99 87.85 94.4 93.65 89.7 99.55 89.7 101.5
L 89.9 103.45
Q 90.2 104.5 91.1 105.15 91.7 97.75 104.45 91.85 117.2 85.9 118.6 87.3 120 88.7 120 86.3 120 81.55 111.8 72.1 104.2 63.25 98.8 60.4 85.65 53.45 78.4 51 71.4 48.55 58.6 48.7
L 54.6 50.25
Q 45.75 53.55 44.8 54 43.05 54.8 37.2 58.25
L 33.85 60.25 33.4 60.7
Q 22.7 72.4 18.85 85.75 15 99.1 15 108.45 15 114.8 17.85 123.15 20.45 130.85 22.2 133 23.95 135.1 29.05 138.6 34.1 142.05 40.6 143
L 49.15 144.35 67.75 149.1
Q 68.75 149.1 68.9 147.85
L 55.75 135.2 56.3 133
Q 43.65 137.05 36.65 124.25 31.7 115.25 31.7 106.05 31.7 93.5 41.15 83 52.65 70.3 71.9 70.3 80.35 70.3 89.2 74.6 98.35 79.05 98.7 83.95 Z"/>
</g>
</defs>

<g transform="matrix( 1, 0, 0, 1, 0,0) ">
<use xlink:href="#Layer0_0_FILL"/>
</g>
</svg>
