
<svg xmlns="http://www.w3.org/2000/svg" version="1.1" xmlns:xlink="http://www.w3.org/1999/xlink" preserveAspectRatio="none" x="0px" y="0px" width="550px" height="400px" viewBox="0 0 550 400">
<defs>
<g id="Layer0_0_FILL">
<path fill="#010101" stroke="none" d="
M 18.05 2.4
Q 18.05 1.8 17.95 1.5
L 17.95 1.3
Q 17.95 1 17.85 0.9 17.85 0.8 17.75 0.8
L 17.75 0.7
Q 17.6 0.3 17.5 0.1 17.3 -0.25 17.15 0.2 16.15 3.7 15.55 11.1 14.95 18.7 14.75 22.5 14.6 25.95 13.55 28.1 12.45 30.6 10.85 32.5 10.2 33.4 9.05 34.4 8.65 34.7 6.55 36.1 5.5 36.75 4.35 37.9
L 4.25 38
Q 3.3 38.7 2.55 39.8 2.35 39.8 2.15 40
L 1.75 40.3
Q 1.45 40.6 0.95 41.4 0.2 42.6 0.05 44.2 -0.3 46.55 0.45 48.55 0.85 49.35 1.15 49.7 1.25 49.85 2.05 50.4 2.35 50.6 2.35 49.5 2.35 48.5 2.05 48 1.65 47.2 1.35 46.9 1.15 46.7 0.95 46.1
L 1.05 45.9
Q 1.4 44.9 1.95 44.2
L 2.55 43.2
Q 3 42.3 3.05 42.05 3.4 41.7 3.55 41.35
L 5.25 40.65
Q 6.75 39.65 7.55 39.25 9.85 37.8 11.35 35.85 15.2 30.9 15.55 26.85 15.8 24.6 16 21 16.25 16.45 16.35 15.15 16.65 11.35 17.85 3.75 17.95 3.95 18.05 3.45 18.2 2.9 18.05 2.4 Z"/>
</g>
</defs>

<g transform="matrix( 1, 0, 0, 1, 0,0) ">
<use xlink:href="#Layer0_0_FILL"/>
</g>
</svg>
