
<svg xmlns="http://www.w3.org/2000/svg" version="1.1" xmlns:xlink="http://www.w3.org/1999/xlink" preserveAspectRatio="none" x="0px" y="0px" width="550px" height="400px" viewBox="0 0 550 400">
<defs>
<filter id="Filter_1" x="-20%" y="-20%" width="140%" height="140%" color-interpolation-filters="sRGB">
<feColorMatrix in="SourceGraphic" type="matrix" values="1 0 0 0 0 0 1 0 0 0 0 0 1 0 0 0 0 0 0.21 0" result="result1"/>
</filter>

<filter id="Filter_2" x="-20%" y="-20%" width="140%" height="140%" color-interpolation-filters="sRGB">
<feColorMatrix in="SourceGraphic" type="matrix" values="1 0 0 0 0 0 1 0 0 0 0 0 1 0 0 0 0 0 0.23 0" result="result1"/>
</filter>

<filter id="Filter_3" x="-20%" y="-20%" width="140%" height="140%" color-interpolation-filters="sRGB">
<feColorMatrix in="SourceGraphic" type="matrix" values="1 0 0 0 0 0 1 0 0 0 0 0 1 0 0 0 0 0 0.4 0" result="result1"/>
</filter>

<filter id="Filter_4" x="-20%" y="-20%" width="140%" height="140%" color-interpolation-filters="sRGB">
<feColorMatrix in="SourceGraphic" type="matrix" values="1 0 0 0 0 0 1 0 0 0 0 0 1 0 0 0 0 0 0.15 0" result="result1"/>
</filter>

<g id="Parts_Bodies_bodyMC_49_Layer14_0_FILL">
<path fill="#67481F" stroke="none" d="
M 64.9 108.7
Q 51.9 113.1 41.35 112.45 31.8 111.9 18.45 106.65 11.9 117.25 19.7 120.7 22.5 121.95 27.85 122.55 30.9 122.9 36.9 123.35 49.85 124.15 57.3 122.15 69.45 118.9 64.9 108.7
M 28.45 34.3
Q 21.4 31 15.65 29.7 15.45 31.05 15.15 31.95
L 14.95 32.3
Q 14.5 36.05 13.3 39.65 15.65 39.4 18.7 40.3 20.2 40.7 23.85 42.1 30.1 44.5 34.7 46.7 42.6 50.55 45.3 51.7 64.2 59.95 74.45 68.55 76.95 66.6 77.1 63.5 65.55 55.25 59.45 51.2 48.8 44.1 40.65 40.45 29.45 34.75 28.45 34.3
M 58.75 30.55
Q 55.1 38.2 49.55 43.4 51.95 44.75 55.8 47 57.3 45.35 60.55 38.25 64.15 30.35 66.45 22.95 72.95 2.1 63.4 3.95 63.8 9.5 63.05 14.8 62.4 22.9 58.75 30.55 Z"/>
</g>

<g id="Parts_Sets_Gladiator_gladiatorBody_0_Layer1_0_MEMBER_0_FILL">
<path fill="#D37EB4" stroke="none" d="
M 58.65 46.5
Q 58.45 46.15 57.95 45.65 56.05 43.95 54.35 44.7 52.9 45.4 52.5 47.35 52.05 49.3 53.2 50.55 54.55 52 57.5 51.4 58.75 50.6 59.1 49.2 59.45 47.75 58.65 46.5 Z"/>
</g>

<g id="Parts_Sets_Gladiator_gladiatorBody_0_Layer1_0_MEMBER_1_FILL">
<path fill="#D37EB4" stroke="none" d="
M 95.15 45.5
Q 96.85 42.65 94.4 40.45 93.25 39.3 91.7 39.65 90.35 40.05 89.4 41.4 86.95 44.9 90.65 47.15 93.45 48.3 95.15 45.5 Z"/>
</g>

<g id="Parts_Sets_Gladiator_gladiatorBody_0_Layer1_1_MEMBER_0_FILL">
<path fill="#010101" stroke="none" d="
M 37.7 67.8
Q 37.25 68.35 37.5 68.9 39 72.55 42.55 74.8 45.85 76.85 49.95 77.1 54.7 77.2 59.2 75.5 61.55 74.7 63.7 73.7 65.6 72.95 65.8 72.8 67 72.25 67.55 71.45 67.7 71.3 67.7 70.9 67.65 70.5 67.4 70.45 66.65 70.3 65.6 70.75 64.5 71.35 63.95 71.6 62 72.55 60.15 73.25 55.9 74.9 51.3 75.05 47.05 75.1 43.75 73.45 39.95 71.6 38.45 68 38.15 67.3 37.7 67.8 Z"/>
</g>

<g id="Parts_Sets_Gladiator_gladiatorBody_0_Layer1_1_MEMBER_1_FILL">
<path fill="#010101" stroke="none" d="
M 94.4 4.65
Q 93.95 2.6 91.65 1.3 89.1 -0.2 86.95 1.45 79.5 0.1 71.35 0 64.95 0.1 58.4 1.15 45.4 3.1 33.75 8.9 33.55 8.95 33.45 9.25
L 33.05 8.9
Q 28.8 5.7 22.95 6.15 17.65 6.55 12.9 9.65 11.4 10.6 9.95 11.85 9 11.75 8.45 12.5
L 6.05 15.5
Q 4.95 16.65 4.4 18.05 0.9 24.15 0.15 31 -0.25 35.75 0.45 39.85 1.25 44.8 3.6 48.05
L 3.65 48.1 3.8 48.2
Q 4.85 48.7 6.3 49.15 7.2 49.5 9.15 50.05 12.35 51.35 14.5 52.55 16.75 53.65 19.5 55.45
L 21.9 57.2
Q 22.2 57.4 22.95 57.9 23.6 58.3 24.1 58.1 24.35 57.95 24.4 57.75
L 24.85 57.5
Q 24.95 58.25 25.1 59.75 25.4 60.9 25.85 62 26.7 64.4 28 66.5 30.4 71.1 35.45 80.75 39.55 89.4 41 96.75 41.75 99.6 42.25 103.1 39.1 105.25 38.4 110.8 37.85 115.45 39.05 120.45 38.35 123.5 36.95 128.9 35.75 133.7 35.1 137.65 35.2 145.9 38.75 148.65 41.8 151 46.55 148.8 51 146.7 54.7 141.85 58.55 136.8 59.3 131.65 59.15 140.85 62.45 146.3 65.4 151.15 70.05 151.65 74.55 152.1 78.35 148.3 82.45 144.2 83.65 136.9 86.4 144.45 90.15 148.2 93.55 151.55 96.3 150.7 99.1 149.8 99.7 145.1 100.3 139.95 97.8 132.2 97.25 129.15 94.5 124 91.75 118.7 91.2 116.15 91.95 113.9 91.35 110.2 90.7 106.05 88.7 104.95 89.95 100.4 90.55 96.55
L 91.5 91.2
Q 92.3 87.6 92.7 85.8 93.35 82.55 93.3 80.3 93.3 80.15 93.15 79.9
L 93.4 79.5
Q 94.75 77.05 95.25 75.85 96.05 73.75 96.1 71.85 96.1 71.35 95.9 71.1 97.05 70.5 97.3 69.15
L 97.4 68.9
Q 97.55 68.7 97.55 68.4
L 98.35 68.95
Q 98.95 69.85 100.05 68.8 101.05 67.85 101.85 65.95 103.9 61 101.25 59.85 103.4 55.8 104.25 50.3 105 45.15 104.5 39.55 102.9 26.75 101.6 21.35 99.15 10.85 94.4 4.65
M 85.45 4
Q 86.3 8.4 84.4 17 82.45 25.9 79.05 32.45
L 78.95 31.45
Q 78.85 30.9 78.45 29.8 77.95 28.35 77.4 28.4 77.1 28.5 77 28.8 76.8 29.4 77 30
L 77.15 30.4 77.15 30.45 77.2 30.65
Q 77.35 31.1 77.5 32.05
L 77.55 32.4 77.65 34.9
Q 74.9 39.25 72.1 40.25 68.95 41.45 66.05 38.25 63.35 36.85 53.55 32.1 49.1 29.95 46.8 29.1 42.9 27.6 39.65 27.35
L 39.7 24.45
Q 39.65 21.25 38.8 18.1 37.75 13.85 34.75 10.45 46.25 5.55 58.65 3.75 68.45 2.85 71.95 2.75 79.6 2.55 85.45 4
M 86.95 13.55
Q 87.7 8.25 87.3 2.7 96.85 0.85 90.35 21.7 88.05 29.1 84.45 37 81.2 44.1 79.7 45.75 75.85 43.5 73.45 42.15 79 36.95 82.65 29.3 86.3 21.65 86.95 13.55
M 100.7 27
Q 103.05 38.3 102.15 48.3 101.4 52.75 101.3 53.3 100.55 56.4 99.25 58.6 97.05 57.25 90.45 52.55 84.75 48.5 80.85 46.4 93.35 27.05 94.3 7.05 98.65 16.8 100.7 27
M 85 70.6
L 89.45 71.05
Q 90.3 71.1 91.9 71.4 93.2 71.65 94.5 71.55 94.4 71.9 94.5 72.2 94.5 74.1 93.55 75.55
L 89.9 82.3
Q 89.3 83.3 89.05 84.15
L 88.85 85.1 88.35 86.15
Q 88.25 86.35 88.45 86.65 88.65 86.9 88.8 86.65 89.75 85.6 90.2 85
L 91.85 82.3
Q 91.6 83.2 91.15 85.35 90.8 87.1 90.1 90.65
L 88.9 95.9
Q 87.9 98.45 87.9 101.05 87.9 103.85 87.8 104.2 87.1 106.45 76.95 108.7 78.3 103.7 78.55 97.9 78.85 93.9 78.8 91.6 78.7 88.1 77.9 85.45 77.85 85.25 77.7 85.3 77.55 85.3 77.55 85.55
L 77.5 87.7
Q 77.55 89.4 77.65 92.75 77.75 95.75 77.55 97.85 77.1 103.95 76.2 106.45 75.3 108.9 73.35 109.4 72.05 109.75 68.3 109.3 63.25 108.65 60.15 108.65 51.3 107.5 43.35 103.75 43.5 102.7 43.1 100.65 42.6 98.2 42.4 96.9 40.85 91.15 39.75 88 39.9 88.15 40.4 88.85 40.95 89.5 41.55 89.7 41.4 90.15 42.2 90.4 42.9 90.65 42.2 89.7
L 42.25 89.75
Q 39.15 84.8 37.55 82.15 34.6 77.45 33.25 73.4 33.85 74.3 35.55 73.65 37.15 73.05 35.25 72.35 34.35 72.2 33.5 71.15 32.15 69.35 31.65 68.9 30.2 67.05 29.15 65.05 28.4 63.75 27.2 61.05
L 26.4 59
Q 25.7 57.75 25.45 57 26.8 55.55 27.35 55 29.15 53.05 30.35 51.45 33.2 47.7 35.35 43.1
L 36.95 39.1
Q 38.8 39.8 42.35 40.8 46.1 41.9 47.7 42.45
L 53.3 44.6 53.5 44.65 58.4 46.65
Q 63.8 48.75 68.6 51.35 72.55 53.75 79.4 57.4 79.7 60.45 78.95 63.05 78.65 64.05 78.25 66.1
L 77.3 69.3
Q 77.15 69.7 77.4 70.05 77.6 70.35 77.85 70.1
L 77.95 70
Q 78.65 68.55 79.1 67 79.65 65.45 79.9 63.6
L 80.5 58
Q 88.85 62.4 96.5 67.6
L 96.45 67.65 96.4 67.75
Q 96.25 68.05 96.25 68.35
L 96.25 68.4 96.1 68.55 96 68.95 95.85 69.2
Q 95.2 69.8 94.45 69.85 92.55 70 90.8 69.65 90.7 69.65 86.85 69.05
L 84.95 68.9
Q 83.75 68.9 82.8 69.1 82.55 69.15 82.55 69.45 82.5 69.8 82.75 69.9 83.9 70.4 85 70.6
M 101 62.25
Q 100.85 65.35 98.35 67.3 88.1 58.7 69.2 50.45 66.5 49.3 58.6 45.45 52.85 42.75 47.75 40.85 44.1 39.45 42.6 39.05 39.55 38.15 37.2 38.4 38.4 34.8 38.85 31.05
L 39.05 30.7
Q 39.35 29.8 39.55 28.45 45.3 29.75 52.35 33.05 53.35 33.5 64.55 39.2 72.7 42.85 83.35 49.95 89.45 54 101 62.25
M 35.9 16.35
Q 37.4 19.7 37.6 23.1 37.75 25.05 37.7 28.95 36.65 35.6 33.95 41.65 32.9 43.85 31.65 45.95 32.3 44.15 32.5 42.4 32.9 38.8 32.1 35.6 31.4 32.15 29.75 29.25 28 26.15 25.45 24.05 22.55 21.65 19.35 21.1 15.8 20.45 12.6 21.25 10.9 21.75 9.55 22.45 8.3 23 6.85 24 3.8 26.25 2.15 29.9 3.4 22.85 7.6 17.25 8.95 15.65 9.6 14.85 11.7 12.9 14.4 11.3 20 8 26.45 9 29.55 9.6 32.1 11.55 34.6 13.5 35.9 16.35
M 14.8 23.6
Q 16.45 23.5 17.65 23.8 24.65 25.55 27.7 29.55 29.6 31.85 30.4 34.8 31.25 37.65 30.85 40.65 30.45 44.2 29.15 47.25 28.3 49.1 27.5 50.35 26.4 51.8 25.7 53.4
L 25.65 53.5
Q 24.7 54.3 23.7 55.4 22.15 53.9 20.4 52.9 17.4 50.95 15.1 49.9 12.35 48.65 9.5 47.85 8.2 47.4 6.7 47.1 5.65 47 5.15 46.85 4.6 46.65 3.85 46.8 2.3 41.5 1.9 36.65 2.2 36.45 2.2 36.15 2.5 30.45 6.8 26.55 9 24.35 11.95 23.9 12.9 23.8 14.8 23.6
M 40.75 120.15
Q 43.85 122.45 49.1 123.25 52.15 123.75 58.55 124.3 57.55 126.8 56.8 130 56.45 133.5 54.05 137.6 51.65 141.8 48.5 144.35 40.45 150.85 36.4 141.6 36.45 137.25 38.15 130.9 40.35 122.85 40.75 120.15
M 51.75 121.3
Q 46.4 120.7 43.6 119.45 35.8 116 42.35 105.4 55.7 110.65 65.25 111.2 75.8 111.85 88.8 107.45 93.35 117.65 81.2 120.9 73.75 122.9 60.8 122.1 54.8 121.65 51.75 121.3
M 61.1 124.5
Q 67.2 124.85 70.3 124.7 75.65 124.5 80 122.95 80.2 124.7 81.1 129.25 81.85 133.6 81.25 136.6 80.65 142.6 75.9 146.2 70.75 150.15 65.55 146.55 61.9 142.6 61.2 136.35 61.05 134.85 61.1 124.5
M 86.35 121.45
Q 89.1 120.6 90 118.75 96.75 131.7 98 139.95 99 146.95 95.95 147.4 92.9 147.8 89.1 141.5 84.75 134.25 82.7 122.6 82.85 122.5 86.35 121.45 Z"/>
</g>

<g id="Parts_Sets_Gladiator_gladiatorBody_0_Layer0_0_FILL">
<path fill="#C09E7A" stroke="none" d="
M 86.35 121.45
Q 82.85 122.5 82.7 122.6 84.75 134.25 89.1 141.5 92.9 147.8 95.95 147.4 99 146.95 98 139.95 96.75 131.7 90 118.75 89.1 120.6 86.35 121.45
M 70.3 124.7
Q 67.2 124.85 61.1 124.5 61.05 134.85 61.2 136.35 61.9 142.6 65.55 146.55 70.75 150.15 75.9 146.2 80.65 142.6 81.25 136.6 81.85 133.6 81.1 129.25 80.2 124.7 80 122.95 75.65 124.5 70.3 124.7
M 49.1 123.25
Q 43.85 122.45 40.75 120.15 40.35 122.85 38.15 130.9 36.45 137.25 36.4 141.6 40.45 150.85 48.5 144.35 51.65 141.8 54.05 137.6 56.45 133.5 56.8 130 57.55 126.8 58.55 124.3 52.15 123.75 49.1 123.25 Z"/>

<path fill="#837A72" stroke="none" d="
M 14.8 23.6
Q 12.9 23.8 11.95 23.9 9 24.35 6.8 26.55 2.5 30.45 2.2 36.15 2.2 36.45 1.9 36.65 2.3 41.5 3.85 46.8 4.6 46.65 5.15 46.85 5.65 47 6.7 47.1 8.2 47.4 9.5 47.85 12.35 48.65 15.1 49.9 17.4 50.95 20.4 52.9 22.15 53.9 23.7 55.4 24.7 54.3 25.65 53.5
L 25.7 53.4
Q 26.4 51.8 27.5 50.35 28.3 49.1 29.15 47.25 30.45 44.2 30.85 40.65 31.25 37.65 30.4 34.8 29.6 31.85 27.7 29.55 24.65 25.55 17.65 23.8 16.45 23.5 14.8 23.6
M 32.1 11.55
Q 29.55 9.6 26.45 9 20 8 14.4 11.3 11.7 12.9 9.6 14.85 8.95 15.65 7.6 17.25 3.4 22.85 2.15 29.9 3.8 26.25 6.85 24 8.3 23 9.55 22.45 10.9 21.75 12.6 21.25 15.8 20.45 19.35 21.1 22.55 21.65 25.45 24.05 28 26.15 29.75 29.25 31.4 32.15 32.1 35.6 32.9 38.8 32.5 42.4 32.3 44.15 31.65 45.95 32.9 43.85 33.95 41.65 36.65 35.6 37.7 28.95 37.75 25.05 37.6 23.1 37.4 19.7 35.9 16.35 34.6 13.5 32.1 11.55 Z"/>
</g>

<g id="Parts_Sets_Gladiator_gladiatorBody_Assets_Layer_1__Path__4_0_Layer0_0_FILL">
<path fill="#010101" stroke="none" d="
M 17.15 3.5
Q 19.8 2.2 18.5 0 14.1 1.9 9.35 2.1 4.5 2.3 0 0.75 -0.1 2.55 3.25 3.7 6.35 4.7 10.55 4.65 14.8 4.6 17.15 3.5 Z"/>
</g>

<g id="Parts_Sets_Gladiator_gladiatorBody_Assets_Layer_1__Path__3_0_Layer0_0_FILL">
<path fill="#010101" stroke="none" d="
M 3.25 3.1
Q 7.05 3.1 7.05 0.05 6.45 -0.15 4.1 0.7 1.75 1.5 0.05 0.9 -0.55 3.15 3.25 3.1 Z"/>
</g>

<g id="Parts_Sets_Gladiator_gladiatorBody_Assets_Layer_1__Path__2_0_Layer0_0_FILL">
<path fill="#010101" stroke="none" d="
M 6.5 3.1
Q 13.2 3.5 12.25 0 6.15 0.9 0 0.45 -0.1 1.4 2 2.2 3.95 2.95 6.5 3.1 Z"/>
</g>

<g id="Parts_Sets_Gladiator_gladiatorBody_Assets_Layer_1__Path__1_0_Layer0_0_FILL">
<path fill="#010101" stroke="none" d="
M 6.7 2.75
Q 7.85 1.8 6.8 0 5.1 1 4.05 1.35 2.25 1.95 0.4 1 -0.55 2.05 0.7 2.85 1.8 3.55 3.7 3.6 5.7 3.6 6.7 2.75 Z"/>
</g>

<g id="Parts_Sets_Gladiator_gladiatorBody_Assets_Layer_1__Path__0_Layer0_0_FILL">
<path fill="#010101" stroke="none" d="
M 23.85 2.4
Q 24.15 1.7 23.65 0.75 22.1 -0.55 19.95 0.4 18.05 1.25 16.5 3.55 15.15 5.15 12.55 4.7 11.45 4.5 7.75 3.05 4.7 1.8 3.2 1.95 0.95 2.2 0 4.95 2.6 3.45 5.3 4.3 6.15 4.55 9.85 6.55 12.5 8 14.35 7.75 16.95 7.4 19.6 3.9 21.2 3 23 3.15 23.6 3 23.85 2.4 Z"/>
</g>

<g id="Parts_Sets_Gladiator_gladiatorBody_Assets_Layer_1__Path__14_0_Layer0_0_FILL">
<path fill="#FFFFFF" stroke="none" d="
M 36.35 13.45
Q 37.5 9.2 33.45 5 29.7 1.1 25.05 0.35 12.9 -2 3.8 11.55 0.75 16.1 0.1 19.25 -0.55 22.4 2 19 3.55 14.4 7.7 10.4 11.85 6.5 16.8 4.8 22.05 3 26.35 4.4 31.15 6 33.55 11.5 35.15 16.5 33.7 23.2 31.1 34.7 31.1 34.8 34.65 35.35 36.2 25.85 37.55 17.3 36.35 13.45 Z"/>
</g>

<g id="Parts_Sets_Gladiator_gladiatorBody_Assets_Layer_1__Path__13_0_Layer0_0_FILL">
<path fill="#FFFFFF" stroke="none" d="
M 15.2 2.45
Q 15.8 1.4 14.95 0.55 7.8 -1.9 2.9 5.2 -1.95 12.25 1.05 19.9 1.25 20.7 1.65 23.45 2.3 25.55 3.9 24.4 3.55 19.55 3.4 17.2 3.2 13.1 3.8 10.65 5.4 3.9 15.2 2.45 Z"/>
</g>

<g id="Parts_Sets_Gladiator_gladiatorBody_Assets_Layer_1__Path__12_0_Layer0_0_FILL">
<path fill="#FFFFFF" stroke="none" d="
M 11.65 1.75
Q 12.5 1.15 11.85 0.05 9 -0.4 4.75 2.5 0.25 5.6 0 8.85 2.9 6.5 4.55 5.3 7.45 3.2 10.3 2.35 11.5 1.9 11.65 1.75 Z"/>
</g>

<g id="Parts_Sets_Gladiator_gladiatorBody_Assets_Layer_1__Path__11_0_Layer0_0_FILL">
<path fill="#010101" stroke="none" d="
M 24.6 9.95
Q 29.9 7.9 30.5 4.4 29.1 3 25.3 4.05 20.3 5.8 17.4 6.55 6.05 9.45 0.25 0 -0.95 5.25 3.25 8.35 6.95 11.1 13.45 11.45 19.6 11.8 24.6 9.95 Z"/>
</g>

<g id="Parts_Sets_Gladiator_gladiatorBody_Assets_Layer_1__Path__10_0_Layer0_0_FILL">
<path fill="#010101" stroke="none" d="
M 3.15 12.15
Q 4.15 8.15 4.05 4.4 3.35 -3.85 1.75 2.9 0.25 8.95 0 15.2 1.95 17.15 3.15 12.15 Z"/>
</g>

<g id="Parts_Sets_Gladiator_gladiatorBody_Assets_Layer_1__Path__9_0_Layer0_0_FILL">
<path fill="#010101" stroke="none" d="
M 1.65 7.75
Q 2.5 8.6 3.15 5.55 3.05 5.35 2.55 3.6 2.15 2.2 1.4 1.35 0.3 -0.9 0.05 0.5 -0.15 1.75 0.35 4.35 0.9 7.05 1.65 7.75 Z"/>
</g>

<g id="Parts_Sets_Gladiator_gladiatorBody_Assets_Layer_1__Path__8_0_Layer0_0_FILL">
<path fill="#FFFFFF" stroke="none" d="
M 33.9 3.55
Q 39.35 2.4 36.4 0.25 28.9 1.45 18.6 1.15 13.85 1 0.1 0 -0.75 1.95 5.95 3.25 11.9 4.4 20.5 4.5 29.15 4.6 33.9 3.55 Z"/>
</g>

<g id="Parts_Sets_Gladiator_gladiatorBody_Assets_Layer_1__Path__7_0_Layer0_0_FILL">
<path fill="#FFFFFF" stroke="none" d="
M 7 9.9
Q 10.7 3.85 9.7 0.6 8.8 -0.1 6.8 0 4.5 0.1 3.25 1.6 2.8 3.1 0.8 6.9 -0.7 10.5 0.7 13 3.15 16.05 7 9.9 Z"/>
</g>

<g id="Parts_Sets_Gladiator_gladiatorBody_Assets_Layer_1__Path__6_0_Layer0_0_FILL">
<path fill="#FFFFFF" stroke="none" d="
M 7 11.25
Q 8.45 8.95 8.3 4.85 8.4 2.5 7.1 1.15 5.9 -0.05 4.2 0.05 2.45 0.1 1.3 1.5 0 3.1 0.15 5.7 -0.35 9.1 0.85 11.3 2 13.25 3.85 13.25 5.7 13.3 7 11.25 Z"/>
</g>

<g id="Parts_Sets_Gladiator_gladiatorBody_Assets_Layer_1__Path__5_0_Layer0_0_FILL">
<path fill="#FFFFFF" stroke="none" d="
M 3.95 10.55
Q 7.7 14.75 7.55 9.3 -1.1 -6.7 0.15 4.05 0.15 6.35 3.95 10.55 Z"/>
</g>

<g id="Parts_Sets_Gladiator_gladiatorBody_Assets_Layer_1__Path__4_0_0_Layer0_0_FILL">
<path fill="#FFFFFF" stroke="none" d="
M 44 23.95
Q 49 26.2 48.4 23.2 41.15 17.6 29.95 11.6 23.9 8.4 9.9 1.65 7.9 0.55 2.7 0.1 -2.4 -0.35 1.6 1.45 8.85 2.9 31.4 16.8 40.65 22.45 44 23.95 Z"/>
</g>

<g id="Parts_Sets_Gladiator_gladiatorBody_Assets_Layer_1__Path__3_0_0_Layer0_0_FILL">
<path fill="#FFFFFF" stroke="none" d="
M 8.15 15.65
Q 11.5 7.7 11.5 0.55 9.75 -1.35 8.45 3.95 6.6 11.45 6.35 11.9 5.7 14.55 3.05 19.75 0.55 24.6 0 27.75 4.8 23.65 8.15 15.65 Z"/>
</g>

<g id="Parts_Sets_Gladiator_gladiatorBody_Assets_Layer_1__Path__2_0_0_Layer0_0_FILL">
<path fill="#FFFFFF" stroke="none" d="
M 14.85 4.2
Q 23.95 5.15 22.45 2.5 21.3 -1.1 8.5 0.25 3.6 0.75 1.25 1.75 -1.3 2.85 1.3 3.75 3.4 3 14.85 4.2 Z"/>
</g>

<g id="Parts_Sets_Gladiator_gladiatorBody_Assets_Layer_1__Path__1_0_0_Layer0_0_FILL">
<path fill="#FFFFFF" stroke="none" d="
M 6.65 1.25
Q 6.45 0.6 5.85 0.2 3.45 -0.3 1.7 0.3 0.15 0.85 0 1.75 -0.15 2.65 1.4 3 3.25 3.4 6.55 2.6 6.85 1.95 6.65 1.25 Z"/>
</g>

<g id="Parts_Sets_Gladiator_gladiatorBody_Assets_Layer_1__Path__0_0_Layer0_0_FILL">
<path fill="#FFFFFF" stroke="none" d="
M 53.95 20.45
Q 52.45 13.3 46.45 6.75 40.7 0.65 33.1 0.05 26.25 -0.5 19.25 3.4 12.65 7.05 7.9 13.5 3.05 20.05 1.9 27.15 -2.25 39.2 2 61.2 3.85 70.85 6.8 77.45 9.95 84.55 13.4 85.75 17.1 87.35 22.15 87.3 25.1 87.25 31.35 86.85 42.75 88 44.8 80.65 45.35 78.55 45.65 73.15 45.95 67.6 46.65 64.75 47.15 57.8 49.75 48.4 53.3 35.45 53.6 33.95 55.2 26.25 53.95 20.45 Z"/>
</g>

<g id="Parts_Sets_Gladiator_gladiatorBody_Assets_Layer_1__Compound_Path__0_Layer0_0_FILL">
<path fill="#010101" stroke="none" d="
M 95.1 5.65
Q 93.4 2.95 90.05 1.95 80.25 -0.35 69 0.05 60.2 0.35 47.5 2.6 45.9 3.25 43.7 3.3 41.1 3.35 39.55 3.8 38.85 3.95 37.6 5.25 36.45 6.4 35.4 6.25 32.4 7.3 35.55 14.45 39.2 22.7 38.25 24.6 38.2 28.6 36.65 32.95 35.75 35.5 33.6 41.05 32.4 26.9 26.1 21.15 20.95 16.5 13.4 17.85 7.15 18.95 2.65 22.95 -1.8 26.9 0.85 28.4 7.5 23.6 12.05 22.25 19.15 20.2 24.2 24.9 26.55 33.25 26.8 35.15 27.75 42.1 24.7 46.7 24.15 50.1 21.1 49.7 19.15 49.45 14.7 47.05 9.95 44.45 8.3 44.05 5.3 43.3 4.75 46.15 10.1 48.4 17.7 52.5 23.2 54.95 25.65 52.35 23.7 55.35 24.4 57.85 27.2 64.45 34.05 77.3 39.9 89.15 41.35 98.25 41.65 100.15 40 104.2 38.1 108.75 37.95 110.8 37.35 112.7 38.9 116 40.3 118.85 38.8 120.8 33.35 133.15 34.4 140.1 35.3 146.05 40.4 146.1 45.35 146.15 50.5 140.9 56.2 135.1 58.4 126.35 57.35 134.75 60.7 141.7 64.55 149.7 71.65 147.1 73.9 150.95 78 141.85 82 133.05 81.4 128.65 82.7 133.85 85.85 138.75 88.9 143.45 92 145.35 95.35 147.4 96.95 144.9 98.8 142.05 97.75 133.8 97 129.95 94.2 123.85 91.05 117.15 90.25 114.1 91.6 110.05 89.45 106.25 86.25 103.1 88.1 93.6 89.3 88.35 89.8 85.8 90.75 81.3 90.7 78.75 93 74.85 93.85 73.1 95.25 70.3 95.8 66.85 97.9 67.95 99.45 65.3 100.95 62.65 99.95 59.85 99.85 59.45 98.95 58.35 98.3 57.6 98.8 56.35 101.55 53 102.4 46.85 103 42.6 102.7 35.95 101.9 28.6 100.7 23.35 99.1 16.25 96.5 10.85 96.4 7.85 95.1 5.65
M 91.3 14.55
Q 90.4 16.5 89.1 20.7
L 86.25 28.2
Q 82.8 36.8 79.9 42.8 79.15 44.5 80.5 45.9 81.8 47.3 82.75 45.2 86.3 37.4 88.8 30.35 90.75 24.8 91.3 22.85 92.55 19.05 93 17.15 99.9 29.75 95 55.2 93.95 59.7 92.5 63.45 82.9 56.7 72.05 51.3 60.9 45.85 49.1 41.7
L 39.05 38.35
Q 39.7 36.9 40.6 34.6 42.3 30.9 42.25 25.05 41.95 18.5 42.15 15.4 45.15 10.15 50.7 8.05 54.8 6.55 62.55 6.25 82.95 3.15 91.3 14.55
M 90.55 68.7
Q 85.3 68.15 82.95 68.65 79.4 69.45 88.55 72.75 88.6 73.75 85.2 79.6 82.65 85.1 86.2 85.65 85.2 88.3 84.6 95.45 83.3 101.25 77.85 101.35 78.9 97.85 78.65 88.75 78.35 78.85 75.75 80.8 75.45 82.35 76.1 92.4 76.25 101.75 73.35 102.25 64.3 103.25 59.75 103.25 51.8 103.25 47.9 99 44.2 97.05 43 92.5 42.45 90.6 41.95 83.65 39.45 79.35 38.25 77.05 36.15 73.05 35.45 69.8 31.9 65.65 30.05 63.1 26.6 58.45 27.75 55.75 33.4 49.1 37.6 41.35 39.25 42.15 41.15 42.85
L 46.7 45.05
Q 53.1 47.45 58.25 49.6 69.5 54.35 79.65 60.3 85.55 63.8 90.95 67.7
L 90.55 68.7
M 31.65 44.2
Q 31.05 45.6 29.5 47.55 28.6 48.65 26.75 50.85 28.9 47.15 30.2 37 30.25 37.15 30.4 40.55 30.5 43.1 31.65 44.2
M 70.4 122.7
Q 74 122.25 75 122.6 76.45 123 76.65 125.3 76.8 127.35 76 133.15 73.75 140.25 70.7 141.85 68.05 143.2 65.5 140.3 63.15 137.55 62.1 132.7 61 127.6 62.15 123.25 65.55 123.25 70.4 122.7
M 48.3 122.35
Q 50.15 122.65 54.8 123.05 54.7 126.65 52.7 130.7 50.75 134.65 47.85 137.3 42.25 141.85 40.2 141.25 38.6 140.8 39.15 136.7 42.55 124.45 42.45 120.55 44.65 121.75 48.3 122.35
M 42.45 108.1
Q 48.45 109.65 55.4 110.45 65.55 112.35 77.8 110.2 83 109.3 84.15 109.25 86.6 109.2 87.15 110.75 85.4 116.95 67.55 117.65 54 118.15 46.05 116.4 42.9 115.85 41.85 113.5 40.85 111.15 42.45 108.1
M 82.1 120.95
Q 85 120.15 87.45 118.3 92.35 128.45 94 134.85 95.45 140.5 94 140.95 92.5 141.35 89.35 136.35 85.8 130.65 82.1 120.95 Z"/>
</g>

<g id="MovieClips_Symbol_585_49_Layer0_0_FILL">
<path fill="#D3B282" stroke="none" d="
M 13.05 40.35
L 11.45 44.35
Q 9.3 48.95 6.45 52.7 5.25 54.3 3.45 56.25 2.9 56.8 1.55 58.25 1.8 59 2.5 60.25
L 3.3 62.3
Q 4.5 65 5.25 66.3 6.3 68.3 7.75 70.15 8.25 70.6 9.6 72.4 10.45 73.45 11.35 73.6 13.25 74.3 11.65 74.9 9.95 75.55 9.35 74.65 10.7 78.7 13.65 83.4 15.25 86.05 18.35 91
L 18.3 90.95
Q 19 91.9 18.3 91.65 17.5 91.4 17.65 90.95 17.05 90.75 16.5 90.1 16 89.4 15.85 89.25 16.95 92.4 18.5 98.15 18.7 99.45 19.2 101.9 19.6 103.95 19.45 105 27.4 108.75 36.25 109.9 39.35 109.9 44.4 110.55 48.15 111 49.45 110.65 51.4 110.15 52.3 107.7 53.2 105.2 53.65 99.1 53.85 97 53.75 94 53.65 90.65 53.6 88.95
L 53.65 86.8
Q 53.65 86.55 53.8 86.55 53.95 86.5 54 86.7 54.8 89.35 54.9 92.85 54.95 95.15 54.65 99.15 54.4 104.95 53.05 109.95 63.2 107.7 63.9 105.45 64 105.1 64 102.3 64 99.7 65 97.15
L 66.2 91.9
Q 66.9 88.35 67.25 86.6 67.7 84.45 67.95 83.55
L 66.3 86.25
Q 65.85 86.85 64.9 87.9 64.75 88.15 64.55 87.9 64.35 87.6 64.45 87.4
L 64.95 86.35 65.15 85.4
Q 65.4 84.55 66 83.55
L 69.65 76.8
Q 70.6 75.35 70.6 73.45 70.5 73.15 70.6 72.8 69.3 72.9 68 72.65 66.4 72.35 65.55 72.3
L 61.1 71.85
Q 60 71.65 58.85 71.15 58.6 71.05 58.65 70.7 58.65 70.4 58.9 70.35 59.85 70.15 61.05 70.15
L 62.95 70.3
Q 66.8 70.9 66.9 70.9 68.65 71.25 70.55 71.1 71.3 71.05 71.95 70.45
L 72.1 70.2 72.2 69.8 72.35 69.65 72.35 69.6
Q 72.35 69.3 72.5 69
L 72.6 68.95 72.6 68.85
Q 64.95 63.65 56.6 59.25
L 56 64.85
Q 55.75 66.7 55.2 68.25 54.75 69.8 54.05 71.25 53.85 71.55 53.65 71.4
L 53.5 71.3
Q 53.25 70.95 53.4 70.55
L 54.35 67.35
Q 54.75 65.3 55.05 64.3 55.8 61.7 55.5 58.65 48.65 55 44.7 52.6 39.9 50 34.5 47.9
L 29.6 45.9 29.4 45.85 23.8 43.7
Q 22.2 43.15 18.45 42.05 14.9 41.05 13.05 40.35
M 13.6 70.15
Q 13.35 69.6 13.8 69.05 14.25 68.55 14.55 69.25 16.05 72.85 19.85 74.7 23.15 76.35 27.4 76.3 32 76.15 36.25 74.5 38.1 73.8 40.05 72.85 40.6 72.6 41.7 72 42.75 71.55 43.5 71.7 43.75 71.75 43.8 72.15 43.8 72.55 43.65 72.7 43.1 73.5 41.9 74.05 41.7 74.2 39.8 74.95 37.65 75.95 35.3 76.75 30.8 78.45 26.05 78.35 21.95 78.1 18.65 76.05 15.1 73.8 13.6 70.15
M 76.8 28.25
Q 74.75 18.05 70.4 8.3 69.45 28.3 56.95 47.65 60.85 49.75 66.55 53.8 73.15 58.5 75.35 59.85 76.65 57.65 77.4 54.55 77.5 54 78.25 49.55 79.15 39.55 76.8 28.25
M 53.1 30.05
Q 53.2 29.75 53.5 29.65 54.05 29.6 54.55 31.05 54.95 32.15 55.05 32.7
L 55.15 33.7
Q 58.55 27.15 60.5 18.25 62.4 9.65 61.55 5.25 55.7 3.8 48.05 4 44.55 4.1 34.75 5 22.35 6.8 10.85 11.7 13.85 15.1 14.9 19.35 15.75 22.5 15.8 25.7
L 15.75 28.6
Q 19 28.85 22.9 30.35 25.2 31.2 29.65 33.35 39.45 38.1 42.15 39.5 45.05 42.7 48.2 41.5 51 40.5 53.75 36.15
L 53.65 33.65 53.6 33.3
Q 53.45 32.35 53.3 31.9
L 53.25 31.7 53.25 31.65 53.1 31.25
Q 52.9 30.65 53.1 30.05 Z"/>
</g>

<g id="MovieClips_Symbol_621_49_Layer14_0_FILL">
<path fill="#67481F" stroke="none" d="
M 57.3 122.15
Q 69.45 118.9 64.9 108.7 51.9 113.1 41.35 112.45 31.8 111.9 18.45 106.65 11.9 117.25 19.7 120.7 22.5 121.95 27.85 122.55 30.9 122.9 36.9 123.35 49.85 124.15 57.3 122.15
M 15.65 29.7
Q 15.45 31.05 15.15 31.95
L 14.95 32.3
Q 14.5 36.05 13.3 39.65 15.65 39.4 18.7 40.3 20.2 40.7 23.85 42.1 30.1 44.5 34.7 46.7 42.6 50.55 45.3 51.7 64.2 59.95 74.45 68.55 76.95 66.6 77.1 63.5 65.55 55.25 59.45 51.2 48.8 44.1 40.65 40.45 29.45 34.75 28.45 34.3 21.4 31 15.65 29.7
M 49.55 43.4
Q 51.95 44.75 55.8 47 57.3 45.35 60.55 38.25 64.15 30.35 66.45 22.95 72.95 2.1 63.4 3.95 63.8 9.5 63.05 14.8 62.4 22.9 58.75 30.55 55.1 38.2 49.55 43.4 Z"/>
</g>
</defs>

<g transform="matrix( 1, 0, 0, 1, -33.5,-72.6) ">
<g transform="matrix( 1, 0, 0, 1, 0,0) ">
<use xlink:href="#Parts_Bodies_bodyMC_49_Layer14_0_FILL"/>
</g>

<g transform="matrix( 1, 0, 0, 1, -23.9,1.25) ">
<g transform="matrix( 1, 0, 0, 1, 0,0) ">
<use xlink:href="#Parts_Sets_Gladiator_gladiatorBody_0_Layer1_0_MEMBER_0_FILL"/>
</g>

<g transform="matrix( 1, 0, 0, 1, 0,0) ">
<use xlink:href="#Parts_Sets_Gladiator_gladiatorBody_0_Layer1_0_MEMBER_1_FILL"/>
</g>

<g transform="matrix( 1, 0, 0, 1, 0,0) ">
<use xlink:href="#Parts_Sets_Gladiator_gladiatorBody_0_Layer1_1_MEMBER_0_FILL"/>
</g>

<g transform="matrix( 1, 0, 0, 1, 0,0) ">
<use xlink:href="#Parts_Sets_Gladiator_gladiatorBody_0_Layer1_1_MEMBER_1_FILL"/>
</g>

<g transform="matrix( 1, 0, 0, 1, 0,0) ">
<use xlink:href="#Parts_Sets_Gladiator_gladiatorBody_0_Layer0_0_FILL"/>
</g>

<g transform="matrix( 1, 0, 0, 1, 55.75,92.85) ">
<g transform="matrix( 1, 0, 0, 1, 0,0) ">
<use filter="url(#Filter_1)" xlink:href="#Parts_Sets_Gladiator_gladiatorBody_Assets_Layer_1__Path__4_0_Layer0_0_FILL"/>
</g>
</g>

<g transform="matrix( 1, 0, 0, 1, 80.45,91.3) ">
<g transform="matrix( 1, 0, 0, 1, 0,0) ">
<use filter="url(#Filter_1)" xlink:href="#Parts_Sets_Gladiator_gladiatorBody_Assets_Layer_1__Path__3_0_Layer0_0_FILL"/>
</g>
</g>

<g transform="matrix( 1, 0, 0, 1, 57.95,102.75) ">
<g transform="matrix( 1, 0, 0, 1, 0,0) ">
<use filter="url(#Filter_1)" xlink:href="#Parts_Sets_Gladiator_gladiatorBody_Assets_Layer_1__Path__2_0_Layer0_0_FILL"/>
</g>
</g>

<g transform="matrix( 1, 0, 0, 1, 79.1,100.45) ">
<g transform="matrix( 1, 0, 0, 1, 0,0) ">
<use filter="url(#Filter_1)" xlink:href="#Parts_Sets_Gladiator_gladiatorBody_Assets_Layer_1__Path__1_0_Layer0_0_FILL"/>
</g>
</g>

<g transform="matrix( 1, 0, 0, 1, 61.4,15.75) ">
<g transform="matrix( 1, 0, 0, 1, 0,0) ">
<use filter="url(#Filter_2)" xlink:href="#Parts_Sets_Gladiator_gladiatorBody_Assets_Layer_1__Path__0_Layer0_0_FILL"/>
</g>
</g>

<g transform="matrix( 1, 0, 0, 1, 1.8,8.35) ">
<g transform="matrix( 1, 0, 0, 1, 0,0) ">
<use filter="url(#Filter_1)" xlink:href="#Parts_Sets_Gladiator_gladiatorBody_Assets_Layer_1__Path__14_0_Layer0_0_FILL"/>
</g>
</g>

<g transform="matrix( 1, 0, 0, 1, 1.95,23.35) ">
<g transform="matrix( 1, 0, 0, 1, 0,0) ">
<use filter="url(#Filter_1)" xlink:href="#Parts_Sets_Gladiator_gladiatorBody_Assets_Layer_1__Path__13_0_Layer0_0_FILL"/>
</g>
</g>

<g transform="matrix( 1, 0, 0, 1, 7.75,10.4) ">
<g transform="matrix( 1, 0, 0, 1, 0,0) ">
<use filter="url(#Filter_3)" xlink:href="#Parts_Sets_Gladiator_gladiatorBody_Assets_Layer_1__Path__12_0_Layer0_0_FILL"/>
</g>
</g>

<g transform="matrix( 1, 0, 0, 1, 38.3,68.05) ">
<g transform="matrix( 1, 0, 0, 1, 0,0) ">
<use filter="url(#Filter_1)" xlink:href="#Parts_Sets_Gladiator_gladiatorBody_Assets_Layer_1__Path__11_0_Layer0_0_FILL"/>
</g>
</g>

<g transform="matrix( 1, 0, 0, 1, 76.6,56.65) ">
<g transform="matrix( 1, 0, 0, 1, 0,0) ">
<use filter="url(#Filter_1)" xlink:href="#Parts_Sets_Gladiator_gladiatorBody_Assets_Layer_1__Path__10_0_Layer0_0_FILL"/>
</g>
</g>

<g transform="matrix( 1, 0, 0, 1, 76.35,27) ">
<g transform="matrix( 1, 0, 0, 1, 0,0) ">
<use filter="url(#Filter_1)" xlink:href="#Parts_Sets_Gladiator_gladiatorBody_Assets_Layer_1__Path__9_0_Layer0_0_FILL"/>
</g>
</g>

<g transform="matrix( 1, 0, 0, 1, 47.6,112.7) ">
<g transform="matrix( 1, 0, 0, 1, 0,0) ">
<use filter="url(#Filter_1)" xlink:href="#Parts_Sets_Gladiator_gladiatorBody_Assets_Layer_1__Path__8_0_Layer0_0_FILL"/>
</g>
</g>

<g transform="matrix( 1, 0, 0, 1, 42.8,124.5) ">
<g transform="matrix( 1, 0, 0, 1, 0,0) ">
<use filter="url(#Filter_1)" xlink:href="#Parts_Sets_Gladiator_gladiatorBody_Assets_Layer_1__Path__7_0_Layer0_0_FILL"/>
</g>
</g>

<g transform="matrix( 1, 0, 0, 1, 66.4,126.1) ">
<g transform="matrix( 1, 0, 0, 1, 0,0) ">
<use filter="url(#Filter_1)" xlink:href="#Parts_Sets_Gladiator_gladiatorBody_Assets_Layer_1__Path__6_0_Layer0_0_FILL"/>
</g>
</g>

<g transform="matrix( 1, 0, 0, 1, 86.35,124.75) ">
<g transform="matrix( 1, 0, 0, 1, 0,0) ">
<use filter="url(#Filter_1)" xlink:href="#Parts_Sets_Gladiator_gladiatorBody_Assets_Layer_1__Path__5_0_Layer0_0_FILL"/>
</g>
</g>

<g transform="matrix( 1, 0, 0, 1, 44.45,33.8) ">
<g transform="matrix( 1, 0, 0, 1, 0,0) ">
<use filter="url(#Filter_1)" xlink:href="#Parts_Sets_Gladiator_gladiatorBody_Assets_Layer_1__Path__4_0_0_Layer0_0_FILL"/>
</g>
</g>

<g transform="matrix( 1, 0, 0, 1, 78.25,14.2) ">
<g transform="matrix( 1, 0, 0, 1, 0,0) ">
<use filter="url(#Filter_1)" xlink:href="#Parts_Sets_Gladiator_gladiatorBody_Assets_Layer_1__Path__3_0_0_Layer0_0_FILL"/>
</g>
</g>

<g transform="matrix( 1, 0, 0, 1, 50.1,24.55) ">
<g transform="matrix( 1, 0, 0, 1, 0,0) ">
<use filter="url(#Filter_1)" xlink:href="#Parts_Sets_Gladiator_gladiatorBody_Assets_Layer_1__Path__2_0_0_Layer0_0_FILL"/>
</g>
</g>

<g transform="matrix( 1, 0, 0, 1, 90.25,27.05) ">
<g transform="matrix( 1, 0, 0, 1, 0,0) ">
<use filter="url(#Filter_1)" xlink:href="#Parts_Sets_Gladiator_gladiatorBody_Assets_Layer_1__Path__1_0_0_Layer0_0_FILL"/>
</g>
</g>

<g transform="matrix( 1, 0, 0, 1, 40.2,15.15) ">
<g transform="matrix( 1, 0, 0, 1, 0,0) ">
<use filter="url(#Filter_4)" xlink:href="#Parts_Sets_Gladiator_gladiatorBody_Assets_Layer_1__Path__0_0_Layer0_0_FILL"/>
</g>
</g>

<g transform="matrix( 1, 0, 0, 1, 1.15,1.45) ">
<g transform="matrix( 1, 0, 0, 1, 0,0) ">
<use filter="url(#Filter_1)" xlink:href="#Parts_Sets_Gladiator_gladiatorBody_Assets_Layer_1__Compound_Path__0_Layer0_0_FILL"/>
</g>
</g>
</g>
</g>

<g transform="matrix( 1, 0, 0, 1, -32.9,-71.25) ">
<g transform="matrix( 1, 0, 0, 1, 0,0) ">
<use xlink:href="#MovieClips_Symbol_585_49_Layer0_0_FILL"/>
</g>
</g>

<g transform="matrix( 1, 0, 0, 1, -33.5,-72.6) ">
<g transform="matrix( 1, 0, 0, 1, 0,0) ">
<use xlink:href="#MovieClips_Symbol_621_49_Layer14_0_FILL"/>
</g>
</g>
</svg>
