
<svg xmlns="http://www.w3.org/2000/svg" version="1.1" xmlns:xlink="http://www.w3.org/1999/xlink" preserveAspectRatio="none" x="0px" y="0px" width="550px" height="400px" viewBox="0 0 550 400">
<defs>
<g id="MovieClips_Symbol_585_49_Layer0_0_FILL">
<path fill="#D3B282" stroke="none" d="
M 13.05 40.35
L 11.45 44.35
Q 9.3 48.95 6.45 52.7 5.25 54.3 3.45 56.25 2.9 56.8 1.55 58.25 1.8 59 2.5 60.25
L 3.3 62.3
Q 4.5 65 5.25 66.3 6.3 68.3 7.75 70.15 8.25 70.6 9.6 72.4 10.45 73.45 11.35 73.6 13.25 74.3 11.65 74.9 9.95 75.55 9.35 74.65 10.7 78.7 13.65 83.4 15.25 86.05 18.35 91
L 18.3 90.95
Q 19 91.9 18.3 91.65 17.5 91.4 17.65 90.95 17.05 90.75 16.5 90.1 16 89.4 15.85 89.25 16.95 92.4 18.5 98.15 18.7 99.45 19.2 101.9 19.6 103.95 19.45 105 27.4 108.75 36.25 109.9 39.35 109.9 44.4 110.55 48.15 111 49.45 110.65 51.4 110.15 52.3 107.7 53.2 105.2 53.65 99.1 53.85 97 53.75 94 53.65 90.65 53.6 88.95
L 53.65 86.8
Q 53.65 86.55 53.8 86.55 53.95 86.5 54 86.7 54.8 89.35 54.9 92.85 54.95 95.15 54.65 99.15 54.4 104.95 53.05 109.95 63.2 107.7 63.9 105.45 64 105.1 64 102.3 64 99.7 65 97.15
L 66.2 91.9
Q 66.9 88.35 67.25 86.6 67.7 84.45 67.95 83.55
L 66.3 86.25
Q 65.85 86.85 64.9 87.9 64.75 88.15 64.55 87.9 64.35 87.6 64.45 87.4
L 64.95 86.35 65.15 85.4
Q 65.4 84.55 66 83.55
L 69.65 76.8
Q 70.6 75.35 70.6 73.45 70.5 73.15 70.6 72.8 69.3 72.9 68 72.65 66.4 72.35 65.55 72.3
L 61.1 71.85
Q 60 71.65 58.85 71.15 58.6 71.05 58.65 70.7 58.65 70.4 58.9 70.35 59.85 70.15 61.05 70.15
L 62.95 70.3
Q 66.8 70.9 66.9 70.9 68.65 71.25 70.55 71.1 71.3 71.05 71.95 70.45
L 72.1 70.2 72.2 69.8 72.35 69.65 72.35 69.6
Q 72.35 69.3 72.5 69
L 72.6 68.95 72.6 68.85
Q 64.95 63.65 56.6 59.25
L 56 64.85
Q 55.75 66.7 55.2 68.25 54.75 69.8 54.05 71.25 53.85 71.55 53.65 71.4
L 53.5 71.3
Q 53.25 70.95 53.4 70.55
L 54.35 67.35
Q 54.75 65.3 55.05 64.3 55.8 61.7 55.5 58.65 48.65 55 44.7 52.6 39.9 50 34.5 47.9
L 29.6 45.9 29.4 45.85 23.8 43.7
Q 22.2 43.15 18.45 42.05 14.9 41.05 13.05 40.35
M 13.6 70.15
Q 13.35 69.6 13.8 69.05 14.25 68.55 14.55 69.25 16.05 72.85 19.85 74.7 23.15 76.35 27.4 76.3 32 76.15 36.25 74.5 38.1 73.8 40.05 72.85 40.6 72.6 41.7 72 42.75 71.55 43.5 71.7 43.75 71.75 43.8 72.15 43.8 72.55 43.65 72.7 43.1 73.5 41.9 74.05 41.7 74.2 39.8 74.95 37.65 75.95 35.3 76.75 30.8 78.45 26.05 78.35 21.95 78.1 18.65 76.05 15.1 73.8 13.6 70.15
M 76.8 28.25
Q 74.75 18.05 70.4 8.3 69.45 28.3 56.95 47.65 60.85 49.75 66.55 53.8 73.15 58.5 75.35 59.85 76.65 57.65 77.4 54.55 77.5 54 78.25 49.55 79.15 39.55 76.8 28.25
M 53.1 30.05
Q 53.2 29.75 53.5 29.65 54.05 29.6 54.55 31.05 54.95 32.15 55.05 32.7
L 55.15 33.7
Q 58.55 27.15 60.5 18.25 62.4 9.65 61.55 5.25 55.7 3.8 48.05 4 44.55 4.1 34.75 5 22.35 6.8 10.85 11.7 13.85 15.1 14.9 19.35 15.75 22.5 15.8 25.7
L 15.75 28.6
Q 19 28.85 22.9 30.35 25.2 31.2 29.65 33.35 39.45 38.1 42.15 39.5 45.05 42.7 48.2 41.5 51 40.5 53.75 36.15
L 53.65 33.65 53.6 33.3
Q 53.45 32.35 53.3 31.9
L 53.25 31.7 53.25 31.65 53.1 31.25
Q 52.9 30.65 53.1 30.05 Z"/>
</g>
</defs>

<g transform="matrix( 1, 0, 0, 1, -32.9,-71.25) ">
<g transform="matrix( 1, 0, 0, 1, 0,0) ">
<use xlink:href="#MovieClips_Symbol_585_49_Layer0_0_FILL"/>
</g>
</g>
</svg>
