
<svg xmlns="http://www.w3.org/2000/svg" version="1.1" xmlns:xlink="http://www.w3.org/1999/xlink" preserveAspectRatio="none" x="0px" y="0px" width="550px" height="400px" viewBox="0 0 550 400">
<defs>
<g id="Layer0_0_FILL">
<path fill="#FFFFFF" stroke="none" d="
M 3.15 1.6
Q 3.3 1.15 3.05 0.7
L 2.7 0.25 2.3 0.05
Q 1.75 -0.05 1.35 0.1 0.85 0.3 0.65 0.5 0.25 0.9 0.15 1.15 -0.15 1.6 0.2 2.15 0.35 2.3 0.55 2.25 0.8 2.15 0.85 1.95
L 0.8 2 0.9 1.8 0.95 1.8 1 1.7 1.05 1.7 1.15 1.65 1.35 1.6 1.75 1.55 2.2 1.75 2.05 1.65 2.4 1.85 2.6 1.9
Q 3 2.15 3.15 1.6 Z"/>
</g>
</defs>

<g transform="matrix( 1, 0, 0, 1, 0,0) ">
<use xlink:href="#Layer0_0_FILL"/>
</g>
</svg>
