
<svg xmlns="http://www.w3.org/2000/svg" version="1.1" xmlns:xlink="http://www.w3.org/1999/xlink" preserveAspectRatio="none" x="0px" y="0px" width="550px" height="400px" viewBox="0 0 550 400">
<defs>
<g id="Graphics_Symbol_602_0_Layer0_0_FILL">
<path fill="#3F3F3F" stroke="none" d="
M 45.7 5.15
L 49.05 19.7
Q 51 30 50.75 32.15 50.65 33.05 44.65 35.85 37.55 39.25 31.95 38.4 29.15 37.95 27.7 33.15 25.6 26.75 25 11.15
L 23.15 12.95
Q 22.8 15.45 23.7 24.3 24.55 33.1 24.05 36.8 23.55 41.05 12.5 39.4 11 39.15 4.55 36.5
L 3.05 36.6 1.85 36.7
Q 1.6 38.65 0.25 43 -0.8 46.55 -1.4 51.9 -5.15 80.4 -2.25 89.8 0.9 99.9 15.25 102.1 31.45 104.6 48.8 93.45 54.55 89.7 59.35 85.25 63.2 81.6 63.35 80.8 65.3 65.2 65.5 58.95 66 42.95 61.95 25.5
L 58.5 27.9
Q 55.95 29.65 54.65 29.45 52.5 29.1 50.25 17.6 49.15 11.85 48.35 5.45
L 45.7 5.15 Z"/>
</g>

<g id="Graphics_Symbol_640_0_Layer2_0_FILL">
<path fill="#000000" stroke="none" d="
M 67.45 42.8
Q 65.8 29.65 65.95 28.65 65 22.4 62.55 16.15 57.7 3.6 50.45 2.45 36.15 0.3 25.3 7.7 21.1 10.55 15.05 16.3
L 3.3 27.5
Q 0.65 30.05 -0.6 34.1 -2.3 39.15 -3.85 51.55 -7.9 82.8 -2.75 97
L 0.95 105.85
Q -1.75 105.65 -11.5 108.5 -18.35 110.4 -25.95 112.95 -28.25 113.6 -37.4 118.65 -43.15 121.65 -45.55 123.3
L -46.35 123.5 -46.4 123.85 -47.3 124.75
Q -47.4 126 -46.1 126.15
L -45.9 126.1
Q -44.05 128.35 -37.7 133.7
L -27.75 141.8
Q -19.65 151.15 1.7 159.1
L 10.05 160.4
Q 18.95 161.3 28.35 147.6 36.2 136.25 37.15 128.95
L 37.25 127.75 37.9 125.95 38.7 122.8 38.7 121.2
Q 43.9 116.65 49.15 110.65 64.45 93.55 66.1 81.2
L 66.1 80.05
Q 66.15 78.25 67.45 67.8 69 56.05 67.45 42.8
M 51.55 6.85
L 51.4 6.1
Q 54 7.4 57.3 14.8 60.15 21.2 60.1 22
L 58.65 23.5
Q 57.05 25.1 55.35 26.3 52.85 14.5 51.55 6.85
M 45.7 5.15
L 48.35 5.45
Q 49.15 11.85 50.25 17.6 52.5 29.1 54.65 29.45 55.95 29.65 58.5 27.9
L 61.95 25.5
Q 66 42.95 65.5 58.95 65.3 65.2 63.35 80.8 63.2 81.6 59.35 85.25 54.55 89.7 48.8 93.45 31.45 104.6 15.25 102.1 0.9 99.9 -2.25 89.8 -5.15 80.4 -1.4 51.9 -0.8 46.55 0.25 43 1.6 38.65 1.85 36.7
L 3.05 36.6 4.55 36.5
Q 11 39.15 12.5 39.4 23.55 41.05 24.05 36.8 24.55 33.1 23.7 24.3 22.8 15.45 23.15 12.95
L 25 11.15
Q 25.6 26.75 27.7 33.15 29.15 37.95 31.95 38.4 37.55 39.25 44.65 35.85 50.65 33.05 50.75 32.15 51 30 49.05 19.7
L 45.7 5.15
M 45.4 14.65
L 46.35 23.5
Q 46.8 30.3 47.05 31.05 45.85 31.95 39 33.75
L 31.8 35.6
Q 31.45 33 31 23.15 30.1 13.65 27.75 9.2 44.85 -0.7 45.4 14.65
M 4.15 32.4
Q 4.4 30.2 6.45 28.75 7.35 28.25 9.4 27.45 6.95 32.75 6.45 34.75
L 4.9 33.55
Q 4.1 32.8 4.15 32.4
M 18 37.25
L 14.2 36.7 8.2 35.6 13.8 25.95
Q 18.3 18.45 20.35 16.2
L 21.55 36.1
Q 21.35 37.4 18 37.25
M 2.35 101.6
L 2.1 100.5
Q 3.3 101.35 5.55 102.25 9.95 104.15 15.25 104.95 23.6 106.2 37 102.45 51.3 98.5 56.8 92.05 51.95 106.4 37 117.45 23.3 127.55 15.35 126.35 3.75 124.55 2.95 115.85 2.8 114.35 3.15 108.4 3.35 103.85 2.35 101.6
M 1.35 107.35
Q 2.4 111.5 1.75 116.85 1.25 120.4 4.25 123.8 7.85 128 15.15 129.1 19.9 129.8 25.6 127.75 31.45 125.6 32.05 125.7 32.8 125.8 34.75 124.4
L 34.8 128.5
Q 33.65 137.7 26.2 147.2 17.1 158.65 6.25 157.05 -10.2 154.5 -28.65 138.8
L -39.9 128.1 -43.2 124.8 -36.6 121.4
Q -26.85 116.35 -24.65 115.55
L -9.9 111.65
Q -0.65 109.05 1.35 107.35 Z"/>

<path fill="#3F3F3F" stroke="none" d="
M 6.45 28.75
Q 4.4 30.2 4.15 32.4 4.1 32.8 4.9 33.55
L 6.45 34.75
Q 6.95 32.75 9.4 27.45 7.35 28.25 6.45 28.75 Z"/>
</g>

<g id="Graphics_Symbol_640_0_Layer1_0_FILL">
<path fill="#010265" fill-opacity="0.25098039215686274" stroke="none" d="
M 64.1 34.2
Q 57.3 3.85 48 3.85 36.25 3.85 25.65 10.9 17.95 16 10 25.6
L 5.3 29.8
Q 2.45 32.25 0.9 35.4 -3.75 44.8 -3.75 73.75 -3.75 85.3 -2.5 91.8 -1.25 98.45 2.3 105.35 -24.8 112 -35.15 117.25 -40.95 120.2 -45 124.2 -44.25 124.8 -42.6 124.8 -39.75 124.8 -25.55 121.05 -3.95 115.35 2.75 113.8 2.55 121.05 8.2 125.15 13.25 128.85 19.95 128.35 19.6 134.1 15.4 142.15 11.2 150.15 8.6 150.15 4.5 150.15 -11.95 142.05
L -47.35 124
Q -33.65 141.2 -16.2 151.7 -1.8 160.35 6.75 160.35 14.05 160.35 22.1 153.45 29.45 147.1 33.25 138.95 35.3 134.6 37.5 126.6 39.55 119.4 40.1 118.55 42.7 114.5 53.3 99.9 60.05 90.6 60.05 88.1 60.05 87.5 59.85 87.6
L 59.2 87.95
Q 62.95 84.2 66.45 74.95
L 69.15 66.3 67.9 55.55
Q 66.3 44 64.1 34.2
M 52.95 27.25
Q 54.45 27.25 56.95 33.1 59.7 39.55 59.7 45.4 59.7 46.95 57.45 49.75 54.9 52.9 50.9 55.65 40.1 63.15 25.95 63.15 16.05 63.15 13.2 61.05 12 60.2 12 57.8 12 55.85 14.9 48.6
L 20 35.75
Q 20.35 36.5 20.8 36.7 21.4 36.6 22.2 35.7 20.95 35.35 20.95 34.35 20.95 32.1 24.75 26.45
L 29.6 19.65
Q 30.95 17.6 35.8 15.25 41.7 12.4 47.7 12.35 47.8 10.5 49.1 27.5
L 49.45 27.2
Q 49.797265625 27.0015625 49.8 27.6 49.8095703125 27.000390625 51 27.05
L 52.95 27.25
M 16.85 83.05
Q 15 83.05 13.5 81.3 11.95 79.45 11.95 76.9 11.95 75.9 13 69.55
L 29.2 68.55 40.6 67.5
Q 50.15 65.75 59.05 56.3
L 60.15 61.15 60.85 65.15
Q 60.85 73.55 46.6 78.6 34 83.05 16.85 83.05
M 10.7 97.45
L 11.5 93.9
Q 11.95 91.2 10.6 88.7
L 22.55 89.4 29.85 89.65
Q 43.95 89.65 49.7 86.25 54.25 83.55 59.3 74.05
L 59.55 73.7 59.75 79.35
Q 59.75 85.75 52.75 91.65 42.6 100.2 22.5 100.2
L 12.8 99.55
Q 10.65 98.95 10.7 97.45
M 6.85 121.15
Q 4.9 117.3 4.9 113.5 4.9 111.45 10.4 110.5
L 23 109.3
Q 42.6 107.95 46.1 103.55 44.15 114.6 31.2 121.55 21.6 126.7 14.95 126.7 9.65 126.7 6.85 121.15
M 40.75 34.45
Q 45.95 32.45 47.4 30.6 42.6 31.25 38.6 32.35 35.9 33.1 31.75 34.6
L 32 35.9 33.6 36.25
Q 35.95 36.25 40.75 34.45 Z"/>
</g>

<g id="Graphics_Symbol_640_0_Layer0_0_FILL">
<path fill="#FFFFFF" fill-opacity="0.25098039215686274" stroke="none" d="
M 0.6 133.8
Q 2.75 133.8 4.5 132.65 6.7 131.25 6.7 128.65 6.7 124.15 3.25 122.05 0.5 120.35 -3.95 120.35 -9.95 120.35 -17.9 122.25 -27.25 124.5 -28.4 127.45
L -28.05 128.5 -24.6 128.45
Q -23.45 128.45 -13 131.15 -2.6 133.8 0.6 133.8
M 21.6 119.25
L 23.75 119.65
Q 26.85 120.2 29.8 117.15 32.35 114.45 32.35 112.4
L 32.25 111.75 32.1 111.5 28.35 111.15
Q 21.1 111.15 20.25 118.8
L 21.6 119.25
M 46.65 85.3
Q 44.9 85.3 43.65 86.55 42.4 87.8 42.4 89.6 42.4 91.4 43.65 92.65 44.9 93.9 46.65 93.9 48.4 93.9 49.65 92.65 50.9 91.4 50.9 89.6 50.9 87.8 49.65 86.55 48.4 85.3 46.65 85.3
M 55.8 65.8
L 55.5 64.5 54.05 64.3
Q 50.5 63.5 46.35 66.15 42.7 68.5 42.7 69.95 42.7 73.35 43.9 75.4 45.4 77.95 48.7 77.95 52.65 77.95 54.15 74.25 54.9 72.45 55.8 65.8
M 36.95 96
Q 36.95 93.7 35.05 92.1 33.1 90.45 30.35 90.45 27.6 90.45 25.7 92.1 23.75 93.7 23.75 96 23.75 98.3 25.7 99.95 27.6 101.55 30.35 101.55 33.1 101.55 35.05 99.95 36.95 98.3 36.95 96
M 35.55 71.5
Q 32.85 69.7 29.05 69.7 25.25 69.7 22.6 71.5 19.9 73.25 19.9 75.8 19.9 78.35 22.6 80.15 25.25 81.9 29.05 81.9 32.85 81.9 35.55 80.15 38.2 78.35 38.2 75.8 38.2 73.25 35.55 71.5
M 26.9 44.95
Q 25.65 46.45 25.4 47.25
L 22.85 53.25
Q 21.75 55.5 21.75 56.65 21.75 57.95 22.4 58.6 23.8 59.95 27.95 59.95 32.45 59.95 36.15 58.75 41.35 57.05 41.35 53.65 40.05 41.15 38.05 41.15
L 29.3 43.05
Q 28.3 43.25 26.9 44.95
M 45.15 41.05
Q 45.8 42.15 45.45 47.55 45.2 51.45 48.2 51.45
L 51.65 50
Q 54.95 48.15 54.95 46.05
L 54.45 41.8 53.9 38 53.25 38.45
Q 46.25 41.3 45.15 41.05
M 43.3 27.8
Q 44.55 26.55 44.55 24.75 44.55 22.95 43.3 21.7 42 20.45 40.2 20.45 38.4 20.45 37.15 21.7 35.85 22.95 35.85 24.75 35.85 26.55 37.15 27.8 38.4 29.05 40.2 29.05 42 29.05 43.3 27.8 Z"/>
</g>
</defs>

<g transform="matrix( 1, 0, 0, 1, -33.5,-72.6) ">
<g transform="matrix( 1, 0, 0, 1, 0,0) ">
<g transform="matrix( 1, 0, 0, 1, 0,0) ">
<use xlink:href="#Graphics_Symbol_602_0_Layer0_0_FILL"/>
</g>
</g>

<g transform="matrix( 1, 0, 0, 1, 0,0) ">
<g transform="matrix( 1, 0, 0, 1, 0,0) ">
<use xlink:href="#Graphics_Symbol_640_0_Layer2_0_FILL"/>
</g>

<g transform="matrix( 1, 0, 0, 1, 0,0) ">
<use xlink:href="#Graphics_Symbol_640_0_Layer1_0_FILL"/>
</g>

<g transform="matrix( 1, 0, 0, 1, 0,0) ">
<use xlink:href="#Graphics_Symbol_640_0_Layer0_0_FILL"/>
</g>
</g>
</g>
</svg>
