
<svg xmlns="http://www.w3.org/2000/svg" version="1.1" xmlns:xlink="http://www.w3.org/1999/xlink" preserveAspectRatio="none" x="0px" y="0px" width="550px" height="400px" viewBox="0 0 550 400">
<defs>
<g id="Layer0_0_FILL">
<path fill="#FF9900" stroke="none" d="
M 1.7 10.2
Q 1.1 10.2 0.7 10.6 0.3 11 0.3 11.6 0.3 12.2 0.7 12.6 1.1 13 1.7 13 2.3 13 2.7 12.6 3.1 12.2 3.1 11.6 3.1 11 2.7 10.6 2.3 10.2 1.7 10.2
M 3.05 0.15
L 1.85 0 0.55 0.2
Q 0.05 0.45 0 3.2 -0.05 5.95 0.4 7.45 0.8 9 1.65 9 2.45 9 3 7.6 3.5 6.15 3.45 3.25 3.4 0.35 3.05 0.15 Z"/>
</g>
</defs>

<g transform="matrix( 1, 0, 0, 1, 0,0) ">
<use xlink:href="#Layer0_0_FILL"/>
</g>
</svg>
