
<svg xmlns="http://www.w3.org/2000/svg" version="1.1" xmlns:xlink="http://www.w3.org/1999/xlink" preserveAspectRatio="none" x="0px" y="0px" width="550px" height="400px" viewBox="0 0 550 400">
<defs>
<g id="Layer0_0_FILL">
<path fill="#000000" stroke="none" d="
M -13.6 -5
Q -17.2 -7.6 -22.45 -7.6 -32.25 -7.6 -38.65 -0.65 -43.65 4.8 -43.65 9.4 -43.65 12.7 -34.85 22.65 -26 32.65 -22.75 33
L -5.2 35.1 9.6 35.65 30.45 34.75
Q 35.85 33.8 38.2 33.8 46 33.8 52.3 35.8 58.85 37.9 61.15 37.95
L 61.3 38.05 61.35 37.45
Q 61.35 35.4 59.25 32
L 55.2 26.5 64.95 28.25
Q 66.5 28.25 65.65 24.9 64.7 21.4 61.9 18.85
L 64.35 19.6 66.15 19.9 67.05 19.8
Q 67.3 19.9 67.3 18.9 67.3 18.5 62.65 14.1
L 57.95 9.7
Q 57.95 7.85 46.85 6.4 33.9 4.75 18.15 6.25 0.3 7.95 -7.85 0.45 -11.5 -3.5 -13.6 -5
M -34.45 -1.35
Q -26.7 -4.7 -21.55 -4.7 -15.55 -4.7 -9.6 0.15 -6.4 2.7 -2.8 6.75
L -3.35 7.8
Q -14.75 0.9 -17.05 1.2
L -10.65 6.35
Q -5.5 10.45 -2.15 12.05
L -6 12.3 -12.35 11.4
Q -13 11.4 -13.05 11.65
L -13 12.35
Q -13.55 9.55 -15.05 8.8
L -18.55 6.85 -18.25 8.35
Q -17.35 13.75 -14.45 17.3 -12.95 19.05 -11.55 19.75
L 4.25 18.7
Q 4.8 18.7 6.5 19.95
L 8.55 21.2
Q 15.85 18.65 16.25 18.65
L 22.8 21.15 32.15 19.1 33.2 20.65
Q 34.55 22.1 36.3 21.75
L 36.25 22
Q 34.45 26.25 34.45 28.75
L 34.65 32.3 6.85 32.7
Q 4.1 32.7 -1.15 31.4 -6.35 30.05 -8.4 30.05 -12.8 31.25 -14.25 31.25 -21.45 31.25 -27.3 27.6 -32.55 24.3 -35.45 18.9 -36.4 17.15 -38.9 14.2 -40.85 11.9 -40.85 11 -40.85 10.4 -38.45 6.15 -35.45 0.85 -32.25 -2.15
L -34.45 -1.35
M -11.95 14.75
L -11.5 14.85 -4.05 14.5
Q 1.3 13.2 8.6 13.2
L 12.85 16.2
Q 9.85 19.25 7.7 17.9
L 5.7 16.45
Q 4.4 15.65 3 15.65
L -11 16.95
Q -12 16.95 -11.95 14.75
M 61.8 23.35
L 61.65 24.2 61.5 24.45 53.7 24.45
Q 52.9 24.55 50.25 22.8
L 45.6 19.3
Q 47.35 18.1 48.95 18.1
L 50.05 17.8
Q 50.35 17.7 50.35 18.25
L 56.1 20
Q 61.8 21.55 61.8 23.35
M 41.95 17.5
Q 42.95 17.5 43.2 17.15 42.25 19.45 41.15 20.05
L 39.35 20.3
Q 38.25 20.3 37.85 19.65
L 37.25 18.3
Q 36 16.25 29.8 16.25 28.1 16.25 25.5 17.2 22.95 18.15 22.4 18.15 18.1 16.4 16.2 15.85 18.55 14.45 24.5 13.8 29.7 13.8 34.9 15.3
L 36.8 14.8
Q 38.15 14.3 38.65 14.3
L 40.1 15.9
Q 41.5 17.5 41.95 17.5
M 43.5 16.9
L 43.75 16.8
Q 44.3 16.15 45.2 16.35
L 43.5 16.9
M 60.2 14.8
L 59.85 14.8 52.25 13.8
Q 52.5 11.55 52.25 10.2 53.1 10.15 56.5 12.45
L 60.2 14.8
M 45.75 13.75
Q 45 13.7 41.2 12.35
L 24.55 10.8
Q 19.05 10.8 16.1 12.1 14.2 13.35 13.65 13.35
L 10.75 11.85
Q 7.7 10.35 6.55 10.35
L 0.75 11.65 1.1 10.9 -1.3 9.3 12.3 7.75 26.85 9.7 35.05 8.7 39.9 9
Q 45.45 9.55 49.7 10.8 48.95 14.05 45.75 13.75
M 46.9 25.2
Q 52.7 26.9 55 31.3 41.7 30.55 37.95 30.9
L 39.2 24 46.9 25.2 Z"/>
</g>
</defs>

<g transform="matrix( 1, 0, 0, 1, 0,0) ">
<use xlink:href="#Layer0_0_FILL"/>
</g>
</svg>
