
<svg xmlns="http://www.w3.org/2000/svg" version="1.1" xmlns:xlink="http://www.w3.org/1999/xlink" preserveAspectRatio="none" x="0px" y="0px" width="550px" height="400px" viewBox="0 0 550 400">
<defs>
<g id="Layer0_0_FILL">
<path fill="#000000" fill-opacity="0.5019607843137255" stroke="none" d="
M 43.55 23.15
L 42.6 22.9
Q 40.75 22.9 39.05 24.7 37.2 26.65 37.2 29.3 37.2 31.5 40.35 31.8
L 53.5 33.25 54.75 31.9
Q 53.9 30.55 51.1 29.95
L 43.55 28.7
Q 44.45 26.45 44 23.35
L 43.55 23.15
M 46.7 18.35
Q 45.8 19.4 45.8 20.15 45.8 23.05 51.85 24.65 56 25.75 59.55 25.75
L 61.3 25.6
Q 61.9 25.3 62.25 24.35 55.4 22.35 52.3 20.25 50.2 18.85 49.5 17 47.85 17.05 46.7 18.35
M 46.9 11.25
L 50 12.2 50.25 11.15 50.05 9.55
Q 44.45 8.75 43.15 8.15 41.8 7.55 36.1 7.35 30.4 7.1 24 7.25
L 1 7.25 0.4 7.65
Q -0.25 8.15 -0.25 8.75 -0.25 10.05 0.85 10.45
L 4.75 10.75 13.05 10 27.25 11.75 39.9 10.5
Q 44.5 10.5 46.9 11.25
M 61.85 17.6
L 62.25 16.5
Q 60.25 15.15 55.25 12.5
L 56.2 10.4 55 9.3
Q 54.2 8.8 52.8 8.45
L 51.5 9.25 51.25 9.6
Q 51.25 13.6 54.35 16.1 57.6 18.7 61.85 17.6
M -23.3 -2
Q -21.55 -2 -17.7 -0.5 -11.5 1.85 -5.8 6.8 -7.8 5.2 -9.3 4.3 -12.05 2.65 -14.9 2.65
L -17.25 3
Q -16.35 4.1 -11.45 8.2
L -5.1 13.15 -11.55 13.85
Q -12.7 13.85 -18 1.5 -19.95 1.55 -21.15 3.6 -22.45 5.85 -22.45 9.95
L -22.2 12.65 -21.3 14.6 -21 14.75 -20.1 13.6 -19.55 12.4
Q -18.15 17.3 -14.5 21.75 -14.35 21.15 -13.8 20.65 -13.4 20.3 -13.2 20.3 -6.5 22.75 -4.05 22.75 -1.75 21 -1.25 21 2.35 21 7.25 22.4
L 11.45 23.75 33 21.8 33.45 22.1 35.95 24.75 36.75 24.5
Q 37.25 24.2 37.25 23.15 37.25 21.15 33.4 20.2
L 21.25 18.2
Q 21.2 15.75 24.2 15.65
L 28.85 15.5 33.9 16.05
Q 38.05 16.55 39.15 17.75 40.25 18.95 41.3 18.75
L 43.2 18.6
Q 43.75 18.9 43.75 17.9 43.75 15.6 39.75 14.2 35.6 12.75 28.5 12.75
L 18.05 13.35
Q 17.95 15.3 18.1 15.3
L 18.25 15.5 6.8 13.85 -3.2 13.1
Q -2.25 12.7 -2.25 11.75 -2.25 11.2 -4.35 10.15
L -4.5 10.05 -1.35 9.9
Q -0.75 10.05 -1.25 8 -1.8 5.9 -9.05 0.15 -16.3 -5.65 -22.3 -6 -28.3 -6.35 -32.05 -3.45 -35.65 -0.75 -40 7.5
L -40.65 7 -41.9 6.65 -42.4 6.75 -42.05 6.9
Q -43.9 13 -36.35 21.55 -28.6 30.4 -18.75 32.25
L 20.05 35.25
Q 27.55 35.25 31.9 34.05 35.75 32.95 35.75 31.35
L 35.7 30.65 35.55 30.4 28.8 29.75
Q 25.6 29.2 25.45 27.45
L 23.5 27.25
Q 18.3 27.25 13.55 29.15 11.15 30.1 9.75 31.05 9.6 31.05 4 27.25
L -7.55 29.5 -21.9 27.1
Q -21.25 25.75 -21.25 24.75 -21.25 22.05 -25.1 19.95 -31.5 16.35 -33.9 14.2
L -31.45 14.15 -31.1 13.75
Q -30.75 13.35 -30.75 12.75
L -32.25 11.35
Q -32.25 8.8 -27.8 3.15 -23.75 -2 -23.3 -2
M -11.9 18.35
Q -11.9 17.45 -12.5 16.25 -10.9 15.45 -9.05 15.45
L 2.15 15.95 14.3 18 13.6 19.35 10.15 19.5 -11.9 18.35 Z"/>
</g>
</defs>

<g transform="matrix( 1, 0, 0, 1, 0,0) ">
<use xlink:href="#Layer0_0_FILL"/>
</g>
</svg>
