
<svg xmlns="http://www.w3.org/2000/svg" version="1.1" xmlns:xlink="http://www.w3.org/1999/xlink" preserveAspectRatio="none" x="0px" y="0px" width="550px" height="400px" viewBox="0 0 550 400">
<defs>
<g id="Layer0_0_FILL">
<path fill="#FFFFFF" fill-opacity="0.23921568627450981" stroke="none" d="
M 93.95 80.85
L 87.4 81.7
Q 81 82.7 81 83.6 81 89.35 83.05 92.1 85.65 95.6 92 95.6 94.75 95.6 98.2 92.05 102 88.15 102 83.85 102 82.45 99.9 81.65 97.8 80.85 93.95 80.85
M 70.6 89.45
L 68.75 89
Q 14.35 89 5.95 90.15 0.6 90.9 -0.4 92.8 -0.75 93.4 -0.75 97.75 -0.75 100.85 10.6 102.15
L 38.5 103.25
Q 55.75 103.25 63.25 101.7 72.9 99.7 73.75 94.3 73.75 92.45 73.2 90.9 72.5 90.1 70.6 89.45 Z"/>

<path fill="#FFFFFF" stroke="none" d="
M 94.7 74.15
L 94.5 74.15
Q 72.75 76.25 72.75 78.6 72.75 79.1 73.25 79.3 73.7 79.5 73.7 80
L 72.1 83.35 73.2 90.9
Q 73.75 92.45 73.75 94.3 75.05 103.7 76.4 109.5 78.15 117 79.7 117 80.4 117 80.6 116.6
L 80.75 115.8
Q 80.75 114.05 78 103.85 75.25 93.65 75.25 87.65
L 75.45 80.05 87.4 78.15
Q 94.75 76.85 94.75 74.8
L 94.7 74.15 Z"/>
</g>
</defs>

<g transform="matrix( 1, 0, 0, 1, 0,0) ">
<use xlink:href="#Layer0_0_FILL"/>
</g>
</svg>
