
<svg xmlns="http://www.w3.org/2000/svg" version="1.1" xmlns:xlink="http://www.w3.org/1999/xlink" preserveAspectRatio="none" x="0px" y="0px" width="550px" height="400px" viewBox="0 0 550 400">
<defs>
<g id="Layer0_0_FILL">
<path fill="#999999" stroke="none" d="
M 80 120.1
Q 77.65 121.65 49.45 125.25 17.55 129.35 -1.7 128.8
L -10.15 129.6
Q -16.2 131.45 -17 132.3 -18.25 133.6 -18.25 139.6 -18.25 142.55 -17.85 143.85 -16.95 146.75 -13.8 148.85 -4.9 154.75 22.15 154.75 77.05 154.75 99.7 145 114.25 138.75 114.25 129.05 114.25 122.1 113.4 118.95 112.05 114 111.8 112.1 111.8 113.9 110.85 115.15 109.9 116.4 108.55 116.4 109.1 118.7 109.1 120.65 109.1 126.9 107.35 130.5 104.7 136.05 97.15 139.75 77.85 149.25 21.75 149.25 -0.65 149.25 -9.05 144.75 -13.25 142.5 -13.25 139.5 -13.25 137.25 -11.4 136.1 -9.25 134.75 -3.45 133.9 5.8 132.55 44.3 130.9 86.95 129.15 86 119.9
L 80 120.1
M 100.55 71.6
Q 98.4 67.25 93.85 53.85 88.4 37.65 85.6 30.75 74.2 2.15 62.75 2.15 58.35 3.4 57 4.05 52.15 7.25 50.45 8.9
L 46.75 13
Q 44.75 15.5 44.75 16.35
L 49.4 21.2
Q 55.3 26.95 59.65 32.65 74.65 52.4 75.35 75.9
L 77.55 75.65
Q 78.95 75.3 80.3 74.35
L 80.4 67.6
Q 80.4 48.1 66.85 33.7
L 57.5 24.65
Q 53.25 20.35 53.25 17.35 53.25 12.85 58.7 10 61.45 8.6 64.3 8.05 68.95 8.05 77 30
L 84.3 50.55
Q 88.9 63.45 92.35 71.3
L 100.55 71.6 Z"/>

<path fill="#D2C170" stroke="none" d="
M 100.55 71.6
L 92.35 71.3 85.75 71.8
Q 84.55 72.05 80.3 74.35 78.95 75.3 77.55 75.65
L 75.35 75.9
Q 73.65 75.9 72.45 78.35 71.25 80.75 71.25 84.2 71.45 86.3 73.8 99.8 76.25 114.2 76.85 115.8
L 80 120.1 86 119.9 93.65 118 108.55 116.4
Q 109.9 116.4 110.85 115.15 111.8 113.9 111.8 112.1
L 110.85 102.05
Q 109.75 93.6 107.3 88.25
L 107.15 87.85 105.05 79.95
Q 102.7 72.3 100.55 71.6
M 92.35 79.3
L 99.6 78.75
Q 99.35 81.1 102.5 89.35 105.8 98.1 105.8 102.95
L 105.7 107.35 96 108.7
Q 91.75 109.3 85 111.25
L 80.95 83.15 92.35 79.3 Z"/>

<path fill="#000000" stroke="none" d="
M 99.6 78.75
L 92.35 79.3 80.95 83.15 85 111.25
Q 91.75 109.3 96 108.7
L 105.7 107.35 105.8 102.95
Q 105.8 98.1 102.5 89.35 99.35 81.1 99.6 78.75
M 31.75 -0.45
Q 28.45 -1.35 23.95 -1.35 5.85 -1.35 -2.6 25.85 -9.25 47.2 -9.25 82.05
L -8.65 95
Q -8.05 108.9 -8.05 114.2 -8.05 116.1 -9.15 119.7 -10.25 123.3 -10.25 125.25
L -10.15 129.6 -1.7 128.8 -3.25 114.9 8.95 118.55 43.85 118.65 70.7 115.6 72.25 116.4
Q 74.1 116.9 76.85 115.8 76.25 114.2 73.8 99.8 71.45 86.3 71.25 84.2
L 65.1 85.25 58.7 86.9
Q 48.3 89 25.7 89 15.3 89 11.05 87.85 6.85 86.7 1.35 86.7 0.45 86.7 -1.9 85.6 -4.4 84.45 -4.4 83.75 -4.4 63.4 -1.95 47.1 -0.2 35.55 2 29.9 5 22.1 9.9 15.5 18.1 4.25 27.1 4.25 29.35 4.25 31.25 3.5 33.15 2.7 35.35 2.7 40.1 2.7 45.1 5.05 49.45 7.1 50.45 8.9 52.15 7.25 57 4.05 53.6 1.85 49.7 0.4 45.1 -1.3 41.3 -1.3 38.8 -1.3 38.5 -0.6
L 38.6 0.45 31.75 -0.45 Z"/>
</g>
</defs>

<g transform="matrix( 1, 0, 0, 1, 0,0) ">
<use xlink:href="#Layer0_0_FILL"/>
</g>
</svg>
