
<svg xmlns="http://www.w3.org/2000/svg" version="1.1" xmlns:xlink="http://www.w3.org/1999/xlink" preserveAspectRatio="none" x="0px" y="0px" width="550px" height="400px" viewBox="0 0 550 400">
<defs>
<g id="Layer0_0_FILL">
<path fill="#000000" fill-opacity="0.14901960784313725" stroke="none" d="
M 88.6 41.75
L 83 25.55
Q 75.85 7.4 64.15 5.8 58.35 5 44.7 1.25 33.6 -1.8 26.3 -1.8 19.75 -1.8 15.35 2.95 12.7 5.8 10.65 10.8
L 2.9 20.3
Q 0.7 23.4 -0.35 29.5
L 0.9 31
Q -0.8 31.7 -3.1 42.5
L -5.1 53.25 -4.55 55
Q -4 56.2 -4 56.7
L -5.5 62.5
Q -7.15 68.65 -7.7 76.5 -8.15 82.85 -8.25 91.6
L -8.5 101.1
Q -10.1 117.6 -12 129.35 -13.75 140 -14.8 141.45 -15.75 141.45 -16.7 140.15
L -17.05 141.15 -17.25 142.85
Q -17.25 147.4 -6.2 150.05 6.1 153 30.15 153 73.05 153 92.55 148.05 114.2 142.55 114.2 129.45 114.2 119.6 106.85 92.7 99.65 66.55 94.85 57.4 92 51.9 88.6 41.75
M 85.4 63.85
Q 90.8 77.95 91.1 79.7
L 92.5 88.2
Q 93.45 92.55 96.65 100.25 99.35 106.8 100.85 114.5 101.9 120.1 101.9 123 101.9 135.65 78.2 140.45 58.05 144.55 9.9 144.55
L -9.75 144.3 -4.55 123.75
Q -3.8 128.65 -2.85 130.3 -1.9 132 0.2 132 7.7 132 13.45 128.15 19.35 124.2 26.5 124
L 70.3 122.1
Q 80.7 121.3 82.25 120.2
L 81.25 120.05 80.55 118.9
Q 79.6 117.35 76.85 115.8 74.1 114.25 69.45 114.35
L 61.9 114.65 48.8 114.2 32.95 115.15
Q 26.7 116.1 19.05 118.65 19.4 118.3 19.4 117.3 19.4 115.25 16.05 114.25 13.35 113.45 8.9 113.45 7.1 113.45 6.45 114.3 5.8 115.05 5.8 116.95
L 5.7 118.45
Q 4.9 116 2 110.85
L 1.65 110.4 0.25 113.5
Q -0.6 114.55 -3.75 114.7
L -3.05 106.4 -3.85 95.35 14.45 99.85
Q 16.35 99.85 16.8 98.9 17.1 98.35 17.1 95.95 17.1 91.85 53.35 92.75 58.05 89.15 65 87.3 70.95 85.75 72 84.15 71.3 84.15 71.6 83.95
L 71.75 83.65 70.9 83.05 69.45 82.8 49.5 84.45
Q 41.5 84.45 28.2 82 15.25 79.65 14.25 78.2 10.65 73.6 8.9 70.4 6 65.1 7.15 61.2
L 6.85 61.7
Q 6.7 62.05 6.7 61.05 6.7 40.5 15.45 26.2 23.95 12.35 35.45 12.35 40.15 12.35 44.75 16.35
L 53.45 6.4
Q 55 9.6 57.85 13.4 60.4 16.7 61.35 17.35
L 63.4 14.2 63.25 14.1 63.8 14
Q 65.9 14 71.5 27.9
L 85.4 63.85
M 73.75 25.1
L 76.6 29.35 74.95 27.7
Q 73.95 26.55 73.75 25.1
M -2.7 86.5
Q -2.7 87.15 -3.05 87.7
L -3.85 88.65
Q -3.6 83.25 -3.15 83.9 -2.7 85.25 -2.7 86.5 Z"/>
</g>
</defs>

<g transform="matrix( 1, 0, 0, 1, 0,0) ">
<use xlink:href="#Layer0_0_FILL"/>
</g>
</svg>
