
<svg xmlns="http://www.w3.org/2000/svg" version="1.1" xmlns:xlink="http://www.w3.org/1999/xlink" preserveAspectRatio="none" x="0px" y="0px" width="550px" height="400px" viewBox="0 0 550 400">
<defs>
<g id="Graphics_Symbol_791_0_Layer0_0_FILL">
<path fill="#EEF3FA" stroke="none" d="
M 86.9 64.55
L 86.7 61.5
Q 86.7 57.3 87.8 52.95 88.15 51.55 90.45 44.25 83.25 41.65 78.1 40.4 71.4 38.75 65.85 38.75 55.75 38.75 48 41.25 40.3 43.8 26.05 51.7 33.95 55.9 37.3 58.9 39.8 61.2 40.6 63.8 44.4 61.6 49.95 59.7 56.9 57.35 62.1 57.35 66.3 57.35 72.4 58.75 81.15 60.7 86.9 64.55 Z"/>
</g>
</defs>

<g transform="matrix( 1, 0, 0, 1, -62.75,-76.85) ">
<g transform="matrix( 1, 0, 0, 1, 0,0) ">
<g transform="matrix( 1, 0, 0, 1, 0,0) ">
<use xlink:href="#Graphics_Symbol_791_0_Layer0_0_FILL"/>
</g>
</g>
</g>
</svg>
