
<svg xmlns="http://www.w3.org/2000/svg" version="1.1" xmlns:xlink="http://www.w3.org/1999/xlink" preserveAspectRatio="none" x="0px" y="0px" width="550px" height="400px" viewBox="0 0 550 400">
<defs>
<g id="Graphics_Symbol_791_0_Layer0_0_FILL">
<path fill="#EEF3FA" stroke="none" d="
M 86.9 64.55
L 86.7 61.5
Q 86.7 57.3 87.8 52.95 88.15 51.55 90.45 44.25 83.25 41.65 78.1 40.4 71.4 38.75 65.85 38.75 55.75 38.75 48 41.25 40.3 43.8 26.05 51.7 33.95 55.9 37.3 58.9 39.8 61.2 40.6 63.8 44.4 61.6 49.95 59.7 56.9 57.35 62.1 57.35 66.3 57.35 72.4 58.75 81.15 60.7 86.9 64.55 Z"/>
</g>

<g id="Graphics_Symbol_837_0_Layer3_0_FILL">
<path fill="#000000" stroke="none" d="
M 106.95 71.7
Q 103.6 68.1 101.4 68.1 99.5 68.1 98.65 70.15 97.8 72.15 97.8 76.55 97.8 80.55 99.3 90.65
L 101.35 104.55 101.15 106.1
Q 99.15 105 96.3 101.55
L 91.15 95
Q 84.3 86.6 78.45 86.6 73.4 86.6 69.5 96.95 65.2 108.35 65.2 125.75 65.2 126.8 66.25 126.8 68.4 126.8 79.4 123.45 90.35 120.1 94.55 120.1 100.55 120.1 104.1 122.4 108.35 125.15 108.35 130.9 108.35 134.8 85.3 138.7 66.65 141.8 61.05 141.8 53 141.8 47.4 138.95 40.75 135.55 35.1 127.15 30.1 119.65 27.6 109.3 25.85 102.15 25.85 97.1 25.85 77.85 41.3 65 41 63.95 41 62.6 23.85 76.5 23.85 98.75 23.85 103.75 26.85 113.5 30.05 123.9 33.4 128.2 41.8 139 45.6 141.25 49.85 143.75 60.7 143.75 100.9 143.75 114.45 127.1 119.35 121.1 120.9 112.75 121.7 108.35 121.7 100.05
L 121.4 93.35
Q 121.05 87.05 120.7 84.85 113.25 65.15 100.85 56.3 95 52.15 88.3 50.5
L 88.5 52.55
Q 100.55 55.6 109.05 66.85 119.7 80.9 119.7 99.5 119.7 106.45 117.55 114.45 115.6 121.65 113.35 124.9 111.8 123.2 110.6 119.35 109.3 115.3 109.3 111.55 109.3 109.9 113.2 95.6 116.35 84 113.8 80.5 109 73.95 106.95 71.7 Z"/>
</g>

<g id="Graphics_Symbol_837_0_Layer2_0_FILL">
<path fill="#000000" stroke="none" d="
M 92.75 43.75
Q 92.75 42.3 83.3 39.6 73.3 36.75 65.9 36.75 56.2 36.75 40.3 41.65 23.15 46.95 23.15 51.55 23.15 52.3 30.85 57.5 38.5 62.75 38.5 64.2
L 38.1 65.35
Q 37.7 65.95 37.7 66.45 37.7 67.05 37.85 67.2
L 38 67.35 38.8 67.4
Q 40.2 67.4 48.6 63.4 56.95 59.4 61.7 59.4 66.2 59.4 76.15 63.45 86.15 67.45 88.2 67.45
L 89.15 67.4 89.3 66.6
Q 89.3 61.35 91.05 52.1
L 92.75 43.75
M 87.8 52.95
Q 86.7 57.3 86.7 61.5
L 86.9 64.55
Q 81.15 60.7 72.4 58.75 66.3 57.35 62.1 57.35 56.9 57.35 49.95 59.7 44.4 61.6 40.6 63.8 39.8 61.2 37.3 58.9 33.95 55.9 26.05 51.7 40.3 43.8 48 41.25 55.75 38.75 65.85 38.75 71.4 38.75 78.1 40.4 83.25 41.65 90.45 44.25 88.15 51.55 87.8 52.95 Z"/>
</g>

<g id="Graphics_Symbol_837_0_Layer1_0_FILL">
<path fill="#010265" fill-opacity="0.25098039215686274" stroke="none" d="
M 91.05 45.5
Q 91.05 43.4 83.6 40.95 76.15 38.5 68.8 38.1 61.45 37.7 50.55 40.35 39.6 43 24.1 51.8 27.5 52.8 28.4 54.1 29.3 55.35 41.1 64.2 34.7 67.7 30.4 75.55 26.05 83.4 25.65 101.1 25.25 118.8 36.15 132.25 40.55 137.65 45.75 140.7 50.6 143.55 54.5 143.55 69.8 143.55 83.3 141.2 98.45 138.6 101.3 134.5 62.45 137.35 49 128.6 42.65 124.45 40.05 116.95 37.85 110.6 37.85 99.85 37.85 80.1 41.7 73.2 46.6 64.5 61.8 64.5
L 79.4 65.6 88.8 66.7
Q 90.65 66.7 93 63.95
L 95.35 61.15
Q 96.5 61.15 98.75 62.45 101.75 64.15 103.2 66.7
L 111.3 77.3
Q 119.05 87.75 119.05 89.5 119.05 90.65 116.25 98.25 113.4 105.8 113.4 113 113.4 120.05 116.1 120.05 118.3 120.05 119.85 115.5 121.6 110.3 121.6 100.95 121.6 95.9 119.6 88.2 117.45 79.7 109.75 68.1 102 56.5 96.25 54.75 90.5 53 89.45 53.45 88.35 53.85 87.9 54.4
L 88.5 53.55 90.2 49.85
Q 91.05 47.55 91.05 45.5 Z"/>
</g>

<g id="Graphics_Symbol_837_0_Layer0_0_FILL">
<path fill="#FFFFFF" stroke="none" d="
M 113.45 106.8
L 109.65 116.9
Q 109.65 119.7 110.25 120.65
L 113.8 123.65 114.35 123.45
Q 114.55 123.35 114.55 122.75
L 114.05 120.5
Q 113.55 118.2 113.45 106.8
M 64.05 93.45
Q 67.9 86.25 67.9 80.8 67.9 77.75 65 75.6 62.6 73.8 60.35 73.8 56.95 73.8 51.3 78.1 44.05 83.6 44.05 90.95 44.05 97.95 48.55 103.7 52.1 108.3 54 108.3 56.2 108.3 59.7 102.1
L 64.05 93.45
M 85.4 85.25
Q 85.85 87.3 88.8 90.9 92.3 95.15 100.6 103.35
L 100.7 101.4
Q 100.7 96.7 94.8 90.65 89.25 84.95 85.65 84.6
L 85.4 85.25
M 117.3 86.05
L 116.25 86.6 117.1 92.05 117.15 93.55
Q 117.75 89.8 117.3 86.05 Z"/>
</g>
</defs>

<g transform="matrix( 1, 0, 0, 1, -62.75,-76.85) ">
<g transform="matrix( 1, 0, 0, 1, 0,0) ">
<g transform="matrix( 1, 0, 0, 1, 0,0) ">
<use xlink:href="#Graphics_Symbol_791_0_Layer0_0_FILL"/>
</g>
</g>

<g transform="matrix( 1, 0, 0, 1, 0,0) ">
<g transform="matrix( 1, 0, 0, 1, 0,0) ">
<use xlink:href="#Graphics_Symbol_837_0_Layer3_0_FILL"/>
</g>

<g transform="matrix( 1, 0, 0, 1, 0,0) ">
<use xlink:href="#Graphics_Symbol_837_0_Layer2_0_FILL"/>
</g>

<g transform="matrix( 1, 0, 0, 1, 0,0) ">
<use xlink:href="#Graphics_Symbol_837_0_Layer1_0_FILL"/>
</g>

<g transform="matrix( 1, 0, 0, 1, 0,0) ">
<use xlink:href="#Graphics_Symbol_837_0_Layer0_0_FILL"/>
</g>
</g>

<g id="hat1" transform="matrix( 0.983917236328125, -0.17529296875, 0.17529296875, 0.983917236328125, 45.2,78.25) ">
<g id="colorMC" transform="matrix( 0.9999847412109375, 0, 0, 0.9999847412109375, 0,0) "/>

<g id="colorMC2" transform="matrix( 1, 0, 0, 1, 0,0) "/>
</g>

<g id="hat2" transform="matrix( 0.9733734130859375, -0.2247314453125, 0.2247314453125, 0.9733734130859375, 38,60.6) ">
<g id="colorMC_FL" transform="matrix( 0.9999847412109375, 0, 0, 0.9999847412109375, 0,0) "/>

<g id="colorMC2_FL" transform="matrix( 1, 0, 0, 1, 0,0) "/>
</g>

<g id="hat3" transform="matrix( 0.96026611328125, -0.2753753662109375, 0.2753753662109375, 0.96026611328125, 26,48.4) ">
<g id="colorMC_FL_FL" transform="matrix( 0.9999847412109375, 0, 0, 0.9999847412109375, 0,0) "/>

<g id="colorMC2_FL_FL" transform="matrix( 1, 0, 0, 1, 0,0) "/>
</g>

<g id="hat4" transform="matrix( 0.944580078125, -0.3252410888671875, 0.3252410888671875, 0.944580078125, 18.85,34.5) ">
<g id="colorMC_FL_FL_FL" transform="matrix( 0.9999847412109375, 0, 0, 0.9999847412109375, 0,0) "/>

<g id="colorMC2_FL_FL_FL" transform="matrix( 1, 0, 0, 1, 0,0) "/>
</g>
</g>
</svg>
