
<svg xmlns="http://www.w3.org/2000/svg" version="1.1" xmlns:xlink="http://www.w3.org/1999/xlink" preserveAspectRatio="none" x="0px" y="0px" width="550px" height="400px" viewBox="0 0 550 400">
<defs>
<filter id="Filter_1" x="-20%" y="-20%" width="140%" height="140%" color-interpolation-filters="sRGB">
<feColorMatrix in="SourceGraphic" type="matrix" values="1 0 0 0 0 0 1 0 0 0 0 0 1 0 0 0 0 0 0.19 0" result="result1"/>
</filter>

<filter id="Filter_2" x="-20%" y="-20%" width="140%" height="140%" color-interpolation-filters="sRGB">
<feColorMatrix in="SourceGraphic" type="matrix" values="1 0 0 0 0 0 1 0 0 0 0 0 1 0 0 0 0 0 0.72 0" result="result1"/>
</filter>

<filter id="Filter_3" x="-20%" y="-20%" width="140%" height="140%" color-interpolation-filters="sRGB">
<feColorMatrix in="SourceGraphic" type="matrix" values="1 0 0 0 0 0 1 0 0 0 0 0 1 0 0 0 0 0 0.31 0" result="result1"/>
</filter>

<g id="Parts_Heads_headsMC_48_Layer12_0_FILL">
<path fill="#E2B8E8" stroke="none" d="
M 16.5 86.1
Q 16.65 86.65 17.1 87.15 19.25 89.45 22.4 90.05 25.4 90.55 27.75 88.65 28.9 87.65 29.3 86.3 29.6 85.35 29.5 84.4
L 29.55 84.4 29.75 84.3
Q 29.85 84.25 30 84.05
L 30.05 82.8 29.9 82.3
Q 29.8 81.8 29.5 81.4
L 29.25 81.1
Q 29.1 80.8 28.85 80.75
L 28.75 80.7
Q 28.6 80.65 28.4 80.7
L 28.25 80.75 28.05 80.9 27.9 81.15
Q 26.75 80.3 25.4 80.1 23.95 79.85 22.2 79.85 17.15 80 14.6 79.95 13.65 79.95 13.8 81.45 13.95 82.7 14.45 83.45 15.15 84.55 16.3 85.9
L 16.3 85.85 16.5 86.1
M 74.3 48.1
Q 74.25 48.1 74.25 48.15 74.35 48.25 74.25 48.35 74.35 48.45 74.25 48.6
L 74.2 48.85 74.1 48.95 74.15 49 73.85 49.45 73.9 49.5
Q 73.8 49.55 73.8 49.8 73.75 50.05 73.65 50.1
L 73.7 50.15 73.55 50.35 73.6 50.4 72.95 51
Q 72.85 51.4 72.9 51.75 73.05 53.4 75.45 53 76.2 52.9 78.55 52.75 80.35 52.25 78.95 50.05 78.95 49.8 79.35 48.05 79.65 46.65 79.05 45.35 78.7 44 77.15 45.1 75.65 46.05 74.3 48.1 Z"/>

<path fill="#FFFFFF" stroke="none" d="
M 137.2 96.95
Q 136.75 97.05 137.1 98.35 137.5 101.3 136.9 104.15 136.6 103.35 136.4 103.4 135.45 103.85 133.55 104.55 132.85 103.05 131.35 102.25 129.8 101.45 128.2 101.75 126.65 102 124.7 102.65 119.35 102.2 106.3 101.85 99 101.6 97.5 101.65 92.5 101.8 88.9 102.8 81.55 104.95 76.3 110.5 70.05 117.25 70.15 123.15 70.2 125.45 71.05 127.75 71.95 130.4 73.5 131.85 74.35 133.45 75.25 134.55
L 76.35 135.7
Q 76.5 135.85 76.8 136.2 77.15 136.55 77.45 136.5 77.85 136.4 77.55 135.35
L 77.55 135.3
Q 78.05 135.3 78.7 134.75 79.15 134.45 79.8 133.8 80.4 133.3 81.55 132.9
L 83.5 132.25
Q 83.7 132.2 83.65 131.6
L 85.45 131.15
Q 90.05 130.2 94.15 129.7 103.1 128.8 111.65 129.25 117.1 129.45 120.2 129.15 124.95 128.85 128.55 127.4 132.4 125.8 135.3 122.9 138.15 119.95 139.6 116.05 141.15 111.95 140.55 106.95 140.1 102.4 138.05 98.1 137.95 97.8 137.75 97.35 137.45 96.85 137.2 96.95 Z"/>
</g>

<g id="Parts_Heads_headsMC_48_Layer8_0_FILL">
<path fill="#000000" stroke="none" d="
M 98.85 31.85
Q 98 28.25 97.8 27.8 96.55 24.55 92.8 22.05 89 19.45 78.95 15.05 85.55 -1.8 75.65 0.25 71.05 1.15 55.25 10.3 47.85 9.9 40 11.7 33.6 13.15 25.3 16.5 19.6 14 13.4 13.65 6.05 13.2 0.5 16.15 -0.95 19.85 2.25 27.75 5.85 36.6 5.65 40.2 1.95 48.25 2.5 60.1 3 70.5 6.35 80.1 9.6 89.35 13.45 92.25 17.65 95.35 20.1 88.65 19.95 90.45 21.55 93.75 23.2 97.05 25.55 99.5 31.7 105.85 35 98.9 50.6 104.6 53.7 100.85 54.8 98.5 55.4 97.45 56.45 95.65 59.15 95.75 65.65 96.15 81.45 99.55 96.4 102.8 103.3 102.9 114.2 103.05 119.2 97.3 125.1 90.45 123.7 74.25 123.55 73.85 123.45 73.95 123.5 73.55 123.55 73.15 123.9 69.75 120.75 66.75 116.15 63.2 113.3 60.8 108 56.4 104.8 51.1 101.5 43.45 99.85 36.2 99.35 34.1 99 32.5 98.05 41.65 102 50.85 106.1 60.35 113.95 66.45 110.1 66.85 108.7 70.85 107.3 74.9 110.15 78.45 114.65 80.35 115.95 83 117.1 85.35 115.5 87.65 113.95 89.9 110.5 91.15 106.85 92.45 102.6 92.05 98.85 91.7 92.9 88 85.85 83.25 82.4 80.95 76.3 76.9 72.8 76 68.15 74.8 65.7 78.2 70.8 77.4 79.55 82.65 84.6 85.65 94.8 92.6 103.6 97.9 108.6 97.25 115.15 96.35 118.05 85.8 118.2 86.25 118.5 88.25 119.05 90.1 120.7 90.65 117.2 95.7 111.5 98.35 105.95 100.9 99.6 100.7 96.55 100.85 88.05 98.35 77.75 95.1 72.6 93.7 53.35 88.5 53.95 96.45 50.4 98.75 43.4 97.65 36.7 96.6 33.5 93.75 34 97.35 32.1 98.15 30.45 98.85 27.7 97.15 24.95 95.45 22.85 92.45 20.45 89.15 20.1 85.75 19.85 84.4 19.7 84.7 19.6 84.9 19.2 86.3 17.9 89.75 14.65 88.75 5.6 81.7 4.05 66.1 2.65 52.25 7.35 39.8 11.7 45.2 11.7 44.4 11.7 43.9 8.9 38.6 1 23.3 1 18.35 17.9 20.8 31.6 31 26.2 20.95 8.3 16.75 11.85 15.15 25.9 20.25 31 22.1 31.7 21.95 32.75 21.8 28.2 18.1 46.55 11.95 65.55 14.9 86.45 18.2 98.85 31.85
M 123.35 75.65
Q 123.55 80.1 123.5 81.6 123.2 90.25 118.1 84.05 122.45 78.2 123.35 74.4 123.3 74.85 123.35 75.65
M 71.7 4.9
Q 80.85 1.05 80.75 6.15 78.65 5.9 76.05 7.95 73.3 10.05 72.45 12.9 74.8 10.6 75.45 10.1 77.55 8.45 79.85 7.85 79 9.9 78.95 10.2 78.5 11.75 78.25 14.75 75.4 13.7 72.45 12.9 66.8 11.35 60.9 10.7 67.05 6.85 71.7 4.9 Z"/>
</g>

<g id="Parts_Heads_headsMC_48_Layer8_0_MEMBER_0_FILL">
<path fill="#000000" stroke="none" d="
M 93.95 42.85
Q 94.4 40.5 93.8 37.5 92.05 33.4 90.05 34.1 88.3 34.75 87.35 38.1 86.45 41.5 87.45 43.95 88.6 46.75 91.85 46 93.45 45.45 93.95 42.85 Z"/>
</g>

<g id="Parts_Heads_headsMC_48_Layer8_0_MEMBER_1_FILL">
<path fill="#000000" stroke="none" d="
M 55.75 41
Q 53.6 41.05 52.3 43.25 50.85 45.75 51.3 50.15 51.65 53.6 53.35 55.35 54.85 56.9 56.75 56.6 58.6 56.25 59.8 54.15 61.05 51.85 60.8 48.3 61 45 59.35 42.9 57.9 40.95 55.75 41 Z"/>
</g>

<g id="Parts_Heads_headsMC_48_Layer8_0_MEMBER_2_FILL">
<path fill="#000000" stroke="none" d="
M 6.85 27.85
Q 7.5 28.65 10 33.85 12.5 38.65 14.05 38.75 17.3 39.1 20.65 36.5 24.25 33.75 24.1 30 23.55 28.8 20.3 26.95 17 25.1 13.6 24.1 4.45 21.4 6.85 27.85
M 8.65 30.05
Q 6.05 26.05 9.1 25.6 12.75 25.1 23.1 31.45
L 22.5 32.05
Q 20.1 36.9 15.3 35.35 11.25 34.05 8.65 30.05 Z"/>
</g>

<g id="Parts_Sets_Dog_dogHead_Assets_Layer_1__Path__5_0_Layer0_0_FILL">
<path fill="#000000" stroke="none" d="
M 117.6 64.5
Q 117.4 64.35 117.3 64.8 117.25 65.05 117.25 65.3 117.2 65.9 117.35 66.75
L 117.35 66.8 117.4 66.95 117.4 66.9 117.55 67.35 117.65 67.5 117.2 68.3
Q 117.1 68.2 116.95 68.4
L 115.25 71
Q 114.5 72.3 114.55 73.7
L 114.25 74.35
Q 114 74.8 114.1 75.35 111.9 76.75 107.9 77.25 104.95 77.65 102.25 77.5 93.8 76.85 85.5 74.25 75.8 71.55 69.25 70.3 60.55 68.7 52.75 68.7 44.05 68.1 39.25 67.3 31.85 66.05 26.35 63.45 20.3 60.65 15.95 55.6 11.55 50.55 9.6 44.15 8.55 40.4 8.7 36.55 9.25 32.05 10.15 28.3
L 10.4 27.45
Q 10.5 27.05 10.5 26.25
L 11 27.05
Q 11.25 27.55 11.5 25.9 11.65 25.45 11.75 24.5 11.9 22.95 11.3 21.5 7.25 14.55 3.8 7 3.8 6.2 3.55 5.65
L 1 0.3
Q 0.75 -0.2 0.4 0.25 0.15 0.6 0.1 1 -0.15 2.75 0.3 4.25 3.4 12.65 7.45 20.65 7.6 21.7 8.35 22.7
L 8.75 23.35 8.45 23.25 6.55 22.3
Q 6.3 22.25 6 22.85 5.65 23.45 5.6 24.2 4.35 25.8 3.7 29.75 3.35 31.85 3.05 34.8 1.55 46.6 3.85 53.95 3.9 54.2 3.95 54.9 3.95 55.55 4.05 55.8 4.15 57.7 5.15 59.85 5.55 60.65 7.25 63.6 7.8 64.65 8.85 65.95
L 8.95 66.4
Q 9.55 68.4 10.85 69.9
L 11.55 71.5
Q 12.05 72.35 12.7 72.85 13.6 73.5 14.35 73.1 14.65 73 14.75 72.2 15.45 72.35 16.05 72.3
L 16.2 72.4 16.4 72.3 16.5 72.3
Q 16.65 72.25 16.75 72 16.85 71.7 16.85 71.65
L 16.95 70.75
Q 18.3 71.7 20.55 72.95 20.75 73.8 21.45 75.4 21.9 76.3 23 77.9 23.95 79.15 24.8 79.9
L 25.85 80.75
Q 26.3 81.15 27.05 81.55
L 27.2 81.45 27.3 81.35 27.35 81.2 27.8 81.45
Q 29.3 82.45 30.85 81.65
L 31.4 81.15 31.6 81.1
Q 32.4 80.95 32.75 80.2 33.1 79.05 32.95 77.75
L 32.85 77 32.95 77.05 33.15 77.95 32.95 77.4 33.05 77.85 33.15 78 33.2 78.1 33.15 78.05 33.25 78.25
Q 33.75 79 33.9 79.15 34.4 79.7 35.4 80.5 36.8 81.55 38.65 82.2 40.5 82.85 42.1 83.05 43.35 83.15 44 83.05 44.5 82.95 44.85 82.75 45.25 82.45 45.45 82 46.75 82 47.85 81.65
L 47.9 81.7
Q 48.9 82 49.85 82 50.45 82 50.75 81.95 51.25 81.85 51.6 81.6 53.65 80.7 54.3 78.4
L 54.3 78.3
Q 58.5 78.4 60.6 78.55 65.35 78.85 73.35 80.75 82.5 82.95 86.1 83.4 99.2 85 102.9 84.85 112.05 84.5 117.6 79.05 118.05 78.9 118.2 77.9 118.35 77.15 119.1 77.4 119.65 77.6 121 74.45 122.45 71.25 121.35 70.25 121.85 70.15 122.15 69.8 122.6 69.2 122.65 68.55 122.75 68.05 122.75 67.05 122.8 66.65 122.7 65.65
L 122.35 64.6 122.25 64.55 122.05 64.6
Q 121.85 64.6 121.85 65.3
L 121.4 65.75
Q 120.25 66.35 119.1 65.7 118.7 65.5 118.3 65.1
L 117.95 64.75 117.6 64.5 Z"/>
</g>

<g id="Parts_Sets_Dog_dogHead_Assets_Layer_1__Path__4_0_Layer0_0_FILL">
<path fill="#000000" stroke="none" d="
M 45.6 9.9
Q 45.8 8.5 45.5 7
L 45.2 6.55 45.1 6.7
Q 45 7 45 6.55 45.1 6.2 44.9 6.4 44.8 6.4 44.4 7.2 44.05 8.1 43.95 8.2 43.35 9.2 42.5 9.95 38.8 13.55 32.95 13.35 28.1 13.2 22.9 10.55 20.7 9.45 17.3 7.25 13.15 4.6 11.8 3.8 9.05 2.15 6.2 1.1 4.1 0.3 3.2 0.15 1.35 -0.2 0.2 0.5 0 0.6 0 1.25 0 1.9 0.2 2.05 1.05 2.75 2.55 3.25 3.4 3.55 5.1 4.1 7.95 5.25 10.45 6.8 12.25 7.9 15.25 10.05 18.6 12.4 20.05 13.35 32.25 21.3 40.3 16.75 45.05 14 45.6 9.9 Z"/>
</g>

<g id="Parts_Sets_Dog_dogHead_Assets_Layer_1__Path__3_0_Layer0_0_FILL">
<path fill="#000000" stroke="none" d="
M 13.8 10.15
Q 14.5 9.7 14.45 9.45 14.45 8.05 14 7.8 13.5 7.55 13 7.55 12.7 7.6 12.05 7.6 11.1 7.65 9.95 7.5 7.8 7.1 6.05 6.1 4.4 5.1 3.3 3.95 2.2 2.65 1.35 1 1 0.35 0.85 1.5
L 0.8 2.1 0.65 0.8
Q 0.45 -0.2 0.25 0.05 0.1 0.3 0.1 0.5 0 0.85 0 1.6
L 0.15 3.2
Q 0.15 3.55 0.35 4.25 0.35 4.55 0.5 4.75 0.5 5 0.65 4.85 0.8 4.65 0.8 4.35
L 0.8 3.35 0.95 3.95
Q 2.2 8.15 5.9 10.55 7.85 11.7 9.85 12.05 10.2 12.1 10.65 11.7 11.1 11.3 11.45 11.3
L 12.2 11.25
Q 12.3 11.2 12.8 10.8 12.9 10.7 13.8 10.15 Z"/>
</g>

<g id="Parts_Sets_Dog_dogHead_Assets_Layer_1__Path__2_0_Layer0_0_FILL">
<path fill="#000000" stroke="none" d="
M 20.35 1.15
L 20.25 1.05
Q 20.1 0.7 19.8 0.45 19.35 0.05 18.85 0 18.35 -0.05 17.85 0.1
L 17.3 0.45
Q 16.95 0.8 16.9 1.2 15.6 1.35 14.4 1.65 9.35 2.75 4.7 5.2 4.4 5.35 4.25 6.2
L 0.5 5.8
Q 0 5.75 0 8.25 -0.05 10.7 0.65 10.8
L 15.25 13.05
Q 16.75 13.25 17.1 13.2 18.15 13.15 18.75 12.55 19.9 11.1 20.05 9.35 20.55 7.25 20.3 4.75 20.446875 4.7009765625 20.45 4.55
L 20.45 4.65
Q 20.5 4.7 20.65 4.9
L 20.7 4.9
Q 20.8 4.9 20.9 4.7
L 21 4.15
Q 21.1 3.15 20.95 2.4
L 20.75 1.65
Q 20.55 1.25 20.35 1.15 Z"/>
</g>

<g id="Parts_Sets_Dog_dogHead_Assets_Layer_1__Path__1_0_Layer0_0_FILL">
<path fill="#000000" stroke="none" d="
M 83.35 48.65
L 83.25 49 83.1 49.9 83.15 50.25
Q 77.05 42.4 73.5 33.05 72.1 29.2 71.3 25.35
L 71.4 24.85 71.4 24.75 71.45 24.4 71.45 24.5
Q 71.5 24.35 71.5 24.1
L 71.5 23.6 71.45 23.45 71.4 22.55 71.35 22.35 71.35 22.25
Q 71.45 21.65 71.35 21.05
L 71.35 20.8 71.15 19.9 70.15 18.1
Q 69.9 17.15 69.4 16 69.15 15.6 69.15 16.2
L 69.05 16.4 69 16.75 68.65 16.35
Q 67.85 14.65 66.6 13.1 64.05 10.05 58.3 7.3 53.2 4.85 47.9 3.3 37.2 0.1 25.85 0 19.35 0 13.2 1.1 10.2 1.6 7.15 2.45
L 4.25 3.4 3.55 3.75 3.1 3.7 1.05 3.7 0.35 3.8
Q 0.1 3.9 0.1 4.3 0 4.75 0 5.55 0 6.2 0.15 6.8 0.3 7.25 0.45 7.3
L 1.1 7.4
Q 1.2 8.25 1.5 8.35 2.85 8.8 3.95 8.5 4.15 8.45 6.85 7.75 10.45 6.85 12.3 6.5 17.85 5.4 23.15 5.2 40.05 4.15 55.5 10.8 60.65 12.8 64.9 16.25 68.25 19.3 69.75 25.35 70.2 27.15 71 30.65 71.75 33.8 72.45 35.9 76.7 48.75 84.35 56.95 84.85 57.5 85 55.2
L 85 54.1 86.05 55.25
Q 86.4 55.6 86.5 55.55 86.75 55.35 86.75 54.6 86.85 53.8 86.7 53.2
L 86.7 53.15 86.65 52.95 86.65 53 86.4 52.3 83.95 49 83.7 48.75 83.45 48.6 83.35 48.65 Z"/>
</g>

<g id="Parts_Sets_Dog_dogHead_Assets_Layer_1__Path__1_0_0_Layer0_0_FILL">
<path fill="#FFFFFF" stroke="none" d="
M 0.35 0
Q 0.15 0.15 0.05 0.4 -0.35 2.05 1.05 3.05 1.7 3.7 2 4.25
L 2.3 4.95 2.35 5.1 2.35 5.15 2.4 5.4 2.45 5.35 2.5 6.45
Q 2.5 7.25 2.7 7.2 2.9 7.3 2.9 7.05
L 3 6.65 3.1 5.6
Q 3.1 4.75 2.95 3.9 2.7 1.5 0.75 0.15 0.6 0 0.35 0 Z"/>
</g>

<g id="Parts_Sets_Dog_dogHead_Assets_Layer_1__Path__0_Layer0_0_FILL">
<path fill="#FFFFFF" stroke="none" d="
M 0.15 1.9
Q 0.4 2.6 1.05 3.05 1.55 3.5 2 4.2
L 2.4 5.1 2.4 5.15 2.45 5.4 2.45 5.5
Q 2.55 5.75 2.45 5.95
L 2.5 6.45
Q 2.6 7.2 2.7 7.15 2.9 7.25 2.95 7.05
L 3 6.85 3 6.65
Q 3.1 6.3 3.1 5.55 3.1 4.4 3 3.85 2.75 1.55 0.75 0.1 0.65 0 0.35 0 0.1 0.1 0.1 0.4 -0.1 1.15 0.15 1.9 Z"/>
</g>

<g id="Parts_Sets_Dog_dogHead_Assets_Layer_1__Path__0_0_Layer0_0_FILL">
<path fill="#FFFFFF" stroke="none" d="
M 10.85 6.5
Q 11 6.35 11 5.5 11.05 5.1 10.85 4.3 10.55 3.55 9.7 3 9.55 2.9 8.15 2.1 6.5 1.3 5 0.85 3.1 0.35 1.75 0.15 1.25 0.05 0.95 0.05 0.45 0 0.25 0.3 -0.15 1 0.1 1.7 0.2 2.2 0.55 2.5 0.95 2.7 1.25 2.7
L 2.7 3.1
Q 3.85 3.4 5.5 4.1 7.3 4.9 8.15 5.4
L 9.45 6.15
Q 10.05 6.55 10.65 6.7
L 10.85 6.5 Z"/>
</g>

<g id="Parts_Heads_headColorMC_48_Layer1_0_FILL">
<path fill="#7C7C7C" stroke="none" d="
M 120.7 86.1
Q 114.35 81.7 111.6 78.15 108.7 74.25 106.25 68.9 104.85 65.9 104.3 64.8 103.45 63 102.8 62.3 98.15 56.95 77.7 54.25 78.55 54.3 78.75 53.7 78.95 52.6 79.2 51.65 79.45 50.75 79.2 48.85 79 46.8 79.15 45.75 79.5 43.45 79.4 42.25 79.25 40.85 78.35 40.2 77.05 39.35 74.95 39.65 72.6 39.95 72.3 41.65 71.75 44.7 53.6 54.5 33.5 65.3 29.8 69.4 23.8 67.95 18.15 68.35 10.6 68.85 9.2 73
L 7.15 72.5
Q 4.95 73.8 5.3 76.15 5.65 78.45 8.45 82.35 9.5 83.75 12.05 87.45 14.7 91.1 17.3 94 14.65 97.7 16.1 106.95 17.5 115.7 21.65 124.6 26.1 133.95 31.2 137.95 37.05 142.55 41.85 138.2 47.85 143.85 50.95 145.45 53.5 146.75 55.2 145.75 57.15 144.1 58.5 143.3 60.95 141.85 64.65 142.4 69.45 143.1 72.8 141.45 74.95 140.4 77.5 137.45 80.35 134.1 81.55 133.25 84.15 131.4 87.7 131.65 112.85 133.7 125.95 129.7 146.7 123.4 139.85 102.9 138.95 99.65 138.8 99.2 137.85 96.7 136.35 95.8 125.35 89.3 120.7 86.1 Z"/>
</g>

<g id="Parts_Heads_headColorMC2_48_Layer3_0_FILL">
<path fill="#FFFFFF" stroke="none" d="
M 138.05 97.9
Q 137.9 97.6 137.55 97.2 137.15 96.7 136.9 96.75 136.45 96.85 136.8 98.15 137.2 101.1 136.6 103.95 136.3 103.15 136.1 103.2 135.15 103.65 133.25 104.35 132.55 102.85 131.05 102.05 129.5 101.25 127.9 101.55 126.35 101.8 124.4 102.45 119.05 102 106 101.65 98.7 101.4 97.2 101.45 92.2 101.6 88.6 102.6 81.25 104.75 76 110.3 69.75 117.05 69.85 122.95 69.9 125.25 70.75 127.55 71.65 130.2 73.2 131.65 74.05 133.25 74.95 134.35
L 76.05 135.5
Q 76.2 135.65 76.5 136 76.85 136.35 77.15 136.3 77.55 136.2 77.25 135.15
L 77.25 135.1
Q 77.75 135.1 78.4 134.55 78.85 134.25 79.5 133.6 80.1 133.1 81.25 132.7
L 83.2 132.05
Q 83.4 132 83.35 131.5
L 85.15 130.95
Q 86.8 130.6 89.5 130.55 92.75 130.45 93.85 130.3 97.6 129.9 102.7 130.1 102.8 130.1 111.55 130.65 120.4 130.95 128.25 127.2 137.1 123 139.7 115.85 141.2 111.75 140.6 106.75 140.1 102.3 138.05 97.9 Z"/>
</g>
</defs>

<g transform="matrix( 1, 0, 0, 1, -62.75,-76.85) ">
<g transform="matrix( 1, 0, 0, 1, 0,0) ">
<use xlink:href="#Parts_Heads_headsMC_48_Layer12_0_FILL"/>
</g>

<g transform="matrix( 0.9659271240234375, -0.2587890625, 0.2587890625, 0.9659271240234375, -0.25,58.1) ">
<use xlink:href="#Parts_Heads_headsMC_48_Layer8_0_FILL"/>
</g>

<g transform="matrix( 0.96575927734375, -0.25872802734375, 0.25872802734375, 0.96575927734375, -0.25,58.1) ">
<use xlink:href="#Parts_Heads_headsMC_48_Layer8_0_MEMBER_0_FILL"/>
</g>

<g transform="matrix( 0.96575927734375, -0.25872802734375, 0.25872802734375, 0.96575927734375, -0.25,58.1) ">
<use xlink:href="#Parts_Heads_headsMC_48_Layer8_0_MEMBER_1_FILL"/>
</g>

<g transform="matrix( 0.96575927734375, -0.25872802734375, 0.25872802734375, 0.96575927734375, -0.25,58.1) ">
<use xlink:href="#Parts_Heads_headsMC_48_Layer8_0_MEMBER_2_FILL"/>
</g>

<g transform="matrix( 0.96575927734375, -0.25872802734375, 0.25872802734375, 0.96575927734375, 4.5,74.4) ">
<g transform="matrix( 1, 0, 0, 1, 0,0) ">
<use filter="url(#Filter_1)" xlink:href="#Parts_Sets_Dog_dogHead_Assets_Layer_1__Path__5_0_Layer0_0_FILL"/>
</g>
</g>

<g transform="matrix( 0.96575927734375, -0.25872802734375, 0.25872802734375, 0.96575927734375, 87.5,112.85) ">
<g transform="matrix( 1, 0, 0, 1, 0,0) ">
<use filter="url(#Filter_1)" xlink:href="#Parts_Sets_Dog_dogHead_Assets_Layer_1__Path__4_0_Layer0_0_FILL"/>
</g>
</g>

<g transform="matrix( 0.96575927734375, -0.25872802734375, 0.25872802734375, 0.96575927734375, 13.15,80.35) ">
<g transform="matrix( 1, 0, 0, 1, 0,0) ">
<use filter="url(#Filter_1)" xlink:href="#Parts_Sets_Dog_dogHead_Assets_Layer_1__Path__3_0_Layer0_0_FILL"/>
</g>
</g>

<g transform="matrix( 0.96575927734375, -0.25872802734375, 0.25872802734375, 0.96575927734375, 57.5,44.25) ">
<g transform="matrix( 1, 0, 0, 1, 0,0) ">
<use filter="url(#Filter_1)" xlink:href="#Parts_Sets_Dog_dogHead_Assets_Layer_1__Path__2_0_Layer0_0_FILL"/>
</g>
</g>

<g transform="matrix( 0.96575927734375, -0.25872802734375, 0.25872802734375, 0.96575927734375, 29.35,62.95) ">
<g transform="matrix( 1, 0, 0, 1, 0,0) ">
<use filter="url(#Filter_1)" xlink:href="#Parts_Sets_Dog_dogHead_Assets_Layer_1__Path__1_0_Layer0_0_FILL"/>
</g>
</g>

<g transform="matrix( 0.9655914306640625, -0.258697509765625, 0.258697509765625, 0.9655914306640625, 67.6,88.25) "/>

<g transform="matrix( 0.9655914306640625, -0.258697509765625, 0.258697509765625, 0.9655914306640625, 64.05,84.9) "/>

<g transform="matrix( 0.9655914306640625, -0.258697509765625, 0.258697509765625, 0.9655914306640625, 63.95,83.65) ">
<g transform="matrix( 1, 0, 0, 1, 0,0) ">
<use filter="url(#Filter_2)" xlink:href="#Parts_Sets_Dog_dogHead_Assets_Layer_1__Path__1_0_0_Layer0_0_FILL"/>
</g>
</g>

<g transform="matrix( 0.9655914306640625, -0.258697509765625, 0.258697509765625, 0.9655914306640625, 94.95,68.05) ">
<g transform="matrix( 1, 0, 0, 1, 0,0) ">
<use filter="url(#Filter_2)" xlink:href="#Parts_Sets_Dog_dogHead_Assets_Layer_1__Path__0_Layer0_0_FILL"/>
</g>
</g>

<g transform="matrix( 0.96575927734375, -0.25872802734375, 0.25872802734375, 0.96575927734375, 15.45,80.25) ">
<g transform="matrix( 1, 0, 0, 1, 0,0) ">
<use filter="url(#Filter_3)" xlink:href="#Parts_Sets_Dog_dogHead_Assets_Layer_1__Path__0_0_Layer0_0_FILL"/>
</g>
</g>

<g id="hat1" transform="matrix( 0.983917236328125, -0.17529296875, 0.17529296875, 0.983917236328125, 45.2,78.25) ">
<g id="colorMC" transform="matrix( 0.9999847412109375, 0, 0, 0.9999847412109375, 0,0) "/>

<g id="colorMC2" transform="matrix( 1, 0, 0, 1, 0,0) "/>
</g>

<g id="hat2" transform="matrix( 0.9733734130859375, -0.2247314453125, 0.2247314453125, 0.9733734130859375, 38,60.6) ">
<g id="colorMC_FL" transform="matrix( 0.9999847412109375, 0, 0, 0.9999847412109375, 0,0) "/>

<g id="colorMC2_FL" transform="matrix( 1, 0, 0, 1, 0,0) "/>
</g>

<g id="hat3" transform="matrix( 0.96026611328125, -0.2753753662109375, 0.2753753662109375, 0.96026611328125, 26,48.4) ">
<g id="colorMC_FL_FL" transform="matrix( 0.9999847412109375, 0, 0, 0.9999847412109375, 0,0) "/>

<g id="colorMC2_FL_FL" transform="matrix( 1, 0, 0, 1, 0,0) "/>
</g>

<g id="hat4" transform="matrix( 0.944580078125, -0.3252410888671875, 0.3252410888671875, 0.944580078125, 18.85,34.5) ">
<g id="colorMC_FL_FL_FL" transform="matrix( 0.9999847412109375, 0, 0, 0.9999847412109375, 0,0) "/>

<g id="colorMC2_FL_FL_FL" transform="matrix( 1, 0, 0, 1, 0,0) "/>
</g>
</g>

<g transform="matrix( 1, 0, 0, 1, -75.4,-101.9) ">
<g transform="matrix( 1, 0, 0, 1, 0,0) ">
<use xlink:href="#Parts_Heads_headColorMC_48_Layer1_0_FILL"/>
</g>
</g>

<g transform="matrix( 1, 0, 0, 1, -62.75,-76.85) ">
<g transform="matrix( 1, 0, 0, 1, 0,0) ">
<use xlink:href="#Parts_Heads_headColorMC2_48_Layer3_0_FILL"/>
</g>
</g>
</svg>
