
<svg xmlns="http://www.w3.org/2000/svg" version="1.1" xmlns:xlink="http://www.w3.org/1999/xlink" preserveAspectRatio="none" x="0px" y="0px" width="550px" height="400px" viewBox="0 0 550 400">
<defs>
<g id="Parts_Heads_headColorMC_48_Layer1_0_FILL">
<path fill="#7C7C7C" stroke="none" d="
M 120.7 86.1
Q 114.35 81.7 111.6 78.15 108.7 74.25 106.25 68.9 104.85 65.9 104.3 64.8 103.45 63 102.8 62.3 98.15 56.95 77.7 54.25 78.55 54.3 78.75 53.7 78.95 52.6 79.2 51.65 79.45 50.75 79.2 48.85 79 46.8 79.15 45.75 79.5 43.45 79.4 42.25 79.25 40.85 78.35 40.2 77.05 39.35 74.95 39.65 72.6 39.95 72.3 41.65 71.75 44.7 53.6 54.5 33.5 65.3 29.8 69.4 23.8 67.95 18.15 68.35 10.6 68.85 9.2 73
L 7.15 72.5
Q 4.95 73.8 5.3 76.15 5.65 78.45 8.45 82.35 9.5 83.75 12.05 87.45 14.7 91.1 17.3 94 14.65 97.7 16.1 106.95 17.5 115.7 21.65 124.6 26.1 133.95 31.2 137.95 37.05 142.55 41.85 138.2 47.85 143.85 50.95 145.45 53.5 146.75 55.2 145.75 57.15 144.1 58.5 143.3 60.95 141.85 64.65 142.4 69.45 143.1 72.8 141.45 74.95 140.4 77.5 137.45 80.35 134.1 81.55 133.25 84.15 131.4 87.7 131.65 112.85 133.7 125.95 129.7 146.7 123.4 139.85 102.9 138.95 99.65 138.8 99.2 137.85 96.7 136.35 95.8 125.35 89.3 120.7 86.1 Z"/>
</g>
</defs>

<g transform="matrix( 1, 0, 0, 1, -75.4,-101.9) ">
<g transform="matrix( 1, 0, 0, 1, 0,0) ">
<use xlink:href="#Parts_Heads_headColorMC_48_Layer1_0_FILL"/>
</g>
</g>
</svg>
