
<svg xmlns="http://www.w3.org/2000/svg" version="1.1" xmlns:xlink="http://www.w3.org/1999/xlink" preserveAspectRatio="none" x="0px" y="0px" width="550px" height="400px" viewBox="0 0 550 400">
<defs>
<g id="Parts_Heads_headColorMC2_48_Layer3_0_FILL">
<path fill="#FFFFFF" stroke="none" d="
M 138.05 97.9
Q 137.9 97.6 137.55 97.2 137.15 96.7 136.9 96.75 136.45 96.85 136.8 98.15 137.2 101.1 136.6 103.95 136.3 103.15 136.1 103.2 135.15 103.65 133.25 104.35 132.55 102.85 131.05 102.05 129.5 101.25 127.9 101.55 126.35 101.8 124.4 102.45 119.05 102 106 101.65 98.7 101.4 97.2 101.45 92.2 101.6 88.6 102.6 81.25 104.75 76 110.3 69.75 117.05 69.85 122.95 69.9 125.25 70.75 127.55 71.65 130.2 73.2 131.65 74.05 133.25 74.95 134.35
L 76.05 135.5
Q 76.2 135.65 76.5 136 76.85 136.35 77.15 136.3 77.55 136.2 77.25 135.15
L 77.25 135.1
Q 77.75 135.1 78.4 134.55 78.85 134.25 79.5 133.6 80.1 133.1 81.25 132.7
L 83.2 132.05
Q 83.4 132 83.35 131.5
L 85.15 130.95
Q 86.8 130.6 89.5 130.55 92.75 130.45 93.85 130.3 97.6 129.9 102.7 130.1 102.8 130.1 111.55 130.65 120.4 130.95 128.25 127.2 137.1 123 139.7 115.85 141.2 111.75 140.6 106.75 140.1 102.3 138.05 97.9 Z"/>
</g>
</defs>

<g transform="matrix( 1, 0, 0, 1, -62.75,-76.85) ">
<g transform="matrix( 1, 0, 0, 1, 0,0) ">
<use xlink:href="#Parts_Heads_headColorMC2_48_Layer3_0_FILL"/>
</g>
</g>
</svg>
