
<svg xmlns="http://www.w3.org/2000/svg" version="1.1" xmlns:xlink="http://www.w3.org/1999/xlink" preserveAspectRatio="none" x="0px" y="0px" width="550px" height="400px" viewBox="0 0 550 400">
<defs>
<g id="Layer0_0_FILL">
<path fill="#000000" stroke="none" d="
M 51.65 -53
Q 51.8 -54.2 47.95 -57 25.95 -73.5 -0.2 -71.1 -33 -68.3 -58.45 -34.2 -73.1 -14.6 -66.6 17.15 -63.85 30.75 -57.45 42.4 -51.05 54.15 -42.8 60.2 -25.3 73.3 -14.55 75.2 -7.5 76.4 -4.7 72.6 -4.3 72 -6.3 66.15
L -11.15 52.4
Q -18.45 30.2 -17.6 17
L -17.25 13.2
Q -13.7 15.4 -10.1 16.9 -1.9 20.45 4.3 19.25 4.4 17.65 1.4 14
L -4.85 6.65
Q -10.65 -0.85 -11.2 -6.45 -7.7 -13.95 -2.25 -21.25 7.45 -34.25 24.75 -42.2 35.1 -47 50.5 -50.7 50.6 -52 51.65 -53
M 44.4 -53.2
L 44.5 -53.05
Q 30.6 -55 16.15 -44.95 5.05 -37.25 -5.15 -23.5 -11.75 -14.7 -15.9 -6.25 -14.6 -5.05 -13.3 -1.8
L -13.15 -2.15 -12.55 -0.85
Q -9.35 6.2 -2.1 14.25
L -2.9 14.05 -12.1 10.25 -14.9 9.85 -16.55 9.15 -20.9 6.55 -21 7.6 -21.3 7.75 -22.2 9.25 -21.7 10 -22.05 12
Q -26.8 37.4 -11.65 69.7
L -10.55 71.6
Q -15.4 70.3 -20.4 68.3 -30.3 64.5 -37.6 59.05 -63.7 39.6 -63.6 4.25 -63.45 -7.75 -60.35 -19.55 -57.85 -28.85 -55.7 -31.75 -39.2 -53.95 -17.3 -62.45 11.35 -73.8 39.15 -55.7
L 44.4 -53.2 Z"/>
</g>
</defs>

<g transform="matrix( 1, 0, 0, 1, 0,0) ">
<use xlink:href="#Layer0_0_FILL"/>
</g>
</svg>
