
<svg xmlns="http://www.w3.org/2000/svg" version="1.1" xmlns:xlink="http://www.w3.org/1999/xlink" preserveAspectRatio="none" x="0px" y="0px" width="550px" height="400px" viewBox="0 0 550 400">
<defs>
<g id="MovieClips_Symbol_585_38_Layer0_0_FILL">
<path fill="#D2FFFF" stroke="none" d="
M 102.85 45.9
Q 104.8 43.8 106.5 42.85 106.55 42.05 105.85 41.15 105.25 40.15 105.3 39.35 105.8 34.5 100.4 28.4 91.2 18 68.7 15.55 56.8 14.25 49.35 16
L 40.9 17.7
Q 13.7 14.75 0.55 39.3 -7.4 54.25 -9.7 78.8 -11.2 95.2 -2.1 106.9 6.4 117.65 25.85 126.35 53.95 124.55 71.75 115.9 90.85 106.4 95.75 89.85 99.1 84.05 106.25 73.5 110.9 66.55 114.5 59
L 101.9 60.35
Q 98.2 59.9 98.35 57.85 99.1 50.05 102.85 45.9
M 77.7 90.25
Q 72.05 94.15 64.9 93.4 57.7 92.6 53.05 87.65 48.3 82.6 48.85 76.4 49.45 70.1 55 66.2 60.5 62.3 67.75 63.1 74.9 63.85 79.65 68.9 84.25 73.9 83.65 80.2 83.1 86.4 77.7 90.25 Z"/>
</g>
</defs>

<g transform="matrix( 1, 0, 0, 1, -32.9,-71.25) ">
<g transform="matrix( 1, 0, 0, 1, 0,0) ">
<use xlink:href="#MovieClips_Symbol_585_38_Layer0_0_FILL"/>
</g>
</g>
</svg>
