
<svg xmlns="http://www.w3.org/2000/svg" version="1.1" xmlns:xlink="http://www.w3.org/1999/xlink" preserveAspectRatio="none" x="0px" y="0px" width="550px" height="400px" viewBox="0 0 550 400">
<defs>
<g id="Layer0_0_FILL">
<path fill="#FFFFFF" fill-opacity="0.5019607843137255" stroke="none" d="
M 33.8 86.8
Q 33.8 88.5 35 89.7 36.15 90.85 37.85 90.85 39.55 90.85 40.75 89.7 41.9 88.5 41.9 86.8 41.9 85.1 40.75 83.95 39.55 82.75 37.85 82.75 36.15 82.75 35 83.95 33.8 85.1 33.8 86.8
M 39.25 48.1
Q 37.8 47 35.75 47 33.7 47 32.25 48.1 30.8 49.2 30.8 50.75 30.8 52.3 32.25 53.4 33.7 54.5 35.75 54.5 37.8 54.5 39.25 53.4 40.7 52.3 40.7 50.75 40.7 49.2 39.25 48.1
M 31.85 13.5
Q 31.7 16.15 31.8 19.45
L 35.05 19.65
Q 37.1 19.65 38.3 18.45 39.55 17.25 39.55 15.2 39.55 13.6 27.35 8.5 14.95 3.35 10.35 3.35 9.9 3.35 5.95 12.6 1.7 22.65 1.7 26.9 1.7 28.85 2.2 29.15
L 2.95 29.4
Q 3.85 28.5 6.3 21.8 8.95 14.55 11.55 5.5
L 20.5 9.35
Q 28.85 12.85 31.85 13.5
M 29.8 17.5
L 29.6 16.35 29 15.35 13.7 27.95 14.25 28.55 15.35 29.3
Q 18.8 29.25 24.15 25.15 29.8 20.8 29.8 17.5
M 56.5 -0.3
L 56.1 -0.5
Q 54.5 -2.95 51.1 0.3
L 46.25 5.6
Q 40.4 10.5 38.8 12.4 38.8 13.45 39.65 13.8
L 52.9 4.3
Q 56.7 1.65 56.7 0.6
L 56.5 -0.3 Z"/>
</g>
</defs>

<g transform="matrix( 1, 0, 0, 1, 0,0) ">
<use xlink:href="#Layer0_0_FILL"/>
</g>
</svg>
