
<svg xmlns="http://www.w3.org/2000/svg" version="1.1" xmlns:xlink="http://www.w3.org/1999/xlink" preserveAspectRatio="none" x="0px" y="0px" width="550px" height="400px" viewBox="0 0 550 400">
<defs>
<g id="Layer0_0_FILL">
<path fill="#010101" stroke="none" d="
M 23.85 2.4
Q 24.15 1.7 23.65 0.75 22.1 -0.55 19.95 0.4 18.05 1.25 16.5 3.55 15.15 5.15 12.55 4.7 11.45 4.5 7.75 3.05 4.7 1.8 3.2 1.95 0.95 2.2 0 4.95 2.6 3.45 5.3 4.3 6.15 4.55 9.85 6.55 12.5 8 14.35 7.75 16.95 7.4 19.6 3.9 21.2 3 23 3.15 23.6 3 23.85 2.4 Z"/>
</g>
</defs>

<g transform="matrix( 1, 0, 0, 1, 0,0) ">
<use xlink:href="#Layer0_0_FILL"/>
</g>
</svg>
