
<svg xmlns="http://www.w3.org/2000/svg" version="1.1" xmlns:xlink="http://www.w3.org/1999/xlink" preserveAspectRatio="none" x="0px" y="0px" width="550px" height="400px" viewBox="0 0 550 400">
<defs>
<g id="Layer0_0_FILL">
<path fill="#000000" fill-opacity="0.25098039215686274" stroke="none" d="
M 61.7 48.9
Q 55.2 0 46 0 31.5 0 20.35 14.9 7.75 31.75 7.75 58.7 7.75 60.55 8.3 61.6
L 8.8 62.5 5.85 99.8
Q 5 110.65 3.15 123.3 2.25 127.85 1 129.15 0 130.15 0 130.85 0 132.1 0.15 132.2
L 29.2 133.45
Q 42.05 134.35 49.3 136.4 58.6 139.05 66.25 145.25
L 67 119.95
Q 67 88.5 61.7 48.9
M 24.15 41.65
Q 25.25 38.6 30.5 27.25 33.8 27.45 39.4 35.5 44.1 42.3 46.25 47.8 49.25 55.55 49.85 62.85 50.15 66.65 49.95 70 50.85 81.5 52.8 99.4 54.25 112.55 54.25 116.45 54.25 119.95 49.75 121.5 44.6 123.25 31.55 123.25
L 15.7 121.7
Q 20.25 118.4 22.25 116.05 24.95 112.95 25.85 109.1
L 29.55 92.7
Q 31 86 31 84.1 31 79.35 29 74 26.6 67.65 23.25 67.65 20.4 67.65 17.55 71.35
L 13.35 77.45
Q 19.9 53.05 24.15 41.65
M 13.3 79.9
L 16.2 75.7 16.1 76 13.3 79.9 Z"/>
</g>
</defs>

<g transform="matrix( 1, 0, 0, 1, 0,0) ">
<use xlink:href="#Layer0_0_FILL"/>
</g>
</svg>
