
<svg xmlns="http://www.w3.org/2000/svg" version="1.1" xmlns:xlink="http://www.w3.org/1999/xlink" preserveAspectRatio="none" x="0px" y="0px" width="550px" height="400px" viewBox="0 0 550 400">
<defs>
<g id="Graphics_Symbol_687_0_Layer2_0_FILL">
<path fill="#000000" stroke="none" d="
M 47.8 -50.35
Q 37.5 -70.45 17.45 -80.7
L -18.75 -90.8
Q -34.95 -75.65 -44.05 -55.4 -58.85 -22.3 -48.6 12.1 21.35 -1.35 91.1 -15.55 113.45 -19.95 104.85 -37.45 93.35 -39.65 82.15 -36.1 58.85 -28.9 47.8 -50.35
M 45.9 -47.9
Q 53.2 -35.1 58.1 -31.2
L 102.9 -35.9
Q 107.45 -22.45 92.9 -19.25 78.8 -16.25 64.5 -14.7 48.15 -12.95 32.15 -8.4 23 -50.5 -8.95 -79.35 -11.4 -81.55 -10.4 -84.75 -7.85 -89.25 15.35 -74.95 38.55 -60.7 45.9 -47.9
M -15.65 -82.8
L -12.55 -79.05
Q 18.05 -49.15 29.75 -7.75 18.6 -4.2 -1.5 -1.8 -5.75 -9.45 -6.6 -13.45 -7.5 -17.45 -14.7 -35.85 -21.9 -54.3 -15.65 -82.8
M -32.45 -66
Q -26.8 -74.65 -18.7 -81.15 -25.95 -64 -21.55 -45.25 -17.15 -26.7 -11.3 -8.6
L -8.95 -1.4
Q -25.6 6.2 -44 7.55 -55.05 -31.4 -32.45 -66 Z"/>
</g>

<g id="Graphics_Symbol_687_0_Layer1_0_FILL">
<path fill="#000000" fill-opacity="0.25098039215686274" stroke="none" d="
M 8.15 -63.3
Q 25.6 -50.25 37.1 -38.9 48.55 -27.55 62.65 -26 83.8 -23.75 103.95 -32.1
L 104.1 -35.75
Q 80.55 -36.5 57.6 -31.65 39.25 -68.2 9.1 -80.95 -21.05 -93.75 -32.75 -72.95 -44.5 -52.15 -49.95 -14.3 -53.15 -2.7 -49.7 8.45
L -48.75 11.7
Q -35.85 4.55 -38.8 -14.05 -39.95 -21.2 -39.1 -28.3 -36.65 -48.9 -22.95 -62.6 -9.3 -76.35 8.15 -63.3 Z"/>
</g>

<g id="Graphics_Symbol_687_0_Layer0_0_FILL">
<path fill="#FFFFFF" fill-opacity="0.25098039215686274" stroke="none" d="
M 13.15 -26.6
Q 19.4 -47.1 0.1 -57.55 -10.65 -63.4 -15.8 -49.75 -22.2 -33.1 -16.15 -16.4 4.85 0.85 13.15 -26.6 Z"/>
</g>

<g id="Graphics_Symbol_688_0_Layer1_0_FILL">
<path fill="#000000" stroke="none" d="
M 123.25 13.5
Q 130.9 6.15 135.9 3.3 108.55 -2.4 68.55 26.05 20.95 17.3 0 44.05 33.4 43.05 50.25 34.3 67.1 25.5 69.4 26.1 115.6 20.8 123.25 13.5 Z"/>
</g>

<g id="Graphics_Symbol_688_0_Layer0_0_FILL">
<path fill="#FFFFFF" stroke="none" d="
M 42.75 33.1
Q 48.8 31.5 51.25 29.75 48.95 25.45 40.6 27.55 31.15 30.95 28 31.75
L 20 33.8
Q 15.3 35.1 11.8 36.6
L 12.55 37.5 13.55 38
Q 12.2 38.4 11.85 39.15 11.65 39.55 11.75 39.85 11.75 40.65 12.1 40.95
L 13 41.25
Q 16.3 39.8 22.1 38.55
L 30.25 36.6
Q 32.9 35.7 42.75 33.1
M 121.1 8.35
Q 117.9 5.9 113.15 7.95 108.25 10.8 106.6 11.25
L 106.65 10
Q 106.5 9.35 105 9.35 104.5 9.35 93.1 14.35 81.35 19.5 81.35 20.4 81.35 21.2 81.65 21.4
L 82.5 21.6 93.1 17.85
Q 93.75 17.85 93.95 18.5 94.15 19.1 94.75 19.1 99.2 19.1 109.6 14.35 117.9 10.55 121.1 8.35 Z"/>
</g>
</defs>

<g transform="matrix( 1, 0, 0, 1, 0,0) ">
<g transform="matrix( 1, 0, 0, 1, 0,0) ">
<g transform="matrix( 1, 0, 0, 1, 0,0) ">
<use xlink:href="#Graphics_Symbol_687_0_Layer2_0_FILL"/>
</g>

<g transform="matrix( 1, 0, 0, 1, 0,0) ">
<use xlink:href="#Graphics_Symbol_687_0_Layer1_0_FILL"/>
</g>

<g transform="matrix( 1, 0, 0, 1, 0,0) ">
<use xlink:href="#Graphics_Symbol_687_0_Layer0_0_FILL"/>
</g>
</g>

<g transform="matrix( 1, 0, 0, 1, -84.15,-116.65) ">
<g transform="matrix( 1, 0, 0, 1, 0,0) ">
<g transform="matrix( 1, 0, 0, 1, 0,0) ">
<use xlink:href="#Graphics_Symbol_688_0_Layer1_0_FILL"/>
</g>

<g transform="matrix( 1, 0, 0, 1, 0,0) ">
<use xlink:href="#Graphics_Symbol_688_0_Layer0_0_FILL"/>
</g>
</g>
</g>
</g>
</svg>
