
<svg xmlns="http://www.w3.org/2000/svg" version="1.1" xmlns:xlink="http://www.w3.org/1999/xlink" preserveAspectRatio="none" x="0px" y="0px" width="550px" height="400px" viewBox="0 0 550 400">
<defs>
<g id="Layer0_0_FILL">
<path fill="#000000" fill-opacity="0.25098039215686274" stroke="none" d="
M -16.95 -1.05
L -18.15 -0.5 -20.15 1.35
Q -21.4 2.6 -21.5 3.6
L -21.5 3.7 -22.35 6.3
Q -23.05 7.95 -24.6 8.75
L -23.65 10.7
Q -26.25 13.95 -26.65 25.05 -27.75 31.15 -22.5 34.5 -17.6 37.65 -8.95 37.7 -0.35 37.7 6.15 35.05 12.65 32.35 18.4 31.8 24.2 31.2 37.25 34.65 50.3 38.1 57.55 36.85
L 57.7 36.85 58.2 37 61.9 37.35
Q 68.6 37.35 71 35.05 72.45 33.6 72.45 30.5
L 72.35 29.4 72.3 29.8 72.2 29.75 72.4 28.3
Q 72.3 25.25 67.6 20.2 62.9 15.15 57.25 12.55 51.55 9.9 35.45 4.9 25.8 1.9 21.5 1.25
L 21.5 1.2
Q 20.9 0.5 19.55 0.6 18.3 0.7 18.2 1.3
L 18.15 1.35
Q 16.95 2.75 10.75 6.5 6.65 9 2.25 8.85 2.05 8.45 1.1 8.3
L 0.9 8.3 0 6.8
Q -0.85 5.3 -2.25 4.55
L -9.1 4.4
Q -10.7 3 -11.65 1.3 -14.15 -3.2 -15.5 -2.6 -16.85 -2.05 -16.95 -1.05
M -19.25 5.75
L -16.25 6.75
Q -9.25 8.8 -0.65 9.55 8 10.25 12.6 11.4 17.15 12.5 19.75 10.25 21.75 8.6 22.75 8.6 26.25 8.6 35.55 12.55 44.8 16.5 48.8 16.5
L 55.25 14.05
Q 58.7 14.05 60.75 16.6 62.85 19.2 62.85 23.6
L 62.7 30.6
Q 62.55 35 52.85 34.25 43.1 33.5 36.1 27.9 29.1 22.25 23.15 12.1 21.45 15.85 18.95 23.2 17.45 27.55 15.85 28.9 13.9 30.55 8.6 30.95 4.95 31.25 -8.25 31.25 -16.35 31.25 -18 28.15 -19.35 25.65 -19.35 13.05
L -19.25 5.75
M 61.85 35.95
L 61.95 36.6 59.55 36.5 61.85 35.95 Z"/>
</g>
</defs>

<g transform="matrix( 1, 0, 0, 1, 0,0) ">
<use xlink:href="#Layer0_0_FILL"/>
</g>
</svg>
