
<svg xmlns="http://www.w3.org/2000/svg" version="1.1" xmlns:xlink="http://www.w3.org/1999/xlink" preserveAspectRatio="none" x="0px" y="0px" width="550px" height="400px" viewBox="0 0 550 400">
<defs>
<g id="Layer0_0_FILL">
<path fill="#000000" stroke="none" d="
M 2 -7
Q 4.55 -10.65 8 -11.7 11.1 -12.65 13.25 -11 8.9 -16.2 4.2 -12.3 1.5 -10.1 -0.45 -5.55 -2.25 -1.35 -2.25 1.6 -2.3 2.85 -2 4.1
L -6.5 4.3
Q -9.35 4.3 -11.4 1.05
L -12.9 -1.7 -12.35 -2 -12.6 -2.55 -13.3 -2.6 -13.5 -3 -14 -2.7 -14 -2.6 -15.15 -2.45 -14.85 -2.7 -16.35 -2.05 -16.45 -1.95
Q -21.9 0.9 -24.7 9.15 -27.25 16.65 -27.25 27.15
L -27.5 30.1
Q -27.45 31.45 -26.75 32.55
L -28 35.2
Q -29.15 38.3 -29.15 40.05
L -29.1 40.85 -28.9 41
Q -25.9 39.5 -23.05 37.4
L -21.3 36.05 -14.55 37.45 -14.6 37.6
Q -13.55 38.65 -12.55 40.35
L -11.35 42.5 -10.15 42.3 -9.75 42.1 -8.25 37.95 -4.55 38.1 -4.6 38.5
Q -2.3 44.15 -0.25 45.6
L 0.75 38
Q 5.05 37.45 9.1 35 14.15 31.85 21.35 31.85 25.75 31.85 34.8 34.7
L 40.7 36.65 39.75 36.6 40.6 37.25 41.1 37.25 41.5 39.9
Q 41.95 41.5 43.9 41.5 46.6 41.5 47.9 39.1
L 48.55 37.35 53.95 37.4 53.9 37.55
Q 58.4 45.6 58.9 45.6
L 59.75 45.45 59.65 41.8
Q 59.6 39.75 60.75 39.1 60.5 38.25 59 38.25
L 58.15 38.4 58.25 38.5 58.25 42.6 58 42.6
Q 57.8 41.05 56.55 39.15
L 55 37.45 63.15 37.65 65.1 40.7
Q 66.95 43.25 67.55 43.25
L 68.35 43.05 68.3 42.85 68.8 37.05
Q 70.5 36.3 71.65 34.75 73.15 32.75 73.15 31 73.15 25.05 68.45 20.2
L 65.5 17.55
Q 63 15.65 59.75 13.95 56.85 12.4 52.1 10.55 49.95 8.7 48.25 9
L 48.3 9.05
Q 37.9 5.1 20.85 -0.2 25.25 -2.85 30.15 -8.25 33.3 -11.7 36 -15.6
L 38.25 -19.3
Q 38.25 -21.3 33.95 -23 29 -24.95 24.5 -21.6 22.45 -20.1 21.25 -17.7
L 16.75 -5.25 15.9 -6.95 16.45 -4.55 15.8 -3.1 14.15 -2.25 13.6 -2.45 13.5 -2 13.6 -1.95 10 0.45 8.45 -0.1
Q 7.7 -0.55 7.25 -1.85 6.8 -1.8 6.55 -1.55
L 6.3 -1.35 6.25 -0.4
Q 6.25 0.35 8.15 1.25
L 8.3 1.35
Q 4.4 3.2 -0.4 3.9
L -0.75 1.5
Q -0.75 -3.1 2 -7
M 15.15 -1.95
L 14.75 -2.1 15.6 -2.7 15.15 -1.95
M 14.15 -1.7
L 14.8 -1.4
Q 13.4 0.55 12 0.55
L 10.65 0.5 14.15 -1.7
M 16.75 -1.55
L 16.75 -1.5 16.7 -1.5 16.75 -1.55
M 18.25 -2
L 18.1 -2.1 17.5 -3.65 21.25 -13.75 22.85 -17.15
Q 23.85 -19.1 24.85 -20.1 27.35 -22.7 32.1 -21.8 36.6 -21 36.6 -19.05 36.6 -15.25 29.65 -9.65 26.7 -7.25 21.05 -3.6
L 21.55 -4.75
Q 22.6 -7.15 22.6 -7.85 22.6 -8.65 22.3 -8.7
L 22 -8.6
Q 20.65 -7.4 19.95 -5.2 19.25 -2.95 18.25 -2
M 54.95 13.4
L 56.65 14
Q 63.2 16.3 67.9 22.25 71.9 27.4 71.9 31 71.9 33.4 68.65 34.7
L 68.3 33.85 67.4 33.85 67.35 35.1
Q 61.7 36.6 48.7 36.7
L 48.75 35.5
Q 48.2 35.7 47.5 36.7
L 43.6 36.7
Q 41.8 35.65 39.75 34.8
L 39.75 34.6 39.6 34.25
Q 35.4 31.65 32.1 27.1 34.95 28.3 39.95 29.35 48.95 31.25 59.5 31.25 62.3 31.25 62.3 26 62.3 22.05 60.85 19.05 59.3 15.8 56.35 14.95
L 54.95 13.4
M 57.5 17.5
Q 58.6 18.6 59.35 20.1 60.75 22.8 60.75 25.9 61.7 26.95 60.75 27.85 58.9 29.6 49.4 29.6 47.95 29.6 40.7 27.55 33.55 25.55 31 25.5
L 28.85 21.75
Q 26.65 17.45 25.5 15.85
L 24.75 14.9 24.75 14.55 24.45 13.25 23.75 12.3 23 12.3 22.8 12.45 22.75 12.95
Q 21.6 11.95 20.25 11.25
L 20.1 12
Q 20.1 13.25 20.35 12.55 21.5 13.35 22.7 15 22.3 22.7 18.4 27.15
L 18.35 27.2 18.35 27.1
Q 18.35 26.3 18.15 26.25
L 17.5 26.1
Q 16.25 26.25 16.3 26.65 16.4 27.25 16.15 27.4
L 0.5 28.35
Q -16.45 28.35 -22.35 25.8 -23.75 25.2 -25.1 24.1 -25.6 23.7 -26.05 23.5
L -25.9 22.3
Q -25.9 16.75 -23.15 9.3 -20.55 2.3 -16.95 -1.05
L -16.65 -0.9 -13.95 -1.3
Q -13.8 0.3 -12.9 1.65 -10.35 5.5 -2.25 5.5
L -1.6 5.5
Q -0.2 9.1 3.8 9.1 9.45 9.1 14 5.55 19.05 8.75 27 11.7 38.65 16.05 46.5 16.05
L 52 15.5 53.3 15.1
Q 55.9 17.5 57.4 17.5
L 57.5 17.5
M 50 11.6
L 52.15 14 47.15 14.75
Q 37.7 14.75 25.8 9.8 24.35 9.2 15.1 4.6
L 18.2 1.15 19.6 0.5 50 11.6
M 47.1 37.3
L 46.85 37.65
Q 45.75 39.55 43.6 40.25
L 41.85 37.25 42.45 37.25 43.1 37.5 44.15 37.3 47.1 37.3
M 67.15 37.55
L 66.8 40.1 64.05 37.7 65.05 37.75 67.15 37.55
M 21.65 22.4
L 24.15 17.15 28.35 25.45
Q 30.7 30.1 33.2 32.5 25.15 30.25 16 30.25
L 15.15 30.45 17.5 28.55 18.25 27.7
Q 19.95 25.65 21.65 22.4
M 13 2.25
L 15.45 2 13.75 3.75 11 2.1 13 2.25
M 8.8 1.55
L 9.9 2.4 9.85 2.5 12.65 4.7
Q 8.9 7.6 3.8 7.6 1.3 7.6 0.1 5.25 3.6 4.45 8.8 1.55
M 15.35 29.35
L 16.25 29.1
Q 15.2 29.9 14 30.5
L 14.2 30.8
Q 12.35 31.55 9.05 33.5 4.9 35.9 0.65 36.55
L 0.55 36.45 0.05 36.25
Q -0.3 36.3 -0.5 36.7
L -9.35 36.5
Q -15.75 36 -19.8 34.55
L -19.35 33.85
Q -19.6 33.65 -20.25 33.55
L -20.85 33.5 -21.3 33.95
Q -24.35 32.5 -25.65 30.4 -26.95 28.35 -26.55 25.55
L -26.45 25.15
Q -25.35 26.65 -22.65 27.75 -16.2 30.35 0.5 30.35
L 15.35 29.35
M -25.9 33.6
L -25.75 33.75
Q -24.7 34.7 -22.95 35.45 -25.45 37.65 -27.4 38.75
L -25.9 33.6
M -10.6 40
L -12.9 37.6 -9.8 37.85 -10.6 40
M -3.45 38.1
L -1.05 38.1 -1.1 38.4
Q -1.35 40 -1.25 41.85
L -1.5 41.85 -3.45 38.1 Z"/>

<path fill="#993300" stroke="none" d="
M 24.15 17.15
L 21.65 22.4
Q 19.95 25.65 18.25 27.7
L 17.5 28.55 15.15 30.45 16 30.25
Q 25.15 30.25 33.2 32.5 30.7 30.1 28.35 25.45
L 24.15 17.15 Z"/>

<path fill="#495583" stroke="none" d="
M 52.15 14
L 50 11.6 19.6 0.5 18.2 1.15 15.1 4.6
Q 24.35 9.2 25.8 9.8 37.7 14.75 47.15 14.75
L 52.15 14 Z"/>
</g>
</defs>

<g transform="matrix( 1, 0, 0, 1, 0,0) ">
<use xlink:href="#Layer0_0_FILL"/>
</g>
</svg>
