
<svg xmlns="http://www.w3.org/2000/svg" version="1.1" xmlns:xlink="http://www.w3.org/1999/xlink" preserveAspectRatio="none" x="0px" y="0px" width="550px" height="400px" viewBox="0 0 550 400">
<defs>
<g id="Layer0_0_FILL">
<path fill="#FFFFFF" fill-opacity="0.25098039215686274" stroke="none" d="
M 52.6 26.25
L 53.3 21.3
Q 53.3 18.55 49.35 18.5
L 42.3 19
Q 38.25 19 31.4 15.15 24.6 11.25 21.4 11.25 20.3 11.25 18.75 13.8 17.05 16.55 12.95 17.05 9.4 17.5 9.9 19.6 10.4 21.65 6.85 22.9 3.3 24.15 -3.6 24.15 -10.55 24.1 -11.8 20.15 -12.7 14.05 -14.35 9.65
L -15 8.8 -15.75 12.45
Q -16.4 16.7 -16.4 22.05 -16.4 26.25 -12.5 28.4 -9.95 29.85 -7.75 29.85 -0.7 29.85 5.6 27.75 12.1 25.6 15.55 21.9
L 22.75 12.65 51.85 26.35 52.6 26.25 Z"/>
</g>
</defs>

<g transform="matrix( 1, 0, 0, 1, 0,0) ">
<use xlink:href="#Layer0_0_FILL"/>
</g>
</svg>
