
<svg xmlns="http://www.w3.org/2000/svg" version="1.1" xmlns:xlink="http://www.w3.org/1999/xlink" preserveAspectRatio="none" x="0px" y="0px" width="550px" height="400px" viewBox="0 0 550 400">
<defs>
<g id="Graphics_Symbol_272_0_Layer3_0_FILL">
<path fill="#000000" stroke="none" d="
M 53.15 2.8
L 50.7 2.65 50.6 2.05 50.05 2.1 50.15 2.6 46.7 2.35 45.8 2.4 43.55 2.45 46.95 2.95 50.35 3.5 51.35 9.45
Q 52.75 18.6 53.6 21.6 55.15 27.1 57.5 27.1 65.75 27.1 68.9 28.25 71.4 29.1 71.4 31.05 72.75 32.6 70.8 34 66.85 36.75 50.15 36.75
L 31 35.5 -9 35.25 -11.85 35.7 -14.85 36.25 -14.85 27.75
Q -14.55 26.5 -14 26.25
L -11.1 26.05 -3.25 26.15 12.7 25.8 32.5 26
Q 31.35 17.35 33.45 6.4 33.85 4.3 34.4 2.5
L 34.05 2.5 33.9 2.9 33.05 5.5 33.1 1.55 34.35 1.65 40.65 2 45.75 2.05 37.05 0.45
Q 35.05 0.15 31.85 0.5
L 31.85 9.95
Q 30.05 18.05 31.35 24.6
L 28.2 24.65 21.5 24.7 19.8 24.75 21.5 24.6 7.2 24 -7.35 24.35 -12.55 23.6
Q -15.25 23.3 -15.75 25.6 -16.1 27.05 -16.1 29.35
L -16.25 37.05
Q -16.25 37.8 -15.95 37.8
L -15 37.75
Q -13.65 37.2 -10.95 36.95 -6.35 36.5 9 36.75
L 11 36.75 9 37 20.4 37.5 32.5 37.1 65.05 38.1
Q 69.8 38.1 71.65 34.75 72.65 33 72.65 31 72.65 29.4 70.75 28 67.25 25.35 58.5 25.35 55.55 25.35 54 20.5 53.15 17.8 51.9 9.45
L 50.9 3.55 52.5 3.55 53.25 3.35 53.15 2.8 Z"/>
</g>

<g id="Graphics_Symbol_272_0_Layer2_0_FILL">
<path fill="#000000" fill-opacity="0.25098039215686274" stroke="none" d="
M 29.8 24
L 30 24 30 23.8 29.8 24
M 51.05 4.05
L 50.8 3.3
Q 50.35 2.9 48.6 2.75
L 48.25 2.75 45.3 2.45 42.85 2.05 34.05 0.85
Q 32.25 0.25 31.05 16.55
L 31.05 20.85 31.05 21.15 31.35 22.1 31.35 23.65 31.2 24.6
Q 30.9 25.25 29.7 25.25
L 28.85 25.1 27.5 25.1 22.05 25.5 1.95 25
Q -12.15 24.55 -13.25 24.8 -14.4 25 -14.95 25.9 -15.5 26.8 -15.1 30.85
L -14.85 35.2 -14.95 35.4 -15.1 36.3 -15.05 36.8 -9.1 36.85 -5.55 36.4 -2 35.9
Q 6.15 35.9 19.5 36.3
L 45.35 37.1 55.35 37.85 59.8 38.4
Q 64.65 38.4 68.45 37.05 72.25 35.7 72.1 31.45 71.95 27.25 65.75 26.45
L 57.9 25.85
Q 56.2 26 54.5 21.9 52.8 17.75 52.2 15.25
L 52.35 15.15 52.35 14 51.8 10.65 51.3 7.35 51.05 4.05
M 42 5.65
Q 47.05 5.65 48.05 10.75
L 48.75 16.6
Q 49.25 20.85 50.15 24.05 51.8 31.05 57.6 31.15
L 61.7 30.55 64.15 30.25 64.25 30.55 64.35 31.45
Q 64.35 32.05 59.7 32.85 55.05 33.6 55.05 34.05 55.05 34.55 55.55 34.15 56.05 33.75 56.05 34.25 56.05 34.95 54.3 34.75
L 47.45 33.7
Q 32 31.5 9.3 31.5
L 3.4 32.1 -7.45 32.65 -10.4 32.6 -10.75 32.2 -11.5 31.6 -10.55 30.9 -8.15 29.45
Q -7.25 29 -4.25 28.8
L 21.05 29.5
Q 37.1 29.5 37.1 21.5 37.1 18.75 36.25 15.05
L 35.35 10.85
Q 35.35 9 37.15 7.4 39.1 5.65 42 5.65 Z"/>
</g>

<g id="Graphics_Symbol_272_0_Layer1_0_FILL">
<path fill="#FFFFFF" fill-opacity="0.25098039215686274" stroke="none" d="
M 45.25 10.5
Q 44.6 9.35 43.25 8.75
L 40.25 21.15
Q 39 26.35 39 29.55
L 39.65 30
Q 40.7 30.55 43 31.3
L 45.9 31.8
Q 47.95 31.8 48.65 31 49.1 30.5 49.1 29.55
L 47.15 26.75
Q 45.25 23.7 45.45 21.25
L 46.15 15.1
Q 46.15 12.1 45.25 10.5 Z"/>
</g>

<g id="Graphics_Symbol_272_0_Layer0_0_FILL">
<path fill="#FFFFFF" stroke="none" d="
M 50.35 20
L 50.6 18.55
Q 46.35 2.95 44.15 6.3
L 45.75 13.5
Q 46.9 18.25 47.3 18.25
L 47.8 18.1 47.85 17.65 47.35 14.65
Q 48.4 15.55 48.4 18.55 48.4 21.1 49.55 21.1 50.05 21.1 50.35 20 Z"/>
</g>

<g id="MovieClips_Symbol_228_6_Layer1_0_FILL">
<path fill="#006699" stroke="none" d="
M 51.35 3.5
L 43.55 2.45 45.8 2.45 32.6 0.95
Q 32.45 2.8 32 25.4 18.2 24.65 15.35 25.05
L 9 25.8 -14 26.25
Q -14.55 26.5 -14.85 27.75
L -14.85 36.25 -9 35.25 31.8 35.55 31.8 35.65 56.4 36.95 56.5 36.65
Q 67.65 36.2 70.8 34 72.75 32.6 71.4 31.05 71.4 29.1 68.9 28.25 65.75 27.1 57.5 27.1
L 56.5 26.85 56.6 26.8 56.45 26.8 56.05 26.65
Q 55.45 24.05 54.35 22.05 53.1 19.75 52.6 14.9
L 51.35 3.5 Z"/>
</g>

<g id="MovieClips_Symbol_264_6_Layer1_0_FILL">
<path fill="#006699" stroke="none" d="
M 56.2 27.35
Q 55.6 24.35 54.35 22.05 53.1 19.75 52.6 14.9
L 51.35 3.5 43.55 2.45 45.8 2.45 32.6 0.95 31.8 35.65 56.4 36.95 56.6 36.4 56.75 35.4
Q 56.75 30.3 56.2 27.35 Z"/>
</g>
</defs>

<g transform="matrix( 1, 0, 0, 1, -28.4,-10.7) ">
<g transform="matrix( 1, 0, 0, 1, 0,0) ">
<g transform="matrix( 1, 0, 0, 1, 0,0) ">
<use xlink:href="#Graphics_Symbol_272_0_Layer3_0_FILL"/>
</g>

<g transform="matrix( 1, 0, 0, 1, 0,0) ">
<use xlink:href="#Graphics_Symbol_272_0_Layer2_0_FILL"/>
</g>

<g transform="matrix( 1, 0, 0, 1, 0,0) ">
<use xlink:href="#Graphics_Symbol_272_0_Layer1_0_FILL"/>
</g>

<g transform="matrix( 1, 0, 0, 1, 0,0) ">
<use xlink:href="#Graphics_Symbol_272_0_Layer0_0_FILL"/>
</g>
</g>
</g>

<g transform="matrix( 1, 0, 0, 1, -28.15,-10.5) ">
<g transform="matrix( 1, 0, 0, 1, 0,0) ">
<use xlink:href="#MovieClips_Symbol_228_6_Layer1_0_FILL"/>
</g>
</g>

<g transform="matrix( 1, 0, 0, 1, -28.4,-10.7) ">
<g transform="matrix( 1, 0, 0, 1, 0,0) ">
<use xlink:href="#MovieClips_Symbol_264_6_Layer1_0_FILL"/>
</g>
</g>
</svg>
