
<svg xmlns="http://www.w3.org/2000/svg" version="1.1" xmlns:xlink="http://www.w3.org/1999/xlink" preserveAspectRatio="none" x="0px" y="0px" width="550px" height="400px" viewBox="0 0 550 400">
<defs>
<g id="Layer0_0_FILL">
<path fill="#000000" stroke="none" d="
M 5.55 -7
Q 3.9 -6 1.5 -4.1 -0.2 -2.6 -2.15 0.5 -2.25 0.7 -3.15 1.95 -3.75 2.85 -4.05 3.55
L -5.15 6.75
Q -6.05 8.75 -6.3 11.35 -7.65 17.75 -7.05 22.4 -6.25 28.1 -2.45 29.7 -2.1 30.2 0.6 33.15 3.4 36.2 5.9 37.05 6.8 37.35 10.15 38.85 12.8 40 14.5 40.25 25 41.2 32.3 37.9 40.05 34.45 40.1 27.9 42.65 23.1 43.45 18.5 43.7 9.65 41.35 2.2 39 -5.4 35.9 -5.05 34.85 -6.1 34.3 -6.4 32.7 -7.2 30.15 -8.7 28.8 -9.45 24.3 -10.5 19.35 -11.8 14 -10.8 8.7 -9.8 5.55 -7
M 4.25 -0.35
Q 7.35 -6.15 13.25 -6.95 18.3 -7.55 25.85 -4.55 27.95 -3.95 30.95 -1.65 33.95 -0.85 35.7 0.75 38 2.8 39.05 6.15 40.9 12.7 38.2 21 37.5 23.75 34.75 27.45 35 28.9 34.45 30.3 33.1 33.35 30.1 34.5 29.85 34.6 29.55 34.7 27 35.65 23.45 35.8 20.6 35.95 16 35.55 8.8 34.75 8.55 34.6 8 34.35 3.15 28.85 -0.65 27 -2.2 21.6 -3.65 16.45 -2.35 11.65 -2.35 11.55 -1.6 8.75 -1.15 6.95 -0.55 5.9 0.5 3.9 0.9 3.3 1.8 1.95 2.75 1.05 3.15 0.6 4.25 -0.35 Z"/>
</g>
</defs>

<g transform="matrix( 1, 0, 0, 1, 0,0) ">
<use xlink:href="#Layer0_0_FILL"/>
</g>
</svg>
