
<svg xmlns="http://www.w3.org/2000/svg" version="1.1" xmlns:xlink="http://www.w3.org/1999/xlink" preserveAspectRatio="none" x="0px" y="0px" width="550px" height="400px" viewBox="0 0 550 400">
<defs>
<g id="Layer0_0_FILL">
<path fill="#CCCCCC" stroke="none" d="
M 8.15 33.65
L 14.45 33.7 14.9 28.05
Q 14.9 27.1 12.65 25.65 10 23.95 6.9 23.95 2.75 23.95 0 26.9 -2.8 29.9 -3.2 35.35
L 4.2 34.75 8.15 33.65
M 27.25 22.05
Q 25.7 20.55 23.35 20.65 20.95 20.75 19.4 22.3 17.6 24.15 17.6 27.05 17.6 29.6 17.8 29.4
L 16.35 33.8 28.75 34 29.1 26.7
Q 29.1 23.75 27.25 22.05
M 47.6 18.2
Q 45.65 16.2 42.05 16.2 36.35 16.2 33.4 21 30.5 25.65 30.6 34.15
L 36.4 34.2 36.35 34.3 36.45 34.2 43.2 34.3 38.4 33.95 52.75 34.15 57.05 32.65 50.75 24.05
Q 48.9 19.6 47.6 18.2 Z"/>
</g>
</defs>

<g transform="matrix( 1, 0, 0, 1, 0,0) ">
<use xlink:href="#Layer0_0_FILL"/>
</g>
</svg>
