
<svg xmlns="http://www.w3.org/2000/svg" version="1.1" xmlns:xlink="http://www.w3.org/1999/xlink" preserveAspectRatio="none" x="0px" y="0px" width="550px" height="400px" viewBox="0 0 550 400">
<defs>
<g id="Layer0_0_FILL">
<path fill="#CE6464" stroke="none" d="
M 4.15 -14.1
Q 3.6 -14.1 1.7 -13.15
L -2.45 -12.95 -4.65 -13.5 -8.3 -13.95 8.45 17.05
Q 13.15 25.75 20.8 31.85 25.85 35.9 31.25 39.5
L 37.35 39.45
Q 40 39.2 41.65 37.75
L 42 37.4
Q 43.6 35.75 47.65 29.9
L 47.1 30.1 42.2 30.6
Q 38.2 30.5 34.4 29.45
L 31.15 28.35
Q 25.5 26.05 23 21.7 22.05 20.05 21.55 18.15 19.5 10.6 17.55 4.95
L 15.95 0.65
Q 9.95 -14.1 4.15 -14.1 Z"/>
</g>
</defs>

<g transform="matrix( 1, 0, 0, 1, 0,0) ">
<use xlink:href="#Layer0_0_FILL"/>
</g>
</svg>
