
<svg xmlns="http://www.w3.org/2000/svg" version="1.1" xmlns:xlink="http://www.w3.org/1999/xlink" preserveAspectRatio="none" x="0px" y="0px" width="550px" height="400px" viewBox="0 0 550 400">
<defs>
<g id="Layer0_0_FILL">
<path fill="#A3495E" stroke="none" d="
M -4.55 -25.1
Q -7.3 -23.05 -2.35 -23.25
L 1.55 -23.6
Q -2.85 -26.6 -4.55 -25.1
M -20.35 -2.25
Q -18.35 -4.1 -15.9 -4.1 -15 -4.1 -10.95 -0.15 -5.6 5.2 -1.2 13.05
L 0.65 16.75
Q -0.4 10.4 -6.15 2.6 -12.65 -5.95 -18.5 -5.95 -22.3 -5.95 -23.95 -2.6 -25.8 0.9 -25.8 8.9 -25.8 12.7 -25.65 10.85 -24.6 12.1 -22 12.7 -21.75 12.5 -22.15 9.5
L -22.65 3.9
Q -22.65 0.2 -20.35 -2.25
M 10.55 -9.1
L 11.05 -9.3 11.3 -10.8 11.2 -14.35
Q 10.8 -14.35 8.2 -17.7 9.9 -10.25 10.55 -9.1
M 2.05 -5.05
L 2.05 -8.2 -3.25 -18.4
Q -1.3 -10.95 0.65 -5.2 3 1.45 8.2 21.05 9.25 23.05 9.25 19.35 9.25 17.35 5.7 6.7 2.05 -3.9 2.05 -5.05
M 18.35 -18.05
Q 19.15 -15.6 19.15 -13.4 19.15 -6.9 17.45 -1.9 15.35 3.9 15.25 5.05
L 15.6 11
Q 15.9 8.4 17.85 -0.55 20.2 -11.35 22 -14.9 20.2 -17.9 17.55 -20.1
L 18.35 -18.05 Z"/>
</g>
</defs>

<g transform="matrix( 1, 0, 0, 1, 0,0) ">
<use xlink:href="#Layer0_0_FILL"/>
</g>
</svg>
