
<svg xmlns="http://www.w3.org/2000/svg" version="1.1" xmlns:xlink="http://www.w3.org/1999/xlink" preserveAspectRatio="none" x="0px" y="0px" width="550px" height="400px" viewBox="0 0 550 400">
<defs>
<g id="Layer0_0_FILL">
<path fill="#FFFFFF" stroke="none" d="
M -7.55 16.9
L -8.7 14.05
Q -9.3 12.35 -10.25 11.35 -10.8 11.65 -10.8 12.25 -9 17.6 -8.35 17.6
L -7.7 17.35
Q -7.35 17.1 -7.55 16.9
M -13.5 -6.25
L -13.8 -6.3 -14.05 -7.9
Q -13.25 -8 -12.55 -8.9
L -12.05 -9.75
Q -12.05 -11.5 -14.15 -10.8 -16.3 -10.1 -16.3 -8.8 -16.3 -8.35 -15.5 -6.75
L -14.75 -5.4 -14.75 -5.35 -14.6 -5.15 -14.5 -5.05 -14.1 -5.05 -13.55 -5.15 -13.4 -5.25 -13.3 -5.75 -13.4 -6.15 -13.5 -6.25
M -10.5 -11
L -10.3 -11.3
Q -10.55 -12.3 -11.2 -12.45 -11.9 -12.65 -12.3 -11.55 -12.25 -11.35 -11.65 -11.05
L -11 -10.8
Q -10.6 -10.8 -10.5 -11
M -10.65 -13.5
L -10.3 -15.25
Q -10.3 -16.1 -11.3 -16.1 -12.3 -16.1 -12.3 -15.35
L -11.85 -14.15 -11.25 -13.3 -10.65 -13.5
M -2.3 -20.9
L -2.3 -19 -1.5 -18.3 -0.9 -18.5 -0.8 -19.1 -1.1 -20.25
Q -1.35 -21 -2.3 -20.9
M -2.95 -19.6
Q -3.65 -20.3 -4.5 -20.3 -5.45 -20.3 -5.7 -19.8 -6.15 -18.8 -6.5 -18.5
L -7.6 -20.7
Q -8.35 -21.95 -9.75 -21.75
L -9.8 -21.05 -8.05 -16.5 -9.2 -15.75 -9.8 -14.9 -9.75 -14.25 -8.5 -14.05
Q -7.65 -14.05 -6.75 -14.55 -5.8 -15.1 -5.8 -15.7 -5.8 -16.1 -6.15 -16.45
L -6.65 -17
Q -5.6 -17 -5.05 -17.95 -4.5 -18.95 -4.05 -19 -3.35 -18.05 -3 -18.05 -2.6 -18.05 -2.5 -18.25
L -2.3 -18.55 -2.95 -19.6
M -1.3 -24
L -1.4 -24.4 -1.5 -24.5 -3.3 -24.4 -3.25 -23.65
Q -2.8 -23.3 -2.35 -23.3
L -1.4 -23.5 -1.3 -24
M 13.9 26.4
L 14.1 25.85
Q 13.2 24.45 12.35 23.9 11.15 23.1 10.85 24.75 8.7 25.65 8.35 26.05 8.1 26.35 8.1 27.75 8.1 29.05 8.75 29.35
L 10.75 27.5 12 25.75 12.2 26.35 13.1 26.6 13.9 26.4
M 15.5 23.25
L 15.35 23.35 15.35 23.7
Q 15.35 24.1 15.7 25 16 25.85 16.25 26.1
L 16.75 25.85 16.85 24.75 16.8 23.55
Q 16.5 22.85 15.5 23.25
M 15.1 21
L 15.15 21.75
Q 15.45 22.1 16.1 22.1
L 17 21.9 17.1 21.4 17 21
Q 15.7 20.85 15.1 21
M 21.35 21.4
L 21.25 21
Q 19.8 21.1 19.5 21.7 19.35 21.95 19.35 23.15
L 19.4 24
Q 19.6 24.75 20.25 24.85
L 22 24.85
Q 22.7 24.7 23.2 24.2
L 23.6 23.4
Q 23.6 23.05 23.4 22.95
L 23 22.85
Q 22.9 22.85 22.5 23.2
L 20.6 23.5 20.6 22.5 21.1 21.85 21.35 21.4
M 27.9 18
L 27.85 18.55 28.25 19.1 27.6 18.8 26.85 18.6
Q 26.5 18.6 26 19.2 25.5 19.75 24.9 19.75
L 23.6 16.6
Q 22.35 14.05 22.35 16.8
L 22.6 19.75
Q 23.1 22.85 24.25 22.85
L 24.75 22.7 24.85 22.25 24.35 21.1 27.65 21
Q 28.85 20.85 28.85 19.65
L 28.8 19.55 29.1 19.6 29.7 19.35
Q 30.05 19.1 29.85 18.9
L 29.05 18.3 27.9 18
M 28.5 16.85
L 28.9 16.65 29.1 16.1
Q 29 15.9 28.5 15.6
L 28.1 15.65
Q 27.85 15.75 27.85 16.15
L 27.9 16.5 28.5 16.85
M 35.05 10.55
Q 34.75 9.95 34.1 9.9 33.35 9.8 33.35 10.45
L 33.5 10.85
Q 33.75 11.35 34.35 11.35
L 34.85 11.3 34.9 11.3 34.85 12.1 34.95 13.25
Q 35.1 13.95 35.75 14.1
L 36.25 13.9 36.7 11.05
Q 36.9 9.35 37.5 8.5
L 37.75 10.85
Q 38.05 12.6 39.1 12.6
L 39.7 12.4 39.85 12
Q 39.45 5.55 37.15 7.25 35.45 8.45 35.05 10.55
M 31.85 11.7
Q 31.85 10.6 30.5 10.55 29.15 10.5 29.1 11.1
L 28.85 11.35
Q 29.5 11.9 31 14.95 32.35 17.6 33.1 17.6 34.1 17.6 34.1 16.3
L 34.1 16.1 34.25 16.1 34.7 16 34.85 15.4
Q 34.95 13.45 33.35 13.5
L 33.35 15.1 31.8 12.4 31.75 12.35 31.85 11.7
M 34.8 -15.2
Q 36.2 -14.3 36.5 -14.3 37.1 -14.3 37.1 -14.65
L 35.3 -16.75
Q 33.95 -17.85 32.85 -17.25 33.15 -16.3 34.8 -15.2
M 6.25 -25.1
L 5.1 -25.15 4.85 -23.4
Q 4.85 -22.95 5.05 -22.8
L 5.5 -22.55
Q 6.15 -22.8 6.3 -23.2
L 6.35 -24.05 6.25 -25.1
M 7.65 -26
L 7.6 -24.8 7.7 -23.8
Q 7.85 -23.4 8.75 -22.8
L 9.15 -23 10 -25 12 -25 12.25 -24.65
Q 12.5 -24.3 12.75 -24.3 13.35 -24.3 13.35 -24.65 13.3 -27.1 11.05 -26.7
L 8.75 -25.8 8.05 -25.9 7.65 -26
M 4.35 -27.8
L 4.85 -27.35
Q 5.3 -27.05 5.6 -27.05 6.25 -27.05 6.25 -27.3
L 6.35 -27.75
Q 5.8 -28.4 5.3 -28.45 4.7 -28.5 4.35 -27.8
M 1.5 -27.45
Q 0.1 -30.6 0.1 -28.55
L 1 -25.15
Q 1.95 -21.8 2.25 -21.8 2.65 -21.8 2.7 -21.95
L 2.75 -22.25 2.8 -22.15 2.85 -22.5
Q 2.85 -24.35 1.5 -27.45 Z"/>
</g>
</defs>

<g transform="matrix( 1, 0, 0, 1, 0,0) ">
<use xlink:href="#Layer0_0_FILL"/>
</g>
</svg>
