
<svg xmlns="http://www.w3.org/2000/svg" version="1.1" xmlns:xlink="http://www.w3.org/1999/xlink" preserveAspectRatio="none" x="0px" y="0px" width="550px" height="400px" viewBox="0 0 550 400">
<defs>
<g id="Graphics_Symbol_783_0_Layer0_0_FILL">
<path fill="#FFFFFF" stroke="none" d="
M 111.6 85.05
Q 109.1 89.25 104.7 90.9
L 108.9 100.05 110 100.65 122.55 95.1
Q 121.85 91.25 120.65 87.4 118.1 79.35 113.7 72.9 115 79.25 111.6 85.05
M 112 90.15
Q 113.1 89.2 114.4 89.2 116.5 89.2 116.8 89.75 116.6 90.05 116.75 93.85 116.85 96.45 113.55 96.45 112.3 96.45 111.5 94.4 110.95 92.95 110.95 92.15 110.95 91.1 112 90.15
M 103.2 91.4
L 101.4 91.9
Q 96.5 92.45 91.75 91.05 71.4 87.7 53.1 79.95 61.15 98.95 76.15 113 91.85 110.35 106.2 102.3
L 103.2 91.4
M 90.5 95.15
L 95 95.4
Q 97.05 96.2 97.05 98
L 96.85 99.25
Q 96.6 100.7 95.7 101.9
L 94.35 103.1
Q 92.25 105.25 89.55 105.25 83.9 105.25 83.9 101.1 83.9 96.25 90.5 95.15 Z"/>
</g>

<g id="Graphics_Symbol_830_0_Layer2_0_FILL">
<path fill="#000000" stroke="none" d="
M 113.55 96.45
Q 116.85 96.45 116.75 93.85 116.6 90.05 116.8 89.75 116.5 89.2 114.4 89.2 113.1 89.2 112 90.15 110.95 91.1 110.95 92.15 110.95 92.95 111.5 94.4 112.3 96.45 113.55 96.45
M 112.1 68.15
Q 110.45 66.2 108.15 66.2 114.7 76.7 106.15 86.6 105.15 87.75 103.65 88.55 93.5 60.65 67.3 50.1
L 64.05 50.35
Q 75.45 54.65 84 63.3 92.4 71.8 98.25 82.1
L 102 89
Q 86.05 90.25 71.75 83.05 56.25 75.2 39.05 75.05 31.75 75 24.45 75.4
L 22.4 76.1 22.5 78.9 26.4 77.65 50.5 79.05
Q 56.65 99 70.7 113.55 46.6 119.6 22 118.25 19.55 117.8 19.2 119.55 43.5 121.85 68.85 117.2 83.05 114.75 96.7 110.15
L 107.6 106.2 109.05 118.1
Q 83.9 139.75 53.25 151 50.8 151.95 51.25 153.5
L 51.6 154 52.25 153.85
Q 62.75 151.65 72.3 146.9 82.85 141.6 91.75 133.4 99.7 126.05 109.05 120.5
L 108.65 128.25
Q 103.2 129.45 98.55 132.65 94.45 135.45 93.85 139.5
L 107.85 131.45 99.95 147.6
Q 102.85 147.6 104.95 145.95 107 144.25 107 141.9
L 110.3 131.2 113.55 131.1 111.8 128.55 111.65 119.3 118.5 117.85 120.75 119.4 121.35 119.2
Q 123.25 118.05 121.55 116.85 119.65 115.25 118.3 115.25 115.35 115.25 111.6 116.85 111.3 111.65 109.7 105.4 120.15 101.25 123 98.2 125.15 95.8 122.7 95
L 122.55 95.1 110 100.65 108.9 100.05 104.7 90.9
Q 109.1 89.25 111.6 85.05 115 79.25 113.7 72.9 113.7 70.1 112.1 68.15
M 101.4 91.9
L 103.2 91.4 106.2 102.3
Q 91.85 110.35 76.15 113 61.15 98.95 53.1 79.95 71.4 87.7 91.75 91.05 96.5 92.45 101.4 91.9
M 95 95.4
L 90.5 95.15
Q 83.9 96.25 83.9 101.1 83.9 105.25 89.55 105.25 92.25 105.25 94.35 103.1
L 95.7 101.9
Q 96.6 100.7 96.85 99.25
L 97.05 98
Q 97.05 96.2 95 95.4 Z"/>
</g>

<g id="Graphics_Symbol_830_0_Layer1_0_FILL">
<path fill="#000000" fill-opacity="0.25098039215686274" stroke="none" d="
M 70 50.3
Q 47.8 50.3 32.15 66 16.45 81.7 16.45 103.9 16.45 126.1 32.15 141.8 47.8 157.5 70 157.5 92.2 157.5 107.9 141.8 123.55 126.1 123.55 103.9 123.55 81.7 107.9 66 92.2 50.3 70 50.3
M 43.6 75.95
Q 55.2 64.3 71.6 64.3 88 64.3 99.65 75.95 111.25 87.55 111.25 103.95 111.25 120.35 99.65 132 88 143.6 71.6 143.6 55.2 143.6 43.6 132 31.95 120.35 31.95 103.95 31.95 87.55 43.6 75.95 Z"/>
</g>

<g id="Graphics_Symbol_830_0_Layer0_0_FILL">
<path fill="#FFFFFF" fill-opacity="0.25098039215686274" stroke="none" d="
M 72.55 87.4
Q 64.6 87.4 59 93.05 53.35 98.7 53.35 106.65 53.35 114.6 59 120.25 64.6 125.9 72.55 125.9 80.5 125.9 86.15 120.25 91.75 114.6 91.75 106.65 91.75 98.7 86.15 93.05 80.5 87.4 72.55 87.4 Z"/>
</g>

<g id="Parts_Heads_headColorMC_15_Layer1_0_FILL">
<path fill="#D9784D" stroke="none" d="
M 120.85 87.35
Q 114.2 66.2 94.55 56 74.9 45.8 53.8 52.45 32.7 59.1 22.5 78.75 12.3 98.4 18.95 119.5 25.6 140.65 45.25 150.85 64.9 161.05 86 154.4 107.1 147.75 117.3 128.1 127.5 108.45 120.85 87.35 Z"/>
</g>

<path id="Graphics_Symbol_830_0_Layer2_0_1_STROKES" stroke="#000000" stroke-width="1" stroke-linejoin="round" stroke-linecap="round" fill="none" d="
M 67.3 50.1
Q 81.15 49.25 94.4 56.15 102.35 60.3 108.15 66.2
M 113.7 72.9
Q 118.1 79.35 120.65 87.4 121.85 91.25 122.55 95.1
M 24.45 75.4
L 24.6 75.15
Q 34.75 58.6 53.75 52.6 58.95 50.95 64.05 50.35
M 22.5 78.9
Q 17.7 88.2 16.7 98.85 15.6 110.95 19.95 122.45 24.05 133.45 32.5 141.65 40.7 149.45 51.25 153.5
M 107 141.9
Q 114.9 134.1 119.1 123.7
L 120.75 119.4
M 52.25 153.85
Q 68.55 159.75 85.85 154.3 93.65 151.85 99.95 147.6
M 121.55 116.85
Q 124 107.65 123 98.2"/>
</defs>

<g transform="matrix( 1, 0, 0, 1, -62.75,-76.85) ">
<g transform="matrix( 1, 0, 0, 1, 0,0) ">
<g transform="matrix( 1, 0, 0, 1, 0,0) ">
<use xlink:href="#Graphics_Symbol_783_0_Layer0_0_FILL"/>
</g>
</g>

<g transform="matrix( 1, 0, 0, 1, 0,0) ">
<g transform="matrix( 1, 0, 0, 1, 0,0) ">
<use xlink:href="#Graphics_Symbol_830_0_Layer2_0_FILL"/>

<use xlink:href="#Graphics_Symbol_830_0_Layer2_0_1_STROKES"/>
</g>

<g transform="matrix( 1, 0, 0, 1, 0,0) ">
<use xlink:href="#Graphics_Symbol_830_0_Layer1_0_FILL"/>
</g>

<g transform="matrix( 1, 0, 0, 1, 0,0) ">
<use xlink:href="#Graphics_Symbol_830_0_Layer0_0_FILL"/>
</g>
</g>

<g id="hat1" transform="matrix( 0.983917236328125, -0.17529296875, 0.17529296875, 0.983917236328125, 45.2,78.25) ">
<g id="colorMC" transform="matrix( 0.9999847412109375, 0, 0, 0.9999847412109375, 0,0) "/>

<g id="colorMC2" transform="matrix( 1, 0, 0, 1, 0,0) "/>
</g>

<g id="hat2" transform="matrix( 0.9733734130859375, -0.2247314453125, 0.2247314453125, 0.9733734130859375, 38,60.6) ">
<g id="colorMC_FL" transform="matrix( 0.9999847412109375, 0, 0, 0.9999847412109375, 0,0) "/>

<g id="colorMC2_FL" transform="matrix( 1, 0, 0, 1, 0,0) "/>
</g>

<g id="hat3" transform="matrix( 0.96026611328125, -0.2753753662109375, 0.2753753662109375, 0.96026611328125, 26,48.4) ">
<g id="colorMC_FL_FL" transform="matrix( 0.9999847412109375, 0, 0, 0.9999847412109375, 0,0) "/>

<g id="colorMC2_FL_FL" transform="matrix( 1, 0, 0, 1, 0,0) "/>
</g>

<g id="hat4" transform="matrix( 0.944580078125, -0.3252410888671875, 0.3252410888671875, 0.944580078125, 18.85,34.5) ">
<g id="colorMC_FL_FL_FL" transform="matrix( 0.9999847412109375, 0, 0, 0.9999847412109375, 0,0) "/>

<g id="colorMC2_FL_FL_FL" transform="matrix( 1, 0, 0, 1, 0,0) "/>
</g>
</g>

<g transform="matrix( 1, 0, 0, 1, -75.4,-101.9) ">
<g transform="matrix( 1, 0, 0, 1, 0,0) ">
<use xlink:href="#Parts_Heads_headColorMC_15_Layer1_0_FILL"/>
</g>
</g>

<g transform="matrix( 1, 0, 0, 1, -62.75,-76.85) ">
<g transform="matrix( 1, 0, 0, 1, 0,0) ">
<g transform="matrix( 1, 0, 0, 1, 0,0) ">
<use xlink:href="#Graphics_Symbol_783_0_Layer0_0_FILL"/>
</g>
</g>
</g>
</svg>
