
<svg xmlns="http://www.w3.org/2000/svg" version="1.1" xmlns:xlink="http://www.w3.org/1999/xlink" preserveAspectRatio="none" x="0px" y="0px" width="550px" height="400px" viewBox="0 0 550 400">
<defs>
<g id="Graphics_Symbol_766_0_Layer0_0_FILL">
<path fill="#000000" stroke="none" d="
M 76.5 85.8
L 77.5 86.5 77.2 84.3 76.55 84.4
Q 75.6 84.15 74.65 81.15
L 74.1 79
Q 71.4 76.75 67 76.75 65.4 76.75 64 79.15 61.9 82.6 61 90.25
L 62 90.75
Q 63.5 85.8 64.5 83.5 66.25 79.5 70.25 79.5
L 71.45 80.85 76.5 85.8
M 24.3 13.65
Q 12.95 0.65 0.95 0.65
L -0.65 0.7 -0.45 0.8
Q 20.55 11.1 30.8 28.3 34.1 33.9 38.15 43.6
L 43.85 56.8 44.65 56.25
Q 37.35 28.55 24.3 13.65 Z"/>
</g>

<g id="MovieClips_Symbol_768_0_Layer0_0_FILL">
<path fill="#000000" stroke="none" d="
M 103.15 42.05
Q 103.15 28.45 97.65 21.95 93.7 17.25 88.4 17.25 81.2 17.25 76.1 20.85
L 71.85 24.2
Q 69.2 26.25 66.65 27.5 61.95 12.45 58.05 6.45 53.8 0 47.9 0 40.35 0 32.55 2.35 24.75 4.7 22.15 7.75
L 22.1 7.6 21.7 8.1 21.9 8.5 22.1 8.65
Q 18.9 9.9 12.75 15.95 5.6 23 1.55 30.35 2.3 30.35 7.15 25.3 3.45 33.25 2.5 36.35 0 44.65 0 56.4 0 72.7 6 86.5 13.2 103.1 25.05 103.1 32.2 103.1 40.15 101.35 52.65 98.6 60.3 92.35 59.8 92.15 57.05 93.05
L 53.05 94.6 53.05 94.5 84.35 69.9 79.65 74.75
Q 82.25 74.35 87.8 68.65 95.4 60.95 98.65 58.5
L 95.9 60.25 98.75 56.85 98.65 58.25 101.15 58.5
Q 101.95 58.5 102.6 51.8 103.15 46.15 103.15 42.05
M 97.2 29.75
Q 99.65 36.15 99.65 40.7 99.65 51.6 99.35 53.55 98.9 56.95 96.3 59.15
L 86.95 65.85
Q 78.1 72.35 68 81.8 59.35 89.9 54.5 92.9
L 51.9 94.55 51.8 94.55 52.6 94
Q 24.3 100.85 20.6 98.85 16.35 96.55 12.7 92.8 3.05 82.8 3.05 68.6 5.75 40.55 6.6 34.8
L 6.8 33.35 4.7 35.75 4.05 36.7
Q 3.35 32.85 8.2 25.65 15.3 15.25 31.3 4.85 27.05 6.3 22.9 8.25
L 22.15 8.65
Q 24.05 5.8 31.45 3.85 38.45 2 46 2 54.4 2 60.1 14.7
L 64.2 25.3
Q 66.45 31.6 67.9 34 72.05 27.55 74.45 25.35 79.8 20.25 87.15 20.25 93.6 20.25 97.2 29.75 Z"/>
</g>

<g id="Graphics_Symbol_806_0_Layer1_0_FILL">
<path fill="#000000" fill-opacity="0.25098039215686274" stroke="none" d="
M 91.6 84
Q 88.25 73.1 84.95 65.85 78.6 52 69.7 52 59.75 52 52.65 54.5 47.25 56.45 45.8 58.65 46.95 58.85 49.65 57.65
L 54.35 55.5
Q 40.5 64.1 32.6 74.5 26.4 82.7 27.05 86.4
L 27.7 86.45 29.85 84 27.7 97.25
Q 26.1 108.45 26.1 119.25 26.1 133.45 35.75 143.45 39.4 147.2 43.65 149.5 47.35 151.5 49.75 151.5 59.35 151.5 69.65 146.85 79.25 142.5 87.6 135.05 96.5 127.15 106.1 119.7 115.7 112.25 118.85 110.25 122 108.2 122.7 103.75 123.35 99.25 123.35 91.6 123.35 86.3 120.9 79.75 117.35 70.25 110.85 70.25 99.5 70.25 91.6 84
M 96.35 98.3
L 99.4 92.9
Q 103.9 85 111.5 85 114.45 85 115.3 90.25 115.6 92.2 115.6 97.75 115.6 104.6 114.3 107.1 112.8 110 108.5 110
L 104.85 107.5
Q 100.9 105 99 105 93.95 105 89.55 110.85 87.5 113.55 82.1 123.75 77.35 132.7 73.6 136.65 68 142.5 60.95 142.5 52.85 142.5 48.1 133.65 42.75 123.65 42.75 103.85 42.75 92.15 48.85 81.55 55.05 70.75 62.25 70.75 71 70.75 75.25 75.45 78.05 78.55 79.85 85.75 81.85 93.8 83.25 96.05 86.15 100.75 92.65 100.75 94.7 100.75 96.35 98.3 Z"/>
</g>

<g id="Graphics_Symbol_806_0_Layer0_0_FILL">
<path fill="#FFFFFF" fill-opacity="0.25098039215686274" stroke="none" d="
M 73.2 90.2
Q 71.75 87.05 69.05 87.05 66.35 87.05 62.05 91.65 56.1 98.05 56.1 108.05 56.1 116.1 56.6 118.45 58.2 125.95 64.35 125.95 65.75 125.95 69.3 120.7 72 116.7 73.2 114.2 73.7 113.15 74.2 109.4 74.8 105 74.8 100.65 74.8 93.65 73.2 90.2
M 114.4 94.05
Q 114.35 93.4 113.35 92.35 111.45 90.3 106.95 88.25 105.45 90.25 104.65 91.6 103.1 94.15 103.1 97.6 103.1 100.75 103.3 101.5 103.6 102.55 104.75 102.55 114.4 102.55 114.4 94.05 Z"/>
</g>

<g id="MovieClips_Symbol_727_0_Layer0_0_FILL">
<path fill="#6479CE" stroke="none" d="
M 97.35 25.25
Q 94.15 16.3 85.3 16.5 76.45 16.7 72.85 20.65
L 67.05 27.1
Q 64.85 29.6 62.75 22.55 60.65 15.5 56.55 6.8 52.4 -1.9 43.15 -1.25 33.9 -0.6 26.95 2.25 19.95 5.1 19.7 6.65
L 22.45 5.7
Q 26.25 4.2 19.5 8.3 8.95 14.75 4.65 23.15 0.3 31.5 0.5 36.85
L 1.65 34.4
Q 2.65 35.35 3.2 35.15
L 1.05 46.45
Q 2.7 39.2 0 67.25 0 68.75 0.8 74.4 1.6 80.05 7.05 89.9 12.45 99.75 20.8 99.65 29.15 99.5 39.4 97.1 49.8 94.7 49.8 93.3 49.8 93 59.2 85.3
L 75.65 71.7
Q 81.05 67.05 87.25 62.4
L 96.45 55.3
Q 99.5 52.85 99.3 50.35 99.05 47.8 99.8 41 100.5 34.15 97.35 25.25 Z"/>
</g>
</defs>

<g transform="matrix( 1, 0, 0, 1, -62.75,-76.85) ">
<g transform="matrix( 1, 0, 0, 1, 0,0) ">
<g transform="matrix( 1, 0, 0, 1, 0,0) ">
<use xlink:href="#Graphics_Symbol_766_0_Layer0_0_FILL"/>
</g>
</g>

<g transform="matrix( 1, 0, 0, 1, 23.05,50.65) ">
<g transform="matrix( 1, 0, 0, 1, 0,0) ">
<use xlink:href="#MovieClips_Symbol_768_0_Layer0_0_FILL"/>
</g>
</g>

<g transform="matrix( 1, 0, 0, 1, 0,0) ">
<g transform="matrix( 1, 0, 0, 1, 0,0) ">
<use xlink:href="#Graphics_Symbol_806_0_Layer1_0_FILL"/>
</g>

<g transform="matrix( 1, 0, 0, 1, 0,0) ">
<use xlink:href="#Graphics_Symbol_806_0_Layer0_0_FILL"/>
</g>
</g>

<g id="hat1" transform="matrix( 0.983917236328125, -0.17529296875, 0.17529296875, 0.983917236328125, 45.2,78.25) ">
<g id="colorMC" transform="matrix( 0.9999847412109375, 0, 0, 0.9999847412109375, 0,0) "/>

<g id="colorMC2" transform="matrix( 1, 0, 0, 1, 0,0) "/>
</g>

<g id="hat2" transform="matrix( 0.9733734130859375, -0.2247314453125, 0.2247314453125, 0.9733734130859375, 38,60.6) ">
<g id="colorMC_FL" transform="matrix( 0.9999847412109375, 0, 0, 0.9999847412109375, 0,0) "/>

<g id="colorMC2_FL" transform="matrix( 1, 0, 0, 1, 0,0) "/>
</g>

<g id="hat3" transform="matrix( 0.96026611328125, -0.2753753662109375, 0.2753753662109375, 0.96026611328125, 26,48.4) ">
<g id="colorMC_FL_FL" transform="matrix( 0.9999847412109375, 0, 0, 0.9999847412109375, 0,0) "/>

<g id="colorMC2_FL_FL" transform="matrix( 1, 0, 0, 1, 0,0) "/>
</g>

<g id="hat4" transform="matrix( 0.944580078125, -0.3252410888671875, 0.3252410888671875, 0.944580078125, 18.85,34.5) ">
<g id="colorMC_FL_FL_FL" transform="matrix( 0.9999847412109375, 0, 0, 0.9999847412109375, 0,0) "/>

<g id="colorMC2_FL_FL_FL" transform="matrix( 1, 0, 0, 1, 0,0) "/>
</g>
</g>

<g transform="matrix( 1, 0, 0, 1, -75.4,-101.9) ">
<g transform="matrix( 1, 0, 0, 1, 25.45,52.75) ">
<g transform="matrix( 1, 0, 0, 1, 0,0) ">
<use xlink:href="#MovieClips_Symbol_727_0_Layer0_0_FILL"/>
</g>
</g>
</g>

<g transform="matrix( 1, 0, 0, 1, -62.75,-76.85) ">
<g transform="matrix( 1, 0, 0, 1, 0,0) ">
<g transform="matrix( 1, 0, 0, 1, 0,0) ">
<use xlink:href="#Graphics_Symbol_766_0_Layer0_0_FILL"/>
</g>
</g>

<g transform="matrix( 1, 0, 0, 1, 23.05,50.65) ">
<g transform="matrix( 1, 0, 0, 1, 0,0) ">
<use xlink:href="#MovieClips_Symbol_768_0_Layer0_0_FILL"/>
</g>
</g>
</g>
</svg>
