
<svg xmlns="http://www.w3.org/2000/svg" version="1.1" xmlns:xlink="http://www.w3.org/1999/xlink" preserveAspectRatio="none" x="0px" y="0px" width="550px" height="400px" viewBox="0 0 550 400">
<defs>
<g id="Graphics_Symbol_599_0_Layer0_0_FILL">
<path fill="#FFFFFF" stroke="none" d="
M -21.2 84.05
L -22.2 84.4 -24.4 85.35 -26 85.75 -30.2 87.5
Q -34.25 89.9 -34.25 93.25 -34.25 94.7 -33.1 95.1
L -21.25 95.7 -19.75 95.95 -17 95.85 -16.15 92.85 -15.75 90.4
Q -15.75 89.3 -16.2 87.85 -16.9 85.45 -18.55 83.8
L -21.2 84.05
M 54.25 12.15
L 48.4 8.05
Q 42.3 3.7 38.15 3.7
L 32.65 4 32.75 5.65
Q 32.75 6.7 29.75 8.45 29.95 9.2 34.7 15.35 39.9 22.75 42.25 29
L 35.4 28.55 33.1 28.65 32.95 29.1 32.75 30.1
Q 32.75 31.25 33.95 33.1
L 39.75 41
Q 35.15 41.3 33.95 41.85 32.75 42.35 32.75 44.15
L 34.25 48.25
Q 35.85 52.3 36.25 55.5 33.15 56.9 32.9 57.3 31.75 58.9 31.75 65.15 32.1 68.35 32.55 98.45 32.55 99.3 32.9 100.8
L 33.25 102.85
Q 33.05 127.75 33.65 130.3
L 34.15 131.35
Q 34.5 132.25 34.65 136.4 34.7 138.85 35.35 141.85 35.95 144.6 36.25 144.6
L 38.85 147.2
Q 41.7 149.75 43.25 149.75 48.45 148.95 49.8 148.4 52.4 147.05 55.15 141.15 58.25 134.45 58.25 127.85
L 57.8 124.85
Q 57.3 121.7 57.25 118.25 56.9 98.3 57.05 87.15
L 57.15 77 57.15 75.25
Q 57.95 74 58.75 71.65
L 58.8 73.2 60.15 73
Q 59.6 71.3 59.6 69.75 59.6 66.75 62.45 66
L 61.55 60.85
Q 60.7 56.2 60.8 55.1
L 61 53.5 66.75 54 63.15 45.25 59.5 36.75
Q 59.9 35.75 60.8 35.75
L 63.85 36.1 65.35 37.5 67.45 37.5
Q 64.75 29.2 62.25 23.05 57.4298828125 11.2728515625 54.15 11.15 54.53828125 11.178125 54.3 11.75
L 54.25 12.15 Z"/>
</g>

<g id="Graphics_Symbol_635_0_Layer2_0_FILL">
<path fill="#000000" stroke="none" d="
M 52.6 7.7
Q 50.35 5.95 47.35 4.2 41.35 0.7 37.35 0.7 20.2 0.7 12.5 26.9 7.3 44.6 7.3 68.85 7.3 71.4 8.4 74.05 9.45 76.7 9.45 78.15
L 8.75 110.85 8 105.4
Q 8.25 111.2 7.95 113.65 7.95 116.85 9 131.25
L 9.85 130.75 11.35 136
Q 11.05 136.3 9.9 139.2 8.55 142.45 7.2 144.6 2.4 152 -6.3 152 -10.8 152 -13 150.25 -15.45 148.3 -15.45 143.85 -15.45 136.1 -13.45 129.5 -12.25 125.5 -9.1 118.95 -5.9 112.3 -4.75 108.55 -2.75 102.15 -2.75 94.65 -2.75 88.5 -6.55 84.9 -10.85 80.85 -19.35 80.85 -26.85 80.85 -31.55 83.85 -36.75 87.2 -36.75 93.35 -36.75 95.85 -33.3 97.1 -31.15 97.9 -25.75 98.6 -20.1 99.3 -18.2 99.9 -14.75 101 -14.75 103.15 -14.75 105.65 -16.6 109.25
L -20.75 116.75
Q -26.75 128.45 -26.75 143.3 -26.75 151.05 -24.35 156.1 -20.3 164.75 -10 164.75 -1.55 164.75 6.5 161.05 14.9 157.2 18.45 151.25 20.9 155.2 24.4 156.7 26.9 157.75 30.7 157.75 44.35 157.75 52.15 150.6 60.75 142.7 60.75 127.35
L 59.75 103.6
Q 60.4 88.3 60.25 86.1
L 60.05 80.65
Q 59.85 77.6 59 77 59.05 76.35 59.2 76.15
L 59.55 76.05 62.15 76.1
Q 61.95 71.85 61.45 69 63.3 69.25 64 68.3 64.45 67.8 64.45 67
L 62.8 56.25 67.35 56.65
Q 68.45 56.4 68.45 54.15 68.45 50.2 66.3 46.5
L 62.15 39 62.65 39.2 64.75 39.8 67.1 40.25
Q 69.1 40.25 69.55 39.7
L 69.75 38.45
Q 69.75 36.8 68.6 33.85
L 64.5 24.3
Q 56.35 7.7 52.6 7.7
M 48.4 8.05
L 54.25 12.15 54.3 11.75
Q 54.53828125 11.178125 54.15 11.15 57.4298828125 11.2728515625 62.25 23.05 64.75 29.2 67.45 37.5
L 65.35 37.5 63.85 36.1 60.8 35.75
Q 59.9 35.75 59.5 36.75
L 63.15 45.25 66.75 54 61 53.5 60.8 55.1
Q 60.7 56.2 61.55 60.85
L 62.45 66
Q 59.6 66.75 59.6 69.75 59.6 71.3 60.15 73
L 58.8 73.2 58.75 71.65
Q 57.95 74 57.15 75.25
L 57.15 77 57.05 87.15
Q 56.9 98.3 57.25 118.25 57.3 121.7 57.8 124.85
L 58.25 127.85
Q 58.25 134.45 55.15 141.15 52.4 147.05 49.8 148.4 45 151.85 41.7 153.1 36.7 155 29.1 155 25.55 155 22.7 151.55
L 19.4 146.6 17.55 147.1
Q 16.35 147.35 16.35 147.95 16.35 151.25 5.85 157.65
L 5.15 154.7
Q 4.4 152.3 3.75 151.3 7.1 148.05 10.55 143.6 14.5 138.5 14.5 136.7 14.5 131.8 12.65 126.8 10.75 121.85 10.75 120.05 11.45 95.55 11.7 91.4 19.25 86.85 19.25 84.2 19.25 83 18.95 82.5 18.5 81.85 16.95 81.2 16.35 80.95 15.05 76.25 13.75 71.7 13.75 70.3 13.75 70.15 14.5 68.75
L 15.25 67.3 15 66
Q 12.8 66.6 11.25 68.3
L 10.75 56.45 10.5 51.4
Q 10.5 49.2 11.25 47.35 12 45.45 12 44.75 11 41.35 11 40.3 11 36.2 12.65 32.15
L 18.05 20.8 18.35 21.5
Q 18.4 21.75 19 21.75 20.75 21.75 22.15 19.15 23.25 17.1 23.25 16.1
L 22.8 14.95
Q 22.35 14.25 22.35 13.75 22.35 12.95 23.85 11.15 25.4 9.25 26.1 9.25 26.3 9.25 26.7 9.55 27.5 9.65 29.75 8.45 32.75 6.7 32.75 5.65
L 32.65 4 38.15 3.7
Q 42.3 3.7 48.4 8.05
M 0.6 153.2
Q 0.6 155.3 1.75 159.7 1.75 160.75 -4 161.45
L -10.05 162
Q -13.1 162 -15.65 161.2 -19.7 159.9 -21.1 156.85 -15.85 152.85 -14.35 152.85
L -11.4 153.8
Q -8.45 154.75 -6.25 154.75
L 0.6 153.2
M -22.2 84.4
L -21.2 84.05 -18.55 83.8 -16.65 83.35 -15.05 83
Q -10.75 83 -8.2 86.3 -5.65 89.55 -5.25 95.4
L -6.25 95.25
Q -7.9 95.8 -10.75 97.3 -13.05 98.5 -13.8 98.5
L -14.95 97.6
Q -15.95 96.45 -17 95.85
L -19.75 95.95 -21.25 95.7 -33.1 95.1
Q -34.25 94.7 -34.25 93.25 -34.25 89.9 -30.2 87.5
L -26 85.75 -24.4 85.35 -22.2 84.4
M -15.35 110.65
Q -13.8 106.05 -11.5 104.35
L -5.9 103.1
Q -6.9 108 -8.3 111.45
L -12 119.2
Q -12.85 118.65 -14.75 118.4
L -17.2 118.3 -18.2 117.65
Q -17.3 116.3 -15.35 110.65
M -24 148.15
L -24.25 143.6
Q -22.2 127.35 -21.4 124.7 -20.05 125.45 -18.15 125.8
L -15.05 126.2
Q -17.2 131.75 -17.65 138.95
L -17.7 148.05 -20.9 147.85 -24 148.15
M 32.75 117.5
Q 32.75 114.35 30.4 113.2 28.2 112.1 25.25 113.25 22.15 114.45 20.1 117.5 17.75 121 17.75 125.8 17.75 128 18.9 129.4 20.05 130.75 21.7 130.75 26.35 130.75 29.7 126.15 32.75 122 32.75 117.5
M 18.4 42.35
Q 16.25 42.35 13.95 44.25 11.25 46.55 11.25 49.9
L 11.3 52 12.65 52.25 14.4 51.4 17 50.1
Q 17.45 50.45 17.45 54.05 17.45 55.35 18.9 56.1 20.15 56.75 21.55 56.75 24.4 56.75 25.55 55 26.25 54 26.25 52.75 26.25 51.2 24.2 47.35 21.6 42.35 18.4 42.35 Z"/>
</g>

<g id="Graphics_Symbol_635_0_Layer1_0_FILL">
<path fill="#000000" fill-opacity="0.25098039215686274" stroke="none" d="
M 61.7 78.15
L 61.5 78.1 61.65 78.6 61.7 78.15
M 68.05 39.1
L 69.05 38.6
Q 68.6 37.8 66.9 31.75 64.8 24.45 57.65 13.1 50.4 1.75 38.05 1.75 34.55 1.75 29.75 4.35 24 7.5 16.85 19.45 9.65 31.35 8.75 47.05 7.85 62.75 8.75 72.75 9.6 82.75 10 94.15 10 96.15 11.5 115.05 12.95 133.95 12.95 138.6 12.95 142.65 6.05 147.95 -0.75 153.2 -5.75 153.2 -12.25 153.2 -14.2 151.8 -16.05 150.5 -17.05 145.95 -18.05 141.35 -10.65 118.7 -3.25 96.05 -3 93.85 -2.75 91.6 -6.45 87 -10.75 81.7 -16.5 81.7 -21.65 81.7 -27.4 83.75 -35.75 86.75 -35.75 92.25 -35.75 94.25 -33.45 95.95 -31.2 97.6 -22.65 97.25 -14.1 96.9 -14.15 99.55 -14.25 102.2 -17.9 112.55 -21.55 122.8 -23.25 128.5
L -23.5 129.4 -23.75 130.15 -23.5 130.45
Q -23.55 133.5 -24.4 135.05 -26.55 137.25 -26.55 148.3 -26.55 156.75 -21.25 160.35 -17 163.25 -8.9 163.25 -0.4 163.25 6.15 159.75 11.05 157.1 18.8 149.8 20.55 153.85 21.75 154.6 23 155.35 27.7 155.35 39.75 155.35 48.55 150.45 59.75 144.15 59.75 131.85 59.75 129.85 58.5 121.15
L 57.25 112.75
Q 57.25 103.3 58.75 95.3
L 60.35 86.6 60.2 85.8 60.25 82.6 59.25 79.9
Q 58.75 78.5 58.75 77.35 58.75 75.65 61.25 75.5
L 61.25 73.7
Q 61.25 72.15 61.5 71
L 61.5 70
Q 61.5 68.05 62.9 68.25
L 63 68.3 63.05 68.25 63.25 65.7
Q 63.25 63.15 62.25 56.5 66.05 56.3 67.3 55.3 68.55 54.25 68.95 52.8 69.35 51.3 64.2 44.95 59.05 38.6 64.75 39
L 68.05 39.1
M 53.9 46.35
Q 53.25 47.5 53.25 49.3 53.25 51.6 54.55 54.2
L 55.85 56.5
Q 55.85 57 54.3 59.35 52.75 61.7 52.75 62.4 52.75 64.4 53.7 65.35
L 54.6 66
Q 54.6 68.1 53.2 70.3
L 51.75 72.15 52.25 75.65 52.75 79.15 51 89.6
Q 49.25 101.75 49.25 114.35 49.25 115.9 50.45 120.1
L 51.6 125.1
Q 51.6 138.55 47.15 145.4 43.35 151.3 37.15 151.3 36.5 151.3 30.9 149.35 25.65 147.45 20.3 144.7
L 18.75 144.25
Q 15.05 146.5 11.85 149.85
L 7.1 154.95
Q 1.5 160.1 -10.75 160.1 -13.85 160.1 -16.1 158.7
L -23.9 152.25
Q -21.6 151.65 -21.15 151.3 -20.75 150.95 -20.75 149.7 -20.75 147.15 -21.95 139.2
L -20.95 137.2
Q -19.4 134.1 -19.85 132 -16.6 119.9 -12.75 110.85 -10.75 106.1 -10.75 100.6 -10.75 97 -12.55 95.55 -13.95 94.45 -17.2 94.3
L -23.5 94.15
Q -27.45 93.9 -30.25 92.5 -29.35 88.65 -23.7 86.75 -19.65 85.35 -15.25 85.35 -12.8 85.35 -9.2 89.8 -5.75 94.1 -5.75 96.55
L -13 116.25
Q -20.25 136.7 -20.25 141
L -18.65 145.3
Q -17.05 150.05 -17.05 152.45 -17.05 153.2 -17.2 153.55 -17.45 154 -18.25 154.25
L -7.6 156.75
Q 3.1 156.75 10.65 148.45 19.25 138.95 19.25 122.55 19.25 110.3 17.75 96.5 16.25 82.7 16.25 81.4 16.25 13 38.1 13 44.2 13 48.8 16.75 53.55 20.55 56.25 28 54.2 28.2 53.55 29.3 53.25 29.75 53.25 30.5 53.25 31 54.4 35.05 55.8 39.95 56.6 45.5 54.8 44.8 53.9 46.35 Z"/>
</g>

<g id="Graphics_Symbol_635_0_Layer0_0_FILL">
<path fill="#FFFFFF" fill-opacity="0.25098039215686274" stroke="none" d="
M 41.25 27.2
Q 42.25 27.1 42.25 26.2 42.25 24.25 39.25 20.45 35.65 15.95 31.6 15.2 30.75 15.65 30.75 16.85 30.75 19.4 32.05 20.15
L 34.35 20.55
Q 34.8 20.55 35.8 21.25 37.1 22.2 37.5 23.5
L 38.1 24.5 33.3 24.05
Q 30.3 24.05 28.25 25.55 26.75 26.7 26.75 27.35
L 33.25 36
Q 29.8 36.05 27.95 37.05 26.25 37.95 26.25 39.5
L 32.1 51.5 30.75 60.65
Q 29.4 69.35 29.25 75.05
L 28.75 98.75
Q 28.75 108.15 29.75 118.3
L 30.7 129.6
Q 30.7 134.45 31.6 136.2 32.15 137.25 33.2 137.25
L 34.1 137.15 34.25 136.25 32.75 120.55
Q 31.25 104.85 31.25 98.9 31.25 77.65 33 63.5 34.75 53.3 34.75 51.65 34.75 51 33.65 48.9 31.6 45 29.25 39.5 34.75 39.3 36.25 38.6 37.25 38.15 37.25 36.8 37.25 36.35 30.6 27.3
L 41.25 27.2 Z"/>
</g>

<g id="MovieClips_Symbol_585_13_Layer0_0_FILL">
<path fill="#FF9933" stroke="none" d="
M 26.1 9.25
Q 25.4 9.25 23.85 11.15 22.35 12.95 22.35 13.75
L 22.35 13.9
Q 20.25 16.3 18.2 21.05
L 18.05 20.8 12.65 32.15
Q 11 36.2 11 40.3 11 41.35 12 44.75 12 45.45 11.25 47.35 10.5 49.2 10.5 51.4
L 11.2 66.45 11.1 66.65
Q 10.55 68.15 10.55 69.3
L 11.55 81.3 11.05 92 11.3 95.75 11.5 95.8 10.75 120.05
Q 10.75 121.85 12.65 126.8 14.5 131.8 14.5 136.7 14.5 138.5 10.55 143.6 7.1 148.05 3.75 151.3
L 4.5 152.85 0.6 153.2 -6.25 154.75
Q -8.45 154.75 -11.4 153.8
L -14.35 152.85
Q -15.5 152.85 -18.7 155.1 -20.2 147.8 -17.7 148.05
L -17.65 138.95
Q -17.2 131.75 -15.05 126.2
L -16.6 126 -12 119.2 -8.3 111.45
Q -6.9 108 -5.9 103.1
L -7.8 103.6
Q -6.9 100.8 -6.25 95.25
L -5.25 95.4
Q -5.65 89.55 -8.2 86.3 -10.75 83 -15.05 83
L -18.55 83.8
Q -16.9 85.45 -16.2 87.85 -15.75 89.3 -15.75 90.4
L -16.15 92.85 -17 95.85
Q -15.95 96.45 -14.95 97.6 -14.15 98.5 -13.5 102.2 -13.15 104.05 -12.35 105.1 -14.1 106.95 -15.35 110.65 -17.3 116.3 -18.2 117.65
L -17.2 118.3
Q -18.5 122.95 -19 125.6 -20.35 125.25 -21.4 124.7 -22.2 127.35 -24.25 143.6
L -24 148.15 -20.3 156.3 -21.1 156.85
Q -20.2 158.8 -18.25 160
L -17.85 160.25 -15.65 161.2
Q -13.1 162 -10.05 162
L -4 161.45
Q 1.75 160.75 1.75 159.7 4.4 157.25 5.45 155.7
L 5.85 157.65
Q 16.35 151.25 16.35 147.95 16.35 147.35 17.55 147.1
L 19.4 146.6 22.7 151.55
Q 25.55 155 29.1 155 36.7 155 41.7 153.1 45 151.85 49.8 148.4 48.45 148.95 43.25 149.75 41.7 149.75 38.85 147.2
L 36.25 144.6
Q 35.95 144.6 35.35 141.85 34.7 138.85 34.65 136.4 34.5 132.25 34.15 131.35
L 33.65 130.3
Q 33.05 127.75 33.25 102.85
L 32.9 100.8
Q 32.55 99.3 32.55 98.45 32.1 68.35 31.75 65.15 31.75 58.9 32.9 57.3 33.15 56.9 36.25 55.5 35.85 52.3 34.25 48.25
L 32.75 44.15
Q 32.75 42.35 33.95 41.85 35.15 41.3 39.75 41
L 33.95 33.1
Q 32.75 31.25 32.75 30.1
L 32.95 29.1 33.1 28.65 35.4 28.55 42.25 29
Q 39.9 22.75 34.7 15.35 29.95 9.2 29.75 8.45 27.5 9.65 26.7 9.55 26.3 9.25 26.1 9.25 Z"/>
</g>
</defs>

<g transform="matrix( 1, 0, 0, 1, -33.5,-72.6) ">
<g transform="matrix( 1, 0, 0, 1, 0,0) ">
<g transform="matrix( 1, 0, 0, 1, 0,0) ">
<use xlink:href="#Graphics_Symbol_599_0_Layer0_0_FILL"/>
</g>
</g>

<g transform="matrix( 1, 0, 0, 1, 0,0) ">
<g transform="matrix( 1, 0, 0, 1, 0,0) ">
<use xlink:href="#Graphics_Symbol_635_0_Layer2_0_FILL"/>
</g>

<g transform="matrix( 1, 0, 0, 1, 0,0) ">
<use xlink:href="#Graphics_Symbol_635_0_Layer1_0_FILL"/>
</g>

<g transform="matrix( 1, 0, 0, 1, 0,0) ">
<use xlink:href="#Graphics_Symbol_635_0_Layer0_0_FILL"/>
</g>
</g>
</g>

<g transform="matrix( 1, 0, 0, 1, -32.9,-71.25) ">
<g transform="matrix( 1, 0, 0, 1, 0,0) ">
<use xlink:href="#MovieClips_Symbol_585_13_Layer0_0_FILL"/>
</g>
</g>

<g transform="matrix( 1, 0, 0, 1, -33.5,-72.6) ">
<g transform="matrix( 1, 0, 0, 1, 0,0) ">
<g transform="matrix( 1, 0, 0, 1, 0,0) ">
<use xlink:href="#Graphics_Symbol_599_0_Layer0_0_FILL"/>
</g>
</g>
</g>
</svg>
