
<svg xmlns="http://www.w3.org/2000/svg" version="1.1" xmlns:xlink="http://www.w3.org/1999/xlink" preserveAspectRatio="none" x="0px" y="0px" width="550px" height="400px" viewBox="0 0 550 400">
<defs>
<g id="Graphics_Symbol_599_0_Layer0_0_FILL">
<path fill="#FFFFFF" stroke="none" d="
M -21.2 84.05
L -22.2 84.4 -24.4 85.35 -26 85.75 -30.2 87.5
Q -34.25 89.9 -34.25 93.25 -34.25 94.7 -33.1 95.1
L -21.25 95.7 -19.75 95.95 -17 95.85 -16.15 92.85 -15.75 90.4
Q -15.75 89.3 -16.2 87.85 -16.9 85.45 -18.55 83.8
L -21.2 84.05
M 54.25 12.15
L 48.4 8.05
Q 42.3 3.7 38.15 3.7
L 32.65 4 32.75 5.65
Q 32.75 6.7 29.75 8.45 29.95 9.2 34.7 15.35 39.9 22.75 42.25 29
L 35.4 28.55 33.1 28.65 32.95 29.1 32.75 30.1
Q 32.75 31.25 33.95 33.1
L 39.75 41
Q 35.15 41.3 33.95 41.85 32.75 42.35 32.75 44.15
L 34.25 48.25
Q 35.85 52.3 36.25 55.5 33.15 56.9 32.9 57.3 31.75 58.9 31.75 65.15 32.1 68.35 32.55 98.45 32.55 99.3 32.9 100.8
L 33.25 102.85
Q 33.05 127.75 33.65 130.3
L 34.15 131.35
Q 34.5 132.25 34.65 136.4 34.7 138.85 35.35 141.85 35.95 144.6 36.25 144.6
L 38.85 147.2
Q 41.7 149.75 43.25 149.75 48.45 148.95 49.8 148.4 52.4 147.05 55.15 141.15 58.25 134.45 58.25 127.85
L 57.8 124.85
Q 57.3 121.7 57.25 118.25 56.9 98.3 57.05 87.15
L 57.15 77 57.15 75.25
Q 57.95 74 58.75 71.65
L 58.8 73.2 60.15 73
Q 59.6 71.3 59.6 69.75 59.6 66.75 62.45 66
L 61.55 60.85
Q 60.7 56.2 60.8 55.1
L 61 53.5 66.75 54 63.15 45.25 59.5 36.75
Q 59.9 35.75 60.8 35.75
L 63.85 36.1 65.35 37.5 67.45 37.5
Q 64.75 29.2 62.25 23.05 57.4298828125 11.2728515625 54.15 11.15 54.53828125 11.178125 54.3 11.75
L 54.25 12.15 Z"/>
</g>
</defs>

<g transform="matrix( 1, 0, 0, 1, -33.5,-72.6) ">
<g transform="matrix( 1, 0, 0, 1, 0,0) ">
<g transform="matrix( 1, 0, 0, 1, 0,0) ">
<use xlink:href="#Graphics_Symbol_599_0_Layer0_0_FILL"/>
</g>
</g>
</g>
</svg>
