
<svg xmlns="http://www.w3.org/2000/svg" version="1.1" xmlns:xlink="http://www.w3.org/1999/xlink" preserveAspectRatio="none" x="0px" y="0px" width="550px" height="400px" viewBox="0 0 550 400">
<defs>
<g id="Layer0_0_FILL">
<path fill="#FFFFFF" stroke="none" d="
M 4.05 1.25
Q 4.15 0.8 3.8 0.4
L 3.3 0.1
Q 3.1 0 2.7 0 1.95 0.1 1.6 0.25 1.1 0.4 0.65 0.75
L 0.25 1.25 0.05 1.8
Q 0 1.95 0.05 2.1 0.1 2.25 0.2 2.2
L 0.4 2.15 0.55 2.15 1.4 1.85 1.6 1.8 1.65 1.8 1.8 1.75
Q 2.25 1.7 2.7 1.75
L 2.8 1.75 3.15 1.8 3.6 1.8
Q 3.9 1.8 4.05 1.25 Z"/>
</g>
</defs>

<g transform="matrix( 1, 0, 0, 1, 0,0) ">
<use xlink:href="#Layer0_0_FILL"/>
</g>
</svg>
