
<svg xmlns="http://www.w3.org/2000/svg" version="1.1" xmlns:xlink="http://www.w3.org/1999/xlink" preserveAspectRatio="none" x="0px" y="0px" width="550px" height="400px" viewBox="0 0 550 400">
<defs>
<g id="Graphics_Symbol_252_0_Layer0_0_FILL">
<path fill="#DE0000" stroke="none" d="
M 5.2 15.7
Q 5.75 14.85 5.8 12.7
L 5.55 11
Q 5.15 10.1 3.55 9.4 -1.15 9.7 -2.65 10.8 -3.6 11.6 -3.65 13.75
L -3.65 15.6
Q -2.95 17.3 0.7 17.35 4.1 17.4 5.2 15.7
M 21.95 18.7
Q 23.3 17.85 23.35 15.55 23.4 12 18.65 12.1 13.9 12.2 13.85 16.35 13.8 17.5 14.1 18.05 14.75 19.55 17 19.6 20.5 19.65 21.95 18.7
M 27.8 20.75
L 28.05 22.8
Q 29.15 25.1 32.85 25.15
L 34.15 25 35.35 25.2
Q 37.05 25.2 37.55 24.2
L 37.8 22.3 37.75 21.75
Q 37.45 20.2 35.5 19.6 34.45 18.45 32.1 18.2
L 31.05 18.1
Q 27.85 18.05 27.8 20.75
M 49.45 18.9
Q 45.5 19.75 45 21.6
L 44.9 22.1 44.85 23.6
Q 45.5 24.9 48.85 24.95 52.2 25 53.1 24.45 53.85 23.95 53.9 21.95
L 53.75 20.6
Q 53.1 18.15 49.45 18.9
M 64.1 10.2
Q 64.15 6.7 61.3 7
L 60.15 7.2 59.9 7.3
Q 59.6 10.5 57.95 13.25
L 57.65 13.8 59.05 13.95 60 13.9
Q 62 13.75 63.05 12.7 64.05 11.7 64.1 10.2 Z"/>
</g>

<g id="Graphics_Symbol_293_0_Layer3_0_FILL">
<path fill="#000000" stroke="none" d="
M 60.1 -3.5
Q 59.25 -3.5 57.7 -1.35 56 0.95 55.95 2.7
L 56.35 4.7 56.65 6.65
Q 56.6 10.85 53.55 13.2 50.85 15.3 46.9 15.25 33.95 15 28.45 9.4 25.35 6.25 24.15 5.55 21.2 3.8 15.95 3.7 7.65 3.55 4 1.25
L 1.7 -0.35
Q 0.3 -1.05 -1.7 -1.1 -6.75 -1.15 -10.15 13.85 -12.5 24.25 -12.6 29.8 -12.65 33.45 -11.95 34.6 -11.4 35.5 -9.65 35.55 0.55 35.7 3.8 34.3 6.6 33.1 8.05 30.65 11.95 34.9 14.6 35.05
L 20 35.25 41.5 35.6
Q 51.6 35.5 56.95 33.95 63.35 32.05 66.3 27.25 69.5 22.15 69.65 12.55 69.75 5.55 67.35 1.2 64.8 -3.45 60.1 -3.5
M 62.5 0.35
Q 65 0.35 65.95 7.05 66.45 10.6 66.35 14.35 66.15 27.9 54.95 30.95 50.45 32.2 42.65 32.25
L 27.45 32
Q 18.75 31.85 10.85 27.4
L 7.3 26.8 2.35 31.25 -9.2 32.05
Q -8.95 20.45 -5.85 12.8 -2.15 5.8 -0.8 2.4
L -0.75 2.35 8.05 5.75
Q 12.05 6.75 21.25 6.9 22 6.9 29.3 12.7 38.3 18.45 47.7 18.6 54.45 18.7 57.65 13.8
L 57.95 13.25
Q 59.6 10.5 59.9 7.3
L 59.9 6.3 59.6 4.5 59.2 2.7
Q 59.2 2.35 60.45 1.35 61.75 0.3 62.5 0.35 Z"/>
</g>

<g id="Graphics_Symbol_293_0_Layer2_0_FILL">
<path fill="#000000" fill-opacity="0.32941176470588235" stroke="none" d="
M 16.2 20.4
L 18.05 20.45
Q 20.75 20.45 22.45 17.8
L 19.2 18.45
Q 16.25 19.05 15.5 19.7
L 15.95 20.1 16.2 20.4
M 6.1 17.05
L 5.5 16.55 2.7 17
Q 0.4 17.1 -0.55 17.7
L 0.15 18.5 2.35 18.5
Q 3.25 18.6 4.45 18.1
L 6.1 17.05
M 38.3 23.8
L 38 23.8 30.5 24.9 30.65 25.45 33.4 25.65 36.9 25.2
Q 37.9 24.8 38.3 23.8
M 57.85 32.1
Q 59.4 31.1 60.5 29.45
L 51.9 29.7 44.8 30.5
Q 28.75 30.5 17 26.4 11.1 24.35 8.35 22.3 6.15 22.3 4.85 24.1
L 3.05 27.95
Q 0.75 33.25 -5.05 32.5
L -5.25 29.4 -4.35 25.35 -3.25 21.75 -1.4 17.2 2 10.35
Q 4.6 5.2 4.6 4.65 4.6 3.6 2.9 2.9 1.05 2.15 -2.25 2.15 -3.9 2.15 -7.45 13.75 -10.85 24.9 -10.85 28.55 -10.85 31.7 -10.1 32.65 -9.05 34.1 -5.2 34.1 -2.3 34.1 2.55 31.6 7.45 29.05 8.6 29.05 9.55 29.05 14 32.25 19.45 35.4 25.2 35.4
L 49.2 34.75 54.15 33.85
Q 56.5 33.05 57.85 32.1
M 51.85 24.45
Q 53.95 23.2 54.5 22.35 48.05 23.9 48.05 25.05 48.05 26.05 48.9 25.75 49.8 25.7 51.85 24.45
M 63.85 10.05
Q 62.85 10.9 61.95 12.25 61.1 13.5 60.85 14.35
L 61.1 14.4
Q 62.25 14.15 63.35 12.1 64.25 10.4 64.35 9.3
L 63.85 10.05
M 64.55 -0.8
Q 63.25 -1.75 61.9 -1.75 58.85 -1.75 58.15 0.2 57.45 2.15 57.45 6.65 57.45 11.15 54.15 13.45 50.85 15.75 46.3 15.75 33.6 15.75 28.8 10.4
L 25.2 6.7
Q 22.75 5 18.25 5
L 15.75 5.45 13.2 5.9 7.45 5.6 9.15 5.85 13.3 6.65 14.55 7.4 13.65 9.45 12.55 11.15 13.05 11.5 15.8 10.95 20.25 10.4
Q 24.15 10.4 32.3 14.85 40.45 19.3 47.6 19.3 56.65 19.3 59.55 10.6
L 61.05 4.6
Q 61.7 1.9 62.75 1.9 63.25 1.9 67.15 3.7 66.45 0.6 64.55 -0.8 Z"/>
</g>

<g id="Graphics_Symbol_293_0_Layer1_0_FILL">
<path fill="#FFFFFF" fill-opacity="0.5019607843137255" stroke="none" d="
M 20.05 13.95
Q 19.25 13.35 18.1 13.35 16.95 13.35 16.15 13.95 15.35 14.5 15.35 15.3 15.35 16.1 16.15 16.7 16.95 17.25 18.1 17.25 19.25 17.25 20.05 16.7 20.85 16.1 20.85 15.3 20.85 14.5 20.05 13.95
M 2.75 11.8
Q 1.95 11 0.8 11 -0.35 11 -1.15 11.8 -1.95 12.6 -1.95 13.75 -1.95 14.9 -1.15 15.7 -0.35 16.5 0.8 16.5 1.95 16.5 2.75 15.7 3.55 14.9 3.55 13.75 3.55 12.6 2.75 11.8
M 33.15 22.5
L 35.1 22.05
Q 35.9 21.55 35.9 20.85 35.9 20.15 35.1 19.7 34.3 19.2 33.15 19.2 32 19.2 31.2 19.7 30.4 20.15 30.4 20.85 30.4 21.55 31.2 22.05 32 22.5 33.15 22.5
M 49.75 19.7
Q 48.6 19.7 47.8 20.2 47 20.7 47 21.4 47 22.1 47.8 22.6 48.6 23.1 49.75 23.1 50.9 23.1 51.7 22.6 52.5 22.1 52.5 21.4 52.5 20.7 51.7 20.2 50.9 19.7 49.75 19.7
M 62 9.9
Q 62 9.05 61.2 8.5 60.4 7.9 59.25 7.9 58.1 7.9 57.3 8.5 56.5 9.05 56.5 9.9 56.5 10.75 57.3 11.35 58.1 11.9 59.25 11.9 60.4 11.9 61.2 11.35 62 10.75 62 9.9 Z"/>
</g>

<g id="Graphics_Symbol_293_0_Layer0_0_FILL">
<path fill="#FFFFFF" fill-opacity="0.5019607843137255" stroke="none" d="
M 14.8 10.6
Q 14.8 7.2 12.05 5.55 9.6 4.05 6 4.35 2.45 4.6 -0.1 6.35 -2.85 8.25 -2.85 10.9
L -2.75 12.85
Q -2.45 14.25 -1.25 14.75
L 0.55 14.75
Q 2.95 14.3 4.25 13.3 5.25 12.5 5.25 11.75 5.15 10.75 4.3 10.75
L 2.75 11.75
Q 1.15 12.75 -0.6 12.75 -1 12.75 -1.05 12.1
L -1 10.95
Q -1 9.4 0.05 8.3 1.95 6.35 6.75 6.35 12.9 6.35 12.9 10.65 12.9 14.65 9.85 16.45 8.25 17.4 3.15 18.55 -1.6 19.6 -3.55 21.1 -6.6 23.4 -6.6 28.3 -6.9 29.75 -5.6 29.75 -5.2 29.75 -4.35 27.6
L -3.3 25 -1.45 22.35
Q 0.55 20.75 5.35 20.35 10.1 19.95 12.8 16.2 14.8 13.4 14.8 10.6
M 28.35 12.25
Q 26.7 10 24.2 9.75 21.8 9.5 20.05 11.05 18.15 12.75 18.15 15.5
L 18.55 17.95
Q 19.45 20.35 21.65 20.35 23.35 20.35 23.35 19.3 23.35 18.75 21.7 18.05 20.05 17.4 20.05 15.4 20 14.5 20.35 13.6 20.95 11.9 22.7 11.9 27.3 11.9 28.25 15.35 28.75 17.15 28.3 19.3 28.3 22.9 25.8 24 24.2 24.75 19.85 24.75 18.85 24.75 15.9 23.35 12.95 21.9 11.7 21.9 7.15 21.9 3.4 23.35 -0.25 24.75 -0.25 26.3
L -0.25 27.15 0.6 27.5
Q 2.85 25.95 3.6 25.55 7 23.9 11.3 23.9 11.95 23.9 15.4 25.35 18.9 26.75 20.1 26.75 26.95 26.75 29.25 23.35 30.25 21.85 30.25 19.25 30.25 14.8 28.35 12.25
M 40.9 19.35
Q 45.5 19.35 45.5 23.2 45.55 24.35 44.8 25.4 43.35 27.55 39.3 27.55 24.3 27.55 22.35 27.7 21.2 27.8 21.2 28.1
L 21.4 28.75 21.7 29.2 22.4 29.6 28.5 29.6 41.7 29.1
Q 45.85 28.45 46.25 27.3
L 47.15 25.15 47.4 23.25
Q 47.4 18.1 41.85 17.4 39.6 17.1 38 18.05 36.25 19.1 36.25 21.1
L 36.4 22.35
Q 37.15 23.5 40.15 23.5
L 41.85 23.35
Q 42.35 23.15 42.35 22.55 42.35 21.95 41.4 21.55
L 38.2 21.25 38.1 21 38.3 19.9
Q 38.75 19.35 40.9 19.35
M 65.25 19.25
Q 65.25 16.2 63.45 14.8 61.9 13.6 59.55 14.05 57.25 14.45 55.6 16.15 53.8 17.95 53.8 20.3 53.8 20.9 53.95 21.1 54.25 21.5 55.25 21.85
L 58.5 21.85
Q 59.75 21.35 59.75 20.7 59.75 19.75 58.65 19.75
L 55.8 19.9 55.75 19.65
Q 55.75 19.05 56.85 17.7 58.35 15.9 60.5 15.9 61.95 15.9 62.8 17.35 63.4 18.35 63.4 19.15 63.4 23.7 54.15 27.45 44.85 30.35 44.85 30.65
L 44.9 31.25
Q 45.1 31.75 45.8 31.75 55 31.75 60.85 26.35 65.25 22.3 65.25 19.25
M 62.5 5
Q 63.2 4.95 63.8 5.5
L 64.3 6.35 64.15 8.95 64.1 12.55 64.45 12.75 65 12.8
Q 65.95 12.8 66.15 10.5
L 66.15 8
Q 66.15 3.35 63.2 2.8 60.25 2.3 60.25 7.05
L 60.45 7.9
Q 61 8.85 62.75 8.85 63.9 8.85 63.9 7.95
L 63.05 7.2
Q 62.15 6.55 62.15 6.3 62.15 5.8 62.5 5 Z"/>
</g>

<g id="MovieClips_Symbol_228_23_Layer1_0_FILL">
<path fill="#FFFFFF" stroke="none" d="
M 66.35 14.35
Q 66.45 10.6 65.95 7.05 65 0.35 62.5 0.35 61.75 0.3 60.45 1.35 59.2 2.35 59.2 2.7
L 59.9 6.3 59.9 7.3 60.15 7.2 61.3 7
Q 64.15 6.7 64.1 10.2 64.05 11.7 63.05 12.7 62 13.75 60 13.9
L 59.05 13.95 57.65 13.8
Q 54.45 18.7 47.7 18.6 38.3 18.45 29.3 12.7 22 6.9 21.25 6.9 12.05 6.75 8.05 5.75
L -0.75 2.35 -0.8 2.4
Q -2.15 5.8 -5.85 12.8 -8.95 20.45 -9.2 32.05
L 2.35 31.25 7.3 26.8 10.85 27.4
Q 18.75 31.85 27.45 32
L 42.65 32.25
Q 50.45 32.2 54.95 30.95 66.15 27.9 66.35 14.35
M 44.85 23.6
L 44.9 22.1 45 21.6
Q 45.5 19.75 49.45 18.9 53.1 18.15 53.75 20.6
L 53.9 21.95
Q 53.85 23.95 53.1 24.45 52.2 25 48.85 24.95 45.5 24.9 44.85 23.6
M 28.05 22.8
L 27.8 20.75
Q 27.85 18.05 31.05 18.1
L 32.1 18.2
Q 34.45 18.45 35.5 19.6 37.45 20.2 37.75 21.75
L 37.8 22.3 37.55 24.2
Q 37.05 25.2 35.35 25.2
L 34.15 25 32.85 25.15
Q 29.15 25.1 28.05 22.8
M 23.35 15.55
Q 23.3 17.85 21.95 18.7 20.5 19.65 17 19.6 14.75 19.55 14.1 18.05 13.8 17.5 13.85 16.35 13.9 12.2 18.65 12.1 23.4 12 23.35 15.55
M 5.8 12.7
Q 5.75 14.85 5.2 15.7 4.1 17.4 0.7 17.35 -2.95 17.3 -3.65 15.6
L -3.65 13.75
Q -3.6 11.6 -2.65 10.8 -1.15 9.7 3.55 9.4 5.15 10.1 5.55 11
L 5.8 12.7 Z"/>
</g>
</defs>

<g transform="matrix( 1, 0, 0, 1, -28.4,-10.7) ">
<g transform="matrix( 1, 0, 0, 1, 0,0) ">
<g transform="matrix( 1, 0, 0, 1, 0,0) ">
<use xlink:href="#Graphics_Symbol_252_0_Layer0_0_FILL"/>
</g>
</g>

<g transform="matrix( 1, 0, 0, 1, 0,0) ">
<g transform="matrix( 1, 0, 0, 1, 0,0) ">
<use xlink:href="#Graphics_Symbol_293_0_Layer3_0_FILL"/>
</g>

<g transform="matrix( 1, 0, 0, 1, 0,0) ">
<use xlink:href="#Graphics_Symbol_293_0_Layer2_0_FILL"/>
</g>

<g transform="matrix( 1, 0, 0, 1, 0,0) ">
<use xlink:href="#Graphics_Symbol_293_0_Layer1_0_FILL"/>
</g>

<g transform="matrix( 1, 0, 0, 1, 0,0) ">
<use xlink:href="#Graphics_Symbol_293_0_Layer0_0_FILL"/>
</g>
</g>
</g>

<g transform="matrix( 1, 0, 0, 1, -28.15,-10.5) ">
<g transform="matrix( 1, 0, 0, 1, 0,0) ">
<use xlink:href="#MovieClips_Symbol_228_23_Layer1_0_FILL"/>
</g>
</g>

<g transform="matrix( 1, 0, 0, 1, -28.4,-10.7) ">
<g transform="matrix( 1, 0, 0, 1, 0,0) ">
<g transform="matrix( 1, 0, 0, 1, 0,0) ">
<use xlink:href="#Graphics_Symbol_252_0_Layer0_0_FILL"/>
</g>
</g>
</g>
</svg>
