
<svg xmlns="http://www.w3.org/2000/svg" version="1.1" xmlns:xlink="http://www.w3.org/1999/xlink" preserveAspectRatio="none" x="0px" y="0px" width="550px" height="400px" viewBox="0 0 550 400">
<defs>
<g id="MovieClips_Symbol_228_23_Layer1_0_FILL">
<path fill="#FFFFFF" stroke="none" d="
M 66.35 14.35
Q 66.45 10.6 65.95 7.05 65 0.35 62.5 0.35 61.75 0.3 60.45 1.35 59.2 2.35 59.2 2.7
L 59.9 6.3 59.9 7.3 60.15 7.2 61.3 7
Q 64.15 6.7 64.1 10.2 64.05 11.7 63.05 12.7 62 13.75 60 13.9
L 59.05 13.95 57.65 13.8
Q 54.45 18.7 47.7 18.6 38.3 18.45 29.3 12.7 22 6.9 21.25 6.9 12.05 6.75 8.05 5.75
L -0.75 2.35 -0.8 2.4
Q -2.15 5.8 -5.85 12.8 -8.95 20.45 -9.2 32.05
L 2.35 31.25 7.3 26.8 10.85 27.4
Q 18.75 31.85 27.45 32
L 42.65 32.25
Q 50.45 32.2 54.95 30.95 66.15 27.9 66.35 14.35
M 44.85 23.6
L 44.9 22.1 45 21.6
Q 45.5 19.75 49.45 18.9 53.1 18.15 53.75 20.6
L 53.9 21.95
Q 53.85 23.95 53.1 24.45 52.2 25 48.85 24.95 45.5 24.9 44.85 23.6
M 28.05 22.8
L 27.8 20.75
Q 27.85 18.05 31.05 18.1
L 32.1 18.2
Q 34.45 18.45 35.5 19.6 37.45 20.2 37.75 21.75
L 37.8 22.3 37.55 24.2
Q 37.05 25.2 35.35 25.2
L 34.15 25 32.85 25.15
Q 29.15 25.1 28.05 22.8
M 23.35 15.55
Q 23.3 17.85 21.95 18.7 20.5 19.65 17 19.6 14.75 19.55 14.1 18.05 13.8 17.5 13.85 16.35 13.9 12.2 18.65 12.1 23.4 12 23.35 15.55
M 5.8 12.7
Q 5.75 14.85 5.2 15.7 4.1 17.4 0.7 17.35 -2.95 17.3 -3.65 15.6
L -3.65 13.75
Q -3.6 11.6 -2.65 10.8 -1.15 9.7 3.55 9.4 5.15 10.1 5.55 11
L 5.8 12.7 Z"/>
</g>
</defs>

<g transform="matrix( 1, 0, 0, 1, -28.15,-10.5) ">
<g transform="matrix( 1, 0, 0, 1, 0,0) ">
<use xlink:href="#MovieClips_Symbol_228_23_Layer1_0_FILL"/>
</g>
</g>
</svg>
