
<svg xmlns="http://www.w3.org/2000/svg" version="1.1" xmlns:xlink="http://www.w3.org/1999/xlink" preserveAspectRatio="none" x="0px" y="0px" width="550px" height="400px" viewBox="0 0 550 400">
<defs>
<g id="Graphics_Symbol_252_0_Layer0_0_FILL">
<path fill="#DE0000" stroke="none" d="
M 5.2 15.7
Q 5.75 14.85 5.8 12.7
L 5.55 11
Q 5.15 10.1 3.55 9.4 -1.15 9.7 -2.65 10.8 -3.6 11.6 -3.65 13.75
L -3.65 15.6
Q -2.95 17.3 0.7 17.35 4.1 17.4 5.2 15.7
M 21.95 18.7
Q 23.3 17.85 23.35 15.55 23.4 12 18.65 12.1 13.9 12.2 13.85 16.35 13.8 17.5 14.1 18.05 14.75 19.55 17 19.6 20.5 19.65 21.95 18.7
M 27.8 20.75
L 28.05 22.8
Q 29.15 25.1 32.85 25.15
L 34.15 25 35.35 25.2
Q 37.05 25.2 37.55 24.2
L 37.8 22.3 37.75 21.75
Q 37.45 20.2 35.5 19.6 34.45 18.45 32.1 18.2
L 31.05 18.1
Q 27.85 18.05 27.8 20.75
M 49.45 18.9
Q 45.5 19.75 45 21.6
L 44.9 22.1 44.85 23.6
Q 45.5 24.9 48.85 24.95 52.2 25 53.1 24.45 53.85 23.95 53.9 21.95
L 53.75 20.6
Q 53.1 18.15 49.45 18.9
M 64.1 10.2
Q 64.15 6.7 61.3 7
L 60.15 7.2 59.9 7.3
Q 59.6 10.5 57.95 13.25
L 57.65 13.8 59.05 13.95 60 13.9
Q 62 13.75 63.05 12.7 64.05 11.7 64.1 10.2 Z"/>
</g>
</defs>

<g transform="matrix( 1, 0, 0, 1, -28.4,-10.7) ">
<g transform="matrix( 1, 0, 0, 1, 0,0) ">
<g transform="matrix( 1, 0, 0, 1, 0,0) ">
<use xlink:href="#Graphics_Symbol_252_0_Layer0_0_FILL"/>
</g>
</g>
</g>
</svg>
