
<svg xmlns="http://www.w3.org/2000/svg" version="1.1" xmlns:xlink="http://www.w3.org/1999/xlink" preserveAspectRatio="none" x="0px" y="0px" width="550px" height="400px" viewBox="0 0 550 400">
<defs>
<g id="Layer0_0_FILL">
<path fill="#000000" stroke="none" d="
M 19.45 71.2
L 18.6 71.35
Q 16.45 75.6 16 77 12.1 88.1 12.1 118.65 12.1 120.8 10.65 126 12.65 119.75 12.6 118.55 13.75 119.3 16.75 120.7 19.1 121.75 19.1 122.1
L 16.9 136.4
Q 14.35 151.45 12.85 156.2 13.8 149.85 12 147.1 10.1 144.15 4.2 143.75 4.7 143.05 6.65 137.6 4.5 142.8 2.85 143.55
L 3.05 144.35 3.3 144.95 9.55 145.2 11.95 158.95
Q 12.45 158.65 12.75 157.6
L 13.05 158.15
Q 13.3 158.5 13.9 158.5 15.4 158.5 18 155.35 20.65 152.15 23.6 152.15 27.55 152.15 29.3 156.3
L 30.6 159
Q 31.4 160.2 32.75 160 33.1 160.45 33.1 159.45 33.1 158.95 32.55 158.5 32 158.05 32 157.55 32 154.2 38.5 149.9 44.05 146.25 45.35 146.25 45.85 146.25 46.55 146.9
L 50.6 149.85
Q 49.85 145.5 58.25 143.45 62.55 142.4 67.75 141.7
L 67.9 141.4
Q 62.15 138.25 58 127.25
L 55.4 119.9
Q 54.15 116.6 53.2 116.25
L 54.6 114.85 53 115.6 44.15 81.9
Q 44.05 79.15 44.55 75.95 45.5 69.55 48.5 66.85
L 45.55 67.05 45.8 65.6
Q 44.85 67.75 44.25 71 43.9 72.65 42.8 72.65
L 33.85 71.95
Q 40.4 73.7 44.1 74
L 44.15 74.1 44.4 74.3
Q 44.05 75 43.9 78.1 38.65 78.65 31.55 77.1 22.9 75.15 19.45 71.2
M 18.4 72.3
L 18.7 71.75 21.65 73.8
Q 24.95 75.85 27.95 76.9
L 43.65 79.75 43.55 81.9 46.15 93.95
Q 49.35 107.45 52.5 115.55
L 51.75 115.4 52.35 115.95
Q 49.2 118.85 41.1 121.85 33.55 126.75 33.05 126.75 12.75 119.55 12.75 117.7 12.75 112.95 14.8 98.45
L 18.4 72.3
M 44.15 72.6
L 44.2 72.6 44.25 72.7 44.15 72.6
M 43.65 79.15
L 42.9 78.75 43.7 78.7 43.65 79.15
M 42.35 121.95
L 52.9 116.55 52.95 116.6
Q 55.1 127.75 57.6 132.85 59.9 137.55 64.8 141.2 62.6 141.2 58.9 142.3 53.1 143.95 50.9 147.25 47.2 141.25 44.85 132.3 43.05 123.75 42.35 121.95
M 48.9 146.45
L 48.1 145.95
Q 48.1 145.5 46.2 145.5 43.25 145.5 38.6 149.2 35.95 151.3 30.9 155.95
L 32.5 135.15
Q 32.5 131.9 31.85 130.5 30.6 127.85 30.25 126.6
L 34.25 127.9 34.3 127.5 34.25 126.85 34.05 126.75
Q 37.55 124.9 37.85 124.4 38.1 123.95 41.85 122.15
L 45.15 134
Q 48.2 144.95 48.9 146.45
M 20.15 129.15
Q 19.65 128.3 19.65 124.05
L 19.85 122.45 24.8 124.65 27.25 125.2
Q 29.65 125.85 29.65 126.45 29.65 127.55 30.45 130.3 31.2 133 31.2 134.2
L 29.85 154.55
Q 29.45 153.25 27.3 152.15 25.05 151 22.35 151
L 15.6 153.15
Q 19.95 131.35 20.15 129.15
M 31.45 8.85
L 34.8 9.15
Q 31.7 7.4 30.9 7.4 25.2 7.4 21.8 11.4 20.1 13.45 19.55 15.55 19.55 16.05 20.05 15.95 20.5 15.85 20.5 16.35 20.5 17.05 18.95 20.25 17.35 23.5 17.35 25.35
L 19.3 44.9
Q 19.3 48.25 20 54.35
L 20.7 60.65
Q 20.7 63.85 20.3 64.65
L 19.3 65.2 19.25 65.55
Q 19.15 65.85 19.75 65.85
L 19.85 65.85 19.85 65.9 19.65 68.2 20.05 67.15
Q 20.85 67.8 23.25 68.7 22.05 67.75 22.05 66.6
L 23.05 59.4
Q 23.05 53.35 21 43.25 18.95 33.15 18.95 31.65 18.95 29.65 20.8 23.6 22.6 17.55 22.6 14.85
L 22.55 14.2 22.3 14.1 20.55 16.25 20.95 14.65
Q 22.3 11.9 25.6 10.25 28.5 8.85 31.45 8.85
M 41.25 18.5
L 41.35 17.2 41.45 16.95
Q 42.35 18.95 46.1 24.1 50.35 29.85 52.3 31
L 47.95 37.2
Q 45.4 40.45 45.4 40.65 45.4 41.15 45.9 42.05
L 46.4 43.45 46.75 50.2 46.4 60.85 47.85 43.95
Q 47.85 43.25 47.1 43.4 46.65 43.45 47.5 40.6
L 46.3 40.25 50 35.6
Q 53.15 31.4 53.8 30.9 50.35 26.05 45.35 21.6 42.7 19.25 42.7 16.25 42.7 14.4 39.15 11.85
L 39.45 12.55 40.05 15.75
Q 40.35 17.6 41.25 18.5 Z"/>

<path fill="#8CCB2C" stroke="none" d="
M 42.9 78.75
L 43.65 79.15 43.7 78.7 42.9 78.75
M 44.2 72.6
L 44.15 72.6 44.25 72.7 44.2 72.6 Z"/>

<path fill="#FFFFFF" stroke="none" d="
M 33.85 71.95
L 30.45 71.35
Q 25.2 70.25 23.25 68.7 20.85 67.8 20.05 67.15
L 19.65 68.2 18.85 70
Q 18.45 71.05 18.6 71.35
L 19.45 71.2
Q 22.9 75.15 31.55 77.1 38.65 78.65 43.9 78.1 44.05 75 44.4 74.3
L 44.15 74.1 44.1 74
Q 40.4 73.7 33.85 71.95 Z"/>
</g>
</defs>

<g transform="matrix( 1, 0, 0, 1, 0,0) ">
<use xlink:href="#Layer0_0_FILL"/>
</g>
</svg>
