
<svg xmlns="http://www.w3.org/2000/svg" version="1.1" xmlns:xlink="http://www.w3.org/1999/xlink" preserveAspectRatio="none" x="0px" y="0px" width="550px" height="400px" viewBox="0 0 550 400">
<defs>
<g id="Layer0_0_FILL">
<path fill="#000000" stroke="none" d="
M 17.2 36.55
L 17.4 36.55 17.4 36.25 17.2 36.25 17.2 36.55 Z"/>

<path fill="#FFFFFF" fill-opacity="0.25098039215686274" stroke="none" d="
M -5.1 46.3
L -7.7 48.4 -7.65 48.8 -2.9 46.75
Q 1.1 44.85 2.45 43.9
L 1.35 44.3
Q 3.1 43.05 4.1 43.05
L 7.35 40.85
Q 2.6 43.3 -4.45 46.35
L -5.45 46.8 -5.1 46.3
M -19.9 -52.15
Q -22.9 -56.7 -32.75 -64 -41.8 -70.75 -41.9 -71.2
L -42.85 -71.25
Q -42.85 -70.9 -43.2 -70.8
L -43.6 -70.35
Q -36.7 -65.05 -32.95 -59 -29.9 -54.05 -29.9 -50.5 -29.9 -49.85 -32.05 -47.3
L -34.35 -44.9 -35.95 -45.15
Q -36.75 -45.2 -36.8 -44.5 -34.55 -43.85 -28.9 -39.1 -22.55 -33.8 -22.55 -31.05 -22.55 -29.85 -26.1 -27.75 -29.7 -25.65 -29.7 -24.75 -27.25 -23.5 -24.85 -21.2 -20 -16.6 -20 -10.8 -20 -9.2 -20.75 -8.3 -21.25 -7.7 -23.55 -6
L -24.55 -5.25
Q -23.2 -4.85 -18.6 -1.55 -14 1.75 -13.6 2.7
L -13.45 3.05 -18.9 3.15
Q -24.15 3.45 -25.65 4.9
L -25.6 5.8 -24.15 5.55
Q -22.85 5.65 -20.05 7.4
L -21.05 7.05
Q -15.55 9.25 -12.45 13.8 -10.05 17.35 -10.05 19.75 -10.05 21.55 -11.4 21.8
L -17.6 21.4
Q -17.8 22.25 -18.1 22.6
L -18 22.9 -17.5 23.05 -13.05 23.45 -12.7 23.35 -11.8 23.65 -12.05 23.65
Q -6.9 24.95 -4.95 29.1 -3.6 32 -3.6 40.2
L -3.65 43.6
Q -2.55 40.75 -2.95 38.5
L -2.2 39.6 -2 37.7
Q -2 33.85 -2.7 30.35 -3.3 27.25 -4.05 26.1
L -4.3 25.8 4.95 27.9 13.45 29.1 14.95 29.15
Q 13.8 28.45 2.35 26.1
L -10.8 23.65 -11.75 23.3 -9.45 22.95
Q -8.65 22.55 -8.65 21.2 -8.65 18.55 -10.1 15.3 -11.35 12.55 -12.8 11.05 2.25 17.75 10.85 22.85 16 25.95 17.15 27.3
L 15.25 29.15 16.85 30.6
Q 17.3 31.1 17.3 31.55 17.3 33 16.05 34.6
L 16.35 34.35
Q 18.25 34.35 18.75 33.3
L 19 30.85
Q 19 27.1 16.35 19.4 13.9 12.35 11.4 7.85
L -7.55 -26.65
Q -9.65 -34 -12.9 -40.35 -15.4 -45.35 -19.9 -52.15
M -28.4 -51.7
Q -29.2 -57.55 -39.3 -67.55 -29.3 -62.85 -19.3 -46.95 -12.15 -35.55 -10.1 -28.75 -9 -25.15 2.65 -4.05
L 14.45 16.9
Q -2.7 -8.75 -9.25 -17.8 -23.95 -38.05 -31.95 -43.85 -27.9 -47.95 -28.4 -51.7
M -23.5 -26.95
Q -22.7 -27.2 -20.9 -29.95 -17.3 -25.05 -5.8 -11.5 -0.15 -4.85 7 6.45 9.5 9.85 11.3 13 13.9 17.6 13.4 18.9
L 14.25 19.55 14.5 19.1 14.35 18.3 15.2 19.4 15 20.45 15.05 22.05 13.25 23.35
Q 12.3 21.45 -0.75 15.45
L -22 5.7 -14.15 4.9
Q -10.7 4.2 -12.05 1.75
L -22.25 -6
Q -19.35 -6.25 -19.1 -6.55 -18.5 -7.2 -18.5 -11.4 -18.5 -13.4 -19.55 -17.5
L -16.5 -15.9 -27.2 -24.4 -25.7 -25.55 -27.8 -25.65 -23.5 -26.95
M 12.75 18.35
Q 12.35 18 11.75 18
L 2.15 11.75 13.9 20.05 14.75 20.2 12.75 18.35
M -1.05 -3.2
L -3 -5.75 -4.85 -7 -1.05 -3.2 Z"/>
</g>
</defs>

<g transform="matrix( 1, 0, 0, 1, 0,0) ">
<use xlink:href="#Layer0_0_FILL"/>
</g>
</svg>
