
<svg xmlns="http://www.w3.org/2000/svg" version="1.1" xmlns:xlink="http://www.w3.org/1999/xlink" preserveAspectRatio="none" x="0px" y="0px" width="550px" height="400px" viewBox="0 0 550 400">
<defs>
<g id="Layer0_0_FILL">
<path fill="#FFFFFF" fill-opacity="0.25098039215686274" stroke="none" d="
M 8.9 36.35
L 8.75 36.45 8.9 36.4 6 47.15
Q 4.5 51.55 1.95 55.5 -1.95 61.45 -23.15 85.1
L -24.1 85.55 -16.2 75.45
Q -7.25 63.6 -0.25 52.6 2.45 48.4 3.75 41.7 4 40.3 4.8 39.25
L -4 45.45 4.1 40
Q 3.35 43.7 2.6 45.85
L 2 47.45
Q 2 48.25 -10.8 66 -23.7 83.95 -26.85 87.4 -27.6 84.7 -28.9 83.75 -30.3 82.8 -33.85 82.8 -36.75 82.8 -39.1 83.6 -43.35 85.05 -47.15 85.9
L -30.35 73.45 -55.2 90.75
Q -53.8 89.25 -53.1 87.1
L -52.7 85.2
Q -52.7 82.45 -55.3 82.05 -56.2 81.9 -67.05 82.05 -56.7 77.75 -47.7 72.95 -40.15 68.9 -30.2 62.7 -34.55 65.2 -45.1 70.5 -58.95 77.5 -64.65 80.05 -70.75 82.65 -70.1 81.65
L -69.1 79.7
Q -68.4 77.6 -70.75 82.65
L -72.8 83.8
Q -59.25 83.55 -57.8 83.65 -54.25 83.85 -54.25 85.75 -54.25 86.6 -54.95 87.9
L -57.25 91.65 -58.05 92.7
Q -52.5 89.7 -45.75 87.3 -38.35 84.7 -34.6 84.7 -32.85 84.7 -31.95 85.95 -30.95 87.4 -30.9 90.85 -26.05 91.45 -18.9 85.65 -12.35 80.35 -5.6 71.3 0.95 62.5 5.3 53.5 9.85 44 10.15 37.9
L 11.5 42.95
Q 13.35 42 14.45 39.6
L 15.15 37.4
Q 15.15 34 9.55 32.2 3.95 30.4 -6.75 30.4 -26.1 30.4 -41.35 34.35 -50.45 36.7 -59.9 41.2 -75.15 48.5 -86.5 54.85 -102 63.55 -103.45 66.95
L -103.35 67.25
Q -101.05 66.8 -94 64.4 -88.45 62.5 -84.45 62.5 -80.25 62.5 -78.65 63.25 -78.1 63.5 -76.5 65.1 -76.75 67.9 -80.2 71
L -84.8 74.5
Q -78.15 75.9 -76.5 76.6 -71.9 78.55 -70.75 82.65 -68.45 75.75 -68.85 74.6 -69.75 72.1 -71.7 71.25 -68.4 70.2 -36.65 56.75 -3.8 42.8 5.9 38 6.6 37.4 7.55 36.95
L 3.1 38.35 4.2 37.25 4.5 36.5 1.95 38.1 -4.25 39.05 -1.5 39 -0.65 39.15
Q -30.3 53.95 -32.75 54.95 -48.6 60.65 -80.15 72.35
L -76.45 69.65
Q -74.75 68 -74.75 64.65 -74.75 62.75 -77.5 62.5 -80 62.3 -94 62.15 -78.15 56.1 -53.65 49.25 -28 42.1 -11.8 39.45 -23.95 38.9 -57.25 49 -77.45 55.15 -95.95 62
L -97.2 62.35
Q -72.7 47.35 -60.3 41.75 -39.75 32.55 -14.15 32.55 -6.7 32.55 -0.75 33.7 2.7 34.4 8.9 36.35 Z"/>
</g>
</defs>

<g transform="matrix( 1, 0, 0, 1, 0,0) ">
<use xlink:href="#Layer0_0_FILL"/>
</g>
</svg>
