
<svg xmlns="http://www.w3.org/2000/svg" version="1.1" xmlns:xlink="http://www.w3.org/1999/xlink" preserveAspectRatio="none" x="0px" y="0px" width="550px" height="400px" viewBox="0 0 550 400">
<defs>
<g id="Layer0_0_FILL">
<path fill="#FFFFFF" fill-opacity="0.25098039215686274" stroke="none" d="
M -18 71.6
L -18.45 71.4 -18.5 71.5 -18 71.6
M 7.15 21.25
Q 7.15 19.95 0.6 19.55 -5.4 19.2 -23.9 19.2 -30.55 19.2 -39.55 20.65 -47.4 21.95 -50.4 23.1
L -50.15 23.85 -49.9 23.95
Q -47.9 23.75 -44.9 24.8 -41.65 25.95 -40.75 27.5
L -45.95 27.65 -45.5 28.1
Q -41.9 30.1 -37.7 31.1 -35.65 31.6 -35.65 33.15 -35.65 35.2 -39.1 36.15
L -43.65 37.35 -33.8 39.65
Q -27.6 41.05 -27.15 41.65 -30.9 48.25 -37.35 50.75
L -25.2 52.65
Q -22.95 53.05 -22.95 55.3
L -23.05 56 -23.15 56.05
Q -23.5 56.85 -24.3 57.45 -25.05 57.95 -25.55 57.95
L -25.9 57.25
Q -26.35 56.9 -27.65 58.8
L -27.2 59.25 -27.1 59.5 -25.35 59.95 -24.1 59.8 -25.85 59.2
Q -20.15 60.05 -9.7 51.7 -2.95 46.35 1.15 41.6
L 13.2 28.05
Q 8 45.1 0.05 55.65 -5.1 62.4 -13.4 68.5 -13.1 64.55 -13.9 62.95 -14.85 60.9 -18.05 60.7 -15.4 62 -14.3 64.2 -13.7 65.3 -13.7 66.25 -13.7 67.85 -15.15 69.45 -16.5 70.9 -17.8 71.3
L -17.7 71.55
Q -12 70.3 -9.75 72.7 -8.15 74.45 -8.15 78.8 -8.15 79.8 -8.85 80.2 -7.6 80.7 -7.8 82.45
L 3.45 75.8 -7.15 80.15
Q -6.6 76.45 -8 73.7 -9.55 70.75 -12.65 70.75
L -15.15 70.9
Q -6.55 66.4 2.95 52.4 12.5 38.35 14.65 26.95 16.05 29.2 17.3 33.95 18.45 38.15 18.45 39.75 18.45 47.3 12.8 58.4
L 8.9 65.65
Q 7.15 68.9 7.15 69.8
L 7.4 71.75
Q 7.95 70.15 10.1 66.6
L 14.2 59.7
Q 19.55 49.8 19.55 41.05 19.55 30.7 15.05 26.7
L 16.15 26.55
Q 16.35 26.5 16.35 25.9
L 16.2 25.3 16.15 25.3 13.45 25.15 9.5 23.2
Q -9.45 23.7 -25.95 25.85
L -40.5 27.95
Q -39.3 26.05 -40.4 24.8 -41.4 23.7 -43.55 23.7
L -48.55 23.8
Q -45.7 22.55 -41.5 21.45 -33.3 19.25 -22.35 19.25 -11.8 19.25 -2.2 20.7 4.45 21.7 9.4 23.15
L 6.4 21.4
Q 6.4 20.9 6.8 21.35 7.15 21.75 7.15 21.25
M 12.95 27.2
L 12.5 28.1
Q 6.55 36.5 -5.15 46.85 -18.15 58.3 -22.7 57.3 -21.3 53.3 -24.95 51.85 -27.7 50.75 -35 50.8 -33.3 49.55 -32.3 49.55 -30.7 49.55 -28.25 46.2 -26.1 43.3 -26.1 42.7 -26.1 39.85 -33 38.45
L -39.25 37.6
Q -29.85 37 -17.1 34.2
L 12.95 27.2
M 2.8 24.05
Q 8.4 24.05 13.8 25.85
L -3.65 30.7
Q -23.1 35.6 -37.85 36.9 -36.6 36.55 -35.85 35.3 -35.05 34.05 -35.05 32.7 -35.05 31 -36.95 30.45
L -43.5 28.55 -9.95 24.75 2.8 24.05 Z"/>
</g>
</defs>

<g transform="matrix( 1, 0, 0, 1, 0,0) ">
<use xlink:href="#Layer0_0_FILL"/>
</g>
</svg>
