
<svg xmlns="http://www.w3.org/2000/svg" version="1.1" xmlns:xlink="http://www.w3.org/1999/xlink" preserveAspectRatio="none" x="0px" y="0px" width="550px" height="400px" viewBox="0 0 550 400">
<defs>
<g id="Layer0_0_FILL">
<path fill="#000000" fill-opacity="0.3333333333333333" stroke="none" d="
M 32.45 125.2
L 31.55 124.7 31.4 125.3 31.25 126.65 32.25 132.7
Q 30.75 152.1 30.75 153.55
L 32 154.6
Q 34.85 138.55 34.85 132.55 34.85 131.6 34.25 129.2 33.45 126.2 32.45 125.2
M 25.2 120.05
L 25.2 120.2
Q 27.75 120.55 25.2 120.05
M 52.35 147
L 52.9 146.7
Q 53.25 146.3 53.25 145.65 46.7 123.4 43.75 119.15 46.05 130.65 48.6 138.6 50.95 146.05 52.35 147
M 36.3 79.75
L 35.45 78.55
Q 34.65 77.9 33.05 77.35
L 36.3 79.75
M 41.15 14.25
L 41.1 14.25 37.75 10.7 31.75 7.75
Q 27.45 7.4 23.7 10 20 12.6 20 14.8 20 15.3 20.5 15.9 21 16.45 21 16.95 21 17.6 19.2 20.35 17.35 23.1 17.35 29.05 17.35 30.3 19.95 40.1 22.5 49.95 22.5 56.8 22.5 63.3 19.65 70.3 18.2 73.8 16.75 76.05 16.75 77.7 17.95 76.2
L 14.05 92.65
Q 10.6 110 12.3 118.55 12.45 119.5 8.8 129.8 5.05 140.4 5.05 142.45 5.05 145.1 7.3 145.1 8.65 145.1 10.15 142.85 12.85 138.85 16.85 127.7
L 14.75 134.3
Q 14.75 134.9 16.4 135.65 16.4 139.75 14.25 147.9
L 14.3 148.9 15.85 148.9 15.25 152.2
Q 15.25 152.9 15.9 154.85 19.45 143.05 21.55 133.3 23.05 126.25 23.05 124.75
L 25.4 125.15 25.4 125.35
Q 25.45 124.8 25.8 124.75
L 26 124.55
Q 23 124.75 20.45 123.3 18.15 122 18.15 120.8 18.15 114.5 19.3 109.4
L 20.4 103.5
Q 20.4 96.5 19.4 92.65
L 18.35 88.75
Q 18.35 80.4 24.5 72.1 27.6 67.85 28.7 65.65 30.6 61.65 30.6 56.9 30.6 50.05 28.2 40.55 25.75 31.05 25.75 28.5 25.75 24.45 29.1 20.25
L 34.45 13.3
Q 37.15 15.8 42 23.15 47 30.75 47 32.7
L 44.6 41.45
Q 42.25 49.45 42.45 58.7
L 42.8 65.55
Q 42.95 68.05 42.65 68.9 42.35 69.9 40.9 70.55
L 36.35 72.25 35.3 72.95 41.55 73.95 41.7 74.25 41.8 75.15 40.5 78.8 37.1 77.9
Q 38.3 80.4 43.1 95.25 48.2 110.9 50.55 116.4
L 48.65 117.3
Q 46.9 118.4 46.5 120
L 46.15 121.25 47.9 119.3
Q 48.3 126.55 52.35 133.85 56.95 142 62.45 142
L 63.75 141.85 51.9 110.85
Q 44.1 90.7 44.1 84.65 44.1 80.2 45.15 74.35
L 45.65 71.65
Q 45.2 71.45 45.05 70.95
L 45 70.1
Q 45 67.65 46 64.8
L 46 62.8
Q 46 59.3 47.25 57.3
L 47.05 53.55
Q 47.45 48.8 47.95 45.2 47 41.65 47 40.75 47 38.85 50.45 35.6 51.3 33.45 52.15 32.55
L 53.25 31.45
Q 53.25 30.15 48.4 24.35
L 42.75 17.7
Q 42.2 15.95 41.15 14.25
M 23.4 29.75
L 25.7 41.85 24.25 35.15
Q 23.5 31.6 23.4 29.75
M 19.1 133.9
L 19.2 135.85
Q 19.2 137.65 18.15 141.2 17.15 144.55 16.5 145.55
L 19.1 133.9 Z"/>
</g>
</defs>

<g transform="matrix( 1, 0, 0, 1, 0,0) ">
<use xlink:href="#Layer0_0_FILL"/>
</g>
</svg>
