
<svg xmlns="http://www.w3.org/2000/svg" version="1.1" xmlns:xlink="http://www.w3.org/1999/xlink" preserveAspectRatio="none" x="0px" y="0px" width="550px" height="400px" viewBox="0 0 550 400">
<defs>
<g id="Layer0_0_FILL">
<path fill="#FFFFFF" fill-opacity="0.25098039215686274" stroke="none" d="
M -58.5 44.2
Q -41.65 45.4 9 23.75 -45.75 40.65 -58.5 44.2
M -70.15 -8.35
L -61.25 -5.7 -38 2.65
Q -55.55 -4.85 -58 -5.65
L -70.15 -8.35
M -73.4 -56.35
Q -74.45 -57.85 -74.4 -59
L -59.8 -45.75
Q -50.65 -37.7 -43.55 -33.6 -32.3 -27.15 -21.2 -17.05 -39.2 -34.3 -57.45 -48.9 -67 -56.55 -72.95 -60.65
L -77.2 -60.2
Q -76.3 -59.2 -74.85 -56.1
L -73.6 -53.05
Q -73.6 -51.95 -74.45 -51.3 -72.35 -52.1 -72.35 -53.25 -72.35 -54.75 -73.4 -56.35
M -81.1 -47.3
L -81.1 -47.1 -80.4 -47.35
Q -78.65 -46.45 -77.45 -45 -75.45 -42.55 -70.9 -34.7
L -70.6 -35.15 -70.3 -36.1 -70.15 -35.8 -70.1 -35.35
Q -70.1 -34.1 -72.8 -32.85 -75.8 -31.45 -79.6 -31.4 -75.45 -29.2 -74.15 -28.15 -72.15 -26.5 -72.15 -22.4 -72.15 -18.35 -75.2 -16.2
L -85.4 -10.95
Q -77.1 -8.05 -75.3 -6.75 -73 -5.1 -73 1.45 -73 2 -73.8 4.35 -74.65 6.7 -74.65 8.6
L -74.35 11.55 -72.2 11.4 -70.35 11.8
Q -71.45 10.9 -73.9 9.5 -72.45 7.05 -72.05 5.85 -71.75 4.8 -71.75 2.6 -71.75 -3.1 -72.85 -5.3 -74.6 -8.8 -80.6 -10.55 -76.9 -11.5 -73.8 -15.4 -70.9 -19 -70.9 -21.8 -70.9 -24.65 -71.5 -26.6 -72.05 -28.2 -72.9 -28.9 -64.35 -24.6 -36 -7.1 -3 13.3 7.9 22
L -17.95 11.3 2 20.05 -44.95 11.95
Q -66.7 8.45 -71.35 8.85 -58.65 10.05 -32 14.55 -3.75 19.25 7.65 22.35 -12.75 21.15 -42.15 25.05 -63.5 27.85 -68.75 29.5
L -68.7 29.75 -68 29.8
Q -53.9 28.7 -31.8 25.55
L -12 22.65 9.3 22.9
Q 9.2 24.9 10.2 28.95 11.25 33.25 11.25 37.65 11.25 47.1 5.25 50.95 -3 56.25 -26.55 56.25
L -50.3 55.7
Q -40.5 53.55 -23.15 46.9 -0.3 38.1 9.75 30 5.1 31.6 -2.05 35.45
L -15.35 42.75
Q -33.7 52.3 -52.1 55
L -51.65 54.3 -51.35 53.6
Q -51.2 53.25 -51.2 52.6 -51.2 48.8 -53.7 47.5 -55.3 46.7 -60.05 45.25
L -59.15 40.3
Q -59.15 35.05 -61.6 33.1 -63.75 31.35 -70.7 30.35 -68.2 27.3 -67.6 26.2 -66.2 23.55 -66.2 19.7 -66.2 15.6 -68.6 13.5 -67.4 15.75 -67.4 17.3 -67.4 19.35 -69.75 24.3 -72.05 29.15 -73.65 30.85
L -73.45 31.8 -72.75 31.2 -71.85 31.05
Q -66.8 31.05 -63.65 33.45 -60.4 35.9 -60.4 39.95 -60.4 41.9 -61 43.4 -61.65 45.1 -61.75 46.65
L -61.5 46.7 -61.45 46.55 -61.4 46.1 -60.6 45.95
Q -56.8 45.95 -54.6 47.65 -52.45 49.3 -52.45 52 -52.45 54.75 -55.6 56.65
L -56.8 56.85 -60.3 59.15 -59.5 59.55 -58.55 59.65 -56.3 58.05
Q -54 56.45 -53 56.45
L -35.95 57.25
Q -5.25 57.25 3.15 53.9 8.35 51.85 10.5 47.65 12.5 43.8 12.5 36.55 12.5 31.25 12.2 29.8
L 11.2 26.65 11.5 26.3 11.7 26.2 13 26.4
Q 13.3 22.55 5.65 12.65 -1.05 3.95 -14.95 -10.7 -6.75 0.7 -2.4 7.65
L 0.4 12.45 -19.5 -3.15 3.45 16.55
Q -44.9 -17.25 -74.9 -30.55 -72.8 -29.95 -70.7 -31.95 -68.75 -33.7 -68.75 -35.2 -68.75 -37.4 -71.2 -40.2
L -75.4 -44.75
Q -64.675 -37.6625 -50.9 -27.6
L -78.3 -48.75 -75.2 -50.85 -79.75 -49.4 -80.3 -49.7
Q -81.15 -49.85 -83.1 -48.8
L -82.6 -48.5 -81.65 -48.35
Q -81 -48.35 -81.1 -47.3 Z"/>
</g>
</defs>

<g transform="matrix( 1, 0, 0, 1, 0,0) ">
<use xlink:href="#Layer0_0_FILL"/>
</g>
</svg>
