
<svg xmlns="http://www.w3.org/2000/svg" version="1.1" xmlns:xlink="http://www.w3.org/1999/xlink" preserveAspectRatio="none" x="0px" y="0px" width="550px" height="400px" viewBox="0 0 550 400">
<defs>
<g id="Layer0_0_FILL">
<path fill="#FFFFFF" fill-opacity="0.25098039215686274" stroke="none" d="
M 26.05 141.25
Q 27.3 141.25 26.55 141.55
L 26.65 142.85
Q 26.65 144.5 25.25 144.9
L 22.15 145
Q 17.65 144.75 17.65 147.9
L 17.7 148.7 17.9 148.85 19.25 147.1
Q 20.05 146.1 22.65 146.1 26.75 146.1 27.55 145.5 27.9 145.2 27.9 143.15 27.9 140.4 26.65 139.9 25.05 139.25 21.15 142
L 21.5 142.15 22.75 142.3 24.4 141.8
Q 25.45 141.25 26.05 141.25
M 23.85 130.1
Q 22.25 131.45 22.25 132.75 22.25 133.5 22.55 133.5
L 23.75 133.4
Q 25.05 131.9 27.45 132.9 29.75 133.9 29.75 135.05 29.75 135.85 29.4 136.1
L 28.55 136.4
Q 23.65 135.6 22.2 136.35 21.65 136.65 21.65 137.55 21.65 138.8 22.3 138.15 25.45 136.85 29.05 136.8 31.05 136.75 31.05 135.5 31.05 134.2 29.7 132.85 27.95 131.05 24.85 131
L 26 130.75
Q 27.2 130.2 27.35 129.65 25.65 128.5 23.85 130.1
M 33.9 130.4
L 33.75 130.9 33.75 147.1 34.2 147.3 35.55 147.5
Q 38.25 147.5 38.9 145.25
L 38.9 140.3
Q 38.65 139.15 37.35 137.65
L 36.75 138.05
Q 36.75 138.85 37.25 140.6
L 37.75 143 37.6 144.65
Q 37.2 145.75 35.5 146.1
L 35.05 145.95 35 145.05 35.8 137.75
Q 36.25 133.3 34.65 130.4
L 33.9 130.4
M 12.25 134.5
L 13.65 134.65 15.25 134.5 15.25 134.6
Q 15.25 136.65 14.2 141.05 13.1 145.45 13.1 147.4
L 13.2 148.85 13.85 149.9
Q 14.75 149.75 14.85 149.4
L 16.3 141.15
Q 16.5 140.05 16.5 135.3 16.5 133.45 16.05 133.05 15.15 132.35 12.25 134.5
M 14.3 125.3
L 14.25 124.2 14 123.8 13.05 123.8
Q 13.05 125.6 10.6 131.3 8.1 136.95 8.1 137.25
L 8.35 138.6
Q 9 139.85 10.9 139.85 13.5 139.85 13.7 138.6
L 13.35 136.85 12.25 136.75 10.95 137.7 10.25 138.5 9.75 138.15
Q 9.5 137.95 9.5 137.15
L 11.9 132.05
Q 14.3 126.75 14.3 125.3
M 24.55 108.75
L 21.3 108.55
Q 20.75 108.85 20.75 110.85 20.75 111.75 21.8 112.75
L 22.5 112
Q 22 111.25 22 110.05
L 24.25 110.05
Q 24.3 110.75 25.05 111.8 25.75 112.8 25.75 113.6 25.75 115.35 23.05 115.35 21.95 115.35 20.55 114.25 19.65 114.35 19.65 115.5 22.1 116.85 23.8 116.85 25.4 116.85 26.3 115.5 27 114.45 27 113.4 25.35 109.25 24.55 108.75
M 20.4 107.4
L 20.25 106.55 20.05 106.65
Q 18.55 107.15 17.3 109.6 16.15 111.8 16.15 113.4
L 16.1 114.55
Q 16.25 115.9 17.15 117 20.05 120.5 29.6 120.5 34 120.5 34 119.1 34 118.3 33.8 118.25
L 33.6 118.35
Q 24.3 119.75 20.15 117.5 17.4 116 17.4 113.5 17.4 112.2 18.9 110.25 20.4 108.3 20.4 107.4
M 42.85 139.9
Q 44.1 137.9 44.1 136.25 44.1 134.05 42.35 130.75 40.25 126.7 37.65 127.4 38 128.25 41.3 131
L 38.5 131.85
Q 37.15 132.3 37.15 133.35 37.15 134.6 37.4 133.9 38.45 133.9 38.95 133.45
L 40.15 132.6
Q 40.45 133.15 40.1 136.55 39.9 138.95 42.85 139.9
M 41.4 132.35
Q 42.85 135.45 42.85 136.1
L 42.25 138.35 41.85 138.35 41.4 132.35
M 50.05 123.3
L 49.75 123.25
Q 46.9 122.7 46.1 124.2 45.8 124.7 45.8 126.25
L 45.9 127.7
Q 46.05 128.25 46.55 128.75
L 50.25 129 50.5 129.45 51.35 129.85 52 129.25 51.1 127.75 48 127.4 48.05 127.25 52.75 127.5 53.15 128 53.25 129.15
Q 53.25 130.1 52 132.35 50.75 134.6 50.75 135.55
L 50.75 138
Q 51.5 140.4 55.4 140.4 56.15 140.4 56.15 140.15
L 56.05 139.65
Q 55.9 139.45 53.85 138.35 52 137.4 52 136.9 52 134.55 53.25 132.8 54.5 131 54.5 129.05 54.5 127.15 53.6 126.25
L 48.65 126.1
Q 50.1 124.8 50.1 124.1
L 50.05 123.3
M 47.5 127.35
L 47.5 127 47.8 126.8 47.85 127.4 47.5 127.35
M 43.3 108.65
Q 44.5 107.55 44.5 103.3
L 44.35 100.2
Q 43.85 98.45 41.75 99 43.25 101.5 43.25 103.5 43.25 105.3 40.5 107.8 37.75 110.3 37.75 111.1
L 37.8 112.2 38 112.65 38.6 112.65 43.3 108.65
M 34.8 95.4
L 35.55 95.15 35.5 94.65
Q 33.4 93.65 31.5 93.15
L 32.15 94.2
Q 32.65 95.4 34.8 95.4
M 25.15 94.65
Q 25.15 97.1 27.2 98.75 29.3 100.45 29.25 104.05 24.15 104.1 22.1 103.25
L 20.4 102.05 20.9 101.6 22.3 100.95 23 102.4 24.3 103.65 24.8 103.4 25 103.1 25 101.6
Q 25.35 101.45 25 101.05
L 24.9 100.65 23.9 99.75 20.75 99.4
Q 20.15 99.4 19.6 100.5 19.15 101.45 19.15 102.25 19.15 103.25 20.2 103.95 22.4 105.4 28.6 105.4
L 30.5 105.15 30.5 101.4 26.5 94.25
Q 28.8 93.1 30.85 93
L 28.45 92.7
Q 25.15 92.6 25.15 94.65
M 22.25 93
Q 22.15 90.75 22.55 89.5 23.25 87.25 27.3 87.25 35.35 87.25 37.8 91 38.75 92.45 38.75 95.3 38.75 96.7 36.5 97.4 34.25 98.05 34.25 99.15
L 35.25 101.75
Q 36.25 104.1 36.25 104.8
L 33.75 107.55
Q 31.25 110.3 31.25 111.75 31.25 113.5 32.5 115.35 33.35 115.25 33.5 114.85
L 32.8 113.4
Q 32.5 112.6 32.5 111.8 32.5 109.15 35 108.25 37.5 107.35 37.5 104.8
L 37.4 102.2
Q 37.15 100.65 36.05 99.4 40 97.85 40 95.25 40 91.05 37.05 88.4 34.45 86 30.6 85.6 26.8 85.2 24.1 86.9 21.15 88.75 21.15 92.35 21.15 93.6 21.4 93.1
L 22.25 93
M 39.4 77.65
Q 39.4 76.9 39.65 76.75
L 39.9 76.5 38.75 76.4 38.25 76.5 38.15 77.8 39.5 79.45
Q 40.85 81.05 40.85 81.4
L 40.6 85.15 38 85.3
Q 36.1 85.3 34.1 82.7 32.1 79.7 31.1 78.75
L 27.85 78.55
Q 25.35 78.55 23.4 79.75 21.65 80.85 21.65 82 21.65 83.25 22.25 82.6
L 24.3 80.95
Q 25.95 80.05 29.35 80.05 30.8 80.05 32 81.45
L 33.9 84.35
Q 36.5 88.2 40.85 86.65
L 41.65 84.25 42.1 81.4
Q 42.1 81 40.75 79.45 39.4 77.95 39.4 77.65
M 34.1 61.05
Q 34.1 62.3 34.35 61.65
L 35.5 61.65
Q 35.9 60.9 36.6 60.3 38 59.15 40.25 59.3
L 40.65 60.05
Q 38.95 63.05 37.1 63.75
L 35.65 63.85
Q 35.65 65.1 35.9 64.65 38.6 64.4 40.4 62.7 41.9 61.3 41.9 60 41.9 57.35 38 58.05 34.1 58.7 34.1 61.05
M 31.85 58.4
L 31.8 57.6 31.5 57.5
Q 28.55 58.4 27.85 59.6 27.6 60.1 27.6 62.05 27.6 63.4 27.85 64.15
L 30.75 64.25 32.25 63.8 32.85 63 31.25 62.75 28.85 62.75 28.85 61.25 31.2 59.4
Q 31.85 58.85 31.85 58.4
M 40.15 50
L 40.2 50.8 40.4 50.9 41.25 50.8 41.95 49.75 43.05 48.55 43.15 49.65
Q 43.15 50.7 42.45 51.9 41.5 53.55 40 53.55 37.9 53.55 37.6 53.15 37.45 52.5 36.75 52 36.15 52.35 36.15 52.75 36.15 53.5 36.5 54.6
L 40.25 55.05
Q 42.5 55.05 43.7 52.55 44.4 51 44.4 49.75 44.4 46.25 42.3 46.9 40.15 47.55 40.15 50
M 37.1 38.8
Q 38.35 38.8 37.6 39.05
L 37.6 41.3 36.95 41.85
Q 36.6 42.25 36.6 43 36.6 44.25 36.85 43.55
L 38 43.55 38.7 42.05 38.85 40.5
Q 38.85 39.35 38 37.55
L 33.15 37.9
Q 31.55 38.6 31.55 39.4 31.55 40.65 32.25 40.05 35.15 38.8 37.1 38.8
M 23.5 28.6
Q 23.65 27.8 23.4 27.35 21.85 28.15 22.05 30.25 22.05 31.95 22.3 32.35 22.9 33.15 26.05 34.55
L 25.1 38.5
Q 24.55 40.35 24.55 41.65 24.55 44.75 24.8 45.8
L 25.4 45.8 26.9 39.4
Q 27.3 37.15 27.3 34.35 27.3 33.75 25.3 32.25 23.3 30.7 23.3 30.15
L 23.5 28.6
M 33.75 36.05
L 33.8 35.4 31.9 35 30.25 34.9
Q 28.2 36.7 27.75 38.55 27.55 39.3 27.55 41.9 27.55 44.35 28.75 46 30.3 48.15 31.1 51.75
L 27.85 51.6 27.85 51.25 27.7 50.4 27.5 50.5
Q 25.75 50.5 25.25 52.25 25.1 52.9 25.1 54.9 25.1 56.15 25.85 60.35
L 26.75 60.25
Q 27.2 55.95 27.6 54.35
L 27.8 53.15 31.25 53.25 32.1 52.4 32.35 51.1 30.6 47.9
Q 28.8 44.9 28.8 42.05 28.8 39.3 29.1 38.6 30.05 36.6 33.75 36.05
M 39.65 22.5
L 38.15 23.7
Q 37.55 24.3 37.55 24.75 37.55 26 37.8 25.5 41.3 23.9 41.3 22.35 41.3 21.8 40.45 20.6
L 39.4 19.3 38.65 19.3 38.55 20.4
Q 38.55 21.15 38.9 21.65
L 39.65 22.5
M 35.35 21.8
L 35.4 20.5
Q 35.4 18.7 33.95 18.1 32.35 17.4 30.15 19
L 30.6 19.4 31.75 19.5 32.95 19.3 34.15 20.5 33.85 21.05 33.65 21.6
Q 28.35 21.7 26.2 23.3 25 24.2 25 25.25 25 25.95 25.55 27.45 26.1 29.05 26.65 29.5 29.1 29.1 31.35 30 32.5 30.45 33.25 31 34 31 34 30.8
L 33.8 30.25 32 28.5
Q 30.45 27.5 28.1 27.5
L 26.75 27.6 26.3 27.5 26.25 25.25
Q 26.25 24.6 27.55 24.05 29.55 23.2 33.75 23.1 35 22.9 35.35 21.8
M 27.6 14.85
Q 26.25 15.25 25.05 16.6 24 17.8 24 18.65
L 24.45 19.95
Q 25.1 21.25 26.1 22
L 26.75 21.35 25.9 20.25
Q 25.5 19.6 25.5 18.75 25.5 17.6 26.25 17.2 27.25 16.7 31.15 16.25
L 35.55 16.5 36.25 15.7 36.4 14.55 36.35 13.65 36.05 13.5
Q 35.75 13.75 35.5 14.85 35.45 15.25 32.4 15.25
L 27.6 14.85
M 43.35 39.6
L 43.2 38.75 43 38.85 35.9 47.85 33.8 46.2 33.3 45.6
Q 33.3 45 33.8 44.2
L 34.3 42.75 34.25 41.6 34 41.05 33.25 41.25 32.6 43.4
Q 32.05 44.7 32.05 45.35
L 32.5 47.25
Q 33.55 49.1 36.4 49.1 39.85 49.1 39.9 47.4 39.35 45.3 39.85 44.5 43.35 40.15 43.35 39.6
M 43.6 36
L 43.85 35.25 39.85 34.6
Q 39.3 34.5 37.6 32.3 35.85 30.1 35.85 29.4 35.85 28.8 36.35 28.6 36.85 28.4 36.85 27.75
L 36.7 26.9 36.5 27
Q 34.55 27.5 34.55 29.4 34.55 31.25 36.5 33.7 39.25 37.15 43.6 36
M 44.05 27.7
Q 42.55 26.25 41.1 27
L 41.1 28
Q 42.15 29.55 42.9 29.65
L 44 30 40.15 30.75
Q 39.75 30.9 39.1 31.5 39.45 32 41.25 32
L 45.25 31.35 45.35 30
Q 45.35 28.9 44.05 27.7 Z"/>
</g>
</defs>

<g transform="matrix( 1, 0, 0, 1, 0,0) ">
<use xlink:href="#Layer0_0_FILL"/>
</g>
</svg>
