
<svg xmlns="http://www.w3.org/2000/svg" version="1.1" xmlns:xlink="http://www.w3.org/1999/xlink" preserveAspectRatio="none" x="0px" y="0px" width="550px" height="400px" viewBox="0 0 550 400">
<defs>
<g id="Graphics_Symbol_280_0_Layer2_0_FILL">
<path fill="#000000" stroke="none" d="
M 51.25 48.95
Q 56.15 44.25 59.2 38.95 62 34 62 30.7 62 21.2 56.6 14.6 49.95 6.45 34.3 1.2 20.4 -3.55 9 10.85 5.1 15.85 2.3 22.05 0 27.25 0 29.3 0 30.2 1.35 34.65 3.1 40.55 5.5 45.5 12.95 60.95 23.25 60.95 38.7 60.95 51.25 48.95
M 59.5 30.85
Q 59.5 33.5 56.8 37.95 53.85 42.7 49.25 47 37.25 58.2 23.1 58.2 14.2 58.2 8.25 44.5 6.3 40.05 5 34.75 4 30.7 4 29.55 4 15.7 12.65 8.95 17.05 5.5 22.75 4.45
L 23.35 4.35
Q 27.25 3.7 31.75 4.2 42.85 5.4 50.85 12.45 59.5 20.15 59.5 30.85
M 42 40.7
Q 48.5 35.55 48.5 31.2 48.5 21.1 42.8 15.95 37.75 11.4 30.25 11.95 22.95 12.55 17.7 17.45 12 22.8 12 30.6
L 12.5 33.35
Q 13.2 36.4 14.25 38.95 17.55 46.95 23 46.95 34.1 46.95 42 40.7
M 41.15 18.4
Q 46 22.9 46 31.2 46 33.85 39.75 38.5 32.1 44.2 22.85 44.2 20.35 44.2 17.5 39 15 34.5 15 32.6 15 24.75 19.85 19.75 24.25 15.25 30.5 14.8 36.8 14.35 41.15 18.4 Z"/>

<path fill="#CCCCCC" stroke="none" d="
M 46 31.2
Q 46 22.9 41.15 18.4 36.8 14.35 30.5 14.8 24.25 15.25 19.85 19.75 15 24.75 15 32.6 15 34.5 17.5 39 20.35 44.2 22.85 44.2 32.1 44.2 39.75 38.5 46 33.85 46 31.2 Z"/>
</g>

<g id="Graphics_Symbol_280_0_Layer1_0_FILL">
<path fill="#333333" stroke="none" d="
M 24.4 36.1
L 24.3 36.3 24.2 37.85
Q 24.2 38.6 24.6 39.35 25.2 40.6 26.6 40.6 28.45 40.6 29.15 39.3
L 29.65 37.7 29.4 36.1 25.8 35.95 24.4 36.1
M 32.4 34.55
L 32.35 35.6
Q 32.35 36.1 33.05 37.15 33.95 38.55 35.15 38.55 36.2 38.55 36.7 38.15
L 37.15 37.7
Q 37.15 35.05 36.8 34.1
L 33.85 33.95 32.6 34.1 32.4 34.55
M 20.15 29.2
Q 19.45 29.35 18.7 30 18.7 31.3 19.45 32.6
L 19.75 33.05
Q 20.8 34.45 22.45 34.45 26.25 34 26.25 31.85 26.25 30.85 25.9 30.35 25.15 29.3 23.1 29.1
L 22.1 29.05 20.15 29.2
M 28.8 22.95
L 30 23.5 34.8 23.5 36.1 22.6
Q 36.45 22.25 36.45 21.05 36.45 18.5 32.4 18.3 28.35 18.1 28.35 21.35 28.35 22.5 28.8 22.95
M 26.25 23.1
L 26.1 22 25.9 21.75 22.95 21.85
Q 22.1 22.15 22.1 23.45 22.1 23.85 23.85 25.55 24.35 25.55 25.2 24.85 26.25 24 26.25 23.1
M 42.55 27.15
L 42.35 26.6 38.7 26.75
Q 37.15 27.5 37.15 28.85 37.15 30.6 37.35 30.7
L 37.95 30.9 39.9 31.05
Q 41.75 31.05 42.35 30.2 42.7 29.7 42.7 28.6
L 42.55 27.15 Z"/>

<path fill="#CCCCCC" stroke="none" d="
M 18.7 30
Q 19.45 29.35 20.15 29.2
L 22.1 29.05 23.1 29.1 22.3 28.7
Q 20.1 27.85 16.85 28.7
L 16.8 29 16.7 30.6
Q 16.7 32.35 16.85 32.7
L 17.95 32.9 19.75 33.05 19.45 32.6
Q 18.7 31.3 18.7 30 Z"/>
</g>

<g id="Graphics_Symbol_280_0_Layer0_0_FILL">
<path fill="#FFFFFF" stroke="none" d="
M 25.05 34.05
Q 24.2 34.35 24.2 35.7
L 24.3 37.5 26.25 37.85 28 37.5 28.2 36.9 28.35 35.6 28.2 34.4 28 34.1 25.05 34.05
M 38.2 28.95
Q 38.7 28.95 39.55 28.2 40.6 27.35 40.6 26.5
L 40.45 25.4 40.25 25.2
Q 38.15 24.85 37.3 25.2 36.45 25.55 36.45 26.85 36.45 27.4 38.2 28.95
M 19.85 26.95
Q 18 28.1 18 29.55 18 31.3 18.2 31.3
L 18.5 31.5 20.1 31.65 22.15 30.5
Q 24.2 29.15 24.2 28.05
L 24.05 26.85 23.85 26.6
Q 21.85 25.75 19.85 26.95
M 24.8 24.2
L 24.85 22.9 24.7 21.25 24.55 20.45
Q 21.8 20.1 20.45 20.45
L 20.2 20.8 20.15 20.8 20.1 21.45 20.1 21.6 20.1 21.75
Q 20.1 22.55 20.8 24.1 21.8 26.25 23.15 26.25 24.25 26.25 24.5 25.9
L 24.65 25.55 24.8 24.2
M 29.1 17.85
Q 29.65 18.35 29.95 18.45
L 31.65 18.7 33.45 18.55
Q 34.4 18.2 34.45 16.95
L 34.45 16.85 34.3 15.8 34.1 15.7 34.1 15.65 29.85 15.5 29.55 15.85 28.95 16.8 29.1 17.85
M 44.55 31.5
L 44.35 31.3
Q 41.75 30 39.55 32.8
L 38.5 34.1 38.55 33.75
Q 36.8 31.7 35.25 31.85 33.95 32 32.35 33.85
L 32.55 35
Q 33.5 35.75 35.4 35.75
L 37.2 35.65 35.7 37
Q 31.5 38.8 24.65 40.25 20.8 41.05 20.8 42.75 20.8 44.5 21 44.25 23.55 44.85 24.1 45.6
L 26.95 46
Q 33.05 46 39.05 41.1 44.7 36.5 44.7 32.6
L 44.55 31.5 Z"/>

<path fill="#FFFFFF" fill-opacity="0.25098039215686274" stroke="none" d="
M 24.85 22.9
L 24.8 24.2
Q 25.8 24.1 26.95 23.2 28.35 22.1 28.35 21
L 28.2 20 28 20.3
Q 24.2 18.7 22.1 19.15 20.55 19.45 20.2 20.8
L 20.45 20.45
Q 21.8 20.1 24.55 20.45
L 24.7 21.25 24.85 22.9
M 29.55 15.85
Q 27.65 16.3 27.65 17.65 27.65 18.35 28 18.95 28.7 20.1 30.35 20.1 32.35 20.1 33.45 19.25 34.45 18.45 34.45 17.15
L 34.45 16.95
Q 34.4 18.2 33.45 18.55
L 31.65 18.7 29.95 18.45
Q 29.65 18.35 29.1 17.85
L 28.95 16.8 29.55 15.85
M 23.3 8.95
Q 24.85 8.5 24.85 7.4 24.85 4.95 18.5 7.3 12.05 9.65 9.4 13.45 9 14 7.45 17.7 5.8 21.5 5.8 22.05 5.8 23.45 7.35 23.45 8.35 23.45 9.6 20.3
L 11.15 15.95
Q 11.55 15.05 12.85 13.65 14.2 12.1 15.1 11.75 18.5 10.35 23.3 8.95 Z"/>
</g>
</defs>

<g transform="matrix( 1, 0, 0, 1, -28.4,-10.7) ">
<g transform="matrix( 1.1900634765625, 0, 0, 1.1900634765625, -24.15,-36.55) ">
<g transform="matrix( 1, 0, 0, 1, 0,0) ">
<g transform="matrix( 1, 0, 0, 1, 0,0) ">
<use xlink:href="#Graphics_Symbol_280_0_Layer2_0_FILL"/>
</g>

<g transform="matrix( 1, 0, 0, 1, 0,0) ">
<use xlink:href="#Graphics_Symbol_280_0_Layer1_0_FILL"/>
</g>

<g transform="matrix( 1, 0, 0, 1, 0,0) ">
<use xlink:href="#Graphics_Symbol_280_0_Layer0_0_FILL"/>
</g>
</g>
</g>
</g>
</svg>
