
<svg xmlns="http://www.w3.org/2000/svg" version="1.1" xmlns:xlink="http://www.w3.org/1999/xlink" preserveAspectRatio="none" x="0px" y="0px" width="550px" height="400px" viewBox="0 0 550 400">
<defs>
<g id="Layer0_0_FILL">
<path fill="#EEEEEE" stroke="none" d="
M 141.05 -125.2
Q 121.05 -125.2 121.05 -105.2
L 121.05 189.8
Q 121.05 209.8 141.05 209.8
L 326.05 209.8
Q 346.05 209.8 346.05 189.8
L 346.05 -105.2
Q 346.05 -125.2 326.05 -125.2
L 141.05 -125.2 Z"/>
</g>

<path id="Layer0_0_1_STROKES" stroke="#CCCCCC" stroke-width="0.05" stroke-linejoin="round" stroke-linecap="round" fill="none" d="
M 141.05 -125.2
L 326.05 -125.2
Q 346.05 -125.2 346.05 -105.2
L 346.05 189.8
Q 346.05 209.8 326.05 209.8
L 141.05 209.8
Q 121.05 209.8 121.05 189.8
L 121.05 -105.2
Q 121.05 -125.2 141.05 -125.2 Z"/>
</defs>

<g transform="matrix( 1, 0, 0, 0.889556884765625, -121.05,111.35) ">
<use xlink:href="#Layer0_0_FILL"/>

<use xlink:href="#Layer0_0_1_STROKES"/>
</g>
</svg>
