
<svg xmlns="http://www.w3.org/2000/svg" version="1.1" xmlns:xlink="http://www.w3.org/1999/xlink" preserveAspectRatio="none" x="0px" y="0px" width="550px" height="400px" viewBox="0 0 550 400">
<defs>
<g id="Graphics_Symbol_801_0_Layer0_0_FILL">
<path fill="#FF0000" stroke="none" d="
M 96.15 139.45
Q 95.45 142.15 93.2 145.55 98.3 146.65 102.95 148.6 102.4 147.65 101.7 145.05
L 101.15 142.55
Q 101.15 140.3 102.05 138.65 103.15 136.6 105.8 135.05
L 95.8 132.95
Q 97.1 135.95 96.15 139.45
M 62.2 128.75
L 62.65 130.95
Q 62.65 133.95 61.1 137.15 59.85 139.65 58.85 140.45
L 69.25 142 70.1 142.05
Q 69.05 141.3 68 139.55 66.6 137.1 66.6 134.6 66.6 132.55 67 131.35 67.8 128.8 70.25 127.6
L 61.15 126.6 62.2 128.75
M 79.1 129.3
Q 80.2 131.85 80.2 132.95
L 79.35 136.5
Q 78.3 140.25 77.15 141.8
L 76.55 142.4 84.6 143.6
Q 84.4 143.5 83.7 141.55 83 139.5 83 138.85 83 136.2 83.75 134.15 84.75 131.5 86.65 130.95
L 79.1 129.3
M 49.1 131.8
Q 49.1 129.95 50.6 127.9 51.5 126.6 52.5 125.8
L 44.15 124.15 44.6 126.95
Q 44.6 127.8 43.6 130.9 42.55 134.3 41.8 135.25
L 44.65 136.35 51 138.55
Q 49.1 135.5 49.1 131.8 Z"/>

<path fill="#660000" stroke="none" d="
M 3.75 44.85
Q 4 42.65 2.6 41 1.05 39.25 -1.55 39.25 -2 39.25 -5.45 40.55 -9.3 41.95 -11.15 43 -11 42.35 -11 41.35 -11 37.15 -12.3 34.35 -14.15 30.35 -19.25 26.85 -19.85 28.4 -21.1 34.25 -21.1 37.1 -18.05 40.7 -15.05 44.25 -15.05 45.35
L -18.7 46.15
Q -21.75 47.15 -21.75 49.15 -21.75 52 -16.75 52 -12.05 52.05 -9.5 50.55 -10.4 52.85 -10.7 52.95 -7.5 55.15 -4.7 60.95 -1.5 67.8 -2.95 72.95 -1.65 73.15 -0.15 74 -2 75.5 -6.4 77 -9.25 78 -9.25 80.15 -9.25 83.2 -7.85 84.65 -6.7 85.85 -4.8 85.85
L 0.3 83.9
Q 5.25 81.9 6.55 81.9
L 9.25 84.9 12.1 88.15 15.8 91.35 19.9 94.15
Q 20.45 93.2 22.5 91.45 24.4 89.8 24.75 88.95
L 15.4 82.9
Q 13.85 81.95 13.85 80.9 13.85 79.45 17.55 78.1 21.25 76.8 21.25 75.6 21.25 73.65 19.2 72.5 17.65 71.65 16.1 71.65 14.7 71.65 10.4 72.9
L 5.9 74.25
Q 4.4 73.1 4.4 72.75 4.4 72.1 5.05 71.45 6 70.45 7.9 70.25 6.8 68.7 5.55 64.7 3.8 59.25 3.2 52.5
L 0.7 52.75
Q -2.95 52.65 -3.95 50.85
L -4.6 50.05
Q -0.75 50.25 1.5 48.55 3.5 47.15 3.75 44.85
M 83.15 -8.4
L 82.95 -1.85
Q 82.7 1.5 81.35 2.5 75.25 7 79.6 9.75
L 83.4 11.55
Q 85.45 12.5 85.45 13.25 85.45 16.05 83.1 21.85 81.05 26.95 79 30.2
L 79.9 31 81.1 32.5
Q 80.25 33.5 74.9 33.8 70.5 34.1 70.5 37.4 70.5 40.25 72.05 41.45 73 42.25 75.45 42.7 77.95 43.15 78.8 43.7 80.35 44.7 80.35 47.2 79.25 53.1 78 55.8
L 80.7 57.8
Q 82.5 56.25 82.75 53.45
L 82.7 48.65
Q 82.7 45.4 86.85 43.1 91 40.85 91 38.3 91 35.8 88.75 34.7 86 33.35 85.65 32.6
L 85.95 31.7 89.3 32 90.8 22.4 92.2 14.25
Q 92.2 13.75 91.75 13.8 91.3 13.85 91.3 13.35 91.3 12.7 91.45 12.2
L 91.9 10.75
Q 95.35 12.2 97.85 12.2 100.35 12.2 101.35 11.05 102.35 9.95 102.35 7.3 102.35 2.75 101.3 1.95
L 96.75 1.55 94.35 1.45 95.15 -12.15
Q 95.15 -15.2 93.3 -16.3 92.15 -17 89.85 -17 83.65 -17 83.15 -8.4 Z"/>
</g>
</defs>

<g transform="matrix( 1, 0, 0, 1, -62.75,-76.85) ">
<g transform="matrix( 1, 0, 0, 1, 0,0) ">
<g transform="matrix( 1, 0, 0, 1, 0,0) ">
<use xlink:href="#Graphics_Symbol_801_0_Layer0_0_FILL"/>
</g>
</g>
</g>
</svg>
