
<svg xmlns="http://www.w3.org/2000/svg" version="1.1" xmlns:xlink="http://www.w3.org/1999/xlink" preserveAspectRatio="none" x="0px" y="0px" width="550px" height="400px" viewBox="0 0 550 400">
<defs>
<g id="Parts_Feet_footMC_5_Layer7_0_FILL">
<path fill="#000000" stroke="none" d="
M -0.95 3.45
L -4.15 4.15 -4.95 4 -8.35 3.8 -8.55 12.4 -9.1 13.65
Q -9.6 15.15 -9.6 16.9 -9.6 18.15 -9.35 17.5
L -8.6 17.4 -8.6 17.5 -7.6 27.5 -7.85 37.6
Q -5.5 35.05 -3 31.05
L 0.75 24.75
Q 2.65 31.05 8.5 38.85 9.55 38.1 9.8 36.75
L 9.85 34.65
Q 9.85 31.35 8.6 23.45 7.3 15.6 7.3 11.75
L 8.3 3.1 8.05 1.55 0 3.25 0.05 3.05 -0.65 3.3 -0.95 3.45
M -7.45 7.65
Q -7.4 6.75 -6.7 6.45
L -6.75 6.05 6 3.8 5.6 11.25 5.05 12.05
Q 5.4 12.4 5.4 13.3
L 5.4 14.15 5.6 13.65
Q 5.8 17.85 6.8 24 8.05 31.5 8.05 34
L 8 35.35
Q 5.55 33.2 3.8 28.9 2.15 24 1 21.75 -0.9 24.2 -3.25 28.5
L -6.85 34.75 -7.45 15.35 -7.3 15.6 -7.3 9.45 -7.45 7.65
M -1.25 -16.5
L -2.15 -16.5
Q -2.6 -16.35 -2.6 -15.55 -2.6 -12.65 -1 2.9
L 0.05 2.75 -0.15 -7.3
Q -0.4 -12.7 -1.25 -16.5 Z"/>
</g>

<g id="Graphics_Symbol_271_0_Layer2_0_FILL">
<path fill="#000000" fill-opacity="0.25098039215686274" stroke="none" d="
M -3.05 4.85
Q -5.8 3.55 -7.75 8.55 -9.4 12.9 -9.4 18.1 -9.4 21.65 -6.8 33.2
L -6.5 33.9
Q -2.6 14.9 -3.05 4.85
M 7.2 9.55
Q 7.35 0.1 3.85 3.25 3.05 4.25 1.9 6.15 0.8 7.9 3.25 12 5.65 16.1 6.2 25.6 6.7 35.1 8.25 34.9
L 9.25 34.55
Q 7.05 19 7.2 9.55 Z"/>
</g>

<g id="Graphics_Symbol_271_0_Layer1_0_FILL">
<path fill="#FFFFFF" fill-opacity="0.25098039215686274" stroke="none" d="
M 0.65 9
L 0.6 5.3 -0.25 4.3
Q -1.9 8.5 -4.45 16.9 -7 25.35 -7 26.6 -7 27.25 -6.6 27.45 -6.25 27.65 -6.25 28.4
L -6.15 29.05 -5.75 29.15
Q -1.7 22.3 -3 19.75
L -2.2 18.25
Q -1.15 20.4 0.8 25.5 2.8 29.55 5.6 29.55
L 6.85 29.25 7.5 29 7.6 29.05 7.65 28.45
Q 7.65 27.6 5.55 24.35
L 1.15 18.3
Q -0.15 16.65 0.1 12.9
L 0.65 9
M 5.95 27.35
L 6.3 28.35
Q 5.75 27.85 4.55 25.85 3.3 23.8 3.3 23.3 4.7 25 5.95 27.35 Z"/>
</g>

<g id="Graphics_Symbol_271_0_Layer0_0_FILL">
<path fill="#FFFFFF" stroke="none" d="
M 0.75 7.7
Q 0.75 8.2 1.95 10.7 3.25 13.5 4.25 14.75
L 4.8 14.5 4.8 14.05 4.9 14.4 4.75 15.9 4.8 16.15 5.25 16.25
Q 5.85 16.25 5.55 16.1
L 6.05 14.75
Q 6.05 12.35 4.75 9 3.2 5 1.25 5.05
L 0.95 6.5 0.75 7.7 Z"/>
</g>

<g id="MovieClips_Symbol_228_5_Layer1_0_FILL">
<path fill="#006699" stroke="none" d="
M 5.6 13.65
Q 3.2 18.75 2 18.75 -2.6 18.75 -5.5 17
L -7.45 15.35 -6.85 34.75 -3.25 28.5
Q -0.9 24.2 1 21.75 2.15 24 3.8 28.9 5.55 33.2 8 35.35
L 8.05 34
Q 8.05 31.5 6.8 24 5.8 17.85 5.6 13.65
M 1.05 17.1
Q 2.55 16.35 4 13.75
L 5.6 11.25 6 3.8 -6.75 6.05 -6.25 9.85
Q -6.25 10.5 -6.85 11.25
L -7.25 11.85 -6.7 13.05 -6.25 14.75
Q -5.2 16.45 -2.75 16.35 0 16.2 1.05 17.1 Z"/>
</g>

<g id="MovieClips_Symbol_264_5_Layer1_0_FILL">
<path fill="#000000" stroke="none" d="
M -4.95 4
L -8.35 3.8 -8.55 12.4 -9.1 13.65
Q -9.6 15.15 -9.6 16.9 -9.6 18.15 -9.35 17.5
L -8.6 17.4 -8.6 17.5 -7.6 27.5 -7.85 37.6
Q -5.5 35.05 -3 31.05
L 0.75 24.75
Q 2.65 31.05 8.5 38.85 9.55 38.1 9.8 36.75
L 9.85 34.65
Q 9.85 31.35 8.6 23.45 7.3 15.6 7.3 11.75
L 8.3 3.1 8.05 1.55 0 3.25 0.05 3.05 -0.65 3.3 -0.95 3.45 -4.15 4.15 -4.95 4
M -6.7 6.45
L -6.75 6.05 6 3.8 5.6 11.25 5.05 12.05
Q 5.4 12.4 5.4 13.3
L 5.4 14.15 5.6 13.65
Q 5.8 17.85 6.8 24 8.05 31.5 8.05 34
L 8 35.35
Q 5.55 33.2 3.8 28.9 2.15 24 1 21.75 -0.9 24.2 -3.25 28.5
L -6.85 34.75 -7.45 15.35 -7.3 15.6 -7.3 9.45 -7.45 7.65
Q -7.4 6.75 -6.7 6.45
M -2.15 -16.5
Q -2.6 -16.35 -2.6 -15.55 -2.6 -12.65 -1 2.9
L 0.05 2.75 -0.15 -7.3
Q -0.4 -12.7 -1.25 -16.5
L -2.15 -16.5 Z"/>
</g>
</defs>

<g transform="matrix( 1, 0, 0, 1, -28.4,-10.7) ">
<g transform="matrix( 1, 0, 0, 1, 0,0) ">
<use xlink:href="#Parts_Feet_footMC_5_Layer7_0_FILL"/>
</g>

<g transform="matrix( 1, 0, 0, 1, 0,0) ">
<g transform="matrix( 1, 0, 0, 1, 0,0) ">
<use xlink:href="#Graphics_Symbol_271_0_Layer2_0_FILL"/>
</g>

<g transform="matrix( 1, 0, 0, 1, 0,0) ">
<use xlink:href="#Graphics_Symbol_271_0_Layer1_0_FILL"/>
</g>

<g transform="matrix( 1, 0, 0, 1, 0,0) ">
<use xlink:href="#Graphics_Symbol_271_0_Layer0_0_FILL"/>
</g>
</g>
</g>

<g transform="matrix( 1, 0, 0, 1, -28.15,-10.5) ">
<g transform="matrix( 1, 0, 0, 1, 0,0) ">
<use xlink:href="#MovieClips_Symbol_228_5_Layer1_0_FILL"/>
</g>
</g>

<g transform="matrix( 1, 0, 0, 1, -28.4,-10.7) ">
<g transform="matrix( 1, 0, 0, 1, 0,0) ">
<use xlink:href="#MovieClips_Symbol_264_5_Layer1_0_FILL"/>
</g>
</g>
</svg>
