
<svg xmlns="http://www.w3.org/2000/svg" version="1.1" xmlns:xlink="http://www.w3.org/1999/xlink" preserveAspectRatio="none" x="0px" y="0px" width="550px" height="400px" viewBox="0 0 550 400">
<defs>
<g id="MovieClips_Symbol_264_5_Layer1_0_FILL">
<path fill="#000000" stroke="none" d="
M -4.95 4
L -8.35 3.8 -8.55 12.4 -9.1 13.65
Q -9.6 15.15 -9.6 16.9 -9.6 18.15 -9.35 17.5
L -8.6 17.4 -8.6 17.5 -7.6 27.5 -7.85 37.6
Q -5.5 35.05 -3 31.05
L 0.75 24.75
Q 2.65 31.05 8.5 38.85 9.55 38.1 9.8 36.75
L 9.85 34.65
Q 9.85 31.35 8.6 23.45 7.3 15.6 7.3 11.75
L 8.3 3.1 8.05 1.55 0 3.25 0.05 3.05 -0.65 3.3 -0.95 3.45 -4.15 4.15 -4.95 4
M -6.7 6.45
L -6.75 6.05 6 3.8 5.6 11.25 5.05 12.05
Q 5.4 12.4 5.4 13.3
L 5.4 14.15 5.6 13.65
Q 5.8 17.85 6.8 24 8.05 31.5 8.05 34
L 8 35.35
Q 5.55 33.2 3.8 28.9 2.15 24 1 21.75 -0.9 24.2 -3.25 28.5
L -6.85 34.75 -7.45 15.35 -7.3 15.6 -7.3 9.45 -7.45 7.65
Q -7.4 6.75 -6.7 6.45
M -2.15 -16.5
Q -2.6 -16.35 -2.6 -15.55 -2.6 -12.65 -1 2.9
L 0.05 2.75 -0.15 -7.3
Q -0.4 -12.7 -1.25 -16.5
L -2.15 -16.5 Z"/>
</g>
</defs>

<g transform="matrix( 1, 0, 0, 1, -28.4,-10.7) ">
<g transform="matrix( 1, 0, 0, 1, 0,0) ">
<use xlink:href="#MovieClips_Symbol_264_5_Layer1_0_FILL"/>
</g>
</g>
</svg>
