
<svg xmlns="http://www.w3.org/2000/svg" version="1.1" xmlns:xlink="http://www.w3.org/1999/xlink" preserveAspectRatio="none" x="0px" y="0px" width="550px" height="400px" viewBox="0 0 550 400">
<defs>
<g id="Layer0_0_FILL">
<path fill="#000000" stroke="none" d="
M 59.95 37.15
Q 54.45 0 46 0 24.95 0 14.5 25.5 10.95 34.15 9.1 44.8 7.75 52.45 7.75 57.35 7.75 60.15 8.5 62
L 9 60.8
Q 8.9 73.15 6.05 98.2
L 3.1 124.4
Q 0 130 0 130.85 0 132.35 0.4 132.45
L 0.75 132.5 3.85 132.55
Q 44 133.4 52.4 136.65 54.8 137.55 58 140.4 61.3 143.25 66.25 145.25
L 67 144 67 99
Q 63 57.75 59.95 37.15
M 11.5 80.85
Q 11.5 64.8 9.75 54.3 11.7 40.15 15.6 28.85 24.95 2 45 2 53 2 59.3 59.8 62.45 88.75 64 118.25
L 63.75 140.5
Q 57.85 137.05 56.15 136.2 53.95 135.15 50.3 134.7 34.05 133.3 5.1 129.1
L 4.95 129.05 5.2 128.1
Q 12.15 119.1 15.2 106.45 17.7 91.55 19.25 84.75 16.9 86.9 15.5 94.75 13.8 104.15 12.75 106.5
L 8.55 114.65 9.75 107.9
Q 11.5 96.2 11.5 80.85 Z"/>
</g>
</defs>

<g transform="matrix( 1, 0, 0, 1, 0,0) ">
<use xlink:href="#Layer0_0_FILL"/>
</g>
</svg>
