<?xml version='1.0' encoding='utf-8'?>
<svg xmlns="http://www.w3.org/2000/svg" xmlns:xlink="http://www.w3.org/1999/xlink" version="1.1" width="550px" height="400px" viewBox="0 0 550 400" preserveAspectRatio="none" data-xfl-root="MovieClips/Symbol 340">
  <g data-xfl-symbol="MovieClips/Symbol 340">
    <g data-xfl-symbol="Graphics/Symbol 339">
      <g data-svg-leaf="graphics_symbol_339_96228c299b/t00_l001_f0000_r00.svg">
        <defs>
          <g id="xfl1_Layer0_0_FILL">
            <path fill="#000000" stroke="none" d=" M 66 0 L 0 15 0 280 128.8 280 128.8 15 66 0 Z" />
          </g>
        </defs>
        <g transform="matrix( 1, 0, 0, 1, 0,0) ">
          <use xlink:href="#xfl1_Layer0_0_FILL" />
        </g>
      </g>
      <g data-svg-leaf="graphics_symbol_339_96228c299b/t00_l000_f0000_r00.svg">
        <defs>
          <g id="xfl2_Layer0_0_FILL">
            <path fill="#333333" stroke="none" d=" M 47.55 243.55 L 33.7 244 33.7 252.5 47.55 252.3 47.55 243.55 M 49.55 268.25 L 49.55 277 63.4 277 63.4 268.05 49.55 268.25 M 63.4 264.05 L 63.4 256.05 49.55 256.25 49.55 264.25 63.4 264.05 M 31.7 277 L 31.7 268.55 17.85 268.75 17.85 277 31.7 277 M 33.7 268.5 L 33.7 277 47.55 277 47.55 268.3 33.7 268.5 M 15.85 268.8 L 2 269 2 277.4 15.95 277.2 15.85 268.8 M 2 257 L 2 265 15.85 264.8 15.85 256.8 2 257 M 33.7 256.5 L 33.7 264.5 47.55 264.3 47.55 256.3 33.7 256.5 M 31.7 264.55 L 31.7 256.55 17.85 256.75 17.85 264.75 31.7 264.55 M 31.7 244.05 L 17.85 244.5 17.85 252.75 31.7 252.55 31.7 244.05 M 31.7 227.6 L 31.7 219.55 17.85 220.2 17.85 228.25 31.7 227.6 M 15.85 232.35 L 2 232.95 2 241 15.85 240.55 15.85 232.35 M 17.85 232.25 L 17.85 240.5 31.7 240.05 31.7 231.6 17.85 232.25 M 2 208.95 L 2 216.95 15.85 216.3 15.85 208.1 2 208.95 M 31.7 215.6 L 31.7 207.1 17.85 207.95 17.85 216.2 31.7 215.6 M 63.4 243.05 L 49.55 243.5 49.55 252.25 63.4 252.05 63.4 243.05 M 49.55 218.75 L 49.55 226.75 63.4 226.1 63.4 218.1 49.55 218.75 M 47.55 226.85 L 47.55 218.85 33.7 219.45 33.7 227.5 47.55 226.85 M 47.55 214.85 L 47.55 206.1 33.7 207 33.7 215.5 47.55 214.85 M 63.4 214.1 L 63.4 205.1 49.55 206 49.55 214.75 63.4 214.1 M 47.55 193.35 L 33.7 194.45 33.7 202.95 47.55 202.1 47.55 193.35 M 47.55 151.95 L 47.55 143.9 33.7 145.45 33.7 153.45 47.55 151.95 M 63.4 192.15 L 49.55 193.2 49.55 202 63.4 201.1 63.4 192.15 M 49.55 168.45 L 49.55 177.2 63.4 176.15 63.4 167.15 49.55 168.45 M 49.55 181.25 L 49.55 189.2 63.4 188.15 63.4 180.15 49.55 181.25 M 31.7 194.6 L 17.85 195.7 17.85 203.95 31.7 203.1 31.7 194.6 M 31.7 178.6 L 31.7 170.15 17.85 171.45 17.85 179.7 31.7 178.6 M 33.7 169.95 L 33.7 178.75 47.45 177.45 47.55 168.65 33.7 169.95 M 33.7 182.45 L 33.7 190.45 47.55 189.35 47.55 181.4 33.7 182.45 M 2 192.95 L 15.85 191.85 15.85 183.85 2 184.95 2 192.95 M 15.85 195.85 L 2 196.95 2 204.95 15.85 204.1 15.85 195.85 M 17.85 183.7 L 17.85 191.7 31.7 190.6 31.7 182.6 17.85 183.7 M 15.85 171.65 L 2 172.9 2 181.45 15.85 179.95 15.85 171.65 M 2 148.9 L 2 156.9 15.85 155.4 15.85 147.4 2 148.9 M 31.7 166.15 L 31.7 157.65 17.85 159.2 17.85 167.4 31.7 166.15 M 31.7 145.65 L 17.85 147.2 17.85 155.15 31.7 153.65 31.7 145.65 M 2 144.9 L 15.85 143.35 15.85 135.15 2 136.9 2 144.9 M 17.85 134.9 L 17.85 143.15 31.7 141.65 31.7 133.15 17.85 134.9 M 2 112.85 L 2 120.85 15.85 118.9 15.85 110.95 2 112.85 M 31.7 116.7 L 31.7 108.7 17.85 110.65 17.85 118.6 31.7 116.7 M 49.55 118.2 L 49.55 126.95 63.4 125.2 63.4 116.25 49.55 118.2 M 47.55 127.2 L 47.55 118.5 33.7 120.4 33.7 128.9 47.55 127.2 M 49.55 130.95 L 49.55 139.7 64.4 138.1 64.4 129.1 49.55 130.95 M 47.55 139.9 L 47.55 131.2 33.7 132.9 33.7 141.45 47.55 139.9 M 47.55 114.45 L 47.55 106.45 33.7 108.4 33.7 116.4 47.55 114.45 M 63.4 112.2 L 63.4 104.25 49.55 106.15 49.55 114.15 63.4 112.2 M 47.55 93.75 L 33.7 95.9 33.7 104.4 47.55 102.45 47.55 93.75 M 47.55 52.3 L 47.55 43.55 33.7 46.4 33.7 54.9 47.55 52.3 M 63.4 91.25 L 49.55 93.45 49.55 102.15 63.35 100.25 63.4 91.25 M 49.55 67.9 L 49.55 76.65 63.4 74.3 63.4 65.3 49.55 67.9 M 49.55 80.65 L 49.55 89.45 63.4 87.25 63.4 78.3 49.55 80.65 M 31.7 96.2 L 17.85 98.4 17.85 106.65 31.7 104.7 31.7 96.2 M 33.7 70.85 L 33.7 79.4 47.55 77 47.55 68.25 33.7 70.85 M 31.7 79.75 L 31.7 71.25 17.85 73.85 17.85 82.1 31.7 79.75 M 33.7 83.4 L 33.7 91.9 47.55 89.75 47.55 81 33.7 83.4 M 2 96.85 L 15.85 94.7 15.85 86.45 2 88.85 2 96.85 M 2 76.8 L 2 84.85 15.85 82.45 15.85 74.2 2 76.8 M 17.85 86.1 L 17.85 94.4 31.7 92.2 31.7 83.75 17.85 86.1 M 2 64.85 L 2 72.85 15.85 70.25 15.85 62.25 2 64.85 M 33.7 58.9 L 33.7 66.9 47.55 64.3 47.55 56.3 33.7 58.9 M 31.7 67.25 L 31.7 59.25 17.85 61.85 17.85 69.85 31.7 67.25 M 15.85 33.75 L 15.85 25.8 2 28.8 2 36.8 15.85 33.75 M 17.85 25.35 L 17.85 33.3 31.7 30.3 31.7 22.3 17.85 25.35 M 47.55 26.8 L 47.55 18.85 33.7 21.85 33.7 29.85 47.55 26.8 M 63.4 49.3 L 63.4 40.35 49.55 43.15 49.55 51.9 63.4 49.3 M 63.4 23.35 L 63.4 15.35 49.55 18.4 49.55 26.35 63.4 23.35 M 63.4 11.35 L 63.4 2.6 49.55 5.85 49.55 14.4 63.4 11.35 Z" />
            <path fill="#111111" stroke="none" d=" M 79.25 268.25 L 65.4 268 65.4 277 79.25 277 79.25 268.25 M 79.25 243.45 L 65.4 243.05 65.4 252 79.25 252.25 79.25 243.45 M 79.25 218.7 L 65.4 218.05 65.4 226.05 79.25 226.7 79.25 218.7 M 65.4 214.05 L 79.25 214.7 79.25 205.95 65.4 205.05 65.4 214.05 M 126.8 253 L 126.8 245 112.95 244.55 112.95 252.8 126.8 253 M 112.95 268.75 L 112.95 277 126.8 277 126.8 269 112.95 268.75 M 95.1 268.5 L 81.25 268.25 81.25 277 95.1 277 95.1 268.5 M 81.25 256.25 L 81.25 264.25 95.1 264.5 95.1 256.5 81.25 256.25 M 110.95 264.75 L 110.95 256.75 97.1 256.5 97.1 264.5 110.95 264.75 M 112.95 256.75 L 112.95 264.75 126.8 265 126.8 257 112.95 256.75 M 110.95 244.5 L 97.1 244.05 97.1 252.55 110.95 252.75 110.95 244.5 M 97.1 219.55 L 97.1 227.55 110.95 228.2 110.95 220.2 97.1 219.55 M 97.1 231.55 L 97.1 240.05 110.95 240.45 110.95 232.2 97.1 231.55 M 81.25 230.8 L 81.25 239.55 95.1 239.95 95.1 231.45 81.25 230.8 M 95.1 244 L 81.25 243.55 81.25 252.3 95.1 252.5 95.1 244 M 95.1 219.45 L 81.25 218.8 81.25 226.8 95.1 227.45 95.1 219.45 M 110.95 216.2 L 110.95 207.95 97.1 207.05 97.1 215.55 110.95 216.2 M 126.8 240.95 L 126.8 232.95 112.95 232.3 112.95 240.55 126.8 240.95 M 127.8 229 L 127.8 221 112.95 220.3 112.95 228.3 127.8 229 M 126.8 216.95 L 126.8 208.95 112.95 208.05 112.95 216.3 126.8 216.95 M 126.8 196.9 L 112.95 195.8 112.95 204.05 126.8 204.9 126.8 196.9 M 126.8 156.9 L 126.8 148.9 112.95 147.35 112.95 155.35 126.8 156.9 M 110.95 195.65 L 97.1 194.55 97.1 203.05 110.95 203.9 110.95 195.65 M 97.1 170.1 L 97.1 178.55 110.95 179.65 110.95 171.4 97.1 170.1 M 112.95 171.6 L 112.95 179.8 126.8 180.9 126.8 172.9 112.95 171.6 M 112.95 183.8 L 112.95 191.8 126.8 192.9 126.8 184.9 112.95 183.8 M 81.25 189.3 L 95.1 190.4 95.1 182.4 81.25 181.3 81.25 189.3 M 97.1 182.55 L 97.1 190.55 110.95 191.65 110.95 183.65 97.1 182.55 M 95.1 194.4 L 81.25 193.3 81.25 202.05 95.1 202.9 95.1 194.4 M 95.1 169.9 L 81.25 168.55 81.25 177.3 95.1 178.4 95.1 169.9 M 95.1 165.85 L 95.1 157.35 81.25 155.85 81.25 164.55 95.1 165.85 M 110.95 167.35 L 110.95 159.1 97.1 157.6 97.1 166.05 110.95 167.35 M 110.95 147.1 L 97.1 145.55 97.1 153.55 110.95 155.1 110.95 147.1 M 81.25 139.8 L 95.1 141.35 95.1 132.85 81.25 131.1 81.25 139.8 M 97.1 133.1 L 97.1 141.55 110.95 143.1 110.95 134.85 97.1 133.1 M 95.1 145.35 L 81.25 143.8 81.25 151.8 95.1 153.35 95.1 145.35 M 95.1 116.3 L 95.1 108.35 81.25 106.35 81.25 114.35 95.1 116.3 M 110.95 118.6 L 110.95 110.6 97.1 108.6 97.1 116.6 110.95 118.6 M 126.8 144.9 L 126.8 136.85 112.95 135.1 112.95 143.35 126.8 144.9 M 126.8 108.85 L 126.8 100.85 112.95 98.65 112.95 106.85 126.8 108.85 M 126.8 120.85 L 126.8 112.85 112.95 110.85 112.95 118.85 126.8 120.85 M 65.4 180.05 L 65.4 188.05 79.25 189.15 79.25 181.15 65.4 180.05 M 79.25 193.15 L 65.4 192.05 65.4 201.05 79.25 201.9 79.25 193.15 M 79.25 168.35 L 65.4 167.05 65.4 176.05 79.25 177.15 79.25 168.35 M 65.4 163.05 L 79.25 164.35 79.25 155.6 65.4 154.05 65.4 163.05 M 79.25 143.6 L 65.4 142.05 65.4 150.05 79.25 151.6 79.25 143.6 M 65.4 138.05 L 79.25 139.6 79.25 130.85 65.4 129.05 65.4 138.05 M 65.4 112.05 L 79.25 114.05 79.25 106.05 65.4 104.05 65.4 112.05 M 65.4 78.1 L 65.4 87.1 79.25 89.3 79.25 80.5 65.4 78.1 M 79.25 93.3 L 65.4 91.1 65.4 100.05 79.25 102.05 79.25 93.3 M 65.4 61.1 L 79.25 63.7 79.25 55.75 65.4 53.1 65.4 61.1 M 79.25 67.7 L 65.4 65.1 65.4 74.1 79.25 76.5 79.25 67.7 M 65.4 40.1 L 65.4 49.1 79.25 51.7 79.25 42.95 65.4 40.1 M 65.4 36.1 L 79.25 38.95 79.25 30.15 65.4 27.1 65.4 36.1 M 65.4 15.1 L 65.4 23.1 79.25 26.15 79.25 18.15 65.4 15.1 M 110.95 98.35 L 97.1 96.1 97.1 104.6 110.95 106.55 110.95 98.35 M 97.1 71.15 L 97.1 79.6 110.95 82.05 110.95 73.75 97.1 71.15 M 112.95 74.15 L 112.95 82.4 126.8 84.8 126.8 76.8 112.95 74.15 M 112.95 86.4 L 112.95 94.65 126.8 96.85 126.8 88.8 112.95 86.4 M 97.1 83.6 L 97.1 92.1 110.95 94.35 110.95 86.05 97.1 83.6 M 95.1 95.8 L 81.25 93.6 81.25 102.35 95.1 104.3 95.1 95.8 M 95.1 70.75 L 81.25 68.1 81.25 76.85 95.1 79.25 95.1 70.75 M 95.1 58.75 L 81.25 56.1 81.25 64.1 95.1 66.75 95.1 58.75 M 110.95 69.75 L 110.95 61.75 97.1 59.1 97.1 67.15 110.95 69.75 M 112.95 62.15 L 112.95 70.15 126.8 72.8 126.8 64.8 112.95 62.15 M 112.95 49.9 L 112.95 58.15 126.8 60.8 126.8 52.75 112.95 49.9 M 110.95 33.2 L 110.95 25.2 97.1 22.15 97.1 30.15 110.95 33.2 M 97.1 34.15 L 97.1 42.65 110.95 45.5 110.95 37.2 97.1 34.15 M 81.25 30.6 L 81.25 39.35 95.1 42.25 95.1 33.7 81.25 30.6 M 95.1 46.2 L 81.25 43.35 81.25 52.1 95.1 54.75 95.1 46.2 M 126.8 36.75 L 126.8 28.75 112.95 25.65 112.95 33.65 126.8 36.75 M 126.8 48.75 L 126.8 40.75 112.95 37.65 112.95 45.9 126.8 48.75 Z" />
            <path fill="#FFFF00" stroke="none" d=" M 65.4 264 L 79.25 264.25 79.25 256.25 65.4 256 65.4 264 M 15.85 244.55 L 2 245 2 253 15.85 252.8 15.85 244.55 M 15.85 220.3 L 2 220.95 2 228.95 15.85 228.35 15.85 220.3 M 65.4 239 L 79.25 239.45 79.25 230.7 65.4 230.05 65.4 239 M 47.55 239.55 L 47.55 230.85 33.7 231.5 33.7 240 47.55 239.55 M 49.55 230.75 L 49.55 239.5 63.4 239.05 63.4 230.1 49.55 230.75 M 110.95 277 L 110.95 268.75 97.1 268.5 97.1 277 110.95 277 M 95.1 215.45 L 95.1 206.95 81.25 206.05 81.25 214.8 95.1 215.45 M 112.95 159.35 L 112.95 167.55 126.8 168.9 126.8 160.9 112.95 159.35 M 97.1 120.6 L 97.1 129.1 110.95 130.85 110.95 122.55 97.1 120.6 M 95.1 120.3 L 81.25 118.35 81.25 127.05 95.1 128.85 95.1 120.3 M 126.8 132.85 L 126.8 124.85 112.95 122.85 112.95 131.1 126.8 132.85 M 63.4 163.15 L 63.4 154.2 49.55 155.7 49.55 164.45 63.4 163.15 M 2 160.9 L 2 168.9 15.85 167.6 15.85 159.4 2 160.9 M 33.7 157.45 L 33.7 165.95 47.55 164.65 47.55 155.9 33.7 157.45 M 31.7 129.15 L 31.7 120.7 17.85 122.65 17.85 130.9 31.7 129.15 M 2 124.85 L 2 132.9 15.85 131.15 15.85 122.95 2 124.85 M 2 108.85 L 15.85 106.9 15.85 98.7 2 100.85 2 108.85 M 63.4 142.2 L 49.55 143.7 49.55 151.7 63.4 150.2 63.4 142.2 M 79.25 118.05 L 65.4 116.05 65.4 125.05 79.25 126.8 79.25 118.05 M 63.4 61.3 L 63.4 53.3 49.55 55.9 49.55 63.9 63.4 61.3 M 15.85 58.25 L 15.85 50 2 52.8 2 60.85 15.85 58.25 M 17.85 49.6 L 17.85 57.85 31.7 55.25 31.7 46.8 17.85 49.6 M 17.85 37.35 L 17.85 45.6 31.7 42.75 31.7 34.3 17.85 37.35 M 2 40.8 L 2 48.8 15.85 46 15.85 37.8 2 40.8 M 15.85 21.75 L 15.85 13.6 2 16.8 2 24.8 15.85 21.75 M 31.7 18.3 L 31.7 9.95 17.85 13.15 17.85 21.3 31.7 18.3 M 49.55 30.4 L 49.55 39.15 63.4 36.35 63.4 27.35 49.55 30.4 M 47.55 39.55 L 47.55 30.85 33.7 33.85 33.7 42.35 47.55 39.55 M 47.55 14.8 L 47.55 6.3 33.7 9.5 33.7 17.85 47.55 14.8 M 65.4 2.15 L 65.4 11.1 79.25 14.15 79.25 5.2 66 2 65.4 2.15 M 81.25 89.6 L 95.1 91.8 95.1 83.25 81.25 80.85 81.25 89.6 M 110.95 57.8 L 110.95 49.5 97.1 46.65 97.1 55.15 110.95 57.8 M 95.1 21.7 L 81.25 18.6 81.25 26.6 95.1 29.7 95.1 21.7 M 95.1 17.7 L 95.1 9.05 81.25 5.7 81.25 14.6 95.1 17.7 M 110.95 21.2 L 110.95 12.85 97.1 9.55 97.1 18.15 110.95 21.2 M 126.8 24.75 L 126.8 16.7 112.95 13.35 112.95 21.65 126.8 24.75 Z" />
          </g>
        </defs>
        <g transform="matrix( 1, 0, 0, 1, 0,0) ">
          <use xlink:href="#xfl2_Layer0_0_FILL" />
        </g>
      </g>
    </g>
  </g>
</svg>