<?xml version='1.0' encoding='utf-8'?>
<svg xmlns="http://www.w3.org/2000/svg" xmlns:xlink="http://www.w3.org/1999/xlink" version="1.1" width="550px" height="400px" viewBox="0 0 550 400" preserveAspectRatio="none" data-xfl-root="UI/Pages/Levels/Stamps/rock1">
  <g data-xfl-symbol="UI/Pages/Levels/Stamps/rock1">
    <g data-xfl-symbol="Graphics/Symbol 329">
      <g data-svg-leaf="graphics_symbol_329_9c82eafb45/t00_l002_f0000_r00.svg">
        <defs>
          <g id="xfl1_Layer0_0_FILL">
            <path fill="#CECD97" stroke="none" d=" M 79.75 73 Q 79.75 69.3 76.25 66.8 73.15 64.55 68.65 64.15 64.1 63.7 61 65.35 57.5 67.15 57.5 70.75 57.5 74.2 58.3 76.05 60.1 80 65.5 80 71.7 80 75.55 78.3 79.75 76.4 79.75 73 M 40.25 82.55 L 40.25 88 52.45 88 52.45 82.55 40.25 82.55 M 21.75 90.2 Q 30.45 86.2 29.6 78 L 20 85 Q 16.7 87.65 21.1 90.05 L 21.75 90.2 M 83.9 12.05 L 87.2 0 Q 70.65 4.25 56.9 14.75 26.45 38.05 0 65.45 L 2.9 74.15 Q 13.35 75.7 24.15 75.95 36.8 77.15 48.65 72.15 L 83.9 12.05 M 78.7 11.7 L 79.1 11.8 79 11.95 78.7 11.7 Z" />
          </g>
        </defs>
        <g transform="matrix( 1, 0, 0, 1, 0,0) ">
          <use xlink:href="#xfl1_Layer0_0_FILL" />
        </g>
      </g>
      <g data-svg-leaf="graphics_symbol_329_9c82eafb45/t00_l001_f0000_r00.svg">
        <defs>
          <g id="xfl2_Layer0_0_FILL">
            <path fill="#FFFFFF" stroke="none" d=" M 70.5 65.05 Q 55.5 60.5 57.4 77 L 65.55 73.55 70.5 65.05 M 38.55 88.15 L 40 88.75 Q 42.45 88.8 43.85 87.2 45 85.9 45 84.35 45 82.85 44.8 82.75 L 44.25 82.5 Q 42.7 82.5 40.6 83.4 38 84.5 38 86 38 87.65 38.55 88.15 M 18 88.25 L 28.75 79.35 Q 19.4 78.85 15.85 87.8 L 18 88.25 M 0.85 71.05 L 4.2 72.95 84.1 0.35 Q 66.85 8.1 50.65 21.45 L 19 47.65 Q 6.6 57.8 0.85 71.05 Z" />
          </g>
        </defs>
        <g transform="matrix( 1, 0, 0, 1, 0,0) ">
          <use xlink:href="#xfl2_Layer0_0_FILL" />
        </g>
      </g>
      <g data-svg-leaf="graphics_symbol_329_9c82eafb45/t00_l000_f0000_r00.svg">
        <defs>
          <g id="xfl3_Layer0_0_FILL">
            <path fill="#000000" fill-opacity="0.25098039215686274" stroke="none" d=" M 68 80 Q 76.8 81.05 80 73 75.75 64.9 68 80 M 52 83 L 45 86 Q 52.55 92.8 52 83 M 19.2 90.8 L 25.45 91 Q 30.1 89.35 29 79 L 19.2 90.8 M 31.5 71.35 L 15.9 74.35 Q 27.8 78.2 38.8 74.55 49.75 70.9 59.9 52.8 70 34.7 85.65 8.85 55.65 37.65 31.5 71.35 Z" />
          </g>
        </defs>
        <g transform="matrix( 1, 0, 0, 1, 0,0) ">
          <use xlink:href="#xfl3_Layer0_0_FILL" />
        </g>
      </g>
    </g>
  </g>
</svg>