<?xml version='1.0' encoding='utf-8'?>
<svg xmlns="http://www.w3.org/2000/svg" xmlns:xlink="http://www.w3.org/1999/xlink" version="1.1" width="550px" height="400px" viewBox="0 0 550 400" preserveAspectRatio="none" data-xfl-root="UI/Pages/Levels/Stamps/spire2">
  <g data-xfl-symbol="UI/Pages/Levels/Stamps/spire2">
    <g data-xfl-symbol="Graphics/Symbol 341">
      <g data-svg-leaf="graphics_symbol_341_cc0bd1dc32/t00_l002_f0000_r00.svg">
        <defs>
          <g id="xfl1_Layer0_0_FILL">
            <path fill="#6C3224" stroke="none" d=" M 0 241.05 L 0.8 240.55 0.3 240.55 0 241.05 M 73.8 0.45 Q 64 14.15 60.55 30.7 56.05 52.6 70.05 70.9 68.75 67.25 71.9 63.3 75.05 59.35 93.05 65.35 98.05 26.75 73.8 0.45 M 256.7 95.5 Q 255.5 74.3 255.95 53.8 256.5 29.55 227.15 34.15 210.1 36.95 199.1 49.05 185.1 64.3 186.2 84.5 187.4 106.2 188.1 127.85 188.25 132.2 180 129 181.15 134 180.15 131 177.6 123.25 172.35 117.7 148.7 129.05 130.55 115.4 106.3 97.3 94.35 69.1 L 93.4 70.75 Q 79.2 63.05 70.05 71 77.15 89.2 69.5 111.8 66.55 120.6 64.8 129.8 L 0.3 240.55 0.8 240.55 Q 18.8 249.1 37.55 255.4 57.35 262.15 77.85 265.25 99.45 268.55 121.05 266.05 141.1 263.35 161.15 258.25 179.8 253.35 198.95 255.8 219.6 258.35 240.5 255.6 260.8 252.9 280 246.3 287.1 243.95 293.9 240.3 283.9 217.8 277 194.25 267.65 162.2 260.45 129.75 257.25 115.5 255 101.2 251.2 101.4 248.1 98.85 230.5 84.45 206.9 93.4 195.4 97.7 187.85 91.25 202.1 86.5 217.2 84.5 239.9 81.1 256.7 95.5 Z" />
            <path fill="#936953" stroke="none" d=" M 93.4 70.75 L 94.35 69.1 94.6 68.1 93.05 65.35 Q 75.05 59.35 71.9 63.3 68.75 67.25 70.05 70.9 L 70 71 70.05 71 Q 79.2 63.05 93.4 70.75 M 217.2 84.5 Q 202.1 86.5 187.85 91.25 195.4 97.7 206.9 93.4 230.5 84.45 248.1 98.85 251.2 101.4 255 101.2 L 256.7 95.5 Q 239.9 81.1 217.2 84.5 Z" />
          </g>
          <path id="xfl1_Layer0_0_1_STROKES" stroke="#0099FF" stroke-width="1" stroke-linejoin="round" stroke-linecap="round" fill="none" d=" M 0.8 240.55 L 0.3 240.55" />
        </defs>
        <g transform="matrix( 1, 0, 0, 1, 0,0) ">
          <use xlink:href="#xfl1_Layer0_0_FILL" />
          <use xlink:href="#xfl1_Layer0_0_1_STROKES" />
        </g>
      </g>
      <g data-svg-leaf="graphics_symbol_341_cc0bd1dc32/t00_l001_f0000_r00.svg">
        <defs>
          <g id="xfl2_Layer0_0_FILL">
            <path fill="#000000" fill-opacity="0.5019607843137255" stroke="none" d=" M 190.3 220.8 L 186 221.05 Q 206.7 227.65 226.65 222.05 207.1 225.3 187.75 219.3 L 190.3 220.8 M 212.6 198.55 L 213.3 198.3 231.7 199.55 208.05 200.55 242.75 202.75 256.8 202.35 208.05 196.7 Q 209.75 199.1 212.6 198.55 M 209.7 233.8 Q 208.65 233.55 208.05 234.45 L 229.7 238.55 Q 220.45 240.5 212.15 237.45 225 242.6 242.05 240.55 L 250.8 237.4 237.55 238.95 264.55 233.05 Q 237.2 237.05 209.7 233.8 M 247.65 235.95 L 253.05 235.2 Q 233.95 241.2 214.7 235.2 L 247.65 235.95 M 68.9 254.65 L 66.75 254.95 Q 77.15 258.45 88.15 256.6 L 68.9 254.65 M 33.25 247.2 L 9.2 235.7 Q 18 243.35 30.3 246.5 L 33.25 247.2 M 48.45 201.8 L 57.9 203.85 Q 50.35 192.85 38.5 200.3 L 48.45 201.8 M 105.6 204.55 L 113.2 205.05 Q 125.7 207.45 135.25 199.8 121.3 199.15 108.7 203.65 L 105.6 204.55 M 96.9 240.1 Q 107.55 241.1 118.25 240.3 L 118.25 238.8 Q 96.25 237.7 74.25 233.95 53.45 230.6 33.1 224.85 25.3 222.6 17.05 223.6 L 66.5 233.8 64.55 233.6 Q 80.45 238.05 96.9 240.1 M 112.25 239.3 L 101 239.3 Q 97.4 238.6 103.5 238.3 109.25 238 112.25 239.3 M 129 178.55 Q 111.1 175.85 92.9 175.75 71.25 175.6 49.5 176.3 68.95 182.35 89.25 181.9 109.35 181.5 129 178.55 M 82.05 123.35 L 81.1 125 85.1 124.75 87.15 121.95 76.85 121.75 82.05 123.35 M 108.25 136.05 L 100.4 135.5 82.15 136.25 77.25 137.05 108.25 136.05 M 106.25 103.6 L 89.5 102.75 72.35 107.1 106.25 103.6 M 79.05 47.75 L 73.25 51.6 81.9 51.6 79.05 47.75 M 63 44.75 L 74.75 43 65.9 40.75 Q 64.75 40.45 65 42.15 L 63 44.75 M 67.6 32.5 L 61.25 34.35 77.1 31.35 65.75 31.5 82.25 28.1 Q 71.25 26.5 61.1 31.85 L 67.6 32.5 M 73.6 16.6 L 67.85 16.5 79.75 14.1 Q 74.4 13.4 69.55 15.15 68.1 15.7 67.25 17.1 L 69.4 17.5 67.35 19.35 73.6 16.6 M 85.15 91.7 L 87.5 91.85 75.25 94.6 78.75 95.1 76.75 94.6 104 90.6 85.15 91.7 M 93.75 70.5 L 91.95 69.45 Q 83.8 64.55 74.3 66 L 74 68.7 93.75 70.5 M 85.65 61.6 Q 90.6 62.45 93 60.55 L 92.95 60.35 92.1 59.55 Q 84.8 57.2 77.05 58.3 L 66.3 61.8 78.1 60.9 Q 73.6 61.7 70.8 66.65 74.4 60.65 82.05 62.85 L 74 63.5 76.05 64.25 83.85 63.25 91 64.5 Q 87.35 62.3 84.3 61.4 L 85.65 61.6 M 254.75 109.1 Q 248.65 104.45 238.65 102.25 L 254.75 109.1 M 190.45 174.4 Q 201.2 177.1 212.15 178.65 231 181.35 250 180.35 L 251.2 179.15 264.65 177.05 190.45 174.4 M 189.55 183.3 L 191 193.15 189.2 195.95 192.4 196.75 190.95 195.3 Q 192.75 188.25 189.7 181.8 L 189.55 183.3 M 182.15 183.4 L 181.8 182.8 Q 185.2 190.35 186.85 199.25 187.3 191.3 182.15 183.4 M 180.6 165 Q 179.5 166.05 179.8 167.45 L 181.65 163.95 180.6 165 M 183.1 153.05 L 184.05 159.25 185.15 157.1 183.1 153.05 M 188.85 105.6 Q 198.1 110.1 202.2 105.6 L 188.85 105.6 M 226.9 112.75 L 227.25 112.95 Q 238.75 118.95 248.4 119 L 226.9 112.75 M 212.9 106.75 L 218.1 107.4 Q 233.8 102.1 250.15 113.25 231.8 98.35 212.9 106.75 M 216.8 118.3 L 216.8 121.85 Q 204 125.05 191.3 119.75 206.85 133 226.35 120.3 240.6 128.75 256.2 129.5 240.45 119.75 219.85 117.5 L 216.8 118.3 M 222.25 140.6 Q 214.2 139.9 210.4 141.15 L 211.9 142.9 Q 234.2 149.85 258.4 147.8 261 147.5 263.15 146.3 243.1 142.6 222.25 140.6 M 222.9 129.75 L 226.9 131.45 Q 241.4 137.9 256.55 139.45 240.85 130.65 222.9 129.75 M 210.6 91.6 L 209.45 93.15 Q 217.05 94.9 223.7 92.25 L 254.9 101.8 251.85 98.3 Q 231.45 86.6 210.6 91.6 M 234.8 57 Q 236.3 53.45 223.35 54.15 L 218.65 54.25 218.4 48.85 213.4 54.7 200.9 58.25 211.5 56.4 209.15 67.9 197.75 68.25 208.1 68.65 210.15 77.75 215.8 68.25 217.3 67.75 216.1 67.5 218.55 56.1 242.35 60.4 234.8 57 M 201.8 89.15 L 197.05 89 218.1 86.5 217.45 85.4 Q 201.4 84.05 189.35 91.7 L 201.8 89.15 M 192.65 86.25 L 189.9 87.75 208.05 85.05 188.1 84.75 192.65 86.25 Z" />
          </g>
        </defs>
        <g transform="matrix( 1, 0, 0, 1, 0,0) ">
          <use xlink:href="#xfl2_Layer0_0_FILL" />
        </g>
      </g>
      <g data-svg-leaf="graphics_symbol_341_cc0bd1dc32/t00_l000_f0000_r00.svg">
        <defs>
          <g id="xfl3_Layer0_0_FILL">
            <path fill="#000000" fill-opacity="0.5019607843137255" stroke="none" d=" M 171.5 121.5 Q 171.5 123.95 171 125.25 169.9 128 166.5 128 164 128 161 125.5 L 158.5 123 Q 158.5 122.6 158.8 122.2 146.65 123.55 134.65 116.6 115.9 105.65 104.15 87.3 92.3 68.85 92.95 47 93.55 26.1 81.45 8.9 L 73.75 0 76.9 10 Q 83 31.75 75.6 53.1 L 85.55 62.7 79.6 78.5 Q 90.25 93.2 95.9 110.3 103.15 132.4 105.75 155.6 L 92.7 190.9 Q 79.2 226.85 75.85 264.3 86.85 270 99.05 267.55 144.65 258.65 190.05 256.85 191.3 239.25 180.95 224.75 171.5 211.55 173.35 195.45 176.9 164.2 179.6 132.9 180.4 123.45 173.3 117.6 L 170 119.2 Q 171.5 119.7 171.5 121.5 M 174.75 121.8 L 175 122.1 Q 173.9 121.1 174.75 121.8 M 255.8 65 Q 259.85 36.7 244.7 36 229.5 35.25 229.75 41.45 230.65 62.5 225.9 82.85 L 228.65 87.75 Q 225.5 89.8 223.55 92.75 214.35 106.25 227.6 118.2 221.65 143.6 229 173.5 L 243.05 231.6 Q 249.75 259.8 287.55 242.3 L 293.45 241.3 291.5 232.65 Q 290.2 227.1 288.1 226.3 285.9 214.05 278.9 193.15 254.65 120.95 256 99.05 257.3 77.1 255.8 65 M 288.9 231.15 L 288.85 231.05 Q 288.55 228.35 288.9 231.15 Z" />
          </g>
        </defs>
        <g transform="matrix( 1, 0, 0, 1, 0,0) ">
          <use xlink:href="#xfl3_Layer0_0_FILL" />
        </g>
      </g>
    </g>
  </g>
</svg>