<?xml version='1.0' encoding='utf-8'?>
<svg xmlns="http://www.w3.org/2000/svg" xmlns:xlink="http://www.w3.org/1999/xlink" version="1.1" width="550px" height="400px" viewBox="0 0 550 400" preserveAspectRatio="none" data-xfl-root="UI/Pages/Levels/Stamps/tree1">
  <g data-xfl-symbol="UI/Pages/Levels/Stamps/tree1">
    <g data-xfl-symbol="Graphics/Symbol 333">
      <g data-svg-leaf="graphics_symbol_333_58a0f98b7d/t00_l004_f0000_r00.svg">
        <defs>
          <g id="xfl1_Layer0_0_FILL">
            <path fill="#664422" stroke="none" d=" M 126.25 118.85 L 123.6 118.45 114.35 127.3 108.3 117.55 99.6 116.5 108.45 131.1 103.9 169.35 105.5 167.55 107.65 171.4 113.05 172.8 Q 115.45 161 116.05 149 116.9 132.6 126.25 118.85 Z" />
          </g>
        </defs>
        <g transform="matrix( 1, 0, 0, 1, 0,0) ">
          <use xlink:href="#xfl1_Layer0_0_FILL" />
        </g>
      </g>
      <g data-svg-leaf="graphics_symbol_333_58a0f98b7d/t00_l003_f0000_r00.svg">
        <defs>
          <g id="xfl2_Layer0_0_FILL">
            <path fill="#8CCB2C" stroke="none" d=" M 197.95 24.65 Q 195.7 18.25 190.3 14.4 172.9 2.15 155.1 14.2 L 154.55 14.35 145.75 11.15 Q 139.55 23.45 144.05 36.5 L 140.1 41.35 Q 140.15 37.55 138.05 34.75 L 138 33.8 136.9 33.45 134 31.2 134.25 31.05 133.8 31.05 Q 122.4 23.4 111.75 36.5 L 111.55 36.65 111.6 36.5 Q 112.5 27.55 104.6 23.55 L 103.6 23 99.7 6.6 101.75 6.55 98.85 5.15 96.5 0.1 Q 87.65 -0.4 82.6 7 L 84.4 11.1 Q 75.15 11.3 71.7 19.45 63.05 4.6 52.45 17.85 L 51.15 15.25 Q 32 16.3 28.6 41.45 L 28.15 41.35 Q 16.3 39.6 10.9 50.3 8.1 50.3 6.15 52.4 4.1 54.4 4.1 57.25 L 0.55 61.15 0.8 62.15 Q -2.45 72.75 7.65 76.65 9.2 78.9 11.35 80.6 L 7.3 84.8 Q 12.6 91.3 20.4 95.2 L 29.4 102.05 Q 32.5 106.6 36.45 110.4 52.95 126.1 75.6 127.35 94.2 128.8 108.4 116.65 L 121.5 120.8 Q 124.6 125.65 129.3 128.65 135.45 132.55 142.05 129.2 176.15 139.3 208.05 124.8 L 207.2 118.9 Q 210.65 117.9 213.05 115.35 224.9 102.5 221.3 86 230 77.25 227.1 65.1 220.85 38.9 197.95 24.65 M 123.7 33.05 Q 124.7 30.65 124 33.2 L 123.7 33.05 M 117.4 110.6 Q 118.55 108.2 118.5 110.7 L 117.4 110.6 Z" />
          </g>
        </defs>
        <g transform="matrix( 1, 0, 0, 1, 0,0) ">
          <use xlink:href="#xfl2_Layer0_0_FILL" />
        </g>
      </g>
      <g data-svg-leaf="graphics_symbol_333_58a0f98b7d/t00_l002_f0000_r00.svg">
        <defs>
          <g id="xfl3_Layer0_0_FILL">
            <path fill="#9CE828" stroke="none" d=" M 94.5 105.8 L 91 103.25 80.75 115.3 90.95 108.25 93.9 111.5 110.6 105.65 109.9 98.1 94.5 105.8 M 75 91.5 Q 69.6 84.2 58 83.25 L 53.3 68.95 54.9 84.5 75 91.5 M 34.6 77.55 L 27.55 73.3 32.05 65.35 23.8 74.4 31 78.25 27.9 87.4 37 93.45 36.15 102.9 64.75 109.2 Q 58.75 100.35 42.1 101.4 41.4 101.25 40.75 100.7 L 41.7 93.25 32.15 86.35 34.6 77.55 M 58.55 34.55 L 52 29.75 49.75 36.35 40.8 29.9 Q 39.35 33.7 38.15 37.55 37 41.45 36.85 45.45 36.65 49.75 38.55 53.65 L 41.85 35.3 51.3 41.25 54.45 36.2 59.6 39.45 63 35.65 67.25 36.4 88.25 22.6 79.75 20.85 73.3 28.1 68.75 25.95 64.75 31 60.25 30.05 58.55 34.55 M 146.1 74.25 L 151.85 64.5 151.05 60.9 137.95 72.2 143.6 69.25 131.75 82.05 146.1 74.25 M 98.25 82 Q 104.65 88.5 115.85 91.5 126 94.2 136.6 94 147.2 93.85 156.35 91.1 148.85 87.35 137 89.05 124.5 90.55 112.35 86.6 L 98.25 82 M 81.8 63.15 Q 89.2 56.1 99 51.7 105.5 48.85 113.15 50.55 L 125.55 51 Q 121.4 44.2 103.75 44.8 89 45.9 83 58.25 L 81.1 54.85 Q 71.25 54.85 68.95 65.55 68.75 66.35 69.15 67.2 L 73.15 67.05 78.65 58 81.8 63.15 M 111.45 69.25 L 101.25 63.25 91.6 74.45 103.05 66.25 109.3 73.05 120.85 68.5 131.2 77.15 121 64.75 111.45 69.25 M 181.25 133.6 Q 182.7 133.45 184.05 132.65 169.3 120.95 148.3 120.1 L 145 108.95 138.9 116.95 143.6 112.6 Q 142.4 122.1 151.15 124.15 L 162 126.7 Q 169.7 135.45 181.25 133.6 M 194.6 67.05 L 200.2 75.15 Q 200.15 88.4 195.65 100.4 193 107.6 198.55 110.55 L 205.4 75.15 200 67 207.2 57.4 199.95 45.85 202.75 56 194.6 67.05 M 185.25 66.25 L 179.7 52.85 176.5 55.5 181.6 66.75 172.4 77.9 178.35 88.9 166.6 100.95 Q 178.4 103.1 183.2 88.85 L 176 79.35 185.25 66.25 M 180.8 23.75 L 175.6 29.05 168.6 33.95 164 25.7 Q 160.1 43.95 143.15 43.55 137.55 43.45 136.35 48.35 L 138.55 49.9 140.35 47.9 Q 157.75 52.2 162.65 36.2 L 163.35 33.25 166.45 38.05 Q 175.85 37.75 181.4 29 190.85 42.55 203.05 36.2 L 180.8 23.75 M 166.3 14.2 L 172.65 14.85 Q 166.45 6.3 152.3 14.05 150.35 15.05 148.6 16.35 L 145.55 16.2 Q 141.15 23.05 144.9 29.85 L 146.9 21.35 149.2 21.05 Q 154.8 10.45 166.3 14.2 Z" />
          </g>
        </defs>
        <g transform="matrix( 1, 0, 0, 1, 0,0) ">
          <use xlink:href="#xfl3_Layer0_0_FILL" />
        </g>
      </g>
      <g data-svg-leaf="graphics_symbol_333_58a0f98b7d/t00_l001_f0000_r00.svg">
        <defs>
          <g id="xfl4_Layer0_0_FILL">
            <path fill="#DDDD4D" stroke="none" d=" M 136.9 120.9 L 136.55 123.15 140.8 122.75 136.9 120.9 M 46.95 102.9 Q 46.4 103.1 46.4 104.25 46.4 105.4 46.75 105.6 L 48 105.9 49.05 105.55 49.6 104.1 Q 48.85 103.05 48 102.75 L 46.95 102.9 M 75.2 116.75 Q 75.2 117.9 75.65 118.1 L 76.8 118.4 77.9 118.05 78.4 116.65 Q 77.7 115.55 76.8 115.25 L 75.75 115.4 Q 75.2 115.6 75.2 116.75 M 75.55 105 Q 75.55 106.05 75.8 106.1 L 76.75 106.15 77.5 105.7 78 105.05 77.65 103.95 76.45 103.75 75.7 103.85 75.55 105 M 57.05 86.7 Q 58.1 86.3 58.4 85.3 L 57.9 84.25 56.8 84.6 Q 56.25 85 55.65 85.85 L 56.55 86.45 57.05 86.7 M 62.15 59.85 L 62.7 58.4 Q 62 57.4 61.1 57.1 L 60 57.25 Q 59.5 57.45 59.5 58.55 59.5 59.7 59.95 59.95 L 61.05 60.2 62.15 59.85 M 71.15 68.5 L 71.15 67.15 69.3 67.15 69.3 68.5 71.15 68.5 M 20.25 76.2 Q 20.8 76.05 21.2 76.2 L 21.95 75.8 22.45 75.15 22.05 74.1 20.9 73.9 20.1 73.95 19.95 75.05 Q 19.95 76.15 20.25 76.2 M 130.35 78.3 L 133.2 82.2 136 77.05 130.35 78.3 M 94.95 90.85 L 94.45 90.95 93.75 94.1 Q 96.6 97.65 99.5 94.95 99.9 89.45 94.95 90.85 M 175.1 101.95 Q 175.1 105.4 177.8 107.05 L 179.55 104.95 180.15 103.2 Q 178.35 100.1 175.1 101.95 M 212.55 120.9 L 215.8 115.35 Q 211.3 116.3 209.9 119.15 L 212.55 120.9 M 210.2 102.95 L 210.35 104 213.4 104.6 215.8 100.7 Q 215.15 99.35 213.6 99.8 211.05 100.7 210.2 102.95 M 225 88.95 L 228 85.5 222 85.5 225 88.95 M 215.85 59.35 Q 217.95 58.6 217.9 57.65 217.9 55.9 217.75 56.8 215.85 54.8 213.95 55.25 212.1 55.75 212.05 57.85 L 212.1 59.15 212.45 59.45 213.65 59.8 215.85 59.35 M 185.15 88.25 L 187 88.25 187 87 185.15 87 185.15 88.25 M 180.75 68.45 L 182.15 70.45 185.7 68.95 180.75 68.45 M 162 67.4 Q 162 68.35 162.25 69.15 L 162.55 70.25 163.05 70.25 163.3 68.5 163.15 66.55 162.3 66.7 162.1 66.8 162 67.4 Z" />
          </g>
        </defs>
        <g transform="matrix( 1, 0, 0, 1, 0,0) ">
          <use xlink:href="#xfl4_Layer0_0_FILL" />
        </g>
      </g>
      <g data-svg-leaf="graphics_symbol_333_58a0f98b7d/t00_l000_f0000_r00.svg">
        <defs>
          <g id="xfl5_Layer0_0_FILL">
            <path fill="#000000" fill-opacity="0.25098039215686274" stroke="none" d=" M 113.05 141.3 L 110.45 141.2 109.65 146.05 109.4 149.45 113.05 141.3 M 132.85 66.3 L 132.1 83.7 126 92.05 134.45 87.85 132.85 66.3 M 154.8 70 Q 154.2 60.35 144.9 56.35 L 151.95 68.8 148 76.05 154.8 70 M 109.6 36.2 L 110.9 34.95 Q 109.25 29.45 104.4 28.6 107.3 35.6 109.6 36.2 M 93 4.75 L 91.65 4.9 Q 92.6 6.25 99 23 100.05 6.25 93 4.75 M 138 45.35 Q 142.05 33.6 129.9 30.25 L 138 45.35 M 172.9 101.6 L 174 105.25 183.15 92.35 172.9 101.6 M 166.75 62.6 Q 165.75 64.2 165.75 66.5 165.75 68.8 166.75 70.4 167.7 72 169.1 72 170.5 72 171.5 70.4 172.45 68.8 172.45 66.5 172.45 64.2 171.5 62.6 170.5 61 169.1 61 167.7 61 166.75 62.6 M 179.3 55.6 Q 180.25 57.85 182 56.35 L 178.05 47.6 Q 177.2 50.7 179.3 55.6 M 189.55 33.7 L 184.75 30.75 188.65 36.25 189.55 33.7 M 162.25 42.25 L 162.25 32.85 158.85 32.85 158.85 42.25 162.25 42.25 M 219.65 43.3 Q 215.4 33.2 205.55 28.1 195.95 23.05 189.7 14.3 L 190.05 19.95 195.7 24.8 196.9 33.65 194.6 37.65 202.6 48.5 198.7 56.85 202.15 64.5 193.4 77.75 195.7 47.3 184.9 81.95 186.9 86.15 191.5 81.6 200.5 88.5 187.3 108.8 185 109.25 178.45 116.2 175 116.75 172 109.4 159.9 120.5 155.15 110.8 161.4 106 148.35 112.2 138.35 106.95 142.75 100.8 124.5 109.35 102.6 102.45 100.45 105.15 94.8 105.15 94.05 110.1 84.6 113.25 78.2 110.9 Q 75.15 116.5 69.05 118.5 60.55 121.3 53.35 120.35 59.85 126.1 72.85 126.75 89.85 128.35 105.45 121.05 L 114.45 130.3 110.8 172.8 121.05 125.4 116.65 125.65 115.35 128.15 109.85 119.65 117.65 121.9 Q 125.5 124.3 133.25 127 142.65 130.25 152.3 132.55 161.3 134.7 170.45 134.9 181.05 135.1 191.15 131.8 201.75 128.4 209.5 120.5 216.6 113.25 220.35 103.85 224.35 93.9 224.8 83.2 225.3 72.35 224.25 61.5 223.35 52.05 219.65 43.3 M 203.35 94.05 L 208.5 98.6 Q 203.1 103.9 195.5 100.7 198.15 93.4 203.35 94.05 M 191.15 107.25 L 191.4 110.8 188.65 111.75 191.15 107.25 Z" />
            <path fill="#FFFFFF" fill-opacity="0.25098039215686274" stroke="none" d=" M 109.65 146.05 L 109.5 130.65 107.6 167.5 109.4 149.45 109.65 146.05 M 58.65 71.5 L 58.65 75.3 63.7 75.3 Q 60 73.55 58.65 71.5 M 61.9 96.4 L 64.85 88.6 60.6 91.55 61.7 106.65 65.1 104.75 61.9 96.4 M 58.65 60.9 L 58.65 66.3 Q 60 63.8 63.7 60.9 L 58.65 60.9 M 71.35 38.5 L 77.5 35 Q 48.85 44.15 43.05 68.05 L 82.25 34.6 71.35 38.5 M 86.3 76 L 89.25 78 Q 92.6 87.45 102.35 90 L 104.8 90.6 88.65 68.05 86.3 76 M 86.1 96.55 L 83 82.25 78.6 90.05 84.5 100.35 86.1 96.55 M 96.05 62.55 L 101 63 106.95 56.1 Q 101.7 59 96.05 62.55 M 121.4 57.05 L 112.45 53.1 107.1 56 121.4 57.05 M 113.05 38.95 L 113 41.5 127.5 32 110.9 34.95 109.6 36.2 113.05 38.95 M 101 35.5 Q 89.55 32.7 86.7 43.5 L 86.8 43.5 101 35.5 M 91.65 4.9 L 93 4.75 Q 93.75 4.55 94.35 4 L 91.9 2.55 87.3 1.85 85.1 9.55 77.45 13.75 74.55 18.4 69.6 18.7 64.65 12.95 Q 57 11.25 53.25 17.3 L 49.95 15.55 Q 33.7 18.4 31.55 36.6 L 30.8 38.8 Q 8.45 47.15 2.9 56.4 -2.65 65.6 6.7 76.3 L 12.5 83.1 8.2 84.7 42.1 114.05 42.5 105.85 50.55 97.7 49.1 93.35 52.1 88.8 35.45 90.8 34.75 86.3 51.6 77.45 30.35 73.5 36.1 70.8 24.65 54.85 29.7 54.7 35.75 48.35 Q 43.05 55.65 50 49.45 48.8 46.6 51 45.15 L 51.6 40.35 61.55 37.35 57.15 31.8 Q 67.6 26.3 81.6 31.5 L 82.05 31.45 82.6 26.45 92.4 20.8 88.2 4.9 91.65 4.9 M 190.05 19.95 L 189.7 14.3 Q 182.25 5.15 170.4 6.75 159.65 8.05 149.9 12.85 140.05 17.85 141.8 28.75 142.8 35.2 145.55 41.05 L 161.8 43.95 162.85 42.05 165.1 42.75 173.4 37.25 163.5 24.55 168 26.85 172 23.6 185.45 26.2 190.05 19.95 M 162.25 32.85 L 162.25 42.25 158.85 42.25 158.85 32.85 162.25 32.85 Z" />
          </g>
        </defs>
        <g transform="matrix( 1, 0, 0, 1, 0,0) ">
          <use xlink:href="#xfl5_Layer0_0_FILL" />
        </g>
      </g>
    </g>
  </g>
</svg>