<?xml version='1.0' encoding='utf-8'?>
<svg xmlns="http://www.w3.org/2000/svg" xmlns:xlink="http://www.w3.org/1999/xlink" version="1.1" width="550px" height="400px" viewBox="0 0 550 400" preserveAspectRatio="none" data-xfl-root="UI/Pages/Levels/Stamps/tree2">
  <g data-xfl-symbol="UI/Pages/Levels/Stamps/tree2">
    <g data-xfl-symbol="Graphics/Symbol 185">
      <g data-svg-leaf="graphics_symbol_185_e977e87669/t00_l005_f0000_r00.svg">
        <defs>
          <g id="xfl1_Layer0_0_FILL">
            <path fill="#9D6037" stroke="none" d=" M 107.85 185.75 L 86.65 185.75 82.75 243 Q 84.7 245.4 87.5 246.85 92.6 249.4 98.55 248.75 105.15 248.7 110.75 245 L 107.85 185.75 Z" />
          </g>
        </defs>
        <g transform="matrix( 1, 0, 0, 1, 0,0) ">
          <use xlink:href="#xfl1_Layer0_0_FILL" />
        </g>
      </g>
      <g data-svg-leaf="graphics_symbol_185_e977e87669/t00_l004_f0000_r00.svg">
        <defs>
          <g id="xfl2_Layer0_0_FILL">
            <path fill="#A35332" stroke="none" d=" M 103 244.25 Q 105.95 221.5 104 198.5 L 103 198.5 Q 99.1 220.6 102.6 242.55 L 103 244.25 M 93.25 195 L 91.75 195 Q 86.05 221.05 86.2 247.65 L 88.75 248 91.4 229.25 93.75 248.25 95 247.75 97.25 202.75 92.4 218.75 93.25 195 Z" />
          </g>
        </defs>
        <g transform="matrix( 1, 0, 0, 1, 0,0) ">
          <use xlink:href="#xfl2_Layer0_0_FILL" />
        </g>
      </g>
      <g data-svg-leaf="graphics_symbol_185_e977e87669/t00_l003_f0000_r00.svg">
        <defs>
          <g id="xfl3_Layer0_0_FILL">
            <path fill="#000000" fill-opacity="0.25098039215686274" stroke="none" d=" M 102.3 189.95 L 101.3 190.4 Q 97.9 192.55 98.5 196.75 L 96.75 197 Q 75.65 216.4 94.95 238.6 L 87 247.1 90.6 248.3 92.2 246.85 93.4 248.6 109.05 248.25 Q 109.05 229.4 111.75 211 113.75 197.65 102.3 189.95 Z" />
          </g>
        </defs>
        <g transform="matrix( 1, 0, 0, 1, 0,0) ">
          <use xlink:href="#xfl3_Layer0_0_FILL" />
        </g>
      </g>
      <g data-svg-leaf="graphics_symbol_185_e977e87669/t00_l002_f0000_r00.svg">
        <defs>
          <g id="xfl4_Layer0_0_FILL">
            <path fill="#5EC92E" stroke="none" d=" M 99.6 0.25 L 99.35 0 Q 88 16.35 73.1 32.8 71.75 34.3 72.1 36.2 L 78.9 36.6 54.35 59.3 Q 66.5 66.15 82 59 L 49.55 91.25 Q 59.25 94.2 71.35 87.2 72.6 86.5 74.1 86.1 L 34.5 120.35 Q 41.5 128.8 54 119.6 L 53.75 120.25 32.6 145.1 39.5 146.45 11.55 168.55 Q 25.75 169.05 38.25 161.25 L 0 193.45 Q 6.35 203.1 21.5 200.5 L 15.75 206.85 Q 16.45 211.9 21.95 212.7 24.95 213.3 25.6 214.2 49.15 203.95 76.75 201.75 L 78.4 202.1 82.85 211.4 86.2 212.9 102.35 196.15 Q 127.6 200.8 149.4 216.1 153.95 219.3 158.5 217.4 L 144.05 186 186.1 192.55 Q 173.3 172.15 147.05 162.25 L 166.65 165.65 Q 154.5 151.6 134.5 140.75 155.05 143.2 174.3 136 L 142 118.25 Q 148.55 121.6 155.8 122.75 157.8 122.9 159.2 121.5 135.15 104.65 118.5 78.75 124.25 82.7 130.8 83.7 132.85 84.15 134.35 82.7 117.35 71.65 114.25 49.5 119.3 56.3 127.45 55.75 128.55 55.8 128.4 54.95 L 110.7 32.1 Q 119.75 35 130.25 30.7 112.55 19.45 99.6 0.25 M 63.15 200.65 Q 62 201.1 63.05 200.3 L 63.15 200.65 Z" />
          </g>
        </defs>
        <g transform="matrix( 1, 0, 0, 1, 0,0) ">
          <use xlink:href="#xfl4_Layer0_0_FILL" />
        </g>
      </g>
      <g data-svg-leaf="graphics_symbol_185_e977e87669/t00_l001_f0000_r00.svg">
        <defs>
          <g id="xfl5_Layer0_0_FILL">
            <path fill="#FFFFFF" stroke="none" d=" M 87 204.1 L 88.25 203.75 Q 101.1 178.35 105 149.75 91.5 174.45 86.75 202.6 L 87 204.1 M 161.5 162.05 L 161.55 160.75 Q 151.5 151.8 139.75 146.5 147.65 160.7 161.5 162.05 M 98.2 136.15 Q 101.3 123.7 98 111.5 L 97 111.5 Q 97.1 134.65 90.35 156.85 84.45 176.1 76.65 194.75 74.4 200.15 74.5 205.6 L 76.25 205.25 Q 82.4 191.7 86.75 177.4 93.05 156.95 98.2 136.15 M 129.25 147.25 L 127.75 147.5 Q 132.6 168.5 138.4 189.15 142.75 204.7 150.05 219.25 142.9 182.4 129.25 147.25 M 5.25 191.25 Q 24.2 186 39.75 169.95 45.75 163.75 52.5 158.25 27.85 171.9 5.25 191.25 M 16.25 163.5 L 17 164.25 Q 35.8 154.75 52 141.5 32.65 150.3 16.25 163.5 M 42.65 119.65 Q 42.55 119.8 42.6 120.05 57.55 108.45 69.25 92.25 52.9 103.55 42.65 119.65 M 48.9 131.25 L 60.85 118.75 Q 43.55 127.4 32.6 144.05 L 48.9 131.25 M 122.85 50.3 L 123.15 50.2 Q 120.4 39.65 111.5 34.5 113.9 45.05 122.85 50.3 M 125.25 92.25 L 123.9 92.6 122 75.75 Q 119.55 110.5 136.75 142.65 139 146.85 142.15 145.4 126.9 122.6 124.1 94.35 L 129 103.25 140 112.5 125.25 92.25 M 98.75 76.5 L 97.45 91.75 99.25 81 100.9 145 101.1 144.45 Q 102.1 131 102.45 117.4 103 97.1 100.55 77 L 98.75 76.5 M 88 57.5 L 83.9 62.1 93.75 22 Q 83.2 36.2 81.05 54.05 L 79.2 67.25 60.75 84 Q 70.75 81.3 78.55 71.65 73.9 97.9 67.7 124 60.1 156.05 38.25 179.75 25.55 193.45 13.1 207.35 L 11 209.75 Q 34.8 191.25 51.2 165.6 L 33.7 206.25 Q 34.5 206.8 35.3 205.85 L 35.4 206.4 35.55 206.6 Q 61.65 184.25 73 151.75 L 48.25 185.75 59.05 161 59.25 165.25 Q 75.65 127.25 89 86.5 L 66.8 140.45 Q 74.35 97.65 88 57.5 M 121 33.5 L 111.6 19.05 99.25 9 121 33.5 M 83.85 40.3 L 84.25 39.25 Q 71.15 45.3 64.25 58 75.95 55.25 83.85 40.3 M 101.25 17 L 97.25 21.75 99.75 20.25 Q 103.2 55.85 106.95 91 108.85 108.55 109.6 126.35 111 159.2 113.85 192.05 114.8 202.8 118.3 209.4 L 110.3 91.3 113 97.25 111.8 77.1 119.75 147.9 Q 120.4 153.85 123.3 155.4 121.55 124.55 115.9 93.9 113.45 80.7 113.5 67.7 120.5 76.45 131.15 76.85 123.4 65.95 110.95 62.55 110.25 62.45 109.45 62.95 L 101.25 17 M 108.95 63.95 Q 110.3 68.55 111.45 74.15 L 110.7 78.2 108.95 63.95 M 112.1 70.85 L 110 64.45 113 67.25 112.1 70.85 M 97 21.5 L 96 21.5 Q 93.95 101.3 70.25 177.25 L 71.25 177 Q 75.35 168 78.75 158.5 82.05 149.2 84.1 139.2 90.7 107.65 98 76.5 L 89.2 102.3 94.55 69.85 Q 98.45 45.7 97 21.5 M 97.1 10.2 L 96.65 8.65 Q 86.65 20.1 80.8 33.7 91.95 23.8 97.1 10.2 M 181.8 192.05 L 181.15 190.4 Q 175.3 181.2 165.05 175.9 L 167.3 176.7 Q 177.5 179.75 187.8 177 L 141.75 160.25 Q 160.35 177.9 181.8 192.05 M 163.65 137 Q 164.7 137.25 165.3 136.65 L 134.75 119.25 Q 145 134.55 163.65 137 Z" />
          </g>
        </defs>
        <g transform="matrix( 1, 0, 0, 1, 0,0) ">
          <use xlink:href="#xfl5_Layer0_0_FILL" />
        </g>
      </g>
      <g data-svg-leaf="graphics_symbol_185_e977e87669/t00_l000_f0000_r00.svg">
        <defs>
          <g id="xfl6_Layer0_0_FILL">
            <path fill="#000000" fill-opacity="0.25098039215686274" stroke="none" d=" M 91.85 189.9 Q 92.4 191.45 92.75 189.95 L 91.85 189.9 M 109.75 105.35 L 109.3 101.6 Q 108.85 124.55 107.85 147.6 107.15 164.15 99.55 178.85 93.9 189.8 94.25 202.1 L 100.35 194.95 102.6 195.9 112.5 154.85 115.3 135.7 111.6 137.2 109.75 105.35 M 87.55 112.1 L 87.2 113.7 87.3 117.25 87.55 112.1 M 69.5 166.9 L 67.3 169.9 54.3 186.8 50 194.3 48.5 201.9 56.75 197.25 57.75 202.25 62.9 196.8 64.5 198.1 84.4 183.55 86.8 125.65 82.55 143.85 81.7 147.9 80.45 154.1 Q 75.9 158.35 69.5 166.9 M 177.1 190.7 L 181.1 187.55 Q 163.3 178.6 151.8 162.45 L 149.35 158.8 164.6 164.9 Q 158.5 152.15 146 145.5 L 143.3 144.25 142.9 140.1 169.15 136.55 Q 149.9 131.3 137.9 115.6 135.1 111.9 132.8 107.95 L 156.3 127 Q 146.1 105.85 124.6 96 L 118.55 73.3 134.75 87 Q 119 71.55 113.2 50.7 112.15 46.95 112 43.1 L 118.75 53.75 110.5 29 124.4 34.65 105.75 10 103.5 16.15 106.45 25.35 103 22.75 138.9 169.5 133.65 170.9 Q 139.8 181.7 151.15 186.35 163.65 191.5 177.1 190.7 M 143 156.25 L 149.95 168.6 146 167.55 143 156.25 Z" />
            <path fill="#FFFFFF" fill-opacity="0.25098039215686274" stroke="none" d=" M 111.6 137.2 L 115.3 135.7 112.5 154.85 Q 119.05 175.15 128.5 194.4 136.25 210.15 149.75 219.2 153.85 205.55 142.75 190.6 129.1 172.2 122.25 149.95 115.4 127.75 109.75 105.35 L 111.6 137.2 M 5.3 187.5 L 14.8 191.15 47.55 170.55 45 178.25 64.55 148.5 Q 45.6 174.9 5.3 187.5 M 77.65 65.45 Q 57.4 73 47.35 90.4 L 50.7 91.45 73.6 79.35 68.35 96.9 Q 45.95 103.05 29.7 119.55 L 29.5 123.2 42.25 119.15 42.85 119.4 Q 53.1 114.45 63.15 109.1 L 60.6 121.15 Q 45.4 129.3 37.6 142.65 L 40.4 145.05 Q 23.3 153.5 15.1 169.6 L 67.6 138.35 81.2 97.05 Q 79.95 123.35 68.25 142.85 L 72.55 136.3 Q 70.4 142 67.3 146.85 47.15 178.55 24.1 207.65 L 28.6 206.35 35.25 208.75 50 194.3 54.3 186.8 63.8 170.9 67.3 169.9 69.5 166.9 69.45 164.35 81.7 147.9 82.55 143.85 Q 80.45 130.95 86.65 115.5 L 87.2 113.7 87.55 112.1 90.6 49.3 Q 81.05 54.75 77.65 65.45 M 55.8 139.45 Q 48.1 141.45 41.65 144.5 L 57.7 131.4 55.8 139.45 M 90.35 37.35 L 98 22.5 Q 78.25 44.7 57.05 58.15 L 59.1 59.85 Q 82.8 55.25 93 37.75 L 90.35 37.35 M 96.65 14.05 L 96.45 8.3 Q 80.9 15.35 75.7 34.35 96.3 30.05 96.65 14.05 Z" />
          </g>
        </defs>
        <g transform="matrix( 1, 0, 0, 1, 0,0) ">
          <use xlink:href="#xfl6_Layer0_0_FILL" />
        </g>
      </g>
    </g>
  </g>
</svg>