
<svg xmlns="http://www.w3.org/2000/svg" version="1.1" xmlns:xlink="http://www.w3.org/1999/xlink" preserveAspectRatio="none" x="0px" y="0px" width="550px" height="400px" viewBox="0 0 550 400">
<defs>
<g id="Layer0_0_FILL">
<path fill="#010265" fill-opacity="0.25098039215686274" stroke="none" d="
M 115.2 66.35
Q 105.05 50.35 89 50.35
L 84.95 50.4 84.95 50.95
Q 50.05 51.85 31.9 73.65 25.75 81 22.35 89.8 19.9 96.2 19.9 99.7 19.9 101.9 21.35 107.8 22.85 114.2 24.7 118.9 25.85 121.85 29.5 125.35 32.85 128.5 36.4 130.55 47.9 137.05 69.5 141.5 86.35 144.95 94.45 144.95 105.85 144.95 113.9 134.7 124.05 121.9 124.05 97.15 124.05 80.3 115.2 66.35
M 90.25 54.7
Q 99.25 54.7 104.75 56.8 110.2 58.95 111.1 62.75 122.1 84.6 122.1 90.1
L 114.05 126.45
Q 112.55 133.5 103.75 137.35 95.5 140.95 82.9 140.95 60.55 140.95 46.35 125.85 40.7 119.8 37.5 112.4 34.6 105.65 34.6 99.9 34.6 95.1 37.75 88.05 41.4 79.9 47.6 73.05 64.3 54.7 90.25 54.7 Z"/>
</g>
</defs>

<g transform="matrix( 1, 0, 0, 1, 0,0) ">
<use xlink:href="#Layer0_0_FILL"/>
</g>
</svg>
