
<svg xmlns="http://www.w3.org/2000/svg" version="1.1" xmlns:xlink="http://www.w3.org/1999/xlink" preserveAspectRatio="none" x="0px" y="0px" width="550px" height="400px" viewBox="0 0 550 400">
<defs>
<g id="Layer0_0_FILL">
<path fill="#FFFFFF" fill-opacity="0.5019607843137255" stroke="none" d="
M 56.15 127.95
L 55.8 128.65
Q 57.55 131.15 63.25 132.65
L 69.05 133.7
Q 70.75 133.7 71.05 133.25
L 71.65 131.9 64.25 129.2
Q 61.6 128.3 57.4 127.7
L 56.15 127.95
M 51.25 132.6
L 52.2 129.9
Q 50 128.1 45.55 128.1 44.85 128.1 43.45 128.65 42.15 129.15 41 129.8
L 42.75 131.65 48.2 131.5 48.15 134.4
Q 50.15 136.55 51.35 135.7 52.5 134.9 51.25 132.6
M 44.45 110.15
Q 44.1 110.45 44.1 111 44.1 111.55 45.65 113.45 47.25 115.45 47.4 119.55
L 48.1 119.7 49.55 119.6
Q 50.4 119.4 50.4 118.75 50.4 111.05 48.6 109.7 48.05 109.25 47 109.35
L 45.45 109.45 44.45 110.15
M 64.9 78.25
Q 64.35 77.75 63.65 77.75 62.95 77.75 62.45 78.25 61.9 78.75 61.9 79.45 61.9 80.15 62.45 80.65 62.95 81.15 63.65 81.15 64.35 81.15 64.9 80.65 65.4 80.15 65.4 79.45 65.4 78.75 64.9 78.25
M 80 70
Q 79.25 69.5 78.2 69.5 77.15 69.5 76.45 70 75.7 70.45 75.7 71.15 75.7 71.85 76.45 72.35
L 78.2 72.8 80 72.35
Q 80.7 71.85 80.7 71.15 80.7 70.45 80 70
M 24.85 88.3
L 25.3 89.4 25.65 87.15
Q 25.15 87.3 25.05 87.4
L 24.85 88.3
M 127.3 93.7
Q 128.25 89 126.45 87 125.15 91.5 123.9 94.4
L 120.95 101.25
Q 121.45 102.25 121.9 102.6
L 122.4 102.95
Q 126.25 98.85 127.3 93.7
M 92.95 64.85
L 91.05 64.45 89.15 64.85
Q 88.35 65.2 88.35 65.75 88.35 66.3 89.15 66.7
L 91.05 67.05 92.95 66.7
Q 93.75 66.3 93.75 65.75 93.75 65.2 92.95 64.85
M 119.5 68.95
Q 118.9 69.25 118.9 70.35
L 124.85 78.05
Q 127.2 76.7 125.1 73.3 123.05 70 119.5 68.95 Z"/>
</g>
</defs>

<g transform="matrix( 1, 0, 0, 1, 0,0) ">
<use xlink:href="#Layer0_0_FILL"/>
</g>
</svg>
