
<svg xmlns="http://www.w3.org/2000/svg" version="1.1" xmlns:xlink="http://www.w3.org/1999/xlink" preserveAspectRatio="none" x="0px" y="0px" width="550px" height="400px" viewBox="0 0 550 400">
<defs>
<g id="Layer0_0_FILL">
<path fill="#4E4F49" stroke="none" d="
M 51.15 134
L 55.3 133.3
Q 57.6 137.25 58.45 137.15 67.15 136.15 70.6 137 74.1 137.85 75.85 131.35
L 65.7 128.35
Q 59.2 126.5 57.45 125.25 54.15 120.85 52.65 122.7 51.5 124.15 51.85 126.85
L 53.75 130.5 50.8 130.9 49.6 128.95
Q 48.75 127.45 47.85 126.7
L 38.9 127.75 38 128.2
Q 37.65 128.45 37.75 129.3 43.85 138.9 45.6 138.7
L 48.45 137.2
Q 50.75 135.6 51.15 134
M 124.4 83
Q 121.35 82.35 121.95 87.6 122.7 93.95 120.55 98.35 118.4 102.65 118.75 105.8 118.85 106.65 119.3 107 119.6 107.3 120.3 107.45 122.8 101.65 127 96.7 128.6 94.6 128 89.05 127.35 83.55 124.4 83 Z"/>

<path fill="#000000" stroke="none" d="
M 47.45 110.15
Q 45.9 107.45 43.95 106.35 39.6 104.7 38.25 110.2 37.45 113.5 37.85 116.6 38.2 119.75 39.05 121.15 39.65 122.15 40.8 123 41.7 124.45 42.75 124.55
L 47.3 124.05
Q 47.9 123.25 48.5 119.3 49 115.55 48.8 114.15 48.6 112.45 47.45 110.15
M 42.35 117.9
L 42.05 115.5
Q 41.4 110.35 43.85 110.6 46.25 110.85 46.6 113.75 46.75 115.15 46.05 116.55 44.9 118.95 44.65 119.85
L 43.9 120.25
Q 42.9 119.85 42.35 117.9
M 116.35 67.35
L 119.85 74.55
Q 123.55 82 123.95 81.95 124.85 81.85 125.25 78.85 125.45 76.45 125.25 74.7 115.5 59.95 116.35 67.35 Z"/>

<path fill="#8C8460" stroke="none" d="
M 42.05 115.5
L 42.35 117.9
Q 42.9 119.85 43.9 120.25
L 44.65 119.85
Q 44.9 118.95 46.05 116.55 46.75 115.15 46.6 113.75 46.25 110.85 43.85 110.6 41.4 110.35 42.05 115.5 Z"/>

<path fill="#7F0003" stroke="none" d="
M 63.35 83.55
L 65.2 82.35
Q 66.25 81.2 66.05 79.65 65.8 77.1 61.85 77.9 59.6 78.4 58.8 79.6 62.15 83.05 63.3 83.25
L 63.35 83.55
M 78.35 73.95
L 78.45 73.9
Q 80.2 72.85 80.1 71.8 79.85 69.8 76 69.25 74.7 69.05 73.9 69.25
L 78.35 73.95
M 89.45 63.15
Q 87.85 63 87.25 63.9
L 88 64.6
Q 89.7 66.3 91.5 69.1 93.05 68.5 92.85 66.65 92.45 63.55 89.45 63.15 Z"/>

<path fill="#010265" fill-opacity="0.25098039215686274" stroke="none" d="
M 57.2 81.5
Q 57.05 82.6 57.45 83.55 58.3 85.4 61.6 85
L 62.9 84.7 63.35 84.45 63.35 83.55 63.3 83.25
Q 62.15 83.05 58.8 79.6
L 58.7 79.5
Q 56.7 77.45 57.2 81.5
M 78.35 73.95
L 73.9 69.25 73.7 69
Q 71.2 66.55 71.9 72.25 72.1 74.15 72.75 75 74.05 76.6 77.4 76.2 78.2 76.1 78.45 75.7
L 79.05 74.4 78.35 73.95
M 87.25 63.9
Q 84.8 61.8 85.3 66.1 85.4 67.1 86.7 68.9 88.45 71.2 90.4 70.95
L 91.4 70.6 91.45 70.3 91.55 70.15 91.5 69.1
Q 89.7 66.3 88 64.6
L 87.25 63.9 Z"/>

<path fill="#040905" stroke="none" d="
M 16.85 93.3
Q 17 95 17.45 95.35 18.25 96 21.45 96.15
L 21.55 99.7
Q 21.9 101.95 23.95 101.7 25.25 101.55 25.7 98.8 26.1 96.05 26.65 96
L 30.3 96.1
Q 31.5 94.85 31.3 93.6 31.15 92.3 30.5 91.7 29.4 90.7 26.6 90.45
L 26.9 88.95 26.9 87.3
Q 26.6 84.7 25.2 82.35 23.6 79.5 22.55 83.7 22.05 85.7 22.4 88.5 18.45 89.65 17.3 90.8 16.65 91.65 16.85 93.3 Z"/>
</g>
</defs>

<g transform="matrix( 1, 0, 0, 1, 0,0) ">
<use xlink:href="#Layer0_0_FILL"/>
</g>
</svg>
