
<svg xmlns="http://www.w3.org/2000/svg" version="1.1" xmlns:xlink="http://www.w3.org/1999/xlink" preserveAspectRatio="none" x="0px" y="0px" width="550px" height="400px" viewBox="0 0 550 400">
<defs>
<g id="Layer0_0_FILL">
<path fill="#7D5924" stroke="none" d="
M 74.4 46.5
Q 74.4 41.95 70.45 41.95 69.05 41.95 67.9 42.55
L 66.95 43.1
Q 66.3 43.1 65.8 42.6 65.3 42.05 64.55 42.05 42.05 42.05 33 55.9 25.2 67.9 25.2 94.75 25.2 100.75 31.3 110.2 36.8 118.7 38.4 118.7 41.1 118.7 42.15 111.8
L 43.3 96.6
Q 43.9 86.1 45.15 81.4 47 74.5 51.05 74.5 52.35 74.5 53.15 75.7
L 54.8 78.75
Q 57.9 83.85 66 86.75
L 56 66.8
Q 53.6 62 53.6 58.2 53.9 56.75 54.75 55.25 56.45 52.25 59.45 51.45
L 58.15 49.95
Q 58.9 48.2 59.6 47.95 60.15 47.75 61.3 48.35 65.1 50.5 68.45 50.5 71.2 50.5 73.05 48.55 74.4 47.15 74.4 46.5
M 111.9 94
Q 112.4 94.5 113.1 94.5 113.8 94.5 114.3 94 114.8 93.45 114.8 92.75 114.8 92.05 114.3 91.55 113.8 91 113.1 91 112.4 91 111.9 91.55 111.4 92.05 111.4 92.75 111.4 93.45 111.9 94
M 106.6 95.7
Q 106.6 94.75 105.05 94.05 103.45 93.35 101.45 93.4 96.2 93.55 94.95 98.35 94.35 102.55 91.9 104.5 89.5 106.4 84.95 106.4
L 81.8 105.75 80.9 105.45 80.15 105.05
Q 83.35 109.65 86.8 109.65 93.6 109.65 100.6 103.45 106.6 98.15 106.6 95.7 Z"/>
</g>
</defs>

<g transform="matrix( 1, 0, 0, 1, 0,0) ">
<use xlink:href="#Layer0_0_FILL"/>
</g>
</svg>
