
<svg xmlns="http://www.w3.org/2000/svg" version="1.1" xmlns:xlink="http://www.w3.org/1999/xlink" preserveAspectRatio="none" x="0px" y="0px" width="550px" height="400px" viewBox="0 0 550 400">
<defs>
<linearGradient id="Gradient_1" gradientUnits="userSpaceOnUse" x1="137" y1="22" x2="137" y2="0" spreadMethod="pad">
<stop  offset="0%" stop-color="#0075BF"/>

<stop  offset="99.2156862745098%" stop-color="#009DFF"/>
</linearGradient>

<linearGradient id="Gradient_2" gradientUnits="userSpaceOnUse" x1="125.9" y1="21.1875" x2="125.9" y2="0.8125" spreadMethod="pad">
<stop  offset="0%" stop-color="#0075C0"/>

<stop  offset="99.2156862745098%" stop-color="#009DFF"/>
</linearGradient>

<g id="Layer0_0_FILL">
<path fill="url(#Gradient_1)" stroke="none" d="
M 148 18.6
Q 148 18.3 148 18
L 148 4
Q 148 3.7 148 3.4 147.7 0 144 0
L 4 0
Q 3.701171875 0 3.4 0 0 0.2986328125 0 4
L 0 18
Q 0 18.4958984375 0.05 18.9 0.0748046875 19.096875 0.1 19.25 0.1091796875 19.29296875 0.1 19.3 0.1345703125 19.36640625 0.15 19.4 0.159375 19.43828125 0.15 19.45 0.1935546875 19.5453125 0.2 19.6 0.4330078125 20.3294921875 0.85 20.8
L 2.65 21.85
Q 3.2751953125 22 4 22
L 144 22
Q 147.7 22 148 18.6
M 144.15 1
Q 147 1.05 147 4
L 147 18
Q 147 20.95 144.15 21
L 126 21 125 21 3.9 21
Q 1.0701171875 20.951171875 1 18.15
L 1 3.85
Q 1.062109375 1.0490234375 3.9 1
L 125 1 126 1 144.15 1 Z"/>

<path fill="url(#Gradient_2)" stroke="none" d="
M 125 1
L 125 21 126 21 126 1 125 1 Z"/>
</g>
</defs>

<g transform="matrix( 1, 0, 0, 1, 0,0) ">
<use xlink:href="#Layer0_0_FILL"/>
</g>
</svg>
