
<svg xmlns="http://www.w3.org/2000/svg" version="1.1" xmlns:xlink="http://www.w3.org/1999/xlink" preserveAspectRatio="none" x="0px" y="0px" width="550px" height="400px" viewBox="0 0 550 400">
<defs>
<g id="Layer0_0_FILL">
<path fill="#000000" stroke="none" d="
M 117.6 64.5
Q 117.4 64.35 117.3 64.8 117.25 65.05 117.25 65.3 117.2 65.9 117.35 66.75
L 117.35 66.8 117.4 66.95 117.4 66.9 117.55 67.35 117.65 67.5 117.2 68.3
Q 117.1 68.2 116.95 68.4
L 115.25 71
Q 114.5 72.3 114.55 73.7
L 114.25 74.35
Q 114 74.8 114.1 75.35 111.9 76.75 107.9 77.25 104.95 77.65 102.25 77.5 93.8 76.85 85.5 74.25 75.8 71.55 69.25 70.3 60.55 68.7 52.75 68.7 44.05 68.1 39.25 67.3 31.85 66.05 26.35 63.45 20.3 60.65 15.95 55.6 11.55 50.55 9.6 44.15 8.55 40.4 8.7 36.55 9.25 32.05 10.15 28.3
L 10.4 27.45
Q 10.5 27.05 10.5 26.25
L 11 27.05
Q 11.25 27.55 11.5 25.9 11.65 25.45 11.75 24.5 11.9 22.95 11.3 21.5 7.25 14.55 3.8 7 3.8 6.2 3.55 5.65
L 1 0.3
Q 0.75 -0.2 0.4 0.25 0.15 0.6 0.1 1 -0.15 2.75 0.3 4.25 3.4 12.65 7.45 20.65 7.6 21.7 8.35 22.7
L 8.75 23.35 8.45 23.25 6.55 22.3
Q 6.3 22.25 6 22.85 5.65 23.45 5.6 24.2 4.35 25.8 3.7 29.75 3.35 31.85 3.05 34.8 1.55 46.6 3.85 53.95 3.9 54.2 3.95 54.9 3.95 55.55 4.05 55.8 4.15 57.7 5.15 59.85 5.55 60.65 7.25 63.6 7.8 64.65 8.85 65.95
L 8.95 66.4
Q 9.55 68.4 10.85 69.9
L 11.55 71.5
Q 12.05 72.35 12.7 72.85 13.6 73.5 14.35 73.1 14.65 73 14.75 72.2 15.45 72.35 16.05 72.3
L 16.2 72.4 16.4 72.3 16.5 72.3
Q 16.65 72.25 16.75 72 16.85 71.7 16.85 71.65
L 16.95 70.75
Q 18.3 71.7 20.55 72.95 20.75 73.8 21.45 75.4 21.9 76.3 23 77.9 23.95 79.15 24.8 79.9
L 25.85 80.75
Q 26.3 81.15 27.05 81.55
L 27.2 81.45 27.3 81.35 27.35 81.2 27.8 81.45
Q 29.3 82.45 30.85 81.65
L 31.4 81.15 31.6 81.1
Q 32.4 80.95 32.75 80.2 33.1 79.05 32.95 77.75
L 32.85 77 32.95 77.05 33.15 77.95 32.95 77.4 33.05 77.85 33.15 78 33.2 78.1 33.15 78.05 33.25 78.25
Q 33.75 79 33.9 79.15 34.4 79.7 35.4 80.5 36.8 81.55 38.65 82.2 40.5 82.85 42.1 83.05 43.35 83.15 44 83.05 44.5 82.95 44.85 82.75 45.25 82.45 45.45 82 46.75 82 47.85 81.65
L 47.9 81.7
Q 48.9 82 49.85 82 50.45 82 50.75 81.95 51.25 81.85 51.6 81.6 53.65 80.7 54.3 78.4
L 54.3 78.3
Q 58.5 78.4 60.6 78.55 65.35 78.85 73.35 80.75 82.5 82.95 86.1 83.4 99.2 85 102.9 84.85 112.05 84.5 117.6 79.05 118.05 78.9 118.2 77.9 118.35 77.15 119.1 77.4 119.65 77.6 121 74.45 122.45 71.25 121.35 70.25 121.85 70.15 122.15 69.8 122.6 69.2 122.65 68.55 122.75 68.05 122.75 67.05 122.8 66.65 122.7 65.65
L 122.35 64.6 122.25 64.55 122.05 64.6
Q 121.85 64.6 121.85 65.3
L 121.4 65.75
Q 120.25 66.35 119.1 65.7 118.7 65.5 118.3 65.1
L 117.95 64.75 117.6 64.5 Z"/>
</g>
</defs>

<g transform="matrix( 1, 0, 0, 1, 0,0) ">
<use xlink:href="#Layer0_0_FILL"/>
</g>
</svg>
