
<svg xmlns="http://www.w3.org/2000/svg" version="1.1" xmlns:xlink="http://www.w3.org/1999/xlink" preserveAspectRatio="none" x="0px" y="0px" width="550px" height="400px" viewBox="0 0 550 400">
<defs>
<g id="Layer0_0_FILL">
<path fill="#FFFFFF" stroke="none" d="
M 2.75 1.5
Q 2.9 1.1 2.75 0.7 2.6 0.3 2.25 0.15
L 2 0.05 1.3 0 0.8 0.1 0.6 0.25 0.45 0.4 0.1 0.6
Q -0.05 0.7 0 1 0.1 1.25 0.3 1.2
L 0.6 1.2 0.8 1.3 1.1 1.35 0.95 1.35
Q 1.4 1.45 1.65 1.6
L 1.85 1.7
Q 1.9 1.8 2.2 1.9
L 2.3 1.9
Q 2.6 1.9 2.75 1.5 Z"/>
</g>
</defs>

<g transform="matrix( 1, 0, 0, 1, 0,0) ">
<use xlink:href="#Layer0_0_FILL"/>
</g>
</svg>
