
<svg xmlns="http://www.w3.org/2000/svg" version="1.1" xmlns:xlink="http://www.w3.org/1999/xlink" preserveAspectRatio="none" x="0px" y="0px" width="550px" height="400px" viewBox="0 0 550 400">
<defs>
<g id="Layer0_0_FILL">
<path fill="#CECD97" stroke="none" d="
M 79.75 73
Q 79.75 69.3 76.25 66.8 73.15 64.55 68.65 64.15 64.1 63.7 61 65.35 57.5 67.15 57.5 70.75 57.5 74.2 58.3 76.05 60.1 80 65.5 80 71.7 80 75.55 78.3 79.75 76.4 79.75 73
M 40.25 82.55
L 40.25 88 52.45 88 52.45 82.55 40.25 82.55
M 21.75 90.2
Q 30.45 86.2 29.6 78
L 20 85
Q 16.7 87.65 21.1 90.05
L 21.75 90.2
M 83.9 12.05
L 87.2 0
Q 70.65 4.25 56.9 14.75 26.45 38.05 0 65.45
L 2.9 74.15
Q 13.35 75.7 24.15 75.95 36.8 77.15 48.65 72.15
L 83.9 12.05
M 78.7 11.7
L 79.1 11.8 79 11.95 78.7 11.7 Z"/>
</g>
</defs>

<g transform="matrix( 1, 0, 0, 1, 0,0) ">
<use xlink:href="#Layer0_0_FILL"/>
</g>
</svg>
