
<svg xmlns="http://www.w3.org/2000/svg" version="1.1" xmlns:xlink="http://www.w3.org/1999/xlink" preserveAspectRatio="none" x="0px" y="0px" width="550px" height="400px" viewBox="0 0 550 400">
<defs>
<g id="Layer0_0_FILL">
<path fill="#FFFFFF" stroke="none" d="
M 70.5 65.05
Q 55.5 60.5 57.4 77
L 65.55 73.55 70.5 65.05
M 38.55 88.15
L 40 88.75
Q 42.45 88.8 43.85 87.2 45 85.9 45 84.35 45 82.85 44.8 82.75
L 44.25 82.5
Q 42.7 82.5 40.6 83.4 38 84.5 38 86 38 87.65 38.55 88.15
M 18 88.25
L 28.75 79.35
Q 19.4 78.85 15.85 87.8
L 18 88.25
M 0.85 71.05
L 4.2 72.95 84.1 0.35
Q 66.85 8.1 50.65 21.45
L 19 47.65
Q 6.6 57.8 0.85 71.05 Z"/>
</g>
</defs>

<g transform="matrix( 1, 0, 0, 1, 0,0) ">
<use xlink:href="#Layer0_0_FILL"/>
</g>
</svg>
