
<svg xmlns="http://www.w3.org/2000/svg" version="1.1" xmlns:xlink="http://www.w3.org/1999/xlink" preserveAspectRatio="none" x="0px" y="0px" width="550px" height="400px" viewBox="0 0 550 400">
<defs>
<g id="Parts_Heads_headsMC_43_Layer12_0_FILL">
<path fill="#FFDD55" stroke="none" d="
M 57.15 95.75
Q 57.85 97.5 59.65 98.95 61.4 100.4 63.15 100.8 63.9 100.9 64.5 100.95 65.05 100.95 66.05 100.85
L 66.95 100.7
Q 67.45 100.7 67.8 100.5 68.05 100.4 68.1 99.95 68.15 99.85 68.05 99.6 67.85 99.3 67.55 99.05 66.55 98.4 65.95 97.85 65.4 97.25 65.05 96.55 64.9 96.15 64.65 95.5 64.5 94.85 64.5 94.45 64.45 92.7 65 91.35 65.35 90.6 65.6 90.3 65.7 90.15 66.85 89.25 67.9 88.55 68.8 88.2 69.3 88 69.7 87.85 69.95 87.85 70.65 87.8 72.1 87.6 73.55 88.9 74.8 90 75.45 91.65 75.85 92.5 75.7 93.5 75.55 93.85 74.95 96.15 74.85 96.65 74.9 97.15 74.95 97.5 75 97.55 75.1 97.6 75.4 97.55 75.85 97.5 76.25 97.1 76.65 96.8 77.55 96.05 77.8 95.85 78.3 95.6 78.65 95.4 78.8 95.3 78.95 95.15 79.15 94.65 79.35 94.1 79.65 93.8 80.6 92.9 80.9 90.75 81.15 88.7 80.65 87.35 79.5 84 77.95 82.7 76.75 81.65 75.45 81.15 74.25 80.65 72.55 80.4 70.35 80.15 69.8 80.1 68.65 80 67.6 80.25 67.1 80.35 64.6 81.35 62.85 82.05 62.1 82.6 61.9 82.75 60.8 83.9 60.1 84.65 58.75 86.45 57.45 88.2 57.05 89 56.3 90.35 56.5 93.1 56.55 93.75 56.7 94.5 56.9 95.45 57.15 95.75
M 121.2 80.45
Q 121.1 80.35 120.85 80.55 120.55 80.7 120.35 81 119.95 81.6 119.4 84.3 119 86.7 118.95 86.75 118.9 86.8 118.2 86.75 117.3 86.6 117 86.55 116.05 86.6 115.9 86.8 115.55 87.1 115.05 88.9 114.9 89.5 114.3 91.2 113.65 92.95 113.45 93.65 112.85 95.35 112.75 95.65 112.6 96 112.45 96.05 112.35 96.05 112.3 96.05 112.2 96 111.95 95.8
L 111.1 95
Q 110.95 95.05 110.3 96.7 109.55 98.35 109.15 99.55 108.5 101.35 107.5 104.05 106.4 107.05 106.2 107.5 105.95 107.9 105.8 107.9 105.7 108 105.25 107.95 104.75 107.85 103.1 107.25 101.55 106.7 100.15 106 98.4 105.25 98.25 105.25 97.9 105.25 97.15 106.35 96.8 106.85 94.65 110.55 93.85 111.85 93.2 112.85 92.65 113.7 92.6 113.75 92.4 113.8 90.6 112.95 89.05 112.15 87.85 111.5 85.95 110.3 85.3 110.35 85.1 110.35 84.5 110.95 84.35 111.1 82.75 112.8 81.9 113.65 80.3 114.9 78.9 115.95 78.65 116.05 78.45 116.1 78.1 115.7 77.25 114.7 76.3 113.75 74.7 112.1 73.2 110.9 71.9 109.85 71.65 109.9 71.6 109.9 69.95 111.65 69.6 112.05 69.1 112.7 68.65 113.45 68.5 113.6
L 67.4 114.4
Q 67.3 114.45 67.05 114.3
L 66.85 114.2
Q 65.6 113.7 62.05 111.25 58.45 108.8 57.1 107.55 56.6 107.15 56.4 107 56.3 106.8 55.95 106.55 55.65 106.35 55.6 106.3 55.45 106.3 55.6 107.3 55.65 108.25 55.7 108.4 56.3 110.6 59.05 116.05 61.6 121.15 63.35 123.8 64.05 124.95 64.7 124.75 65.3 124.65 66.95 123.2 68.4 121.95 70.05 120.65 71.6 119.5 72.15 119.2 72.5 119.05 72.8 119.3 73.25 119.55 76.25 121.95 77.15 122.75 78.1 123.4 79.05 124.05 79.25 124 79.3 124.05 79.85 123.55 80.5 122.85 80.95 122.5 83.4 120.05 84.15 119.4
L 85.75 118.05 86.95 118.2
Q 87.4 118.35 88.55 118.85 90.35 119.65 91.95 120.25 92.7 120.5 93.7 120.7 94.65 120.95 95 120.9 95.7 120.35 95.9 120.1 96.55 119.25 98.3 116.35
L 100.1 113.4 101.2 113.65
Q 101.8 113.85 104.95 115.2 106.45 115.7 107.45 115.55 107.95 115.55 108.4 115.3 109 115.15 111.15 110 111.75 108.75 113.05 105.45 114 103.15 114.05 103.05 114.4 102.7 114.8 102.75 114.95 102.8 115.75 103.2 116.05 103.35 116.1 103 116.6 101.9 117.75 97.3 118.3 95.25 118.8 93.8 119.15 92.45 119.25 92.45 119.3 92.45 120.35 92.6 120.85 92.65 121.5 92.65 122.15 92.6 122.35 92.5 122.55 92.4 122.5 91.2 122.45 90.35 122.1 86.15 121.65 81.05 121.2 80.45
M 90.95 90.55
Q 90.8 90.6 90.7 90.7 90.4 90.9 90.25 91 89.65 91.35 89.6 91.55 89.6 91.6 89.7 93.45 89.75 93.7 89.8 95.6 89.9 97.4 90.1 99.2 90.35 101.1 90.5 101.2
L 90.55 101.6
Q 90.7 102 90.7 102.05
L 91.75 101.85
Q 91.9 101.8 92.8 101.35 93.25 101.15 95.05 100.45 99.2 98.75 99.2 98.35 99.25 97.9 97.5 96 95.55 93.85 94.9 93.2 94.05 92.35 93.1 91.5 92.15 90.75 91.8 90.6 91.4 90.4 90.95 90.55
M 114.7 73.8
Q 114.6 73.25 114.1 72.05 113.85 71.5 113.6 71.15 113.45 70.85 113 70.45 112.35 69.75 111.35 69.15 110.35 68.55 109.3 68.2 107.8 67.7 106.1 68.05 104.1 68.45 102.75 69 101.2 69.6 99.55 70.8 98.45 71.55 97.9 72.15 97.4 72.6 96.65 73.75 95.95 74.65 95.1 76.7 94.9 77.3 94.75 78.15 94.55 79.1 94.6 79.85 94.6 81.25 95.15 82.95 95.7 84.6 96.35 85.45 96.8 86.15 97.4 86.75 98.1 87.4 98.65 87.55 98.8 87.6 99.3 87.75 99.8 87.85 100.3 87.8 100.55 87.75 101.6 87.7 102.55 87.7 103 87.45 103.6 87.25 104.8 86.8 105.6 86.5 105.8 86.35
L 106.2 85.5
Q 106.7 85.25 106.65 85.15 106.6 85.05 105.6 84.8 104.45 84.2 103.85 83.75 103.35 83.25 102.85 82.5 102.25 81.4 102.2 80 102.05 78.65 102.55 77.55 102.75 77.05 103.7 76.15 104 75.75 104.35 75.65 104.55 75.6 105.15 75.35 105.85 75.1 106.5 75.35 106.65 75.4 107.6 76 108.1 76.3 108.45 76.65 109.05 77.4 109.2 79.4 109.2 80.65 109.1 81.4 109.05 81.6 109.35 82.05
L 109.7 82.5
Q 109.75 82.6 110.05 82.55 110.4 82.55 110.7 82.45 111 82.35 111.25 82.15 111.4 82.05 111.75 81.7 112.05 81.35 112.5 81 113 80.65 113.75 79.35 114.2 78.6 114.6 76.85 114.75 75.9 114.8 75.25 114.8 74.8 114.7 73.8 Z"/>
</g>

<g id="Parts_Heads_Jack_O_Lantern_jackoShading_0_Layer3_0_FILL">
<path fill="#000000" fill-opacity="0.047058823529411764" stroke="none" d="
M 248.35 63.4
Q 246.7 62.7 243.75 61.2 240.95 59.75 239.9 59.1 238.65 58.3 236.5 57.85 234.4 57.4 231.55 56.4
L 226.9 54.8
Q 224.45 54.1 219.05 52.95 213.55 51.75 211.45 51.55 209.8 51.4 208.45 51 207.05 50.6 204.55 49.5 195.45 45.7 190.4 45.55 187.45 45.45 184.75 45.1 182 44.7 175.45 44.85
L 168.85 44.95 166.55 41.5
Q 163.95 37.65 162.3 35.55
L 157.5 28.95
Q 152 21.2 147.85 16.55
L 140.85 8.65
Q 133.5 0.25 132.55 0.25 132.25 0.25 130.95 2 128 5.95 123.4 8.35 120.9 9.6 120.7 10.1 120.5 10.55 122.7 14.65 126.5 22 127.5 24.15 128.7 26.6 129.45 29.1 130.55 32.4 131.7 38.15
L 133.2 44.9
Q 133.5 46.2 133.25 46.4 132.95 46.7 125.1 47.05 115.85 47.45 112.3 48.05 108.85 48.6 105.3 50.25 98.5 53.4 95.7 55 88.55 59.05 85.65 60.4 82.75 61.7 78.15 63 67.3 65.95 63.3 68 59.35 70.05 52.9 75.95 48.55 79.95 45.9 81.4 42.6 83.25 33.1 90.95 30.2 93.3 26.2 97.4 22.25 101.45 20.85 103.5 19 106.25 14.4 116.15 9.8 126.1 7.35 132.55 5.55 137.35 3.8 143.8 2.05 150.3 1.35 154.55 0.35 160.9 0.45 167.1 0.55 173.35 1.8 181.1 3.4 190.7 4.9 194.65 5.65 196.65 8.25 201.9 10.85 207.1 11.8 208.5 12.7 209.9 14.8 213.95 18.05 220.15 21.75 224.95 25.45 229.85 31.8 236.15 38.15 242.45 42.4 245.9 46.75 249.4 52 252.4
L 56.9 255.35
Q 58.7 256.5 60.95 257.1 63.6 257.8 65.7 258.7 70.35 260.6 76.05 262.1
L 81.5 263.55
Q 82.6 263.9 85.4 264.25 87.1 264.5 88.4 264.9 89.75 265.35 92.3 266.5 101.9 271 106.85 271.15 109.25 271.15 111.55 271.55
L 114.6 272.05
Q 116.2 272.3 124.1 272.05 132.15 271.85 135.9 271.45 141.5 270.95 144.05 270.9 146.55 270.9 151 271.4 154.35 271.8 157.65 271.9 160.85 271.95 170.05 271.85 181.35 271.75 184.4 271.4 187.35 271.1 190.55 269.7
L 194.9 267.95
Q 196.85 267.2 199.9 265.55 203.1 263.75 208.05 261.5 213.05 259.2 214.8 258.7 216.1 258.3 222 256.95 229.85 255.2 234.15 253.1 238.4 250.95 243.6 246.35 246.45 243.8 248.1 242.6 249.8 241.4 252.15 240.15 255.65 238.4 266.65 230 268.9 228.3 272.65 224.55 276.35 220.85 278.1 218.6 281.85 213.8 286.35 204.05 293.95 187.7 297.7 172.75 299.55 165.5 299.8 157.9 300.05 150.45 298.75 140.45 297.65 131.95 296.55 128.05 295.45 124.2 291.5 114.65 285.85 101 280.45 93.3 275.1 85.6 264.5 76 259.45 71.4 256.25 69.1
L 251.4 65.4
Q 249.9 64.1 248.35 63.4
M 243.15 74.3
Q 244.75 75.55 245.35 76.45 246.05 77.65 247.05 80.3 247.65 81.9 247.85 82.85 247.95 83.3 248.4 85.7 248.55 87.65 248.8 88.7 248.9 89.4 249.3 90.95 249.55 93.3 249.5 95.5 249.6 96.45 250.85 96.15 252.2 95.8 255 93.1 257.85 90.4 258.55 88.8 259.3 87.05 259.75 87.05 260.2 87.05 262.75 89.15 265.4 91.25 265.75 91.25 266.85 91.25 271.05 97.15 275.2 103.05 277.8 108.2 279.8 112.1 282.65 119.15 285.5 126.2 285.6 127.4 285.8 128.8 286.6 131.1 287.5 133.4 288 135.85 288.45 138.1 289.2 143.7 290.15 150.65 290.05 156.4 289.95 162.05 288.8 167.7 288.35 169.95 286.7 175.5 285.1 180.95 283.85 184.45 281.4 191.25 277.8 199.1 274.2 206.95 271.9 210.4 270.75 212.2 267.8 215.45 264.85 218.75 264.8 218.3 264.8 218.05 265.9 215.85 267.35 212.95 270 205.5 272.65 198 273.3 194.8 275.25 186 275.8 183.85 276.35 181.85 276.9 181.25 277.75 180.35 278.1 179.45 278.4 178.6 278.85 175.95 279.3 173.25 280.15 169.85 280.95 166.8 281.45 163.55 282 160.05 282.3 159.55 282.5 159.1 282.9 156.25 283.4 152.15 281.55 150.1 281.2 149.7 281.05 148.95 280.95 148.25 280.95 146.3 280.95 143.05 280.15 139.4 279.35 135.75 277.1 128.85 274.85 122 273.85 118.4 273.25 116.1 272 112.5 270.75 108.75 270 107 269.35 105.45 268.1 104.1 266.7 102.45 264.85 99.9 263.25 97.6 261.9 96.65 260.5 95.75 258.5 95.5 257.3 95.4 255.3 95.75 253.3 96.1 252.65 96.55 252.2 96.9 252.35 97.85 252.5 98.9 254.05 105.5 255.25 110.95 254.95 111.2 254.7 111.45 253.45 111.35 252.6 111.25 252.35 110.95 252.1 110.65 251.6 109.2
L 250.45 105.3
Q 249.3 101.15 245.85 93.8 242.4 86.45 239.65 82.3 237.85 79.55 233.85 75.85 230.3 72.6 226.75 70.4 223.2 68.2 218.2 66.25 216.4 65.55 215.7 65 215.05 64.45 216 64.45 217.45 64.45 227.4 67.65 237.35 70.85 239.75 72.1 241.5 73 243.15 74.3
M 199.7 73.9
Q 197.15 70.7 193.45 67.9
L 186.6 62.75
Q 183.1 60.15 181.95 59.5 180.3 58.65 176.8 57.65 173.3 56.65 170.95 56.45 168.25 56.15 168.15 56 168 55.85 169.95 55.3 171.75 54.8 176.85 54.75 182.05 54.65 184.6 55.1 189.85 55.95 193.95 57.5 198.05 59.05 200.1 60.95 201.25 62 202.45 63.9 203.6 65.8 204.15 67.45 204.5 68.55 205.65 70 208.25 73.1 213.9 86.95 219.55 100.75 222.05 110.1 223.25 114.35 224.15 117 225.25 120.35 225.35 121.2 225.5 122.05 224.95 122.8 224.4 123.6 224.1 123.45 223.8 123.3 223.5 122.15 221.7 115.05 219.1 108.4 217.65 104.7 214.8 99.05 211.85 93.2 210 90.4 207.45 86.4 206.1 83.95 202.25 77.15 199.7 73.9
M 227.55 123.35
Q 230.65 120.25 233.4 118.5 234.95 117.45 238.9 116.1 242.7 114.8 245.6 114.25 249.55 113.6 254 114.2 258.45 114.75 261.4 116.35 265.8 118.8 268.05 123.3 269.25 125.75 269.6 127.9 269.95 129.95 269.6 132.5 268.95 137.05 266.05 141.55 263.1 146.05 260.2 146.9 258.7 147.3 257.95 147.95 257.3 148.5 255.65 148.65 253.95 148.75 253.55 148.25 253.25 147.9 253.35 147.45 253.45 147 254.1 145.7 256 141.75 255.7 137.4 255.55 135.7 255.15 134.65 254.75 133.6 253.55 131.85 252.1 129.7 250.6 129 249.1 128.3 246.6 128.5 242.5 128.9 239.7 131.45 236.9 133.95 236.1 137.95 235.7 140.05 235.85 142.7 236 145.4 236.65 146.85 237.2 148 239.5 150.5 241.8 153.05 242.55 153.3 243.2 153.55 242.6 154.15 241.95 154.8 240.65 155.25 237.95 156.1 233.55 155.95 229.05 155.8 227.25 154.7 226.05 154 224.65 152.35 223.3 150.8 222.6 149.4 221.65 147.55 221.1 144.75 220.55 141.85 220.7 139.15 220.8 136.7 221.6 133.6 222.4 130.45 223.5 128.3 224.5 126.4 227.55 123.35
M 162.45 119.6
Q 164.85 120.35 169 122.4 171.3 123.6 172.35 124.4 173.4 125.2 175.25 127.1 179.7 131.75 181.25 136.25 181.85 138 182.15 140.95 182.4 143.9 182.15 145.8 181.95 147.5 180.55 150.1 179.2 152.7 177.7 154.35 176 156.35 175.35 157.35 174.5 158.65 173.1 159 171.7 159.45 168.85 160.8 165.4 162.55 164.85 162.15 164.25 161.75 166.05 158.85 168.05 155.55 168.75 153.65 169.4 151.75 169.4 149.35 169.35 144.75 166.9 141.1 164.45 137.5 160.4 136.15 159.15 135.75 158.4 135.7 157.65 135.65 156.2 135.85 152.55 136.35 148.8 137.95 145.1 139.6 143.2 141.55 139.2 145.65 139.45 150.8 139.65 155.9 144.1 160.8 146.4 163.3 146.4 163.7 146.4 164.15 145.75 164.5 145.2 164.8 144.35 164.75 143.55 164.7 140.9 164.3 136.65 163.85 132.85 160.8 129.15 157.85 126.7 153.15 125.45 150.75 124.95 148.75 124.45 146.7 124.45 144.05 124.45 139.95 125.75 136.9 127 133.8 129.9 130.9 135.1 125.75 138.6 123.4 142.05 121.1 145.65 120.4
L 150.9 119.25
Q 156.9 117.65 162.45 119.6
M 162.85 110.6
L 163.25 116.6
Q 163.35 116.9 162.5 116.95 161.7 117 161.05 116.75 160.6 116.55 160.4 115.95 160.2 115.4 159.95 113.45 159.6 110.5 158.75 107.4
L 156.3 97.7
Q 155.7 95.2 154.35 91.4
L 152.5 86.1
Q 152 84.4 150.3 80.65 148.6 76.9 147.9 75.9 146.65 74.1 142.65 70.2 138.65 66.25 136.2 64.45 133.3 62.3 128.9 60.55 127.15 59.9 126.7 59.45 126.2 59.05 125.55 59.05 124.8 59.1 118.8 57.7 115.85 57 131.7 56.9 138.15 56.9 140.05 57 142 57.1 143.95 57.6 146.55 58.15 147.75 58.65 148.45 58.9 148.65 59.2 148.85 59.5 149.1 60.7 149.3 61.6 150.55 62.95 151.55 64.1 152.75 66.3 153.95 68.55 154.55 70.45
L 156.85 77.7
Q 158.2 81.9 158.9 85.25 159.65 88.75 161.55 99.65 162.5 105.15 162.85 110.6
M 164.15 147.6
Q 164.15 142.9 164.25 141.95 164.35 141 164.75 141.25 165.45 141.65 165.7 142.8 165.9 144 166 148.4 166.1 152.55 166 153.6 165.9 154.55 165.3 155.9 164.5 157.7 164.1 157.7 163.7 157.75 163.9 156 164.15 154.35 164.15 147.6
M 199.45 162.3
Q 200.25 157.15 201.95 155.95 202.9 155.35 204.55 155.1 206.25 154.8 207.15 155.15 209.5 155.85 212.55 163.05 213.8 166 216.35 170.4 219.4 175.75 219.9 178 220.4 180.25 218.7 180.9 217.8 181.25 214.15 181.9 210.5 182.55 208.5 182.75 207.15 182.85 203 183.55 199.8 184.2 198.85 184.15 197.9 184.05 196.9 183.2 195.9 182.3 195.8 181.3 195.7 180.3 196.35 177.05 197.05 173.65 197.2 172.25 197.55 170.05 198.2 168.05 198.85 165.8 199.45 162.3
M 162.85 170.45
Q 163.5 165 163.75 164.75 163.95 164.55 164.7 164.35 165.2 164.2 165.3 164.35 165.4 164.45 165.4 165.05 165.4 166.7 163.95 173.35 163.05 177.8 162.35 182.45 161.5 188 160.25 194.15 159 200.4 158.85 200.55 158.75 200.65 158.1 199.55 157.4 198.45 157.2 197.75 156.9 196.8 157.5 193.75 158.05 190.65 159.3 186.75 160.8 182.1 161.5 178.85 162.15 175.7 162.85 170.45
M 227.8 156.5
Q 228.05 156.35 228.85 156.55 229.5 156.75 229.55 157 229.65 157.25 229.5 158.45 229.35 160.1 228.6 163.55 228 166.85 227.75 167.3 227.5 167.7 227.6 162.2 227.6 156.7 227.8 156.5
M 209.65 197.2
L 211.85 195.45 214.1 195.95
Q 214.4 196.1 215.45 197.15 216.75 198.45 217.55 199.1 219.75 200.95 223.15 203.35 226.75 205.95 228.05 206.5 228.55 206.75 228.8 206.65 228.9 206.6 229.5 206 230.65 205 233.1 201.4 235.45 198 238.2 194.45 242.9 188.55 242.9 187.5 242.9 187.1 245.55 183.75 248.2 180.45 248.65 180.3 248.9 180.25 249.7 180.8 250.65 181.4 251.05 182.2 251.6 183.3 252.5 183.3 252.6 183.3 252.7 182.95 252.85 182.35 253.35 181.55 255.5 177.7 258 173.9 259.85 171.05 262.95 166.35 263.5 165.4 264.25 163.95 264.75 163 265.05 162.95 265.35 162.85 266.75 163.3 268.3 163.75 269.45 164.35 271.1 165.15 272.1 165.05 272.65 165.05 272.85 164.8 273.1 164.55 273.55 163.45 275.1 159.7 277.2 155.9 279.25 152.2 279.9 151.9 280.95 151.4 281.25 152.45 281.55 153.55 281.1 156.55 279.95 164.3 278.6 171.5 277.1 179.25 276.65 179.7 275.95 180.5 272.5 178.8 270.4 177.7 269.95 177.5 269.45 177.3 269.2 177.55 268.15 178.7 259.55 193.55 255.45 200.65 254.95 200.65 254.5 200.6 252.7 199.45 251.4 198.55 251.15 198.55 250.55 198.55 239.5 213.65 238.7 214.75 236.85 216.55 234.65 218.65 234.35 219 233.15 220.3 232.8 221.05 232.55 221.55 232.4 222.5 232.2 224.3 230.9 224.2 227.3 224.25 226.25 224.05 226 224 222.8 221.2 220.5 219.15 216.9 216.8 213.6 214.6 212.7 214.4 209.55 215.65 207.1 218.25 201.7 223.8 200.3 224.95
L 200.25 225.7
Q 199.2 226.6 197.45 227.5 195.95 228.2 195.7 228.2 194.7 228.2 189.1 223.9 178.8 216.05 176.8 216.05 175.5 216.05 161.05 223.8 160.15 224.3 158.4 225.25 157.1 226 156.9 225.95 156.7 225.9 155.9 225.05 155.1 224.15 154.4 223.2 152 219.45 146.35 211.7 144.8 209.7 144.5 209.7 142.95 210.45 141.35 211.15 137.05 212.75 135.1 213.6 130.35 215.55 129.15 216.25 124.3 219.1 122.9 219.1 122.3 219.1 121.65 217.45 120.95 215.6 119.5 209.9 117.4 201.6 113.95 182.55 113.5 179.95 113.15 176.05 112.75 172.15 112.95 171.65 113.15 171 113.9 171.85 114.7 172.7 115.5 174.55 116 175.7 116.95 177 117.1 177.25 118.7 179.15
L 124.2 186.2
Q 126.5 189.05 130.4 193.1 132.2 195 133.95 196.4 135.7 197.85 136.25 197.85 136.65 197.85 138.5 196.45 140.2 195.15 141.5 194 141.8 193.75 143.1 193.05 144.5 192.25 145.15 191.75 146.7 190.6 147.1 190.35 147.75 190 148.1 190.15 150.05 191.3 156.7 203.55 159.7 208.95 161.1 208.95 161.95 208.95 165.95 206.9 170.05 204.8 173.5 202.55 177.55 199.85 179.3 199.6 180.9 199.35 182.1 201.1 183.1 202.55 184.85 204.05 185.9 204.95 190.45 208.45
L 194.6 211.45 196 210.35
Q 196.35 210.05 202.65 203.75 207.2 199.1 209.65 197.2
M 220.75 194.25
Q 219.6 197.4 219.25 197.4 218.95 197.4 219.1 197 219.5 195.9 221.4 190.2 223.35 184.25 224.1 181.75 225.15 178.4 225.35 178.4 225.6 178.45 224.8 181.85 223.8 186.5 220.75 194.25
M 82.6 80.4
Q 85.85 72.85 86.35 72.85 86.7 72.85 86.6 73.2 86.55 73.55 85.75 75.55 82.15 84.5 76.05 105.7 75.3 108.05 75.2 108 74.95 108 75.2 106 75.45 104 75.95 102.25 76.65 99.8 76.45 98.4 76.35 96.95 77.6 93 79.35 87.85 82.6 80.4
M 68.85 189.2
Q 69.25 179.35 69.8 181.45 70.1 182.55 70.4 187.1 70.9 196.55 74.15 220.3 76 234.15 79.75 245.1 81.2 249.5 81.15 249.75 81.05 250.05 79.8 247.7 78.55 245.3 77.65 243.05 76.25 239.55 74.3 232.1 72.35 224.65 71.55 219.9 69.75 209 68.95 202.75 68.45 199.05 68.85 189.2
M 150.65 220.95
Q 151 220.95 152.05 222.55 153.15 224.15 153.15 224.65 153.15 225.8 151.35 231.45 149.55 237.1 148.9 237.95 148.65 238.3 142.7 252.8 142.45 253.55 141.1 254.15 139.85 254.7 137.7 257.2 135.6 259.75 134.2 260.55 132.8 261.45 130.4 261.65 127.05 262 125.55 262.25 122.3 262.75 116.9 262.4 111.55 262 111.55 261.3 111.55 261.1 114.8 260 118.1 258.9 120.1 258.4 121.55 258.05 125.8 255.3 130 252.5 132.6 250.2 135.35 247.7 138.3 244.65 141.3 241.45 142.75 239.5 144.7 236.95 146.2 233.55 147.7 230.1 149.3 224.6 150.4 220.95 150.65 220.95
M 248.8 218.5
Q 252.7 212.95 254.95 206 255.75 203.7 256.4 202.55 257.05 201.4 257.05 202.35 257.05 203.55 256.35 205.6 255.65 207.65 254.95 208.65 253.9 210.05 253.65 211.55 252.75 218.45 250.95 222.75 249.15 227.05 245.55 230.95 243.4 233.3 240.55 235.4 237.9 237.3 237.05 238.55 235.4 241.2 230.85 243.65 226.25 246.1 221.35 246.95 218.55 247.4 217.1 247.4
L 215.6 247.4 220.1 244.95
Q 225.1 242.25 228 240 230.9 237.8 236.35 232.4 244.9 224 248.8 218.5
M 210.05 218.95
Q 211.35 216.75 211.65 216.55 212.55 216 210 223.65 208.3 228.8 208.05 230.5 207.7 232.45 204.45 238.85 197.8 252.15 196.65 253.55 194.9 255.8 190.55 258.45 186.25 261.15 183.55 261.65 181.9 261.9 172.95 261.95 163.95 261.95 164.45 261.65 164.85 261.4 167.35 260.85 170.2 260.2 173.5 259.2 176.8 258.2 178 257.6 179.9 256.65 184.65 252.95 189.4 249.3 191.6 247.1 194.3 244.4 199.7 236.4 205.05 228.5 207.6 223.4 208.8 221.1 210.05 218.95
M 211.5 180.2
Q 211.77890625 180.18828125 212.05 180.15
L 212 180.15
Q 211.753125 180.184375 211.5 180.2
M 208.55 159.5
L 208.4 159.3
Q 209.840625 161.808203125 213.6 169.05 214.4515625 170.68125 215.15 172 214.5580078125 170.7943359375 214.15 170 210.95 163.7 208.55 159.5
M 199.15 182.5
L 202 181.9 199.05 182.45 199.15 182.5
M 200.75 163.4
Q 200 166.35 199.1 172.75 198.3 176.55 198.1 179.65
L 198.1 180.15 198.15 179.7
Q 198.35 176.7 199.15 172.8 200.1 168.25 200.8 163.7 200.89453125 163.09765625 200.95 162.55 200.869921875 162.9599609375 200.75 163.4 Z"/>

<path fill="#070707" fill-opacity="0.14901960784313725" stroke="none" d="
M 201.95 155.95
Q 200.25 157.15 199.45 162.3 198.85 165.8 198.2 168.05 197.55 170.05 197.2 172.25 197.05 173.65 196.35 177.05 195.7 180.3 195.8 181.3 195.9 182.3 196.9 183.2 197.9 184.05 198.85 184.15 199.8 184.2 203 183.55 207.15 182.85 208.5 182.75 210.5 182.55 214.15 181.9 217.8 181.25 218.7 180.9 220.4 180.25 219.9 178 219.4 175.75 216.35 170.4 213.8 166 212.55 163.05 209.5 155.85 207.15 155.15 206.25 154.8 204.55 155.1 202.9 155.35 201.95 155.95
M 199.1 172.75
Q 200 166.35 200.75 163.4 200.869921875 162.9599609375 200.95 162.55 201.9900390625 158.9400390625 202.35 158.4 202.85 157.55 204.75 157.15
L 206.85 157.05 208.4 159.3 208.55 159.5
Q 210.95 163.7 214.15 170 214.5580078125 170.7943359375 215.15 172 215.9373046875 173.6748046875 217.05 176.1 218.15 177.95 217.9 178.4 217.33125 179.31875 213.25 179.95
L 212.05 180.15
Q 211.77890625 180.18828125 211.5 180.2
L 202 181.9 199.15 182.5 199.05 182.45 198.15 181.95 198.1 180.15 198.1 179.65
Q 198.3 176.55 199.1 172.75 Z"/>
</g>

<g id="Parts_Heads_Jack_O_Lantern_jackoShading_0_Layer3_1_FILL">
<path fill="#070707" fill-opacity="0.14901960784313725" stroke="none" d="
M 264.6 202.85
Q 264.7306640625 202.7556640625 264.85 202.65 264.8841796875 202.5923828125 264.35 202.9 263.4 203.75 264.6 202.85
M 68.3 183.35
Q 68.3 184.05 68.5 183.75 68.65 183.6 68.5 183.15 68.35 182.8 68.3 183.35 Z"/>
</g>

<g id="Parts_Heads_Jack_O_Lantern_jackoShading_0_Layer2_0_FILL">
<path fill="#070707" fill-opacity="0.14901960784313725" stroke="none" d="
M 248.35 63.4
Q 246.7 62.7 243.75 61.2 240.95 59.75 239.9 59.1 238.65 58.3 236.5 57.85 234.4 57.4 231.55 56.4
L 226.9 54.8
Q 224.45 54.1 219.05 52.95 213.55 51.75 211.45 51.55 209.8 51.4 208.45 51 207.05 50.6 204.55 49.5 195.45 45.7 190.4 45.55 187.45 45.45 184.75 45.1 182 44.7 175.45 44.85
L 168.85 44.95 166.55 41.5
Q 163.95 37.65 162.3 35.55
L 157.5 28.95
Q 152 21.2 147.85 16.55
L 140.85 8.65
Q 133.5 0.25 132.55 0.25 132.25 0.25 130.95 2 128 5.95 123.4 8.35 120.9 9.6 120.7 10.1 120.5 10.55 122.7 14.65 126.5 22 127.5 24.15 128.7 26.6 129.45 29.1 130.55 32.4 131.7 38.15
L 133.2 44.9
Q 133.5 46.2 133.25 46.4 132.95 46.7 125.1 47.05 115.85 47.45 112.3 48.05 108.85 48.6 105.3 50.25 98.5 53.4 95.7 55 88.55 59.05 85.65 60.4 82.75 61.7 78.15 63 67.3 65.95 63.3 68 59.35 70.05 52.9 75.95 48.55 79.95 45.9 81.4 42.6 83.25 33.1 90.95 30.2 93.3 26.2 97.4 22.25 101.45 20.85 103.5 19 106.25 14.4 116.15 9.8 126.1 7.35 132.55 5.55 137.35 3.8 143.8 2.05 150.3 1.35 154.55 0.35 160.9 0.45 167.1 0.55 173.35 1.8 181.1 3.4 190.7 4.9 194.65 5.65 196.65 8.25 201.9 10.85 207.1 11.8 208.5 12.7 209.9 14.8 213.95 18.05 220.15 21.75 224.95 25.45 229.85 31.8 236.15 38.15 242.45 42.4 245.9 46.75 249.4 52 252.4
L 56.9 255.35
Q 58.7 256.5 60.95 257.1 63.6 257.8 65.7 258.7 70.35 260.6 76.05 262.1
L 81.5 263.55
Q 82.6 263.9 85.4 264.25 87.1 264.5 88.4 264.9 89.75 265.35 92.3 266.5 101.9 271 106.85 271.15 109.25 271.15 111.55 271.55
L 114.6 272.05
Q 116.2 272.3 124.1 272.05 132.15 271.85 135.9 271.45 141.5 270.95 144.05 270.9 146.55 270.9 151 271.4 154.35 271.8 157.65 271.9 160.85 271.95 170.05 271.85 181.35 271.75 184.4 271.4 187.35 271.1 190.55 269.7
L 194.9 267.95
Q 196.85 267.2 199.9 265.55 203.1 263.75 208.05 261.5 213.05 259.2 214.8 258.7 216.1 258.3 222 256.95 229.85 255.2 234.15 253.1 238.4 250.95 243.6 246.35 246.45 243.8 248.1 242.6 249.8 241.4 252.15 240.15 255.65 238.4 266.65 230 268.9 228.3 272.65 224.55 276.35 220.85 278.1 218.6 281.85 213.8 286.35 204.05 293.95 187.7 297.7 172.75 299.55 165.5 299.8 157.9 300.05 150.45 298.75 140.45 297.65 131.95 296.55 128.05 295.45 124.2 291.5 114.65 285.85 101 280.45 93.3 275.1 85.6 264.5 76 259.45 71.4 256.25 69.1
L 251.4 65.4
Q 249.9 64.1 248.35 63.4
M 243.35 74.4
Q 245.8 76.35 247.2 80.6 247.85 82.55 248.55 84.9 249.1 87.6 249.65 90.3 249.95 92.15 250.1 95.25 250.15 97.1 254.15 93.75 258.1 90.4 258.7 88.35 259.1 87.05 259.65 87.05 260.2 87.05 262.7 89.1 265.45 91.2 266 91.4 267.4 92.05 271.2 97.4 275 102.75 277.55 107.7 279.75 112 282.75 119.35 285.8 126.75 285.8 127.8 285.8 129 286.75 131.5 288.05 135.05 289.05 142.15 290.05 149.3 290.05 154.8 290.05 160.4 289.35 164.7 288.65 169 286.7 175.55 283.35 186.9 278.6 197.6 273.85 208.2 270 213 268.25 215.15 266.55 216.8 264.8 218.5 264.6 218.3 264.4 218 265.9 214.85 267.95 210.35 270.75 201.9 273.5 193.4 273.05 192.95 272.85 192.75 272.35 193.45 271.85 194.1 270.4 196.65 269.1 199 268.4 199.85 267.9 200.4 266.55 201.45 266.4109375 201.5427734375 264.85 202.65 264.7857421875 202.82421875 262.25 204.65 261.65 205.9 261.15 205.5
L 260.8 204.85
Q 260.5 206.25 259.95 207.2 259.6 207.8 258.65 209 257.85 210.05 257.5 211.75 257.3 212.9 256.8 216.4 256.55 217.75 254.55 219.65 252.05 221.95 251.7 222.5 247.8 230.15 240.65 235.3 238.25 237 237 238.65 234.8 241.55 230.55 243.8 226.25 246.1 221.35 246.95 219.4 247.3 217.25 247.4 215.1 247.55 215.1 247.3 215.1 247.15 218.9 245.15 224.6 242.15 227.6 239.85 230.55 237.55 236.9 231.15 245.2 222.85 248.85 217.65 252.55 212.4 254.5 206.05 255.15 204 255.55 203.15 256 202.3 256.75 201.6 257.6 200.8 259.55 197.35 261.5 193.85 267.15 182.95 269.05 179.35 269.3 179.35 269.65 179.35 272.1 180.45 274.25 181.45 275.15 181.55 275.95 181.6 276.65 180.85 277.4 180.05 277.7 179.2 278 178.35 278.35 176.25 278.75 173.5 279.5 170.8 280.2 167.9 280.95 164 281.8 159.55 282.1 158.4 282.85 155.5 282.35 153.05 281.9 150.6 280.45 149.9 279.4 149.4 278.45 150.65 277.5 151.85 275 156.95
L 271.75 163.5
Q 271.6 163.6 269.1 162.6 266.2 161.5 265.15 161.4 264.05 161.3 263.3 161.95 262.4 162.85 261.7 164.4 261 166.1 260.6 166.1 260.3 166.1 260.3 161.85 260.3 155.75 259.5 150.75 259.35 150 259.6 149.65 259.8 149.35 261.05 148.55 265.85 145.35 269.75 137.95 270.4 136.65 270.75 132.85 271.1 129.1 270.7 127.15 270.35 125.4 269.05 122.75 267.8 120.1 266.5 118.4 265.2 116.75 263.8 115.75 262.35 114.7 259.4 113.35 256.1 111.9 254.4 111.9 252.55 111.9 252.1 111.4 251.6 110.9 251.6 110.75 251.6 110.35 250.2 106.1 248.75 101.8 247.9 99.6 246.3 95.4 243.35 89.6 240.4 83.9 238.45 81.15 237.25 79.55 233.35 76 230.1 73 226.85 71 223.65 68.95 219.1 67.05 214.9 65.3 215.6 64.5 215.9 64.2 222.45 66.1 228.9 68 234.3 69.95 240.95 72.4 243.35 74.4
M 199 73.75
Q 197.4 71.75 195.6 70.25 193.6 68.55 186.25 63 182.9 60.5 181.5 59.75 179.7 58.85 176.15 57.95 172.55 57.05 169.4 56.7 168.15 56.55 163.5 56.5
L 159.55 56.45
Q 160.55 56.35 169.8 53.85 171.25 53.45 172.8 53.3 174.25 53.2 177.7 53.2 181.85 53.15 184.95 53.6 187.9 54 191.75 55.05 193.95 55.7 196.55 57 199.15 58.35 200.35 59.45 201.45 60.45 202.6 62.35 203.8 64.25 204.4 65.95 204.85 67.25 206.45 69 207.65 70.35 209.85 75.7 211.25 78.95 214.6 87.4 216.8 92.9 219 99.1 221.25 105.5 222.1 108.65 222.65 110.65 224.5 116.7
L 226.1 121.65 223.2 125.6
Q 221.5 127.75 220.65 129.85 219.85 131.95 219.2 135.85 218.65 139.2 218.6 140.3 218.55 141.5 218.85 143.45 219.4 147.15 220.4 149.45 221.35 151.75 223.15 153.55 224.25 154.65 225.15 155.05 226 155.45 228.6 156.1 229.6 156.35 229.8 156.6 229.95 156.8 229.95 157.8 229.95 159.2 228.5 166.25 226.9 173.75 226.05 178.35 225.05 183.45 222.55 190.7 220.05 198.05 219.3 198.05 219 198.05 216.5 196.1 214.25 194.35 213.4 193.9 212.6 193.45 211.8 193.65 211.05 193.8 207.8 197.05
L 200.05 204.6
Q 195.5 209.05 195 209.05 194.45 209.05 193 207.7
L 189.65 205.05
Q 187.95 203.85 184.25 200.25 181.6 197.75 180.9 197.25 180.2 196.75 179.15 196.75 178.2 196.75 177.55 197.1 176.9 197.45 175.1 198.95 173.05 200.65 169.9 202.6 166.75 204.5 166 204.5 165.5 204.5 165.5 203.9 165.5 203.3 166.05 199.95 167 194.4 166.6 187.1 166.4 183.7 167 173.75 167.6 163.8 168.1 163 168.25 162.7 169.5 162.4 173.55 161.7 179 156.4 180.6 154.85 182.1 152.1 183.65 149.3 184.3 146.7 184.75 145 184.7 141.7 184.65 138.4 184.1 136.6 183.6 134.75 182.1 131.35 180.6 128 179.75 126.85 177.3 123.4 170.8 120.35 168.55 119.25 167.7 118.75 166.9 118.2 166.8 117.7 166.5 116.75 166.6 106.2 166.65 95.75 166.95 91.75 167.35 86.55 168.15 84.2 168.95 81.85 171.2 79.5 174.5 76.05 178.75 74.75 180.25 74.3 181.3 74.2 182.35 74.15 185.05 74.25 188.8 74.45 191.1 75 193.35 75.5 197.55 77.2 202 79 202.15 78.85 202.65 78.25 199 73.75
M 215.45 73
Q 215.45 72.65 219 73 222.55 73.3 224 73.75 226.15 74.4 227.45 75.25 228.65 76 231.4 78.35 237.4 83.5 240.75 88.6 244.1 93.7 245.3 99.4 245.7 101.45 247.4 106.15 249 110.75 249 110.9 249 111.35 247.75 111.75 246.6 112.15 242.9 113 239.9 113.7 238.25 114.3 236.7 114.85 234.2 116.05 230.3 118.05 230 118.05 229.65 118.05 229.4 117.35 229.2 116.75 228.35 113.2 226.3 103.95 222.3 93 220.75 88.65 218.15 81.05 215.45 73.25 215.45 73
M 227.55 123.35
Q 230.65 120.25 233.35 118.5 234.85 117.55 238.45 116.2 242.15 114.85 244.6 114.35 248.65 113.5 253.1 113.95 257.5 114.45 260.8 116.1 266.5 118.9 268.6 124.25 270.65 129.6 268.55 135.7 267.45 138.95 265.2 141.95 263.25 144.6 261.05 146.25 260.7 146.3 258.15 147.75 256.7 148.6 254.9 148.55 253.05 148.5 253.4 147.65 253.5 147.25 253.55 146.8 253.75 146 254.15 145.35 255.45 143.05 255.85 140.15 256.25 137.2 255.45 135.15 255.15 134.3 253.9 132.4 252.6 130.4 252 129.9 249.9 128 246.1 128.55 242.25 129.15 239.3 131.8 236.7 134.15 236 138.95 235.3 143.7 237.05 147.25 237.5 148.15 238.1 149.55 238.75 150.65 240.25 151.7 241.4 152.7 242.7 153.5 242.85 154.05 241.7 154.8 241.25 155 240 155.35
L 237.7 155.6
Q 234.25 155.65 231.85 155.25 230.35 155 227.25 154.15 224.9 152.75 223.55 150.85 221.95 148.7 221.2 145.4 219.75 138.75 221.9 132.55 222.75 129.95 223.5 128.3 224.45 126.4 227.55 123.35
M 239.9 147.55
Q 238.95 145.75 238.75 142.4 238.55 138.75 239.65 136.45 240.75 134.15 243.55 132.25 246 130.65 247.8 131 249.65 131.3 251.6 133.75 252.7 135.15 253.1 136.4 253.5 137.65 253.5 139.75 253.5 141.3 253.2 142.05 252.95 142.8 251.7 144.65 250.7 146.15 250.4 147.6 250.3 148.5 250.4 148.85 250.5 149.25 251.05 149.8 251.55 150.35 252.1 150.5 252.6 150.6 254.15 150.6 256.4 150.6 256.4 150.85
L 256.9 154
Q 257.4 156.75 257.7 163.6 257.9 167.85 257.9 169.25 257.85 170.75 257.6 171.4 257.2 172.25 254.9 175.75 252.55 179.3 252.2 179.5 251.9 179.7 251.15 178.85 250.35 178.05 249.75 178.05 248 178.05 244.95 182.3 242.65 185.5 241.8 186.45 237.55 191.55 230.8 201.35 228.65 204.5 228.4 204.5 228.05 204.5 226.75 203.65 225.45 202.8 225.35 202.5 225.2 202.15 227.75 194.5
L 230.8 185.15
Q 231.8 181.6 232.2 165.45
L 232.35 157.25 236.9 157.05
Q 241.35 156.85 243.05 156.35 244.7 155.85 245.4 154.55 245.85 153.7 245.45 153 245.05 152.3 243.4 151.15 240.85 149.35 239.9 147.55
M 163.15 108.75
Q 163.7 115.05 163.7 115.15 163.9 117.05 163.5 117.35 163.1 117.65 160.9 117.15 158.6 116.65 154.85 116.6 151.1 116.55 148.8 116.95 146.55 117.35 143.3 118.85 140 120.3 137.3 122.15 134.6 123.9 133.5 124.5 132 125.25 129.75 127.5 128.05 129.2 126.8 131.3 125.65 133.35 123.7 137.9 122.3 141.15 122.25 144.15 122.15 147.15 123.4 150.8 124.4 153.8 125.7 155.85 126.95 157.9 128.95 159.75 134.9 165.25 142.75 165.7 148.7 166 147.65 163.8 147.2 162.7 146.8 162.2 146.5 161.75 145.2 160.3 143.4 157.75 143 156.95 142.25 155.45 142 152.95 141.9 151.2 142 150.4 142.05 149.55 142.55 148.2 143.55 145.3 146.05 142.8 148.55 140.3 151.35 139.3 154.4 138.25 157.6 138.4 160.8 138.6 163.45 139.9 164.7 141.15 165.1 142.55 165.35 143.4 166.1 149.05
L 165.3 155.9 164.7 157.55
Q 164.2 158.5 163.25 159.6
L 162.2 162.1
Q 161.75 162.9 162.5 163.45 163.2 163.95 164.55 164
L 165.9 164 165.8 165.45
Q 165.7 167.15 164.75 171.6 163.7 177 163.15 181.1 162.5 185.8 159.4 200.6 159.2 201.5 158.65 200.95 158.15 200.4 156.85 198.05 154.6 193.7 150.85 189.5 149.3 187.8 148.2 188 147.1 188.15 143.25 190.6
L 137.8 194.2
Q 136.5 195.15 136.05 195.15 135.55 195.15 131.7 191.35 127.85 187.55 126.4 185.65 124.7 183.4 120.65 177.25 116.65 171.2 115.5 169.8 114.35 168.35 113.4 168.35 112.45 168.35 111.35 169.45 110.45 170.35 110.3 170.95 110.2 171.55 110.55 172.9 110.9 173.9 111.35 179
L 112.35 187.55
Q 112.8 190.75 114.25 196.85 115.75 202.9 116.75 205.8 117.8 209 118.45 212.1 119.9 219 120.95 220.05 121.75 220.85 123.6 220.5 125.4 220.15 127.55 218.8 130.15 217.25 133.7 216 138.25 214.25 140.25 213.4 142.9 212.25 143.55 212.25 143.95 212.25 147.65 216.45 151.35 220.7 152.75 222.8
L 153.85 224.45 152.7 228.55
Q 150.55 235.95 149.4 237.75 148.85 238.5 145.75 245.95
L 142.65 253.35 141.1 254.15
Q 139.6 255 137.65 257.3 135.6 259.8 134.2 260.6 132.8 261.45 130.25 261.65 127.25 261.95 126.05 262.25 123.35 262.85 117.3 262.4 111.2 261.95 111.2 261.15 111.2 260.85 113.45 260 115.65 259.1 117.95 258.5 120.5 257.85 122.05 257.05 123.6 256.3 127.25 253.85 131.6 250.95 137.15 245.25 142.65 239.55 144.4 236.15 146.65 231.8 147.5 229.1 147.75 228.2 147.05 228.55 146.3 228.95 143.8 230.95 137.75 235.8 134.3 237.5 125.55 241.85 112.5 232.6 108.9 230 104 226.05 99.05 222.05 95.9 219.15 90.95 214.6 88.8 211.5 86.6 208.3 83.4 200.95 80.75 194.95 79.55 191.8 78.35 188.75 77.6 185.8 76.75 182.1 76.2 180.8 75.7 179.6 75.7 178.6 75.7 177.3 75.1 174.45 74.25 170.3 74 166.35 73.75 162.5 73.9 155.85 74 147.9 74.85 142.25 75.6 137.25 76.95 131.65 78.35 126.05 79.8 122
L 82.65 113.85
Q 84.05 109.8 86.55 104.65 89.05 99.45 91.4 95.75 96.3 88 104.9 81.25 113.45 74.55 120.25 73.1 123.3 72.45 127.75 72.45 132.2 72.4 134.95 72.95 137.2 73.45 140.8 75.15 144.45 76.9 146.2 78.3 149 80.5 149.35 80.5 149.75 80.5 148.7 78.25 146.7 74.2 140.65 68.8 136.85 65.35 134.75 64.05 132.7 62.8 126.85 60.15 125.85 59.65 122.3 58.85 118.4 57.95 117.9 57.7 117.4 57.45 119.3 57.25 122.85 56.9 130 56.85 137.15 56.75 139.75 57 142.55 57.3 145.25 57.9 147.9 58.5 148.45 58.95 148.9 59.35 149.1 60.5 149.3 61.65 150.9 63.15 152.5 64.65 153.55 67.05 154.65 69.4 156.65 75.7 159.05 83.35 159.9 88.3
L 161.35 95.95
Q 162.75 102.6 163.15 108.75
M 176.6 128.3
Q 179.9 132.15 181.3 136.35 182.25 139 182.35 142.45 182.5 145.9 181.75 147.85 181.05 149.6 179.8 151.75 178.5 153.9 177.95 154.2 177.35 154.5 176.5 155.9 174.65 158.9 172.85 159.2 171.3 159.6 168.85 160.85 165.35 162.55 164.85 162.15 164.3 161.8 166.05 158.85 168.05 155.45 168.75 153.6 169.4 151.75 169.45 149.5 169.45 145.1 167.1 141.45 164.75 137.75 161 136.3 157.85 135.1 153.2 136.25 143.8 138.55 140.5 145.65 139.65 147.45 139.55 147.85 139.3 148.75 139.4 150.7 139.5 152.45 139.9 153.6 140.1 154.25 141 156.15 142.15 158.45 144.25 160.9 146.4 163.25 146.4 163.7 146.4 164.15 145.75 164.5 145.2 164.8 144.35 164.75 143.55 164.7 140.9 164.3 135.1 163.35 130.55 158.7 125.95 154.05 124.65 147.75 123.6 142.85 125.3 137.95 127.05 133 131 129.65
L 135.55 125.7
Q 140.2 121.6 145.1 120.45
L 150.9 119.15
Q 155.75 118.05 159.6 118.75 163.45 119.4 169.45 122.5 173.3 124.45 176.6 128.3
M 279.1 152.95
Q 279.7 152.25 280.55 152.25 281.15 152.25 281.25 152.5 281.3 152.8 281.15 154.4 280.9 156.45 279.35 165.45 277.75 174.65 277.15 177.1 276.8 178.55 276.55 179.05 276.3 179.55 275.9 179.6 275.3 179.7 272.25 178.2 269.3 176.65 269 176.95 268.65 177.35 266.4 181.15 264.1 184.85 262.55 187.55 255.7 199.5 255.1 199.85 254.7 200.05 253.35 199.05 252 198.05 251.2 198.1 250.35 198.1 249.65 199.1
L 244.95 204.85
Q 241.4 209.05 238.6 212.9 236.3 216.1 233.85 218.8
L 231.1 221.95
Q 230.55 222.5 229.35 223.3 228.6 223.45 228.55 223.45 228.05 223.45 226.85 222.8 226.5 222.6 223.55 220.75 219.15 217.7 217.45 216.55 214.6 214.6 212.65 213.75
L 211.3 213.15 206.2 218.4
Q 200.7 224 198.6 225.65 196.15 227.75 195.65 227.75 194.7 227.75 185.55 220.7 181.05 217.3 178.75 216.05
L 176.8 215.05 170.1 218.35
Q 163.55 221.55 160.55 223.6 157.7 225.55 157.15 225.45 156.7 225.35 155.95 224.4 155.1 223.45 152.9 220.3 146.95 211.85 145.35 210.05 144.7 209.35 144.4 209.25 144.1 209.15 143.25 209.5 141 210.3 135.4 212.8 129.7 215.3 128.3 216.1 124.25 218.45 123.25 218.65 122.25 218.8 121.75 217.15 119.35 210 114.4 182.55 113.85 179.6 113.6 176.15 113.3 172.65 113.5 172 113.6 171.65 113.8 171.8 113.95 171.95 114.35 172.75 115.05 174.2 115.55 175.55 116.1 176.95 118.4 179.75
L 124.35 187.1
Q 128.7 192.4 130.05 193.8 131.5 195.3 133.65 197 135.8 198.7 136.3 198.7 136.6 198.7 139.25 196.8 141.85 194.95 144 193.2 146.2 191.4 147.15 190.8
L 148.1 190.2 149.05 191.3
Q 149.95 192.35 150.95 194.3 151.65 195.7 153.1 198.15 154.3 200 155.9 203.05 157.25 205.55 158.8 207.6 160.3 209.65 160.8 209.65 161.6 209.65 165.75 207.45 169.9 205.25 173.35 203 177.4 200.4 178.8 200 180.15 199.6 181.05 200.85 183.05 203.65 189.3 208.55 194.1 212.25 194.5 212.25 194.95 212.25 200.6 206.6 205.15 202.05 208.45 199.05 211.8 196.1 212.4 196.1 213.2 196.1 217.35 199.6 219.25 201.25 223.45 204.1 227.65 206.95 228.55 207.2 229.2 207.4 230.2 206.3 231.1 205.2 233.75 201.3 236.15 197.65 239.4 193.55 242.75 189.2 243.5 187.7 244.05 186.5 246.35 183.6 248.65 180.65 249 180.65 249.35 180.65 250.35 182.75 251.45 184.85 251.7 184.75 252.15 184.5 254.1 181.25
L 259.65 172.55
Q 263.15 167.25 263.95 165.6 264.95 163.6 265.6 163.5 266.25 163.4 269.05 164.8 272.4 166.45 272.55 166.2 272.9 165.9 274.3 162.4 277.7 154.5 279.1 152.95
M 86.3 72.9
Q 87 72.65 87 73
L 85.75 76.3
Q 84.5 79.5 82.9 84.3 81.2 89.35 80.45 92.05 78.7 98.45 77 104.15 75.25 109.95 74.8 110.75 73.95 112.4 72.45 119.1 70.9 125.9 69.85 132.65 69.3 135.95 69.2 139.3 69.1 142.85 69.1 156.45 69.1 170.55 69.2 173.45 69.3 176.55 69.8 178.85 70.5 181.9 70.85 187.75 71.1 191.75 71.75 198.1 72.4 204.5 72.65 205.7 72.85 206.55 73.75 214.3 75.15 225.75 76.55 232.45 77.95 239.15 80.55 246.5
L 81.85 250.6
Q 81.85 250.95 81.55 250.95 81.25 250.95 80.95 250.55 80.45 249.9 79.35 247.75 76.5 242.5 73.8 232.05 71.15 221.65 69.55 209.85 69.2 206.95 68.9 206.55 68.65 206.25 66.75 206.05 65.6 206 64.85 205.7 64.15 205.45 62.95 204.6 60.8 203.05 58.9 200.4 57 197.75 54.45 192.65 53.15 190.15 51.45 185.35 49.7 180.55 49.1 177.85 48.3 174.5 47.6 168.9 46.9 163.3 46.9 160.3 46.9 155.45 48.25 148.1 49.6 140.8 51.5 135.5 53.65 129.4 55.5 125.4 57.35 121.4 60.05 116.8 63.1 111.6 67.15 107.85 71.15 104.15 73.65 104.15 74.6 104.15 75 103.75 75.45 103.15 75.75 101.5 76.05 99.85 75.95 98.65 75.8 97.65 76.05 96.6 76.25 95.55 77.15 92.95 78.7 88.45 81.5 81.75 84.3 75 85.25 73.65 85.55 73.15 86.3 72.9
M 159.3 230.8
Q 159.35 227.75 159.95 227 160.55 226.25 164.8 223.95 171 220.6 172.9 219.45
L 176.05 217.7 177.25 218.4
Q 181.9 221.2 190.2 227.5 194.85 230.95 195.3 230.95 195.8 230.95 196.5 230.6 197.15 230.25 202.1 225.5 207.1 220.65 209.1 218.45 212.45 214.7 212.3 217.2 212.2 218.35 210.45 223.65 208.6 229.25 208.35 230.95 208.05 232.45 206.1 236.6 204.1 240.8 202.2 243.9 200.3 246.95 199.25 249.15 198 251.75 197 253.1 195.6 255 192.25 257.45 188.85 259.85 185.9 261 184.55 261.55 182.85 261.7 181.3 261.8 173.65 261.9 163.35 261.95 163.65 261.65 164 261.35 168.8 260.05 175.25 258.35 177.25 257.45 179.2 256.5 183.75 253.1 189.4 248.85 191.8 246.35 194.15 243.85 198.05 238.05 201.75 232.6 204.35 228.25 206.9 223.95 206.65 223.65 206.45 223.55 205.55 224.75 204.6 226.05 200.35 230.6 196.1 235.15 192.55 238.7 188.95 242.3 186.65 243.65 184.3 245 180.35 245.8 176.45 246.6 172 246.35 167.55 246.1 165.4 245 162.95 243.75 161.1 239.4 159.25 235.1 159.3 230.8
M 244.75 210.2
Q 246.9 207.9 249.35 204.65 251.25 202.15 251.75 201.65 252.25 201.2 252.65 201.55 253 201.9 251.25 206.2 249.1 211.7 248.5 213.65 246.75 218.7 241.65 224.05 240.2 225.5 238.85 226.4 237.45 227.35 233.85 229.35 229.15 231.9 227.55 232.3 225.9 232.75 223.35 232.1 221.6 231.65 220.55 230.75 219.55 229.85 218.65 227.95 216.75 224.05 217.8 221.5 218.35 220.3 218.7 220.3 219.15 220.3 220.6 221.15 222.2 222.05 223.85 223.4 226.95 225.3 227.6 225.6 228.95 226.2 229.7 225.8 231.7 224.7 235.05 221.45 238.4 218.2 240.65 215.15 242.65 212.55 244.75 210.2 Z"/>
</g>

<g id="Parts_Heads_Jack_O_Lantern_jackoShading_0_Layer1_0_FILL">
<path fill="#000000" fill-opacity="0.14901960784313725" stroke="none" d="
M 249.3 63.75
Q 247.5 62.95 244.7 61.5 241.8 60.05 240.8 59.4 239.6 58.65 237.4 58.2 235.2 57.75 232.5 56.75 230 55.75 227.8 55.15 225.5 54.4 220 53.25 214.6 52.15 212.4 51.9 209.65 51.6 205.5 49.85 196.4 46.05 191.35 45.9 188.1 45.8 185.7 45.4 182.95 45.05 176.35 45.15
L 169.35 45.35 166.6 42.65
Q 163.8 37.75 162.7 36.35 159.2 31.95 157.6 29.7 156.45 28.05 152.9 22.55 150.55 18.9 148.75 16.9
L 141.8 8.95
Q 134.45 0.6 133.45 0.6 133.1 0.6 131.85 2.3 128.9 6.3 124.35 8.65 121.8 10 121.6 10.4 121.5 10.85 123.6 15 127.25 21.95 128.45 24.5 129.55 26.85 130.4 29.45 131.65 33.55 132.65 38.5
L 134.1 45.25
Q 134.5 46.5 134.2 46.75 133.95 47 126 47.35 116.65 47.8 113.25 48.35 109.7 48.9 106.25 50.55 99.05 53.95 96.6 55.35 89.1 59.85 86.8 61.2 83.35 63.15 79.5 64.2 68.65 67.15 64.65 69.2 60.7 71.25 54.3 77.15 52.45 78.85 50.2 80.1 48.95 80.75 46.85 81.75 43.4 83.65 34 91.3 31.15 93.6 27.15 97.7 23.15 101.8 21.8 103.8 19.95 106.55 15.35 116.5 10.75 126.4 8.3 132.9 6.5 137.65 4.75 144.1 3 150.55 2.3 154.85 1.25 161.2 1.35 167.45 1.45 173.6 2.75 181.45 4.35 191.2 5.8 195 6.55 197 9.15 202.25 11.75 207.45 12.7 208.85 13.8 210.35 15.75 214.3 18.95 220.45 22.65 225.3 26.4 230.15 32.75 236.45 38.4 242.1 43.6 245.8 46.75 248.05 53.45 251.95 54.3 252.45 56.05 253.25 57.5 253.95 57.95 254.25 59.1 254.95 62.25 255.85 63.55 256.2 67 258.05 70.5 259.5 71.8 260 74.05 260.8 77.2 261.6
L 82.8 262.95
Q 83.1 263.05 83.85 263.4 84.7 263.7 85.6 263.8 88.65 264.2 93.4 266.45 102.1 270.45 108.1 270.65 109.5 270.65 111.8 271.35 113 271.45 116.55 271.45
L 119.35 271.45
Q 122.1 271.55 126.95 271.55 133.3 271.55 136.7 271.2 142.9 270.6 144.65 270.55 147.25 270.45 151.4 270.95 154.65 271.2 158.3 271.25 161.1 271.3 171 271.3 181.3 271.2 184.85 270.7 186.65 270.4 190.6 269
L 194.6 267.4
Q 196.85 266.6 200.2 264.75 203.35 263 208.2 260.9 213 258.75 214.85 258.35 221.85 256.55 222.65 256.35 230.55 254.25 234.4 252.35 238.35 250.35 243.5 245.8 246.7 242.95 247.9 242 249.65 240.65 251.85 239.55 253.4 238.75 257.3 235.85 258.35 235 265.85 229.25 268.65 227.05 271.95 224.1 276.05 220.45 277.6 218.45 282 212.8 286.1 204 294.1 186.6 297.55 172.95 299.4 165.55 299.7 158.2 299.95 150.65 298.7 140.8 297.5 131.55 296.7 128.5 295.6 124.15 291.9 115.15 286.05 101.1 281.15 93.7 275.75 85.7 265.4 76.3 260.55 71.9 257.2 69.4 254.15 67.2 252.35 65.7 250.55 64.3 249.3 63.75
M 244.35 74.5
Q 246.9 76.55 248.3 80.6 249.05 82.65 249.15 83 249.4 83.9 249.8 86.2 250.55 89.35 250.8 91.25 251.25 93.4 253.25 93.4 255.15 93.35 257.5 91.55 258.15 91 258.85 89.8 259.6 88.55 259.6 87.9 259.6 87.45 260.05 87.1 260.4 86.8 261.05 87.15 261.75 87.55 264.15 89.45 266 90.95 266.95 91.45 268.5 92.15 272.65 98.05 276.8 104 279.3 109.15 281.7 114.1 284.2 120.3 286.75 126.5 287 128.2 287.25 129.95 287.95 131.75 289.25 135 290.45 144.6 291.65 154.4 290.95 161.5 290.2 168.6 287 178.85 284.5 186.85 280.2 196.7 275.9 206.55 273 210.95 271.25 213.55 267.95 216.95 264.65 220.3 264.25 219.9 264.1 219.75 264.65 216.6 265.1 213.25 264.95 211.8 264.75 210 263.95 207.8 263.7 207.1 262.6 204.65 261.9 204.65 261.95 204.45 262 204.2 261.8 204.1 261 205.3 259.6 209.25 257.8 214.3 257.05 215.95 254.2 222.85 250.45 227.6 246.7 232.35 240.95 236.45 239.05 237.75 238.25 238.95 237.55 240.15 235.45 241.8 233.4 243.45 231.25 244.5 224.1 248.15 216.2 248.05
L 214.25 248.05 212.7 246.25
Q 211.3 244.65 210.75 243.3 210.2 241.85 210.05 239.55
L 209.75 236.85
Q 209.55 236.2 208.65 237.15 207.8 238.1 205.7 241.25
L 202.2 246.3
Q 201.7 246.8 199.9 250.3 198.45 253.15 196.95 254.85 195.4 256.55 192.6 258.45 187.8 261.7 183.65 262.25 181.35 262.6 172.75 262.6 164.15 262.6 162.75 262.3
L 159.9 261.7
Q 158.95 261.55 158.5 261.25 158.05 260.9 157.4 259.85 154.75 256.05 153.6 252.25 153 250.45 152.95 245.45 152.7 235.35 150.7 238.55 150.25 239.15 147.15 246.55
L 144.2 253.7 142.45 254.55
Q 140.65 255.45 138.65 257.9 136.65 260.3 135.2 261.15 133.7 262 130.95 262.35 128.1 262.7 122.1 262.75 116.05 262.85 114.55 262.55 111 262 111.3 261.1
L 109.7 259.9
Q 107.55 258.4 105.95 256.25 103.55 253.2 102 251.5 99.25 248.5 96.1 245.1 89.95 236.75 88.35 234.45 86.3 231.6 82.8 226.3 80.3 222.6 79.5 221.7 78.75 220.8 78.1 220.7 76.75 220.6 76.5 221.15 76.25 221.7 76.6 224.1 76.95 226.75 77.8 230.95
L 78.75 235.8
Q 79.05 238.2 81.3 244.75 82.3 247.7 82.8 249.85 83.3 251.95 82.95 251.95
L 81.75 251.4
Q 80.85 251 76.85 249.7 72.8 248.4 72.3 248.4 71.85 248.4 69.85 247.4 67.8 246.45 65.75 245.2 64.25 244.3 63.55 243.65 62.85 242.95 61.85 241.35 60.4 239.1 58.75 235.95 57.05 232.8 56.5 231.3 56 229.95 53.1 226.3 51.45 223.7 48.2 218.85 46.75 216.65 45.85 214.8 45.35 213.8 43.35 211.1 41.3 208.25 40.95 207.65 39.8 205.65 36.85 199.8 33.95 194 33.25 192.35 32.45 190.5 31.35 185.45 30.25 180.45 29.45 175.3 28.4 168.15 28.35 162.25 28.35 156.3 29.35 147.55 30 141.85 30.25 140.45 30.55 139.05 31.2 138 32.1 136.55 32.1 136.3 32.1 135.8 33.55 133.25 35 130.75 36.35 128.9 41.7 121.9 43.05 120.1 44.9 117.6 45.9 115.55 46.45 114.5 47.85 112.75 49.05 111.2 49.15 110.85 50.35 106.75 51.35 105 52.05 103.9 52.95 101.65 54.1 98.8 54.25 98.55 55.55 95.95 57.1 94.05 58.65 92.15 64.25 86.1 68 82.1 71.9 78.9 74.85 76.5 76.3 75.75 77.7 74.95 78.05 74.8 80.05 74 83.9 73.5
L 87.55 72.95
Q 88.6 72.75 88.6 73.1 88.6 73.35 87.25 76.6 86.05 79.6 84.1 85.4 82.15 91.3 82.15 91.9 82.15 92.8 82.65 92.35 83.15 91.9 84.35 89.9 87.7 84.35 90.15 83.05 91.05 82.6 94 80.4 96.9 78.2 99.6 75.95 101.7 74.3 103.55 71.5 105.25 68.95 106.55 67.75 107.85 66.55 111.5 64.25 117.65 60.35 118.6 59.5 119.55 58.7 117.85 58.65 116.55 58.55 116 58.35 115.45 58.2 115.4 58.15 115.4 58.1 115.85 57.9 117.1 57.4 130.2 56.9 137.4 56.6 143.3 57.45 149.15 58.25 149.75 59.65 150.75 61.7 151.25 62.45 151.75 63.2 152.6 63.85 155.35 65.85 159.6 60.6
L 165.05 54.6 167.55 54.3
Q 170 54.05 170.95 53.65 171.9 53.25 177.5 53.15 183.05 53 185.2 53.35 190.4 54.15 194.7 55.75 199 57.3 201.15 59.2 203.8 61.5 205.25 65.4 207.7 71.65 209.6 72.25 212.25 73.05 214.75 70.75 217.25 68.45 216.4 66 216.05 65 216.1 64.7 216.1 64.45 216.65 64.45 217.5 64.45 224.2 66.5 230.8 68.45 235.1 70 241.85 72.5 244.35 74.5 Z"/>
</g>

<g id="Parts_Heads_Jack_O_Lantern_jackoShading_0_Layer0_0_FILL">
<path fill="#090604" stroke="none" d="
M 247.4 62.25
Q 246.45 61.75 243.9 60.7 241.6 59.7 240.85 59.3 237.75 57.65 236.55 57.4 234.2 57.05 229.2 55.1 227.1 54.25 224.15 53.7
L 218.2 52.35
Q 213.15 51.25 211.75 51.1 209.95 50.9 208.5 50.45 207.15 50 204.5 48.9 197.65 46 193.1 45.2 188.25 44.35 177.45 44.3 174.85 44.3 171.6 44.55
L 168.95 44.75 167 41.65
Q 164.65 38.05 162.8 35.6 160.95 33.25 157.9 28.95 153.8 23.05 151.8 20.25 148.35 15.45 145.5 12.3 144.25 10.85 141.7 8.3 139.2 5.8 138.55 5.05 136.75 3 134.7 1.4 132.9 0 132.45 0 132.35 0 131.75 0.65 131.2 1.25 130.8 1.8 129.65 3.45 127.45 5.25 125.35 6.9 123.2 8.05 120.4 9.55 120.4 9.8 120.4 9.95 121.05 11.65 121.85 13.6 122.6 15.05 126.2 21.9 127.5 24.7 128.6 27.1 129.4 29.75 130.4 32.8 131.6 38.5 132.1 41.15 132.7 44.5 133.05 45.95 132.65 46.35 132.55 46.45 129.9 46.55 125.2 46.75 123.1 46.85 113.45 47.35 111.5 47.75 108 48.6 105.6 49.75 100.9 52 99.95 52.45 97.5 53.55 95.25 54.8 79.1 61.9 74.7 63.55 65.35 66.6 61.8 68.55 58.25 70.55 52.5 75.95 48.85 79.35 45.05 81.65 41.3 83.85 35.45 88.65 29.95 93.2 26.3 96.95 21.6 101.85 20.4 103.45 18.35 106.3 15.4 112.45 10.05 123.75 7.45 130.95 5.75 135.65 3.55 143.95 1.95 149.9 1.3 153.35 0.55 157.25 0.2 161.95 -0.15 166.55 0.15 170.75 0.45 175.05 1.65 182.15 3.05 190.6 4.9 195.35 5.6 197.2 8.15 202.3 10.65 207.45 11.3 208.35 12.25 209.5 14.6 214.05 18.35 221.35 23.5 227.8 25.6 230.45 31.9 236.7 38.2 242.9 41.35 245.4 45.7 248.9 52 252.75 58.25 256.6 60.85 257.3 63.85 258.15 68.35 260.1 69.95 260.85 76.25 262.45 82.4 264.05 85.45 264.55 87.25 264.85 88.65 265.35 90.05 265.85 92.5 267 101.75 271.25 106.8 271.35 108.75 271.4 111.55 271.95 112.05 272.05 115.4 272.35
L 121.25 272.6
Q 122.9 272.8 127.6 272.6 132.1 272.45 136.05 272 141.65 271.45 144.2 271.4 147.2 271.35 150.9 271.8 153.1 272.1 156.75 272.15 158.55 272.2 167.35 272.2 176.95 272.2 181.45 271.9 185.75 271.6 188.05 270.85 190.65 270 194.55 268.3 198.5 266.6 200.3 265.6 201.85 264.75 208.25 261.7 211.6 260.15 213.65 259.5 215.2 258.95 219.3 258 229.85 255.5 234.2 253.4 238.4 251.35 244.9 245.65 248.5 242.45 251.4 240.95 254.05 239.6 255.75 238.45 257.95 237 263.55 232.85 268.55 229.15 273.05 224.65 277.35 220.35 279.65 217 285.5 208.3 291.6 192.5 297.7 176.65 299.4 165.8 300.15 161.3 300.15 154.95 300.15 150.65 299.85 147.6 299.7 145.55 298.8 139.2 297.7 131.4 296.75 127.85 295.7 123.85 292.35 115.8 287.8 104.8 284.25 98.65 280.75 92.6 275.25 86.15 271.8 82.15 265.65 76.55 259.35 70.75 255.2 67.85 254.25 67.2 251.05 64.45 249.65 63.4 247.4 62.25
M 246.65 79.25
Q 247.2 80.8 248.4 85.7 248.4 85.8 249.4 90.5 250.05 93.75 250.15 95.5 249.8 97.55 251.95 95.85 252.45 95.45 255.8 92.25
L 259.75 87.35
Q 260.75 87.6 261.15 87.9 261.65 88.2 263.3 89.7 266.1 92 267 92.45 268.1 93.05 270.35 95.55 272.9 98.4 274.9 101.5 278.7 107.5 281.75 114.95
L 284.5 121.6
Q 286 125.05 286.6 127.75 287.1 130.35 287.55 131.55 288.8 135.2 289.85 143.05 290.95 151.3 290.7 158 290.45 164.65 288.7 171.45 286.4 180.25 281.9 191.45 277.4 202.65 273.4 209.3 271.3 212.8 268.25 216 262.95 221.65 262.3 221.15 262.05 221 262.6 217.65 263.4 213.35 263.3 212.05 263.2 209.75 262.4 205.65 261.2 202.7 260.55 204.05 259.65 207 258.65 209 256.85 214 255.1 216.85 253.6 221.35 252.1 223.35 249 228.05 247.5 229.9 245.15 232.8 242.1 235.1 239.65 236.95 236.9 239.8 234.5 242.25 232.5 243.55 230.55 244.85 227.45 246 224.4 247.15 221.55 247.65 218.7 248.15 214.4 248.3
L 211.4 248.35 209.85 247.1
Q 209.45 246.25 208.7 240.05 208.2 236.25 206.5 239.05 206.15 239.45 203.15 244.15 200.05 249.05 199.45 250.2 196.15 256.85 187.8 260.95 185.5 262.1 182.9 262.35 180.25 262.65 171.95 262.7 165.55 262.75 162.9 262.65 160.3 262.55 157.85 262.15 155.4 261.8 154.5 260.95 153.95 260.1 153.6 259.8 153.45 259.65 152.6 257.75 151.75 255.8 151.65 255.35 151.3 251.6 150.95 248.75 150.25 243.3 149.35 242.9 147.85 243.75 144.55 249.3 140.8 255.6 140.3 256.15 137.2 259.6 135.05 261 133.05 262.25 131 262.25 129.15 262.35 127.5 262.75 124.85 263.4 119.15 263.2 113.35 262.95 110.75 262.1
L 106.4 260.8
Q 104.35 260.15 102.7 259.05 101.7 258.35 99.95 256.75 97.8 254.85 93 249.1 91.2 247.7 84.5 236.15 78.85 226.4 78.35 228.55 78.3 232.25 80.15 240.55 82.05 249.1 82.05 249.8 82.1 250.35 80.95 250.85 80.05 251.3 79.65 251.3 79.1 251.3 73.7 249.5 68.2 247.7 66.7 247
L 61.35 244.75
Q 58.2 243.6 56.6 242.8 53.8 241.4 52.25 239.05 51.4 237.75 50.35 233.8 49.25 229.5 48.9 228.3 47.2 222.2 42.95 216.3 41.95 214.9 41.25 219.4 40.9 221.85 40.25 226.4 40.15 226.85 39.2 227.2 38.3 227.45 38.15 227.5 37.8 227.6 37.25 227.1 36.15 226 34.85 224.8 33.25 223.3 32.5 223.1 31.95 222.9 29.7 220 27.45 217.1 25.55 214.05 21.65 207.75 17.05 195.65 12.2 182.7 10.75 174.25 9.3 165.85 10.4 157.65 11.75 148 17.1 132.85 22.45 117.65 26.85 111.05 28.35 108.8 31.8 105.1 35.25 101.35 35.55 101.65 35.7 101.8 36.7 105.45 39.3 111.1 40.4 113.85 41.15 115 41.5 114.95 41.85 114.9 42.75 113.55 43.65 111.65 44.55 107.75 46.2 100.55 48.8 95.5 51.95 89.4 56.9 85.65 58.65 84.45 60.15 82.5 63.9 77.2 73.1 74.15 75.85 73.2 81.9 72.5 86.05 72 87 72 87.95 72 88.15 72.4 90.5 72.7 91.6 76.3 91.95 77.65 92.3 77.75 92.8 77.9 93.95 76.3 95.5 73.55 97.3 70.3 99.2 67.5 101.6 64.6 104.85 61.6 107.3 60.05 109.65 58.6 113.15 57.25 115.1 56.7 122.35 56.4
L 131.4 55.95
Q 133.2 55.8 137.65 56.1 142.05 56.45 144.1 56.85 146.8 57.4 147.6 57.85 148.25 58.2 148.4 59 149.3 60.1 149.7 60.65 150.15 61.35 150.8 62.7 152.25 64.8 153.3 67 153.9 68.3 155 70.85 155.6 72.15 155.85 71.55 156 71.15 156.15 69.05 156.65 63.65 158.05 62.15 159.15 60.2 160.7 58.25 162.65 56.45 167.3 55.1 168.7 54.95 172.55 54.2 179.25 53.8 183 54.1 190.9 55.15 196.35 57.75 199.65 59.35 201.1 60.85 202.6 62.4 204.4 66 205.4 68.05 208.15 73.1 210.45 77.4 210.95 78.6 212.95 83.25 213.55 80.3 213.95 75.85 214.3 74.65 214.55 73.25 215.25 69.85 215.8 67.2 215.9 66.1 216.25 64.75 216.6 64.55 216.95 64.35 218.05 64.65 228.85 67.25 233.7 69 241.25 71.7 243.15 73.2 245.1 74.75 246.65 79.25 Z"/>
</g>

<g id="Parts_Heads_headColorMC_43_Layer1_0_FILL">
<path fill="#F68E15" stroke="none" d="
M 82.25 48.1
Q 81.6 48.2 81 48.15 80.4 48.15 79.3 48 75.25 47.45 73.2 47.95 72 48.2 70.85 48.35 69.8 48.5 67.15 49.25
L 64.55 50 63.25 48.9
Q 61.8 47.65 60.9 46.95
L 58.3 44.8
Q 55.25 42.3 53.1 40.9
L 49.5 38.5
Q 45.65 35.95 45.3 36.05 45.15 36.05 44.8 36.9 44.05 38.8 42.5 40.25 41.65 41.05 41.6 41.25 41.55 41.4 42.85 42.85 45.15 45.4 45.8 46.1 46.55 47 47.1 47.85 47.9 49.1 49 51.25
L 50.3 53.8
Q 50.55 54.3 50.45 54.4 50.4 54.55 47.3 55.55 43.6 56.65 42.3 57.3 40.95 57.85 39.7 58.9 37.35 60.9 36.4 61.8 33.95 64.25 32.95 65.1 31.95 65.9 30.25 66.9 26.2 69.25 24.85 70.5 23.5 71.75 21.5 74.8 20.25 76.85 19.35 77.7 18.2 78.8 15.25 82.9 14.35 84.1 13.15 86.2 12.05 88.25 11.7 89.2 11.25 90.5 10.45 94.95 9.7 99.4 9.45 102.25 9.2 104.35 9.2 107.15 9.15 109.95 9.4 111.7 9.65 114.3 10.35 116.8 11.05 119.3 12.35 122.25 14.05 125.95 15.05 127.35 15.6 128.05 17.2 129.85 18.8 131.7 19.3 132.15 19.8 132.6 21.1 133.95 23.05 136.1 25.05 137.65 27.05 139.2 30.25 141.05 33.5 142.85 35.55 143.8 37.6 144.75 40.05 145.35
L 42.3 146
Q 43.2 146.3 44.15 146.3 45.25 146.3 46.2 146.45 48.25 146.7 50.7 146.65
L 53.05 146.7
Q 53.5 146.65 54.65 146.5 55.4 146.45 55.95 146.45 56.55 146.5 57.65 146.7 62 147.45 63.95 147 64.95 146.7 65.9 146.65
L 67.15 146.5
Q 67.8 146.45 70.95 145.5 74.1 144.55 75.6 144 77.8 143.25 78.75 142.9 79.75 142.65 81.65 142.35 83 142.15 84.35 141.85 85.65 141.55 89.25 140.5 93.75 139.25 95 138.8 96.1 138.35 97.25 137.5
L 98.8 136.3
Q 99.5 135.8 100.5 134.85 101.6 133.75 103.35 132.3 105.1 130.9 105.7 130.5 106.2 130.2 108.45 129 111.4 127.5 112.85 126.15 114.35 124.85 115.9 122.45 116.75 121.15 117.3 120.5 117.85 119.85 118.7 119.1 119.9 118 123.4 113.5 124.1 112.55 125.2 110.65 126.25 108.75 126.75 107.65 127.7 105.35 128.45 101 129.75 93.7 129.7 87.3 129.6 84.2 128.9 81.1 128.2 78.15 126.6 74.25 125.25 71 124.4 69.55 123.6 68.1 120.95 64.75 117.25 59.9 114.3 57.35 111.3 54.9 106.05 52.2 103.55 50.85 102.05 50.3
L 99.7 49.35
Q 98.95 49 98.25 48.9 97.5 48.8 96.2 48.5 94.9 48.2 94.4 48.05 93.85 47.9 92.95 47.9 92.05 48 90.8 47.9
L 88.75 47.75
Q 87.75 47.7 85.4 47.85 83.15 47.9 82.25 48.1
M 102 69.55
Q 102.85 69.1 104.45 68.65 106.1 68.2 107 68.15 109.05 68.1 111.15 69.4 113.15 70.75 113.95 72.5 115.1 75.25 113.6 79.05 112.9 80.8 112.05 81.2 111.9 81.3 111.65 81.55 111.4 81.75 111.25 81.95 111.05 82.3 110.45 82.45 109.85 82.65 109.5 82.6 109.4 82.5 109.15 82.05 108.85 81.6 108.9 81.5 109.15 80.3 109.05 79.3 109 78.45 108.55 77.45 108.35 76.85 108.2 76.7 108.05 76.5 107.55 76.05 107.25 75.8 106.65 75.55 106.05 75.35 105.9 75.25 105.7 75.1 105.65 75.1 105.5 75.25 104.85 75.45 104 75.65 103.75 75.85 103.5 76.15 103.15 76.45 102.55 77.05 102.3 77.65 102.05 78.2 101.95 79.05 101.9 79.8 101.9 80.15 101.9 80.85 102.15 81.75 102.9 83.2 103.05 83.35 103.35 83.65 104.7 84.55 105.35 84.9 106.3 85.2 106.5 85.2 105.95 85.55
L 105.55 86.4
Q 105.2 86.55 104.1 87 102.85 87.5 102.45 87.6 100.25 87.85 99.9 87.85 98.75 87.85 97.9 87.3 96.85 86.6 95.65 84.25 94.9 82.9 94.7 81.15 94.5 79.3 94.8 77.5 94.9 76.75 96 74.9 97 73.2 97.8 72.3 98.7 71.3 102 69.55
M 89.95 96.95
L 89.6 91.5 90.7 90.65
Q 91.25 90.4 91.8 90.65 92.05 90.75 93.45 92.05 95.05 93.5 96 94.5 96.2 94.8 96.95 95.7 97.6 96.55 97.9 96.85 98.45 97.4 98.6 97.55 98.95 97.95 98.85 98.25 98.85 98.4 98 98.9 97.1 99.5 96.15 99.85 94.75 100.35 94 100.8
L 93.1 101.15
Q 92.3 101.5 91.45 101.8 90.7 102 90.65 101.9 90.55 101.5 90.3 99.95 90.05 98.15 89.95 96.95
M 118.95 86.3
Q 119.1 84.75 119.55 82.85 120.05 80.85 120.55 80.65 120.95 80.7 121.15 81.45 121.35 82.4 121.65 85.5 122.25 91.95 122 92.3 122 92.45 121.4 92.5 120.65 92.65 120.05 92.55 119 92.3 118.9 92.4 118.6 92.6 116.85 99.35 115.9 102.95 115.75 103.05 115.7 103.1 115.3 102.95 114.8 102.8 114.55 102.65 114.35 102.6 114.2 102.65 114.1 102.75 114.05 102.75 113.8 102.85 113.6 103.2 112.05 106.35 111 109.25 110.4 111 110 111.7 109.8 112.15 109.25 112.95 108.85 113.55 108.85 113.65 109 114.15 108.55 114.7 108.05 115.25 107.4 115.3 106.5 115.4 106.05 115.3 105.5 115.2 104.5 114.75 102.05 113.7 101 113.45 100.1 113.1 100 113.1 99.7 113.2 98.7 115.05 97.65 116.95 96.95 117.9
L 96.4 118.85
Q 96.1 119.3 95.55 120 95.05 120.55 94.95 120.6 94.75 120.65 93.3 120.3 91.65 119.9 90.25 119.3 88.05 118.35 87.35 118.05 86.25 117.6 85.95 117.65 85.65 117.75 83.75 119.5 81.85 121.2 81.1 122.05
L 79.65 123.5 78.8 123.6
Q 78.35 123.35 77.6 122.6 77.05 122.05 76.3 121.5 74.75 120.45 74.05 119.9 72.85 118.85 72.75 118.75 72.65 118.7 72.4 118.85 71.6 119.25 70.4 120.25 69.05 121.25 68.45 121.75 67.4 122.6 66.1 123.8 65.4 124.45 64.7 124.4 64 124.25 63.55 123.5 62.1 121.15 59.3 115.35 56.45 109.55 56.1 108.25
L 55.85 106.25 57.4 107.45
Q 58.05 108.2 59.3 109.05 62.85 111.75 65.05 113.05 67.2 114.35 67.7 114.2 67.95 114.15 68.45 113.7 69 113.2 69.4 112.55 69.85 111.9 70.75 110.9 71.6 110 71.75 109.95 71.85 109.95 72.85 110.7 73.9 111.45 73.9 111.6
L 74.6 112.1
Q 75.45 112.7 76 113.3 76.65 113.95 77.8 115.35 78.45 116.1 78.7 116.15 79 116.15 80.2 115.25 81.55 114.3 82.35 113.3 84.7 110.55 85.3 110.4 85.6 110.35 86.05 110.45 86.65 110.65 87.05 110.95 87.2 111.1 88.25 111.65 92.2 113.8 92.5 113.75 92.6 113.7 93.15 112.95 93.75 112.05 94.5 110.8 96.6 107.15 96.9 106.7
L 97.6 105.85 98.75 105.45
Q 98.8 105.5 100.85 106.45 102.2 107.1 103.65 107.6 105.15 108.1 105.55 108.1 105.85 108.05 106 107.8 106.25 106.95 106.7 105.7 106.9 105.05 108.25 101.9 108.5 101.3 108.95 100.2 109.3 99.4 109.25 99.3 109.2 98.95 110 97 110.85 94.95 110.95 95.15 111.25 95.55 111.7 95.9 112.1 96.25 112.25 96.2 112.35 96.2 112.4 96.2 112.45 96.1 112.65 95.55 112.85 94.7 113.75 92.2 113.85 91.85 114.4 90.25 114.85 89.1 114.95 88.7 115.05 88.25 115.35 87.5 115.6 86.9 115.7 86.85 115.8 86.8 116.25 86.8 116.85 86.8 117.4 86.9 118.55 87.15 118.6 87.15 118.85 86.9 118.95 86.3
M 60.35 98.95
Q 58.35 97.55 57.5 95.8 56.95 94.6 56.8 92.55 56.8 90.6 57.25 89.3 57.4 88.85 58.4 87.45 59 86.65 60.2 85.05 60.8 84.2 61.65 83.45 62.6 82.55 63.3 82.25 63.75 82.05 65.8 81.05 67.5 80.2 68.9 80.2 70.05 80.1 72.55 80.55 74.25 80.85 74.9 81.05 76 81.4 77.05 82.05 79.7 84 80.8 87.9 81 88.65 81 89.35 80.95 89.9 80.8 90.85 80.45 92.75 80.2 93.1 80.1 93.35 79.65 93.85 79.3 94.35 79.2 94.5 79.05 95 78.95 95.1 78.8 95.4 78.5 95.55 78.15 95.75 77.9 95.85 77.45 96.05 77.2 96.35 76.75 96.8 76.05 97.2 75.35 97.6 75.25 97.5 75.2 97.45 75.15 96.8 75.15 96.1 75.25 95.8 76 93.55 75.8 92.2 75.55 90.9 74.25 89.45 72.4 87.3 69.95 87.95 67.65 88.55 66.05 90.05 65.15 90.9 64.7 93.35 64.55 95.05 65.15 96.25 65.75 97.6 67.35 98.85 67.85 99.2 68.15 99.6 68.5 100.05 68.1 100.2 68 100.5 66.6 100.75 65.15 100.95 64.3 100.75 62.3 100.3 60.35 98.95 Z"/>
</g>

<g id="Parts_Heads_headColorMC2_43_Layer3_0_FILL">
<path fill="#FFDD55" stroke="none" d="
M 56.6 94.55
Q 56.8 95.45 57.05 95.8 57.75 97.5 59.55 99 61.35 100.45 63.1 100.85 63.85 100.95 64.35 100.95 64.9 101 65.95 100.9
L 66.9 100.75
Q 67.35 100.7 67.75 100.55 68 100.45 68 100 68.1 99.85 67.95 99.65 67.8 99.3 67.45 99.05 66.45 98.4 65.9 97.85 65.3 97.25 64.95 96.55 64.8 96.2 64.6 95.55 64.4 94.85 64.35 94.5 64.35 92.7 64.9 91.35 65.25 90.55 65.5 90.3 65.6 90.15 66.75 89.25 67.8 88.55 68.65 88.2 69.15 88 69.6 87.9 69.85 87.85 70.5 87.8 72 87.6 73.45 88.85 74.7 90 75.35 91.65 75.7 92.5 75.55 93.5 75.5 93.85 74.9 96.2 74.8 96.65 74.8 97.15 74.85 97.5 74.9 97.55 75.05 97.65 75.3 97.55 75.7 97.5 76.15 97.1 76.55 96.8 77.4 96.05 77.7 95.9 78.2 95.65 78.55 95.45 78.65 95.3 78.85 95.2 79 94.7 79.25 94.1 79.55 93.8 80.5 92.9 80.8 90.65 81.05 88.65 80.6 87.35 79.4 83.95 77.85 82.65 76.65 81.6 75.35 81.05 74.15 80.6 72.45 80.3 70.25 80.05 69.7 80 68.55 79.9 67.5 80.15 66.95 80.25 64.5 81.25 62.7 81.95 61.95 82.55 61.8 82.7 60.7 83.85 60.05 84.55 58.65 86.45 57.35 88.15 56.9 88.95 56.15 90.3 56.4 93.1 56.45 93.8 56.6 94.55
M 121.05 80.35
Q 121.05 80.25 120.7 80.45 120.45 80.6 120.25 80.95 119.95 81.5 119.35 84.3 118.95 86.65 118.85 86.75 118.85 86.8 118.1 86.7 117.2 86.6 116.95 86.55 115.95 86.6 115.75 86.8 115.5 87.1 115 88.85 114.85 89.5 114.2 91.2 113.55 93 113.3 93.7 112.8 95.35 112.7 95.65 112.55 96.05 112.35 96.1 112.3 96.1 112.25 96.05 112.15 96.05 111.85 95.85 111.05 95 111 95 110.85 95.05 110.15 96.7 109.45 98.35 109.05 99.6 108.45 101.4 107.45 104.1 106.3 107.15 106.05 107.55 105.85 107.9 105.75 108 105.6 108.1 105.15 108.05 104.7 107.95 103.05 107.3 101.5 106.7 100.1 106.1 98.35 105.3 98.15 105.3 97.85 105.3 97.1 106.4 96.75 106.95 94.55 110.65 93.75 111.95 93.15 112.95 92.55 113.8 92.5 113.8 92.25 113.85 90.6 113 89 112.25 87.85 111.55 85.85 110.4 85.25 110.5 85 110.5 84.4 111.1 84.25 111.25 82.7 112.85 81.85 113.75 80.25 115 78.8 116.05 78.55 116.15 78.35 116.2 78 115.8 77.15 114.8 76.2 113.8 74.6 112.2 73.15 111 71.8 109.95 71.55 110.05 71.5 110.05 69.9 111.75 69.5 112.15 69.05 112.8 68.5 113.5 68.4 113.65
L 67.35 114.5
Q 67.25 114.5 67 114.4
L 66.75 114.25
Q 65.5 113.8 61.95 111.35 58.35 108.9 57 107.6 56.5 107.2 56.35 107.05 56.2 106.85 55.85 106.65 55.55 106.4 55.45 106.35 55.4 106.35 55.45 107.35 55.6 108.3 55.65 108.45 56.25 110.7 58.95 116.15 61.5 121.25 63.2 123.95 63.95 125.1 64.6 124.95 65.15 124.8 66.9 123.35 68.25 122.1 69.95 120.85 71.5 119.7 72.1 119.4 72.4 119.2 72.75 119.4 73.2 119.7 76.1 122.1 77.1 122.85 78.05 123.5 79 124.15 79.15 124.15 79.25 124.2 79.75 123.7 80.45 123 80.85 122.6 83.3 120.2 84.1 119.55
L 85.7 118.2 86.85 118.35
Q 87.35 118.5 88.5 119.05 90.3 119.8 91.9 120.45 92.6 120.7 93.6 120.9 94.6 121.05 94.95 121 95.65 120.5 95.85 120.25 96.45 119.4 98.25 116.5
L 100.05 113.5 101.05 113.75
Q 101.7 113.95 104.95 115.3 106.35 115.8 107.3 115.7 107.9 115.6 108.35 115.4 108.95 115.2 111.1 110.15 111.65 108.85 112.95 105.5 113.85 103.25 113.95 103.1 114.25 102.75 114.7 102.85 114.85 102.85 115.65 103.3 116 103.4 116.05 103 116.5 101.95 117.7 97.3 118.25 95.3 118.7 93.85 119.1 92.45 119.2 92.45 119.25 92.4 120.25 92.55 120.75 92.65 121.4 92.65 122.1 92.6 122.25 92.5 122.45 92.35 122.4 91.2 122.4 90.35 121.95 86.1 121.5 81 121.05 80.35
M 90.85 90.5
Q 90.75 90.55 90.55 90.7 90.35 90.85 90.2 90.95 89.55 91.4 89.5 91.55 89.5 91.6 89.65 93.45 89.65 93.7 89.75 95.6 89.85 97.4 90.05 99.2 90.3 101.1 90.45 101.2 90.45 101.25 90.5 101.7
L 90.6 102.1 91.65 101.9
Q 91.8 101.9 92.65 101.4 93.15 101.2 94.95 100.5 99.1 98.75 99.1 98.35 99.15 97.9 97.45 96.05 95.45 93.85 94.8 93.2 94 92.35 92.95 91.5 92 90.7 91.65 90.55 91.3 90.35 90.85 90.5
M 114.55 73.7
Q 114.45 73.1 114 71.9 113.75 71.4 113.5 71.05 113.3 70.8 112.85 70.35 112.25 69.65 111.25 69.05 110.25 68.4 109.15 68.05 107.7 67.6 105.95 67.95 104 68.3 102.65 68.9 101.1 69.55 99.4 70.75 98.35 71.45 97.8 71.95 97.3 72.45 96.55 73.65 95.9 74.5 95 76.55 94.75 77.2 94.65 78.05 94.45 79.05 94.5 79.75 94.5 81.15 95.05 82.85 95.6 84.55 96.25 85.4 96.7 86.1 97.3 86.7 98.05 87.45 98.55 87.5 98.7 87.6 99.2 87.75 99.7 87.85 100.2 87.8 100.5 87.8 101.5 87.75 102.45 87.65 102.9 87.45 103.5 87.2 104.75 86.75 105.5 86.45 105.7 86.3
L 106.1 85.5
Q 106.6 85.2 106.55 85.1 106.5 85 105.55 84.8 104.35 84.2 103.8 83.7 103.25 83.2 102.8 82.4 102.15 81.3 102.1 79.9 102 78.55 102.45 77.45 102.7 77 103.55 76.05 103.95 75.65 104.25 75.55 104.45 75.5 105.05 75.25 105.75 75 106.4 75.25 106.55 75.3 107.5 75.9 108 76.2 108.3 76.6 108.95 77.35 109.1 79.35 109.1 80.55 109 81.3 108.95 81.55 109.3 81.95 109.6 82.45 109.65 82.45 109.65 82.55 109.95 82.5 110.35 82.5 110.6 82.35 110.9 82.25 111.2 82.1 111.3 81.95 111.65 81.6 112 81.3 112.45 80.95 112.95 80.6 113.6 79.35 114.1 78.55 114.5 76.75 114.65 75.85 114.7 75.2 114.65 74.65 114.55 73.7 Z"/>
</g>
</defs>

<g transform="matrix( 1, 0, 0, 1, -62.75,-76.85) ">
<g transform="matrix( 1, 0, 0, 1, 0,0) ">
<use xlink:href="#Parts_Heads_headsMC_43_Layer12_0_FILL"/>
</g>

<g transform="matrix( 0.4022216796875, -0.10772705078125, 0.1076507568359375, 0.40179443359375, -8.3,50.05) ">
<g transform="matrix( 1, 0, 0, 1, 0,0) ">
<use xlink:href="#Parts_Heads_Jack_O_Lantern_jackoShading_0_Layer3_0_FILL"/>
</g>

<g transform="matrix( 1, 0, 0, 1, 0,0) ">
<use xlink:href="#Parts_Heads_Jack_O_Lantern_jackoShading_0_Layer3_1_FILL"/>
</g>

<g transform="matrix( 1, 0, 0, 1, 0,0) ">
<use xlink:href="#Parts_Heads_Jack_O_Lantern_jackoShading_0_Layer2_0_FILL"/>
</g>

<g transform="matrix( 1, 0, 0, 1, 0,0) ">
<use xlink:href="#Parts_Heads_Jack_O_Lantern_jackoShading_0_Layer1_0_FILL"/>
</g>

<g transform="matrix( 1, 0, 0, 1, 0,0) ">
<use xlink:href="#Parts_Heads_Jack_O_Lantern_jackoShading_0_Layer0_0_FILL"/>
</g>
</g>

<g id="hat1" transform="matrix( 0.983917236328125, -0.17529296875, 0.17529296875, 0.983917236328125, 45.2,78.25) ">
<g id="colorMC" transform="matrix( 0.9999847412109375, 0, 0, 0.9999847412109375, 0,0) "/>

<g id="colorMC2" transform="matrix( 1, 0, 0, 1, 0,0) "/>
</g>

<g id="hat2" transform="matrix( 0.9733734130859375, -0.2247314453125, 0.2247314453125, 0.9733734130859375, 38,60.6) ">
<g id="colorMC_FL" transform="matrix( 0.9999847412109375, 0, 0, 0.9999847412109375, 0,0) "/>

<g id="colorMC2_FL" transform="matrix( 1, 0, 0, 1, 0,0) "/>
</g>

<g id="hat3" transform="matrix( 0.96026611328125, -0.2753753662109375, 0.2753753662109375, 0.96026611328125, 26,48.4) ">
<g id="colorMC_FL_FL" transform="matrix( 0.9999847412109375, 0, 0, 0.9999847412109375, 0,0) "/>

<g id="colorMC2_FL_FL" transform="matrix( 1, 0, 0, 1, 0,0) "/>
</g>

<g id="hat4" transform="matrix( 0.944580078125, -0.3252410888671875, 0.3252410888671875, 0.944580078125, 18.85,34.5) ">
<g id="colorMC_FL_FL_FL" transform="matrix( 0.9999847412109375, 0, 0, 0.9999847412109375, 0,0) "/>

<g id="colorMC2_FL_FL_FL" transform="matrix( 1, 0, 0, 1, 0,0) "/>
</g>
</g>

<g transform="matrix( 1, 0, 0, 1, -75.4,-101.9) ">
<g transform="matrix( 1, 0, 0, 1, 0,0) ">
<use xlink:href="#Parts_Heads_headColorMC_43_Layer1_0_FILL"/>
</g>
</g>

<g transform="matrix( 1, 0, 0, 1, -62.75,-76.85) ">
<g transform="matrix( 1, 0, 0, 1, 0,0) ">
<use xlink:href="#Parts_Heads_headColorMC2_43_Layer3_0_FILL"/>
</g>
</g>
</svg>
