
<svg xmlns="http://www.w3.org/2000/svg" version="1.1" xmlns:xlink="http://www.w3.org/1999/xlink" preserveAspectRatio="none" x="0px" y="0px" width="550px" height="400px" viewBox="0 0 550 400">
<defs>
<g id="Parts_Heads_headColorMC_43_Layer1_0_FILL">
<path fill="#F68E15" stroke="none" d="
M 82.25 48.1
Q 81.6 48.2 81 48.15 80.4 48.15 79.3 48 75.25 47.45 73.2 47.95 72 48.2 70.85 48.35 69.8 48.5 67.15 49.25
L 64.55 50 63.25 48.9
Q 61.8 47.65 60.9 46.95
L 58.3 44.8
Q 55.25 42.3 53.1 40.9
L 49.5 38.5
Q 45.65 35.95 45.3 36.05 45.15 36.05 44.8 36.9 44.05 38.8 42.5 40.25 41.65 41.05 41.6 41.25 41.55 41.4 42.85 42.85 45.15 45.4 45.8 46.1 46.55 47 47.1 47.85 47.9 49.1 49 51.25
L 50.3 53.8
Q 50.55 54.3 50.45 54.4 50.4 54.55 47.3 55.55 43.6 56.65 42.3 57.3 40.95 57.85 39.7 58.9 37.35 60.9 36.4 61.8 33.95 64.25 32.95 65.1 31.95 65.9 30.25 66.9 26.2 69.25 24.85 70.5 23.5 71.75 21.5 74.8 20.25 76.85 19.35 77.7 18.2 78.8 15.25 82.9 14.35 84.1 13.15 86.2 12.05 88.25 11.7 89.2 11.25 90.5 10.45 94.95 9.7 99.4 9.45 102.25 9.2 104.35 9.2 107.15 9.15 109.95 9.4 111.7 9.65 114.3 10.35 116.8 11.05 119.3 12.35 122.25 14.05 125.95 15.05 127.35 15.6 128.05 17.2 129.85 18.8 131.7 19.3 132.15 19.8 132.6 21.1 133.95 23.05 136.1 25.05 137.65 27.05 139.2 30.25 141.05 33.5 142.85 35.55 143.8 37.6 144.75 40.05 145.35
L 42.3 146
Q 43.2 146.3 44.15 146.3 45.25 146.3 46.2 146.45 48.25 146.7 50.7 146.65
L 53.05 146.7
Q 53.5 146.65 54.65 146.5 55.4 146.45 55.95 146.45 56.55 146.5 57.65 146.7 62 147.45 63.95 147 64.95 146.7 65.9 146.65
L 67.15 146.5
Q 67.8 146.45 70.95 145.5 74.1 144.55 75.6 144 77.8 143.25 78.75 142.9 79.75 142.65 81.65 142.35 83 142.15 84.35 141.85 85.65 141.55 89.25 140.5 93.75 139.25 95 138.8 96.1 138.35 97.25 137.5
L 98.8 136.3
Q 99.5 135.8 100.5 134.85 101.6 133.75 103.35 132.3 105.1 130.9 105.7 130.5 106.2 130.2 108.45 129 111.4 127.5 112.85 126.15 114.35 124.85 115.9 122.45 116.75 121.15 117.3 120.5 117.85 119.85 118.7 119.1 119.9 118 123.4 113.5 124.1 112.55 125.2 110.65 126.25 108.75 126.75 107.65 127.7 105.35 128.45 101 129.75 93.7 129.7 87.3 129.6 84.2 128.9 81.1 128.2 78.15 126.6 74.25 125.25 71 124.4 69.55 123.6 68.1 120.95 64.75 117.25 59.9 114.3 57.35 111.3 54.9 106.05 52.2 103.55 50.85 102.05 50.3
L 99.7 49.35
Q 98.95 49 98.25 48.9 97.5 48.8 96.2 48.5 94.9 48.2 94.4 48.05 93.85 47.9 92.95 47.9 92.05 48 90.8 47.9
L 88.75 47.75
Q 87.75 47.7 85.4 47.85 83.15 47.9 82.25 48.1
M 102 69.55
Q 102.85 69.1 104.45 68.65 106.1 68.2 107 68.15 109.05 68.1 111.15 69.4 113.15 70.75 113.95 72.5 115.1 75.25 113.6 79.05 112.9 80.8 112.05 81.2 111.9 81.3 111.65 81.55 111.4 81.75 111.25 81.95 111.05 82.3 110.45 82.45 109.85 82.65 109.5 82.6 109.4 82.5 109.15 82.05 108.85 81.6 108.9 81.5 109.15 80.3 109.05 79.3 109 78.45 108.55 77.45 108.35 76.85 108.2 76.7 108.05 76.5 107.55 76.05 107.25 75.8 106.65 75.55 106.05 75.35 105.9 75.25 105.7 75.1 105.65 75.1 105.5 75.25 104.85 75.45 104 75.65 103.75 75.85 103.5 76.15 103.15 76.45 102.55 77.05 102.3 77.65 102.05 78.2 101.95 79.05 101.9 79.8 101.9 80.15 101.9 80.85 102.15 81.75 102.9 83.2 103.05 83.35 103.35 83.65 104.7 84.55 105.35 84.9 106.3 85.2 106.5 85.2 105.95 85.55
L 105.55 86.4
Q 105.2 86.55 104.1 87 102.85 87.5 102.45 87.6 100.25 87.85 99.9 87.85 98.75 87.85 97.9 87.3 96.85 86.6 95.65 84.25 94.9 82.9 94.7 81.15 94.5 79.3 94.8 77.5 94.9 76.75 96 74.9 97 73.2 97.8 72.3 98.7 71.3 102 69.55
M 89.95 96.95
L 89.6 91.5 90.7 90.65
Q 91.25 90.4 91.8 90.65 92.05 90.75 93.45 92.05 95.05 93.5 96 94.5 96.2 94.8 96.95 95.7 97.6 96.55 97.9 96.85 98.45 97.4 98.6 97.55 98.95 97.95 98.85 98.25 98.85 98.4 98 98.9 97.1 99.5 96.15 99.85 94.75 100.35 94 100.8
L 93.1 101.15
Q 92.3 101.5 91.45 101.8 90.7 102 90.65 101.9 90.55 101.5 90.3 99.95 90.05 98.15 89.95 96.95
M 118.95 86.3
Q 119.1 84.75 119.55 82.85 120.05 80.85 120.55 80.65 120.95 80.7 121.15 81.45 121.35 82.4 121.65 85.5 122.25 91.95 122 92.3 122 92.45 121.4 92.5 120.65 92.65 120.05 92.55 119 92.3 118.9 92.4 118.6 92.6 116.85 99.35 115.9 102.95 115.75 103.05 115.7 103.1 115.3 102.95 114.8 102.8 114.55 102.65 114.35 102.6 114.2 102.65 114.1 102.75 114.05 102.75 113.8 102.85 113.6 103.2 112.05 106.35 111 109.25 110.4 111 110 111.7 109.8 112.15 109.25 112.95 108.85 113.55 108.85 113.65 109 114.15 108.55 114.7 108.05 115.25 107.4 115.3 106.5 115.4 106.05 115.3 105.5 115.2 104.5 114.75 102.05 113.7 101 113.45 100.1 113.1 100 113.1 99.7 113.2 98.7 115.05 97.65 116.95 96.95 117.9
L 96.4 118.85
Q 96.1 119.3 95.55 120 95.05 120.55 94.95 120.6 94.75 120.65 93.3 120.3 91.65 119.9 90.25 119.3 88.05 118.35 87.35 118.05 86.25 117.6 85.95 117.65 85.65 117.75 83.75 119.5 81.85 121.2 81.1 122.05
L 79.65 123.5 78.8 123.6
Q 78.35 123.35 77.6 122.6 77.05 122.05 76.3 121.5 74.75 120.45 74.05 119.9 72.85 118.85 72.75 118.75 72.65 118.7 72.4 118.85 71.6 119.25 70.4 120.25 69.05 121.25 68.45 121.75 67.4 122.6 66.1 123.8 65.4 124.45 64.7 124.4 64 124.25 63.55 123.5 62.1 121.15 59.3 115.35 56.45 109.55 56.1 108.25
L 55.85 106.25 57.4 107.45
Q 58.05 108.2 59.3 109.05 62.85 111.75 65.05 113.05 67.2 114.35 67.7 114.2 67.95 114.15 68.45 113.7 69 113.2 69.4 112.55 69.85 111.9 70.75 110.9 71.6 110 71.75 109.95 71.85 109.95 72.85 110.7 73.9 111.45 73.9 111.6
L 74.6 112.1
Q 75.45 112.7 76 113.3 76.65 113.95 77.8 115.35 78.45 116.1 78.7 116.15 79 116.15 80.2 115.25 81.55 114.3 82.35 113.3 84.7 110.55 85.3 110.4 85.6 110.35 86.05 110.45 86.65 110.65 87.05 110.95 87.2 111.1 88.25 111.65 92.2 113.8 92.5 113.75 92.6 113.7 93.15 112.95 93.75 112.05 94.5 110.8 96.6 107.15 96.9 106.7
L 97.6 105.85 98.75 105.45
Q 98.8 105.5 100.85 106.45 102.2 107.1 103.65 107.6 105.15 108.1 105.55 108.1 105.85 108.05 106 107.8 106.25 106.95 106.7 105.7 106.9 105.05 108.25 101.9 108.5 101.3 108.95 100.2 109.3 99.4 109.25 99.3 109.2 98.95 110 97 110.85 94.95 110.95 95.15 111.25 95.55 111.7 95.9 112.1 96.25 112.25 96.2 112.35 96.2 112.4 96.2 112.45 96.1 112.65 95.55 112.85 94.7 113.75 92.2 113.85 91.85 114.4 90.25 114.85 89.1 114.95 88.7 115.05 88.25 115.35 87.5 115.6 86.9 115.7 86.85 115.8 86.8 116.25 86.8 116.85 86.8 117.4 86.9 118.55 87.15 118.6 87.15 118.85 86.9 118.95 86.3
M 60.35 98.95
Q 58.35 97.55 57.5 95.8 56.95 94.6 56.8 92.55 56.8 90.6 57.25 89.3 57.4 88.85 58.4 87.45 59 86.65 60.2 85.05 60.8 84.2 61.65 83.45 62.6 82.55 63.3 82.25 63.75 82.05 65.8 81.05 67.5 80.2 68.9 80.2 70.05 80.1 72.55 80.55 74.25 80.85 74.9 81.05 76 81.4 77.05 82.05 79.7 84 80.8 87.9 81 88.65 81 89.35 80.95 89.9 80.8 90.85 80.45 92.75 80.2 93.1 80.1 93.35 79.65 93.85 79.3 94.35 79.2 94.5 79.05 95 78.95 95.1 78.8 95.4 78.5 95.55 78.15 95.75 77.9 95.85 77.45 96.05 77.2 96.35 76.75 96.8 76.05 97.2 75.35 97.6 75.25 97.5 75.2 97.45 75.15 96.8 75.15 96.1 75.25 95.8 76 93.55 75.8 92.2 75.55 90.9 74.25 89.45 72.4 87.3 69.95 87.95 67.65 88.55 66.05 90.05 65.15 90.9 64.7 93.35 64.55 95.05 65.15 96.25 65.75 97.6 67.35 98.85 67.85 99.2 68.15 99.6 68.5 100.05 68.1 100.2 68 100.5 66.6 100.75 65.15 100.95 64.3 100.75 62.3 100.3 60.35 98.95 Z"/>
</g>
</defs>

<g transform="matrix( 1, 0, 0, 1, -75.4,-101.9) ">
<g transform="matrix( 1, 0, 0, 1, 0,0) ">
<use xlink:href="#Parts_Heads_headColorMC_43_Layer1_0_FILL"/>
</g>
</g>
</svg>
