
<svg xmlns="http://www.w3.org/2000/svg" version="1.1" xmlns:xlink="http://www.w3.org/1999/xlink" preserveAspectRatio="none" x="0px" y="0px" width="550px" height="400px" viewBox="0 0 550 400">
<defs>
<g id="Layer0_0_FILL">
<path fill="#FFFFFF" stroke="none" d="
M -13.8 -103.6
Q -13.35 -102.3 -13.85 -101.25
L -14.75 -99.6 -14.35 -98.45 -10.8 -99.3
Q -10.6 -102.8 -11.5 -106 -13.4 -112.65 -20.15 -111.85 -15.65 -108.4 -13.8 -103.6
M -16 -101.6
Q -15.8 -104.5 -18.05 -106.6 -19.35 -107.85 -21.2 -107.55
L -17.6 -100.35 -16 -101.6
M 30.05 -25.9
L 30.6 -27 36.3 -19.2 36.3 -18 37.65 -17.3
Q 38.2 -18.85 37.1 -20.35
L 7.2 -61.85
Q 2.3 -68.65 -2.45 -75.5
L -10.6 -86.05
Q -12.05 -87.75 -12.75 -89.55 -14.25 -93.3 -17.3 -92.9 -14.7 -90.9 -13.45 -87.65 -12.05 -83.9 -8.85 -81.1 -6.9 -79.45 -5.65 -77.15
L -3.25 -73.65 -7.7 -67.25 -5.05 -62.75 -0.05 -67.95 12 -53.1
Q 10.2 -48.65 6.65 -45.1
L 4.8 -43.35 7.8 -38.25 14.95 -48.55 25.7 -34.5 17.3 -20.55 21.6 -12.6 30.65 -25.05 30.1 -25.35 29.85 -25.3 30.05 -25.9
M 7.7 -40
Q 7.4 -40.85 8.1 -40.65
L 7.7 -40 Z"/>
</g>
</defs>

<g transform="matrix( 1, 0, 0, 1, 0,0) ">
<use xlink:href="#Layer0_0_FILL"/>
</g>
</svg>
