
<svg xmlns="http://www.w3.org/2000/svg" version="1.1" xmlns:xlink="http://www.w3.org/1999/xlink" preserveAspectRatio="none" x="0px" y="0px" width="550px" height="400px" viewBox="0 0 550 400">
<defs>
<g id="Layer0_0_FILL">
<path fill="#000000" fill-opacity="0.25098039215686274" stroke="none" d="
M -16.55 -91.15
Q -18.65 -90.2 -18.35 -86.9
L -18.15 -82.65
Q -17.95 -80 -18.7 -77.2
L -19.9 -71.4 -19.85 -71.15
Q -18.6 -70.95 -18.95 -69.45
L -23.95 -49.6 -24.7 -41.7
Q -25.05 -37.45 -26.3 -33.3 -30.3 -19.45 -31.95 -5.45 -32.35 -2.45 -31.65 0.25 -29.15 2.15 -25.9 2
L -16.85 1.15 -16.2 -20.85
Q -8.25 -22.65 -1.35 -27.3
L 5.2 -32.75 -16.3 -23.8 -16.5 -48.95
Q -11.95 -50.65 -7.8 -53.7
L -6.65 -54.35
Q -4.75 -55.45 -4.05 -57.55
L -4.05 -57.75 -16.35 -51.9 -16.55 -91.15
M -15 -100.65
L -13.75 -103.75 -18.9 -109.8 -14.85 -103.35 -15 -100.65
M 31.4 -17.05
L 22.15 -8.65
Q 25.9 -9.4 28.7 -12.25 30.85 -14.5 31.4 -17.05 Z"/>
</g>
</defs>

<g transform="matrix( 1, 0, 0, 1, 0,0) ">
<use xlink:href="#Layer0_0_FILL"/>
</g>
</svg>
