
<svg xmlns="http://www.w3.org/2000/svg" version="1.1" xmlns:xlink="http://www.w3.org/1999/xlink" preserveAspectRatio="none" x="0px" y="0px" width="550px" height="400px" viewBox="0 0 550 400">
<defs>
<g id="Layer0_0_FILL">
<path fill="#000000" stroke="none" d="
M 98.75 57.1
L 99.65 56.9
Q 100.1 56.7 100.1 55.75 100.1 54.85 99.6 54.5
L 98.75 54.2 76.3 54.1 74.7 53.65 64.55 53.65 63.55 54
Q 63.2 54.35 63.2 55.25 63.2 56.2 63.7 56.45
L 64.55 56.55 76.85 57.1 98.75 57.1
M 103 49.3
L 103.2 49.2 103.3 48.25
Q 103.3 46.5 84.25 32.45 63.95 17.55 54.9 14.95
L 53.95 15.3
Q 53.6 15.65 53.6 16.55
L 64.8 23.4
Q 76.7 30.55 79.05 32.45 86.05 39.2 89.65 42.35 95.95 47.85 103 49.3
M 92.95 25.55
L 101.05 35.15
Q 105.9 40.95 109.95 42.4
L 110.15 42.25 110.25 41.35
Q 110.25 37.4 72.55 5.75
L 71.6 6.1
Q 71.2 6.45 71.2 7.35 71.2 8.05 79.15 13.95 88.7 21.1 92.95 25.55
M 140.85 21.05
Q 139.75 21.55 132 28.5 124.65 35.05 116.6 42.75
L 116.85 44.35 118.75 43.1
Q 121.15 41.75 121.65 41.2 124.5 38.85 133.75 31.65 141.55 25.2 141.75 22.6 141.95 20.65 140.85 21.05
M 172.5 67.35
Q 171.85 66.65 167.8 65.85 149.05 62.5 135.25 59.35 126.85 57.5 121 56.9
L 119.25 56.75 119.35 59.95
Q 130 57 143.65 62.35 158.05 68.05 165.65 69.45
L 172.95 70.8
Q 173 67.85 172.5 67.35
M 170.9 45
Q 170.8 44.7 170.85 43.75 170.55 42.95 165.15 43.75 159.7 44.45 144.2 47.55 128.7 50.65 119.95 51.65
L 119.1 52.1 119.1 52.65 121.15 52.9
Q 129.15 53.75 142.3 51.55 153.1 49.65 170.9 45 Z"/>
</g>
</defs>

<g transform="matrix( 1, 0, 0, 1, 0,0) ">
<use xlink:href="#Layer0_0_FILL"/>
</g>
</svg>
