
<svg xmlns="http://www.w3.org/2000/svg" version="1.1" xmlns:xlink="http://www.w3.org/1999/xlink" preserveAspectRatio="none" x="0px" y="0px" width="550px" height="400px" viewBox="0 0 550 400">
<defs>
<g id="Layer0_0_FILL">
<path fill="#FFFFFF" stroke="none" d="
M 53 30
Q 53 28.3 56.55 25.85 50.35 26.05 35.5 30.35 20.5 34.75 20.5 36.5 20.5 37.3 20.75 37.4
L 21.5 37.5 39.95 33.95
Q 53 31.15 53 30
M 113.5 12.5
Q 113.5 11.7 113.3 11.65
L 113.1 11.75 104.75 12.6
Q 98.75 12.6 92.05 15.45 82.4 19.5 79.1 20.35 79.25 20.75 80.25 20.85
L 79.3 21.1
Q 79 21.2 79 22 79 23.25 79.35 22.75
L 80.25 23
Q 85 23 98.5 19.4 113.5 15.35 113.5 12.5 Z"/>
</g>
</defs>

<g transform="matrix( 1, 0, 0, 1, 0,0) ">
<use xlink:href="#Layer0_0_FILL"/>
</g>
</svg>
