
<svg xmlns="http://www.w3.org/2000/svg" version="1.1" xmlns:xlink="http://www.w3.org/1999/xlink" preserveAspectRatio="none" x="0px" y="0px" width="550px" height="400px" viewBox="0 0 550 400">
<defs>
<g id="Layer0_0_FILL">
<path fill="#4F4F4F" stroke="none" d="
M -2.6 -4.6
L -2.6 -4.65
Q -4.85 -5.7 -6.7 -5.6
L -8.05 -5.4
Q -10.9 -4.65 -10.9 -1.1 -10.9 0.45 -10.3 1.65 -9.1 3.75 -6.15 3.95
L -0.45 25.85
Q 0.45 29 1.2 30.3
L 0.55 31.55 0.6 31.9 -0.15 33.15
Q -0.65 34.15 -0.95 35.3
L -0.85 35.6 -0.7 35.75 -0.55 35.8 -0.35 36.1 0 36.2 6.25 36.2 6.65 36.15 6.8 36 6.8 35.15
Q 6.8 33.85 6.25 31.3
L 5.85 27.6
Q 5.85 24.95 7.4 21.7
L 8.35 19.7
Q 9.75 22.05 13.15 29.7 15.5 34.9 16.3 36.15
L 16.25 36.2 16.25 36.35 45.15 36 45.4 35.95 45.8 35.6 49.25 34.1
Q 50.1 33.65 50.8 33.35
L 51.45 33
Q 52.8 31.9 54.2 31.05 55.5 30.25 56.7 29.75 57.6 28.9 57.6 28.2
L 57.5 27.9
Q 58.05 27.05 58.05 26.45
L 58.05 26.35 57.9 24.4 55.5 21.55 50.95 21.3 41.75 23.95
Q 32.85 26.35 29.2 26.3
L 19.35 25.65 18.55 24.55 18.1 24.2 10.05 8.4
Q 7.4 3.35 5.15 0.65 1.35 -4 -2.6 -4.6
M -3.4 -4.05
L -0.6 -2.3
Q 2.95 -0.1 4 1.7
L 9.25 9.65
Q 10.15 11 13.85 18.95
L 16.35 23.85 18.3 26.45
Q 21.25 27.35 28.5 27.5 32.85 27.55 41.5 25 50.05 22.3 52.4 22.35 55 22.4 56.15 24 56.95 25.05 56.95 26.25 56.95 27.4 55.9 28.85 51.9 31.35 47.45 33.55
L 44.55 34.85 37.65 35.35 25.95 35.3
Q 19.9 34.95 17.85 35.15
L 17.05 35.3
Q 16.6 33.5 14.5 28.45 11.5 21.5 8.7 18.85
L 8.9 18.6 7.9 18.45
Q 6.7 19.75 5.75 22 4.75 24.45 4.75 26.75 4.75 28.7 5.25 31.65
L 5.9 35.2 0.85 35.2 1 34.6
Q 1 34.1 1.7 33.15 2.3 32.15 2.3 31.55
L 2.2 31.2 2.4 31.05 2.5 30.6 -1.6 16.2 -3 9.05
Q -3.65 6.6 -4.05 5.45 -4.45 4.05 -5.15 3.4
L -5.15 3.25
Q -5.15 2.6 -7.55 1.85 -9.9 1 -9.9 -1 -9.9 -2.05 -9.25 -2.85 -8.25 -4.55 -5.4 -4.5
L -3.4 -4.05 Z"/>
</g>
</defs>

<g transform="matrix( 1, 0, 0, 1, 0,0) ">
<use xlink:href="#Layer0_0_FILL"/>
</g>
</svg>
