
<svg xmlns="http://www.w3.org/2000/svg" version="1.1" xmlns:xlink="http://www.w3.org/1999/xlink" preserveAspectRatio="none" x="0px" y="0px" width="550px" height="400px" viewBox="0 0 550 400">
<defs>
<g id="Layer0_0_FILL">
<path fill="#000000" fill-opacity="0.25098039215686274" stroke="none" d="
M 14.65 20.3
Q 11.25 10.6 8.3 5.5 5.3 0.4 0 -3 1.95 -1.2 5.2 3.75 9.55 10.4 14.65 20.3
M -7.95 -4.05
Q -10.35 -3.45 -10.35 -1.35 -10.35 0.2 -9.8 1.05 -8.85 2.5 -6.4 3 -5.05 6.45 -3.05 12.95 -0.05 23.05 0.65 27.5 1.3 31.95 -0.15 35.2
L -0.15 35.95 4.95 36.05
Q 5.75 36.05 6.05 35.65 6.4 35.25 6.4 34.15 5.85 30.7 5.9 27.3 6 20.6 8.9 20.6 9.25 20.6 12 25.6 14.7 30.55 14.95 33.35 15.15 36.1 18.75 36 22.35 35.85 34.75 35.85 45.45 35.85 52.05 32.15 57.4 29.2 57.8 26.95 58.15 24.65 55.45 22.65 52.7 20.65 50.7 21.35 48.65 22 47.45 22.7 46.25 23.35 45.9 23.7
L 47.95 23.55
Q 51.75 23.55 53.05 24.1 54.05 24.55 54.05 25.8 54.05 29.8 47.6 31.85 42.6 33.45 35.45 33.45 30.2 33.45 24.6 32.15 17.8 30.55 16.7 28.05
L 13.25 19.85
Q 9.75 12.65 7.4 12.65 5.95 12.65 4.3 14.05 2.7 15.35 2.25 16.9
L -0.95 6.1
Q -3.15 -1.05 -3.15 -2.3 -2.75 -3.7 -2.1 -4 -5.15 -5.25 -7.95 -4.05 Z"/>
</g>
</defs>

<g transform="matrix( 1, 0, 0, 1, 0,0) ">
<use xlink:href="#Layer0_0_FILL"/>
</g>
</svg>
