
<svg xmlns="http://www.w3.org/2000/svg" version="1.1" xmlns:xlink="http://www.w3.org/1999/xlink" preserveAspectRatio="none" x="0px" y="0px" width="550px" height="400px" viewBox="0 0 550 400">
<defs>
<g id="Layer0_0_FILL">
<path fill="#FFFFFF" fill-opacity="0.5019607843137255" stroke="none" d="
M 39 130.55
Q 39.95 129.9 39.95 129 39.95 128.1 39 127.5 38.05 126.85 36.7 126.85 35.35 126.85 34.4 127.5 33.45 128.1 33.45 129 33.45 129.9 34.4 130.55 35.35 131.15 36.7 131.15 38.05 131.15 39 130.55
M 19.8 134
L 18.6 132.35 7.75 141
Q 3.15 144.5 3.15 145.75 3.15 146.75 3.45 147.6
L 4.5 147.7
Q 5.2 147.7 12.2 142.25 19.8 136.35 19.8 134
M 12.9 128.65
Q 12.9 127.55 12.15 126.8 11.4 126.05 10.3 126.05 9.2 126.05 8.45 126.8 7.7 127.55 7.7 128.65 7.7 129.75 8.45 130.5 9.2 131.25 10.3 131.25 11.4 131.25 12.15 130.5 12.9 129.75 12.9 128.65
M 20.8 122.6
Q 28.25 127.4 39.65 112 28.4 115.8 23.6 119.3 20.8 121.35 20.8 122.6
M 66.3 132.6
L 66.3 128.15 61.85 128.15 61.85 132.6 66.3 132.6
M 43.65 146.7
Q 47.7 145.2 47.7 140.6 47.7 133.75 39.95 138.9 36.1 141.45 32.2 145.5 32.2 146.5 32.5 147.15
L 37.25 147.45
Q 41.65 147.45 43.65 146.7
M 47.7 100.2
L 44.5 100.2 44.5 103.35 47.7 103.35 47.7 100.2
M 67.45 113.4
Q 65.55 111.3 62.7 113.9 61.2 115.25 59.35 117.65
L 53.5 122.35
Q 49.7 125.75 49.7 128.1 49.7 129.1 50.85 129.8 55.2 127.65 59.1 123.05 66.3 114.55 67.45 113.4
M 25.95 82.95
Q 27.15 82.95 28 81.55 28.8 80.1 28.8 78.05 28.8 76 28 74.6 27.15 73.15 25.95 73.15 24.75 73.15 23.95 74.6 23.1 76 23.1 78.05 23.1 80.1 23.95 81.55 24.75 82.95 25.95 82.95
M 35.1 59.1
Q 35.1 60.25 35.9 61.05 36.7 61.85 37.8 61.85 38.9 61.85 39.7 61.05 40.5 60.25 40.5 59.1 40.5 57.95 39.7 57.15 38.9 56.35 37.8 56.35 36.7 56.35 35.9 57.15 35.1 57.95 35.1 59.1
M 22.35 29.7
Q 24.65 29.7 26.25 28.8 27.85 27.85 27.85 26.55 27.85 25.25 26.25 24.35 24.65 23.4 22.35 23.4 20.05 23.4 18.45 24.35 16.85 25.25 16.85 26.55 16.85 27.85 18.45 28.8 20.05 29.7 22.35 29.7
M 43.45 34
Q 51.6 23.95 51.95 21.05
L 32.2 41.15
Q 16.25 57.45 16.25 61.3 16.25 62.05 17.5 63.15 18.7 61.25 21.25 58.1 26.25 51.9 33.85 44.95 36.6 42.4 43.45 34
M 67.8 33.1
Q 67.8 32.5 67.35 32.2
L 66.9 32.05
Q 59.7 46 38.3 85.2 27.65 104.65 27.65 108.5 27.65 109.8 27.8 109.95
L 28.85 110.6
Q 49.4 77.4 58.8 58.6 67.8 40.55 67.8 33.1
M 57.1 41.15
Q 57.1 39.6 56 38.5 54.85 37.35 53.3 37.35 51.75 37.35 50.65 38.5 49.5 39.6 49.5 41.15 49.5 42.7 50.65 43.85 51.75 44.95 53.3 44.95 54.85 44.95 56 43.85 57.1 42.7 57.1 41.15
M 60.55 25.65
Q 59.45 26.35 59.45 27.35 59.45 28.35 60.55 29.05 61.6 29.75 63.1 29.75 64.6 29.75 65.7 29.05 66.75 28.35 66.75 27.35 66.75 26.35 65.7 25.65 64.6 24.95 63.1 24.95 61.6 24.95 60.55 25.65 Z"/>
</g>
</defs>

<g transform="matrix( 1, 0, 0, 1, 0,0) ">
<use xlink:href="#Layer0_0_FILL"/>
</g>
</svg>
