
<svg xmlns="http://www.w3.org/2000/svg" version="1.1" xmlns:xlink="http://www.w3.org/1999/xlink" preserveAspectRatio="none" x="0px" y="0px" width="550px" height="400px" viewBox="0 0 550 400">
<defs>
<g id="Layer0_0_FILL">
<path fill="#FFFFFF" stroke="none" d="
M 86.85 41.55
L 86.9 39.25 86.6 37.05 86.85 41.55
M 5.25 41.15
Q 3.85 37.55 3.85 36.9
L 3.95 35.8 4.3 35.35 5.85 36.75 1.25 22.65 0.55 39.6
Q 0.4 47 1.25 60 2 60.95 2.7 62.85 3.65 65.65 3.7 68.25
L 2.55 73.4
Q 3.05 73.6 2.15 73.6
L 3.1 88.05 2.9 92.4 2.25 92.7
Q 4 97.75 4 99.05
L 3.85 101.9 4.1 102.85
Q 5.7 106.25 7.7 108.15 12.15 112.6 19.75 109.9 18.8 104.7 17.35 94.35
L 16.05 84.65
Q 16 83.2 14.55 78.3 13.3 74.3 13.7 74.25
L 13.95 74.35
Q 10.6 56.4 10.05 54.75
L 5.25 41.15
M 2.8 46.75
L 2.85 45.35 3.25 45.1 3.45 44.8
Q 5.35 46.05 6.7 49.75 7.65 52.45 7.65 53.65
L 7.35 55.45
Q 6.75 56.8 5.85 56.9 4.95 56.85 3.8 52 2.85 47.9 2.8 46.75
M 11.9 80.1
L 12.75 85.95 12.6 89.55 12.55 89.65
Q 12.35 89.95 12.25 90.6
L 11.15 91.1
Q 10.05 88.1 9.75 86.15 9.3 83.9 9.3 79.45 9.25 78.45 9.6 77 9.9 75.5 10.3 74.55
L 11 73.7
Q 11 74.85 11.9 80.1
M 3.7 88.15
Q 5.7 88.6 6.85 92.25 7.7 95.3 7.8 99.6
L 7.7 102.2
Q 7.6 102.55 6.6 102.5 3.4 97.9 3.7 88.15
M 81.15 22.35
L 81.25 22.2 80 19.65 78.9 19.55
Q 77.1 19.55 73.45 28.2 69.9 36.8 66.05 50.15 56.6 83.2 55.05 111.35
L 61.3 110.9
Q 67.85 110.6 69.1 110.85 73.9 88.2 78.9 69.65
L 78.85 68.85 82.05 58.25
Q 83.1 53.7 83.15 49.8 83.15 49.15 83.7 46.15
L 84.25 42.4 84.25 42.25 83.4 45.35 80.75 45.55 80.55 41.55 81.3 36.45
Q 82.1 33.95 83.55 33.05
L 83 28.05 82.6 26.2 82.1 26.4
Q 81.55 26.35 81.2 25.7 80.8 25 80.75 23.95 80.65 22.95 81.15 22.35
M 70.35 47.45
Q 70.3 45.75 71.5 43.85 72.4 42.25 75.55 38.35 75.65 38.5 75.75 38.45
L 75.8 39.4
Q 75.9 42.45 75.35 44.7 74.4 48 71.9 50.3 70.3 47.95 70.35 47.45
M 76.45 57.2
Q 76.7 58.25 75.5 63.8 74.3 69.35 73.55 70.7
L 72.9 70.2
Q 72.25 69.8 72.25 67.45 72.15 63.85 73 60.9 74.15 56.9 76.45 57.2
M 66.35 77.45
L 65.65 88.75 62.6 89
Q 62.2 87.45 62.2 86.1
L 63.2 80.85
Q 64.35 75.55 65 74 65.35 74.65 66.1 74.95
L 66.35 77.45
M 64.55 110.35
L 64.4 110
Q 64.2 109.95 64.2 108.55 65.9 102.35 66.4 99.5 66.9 100.65 67.2 103.45 67.6 106.75 67.4 110.05
L 65.2 110.45 64.55 110.35 Z"/>

<path fill="#000000" stroke="none" d="
M 84.3 23.7
L 84.3 23.55 83.65 21.6
Q 81.1 16.1 80.25 13.6 76.3 10.65 71.6 9.2 64.2 6.9 49.1 6.35
L 18.3 8.75 17.9 8.85
Q 17.3 8.9 11.5 11
L 7.4 12.6
Q 6.1 13.1 0.95 17.95
L 0.9 18.1 -0.55 25.85
Q -0.6 27.65 -0.05 29.15
L -0.55 55.2
Q -0.55 68.35 0.3 78.6 1.2 90.35 1 99.9
L 0.95 102.3
Q 1.6 104.7 2.2 106.25 3.65 120 3.85 136.25
L 2.4 147.75
Q 2.4 150.15 11 152
L 18.5 153.2 19.4 153.2 19.05 153.05 19.65 153
Q 45.15 154.15 57.85 153.3 73.35 152.3 73.3 148.25
L 71.2 122.4
Q 71.15 115.15 72.55 106.55 73.8 99.15 78.2 80.05 79 76.45 80.8 70.3 83.35 69.25 85.6 54.3
L 86.55 51.2
Q 86.2 49.95 86.15 48.3
L 86.85 41.55 86.6 37.05 85.45 31.5
Q 84.25 26.1 84.3 23.7
M 82.6 26.2
L 83 28.05 83.55 33.05 84.25 42.25 84.25 42.4 83.7 46.15
Q 83.15 49.15 83.15 49.8 83.1 53.7 82.05 58.25
L 78.85 68.85 78.9 69.65
Q 73.9 88.2 69.1 110.85 67.85 110.6 61.3 110.9
L 55.05 111.35
Q 56.6 83.2 66.05 50.15 69.9 36.8 73.45 28.2 77.1 19.55 78.9 19.55
L 80 19.65 81.25 22.2 82.6 26.2
M 65.8 13.7
Q 73.65 14.45 76.5 18.45 64.75 40.5 56.5 62.9 54.3 68.95 48.5 79.35 42.05 90.7 35.35 99.75 34.45 100.95 32 106.2
L 29.65 111.1 22.4 110.3
Q 21.95 102.15 19 91.35 16.35 81.55 16.2 65.1 16.2 60.95 26.95 47.45 31.8 41.4 52.15 18.1 57.3 12.8 65.8 13.7
M 47.55 12.5
Q 47.85 12.7 47.8 13.7 47.8 14.45 33.6 32.2 19.25 49.95 17.7 49.95 15.9 49.95 10 35.9 4.2 22.05 4.15 17.95 4.15 16.45 13.2 14.9 25 12.9 46.55 12.45
L 47.55 12.5
M 3.85 36.9
Q 3.85 37.55 5.25 41.15
L 10.05 54.75
Q 10.6 56.4 13.95 74.35
L 13.7 74.25
Q 13.3 74.3 14.55 78.3 16 83.2 16.05 84.65
L 17.35 94.35
Q 18.8 104.7 19.75 109.9 12.15 112.6 7.7 108.15 5.7 106.25 4.1 102.85
L 3.85 101.9 4 99.05
Q 4 97.75 2.25 92.7
L 2.9 92.4 3.1 88.05 2.15 73.6 1.25 60
Q 0.4 47 0.55 39.6
L 1.25 22.65 5.85 36.75 4.3 35.35 3.95 35.8 3.85 36.9
M 13.95 74.95
L 14 74.75 14.2 75.55
Q 13.7 75.5 13.95 74.95
M 51.75 92.4
Q 51.85 95.65 51.6 96.9 51.3 98.1 51.25 102.45
L 51.2 108.4 39.9 108.65
Q 38.35 109.75 36.75 109.75
L 35.9 109.5 35.55 109.25 35.45 107.65 40.9 98.6 43.9 94.5
Q 48.15 89 51.15 87.9 51.6 89.1 51.75 92.4
M 6.7 147.6
L 6.6 133.7 6.2 132.75 5.95 130.2
Q 5.9 128 6.6 126.65
L 6.4 112.7 69.3 114.3 69.95 150.2 6.7 147.6
M 41.15 103.25
Q 38.9 106.05 49.1 105.15 47.35 101.2 48.9 95.55 43.3 100.5 41.15 103.25
M 17.55 44.15
Q 24.1 38 32.05 28.75
L 41.75 16.75 7.8 19.25
Q 9.4 28.15 17.55 44.15 Z"/>

<path fill="#00CC66" stroke="none" d="
M 14 74.75
L 13.95 74.95
Q 13.7 75.5 14.2 75.55
L 14 74.75 Z"/>
</g>
</defs>

<g transform="matrix( 1, 0, 0, 1, 0,0) ">
<use xlink:href="#Layer0_0_FILL"/>
</g>
</svg>
