
<svg xmlns="http://www.w3.org/2000/svg" version="1.1" xmlns:xlink="http://www.w3.org/1999/xlink" preserveAspectRatio="none" x="0px" y="0px" width="550px" height="400px" viewBox="0 0 550 400">
<defs>
<g id="Layer0_0_FILL">
<path fill="#F7CE0D" stroke="none" d="
M 69.7 113.95
L 68.15 113.65
Q 62.95 113.55 58.2 119.65 52.85 127.85 49.9 131.85 49.05 127 47.5 122.85 44.45 114.7 37.95 114.5 33.8 114.3 28.5 117.8 22.65 121.55 22.35 125.9 16.5 117.8 14.7 116.55 12.9 115.05 6 113.45 6.15 115.1 13.35 121.3 20.5 127.35 20.5 129.5 20.5 133.1 12.4 139.25 5.95 144.1 2.85 145.15 3.2 145.95 4.65 146.8 6.05 147.55 6.9 147.6 10.55 147.7 14.1 143.55
L 21.9 132.2
Q 23.15 138.25 25.75 142.65 29.55 149.1 35.15 149.35 40.7 149.55 45.4 144.5 47.25 142.5 49.75 138.15 53.95 148.9 61.6 149.25 72.35 149.7 74.15 149.2 74.85 148.95 74.75 148.5
L 74.35 147.8 62.65 144.05
Q 51.05 140.15 51 136.05 50.95 134.6 59.25 125.5 67.55 116.45 70.05 115.15
L 69.7 113.95
M 48.2 134.3
Q 48.25 139.55 41.65 143.25
L 34.9 145.8
Q 32.9 145.65 31.15 142.55 27.95 135.9 24.15 129.15 26.5 122.2 30.7 119.95 34.35 117.95 38.6 119.85 42.45 121.5 45.3 125.7 48.15 129.9 48.2 134.3 Z"/>

<path fill="#DE0000" stroke="none" d="
M 35.6 64.5
Q 36.85 66.7 38.6 66.8 40.35 66.75 41.6 64.45 42.8 62.15 42.85 58.9 42.75 55.7 41.5 53.45 40.15 51.05 38.4 51.1 36.65 51.05 35.45 53.45 34.2 55.7 34.3 58.85 34.25 62.15 35.6 64.5
M 27.1 69.15
L 23.65 74.05
Q 21.6 76.75 21.05 78
L 22.4 82.45
Q 24.05 86.55 26.1 86.6 26.65 86.6 30.5 80.15 30.5 77.5 29.75 74.6 28.75 70.65 27.1 69.15
M 53.3 36.6
L 50.95 36.2
Q 49.55 36.15 48.6 37.55 48.4 37.7 47.1 40.2 47.9 42.55 48.7 42.6
L 49.5 42.05
Q 49.85 42.05 51.7 45.55 53.6 48.95 54.35 48.95 56.7 48.95 57.5 46.45 57.85 44.95 57.85 41.9
L 57.7 40.1 57.35 38.95 56.45 39.95
Q 55.6 37.4 53.3 36.6
M 67.3 24.55
Q 64.05 20.5 62.9 20.5 60.35 20.5 60.45 26.95 60.45 28.4 61.8 31.15 63.55 34.75 65.85 34.75 66.4 34.75 68.35 32.3 70.35 29.9 70.35 29 70.3 28.35 67.3 24.55 Z"/>
</g>
</defs>

<g transform="matrix( 1, 0, 0, 1, 0,0) ">
<use xlink:href="#Layer0_0_FILL"/>
</g>
</svg>
