
<svg xmlns="http://www.w3.org/2000/svg" version="1.1" xmlns:xlink="http://www.w3.org/1999/xlink" preserveAspectRatio="none" x="0px" y="0px" width="550px" height="400px" viewBox="0 0 550 400">
<defs>
<g id="Layer0_0_FILL">
<path fill="#000000" fill-opacity="0.32941176470588235" stroke="none" d="
M 87.25 43.55
Q 87.25 40.35 86.65 36.3 83.85 17.3 76.35 11.95 72.7 9.35 66.6 8.45
L 52.7 7.8
Q 24.5 7.8 13.25 11 -0.5 14.95 -0.5 25.8
L 0.8 46.15 0 68.05
Q 0 83.85 2.3 100.4 4.55 117 4.55 125.1 4.55 128.45 3.8 135 3 141.6 3 144.15 3 150.5 21 152.9 39 155.3 50.85 153.25 62.65 151.2 67.6 151.2 72.5 151.15 72.5 144.85
L 71.5 129.5
Q 71.5 113.5 79.4 77.3 83.3 59.15 87.25 43.55
M 62.85 16.7
Q 70.45 17.4 73.8 19.55 77.4 21.9 77.4 26.6 77.4 32.4 68.5 74.5 59.6 116.65 59.6 117.15 59.6 118.7 60.7 124.45 61.8 130.25 61.8 133.55 61.8 142.65 59.7 146.55 57.6 150.5 52.75 150.5
L 41.05 150.65
Q 33.4 150.6 28.4 149.45 14.2 146.2 14.2 132.75 14.2 125.2 14.8 121.15
L 15.35 116.55
Q 15.35 115.95 12.75 108.85
L 9.9 100.95
Q 8.65 95.4 7.05 82.2 5.05 65.6 5.05 54.75 5.05 34.9 12.5 31.35
L 17.6 30.05
Q 19.9 29.55 19.9 27.4 19.9 25.7 16.35 22.8 12.8 19.85 12.8 18.3 12.8 17.65 13.75 17.2 15.05 16.55 17.85 16.55
L 44.3 16.3
Q 56.95 16.2 62.85 16.7 Z"/>
</g>
</defs>

<g transform="matrix( 1, 0, 0, 1, 0,0) ">
<use xlink:href="#Layer0_0_FILL"/>
</g>
</svg>
