
<svg xmlns="http://www.w3.org/2000/svg" version="1.1" xmlns:xlink="http://www.w3.org/1999/xlink" preserveAspectRatio="none" x="0px" y="0px" width="550px" height="400px" viewBox="0 0 550 400">
<defs>
<g id="Graphics_Symbol_350_0_Layer2_0_FILL">
<path fill="#C9D39A" stroke="none" d="
M 125.35 35.1
Q 125.35 31.35 122.15 25.35 118.4 18.45 112.4 12.85 96 -2.45 72.6 0.5 40.05 0.75 18.4 23.05 9.75 31.9 4.85 42.45 0.35 52.15 0.35 60 1 74.75 4.35 89.2 8.55 107.4 15.45 114.2
L 15.85 115.15 16.85 115.95
Q 17.3 116.45 19 116.8 21.6 118.2 24.6 118.2
L 26.6 117.85 26.9 117.65 30.1 117.75
Q 37.6 117.95 70.6 117.95
L 78.05 117.2 86.6 116.45
Q 100.5 116.35 104.75 114.2 106.35 113.4 106.35 111.7 106.35 111.25 105.4 110.85 117.65 104.7 122.6 74.5 125.75 55.4 125.35 35.1 Z"/>
</g>

<g id="Graphics_Symbol_350_0_Layer1_0_FILL">
<path fill="#DCC592" stroke="none" d="
M 109.05 79
Q 112.9 66.2 110.6 51.25 110.6 31 94.75 21.55 80.1 12.85 59.85 17.05 38.95 21.4 24.95 37.15 9.1 55.1 9.1 81.35
L 8.85 86.05
Q 8.7 91.6 9.15 96.15 10.55 110.7 17.6 110.7 19.1 110.7 19.85 110.2
L 20.6 109.7
Q 20.7 109.2 20.95 108.75
L 21.1 107.05
Q 21.1 106 19.5 103.05 17.85 100.05 17.85 98.45 17.05 93.05 16.95 86.05 16.65 72.3 19.9 61.05 30.1 25.25 71.6 25.25 94.05 25.25 100.65 43.8 104 53.2 102.85 64 103.3 72.55 99.65 80.5 92.35 96.2 71.6 96.2 53.6 96.2 46.15 83 41.85 75.4 41.85 66.1 40.9 60.3 42.65 54.5 46.2 43 59.95 43 74.4 43 80.15 54 83.35 60.1 83.35 68.25 83.35 69.65 82.6 71 81.25 73.5 77.95 73.5 74.55 73.5 70.6 70.5 66.85 67.6 66.85 65.6 67.8 62.8 67.85 60.15 68 55 63.6 55 59.3 55 58.4 60 57.95 62.5 58.35 65.25
L 58.35 68.35
Q 58.6 71.6 59.9 74.25 64.1 82.5 77.6 82.5 87.2 82.5 90.35 76.75 91.85 74 91.85 68.5 91.85 58.8 87.85 50.5 79.95 34 59.6 34 39.25 34 34.4 48.5 32.8 53.2 32.9 59.35
L 33.35 66.1
Q 33.35 74 33.6 75.9 34.35 81.8 37.6 85.95 41.8 91.6 50.75 97.25 61.7 104.2 70.6 104.2 101.5 104.2 109.05 79 Z"/>
</g>

<g id="Graphics_Symbol_350_0_Layer0_0_FILL">
<path fill="#000000" fill-opacity="0.25098039215686274" stroke="none" d="
M 42.75 55.15
Q 42.25 67.4 42.6 74.25 47.25 55 68.6 44.25 43.2 42.9 42.75 55.15
M 68.1 59
L 65.2 62.45 67.5 71.8 72.8 70.05 68.1 59
M 42.5 33.95
L 49.85 26
Q 23 35.4 17.6 75.25
L 25.25 56.75 42.5 33.95
M 117.85 54.45
Q 118.7 77.85 98.75 96.15 78.55 114.6 44.6 92.2
L 62.65 106.95 73.1 107.2 38.6 118.2
Q 83.9 119.1 114.6 113.2 121.2 88.75 125.35 50.9 127.8 20.3 106.6 8.25 121.7 32.3 117.85 54.45
M 91.8 83.3
L 92.6 83.25 98.7 72.4 98.5 71.6 92.6 40.25
Q 98.6 79.2 74.8 78.05 69.6 77.75 67.55 81.75
L 59.6 83.25 91.8 83.3 Z"/>

<path fill="#FFFFFF" fill-opacity="0.5019607843137255" stroke="none" d="
M 66.35 53.1
L 66.25 52.6
Q 54.6 50.55 51.1 62.35
L 51.6 73.25
Q 56.85 56.25 66.35 53.1
M 64.15 2.2
Q 57.85 3.25 52.2 4.95
L 50.6 5.25 51.55 5.15
Q 25.95 12.8 12.45 32.1 0.25 49.6 0 70.55
L 3.35 71.5
Q 10.4 119.65 9.6 104.05 6.65 73.55 12.25 49.35 17.85 25.15 81.6 0.25
L 64.15 2.2
M 60.8 32.95
L 42.5 33.95 25.25 56.75 27.9 58.3
Q 26.55 70.85 30.5 78.6 34.4 86.25 35.4 61.1 36.35 35.85 60.8 32.95
M 102.25 57
L 98.5 71.6 98.7 72.4 92.6 83.25 91.8 83.3
Q 82.35 91.85 69.9 94.65
L 66.8 95.15
Q 86.8 97.75 100.05 83 110.45 71.3 98.6 40.25
L 102.25 57
M 84.1 67
L 81.1 57 73.7 68.9 77 72.85 84.1 67 Z"/>
</g>
</defs>

<g transform="matrix( 1, 0, 0, 1, -62.8,-59.15) ">
<g transform="matrix( 1, 0, 0, 1, 0,0) ">
<g transform="matrix( 1, 0, 0, 1, 0,0) ">
<use xlink:href="#Graphics_Symbol_350_0_Layer2_0_FILL"/>
</g>

<g transform="matrix( 1, 0, 0, 1, 0,0) ">
<use xlink:href="#Graphics_Symbol_350_0_Layer1_0_FILL"/>
</g>

<g transform="matrix( 1, 0, 0, 1, 0,0) ">
<use xlink:href="#Graphics_Symbol_350_0_Layer0_0_FILL"/>
</g>
</g>
</g>
</svg>
