
<svg xmlns="http://www.w3.org/2000/svg" version="1.1" xmlns:xlink="http://www.w3.org/1999/xlink" preserveAspectRatio="none" x="0px" y="0px" width="550px" height="400px" viewBox="0 0 550 400">
<defs>
<g id="Graphics_Symbol_187_0_Layer2_0_FILL">
<path fill="#DFA688" stroke="none" d="
M 39.3 144.55
Q 35.85 142.75 32.3 142.15 27.05 180.95 21.4 219.5 15.75 258.25 3.65 293.3
L 0 303.85
Q 53.85 334.55 112.15 303.85
L 109.9 293.9
Q 99.45 244.35 90.5 194.1 88.65 183.6 87.75 172.75 86.9 162.15 86.4 151.55 73.9 154.2 61.4 152.45 50.15 150.4 39.3 144.55 Z"/>

<path fill="#BB8875" stroke="none" d="
M 55.95 135.75
Q 55 135.5 54.2 136.2
L 53.75 137.95
Q 69.25 145.15 84.75 131.65
L 84.8 131.55 84.7 131.35 84.15 130.75 78.8 132.05 78 130.4
Q 67.55 139.3 55.95 135.75
M 45.95 122.3
L 45.8 124.65
Q 66.35 139.25 82.25 116.75
L 80.6 116.95
Q 71.85 120 63.3 124.4
L 45.95 122.3
M 76.55 85.05
Q 67.55 86.6 58 83.4 48.35 80.15 40.85 84.4
L 40.85 87
Q 56.9 86.45 64.85 93.85 73.55 92.35 76.55 85.05 Z"/>

<path fill="#725035" stroke="none" d="
M 62.1 114.85
Q 68.85 116.65 74.2 109.75
L 68.45 109.1 68.3 108.9
Q 52.35 110.35 37.15 105.75
L 32.3 142.15
Q 35.85 142.75 39.3 144.55 50.15 150.4 61.4 152.45 73.9 154.2 86.4 151.55
L 84.75 131.65
Q 69.25 145.15 53.75 137.95
L 54.2 136.2
Q 55 135.5 55.95 135.75 67.55 139.3 78 130.4
L 78.8 132.05 84.15 130.75 84.7 131.35 84.45 68.6 42.5 66.1 37.15 105.75
Q 52.35 110.35 68.3 108.9
L 68.45 109.1 74.2 109.75
Q 68.85 116.65 62.1 114.85 49.5 112.2 37.15 105.8 49.5 112.2 62.1 114.85
M 58 83.4
Q 67.55 86.6 76.55 85.05 73.55 92.35 64.85 93.85 56.9 86.45 40.85 87
L 40.85 84.4
Q 48.35 80.15 58 83.4
M 45.8 124.65
L 45.95 122.3 63.3 124.4
Q 71.85 120 80.6 116.95
L 82.25 116.75
Q 66.35 139.25 45.8 124.65 Z"/>

<path fill="#DEC19F" stroke="none" d="
M 67.1 21.25
L 63.25 32.15
Q 67.25 34.5 67.1 21.25
M 75.65 5.9
L 74.2 5.6 72.75 7.25 72.5 6.05
Q 68.95 10.1 67 11.3
L 66 13.15 65.85 11.75 60.65 10.15 60.15 11.1 60.3 9.95
Q 57.7 8.45 54.5 5.75
L 54.15 5.8 53.25 8.05 54.15 13.75 57.1 15.8 57.1 17.85 60.65 18.25 62.8 14.15 63.2 19.15 67.2 21.15 69.15 15.7 70.15 21.5 71.75 22.6 79.7 18.15 80.65 20.8 83 16.7 78.25 9.3 74.4 15.45 75.65 5.9 Z"/>

<path fill="#6F5B52" stroke="none" d="
M 44.3 45.9
L 44.4 45.7 44.3 45.85 44.3 45.9
M 84.45 68.6
L 84 49.5
Q 65.05 42.15 44.3 45.9
L 42.5 66.1 84.45 68.6 Z"/>

<path fill="#E0C8B8" stroke="none" d="
M 70.15 21.5
L 67.35 21.25
Q 69.65 22.3 71.75 22.6
L 70.15 21.5
M 84 49.5
L 83.25 31.95 80.8 31.7 80.55 30.55 78.1 28.2
Q 74.6 30.3 67.1 21.25 67.25 34.5 63.25 32.15
L 67.1 21.25 48.25 23.1 49.05 20.05 47.7 19.15 44.3 45.85 44.4 45.7 44.3 45.9
Q 65.05 42.15 84 49.5
M 44.55 45.45
L 46.1 41.7 46.25 41.9 44.55 45.45 Z"/>

<path fill="#565E55" stroke="none" d="
M 83.25 31.95
Q 83.95 24.3 83 16.7
L 80.65 20.8 79.7 18.15 71.75 22.6
Q 69.65 22.3 67.35 21.25
L 70.15 21.5 69.15 15.7 67.2 21.15 63.2 19.15 62.8 14.15 60.65 18.25 57.1 17.85 57.1 15.8 54.15 13.75 53.25 8.05 54.15 5.8 54.5 5.75
Q 57.7 8.45 60.3 9.95
L 60.15 11.1 60.65 10.15 65.85 11.75 66 13.15 67 11.3
Q 68.95 10.1 72.5 6.05
L 72.75 7.25 74.2 5.6 75.65 5.9 74.4 15.45 78.25 9.3 83 16.7 79.95 2.5 78.2 2
Q 77.85 0.75 73.85 0.3 70 -0.1 64.35 0.4 58.75 0.95 54.8 2 50.45 3.2 50.45 4.45
L 50.45 4.6
Q 48.55 10.9 47.7 19.15
L 49.05 20.05 48.25 23.1 67.1 21.25
Q 74.6 30.3 78.1 28.2
L 80.55 30.55 80.8 31.7 83.25 31.95 Z"/>
</g>

<g id="Graphics_Symbol_187_0_Layer1_0_FILL">
<path fill="#6F5B52" fill-opacity="0.5019607843137255" stroke="none" d="
M 59.45 39.8
Q 53.75 19.25 50.1 36.2
L 51.5 38.85 54.95 36.55 57.65 40.75
Q 58.55 40.3 59.45 39.8 Z"/>

<path fill="#000000" fill-opacity="0.5019607843137255" stroke="none" d="
M 84.45 94.9
Q 84.9 74.55 84.7 55.2 84.5 35.85 83.4 21.95 82.3 8.05 79.8 2.4 69.8 -1.45 62.9 0.85
L 62.85 8.55
Q 60.6 34.1 59.75 59.8 59.1 80.4 65.15 95.7 71.8 112.5 69.8 135.55 67.65 160.55 67.35 185.9 67.1 202.55 71.4 217.2 74.25 226.85 73.7 237.2 72.3 260.75 63.35 280.05 58.35 290.85 54.5 319.4 86.4 322.35 114 303.85 112.4 297.65 111.15 291.2
L 96.15 213.95 92.2 192.1
Q 87.7 165.15 85.85 140.2 83.95 115.25 84.45 94.9 Z"/>
</g>

<g id="Graphics_Symbol_187_0_Layer0_0_FILL">
<path fill="#000000" fill-opacity="0.5019607843137255" stroke="none" d="
M 31.7 276.65
Q 34.45 267.2 33.7 257.65
L 33.6 257.25
Q 21.15 270.2 25.25 289.6 25.65 291.35 27.45 290.75
L 31.7 276.65
M 61.75 118.1
L 62.45 115.75
Q 50.85 103.15 40.15 116.2
L 61.75 118.1
M 63.55 133.35
Q 59.05 125.25 52.75 129
L 52.05 132.4 63.55 133.35
M 69.85 132.7
L 71.35 133.3
Q 82.35 134.35 84 124 77.15 119.45 69.85 132.7
M 58.7 146.65
Q 67.85 148.05 76.35 141.8
L 76.4 139.05
Q 67.2 140.25 58.7 146.65
M 61.1 95.75
L 47.85 93.5 48.05 96
Q 54.2 99.5 60.95 99.15
L 61.1 95.75
M 73.25 41.5
Q 68.05 33.6 68.3 48
L 68.5 48.75 72.8 47.8 69.85 45.55 69.75 41.9 73.25 41.5
M 64.7 39.85
L 59.05 44.8
Q 59.35 51.25 62.3 54.15
L 62.95 53.1
Q 66.4 47.85 65.9 40.9
L 64.7 39.85
M 81.85 91.1
L 81.8 88.95
Q 70.55 85.75 63.55 100.25 72.7 99.5 81.05 92.05
L 81.85 91.1 Z"/>
</g>
</defs>

<g transform="matrix( 1, 0, 0, 1, -57,-159.9) ">
<g transform="matrix( 1, 0, 0, 1, 0,0) ">
<g transform="matrix( 1, 0, 0, 1, 0,0) ">
<use xlink:href="#Graphics_Symbol_187_0_Layer2_0_FILL"/>
</g>

<g transform="matrix( 1, 0, 0, 1, 0,0) ">
<use xlink:href="#Graphics_Symbol_187_0_Layer1_0_FILL"/>
</g>

<g transform="matrix( 1, 0, 0, 1, 0,0) ">
<use xlink:href="#Graphics_Symbol_187_0_Layer0_0_FILL"/>
</g>
</g>
</g>
</svg>
