
<svg xmlns="http://www.w3.org/2000/svg" version="1.1" xmlns:xlink="http://www.w3.org/1999/xlink" preserveAspectRatio="none" x="0px" y="0px" width="550px" height="400px" viewBox="0 0 550 400">
<defs>
<linearGradient id="Gradient_1" gradientUnits="userSpaceOnUse" x1="27.8625" y1="-21.7875" x2="29.337500000000002" y2="24.1875" spreadMethod="pad">
<stop  offset="0%" stop-color="#F1ECF7"/>

<stop  offset="100%" stop-color="#DDFF00"/>
</linearGradient>

<g id="Layer0_0_FILL">
<path fill="url(#Gradient_1)" stroke="none" d="
M 6.25 -1.15
Q 4.75 -2.1 3.1 -2.15 1.45 -2.15 -0.15 -1.3
L 0 -9.25 -5.15 -9.3 -5.95 14.5 -1.05 14.55 -0.75 12.2 -0.1 13.35 0.85 14.15 2.3 14.45 4.55 14.15
Q 5.85 13.85 6.9 12.95 7.9 12.05 8.65 10.55
L 9.7 7.35
Q 9.95 5.7 9.8 4.1 9.6 2.35 8.7 1.05 7.85 -0.25 6.25 -1.15
M 0 3.45
Q 0.9 2.95 1.75 2.8 2.55 2.7 3.2 3.1
L 4.25 4.05
Q 4.6 4.65 4.6 5.4
L 4.4 6.8 3.85 7.8 2.95 8.45 1.85 8.5 0.8 8.05 0.05 7.2 -0.3 5.7 0 3.45 Z"/>
</g>
</defs>

<g transform="matrix( 1, 0, 0, 1, 0,0) ">
<use xlink:href="#Layer0_0_FILL"/>
</g>
</svg>
