
<svg xmlns="http://www.w3.org/2000/svg" version="1.1" xmlns:xlink="http://www.w3.org/1999/xlink" preserveAspectRatio="none" x="0px" y="0px" width="550px" height="400px" viewBox="0 0 550 400">
<defs>
<linearGradient id="Gradient_1" gradientUnits="userSpaceOnUse" x1="27.912499999999998" y1="-21.7875" x2="29.3875" y2="24.1875" spreadMethod="pad">
<stop  offset="0%" stop-color="#F1ECF7"/>

<stop  offset="100%" stop-color="#DDFF00"/>
</linearGradient>

<g id="Layer0_0_FILL">
<path fill="url(#Gradient_1)" stroke="none" d="
M 15.65 -9.25
L 10.5 -9.3 9.7 14.5 14.6 14.55 14.95 12.2 15.55 13.35 16.5 14.15 17.95 14.45 20.25 14.15
Q 21.5 13.85 22.55 12.95 23.55 12.05 24.3 10.55
L 25.35 7.35
Q 25.6 5.7 25.45 4.1 25.3 2.4 24.4 1.05 23.55 -0.2 21.9 -1.15 20.4 -2.1 18.75 -2.15 17.1 -2.15 15.55 -1.3
L 15.65 -9.25
M 17.4 2.8
Q 18.2 2.7 18.85 3.1
L 19.9 4.05
Q 20.3 4.65 20.3 5.4
L 20.1 6.8 19.5 7.8 18.6 8.45 17.5 8.5 16.5 8.05 15.7 7.2
Q 15.4 6.55 15.4 5.7
L 15.65 3.45
Q 16.55 2.95 17.4 2.8 Z"/>
</g>
</defs>

<g transform="matrix( 1, 0, 0, 1, 0,0) ">
<use xlink:href="#Layer0_0_FILL"/>
</g>
</svg>
