
<svg xmlns="http://www.w3.org/2000/svg" version="1.1" xmlns:xlink="http://www.w3.org/1999/xlink" preserveAspectRatio="none" x="0px" y="0px" width="550px" height="400px" viewBox="0 0 550 400">
<defs>
<linearGradient id="Gradient_1" gradientUnits="userSpaceOnUse" x1="27.8625" y1="-21.7875" x2="29.337500000000002" y2="24.1875" spreadMethod="pad">
<stop  offset="0%" stop-color="#F1ECF7"/>

<stop  offset="100%" stop-color="#DDFF00"/>
</linearGradient>

<g id="Layer0_0_FILL">
<path fill="url(#Gradient_1)" stroke="none" d="
M 36.4 -1.9
Q 35.2 -1.65 34.2 -1 33.2 -0.45 32.25 0.7 31.4 1.65 31 2.85 30.55 3.9 30.5 5.45 30.5 6.9 30.65 7.95
L 31.25 9.95 32.2 11.55 33.35 12.75 34.75 13.6 36.65 14.35 38.9 14.7 41.15 14.45 43.45 13.45 45.8 11.4 42.3 8.4
Q 41.4 9.25 40.4 9.7
L 38.65 10.05
Q 37.8 10 37.05 9.5 36.4 9.15 35.85 8.25
L 46.2 7.6 46.15 5.15 45.8 3.1 45.1 1.45 44.15 0 42.7 -1.15 40.9 -1.9 38.75 -2.15 36.4 -1.9
M 37.45 2.55
L 38.95 2.6
Q 39.85 2.75 40.3 3.25 40.9 3.9 41.05 4.85
L 35.5 4.85 35.85 3.8
Q 35.95 3.4 36.4 3 36.75 2.65 37.45 2.55 Z"/>
</g>
</defs>

<g transform="matrix( 1, 0, 0, 1, 0,0) ">
<use xlink:href="#Layer0_0_FILL"/>
</g>
</svg>
