
<svg xmlns="http://www.w3.org/2000/svg" version="1.1" xmlns:xlink="http://www.w3.org/1999/xlink" preserveAspectRatio="none" x="0px" y="0px" width="550px" height="400px" viewBox="0 0 550 400">
<defs>
<linearGradient id="Gradient_1" gradientUnits="userSpaceOnUse" x1="27.8625" y1="-21.7875" x2="29.337500000000002" y2="24.1875" spreadMethod="pad">
<stop  offset="0%" stop-color="#F1ECF7"/>

<stop  offset="100%" stop-color="#DDFF00"/>
</linearGradient>

<g id="Layer0_0_FILL">
<path fill="url(#Gradient_1)" stroke="none" d="
M 50.15 -8.2
L 46.9 -7.4 46.3 14.2 55.3 14.85 58.25 14.45
Q 59.55 14.2 60.5 13.65 61.45 13.25 62.05 12.25 62.55 11.25 62.7 10.05 62.85 8.75 62.45 7.65 62.05 6.6 61.25 5.7 60.5 4.9 59.6 4.35 58.7 3.85 57.85 3.65 60.15 3.15 61.45 2.05 62.7 0.95 62.85 -0.6 62.95 -2.15 62.7 -3.4
L 61.7 -5.6 60.1 -7.15 58 -8 55.6 -8.45 53 -8.5 50.15 -8.2
M 52 -2.8
L 53.7 -3.45 54.5 -3.35 55.25 -3.1 55.9 -2.6 56.3 -1.9 56.4 -1.1 55.95 -0.4 55.2 0.2 54.35 0.45 52 0.55 52 -2.8
M 53.05 6.15
L 54.1 6.15
Q 54.65 6.2 54.95 6.4
L 55.6 6.85 56 7.65 56.2 8.5 56.1 9.35 55.5 9.9 54.6 10.2 53.75 10.3 52.9 10.2 51.9 9.95 52 6.3 53.05 6.15 Z"/>
</g>
</defs>

<g transform="matrix( 1, 0, 0, 1, 0,0) ">
<use xlink:href="#Layer0_0_FILL"/>
</g>
</svg>
