
<svg xmlns="http://www.w3.org/2000/svg" version="1.1" xmlns:xlink="http://www.w3.org/1999/xlink" preserveAspectRatio="none" x="0px" y="0px" width="550px" height="400px" viewBox="0 0 550 400">
<defs>
<linearGradient id="Gradient_1" gradientUnits="userSpaceOnUse" x1="-84.8" y1="-32.2875" x2="-49.8" y2="29.0875" spreadMethod="pad">
<stop  offset="0%" stop-color="#FFFFFF"/>

<stop  offset="100%" stop-color="#DDFF00"/>
</linearGradient>

<g id="Layer0_0_FILL">
<path fill="url(#Gradient_1)" stroke="none" d="
M -67.55 -17.2
Q -68.3 -15.35 -68.15 -12.7
L -67.65 -7.85 -72.65 -9.2 -75.9 -9.5
Q -76.45 -8.75 -75.8 -5.45
L -74.75 0.35
Q -76.2 -0.25 -77.75 -0.5
L -80.5 -0.4
Q -81.2 0.35 -80.6 3
L -79.55 7.9 -80.65 9.65
Q -81.3 10.55 -82.1 11.25 -83.55 12.1 -85.7 12.95
L -89.5 14.05
Q -90.2 14.6 -90.25 15.45
L -90.1 16.9 -88.45 17.15 -84.65 17.25 -76.45 16.55
Q -71.75 15.6 -69.95 13.85
L -67.75 17.05 -55.85 16.7 -55.2 16.5
Q -53.35 16.25 -53.05 14.75 -52.8 13.2 -54.55 12.2 -55.45 11.8 -56.25 11.65
L -57.6 11.45 -58 11.5 -56.95 10.45 -53.7 9.8 -52.3 8.05 -54.5 7 -59.6 6.5 -55.9 3.15 -54.9 4.45
Q -54.1 5.6 -53 6.15
L -51.05 6.8 -49.95 7 -48.75 6.1 -46.95 -0.3
Q -47.35 -5.45 -50.05 -8.95 -52.3 -11.9 -55.35 -12.9 -58.75 -13.45 -62.9 -15.55 -66.5 -17.4 -67.55 -17.2 Z"/>
</g>
</defs>

<g transform="matrix( 1, 0, 0, 1, 0,0) ">
<use xlink:href="#Layer0_0_FILL"/>
</g>
</svg>
