
<svg xmlns="http://www.w3.org/2000/svg" version="1.1" xmlns:xlink="http://www.w3.org/1999/xlink" preserveAspectRatio="none" x="0px" y="0px" width="550px" height="400px" viewBox="0 0 550 400">
<defs>
<linearGradient id="Gradient_1" gradientUnits="userSpaceOnUse" x1="27.8625" y1="-21.7875" x2="29.337500000000002" y2="24.1875" spreadMethod="pad">
<stop  offset="0%" stop-color="#F1ECF7"/>

<stop  offset="100%" stop-color="#DDFF00"/>
</linearGradient>

<g id="Layer0_0_FILL">
<path fill="url(#Gradient_1)" stroke="none" d="
M -30.5 -8.5
L -33.35 -8.2 -36.6 -7.4 -37.2 14.2 -28.2 14.85 -25.25 14.45
Q -23.9 14.15 -23 13.65 -22.1 13.2 -21.5 12.25 -20.95 11.25 -20.85 10.05 -20.75 8.8 -21.05 7.65 -21.45 6.55 -22.25 5.7
L -23.95 4.35
Q -24.75 3.85 -25.65 3.65 -23.35 3.15 -22.05 2.05 -20.8 0.95 -20.65 -0.6 -20.55 -2.2 -20.85 -3.4 -21.15 -4.7 -21.85 -5.6
L -23.4 -7.15 -25.5 -8 -27.9 -8.45 -30.5 -8.5
M -29.8 -3.45
L -29 -3.35 -28.3 -3.1 -27.65 -2.6 -27.2 -1.9 -27.15 -1.1 -27.6 -0.4 -28.3 0.2 -29.15 0.45 -31.5 0.55 -31.5 -2.8 -29.8 -3.45
M -28.9 10.2
L -29.75 10.3 -30.6 10.2 -31.6 9.95 -31.5 6.3 -30.5 6.15 -29.45 6.15
Q -28.9 6.2 -28.6 6.4
L -27.95 6.85 -27.5 7.65 -27.3 8.5 -27.4 9.35 -28.05 9.9 -28.9 10.2 Z"/>
</g>
</defs>

<g transform="matrix( 1, 0, 0, 1, 0,0) ">
<use xlink:href="#Layer0_0_FILL"/>
</g>
</svg>
