
<svg xmlns="http://www.w3.org/2000/svg" version="1.1" xmlns:xlink="http://www.w3.org/1999/xlink" preserveAspectRatio="none" x="0px" y="0px" width="550px" height="400px" viewBox="0 0 550 400">
<defs>
<g id="Layer0_0_FILL">
<path fill="#000000" stroke="none" d="
M 118.2 52.55
L 119.1 52.65 119.1 52.1 118.2 52.55
M 110.2 36.4
Q 106.05 30.25 102.4 26.35 89.65 13.3 67.85 11 22.1 6.05 3.75 25.85 -9.85 40.4 -13.4 78.5 -16.15 107.75 5.75 121.15 16.95 128.1 33.4 129.85 47.45 131.4 69.25 120.7 88.45 111.25 93.4 104.2
L 107.35 84.25
Q 117.35 69.7 117.5 68.1 117.65 66.4 116.85 66.05
L 115.85 65.95 118.15 60.3 119.35 59.95 119.25 56.75 118.4 56.65
Q 118.4 55.75 115.85 44.85
L 116.85 44.35 116.6 42.75 115.45 43.8
Q 114.25 42.55 110.2 36.4
M 105.3 39.35
Q 105.25 40.15 105.85 41.15 106.55 42.05 106.5 42.85 104.8 43.8 102.85 45.9 99.1 50.05 98.35 57.85 98.2 59.9 101.9 60.35
L 114.5 59
Q 110.9 66.55 106.25 73.5 99.1 84.05 95.75 89.85 90.85 106.4 71.75 115.9 53.95 124.55 25.85 126.35 6.4 117.65 -2.1 106.9 -11.2 95.2 -9.7 78.8 -7.4 54.25 0.55 39.3 13.7 14.75 40.9 17.7
L 49.35 16
Q 56.8 14.25 68.7 15.55 91.2 18 100.4 28.4 105.8 34.5 105.3 39.35
M 114.1 51.05
Q 115.3 53.7 115.4 54.6
L 103.45 55.65 105.85 52
Q 108.65 47.6 110.35 44.05 112.55 47.35 114.1 51.05
M 79.65 68.9
Q 74.9 63.85 67.75 63.1 60.5 62.3 55 66.2 49.45 70.1 48.85 76.4 48.3 82.6 53.05 87.65 57.7 92.6 64.9 93.4 72.05 94.15 77.7 90.25 83.1 86.4 83.65 80.2 84.25 73.9 79.65 68.9
M 66.9 70.1
Q 66.05 70.95 65.75 73.95 65.05 81.1 70.45 81.7 74 82.1 77 80.5 79.35 79.15 79.4 78.4 79.55 76.8 78.75 75.45
L 78.1 73.05
Q 80.35 76.45 79.8 82.15 79.55 85.15 77 86.9 74.5 88.8 70.8 88.4 62.6 87.55 57.5 83.8 52.9 80.3 52.5 76.15 52.1 71.95 56.1 69.5 60.5 66.75 68.5 67.6
L 71.55 68.05 73.05 68.55
Q 68.25 68.7 66.9 70.1 Z"/>

<path fill="#FFCCFF" stroke="none" d="
M 115.4 54.6
Q 115.3 53.7 114.1 51.05 112.55 47.35 110.35 44.05 108.65 47.6 105.85 52
L 103.45 55.65 115.4 54.6 Z"/>

<path fill="#FFFFFF" stroke="none" d="
M 65.75 73.95
Q 66.05 70.95 66.9 70.1 68.25 68.7 73.05 68.55
L 71.55 68.05 68.5 67.6
Q 60.5 66.75 56.1 69.5 52.1 71.95 52.5 76.15 52.9 80.3 57.5 83.8 62.6 87.55 70.8 88.4 74.5 88.8 77 86.9 79.55 85.15 79.8 82.15 80.35 76.45 78.1 73.05
L 78.75 75.45
Q 79.55 76.8 79.4 78.4 79.35 79.15 77 80.5 74 82.1 70.45 81.7 65.05 81.1 65.75 73.95 Z"/>
</g>
</defs>

<g transform="matrix( 1, 0, 0, 1, 0,0) ">
<use xlink:href="#Layer0_0_FILL"/>
</g>
</svg>
