
<svg xmlns="http://www.w3.org/2000/svg" version="1.1" xmlns:xlink="http://www.w3.org/1999/xlink" preserveAspectRatio="none" x="0px" y="0px" width="550px" height="400px" viewBox="0 0 550 400">
<defs>
<g id="Layer0_0_FILL">
<path fill="#000000" fill-opacity="0.14901960784313725" stroke="none" d="
M 104.35 34.75
L 107.3 34.95 107.45 34.8 107.55 33.9
Q 107.55 23.75 84.25 16.9 65.8 11.5 50.7 11.5 37.9 11.5 25.55 14.8 14.45 17.8 8.5 22 7.3 22.9 5.45 23.55 4.85 23.8 4.5 25.2
L 0.05 32.5
Q -4.15 39.5 -5.15 45.15 -5.9 49.5 -7.25 52 -8.65 54.65 -9 56.5 -13.25 76.45 -13.25 82.65 -13.25 98.1 -3.75 109.15 5.85 120.2 25.5 127.5
L 44.75 127.5
Q 67.15 121.5 82.5 108.45 86.55 105 92.55 98.75 97.75 93.4 100.1 91.75 108.05 82.3 113.45 71.8 118.25 62.25 118.25 57.5 118.25 51.25 111.55 42.65 108.15 38.3 104.35 34.75
M 106 44.6
Q 107.2 43.5 106.95 43.3 110.5 43.9 112.8 47.15 115.6 50.95 115.6 57.4 115.6 59.15 112.65 66.4 109.4 74.4 107.3 74.4
L 90.35 95.9
Q 90.35 103.25 69.1 110.65 51.05 116.85 42.8 116.85 21.6 116.85 10.1 109.25 -2 101.25 -2 85.65 -2 66.5 5.95 49.55 13.85 32.6 31.4 30.25 48.85 27.9 58.45 29.35 67.95 30.8 75.35 34.75 82.6 38.75 94.2 43.1
L 105.9 47.6 105.95 46.9
Q 105.95 46.15 105.55 45.95
L 104.6 45.75 106 44.6
M 68 62.9
Q 68 62.1 67.35 61.4 66.7 60.6 65.85 60.6 51.05 60.6 42.9 68.4 37 73.95 37 79.2 37 86.7 42.85 90.15 48.4 93.45 59.9 93.45 65.4 93.45 66.3 92.05 67.05 90.85 65.15 89.85 63.9 88.6 58.15 84.7 53.05 80.45 53.05 75.75 53.05 69.65 60.5 65.75 64.25 63.75 68 62.9 Z"/>
</g>
</defs>

<g transform="matrix( 1, 0, 0, 1, 0,0) ">
<use xlink:href="#Layer0_0_FILL"/>
</g>
</svg>
