
<svg xmlns="http://www.w3.org/2000/svg" version="1.1" xmlns:xlink="http://www.w3.org/1999/xlink" preserveAspectRatio="none" x="0px" y="0px" width="550px" height="400px" viewBox="0 0 550 400">
<defs>
<g id="Layer0_0_FILL">
<path fill="#FFFFFF" stroke="none" d="
M 4 1.65
Q 4.25 1.25 4.1 0.8 4 0.15 3.35 0 2.25 -0.1 1.35 0.65
L 1.2 0.7 0.9 0.9 0.55 1.2 0.2 1.65
Q 0.15 1.7 0.05 2
L 0 2.25 0.05 2.4 0.05 2.45
Q 0.05 2.7 0.2 2.75 0.35 2.85 0.5 2.75
L 0.7 2.65 1 2.4 1.05 2.35 1.1 2.35 1.25 2.25 1.65 2.1 1.7 2.05 1.9 2.05 2.25 2 3.25 2.15
Q 3.8 2.3 4 1.65 Z"/>
</g>
</defs>

<g transform="matrix( 1, 0, 0, 1, 0,0) ">
<use xlink:href="#Layer0_0_FILL"/>
</g>
</svg>
