
<svg xmlns="http://www.w3.org/2000/svg" version="1.1" xmlns:xlink="http://www.w3.org/1999/xlink" preserveAspectRatio="none" x="0px" y="0px" width="550px" height="400px" viewBox="0 0 550 400">
<defs>
<g id="Layer0_0_FILL">
<path fill="#AF831D" stroke="none" d="
M 101.1 16.25
Q 91.4 11.1 81.3 7.35 71.15 3.55 66.05 6.55
L 53.1 14.85
Q 46.15 19.55 42.95 27.55 44.1 27.65 41.7 30.3 39.3 32.95 39.1 39.4 38.9 45.85 39.25 52.4 40.1 66.8 39.6 81.1 39.35 87.65 36.8 93.65
L 2.65 112.7 2.65 116.35 3.85 117.35
Q 3.9 119.25 4.65 120.9 6.2 124.5 9.95 125.1 18 126.65 25.65 123.35 50.3 112.85 73.3 99.1 78.95 95.75 85.45 93.7 119.1 83.4 149.55 66.85 147.85 60.2 146.1 56.3 141.3 45.35 131.6 37.9
L 117.75 27.2
Q 110.8 21.4 101.1 16.25 Z"/>
</g>
</defs>

<g transform="matrix( 1, 0, 0, 1, 0,0) ">
<use xlink:href="#Layer0_0_FILL"/>
</g>
</svg>
