
<svg xmlns="http://www.w3.org/2000/svg" version="1.1" xmlns:xlink="http://www.w3.org/1999/xlink" preserveAspectRatio="none" x="0px" y="0px" width="550px" height="400px" viewBox="0 0 550 400">
<defs>
<g id="Layer0_0_FILL">
<path fill="#000000" stroke="none" d="
M 6 126
Q 11.4 126.65 19.4 123.15 27.4 119.65 32.25 112.5 15.5 105.95 0.45 97.55 -12.95 90.1 -21.15 77.3 -28.8 89.05 -27.05 107.15
L -20.45 114.5
Q -11.85 123.05 -0.55 127
L 0.5 127 6 126
M 46.2 97.9
L 47.5 97 47.75 96.3 46.2 97.9
M 0.3 52.6
L 0.45 52.3 -3 54
Q -3.85 56.45 -6 57.5 -12.95 62.15 -15.45 69.55 -8.6 74.35 -1.6 78.7 16.7 89.95 37.85 94.7
L 47.85 96
Q 57.55 84 56.35 72.95 27.05 66.2 0.3 52.6
M 62 46
Q 67.2 34.95 62.45 27 33 25.7 4.6 17.45 0.85 25.15 -0.15 35.1
L 62 46 Z"/>
</g>
</defs>

<g transform="matrix( 1, 0, 0, 1, 0,0) ">
<use xlink:href="#Layer0_0_FILL"/>
</g>
</svg>
