
<svg xmlns="http://www.w3.org/2000/svg" version="1.1" xmlns:xlink="http://www.w3.org/1999/xlink" preserveAspectRatio="none" x="0px" y="0px" width="550px" height="400px" viewBox="0 0 550 400">
<defs>
<g id="Layer0_0_FILL">
<path fill="#000000" fill-opacity="0.25098039215686274" stroke="none" d="
M 120.9 79.75
Q 117.35 70.25 110.85 70.25 99.5 70.25 91.6 84 88.25 73.1 84.95 65.85 78.6 52 69.7 52 59.75 52 52.65 54.5 47.25 56.45 45.8 58.65 46.95 58.85 49.65 57.65
L 54.35 55.5
Q 40.5 64.1 32.6 74.5 26.4 82.7 27.05 86.4
L 27.7 86.45 29.85 84 27.7 97.25
Q 26.1 108.45 26.1 119.25 26.1 133.45 35.75 143.45 39.4 147.2 43.65 149.5 47.35 151.5 49.75 151.5 59.35 151.5 69.65 146.85 79.25 142.5 87.6 135.05 96.5 127.15 106.1 119.7 115.7 112.25 118.85 110.25 122 108.2 122.7 103.75 123.35 99.25 123.35 91.6 123.35 86.3 120.9 79.75
M 115.3 90.25
Q 115.6 92.2 115.6 97.75 115.6 104.6 114.3 107.1 112.8 110 108.5 110
L 104.85 107.5
Q 100.9 105 99 105 93.95 105 89.55 110.85 87.5 113.55 82.1 123.75 77.35 132.7 73.6 136.65 68 142.5 60.95 142.5 52.85 142.5 48.1 133.65 42.75 123.65 42.75 103.85 42.75 92.15 48.85 81.55 55.05 70.75 62.25 70.75 71 70.75 75.25 75.45 78.05 78.55 79.85 85.75 81.85 93.8 83.25 96.05 86.15 100.75 92.65 100.75 94.7 100.75 96.35 98.3
L 99.4 92.9
Q 103.9 85 111.5 85 114.45 85 115.3 90.25 Z"/>
</g>
</defs>

<g transform="matrix( 1, 0, 0, 1, 0,0) ">
<use xlink:href="#Layer0_0_FILL"/>
</g>
</svg>
