
<svg xmlns="http://www.w3.org/2000/svg" version="1.1" xmlns:xlink="http://www.w3.org/1999/xlink" preserveAspectRatio="none" x="0px" y="0px" width="550px" height="400px" viewBox="0 0 550 400">
<defs>
<g id="Layer0_0_FILL">
<path fill="#000000" fill-opacity="0.25098039215686274" stroke="none" d="
M 70 50.3
Q 47.8 50.3 32.15 66 16.45 81.7 16.45 103.9 16.45 126.1 32.15 141.8 47.8 157.5 70 157.5 92.2 157.5 107.9 141.8 123.55 126.1 123.55 103.9 123.55 81.7 107.9 66 92.2 50.3 70 50.3
M 43.6 75.95
Q 55.2 64.3 71.6 64.3 88 64.3 99.65 75.95 111.25 87.55 111.25 103.95 111.25 120.35 99.65 132 88 143.6 71.6 143.6 55.2 143.6 43.6 132 31.95 120.35 31.95 103.95 31.95 87.55 43.6 75.95 Z"/>
</g>
</defs>

<g transform="matrix( 1, 0, 0, 1, 0,0) ">
<use xlink:href="#Layer0_0_FILL"/>
</g>
</svg>
