
<svg xmlns="http://www.w3.org/2000/svg" version="1.1" xmlns:xlink="http://www.w3.org/1999/xlink" preserveAspectRatio="none" x="0px" y="0px" width="550px" height="400px" viewBox="0 0 550 400">
<defs>
<g id="Layer0_0_FILL">
<path fill="#000000" stroke="none" d="
M 114.4 89.2
Q 113.1 89.2 112 90.15 110.95 91.1 110.95 92.15 110.95 92.95 111.5 94.4 112.3 96.45 113.55 96.45 116.85 96.45 116.75 93.85 116.6 90.05 116.8 89.75 116.5 89.2 114.4 89.2
M 112.1 68.15
Q 110.45 66.2 108.15 66.2 114.7 76.7 106.15 86.6 105.15 87.75 103.65 88.55 93.5 60.65 67.3 50.1
L 64.05 50.35
Q 75.45 54.65 84 63.3 92.4 71.8 98.25 82.1
L 102 89
Q 86.05 90.25 71.75 83.05 56.25 75.2 39.05 75.05 31.75 75 24.45 75.4
L 22.4 76.1 22.5 78.9 26.4 77.65 50.5 79.05
Q 56.65 99 70.7 113.55 46.6 119.6 22 118.25 19.55 117.8 19.2 119.55 43.5 121.85 68.85 117.2 83.05 114.75 96.7 110.15
L 107.6 106.2 109.05 118.1
Q 83.9 139.75 53.25 151 50.8 151.95 51.25 153.5
L 51.6 154 52.25 153.85
Q 62.75 151.65 72.3 146.9 82.85 141.6 91.75 133.4 99.7 126.05 109.05 120.5
L 108.65 128.25
Q 103.2 129.45 98.55 132.65 94.45 135.45 93.85 139.5
L 107.85 131.45 99.95 147.6
Q 102.85 147.6 104.95 145.95 107 144.25 107 141.9
L 110.3 131.2 113.55 131.1 111.8 128.55 111.65 119.3 118.5 117.85 120.75 119.4 121.35 119.2
Q 123.25 118.05 121.55 116.85 119.65 115.25 118.3 115.25 115.35 115.25 111.6 116.85 111.3 111.65 109.7 105.4 120.15 101.25 123 98.2 125.15 95.8 122.7 95
L 122.55 95.1 110 100.65 108.9 100.05 104.7 90.9
Q 109.1 89.25 111.6 85.05 115 79.25 113.7 72.9 113.7 70.1 112.1 68.15
M 101.4 91.9
L 103.2 91.4 106.2 102.3
Q 91.85 110.35 76.15 113 61.15 98.95 53.1 79.95 71.4 87.7 91.75 91.05 96.5 92.45 101.4 91.9
M 95 95.4
L 90.5 95.15
Q 83.9 96.25 83.9 101.1 83.9 105.25 89.55 105.25 92.25 105.25 94.35 103.1
L 95.7 101.9
Q 96.6 100.7 96.85 99.25
L 97.05 98
Q 97.05 96.2 95 95.4 Z"/>
</g>

<path id="Layer0_0_1_STROKES" stroke="#000000" stroke-width="1" stroke-linejoin="round" stroke-linecap="round" fill="none" d="
M 67.3 50.1
Q 81.15 49.25 94.4 56.15 102.35 60.3 108.15 66.2
M 113.7 72.9
Q 118.1 79.35 120.65 87.4 121.85 91.25 122.55 95.1
M 24.45 75.4
L 24.6 75.15
Q 34.75 58.6 53.75 52.6 58.95 50.95 64.05 50.35
M 22.5 78.9
Q 17.7 88.2 16.7 98.85 15.6 110.95 19.95 122.45 24.05 133.45 32.5 141.65 40.7 149.45 51.25 153.5
M 107 141.9
Q 114.9 134.1 119.1 123.7
L 120.75 119.4
M 52.25 153.85
Q 68.55 159.75 85.85 154.3 93.65 151.85 99.95 147.6
M 121.55 116.85
Q 124 107.65 123 98.2"/>
</defs>

<g transform="matrix( 1, 0, 0, 1, 0,0) ">
<use xlink:href="#Layer0_0_FILL"/>

<use xlink:href="#Layer0_0_1_STROKES"/>
</g>
</svg>
