
<svg xmlns="http://www.w3.org/2000/svg" version="1.1" xmlns:xlink="http://www.w3.org/1999/xlink" preserveAspectRatio="none" x="0px" y="0px" width="550px" height="400px" viewBox="0 0 550 400">
<defs>
<g id="Graphics_Symbol_702_0_Layer1_0_FILL">
<path fill="#000000" stroke="none" d="
M -14.05 -7.9
Q -13.65 -6.8 -12.3 -6.4
L -9.2 -6.5
Q -7.5 -7.05 -6.55 -8.1 -5.7 -9.3 -6.1 -10.35 -6.45 -11.5 -7.8 -12
L -10.9 -11.9
Q -12.55 -11.4 -13.55 -10.2 -14.4 -9.05 -14.05 -7.9
M -11.05 -10.65
L -11.4 -11.35 -11.3 -11.5 -11.05 -10.65
M -35.15 -1.1
L -37.5 -8.45 -46.7 -5.65 -44.3 1.7 -35.15 -1.1
M -43.45 -1.85
L -43.9 -2.5 -43.9 -3.2 -43.55 -3.6 -43.05 -3.45 -42.7 -2.8 -42.6 -2 -42.95 -1.65
Q -43.2 -1.6 -43.45 -1.85
M -38.5 -4.35
L -38.25 -4.35
Q -38.2 -3.7 -38.6 -3.2
L -40.7 -1.85 -39.7 -3.25 -38.5 -4.35
M -16.8 -53.85
Q -18.4 -53.35 -19.15 -51.6 -19.85 -49.95 -19.25 -48.2 -18.65 -46.35 -17.15 -45.35 -15.6 -44.45 -14 -45 -12.4 -45.4 -11.55 -47.05 -10.9 -48.8 -11.5 -50.6 -12.05 -52.35 -13.6 -53.3 -15.15 -54.25 -16.8 -53.85
M -13.75 -48.65
L -14.7 -48.55 -15.2 -48.85 -13.15 -48.85 -13.75 -48.65
M 43.35 -32.45
L 45.1 -26.95 53.9 -29.65 52.2 -35.15 43.35 -32.45
M 6.85 -23.15
L 4.9 -29.15 -3.1 -26.75 -1.2 -20.7 6.85 -23.15
M 9.4 -9.6
L 3.6 -8.55
Q -1.35 -7.1 -3.95 -4.65 -6.55 -2.35 -6.05 0.6 -10.15 1.8 -53.4 7.2 -52 -5.45 -47.7 -16.6 -48.75 -16.9 -49.55 -17.35 -52.25 -11.15 -54.05 -5.55 -57.3 4.55 -56.25 7.95 -56 8.55 -56.35 8.75 -56.7 8.95 -56.55 9.5
L -56.4 10 -55.8 11.05 -49.55 10 -42.65 9.15 -28.75 7.85
Q -9 5.3 22.35 -4.2 32.85 -7.4 49.7 -18.9 65.55 -29.6 66.45 -32.8
L 66.1 -33.4 64.55 -33.75
Q 62.75 -36.45 56.45 -41.45 49 -47.45 40.25 -52.3 15.75 -66.2 -4.1 -63.55 -3.35 -65 -3.75 -66.05 -4.85 -69.4 -8.95 -71
L -18.5 -71.25
Q -24.5 -69.4 -25.85 -65.45 -26.65 -63.3 -25.85 -60.85 -24.95 -57.65 -21.8 -56.55 -26.7 -55.2 -32.55 -47.7 -30.65 -47 -29.05 -45.8 -20.1 -55.05 -10.5 -57.95 9.85 -64.2 35.4 -50.2 43.2 -45.95 52.65 -39.15 61.95 -32.3 62.85 -31.8 54.25 -25.8 42.35 -18.6 26 -8.75 19.1 -6.65 18.75 -6.6 17.25 -7.7 15.6 -9.1 12.95 -9.6 11.9 -9.85 9.4 -9.6
M 11.75 -6.8
Q 14.6 -6.8 15.6 -5.5 3.95 -2 -2.55 -0.4 0.8 -4.45 4.3 -5.5 8.75 -6.9 11.75 -6.8
M -24.1 -63.1
Q -24.6 -64.6 -22.5 -66.5 -20.4 -68.35 -16.9 -69.4 -13.3 -70.45 -10.45 -70.15 -7.65 -69.75 -7.15 -68.2 -6.6 -66.6 -8.8 -64.7 -10.85 -62.85 -14.4 -61.75 -17.85 -60.7 -20.8 -61.1 -23.6 -61.45 -24.1 -63.1
M 19.5 -18.6
Q 20.35 -19.9 19.9 -21.45 19.45 -22.8 17.95 -23.55
L 14.85 -23.7
Q 13.1 -23.2 12.3 -21.8 11.5 -20.45 11.95 -19 12.4 -17.5 13.85 -16.85 15.35 -16.2 17.05 -16.8 18.75 -17.25 19.5 -18.6
M 17.1 -20.85
Q 16.7 -19.9 15.9 -19.55
L 14.3 -20.6 16.7 -20.8 17.1 -20.85
M 4.35 -40.15
L 6.2 -40.35
Q 7.15 -40.55 8.05 -41.2
L 7.95 -41.75 8.35 -43.2 7.25 -43.35 2.75 -42.25 -2.85 -40.3 -8.2 -38.15
Q -8.6 -38.05 -8.3 -36.95 -7.95 -35.95 -7.4 -35.9 -6.85 -35.85 -3.85 -36.75 0.55 -38.05 1.35 -38.95
L 2.4 -40 4.35 -40.15
M 9.25 -56.25
Q 8.8 -57.7 6.85 -58.3
L 2.5 -58.1
Q 0.2 -57.4 -1.15 -55.8 -2.45 -54.2 -2 -52.8 -1.6 -51.4 0.45 -50.8
L 4.8 -51.05
Q 7.1 -51.75 8.45 -53.3 9.75 -54.85 9.25 -56.25
M 1.85 -54.6
L 4.65 -54.9 6.65 -54.85
Q 2.9 -53.55 2.1 -54.2
L 1.85 -54.6 Z"/>

<path fill="#870101" stroke="none" d="
M 15.6 -5.5
Q 14.6 -6.8 11.75 -6.8 8.75 -6.9 4.3 -5.5 0.8 -4.45 -2.55 -0.4 3.95 -2 15.6 -5.5 Z"/>
</g>

<g id="Graphics_Symbol_702_0_Layer0_0_FILL">
<path fill="#000000" stroke="none" d="
M -61.1 -53.35
L -64.7 -49.95
Q -68.2 -46.4 -67.85 -45.2
L -66.1 -43.2
Q -64.2 -41.2 -63.05 -41.15
L -66.45 -34.8 -67.95 -31.05
Q -66.6 -26.75 -63.8 -24.45 -61.6 -22.7 -55.95 -20.3 -37.7 -12.4 -24.15 -3.3 -24.15 -2.9 -24.45 -2.4
L -24.35 -1.15
Q -23.95 -0.05 -23.4 -0.05
L -22.6 0 -8.3 -27.4
Q -3.75 -36.85 -4.25 -38.55 -4.6 -38.15 -5.3 -37.9 -4.9 -38 -5.1 -37.6 -5.25 -37.15 -5.5 -37.9
L -5.55 -37.95 -23.95 -46.95 -50.3 -59.8 -53.85 -54.9 -57.2 -55
Q -59 -55.7 -59.5 -55.55 -60.55 -55.2 -61 -54.3
L -61.1 -53.35
M -51.8 -51.7
Q -51.95 -53.6 -49.1 -58.05 -24.95 -43.7 -16.85 -39.6 -12.35 -37.2 -7.5 -35.85 -12.5 -27.2 -15.55 -20.85 -19.6 -12.45 -23.05 -6 -33.3 -10.6 -43.15 -15.85
L -44.15 -16.35
Q -46.7 -17.05 -48.95 -18.95 -63.1 -26.8 -65.7 -31
L -60.75 -41.05
Q -55.6 -50.6 -52.9 -51.05
L -51.8 -51.25 -51.8 -51.7
M -59 -52.05
Q -58.25 -52.25 -57.4 -52.05 -56.5 -51.85 -56.35 -51.35
L -61.4 -43.9 -64.1 -45.95
Q -63.55 -46.5 -61.5 -49.4 -59.85 -51.85 -59 -52.05
M 45.25 -58.45
Q 46.6 -64.4 46.7 -66.7 46.85 -68.45 46.05 -70.75 44.7 -73.65 40.75 -76.3 41.25 -76.95 41.15 -81.1 40.7 -82.5 31.3 -85.25 28.7 -81.35 28.05 -81.15
L 25.1 -81.2 22.8 -82.15
Q 20.05 -83.15 16.95 -79.25 -0.6 -43.5 0.95 -38.6 1.7 -37.35 5.9 -34.75 13.9 -29.9 30.8 -23.95
L 29.45 -19.2 30.2 -18.35
Q 30.6 -17.95 31.05 -18.1 32.6 -18.55 38.5 -35.9 43.85 -51.85 45.25 -58.45
M 38.45 -77.55
L 30.85 -80.45
Q 32.7 -82.25 35.45 -81.1
L 39.1 -79.2 38.45 -77.55
M 10.9 -59.7
Q 17.65 -79.85 19.45 -80.35 21.15 -80.85 32.8 -75.7 38.7 -73.2 44.25 -70.5 43.85 -67.9 31.85 -27.1 22.45 -32.1 18.25 -32.2 15.25 -32.25 4.45 -39.4
L 10.9 -59.7 Z"/>

<path fill="#999999" stroke="none" d="
M -57.4 -52.05
Q -58.25 -52.25 -59 -52.05 -59.85 -51.85 -61.5 -49.4 -63.55 -46.5 -64.1 -45.95
L -61.4 -43.9 -56.35 -51.35
Q -56.5 -51.85 -57.4 -52.05
M 30.85 -80.45
L 38.45 -77.55 39.1 -79.2 35.45 -81.1
Q 32.7 -82.25 30.85 -80.45 Z"/>

<path fill="#870101" stroke="none" d="
M -49.1 -58.05
Q -51.95 -53.6 -51.8 -51.7
L -51.8 -51.25 -52.9 -51.05
Q -55.6 -50.6 -60.75 -41.05
L -65.7 -31
Q -63.1 -26.8 -48.95 -18.95 -46.7 -17.05 -44.15 -16.35
L -43.15 -15.85
Q -33.3 -10.6 -23.05 -6 -19.6 -12.45 -15.55 -20.85 -12.5 -27.2 -7.5 -35.85 -12.35 -37.2 -16.85 -39.6 -24.95 -43.7 -49.1 -58.05 Z"/>

<path fill="#2F2F2F" stroke="none" d="
M 19.45 -80.35
Q 17.65 -79.85 10.9 -59.7
L 4.45 -39.4
Q 15.25 -32.25 18.25 -32.2 22.45 -32.1 31.85 -27.1 43.85 -67.9 44.25 -70.5 38.7 -73.2 32.8 -75.7 21.15 -80.85 19.45 -80.35 Z"/>
</g>

<g id="Graphics_Symbol_703_0_Layer4_0_FILL">
<path fill="#000000" stroke="none" d="
M -54.65 9.95
L -54.6 10
Q -53.95 11.7 -49.45 12.6 -45.15 13.4 -44.75 16.65 -44.55 18.45 -45.7 19.6
L -49.55 22.35
Q -48.15 24.25 -45.75 25.6 -44 26.5 -43.85 28.05
L -43.55 30.2
Q -43.7 32 -44.7 32
L -48.9 32.25
Q -50.25 32.5 -50.1 33.85 -49.95 34.8 -49.55 35.2
L -48.6 35.6 -42.9 35.7 -42.65 37.3
Q -42.45 39 -43.45 40.4 -44.65 42.2 -47.45 42.95
L -47.2 43.75
Q -45 45.85 -43.25 46.75 -42.35 47.15 -42.25 48.05
L -42.1 49.8
Q -42.3 51.5 -44.2 51.5
L -46.65 51.1 -49.8 50.8 -49.75 51 -49.7 52.25
Q -49.45 54.7 -44.35 55.1
L -44.2 56.35
Q -44.95 57.25 -46.8 58.1
L -47.45 58.45 -48.95 58.7
Q -53.15 59.55 -56.35 62.25 -59.6 65 -59.3 67.5
L -58.4 68.75 -57.2 69.85 -52.55 69.95 -52.65 72.7 -52.65 76.5
Q -52.45 77.7 -51.05 79.25 -49.15 76.95 -48.95 75.45 -48.85 74.8 -49.2 71.9
L -49.5 70.05 -44.9 70.15 -44.55 73.45 -43.8 76.3 -42.6 78.75 -41.85 75.45
Q -41.2 72.2 -41.3 71.15
L -41.65 70.45 -37.2 70.45 -36.3 69.7
Q -36.05 69.45 -36.15 68.5
L -36.2 68.1 -36.3 67.5
Q -36.35 66.85 -36.55 66.3 -37.75 61.75 -40.9 59.8 -42.05 59 -43.5 58.7
L -41.8 55.5
Q -39.5 50.3 -39.8 47.95 -39.85 47.3 -40.6 45.7
L -41.35 43.4 -40.7 41.05
Q -39.95 38.95 -40.1 37.4 -40.2 36.7 -40.85 35.45
L -41.6 33.5 -41.5 30.75
Q -41.25 28.8 -41.35 28.05 -41.4 27.55 -42.6 24.95
L -43.8 22.45
Q -43.9 21.95 -43 19.85 -42.15 17.75 -42.3 16.45 -43 11.05 -48.6 10 -51.1 9.55 -54.65 9.95
M -23.1 -2.85
L -22.9 -1.95
Q -17.9 1.1 -4.85 4.15
L -3.25 3.85 -2.7 2.45
Q -6.7 0.65 -12.95 -1.4 -21.8 -4.25 -23.1 -2.85
M -18.3 -32.3
L -19.2 -32.85
Q -20.75 -31.95 -21.2 -29.8 -21.45 -27.2 -21.9 -26 -22.15 -25.3 -24.55 -22.35 -26.9 -19.6 -26.85 -19.1 -26.85 -18.6 -25.5 -17.4 -23.1 -17.7 -20.3 -23.3 -17.6 -28.5 -17.8 -30.95 -17.85 -31.85 -18.3 -32.3
M -44.5 -39.95
Q -42.35 -44.6 -42.4 -45.65 -42.45 -46.5 -42.6 -46.65
L -42.75 -46.95
Q -45.45 -47.55 -46.3 -45.15 -46.75 -42.25 -47.15 -40.95 -52.7 -43.05 -52.55 -40.85 -52.5 -40.5 -48.45 -38.4
L -49.8 -36.25
Q -51.5 -33.75 -51.45 -33.25
L -51.3 -32.25 -50.85 -32.05
Q -51.1 -31.75 -49.85 -31.75 -48.6 -31.75 -45.85 -37.15 -42.6 -35.65 -41.4 -35.65 -40.65 -35.65 -40.4 -35.9
L -40.3 -36.15 -40.3 -37.4
Q -40.35 -38.3 -44.5 -39.95
M 2.95 -34.9
L 5.15 -38.4
Q 1.5 -40.9 0.5 -39.55 -0.1 -38.75 0.3 -36.75
L -1.75 -36.45 -4.5 -37.1 -7.3 -37.8
Q -8.8 -37.8 -8.7 -36.2 -8.9 -35.55 -8.05 -34.8 -6.45 -33.4 -1.45 -33.4 1.5 -33.4 2.95 -34.9
M 34.55 -36.15
Q 31.85 -36.7 22.1 -41.55 15.15 -45.1 15.35 -42.3
L 21.65 -38.1
Q 29 -33.4 33.05 -33.4
L 35.65 -33.45 35.9 -34.85 35.45 -35.55 34.55 -36.15
M 34.5 -26.35
L 34.3 -26.5
Q 29.7 -25.5 23.2 -16.55 19.9 -12 17.55 -7.5 17.6 -6.55 17.95 -6.25
L 18.9 -5.75 28.3 -17.25
Q 34.7 -25.05 34.65 -25.45
L 34.5 -26.35
M 31.25 -63.35
Q 32.95 -66.7 32.85 -68.3
L 32.65 -69.3 32.5 -69.6
Q 29.9 -70.05 28.65 -67.1
L 27.85 -64.6
Q 23.4 -66.45 22.6 -66.25
L 22.6 -65
Q 22.65 -64.6 26.9 -62.3
L 26.4 -61.4 26.55 -60.6 27.1 -60.1 28.25 -59.9
Q 28.9 -59.9 29.65 -60.85 35.85 -57.7 37.4 -57.7 38.25 -57.7 38.65 -58.1
L 39.05 -59.05
Q 35.95 -60.9 31.15 -63.15
L 31.25 -63.35 Z"/>
</g>

<g id="Graphics_Symbol_703_0_Layer3_0_FILL">
<path fill="#000000" stroke="none" d="
M -67.65 -59.7
L -67.65 -60.35 -57.8 -54.2 -53.1 -51.6
Q -52.55 -52.8 -52.45 -54.25
L -52.5 -55.55
Q -57.1 -69.85 -78.85 -76.05 -79.5 -75.85 -79 -68.75 -78.45 -60.5 -76.35 -53.95 -74.9 -49.5 -70.55 -43.9 -66.2 -38.2 -64.45 -38.75 -63.8 -38.95 -63.7 -39.05
L -63.75 -39.15
Q -63.85 -40.7 -65.45 -49.25 -66.9 -56.75 -67.65 -59.7
M -64.1 -62.55
L -70.15 -62.8 -70.8 -62.45 -70.6 -60.65
Q -68.7 -50.45 -67.7 -44 -69.35 -43.85 -71.85 -49.25
L -73.95 -54.75
Q -75.05 -58.05 -74.75 -62.45 -74.45 -67 -74.85 -68.35 -75.2 -69.45 -74.3 -70.3
L -76.9 -70.2 -77.8 -73.05
Q -76.25 -73.75 -74.35 -71.95 -71.85 -69.75 -71 -69.6 -65 -68.2 -62.4 -65.55 -59.5 -61.4 -56.4 -58.05 -61.1 -61.55 -64.1 -62.55
M 36.95 -106.15
Q 35.3 -105.75 34.65 -103.45 33.85 -101.3 31.35 -100.5 25.25 -98.7 23.6 -93.2 22.1 -88.6 23.9 -82.9 25.05 -79.35 27.7 -80.2 29.15 -80.65 32 -84.9
L 35.75 -90.6
Q 36.45 -86.55 36.9 -80.65
L 37.25 -75.6 37.9 -73.75 39.25 -73.85
Q 43.35 -75.05 45.15 -77.7 47.7 -81.65 46.35 -89.5 45.8 -93 44.7 -96.45 44 -98.95 44 -99.65 44.2 -101.45 44.95 -103 45.6 -104.35 45.5 -104.8 45.3 -105.3 43.15 -106.1 40.2 -107.2 36.95 -106.15
M 37.5 -101.5
Q 37.5 -103.75 38.35 -104
L 39.95 -104.05
Q 41.75 -103.95 42.55 -103.45
L 40.85 -101.05
Q 40 -99.4 40.25 -98.7 40.7 -97.25 40.9 -97.15 41.15 -97 42.35 -97.55 42 -95.35 42.75 -92.25
L 44.05 -87.25
Q 45.05 -81.55 39.75 -77.55 38.4 -93.05 38.05 -93.95 37.75 -95.05 37.85 -94.5 37.3 -94.75 36.4 -94.5 35.05 -94.1 31.6 -89.9 27.5 -85.1 26.45 -84.25
L 26.4 -84.1
Q 26.3 -84 26.1 -84.65 24.3 -90.3 28.95 -95.05 32.45 -98.5 35.25 -99 37.4 -99.45 37.5 -101.5 Z"/>

<path fill="#999999" stroke="none" d="
M -70.15 -62.8
L -64.1 -62.55
Q -61.1 -61.55 -56.4 -58.05 -59.5 -61.4 -62.4 -65.55 -65 -68.2 -71 -69.6 -71.85 -69.75 -74.35 -71.95 -76.25 -73.75 -77.8 -73.05
L -76.9 -70.2 -74.3 -70.3
Q -75.2 -69.45 -74.85 -68.35 -74.45 -67 -74.75 -62.45 -75.05 -58.05 -73.95 -54.75
L -71.85 -49.25
Q -69.35 -43.85 -67.7 -44 -68.7 -50.45 -70.6 -60.65
L -70.8 -62.45 -70.15 -62.8
M 38.35 -104
Q 37.5 -103.75 37.5 -101.5 37.4 -99.45 35.25 -99 32.45 -98.5 28.95 -95.05 24.3 -90.3 26.1 -84.65 26.3 -84 26.4 -84.1
L 26.45 -84.25
Q 27.5 -85.1 31.6 -89.9 35.05 -94.1 36.4 -94.5 37.3 -94.75 37.85 -94.5 37.75 -95.05 38.05 -93.95 38.4 -93.05 39.75 -77.55 45.05 -81.55 44.05 -87.25
L 42.75 -92.25
Q 42 -95.35 42.35 -97.55 41.15 -97 40.9 -97.15 40.7 -97.25 40.25 -98.7 40 -99.4 40.85 -101.05
L 42.55 -103.45
Q 41.75 -103.95 39.95 -104.05
L 38.35 -104 Z"/>
</g>

<g id="Graphics_Symbol_703_0_Layer2_0_FILL">
<path fill="#000000" stroke="none" d="
M 18.7 -100.5
L 18.05 -101 19.6 -101.55 20.15 -98.8
Q 20.55 -97.15 21.9 -96.65
L 24.35 -96.7
Q 26.4 -97.35 26.6 -98.4 26.7 -98.8 26.2 -100.4
L 25.15 -102.35 23.6 -104.5
Q 24.05 -105 23.65 -105.35 24.25 -105.9 30.35 -107.7
L 32.1 -105.15
Q 33.9 -102.55 36.75 -103.45 39 -104.05 38.3 -106.2 36.25 -112.65 26.85 -109.8 25.9 -109.45 17.05 -103.7 7.85 -97.75 7.25 -97.45 6.1 -96.75 2.35 -95.1 -2.25 -93 -4.2 -92.4
L -6.15 -92.9 -10.2 -92.75
Q -12.05 -92.1 -16.8 -89.1
L -18.5 -89.2 -20.25 -89.15
Q -23.9 -88.1 -25.4 -86.75 -26.95 -85.2 -28.05 -84.95
L -30.3 -84.9 -32.4 -84.75 -37.2 -81.8
Q -37.8 -81.65 -39.45 -82.55 -42.3 -83.35 -48.15 -82.4
L -60.8 -82.8 -70.6 -83.2
Q -74.6 -82 -77.1 -79.3 -79.5 -76.7 -78.9 -74.8
L -78.35 -73.5 -78 -73.5 -77.15 -73.6
Q -76.6 -73.75 -75.3 -76.2 -73.95 -78.9 -71 -79.8
L -65.8 -80.8 -72 -74.55
Q -73.6 -72.85 -73.5 -72.6 -72.8 -70.45 -70.15 -70 -67.6 -69.4 -64.2 -70.4 -59.45 -71.9 -58 -74.8 -57.6 -75.65 -57 -80
L -54.45 -79.25 -57.7 -75.05
Q -59.1 -72.7 -58.5 -70.75 -57.15 -66.8 -53.2 -68 -44.9 -70.45 -49.8 -78.15
L -47.05 -79.5 -39.45 -79.85 -40.95 -75.95
Q -42.2 -72.4 -42.1 -71.6
L -40.95 -70.2 -40.25 -70.15
Q -37.55 -70.95 -35.8 -76
L -33.9 -81.15
Q -30.8 -82.1 -29.4 -82.1
L -29.35 -82.05
Q -30.1 -81.4 -30.15 -80.2
L -29.7 -77.95
Q -28.8 -75.25 -27.15 -74.45
L -24.4 -74.25
Q -21.6 -75.15 -22.7 -78.7 -23.1 -79.9 -25.25 -83.25 -22.95 -84.75 -19.15 -86.15
L -21.1 -82.45
Q -21.8 -80.9 -20.9 -77.9 -20.45 -76.5 -19.45 -76
L -17.2 -75.9
Q -10.85 -77.85 -15.05 -86.85
L -9.25 -89.8 -6.65 -89.95 -9 -87.05
Q -9.6 -86.25 -8.8 -83.95 -7.95 -81.15 -4.15 -82.2 0.3 -83.55 0 -86.6 -0.15 -87.9 -1.8 -90.25 0.1 -91.5 2.45 -92.55
L 4.2 -93.2
Q 4.15 -92.5 2.65 -89.65 1.25 -87.3 1.85 -86.1 2.4 -85.8 3.1 -85.4 4.4 -84.85 5 -85 6.8 -85.55 8.3 -87.25 9.7 -88.95 11.55 -92.3 12.25 -90.7 14.25 -89.8 16.1 -89.05 17.55 -89.4 20.05 -90.2 20.7 -92.25 21.4 -94.45 20.4 -97.5 19.8 -99.2 18.7 -100.5
M 23 -99.35
L 22 -102.2 22.85 -101.65
Q 23.45 -101 23.85 -99.75
L 23.8 -99.6 23 -99.35
M 34.6 -106.3
Q 34.05 -107.05 34.35 -107.15 34.9 -107.2 35.25 -105.8
L 35.3 -105.6 34.6 -106.3
M 18.25 -95.9
Q 18.65 -94.85 18.2 -93.8 17.6 -92.75 16.6 -92.3 15.55 -92.05 14.55 -92.75 13.55 -93.25 13.15 -94.45 12.8 -95.6 13.25 -96.7 13.75 -97.8 14.8 -98.15 15.8 -98.5 16.9 -97.75 17.9 -97.15 18.25 -95.9
M 7.35 -90.4
Q 5.55 -88.05 4.3 -88.1
L 6.05 -90.45
Q 7.75 -92.8 9.1 -93.4 8.7 -92.25 7.35 -90.4
M -3.6 -88.5
L -3.2 -87.3 -2.85 -85.9 -6.2 -84.75 -6.5 -84.75 -3.6 -88.5
M -18.45 -78.65
Q -18.05 -82.35 -16.65 -84.1 -16.1 -82.35 -16.15 -81.6 -16.15 -80.2 -17.35 -79.35
L -18.45 -78.65
M -26.1 -80.35
L -25.45 -79.1
Q -25.2 -78.35 -25.3 -77.75 -25.45 -77.1 -25.75 -76.95 -26.15 -76.8 -26.65 -77.35
L -27.35 -78.55 -27.45 -79.95 -27 -80.65
Q -26.6 -80.8 -26.1 -80.35
M -52.2 -77.15
Q -51.3 -76 -50.95 -75 -49.7 -70.8 -55.85 -70.45 -55.85 -71.7 -54.8 -73.55
L -52.2 -77.15
M -60.5 -78.9
L -60.1 -76.9
Q -59.95 -76.15 -60.45 -75.85 -60.75 -75.5 -68.6 -72.15
L -70.75 -73.25 -67.5 -75.9
Q -63.65 -78.45 -60.5 -78.9 Z"/>
</g>

<g id="Graphics_Symbol_703_0_Layer1_0_FILL">
<path fill="#000000" fill-opacity="0.25098039215686274" stroke="none" d="
M -64.55 -33.55
Q -65.6 -33.25 -65.85 -32.6 -66.2 -31.85 -65.6 -30.15 -65.35 -29.05 -61.15 -26.45
L -46.35 -17.4
Q -49.95 -16 -51.85 -6.8 -53.8 2.4 -53.9 8.05
L -53.5 9 -53.1 9.6 -41.55 8.55 -37.5 7.5
Q -35.75 6.9 -34.95 1.75 -34.3 -3.45 -35 -10.85 -32.35 -9.2 -28.25 -7.4 -23.7 -5.3 -22.8 -5.4
L -23.2 -2.8
Q -22.35 0.05 -16.8 1.4 -11.95 2.55 -9.7 1.9 -6.4 0.9 -5.5 0.25 -4.35 -0.6 -4.85 -2.05
L -7.65 -9.2
Q -8.95 -9.85 -10.25 -10.9 -12.75 -12.95 -12.9 -15.05
L -13.65 -15.2
Q -14.5 -15.5 -15.05 -15.2 -16.05 -14.95 -17.5 -13.75 -19.6 -12.05 -20.8 -9.6 -32.5 -16.8 -42.6 -22.65 -62.45 -34.2 -64.55 -33.55
M -48.7 -58.6
Q -51.55 -57.7 -52.25 -56.1 -52.8962890625 -55.00625 -52.35 -53.25 -52.55234375 -53.84296875 -52.7 -53.4 -52.95 -53 -52.3 -53.1
L -52.2 -53.15
Q -50.7 -53.65 -31.75 -42.4 -12.85 -31.1 -8.65 -32.3 -6.95 -32.8 -7.9 -35.65 -8.7 -38.15 -14.95 -41.2
L -31.7 -48.9 -41.25 -54.5
Q -48.35 -58.7 -48.7 -58.6
M -78.95 -71.75
Q -75.45 -67 -74.8 -65.3
L -76.65 -65.3
Q -76.95 -62.05 -75.25 -55.5
L -74.45 -54.3
Q -73.35 -52.9 -72.05 -48.75 -70.85 -45.15 -68.3 -44.6
L -67.5 -45.1 -67.45 -45.2 -67.6 -46.05
Q -67.75 -46.55 -68.85 -48.3
L -70.15 -50.7 -70.85 -57
Q -71.45 -62.9 -72.35 -65.75 -73.7 -70 -75.8 -71.85 -77.45 -73.3 -79.3 -73.15
L -78.95 -71.75
M -69 -64.95
L -68.8 -64.15
Q -68.25 -62.5 -63.65 -59.9 -58.5 -57 -55.5 -57.9 -55.05 -58.45 -55.45 -59.65
L -60 -63.3
Q -65.35 -66.65 -68.85 -65.25
L -69 -64.95
M 6.7 -36.4
Q 1.7 -38.8 0.65 -38.45 -0.35 -38.15 -0.4 -35.95 -0.45 -33.35 0.65 -29.85 -0.5 -32.7 -3 -33.7 -5.3 -34.65 -6.7 -33.75 -6.7 -31.05 -9.55 -26.65 -12.05 -22.75 -11.6 -21.45 -10.35 -17.55 -2.9 -18.45 0.85 -18.95 4.45 -20 4.6 -19.6 4.25 -19.35
L 6.65 -20.15 7.75 -23.8
Q 8.5 -22.9 9.6 -23.3 11.55 -23.9 12.75 -26.4 13.9 -28.95 13.4 -30.55 12.4 -33.6 6.7 -36.4
M 15.85 -56.65
Q 23.85 -74.8 23.05 -79.35
L 21.85 -79.45 20.05 -79
Q 18.65 -78.65 15.2 -71.65 10.5 -62.5 8.6 -59.7 7.75 -60.65 5 -60.95 -0.5 -61.75 -9.9 -58.85 -20.6 -55.6 -24.2 -51.45 -26.25 -49.2 -25.75 -47.7 -25.45 -46.75 -23.1 -46.35
L -20.25 -46.4
Q -19.75 -46.5 -19.6 -47.55
L -18.95 -49.8
Q -17.4 -53.4 -11.35 -55.15 -8.5 -56.05 -2.1 -56.4 4.35 -56.7 7.4 -57.65 6 -54.85 4.3 -48.6 2.8 -42.75 3.05 -41.9 3.6 -40.05 4.6 -39.15 5.5 -38.45 6.4 -38.7 8.2 -39.3 15.85 -56.65
M 46.85 -70
Q 46.3 -71.75 45.45 -72.2
L 43.7 -72.35
Q 40.55 -71.35 37.55 -64.35 35.5 -59.45 31.95 -47.25 29.9 -39.35 28.8 -33.75 27.8 -28 28.15 -26.55 26.65 -27.35 24.55 -27.85
L 21.05 -28.15
Q 19.8 -27.85 17.65 -22.65 15.15 -16.7 16.4 -12.95 17.9 -8.3 21.35 -9.3 25.1 -10.4 28.9 -16.6 32.35 -22.15 31.8 -24.15 32.7 -24.15 33.7 -25.65
L 36.05 -30.65
Q 45.75 -19.05 49.35 -20.1 50 -20.35 50.55 -22.05 52.4 -24.45 58.85 -27.1 61.1 -28.1 62.3 -30.8 63.25 -33 63 -33.95 62.2 -36.5 57.1 -40.45 51.15 -45.15 42.75 -48.8 43.55 -52.4 46.8 -60.95 48.35 -65.2 46.85 -70
M 43.55 -65.55
Q 44.3 -67.8 44.4 -67.25
L 44 -64.55 43.3 -61.5
Q 42.9 -62.35 42.1 -62.8
L 43.55 -65.55
M 43.85 -97
L 43.4 -97.6
Q 41.55 -95.75 41.2 -87.8 40.8 -80.8 41.35 -78.8
L 41.65 -78.7 42.55 -78.9
Q 43.55 -79.2 43.95 -85.4 44.25 -91.2 43.85 -97
M 39.2 -102.55
Q 38.8 -101.65 39.1 -100.65 39.35 -99.8 40.25 -99.3 41.05 -98.85 41.85 -99.1 42.7 -99.35 43.15 -100.2 43.55 -101.05 43.2 -102 42.95 -102.95 42.1 -103.45
L 40.4 -103.65
Q 39.55 -103.4 39.2 -102.55 Z"/>
</g>

<g id="Graphics_Symbol_703_0_Layer0_0_FILL">
<path fill="#FFFFFF" fill-opacity="0.5019607843137255" stroke="none" d="
M -57.1 -44.65
Q -61.2 -40.6 -60.65 -38.65 -60.1 -37.05 -54.6 -34.65 -45.6 -30.8 -38.55 -26.55 -33.75 -23.65 -24.1 -17.3 -19.65 -14.45 -18.8 -14.75 -18.3 -14.85 -15.5 -19 -12.75 -23.25 -12.9 -23.75 -13.15 -24.4 -30.95 -36.7 -49.5 -49.45 -51.65 -48.85 -53.35 -48.25 -57.1 -44.65
M -58.9 -47.85
L -59.5 -48.55 -60.45 -48.8 -61.15 -48.05
Q -61.4 -47.6 -61.25 -47.05
L -60.55 -46.25 -59.65 -46.1 -58.9 -46.7
Q -58.65 -47.25 -58.9 -47.85
M -72.1 -65
L -72.65 -66.2
Q -75.2 -65.35 -75.55 -61 -75.9 -55.75 -72.75 -46
L -72.2 -44.65 -70.55 -45.15
Q -70.15 -45.25 -70.6 -53.05 -70.95 -61.4 -72.1 -65
M -62.9 -65.35
Q -63.45 -67.15 -66.65 -68.2
L -73.55 -68.45 -73.25 -67
Q -67.95 -61.7 -64.4 -62.7
L -63.1 -63.65
Q -62.6 -64.4 -62.9 -65.35
M 13.9 -16.8
Q 10.15 -19.95 2.25 -21.95 -2.7 -18.4 -5.45 -14.95 -7.5 -12.4 -7.5 -11.15 -7.4 -9.9 -5.1 -8.85 -1.45 -7.15 6.25 -8.45 9.75 -9.05 12.9 -11.15 15.95 -13.25 16.8 -13.35
L 16.8 -13.4 16.75 -13.65
Q 16 -15.05 13.9 -16.8
M 3.1 -42.85
L 5.9 -49.05
Q 2.45 -54.05 -0.75 -55.8 -4.7 -57.85 -10.15 -56.25 -13.75 -55.15 -16.65 -51.85 -19.65 -48.25 -18.65 -45.15 -17.8 -43.5 -15.4 -41.65 -10.85 -38.3 -3.7 -36.6 0.55 -37.55 3.1 -42.85
M 35.95 -71.55
L 33.45 -73.3
Q 30.6 -75 28.6 -74.4 27.85 -74.15 20.5 -56.65 12.75 -38.45 12.35 -33.8
L 21.1 -30.25 22.8 -30.2
Q 26.65 -38.8 30.25 -48.25 37.35 -67.2 35.95 -71.55
M 34.8 -81.8
L 33.7 -81.9 32.85 -81.2
Q 32.6 -80.65 32.75 -79.95 32.95 -79.3 33.55 -78.95
L 34.65 -78.8
Q 35.25 -78.95 35.55 -79.6 35.75 -80.15 35.55 -80.75
L 34.8 -81.8
M 39.8 -98.4
Q 37.35 -97.75 36.5 -93.85 35.45 -89.35 37.5 -83
L 37.75 -82.4 37.8 -82.7 38.9 -83.15
Q 39.1 -84.55 39.5 -85 39.85 -87.1 39.8 -98.4
M 37.25 -100.55
L 37.1 -100.85 34.6 -100.3
Q 30.45 -99 27.8 -94.2
L 26.1 -89.45
Q 26.35 -88.65 26.75 -88.65 27 -88.45 27.7 -88.4 28.6 -88.75 32.95 -93.4 37.3 -98.2 38.2 -100.1 37.55 -100.3 37.25 -100.55 Z"/>
</g>

<g id="MovieClips_PR2_Graphics_1_Apr_2014_fla_Symbol_667_9_Layer0_0_FILL">
<path fill="#0000FF" stroke="none" d="
M 3.6 -8.55
L 9.4 -9.6
Q 11.9 -9.85 12.95 -9.6 15.6 -9.1 17.25 -7.7 18.75 -6.6 19.1 -6.65 26 -8.75 42.35 -18.6 54.25 -25.8 62.85 -31.8 61.95 -32.3 52.65 -39.15 43.2 -45.95 35.4 -50.2 9.85 -64.2 -10.5 -57.95 -24 -53.9 -36.3 -37.2 -50.65 -18 -53.4 7.2 -10.15 1.8 -6.05 0.6 -6.55 -2.35 -3.95 -4.65 -1.35 -7.1 3.6 -8.55 Z"/>
</g>

<g id="MovieClips_PR2_Graphics_1_Apr_2014_fla_Symbol_684_9_Layer1_0_FILL">
<path fill="#870101" stroke="none" d="
M -49.1 -58.05
Q -51.95 -53.6 -51.8 -51.7
L -51.8 -51.25 -52.9 -51.05
Q -55.6 -50.6 -60.75 -41.05
L -65.7 -31
Q -62.6 -26 -43.15 -15.85 -33.3 -10.6 -23.05 -6 -19.6 -12.45 -15.55 -20.85 -12.5 -27.2 -7.5 -35.85 -12.35 -37.2 -16.85 -39.6 -24.95 -43.7 -49.1 -58.05
M 15.6 -5.5
Q 14.6 -6.8 11.75 -6.8 8.75 -6.9 4.3 -5.5 0.8 -4.45 -2.55 -0.4 3.95 -2 15.6 -5.5 Z"/>
</g>
</defs>

<g transform="matrix( 1, 0, 0, 1, 0,0) ">
<g transform="matrix( 1, 0, 0, 1, 0,0) ">
<g transform="matrix( 1, 0, 0, 1, 0,0) ">
<use xlink:href="#Graphics_Symbol_702_0_Layer1_0_FILL"/>
</g>

<g transform="matrix( 1, 0, 0, 1, 0,0) ">
<use xlink:href="#Graphics_Symbol_702_0_Layer0_0_FILL"/>
</g>
</g>

<g transform="matrix( 1, 0, 0, 1, 0,0) ">
<g transform="matrix( 1, 0, 0, 1, 0,0) ">
<use xlink:href="#Graphics_Symbol_703_0_Layer4_0_FILL"/>
</g>

<g transform="matrix( 1, 0, 0, 1, 0,0) ">
<use xlink:href="#Graphics_Symbol_703_0_Layer3_0_FILL"/>
</g>

<g transform="matrix( 1, 0, 0, 1, 0,0) ">
<use xlink:href="#Graphics_Symbol_703_0_Layer2_0_FILL"/>
</g>

<g transform="matrix( 1, 0, 0, 1, 0,0) ">
<use xlink:href="#Graphics_Symbol_703_0_Layer1_0_FILL"/>
</g>

<g transform="matrix( 1, 0, 0, 1, 0,0) ">
<use xlink:href="#Graphics_Symbol_703_0_Layer0_0_FILL"/>
</g>
</g>
</g>

<g transform="matrix( 1, 0, 0, 1, 0,0) ">
<g transform="matrix( 1, 0, 0, 1, 0,0) ">
<use xlink:href="#MovieClips_PR2_Graphics_1_Apr_2014_fla_Symbol_667_9_Layer0_0_FILL"/>
</g>
</g>

<g transform="matrix( 1, 0, 0, 1, 0,0) ">
<g transform="matrix( 1, 0, 0, 1, 0,0) ">
<use xlink:href="#MovieClips_PR2_Graphics_1_Apr_2014_fla_Symbol_684_9_Layer1_0_FILL"/>
</g>
</g>
</svg>
