
<svg xmlns="http://www.w3.org/2000/svg" version="1.1" xmlns:xlink="http://www.w3.org/1999/xlink" preserveAspectRatio="none" x="0px" y="0px" width="550px" height="400px" viewBox="0 0 550 400">
<defs>
<g id="Graphics_Symbol_257_0_Layer0_0_FILL">
<path fill="#000000" stroke="none" d="
M 14.25 -3.25
Q 11.3 -3.25 6.95 -1.25 2.2 0.85 -1.95 4.35 -12.7 13.45 -12.7 25.45 -12.25 28.9 -11.05 32.15 -8.65 38.65 -4.7 38.6 -3.8 38.6 2.6 36.25 8.95 33.85 12.1 33.8 13.8 33.8 15.15 35.1
L 17.5 37.95
Q 20.95 42.05 27.1 42 31.65 42 37.4 38.05 43.8 33.55 51.4 32.55 58.1 31.65 61.1 28.4 63.55 25.7 63.55 21.2 63.55 16.6 59.8 13.35 56.2 10.3 52.45 11.2
L 43.7 13.2
Q 41.85 12.75 38.35 8.3 35.05 4 32 3.8 30.8 3.7 29.15 2.6
L 25.85 0.15
Q 20.75 -3.25 14.25 -3.25
M 45.3 17.2
Q 49.6 15.2 52.75 15.2 55.35 15.2 57.05 15.9 59.3 16.9 59.3 19.1 59.3 24 53.6 25.85 45.75 27.45 41.5 29.1 38.75 30.2 32.85 34.65 27.45 38.75 27 38.75 25.1 38.8 19.7 34.3 14.35 29.8 11.95 29.8 5.45 29.85 0.95 32.3 -3.55 34.75 -4.7 34.75
L -6.8 31.5
Q -8.9 27.75 -8.9 25.35 -8.9 23.4 -6.8 19.35 -4.5 14.85 -1.05 10.75 8.25 -0.2 18.6 -0.25 23.7 -0.25 23.7 5.55
L 21.8 8.05 19.85 10.45 19.95 12.3 22.4 12.55
Q 24.2 12.55 28.1 10.1 32 7.65 32.6 7.65 33.45 7.65 34.85 10.85 36.5 14.7 40.25 16.85 42.5 18.55 45.3 17.2 Z"/>
</g>

<g id="Graphics_Symbol_299_0_Layer1_0_FILL">
<path fill="#330000" fill-opacity="0.5019607843137255" stroke="none" d="
M 16.5 -3.65
Q 14.85 -3.65 10.2 -0.65 5.45 2.35 0.55 6.6 -12.15 17.55 -12.15 24.1 -12.15 31.9 -9.2 35.35 -8.25 36.45 -7.15 36.95
L -6.15 37.25
Q -5.55 37.25 0.5 34.5 6.55 31.8 9.35 31.8 10.65 31.75 16 36.35 21.35 40.95 26.3 40.9 33.25 40.9 38.55 36.7
L 42.35 33.7
Q 44.55 32.4 47.15 32.4 54.3 32.4 57.3 31.25 61.7 29.65 61.7 25 61.7 19.75 59.6 16.75 57.05 13.1 51.55 13.15 48.45 13.15 46.65 14.95 45.7 15.9 42.4 13.65
L 35.3 8.95
Q 31.65 6.7 30.3 6.7 28.1 6.7 26.35 8 24.45 9.5 22.45 9.65
L 23.55 6.7 24.2 4.5
Q 24.2 2.3 22.4 -0.3 20.05 -3.65 16.5 -3.65
M 50.4 23.85
L 45.95 24.2
Q 40.2 24.25 33.5 29.35
L 27.9 34.45
Q 25.65 34.45 20 31.15 14.3 27.75 9.55 27.8 5.7 27.8 0.85 29.25 -1.6 30 -3.35 30.7 -4.5 30.7 -4.95 29.35 -5.3 28.3 -5.3 25.6 -5.3 17.65 2.8 10.4 9.85 4.1 14.75 4.05 16.4 4.05 17.65 4.65 18.75 5.2 19.9 5.1
L 20.05 4.85
Q 19.8 6.65 17.05 8.3 14.45 9.85 14.45 12.65 14.45 14.05 15.5 14.8 16.45 15.5 18.15 15.5 19.15 15.5 19.9 14.75
L 21.4 13.15
Q 23.9 10.75 29.8 10.7 30.6 10.7 34.85 15.35 39.1 19.95 42.4 19.9
L 50.1 17.95
Q 54.95 17.95 57 21.5 52.5 23.4 50.4 23.85 Z"/>
</g>

<g id="Graphics_Symbol_299_0_Layer0_0_FILL">
<path fill="#FFFFFF" fill-opacity="0.25098039215686274" stroke="none" d="
M 2.5 19.25
L 2.85 20.5
Q 3.4 21.65 4.55 21.65 5.85 21.65 7.1 19.4 8.15 17.45 8.15 16.5 8.15 13.45 5.35 15.6 2.5 17.7 2.5 19.25
M 29.7 21.4
Q 29.7 19.65 26.5 19.55 23.25 19.5 23.25 21.75 23.1 22.25 23.45 22.7 24.05 23.6 26.35 23.55 29.7 23.55 29.7 21.4
M 49.1 22
Q 50.1 22 50.1 20.9 50.1 19.9 49.05 19.9 48 19.9 48 20.9
L 48.05 21.5
Q 48.3 22 49.1 22 Z"/>
</g>

<g id="MovieClips_Symbol_228_28_Layer1_0_FILL">
<path fill="#AE0000" stroke="none" d="
M 59.3 19.1
Q 59.3 16.9 57.05 15.9 55.35 15.2 52.75 15.2 49.6 15.2 45.3 17.2 42.5 18.55 40.25 16.85 36.5 14.7 34.85 10.85 33.45 7.65 32.6 7.65 32 7.65 28.1 10.1 24.2 12.55 22.4 12.55
L 19.95 12.3 19.85 10.45 23.7 5.55
Q 23.7 -0.25 18.6 -0.25 8.25 -0.2 -1.05 10.75 -4.5 14.85 -6.8 19.35 -8.9 23.4 -8.9 25.35 -8.9 27.75 -6.8 31.5
L -4.7 34.75
Q -3.55 34.75 0.95 32.3 5.45 29.85 11.95 29.8 14.35 29.8 19.7 34.3 25.1 38.8 27 38.75 27.45 38.75 32.85 34.65 38.75 30.2 41.5 29.1 45.75 27.45 53.6 25.85 59.3 24 59.3 19.1 Z"/>
</g>
</defs>

<g transform="matrix( 1, 0, 0, 1, -28.4,-10.7) ">
<g transform="matrix( 1, 0, 0, 1, 0,0) ">
<g transform="matrix( 1, 0, 0, 1, 0,0) ">
<use xlink:href="#Graphics_Symbol_257_0_Layer0_0_FILL"/>
</g>
</g>

<g transform="matrix( 1, 0, 0, 1, 0,0) ">
<g transform="matrix( 1, 0, 0, 1, 0,0) ">
<use xlink:href="#Graphics_Symbol_299_0_Layer1_0_FILL"/>
</g>

<g transform="matrix( 1, 0, 0, 1, 0,0) ">
<use xlink:href="#Graphics_Symbol_299_0_Layer0_0_FILL"/>
</g>
</g>
</g>

<g transform="matrix( 1, 0, 0, 1, -28.15,-10.5) ">
<g transform="matrix( 1, 0, 0, 1, 0,0) ">
<use xlink:href="#MovieClips_Symbol_228_28_Layer1_0_FILL"/>
</g>
</g>

<g transform="matrix( 1, 0, 0, 1, -28.4,-10.7) ">
<g transform="matrix( 1, 0, 0, 1, 0,0) ">
<g transform="matrix( 1, 0, 0, 1, 0,0) ">
<use xlink:href="#Graphics_Symbol_257_0_Layer0_0_FILL"/>
</g>
</g>
</g>
</svg>
