<?xml version='1.0' encoding='utf-8'?>
<svg xmlns="http://www.w3.org/2000/svg" xmlns:xlink="http://www.w3.org/1999/xlink" version="1.1" width="550px" height="400px" viewBox="0 0 550 400" preserveAspectRatio="none" data-xfl-root="UI/Pages/Levels/Backgrounds/bg6">
  <g data-xfl-symbol="UI/Pages/Levels/Backgrounds/bg6">
    <g data-xfl-symbol="Graphics/Symbol 318">
      <g data-svg-leaf="graphics_symbol_318_4cbfe7a0ba/t00_l004_f0000_r00.svg">
        <defs>
          <g id="xfl1_Layer0_0_FILL">
            <path fill="#000000" stroke="none" d=" M 550 400 L 550 0 0 0 0 400 550 400 Z" />
          </g>
        </defs>
        <g transform="matrix( 1, 0, 0, 1, 0,0) ">
          <use xlink:href="#xfl1_Layer0_0_FILL" />
        </g>
      </g>
      <g data-svg-leaf="graphics_symbol_318_4cbfe7a0ba/t00_l003_f0000_r00.svg">
        <defs>
          <g id="xfl2_Layer0_0_FILL">
            <path fill="#FFFF99" stroke="none" d=" M 569.5 450.5 L 569.5 304.75 Q 274 251.7 -21.5 296.95 L -21.5 450.5 569.5 450.5 Z" />
          </g>
        </defs>
        <g transform="matrix( 1, 0, 0, 1, 0,0) ">
          <use xlink:href="#xfl2_Layer0_0_FILL" />
        </g>
      </g>
      <g data-svg-leaf="graphics_symbol_318_4cbfe7a0ba/t00_l002_f0000_r00.svg">
        <defs>
          <g id="xfl3_Layer0_0_FILL">
            <path fill="#000000" fill-opacity="0.10196078431372549" stroke="none" d=" M 198.3 430.35 Q 196.25 421.8 188.2 416.5 166.65 402.35 141 396.9 L 127.95 394.2 Q 131.75 398.25 126 399 98.9 412.4 75.75 411.35 66.9 410.55 61.3 416 82.05 447.6 120.55 450.05 158.4 453.1 193.2 438.25 199.55 435.55 198.3 430.35 M 273.05 453.25 L 271.85 454.4 Q 288.7 463.3 311.7 463 329.65 461.75 346.2 455.4 352.05 453.1 353.5 447.1 380.1 433.85 410.65 432 455.7 430.7 500.3 435.6 530.3 439.1 557 449.3 556.45 447.25 557.65 446.7 548.05 428.95 526.7 418.7 491.85 401.95 452.65 400.7 388.05 397.45 325.2 411 306.65 414.9 290.75 425.35 282.8 430.55 277.6 438.3 273.2 445 273.05 453.1 L 273.05 453.25 M 194.9 298.9 L 191.5 298.9 190.8 300.95 173.5 302 Q 172.75 306.45 173.35 310.85 176.6 333.7 202.15 340.15 226.05 346.3 241.65 330.15 233.1 305.3 195.25 302.5 L 194.9 298.9 M 145.45 297.55 L 145.6 298.1 Q 147.6 301.55 151.85 302.4 L 165.55 302.55 162.75 297.2 190.75 294 190.75 292.5 Q 166.45 286.35 145.45 297.55 M 62.1 367.55 L 62 368 Q 32.35 364.2 19.5 384.65 22.15 407.8 46.6 409.55 L 59.6 409.05 Q 48.7 403.65 57 390 57.6 378.45 89.8 384 122 389.5 124.05 390.95 116.1 375.05 97.8 369.55 77.95 363.6 62.1 367.55 M 485.1 332.25 L 484.3 331.2 Q 482.65 333.95 482.2 334.1 L 484.25 331.1 483.9 330.65 Q 440.3 350.65 446.7 354.15 453.15 357.65 461.65 366.85 470.1 376 491.85 382.75 511.2 388.65 530.7 383.5 541.6 380.65 537.35 370.8 534.35 363.8 527.1 359.3 506.1 346.35 485 330 L 485.1 332.25 M 450.1 339.1 L 449.25 338.45 450 339 450 328 Q 459.2 320.35 468.6 326.95 474.35 331 483.55 330.15 470 313.3 446.85 315.8 434.4 317 423.5 322.85 L 423.8 325.5 421.85 326.85 Q 431.05 343.15 450.1 339.1 Z" />
          </g>
        </defs>
        <g transform="matrix( 1, 0, 0, 1, 0,0) ">
          <use xlink:href="#xfl3_Layer0_0_FILL" />
        </g>
      </g>
      <g data-svg-leaf="graphics_symbol_318_4cbfe7a0ba/t00_l001_f0000_r00.svg">
        <defs>
          <g id="xfl4_Layer0_0_FILL">
            <path fill="#F5E767" stroke="none" d=" M 373.15 445.1 L 370.3 443 Q 367.25 448.4 373.1 449.8 L 373.15 445.1 M 274.25 453.5 L 276.65 452.75 Q 297.6 416.5 340.1 409.25 409.6 397.4 479 409.1 499.75 412.5 518.85 421.55 537.5 430.45 552.55 444.55 L 555.85 447.85 557.6 446.5 Q 531.55 414 487.9 405.1 426.05 392.65 363.35 402.75 L 343.55 405.5 Q 339.15 405.85 334.85 406.95 321.15 410.55 307.85 415.85 288.25 425.25 275.2 442.8 271.1 448.3 274.25 453.5 M 190.65 310.6 Q 192.35 323 203.25 332.1 L 190.65 310.6 M 171.25 315.15 L 173.4 316.25 173.5 307.25 171.5 308.2 171.25 315.15 M 134.15 319.7 L 135.5 320.1 142.25 301.1 Q 162 307.95 182.45 303.6 188.5 302.25 194.2 299.95 194.8 303.1 196.15 305.85 197.95 309.45 201 312.05 202.15 313.1 203.25 313.3 203.5 306.5 197.8 300.5 194.95 297.5 191.85 295.2 169.1 306.35 145.25 298.75 146.45 297.95 147.75 297.45 149.6 296.75 148.55 298.3 168.2 291.8 189.8 293.8 175.15 284.25 155.6 290.1 134.05 296.5 134.15 319.7 M 154 314.85 L 156.25 311.85 Q 157.95 309.2 156.9 306.6 L 152.75 314.35 154 314.85 M 46.35 365.95 Q 23.75 369.4 14.1 389.8 9.5 399.45 1.65 407.15 -6.1 414.8 -14.9 421.2 6.8 413.45 16.35 392.45 30.35 409.6 52.2 413.2 69.45 416.3 86.7 413.7 108.1 410.4 126.15 398.55 127.9 410.8 138.15 417.15 142.3 419.75 146.95 420.55 134 408.75 128.65 391.9 L 131.15 393.2 Q 114.05 370.55 83 366.05 64.7 363.45 46.35 365.95 M 20 389.5 Q 28 369.5 53.15 368.8 69.1 368.35 85.3 369.45 107.7 371.6 120.95 388.7 127.4 397.1 117.8 400.9 98.25 408.65 76.85 408.85 55.6 409.05 35.15 404.3 22.35 401.35 20 389.5 M 420.15 326.75 Q 409.7 337.6 405.7 351.8 L 422.3 331.05 Q 438.3 345.3 459.9 344.4 474.85 343.9 486.85 335 L 506.85 379.1 488.4 332.8 Q 480.35 312.35 457.35 311.1 430.3 309.85 420.15 326.75 M 484.85 330 Q 468.2 342.2 446.2 339.75 432.3 338.35 424.7 327.4 L 426.1 322.6 424.2 323.35 Q 435.5 318.15 448.05 317 469.75 315.2 484.85 330 M 431.1 344.35 Q 424.75 350.1 426.6 354.1 L 431.1 344.35 M 477 359.8 L 478.35 360.1 478.1 347.35 Q 475.2 352.2 476.75 359.3 L 477 359.8 M 454.1 349.1 L 456.35 362.6 455.35 349.1 454.1 349.1 Z" />
          </g>
        </defs>
        <g transform="matrix( 1, 0, 0, 1, 0,0) ">
          <use xlink:href="#xfl4_Layer0_0_FILL" />
        </g>
      </g>
      <g data-svg-leaf="graphics_symbol_318_4cbfe7a0ba/t00_l000_f0000_r00.svg">
        <defs>
          <g id="xfl5_Layer0_0_FILL">
            <path fill="#FFFFFF" stroke="none" d=" M 227.1 232.5 Q 224 231.45 222.65 232.9 221.85 233.75 221.85 235.25 L 222.4 235.95 224.85 238 227.35 237 227.85 235.1 Q 227.85 233.65 227.5 233.15 L 227.1 232.5 M 32 256.8 L 32.5 259.5 Q 33.9 263 38 263 40.5 263 42.25 261.25 44 259.55 44 257.1 44 254.65 42.15 253.1 40.45 251.7 38 251.55 35.55 251.45 33.9 252.7 32 254.15 32 256.8 M 50.5 208.75 L 51.25 206.75 Q 50.25 205.25 49 204.75 L 47.5 204.95 Q 46.75 205.25 46.75 206.85 46.75 208.45 47.3 208.8 L 49 209.25 50.5 208.75 M 143 220 Q 144.55 219.4 145 218 L 144.25 216.5 142.75 216.95 Q 141.9 217.45 141 218.75 141.75 219.5 143 220 M 103.9 182.25 Q 105.15 185.45 108.9 185.45 111.15 185.45 112.75 183.85 114.35 182.25 114.35 180.1 114.35 177.8 112.65 176.4 111.15 175.15 108.9 175.05 106.65 174.95 105.15 176.15 103.45 177.45 103.45 179.8 L 103.9 182.25 M 72.5 79.9 L 75 82 77.5 81 78 79.1 Q 78 77.65 77.65 77.15 L 77.25 76.5 Q 74.05 75.45 72.75 76.9 72 77.7 72 79.25 L 72.5 79.9 M 48.75 53.95 Q 47.9 54.45 47 55.75 47.75 56.5 49 57 50.55 56.4 51 55 L 50.25 53.5 48.75 53.95 M 156 29.1 Q 156 27.65 155.65 27.15 L 155.25 26.5 Q 152.05 25.45 150.75 26.9 150 27.7 150 29.25 L 150.5 29.9 153 32 155.5 31 156 29.1 M 289.85 155 Q 291.4 154.4 291.85 153 L 291.1 151.5 289.65 151.95 Q 288.75 152.45 287.85 153.75 288.6 154.5 289.85 155 M 226.85 148.1 Q 226.85 146.65 226.5 146.15 L 226.1 145.5 Q 223 144.45 221.65 145.9 220.85 146.75 220.85 148.25 L 221.4 148.95 223.85 151 226.35 150 226.85 148.1 M 501.65 230.9 Q 500.85 231.75 500.85 233.25 L 501.4 233.95 503.85 236 506.35 235 506.85 233.1 Q 506.85 231.65 506.5 231.15 L 506.1 230.5 Q 503 229.45 501.65 230.9 M 392.85 251 Q 394.4 250.4 394.85 249 L 394.1 247.5 392.65 247.95 Q 391.75 248.45 390.85 249.75 391.6 250.5 392.85 251 M 462.85 278 Q 464.4 277.4 464.85 276 L 464.1 274.5 462.65 274.95 Q 461.75 275.45 460.85 276.75 461.6 277.5 462.85 278 M 415.75 167 Q 416.35 166.2 416.35 165.5 415.45 164.15 413.85 163.5 L 412.25 163.8 Q 411.35 164.15 411.35 165.75 411.35 168.25 411.6 167.25 412.35 168 413.85 168.5 415.05 168 415.75 167 M 330.85 62.1 Q 330.85 60.65 330.5 60.15 L 330.1 59.5 Q 327 58.45 325.65 59.9 324.85 60.75 324.85 62.25 L 325.4 62.95 327.85 65 330.35 64 330.85 62.1 M 432.25 79.4 Q 433.7 77.95 433.7 75.95 433.7 73.9 432.15 72.6 430.75 71.45 428.7 71.3 426.65 71.2 425.25 72.25 423.7 73.45 423.7 75.7 L 424.15 77.95 Q 425.3 80.85 428.7 80.85 430.8 80.85 432.25 79.4 M 523.85 158 Q 525.4 157.4 525.85 156 L 525.1 154.5 523.65 154.95 Q 522.75 155.45 521.85 156.75 522.6 157.5 523.85 158 M 497.85 35.1 Q 497.85 33.65 497.5 33.15 L 497.1 32.5 Q 494 31.45 492.65 32.9 491.85 33.75 491.85 35.25 L 492.4 35.95 494.85 38 497.35 37 497.85 35.1 Z" />
          </g>
        </defs>
        <g transform="matrix( 1, 0, 0, 1, 0,0) ">
          <use xlink:href="#xfl5_Layer0_0_FILL" />
        </g>
      </g>
    </g>
    <g transform="matrix(0.2200012207 0 0 0.2200012207 26 246)">
      <g data-xfl-symbol="MovieClips/Symbol 320">
        <g data-svg-leaf="movieclips_symbol_320_49fe3a9aec/t00_l000_f0000_r00.svg">
          <defs>
            <radialGradient id="xfl6_Gradient_1" gradientUnits="userSpaceOnUse" cx="0" cy="0" r="52.2" fx="0" fy="0" gradientTransform="matrix( 1, 0, 0, 1, 50,50) " spreadMethod="pad">
              <stop offset="0%" stop-color="#FFFFFF" />
              <stop offset="100%" stop-color="#FFFFFF" stop-opacity="0" />
            </radialGradient>
            <g id="xfl6_Layer0_0_FILL">
              <path fill="url(#xfl6_Gradient_1)" stroke="none" d=" M 85.4 85.4 Q 100 70.8 100 50 100 29.2 85.4 14.6 70.8 0 50 0 29.2 0 14.6 14.6 0 29.2 0 50 0 70.8 14.6 85.4 29.2 100 50 100 70.8 100 85.4 85.4 Z" />
            </g>
          </defs>
          <g transform="matrix( 1, 0, 0, 1, 0,0) ">
            <use xlink:href="#xfl6_Layer0_0_FILL" />
          </g>
        </g>
      </g>
    </g>
    <g data-svg-leaf="ui_pages_levels_backgrounds_bg6_1c630eb558/t00_l003_f0000_r00.svg">
      <defs>
        <g id="xfl7_Layer0_0_FILL">
          <path fill="#FFFFFF" stroke="none" d=" M 31 139 Q 31.4 139.55 32.5 139.55 33.65 139.55 34 139 31.45 137.7 31 139 M 240.75 110.95 Q 239.9 111.45 239 112.75 239.75 113.5 241 114 242.55 113.4 243 112 L 242.25 110.5 240.75 110.95 M 354 231 Q 355.55 230.4 356 229 L 355.25 227.5 353.75 227.95 Q 352.9 228.45 352 229.75 352.75 230.5 354 231 M 429.5 147.75 Q 431.05 147.45 432 146 L 431.5 145.25 430.05 145.2 429 145.5 Q 429 147 429.5 147.75 Z" />
        </g>
      </defs>
      <g transform="matrix( 1, 0, 0, 1, 0,0) ">
        <use xlink:href="#xfl7_Layer0_0_FILL" />
      </g>
    </g>
    <g transform="matrix(0.1999969482 0 0 0.1999969482 98 170)">
      <g data-xfl-symbol="MovieClips/Symbol 320">
        <g data-svg-leaf="movieclips_symbol_320_49fe3a9aec/t00_l000_f0000_r00.svg">
          <defs>
            <radialGradient id="xfl8_Gradient_1" gradientUnits="userSpaceOnUse" cx="0" cy="0" r="52.2" fx="0" fy="0" gradientTransform="matrix( 1, 0, 0, 1, 50,50) " spreadMethod="pad">
              <stop offset="0%" stop-color="#FFFFFF" />
              <stop offset="100%" stop-color="#FFFFFF" stop-opacity="0" />
            </radialGradient>
            <g id="xfl8_Layer0_0_FILL">
              <path fill="url(#xfl8_Gradient_1)" stroke="none" d=" M 85.4 85.4 Q 100 70.8 100 50 100 29.2 85.4 14.6 70.8 0 50 0 29.2 0 14.6 14.6 0 29.2 0 50 0 70.8 14.6 85.4 29.2 100 50 100 70.8 100 85.4 85.4 Z" />
            </g>
          </defs>
          <g transform="matrix( 1, 0, 0, 1, 0,0) ">
            <use xlink:href="#xfl8_Layer0_0_FILL" />
          </g>
        </g>
      </g>
    </g>
    <g transform="matrix(0.2001495361 0 0 0.2001495361 418 65)">
      <g data-xfl-symbol="MovieClips/Symbol 320">
        <g data-svg-leaf="movieclips_symbol_320_49fe3a9aec/t00_l000_f0000_r00.svg">
          <defs>
            <radialGradient id="xfl9_Gradient_1" gradientUnits="userSpaceOnUse" cx="0" cy="0" r="52.2" fx="0" fy="0" gradientTransform="matrix( 1, 0, 0, 1, 50,50) " spreadMethod="pad">
              <stop offset="0%" stop-color="#FFFFFF" />
              <stop offset="100%" stop-color="#FFFFFF" stop-opacity="0" />
            </radialGradient>
            <g id="xfl9_Layer0_0_FILL">
              <path fill="url(#xfl9_Gradient_1)" stroke="none" d=" M 85.4 85.4 Q 100 70.8 100 50 100 29.2 85.4 14.6 70.8 0 50 0 29.2 0 14.6 14.6 0 29.2 0 50 0 70.8 14.6 85.4 29.2 100 50 100 70.8 100 85.4 85.4 Z" />
            </g>
          </defs>
          <g transform="matrix( 1, 0, 0, 1, 0,0) ">
            <use xlink:href="#xfl9_Layer0_0_FILL" />
          </g>
        </g>
      </g>
    </g>
    <g data-xfl-symbol="Graphics/Symbol 322">
      <g data-svg-leaf="graphics_symbol_322_d5120dad48/t00_l002_f0000_r00.svg">
        <defs>
          <g id="xfl10_Layer0_0_FILL">
            <path fill="#006699" stroke="none" d=" M 203.85 76.1 Q 186.75 59 162.5 59 138.25 59 121.1 76.1 104 93.25 104 117.5 104 141.75 121.1 158.85 138.25 176 162.5 176 186.75 176 203.85 158.85 221 141.75 221 117.5 221 93.25 203.85 76.1 Z" />
          </g>
        </defs>
        <g transform="matrix( 1, 0, 0, 1, 0,0) ">
          <use xlink:href="#xfl10_Layer0_0_FILL" />
        </g>
      </g>
      <g data-svg-leaf="graphics_symbol_322_d5120dad48/t00_l001_f0000_r00.svg">
        <defs>
          <g id="xfl11_Layer0_0_FILL">
            <path fill="#009966" stroke="none" d=" M 220.35 129 L 208 125 Q 223.2 117.1 219.1 108.15 L 214.25 98.75 Q 204.45 98.1 195.4 101.9 L 208.6 129.1 218.1 131.7 220.35 129 M 207.6 124.95 L 207.75 125.2 Q 208.25 126.95 207.6 124.95 M 209.35 99.95 L 209.25 100.25 Q 207.65 99.15 209.35 99.95 M 183.5 72.5 Q 183.45 69.55 182.85 69 182.25 68.45 179.75 69 L 174.9 69.95 Q 166.1 69.2 163.4 70.2 162.55 70.55 161.85 71.35 L 161.85 71.4 160.55 71.45 Q 155 69.3 149.75 68.4 L 140.85 68.05 141.25 67.85 Q 135.9 68.45 123.75 74.15 111.55 79.8 118.3 93.9 125 108.05 144.05 116.35 163.1 124.6 161.2 140.45 159.3 156.3 164.25 173.25 172.7 155.5 188.45 142.75 L 180.75 137.8 186.55 142.1 Q 157.65 131.45 149.8 106.05 149.45 104.95 149.65 103.75 154.55 102.1 158.55 105.4 162.05 108.25 164 112.25 163.1 94.4 175.9 82 L 177.5 80.5 176.15 79.6 176.2 78.2 Q 177.15 76.7 183.5 77 L 183.5 72.5 M 163.05 72.1 L 162.9 72.4 162.65 72.3 163.05 72.1 Z" />
            <path fill="#9D9D9D" stroke="none" d=" M 169.3 63.2 L 169 63 Q 152.25 55.6 142.5 64.25 L 146.25 64.75 141.25 67.85 140.85 68.05 149.75 68.4 Q 156.3 68.1 163.25 66.25 L 160.5 64 169.3 63.2 M 146.5 67 L 142.5 67.25 Q 144.4 66.3 146.5 67 Z" />
          </g>
        </defs>
        <g transform="matrix( 1, 0, 0, 1, 0,0) ">
          <use xlink:href="#xfl11_Layer0_0_FILL" />
        </g>
      </g>
      <g data-svg-leaf="graphics_symbol_322_d5120dad48/t00_l000_f0000_r00.svg">
        <defs>
          <radialGradient id="xfl12_Gradient_1" gradientUnits="userSpaceOnUse" cx="0" cy="0" r="109.25" fx="0" fy="0" gradientTransform="matrix( 1, 0, 0, 1, 116.6,90.3) " spreadMethod="pad">
            <stop offset="0%" stop-color="#000000" stop-opacity="0" />
            <stop offset="63.529411764705884%" stop-color="#000000" stop-opacity="0" />
            <stop offset="86.27450980392157%" stop-color="#0E0E0E" stop-opacity="0.9019607843137255" />
          </radialGradient>
          <g id="xfl12_Layer0_0_FILL">
            <path fill="url(#xfl12_Gradient_1)" stroke="none" d=" M 203.85 76.1 Q 186.75 59 162.5 59 138.25 59 121.1 76.1 104 93.25 104 117.5 104 141.75 121.1 158.85 138.25 176 162.5 176 186.75 176 203.85 158.85 221 141.75 221 117.5 221 93.25 203.85 76.1 Z" />
          </g>
        </defs>
        <g transform="matrix( 1, 0, 0, 1, 0,0) ">
          <use xlink:href="#xfl12_Layer0_0_FILL" />
        </g>
      </g>
    </g>
  </g>
</svg>