<?xml version='1.0' encoding='utf-8'?>
<svg xmlns="http://www.w3.org/2000/svg" xmlns:xlink="http://www.w3.org/1999/xlink" version="1.1" width="550px" height="400px" viewBox="0 0 550 400" preserveAspectRatio="none" data-xfl-root="UI/Pages/Levels/Backgrounds/bg7">
  <g data-xfl-symbol="UI/Pages/Levels/Backgrounds/bg7">
    <g data-xfl-symbol="Graphics/Symbol 325">
      <g data-svg-leaf="graphics_symbol_325_8400b40386/t00_l003_f0000_r00.svg">
        <defs>
          <radialGradient id="xfl1_Gradient_1" gradientUnits="userSpaceOnUse" cx="0" cy="0" r="454.88750000000005" fx="0" fy="0" gradientTransform="matrix( 0.9999999999999999, 0, 0, 0.9999999999999999, 274.6,301.8) " spreadMethod="pad">
            <stop offset="6.2745098039215685%" stop-color="#E9C127" />
            <stop offset="10.980392156862745%" stop-color="#64360B" />
            <stop offset="76.86274509803921%" stop-color="#15102C" />
            <stop offset="100%" stop-color="#000000" />
          </radialGradient>
          <g id="xfl1_Layer0_0_FILL">
            <path fill="url(#xfl1_Gradient_1)" stroke="none" d=" M 550 400 L 550 0 0 0 0 400 550 400 Z" />
          </g>
        </defs>
        <g transform="matrix( 1, 0, 0, 1, 0,0) ">
          <use xlink:href="#xfl1_Layer0_0_FILL" />
        </g>
      </g>
      <g data-svg-leaf="graphics_symbol_325_8400b40386/t00_l002_f0000_r00.svg">
        <defs>
          <g id="xfl2_Layer0_0_FILL">
            <path fill="#000000" stroke="none" d=" M 387.1 333.5 Q 386.25 333.5 381.35 330.15 374 325.1 370.15 322.75 352.4 312 339.35 312 336.55 312 333.8 313.4 331 314.75 325.1 314.75 317.3 314.75 313.25 312.45 308.8 309.2 304.35 307.4 286.4 300 223 300 L 197.2 299.5 179.35 300.25 Q 164.65 302.2 119.25 318 113.95 319.8 79.05 324.15 44.15 328.5 41.25 329.5 34.7 331.75 29.05 335.1 L 20.6 340 Q 10.4 344.75 -16.25 344.75 -17.25 343.05 -18.75 341.4 -21.7 338 -25.5 338 -29.05 338 -38.75 345.55 -48 352.7 -48 354 -48 355.9 -44.5 358.95 -41 362 -41 362.5 L -43 370.55 Q -45 379 -45 382 -45 387.4 -32.1 394.65 -20.55 401.1 -1.5 407.65 16.5 413.8 34.45 417.75 52.95 421.85 63.5 421.85 80.8 421.85 124.95 414 169.1 406.1 185 406.1 244.55 406.1 289 412 311.75 415 328.35 418.6 L 397.75 421 447.85 421.1 493.65 423.95 532.35 425.85 Q 551.75 425.85 564.4 417.6 574.85 410.8 574.85 403.75 L 575.85 388 572.85 375.25 Q 572.85 374.2 574.35 369.7 575.85 365.2 575.85 362.5 575.85 353.5 571.7 348.15 563.95 338.2 542.6 338.5 L 525.5 336.65 498.3 332.35 Q 457.35 326 434.35 326 420.3 326 402.85 329.75 388.05 333.5 387.1 333.5 Z" />
          </g>
        </defs>
        <g transform="matrix( 1, 0, 0, 1, 0,0) ">
          <use xlink:href="#xfl2_Layer0_0_FILL" />
        </g>
      </g>
      <g data-svg-leaf="graphics_symbol_325_8400b40386/t00_l001_f0000_r00.svg">
        <defs>
          <g id="xfl3_Layer0_0_FILL">
            <path fill="#000000" stroke="none" d=" M 260.8 62.85 L 255 77.7 295 80.25 289.2 64.75 260.8 62.85 M 255 77.7 L 275 93.5 295 80.25 255 77.7 M 274.35 28.65 L 268.55 42.2 280.8 43.5 274.35 28.65 M 282.1 46.7 L 267.9 45.4 262.1 59.6 287.9 61.55 282.1 46.7 Z" />
          </g>
          <path id="xfl3_Layer0_0_1_STROKES" stroke="#FFFFFF" stroke-width="2" stroke-linejoin="round" stroke-linecap="round" fill="none" d=" M 282.1 46.7 L 287.9 61.55 262.1 59.6 267.9 45.4 282.1 46.7 Z M 268.55 42.2 L 274.35 28.65 280.8 43.5 268.55 42.2 Z M 295 80.25 L 275 93.5 255 77.7 260.8 62.85 289.2 64.75 295 80.25 255 77.7" />
        </defs>
        <g transform="matrix( 1, 0, 0, 1, 0,0) ">
          <use xlink:href="#xfl3_Layer0_0_FILL" />
          <use xlink:href="#xfl3_Layer0_0_1_STROKES" />
        </g>
      </g>
      <g data-svg-leaf="graphics_symbol_325_8400b40386/t00_l000_f0000_r00.svg">
        <defs>
          <g id="xfl4_Layer0_0_FILL">
            <path fill="#000000" stroke="none" d=" M 302.75 94.65 Q 273.45 73.4 244.2 94.65 L 244.2 126.55 234.1 130 234.1 400 314.1 400 314.1 130 302.75 125.95 302.75 94.65 Z" />
          </g>
        </defs>
        <g transform="matrix( 1, 0, 0, 1, 0,0) ">
          <use xlink:href="#xfl4_Layer0_0_FILL" />
        </g>
      </g>
    </g>
  </g>
</svg>