
<svg xmlns="http://www.w3.org/2000/svg" version="1.1" xmlns:xlink="http://www.w3.org/1999/xlink" preserveAspectRatio="none" x="0px" y="0px" width="550px" height="400px" viewBox="0 0 550 400">
<defs>
<g id="Parts_Feet_footMC_40_Layer7_0_FILL">
<path fill="#FFFF66" stroke="none" d="
M 53.3 32.75
Q 55.4 27.25 48.9 27 47.3 26.95 45.95 26.35 41.9 24.6 37.2 25.05 36.15 25.15 35.05 25.3 33.85 25.55 32.65 25.7 24.7 26.8 18.25 31 17.05 31.75 16.4 32.65 16.4 32.7 16.35 32.7 11.95 34.9 15.15 38.6 16 39.55 17.1 40 17.7 40.25 18.35 40.45 19.05 41.75 20.6 42.4 25.3 44.4 30.35 44.9 34.55 45.35 38.85 44.5 49.6 42.4 53.3 32.75 Z"/>
</g>

<g id="Parts_Sets_Bat_batFoot_0_Layer0_0_FILL">
<path fill="#000000" stroke="none" d="
M 123.35 65.35
Q 123.75 63.65 123.8 62.2 126.2 52.9 123.25 42.55 116.25 17.65 92.3 7.55 70.4 -1.65 46.4 0.35 44.7 0.65 42.4 0.9 36.65 1.55 30.9 2.3 28.6 2.6 26.45 3.2 20.65 5.8 14.05 7.35 13.65 7.45 13.3 7.55 -0.2 26.7 0 50.7 0.2 77.85 4.75 104.35 7.05 117.65 11.45 130.55 20.3 156.1 35.25 178.85 40.95 187.55 48.95 193.75 52.1 194.45 54.95 197.05 56.85 198.8 59.25 199.9 75.4 207.15 93.05 208.4 106.7 209.35 120 206.2 127.95 204.3 135.75 201.85 136.85 201.25 137.95 200.65 146.8 196.05 154.9 190.4 155.4 190.05 155.85 189.7 155.75 189.6 155.7 189.5 165.05 178.1 166.1 162.4 167 149.15 161.35 137.2 149.6 112.35 126.4 96.8 119.4 92.1 112.15 87.9 120.5 78.35 123.35 65.35
M 112.65 52.7
Q 113.1 59.4 112.65 65.4 110.05 73.7 104.75 81.1 103.85 82.35 103.4 83.5 98.7234375 81.4978515625 93.9 80.15 82.2412109375 76.927734375 69.75 77.6 66.4533203125 77.816796875 65.15 79.4 64.95234375 79.628515625 64.8 79.9 77.9 83.75 90.6 88.75 99.15 92.1 106.7 96.55 106.7 96.7 106.7 96.8 106.7 96.85 106.7 96.95 119.75 103.2 131.2 112.4 151.3 128.55 155.4 152.3 146 147.1 134.8 145.75 118.75 143.75 102.55 144.15 81.9 146.15 63.75 156.65 52.7 163.1 43.5 171.75 37.25 163.35 31.9 154.2 25.25 142.75 21.6 129.95 14.2 104.1 10.75 77.4 7.2 49.95 15.15 23.8 16.25 20.3 18.55 17.6 20.35 15.5 21.15 13.7 48.65 8.6 77.3 14.2 110.4 20.7 112.65 52.7
M 52.95 183.5
Q 51.1 181.35 49.3 179.2 53.8 175.05 58.65 171.15 68.3798828125 163.323046875 79.55 159 89.2640625 155.2634765625 100.05 154.15 100.103125 154.52421875 100.15 154.9 101.3306640625 163.97734375 99.85 172.75 98.679296875 179.75859375 95.8 186.55 94.185546875 190.3650390625 92.05 194.1 90.8 196.3 89.15 198.1 88.25 199.05 87.7 200 85.6611328125 199.6162109375 83.65 199.1 72.59609375 196.4775390625 62.2 190.8 61.913671875 190.625 61.6 190.45 56.65 187.7 52.95 183.5
M 107.7 153.6
Q 108.2109375 153.5794921875 108.7 153.55 118.148046875 153.2642578125 127.35 154.45 129.39921875 162.6640625 128.9 170.65 128.3201171875 180.1919921875 124.1 189.4 121.699609375 194.6822265625 118.1 199.85 117.95 200.05 117.8 200.3 115.75 200.6 113.65 200.85 104.25 201.9 95.3 201.05 100.45 193.5 103.75 184.55 103.804296875 184.403125 103.85 184.25 106.153125 177.9748046875 107.35 171.5 108.39296875 165.8484375 108.6 160.05 108.746875 156.4755859375 107.75 153.7 107.7216796875 153.6580078125 107.7 153.6
M 156.2 163.65
Q 155.8 167.15 154.5 170.45 153.4296875 173.1123046875 152.15 175.55 144.1748046875 191.06875 128.7 197.25 130.9 193.45 132.3 188.8 134.8927734375 180.1201171875 135.9 171.2 136.2759765625 168.26953125 136.45 165.3 136.75 159.95 135.2 155.7 145.3 157.65 155.15 161.45 155.6 162.8 156.2 163.65
M 165.1 133.85
L 165.1 133.65 165 133.65
Q 165.05 133.75 165.1 133.85 Z"/>

<path fill="#000000" fill-opacity="0.28627450980392155" stroke="none" d="
M 154.5 170.45
Q 155.8 167.15 156.2 163.65 155.6 162.8 155.15 161.45 145.3 157.65 135.2 155.7 136.75 159.95 136.45 165.3 136.2759765625 168.26953125 135.9 171.2 139.6046875 171.6201171875 143.3 172.25 145.5 172.6 147.25 173.65 150.012890625 175.2716796875 152.15 175.55 153.4296875 173.1123046875 154.5 170.45
M 108.7 153.55
Q 108.2359375 153.64453125 107.75 153.7 108.746875 156.4755859375 108.6 160.05 108.39296875 165.8484375 107.35 171.5 118.028125 170.0740234375 128.9 170.65 129.39921875 162.6640625 127.35 154.45 118.148046875 153.2642578125 108.7 153.55
M 49.3 179.2
Q 51.1 181.35 52.95 183.5 56.65 187.7 61.6 190.45 61.913671875 190.625 62.2 190.8 62.5728515625 190.4599609375 62.9 190.1 69.8 182.5 79.45 178.75 89.5556640625 174.80546875 99.85 172.75 101.3306640625 163.97734375 100.15 154.9 97.3341796875 155.3123046875 94.5 155.7 86.7208984375 156.7607421875 79.55 159 68.3798828125 163.323046875 58.65 171.15 53.8 175.05 49.3 179.2
M 92.15 28.5
Q 95.6 29.9 98.25 32.4 104.2 38.2 106.45 46.8 106.9 48.4 106.9 49.9 107.25 64.1 96.9 75.15 94.4302734375 77.7869140625 93.9 80.15 98.7234375 81.4978515625 103.4 83.5 103.85 82.35 104.75 81.1 110.05 73.7 112.65 65.4 113.1 59.4 112.65 52.7 110.4 20.7 77.3 14.2 48.65 8.6 21.15 13.7 20.35 15.5 18.55 17.6 16.25 20.3 15.15 23.8 7.2 49.95 10.75 77.4 14.2 104.1 21.6 129.95 25.25 142.75 31.9 154.2 37.25 163.35 43.5 171.75 52.7 163.1 63.75 156.65 81.9 146.15 102.55 144.15 118.75 143.75 134.8 145.75 146 147.1 155.4 152.3 151.3 128.55 131.2 112.4 119.75 103.2 106.7 96.95 106.7 96.85 106.7 96.8 106.7 96.7 106.7 96.55 99.15 92.1 90.6 88.75 77.9 83.75 64.8 79.9 64.95234375 79.628515625 65.15 79.4 64.0966796875 79.8072265625 63.05 80.25 69.45 84.6 76.4 88.25 91 95.9 104.8 104.8 113.05 110.2 118.6 117.65 133.2 127.85 141.9 142.05 122.85 133.55 101.35 134.5 80.75 135.3 62.35 144.95 53.4 149.65 46.1 156.2 43.5 148.5 37.7 141.9 35.65 139.5 34.4 136.75 26.5 119.35 21.5 100.65 21.35 100.2 21.25 99.75 18.6 89.4 17.75 78.8 16.1 58 21.8 38.2 23.95 30.7 27.4 23.7 33.9 21.7 40.65 21.1 46.7 20.55 52.65 20.65 73.1 20.85 92.15 28.5 Z"/>

<path fill="#FFFFFF" fill-opacity="0.47843137254901963" stroke="none" d="
M 103.85 184.25
Q 103.804296875 184.403125 103.75 184.55 100.45 193.5 95.3 201.05 104.25 201.9 113.65 200.85 115.75 200.6 117.8 200.3 117.95 200.05 118.1 199.85 121.699609375 194.6822265625 124.1 189.4 115.18984375 183.79921875 103.85 184.25
M 92.05 194.1
Q 94.185546875 190.3650390625 95.8 186.55 89.99296875 189.9630859375 85.1 195.2 83.3638671875 197.03828125 83.65 199.1 85.6611328125 199.6162109375 87.7 200 88.25 199.05 89.15 198.1 90.8 196.3 92.05 194.1 Z"/>

<path fill="#FFFFFF" fill-opacity="0.09803921568627451" stroke="none" d="
M 53.9 91.15
Q 53.25 91.4 52.65 91.65 45.35 94.8 43.45 100.65 41.7 105.85 44.15 113.15 46.4 119.75 47.3 126.55 48.55 135.35 56.55 134.45 71.55 132.8 87.05 129.65 101.2 126.8 93.35 115.55 90.3 111.2 86.2 107.7 71.65 95.25 53.9 91.15
M 58.7 121.85
Q 58.35 120.65 57.95 119.45 58.75 120.7 59.6 121.95 59.15 121.9 58.7 121.85
M 87.75 54.3
Q 89.2 50.65 86.75 47.85 74.35 33.4 54.35 33.65 53.5 33.65 52.65 33.75 38.4 34.9 33.95 48.2 30.5 58.6 39.55 65 45.65 69.3 52.65 70.7 59.75 72.1 67.75 70.5 82.6 67.5 87.75 54.3 Z"/>
</g>

<g id="MovieClips_Symbol_228_40_Layer1_0_FILL">
<path fill="#354466" stroke="none" d="
M 7.15 -26.25
Q 3.7 -25.7 1.85 -22.5 -1.5 -16.7 -2 -9.7 -2.45 -3.05 -1.7 3.85 -1.2 8.7 0.3 13.5 2.1 19.3 5.2 24.5
L 5.75 25.55
Q 6.3 26.6 6.5 26.9
L 7.7 28.55
Q 7.9 28.9 8.25 29.6
L 8.95 30.45
Q 9 30.55 9.8 31.95 10.3 32.8 10.85 33.15 11.65 33.6 12.4 33.35 12.85 33.3 13.3 33.05 13.8 32.8 14.3 32.3 15.4 31.35 16.4 30.9
L 17.85 30.2
Q 18.1 30.1 18.75 29.7 26.65 26.5 34.85 23.75 40.5 21.95 45.7 24.5 46.75 25 47.7 25.05 49.5 27.35 52.45 25.55 54.4 24.4 53.6 22.3 49.8 12.75 41.4 6.8 40.25 6 39.1 5.15 36.85 3.4 34.45 1.95 38.5 -6.3 36.35 -15.1 35.85 -16.95 34.9 -18.6 33 -21.75 29.45 -23.05 18.8 -27.05 7.15 -26.25 Z"/>
</g>

<g id="MovieClips_Symbol_264_40_Layer1_0_FILL">
<path fill="#FFFF66" stroke="none" d="
M 48.25 26.45
Q 46.65 26.4 45.3 25.8 41.25 24.05 36.55 24.5 35.5 24.6 34.4 24.75 33.2 25 32 25.15 24.05 26.25 17.6 30.45 16.4 31.2 15.75 32.1 15.75 32.15 15.7 32.15 11.3 34.35 14.5 38.05 15.35 39 16.45 39.45 17.05 39.7 17.7 39.9 18.4 41.2 19.95 41.85 24.65 43.85 29.7 44.35 33.9 44.8 38.2 43.95 48.95 41.85 52.65 32.2 54.75 26.7 48.25 26.45 Z"/>
</g>
</defs>

<g transform="matrix( 1, 0, 0, 1, -28.4,-10.7) ">
<g transform="matrix( 1, 0, 0, 1, 0,0) ">
<use xlink:href="#Parts_Feet_footMC_40_Layer7_0_FILL"/>
</g>

<g transform="matrix( 0.360992431640625, 0, 0, 0.3607177734375, -4.05,-29.45) ">
<g transform="matrix( 1, 0, 0, 1, 0,0) ">
<use xlink:href="#Parts_Sets_Bat_batFoot_0_Layer0_0_FILL"/>
</g>
</g>
</g>

<g transform="matrix( 1, 0, 0, 1, -28.15,-10.5) ">
<g transform="matrix( 1, 0, 0, 1, 0,0) ">
<use xlink:href="#MovieClips_Symbol_228_40_Layer1_0_FILL"/>
</g>
</g>

<g transform="matrix( 1, 0, 0, 1, -28.4,-10.7) ">
<g transform="matrix( 1, 0, 0, 1, 0,0) ">
<use xlink:href="#MovieClips_Symbol_264_40_Layer1_0_FILL"/>
</g>
</g>
</svg>
