
<svg xmlns="http://www.w3.org/2000/svg" version="1.1" xmlns:xlink="http://www.w3.org/1999/xlink" preserveAspectRatio="none" x="0px" y="0px" width="550px" height="400px" viewBox="0 0 550 400">
<defs>
<g id="MovieClips_Symbol_264_40_Layer1_0_FILL">
<path fill="#FFFF66" stroke="none" d="
M 48.25 26.45
Q 46.65 26.4 45.3 25.8 41.25 24.05 36.55 24.5 35.5 24.6 34.4 24.75 33.2 25 32 25.15 24.05 26.25 17.6 30.45 16.4 31.2 15.75 32.1 15.75 32.15 15.7 32.15 11.3 34.35 14.5 38.05 15.35 39 16.45 39.45 17.05 39.7 17.7 39.9 18.4 41.2 19.95 41.85 24.65 43.85 29.7 44.35 33.9 44.8 38.2 43.95 48.95 41.85 52.65 32.2 54.75 26.7 48.25 26.45 Z"/>
</g>
</defs>

<g transform="matrix( 1, 0, 0, 1, -28.4,-10.7) ">
<g transform="matrix( 1, 0, 0, 1, 0,0) ">
<use xlink:href="#MovieClips_Symbol_264_40_Layer1_0_FILL"/>
</g>
</g>
</svg>
