
<svg xmlns="http://www.w3.org/2000/svg" version="1.1" xmlns:xlink="http://www.w3.org/1999/xlink" preserveAspectRatio="none" x="0px" y="0px" width="550px" height="400px" viewBox="0 0 550 400">
<defs>
<g id="Layer0_0_FILL">
<path fill="#000000" fill-opacity="0.25098039215686274" stroke="none" d="
M 54.2 34.05
L 44.85 28.05
Q 44.85 31.1 46.9 33.3 48.9 35.45 51.8 35.45
L 54.2 34.05
M 41.5 33.85
L 41.6 33.65 38.55 32.55 35.25 32.5 34.1 32.6 33.4 32.45 33.4 32.4
Q 24.85 31.9 15.8 29.85 16.05 30.05 16.15 30.6 16.25 31.25 15.85 31.85 15.45 32.45 14.7 32.7
L 14.35 32.6 13.6 31.35 15.35 31.65 15.2 30.4
Q 15.1 29.95 15.35 29.75
L 15.2 29.7
Q 4.5 27.2 -0.35 24.25
L -1.2 24.05 -1.6 23.55
Q -5.2 20.7 -6.1 19.35
L -6.6 20.05 -7.9 20.85 -8.2 20.75 -8.25 19.95
Q -7.5 20.05 -7.1 19.45 -7.3 18.7 -8.65 17.95 -8.55 17.55 -7.6 17.4
L -6.55 18.3
Q -6.9 13.6 -0.25 8.9 6.35 4.25 18.1 0.85 6.2 0.5 -4 6.15 -15.3 12.4 -15.3 21.95 -15.3 26.3 -14.5 28.15 -13.8 29.8 -11.85 30.4 -5.25 30.95 0.95 33.1 6.8 35.8 25.5 39.5
L 44.6 43.25
Q 44.6 42.7 45.4 40.25
L 46.5 37.35 41.5 33.85
M 5.75 29.95
Q 7.1 30.15 7.7 29.6
L 6.8 29.1
Q 6.2 28.75 6.2 28.15 6.2 27.55 6.35 27.6
L 6.5 27.8
Q 7.8 28.1 8.25 29.05
L 8.45 29.95
Q 8.45 30.95 7.9 30.8
L 7.05 31
Q 5.85 30.45 5.75 29.95
M 1.8 30.35
Q 1.5 30.8 0.5 30.85
L -0.8 30.35 -0.35 30.1 1.35 29.65
Q 0.9 27.6 1.2 27.4
L 1.35 27.45
Q 2.05 27.95 2.05 29.2
L 1.8 30.35
M 27.05 36.15
Q 26.45 36.15 25.95 35.7
L 25.55 35.25 26.8 35.1 28.05 35.25 27.75 34.1
Q 27.6 33.4 27.8 33.3
L 28.25 33.65 28.65 35
Q 28.7 36.15 27.05 36.15
M -7.6 27.5
L -9.5 26.25 -7.95 26.05
Q -6.95 26.3 -7.1 27.75
L -7.25 28.8 -8.15 29 -9.1 28.75 -9 28.55 -7.4 27.7
Q -6.7 27.35 -7.6 27.5
M 50.1 23.65
Q 49.75 24.15 49.75 24.7 49.75 26.65 55.25 28.3 63.65 30.85 67 32.6 66.8 31.8 67.4 30.1
L 68.05 28.45
Q 63.55 28.8 58.15 26.4 52.75 23.6 50.6 22.85
L 50.1 23.65
M 63.15 7.85
L 64.5 7.5 64.8 4.2 54.05 3.45
Q 53.9 4.1 53.9 5.1 53.9 5.9 55.35 6.8 57.45 8.05 61.25 8.05
L 63.15 7.85
M 72.95 12.15
L 71.95 12.25
Q 69 12.25 66 11.1
L 62.5 9.9
Q 57.5 9.9 53.5 7.65
L 53.6 7.5 53.9 7.3 53.85 7.1 53.5 7.2
Q 52.6 13.5 52.6 14.35 52.6 17.3 71.35 19.75
L 72.25 19.7 72.25 19.65 71.75 15.6
Q 71.75 14.95 72.2 13.75
L 72.95 12.15 Z"/>
</g>
</defs>

<g transform="matrix( 1, 0, 0, 1, 0,0) ">
<use xlink:href="#Layer0_0_FILL"/>
</g>
</svg>
