
<svg xmlns="http://www.w3.org/2000/svg" version="1.1" xmlns:xlink="http://www.w3.org/1999/xlink" preserveAspectRatio="none" x="0px" y="0px" width="550px" height="400px" viewBox="0 0 550 400">
<defs>
<g id="Layer0_0_FILL">
<path fill="#999999" stroke="none" d="
M 72.55 30.8
Q 71.6 30.6 69.4 29.35
L 68.8 32.75
Q 71.5 32.5 73.95 33.6 76.45 34.75 77.9 37
L 77.55 36.1 77.05 35.2 72.55 30.8
M 46.75 43.45
Q 48 46.05 52.35 46.95 51.3 40.6 47.2 39.2
L 46.8 39.7
Q 46.35 40.3 46.35 40.9
L 46.75 43.45
M 71 8.8
L 73.05 7.9
Q 72.55 6.7 69.65 5.55
L 66.4 4.55 66.05 8.85 69.7 9.2 71 8.8
M 81.4 21.8
L 81 20.65
Q 78.9 17.4 78.15 16.8 77.85 16.55 73.35 14.15
L 73.95 17.5 76.25 17.55
Q 77.75 18.2 81.4 21.8 Z"/>
</g>
</defs>

<g transform="matrix( 1, 0, 0, 1, 0,0) ">
<use xlink:href="#Layer0_0_FILL"/>
</g>
</svg>
